<svg width="18" height="19" viewBox="0 0 18 19" fill="none" xmlns="http://www.w3.org/2000/svg">
<path d="M5.07246 7.56407C5.07246 7.78381 5.09641 7.96197 5.13831 8.09263C5.18621 8.22328 5.24607 8.36581 5.32988 8.52022C5.35982 8.56773 5.37179 8.61524 5.37179 8.65681C5.37179 8.7162 5.33587 8.77559 5.25804 8.83498L4.88089 9.08441C4.82701 9.12004 4.77313 9.13786 4.72524 9.13786C4.66537 9.13786 4.6055 9.10816 4.54564 9.05471C4.46183 8.96563 4.38999 8.87061 4.33012 8.77559C4.27025 8.67463 4.21039 8.56179 4.14454 8.4252C3.67758 8.97157 3.09089 9.24475 2.38447 9.24475C1.8816 9.24475 1.48049 9.10222 1.18715 8.81716C0.893806 8.5321 0.744141 8.15201 0.744141 7.67691C0.744141 7.17211 0.923739 6.76233 1.28892 6.45352C1.65411 6.1447 2.13902 5.99029 2.75564 5.99029C2.95919 5.99029 3.16872 6.00811 3.39022 6.0378C3.61173 6.06749 3.83922 6.11501 4.07868 6.16845V5.73492C4.07868 5.28357 3.9829 4.96882 3.79731 4.78471C3.60574 4.60061 3.28246 4.51153 2.82149 4.51153C2.61196 4.51153 2.39645 4.53528 2.17494 4.58873C1.95344 4.64218 1.73792 4.70751 1.52839 4.79065C1.4326 4.83222 1.36076 4.85598 1.31886 4.86786C1.27695 4.87973 1.24702 4.88567 1.22307 4.88567C1.13926 4.88567 1.09735 4.82629 1.09735 4.70157V4.41057C1.09735 4.31555 1.10932 4.24428 1.13926 4.20271C1.16919 4.16114 1.22307 4.11957 1.30688 4.078C1.51641 3.9711 1.76785 3.88202 2.06119 3.81075C2.35454 3.73355 2.66584 3.69791 2.99511 3.69791C3.70751 3.69791 4.22835 3.85826 4.5636 4.17896C4.89286 4.49965 5.06049 4.98663 5.06049 5.6399V7.56407H5.07246ZM2.6419 8.46677C2.83945 8.46677 3.043 8.43114 3.25852 8.35987C3.47403 8.28861 3.66561 8.15795 3.82724 7.97979C3.92303 7.86695 3.99487 7.74224 4.03079 7.59971C4.06671 7.45717 4.09066 7.28495 4.09066 7.08303V6.8336C3.91704 6.79203 3.73146 6.7564 3.53989 6.73264C3.34832 6.70889 3.16273 6.69701 2.97715 6.69701C2.57604 6.69701 2.2827 6.77421 2.08514 6.93456C1.88758 7.09491 1.7918 7.32058 1.7918 7.61752C1.7918 7.89665 1.86364 8.1045 2.0133 8.24704C2.15698 8.39551 2.36651 8.46677 2.6419 8.46677ZM7.44914 9.10816C7.34138 9.10816 7.26955 9.09034 7.22165 9.04877C7.17376 9.01314 7.13185 8.93 7.09593 8.81716L5.68908 4.22647C5.65316 4.10769 5.6352 4.03049 5.6352 3.98891C5.6352 3.89389 5.68309 3.84044 5.77888 3.84044H6.36557C6.47931 3.84044 6.55714 3.85826 6.59905 3.89983C6.64694 3.93546 6.68286 4.01861 6.71878 4.13145L7.72453 8.06293L8.65844 4.13145C8.68837 4.01267 8.72429 3.93546 8.77218 3.89983C8.82008 3.8642 8.90389 3.84044 9.01165 3.84044H9.49058C9.60432 3.84044 9.68215 3.85826 9.73004 3.89983C9.77794 3.93546 9.81984 4.01861 9.84379 4.13145L10.7897 8.11044L11.8254 4.13145C11.8613 4.01267 11.9032 3.93546 11.9451 3.89983C11.993 3.8642 12.0708 3.84044 12.1786 3.84044H12.7353C12.8311 3.84044 12.885 3.88795 12.885 3.98891C12.885 4.01861 12.879 4.0483 12.873 4.08393C12.867 4.11957 12.8551 4.16708 12.8311 4.2324L11.3883 8.8231C11.3524 8.94187 11.3105 9.01908 11.2626 9.05471C11.2147 9.09034 11.1369 9.1141 11.0351 9.1141H10.5203C10.4065 9.1141 10.3287 9.09628 10.2808 9.05471C10.2329 9.01314 10.191 8.93594 10.1671 8.81716L9.23914 4.98663L8.3172 8.81122C8.28727 8.93 8.25135 9.0072 8.20346 9.04877C8.15556 9.09034 8.07175 9.10816 7.96399 9.10816H7.44914ZM15.1419 9.26851C14.8306 9.26851 14.5193 9.23288 14.22 9.16161C13.9207 9.09035 13.6872 9.01314 13.5315 8.92406C13.4358 8.87061 13.3699 8.81122 13.346 8.75777C13.322 8.70432 13.31 8.64493 13.31 8.59149V8.28861C13.31 8.16389 13.3579 8.1045 13.4477 8.1045C13.4836 8.1045 13.5196 8.11044 13.5555 8.12232C13.5914 8.1342 13.6453 8.15795 13.7052 8.18171C13.9087 8.27079 14.1302 8.34206 14.3637 8.38957C14.6031 8.43708 14.8366 8.46083 15.0761 8.46083C15.4532 8.46083 15.7466 8.3955 15.9501 8.26485C16.1537 8.1342 16.2614 7.94416 16.2614 7.70066C16.2614 7.53438 16.2076 7.39779 16.0998 7.28495C15.992 7.17211 15.7885 7.07115 15.4951 6.97613L14.6271 6.70889C14.1901 6.57229 13.8668 6.37037 13.6692 6.10313C13.4717 5.84182 13.3699 5.55082 13.3699 5.242C13.3699 4.99257 13.4238 4.77284 13.5315 4.58279C13.6393 4.39275 13.783 4.22647 13.9626 4.09581C14.1422 3.95922 14.3457 3.85826 14.5852 3.78699C14.8246 3.71573 15.0761 3.68604 15.3395 3.68604C15.4712 3.68604 15.6089 3.69197 15.7406 3.70979C15.8783 3.72761 16.004 3.75136 16.1297 3.77512C16.2495 3.80481 16.3632 3.83451 16.471 3.87014C16.5787 3.90577 16.6625 3.9414 16.7224 3.97704C16.8062 4.02455 16.8661 4.07206 16.902 4.12551C16.9379 4.17302 16.9559 4.23834 16.9559 4.32149V4.60061C16.9559 4.72533 16.908 4.79065 16.8182 4.79065C16.7703 4.79065 16.6925 4.7669 16.5907 4.71939C16.2495 4.56498 15.8663 4.48777 15.4413 4.48777C15.1 4.48777 14.8306 4.54122 14.645 4.65406C14.4595 4.7669 14.3637 4.93912 14.3637 5.18261C14.3637 5.3489 14.4235 5.49143 14.5433 5.60427C14.663 5.71711 14.8845 5.82994 15.2018 5.9309L16.0519 6.19815C16.4829 6.33474 16.7942 6.52478 16.9798 6.76827C17.1654 7.01176 17.2552 7.29089 17.2552 7.59971C17.2552 7.85507 17.2013 8.08669 17.0996 8.28861C16.9918 8.49053 16.8481 8.66869 16.6625 8.81122C16.477 8.95969 16.2554 9.06659 15.998 9.14379C15.7286 9.22694 15.4473 9.26851 15.1419 9.26851Z" fill="#252F3E"/>
<path fill-rule="evenodd" clip-rule="evenodd" d="M16.2735 12.1547C14.3039 13.5978 11.4423 14.3639 8.98183 14.3639C5.53354 14.3639 2.42649 13.099 0.0797427 10.9966C-0.105842 10.8303 0.0617828 10.6047 0.283287 10.7353C2.82161 12.1963 5.95261 13.0811 9.19136 13.0811C11.3765 13.0811 13.7771 12.6298 15.9862 11.7033C16.3154 11.5549 16.5968 11.9171 16.2735 12.1547Z" fill="#FF9900"/>
<path fill-rule="evenodd" clip-rule="evenodd" d="M17.0933 11.2284C16.8418 10.9077 15.429 11.074 14.7884 11.1512C14.5968 11.1749 14.5669 11.0086 14.7405 10.8839C15.866 10.1 17.7159 10.3257 17.9314 10.587C18.1469 10.8542 17.8715 12.6893 16.8179 13.5682C16.6562 13.7048 16.5006 13.6336 16.5724 13.4554C16.8119 12.8675 17.3447 11.5431 17.0933 11.2284Z" fill="#FF9900"/>
</svg>
