<svg width="52" height="16" viewBox="0 0 52 16" fill="none" xmlns="http://www.w3.org/2000/svg">
<g clip-path="url(#clip0_1355_30642)">
<mask id="mask0_1355_30642" style="mask-type:luminance" maskUnits="userSpaceOnUse" x="-7" y="-16" width="63" height="48">
<path d="M-6.01367 -15.6484H55.453V31.8521H-6.01367V-15.6484Z" fill="white"/>
</mask>
<g mask="url(#mask0_1355_30642)">
<path d="M22.1212 5.01907L21.8534 5.76898H21.8388C21.7917 5.59241 21.7118 5.34404 21.5874 5.02721L20.153 1.43581H18.7549V7.14673H19.6782V3.63558C19.6782 3.4195 19.6728 3.15708 19.6637 2.85749C19.66 2.70544 19.6419 2.58475 19.6373 2.49254H19.6582C19.6935 2.65746 19.7371 2.82048 19.7889 2.98097L21.5057 7.14665H22.1512L23.8562 2.9424C23.8933 2.84708 23.936 2.66003 23.9733 2.49254H23.9932C23.9722 2.9084 23.9524 3.28778 23.9505 3.51799V7.14665H24.9337V1.43581H23.5901L22.1212 5.01907Z" fill="#706D6E"/>
<path d="M25.8613 7.14648H26.8255V3.05431H25.8613V7.14648Z" fill="#706D6E"/>
<path d="M26.3534 1.31493C26.1946 1.31493 26.0556 1.36849 25.9431 1.4756C25.8287 1.58271 25.7715 1.71799 25.7715 1.8764C25.7715 2.03349 25.8287 2.16559 25.9412 2.27084C26.0538 2.37485 26.1927 2.427 26.3534 2.427C26.515 2.427 26.654 2.37485 26.7684 2.27084C26.8809 2.16559 26.939 2.03349 26.939 1.8764C26.939 1.72303 26.8827 1.59 26.7711 1.47971C26.6603 1.37027 26.5214 1.31493 26.3534 1.31493Z" fill="#706D6E"/>
<path d="M30.2335 3.01269C30.0562 2.97526 29.8755 2.95609 29.6942 2.95549C29.2539 2.95549 28.8599 3.05033 28.524 3.23746C28.1891 3.42444 27.9294 3.69128 27.7523 4.03084C27.5762 4.36986 27.4863 4.76531 27.4863 5.20788C27.4863 5.59417 27.5744 5.94817 27.7442 6.26103C27.9158 6.5746 28.1582 6.81986 28.4651 6.9886C28.7719 7.15889 29.125 7.24512 29.5181 7.24512C29.9758 7.24512 30.3643 7.15384 30.6783 6.97409L30.6929 6.96679V6.08392L30.6521 6.11341C30.5075 6.21772 30.3485 6.30047 30.18 6.35906C30.0101 6.41898 29.8549 6.44801 29.7188 6.44801C29.3402 6.44801 29.0361 6.3305 28.8172 6.09703C28.5975 5.86419 28.4859 5.53603 28.4859 5.12436C28.4859 4.70858 28.6003 4.37305 28.8327 4.12468C29.0606 3.87748 29.3648 3.75259 29.7342 3.75259C30.051 3.75259 30.3597 3.85924 30.6521 4.07175L30.6929 4.10116V3.1711L30.6783 3.1638C30.5685 3.10249 30.4179 3.05173 30.2335 3.01269Z" fill="#706D6E"/>
<path d="M33.4053 2.98314C33.1619 2.98314 32.9459 3.06092 32.7617 3.21343C32.5983 3.34825 32.4812 3.53297 32.3912 3.76217H32.3813V3.05455H31.4189V7.14673H32.3814V5.05361C32.3814 4.69634 32.4612 4.40498 32.621 4.18393C32.7763 3.9656 32.9868 3.85476 33.2438 3.85476C33.33 3.85476 33.4262 3.86935 33.5325 3.89792C33.6367 3.92563 33.7122 3.95691 33.7566 3.98873L33.7976 4.01775V3.04679L33.783 3.03957C33.6931 3.00185 33.5651 2.98322 33.4053 2.98322" fill="#706D6E"/>
<path d="M36.7856 6.10658C36.604 6.33314 36.3317 6.44793 35.9758 6.44793C35.6226 6.44793 35.343 6.33135 35.1478 6.10022C34.9481 5.86737 34.8483 5.53596 34.8483 5.11606C34.8483 4.6818 34.9481 4.34223 35.1478 4.10621C35.343 3.87103 35.619 3.75259 35.9677 3.75259C36.3053 3.75259 36.575 3.86607 36.7675 4.09069C36.9608 4.31678 37.0597 4.65308 37.0597 5.09254C37.0597 5.53595 36.9671 5.87839 36.7856 6.10658ZM36.0175 2.95463C35.3449 2.95463 34.8092 3.15294 34.427 3.54334C34.0448 3.9322 33.8506 4.47294 33.8506 5.14749C33.8506 5.78836 34.0403 6.30364 34.4125 6.67946C34.7848 7.0548 35.2931 7.24512 35.9205 7.24512C36.5732 7.24512 37.1007 7.04533 37.4828 6.64903C37.8633 6.25374 38.0576 5.71998 38.0576 5.06072C38.0576 4.40992 37.8769 3.89052 37.5174 3.51789C37.1595 3.14378 36.6549 2.95463 36.0175 2.95463Z" fill="#706D6E"/>
<path d="M40.192 4.74482C39.8879 4.6232 39.6936 4.52145 39.6136 4.44438C39.5365 4.36901 39.4975 4.26369 39.4975 4.12972C39.4975 4.01043 39.5448 3.91597 39.6465 3.8375C39.7463 3.75981 39.8851 3.72085 40.0594 3.72085C40.2228 3.72085 40.3899 3.74576 40.5542 3.7966C40.7176 3.84705 40.8647 3.91326 40.9855 3.99677L41.0245 4.02355V3.13338L41.0082 3.12748C40.8992 3.07889 40.7502 3.03807 40.5724 3.00446C40.3944 2.97178 40.231 2.95541 40.0921 2.95541C39.6319 2.95541 39.2524 3.073 38.9637 3.30413C38.6712 3.5369 38.5225 3.84239 38.5225 4.21239C38.5225 4.40487 38.5551 4.57461 38.6178 4.71944C38.6814 4.86466 38.7793 4.99319 38.9101 5.10077C39.0371 5.20694 39.2361 5.31817 39.5012 5.43172C39.7236 5.52284 39.8879 5.5996 39.994 5.66084C40.0975 5.72029 40.1693 5.78021 40.2111 5.83881C40.251 5.89694 40.2719 5.97448 40.2719 6.07072C40.2719 6.34633 40.0658 6.48014 39.6428 6.48014C39.4848 6.48014 39.305 6.44747 39.1089 6.38304C38.9142 6.31864 38.7303 6.22531 38.5633 6.10619L38.5225 6.0767V7.01499L38.5371 7.02221C38.676 7.08624 38.8492 7.13971 39.0554 7.18062C39.2596 7.22416 39.4458 7.24512 39.6054 7.24512C40.1058 7.24512 40.507 7.1266 40.7976 6.89414C41.0935 6.65951 41.2424 6.3468 41.2424 5.96416C41.2424 5.68855 41.1615 5.45205 41.0036 5.26089C40.8447 5.07127 40.5724 4.89827 40.192 4.74482Z" fill="#706D6E"/>
<path d="M44.5972 6.10658C44.4156 6.33314 44.1432 6.44793 43.7882 6.44793C43.4343 6.44793 43.1546 6.33135 42.9585 6.10022C42.7597 5.86737 42.6598 5.53596 42.6598 5.11606C42.6598 4.6818 42.7597 4.34223 42.9584 4.10621C43.1546 3.87103 43.4306 3.75259 43.7791 3.75259C44.1187 3.75259 44.3866 3.86607 44.579 4.09069C44.7733 4.31678 44.8713 4.65308 44.8713 5.09254C44.8713 5.53595 44.7787 5.87839 44.5972 6.10658ZM43.8309 2.95463C43.1564 2.95463 42.6207 3.15294 42.2385 3.54334C41.8563 3.9322 41.6621 4.47294 41.6621 5.14749C41.6621 5.78836 41.8518 6.30364 42.224 6.67946C42.5963 7.0548 43.1047 7.24512 43.7312 7.24512C44.3866 7.24512 44.9122 7.04533 45.2943 6.64903C45.6766 6.25374 45.8691 5.71998 45.8691 5.06072C45.8691 4.40992 45.6885 3.89052 45.329 3.51789C44.9711 3.14378 44.4663 2.95463 43.8309 2.95463Z" fill="#706D6E"/>
<path d="M51.0022 3.83882V3.05445H50.0272V1.83333L49.9946 1.84342L49.0785 2.12337L49.0603 2.12889V3.05445H47.616V2.53869C47.616 2.29863 47.6704 2.11523 47.7748 1.99267C47.881 1.8719 48.031 1.81066 48.2225 1.81066C48.3594 1.81066 48.503 1.84249 48.6455 1.90691L48.6809 1.92243V1.09567L48.6646 1.09024C48.5311 1.04134 48.3495 1.01759 48.1225 1.01759C47.8384 1.01759 47.5806 1.07891 47.3554 1.20193C47.1294 1.32456 46.9515 1.49919 46.827 1.72304C46.7036 1.94502 46.641 2.20239 46.641 2.48754V3.05445H45.9619V3.83882H46.641V7.14654H47.616V3.83882H49.0604V5.94095C49.0604 6.80574 49.4689 7.24512 50.2732 7.24512C50.4058 7.24512 50.5465 7.22967 50.6881 7.19971C50.8325 7.16828 50.9315 7.13746 50.9887 7.10386L51.0022 7.09664V6.30365L50.9632 6.3305C50.9106 6.36488 50.8434 6.39438 50.7672 6.41526C50.6881 6.43745 50.6246 6.44793 50.5737 6.44793C50.385 6.44793 50.246 6.39756 50.1597 6.29775C50.0708 6.19607 50.0272 6.0195 50.0272 5.77113V3.83882H51.0022Z" fill="#706D6E"/>
<path d="M7.45656 7.88257H1.02832V1.45294H7.45656V7.88257Z" fill="#F1511B"/>
<path d="M14.5536 7.88257H8.12402V1.45294H14.5536V7.88257Z" fill="#80CC28"/>
<path d="M7.45656 14.9841H1.02832V8.55326H7.45656V14.9841Z" fill="#00ADEF"/>
<path d="M14.5536 14.9841H8.12402V8.55326H14.5536V14.9841Z" fill="#FBBC09"/>
<path d="M21.9633 12.6866L21.1643 10.3907C21.1404 10.316 21.1149 10.1955 21.0884 10.0296H21.0722C21.0479 10.1822 21.0212 10.3024 20.9917 10.3907L20.2012 12.6866H21.9633ZM23.7812 14.9302H22.7337L22.216 13.4651H19.9523L19.4547 14.9302H18.4111L20.5666 9.17463H21.642L23.7812 14.9302Z" fill="#706D6E"/>
<path d="M27.3374 11.2095L25.1181 14.2037H27.3293V14.9302H23.8135V14.5809L26.0812 11.5468H24.0301V10.8202H27.3373L27.3374 11.2095Z" fill="#706D6E"/>
<path d="M31.5404 14.9302H30.6093V14.28H30.5931C30.3228 14.7777 29.9028 15.0266 29.333 15.0266C28.3618 15.0266 27.876 14.4433 27.876 13.2767V10.8204H28.8071V13.1803C28.8071 13.9189 29.092 14.2881 29.662 14.2881C29.9376 14.2881 30.1643 14.1864 30.3422 13.9831C30.5203 13.7798 30.6093 13.5135 30.6093 13.1843V10.8203H31.5404V14.9302Z" fill="#706D6E"/>
<path d="M34.9706 11.7073C34.8583 11.619 34.6966 11.575 34.4853 11.575C34.2096 11.575 33.9796 11.6992 33.795 11.9483C33.6103 12.197 33.5181 12.5354 33.5181 12.9636V14.9302H32.5869V10.8203H33.5181V11.6671H33.5339C33.6247 11.3781 33.7646 11.1527 33.9534 10.9911C34.1422 10.8291 34.3527 10.7481 34.5855 10.7481C34.7539 10.7481 34.8825 10.7735 34.9706 10.8244V11.7073Z" fill="#706D6E"/>
<path d="M37.9736 12.47C37.9708 12.1354 37.892 11.8752 37.7367 11.6893C37.5816 11.5034 37.3677 11.4103 37.0946 11.4103C36.8271 11.4103 36.6003 11.5081 36.4144 11.7032C36.2285 11.8988 36.1141 12.1543 36.0713 12.47L37.9736 12.47ZM38.8729 13.1281H36.0713C36.0817 13.508 36.199 13.8011 36.4225 14.0071C36.646 14.2133 36.9527 14.3161 37.3435 14.3161C37.7824 14.3161 38.185 14.1852 38.5515 13.9229V14.6735C38.1769 14.9088 37.6818 15.0266 37.0668 15.0266C36.4617 15.0266 35.9876 14.8399 35.6436 14.4667C35.2998 14.0934 35.1279 13.5682 35.1279 12.8913C35.1279 12.2519 35.3171 11.7308 35.6958 11.3281C36.0745 10.9253 36.5449 10.724 37.1068 10.724C37.6684 10.724 38.1034 10.9046 38.4114 11.2658C38.7189 11.6271 38.8729 12.1289 38.8729 12.7708V13.1281Z" fill="#706D6E"/>
</g>
</g>
<defs>
<clipPath id="clip0_1355_30642">
<rect width="52" height="16" fill="white"/>
</clipPath>
</defs>
</svg>
