<svg width="18" height="19" viewBox="0 0 18 19" fill="none" xmlns="http://www.w3.org/2000/svg">
<path d="M11.4212 5.76189H11.9702L13.5348 4.1929L13.6117 3.52677C11.7894 1.91389 9.26589 1.35892 6.93784 2.05907C4.60978 2.75923 2.80728 4.61524 2.1709 6.96753C2.3452 6.89589 2.53828 6.88427 2.71988 6.9345L5.84907 6.41701C5.84907 6.41701 6.00827 6.15276 6.09062 6.16928C7.48256 4.63627 9.82508 4.45762 11.4322 5.76189H11.4212Z" fill="#EA4335"/>
<path d="M15.7643 6.96749C15.4046 5.63943 14.6663 4.44551 13.6397 3.53223L11.4438 5.73432C12.3711 6.49411 12.8992 7.63867 12.8766 8.83926V9.23014C13.956 9.23014 14.831 10.1076 14.831 11.19C14.831 12.2724 13.956 13.1499 12.8766 13.1499H8.9679L8.57812 13.5462V15.897L8.9679 16.2878H12.8766C15.1178 16.3053 17.1059 14.849 17.7709 12.7027C18.4358 10.5564 17.6207 8.22664 15.7643 6.96749Z" fill="#4285F4"/>
<path d="M5.05318 16.2658H8.96192V13.1278H5.05318C4.7747 13.1278 4.49948 13.0677 4.24617 12.9517L3.69719 13.1223L2.12162 14.6913L1.98438 15.2418C2.86792 15.9109 3.94603 16.2706 5.05318 16.2658Z" fill="#34A853"/>
<path d="M5.0535 6.0867C2.88233 6.09971 0.959053 7.49408 0.266137 9.55754C-0.426778 11.621 0.263637 13.898 1.9847 15.2254L4.25199 12.9517C3.45983 12.5928 2.99926 11.7524 3.1218 10.8894C3.24435 10.0264 3.92056 9.34829 4.78113 9.2254C5.64171 9.10251 6.47979 9.56437 6.83769 10.3588L9.10498 8.0851C8.1403 6.82042 6.64127 6.08103 5.0535 6.0867Z" fill="#FBBC05"/>
</svg>
