<svg width="35" height="36" viewBox="0 0 35 36" fill="none" xmlns="http://www.w3.org/2000/svg">
<path d="M22.2089 11.3787H23.2764L26.3186 8.32788L26.4681 7.03262C22.9249 3.89648 18.018 2.81737 13.4912 4.17877C8.96445 5.54018 5.45958 9.14911 4.22217 13.723C4.56109 13.5837 4.93653 13.5611 5.28963 13.6588L11.3742 12.6525C11.3742 12.6525 11.6837 12.1387 11.8438 12.1708C14.5504 9.18999 19.1053 8.84261 22.2302 11.3787H22.2089Z" fill="#EA4335"/>
<path d="M30.6523 13.7231C29.953 11.1408 28.5173 8.81929 26.5212 7.04346L22.2514 11.3253C24.0544 12.8027 25.0814 15.0282 25.0374 17.3627V18.1227C27.1362 18.1227 28.8376 19.8289 28.8376 21.9336C28.8376 24.0382 27.1362 25.7444 25.0374 25.7444H17.4371L16.6792 26.5151V31.086L17.4371 31.846H25.0374C29.3952 31.88 33.261 29.0482 34.554 24.8749C35.847 20.7016 34.262 16.1715 30.6523 13.7231Z" fill="#4285F4"/>
<path d="M9.82649 31.8031H17.4268V25.7014H9.82649C9.285 25.7013 8.74986 25.5845 8.25732 25.3589L7.18986 25.6907L4.12624 28.7415L3.85938 29.812C5.57738 31.1129 7.67371 31.8124 9.82649 31.8031Z" fill="#34A853"/>
<path d="M9.82625 12.0103C5.60453 12.0356 1.86482 14.7469 0.517489 18.7592C-0.829847 22.7714 0.512628 27.1989 3.85914 29.78L8.26776 25.359C6.72744 24.6611 5.83189 23.0269 6.07017 21.3489C6.30846 19.6708 7.6233 18.3523 9.29665 18.1133C10.97 17.8744 12.5996 18.7725 13.2955 20.3171L17.7041 15.8961C15.8284 13.437 12.9136 11.9993 9.82625 12.0103Z" fill="#FBBC05"/>
</svg>
