<svg width="35" height="36" viewBox="0 0 35 36" fill="none" xmlns="http://www.w3.org/2000/svg">
<g clip-path="url(#clip0_1201_28574)">
<path d="M17.3822 1.21629C17.0814 1.23144 16.7866 1.30604 16.5152 1.43569L4.68413 7.0887C4.37791 7.23493 4.10885 7.44772 3.89693 7.71124C3.68501 7.97477 3.53568 8.28227 3.46002 8.61089L0.541215 21.309C0.473816 21.6015 0.466273 21.9045 0.519033 22.2C0.571793 22.4955 0.683784 22.7776 0.848378 23.0294C0.888288 23.0909 0.931211 23.1505 0.976993 23.2079L9.16598 33.3897C9.37795 33.6532 9.64703 33.8659 9.95326 34.012C10.2595 34.1582 10.595 34.2341 10.9348 34.234L24.0672 34.231C24.4069 34.2312 24.7423 34.1556 25.0485 34.0097C25.3547 33.8638 25.6239 33.6514 25.836 33.3882L34.0219 23.2049C34.234 22.9413 34.3835 22.6337 34.4592 22.3049C34.5349 21.9762 34.5349 21.6347 34.4592 21.3059L31.5359 8.60786C31.4602 8.27924 31.3109 7.97174 31.099 7.70822C30.8871 7.44469 30.618 7.23191 30.3118 7.08567L18.4792 1.43569C18.1378 1.2726 17.7606 1.19716 17.3822 1.21629Z" fill="#326CE5"/>
<path d="M17.4995 5.5376C17.1085 5.53764 16.7914 5.8899 16.7914 6.32442C16.7914 6.33109 16.7928 6.33746 16.7929 6.34409C16.7923 6.40313 16.7895 6.47426 16.7914 6.52566C16.8007 6.77628 16.8554 6.9681 16.8882 7.199C16.9478 7.6932 16.9977 8.10287 16.9669 8.48364C16.937 8.62722 16.8312 8.75854 16.7369 8.84981L16.7203 9.14941C16.2953 9.18462 15.8675 9.24909 15.4402 9.34611C13.6015 9.7636 12.0184 10.7107 10.8131 11.9895C10.7349 11.9362 10.598 11.838 10.5574 11.808C10.4309 11.825 10.3031 11.864 10.1367 11.7671C9.8198 11.5538 9.53117 11.2593 9.18193 10.9046C9.0219 10.735 8.90602 10.5734 8.71589 10.4098C8.67271 10.3727 8.60682 10.3225 8.55852 10.2842C8.40988 10.1657 8.23456 10.1039 8.06525 10.0981C7.84756 10.0907 7.63799 10.1758 7.50085 10.3478C7.25705 10.6536 7.33511 11.121 7.67486 11.3918C7.67831 11.3946 7.68198 11.3967 7.68545 11.3994C7.73214 11.4373 7.78931 11.4858 7.83223 11.5174C8.03399 11.6664 8.21829 11.7427 8.41932 11.8609C8.84284 12.1225 9.19395 12.3393 9.47245 12.6008C9.5812 12.7168 9.60021 12.921 9.61468 13.0094L9.84165 13.2121C8.62663 15.0406 8.06431 17.2992 8.39662 19.6005L8.10005 19.6868C8.02189 19.7877 7.91144 19.9465 7.79591 19.9939C7.43155 20.1087 7.02147 20.1508 6.52641 20.2027C6.29398 20.2221 6.09343 20.2105 5.84702 20.2572C5.79278 20.2675 5.71722 20.2872 5.65788 20.3011C5.65581 20.3015 5.65389 20.3021 5.65182 20.3026C5.64859 20.3033 5.64434 20.3049 5.64123 20.3056C5.22385 20.4065 4.95572 20.7901 5.04204 21.1681C5.12838 21.5462 5.53607 21.7761 5.95596 21.6856C5.95899 21.6849 5.96339 21.6848 5.96655 21.6841C5.97129 21.683 5.97547 21.6807 5.98017 21.6795C6.0387 21.6667 6.11205 21.6524 6.16326 21.6387C6.40552 21.5738 6.58097 21.4785 6.79877 21.3951C7.26732 21.227 7.6554 21.0866 8.03347 21.0319C8.19138 21.0196 8.35774 21.1293 8.4405 21.1757L8.74918 21.1227C9.4595 23.325 10.9481 25.105 12.8331 26.2219L12.7045 26.5306C12.7508 26.6504 12.802 26.8126 12.7674 26.931C12.63 27.2874 12.3945 27.6636 12.1265 28.083C11.9967 28.2768 11.8638 28.4272 11.7467 28.649C11.7186 28.702 11.6829 28.7835 11.6559 28.8396C11.4739 29.229 11.6074 29.6775 11.957 29.8458C12.3088 30.0152 12.7455 29.8366 12.9345 29.4464C12.9348 29.4458 12.9357 29.4454 12.936 29.4449C12.9362 29.4444 12.9358 29.4438 12.936 29.4433C12.9629 29.388 13.001 29.3153 13.0237 29.2633C13.1241 29.0334 13.1574 28.8365 13.228 28.6142C13.4154 28.1435 13.5183 27.6497 13.7762 27.342C13.8469 27.2577 13.962 27.2253 14.0814 27.1933L14.2418 26.9028C15.8851 27.5336 17.7245 27.7028 19.5619 27.2856C19.9811 27.1905 20.3858 27.0673 20.777 26.9195C20.822 26.9994 20.9058 27.1531 20.9283 27.1918C21.0496 27.2313 21.182 27.2517 21.2899 27.4112C21.4829 27.7409 21.6148 28.1309 21.7756 28.602C21.8462 28.8243 21.8811 29.0213 21.9814 29.2512C22.0043 29.3036 22.0422 29.3773 22.0692 29.4327C22.2577 29.8242 22.6958 30.0035 23.0481 29.8337C23.3977 29.6653 23.5314 29.2169 23.3493 28.8275C23.3222 28.7714 23.285 28.6899 23.257 28.6368C23.1398 28.4151 23.007 28.2662 22.8772 28.0725C22.6091 27.653 22.3867 27.3046 22.2492 26.9482C22.1917 26.7644 22.2589 26.6501 22.3037 26.5306C22.2769 26.4999 22.2195 26.3263 22.1857 26.2446C24.1446 25.088 25.5895 23.2416 26.2681 21.1091C26.3597 21.1235 26.5189 21.1517 26.5707 21.1621C26.6772 21.0918 26.7751 21.0002 26.9671 21.0153C27.3452 21.07 27.7333 21.2104 28.2018 21.3784C28.4196 21.4619 28.5951 21.5587 28.8373 21.6236C28.8885 21.6373 28.9619 21.65 29.0204 21.6629C29.0251 21.664 29.0293 21.6663 29.034 21.6674C29.0372 21.6681 29.0416 21.6682 29.0446 21.6689C29.4645 21.7593 29.8723 21.5296 29.9586 21.1515C30.0448 20.7734 29.7768 20.3897 29.3594 20.289C29.2986 20.2752 29.2125 20.2517 29.1536 20.2406C28.9072 20.1939 28.7066 20.2054 28.4742 20.1861C27.9791 20.1342 27.5691 20.092 27.2047 19.9773C27.0561 19.9196 26.9504 19.7429 26.899 19.6701L26.613 19.5869C26.7613 18.5142 26.7213 17.3978 26.4648 16.2807C26.2058 15.1533 25.7481 14.1221 25.1378 13.2136C25.2111 13.147 25.3497 13.0243 25.3889 12.9882C25.4004 12.8611 25.3906 12.7279 25.5221 12.5872C25.8006 12.3257 26.1517 12.1089 26.5752 11.8473C26.7762 11.729 26.9621 11.6528 27.1638 11.5038C27.2094 11.4701 27.2717 11.4168 27.3197 11.3782C27.6594 11.1073 27.7376 10.6399 27.4937 10.3342C27.2498 10.0285 26.7772 9.99966 26.4375 10.2706C26.3892 10.3089 26.3236 10.3589 26.2802 10.3962C26.09 10.5598 25.9726 10.7213 25.8126 10.891C25.4634 11.2457 25.1747 11.5417 24.8578 11.755C24.7205 11.8349 24.5194 11.8073 24.4281 11.8019L24.1588 11.9941C22.6229 10.3836 20.5319 9.35396 18.2803 9.15395C18.274 9.05959 18.2658 8.88903 18.2637 8.83771C18.1715 8.7495 18.0601 8.6742 18.0322 8.48364C18.0014 8.10287 18.0528 7.6932 18.1124 7.199C18.1452 6.9681 18.1999 6.77628 18.2092 6.52566C18.2113 6.46869 18.2079 6.38602 18.2077 6.32442C18.2076 5.8899 17.8906 5.53756 17.4995 5.5376H17.4995ZM16.6129 11.0302L16.4025 14.7449L16.3874 14.7525C16.3733 15.0848 16.0998 15.3502 15.764 15.3502C15.6264 15.3502 15.4995 15.306 15.3963 15.2306L15.3903 15.2337L12.3443 13.0744C13.2805 12.1539 14.4779 11.4737 15.8578 11.1603C16.1099 11.1031 16.3618 11.0606 16.6129 11.0302ZM18.3877 11.0302C19.9988 11.2284 21.4888 11.9579 22.6305 13.0759L19.6043 15.2215L19.5937 15.217C19.3251 15.4132 18.9466 15.3645 18.7373 15.102C18.6515 14.9945 18.6065 14.868 18.6011 14.7404L18.5981 14.7389L18.3877 11.0302ZM11.2398 14.462L14.0209 16.9495L14.0179 16.9647C14.2689 17.1829 14.3059 17.5616 14.0965 17.8241C14.0108 17.9317 13.896 18.0038 13.7727 18.0375L13.7697 18.0496L10.2048 19.0785C10.0234 17.4194 10.4144 15.8066 11.2398 14.462ZM23.7396 14.4635C24.1529 15.1332 24.4658 15.8813 24.6521 16.6923C24.8361 17.4936 24.8823 18.2934 24.8064 19.0664L21.2233 18.0344L21.2203 18.0193C20.8994 17.9316 20.7023 17.6052 20.777 17.2779C20.8076 17.1438 20.8787 17.0303 20.9752 16.9465L20.9737 16.9389L23.7396 14.4635H23.7396ZM16.9291 17.1417H18.0685L18.7766 18.0269L18.5224 19.1314L17.4995 19.6232L16.4736 19.1299L16.2194 18.0254L16.9291 17.1417ZM20.5818 20.1709C20.6302 20.1685 20.6784 20.1729 20.7255 20.1815L20.7316 20.174L24.419 20.7974C23.8794 22.3136 22.8467 23.627 21.4669 24.506L20.0355 21.0486L20.0401 21.0425C19.9086 20.737 20.0402 20.3787 20.3427 20.233C20.4201 20.1957 20.5011 20.175 20.5818 20.1709H20.5818ZM14.3886 20.1861C14.67 20.19 14.9224 20.3853 14.9878 20.6718C15.0184 20.8059 15.0035 20.9388 14.953 21.0561L14.9636 21.0697L13.5473 24.4924C12.2231 23.6427 11.1684 22.3705 10.6043 20.8095L14.26 20.1891L14.266 20.1967C14.3069 20.1892 14.3484 20.1855 14.3886 20.1861V20.1861ZM17.4768 21.6856C17.5749 21.682 17.6743 21.7021 17.7689 21.7476C17.8928 21.8073 17.9885 21.9013 18.0488 22.0139H18.0624L19.8645 25.2702C19.6307 25.3486 19.3902 25.4156 19.1443 25.4714C17.7661 25.7843 16.3922 25.6895 15.1482 25.2656L16.9457 22.0154H16.9488C17.0566 21.8138 17.2612 21.6935 17.4768 21.6856Z" fill="white" stroke="white" stroke-width="0.25"/>
</g>
<defs>
<clipPath id="clip0_1201_28574">
<rect width="35" height="33.989" fill="white" transform="translate(0 0.729004)"/>
</clipPath>
</defs>
</svg>
