<?xml version="1.0" encoding="UTF-8" standalone="no"?>
<svg xmlns:svg="http://www.w3.org/2000/svg" xmlns="http://www.w3.org/2000/svg"
     viewBox="16 76 173 50" version="1.1">
  <defs>
    <filter id="shadow" width="200%" height="200%">
      <feGaussianBlur in="SourceAlpha" stdDeviation="1.6" result="blur"/>
      <feOffset in="blur" dx="1" dy="1" result="offsetBlur"/>
      <feFlood flood-color="#20154b" flood-opacity="0.5" result="offsetColor"/>
      <feComposite in="offsetColor" in2="offsetBlur" operator="in" result="offsetBlur"/>
    </filter>
  </defs>
  <g filter="url(#shadow)">
    <path d="M 18.868664,120.01412 V 82.057782 h 12.60905 q 4.470011,0 7.648112,1.162719 3.178101,1.136882 5.012614,3.720704 1.860352,2.583821 1.860352,6.485392 0,2.713013 -0.697632,4.831746 -0.697632,2.092897 -2.299601,3.824057 -1.60197,1.70532 -4.521688,2.6355 -2.893881,0.93017 -7.002157,0.93017 -3.513997,0 -5.710246,-0.2067 v 14.57275 z m 11.859742,-19.43034 q 2.144572,0 3.720703,-0.41341 1.601969,-0.41341 2.480469,-1.059365 0.904337,-0.645956 1.421102,-1.60197 0.542602,-0.956014 0.697631,-1.834513 0.180868,-0.904338 0.180868,-2.015381 0,-3.126424 -2.015381,-4.754232 -2.015381,-1.627808 -5.684408,-1.627808 h -5.761922 v 13.255009 q 0.310059,0.0517 4.960938,0.0517 z" />
    <path d="m 71.036024,117.79204 q -3.384806,2.76468 -8.914184,2.76468 -5.529379,0 -8.914185,-2.76468 -3.358968,-2.76469 -3.358968,-8.1132 V 91.617922 h 6.795451 v 17.802528 q 0,3.1781 1.317749,4.59921 1.343587,1.4211 4.237467,1.4211 2.842204,0 4.134115,-1.39527 1.317749,-1.4211 1.317749,-4.62504 V 91.617922 h 6.769613 v 18.060918 q 0,5.32267 -3.384807,8.1132 z" />
    <path d="m 90.569716,120.4017 q -2.919719,0 -4.857585,-0.6718 -1.912028,-0.69763 -3.023072,-2.19625 -1.111043,-1.49861 -1.550293,-3.56567 -0.439249,-2.06706 -0.439249,-5.14181 V 81.153444 l 6.769612,-0.43925 v 27.982786 q 0,3.82406 0.904338,5.19348 0.904338,1.34359 3.513998,1.34359 1.29191,0 3.281453,-0.28422 l 0.180868,4.83175 q -0.02584,0 -0.645956,0.12919 -0.594279,0.12919 -1.16272,0.2067 -0.542602,0.10336 -1.395263,0.18087 -0.852661,0.10336 -1.576131,0.10336 z" />
    <path d="m 119.19846,117.79204 q -3.38481,2.76468 -8.91419,2.76468 -5.52938,0 -8.91418,-2.76468 -3.35897,-2.76469 -3.35897,-8.1132 V 91.617922 h 6.79545 v 17.802528 q 0,3.1781 1.31775,4.59921 1.34359,1.4211 4.23747,1.4211 2.8422,0 4.13411,-1.39527 1.31775,-1.4211 1.31775,-4.62504 V 91.617922 h 6.76961 v 18.060918 q 0,5.32267 -3.3848,8.1132 z" />
    <path d="M 128.78444,120.01412 V 91.617922 h 5.4777 l 0.77514,3.61735 q 0.51677,-0.645955 0.98186,-1.136881 0.49092,-0.516765 1.31775,-1.136882 0.85266,-0.645955 1.78283,-1.059367 0.95602,-0.413411 2.32544,-0.697632 1.39527,-0.28422 2.9714,-0.28422 3.3848,0 5.40018,1.369425 2.04122,1.369426 2.86805,3.203939 1.52445,-2.196248 3.95324,-3.384806 2.4288,-1.188558 5.40019,-1.188558 4.88342,0 7.15719,2.764689 2.2996,2.764689 2.2996,8.190711 v 18.13843 h -6.79545 v -16.12305 q 0,-4.159948 -0.93018,-5.994462 -0.90434,-1.860351 -3.48816,-1.860351 -3.95325,0 -5.68441,3.565674 -0.72347,1.576129 -0.98185,3.798219 v 16.61397 h -6.76961 v -16.4331 q 0,-3.798222 -1.00769,-5.658573 -1.00769,-1.860352 -3.64319,-1.860352 -2.14457,0 -3.69486,1.085205 -1.5503,1.085205 -2.35128,2.842204 -0.59428,2.609656 -0.59428,6.252846 v 13.77177 z" />
    <path d="M 178.34214,120.01412 V 91.617922 h 6.76962 v 28.396198 z m 0,-32.530313 v -5.78776 h 6.79546 v 5.78776 z" />
    <path d="m 74.332793,88.963101 c -0.410393,-1.75871 -1.963511,-3.07834 -3.840161,-3.07834 -0.321934,0 -0.644672,0.02948 -0.937924,0.117937 0.02949,-0.293252 0.05898,-0.586503 0.05898,-0.879754 0,-3.546907 -2.87275,-6.419653 -6.419657,-6.419653 -2.989888,0 -5.480931,2.023275 -6.214057,4.778084 -0.733131,-0.439081 -1.553118,-0.67416 -2.462356,-0.67416 -2.637665,0 -4.806767,2.169102 -4.806767,4.807568 0,0.468565 0.05818,0.908441 0.175309,1.318834 h 24.446641 v 0.02949" />
  </g>
  <g style="fill:#fff">
    <path d="M 18.868664,120.01412 V 82.057782 h 12.60905 q 4.470011,0 7.648112,1.162719 3.178101,1.136882 5.012614,3.720704 1.860352,2.583821 1.860352,6.485392 0,2.713013 -0.697632,4.831746 -0.697632,2.092897 -2.299601,3.824057 -1.60197,1.70532 -4.521688,2.6355 -2.893881,0.93017 -7.002157,0.93017 -3.513997,0 -5.710246,-0.2067 v 14.57275 z m 11.859742,-19.43034 q 2.144572,0 3.720703,-0.41341 1.601969,-0.41341 2.480469,-1.059365 0.904337,-0.645956 1.421102,-1.60197 0.542602,-0.956014 0.697631,-1.834513 0.180868,-0.904338 0.180868,-2.015381 0,-3.126424 -2.015381,-4.754232 -2.015381,-1.627808 -5.684408,-1.627808 h -5.761922 v 13.255009 q 0.310059,0.0517 4.960938,0.0517 z" />
    <path d="m 71.036024,117.79204 q -3.384806,2.76468 -8.914184,2.76468 -5.529379,0 -8.914185,-2.76468 -3.358968,-2.76469 -3.358968,-8.1132 V 91.617922 h 6.795451 v 17.802528 q 0,3.1781 1.317749,4.59921 1.343587,1.4211 4.237467,1.4211 2.842204,0 4.134115,-1.39527 1.317749,-1.4211 1.317749,-4.62504 V 91.617922 h 6.769613 v 18.060918 q 0,5.32267 -3.384807,8.1132 z" />
    <path d="m 90.569716,120.4017 q -2.919719,0 -4.857585,-0.6718 -1.912028,-0.69763 -3.023072,-2.19625 -1.111043,-1.49861 -1.550293,-3.56567 -0.439249,-2.06706 -0.439249,-5.14181 V 81.153444 l 6.769612,-0.43925 v 27.982786 q 0,3.82406 0.904338,5.19348 0.904338,1.34359 3.513998,1.34359 1.29191,0 3.281453,-0.28422 l 0.180868,4.83175 q -0.02584,0 -0.645956,0.12919 -0.594279,0.12919 -1.16272,0.2067 -0.542602,0.10336 -1.395263,0.18087 -0.852661,0.10336 -1.576131,0.10336 z" />
    <path d="m 119.19846,117.79204 q -3.38481,2.76468 -8.91419,2.76468 -5.52938,0 -8.91418,-2.76468 -3.35897,-2.76469 -3.35897,-8.1132 V 91.617922 h 6.79545 v 17.802528 q 0,3.1781 1.31775,4.59921 1.34359,1.4211 4.23747,1.4211 2.8422,0 4.13411,-1.39527 1.31775,-1.4211 1.31775,-4.62504 V 91.617922 h 6.76961 v 18.060918 q 0,5.32267 -3.3848,8.1132 z" />
    <path d="M 128.78444,120.01412 V 91.617922 h 5.4777 l 0.77514,3.61735 q 0.51677,-0.645955 0.98186,-1.136881 0.49092,-0.516765 1.31775,-1.136882 0.85266,-0.645955 1.78283,-1.059367 0.95602,-0.413411 2.32544,-0.697632 1.39527,-0.28422 2.9714,-0.28422 3.3848,0 5.40018,1.369425 2.04122,1.369426 2.86805,3.203939 1.52445,-2.196248 3.95324,-3.384806 2.4288,-1.188558 5.40019,-1.188558 4.88342,0 7.15719,2.764689 2.2996,2.764689 2.2996,8.190711 v 18.13843 h -6.79545 v -16.12305 q 0,-4.159948 -0.93018,-5.994462 -0.90434,-1.860351 -3.48816,-1.860351 -3.95325,0 -5.68441,3.565674 -0.72347,1.576129 -0.98185,3.798219 v 16.61397 h -6.76961 v -16.4331 q 0,-3.798222 -1.00769,-5.658573 -1.00769,-1.860352 -3.64319,-1.860352 -2.14457,0 -3.69486,1.085205 -1.5503,1.085205 -2.35128,2.842204 -0.59428,2.609656 -0.59428,6.252846 v 13.77177 z" />
    <path d="M 178.34214,120.01412 V 91.617922 h 6.76962 v 28.396198 z m 0,-32.530313 v -5.78776 h 6.79546 v 5.78776 z" />
    <path style="fill:#9b6bf2" d="m 74.332793,88.963101 c -0.410393,-1.75871 -1.963511,-3.07834 -3.840161,-3.07834 -0.321934,0 -0.644672,0.02948 -0.937924,0.117937 0.02949,-0.293252 0.05898,-0.586503 0.05898,-0.879754 0,-3.546907 -2.87275,-6.419653 -6.419657,-6.419653 -2.989888,0 -5.480931,2.023275 -6.214057,4.778084 -0.733131,-0.439081 -1.553118,-0.67416 -2.462356,-0.67416 -2.637665,0 -4.806767,2.169102 -4.806767,4.807568 0,0.468565 0.05818,0.908441 0.175309,1.318834 h 24.446641 v 0.02949" />
  </g>
</svg>
