<svg width="46" height="17" viewBox="0 0 46 17" fill="none" xmlns="http://www.w3.org/2000/svg">
<path d="M6.85264 14.2506H8.50215L5.22573 9.45472L8.32811 6.36072H6.57898L2.96849 10.0316V2.63831H1.63745V14.2506H2.96849V11.7177C3.41464 11.2772 3.85988 10.836 4.30551 10.3951L6.85264 14.2507V14.2506ZM10.9037 14.2506V2.63831H9.57265V14.2506H10.9037ZM13.523 7.28823C12.7623 8.08305 12.3819 9.08908 12.3819 10.3057C12.3819 11.5224 12.7623 12.5283 13.523 13.3232C13.9087 13.7205 14.3435 14.0184 14.8269 14.2166C15.311 14.4151 15.846 14.5143 16.4319 14.5143C17.0174 14.5143 17.5511 14.4151 18.0324 14.2166C18.5134 14.0184 18.9441 13.7205 19.3243 13.3232L19.325 13.3226C20.0962 12.5387 20.4819 11.5331 20.4819 10.3057C20.4819 9.69575 20.3854 9.13947 20.1925 8.63724C19.9999 8.13592 19.7107 7.68616 19.3248 7.28862C18.9442 6.89095 18.5135 6.59315 18.0326 6.39497C17.5512 6.19652 17.0175 6.0973 16.432 6.0973C15.8461 6.0973 15.3111 6.19652 14.8271 6.39497C14.3436 6.59315 13.9088 6.89095 13.5232 7.28836L13.523 7.28823ZM13.9076 11.5138C13.7779 11.1521 13.7131 10.7492 13.7131 10.3057C13.7131 9.86737 13.7779 9.46865 13.9076 9.10966C14.0378 8.74936 14.2331 8.43007 14.4934 8.15207C15.0259 7.58395 15.6722 7.29995 16.4319 7.29995C16.811 7.29995 17.1625 7.37118 17.4864 7.51363C17.81 7.65595 18.1047 7.86885 18.3704 8.1522C18.6307 8.4302 18.826 8.74949 18.9563 9.10979C19.0859 9.46878 19.1509 9.8675 19.1509 10.3058C19.1509 10.7493 19.0859 11.1522 18.9563 11.5139C18.826 11.8772 18.6307 12.1981 18.3704 12.4759C18.1099 12.7542 17.8179 12.9631 17.4945 13.1024C17.1708 13.2418 16.8166 13.3116 16.432 13.3116C16.0474 13.3116 15.6933 13.2418 15.3696 13.1025C15.0462 12.9632 14.7541 12.7542 14.4935 12.4761C14.2332 12.1982 14.0379 11.8773 13.9078 11.514L13.9076 11.5138ZM24.0226 14.236C24.2844 14.3336 24.5744 14.3824 24.8929 14.3824C25.3712 14.3824 25.793 14.3226 26.1578 14.2031L25.7431 13.0275C25.7194 13.0365 25.6953 13.0451 25.6706 13.0533C25.6124 13.0727 25.5544 13.0895 25.497 13.103C25.3751 13.1321 25.2504 13.1467 25.1229 13.1467C24.98 13.1467 24.8439 13.1204 24.7153 13.0679C24.5876 13.0158 24.4676 12.9379 24.3555 12.8344C24.128 12.6242 24.0141 12.237 24.0141 11.6726V7.56337H25.9856V6.36072H24.0141V3.89005H22.683V6.36072H21.2702V7.56337H22.683V12.1668C22.6881 12.5172 22.7443 12.8289 22.8512 13.1016C22.9571 13.3717 23.1135 13.6037 23.3199 13.7976C23.5274 13.9925 23.7617 14.1386 24.0226 14.2359V14.236ZM29.025 2.63831H27.6939V14.2506H29.025V9.94328C29.025 9.24091 29.2428 8.62591 29.6783 8.09855C30.1181 7.56611 30.6588 7.29982 31.3002 7.29982C31.9677 7.29982 32.4708 7.49123 32.8092 7.87406C33.1447 8.25363 33.3127 8.8172 33.3127 9.56436V14.2505H34.6437V9.26787C34.6437 8.75587 34.5788 8.30325 34.4491 7.91052C34.3205 7.52092 34.1279 7.18966 33.8717 6.91673C33.6157 6.64407 33.3045 6.4395 32.9386 6.30317C32.5701 6.16579 32.1444 6.09704 31.6617 6.09704C31.4117 6.09704 31.1666 6.12894 30.9268 6.19275C30.6866 6.25668 30.4503 6.35291 30.2182 6.48117C29.9864 6.6093 29.7849 6.75332 29.6138 6.91283C29.4441 7.0713 29.3037 7.24565 29.193 7.43589L29.1669 7.48069H28.9539L29.025 6.27022V2.63818V2.63831ZM37.2795 7.2881C36.5188 8.08292 36.1384 9.08895 36.1384 10.3055C36.1384 11.5222 36.5188 12.5281 37.2795 13.3231C37.6652 13.7204 38.1 14.0183 38.5834 14.2165C39.0675 14.4149 39.6025 14.5142 40.1884 14.5142C40.774 14.5142 41.3076 14.4149 41.7889 14.2165C42.2699 14.0183 42.7006 13.7204 43.0808 13.3231L43.0815 13.3224C43.8527 12.5386 44.2384 11.5329 44.2384 10.3055C44.2384 9.69562 44.1419 9.13934 43.949 8.63711C43.7564 8.13579 43.4672 7.68603 43.0813 7.28849C42.7007 6.89082 42.27 6.59302 41.7891 6.39484C41.3077 6.19639 40.7742 6.09717 40.1885 6.09717C39.6026 6.09717 39.0676 6.19639 38.5836 6.39484C38.1001 6.59302 37.6653 6.89082 37.2797 7.28823L37.2795 7.2881ZM37.6641 11.5137C37.5345 11.1519 37.4696 10.749 37.4696 10.3055C37.4696 9.86724 37.5345 9.46852 37.6641 9.10953C37.7943 8.74923 37.9896 8.42994 38.2499 8.15194C38.7824 7.58382 39.4287 7.29982 40.1884 7.29982C40.5675 7.29982 40.919 7.37105 41.2429 7.5135C41.5665 7.65582 41.8612 7.86872 42.1268 8.15207C42.3872 8.43007 42.5825 8.74936 42.7127 9.10966C42.8423 9.46865 42.9072 9.86737 42.9072 10.3057C42.9072 10.7492 42.8423 11.1521 42.7127 11.5138C42.5824 11.8772 42.3871 12.1979 42.1268 12.4758C41.8662 12.7541 41.5742 12.9629 41.2508 13.1023C40.9272 13.2417 40.573 13.3115 40.1884 13.3115C39.8038 13.3115 39.4496 13.2417 39.126 13.1024C38.8024 12.9631 38.5104 12.7541 38.2499 12.4759C37.9896 12.1981 37.7944 11.8773 37.6641 11.5139V11.5137Z" fill="#542437"/>
</svg>
