<svg width="628" height="628" viewBox="0 0 628 628" fill="none" xmlns="http://www.w3.org/2000/svg">
<g clip-path="url(#clip0_229_677)">
<g clip-path="url(#clip1_229_677)">
<path d="M410.399 902.757L410.399 409.859C410.399 393.607 423.555 380.429 439.78 380.429L1206.71 380.429" stroke="#9077F3" stroke-width="2" stroke-miterlimit="10"/>
<path d="M434.392 902.757L434.392 426.142C434.392 413.592 444.572 403.396 457.102 403.396L1199.31 403.396" stroke="#9077F3" stroke-width="2" stroke-miterlimit="10"/>
<path d="M458.354 902.757L458.354 442.457C458.354 433.578 465.527 426.393 474.392 426.393L1197.46 426.393" stroke="#9077F3" stroke-width="2" stroke-miterlimit="10"/>
<path d="M482.348 902.757L482.348 458.741C482.348 453.564 486.545 449.36 491.714 449.36L1206.71 449.36" stroke="#9077F3" stroke-width="2" stroke-miterlimit="10"/>
</g>
</g>
<defs>
<clipPath id="clip0_229_677">
<rect width="628" height="628" fill="white"/>
</clipPath>
<clipPath id="clip1_229_677">
<rect width="837" height="319" fill="white" transform="matrix(1 0 0 -1 403 677)"/>
</clipPath>
</defs>
</svg>
