<svg width="1200" height="628" viewBox="0 0 1200 628" fill="none" xmlns="http://www.w3.org/2000/svg">
<g clip-path="url(#clip0_279_467)">
<path d="M1496.61 449.289H1108.19C1084.89 449.289 1066 430.388 1066 407.07V-300" stroke="#9077F3" stroke-width="2" stroke-miterlimit="10"/>
<path d="M1496.61 416.332H1133.06C1115.07 416.332 1100.45 401.711 1100.45 383.7V-300" stroke="#9077F3" stroke-width="2" stroke-miterlimit="10"/>
<path d="M1496.61 383.34H1157.9C1145.17 383.34 1134.88 373.034 1134.88 360.296V-300" stroke="#9077F3" stroke-width="2" stroke-miterlimit="10"/>
<path d="M1496.61 350.4H1182.77C1175.35 350.4 1169.32 344.374 1169.32 336.943V-300" stroke="#9077F3" stroke-width="2" stroke-miterlimit="10"/>
<path d="M1332.53 485.003H646.535C627.453 485.003 609.159 492.587 595.662 506.061L184 917.524" stroke="#9077F3" stroke-width="2" stroke-miterlimit="10"/>
<path d="M1332.53 519.244H654.705C639.169 519.244 624.267 525.407 613.287 536.399L197.72 951.765" stroke="#9077F3" stroke-width="2" stroke-miterlimit="10"/>
<path d="M1332.53 553.486H662.859C650.868 553.486 639.358 558.245 630.879 566.72L211.389 986.007" stroke="#9077F3" stroke-width="2" stroke-miterlimit="10"/>
<path d="M1332.53 587.728H671.029C662.585 587.728 654.483 591.084 648.505 597.059L225.11 1020.25" stroke="#9077F3" stroke-width="2" stroke-miterlimit="10"/>
<path d="M127.289 674.606L127.289 286.189C127.289 262.893 108.388 244 85.0697 244L-622 244" stroke="#9077F3" stroke-width="2" stroke-miterlimit="10"/>
<path d="M94.3321 674.606L94.3321 311.06C94.3321 293.075 79.711 278.447 61.6999 278.447L-622 278.447" stroke="#9077F3" stroke-width="2" stroke-miterlimit="10"/>
<path d="M61.3405 674.606L61.3405 335.897C61.3405 323.17 51.0337 312.876 38.2959 312.876L-622 312.876" stroke="#9077F3" stroke-width="2" stroke-miterlimit="10"/>
<path d="M28.4001 674.606L28.4001 360.769C28.4001 353.352 22.3736 347.322 14.9432 347.322L-622 347.322" stroke="#9077F3" stroke-width="2" stroke-miterlimit="10"/>
</g>
<defs>
<clipPath id="clip0_279_467">
<rect width="1200" height="628" fill="white"/>
</clipPath>
</defs>
</svg>
