<svg width="40" height="40" viewBox="0 0 40 40" fill="none" xmlns="http://www.w3.org/2000/svg">
<path d="M38 20C38 29.9411 29.9411 38 20 38C10.0589 38 2 29.9411 2 20C2 10.0589 10.0589 2 20 2C29.9411 2 38 10.0589 38 20Z" fill="white"/>
<path fill-rule="evenodd" clip-rule="evenodd" d="M40 20C40 31.0457 31.0457 40 20 40C8.95431 40 0 31.0457 0 20C0 8.95431 8.95431 0 20 0C31.0457 0 40 8.95431 40 20ZM20 38C29.9411 38 38 29.9411 38 20C38 10.0589 29.9411 2 20 2C10.0589 2 2 10.0589 2 20C2 29.9411 10.0589 38 20 38Z" fill="#805AC3"/>
<path d="M24.8617 14.3466V11.72H14.7241V14.6922H21.037L17.8575 18.8394L19.0786 20.6826H19.7698C21.4057 20.6826 22.3503 21.5581 22.3503 22.8714C22.3503 24.2307 21.4057 25.0602 19.7698 25.0602C18.2953 25.0602 17.3506 24.4381 16.959 23.1939L14.2402 24.7606C15.1388 26.9955 17.2585 28.1706 19.7698 28.1706C21.3826 28.1706 22.742 27.7098 23.8479 26.7651C24.9769 25.8205 25.5298 24.5302 25.5298 22.8714C25.5298 20.5904 24.0322 18.9085 21.8434 18.2634L24.8617 14.3466Z" fill="#2F3032"/>
</svg>
