<svg width="40" height="40" viewBox="0 0 40 40" fill="none" xmlns="http://www.w3.org/2000/svg">
<path d="M38 20C38 29.9411 29.9411 38 20 38C10.0589 38 2 29.9411 2 20C2 10.0589 10.0589 2 20 2C29.9411 2 38 10.0589 38 20Z" fill="white"/>
<path fill-rule="evenodd" clip-rule="evenodd" d="M40 20C40 31.0457 31.0457 40 20 40C8.95431 40 0 31.0457 0 20C0 8.95431 8.95431 0 20 0C31.0457 0 40 8.95431 40 20ZM20 38C29.9411 38 38 29.9411 38 20C38 10.0589 29.9411 2 20 2C10.0589 2 2 10.0589 2 20C2 29.9411 10.0589 38 20 38Z" fill="#805AC3"/>
<path d="M25.4975 28.1706V25.1062H19.438L22.5945 21.9498C24.3686 20.1757 25.2441 18.4707 25.2441 16.7888C25.2441 15.2451 24.7142 14.001 23.6774 13.1024C22.6406 12.1808 21.3734 11.72 19.9219 11.72C17.6409 11.72 15.6134 12.9181 14.5996 15.1299L17.2722 16.6966C17.8482 15.4294 18.7468 14.8074 19.9679 14.8074C21.1891 14.8074 22.0646 15.6368 22.0646 16.904C22.0646 17.7565 21.4425 18.8394 20.2214 20.1296L14.7148 25.7974V28.1706H25.4975Z" fill="#2F3032"/>
</svg>
