<?xml version="1.0" encoding="utf-8"?>
<!-- Generator: Adobe Illustrator 23.0.1, SVG Export Plug-In . SVG Version: 6.00 Build 0)  -->
<svg version="1.1" id="Layer_1" xmlns="http://www.w3.org/2000/svg" xmlns:xlink="http://www.w3.org/1999/xlink" x="0px" y="0px"
	 viewBox="0 0 133.3827667 110.0713806" style="enable-background:new 0 0 133.3827667 110.0713806;" xml:space="preserve">
<style type="text/css">
	.st0{fill:none;stroke:#EE985C;stroke-width:2;stroke-linecap:round;}
</style>
<g>
	<g id="Group-3" transform="translate(0.000000, 49.000000)">
		<g id="Group" transform="translate(0.000000, 6.000000)">
			<path id="Line" class="st0" d="M19.3459263,11.4081087L1,29.2504215"/>
			<path class="st0" d="M19.3459263,46.968399L1,29.1260834"/>
		</g>
		<g transform="translate(52.500000, 21.500000) scale(-1, 1) translate(-52.500000, -21.500000) translate(44.000000, 6.000000)">
			<path class="st0" d="M5.7330589,11.4081087l-18.3459263,17.8423119"/>
			<path class="st0" d="M5.7330589,46.968399l-18.3459263-17.8423157"/>
		</g>
		<path id="Line-2" class="st0" d="M44.8606377,9.1961222L30.985569,60.0713806"/>
	</g>
	<path id="Fill-1" class="st0" d="M16.9563313,53.251194c3.4444351-7.8651962,11.0926342-13.4646301,20.1009312-14.0108032
		c-0.962883-2.2811241-1.5130234-4.7971611-1.5130234-7.4279327c0-10.5343857,8.5398064-19.0741959,19.0741959-19.0741959
		c3.8343544,0,7.4164886,1.1233521,10.4083443,3.0721197C70.4372482,6.9438138,80.1526184,1,91.2992935,1
		c17.0176315,0.0007336,30.8126755,13.7962208,30.8126755,30.8128986c0,2.2237568-0.240715,4.3731289-0.6877747,6.4649792
		c6.6255035,4.7971611,10.9585724,12.6092186,10.9585724,21.4129868c0,14.5864792-11.8239441,26.4104309-26.4104309,26.4104309
		c-9.7343216,0-17.0350723,0-21.9022293,0"/>
</g>
</svg>
