
<svg width="132px" height="109px" viewBox="0 0 132 109" version="1.1" xmlns="http://www.w3.org/2000/svg" xmlns:xlink="http://www.w3.org/1999/xlink">
    <!-- Generator: Sketch 49.3 (51167) - http://www.bohemiancoding.com/sketch -->
    <desc>Created with Sketch.</desc>
    <defs></defs>
    <g id="Page-1" stroke="none" stroke-width="1" fill="none" fill-rule="evenodd" stroke-linecap="round">
        <g id="case_study" transform="translate(1.000000, 1.000000)" stroke="#EE985C" stroke-width="2">
            <g id="Group-3" transform="translate(0.000000, 56.136364)">
                <g id="Group" transform="translate(0.000000, 7.878788)">
                    <path d="M18.0679577,0.401925235 L0,17.9739" id="Line"></path>
                    <path d="M18.0679577,35.4234233 L0,17.8514458" id="Shape"></path>
                </g>
                <g id="Group" transform="translate(62.537879, 25.606061) scale(-1, 1) translate(-62.537879, -25.606061) translate(53.181818, 7.878788)">
                    <path d="M18.4492247,0.401925235 L0.381266955,17.9738991" id="Shape"></path>
                    <path d="M18.4492247,35.4234233 L0.381266955,17.8514457" id="Shape"></path>
                </g>
                <path d="M43.1960826,0.193150652 L29.5312422,50.2975718" id="Line-2"></path>
            </g>
            <path d="M15.7145687,51.4595092 C19.1068154,43.7134827 26.6391327,38.1988887 35.5109403,37.6609909 C34.5626465,35.4144293 34.0208415,32.9365141 34.0208415,30.3456027 C34.0208415,19.9708289 42.4312569,11.5604097 52.8060345,11.5604097 C56.5822926,11.5604097 60.110152,12.6667414 63.0566766,14.5859822 C68.3851687,5.85375602 77.9533363,0 88.9311224,0 C105.690911,0.000722484848 119.276939,13.5871872 119.276939,30.3460365 C119.276939,32.5361 119.039871,34.6529059 118.599585,36.7130615 C125.124702,41.4375383 129.392119,49.1312313 129.392119,57.8016091 C129.392119,72.167081 117.747325,83.8118819 103.381846,83.8118819 C93.795014,83.8118819 86.6048807,83.8118819 81.8114685,83.8118819" id="Fill-1"></path>
        </g>
    </g>
</svg>
