
<svg width="132px" height="93px" viewBox="0 0 132 93" version="1.1" xmlns="http://www.w3.org/2000/svg" xmlns:xlink="http://www.w3.org/1999/xlink">
    <!-- Generator: Sketch 49.3 (51167) - http://www.bohemiancoding.com/sketch -->
    <desc>Created with Sketch.</desc>
    <defs></defs>
    <g id="Page-1" stroke="none" stroke-width="1" fill="none" fill-rule="evenodd">
        <g id="ebook" transform="translate(1.000000, 1.000000)" stroke="#EE985C">
            <g id="Group-8">
                <path d="M3.973115,0 L125.815309,0 C128.009599,0 129.788423,1.7788239 129.788423,3.973115 L129.788423,86.0841608 C129.788423,88.278451 128.009599,90.0572748 125.815309,90.0572748 L3.973115,90.0572748 C1.7788241,90.0572739 0,88.27845 0,86.0841599 L0,3.973115 C0,1.7788239 1.7788241,0 3.973115,0 Z" id="Rectangle-14" stroke-width="2"></path>
                <path d="M2.8779614,24.5008764 L94.0803998,24.5008764" id="Line-4" stroke-width="2" stroke-linecap="round"></path>
                <path d="M111.488014,24.5008764 L129.547638,24.5008764" id="Line-5" stroke-width="2" stroke-linecap="round"></path>
                <circle id="Oval" cx="11.9193449" cy="11.9193453" r="3.3109293"></circle>
                <circle id="Oval" cx="25.163063" cy="11.9193453" r="3.3109293"></circle>
                <circle id="Oval" cx="35.7580376" cy="11.9193453" r="3.3109293"></circle>
            </g>
            <g id="Group-3_1_" transform="translate(57.000000, 40.000000)" stroke-linecap="round" stroke-width="2">
                <polyline id="Rectangle-2_1_" stroke-linejoin="round" points="0.6101685 36.151371 0.6101685 8.3395672 0.6101685 8.3395672 37.6925774 8.3395672 37.6925774 36.151371 15.178257 36.151371"></polyline>
                <path d="M46.499649,0.834794 L46.300991,27.5429582" id="Line-3"></path>
                <path d="M37.6925774,36.151371 L46.3009911,27.5429573" id="Line_1_"></path>
                <path d="M38.1561089,7.8981094 L46.499649,0.834794" id="Shape"></path>
                <path d="M0.6101685,8.3395672 L7.8942128,1.0555229" id="Shape"></path>
                <path d="M7.8942127,1.0555227 L27.7597885,1.0555227" id="Line-2_1_"></path>
            </g>
            <g id="Group" transform="translate(27.000000, 37.000000)" stroke-width="2">
                <polyline id="Path-6" points="0.1496201 4.864861 4.965517 10.0151954 10.7445927 0.7445934"></polyline>
            </g>
            <g id="Group" transform="translate(27.000000, 52.000000)" stroke-width="2">
                <polyline id="Shape" points="0.1496201 4.4329495 4.965517 9.5832844 10.7445927 0.3126822"></polyline>
            </g>
            <g id="Group" transform="translate(27.000000, 66.000000)" stroke-width="2">
                <polyline id="Shape" points="0.1496201 5.0010386 4.965517 10.1513729 10.7445927 0.8807707"></polyline>
            </g>
        </g>
    </g>
</svg>
