<?xml version="1.0" encoding="utf-8"?>
<!-- Generator: Adobe Illustrator 22.1.0, SVG Export Plug-In . SVG Version: 6.00 Build 0)  -->
<svg version="1.1" id="Layer_1" xmlns="http://www.w3.org/2000/svg" xmlns:xlink="http://www.w3.org/1999/xlink" x="0px" y="0px"
	 viewBox="0 0 73 73" style="enable-background:new 0 0 73 73;" xml:space="preserve">
<style type="text/css">
	.st0{fill:none;stroke:#00ACF2;stroke-width:3;stroke-linecap:round;stroke-linejoin:round;}
	.st1{fill:none;stroke:#2FC89F;stroke-width:3;stroke-linecap:round;stroke-linejoin:round;}
</style>
<title>icons/icon-service1</title>
<desc>Created with Sketch.</desc>
<g id="icons_x2F_icon-service1">
	<g id="Group" transform="translate(8.000000, 0.000000)">
		<path id="Rectangle-12" class="st0" d="M0,33V17.2c0-6.1,4.9-11,11-11h15"/>
		<polyline id="Path-3" class="st0" points="18.9,1.9 25.9,6.5 18.8,10.9 		"/>
	</g>
	
		<g id="Group_1_" transform="translate(54.917451, 19.247648) rotate(-270.000000) translate(-54.917451, -19.247648) translate(41.417451, 2.747648)">
		<path id="Rectangle-12_1_" class="st0" d="M0,32.6V17.2c0-6.1,4.9-11,11-11h15.4"/>
		<polyline id="Path-3_1_" class="st0" points="19.2,1.7 26.2,6.5 19.2,10.8 		"/>
	</g>
	
		<g id="Group_2_" transform="translate(17.955021, 52.149218) rotate(-90.000000) translate(-17.955021, -52.149218) translate(4.455021, 35.649218)">
		<path id="Rectangle-12_2_" class="st0" d="M0,32.6V17.2c0-6.1,4.9-11,11-11h15.4"/>
		<polyline id="Path-3_2_" class="st0" points="19.2,1.7 26.2,6.5 19.2,10.8 		"/>
	</g>
	
		<g id="Group_3_" transform="translate(52.000000, 56.500000) rotate(-180.000000) translate(-52.000000, -56.500000) translate(39.000000, 40.000000)">
		<path id="Rectangle-12_3_" class="st0" d="M0,33V17.2c0-6.1,4.9-11,11-11h15"/>
		<polyline id="Path-3_3_" class="st0" points="18.9,1.9 25.9,6.5 18.8,10.9 		"/>
	</g>
	<g id="Group-2" transform="translate(21.000000, 24.000000)">
		<path id="Combined-Shape" class="st1" d="M15.5,18c3,0,5.5-2.5,5.5-5.5S18.5,7,15.5,7S10,9.5,10,12.5S12.5,18,15.5,18z"/>
		<polyline id="Path" class="st1" points="27.1,6.5 31,13 23.2,26 7.8,26 0,13 7.8,0 23.2,0 23.2,0 		"/>
	</g>
</g>
</svg>
