<?xml version="1.0" encoding="utf-8"?>
<!-- Generator: Adobe Illustrator 22.1.0, SVG Export Plug-In . SVG Version: 6.00 Build 0)  -->
<svg version="1.1" id="Layer_1" xmlns="http://www.w3.org/2000/svg" xmlns:xlink="http://www.w3.org/1999/xlink" x="0px" y="0px"
	 viewBox="0 0 73 73" style="enable-background:new 0 0 73 73;" xml:space="preserve">
<style type="text/css">
	.st0{fill:none;stroke:#00ACF2;stroke-width:3;stroke-linecap:round;stroke-linejoin:round;}
	.st1{fill:none;stroke:#2FC89F;stroke-width:3;stroke-linecap:round;stroke-linejoin:round;}
</style>
<title>icons/icon-core-1</title>
<desc>Created with Sketch.</desc>
<g id="icons_x2F_icon-core-1">
	
		<g id="Group" transform="translate(36.292168, 36.621359) rotate(-46.000000) translate(-36.292168, -36.621359) translate(-4.707832, 20.621359)">
		<path id="Rectangle-13" class="st0" d="M43.2,9.7l26.9,0c5.6,0,10.2,4.6,10.2,10.2l0,0C80.2,25.5,75.7,30,70,30l-26.9,0
			C37.6,30,33,25.5,33,19.8l0,0C33,14.2,37.6,9.7,43.2,9.7z"/>
		<path id="Rectangle-13_2_" class="st1" d="M38.5,21.8c5.6,0,10.2-4.6,10.2-10.2c0-5.6-4.6-10.2-10.2-10.2l-26.9,0
			C6.1,1.5,1.5,6.1,1.5,11.7c0,5.6,4.6,10.2,10.2,10.2l16,0"/>
	</g>
</g>
</svg>
