<?xml version="1.0" encoding="utf-8"?>
<!-- Generator: Adobe Illustrator 22.1.0, SVG Export Plug-In . SVG Version: 6.00 Build 0)  -->
<svg version="1.1" id="Layer_1" xmlns="http://www.w3.org/2000/svg" xmlns:xlink="http://www.w3.org/1999/xlink" x="0px" y="0px"
	 viewBox="0 0 73 73" style="enable-background:new 0 0 73 73;" xml:space="preserve">
<style type="text/css">
	.st0{fill:none;stroke:#2FC89F;stroke-width:3;stroke-linecap:round;stroke-linejoin:round;}
	.st1{fill:none;stroke:#00ACF2;stroke-width:3;stroke-linecap:round;stroke-linejoin:round;}
</style>
<title>icons/icon-core3</title>
<desc>Created with Sketch.</desc>
<g id="icons_x2F_icon-core3">
	
		<g id="Group-5" transform="translate(36.000000, 11.500000) rotate(-270.000000) translate(-36.000000, -11.500000) translate(26.000000, -20.000000)">
		<path id="Oval_1_" class="st0" d="M17.8,2.5C7.9,8,1.5,19,1.5,31.4c0,12.6,6.7,23.8,16.8,29.1"/>
		<polyline id="Path-3" class="st0" points="3.9,3.8 19.7,0 17.1,14.1 		"/>
	</g>
	
		<g id="Group-5_1_" transform="translate(37.500000, 62.000000) rotate(-90.000000) translate(-37.500000, -62.000000) translate(27.000000, 30.000000)">
		<path id="Oval_2_" class="st0" d="M17.8,2.5C7.9,8,1.5,19,1.5,31.4c0,12.6,6.7,23.8,16.8,29.1"/>
		<polyline id="Path-3_1_" class="st0" points="3.9,3.8 19.7,0 17.1,14.1 		"/>
	</g>
	<path id="Rectangle_1_" class="st1" d="M24.5,35.3v13.2h23v-23h-23"/>
</g>
</svg>
