<?xml version="1.0" encoding="utf-8"?>
<!-- Generator: Adobe Illustrator 22.1.0, SVG Export Plug-In . SVG Version: 6.00 Build 0)  -->
<svg version="1.1" id="Layer_1" xmlns="http://www.w3.org/2000/svg" xmlns:xlink="http://www.w3.org/1999/xlink" x="0px" y="0px"
	 viewBox="0 0 134 94" style="enable-background:new 0 0 134 94;" xml:space="preserve">
<style type="text/css">
	.st0{fill:none;stroke:#00ACF2;stroke-width:3;}
	.st1{fill:none;stroke:#2FC89F;stroke-width:3;stroke-linecap:round;stroke-linejoin:round;}
	.st2{fill:none;stroke:#00ACF2;stroke-width:3;stroke-linecap:round;}
</style>
<title>icons/icon-audience-devops</title>
<desc>Created with Sketch.</desc>
<g id="icons_x2F_icon-audience-devops">
	<g transform="translate(2.000000, 5.000000)">
		<path id="Fill-1" class="st0" d="M81.9,15c13.8,0,25,11.2,25,25c0,1.8-0.2,3.5-0.6,5.2c5.4,3.9,8.9,10.2,8.9,17.4
			c0,11.8-9.6,21.4-21.4,21.4H39c-10.5,0-19-8.5-19-19c0-10.1,7.9-18.4,17.9-19c-0.8-1.8-1.2-3.9-1.2-6c0-8.5,6.9-15.5,15.5-15.5
			c3.1,0,6,0.9,8.4,2.5C64.9,19.8,72.8,15,81.9,15L81.9,15z"/>
		<path id="Path-3" class="st1" d="M64.5,15C59.8,5,52.1,0,41.5,0s-18.3,5.7-23,17c-4.9-1.8-9.3-1.5-13,1C1,21-1,28,1,34
			s4.5,9,12.5,9c5.3,0,9.2,0,11.5,0"/>
		<path id="Path-3_1_" class="st2" d="M89,26c-5.1-2.7-10.3-2.7-15.6,0c-5.3,2.7-7.8,6.3-7.4,11"/>
		<path id="Path-4" class="st2" d="M49.9,59.8c5.3,2,8,5.7,8,11"/>
		<path id="Path-5" class="st2" d="M73.7,54.2l-0.4,0.2c-3.6,2.2-6,6-6.4,10.2v0"/>
	</g>
</g>
</svg>
