<?xml version="1.0" encoding="UTF-8"?>
<svg width="137px" height="97px" viewBox="0 0 137 97" version="1.1" xmlns="http://www.w3.org/2000/svg" xmlns:xlink="http://www.w3.org/1999/xlink">
    <!-- Generator: Sketch 50.2 (55047) - http://www.bohemiancoding.com/sketch -->
    <title>icons/icon-book-inv</title>
    <desc>Created with Sketch.</desc>
    <defs></defs>
    <g id="Symbols" stroke="none" stroke-width="1" fill="none" fill-rule="evenodd" stroke-linecap="round" stroke-linejoin="round">
        <g id="icons/icon-book-inv" transform="translate(-25.000000, -10.000000)" stroke="#FFFFFF" stroke-width="3">
            <g transform="translate(27.000000, 12.000000)" id="Rectangle-2">
                <path d="M11,-1.42108547e-14 L41.546376,-1.0658141e-14 C50.1100105,-4.62521979e-15 58.2712305,3.63470058 64,10 L64,85 L64,85 C58.2712305,78.6347006 50.1100105,75 41.546376,75 L11,75 L11,-1.42108547e-14 Z"></path>
                <path d="M121.468896,78.4145573 C117.205904,76.1949983 112.427914,75 107.517621,75 L76.9712451,75 L76.9712451,0 L107.517621,3.55271368e-15 C112.632875,6.73588869e-15 117.604549,1.29684102 122,3.69783959" transform="translate(99.485623, 39.207279) scale(-1, 1) translate(-99.485623, -39.207279) "></path>
                <path d="M60.3663127,92.5786111 C55.0564725,88.3494929 48.4314858,86 41.546376,86 L0,86 L0,7"></path>
                <path d="M133,93.2860223 C127.555365,88.6122971 120.58461,86 113.324636,86 L71.7782596,86 L71.7782596,7" transform="translate(102.389130, 50.143011) scale(-1, 1) translate(-102.389130, -50.143011) "></path>
            </g>
        </g>
    </g>
</svg>