<?xml version="1.0" encoding="utf-8"?>
<!-- Generator: Adobe Illustrator 22.1.0, SVG Export Plug-In . SVG Version: 6.00 Build 0)  -->
<svg version="1.1" id="Layer_1" xmlns="http://www.w3.org/2000/svg" xmlns:xlink="http://www.w3.org/1999/xlink" x="0px" y="0px"
	 viewBox="0 0 134 94" style="enable-background:new 0 0 134 94;" xml:space="preserve">
<style type="text/css">
	.st0{fill:none;stroke:#00ACF2;stroke-width:3;stroke-linecap:round;stroke-linejoin:round;}
	.st1{fill:none;stroke:#2FC89F;stroke-width:3;stroke-linecap:round;stroke-linejoin:round;}
</style>
<title>icons/icon-why-devops-deploy</title>
<desc>Created with Sketch.</desc>
<g id="icons_x2F_icon-why-devops-deploy">
	<path id="Fill-1" class="st0" d="M95.6,44.4c-2.8-6.4-9-10.9-16.3-11.4c0.8-1.8,1.2-3.9,1.2-6c0-8.5-6.9-15.5-15.5-15.5
		c-3.1,0-6,0.9-8.4,2.5C52.2,6.8,44.3,2,35.3,2c-13.8,0-25,11.2-25,25c0,1.8,0.2,3.5,0.6,5.2C5.5,36.1,2,42.4,2,49.6
		C2,61.4,11.6,71,23.4,71c7.9,0,13.8,0,17.8,0"/>
	
		<g id="Group" transform="translate(81.000000, 70.000000) rotate(-270.000000) translate(-81.000000, -70.000000) translate(61.000000, 44.000000)">
		<g id="Group-5" transform="translate(-0.000000, 2.000000)">
			<path id="Oval_2_" class="st1" d="M13.2,2.6C6.1,6.9,1.5,15.2,1.5,24.5c0,9.5,4.8,17.9,12.1,22.2"/>
			<polyline id="Path-3" class="st1" points="3,3 15,0 13,11 			"/>
		</g>
		
			<g id="Group-5_1_" transform="translate(32.000000, 25.000000) scale(-1, -1) translate(-32.000000, -25.000000) translate(24.000000, 0.000000)">
			<path id="Oval_3_" class="st1" d="M13.2,2.6C6.1,6.9,1.5,15.2,1.5,24.5c0,9.5,4.8,17.9,12.1,22.2"/>
			<polyline id="Path-3_1_" class="st1" points="3,3 15,0 13,11 			"/>
		</g>
	</g>
</g>
</svg>
