<?xml version="1.0" encoding="utf-8"?>
<!-- Generator: Adobe Illustrator 22.1.0, SVG Export Plug-In . SVG Version: 6.00 Build 0)  -->
<svg version="1.1" id="Layer_1" xmlns="http://www.w3.org/2000/svg" xmlns:xlink="http://www.w3.org/1999/xlink" x="0px" y="0px"
	 viewBox="0 0 73 73" style="enable-background:new 0 0 73 73;" xml:space="preserve">
<style type="text/css">
	.st0{fill:none;stroke:#00ACF2;stroke-width:3;stroke-linecap:round;stroke-linejoin:round;}
	.st1{fill:none;stroke:#2FC89F;stroke-width:3;stroke-linecap:round;stroke-linejoin:round;}
</style>
<title>icons/icon-service3</title>
<desc>Created with Sketch.</desc>
<g id="icons_x2F_icon-service3">
	<path id="Fill-1" class="st0" d="M20.1,59c-0.9,0-2.4,0-4.3,0C8.2,59,2,52.8,2,45.2c0-7.3,5.7-13.3,13-13.7
		c-0.6-1.3-0.9-2.8-0.9-4.4c0-1.8,0.4-3.5,1.2-5c1.8-3.7,5.6-6.2,10-6.2c2.3,0,4.4,0.7,6.1,1.8C34.6,12.5,40.3,9,46.8,9
		c10,0,18.1,8.1,18.1,18.1c0,1.3-0.1,2.6-0.4,3.8c3.9,2.8,6.4,7.4,6.4,12.6C71,52.1,64,59,55.4,59c-6,0-10.5,0-13.4,0"/>
	<g id="Group" transform="translate(21.000000, 28.000000)">
		<circle id="Oval-5" class="st1" cx="8.5" cy="8.5" r="8.5"/>
		<path id="Line" class="st1" d="M8.5,17.5v18.1"/>
		<path id="Line-2" class="st1" d="M8.5,30.5h6"/>
	</g>
</g>
</svg>
