<?xml version="1.0" encoding="utf-8"?>
<!-- Generator: Adobe Illustrator 22.1.0, SVG Export Plug-In . SVG Version: 6.00 Build 0)  -->
<svg version="1.1" id="Layer_1" xmlns="http://www.w3.org/2000/svg" xmlns:xlink="http://www.w3.org/1999/xlink" x="0px" y="0px"
	 viewBox="0 0 134 94" style="enable-background:new 0 0 134 94;" xml:space="preserve">
<style type="text/css">
	.st0{fill:none;stroke:#00ACF2;stroke-width:3;stroke-linecap:round;stroke-linejoin:round;}
	.st1{fill:none;stroke:#2FC89F;stroke-width:3;stroke-linecap:round;stroke-linejoin:round;}
</style>
<title>icons/icon-eco3</title>
<desc>Created with Sketch.</desc>
<g id="icons_x2F_icon-eco3">
	<g id="Group-3" transform="translate(2.000000, 12.000000)">
		<path id="Oval-6" class="st0" d="M88.4,61.7c3-5.7,4.6-12,4.6-18.7C93,19.2,72.2,0,46.5,0S0,19.2,0,43c0,6.8,1.7,13.3,4.8,19"/>
		<path id="Path-10" class="st0" d="M46,4v8"/>
		<g id="Group" transform="translate(3.000000, 8.000000)">
			<path id="Path-10_1_" class="st0" d="M22.2,0.3l3.6,6.8"/>
			<path id="Path-10_2_" class="st0" d="M7,12.2l6.1,4.6"/>
			<path id="Path-10_3_" class="st0" d="M0.1,30.5l7.6,1.3"/>
		</g>
		
			<g id="Group_1_" transform="translate(76.000000, 24.000000) scale(-1, 1) translate(-76.000000, -24.000000) translate(63.000000, 8.000000)">
			<path id="Path-10_4_" class="st0" d="M22.2,0.3l3.6,6.8"/>
			<path id="Path-10_5_" class="st0" d="M7,12.2l6.1,4.6"/>
			<path id="Path-10_6_" class="st0" d="M0.1,30.5l7.6,1.3"/>
		</g>
	</g>
	
		<g id="Group-2" transform="translate(52.000000, 54.000000) rotate(-8.000000) translate(-52.000000, -54.000000) translate(40.000000, 34.000000)">
		<circle id="Oval-7" class="st1" cx="7.5" cy="32.5" r="7.5"/>
		<path id="Line" class="st1" d="M23.8,0.9L11.5,26.2"/>
	</g>
</g>
</svg>
