<?xml version="1.0" encoding="utf-8"?>
<!-- Generator: Adobe Illustrator 22.1.0, SVG Export Plug-In . SVG Version: 6.00 Build 0)  -->
<svg version="1.1" id="Layer_1" xmlns="http://www.w3.org/2000/svg" xmlns:xlink="http://www.w3.org/1999/xlink" x="0px" y="0px"
	 viewBox="0 0 125 114" style="enable-background:new 0 0 125 114;" xml:space="preserve">
<style type="text/css">
	.st0{filter:url(#filter-1);}
	.st1{fill:none;stroke:#EE975C;stroke-width:3;stroke-linecap:round;}
	.st2{filter:url(#filter-2);}
	.st3{filter:url(#filter-3);}
	.st4{filter:url(#filter-4);}
	.st5{filter:url(#filter-5);}
	.st6{filter:url(#filter-6);}
	.st7{filter:url(#filter-7);}
	.st8{filter:url(#filter-8);}
	.st9{filter:url(#filter-9);}
	.st10{filter:url(#filter-10);}
	.st11{filter:url(#filter-11);}
	.st12{filter:url(#filter-12);}
	.st13{filter:url(#filter-13);}
</style>
<filter  filterUnits="objectBoundingBox" height="209.2%" id="filter-9" width="791.5%" x="-345.8%" y="-54.6%">
	<feGaussianBlur  in="SourceGraphic" stdDeviation="2.95758929"></feGaussianBlur>
</filter>
<filter  filterUnits="objectBoundingBox" height="209.2%" id="filter-8" width="791.5%" x="-345.8%" y="-54.6%">
	<feGaussianBlur  in="SourceGraphic" stdDeviation="2.95758929"></feGaussianBlur>
</filter>
<filter  filterUnits="objectBoundingBox" height="209.2%" id="filter-7" width="791.5%" x="-345.8%" y="-54.6%">
	<feGaussianBlur  in="SourceGraphic" stdDeviation="2.95758929"></feGaussianBlur>
</filter>
<filter  filterUnits="objectBoundingBox" height="138.6%" id="filter-6" width="134.8%" x="-17.4%" y="-19.3%">
	<feGaussianBlur  in="SourceGraphic" stdDeviation="2.95758929"></feGaussianBlur>
</filter>
<filter  filterUnits="objectBoundingBox" height="209.2%" id="filter-5" width="791.5%" x="-345.8%" y="-54.6%">
	<feGaussianBlur  in="SourceGraphic" stdDeviation="2.95758929"></feGaussianBlur>
</filter>
<filter  filterUnits="objectBoundingBox" height="209.2%" id="filter-4" width="791.5%" x="-345.8%" y="-54.6%">
	<feGaussianBlur  in="SourceGraphic" stdDeviation="2.95758929"></feGaussianBlur>
</filter>
<filter  filterUnits="objectBoundingBox" height="209.2%" id="filter-3" width="791.5%" x="-345.8%" y="-54.6%">
	<feGaussianBlur  in="SourceGraphic" stdDeviation="2.95758929"></feGaussianBlur>
</filter>
<filter  filterUnits="objectBoundingBox" height="396.4%" id="filter-2" width="791.5%" x="-345.8%" y="-148.2%">
	<feGaussianBlur  in="SourceGraphic" stdDeviation="2.95758929"></feGaussianBlur>
</filter>
<filter  filterUnits="objectBoundingBox" height="209.2%" id="filter-13" width="791.5%" x="-345.8%" y="-54.6%">
	<feGaussianBlur  in="SourceGraphic" stdDeviation="2.95758929"></feGaussianBlur>
</filter>
<filter  filterUnits="objectBoundingBox" height="209.2%" id="filter-12" width="791.5%" x="-345.8%" y="-54.6%">
	<feGaussianBlur  in="SourceGraphic" stdDeviation="2.95758929"></feGaussianBlur>
</filter>
<filter  filterUnits="objectBoundingBox" height="209.2%" id="filter-11" width="791.5%" x="-345.8%" y="-54.6%">
	<feGaussianBlur  in="SourceGraphic" stdDeviation="2.95758929"></feGaussianBlur>
</filter>
<filter  filterUnits="objectBoundingBox" height="138.6%" id="filter-10" width="134.8%" x="-17.4%" y="-19.3%">
	<feGaussianBlur  in="SourceGraphic" stdDeviation="2.95758929"></feGaussianBlur>
</filter>
<filter  filterUnits="objectBoundingBox" height="138.6%" id="filter-1" width="134.8%" x="-17.4%" y="-19.3%">
	<feGaussianBlur  in="SourceGraphic" stdDeviation="2.95758929"></feGaussianBlur>
</filter>
<title>icons/icon-feature-containers</title>
<desc>Created with Sketch.</desc>
<g id="icons_x2F_icon-feature-containers">
	<g id="Group-18" transform="translate(10.000000, 9.000000)">
		<g transform="translate(0.000000, 51.000000)">
			<g id="Rectangle-5" class="st0">
				<path class="st1" d="M1.5,3v22.2V43c0,0.8,0.7,1.5,1.5,1.5h45c0.8,0,1.5-0.7,1.5-1.5V3c0-0.8-0.7-1.5-1.5-1.5H3
					C2.2,1.5,1.5,2.2,1.5,3z"/>
			</g>
			<g id="Line" class="st2">
				<line class="st1" x1="1.5" y1="14.5" x2="1.5" y2="20.5"/>
			</g>
			<g id="Line-4" class="st3">
				<line class="st1" x1="15.5" y1="14.4" x2="15.5" y2="32.6"/>
			</g>
			<g id="Line-4_1_" class="st4">
				<line class="st1" x1="25.5" y1="14.4" x2="25.5" y2="32.6"/>
			</g>
			<g id="Line-4_2_" class="st5">
				<line class="st1" x1="35.5" y1="14.4" x2="35.5" y2="32.6"/>
			</g>
		</g>
		<g transform="translate(55.000000, 51.000000)">
			<g id="Rectangle-5_1_" class="st6">
				<path class="st1" d="M47.1,44.5H3c-0.8,0-1.5-0.7-1.5-1.5V3c0-0.8,0.7-1.5,1.5-1.5h43.9c0,0,0,0,0,0c0.8,0,1.5,0.7,1.5,1.5
					l0.1,40C48.5,43.8,47.9,44.5,47.1,44.5z"/>
			</g>
			<g id="Line-4_3_" class="st7">
				<line class="st1" x1="15.5" y1="14.4" x2="15.5" y2="32.6"/>
			</g>
			<g id="Line-4_4_" class="st8">
				<line class="st1" x1="25.5" y1="14.4" x2="25.5" y2="32.6"/>
			</g>
			<g id="Line-4_5_" class="st9">
				<line class="st1" x1="35.5" y1="14.4" x2="35.5" y2="32.6"/>
			</g>
		</g>
		<g transform="translate(27.000000, 0.000000)">
			<g id="Rectangle-5_2_" class="st10">
				<path class="st1" d="M1.5,3v40c0,0.8,0.7,1.5,1.5,1.5h45c0.8,0,1.5-0.7,1.5-1.5V3c0-0.8-0.7-1.5-1.5-1.5H3
					C2.2,1.5,1.5,2.2,1.5,3z"/>
			</g>
			<g id="Line-4_6_" class="st11">
				<line class="st1" x1="15.5" y1="14.4" x2="15.5" y2="32.6"/>
			</g>
			<g id="Line-4_7_" class="st12">
				<line class="st1" x1="25.5" y1="14.4" x2="25.5" y2="32.6"/>
			</g>
			<g id="Line-4_8_" class="st13">
				<line class="st1" x1="35.5" y1="14.4" x2="35.5" y2="32.6"/>
			</g>
		</g>
		<g transform="translate(0.000000, 51.000000)">
			<path id="Rectangle-5_9_" class="st1" d="M1.5,34.7V43c0,0.8,0.7,1.5,1.5,1.5h45c0.8,0,1.5-0.7,1.5-1.5V3c0-0.8-0.7-1.5-1.5-1.5
				H3C2.2,1.5,1.5,2.2,1.5,3v11.5"/>
			<path id="Rectangle-5_4_" class="st1" d="M1.5,20.5v6.2"/>
			<path id="Line_4_" class="st1" d="M1.5,20.5"/>
			<path id="Line_2_" class="st1" d="M1.5,14.5"/>
			<path id="Line-4_9_" class="st1" d="M15.5,14.4v18.3"/>
			<path id="Line-4_10_" class="st1" d="M25.5,14.4v18.3"/>
			<path id="Line-4_11_" class="st1" d="M35.5,14.4v18.3"/>
		</g>
		<g transform="translate(55.000000, 51.000000)">
			<path id="Rectangle-5_5_" class="st1" d="M30.8,44.5H3c-0.8,0-1.5-0.7-1.5-1.5V3c0-0.8,0.7-1.5,1.5-1.5h43.9c0,0,0,0,0,0
				c0.8,0,1.5,0.7,1.5,1.5l0,23.3l0,10.7l0.1,6c0,0.8-0.7,1.5-1.5,1.5h-5.2"/>
			<path id="Line-4_12_" class="st1" d="M15.5,14.4v18.3"/>
			<path id="Line-4_13_" class="st1" d="M25.5,14.4v18.3"/>
			<path id="Line-4_14_" class="st1" d="M35.5,14.4v18.3"/>
		</g>
		<g transform="translate(27.000000, 0.000000)">
			<path id="Rectangle-5_6_" class="st1" d="M1.5,21.2V43c0,0.8,0.7,1.5,1.5,1.5h45c0.8,0,1.5-0.7,1.5-1.5V3c0-0.8-0.7-1.5-1.5-1.5
				H3C2.2,1.5,1.5,2.2,1.5,3v10.2"/>
			<path id="Line-4_15_" class="st1" d="M15.5,14.4v18.3"/>
			<path id="Line-4_16_" class="st1" d="M25.5,14.4v18.3"/>
			<path id="Line-4_17_" class="st1" d="M35.5,14.4v18.3"/>
		</g>
	</g>
</g>
</svg>
