<?xml version="1.0" encoding="utf-8"?>
<!-- Generator: Adobe Illustrator 22.1.0, SVG Export Plug-In . SVG Version: 6.00 Build 0)  -->
<svg version="1.1" id="Layer_1" xmlns="http://www.w3.org/2000/svg" xmlns:xlink="http://www.w3.org/1999/xlink" x="0px" y="0px"
	 viewBox="0 0 73 73" style="enable-background:new 0 0 73 73;" xml:space="preserve">
<style type="text/css">
	.st0{fill:none;stroke:#2FC89F;stroke-width:3;stroke-linecap:round;stroke-linejoin:round;}
	.st1{fill:none;stroke:#00ACF2;stroke-width:3;stroke-linecap:round;stroke-linejoin:round;}
</style>
<title>icons/icon-core4</title>
<desc>Created with Sketch.</desc>
<g id="icons_x2F_icon-core4">
	<g id="Group" transform="translate(8.000000, 1.000000)">
		<path id="Rectangle-12" class="st0" d="M0,33V17.2c0-6.1,4.9-11,11-11h15"/>
		<polyline id="Path-3" class="st0" points="18.9,1.9 25.9,6.5 18.8,10.9 		"/>
	</g>
	
		<g id="Group_1_" transform="translate(54.917451, 20.247648) rotate(-270.000000) translate(-54.917451, -20.247648) translate(41.417451, 3.747648)">
		<path id="Rectangle-12_1_" class="st1" d="M0,32.6V17.2c0-6.1,4.9-11,11-11h15.4"/>
		<polyline id="Path-3_1_" class="st1" points="19.2,1.7 26.2,6.5 19.2,10.8 		"/>
	</g>
	
		<g id="Group_2_" transform="translate(17.955021, 53.149218) rotate(-90.000000) translate(-17.955021, -53.149218) translate(4.455021, 36.649218)">
		<path id="Rectangle-12_2_" class="st1" d="M0,32.6V17.2c0-6.1,4.9-11,11-11h15.4"/>
		<polyline id="Path-3_2_" class="st1" points="19.2,1.7 26.2,6.5 19.2,10.8 		"/>
	</g>
	
		<g id="Group_3_" transform="translate(52.000000, 57.500000) rotate(-180.000000) translate(-52.000000, -57.500000) translate(39.000000, 41.000000)">
		<path id="Rectangle-12_3_" class="st1" d="M0,33V17.2c0-6.1,4.9-11,11-11h15"/>
		<polyline id="Path-3_3_" class="st1" points="18.9,1.9 25.9,6.5 18.8,10.9 		"/>
	</g>
	<path id="Line-9" class="st1" d="M31.7,44.5H51"/>
	<path id="Path-7" class="st1" d="M21,27c0,0,3,3,9.1,9.1L21,44"/>
</g>
</svg>
