<?xml version="1.0" encoding="utf-8"?>
<!-- Generator: Adobe Illustrator 22.1.0, SVG Export Plug-In . SVG Version: 6.00 Build 0)  -->
<svg version="1.1" id="Layer_1" xmlns="http://www.w3.org/2000/svg" xmlns:xlink="http://www.w3.org/1999/xlink" x="0px" y="0px"
	 viewBox="0 0 73 73" style="enable-background:new 0 0 73 73;" xml:space="preserve">
<style type="text/css">
	.st0{fill:none;stroke:#00ACF2;stroke-width:3;stroke-linecap:round;}
	.st1{fill:none;stroke:#2FC89F;stroke-width:3;stroke-linecap:round;}
</style>
<title>icons/icon-service4</title>
<desc>Created with Sketch.</desc>
<g id="icons_x2F_icon-service4">
	<g id="Group-8" transform="translate(0.000000, 12.000000)">
		<path id="Stroke-1" class="st0" d="M24.6,8.1c0,4.5-3.6,8.1-8,8.1c-4.4,0-8-3.6-8-8.1s3.6-8.1,8-8.1C21.1,0,24.6,3.6,24.6,8.1z"/>
		<path id="Stroke-3" class="st0" d="M3.1,25.8c0-4.1,2.8-7.7,6.9-9.6"/>
		<path id="Stroke-5" class="st0" d="M23.4,16.2c2.4,1.2,4.4,3.1,5.6,5.2"/>
	</g>
	<g id="Group-5" transform="translate(21.000000, 34.000000)">
		<path id="Stroke-13" class="st1" d="M24.2,7.1c0,4.5-3.6,8.1-8.1,8.1s-8.1-3.6-8.1-8.1S11.6-1,16.1-1S24.2,2.7,24.2,7.1z"/>
		<path id="Stroke-15" class="st1" d="M2.2,24.8c0-4.1,2.8-7.7,7-9.6"/>
		<path id="Stroke-18" class="st1" d="M22.9,15.2c4.2,1.9,7,5.5,7,9.6"/>
	</g>
	<g id="Group-17" transform="translate(44.000000, 12.000000)">
		<path id="Stroke-7" class="st0" d="M21.4,8.1c0,4.5-3.6,8.1-8,8.1c-4.4,0-8-3.6-8-8.1S9.1,0,13.5,0C17.8,0,21.4,3.6,21.4,8.1z"/>
		<path id="Stroke-9" class="st0" d="M1.2,21.4c1.2-2.2,3.1-4,5.6-5.2"/>
		<path id="Stroke-11" class="st0" d="M20.1,16.2c4.1,1.9,6.9,5.5,6.9,9.6"/>
	</g>
</g>
</svg>
