<?xml version="1.0" encoding="UTF-8"?>
<svg width="66px" height="45px" viewBox="0 0 66 45" version="1.1" xmlns="http://www.w3.org/2000/svg" xmlns:xlink="http://www.w3.org/1999/xlink">
    <!-- Generator: Sketch 51.1 (57501) - http://www.bohemiancoding.com/sketch -->
    <title>realCode_icon</title>
    <desc>Created with Sketch.</desc>
    <defs></defs>
    <g id="Hi-fi" stroke="none" stroke-width="1" fill="none" fill-rule="evenodd">
        <g id="AWS-Cloudformation" transform="translate(-165.000000, -787.000000)">
            <g id="Benefits" transform="translate(164.000000, 728.000000)">
                <g id="real-code" transform="translate(0.000000, 59.000000)">
                    <g id="realCode_icon" transform="translate(1.000000, 0.000000)">
                        <g id="icons/icon-audience-dev">
                            <g id="Group-8">
                                <rect id="Rectangle-14" stroke="#00ACF2" stroke-width="3" x="1.5" y="1.5" width="62" height="42" rx="3"></rect>
                                <path d="M2.13815789,12.3113208 L45.8905322,12.3113208" id="Line-4" stroke="#00ACF2" stroke-width="3" stroke-linecap="round"></path>
                                <path d="M55.1644737,12.3113208 L63.7171053,12.3113208" id="Line-5" stroke="#00ACF2" stroke-width="3" stroke-linecap="round"></path>
                                <ellipse id="Oval" fill="#00ACF2" cx="6.84210526" cy="6.79245283" rx="1.71052632" ry="1.69811321"></ellipse>
                                <ellipse id="Oval" fill="#00ACF2" cx="12.8289474" cy="6.79245283" rx="1.71052632" ry="1.69811321"></ellipse>
                                <ellipse id="Oval" fill="#00ACF2" cx="18.8157895" cy="6.79245283" rx="1.71052632" ry="1.69811321"></ellipse>
                            </g>
                        </g>
                        <g id="Group-3-Copy" transform="translate(16.000000, 18.000000)" stroke="#2FC89F" stroke-linecap="round" stroke-width="3">
                            <g id="Group" transform="translate(0.000000, 2.666667)">
                                <path d="M7.41477273,0.488888889 L0.494318182,7.33333333" id="Line"></path>
                                <path d="M7.41477273,7.28563686 L0.494318182,14.1300813" id="Line" transform="translate(3.954545, 10.707859) scale(1, -1) translate(-3.954545, -10.707859) "></path>
                            </g>
                            <g id="Group" transform="translate(25.000000, 10.166667) scale(-1, 1) translate(-25.000000, -10.166667) translate(21.000000, 2.666667)">
                                <path d="M7.41477273,0.488888889 L0.494318182,7.33333333" id="Line"></path>
                                <path d="M7.41477273,7.28563686 L0.494318182,14.1300813" id="Line" transform="translate(3.954545, 10.707859) scale(1, -1) translate(-3.954545, -10.707859) "></path>
                            </g>
                            <path d="M17.6100852,0.178571429 L12.0490057,19.8214286" id="Line-2"></path>
                        </g>
                    </g>
                </g>
            </g>
        </g>
    </g>
</svg>