<svg width="14" height="14" viewBox="0 0 14 14" fill="none" xmlns="http://www.w3.org/2000/svg">
<path d="M12.3334 0.333334H1.66671C1.00004 0.333334 0.333374 0.933334 0.333374 1.66667V3.67333C0.333374 4.15333 0.620041 4.56667 1.00004 4.8V12.3333C1.00004 13.0667 1.73337 13.6667 2.33337 13.6667H11.6667C12.2667 13.6667 13 13.0667 13 12.3333V4.8C13.38 4.56667 13.6667 4.15333 13.6667 3.67333V1.66667C13.6667 0.933334 13 0.333334 12.3334 0.333334ZM11.6667 12.3333H2.33337V5H11.6667V12.3333ZM12.3334 3.66667H1.66671V1.66667H12.3334V3.66667Z" fill="#5F6065"/>
<path d="M9.00004 7H5.00004V8.33333H9.00004V7Z" fill="#5F6065"/>
</svg>
