<?xml version="1.0" encoding="utf-8"?>
<!-- Generator: Adobe Illustrator 20.1.0, SVG Export Plug-In . SVG Version: 6.00 Build 0)  -->
<!DOCTYPE svg PUBLIC "-//W3C//DTD SVG 1.1//EN" "http://www.w3.org/Graphics/SVG/1.1/DTD/svg11.dtd">
<svg version="1.1" id="Layer_1" xmlns="http://www.w3.org/2000/svg" xmlns:xlink="http://www.w3.org/1999/xlink" x="0px" y="0px"
	 viewBox="0 0 104 53" style="enable-background:new 0 0 104 53;" xml:space="preserve">
<style type="text/css">
	.st0{fill:#00ACF2;}
	.st1{fill:#2FC89F;}
</style>
<path class="st0" d="M79.5,0h-54C24.7,0,24,0.7,24,1.5v50c0,0.8,0.7,1.5,1.5,1.5h54c0.8,0,1.5-0.7,1.5-1.5v-50C81,0.7,80.3,0,79.5,0
	z M78,50H27V3h17v19.5c0,0.8,0.7,1.5,1.5,1.5h14c0.8,0,1.5-0.7,1.5-1.5V10c0-0.8-0.7-1.5-1.5-1.5S58,9.2,58,10v11H47V3h31V50z"/>
<path class="st1" d="M14.4,47.4C7.4,43.3,3,35.3,3,26.5c0-8,3.6-15.4,9.6-19.7L11.5,13c-0.2,0.8,0.4,1,1.2,2c0.1,0,0.2,0,0.3,0
	c0.7,0,1.3-0.8,1.6-1.4l2-11.1c0-0.5-0.1-1.2-0.5-1.5c-0.4-0.4-0.9-0.5-1.4-0.4l-12,3c-0.8,0.2-1.3,1-1.1,1.8c0.2,0.8,1,1.3,1.8,1.1
	l6.9-1.7C3.9,9.7,0,17.7,0,26.5C0,36.3,4.9,45.3,12.8,50c0.3,0.1,0.5,0.2,0.8,0.2c0.5,0,1-0.3,1.3-0.7
	C15.4,48.7,15.1,47.8,14.4,47.4z"/>
<path class="st1" d="M100.5,45.5l-6.7,1.7c6.3-4.9,10.2-12.9,10.2-21.7c0-9.8-4.9-18.8-12.8-23.5c-0.8-0.5-1.7-0.2-2.1,0.5
	c-0.5,0.8-0.2,1.7,0.5,2.1c7,4.1,11.4,12.1,11.4,20.9c0,8-3.7,15.5-9.7,19.8l1.1-6.1c0.2-0.8-0.4-1.6-1.2-1.7
	c-0.8-0.2-1.6,0.4-1.7,1.2l-2,11c0,0.5,0.1,1.1,0.5,1.4c0.3,0.3,0.6,0.4,1,0.4c0.1,0,0.2,0,0.2-0.1l12-3c0.8-0.2,1.3-1,1.1-1.8
	S101.3,45.3,100.5,45.5z"/>
</svg>
