<svg width="25" height="25" viewBox="0 0 25 25" fill="none" xmlns="http://www.w3.org/2000/svg">
<path d="M18.3957 18.3952L17.2915 19.4993L16.5519 18.7598L17.6561 17.6556L15.6353 15.6348L14.5311 16.7389L13.7915 15.9993L14.8957 14.8952L12.8748 12.8743L11.7707 13.9785L11.0311 13.2389L12.1353 12.1348L10.104 10.1035L8.99984 11.2077L8.26025 10.4681L9.36442 9.36393L7.34359 7.3431L6.23942 8.44727L5.49984 7.70768L6.604 6.60352L4.1665 4.16602V18.7494C4.1665 19.8952 5.104 20.8327 6.24984 20.8327H20.8332L18.3957 18.3952ZM7.2915 17.7077V11.7077L13.2915 17.7077H7.2915Z" fill="#484848"/>
</svg>
