<svg width="128" height="30" viewBox="0 0 128 30" fill="none" xmlns="http://www.w3.org/2000/svg" class="logo"><g style="mix-blend-mode: difference;"><path d="M15.0029 30H0V15C0 23.2837 6.71637 30 15.0029 30Z" fill="white"></path> <path d="M0 15V0H15.0001C6.71636 0 0 6.7163 0 15Z" fill="white"></path> <path d="M15.0011 7.5H7.51477V22.5H15.0011V7.5Z" fill="white"></path> <path d="M30.0002 15C30.0002 23.2837 23.2838 30 15 30V22.5H22.4836V7.5H15V0C23.2865 0 30.0002 6.7163 30.0002 15Z" fill="white"></path> <path d="M15.0029 30H0V15C0 23.2837 6.71637 30 15.0029 30Z" fill="white"></path> <path d="M0 15V0H15.0001C6.71636 0 0 6.7163 0 15Z" fill="white"></path> <path d="M15.0011 7.5H7.51477V22.5H15.0011V7.5Z" fill="white"></path> <path d="M30.0002 15C30.0002 23.2837 23.2838 30 15 30V22.5H22.4836V7.5H15V0C23.2865 0 30.0002 6.7163 30.0002 15Z" fill="white"></path> <path d="M15.0011 7.5H7.51477V22.5H15.0011V7.5Z" fill="white"></path> <path d="M15.0011 7.5H7.51477V22.5H15.0011V7.5Z" fill="white"></path> <path d="M48.7677 1.77563H46.1014C45.9836 1.77563 45.8795 1.84962 45.8411 1.95923L36.886 27.8626C36.8229 28.0407 36.9572 28.227 37.149 28.227L41.1471 28.1859C41.2649 28.1859 41.3663 28.1092 41.4046 27.9996L42.4103 25.0127C42.4487 24.9004 42.5528 24.8264 42.6706 24.8264H52.1957C52.3136 24.8264 52.4177 24.9004 52.4561 25.0127L53.4617 27.9969C53.5001 28.1092 53.6042 28.1832 53.7221 28.1832H56.5801C56.7309 28.1832 56.8542 28.0599 56.8542 27.9092V24.6538C56.8542 24.6236 56.8487 24.5935 56.8405 24.5633L49.028 1.95923C48.9869 1.84962 48.8828 1.77563 48.7677 1.77563ZM43.901 20.5873L47.1866 9.84286C47.266 9.58528 47.6332 9.58528 47.71 9.84286L50.9654 20.5873C51.0174 20.7627 50.8859 20.9408 50.7023 20.9408H44.1613C43.9805 20.9408 43.8489 20.7627 43.901 20.5873Z" fill="white"></path> <path d="M62.4774 10.3772V2.09897C62.4774 1.94826 62.3541 1.82495 62.2034 1.82495H58.6383C58.4876 1.82495 58.3643 1.94826 58.3643 2.09897V27.9557C58.3643 28.1064 58.4876 28.2297 58.6383 28.2297H62.2034C62.3541 28.2297 62.4774 28.1064 62.4774 27.9557V14.356C62.4774 14.2053 62.3541 14.082 62.2034 14.082H60.7675C60.6167 14.082 60.4934 13.9587 60.4934 13.808V10.9252C60.4934 10.7745 60.6167 10.6512 60.7675 10.6512H62.2034C62.3541 10.6512 62.4774 10.5279 62.4774 10.3772Z" fill="white"></path> <path d="M70.9461 24.7607C69.3238 24.7607 68.3812 24.3826 68.3812 21.3272V14.3588C68.3812 14.2081 68.5045 14.0848 68.6552 14.0848H72.1435C72.2943 14.0848 72.4176 13.9615 72.4176 13.8108V10.9253C72.4176 10.7746 72.2943 10.6513 72.1435 10.6513H68.6552C68.5045 10.6513 68.3812 10.528 68.3812 10.3773V5.60654C68.3812 5.45583 68.2579 5.33252 68.1072 5.33252H64.5421C64.3914 5.33252 64.2681 5.45583 64.2681 5.60654V22.2698C64.2681 28.1915 67.9647 28.4573 69.965 28.4573C71.0392 28.4573 72.1134 28.3668 72.7875 28.2682C72.9218 28.249 73.0204 28.1339 73.0204 27.9969V24.9251C73.0204 24.7607 72.8779 24.6347 72.7135 24.6538C72.2203 24.7114 71.4612 24.7607 70.9461 24.7607Z" fill="white"></path> <path d="M86.7618 10.9254V12.1996C86.7618 12.4544 86.4494 12.5695 86.2823 12.3777C85.0793 10.9994 83.1036 10.1992 81.3306 10.1992C75.9734 10.1992 72.3152 14.4603 72.3152 19.442C72.3152 24.421 75.9734 28.682 81.3306 28.682C83.1036 28.682 85.0793 27.8819 86.2823 26.5036C86.4494 26.3117 86.7618 26.4268 86.7618 26.6817V27.9559C86.7618 28.1066 86.8851 28.2299 87.0358 28.2299H90.6009C90.7516 28.2299 90.8749 28.1066 90.8749 27.9559V10.9254C90.8749 10.7747 90.7516 10.6514 90.6009 10.6514H87.0358C86.8851 10.6514 86.7618 10.7747 86.7618 10.9254ZM81.5553 25.0239C78.4643 25.0239 76.4256 22.459 76.4256 19.442C76.4256 16.4223 78.4643 13.8574 81.5553 13.8574C84.7258 13.8574 86.7618 16.4223 86.7618 19.442C86.7618 22.459 84.7258 25.0239 81.5553 25.0239Z" fill="white"></path> <path d="M107.433 12.575C106.452 11.1035 104.679 10.1992 102.15 10.1992C99.8974 10.1992 98.0642 10.9637 96.9051 12.3941C96.7407 12.5969 96.4173 12.4846 96.4173 12.2242V10.9226C96.4173 10.7719 96.294 10.6486 96.1433 10.6486H92.5782C92.4275 10.6486 92.3042 10.7719 92.3042 10.9226V27.9531C92.3042 28.1038 92.4275 28.2271 92.5782 28.2271H96.1433C96.294 28.2271 96.4173 28.1038 96.4173 27.9531V19.1351C96.4173 16.1181 97.7737 13.8163 100.643 13.8163C103.583 13.8163 104.452 16.1181 104.452 19.1351V27.9531C104.452 28.1038 104.575 28.2271 104.726 28.2271H108.291C108.442 28.2271 108.565 28.1038 108.565 27.9531V17.7814C108.565 15.3673 108.299 13.8958 107.433 12.575Z" fill="white"></path> <path d="M123.712 10.9254V12.1996C123.712 12.4544 123.399 12.5695 123.232 12.3777C122.029 10.9994 120.053 10.1992 118.28 10.1992C112.923 10.1992 109.265 14.4603 109.265 19.442C109.265 24.421 112.923 28.682 118.28 28.682C120.053 28.682 122.029 27.8819 123.232 26.5036C123.399 26.3117 123.712 26.4268 123.712 26.6817V27.9559C123.712 28.1066 123.835 28.2299 123.986 28.2299H127.551C127.701 28.2299 127.825 28.1066 127.825 27.9559V10.9254C127.825 10.7747 127.701 10.6514 127.551 10.6514H123.986C123.835 10.6514 123.712 10.7747 123.712 10.9254ZM118.508 25.0239C115.414 25.0239 113.375 22.459 113.375 19.442C113.375 16.4223 115.414 13.8574 118.508 13.8574C121.676 13.8574 123.712 16.4223 123.712 19.442C123.712 22.459 121.676 25.0239 118.508 25.0239Z" fill="white"></path></g></svg>