<svg xmlns="http://www.w3.org/2000/svg" width="261" height="61" viewBox="0 0 261 61" fill="none">
<g clip-path="url(#clip0_1_2)">
<path d="M55.4781 42.8893C52.4203 44.5275 49.1561 45.7566 45.7713 46.5444C42.0852 47.3816 38.2926 47.6639 34.5215 47.3819C28.1884 46.8435 22.0655 43.9633 17.8252 39.24C17.3071 38.6703 16.8868 37.9723 16.0808 37.7814C14.8026 37.4966 13.9016 38.3512 13.5879 39.5306C10.4904 50.9999 21.0752 61.8908 32.6935 60.9422C37.875 60.6122 42.8888 58.9943 47.2709 56.2381C51.653 53.482 55.2619 49.6766 57.7638 45.1741C57.9097 44.9226 57.9851 44.637 57.9821 44.347C57.979 44.057 57.8977 43.7731 57.7465 43.5246C57.5266 43.1471 57.1664 42.8695 56.7427 42.7508C56.3191 42.6322 55.8653 42.6819 55.4781 42.8893ZM29.363 3.1173C32.3281 4.91787 35.0386 7.10013 37.4232 9.60686C39.9902 12.3485 42.1252 15.4573 43.7563 18.8284C46.4507 24.526 46.9947 31.2122 44.9739 37.1975C44.7292 37.9268 44.332 38.6219 44.568 39.4196C44.9624 40.6588 46.1628 40.9978 47.3459 40.6844C58.9268 37.6277 63.1786 23.1016 56.5375 13.6208C53.659 9.34315 49.7368 5.85302 45.1338 3.47331C40.5308 1.09361 35.3957 -0.0988012 30.2035 0.00640464C29.9083 0.00833852 29.619 0.0886623 29.3658 0.238992C29.1126 0.389322 28.9049 0.604147 28.7642 0.861045C28.5466 1.24004 28.4874 1.68823 28.5993 2.10984C28.7112 2.53145 28.9852 2.89303 29.363 3.1173V3.1173ZM32.1324 21.7399C30.0906 21.4411 28.0071 21.8521 26.237 22.9028C24.4669 23.9534 23.1196 25.5789 22.4245 27.5023C21.7294 29.4256 21.7296 31.528 22.4249 33.4513C23.1203 35.3746 24.4678 36.9998 26.2381 38.0503C28.0083 39.1007 30.0918 39.5114 32.1337 39.2123C34.1755 38.9133 36.0495 37.923 37.4364 36.4101C38.8233 34.8973 39.6374 32.9554 39.74 30.9152C39.8426 28.8751 39.2274 26.8628 37.9992 25.2211C37.3025 24.2858 36.4252 23.4964 35.4182 22.8989C34.4112 22.3013 33.2944 21.9074 32.1324 21.7399V21.7399ZM29.6161 14.974C30.3761 14.8174 31.1965 14.806 31.7636 14.2106C32.6502 13.2534 32.3393 12.054 31.4757 11.1994C23.0297 2.80112 8.17874 6.42195 3.20153 16.8543C0.899008 21.4594 -0.192564 26.5649 0.027827 31.6984C0.248218 36.8318 1.77345 41.8273 4.46239 46.2225C4.61019 46.4731 4.82279 46.6801 5.07831 46.8223C5.33382 46.9645 5.62301 47.0368 5.91611 47.0316C6.35684 47.0332 6.78064 46.8638 7.09656 46.5597C7.41248 46.2555 7.59534 45.841 7.60588 45.4049C7.70172 41.967 8.25734 38.5567 9.25823 35.2632C10.3698 31.6851 12.0195 28.2931 14.152 25.2012C17.7877 20.0449 23.3694 16.2446 29.6161 14.974ZM76.5127 32.7676C76.5127 23.9933 81.6367 17.9538 90.2151 17.9538C93.8422 17.9538 96.9541 19.4352 98.6237 21.6003V7.59845C98.6233 7.49047 98.6445 7.38347 98.686 7.2836C98.7274 7.18373 98.7885 7.09295 98.8655 7.01646C98.9425 6.93997 99.034 6.87928 99.1348 6.83787C99.2356 6.79646 99.3436 6.77515 99.4527 6.77515H105.046C105.267 6.77515 105.478 6.86189 105.634 7.01629C105.79 7.17069 105.878 7.3801 105.878 7.59845V46.2966C105.878 46.4045 105.856 46.5115 105.815 46.6112C105.773 46.7109 105.711 46.8015 105.634 46.8777C105.557 46.9539 105.465 47.0143 105.364 47.0554C105.263 47.0964 105.155 47.1174 105.046 47.117H99.4527C99.2329 47.117 99.022 47.0306 98.8665 46.8767C98.711 46.7228 98.6237 46.5142 98.6237 46.2966V43.8124C97.1843 46.0914 93.9574 47.5728 90.3303 47.5728C81.6367 47.5814 76.5127 41.5334 76.5127 32.7676V32.7676ZM99.0843 32.7676C99.0843 27.5828 96.03 24.1642 91.3666 24.1642C86.7607 24.1642 83.7093 27.5828 83.7093 32.7676C83.7093 37.9524 86.7607 41.371 91.3666 41.371C96.03 41.3624 99.0843 37.9439 99.0843 32.7676ZM136.023 47.117H130.43C130.21 47.117 129.999 47.0306 129.844 46.8767C129.688 46.7229 129.601 46.5142 129.601 46.2966V42.7869C127.759 45.5787 124.477 47.5729 120.389 47.5729C114.114 47.5729 109.796 43.4706 109.796 37.2032V19.2216C109.796 19.1136 109.817 19.0067 109.859 18.9069C109.901 18.8072 109.962 18.7166 110.04 18.6404C110.117 18.5642 110.209 18.5038 110.31 18.4628C110.411 18.4217 110.519 18.4008 110.628 18.4011H116.221C116.441 18.4011 116.652 18.4876 116.807 18.6414C116.963 18.7953 117.05 19.004 117.05 19.2216V35.5452C117.05 38.6504 119.586 41.2428 122.721 41.1915C127.123 41.1118 129.604 37.3627 129.604 30.9928V19.2216C129.604 19.004 129.691 18.7953 129.847 18.6414C130.002 18.4876 130.213 18.4011 130.433 18.4011H136.026C136.135 18.4008 136.243 18.4217 136.344 18.4628C136.445 18.5038 136.537 18.5642 136.614 18.6404C136.692 18.7166 136.753 18.8072 136.795 18.9069C136.837 19.0067 136.858 19.1136 136.858 19.2216V46.2852C136.86 46.3944 136.839 46.5028 136.798 46.604C136.757 46.7052 136.695 46.7973 136.617 46.8748C136.54 46.9522 136.447 47.0136 136.345 47.0552C136.243 47.0968 136.134 47.1178 136.023 47.117ZM154.418 47.5813C148.543 47.5813 144.167 44.4477 144.167 37.7245V24.4405H140.105C139.885 24.4405 139.673 24.3538 139.517 24.1994C139.361 24.045 139.273 23.8356 139.273 23.6172V19.2215C139.273 19.1135 139.295 19.0066 139.337 18.9069C139.379 18.8072 139.44 18.7166 139.517 18.6404C139.595 18.5642 139.686 18.5038 139.787 18.4627C139.888 18.4216 139.996 18.4007 140.105 18.4011H144.167V10.7891C144.171 10.5729 144.26 10.3669 144.416 10.2151C144.571 10.0633 144.781 9.97789 144.999 9.97717H150.592C150.81 9.97864 151.018 10.0645 151.173 10.2163C151.327 10.368 151.415 10.5737 151.418 10.7891V18.4011H157.901C158.121 18.4011 158.333 18.4874 158.488 18.6412C158.644 18.795 158.732 19.0037 158.733 19.2215V23.6172C158.732 23.8354 158.645 24.0443 158.489 24.1986C158.333 24.3528 158.122 24.4398 157.901 24.4405H151.418V37.0408C151.418 39.7756 152.918 41.257 155.161 41.257C155.98 41.2631 156.797 41.1577 157.587 40.9436C157.704 40.9079 157.828 40.8985 157.949 40.9161C158.07 40.9337 158.185 40.9778 158.287 41.0452C158.388 41.1127 158.473 41.2018 158.536 41.3059C158.598 41.4101 158.636 41.5267 158.647 41.6473L159.021 46.2054C159.035 46.3942 158.984 46.5821 158.875 46.7376C158.766 46.8932 158.606 47.007 158.422 47.06C157.12 47.4238 155.771 47.5993 154.418 47.5813V47.5813ZM159.944 32.7676C159.944 23.9933 165.99 17.9539 174.683 17.9539C181.767 17.9539 186.863 21.4265 188.167 27.0387C188.191 27.146 188.193 27.257 188.174 27.3652C188.154 27.4734 188.112 27.5766 188.051 27.6685C187.99 27.7605 187.911 27.8394 187.819 27.9005C187.726 27.9616 187.622 28.0037 187.513 28.0244L182.018 29.087C181.813 29.1262 181.601 29.0868 181.424 28.9767C181.248 28.8667 181.121 28.6942 181.068 28.4944C180.308 25.8821 178.017 24.1585 174.902 24.1585C170.411 24.1585 167.475 27.5201 167.475 32.7619C167.475 38.0037 170.411 41.3653 174.902 41.3653C178.025 41.3653 180.173 39.827 181.036 37.189C181.098 36.9936 181.23 36.8275 181.407 36.7224C181.584 36.6173 181.795 36.5805 181.998 36.6192L187.493 37.7245C187.603 37.7463 187.708 37.7899 187.8 37.8527C187.893 37.9155 187.971 37.9961 188.032 38.0898C188.092 38.1835 188.132 38.2883 188.151 38.3978C188.169 38.5074 188.165 38.6195 188.138 38.7273C186.739 44.2625 181.644 47.5814 174.683 47.5814C165.99 47.5814 159.944 41.5334 159.944 32.7676ZM191.984 6.77515H197.575C197.795 6.77515 198.007 6.86189 198.163 7.01629C198.319 7.17069 198.407 7.3801 198.407 7.59845V22.8452C200.306 19.7115 203.588 17.9453 207.618 17.9453C214.127 17.9453 218.445 22.0476 218.445 28.3149V46.2966C218.444 46.5144 218.356 46.7231 218.2 46.8769C218.044 47.0307 217.833 47.117 217.613 47.117H212.02C211.8 47.117 211.588 47.0307 211.433 46.8769C211.277 46.7231 211.189 46.5144 211.188 46.2966V30.0812C211.195 28.5749 210.602 27.1266 209.538 26.0495C208.474 24.9725 207.024 24.3536 205.502 24.3266C200.969 24.2839 198.407 28.1098 198.407 34.6393V46.2966C198.407 46.4045 198.385 46.5115 198.343 46.6112C198.301 46.7109 198.24 46.8015 198.163 46.8777C198.085 46.9539 197.994 47.0143 197.893 47.0554C197.792 47.0964 197.684 47.1174 197.575 47.117H191.984C191.875 47.1174 191.767 47.0964 191.666 47.0554C191.565 47.0143 191.473 46.9539 191.396 46.8777C191.319 46.8015 191.258 46.7109 191.216 46.6112C191.174 46.5115 191.152 46.4045 191.152 46.2966V7.59845C191.152 7.3801 191.24 7.17069 191.396 7.01629C191.552 6.86189 191.764 6.77515 191.984 6.77515V6.77515ZM221.081 10.2251C221.073 9.64195 221.184 9.06322 221.408 8.52364C221.632 7.98405 221.963 7.49473 222.382 7.08502C222.802 6.6753 223.301 6.35365 223.849 6.13935C224.397 5.92506 224.983 5.82254 225.572 5.83794C228.22 5.83794 230.178 7.77512 230.178 10.2251C230.178 12.732 228.22 14.6692 225.572 14.6692C224.978 14.6829 224.388 14.5772 223.837 14.3587C223.286 14.1402 222.786 13.8134 222.366 13.3979C221.946 12.9825 221.616 12.4871 221.395 11.9418C221.174 11.3964 221.067 10.8124 221.081 10.2251V10.2251ZM222.777 18.4011H228.367C228.476 18.4008 228.584 18.4217 228.685 18.4628C228.786 18.5038 228.878 18.5642 228.955 18.6404C229.033 18.7167 229.094 18.8072 229.136 18.907C229.178 19.0067 229.199 19.1136 229.199 19.2216V46.2852C229.199 46.3932 229.178 46.5001 229.136 46.5998C229.094 46.6996 229.033 46.7901 228.955 46.8664C228.878 46.9426 228.786 47.003 228.685 47.044C228.584 47.0851 228.476 47.106 228.367 47.1057H222.788C222.679 47.106 222.571 47.0851 222.47 47.044C222.369 47.003 222.278 46.9426 222.2 46.8664C222.123 46.7901 222.062 46.6996 222.02 46.5998C221.978 46.5001 221.956 46.3932 221.956 46.2852V19.2216C221.956 19.1136 221.978 19.0067 222.02 18.907C222.062 18.8072 222.123 18.7167 222.2 18.6404C222.278 18.5642 222.369 18.5038 222.47 18.4628C222.571 18.4217 222.679 18.4008 222.788 18.4011H222.777ZM260.105 34.6393H239.344C239.977 38.9695 242.799 41.5334 246.947 41.5334C250.059 41.5334 252.35 40.1945 253.28 37.83C253.356 37.6451 253.499 37.4946 253.681 37.4074C253.862 37.3201 254.07 37.3022 254.264 37.3571L259.446 38.7473C259.558 38.7758 259.664 38.8273 259.755 38.8985C259.846 38.9697 259.922 39.059 259.976 39.1607C260.03 39.2625 260.062 39.3743 260.07 39.4891C260.078 39.6038 260.061 39.7189 260.022 39.827C258.15 44.7212 253.268 47.5786 246.837 47.5786C237.22 47.5786 232.096 40.2287 232.096 32.7648C232.096 25.301 236.817 17.951 246.434 17.951C256.222 17.951 261 25.13 261 31.7962C261 32.4742 260.974 33.2548 260.943 33.8701C260.929 34.08 260.834 34.2766 260.678 34.4196C260.523 34.5626 260.318 34.6412 260.105 34.6393V34.6393ZM253.222 29.3975C252.877 25.979 250.631 23.415 246.429 23.415C242.859 23.415 240.323 25.5232 239.52 29.3975H253.222Z" fill="white"/>
</g>
<defs>
<clipPath id="clip0_1_2">
<rect width="261" height="61" fill="white"/>
</clipPath>
</defs>
</svg>