<svg xmlns="http://www.w3.org/2000/svg" width="136" height="36" viewBox="0 0 136 36" fill="none">
<g clip-path="url(#clip0_287_1255)">
<path d="M42.9352 14.5218V13.2091C42.9352 8.89266 46.5682 5.69971 50.8376 5.69971C51.6937 5.69971 52.5498 5.82978 52.9316 5.95987L51.9483 9.81509C51.6011 9.685 51.2193 9.6377 50.8376 9.6377C48.6162 9.6377 47.1237 11.2933 47.1237 13.2209V14.5336H52.2489V17.762H47.1237V34.1764H42.9352V17.7502H40.4595V14.5218H42.9352Z" fill="#3A1AB6"/>
<path d="M53.0938 24.3487C53.0938 18.6723 57.1085 14.3086 62.4074 14.3086C65.1378 14.3086 67.5329 15.7987 68.9442 18.0219V14.5333H73.121V34.1761H68.9328V30.6874C67.4749 32.9107 65.0915 34.4006 62.3958 34.4006C57.1085 34.3889 53.0938 29.9778 53.0938 24.3487ZM57.282 24.3487C57.282 28.1449 59.8852 31.1131 63.0901 31.1131C65.8204 31.1131 68.9442 28.7952 68.9442 24.3487C68.9442 20.6 66.4222 17.5844 63.0901 17.5844C59.8852 17.5844 57.282 20.6354 57.282 24.3487Z" fill="#3A1AB6"/>
<path d="M75.8167 25.9204V14.5322H79.9585V26.1924C79.9585 28.7232 81.8328 30.9109 84.4822 30.9109C87.8606 30.9109 89.6887 27.9899 89.6887 25.9323V14.544H93.8306V34.1867H89.6887V31.526C88.3698 33.2288 86.2756 34.4114 83.8344 34.4114C78.8016 34.3878 75.8167 30.4971 75.8167 25.9204Z" fill="#3A1AB6"/>
<path d="M96.1448 34.1646V14.5218H100.287V17.1826C101.571 15.4797 103.665 14.2971 106.141 14.2971C111.139 14.2971 114.17 18.1878 114.17 22.7643V34.1527H110.029V22.4924C110.029 19.8316 108.027 17.7739 105.458 17.7739C102.045 17.7739 100.287 20.825 100.287 22.7526V34.1408H96.1448V34.1646Z" fill="#3A1AB6"/>
<path d="M116.045 24.3487C116.045 18.6723 120.059 14.3086 125.358 14.3086C128.089 14.3086 130.484 15.7987 131.895 18.0219V14.5333H136.084V34.1761H131.895V30.6874C130.438 32.9107 128.054 34.4006 125.358 34.4006C120.059 34.3889 116.045 29.9778 116.045 24.3487ZM120.233 24.3487C120.233 28.1449 122.836 31.1131 126.041 31.1131C128.772 31.1131 131.895 28.7952 131.895 24.3487C131.895 20.6 129.373 17.5844 126.041 17.5844C122.836 17.5844 120.233 20.6354 120.233 24.3487Z" fill="#3A1AB6"/>
<path d="M24.7361 7.56853C22.5495 8.31357 21.4966 9.64989 20.7793 11.7312C20.5942 12.287 20.1314 12.902 19.6108 13.3159L21.4041 15.279L15.7117 11.2109L0 0C0 0 1.13384 7.52123 1.52721 10.2885C1.80488 12.2397 2.27925 13.1148 3.78331 14.0018L4.38495 14.3329L6.97658 15.7284L5.4378 14.9124L12.5416 18.874L12.4954 18.9805L4.84773 15.3618C5.25269 16.7809 6.03941 19.5126 6.37494 20.7189C6.73361 22.0197 7.13855 22.4927 8.37652 22.9541L10.6558 23.8055L12.0673 23.2378L10.274 24.4559L1.30738 36.0806C7.26582 30.4279 12.3102 28.4175 16.001 26.7737C20.7099 24.6924 23.5445 23.3561 25.3956 18.5547C26.7146 15.1844 27.7442 10.868 29.0518 9.2005L31.8401 5.55815C31.8401 5.55815 26.0666 7.11916 24.7361 7.56853Z" fill="#3A1AB6"/>
</g>
<defs>
<clipPath id="clip0_287_1255">
<rect width="136" height="36" fill="white"/>
</clipPath>
</defs>
</svg>