<svg width="95" height="114" viewBox="0 0 95 114" fill="none" xmlns="http://www.w3.org/2000/svg">
<path d="M89.023 76.7074C88.9794 77.552 88.7634 78.5809 87.9539 78.8264C87.6801 78.9095 87.3803 78.8829 87.1111 78.9785C86.3684 79.2501 86.1874 80.3322 85.4469 80.6093C84.8813 80.8209 84.2692 80.4639 83.6656 80.4566C82.4042 80.4413 81.6259 81.8707 80.446 82.3165C80.1106 82.4429 79.7533 82.5008 79.3952 82.4868C79.0372 82.4728 78.6855 82.3873 78.361 82.2351C78.0365 82.083 77.7458 81.8674 77.506 81.6011C77.2663 81.3348 77.0823 81.0232 76.9649 80.6846C76.7256 80.0539 76.7387 78.3574 76.8015 76.4812C76.9361 72.4299 77.5515 65.5991 75.6135 62.3471C75.6135 62.3341 82.7244 61.5298 83.298 61.5224C85.5657 61.493 86.3033 61.3046 87.106 63.5588C88.6 67.7738 89.2513 72.2413 89.023 76.7074Z" fill="#9000A6"/>
<path d="M87.9888 78.8484C87.7151 78.931 87.4147 78.905 87.146 79.0006C86.4033 79.2715 86.2217 80.3542 85.4813 80.6314C84.9156 80.8429 84.3036 80.486 83.7006 80.4786C82.4386 80.4628 81.6608 81.8928 80.4803 82.3385C80.1935 82.445 79.8874 82.4901 79.582 82.4709C80.9883 80.5522 83.441 78.496 83.1163 76.1463C82.9924 75.2514 82.623 74.283 83.0642 73.4945C83.2819 72.3338 83.4045 71.1573 83.4308 69.9767C83.3052 67.2253 83.0552 63.4716 81.5545 61.4714C81.175 60.9652 82.4505 62.1372 82.1858 61.5574L83.3318 61.5438C85.5995 61.5144 86.3377 61.3261 87.1398 63.5802C88.6339 67.7945 89.2857 72.2612 89.0579 76.7266C89.0144 77.574 88.7983 78.6029 87.9888 78.8484Z" fill="#730085"/>
<path d="M79.3507 80.2138C79.112 79.5826 79.1244 77.8862 79.1872 76.0099C79.3207 71.9972 79.9225 65.2624 78.0519 61.9714C77.2753 62.0602 75.6128 62.3431 75.6128 62.347C77.5513 65.599 76.9358 72.4299 76.8007 76.4811C76.7379 78.3574 76.7249 80.0538 76.9642 80.6845C77.0815 81.0231 77.2655 81.3347 77.5053 81.6011C77.7451 81.8674 78.0358 82.083 78.3603 82.2351C78.6848 82.3872 79.0364 82.4728 79.3945 82.4867C79.7526 82.5007 80.1098 82.4428 80.4452 82.3164C80.5085 82.2927 80.5708 82.2644 80.6319 82.235C79.6245 82.1908 79.784 81.3576 79.3507 80.2138Z" fill="#670082"/>
<path d="M84.9169 80.2067C84.5749 80.2093 84.2401 80.3052 83.9485 80.4839C84.4292 80.6521 84.9449 80.6953 85.4469 80.6094C85.5881 80.5543 85.7168 80.4714 85.8253 80.3656C85.5283 80.2837 85.2241 80.2305 84.9169 80.2067Z" fill="#670082"/>
<path d="M79.8639 45.4335C81.8437 48.3161 83.5408 51.3829 84.9316 54.5915C85.3479 55.6379 86.0572 56.7184 86.3078 58.4691C86.6891 61.1418 88.1841 64.2229 86.9328 64.2229C84.6781 64.2229 76.2985 66.3498 76.2985 66.3498L75.1729 62.8472C75.1729 62.8472 73.6716 61.0937 73.2966 59.5953C72.8113 57.6528 71.2636 57.3513 70.6753 55.4372C69.1816 50.5726 68.2168 45.5611 67.7978 40.4897C67.6672 38.9058 67.5292 36.512 68.9987 35.4237C70.4581 34.3433 71.861 35.9944 72.9425 36.9583C75.6837 39.3991 77.8179 42.4101 79.8639 45.4335Z" fill="black"/>
<path d="M18.6373 35.2037C19.8749 37.2366 22.9441 38.3063 25.2288 38.9743C26.4286 39.3245 27.7081 39.0875 28.9486 38.9393C33.1022 38.4347 37.3039 38.9093 41.4881 38.9285C46.0124 38.8675 50.5281 38.5157 55.0073 37.8752C59.8634 37.2689 68.0445 38.9562 71.5465 35.5787C74.6927 32.5451 74.8969 26.2787 68.7946 25.1972C66.9493 24.8582 65.077 24.6878 63.2008 24.6881C58.5714 24.8408 53.954 25.23 49.3383 25.6192L33.6096 26.9457C31.0415 27.1623 28.4157 27.5679 25.8392 27.5871C24.61 27.5961 22.4729 26.6662 21.2489 27.0254C17.261 28.1991 16.886 32.3267 18.6373 35.2037Z" fill="black"/>
<path d="M21.2499 29.2931C22.4739 28.9339 24.611 29.8639 25.8402 29.8548C28.4167 29.8362 31.0442 29.43 33.6105 29.2134L49.3392 27.8869C53.955 27.4977 58.5724 27.1086 63.2017 26.9558C65.0778 26.9547 66.9501 27.1239 68.7955 27.4615C71.7426 27.9842 73.2156 29.7168 73.6002 31.7096C74.1093 28.8938 72.8309 25.9122 68.7955 25.1972C66.9502 24.8582 65.0779 24.6878 63.2017 24.6881C58.5724 24.8408 53.955 25.23 49.3392 25.6192L33.6105 26.9457C31.0425 27.1623 28.4167 27.5679 25.8402 27.5871C24.611 27.5961 22.4739 26.6662 21.2499 27.0254C18.2423 27.9084 17.2903 30.4725 17.7535 32.9139C17.9314 32.0402 18.3548 31.2354 18.9741 30.5941C19.5934 29.9527 20.383 29.5014 21.2499 29.2931Z" fill="#424248"/>
<path d="M47.2815 114C73.3943 114 94.563 112.896 94.563 111.535C94.563 110.173 73.3943 109.07 47.2815 109.07C21.1686 109.07 0 110.173 0 111.535C0 112.896 21.1686 114 47.2815 114Z" fill="#D5EAEF"/>
<path d="M53.176 109.066C53.6585 108.634 72.108 106.213 72.4231 106.314C72.5928 102.686 72.2206 88.1139 72.5481 82.36C72.655 80.49 69.2865 91.9943 66.4108 91.3036C64.401 90.8211 51.4661 79.5222 52.439 81.8572C53.9442 85.4876 53.8011 104.813 53.176 109.066Z" fill="#26C9DA"/>
<path d="M39.5263 108.065C39.045 107.634 21.5555 104.461 21.2415 104.563C21.1386 102.061 21.5142 88.9896 21.2415 82.4856C21.1635 80.6139 23.8367 91.9943 26.7023 91.3036C28.7053 90.8211 41.5955 79.5222 40.6277 81.8572C39.1259 85.4876 39.2774 104.063 39.5263 108.065Z" fill="#26C9DA"/>
<path d="M27.1877 105.335C26.9654 103.952 25.7707 102.836 25.7 101.437L27.0174 101.571C26.7685 100.46 26.6102 99.3316 26.544 98.1956L27.4586 98.2471C27.114 97.3135 27.0062 96.3092 27.1447 95.3238L28.0588 95.6428C27.8252 95.5613 28.0945 93.3983 28.2789 92.2234C27.7776 92.5095 27.2495 92.7461 26.7023 92.9299C23.8367 93.62 21.1635 82.239 21.2415 84.1113C21.5142 90.6164 21.1386 103.687 21.2415 106.189C21.3614 106.15 23.9668 106.585 27.1753 107.163C27.2362 106.556 27.2404 105.943 27.1877 105.335Z" fill="#26E4EE"/>
<path d="M31.3877 91.5222C31.645 92.1507 31.9416 92.7625 32.2757 93.3537C33.1542 94.872 33.0416 95.9428 33.2775 97.6607C33.5796 99.856 33.0897 103.77 33.2719 106.001C31.9946 105.97 34.2901 105.347 34.3466 105.98C34.3186 106.36 34.2469 106.735 34.1328 107.098C34.1154 107.481 34.1897 107.863 34.3496 108.211C34.5095 108.56 34.7503 108.865 35.052 109.102C35.6177 109.619 36.2964 110.007 36.8281 110.553C36.9102 110.637 36.9854 110.722 37.059 110.814C37.8978 110.953 38.7232 111.163 39.5263 111.442C39.2757 107.44 39.1259 88.8647 40.6277 85.2371C41.2742 83.6754 35.7331 88.2023 31.3877 91.5222Z" fill="#00A2BF"/>
<path d="M64.7851 90.8965C65.0424 91.525 65.339 92.1368 65.6732 92.7281C66.5516 94.2463 63.556 95.6525 63.7924 97.3704C64.0945 99.5663 64.4859 104.271 64.668 106.502C63.3908 106.47 67.6869 104.721 67.744 105.355C67.7161 105.734 67.6444 106.109 67.5303 106.472C67.5128 106.855 67.5871 107.237 67.747 107.586C67.9069 107.934 68.1477 108.239 68.4495 108.476C69.0151 108.993 69.6939 109.381 70.2256 109.927C70.3077 110.011 70.3829 110.097 70.4564 110.189C71.2953 110.327 72.1207 110.538 72.9238 110.817C72.6732 106.815 71.547 86.3633 73.0488 82.7357C73.6953 81.1734 69.1305 87.5766 64.7851 90.8965Z" fill="#00A2BF"/>
<path d="M19.4745 67.8239C19.6142 65.5093 21.6981 42.4509 22.0256 34.461C22.2292 29.4832 24.1117 21.8231 25.4721 15.9408C28.6245 2.30852 34.1363 1.24622 45.9183 1.00073C59.9251 0.708281 65.2587 4.17404 67.2888 19.9434C67.6707 22.9069 68.9638 30.9816 69.3071 34.461C69.7376 38.8267 72.4793 53.8319 72.7525 67.0428C72.9222 75.1277 75.2097 90.9293 61.8874 97.246C56.9305 99.5963 50.2461 99.6353 45.2802 99.6218C37.3882 99.6014 31.928 98.3423 30.1824 97.6199C30.1824 97.6182 18.1819 89.1973 19.4745 67.8239Z" fill="#26C9DA"/>
<path d="M72.8775 67.5421C72.6043 54.3318 69.863 39.3266 69.432 34.9603C69.0892 31.481 67.7956 23.4068 67.4143 20.4433C65.6874 7.0305 62.7194 5.46362 59.5053 3.56641C60.8245 10.1637 59.6185 8.89433 61.0405 19.9427C61.4223 22.9062 62.867 35.9853 63.2924 39.4579C64.0424 45.5868 67.9761 53.7079 68.2493 66.9182C68.419 75.0026 70.707 90.8047 57.3847 97.1214C52.4273 99.4717 45.7429 99.5107 40.777 99.4972C38.4578 99.4915 36.353 99.3784 34.4869 99.2036C38.0921 99.8286 41.7451 100.136 45.4041 100.123C50.37 100.135 57.0566 100.097 62.0117 97.747C75.3346 91.4287 73.0472 75.627 72.8775 67.5421Z" fill="#0BB2CA"/>
<path d="M25.7288 67.8505C25.8685 65.5358 26.4347 53.5756 26.7622 45.5857C26.9659 40.6079 27.9303 28.5775 29.2901 22.6953C32.4431 9.06297 37.2337 6.44286 44.28 4.30808C48.4093 3.05685 56.5469 2.18008 56.5469 2.18008C54.3994 1.40726 52.1394 0.992945 49.8574 0.95374C49.1724 0.935639 46.5851 0.247808 45.8469 0.250071C45.2377 0.250071 46.4861 0.940734 45.8395 0.95431C45.4158 0.963361 40.7521 -0.00731196 40.3431 4.15716e-05C39.5681 0.0153143 43.0672 1.01087 42.3455 1.0318C32.8724 1.29992 28.0016 3.27461 25.227 15.4979C24.0669 20.6103 22.1498 29.4379 21.9462 34.4146C21.6193 42.4044 19.5354 65.4629 19.3951 67.7781C18.8085 77.4836 20.7996 91.0537 28.2193 95.1813C26.5042 91.1295 25.2768 75.3194 25.7288 67.8505Z" fill="#26E4EE"/>
<path d="M63.7924 81.9852C62.6894 83.6804 61.4332 85.2708 60.0398 86.7367C58.8084 87.9975 57.2834 88.7408 56.1622 89.7386C54.1655 91.5165 50.5906 93.0896 50.0334 93.4912C48.7114 94.4443 43.4757 95.4625 41.4026 95.9931C37.7332 96.9661 33.9394 97.3876 30.146 97.2438C35.2128 99.2081 40.5971 100.226 46.0313 100.246C52.1583 100.315 58.2615 99.4719 64.1403 97.7444C67.5342 96.7624 69.6271 94.1717 71.2675 91.805C71.8479 89.1673 72.2976 81.9829 72.2976 81.9829L63.7924 81.9852Z" fill="#00A2BF"/>
<path d="M14.4016 108.592C13.0208 109.327 11.4551 111.07 14.0803 111.672C15.4633 111.989 16.8701 111.641 18.2775 111.711C20.1091 111.801 20.4739 112.361 22.3009 112.339C23.8135 112.321 25.446 111.819 26.4726 111.87C28.3489 111.963 29.0549 112.527 30.5499 112.588C31.6586 112.633 33.5711 112.051 34.8885 112.033C36.5023 112.011 36.5357 112.188 38.7915 112.357C43.353 112.7 41.8512 109.759 41.5383 109.394C40.7775 108.507 39.8685 107.478 38.9131 106.547C38.2145 105.771 37.3571 105.153 36.3988 104.737C32.5456 103.126 27.1317 103.244 24.3911 103.719C19.9546 104.488 19.7317 105.743 14.4016 108.592Z" fill="#9000A6"/>
<path d="M16.9725 111.144C18.0105 110.094 21.7325 110.091 21.5888 110.667C22.5578 108.937 27.0135 109.063 26.8919 110.497C27.8105 108.098 29.0079 105.437 32.011 104.304C32.4216 104.151 32.8441 104.033 33.2741 103.95C30.3 103.403 27.2555 103.357 24.2661 103.813C19.8297 104.583 19.6068 105.837 14.276 108.686C12.8958 109.421 11.3295 111.164 13.9553 111.765C14.782 111.916 15.6264 111.946 16.4617 111.852C16.5758 111.58 16.7506 111.338 16.9725 111.144Z" fill="#C41ACD"/>
<path d="M38.9164 111.801C36.6606 111.632 36.6273 111.455 35.0135 111.477C33.6961 111.495 31.7835 112.077 30.6754 112.032C29.1798 111.971 28.4739 111.407 26.5976 111.314C25.5709 111.264 23.939 111.767 22.4259 111.784C20.5988 111.805 20.2339 111.245 18.4024 111.155C16.995 111.086 15.5883 111.432 14.2052 111.116C13.4065 110.933 12.9975 110.645 12.8516 110.311C12.64 110.901 12.9189 111.469 14.2052 111.763C15.5883 112.08 16.995 111.733 18.4024 111.802C20.2339 111.893 20.5988 112.453 22.4259 112.431C23.9385 112.413 25.5709 111.912 26.5976 111.962C28.4739 112.055 29.1798 112.619 30.6754 112.68C31.7835 112.725 33.6961 112.142 35.0135 112.124C36.6273 112.102 36.6606 112.28 38.9164 112.449C41.8686 112.671 42.2804 111.518 42.1192 110.577C41.9676 111.319 41.2056 111.974 38.9164 111.801Z" fill="#670082"/>
<path d="M78.676 108.592C80.0562 109.327 81.6225 111.07 78.9967 111.672C77.6143 111.989 76.2069 111.641 74.8001 111.711C72.9685 111.801 72.6036 112.361 70.776 112.339C69.264 112.321 67.6316 111.819 66.6049 111.87C64.7286 111.963 64.0226 112.527 62.527 112.588C61.4189 112.633 59.5065 112.051 58.1891 112.033C56.5747 112.011 56.5413 112.188 54.286 112.357C49.7246 112.7 51.2258 109.759 51.5392 109.394C52.3 108.507 53.2085 107.478 54.1639 106.547C54.8625 105.771 55.7199 105.153 56.6782 104.737C60.532 103.126 65.9459 103.244 68.6865 103.719C73.1224 104.488 73.3458 105.743 78.676 108.592Z" fill="#9000A6"/>
<path d="M61.1337 108.57C61.7912 109.016 62.4258 109.495 63.0349 110.006C62.7501 109.613 62.6126 109.133 62.6468 108.649C62.6809 108.165 62.8844 107.709 63.2215 107.36C63.5797 107.034 64.0442 106.848 64.5289 106.837C65.0136 106.827 65.4857 106.993 65.8575 107.304C65.0574 106.119 64.4766 104.799 64.143 103.409C61.5109 103.368 58.8942 103.817 56.4269 104.735C55.4686 105.151 54.611 105.768 53.9125 106.545C52.9571 107.476 52.0459 108.505 51.2873 109.392C50.9745 109.757 49.4727 112.698 54.0347 112.355C56.29 112.185 56.3234 112.008 57.9378 112.03C59.0397 112.045 60.5562 112.454 61.6711 112.562C60.6218 111.424 59.9023 109.81 61.1337 108.57Z" fill="#C41ACD"/>
<path d="M54.1609 111.801C56.4161 111.632 56.4495 111.455 58.0639 111.477C59.3813 111.495 61.2938 112.077 62.4019 112.032C63.8975 111.971 64.6034 111.407 66.4797 111.314C67.5064 111.264 69.1383 111.767 70.6509 111.784C72.4785 111.805 72.8434 111.245 74.6744 111.155C76.0817 111.086 77.4891 111.432 78.8715 111.116C79.6702 110.933 80.0798 110.645 80.2257 110.311C80.4373 110.901 80.1584 111.469 78.8715 111.763C77.4891 112.08 76.0817 111.733 74.6744 111.802C72.8434 111.893 72.4785 112.453 70.6509 112.431C69.1383 112.413 67.5064 111.912 66.4797 111.962C64.6034 112.055 63.8975 112.619 62.4019 112.68C61.2938 112.725 59.3813 112.142 58.0639 112.124C56.4495 112.102 56.4161 112.28 54.1609 112.449C51.2087 112.671 50.7969 111.518 50.9581 110.577C51.1097 111.319 51.8717 111.974 54.1609 111.801Z" fill="#670082"/>
<path d="M2.66249 76.7074C2.70605 77.552 2.92214 78.5809 3.73159 78.8264C4.00537 78.9095 4.30572 78.883 4.57441 78.9785C5.31712 79.2501 5.49869 80.3322 6.23913 80.6093C6.80479 80.8209 7.4168 80.4639 8.01979 80.4566C9.28177 80.4413 10.0595 81.8707 11.2401 82.3165C11.5754 82.4428 11.9327 82.5006 12.2907 82.4866C12.6488 82.4726 13.0004 82.387 13.3249 82.2349C13.6493 82.0828 13.9401 81.8673 14.1799 81.601C14.4197 81.3347 14.6037 81.0231 14.7211 80.6846C14.9599 80.0539 14.9474 78.3574 14.8846 76.4812C14.7494 72.4299 14.1339 65.5991 16.0725 62.3471C16.0725 62.3341 8.96161 61.5298 8.38803 61.5224C6.12032 61.493 5.38274 61.3046 4.58007 63.5588C3.08591 67.7738 2.43437 72.2412 2.66249 76.7074Z" fill="#9000A6"/>
<path d="M15.9481 62.3471C15.9481 62.3438 14.1918 61.299 13.5085 61.2209C11.7334 64.5583 12.7584 71.228 13.0469 76.1543C13.1566 78.0283 13.1221 79.7269 12.8834 80.3577C12.3743 81.7022 11.8273 82.2639 10.6479 82.0801C10.7958 82.173 10.952 82.2518 11.1147 82.3154C11.45 82.4417 11.8073 82.4995 12.1654 82.4855C12.5235 82.4715 12.8752 82.386 13.1997 82.2339C13.5242 82.0818 13.8149 81.8662 14.0548 81.5999C14.2947 81.3337 14.4787 81.022 14.5962 80.6835C14.8349 80.0528 14.8225 78.3564 14.7597 76.4801C14.6245 72.43 14.0091 65.6019 15.9481 62.3471Z" fill="#670082"/>
<path d="M3.69763 78.8486C3.97141 78.9312 4.27176 78.9051 4.54045 79.0007C5.28316 79.2717 5.46416 80.3544 6.20517 80.6315C6.77083 80.8431 7.38234 80.4861 7.9859 80.4788C9.24788 80.4629 10.0256 81.8929 11.2056 82.3387C11.4926 82.4452 11.7989 82.4903 12.1044 82.471C10.6982 80.5523 9.24562 78.3712 9.57087 76.0226C9.69418 75.1277 10.0635 74.1593 9.62286 73.3708C9.36028 72.2171 9.23725 71.036 9.25635 69.8529C9.84124 67.5507 9.4826 63.4192 10.132 61.4727C10.3328 60.8726 9.23599 62.1385 9.50072 61.5587L8.35414 61.5451C6.08643 61.5157 5.34877 61.3274 4.54667 63.5815C3.05253 67.7957 2.40082 72.2625 2.62853 76.7279C2.67152 77.5742 2.88761 78.6031 3.69763 78.8486Z" fill="#C41ACD"/>
<path d="M54.0359 43.8343C55.8282 43.6741 57.5641 43.1256 59.123 42.227C60.6819 41.3283 62.0264 40.101 63.0632 38.6303C63.6102 37.6325 66.1235 36.857 66.0109 35.7019C65.5154 30.6251 62.7946 25.8199 58.4956 21.0361C58.1358 20.6351 57.9893 20.0338 57.5696 19.7091C57.2297 19.4738 56.8444 19.3124 56.4383 19.2351C52.8 18.3351 49.0039 18.7713 45.3113 19.3561C43.1154 19.621 40.9654 20.181 38.9193 21.0209C37.6378 21.5873 36.4743 22.3895 35.4892 23.3859C34.4608 24.4482 33.9687 25.812 33.0891 26.9778C32.1213 28.2607 32.0336 28.4219 32.8063 30.0363C35.1096 34.8302 45.7824 44.46 54.0359 43.8343Z" fill="#00A2BF"/>
<path d="M31.3719 16.6631C33.2835 16.6268 34.7865 14.1408 34.7289 11.1105C34.6713 8.08016 33.075 5.65304 31.1634 5.68936C29.2518 5.72568 27.7488 8.21169 27.8064 11.242C27.864 14.2723 29.4603 16.6994 31.3719 16.6631Z" fill="#18ACC8"/>
<path d="M31.2979 17.2093C33.2091 17.1732 34.7122 14.6879 34.6551 11.6582C34.598 8.62838 33.0023 6.20146 31.091 6.2375C29.1798 6.27353 27.6767 8.75886 27.7338 11.7886C27.7909 14.8184 29.3866 17.2453 31.2979 17.2093Z" fill="#B6F7FA"/>
<path d="M31.376 15.4843C32.8633 15.449 34.0274 13.6746 33.9762 11.5212C33.925 9.36777 32.6779 7.65073 31.1906 7.6861C29.7034 7.72146 28.5392 9.49582 28.5904 11.6492C28.6416 13.8026 29.8888 15.5197 31.376 15.4843Z" fill="#453772"/>
<path d="M29.9379 9.45772C30.2518 9.45772 30.5064 9.14395 30.5064 8.75689C30.5064 8.36982 30.2518 8.05603 29.9379 8.05603C29.6239 8.05603 29.3694 8.36982 29.3694 8.75689C29.3694 9.14395 29.6239 9.45772 29.9379 9.45772Z" fill="white"/>
<path d="M31.4695 14.7765C32.1338 14.684 32.6074 14.1431 32.5273 13.5685C32.4473 12.994 31.8438 12.6032 31.1795 12.6958C30.5152 12.7884 30.0416 13.3292 30.1217 13.9038C30.2018 14.4784 30.8052 14.8691 31.4695 14.7765Z" fill="#5371A0"/>
<path d="M60.3691 16.7044C62.2804 16.6684 63.7835 14.183 63.7264 11.1533C63.6693 8.1235 62.0736 5.69658 60.1623 5.73261C58.2511 5.76864 56.748 8.25398 56.8051 11.2837C56.8622 14.3135 58.4579 16.7404 60.3691 16.7044Z" fill="#00A2BF"/>
<path d="M60.4512 17.2095C62.3624 17.1735 63.8655 14.6882 63.8084 11.6584C63.7513 8.62862 62.1556 6.20171 60.2443 6.23774C58.3331 6.27377 56.83 8.7591 56.8871 11.7889C56.9442 14.8187 58.5399 17.2455 60.4512 17.2095Z" fill="#B6F7FA"/>
<path d="M60.2972 15.4867C61.768 15.4529 62.92 13.6797 62.8704 11.5262C62.8207 9.37276 61.5883 7.65451 60.1175 7.68839C58.6468 7.72228 57.4948 9.49548 57.5444 11.6489C57.5941 13.8024 58.8265 15.5206 60.2972 15.4867Z" fill="#453772"/>
<path d="M58.8779 9.45772C59.1882 9.45772 59.4397 9.14395 59.4397 8.75689C59.4397 8.36982 59.1882 8.05603 58.8779 8.05603C58.5677 8.05603 58.3163 8.36982 58.3163 8.75689C58.3163 9.14395 58.5677 9.45772 58.8779 9.45772Z" fill="white"/>
<path d="M60.4083 14.7671C61.0644 14.668 61.526 14.1226 61.4393 13.549C61.3527 12.9754 60.7506 12.5907 60.0945 12.6898C59.4384 12.7889 58.9768 13.3343 59.0634 13.9079C59.1501 14.4816 59.7522 14.8662 60.4083 14.7671Z" fill="#5371A0"/>
<path d="M34.1509 30.8431C37.0357 33.0044 40.019 34.991 44.8418 34.9588C49.3301 35.0163 53.6808 33.4104 57.0554 30.4505C59.2275 28.4814 60.3962 24.5886 60.8719 22.4289C53.9449 22.2564 47.0076 22.3723 40.0976 22.7745C38.0375 22.8944 29.9927 20.3377 29.741 22.2518C29.3711 25.0677 31.9918 29.2236 34.1509 30.8431Z" fill="#EF00C3"/>
<path d="M54.9076 22.3406C54.3543 24.5631 44.5397 19.6141 43.9554 22.3202C43.0933 26.307 43.0113 34.9575 44.896 34.9451C49.3843 35.0025 53.7351 33.3966 57.1097 30.4368C59.2812 28.4678 60.4504 24.5749 60.9256 22.4152C58.9205 22.3655 56.9145 22.3406 54.9076 22.3406Z" fill="#C100A6"/>
<path d="M21.393 33.6989C21.5446 32.6174 21.1612 31.6468 21.8269 32.5111C23.2411 34.3517 26.8047 36.1811 29.2693 37.4515C32.8403 39.2944 35.276 40.4552 37.525 41.5808C40.3335 43.0278 42.8255 45.02 44.8553 47.441C44.9698 47.5824 45.1141 47.6967 45.278 47.7757C45.4418 47.8548 45.6211 47.8966 45.803 47.8982C45.9849 47.8998 46.165 47.8612 46.3302 47.7851C46.4955 47.709 46.6418 47.5973 46.7588 47.458C48.7625 45.1752 51.0871 43.1955 53.6598 41.5808C59.4793 38.0477 67.2921 34.3257 69.5457 31.261C70.1453 30.4447 70.4626 31.8866 70.5214 32.898C70.5294 33.0343 70.5372 33.1401 70.5463 33.2001C71.1685 37.3158 71.1753 36.7145 71.797 40.8302C72.8005 47.4693 74.5489 60.9675 74.4239 73.102C74.4687 74.829 74.273 76.5538 73.8424 78.2268C73.8129 78.3171 73.7939 78.4105 73.7858 78.5051C73.7434 79.0346 73.5941 80.8543 73.4272 82.1361C73.3946 82.3915 73.2827 82.6303 73.1072 82.8187C72.9318 83.0072 72.7016 83.1358 72.4492 83.1865C67.7333 84.1255 55.1735 84.2262 46.1541 84.1091C38.951 84.0158 24.7632 84.2222 20.5298 83.6C20.2442 83.5578 19.9823 83.4171 19.7895 83.2021C19.5967 82.9871 19.4852 82.7114 19.4743 82.4229C19.3901 80.21 19.3109 78.6715 19.2764 78.0447C19.2669 77.8667 19.2185 77.6929 19.1344 77.5356C18.933 77.1544 18.5302 76.1017 18.2582 73.4759C17.3022 64.2014 19.8301 44.8282 21.393 33.6989Z" fill="black"/>
<path d="M59.5028 50.04C60.1423 50.0393 60.6604 49.7376 60.6599 49.3661C60.6595 48.9947 60.1408 48.6941 59.5013 48.6949C58.8618 48.6956 58.3437 48.9973 58.3441 49.3687C58.3446 49.7402 58.8633 50.0407 59.5028 50.04Z" fill="#FFD55B"/>
<path d="M59.5056 52.5616C60.1451 52.5609 60.6632 52.2592 60.6627 51.8877C60.6623 51.5163 60.1436 51.2157 59.5041 51.2165C58.8646 51.2172 58.3465 51.5189 58.347 51.8904C58.3474 52.2618 58.8661 52.5623 59.5056 52.5616Z" fill="#FFD55B"/>
<path d="M56.8351 53.5255C57.148 53.3254 57.1225 52.7265 56.778 52.1877C56.4336 51.6489 55.9007 51.3743 55.5877 51.5743C55.2747 51.7744 55.3002 52.3734 55.6447 52.9122C55.9891 53.451 56.5221 53.7256 56.8351 53.5255Z" fill="#FF92B0"/>
<path d="M59.0411 54.756C59.354 54.5559 59.3285 53.9569 58.9841 53.4181C58.6396 52.8793 58.1067 52.6048 57.7937 52.8049C57.4807 53.0049 57.5063 53.6039 57.8507 54.1427C58.1952 54.6815 58.7281 54.9561 59.0411 54.756Z" fill="#FF92B0"/>
<path d="M56.8379 56.0654C57.1508 55.8653 57.1253 55.2664 56.7808 54.7276C56.4364 54.1888 55.9035 53.9142 55.5905 54.1143C55.2775 54.3143 55.303 54.9133 55.6475 55.4521C55.9919 55.9909 56.5249 56.2655 56.8379 56.0654Z" fill="#FF92B0"/>
<path d="M59.0436 57.296C59.3566 57.096 59.3311 56.497 58.9866 55.9582C58.6422 55.4194 58.1092 55.1448 57.7963 55.3449C57.4833 55.545 57.5088 56.1439 57.8533 56.6827C58.1978 57.2215 58.7307 57.4961 59.0436 57.296Z" fill="#FF92B0"/>
<path d="M63.3703 55.4464C63.7136 54.9069 63.7378 54.3078 63.4244 54.1085C63.111 53.9091 62.5786 54.1849 62.2354 54.7244C61.8921 55.264 61.868 55.863 62.1814 56.0624C62.4948 56.2618 63.0271 55.986 63.3703 55.4464Z" fill="#B14FBE"/>
<path d="M61.1681 56.6815C61.5113 56.142 61.5355 55.5429 61.2221 55.3436C60.9087 55.1442 60.3764 55.42 60.0331 55.9596C59.6899 56.4991 59.6657 57.0981 59.9791 57.2975C60.2925 57.4969 60.8248 57.2211 61.1681 56.6815Z" fill="#B14FBE"/>
<path d="M63.3678 52.8498C63.711 52.3102 63.7352 51.7112 63.4218 51.5118C63.1084 51.3124 62.5761 51.5882 62.2328 52.1278C61.8896 52.6673 61.8654 53.2664 62.1788 53.4657C62.4922 53.6651 63.0246 53.3893 63.3678 52.8498Z" fill="#B14FBE"/>
<path d="M61.165 54.085C61.5082 53.5454 61.5324 52.9464 61.219 52.747C60.9056 52.5476 60.3733 52.8234 60.0301 53.363C59.6868 53.9026 59.6626 54.5016 59.9761 54.701C60.2895 54.9003 60.8218 54.6245 61.165 54.085Z" fill="#B14FBE"/>
<path d="M57.3383 51.2942C57.9777 51.2934 58.4958 50.9917 58.4954 50.6203C58.495 50.2488 57.9762 49.9483 57.3367 49.949C56.6972 49.9497 56.1792 50.2514 56.1796 50.6229C56.18 50.9943 56.6988 51.2949 57.3383 51.2942Z" fill="#FFD55B"/>
<path d="M61.7085 51.2892C62.348 51.2885 62.866 50.9868 62.8656 50.6154C62.8652 50.2439 62.3465 49.9434 61.707 49.9441C61.0675 49.9448 60.5494 50.2466 60.5498 50.618C60.5503 50.9895 61.069 51.29 61.7085 51.2892Z" fill="#FFD55B"/>
<path d="M45.968 49.9637L45.9703 50.3868" stroke="#74767A" stroke-width="2.992" stroke-miterlimit="10"/>
<path d="M45.9749 51.2405L46.1507 83.2617" stroke="#74767A" stroke-width="2.992" stroke-miterlimit="10" stroke-dasharray="1.51 1.51"/>
<path d="M46.1531 83.6882L46.1554 84.1113" stroke="#74767A" stroke-width="2.992" stroke-miterlimit="10"/>
<path d="M34.3057 24.5714C34.3057 24.5714 37.5768 32.3266 45.905 32.0766C45.905 32.0766 54.9827 31.8265 56.1316 24.3214L41.085 20.4438L34.3057 24.5714Z" fill="#6F0065"/>
<path d="M29.3784 25.4969C35.4247 25.2305 38.3486 24.7226 44.8327 24.6654C48.4562 24.6031 52.0806 24.7353 55.6899 25.0614C57.7867 25.2343 59.8928 25.2635 61.9936 25.1491C63.4592 25.0359 64.3377 23.1506 65.4266 22.2756C65.3095 21.4152 64.8128 20.3438 62.7798 19.4014C60.5106 18.2842 58.4651 16.761 56.7443 14.9073C55.3489 13.4157 54.9342 11.8969 53.041 10.5518C51.5284 9.47701 49.1068 8.79199 45.5177 8.79199C41.3505 8.79199 39.3396 9.54207 37.7648 10.8623C35.9694 12.3675 35.2691 14.4944 32.9924 16.0233C30.5493 17.6637 26.4551 18.9025 24.813 21.6301C24.1189 22.7835 24.9538 24.3164 24.9538 24.3164C24.9538 24.3164 26.4002 25.6293 29.3784 25.4969Z" fill="#EF00C3"/>
<path d="M62.0767 18.6135C60.3021 17.7991 58.6394 16.7601 57.1294 15.5222C56.6166 15.0565 56.1655 14.5271 55.7872 13.9469C55.1097 12.7033 54.2057 11.5973 53.1218 10.6859C50.9202 8.94137 48.8443 8.71906 45.8073 8.80221C47.9726 8.88027 49.5027 8.82145 51.2076 10.2028C52.5748 11.3109 52.8242 12.6719 53.3322 13.7698C53.6957 14.5058 54.1947 15.1667 54.8029 15.7179C56.4256 16.8295 58.1416 17.7984 59.9317 18.6135C62.2378 19.7267 64.0412 20.3309 64.1034 22.2745C64.1362 23.3141 63.7312 24.6316 61.0975 25.0038C60.0752 25.2089 59.0405 25.3457 58 25.4133C60.1495 25.4597 62.1265 25.3929 63.2708 25.0038C63.9156 24.8274 64.4849 24.4447 64.8914 23.914C65.298 23.3834 65.5195 22.7342 65.5221 22.0657C65.4825 20.8835 64.6601 19.8761 62.0767 18.6135Z" fill="#C100A6"/>
<path d="M62.7991 24.4867C60.3815 25.0733 54.661 24.5783 51.0334 24.4663C48.3963 24.3849 43.9033 24.2401 38.3995 24.5795C34.3007 24.8295 30.2693 25.1389 27.7137 25.0795C25.6117 25.0308 24.6852 23.8662 24.5381 22.7071C24.3718 24.1213 25.2254 25.5156 27.7137 25.7509C31.0256 26.0649 34.5513 25.8363 38.6501 25.5863C44.1539 25.2509 48.6463 25.3934 51.2834 25.4732C54.911 25.5863 60.7961 26.1486 63.1509 25.3476C64.8162 24.782 65.5199 23.4809 65.4865 22.4396C65.2187 22.9589 64.8385 23.4121 64.3737 23.7662C63.9088 24.1203 63.3709 24.3664 62.7991 24.4867Z" fill="#A1008B"/>
<path d="M11.8217 45.4335C9.84208 48.3162 8.14493 51.383 6.75392 54.5915C6.33816 55.6379 5.62826 56.7184 5.37824 58.4691C4.99642 61.1418 3.50198 64.2229 4.75265 64.2229C7.00792 64.2229 15.387 66.3498 15.387 66.3498L16.5132 62.8472C16.5132 62.8472 18.0139 61.0937 18.3895 59.5953C18.8748 57.6528 20.4224 57.3513 21.0102 55.4372C22.5044 50.5727 23.4693 45.5612 23.8882 40.4897C24.0189 38.9058 24.157 36.512 22.6874 35.4237C21.228 34.3433 19.8251 35.9944 18.7436 36.9583C16.0024 39.3991 13.8682 42.4101 11.8217 45.4335Z" fill="black"/>
<path d="M7.5221 59.1292C7.77268 57.3757 8.48371 56.2975 8.89833 55.2516C10.2891 52.0429 11.9862 48.9758 13.966 46.0931C16.012 43.0719 18.1463 40.0587 20.8852 37.6179C21.5413 37.0335 19.2827 36.0674 19.2827 36.0674C19.2827 36.0674 13.8682 42.4123 11.8217 45.4335C9.84208 48.3162 8.14493 51.3831 6.75392 54.5915C6.33816 55.6379 5.62826 56.7184 5.37824 58.4691C4.99642 61.1418 3.50198 64.2229 4.75265 64.2229C5.31201 64.2422 5.86936 64.3 6.42075 64.396C6.2997 63.4253 7.23192 61.161 7.5221 59.1292Z" fill="#424248"/>
<path d="M84.2165 59.1291C83.9665 57.3756 83.2549 56.2974 82.8403 55.2515C81.4495 52.0428 79.7524 48.9757 77.7726 46.093C75.7266 43.0718 73.5924 40.0586 70.8535 37.6178C70.1974 37.0334 71.4717 35.6736 71.4717 35.6736C71.4717 35.6736 77.5984 41.613 79.6443 44.6341C81.7174 47.787 83.5046 51.1188 84.9847 54.5897C85.4005 55.6361 86.1104 56.7166 86.3604 58.4673C86.7422 61.14 88.2366 64.2211 86.986 64.2211C86.4268 64.2404 85.8696 64.2982 85.3184 64.3942C85.435 63.4252 84.5067 61.1609 84.2165 59.1291Z" fill="#424248"/>
<path d="M44.9905 47.5626C44.9905 47.5626 40.2899 52.6337 40.7848 53.6236L43.3823 54.984C43.3823 54.984 44.9905 55.1079 46.8459 48.3048L44.9905 47.5626Z" fill="#424248"/>
</svg>
