<svg xmlns="http://www.w3.org/2000/svg" xmlns:xlink="http://www.w3.org/1999/xlink" viewBox="0 0 325.64 311.72"><defs><style>.cls-1{fill:#ff008e;}.cls-2{fill:#910090;}.cls-3{fill:#c300b6;}.cls-4{fill:url(#linear-gradient);}.cls-5{fill:#56d7e4;}.cls-6{fill:url(#linear-gradient-2);}.cls-7{fill:url(#linear-gradient-3);}.cls-8{fill:url(#linear-gradient-4);}.cls-9{fill:url(#linear-gradient-5);}.cls-10{fill:url(#linear-gradient-6);}.cls-11{fill:url(#linear-gradient-7);}.cls-12{fill:#00a9c9;}.cls-13{fill:#591c64;}.cls-14{fill:#ffa400;}.cls-15{fill:#fff;}.cls-16{fill:#a974a9;}.cls-17{fill:#d539a9;}.cls-18{fill:#54396d;}.cls-19{fill:#54a9ba;}.cls-20{fill:#00a0c9;}.cls-21{fill:#dc0096;}.cls-22{fill:#b90078;}.cls-23{fill:#ff4dd3;}.cls-24{fill:#321c45;}.cls-25{fill:#ffffc3;}</style><linearGradient id="linear-gradient" x1="111.6" y1="267.8" x2="121.19" y2="213.44" gradientUnits="userSpaceOnUse"><stop offset="0.13" stop-color="#44ceec"/><stop offset="0.85" stop-color="#0097b3"/></linearGradient><linearGradient id="linear-gradient-2" x1="64.51" y1="141.39" x2="64.51" y2="106.57" gradientTransform="translate(-39.64 52.79) rotate(-3.8)" gradientUnits="userSpaceOnUse"><stop offset="0.13" stop-color="#44ceec"/><stop offset="0.85" stop-color="#0095b3"/></linearGradient><linearGradient id="linear-gradient-3" x1="55.27" y1="123.09" x2="55.27" y2="111.7" xlink:href="#linear-gradient-2"/><linearGradient id="linear-gradient-4" x1="-223.02" y1="403.94" x2="-172.46" y2="433.15" gradientTransform="translate(611.85 -31.73) rotate(35.18)" gradientUnits="userSpaceOnUse"><stop offset="0.16" stop-color="#007c99"/><stop offset="0.56" stop-color="#0090ae"/><stop offset="0.86" stop-color="#009ab8"/></linearGradient><linearGradient id="linear-gradient-5" x1="13.29" y1="243.77" x2="154.63" y2="192.33" gradientTransform="translate(46.57 -80.77) rotate(4.7)" xlink:href="#linear-gradient-2"/><linearGradient id="linear-gradient-6" x1="-24.68" y1="307.14" x2="-30.5" y2="264.82" gradientTransform="matrix(0.95, 0.31, -0.31, 0.95, 337.87, -31.33)" xlink:href="#linear-gradient"/><linearGradient id="linear-gradient-7" x1="118.24" y1="118.07" x2="118.24" y2="216.65" gradientTransform="translate(46.57 -80.77) rotate(4.7)" gradientUnits="userSpaceOnUse"><stop offset="0.13" stop-color="#44ceec"/><stop offset="0.85" stop-color="#00a8c5"/></linearGradient></defs><g id="Layer_2" data-name="Layer 2"><g id="Layer_1-2" data-name="Layer 1"><path class="cls-1" d="M132.71,105.14c3-1.12,7.61-3.75,10.65-3.22,1.24.22,3.59.54,5.13.69s14.43.09,16-.19c5.11-.9,9.56-3.11,14.55-4.42a20.21,20.21,0,0,1,10.53.07c3.62.79,10.26,2,14.1,1.16,5.89-1.28,8.24-2.73,14.27-3.47,8.09-1,12.85,4.67,20.16,4.92,4.63.15,10-2.48,14.4-.72,3.78,1.53,6.76,5.28,5.49,3.53-3.11-4.33-6.47-8.69-11.05-11.56-11.8-7.43-25.22-9-38.79-10.67-6.41-.81-12.72-2.65-19.19-1.91-5.78.66-11.68.92-17.45,1.71s-11.78,3.08-17.29,5.09Z"/><path class="cls-2" d="M59.86,164.27c-12.86-1.4-31.56-12-35-15.2-10-9.46-6.7-24.54-1.06-35.2C32.92,96.68,52.28,87.35,68.63,78.5c7.34-4,25.12-11.27,47.61-12.13,15.89-.6,32.74,1.36,43.06,4.36,4.94,1.44,16.67,3.28,21.82,3.7,7.59.63,5.88-.85,13.33-.23C177.29,88,154.84,91.82,136.29,103.1c-9.79,6-20.59,12-29.28,19.48-4.84,4.17-10.34,7.34-15.23,11.48-3.63,3.08-10.5,6-12.55,10.38"/><path class="cls-3" d="M91.06,90.25s21.68-21.16,51.9-3.39l-41.1,34.86Z"/><path class="cls-3" d="M116.42,121.8c4.11-.48,14.24,17.68,17.82,11.71,24.89-41.39,62.46-49.59,85-47.54,27.68,2.52,34.11,12.87,40.89,21.64,1,1.31,2,2.33,2.15,2.63C248.35,80.5,227.72,69,203.94,65.93c-22.2-2.84-45-.69-65.43,11.83-19,11.63-26.5,24-26.5,24S118.45,102.47,116.42,121.8Z"/><path class="cls-2" d="M122.78,92.4s29.64-22.65,76.52-21.06c16.08.55,42.57,4.51,58.81,30.8C244.36,78.05,225,68.66,203.4,65.89c-22.2-2.85-50-2.89-70,10.3C121.1,84.29,122.78,92.4,122.78,92.4Z"/><path class="cls-4" d="M160.33,227a55,55,0,0,0-17.67,6.16c-5.54,3-10.76,10.5-13.93,15.8-2,3.28-2.72,5.25-4.69,8.57-1.47,2.48-2.86,5.89-4.61,8.11-2.48,3.14-8.35,2-11.32,1.53-6.6-1.05-11.73-3.14-18-5.62-5.56-2.23-12-5.58-15.79-10.32-2.14-2.7-.28-5,2.08-5-1.8-4.87.49-9.13,5.91-7.25-1.3-5.58.18-10.68,5.66-9.86s8.79,5.88,12.32,9.1c1.71,1.57,5.66,5.16,7.77,6.16,2.93,1.4,3.56,1,5.43-1.59,3.94-5.37,5.35-8.53,9.16-12.33,5.48-5.46,12.91-11.64,20.76-13.13"/><path class="cls-5" d="M157.13,225.07a59.15,59.15,0,0,0-15.38,6.25c-5.77,3.35-11.21,11.64-14.52,17.52-2,3.64-2.83,5.82-4.89,9.51-1.45,2.6-2.83,6.12-4.53,8.58a4.82,4.82,0,0,0,1.7-1.34c1.75-2.22,3.14-5.63,4.61-8.11,2-3.32,2.72-5.29,4.69-8.57,3.17-5.3,8.39-12.78,13.92-15.8A55.1,55.1,0,0,1,160.41,227Z"/><path class="cls-6" d="M52.35,156.92c-1.58,11-9.51,18.65-20.68,16.3-5.93-1.24-7.58-3.33-9.18-8.94-1.39-4.88-4.92-8.48-10.52-8.11s-9.81,4.42-11.49,10c-1.95,6.49,2.33,12.64,7.33,16.48,9,6.89,23.66,8.62,34,5.74,14.4-4,18.19-17.46,23-29.27"/><path class="cls-5" d="M40.75,184.34c-10.36,2.91-23.29,1.67-32.26-5.22-3.58-2.75-7.64-5.64-8.45-10-.29,5.47,3.48,10.5,7.79,13.8,9,6.89,23.66,8.62,34,5.74,14.4-4,18.19-17.46,23-29.27l-1.19-.21C57.78,165.48,56,180.05,40.75,184.34Z"/><path class="cls-7" d="M18.11,164.74c-2.08,4.61-.56,9.14,6.17,6.69,6.45-2.34,6.35-9.59,2.17-10.82A7.75,7.75,0,0,0,18.11,164.74Z"/><path class="cls-5" d="M24,169.2c-2.94.85-5.11.93-6.6.49.59,2.13,2.76,3.24,6.86,1.74a7.35,7.35,0,0,0,5-5.2A11.3,11.3,0,0,1,24,169.2Z"/><path class="cls-8" d="M163,202c16.09,4.52,37.88-3.07,58.7-14.52,19.21-10.57,32.13-14.83,41.5-13.8,16,1.77,16.39,19.57-.5,29.7-17.13,10.26-52.33,21.3-106.29,24.34-16.08.91,9.51-7.14-6.67-10.61-12.25-2.62.08-15.39-10.76-20.37"/><path class="cls-9" d="M24.1,95.87c-.48-19.26,4.29-25.82,14.73-32C49.1,57.73,66.83,54.12,82,59c19.09,6.1,26.64,18.68,35.73,33.32,2.74,4.41,3.34,10.06,11.52,19,16.87,18.48,32.67,27.05,51.69,47.94C216.08,197.83,206,219.19,206,219.19S170,229.6,146.87,228c-20.68-1.45-34.23-2.27-53.37-15.31-18.31-12.48-42.36-45.53-52.95-67.35C39.22,142.57,24.84,125,24.1,95.87Z"/><path class="cls-5" d="M259.66,201.18c-14.68,8.39-37.32,13.45-72,20.27-10.57,2.08-22.13,4.3-40.22,3-20.68-1.46-33.92-2.74-53.36-15.31C62.84,189,39.81,144.05,41.15,146.8c10.59,21.82,34,53.66,52.33,66.14,19.14,13.05,32.16,15.74,52.19,16.89,37.4,2.14,60.93-7.86,71.5-10,21.92-4.4,36.35-9.33,48.13-17.59,12.71-8.9,9.69-19.81,9.69-19.81S276.07,191.8,259.66,201.18Z"/><path class="cls-10" d="M266.22,238.55c-4.18-7.21-8.46-11.23-13.69-15.75a104.79,104.79,0,0,0-9-7c-2.34-1.62-6.55-4.54-13.77-1.44-5.06,2.16-11,5.4-15.73,4.29-5.92-1.38-13.09-8-16.36-11.75l-17.36,7.69,2.79,2.84c5.06,6.18,14.27,12.75,21.39,16.27s13.88,1.62,21.76-.28L228,233c4.45,5.31,7,12.36,10,18.56,1.21,2.47,3,5.79,6,6.09,4.26.41,5.5-2.79,5.91-7,1.06,1.8,4.23,5.11,6.83,5,3.65-.1,3.88-4.54,3.64-8.37,2.58,3.39,5.33,4.17,7.15,1.95C269.47,246.86,268.11,241.82,266.22,238.55Z"/><path class="cls-5" d="M266.22,238.55a51.11,51.11,0,0,0-6.17-8.57,35.69,35.69,0,0,1-.36,4.77c-.62,4.06-3.09,11.37-8.23,8.81-1.7-.85-3.86-3.37-6-1.95-1.9,1.28-1.44,4.94-3.61,5.89s-3.63-2.07-4.94-3.26-1.94-.75-2.25.24c1.11,2.39,2.16,4.8,3.29,7.09,1.21,2.47,3,5.79,6,6.09,4.26.41,5.5-2.79,5.91-7,1.06,1.8,4.23,5.11,6.83,5,3.65-.1,3.88-4.54,3.64-8.37,2.58,3.39,5.33,4.17,7.15,1.95C269.47,246.86,268.11,241.82,266.22,238.55Z"/><path class="cls-5" d="M227.92,230.35c-3.95,0-7,1.09-10.55,1.27a34.51,34.51,0,0,1-12.52-1.56,39.47,39.47,0,0,1-9.63-6.11c-4.52-3.71-13.26-10.33-16.79-10.33,0,0,13.07,13.61,21,18a27.45,27.45,0,0,0,15,4.17c5.42-.19,14.43-3,16.5-3.29a6,6,0,0,1,3.36.25S232.66,230.35,227.92,230.35Z"/><path class="cls-5" d="M188.9,220.14c-4.82-7.77-31.78-15.36-31.24-7.06a27.27,27.27,0,0,0-8.44-4c-1.44-.44-7.4-1.06-6.5,2.8-2-1.1-17.59-11.89-16.63-4.86-4.19-3.3-10.72-7.54-15.61-6.22-3,.82-2.91,4.53-1.86,6.17-3.73-2.58-10.82-7.13-14.83-6.41-2,.49-1,3.43,1.59,5.66a40.47,40.47,0,0,0-8.57-6,15.15,15.15,0,0,0-7.23-1.47c-.67,1.66.19,2.38,2.24,4.39,0,0,21.45,23.77,53.3,24C135.12,227.18,179.62,230,188.9,220.14Z"/><path class="cls-11" d="M169.4,64.92c7.48-14.09,2.13-16.55,2.13-16.55-2.44-1.22-4.89-.59-7.18,2.86-3,4.55-5.37,14.36-5.37,14.36.18-4.46.22-7.24.16-9.24-.28-9.85-5.36-8.89-5.36-8.89-4.73.63-5.36,8-5.5,14.36,0,1.81-.28,6.34-.34,7.81-3.56.19-8.46,1.86-8,5.41,0,0,.81,6.07,7.12,4.63-3.51,25.46-13.36,40-19.34,46.65-2.83,3.18-2.07,7.88-2.07,7.88l4.79,9.3c20.26-14.66,30.5-49.11,33.83-62.55,6.16-1,9.58-6.26,9.58-6.26C177,68.67,172.8,66,169.4,64.92Z"/><path class="cls-5" d="M140,75.28s.51,6.11,7.81,6.37c0,0,8.62.15,8.92-6C156.73,75.68,141.69,78,140,75.28Z"/><path class="cls-5" d="M159.39,69.89s-5.84,8,2.41,10.58c0,0,5,2.72,12-5.78Z"/><path class="cls-12" d="M120.82,119c3.6,8.79-10.54,11.22-12.16,15.73-3,8.39-16.86,3.86-26.82,5.72-11.49,2.16-11.92,3.66-23.71,3.89-5,.09-10.27-.32-15.25-.44-3.37.79,1.81,5.92,4.72,8a39.24,39.24,0,0,0,6.53,3.4s.33,9.86,4.09,12.93c2.08,1.71,3.63-.12,5.16-1.95,2.92-3.48,4.62-7.51,4.17-11.66-.47,5.74,5.93,18.15,11.64,17.58,5.06-.5,6.56-12.64,6.61-16.53,0-1.44,4-3.08,13.63-5.24,8-1.8,19.17-7.88,23.49-15.31,6-10.34,1.09-20.07,4.19-27.06l-4.19,2.1Z"/><ellipse class="cls-13" cx="177.91" cy="298.51" rx="147.72" ry="13.21"/><ellipse class="cls-3" cx="177.75" cy="293.7" rx="106.74" ry="7.7"/><path class="cls-14" d="M66.94,115.08a14.5,14.5,0,0,0-6.19,1Z"/><path class="cls-15" d="M171.65,23.08a11,11,0,0,1-2.89-7v0a10.9,10.9,0,0,1-2.89,7A7.81,7.81,0,0,1,161,25.16c7.67,1.22,7,7.85,7.72,13.23h0c.6-5.11.05-12,7.72-13.23A7.86,7.86,0,0,1,171.65,23.08Z"/><path class="cls-15" d="M188.65,12.94A6.4,6.4,0,0,1,187,8.87v0a6.4,6.4,0,0,1-1.67,4.07,4.56,4.56,0,0,1-2.81,1.2c3.63.8,4.07,2,4.48,5.13h0c.35-3,1.05-3.87,4.49-5.13A4.56,4.56,0,0,1,188.65,12.94Z"/><ellipse class="cls-1" cx="175.5" cy="292.25" rx="80.11" ry="4.76"/><circle class="cls-16" cx="179.07" cy="20.21" r="2.14"/><circle class="cls-17" cx="151.57" cy="23.78" r="1.43"/><circle class="cls-18" cx="160.14" cy="12.35" r="1.43"/><circle class="cls-17" cx="187.28" cy="46.99" r="1.79"/><circle class="cls-18" cx="197.68" cy="28.93" r="1.61"/><circle class="cls-18" cx="202.51" cy="25.81" r="1.61"/><circle class="cls-18" cx="203.44" cy="5.51" r="1.61"/><circle class="cls-17" cx="163.93" cy="38.03" r="1.61"/><circle class="cls-18" cx="157.27" cy="44.23" r="1.61"/><circle class="cls-18" cx="178.58" cy="34.46" r="1.61"/><circle class="cls-18" cx="219.29" cy="8.39" r="1.61"/><circle class="cls-18" cx="243.21" cy="1.61" r="1.61"/><circle class="cls-18" cx="172.67" cy="30.95" r="1.61"/><circle class="cls-17" cx="197.15" cy="15.58" r="1.61"/><circle class="cls-19" cx="149.96" cy="37.97" r="1.43"/><circle class="cls-19" cx="150.19" cy="42.2" r="0.83"/><circle class="cls-19" cx="184.81" cy="28.13" r="0.83"/><circle class="cls-19" cx="156.63" cy="28.67" r="1.43"/><circle class="cls-18" cx="140.9" cy="33.75" r="1.43"/><circle class="cls-19" cx="163.46" cy="46.32" r="1.43"/><path class="cls-15" d="M151.33,26.13a4.48,4.48,0,0,1-.85-1.64c-.32-.76-.8-.75-1.12,0a4.91,4.91,0,0,1-.92,1.71,7,7,0,0,1-1.64,1,.46.46,0,0,0,0,.85,3.23,3.23,0,0,1,2.6,2.27c.23.58.73.6,1,0,.43-1.08.82-1.68,2.67-2.41a.46.46,0,0,0,0-.86A5.34,5.34,0,0,1,151.33,26.13Z"/><path class="cls-15" d="M145.19,41.56c-.32-.3-.36-.68-.58-1.14s-.44-.31-.58,0a3.58,3.58,0,0,1-.63,1.18,4.15,4.15,0,0,1-1,.63.28.28,0,0,0,0,.52,2,2,0,0,1,1.65,1.52c.14.35.37.35.5,0,.29-.74.49-1.12,1.7-1.6a.29.29,0,0,0,0-.53A3.39,3.39,0,0,1,145.19,41.56Z"/><path class="cls-15" d="M176.67,37.1c-.32-.3-.36-.68-.58-1.14s-.44-.31-.58,0a3.63,3.63,0,0,1-.63,1.19,4.43,4.43,0,0,1-1,.62.28.28,0,0,0,0,.52,2,2,0,0,1,1.65,1.53c.14.35.37.35.5,0,.29-.74.49-1.13,1.7-1.61a.29.29,0,0,0,0-.53A3.19,3.19,0,0,1,176.67,37.1Z"/><path class="cls-15" d="M157.33,36.6a2.63,2.63,0,0,1-.53-1c-.2-.46-.5-.46-.69,0a3.2,3.2,0,0,1-.57,1,4.49,4.49,0,0,1-1,.62.28.28,0,0,0,0,.52,2,2,0,0,1,1.61,1.41c.14.35.45.36.59,0,.27-.67.51-1,1.65-1.5a.29.29,0,0,0,0-.53A3.19,3.19,0,0,1,157.33,36.6Z"/><path class="cls-20" d="M90.1,110.29s2.62,16.16-4.32,30.82L76,140.66Z"/><path class="cls-3" d="M127.2,105.52c-3.57,7,.86,19.81-6,30.14-5,7.44-15.63,11.85-24.8,13.65C85.32,151.48,84,151.59,84,153c-.06,3.89-1,14.26-6.86,14.77C70.58,168.37,65,157.7,65.56,152c-.51,3.49-.61,8.75-3,11.62-1.6,1.93-3.68,4-6.07,2.33-4.32-3.07-2.75-11.23-2.75-11.23A38.42,38.42,0,0,1,46,151.55c-3.35-2.11-8.6-10.07-4.73-10.86,5.74.12,11.85.53,17.55.44,13.56-.23,17.59-4,31-5.23,9.87-.91,17.14-4,22.64-8.42,13.18-10.53,15.24-27.17,12.32-33.38,0,0,5,7.47,3.81,9.54"/><path class="cls-2" d="M50.07,153c-4.17-2.8,8.59-8.14,3.57-7.28-3.85.65-7.92,1.56-10.84-1.13A5.2,5.2,0,0,1,41.5,140l35.67-25.34c1.12,1.9,2.84,3.12,4.12,4.79,1.64,2.16-1.66,17.43-1.66,17.43l7.36-.67a106.6,106.6,0,0,0-3.92,10.59c-1.81,6.16-4.72,7.79-10.36,8.88a35.66,35.66,0,0,1-6.49.59c-.21,0-.81-1.88-.81-1.88s-.26,1.88-.48,1.88C59.32,156.2,53.27,155.17,50.07,153Z"/><path class="cls-21" d="M30.41,101.12c-2-8.79,5-14.88,15.13-18.81,8-3.09,21.13-2.07,26.46-.36,7.71,2.46,13.8,7.36,17.71,16,3,6.71.37,16.28-1,23.38-2,10.43-4.27,17-11,23.76-6.33,6.4-11.62,9.66-20.16,11-7,1.07-17-2.57-26.41-3.81S13,152.09,7.7,146.75c-11.93-12.07,15.79-31.29,22.1-40C30.74,105.48,31.61,104.12,30.41,101.12Z"/><path class="cls-22" d="M89.82,97.91c-3.9-8.6-10-13.49-17.71-16-5.33-1.7-18.49-2.73-26.46.36C38.8,85,33.4,88.6,31.22,93.39,33.66,89.09,38.11,86,44.66,84c10.25-3,20.56-1.93,25.89-.22,7.71,2.46,13.81,7.36,17.71,15.95,3,6.71,1.43,15.44.09,22.54-1.09,5.74-2.28,10.31-4.24,14.39,2.27-4.33,3.56-9.17,4.74-15.38C90.19,114.18,92.87,104.62,89.82,97.91Z"/><path class="cls-23" d="M77.81,142.56c-6.32,6.42-10.75,8-18.3,9.55-7.85,1.63-18.17-2.6-29.29-4-8.09-1-17.93.77-22.49-3.85a9.62,9.62,0,0,1-2.87-5.71,9.47,9.47,0,0,0,2.85,8.21c5.11,5.16,12.8,5,21.92,6.28,9.65,1.39,17.41,4,28,3,8.6-.81,13.46-4.33,20.2-10.66a34,34,0,0,0,7.93-12.19,51.17,51.17,0,0,0,3.11-12S85.74,134.5,77.81,142.56Z"/><path class="cls-24" d="M35.28,124.84c-1.05,2.16-2.9,3.43-4.12,2.84s-1.35-2.83-.3-5,2.9-3.43,4.12-2.83S36.34,122.68,35.28,124.84Zm18.84-3.15c-1.22-.6-3.07.67-4.12,2.83s-.92,4.4.3,5,3.07-.67,4.12-2.83S55.34,122.28,54.12,121.69Z"/><path class="cls-22" d="M35,119.82c-1.22-.6-3.07.67-4.12,2.83a7,7,0,0,0-.69,2.34c.07-.15.12-.3.2-.46,1.05-2.16,2.9-3.43,4.12-2.83.77.37,1.1,1.4,1,2.65C36.31,122.34,36.12,120.37,35,119.82Z"/><path class="cls-22" d="M49.52,126.37c1-2.16,2.9-3.43,4.12-2.83.77.37,1.1,1.4,1,2.65.83-2,.64-4-.49-4.53s-3.07.67-4.12,2.83a7,7,0,0,0-.69,2.34C49.39,126.68,49.44,126.52,49.52,126.37Z"/><path class="cls-23" d="M30.63,105.43s4.45-5.49,6.22-10.38c0,0-4-3.37-6.49.81A15.6,15.6,0,0,0,30.63,105.43Z"/><circle class="cls-25" cx="33.68" cy="80.68" r="5.84"/><circle cx="35.06" cy="80.31" r="3.49"/><circle cx="84.41" cy="78.16" r="3.16"/><path class="cls-5" d="M112.2,259.64c-5.33-2.86-9.33-5.64-12.83-9.53a96,96,0,0,1-7.46-9.17c-1.21-1.82-2.77-4.82-4.63-6.6-2.26-2.17-4.36-2-5.25.17-.37.9,0,7.36,4.42,10.47a17.61,17.61,0,0,0-4.9-3.63c-2.18-1-3.82-.43-4.52.3-2.39,2.48.56,7.51,2.26,8.62-.91-.84-2.75-2.18-4.47-1.52-.52.21-1.36,1-1,1.52,3.76,5.91,11.32,9.67,16.88,11.89a75.32,75.32,0,0,0,17.59,5c2.77.44,8,1.53,10.79-1.09C120.09,264.05,115.34,261.32,112.2,259.64Z"/><path class="cls-3" d="M134.07,93.38c-2.33,4.05,2.3,12.57,1.9,17.13-.8,9.21-3.29,14-7.67,20-2.37,3.22-6.45,7.91-16,13a45.51,45.51,0,0,1,3-10.94c1.19-2.7,3.25-5.07,4.46-7.8a71.34,71.34,0,0,0,5.68-21Z"/><circle class="cls-25" cx="82.29" cy="78.14" r="6.22"/><circle cx="83.78" cy="77.76" r="3.49"/></g></g></svg>