<svg width="1496" height="843" viewBox="0 0 1496 843" fill="none" xmlns="http://www.w3.org/2000/svg">
<rect width="1496" height="843" fill="white"/>
<rect x="37" y="64" width="407" height="721" rx="8" fill="#DBDEF7"/>
<rect x="569" y="300" width="343" height="266" rx="8" fill="#717CE1"/>
<path d="M620.723 447H635.963C639.863 447 643.043 448.32 645.623 450.9C648.203 453.48 649.523 456.66 649.523 460.5C649.523 464.28 648.203 467.52 645.623 470.1C643.043 472.68 639.863 474 635.963 474H626.303V489H620.723V447ZM626.303 468.78H635.963C638.303 468.78 640.223 468 641.723 466.44C643.223 464.82 644.003 462.84 644.003 460.5C644.003 455.7 640.583 452.22 635.963 452.22H626.303V468.78ZM676.273 474.9V459H681.493V489H676.273V484.68C674.173 488.1 670.933 489.78 666.553 489.78C659.533 489.78 654.913 485.04 654.913 477.42V459H660.133V477.12C660.133 481.98 662.953 484.8 667.573 484.8C672.793 484.8 676.273 481.62 676.273 474.9ZM694.66 489H689.44V445.2H694.66V489ZM723.324 474.9V459H728.544V489H723.324V484.68C721.224 488.1 717.984 489.78 713.604 489.78C706.584 489.78 701.964 485.04 701.964 477.42V459H707.184V477.12C707.184 481.98 710.004 484.8 714.624 484.8C719.844 484.8 723.324 481.62 723.324 474.9ZM768.891 458.22C775.611 458.22 780.171 462.9 780.171 470.34V489H774.951V470.52C774.951 465.9 772.371 463.2 768.351 463.2C763.851 463.2 760.971 466.14 760.971 472.32V489H755.751V470.52C755.751 465.9 753.291 463.2 749.391 463.2C745.011 463.2 741.711 466.26 741.711 472.32V489H736.491V459H741.711V463.02C743.751 459.84 746.751 458.22 750.651 458.22C754.671 458.22 757.611 459.9 759.471 463.32C761.571 459.9 764.691 458.22 768.891 458.22ZM790.049 453.54C788.069 453.54 786.509 451.98 786.509 450.06C786.509 448.14 788.069 446.52 790.049 446.52C791.969 446.52 793.529 448.14 793.529 450.06C793.529 451.98 791.969 453.54 790.049 453.54ZM792.629 489H787.409V459H792.629V489ZM849.733 489H843.793L840.373 479.58H821.473L818.053 489H812.113L827.773 447H834.073L849.733 489ZM830.893 453.66L823.393 474.36H838.453L830.893 453.66ZM854.688 489V447H860.268V489H854.688Z" fill="white"/>
<circle cx="740.698" cy="300.276" r="79.7755" fill="white" stroke="#717CE1" stroke-width="5"/>
<g clip-path="url(#clip0_2583_2)">
<path d="M708.498 334.713C712.324 332.497 712.33 325.321 708.512 318.686C704.694 312.051 698.498 308.469 694.672 310.685C690.846 312.902 690.84 320.077 694.658 326.712C698.476 333.347 704.672 336.929 708.498 334.713Z" fill="#F26E7E"/>
<path d="M786.747 326.722C790.566 320.087 790.559 312.912 786.733 310.695C782.908 308.479 776.711 312.061 772.893 318.696C769.075 325.331 769.081 332.506 772.907 334.722C776.733 336.939 782.93 333.357 786.747 326.722Z" fill="#8A3391"/>
<path d="M734.57 349.837C738.396 347.621 738.402 340.446 734.584 333.81C730.766 327.176 724.57 323.594 720.744 325.81C716.918 328.026 716.912 335.201 720.73 341.837C724.548 348.471 730.744 352.054 734.57 349.837Z" fill="#F26E7E"/>
<path d="M760.681 341.822C764.499 335.186 764.493 328.011 760.667 325.794C756.841 323.579 750.644 327.16 746.826 333.795C743.008 340.43 743.015 347.606 746.84 349.822C750.666 352.039 756.863 348.456 760.681 341.822Z" fill="#8A3391"/>
<path d="M740.686 262.753C748.322 262.753 754.512 259.159 754.512 254.727C754.512 250.294 748.322 246.701 740.686 246.701C733.05 246.701 726.859 250.294 726.859 254.727C726.859 259.159 733.05 262.753 740.686 262.753Z" fill="#F7BF2A"/>
<path d="M708.489 304.479C712.315 302.263 712.321 295.087 708.503 288.452C704.685 281.817 698.489 278.235 694.663 280.451C690.837 282.668 690.831 289.843 694.649 296.478C698.467 303.113 704.663 306.695 708.489 304.479Z" fill="#F26E7E"/>
<path d="M714.619 277.837C722.255 277.837 728.446 274.243 728.446 269.811C728.446 265.378 722.255 261.785 714.619 261.785C706.983 261.785 700.793 265.378 700.793 269.811C700.793 274.243 706.983 277.837 714.619 277.837Z" fill="#F7BF2A"/>
<path d="M786.733 296.495C790.55 289.86 790.544 282.685 786.719 280.468C782.892 278.252 776.696 281.834 772.878 288.469C769.06 295.104 769.066 302.28 772.892 304.496C776.718 306.712 782.914 303.13 786.733 296.495Z" fill="#8A3391"/>
<path d="M766.787 277.837C774.423 277.837 780.613 274.243 780.613 269.811C780.613 265.378 774.423 261.785 766.787 261.785C759.151 261.785 752.961 265.378 752.961 269.811C752.961 274.243 759.151 277.837 766.787 277.837Z" fill="#F7BF2A"/>
<path d="M734.562 319.603C738.387 317.387 738.394 310.211 734.576 303.577C730.758 296.942 724.561 293.36 720.735 295.576C716.91 297.792 716.903 304.968 720.721 311.603C724.539 318.238 730.736 321.82 734.562 319.603Z" fill="#F26E7E"/>
<path d="M760.666 311.594C764.483 304.959 764.477 297.784 760.651 295.568C756.826 293.351 750.629 296.933 746.811 303.568C742.993 310.203 742.999 317.378 746.825 319.595C750.651 321.811 756.848 318.23 760.666 311.594Z" fill="#8A3391"/>
<path d="M740.686 292.955C748.322 292.955 754.512 289.361 754.512 284.928C754.512 280.496 748.322 276.902 740.686 276.902C733.05 276.902 726.859 280.496 726.859 284.928C726.859 289.361 733.05 292.955 740.686 292.955Z" fill="#F7BF2A"/>
</g>
<path d="M1051.41 425.414C1052.2 424.633 1052.2 423.367 1051.41 422.586L1038.69 409.858C1037.91 409.077 1036.64 409.077 1035.86 409.858C1035.08 410.639 1035.08 411.905 1035.86 412.686L1047.17 424L1035.86 435.314C1035.08 436.095 1035.08 437.361 1035.86 438.142C1036.64 438.923 1037.91 438.923 1038.69 438.142L1051.41 425.414ZM912 426L1050 426L1050 422L912 422L912 426Z" fill="#6D6D6D"/>
<path d="M568.414 425.414C569.195 424.633 569.195 423.367 568.414 422.586L555.686 409.858C554.905 409.077 553.639 409.077 552.858 409.858C552.077 410.639 552.077 411.905 552.858 412.686L564.172 424L552.858 435.314C552.077 436.095 552.077 437.361 552.858 438.142C553.639 438.923 554.905 438.923 555.686 438.142L568.414 425.414ZM444 426L567 426L567 422L444 422L444 426Z" fill="#6D6D6D"/>
<path d="M1052 151H1459V777C1459 781.418 1455.42 785 1451 785H1060C1055.58 785 1052 781.418 1052 777V151Z" fill="#DBDEF7"/>
<path d="M1052 72C1052 67.5817 1055.58 64 1060 64H1451C1455.42 64 1459 67.5817 1459 72V215H1052V72Z" fill="#717CE1"/>
<path d="M1101.86 113.25C1101.86 108.705 1103.44 104.835 1106.59 101.685C1109.74 98.49 1113.61 96.915 1118.15 96.915C1122.7 96.915 1126.57 98.49 1129.72 101.685C1132.91 104.835 1134.49 108.705 1134.49 113.25C1134.49 117.795 1132.91 121.62 1129.72 124.815C1126.57 128.01 1122.7 129.585 1118.15 129.585C1113.61 129.585 1109.74 128.01 1106.59 124.815C1103.44 121.62 1101.86 117.795 1101.86 113.25ZM1130.3 113.25C1130.3 109.785 1129.13 106.86 1126.79 104.52C1124.5 102.135 1121.62 100.965 1118.15 100.965C1114.69 100.965 1111.81 102.135 1109.47 104.52C1107.17 106.86 1106 109.785 1106 113.25C1106 116.715 1107.17 119.595 1109.47 121.98C1111.81 124.32 1114.69 125.49 1118.15 125.49C1121.62 125.49 1124.5 124.32 1126.79 121.98C1129.13 119.595 1130.3 116.715 1130.3 113.25ZM1151.53 105.915C1154.68 105.915 1157.38 107.085 1159.59 109.38C1161.79 111.675 1162.92 114.465 1162.92 117.75C1162.92 121.035 1161.79 123.87 1159.59 126.165C1157.38 128.46 1154.68 129.585 1151.53 129.585C1147.8 129.585 1144.96 128.1 1143.03 125.13V138H1139.11V106.5H1143.03V110.37C1144.96 107.4 1147.8 105.915 1151.53 105.915ZM1151.04 125.805C1153.29 125.805 1155.18 125.04 1156.71 123.51C1158.24 121.935 1159 120.045 1159 117.75C1159 115.455 1158.24 113.565 1156.71 112.035C1155.18 110.46 1153.29 109.695 1151.04 109.695C1148.74 109.695 1146.85 110.46 1145.32 112.035C1143.79 113.565 1143.03 115.455 1143.03 117.75C1143.03 120.045 1143.79 121.935 1145.32 123.51C1146.85 125.04 1148.74 125.805 1151.04 125.805ZM1179.35 106.5V110.28H1173.36V122.475C1173.36 125.94 1175.34 125.67 1179.35 125.49V129C1172.51 129.9 1169.45 128.055 1169.45 122.475V110.28H1164.99V106.5H1169.45V101.37L1173.36 100.2V106.5H1179.35ZM1185.96 102.405C1184.48 102.405 1183.31 101.235 1183.31 99.795C1183.31 98.355 1184.48 97.14 1185.96 97.14C1187.4 97.14 1188.57 98.355 1188.57 99.795C1188.57 101.235 1187.4 102.405 1185.96 102.405ZM1187.9 129H1183.98V106.5H1187.9V129ZM1218.17 105.915C1223.21 105.915 1226.63 109.425 1226.63 115.005V129H1222.72V115.14C1222.72 111.675 1220.78 109.65 1217.77 109.65C1214.39 109.65 1212.23 111.855 1212.23 116.49V129H1208.32V115.14C1208.32 111.675 1206.47 109.65 1203.55 109.65C1200.26 109.65 1197.79 111.945 1197.79 116.49V129H1193.87V106.5H1197.79V109.515C1199.32 107.13 1201.57 105.915 1204.49 105.915C1207.51 105.915 1209.71 107.175 1211.11 109.74C1212.68 107.175 1215.02 105.915 1218.17 105.915ZM1234.04 102.405C1232.55 102.405 1231.38 101.235 1231.38 99.795C1231.38 98.355 1232.55 97.14 1234.04 97.14C1235.48 97.14 1236.65 98.355 1236.65 99.795C1236.65 101.235 1235.48 102.405 1234.04 102.405ZM1235.97 129H1232.06V106.5H1235.97V129ZM1258.01 109.11L1246.49 125.265H1258.46V129H1241.14V126.39L1252.61 110.235H1241.59V106.5H1258.01V109.11ZM1280.35 110.37V106.5H1284.27V129H1280.35V125.13C1278.42 128.1 1275.58 129.585 1271.85 129.585C1268.7 129.585 1266 128.46 1263.79 126.165C1261.59 123.87 1260.46 121.035 1260.46 117.75C1260.46 114.465 1261.59 111.675 1263.79 109.38C1266 107.085 1268.7 105.915 1271.85 105.915C1275.58 105.915 1278.42 107.4 1280.35 110.37ZM1272.34 125.805C1274.64 125.805 1276.53 125.04 1278.06 123.51C1279.59 121.935 1280.35 120.045 1280.35 117.75C1280.35 115.455 1279.59 113.565 1278.06 112.035C1276.53 110.46 1274.64 109.695 1272.34 109.695C1270.09 109.695 1268.2 110.46 1266.67 112.035C1265.14 113.565 1264.38 115.455 1264.38 117.75C1264.38 120.045 1265.14 121.935 1266.67 123.51C1268.2 125.04 1270.09 125.805 1272.34 125.805ZM1302.44 106.5V110.28H1296.45V122.475C1296.45 125.94 1298.43 125.67 1302.44 125.49V129C1295.6 129.9 1292.54 128.055 1292.54 122.475V110.28H1288.08V106.5H1292.54V101.37L1296.45 100.2V106.5H1302.44ZM1309.05 102.405C1307.57 102.405 1306.4 101.235 1306.4 99.795C1306.4 98.355 1307.57 97.14 1309.05 97.14C1310.49 97.14 1311.66 98.355 1311.66 99.795C1311.66 101.235 1310.49 102.405 1309.05 102.405ZM1310.99 129H1307.07V106.5H1310.99V129ZM1335.95 126.165C1333.66 128.46 1330.82 129.585 1327.54 129.585C1324.25 129.585 1321.42 128.46 1319.12 126.165C1316.83 123.87 1315.7 121.08 1315.7 117.75C1315.7 114.42 1316.83 111.63 1319.12 109.335C1321.42 107.04 1324.25 105.915 1327.54 105.915C1330.82 105.915 1333.66 107.04 1335.95 109.335C1338.25 111.63 1339.42 114.42 1339.42 117.75C1339.42 121.08 1338.25 123.87 1335.95 126.165ZM1327.54 125.76C1329.79 125.76 1331.68 124.995 1333.21 123.465C1334.74 121.935 1335.5 120.045 1335.5 117.75C1335.5 115.455 1334.74 113.565 1333.21 112.035C1331.68 110.505 1329.79 109.74 1327.54 109.74C1325.33 109.74 1323.44 110.505 1321.91 112.035C1320.38 113.565 1319.62 115.455 1319.62 117.75C1319.62 120.045 1320.38 121.935 1321.91 123.465C1323.44 124.995 1325.33 125.76 1327.54 125.76ZM1355.24 105.915C1360.5 105.915 1363.97 109.47 1363.97 115.185V129H1360.05V115.41C1360.05 111.765 1357.94 109.65 1354.47 109.65C1350.56 109.65 1347.95 112.035 1347.95 117.075V129H1344.03V106.5H1347.95V109.74C1349.52 107.175 1351.95 105.915 1355.24 105.915ZM1372.81 112.575C1372.81 114.33 1374.79 115.275 1377.26 115.95C1380.77 116.715 1385.45 118.02 1385.41 122.835C1385.41 124.86 1384.6 126.525 1383.02 127.74C1381.45 128.955 1379.47 129.585 1376.99 129.585C1372.63 129.585 1369.34 127.515 1368.04 124.32L1371.41 122.385C1372.13 124.545 1374.25 125.895 1376.99 125.895C1379.56 125.895 1381.45 124.95 1381.45 122.835C1381.45 121.08 1379.47 120.09 1376.99 119.505C1373.44 118.56 1368.85 117.39 1368.85 112.62C1368.85 110.685 1369.61 109.065 1371.1 107.805C1372.63 106.545 1374.52 105.915 1376.81 105.915C1380.46 105.915 1383.47 107.67 1384.91 110.595L1381.63 112.44C1380.82 110.505 1379.2 109.56 1376.81 109.56C1374.61 109.56 1372.81 110.64 1372.81 112.575ZM1409.12 93L1391.12 133.5H1388.78L1406.78 93H1409.12ZM1180.43 174V142.5H1184.62V174H1180.43ZM1202.18 150.915C1207.44 150.915 1210.91 154.47 1210.91 160.185V174H1206.99V160.41C1206.99 156.765 1204.88 154.65 1201.41 154.65C1197.5 154.65 1194.89 157.035 1194.89 162.075V174H1190.97V151.5H1194.89V154.74C1196.46 152.175 1198.89 150.915 1202.18 150.915ZM1219.75 157.575C1219.75 159.33 1221.73 160.275 1224.2 160.95C1227.71 161.715 1232.39 163.02 1232.35 167.835C1232.35 169.86 1231.54 171.525 1229.96 172.74C1228.39 173.955 1226.41 174.585 1223.93 174.585C1219.57 174.585 1216.28 172.515 1214.98 169.32L1218.35 167.385C1219.07 169.545 1221.19 170.895 1223.93 170.895C1226.5 170.895 1228.39 169.95 1228.39 167.835C1228.39 166.08 1226.41 165.09 1223.93 164.505C1220.38 163.56 1215.79 162.39 1215.79 157.62C1215.79 155.685 1216.55 154.065 1218.04 152.805C1219.57 151.545 1221.46 150.915 1223.75 150.915C1227.4 150.915 1230.41 152.67 1231.85 155.595L1228.57 157.44C1227.76 155.505 1226.14 154.56 1223.75 154.56C1221.55 154.56 1219.75 155.64 1219.75 157.575ZM1238.74 147.405C1237.26 147.405 1236.09 146.235 1236.09 144.795C1236.09 143.355 1237.26 142.14 1238.74 142.14C1240.18 142.14 1241.35 143.355 1241.35 144.795C1241.35 146.235 1240.18 147.405 1238.74 147.405ZM1240.68 174H1236.76V151.5H1240.68V174ZM1265.32 155.37V151.5H1269.19V173.055C1269.19 176.385 1268.07 178.95 1265.82 180.795C1263.57 182.64 1260.87 183.585 1257.72 183.585C1252.68 183.585 1248.9 181.65 1247.05 178.095L1250.47 176.16C1251.69 178.68 1254.16 179.94 1257.81 179.94C1262.49 179.94 1265.32 177.33 1265.32 173.055V169.86C1263.34 172.875 1260.51 174.36 1256.86 174.36C1253.67 174.36 1250.92 173.235 1248.72 170.94C1246.51 168.645 1245.39 165.9 1245.39 162.615C1245.39 159.33 1246.51 156.585 1248.72 154.335C1250.92 152.04 1253.67 150.915 1256.86 150.915C1260.55 150.915 1263.39 152.4 1265.32 155.37ZM1265.32 162.615C1265.32 160.365 1264.56 158.475 1263.03 156.945C1261.5 155.415 1259.61 154.65 1257.31 154.65C1255.02 154.65 1253.13 155.415 1251.6 156.945C1250.07 158.475 1249.3 160.365 1249.3 162.615C1249.3 164.91 1250.07 166.8 1251.6 168.33C1253.13 169.86 1255.02 170.625 1257.31 170.625C1259.61 170.625 1261.5 169.86 1263.03 168.33C1264.56 166.8 1265.32 164.91 1265.32 162.615ZM1286.33 150.915C1291.6 150.915 1295.06 154.47 1295.06 160.185V174H1291.15V160.41C1291.15 156.765 1289.03 154.65 1285.57 154.65C1281.65 154.65 1279.04 157.035 1279.04 162.075V174H1275.13V142.5H1279.04V154.74C1280.62 152.175 1283.05 150.915 1286.33 150.915ZM1312.77 151.5V155.28H1306.78V167.475C1306.78 170.94 1308.76 170.67 1312.77 170.49V174C1305.93 174.9 1302.87 173.055 1302.87 167.475V155.28H1298.41V151.5H1302.87V146.37L1306.78 145.2V151.5H1312.77ZM1319.68 157.575C1319.68 159.33 1321.66 160.275 1324.13 160.95C1327.64 161.715 1332.32 163.02 1332.28 167.835C1332.28 169.86 1331.47 171.525 1329.89 172.74C1328.32 173.955 1326.34 174.585 1323.86 174.585C1319.5 174.585 1316.21 172.515 1314.91 169.32L1318.28 167.385C1319 169.545 1321.12 170.895 1323.86 170.895C1326.43 170.895 1328.32 169.95 1328.32 167.835C1328.32 166.08 1326.34 165.09 1323.86 164.505C1320.31 163.56 1315.72 162.39 1315.72 157.62C1315.72 155.685 1316.48 154.065 1317.97 152.805C1319.5 151.545 1321.39 150.915 1323.68 150.915C1327.33 150.915 1330.34 152.67 1331.78 155.595L1328.5 157.44C1327.69 155.505 1326.07 154.56 1323.68 154.56C1321.48 154.56 1319.68 155.64 1319.68 157.575Z" fill="white"/>
<rect x="1068" y="232" width="375" height="167" rx="8" fill="#F8F8FF"/>
<path d="M1232.16 325.455C1228.45 325.455 1225.37 324.23 1222.96 321.78C1220.54 319.33 1219.35 316.32 1219.35 312.75C1219.35 309.18 1220.54 306.17 1222.96 303.72C1225.37 301.27 1228.45 300.045 1232.16 300.045C1236.64 300.045 1240.63 302.355 1242.73 305.995L1239.9 307.64C1238.5 304.945 1235.52 303.195 1232.16 303.195C1229.33 303.195 1227.02 304.105 1225.23 305.925C1223.45 307.745 1222.57 310.02 1222.57 312.75C1222.57 315.445 1223.45 317.72 1225.23 319.54C1227.02 321.36 1229.33 322.27 1232.16 322.27C1235.52 322.27 1238.5 320.52 1239.9 317.86L1242.73 319.47C1241.72 321.29 1240.25 322.76 1238.36 323.845C1236.47 324.93 1234.4 325.455 1232.16 325.455ZM1260.81 322.795C1259.02 324.58 1256.82 325.455 1254.26 325.455C1251.71 325.455 1249.5 324.58 1247.72 322.795C1245.93 321.01 1245.06 318.84 1245.06 316.25C1245.06 313.66 1245.93 311.49 1247.72 309.705C1249.5 307.92 1251.71 307.045 1254.26 307.045C1256.82 307.045 1259.02 307.92 1260.81 309.705C1262.59 311.49 1263.5 313.66 1263.5 316.25C1263.5 318.84 1262.59 321.01 1260.81 322.795ZM1254.26 322.48C1256.01 322.48 1257.48 321.885 1258.67 320.695C1259.86 319.505 1260.46 318.035 1260.46 316.25C1260.46 314.465 1259.86 312.995 1258.67 311.805C1257.48 310.615 1256.01 310.02 1254.26 310.02C1252.55 310.02 1251.08 310.615 1249.89 311.805C1248.7 312.995 1248.1 314.465 1248.1 316.25C1248.1 318.035 1248.7 319.505 1249.89 320.695C1251.08 321.885 1252.55 322.48 1254.26 322.48ZM1269.34 312.225C1269.34 313.59 1270.88 314.325 1272.8 314.85C1275.53 315.445 1279.17 316.46 1279.14 320.205C1279.14 321.78 1278.51 323.075 1277.28 324.02C1276.06 324.965 1274.52 325.455 1272.59 325.455C1269.2 325.455 1266.64 323.845 1265.63 321.36L1268.25 319.855C1268.81 321.535 1270.46 322.585 1272.59 322.585C1274.59 322.585 1276.06 321.85 1276.06 320.205C1276.06 318.84 1274.52 318.07 1272.59 317.615C1269.83 316.88 1266.26 315.97 1266.26 312.26C1266.26 310.755 1266.85 309.495 1268.01 308.515C1269.2 307.535 1270.67 307.045 1272.45 307.045C1275.29 307.045 1277.63 308.41 1278.75 310.685L1276.2 312.12C1275.57 310.615 1274.31 309.88 1272.45 309.88C1270.74 309.88 1269.34 310.72 1269.34 312.225ZM1291.58 307.5V310.44H1286.93V319.925C1286.93 322.62 1288.47 322.41 1291.58 322.27V325C1286.26 325.7 1283.88 324.265 1283.88 319.925V310.44H1280.42V307.5H1283.88V303.51L1286.93 302.6V307.5H1291.58Z" fill="black"/>
<rect x="1068" y="418" width="375" height="165" rx="8" fill="#F8F8FF"/>
<path d="M1200.73 510.455C1196.15 510.455 1192.75 508.18 1191.46 504.435L1194.26 502.825C1195.2 505.8 1197.41 507.27 1200.8 507.27C1204.16 507.27 1205.98 505.765 1205.98 503.49C1205.98 502.335 1205.53 501.46 1204.65 500.865C1203.78 500.27 1202.27 499.675 1200.21 499.01L1197.86 498.24C1197.34 498.03 1196.64 497.715 1195.83 497.33C1195.03 496.91 1194.43 496.49 1194.05 496.07C1193.24 495.195 1192.51 493.76 1192.51 491.975C1192.51 489.84 1193.24 488.16 1194.75 486.935C1196.25 485.675 1198.07 485.045 1200.21 485.045C1204.09 485.045 1207.07 487.18 1208.5 490.4L1205.77 491.975C1204.72 489.455 1202.87 488.195 1200.21 488.195C1197.55 488.195 1195.76 489.595 1195.76 491.835C1195.76 492.92 1196.15 493.725 1196.92 494.285C1197.69 494.845 1199.02 495.44 1200.91 496.035L1202.34 496.49C1202.62 496.595 1203.04 496.735 1203.64 496.98C1204.86 497.435 1205.14 497.61 1206.09 498.135C1207.07 498.66 1207.38 499.045 1207.98 499.745C1208.85 500.62 1209.2 501.88 1209.2 503.42C1209.2 505.555 1208.43 507.27 1206.86 508.565C1205.28 509.825 1203.25 510.455 1200.73 510.455ZM1229.95 502.65H1215.29C1215.88 505.765 1218.3 507.585 1221.62 507.585C1223.93 507.585 1225.61 506.745 1226.66 505.03L1229.25 506.5C1227.54 509.125 1224.98 510.455 1221.55 510.455C1218.79 510.455 1216.51 509.58 1214.76 507.865C1213.05 506.115 1212.17 503.91 1212.17 501.25C1212.17 498.625 1213.01 496.42 1214.73 494.67C1216.44 492.92 1218.65 492.045 1221.34 492.045C1223.9 492.045 1226 492.955 1227.61 494.775C1229.25 496.56 1230.06 498.73 1230.06 501.285C1230.06 501.74 1230.02 502.195 1229.95 502.65ZM1221.34 494.915C1218.09 494.915 1215.81 496.91 1215.29 499.99H1226.98C1226.45 496.665 1224.14 494.915 1221.34 494.915ZM1241.75 510.455C1239.13 510.455 1236.92 509.58 1235.17 507.83C1233.42 506.045 1232.55 503.875 1232.55 501.25C1232.55 498.625 1233.42 496.455 1235.17 494.705C1236.92 492.92 1239.13 492.045 1241.75 492.045C1245.22 492.045 1248.12 493.83 1249.49 496.63L1246.93 498.1C1246.06 496.245 1244.1 495.02 1241.75 495.02C1240 495.02 1238.53 495.615 1237.34 496.805C1236.19 497.995 1235.59 499.465 1235.59 501.25C1235.59 503 1236.19 504.47 1237.34 505.66C1238.53 506.85 1240 507.445 1241.75 507.445C1244.1 507.445 1246.06 506.255 1247.04 504.4L1249.63 505.905C1248.12 508.67 1245.15 510.455 1241.75 510.455ZM1264.74 501.775V492.5H1267.79V510H1264.74V507.48C1263.52 509.475 1261.63 510.455 1259.07 510.455C1254.98 510.455 1252.28 507.69 1252.28 503.245V492.5H1255.33V503.07C1255.33 505.905 1256.97 507.55 1259.67 507.55C1262.71 507.55 1264.74 505.695 1264.74 501.775ZM1275.47 492.5V495.44C1276.48 493.27 1278.3 492.185 1280.93 492.185V495.37C1279.42 495.3 1278.16 495.685 1277.08 496.56C1275.99 497.435 1275.47 498.8 1275.47 500.725V510H1272.42V492.5H1275.47ZM1285.45 489.315C1284.29 489.315 1283.38 488.405 1283.38 487.285C1283.38 486.165 1284.29 485.22 1285.45 485.22C1286.57 485.22 1287.48 486.165 1287.48 487.285C1287.48 488.405 1286.57 489.315 1285.45 489.315ZM1286.95 510H1283.91V492.5H1286.95V510ZM1301.12 492.5V495.44H1296.46V504.925C1296.46 507.62 1298 507.41 1301.12 507.27V510C1295.8 510.7 1293.42 509.265 1293.42 504.925V495.44H1289.95V492.5H1293.42V488.51L1296.46 487.6V492.5H1301.12ZM1312.27 506.22L1317.31 492.5H1320.57L1313.43 511.085C1311.92 515.04 1309.16 517.245 1305.66 517V514.165C1307.79 514.34 1309.37 513.15 1310.38 510.595L1310.7 509.93L1303.07 492.5H1306.32L1312.27 506.22Z" fill="black"/>
<rect x="1068" y="602" width="375" height="168" rx="8" fill="#F8F8FF"/>
<path d="M1172.06 695.455C1168.35 695.455 1165.27 694.23 1162.85 691.78C1160.44 689.33 1159.25 686.32 1159.25 682.75C1159.25 679.18 1160.44 676.17 1162.85 673.72C1165.27 671.27 1168.35 670.045 1172.06 670.045C1176.54 670.045 1180.53 672.355 1182.63 675.995L1179.79 677.64C1178.39 674.945 1175.42 673.195 1172.06 673.195C1169.22 673.195 1166.91 674.105 1165.13 675.925C1163.34 677.745 1162.47 680.02 1162.47 682.75C1162.47 685.445 1163.34 687.72 1165.13 689.54C1166.91 691.36 1169.22 692.27 1172.06 692.27C1175.42 692.27 1178.39 690.52 1179.79 687.86L1182.63 689.47C1181.61 691.29 1180.14 692.76 1178.25 693.845C1176.36 694.93 1174.3 695.455 1172.06 695.455ZM1200.7 692.795C1198.92 694.58 1196.71 695.455 1194.16 695.455C1191.6 695.455 1189.4 694.58 1187.61 692.795C1185.83 691.01 1184.95 688.84 1184.95 686.25C1184.95 683.66 1185.83 681.49 1187.61 679.705C1189.4 677.92 1191.6 677.045 1194.16 677.045C1196.71 677.045 1198.92 677.92 1200.7 679.705C1202.49 681.49 1203.4 683.66 1203.4 686.25C1203.4 688.84 1202.49 691.01 1200.7 692.795ZM1194.16 692.48C1195.91 692.48 1197.38 691.885 1198.57 690.695C1199.76 689.505 1200.35 688.035 1200.35 686.25C1200.35 684.465 1199.76 682.995 1198.57 681.805C1197.38 680.615 1195.91 680.02 1194.16 680.02C1192.44 680.02 1190.97 680.615 1189.78 681.805C1188.59 682.995 1188 684.465 1188 686.25C1188 688.035 1188.59 689.505 1189.78 690.695C1190.97 691.885 1192.44 692.48 1194.16 692.48ZM1225.88 677.045C1229.8 677.045 1232.46 679.775 1232.46 684.115V695H1229.42V684.22C1229.42 681.525 1227.91 679.95 1225.57 679.95C1222.94 679.95 1221.26 681.665 1221.26 685.27V695H1218.22V684.22C1218.22 681.525 1216.78 679.95 1214.51 679.95C1211.95 679.95 1210.03 681.735 1210.03 685.27V695H1206.98V677.5H1210.03V679.845C1211.22 677.99 1212.97 677.045 1215.24 677.045C1217.59 677.045 1219.3 678.025 1220.39 680.02C1221.61 678.025 1223.43 677.045 1225.88 677.045ZM1246.35 677.045C1248.8 677.045 1250.9 677.955 1252.61 679.74C1254.33 681.525 1255.2 683.695 1255.2 686.25C1255.2 688.805 1254.33 691.01 1252.61 692.795C1250.9 694.58 1248.8 695.455 1246.35 695.455C1243.44 695.455 1241.24 694.3 1239.73 691.99V702H1236.69V677.5H1239.73V680.51C1241.24 678.2 1243.44 677.045 1246.35 677.045ZM1245.96 692.515C1247.71 692.515 1249.18 691.92 1250.37 690.73C1251.56 689.505 1252.16 688.035 1252.16 686.25C1252.16 684.465 1251.56 682.995 1250.37 681.805C1249.18 680.58 1247.71 679.985 1245.96 679.985C1244.18 679.985 1242.71 680.58 1241.52 681.805C1240.33 682.995 1239.73 684.465 1239.73 686.25C1239.73 688.035 1240.33 689.505 1241.52 690.73C1242.71 691.92 1244.18 692.515 1245.96 692.515ZM1261.88 695H1258.84V669.45H1261.88V695ZM1268.07 674.315C1266.91 674.315 1266 673.405 1266 672.285C1266 671.165 1266.91 670.22 1268.07 670.22C1269.19 670.22 1270.1 671.165 1270.1 672.285C1270.1 673.405 1269.19 674.315 1268.07 674.315ZM1269.57 695H1266.53V677.5H1269.57V695ZM1288.71 680.51V677.5H1291.75V695H1288.71V691.99C1287.2 694.3 1285 695.455 1282.09 695.455C1279.64 695.455 1277.54 694.58 1275.83 692.795C1274.11 691.01 1273.24 688.805 1273.24 686.25C1273.24 683.695 1274.11 681.525 1275.83 679.74C1277.54 677.955 1279.64 677.045 1282.09 677.045C1285 677.045 1287.2 678.2 1288.71 680.51ZM1282.48 692.515C1284.26 692.515 1285.73 691.92 1286.92 690.73C1288.11 689.505 1288.71 688.035 1288.71 686.25C1288.71 684.465 1288.11 682.995 1286.92 681.805C1285.73 680.58 1284.26 679.985 1282.48 679.985C1280.73 679.985 1279.26 680.58 1278.07 681.805C1276.88 682.995 1276.28 684.465 1276.28 686.25C1276.28 688.035 1276.88 689.505 1278.07 690.73C1279.26 691.92 1280.73 692.515 1282.48 692.515ZM1305.08 677.045C1309.17 677.045 1311.87 679.81 1311.87 684.255V695H1308.82V684.43C1308.82 681.595 1307.18 679.95 1304.48 679.95C1301.44 679.95 1299.41 681.805 1299.41 685.725V695H1296.36V677.5H1299.41V680.02C1300.63 678.025 1302.52 677.045 1305.08 677.045ZM1324.35 695.455C1321.72 695.455 1319.52 694.58 1317.77 692.83C1316.02 691.045 1315.14 688.875 1315.14 686.25C1315.14 683.625 1316.02 681.455 1317.77 679.705C1319.52 677.92 1321.72 677.045 1324.35 677.045C1327.81 677.045 1330.72 678.83 1332.08 681.63L1329.53 683.1C1328.65 681.245 1326.69 680.02 1324.35 680.02C1322.6 680.02 1321.13 680.615 1319.94 681.805C1318.78 682.995 1318.19 684.465 1318.19 686.25C1318.19 688 1318.78 689.47 1319.94 690.66C1321.13 691.85 1322.6 692.445 1324.35 692.445C1326.69 692.445 1328.65 691.255 1329.63 689.4L1332.22 690.905C1330.72 693.67 1327.74 695.455 1324.35 695.455ZM1351.79 687.65H1337.12C1337.72 690.765 1340.13 692.585 1343.46 692.585C1345.77 692.585 1347.45 691.745 1348.5 690.03L1351.09 691.5C1349.37 694.125 1346.82 695.455 1343.39 695.455C1340.62 695.455 1338.35 694.58 1336.6 692.865C1334.88 691.115 1334.01 688.91 1334.01 686.25C1334.01 683.625 1334.85 681.42 1336.56 679.67C1338.28 677.92 1340.48 677.045 1343.18 677.045C1345.73 677.045 1347.83 677.955 1349.44 679.775C1351.09 681.56 1351.89 683.73 1351.89 686.285C1351.89 686.74 1351.86 687.195 1351.79 687.65ZM1343.18 679.915C1339.92 679.915 1337.65 681.91 1337.12 684.99H1348.81C1348.29 681.665 1345.98 679.915 1343.18 679.915Z" fill="black"/>
<path d="M244.5 360.5L254 443" stroke="#9D9D9D" stroke-width="3"/>
<path d="M197 278L144.5 229" stroke="#9D9D9D" stroke-width="3"/>
<path d="M241.5 255.5V175.5" stroke="#9D9D9D" stroke-width="3"/>
<path d="M288 270L347 211" stroke="#9D9D9D" stroke-width="3"/>
<path d="M134.5 475.5L201.5 493.5" stroke="#9D9D9D" stroke-width="3"/>
<path d="M134 597L219 534" stroke="#9D9D9D" stroke-width="3"/>
<path d="M337 721L232 668" stroke="#9D9D9D" stroke-width="3"/>
<path d="M361 681L387 562" stroke="#9D9D9D" stroke-width="3"/>
<path d="M377 581L257 505" stroke="#9D9D9D" stroke-width="3"/>
<circle cx="240" cy="298" r="79" transform="rotate(-180 240 298)" fill="#F8F8FF"/>
<path d="M208.386 290.4V301.416H213.822V303H206.712V290.4H208.386ZM222.44 295.548V294H224.006V303H222.44V301.452C221.666 302.64 220.532 303.234 219.038 303.234C217.778 303.234 216.698 302.784 215.816 301.866C214.934 300.948 214.484 299.814 214.484 298.5C214.484 297.186 214.934 296.07 215.816 295.152C216.698 294.234 217.778 293.766 219.038 293.766C220.532 293.766 221.666 294.36 222.44 295.548ZM219.236 301.722C220.154 301.722 220.91 301.416 221.522 300.804C222.134 300.174 222.44 299.418 222.44 298.5C222.44 297.582 222.134 296.826 221.522 296.214C220.91 295.584 220.154 295.278 219.236 295.278C218.336 295.278 217.58 295.584 216.968 296.214C216.356 296.826 216.05 297.582 216.05 298.5C216.05 299.418 216.356 300.174 216.968 300.804C217.58 301.416 218.336 301.722 219.236 301.722ZM236.098 293.766C238.114 293.766 239.482 295.17 239.482 297.402V303H237.916V297.456C237.916 296.07 237.142 295.26 235.936 295.26C234.586 295.26 233.722 296.142 233.722 297.996V303H232.156V297.456C232.156 296.07 231.418 295.26 230.248 295.26C228.934 295.26 227.944 296.178 227.944 297.996V303H226.378V294H227.944V295.206C228.556 294.252 229.456 293.766 230.626 293.766C231.832 293.766 232.714 294.27 233.272 295.296C233.902 294.27 234.838 293.766 236.098 293.766ZM246.622 293.766C247.882 293.766 248.962 294.234 249.844 295.152C250.726 296.07 251.176 297.186 251.176 298.5C251.176 299.814 250.726 300.948 249.844 301.866C248.962 302.784 247.882 303.234 246.622 303.234C245.128 303.234 243.994 302.64 243.22 301.452V303H241.654V290.4H243.22V295.548C243.994 294.36 245.128 293.766 246.622 293.766ZM246.424 301.722C247.324 301.722 248.08 301.416 248.692 300.804C249.304 300.174 249.61 299.418 249.61 298.5C249.61 297.582 249.304 296.826 248.692 296.214C248.08 295.584 247.324 295.278 246.424 295.278C245.506 295.278 244.75 295.584 244.138 296.214C243.526 296.826 243.22 297.582 243.22 298.5C243.22 299.418 243.526 300.174 244.138 300.804C244.75 301.416 245.506 301.722 246.424 301.722ZM260.496 295.548V290.4H262.062V303H260.496V301.452C259.722 302.64 258.588 303.234 257.094 303.234C255.834 303.234 254.754 302.784 253.872 301.866C252.99 300.948 252.54 299.814 252.54 298.5C252.54 297.186 252.99 296.07 253.872 295.152C254.754 294.234 255.834 293.766 257.094 293.766C258.588 293.766 259.722 294.36 260.496 295.548ZM257.292 301.722C258.21 301.722 258.966 301.416 259.578 300.804C260.19 300.174 260.496 299.418 260.496 298.5C260.496 297.582 260.19 296.826 259.578 296.214C258.966 295.584 258.21 295.278 257.292 295.278C256.392 295.278 255.636 295.584 255.024 296.214C254.412 296.826 254.106 297.582 254.106 298.5C254.106 299.418 254.412 300.174 255.024 300.804C255.636 301.416 256.392 301.722 257.292 301.722ZM271.887 295.548V294H273.453V303H271.887V301.452C271.113 302.64 269.979 303.234 268.485 303.234C267.225 303.234 266.145 302.784 265.263 301.866C264.381 300.948 263.931 299.814 263.931 298.5C263.931 297.186 264.381 296.07 265.263 295.152C266.145 294.234 267.225 293.766 268.485 293.766C269.979 293.766 271.113 294.36 271.887 295.548ZM268.683 301.722C269.601 301.722 270.357 301.416 270.969 300.804C271.581 300.174 271.887 299.418 271.887 298.5C271.887 297.582 271.581 296.826 270.969 296.214C270.357 295.584 269.601 295.278 268.683 295.278C267.783 295.278 267.027 295.584 266.415 296.214C265.803 296.826 265.497 297.582 265.497 298.5C265.497 299.418 265.803 300.174 266.415 300.804C267.027 301.416 267.783 301.722 268.683 301.722Z" fill="black"/>
<ellipse cx="354.5" cy="203.5" rx="52.5" ry="52.5" transform="rotate(-180 354.5 203.5)" fill="#F8F8FF"/>
<path d="M332.291 192.42V196.416H338.141V198H330.617V185.4H338.051V186.984H332.291V190.854H337.601V192.42H332.291ZM343.474 196.326L346.3 189H347.992L344.392 198H342.556L338.956 189H340.648L343.474 196.326ZM357.604 194.22H350.062C350.368 195.822 351.61 196.758 353.32 196.758C354.508 196.758 355.372 196.326 355.912 195.444L357.244 196.2C356.362 197.55 355.048 198.234 353.284 198.234C351.862 198.234 350.692 197.784 349.792 196.902C348.91 196.002 348.46 194.868 348.46 193.5C348.46 192.15 348.892 191.016 349.774 190.116C350.656 189.216 351.79 188.766 353.176 188.766C354.49 188.766 355.57 189.234 356.398 190.17C357.244 191.088 357.658 192.204 357.658 193.518C357.658 193.752 357.64 193.986 357.604 194.22ZM353.176 190.242C351.502 190.242 350.332 191.268 350.062 192.852H356.074C355.804 191.142 354.616 190.242 353.176 190.242ZM363.941 188.766C366.047 188.766 367.433 190.188 367.433 192.474V198H365.867V192.564C365.867 191.106 365.021 190.26 363.635 190.26C362.069 190.26 361.025 191.214 361.025 193.23V198H359.459V189H361.025V190.296C361.655 189.27 362.627 188.766 363.941 188.766ZM374.515 189V190.512H372.121V195.39C372.121 196.776 372.913 196.668 374.515 196.596V198C371.779 198.36 370.555 197.622 370.555 195.39V190.512H368.773V189H370.555V186.948L372.121 186.48V189H374.515ZM335.945 213.466C337.097 214.024 337.835 215.086 337.835 216.436C337.835 217.444 337.475 218.29 336.773 218.974C336.071 219.658 335.207 220 334.181 220H328.745V207.4H333.785C334.775 207.4 335.603 207.724 336.287 208.39C336.971 209.056 337.313 209.866 337.313 210.838C337.313 211.954 336.863 212.836 335.945 213.466ZM333.785 208.966H330.419V212.818H333.785C334.847 212.818 335.657 211.972 335.657 210.892C335.657 210.37 335.477 209.92 335.099 209.542C334.739 209.164 334.307 208.966 333.785 208.966ZM330.419 218.434H334.181C335.315 218.434 336.179 217.534 336.179 216.382C336.179 215.824 335.981 215.338 335.585 214.942C335.207 214.546 334.739 214.348 334.181 214.348H330.419V218.434ZM341.223 211V212.512C341.745 211.396 342.681 210.838 344.031 210.838V212.476C343.257 212.44 342.609 212.638 342.051 213.088C341.493 213.538 341.223 214.24 341.223 215.23V220H339.657V211H341.223ZM346.355 209.362C345.761 209.362 345.293 208.894 345.293 208.318C345.293 207.742 345.761 207.256 346.355 207.256C346.931 207.256 347.399 207.742 347.399 208.318C347.399 208.894 346.931 209.362 346.355 209.362ZM347.129 220H345.563V211H347.129V220ZM356.97 212.548V207.4H358.536V220H356.97V218.452C356.196 219.64 355.062 220.234 353.568 220.234C352.308 220.234 351.228 219.784 350.346 218.866C349.464 217.948 349.014 216.814 349.014 215.5C349.014 214.186 349.464 213.07 350.346 212.152C351.228 211.234 352.308 210.766 353.568 210.766C355.062 210.766 356.196 211.36 356.97 212.548ZM353.766 218.722C354.684 218.722 355.44 218.416 356.052 217.804C356.664 217.174 356.97 216.418 356.97 215.5C356.97 214.582 356.664 213.826 356.052 213.214C355.44 212.584 354.684 212.278 353.766 212.278C352.866 212.278 352.11 212.584 351.498 213.214C350.886 213.826 350.58 214.582 350.58 215.5C350.58 216.418 350.886 217.174 351.498 217.804C352.11 218.416 352.866 218.722 353.766 218.722ZM368.379 212.548V211H369.927V219.622C369.927 220.954 369.477 221.98 368.577 222.718C367.677 223.456 366.597 223.834 365.337 223.834C363.321 223.834 361.809 223.06 361.071 221.638L362.439 220.864C362.925 221.872 363.915 222.376 365.373 222.376C367.245 222.376 368.379 221.332 368.379 219.622V218.344C367.587 219.55 366.453 220.144 364.995 220.144C363.717 220.144 362.619 219.694 361.737 218.776C360.855 217.858 360.405 216.76 360.405 215.446C360.405 214.132 360.855 213.034 361.737 212.134C362.619 211.216 363.717 210.766 364.995 210.766C366.471 210.766 367.605 211.36 368.379 212.548ZM368.379 215.446C368.379 214.546 368.073 213.79 367.461 213.178C366.849 212.566 366.093 212.26 365.175 212.26C364.257 212.26 363.501 212.566 362.889 213.178C362.277 213.79 361.971 214.546 361.971 215.446C361.971 216.364 362.277 217.12 362.889 217.732C363.501 218.344 364.257 218.65 365.175 218.65C366.093 218.65 366.849 218.344 367.461 217.732C368.073 217.12 368.379 216.364 368.379 215.446ZM380.939 216.22H373.397C373.703 217.822 374.945 218.758 376.655 218.758C377.843 218.758 378.707 218.326 379.247 217.444L380.579 218.2C379.697 219.55 378.383 220.234 376.619 220.234C375.197 220.234 374.027 219.784 373.127 218.902C372.245 218.002 371.795 216.868 371.795 215.5C371.795 214.15 372.227 213.016 373.109 212.116C373.991 211.216 375.125 210.766 376.511 210.766C377.825 210.766 378.905 211.234 379.733 212.17C380.579 213.088 380.993 214.204 380.993 215.518C380.993 215.752 380.975 215.986 380.939 216.22ZM376.511 212.242C374.837 212.242 373.667 213.268 373.397 214.852H379.409C379.139 213.142 377.951 212.242 376.511 212.242Z" fill="black"/>
<ellipse cx="243" cy="140" rx="58" ry="58" transform="rotate(-180 243 140)" fill="#F8F8FF"/>
<path d="M200.817 145H199.035L198.009 142.174H192.339L191.313 145H189.531L194.229 132.4H196.119L200.817 145ZM195.165 134.398L192.915 140.608H197.433L195.165 134.398ZM202.303 132.4H206.875C208.045 132.4 208.999 132.796 209.773 133.57C210.547 134.344 210.943 135.298 210.943 136.45C210.943 137.584 210.547 138.556 209.773 139.33C208.999 140.104 208.045 140.5 206.875 140.5H203.977V145H202.303V132.4ZM203.977 138.934H206.875C207.577 138.934 208.153 138.7 208.603 138.232C209.053 137.746 209.287 137.152 209.287 136.45C209.287 135.01 208.261 133.966 206.875 133.966H203.977V138.934ZM212.92 145V132.4H214.594V145H212.92ZM227.647 138.754H233.947V139.51C233.947 141.148 233.389 142.516 232.255 143.614C231.121 144.694 229.627 145.234 227.773 145.234C225.847 145.234 224.263 144.604 223.003 143.344C221.761 142.066 221.131 140.518 221.131 138.7C221.131 136.882 221.761 135.334 223.003 134.074C224.263 132.796 225.847 132.166 227.737 132.166C228.907 132.166 229.969 132.454 230.941 133.012C231.913 133.57 232.669 134.29 233.191 135.208L231.751 136.054C231.031 134.686 229.465 133.786 227.719 133.786C226.279 133.786 225.091 134.254 224.173 135.208C223.255 136.144 222.787 137.314 222.787 138.7C222.787 140.086 223.255 141.256 224.173 142.192C225.109 143.128 226.315 143.596 227.791 143.596C230.311 143.596 231.931 142.228 232.273 140.266H227.647V138.754ZM243.273 137.548V136H244.839V145H243.273V143.452C242.499 144.64 241.365 145.234 239.871 145.234C238.611 145.234 237.531 144.784 236.649 143.866C235.767 142.948 235.317 141.814 235.317 140.5C235.317 139.186 235.767 138.07 236.649 137.152C237.531 136.234 238.611 135.766 239.871 135.766C241.365 135.766 242.499 136.36 243.273 137.548ZM240.069 143.722C240.987 143.722 241.743 143.416 242.355 142.804C242.967 142.174 243.273 141.418 243.273 140.5C243.273 139.582 242.967 138.826 242.355 138.214C241.743 137.584 240.987 137.278 240.069 137.278C239.169 137.278 238.413 137.584 237.801 138.214C237.189 138.826 236.883 139.582 236.883 140.5C236.883 141.418 237.189 142.174 237.801 142.804C238.413 143.416 239.169 143.722 240.069 143.722ZM252.107 136V137.512H249.713V142.39C249.713 143.776 250.505 143.668 252.107 143.596V145C249.371 145.36 248.147 144.622 248.147 142.39V137.512H246.365V136H248.147V133.948L249.713 133.48V136H252.107ZM262.144 141.22H254.602C254.908 142.822 256.15 143.758 257.86 143.758C259.048 143.758 259.912 143.326 260.452 142.444L261.784 143.2C260.902 144.55 259.588 145.234 257.824 145.234C256.402 145.234 255.232 144.784 254.332 143.902C253.45 143.002 253 141.868 253 140.5C253 139.15 253.432 138.016 254.314 137.116C255.196 136.216 256.33 135.766 257.716 135.766C259.03 135.766 260.11 136.234 260.938 137.17C261.784 138.088 262.198 139.204 262.198 140.518C262.198 140.752 262.18 140.986 262.144 141.22ZM257.716 137.242C256.042 137.242 254.872 138.268 254.602 139.852H260.614C260.344 138.142 259.156 137.242 257.716 137.242ZM272.269 142.858L274.249 136H275.887L273.097 145H271.495L269.389 138.34L267.283 145H265.681L262.891 136H264.529L266.509 142.84L268.633 136H270.145L272.269 142.858ZM284.599 137.548V136H286.165V145H284.599V143.452C283.825 144.64 282.691 145.234 281.197 145.234C279.937 145.234 278.857 144.784 277.975 143.866C277.093 142.948 276.643 141.814 276.643 140.5C276.643 139.186 277.093 138.07 277.975 137.152C278.857 136.234 279.937 135.766 281.197 135.766C282.691 135.766 283.825 136.36 284.599 137.548ZM281.395 143.722C282.313 143.722 283.069 143.416 283.681 142.804C284.293 142.174 284.599 141.418 284.599 140.5C284.599 139.582 284.293 138.826 283.681 138.214C283.069 137.584 282.313 137.278 281.395 137.278C280.495 137.278 279.739 137.584 279.127 138.214C278.515 138.826 278.209 139.582 278.209 140.5C278.209 141.418 278.515 142.174 279.127 142.804C279.739 143.416 280.495 143.722 281.395 143.722ZM292.228 143.056L294.82 136H296.494L292.822 145.558C292.048 147.592 290.626 148.726 288.826 148.6V147.142C289.924 147.232 290.734 146.62 291.256 145.306L291.418 144.964L287.494 136H289.168L292.228 143.056Z" fill="black"/>
<ellipse cx="121.5" cy="203.5" rx="54.5" ry="54.5" transform="rotate(-180 121.5 203.5)" fill="#F8F8FF"/>
<path d="M76.0307 195.4H80.9447C82.6547 195.4 84.0767 196.012 85.2107 197.236C86.3447 198.442 86.9207 199.936 86.9207 201.7C86.9207 203.464 86.3447 204.958 85.2107 206.182C84.0767 207.388 82.6547 208 80.9447 208H76.0307V195.4ZM77.7047 206.416H80.9447C82.2227 206.416 83.2847 205.966 84.0947 205.066C84.9047 204.166 85.3187 203.05 85.3187 201.7C85.3187 200.35 84.9047 199.234 84.0947 198.334C83.2847 197.434 82.2227 196.984 80.9447 196.984H77.7047V206.416ZM92.2852 206.056L94.8772 199H96.5512L92.8792 208.558C92.1052 210.592 90.6832 211.726 88.8832 211.6V210.142C89.9812 210.232 90.7912 209.62 91.3132 208.306L91.4752 207.964L87.5512 199H89.2252L92.2852 206.056ZM102.341 198.766C104.447 198.766 105.833 200.188 105.833 202.474V208H104.267V202.564C104.267 201.106 103.421 200.26 102.035 200.26C100.469 200.26 99.4249 201.214 99.4249 203.23V208H97.8589V199H99.4249V200.296C100.055 199.27 101.027 198.766 102.341 198.766ZM115.471 200.548V199H117.037V208H115.471V206.452C114.697 207.64 113.563 208.234 112.069 208.234C110.809 208.234 109.729 207.784 108.847 206.866C107.965 205.948 107.515 204.814 107.515 203.5C107.515 202.186 107.965 201.07 108.847 200.152C109.729 199.234 110.809 198.766 112.069 198.766C113.563 198.766 114.697 199.36 115.471 200.548ZM112.267 206.722C113.185 206.722 113.941 206.416 114.553 205.804C115.165 205.174 115.471 204.418 115.471 203.5C115.471 202.582 115.165 201.826 114.553 201.214C113.941 200.584 113.185 200.278 112.267 200.278C111.367 200.278 110.611 200.584 109.999 201.214C109.387 201.826 109.081 202.582 109.081 203.5C109.081 204.418 109.387 205.174 109.999 205.804C110.611 206.416 111.367 206.722 112.267 206.722ZM129.13 198.766C131.146 198.766 132.514 200.17 132.514 202.402V208H130.948V202.456C130.948 201.07 130.174 200.26 128.968 200.26C127.618 200.26 126.754 201.142 126.754 202.996V208H125.188V202.456C125.188 201.07 124.45 200.26 123.28 200.26C121.966 200.26 120.976 201.178 120.976 202.996V208H119.41V199H120.976V200.206C121.588 199.252 122.488 198.766 123.658 198.766C124.864 198.766 125.746 199.27 126.304 200.296C126.934 199.27 127.87 198.766 129.13 198.766ZM142.281 206.866C141.363 207.784 140.229 208.234 138.915 208.234C137.601 208.234 136.467 207.784 135.549 206.866C134.631 205.948 134.181 204.832 134.181 203.5C134.181 202.168 134.631 201.052 135.549 200.134C136.467 199.216 137.601 198.766 138.915 198.766C140.229 198.766 141.363 199.216 142.281 200.134C143.199 201.052 143.667 202.168 143.667 203.5C143.667 204.832 143.199 205.948 142.281 206.866ZM138.915 206.704C139.815 206.704 140.571 206.398 141.183 205.786C141.795 205.174 142.101 204.418 142.101 203.5C142.101 202.582 141.795 201.826 141.183 201.214C140.571 200.602 139.815 200.296 138.915 200.296C138.033 200.296 137.277 200.602 136.665 201.214C136.053 201.826 135.747 202.582 135.747 203.5C135.747 204.418 136.053 205.174 136.665 205.786C137.277 206.398 138.033 206.704 138.915 206.704ZM145.675 195.4H150.589C152.299 195.4 153.721 196.012 154.855 197.236C155.989 198.442 156.565 199.936 156.565 201.7C156.565 203.464 155.989 204.958 154.855 206.182C153.721 207.388 152.299 208 150.589 208H145.675V195.4ZM147.349 206.416H150.589C151.867 206.416 152.929 205.966 153.739 205.066C154.549 204.166 154.963 203.05 154.963 201.7C154.963 200.35 154.549 199.234 153.739 198.334C152.929 197.434 151.867 196.984 150.589 196.984H147.349V206.416ZM165.795 201.466C166.947 202.024 167.685 203.086 167.685 204.436C167.685 205.444 167.325 206.29 166.623 206.974C165.921 207.658 165.057 208 164.031 208H158.595V195.4H163.635C164.625 195.4 165.453 195.724 166.137 196.39C166.821 197.056 167.163 197.866 167.163 198.838C167.163 199.954 166.713 200.836 165.795 201.466ZM163.635 196.966H160.269V200.818H163.635C164.697 200.818 165.507 199.972 165.507 198.892C165.507 198.37 165.327 197.92 164.949 197.542C164.589 197.164 164.157 196.966 163.635 196.966ZM160.269 206.434H164.031C165.165 206.434 166.029 205.534 166.029 204.382C166.029 203.824 165.831 203.338 165.435 202.942C165.057 202.546 164.589 202.348 164.031 202.348H160.269V206.434Z" fill="black"/>
<ellipse cx="257" cy="500" rx="81" ry="81" transform="rotate(-180 257 500)" fill="#F8F8FF"/>
<path d="M231.978 505.26C229.858 505.26 228.098 504.56 226.718 503.16C225.338 501.76 224.658 500.04 224.658 498C224.658 495.96 225.338 494.24 226.718 492.84C228.098 491.44 229.858 490.74 231.978 490.74C234.538 490.74 236.818 492.06 238.018 494.14L236.398 495.08C235.598 493.54 233.898 492.54 231.978 492.54C230.358 492.54 229.038 493.06 228.018 494.1C226.998 495.14 226.498 496.44 226.498 498C226.498 499.54 226.998 500.84 228.018 501.88C229.038 502.92 230.358 503.44 231.978 503.44C233.898 503.44 235.598 502.44 236.398 500.92L238.018 501.84C237.438 502.88 236.598 503.72 235.518 504.34C234.438 504.96 233.258 505.26 231.978 505.26ZM241.743 505H240.003V490.4H241.743V505ZM251.298 500.3V495H253.038V505H251.298V503.56C250.598 504.7 249.518 505.26 248.058 505.26C245.718 505.26 244.178 503.68 244.178 501.14V495H245.918V501.04C245.918 502.66 246.858 503.6 248.398 503.6C250.138 503.6 251.298 502.54 251.298 500.3ZM257.167 497.7C257.167 498.48 258.047 498.9 259.147 499.2C260.707 499.54 262.787 500.12 262.767 502.26C262.767 503.16 262.407 503.9 261.707 504.44C261.007 504.98 260.127 505.26 259.027 505.26C257.087 505.26 255.627 504.34 255.047 502.92L256.547 502.06C256.867 503.02 257.807 503.62 259.027 503.62C260.167 503.62 261.007 503.2 261.007 502.26C261.007 501.48 260.127 501.04 259.027 500.78C257.447 500.36 255.407 499.84 255.407 497.72C255.407 496.86 255.747 496.14 256.407 495.58C257.087 495.02 257.927 494.74 258.947 494.74C260.567 494.74 261.907 495.52 262.547 496.82L261.087 497.64C260.727 496.78 260.007 496.36 258.947 496.36C257.967 496.36 257.167 496.84 257.167 497.7ZM269.877 495V496.68H267.217V502.1C267.217 503.64 268.097 503.52 269.877 503.44V505C266.837 505.4 265.477 504.58 265.477 502.1V496.68H263.497V495H265.477V492.72L267.217 492.2V495H269.877ZM281.029 500.8H272.649C272.989 502.58 274.369 503.62 276.269 503.62C277.589 503.62 278.549 503.14 279.149 502.16L280.629 503C279.649 504.5 278.189 505.26 276.229 505.26C274.649 505.26 273.349 504.76 272.349 503.78C271.369 502.78 270.869 501.52 270.869 500C270.869 498.5 271.349 497.24 272.329 496.24C273.309 495.24 274.569 494.74 276.109 494.74C277.569 494.74 278.769 495.26 279.689 496.3C280.629 497.32 281.089 498.56 281.089 500.02C281.089 500.28 281.069 500.54 281.029 500.8ZM276.109 496.38C274.249 496.38 272.949 497.52 272.649 499.28H279.329C279.029 497.38 277.709 496.38 276.109 496.38ZM284.829 495V496.68C285.409 495.44 286.449 494.82 287.949 494.82V496.64C287.089 496.6 286.369 496.82 285.749 497.32C285.129 497.82 284.829 498.6 284.829 499.7V505H283.089V495H284.829Z" fill="black"/>
<ellipse cx="382" cy="590" rx="46" ry="46" transform="rotate(-180 382 590)" fill="#F8F8FF"/>
<path d="M357.635 595.234C355.277 595.234 353.531 594.064 352.865 592.138L354.305 591.31C354.791 592.84 355.925 593.596 357.671 593.596C359.399 593.596 360.335 592.822 360.335 591.652C360.335 591.058 360.101 590.608 359.651 590.302C359.201 589.996 358.427 589.69 357.365 589.348L356.159 588.952C355.889 588.844 355.529 588.682 355.115 588.484C354.701 588.268 354.395 588.052 354.197 587.836C353.783 587.386 353.405 586.648 353.405 585.73C353.405 584.632 353.783 583.768 354.557 583.138C355.331 582.49 356.267 582.166 357.365 582.166C359.363 582.166 360.893 583.264 361.631 584.92L360.227 585.73C359.687 584.434 358.733 583.786 357.365 583.786C355.997 583.786 355.079 584.506 355.079 585.658C355.079 586.216 355.277 586.63 355.673 586.918C356.069 587.206 356.753 587.512 357.725 587.818L358.463 588.052C358.607 588.106 358.823 588.178 359.129 588.304C359.759 588.538 359.903 588.628 360.389 588.898C360.893 589.168 361.055 589.366 361.361 589.726C361.811 590.176 361.991 590.824 361.991 591.616C361.991 592.714 361.595 593.596 360.785 594.262C359.975 594.91 358.931 595.234 357.635 595.234ZM372.662 591.22H365.12C365.426 592.822 366.668 593.758 368.378 593.758C369.566 593.758 370.43 593.326 370.97 592.444L372.302 593.2C371.42 594.55 370.106 595.234 368.342 595.234C366.92 595.234 365.75 594.784 364.85 593.902C363.968 593.002 363.518 591.868 363.518 590.5C363.518 589.15 363.95 588.016 364.832 587.116C365.714 586.216 366.848 585.766 368.234 585.766C369.548 585.766 370.628 586.234 371.456 587.17C372.302 588.088 372.716 589.204 372.716 590.518C372.716 590.752 372.698 590.986 372.662 591.22ZM368.234 587.242C366.56 587.242 365.39 588.268 365.12 589.852H371.132C370.862 588.142 369.674 587.242 368.234 587.242ZM376.082 586V587.512C376.604 586.396 377.54 585.838 378.89 585.838V587.476C378.116 587.44 377.468 587.638 376.91 588.088C376.352 588.538 376.082 589.24 376.082 590.23V595H374.516V586H376.082ZM383.896 593.326L386.722 586H388.414L384.814 595H382.978L379.378 586H381.07L383.896 593.326ZM390.531 584.362C389.937 584.362 389.469 583.894 389.469 583.318C389.469 582.742 389.937 582.256 390.531 582.256C391.107 582.256 391.575 582.742 391.575 583.318C391.575 583.894 391.107 584.362 390.531 584.362ZM391.305 595H389.739V586H391.305V595ZM397.924 595.234C396.574 595.234 395.44 594.784 394.54 593.884C393.64 592.966 393.19 591.85 393.19 590.5C393.19 589.15 393.64 588.034 394.54 587.134C395.44 586.216 396.574 585.766 397.924 585.766C399.706 585.766 401.2 586.684 401.902 588.124L400.588 588.88C400.138 587.926 399.13 587.296 397.924 587.296C397.024 587.296 396.268 587.602 395.656 588.214C395.062 588.826 394.756 589.582 394.756 590.5C394.756 591.4 395.062 592.156 395.656 592.768C396.268 593.38 397.024 593.686 397.924 593.686C399.13 593.686 400.138 593.074 400.642 592.12L401.974 592.894C401.2 594.316 399.67 595.234 397.924 595.234ZM412.037 591.22H404.495C404.801 592.822 406.043 593.758 407.753 593.758C408.941 593.758 409.805 593.326 410.345 592.444L411.677 593.2C410.795 594.55 409.481 595.234 407.717 595.234C406.295 595.234 405.125 594.784 404.225 593.902C403.343 593.002 402.893 591.868 402.893 590.5C402.893 589.15 403.325 588.016 404.207 587.116C405.089 586.216 406.223 585.766 407.609 585.766C408.923 585.766 410.003 586.234 410.831 587.17C411.677 588.088 412.091 589.204 412.091 590.518C412.091 590.752 412.073 590.986 412.037 591.22ZM407.609 587.242C405.935 587.242 404.765 588.268 404.495 589.852H410.507C410.237 588.142 409.049 587.242 407.609 587.242Z" fill="black"/>
<ellipse cx="120.156" cy="610.156" rx="63.156" ry="63.156" transform="rotate(-180 120.156 610.156)" fill="#F8F8FF"/>
<path d="M83.6575 593H81.8755L80.8495 590.174H75.1795L74.1535 593H72.3715L77.0695 580.4H78.9595L83.6575 593ZM78.0055 582.398L75.7555 588.608H80.2735L78.0055 582.398ZM89.9499 583.766C91.2099 583.766 92.2899 584.234 93.1719 585.152C94.0539 586.07 94.5039 587.186 94.5039 588.5C94.5039 589.814 94.0539 590.948 93.1719 591.866C92.2899 592.784 91.2099 593.234 89.9499 593.234C88.4559 593.234 87.3219 592.64 86.5479 591.452V596.6H84.9819V584H86.5479V585.548C87.3219 584.36 88.4559 583.766 89.9499 583.766ZM89.7519 591.722C90.6519 591.722 91.4079 591.416 92.0199 590.804C92.6319 590.174 92.9379 589.418 92.9379 588.5C92.9379 587.582 92.6319 586.826 92.0199 586.214C91.4079 585.584 90.6519 585.278 89.7519 585.278C88.8339 585.278 88.0779 585.584 87.4659 586.214C86.8539 586.826 86.5479 587.582 86.5479 588.5C86.5479 589.418 86.8539 590.174 87.4659 590.804C88.0779 591.416 88.8339 591.722 89.7519 591.722ZM101.341 583.766C102.601 583.766 103.681 584.234 104.563 585.152C105.445 586.07 105.895 587.186 105.895 588.5C105.895 589.814 105.445 590.948 104.563 591.866C103.681 592.784 102.601 593.234 101.341 593.234C99.8466 593.234 98.7126 592.64 97.9386 591.452V596.6H96.3726V584H97.9386V585.548C98.7126 584.36 99.8466 583.766 101.341 583.766ZM101.143 591.722C102.043 591.722 102.799 591.416 103.411 590.804C104.023 590.174 104.329 589.418 104.329 588.5C104.329 587.582 104.023 586.826 103.411 586.214C102.799 585.584 102.043 585.278 101.143 585.278C100.225 585.278 99.4686 585.584 98.8566 586.214C98.2446 586.826 97.9386 587.582 97.9386 588.5C97.9386 589.418 98.2446 590.174 98.8566 590.804C99.4686 591.416 100.225 591.722 101.143 591.722ZM109.329 593H107.763V579.86H109.329V593ZM112.51 582.362C111.916 582.362 111.448 581.894 111.448 581.318C111.448 580.742 111.916 580.256 112.51 580.256C113.086 580.256 113.554 580.742 113.554 581.318C113.554 581.894 113.086 582.362 112.51 582.362ZM113.284 593H111.718V584H113.284V593ZM119.903 593.234C118.553 593.234 117.419 592.784 116.519 591.884C115.619 590.966 115.169 589.85 115.169 588.5C115.169 587.15 115.619 586.034 116.519 585.134C117.419 584.216 118.553 583.766 119.903 583.766C121.685 583.766 123.179 584.684 123.881 586.124L122.567 586.88C122.117 585.926 121.109 585.296 119.903 585.296C119.003 585.296 118.247 585.602 117.635 586.214C117.041 586.826 116.735 587.582 116.735 588.5C116.735 589.4 117.041 590.156 117.635 590.768C118.247 591.38 119.003 591.686 119.903 591.686C121.109 591.686 122.117 591.074 122.621 590.12L123.953 590.894C123.179 592.316 121.649 593.234 119.903 593.234ZM132.828 585.548V584H134.394V593H132.828V591.452C132.054 592.64 130.92 593.234 129.426 593.234C128.166 593.234 127.086 592.784 126.204 591.866C125.322 590.948 124.872 589.814 124.872 588.5C124.872 587.186 125.322 586.07 126.204 585.152C127.086 584.234 128.166 583.766 129.426 583.766C130.92 583.766 132.054 584.36 132.828 585.548ZM129.624 591.722C130.542 591.722 131.298 591.416 131.91 590.804C132.522 590.174 132.828 589.418 132.828 588.5C132.828 587.582 132.522 586.826 131.91 586.214C131.298 585.584 130.542 585.278 129.624 585.278C128.724 585.278 127.968 585.584 127.356 586.214C126.744 586.826 126.438 587.582 126.438 588.5C126.438 589.418 126.744 590.174 127.356 590.804C127.968 591.416 128.724 591.722 129.624 591.722ZM141.663 584V585.512H139.269V590.39C139.269 591.776 140.061 591.668 141.663 591.596V593C138.927 593.36 137.703 592.622 137.703 590.39V585.512H135.921V584H137.703V581.948L139.269 581.48V584H141.663ZM144.309 582.362C143.715 582.362 143.247 581.894 143.247 581.318C143.247 580.742 143.715 580.256 144.309 580.256C144.885 580.256 145.353 580.742 145.353 581.318C145.353 581.894 144.885 582.362 144.309 582.362ZM145.083 593H143.517V584H145.083V593ZM155.068 591.866C154.15 592.784 153.016 593.234 151.702 593.234C150.388 593.234 149.254 592.784 148.336 591.866C147.418 590.948 146.968 589.832 146.968 588.5C146.968 587.168 147.418 586.052 148.336 585.134C149.254 584.216 150.388 583.766 151.702 583.766C153.016 583.766 154.15 584.216 155.068 585.134C155.986 586.052 156.454 587.168 156.454 588.5C156.454 589.832 155.986 590.948 155.068 591.866ZM151.702 591.704C152.602 591.704 153.358 591.398 153.97 590.786C154.582 590.174 154.888 589.418 154.888 588.5C154.888 587.582 154.582 586.826 153.97 586.214C153.358 585.602 152.602 585.296 151.702 585.296C150.82 585.296 150.064 585.602 149.452 586.214C148.84 586.826 148.534 587.582 148.534 588.5C148.534 589.418 148.84 590.174 149.452 590.786C150.064 591.398 150.82 591.704 151.702 591.704ZM162.782 583.766C164.888 583.766 166.274 585.188 166.274 587.474V593H164.708V587.564C164.708 586.106 163.862 585.26 162.476 585.26C160.91 585.26 159.866 586.214 159.866 588.23V593H158.3V584H159.866V585.296C160.496 584.27 161.468 583.766 162.782 583.766ZM101.751 602.4V613.416H107.187V615H100.077V602.4H101.751ZM115.948 613.866C115.03 614.784 113.896 615.234 112.582 615.234C111.268 615.234 110.134 614.784 109.216 613.866C108.298 612.948 107.848 611.832 107.848 610.5C107.848 609.168 108.298 608.052 109.216 607.134C110.134 606.216 111.268 605.766 112.582 605.766C113.896 605.766 115.03 606.216 115.948 607.134C116.866 608.052 117.334 609.168 117.334 610.5C117.334 611.832 116.866 612.948 115.948 613.866ZM112.582 613.704C113.482 613.704 114.238 613.398 114.85 612.786C115.462 612.174 115.768 611.418 115.768 610.5C115.768 609.582 115.462 608.826 114.85 608.214C114.238 607.602 113.482 607.296 112.582 607.296C111.7 607.296 110.944 607.602 110.332 608.214C109.72 608.826 109.414 609.582 109.414 610.5C109.414 611.418 109.72 612.174 110.332 612.786C110.944 613.398 111.7 613.704 112.582 613.704ZM126.632 607.548V606H128.198V615H126.632V613.452C125.858 614.64 124.724 615.234 123.23 615.234C121.97 615.234 120.89 614.784 120.008 613.866C119.126 612.948 118.676 611.814 118.676 610.5C118.676 609.186 119.126 608.07 120.008 607.152C120.89 606.234 121.97 605.766 123.23 605.766C124.724 605.766 125.858 606.36 126.632 607.548ZM123.428 613.722C124.346 613.722 125.102 613.416 125.714 612.804C126.326 612.174 126.632 611.418 126.632 610.5C126.632 609.582 126.326 608.826 125.714 608.214C125.102 607.584 124.346 607.278 123.428 607.278C122.528 607.278 121.772 607.584 121.16 608.214C120.548 608.826 120.242 609.582 120.242 610.5C120.242 611.418 120.548 612.174 121.16 612.804C121.772 613.416 122.528 613.722 123.428 613.722ZM138.023 607.548V602.4H139.589V615H138.023V613.452C137.249 614.64 136.115 615.234 134.621 615.234C133.361 615.234 132.281 614.784 131.399 613.866C130.517 612.948 130.067 611.814 130.067 610.5C130.067 609.186 130.517 608.07 131.399 607.152C132.281 606.234 133.361 605.766 134.621 605.766C136.115 605.766 137.249 606.36 138.023 607.548ZM134.819 613.722C135.737 613.722 136.493 613.416 137.105 612.804C137.717 612.174 138.023 611.418 138.023 610.5C138.023 609.582 137.717 608.826 137.105 608.214C136.493 607.584 135.737 607.278 134.819 607.278C133.919 607.278 133.163 607.584 132.551 608.214C131.939 608.826 131.633 609.582 131.633 610.5C131.633 611.418 131.939 612.174 132.551 612.804C133.163 613.416 133.919 613.722 134.819 613.722ZM93.4865 630.466C94.6385 631.024 95.3765 632.086 95.3765 633.436C95.3765 634.444 95.0165 635.29 94.3145 635.974C93.6125 636.658 92.7485 637 91.7225 637H86.2865V624.4H91.3265C92.3165 624.4 93.1445 624.724 93.8285 625.39C94.5125 626.056 94.8545 626.866 94.8545 627.838C94.8545 628.954 94.4045 629.836 93.4865 630.466ZM91.3265 625.966H87.9605V629.818H91.3265C92.3885 629.818 93.1985 628.972 93.1985 627.892C93.1985 627.37 93.0185 626.92 92.6405 626.542C92.2805 626.164 91.8485 625.966 91.3265 625.966ZM87.9605 635.434H91.7225C92.8565 635.434 93.7205 634.534 93.7205 633.382C93.7205 632.824 93.5225 632.338 93.1265 631.942C92.7485 631.546 92.2805 631.348 91.7225 631.348H87.9605V635.434ZM104.703 629.548V628H106.269V637H104.703V635.452C103.929 636.64 102.795 637.234 101.301 637.234C100.041 637.234 98.9615 636.784 98.0795 635.866C97.1975 634.948 96.7475 633.814 96.7475 632.5C96.7475 631.186 97.1975 630.07 98.0795 629.152C98.9615 628.234 100.041 627.766 101.301 627.766C102.795 627.766 103.929 628.36 104.703 629.548ZM101.499 635.722C102.417 635.722 103.173 635.416 103.785 634.804C104.397 634.174 104.703 633.418 104.703 632.5C104.703 631.582 104.397 630.826 103.785 630.214C103.173 629.584 102.417 629.278 101.499 629.278C100.599 629.278 99.8435 629.584 99.2315 630.214C98.6195 630.826 98.3135 631.582 98.3135 632.5C98.3135 633.418 98.6195 634.174 99.2315 634.804C99.8435 635.416 100.599 635.722 101.499 635.722ZM110.208 637H108.642V623.86H110.208V637ZM120.049 629.548V628H121.615V637H120.049V635.452C119.275 636.64 118.141 637.234 116.647 637.234C115.387 637.234 114.307 636.784 113.425 635.866C112.543 634.948 112.093 633.814 112.093 632.5C112.093 631.186 112.543 630.07 113.425 629.152C114.307 628.234 115.387 627.766 116.647 627.766C118.141 627.766 119.275 628.36 120.049 629.548ZM116.845 635.722C117.763 635.722 118.519 635.416 119.131 634.804C119.743 634.174 120.049 633.418 120.049 632.5C120.049 631.582 119.743 630.826 119.131 630.214C118.519 629.584 117.763 629.278 116.845 629.278C115.945 629.278 115.189 629.584 114.577 630.214C113.965 630.826 113.659 631.582 113.659 632.5C113.659 633.418 113.965 634.174 114.577 634.804C115.189 635.416 115.945 635.722 116.845 635.722ZM128.47 627.766C130.576 627.766 131.962 629.188 131.962 631.474V637H130.396V631.564C130.396 630.106 129.55 629.26 128.164 629.26C126.598 629.26 125.554 630.214 125.554 632.23V637H123.988V628H125.554V629.296C126.184 628.27 127.156 627.766 128.47 627.766ZM138.378 637.234C137.028 637.234 135.894 636.784 134.994 635.884C134.094 634.966 133.644 633.85 133.644 632.5C133.644 631.15 134.094 630.034 134.994 629.134C135.894 628.216 137.028 627.766 138.378 627.766C140.16 627.766 141.654 628.684 142.356 630.124L141.042 630.88C140.592 629.926 139.584 629.296 138.378 629.296C137.478 629.296 136.722 629.602 136.11 630.214C135.516 630.826 135.21 631.582 135.21 632.5C135.21 633.4 135.516 634.156 136.11 634.768C136.722 635.38 137.478 635.686 138.378 635.686C139.584 635.686 140.592 635.074 141.096 634.12L142.428 634.894C141.654 636.316 140.124 637.234 138.378 637.234ZM152.491 633.22H144.949C145.255 634.822 146.497 635.758 148.207 635.758C149.395 635.758 150.259 635.326 150.799 634.444L152.131 635.2C151.249 636.55 149.935 637.234 148.171 637.234C146.749 637.234 145.579 636.784 144.679 635.902C143.797 635.002 143.347 633.868 143.347 632.5C143.347 631.15 143.779 630.016 144.661 629.116C145.543 628.216 146.677 627.766 148.063 627.766C149.377 627.766 150.457 628.234 151.285 629.17C152.131 630.088 152.545 631.204 152.545 632.518C152.545 632.752 152.527 632.986 152.491 633.22ZM148.063 629.242C146.389 629.242 145.219 630.268 144.949 631.852H150.961C150.691 630.142 149.503 629.242 148.063 629.242ZM155.911 628V629.512C156.433 628.396 157.369 627.838 158.719 627.838V629.476C157.945 629.44 157.297 629.638 156.739 630.088C156.181 630.538 155.911 631.24 155.911 632.23V637H154.345V628H155.911Z" fill="black"/>
<ellipse cx="232.5" cy="667.5" rx="40.5" ry="40.5" transform="rotate(-180 232.5 667.5)" fill="#F8F8FF"/>
<path d="M222.837 672H220.983L218.157 667.176H215.187V672H213.513V659.4H218.553C219.633 659.4 220.551 659.778 221.325 660.552C222.099 661.308 222.477 662.226 222.477 663.306C222.477 664.116 222.225 664.872 221.739 665.538C221.253 666.204 220.641 666.69 219.867 666.96L222.837 672ZM218.553 660.966H215.187V665.664H218.553C219.183 665.664 219.705 665.43 220.137 664.98C220.587 664.512 220.803 663.954 220.803 663.306C220.803 662.658 220.587 662.1 220.137 661.65C219.705 661.2 219.183 660.966 218.553 660.966ZM232.538 668.22H224.996C225.302 669.822 226.544 670.758 228.254 670.758C229.442 670.758 230.306 670.326 230.846 669.444L232.178 670.2C231.296 671.55 229.982 672.234 228.218 672.234C226.796 672.234 225.626 671.784 224.726 670.902C223.844 670.002 223.394 668.868 223.394 667.5C223.394 666.15 223.826 665.016 224.708 664.116C225.59 663.216 226.724 662.766 228.11 662.766C229.424 662.766 230.504 663.234 231.332 664.17C232.178 665.088 232.592 666.204 232.592 667.518C232.592 667.752 232.574 667.986 232.538 668.22ZM228.11 664.242C226.436 664.242 225.266 665.268 224.996 666.852H231.008C230.738 665.142 229.55 664.242 228.11 664.242ZM239.36 662.766C240.62 662.766 241.7 663.234 242.582 664.152C243.464 665.07 243.914 666.186 243.914 667.5C243.914 668.814 243.464 669.948 242.582 670.866C241.7 671.784 240.62 672.234 239.36 672.234C237.866 672.234 236.732 671.64 235.958 670.452V675.6H234.392V663H235.958V664.548C236.732 663.36 237.866 662.766 239.36 662.766ZM239.162 670.722C240.062 670.722 240.818 670.416 241.43 669.804C242.042 669.174 242.348 668.418 242.348 667.5C242.348 666.582 242.042 665.826 241.43 665.214C240.818 664.584 240.062 664.278 239.162 664.278C238.244 664.278 237.488 664.584 236.876 665.214C236.264 665.826 235.958 666.582 235.958 667.5C235.958 668.418 236.264 669.174 236.876 669.804C237.488 670.416 238.244 670.722 239.162 670.722ZM253.378 670.866C252.46 671.784 251.326 672.234 250.012 672.234C248.698 672.234 247.564 671.784 246.646 670.866C245.728 669.948 245.278 668.832 245.278 667.5C245.278 666.168 245.728 665.052 246.646 664.134C247.564 663.216 248.698 662.766 250.012 662.766C251.326 662.766 252.46 663.216 253.378 664.134C254.296 665.052 254.764 666.168 254.764 667.5C254.764 668.832 254.296 669.948 253.378 670.866ZM250.012 670.704C250.912 670.704 251.668 670.398 252.28 669.786C252.892 669.174 253.198 668.418 253.198 667.5C253.198 666.582 252.892 665.826 252.28 665.214C251.668 664.602 250.912 664.296 250.012 664.296C249.13 664.296 248.374 664.602 247.762 665.214C247.15 665.826 246.844 666.582 246.844 667.5C246.844 668.418 247.15 669.174 247.762 669.786C248.374 670.398 249.13 670.704 250.012 670.704Z" fill="black"/>
<ellipse cx="337.5" cy="720.5" rx="42.5" ry="42.5" transform="rotate(-180 337.5 720.5)" fill="#F8F8FF"/>
<path d="M311.386 723V710.4H313.06V723H311.386ZM325.321 713.766C327.337 713.766 328.705 715.17 328.705 717.402V723H327.139V717.456C327.139 716.07 326.365 715.26 325.159 715.26C323.809 715.26 322.945 716.142 322.945 717.996V723H321.379V717.456C321.379 716.07 320.641 715.26 319.471 715.26C318.157 715.26 317.167 716.178 317.167 717.996V723H315.601V714H317.167V715.206C317.779 714.252 318.679 713.766 319.849 713.766C321.055 713.766 321.937 714.27 322.495 715.296C323.125 714.27 324.061 713.766 325.321 713.766ZM338.328 715.548V714H339.894V723H338.328V721.452C337.554 722.64 336.42 723.234 334.926 723.234C333.666 723.234 332.586 722.784 331.704 721.866C330.822 720.948 330.372 719.814 330.372 718.5C330.372 717.186 330.822 716.07 331.704 715.152C332.586 714.234 333.666 713.766 334.926 713.766C336.42 713.766 337.554 714.36 338.328 715.548ZM335.124 721.722C336.042 721.722 336.798 721.416 337.41 720.804C338.022 720.174 338.328 719.418 338.328 718.5C338.328 717.582 338.022 716.826 337.41 716.214C336.798 715.584 336.042 715.278 335.124 715.278C334.224 715.278 333.468 715.584 332.856 716.214C332.244 716.826 331.938 717.582 331.938 718.5C331.938 719.418 332.244 720.174 332.856 720.804C333.468 721.416 334.224 721.722 335.124 721.722ZM349.737 715.548V714H351.285V722.622C351.285 723.954 350.835 724.98 349.935 725.718C349.035 726.456 347.955 726.834 346.695 726.834C344.679 726.834 343.167 726.06 342.429 724.638L343.797 723.864C344.283 724.872 345.273 725.376 346.731 725.376C348.603 725.376 349.737 724.332 349.737 722.622V721.344C348.945 722.55 347.811 723.144 346.353 723.144C345.075 723.144 343.977 722.694 343.095 721.776C342.213 720.858 341.763 719.76 341.763 718.446C341.763 717.132 342.213 716.034 343.095 715.134C343.977 714.216 345.075 713.766 346.353 713.766C347.829 713.766 348.963 714.36 349.737 715.548ZM349.737 718.446C349.737 717.546 349.431 716.79 348.819 716.178C348.207 715.566 347.451 715.26 346.533 715.26C345.615 715.26 344.859 715.566 344.247 716.178C343.635 716.79 343.329 717.546 343.329 718.446C343.329 719.364 343.635 720.12 344.247 720.732C344.859 721.344 345.615 721.65 346.533 721.65C347.451 721.65 348.207 721.344 348.819 720.732C349.431 720.12 349.737 719.364 349.737 718.446ZM362.298 719.22H354.756C355.062 720.822 356.304 721.758 358.014 721.758C359.202 721.758 360.066 721.326 360.606 720.444L361.938 721.2C361.056 722.55 359.742 723.234 357.978 723.234C356.556 723.234 355.386 722.784 354.486 721.902C353.604 721.002 353.154 719.868 353.154 718.5C353.154 717.15 353.586 716.016 354.468 715.116C355.35 714.216 356.484 713.766 357.87 713.766C359.184 713.766 360.264 714.234 361.092 715.17C361.938 716.088 362.352 717.204 362.352 718.518C362.352 718.752 362.334 718.986 362.298 719.22ZM357.87 715.242C356.196 715.242 355.026 716.268 354.756 717.852H360.768C360.498 716.142 359.31 715.242 357.87 715.242Z" fill="black"/>
<ellipse cx="117.747" cy="462.747" rx="45.7474" ry="45.7474" transform="rotate(-180 117.747 462.747)" fill="#F8F8FF"/>
<path d="M91.0424 457.234C88.6844 457.234 86.9384 456.064 86.2724 454.138L87.7124 453.31C88.1984 454.84 89.3324 455.596 91.0784 455.596C92.8064 455.596 93.7424 454.822 93.7424 453.652C93.7424 453.058 93.5084 452.608 93.0584 452.302C92.6084 451.996 91.8344 451.69 90.7724 451.348L89.5664 450.952C89.2964 450.844 88.9364 450.682 88.5224 450.484C88.1084 450.268 87.8024 450.052 87.6044 449.836C87.1904 449.386 86.8124 448.648 86.8124 447.73C86.8124 446.632 87.1904 445.768 87.9644 445.138C88.7384 444.49 89.6744 444.166 90.7724 444.166C92.7704 444.166 94.3004 445.264 95.0384 446.92L93.6344 447.73C93.0944 446.434 92.1404 445.786 90.7724 445.786C89.4044 445.786 88.4864 446.506 88.4864 447.658C88.4864 448.216 88.6844 448.63 89.0804 448.918C89.4764 449.206 90.1604 449.512 91.1324 449.818L91.8704 450.052C92.0144 450.106 92.2304 450.178 92.5364 450.304C93.1664 450.538 93.3104 450.628 93.7964 450.898C94.3004 451.168 94.4624 451.366 94.7684 451.726C95.2184 452.176 95.3984 452.824 95.3984 453.616C95.3984 454.714 95.0024 455.596 94.1924 456.262C93.3824 456.91 92.3384 457.234 91.0424 457.234ZM106.07 453.22H98.5276C98.8336 454.822 100.076 455.758 101.786 455.758C102.974 455.758 103.838 455.326 104.378 454.444L105.71 455.2C104.828 456.55 103.514 457.234 101.75 457.234C100.328 457.234 99.1576 456.784 98.2576 455.902C97.3756 455.002 96.9256 453.868 96.9256 452.5C96.9256 451.15 97.3576 450.016 98.2396 449.116C99.1216 448.216 100.256 447.766 101.642 447.766C102.956 447.766 104.036 448.234 104.864 449.17C105.71 450.088 106.124 451.204 106.124 452.518C106.124 452.752 106.106 452.986 106.07 453.22ZM101.642 449.242C99.9676 449.242 98.7976 450.268 98.5276 451.852H104.54C104.27 450.142 103.082 449.242 101.642 449.242ZM112.136 457.234C110.786 457.234 109.652 456.784 108.752 455.884C107.852 454.966 107.402 453.85 107.402 452.5C107.402 451.15 107.852 450.034 108.752 449.134C109.652 448.216 110.786 447.766 112.136 447.766C113.918 447.766 115.412 448.684 116.114 450.124L114.8 450.88C114.35 449.926 113.342 449.296 112.136 449.296C111.236 449.296 110.48 449.602 109.868 450.214C109.274 450.826 108.968 451.582 108.968 452.5C108.968 453.4 109.274 454.156 109.868 454.768C110.48 455.38 111.236 455.686 112.136 455.686C113.342 455.686 114.35 455.074 114.854 454.12L116.186 454.894C115.412 456.316 113.882 457.234 112.136 457.234ZM123.96 452.77V448H125.526V457H123.96V455.704C123.33 456.73 122.358 457.234 121.044 457.234C118.938 457.234 117.552 455.812 117.552 453.526V448H119.118V453.436C119.118 454.894 119.964 455.74 121.35 455.74C122.916 455.74 123.96 454.786 123.96 452.77ZM129.476 448V449.512C129.998 448.396 130.934 447.838 132.284 447.838V449.476C131.51 449.44 130.862 449.638 130.304 450.088C129.746 450.538 129.476 451.24 129.476 452.23V457H127.91V448H129.476ZM134.608 446.362C134.014 446.362 133.546 445.894 133.546 445.318C133.546 444.742 134.014 444.256 134.608 444.256C135.184 444.256 135.652 444.742 135.652 445.318C135.652 445.894 135.184 446.362 134.608 446.362ZM135.382 457H133.816V448H135.382V457ZM142.667 448V449.512H140.273V454.39C140.273 455.776 141.065 455.668 142.667 455.596V457C139.931 457.36 138.707 456.622 138.707 454.39V449.512H136.925V448H138.707V445.948L140.273 445.48V448H142.667ZM148.405 455.056L150.997 448H152.671L148.999 457.558C148.225 459.592 146.803 460.726 145.003 460.6V459.142C146.101 459.232 146.911 458.62 147.433 457.306L147.595 456.964L143.671 448H145.345L148.405 455.056ZM100.418 472.754H106.718V473.51C106.718 475.148 106.16 476.516 105.026 477.614C103.892 478.694 102.398 479.234 100.544 479.234C98.6182 479.234 97.0342 478.604 95.7742 477.344C94.5322 476.066 93.9022 474.518 93.9022 472.7C93.9022 470.882 94.5322 469.334 95.7742 468.074C97.0342 466.796 98.6182 466.166 100.508 466.166C101.678 466.166 102.74 466.454 103.712 467.012C104.684 467.57 105.44 468.29 105.962 469.208L104.522 470.054C103.802 468.686 102.236 467.786 100.49 467.786C99.0502 467.786 97.8622 468.254 96.9442 469.208C96.0262 470.144 95.5582 471.314 95.5582 472.7C95.5582 474.086 96.0262 475.256 96.9442 476.192C97.8802 477.128 99.0862 477.596 100.562 477.596C103.082 477.596 104.702 476.228 105.044 474.266H100.418V472.754ZM110.158 470V471.512C110.68 470.396 111.616 469.838 112.966 469.838V471.476C112.192 471.44 111.544 471.638 110.986 472.088C110.428 472.538 110.158 473.24 110.158 474.23V479H108.592V470H110.158ZM121.602 477.866C120.684 478.784 119.55 479.234 118.236 479.234C116.922 479.234 115.788 478.784 114.87 477.866C113.952 476.948 113.502 475.832 113.502 474.5C113.502 473.168 113.952 472.052 114.87 471.134C115.788 470.216 116.922 469.766 118.236 469.766C119.55 469.766 120.684 470.216 121.602 471.134C122.52 472.052 122.988 473.168 122.988 474.5C122.988 475.832 122.52 476.948 121.602 477.866ZM118.236 477.704C119.136 477.704 119.892 477.398 120.504 476.786C121.116 476.174 121.422 475.418 121.422 474.5C121.422 473.582 121.116 472.826 120.504 472.214C119.892 471.602 119.136 471.296 118.236 471.296C117.354 471.296 116.598 471.602 115.986 472.214C115.374 472.826 115.068 473.582 115.068 474.5C115.068 475.418 115.374 476.174 115.986 476.786C116.598 477.398 117.354 477.704 118.236 477.704ZM131.044 474.77V470H132.61V479H131.044V477.704C130.414 478.73 129.442 479.234 128.128 479.234C126.022 479.234 124.636 477.812 124.636 475.526V470H126.202V475.436C126.202 476.894 127.048 477.74 128.434 477.74C130 477.74 131.044 476.786 131.044 474.77ZM139.962 469.766C141.222 469.766 142.302 470.234 143.184 471.152C144.066 472.07 144.516 473.186 144.516 474.5C144.516 475.814 144.066 476.948 143.184 477.866C142.302 478.784 141.222 479.234 139.962 479.234C138.468 479.234 137.334 478.64 136.56 477.452V482.6H134.994V470H136.56V471.548C137.334 470.36 138.468 469.766 139.962 469.766ZM139.764 477.722C140.664 477.722 141.42 477.416 142.032 476.804C142.644 476.174 142.95 475.418 142.95 474.5C142.95 473.582 142.644 472.826 142.032 472.214C141.42 471.584 140.664 471.278 139.764 471.278C138.846 471.278 138.09 471.584 137.478 472.214C136.866 472.826 136.56 473.582 136.56 474.5C136.56 475.418 136.866 476.174 137.478 476.804C138.09 477.416 138.846 477.722 139.764 477.722Z" fill="black"/>
<defs>
<clipPath id="clip0_2583_2">
<rect width="107.15" height="107.15" fill="white" transform="translate(687.123 246.701)"/>
</clipPath>
</defs>
</svg>
