<svg width="715" height="477" viewBox="0 0 715 477" fill="none" xmlns="http://www.w3.org/2000/svg">
<g clip-path="url(#clip0_303_13)">
<g filter="url(#filter0_d_303_13)">
<path d="M667 36H48C41.3726 36 36 41.3726 36 48V429C36 435.627 41.3726 441 48 441H667C673.627 441 679 435.627 679 429V48C679 41.3726 673.627 36 667 36Z" fill="white"/>
<path d="M99 216.537H103.819V234.136H123.61V216.537H128.429V257.224H123.61V238.611H103.819V257.224H99V216.537ZM165.169 222.264C164.214 221.945 163.198 221.668 162.128 221.429C161.058 221.152 159.871 220.931 158.572 220.773C157.31 220.573 155.97 220.474 154.556 220.474C152.261 220.474 150.311 220.99 148.705 222.026C147.098 223.061 145.779 224.391 144.746 226.023C143.751 227.613 143.025 229.402 142.567 231.392C142.108 233.382 141.878 235.35 141.878 237.298C141.878 239.765 142.202 242.011 142.853 244.04C143.542 246.029 144.46 247.739 145.607 249.17C146.792 250.564 148.151 251.637 149.68 252.392C151.249 253.147 152.892 253.526 154.613 253.526C156.22 253.526 157.691 253.445 159.031 253.287C160.37 253.087 161.517 252.89 162.473 252.69C163.583 252.452 164.575 252.174 165.456 251.855L166.431 256.091C165.398 256.449 164.251 256.768 162.989 257.045C161.919 257.284 160.674 257.502 159.26 257.702C157.846 257.902 156.297 258 154.613 258C151.593 258 148.934 257.484 146.64 256.449C144.382 255.414 142.489 253.982 140.96 252.153C139.469 250.283 138.342 248.097 137.576 245.591C136.81 243.046 136.428 240.26 136.428 237.239C136.428 233.778 136.887 230.736 137.805 228.111C138.723 225.447 139.985 223.219 141.591 221.429C143.198 219.639 145.111 218.288 147.328 217.372C149.545 216.456 151.975 216 154.613 216C156.22 216 157.711 216.098 159.088 216.298C160.502 216.456 161.784 216.677 162.931 216.955C164.116 217.232 165.206 217.53 166.201 217.849L165.169 222.264ZM173.398 216.537H178.217V252.452H196V257.224H173.398V216.537Z" fill="black"/>
<path d="M98.4504 216.074V214.549H97V216.074H98.4504ZM103.324 216.074H104.774V214.549H103.324V216.074ZM103.324 234.072H101.873V235.597H103.324V234.072ZM123.339 234.072V235.597H124.79V234.072H123.339ZM123.339 216.074V214.549H121.889V216.074H123.339ZM128.213 216.074H129.663V214.549H128.213V216.074ZM128.213 257.682V259.207H129.663V257.682H128.213ZM123.339 257.682H121.889V259.207H123.339V257.682ZM123.339 238.647H124.79V237.122H123.339V238.647ZM103.324 238.647V237.122H101.873V238.647H103.324ZM103.324 257.682V259.207H104.774V257.682H103.324ZM98.4504 257.682H97V259.207H98.4504V257.682ZM98.4504 217.599H103.324V214.549H98.4504V217.599ZM101.873 216.074V234.072H104.774V216.074H101.873ZM103.324 235.597H123.339V232.546H103.324V235.597ZM124.79 234.072V216.074H121.889V234.072H124.79ZM123.339 217.599H128.213V214.549H123.339V217.599ZM126.762 216.074V257.682H129.663V216.074H126.762ZM128.213 256.157H123.339V259.207H128.213V256.157ZM124.79 257.682V238.647H121.889V257.682H124.79ZM123.339 237.122H103.324V240.172H123.339V237.122ZM101.873 238.647V257.682H104.774V238.647H101.873ZM103.324 256.157H98.4504V259.207H103.324V256.157ZM99.9008 257.682V216.074H97V257.682H99.9008ZM165.369 221.931L164.928 223.383L166.41 223.883L166.779 222.291L165.369 221.931ZM162.294 221.077L161.943 222.556L161.966 222.562L161.989 222.569L162.294 221.077ZM158.697 220.406L158.48 221.913L158.503 221.919L158.529 221.922L158.697 220.406ZM148.718 221.687L149.481 222.983L148.718 221.687ZM144.715 225.775L143.503 224.936L143.5 224.945L144.715 225.775ZM142.511 231.265L141.101 230.908L142.511 231.265ZM142.801 244.199L141.426 244.681L141.437 244.714L142.801 244.199ZM145.585 249.446L144.472 250.422L144.486 250.44L144.501 250.458L145.585 249.446ZM149.705 252.74L149.084 254.119L149.095 254.125L149.705 252.74ZM159.161 253.655L159.327 255.171L159.367 255.165L159.161 253.655ZM162.642 253.045L162.926 254.54H162.935L162.642 253.045ZM165.659 252.191L167.069 251.837L166.697 250.196L165.183 250.751L165.659 252.191ZM166.645 256.523L167.104 257.968L168.365 257.526L168.055 256.169L166.645 256.523ZM163.164 257.499L162.863 256.007H162.86L163.164 257.499ZM159.393 258.17L159.588 259.68L159.393 258.17ZM146.63 256.889L146.044 258.286L146.053 258.289L146.63 256.889ZM140.886 252.496L139.769 253.469L139.793 253.497L140.886 252.496ZM137.463 245.785L136.08 246.24L136.082 246.246L137.463 245.785ZM137.695 227.91L139.059 228.431L139.062 228.425L137.695 227.91ZM141.524 221.077L140.466 220.037L141.524 221.077ZM147.326 216.928L146.792 215.51L147.326 216.928ZM159.219 215.83L159.019 217.34L159.042 217.343L159.063 217.346L159.219 215.83ZM163.106 216.501L162.776 217.987L162.787 217.99L163.106 216.501ZM166.413 217.416L167.823 217.776L168.145 216.382L166.84 215.958L166.413 217.416ZM165.81 220.479C164.795 220.137 163.724 219.838 162.599 219.585L161.989 222.569C163.031 222.803 164.008 223.075 164.928 223.383L165.81 220.479ZM162.645 219.597C161.493 219.296 160.232 219.061 158.865 218.89L158.529 221.922C159.794 222.077 160.931 222.291 161.943 222.556L162.645 219.597ZM158.915 218.899C157.56 218.682 156.133 218.576 154.636 218.576V221.626C156.002 221.626 157.281 221.724 158.48 221.913L158.915 218.899ZM154.636 218.576C152.104 218.576 149.853 219.155 147.955 220.391L149.481 222.983C150.833 222.105 152.527 221.626 154.636 221.626V218.576ZM147.955 220.391C146.154 221.565 144.666 223.081 143.503 224.936L145.928 226.613C146.853 225.131 148.037 223.926 149.481 222.983L147.955 220.391ZM143.5 224.945C142.397 226.726 141.6 228.721 141.101 230.908L143.92 231.622C144.35 229.743 145.023 228.075 145.931 226.604L143.5 224.945ZM141.101 230.908C140.611 233.053 140.364 235.185 140.364 237.305H143.265C143.265 235.438 143.482 233.544 143.92 231.622L141.101 230.908ZM140.364 237.305C140.364 239.965 140.712 242.43 141.426 244.681L144.176 243.717C143.575 241.82 143.265 239.687 143.265 237.305H140.364ZM141.437 244.714C142.183 246.895 143.189 248.805 144.472 250.422L146.699 248.47C145.661 247.158 144.811 245.572 144.167 243.683L141.437 244.714ZM144.501 250.458C145.82 252.026 147.349 253.253 149.084 254.119L150.328 251.361C148.965 250.684 147.749 249.714 146.67 248.433L144.501 250.458ZM149.095 254.125C150.871 254.988 152.742 255.424 154.694 255.424V252.374C153.165 252.374 151.709 252.035 150.314 251.355L149.095 254.125ZM154.694 255.424C156.365 255.424 157.908 255.342 159.327 255.171L158.996 252.139C157.708 252.295 156.275 252.374 154.694 252.374V255.424ZM159.367 255.165C160.736 254.958 161.926 254.75 162.926 254.54L162.358 251.55C161.424 251.746 160.293 251.944 158.955 252.145L159.367 255.165ZM162.935 254.54C164.107 254.284 165.175 253.982 166.135 253.631L165.183 250.751C164.365 251.05 163.42 251.319 162.349 251.55L162.935 254.54ZM164.249 252.545L165.235 256.876L168.055 256.169L167.069 251.837L164.249 252.545ZM166.187 255.077C165.204 255.421 164.095 255.733 162.863 256.007L163.466 258.99C164.786 258.697 165.998 258.356 167.104 257.968L166.187 255.077ZM162.86 256.007C161.824 256.242 160.603 256.458 159.199 256.66L159.588 259.68C161.044 259.475 162.34 259.244 163.469 258.99L162.86 256.007ZM159.199 256.66C157.841 256.852 156.342 256.95 154.694 256.95V260C156.449 260 158.082 259.896 159.588 259.68L159.199 256.66ZM154.694 256.95C151.796 256.95 149.31 256.449 147.207 255.488L146.053 258.289C148.591 259.445 151.48 260 154.694 260V256.95ZM147.216 255.492C145.116 254.521 143.381 253.185 141.98 251.496L139.793 253.497C141.487 255.546 143.578 257.142 146.044 258.286L147.216 255.492ZM142.003 251.523C140.622 249.775 139.566 247.713 138.847 245.325L136.082 246.246C136.906 248.982 138.133 251.395 139.769 253.469L142.003 251.523ZM138.847 245.331C138.125 242.893 137.753 240.2 137.753 237.244H134.853C134.853 240.468 135.256 243.473 136.08 246.24L138.847 245.331ZM137.753 237.244C137.753 233.843 138.2 230.914 139.059 228.431L136.332 227.388C135.334 230.274 134.853 233.568 134.853 237.244H137.753ZM139.062 228.425C139.932 225.863 141.115 223.774 142.586 222.117L140.466 220.037C138.684 222.041 137.315 224.506 136.329 227.394L139.062 228.425ZM142.586 222.117C144.06 220.455 145.815 219.201 147.86 218.347L146.792 215.51C144.353 216.529 142.238 218.039 140.466 220.037L142.586 222.117ZM147.86 218.347C149.916 217.49 152.188 217.05 154.694 217.05V214C151.863 214 149.223 214.497 146.792 215.51L147.86 218.347ZM154.694 217.05C156.263 217.05 157.702 217.148 159.019 217.34L159.419 214.32C157.952 214.104 156.376 214 154.694 214V217.05ZM159.063 217.346C160.446 217.505 161.685 217.718 162.776 217.987L163.437 215.016C162.207 214.714 160.852 214.482 159.376 214.314L159.063 217.346ZM162.787 217.99C163.956 218.268 165.021 218.563 165.987 218.875L166.84 215.958C165.792 215.62 164.655 215.306 163.425 215.013L162.787 217.99ZM165.003 217.057L163.959 221.571L166.779 222.291L167.823 217.776L165.003 217.057ZM173.691 216.074V214.549H172.241V216.074H173.691ZM178.565 216.074H180.015V214.549H178.565V216.074ZM178.565 252.801H177.114V254.326H178.565V252.801ZM196.55 252.801H198V251.276H196.55V252.801ZM196.55 257.682V259.207H198V257.682H196.55ZM173.691 257.682H172.241V259.207H173.691V257.682ZM173.691 217.599H178.565V214.549H173.691V217.599ZM177.114 216.074V252.801H180.015V216.074H177.114ZM178.565 254.326H196.55V251.276H178.565V254.326ZM195.099 252.801V257.682H198V252.801H195.099ZM196.55 256.157H173.691V259.207H196.55V256.157ZM175.142 257.682V216.074H172.241V257.682H175.142Z" fill="#444547"/>
<path d="M368.656 238.026C369.117 237.44 369.114 236.494 368.651 235.913L361.103 226.434C360.64 225.853 359.892 225.856 359.431 226.44C358.971 227.026 358.972 227.972 359.436 228.553L366.145 236.978L359.475 245.453C359.014 246.038 359.017 246.983 359.48 247.566C359.943 248.147 360.692 248.144 361.152 247.559L368.656 238.026ZM233.006 238.964L367.821 238.466L367.814 235.478L233 235.976L233.006 238.964Z" fill="#444547"/>
<path d="M431.5 218C430.739 218 430.029 217.786 429.37 217.413L422.623 213.204C421.609 212.618 422.115 212.405 422.419 212.298C423.79 211.819 424.043 211.712 425.464 210.86C425.616 210.753 425.818 210.806 425.97 210.913L431.146 214.163C431.348 214.27 431.602 214.27 431.754 214.163L451.993 201.854C452.195 201.748 452.297 201.534 452.297 201.269V176.704C452.297 176.439 452.195 176.225 451.993 176.118L431.754 163.863C431.55 163.757 431.298 163.757 431.146 163.863L410.905 176.118C410.703 176.225 410.601 176.492 410.601 176.704V201.269C410.601 201.481 410.703 201.748 410.905 201.854L416.435 205.211C419.427 206.809 421.304 204.944 421.304 203.079V178.836C421.304 178.517 421.559 178.197 421.913 178.197H424.501C424.805 178.197 425.109 178.464 425.109 178.836V203.079C425.109 207.29 422.928 209.74 419.123 209.74C417.956 209.74 417.043 209.74 414.457 208.409L409.13 205.211C407.812 204.412 407 202.92 407 201.322V176.759C407 175.159 407.812 173.668 409.13 172.869L429.37 160.56C430.637 159.813 432.363 159.813 433.63 160.56L453.87 172.869C455.189 173.668 456 175.159 456 176.759V201.322C456 202.92 455.189 204.412 453.87 205.211L433.63 217.521C432.971 217.84 432.21 218 431.5 218ZM437.739 201.109C428.862 201.109 427.037 196.846 427.037 193.223C427.037 192.903 427.289 192.584 427.645 192.584H430.283C430.587 192.584 430.841 192.796 430.841 193.116C431.246 195.939 432.413 197.325 437.791 197.325C442.052 197.325 443.877 196.314 443.877 193.915C443.877 192.529 443.369 191.518 436.724 190.824C431.196 190.24 427.747 188.959 427.747 184.324C427.747 180.009 431.196 177.451 436.978 177.451C443.471 177.451 446.667 179.795 447.073 184.91C447.073 185.07 447.021 185.23 446.919 185.389C446.819 185.497 446.667 185.604 446.515 185.604H443.877C443.623 185.604 443.369 185.389 443.319 185.124C442.71 182.194 441.137 181.233 436.978 181.233C432.312 181.233 431.754 182.94 431.754 184.218C431.754 185.764 432.413 186.243 438.703 187.095C444.942 187.948 447.884 189.174 447.884 193.755C447.834 198.443 444.181 201.109 437.739 201.109Z" fill="#539E43"/>
<path d="M478.142 182.975C478.001 182.975 477.965 182.921 478.035 182.843L478.782 182.131C478.854 182.052 479.03 182 479.173 182H491.858C492 182 492.036 182.079 491.964 182.157L491.361 182.843C491.289 182.921 491.113 183 491.005 183L478.142 182.975Z" fill="#00ACD7"/>
<path d="M472.146 187C472 187 471.963 186.891 472.037 186.73L472.801 185.268C472.874 185.107 473.057 185 473.202 185H489.808C489.954 185 490.027 185.161 489.991 185.322L489.7 186.62C489.663 186.836 489.518 186.945 489.372 186.945L472.146 187Z" fill="#00ACD7"/>
<path d="M481.138 189.975C481 189.975 480.965 189.895 481.035 189.816L481.52 189.157C481.59 189.079 481.728 189 481.866 189H488.792C488.93 189 489 189.079 489 189.184L488.93 189.816C488.93 189.921 488.792 190 488.688 190L481.138 189.975Z" fill="#00ACD7"/>
<path d="M518.803 183.123C516.518 183.73 514.958 184.184 512.708 184.791C512.164 184.942 512.127 184.98 511.656 184.412C511.111 183.768 510.713 183.35 509.951 182.971C507.666 181.797 505.453 182.138 503.385 183.54C500.919 185.207 499.648 187.672 499.685 190.74C499.721 193.772 501.716 196.274 504.582 196.691C507.048 197.032 509.116 196.122 510.75 194.19C511.076 193.772 511.366 193.318 511.729 192.788C510.424 192.788 508.79 192.788 504.727 192.788C503.966 192.788 503.785 192.293 504.038 191.65C504.509 190.476 505.38 188.505 505.888 187.518C505.998 187.292 506.251 186.913 506.795 186.913C508.645 186.913 515.466 186.913 520 186.913C519.927 187.936 519.927 188.959 519.782 189.982C519.382 192.711 518.403 195.212 516.808 197.409C514.195 201.01 510.785 203.246 506.469 203.853C502.914 204.345 499.612 203.625 496.711 201.351C494.025 199.229 492.501 196.425 492.103 192.939C491.632 188.807 492.793 185.093 495.187 181.835C497.762 178.311 501.172 176.074 505.343 175.279C508.753 174.633 512.019 175.051 514.958 177.135C516.879 178.462 518.258 180.28 519.166 182.479C519.382 182.82 519.237 183.009 518.803 183.123Z" fill="#00ACD7"/>
<path d="M530.561 204C527.359 203.923 524.439 202.929 521.977 200.634C519.902 198.683 518.599 196.196 518.177 193.25C517.544 188.927 518.634 185.102 521.027 181.697C523.595 178.026 526.69 176.111 530.878 175.309C534.466 174.621 537.842 175.004 540.904 177.26C543.683 179.325 545.406 182.119 545.863 185.79C546.462 190.955 545.09 195.164 541.818 198.758C539.496 201.322 536.646 202.929 533.376 203.656C532.425 203.847 531.475 203.886 530.561 204ZM538.934 188.546C538.899 188.047 538.899 187.666 538.827 187.283C538.194 183.495 534.994 181.353 531.651 182.194C528.38 182.998 526.269 185.255 525.495 188.851C524.861 191.835 526.198 194.857 528.732 196.081C530.666 196.999 532.601 196.885 534.466 195.852C537.245 194.284 538.758 191.835 538.934 188.546Z" fill="#00ACD7"/>
<path d="M518.446 240C504.409 240 505.285 246.517 505.285 246.517L505.301 253.27H518.695V255.298H499.981C499.981 255.298 491 254.206 491 269.372C491 284.535 498.839 283.998 498.839 283.998H503.518V276.962C503.518 276.962 503.266 268.567 511.232 268.567C519.198 268.567 524.517 268.567 524.517 268.567C524.517 268.567 531.98 268.696 531.98 260.843C531.98 252.99 531.98 247.859 531.98 247.859C531.98 247.859 533.113 240 518.446 240ZM511.06 244.54C512.392 244.54 513.47 245.694 513.47 247.121C513.47 248.547 512.392 249.701 511.06 249.701C509.727 249.701 508.649 248.547 508.649 247.121C508.649 245.694 509.727 244.54 511.06 244.54Z" fill="url(#paint0_linear_303_13)"/>
<path d="M519.555 298C533.591 298 532.714 291.631 532.714 291.631L532.698 285.032H519.305V283.052H538.018C538.018 283.052 547 284.116 547 269.296C547 254.477 539.16 255.002 539.16 255.002H534.483V261.88C534.483 261.88 534.735 270.082 526.768 270.082C518.802 270.082 513.484 270.082 513.484 270.082C513.484 270.082 506.02 269.956 506.02 277.631C506.02 285.305 506.02 290.322 506.02 290.322C506.02 290.322 504.887 298 519.555 298ZM526.939 293.563C525.607 293.563 524.531 292.437 524.531 291.041C524.531 289.647 525.607 288.52 526.939 288.52C528.273 288.52 529.35 289.647 529.35 291.041C529.35 292.437 528.273 293.563 526.939 293.563Z" fill="url(#paint1_linear_303_13)"/>
<path d="M588.499 217C603.688 217 616 204.24 616 188.499C616 172.76 603.688 160 588.499 160C573.312 160 561 172.76 561 188.499C561 204.24 573.312 217 588.499 217Z" fill="#5C2D91"/>
<path opacity="0.1" d="M569.198 168C566.405 170.594 564.148 173.754 562.568 177.288C560.988 180.822 560.118 184.653 560.011 188.55C559.903 192.446 560.56 196.325 561.943 199.947C563.326 203.568 565.403 206.859 568.049 209.614C570.694 212.372 573.853 214.536 577.331 215.974C580.809 217.415 584.531 218.101 588.272 217.988C592.013 217.876 595.692 216.969 599.083 215.323C602.476 213.678 605.51 211.329 608 208.417L569.198 168Z" fill="white"/>
<path d="M567.494 193C567.296 193.003 567.1 192.977 566.918 192.926C566.735 192.876 566.572 192.801 566.434 192.705C566.294 192.614 566.185 192.504 566.11 192.384C566.034 192.264 565.998 192.134 566 192.003C565.998 191.874 566.037 191.744 566.112 191.623C566.185 191.504 566.297 191.394 566.434 191.302C566.569 191.205 566.733 191.128 566.915 191.077C567.098 191.024 567.296 190.999 567.494 191C567.693 191 567.889 191.026 568.072 191.078C568.254 191.13 568.418 191.206 568.555 191.302C568.695 191.393 568.809 191.502 568.884 191.622C568.961 191.743 569 191.873 569 192.003C569.002 192.134 568.963 192.264 568.886 192.385C568.809 192.506 568.697 192.615 568.555 192.705C568.418 192.799 568.252 192.875 568.069 192.924C567.887 192.976 567.691 193.001 567.494 193Z" fill="white"/>
<path d="M584 193H581.858L574.198 180.237C574.007 179.924 573.85 179.588 573.724 179.237H573.659C573.732 179.967 573.759 180.7 573.741 181.432V193H572V177H574.264L581.719 189.533C582.031 190.053 582.231 190.41 582.324 190.603H582.365C582.279 189.823 582.243 189.036 582.259 188.252V177H584V193Z" fill="white"/>
<path d="M596.991 193H588V177H596.573V178.694H590.023V184.012H596.129V185.698H590.023V191.243H597L596.991 193Z" fill="white"/>
<path d="M609 178.694H604.4V193H602.549V178.694H598V177H609V178.694Z" fill="white"/>
<path d="M582.984 204.543C582.41 204.867 581.779 205.023 581.141 204.996C580.719 205.019 580.295 204.935 579.902 204.753C579.509 204.569 579.155 204.29 578.862 203.934C578.279 203.173 577.971 202.18 578.003 201.161C577.983 200.61 578.057 200.059 578.223 199.542C578.387 199.024 578.64 198.55 578.965 198.149C579.282 197.771 579.664 197.475 580.085 197.276C580.507 197.079 580.958 196.986 581.412 197.002C581.955 196.982 582.496 197.092 583 197.327V198.25C582.515 197.938 581.967 197.778 581.412 197.789C581.062 197.776 580.714 197.853 580.392 198.012C580.07 198.174 579.78 198.412 579.545 198.713C579.049 199.369 578.793 200.224 578.83 201.097C578.793 201.923 579.033 202.735 579.497 203.361C579.721 203.64 579.993 203.859 580.296 204.005C580.598 204.149 580.925 204.217 581.252 204.202C581.863 204.221 582.465 204.041 582.992 203.685L582.984 204.543Z" fill="#F2F2F2"/>
<path d="M586.475 204.999C586.137 205.01 585.803 204.941 585.492 204.797C585.182 204.651 584.902 204.432 584.672 204.156C584.211 203.578 583.971 202.819 584.005 202.043C583.983 201.638 584.034 201.231 584.156 200.847C584.276 200.465 584.463 200.111 584.707 199.81C584.955 199.537 585.25 199.326 585.575 199.188C585.9 199.05 586.247 198.986 586.593 199.003C586.921 198.984 587.249 199.046 587.554 199.18C587.859 199.316 588.134 199.524 588.36 199.791C588.811 200.398 589.038 201.172 588.995 201.959C589.031 202.758 588.786 203.539 588.31 204.137C588.077 204.419 587.792 204.642 587.475 204.791C587.159 204.939 586.818 205.01 586.475 204.999ZM586.533 199.818C586.302 199.808 586.069 199.856 585.856 199.96C585.641 200.062 585.451 200.219 585.298 200.415C584.974 200.883 584.811 201.469 584.842 202.063C584.813 202.639 584.976 203.205 585.298 203.655C585.453 203.848 585.643 204.002 585.858 204.104C586.07 204.206 586.302 204.252 586.533 204.24C586.761 204.256 586.988 204.213 587.197 204.113C587.406 204.016 587.593 203.864 587.743 203.674C588.051 203.203 588.201 202.625 588.166 202.043C588.201 201.46 588.05 200.88 587.743 200.405C587.597 200.209 587.41 200.056 587.201 199.952C586.99 199.85 586.761 199.804 586.533 199.818Z" fill="#F2F2F2"/>
<path d="M593 200.054C592.862 199.915 592.699 199.849 592.535 199.867C592.406 199.875 592.281 199.931 592.17 200.03C592.059 200.128 591.966 200.27 591.897 200.437C591.709 200.902 591.617 201.444 591.637 201.991V205H591V199.101H591.637V200.33C591.706 199.949 591.846 199.608 592.038 199.346C592.205 199.123 592.416 199.001 592.636 199.001C592.76 198.993 592.883 199.019 593 199.081V200.054Z" fill="#F2F2F2"/>
<path d="M598 202.247H594.787C594.766 202.781 594.904 203.305 595.175 203.717C595.315 203.893 595.485 204.03 595.671 204.119C595.856 204.208 596.055 204.247 596.253 204.232C596.768 204.226 597.267 203.999 597.666 203.593V204.452C597.196 204.841 596.64 205.031 596.079 204.996C595.796 205.013 595.513 204.953 595.249 204.818C594.987 204.682 594.752 204.475 594.559 204.212C594.165 203.593 593.966 202.811 594.005 202.018C593.979 201.223 594.193 200.445 594.605 199.843C594.793 199.571 595.027 199.354 595.289 199.209C595.553 199.064 595.838 198.994 596.124 199.004C596.383 198.984 596.643 199.04 596.882 199.166C597.122 199.292 597.335 199.484 597.507 199.729C597.857 200.308 598.029 201.026 597.992 201.751L598 202.247ZM597.241 201.475C597.256 201.031 597.148 200.598 596.937 200.244C596.833 200.097 596.705 199.981 596.56 199.903C596.415 199.828 596.258 199.793 596.101 199.805C595.938 199.803 595.776 199.843 595.625 199.923C595.476 200.004 595.34 200.122 595.228 200.273C594.978 200.604 594.821 201.03 594.779 201.484L597.241 201.475Z" fill="#F2F2F2"/>
<g clip-path="url(#clip1_303_13)">
<path d="M580.023 266.778C580.023 266.778 578.246 267.86 581.26 268.169C584.899 268.633 586.823 268.555 590.841 267.783C590.841 267.783 591.923 268.48 593.391 269.02C584.349 272.883 572.913 268.788 580.023 266.778ZM578.864 261.756C578.864 261.756 576.932 263.224 579.945 263.533C583.886 263.919 586.978 263.996 592.31 262.916C592.31 262.916 593.006 263.689 594.164 264.075C583.269 267.32 571.059 264.383 578.864 261.757V261.756ZM600.192 270.565C600.192 270.565 601.505 271.647 598.723 272.497C593.545 274.042 577.009 274.507 572.373 272.497C570.751 271.801 573.841 270.796 574.845 270.643C575.85 270.411 576.39 270.411 576.39 270.411C574.613 269.174 564.567 272.961 571.29 274.05C589.759 277.065 604.982 272.737 600.191 270.573L600.192 270.565ZM580.873 256.501C580.873 256.501 572.449 258.51 577.858 259.205C580.176 259.514 584.735 259.437 588.986 259.127C592.463 258.819 595.948 258.2 595.948 258.2C595.948 258.2 594.712 258.741 593.862 259.282C585.277 261.525 568.818 260.52 573.532 258.202C577.551 256.27 580.873 256.501 580.873 256.501ZM595.94 264.924C604.596 260.442 600.577 256.115 597.795 256.656C597.099 256.81 596.79 256.964 596.79 256.964C596.79 256.964 597.022 256.501 597.563 256.347C603.049 254.415 607.377 262.143 595.786 265.157C595.786 265.157 595.864 265.079 595.94 264.925V264.924ZM581.722 277.132C590.068 277.673 602.818 276.824 603.128 272.882C603.128 272.882 602.511 274.427 596.251 275.586C589.142 276.9 580.332 276.745 575.155 275.895C575.155 275.895 576.236 276.822 581.723 277.131L581.722 277.132Z" fill="#4E7896"/>
<path d="M590.679 231C590.679 231 595.47 235.868 586.12 243.208C578.624 249.158 584.419 252.559 586.12 256.422C581.715 252.481 578.548 249.003 580.711 245.758C583.887 240.969 592.618 238.651 590.679 231ZM588.207 253.178C590.447 255.728 587.589 258.046 587.589 258.046C587.589 258.046 593.307 255.111 590.681 251.477C588.285 248 586.43 246.3 596.476 240.503C596.476 240.503 580.635 244.443 588.208 253.176L588.207 253.178Z" fill="#F58219"/>
<path d="M584.219 293.676V286.104C584.219 284.172 583.137 282.858 580.432 282.858C578.887 282.858 577.573 283.244 576.413 283.708L576.799 285.099C577.649 284.79 578.731 284.482 579.89 284.482C581.359 284.482 582.054 285.099 582.054 286.336V287.341H581.281C577.572 287.341 575.872 288.732 575.872 290.981C575.872 292.835 577.031 293.916 579.117 293.916C580.431 293.916 581.435 293.299 582.363 292.525L582.517 293.684H584.218L584.219 293.676ZM582.055 291.203C581.282 291.899 580.433 292.285 579.659 292.285C578.654 292.285 578.037 291.667 578.037 290.584C578.037 289.5 578.654 288.729 581.128 288.729H582.055V291.201V291.203ZM591.482 293.676H588.778L585.532 283.089H587.851L589.86 289.58L590.324 291.512C591.329 288.731 592.101 285.871 592.41 283.089H594.729C594.111 286.567 593.027 290.353 591.483 293.676H591.482ZM604.001 293.676V286.104C604.001 284.172 602.919 282.858 600.214 282.858C598.669 282.858 597.354 283.244 596.195 283.708L596.503 285.099C597.431 284.79 598.513 284.482 599.671 284.482C601.14 284.482 601.835 285.099 601.835 286.336V287.341H601.062C597.353 287.341 595.653 288.732 595.653 290.981C595.653 292.835 596.734 293.916 598.821 293.916C600.212 293.916 601.216 293.299 602.144 292.525L602.298 293.684H603.999L604.001 293.676ZM601.837 291.203C601.064 291.899 600.215 292.285 599.441 292.285C598.436 292.285 597.819 291.667 597.819 290.584C597.819 289.5 598.436 288.729 600.91 288.729H601.838V291.201L601.837 291.203ZM573.478 295.452C572.861 296.379 571.933 297.074 570.774 297.462L569.769 296.225C570.542 295.761 571.314 295.066 571.624 294.448C571.932 293.907 572.01 293.134 572.01 291.356V279.303H574.328V291.203C574.328 293.599 574.096 294.526 573.478 295.454V295.452Z" fill="#4E7896"/>
</g>
</g>
<path d="M434.632 236L423.872 252.966V263.722H417.278V252.966L407 236H414.412L420.947 246.924L427.536 236H434.632Z" fill="black"/>
<path d="M445.706 257.622H433.769L431.342 263.786H426.056L437.233 236.065H442.64L453.364 263.786H447.715L445.706 257.622H445.706ZM443.723 252.087L440.064 241.914L435.982 252.087H443.723Z" fill="#CB171E"/>
<path d="M417.277 266.83V294H422.821V275.259L428.622 287.856H432.985L438.985 274.816V293.994H444.303V266.83H437.042L430.599 279.118L424.463 266.83H417.277Z" fill="black"/>
<path d="M467 288.096H453.364V266.824H447.716V293.877H467V288.096V288.096Z" fill="black"/>
</g>
<defs>
<filter id="filter0_d_303_13" x="0" y="6" width="715" height="477" filterUnits="userSpaceOnUse" color-interpolation-filters="sRGB">
<feFlood flood-opacity="0" result="BackgroundImageFix"/>
<feColorMatrix in="SourceAlpha" type="matrix" values="0 0 0 0 0 0 0 0 0 0 0 0 0 0 0 0 0 0 127 0" result="hardAlpha"/>
<feOffset dy="6"/>
<feGaussianBlur stdDeviation="18"/>
<feColorMatrix type="matrix" values="0 0 0 0 0 0 0 0 0 0 0 0 0 0 0 0 0 0 0.1 0"/>
<feBlend mode="normal" in2="BackgroundImageFix" result="effect1_dropShadow_303_13"/>
<feBlend mode="normal" in="SourceGraphic" in2="effect1_dropShadow_303_13" result="shape"/>
</filter>
<linearGradient id="paint0_linear_303_13" x1="496.313" y1="245.148" x2="525.525" y2="272.52" gradientUnits="userSpaceOnUse">
<stop stop-color="#387EB8"/>
<stop offset="1" stop-color="#366994"/>
</linearGradient>
<linearGradient id="paint1_linear_303_13" x1="513.842" y1="263.736" x2="544.476" y2="291.782" gradientUnits="userSpaceOnUse">
<stop stop-color="#FFE052"/>
<stop offset="1" stop-color="#FFC331"/>
</linearGradient>
<clipPath id="clip0_303_13">
<rect width="715" height="477" fill="white"/>
</clipPath>
<clipPath id="clip1_303_13">
<rect width="36" height="66.4615" fill="white" transform="translate(569 231)"/>
</clipPath>
</defs>
</svg>
