<svg width="710" height="574" viewBox="0 0 710 574" fill="none" xmlns="http://www.w3.org/2000/svg">
<g filter="url(#filter0_d)">
<rect x="36" y="30" width="643" height="405" rx="12" fill="white"/>
<path d="M93.224 216.264H97.256V230.424H113.816V216.264H117.848V249H113.816V234.024H97.256V249H93.224V216.264ZM148.59 220.872C147.79 220.616 146.942 220.392 146.046 220.2C145.15 219.976 144.158 219.8 143.07 219.672C142.014 219.512 140.894 219.432 139.71 219.432C137.79 219.432 136.158 219.848 134.814 220.68C133.47 221.512 132.366 222.584 131.502 223.896C130.67 225.176 130.062 226.616 129.678 228.216C129.294 229.816 129.102 231.4 129.102 232.968C129.102 234.952 129.374 236.76 129.918 238.392C130.494 239.992 131.262 241.368 132.222 242.52C133.214 243.64 134.35 244.504 135.63 245.112C136.942 245.72 138.318 246.024 139.758 246.024C141.102 246.024 142.334 245.96 143.454 245.832C144.574 245.672 145.534 245.512 146.334 245.352C147.262 245.16 148.094 244.936 148.83 244.68L149.646 248.088C148.782 248.376 147.822 248.632 146.766 248.856C145.87 249.048 144.83 249.224 143.646 249.384C142.462 249.544 141.166 249.624 139.758 249.624C137.23 249.624 135.006 249.208 133.086 248.376C131.198 247.544 129.614 246.392 128.334 244.92C127.086 243.416 126.142 241.656 125.502 239.64C124.862 237.592 124.542 235.352 124.542 232.92C124.542 230.136 124.926 227.688 125.694 225.576C126.462 223.432 127.518 221.64 128.862 220.2C130.206 218.76 131.806 217.672 133.662 216.936C135.518 216.2 137.55 215.832 139.758 215.832C141.102 215.832 142.35 215.912 143.502 216.072C144.686 216.2 145.758 216.376 146.718 216.6C147.71 216.824 148.622 217.064 149.454 217.32L148.59 220.872ZM155.474 216.264H159.506V245.16H174.386V249H155.474V216.264Z" fill="black"/>
<path d="M93.224 216.264V215.764H92.724V216.264H93.224ZM97.256 216.264H97.756V215.764H97.256V216.264ZM97.256 230.424H96.756V230.924H97.256V230.424ZM113.816 230.424V230.924H114.316V230.424H113.816ZM113.816 216.264V215.764H113.316V216.264H113.816ZM117.848 216.264H118.348V215.764H117.848V216.264ZM117.848 249V249.5H118.348V249H117.848ZM113.816 249H113.316V249.5H113.816V249ZM113.816 234.024H114.316V233.524H113.816V234.024ZM97.256 234.024V233.524H96.756V234.024H97.256ZM97.256 249V249.5H97.756V249H97.256ZM93.224 249H92.724V249.5H93.224V249ZM93.224 216.764H97.256V215.764H93.224V216.764ZM96.756 216.264V230.424H97.756V216.264H96.756ZM97.256 230.924H113.816V229.924H97.256V230.924ZM114.316 230.424V216.264H113.316V230.424H114.316ZM113.816 216.764H117.848V215.764H113.816V216.764ZM117.348 216.264V249H118.348V216.264H117.348ZM117.848 248.5H113.816V249.5H117.848V248.5ZM114.316 249V234.024H113.316V249H114.316ZM113.816 233.524H97.256V234.524H113.816V233.524ZM96.756 234.024V249H97.756V234.024H96.756ZM97.256 248.5H93.224V249.5H97.256V248.5ZM93.724 249V216.264H92.724V249H93.724ZM148.59 220.872L148.437 221.348L148.949 221.512L149.076 220.99L148.59 220.872ZM146.046 220.2L145.924 220.685L145.933 220.687L145.941 220.689L146.046 220.2ZM143.07 219.672L142.995 220.166L143.003 220.168L143.011 220.169L143.07 219.672ZM134.814 220.68L135.077 221.105L134.814 220.68ZM131.502 223.896L131.084 223.621L131.083 223.624L131.502 223.896ZM129.678 228.216L129.192 228.099L129.678 228.216ZM129.918 238.392L129.443 238.55L129.447 238.561L129.918 238.392ZM132.222 242.52L131.838 242.84L131.842 242.846L131.847 242.852L132.222 242.52ZM135.63 245.112L135.415 245.564L135.42 245.566L135.63 245.112ZM143.454 245.832L143.511 246.329L143.524 246.327L143.454 245.832ZM146.334 245.352L146.432 245.842L146.435 245.842L146.334 245.352ZM148.83 244.68L149.316 244.564L149.187 244.026L148.665 244.208L148.83 244.68ZM149.646 248.088L149.804 248.562L150.239 248.417L150.132 247.972L149.646 248.088ZM146.766 248.856L146.662 248.367L146.661 248.367L146.766 248.856ZM143.646 249.384L143.713 249.879L143.646 249.384ZM133.086 248.376L132.884 248.834L132.887 248.835L133.086 248.376ZM128.334 244.92L127.949 245.239L127.956 245.248L128.334 244.92ZM125.502 239.64L125.025 239.789L125.025 239.791L125.502 239.64ZM125.694 225.576L126.164 225.747L126.164 225.745L125.694 225.576ZM128.862 220.2L128.496 219.859L128.862 220.2ZM133.662 216.936L133.477 216.471L133.662 216.936ZM143.502 216.072L143.433 216.567L143.44 216.568L143.448 216.569L143.502 216.072ZM146.718 216.6L146.604 217.087L146.608 217.088L146.718 216.6ZM149.454 217.32L149.94 217.438L150.051 216.981L149.601 216.842L149.454 217.32ZM148.742 220.396C147.925 220.134 147.061 219.906 146.151 219.711L145.941 220.689C146.822 220.878 147.654 221.098 148.437 221.348L148.742 220.396ZM146.167 219.715C145.247 219.485 144.234 219.305 143.128 219.175L143.011 220.169C144.082 220.295 145.053 220.467 145.924 220.685L146.167 219.715ZM143.145 219.178C142.061 219.014 140.916 218.932 139.71 218.932V219.932C140.871 219.932 141.966 220.01 142.995 220.166L143.145 219.178ZM139.71 218.932C137.717 218.932 135.989 219.364 134.551 220.255L135.077 221.105C136.326 220.332 137.863 219.932 139.71 219.932V218.932ZM134.551 220.255C133.145 221.125 131.988 222.248 131.084 223.621L131.919 224.171C132.743 222.92 133.794 221.899 135.077 221.105L134.551 220.255ZM131.083 223.624C130.217 224.955 129.588 226.448 129.192 228.099L130.164 228.333C130.536 226.784 131.122 225.397 131.921 224.168L131.083 223.624ZM129.192 228.099C128.799 229.736 128.602 231.359 128.602 232.968H129.602C129.602 231.441 129.789 229.896 130.164 228.333L129.192 228.099ZM128.602 232.968C128.602 234.998 128.88 236.86 129.443 238.55L130.392 238.234C129.867 236.66 129.602 234.906 129.602 232.968H128.602ZM129.447 238.561C130.04 240.209 130.836 241.638 131.838 242.84L132.606 242.2C131.688 241.098 130.947 239.775 130.388 238.223L129.447 238.561ZM131.847 242.852C132.882 244.019 134.071 244.925 135.415 245.564L135.844 244.66C134.628 244.083 133.546 243.261 132.596 242.188L131.847 242.852ZM135.42 245.566C136.797 246.204 138.245 246.524 139.758 246.524V245.524C138.391 245.524 137.086 245.236 135.84 244.658L135.42 245.566ZM139.758 246.524C141.117 246.524 142.369 246.459 143.511 246.329L143.397 245.335C142.299 245.461 141.086 245.524 139.758 245.524V246.524ZM143.524 246.327C144.65 246.166 145.62 246.005 146.432 245.842L146.236 244.862C145.447 245.019 144.497 245.178 143.383 245.337L143.524 246.327ZM146.435 245.842C147.38 245.646 148.234 245.417 148.994 245.152L148.665 244.208C147.954 244.455 147.143 244.674 146.232 244.862L146.435 245.842ZM148.343 244.796L149.159 248.204L150.132 247.972L149.316 244.564L148.343 244.796ZM149.488 247.614C148.644 247.895 147.703 248.146 146.662 248.367L146.87 249.345C147.941 249.118 148.919 248.857 149.804 248.562L149.488 247.614ZM146.661 248.367C145.781 248.556 144.754 248.73 143.579 248.889L143.713 249.879C144.906 249.718 145.959 249.54 146.871 249.345L146.661 248.367ZM143.579 248.889C142.42 249.045 141.147 249.124 139.758 249.124V250.124C141.184 250.124 142.503 250.043 143.713 249.879L143.579 248.889ZM139.758 249.124C137.284 249.124 135.13 248.717 133.285 247.917L132.887 248.835C134.881 249.699 137.175 250.124 139.758 250.124V249.124ZM133.287 247.918C131.463 247.114 129.94 246.005 128.711 244.592L127.956 245.248C129.288 246.779 130.933 247.974 132.884 248.834L133.287 247.918ZM128.719 244.601C127.515 243.15 126.6 241.448 125.978 239.489L125.025 239.791C125.683 241.864 126.657 243.682 127.949 245.239L128.719 244.601ZM125.979 239.491C125.356 237.497 125.042 235.308 125.042 232.92H124.042C124.042 235.396 124.368 237.687 125.025 239.789L125.979 239.491ZM125.042 232.92C125.042 230.181 125.42 227.793 126.164 225.747L125.224 225.405C124.432 227.583 124.042 230.091 124.042 232.92H125.042ZM126.164 225.745C126.913 223.655 127.936 221.924 129.227 220.541L128.496 219.859C127.099 221.356 126.01 223.209 125.223 225.407L126.164 225.745ZM129.227 220.541C130.52 219.156 132.058 218.11 133.846 217.401L133.477 216.471C131.554 217.234 129.891 218.364 128.496 219.859L129.227 220.541ZM133.846 217.401C135.637 216.69 137.606 216.332 139.758 216.332V215.332C137.493 215.332 135.398 215.71 133.477 216.471L133.846 217.401ZM139.758 216.332C141.082 216.332 142.307 216.411 143.433 216.567L143.571 215.577C142.393 215.413 141.121 215.332 139.758 215.332V216.332ZM143.448 216.569C144.616 216.695 145.667 216.868 146.604 217.087L146.831 216.113C145.848 215.884 144.756 215.705 143.555 215.575L143.448 216.569ZM146.608 217.088C147.589 217.309 148.489 217.546 149.307 217.798L149.601 216.842C148.755 216.582 147.83 216.339 146.828 216.112L146.608 217.088ZM148.968 217.202L148.104 220.754L149.076 220.99L149.94 217.438L148.968 217.202ZM155.474 216.264V215.764H154.974V216.264H155.474ZM159.506 216.264H160.006V215.764H159.506V216.264ZM159.506 245.16H159.006V245.66H159.506V245.16ZM174.386 245.16H174.886V244.66H174.386V245.16ZM174.386 249V249.5H174.886V249H174.386ZM155.474 249H154.974V249.5H155.474V249ZM155.474 216.764H159.506V215.764H155.474V216.764ZM159.006 216.264V245.16H160.006V216.264H159.006ZM159.506 245.66H174.386V244.66H159.506V245.66ZM173.886 245.16V249H174.886V245.16H173.886ZM174.386 248.5H155.474V249.5H174.386V248.5ZM155.974 249V216.264H154.974V249H155.974Z" fill="black"/>
<path d="M341.971 260.088H344.483C345.869 260.088 346.893 260.333 347.555 260.824C348.227 261.315 348.562 262.141 348.562 263.304C348.562 263.944 348.44 264.477 348.195 264.904C347.949 265.331 347.64 265.677 347.267 265.944C346.904 266.2 346.509 266.387 346.083 266.504C345.656 266.611 345.261 266.664 344.899 266.664H343.315V271H341.971V260.088ZM343.315 265.464H344.786C345.149 265.464 345.475 265.432 345.763 265.368C346.061 265.293 346.317 265.176 346.531 265.016C346.744 264.845 346.909 264.621 347.027 264.344C347.144 264.056 347.203 263.699 347.203 263.272C347.203 262.845 347.139 262.504 347.011 262.248C346.893 261.981 346.712 261.779 346.467 261.64C346.232 261.501 345.933 261.411 345.571 261.368C345.208 261.315 344.787 261.288 344.307 261.288H343.315V265.464ZM355.171 270.12H355.139C355.043 270.195 354.904 270.296 354.723 270.424C354.542 270.541 354.334 270.659 354.099 270.776C353.864 270.893 353.603 270.995 353.315 271.08C353.038 271.165 352.755 271.208 352.467 271.208C352.072 271.208 351.736 271.155 351.459 271.048C351.182 270.952 350.958 270.787 350.787 270.552C350.616 270.317 350.494 270.008 350.419 269.624C350.344 269.24 350.307 268.76 350.307 268.184V262.952H351.587V267.992C351.587 268.312 351.592 268.6 351.603 268.856C351.614 269.112 351.651 269.331 351.715 269.512C351.779 269.693 351.88 269.837 352.019 269.944C352.168 270.04 352.376 270.088 352.643 270.088C352.92 270.088 353.208 270.029 353.507 269.912C353.806 269.795 354.078 269.661 354.323 269.512C354.611 269.341 354.894 269.149 355.171 268.936V262.952H356.451V269.96C356.462 270.344 356.488 270.691 356.531 271L355.267 271.128L355.171 270.12ZM358.777 259.016L360.057 258.872V271H358.777V259.016ZM367.171 270.12H367.139C367.043 270.195 366.904 270.296 366.723 270.424C366.542 270.541 366.334 270.659 366.099 270.776C365.864 270.893 365.603 270.995 365.315 271.08C365.038 271.165 364.755 271.208 364.467 271.208C364.072 271.208 363.736 271.155 363.459 271.048C363.182 270.952 362.958 270.787 362.787 270.552C362.616 270.317 362.494 270.008 362.419 269.624C362.344 269.24 362.307 268.76 362.307 268.184V262.952H363.587V267.992C363.587 268.312 363.592 268.6 363.603 268.856C363.614 269.112 363.651 269.331 363.715 269.512C363.779 269.693 363.88 269.837 364.019 269.944C364.168 270.04 364.376 270.088 364.643 270.088C364.92 270.088 365.208 270.029 365.507 269.912C365.806 269.795 366.078 269.661 366.323 269.512C366.611 269.341 366.894 269.149 367.171 268.936V262.952H368.451V269.96C368.462 270.344 368.488 270.691 368.531 271L367.267 271.128L367.171 270.12ZM370.793 264.408C370.793 264.045 370.761 263.608 370.697 263.096L371.897 262.936L372.073 263.944C372.361 263.731 372.644 263.544 372.921 263.384C373.198 263.224 373.497 263.085 373.817 262.968C374.137 262.851 374.462 262.792 374.793 262.792C375.326 262.792 375.748 262.888 376.057 263.08C376.366 263.261 376.596 263.576 376.745 264.024C377.182 263.715 377.636 263.432 378.105 263.176C378.585 262.92 379.081 262.792 379.593 262.792C379.988 262.792 380.324 262.845 380.601 262.952C380.878 263.048 381.102 263.213 381.273 263.448C381.444 263.683 381.566 263.992 381.641 264.376C381.716 264.76 381.753 265.24 381.753 265.816V271H380.473V265.96C380.473 265.64 380.468 265.357 380.457 265.112C380.446 264.856 380.409 264.643 380.345 264.472C380.281 264.291 380.174 264.152 380.025 264.056C379.886 263.96 379.684 263.912 379.417 263.912C379.172 263.912 378.937 263.949 378.713 264.024C378.5 264.088 378.276 264.184 378.041 264.312C377.806 264.44 377.444 264.701 376.953 265.096V271H375.673V265.96C375.673 265.64 375.668 265.357 375.657 265.112C375.646 264.856 375.609 264.643 375.545 264.472C375.481 264.291 375.374 264.152 375.225 264.056C375.086 263.96 374.884 263.912 374.617 263.912C374.34 263.912 374.052 263.971 373.753 264.088C373.454 264.205 373.172 264.344 372.905 264.504C372.638 264.664 372.361 264.851 372.073 265.064V271H370.793V264.408ZM384.011 262.936L385.291 262.792V271H384.011V262.936ZM383.803 260.648C383.803 260.403 383.883 260.2 384.043 260.04C384.214 259.869 384.422 259.784 384.667 259.784C384.923 259.784 385.137 259.869 385.307 260.04C385.489 260.2 385.579 260.403 385.579 260.648C385.579 260.893 385.489 261.101 385.307 261.272C385.137 261.432 384.923 261.512 384.667 261.512C384.422 261.512 384.214 261.432 384.043 261.272C383.883 261.101 383.803 260.893 383.803 260.648ZM335.606 280.808C335.606 280.424 335.579 279.853 335.526 279.096L336.71 278.936L336.854 279.8C337.067 279.619 337.286 279.459 337.51 279.32C337.744 279.171 337.995 279.048 338.262 278.952C338.539 278.845 338.832 278.792 339.141 278.792C339.579 278.792 339.99 278.867 340.374 279.016C340.768 279.165 341.11 279.405 341.398 279.736C341.696 280.067 341.931 280.499 342.102 281.032C342.272 281.555 342.358 282.2 342.358 282.968C342.358 283.747 342.24 284.408 342.006 284.952C341.782 285.485 341.483 285.923 341.11 286.264C340.747 286.595 340.331 286.835 339.862 286.984C339.403 287.133 338.934 287.208 338.454 287.208C337.942 287.197 337.419 287.133 336.886 287.016V290.488L335.606 290.648V280.808ZM338.454 286.088C338.902 286.088 339.286 286.008 339.606 285.848C339.926 285.688 340.187 285.469 340.39 285.192C340.603 284.904 340.758 284.579 340.854 284.216C340.95 283.843 340.998 283.448 340.998 283.032C340.998 282.659 340.96 282.285 340.886 281.912C340.822 281.539 340.71 281.208 340.55 280.92C340.4 280.621 340.198 280.381 339.942 280.2C339.686 280.008 339.371 279.912 338.998 279.912C338.72 279.912 338.459 279.965 338.214 280.072C337.968 280.168 337.734 280.291 337.51 280.44C337.296 280.579 337.088 280.739 336.886 280.92V285.832C337.003 285.875 337.131 285.917 337.27 285.96C337.419 285.992 337.59 286.024 337.782 286.056C337.984 286.077 338.208 286.088 338.454 286.088ZM344.246 280.248C344.246 280.003 344.219 279.619 344.166 279.096L345.35 278.936L345.478 280.104H345.494C345.686 279.859 345.873 279.645 346.054 279.464C346.235 279.283 346.422 279.128 346.614 279C346.817 278.861 347.009 278.792 347.19 278.792C347.435 278.781 347.777 278.808 348.214 278.872L347.926 280.104C347.574 280.04 347.329 280.013 347.19 280.024C347.009 280.024 346.817 280.109 346.614 280.28C346.411 280.451 346.235 280.632 346.086 280.824C345.894 281.059 345.707 281.325 345.526 281.624V287H344.246V280.248ZM350.298 283.016C350.298 284.051 350.528 284.824 350.986 285.336C351.456 285.837 352.085 286.088 352.874 286.088C353.653 286.088 354.261 285.837 354.698 285.336C355.136 284.835 355.354 284.083 355.354 283.08C355.354 282.013 355.12 281.219 354.65 280.696C354.192 280.173 353.562 279.912 352.762 279.912C351.962 279.912 351.349 280.173 350.922 280.696C350.506 281.208 350.298 281.981 350.298 283.016ZM348.938 283C348.938 282.189 349.066 281.517 349.322 280.984C349.578 280.44 349.904 280.008 350.298 279.688C350.693 279.357 351.114 279.128 351.562 279C352.021 278.861 352.453 278.792 352.858 278.792C353.242 278.792 353.658 278.856 354.106 278.984C354.565 279.101 354.986 279.32 355.37 279.64C355.754 279.949 356.074 280.371 356.33 280.904C356.586 281.427 356.714 282.093 356.714 282.904C356.714 283.747 356.581 284.445 356.314 285C356.058 285.555 355.733 285.997 355.338 286.328C354.944 286.648 354.517 286.872 354.058 287C353.6 287.139 353.173 287.208 352.778 287.208C352.373 287.208 351.946 287.144 351.498 287.016C351.05 286.888 350.634 286.669 350.25 286.36C349.877 286.04 349.562 285.608 349.306 285.064C349.061 284.52 348.938 283.832 348.938 283ZM364.878 287.768C364.878 288.163 364.835 288.547 364.75 288.92C364.665 289.293 364.499 289.624 364.254 289.912C364.019 290.211 363.683 290.445 363.246 290.616C362.819 290.797 362.254 290.888 361.55 290.888C361.102 290.877 360.713 290.851 360.382 290.808C360.051 290.765 359.737 290.701 359.438 290.616C359.139 290.541 358.867 290.451 358.622 290.344L358.958 289.224C359.374 289.405 359.795 289.544 360.222 289.64C360.659 289.736 361.049 289.784 361.39 289.784C361.763 289.784 362.089 289.747 362.366 289.672C362.643 289.597 362.873 289.469 363.054 289.288C363.246 289.117 363.385 288.888 363.47 288.6C363.566 288.312 363.614 287.955 363.614 287.528V286.36C363.39 286.509 363.155 286.648 362.91 286.776C362.675 286.893 362.419 286.995 362.142 287.08C361.875 287.165 361.614 287.208 361.358 287.208C360.366 287.208 359.582 286.861 359.006 286.168C358.43 285.464 358.142 284.419 358.142 283.032C358.142 282.232 358.265 281.565 358.51 281.032C358.766 280.488 359.086 280.051 359.47 279.72C359.854 279.389 360.275 279.155 360.734 279.016C361.193 278.867 361.63 278.792 362.046 278.792C362.59 278.792 363.086 278.84 363.534 278.936C363.993 279.021 364.441 279.091 364.878 279.144V287.768ZM361.502 286.088C361.737 286.088 361.977 286.045 362.222 285.96C362.467 285.875 362.702 285.773 362.926 285.656C363.161 285.539 363.39 285.4 363.614 285.24V280.136C363.486 280.104 363.337 280.067 363.166 280.024C363.017 280.003 362.846 279.981 362.654 279.96C362.462 279.928 362.259 279.912 362.046 279.912C361.598 279.912 361.214 279.992 360.894 280.152C360.574 280.312 360.307 280.531 360.094 280.808C359.891 281.085 359.742 281.411 359.646 281.784C359.55 282.157 359.502 282.552 359.502 282.968C359.502 283.341 359.539 283.715 359.614 284.088C359.699 284.461 359.827 284.797 359.998 285.096C360.169 285.395 360.377 285.635 360.622 285.816C360.867 285.997 361.161 286.088 361.502 286.088ZM367.199 280.248C367.199 280.003 367.173 279.619 367.119 279.096L368.303 278.936L368.431 280.104H368.447C368.639 279.859 368.826 279.645 369.007 279.464C369.189 279.283 369.375 279.128 369.567 279C369.77 278.861 369.962 278.792 370.143 278.792C370.389 278.781 370.73 278.808 371.167 278.872L370.879 280.104C370.527 280.04 370.282 280.013 370.143 280.024C369.962 280.024 369.77 280.109 369.567 280.28C369.365 280.451 369.189 280.632 369.039 280.824C368.847 281.059 368.661 281.325 368.479 281.624V287H367.199V280.248ZM376.945 283.304C376.731 283.315 376.529 283.325 376.337 283.336C376.145 283.347 375.953 283.363 375.761 283.384C375.579 283.395 375.414 283.411 375.265 283.432C374.497 283.528 373.953 283.699 373.633 283.944C373.313 284.179 373.153 284.52 373.153 284.968C373.153 285.341 373.265 285.624 373.489 285.816C373.723 285.997 374.027 286.088 374.401 286.088C374.913 286.088 375.366 286.003 375.761 285.832C376.166 285.651 376.561 285.416 376.945 285.128V283.304ZM376.929 286.248C376.427 286.536 375.958 286.771 375.521 286.952C375.094 287.123 374.63 287.208 374.129 287.208C373.414 287.208 372.843 287.037 372.417 286.696C372.001 286.344 371.793 285.768 371.793 284.968C371.793 284.552 371.899 284.189 372.113 283.88C372.326 283.571 372.603 283.315 372.945 283.112C373.297 282.899 373.691 282.733 374.129 282.616C374.566 282.499 375.014 282.424 375.473 282.392C375.665 282.371 375.915 282.355 376.225 282.344C376.534 282.323 376.774 282.307 376.945 282.296C376.945 281.923 376.934 281.592 376.913 281.304C376.891 281.005 376.827 280.755 376.721 280.552C376.614 280.339 376.454 280.179 376.241 280.072C376.038 279.965 375.745 279.912 375.361 279.912C375.051 279.912 374.753 279.933 374.465 279.976C374.177 280.008 373.921 280.045 373.697 280.088C373.43 280.141 373.185 280.2 372.961 280.264L372.705 279.16C372.971 279.096 373.259 279.037 373.569 278.984C373.835 278.931 374.145 278.888 374.497 278.856C374.849 278.813 375.227 278.792 375.633 278.792C376.177 278.792 376.614 278.872 376.945 279.032C377.286 279.192 377.547 279.411 377.729 279.688C377.921 279.955 378.049 280.264 378.113 280.616C378.187 280.957 378.225 281.32 378.225 281.704V285.544C378.225 285.693 378.225 285.853 378.225 286.024C378.235 286.184 378.246 286.344 378.257 286.504C378.278 286.664 378.299 286.829 378.321 287L377.089 287.128L376.929 286.248ZM380.496 280.408C380.496 280.045 380.464 279.608 380.4 279.096L381.6 278.936L381.776 279.944C382.064 279.731 382.347 279.544 382.624 279.384C382.901 279.224 383.2 279.085 383.52 278.968C383.84 278.851 384.165 278.792 384.496 278.792C385.029 278.792 385.451 278.888 385.76 279.08C386.069 279.261 386.299 279.576 386.448 280.024C386.885 279.715 387.339 279.432 387.808 279.176C388.288 278.92 388.784 278.792 389.296 278.792C389.691 278.792 390.027 278.845 390.304 278.952C390.581 279.048 390.805 279.213 390.976 279.448C391.147 279.683 391.269 279.992 391.344 280.376C391.419 280.76 391.456 281.24 391.456 281.816V287H390.176V281.96C390.176 281.64 390.171 281.357 390.16 281.112C390.149 280.856 390.112 280.643 390.048 280.472C389.984 280.291 389.877 280.152 389.728 280.056C389.589 279.96 389.387 279.912 389.12 279.912C388.875 279.912 388.64 279.949 388.416 280.024C388.203 280.088 387.979 280.184 387.744 280.312C387.509 280.44 387.147 280.701 386.656 281.096V287H385.376V281.96C385.376 281.64 385.371 281.357 385.36 281.112C385.349 280.856 385.312 280.643 385.248 280.472C385.184 280.291 385.077 280.152 384.928 280.056C384.789 279.96 384.587 279.912 384.32 279.912C384.043 279.912 383.755 279.971 383.456 280.088C383.157 280.205 382.875 280.344 382.608 280.504C382.341 280.664 382.064 280.851 381.776 281.064V287H380.496V280.408Z" fill="white"/>
<path d="M563.001 381.336H559.577V380.088H567.769V381.336H564.345V391H563.001V381.336ZM569.447 380.088H576.135V381.32H570.791V384.808H575.751V386.008H570.791V391H569.447V380.088ZM581.52 384.408C581.52 384.045 581.488 383.608 581.424 383.096L582.624 382.936L582.8 383.944C583.088 383.731 583.37 383.544 583.648 383.384C583.925 383.224 584.224 383.085 584.544 382.968C584.864 382.851 585.189 382.792 585.52 382.792C586.053 382.792 586.474 382.888 586.784 383.08C587.093 383.261 587.322 383.576 587.472 384.024C587.909 383.715 588.362 383.432 588.832 383.176C589.312 382.92 589.808 382.792 590.32 382.792C590.714 382.792 591.05 382.845 591.328 382.952C591.605 383.048 591.829 383.213 592 383.448C592.17 383.683 592.293 383.992 592.368 384.376C592.442 384.76 592.48 385.24 592.48 385.816V391H591.2V385.96C591.2 385.64 591.194 385.357 591.184 385.112C591.173 384.856 591.136 384.643 591.072 384.472C591.008 384.291 590.901 384.152 590.752 384.056C590.613 383.96 590.41 383.912 590.144 383.912C589.898 383.912 589.664 383.949 589.44 384.024C589.226 384.088 589.002 384.184 588.768 384.312C588.533 384.44 588.17 384.701 587.68 385.096V391H586.4V385.96C586.4 385.64 586.394 385.357 586.384 385.112C586.373 384.856 586.336 384.643 586.272 384.472C586.208 384.291 586.101 384.152 585.952 384.056C585.813 383.96 585.61 383.912 585.344 383.912C585.066 383.912 584.778 383.971 584.48 384.088C584.181 384.205 583.898 384.344 583.632 384.504C583.365 384.664 583.088 384.851 582.8 385.064V391H581.52V384.408ZM599.218 387.304C599.005 387.315 598.802 387.325 598.61 387.336C598.418 387.347 598.226 387.363 598.034 387.384C597.853 387.395 597.687 387.411 597.538 387.432C596.77 387.528 596.226 387.699 595.906 387.944C595.586 388.179 595.426 388.52 595.426 388.968C595.426 389.341 595.538 389.624 595.762 389.816C595.997 389.997 596.301 390.088 596.674 390.088C597.186 390.088 597.639 390.003 598.034 389.832C598.439 389.651 598.834 389.416 599.218 389.128V387.304ZM599.202 390.248C598.701 390.536 598.231 390.771 597.794 390.952C597.367 391.123 596.903 391.208 596.402 391.208C595.687 391.208 595.117 391.037 594.69 390.696C594.274 390.344 594.066 389.768 594.066 388.968C594.066 388.552 594.173 388.189 594.386 387.88C594.599 387.571 594.877 387.315 595.218 387.112C595.57 386.899 595.965 386.733 596.402 386.616C596.839 386.499 597.287 386.424 597.746 386.392C597.938 386.371 598.189 386.355 598.498 386.344C598.807 386.323 599.047 386.307 599.218 386.296C599.218 385.923 599.207 385.592 599.186 385.304C599.165 385.005 599.101 384.755 598.994 384.552C598.887 384.339 598.727 384.179 598.514 384.072C598.311 383.965 598.018 383.912 597.634 383.912C597.325 383.912 597.026 383.933 596.738 383.976C596.45 384.008 596.194 384.045 595.97 384.088C595.703 384.141 595.458 384.2 595.234 384.264L594.978 383.16C595.245 383.096 595.533 383.037 595.842 382.984C596.109 382.931 596.418 382.888 596.77 382.856C597.122 382.813 597.501 382.792 597.906 382.792C598.45 382.792 598.887 382.872 599.218 383.032C599.559 383.192 599.821 383.411 600.002 383.688C600.194 383.955 600.322 384.264 600.386 384.616C600.461 384.957 600.498 385.32 600.498 385.704V389.544C600.498 389.693 600.498 389.853 600.498 390.024C600.509 390.184 600.519 390.344 600.53 390.504C600.551 390.664 600.573 390.829 600.594 391L599.362 391.128L599.202 390.248ZM602.77 384.552C602.78 384.328 602.754 383.843 602.69 383.096L603.874 382.936L604.05 383.96C604.37 383.747 604.684 383.56 604.994 383.4C605.314 383.24 605.639 383.101 605.97 382.984C606.3 382.856 606.62 382.792 606.93 382.792C607.367 382.792 607.73 382.845 608.018 382.952C608.316 383.048 608.556 383.213 608.738 383.448C608.919 383.683 609.047 383.992 609.122 384.376C609.207 384.76 609.25 385.24 609.25 385.816V391H607.97V385.96C607.97 385.64 607.964 385.357 607.954 385.112C607.943 384.856 607.895 384.643 607.81 384.472C607.735 384.291 607.612 384.152 607.442 384.056C607.282 383.96 607.052 383.912 606.754 383.912C606.476 383.912 606.183 383.976 605.874 384.104C605.564 384.221 605.26 384.36 604.962 384.52C604.663 384.68 604.359 384.867 604.05 385.08V391H602.77V384.552ZM615.984 387.304C615.77 387.315 615.568 387.325 615.376 387.336C615.184 387.347 614.992 387.363 614.8 387.384C614.618 387.395 614.453 387.411 614.304 387.432C613.536 387.528 612.992 387.699 612.672 387.944C612.352 388.179 612.192 388.52 612.192 388.968C612.192 389.341 612.304 389.624 612.528 389.816C612.762 389.997 613.066 390.088 613.44 390.088C613.952 390.088 614.405 390.003 614.8 389.832C615.205 389.651 615.6 389.416 615.984 389.128V387.304ZM615.968 390.248C615.466 390.536 614.997 390.771 614.56 390.952C614.133 391.123 613.669 391.208 613.168 391.208C612.453 391.208 611.882 391.037 611.456 390.696C611.04 390.344 610.832 389.768 610.832 388.968C610.832 388.552 610.938 388.189 611.152 387.88C611.365 387.571 611.642 387.315 611.984 387.112C612.336 386.899 612.73 386.733 613.168 386.616C613.605 386.499 614.053 386.424 614.512 386.392C614.704 386.371 614.954 386.355 615.264 386.344C615.573 386.323 615.813 386.307 615.984 386.296C615.984 385.923 615.973 385.592 615.952 385.304C615.93 385.005 615.866 384.755 615.76 384.552C615.653 384.339 615.493 384.179 615.28 384.072C615.077 383.965 614.784 383.912 614.4 383.912C614.09 383.912 613.792 383.933 613.504 383.976C613.216 384.008 612.96 384.045 612.736 384.088C612.469 384.141 612.224 384.2 612 384.264L611.744 383.16C612.01 383.096 612.298 383.037 612.608 382.984C612.874 382.931 613.184 382.888 613.536 382.856C613.888 382.813 614.266 382.792 614.672 382.792C615.216 382.792 615.653 382.872 615.984 383.032C616.325 383.192 616.586 383.411 616.768 383.688C616.96 383.955 617.088 384.264 617.152 384.616C617.226 384.957 617.264 385.32 617.264 385.704V389.544C617.264 389.693 617.264 389.853 617.264 390.024C617.274 390.184 617.285 390.344 617.296 390.504C617.317 390.664 617.338 390.829 617.36 391L616.128 391.128L615.968 390.248ZM625.823 391.768C625.823 392.163 625.781 392.547 625.695 392.92C625.61 393.293 625.445 393.624 625.199 393.912C624.965 394.211 624.629 394.445 624.191 394.616C623.765 394.797 623.199 394.888 622.495 394.888C622.047 394.877 621.658 394.851 621.327 394.808C620.997 394.765 620.682 394.701 620.383 394.616C620.085 394.541 619.813 394.451 619.567 394.344L619.903 393.224C620.319 393.405 620.741 393.544 621.167 393.64C621.605 393.736 621.994 393.784 622.335 393.784C622.709 393.784 623.034 393.747 623.311 393.672C623.589 393.597 623.818 393.469 623.999 393.288C624.191 393.117 624.33 392.888 624.415 392.6C624.511 392.312 624.559 391.955 624.559 391.528V390.36C624.335 390.509 624.101 390.648 623.855 390.776C623.621 390.893 623.365 390.995 623.087 391.08C622.821 391.165 622.559 391.208 622.303 391.208C621.311 391.208 620.527 390.861 619.951 390.168C619.375 389.464 619.087 388.419 619.087 387.032C619.087 386.232 619.21 385.565 619.455 385.032C619.711 384.488 620.031 384.051 620.415 383.72C620.799 383.389 621.221 383.155 621.679 383.016C622.138 382.867 622.575 382.792 622.991 382.792C623.535 382.792 624.031 382.84 624.479 382.936C624.938 383.021 625.386 383.091 625.823 383.144V391.768ZM622.447 390.088C622.682 390.088 622.922 390.045 623.167 389.96C623.413 389.875 623.647 389.773 623.871 389.656C624.106 389.539 624.335 389.4 624.559 389.24V384.136C624.431 384.104 624.282 384.067 624.111 384.024C623.962 384.003 623.791 383.981 623.599 383.96C623.407 383.928 623.205 383.912 622.991 383.912C622.543 383.912 622.159 383.992 621.839 384.152C621.519 384.312 621.253 384.531 621.039 384.808C620.837 385.085 620.687 385.411 620.591 385.784C620.495 386.157 620.447 386.552 620.447 386.968C620.447 387.341 620.485 387.715 620.559 388.088C620.645 388.461 620.773 388.797 620.943 389.096C621.114 389.395 621.322 389.635 621.567 389.816C621.813 389.997 622.106 390.088 622.447 390.088ZM634.081 390.808C633.835 390.883 633.579 390.947 633.313 391C633.057 391.053 632.769 391.101 632.449 391.144C632.139 391.187 631.814 391.208 631.473 391.208C630.939 391.208 630.443 391.133 629.985 390.984C629.526 390.835 629.126 390.595 628.785 390.264C628.443 389.933 628.171 389.507 627.969 388.984C627.777 388.451 627.681 387.8 627.681 387.032C627.681 386.339 627.777 385.731 627.969 385.208C628.161 384.675 628.422 384.232 628.753 383.88C629.094 383.517 629.489 383.245 629.937 383.064C630.395 382.883 630.891 382.792 631.425 382.792C631.947 382.792 632.401 382.893 632.785 383.096C633.169 383.299 633.483 383.576 633.729 383.928C633.985 384.269 634.171 384.675 634.289 385.144C634.417 385.603 634.481 386.088 634.481 386.6L634.241 387.304H629.073C629.073 387.635 629.115 387.965 629.201 388.296C629.286 388.627 629.43 388.925 629.633 389.192C629.846 389.459 630.118 389.677 630.449 389.848C630.79 390.008 631.211 390.088 631.713 390.088C632.033 390.088 632.326 390.072 632.593 390.04C632.859 389.997 633.089 389.955 633.281 389.912C633.483 389.859 633.67 389.8 633.841 389.736L634.081 390.808ZM633.153 386.28C633.153 386.205 633.137 386.04 633.105 385.784C633.073 385.528 632.998 385.261 632.881 384.984C632.763 384.707 632.582 384.461 632.337 384.248C632.091 384.024 631.766 383.912 631.361 383.912C630.913 383.912 630.545 384.008 630.257 384.2C629.969 384.381 629.739 384.6 629.569 384.856C629.398 385.112 629.281 385.373 629.217 385.64C629.153 385.907 629.121 386.12 629.121 386.28H633.153ZM641.246 384.152C640.862 384.045 640.564 383.981 640.35 383.96C640.137 383.928 639.918 383.912 639.694 383.912C639.246 383.912 638.862 383.992 638.542 384.152C638.222 384.312 637.956 384.536 637.742 384.824C637.54 385.101 637.39 385.427 637.294 385.8C637.198 386.163 637.15 386.552 637.15 386.968C637.15 387.341 637.188 387.715 637.262 388.088C637.348 388.461 637.476 388.797 637.646 389.096C637.817 389.395 638.025 389.635 638.27 389.816C638.516 389.997 638.809 390.088 639.15 390.088C639.385 390.088 639.625 390.045 639.87 389.96C640.126 389.875 640.361 389.779 640.574 389.672C640.788 389.555 641.012 389.411 641.246 389.24V384.152ZM641.262 390.36C641.017 390.531 640.777 390.675 640.542 390.792C640.318 390.899 640.068 390.995 639.79 391.08C639.524 391.165 639.262 391.208 639.006 391.208C638.004 391.208 637.214 390.856 636.638 390.152C636.073 389.437 635.79 388.397 635.79 387.032C635.79 386.221 635.918 385.544 636.174 385C636.441 384.456 636.772 384.024 637.166 383.704C637.561 383.373 637.982 383.139 638.43 383C638.889 382.861 639.31 382.792 639.694 382.792C639.886 382.792 640.089 382.808 640.302 382.84C640.516 382.861 640.83 382.925 641.246 383.032V379.016L642.526 378.872V389.544C642.526 389.693 642.526 389.853 642.526 390.024C642.537 390.184 642.548 390.344 642.558 390.504C642.58 390.664 642.601 390.829 642.622 391L641.39 391.128L641.262 390.36ZM556.722 398.936L558.002 398.792V407H556.722V398.936ZM556.514 396.648C556.514 396.403 556.594 396.2 556.754 396.04C556.925 395.869 557.133 395.784 557.378 395.784C557.634 395.784 557.848 395.869 558.018 396.04C558.2 396.2 558.29 396.403 558.29 396.648C558.29 396.893 558.2 397.101 558.018 397.272C557.848 397.432 557.634 397.512 557.378 397.512C557.133 397.512 556.925 397.432 556.754 397.272C556.594 397.101 556.514 396.893 556.514 396.648ZM560.316 400.552C560.327 400.328 560.3 399.843 560.236 399.096L561.42 398.936L561.596 399.96C561.916 399.747 562.231 399.56 562.54 399.4C562.86 399.24 563.186 399.101 563.516 398.984C563.847 398.856 564.167 398.792 564.476 398.792C564.914 398.792 565.276 398.845 565.564 398.952C565.863 399.048 566.103 399.213 566.284 399.448C566.466 399.683 566.594 399.992 566.668 400.376C566.754 400.76 566.796 401.24 566.796 401.816V407H565.516V401.96C565.516 401.64 565.511 401.357 565.5 401.112C565.49 400.856 565.442 400.643 565.356 400.472C565.282 400.291 565.159 400.152 564.988 400.056C564.828 399.96 564.599 399.912 564.3 399.912C564.023 399.912 563.73 399.976 563.42 400.104C563.111 400.221 562.807 400.36 562.508 400.52C562.21 400.68 561.906 400.867 561.596 401.08V407H560.316V400.552ZM569.738 399.992H568.25V398.952H569.738C569.738 398.205 569.786 397.576 569.882 397.064C569.989 396.541 570.154 396.12 570.378 395.8C570.602 395.469 570.89 395.235 571.242 395.096C571.594 394.947 572.021 394.872 572.522 394.872C572.928 394.872 573.306 394.941 573.658 395.08C574.01 395.208 574.293 395.368 574.506 395.56L573.946 396.52C573.733 396.36 573.509 396.232 573.274 396.136C573.05 396.04 572.805 395.992 572.538 395.992C572.186 395.992 571.909 396.072 571.706 396.232C571.504 396.381 571.349 396.589 571.242 396.856C571.146 397.123 571.082 397.437 571.05 397.8C571.029 398.152 571.018 398.536 571.018 398.952H573.018V399.992H571.018V407H569.738V399.992ZM574.504 400.248C574.504 400.003 574.477 399.619 574.424 399.096L575.608 398.936L575.736 400.104H575.752C575.944 399.859 576.131 399.645 576.312 399.464C576.493 399.283 576.68 399.128 576.872 399C577.075 398.861 577.267 398.792 577.448 398.792C577.693 398.781 578.035 398.808 578.472 398.872L578.184 400.104C577.832 400.04 577.587 400.013 577.448 400.024C577.267 400.024 577.075 400.109 576.872 400.28C576.669 400.451 576.493 400.632 576.344 400.824C576.152 401.059 575.965 401.325 575.784 401.624V407H574.504V400.248ZM584.249 403.304C584.036 403.315 583.833 403.325 583.641 403.336C583.449 403.347 583.257 403.363 583.065 403.384C582.884 403.395 582.719 403.411 582.569 403.432C581.801 403.528 581.257 403.699 580.937 403.944C580.617 404.179 580.457 404.52 580.457 404.968C580.457 405.341 580.569 405.624 580.793 405.816C581.028 405.997 581.332 406.088 581.705 406.088C582.217 406.088 582.671 406.003 583.065 405.832C583.471 405.651 583.865 405.416 584.249 405.128V403.304ZM584.233 406.248C583.732 406.536 583.263 406.771 582.825 406.952C582.399 407.123 581.935 407.208 581.433 407.208C580.719 407.208 580.148 407.037 579.721 406.696C579.305 406.344 579.097 405.768 579.097 404.968C579.097 404.552 579.204 404.189 579.417 403.88C579.631 403.571 579.908 403.315 580.249 403.112C580.601 402.899 580.996 402.733 581.433 402.616C581.871 402.499 582.319 402.424 582.777 402.392C582.969 402.371 583.22 402.355 583.529 402.344C583.839 402.323 584.079 402.307 584.249 402.296C584.249 401.923 584.239 401.592 584.217 401.304C584.196 401.005 584.132 400.755 584.025 400.552C583.919 400.339 583.759 400.179 583.545 400.072C583.343 399.965 583.049 399.912 582.665 399.912C582.356 399.912 582.057 399.933 581.769 399.976C581.481 400.008 581.225 400.045 581.001 400.088C580.735 400.141 580.489 400.2 580.265 400.264L580.009 399.16C580.276 399.096 580.564 399.037 580.873 398.984C581.14 398.931 581.449 398.888 581.801 398.856C582.153 398.813 582.532 398.792 582.937 398.792C583.481 398.792 583.919 398.872 584.249 399.032C584.591 399.192 584.852 399.411 585.033 399.688C585.225 399.955 585.353 400.264 585.417 400.616C585.492 400.957 585.529 401.32 585.529 401.704V405.544C585.529 405.693 585.529 405.853 585.529 406.024C585.54 406.184 585.551 406.344 585.561 406.504C585.583 406.664 585.604 406.829 585.625 407L584.393 407.128L584.233 406.248ZM592.137 400.264C591.689 400.125 591.289 400.035 590.937 399.992C590.595 399.939 590.281 399.912 589.993 399.912C589.619 399.912 589.305 400.003 589.049 400.184C588.803 400.365 588.681 400.6 588.681 400.888C588.691 401.144 588.803 401.363 589.017 401.544C589.23 401.725 589.475 401.891 589.753 402.04C590.041 402.179 590.355 402.333 590.697 402.504C591.049 402.675 591.374 402.867 591.673 403.08C591.982 403.293 592.233 403.549 592.425 403.848C592.617 404.147 592.718 404.504 592.729 404.92C592.718 405.368 592.617 405.741 592.425 406.04C592.243 406.328 592.003 406.563 591.705 406.744C591.417 406.915 591.102 407.032 590.761 407.096C590.419 407.171 590.099 407.208 589.801 407.208C589.417 407.208 589.017 407.187 588.601 407.144C588.195 407.101 587.758 407.011 587.289 406.872L587.529 405.72C588.009 405.848 588.446 405.944 588.841 406.008C589.235 406.061 589.561 406.088 589.817 406.088C590.009 406.088 590.195 406.067 590.377 406.024C590.569 405.981 590.739 405.923 590.889 405.848C591.038 405.763 591.155 405.656 591.241 405.528C591.337 405.4 591.385 405.256 591.385 405.096C591.374 404.797 591.273 404.547 591.081 404.344C590.889 404.131 590.638 403.944 590.329 403.784C590.03 403.613 589.705 403.448 589.353 403.288C589.011 403.117 588.686 402.925 588.377 402.712C588.078 402.488 587.827 402.227 587.625 401.928C587.422 401.619 587.321 401.24 587.321 400.792C587.321 400.472 587.401 400.189 587.561 399.944C587.731 399.688 587.945 399.48 588.201 399.32C588.467 399.149 588.755 399.021 589.065 398.936C589.385 398.84 589.694 398.792 589.993 398.792C590.302 398.792 590.649 398.819 591.033 398.872C591.417 398.915 591.859 399 592.361 399.128L592.137 400.264ZM596.329 396.552V398.952H598.649V399.992H596.329V404.264C596.329 404.616 596.334 404.909 596.345 405.144C596.366 405.379 596.403 405.565 596.457 405.704C596.51 405.843 596.585 405.944 596.681 406.008C596.777 406.061 596.899 406.088 597.049 406.088C597.454 406.077 597.923 405.928 598.457 405.64L598.841 406.616C598.489 406.851 598.158 407.005 597.849 407.08C597.55 407.165 597.251 407.208 596.953 407.208C596.249 407.208 595.753 407.011 595.465 406.616C595.187 406.211 595.049 405.544 595.049 404.616V399.992H593.577V398.952H595.049V396.712L596.329 396.552ZM600.301 400.248C600.301 400.003 600.274 399.619 600.221 399.096L601.405 398.936L601.533 400.104H601.549C601.741 399.859 601.927 399.645 602.109 399.464C602.29 399.283 602.477 399.128 602.669 399C602.871 398.861 603.063 398.792 603.245 398.792C603.49 398.781 603.831 398.808 604.269 398.872L603.981 400.104C603.629 400.04 603.383 400.013 603.245 400.024C603.063 400.024 602.871 400.109 602.669 400.28C602.466 400.451 602.29 400.632 602.141 400.824C601.949 401.059 601.762 401.325 601.581 401.624V407H600.301V400.248ZM610.491 406.12H610.459C610.363 406.195 610.225 406.296 610.043 406.424C609.862 406.541 609.654 406.659 609.419 406.776C609.185 406.893 608.923 406.995 608.635 407.08C608.358 407.165 608.075 407.208 607.787 407.208C607.393 407.208 607.057 407.155 606.779 407.048C606.502 406.952 606.278 406.787 606.107 406.552C605.937 406.317 605.814 406.008 605.739 405.624C605.665 405.24 605.627 404.76 605.627 404.184V398.952H606.907V403.992C606.907 404.312 606.913 404.6 606.923 404.856C606.934 405.112 606.971 405.331 607.035 405.512C607.099 405.693 607.201 405.837 607.339 405.944C607.489 406.04 607.697 406.088 607.963 406.088C608.241 406.088 608.529 406.029 608.827 405.912C609.126 405.795 609.398 405.661 609.643 405.512C609.931 405.341 610.214 405.149 610.491 404.936V398.952H611.771V405.96C611.782 406.344 611.809 406.691 611.851 407L610.587 407.128L610.491 406.12ZM619.089 400.12C618.908 400.077 618.657 400.035 618.337 399.992C618.017 399.939 617.692 399.912 617.361 399.912C616.881 399.912 616.487 400.008 616.177 400.2C615.879 400.392 615.644 400.643 615.473 400.952C615.303 401.251 615.185 401.587 615.121 401.96C615.057 402.323 615.025 402.68 615.025 403.032C615.025 403.576 615.095 404.045 615.233 404.44C615.372 404.824 615.553 405.139 615.777 405.384C616.012 405.629 616.279 405.811 616.577 405.928C616.876 406.035 617.191 406.088 617.521 406.088C617.745 406.088 617.959 406.077 618.161 406.056C618.375 406.024 618.567 405.992 618.737 405.96C618.919 405.917 619.089 405.869 619.249 405.816L619.505 406.888C619.281 406.952 619.073 407.005 618.881 407.048C618.689 407.091 618.46 407.128 618.193 407.16C617.937 407.192 617.66 407.208 617.361 407.208C616.775 407.208 616.252 407.133 615.793 406.984C615.335 406.835 614.945 406.595 614.625 406.264C614.316 405.933 614.076 405.501 613.905 404.968C613.745 404.435 613.665 403.784 613.665 403.016C613.665 402.269 613.767 401.629 613.969 401.096C614.183 400.552 614.46 400.115 614.801 399.784C615.143 399.443 615.532 399.192 615.969 399.032C616.417 398.872 616.881 398.792 617.361 398.792C617.617 398.792 617.863 398.808 618.097 398.84C618.343 398.861 618.556 398.888 618.737 398.92C618.951 398.963 619.153 399.005 619.345 399.048L619.089 400.12ZM622.954 396.552V398.952H625.274V399.992H622.954V404.264C622.954 404.616 622.959 404.909 622.97 405.144C622.991 405.379 623.028 405.565 623.082 405.704C623.135 405.843 623.21 405.944 623.306 406.008C623.402 406.061 623.524 406.088 623.674 406.088C624.079 406.077 624.548 405.928 625.082 405.64L625.466 406.616C625.114 406.851 624.783 407.005 624.474 407.08C624.175 407.165 623.876 407.208 623.578 407.208C622.874 407.208 622.378 407.011 622.09 406.616C621.812 406.211 621.674 405.544 621.674 404.616V399.992H620.202V398.952H621.674V396.712L622.954 396.552ZM631.726 406.12H631.694C631.598 406.195 631.459 406.296 631.278 406.424C631.096 406.541 630.888 406.659 630.654 406.776C630.419 406.893 630.158 406.995 629.87 407.08C629.592 407.165 629.31 407.208 629.022 407.208C628.627 407.208 628.291 407.155 628.014 407.048C627.736 406.952 627.512 406.787 627.342 406.552C627.171 406.317 627.048 406.008 626.974 405.624C626.899 405.24 626.862 404.76 626.862 404.184V398.952H628.142V403.992C628.142 404.312 628.147 404.6 628.158 404.856C628.168 405.112 628.206 405.331 628.27 405.512C628.334 405.693 628.435 405.837 628.574 405.944C628.723 406.04 628.931 406.088 629.198 406.088C629.475 406.088 629.763 406.029 630.062 405.912C630.36 405.795 630.632 405.661 630.878 405.512C631.166 405.341 631.448 405.149 631.726 404.936V398.952H633.006V405.96C633.016 406.344 633.043 406.691 633.086 407L631.822 407.128L631.726 406.12ZM635.348 400.248C635.348 400.003 635.321 399.619 635.268 399.096L636.452 398.936L636.58 400.104H636.596C636.788 399.859 636.974 399.645 637.156 399.464C637.337 399.283 637.524 399.128 637.716 399C637.918 398.861 638.11 398.792 638.292 398.792C638.537 398.781 638.878 398.808 639.316 398.872L639.028 400.104C638.676 400.04 638.43 400.013 638.292 400.024C638.11 400.024 637.918 400.109 637.716 400.28C637.513 400.451 637.337 400.632 637.188 400.824C636.996 401.059 636.809 401.325 636.628 401.624V407H635.348V400.248ZM646.44 406.808C646.195 406.883 645.939 406.947 645.672 407C645.416 407.053 645.128 407.101 644.808 407.144C644.499 407.187 644.173 407.208 643.832 407.208C643.299 407.208 642.803 407.133 642.344 406.984C641.885 406.835 641.485 406.595 641.144 406.264C640.803 405.933 640.531 405.507 640.328 404.984C640.136 404.451 640.04 403.8 640.04 403.032C640.04 402.339 640.136 401.731 640.328 401.208C640.52 400.675 640.781 400.232 641.112 399.88C641.453 399.517 641.848 399.245 642.296 399.064C642.755 398.883 643.251 398.792 643.784 398.792C644.307 398.792 644.76 398.893 645.144 399.096C645.528 399.299 645.843 399.576 646.088 399.928C646.344 400.269 646.531 400.675 646.648 401.144C646.776 401.603 646.84 402.088 646.84 402.6L646.6 403.304H641.432C641.432 403.635 641.475 403.965 641.56 404.296C641.645 404.627 641.789 404.925 641.992 405.192C642.205 405.459 642.477 405.677 642.808 405.848C643.149 406.008 643.571 406.088 644.072 406.088C644.392 406.088 644.685 406.072 644.952 406.04C645.219 405.997 645.448 405.955 645.64 405.912C645.843 405.859 646.029 405.8 646.2 405.736L646.44 406.808ZM645.512 402.28C645.512 402.205 645.496 402.04 645.464 401.784C645.432 401.528 645.357 401.261 645.24 400.984C645.123 400.707 644.941 400.461 644.696 400.248C644.451 400.024 644.125 399.912 643.72 399.912C643.272 399.912 642.904 400.008 642.616 400.2C642.328 400.381 642.099 400.6 641.928 400.856C641.757 401.112 641.64 401.373 641.576 401.64C641.512 401.907 641.48 402.12 641.48 402.28H645.512Z" fill="white"/>
<path d="M97.3846 389.088H99.8966C101.283 389.088 102.307 389.333 102.969 389.824C103.641 390.315 103.977 391.141 103.977 392.304C103.977 392.944 103.854 393.477 103.609 393.904C103.363 394.331 103.054 394.677 102.681 394.944C102.318 395.2 101.923 395.387 101.497 395.504C101.07 395.611 100.675 395.664 100.313 395.664H98.7286V400H97.3846V389.088ZM98.7286 394.464H100.201C100.563 394.464 100.889 394.432 101.177 394.368C101.475 394.293 101.731 394.176 101.945 394.016C102.158 393.845 102.323 393.621 102.441 393.344C102.558 393.056 102.617 392.699 102.617 392.272C102.617 391.845 102.553 391.504 102.425 391.248C102.307 390.981 102.126 390.779 101.881 390.64C101.646 390.501 101.347 390.411 100.985 390.368C100.622 390.315 100.201 390.288 99.7206 390.288H98.7286V394.464ZM110.585 399.12H110.553C110.457 399.195 110.319 399.296 110.137 399.424C109.956 399.541 109.748 399.659 109.513 399.776C109.279 399.893 109.017 399.995 108.729 400.08C108.452 400.165 108.169 400.208 107.881 400.208C107.487 400.208 107.151 400.155 106.873 400.048C106.596 399.952 106.372 399.787 106.201 399.552C106.031 399.317 105.908 399.008 105.833 398.624C105.759 398.24 105.721 397.76 105.721 397.184V391.952H107.001V396.992C107.001 397.312 107.007 397.6 107.017 397.856C107.028 398.112 107.065 398.331 107.129 398.512C107.193 398.693 107.295 398.837 107.433 398.944C107.583 399.04 107.791 399.088 108.057 399.088C108.335 399.088 108.623 399.029 108.921 398.912C109.22 398.795 109.492 398.661 109.737 398.512C110.025 398.341 110.308 398.149 110.585 397.936V391.952H111.865V398.96C111.876 399.344 111.903 399.691 111.945 400L110.681 400.128L110.585 399.12ZM114.191 388.016L115.471 387.872V400H114.191V388.016ZM122.585 399.12H122.553C122.457 399.195 122.319 399.296 122.137 399.424C121.956 399.541 121.748 399.659 121.513 399.776C121.279 399.893 121.017 399.995 120.729 400.08C120.452 400.165 120.169 400.208 119.881 400.208C119.487 400.208 119.151 400.155 118.873 400.048C118.596 399.952 118.372 399.787 118.201 399.552C118.031 399.317 117.908 399.008 117.833 398.624C117.759 398.24 117.721 397.76 117.721 397.184V391.952H119.001V396.992C119.001 397.312 119.007 397.6 119.017 397.856C119.028 398.112 119.065 398.331 119.129 398.512C119.193 398.693 119.295 398.837 119.433 398.944C119.583 399.04 119.791 399.088 120.057 399.088C120.335 399.088 120.623 399.029 120.921 398.912C121.22 398.795 121.492 398.661 121.737 398.512C122.025 398.341 122.308 398.149 122.585 397.936V391.952H123.865V398.96C123.876 399.344 123.903 399.691 123.945 400L122.681 400.128L122.585 399.12ZM126.207 393.408C126.207 393.045 126.175 392.608 126.111 392.096L127.311 391.936L127.487 392.944C127.775 392.731 128.058 392.544 128.335 392.384C128.612 392.224 128.911 392.085 129.231 391.968C129.551 391.851 129.876 391.792 130.207 391.792C130.74 391.792 131.162 391.888 131.471 392.08C131.78 392.261 132.01 392.576 132.159 393.024C132.596 392.715 133.05 392.432 133.519 392.176C133.999 391.92 134.495 391.792 135.007 391.792C135.402 391.792 135.738 391.845 136.015 391.952C136.292 392.048 136.516 392.213 136.687 392.448C136.858 392.683 136.98 392.992 137.055 393.376C137.13 393.76 137.167 394.24 137.167 394.816V400H135.887V394.96C135.887 394.64 135.882 394.357 135.871 394.112C135.86 393.856 135.823 393.643 135.759 393.472C135.695 393.291 135.588 393.152 135.439 393.056C135.3 392.96 135.098 392.912 134.831 392.912C134.586 392.912 134.351 392.949 134.127 393.024C133.914 393.088 133.69 393.184 133.455 393.312C133.22 393.44 132.858 393.701 132.367 394.096V400H131.087V394.96C131.087 394.64 131.082 394.357 131.071 394.112C131.06 393.856 131.023 393.643 130.959 393.472C130.895 393.291 130.788 393.152 130.639 393.056C130.5 392.96 130.298 392.912 130.031 392.912C129.754 392.912 129.466 392.971 129.167 393.088C128.868 393.205 128.586 393.344 128.319 393.504C128.052 393.664 127.775 393.851 127.487 394.064V400H126.207V393.408ZM139.425 391.936L140.705 391.792V400H139.425V391.936ZM139.217 389.648C139.217 389.403 139.297 389.2 139.457 389.04C139.628 388.869 139.836 388.784 140.081 388.784C140.337 388.784 140.551 388.869 140.721 389.04C140.903 389.2 140.993 389.403 140.993 389.648C140.993 389.893 140.903 390.101 140.721 390.272C140.551 390.432 140.337 390.512 140.081 390.512C139.836 390.512 139.628 390.432 139.457 390.272C139.297 390.101 139.217 389.893 139.217 389.648ZM151.012 393.264C150.564 393.125 150.164 393.035 149.812 392.992C149.47 392.939 149.156 392.912 148.868 392.912C148.494 392.912 148.18 393.003 147.924 393.184C147.678 393.365 147.556 393.6 147.556 393.888C147.566 394.144 147.678 394.363 147.892 394.544C148.105 394.725 148.35 394.891 148.628 395.04C148.916 395.179 149.23 395.333 149.572 395.504C149.924 395.675 150.249 395.867 150.548 396.08C150.857 396.293 151.108 396.549 151.3 396.848C151.492 397.147 151.593 397.504 151.604 397.92C151.593 398.368 151.492 398.741 151.3 399.04C151.118 399.328 150.878 399.563 150.58 399.744C150.292 399.915 149.977 400.032 149.636 400.096C149.294 400.171 148.974 400.208 148.676 400.208C148.292 400.208 147.892 400.187 147.476 400.144C147.07 400.101 146.633 400.011 146.164 399.872L146.404 398.72C146.884 398.848 147.321 398.944 147.716 399.008C148.11 399.061 148.436 399.088 148.692 399.088C148.884 399.088 149.07 399.067 149.252 399.024C149.444 398.981 149.614 398.923 149.764 398.848C149.913 398.763 150.03 398.656 150.116 398.528C150.212 398.4 150.26 398.256 150.26 398.096C150.249 397.797 150.148 397.547 149.956 397.344C149.764 397.131 149.513 396.944 149.204 396.784C148.905 396.613 148.58 396.448 148.228 396.288C147.886 396.117 147.561 395.925 147.252 395.712C146.953 395.488 146.702 395.227 146.5 394.928C146.297 394.619 146.196 394.24 146.196 393.792C146.196 393.472 146.276 393.189 146.436 392.944C146.606 392.688 146.82 392.48 147.076 392.32C147.342 392.149 147.63 392.021 147.94 391.936C148.26 391.84 148.569 391.792 148.868 391.792C149.177 391.792 149.524 391.819 149.908 391.872C150.292 391.915 150.734 392 151.236 392.128L151.012 393.264ZM155.204 389.552V391.952H157.524V392.992H155.204V397.264C155.204 397.616 155.209 397.909 155.22 398.144C155.241 398.379 155.278 398.565 155.332 398.704C155.385 398.843 155.46 398.944 155.556 399.008C155.652 399.061 155.774 399.088 155.924 399.088C156.329 399.077 156.798 398.928 157.332 398.64L157.716 399.616C157.364 399.851 157.033 400.005 156.724 400.08C156.425 400.165 156.126 400.208 155.828 400.208C155.124 400.208 154.628 400.011 154.34 399.616C154.062 399.211 153.924 398.544 153.924 397.616V392.992H152.452V391.952H153.924V389.712L155.204 389.552ZM163.64 396.304C163.426 396.315 163.224 396.325 163.032 396.336C162.84 396.347 162.648 396.363 162.456 396.384C162.274 396.395 162.109 396.411 161.96 396.432C161.192 396.528 160.648 396.699 160.328 396.944C160.008 397.179 159.848 397.52 159.848 397.968C159.848 398.341 159.96 398.624 160.184 398.816C160.418 398.997 160.722 399.088 161.096 399.088C161.608 399.088 162.061 399.003 162.456 398.832C162.861 398.651 163.256 398.416 163.64 398.128V396.304ZM163.624 399.248C163.122 399.536 162.653 399.771 162.216 399.952C161.789 400.123 161.325 400.208 160.824 400.208C160.109 400.208 159.538 400.037 159.112 399.696C158.696 399.344 158.488 398.768 158.488 397.968C158.488 397.552 158.594 397.189 158.808 396.88C159.021 396.571 159.298 396.315 159.64 396.112C159.992 395.899 160.386 395.733 160.824 395.616C161.261 395.499 161.709 395.424 162.168 395.392C162.36 395.371 162.61 395.355 162.92 395.344C163.229 395.323 163.469 395.307 163.64 395.296C163.64 394.923 163.629 394.592 163.608 394.304C163.586 394.005 163.522 393.755 163.416 393.552C163.309 393.339 163.149 393.179 162.936 393.072C162.733 392.965 162.44 392.912 162.056 392.912C161.746 392.912 161.448 392.933 161.16 392.976C160.872 393.008 160.616 393.045 160.392 393.088C160.125 393.141 159.88 393.2 159.656 393.264L159.4 392.16C159.666 392.096 159.954 392.037 160.264 391.984C160.53 391.931 160.84 391.888 161.192 391.856C161.544 391.813 161.922 391.792 162.328 391.792C162.872 391.792 163.309 391.872 163.64 392.032C163.981 392.192 164.242 392.411 164.424 392.688C164.616 392.955 164.744 393.264 164.808 393.616C164.882 393.957 164.92 394.32 164.92 394.704V398.544C164.92 398.693 164.92 398.853 164.92 399.024C164.93 399.184 164.941 399.344 164.952 399.504C164.973 399.664 164.994 399.829 165.016 400L163.784 400.128L163.624 399.248ZM172.167 393.12C171.986 393.077 171.735 393.035 171.415 392.992C171.095 392.939 170.77 392.912 170.439 392.912C169.959 392.912 169.565 393.008 169.255 393.2C168.957 393.392 168.722 393.643 168.551 393.952C168.381 394.251 168.263 394.587 168.199 394.96C168.135 395.323 168.103 395.68 168.103 396.032C168.103 396.576 168.173 397.045 168.311 397.44C168.45 397.824 168.631 398.139 168.855 398.384C169.09 398.629 169.357 398.811 169.655 398.928C169.954 399.035 170.269 399.088 170.599 399.088C170.823 399.088 171.037 399.077 171.239 399.056C171.453 399.024 171.645 398.992 171.815 398.96C171.997 398.917 172.167 398.869 172.327 398.816L172.583 399.888C172.359 399.952 172.151 400.005 171.959 400.048C171.767 400.091 171.538 400.128 171.271 400.16C171.015 400.192 170.738 400.208 170.439 400.208C169.853 400.208 169.33 400.133 168.871 399.984C168.413 399.835 168.023 399.595 167.703 399.264C167.394 398.933 167.154 398.501 166.983 397.968C166.823 397.435 166.743 396.784 166.743 396.016C166.743 395.269 166.845 394.629 167.047 394.096C167.261 393.552 167.538 393.115 167.879 392.784C168.221 392.443 168.61 392.192 169.047 392.032C169.495 391.872 169.959 391.792 170.439 391.792C170.695 391.792 170.941 391.808 171.175 391.84C171.421 391.861 171.634 391.888 171.815 391.92C172.029 391.963 172.231 392.005 172.423 392.048L172.167 393.12ZM174.16 388.016L175.44 387.872V395.088L179.008 391.952H180.768L177.28 395.008L180.896 400H179.28L176.336 395.824L175.44 396.608V400H174.16V388.016Z" fill="white"/>
<path d="M414.065 233.058C414.649 232.47 414.646 231.52 414.059 230.936L404.485 221.418C403.897 220.834 402.948 220.837 402.364 221.424C401.78 222.012 401.782 222.962 402.37 223.546L410.88 232.006L402.419 240.516C401.835 241.104 401.838 242.053 402.426 242.638C403.013 243.222 403.963 243.219 404.547 242.631L414.065 233.058ZM242.004 234L413.006 233.5L412.997 230.5L241.996 231L242.004 234Z" fill="black"/>
<path d="M486.673 183.125C485.721 183.125 484.831 182.871 484.006 182.427L475.56 177.41C474.29 176.712 474.925 176.458 475.306 176.33C477.02 175.759 477.338 175.632 479.116 174.616C479.306 174.489 479.56 174.552 479.751 174.679L486.228 178.553C486.483 178.68 486.8 178.68 486.99 178.553L512.329 163.883C512.583 163.756 512.71 163.502 512.71 163.185V133.909C512.71 133.591 512.583 133.337 512.329 133.21L486.99 118.604C486.737 118.477 486.419 118.477 486.228 118.604L460.89 133.21C460.636 133.337 460.509 133.655 460.509 133.909V163.185C460.509 163.439 460.636 163.756 460.89 163.883L467.812 167.884C471.559 169.789 473.908 167.567 473.908 165.344V136.449C473.908 136.068 474.226 135.687 474.67 135.687H477.909C478.29 135.687 478.671 136.005 478.671 136.449V165.344C478.671 170.361 475.941 173.282 471.178 173.282C469.717 173.282 468.574 173.282 465.335 171.695L458.667 167.884C457.016 166.932 456 165.154 456 163.248V133.972C456 132.067 457.016 130.289 458.667 129.337L484.006 114.667C485.594 113.778 487.753 113.778 489.34 114.667L514.679 129.337C516.33 130.289 517.346 132.067 517.346 133.972V163.248C517.346 165.154 516.33 166.932 514.679 167.884L489.34 182.554C488.515 182.935 487.562 183.125 486.673 183.125ZM494.484 162.994C483.371 162.994 481.085 157.914 481.085 153.596C481.085 153.214 481.402 152.833 481.847 152.833H485.149C485.53 152.833 485.847 153.088 485.847 153.468C486.356 156.834 487.816 158.485 494.548 158.485C499.882 158.485 502.168 157.279 502.168 154.421C502.168 152.77 501.533 151.563 493.214 150.738C486.292 150.039 481.974 148.515 481.974 142.99C481.974 137.846 486.292 134.798 493.532 134.798C501.66 134.798 505.661 137.592 506.169 143.689C506.169 143.879 506.106 144.07 505.978 144.26C505.852 144.387 505.661 144.514 505.471 144.514H502.168C501.851 144.514 501.533 144.26 501.47 143.943C500.708 140.45 498.739 139.307 493.532 139.307C487.689 139.307 486.99 141.339 486.99 142.863C486.99 144.705 487.816 145.276 495.691 146.292C503.502 147.309 507.185 148.769 507.185 154.23C507.122 159.819 502.549 162.994 494.484 162.994Z" fill="#539E43"/>
<path d="M436.656 313.977C436.484 313.977 436.441 313.891 436.527 313.762L437.429 312.603C437.514 312.474 437.729 312.388 437.901 312.388H453.23C453.402 312.388 453.445 312.517 453.359 312.646L452.629 313.762C452.543 313.891 452.329 314.02 452.2 314.02L436.656 313.977Z" fill="#00ACD7"/>
<path d="M430.172 317.927C430 317.927 429.957 317.841 430.043 317.712L430.945 316.553C431.031 316.424 431.245 316.338 431.417 316.338H450.997C451.169 316.338 451.255 316.467 451.212 316.596L450.869 317.626C450.826 317.798 450.654 317.884 450.482 317.884L430.172 317.927Z" fill="#00ACD7"/>
<path d="M440.563 321.877C440.392 321.877 440.349 321.748 440.435 321.619L441.036 320.546C441.122 320.417 441.293 320.288 441.465 320.288H450.053C450.225 320.288 450.311 320.417 450.311 320.589L450.225 321.619C450.225 321.791 450.053 321.92 449.924 321.92L440.563 321.877Z" fill="#00ACD7"/>
<path d="M485.135 313.204C482.43 313.891 480.583 314.406 477.921 315.093C477.277 315.265 477.234 315.308 476.676 314.664C476.032 313.934 475.559 313.461 474.658 313.032C471.952 311.701 469.333 312.087 466.886 313.676C463.966 315.565 462.463 318.357 462.506 321.835C462.549 325.27 464.91 328.104 468.303 328.576C471.222 328.963 473.67 327.932 475.602 325.742C475.989 325.27 476.332 324.755 476.762 324.153C475.216 324.153 473.284 324.153 468.474 324.153C467.572 324.153 467.358 323.595 467.658 322.865C468.217 321.534 469.247 319.301 469.848 318.185C469.977 317.927 470.278 317.498 470.922 317.498C473.112 317.498 481.184 317.498 486.552 317.498C486.466 318.657 486.466 319.817 486.294 320.976C485.822 324.067 484.662 326.902 482.773 329.392C479.681 333.471 475.645 336.005 470.535 336.692C466.327 337.25 462.42 336.434 458.985 333.858C455.807 331.453 454.004 328.276 453.531 324.325C452.973 319.645 454.347 315.437 457.181 311.744C460.23 307.751 464.266 305.217 469.204 304.315C473.241 303.585 477.105 304.058 480.583 306.419C482.859 307.922 484.491 309.983 485.564 312.474C485.822 312.86 485.65 313.075 485.135 313.204Z" fill="#00ACD7"/>
<path d="M499.346 336.95C495.439 336.864 491.875 335.748 488.869 333.171C486.336 330.982 484.747 328.19 484.232 324.884C483.459 320.032 484.79 315.738 487.71 311.916C490.845 307.794 494.623 305.647 499.733 304.746C504.113 303.973 508.235 304.402 511.971 306.935C515.363 309.254 517.467 312.389 518.025 316.511C518.755 322.308 517.081 327.031 513.087 331.067C510.253 333.944 506.775 335.748 502.782 336.564C501.623 336.778 500.463 336.821 499.346 336.95ZM509.566 319.603C509.523 319.044 509.523 318.615 509.437 318.185C508.665 313.935 504.757 311.53 500.678 312.475C496.685 313.376 494.108 315.91 493.163 319.946C492.39 323.295 494.022 326.687 497.114 328.062C499.475 329.092 501.837 328.964 504.113 327.804C507.505 326.044 509.351 323.295 509.566 319.603Z" fill="#00ACD7"/>
<path d="M590.77 119.185C574.522 119.185 575.537 126.268 575.537 126.268L575.555 133.605H591.059V135.808H569.397C569.397 135.808 559 134.623 559 151.103C559 167.582 568.074 166.998 568.074 166.998H573.49V159.351C573.49 159.351 573.198 150.229 582.42 150.229C591.641 150.229 597.797 150.229 597.797 150.229C597.797 150.229 606.437 150.369 606.437 141.835C606.437 133.301 606.437 127.724 606.437 127.724C606.437 127.724 607.749 119.185 590.77 119.185ZM582.22 124.119C583.763 124.119 585.01 125.372 585.01 126.923C585.01 128.474 583.763 129.727 582.22 129.727C580.678 129.727 579.431 128.474 579.431 126.923C579.431 125.372 580.678 124.119 582.22 124.119Z" fill="url(#paint0_linear)"/>
<path d="M591.23 183.185C607.478 183.185 606.463 176.103 606.463 176.103L606.445 168.765H590.94V166.562H612.603C612.603 166.562 623 167.747 623 151.267C623 134.788 613.925 135.372 613.925 135.372H608.51V143.019C608.51 143.019 608.802 152.141 599.58 152.141C590.359 152.141 584.202 152.141 584.202 152.141C584.202 152.141 575.563 152.001 575.563 160.535C575.563 169.069 575.563 174.646 575.563 174.646C575.563 174.646 574.251 183.185 591.23 183.185ZM599.779 178.251C598.237 178.251 596.99 176.998 596.99 175.447C596.99 173.896 598.237 172.643 599.779 172.643C601.322 172.643 602.569 173.896 602.569 175.447C602.569 176.998 601.322 178.251 599.779 178.251Z" fill="url(#paint1_linear)"/>
<path d="M591.439 355.122C608.87 355.122 623 340.992 623 323.561C623 306.13 608.87 292 591.439 292C574.008 292 559.878 306.13 559.878 323.561C559.878 340.992 574.008 355.122 591.439 355.122Z" fill="#5C2D91"/>
<path opacity="0.1" d="M569.564 300.877C566.355 303.736 563.765 307.22 561.95 311.116C560.136 315.011 559.137 319.237 559.013 323.532C558.889 327.828 559.644 332.104 561.232 336.097C562.819 340.091 565.205 343.718 568.244 346.757C571.283 349.795 574.91 352.182 578.904 353.769C582.897 355.356 587.173 356.112 591.469 355.988C595.764 355.864 599.989 354.865 603.885 353.05C607.781 351.236 611.265 348.645 614.124 345.437L569.564 300.877Z" fill="white"/>
<path d="M567.177 328.739C566.993 328.742 566.81 328.707 566.64 328.635C566.471 328.564 566.317 328.458 566.191 328.325C566.06 328.196 565.957 328.042 565.888 327.873C565.818 327.703 565.784 327.522 565.786 327.338C565.785 327.155 565.82 326.974 565.889 326.805C565.959 326.635 566.061 326.482 566.191 326.352C566.316 326.216 566.469 326.108 566.639 326.035C566.809 325.962 566.992 325.926 567.177 325.928C567.362 325.928 567.544 325.965 567.714 326.038C567.884 326.111 568.037 326.218 568.163 326.352C568.295 326.48 568.399 326.634 568.471 326.803C568.542 326.973 568.578 327.155 568.577 327.338C568.579 327.522 568.543 327.705 568.472 327.874C568.401 328.044 568.296 328.197 568.163 328.325C568.035 328.457 567.882 328.562 567.712 328.633C567.543 328.704 567.361 328.74 567.177 328.739Z" fill="white"/>
<path d="M586.774 328.492H584.19L574.949 314.151C574.719 313.798 574.527 313.421 574.377 313.027H574.298C574.386 313.846 574.419 314.669 574.397 315.493V328.492H572.296V310.512H575.028L584.023 324.596C584.397 325.181 584.641 325.582 584.753 325.799H584.802C584.698 324.922 584.655 324.039 584.674 323.156V310.512H586.774V328.492Z" fill="white"/>
<path d="M600.997 328.492H591.439V310.512H600.553V312.415H593.59V318.392H600.079V320.286H593.59V326.519H601.007L600.997 328.492Z" fill="white"/>
<path d="M615.111 312.415H609.884V328.492H607.783V312.415H602.615V310.512H615.111V312.415Z" fill="white"/>
<path d="M585.641 340.723C584.929 341.068 584.143 341.234 583.352 341.206C582.827 341.23 582.303 341.141 581.814 340.945C581.326 340.75 580.885 340.452 580.522 340.072C579.797 339.261 579.415 338.2 579.457 337.113C579.43 336.525 579.522 335.937 579.727 335.385C579.932 334.832 580.246 334.327 580.65 333.898C581.044 333.495 581.517 333.177 582.04 332.967C582.563 332.756 583.124 332.657 583.688 332.675C584.362 332.652 585.034 332.769 585.66 333.02V334.006C585.057 333.673 584.377 333.503 583.688 333.513C583.253 333.501 582.821 333.583 582.421 333.753C582.021 333.923 581.662 334.178 581.37 334.499C580.755 335.2 580.437 336.113 580.482 337.044C580.436 337.926 580.733 338.792 581.311 339.461C581.588 339.759 581.926 339.993 582.302 340.148C582.679 340.303 583.084 340.375 583.49 340.358C584.248 340.378 584.996 340.187 585.65 339.806L585.641 340.723Z" fill="#F2F2F2"/>
<path d="M589.673 341.206C589.281 341.219 588.89 341.147 588.528 340.995C588.165 340.844 587.839 340.617 587.573 340.328C587.033 339.727 586.753 338.936 586.793 338.129C586.769 337.706 586.829 337.283 586.969 336.883C587.11 336.483 587.328 336.116 587.612 335.801C587.902 335.519 588.247 335.298 588.625 335.154C589.003 335.01 589.407 334.945 589.811 334.963C590.194 334.943 590.576 335.005 590.932 335.147C591.288 335.288 591.609 335.505 591.873 335.781C592.397 336.413 592.662 337.221 592.613 338.04C592.654 338.872 592.367 339.686 591.814 340.309C591.542 340.603 591.21 340.835 590.841 340.989C590.472 341.144 590.074 341.218 589.673 341.206ZM589.742 335.811C589.471 335.8 589.201 335.85 588.951 335.957C588.702 336.065 588.48 336.227 588.302 336.433C587.923 336.921 587.734 337.531 587.77 338.149C587.735 338.748 587.925 339.339 588.302 339.805C588.482 340.008 588.705 340.168 588.954 340.273C589.203 340.379 589.472 340.428 589.742 340.417C590.007 340.433 590.272 340.387 590.516 340.285C590.761 340.182 590.979 340.025 591.153 339.825C591.512 339.335 591.686 338.735 591.646 338.129C591.685 337.52 591.511 336.917 591.153 336.423C590.981 336.219 590.764 336.057 590.519 335.951C590.275 335.845 590.009 335.797 589.742 335.811Z" fill="#F2F2F2"/>
<path d="M597.219 336.106C597.006 335.966 596.753 335.901 596.499 335.919C596.3 335.926 596.106 335.982 595.934 336.081C595.762 336.181 595.618 336.322 595.513 336.491C595.219 336.955 595.078 337.5 595.108 338.049V341.067H594.122V335.149H595.108V336.382C595.217 336.001 595.432 335.658 595.73 335.396C595.987 335.173 596.316 335.05 596.657 335.051C596.847 335.042 597.038 335.069 597.219 335.129V336.106Z" fill="#F2F2F2"/>
<path d="M602.999 338.355H598.827C598.799 338.907 598.978 339.448 599.33 339.874C599.512 340.056 599.732 340.198 599.973 340.29C600.214 340.381 600.472 340.421 600.73 340.407C601.399 340.4 602.046 340.167 602.565 339.746V340.633C601.955 341.035 601.233 341.232 600.503 341.195C600.135 341.214 599.768 341.151 599.427 341.011C599.086 340.872 598.78 340.658 598.531 340.387C598.017 339.746 597.761 338.938 597.811 338.118C597.775 337.297 598.054 336.493 598.59 335.87C598.834 335.588 599.138 335.364 599.479 335.214C599.82 335.064 600.19 334.991 600.562 335.002C600.899 334.983 601.235 335.041 601.546 335.17C601.857 335.3 602.134 335.499 602.358 335.751C602.812 336.35 603.036 337.092 602.989 337.842L602.999 338.355ZM602.012 337.556C602.032 337.099 601.893 336.649 601.618 336.284C601.483 336.131 601.315 336.011 601.127 335.933C600.94 335.854 600.736 335.819 600.533 335.83C600.321 335.828 600.11 335.869 599.915 335.953C599.72 336.036 599.544 336.159 599.399 336.313C599.074 336.657 598.87 337.097 598.817 337.566L602.012 337.556Z" fill="#F2F2F2"/>
</g>
<defs>
<filter id="filter0_d" x="0" y="0" width="715" height="573.027" filterUnits="userSpaceOnUse" color-interpolation-filters="sRGB">
<feFlood flood-opacity="0" result="BackgroundImageFix"/>
<feColorMatrix in="SourceAlpha" type="matrix" values="0 0 0 0 0 0 0 0 0 0 0 0 0 0 0 0 0 0 127 0" result="hardAlpha"/>
<feOffset dy="6"/>
<feGaussianBlur stdDeviation="18"/>
<feColorMatrix type="matrix" values="0 0 0 0 0 0 0 0 0 0 0 0 0 0 0 0 0 0 0.1 0"/>
<feBlend mode="normal" in2="BackgroundImageFix" result="effect1_dropShadow"/>
<feBlend mode="normal" in="SourceGraphic" in2="effect1_dropShadow" result="shape"/>
</filter>
<linearGradient id="paint0_linear" x1="565.151" y1="124.779" x2="596.963" y2="156.531" gradientUnits="userSpaceOnUse">
<stop stop-color="#387EB8"/>
<stop offset="1" stop-color="#366994"/>
</linearGradient>
<linearGradient id="paint1_linear" x1="584.617" y1="145.084" x2="618.775" y2="177.639" gradientUnits="userSpaceOnUse">
<stop stop-color="#FFE052"/>
<stop offset="1" stop-color="#FFC331"/>
</linearGradient>
</defs>
</svg>
