<svg width="395" height="200" viewBox="0 0 395 200" fill="none" xmlns="http://www.w3.org/2000/svg">
<g clip-path="url(#clip0_1298_155206)">
<rect width="395" height="200" fill="white"/>
<path d="M89.6475 92.4717L209.647 92.4717" stroke="#E0DBFF"/>
<path d="M182.772 92.4717H255.897M255.897 92.4717V54.3467C255.897 48.8238 260.375 44.3467 265.897 44.3467H310.272M255.897 92.4717V121.847C255.897 127.37 260.375 131.847 265.897 131.847H302.772" stroke="#E0DBFF"/>
<rect x="8.64746" y="23.1738" width="112.75" height="137.345" rx="9.5" fill="white" stroke="#E0DBFF"/>
<rect x="301.397" y="-35.7783" width="180.25" height="116.568" rx="4.5" fill="white" stroke="#E0DBFF"/>
<rect x="301.397" y="98.0469" width="180.25" height="116.568" rx="4.5" fill="white" stroke="#E0DBFF"/>
<rect x="156.587" y="56.0967" width="71.5" height="71.5" rx="35.75" fill="white"/>
<rect x="156.587" y="56.0967" width="71.5" height="71.5" rx="35.75" stroke="#702eea"/>
<path fill-rule="evenodd" clip-rule="evenodd" d="M207.015 94.5803C207.281 94.9076 207.663 95.5633 208.016 96.2489C208.37 96.9376 208.707 97.682 208.876 98.1956C209.455 99.9483 209.045 101.794 207.783 103.075C206.433 104.444 204.37 104.769 201.979 104.07C201.875 104.04 201.815 104.028 201.768 104.027C201.731 104.027 201.69 104.036 201.628 104.07C201.56 104.109 201.472 104.176 201.341 104.293C201.211 104.409 201.049 104.566 200.835 104.776C199.293 106.282 197.853 107.125 195.912 107.657C195.191 107.854 193.897 107.961 192.606 107.978C191.314 107.995 189.987 107.923 189.198 107.747C186.918 107.238 185.471 106.483 183.927 104.988L182.995 104.087L181.883 104.301C179.746 104.71 178.085 104.321 176.849 103.062C175.966 102.163 175.521 101.17 175.541 99.9909C175.56 98.8243 176.034 97.4972 176.932 95.9197C177.161 95.5164 177.376 95.1427 177.537 94.8666C177.618 94.729 177.687 94.6152 177.736 94.5333C177.76 94.4926 177.781 94.458 177.797 94.4331C177.801 94.4264 177.803 94.4188 177.807 94.4126L179.595 95.7663C179.565 95.8282 179.525 95.9103 179.476 96.0035C179.373 96.1944 179.233 96.445 179.079 96.709C178.745 97.2805 178.439 97.9287 178.22 98.5064C177.997 99.0926 177.874 99.5787 177.876 99.8416C177.878 100.164 177.982 100.528 178.161 100.862C178.34 101.195 178.587 101.484 178.856 101.666C179.276 101.949 179.672 102.089 180.209 102.093C180.759 102.096 181.467 101.958 182.511 101.664C186.074 100.659 188.706 100.298 192.461 100.3C195.9 100.301 198.363 100.634 202.044 101.592C204.038 102.111 204.923 102.124 205.63 101.756C205.935 101.596 206.145 101.427 206.307 101.208C206.469 100.986 206.593 100.698 206.701 100.285C206.894 99.5523 206.661 98.6952 205.661 96.9155C205.446 96.5342 205.257 96.179 205.126 95.9135C205.103 95.8663 205.083 95.8206 205.063 95.7786L206.874 94.4065L207.015 94.5803ZM195.492 102.823C192.753 102.556 189.077 102.707 186.458 103.193L185.638 103.344L185.932 103.608C186.705 104.307 188.205 105.031 189.591 105.359C190.283 105.522 191.395 105.6 192.505 105.59C193.616 105.579 194.694 105.48 195.32 105.305C196.149 105.074 197.166 104.581 197.916 104.107C198.292 103.87 198.589 103.646 198.761 103.469C198.813 103.416 198.845 103.37 198.866 103.338C198.857 103.335 198.847 103.332 198.836 103.328C198.776 103.309 198.695 103.288 198.597 103.265C198.4 103.218 198.138 103.166 197.825 103.115C197.2 103.013 196.38 102.91 195.492 102.823Z" fill="#702eea"/>
<path d="M190.132 94.5655C190.383 94.3779 190.68 94.3129 190.96 94.4653C191.345 94.6753 191.454 95.1312 191.406 95.5654C191.356 96.01 191.139 96.5025 190.778 96.8966C190.553 97.1419 190.334 97.3227 190.101 97.371C189.84 97.4248 189.625 97.3042 189.441 97.1174C189.253 96.9254 189.163 96.6916 189.178 96.4058C189.192 96.1356 189.299 95.8223 189.476 95.4509C189.663 95.0563 189.887 94.7482 190.132 94.5655Z" fill="#702eea"/>
<path d="M194.042 94.6003C194.223 94.4275 194.498 94.2919 194.769 94.3794C194.841 94.4025 194.909 94.4497 194.964 94.4939C195.023 94.5415 195.084 94.6021 195.146 94.6677C195.269 94.7991 195.4 94.9654 195.51 95.138C195.757 95.5258 195.899 95.9536 195.922 96.324C195.943 96.6795 195.854 97.0601 195.543 97.2299C195.463 97.2732 195.386 97.3152 195.32 97.3424C195.247 97.3722 195.162 97.3945 195.065 97.3771C194.976 97.3609 194.899 97.3154 194.832 97.2688C194.764 97.2216 194.682 97.1545 194.585 97.0765C194.35 96.8882 194.135 96.5847 193.979 96.275C193.825 95.9667 193.712 95.6189 193.712 95.3303C193.712 95.0449 193.857 94.778 194.042 94.6003Z" fill="#702eea"/>
<path d="M194.319 84.4002C199.328 84.4032 203.842 84.5678 205.711 84.8991C206.267 84.9977 206.707 85.1666 207.031 85.4369C207.36 85.7118 207.551 86.0783 207.635 86.535C207.667 86.7098 207.676 87.0778 207.667 87.5083C207.658 87.9485 207.631 88.4795 207.59 88.9949C207.504 90.0753 207.384 90.8525 207.163 91.4814C206.939 92.1178 206.615 92.5944 206.14 93.0784C205.189 94.0466 203.686 94.6302 202.104 94.8043C200.52 94.9784 198.822 94.7463 197.464 94.0456C196.405 93.4986 195.744 92.814 194.7 91.232C194.139 90.3821 193.784 89.9121 193.459 89.6472C193.153 89.3987 192.866 89.3248 192.402 89.318C191.941 89.3113 191.666 89.3703 191.421 89.5491C191.163 89.7382 190.914 90.0787 190.551 90.7023C189.33 92.7982 187.562 94.2809 185.747 94.6795C184.757 94.8966 183.502 94.967 182.644 94.8493C180.796 94.595 179.367 93.8482 178.392 92.5979C177.67 91.6725 177.484 90.7689 177.41 88.2445C177.377 87.1448 177.361 86.5597 177.395 86.2078C177.413 86.0265 177.446 85.8894 177.505 85.7682C177.562 85.6498 177.641 85.5587 177.719 85.4676C177.798 85.3769 177.877 85.2924 177.979 85.2222C178.082 85.1506 178.2 85.0994 178.349 85.0607C178.635 84.9865 179.076 84.9458 179.838 84.8828C183.765 84.5579 189.303 84.3972 194.319 84.4002Z" fill="#702eea"/>
<path d="M180.889 81.6011C185.881 74.4647 196.889 73.6743 203.036 79.9979C203.693 80.6741 204.38 81.5647 204.861 82.3065C205.1 82.6763 205.294 83.0168 205.407 83.2799C205.453 83.387 205.484 83.4928 205.503 83.5866C204.511 83.3747 203.498 83.1976 202.471 83.0529L202.463 83.0386C201.738 81.9687 200.309 80.6061 199.138 79.8711C195.135 77.3604 189.151 77.5671 185.322 80.3496C184.88 80.6711 184.26 81.2412 183.698 81.8199C183.154 82.3808 182.686 82.9304 182.487 83.2553C181.495 83.3886 180.594 83.53 179.806 83.6684C179.804 83.6381 179.804 83.6098 179.808 83.5866C179.816 83.5274 179.835 83.4614 179.858 83.3964C179.906 83.2639 179.987 83.0951 180.085 82.9077C180.283 82.5306 180.572 82.0545 180.889 81.6011Z" fill="#702eea"/>
<g filter="url(#filter0_f_1298_155206)">
<rect x="-19.8525" y="-20.5" width="393" height="37.5" fill="white"/>
</g>
<g filter="url(#filter1_f_1298_155206)">
<rect x="-19.8525" y="166" width="393" height="43.5" fill="white"/>
</g>
<g filter="url(#filter2_f_1298_155206)">
<rect x="401.519" y="-8" width="208" height="40.8516" transform="rotate(90 401.519 -8)" fill="white"/>
</g>
<rect x="26.8975" y="54.9712" width="40.625" height="7.5" rx="2.5" fill="#F0F0F0"/>
<rect x="73.7725" y="54.9712" width="15.625" height="7.5" rx="2.5" fill="#D7D7D7"/>
<rect x="26.8975" y="109.971" width="51.25" height="7.5" rx="2.5" fill="#EAEAEA"/>
<rect x="84.3975" y="109.971" width="15.625" height="7.5" rx="2.5" fill="#D7D7D7"/>
<rect x="88.7725" y="83.7211" width="15.625" height="7.5" rx="2.5" fill="#B59CDF"/>
<rect x="38.7725" y="69.3461" width="26.25" height="7.5" rx="2.5" fill="#A185D1"/>
<rect x="38.7725" y="124.346" width="72.5" height="7.5" rx="2.5" fill="#EAEAEA"/>
<rect x="71.2725" y="69.3461" width="36.875" height="7.5" rx="2.5" fill="#DECFF8"/>
<rect x="38.7725" y="84.3463" width="44.375" height="7.5" rx="2.5" fill="#D7D7D7"/>
</g>
<defs>
<filter id="filter0_f_1298_155206" x="-39.8525" y="-40.5" width="433" height="77.5" filterUnits="userSpaceOnUse" color-interpolation-filters="sRGB">
<feFlood flood-opacity="0" result="BackgroundImageFix"/>
<feBlend mode="normal" in="SourceGraphic" in2="BackgroundImageFix" result="shape"/>
<feGaussianBlur stdDeviation="10" result="effect1_foregroundBlur_1298_155206"/>
</filter>
<filter id="filter1_f_1298_155206" x="-39.8525" y="146" width="433" height="83.5" filterUnits="userSpaceOnUse" color-interpolation-filters="sRGB">
<feFlood flood-opacity="0" result="BackgroundImageFix"/>
<feBlend mode="normal" in="SourceGraphic" in2="BackgroundImageFix" result="shape"/>
<feGaussianBlur stdDeviation="10" result="effect1_foregroundBlur_1298_155206"/>
</filter>
<filter id="filter2_f_1298_155206" x="340.667" y="-28" width="80.8516" height="248" filterUnits="userSpaceOnUse" color-interpolation-filters="sRGB">
<feFlood flood-opacity="0" result="BackgroundImageFix"/>
<feBlend mode="normal" in="SourceGraphic" in2="BackgroundImageFix" result="shape"/>
<feGaussianBlur stdDeviation="10" result="effect1_foregroundBlur_1298_155206"/>
</filter>
<clipPath id="clip0_1298_155206">
<rect width="395" height="200" fill="white"/>
</clipPath>
</defs>
</svg>
