<svg width="1440" height="374" viewBox="0 0 1440 374" fill="none" xmlns="http://www.w3.org/2000/svg">
<g clip-path="url(#clip0)">
<rect width="1440" height="374" fill="#421D57"/>
<path d="M671.223 354.327V437.193H1850.39V340.519C1850.14 340.509 1849.89 340.509 1849.64 340.509C1841.18 340.509 1833.64 343.788 1828.67 348.911C1824.65 339.192 1813.7 332.215 1800.8 332.215C1787.42 332.215 1776.13 339.729 1772.51 350.014C1768.74 346.715 1763.44 344.656 1757.59 344.656C1751.1 344.656 1745.3 347.174 1741.51 351.116C1741.17 339.192 1729.6 329.609 1715.4 329.609C1710.08 329.609 1705.14 330.946 1701.01 333.249C1701.04 332.751 1701.05 332.264 1701.05 331.756C1701.05 313.342 1683.36 298.422 1661.53 298.422C1645.06 298.422 1630.94 306.922 1625.01 319.012C1620.96 317.529 1616.5 316.709 1611.81 316.709C1599.33 316.709 1588.46 322.525 1582.81 331.122C1581.51 330.868 1580.16 330.731 1578.76 330.731C1571.83 330.731 1565.82 334.059 1562.85 338.919C1558.4 336.557 1553.14 335.181 1547.5 335.181C1536.22 335.181 1526.45 340.656 1521.73 348.618C1517.56 340.538 1508.01 334.879 1496.9 334.879C1488.94 334.879 1481.78 337.787 1476.83 342.402C1472.17 334.274 1462.3 328.653 1450.87 328.653C1445.02 328.653 1439.56 330.136 1435.01 332.664C1435.04 332.117 1435.06 331.571 1435.06 331.014C1435.06 310.727 1415.57 294.275 1391.5 294.275C1373.34 294.275 1357.79 303.643 1351.24 316.972C1346.78 315.343 1341.86 314.435 1336.69 314.435C1318.78 314.435 1303.89 325.296 1300.76 339.641C1297.7 338.128 1294.13 337.26 1290.32 337.26C1286.86 337.26 1283.6 337.982 1280.73 339.241C1277.37 329.863 1267.05 323.032 1254.83 323.032C1242.75 323.032 1232.52 329.717 1229.05 338.928C1225.01 337.104 1220.39 336.069 1215.48 336.069C1209.63 336.069 1204.17 337.552 1199.63 340.08C1199.66 339.533 1199.67 338.987 1199.67 338.44C1199.67 318.143 1180.16 301.691 1156.11 301.691C1137.95 301.691 1122.38 311.069 1115.84 324.389C1111.38 322.759 1106.47 321.842 1101.29 321.842C1086.67 321.842 1074.06 329.092 1068.21 339.563C1065.58 338.841 1062.76 338.44 1059.83 338.44C1051.37 338.44 1043.83 341.719 1038.86 346.842C1034.85 337.123 1023.89 330.146 1010.99 330.146C997.614 330.146 986.324 337.66 982.703 347.945C978.937 344.647 973.638 342.588 967.783 342.588C960.523 342.588 954.131 345.74 950.433 350.511C946.296 341.368 935.806 334.879 923.52 334.879C917.665 334.879 912.21 336.362 907.663 338.889C907.692 338.343 907.712 337.796 907.712 337.25C907.712 316.953 888.205 300.501 864.142 300.501C845.982 300.501 830.427 309.869 823.879 323.198C819.42 321.569 814.502 320.661 809.34 320.661C791.004 320.661 775.82 332.049 773.205 346.901C769.956 345.115 766.082 344.071 761.915 344.071C754.284 344.071 747.629 347.545 744.028 352.726C738.632 346.92 730.24 343.183 720.814 343.183C709.065 343.183 698.926 348.97 694.174 357.352C690.475 354.444 685.509 352.668 680.054 352.668C676.892 352.658 673.906 353.253 671.223 354.327Z" fill="#A48BB3"/>
<path d="M689.168 354.327V437.193H-490V340.519C-489.746 340.509 -489.502 340.509 -489.249 340.509C-480.788 340.509 -473.245 343.788 -468.278 348.911C-464.258 339.192 -453.309 332.215 -440.409 332.215C-427.031 332.215 -415.74 339.729 -412.12 350.014C-408.353 346.715 -403.055 344.656 -397.2 344.656C-390.711 344.656 -384.914 347.174 -381.118 351.116C-380.777 339.192 -369.213 329.609 -355.005 329.609C-349.687 329.609 -344.75 330.946 -340.622 333.249C-340.651 332.751 -340.661 332.264 -340.661 331.756C-340.661 313.342 -322.969 298.422 -301.14 298.422C-284.669 298.422 -270.548 306.922 -264.616 319.012C-260.566 317.529 -256.106 316.709 -251.422 316.709C-238.942 316.709 -228.071 322.525 -222.421 331.122C-221.123 330.868 -219.767 330.731 -218.372 330.731C-211.443 330.731 -205.432 334.059 -202.456 338.919C-198.006 336.557 -192.747 335.181 -187.106 335.181C-175.826 335.181 -166.058 340.656 -161.335 348.618C-157.168 340.538 -147.625 334.879 -136.51 334.879C-128.548 334.879 -121.385 337.787 -116.438 342.402C-111.783 334.274 -101.908 328.653 -90.481 328.653C-84.6261 328.653 -79.1712 330.136 -74.6239 332.664C-74.6532 332.117 -74.6727 331.571 -74.6727 331.014C-74.6727 310.727 -55.1759 294.275 -31.1122 294.275C-12.9523 294.275 2.60221 303.643 9.14994 316.972C13.6094 315.343 18.5275 314.435 23.6994 314.435C41.6056 314.435 56.4966 325.296 59.629 339.641C62.693 338.128 66.2645 337.26 70.0702 337.26C73.5344 337.26 76.7936 337.982 79.6625 339.241C83.0193 329.863 93.3435 323.032 105.561 323.032C117.641 323.032 127.868 329.717 131.342 338.928C135.382 337.104 139.997 336.069 144.906 336.069C150.761 336.069 156.215 337.552 160.763 340.08C160.733 339.533 160.724 338.987 160.724 338.44C160.724 318.143 180.23 301.691 204.284 301.691C222.444 301.691 238.008 311.069 244.546 324.389C249.006 322.759 253.924 321.842 259.096 321.842C273.723 321.842 286.331 329.092 292.176 339.563C294.811 338.841 297.631 338.44 300.558 338.44C309.019 338.44 316.562 341.719 321.529 346.842C325.539 337.123 336.498 330.146 349.398 330.146C362.776 330.146 374.067 337.66 377.687 347.945C381.453 344.647 386.752 342.588 392.607 342.588C399.867 342.588 406.259 345.74 409.957 350.511C414.095 341.368 424.585 334.879 436.87 334.879C442.725 334.879 448.18 336.362 452.727 338.889C452.698 338.343 452.678 337.796 452.678 337.25C452.678 316.953 472.185 300.501 496.249 300.501C514.409 300.501 529.963 309.869 536.511 323.198C540.97 321.569 545.888 320.661 551.05 320.661C569.386 320.661 584.57 332.049 587.185 346.901C590.434 345.115 594.308 344.071 598.475 344.071C606.106 344.071 612.761 347.545 616.362 352.726C621.758 346.92 630.15 343.183 639.577 343.183C651.325 343.183 661.464 348.97 666.216 357.352C669.915 354.444 674.882 352.668 680.336 352.668C683.498 352.658 686.484 353.253 689.168 354.327Z" fill="#A48BB3"/>
<path d="M730 368.54V453.46H1938.39V354.39C1938.13 354.38 1937.88 354.38 1937.62 354.38C1928.95 354.38 1921.22 357.74 1916.13 362.99C1912.01 353.03 1900.79 345.88 1887.57 345.88C1873.86 345.88 1862.29 353.58 1858.58 364.12C1854.72 360.74 1849.29 358.63 1843.29 358.63C1836.64 358.63 1830.7 361.21 1826.81 365.25C1826.46 353.03 1814.61 343.21 1800.05 343.21C1794.6 343.21 1789.54 344.58 1785.31 346.94C1785.34 346.43 1785.35 345.93 1785.35 345.41C1785.35 326.54 1767.22 311.25 1744.85 311.25C1727.97 311.25 1713.5 319.96 1707.42 332.35C1703.27 330.83 1698.7 329.99 1693.9 329.99C1681.11 329.99 1669.97 335.95 1664.18 344.76C1662.85 344.5 1661.46 344.36 1660.03 344.36C1652.93 344.36 1646.77 347.77 1643.72 352.75C1639.16 350.33 1633.77 348.92 1627.99 348.92C1616.43 348.92 1606.42 354.53 1601.58 362.69C1597.31 354.41 1587.53 348.61 1576.14 348.61C1567.98 348.61 1560.64 351.59 1555.57 356.32C1550.8 347.99 1540.68 342.23 1528.97 342.23C1522.97 342.23 1517.38 343.75 1512.72 346.34C1512.75 345.78 1512.77 345.22 1512.77 344.65C1512.77 323.86 1492.79 307 1468.13 307C1449.52 307 1433.58 316.6 1426.87 330.26C1422.3 328.59 1417.26 327.66 1411.96 327.66C1393.61 327.66 1378.35 338.79 1375.14 353.49C1372 351.94 1368.34 351.05 1364.44 351.05C1360.89 351.05 1357.55 351.79 1354.61 353.08C1351.17 343.47 1340.59 336.47 1328.07 336.47C1315.69 336.47 1305.21 343.32 1301.65 352.76C1297.51 350.89 1292.78 349.83 1287.75 349.83C1281.75 349.83 1276.16 351.35 1271.5 353.94C1271.53 353.38 1271.54 352.82 1271.54 352.26C1271.54 331.46 1251.55 314.6 1226.9 314.6C1208.29 314.6 1192.34 324.21 1185.64 337.86C1181.07 336.19 1176.03 335.25 1170.73 335.25C1155.74 335.25 1142.82 342.68 1136.83 353.41C1134.13 352.67 1131.24 352.26 1128.24 352.26C1119.57 352.26 1111.84 355.62 1106.75 360.87C1102.64 350.91 1091.41 343.76 1078.19 343.76C1064.48 343.76 1052.91 351.46 1049.2 362C1045.34 358.62 1039.91 356.51 1033.91 356.51C1026.47 356.51 1019.92 359.74 1016.13 364.63C1011.89 355.26 1001.14 348.61 988.55 348.61C982.55 348.61 976.96 350.13 972.3 352.72C972.33 352.16 972.35 351.6 972.35 351.04C972.35 330.24 952.36 313.38 927.7 313.38C909.09 313.38 893.15 322.98 886.44 336.64C881.87 334.97 876.83 334.04 871.54 334.04C852.75 334.04 837.19 345.71 834.51 360.93C831.18 359.1 827.21 358.03 822.94 358.03C815.12 358.03 808.3 361.59 804.61 366.9C799.08 360.95 790.48 357.12 780.82 357.12C768.78 357.12 758.39 363.05 753.52 371.64C749.73 368.66 744.64 366.84 739.05 366.84C735.81 366.83 732.75 367.44 730 368.54Z" fill="white"/>
<path d="M748.39 368.54V453.46H-460V354.39C-459.74 354.38 -459.49 354.38 -459.23 354.38C-450.56 354.38 -442.83 357.74 -437.74 362.99C-433.62 353.03 -422.4 345.88 -409.18 345.88C-395.47 345.88 -383.9 353.58 -380.19 364.12C-376.33 360.74 -370.9 358.63 -364.9 358.63C-358.25 358.63 -352.31 361.21 -348.42 365.25C-348.07 353.03 -336.22 343.21 -321.66 343.21C-316.21 343.21 -311.15 344.58 -306.92 346.94C-306.95 346.43 -306.96 345.93 -306.96 345.41C-306.96 326.54 -288.83 311.25 -266.46 311.25C-249.58 311.25 -235.11 319.96 -229.03 332.35C-224.88 330.83 -220.31 329.99 -215.51 329.99C-202.72 329.99 -191.58 335.95 -185.79 344.76C-184.46 344.5 -183.07 344.36 -181.64 344.36C-174.54 344.36 -168.38 347.77 -165.33 352.75C-160.77 350.33 -155.38 348.92 -149.6 348.92C-138.04 348.92 -128.03 354.53 -123.19 362.69C-118.92 354.41 -109.14 348.61 -97.7501 348.61C-89.5901 348.61 -82.2501 351.59 -77.1801 356.32C-72.4101 347.99 -62.2901 342.23 -50.5801 342.23C-44.5801 342.23 -38.9901 343.75 -34.3301 346.34C-34.3601 345.78 -34.3801 345.22 -34.3801 344.65C-34.3801 323.86 -14.4001 307 10.2599 307C28.8699 307 44.8099 316.6 51.5199 330.26C56.0899 328.59 61.1299 327.66 66.4299 327.66C84.7799 327.66 100.04 338.79 103.25 353.49C106.39 351.94 110.05 351.05 113.95 351.05C117.5 351.05 120.84 351.79 123.78 353.08C127.22 343.47 137.8 336.47 150.32 336.47C162.7 336.47 173.18 343.32 176.74 352.76C180.88 350.89 185.61 349.83 190.64 349.83C196.64 349.83 202.23 351.35 206.89 353.94C206.86 353.38 206.85 352.82 206.85 352.26C206.85 331.46 226.84 314.6 251.49 314.6C270.1 314.6 286.05 324.21 292.75 337.86C297.32 336.19 302.36 335.25 307.66 335.25C322.65 335.25 335.57 342.68 341.56 353.41C344.26 352.67 347.15 352.26 350.15 352.26C358.82 352.26 366.55 355.62 371.64 360.87C375.75 350.91 386.98 343.76 400.2 343.76C413.91 343.76 425.48 351.46 429.19 362C433.05 358.62 438.48 356.51 444.48 356.51C451.92 356.51 458.47 359.74 462.26 364.63C466.5 355.26 477.25 348.61 489.84 348.61C495.84 348.61 501.43 350.13 506.09 352.72C506.06 352.16 506.04 351.6 506.04 351.04C506.04 330.24 526.03 313.38 550.69 313.38C569.3 313.38 585.24 322.98 591.95 336.64C596.52 334.97 601.56 334.04 606.85 334.04C625.64 334.04 641.2 345.71 643.88 360.93C647.21 359.1 651.18 358.03 655.45 358.03C663.27 358.03 670.09 361.59 673.78 366.9C679.31 360.95 687.91 357.12 697.57 357.12C709.61 357.12 720 363.05 724.87 371.64C728.66 368.66 733.75 366.84 739.34 366.84C742.58 366.83 745.64 367.44 748.39 368.54Z" fill="white"/>
</g>
<defs>
<clipPath id="clip0">
<rect width="1440" height="374" fill="white"/>
</clipPath>
</defs>
</svg>
