<svg width="1200" height="628" viewBox="0 0 1200 628" fill="none" xmlns="http://www.w3.org/2000/svg">
<g clip-path="url(#clip0_0_3911)">
<g style="mix-blend-mode:soft-light" opacity="0.5">
<path d="M-22.6133 757.778C55.2045 756.647 120.251 703.812 139.762 632.663C148.344 637.573 158.178 640.328 168.649 640.176C201.037 639.705 226.952 611.849 226.503 577.99C226.499 577.645 226.498 577.318 226.49 576.975C236.217 578.912 246.405 579.939 256.935 579.786C321.13 578.854 372.681 536.854 372.007 486.064C371.334 435.277 318.689 394.791 254.493 395.724C229.068 396.094 205.66 402.954 186.659 414.197C174.751 378.598 142.141 353.23 104.1 353.782C78.3214 354.157 55.3661 366.357 39.8125 385.354C24.3697 377.193 6.27725 372.623 -12.9998 372.903C-39.2302 373.285 -63.048 382.552 -80.8176 397.477C-105.374 371.565 -141.188 355.449 -180.892 356.025C-229.6 356.733 -271.836 382.406 -294.221 419.896C-297.674 419.419 -301.21 419.184 -304.799 419.236C-343.548 419.799 -374.515 452.115 -373.994 491.414C-373.472 530.714 -341.659 562.185 -302.91 561.622C-295.976 561.521 -289.286 560.344 -282.984 558.35C-261.762 583.777 -230.308 601.16 -194.576 604.986C-186.127 691.803 -111.929 759.076 -22.6133 757.778Z" fill="black"/>
<path d="M1005.59 863.252C1071.92 820.645 1102.02 740.432 1084.04 668.843C1093.82 668.471 1103.61 665.577 1112.54 659.844C1140.15 642.111 1148.82 604.304 1131.89 575.443C1131.72 575.149 1131.56 574.868 1131.39 574.578C1140.69 571.038 1149.95 566.47 1158.93 560.705C1213.64 525.557 1237.44 461.877 1212.05 418.586C1186.67 375.296 1121.65 368.666 1066.93 403.814C1045.26 417.736 1028.49 436.156 1017.65 455.985C990.032 431.76 949.616 427.404 917.19 448.233C895.217 462.347 881.446 485.115 877.356 509.764C860.097 511.012 842.316 516.764 825.884 527.319C803.526 541.681 787.582 562.389 779.598 584.724C745.838 575.592 707.185 580.902 673.343 602.641C631.825 629.31 608.062 673.972 607.132 718.171C603.932 719.608 600.778 721.298 597.719 723.263C564.69 744.479 553.857 788.822 573.499 822.32C593.141 855.818 635.853 865.846 668.882 844.629C674.793 840.833 679.968 836.241 684.41 831.156C715.068 841.656 750.591 839.767 783.171 823.937C832.832 894.034 929.459 912.155 1005.59 863.252Z" fill="black"/>
<path d="M829.248 533.774C829.248 471.534 781.048 421.078 721.589 421.078C709.217 421.078 697.344 423.291 686.28 427.312C669.923 397.453 639.195 377.325 603.957 377.325C553.977 377.325 513.053 417.796 509.393 469.134C506.815 468.886 504.208 468.741 501.569 468.741C455 468.741 417.248 508.259 417.248 557.006C417.248 603.603 451.749 641.74 495.466 645.016L495.464 645.039H495.752C497.677 645.176 499.612 645.271 501.569 645.271C503.632 645.271 505.67 645.166 507.695 645.014L711.273 644.594C714.386 644.871 717.533 645.04 720.722 645.04C724.087 645.04 727.414 644.862 730.705 644.554H730.916L730.911 644.539C785.671 639.346 829.244 592.455 829.244 533.808L829.248 533.774Z" fill="black"/>
<path d="M133.092 505.601C137.931 498.548 140.79 489.908 140.79 480.562C140.79 456.814 122.383 437.561 99.6774 437.561C89.3591 437.561 79.9353 441.546 72.7172 448.114C63.0773 438.088 49.7944 431.889 35.1263 431.889C34.7382 431.889 34.3548 431.911 33.9683 431.921V431.889C33.9683 395.397 5.68433 365.812 -29.2071 365.812C-64.097 365.812 -92.3824 395.395 -92.3824 431.889C-92.3824 436.398 -91.947 440.799 -91.125 445.055C-126.28 445.151 -154.752 474.985 -154.752 511.776C-154.752 548.629 -126.19 578.503 -90.9562 578.503C-89.541 578.503 -88.1415 578.437 -86.7484 578.343C-89.3816 582.102 -90.9562 586.726 -90.9562 591.744C-90.9562 604.295 -81.2279 614.469 -69.2293 614.469C-60.2915 614.469 -52.6206 608.82 -49.2852 600.754C-41.3935 609.211 -30.3825 614.469 -18.1914 614.469C-8.4631 614.469 0.51886 611.124 7.76062 605.475C16.1715 615.736 28.645 622.245 42.5795 622.245C61.1494 622.245 77.1286 610.693 84.3404 594.092C91.2098 597.949 99.0621 600.142 107.405 600.142C134.381 600.142 156.248 577.27 156.248 549.055C156.233 530.704 146.971 514.615 133.072 505.604L133.092 505.601Z" fill="#D8D8D8"/>
<path d="M273.405 563.048C268.566 570.102 265.707 578.742 265.707 588.087C265.707 611.835 284.114 631.088 306.819 631.088C317.138 631.088 326.561 627.103 333.779 620.535C343.419 630.562 356.702 636.76 371.37 636.76C371.759 636.76 372.142 636.739 372.528 636.729V636.76C372.528 673.253 400.812 702.838 435.704 702.838C470.594 702.838 498.879 673.255 498.879 636.76C498.879 632.252 498.444 627.851 497.622 623.595C532.777 623.499 561.248 593.665 561.248 556.873C561.248 520.021 532.687 490.147 497.453 490.147C496.038 490.147 494.638 490.213 493.245 490.307C495.878 486.548 497.453 481.924 497.453 476.906C497.453 464.354 487.725 454.181 475.726 454.181C466.788 454.181 459.117 459.829 455.782 467.896C447.89 459.438 436.879 454.181 424.688 454.181C414.96 454.181 405.978 457.526 398.736 463.174C390.325 452.913 377.852 446.405 363.917 446.405C345.347 446.405 329.368 457.956 322.156 474.557C315.287 470.701 307.435 468.508 299.092 468.508C272.116 468.508 250.248 491.38 250.248 519.595C250.264 537.945 259.525 554.035 273.425 563.045L273.405 563.048Z" fill="#D8D8D8"/>
<path d="M1083.27 467.402C1075.51 464.323 1066.8 463.656 1058.17 466.061C1036.24 472.174 1023.21 495.747 1029.05 518.711C1031.71 529.147 1037.81 537.652 1045.73 543.262C1038.96 555.593 1036.65 570.622 1040.43 585.458C1040.53 585.85 1040.65 586.233 1040.76 586.621L1040.73 586.629C1007.04 596.022 987.003 632.244 995.984 667.533C1004.96 702.82 1039.56 723.814 1073.25 714.42C1077.41 713.26 1081.36 711.686 1085.08 709.76C1094.22 745.291 1129.09 766.408 1163.06 756.938C1197.08 747.452 1217.31 710.875 1208.24 675.24C1207.87 673.809 1207.45 672.41 1207.01 671.025C1211.16 672.721 1215.83 673.123 1220.46 671.832C1232.05 668.601 1238.94 656.143 1235.85 644.008C1233.55 634.968 1226.36 628.664 1218.06 627.367C1223.83 617.208 1225.85 604.718 1222.71 592.388C1220.21 582.549 1214.81 574.325 1207.73 568.455C1215.04 557.307 1217.84 543.016 1214.25 528.923C1209.47 510.141 1194.69 496.953 1177.51 493.932C1179.3 485.992 1179.31 477.486 1177.16 469.047C1170.22 441.764 1143.47 425.534 1117.42 432.797C1100.48 437.536 1088.01 451.044 1083.27 467.422L1083.27 467.402Z" fill="#D8D8D8"/>
<path d="M494.173 638.51C495.216 638.51 496.239 638.598 497.248 638.727C487.62 591.228 447.33 555.583 399.071 555.583C383.486 555.583 368.731 559.3 355.572 565.933C342.435 546.312 320.684 533.471 296.052 533.471C295.249 533.471 294.454 533.508 293.66 533.534C282.355 483.583 239.491 446.405 188.299 446.405C130.692 446.405 83.6099 493.477 80.2129 552.868C31.5066 553.794 -8.82516 590.534 -17.7516 638.991C-16.2464 638.685 -14.6577 638.51 -13.048 638.51H494.173Z" fill="white"/>
<path d="M475.434 638.338C474.014 638.338 472.623 638.457 471.248 638.632C484.355 574.095 539.196 525.665 604.884 525.665C626.098 525.665 646.181 530.715 664.094 539.727C681.975 513.068 711.582 495.621 745.11 495.621C746.203 495.621 747.284 495.672 748.366 495.707C763.754 427.839 822.098 377.325 891.779 377.325C970.192 377.325 1034.28 441.282 1038.9 521.976C1105.2 523.234 1160.1 573.153 1172.25 638.991C1170.2 638.575 1168.04 638.338 1165.85 638.338H475.434Z" fill="white"/>
</g>
</g>
<defs>
<clipPath id="clip0_0_3911">
<rect width="1200" height="274.227" fill="white" transform="translate(0 353.773)"/>
</clipPath>
</defs>
</svg>
