<svg width="400" height="385" viewBox="0 0 400 385" fill="none" xmlns="http://www.w3.org/2000/svg">
<path d="M249.671 362.949C255.871 368.947 263.998 376.343 271.046 379.677C282.171 384.932 290.886 387.583 292.269 377.471C292.465 376.039 295.973 376.335 300.12 375.958C304.419 375.567 307.875 373.101 308.301 367.974C319.489 368.282 320.479 364.066 320.258 361.651C329.638 361.115 329.902 354.78 328.101 351.371C325.914 347.235 319.514 344.145 315.644 342.549C311.185 340.712 306.417 338.69 290.731 334.646C287.507 333.815 283.009 328.482 277.967 328.397C267.024 328.214 253.792 334.594 247.258 338.41C236.213 344.857 242.067 355.585 249.671 362.949Z" fill="#9000A6"/>
<path d="M320.133 359.143C320.352 361.559 319.363 365.774 308.175 365.466C307.751 370.593 304.294 373.06 299.995 373.451C295.846 373.828 292.34 373.532 292.144 374.964C290.761 385.076 282.046 382.425 270.922 377.17C263.872 373.839 255.746 366.442 249.546 360.441C245.35 356.381 241.696 351.298 241.115 346.473C240.37 352.022 244.584 358.264 249.546 363.067C255.746 369.065 263.872 376.462 270.922 379.795C282.046 385.051 290.761 387.702 292.144 377.588C292.34 376.158 295.847 376.454 299.995 376.076C304.294 375.685 307.756 373.219 308.175 368.091C319.363 368.399 320.354 364.184 320.133 361.768C327.761 361.331 329.36 357.061 328.722 353.647C328.19 356.321 325.867 358.814 320.133 359.143Z" fill="#730085"/>
<path d="M277.797 374.71C279.053 375.189 280.433 375.227 281.713 374.82C282.397 374.496 282.952 373.952 283.289 373.275C283.626 372.597 283.725 371.826 283.571 371.086C285.883 372.063 288.408 373.045 290.724 372.08C293.039 371.115 294.594 367.228 292.925 365.049C294.028 365.395 295.201 365.461 296.336 365.241C297.472 365.02 298.534 364.52 299.428 363.786C296.216 357.789 290.428 354.841 285.23 351.499C276.601 345.868 269.069 338.713 263.004 330.384C262.449 329.631 261.78 328.8 260.949 328.857C260.502 328.935 260.085 329.135 259.744 329.435C255.439 332.561 247.12 337.028 244.361 342.212C241.401 347.775 247.234 353.272 250.483 356.987C257.657 365.441 267.154 371.603 277.797 374.71Z" fill="#C41ACD"/>
<path d="M227.933 312.353C228.635 315.419 238.095 346.011 241.086 347.13C242.322 347.591 256.816 339.501 271.643 336.447C277.877 334.98 284.285 334.389 290.682 334.692C273.05 281.707 278.749 300.344 276.497 280.857C276.273 278.921 232.151 280.724 229.133 285.817C226.323 290.565 223.32 293.5 224.42 298.306C226.533 307.53 225.821 303.129 227.933 312.353Z" fill="#00B5D0"/>
<path d="M20.3458 97.3529C13.8646 90.0299 5.78019 80.8387 1.61018 71.9902C-4.6328 58.7227 14.8965 57.569 15.6299 57.4794C18.8417 57.09 18.6141 49.8312 24.2415 47.0169C31.2647 43.5053 33.6469 46.1818 36.7276 44.2855C38.5784 43.1466 38.5167 38.0613 44.9216 35.702C52.3356 32.9706 52.7371 37.2584 58.5719 35.3112C60.9139 34.531 62.9333 30.3155 67.9398 29.4576C73.2647 28.5463 77.6957 32.189 77.3076 50.1391C77.0399 62.1834 75.6883 70.0096 75.3564 78.6239C74.9669 88.7679 76.3158 105.372 72.8029 107.723C70.9293 108.98 68.4402 108.672 66.2562 109.251C58.5143 111.307 54.3536 122.404 45.1946 117.021C37.3323 112.398 26.3626 104.151 20.3458 97.3529Z" fill="#9000A6"/>
<path d="M25.4196 99.6944C18.9371 92.3715 10.854 83.1789 6.68397 74.3304C0.440994 61.0642 19.9703 59.9092 20.7037 59.8209C23.9155 59.4301 23.6879 52.1714 29.3166 49.3584C36.3398 45.8455 38.722 48.522 41.8027 46.627C43.6535 45.4882 43.5918 40.4015 49.9967 38.0422C57.4107 35.3108 57.8123 39.5999 63.6538 37.6514C65.9944 36.8712 68.0151 32.6556 73.0216 31.7992C73.1554 31.7764 73.2891 31.7577 73.4229 31.7417C72.7148 30.9167 71.7927 30.3033 70.7582 29.9692C69.7237 29.635 68.6169 29.5931 67.5601 29.848C62.5563 30.7058 60.5355 34.92 58.1922 35.7015C52.3507 37.6487 51.9493 33.3596 44.5421 36.091C38.1372 38.4504 38.1987 43.5371 36.3478 44.676C33.2698 46.571 30.8852 43.8956 23.8606 47.4072C18.2333 50.2176 18.466 57.479 15.2489 57.8697C14.5155 57.9581 -5.01365 59.113 1.22932 72.3792C5.39399 81.2278 13.4771 90.4203 19.965 97.7432C25.9871 104.54 36.9501 112.787 44.8204 117.416C46.2135 118.296 47.8123 118.798 49.4588 118.87C41.654 114.166 31.2303 106.26 25.4196 99.6944Z" fill="#C41ACD"/>
<path d="M60.1476 145.738C71.4626 155.493 81.2184 159.79 89.4126 160.175C105.823 161.12 122.027 156.133 135.066 146.123C136.759 144.804 137.551 136.124 138.592 134.246C139.531 132.269 140.061 130.123 140.151 127.937C141.173 117.937 141.401 107.872 140.835 97.8363L125.178 107.699C116.715 113.031 104.479 117.996 94.4833 117.639C83.5578 117.248 75.3636 96.5677 75.3636 96.5677C73.4185 100.183 70.7645 103.369 67.5602 105.935C62.8646 108.873 57.8995 111.355 52.7323 113.349C51.0167 113.885 45.0467 114.266 43.3645 114.91C34.7876 118.207 56.09 142.241 60.1476 145.738Z" fill="#26C9DA"/>
<path d="M139.177 127.813C138.136 129.687 137.345 129.981 135.651 131.301C122.636 141.442 106.477 151.4 89.9974 150.616C81.8033 150.225 72.0488 149.055 60.7325 139.299C57.7575 136.734 45.5178 123.129 42.5817 114.754C36.2718 119.29 56.2319 141.778 60.1477 145.153C71.4626 154.907 81.2184 159.205 89.4126 159.59C105.823 160.535 122.027 155.548 135.066 145.538C136.759 144.219 137.551 135.54 138.592 133.661C139.531 131.685 140.061 129.539 140.15 127.353C140.287 126.02 140.408 124.686 140.514 123.35C140.344 124.907 139.891 126.419 139.177 127.813Z" fill="#00B5D0"/>
<path d="M136.312 34.4455C136.312 34.4455 141.97 10.0597 166.987 2.9348C166.987 2.9348 180.36 -1.11205 205.684 0.29847L205.346 6.99646C205.346 6.99646 156.856 2.3713 146.224 38.9044L136.312 34.4455Z" fill="#44BF55"/>
<path d="M205.45 4.68523C185.807 3.59053 169.694 6.83717 161.689 11.8985C150.475 18.9912 144.534 32.0713 141.235 44.9253C143.768 44.6095 146.267 44.0634 148.7 43.294C146.776 38.2956 152.285 29.2998 155.1 25.3948C158.886 20.1822 163.982 16.0624 169.872 13.4522C178.216 9.57125 191.851 8.23291 205.001 8.95959L205.45 4.68523Z" fill="#006600"/>
<path d="M121.16 39.8534C115.878 53.054 109.596 79.0725 117.563 87.8421C119.101 89.4159 121.053 90.5229 123.193 91.0358C125.333 91.5486 127.575 91.4462 129.659 90.7406C133.855 89.3823 134.335 87.7229 137.154 84.3264C146.4 73.1599 150.995 56.7114 151.141 42.2596C151.226 33.8794 144.27 26.3034 136.747 26.6019C128.132 26.9552 122.212 37.2251 121.16 39.8534Z" fill="#44BF55"/>
<path d="M133.453 42.3438C129.497 51.5561 126.95 61.3117 125.9 71.2824C125.498 75.1058 125.846 79.8913 129.35 81.4758C130.435 81.8762 131.608 81.9793 132.747 81.7741C133.885 81.5689 134.948 81.063 135.826 80.3089C137.559 78.776 138.961 76.9052 139.946 74.8113C144.974 65.505 150.595 53.161 150.968 42.3492C151.102 38.4348 150.117 35.3033 146.173 33.9302C139.749 31.694 135.674 37.1661 133.453 42.3438Z" fill="black"/>
<path d="M267.801 41.768C267.801 41.768 264.886 16.9059 240.815 7.04694C240.815 7.04694 227.968 1.53861 202.65 0.128082L202.242 6.81938C202.242 6.81938 250.944 7.60624 257.455 45.0936L267.801 41.768Z" fill="#44BF55"/>
<path d="M202.395 4.51532C222.039 5.60868 237.693 10.6244 245.085 16.5435C255.445 24.8407 259.896 38.491 261.745 51.6367C259.263 51.0425 256.841 50.2224 254.509 49.1864C256.976 44.4329 252.502 34.8818 250.136 30.6877C246.953 25.0869 242.346 20.4268 236.783 17.1793C228.92 12.3963 215.518 9.55107 202.369 8.81369L202.395 4.51532Z" fill="#006600"/>
<path d="M282.258 48.8263C286.043 62.5327 289.395 89.0865 280.503 96.918C278.8 98.3107 276.737 99.1938 274.554 99.4658C272.37 99.7378 270.154 99.3877 268.161 98.4556C264.146 96.6396 263.849 94.9373 261.432 91.249C253.483 79.1244 250.743 62.2678 252.198 47.8896C253.044 39.5509 260.798 32.7939 268.24 33.9315C276.763 35.2336 281.505 46.0976 282.258 48.8263Z" fill="#44BF55"/>
<path d="M269.768 49.9371C272.676 59.5314 274.123 69.509 274.06 79.5341C274.034 83.379 273.158 88.0989 269.5 89.2819C268.378 89.5601 267.201 89.5331 266.092 89.2037C264.984 88.8743 263.983 88.2544 263.195 87.4083C261.643 85.6925 260.459 83.6779 259.715 81.4879C255.751 71.6798 251.536 58.787 252.365 48.0006C252.665 44.0969 253.994 41.094 258.066 40.1679C264.691 38.653 268.129 44.5439 269.768 49.9371Z" fill="black"/>
<path d="M109.342 344.746C105.702 346.513 101.869 348.931 101.006 352.867C100.143 356.803 104.255 359.451 108.154 359.672C108.226 364.099 113.898 366.607 118.349 366.141C119.653 365.855 121.005 365.864 122.306 366.169C124.028 366.781 125.053 368.548 126.577 369.568C130.478 372.179 135.7 369.082 140.192 370.371C141.695 370.642 143.093 371.324 144.232 372.341C152.138 381.251 160.176 381.251 173.712 370.834C178.849 366.882 191.418 355.751 192.697 349.377C193.976 343.002 190.111 335.95 184.634 331.991C180.337 328.884 174.768 328.304 169.548 328.361C158.859 328.477 149.588 331.254 139.838 334.804C129.726 338.487 119.111 340.005 109.342 344.746Z" fill="#9000A6"/>
<path d="M140.18 370.305C140.463 370.39 140.742 370.491 141.014 370.606C143.277 367.853 145.881 365.398 148.763 363.302C151.371 361.408 154.595 358.885 153.748 355.807L144.474 354.1L160.6 345.565C162.124 344.763 163.906 343.157 163.008 341.694L155.344 340.42C157.823 340.832 166.626 335.031 169.53 334.082C173.812 332.678 178.273 331.72 182.674 330.736C178.714 328.674 174 328.251 169.538 328.301C158.849 328.416 149.578 331.193 139.829 334.743C129.711 338.43 119.096 339.949 109.327 344.689C105.687 346.455 101.854 348.875 100.991 352.809C100.128 356.744 104.24 359.394 108.139 359.615C108.211 364.042 113.882 366.551 118.333 366.084C119.638 365.798 120.99 365.808 122.291 366.112C124.013 366.723 125.038 368.491 126.562 369.511C130.467 372.115 135.689 369.018 140.18 370.305Z" fill="#C41ACD"/>
<path d="M137.407 59.5044C122.435 105.3 118.656 174.557 122.189 222.607C125.116 262.407 143.513 296.455 165.501 308.942C175.916 314.858 200.934 319.768 212.911 319.768C243.691 319.768 267.413 320.437 283.503 320.243C296.484 320.09 317.821 321.117 318.46 298.697C319.193 272.942 283.397 258.693 283.291 257.354C280.631 222.746 273.586 179.685 270.27 130.13C269.039 111.747 268.514 73.5507 260.32 51.1147C253.082 31.2965 230.469 16.5877 199.448 16.8741C193.069 16.9344 172.969 18.3101 167.062 19.7032C163.471 20.5504 173.875 20.9679 170.542 22.3584C155.65 28.5746 143.658 40.386 137.407 59.5044Z" fill="#26C9DA"/>
<path d="M140.024 334.818C142.607 334.357 145.224 334.108 147.847 334.073C154.378 334.391 160.833 335.617 167.025 337.717C171.858 339.323 194 351.274 193.01 342.414C190.526 320.173 187.207 299.12 187.756 280.355L159.26 275.955C153.277 275.03 142.196 265.008 138.551 270.954C135.252 276.334 137.079 296.701 137.525 302.85C138.323 313.671 140.024 334.818 140.024 334.818Z" fill="#26C9DA"/>
<path d="M230.908 282.97C227.765 281.312 224.554 279.441 221.005 279.304C219.55 279.249 218.099 279.492 216.644 279.489C210.513 279.489 205.317 275.295 199.832 272.555C194.346 269.816 186.528 269.029 183.104 274.11C181.091 271.55 178.341 269.669 175.225 268.72C172.11 267.771 168.778 267.8 165.68 268.803C164.315 269.406 162.89 269.863 161.429 270.167C155.313 270.905 150.39 262.818 144.417 264.326C144.044 265.754 143.671 267.181 143.298 268.609C141.044 266.315 138.399 263.854 135.185 263.937C134.608 263.974 134.044 264.124 133.525 264.379C133.006 264.635 132.543 264.989 132.162 265.424C140.206 285.632 152.324 301.387 165.799 309.04C176.213 314.954 201.23 319.864 213.208 319.864C246.046 319.864 270.848 320.62 286.923 320.29C298.067 320.061 312.918 319.191 316.96 306.917C289.68 306.3 254.824 295.591 230.908 282.97Z" fill="#00B5D0"/>
<path d="M156.631 278.677C156.177 284.536 154.142 292.384 155.477 298.029C156.876 303.946 161.633 310.039 164.185 315.582C164.516 316.421 165.059 317.159 165.763 317.723C166.432 318.173 167.302 318.288 167.944 318.784C168.525 319.322 168.948 320.007 169.17 320.766C171.295 326.289 172.781 332.036 173.6 337.896C173.734 338.833 173.868 339.798 174.044 340.742C182.234 344.325 193.679 348.843 192.962 342.418C190.478 320.177 187.159 299.123 187.708 280.359L159.211 275.959C158.475 275.844 157.686 275.684 156.864 275.504C156.792 276.561 156.714 277.619 156.631 278.677Z" fill="#00B5D0"/>
<path d="M192.818 346.725C191.538 353.099 178.97 364.23 173.834 368.182C160.297 378.598 152.258 378.598 144.353 369.688C143.214 368.67 141.815 367.989 140.312 367.719C135.821 366.433 130.6 369.53 126.699 366.916C125.175 365.896 124.156 364.129 122.427 363.517C121.126 363.213 119.774 363.203 118.469 363.489C114.018 363.956 108.347 361.447 108.274 357.02C105.223 356.847 102.051 355.181 101.226 352.581C101.193 352.703 101.154 352.822 101.126 352.946C100.263 356.881 104.377 359.53 108.274 359.751C108.347 364.178 114.018 366.687 118.469 366.22C119.774 365.934 121.126 365.944 122.427 366.248C124.15 366.86 125.175 368.628 126.699 369.648C130.6 372.259 135.821 369.162 140.312 370.451C141.815 370.72 143.214 371.402 144.353 372.419C152.258 381.329 160.297 381.329 173.834 370.912C178.97 366.962 191.538 355.83 192.818 349.455C193.066 348.18 193.123 346.876 192.988 345.584C192.952 345.966 192.897 346.346 192.818 346.725Z" fill="#730085"/>
<path d="M125.97 244.267C126.014 240.981 125.827 237.696 125.411 234.436C123.765 207.816 124.223 181.108 126.781 154.561C128.227 139.532 130.344 124.588 133.132 109.729C135.755 95.7565 141.445 92.0481 147.942 79.4029C154.44 66.7577 169.563 55.2554 182.67 49.7471C193.399 45.2385 197.192 40.548 208.813 41.1636C217.816 41.6386 218.637 54.4806 226.372 59.1123C231.909 62.4285 247.023 73.2282 250.564 78.6227C262.663 97.0492 263.266 96.6892 265.446 118.623C267.45 138.811 269.807 158.96 272.514 179.068C274.23 191.809 276.192 204.798 279.719 217.155C276.66 191.174 272.988 162.004 270.855 130.128C269.625 111.746 269.099 73.5493 260.905 51.1134C253.668 31.2952 231.055 16.5864 200.034 16.8728C193.655 16.933 173.555 18.3086 167.648 19.7018C164.056 20.5489 174.461 20.9664 171.128 22.3569C156.236 28.5664 144.243 40.3847 137.994 59.5017C123.021 105.298 119.242 174.556 122.775 222.606C123.309 229.895 124.377 237.134 125.97 244.267Z" fill="#26E4EE"/>
<path d="M382.327 182.207C386.848 183.134 391.222 184.67 395.33 186.773C401.572 189.836 400.72 194.622 397.624 197.383C404.303 208.176 391.427 214.419 391.427 214.419C391.427 214.419 392.026 219.845 391.427 221.442C389.086 227.685 376.209 229.247 376.209 229.247C376.209 229.247 380.501 245.244 351.585 233.663C333.997 226.614 320.222 212.235 307.052 198.61C305.382 197.083 304.04 195.232 303.106 193.171C301.366 188.574 303.878 183.293 307.604 180.088C315.439 173.353 328.203 171.857 338.056 173.716C352.823 176.491 367.564 179.412 382.327 182.207Z" fill="#9000A6"/>
<path d="M374.132 221.434C377.815 221.819 382.671 221.388 383.626 217.81C384.286 215.339 382.502 212.943 380.835 211.003C382.873 210.943 384.88 210.489 386.746 209.664C387.672 209.238 388.458 208.556 389.011 207.699C389.564 206.842 389.862 205.845 389.869 204.825C389.55 203.118 388.646 201.574 387.313 200.46C384.422 197.51 381.251 194.848 377.844 192.512C397.67 192.164 389.532 186.131 389.486 184.473C388.03 184.022 386.55 183.652 385.053 183.364C370.29 180.575 355.549 177.655 340.787 174.87C330.935 173.011 318.17 174.506 310.335 181.243C306.609 184.446 311.252 185.617 312.991 190.209C313.797 192.33 351.627 219.095 374.132 221.434Z" fill="#C41ACD"/>
<path d="M339.14 173.832C328.725 182.963 321.191 198.414 319.24 210.511C296.733 200.923 269.295 176.954 261.133 153.601C259.982 150.309 257.617 147.524 256.716 144.157C255.957 140.97 255.701 137.683 255.959 134.416C256.283 128.126 257.19 114.79 262.122 110.165C267.943 104.704 273.875 117.46 276.842 121.1C287.415 134.081 300.555 144.608 313.454 155.202C322.362 162.517 328.605 167.589 339.14 173.832Z" fill="#26C9DA"/>
<path d="M256.129 142.986C257.032 146.355 261.386 165.777 262.271 169.151C266.563 185.539 278.66 215.187 278.66 215.187L274.757 177.727C274.757 177.727 297.292 201.147 319.387 210.571C319.682 208.74 321.626 202.943 322.168 200.992C278.856 175.831 255.281 139.828 256.129 142.986Z" fill="#00B5D0"/>
<path d="M174.044 52.7673C166.345 56.5573 155.71 62.6999 150.674 69.6481C146.346 75.6208 147.864 79.4429 149.808 86.557C154.781 104.769 161.478 137.962 200.642 139.971C223.469 141.141 248.177 126.073 250.926 105.514C252.121 96.578 259.71 98.1718 259.54 89.1586C259.149 68.4785 239.6 67.2714 230.469 53.4552C223.251 42.5297 217.398 36.8716 204.908 36.6762C184.038 36.351 181.228 49.2303 174.044 52.7673Z" fill="#EF00C3"/>
<path d="M128.639 87.0276C128.967 92.5332 136.88 97.3882 151.893 97.4324C186.142 97.5328 212.404 98.9046 246.903 103.833C252.149 104.584 269.442 108.25 271.956 97.8634C275.168 84.5798 265.005 81.0549 254.21 77.2234C249.425 75.5252 241.879 72.3482 236.994 70.8641C231.641 69.2354 225.816 69.1149 220.115 69.0132C199.125 68.6345 182.879 69.3411 161.926 69.1217C151.315 69.0106 127.677 70.9096 128.639 87.0276Z" fill="#EF00C3"/>
<path d="M149.618 43.7888C149.618 43.7888 152.294 53.2343 161.853 53.0228C161.853 53.0228 174.627 53.3453 176.621 36.4846" stroke="#148EB5" stroke-width="2.63" stroke-miterlimit="10"/>
<path d="M254.077 45.2608C254.077 45.2608 252.125 56.992 243.216 56.1329C243.216 56.1329 232.482 56.5625 230.013 39.6028" stroke="#148EB5" stroke-width="2.63" stroke-miterlimit="10"/>
<path d="M271.934 97.4C270.428 102.924 262.834 101.835 257.052 101.213C253.658 100.846 248.437 100.039 245.984 99.5933C211.695 93.361 185.902 93.0037 151.654 92.902C136.64 92.8578 129.374 89.8762 129.046 84.3693C129.004 83.6239 129.008 82.8767 129.057 82.1317C128.662 83.7643 128.519 85.4477 128.634 87.1234C128.962 92.6303 136.875 97.4842 151.888 97.5284C186.137 97.6301 212.399 99.0006 246.904 103.931C248.376 104.142 253.922 104.904 256.283 105.104C262.305 105.618 269.173 105.128 271.372 99.3499C271.622 98.7199 271.811 98.0667 271.934 97.4Z" fill="#CC00A4"/>
<path d="M164.715 101.644C164.715 101.644 182.282 108.668 200.3 109.057C200.3 109.057 230.932 111.4 243.094 105.157C243.094 105.157 232.282 116.862 200.3 116.862C200.303 116.864 175.528 115.695 164.715 101.644Z" fill="#CC00A4"/>
<path d="M319.233 159.436C306.332 148.844 293.271 139.342 282.699 126.368C279.732 122.728 266.506 103.141 260.679 108.602C259.462 109.745 268.976 121.923 270.214 123.539C274.276 128.844 276.169 131.74 278.862 135.477C278.131 134.826 276.905 135.809 276.988 136.785C277.207 137.749 277.795 138.588 278.626 139.123L293.306 151.403L289.273 151.848C294.817 159.022 302.319 164.437 310.873 167.439C308.214 168.843 310.739 172.807 313.255 174.453C320.858 179.426 322.3 179.648 329.903 184.624C332.555 180.712 335.668 177.132 339.173 173.962C331.438 168.397 328.141 166.751 319.233 159.436Z" fill="#26E4EE"/>
</svg>
