<svg width="469" height="320" viewBox="0 0 469 320" fill="none" xmlns="http://www.w3.org/2000/svg">
<g clip-path="url(#clip0_1298_155389)">
<rect x="105.5" y="24.8882" width="404.333" height="256.612" rx="9.5" fill="white" stroke="#edebff"/>
<path d="M136.913 97.0721C136.805 96.1001 136.319 95.6621 135.437 95.5901V98.5061C137.051 99.1541 138.089 99.6941 138.089 101.116C138.089 102.448 137.213 103.474 135.473 103.636V105.364H134.573V103.648C132.809 103.522 131.969 102.544 131.873 101.062L133.025 100.924C133.145 101.998 133.655 102.544 134.615 102.652V99.4661C133.259 98.9021 132.257 98.2841 132.257 96.8981C132.257 95.5841 133.097 94.8161 134.573 94.6481V92.9081H135.473V94.6181C136.907 94.6841 137.975 95.3321 138.047 96.9701L136.913 97.0721ZM133.427 96.8081C133.427 97.4441 133.769 97.7681 134.615 98.1581V95.6141C133.823 95.7281 133.427 96.1361 133.427 96.8081ZM135.437 102.652C136.391 102.544 136.871 102.034 136.871 101.242C136.871 100.516 136.385 100.198 135.437 99.8021V102.652Z" fill="#702eea"/>
<path d="M152.87 100.426C152.87 102.43 151.958 103.66 150.404 103.66C149.498 103.66 148.886 103.246 148.49 102.7H148.412V105.838H147.278V97.3541H148.238L148.328 98.1701H148.484C148.928 97.6241 149.558 97.2101 150.452 97.2101C152.012 97.2101 152.87 98.4641 152.87 100.426ZM148.412 101.998C148.916 102.514 149.432 102.7 149.972 102.7C151.07 102.7 151.7 101.956 151.7 100.426C151.7 98.9321 151.106 98.1761 149.99 98.1761C149.438 98.1761 148.928 98.3621 148.412 98.8781V101.998ZM154.719 97.3541H155.853V101.458C155.853 102.466 156.375 102.724 156.999 102.724C157.719 102.724 158.295 102.376 158.757 101.842V97.3541H159.891V103.516H158.931L158.829 102.634H158.679C158.193 103.15 157.551 103.654 156.507 103.654C155.409 103.654 154.719 103.096 154.719 101.764V97.3541ZM161.993 103.516V102.598H164.177L164.183 95.2361H161.993V94.3361L165.167 94.2041L165.317 94.3421V102.598H167.501V103.516H161.993ZM169.602 97.3541H170.736V101.458C170.736 102.466 171.258 102.724 171.882 102.724C172.602 102.724 173.178 102.376 173.64 101.842V97.3541H174.774V103.516H173.814L173.712 102.634H173.562C173.076 103.15 172.434 103.654 171.39 103.654C170.292 103.654 169.602 103.096 169.602 101.764V97.3541ZM180.668 103.516H179.6V98.9441C179.6 98.3321 179.264 98.1701 178.922 98.1701C178.478 98.1701 178.124 98.4521 177.872 98.8541V103.516H176.816V97.3541H177.704L177.794 98.2421H177.884C178.184 97.6421 178.718 97.2161 179.432 97.2161C180.086 97.2161 180.53 97.5461 180.632 98.2421H180.692C180.992 97.6421 181.502 97.2161 182.222 97.2161C182.966 97.2161 183.44 97.6481 183.446 98.5781L183.452 103.516H182.384V98.9441C182.384 98.3321 182.048 98.1701 181.7 98.1701C181.256 98.1701 180.908 98.4461 180.656 98.8421L180.668 103.516ZM185.385 103.516V102.604H187.035V98.2541H185.385V97.3541L188.025 97.2161L188.175 97.3601V102.604H189.825V103.516H185.385ZM187.389 95.8241C186.891 95.8241 186.549 95.5301 186.549 95.0501C186.549 94.5701 186.891 94.2821 187.389 94.2821C187.881 94.2821 188.223 94.5701 188.223 95.0501C188.223 95.5301 187.881 95.8241 187.389 95.8241ZM198.948 100.426C198.948 98.3441 200.19 97.2101 202.086 97.2101C203.832 97.2101 204.852 98.1221 204.852 99.9341V100.474H200.112C200.13 101.974 200.844 102.73 202.05 102.73C202.836 102.73 203.43 102.412 203.724 101.71L204.828 101.896C204.408 103.048 203.4 103.66 202.044 103.66C200.202 103.66 198.948 102.544 198.948 100.426ZM200.172 99.7181H203.742C203.736 98.6201 203.016 98.1401 202.05 98.1401C201.042 98.1401 200.37 98.6741 200.172 99.7181ZM211.981 103.516H210.847V99.4061C210.847 98.4041 210.325 98.1401 209.701 98.1401C208.981 98.1401 208.405 98.4941 207.943 99.0281V103.516H206.809V97.3541H207.769L207.871 98.2361H208.021C208.507 97.7141 209.149 97.2101 210.193 97.2101C211.291 97.2101 211.981 97.7681 211.981 99.1061V103.516ZM213.717 97.3541H214.929L216.849 102.118H216.933L218.841 97.3541H219.957L217.413 103.516H216.261L213.717 97.3541ZM231.462 97.3541L231.558 98.2301H231.714C232.35 97.5701 232.962 97.2101 234.042 97.2101C234.264 97.2101 234.45 97.2281 234.636 97.2641V98.3261C233.268 98.3261 232.542 98.4161 231.636 99.0401V102.598H233.82V103.516H228.864V102.598H230.502V98.2721H228.864V97.3541H231.462ZM236.575 97.3541H237.709V101.458C237.709 102.466 238.231 102.724 238.855 102.724C239.575 102.724 240.151 102.376 240.613 101.842V97.3541H241.747V103.516H240.787L240.685 102.634H240.535C240.049 103.15 239.407 103.654 238.363 103.654C237.265 103.654 236.575 103.096 236.575 101.764V97.3541ZM249.188 103.516H248.054V99.4061C248.054 98.4041 247.532 98.1401 246.908 98.1401C246.188 98.1401 245.612 98.4941 245.15 99.0281V103.516H244.016V97.3541H244.976L245.078 98.2361H245.228C245.714 97.7141 246.356 97.2101 247.4 97.2101C248.498 97.2101 249.188 97.7681 249.188 99.1061V103.516ZM264.491 100.444C264.491 102.604 263.141 103.66 261.485 103.66C259.835 103.66 258.479 102.604 258.479 100.444C258.479 98.2901 259.835 97.2101 261.485 97.2101C263.141 97.2101 264.491 98.2901 264.491 100.444ZM263.321 100.444C263.321 98.8721 262.565 98.1401 261.485 98.1401C260.405 98.1401 259.643 98.8721 259.643 100.444C259.643 102.016 260.405 102.73 261.485 102.73C262.565 102.73 263.321 102.016 263.321 100.444ZM268.669 97.3541L268.765 98.2301H268.921C269.557 97.5701 270.169 97.2101 271.249 97.2101C271.471 97.2101 271.657 97.2281 271.843 97.2641V98.3261C270.475 98.3261 269.749 98.4161 268.843 99.0401V102.598H271.027V103.516H266.071V102.598H267.709V98.2721H266.071V97.3541H268.669ZM273.362 100.15C273.362 98.3561 274.316 97.2101 275.816 97.2101C276.722 97.2101 277.346 97.6241 277.742 98.1701H277.904L277.994 97.3541H278.954V103.168C278.954 105.19 277.976 105.982 276.176 105.982C274.478 105.982 273.74 105.286 273.518 104.344L274.55 104.11C274.778 104.818 275.33 105.142 276.176 105.142C277.124 105.142 277.82 104.734 277.82 103.288V102.106H277.748C277.304 102.652 276.662 103.066 275.768 103.066C274.268 103.066 273.362 101.89 273.362 100.15ZM274.532 100.15C274.532 101.362 275.144 102.1 276.242 102.1C276.794 102.1 277.304 101.908 277.82 101.392V98.8721C277.316 98.3561 276.8 98.1701 276.26 98.1701C275.18 98.1701 274.532 98.8961 274.532 100.15ZM282.219 104.716H281.001L285.147 94.7561H286.371L282.219 104.716ZM291.107 97.2101C292.613 97.2101 293.495 97.7081 293.495 99.1601V102.214C293.495 102.658 293.663 102.772 294.227 102.688V103.516C293.945 103.6 293.687 103.636 293.459 103.636C292.715 103.636 292.469 103.24 292.427 102.748H292.319C291.821 103.198 291.191 103.66 290.195 103.66C289.055 103.66 288.329 103.048 288.329 101.998C288.329 100.276 290.267 100.054 292.361 100.066V99.2261C292.361 98.2361 291.803 98.0141 290.987 98.0201C290.207 98.0261 289.613 98.2481 289.601 99.0701V99.3341H288.539V99.0101C288.539 97.9541 289.265 97.2101 291.107 97.2101ZM289.517 101.86C289.517 102.472 289.961 102.802 290.705 102.802C291.353 102.802 291.857 102.55 292.361 102.184V100.732C292.169 100.714 291.971 100.702 291.791 100.702C290.375 100.702 289.517 101.014 289.517 101.86ZM295.128 97.3541H296.214L297.204 101.776H297.306L298.368 98.3021H299.136L300.126 101.776H300.228L301.212 97.3541H302.256L300.792 103.516H299.784L298.734 99.8081H298.65L297.528 103.516H296.592L295.128 97.3541ZM306.158 97.2101C307.784 97.2101 308.72 97.7981 308.768 99.0461L307.736 99.1181C307.658 98.4161 307.118 98.0561 306.08 98.0561C305.144 98.0561 304.556 98.3321 304.556 98.9141C304.556 99.4421 305.054 99.6581 306.428 99.9401C308.072 100.276 308.84 100.654 308.84 101.728C308.84 102.886 307.922 103.654 306.11 103.654C304.406 103.654 303.434 103.168 303.158 101.728L304.202 101.596C304.49 102.676 305.276 102.778 306.164 102.778C307.268 102.778 307.706 102.34 307.706 101.854C307.706 101.314 307.19 101.122 305.726 100.822C304.244 100.516 303.47 100.072 303.47 99.0161C303.47 97.9181 304.304 97.2101 306.158 97.2101ZM311.655 100.078V99.0941H315.495V100.078H311.655ZM321.04 97.2101C322.666 97.2101 323.602 97.7981 323.65 99.0461L322.618 99.1181C322.54 98.4161 322 98.0561 320.962 98.0561C320.026 98.0561 319.438 98.3321 319.438 98.9141C319.438 99.4421 319.936 99.6581 321.31 99.9401C322.954 100.276 323.722 100.654 323.722 101.728C323.722 102.886 322.804 103.654 320.992 103.654C319.288 103.654 318.316 103.168 318.04 101.728L319.084 101.596C319.372 102.676 320.158 102.778 321.046 102.778C322.15 102.778 322.588 102.34 322.588 101.854C322.588 101.314 322.072 101.122 320.608 100.822C319.126 100.516 318.352 100.072 318.352 99.0161C318.352 97.9181 319.186 97.2101 321.04 97.2101ZM329.652 103.636C327.87 103.642 327.114 103.096 327.114 101.02V98.2721H325.326V97.3541H327.114V95.4221H328.254V97.3541H331.086V98.2721H328.254V100.966C328.254 102.304 328.65 102.634 329.748 102.634C330.264 102.634 330.762 102.55 331.23 102.43V103.42C330.774 103.558 330.21 103.636 329.652 103.636ZM335.755 97.2101C337.261 97.2101 338.143 97.7081 338.143 99.1601V102.214C338.143 102.658 338.311 102.772 338.875 102.688V103.516C338.593 103.6 338.335 103.636 338.107 103.636C337.363 103.636 337.117 103.24 337.075 102.748H336.967C336.469 103.198 335.839 103.66 334.843 103.66C333.703 103.66 332.977 103.048 332.977 101.998C332.977 100.276 334.915 100.054 337.009 100.066V99.2261C337.009 98.2361 336.451 98.0141 335.635 98.0201C334.855 98.0261 334.261 98.2481 334.249 99.0701V99.3341H333.187V99.0101C333.187 97.9541 333.913 97.2101 335.755 97.2101ZM334.165 101.86C334.165 102.472 334.609 102.802 335.353 102.802C336.001 102.802 336.505 102.55 337.009 102.184V100.732C336.817 100.714 336.619 100.702 336.439 100.702C335.023 100.702 334.165 101.014 334.165 101.86ZM340.335 100.15C340.335 98.3561 341.289 97.2101 342.789 97.2101C343.695 97.2101 344.319 97.6241 344.715 98.1701H344.877L344.967 97.3541H345.927V103.168C345.927 105.19 344.949 105.982 343.149 105.982C341.451 105.982 340.713 105.286 340.491 104.344L341.523 104.11C341.751 104.818 342.303 105.142 343.149 105.142C344.097 105.142 344.793 104.734 344.793 103.288V102.106H344.721C344.277 102.652 343.635 103.066 342.741 103.066C341.241 103.066 340.335 101.89 340.335 100.15ZM341.505 100.15C341.505 101.362 342.117 102.1 343.215 102.1C343.767 102.1 344.277 101.908 344.793 101.392V98.8721C344.289 98.3561 343.773 98.1701 343.233 98.1701C342.153 98.1701 341.505 98.8961 341.505 100.15ZM348.028 103.516V102.598H350.212V98.2541H348.028V97.3541L351.202 97.2161L351.352 97.3601V102.598H353.536V103.516H348.028ZM350.56 95.8001C350.062 95.8001 349.72 95.5061 349.72 95.0261C349.72 94.5461 350.062 94.2581 350.56 94.2581C351.052 94.2581 351.394 94.5461 351.394 95.0261C351.394 95.5061 351.052 95.8001 350.56 95.8001ZM360.809 103.516H359.675V99.4061C359.675 98.4041 359.153 98.1401 358.529 98.1401C357.809 98.1401 357.233 98.4941 356.771 99.0281V103.516H355.637V97.3541H356.597L356.699 98.2361H356.849C357.335 97.7141 357.977 97.2101 359.021 97.2101C360.119 97.2101 360.809 97.7681 360.809 99.1061V103.516ZM362.659 100.15C362.659 98.3561 363.613 97.2101 365.113 97.2101C366.019 97.2101 366.643 97.6241 367.039 98.1701H367.201L367.291 97.3541H368.251V103.168C368.251 105.19 367.273 105.982 365.473 105.982C363.775 105.982 363.037 105.286 362.815 104.344L363.847 104.11C364.075 104.818 364.627 105.142 365.473 105.142C366.421 105.142 367.117 104.734 367.117 103.288V102.106H367.045C366.601 102.652 365.959 103.066 365.065 103.066C363.565 103.066 362.659 101.89 362.659 100.15ZM363.829 100.15C363.829 101.362 364.441 102.1 365.539 102.1C366.091 102.1 366.601 101.908 367.117 101.392V98.8721C366.613 98.3561 366.097 98.1701 365.557 98.1701C364.477 98.1701 363.829 98.8961 363.829 100.15ZM378.628 100.078V99.0941H382.468V100.078H378.628ZM386.069 100.078V99.0941H389.909V100.078H386.069ZM402.728 97.2101C404.234 97.2101 405.116 97.7081 405.116 99.1601V102.214C405.116 102.658 405.284 102.772 405.848 102.688V103.516C405.566 103.6 405.308 103.636 405.08 103.636C404.336 103.636 404.09 103.24 404.048 102.748H403.94C403.442 103.198 402.812 103.66 401.816 103.66C400.676 103.66 399.95 103.048 399.95 101.998C399.95 100.276 401.888 100.054 403.982 100.066V99.2261C403.982 98.2361 403.424 98.0141 402.608 98.0201C401.828 98.0261 401.234 98.2481 401.222 99.0701V99.3341H400.16V99.0101C400.16 97.9541 400.886 97.2101 402.728 97.2101ZM401.138 101.86C401.138 102.472 401.582 102.802 402.326 102.802C402.974 102.802 403.478 102.55 403.982 102.184V100.732C403.79 100.714 403.592 100.702 403.412 100.702C401.996 100.702 401.138 101.014 401.138 101.86ZM406.749 97.3541H407.835L408.825 101.776H408.927L409.989 98.3021H410.757L411.747 101.776H411.849L412.833 97.3541H413.877L412.413 103.516H411.405L410.355 99.8081H410.271L409.149 103.516H408.213L406.749 97.3541ZM417.779 97.2101C419.405 97.2101 420.341 97.7981 420.389 99.0461L419.357 99.1181C419.279 98.4161 418.739 98.0561 417.701 98.0561C416.765 98.0561 416.177 98.3321 416.177 98.9141C416.177 99.4421 416.675 99.6581 418.049 99.9401C419.693 100.276 420.461 100.654 420.461 101.728C420.461 102.886 419.543 103.654 417.731 103.654C416.027 103.654 415.055 103.168 414.779 101.728L415.823 101.596C416.111 102.676 416.897 102.778 417.785 102.778C418.889 102.778 419.327 102.34 419.327 101.854C419.327 101.314 418.811 101.122 417.347 100.822C415.865 100.516 415.091 100.072 415.091 99.0161C415.091 97.9181 415.925 97.2101 417.779 97.2101ZM432.661 97.2101C434.287 97.2101 435.223 97.7981 435.271 99.0461L434.239 99.1181C434.161 98.4161 433.621 98.0561 432.583 98.0561C431.647 98.0561 431.059 98.3321 431.059 98.9141C431.059 99.4421 431.557 99.6581 432.931 99.9401C434.575 100.276 435.343 100.654 435.343 101.728C435.343 102.886 434.425 103.654 432.613 103.654C430.909 103.654 429.937 103.168 429.661 101.728L430.705 101.596C430.993 102.676 431.779 102.778 432.667 102.778C433.771 102.778 434.209 102.34 434.209 101.854C434.209 101.314 433.693 101.122 432.229 100.822C430.747 100.516 429.973 100.072 429.973 99.0161C429.973 97.9181 430.807 97.2101 432.661 97.2101ZM441.273 103.636C439.491 103.642 438.735 103.096 438.735 101.02V98.2721H436.947V97.3541H438.735V95.4221H439.875V97.3541H442.707V98.2721H439.875V100.966C439.875 102.304 440.271 102.634 441.369 102.634C441.885 102.634 442.383 102.55 442.851 102.43V103.42C442.395 103.558 441.831 103.636 441.273 103.636ZM447.544 97.2101C449.17 97.2101 450.106 97.7981 450.154 99.0461L449.122 99.1181C449.044 98.4161 448.504 98.0561 447.466 98.0561C446.53 98.0561 445.942 98.3321 445.942 98.9141C445.942 99.4421 446.44 99.6581 447.814 99.9401C449.458 100.276 450.226 100.654 450.226 101.728C450.226 102.886 449.308 103.654 447.496 103.654C445.792 103.654 444.82 103.168 444.544 101.728L445.588 101.596C445.876 102.676 446.662 102.778 447.55 102.778C448.654 102.778 449.092 102.34 449.092 101.854C449.092 101.314 448.576 101.122 447.112 100.822C445.63 100.516 444.856 100.072 444.856 99.0161C444.856 97.9181 445.69 97.2101 447.544 97.2101ZM131.975 118.15C131.975 116.356 132.929 115.21 134.429 115.21C135.335 115.21 135.959 115.624 136.355 116.17H136.517L136.607 115.354H137.567V121.168C137.567 123.19 136.589 123.982 134.789 123.982C133.091 123.982 132.353 123.286 132.131 122.344L133.163 122.11C133.391 122.818 133.943 123.142 134.789 123.142C135.737 123.142 136.433 122.734 136.433 121.288V120.106H136.361C135.917 120.652 135.275 121.066 134.381 121.066C132.881 121.066 131.975 119.89 131.975 118.15ZM133.145 118.15C133.145 119.362 133.757 120.1 134.855 120.1C135.407 120.1 135.917 119.908 136.433 119.392V116.872C135.929 116.356 135.413 116.17 134.873 116.17C133.793 116.17 133.145 116.896 133.145 118.15ZM139.417 118.426C139.417 116.344 140.659 115.21 142.555 115.21C144.301 115.21 145.321 116.122 145.321 117.934V118.474H140.581C140.599 119.974 141.313 120.73 142.519 120.73C143.305 120.73 143.899 120.412 144.193 119.71L145.297 119.896C144.877 121.048 143.869 121.66 142.513 121.66C140.671 121.66 139.417 120.544 139.417 118.426ZM140.641 117.718H144.211C144.205 116.62 143.485 116.14 142.519 116.14C141.511 116.14 140.839 116.674 140.641 117.718ZM151.058 121.636C149.276 121.642 148.52 121.096 148.52 119.02V116.272H146.732V115.354H148.52V113.422H149.66V115.354H152.492V116.272H149.66V118.966C149.66 120.304 150.056 120.634 151.154 120.634C151.67 120.634 152.168 120.55 152.636 120.43V121.42C152.18 121.558 151.616 121.636 151.058 121.636ZM155.385 118.078V117.094H159.225V118.078H155.385ZM167.687 119.638C167.345 121 166.223 121.66 164.819 121.66C163.001 121.66 161.741 120.556 161.741 118.42C161.741 116.272 163.025 115.21 164.879 115.21C166.385 115.21 167.531 115.912 167.687 117.394L166.565 117.49C166.421 116.542 165.749 116.14 164.849 116.14C163.577 116.14 162.911 116.944 162.911 118.42C162.911 119.98 163.655 120.73 164.825 120.73C165.719 120.73 166.337 120.298 166.589 119.464L167.687 119.638ZM172.044 115.21C173.55 115.21 174.432 115.708 174.432 117.16V120.214C174.432 120.658 174.6 120.772 175.164 120.688V121.516C174.882 121.6 174.624 121.636 174.396 121.636C173.652 121.636 173.406 121.24 173.364 120.748H173.256C172.758 121.198 172.128 121.66 171.132 121.66C169.992 121.66 169.266 121.048 169.266 119.998C169.266 118.276 171.204 118.054 173.298 118.066V117.226C173.298 116.236 172.74 116.014 171.924 116.02C171.144 116.026 170.55 116.248 170.538 117.07V117.334H169.476V117.01C169.476 115.954 170.202 115.21 172.044 115.21ZM170.454 119.86C170.454 120.472 170.898 120.802 171.642 120.802C172.29 120.802 172.794 120.55 173.298 120.184V118.732C173.106 118.714 172.908 118.702 172.728 118.702C171.312 118.702 170.454 119.014 170.454 119.86ZM176.876 121.516V120.598H179.06L179.066 113.236H176.876V112.336L180.05 112.204L180.2 112.342V120.598H182.384V121.516H176.876ZM184.317 121.516V120.598H186.501L186.507 113.236H184.317V112.336L187.491 112.204L187.641 112.342V120.598H189.825V121.516H184.317ZM191.506 118.426C191.506 116.344 192.748 115.21 194.644 115.21C196.39 115.21 197.41 116.122 197.41 117.934V118.474H192.67C192.688 119.974 193.402 120.73 194.608 120.73C195.394 120.73 195.988 120.412 196.282 119.71L197.386 119.896C196.966 121.048 195.958 121.66 194.602 121.66C192.76 121.66 191.506 120.544 191.506 118.426ZM192.73 117.718H196.3C196.294 116.62 195.574 116.14 194.608 116.14C193.6 116.14 192.928 116.674 192.73 117.718ZM201.696 115.354L201.792 116.23H201.948C202.584 115.57 203.196 115.21 204.276 115.21C204.498 115.21 204.684 115.228 204.87 115.264V116.326C203.502 116.326 202.776 116.416 201.87 117.04V120.598H204.054V121.516H199.098V120.598H200.736V116.272H199.098V115.354H201.696ZM207.475 118.078V117.094H211.315V118.078H207.475ZM214.083 121.516V120.598H216.267V116.254H214.083V115.354L217.257 115.216L217.407 115.36V120.598H219.591V121.516H214.083ZM216.615 113.8C216.117 113.8 215.775 113.506 215.775 113.026C215.775 112.546 216.117 112.258 216.615 112.258C217.107 112.258 217.449 112.546 217.449 113.026C217.449 113.506 217.107 113.8 216.615 113.8ZM221.272 118.45C221.272 116.44 222.184 115.21 223.738 115.21C224.644 115.21 225.256 115.624 225.652 116.17H225.73V112.336H226.864V121.516H225.904L225.814 120.706H225.658C225.214 121.252 224.584 121.666 223.69 121.666C222.13 121.666 221.272 120.406 221.272 118.45ZM222.442 118.45C222.442 119.938 223.036 120.7 224.152 120.7C224.704 120.7 225.214 120.508 225.73 119.992V116.872C225.226 116.356 224.71 116.17 224.17 116.17C223.072 116.17 222.442 116.914 222.442 118.45ZM228.714 118.426C228.714 116.344 229.956 115.21 231.852 115.21C233.598 115.21 234.618 116.122 234.618 117.934V118.474H229.878C229.896 119.974 230.61 120.73 231.816 120.73C232.602 120.73 233.196 120.412 233.49 119.71L234.594 119.896C234.174 121.048 233.166 121.66 231.81 121.66C229.968 121.66 228.714 120.544 228.714 118.426ZM229.938 117.718H233.508C233.502 116.62 232.782 116.14 231.816 116.14C230.808 116.14 230.136 116.674 229.938 117.718ZM241.747 121.516H240.613V117.406C240.613 116.404 240.091 116.14 239.467 116.14C238.747 116.14 238.171 116.494 237.709 117.028V121.516H236.575V115.354H237.535L237.637 116.236H237.787C238.273 115.714 238.915 115.21 239.959 115.21C241.057 115.21 241.747 115.768 241.747 117.106V121.516ZM247.796 121.636C246.014 121.642 245.258 121.096 245.258 119.02V116.272H243.47V115.354H245.258V113.422H246.398V115.354H249.23V116.272H246.398V118.966C246.398 120.304 246.794 120.634 247.892 120.634C248.408 120.634 248.906 120.55 249.374 120.43V121.42C248.918 121.558 248.354 121.636 247.796 121.636ZM251.29 121.516V120.598H253.474V116.254H251.29V115.354L254.464 115.216L254.614 115.36V120.598H256.798V121.516H251.29ZM253.822 113.8C253.324 113.8 252.982 113.506 252.982 113.026C252.982 112.546 253.324 112.258 253.822 112.258C254.314 112.258 254.656 112.546 254.656 113.026C254.656 113.506 254.314 113.8 253.822 113.8ZM262.679 121.636C260.897 121.642 260.141 121.096 260.141 119.02V116.272H258.353V115.354H260.141V113.422H261.281V115.354H264.113V116.272H261.281V118.966C261.281 120.304 261.677 120.634 262.775 120.634C263.291 120.634 263.789 120.55 264.257 120.43V121.42C263.801 121.558 263.237 121.636 262.679 121.636ZM265.747 115.354H266.971L269.053 120.172H269.137L270.955 115.354H272.101L269.719 121.42C269.149 122.878 268.351 123.982 266.677 123.982C266.395 123.982 266.167 123.946 265.951 123.898V122.884C266.185 122.944 266.425 122.98 266.701 122.98C267.733 122.98 268.183 122.428 268.399 121.882L268.495 121.618L265.747 115.354ZM281.889 118.078V117.094H285.729V118.078H281.889ZM289.331 118.078V117.094H293.171V118.078H289.331ZM301.698 118.444C301.698 120.604 300.348 121.66 298.692 121.66C297.042 121.66 295.686 120.604 295.686 118.444C295.686 116.29 297.042 115.21 298.692 115.21C300.348 115.21 301.698 116.29 301.698 118.444ZM300.528 118.444C300.528 116.872 299.772 116.14 298.692 116.14C297.612 116.14 296.85 116.872 296.85 118.444C296.85 120.016 297.612 120.73 298.692 120.73C299.772 120.73 300.528 120.016 300.528 118.444ZM303.548 115.354H304.682V119.458C304.682 120.466 305.204 120.724 305.828 120.724C306.548 120.724 307.124 120.376 307.586 119.842V115.354H308.72V121.516H307.76L307.658 120.634H307.508C307.022 121.15 306.38 121.654 305.336 121.654C304.238 121.654 303.548 121.096 303.548 119.764V115.354ZM314.769 121.636C312.987 121.642 312.231 121.096 312.231 119.02V116.272H310.443V115.354H312.231V113.422H313.371V115.354H316.203V116.272H313.371V118.966C313.371 120.304 313.767 120.634 314.865 120.634C315.381 120.634 315.879 120.55 316.347 120.43V121.42C315.891 121.558 315.327 121.636 314.769 121.636ZM324.022 118.426C324.022 120.43 323.11 121.66 321.556 121.66C320.65 121.66 320.038 121.246 319.642 120.7H319.564V123.838H318.43V115.354H319.39L319.48 116.17H319.636C320.08 115.624 320.71 115.21 321.604 115.21C323.164 115.21 324.022 116.464 324.022 118.426ZM319.564 119.998C320.068 120.514 320.584 120.7 321.124 120.7C322.222 120.7 322.852 119.956 322.852 118.426C322.852 116.932 322.258 116.176 321.142 116.176C320.59 116.176 320.08 116.362 319.564 116.878V119.998ZM325.872 115.354H327.006V119.458C327.006 120.466 327.528 120.724 328.152 120.724C328.872 120.724 329.448 120.376 329.91 119.842V115.354H331.044V121.516H330.084L329.982 120.634H329.832C329.346 121.15 328.704 121.654 327.66 121.654C326.562 121.654 325.872 121.096 325.872 119.764V115.354ZM337.093 121.636C335.311 121.642 334.555 121.096 334.555 119.02V116.272H332.767V115.354H334.555V113.422H335.695V115.354H338.527V116.272H335.695V118.966C335.695 120.304 336.091 120.634 337.189 120.634C337.705 120.634 338.203 120.55 338.671 120.43V121.42C338.215 121.558 337.651 121.636 337.093 121.636ZM352.348 121.222C352.348 123.418 351.628 124.024 349.684 124.024C349.102 124.024 348.556 123.952 348.028 123.802V122.812C348.568 122.938 349.09 123.022 349.648 123.022C350.794 123.022 351.214 122.626 351.214 121.192V116.254H348.292V115.354L352.204 115.216L352.348 115.36V121.222ZM351.544 113.8C351.052 113.8 350.71 113.506 350.71 113.026C350.71 112.546 351.052 112.258 351.544 112.258C352.042 112.258 352.384 112.546 352.384 113.026C352.384 113.506 352.042 113.8 351.544 113.8ZM358.247 115.21C359.873 115.21 360.809 115.798 360.857 117.046L359.825 117.118C359.747 116.416 359.207 116.056 358.169 116.056C357.233 116.056 356.645 116.332 356.645 116.914C356.645 117.442 357.143 117.658 358.517 117.94C360.161 118.276 360.929 118.654 360.929 119.728C360.929 120.886 360.011 121.654 358.199 121.654C356.495 121.654 355.523 121.168 355.247 119.728L356.291 119.596C356.579 120.676 357.365 120.778 358.253 120.778C359.357 120.778 359.795 120.34 359.795 119.854C359.795 119.314 359.279 119.122 357.815 118.822C356.333 118.516 355.559 118.072 355.559 117.016C355.559 115.918 356.393 115.21 358.247 115.21ZM368.671 118.444C368.671 120.604 367.321 121.66 365.665 121.66C364.015 121.66 362.659 120.604 362.659 118.444C362.659 116.29 364.015 115.21 365.665 115.21C367.321 115.21 368.671 116.29 368.671 118.444ZM367.501 118.444C367.501 116.872 366.745 116.14 365.665 116.14C364.585 116.14 363.823 116.872 363.823 118.444C363.823 120.016 364.585 120.73 365.665 120.73C366.745 120.73 367.501 120.016 367.501 118.444ZM375.692 121.516H374.558V117.406C374.558 116.404 374.036 116.14 373.412 116.14C372.692 116.14 372.116 116.494 371.654 117.028V121.516H370.52V115.354H371.48L371.582 116.236H371.732C372.218 115.714 372.86 115.21 373.904 115.21C375.002 115.21 375.692 115.768 375.692 117.106V121.516Z" fill="#1E1B28"/>
<path d="M115 24.8882H500.333C505.58 24.8882 509.833 29.1415 509.833 34.3882V74.4907H105.5V34.3882C105.5 29.1415 109.753 24.8882 115 24.8882Z" fill="#F6F5FF" stroke="#edebff"/>
<path d="M131.334 43.5566C135.359 43.5569 138.631 46.8446 138.631 50.9121C138.631 54.9798 135.359 58.2683 131.334 58.2686C127.309 58.2686 124.036 54.9799 124.036 50.9121C124.036 46.8445 127.309 43.5566 131.334 43.5566Z" stroke="#edebff" stroke-width="1.53493"/>
<path d="M154.377 43.5566C158.402 43.5569 161.674 46.8446 161.674 50.9121C161.674 54.9798 158.402 58.2683 154.377 58.2686C150.352 58.2686 147.079 54.9799 147.079 50.9121C147.079 46.8445 150.352 43.5566 154.377 43.5566Z" stroke="#edebff" stroke-width="1.53493"/>
<path d="M177.419 43.5566C181.444 43.5569 184.716 46.8446 184.716 50.9121C184.716 54.9798 181.444 58.2683 177.419 58.2686C173.394 58.2686 170.122 54.9799 170.122 50.9121C170.122 46.8445 173.394 43.5566 177.419 43.5566Z" stroke="#edebff" stroke-width="1.53493"/>
<g clip-path="url(#clip1_1298_155389)">
<path d="M128.352 166.24V165.136C130.488 165.106 131.148 164.32 130.746 162.814L130.626 162.382C130.158 160.636 130.86 159.682 132.588 159.682H134.208V160.558H132.984C131.94 160.558 131.412 161.002 131.772 162.508L131.88 162.964C132.258 164.524 131.544 165.442 130.056 165.688C131.544 165.928 132.252 166.846 131.88 168.406L131.772 168.868C131.412 170.374 131.94 170.812 132.984 170.812H134.208V171.694H132.588C130.86 171.694 130.152 170.734 130.626 168.988L130.746 168.562C131.154 167.056 130.488 166.276 128.352 166.24ZM128.352 243.694V242.812H129.576C130.62 242.812 131.148 242.374 130.788 240.868L130.68 240.406C130.308 238.846 131.016 237.928 132.504 237.688C131.016 237.442 130.302 236.524 130.68 234.964L130.788 234.508C131.148 233.002 130.62 232.558 129.576 232.558H128.352V231.682H129.972C131.7 231.682 132.402 232.636 131.934 234.382L131.814 234.814C131.412 236.32 132.072 237.106 134.208 237.136V238.24C132.072 238.276 131.406 239.056 131.814 240.562L131.934 240.988C132.408 242.734 131.7 243.694 129.972 243.694H128.352Z" fill="#24292E"/>
<path d="M145.004 182.524H144.068L143.96 178.534H145.106L145.004 182.524ZM148.262 182.524H147.326L147.218 178.534H148.364L148.262 182.524ZM153.604 186.43C155.02 186.43 155.236 185.548 155.236 184.318V178.534H156.394V184.642C156.394 186.238 155.638 187.432 153.604 187.432C151.57 187.432 150.814 186.238 150.814 184.642V178.534H151.972V184.318C151.972 185.548 152.188 186.43 153.604 186.43ZM161.069 180.988C162.695 180.988 163.631 181.576 163.679 182.824L162.647 182.896C162.569 182.194 162.029 181.834 160.991 181.834C160.055 181.834 159.467 182.11 159.467 182.692C159.467 183.22 159.965 183.436 161.339 183.718C162.983 184.054 163.751 184.432 163.751 185.506C163.751 186.664 162.833 187.432 161.021 187.432C159.317 187.432 158.345 186.946 158.069 185.506L159.113 185.374C159.401 186.454 160.187 186.556 161.075 186.556C162.179 186.556 162.617 186.118 162.617 185.632C162.617 185.092 162.101 184.9 160.637 184.6C159.155 184.294 158.381 183.85 158.381 182.794C158.381 181.696 159.215 180.988 161.069 180.988ZM165.481 184.204C165.481 182.122 166.723 180.988 168.619 180.988C170.365 180.988 171.385 181.9 171.385 183.712V184.252H166.645C166.663 185.752 167.377 186.508 168.583 186.508C169.369 186.508 169.963 186.19 170.257 185.488L171.361 185.674C170.941 186.826 169.933 187.438 168.577 187.438C166.735 187.438 165.481 186.322 165.481 184.204ZM166.705 183.496H170.275C170.269 182.398 169.549 181.918 168.583 181.918C167.575 181.918 166.903 182.452 166.705 183.496ZM175.67 181.132L175.766 182.008H175.922C176.558 181.348 177.17 180.988 178.25 180.988C178.472 180.988 178.658 181.006 178.844 181.042V182.104C177.476 182.104 176.75 182.194 175.844 182.818V186.376H178.028V187.294H173.072V186.376H174.71V182.05H173.072V181.132H175.67ZM180.639 187.294V186.31H182.787V179.518H180.639V178.534H186.099V179.518H183.951V186.31H186.099V187.294H180.639ZM187.805 184.228C187.805 182.218 188.717 180.988 190.271 180.988C191.177 180.988 191.789 181.402 192.185 181.948H192.263V178.114H193.397V187.294H192.437L192.347 186.484H192.191C191.747 187.03 191.117 187.444 190.223 187.444C188.663 187.444 187.805 186.184 187.805 184.228ZM188.975 184.228C188.975 185.716 189.569 186.478 190.685 186.478C191.237 186.478 191.747 186.286 192.263 185.77V182.65C191.759 182.134 191.243 181.948 190.703 181.948C189.605 181.948 188.975 182.692 188.975 184.228ZM197.094 182.524H196.158L196.05 178.534H197.196L197.094 182.524ZM200.352 182.524H199.416L199.308 178.534H200.454L200.352 182.524ZM145.004 200.524H144.068L143.96 196.534H145.106L145.004 200.524ZM148.262 200.524H147.326L147.218 196.534H148.364L148.262 200.524ZM157 205.294H155.788L155.062 202.9H152.092L151.372 205.294H150.208L152.968 196.534H154.228L157 205.294ZM152.356 202.012H154.798L153.61 198.088H153.538L152.356 202.012ZM163.985 203.416C163.643 204.778 162.521 205.438 161.117 205.438C159.299 205.438 158.039 204.334 158.039 202.198C158.039 200.05 159.323 198.988 161.177 198.988C162.683 198.988 163.829 199.69 163.985 201.172L162.863 201.268C162.719 200.32 162.047 199.918 161.147 199.918C159.875 199.918 159.209 200.722 159.209 202.198C159.209 203.758 159.953 204.508 161.123 204.508C162.017 204.508 162.635 204.076 162.887 203.242L163.985 203.416ZM171.427 203.416C171.085 204.778 169.963 205.438 168.559 205.438C166.741 205.438 165.481 204.334 165.481 202.198C165.481 200.05 166.765 198.988 168.619 198.988C170.125 198.988 171.271 199.69 171.427 201.172L170.305 201.268C170.161 200.32 169.489 199.918 168.589 199.918C167.317 199.918 166.651 200.722 166.651 202.198C166.651 203.758 167.395 204.508 168.565 204.508C169.459 204.508 170.077 204.076 170.329 203.242L171.427 203.416ZM178.934 202.222C178.934 204.382 177.584 205.438 175.928 205.438C174.278 205.438 172.922 204.382 172.922 202.222C172.922 200.068 174.278 198.988 175.928 198.988C177.584 198.988 178.934 200.068 178.934 202.222ZM177.764 202.222C177.764 200.65 177.008 199.918 175.928 199.918C174.848 199.918 174.086 200.65 174.086 202.222C174.086 203.794 174.848 204.508 175.928 204.508C177.008 204.508 177.764 203.794 177.764 202.222ZM180.783 199.132H181.917V203.236C181.917 204.244 182.439 204.502 183.063 204.502C183.783 204.502 184.359 204.154 184.821 203.62V199.132H185.955V205.294H184.995L184.893 204.412H184.743C184.257 204.928 183.615 205.432 182.571 205.432C181.473 205.432 180.783 204.874 180.783 203.542V199.132ZM193.397 205.294H192.263V201.184C192.263 200.182 191.741 199.918 191.117 199.918C190.397 199.918 189.821 200.272 189.359 200.806V205.294H188.225V199.132H189.185L189.287 200.014H189.437C189.923 199.492 190.565 198.988 191.609 198.988C192.707 198.988 193.397 199.546 193.397 200.884V205.294ZM199.446 205.414C197.664 205.42 196.908 204.874 196.908 202.798V200.05H195.12V199.132H196.908V197.2H198.048V199.132H200.88V200.05H198.048V202.744C198.048 204.082 198.444 204.412 199.542 204.412C200.058 204.412 200.556 204.328 201.024 204.208V205.198C200.568 205.336 200.004 205.414 199.446 205.414ZM204.536 200.524H203.6L203.492 196.534H204.638L204.536 200.524ZM207.794 200.524H206.858L206.75 196.534H207.896L207.794 200.524ZM145.004 218.524H144.068L143.96 214.534H145.106L145.004 218.524ZM148.262 218.524H147.326L147.218 214.534H148.364L148.262 218.524ZM157 223.294H155.788L155.062 220.9H152.092L151.372 223.294H150.208L152.968 214.534H154.228L157 223.294ZM152.356 220.012H154.798L153.61 216.088H153.538L152.356 220.012ZM160.787 217.132L160.883 218.008H161.039C161.675 217.348 162.287 216.988 163.367 216.988C163.589 216.988 163.775 217.006 163.961 217.042V218.104C162.593 218.104 161.867 218.194 160.961 218.818V222.376H163.145V223.294H158.189V222.376H159.827V218.05H158.189V217.132H160.787ZM171.073 223.294H169.939V219.184C169.939 218.182 169.417 217.918 168.793 217.918C168.073 217.918 167.497 218.272 167.035 218.806V223.294H165.901V217.132H166.861L166.963 218.014H167.113C167.599 217.492 168.241 216.988 169.285 216.988C170.383 216.988 171.073 217.546 171.073 218.884V223.294ZM174.77 218.524H173.834L173.726 214.534H174.872L174.77 218.524ZM178.028 218.524H177.092L176.984 214.534H178.13L178.028 218.524Z" fill="#D32F2F"/>
<path d="M205.712 187.474C205.094 187.474 204.602 187.066 204.602 186.394C204.602 185.71 205.094 185.314 205.712 185.314C206.324 185.314 206.816 185.71 206.816 186.394C206.816 187.066 206.324 187.474 205.712 187.474ZM205.712 182.806C205.094 182.806 204.602 182.398 204.602 181.726C204.602 181.042 205.094 180.646 205.712 180.646C206.324 180.646 206.816 181.042 206.816 181.726C206.816 182.398 206.324 182.806 205.712 182.806ZM525.692 187.504C525.026 187.504 524.552 187.084 524.552 186.418C524.552 185.734 525.044 185.344 525.668 185.344C526.346 185.344 526.898 185.794 526.898 186.796C526.898 188.08 525.998 189.202 525.014 189.952L524.444 189.478C525.23 188.83 525.782 188.182 525.974 187.474C525.878 187.492 525.788 187.504 525.692 187.504ZM213.153 205.474C212.535 205.474 212.043 205.066 212.043 204.394C212.043 203.71 212.535 203.314 213.153 203.314C213.765 203.314 214.257 203.71 214.257 204.394C214.257 205.066 213.765 205.474 213.153 205.474ZM213.153 200.806C212.535 200.806 212.043 200.398 212.043 199.726C212.043 199.042 212.535 198.646 213.153 198.646C213.765 198.646 214.257 199.042 214.257 199.726C214.257 200.398 213.765 200.806 213.153 200.806ZM332.216 205.504C331.55 205.504 331.076 205.084 331.076 204.418C331.076 203.734 331.568 203.344 332.192 203.344C332.87 203.344 333.422 203.794 333.422 204.796C333.422 206.08 332.522 207.202 331.538 207.952L330.968 207.478C331.754 206.83 332.306 206.182 332.498 205.474C332.402 205.492 332.312 205.504 332.216 205.504ZM183.387 223.474C182.769 223.474 182.277 223.066 182.277 222.394C182.277 221.71 182.769 221.314 183.387 221.314C183.999 221.314 184.491 221.71 184.491 222.394C184.491 223.066 183.999 223.474 183.387 223.474ZM183.387 218.806C182.769 218.806 182.277 218.398 182.277 217.726C182.277 217.042 182.769 216.646 183.387 216.646C183.999 216.646 184.491 217.042 184.491 217.726C184.491 218.398 183.999 218.806 183.387 218.806Z" fill="#212121"/>
<path d="M219.418 182.524H218.482L218.374 178.534H219.52L219.418 182.524ZM222.676 182.524H221.74L221.632 178.534H222.778L222.676 182.524ZM231.414 187.294H230.202L229.476 184.9H226.506L225.786 187.294H224.622L227.382 178.534H228.642L231.414 187.294ZM226.77 184.012H229.212L228.024 180.088H227.952L226.77 184.012ZM233.965 187.294H232.801V178.534H235.441C237.205 178.534 238.417 179.248 238.417 180.916C238.417 182.242 237.715 183.22 236.383 183.598L238.705 187.294H237.307L235.261 183.766L235.033 183.772H233.965V187.294ZM234.997 182.866C236.629 182.866 237.223 182.122 237.223 181.03C237.223 179.878 236.509 179.452 235.141 179.452H233.965V182.866H234.997ZM246.039 182.908C246.039 185.974 244.827 187.432 242.901 187.432C240.981 187.432 239.763 185.974 239.763 182.908C239.763 179.794 240.981 178.39 242.901 178.39C244.827 178.39 246.039 179.794 246.039 182.908ZM244.827 182.908C244.827 180.328 244.119 179.422 242.901 179.422C241.689 179.422 240.975 180.328 240.975 182.908C240.975 185.488 241.689 186.406 242.901 186.406C244.119 186.406 244.827 185.488 244.827 182.908ZM253.738 187.294H252.526L251.8 184.9H248.83L248.11 187.294H246.946L249.706 178.534H250.966L253.738 187.294ZM249.094 184.012H251.536L250.348 180.088H250.276L249.094 184.012ZM255.053 187.294V186.31H257.201V179.518H255.053V178.534H260.513V179.518H258.365V186.31H260.513V187.294H255.053ZM268.363 182.908C268.363 185.974 267.151 187.432 265.225 187.432C263.305 187.432 262.087 185.974 262.087 182.908C262.087 179.794 263.305 178.39 265.225 178.39C267.151 178.39 268.363 179.794 268.363 182.908ZM267.151 182.908C267.151 180.328 266.443 179.422 265.225 179.422C264.013 179.422 263.299 180.328 263.299 182.908C263.299 185.488 264.013 186.406 265.225 186.406C266.443 186.406 267.151 185.488 267.151 182.908ZM274.598 180.85C274.478 179.776 273.896 179.356 272.828 179.356C271.682 179.356 271.112 179.776 271.112 180.586C271.112 181.39 271.658 181.696 273.062 182.26C274.712 182.92 275.774 183.454 275.774 184.894C275.774 186.352 274.73 187.438 272.654 187.438C270.62 187.438 269.66 186.43 269.558 184.84L270.71 184.702C270.848 185.914 271.478 186.454 272.702 186.454C273.932 186.454 274.556 185.92 274.556 185.02C274.556 184.132 273.824 183.856 272.414 183.292C270.998 182.716 269.942 182.098 269.942 180.676C269.942 179.182 271.034 178.39 272.912 178.39C274.466 178.39 275.654 179.02 275.732 180.748L274.598 180.85ZM278.572 187.294H277.414V178.534H282.826V179.518H278.572V182.62H282.088V183.562H278.572V187.294ZM290.687 182.908C290.687 185.974 289.475 187.432 287.549 187.432C285.629 187.432 284.411 185.974 284.411 182.908C284.411 179.794 285.629 178.39 287.549 178.39C289.475 178.39 290.687 179.794 290.687 182.908ZM289.475 182.908C289.475 180.328 288.767 179.422 287.549 179.422C286.337 179.422 285.623 180.328 285.623 182.908C285.623 185.488 286.337 186.406 287.549 186.406C288.767 186.406 289.475 185.488 289.475 182.908ZM292.297 187.294V178.534H294.397C296.905 178.534 298.099 180.058 298.099 182.842C298.099 185.632 296.905 187.294 294.397 187.294H292.297ZM296.887 182.842C296.887 180.538 296.125 179.488 294.301 179.488H293.455V186.34H294.301C296.125 186.34 296.887 185.146 296.887 182.842ZM303.872 187.294L300.812 180.436H300.74V187.294H299.738V178.534H300.992L304.052 185.284H304.124V178.534H305.126V187.294H303.872ZM311.313 187.294L308.253 180.436H308.181V187.294H307.179V178.534H308.433L311.493 185.284H311.565V178.534H312.567V187.294H311.313ZM314.519 178.534H320.135V179.344L317.171 187.294H315.953L318.881 179.518H314.519V178.534ZM322.062 187.294V178.534H327.486V179.518H323.22V182.386H326.748V183.322H323.22V186.31H327.486V187.294H322.062ZM329.024 178.534H330.332L332.186 181.702H332.306L334.088 178.534H335.36L332.876 182.8V182.878L335.462 187.294H334.142L332.192 183.952H332.072L330.23 187.294H328.934L331.508 182.86V182.788L329.024 178.534ZM343.035 187.294H341.823L341.097 184.9H338.127L337.407 187.294H336.243L339.003 178.534H340.263L343.035 187.294ZM338.391 184.012H340.833L339.645 180.088H339.573L338.391 184.012ZM344.212 178.534H345.43L347.074 183.04H347.146L348.796 178.534H349.948V187.294H349.018V180.316H348.934L347.29 184.96H346.834L345.19 180.316H345.118V187.294H344.212V178.534ZM353.028 187.294H351.864V178.534H354.498C356.25 178.534 357.534 179.176 357.534 180.982C357.534 182.782 356.49 184.084 354.03 184.084H353.028V187.294ZM354.072 183.154C355.74 183.154 356.358 182.368 356.358 181.126C356.358 179.884 355.626 179.452 354.264 179.452H353.028V183.154H354.072ZM359.485 187.294V178.534H360.649V186.31H364.891V187.294H359.485ZM366.711 187.294V178.534H372.135V179.518H367.869V182.386H371.397V183.322H367.869V186.31H372.135V187.294H366.711ZM376.864 187.474C376.246 187.474 375.754 187.066 375.754 186.394C375.754 185.71 376.246 185.314 376.864 185.314C377.476 185.314 377.968 185.71 377.968 186.394C377.968 187.066 377.476 187.474 376.864 187.474ZM376.864 182.806C376.246 182.806 375.754 182.398 375.754 181.726C375.754 181.042 376.246 180.646 376.864 180.646C377.476 180.646 377.968 181.042 377.968 181.726C377.968 182.398 377.476 182.806 376.864 182.806ZM387.293 184.204C387.293 186.208 386.381 187.438 384.827 187.438C383.921 187.438 383.309 187.024 382.913 186.478H382.835V189.616H381.701V181.132H382.661L382.751 181.948H382.907C383.351 181.402 383.981 180.988 384.875 180.988C386.435 180.988 387.293 182.242 387.293 184.204ZM382.835 185.776C383.339 186.292 383.855 186.478 384.395 186.478C385.493 186.478 386.123 185.734 386.123 184.204C386.123 182.71 385.529 181.954 384.413 181.954C383.861 181.954 383.351 182.14 382.835 182.656V185.776ZM389.143 181.132H390.277V185.236C390.277 186.244 390.799 186.502 391.423 186.502C392.143 186.502 392.719 186.154 393.181 185.62V181.132H394.315V187.294H393.355L393.253 186.412H393.103C392.617 186.928 391.975 187.432 390.931 187.432C389.833 187.432 389.143 186.874 389.143 185.542V181.132ZM396.416 187.294V186.376H398.6L398.606 179.014H396.416V178.114L399.59 177.982L399.74 178.12V186.376H401.924V187.294H396.416ZM404.026 181.132H405.16V185.236C405.16 186.244 405.682 186.502 406.306 186.502C407.026 186.502 407.602 186.154 408.064 185.62V181.132H409.198V187.294H408.238L408.136 186.412H407.986C407.5 186.928 406.858 187.432 405.814 187.432C404.716 187.432 404.026 186.874 404.026 185.542V181.132ZM415.091 187.294H414.023V182.722C414.023 182.11 413.687 181.948 413.345 181.948C412.901 181.948 412.547 182.23 412.295 182.632V187.294H411.239V181.132H412.127L412.217 182.02H412.307C412.607 181.42 413.141 180.994 413.855 180.994C414.509 180.994 414.953 181.324 415.055 182.02H415.115C415.415 181.42 415.925 180.994 416.645 180.994C417.389 180.994 417.863 181.426 417.869 182.356L417.875 187.294H416.807V182.722C416.807 182.11 416.471 181.948 416.123 181.948C415.679 181.948 415.331 182.224 415.079 182.62L415.091 187.294ZM419.808 187.294V186.382H421.458V182.032H419.808V181.132L422.448 180.994L422.598 181.138V186.382H424.248V187.294H419.808ZM421.812 179.602C421.314 179.602 420.972 179.308 420.972 178.828C420.972 178.348 421.314 178.06 421.812 178.06C422.304 178.06 422.646 178.348 422.646 178.828C422.646 179.308 422.304 179.602 421.812 179.602ZM427.016 183.856V182.872H430.856V183.856H427.016ZM433.371 184.204C433.371 182.122 434.613 180.988 436.509 180.988C438.255 180.988 439.275 181.9 439.275 183.712V184.252H434.535C434.553 185.752 435.267 186.508 436.473 186.508C437.259 186.508 437.853 186.19 438.147 185.488L439.251 185.674C438.831 186.826 437.823 187.438 436.467 187.438C434.625 187.438 433.371 186.322 433.371 184.204ZM434.595 183.496H438.165C438.159 182.398 437.439 181.918 436.473 181.918C435.465 181.918 434.793 182.452 434.595 183.496ZM443.843 180.988C445.469 180.988 446.405 181.576 446.453 182.824L445.421 182.896C445.343 182.194 444.803 181.834 443.765 181.834C442.829 181.834 442.241 182.11 442.241 182.692C442.241 183.22 442.739 183.436 444.113 183.718C445.757 184.054 446.525 184.432 446.525 185.506C446.525 186.664 445.607 187.432 443.795 187.432C442.091 187.432 441.119 186.946 440.843 185.506L441.887 185.374C442.175 186.454 442.961 186.556 443.849 186.556C444.953 186.556 445.391 186.118 445.391 185.632C445.391 185.092 444.875 184.9 443.411 184.6C441.929 184.294 441.155 183.85 441.155 182.794C441.155 181.696 441.989 180.988 443.843 180.988ZM454.2 185.416C453.858 186.778 452.736 187.438 451.332 187.438C449.514 187.438 448.254 186.334 448.254 184.198C448.254 182.05 449.538 180.988 451.392 180.988C452.898 180.988 454.044 181.69 454.2 183.172L453.078 183.268C452.934 182.32 452.262 181.918 451.362 181.918C450.09 181.918 449.424 182.722 449.424 184.198C449.424 185.758 450.168 186.508 451.338 186.508C452.232 186.508 452.85 186.076 453.102 185.242L454.2 185.416ZM456.781 183.856V182.872H460.621V183.856H456.781ZM466.167 180.988C467.793 180.988 468.729 181.576 468.777 182.824L467.745 182.896C467.667 182.194 467.127 181.834 466.089 181.834C465.153 181.834 464.565 182.11 464.565 182.692C464.565 183.22 465.063 183.436 466.437 183.718C468.081 184.054 468.849 184.432 468.849 185.506C468.849 186.664 467.931 187.432 466.119 187.432C464.415 187.432 463.443 186.946 463.167 185.506L464.211 185.374C464.499 186.454 465.285 186.556 466.173 186.556C467.277 186.556 467.715 186.118 467.715 185.632C467.715 185.092 467.199 184.9 465.735 184.6C464.253 184.294 463.479 183.85 463.479 182.794C463.479 181.696 464.313 180.988 466.167 180.988ZM470.578 184.204C470.578 182.122 471.82 180.988 473.716 180.988C475.462 180.988 476.482 181.9 476.482 183.712V184.252H471.742C471.76 185.752 472.474 186.508 473.68 186.508C474.466 186.508 475.06 186.19 475.354 185.488L476.458 185.674C476.038 186.826 475.03 187.438 473.674 187.438C471.832 187.438 470.578 186.322 470.578 184.204ZM471.802 183.496H475.372C475.366 182.398 474.646 181.918 473.68 181.918C472.672 181.918 472 182.452 471.802 183.496ZM481.05 180.988C482.676 180.988 483.612 181.576 483.66 182.824L482.628 182.896C482.55 182.194 482.01 181.834 480.972 181.834C480.036 181.834 479.448 182.11 479.448 182.692C479.448 183.22 479.946 183.436 481.32 183.718C482.964 184.054 483.732 184.432 483.732 185.506C483.732 186.664 482.814 187.432 481.002 187.432C479.298 187.432 478.326 186.946 478.05 185.506L479.094 185.374C479.382 186.454 480.168 186.556 481.056 186.556C482.16 186.556 482.598 186.118 482.598 185.632C482.598 185.092 482.082 184.9 480.618 184.6C479.136 184.294 478.362 183.85 478.362 182.794C478.362 181.696 479.196 180.988 481.05 180.988ZM488.491 180.988C490.117 180.988 491.053 181.576 491.101 182.824L490.069 182.896C489.991 182.194 489.451 181.834 488.413 181.834C487.477 181.834 486.889 182.11 486.889 182.692C486.889 183.22 487.387 183.436 488.761 183.718C490.405 184.054 491.173 184.432 491.173 185.506C491.173 186.664 490.255 187.432 488.443 187.432C486.739 187.432 485.767 186.946 485.491 185.506L486.535 185.374C486.823 186.454 487.609 186.556 488.497 186.556C489.601 186.556 490.039 186.118 490.039 185.632C490.039 185.092 489.523 184.9 488.059 184.6C486.577 184.294 485.803 183.85 485.803 182.794C485.803 181.696 486.637 180.988 488.491 180.988ZM493.154 187.294V186.376H495.338V182.032H493.154V181.132L496.328 180.994L496.478 181.138V186.376H498.662V187.294H493.154ZM495.686 179.578C495.188 179.578 494.846 179.284 494.846 178.804C494.846 178.324 495.188 178.036 495.686 178.036C496.178 178.036 496.52 178.324 496.52 178.804C496.52 179.284 496.178 179.578 495.686 179.578ZM506.356 184.222C506.356 186.382 505.006 187.438 503.35 187.438C501.7 187.438 500.344 186.382 500.344 184.222C500.344 182.068 501.7 180.988 503.35 180.988C505.006 180.988 506.356 182.068 506.356 184.222ZM505.186 184.222C505.186 182.65 504.43 181.918 503.35 181.918C502.27 181.918 501.508 182.65 501.508 184.222C501.508 185.794 502.27 186.508 503.35 186.508C504.43 186.508 505.186 185.794 505.186 184.222ZM513.377 187.294H512.243V183.184C512.243 182.182 511.721 181.918 511.097 181.918C510.377 181.918 509.801 182.272 509.339 182.806V187.294H508.205V181.132H509.165L509.267 182.014H509.417C509.903 181.492 510.545 180.988 511.589 180.988C512.687 180.988 513.377 181.546 513.377 182.884V187.294ZM517.075 182.524H516.139L516.031 178.534H517.177L517.075 182.524ZM520.333 182.524H519.397L519.289 178.534H520.435L520.333 182.524ZM226.86 200.524H225.924L225.816 196.534H226.962L226.86 200.524ZM230.118 200.524H229.182L229.074 196.534H230.22L230.118 200.524ZM238.597 200.908C238.597 203.974 237.403 205.438 235.459 205.438C233.515 205.438 232.321 203.974 232.321 200.908C232.321 197.794 233.515 196.384 235.459 196.384C237.403 196.384 238.597 197.794 238.597 200.908ZM237.367 200.908C237.367 198.328 236.689 197.422 235.459 197.422C234.235 197.422 233.551 198.328 233.551 200.908C233.551 203.488 234.235 204.4 235.459 204.4C236.689 204.4 237.367 203.488 237.367 200.908ZM235.459 201.856C235.891 201.856 236.131 201.508 236.131 200.926C236.131 200.332 235.891 199.996 235.459 199.996C235.033 199.996 234.793 200.332 234.793 200.926C234.793 201.508 235.033 201.856 235.459 201.856ZM240.627 196.534H245.307V197.518H241.551L241.215 200.326C241.707 199.978 242.319 199.726 243.135 199.726C244.779 199.726 245.781 200.722 245.781 202.504C245.781 204.346 244.761 205.432 242.763 205.432C240.891 205.432 239.949 204.436 239.907 202.864L241.047 202.762C241.149 203.926 241.767 204.454 242.793 204.454C243.903 204.454 244.599 203.89 244.599 202.51C244.599 201.208 243.915 200.542 242.889 200.542C242.097 200.542 241.503 200.914 241.095 201.352L240.087 201.172L240.627 196.534ZM250.342 196.39C251.854 196.39 253.096 197.05 253.096 198.598C253.096 199.702 252.454 200.272 251.626 200.668C252.58 201.1 253.384 201.754 253.384 203.026C253.384 204.454 252.358 205.444 250.282 205.444C248.272 205.444 247.3 204.466 247.3 203.128C247.3 201.85 248.152 201.178 249.052 200.788C248.194 200.314 247.594 199.642 247.594 198.586C247.594 197.104 248.794 196.39 250.342 196.39ZM248.458 202.978C248.458 204.022 249.274 204.46 250.348 204.46C251.488 204.46 252.172 203.974 252.172 203.02C252.172 202.066 251.44 201.736 249.88 201.154L249.802 201.124C249.124 201.448 248.458 201.994 248.458 202.978ZM248.734 198.592C248.734 199.468 249.472 199.93 250.75 200.332L250.762 200.338C251.44 200.002 252.004 199.534 252.004 198.724C252.004 197.818 251.302 197.35 250.306 197.35C249.364 197.35 248.734 197.776 248.734 198.592ZM255.293 198.22C255.929 198.22 257.057 197.452 257.279 196.534H258.443V204.31H260.705V205.294H255.077V204.31H257.279V198.34C256.715 198.952 255.965 199.366 255.293 199.366V198.22ZM262.735 198.22C263.371 198.22 264.499 197.452 264.721 196.534H265.885V204.31H268.147V205.294H262.519V204.31H264.721V198.34C264.157 198.952 263.407 199.366 262.735 199.366V198.22ZM270.176 198.22C270.812 198.22 271.94 197.452 272.162 196.534H273.326V204.31H275.588V205.294H269.96V204.31H272.162V198.34C271.598 198.952 270.848 199.366 270.176 199.366V198.22ZM277.834 196.534H282.514V197.518H278.758L278.422 200.326C278.914 199.978 279.526 199.726 280.342 199.726C281.986 199.726 282.988 200.722 282.988 202.504C282.988 204.346 281.968 205.432 279.97 205.432C278.098 205.432 277.156 204.436 277.114 202.864L278.254 202.762C278.356 203.926 278.974 204.454 280 204.454C281.11 204.454 281.806 203.89 281.806 202.51C281.806 201.208 281.122 200.542 280.096 200.542C279.304 200.542 278.71 200.914 278.302 201.352L277.294 201.172L277.834 196.534ZM287.387 205.426C285.995 205.426 284.837 204.796 284.735 203.122L285.845 203.02C285.971 203.992 286.499 204.46 287.423 204.46C288.479 204.46 289.391 203.812 289.391 200.98C288.887 201.46 288.161 201.898 287.099 201.898C285.617 201.898 284.585 201.088 284.585 199.3C284.585 197.566 285.533 196.39 287.513 196.39C289.439 196.39 290.597 197.656 290.597 200.968C290.597 204.448 289.151 205.426 287.387 205.426ZM285.767 199.282C285.767 200.482 286.397 201.058 287.375 201.058C288.197 201.058 288.875 200.644 289.367 200.146C289.241 198.094 288.605 197.368 287.513 197.368C286.463 197.368 285.767 198.058 285.767 199.282ZM294.991 196.39C296.503 196.39 297.745 197.05 297.745 198.598C297.745 199.702 297.103 200.272 296.275 200.668C297.229 201.1 298.033 201.754 298.033 203.026C298.033 204.454 297.007 205.444 294.931 205.444C292.921 205.444 291.949 204.466 291.949 203.128C291.949 201.85 292.801 201.178 293.701 200.788C292.843 200.314 292.243 199.642 292.243 198.586C292.243 197.104 293.443 196.39 294.991 196.39ZM293.107 202.978C293.107 204.022 293.923 204.46 294.997 204.46C296.137 204.46 296.821 203.974 296.821 203.02C296.821 202.066 296.089 201.736 294.529 201.154L294.451 201.124C293.773 201.448 293.107 201.994 293.107 202.978ZM293.383 198.592C293.383 199.468 294.121 199.93 295.399 200.332L295.411 200.338C296.089 200.002 296.653 199.534 296.653 198.724C296.653 197.818 295.951 197.35 294.955 197.35C294.013 197.35 293.383 197.776 293.383 198.592ZM302.204 196.39C303.866 196.39 304.976 197.116 304.976 198.766C304.976 200.674 303.644 201.334 302.546 201.97C301.172 202.75 300.638 203.278 300.602 204.31H305.282V205.294H299.486V204.31C299.486 202.912 300.35 201.976 301.976 201.058C302.948 200.5 303.806 200.02 303.806 198.778C303.806 197.8 303.248 197.356 302.252 197.356C301.292 197.356 300.722 197.77 300.602 198.874L299.486 198.772C299.534 197.056 300.71 196.39 302.204 196.39ZM309.645 196.39C311.307 196.39 312.417 197.116 312.417 198.766C312.417 200.674 311.085 201.334 309.987 201.97C308.613 202.75 308.079 203.278 308.043 204.31H312.723V205.294H306.927V204.31C306.927 202.912 307.791 201.976 309.417 201.058C310.389 200.5 311.247 200.02 311.247 198.778C311.247 197.8 310.689 197.356 309.693 197.356C308.733 197.356 308.163 197.77 308.043 198.874L306.927 198.772C306.975 197.056 308.151 196.39 309.645 196.39ZM317.087 196.39C318.749 196.39 319.859 197.116 319.859 198.766C319.859 200.674 318.527 201.334 317.429 201.97C316.055 202.75 315.521 203.278 315.485 204.31H320.165V205.294H314.369V204.31C314.369 202.912 315.233 201.976 316.859 201.058C317.831 200.5 318.689 200.02 318.689 198.778C318.689 197.8 318.131 197.356 317.135 197.356C316.175 197.356 315.605 197.77 315.485 198.874L314.369 198.772C314.417 197.056 315.593 196.39 317.087 196.39ZM323.598 200.524H322.662L322.554 196.534H323.7L323.598 200.524ZM326.856 200.524H325.92L325.812 196.534H326.958L326.856 200.524ZM197.094 218.524H196.158L196.05 214.534H197.196L197.094 218.524ZM200.352 218.524H199.416L199.308 214.534H200.454L200.352 218.524ZM205.55 216.988C207.056 216.988 207.938 217.486 207.938 218.938V221.992C207.938 222.436 208.106 222.55 208.67 222.466V223.294C208.388 223.378 208.13 223.414 207.902 223.414C207.158 223.414 206.912 223.018 206.87 222.526H206.762C206.264 222.976 205.634 223.438 204.638 223.438C203.498 223.438 202.772 222.826 202.772 221.776C202.772 220.054 204.71 219.832 206.804 219.844V219.004C206.804 218.014 206.246 217.792 205.43 217.798C204.65 217.804 204.056 218.026 204.044 218.848V219.112H202.982V218.788C202.982 217.732 203.708 216.988 205.55 216.988ZM203.96 221.638C203.96 222.25 204.404 222.58 205.148 222.58C205.796 222.58 206.3 222.328 206.804 221.962V220.51C206.612 220.492 206.414 220.48 206.234 220.48C204.818 220.48 203.96 220.792 203.96 221.638ZM212.877 217.132L212.973 218.008H213.129C213.765 217.348 214.377 216.988 215.457 216.988C215.679 216.988 215.865 217.006 216.051 217.042V218.104C214.683 218.104 213.957 218.194 213.051 218.818V222.376H215.235V223.294H210.279V222.376H211.917V218.05H210.279V217.132H212.877ZM223.162 223.294H222.028V219.184C222.028 218.182 221.506 217.918 220.882 217.918C220.162 217.918 219.586 218.272 219.124 218.806V223.294H217.99V217.132H218.95L219.052 218.014H219.202C219.688 217.492 220.33 216.988 221.374 216.988C222.472 216.988 223.162 217.546 223.162 218.884V223.294ZM228.036 223.474C227.418 223.474 226.926 223.066 226.926 222.394C226.926 221.71 227.418 221.314 228.036 221.314C228.648 221.314 229.14 221.71 229.14 222.394C229.14 223.066 228.648 223.474 228.036 223.474ZM228.036 218.806C227.418 218.806 226.926 218.398 226.926 217.726C226.926 217.042 227.418 216.646 228.036 216.646C228.648 216.646 229.14 217.042 229.14 217.726C229.14 218.398 228.648 218.806 228.036 218.806ZM235.315 216.988C236.821 216.988 237.703 217.486 237.703 218.938V221.992C237.703 222.436 237.871 222.55 238.435 222.466V223.294C238.153 223.378 237.895 223.414 237.667 223.414C236.923 223.414 236.677 223.018 236.635 222.526H236.527C236.029 222.976 235.399 223.438 234.403 223.438C233.263 223.438 232.537 222.826 232.537 221.776C232.537 220.054 234.475 219.832 236.569 219.844V219.004C236.569 218.014 236.011 217.792 235.195 217.798C234.415 217.804 233.821 218.026 233.809 218.848V219.112H232.747V218.788C232.747 217.732 233.473 216.988 235.315 216.988ZM233.725 221.638C233.725 222.25 234.169 222.58 234.913 222.58C235.561 222.58 236.065 222.328 236.569 221.962V220.51C236.377 220.492 236.179 220.48 235.999 220.48C234.583 220.48 233.725 220.792 233.725 221.638ZM239.337 217.132H240.423L241.413 221.554H241.515L242.577 218.08H243.345L244.335 221.554H244.437L245.421 217.132H246.465L245.001 223.294H243.993L242.943 219.586H242.859L241.737 223.294H240.801L239.337 217.132ZM250.366 216.988C251.992 216.988 252.928 217.576 252.976 218.824L251.944 218.896C251.866 218.194 251.326 217.834 250.288 217.834C249.352 217.834 248.764 218.11 248.764 218.692C248.764 219.22 249.262 219.436 250.636 219.718C252.28 220.054 253.048 220.432 253.048 221.506C253.048 222.664 252.13 223.432 250.318 223.432C248.614 223.432 247.642 222.946 247.366 221.506L248.41 221.374C248.698 222.454 249.484 222.556 250.372 222.556C251.476 222.556 251.914 222.118 251.914 221.632C251.914 221.092 251.398 220.9 249.934 220.6C248.452 220.294 247.678 219.85 247.678 218.794C247.678 217.696 248.512 216.988 250.366 216.988ZM257.801 223.474C257.183 223.474 256.691 223.066 256.691 222.394C256.691 221.71 257.183 221.314 257.801 221.314C258.413 221.314 258.905 221.71 258.905 222.394C258.905 223.066 258.413 223.474 257.801 223.474ZM257.801 218.806C257.183 218.806 256.691 218.398 256.691 217.726C256.691 217.042 257.183 216.646 257.801 216.646C258.413 216.646 258.905 217.042 258.905 217.726C258.905 218.398 258.413 218.806 257.801 218.806ZM265.249 216.988C266.875 216.988 267.811 217.576 267.859 218.824L266.827 218.896C266.749 218.194 266.209 217.834 265.171 217.834C264.235 217.834 263.647 218.11 263.647 218.692C263.647 219.22 264.145 219.436 265.519 219.718C267.163 220.054 267.931 220.432 267.931 221.506C267.931 222.664 267.013 223.432 265.201 223.432C263.497 223.432 262.525 222.946 262.249 221.506L263.293 221.374C263.581 222.454 264.367 222.556 265.255 222.556C266.359 222.556 266.797 222.118 266.797 221.632C266.797 221.092 266.281 220.9 264.817 220.6C263.335 220.294 262.561 219.85 262.561 218.794C262.561 217.696 263.395 216.988 265.249 216.988ZM273.86 223.414C272.078 223.42 271.322 222.874 271.322 220.798V218.05H269.534V217.132H271.322V215.2H272.462V217.132H275.294V218.05H272.462V220.744C272.462 222.082 272.858 222.412 273.956 222.412C274.472 222.412 274.97 222.328 275.438 222.208V223.198C274.982 223.336 274.418 223.414 273.86 223.414ZM280.132 216.988C281.758 216.988 282.694 217.576 282.742 218.824L281.71 218.896C281.632 218.194 281.092 217.834 280.054 217.834C279.118 217.834 278.53 218.11 278.53 218.692C278.53 219.22 279.028 219.436 280.402 219.718C282.046 220.054 282.814 220.432 282.814 221.506C282.814 222.664 281.896 223.432 280.084 223.432C278.38 223.432 277.408 222.946 277.132 221.506L278.176 221.374C278.464 222.454 279.25 222.556 280.138 222.556C281.242 222.556 281.68 222.118 281.68 221.632C281.68 221.092 281.164 220.9 279.7 220.6C278.218 220.294 277.444 219.85 277.444 218.794C277.444 217.696 278.278 216.988 280.132 216.988ZM287.567 223.474C286.949 223.474 286.457 223.066 286.457 222.394C286.457 221.71 286.949 221.314 287.567 221.314C288.179 221.314 288.671 221.71 288.671 222.394C288.671 223.066 288.179 223.474 287.567 223.474ZM287.567 218.806C286.949 218.806 286.457 218.398 286.457 217.726C286.457 217.042 286.949 216.646 287.567 216.646C288.179 216.646 288.671 217.042 288.671 217.726C288.671 218.398 288.179 218.806 287.567 218.806ZM295.009 223.474C294.391 223.474 293.899 223.066 293.899 222.394C293.899 221.71 294.391 221.314 295.009 221.314C295.621 221.314 296.113 221.71 296.113 222.394C296.113 223.066 295.621 223.474 295.009 223.474ZM295.009 218.806C294.391 218.806 293.899 218.398 293.899 217.726C293.899 217.042 294.391 216.646 295.009 216.646C295.621 216.646 296.113 217.042 296.113 217.726C296.113 218.398 295.621 218.806 295.009 218.806ZM305.57 218.908C305.57 221.974 304.376 223.438 302.432 223.438C300.488 223.438 299.294 221.974 299.294 218.908C299.294 215.794 300.488 214.384 302.432 214.384C304.376 214.384 305.57 215.794 305.57 218.908ZM304.34 218.908C304.34 216.328 303.662 215.422 302.432 215.422C301.208 215.422 300.524 216.328 300.524 218.908C300.524 221.488 301.208 222.4 302.432 222.4C303.662 222.4 304.34 221.488 304.34 218.908ZM302.432 219.856C302.864 219.856 303.104 219.508 303.104 218.926C303.104 218.332 302.864 217.996 302.432 217.996C302.006 217.996 301.766 218.332 301.766 218.926C301.766 219.508 302.006 219.856 302.432 219.856ZM307.599 214.534H312.279V215.518H308.523L308.187 218.326C308.679 217.978 309.291 217.726 310.107 217.726C311.751 217.726 312.753 218.722 312.753 220.504C312.753 222.346 311.733 223.432 309.735 223.432C307.863 223.432 306.921 222.436 306.879 220.864L308.019 220.762C308.121 221.926 308.739 222.454 309.765 222.454C310.875 222.454 311.571 221.89 311.571 220.51C311.571 219.208 310.887 218.542 309.861 218.542C309.069 218.542 308.475 218.914 308.067 219.352L307.059 219.172L307.599 214.534ZM317.315 214.39C318.827 214.39 320.069 215.05 320.069 216.598C320.069 217.702 319.427 218.272 318.599 218.668C319.553 219.1 320.357 219.754 320.357 221.026C320.357 222.454 319.331 223.444 317.255 223.444C315.245 223.444 314.273 222.466 314.273 221.128C314.273 219.85 315.125 219.178 316.025 218.788C315.167 218.314 314.567 217.642 314.567 216.586C314.567 215.104 315.767 214.39 317.315 214.39ZM315.431 220.978C315.431 222.022 316.247 222.46 317.321 222.46C318.461 222.46 319.145 221.974 319.145 221.02C319.145 220.066 318.413 219.736 316.853 219.154L316.775 219.124C316.097 219.448 315.431 219.994 315.431 220.978ZM315.707 216.592C315.707 217.468 316.445 217.93 317.723 218.332L317.735 218.338C318.413 218.002 318.977 217.534 318.977 216.724C318.977 215.818 318.275 215.35 317.279 215.35C316.337 215.35 315.707 215.776 315.707 216.592ZM322.266 216.22C322.902 216.22 324.03 215.452 324.252 214.534H325.416V222.31H327.678V223.294H322.05V222.31H324.252V216.34C323.688 216.952 322.938 217.366 322.266 217.366V216.22ZM329.708 216.22C330.344 216.22 331.472 215.452 331.694 214.534H332.858V222.31H335.12V223.294H329.492V222.31H331.694V216.34C331.13 216.952 330.38 217.366 329.708 217.366V216.22ZM337.149 216.22C337.785 216.22 338.913 215.452 339.135 214.534H340.299V222.31H342.561V223.294H336.933V222.31H339.135V216.34C338.571 216.952 337.821 217.366 337.149 217.366V216.22ZM344.806 214.534H349.486V215.518H345.73L345.394 218.326C345.886 217.978 346.498 217.726 347.314 217.726C348.958 217.726 349.96 218.722 349.96 220.504C349.96 222.346 348.94 223.432 346.942 223.432C345.07 223.432 344.128 222.436 344.086 220.864L345.226 220.762C345.328 221.926 345.946 222.454 346.972 222.454C348.082 222.454 348.778 221.89 348.778 220.51C348.778 219.208 348.094 218.542 347.068 218.542C346.276 218.542 345.682 218.914 345.274 219.352L344.266 219.172L344.806 214.534ZM354.36 223.426C352.968 223.426 351.81 222.796 351.708 221.122L352.818 221.02C352.944 221.992 353.472 222.46 354.396 222.46C355.452 222.46 356.364 221.812 356.364 218.98C355.86 219.46 355.134 219.898 354.072 219.898C352.59 219.898 351.558 219.088 351.558 217.3C351.558 215.566 352.506 214.39 354.486 214.39C356.412 214.39 357.57 215.656 357.57 218.968C357.57 222.448 356.124 223.426 354.36 223.426ZM352.74 217.282C352.74 218.482 353.37 219.058 354.348 219.058C355.17 219.058 355.848 218.644 356.34 218.146C356.214 216.094 355.578 215.368 354.486 215.368C353.436 215.368 352.74 216.058 352.74 217.282ZM361.963 214.39C363.475 214.39 364.717 215.05 364.717 216.598C364.717 217.702 364.075 218.272 363.247 218.668C364.201 219.1 365.005 219.754 365.005 221.026C365.005 222.454 363.979 223.444 361.903 223.444C359.893 223.444 358.921 222.466 358.921 221.128C358.921 219.85 359.773 219.178 360.673 218.788C359.815 218.314 359.215 217.642 359.215 216.586C359.215 215.104 360.415 214.39 361.963 214.39ZM360.079 220.978C360.079 222.022 360.895 222.46 361.969 222.46C363.109 222.46 363.793 221.974 363.793 221.02C363.793 220.066 363.061 219.736 361.501 219.154L361.423 219.124C360.745 219.448 360.079 219.994 360.079 220.978ZM360.355 216.592C360.355 217.468 361.093 217.93 362.371 218.332L362.383 218.338C363.061 218.002 363.625 217.534 363.625 216.724C363.625 215.818 362.923 215.35 361.927 215.35C360.985 215.35 360.355 215.776 360.355 216.592ZM369.177 214.39C370.839 214.39 371.949 215.116 371.949 216.766C371.949 218.674 370.617 219.334 369.519 219.97C368.145 220.75 367.611 221.278 367.575 222.31H372.255V223.294H366.459V222.31C366.459 220.912 367.323 219.976 368.949 219.058C369.921 218.5 370.779 218.02 370.779 216.778C370.779 215.8 370.221 215.356 369.225 215.356C368.265 215.356 367.695 215.77 367.575 216.874L366.459 216.772C366.507 215.056 367.683 214.39 369.177 214.39ZM376.618 214.39C378.28 214.39 379.39 215.116 379.39 216.766C379.39 218.674 378.058 219.334 376.96 219.97C375.586 220.75 375.052 221.278 375.016 222.31H379.696V223.294H373.9V222.31C373.9 220.912 374.764 219.976 376.39 219.058C377.362 218.5 378.22 218.02 378.22 216.778C378.22 215.8 377.662 215.356 376.666 215.356C375.706 215.356 375.136 215.77 375.016 216.874L373.9 216.772C373.948 215.056 375.124 214.39 376.618 214.39ZM384.059 214.39C385.721 214.39 386.831 215.116 386.831 216.766C386.831 218.674 385.499 219.334 384.401 219.97C383.027 220.75 382.493 221.278 382.457 222.31H387.137V223.294H381.341V222.31C381.341 220.912 382.205 219.976 383.831 219.058C384.803 218.5 385.661 218.02 385.661 216.778C385.661 215.8 385.103 215.356 384.107 215.356C383.147 215.356 382.577 215.77 382.457 216.874L381.341 216.772C381.389 215.056 382.565 214.39 384.059 214.39ZM391.747 223.474C391.129 223.474 390.637 223.066 390.637 222.394C390.637 221.71 391.129 221.314 391.747 221.314C392.359 221.314 392.851 221.71 392.851 222.394C392.851 223.066 392.359 223.474 391.747 223.474ZM391.747 218.806C391.129 218.806 390.637 218.398 390.637 217.726C390.637 217.042 391.129 216.646 391.747 216.646C392.359 216.646 392.851 217.042 392.851 217.726C392.851 218.398 392.359 218.806 391.747 218.806ZM399.026 216.988C400.532 216.988 401.414 217.486 401.414 218.938V221.992C401.414 222.436 401.582 222.55 402.146 222.466V223.294C401.864 223.378 401.606 223.414 401.378 223.414C400.634 223.414 400.388 223.018 400.346 222.526H400.238C399.74 222.976 399.11 223.438 398.114 223.438C396.974 223.438 396.248 222.826 396.248 221.776C396.248 220.054 398.186 219.832 400.28 219.844V219.004C400.28 218.014 399.722 217.792 398.906 217.798C398.126 217.804 397.532 218.026 397.52 218.848V219.112H396.458V218.788C396.458 217.732 397.184 216.988 399.026 216.988ZM397.436 221.638C397.436 222.25 397.88 222.58 398.624 222.58C399.272 222.58 399.776 222.328 400.28 221.962V220.51C400.088 220.492 399.89 220.48 399.71 220.48C398.294 220.48 397.436 220.792 397.436 221.638ZM406.636 216.988C408.262 216.988 409.198 217.576 409.246 218.824L408.214 218.896C408.136 218.194 407.596 217.834 406.558 217.834C405.622 217.834 405.034 218.11 405.034 218.692C405.034 219.22 405.532 219.436 406.906 219.718C408.55 220.054 409.318 220.432 409.318 221.506C409.318 222.664 408.4 223.432 406.588 223.432C404.884 223.432 403.912 222.946 403.636 221.506L404.68 221.374C404.968 222.454 405.754 222.556 406.642 222.556C407.746 222.556 408.184 222.118 408.184 221.632C408.184 221.092 407.668 220.9 406.204 220.6C404.722 220.294 403.948 219.85 403.948 218.794C403.948 217.696 404.782 216.988 406.636 216.988ZM414.077 216.988C415.703 216.988 416.639 217.576 416.687 218.824L415.655 218.896C415.577 218.194 415.037 217.834 413.999 217.834C413.063 217.834 412.475 218.11 412.475 218.692C412.475 219.22 412.973 219.436 414.347 219.718C415.991 220.054 416.759 220.432 416.759 221.506C416.759 222.664 415.841 223.432 414.029 223.432C412.325 223.432 411.353 222.946 411.077 221.506L412.121 221.374C412.409 222.454 413.195 222.556 414.083 222.556C415.187 222.556 415.625 222.118 415.625 221.632C415.625 221.092 415.109 220.9 413.645 220.6C412.163 220.294 411.389 219.85 411.389 218.794C411.389 217.696 412.223 216.988 414.077 216.988ZM418.908 217.132H420.042V221.236C420.042 222.244 420.564 222.502 421.188 222.502C421.908 222.502 422.484 222.154 422.946 221.62V217.132H424.08V223.294H423.12L423.018 222.412H422.868C422.382 222.928 421.74 223.432 420.696 223.432C419.598 223.432 418.908 222.874 418.908 221.542V217.132ZM429.452 223.294H428.42V218.518C428.42 218.074 428.174 217.954 427.928 217.954C427.61 217.954 427.352 218.158 427.154 218.422V223.294H426.122V217.132H426.986L427.07 217.906H427.16C427.406 217.378 427.844 216.994 428.462 216.994C429.014 216.994 429.38 217.288 429.44 217.906H429.506C429.746 217.378 430.166 216.994 430.778 216.994C431.378 216.994 431.756 217.354 431.756 218.11V223.294H430.718V218.518C430.718 218.074 430.472 217.954 430.226 217.954C429.908 217.954 429.65 218.158 429.452 218.422V223.294ZM433.371 220.204C433.371 218.122 434.613 216.988 436.509 216.988C438.255 216.988 439.275 217.9 439.275 219.712V220.252H434.535C434.553 221.752 435.267 222.508 436.473 222.508C437.259 222.508 437.853 222.19 438.147 221.488L439.251 221.674C438.831 222.826 437.823 223.438 436.467 223.438C434.625 223.438 433.371 222.322 433.371 220.204ZM434.595 219.496H438.165C438.159 218.398 437.439 217.918 436.473 217.918C435.465 217.918 434.793 218.452 434.595 219.496ZM440.813 220.228C440.813 218.218 441.725 216.988 443.279 216.988C444.185 216.988 444.797 217.402 445.193 217.948H445.271V214.114H446.405V223.294H445.445L445.355 222.484H445.199C444.755 223.03 444.125 223.444 443.231 223.444C441.671 223.444 440.813 222.184 440.813 220.228ZM441.983 220.228C441.983 221.716 442.577 222.478 443.693 222.478C444.245 222.478 444.755 222.286 445.271 221.77V218.65C444.767 218.134 444.251 217.948 443.711 217.948C442.613 217.948 441.983 218.692 441.983 220.228ZM449.34 219.856V218.872H453.18V219.856H449.34ZM458.443 217.132L458.539 218.008H458.695C459.331 217.348 459.943 216.988 461.023 216.988C461.245 216.988 461.431 217.006 461.617 217.042V218.104C460.249 218.104 459.523 218.194 458.617 218.818V222.376H460.801V223.294H455.845V222.376H457.483V218.05H455.845V217.132H458.443ZM469.149 220.222C469.149 222.382 467.799 223.438 466.143 223.438C464.493 223.438 463.137 222.382 463.137 220.222C463.137 218.068 464.493 216.988 466.143 216.988C467.799 216.988 469.149 218.068 469.149 220.222ZM467.979 220.222C467.979 218.65 467.223 217.918 466.143 217.918C465.063 217.918 464.301 218.65 464.301 220.222C464.301 221.794 465.063 222.508 466.143 222.508C467.223 222.508 467.979 221.794 467.979 220.222ZM470.83 223.294V222.376H473.014L473.02 215.014H470.83V214.114L474.004 213.982L474.154 214.12V222.376H476.338V223.294H470.83ZM478.02 220.204C478.02 218.122 479.262 216.988 481.158 216.988C482.904 216.988 483.924 217.9 483.924 219.712V220.252H479.184C479.202 221.752 479.916 222.508 481.122 222.508C481.908 222.508 482.502 222.19 482.796 221.488L483.9 221.674C483.48 222.826 482.472 223.438 481.116 223.438C479.274 223.438 478.02 222.322 478.02 220.204ZM479.244 219.496H482.814C482.808 218.398 482.088 217.918 481.122 217.918C480.114 217.918 479.442 218.452 479.244 219.496ZM486.877 224.494H485.659L489.805 214.534H491.029L486.877 224.494ZM498.914 220.204C498.914 222.208 498.002 223.438 496.448 223.438C495.542 223.438 494.93 223.024 494.534 222.478H494.456V225.616H493.322V217.132H494.282L494.372 217.948H494.528C494.972 217.402 495.602 216.988 496.496 216.988C498.056 216.988 498.914 218.242 498.914 220.204ZM494.456 221.776C494.96 222.292 495.476 222.478 496.016 222.478C497.114 222.478 497.744 221.734 497.744 220.204C497.744 218.71 497.15 217.954 496.034 217.954C495.482 217.954 494.972 218.14 494.456 218.656V221.776ZM500.764 217.132H501.898V221.236C501.898 222.244 502.42 222.502 503.044 222.502C503.764 222.502 504.34 222.154 504.802 221.62V217.132H505.936V223.294H504.976L504.874 222.412H504.724C504.238 222.928 503.596 223.432 502.552 223.432C501.454 223.432 500.764 222.874 500.764 221.542V217.132ZM508.037 223.294V222.376H510.221L510.227 215.014H508.037V214.114L511.211 213.982L511.361 214.12V222.376H513.545V223.294H508.037ZM515.647 217.132H516.781V221.236C516.781 222.244 517.303 222.502 517.927 222.502C518.647 222.502 519.223 222.154 519.685 221.62V217.132H520.819V223.294H519.859L519.757 222.412H519.607C519.121 222.928 518.479 223.432 517.435 223.432C516.337 223.432 515.647 222.874 515.647 221.542V217.132ZM526.712 223.294H525.644V218.722C525.644 218.11 525.308 217.948 524.966 217.948C524.522 217.948 524.168 218.23 523.916 218.632V223.294H522.86V217.132H523.748L523.838 218.02H523.928C524.228 217.42 524.762 216.994 525.476 216.994C526.13 216.994 526.574 217.324 526.676 218.02H526.736C527.036 217.42 527.546 216.994 528.266 216.994C529.01 216.994 529.484 217.426 529.49 218.356L529.496 223.294H528.428V218.722C528.428 218.11 528.092 217.948 527.744 217.948C527.3 217.948 526.952 218.224 526.7 218.62L526.712 223.294ZM531.43 223.294V222.382H533.08V218.032H531.43V217.132L534.07 216.994L534.22 217.138V222.382H535.87V223.294H531.43ZM533.434 215.602C532.936 215.602 532.594 215.308 532.594 214.828C532.594 214.348 532.936 214.06 533.434 214.06C533.926 214.06 534.268 214.348 534.268 214.828C534.268 215.308 533.926 215.602 533.434 215.602ZM538.637 219.856V218.872H542.477V219.856H538.637ZM544.992 220.204C544.992 218.122 546.234 216.988 548.13 216.988C549.876 216.988 550.896 217.9 550.896 219.712V220.252H546.156C546.174 221.752 546.888 222.508 548.094 222.508C548.88 222.508 549.474 222.19 549.768 221.488L550.872 221.674C550.452 222.826 549.444 223.438 548.088 223.438C546.246 223.438 544.992 222.322 544.992 220.204ZM546.216 219.496H549.786C549.78 218.398 549.06 217.918 548.094 217.918C547.086 217.918 546.414 218.452 546.216 219.496ZM555.464 216.988C557.09 216.988 558.026 217.576 558.074 218.824L557.042 218.896C556.964 218.194 556.424 217.834 555.386 217.834C554.45 217.834 553.862 218.11 553.862 218.692C553.862 219.22 554.36 219.436 555.734 219.718C557.378 220.054 558.146 220.432 558.146 221.506C558.146 222.664 557.228 223.432 555.416 223.432C553.712 223.432 552.74 222.946 552.464 221.506L553.508 221.374C553.796 222.454 554.582 222.556 555.47 222.556C556.574 222.556 557.012 222.118 557.012 221.632C557.012 221.092 556.496 220.9 555.032 220.6C553.55 220.294 552.776 219.85 552.776 218.794C552.776 217.696 553.61 216.988 555.464 216.988ZM565.821 221.416C565.479 222.778 564.357 223.438 562.953 223.438C561.135 223.438 559.875 222.334 559.875 220.198C559.875 218.05 561.159 216.988 563.013 216.988C564.519 216.988 565.665 217.69 565.821 219.172L564.699 219.268C564.555 218.32 563.883 217.918 562.983 217.918C561.711 217.918 561.045 218.722 561.045 220.198C561.045 221.758 561.789 222.508 562.959 222.508C563.853 222.508 564.471 222.076 564.723 221.242L565.821 221.416ZM568.403 219.856V218.872H572.243V219.856H568.403ZM577.788 216.988C579.414 216.988 580.35 217.576 580.398 218.824L579.366 218.896C579.288 218.194 578.748 217.834 577.71 217.834C576.774 217.834 576.186 218.11 576.186 218.692C576.186 219.22 576.684 219.436 578.058 219.718C579.702 220.054 580.47 220.432 580.47 221.506C580.47 222.664 579.552 223.432 577.74 223.432C576.036 223.432 575.064 222.946 574.788 221.506L575.832 221.374C576.12 222.454 576.906 222.556 577.794 222.556C578.898 222.556 579.336 222.118 579.336 221.632C579.336 221.092 578.82 220.9 577.356 220.6C575.874 220.294 575.1 219.85 575.1 218.794C575.1 217.696 575.934 216.988 577.788 216.988ZM586.399 223.414C584.617 223.42 583.861 222.874 583.861 220.798V218.05H582.073V217.132H583.861V215.2H585.001V217.132H587.833V218.05H585.001V220.744C585.001 222.082 585.397 222.412 586.495 222.412C587.011 222.412 587.509 222.328 587.977 222.208V223.198C587.521 223.336 586.957 223.414 586.399 223.414ZM592.503 216.988C594.009 216.988 594.891 217.486 594.891 218.938V221.992C594.891 222.436 595.059 222.55 595.623 222.466V223.294C595.341 223.378 595.083 223.414 594.855 223.414C594.111 223.414 593.865 223.018 593.823 222.526H593.715C593.217 222.976 592.587 223.438 591.591 223.438C590.451 223.438 589.725 222.826 589.725 221.776C589.725 220.054 591.663 219.832 593.757 219.844V219.004C593.757 218.014 593.199 217.792 592.383 217.798C591.603 217.804 591.009 218.026 590.997 218.848V219.112H589.935V218.788C589.935 217.732 590.661 216.988 592.503 216.988ZM590.913 221.638C590.913 222.25 591.357 222.58 592.101 222.58C592.749 222.58 593.253 222.328 593.757 221.962V220.51C593.565 220.492 593.367 220.48 593.187 220.48C591.771 220.48 590.913 220.792 590.913 221.638ZM597.082 219.928C597.082 218.134 598.036 216.988 599.536 216.988C600.442 216.988 601.066 217.402 601.462 217.948H601.624L601.714 217.132H602.674V222.946C602.674 224.968 601.696 225.76 599.896 225.76C598.198 225.76 597.46 225.064 597.238 224.122L598.27 223.888C598.498 224.596 599.05 224.92 599.896 224.92C600.844 224.92 601.54 224.512 601.54 223.066V221.884H601.468C601.024 222.43 600.382 222.844 599.488 222.844C597.988 222.844 597.082 221.668 597.082 219.928ZM598.252 219.928C598.252 221.14 598.864 221.878 599.962 221.878C600.514 221.878 601.024 221.686 601.54 221.17V218.65C601.036 218.134 600.52 217.948 599.98 217.948C598.9 217.948 598.252 218.674 598.252 219.928ZM604.776 223.294V222.376H606.96V218.032H604.776V217.132L607.95 216.994L608.1 217.138V222.376H610.284V223.294H604.776ZM607.308 215.578C606.81 215.578 606.468 215.284 606.468 214.804C606.468 214.324 606.81 214.036 607.308 214.036C607.8 214.036 608.142 214.324 608.142 214.804C608.142 215.284 607.8 215.578 607.308 215.578ZM617.557 223.294H616.423V219.184C616.423 218.182 615.901 217.918 615.277 217.918C614.557 217.918 613.981 218.272 613.519 218.806V223.294H612.385V217.132H613.345L613.447 218.014H613.597C614.083 217.492 614.725 216.988 615.769 216.988C616.867 216.988 617.557 217.546 617.557 218.884V223.294ZM619.406 219.928C619.406 218.134 620.36 216.988 621.86 216.988C622.766 216.988 623.39 217.402 623.786 217.948H623.948L624.038 217.132H624.998V222.946C624.998 224.968 624.02 225.76 622.22 225.76C620.522 225.76 619.784 225.064 619.562 224.122L620.594 223.888C620.822 224.596 621.374 224.92 622.22 224.92C623.168 224.92 623.864 224.512 623.864 223.066V221.884H623.792C623.348 222.43 622.706 222.844 621.812 222.844C620.312 222.844 619.406 221.668 619.406 219.928ZM620.576 219.928C620.576 221.14 621.188 221.878 622.286 221.878C622.838 221.878 623.348 221.686 623.864 221.17V218.65C623.36 218.134 622.844 217.948 622.304 217.948C621.224 217.948 620.576 218.674 620.576 219.928ZM628.264 224.494H627.046L631.192 214.534H632.416L628.264 224.494ZM640.301 220.204C640.301 222.208 639.389 223.438 637.835 223.438C636.929 223.438 636.317 223.024 635.921 222.478H635.843V225.616H634.709V217.132H635.669L635.759 217.948H635.915C636.359 217.402 636.989 216.988 637.883 216.988C639.443 216.988 640.301 218.242 640.301 220.204ZM635.843 221.776C636.347 222.292 636.863 222.478 637.403 222.478C638.501 222.478 639.131 221.734 639.131 220.204C639.131 218.71 638.537 217.954 637.421 217.954C636.869 217.954 636.359 218.14 635.843 218.656V221.776ZM642.151 217.132H643.285V221.236C643.285 222.244 643.807 222.502 644.431 222.502C645.151 222.502 645.727 222.154 646.189 221.62V217.132H647.323V223.294H646.363L646.261 222.412H646.111C645.625 222.928 644.983 223.432 643.939 223.432C642.841 223.432 642.151 222.874 642.151 221.542V217.132ZM649.424 223.294V222.376H651.608L651.614 215.014H649.424V214.114L652.598 213.982L652.748 214.12V222.376H654.932V223.294H649.424ZM657.033 217.132H658.167V221.236C658.167 222.244 658.689 222.502 659.313 222.502C660.033 222.502 660.609 222.154 661.071 221.62V217.132H662.205V223.294H661.245L661.143 222.412H660.993C660.507 222.928 659.865 223.432 658.821 223.432C657.723 223.432 657.033 222.874 657.033 221.542V217.132ZM668.099 223.294H667.031V218.722C667.031 218.11 666.695 217.948 666.353 217.948C665.909 217.948 665.555 218.23 665.303 218.632V223.294H664.247V217.132H665.135L665.225 218.02H665.315C665.615 217.42 666.149 216.994 666.863 216.994C667.517 216.994 667.961 217.324 668.063 218.02H668.123C668.423 217.42 668.933 216.994 669.653 216.994C670.397 216.994 670.871 217.426 670.877 218.356L670.883 223.294H669.815V218.722C669.815 218.11 669.479 217.948 669.131 217.948C668.687 217.948 668.339 218.224 668.087 218.62L668.099 223.294ZM672.816 223.294V222.382H674.466V218.032H672.816V217.132L675.456 216.994L675.606 217.138V222.382H677.256V223.294H672.816ZM674.82 215.602C674.322 215.602 673.98 215.308 673.98 214.828C673.98 214.348 674.322 214.06 674.82 214.06C675.312 214.06 675.654 214.348 675.654 214.828C675.654 215.308 675.312 215.602 674.82 215.602ZM680.024 219.856V218.872H683.864V219.856H680.024ZM686.379 220.204C686.379 218.122 687.621 216.988 689.517 216.988C691.263 216.988 692.283 217.9 692.283 219.712V220.252H687.543C687.561 221.752 688.275 222.508 689.481 222.508C690.267 222.508 690.861 222.19 691.155 221.488L692.259 221.674C691.839 222.826 690.831 223.438 689.475 223.438C687.633 223.438 686.379 222.322 686.379 220.204ZM687.603 219.496H691.173C691.167 218.398 690.447 217.918 689.481 217.918C688.473 217.918 687.801 218.452 687.603 219.496ZM696.85 216.988C698.476 216.988 699.412 217.576 699.46 218.824L698.428 218.896C698.35 218.194 697.81 217.834 696.772 217.834C695.836 217.834 695.248 218.11 695.248 218.692C695.248 219.22 695.746 219.436 697.12 219.718C698.764 220.054 699.532 220.432 699.532 221.506C699.532 222.664 698.614 223.432 696.802 223.432C695.098 223.432 694.126 222.946 693.85 221.506L694.894 221.374C695.182 222.454 695.968 222.556 696.856 222.556C697.96 222.556 698.398 222.118 698.398 221.632C698.398 221.092 697.882 220.9 696.418 220.6C694.936 220.294 694.162 219.85 694.162 218.794C694.162 217.696 694.996 216.988 696.85 216.988ZM707.208 221.416C706.866 222.778 705.744 223.438 704.34 223.438C702.522 223.438 701.262 222.334 701.262 220.198C701.262 218.05 702.546 216.988 704.4 216.988C705.906 216.988 707.052 217.69 707.208 219.172L706.086 219.268C705.942 218.32 705.27 217.918 704.37 217.918C703.098 217.918 702.432 218.722 702.432 220.198C702.432 221.758 703.176 222.508 704.346 222.508C705.24 222.508 705.858 222.076 706.11 221.242L707.208 221.416ZM709.789 219.856V218.872H713.629V219.856H709.789ZM719.175 216.988C720.801 216.988 721.737 217.576 721.785 218.824L720.753 218.896C720.675 218.194 720.135 217.834 719.097 217.834C718.161 217.834 717.573 218.11 717.573 218.692C717.573 219.22 718.071 219.436 719.445 219.718C721.089 220.054 721.857 220.432 721.857 221.506C721.857 222.664 720.939 223.432 719.127 223.432C717.423 223.432 716.451 222.946 716.175 221.506L717.219 221.374C717.507 222.454 718.293 222.556 719.181 222.556C720.285 222.556 720.723 222.118 720.723 221.632C720.723 221.092 720.207 220.9 718.743 220.6C717.261 220.294 716.487 219.85 716.487 218.794C716.487 217.696 717.321 216.988 719.175 216.988ZM723.586 220.204C723.586 218.122 724.828 216.988 726.724 216.988C728.47 216.988 729.49 217.9 729.49 219.712V220.252H724.75C724.768 221.752 725.482 222.508 726.688 222.508C727.474 222.508 728.068 222.19 728.362 221.488L729.466 221.674C729.046 222.826 728.038 223.438 726.682 223.438C724.84 223.438 723.586 222.322 723.586 220.204ZM724.81 219.496H728.38C728.374 218.398 727.654 217.918 726.688 217.918C725.68 217.918 725.008 218.452 724.81 219.496ZM734.057 216.988C735.683 216.988 736.619 217.576 736.667 218.824L735.635 218.896C735.557 218.194 735.017 217.834 733.979 217.834C733.043 217.834 732.455 218.11 732.455 218.692C732.455 219.22 732.953 219.436 734.327 219.718C735.971 220.054 736.739 220.432 736.739 221.506C736.739 222.664 735.821 223.432 734.009 223.432C732.305 223.432 731.333 222.946 731.057 221.506L732.101 221.374C732.389 222.454 733.175 222.556 734.063 222.556C735.167 222.556 735.605 222.118 735.605 221.632C735.605 221.092 735.089 220.9 733.625 220.6C732.143 220.294 731.369 219.85 731.369 218.794C731.369 217.696 732.203 216.988 734.057 216.988ZM741.499 216.988C743.125 216.988 744.061 217.576 744.109 218.824L743.077 218.896C742.999 218.194 742.459 217.834 741.421 217.834C740.485 217.834 739.897 218.11 739.897 218.692C739.897 219.22 740.395 219.436 741.769 219.718C743.413 220.054 744.181 220.432 744.181 221.506C744.181 222.664 743.263 223.432 741.451 223.432C739.747 223.432 738.775 222.946 738.499 221.506L739.543 221.374C739.831 222.454 740.617 222.556 741.505 222.556C742.609 222.556 743.047 222.118 743.047 221.632C743.047 221.092 742.531 220.9 741.067 220.6C739.585 220.294 738.811 219.85 738.811 218.794C738.811 217.696 739.645 216.988 741.499 216.988ZM746.162 223.294V222.376H748.346V218.032H746.162V217.132L749.336 216.994L749.486 217.138V222.376H751.67V223.294H746.162ZM748.694 215.578C748.196 215.578 747.854 215.284 747.854 214.804C747.854 214.324 748.196 214.036 748.694 214.036C749.186 214.036 749.528 214.324 749.528 214.804C749.528 215.284 749.186 215.578 748.694 215.578ZM759.364 220.222C759.364 222.382 758.014 223.438 756.358 223.438C754.708 223.438 753.352 222.382 753.352 220.222C753.352 218.068 754.708 216.988 756.358 216.988C758.014 216.988 759.364 218.068 759.364 220.222ZM758.194 220.222C758.194 218.65 757.438 217.918 756.358 217.918C755.278 217.918 754.516 218.65 754.516 220.222C754.516 221.794 755.278 222.508 756.358 222.508C757.438 222.508 758.194 221.794 758.194 220.222ZM766.385 223.294H765.251V219.184C765.251 218.182 764.729 217.918 764.105 217.918C763.385 217.918 762.809 218.272 762.347 218.806V223.294H761.213V217.132H762.173L762.275 218.014H762.425C762.911 217.492 763.553 216.988 764.597 216.988C765.695 216.988 766.385 217.546 766.385 218.884V223.294ZM770.083 218.524H769.147L769.039 214.534H770.185L770.083 218.524ZM773.341 218.524H772.405L772.297 214.534H773.443L773.341 218.524Z" fill="#22863A"/>
</g>
</g>
<defs>
<clipPath id="clip0_1298_155389">
<rect width="469" height="320" fill="white"/>
</clipPath>
<clipPath id="clip1_1298_155389">
<rect width="391.632" height="135.706" fill="white" transform="translate(117.56 146.294)"/>
</clipPath>
</defs>
</svg>
