<svg width="1200" height="628" viewBox="0 0 1200 628" fill="none" xmlns="http://www.w3.org/2000/svg">
<g clip-path="url(#clip0_1134_1099)">
<g style="mix-blend-mode:soft-light" opacity="0.3">
<path fill-rule="evenodd" clip-rule="evenodd" d="M618.647 223.387C619.093 223.133 619.619 223.132 620.066 223.383L645.038 237.424C645.574 237.726 645.914 238.343 645.916 239.02L645.993 267.234C645.995 267.911 645.658 268.531 645.122 268.836L620.228 283.009C619.782 283.263 619.256 283.264 618.809 283.013L593.837 268.972C593.3 268.67 592.961 268.053 592.959 267.376L592.881 239.162C592.879 238.485 593.217 237.865 593.752 237.56L618.647 223.387ZM619.364 226.984L596.052 240.256L596.123 266.262L619.51 279.412L642.822 266.14L642.751 240.134L619.364 226.984Z" fill="white"/>
<path d="M609.497 137.004L584.602 151.177L559.63 137.136L559.553 108.922L584.447 94.749L609.419 108.79L609.497 137.004Z" fill="white"/>
<path fill-rule="evenodd" clip-rule="evenodd" d="M583.734 93.1521C584.18 92.8982 584.706 92.8967 585.153 93.1481L610.125 107.189C610.662 107.491 611.001 108.108 611.003 108.785L611.081 136.999C611.083 137.676 610.745 138.296 610.21 138.601L585.315 152.774C584.869 153.028 584.343 153.029 583.896 152.778L558.924 138.737C558.388 138.435 558.048 137.818 558.046 137.141L557.969 108.927C557.967 108.25 558.304 107.63 558.84 107.325L583.734 93.1521ZM584.452 96.7494L561.14 110.021L561.211 136.027L584.598 149.177L607.91 135.905L607.839 109.899L584.452 96.7494Z" fill="white"/>
<path fill-rule="evenodd" clip-rule="evenodd" d="M430.988 358.204C431.434 357.95 431.959 357.948 432.406 358.2L457.378 372.241C457.915 372.542 458.254 373.16 458.256 373.836L458.334 402.05C458.336 402.727 457.999 403.348 457.463 403.653L432.568 417.825C432.122 418.079 431.596 418.081 431.149 417.829L406.177 403.788C405.641 403.487 405.301 402.869 405.3 402.193L405.222 373.979C405.22 373.301 405.557 372.681 406.093 372.376L430.988 358.204ZM431.705 361.801L408.393 375.073L408.464 401.078L431.851 414.228L455.163 400.956L455.092 374.951L431.705 361.801Z" fill="white"/>
<path fill-rule="evenodd" clip-rule="evenodd" d="M915.554 195.607C916 195.353 916.526 195.352 916.973 195.603L941.945 209.645C942.481 209.946 942.821 210.564 942.823 211.24L942.9 239.454C942.902 240.131 942.565 240.752 942.03 241.056L917.135 255.229C916.689 255.483 916.163 255.484 915.716 255.233L890.744 241.192C890.208 240.89 889.868 240.273 889.866 239.596L889.789 211.383C889.787 210.705 890.124 210.085 890.659 209.78L915.554 195.607ZM916.272 199.205L892.959 212.476L893.031 238.482L916.418 251.632L939.73 238.36L939.658 212.355L916.272 199.205Z" fill="white"/>
<path d="M469.017 295.119L444.122 309.292L419.15 295.251L419.073 267.037L443.967 252.864L468.939 266.905L469.017 295.119Z" fill="white"/>
<path fill-rule="evenodd" clip-rule="evenodd" d="M443.254 251.267C443.7 251.013 444.226 251.012 444.673 251.263L469.645 265.304C470.182 265.606 470.521 266.223 470.523 266.9L470.601 295.114C470.602 295.791 470.265 296.411 469.73 296.716L444.835 310.889C444.389 311.143 443.863 311.144 443.416 310.893L418.444 296.852C417.908 296.55 417.568 295.933 417.566 295.256L417.489 267.042C417.487 266.365 417.824 265.745 418.36 265.44L443.254 251.267ZM443.972 254.865L420.66 268.136L420.731 294.142L444.118 307.292L467.43 294.02L467.359 268.014L443.972 254.865Z" fill="white"/>
<path fill-rule="evenodd" clip-rule="evenodd" d="M712.896 371.913C713.342 371.659 713.868 371.657 714.315 371.909L739.287 385.95C739.824 386.251 740.163 386.869 740.165 387.545L740.243 415.759C740.245 416.436 739.907 417.057 739.372 417.362L714.477 431.534C714.031 431.788 713.505 431.79 713.058 431.538L688.086 417.497C687.55 417.196 687.21 416.578 687.208 415.902L687.131 387.688C687.129 387.01 687.466 386.39 688.002 386.085L712.896 371.913ZM713.614 375.51L690.302 388.782L690.373 414.787L713.76 427.937L737.072 414.665L737.001 388.66L713.614 375.51Z" fill="white"/>
<path fill-rule="evenodd" clip-rule="evenodd" d="M492.154 358.072C492.6 357.818 493.126 357.817 493.573 358.068L518.545 372.109C519.081 372.411 519.421 373.028 519.423 373.705L519.5 401.919C519.502 402.596 519.165 403.216 518.629 403.521L493.735 417.694C493.289 417.948 492.763 417.949 492.316 417.698L467.344 403.657C466.807 403.355 466.468 402.738 466.466 402.061L466.388 373.847C466.387 373.17 466.724 372.55 467.259 372.245L492.154 358.072ZM492.871 361.67L469.559 374.941L469.63 400.947L493.017 414.097L516.33 400.825L516.258 374.819L492.871 361.67Z" fill="white"/>
<path fill-rule="evenodd" clip-rule="evenodd" d="M552.293 357.941C552.739 357.687 553.265 357.685 553.712 357.937L578.684 371.978C579.22 372.28 579.56 372.897 579.562 373.573L579.639 401.787C579.641 402.465 579.304 403.085 578.768 403.39L553.874 417.563C553.428 417.816 552.902 417.818 552.455 417.567L527.483 403.525C526.947 403.224 526.607 402.606 526.605 401.93L526.528 373.716C526.526 373.039 526.863 372.418 527.398 372.113L552.293 357.941ZM553.01 361.538L529.698 374.81L529.77 400.815L553.156 413.965L576.469 400.693L576.397 374.688L553.01 361.538Z" fill="white"/>
<path d="M852.829 269.898L827.935 284.07L802.963 270.029L802.885 241.815L827.78 227.642L852.752 241.684L852.829 269.898Z" fill="white"/>
<path fill-rule="evenodd" clip-rule="evenodd" d="M827.067 226.045C827.513 225.791 828.039 225.79 828.486 226.041L853.458 240.083C853.994 240.384 854.334 241.002 854.336 241.678L854.413 269.892C854.415 270.569 854.078 271.19 853.542 271.495L828.648 285.667C828.202 285.921 827.676 285.923 827.229 285.671L802.257 271.63C801.72 271.328 801.381 270.711 801.379 270.035L801.301 241.821C801.3 241.143 801.637 240.523 802.172 240.218L827.067 226.045ZM827.784 229.643L804.472 242.915L804.543 268.92L827.93 282.07L851.242 268.798L851.171 242.793L827.784 229.643Z" fill="white"/>
<path d="M795.362 269.898L770.468 284.07L745.496 270.029L745.418 241.815L770.313 227.642L795.285 241.684L795.362 269.898Z" fill="white"/>
<path fill-rule="evenodd" clip-rule="evenodd" d="M769.6 226.045C770.046 225.791 770.572 225.79 771.019 226.041L795.991 240.083C796.527 240.384 796.867 241.002 796.869 241.678L796.946 269.892C796.948 270.569 796.611 271.19 796.075 271.495L771.181 285.667C770.735 285.921 770.209 285.923 769.762 285.671L744.79 271.63C744.253 271.328 743.914 270.711 743.912 270.035L743.835 241.821C743.833 241.143 744.17 240.523 744.705 240.218L769.6 226.045ZM770.317 229.643L747.005 242.915L747.076 268.92L770.463 282.07L793.776 268.798L793.704 242.793L770.317 229.643Z" fill="white"/>
<path fill-rule="evenodd" clip-rule="evenodd" d="M823.504 290.323C823.95 290.069 824.476 290.067 824.923 290.319L849.895 304.36C850.431 304.661 850.771 305.279 850.773 305.955L850.85 334.169C850.852 334.846 850.515 335.467 849.979 335.772L825.085 349.944C824.639 350.198 824.113 350.2 823.666 349.948L798.694 335.907C798.157 335.606 797.818 334.988 797.816 334.312L797.738 306.098C797.737 305.42 798.074 304.8 798.609 304.495L823.504 290.323ZM824.221 293.92L800.909 307.192L800.98 333.197L824.367 346.347L847.679 333.075L847.608 307.07L824.221 293.92Z" fill="white"/>
<path fill-rule="evenodd" clip-rule="evenodd" d="M654.812 372.044C655.258 371.79 655.784 371.788 656.231 372.04L681.203 386.081C681.739 386.383 682.079 387 682.081 387.677L682.158 415.891C682.16 416.568 681.823 417.188 681.287 417.493L656.393 431.666C655.947 431.92 655.421 431.921 654.974 431.67L630.002 417.628C629.465 417.327 629.126 416.71 629.124 416.033L629.046 387.819C629.045 387.142 629.382 386.521 629.917 386.217L654.812 372.044ZM655.529 375.641L632.217 388.913L632.288 414.918L655.675 428.068L678.987 414.797L678.916 388.791L655.529 375.641Z" fill="white"/>
<path fill-rule="evenodd" clip-rule="evenodd" d="M314.414 450.431C314.86 450.177 315.386 450.176 315.833 450.427L340.805 464.468C341.342 464.77 341.681 465.387 341.683 466.064L341.761 494.278C341.762 494.955 341.425 495.575 340.89 495.88L315.995 510.053C315.549 510.307 315.023 510.308 314.576 510.057L289.604 496.016C289.068 495.714 288.728 495.097 288.726 494.42L288.649 466.206C288.647 465.529 288.984 464.909 289.52 464.604L314.414 450.431ZM315.132 454.028L291.819 467.3L291.891 493.306L315.278 506.456L338.59 493.184L338.519 467.178L315.132 454.028Z" fill="white"/>
<path d="M77.2741 558.692L52.3795 572.865L27.4074 558.823L27.33 530.609L52.2246 516.437L77.1967 530.478L77.2741 558.692Z" fill="white"/>
<path fill-rule="evenodd" clip-rule="evenodd" d="M51.5117 514.84C51.9576 514.586 52.4835 514.584 52.9306 514.836L77.9026 528.877C78.4389 529.179 78.7786 529.796 78.7804 530.472L78.8579 558.686C78.8597 559.364 78.5226 559.984 77.9871 560.289L53.0924 574.462C52.6465 574.716 52.1206 574.717 51.6735 574.466L26.7015 560.424C26.1652 560.123 25.8255 559.505 25.8237 558.829L25.7462 530.615C25.7444 529.938 26.0815 529.317 26.617 529.012L51.5117 514.84ZM52.229 518.437L28.9168 531.709L28.9882 557.714L52.3751 570.864L75.6873 557.592L75.6159 531.587L52.229 518.437Z" fill="white"/>
<path fill-rule="evenodd" clip-rule="evenodd" d="M108.979 514.84C109.424 514.586 109.95 514.584 110.397 514.836L135.369 528.877C135.906 529.179 136.245 529.796 136.247 530.472L136.325 558.686C136.327 559.364 135.99 559.984 135.454 560.289L110.559 574.462C110.113 574.716 109.587 574.717 109.14 574.466L84.1684 560.424C83.6321 560.123 83.2924 559.505 83.2905 558.829L83.2131 530.615C83.2113 529.938 83.5484 529.317 84.0839 529.012L108.979 514.84ZM109.696 518.437L86.3837 531.709L86.4551 557.714L109.842 570.864L133.154 557.592L133.083 531.587L109.696 518.437Z" fill="white"/>
<path fill-rule="evenodd" clip-rule="evenodd" d="M166.445 514.84C166.891 514.586 167.417 514.584 167.864 514.836L192.836 528.877C193.373 529.179 193.712 529.796 193.714 530.472L193.792 558.686C193.793 559.364 193.456 559.984 192.921 560.289L168.026 574.462C167.58 574.716 167.054 574.717 166.607 574.466L141.635 560.424C141.099 560.123 140.759 559.505 140.757 558.829L140.68 530.615C140.678 529.938 141.015 529.317 141.551 529.012L166.445 514.84ZM167.163 518.437L143.851 531.709L143.922 557.714L167.309 570.864L190.621 557.592L190.55 531.587L167.163 518.437Z" fill="white"/>
<path d="M249.675 558.692L224.78 572.865L199.808 558.823L199.731 530.609L224.625 516.437L249.597 530.478L249.675 558.692Z" fill="white"/>
<path fill-rule="evenodd" clip-rule="evenodd" d="M223.912 514.84C224.358 514.586 224.884 514.584 225.331 514.836L250.303 528.877C250.839 529.179 251.179 529.796 251.181 530.472L251.258 558.686C251.26 559.364 250.923 559.984 250.388 560.289L225.493 574.462C225.047 574.716 224.521 574.717 224.074 574.466L199.102 560.424C198.566 560.123 198.226 559.505 198.224 558.829L198.147 530.615C198.145 529.938 198.482 529.317 199.018 529.012L223.912 514.84ZM224.63 518.437L201.317 531.709L201.389 557.714L224.776 570.864L248.088 557.592L248.017 531.587L224.63 518.437Z" fill="white"/>
<path fill-rule="evenodd" clip-rule="evenodd" d="M281.379 514.84C281.825 514.586 282.351 514.584 282.798 514.836L307.77 528.877C308.306 529.179 308.646 529.796 308.648 530.472L308.725 558.686C308.727 559.364 308.39 559.984 307.855 560.289L282.96 574.462C282.514 574.716 281.988 574.717 281.541 574.466L256.569 560.424C256.033 560.123 255.693 559.505 255.691 558.829L255.614 530.615C255.612 529.938 255.949 529.317 256.485 529.012L281.379 514.84ZM282.097 518.437L258.784 531.709L258.856 557.714L282.243 570.864L305.555 557.592L305.483 531.587L282.097 518.437Z" fill="white"/>
<path fill-rule="evenodd" clip-rule="evenodd" d="M26.4622 450.562C26.9081 450.309 27.434 450.307 27.8811 450.559L52.8531 464.6C53.3894 464.901 53.7291 465.519 53.731 466.195L53.8084 494.409C53.8103 495.086 53.4732 495.707 52.9376 496.012L28.043 510.184C27.597 510.438 27.0711 510.44 26.6241 510.188L1.65202 496.147C1.11575 495.846 0.77604 495.228 0.774183 494.552L0.696765 466.338C0.694907 465.66 1.032 465.04 1.56756 464.735L26.4622 450.562ZM27.1796 454.16L3.86734 467.432L3.9387 493.437L27.3256 506.587L50.6378 493.315L50.5665 467.31L27.1796 454.16Z" fill="white"/>
<path fill-rule="evenodd" clip-rule="evenodd" d="M83.9291 450.562C84.375 450.309 84.9009 450.307 85.348 450.559L110.32 464.6C110.856 464.901 111.196 465.519 111.198 466.195L111.275 494.409C111.277 495.086 110.94 495.707 110.404 496.012L85.5099 510.184C85.0639 510.438 84.538 510.44 84.091 510.188L59.1189 496.147C58.5826 495.846 58.2429 495.228 58.2411 494.552L58.1637 466.338C58.1618 465.66 58.4989 465.04 59.0344 464.735L83.9291 450.562ZM84.6465 454.16L61.3342 467.432L61.4056 493.437L84.7925 506.587L108.105 493.315L108.033 467.31L84.6465 454.16Z" fill="white"/>
<path d="M167.158 494.415L142.264 508.587L117.292 494.546L117.214 466.332L142.109 452.159L167.081 466.201L167.158 494.415Z" fill="white"/>
<path fill-rule="evenodd" clip-rule="evenodd" d="M141.396 450.562C141.842 450.309 142.368 450.307 142.815 450.559L167.787 464.6C168.323 464.901 168.663 465.519 168.665 466.195L168.742 494.409C168.744 495.086 168.407 495.707 167.871 496.012L142.977 510.184C142.531 510.438 142.005 510.44 141.558 510.188L116.586 496.147C116.05 495.846 115.71 495.228 115.708 494.552L115.631 466.338C115.629 465.66 115.966 465.04 116.501 464.735L141.396 450.562ZM142.113 454.16L118.801 467.432L118.872 493.437L142.259 506.587L165.572 493.315L165.5 467.31L142.113 454.16Z" fill="white"/>
<path d="M224.625 494.415L199.731 508.587L174.759 494.546L174.681 466.332L199.576 452.159L224.548 466.201L224.625 494.415Z" fill="white"/>
<path fill-rule="evenodd" clip-rule="evenodd" d="M198.863 450.562C199.309 450.309 199.835 450.307 200.282 450.559L225.254 464.6C225.79 464.901 226.13 465.519 226.132 466.195L226.209 494.409C226.211 495.086 225.874 495.707 225.338 496.012L200.444 510.184C199.998 510.438 199.472 510.44 199.025 510.188L174.053 496.147C173.516 495.846 173.177 495.228 173.175 494.552L173.097 466.338C173.096 465.66 173.433 465.04 173.968 464.735L198.863 450.562ZM199.58 454.16L176.268 467.432L176.339 493.437L199.726 506.587L223.038 493.315L222.967 467.31L199.58 454.16Z" fill="white"/>
<path d="M282.092 494.415L257.198 508.587L232.225 494.546L232.148 466.332L257.043 452.159L282.015 466.201L282.092 494.415Z" fill="white"/>
<path fill-rule="evenodd" clip-rule="evenodd" d="M256.33 450.562C256.776 450.309 257.302 450.307 257.749 450.559L282.721 464.6C283.257 464.901 283.597 465.519 283.599 466.195L283.676 494.409C283.678 495.086 283.341 495.707 282.805 496.012L257.91 510.184C257.465 510.438 256.939 510.44 256.492 510.188L231.52 496.147C230.983 495.846 230.644 495.228 230.642 494.552L230.564 466.338C230.562 465.66 230.9 465.04 231.435 464.735L256.33 450.562ZM257.047 454.16L233.735 467.432L233.806 493.437L257.193 506.587L280.505 493.315L280.434 467.31L257.047 454.16Z" fill="white"/>
<path fill-rule="evenodd" clip-rule="evenodd" d="M47.4793 386.285C47.9253 386.031 48.4511 386.03 48.8982 386.281L73.8702 400.323C74.4065 400.624 74.7462 401.242 74.7481 401.918L74.8255 430.132C74.8274 430.809 74.4903 431.43 73.9547 431.734L49.0601 445.907C48.6141 446.161 48.0882 446.163 47.6412 445.911L22.6691 431.87C22.1329 431.568 21.7931 430.951 21.7913 430.275L21.7139 402.061C21.712 401.383 22.0491 400.763 22.5847 400.458L47.4793 386.285ZM48.1967 389.883L24.8844 403.155L24.9558 429.16L48.3427 442.31L71.6549 429.038L71.5836 403.033L48.1967 389.883Z" fill="white"/>
<path fill-rule="evenodd" clip-rule="evenodd" d="M104.946 386.285C105.392 386.031 105.918 386.03 106.365 386.281L131.337 400.323C131.873 400.624 132.213 401.242 132.215 401.918L132.292 430.132C132.294 430.809 131.957 431.43 131.422 431.734L106.527 445.907C106.081 446.161 105.555 446.163 105.108 445.911L80.136 431.87C79.5998 431.568 79.26 430.951 79.2582 430.275L79.1808 402.061C79.1789 401.383 79.516 400.763 80.0516 400.458L104.946 386.285ZM105.664 389.883L82.3513 403.155L82.4227 429.16L105.81 442.31L129.122 429.038L129.05 403.033L105.664 389.883Z" fill="white"/>
<path d="M188.175 430.138L163.281 444.31L138.309 430.269L138.231 402.055L163.126 387.882L188.098 401.924L188.175 430.138Z" fill="white"/>
<path fill-rule="evenodd" clip-rule="evenodd" d="M162.413 386.285C162.859 386.031 163.385 386.03 163.832 386.281L188.804 400.323C189.34 400.624 189.68 401.242 189.682 401.918L189.759 430.132C189.761 430.809 189.424 431.43 188.888 431.734L163.994 445.907C163.548 446.161 163.022 446.163 162.575 445.911L137.603 431.87C137.067 431.568 136.727 430.951 136.725 430.275L136.648 402.061C136.646 401.383 136.983 400.763 137.518 400.458L162.413 386.285ZM163.13 389.883L139.818 403.155L139.89 429.16L163.276 442.31L186.589 429.038L186.517 403.033L163.13 389.883Z" fill="white"/>
<path d="M245.642 430.138L220.748 444.31L195.776 430.269L195.698 402.055L220.593 387.882L245.565 401.924L245.642 430.138Z" fill="white"/>
<path fill-rule="evenodd" clip-rule="evenodd" d="M219.88 386.285C220.326 386.031 220.852 386.03 221.299 386.281L246.271 400.323C246.807 400.624 247.147 401.242 247.149 401.918L247.226 430.132C247.228 430.809 246.891 431.43 246.355 431.734L221.461 445.907C221.015 446.161 220.489 446.163 220.042 445.911L195.07 431.87C194.534 431.568 194.194 430.951 194.192 430.275L194.115 402.061C194.113 401.383 194.45 400.763 194.985 400.458L219.88 386.285ZM220.597 389.883L197.285 403.155L197.356 429.16L220.743 442.31L244.056 429.038L243.984 403.033L220.597 389.883Z" fill="white"/>
<path d="M303.109 430.138L278.215 444.31L253.243 430.269L253.165 402.055L278.06 387.882L303.032 401.924L303.109 430.138Z" fill="white"/>
<path fill-rule="evenodd" clip-rule="evenodd" d="M277.347 386.285C277.793 386.031 278.319 386.03 278.766 386.281L303.738 400.323C304.274 400.624 304.614 401.242 304.616 401.918L304.693 430.132C304.695 430.809 304.358 431.43 303.822 431.734L278.928 445.907C278.482 446.161 277.956 446.163 277.509 445.911L252.537 431.87C252 431.568 251.661 430.951 251.659 430.275L251.581 402.061C251.58 401.383 251.917 400.763 252.452 400.458L277.347 386.285ZM278.064 389.883L254.752 403.155L254.823 429.16L278.21 442.31L301.522 429.038L301.451 403.033L278.064 389.883Z" fill="white"/>
<path fill-rule="evenodd" clip-rule="evenodd" d="M76.0966 322.008C76.5426 321.754 77.0684 321.753 77.5155 322.004L102.488 336.045C103.024 336.347 103.364 336.964 103.365 337.641L103.443 365.855C103.445 366.532 103.108 367.152 102.572 367.457L77.6774 381.63C77.2314 381.884 76.7056 381.885 76.2585 381.634L51.2864 367.593C50.7502 367.291 50.4105 366.674 50.4086 365.997L50.3312 337.783C50.3293 337.106 50.6664 336.486 51.202 336.181L76.0966 322.008ZM76.814 325.605L53.5018 338.877L53.5731 364.883L76.96 378.033L100.272 364.761L100.201 338.755L76.814 325.605Z" fill="white"/>
<path fill-rule="evenodd" clip-rule="evenodd" d="M133.563 322.008C134.009 321.754 134.535 321.753 134.982 322.004L159.954 336.045C160.491 336.347 160.83 336.964 160.832 337.641L160.91 365.855C160.912 366.532 160.574 367.152 160.039 367.457L135.144 381.63C134.698 381.884 134.172 381.885 133.725 381.634L108.753 367.593C108.217 367.291 107.877 366.674 107.875 365.997L107.798 337.783C107.796 337.106 108.133 336.486 108.669 336.181L133.563 322.008ZM134.281 325.605L110.969 338.877L111.04 364.883L134.427 378.033L157.739 364.761L157.668 338.755L134.281 325.605Z" fill="white"/>
<path fill-rule="evenodd" clip-rule="evenodd" d="M191.03 322.008C191.476 321.754 192.002 321.753 192.449 322.004L217.421 336.045C217.958 336.347 218.297 336.964 218.299 337.641L218.377 365.855C218.378 366.532 218.041 367.152 217.506 367.457L192.611 381.63C192.165 381.884 191.639 381.885 191.192 381.634L166.22 367.593C165.684 367.291 165.344 366.674 165.342 365.997L165.265 337.783C165.263 337.106 165.6 336.486 166.136 336.181L191.03 322.008ZM191.748 325.605L168.435 338.877L168.507 364.883L191.894 378.033L215.206 364.761L215.135 338.755L191.748 325.605Z" fill="white"/>
<path d="M274.26 365.86L249.365 380.033L224.393 365.992L224.316 337.778L249.21 323.605L274.182 337.646L274.26 365.86Z" fill="white"/>
<path fill-rule="evenodd" clip-rule="evenodd" d="M248.497 322.008C248.943 321.754 249.469 321.753 249.916 322.004L274.888 336.045C275.424 336.347 275.764 336.964 275.766 337.641L275.843 365.855C275.845 366.532 275.508 367.152 274.973 367.457L250.078 381.63C249.632 381.884 249.106 381.885 248.659 381.634L223.687 367.593C223.151 367.291 222.811 366.674 222.809 365.997L222.732 337.783C222.73 337.106 223.067 336.486 223.603 336.181L248.497 322.008ZM249.215 325.605L225.902 338.877L225.974 364.883L249.361 378.033L272.673 364.761L272.602 338.755L249.215 325.605Z" fill="white"/>
<path d="M331.727 365.86L306.832 380.033L281.86 365.992L281.782 337.778L306.677 323.605L331.649 337.646L331.727 365.86Z" fill="white"/>
<path fill-rule="evenodd" clip-rule="evenodd" d="M305.964 322.008C306.41 321.754 306.936 321.753 307.383 322.004L332.355 336.045C332.891 336.347 333.231 336.964 333.233 337.641L333.31 365.855C333.312 366.532 332.975 367.152 332.44 367.457L307.545 381.63C307.099 381.884 306.573 381.885 306.126 381.634L281.154 367.593C280.618 367.291 280.278 366.674 280.276 365.997L280.199 337.783C280.197 337.106 280.534 336.486 281.069 336.181L305.964 322.008ZM306.681 325.605L283.369 338.877L283.441 364.883L306.828 378.033L330.14 364.761L330.068 338.755L306.681 325.605Z" fill="white"/>
<path fill-rule="evenodd" clip-rule="evenodd" d="M47.247 257.731C47.693 257.477 48.2189 257.475 48.666 257.727L73.638 271.768C74.1743 272.07 74.514 272.687 74.5158 273.364L74.5932 301.578C74.5951 302.255 74.258 302.875 73.7225 303.18L48.8278 317.353C48.3819 317.607 47.856 317.608 47.4089 317.357L22.4369 303.315C21.9006 303.014 21.5609 302.396 21.559 301.72L21.4816 273.506C21.4798 272.829 21.8169 272.208 22.3524 271.904L47.247 257.731ZM47.9644 261.328L24.6522 274.6L24.7236 300.605L48.1104 313.755L71.4227 300.484L71.3513 274.478L47.9644 261.328Z" fill="white"/>
<path fill-rule="evenodd" clip-rule="evenodd" d="M104.714 257.731C105.16 257.477 105.686 257.475 106.133 257.727L131.105 271.768C131.641 272.07 131.981 272.687 131.983 273.364L132.06 301.578C132.062 302.255 131.725 302.875 131.189 303.18L106.295 317.353C105.849 317.607 105.323 317.608 104.876 317.357L79.9037 303.315C79.3675 303.014 79.0278 302.396 79.0259 301.72L78.9485 273.506C78.9466 272.829 79.2837 272.208 79.8193 271.904L104.714 257.731ZM105.431 261.328L82.1191 274.6L82.1904 300.605L105.577 313.755L128.89 300.484L128.818 274.478L105.431 261.328Z" fill="white"/>
<path fill-rule="evenodd" clip-rule="evenodd" d="M162.181 257.731C162.627 257.477 163.153 257.475 163.6 257.727L188.572 271.768C189.108 272.07 189.448 272.687 189.45 273.364L189.527 301.578C189.529 302.255 189.192 302.875 188.656 303.18L163.762 317.353C163.316 317.607 162.79 317.608 162.343 317.357L137.371 303.315C136.834 303.014 136.495 302.396 136.493 301.72L136.415 273.506C136.414 272.829 136.751 272.208 137.286 271.904L162.181 257.731ZM162.898 261.328L139.586 274.6L139.657 300.605L163.044 313.755L186.356 300.484L186.285 274.478L162.898 261.328Z" fill="white"/>
<path fill-rule="evenodd" clip-rule="evenodd" d="M219.648 257.731C220.094 257.477 220.62 257.475 221.067 257.727L246.039 271.768C246.575 272.07 246.915 272.687 246.916 273.364L246.994 301.578C246.996 302.255 246.659 302.875 246.123 303.18L221.228 317.353C220.783 317.607 220.257 317.608 219.81 317.357L194.838 303.315C194.301 303.014 193.962 302.396 193.96 301.72L193.882 273.506C193.88 272.829 194.217 272.208 194.753 271.904L219.648 257.731ZM220.365 261.328L197.053 274.6L197.124 300.605L220.511 313.755L243.823 300.484L243.752 274.478L220.365 261.328Z" fill="white"/>
<path fill-rule="evenodd" clip-rule="evenodd" d="M277.115 257.731C277.56 257.477 278.086 257.475 278.533 257.727L303.506 271.768C304.042 272.07 304.381 272.687 304.383 273.364L304.461 301.578C304.463 302.255 304.126 302.875 303.59 303.18L278.695 317.353C278.249 317.607 277.724 317.608 277.276 317.357L252.304 303.315C251.768 303.014 251.428 302.396 251.427 301.72L251.349 273.506C251.347 272.829 251.684 272.208 252.22 271.904L277.115 257.731ZM277.832 261.328L254.52 274.6L254.591 300.605L277.978 313.755L301.29 300.484L301.219 274.478L277.832 261.328Z" fill="white"/>
<path fill-rule="evenodd" clip-rule="evenodd" d="M75.8644 193.454C76.3103 193.2 76.8362 193.198 77.2833 193.45L102.255 207.491C102.792 207.792 103.131 208.41 103.133 209.086L103.211 237.3C103.212 237.978 102.875 238.598 102.34 238.903L77.4452 253.076C76.9992 253.329 76.4733 253.331 76.0262 253.079L51.0542 239.038C50.5179 238.737 50.1782 238.119 50.1764 237.443L50.0989 209.229C50.0971 208.552 50.4342 207.931 50.9697 207.626L75.8644 193.454ZM76.5817 197.051L53.2695 210.323L53.3409 236.328L76.7278 249.478L100.04 236.206L99.9686 210.201L76.5817 197.051Z" fill="white"/>
<path fill-rule="evenodd" clip-rule="evenodd" d="M133.331 193.454C133.777 193.2 134.303 193.198 134.75 193.45L159.722 207.491C160.258 207.792 160.598 208.41 160.6 209.086L160.677 237.3C160.679 237.978 160.342 238.598 159.807 238.903L134.912 253.076C134.466 253.329 133.94 253.331 133.493 253.079L108.521 239.038C107.985 238.737 107.645 238.119 107.643 237.443L107.566 209.229C107.564 208.552 107.901 207.931 108.437 207.626L133.331 193.454ZM134.049 197.051L110.736 210.323L110.808 236.328L134.195 249.478L157.507 236.206L157.436 210.201L134.049 197.051Z" fill="white"/>
<path fill-rule="evenodd" clip-rule="evenodd" d="M190.798 193.454C191.244 193.2 191.77 193.198 192.217 193.45L217.189 207.491C217.725 207.792 218.065 208.41 218.067 209.086L218.144 237.3C218.146 237.978 217.809 238.598 217.274 238.903L192.379 253.076C191.933 253.329 191.407 253.331 190.96 253.079L165.988 239.038C165.452 238.737 165.112 238.119 165.11 237.443L165.033 209.229C165.031 208.552 165.368 207.931 165.903 207.626L190.798 193.454ZM191.515 197.051L168.203 210.323L168.275 236.328L191.661 249.478L214.974 236.206L214.902 210.201L191.515 197.051Z" fill="white"/>
<path fill-rule="evenodd" clip-rule="evenodd" d="M248.265 193.454C248.711 193.2 249.237 193.198 249.684 193.45L274.656 207.491C275.192 207.792 275.532 208.41 275.534 209.086L275.611 237.3C275.613 237.978 275.276 238.598 274.74 238.903L249.846 253.076C249.4 253.329 248.874 253.331 248.427 253.079L223.455 239.038C222.919 238.737 222.579 238.119 222.577 237.443L222.5 209.229C222.498 208.552 222.835 207.931 223.37 207.626L248.265 193.454ZM248.982 197.051L225.67 210.323L225.742 236.328L249.128 249.478L272.441 236.206L272.369 210.201L248.982 197.051Z" fill="white"/>
<path fill-rule="evenodd" clip-rule="evenodd" d="M305.732 193.454C306.178 193.2 306.704 193.198 307.151 193.45L332.123 207.491C332.659 207.792 332.999 208.41 333.001 209.086L333.078 237.3C333.08 237.978 332.743 238.598 332.207 238.903L307.313 253.076C306.867 253.329 306.341 253.331 305.894 253.079L280.922 239.038C280.385 238.737 280.046 238.119 280.044 237.443L279.966 209.229C279.965 208.552 280.302 207.931 280.837 207.626L305.732 193.454ZM306.449 197.051L283.137 210.323L283.208 236.328L306.595 249.478L329.908 236.206L329.836 210.201L306.449 197.051Z" fill="white"/>
<path fill-rule="evenodd" clip-rule="evenodd" d="M50.8149 129.176C51.2609 128.923 51.7867 128.921 52.2338 129.172L77.2058 143.214C77.7421 143.515 78.0818 144.133 78.0837 144.809L78.1611 173.023C78.163 173.7 77.8259 174.321 77.2903 174.626L52.3957 188.798C51.9497 189.052 51.4238 189.054 50.9768 188.802L26.0047 174.761C25.4685 174.46 25.1287 173.842 25.1269 173.166L25.0495 144.952C25.0476 144.274 25.3847 143.654 25.9203 143.349L50.8149 129.176ZM51.5323 132.774L28.22 146.046L28.2914 172.051L51.6783 185.201L74.9905 171.929L74.9192 145.924L51.5323 132.774Z" fill="white"/>
<path fill-rule="evenodd" clip-rule="evenodd" d="M108.282 129.176C108.728 128.923 109.254 128.921 109.701 129.172L134.673 143.214C135.209 143.515 135.549 144.133 135.551 144.809L135.628 173.023C135.63 173.7 135.293 174.321 134.757 174.626L109.863 188.798C109.417 189.052 108.891 189.054 108.444 188.802L83.4716 174.761C82.9353 174.46 82.5956 173.842 82.5938 173.166L82.5163 144.952C82.5145 144.274 82.8516 143.654 83.3871 143.349L108.282 129.176ZM108.999 132.774L85.6869 146.046L85.7583 172.051L109.145 185.201L132.457 171.929L132.386 145.924L108.999 132.774Z" fill="white"/>
<path fill-rule="evenodd" clip-rule="evenodd" d="M165.749 129.176C166.195 128.923 166.721 128.921 167.168 129.172L192.14 143.214C192.676 143.515 193.016 144.133 193.017 144.809L193.095 173.023C193.097 173.7 192.76 174.321 192.224 174.626L167.329 188.798C166.883 189.052 166.358 189.054 165.911 188.802L140.938 174.761C140.402 174.46 140.063 173.842 140.061 173.166L139.983 144.952C139.981 144.274 140.318 143.654 140.854 143.349L165.749 129.176ZM166.466 132.774L143.154 146.046L143.225 172.051L166.612 185.201L189.924 171.929L189.853 145.924L166.466 132.774Z" fill="white"/>
<path d="M248.978 173.029L224.083 187.201L199.111 173.16L199.034 144.946L223.928 130.773L248.901 144.815L248.978 173.029Z" fill="white"/>
<path fill-rule="evenodd" clip-rule="evenodd" d="M223.216 129.176C223.661 128.923 224.187 128.921 224.634 129.172L249.606 143.214C250.143 143.515 250.482 144.133 250.484 144.809L250.562 173.023C250.564 173.7 250.227 174.321 249.691 174.626L224.796 188.798C224.35 189.052 223.824 189.054 223.377 188.802L198.405 174.761C197.869 174.46 197.529 173.842 197.528 173.166L197.45 144.952C197.448 144.274 197.785 143.654 198.321 143.349L223.216 129.176ZM223.933 132.774L200.621 146.046L200.692 172.051L224.079 185.201L247.391 171.929L247.32 145.924L223.933 132.774Z" fill="white"/>
<path fill-rule="evenodd" clip-rule="evenodd" d="M280.682 129.176C281.128 128.923 281.654 128.921 282.101 129.172L307.073 143.214C307.61 143.515 307.949 144.133 307.951 144.809L308.029 173.023C308.03 173.7 307.693 174.321 307.158 174.626L282.263 188.798C281.817 189.052 281.291 189.054 280.844 188.802L255.872 174.761C255.336 174.46 254.996 173.842 254.994 173.166L254.917 144.952C254.915 144.274 255.252 143.654 255.788 143.349L280.682 129.176ZM281.4 132.774L258.088 146.046L258.159 172.051L281.546 185.201L304.858 171.929L304.787 145.924L281.4 132.774Z" fill="white"/>
<path fill-rule="evenodd" clip-rule="evenodd" d="M25.7654 64.8993C26.2114 64.6454 26.7373 64.6439 27.1843 64.8953L52.1564 78.9366C52.6926 79.2381 53.0324 79.8555 53.0342 80.532L53.1116 108.746C53.1135 109.423 52.7764 110.044 52.2408 110.348L27.3462 124.521C26.9003 124.775 26.3744 124.777 25.9273 124.525L0.955261 110.484C0.418993 110.182 0.0792821 109.565 0.0774258 108.888L7.64534e-06 80.6745C-0.00185082 79.9972 0.335243 79.3768 0.870799 79.0719L25.7654 64.8993ZM26.4828 68.4966L3.17058 81.7684L3.24194 107.774L26.6288 120.924L49.9411 107.652L49.8697 81.6466L26.4828 68.4966Z" fill="white"/>
<path fill-rule="evenodd" clip-rule="evenodd" d="M83.2323 64.8993C83.6783 64.6454 84.2042 64.6439 84.6512 64.8953L109.623 78.9366C110.16 79.2381 110.499 79.8555 110.501 80.532L110.579 108.746C110.58 109.423 110.243 110.044 109.708 110.348L84.8131 124.521C84.3671 124.775 83.8413 124.777 83.3942 124.525L58.4221 110.484C57.8859 110.182 57.5462 109.565 57.5443 108.888L57.4669 80.6745C57.465 79.9972 57.8021 79.3768 58.3377 79.0719L83.2323 64.8993ZM83.9497 68.4966L60.6375 81.7684L60.7088 107.774L84.0957 120.924L107.408 107.652L107.337 81.6466L83.9497 68.4966Z" fill="white"/>
<path fill-rule="evenodd" clip-rule="evenodd" d="M140.699 64.8993C141.145 64.6454 141.671 64.6439 142.118 64.8953L167.09 78.9366C167.626 79.2381 167.966 79.8555 167.968 80.532L168.045 108.746C168.047 109.423 167.71 110.044 167.175 110.348L142.28 124.521C141.834 124.775 141.308 124.777 140.861 124.525L115.889 110.484C115.353 110.182 115.013 109.565 115.011 108.888L114.934 80.6745C114.932 79.9972 115.269 79.3768 115.805 79.0719L140.699 64.8993ZM141.417 68.4966L118.104 81.7684L118.176 107.774L141.563 120.924L164.875 107.652L164.803 81.6466L141.417 68.4966Z" fill="white"/>
<path fill-rule="evenodd" clip-rule="evenodd" d="M198.166 64.8993C198.612 64.6454 199.138 64.6439 199.585 64.8953L224.557 78.9366C225.093 79.2381 225.433 79.8555 225.435 80.532L225.512 108.746C225.514 109.423 225.177 110.044 224.642 110.348L199.747 124.521C199.301 124.775 198.775 124.777 198.328 124.525L173.356 110.484C172.82 110.182 172.48 109.565 172.478 108.888L172.401 80.6745C172.399 79.9972 172.736 79.3768 173.271 79.0719L198.166 64.8993ZM198.883 68.4966L175.571 81.7684L175.643 107.774L199.029 120.924L222.342 107.652L222.27 81.6466L198.883 68.4966Z" fill="white"/>
<path fill-rule="evenodd" clip-rule="evenodd" d="M255.633 64.8993C256.079 64.6454 256.605 64.6439 257.052 64.8953L282.024 78.9366C282.56 79.2381 282.9 79.8555 282.902 80.532L282.979 108.746C282.981 109.423 282.644 110.044 282.108 110.348L257.214 124.521C256.768 124.775 256.242 124.777 255.795 124.525L230.823 110.484C230.286 110.182 229.947 109.565 229.945 108.888L229.868 80.6745C229.866 79.9972 230.203 79.3768 230.738 79.0719L255.633 64.8993ZM256.35 68.4966L233.038 81.7684L233.109 107.774L256.496 120.924L279.809 107.652L279.737 81.6466L256.35 68.4966Z" fill="white"/>
<path fill-rule="evenodd" clip-rule="evenodd" d="M50.5826 0.622047C51.0286 0.368156 51.5545 0.366684 52.0016 0.618065L76.9736 14.6593C77.5099 14.9609 77.8496 15.5783 77.8514 16.2548L77.9289 44.4687C77.9307 45.146 77.5936 45.7663 77.0581 46.0712L52.1634 60.2439C51.7175 60.4978 51.1916 60.4993 50.7445 60.2479L25.7725 46.2066C25.2362 45.9051 24.8965 45.2877 24.8946 44.6112L24.8172 16.3973C24.8154 15.72 25.1525 15.0996 25.688 14.7947L50.5826 0.622047ZM51.3 4.21943L27.9878 17.4912L28.0592 43.4966L51.446 56.6465L74.7583 43.3747L74.6869 17.3694L51.3 4.21943Z" fill="white"/>
<path fill-rule="evenodd" clip-rule="evenodd" d="M108.049 0.622047C108.495 0.368156 109.021 0.366684 109.468 0.618065L134.44 14.6593C134.977 14.9609 135.316 15.5783 135.318 16.2548L135.396 44.4687C135.398 45.146 135.06 45.7663 134.525 46.0712L109.63 60.2439C109.184 60.4978 108.658 60.4993 108.211 60.2479L83.2393 46.2066C82.7031 45.9051 82.3633 45.2877 82.3615 44.6112L82.2841 16.3973C82.2822 15.72 82.6193 15.0996 83.1549 14.7947L108.049 0.622047ZM108.767 4.21943L85.4547 17.4912L85.526 43.4966L108.913 56.6465L132.225 43.3747L132.154 17.3694L108.767 4.21943Z" fill="white"/>
<path fill-rule="evenodd" clip-rule="evenodd" d="M165.516 0.622047C165.962 0.368156 166.488 0.366684 166.935 0.618065L191.907 14.6593C192.444 14.9609 192.783 15.5783 192.785 16.2548L192.863 44.4687C192.864 45.146 192.527 45.7663 191.992 46.0712L167.097 60.2439C166.651 60.4978 166.125 60.4993 165.678 60.2479L140.706 46.2066C140.17 45.9051 139.83 45.2877 139.828 44.6112L139.751 16.3973C139.749 15.72 140.086 15.0996 140.622 14.7947L165.516 0.622047ZM166.234 4.21943L142.922 17.4912L142.993 43.4966L166.38 56.6465L189.692 43.3747L189.621 17.3694L166.234 4.21943Z" fill="white"/>
<path fill-rule="evenodd" clip-rule="evenodd" d="M222.983 0.622047C223.429 0.368156 223.955 0.366684 224.402 0.618065L249.374 14.6593C249.911 14.9609 250.25 15.5783 250.252 16.2548L250.329 44.4687C250.331 45.146 249.994 45.7663 249.459 46.0712L224.564 60.2439C224.118 60.4978 223.592 60.4993 223.145 60.2479L198.173 46.2066C197.637 45.9051 197.297 45.2877 197.295 44.6112L197.218 16.3973C197.216 15.72 197.553 15.0996 198.089 14.7947L222.983 0.622047ZM223.701 4.21943L200.388 17.4912L200.46 43.4966L223.847 56.6465L247.159 43.3747L247.088 17.3694L223.701 4.21943Z" fill="white"/>
<path d="M306.213 44.4743L281.318 58.6469L256.346 44.6057L256.268 16.3917L281.163 2.21904L306.135 16.2603L306.213 44.4743Z" fill="white"/>
<path fill-rule="evenodd" clip-rule="evenodd" d="M280.45 0.622047C280.896 0.368156 281.422 0.366684 281.869 0.618065L306.841 14.6593C307.377 14.9609 307.717 15.5783 307.719 16.2548L307.796 44.4687C307.798 45.146 307.461 45.7663 306.926 46.0712L282.031 60.2439C281.585 60.4978 281.059 60.4993 280.612 60.2479L255.64 46.2066C255.104 45.9051 254.764 45.2877 254.762 44.6112L254.685 16.3973C254.683 15.72 255.02 15.0996 255.555 14.7947L280.45 0.622047ZM281.168 4.21943L257.855 17.4912L257.927 43.4966L281.314 56.6465L304.626 43.3747L304.554 17.3694L281.168 4.21943Z" fill="white"/>
<path fill-rule="evenodd" clip-rule="evenodd" d="M79.2 -63.6552C79.6459 -63.9091 80.1718 -63.9106 80.6189 -63.6592L105.591 -49.6179C106.127 -49.3164 106.467 -48.699 106.469 -48.0225L106.546 -19.8085C106.548 -19.1313 106.211 -18.5109 105.675 -18.206L80.7807 -4.03334C80.3348 -3.77945 79.8089 -3.77797 79.3618 -4.02935L54.3898 -18.0706C53.8535 -18.3722 53.5138 -18.9896 53.5119 -19.6661L53.4345 -47.88C53.4327 -48.5573 53.7698 -49.1776 54.3053 -49.4825L79.2 -63.6552ZM79.9173 -60.0578L56.6051 -46.786L56.6765 -20.7807L80.0634 -7.63072L103.376 -20.9025L103.304 -46.9079L79.9173 -60.0578Z" fill="white"/>
<path fill-rule="evenodd" clip-rule="evenodd" d="M136.667 -63.6552C137.113 -63.9091 137.639 -63.9106 138.086 -63.6592L163.058 -49.6179C163.594 -49.3164 163.934 -48.699 163.936 -48.0225L164.013 -19.8085C164.015 -19.1313 163.678 -18.5109 163.142 -18.206L138.248 -4.03334C137.802 -3.77945 137.276 -3.77797 136.829 -4.02935L111.857 -18.0706C111.32 -18.3722 110.981 -18.9896 110.979 -19.6661L110.901 -47.88C110.9 -48.5573 111.237 -49.1776 111.772 -49.4825L136.667 -63.6552ZM137.384 -60.0578L114.072 -46.786L114.143 -20.7807L137.53 -7.63072L160.842 -20.9025L160.771 -46.9079L137.384 -60.0578Z" fill="white"/>
<path fill-rule="evenodd" clip-rule="evenodd" d="M194.134 -63.6552C194.58 -63.9091 195.106 -63.9106 195.553 -63.6592L220.525 -49.6179C221.061 -49.3164 221.401 -48.699 221.403 -48.0225L221.48 -19.8085C221.482 -19.1313 221.145 -18.5109 220.609 -18.206L195.715 -4.03334C195.269 -3.77945 194.743 -3.77797 194.296 -4.02935L169.324 -18.0706C168.787 -18.3722 168.448 -18.9896 168.446 -19.6661L168.368 -47.88C168.366 -48.5573 168.704 -49.1776 169.239 -49.4825L194.134 -63.6552ZM194.851 -60.0578L171.539 -46.786L171.61 -20.7807L194.997 -7.63072L218.309 -20.9025L218.238 -46.9079L194.851 -60.0578Z" fill="white"/>
<path fill-rule="evenodd" clip-rule="evenodd" d="M251.601 -63.6552C252.047 -63.9091 252.572 -63.9106 253.019 -63.6592L277.992 -49.6179C278.528 -49.3164 278.868 -48.699 278.869 -48.0225L278.947 -19.8085C278.949 -19.1313 278.612 -18.5109 278.076 -18.206L253.181 -4.03334C252.735 -3.77945 252.21 -3.77797 251.762 -4.02935L226.79 -18.0706C226.254 -18.3722 225.914 -18.9896 225.913 -19.6661L225.835 -47.88C225.833 -48.5573 226.17 -49.1776 226.706 -49.4825L251.601 -63.6552ZM252.318 -60.0578L229.006 -46.786L229.077 -20.7807L252.464 -7.63072L275.776 -20.9025L275.705 -46.9079L252.318 -60.0578Z" fill="white"/>
<path d="M734.652 557.048L709.757 571.221L684.785 557.179L684.708 528.965L709.602 514.793L734.574 528.834L734.652 557.048Z" fill="white"/>
<path fill-rule="evenodd" clip-rule="evenodd" d="M708.889 513.196C709.335 512.942 709.861 512.94 710.308 513.192L735.28 527.233C735.817 527.535 736.156 528.152 736.158 528.829L736.236 557.042C736.237 557.72 735.9 558.34 735.365 558.645L710.47 572.818C710.024 573.072 709.498 573.073 709.051 572.822L684.079 558.78C683.543 558.479 683.203 557.861 683.201 557.185L683.124 528.971C683.122 528.294 683.459 527.673 683.995 527.368L708.889 513.196ZM709.607 516.793L686.294 530.065L686.366 556.07L709.753 569.22L733.065 555.948L732.994 529.943L709.607 516.793Z" fill="white"/>
<path fill-rule="evenodd" clip-rule="evenodd" d="M477.427 201.814C477.873 201.56 478.399 201.558 478.846 201.81L503.818 215.851C504.354 216.153 504.694 216.77 504.696 217.447L504.773 245.66C504.775 246.338 504.438 246.958 503.902 247.263L479.008 261.436C478.562 261.69 478.036 261.691 477.589 261.44L452.617 247.398C452.08 247.097 451.741 246.479 451.739 245.803L451.661 217.589C451.659 216.912 451.997 216.291 452.532 215.986L477.427 201.814ZM478.144 205.411L454.832 218.683L454.903 244.688L478.29 257.838L501.602 244.566L501.531 218.561L478.144 205.411Z" fill="white"/>
<path fill-rule="evenodd" clip-rule="evenodd" d="M543.979 439.464C544.425 439.21 544.951 439.209 545.398 439.46L570.37 453.501C570.906 453.803 571.246 454.42 571.248 455.097L571.325 483.311C571.327 483.988 570.99 484.608 570.455 484.913L545.56 499.086C545.114 499.34 544.588 499.341 544.141 499.09L519.169 485.049C518.633 484.747 518.293 484.13 518.291 483.453L518.214 455.239C518.212 454.562 518.549 453.942 519.085 453.637L543.979 439.464ZM544.697 443.061L521.384 456.333L521.456 482.339L544.843 495.489L568.155 482.217L568.083 456.211L544.697 443.061Z" fill="white"/>
<path fill-rule="evenodd" clip-rule="evenodd" d="M955.915 248.948C956.361 248.694 956.887 248.692 957.334 248.944L982.306 262.985C982.842 263.287 983.182 263.904 983.184 264.58L983.261 292.794C983.263 293.472 982.926 294.092 982.39 294.397L957.496 308.57C957.05 308.823 956.524 308.825 956.077 308.574L931.105 294.532C930.568 294.231 930.229 293.613 930.227 292.937L930.149 264.723C930.148 264.046 930.485 263.425 931.02 263.12L955.915 248.948ZM956.632 252.545L933.32 265.817L933.391 291.822L956.778 304.972L980.091 291.7L980.019 265.695L956.632 252.545Z" fill="white"/>
<path fill-rule="evenodd" clip-rule="evenodd" d="M503.27 569.084C503.716 568.83 504.242 568.829 504.689 569.08L529.661 583.121C530.197 583.423 530.537 584.04 530.539 584.717L530.616 612.931C530.618 613.608 530.281 614.228 529.745 614.533L504.851 628.706C504.405 628.96 503.879 628.961 503.432 628.71L478.46 614.669C477.923 614.367 477.584 613.75 477.582 613.073L477.504 584.859C477.503 584.182 477.84 583.562 478.375 583.257L503.27 569.084ZM503.987 572.681L480.675 585.953L480.746 611.959L504.133 625.109L527.445 611.837L527.374 585.831L503.987 572.681Z" fill="white"/>
<path fill-rule="evenodd" clip-rule="evenodd" d="M746.357 436.19C746.803 435.936 747.329 435.934 747.776 436.186L772.748 450.227C773.284 450.529 773.624 451.146 773.626 451.822L773.703 480.036C773.705 480.714 773.368 481.334 772.832 481.639L747.938 495.812C747.492 496.065 746.966 496.067 746.519 495.816L721.547 481.774C721.01 481.473 720.671 480.855 720.669 480.179L720.591 451.965C720.589 451.288 720.927 450.667 721.462 450.362L746.357 436.19ZM747.074 439.787L723.762 453.059L723.833 479.064L747.22 492.214L770.532 478.942L770.461 452.937L747.074 439.787Z" fill="white"/>
<path fill-rule="evenodd" clip-rule="evenodd" d="M486.512 428.956C486.958 428.702 487.484 428.7 487.931 428.952L512.903 442.993C513.44 443.295 513.779 443.912 513.781 444.589L513.859 472.802C513.86 473.48 513.523 474.1 512.988 474.405L488.093 488.578C487.647 488.831 487.121 488.833 486.674 488.582L461.702 474.54C461.166 474.239 460.826 473.621 460.824 472.945L460.747 444.731C460.745 444.054 461.082 443.433 461.618 443.128L486.512 428.956ZM487.23 432.553L463.918 445.825L463.989 471.83L487.376 484.98L510.688 471.708L510.617 445.703L487.23 432.553Z" fill="white"/>
<path fill-rule="evenodd" clip-rule="evenodd" d="M998.654 197.24C999.1 196.986 999.626 196.985 1000.07 197.236L1025.04 211.277C1025.58 211.579 1025.92 212.196 1025.92 212.873L1026 241.087C1026 241.764 1025.66 242.384 1025.13 242.689L1000.23 256.862C999.789 257.116 999.263 257.117 998.816 256.866L973.844 242.825C973.307 242.523 972.968 241.906 972.966 241.229L972.888 213.015C972.887 212.338 973.224 211.718 973.759 211.413L998.654 197.24ZM999.371 200.837L976.059 214.109L976.13 240.115L999.517 253.265L1022.83 239.993L1022.76 213.987L999.371 200.837Z" fill="white"/>
<path fill-rule="evenodd" clip-rule="evenodd" d="M500.721 267.906C501.167 267.652 501.693 267.651 502.14 267.902L527.112 281.944C527.648 282.245 527.988 282.863 527.99 283.539L528.067 311.753C528.069 312.43 527.732 313.051 527.197 313.356L502.302 327.528C501.856 327.782 501.33 327.784 500.883 327.532L475.911 313.491C475.375 313.189 475.035 312.572 475.033 311.896L474.956 283.682C474.954 283.004 475.291 282.384 475.827 282.079L500.721 267.906ZM501.439 271.504L478.126 284.776L478.198 310.781L501.585 323.931L524.897 310.659L524.826 284.654L501.439 271.504Z" fill="white"/>
<path d="M394.947 363.408L370.053 377.58L345.081 363.539L345.003 335.325L369.898 321.152L394.87 335.194L394.947 363.408Z" fill="white"/>
<path fill-rule="evenodd" clip-rule="evenodd" d="M369.185 319.555C369.631 319.302 370.157 319.3 370.604 319.551L395.576 333.593C396.112 333.894 396.452 334.512 396.454 335.188L396.531 363.402C396.533 364.079 396.196 364.7 395.66 365.005L370.766 379.177C370.32 379.431 369.794 379.433 369.347 379.181L344.375 365.14C343.839 364.839 343.499 364.221 343.497 363.545L343.42 335.331C343.418 334.653 343.755 334.033 344.29 333.728L369.185 319.555ZM369.902 323.153L346.59 336.425L346.661 362.43L370.048 375.58L393.361 362.308L393.289 336.303L369.902 323.153Z" fill="white"/>
<path fill-rule="evenodd" clip-rule="evenodd" d="M561.18 198.388C561.626 198.134 562.152 198.132 562.599 198.384L587.571 212.425C588.107 212.726 588.447 213.344 588.449 214.02L588.526 242.234C588.528 242.911 588.191 243.532 587.655 243.837L562.761 258.009C562.315 258.263 561.789 258.265 561.342 258.013L536.37 243.972C535.833 243.671 535.494 243.053 535.492 242.377L535.414 214.163C535.412 213.486 535.75 212.865 536.285 212.56L561.18 198.388ZM561.897 201.985L538.585 215.257L538.656 241.262L562.043 254.412L585.355 241.14L585.284 215.135L561.897 201.985Z" fill="white"/>
<path d="M360.576 430.138L335.682 444.31L310.71 430.269L310.632 402.055L335.527 387.882L360.499 401.924L360.576 430.138Z" fill="white"/>
<path fill-rule="evenodd" clip-rule="evenodd" d="M334.814 386.285C335.26 386.031 335.786 386.03 336.233 386.281L361.205 400.323C361.741 400.624 362.081 401.242 362.082 401.918L362.16 430.132C362.162 430.809 361.825 431.43 361.289 431.734L336.395 445.907C335.949 446.161 335.423 446.163 334.976 445.911L310.004 431.87C309.467 431.568 309.128 430.951 309.126 430.275L309.048 402.061C309.046 401.383 309.384 400.763 309.919 400.458L334.814 386.285ZM335.531 389.883L312.219 403.155L312.29 429.16L335.677 442.31L358.989 429.038L358.918 403.033L335.531 389.883Z" fill="white"/>
<path fill-rule="evenodd" clip-rule="evenodd" d="M688.89 436.19C689.336 435.936 689.862 435.934 690.309 436.186L715.281 450.227C715.817 450.529 716.157 451.146 716.159 451.822L716.236 480.036C716.238 480.714 715.901 481.334 715.365 481.639L690.471 495.812C690.025 496.065 689.499 496.067 689.052 495.816L664.08 481.774C663.543 481.473 663.204 480.855 663.202 480.179L663.124 451.965C663.122 451.288 663.46 450.667 663.995 450.362L688.89 436.19ZM689.607 439.787L666.295 453.059L666.366 479.064L689.753 492.214L713.065 478.942L712.994 452.937L689.607 439.787Z" fill="white"/>
<path fill-rule="evenodd" clip-rule="evenodd" d="M695.7 260.618C696.146 260.364 696.672 260.362 697.119 260.614L722.091 274.655C722.627 274.957 722.967 275.574 722.969 276.251L723.046 304.464C723.048 305.142 722.711 305.762 722.175 306.067L697.28 320.24C696.835 320.494 696.309 320.495 695.862 320.244L670.89 306.202C670.353 305.901 670.014 305.283 670.012 304.607L669.934 276.393C669.932 275.716 670.27 275.095 670.805 274.79L695.7 260.618ZM696.417 264.215L673.105 277.487L673.176 303.492L696.563 316.642L719.875 303.37L719.804 277.365L696.417 264.215Z" fill="white"/>
<path d="M663.995 344.723L639.1 358.896L614.128 344.854L614.051 316.64L638.946 302.468L663.918 316.509L663.995 344.723Z" fill="white"/>
<path fill-rule="evenodd" clip-rule="evenodd" d="M638.233 300.871C638.679 300.617 639.205 300.615 639.652 300.867L664.624 314.908C665.16 315.21 665.5 315.827 665.501 316.503L665.579 344.717C665.581 345.395 665.244 346.015 664.708 346.32L639.813 360.493C639.367 360.746 638.842 360.748 638.395 360.497L613.422 346.455C612.886 346.154 612.547 345.536 612.545 344.86L612.467 316.646C612.465 315.969 612.802 315.348 613.338 315.043L638.233 300.871ZM638.95 304.468L615.638 317.74L615.709 343.745L639.096 356.895L662.408 343.623L662.337 317.618L638.95 304.468Z" fill="white"/>
<path d="M829.586 499.977L804.691 514.149L779.719 500.108L779.642 471.894L804.537 457.721L829.509 471.763L829.586 499.977Z" fill="white"/>
<path fill-rule="evenodd" clip-rule="evenodd" d="M803.824 456.124C804.27 455.87 804.795 455.869 805.242 456.12L830.215 470.162C830.751 470.463 831.091 471.081 831.092 471.757L831.17 499.971C831.172 500.648 830.835 501.269 830.299 501.573L805.404 515.746C804.958 516 804.433 516.002 803.985 515.75L779.013 501.709C778.477 501.407 778.137 500.79 778.136 500.114L778.058 471.9C778.056 471.222 778.393 470.602 778.929 470.297L803.824 456.124ZM804.541 459.722L781.229 472.994L781.3 498.999L804.687 512.149L827.999 498.877L827.928 472.872L804.541 459.722Z" fill="white"/>
<path fill-rule="evenodd" clip-rule="evenodd" d="M374.706 451.458C375.152 451.204 375.678 451.203 376.125 451.454L401.097 465.495C401.633 465.797 401.973 466.414 401.975 467.091L402.052 495.305C402.054 495.982 401.717 496.602 401.181 496.907L376.287 511.08C375.841 511.334 375.315 511.335 374.868 511.084L349.896 497.042C349.359 496.741 349.02 496.124 349.018 495.447L348.94 467.233C348.939 466.556 349.276 465.935 349.811 465.631L374.706 451.458ZM375.423 455.055L352.111 468.327L352.182 494.332L375.569 507.482L398.882 494.211L398.81 468.205L375.423 455.055Z" fill="white"/>
<path fill-rule="evenodd" clip-rule="evenodd" d="M337.663 257.731C338.109 257.477 338.635 257.475 339.082 257.727L364.054 271.768C364.59 272.07 364.93 272.687 364.932 273.364L365.009 301.578C365.011 302.255 364.674 302.875 364.139 303.18L339.244 317.353C338.798 317.607 338.272 317.608 337.825 317.357L312.853 303.315C312.317 303.014 311.977 302.396 311.975 301.72L311.898 273.506C311.896 272.829 312.233 272.208 312.769 271.904L337.663 257.731ZM338.381 261.328L315.068 274.6L315.14 300.605L338.527 313.755L361.839 300.484L361.767 274.478L338.381 261.328Z" fill="white"/>
<path fill-rule="evenodd" clip-rule="evenodd" d="M607.088 409.781C607.534 409.527 608.06 409.526 608.507 409.777L633.479 423.818C634.015 424.12 634.355 424.737 634.357 425.414L634.434 453.628C634.436 454.305 634.099 454.925 633.563 455.23L608.669 469.403C608.223 469.657 607.697 469.658 607.25 469.407L582.278 455.366C581.741 455.064 581.402 454.447 581.4 453.77L581.322 425.556C581.32 424.879 581.658 424.259 582.193 423.954L607.088 409.781ZM607.805 413.379L584.493 426.65L584.564 452.656L607.951 465.806L631.263 452.534L631.192 426.529L607.805 413.379Z" fill="white"/>
<path fill-rule="evenodd" clip-rule="evenodd" d="M580.766 287.664C581.212 287.41 581.738 287.409 582.185 287.66L607.157 301.702C607.693 302.003 608.033 302.621 608.035 303.297L608.112 331.511C608.114 332.188 607.777 332.809 607.241 333.113L582.347 347.286C581.901 347.54 581.375 347.542 580.928 347.29L555.956 333.249C555.419 332.947 555.08 332.33 555.078 331.653L555 303.44C554.999 302.762 555.336 302.142 555.871 301.837L580.766 287.664ZM581.483 291.262L558.171 304.534L558.242 330.539L581.629 343.689L604.941 330.417L604.87 304.412L581.483 291.262Z" fill="white"/>
<path fill-rule="evenodd" clip-rule="evenodd" d="M617.758 144.274C618.204 144.02 618.729 144.018 619.177 144.27L644.149 158.311C644.685 158.612 645.025 159.23 645.026 159.906L645.104 188.12C645.106 188.797 644.769 189.418 644.233 189.723L619.338 203.895C618.892 204.149 618.367 204.151 617.919 203.899L592.947 189.858C592.411 189.557 592.071 188.939 592.07 188.263L591.992 160.049C591.99 159.371 592.327 158.751 592.863 158.446L617.758 144.274ZM618.475 147.871L595.163 161.143L595.234 187.148L618.621 200.298L641.933 187.026L641.862 161.021L618.475 147.871Z" fill="white"/>
<path d="M552.03 151.007L527.135 165.179L502.163 151.138L502.086 122.924L526.981 108.751L551.953 122.793L552.03 151.007Z" fill="white"/>
<path fill-rule="evenodd" clip-rule="evenodd" d="M526.268 107.154C526.714 106.901 527.24 106.899 527.687 107.15L552.659 121.192C553.195 121.493 553.535 122.111 553.536 122.787L553.614 151.001C553.616 151.678 553.279 152.299 552.743 152.604L527.848 166.776C527.402 167.03 526.877 167.032 526.43 166.78L501.457 152.739C500.921 152.438 500.582 151.82 500.58 151.144L500.502 122.93C500.5 122.252 500.837 121.632 501.373 121.327L526.268 107.154ZM526.985 110.752L503.673 124.024L503.744 150.029L527.131 163.179L550.443 149.907L550.372 123.902L526.985 110.752Z" fill="white"/>
<path fill-rule="evenodd" clip-rule="evenodd" d="M642.516 514.577C642.962 514.323 643.488 514.322 643.935 514.573L668.907 528.614C669.443 528.916 669.783 529.533 669.785 530.21L669.862 558.424C669.864 559.101 669.527 559.721 668.991 560.026L644.097 574.199C643.651 574.453 643.125 574.454 642.678 574.203L617.706 560.161C617.17 559.86 616.83 559.243 616.828 558.566L616.751 530.352C616.749 529.675 617.086 529.054 617.621 528.75L642.516 514.577ZM643.233 518.174L619.921 531.446L619.993 557.451L643.379 570.601L666.692 557.33L666.62 531.324L643.233 518.174Z" fill="white"/>
<path fill-rule="evenodd" clip-rule="evenodd" d="M379.613 578.985C380.059 578.732 380.585 578.73 381.032 578.982L406.004 593.023C406.54 593.324 406.88 593.942 406.882 594.618L406.959 622.832C406.961 623.509 406.624 624.13 406.089 624.435L381.194 638.607C380.748 638.861 380.222 638.863 379.775 638.611L354.803 624.57C354.267 624.269 353.927 623.651 353.925 622.975L353.848 594.761C353.846 594.083 354.183 593.463 354.719 593.158L379.613 578.985ZM380.331 582.583L357.018 595.855L357.09 621.86L380.477 635.01L403.789 621.738L403.717 595.733L380.331 582.583Z" fill="white"/>
<path fill-rule="evenodd" clip-rule="evenodd" d="M437.08 578.985C437.526 578.732 438.052 578.73 438.499 578.982L463.471 593.023C464.007 593.324 464.347 593.942 464.349 594.618L464.426 622.832C464.428 623.509 464.091 624.13 463.555 624.435L438.661 638.607C438.215 638.861 437.689 638.863 437.242 638.611L412.27 624.57C411.734 624.269 411.394 623.651 411.392 622.975L411.315 594.761C411.313 594.083 411.65 593.463 412.185 593.158L437.08 578.985ZM437.797 582.583L414.485 595.855L414.557 621.86L437.943 635.01L461.256 621.738L461.184 595.733L437.797 582.583Z" fill="white"/>
<path fill-rule="evenodd" clip-rule="evenodd" d="M609.481 578.985C609.927 578.732 610.453 578.73 610.9 578.982L635.872 593.023C636.408 593.324 636.748 593.942 636.75 594.618L636.827 622.832C636.829 623.509 636.492 624.13 635.956 624.435L611.062 638.607C610.616 638.861 610.09 638.863 609.643 638.611L584.671 624.57C584.134 624.269 583.795 623.651 583.793 622.975L583.715 594.761C583.713 594.083 584.051 593.463 584.586 593.158L609.481 578.985ZM610.198 582.583L586.886 595.855L586.957 621.86L610.344 635.01L633.656 621.738L633.585 595.733L610.198 582.583Z" fill="white"/>
<path fill-rule="evenodd" clip-rule="evenodd" d="M347.373 514.708C347.819 514.454 348.345 514.453 348.792 514.704L373.764 528.746C374.3 529.047 374.64 529.665 374.642 530.341L374.719 558.555C374.721 559.232 374.384 559.853 373.848 560.157L348.954 574.33C348.508 574.584 347.982 574.586 347.535 574.334L322.563 560.293C322.026 559.991 321.687 559.374 321.685 558.698L321.607 530.484C321.606 529.806 321.943 529.186 322.478 528.881L347.373 514.708ZM348.09 518.306L324.778 531.578L324.849 557.583L348.236 570.733L371.549 557.461L371.477 531.456L348.09 518.306Z" fill="white"/>
<path fill-rule="evenodd" clip-rule="evenodd" d="M412.031 514.708C412.477 514.454 413.003 514.453 413.45 514.704L438.422 528.746C438.958 529.047 439.298 529.665 439.299 530.341L439.377 558.555C439.379 559.232 439.042 559.853 438.506 560.157L413.611 574.33C413.165 574.584 412.64 574.586 412.193 574.334L387.22 560.293C386.684 559.991 386.344 559.374 386.343 558.698L386.265 530.484C386.263 529.806 386.6 529.186 387.136 528.881L412.031 514.708ZM412.748 518.306L389.436 531.578L389.507 557.583L412.894 570.733L436.206 557.461L436.135 531.456L412.748 518.306Z" fill="white"/>
<path fill-rule="evenodd" clip-rule="evenodd" d="M473.197 514.577C473.643 514.323 474.169 514.322 474.616 514.573L499.588 528.614C500.124 528.916 500.464 529.533 500.466 530.21L500.543 558.424C500.545 559.101 500.208 559.721 499.673 560.026L474.778 574.199C474.332 574.453 473.806 574.454 473.359 574.203L448.387 560.161C447.851 559.86 447.511 559.243 447.509 558.566L447.432 530.352C447.43 529.675 447.767 529.054 448.302 528.75L473.197 514.577ZM473.914 518.174L450.602 531.446L450.674 557.451L474.061 570.601L497.373 557.33L497.301 531.324L473.914 518.174Z" fill="white"/>
<path d="M610.194 558.56L585.299 572.733L560.327 558.692L560.25 530.478L585.144 516.305L610.116 530.347L610.194 558.56Z" fill="white"/>
<path fill-rule="evenodd" clip-rule="evenodd" d="M584.431 514.708C584.877 514.454 585.403 514.453 585.85 514.704L610.822 528.746C611.359 529.047 611.698 529.665 611.7 530.341L611.777 558.555C611.779 559.232 611.442 559.853 610.907 560.157L586.012 574.33C585.566 574.584 585.04 574.586 584.593 574.334L559.621 560.293C559.085 559.991 558.745 559.374 558.743 558.698L558.666 530.484C558.664 529.806 559.001 529.186 559.537 528.881L584.431 514.708ZM585.149 518.306L561.836 531.578L561.908 557.583L585.295 570.733L608.607 557.461L608.536 531.456L585.149 518.306Z" fill="white"/>
<path d="M372.439 172.897L347.544 187.07L322.572 173.029L322.494 144.815L347.389 130.642L372.361 144.683L372.439 172.897Z" fill="white"/>
<path fill-rule="evenodd" clip-rule="evenodd" d="M346.676 129.045C347.122 128.791 347.648 128.79 348.095 129.041L373.067 143.082C373.603 143.384 373.943 144.001 373.945 144.678L374.022 172.892C374.024 173.569 373.687 174.189 373.152 174.494L348.257 188.667C347.811 188.921 347.285 188.922 346.838 188.671L321.866 174.63C321.33 174.328 320.99 173.711 320.988 173.034L320.911 144.82C320.909 144.143 321.246 143.523 321.781 143.218L346.676 129.045ZM347.393 132.642L324.081 145.914L324.153 171.92L347.54 185.07L370.852 171.798L370.78 145.792L347.393 132.642Z" fill="white"/>
<path d="M404.447 108.62L379.552 122.793L354.58 108.751L354.503 80.5375L379.397 66.3648L404.369 80.4061L404.447 108.62Z" fill="white"/>
<path fill-rule="evenodd" clip-rule="evenodd" d="M378.684 64.7678C379.13 64.5139 379.656 64.5125 380.103 64.7638L405.075 78.8051C405.611 79.1066 405.951 79.724 405.953 80.4005L406.03 108.614C406.032 109.292 405.695 109.912 405.16 110.217L380.265 124.39C379.819 124.644 379.293 124.645 378.846 124.394L353.874 110.352C353.338 110.051 352.998 109.433 352.996 108.757L352.919 80.543C352.917 79.8657 353.254 79.2454 353.79 78.9405L378.684 64.7678ZM379.402 68.3652L356.089 81.637L356.161 107.642L379.548 120.792L402.86 107.52L402.788 81.5152L379.402 68.3652Z" fill="white"/>
<path fill-rule="evenodd" clip-rule="evenodd" d="M436.151 64.7678C436.597 64.5139 437.123 64.5125 437.57 64.7638L462.542 78.8051C463.078 79.1066 463.418 79.724 463.42 80.4005L463.497 108.614C463.499 109.292 463.162 109.912 462.626 110.217L437.732 124.39C437.286 124.644 436.76 124.645 436.313 124.394L411.341 110.352C410.805 110.051 410.465 109.433 410.463 108.757L410.386 80.543C410.384 79.8657 410.721 79.2454 411.256 78.9405L436.151 64.7678ZM436.868 68.3652L413.556 81.637L413.628 107.642L437.014 120.792L460.327 107.52L460.255 81.5152L436.868 68.3652Z" fill="white"/>
<path fill-rule="evenodd" clip-rule="evenodd" d="M407.301 0.490593C407.747 0.236702 408.273 0.235229 408.72 0.48661L433.692 14.5279C434.229 14.8294 434.568 15.4468 434.57 16.1233L434.648 44.3373C434.65 45.0145 434.312 45.6349 433.777 45.9398L408.882 60.1125C408.436 60.3664 407.91 60.3678 407.463 60.1164L382.491 46.0752C381.955 45.7737 381.615 45.1562 381.613 44.4798L381.536 16.2658C381.534 15.5885 381.871 14.9682 382.407 14.6633L407.301 0.490593ZM408.019 4.08797L384.707 17.3598L384.778 43.3651L408.165 56.5151L431.477 43.2433L431.406 17.2379L408.019 4.08797Z" fill="white"/>
<path d="M494.64 52.4671L469.745 66.6398L444.773 52.5985L444.696 24.3845L469.59 10.2119L494.562 24.2531L494.64 52.4671Z" fill="white"/>
<path fill-rule="evenodd" clip-rule="evenodd" d="M468.877 8.61488C469.323 8.36099 469.849 8.35951 470.296 8.61089L495.268 22.6522C495.805 22.9537 496.144 23.5711 496.146 24.2476L496.224 52.4615C496.225 53.1388 495.888 53.7592 495.353 54.0641L470.458 68.2368C470.012 68.4906 469.486 68.4921 469.039 68.2407L444.067 54.1995C443.531 53.8979 443.191 53.2805 443.189 52.604L443.112 24.3901C443.11 23.7128 443.447 23.0925 443.983 22.7876L468.877 8.61488ZM469.595 12.2123L446.283 25.4841L446.354 51.4894L469.741 64.6394L493.053 51.3676L492.982 25.3622L469.595 12.2123Z" fill="white"/>
<path d="M605.465 44.3428L580.57 58.5155L555.598 44.4742L555.521 16.2603L580.415 2.08759L605.387 16.1289L605.465 44.3428Z" fill="white"/>
<path fill-rule="evenodd" clip-rule="evenodd" d="M579.702 0.490593C580.148 0.236702 580.674 0.235229 581.121 0.48661L606.093 14.5279C606.629 14.8294 606.969 15.4468 606.971 16.1233L607.048 44.3373C607.05 45.0145 606.713 45.6349 606.178 45.9398L581.283 60.1125C580.837 60.3664 580.311 60.3678 579.864 60.1164L554.892 46.0752C554.356 45.7737 554.016 45.1562 554.014 44.4798L553.937 16.2658C553.935 15.5885 554.272 14.9682 554.807 14.6633L579.702 0.490593ZM580.42 4.08797L557.107 17.3598L557.179 43.3651L580.566 56.5151L603.878 43.2433L603.806 17.2379L580.42 4.08797Z" fill="white"/>
<path fill-rule="evenodd" clip-rule="evenodd" d="M314.338 568.671C314.784 568.417 315.31 568.416 315.757 568.667L340.729 582.709C341.265 583.01 341.605 583.628 341.607 584.304L341.684 612.518C341.686 613.195 341.349 613.816 340.813 614.121L315.919 628.293C315.473 628.547 314.947 628.549 314.5 628.297L289.528 614.256C288.991 613.954 288.652 613.337 288.65 612.661L288.572 584.447C288.57 583.769 288.908 583.149 289.443 582.844L314.338 568.671ZM315.055 572.269L291.743 585.541L291.814 611.546L315.201 624.696L338.513 611.424L338.442 585.419L315.055 572.269Z" fill="white"/>
<path fill-rule="evenodd" clip-rule="evenodd" d="M51.4351 633.08C51.8811 632.826 52.4069 632.825 52.854 633.076L77.8261 647.117C78.3623 647.419 78.702 648.036 78.7039 648.713L78.7813 676.927C78.7832 677.604 78.4461 678.224 77.9105 678.529L53.0159 692.702C52.5699 692.956 52.0441 692.957 51.597 692.706L26.6249 678.665C26.0887 678.363 25.749 677.746 25.7471 677.069L25.6697 648.855C25.6678 648.178 26.0049 647.558 26.5405 647.253L51.4351 633.08ZM52.1525 636.677L28.8403 649.949L28.9116 675.954L52.2985 689.104L75.6107 675.833L75.5394 649.827L52.1525 636.677Z" fill="white"/>
<path fill-rule="evenodd" clip-rule="evenodd" d="M108.902 633.08C109.348 632.826 109.874 632.825 110.321 633.076L135.293 647.117C135.829 647.419 136.169 648.036 136.171 648.713L136.248 676.927C136.25 677.604 135.913 678.224 135.377 678.529L110.483 692.702C110.037 692.956 109.511 692.957 109.064 692.706L84.0918 678.665C83.5556 678.363 83.2158 677.746 83.214 677.069L83.1366 648.855C83.1347 648.178 83.4718 647.558 84.0074 647.253L108.902 633.08ZM109.619 636.677L86.3072 649.949L86.3785 675.954L109.765 689.104L133.078 675.833L133.006 649.827L109.619 636.677Z" fill="white"/>
<path d="M192.131 676.932L167.237 691.105L142.265 677.064L142.187 648.85L167.082 634.677L192.054 648.718L192.131 676.932Z" fill="white"/>
<path fill-rule="evenodd" clip-rule="evenodd" d="M166.369 633.08C166.815 632.826 167.341 632.825 167.788 633.076L192.76 647.117C193.296 647.419 193.636 648.036 193.638 648.713L193.715 676.927C193.717 677.604 193.38 678.224 192.844 678.529L167.95 692.702C167.504 692.956 166.978 692.957 166.531 692.706L141.559 678.665C141.022 678.363 140.683 677.746 140.681 677.069L140.603 648.855C140.602 648.178 140.939 647.558 141.474 647.253L166.369 633.08ZM167.086 636.677L143.774 649.949L143.845 675.954L167.232 689.104L190.545 675.833L190.473 649.827L167.086 636.677Z" fill="white"/>
<path fill-rule="evenodd" clip-rule="evenodd" d="M223.836 633.08C224.282 632.826 224.808 632.825 225.255 633.076L250.227 647.117C250.763 647.419 251.103 648.036 251.105 648.713L251.182 676.927C251.184 677.604 250.847 678.224 250.311 678.529L225.417 692.702C224.971 692.956 224.445 692.957 223.998 692.706L199.026 678.665C198.489 678.363 198.15 677.746 198.148 677.069L198.07 648.855C198.068 648.178 198.406 647.558 198.941 647.253L223.836 633.08ZM224.553 636.677L201.241 649.949L201.312 675.954L224.699 689.104L248.011 675.833L247.94 649.827L224.553 636.677Z" fill="white"/>
<path fill-rule="evenodd" clip-rule="evenodd" d="M281.303 633.08C281.749 632.826 282.275 632.825 282.722 633.076L307.694 647.117C308.23 647.419 308.57 648.036 308.571 648.713L308.649 676.927C308.651 677.604 308.314 678.224 307.778 678.529L282.883 692.702C282.438 692.956 281.912 692.957 281.465 692.706L256.492 678.665C255.956 678.363 255.617 677.746 255.615 677.069L255.537 648.855C255.535 648.178 255.872 647.558 256.408 647.253L281.303 633.08ZM282.02 636.677L258.708 649.949L258.779 675.954L282.166 689.104L305.478 675.833L305.407 649.827L282.02 636.677Z" fill="white"/>
<path fill-rule="evenodd" clip-rule="evenodd" d="M26.3856 568.803C26.8315 568.549 27.3574 568.547 27.8045 568.799L52.7765 582.84C53.3128 583.142 53.6525 583.759 53.6544 584.436L53.7318 612.65C53.7337 613.327 53.3966 613.947 52.861 614.252L27.9664 628.425C27.5204 628.679 26.9945 628.68 26.5475 628.429L1.57541 614.387C1.03914 614.086 0.69943 613.469 0.697573 612.792L0.620155 584.578C0.618297 583.901 0.95539 583.28 1.49095 582.976L26.3856 568.803ZM27.103 572.4L3.79073 585.672L3.86209 611.677L27.249 624.827L50.5612 611.556L50.4898 585.55L27.103 572.4Z" fill="white"/>
<path fill-rule="evenodd" clip-rule="evenodd" d="M83.8526 568.803C84.2985 568.549 84.8244 568.547 85.2715 568.799L110.244 582.84C110.78 583.142 111.119 583.759 111.121 584.436L111.199 612.65C111.201 613.327 110.864 613.947 110.328 614.252L85.4333 628.425C84.9874 628.679 84.4615 628.68 84.0144 628.429L59.0424 614.387C58.5061 614.086 58.1664 613.469 58.1646 612.792L58.0871 584.578C58.0853 583.901 58.4224 583.28 58.9579 582.976L83.8526 568.803ZM84.5699 572.4L61.2577 585.672L61.3291 611.677L84.716 624.827L108.028 611.556L107.957 585.55L84.5699 572.4Z" fill="white"/>
<path fill-rule="evenodd" clip-rule="evenodd" d="M141.319 568.803C141.765 568.549 142.291 568.547 142.738 568.799L167.71 582.84C168.247 583.142 168.586 583.759 168.588 584.436L168.666 612.65C168.668 613.327 168.33 613.947 167.795 614.252L142.9 628.425C142.454 628.679 141.928 628.68 141.481 628.429L116.509 614.387C115.973 614.086 115.633 613.469 115.631 612.792L115.554 584.578C115.552 583.901 115.889 583.28 116.425 582.976L141.319 568.803ZM142.037 572.4L118.725 585.672L118.796 611.677L142.183 624.827L165.495 611.556L165.424 585.55L142.037 572.4Z" fill="white"/>
<path d="M224.549 612.655L199.654 626.828L174.682 612.786L174.605 584.573L199.499 570.4L224.471 584.441L224.549 612.655Z" fill="white"/>
<path fill-rule="evenodd" clip-rule="evenodd" d="M198.786 568.803C199.232 568.549 199.758 568.547 200.205 568.799L225.177 582.84C225.714 583.142 226.053 583.759 226.055 584.436L226.133 612.65C226.134 613.327 225.797 613.947 225.262 614.252L200.367 628.425C199.921 628.679 199.395 628.68 198.948 628.429L173.976 614.387C173.44 614.086 173.1 613.469 173.098 612.792L173.021 584.578C173.019 583.901 173.356 583.28 173.892 582.976L198.786 568.803ZM199.504 572.4L176.191 585.672L176.263 611.677L199.65 624.827L222.962 611.556L222.891 585.55L199.504 572.4Z" fill="white"/>
<path d="M282.016 612.655L257.121 626.828L232.149 612.786L232.072 584.573L256.966 570.4L281.938 584.441L282.016 612.655Z" fill="white"/>
<path fill-rule="evenodd" clip-rule="evenodd" d="M256.253 568.803C256.699 568.549 257.225 568.547 257.672 568.799L282.644 582.84C283.18 583.142 283.52 583.759 283.522 584.436L283.599 612.65C283.601 613.327 283.264 613.947 282.729 614.252L257.834 628.425C257.388 628.679 256.862 628.68 256.415 628.429L231.443 614.387C230.907 614.086 230.567 613.469 230.565 612.792L230.488 584.578C230.486 583.901 230.823 583.28 231.359 582.976L256.253 568.803ZM256.971 572.4L233.658 585.672L233.73 611.677L257.117 624.827L280.429 611.556L280.357 585.55L256.971 572.4Z" fill="white"/>
</g>
</g>
<defs>
<clipPath id="clip0_1134_1099">
<rect width="1200" height="628" fill="white"/>
</clipPath>
</defs>
</svg>
