<svg width="666" height="513" viewBox="0 0 666 513" fill="none" xmlns="http://www.w3.org/2000/svg">
<g clip-path="url(#clip0_1335_156291)">
<g clip-path="url(#clip1_1335_156291)">
<g clip-path="url(#clip2_1335_156291)">
<path d="M280.009 40.476L65.9535 40.476C52.9868 40.476 42.4764 50.9769 42.4764 63.9246L42.4764 416.148" stroke="#E5DFF1" stroke-miterlimit="10"/>
<path d="M291.433 59.6215L78.9487 59.6215C68.9333 59.6215 60.8029 67.7423 60.8029 77.7482L60.8029 416.148" stroke="#E5DFF1" stroke-miterlimit="10"/>
<path d="M284.769 78.748L91.9631 78.7476C84.88 78.7476 79.1488 84.4693 79.1488 91.5429L79.1488 416.139" stroke="#E5DFF1" stroke-miterlimit="10"/>
<path d="M280.961 97.8931L104.949 97.8931C100.817 97.8931 97.4659 101.244 97.4659 105.367L97.4659 416.139" stroke="#E5DFF1" stroke-miterlimit="10"/>
</g>
<rect x="68.25" y="153.25" width="47.5" height="47.5" rx="7.75" fill="white"/>
<rect x="68.25" y="153.25" width="47.5" height="47.5" rx="7.75" stroke="#CECECE" stroke-width="0.5"/>
<rect x="81.0522" y="175.931" width="1.4258" height="12.4248" fill="#9174C3"/>
<rect x="78.4548" y="177.255" width="2.69883" height="9.67504" fill="#9174C3"/>
<rect x="77.0291" y="178.63" width="2.69883" height="6.82345" fill="#9174C3"/>
<rect x="82.3247" y="185.555" width="1.4258" height="2.80067" fill="#9174C3"/>
<rect x="87.9263" y="164.321" width="8.14741" height="3.25896" fill="#9174C3"/>
<rect x="86.6023" y="166.154" width="10.7953" height="1.4258" fill="#9174C3"/>
<rect width="1.4258" height="12.4248" transform="matrix(-1 0 0 1 102.744 175.932)" fill="#9174C3"/>
<rect width="2.69883" height="9.67504" transform="matrix(-1 0 0 1 105.341 177.255)" fill="#9174C3"/>
<rect width="2.69883" height="6.82345" transform="matrix(-1 0 0 1 106.767 178.63)" fill="#9174C3"/>
<rect width="1.4258" height="2.80067" transform="matrix(-1 0 0 1 101.471 185.555)" fill="#9174C3"/>
<rect x="83.751" y="186.879" width="16.3457" height="2.80067" fill="#9174C3"/>
<rect x="89.1992" y="180.005" width="1.4258" height="4.12462" fill="#9174C3"/>
<rect x="93.2729" y="180.005" width="1.4258" height="4.12462" fill="#9174C3"/>
<rect x="82.376" y="167.58" width="8.14741" height="1.32395" fill="#9174C3"/>
<rect x="81.001" y="168.802" width="3.00436" height="1.47672" fill="#9174C3"/>
<rect x="80.3645" y="170.177" width="2.13869" height="5.7541" fill="#9174C3"/>
<rect x="82.4778" y="174.429" width="2.13869" height="4.17555" fill="#9174C3"/>
<rect x="82.4778" y="175.829" width="8.09648" height="2.77521" fill="#9174C3"/>
<rect x="89.2246" y="174.454" width="1.34941" height="4.15008" fill="#9174C3"/>
<rect width="8.14741" height="1.32395" transform="matrix(-1 0 0 1 101.471 167.58)" fill="#9174C3"/>
<rect width="3.00436" height="1.47672" transform="matrix(-1 0 0 1 102.846 168.802)" fill="#9174C3"/>
<rect width="2.13869" height="5.7541" transform="matrix(-1 0 0 1 103.483 170.177)" fill="#9174C3"/>
<rect width="2.13869" height="4.17555" transform="matrix(-1 0 0 1 101.369 174.429)" fill="#9174C3"/>
<rect width="8.09648" height="2.77521" transform="matrix(-1 0 0 1 101.369 175.829)" fill="#9174C3"/>
<rect width="1.34941" height="4.15008" transform="matrix(-1 0 0 1 94.6223 174.454)" fill="#9174C3"/>
<rect x="90.5232" y="172.876" width="2.74975" height="4.35377" fill="#9174C3"/>
<rect x="90.5232" y="167.58" width="2.82613" height="2.74975" fill="#9174C3"/>
<rect x="91.3123" y="170.177" width="1.37487" height="2.74975" fill="#9174C3"/>
<rect x="26.25" y="93.25" width="47.5" height="47.5" rx="7.75" fill="white"/>
<rect x="26.25" y="93.25" width="47.5" height="47.5" rx="7.75" stroke="#CECECE" stroke-width="0.5"/>
<path d="M61.3163 111.563H63.9715V117.253H61.3163V128H59.1669V122.184H56.2588V128H54.1094V122.184H45.8909V128H43.7415V122.184H40.8334V128H38.684V117.253H36.0288V111.563H38.684V106H61.3163V111.563Z" fill="#9174C3"/>
<rect x="41.7314" y="111.297" width="2.28103" height="2.28103" fill="white"/>
<rect x="55.4175" y="111.297" width="2.28103" height="2.28103" fill="white"/>
</g>
<g clip-path="url(#clip3_1335_156291)">
<path d="M139.476 265.125L139.476 479.18C139.476 492.147 149.977 502.657 162.925 502.657H515.149" stroke="#E5DFF1" stroke-miterlimit="10"/>
<path d="M158.622 253.701L158.622 466.185C158.622 476.2 166.743 484.331 176.749 484.331H515.149" stroke="#E5DFF1" stroke-miterlimit="10"/>
<path d="M177.748 260.365L177.748 453.171C177.748 460.254 183.47 465.985 190.543 465.985H515.139" stroke="#E5DFF1" stroke-miterlimit="10"/>
<path d="M196.893 264.173L196.893 440.185C196.893 444.317 200.245 447.668 204.367 447.668H515.139" stroke="#E5DFF1" stroke-miterlimit="10"/>
</g>
<rect x="362.77" y="258.483" width="234.205" height="254.199" rx="6.61009" fill="white" stroke="#E5DFF1" stroke-width="0.952055"/>
<path d="M393.33 311.294C395.072 311.294 396.057 311.872 396.057 313.593V317.306C396.057 317.856 396.279 317.999 396.964 317.877V318.705C396.664 318.798 396.386 318.841 396.143 318.841C395.315 318.841 395.036 318.356 395.008 317.784H394.893C394.272 318.291 393.544 318.877 392.287 318.877C390.916 318.877 390.059 318.17 390.059 316.92C390.059 314.9 392.28 314.65 394.943 314.657V313.671C394.943 312.372 394.229 312.115 393.173 312.129C392.18 312.136 391.409 312.386 391.388 313.472L391.38 313.8H390.309V313.414C390.309 312.179 391.173 311.294 393.33 311.294ZM391.223 316.799C391.223 317.592 391.795 318.006 392.751 318.006C393.63 318.006 394.272 317.649 394.943 317.163V315.357C394.672 315.335 394.408 315.321 394.187 315.321C392.359 315.321 391.223 315.685 391.223 316.799ZM405.62 316.535C405.227 318.056 403.971 318.877 402.285 318.877C400.179 318.877 398.68 317.577 398.68 315.064C398.68 312.593 400.143 311.294 402.343 311.294C404.092 311.294 405.42 312.108 405.627 313.829L404.506 313.921C404.328 312.715 403.442 312.243 402.321 312.243C400.7 312.243 399.843 313.243 399.843 315.064C399.843 316.999 400.8 317.927 402.293 317.927C403.399 317.927 404.213 317.413 404.542 316.335L405.62 316.535ZM411.42 318.705H410.363V312.965C410.363 312.4 410.034 312.258 409.735 312.258C409.285 312.258 408.949 312.572 408.706 312.965V318.705H407.642V311.465H408.514L408.621 312.336H408.699C409.013 311.701 409.542 311.308 410.234 311.308C410.884 311.308 411.334 311.644 411.413 312.336H411.477C411.784 311.701 412.291 311.308 412.969 311.308C413.669 311.308 414.14 311.715 414.14 312.543V318.705H413.083V312.965C413.083 312.4 412.755 312.258 412.448 312.258C411.998 312.258 411.663 312.579 411.42 312.972V318.705ZM416.106 315.085C416.106 312.665 417.534 311.294 419.769 311.294C421.796 311.294 422.996 312.365 422.996 314.443V315.057H417.262V315.085C417.262 316.985 418.191 317.927 419.733 317.927C420.754 317.927 421.504 317.513 421.882 316.62L422.96 316.82C422.489 318.091 421.389 318.877 419.733 318.877C417.562 318.877 416.106 317.549 416.106 315.085ZM417.334 314.25H421.904C421.889 312.85 420.961 312.243 419.726 312.243C418.412 312.243 417.576 312.957 417.334 314.25ZM426.032 314.55V313.571H430.602V314.55H426.032ZM436.895 311.294C438.637 311.294 439.622 311.872 439.622 313.593V317.306C439.622 317.856 439.844 317.999 440.529 317.877V318.705C440.229 318.798 439.951 318.841 439.708 318.841C438.88 318.841 438.601 318.356 438.573 317.784H438.458C437.837 318.291 437.109 318.877 435.852 318.877C434.481 318.877 433.624 318.17 433.624 316.92C433.624 314.9 435.845 314.65 438.508 314.657V313.671C438.508 312.372 437.794 312.115 436.738 312.129C435.745 312.136 434.974 312.386 434.952 313.472L434.945 313.8H433.874V313.414C433.874 312.179 434.738 311.294 436.895 311.294ZM434.788 316.799C434.788 317.592 435.359 318.006 436.316 318.006C437.194 318.006 437.837 317.649 438.508 317.163V315.357C438.237 315.335 437.973 315.321 437.751 315.321C435.923 315.321 434.788 315.685 434.788 316.799ZM449.242 315.078C449.242 317.492 448.1 318.877 446.3 318.877C445.222 318.877 444.494 318.384 443.98 317.72H443.894V321.512H442.773V311.465H443.708L443.808 312.45H443.972C444.537 311.779 445.293 311.294 446.357 311.294C448.178 311.294 449.242 312.729 449.242 315.078ZM443.894 316.899C444.551 317.656 445.201 317.913 445.915 317.913C447.278 317.913 448.085 316.97 448.085 315.078C448.085 313.236 447.328 312.265 445.936 312.265C445.229 312.265 444.579 312.529 443.894 313.286V316.899ZM457.955 315.078C457.955 317.492 456.813 318.877 455.013 318.877C453.935 318.877 453.207 318.384 452.693 317.72H452.607V321.512H451.486V311.465H452.421L452.521 312.45H452.685C453.249 311.779 454.006 311.294 455.07 311.294C456.891 311.294 457.955 312.729 457.955 315.078ZM452.607 316.899C453.264 317.656 453.914 317.913 454.628 317.913C455.991 317.913 456.798 316.97 456.798 315.078C456.798 313.236 456.041 312.265 454.649 312.265C453.942 312.265 453.292 312.529 452.607 313.286V316.899ZM461.07 320.134H459.856L464.983 308.28H466.19L461.07 320.134ZM475.381 315.078C475.381 317.492 474.238 318.877 472.439 318.877C471.361 318.877 470.633 318.384 470.118 317.72H470.033V321.512H468.912V311.465H469.847L469.947 312.45H470.111C470.675 311.779 471.432 311.294 472.496 311.294C474.317 311.294 475.381 312.729 475.381 315.078ZM470.033 316.899C470.69 317.656 471.339 317.913 472.054 317.913C473.417 317.913 474.224 316.97 474.224 315.078C474.224 313.236 473.467 312.265 472.075 312.265C471.368 312.265 470.718 312.529 470.033 313.286V316.899ZM480.181 311.465L480.295 312.486H480.452C481.252 311.722 482.002 311.301 483.308 311.301C483.566 311.301 483.787 311.315 484.001 311.351V312.386C482.316 312.386 481.495 312.508 480.374 313.35V317.806H483.08V318.705H477.225V317.806H479.253V312.365H477.225V311.465H480.181ZM492.807 315.092C492.807 317.584 491.25 318.877 489.308 318.877C487.373 318.877 485.809 317.584 485.809 315.092C485.809 312.6 487.373 311.294 489.308 311.294C491.25 311.294 492.807 312.6 492.807 315.092ZM491.65 315.092C491.65 313.2 490.693 312.243 489.308 312.243C487.923 312.243 486.966 313.2 486.966 315.092C486.966 316.985 487.923 317.927 489.308 317.927C490.693 317.927 491.65 316.985 491.65 315.092ZM494.522 315.1C494.522 312.679 495.665 311.301 497.464 311.301C498.542 311.301 499.271 311.786 499.785 312.45H499.87V307.781H500.991V318.705H500.056L499.949 317.72H499.792C499.228 318.391 498.471 318.877 497.407 318.877C495.593 318.877 494.522 317.442 494.522 315.1ZM495.686 315.1C495.686 316.935 496.436 317.913 497.828 317.913C498.542 317.913 499.192 317.649 499.87 316.885V313.279C499.214 312.522 498.564 312.258 497.85 312.258C496.486 312.258 495.686 313.2 495.686 315.1Z" fill="black" fill-opacity="0.7"/>
<path d="M388.351 294.952V283.874H392.3C393.162 283.874 393.876 284.03 394.442 284.344C395.009 284.658 395.432 285.087 395.714 285.632C395.995 286.173 396.136 286.782 396.136 287.46C396.136 288.142 395.993 288.755 395.708 289.299C395.427 289.84 395.001 290.269 394.432 290.587C393.865 290.9 393.153 291.057 392.295 291.057H389.579V289.64H392.143C392.688 289.64 393.13 289.546 393.469 289.359C393.808 289.168 394.057 288.908 394.215 288.58C394.374 288.252 394.453 287.878 394.453 287.46C394.453 287.042 394.374 286.67 394.215 286.346C394.057 286.021 393.806 285.767 393.463 285.583C393.124 285.399 392.677 285.307 392.122 285.307H390.023V294.952H388.351ZM397.813 294.952V286.643H399.376V287.963H399.463C399.614 287.516 399.881 287.164 400.263 286.908C400.649 286.649 401.086 286.519 401.572 286.519C401.673 286.519 401.792 286.522 401.929 286.53C402.07 286.537 402.18 286.546 402.259 286.557V288.104C402.195 288.086 402.079 288.066 401.913 288.044C401.747 288.019 401.581 288.006 401.416 288.006C401.033 288.006 400.693 288.087 400.393 288.25C400.097 288.408 399.863 288.63 399.69 288.915C399.517 289.196 399.43 289.517 399.43 289.878V294.952H397.813ZM406.709 295.12C405.93 295.12 405.25 294.941 404.67 294.584C404.089 294.227 403.638 293.728 403.317 293.086C402.997 292.444 402.836 291.694 402.836 290.835C402.836 289.974 402.997 289.22 403.317 288.574C403.638 287.929 404.089 287.428 404.67 287.071C405.25 286.714 405.93 286.535 406.709 286.535C407.488 286.535 408.168 286.714 408.749 287.071C409.329 287.428 409.78 287.929 410.101 288.574C410.422 289.22 410.582 289.974 410.582 290.835C410.582 291.694 410.422 292.444 410.101 293.086C409.78 293.728 409.329 294.227 408.749 294.584C408.168 294.941 407.488 295.12 406.709 295.12ZM406.715 293.762C407.219 293.762 407.638 293.629 407.97 293.362C408.301 293.095 408.547 292.74 408.705 292.296C408.868 291.852 408.949 291.364 408.949 290.83C408.949 290.3 408.868 289.813 408.705 289.37C408.547 288.922 408.301 288.564 407.97 288.293C407.638 288.023 407.219 287.887 406.715 287.887C406.206 287.887 405.784 288.023 405.449 288.293C405.117 288.564 404.87 288.922 404.708 289.37C404.549 289.813 404.47 290.3 404.47 290.83C404.47 291.364 404.549 291.852 404.708 292.296C404.87 292.74 405.117 293.095 405.449 293.362C405.784 293.629 406.206 293.762 406.715 293.762ZM415.346 295.114C414.675 295.114 414.076 294.943 413.55 294.6C413.027 294.254 412.616 293.762 412.317 293.124C412.021 292.482 411.873 291.712 411.873 290.814C411.873 289.916 412.023 289.148 412.322 288.509C412.625 287.871 413.04 287.382 413.566 287.043C414.093 286.704 414.689 286.535 415.357 286.535C415.872 286.535 416.287 286.622 416.601 286.795C416.918 286.964 417.163 287.162 417.336 287.39C417.513 287.617 417.65 287.817 417.748 287.99H417.845V283.874H419.462V294.952H417.883V293.659H417.748C417.65 293.836 417.51 294.038 417.326 294.265C417.145 294.492 416.896 294.691 416.579 294.86C416.262 295.03 415.851 295.114 415.346 295.114ZM415.703 293.735C416.168 293.735 416.561 293.612 416.882 293.367C417.207 293.118 417.452 292.774 417.618 292.334C417.787 291.894 417.872 291.382 417.872 290.798C417.872 290.221 417.789 289.716 417.623 289.283C417.457 288.85 417.214 288.513 416.893 288.271C416.572 288.03 416.175 287.909 415.703 287.909C415.216 287.909 414.81 288.035 414.486 288.288C414.161 288.54 413.916 288.884 413.75 289.321C413.588 289.757 413.507 290.249 413.507 290.798C413.507 291.353 413.59 291.852 413.755 292.296C413.921 292.74 414.167 293.091 414.491 293.351C414.819 293.607 415.223 293.735 415.703 293.735ZM426.882 291.506V286.643H428.505V294.952H426.914V293.513H426.828C426.637 293.957 426.33 294.326 425.908 294.622C425.49 294.914 424.969 295.06 424.345 295.06C423.811 295.06 423.339 294.943 422.928 294.709C422.52 294.471 422.199 294.119 421.965 293.654C421.734 293.189 421.618 292.613 421.618 291.928V286.643H423.236V291.733C423.236 292.3 423.393 292.75 423.706 293.086C424.02 293.421 424.428 293.589 424.929 293.589C425.232 293.589 425.533 293.513 425.832 293.362C426.135 293.21 426.386 292.981 426.584 292.675C426.786 292.368 426.885 291.979 426.882 291.506ZM434.025 295.12C433.221 295.12 432.529 294.938 431.948 294.573C431.371 294.206 430.928 293.699 430.617 293.053C430.307 292.408 430.152 291.669 430.152 290.835C430.152 289.992 430.311 289.247 430.628 288.601C430.946 287.952 431.393 287.446 431.97 287.081C432.547 286.717 433.227 286.535 434.009 286.535C434.64 286.535 435.203 286.652 435.697 286.887C436.191 287.117 436.589 287.442 436.892 287.86C437.199 288.279 437.381 288.767 437.439 289.326H435.865C435.778 288.937 435.58 288.601 435.27 288.32C434.963 288.039 434.552 287.898 434.036 287.898C433.585 287.898 433.191 288.017 432.852 288.255C432.516 288.49 432.255 288.825 432.067 289.261C431.88 289.694 431.786 290.206 431.786 290.798C431.786 291.403 431.878 291.926 432.062 292.366C432.246 292.806 432.505 293.147 432.841 293.389C433.18 293.63 433.578 293.751 434.036 293.751C434.343 293.751 434.62 293.695 434.869 293.583C435.122 293.468 435.333 293.304 435.502 293.091C435.675 292.878 435.796 292.622 435.865 292.323H437.439C437.381 292.86 437.206 293.34 436.914 293.762C436.622 294.184 436.231 294.516 435.74 294.757C435.253 294.999 434.682 295.12 434.025 295.12ZM442.895 286.643V287.941H438.356V286.643H442.895ZM439.573 284.653H441.191V292.512C441.191 292.826 441.238 293.062 441.331 293.221C441.425 293.376 441.546 293.482 441.694 293.54C441.845 293.594 442.009 293.621 442.186 293.621C442.316 293.621 442.429 293.612 442.527 293.594C442.624 293.576 442.7 293.562 442.754 293.551L443.046 294.887C442.952 294.923 442.819 294.959 442.646 294.995C442.473 295.035 442.256 295.057 441.997 295.06C441.571 295.067 441.174 294.992 440.807 294.833C440.439 294.674 440.141 294.429 439.914 294.097C439.687 293.766 439.573 293.349 439.573 292.848V284.653ZM444.531 294.952V286.643H446.149V294.952H444.531ZM445.348 285.361C445.067 285.361 444.825 285.267 444.623 285.08C444.425 284.889 444.326 284.662 444.326 284.398C444.326 284.131 444.425 283.904 444.623 283.717C444.825 283.526 445.067 283.43 445.348 283.43C445.63 283.43 445.869 283.526 446.068 283.717C446.27 283.904 446.371 284.131 446.371 284.398C446.371 284.662 446.27 284.889 446.068 285.08C445.869 285.267 445.63 285.361 445.348 285.361ZM451.672 295.12C450.893 295.12 450.214 294.941 449.633 294.584C449.052 294.227 448.602 293.728 448.281 293.086C447.96 292.444 447.799 291.694 447.799 290.835C447.799 289.974 447.96 289.22 448.281 288.574C448.602 287.929 449.052 287.428 449.633 287.071C450.214 286.714 450.893 286.535 451.672 286.535C452.451 286.535 453.131 286.714 453.712 287.071C454.292 287.428 454.743 287.929 455.064 288.574C455.385 289.22 455.545 289.974 455.545 290.835C455.545 291.694 455.385 292.444 455.064 293.086C454.743 293.728 454.292 294.227 453.712 294.584C453.131 294.941 452.451 295.12 451.672 295.12ZM451.678 293.762C452.183 293.762 452.601 293.629 452.933 293.362C453.265 293.095 453.51 292.74 453.668 292.296C453.831 291.852 453.912 291.364 453.912 290.83C453.912 290.3 453.831 289.813 453.668 289.37C453.51 288.922 453.265 288.564 452.933 288.293C452.601 288.023 452.183 287.887 451.678 287.887C451.169 287.887 450.747 288.023 450.412 288.293C450.08 288.564 449.833 288.922 449.671 289.37C449.512 289.813 449.433 290.3 449.433 290.83C449.433 291.364 449.512 291.852 449.671 292.296C449.833 292.74 450.08 293.095 450.412 293.362C450.747 293.629 451.169 293.762 451.678 293.762ZM458.816 290.019V294.952H457.199V286.643H458.751V287.996H458.854C459.045 287.556 459.344 287.202 459.752 286.935C460.163 286.668 460.68 286.535 461.304 286.535C461.87 286.535 462.366 286.654 462.792 286.892C463.217 287.126 463.547 287.476 463.782 287.941C464.016 288.407 464.133 288.982 464.133 289.667V294.952H462.516V289.862C462.516 289.26 462.359 288.789 462.045 288.45C461.732 288.107 461.301 287.936 460.753 287.936C460.377 287.936 460.044 288.017 459.752 288.179C459.463 288.342 459.234 288.58 459.065 288.893C458.899 289.204 458.816 289.579 458.816 290.019ZM471.831 294.952L469.386 286.643H471.057L472.685 292.745H472.766L474.4 286.643H476.072L477.694 292.718H477.776L479.393 286.643H481.064L478.625 294.952H476.975L475.287 288.953H475.163L473.475 294.952H471.831ZM485.775 295.12C484.957 295.12 484.252 294.945 483.66 294.595C483.072 294.242 482.618 293.746 482.297 293.107C481.98 292.466 481.821 291.714 481.821 290.852C481.821 290.001 481.98 289.251 482.297 288.601C482.618 287.952 483.065 287.446 483.638 287.081C484.215 286.717 484.89 286.535 485.662 286.535C486.13 286.535 486.585 286.613 487.025 286.768C487.465 286.923 487.86 287.166 488.209 287.498C488.559 287.83 488.835 288.261 489.037 288.791C489.239 289.317 489.34 289.957 489.34 290.711V291.284H482.735V290.073H487.755C487.755 289.647 487.668 289.27 487.495 288.942C487.322 288.61 487.079 288.349 486.765 288.158C486.455 287.967 486.091 287.871 485.672 287.871C485.218 287.871 484.821 287.983 484.482 288.207C484.147 288.426 483.887 288.715 483.703 289.072C483.523 289.425 483.433 289.809 483.433 290.224V291.171C483.433 291.726 483.53 292.199 483.725 292.588C483.923 292.978 484.199 293.275 484.553 293.481C484.906 293.683 485.319 293.784 485.791 293.784C486.098 293.784 486.377 293.74 486.63 293.654C486.882 293.564 487.1 293.43 487.284 293.253C487.468 293.077 487.609 292.859 487.706 292.599L489.237 292.875C489.115 293.326 488.895 293.72 488.577 294.059C488.263 294.395 487.869 294.656 487.393 294.844C486.92 295.028 486.381 295.12 485.775 295.12ZM491.112 294.952V283.874H492.729V287.99H492.827C492.921 287.817 493.056 287.617 493.233 287.39C493.409 287.162 493.654 286.964 493.968 286.795C494.282 286.622 494.697 286.535 495.212 286.535C495.883 286.535 496.482 286.704 497.008 287.043C497.535 287.382 497.948 287.871 498.247 288.509C498.55 289.148 498.701 289.916 498.701 290.814C498.701 291.712 498.552 292.482 498.252 293.124C497.953 293.762 497.542 294.254 497.019 294.6C496.496 294.943 495.899 295.114 495.229 295.114C494.724 295.114 494.311 295.03 493.99 294.86C493.672 294.691 493.424 294.492 493.243 294.265C493.063 294.038 492.924 293.836 492.827 293.659H492.692V294.952H491.112ZM492.697 290.798C492.697 291.382 492.782 291.894 492.951 292.334C493.121 292.774 493.366 293.118 493.687 293.367C494.008 293.612 494.401 293.735 494.866 293.735C495.349 293.735 495.753 293.607 496.078 293.351C496.402 293.091 496.648 292.74 496.814 292.296C496.983 291.852 497.068 291.353 497.068 290.798C497.068 290.249 496.985 289.757 496.819 289.321C496.657 288.884 496.411 288.54 496.083 288.288C495.759 288.035 495.353 287.909 494.866 287.909C494.397 287.909 494.001 288.03 493.676 288.271C493.355 288.513 493.112 288.85 492.946 289.283C492.78 289.716 492.697 290.221 492.697 290.798ZM506.662 295.136C506.136 295.136 505.66 295.039 505.234 294.844C504.809 294.645 504.472 294.359 504.223 293.984C503.977 293.609 503.855 293.149 503.855 292.604C503.855 292.136 503.945 291.75 504.125 291.447C504.306 291.144 504.549 290.904 504.856 290.727C505.162 290.551 505.505 290.417 505.883 290.327C506.262 290.237 506.648 290.168 507.041 290.121C507.539 290.064 507.943 290.017 508.253 289.981C508.563 289.941 508.788 289.878 508.929 289.791C509.07 289.705 509.14 289.564 509.14 289.37V289.332C509.14 288.859 509.006 288.493 508.74 288.234C508.476 287.974 508.083 287.844 507.56 287.844C507.016 287.844 506.587 287.965 506.273 288.207C505.963 288.445 505.748 288.71 505.629 289.002L504.109 288.655C504.289 288.151 504.553 287.743 504.899 287.433C505.249 287.119 505.651 286.892 506.105 286.751C506.56 286.607 507.037 286.535 507.539 286.535C507.87 286.535 508.222 286.575 508.593 286.654C508.969 286.73 509.318 286.87 509.643 287.076C509.971 287.281 510.24 287.575 510.449 287.958C510.658 288.336 510.763 288.829 510.763 289.434V294.952H509.183V293.816H509.118C509.014 294.025 508.857 294.231 508.648 294.433C508.438 294.635 508.17 294.802 507.842 294.936C507.513 295.069 507.12 295.136 506.662 295.136ZM507.014 293.838C507.461 293.838 507.843 293.749 508.161 293.573C508.482 293.396 508.725 293.165 508.891 292.88C509.06 292.592 509.145 292.283 509.145 291.955V290.884C509.088 290.942 508.976 290.996 508.81 291.046C508.648 291.093 508.462 291.135 508.253 291.171C508.044 291.203 507.84 291.234 507.641 291.263C507.443 291.288 507.277 291.31 507.144 291.328C506.83 291.367 506.543 291.434 506.284 291.528C506.028 291.622 505.822 291.757 505.667 291.934C505.516 292.107 505.44 292.337 505.44 292.626C505.44 293.026 505.588 293.329 505.883 293.535C506.179 293.737 506.556 293.838 507.014 293.838ZM512.765 298.068V286.643H514.344V287.99H514.479C514.573 287.817 514.708 287.617 514.885 287.39C515.062 287.162 515.307 286.964 515.621 286.795C515.935 286.622 516.349 286.535 516.865 286.535C517.536 286.535 518.134 286.704 518.661 287.043C519.187 287.382 519.6 287.871 519.9 288.509C520.203 289.148 520.354 289.916 520.354 290.814C520.354 291.712 520.204 292.482 519.905 293.124C519.606 293.762 519.195 294.254 518.672 294.6C518.149 294.943 517.552 295.114 516.881 295.114C516.376 295.114 515.963 295.03 515.642 294.86C515.325 294.691 515.076 294.492 514.896 294.265C514.716 294.038 514.577 293.836 514.479 293.659H514.382V298.068H512.765ZM514.35 290.798C514.35 291.382 514.434 291.894 514.604 292.334C514.773 292.774 515.019 293.118 515.339 293.367C515.66 293.612 516.054 293.735 516.519 293.735C517.002 293.735 517.406 293.607 517.73 293.351C518.055 293.091 518.3 292.74 518.466 292.296C518.636 291.852 518.72 291.353 518.72 290.798C518.72 290.249 518.637 289.757 518.472 289.321C518.309 288.884 518.064 288.54 517.736 288.288C517.411 288.035 517.006 287.909 516.519 287.909C516.05 287.909 515.653 288.03 515.329 288.271C515.008 288.513 514.764 288.85 514.598 289.283C514.433 289.716 514.35 290.221 514.35 290.798ZM522.014 298.068V286.643H523.593V287.99H523.729C523.822 287.817 523.958 287.617 524.134 287.39C524.311 287.162 524.556 286.964 524.87 286.795C525.184 286.622 525.598 286.535 526.114 286.535C526.785 286.535 527.384 286.704 527.91 287.043C528.437 287.382 528.85 287.871 529.149 288.509C529.452 289.148 529.603 289.916 529.603 290.814C529.603 291.712 529.454 292.482 529.154 293.124C528.855 293.762 528.444 294.254 527.921 294.6C527.398 294.943 526.801 295.114 526.13 295.114C525.626 295.114 525.213 295.03 524.892 294.86C524.574 294.691 524.325 294.492 524.145 294.265C523.965 294.038 523.826 293.836 523.729 293.659H523.631V298.068H522.014ZM523.599 290.798C523.599 291.382 523.684 291.894 523.853 292.334C524.023 292.774 524.268 293.118 524.589 293.367C524.91 293.612 525.303 293.735 525.768 293.735C526.251 293.735 526.655 293.607 526.98 293.351C527.304 293.091 527.549 292.74 527.715 292.296C527.885 291.852 527.97 291.353 527.97 290.798C527.97 290.249 527.887 289.757 527.721 289.321C527.558 288.884 527.313 288.54 526.985 288.288C526.661 288.035 526.255 287.909 525.768 287.909C525.299 287.909 524.902 288.03 524.578 288.271C524.257 288.513 524.014 288.85 523.848 289.283C523.682 289.716 523.599 290.221 523.599 290.798Z" fill="black"/>
<g clip-path="url(#clip4_1335_156291)">
<path d="M399.424 377.441H565.082C569.026 377.442 572.222 380.639 572.222 384.582V512.634H392.283V384.582C392.284 380.639 395.481 377.442 399.424 377.441Z" fill="#FAF9FD" stroke="#E5DFF1" stroke-width="0.952055"/>
<rect x="404.271" y="388.391" width="38.0822" height="9.52055" rx="3.80822" fill="#E5DFF1"/>
<rect x="447.114" y="422.664" width="79.4966" height="13.3288" rx="3.80822" fill="#E5DFF1"/>
<rect x="458.062" y="443.61" width="57.5993" height="13.3288" rx="3.80822" fill="#E5DFF1"/>
<rect x="436.879" y="475.027" width="46.6507" height="17.137" rx="3.80822" fill="#673EAC"/>
<rect x="490.67" y="475.503" width="45.6986" height="16.1849" rx="3.33219" fill="white" stroke="#A8A8A8" stroke-width="0.952055"/>
<rect x="546.127" y="388.391" width="18.089" height="9.52055" rx="3.80822" fill="#673EAC"/>
<rect x="522.326" y="388.391" width="18.089" height="9.52055" rx="3.80822" fill="#E5DFF1"/>
</g>
<rect x="0.51216" y="257.962" width="266.909" height="169.947" rx="8.23" fill="white" stroke="#E5DFF1" stroke-width="0.952055"/>
<rect x="20.3756" y="373.742" width="76.2937" height="33.1362" rx="8.25283" stroke="#C1D4BF" stroke-width="0.906388"/>
<path d="M31.5802 326.382C31.4357 325.059 30.759 324.557 29.4969 324.557C28.1588 324.557 27.5125 325.059 27.5125 325.987C27.5125 326.99 28.2652 327.348 29.8695 327.964C31.9375 328.754 33.3137 329.439 33.3137 331.324C33.3137 333.286 31.8463 334.616 29.2841 334.616C26.7979 334.616 25.4825 333.445 25.3229 331.309L27.0107 331.081C27.1932 332.51 27.9155 333.172 29.3753 333.172C30.8275 333.172 31.5041 332.525 31.5041 331.529C31.5041 330.495 30.6678 330.161 28.9267 329.484C27.1628 328.8 25.7867 327.979 25.7867 326.131C25.7867 324.192 27.1856 323.151 29.611 323.151C31.7018 323.151 33.1616 324.025 33.2376 326.23L31.5802 326.382ZM38.4475 323.158C40.736 323.158 42.0209 324.177 42.0209 326.04C42.0209 327.629 41.0173 328.397 39.8921 328.716C41.1542 328.967 42.3098 329.636 42.3098 331.453C42.3098 333.415 40.9185 334.616 38.5083 334.616C36.0982 334.616 34.7448 333.514 34.7068 331.339L36.3339 331.187C36.5011 332.518 37.1854 333.179 38.4855 333.179C39.9301 333.179 40.5383 332.419 40.5383 331.423C40.5383 329.971 39.2762 329.469 37.6568 329.469H37.4667V328.154H37.6568C39.3218 328.154 40.333 327.416 40.333 326.192C40.333 325.166 39.664 324.557 38.4931 324.557C37.3907 324.557 36.6836 325.105 36.5315 326.397L34.9501 326.245C35.0033 324.04 36.4479 323.158 38.4475 323.158ZM61.0321 330.457C61.0321 332.966 59.9524 334.616 57.93 334.616C56.782 334.616 56.0065 334.084 55.5427 333.415H55.3222L55.2005 334.434H53.7484V322.801H55.4362V327.538H55.5351C56.0673 326.869 56.8504 326.336 57.9909 326.336C60.0057 326.336 61.0321 327.994 61.0321 330.457ZM55.4362 332.495C56.0217 333.004 56.6223 333.202 57.2382 333.202C58.5763 333.202 59.3138 332.32 59.3138 330.457C59.3138 328.633 58.6143 327.751 57.2534 327.751C56.6299 327.751 56.0217 327.948 55.4362 328.465V332.495ZM63.0259 326.519H64.7137V331.788C64.7137 332.944 65.2992 333.248 66.029 333.248C66.873 333.248 67.5649 332.845 68.1351 332.221V326.519H69.823V334.434H68.3708L68.2491 333.278H68.0286C67.3596 334.008 66.5461 334.609 65.2535 334.609C63.8546 334.609 63.0259 333.909 63.0259 332.236V326.519ZM79.4882 331.986C79.0396 333.818 77.5342 334.616 75.7703 334.616C73.4058 334.616 71.8167 333.194 71.8167 330.465C71.8167 327.659 73.5122 326.336 75.854 326.336C77.8231 326.336 79.2981 327.249 79.4882 329.18L77.8383 329.324C77.6635 328.214 76.8956 327.682 75.8083 327.682C74.3181 327.682 73.5426 328.663 73.5426 330.465C73.5426 332.358 74.3942 333.263 75.7855 333.263C76.8652 333.263 77.5646 332.723 77.8612 331.75L79.4882 331.986ZM83.2687 334.434H81.5808V322.801H83.2687V329.53H84.6905L87.1462 326.519H89.0394L85.9602 330.184V330.282L89.3055 334.434H87.3135L84.4472 330.883H83.2687V334.434ZM90.3717 330.465C90.3717 327.751 91.9988 326.336 94.4241 326.336C96.6746 326.336 97.9899 327.515 97.9899 329.887V330.609H92.09C92.1356 332.366 92.9491 333.263 94.3633 333.263C95.2681 333.263 95.9675 332.898 96.3249 332.077L97.9595 332.328C97.4121 333.894 96.0284 334.616 94.3557 334.616C91.9988 334.616 90.3717 333.194 90.3717 330.465ZM92.1736 329.545H96.3401C96.3401 328.26 95.519 327.682 94.3709 327.682C93.2152 327.682 92.4169 328.283 92.1736 329.545ZM105.04 334.609C102.698 334.616 101.74 333.932 101.74 331.218V327.888H99.5656V326.519H101.74V324.147H103.428V326.519H106.864V327.888H103.428V331.172C103.428 332.761 103.907 333.141 105.222 333.141C105.838 333.141 106.454 333.035 107.047 332.89V334.342C106.469 334.51 105.77 334.609 105.04 334.609Z" fill="black"/>
<path d="M31.8111 390.877C31.8111 393.987 32.7387 395.097 34.1833 395.097C35.4302 395.097 36.1296 394.253 36.2437 392.748L37.8707 392.869C37.7795 395.28 36.3577 396.602 34.1376 396.602C31.6514 396.602 30.0168 394.854 30.0168 390.877C30.0168 386.893 31.6362 385.145 34.1376 385.145C36.3425 385.145 37.7795 386.475 37.8707 388.84L36.2437 388.961C36.1296 387.502 35.4302 386.65 34.1833 386.65C32.7387 386.65 31.8111 387.76 31.8111 390.877ZM43.0654 388.513L43.1794 389.661H43.3999C44.1678 388.794 44.9281 388.33 46.2663 388.33C46.5552 388.33 46.7985 388.353 47.0342 388.406V389.995C45.3691 389.995 44.4187 390.094 43.3011 390.779V395.059H45.9393V396.428H39.6288V395.059H41.6132V389.881H39.6288V388.513H43.0654ZM48.663 392.459C48.663 389.745 50.29 388.33 52.7154 388.33C54.9659 388.33 56.2812 389.509 56.2812 391.881V392.603H50.3813C50.4269 394.36 51.2404 395.257 52.6546 395.257C53.5594 395.257 54.2588 394.892 54.6162 394.071L56.2508 394.322C55.7034 395.888 54.3197 396.61 52.647 396.61C50.29 396.61 48.663 395.188 48.663 392.459ZM50.4649 391.539H54.6314C54.6314 390.254 53.8103 389.676 52.6622 389.676C51.5065 389.676 50.7082 390.277 50.4649 391.539ZM61.6051 388.33C63.5743 388.33 64.7604 388.977 64.7604 390.824V394.61C64.7604 395.15 64.9505 395.287 65.6348 395.204V396.428C65.247 396.534 64.8897 396.587 64.5627 396.587C63.5591 396.587 63.2398 396.093 63.179 395.454H63.0117C62.4111 396.055 61.5975 396.61 60.3963 396.61C58.9745 396.61 58.0545 395.812 58.0545 394.481C58.0545 392.261 60.5939 391.965 63.0725 391.995V390.915C63.0725 389.783 62.4187 389.501 61.4759 389.509C60.5483 389.509 59.8717 389.805 59.8641 390.725L59.8564 391.045H58.3206V390.642C58.3206 389.288 59.2406 388.33 61.6051 388.33ZM59.8108 394.261C59.8108 394.968 60.3354 395.363 61.2022 395.363C61.9169 395.363 62.5175 395.089 63.0725 394.687V392.938C62.8596 392.915 62.6468 392.9 62.4339 392.9C60.784 392.9 59.8108 393.295 59.8108 394.261ZM72.6085 396.602C70.2668 396.61 69.3088 395.926 69.3088 393.212V389.881H67.1343V388.513H69.3088V386.141H70.9967V388.513H74.4332V389.881H70.9967V393.166C70.9967 394.755 71.4757 395.135 72.791 395.135C73.4068 395.135 74.0227 395.029 74.6157 394.884V396.336C74.0379 396.504 73.3384 396.602 72.6085 396.602ZM76.4955 392.459C76.4955 389.745 78.1225 388.33 80.5479 388.33C82.7984 388.33 84.1137 389.509 84.1137 391.881V392.603H78.2137C78.2594 394.36 79.0729 395.257 80.487 395.257C81.3918 395.257 82.0913 394.892 82.4486 394.071L84.0833 394.322C83.5359 395.888 82.1521 396.61 80.4794 396.61C78.1225 396.61 76.4955 395.188 76.4955 392.459ZM78.2974 391.539H82.4638C82.4638 390.254 81.6427 389.676 80.4946 389.676C79.339 389.676 78.5407 390.277 78.2974 391.539Z" fill="#1A6414"/>
<path d="M28.9875 350.019L29.1092 351.129H29.3069C30.1128 350.293 30.8883 349.837 32.2568 349.837C32.5382 349.837 32.7738 349.86 33.0095 349.905V351.251C31.2761 351.251 30.3561 351.365 29.208 352.156V356.664H31.9755V357.828H25.6954V356.664H27.7711V351.183H25.6954V350.019H28.9875ZM34.7828 353.912C34.7828 351.274 36.3567 349.837 38.7592 349.837C40.9717 349.837 42.2642 350.993 42.2642 353.289V353.973H36.2578C36.2806 355.874 37.1854 356.832 38.7136 356.832C39.7096 356.832 40.4623 356.429 40.8348 355.539L42.2338 355.775C41.7016 357.235 40.4243 358.01 38.706 358.01C36.3719 358.01 34.7828 356.596 34.7828 353.912ZM36.3339 353.015H40.8577C40.8501 351.624 39.9377 351.015 38.7136 351.015C37.4363 351.015 36.5848 351.692 36.3339 353.015ZM44.0603 353.562C44.0603 351.289 45.2692 349.837 47.17 349.837C48.318 349.837 49.1087 350.361 49.6105 351.053H49.8158L49.9299 350.019H51.1463V357.387C51.1463 359.949 49.9071 360.952 47.6261 360.952C45.4745 360.952 44.5393 360.071 44.258 358.877L45.5657 358.58C45.8546 359.477 46.5541 359.888 47.6261 359.888C48.8274 359.888 49.7094 359.371 49.7094 357.539V356.041H49.6181C49.0555 356.733 48.242 357.257 47.1091 357.257C45.2084 357.257 44.0603 355.767 44.0603 353.562ZM45.5429 353.562C45.5429 355.098 46.3184 356.033 47.7098 356.033C48.4093 356.033 49.0555 355.79 49.7094 355.136V351.943C49.0707 351.289 48.4169 351.053 47.7326 351.053C46.364 351.053 45.5429 351.973 45.5429 353.562ZM53.6571 357.828V356.664H56.4246V351.16H53.6571V350.019L57.6791 349.844L57.8692 350.027V356.664H60.6367V357.828H53.6571ZM56.8656 348.05C56.2346 348.05 55.8012 347.678 55.8012 347.069C55.8012 346.461 56.2346 346.096 56.8656 346.096C57.4891 346.096 57.9224 346.461 57.9224 347.069C57.9224 347.678 57.4891 348.05 56.8656 348.05ZM70.2335 353.935C70.2335 356.672 68.5228 358.01 66.4244 358.01C64.3336 358.01 62.6153 356.672 62.6153 353.935C62.6153 351.205 64.3336 349.837 66.4244 349.837C68.5228 349.837 70.2335 351.205 70.2335 353.935ZM68.7509 353.935C68.7509 351.943 67.793 351.015 66.4244 351.015C65.0559 351.015 64.0903 351.943 64.0903 353.935C64.0903 355.927 65.0559 356.832 66.4244 356.832C67.793 356.832 68.7509 355.927 68.7509 353.935ZM78.9788 357.828H77.5418V352.62C77.5418 351.35 76.8804 351.015 76.0896 351.015C75.1773 351.015 74.4474 351.464 73.862 352.141V357.828H72.425V350.019H73.6415L73.7707 351.137H73.9608C74.5766 350.476 75.3902 349.837 76.7131 349.837C78.1045 349.837 78.9788 350.544 78.9788 352.239V357.828ZM85.0022 358.056C84.2191 358.056 83.5956 357.539 83.5956 356.687C83.5956 355.82 84.2191 355.319 85.0022 355.319C85.7777 355.319 86.4011 355.82 86.4011 356.687C86.4011 357.539 85.7777 358.056 85.0022 358.056ZM85.0022 352.141C84.2191 352.141 83.5956 351.624 83.5956 350.772C83.5956 349.905 84.2191 349.403 85.0022 349.403C85.7777 349.403 86.4011 349.905 86.4011 350.772C86.4011 351.624 85.7777 352.141 85.0022 352.141ZM100.257 350.019H101.694V355.22C101.694 356.497 102.356 356.824 103.147 356.824C104.059 356.824 104.789 356.383 105.374 355.706V350.019H106.811V357.828H105.595L105.466 356.71H105.275C104.66 357.364 103.846 358.003 102.523 358.003C101.132 358.003 100.257 357.295 100.257 355.608V350.019ZM112.842 349.837C114.903 349.837 116.089 350.582 116.15 352.163L114.842 352.255C114.743 351.365 114.059 350.909 112.743 350.909C111.557 350.909 110.812 351.259 110.812 351.996C110.812 352.665 111.443 352.939 113.184 353.296C115.268 353.722 116.241 354.201 116.241 355.562C116.241 357.029 115.078 358.003 112.781 358.003C110.622 358.003 109.39 357.387 109.041 355.562L110.364 355.395C110.729 356.763 111.725 356.892 112.85 356.892C114.249 356.892 114.804 356.337 114.804 355.722C114.804 355.037 114.15 354.794 112.295 354.414C110.417 354.026 109.436 353.463 109.436 352.125C109.436 350.734 110.493 349.837 112.842 349.837ZM119.656 353.471V352.224H124.522V353.471H119.656ZM126.851 350.019H128.227L129.481 355.623H129.61L130.956 351.221H131.929L133.184 355.623H133.313L134.56 350.019H135.883L134.028 357.828H132.751L131.42 353.129H131.314L129.892 357.828H128.706L126.851 350.019ZM136.835 353.912C136.835 351.274 138.409 349.837 140.812 349.837C143.024 349.837 144.317 350.993 144.317 353.289V353.973H138.31C138.333 355.874 139.238 356.832 140.766 356.832C141.762 356.832 142.515 356.429 142.887 355.539L144.286 355.775C143.754 357.235 142.477 358.01 140.758 358.01C138.424 358.01 136.835 356.596 136.835 353.912ZM138.386 353.015H142.91C142.902 351.624 141.99 351.015 140.766 351.015C139.489 351.015 138.637 351.692 138.386 353.015ZM149.952 349.837C152.013 349.837 153.199 350.582 153.259 352.163L151.952 352.255C151.853 351.365 151.169 350.909 149.853 350.909C148.667 350.909 147.922 351.259 147.922 351.996C147.922 352.665 148.553 352.939 150.294 353.296C152.378 353.722 153.351 354.201 153.351 355.562C153.351 357.029 152.187 358.003 149.891 358.003C147.732 358.003 146.5 357.387 146.151 355.562L147.474 355.395C147.839 356.763 148.835 356.892 149.96 356.892C151.359 356.892 151.914 356.337 151.914 355.722C151.914 355.037 151.26 354.794 149.405 354.414C147.527 354.026 146.546 353.463 146.546 352.125C146.546 350.734 147.603 349.837 149.952 349.837ZM160.712 357.98C158.454 357.987 157.496 357.295 157.496 354.665V351.183H155.23V350.019H157.496V347.571H158.941V350.019H162.529V351.183H158.941V354.596C158.941 356.292 159.443 356.71 160.834 356.71C161.488 356.71 162.119 356.604 162.712 356.451V357.706C162.134 357.881 161.419 357.98 160.712 357.98ZM166.044 353.471V352.224H170.91V353.471H166.044ZM174.599 348.864C175.405 348.864 176.834 347.89 177.116 346.727H178.591V356.581H181.457V357.828H174.325V356.581H177.116V349.016C176.401 349.791 175.451 350.316 174.599 350.316V348.864Z" fill="black" fill-opacity="0.7"/>
<g clip-path="url(#clip5_1335_156291)">
<path d="M37.9009 290.806C37.9009 291.192 37.9429 291.505 38.0164 291.734C38.1004 291.963 38.2055 292.213 38.3525 292.484C38.405 292.567 38.4261 292.651 38.4261 292.724C38.4261 292.828 38.3631 292.932 38.2265 293.036L37.5648 293.474C37.4702 293.536 37.3757 293.568 37.2917 293.568C37.1866 293.568 37.0816 293.516 36.9766 293.422C36.8295 293.265 36.7035 293.099 36.5984 292.932C36.4934 292.755 36.3883 292.557 36.2728 292.317C35.4535 293.276 34.4241 293.755 33.1847 293.755C32.3024 293.755 31.5986 293.505 31.0839 293.005C30.5692 292.505 30.3066 291.838 30.3066 291.004C30.3066 290.119 30.6218 289.4 31.2625 288.858C31.9032 288.316 32.754 288.045 33.8359 288.045C34.193 288.045 34.5607 288.076 34.9493 288.128C35.3379 288.181 35.7371 288.264 36.1572 288.358V287.597C36.1572 286.805 35.9892 286.253 35.6636 285.93C35.3274 285.607 34.7602 285.451 33.9514 285.451C33.5838 285.451 33.2057 285.492 32.817 285.586C32.4284 285.68 32.0503 285.794 31.6826 285.94C31.5146 286.013 31.3885 286.055 31.315 286.076C31.2415 286.097 31.189 286.107 31.1469 286.107C30.9999 286.107 30.9264 286.003 30.9264 285.784V285.273C30.9264 285.107 30.9474 284.982 30.9999 284.909C31.0524 284.836 31.1469 284.763 31.294 284.69C31.6616 284.502 32.1028 284.346 32.6175 284.221C33.1322 284.086 33.6783 284.023 34.2561 284.023C35.506 284.023 36.4198 284.304 37.0081 284.867C37.5858 285.43 37.8799 286.284 37.8799 287.43V290.806H37.9009ZM33.6363 292.39C33.983 292.39 34.3401 292.328 34.7182 292.203C35.0964 292.078 35.4325 291.848 35.7161 291.536C35.8841 291.338 36.0102 291.119 36.0732 290.869C36.1362 290.619 36.1783 290.317 36.1783 289.962V289.525C35.8737 289.452 35.548 289.389 35.2119 289.348C34.8758 289.306 34.5502 289.285 34.2245 289.285C33.5208 289.285 33.0061 289.421 32.6595 289.702C32.3129 289.983 32.1448 290.379 32.1448 290.9C32.1448 291.39 32.2708 291.755 32.5334 292.005C32.7855 292.265 33.1532 292.39 33.6363 292.39ZM42.0709 293.516C41.8818 293.516 41.7558 293.484 41.6717 293.411C41.5877 293.349 41.5142 293.203 41.4512 293.005L38.9828 284.95C38.9197 284.742 38.8882 284.607 38.8882 284.534C38.8882 284.367 38.9723 284.273 39.1403 284.273H40.1697C40.3693 284.273 40.5058 284.304 40.5793 284.377C40.6634 284.44 40.7264 284.586 40.7894 284.784L42.554 291.682L44.1926 284.784C44.2452 284.575 44.3082 284.44 44.3922 284.377C44.4763 284.315 44.6233 284.273 44.8124 284.273H45.6527C45.8522 284.273 45.9888 284.304 46.0728 284.377C46.1569 284.44 46.2304 284.586 46.2724 284.784L47.932 291.765L49.7491 284.784C49.8122 284.575 49.8857 284.44 49.9592 284.377C50.0432 284.315 50.1798 284.273 50.3689 284.273H51.3457C51.5138 284.273 51.6083 284.356 51.6083 284.534C51.6083 284.586 51.5978 284.638 51.5873 284.7C51.5768 284.763 51.5558 284.846 51.5138 284.961L48.9824 293.015C48.9193 293.224 48.8458 293.359 48.7618 293.422C48.6778 293.484 48.5412 293.526 48.3626 293.526H47.4593C47.2597 293.526 47.1232 293.495 47.0392 293.422C46.9551 293.349 46.8816 293.213 46.8396 293.005L45.2115 286.284L43.5939 292.995C43.5414 293.203 43.4784 293.338 43.3944 293.411C43.3103 293.484 43.1633 293.516 42.9742 293.516H42.0709ZM55.5682 293.797C55.022 293.797 54.4758 293.734 53.9507 293.609C53.4255 293.484 53.0158 293.349 52.7427 293.193C52.5747 293.099 52.4591 292.995 52.4171 292.901C52.3751 292.807 52.3541 292.703 52.3541 292.609V292.078C52.3541 291.859 52.4381 291.755 52.5957 291.755C52.6587 291.755 52.7217 291.765 52.7847 291.786C52.8478 291.807 52.9423 291.848 53.0473 291.89C53.4045 292.046 53.7931 292.171 54.2028 292.255C54.6229 292.338 55.0326 292.38 55.4527 292.38C56.1143 292.38 56.629 292.265 56.9863 292.036C57.3434 291.807 57.5323 291.473 57.5323 291.046C57.5323 290.754 57.4378 290.515 57.2489 290.317C57.0597 290.119 56.7026 289.942 56.1879 289.775L54.6649 289.306C53.8981 289.066 53.3309 288.712 52.9843 288.243C52.6377 287.785 52.4591 287.274 52.4591 286.732C52.4591 286.295 52.5537 285.909 52.7427 285.576C52.9318 285.242 53.1839 284.95 53.499 284.721C53.8141 284.482 54.1712 284.304 54.5914 284.179C55.0116 284.054 55.4527 284.002 55.915 284.002C56.1459 284.002 56.3876 284.013 56.6186 284.044C56.8603 284.075 57.0808 284.117 57.3013 284.158C57.5114 284.211 57.7111 284.263 57.9001 284.325C58.0893 284.388 58.2362 284.45 58.3411 284.513C58.4883 284.596 58.5933 284.679 58.6564 284.773C58.7193 284.857 58.7509 284.971 58.7509 285.117V285.607C58.7509 285.826 58.6669 285.94 58.5092 285.94C58.4252 285.94 58.2887 285.899 58.1102 285.815C57.5114 285.544 56.8391 285.409 56.0935 285.409C55.4947 285.409 55.022 285.503 54.6964 285.701C54.3708 285.899 54.2028 286.201 54.2028 286.628C54.2028 286.92 54.3078 287.17 54.5179 287.368C54.7279 287.566 55.1166 287.764 55.6733 287.941L57.1648 288.41C57.9212 288.649 58.4672 288.983 58.7929 289.41C59.1186 289.837 59.276 290.327 59.276 290.869C59.276 291.317 59.1815 291.723 59.003 292.078C58.8138 292.432 58.5619 292.745 58.2362 292.995C57.9105 293.255 57.5219 293.443 57.0704 293.578C56.5977 293.724 56.1039 293.797 55.5682 293.797Z" fill="black"/>
<path fill-rule="evenodd" clip-rule="evenodd" d="M57.5527 298.861C54.0969 301.393 49.0761 302.737 44.759 302.737C38.7089 302.737 33.2574 300.518 29.1399 296.829C28.8143 296.537 29.1084 296.141 29.497 296.37C33.9506 298.934 39.4441 300.486 45.1267 300.486C48.9606 300.486 53.1726 299.694 57.0484 298.069C57.6263 297.808 58.1198 298.444 57.5527 298.861Z" fill="#FF9900"/>
<path fill-rule="evenodd" clip-rule="evenodd" d="M58.9912 297.235C58.5498 296.672 56.0709 296.964 54.9471 297.1C54.611 297.141 54.5585 296.849 54.8631 296.631C56.8377 295.255 60.0834 295.651 60.4616 296.11C60.8398 296.579 60.3567 299.798 58.5078 301.34C58.2244 301.58 57.9511 301.455 58.0772 301.142C58.4974 300.111 59.4323 297.787 58.9912 297.235Z" fill="#FF9900"/>
</g>
</g>
<defs>
<clipPath id="clip0_1335_156291">
<rect width="666" height="513" fill="white"/>
</clipPath>
<clipPath id="clip1_1335_156291">
<rect width="376.139" height="445.21" fill="white" transform="translate(445.21 40) rotate(90)"/>
</clipPath>
<clipPath id="clip2_1335_156291">
<rect width="376" height="111" fill="white" transform="translate(153 40) rotate(90)"/>
</clipPath>
<clipPath id="clip3_1335_156291">
<rect width="401" height="156" fill="white" transform="translate(104 347)"/>
</clipPath>
<clipPath id="clip4_1335_156291">
<rect width="180.89" height="136.144" fill="white" transform="translate(391.894 376.966)"/>
</clipPath>
<clipPath id="clip5_1335_156291">
<rect width="31.5818" height="22.1073" fill="white" transform="translate(29 280.737)"/>
</clipPath>
</defs>
</svg>
