<svg width="658" height="358" viewBox="0 0 658 358" fill="none" xmlns="http://www.w3.org/2000/svg">
<g clip-path="url(#clip0_1298_155279)">
<path d="M612.434 181.65L612.434 27.8489C612.434 18.5322 604.889 10.9803 595.586 10.9803L342.509 10.9803" stroke="#edebff" stroke-miterlimit="10"/>
<path d="M598.677 189.858L598.677 37.1861C598.677 29.9899 592.842 24.1482 585.653 24.1482L342.509 24.1481" stroke="#edebff" stroke-miterlimit="10"/>
<path d="M584.935 185.07L584.935 46.5372C584.935 41.4479 580.824 37.33 575.741 37.33L342.516 37.3299" stroke="#edebff" stroke-miterlimit="10"/>
<path d="M571.179 182.334L571.179 55.8677C571.179 52.899 568.771 50.4911 565.809 50.4911L342.516 50.4911" stroke="#edebff" stroke-miterlimit="10"/>
</g>
<rect opacity="0.03" x="425.97" y="111.193" width="202.153" height="128.977" rx="6.57039" fill="#702eea"/>
<rect width="483.455" height="247.843" rx="6.84046" fill="#20054E"/>
<path d="M18.7217 72.9173H19.8496V76.9994C19.8496 78.002 20.3688 78.2586 20.9895 78.2586C21.7056 78.2586 22.2786 77.9125 22.7381 77.3813V72.9173H23.866V79.0464H22.9112L22.8097 78.1691H22.6605C22.1771 78.6823 21.5385 79.1836 20.5001 79.1836C19.408 79.1836 18.7217 78.6286 18.7217 77.3038V72.9173ZM28.7194 72.7741C30.3367 72.7741 31.2677 73.359 31.3154 74.6003L30.2889 74.6719C30.2113 73.9737 29.6742 73.6156 28.6418 73.6156C27.7108 73.6156 27.1259 73.8901 27.1259 74.469C27.1259 74.9942 27.6213 75.209 28.9879 75.4895C30.6231 75.8237 31.387 76.1997 31.387 77.2679C31.387 78.4198 30.4739 79.1836 28.6716 79.1836C26.9767 79.1836 26.0099 78.7002 25.7354 77.2679L26.7738 77.1367C27.0603 78.2109 27.8421 78.3123 28.7253 78.3123C29.8234 78.3123 30.2591 77.8767 30.2591 77.3933C30.2591 76.8562 29.7458 76.6652 28.2897 76.3668C26.8156 76.0624 26.0457 75.6208 26.0457 74.5704C26.0457 73.4783 26.8753 72.7741 28.7194 72.7741ZM33.3578 79.0464V78.1333H35.5302V73.8125H33.3578V72.9173L36.5149 72.7801L36.6641 72.9233V78.1333H38.8364V79.0464H33.3578ZM35.8763 71.3716C35.381 71.3716 35.0408 71.0792 35.0408 70.6018C35.0408 70.1243 35.381 69.8379 35.8763 69.8379C36.3657 69.8379 36.7058 70.1243 36.7058 70.6018C36.7058 71.0792 36.3657 71.3716 35.8763 71.3716ZM46.0709 79.0464H44.943V74.9584C44.943 73.9617 44.4238 73.6991 43.8031 73.6991C43.0869 73.6991 42.514 74.0512 42.0545 74.5824V79.0464H40.9265V72.9173H41.8814L41.9829 73.7946H42.1321C42.6155 73.2754 43.254 72.7741 44.2925 72.7741C45.3846 72.7741 46.0709 73.3291 46.0709 74.66V79.0464ZM47.9104 75.6984C47.9104 73.914 48.8593 72.7741 50.3513 72.7741C51.2525 72.7741 51.8731 73.1859 52.267 73.729H52.4281L52.5177 72.9173H53.4725V78.7002C53.4725 80.7114 52.4997 81.4992 50.7094 81.4992C49.0204 81.4992 48.2864 80.8069 48.0656 79.87L49.0921 79.6372C49.3188 80.3414 49.8679 80.6637 50.7094 80.6637C51.6523 80.6637 52.3446 80.2579 52.3446 78.8196V77.6439H52.273C51.8313 78.187 51.1928 78.5988 50.3036 78.5988C48.8116 78.5988 47.9104 77.4291 47.9104 75.6984ZM49.0742 75.6984C49.0742 76.9039 49.6829 77.638 50.775 77.638C51.3241 77.638 51.8313 77.447 52.3446 76.9337V74.4272C51.8433 73.914 51.33 73.729 50.7929 73.729C49.7187 73.729 49.0742 74.4511 49.0742 75.6984ZM18.7217 108.917H19.8496V112.999C19.8496 114.002 20.3688 114.259 20.9895 114.259C21.7056 114.259 22.2786 113.912 22.7381 113.381V108.917H23.866V115.046H22.9112L22.8097 114.169H22.6605C22.1771 114.682 21.5385 115.184 20.5001 115.184C19.408 115.184 18.7217 114.629 18.7217 113.304V108.917ZM28.7194 108.774C30.3367 108.774 31.2677 109.359 31.3154 110.6L30.2889 110.672C30.2113 109.974 29.6742 109.616 28.6418 109.616C27.7108 109.616 27.1259 109.89 27.1259 110.469C27.1259 110.994 27.6213 111.209 28.9879 111.49C30.6231 111.824 31.387 112.2 31.387 113.268C31.387 114.42 30.4739 115.184 28.6716 115.184C26.9767 115.184 26.0099 114.7 25.7354 113.268L26.7738 113.137C27.0603 114.211 27.8421 114.312 28.7253 114.312C29.8234 114.312 30.2591 113.877 30.2591 113.393C30.2591 112.856 29.7458 112.665 28.2897 112.367C26.8156 112.062 26.0457 111.621 26.0457 110.57C26.0457 109.478 26.8753 108.774 28.7194 108.774ZM33.3578 115.046V114.133H35.5302V109.813H33.3578V108.917L36.5149 108.78L36.6641 108.923V114.133H38.8364V115.046H33.3578ZM35.8763 107.372C35.381 107.372 35.0408 107.079 35.0408 106.602C35.0408 106.124 35.381 105.838 35.8763 105.838C36.3657 105.838 36.7058 106.124 36.7058 106.602C36.7058 107.079 36.3657 107.372 35.8763 107.372ZM46.0709 115.046H44.943V110.958C44.943 109.962 44.4238 109.699 43.8031 109.699C43.0869 109.699 42.514 110.051 42.0545 110.582V115.046H40.9265V108.917H41.8814L41.9829 109.795H42.1321C42.6155 109.275 43.254 108.774 44.2925 108.774C45.3846 108.774 46.0709 109.329 46.0709 110.66V115.046ZM47.9104 111.698C47.9104 109.914 48.8593 108.774 50.3513 108.774C51.2525 108.774 51.8731 109.186 52.267 109.729H52.4281L52.5177 108.917H53.4725V114.7C53.4725 116.711 52.4997 117.499 50.7094 117.499C49.0204 117.499 48.2864 116.807 48.0656 115.87L49.0921 115.637C49.3188 116.341 49.8679 116.664 50.7094 116.664C51.6523 116.664 52.3446 116.258 52.3446 114.82V113.644H52.273C51.8313 114.187 51.1928 114.599 50.3036 114.599C48.8116 114.599 47.9104 113.429 47.9104 111.698ZM49.0742 111.698C49.0742 112.904 49.6829 113.638 50.775 113.638C51.3241 113.638 51.8313 113.447 52.3446 112.934V110.427C51.8433 109.914 51.33 109.729 50.7929 109.729C49.7187 109.729 49.0742 110.451 49.0742 111.698ZM18.7217 126.917H19.8496V130.999C19.8496 132.002 20.3688 132.259 20.9895 132.259C21.7056 132.259 22.2786 131.912 22.7381 131.381V126.917H23.866V133.046H22.9112L22.8097 132.169H22.6605C22.1771 132.682 21.5385 133.184 20.5001 133.184C19.408 133.184 18.7217 132.629 18.7217 131.304V126.917ZM28.7194 126.774C30.3367 126.774 31.2677 127.359 31.3154 128.6L30.2889 128.672C30.2113 127.974 29.6742 127.616 28.6418 127.616C27.7108 127.616 27.1259 127.89 27.1259 128.469C27.1259 128.994 27.6213 129.209 28.9879 129.49C30.6231 129.824 31.387 130.2 31.387 131.268C31.387 132.42 30.4739 133.184 28.6716 133.184C26.9767 133.184 26.0099 132.7 25.7354 131.268L26.7738 131.137C27.0603 132.211 27.8421 132.312 28.7253 132.312C29.8234 132.312 30.2591 131.877 30.2591 131.393C30.2591 130.856 29.7458 130.665 28.2897 130.367C26.8156 130.062 26.0457 129.621 26.0457 128.57C26.0457 127.478 26.8753 126.774 28.7194 126.774ZM33.3578 133.046V132.133H35.5302V127.813H33.3578V126.917L36.5149 126.78L36.6641 126.923V132.133H38.8364V133.046H33.3578ZM35.8763 125.372C35.381 125.372 35.0408 125.079 35.0408 124.602C35.0408 124.124 35.381 123.838 35.8763 123.838C36.3657 123.838 36.7058 124.124 36.7058 124.602C36.7058 125.079 36.3657 125.372 35.8763 125.372ZM46.0709 133.046H44.943V128.958C44.943 127.962 44.4238 127.699 43.8031 127.699C43.0869 127.699 42.514 128.051 42.0545 128.582V133.046H40.9265V126.917H41.8814L41.9829 127.795H42.1321C42.6155 127.275 43.254 126.774 44.2925 126.774C45.3846 126.774 46.0709 127.329 46.0709 128.66V133.046ZM47.9104 129.698C47.9104 127.914 48.8593 126.774 50.3513 126.774C51.2525 126.774 51.8731 127.186 52.267 127.729H52.4281L52.5177 126.917H53.4725V132.7C53.4725 134.711 52.4997 135.499 50.7094 135.499C49.0204 135.499 48.2864 134.807 48.0656 133.87L49.0921 133.637C49.3188 134.341 49.8679 134.664 50.7094 134.664C51.6523 134.664 52.3446 134.258 52.3446 132.82V131.644H52.273C51.8313 132.187 51.1928 132.599 50.3036 132.599C48.8116 132.599 47.9104 131.429 47.9104 129.698ZM49.0742 129.698C49.0742 130.904 49.6829 131.638 50.775 131.638C51.3241 131.638 51.8313 131.447 52.3446 130.934V128.427C51.8433 127.914 51.33 127.729 50.7929 127.729C49.7187 127.729 49.0742 128.451 49.0742 129.698ZM18.7217 144.917H19.8496V148.999C19.8496 150.002 20.3688 150.259 20.9895 150.259C21.7056 150.259 22.2786 149.912 22.7381 149.381V144.917H23.866V151.046H22.9112L22.8097 150.169H22.6605C22.1771 150.682 21.5385 151.184 20.5001 151.184C19.408 151.184 18.7217 150.629 18.7217 149.304V144.917ZM28.7194 144.774C30.3367 144.774 31.2677 145.359 31.3154 146.6L30.2889 146.672C30.2113 145.974 29.6742 145.616 28.6418 145.616C27.7108 145.616 27.1259 145.89 27.1259 146.469C27.1259 146.994 27.6213 147.209 28.9879 147.49C30.6231 147.824 31.387 148.2 31.387 149.268C31.387 150.42 30.4739 151.184 28.6716 151.184C26.9767 151.184 26.0099 150.7 25.7354 149.268L26.7738 149.137C27.0603 150.211 27.8421 150.312 28.7253 150.312C29.8234 150.312 30.2591 149.877 30.2591 149.393C30.2591 148.856 29.7458 148.665 28.2897 148.367C26.8156 148.062 26.0457 147.621 26.0457 146.57C26.0457 145.478 26.8753 144.774 28.7194 144.774ZM33.3578 151.046V150.133H35.5302V145.813H33.3578V144.917L36.5149 144.78L36.6641 144.923V150.133H38.8364V151.046H33.3578ZM35.8763 143.372C35.381 143.372 35.0408 143.079 35.0408 142.602C35.0408 142.124 35.381 141.838 35.8763 141.838C36.3657 141.838 36.7058 142.124 36.7058 142.602C36.7058 143.079 36.3657 143.372 35.8763 143.372ZM46.0709 151.046H44.943V146.958C44.943 145.962 44.4238 145.699 43.8031 145.699C43.0869 145.699 42.514 146.051 42.0545 146.582V151.046H40.9265V144.917H41.8814L41.9829 145.795H42.1321C42.6155 145.275 43.254 144.774 44.2925 144.774C45.3846 144.774 46.0709 145.329 46.0709 146.66V151.046ZM47.9104 147.698C47.9104 145.914 48.8593 144.774 50.3513 144.774C51.2525 144.774 51.8731 145.186 52.267 145.729H52.4281L52.5177 144.917H53.4725V150.7C53.4725 152.711 52.4997 153.499 50.7094 153.499C49.0204 153.499 48.2864 152.807 48.0656 151.87L49.0921 151.637C49.3188 152.341 49.8679 152.664 50.7094 152.664C51.6523 152.664 52.3446 152.258 52.3446 150.82V149.644H52.273C51.8313 150.187 51.1928 150.599 50.3036 150.599C48.8116 150.599 47.9104 149.429 47.9104 147.698ZM49.0742 147.698C49.0742 148.904 49.6829 149.638 50.775 149.638C51.3241 149.638 51.8313 149.447 52.3446 148.934V146.427C51.8433 145.914 51.33 145.729 50.7929 145.729C49.7187 145.729 49.0742 146.451 49.0742 147.698ZM24.2181 185.178C23.878 186.533 22.762 187.19 21.3655 187.19C19.5572 187.19 18.3039 186.092 18.3039 183.967C18.3039 181.83 19.5811 180.774 21.4252 180.774C22.9231 180.774 24.063 181.472 24.2181 182.946L23.1021 183.042C22.9589 182.099 22.2905 181.699 21.3953 181.699C20.1301 181.699 19.4677 182.499 19.4677 183.967C19.4677 185.519 20.2077 186.265 21.3714 186.265C22.2607 186.265 22.8754 185.835 23.126 185.005L24.2181 185.178ZM25.9562 187.046V186.133H28.1285L28.1345 178.811H25.9562V177.915L29.1132 177.784L29.2624 177.921V186.133H31.4348V187.046H25.9562ZM35.9539 180.774C37.4518 180.774 38.3291 181.269 38.3291 182.714V185.751C38.3291 186.193 38.4962 186.306 39.0572 186.223V187.046C38.7767 187.13 38.5201 187.166 38.2933 187.166C37.5533 187.166 37.3086 186.772 37.2668 186.282H37.1594C36.6641 186.73 36.0374 187.19 35.0467 187.19C33.9128 187.19 33.1907 186.581 33.1907 185.537C33.1907 183.824 35.1184 183.603 37.2012 183.615V182.779C37.2012 181.795 36.6462 181.574 35.8345 181.58C35.0587 181.586 34.4679 181.807 34.4559 182.624V182.887H33.3996V182.564C33.3996 181.514 34.1217 180.774 35.9539 180.774ZM34.3724 185.399C34.3724 186.008 34.814 186.336 35.554 186.336C36.1986 186.336 36.6999 186.086 37.2012 185.722V184.277C37.0102 184.259 36.8133 184.247 36.6342 184.247C35.2258 184.247 34.3724 184.558 34.3724 185.399ZM43.5226 180.774C45.1399 180.774 46.0709 181.359 46.1186 182.6L45.0922 182.672C45.0146 181.974 44.4775 181.616 43.445 181.616C42.514 181.616 41.9292 181.89 41.9292 182.469C41.9292 182.994 42.4245 183.209 43.7912 183.49C45.4264 183.824 46.1903 184.2 46.1903 185.268C46.1903 186.42 45.2772 187.184 43.4749 187.184C41.78 187.184 40.8132 186.7 40.5386 185.268L41.5771 185.137C41.8635 186.211 42.6453 186.312 43.5286 186.312C44.6267 186.312 45.0623 185.877 45.0623 185.393C45.0623 184.856 44.5491 184.665 43.0929 184.367C41.6188 184.062 40.849 183.621 40.849 182.57C40.849 181.478 41.6785 180.774 43.5226 180.774ZM50.9242 180.774C52.5415 180.774 53.4725 181.359 53.5203 182.6L52.4938 182.672C52.4162 181.974 51.8791 181.616 50.8466 181.616C49.9156 181.616 49.3308 181.89 49.3308 182.469C49.3308 182.994 49.8261 183.209 51.1928 183.49C52.828 183.824 53.5919 184.2 53.5919 185.268C53.5919 186.42 52.6788 187.184 50.8765 187.184C49.1816 187.184 48.2148 186.7 47.9403 185.268L48.9787 185.137C49.2651 186.211 50.0469 186.312 50.9302 186.312C52.0283 186.312 52.4639 185.877 52.4639 185.393C52.4639 184.856 51.9507 184.665 50.4945 184.367C49.0204 184.062 48.2506 183.621 48.2506 182.57C48.2506 181.478 49.0801 180.774 50.9242 180.774ZM36.121 216.774C37.7383 216.774 38.6693 217.359 38.717 218.6L37.6905 218.672C37.613 217.974 37.0758 217.616 36.0434 217.616C35.1124 217.616 34.5275 217.89 34.5275 218.469C34.5275 218.994 35.0229 219.209 36.3895 219.49C38.0247 219.824 38.7886 220.2 38.7886 221.268C38.7886 222.42 37.8755 223.184 36.0732 223.184C34.3783 223.184 33.4115 222.7 33.137 221.268L34.1754 221.137C34.4619 222.211 35.2437 222.312 36.1269 222.312C37.225 222.312 37.6607 221.877 37.6607 221.393C37.6607 220.856 37.1475 220.665 35.6913 220.367C34.2172 220.062 33.4473 219.621 33.4473 218.57C33.4473 217.478 34.2769 216.774 36.121 216.774ZM44.6863 223.166C42.9139 223.172 42.1619 222.629 42.1619 220.564V217.83H40.3835V216.917H42.1619V214.996H43.2958V216.917H46.1127V217.83H43.2958V220.51C43.2958 221.841 43.6897 222.169 44.7818 222.169C45.2951 222.169 45.7904 222.086 46.2559 221.966V222.951C45.8023 223.088 45.2414 223.166 44.6863 223.166ZM50.7571 216.774C52.2551 216.774 53.1323 217.269 53.1323 218.714V221.751C53.1323 222.193 53.2994 222.306 53.8604 222.223V223.046C53.5799 223.13 53.3233 223.166 53.0965 223.166C52.3565 223.166 52.1118 222.772 52.0701 222.282H51.9626C51.4673 222.73 50.8407 223.19 49.85 223.19C48.7161 223.19 47.994 222.581 47.994 221.537C47.994 219.824 49.9216 219.603 52.0044 219.615V218.779C52.0044 217.795 51.4494 217.574 50.6378 217.58C49.8619 217.586 49.2711 217.807 49.2592 218.624V218.887H48.2028V218.564C48.2028 217.514 48.925 216.774 50.7571 216.774ZM49.1756 221.399C49.1756 222.008 49.6172 222.336 50.3573 222.336C51.0018 222.336 51.5031 222.086 52.0044 221.722V220.277C51.8134 220.259 51.6165 220.247 51.4375 220.247C50.029 220.247 49.1756 220.558 49.1756 221.399ZM59.4896 223.166C57.7171 223.172 56.9651 222.629 56.9651 220.564V217.83H55.1867V216.917H56.9651V214.996H58.0991V216.917H60.9159V217.83H58.0991V220.51C58.0991 221.841 58.4929 222.169 59.5851 222.169C60.0983 222.169 60.5936 222.086 61.0591 221.966V222.951C60.6056 223.088 60.0446 223.166 59.4896 223.166ZM62.9643 223.046V222.133H65.1366V217.813H62.9643V216.917L66.1213 216.78L66.2705 216.923V222.133H68.4429V223.046H62.9643ZM65.4828 215.372C64.9874 215.372 64.6473 215.079 64.6473 214.602C64.6473 214.124 64.9874 213.838 65.4828 213.838C65.9721 213.838 66.3123 214.124 66.3123 214.602C66.3123 215.079 65.9721 215.372 65.4828 215.372ZM76.0295 221.178C75.6893 222.533 74.5733 223.19 73.1768 223.19C71.3685 223.19 70.1153 222.092 70.1153 219.967C70.1153 217.83 71.3924 216.774 73.2365 216.774C74.7345 216.774 75.8743 217.472 76.0295 218.946L74.9135 219.042C74.7703 218.099 74.1019 217.699 73.2067 217.699C71.9415 217.699 71.279 218.499 71.279 219.967C71.279 221.519 72.019 222.265 73.1828 222.265C74.072 222.265 74.6867 221.835 74.9374 221.005L76.0295 221.178ZM122.177 223.046V222.133H124.35V217.813H122.177V216.917L125.334 216.78L125.484 216.923V222.133H127.656V223.046H122.177ZM124.696 215.372C124.2 215.372 123.86 215.079 123.86 214.602C123.86 214.124 124.2 213.838 124.696 213.838C125.185 213.838 125.525 214.124 125.525 214.602C125.525 215.079 125.185 215.372 124.696 215.372ZM134.89 223.046H133.762V218.958C133.762 217.962 133.243 217.699 132.623 217.699C131.906 217.699 131.333 218.051 130.874 218.582V223.046H129.746V216.917H130.701L130.802 217.795H130.952C131.435 217.275 132.073 216.774 133.112 216.774C134.204 216.774 134.89 217.329 134.89 218.66V223.046ZM140.907 223.166C139.135 223.172 138.383 222.629 138.383 220.564V217.83H136.605V216.917H138.383V214.996H139.517V216.917H142.334V217.83H139.517V220.51C139.517 221.841 139.911 222.169 141.003 222.169C141.516 222.169 142.011 222.086 142.477 221.966V222.951C142.023 223.088 141.462 223.166 140.907 223.166ZM211.11 217.992V217.013H216.362V217.992H211.11ZM211.11 221.268V220.289H216.362V221.268H211.11ZM219.18 222.855L218.613 222.062L222.665 219.179V219.102L218.613 216.219L219.18 215.425L223.805 218.708V219.573L219.18 222.855Z" fill="#F97583"/>
<path d="M67.6253 72.6368C67.5059 71.5686 66.927 71.1508 65.8647 71.1508C64.7248 71.1508 64.1579 71.5686 64.1579 72.3743C64.1579 73.174 64.701 73.4783 66.0975 74.0393C67.7386 74.6958 68.795 75.2269 68.795 76.6592C68.795 78.1094 67.7566 79.1896 65.6917 79.1896C63.6685 79.1896 62.7137 78.187 62.6122 76.6055L63.758 76.4682C63.8953 77.6738 64.5219 78.2109 65.7394 78.2109C66.9628 78.2109 67.5835 77.6797 67.5835 76.7845C67.5835 75.9013 66.8554 75.6268 65.4529 75.0658C64.0445 74.4929 62.9942 73.8782 62.9942 72.4638C62.9942 70.9778 64.0803 70.19 65.9483 70.19C67.494 70.19 68.6756 70.8166 68.7532 72.5354L67.6253 72.6368ZM69.9422 72.9173H71.1597L73.2305 77.7096H73.3141L75.1224 72.9173H76.2622L73.893 78.9509C73.326 80.4011 72.5323 81.4992 70.8672 81.4992C70.5867 81.4992 70.36 81.4634 70.1451 81.4157V80.4071C70.3779 80.4668 70.6166 80.5026 70.8911 80.5026C71.9176 80.5026 72.3652 79.9535 72.58 79.4104L72.6755 79.1478L69.9422 72.9173ZM80.5307 72.7741C82.148 72.7741 83.079 73.359 83.1267 74.6003L82.1003 74.6719C82.0227 73.9737 81.4856 73.6156 80.4531 73.6156C79.5221 73.6156 78.9373 73.8901 78.9373 74.469C78.9373 74.9942 79.4326 75.209 80.7993 75.4895C82.4345 75.8237 83.1984 76.1997 83.1984 77.2679C83.1984 78.4198 82.2853 79.1836 80.483 79.1836C78.7881 79.1836 77.8213 78.7002 77.5467 77.2679L78.5852 77.1367C78.8716 78.2109 79.6534 78.3123 80.5367 78.3123C81.6348 78.3123 82.0704 77.8767 82.0704 77.3933C82.0704 76.8562 81.5572 76.6652 80.101 76.3668C78.6269 76.0624 77.8571 75.6208 77.8571 74.5704C77.8571 73.4783 78.6866 72.7741 80.5307 72.7741ZM89.0961 79.1657C87.3236 79.1717 86.5716 78.6286 86.5716 76.5637V73.8304H84.7932V72.9173H86.5716V70.9957H87.7055V72.9173H90.5224V73.8304H87.7055V76.51C87.7055 77.8409 88.0994 78.1691 89.1916 78.1691C89.7048 78.1691 90.2001 78.0856 90.6656 77.9662V78.9509C90.2121 79.0882 89.6511 79.1657 89.0961 79.1657ZM92.3201 75.9729C92.3201 73.902 93.5555 72.7741 95.4414 72.7741C97.178 72.7741 98.1926 73.6812 98.1926 75.4835V76.0207H93.4779C93.4958 77.5126 94.206 78.2646 95.4056 78.2646C96.1874 78.2646 96.7782 77.9483 97.0706 77.25L98.1687 77.435C97.7509 78.5809 96.7483 79.1896 95.3996 79.1896C93.5674 79.1896 92.3201 78.0796 92.3201 75.9729ZM93.5376 75.2687H97.0885C97.0825 74.1766 96.3664 73.6991 95.4056 73.6991C94.4029 73.6991 93.7345 74.2303 93.5376 75.2687ZM103.744 79.0464H102.682V74.4988C102.682 73.8901 102.348 73.729 102.007 73.729C101.566 73.729 101.214 74.0095 100.963 74.4093V79.0464H99.9127V72.9173H100.796L100.886 73.8006H100.975C101.273 73.2038 101.805 72.7801 102.515 72.7801C103.165 72.7801 103.607 73.1083 103.708 73.8006H103.768C104.066 73.2038 104.574 72.7801 105.29 72.7801C106.03 72.7801 106.501 73.2098 106.507 74.1348L106.513 79.0464H105.451V74.4988C105.451 73.8901 105.117 73.729 104.771 73.729C104.329 73.729 103.983 74.0035 103.732 74.3974L103.744 79.0464ZM110.113 79.2553C109.505 79.2553 109.009 78.8494 109.009 78.1751C109.009 77.4947 109.505 77.1068 110.113 77.1068C110.728 77.1068 111.217 77.4947 111.217 78.1751C111.217 78.8494 110.728 79.2553 110.113 79.2553ZM117.867 79.0464H116.709V71.312H114.065V70.3332H120.505V71.312H117.867V79.0464ZM123.472 79.0464H122.344V69.9155H123.472V73.7946H123.616C124.093 73.2754 124.726 72.7741 125.74 72.7741C126.814 72.7741 127.489 73.3291 127.489 74.66V79.0464H126.361V74.9584C126.361 73.9617 125.842 73.6991 125.221 73.6991C124.493 73.6991 123.926 74.0572 123.472 74.6063V79.0464ZM132.062 72.9173L132.157 73.7886H132.312C132.945 73.1322 133.554 72.7741 134.628 72.7741C134.849 72.7741 135.034 72.792 135.219 72.8278V73.8841C133.858 73.8841 133.136 73.9737 132.235 74.5943V78.1333H134.407V79.0464H129.477V78.1333H131.107V73.8304H129.477V72.9173H132.062ZM136.73 75.9729C136.73 73.902 137.965 72.7741 139.851 72.7741C141.588 72.7741 142.602 73.6812 142.602 75.4835V76.0207H137.888C137.906 77.5126 138.616 78.2646 139.815 78.2646C140.597 78.2646 141.188 77.9483 141.48 77.25L142.578 77.435C142.161 78.5809 141.158 79.1896 139.809 79.1896C137.977 79.1896 136.73 78.0796 136.73 75.9729ZM137.947 75.2687H141.498C141.492 74.1766 140.776 73.6991 139.815 73.6991C138.813 73.6991 138.144 74.2303 137.947 75.2687ZM146.978 72.7741C148.476 72.7741 149.353 73.2694 149.353 74.7137V77.7513C149.353 78.193 149.521 78.3064 150.082 78.2228V79.0464C149.801 79.1299 149.544 79.1657 149.318 79.1657C148.578 79.1657 148.333 78.7719 148.291 78.2825H148.184C147.688 78.7301 147.062 79.1896 146.071 79.1896C144.937 79.1896 144.215 78.5809 144.215 77.5365C144.215 75.8237 146.143 75.6029 148.225 75.6148V74.7793C148.225 73.7946 147.67 73.5738 146.859 73.5798C146.083 73.5857 145.492 73.8066 145.48 74.6242V74.8867H144.424V74.5645C144.424 73.5141 145.146 72.7741 146.978 72.7741ZM145.397 77.3992C145.397 78.008 145.838 78.3362 146.578 78.3362C147.223 78.3362 147.724 78.0856 148.225 77.7215V76.2773C148.035 76.2594 147.838 76.2474 147.659 76.2474C146.25 76.2474 145.397 76.5578 145.397 77.3992ZM151.533 75.9968C151.533 73.9975 152.44 72.7741 153.986 72.7741C154.887 72.7741 155.496 73.1859 155.89 73.729H155.967V69.9155H157.095V79.0464H156.14L156.051 78.2407H155.896C155.454 78.7838 154.827 79.1956 153.938 79.1956C152.387 79.1956 151.533 77.9423 151.533 75.9968ZM152.697 75.9968C152.697 77.4768 153.288 78.2347 154.398 78.2347C154.947 78.2347 155.454 78.0438 155.967 77.5305V74.4272C155.466 73.914 154.953 73.729 154.416 73.729C153.323 73.729 152.697 74.469 152.697 75.9968ZM159.185 79.0464V78.1333H161.358V73.8125H159.185V72.9173L162.342 72.7801L162.492 72.9233V78.1333H164.664V79.0464H159.185ZM161.704 71.3716C161.209 71.3716 160.868 71.0792 160.868 70.6018C160.868 70.1243 161.209 69.8379 161.704 69.8379C162.193 69.8379 162.533 70.1243 162.533 70.6018C162.533 71.0792 162.193 71.3716 161.704 71.3716ZM171.898 79.0464H170.771V74.9584C170.771 73.9617 170.251 73.6991 169.631 73.6991C168.914 73.6991 168.342 74.0512 167.882 74.5824V79.0464H166.754V72.9173H167.709L167.81 73.7946H167.96C168.443 73.2754 169.082 72.7741 170.12 72.7741C171.212 72.7741 171.898 73.3291 171.898 74.66V79.0464ZM173.738 75.6984C173.738 73.914 174.687 72.7741 176.179 72.7741C177.08 72.7741 177.701 73.1859 178.095 73.729H178.256L178.345 72.9173H179.3V78.7002C179.3 80.7114 178.327 81.4992 176.537 81.4992C174.848 81.4992 174.114 80.8069 173.893 79.87L174.92 79.6372C175.146 80.3414 175.695 80.6637 176.537 80.6637C177.48 80.6637 178.172 80.2579 178.172 78.8196V77.6439H178.101C177.659 78.187 177.02 78.5988 176.131 78.5988C174.639 78.5988 173.738 77.4291 173.738 75.6984ZM174.902 75.6984C174.902 76.9039 175.51 77.638 176.603 77.638C177.152 77.638 177.659 77.447 178.172 76.9337V74.4272C177.671 73.914 177.158 73.729 176.62 73.729C175.546 73.729 174.902 74.4511 174.902 75.6984ZM184.13 79.2553C183.521 79.2553 183.025 78.8494 183.025 78.1751C183.025 77.4947 183.521 77.1068 184.13 77.1068C184.744 77.1068 185.234 77.4947 185.234 78.1751C185.234 78.8494 184.744 79.2553 184.13 79.2553ZM191.883 79.0464H190.725V71.312H188.082V70.3332H194.521V71.312H191.883V79.0464ZM198.79 72.7741C200.287 72.7741 201.165 73.2694 201.165 74.7137V77.7513C201.165 78.193 201.332 78.3064 201.893 78.2228V79.0464C201.612 79.1299 201.356 79.1657 201.129 79.1657C200.389 79.1657 200.144 78.7719 200.102 78.2825H199.995C199.5 78.7301 198.873 79.1896 197.882 79.1896C196.749 79.1896 196.026 78.5809 196.026 77.5365C196.026 75.8237 197.954 75.6029 200.037 75.6148V74.7793C200.037 73.7946 199.482 73.5738 198.67 73.5798C197.894 73.5857 197.304 73.8066 197.292 74.6242V74.8867H196.235V74.5645C196.235 73.5141 196.957 72.7741 198.79 72.7741ZM197.208 77.3992C197.208 78.008 197.65 78.3362 198.39 78.3362C199.034 78.3362 199.536 78.0856 200.037 77.7215V76.2773C199.846 76.2594 199.649 76.2474 199.47 76.2474C198.061 76.2474 197.208 76.5578 197.208 77.3992ZM206.358 72.7741C207.976 72.7741 208.907 73.359 208.954 74.6003L207.928 74.6719C207.85 73.9737 207.313 73.6156 206.281 73.6156C205.35 73.6156 204.765 73.8901 204.765 74.469C204.765 74.9942 205.26 75.209 206.627 75.4895C208.262 75.8237 209.026 76.1997 209.026 77.2679C209.026 78.4198 208.113 79.1836 206.311 79.1836C204.616 79.1836 203.649 78.7002 203.374 77.2679L204.413 77.1367C204.699 78.2109 205.481 78.3123 206.364 78.3123C207.462 78.3123 207.898 77.8767 207.898 77.3933C207.898 76.8562 207.385 76.6652 205.929 76.3668C204.454 76.0624 203.685 75.6208 203.685 74.5704C203.685 73.4783 204.514 72.7741 206.358 72.7741ZM212.292 79.0464H211.164V69.9155H212.292V75.2926H213.491L215.562 72.9173H216.851L214.387 75.7103V75.7879L217.102 79.0464H215.735L213.372 76.2057H212.292V79.0464ZM221.161 72.7741C222.779 72.7741 223.71 73.359 223.758 74.6003L222.731 74.6719C222.653 73.9737 222.116 73.6156 221.084 73.6156C220.153 73.6156 219.568 73.8901 219.568 74.469C219.568 74.9942 220.063 75.209 221.43 75.4895C223.065 75.8237 223.829 76.1997 223.829 77.2679C223.829 78.4198 222.916 79.1836 221.114 79.1836C219.419 79.1836 218.452 78.7002 218.178 77.2679L219.216 77.1367C219.502 78.2109 220.284 78.3123 221.167 78.3123C222.266 78.3123 222.701 77.8767 222.701 77.3933C222.701 76.8562 222.188 76.6652 220.732 76.3668C219.258 76.0624 218.488 75.6208 218.488 74.5704C218.488 73.4783 219.317 72.7741 221.161 72.7741ZM228.557 79.2553C227.895 79.2553 227.423 78.8375 227.423 78.1751C227.423 77.4947 227.913 77.1068 228.533 77.1068C229.208 77.1068 229.757 77.5544 229.757 78.551C229.757 79.8282 228.862 80.9442 227.883 81.6902L227.316 81.2187C228.098 80.5742 228.647 79.9296 228.838 79.2254C228.742 79.2433 228.653 79.2553 228.557 79.2553ZM228.545 74.5824C227.936 74.5824 227.441 74.1766 227.441 73.5082C227.441 72.8278 227.936 72.4339 228.545 72.4339C229.154 72.4339 229.649 72.8278 229.649 73.5082C229.649 74.1766 229.154 74.5824 228.545 74.5824ZM64.2176 115.046H63.0598V106.333H65.6797C67.4223 106.333 68.6995 106.972 68.6995 108.768C68.6995 110.559 67.6611 111.854 65.2142 111.854H64.2176V115.046ZM65.256 110.929C66.9151 110.929 67.5298 110.147 67.5298 108.911C67.5298 107.676 66.8017 107.246 65.447 107.246H64.2176V110.929H65.256ZM70.533 108.917H71.661V112.999C71.661 114.002 72.1802 114.259 72.8008 114.259C73.517 114.259 74.0899 113.912 74.5494 113.381V108.917H75.6774V115.046H74.7225L74.6211 114.169H74.4719C73.9885 114.682 73.3499 115.184 72.3115 115.184C71.2193 115.184 70.533 114.629 70.533 113.304V108.917ZM77.7676 115.046V114.133H79.9399L79.9458 106.811H77.7676V105.915L80.9246 105.784L81.0738 105.921V114.133H83.2461V115.046H77.7676ZM85.3363 108.917H86.4642V112.999C86.4642 114.002 86.9834 114.259 87.6041 114.259C88.3202 114.259 88.8932 113.912 89.3527 113.381V108.917H90.4806V115.046H89.5258L89.4243 114.169H89.2751C88.7917 114.682 88.1531 115.184 87.1147 115.184C86.0226 115.184 85.3363 114.629 85.3363 113.304V108.917ZM96.3425 115.046H95.2802V110.499C95.2802 109.89 94.946 109.729 94.6059 109.729C94.1642 109.729 93.8121 110.009 93.5615 110.409V115.046H92.5111V108.917H93.3944L93.4839 109.801H93.5734C93.8718 109.204 94.4029 108.78 95.1131 108.78C95.7636 108.78 96.2053 109.108 96.3067 109.801H96.3664C96.6648 109.204 97.1721 108.78 97.8882 108.78C98.6282 108.78 99.0997 109.21 99.1057 110.135L99.1116 115.046H98.0493V110.499C98.0493 109.89 97.7151 109.729 97.369 109.729C96.9274 109.729 96.5812 110.003 96.3306 110.397L96.3425 115.046ZM101.035 115.046V114.139H102.676V109.813H101.035V108.917L103.661 108.78L103.81 108.923V114.139H105.451V115.046H101.035ZM103.028 107.396C102.533 107.396 102.192 107.103 102.192 106.626C102.192 106.148 102.533 105.862 103.028 105.862C103.517 105.862 103.858 106.148 103.858 106.626C103.858 107.103 103.517 107.396 103.028 107.396ZM110.131 115.255C109.469 115.255 108.997 114.838 108.997 114.175C108.997 113.495 109.487 113.107 110.107 113.107C110.782 113.107 111.331 113.554 111.331 114.551C111.331 115.828 110.436 116.944 109.457 117.69L108.89 117.219C109.672 116.574 110.221 115.93 110.412 115.225C110.316 115.243 110.227 115.255 110.131 115.255ZM110.119 110.582C109.511 110.582 109.015 110.177 109.015 109.508C109.015 108.828 109.511 108.434 110.119 108.434C110.728 108.434 111.223 108.828 111.223 109.508C111.223 110.177 110.728 110.582 110.119 110.582ZM64.2176 133.046H63.0598V124.333H65.6797C67.4223 124.333 68.6995 124.972 68.6995 126.768C68.6995 128.559 67.6611 129.854 65.2142 129.854H64.2176V133.046ZM65.256 128.929C66.9151 128.929 67.5298 128.147 67.5298 126.911C67.5298 125.676 66.8017 125.246 65.447 125.246H64.2176V128.929H65.256ZM70.533 126.917H71.661V130.999C71.661 132.002 72.1802 132.259 72.8008 132.259C73.517 132.259 74.0899 131.912 74.5494 131.381V126.917H75.6774V133.046H74.7225L74.6211 132.169H74.4719C73.9885 132.682 73.3499 133.184 72.3115 133.184C71.2193 133.184 70.533 132.629 70.533 131.304V126.917ZM77.7676 133.046V132.133H79.9399L79.9458 124.811H77.7676V123.915L80.9246 123.784L81.0738 123.921V132.133H83.2461V133.046H77.7676ZM85.3363 126.917H86.4642V130.999C86.4642 132.002 86.9834 132.259 87.6041 132.259C88.3202 132.259 88.8932 131.912 89.3527 131.381V126.917H90.4806V133.046H89.5258L89.4243 132.169H89.2751C88.7917 132.682 88.1531 133.184 87.1147 133.184C86.0226 133.184 85.3363 132.629 85.3363 131.304V126.917ZM96.3425 133.046H95.2802V128.499C95.2802 127.89 94.946 127.729 94.6059 127.729C94.1642 127.729 93.8121 128.009 93.5615 128.409V133.046H92.5111V126.917H93.3944L93.4839 127.801H93.5734C93.8718 127.204 94.4029 126.78 95.1131 126.78C95.7636 126.78 96.2053 127.108 96.3067 127.801H96.3664C96.6648 127.204 97.1721 126.78 97.8882 126.78C98.6282 126.78 99.0997 127.21 99.1057 128.135L99.1116 133.046H98.0493V128.499C98.0493 127.89 97.7151 127.729 97.369 127.729C96.9274 127.729 96.5812 128.003 96.3306 128.397L96.3425 133.046ZM101.035 133.046V132.139H102.676V127.813H101.035V126.917L103.661 126.78L103.81 126.923V132.139H105.451V133.046H101.035ZM103.028 125.396C102.533 125.396 102.192 125.103 102.192 124.626C102.192 124.148 102.533 123.862 103.028 123.862C103.517 123.862 103.858 124.148 103.858 124.626C103.858 125.103 103.517 125.396 103.028 125.396ZM110.113 133.255C109.505 133.255 109.009 132.849 109.009 132.175C109.009 131.495 109.505 131.107 110.113 131.107C110.728 131.107 111.217 131.495 111.217 132.175C111.217 132.849 110.728 133.255 110.113 133.255ZM120.893 133.046H119.687L118.965 130.665H116.011L115.295 133.046H114.137L116.882 124.333H118.136L120.893 133.046ZM116.274 129.782H118.703L117.521 125.879H117.449L116.274 129.782ZM122.243 126.917H127.357V127.58L123.783 132.133H127.59V133.046H122.243V132.378L125.812 127.83H122.243V126.917ZM129.746 126.917H130.874V130.999C130.874 132.002 131.393 132.259 132.014 132.259C132.73 132.259 133.303 131.912 133.762 131.381V126.917H134.89V133.046H133.935L133.834 132.169H133.685C133.201 132.682 132.563 133.184 131.524 133.184C130.432 133.184 129.746 132.629 129.746 131.304V126.917ZM139.463 126.917L139.559 127.789H139.714C140.346 127.132 140.955 126.774 142.029 126.774C142.25 126.774 142.435 126.792 142.62 126.828V127.884C141.26 127.884 140.537 127.974 139.636 128.594V132.133H141.809V133.046H136.879V132.133H138.508V127.83H136.879V126.917H139.463ZM144.131 129.973C144.131 127.902 145.367 126.774 147.253 126.774C148.989 126.774 150.004 127.681 150.004 129.484V130.021H145.289C145.307 131.513 146.017 132.265 147.217 132.265C147.999 132.265 148.59 131.948 148.882 131.25L149.98 131.435C149.562 132.581 148.56 133.19 147.211 133.19C145.379 133.19 144.131 132.08 144.131 129.973ZM145.349 129.269H148.9C148.894 128.177 148.178 127.699 147.217 127.699C146.214 127.699 145.546 128.23 145.349 129.269ZM154.523 133.255C153.914 133.255 153.419 132.849 153.419 132.175C153.419 131.495 153.914 131.107 154.523 131.107C155.138 131.107 155.627 131.495 155.627 132.175C155.627 132.849 155.138 133.255 154.523 133.255ZM160.057 128.696C160.057 131.244 160.892 132.163 162.086 132.163C163.136 132.163 163.745 131.429 163.84 130.2L164.938 130.289C164.867 132.103 163.769 133.184 162.056 133.184C160.152 133.184 158.851 131.781 158.851 128.696C158.851 125.592 160.14 124.196 162.056 124.196C163.763 124.196 164.867 125.276 164.938 127.067L163.84 127.156C163.745 125.951 163.136 125.216 162.086 125.216C160.892 125.216 160.057 126.13 160.057 128.696ZM172.316 129.991C172.316 132.139 170.973 133.19 169.326 133.19C167.685 133.19 166.336 132.139 166.336 129.991C166.336 127.848 167.685 126.774 169.326 126.774C170.973 126.774 172.316 127.848 172.316 129.991ZM171.152 129.991C171.152 128.427 170.4 127.699 169.326 127.699C168.252 127.699 167.494 128.427 167.494 129.991C167.494 131.554 168.252 132.265 169.326 132.265C170.4 132.265 171.152 131.554 171.152 129.991ZM176.471 126.917L176.567 127.789H176.722C177.355 127.132 177.963 126.774 179.037 126.774C179.258 126.774 179.443 126.792 179.628 126.828V127.884C178.268 127.884 177.546 127.974 176.644 128.594V132.133H178.817V133.046H173.887V132.133H175.516V127.83H173.887V126.917H176.471ZM181.14 129.973C181.14 127.902 182.375 126.774 184.261 126.774C185.997 126.774 187.012 127.681 187.012 129.484V130.021H182.297C182.315 131.513 183.025 132.265 184.225 132.265C185.007 132.265 185.598 131.948 185.89 131.25L186.988 131.435C186.57 132.581 185.568 133.19 184.219 133.19C182.387 133.19 181.14 132.08 181.14 129.973ZM182.357 129.269H185.908C185.902 128.177 185.186 127.699 184.225 127.699C183.222 127.699 182.554 128.23 182.357 129.269ZM191.549 133.255C190.887 133.255 190.415 132.838 190.415 132.175C190.415 131.495 190.905 131.107 191.525 131.107C192.2 131.107 192.749 131.554 192.749 132.551C192.749 133.828 191.853 134.944 190.875 135.69L190.308 135.219C191.09 134.574 191.639 133.93 191.83 133.225C191.734 133.243 191.645 133.255 191.549 133.255ZM191.537 128.582C190.928 128.582 190.433 128.177 190.433 127.508C190.433 126.828 190.928 126.434 191.537 126.434C192.146 126.434 192.641 126.828 192.641 127.508C192.641 128.177 192.146 128.582 191.537 128.582ZM64.2176 151.046H63.0598V142.333H65.6797C67.4223 142.333 68.6995 142.972 68.6995 144.768C68.6995 146.559 67.6611 147.854 65.2142 147.854H64.2176V151.046ZM65.256 146.929C66.9151 146.929 67.5298 146.147 67.5298 144.911C67.5298 143.676 66.8017 143.246 65.447 143.246H64.2176V146.929H65.256ZM70.533 144.917H71.661V148.999C71.661 150.002 72.1802 150.259 72.8008 150.259C73.517 150.259 74.0899 149.912 74.5494 149.381V144.917H75.6774V151.046H74.7225L74.6211 150.169H74.4719C73.9885 150.682 73.3499 151.184 72.3115 151.184C71.2193 151.184 70.533 150.629 70.533 149.304V144.917ZM77.7676 151.046V150.133H79.9399L79.9458 142.811H77.7676V141.915L80.9246 141.784L81.0738 141.921V150.133H83.2461V151.046H77.7676ZM85.3363 144.917H86.4642V148.999C86.4642 150.002 86.9834 150.259 87.6041 150.259C88.3202 150.259 88.8932 149.912 89.3527 149.381V144.917H90.4806V151.046H89.5258L89.4243 150.169H89.2751C88.7917 150.682 88.1531 151.184 87.1147 151.184C86.0226 151.184 85.3363 150.629 85.3363 149.304V144.917ZM96.3425 151.046H95.2802V146.499C95.2802 145.89 94.946 145.729 94.6059 145.729C94.1642 145.729 93.8121 146.009 93.5615 146.409V151.046H92.5111V144.917H93.3944L93.4839 145.801H93.5734C93.8718 145.204 94.4029 144.78 95.1131 144.78C95.7636 144.78 96.2053 145.108 96.3067 145.801H96.3664C96.6648 145.204 97.1721 144.78 97.8882 144.78C98.6282 144.78 99.0997 145.21 99.1057 146.135L99.1116 151.046H98.0493V146.499C98.0493 145.89 97.7151 145.729 97.369 145.729C96.9274 145.729 96.5812 146.003 96.3306 146.397L96.3425 151.046ZM101.035 151.046V150.139H102.676V145.813H101.035V144.917L103.661 144.78L103.81 144.923V150.139H105.451V151.046H101.035ZM103.028 143.396C102.533 143.396 102.192 143.103 102.192 142.626C102.192 142.148 102.533 141.862 103.028 141.862C103.517 141.862 103.858 142.148 103.858 142.626C103.858 143.103 103.517 143.396 103.028 143.396ZM110.113 151.255C109.505 151.255 109.009 150.849 109.009 150.175C109.009 149.495 109.505 149.107 110.113 149.107C110.728 149.107 111.217 149.495 111.217 150.175C111.217 150.849 110.728 151.255 110.113 151.255ZM120.893 151.046H119.687L118.965 148.665H116.011L115.295 151.046H114.137L116.882 142.333H118.136L120.893 151.046ZM116.274 147.782H118.703L117.521 143.879H117.449L116.274 147.782ZM122.243 144.917H127.357V145.58L123.783 150.133H127.59V151.046H122.243V150.378L125.812 145.83H122.243V144.917ZM129.746 144.917H130.874V148.999C130.874 150.002 131.393 150.259 132.014 150.259C132.73 150.259 133.303 149.912 133.762 149.381V144.917H134.89V151.046H133.935L133.834 150.169H133.685C133.201 150.682 132.563 151.184 131.524 151.184C130.432 151.184 129.746 150.629 129.746 149.304V144.917ZM139.463 144.917L139.559 145.789H139.714C140.346 145.132 140.955 144.774 142.029 144.774C142.25 144.774 142.435 144.792 142.62 144.828V145.884C141.26 145.884 140.537 145.974 139.636 146.594V150.133H141.809V151.046H136.879V150.133H138.508V145.83H136.879V144.917H139.463ZM144.131 147.973C144.131 145.902 145.367 144.774 147.253 144.774C148.989 144.774 150.004 145.681 150.004 147.484V148.021H145.289C145.307 149.513 146.017 150.265 147.217 150.265C147.999 150.265 148.59 149.948 148.882 149.25L149.98 149.435C149.562 150.581 148.56 151.19 147.211 151.19C145.379 151.19 144.131 150.08 144.131 147.973ZM145.349 147.269H148.9C148.894 146.177 148.178 145.699 147.217 145.699C146.214 145.699 145.546 146.23 145.349 147.269ZM154.523 151.255C153.914 151.255 153.419 150.849 153.419 150.175C153.419 149.495 153.914 149.107 154.523 149.107C155.138 149.107 155.627 149.495 155.627 150.175C155.627 150.849 155.138 151.255 154.523 151.255ZM163.846 144.637C163.727 143.569 163.148 143.151 162.086 143.151C160.946 143.151 160.379 143.569 160.379 144.374C160.379 145.174 160.922 145.478 162.319 146.039C163.96 146.696 165.016 147.227 165.016 148.659C165.016 150.109 163.978 151.19 161.913 151.19C159.89 151.19 158.935 150.187 158.833 148.606L159.979 148.468C160.116 149.674 160.743 150.211 161.96 150.211C163.184 150.211 163.805 149.68 163.805 148.785C163.805 147.901 163.076 147.627 161.674 147.066C160.266 146.493 159.215 145.878 159.215 144.464C159.215 142.978 160.301 142.19 162.169 142.19C163.715 142.19 164.897 142.817 164.974 144.535L163.846 144.637ZM170.514 151.166C168.741 151.172 167.989 150.629 167.989 148.564V145.83H166.211V144.917H167.989V142.996H169.123V144.917H171.94V145.83H169.123V148.51C169.123 149.841 169.517 150.169 170.609 150.169C171.123 150.169 171.618 150.086 172.083 149.966V150.951C171.63 151.088 171.069 151.166 170.514 151.166ZM179.718 147.991C179.718 150.139 178.375 151.19 176.728 151.19C175.087 151.19 173.738 150.139 173.738 147.991C173.738 145.848 175.087 144.774 176.728 144.774C178.375 144.774 179.718 145.848 179.718 147.991ZM178.554 147.991C178.554 146.427 177.802 145.699 176.728 145.699C175.654 145.699 174.896 146.427 174.896 147.991C174.896 149.554 175.654 150.265 176.728 150.265C177.802 150.265 178.554 149.554 178.554 147.991ZM183.873 144.917L183.968 145.789H184.124C184.756 145.132 185.365 144.774 186.439 144.774C186.66 144.774 186.845 144.792 187.03 144.828V145.884C185.669 145.884 184.947 145.974 184.046 146.594V150.133H186.218V151.046H181.289V150.133H182.918V145.83H181.289V144.917H183.873ZM191.388 144.774C192.886 144.774 193.763 145.269 193.763 146.714V149.751C193.763 150.193 193.93 150.306 194.491 150.223V151.046C194.211 151.13 193.954 151.166 193.727 151.166C192.987 151.166 192.743 150.772 192.701 150.282H192.593C192.098 150.73 191.471 151.19 190.481 151.19C189.347 151.19 188.625 150.581 188.625 149.537C188.625 147.824 190.552 147.603 192.635 147.615V146.779C192.635 145.795 192.08 145.574 191.269 145.58C190.493 145.586 189.902 145.807 189.89 146.624V146.887H188.834V146.564C188.834 145.514 189.556 144.774 191.388 144.774ZM189.806 149.399C189.806 150.008 190.248 150.336 190.988 150.336C191.633 150.336 192.134 150.086 192.635 149.722V148.277C192.444 148.259 192.247 148.247 192.068 148.247C190.66 148.247 189.806 148.558 189.806 149.399ZM195.943 147.698C195.943 145.914 196.892 144.774 198.384 144.774C199.285 144.774 199.906 145.186 200.299 145.729H200.461L200.55 144.917H201.505V150.7C201.505 152.711 200.532 153.499 198.742 153.499C197.053 153.499 196.319 152.807 196.098 151.87L197.124 151.637C197.351 152.341 197.9 152.664 198.742 152.664C199.685 152.664 200.377 152.258 200.377 150.82V149.644H200.305C199.864 150.187 199.225 150.599 198.336 150.599C196.844 150.599 195.943 149.429 195.943 147.698ZM197.107 147.698C197.107 148.904 197.715 149.638 198.807 149.638C199.356 149.638 199.864 149.447 200.377 148.934V146.427C199.876 145.914 199.362 145.729 198.825 145.729C197.751 145.729 197.107 146.451 197.107 147.698ZM203.344 147.973C203.344 145.902 204.58 144.774 206.466 144.774C208.202 144.774 209.217 145.681 209.217 147.484V148.021H204.502C204.52 149.513 205.23 150.265 206.43 150.265C207.212 150.265 207.802 149.948 208.095 149.25L209.193 149.435C208.775 150.581 207.773 151.19 206.424 151.19C204.592 151.19 203.344 150.08 203.344 147.973ZM204.562 147.269H208.113C208.107 146.177 207.391 145.699 206.43 145.699C205.427 145.699 204.759 146.23 204.562 147.269ZM213.754 151.255C213.091 151.255 212.62 150.838 212.62 150.175C212.62 149.495 213.109 149.107 213.73 149.107C214.404 149.107 214.953 149.554 214.953 150.551C214.953 151.828 214.058 152.944 213.08 153.69L212.513 153.219C213.294 152.574 213.843 151.93 214.034 151.225C213.939 151.243 213.849 151.255 213.754 151.255ZM213.742 146.582C213.133 146.582 212.638 146.177 212.638 145.508C212.638 144.828 213.133 144.434 213.742 144.434C214.351 144.434 214.846 144.828 214.846 145.508C214.846 146.177 214.351 146.582 213.742 146.582ZM64.2176 187.046H63.0598V178.333H65.6797C67.4223 178.333 68.6995 178.972 68.6995 180.768C68.6995 182.559 67.6611 183.854 65.2142 183.854H64.2176V187.046ZM65.256 182.929C66.9151 182.929 67.5298 182.147 67.5298 180.911C67.5298 179.676 66.8017 179.246 65.447 179.246H64.2176V182.929H65.256ZM72.8486 180.917L72.9441 181.789H73.0992C73.7318 181.132 74.3406 180.774 75.4148 180.774C75.6356 180.774 75.8206 180.792 76.0056 180.828V181.884C74.6449 181.884 73.9228 181.974 73.0217 182.594V186.133H75.194V187.046H70.2645V186.133H71.8937V181.83H70.2645V180.917H72.8486ZM83.4968 183.991C83.4968 186.139 82.154 187.19 80.5068 187.19C78.8656 187.19 77.5169 186.139 77.5169 183.991C77.5169 181.848 78.8656 180.774 80.5068 180.774C82.154 180.774 83.4968 181.848 83.4968 183.991ZM82.333 183.991C82.333 182.427 81.5811 181.699 80.5068 181.699C79.4326 181.699 78.6747 182.427 78.6747 183.991C78.6747 185.554 79.4326 186.265 80.5068 186.265C81.5811 186.265 82.333 185.554 82.333 183.991ZM84.9185 183.698C84.9185 181.914 85.8674 180.774 87.3594 180.774C88.2606 180.774 88.8812 181.186 89.2751 181.729H89.4362L89.5258 180.917H90.4806V186.7C90.4806 188.711 89.5079 189.499 87.7175 189.499C86.0286 189.499 85.2945 188.807 85.0737 187.87L86.1002 187.637C86.3269 188.341 86.876 188.664 87.7175 188.664C88.6604 188.664 89.3527 188.258 89.3527 186.82V185.644H89.2811C88.8394 186.187 88.2009 186.599 87.3117 186.599C85.8197 186.599 84.9185 185.429 84.9185 183.698ZM86.0823 183.698C86.0823 184.904 86.691 185.638 87.7831 185.638C88.3322 185.638 88.8394 185.447 89.3527 184.934V182.427C88.8514 181.914 88.3381 181.729 87.801 181.729C86.7268 181.729 86.0823 182.451 86.0823 183.698ZM95.0534 180.917L95.1489 181.789H95.3041C95.9367 181.132 96.5454 180.774 97.6197 180.774C97.8405 180.774 98.0255 180.792 98.2105 180.828V181.884C96.8498 181.884 96.1277 181.974 95.2265 182.594V186.133H97.3988V187.046H92.4693V186.133H94.0986V181.83H92.4693V180.917H95.0534ZM102.568 180.774C104.066 180.774 104.944 181.269 104.944 182.714V185.751C104.944 186.193 105.111 186.306 105.672 186.223V187.046C105.391 187.13 105.135 187.166 104.908 187.166C104.168 187.166 103.923 186.772 103.881 186.282H103.774C103.279 186.73 102.652 187.19 101.661 187.19C100.527 187.19 99.8053 186.581 99.8053 185.537C99.8053 183.824 101.733 183.603 103.816 183.615V182.779C103.816 181.795 103.261 181.574 102.449 181.58C101.673 181.586 101.082 181.807 101.071 182.624V182.887H100.014V182.564C100.014 181.514 100.736 180.774 102.568 180.774ZM100.987 185.399C100.987 186.008 101.429 186.336 102.169 186.336C102.813 186.336 103.314 186.086 103.816 185.722V184.277C103.625 184.259 103.428 184.247 103.249 184.247C101.84 184.247 100.987 184.558 100.987 185.399ZM110.627 187.046H109.6V182.296C109.6 181.854 109.355 181.735 109.111 181.735C108.794 181.735 108.538 181.938 108.341 182.2V187.046H107.314V180.917H108.174L108.257 181.687H108.347C108.591 181.162 109.027 180.78 109.642 180.78C110.191 180.78 110.555 181.072 110.615 181.687H110.68C110.919 181.162 111.337 180.78 111.945 180.78C112.542 180.78 112.918 181.138 112.918 181.89V187.046H111.886V182.296C111.886 181.854 111.641 181.735 111.396 181.735C111.08 181.735 110.823 181.938 110.627 182.2V187.046ZM18.3815 202.009V200.911C20.5061 200.881 21.1626 200.099 20.7627 198.601L20.6434 198.171C20.1779 196.435 20.8761 195.486 22.5949 195.486H24.2062V196.357H22.9888C21.9503 196.357 21.4252 196.799 21.7832 198.297L21.8907 198.75C22.2666 200.302 21.5564 201.215 20.0764 201.46C21.5564 201.698 22.2607 202.611 21.8907 204.163L21.7832 204.623C21.4252 206.121 21.9503 206.556 22.9888 206.556H24.2062V207.434H22.5949C20.8761 207.434 20.1719 206.479 20.6434 204.742L20.7627 204.318C21.1685 202.82 20.5061 202.045 18.3815 202.009ZM88.2606 223.046H87.1028V215.312H84.459V214.333H90.8984V215.312H88.2606V223.046ZM95.1668 216.774C96.6648 216.774 97.5421 217.269 97.5421 218.714V221.751C97.5421 222.193 97.7092 222.306 98.2702 222.223V223.046C97.9897 223.13 97.733 223.166 97.5063 223.166C96.7662 223.166 96.5216 222.772 96.4798 222.282H96.3724C95.877 222.73 95.2504 223.19 94.2597 223.19C93.1258 223.19 92.4037 222.581 92.4037 221.537C92.4037 219.824 94.3313 219.603 96.4141 219.615V218.779C96.4141 217.795 95.8591 217.574 95.0475 217.58C94.2716 217.586 93.6808 217.807 93.6689 218.624V218.887H92.6126V218.564C92.6126 217.514 93.3347 216.774 95.1668 216.774ZM93.5853 221.399C93.5853 222.008 94.027 222.336 94.767 222.336C95.4115 222.336 95.9128 222.086 96.4141 221.722V220.277C96.2232 220.259 96.0262 220.247 95.8472 220.247C94.4387 220.247 93.5853 220.558 93.5853 221.399ZM102.736 216.774C104.353 216.774 105.284 217.359 105.332 218.6L104.305 218.672C104.228 217.974 103.69 217.616 102.658 217.616C101.727 217.616 101.142 217.89 101.142 218.469C101.142 218.994 101.637 219.209 103.004 219.49C104.639 219.824 105.403 220.2 105.403 221.268C105.403 222.42 104.49 223.184 102.688 223.184C100.993 223.184 100.026 222.7 99.7516 221.268L100.79 221.137C101.076 222.211 101.858 222.312 102.742 222.312C103.84 222.312 104.275 221.877 104.275 221.393C104.275 220.856 103.762 220.665 102.306 220.367C100.832 220.062 100.062 219.621 100.062 218.57C100.062 217.478 100.891 216.774 102.736 216.774ZM108.669 223.046H107.541V213.915H108.669V219.293H109.869L111.939 216.917H113.229L110.764 219.71V219.788L113.479 223.046H112.113L109.749 220.206H108.669V223.046ZM119.472 215.425L120.039 216.219L115.987 219.102V219.179L120.039 222.062L119.472 222.855L114.847 219.573V218.708L119.472 215.425ZM145.164 222.855L144.597 222.062L148.649 219.179V219.102L144.597 216.219L145.164 215.425L149.789 218.708V219.573L145.164 222.855ZM158.38 214.333H159.627L161.567 218.857H161.638L163.584 214.333H164.777V223.046H163.799V216.046H163.709L161.787 220.635H161.334L159.406 216.046H159.335V223.046H158.38V214.333ZM169.183 216.774C170.681 216.774 171.558 217.269 171.558 218.714V221.751C171.558 222.193 171.725 222.306 172.286 222.223V223.046C172.006 223.13 171.749 223.166 171.522 223.166C170.782 223.166 170.538 222.772 170.496 222.282H170.389C169.893 222.73 169.267 223.19 168.276 223.19C167.142 223.19 166.42 222.581 166.42 221.537C166.42 219.824 168.348 219.603 170.43 219.615V218.779C170.43 217.795 169.875 217.574 169.064 217.58C168.288 217.586 167.697 217.807 167.685 218.624V218.887H166.629V218.564C166.629 217.514 167.351 216.774 169.183 216.774ZM167.602 221.399C167.602 222.008 168.043 222.336 168.783 222.336C169.428 222.336 169.929 222.086 170.43 221.722V220.277C170.239 220.259 170.042 220.247 169.863 220.247C168.455 220.247 167.602 220.558 167.602 221.399ZM173.989 223.046V222.133H176.161V217.813H173.989V216.917L177.146 216.78L177.295 216.923V222.133H179.467V223.046H173.989ZM176.507 215.372C176.012 215.372 175.672 215.079 175.672 214.602C175.672 214.124 176.012 213.838 176.507 213.838C176.996 213.838 177.337 214.124 177.337 214.602C177.337 215.079 176.996 215.372 176.507 215.372ZM186.702 223.046H185.574V218.958C185.574 217.962 185.055 217.699 184.434 217.699C183.718 217.699 183.145 218.051 182.685 218.582V223.046H181.557V216.917H182.512L182.614 217.795H182.763C183.246 217.275 183.885 216.774 184.923 216.774C186.015 216.774 186.702 217.329 186.702 218.66V223.046ZM191.131 219.46C191.131 222.456 192.48 224.037 194.062 225.434H192.993C191.549 224.3 189.997 222.611 189.997 219.46C189.997 216.321 191.549 214.62 192.993 213.486H194.062C192.48 214.882 191.131 216.464 191.131 219.46ZM199.333 219.46C199.333 216.464 197.984 214.882 196.402 213.486H197.471C198.915 214.62 200.467 216.309 200.467 219.46C200.467 222.599 198.915 224.3 197.471 225.434H196.402C197.984 224.037 199.333 222.456 199.333 219.46ZM309.957 223.255C309.348 223.255 308.853 222.849 308.853 222.175C308.853 221.495 309.348 221.107 309.957 221.107C310.572 221.107 311.061 221.495 311.061 222.175C311.061 222.849 310.572 223.255 309.957 223.255ZM315.873 223.046H314.715V214.333H317.341C319.095 214.333 320.301 215.043 320.301 216.702C320.301 218.021 319.603 218.994 318.278 219.37L320.587 223.046H319.197L317.162 219.537L316.935 219.543H315.873V223.046ZM316.899 218.642C318.522 218.642 319.113 217.902 319.113 216.816C319.113 215.67 318.403 215.246 317.042 215.246H315.873V218.642H316.899ZM322.188 216.917H323.316V220.999C323.316 222.002 323.835 222.259 324.456 222.259C325.172 222.259 325.745 221.912 326.205 221.381V216.917H327.332V223.046H326.378L326.276 222.169H326.127C325.644 222.682 325.005 223.184 323.967 223.184C322.874 223.184 322.188 222.629 322.188 221.304V216.917ZM334.734 223.046H333.606V218.958C333.606 217.962 333.087 217.699 332.466 217.699C331.75 217.699 331.177 218.051 330.718 218.582V223.046H329.59V216.917H330.545L330.646 217.795H330.795C331.279 217.275 331.917 216.774 332.956 216.774C334.048 216.774 334.734 217.329 334.734 218.66V223.046ZM342.941 223.046H341.736L341.014 220.665H338.06L337.343 223.046H336.186L338.931 214.333H340.184L342.941 223.046ZM338.322 219.782H340.751L339.57 215.879H339.498L338.322 219.782ZM346.989 216.774C348.606 216.774 349.537 217.359 349.585 218.6L348.559 218.672C348.481 217.974 347.944 217.616 346.911 217.616C345.98 217.616 345.396 217.89 345.396 218.469C345.396 218.994 345.891 219.209 347.258 219.49C348.893 219.824 349.657 220.2 349.657 221.268C349.657 222.42 348.744 223.184 346.941 223.184C345.246 223.184 344.28 222.7 344.005 221.268L345.044 221.137C345.33 222.211 346.112 222.312 346.995 222.312C348.093 222.312 348.529 221.877 348.529 221.393C348.529 220.856 348.016 220.665 346.559 220.367C345.085 220.062 344.315 219.621 344.315 218.57C344.315 217.478 345.145 216.774 346.989 216.774ZM351.204 216.917H352.421L354.492 221.71H354.576L356.384 216.917H357.524L355.155 222.951C354.588 224.401 353.794 225.499 352.129 225.499C351.848 225.499 351.622 225.463 351.407 225.416V224.407C351.639 224.467 351.878 224.503 352.153 224.503C353.179 224.503 353.627 223.954 353.842 223.41L353.937 223.148L351.204 216.917ZM364.341 223.046H363.213V218.958C363.213 217.962 362.693 217.699 362.073 217.699C361.357 217.699 360.784 218.051 360.324 218.582V223.046H359.196V216.917H360.151L360.253 217.795H360.402C360.885 217.275 361.524 216.774 362.562 216.774C363.654 216.774 364.341 217.329 364.341 218.66V223.046ZM372.094 221.178C371.754 222.533 370.638 223.19 369.242 223.19C367.433 223.19 366.18 222.092 366.18 219.967C366.18 217.83 367.457 216.774 369.301 216.774C370.799 216.774 371.939 217.472 372.094 218.946L370.978 219.042C370.835 218.099 370.167 217.699 369.272 217.699C368.006 217.699 367.344 218.499 367.344 219.967C367.344 221.519 368.084 222.265 369.248 222.265C370.137 222.265 370.752 221.835 371.002 221.005L372.094 221.178ZM378.529 215.425L379.096 216.219L375.044 219.102V219.179L379.096 222.062L378.529 222.855L373.904 219.573V218.708L378.529 215.425ZM381.121 214.333H382.332L383.967 218.815H384.039L385.68 214.333H386.826V223.046H385.901V216.106H385.817L384.182 220.725H383.729L382.093 216.106H382.022V223.046H381.121V214.333ZM388.212 216.917H389.429L391.5 221.71H391.584L393.392 216.917H394.532L392.163 222.951C391.596 224.401 390.802 225.499 389.137 225.499C388.856 225.499 388.63 225.463 388.415 225.416V224.407C388.648 224.467 388.886 224.503 389.161 224.503C390.187 224.503 390.635 223.954 390.85 223.41L390.945 223.148L388.212 216.917ZM400.698 216.637C400.579 215.569 400 215.151 398.938 215.151C397.798 215.151 397.231 215.569 397.231 216.374C397.231 217.174 397.774 217.478 399.17 218.039C400.812 218.696 401.868 219.227 401.868 220.659C401.868 222.109 400.829 223.19 398.765 223.19C396.741 223.19 395.787 222.187 395.685 220.606L396.831 220.468C396.968 221.674 397.595 222.211 398.812 222.211C400.036 222.211 400.656 221.68 400.656 220.785C400.656 219.901 399.928 219.627 398.526 219.066C397.117 218.493 396.067 217.878 396.067 216.464C396.067 214.978 397.153 214.19 399.021 214.19C400.567 214.19 401.749 214.817 401.826 216.535L400.698 216.637ZM407.366 223.166C405.593 223.172 404.841 222.629 404.841 220.564V217.83H403.063V216.917H404.841V214.996H405.975V216.917H408.792V217.83H405.975V220.51C405.975 221.841 406.369 222.169 407.461 222.169C407.974 222.169 408.47 222.086 408.935 221.966V222.951C408.482 223.088 407.921 223.166 407.366 223.166ZM413.437 216.774C414.934 216.774 415.812 217.269 415.812 218.714V221.751C415.812 222.193 415.979 222.306 416.54 222.223V223.046C416.259 223.13 416.003 223.166 415.776 223.166C415.036 223.166 414.791 222.772 414.749 222.282H414.642C414.147 222.73 413.52 223.19 412.529 223.19C411.396 223.19 410.673 222.581 410.673 221.537C410.673 219.824 412.601 219.603 414.684 219.615V218.779C414.684 217.795 414.129 217.574 413.317 217.58C412.541 217.586 411.951 217.807 411.939 218.624V218.887H410.882V218.564C410.882 217.514 411.604 216.774 413.437 216.774ZM411.855 221.399C411.855 222.008 412.297 222.336 413.037 222.336C413.681 222.336 414.183 222.086 414.684 221.722V220.277C414.493 220.259 414.296 220.247 414.117 220.247C412.708 220.247 411.855 220.558 411.855 221.399ZM423.906 221.178C423.566 222.533 422.45 223.19 421.053 223.19C419.245 223.19 417.991 222.092 417.991 219.967C417.991 217.83 419.269 216.774 421.113 216.774C422.611 216.774 423.751 217.472 423.906 218.946L422.79 219.042C422.646 218.099 421.978 217.699 421.083 217.699C419.818 217.699 419.155 218.499 419.155 219.967C419.155 221.519 419.895 222.265 421.059 222.265C421.948 222.265 422.563 221.835 422.814 221.005L423.906 221.178ZM426.939 223.046H425.811V213.915H426.939V219.293H428.138L430.209 216.917H431.498L429.034 219.71V219.788L431.749 223.046H430.382L428.019 220.206H426.939V223.046ZM433.827 222.855L433.26 222.062L437.312 219.179V219.102L433.26 216.219L433.827 215.425L438.452 218.708V219.573L433.827 222.855ZM442.786 219.46C442.786 222.456 444.135 224.037 445.717 225.434H444.648C443.204 224.3 441.653 222.611 441.653 219.46C441.653 216.321 443.204 214.62 444.648 213.486H445.717C444.135 214.882 442.786 216.464 442.786 219.46ZM450.988 219.46C450.988 216.464 449.639 214.882 448.057 213.486H449.126C450.57 214.62 452.122 216.309 452.122 219.46C452.122 222.599 450.57 224.3 449.126 225.434H448.057C449.639 224.037 450.988 222.456 450.988 219.46ZM458.007 223.255C457.345 223.255 456.873 222.838 456.873 222.175C456.873 221.495 457.363 221.107 457.984 221.107C458.658 221.107 459.207 221.554 459.207 222.551C459.207 223.828 458.312 224.944 457.333 225.69L456.766 225.219C457.548 224.574 458.097 223.93 458.288 223.225C458.192 223.243 458.103 223.255 458.007 223.255ZM457.995 218.582C457.387 218.582 456.891 218.177 456.891 217.508C456.891 216.828 457.387 216.434 457.995 216.434C458.604 216.434 459.1 216.828 459.1 217.508C459.1 218.177 458.604 218.582 457.995 218.582ZM18.3815 243.434V242.556H19.599C20.6374 242.556 21.1626 242.121 20.8045 240.623L20.6971 240.163C20.3271 238.611 21.0313 237.698 22.5113 237.46C21.0313 237.215 20.3211 236.302 20.6971 234.75L20.8045 234.297C21.1626 232.799 20.6374 232.357 19.599 232.357H18.3815V231.486H19.9929C21.7116 231.486 22.4099 232.435 21.9444 234.171L21.825 234.601C21.4252 236.099 22.0816 236.881 24.2062 236.911V238.009C22.0816 238.045 21.4192 238.82 21.825 240.318L21.9444 240.742C22.4158 242.479 21.7116 243.434 19.9929 243.434H18.3815Z" fill="#B392F0"/>
<path d="M233.261 223.046V214.333H235.35C237.845 214.333 239.032 215.849 239.032 218.618C239.032 221.393 237.845 223.046 235.35 223.046H233.261ZM237.827 218.618C237.827 216.327 237.069 215.282 235.255 215.282H234.413V222.097H235.255C237.069 222.097 237.827 220.91 237.827 218.618ZM240.353 219.973C240.353 217.902 241.588 216.774 243.474 216.774C245.21 216.774 246.225 217.681 246.225 219.484V220.021H241.51C241.528 221.513 242.238 222.265 243.438 222.265C244.22 222.265 244.811 221.948 245.103 221.25L246.201 221.435C245.783 222.581 244.781 223.19 243.432 223.19C241.6 223.19 240.353 222.08 240.353 219.973ZM241.57 219.269H245.121C245.115 218.177 244.399 217.699 243.438 217.699C242.435 217.699 241.767 218.23 241.57 219.269ZM253.734 219.973C253.734 221.966 252.827 223.19 251.281 223.19C250.38 223.19 249.771 222.778 249.377 222.235H249.3V225.356H248.172V216.917H249.127L249.216 217.729H249.371C249.813 217.186 250.44 216.774 251.329 216.774C252.881 216.774 253.734 218.021 253.734 219.973ZM249.3 221.537C249.801 222.05 250.314 222.235 250.852 222.235C251.944 222.235 252.57 221.495 252.57 219.973C252.57 218.487 251.979 217.735 250.869 217.735C250.32 217.735 249.813 217.92 249.3 218.433V221.537ZM255.406 223.046V222.133H257.579L257.585 214.811H255.406V213.915L258.563 213.784L258.713 213.921V222.133H260.885V223.046H255.406ZM268.537 219.991C268.537 222.139 267.195 223.19 265.547 223.19C263.906 223.19 262.557 222.139 262.557 219.991C262.557 217.848 263.906 216.774 265.547 216.774C267.195 216.774 268.537 217.848 268.537 219.991ZM267.374 219.991C267.374 218.427 266.622 217.699 265.547 217.699C264.473 217.699 263.715 218.427 263.715 219.991C263.715 221.554 264.473 222.265 265.547 222.265C266.622 222.265 267.374 221.554 267.374 219.991ZM269.786 216.917H271.003L273.074 221.71H273.158L274.966 216.917H276.106L273.737 222.951C273.17 224.401 272.376 225.499 270.711 225.499C270.431 225.499 270.204 225.463 269.989 225.416V224.407C270.222 224.467 270.46 224.503 270.735 224.503C271.761 224.503 272.209 223.954 272.424 223.41L272.519 223.148L269.786 216.917ZM280.864 223.046H279.837V218.296C279.837 217.854 279.593 217.735 279.348 217.735C279.032 217.735 278.775 217.938 278.578 218.2V223.046H277.552V216.917H278.411L278.495 217.687H278.584C278.829 217.162 279.264 216.78 279.879 216.78C280.428 216.78 280.792 217.072 280.852 217.687H280.918C281.156 217.162 281.574 216.78 282.183 216.78C282.78 216.78 283.156 217.138 283.156 217.89V223.046H282.123V218.296C282.123 217.854 281.878 217.735 281.634 217.735C281.317 217.735 281.061 217.938 280.864 218.2V223.046ZM284.762 219.973C284.762 217.902 285.998 216.774 287.883 216.774C289.62 216.774 290.635 217.681 290.635 219.484V220.021H285.92C285.938 221.513 286.648 222.265 287.848 222.265C288.629 222.265 289.22 221.948 289.513 221.25L290.611 221.435C290.193 222.581 289.19 223.19 287.842 223.19C286.01 223.19 284.762 222.08 284.762 219.973ZM285.98 219.269H289.531C289.525 218.177 288.809 217.699 287.848 217.699C286.845 217.699 286.177 218.23 285.98 219.269ZM297.726 223.046H296.598V218.958C296.598 217.962 296.079 217.699 295.458 217.699C294.742 217.699 294.169 218.051 293.71 218.582V223.046H292.582V216.917H293.537L293.638 217.795H293.787C294.271 217.275 294.909 216.774 295.948 216.774C297.04 216.774 297.726 217.329 297.726 218.66V223.046ZM303.743 223.166C301.971 223.172 301.219 222.629 301.219 220.564V217.83H299.44V216.917H301.219V214.996H302.353V216.917H305.169V217.83H302.353V220.51C302.353 221.841 302.746 222.169 303.839 222.169C304.352 222.169 304.847 222.086 305.313 221.966V222.951C304.859 223.088 304.298 223.166 303.743 223.166Z" fill="#79B8FF"/>
<circle cx="19.7683" cy="22.1206" r="4.30679" stroke="#f6f5ff" stroke-width="1.04996"/>
<circle cx="33.5735" cy="22.1206" r="4.30679" stroke="#f6f5ff" stroke-width="1.04996"/>
<circle cx="47.3782" cy="22.1206" r="4.30679" stroke="#f6f5ff" stroke-width="1.04996"/>
<path d="M185.016 26.6206V25.7789H187.018V21.7958H185.016V20.9706L187.926 20.844L188.064 20.9761V25.7789H190.066V26.6206H185.016ZM187.338 19.5457C186.881 19.5457 186.567 19.2761 186.567 18.836C186.567 18.3959 186.881 18.1318 187.338 18.1318C187.789 18.1318 188.102 18.3959 188.102 18.836C188.102 19.2761 187.789 19.5457 187.338 19.5457ZM196.625 26.6206H195.586V22.8521C195.586 21.9333 195.107 21.6913 194.535 21.6913C193.875 21.6913 193.346 22.0159 192.923 22.5055V26.6206H191.883V20.9706H192.763L192.857 21.7793H192.994C193.44 21.3007 194.029 20.8385 194.986 20.8385C195.993 20.8385 196.625 21.3502 196.625 22.577V26.6206ZM203.724 18.869C203.3 18.77 202.92 18.7095 202.464 18.7095C201.506 18.7095 200.951 18.9735 200.951 20.3324V20.9706H203.52V21.8123H200.951V25.7789H202.953V26.6206H198.415V25.7789H199.911V21.8123H198.096V20.9706H199.911V20.4259C199.911 18.4674 200.863 17.7852 202.436 17.7852C202.882 17.7852 203.311 17.8402 203.724 17.9613V18.869ZM207.444 20.9706L207.532 21.7738H207.675C208.258 21.1686 208.819 20.8385 209.809 20.8385C210.013 20.8385 210.184 20.855 210.354 20.8881V21.8618C209.1 21.8618 208.434 21.9443 207.603 22.5165V25.7789H209.606V26.6206H205.062V25.7789H206.564V21.8123H205.062V20.9706H207.444ZM214.261 20.8385C215.642 20.8385 216.451 21.2952 216.451 22.6265V25.4268C216.451 25.8339 216.605 25.9384 217.122 25.8614V26.6206C216.864 26.6976 216.627 26.7306 216.418 26.7306C215.736 26.7306 215.51 26.3675 215.472 25.9164H215.373C214.916 26.329 214.338 26.7526 213.425 26.7526C212.38 26.7526 211.714 26.1915 211.714 25.2287C211.714 23.6498 213.491 23.4462 215.411 23.4572V22.687C215.411 21.7793 214.9 21.5757 214.151 21.5812C213.436 21.5867 212.892 21.7903 212.881 22.544V22.7861H211.907V22.489C211.907 21.5207 212.573 20.8385 214.261 20.8385ZM212.804 25.1022C212.804 25.6633 213.211 25.9659 213.893 25.9659C214.487 25.9659 214.949 25.7349 215.411 25.3993V24.0679C215.235 24.0514 215.054 24.0404 214.889 24.0404C213.59 24.0404 212.804 24.3265 212.804 25.1022ZM221.107 26.8132C220.545 26.8132 220.089 26.4391 220.089 25.8174C220.089 25.1902 220.545 24.8326 221.107 24.8326C221.673 24.8326 222.124 25.1902 222.124 25.8174C222.124 26.4391 221.673 26.8132 221.107 26.8132ZM230.515 24.8986C230.202 26.1475 229.173 26.7526 227.886 26.7526C226.219 26.7526 225.063 25.7404 225.063 23.7818C225.063 21.8123 226.241 20.8385 227.941 20.8385C229.322 20.8385 230.372 21.4822 230.515 22.8411L229.487 22.9291C229.355 22.0599 228.738 21.6913 227.913 21.6913C226.747 21.6913 226.136 22.4285 226.136 23.7818C226.136 25.2122 226.818 25.8999 227.891 25.8999C228.711 25.8999 229.278 25.5038 229.509 24.7391L230.515 24.8986ZM234.555 20.8385C236.046 20.8385 236.904 21.3777 236.948 22.522L236.002 22.588C235.93 21.9443 235.435 21.6142 234.483 21.6142C233.625 21.6142 233.086 21.8673 233.086 22.401C233.086 22.8851 233.543 23.0831 234.802 23.3417C236.31 23.6498 237.014 23.9964 237.014 24.9812C237.014 26.0429 236.172 26.7471 234.511 26.7471C232.948 26.7471 232.057 26.3015 231.804 24.9812L232.761 24.8601C233.025 25.8504 233.746 25.9439 234.56 25.9439C235.573 25.9439 235.974 25.5423 235.974 25.0967C235.974 24.6016 235.501 24.4255 234.159 24.1504C232.8 23.8699 232.09 23.4628 232.09 22.4945C232.09 21.4877 232.855 20.8385 234.555 20.8385Z" fill="#edebff"/>
<rect x="370.258" y="10.2262" width="103.624" height="23.7889" rx="5.89445" fill="#20054E"/>
<rect x="370.258" y="10.2262" width="103.624" height="23.7889" rx="5.89445" stroke="#f6f5ff" stroke-width="0.785927"/>
<path d="M383.736 25.1206V19.0334H384.545V24.4368H387.492V25.1206H383.736ZM390.445 20.7387C391.492 20.7387 392.104 21.0847 392.104 22.0937V24.2159C392.104 24.5244 392.221 24.6036 392.613 24.5452V25.1206C392.417 25.179 392.238 25.204 392.079 25.204C391.562 25.204 391.392 24.9288 391.362 24.5869H391.287C390.941 24.8996 390.503 25.2207 389.811 25.2207C389.019 25.2207 388.515 24.7954 388.515 24.0658C388.515 22.8692 389.861 22.7149 391.316 22.7233V22.1396C391.316 21.4516 390.929 21.2974 390.362 21.3015C389.82 21.3057 389.407 21.46 389.399 22.0312V22.2146H388.661V21.9895C388.661 21.2557 389.165 20.7387 390.445 20.7387ZM389.34 23.9699C389.34 24.3951 389.649 24.6245 390.166 24.6245C390.616 24.6245 390.966 24.4493 391.316 24.195V23.1861C391.183 23.1735 391.045 23.1652 390.92 23.1652C389.936 23.1652 389.34 23.382 389.34 23.9699ZM397.43 25.1206H396.642V22.2646C396.642 21.5684 396.279 21.3849 395.845 21.3849C395.345 21.3849 394.945 21.6309 394.624 22.002V25.1206H393.836V20.8387H394.503L394.574 21.4516H394.678C395.016 21.0889 395.462 20.7387 396.187 20.7387C396.95 20.7387 397.43 21.1264 397.43 22.0562V25.1206ZM398.631 22.7816C398.631 21.535 399.294 20.7387 400.337 20.7387C400.966 20.7387 401.4 21.0264 401.675 21.4058H401.788L401.85 20.8387H402.517V24.8788C402.517 26.2838 401.838 26.8342 400.587 26.8342C399.407 26.8342 398.894 26.3505 398.74 25.696L399.457 25.5334C399.615 26.0253 399.999 26.2505 400.587 26.2505C401.246 26.2505 401.729 25.967 401.729 24.9622V24.1408H401.679C401.371 24.5202 400.924 24.8079 400.303 24.8079C399.261 24.8079 398.631 23.9907 398.631 22.7816ZM399.444 22.7816C399.444 23.6238 399.87 24.1367 400.633 24.1367C401.016 24.1367 401.371 24.0032 401.729 23.6447V21.8936C401.379 21.535 401.02 21.4058 400.645 21.4058C399.895 21.4058 399.444 21.9103 399.444 22.7816ZM404.011 20.8387H404.799V23.6905C404.799 24.391 405.161 24.5703 405.595 24.5703C406.095 24.5703 406.496 24.3284 406.817 23.9574V20.8387H407.605V25.1206H406.938L406.867 24.5077H406.762C406.425 24.8663 405.979 25.2165 405.253 25.2165C404.49 25.2165 404.011 24.8288 404.011 23.9032V20.8387ZM410.795 20.7387C411.842 20.7387 412.455 21.0847 412.455 22.0937V24.2159C412.455 24.5244 412.571 24.6036 412.963 24.5452V25.1206C412.767 25.179 412.588 25.204 412.43 25.204C411.913 25.204 411.742 24.9288 411.712 24.5869H411.637C411.291 24.8996 410.854 25.2207 410.161 25.2207C409.369 25.2207 408.865 24.7954 408.865 24.0658C408.865 22.8692 410.211 22.7149 411.667 22.7233V22.1396C411.667 21.4516 411.279 21.2974 410.712 21.3015C410.17 21.3057 409.757 21.46 409.749 22.0312V22.2146H409.011V21.9895C409.011 21.2557 409.515 20.7387 410.795 20.7387ZM409.69 23.9699C409.69 24.3951 409.999 24.6245 410.516 24.6245C410.966 24.6245 411.316 24.4493 411.667 24.195V23.1861C411.533 23.1735 411.396 23.1652 411.27 23.1652C410.286 23.1652 409.69 23.382 409.69 23.9699ZM413.894 22.7816C413.894 21.535 414.557 20.7387 415.599 20.7387C416.229 20.7387 416.662 21.0264 416.937 21.4058H417.05L417.113 20.8387H417.78V24.8788C417.78 26.2838 417.1 26.8342 415.849 26.8342C414.669 26.8342 414.157 26.3505 414.002 25.696L414.719 25.5334C414.878 26.0253 415.261 26.2505 415.849 26.2505C416.508 26.2505 416.992 25.967 416.992 24.9622V24.1408H416.942C416.633 24.5202 416.187 24.8079 415.566 24.8079C414.523 24.8079 413.894 23.9907 413.894 22.7816ZM414.707 22.7816C414.707 23.6238 415.132 24.1367 415.895 24.1367C416.279 24.1367 416.633 24.0032 416.992 23.6447V21.8936C416.641 21.535 416.283 21.4058 415.908 21.4058C415.157 21.4058 414.707 21.9103 414.707 22.7816ZM418.981 22.9734C418.981 21.5267 419.844 20.7387 421.162 20.7387C422.375 20.7387 423.084 21.3724 423.084 22.6315V23.0068H419.79C419.803 24.0491 420.299 24.5744 421.137 24.5744C421.683 24.5744 422.096 24.3535 422.3 23.8656L423.067 23.9949C422.775 24.7954 422.075 25.2207 421.133 25.2207C419.853 25.2207 418.981 24.4452 418.981 22.9734ZM419.832 22.4814H422.313C422.309 21.7185 421.808 21.3849 421.137 21.3849C420.436 21.3849 419.97 21.756 419.832 22.4814ZM426.17 25.2457C425.741 25.2457 425.399 24.9622 425.399 24.4952C425.399 24.0199 425.741 23.7447 426.17 23.7447C426.596 23.7447 426.937 24.0199 426.937 24.4952C426.937 24.9622 426.596 25.2457 426.17 25.2457ZM426.17 22.002C425.741 22.002 425.399 21.7185 425.399 21.2515C425.399 20.7762 425.741 20.501 426.17 20.501C426.596 20.501 426.937 20.7762 426.937 21.2515C426.937 21.7185 426.596 22.002 426.17 22.002ZM435.028 22.0812C435.028 23.8615 435.611 24.5036 436.445 24.5036C437.179 24.5036 437.604 23.9907 437.671 23.1319L438.438 23.1944C438.388 24.4619 437.621 25.2165 436.424 25.2165C435.094 25.2165 434.186 24.2367 434.186 22.0812C434.186 19.9132 435.086 18.9375 436.424 18.9375C437.617 18.9375 438.388 19.6922 438.438 20.943L437.671 21.0055C437.604 20.1633 437.179 19.6505 436.445 19.6505C435.611 19.6505 435.028 20.2884 435.028 22.0812ZM440.411 25.9545H439.711L439.915 24.1492H439.123V23.4696H439.99L440.211 21.5183H439.423V20.8387H440.286L440.491 19.0334H441.195L440.991 20.8387H442.225L442.429 19.0334H443.13L442.925 20.8387H443.718V21.5183H442.85L442.629 23.4696H443.422V24.1492H442.554L442.35 25.9545H441.645L441.85 24.1492H440.616L440.411 25.9545ZM440.691 23.4696H441.925L442.15 21.5183H440.916L440.691 23.4696Z" fill="#edebff"/>
<path d="M459.342 21.3346L458.788 20.7805L456.985 22.5803L455.181 20.7805L454.627 21.3346L456.985 23.6924L459.342 21.3346Z" fill="white"/>
<rect x="448.461" y="75.4387" width="201.153" height="127.977" rx="6.07039" fill="white" stroke="#edebff"/>
<rect x="463.312" y="162.676" width="57.5784" height="25.0077" rx="6.22837" stroke="#C1D4BF" stroke-width="0.684046"/>
<path d="M473.305 132.935H472.146L471.452 130.646H468.612L467.923 132.935H466.81L469.449 124.558H470.654L473.305 132.935ZM468.864 129.797H471.199L470.063 126.044H469.994L468.864 129.797ZM474.489 127.042H479.406V127.679L475.969 132.057H479.63V132.935H474.489V132.293L477.92 127.92H474.489V127.042ZM481.588 127.042H482.672V130.967C482.672 131.931 483.171 132.178 483.768 132.178C484.457 132.178 485.008 131.845 485.449 131.334V127.042H486.534V132.935H485.616L485.518 132.092H485.375C484.91 132.585 484.296 133.067 483.298 133.067C482.248 133.067 481.588 132.534 481.588 131.26V127.042ZM490.816 127.042L490.908 127.88H491.057C491.665 127.249 492.25 126.905 493.283 126.905C493.495 126.905 493.673 126.922 493.851 126.956V127.972C492.543 127.972 491.849 128.058 490.982 128.655V132.057H493.071V132.935H488.331V132.057H489.898V127.92H488.331V127.042H490.816ZM495.189 129.98C495.189 127.989 496.377 126.905 498.19 126.905C499.86 126.905 500.836 127.777 500.836 129.51V130.026H496.303C496.32 131.461 497.003 132.184 498.156 132.184C498.908 132.184 499.476 131.88 499.757 131.208L500.813 131.386C500.411 132.488 499.447 133.073 498.15 133.073C496.389 133.073 495.189 132.006 495.189 129.98ZM496.36 129.303H499.774C499.768 128.253 499.08 127.794 498.156 127.794C497.192 127.794 496.549 128.305 496.36 129.303ZM509.526 132.935V124.558H512.125C513.663 124.552 514.598 125.091 514.598 126.354C514.598 127.697 513.582 128.322 512.825 128.454V128.5C513.812 128.574 515.074 128.993 515.074 130.52C515.074 132.017 513.955 132.935 511.981 132.935H509.526ZM510.639 132.075H511.735C513.141 132.075 513.927 131.639 513.927 130.508C513.927 129.274 512.98 128.965 511.735 128.965H510.639V132.075ZM510.639 128.138H511.683C512.825 128.138 513.468 127.565 513.468 126.606C513.468 125.86 512.997 125.419 511.735 125.419H510.639V128.138ZM516.435 132.935V132.057H518.524L518.53 125.017H516.435V124.156L519.471 124.03L519.614 124.162V132.057H521.703V132.935H516.435ZM528.946 129.997C528.946 132.063 527.655 133.073 526.071 133.073C524.493 133.073 523.196 132.063 523.196 129.997C523.196 127.938 524.493 126.905 526.071 126.905C527.655 126.905 528.946 127.938 528.946 129.997ZM527.827 129.997C527.827 128.494 527.104 127.794 526.071 127.794C525.038 127.794 524.309 128.494 524.309 129.997C524.309 131.501 525.038 132.184 526.071 132.184C527.104 132.184 527.827 131.501 527.827 129.997ZM535.947 129.98C535.947 131.897 535.075 133.073 533.589 133.073C532.723 133.073 532.137 132.677 531.759 132.155H531.604L531.518 132.935H530.599V124.156H531.684V127.823H531.753C532.177 127.301 532.78 126.905 533.635 126.905C535.127 126.905 535.947 128.104 535.947 129.98ZM531.684 131.484C532.166 131.977 532.659 132.155 533.176 132.155C534.226 132.155 534.828 131.443 534.828 129.98C534.828 128.551 534.26 127.829 533.193 127.829C532.665 127.829 532.177 128.006 531.684 128.5V131.484ZM548.924 126.773C548.809 125.746 548.252 125.344 547.231 125.344C546.135 125.344 545.59 125.746 545.59 126.52C545.59 127.289 546.112 127.582 547.455 128.121C549.033 128.752 550.048 129.263 550.048 130.64C550.048 132.034 549.05 133.073 547.064 133.073C545.119 133.073 544.201 132.109 544.104 130.588L545.205 130.457C545.337 131.616 545.94 132.132 547.11 132.132C548.287 132.132 548.883 131.621 548.883 130.761C548.883 129.911 548.183 129.647 546.835 129.108C545.481 128.557 544.471 127.966 544.471 126.606C544.471 125.178 545.515 124.42 547.311 124.42C548.797 124.42 549.933 125.023 550.008 126.675L548.924 126.773ZM555.219 133.05C553.515 133.056 552.792 132.534 552.792 130.548V127.92H551.082V127.042H552.792V125.195H553.882V127.042H556.591V127.92H553.882V130.497C553.882 131.776 554.261 132.092 555.311 132.092C555.805 132.092 556.281 132.011 556.728 131.897V132.843C556.292 132.975 555.753 133.05 555.219 133.05ZM563.954 129.997C563.954 132.063 562.663 133.073 561.079 133.073C559.501 133.073 558.204 132.063 558.204 129.997C558.204 127.938 559.501 126.905 561.079 126.905C562.663 126.905 563.954 127.938 563.954 129.997ZM562.835 129.997C562.835 128.494 562.112 127.794 561.079 127.794C560.046 127.794 559.318 128.494 559.318 129.997C559.318 131.501 560.046 132.184 561.079 132.184C562.112 132.184 562.835 131.501 562.835 129.997ZM567.834 127.042L567.926 127.88H568.075C568.683 127.249 569.269 126.905 570.301 126.905C570.514 126.905 570.692 126.922 570.87 126.956V127.972C569.561 127.972 568.867 128.058 568.001 128.655V132.057H570.089V132.935H565.35V132.057H566.916V127.92H565.35V127.042H567.834ZM574.945 126.905C576.385 126.905 577.229 127.381 577.229 128.77V131.69C577.229 132.115 577.389 132.224 577.929 132.143V132.935C577.659 133.016 577.412 133.05 577.194 133.05C576.483 133.05 576.247 132.671 576.207 132.201H576.104C575.628 132.631 575.025 133.073 574.073 133.073C572.982 133.073 572.288 132.488 572.288 131.484C572.288 129.837 574.142 129.624 576.144 129.636V128.833C576.144 127.886 575.61 127.674 574.83 127.679C574.084 127.685 573.516 127.897 573.505 128.683V128.936H572.489V128.626C572.489 127.616 573.183 126.905 574.945 126.905ZM573.424 131.352C573.424 131.937 573.849 132.252 574.56 132.252C575.18 132.252 575.662 132.011 576.144 131.661V130.273C575.96 130.256 575.771 130.244 575.599 130.244C574.245 130.244 573.424 130.543 573.424 131.352ZM579.209 129.716C579.209 128.001 580.122 126.905 581.556 126.905C582.423 126.905 583.02 127.301 583.398 127.823H583.553L583.639 127.042H584.557V132.603C584.557 134.536 583.622 135.294 581.901 135.294C580.277 135.294 579.571 134.628 579.359 133.727L580.346 133.503C580.564 134.18 581.092 134.49 581.901 134.49C582.807 134.49 583.473 134.1 583.473 132.717V131.587H583.404C582.979 132.109 582.365 132.505 581.51 132.505C580.076 132.505 579.209 131.38 579.209 129.716ZM580.328 129.716C580.328 130.875 580.914 131.581 581.964 131.581C582.492 131.581 582.979 131.398 583.473 130.904V128.494C582.991 128.001 582.497 127.823 581.981 127.823C580.948 127.823 580.328 128.517 580.328 129.716ZM586.211 129.98C586.211 127.989 587.399 126.905 589.212 126.905C590.882 126.905 591.857 127.777 591.857 129.51V130.026H587.324C587.342 131.461 588.024 132.184 589.178 132.184C589.929 132.184 590.497 131.88 590.779 131.208L591.834 131.386C591.433 132.488 590.469 133.073 589.172 133.073C587.41 133.073 586.211 132.006 586.211 129.98ZM587.382 129.303H590.796C590.79 128.253 590.102 127.794 589.178 127.794C588.214 127.794 587.571 128.305 587.382 129.303Z" fill="black"/>
<path d="M471.942 175.533C471.942 177.88 472.642 178.718 473.732 178.718C474.673 178.718 475.201 178.081 475.287 176.945L476.515 177.037C476.446 178.855 475.373 179.854 473.698 179.854C471.821 179.854 470.588 178.534 470.588 175.533C470.588 172.527 471.81 171.207 473.698 171.207C475.362 171.207 476.446 172.211 476.515 173.995L475.287 174.087C475.201 172.986 474.673 172.343 473.732 172.343C472.642 172.343 471.942 173.181 471.942 175.533ZM480.436 173.749L480.522 174.615H480.688C481.268 173.961 481.841 173.611 482.851 173.611C483.069 173.611 483.253 173.628 483.431 173.668V174.868C482.174 174.868 481.457 174.942 480.613 175.459V178.689H482.604V179.722H477.842V178.689H479.34V174.782H477.842V173.749H480.436ZM484.66 176.727C484.66 174.678 485.888 173.611 487.718 173.611C489.417 173.611 490.409 174.5 490.409 176.291V176.836H485.957C485.991 178.161 486.605 178.838 487.672 178.838C488.355 178.838 488.883 178.563 489.153 177.943L490.387 178.133C489.973 179.315 488.929 179.86 487.667 179.86C485.888 179.86 484.66 178.787 484.66 176.727ZM486.02 176.032H489.164C489.164 175.063 488.545 174.627 487.678 174.627C486.806 174.627 486.204 175.08 486.02 176.032ZM494.427 173.611C495.914 173.611 496.809 174.099 496.809 175.493V178.351C496.809 178.758 496.952 178.861 497.469 178.798V179.722C497.176 179.802 496.906 179.842 496.659 179.842C495.902 179.842 495.661 179.469 495.615 178.987H495.489C495.036 179.441 494.422 179.86 493.515 179.86C492.442 179.86 491.748 179.257 491.748 178.253C491.748 176.578 493.664 176.354 495.535 176.377V175.562C495.535 174.707 495.041 174.495 494.33 174.5C493.63 174.5 493.119 174.724 493.113 175.418L493.108 175.659H491.949V175.355C491.949 174.334 492.643 173.611 494.427 173.611ZM493.073 178.087C493.073 178.62 493.469 178.919 494.123 178.919C494.663 178.919 495.116 178.712 495.535 178.408V177.088C495.374 177.071 495.213 177.06 495.053 177.06C493.808 177.06 493.073 177.358 493.073 178.087ZM502.732 179.854C500.964 179.86 500.241 179.343 500.241 177.295V174.782H498.6V173.749H500.241V171.958H501.515V173.749H504.109V174.782H501.515V177.26C501.515 178.46 501.877 178.746 502.869 178.746C503.334 178.746 503.799 178.666 504.246 178.557V179.653C503.81 179.779 503.282 179.854 502.732 179.854ZM505.665 176.727C505.665 174.678 506.893 173.611 508.723 173.611C510.422 173.611 511.414 174.5 511.414 176.291V176.836H506.962C506.996 178.161 507.61 178.838 508.677 178.838C509.36 178.838 509.888 178.563 510.158 177.943L511.392 178.133C510.978 179.315 509.934 179.86 508.672 179.86C506.893 179.86 505.665 178.787 505.665 176.727ZM507.025 176.032H510.169C510.169 175.063 509.55 174.627 508.683 174.627C507.811 174.627 507.209 175.08 507.025 176.032Z" fill="#1A6414"/>
<path d="M469.811 144.698L469.903 145.536H470.052C470.66 144.904 471.245 144.56 472.278 144.56C472.49 144.56 472.668 144.577 472.846 144.612V145.627C471.538 145.627 470.844 145.714 469.977 146.31V149.713H472.066V150.591H467.326V149.713H468.893V145.576H467.326V144.698H469.811ZM474.184 147.636C474.184 145.645 475.372 144.56 477.185 144.56C478.855 144.56 479.831 145.432 479.831 147.165V147.682H475.298C475.315 149.116 475.998 149.839 477.151 149.839C477.903 149.839 478.471 149.535 478.752 148.864L479.808 149.042C479.406 150.143 478.442 150.729 477.145 150.729C475.384 150.729 474.184 149.661 474.184 147.636ZM475.355 146.959H478.769C478.763 145.909 478.075 145.45 477.151 145.45C476.187 145.45 475.544 145.96 475.355 146.959ZM481.186 147.372C481.186 145.656 482.098 144.56 483.533 144.56C484.399 144.56 484.996 144.956 485.375 145.478H485.53L485.616 144.698H486.534V150.258C486.534 152.192 485.599 152.949 483.877 152.949C482.253 152.949 481.548 152.284 481.335 151.383L482.322 151.159C482.54 151.836 483.068 152.146 483.877 152.146C484.784 152.146 485.449 151.756 485.449 150.373V149.242H485.381C484.956 149.765 484.342 150.16 483.487 150.16C482.053 150.16 481.186 149.036 481.186 147.372ZM482.305 147.372C482.305 148.531 482.89 149.237 483.94 149.237C484.468 149.237 484.956 149.053 485.449 148.56V146.15C484.967 145.656 484.474 145.478 483.958 145.478C482.925 145.478 482.305 146.173 482.305 147.372ZM488.429 150.591V149.713H490.517V145.559H488.429V144.698L491.464 144.566L491.608 144.704V149.713H493.696V150.591H488.429ZM490.85 143.212C490.374 143.212 490.047 142.931 490.047 142.472C490.047 142.013 490.374 141.737 490.85 141.737C491.321 141.737 491.648 142.013 491.648 142.472C491.648 142.931 491.321 143.212 490.85 143.212ZM500.939 147.653C500.939 149.719 499.648 150.729 498.064 150.729C496.486 150.729 495.189 149.719 495.189 147.653C495.189 145.593 496.486 144.56 498.064 144.56C499.648 144.56 500.939 145.593 500.939 147.653ZM499.82 147.653C499.82 146.15 499.097 145.45 498.064 145.45C497.031 145.45 496.303 146.15 496.303 147.653C496.303 149.156 497.031 149.839 498.064 149.839C499.097 149.839 499.82 149.156 499.82 147.653ZM507.539 150.591H506.454V146.66C506.454 145.702 505.955 145.45 505.359 145.45C504.67 145.45 504.119 145.788 503.677 146.299V150.591H502.593V144.698H503.511L503.608 145.541H503.752C504.217 145.042 504.831 144.56 505.829 144.56C506.879 144.56 507.539 145.094 507.539 146.373V150.591ZM512.085 150.763C511.494 150.763 511.023 150.373 511.023 149.73C511.023 149.076 511.494 148.697 512.085 148.697C512.67 148.697 513.141 149.076 513.141 149.73C513.141 150.373 512.67 150.763 512.085 150.763ZM512.085 146.299C511.494 146.299 511.023 145.909 511.023 145.266C511.023 144.612 511.494 144.233 512.085 144.233C512.67 144.233 513.141 144.612 513.141 145.266C513.141 145.909 512.67 146.299 512.085 146.299ZM522.117 142.213H523.179L524.218 148.364H524.304L525.422 143.613H526.249L527.316 148.364H527.402L528.441 142.213H529.451L527.987 150.591H527L525.818 145.295H525.738L524.504 150.591H523.575L522.117 142.213ZM530.198 147.636C530.198 145.645 531.386 144.56 533.199 144.56C534.869 144.56 535.844 145.432 535.844 147.165V147.682H531.311C531.328 149.116 532.011 149.839 533.164 149.839C533.916 149.839 534.484 149.535 534.765 148.864L535.821 149.042C535.419 150.143 534.455 150.729 533.159 150.729C531.397 150.729 530.198 149.661 530.198 147.636ZM531.368 146.959H534.782C534.777 145.909 534.088 145.45 533.164 145.45C532.2 145.45 531.558 145.96 531.368 146.959ZM540.097 144.56C541.652 144.56 542.547 145.123 542.593 146.316L541.606 146.385C541.532 145.714 541.015 145.369 540.023 145.369C539.127 145.369 538.565 145.633 538.565 146.19C538.565 146.695 539.041 146.901 540.355 147.171C541.928 147.492 542.662 147.854 542.662 148.881C542.662 149.988 541.784 150.723 540.051 150.723C538.422 150.723 537.492 150.258 537.228 148.881L538.227 148.755C538.502 149.788 539.254 149.885 540.103 149.885C541.159 149.885 541.578 149.466 541.578 149.001C541.578 148.485 541.084 148.301 539.684 148.014C538.267 147.722 537.527 147.297 537.527 146.287C537.527 145.237 538.324 144.56 540.097 144.56ZM548.218 150.706C546.514 150.711 545.791 150.189 545.791 148.204V145.576H544.081V144.698H545.791V142.85H546.881V144.698H549.589V145.576H546.881V148.152C546.881 149.432 547.259 149.747 548.31 149.747C548.803 149.747 549.279 149.667 549.727 149.552V150.499C549.291 150.631 548.751 150.706 548.218 150.706ZM561.079 149.765C562.433 149.765 562.64 148.921 562.64 147.745V142.213H563.747V148.055C563.747 149.581 563.024 150.723 561.079 150.723C559.134 150.723 558.411 149.581 558.411 148.055V142.213H559.518V147.745C559.518 148.921 559.725 149.765 561.079 149.765ZM569.929 144.428C569.814 143.401 569.257 142.999 568.236 142.999C567.14 142.999 566.595 143.401 566.595 144.176C566.595 144.945 567.117 145.237 568.46 145.777C570.038 146.408 571.053 146.919 571.053 148.296C571.053 149.69 570.055 150.729 568.069 150.729C566.124 150.729 565.206 149.765 565.109 148.244L566.21 148.112C566.342 149.271 566.945 149.788 568.115 149.788C569.292 149.788 569.888 149.277 569.888 148.416C569.888 147.567 569.188 147.303 567.84 146.764C566.486 146.213 565.476 145.622 565.476 144.262C565.476 142.833 566.52 142.076 568.316 142.076C569.802 142.076 570.938 142.678 571.013 144.331L569.929 144.428Z" fill="black" fill-opacity="0.7"/>
<path d="M478.742 111.517C481.954 110.949 484.607 110.48 484.638 110.473L484.693 110.461L481.661 106.855C479.993 104.871 478.628 103.24 478.628 103.231C478.628 103.213 481.759 94.5902 481.777 94.5595C481.783 94.5493 483.914 98.2281 486.942 103.477C489.778 108.392 492.116 112.444 492.137 112.482L492.177 112.551L482.54 112.549L472.903 112.548L478.742 111.517ZM467.177 110.417C467.177 110.412 468.606 107.931 470.352 104.905L473.527 99.4021L477.227 96.2968C479.263 94.5889 480.933 93.1894 480.94 93.1868C480.947 93.1843 480.92 93.2517 480.88 93.3366C480.841 93.4215 479.033 97.2997 476.862 101.955L472.916 110.419L470.046 110.422C468.468 110.424 467.177 110.422 467.177 110.417Z" fill="#0089D6"/>
<g clip-path="url(#clip1_1298_155279)">
<path d="M221.78 248.002V357.45" stroke="#edebff" stroke-miterlimit="10"/>
<path d="M235.459 248.002V357.45" stroke="#edebff" stroke-miterlimit="10"/>
<path d="M249.146 248.002V357.45" stroke="#edebff" stroke-miterlimit="10"/>
<path d="M262.826 248.002V357.45" stroke="#edebff" stroke-miterlimit="10"/>
</g>
<rect x="197.498" y="302.042" width="84.1377" height="55.4077" fill="url(#paint0_linear_1298_155279)"/>
<defs>
<linearGradient id="paint0_linear_1298_155279" x1="244.275" y1="357.45" x2="244.275" y2="302.042" gradientUnits="userSpaceOnUse">
<stop stop-color="white"/>
<stop offset="1" stop-color="white" stop-opacity="0"/>
</linearGradient>
<clipPath id="clip0_1298_155279">
<rect width="270.26" height="299.715" fill="white" transform="translate(612.775 310.353) rotate(-180)"/>
</clipPath>
<clipPath id="clip1_1298_155279">
<rect width="41.7268" height="109.447" fill="white" transform="translate(221.439 248.002)"/>
</clipPath>
</defs>
</svg>
