<svg width="469" height="320" viewBox="0 0 469 320" fill="none" xmlns="http://www.w3.org/2000/svg">
<g clip-path="url(#clip0_1298_155545)">
<g clip-path="url(#clip1_1298_155545)">
<g clip-path="url(#clip2_1298_155545)">
<path d="M424.784 184.283L357.919 145.679C355.899 144.511 356.153 142.476 358.484 141.126L423.75 103.446C426.082 102.1 429.614 101.952 431.634 103.12L498.5 141.725C500.52 142.893 500.266 144.927 497.935 146.277L432.668 183.958C430.337 185.303 426.804 185.451 424.784 184.283Z" fill="#F6F5FF"/>
<g clip-path="url(#clip3_1298_155545)">
<path d="M418.998 299.22C419.375 299.437 419.722 299.59 420.017 299.678C420.323 299.761 420.669 299.843 421.077 299.914C421.209 299.931 421.311 299.967 421.382 300.008C421.484 300.067 421.525 300.161 421.495 300.296L421.281 300.914C421.25 301.002 421.189 301.073 421.107 301.12C421.005 301.178 420.853 301.208 420.659 301.214C420.364 301.208 420.078 301.184 419.813 301.149C419.538 301.108 419.243 301.055 418.896 300.984C419.039 301.984 418.509 302.831 417.307 303.526C416.451 304.02 415.523 304.273 414.535 304.279C413.547 304.284 412.64 304.055 411.825 303.584C410.958 303.084 410.561 302.502 410.653 301.837C410.744 301.173 411.305 300.543 412.354 299.937C412.701 299.737 413.088 299.549 413.516 299.361C413.944 299.173 414.413 298.996 414.912 298.814L414.168 298.384C413.394 297.937 412.691 297.72 412.059 297.72C411.417 297.725 410.714 297.955 409.929 298.408C409.573 298.614 409.247 298.849 408.961 299.12C408.676 299.39 408.421 299.667 408.207 299.955C408.115 300.09 408.034 300.184 407.983 300.237C407.932 300.29 407.891 300.325 407.851 300.349C407.708 300.431 407.535 300.414 407.321 300.29L406.821 300.002C406.658 299.908 406.556 299.825 406.536 299.755C406.516 299.684 406.536 299.59 406.607 299.467C406.781 299.155 407.056 298.82 407.433 298.461C407.8 298.096 408.268 297.755 408.829 297.431C410.041 296.731 411.203 296.378 412.324 296.367C413.435 296.361 414.555 296.678 415.676 297.325L418.978 299.231L418.998 299.22ZM416.41 302.502C416.746 302.308 417.031 302.073 417.276 301.79C417.521 301.508 417.622 301.19 417.592 300.855C417.561 300.649 417.47 300.455 417.286 300.278C417.103 300.102 416.848 299.908 416.502 299.708L416.074 299.461C415.707 299.59 415.33 299.737 414.963 299.902C414.596 300.067 414.26 300.237 413.944 300.42C413.261 300.814 412.894 301.178 412.833 301.531C412.772 301.884 412.996 302.202 413.506 302.496C413.985 302.773 414.464 302.908 414.963 302.902C415.462 302.908 415.941 302.773 416.41 302.502ZM425.693 298.414C425.509 298.52 425.356 298.572 425.204 298.578C425.061 298.59 424.847 298.549 424.592 298.472L414.321 295.308C414.056 295.225 413.893 295.166 413.822 295.125C413.659 295.031 413.648 294.931 413.812 294.837L414.81 294.261C415.004 294.149 415.167 294.09 415.309 294.09C415.452 294.078 415.656 294.125 415.911 294.202L424.368 297.108L419.212 292.296C419.059 292.149 418.988 292.037 419.008 291.955C419.029 291.872 419.131 291.766 419.314 291.66L420.129 291.19C420.323 291.078 420.486 291.019 420.639 291.013C420.781 291.002 420.995 291.043 421.23 291.131L429.667 294.143L424.602 289.184C424.46 289.031 424.399 288.913 424.409 288.837C424.429 288.754 424.521 288.654 424.704 288.549L425.652 288.001C425.815 287.907 425.988 287.901 426.161 288.001C426.212 288.031 426.253 288.066 426.304 288.107C426.355 288.149 426.416 288.207 426.488 288.296L431.908 294.261C432.051 294.413 432.112 294.531 432.092 294.613C432.072 294.696 431.98 294.796 431.807 294.896L430.93 295.402C430.737 295.514 430.574 295.572 430.421 295.578C430.268 295.584 430.064 295.549 429.82 295.455L421.668 292.572L426.661 297.267C426.814 297.414 426.885 297.525 426.875 297.614C426.865 297.702 426.752 297.802 426.569 297.908L425.693 298.414ZM439.062 291.013C438.532 291.319 437.941 291.59 437.309 291.813C436.677 292.037 436.147 292.19 435.73 292.255C435.475 292.296 435.261 292.302 435.128 292.272C434.996 292.243 434.874 292.196 434.782 292.143L434.262 291.843C434.048 291.719 434.028 291.613 434.181 291.525C434.242 291.49 434.313 291.46 434.395 291.437C434.476 291.413 434.609 291.384 434.751 291.349C435.251 291.237 435.75 291.09 436.229 290.907C436.718 290.719 437.156 290.513 437.564 290.278C438.206 289.907 438.593 289.554 438.715 289.225C438.837 288.896 438.695 288.601 438.277 288.36C437.992 288.196 437.666 288.113 437.289 288.107C436.912 288.101 436.392 288.201 435.73 288.396L433.794 288.984C432.815 289.278 431.919 289.396 431.124 289.325C430.339 289.26 429.667 289.072 429.137 288.766C428.709 288.519 428.424 288.249 428.281 287.954C428.138 287.66 428.098 287.354 428.179 287.048C428.25 286.737 428.424 286.437 428.709 286.131C428.994 285.825 429.371 285.548 429.82 285.29C430.044 285.16 430.288 285.031 430.543 284.919C430.808 284.801 431.063 284.701 431.317 284.601C431.572 284.513 431.817 284.431 432.061 284.36C432.306 284.29 432.51 284.242 432.673 284.219C432.897 284.184 433.08 284.172 433.233 284.19C433.376 284.201 433.518 284.248 433.661 284.331L434.14 284.607C434.354 284.731 434.385 284.842 434.232 284.931C434.15 284.978 433.977 285.031 433.722 285.084C432.876 285.266 432.092 285.566 431.368 285.984C430.788 286.319 430.421 286.637 430.298 286.931C430.176 287.225 430.309 287.49 430.726 287.731C431.012 287.896 431.358 287.978 431.756 287.972C432.153 287.966 432.724 287.86 433.437 287.648L435.342 287.078C436.31 286.79 437.166 286.672 437.9 286.731C438.634 286.79 439.265 286.978 439.795 287.284C440.233 287.537 440.539 287.819 440.712 288.119C440.875 288.425 440.937 288.743 440.865 289.066C440.804 289.396 440.61 289.719 440.305 290.049C439.989 290.396 439.581 290.713 439.062 291.013Z" fill="#252F3E"/>
<path fill-rule="evenodd" clip-rule="evenodd" d="M445.939 292.76C445.063 296.125 441.507 299.696 437.319 302.114C431.45 305.502 423.991 307.302 416.389 307.526C415.788 307.543 415.686 307.155 416.287 307.067C423.115 306.02 429.962 303.82 435.475 300.637C439.194 298.49 442.506 295.684 444.676 292.596C444.982 292.125 446.082 292.207 445.939 292.76Z" fill="#FF9900"/>
<path fill-rule="evenodd" clip-rule="evenodd" d="M445.745 291.037C444.767 290.966 442.648 292.519 441.69 293.225C441.405 293.437 441.068 293.301 441.15 293.007C441.721 291.125 445.256 289.531 446.072 289.578C446.897 289.631 449.577 291.719 449.291 293.625C449.251 293.919 448.863 294.001 448.68 293.754C448.079 292.937 446.713 291.101 445.745 291.037Z" fill="#FF9900"/>
</g>
<path d="M356.555 63.3887V146.127" stroke="#edebff" stroke-miterlimit="10" stroke-dasharray="9.9 2.64"/>
<path d="M428.207 104.756V187.499" stroke="#edebff" stroke-miterlimit="10" stroke-dasharray="9.9 2.64"/>
<path d="M496.621 310.585L429.756 271.98C427.736 270.812 427.989 268.778 430.321 267.428L495.587 229.747C497.918 228.402 501.451 228.254 503.471 229.422L570.336 268.026C572.356 269.194 572.103 271.229 569.772 272.578L504.505 310.259C502.174 311.604 498.641 311.753 496.621 310.585Z" stroke="#edebff" stroke-miterlimit="10"/>
<path d="M428.392 187.265V270.003" stroke="#edebff" stroke-miterlimit="10"/>
<path d="M496.621 227.847L429.756 189.242C427.736 188.074 427.989 186.04 430.321 184.69L495.587 147.009C497.918 145.664 501.451 145.516 503.471 146.684L570.336 185.288C572.356 186.456 572.103 188.491 569.772 189.84L504.505 227.521C502.174 228.866 498.641 229.015 496.621 227.847Z" stroke="#702eea" stroke-miterlimit="10"/>
<path d="M353.499 310.585L286.633 271.98C284.613 270.812 284.867 268.778 287.198 267.428L352.465 229.747C354.796 228.402 358.328 228.254 360.348 229.422L427.214 268.026C429.234 269.194 428.98 271.229 426.649 272.578L361.382 310.259C359.051 311.604 355.519 311.753 353.499 310.585Z" stroke="#edebff" stroke-miterlimit="10"/>
<path d="M285.269 187.265V270.003" stroke="#edebff" stroke-miterlimit="10"/>
<path d="M428.579 187.265V270.003" stroke="#edebff" stroke-miterlimit="10"/>
<path d="M356.922 228.632V311.375" stroke="#edebff" stroke-miterlimit="10"/>
<path d="M353.499 227.847L286.634 189.242C284.614 188.074 284.867 186.04 287.199 184.69L352.465 147.009C354.796 145.664 358.329 145.516 360.349 146.684L427.214 185.288C429.234 186.456 428.981 188.491 426.65 189.84L361.383 227.521C359.052 228.866 355.519 229.015 353.499 227.847Z" stroke="#702eea" stroke-miterlimit="10"/>
<path d="M424.785 141.612L357.919 103.007C355.899 101.839 356.153 99.8045 358.484 98.4546L423.751 60.7737C426.082 59.4286 429.615 59.2802 431.635 60.4482L498.5 99.0529C500.52 100.221 500.266 102.255 497.935 103.605L432.669 141.286C430.337 142.631 426.805 142.779 424.785 141.612Z" stroke="#edebff" stroke-miterlimit="10"/>
<path d="M356.555 18.2917V101.03" stroke="#edebff" stroke-miterlimit="10"/>
<path d="M428.208 59.6584V142.401" stroke="#edebff" stroke-miterlimit="10"/>
<path d="M353.561 173.555L335.631 183.906C334.431 184.599 334.425 185.725 335.631 186.421L353.561 196.772C354.762 197.465 356.711 197.468 357.917 196.772L375.847 186.421C377.047 185.728 377.053 184.603 375.847 183.906L357.917 173.555C356.716 172.862 354.767 172.859 353.561 173.555ZM358.74 184.84L355.945 186.454L363.907 191.05L361.695 192.327L353.733 187.731L350.949 189.338L349.16 188.305L356.951 183.807L358.74 184.84ZM372.509 184.454C372.675 184.787 372.692 185.121 372.566 185.457C372.44 185.794 372.195 186.127 371.823 186.454C371.452 186.78 371.006 187.097 370.486 187.398C369.966 187.698 369.394 187.975 368.817 188.203C368.239 188.43 367.685 188.592 367.153 188.694L364.976 187.437C365.702 187.401 366.376 187.295 367.005 187.124C367.634 186.952 368.182 186.728 368.657 186.454C368.931 186.295 369.154 186.14 369.308 185.992C369.463 185.843 369.565 185.705 369.623 185.573C369.674 185.444 369.668 185.322 369.617 185.213C369.565 185.104 369.468 185.008 369.331 184.929C369.142 184.82 368.914 184.754 368.657 184.731C368.399 184.708 368.114 184.715 367.794 184.748C367.479 184.784 367.131 184.84 366.759 184.923C366.382 185.002 365.982 185.094 365.559 185.2C364.478 185.454 363.524 185.563 362.689 185.51C361.855 185.464 361.118 185.249 360.466 184.873C359.957 184.58 359.626 184.269 359.466 183.939C359.306 183.609 359.277 183.276 359.397 182.936C359.517 182.596 359.746 182.26 360.1 181.93C360.454 181.6 360.889 181.283 361.403 180.986C361.918 180.689 362.392 180.448 362.849 180.257C363.307 180.065 363.758 179.91 364.215 179.792L366.25 180.966C365.97 180.996 365.696 181.042 365.416 181.105C365.136 181.168 364.861 181.24 364.604 181.323C364.341 181.408 364.101 181.501 363.867 181.603C363.638 181.702 363.432 181.808 363.25 181.913C362.998 182.058 362.798 182.2 362.644 182.349C362.484 182.494 362.381 182.633 362.324 182.765C362.266 182.897 362.261 183.019 362.306 183.131C362.352 183.243 362.449 183.345 362.598 183.431C362.764 183.527 362.952 183.583 363.169 183.609C363.387 183.636 363.632 183.632 363.901 183.609C364.175 183.583 364.484 183.537 364.821 183.474C365.159 183.411 365.53 183.322 365.936 183.227C366.49 183.098 367.016 182.992 367.508 182.92C367.999 182.847 368.479 182.814 368.931 182.817C369.383 182.821 369.823 182.877 370.234 182.982C370.651 183.085 371.057 183.253 371.452 183.481C371.995 183.794 372.349 184.118 372.515 184.451L372.509 184.454Z" fill="#edebff"/>
<path d="M424.784 58.8735L357.919 20.2687C355.899 19.1008 356.153 17.0664 358.484 15.7166L423.75 -21.9644C426.082 -23.3094 429.614 -23.4578 431.634 -22.2899L498.5 16.3149C500.52 17.4829 500.266 19.5172 497.935 20.8671L432.668 58.548C430.337 59.8931 426.804 60.0415 424.784 58.8735Z" fill="#F6F5FF" stroke="#702eea" stroke-miterlimit="10"/>
<path d="M417.567 10.8405C411.005 14.6285 414.279 16.0431 414.279 16.0431L417.244 17.7548L423.51 14.1372L424.403 14.6523L415.659 19.7003C415.659 19.7003 410.978 21.8478 417.635 25.6913C424.293 29.5347 427.718 27.2802 427.718 27.2802L429.907 26.0162L426.818 24.2332C426.818 24.2332 423.016 22.1728 426.736 20.0252L432.948 16.4393C432.948 16.4393 436.489 14.4581 433.044 12.469L427.347 9.1803C427.347 9.1803 424.43 6.88612 417.573 10.8445L417.567 10.8405ZM416.112 13.9866C416.262 13.8994 416.434 13.8321 416.633 13.7885C416.825 13.7409 417.031 13.7172 417.244 13.7211C417.45 13.7211 417.663 13.7489 417.862 13.7924C418.054 13.84 418.225 13.9074 418.376 13.9945C418.527 14.0817 418.644 14.1808 418.726 14.2917C418.809 14.4026 418.85 14.5215 418.85 14.6483C418.85 14.7751 418.809 14.8861 418.733 15.001C418.651 15.1119 418.541 15.2149 418.39 15.3021C418.239 15.3893 418.068 15.4566 417.869 15.5002C417.676 15.5478 417.47 15.5715 417.258 15.5676C417.052 15.5676 416.839 15.5398 416.64 15.4962C416.448 15.4487 416.276 15.3813 416.125 15.2942C415.974 15.207 415.858 15.1079 415.775 14.997C415.693 14.8861 415.652 14.7672 415.652 14.6404C415.652 14.5215 415.693 14.4026 415.768 14.2877C415.851 14.1768 415.961 14.0738 416.112 13.9866Z" fill="#702eea"/>
<path d="M443.6 25.6477C450.162 21.8597 446.888 20.4451 446.888 20.4451L443.923 18.7334L437.656 22.351L436.764 21.8359L445.508 16.7879C445.508 16.7879 450.189 14.6403 443.531 10.7969C436.874 6.95343 433.449 9.208 433.449 9.208L431.26 10.472L434.348 12.255C434.348 12.255 438.151 14.3154 434.431 16.463L428.219 20.0489C428.219 20.0489 424.678 22.0301 428.123 24.0191L433.82 27.3079C433.82 27.3079 436.737 29.6021 443.593 25.6437L443.6 25.6477ZM445.055 22.5095C444.904 22.5967 444.733 22.664 444.534 22.7076C444.341 22.7552 444.135 22.7789 443.923 22.775C443.717 22.775 443.504 22.7472 443.305 22.7037C443.113 22.6561 442.941 22.5888 442.79 22.5016C442.639 22.4144 442.523 22.3153 442.44 22.2044C442.358 22.0935 442.317 21.9746 442.317 21.8478C442.317 21.7289 442.358 21.6101 442.433 21.4952C442.516 21.3842 442.625 21.2812 442.776 21.194C442.927 21.1068 443.099 21.0395 443.298 20.9959C443.49 20.9483 443.696 20.9246 443.909 20.9285C444.115 20.9285 444.328 20.9563 444.527 20.9999C444.719 21.0474 444.89 21.1148 445.041 21.2019C445.192 21.2891 445.309 21.3882 445.391 21.4991C445.474 21.6101 445.515 21.7289 445.515 21.8557C445.515 21.9746 445.474 22.0935 445.398 22.2084C445.316 22.3193 445.206 22.4223 445.055 22.5095Z" fill="#702eea"/>
<path d="M183.622 87.8109L183.622 34.7825C183.622 25.7926 190.902 18.5056 199.879 18.5056L355.895 18.5054" stroke="#edebff" stroke-miterlimit="10"/>
<path d="M196.895 83.8506L196.895 43.7922C196.895 36.8484 202.525 31.2116 209.456 31.2116L355.895 31.2114" stroke="#edebff" stroke-miterlimit="10"/>
<path d="M210.155 84.5107L210.155 52.8152C210.155 47.9044 214.122 43.9308 219.026 43.9308L356.555 43.9307" stroke="#edebff" stroke-miterlimit="10"/>
<path d="M223.429 85.1708L223.429 61.8183C223.429 58.9537 225.753 56.6303 228.611 56.6303L357.215 56.6301" stroke="#edebff" stroke-miterlimit="10"/>
<rect x="264.808" y="22.4656" width="31.0225" height="31.0225" rx="15.5112" fill="white"/>
<path d="M280.319 25.051C273.21 25.051 267.393 30.8677 267.393 37.9771C267.393 45.0864 273.21 50.9031 280.319 50.9031C287.428 50.9031 293.245 45.0864 293.245 37.9771C293.245 30.8677 287.428 25.051 280.319 25.051ZM277.734 44.4401L271.271 37.9771L273.093 36.1545L277.734 40.782L287.545 30.9711L289.367 32.8066L277.734 44.4401Z" fill="#1A6414"/>
<rect x="100.785" y="79.5603" width="233.659" height="69.3056" rx="6.2705" fill="white" stroke="#edebff" stroke-width="0.660053"/>
<path d="M120.346 126.443C120.256 125.633 119.851 125.268 119.116 125.208V127.638C120.461 128.178 121.326 128.628 121.326 129.813C121.326 130.923 120.596 131.778 119.146 131.913V133.353H118.396V131.923C116.926 131.818 116.226 131.003 116.146 129.768L117.106 129.653C117.206 130.548 117.631 131.003 118.431 131.093V128.438C117.301 127.968 116.466 127.453 116.466 126.298C116.466 125.203 117.166 124.563 118.396 124.423V122.973H119.146V124.398C120.341 124.453 121.231 124.993 121.291 126.358L120.346 126.443ZM117.441 126.223C117.441 126.753 117.726 127.023 118.431 127.348V125.228C117.771 125.323 117.441 125.663 117.441 126.223ZM119.116 131.093C119.911 131.003 120.311 130.578 120.311 129.918C120.311 129.313 119.906 129.048 119.116 128.718V131.093Z" fill="#702eea"/>
<path d="M133.643 129.238C133.643 130.908 132.883 131.933 131.588 131.933C130.833 131.933 130.323 131.588 129.993 131.133H129.928V133.748H128.983V126.678H129.783L129.858 127.358H129.988C130.358 126.903 130.883 126.558 131.628 126.558C132.928 126.558 133.643 127.603 133.643 129.238ZM129.928 130.548C130.348 130.978 130.778 131.133 131.228 131.133C132.143 131.133 132.668 130.513 132.668 129.238C132.668 127.993 132.173 127.363 131.243 127.363C130.783 127.363 130.358 127.518 129.928 127.948V130.548ZM135.184 126.678H136.129V130.098C136.129 130.938 136.564 131.153 137.084 131.153C137.684 131.153 138.164 130.863 138.549 130.418V126.678H139.494V131.813H138.694L138.609 131.078H138.484C138.079 131.508 137.544 131.928 136.674 131.928C135.759 131.928 135.184 131.463 135.184 130.353V126.678ZM141.245 131.813V131.048H143.065L143.07 124.913H141.245V124.163L143.89 124.053L144.015 124.168V131.048H145.835V131.813H141.245ZM147.587 126.678H148.532V130.098C148.532 130.938 148.967 131.153 149.487 131.153C150.087 131.153 150.567 130.863 150.952 130.418V126.678H151.897V131.813H151.097L151.012 131.078H150.887C150.482 131.508 149.947 131.928 149.077 131.928C148.162 131.928 147.587 131.463 147.587 130.353V126.678ZM156.808 131.813H155.918V128.003C155.918 127.493 155.638 127.358 155.353 127.358C154.983 127.358 154.688 127.593 154.478 127.928V131.813H153.598V126.678H154.338L154.413 127.418H154.488C154.738 126.918 155.183 126.563 155.778 126.563C156.323 126.563 156.693 126.838 156.778 127.418H156.828C157.078 126.918 157.503 126.563 158.103 126.563C158.723 126.563 159.118 126.923 159.123 127.698L159.128 131.813H158.238V128.003C158.238 127.493 157.958 127.358 157.668 127.358C157.298 127.358 157.008 127.588 156.798 127.918L156.808 131.813ZM160.739 131.813V131.053H162.114V127.428H160.739V126.678L162.939 126.563L163.064 126.683V131.053H164.439V131.813H160.739ZM162.409 125.403C161.994 125.403 161.709 125.158 161.709 124.758C161.709 124.358 161.994 124.118 162.409 124.118C162.819 124.118 163.104 124.358 163.104 124.758C163.104 125.158 162.819 125.403 162.409 125.403ZM176.701 131.813H175.756V128.388C175.756 127.553 175.321 127.333 174.801 127.333C174.201 127.333 173.721 127.628 173.336 128.073V131.813H172.391V126.678H173.191L173.276 127.413H173.401C173.806 126.978 174.341 126.558 175.211 126.558C176.126 126.558 176.701 127.023 176.701 128.138V131.813ZM178.242 129.238C178.242 127.503 179.277 126.558 180.857 126.558C182.312 126.558 183.162 127.318 183.162 128.828V129.278H179.212C179.227 130.528 179.822 131.158 180.827 131.158C181.482 131.158 181.977 130.893 182.222 130.308L183.142 130.463C182.792 131.423 181.952 131.933 180.822 131.933C179.287 131.933 178.242 131.003 178.242 129.238ZM179.262 128.648H182.237C182.232 127.733 181.632 127.333 180.827 127.333C179.987 127.333 179.427 127.778 179.262 128.648ZM183.979 126.678H184.899L185.849 130.393H185.934L186.974 127.438H187.589L188.574 130.393H188.664L189.604 126.678H190.489L189.129 131.813H188.304L187.269 128.683H187.204L186.114 131.813H185.334L183.979 126.678ZM201.801 130.248C201.516 131.383 200.581 131.933 199.411 131.933C197.896 131.933 196.846 131.013 196.846 129.233C196.846 127.443 197.916 126.558 199.461 126.558C200.716 126.558 201.671 127.143 201.801 128.378L200.866 128.458C200.746 127.668 200.186 127.333 199.436 127.333C198.376 127.333 197.821 128.003 197.821 129.233C197.821 130.533 198.441 131.158 199.416 131.158C200.161 131.158 200.676 130.798 200.886 130.103L201.801 130.248ZM208.057 129.253C208.057 131.053 206.932 131.933 205.552 131.933C204.177 131.933 203.047 131.053 203.047 129.253C203.047 127.458 204.177 126.558 205.552 126.558C206.932 126.558 208.057 127.458 208.057 129.253ZM207.082 129.253C207.082 127.943 206.452 127.333 205.552 127.333C204.652 127.333 204.017 127.943 204.017 129.253C204.017 130.563 204.652 131.158 205.552 131.158C206.452 131.158 207.082 130.563 207.082 129.253ZM213.908 131.813H212.963V128.388C212.963 127.553 212.528 127.333 212.008 127.333C211.408 127.333 210.928 127.628 210.543 128.073V131.813H209.598V126.678H210.398L210.483 127.413H210.608C211.013 126.978 211.548 126.558 212.418 126.558C213.333 126.558 213.908 127.023 213.908 128.138V131.813ZM218.949 131.913C217.464 131.918 216.834 131.463 216.834 129.733V127.443H215.344V126.678H216.834V125.068H217.784V126.678H220.144V127.443H217.784V129.688C217.784 130.803 218.114 131.078 219.029 131.078C219.459 131.078 219.874 131.008 220.264 130.908V131.733C219.884 131.848 219.414 131.913 218.949 131.913ZM224.036 126.558C225.291 126.558 226.026 126.973 226.026 128.183V130.728C226.026 131.098 226.166 131.193 226.636 131.123V131.813C226.401 131.883 226.186 131.913 225.996 131.913C225.376 131.913 225.171 131.583 225.136 131.173H225.046C224.631 131.548 224.106 131.933 223.276 131.933C222.326 131.933 221.721 131.423 221.721 130.548C221.721 129.113 223.336 128.928 225.081 128.938V128.238C225.081 127.413 224.616 127.228 223.936 127.233C223.286 127.238 222.791 127.423 222.781 128.108V128.328H221.896V128.058C221.896 127.178 222.501 126.558 224.036 126.558ZM222.711 130.433C222.711 130.943 223.081 131.218 223.701 131.218C224.241 131.218 224.661 131.008 225.081 130.703V129.493C224.921 129.478 224.756 129.468 224.606 129.468C223.426 129.468 222.711 129.728 222.711 130.433ZM228.062 131.813V131.048H229.882V127.428H228.062V126.678L230.707 126.563L230.832 126.683V131.048H232.652V131.813H228.062ZM230.172 125.383C229.757 125.383 229.472 125.138 229.472 124.738C229.472 124.338 229.757 124.098 230.172 124.098C230.582 124.098 230.867 124.338 230.867 124.738C230.867 125.138 230.582 125.383 230.172 125.383ZM238.713 131.813H237.768V128.388C237.768 127.553 237.333 127.333 236.813 127.333C236.213 127.333 235.733 127.628 235.348 128.073V131.813H234.403V126.678H235.203L235.288 127.413H235.413C235.818 126.978 236.353 126.558 237.223 126.558C238.138 126.558 238.713 127.023 238.713 128.138V131.813ZM240.254 129.238C240.254 127.503 241.289 126.558 242.869 126.558C244.324 126.558 245.174 127.318 245.174 128.828V129.278H241.224C241.239 130.528 241.834 131.158 242.839 131.158C243.494 131.158 243.989 130.893 244.234 130.308L245.154 130.463C244.804 131.423 243.964 131.933 242.834 131.933C241.299 131.933 240.254 131.003 240.254 129.238ZM241.274 128.648H244.249C244.244 127.733 243.644 127.333 242.839 127.333C241.999 127.333 241.439 127.778 241.274 128.648ZM248.745 126.678L248.825 127.408H248.955C249.485 126.858 249.995 126.558 250.895 126.558C251.08 126.558 251.235 126.573 251.39 126.603V127.488C250.25 127.488 249.645 127.563 248.89 128.083V131.048H250.71V131.813H246.58V131.048H247.945V127.443H246.58V126.678H248.745ZM253.562 128.948V128.128H256.762V128.948H253.562ZM261.243 126.558C262.498 126.558 263.233 126.973 263.233 128.183V130.728C263.233 131.098 263.373 131.193 263.843 131.123V131.813C263.608 131.883 263.393 131.913 263.203 131.913C262.583 131.913 262.378 131.583 262.343 131.173H262.253C261.838 131.548 261.313 131.933 260.483 131.933C259.533 131.933 258.928 131.423 258.928 130.548C258.928 129.113 260.543 128.928 262.288 128.938V128.238C262.288 127.413 261.823 127.228 261.143 127.233C260.493 127.238 259.998 127.423 259.988 128.108V128.328H259.103V128.058C259.103 127.178 259.708 126.558 261.243 126.558ZM259.918 130.433C259.918 130.943 260.288 131.218 260.908 131.218C261.448 131.218 261.868 131.008 262.288 130.703V129.493C262.128 129.478 261.963 129.468 261.813 129.468C260.633 129.468 259.918 129.728 259.918 130.433ZM264.594 126.678H265.499L266.324 130.363H266.409L267.294 127.468H267.934L268.759 130.363H268.844L269.664 126.678H270.534L269.314 131.813H268.474L267.599 128.723H267.529L266.594 131.813H265.814L264.594 126.678ZM273.785 126.558C275.14 126.558 275.92 127.048 275.96 128.088L275.1 128.148C275.035 127.563 274.585 127.263 273.72 127.263C272.94 127.263 272.45 127.493 272.45 127.978C272.45 128.418 272.865 128.598 274.01 128.833C275.38 129.113 276.02 129.428 276.02 130.323C276.02 131.288 275.255 131.928 273.745 131.928C272.325 131.928 271.515 131.523 271.285 130.323L272.155 130.213C272.395 131.113 273.05 131.198 273.79 131.198C274.71 131.198 275.075 130.833 275.075 130.428C275.075 129.978 274.645 129.818 273.425 129.568C272.19 129.313 271.545 128.943 271.545 128.063C271.545 127.148 272.24 126.558 273.785 126.558ZM278.366 128.948V128.128H281.566V128.948H278.366ZM288.672 129.238C288.672 130.908 287.912 131.933 286.617 131.933C285.862 131.933 285.352 131.588 285.022 131.133H284.957V133.748H284.012V126.678H284.812L284.887 127.358H285.017C285.387 126.903 285.912 126.558 286.657 126.558C287.957 126.558 288.672 127.603 288.672 129.238ZM284.957 130.548C285.377 130.978 285.807 131.133 286.257 131.133C287.172 131.133 287.697 130.513 287.697 129.238C287.697 127.993 287.202 127.363 286.272 127.363C285.812 127.363 285.387 127.518 284.957 127.948V130.548ZM289.719 126.678H290.739L292.474 130.693H292.544L294.059 126.678H295.014L293.029 131.733C292.554 132.948 291.889 133.868 290.494 133.868C290.259 133.868 290.069 133.838 289.889 133.798V132.953C290.084 133.003 290.284 133.033 290.514 133.033C291.374 133.033 291.749 132.573 291.929 132.118L292.009 131.898L289.719 126.678ZM299.565 131.913C298.08 131.918 297.45 131.463 297.45 129.733V127.443H295.96V126.678H297.45V125.068H298.4V126.678H300.76V127.443H298.4V129.688C298.4 130.803 298.73 131.078 299.645 131.078C300.075 131.078 300.49 131.008 300.88 130.908V131.733C300.5 131.848 300.03 131.913 299.565 131.913ZM303.561 131.813H302.616V124.163H303.561V127.413H303.681C304.081 126.978 304.611 126.558 305.461 126.558C306.361 126.558 306.926 127.023 306.926 128.138V131.813H305.981V128.388C305.981 127.553 305.546 127.333 305.026 127.333C304.416 127.333 303.941 127.633 303.561 128.093V131.813ZM313.477 129.253C313.477 131.053 312.352 131.933 310.972 131.933C309.597 131.933 308.467 131.053 308.467 129.253C308.467 127.458 309.597 126.558 310.972 126.558C312.352 126.558 313.477 127.458 313.477 129.253ZM312.502 129.253C312.502 127.943 311.872 127.333 310.972 127.333C310.072 127.333 309.437 127.943 309.437 129.253C309.437 130.563 310.072 131.158 310.972 131.158C311.872 131.158 312.502 130.563 312.502 129.253ZM319.328 131.813H318.383V128.388C318.383 127.553 317.948 127.333 317.428 127.333C316.828 127.333 316.348 127.628 315.963 128.073V131.813H315.018V126.678H315.818L315.903 127.413H316.028C316.433 126.978 316.968 126.558 317.838 126.558C318.753 126.558 319.328 127.023 319.328 128.138V131.813Z" fill="#1E1B28"/>
<path d="M107.055 79.5603H328.172C331.635 79.5603 334.443 82.3677 334.443 85.8308V107.942H100.785V85.8308C100.785 82.3677 103.592 79.5603 107.055 79.5603Z" fill="#F6F5FF" stroke="#edebff" stroke-width="0.660053"/>
<circle cx="115.678" cy="94.4536" r="4.15573" stroke="#edebff" stroke-width="1.01313"/>
<circle cx="128.999" cy="94.4536" r="4.15573" stroke="#edebff" stroke-width="1.01313"/>
<circle cx="142.319" cy="94.4536" r="4.15573" stroke="#edebff" stroke-width="1.01313"/>
</g>
</g>
</g>
<defs>
<clipPath id="clip0_1298_155545">
<rect width="469" height="320" fill="white"/>
</clipPath>
<clipPath id="clip1_1298_155545">
<rect width="499" height="361.049" fill="white" transform="translate(79.333 -25.3882)"/>
</clipPath>
<clipPath id="clip2_1298_155545">
<rect width="493.72" height="339.927" fill="white" transform="translate(100.455 -24.3982)"/>
</clipPath>
<clipPath id="clip3_1298_155545">
<rect width="35.7682" height="21.4139" fill="white" transform="matrix(0.866041 -0.499972 0.866041 0.499972 403.428 300.396)"/>
</clipPath>
</defs>
</svg>
