<svg width="469" height="320" viewBox="0 0 469 320" fill="none" xmlns="http://www.w3.org/2000/svg">
<g clip-path="url(#clip0_1298_155415)">
<g clip-path="url(#clip1_1298_155415)">
<path opacity="0.03" d="M241.104 295.034L463.764 166.72C471.919 162.01 478.532 149.399 478.532 138.545V-111.025C478.532 -121.879 471.919 -126.87 463.764 -122.17L241.115 6.15472C232.96 10.854 226.346 23.4754 226.346 34.3295V283.889C226.346 294.743 232.96 299.744 241.115 295.034H241.104Z" fill="#702eea"/>
<path d="M422.128 49.8194C422.128 68.1217 411.018 91.6369 396.103 104.393C381.174 108.869 370.08 98.1563 370.08 79.8714L370.081 60.0888L396.105 31.8802L422.129 30.0368L422.128 49.8194ZM396.103 97.7931C406.953 88.2373 416.352 68.1133 416.352 53.8685L416.353 37.6559L396.105 39.0549L375.857 61.0375L375.857 77.2501C375.856 91.495 385.254 100.766 396.103 97.7931ZM390.312 87.9545L378.745 81.4512L382.825 74.4458L390.312 78.6205L409.369 45.9024L413.449 48.231" fill="#702eea"/>
<g clip-path="url(#clip2_1298_155415)">
<path d="M307.272 164.072L297.843 169.516C296.546 170.264 295.485 172.102 295.485 173.599L295.485 195.374C295.485 196.871 296.545 197.484 297.842 196.735L311.985 188.569C313.282 187.82 314.343 185.983 314.343 184.486L314.343 168.154L307.272 164.072ZM311.985 185.847L297.842 194.013L297.843 172.238L306.093 167.474L306.093 174.279L311.986 170.876L311.985 185.847ZM293.128 177.682L293.127 202.179L311.985 191.291L311.985 194.013L293.127 204.901C291.831 205.65 290.77 205.037 290.77 203.54L290.771 179.043L293.128 177.682ZM300.2 181.764L300.199 184.486L309.628 179.042L309.628 176.32L300.2 181.764ZM300.199 187.208L300.199 189.93L306.092 186.528L306.092 183.806L300.199 187.208Z" fill="#E0DBFF"/>
</g>
<g clip-path="url(#clip3_1298_155415)">
<path d="M309.885 206.538L300.456 211.982C299.16 212.731 298.099 214.568 298.099 216.065L298.098 237.841C298.098 239.338 299.159 239.95 300.455 239.202L314.599 231.035C315.895 230.287 316.956 228.45 316.956 226.952L316.956 210.621L309.885 206.538ZM314.599 228.314L300.455 236.48L300.456 214.704L308.706 209.941L308.706 216.745L314.599 213.343L314.599 228.314ZM295.741 220.148L295.741 244.646L314.598 233.757L314.598 236.479L295.74 247.368C294.444 248.116 293.383 247.504 293.383 246.007L293.384 221.509L295.741 220.148ZM302.813 224.231L302.813 226.953L312.242 221.509L312.242 218.787L302.813 224.231ZM302.813 229.675L302.813 232.397L308.706 228.994L308.706 226.272L302.813 229.675Z" fill="#E0DBFF"/>
</g>
<g clip-path="url(#clip4_1298_155415)">
<path d="M341.898 143.818L332.469 149.262C331.173 150.011 330.112 151.848 330.112 153.345L330.111 175.121C330.111 176.618 331.172 177.23 332.468 176.482L346.612 168.316C347.908 167.567 348.969 165.73 348.969 164.233L348.97 147.901L341.898 143.818ZM346.612 165.594L332.468 173.76L332.469 151.984L340.719 147.221L340.719 154.025L346.612 150.623L346.612 165.594ZM327.755 157.428L327.754 181.926L346.612 171.037L346.612 173.759L327.754 184.648C326.457 185.396 325.396 184.784 325.397 183.287L325.397 158.789L327.755 157.428ZM334.826 161.511L334.826 164.233L344.255 158.789L344.255 156.067L334.826 161.511ZM334.826 166.955L334.826 169.677L340.719 166.274L340.719 163.552L334.826 166.955Z" fill="#E0DBFF"/>
</g>
<g clip-path="url(#clip5_1298_155415)">
<path d="M343.205 189.551L333.776 194.995C332.479 195.744 331.419 197.581 331.418 199.078L331.418 220.854C331.418 222.351 332.478 222.964 333.775 222.215L347.918 214.049C349.215 213.3 350.276 211.463 350.276 209.966L350.276 193.634L343.205 189.551ZM347.918 211.327L333.775 219.493L333.776 197.717L342.026 192.954L342.026 199.759L347.919 196.356L347.918 211.327ZM329.061 203.161L329.06 227.659L347.918 216.771L347.918 219.493L329.06 230.381C327.764 231.13 326.703 230.517 326.703 229.02L326.704 204.523L329.061 203.161ZM336.133 207.244L336.133 209.966L345.561 204.522L345.562 201.8L336.133 207.244ZM336.132 212.688L336.132 215.41L342.025 212.007L342.026 209.285L336.132 212.688Z" fill="#E0DBFF"/>
</g>
<g clip-path="url(#clip6_1298_155415)">
<path d="M378.484 124.218L369.055 129.662C367.759 130.411 366.698 132.248 366.698 133.745L366.697 155.521C366.697 157.018 367.758 157.631 369.054 156.882L383.198 148.716C384.494 147.967 385.555 146.13 385.555 144.633L385.556 128.301L378.484 124.218ZM383.198 145.994L369.054 154.16L369.055 132.384L377.305 127.621L377.305 134.426L383.198 131.023L383.198 145.994ZM364.34 137.828L364.34 162.326L383.198 151.438L383.197 154.16L364.34 165.048C363.043 165.797 361.982 165.184 361.982 163.687L361.983 139.19L364.34 137.828ZM371.412 141.911L371.412 144.633L380.841 139.189L380.841 136.467L371.412 141.911ZM371.412 147.355L371.412 150.077L377.305 146.674L377.305 143.952L371.412 147.355Z" fill="#E0DBFF"/>
</g>
<g clip-path="url(#clip7_1298_155415)">
<path d="M378.484 170.605L369.055 176.049C367.759 176.798 366.698 178.635 366.698 180.132L366.697 201.908C366.697 203.405 367.758 204.017 369.054 203.268L383.198 195.102C384.494 194.354 385.555 192.516 385.555 191.019L385.556 174.687L378.484 170.605ZM383.198 192.38L369.054 200.546L369.055 178.771L377.305 174.007L377.305 180.812L383.198 177.409L383.198 192.38ZM364.34 184.215L364.34 208.713L383.198 197.824L383.197 200.546L364.34 211.434C363.043 212.183 361.982 211.571 361.982 210.074L361.983 185.576L364.34 184.215ZM371.412 188.298L371.412 191.02L380.841 185.575L380.841 182.853L371.412 188.298ZM371.412 193.742L371.412 196.463L377.305 193.061L377.305 190.339L371.412 193.742Z" fill="#E0DBFF"/>
</g>
<g clip-path="url(#clip8_1298_155415)">
<path d="M413.111 104.618L403.682 110.063C402.386 110.811 401.325 112.649 401.325 114.146L401.324 135.921C401.324 137.418 402.385 138.031 403.681 137.282L417.825 129.116C419.121 128.367 420.182 126.53 420.182 125.033L420.182 108.701L413.111 104.618ZM417.825 126.394L403.681 134.56L403.682 112.785L411.932 108.021L411.932 114.826L417.825 111.423L417.825 126.394ZM398.967 118.229L398.967 142.726L417.825 131.838L417.824 134.56L398.967 145.448C397.67 146.197 396.609 145.584 396.609 144.087L396.61 119.59L398.967 118.229ZM406.039 122.311L406.039 125.033L415.468 119.589L415.468 116.867L406.039 122.311ZM406.039 127.755L406.039 130.477L411.932 127.075L411.932 124.353L406.039 127.755Z" fill="#E0DBFF"/>
</g>
<g clip-path="url(#clip9_1298_155415)">
<path d="M413.111 149.698L403.682 155.142C402.386 155.891 401.325 157.728 401.325 159.225L401.324 181.001C401.324 182.498 402.385 183.111 403.681 182.362L417.825 174.196C419.121 173.447 420.182 171.61 420.182 170.113L420.182 153.781L413.111 149.698ZM417.825 171.474L403.681 179.64L403.682 157.864L411.932 153.101L411.932 159.906L417.825 156.503L417.825 171.474ZM398.967 163.308L398.967 187.806L417.825 176.918L417.824 179.64L398.967 190.528C397.67 191.277 396.609 190.664 396.609 189.167L396.61 164.669L398.967 163.308ZM406.039 167.391L406.039 170.113L415.468 164.669L415.468 161.947L406.039 167.391ZM406.039 172.835L406.039 175.557L411.932 172.154L411.932 169.432L406.039 172.835Z" fill="#E0DBFF"/>
</g>
<g clip-path="url(#clip10_1298_155415)">
<path d="M445.778 86.3249L436.349 91.7691C435.052 92.5177 433.991 94.3551 433.991 95.8521L433.991 117.628C433.991 119.125 435.051 119.737 436.348 118.989L450.491 110.822C451.788 110.074 452.848 108.236 452.848 106.739L452.849 90.4076L445.778 86.3249ZM450.491 108.1L436.348 116.267L436.348 94.4911L444.599 89.7274L444.599 96.5323L450.492 93.1297L450.491 108.1ZM431.634 99.9351L431.633 124.433L450.491 113.544L450.491 116.266L431.633 127.155C430.337 127.903 429.276 127.291 429.276 125.794L429.277 101.296L431.634 99.9351ZM438.705 104.018L438.705 106.74L448.134 101.296L448.134 98.5736L438.705 104.018ZM438.705 109.462L438.705 112.184L444.598 108.781L444.598 106.059L438.705 109.462Z" fill="#E0DBFF"/>
</g>
<g clip-path="url(#clip11_1298_155415)">
<path d="M448.391 130.098L438.962 135.542C437.665 136.291 436.605 138.128 436.605 139.625L436.604 161.401C436.604 162.898 437.664 163.51 438.961 162.762L453.104 154.596C454.401 153.847 455.462 152.01 455.462 150.513L455.462 134.181L448.391 130.098ZM453.104 151.874L438.961 160.04L438.962 138.264L447.212 133.501L447.212 140.305L453.105 136.903L453.104 151.874ZM434.247 143.708L434.246 168.206L453.104 157.318L453.104 160.039L434.246 170.928C432.95 171.676 431.889 171.064 431.889 169.567L431.89 145.069L434.247 143.708ZM441.319 147.791L441.319 150.513L450.748 145.069L450.748 142.347L441.319 147.791ZM441.318 153.235L441.318 155.957L447.211 152.554L447.212 149.832L441.318 153.235Z" fill="#E0DBFF"/>
</g>
<path d="M513.758 -99.1646C511.291 -101.027 507.825 -101.152 503.867 -98.8706L281.217 29.4546C277.247 31.7424 273.613 35.9873 270.968 41.0327C268.326 46.0738 266.7 51.8635 266.7 57.1958V306.755C266.7 312.099 268.328 315.879 270.827 317.766C273.214 319.569 276.535 319.744 280.333 317.683L280.708 317.467L503.367 189.153C507.337 186.86 510.972 182.615 513.617 177.571C516.259 172.531 517.885 166.744 517.885 161.412V-88.1587C517.885 -93.5026 516.257 -97.2792 513.758 -99.1646Z" stroke="#702eea"/>
<line x1="266.199" y1="206.82" x2="206.746" y2="206.82" stroke="#E0DBFF"/>
<line x1="266.199" y1="193.1" x2="206.746" y2="193.1" stroke="#E0DBFF"/>
<line x1="266.199" y1="179.38" x2="206.746" y2="179.38" stroke="#E0DBFF"/>
<line x1="266.199" y1="165.661" x2="206.746" y2="165.661" stroke="#E0DBFF"/>
<line x1="266.199" y1="151.941" x2="206.746" y2="151.941" stroke="#E0DBFF"/>
<line x1="266.199" y1="138.221" x2="206.746" y2="138.221" stroke="#E0DBFF"/>
<line x1="266.199" y1="124.501" x2="206.746" y2="124.501" stroke="#E0DBFF"/>
<line x1="266.199" y1="110.781" x2="206.746" y2="110.781" stroke="#E0DBFF"/>
<line x1="266.199" y1="97.0608" x2="206.746" y2="97.0608" stroke="#E0DBFF"/>
<path d="M73.6642 98.7207H72.7404L72.187 96.8959H69.9232L69.3744 98.7207H68.4872L70.5909 92.0437H71.5513L73.6642 98.7207ZM70.1244 96.2191H71.9858L71.0803 93.2281H71.0254L70.1244 96.2191ZM78.3026 98.7207L75.9702 93.4934H75.9153V98.7207H75.1516V92.0437H76.1074L78.4398 97.1886H78.4947V92.0437H79.2584V98.7207H78.3026ZM85.9228 98.7207H84.999L84.4456 96.8959H82.1818L81.6331 98.7207H80.7458L82.8496 92.0437H83.81L85.9228 98.7207ZM82.3831 96.2191H84.2444L83.3389 93.2281H83.284L82.3831 96.2191ZM87.5749 98.7207V92.0437H88.4621V97.9707H91.6954V98.7207H87.5749ZM96.0366 98.7207H95.1493V95.8075L93.0593 92.0437H94.0243L95.6021 94.9934H95.6616L97.2394 92.0437H98.1266L96.0366 95.7984V98.7207ZM102.344 98.7207H101.457V92.7937H99.431V92.0437H104.37V92.7937H102.344V98.7207ZM106.443 98.7207V97.9707H107.746V92.7937H106.443V92.0437H109.932V92.7937H108.634V97.9707H109.932V98.7207H106.443ZM112.549 95.3868C112.549 97.3396 113.19 98.0439 114.104 98.0439C114.909 98.0439 115.376 97.4813 115.449 96.5392L116.29 96.6078C116.236 97.9981 115.394 98.8259 114.082 98.8259C112.623 98.8259 111.626 97.7512 111.626 95.3868C111.626 93.0086 112.613 91.9385 114.082 91.9385C115.389 91.9385 116.236 92.7662 116.29 94.1382L115.449 94.2068C115.376 93.283 114.909 92.7205 114.104 92.7205C113.19 92.7205 112.549 93.4202 112.549 95.3868ZM121.583 93.809C121.491 92.9903 121.048 92.6702 120.234 92.6702C119.36 92.6702 118.926 92.9903 118.926 93.6077C118.926 94.2206 119.342 94.4538 120.412 94.8837C121.67 95.3868 122.479 95.7938 122.479 96.8914C122.479 98.0027 121.683 98.8305 120.101 98.8305C118.551 98.8305 117.819 98.0621 117.741 96.8502L118.619 96.745C118.725 97.6688 119.205 98.0804 120.138 98.0804C121.075 98.0804 121.551 97.6734 121.551 96.9874C121.551 96.3106 120.993 96.1002 119.918 95.6703C118.839 95.2313 118.034 94.7602 118.034 93.6763C118.034 92.5376 118.866 91.9339 120.298 91.9339C121.482 91.9339 122.388 92.4141 122.447 93.7312L121.583 93.809ZM69.6442 109.387C69.6442 111.34 70.2845 112.044 71.1992 112.044C72.0041 112.044 72.4706 111.481 72.5437 110.539L73.3852 110.608C73.3303 111.998 72.4888 112.826 71.1763 112.826C69.7174 112.826 68.7204 111.751 68.7204 109.387C68.7204 107.009 69.7083 105.938 71.1763 105.938C72.4843 105.938 73.3303 106.766 73.3852 108.138L72.5437 108.207C72.4706 107.283 72.0041 106.721 71.1992 106.721C70.2845 106.721 69.6442 107.42 69.6442 109.387ZM79.5969 109.378C79.5969 111.715 78.673 112.826 77.205 112.826C75.7415 112.826 74.8132 111.715 74.8132 109.378C74.8132 107.004 75.7415 105.934 77.205 105.934C78.673 105.934 79.5969 107.004 79.5969 109.378ZM78.673 109.378C78.673 107.411 78.1334 106.721 77.205 106.721C76.2812 106.721 75.737 107.411 75.737 109.378C75.737 111.344 76.2812 112.044 77.205 112.044C78.1334 112.044 78.673 111.344 78.673 109.378ZM81.1483 106.044H82.0767L83.3298 109.478H83.3846L84.6423 106.044H85.5204V112.721H84.8115V107.402H84.7475L83.4944 110.942H83.1468L81.8937 107.402H81.8389V112.721H81.1483V106.044ZM88.3249 112.721H87.4377V106.044H89.4454C90.7808 106.044 91.7594 106.533 91.7594 107.91C91.7594 109.282 90.9637 110.274 89.0886 110.274H88.3249V112.721ZM89.1206 109.565C90.392 109.565 90.8631 108.966 90.8631 108.019C90.8631 107.073 90.3051 106.743 89.267 106.743H88.3249V109.565H89.1206ZM95.593 112.062C96.6723 112.062 96.8369 111.39 96.8369 110.452V106.044H97.7196V110.699C97.7196 111.916 97.1433 112.826 95.593 112.826C94.0426 112.826 93.4664 111.916 93.4664 110.699V106.044H94.349V110.452C94.349 111.39 94.5137 112.062 95.593 112.062ZM102.344 112.721H101.457V106.794H99.431V106.044H104.37V106.794H102.344V112.721ZM106.26 112.721V106.044H109.932V106.794H107.147V108.98H109.37V109.693H107.147V111.971H109.932V112.721H106.26ZM69.6442 123.387C69.6442 125.34 70.2845 126.044 71.1992 126.044C72.0041 126.044 72.4706 125.481 72.5437 124.539L73.3852 124.608C73.3303 125.998 72.4888 126.826 71.1763 126.826C69.7174 126.826 68.7204 125.751 68.7204 123.387C68.7204 121.009 69.7083 119.938 71.1763 119.938C72.4843 119.938 73.3303 120.766 73.3852 122.138L72.5437 122.207C72.4706 121.283 72.0041 120.721 71.1992 120.721C70.2845 120.721 69.6442 121.42 69.6442 123.387ZM79.5969 123.378C79.5969 125.715 78.673 126.826 77.205 126.826C75.7415 126.826 74.8132 125.715 74.8132 123.378C74.8132 121.004 75.7415 119.934 77.205 119.934C78.673 119.934 79.5969 121.004 79.5969 123.378ZM78.673 123.378C78.673 121.411 78.1334 120.721 77.205 120.721C76.2812 120.721 75.737 121.411 75.737 123.378C75.737 125.344 76.2812 126.044 77.205 126.044C78.1334 126.044 78.673 125.344 78.673 123.378ZM81.1483 120.044H82.0767L83.3298 123.478H83.3846L84.6423 120.044H85.5204V126.721H84.8115V121.402H84.7475L83.4944 124.942H83.1468L81.8937 121.402H81.8389V126.721H81.1483V120.044ZM88.3249 126.721H87.4377V120.044H89.4454C90.7808 120.044 91.7594 120.533 91.7594 121.91C91.7594 123.282 90.9637 124.274 89.0886 124.274H88.3249V126.721ZM89.1206 123.565C90.392 123.565 90.8631 122.966 90.8631 122.019C90.8631 121.073 90.3051 120.743 89.267 120.743H88.3249V123.565H89.1206ZM95.593 126.062C96.6723 126.062 96.8369 125.39 96.8369 124.452V120.044H97.7196V124.699C97.7196 125.916 97.1433 126.826 95.593 126.826C94.0426 126.826 93.4664 125.916 93.4664 124.699V120.044H94.349V124.452C94.349 125.39 94.5137 126.062 95.593 126.062ZM102.344 126.721H101.457V120.794H99.431V120.044H104.37V120.794H102.344V126.721ZM106.26 126.721V120.044H109.932V120.794H107.147V122.98H109.37V123.693H107.147V125.971H109.932V126.721H106.26ZM112.769 127.635H111.841L115.001 120.044H115.934L112.769 127.635ZM118.057 126.721V120.044H119.657C121.569 120.044 122.479 121.205 122.479 123.327C122.479 125.454 121.569 126.721 119.657 126.721H118.057ZM121.555 123.327C121.555 121.571 120.975 120.771 119.584 120.771H118.939V125.994H119.584C120.975 125.994 121.555 125.083 121.555 123.327ZM124.186 126.721V120.044H128.32V120.794H125.069V122.98H127.758V123.693H125.069V125.971H128.32V126.721H124.186ZM129.908 120.044H130.837L132.36 125.372H132.419L133.938 120.044H134.829L132.835 126.721H131.907L129.908 120.044ZM69.6442 137.387C69.6442 139.34 70.2845 140.044 71.1992 140.044C72.0041 140.044 72.4706 139.481 72.5437 138.539L73.3852 138.608C73.3303 139.998 72.4888 140.826 71.1763 140.826C69.7174 140.826 68.7204 139.751 68.7204 137.387C68.7204 135.009 69.7083 133.938 71.1763 133.938C72.4843 133.938 73.3303 134.766 73.3852 136.138L72.5437 136.207C72.4706 135.283 72.0041 134.721 71.1992 134.721C70.2845 134.721 69.6442 135.42 69.6442 137.387ZM79.5969 137.378C79.5969 139.715 78.673 140.826 77.205 140.826C75.7415 140.826 74.8132 139.715 74.8132 137.378C74.8132 135.004 75.7415 133.934 77.205 133.934C78.673 133.934 79.5969 135.004 79.5969 137.378ZM78.673 137.378C78.673 135.411 78.1334 134.721 77.205 134.721C76.2812 134.721 75.737 135.411 75.737 137.378C75.737 139.344 76.2812 140.044 77.205 140.044C78.1334 140.044 78.673 139.344 78.673 137.378ZM81.1483 134.044H82.0767L83.3298 137.478H83.3846L84.6423 134.044H85.5204V140.721H84.8115V135.402H84.7475L83.4944 138.942H83.1468L81.8937 135.402H81.8389V140.721H81.1483V134.044ZM88.3249 140.721H87.4377V134.044H89.4454C90.7808 134.044 91.7594 134.533 91.7594 135.91C91.7594 137.282 90.9637 138.274 89.0886 138.274H88.3249V140.721ZM89.1206 137.565C90.392 137.565 90.8631 136.966 90.8631 136.019C90.8631 135.073 90.3051 134.743 89.267 134.743H88.3249V137.565H89.1206ZM95.593 140.062C96.6723 140.062 96.8369 139.39 96.8369 138.452V134.044H97.7196V138.699C97.7196 139.916 97.1433 140.826 95.593 140.826C94.0426 140.826 93.4664 139.916 93.4664 138.699V134.044H94.349V138.452C94.349 139.39 94.5137 140.062 95.593 140.062ZM102.344 140.721H101.457V134.794H99.431V134.044H104.37V134.794H102.344V140.721ZM106.26 140.721V134.044H109.932V134.794H107.147V136.98H109.37V137.693H107.147V139.971H109.932V140.721H106.26ZM112.769 141.635H111.841L115.001 134.044H115.934L112.769 141.635ZM118.971 140.721H118.084V134.044H120.092C121.427 134.044 122.406 134.533 122.406 135.91C122.406 137.282 121.61 138.274 119.735 138.274H118.971V140.721ZM119.767 137.565C121.039 137.565 121.51 136.966 121.51 136.019C121.51 135.073 120.952 134.743 119.914 134.743H118.971V137.565H119.767ZM125.101 140.721H124.214V134.044H126.226C127.57 134.044 128.494 134.588 128.494 135.859C128.494 136.87 127.959 137.615 126.944 137.904L128.714 140.721H127.648L126.089 138.032L125.915 138.036H125.101V140.721ZM125.887 137.346C127.131 137.346 127.584 136.779 127.584 135.946C127.584 135.068 127.04 134.743 125.997 134.743H125.101V137.346H125.887ZM134.761 137.378C134.761 139.715 133.837 140.826 132.369 140.826C130.905 140.826 129.977 139.715 129.977 137.378C129.977 135.004 130.905 133.934 132.369 133.934C133.837 133.934 134.761 135.004 134.761 137.378ZM133.837 137.378C133.837 135.411 133.297 134.721 132.369 134.721C131.445 134.721 130.901 135.411 130.901 137.378C130.901 139.344 131.445 140.044 132.369 140.044C133.297 140.044 133.837 139.344 133.837 137.378ZM136.445 140.721V134.044H138.045C139.957 134.044 140.867 135.205 140.867 137.327C140.867 139.454 139.957 140.721 138.045 140.721H136.445ZM139.943 137.327C139.943 135.571 139.363 134.771 137.972 134.771H137.327V139.994H137.972C139.363 139.994 139.943 139.083 139.943 137.327ZM69.6442 151.387C69.6442 153.34 70.2845 154.044 71.1992 154.044C72.0041 154.044 72.4706 153.481 72.5437 152.539L73.3852 152.608C73.3303 153.998 72.4888 154.826 71.1763 154.826C69.7174 154.826 68.7204 153.751 68.7204 151.387C68.7204 149.009 69.7083 147.938 71.1763 147.938C72.4843 147.938 73.3303 148.766 73.3852 150.138L72.5437 150.207C72.4706 149.283 72.0041 148.721 71.1992 148.721C70.2845 148.721 69.6442 149.42 69.6442 151.387ZM79.5969 151.378C79.5969 153.715 78.673 154.826 77.205 154.826C75.7415 154.826 74.8132 153.715 74.8132 151.378C74.8132 149.004 75.7415 147.934 77.205 147.934C78.673 147.934 79.5969 149.004 79.5969 151.378ZM78.673 151.378C78.673 149.411 78.1334 148.721 77.205 148.721C76.2812 148.721 75.737 149.411 75.737 151.378C75.737 153.344 76.2812 154.044 77.205 154.044C78.1334 154.044 78.673 153.344 78.673 151.378ZM82.1956 154.721H81.3083V148.044H83.3206C84.6652 148.044 85.589 148.588 85.589 149.859C85.589 150.87 85.0539 151.615 84.0386 151.904L85.8085 154.721H84.7429L83.1834 152.032L83.0096 152.036H82.1956V154.721ZM82.9822 151.346C84.2261 151.346 84.6789 150.779 84.6789 149.946C84.6789 149.068 84.1347 148.743 83.0919 148.743H82.1956V151.346H82.9822ZM87.4102 154.721V148.044H91.5445V148.794H88.2929V150.98H90.982V151.693H88.2929V153.971H91.5445V154.721H87.4102ZM94.1295 152.1V151.35H97.0564V152.1H94.1295ZM99.6414 154.721V153.971H101.279V148.794H99.6414V148.044H103.803V148.794H102.166V153.971H103.803V154.721H99.6414ZM108.949 154.721L106.617 149.493H106.562V154.721H105.798V148.044H106.754L109.086 153.189H109.141V148.044H109.905V154.721H108.949ZM112.81 154.721H111.927V148.044H116.053V148.794H112.81V151.158H115.49V151.876H112.81V154.721ZM118.971 154.721H118.084V148.044H120.097C121.441 148.044 122.365 148.588 122.365 149.859C122.365 150.87 121.83 151.615 120.815 151.904L122.584 154.721H121.519L119.959 152.032L119.786 152.036H118.971V154.721ZM119.758 151.346C121.002 151.346 121.455 150.779 121.455 149.946C121.455 149.068 120.911 148.743 119.868 148.743H118.971V151.346H119.758ZM128.828 154.721H127.904L127.351 152.896H125.087L124.538 154.721H123.651L125.755 148.044H126.715L128.828 154.721ZM125.288 152.219H127.15L126.244 149.228H126.189L125.288 152.219ZM69.6442 165.387C69.6442 167.34 70.2845 168.044 71.1992 168.044C72.0041 168.044 72.4706 167.481 72.5437 166.539L73.3852 166.608C73.3303 167.998 72.4888 168.826 71.1763 168.826C69.7174 168.826 68.7204 167.751 68.7204 165.387C68.7204 163.009 69.7083 161.938 71.1763 161.938C72.4843 161.938 73.3303 162.766 73.3852 164.138L72.5437 164.207C72.4706 163.283 72.0041 162.721 71.1992 162.721C70.2845 162.721 69.6442 163.42 69.6442 165.387ZM79.5969 165.378C79.5969 167.715 78.673 168.826 77.205 168.826C75.7415 168.826 74.8132 167.715 74.8132 165.378C74.8132 163.004 75.7415 161.934 77.205 161.934C78.673 161.934 79.5969 163.004 79.5969 165.378ZM78.673 165.378C78.673 163.411 78.1334 162.721 77.205 162.721C76.2812 162.721 75.737 163.411 75.737 165.378C75.737 167.344 76.2812 168.044 77.205 168.044C78.1334 168.044 78.673 167.344 78.673 165.378ZM82.1956 168.721H81.3083V162.044H83.3206C84.6652 162.044 85.589 162.588 85.589 163.859C85.589 164.87 85.0539 165.615 84.0386 165.904L85.8085 168.721H84.7429L83.1834 166.032L83.0096 166.036H82.1956V168.721ZM82.9822 165.346C84.2261 165.346 84.6789 164.779 84.6789 163.946C84.6789 163.068 84.1347 162.743 83.0919 162.743H82.1956V165.346H82.9822ZM87.4102 168.721V162.044H91.5445V162.794H88.2929V164.98H90.982V165.693H88.2929V167.971H91.5445V168.721H87.4102ZM94.1295 166.1V165.35H97.0564V166.1H94.1295ZM99.6414 168.721V167.971H101.279V162.794H99.6414V162.044H103.803V162.794H102.166V167.971H103.803V168.721H99.6414ZM108.949 168.721L106.617 163.493H106.562V168.721H105.798V162.044H106.754L109.086 167.189H109.141V162.044H109.905V168.721H108.949ZM112.81 168.721H111.927V162.044H116.053V162.794H112.81V165.158H115.49V165.876H112.81V168.721ZM118.971 168.721H118.084V162.044H120.097C121.441 162.044 122.365 162.588 122.365 163.859C122.365 164.87 121.83 165.615 120.815 165.904L122.584 168.721H121.519L119.959 166.032L119.786 166.036H118.971V168.721ZM119.758 165.346C121.002 165.346 121.455 164.779 121.455 163.946C121.455 163.068 120.911 162.743 119.868 162.743H118.971V165.346H119.758ZM128.828 168.721H127.904L127.351 166.896H125.087L124.538 168.721H123.651L125.755 162.044H126.715L128.828 168.721ZM125.288 166.219H127.15L126.244 163.228H126.189L125.288 166.219ZM131.157 169.635H130.229L133.389 162.044H134.322L131.157 169.635ZM136.445 168.721V162.044H138.045C139.957 162.044 140.867 163.205 140.867 165.327C140.867 167.454 139.957 168.721 138.045 168.721H136.445ZM139.943 165.327C139.943 163.571 139.363 162.771 137.972 162.771H137.327V167.994H137.972C139.363 167.994 139.943 167.083 139.943 165.327ZM142.574 168.721V162.044H146.708V162.794H143.457V164.98H146.146V165.693H143.457V167.971H146.708V168.721H142.574ZM148.296 162.044H149.225L150.748 167.372H150.807L152.325 162.044H153.217L151.223 168.721H150.295L148.296 162.044ZM69.6442 179.387C69.6442 181.34 70.2845 182.044 71.1992 182.044C72.0041 182.044 72.4706 181.481 72.5437 180.539L73.3852 180.608C73.3303 181.998 72.4888 182.826 71.1763 182.826C69.7174 182.826 68.7204 181.751 68.7204 179.387C68.7204 177.009 69.7083 175.938 71.1763 175.938C72.4843 175.938 73.3303 176.766 73.3852 178.138L72.5437 178.207C72.4706 177.283 72.0041 176.721 71.1992 176.721C70.2845 176.721 69.6442 177.42 69.6442 179.387ZM79.5969 179.378C79.5969 181.715 78.673 182.826 77.205 182.826C75.7415 182.826 74.8132 181.715 74.8132 179.378C74.8132 177.004 75.7415 175.934 77.205 175.934C78.673 175.934 79.5969 177.004 79.5969 179.378ZM78.673 179.378C78.673 177.411 78.1334 176.721 77.205 176.721C76.2812 176.721 75.737 177.411 75.737 179.378C75.737 181.344 76.2812 182.044 77.205 182.044C78.1334 182.044 78.673 181.344 78.673 179.378ZM82.1956 182.721H81.3083V176.044H83.3206C84.6652 176.044 85.589 176.588 85.589 177.859C85.589 178.87 85.0539 179.615 84.0386 179.904L85.8085 182.721H84.7429L83.1834 180.032L83.0096 180.036H82.1956V182.721ZM82.9822 179.346C84.2261 179.346 84.6789 178.779 84.6789 177.946C84.6789 177.068 84.1347 176.743 83.0919 176.743H82.1956V179.346H82.9822ZM87.4102 182.721V176.044H91.5445V176.794H88.2929V178.98H90.982V179.693H88.2929V181.971H91.5445V182.721H87.4102ZM94.1295 180.1V179.35H97.0564V180.1H94.1295ZM99.6414 182.721V181.971H101.279V176.794H99.6414V176.044H103.803V176.794H102.166V181.971H103.803V182.721H99.6414ZM108.949 182.721L106.617 177.493H106.562V182.721H105.798V176.044H106.754L109.086 181.189H109.141V176.044H109.905V182.721H108.949ZM112.81 182.721H111.927V176.044H116.053V176.794H112.81V179.158H115.49V179.876H112.81V182.721ZM118.971 182.721H118.084V176.044H120.097C121.441 176.044 122.365 176.588 122.365 177.859C122.365 178.87 121.83 179.615 120.815 179.904L122.584 182.721H121.519L119.959 180.032L119.786 180.036H118.971V182.721ZM119.758 179.346C121.002 179.346 121.455 178.779 121.455 177.946C121.455 177.068 120.911 176.743 119.868 176.743H118.971V179.346H119.758ZM128.828 182.721H127.904L127.351 180.896H125.087L124.538 182.721H123.651L125.755 176.044H126.715L128.828 182.721ZM125.288 180.219H127.15L126.244 177.228H126.189L125.288 180.219ZM131.157 183.635H130.229L133.389 176.044H134.322L131.157 183.635ZM137.359 182.721H136.472V176.044H138.48C139.815 176.044 140.794 176.533 140.794 177.91C140.794 179.282 139.998 180.274 138.123 180.274H137.359V182.721ZM138.155 179.565C139.427 179.565 139.898 178.966 139.898 178.019C139.898 177.073 139.34 176.743 138.302 176.743H137.359V179.565H138.155ZM143.489 182.721H142.602V176.044H144.614C145.958 176.044 146.882 176.588 146.882 177.859C146.882 178.87 146.347 179.615 145.332 179.904L147.102 182.721H146.036L144.477 180.032L144.303 180.036H143.489V182.721ZM144.275 179.346C145.519 179.346 145.972 178.779 145.972 177.946C145.972 177.068 145.428 176.743 144.385 176.743H143.489V179.346H144.275ZM153.149 179.378C153.149 181.715 152.225 182.826 150.757 182.826C149.293 182.826 148.365 181.715 148.365 179.378C148.365 177.004 149.293 175.934 150.757 175.934C152.225 175.934 153.149 177.004 153.149 179.378ZM152.225 179.378C152.225 177.411 151.685 176.721 150.757 176.721C149.833 176.721 149.289 177.411 149.289 179.378C149.289 181.344 149.833 182.044 150.757 182.044C151.685 182.044 152.225 181.344 152.225 179.378ZM154.833 182.721V176.044H156.433C158.345 176.044 159.255 177.205 159.255 179.327C159.255 181.454 158.345 182.721 156.433 182.721H154.833ZM158.331 179.327C158.331 177.571 157.75 176.771 156.36 176.771H155.715V181.994H156.36C157.75 181.994 158.331 181.083 158.331 179.327ZM72.1733 196.721L69.8409 191.493H69.786V196.721H69.0223V190.044H69.9781L72.3105 195.189H72.3654V190.044H73.1291V196.721H72.1733ZM75.1516 196.721V190.044H78.824V190.794H76.0342V192.98H78.2569V193.693H76.0342V195.971H78.824V196.721H75.1516ZM83.6042 196.721H82.7169V190.794H80.6909V190.044H85.6256V190.794H83.6042V196.721ZM86.77 190.044H87.6115L88.3386 194.887H88.4072L89.1801 191.16H89.8524L90.5521 194.887H90.6207L91.3524 190.044H92.1573L91.0963 196.721H90.3051L89.4957 192.527H89.4316L88.5627 196.721H87.8264L86.77 190.044ZM97.9848 193.378C97.9848 195.715 97.061 196.826 95.593 196.826C94.1295 196.826 93.2011 195.715 93.2011 193.378C93.2011 191.004 94.1295 189.934 95.593 189.934C97.061 189.934 97.9848 191.004 97.9848 193.378ZM97.061 193.378C97.061 191.411 96.5213 190.721 95.593 190.721C94.6692 190.721 94.1249 191.411 94.1249 193.378C94.1249 195.344 94.6692 196.044 95.593 196.044C96.5213 196.044 97.061 195.344 97.061 193.378ZM100.584 196.721H99.6963V190.044H101.709C103.053 190.044 103.977 190.588 103.977 191.859C103.977 192.87 103.442 193.615 102.427 193.904L104.196 196.721H103.131L101.571 194.032L101.398 194.036H100.584V196.721ZM101.37 193.346C102.614 193.346 103.067 192.779 103.067 191.946C103.067 191.068 102.523 190.743 101.48 190.743H100.584V193.346H101.37ZM106.681 196.721H105.798V190.044H106.681V192.948H107.664L109.292 190.044H110.262L108.364 193.291V193.359L110.339 196.721H109.329L107.559 193.698H106.681V196.721ZM111.9 196.721V195.971H113.537V190.794H111.9V190.044H116.062V190.794H114.425V195.971H116.062V196.721H111.9ZM121.208 196.721L118.875 191.493H118.821V196.721H118.057V190.044H119.013L121.345 195.189H121.4V190.044H122.164V196.721H121.208ZM126.381 193.309H128.572V194.215C128.572 196.08 127.593 196.83 126.368 196.83C124.863 196.83 123.884 195.824 123.884 193.387C123.884 190.945 124.858 189.938 126.363 189.938C127.511 189.938 128.398 190.597 128.54 192.042L127.694 192.125C127.566 191.082 127.058 190.725 126.363 190.725C125.416 190.725 124.808 191.388 124.808 193.396C124.813 195.449 125.407 196.053 126.395 196.053C127.209 196.053 127.73 195.573 127.73 194.279V194.036H126.381V193.309ZM72.1733 210.721L69.8409 205.493H69.786V210.721H69.0223V204.044H69.9781L72.3105 209.189H72.3654V204.044H73.1291V210.721H72.1733ZM75.1516 210.721V204.044H78.824V204.794H76.0342V206.98H78.2569V207.693H76.0342V209.971H78.824V210.721H75.1516ZM83.6042 210.721H82.7169V204.794H80.6909V204.044H85.6256V204.794H83.6042V210.721ZM86.77 204.044H87.6115L88.3386 208.887H88.4072L89.1801 205.16H89.8524L90.5521 208.887H90.6207L91.3524 204.044H92.1573L91.0963 210.721H90.3051L89.4957 206.527H89.4316L88.5627 210.721H87.8264L86.77 204.044ZM97.9848 207.378C97.9848 209.715 97.061 210.826 95.593 210.826C94.1295 210.826 93.2011 209.715 93.2011 207.378C93.2011 205.004 94.1295 203.934 95.593 203.934C97.061 203.934 97.9848 205.004 97.9848 207.378ZM97.061 207.378C97.061 205.411 96.5213 204.721 95.593 204.721C94.6692 204.721 94.1249 205.411 94.1249 207.378C94.1249 209.344 94.6692 210.044 95.593 210.044C96.5213 210.044 97.061 209.344 97.061 207.378ZM100.584 210.721H99.6963V204.044H101.709C103.053 204.044 103.977 204.588 103.977 205.859C103.977 206.87 103.442 207.615 102.427 207.904L104.196 210.721H103.131L101.571 208.032L101.398 208.036H100.584V210.721ZM101.37 207.346C102.614 207.346 103.067 206.779 103.067 205.946C103.067 205.068 102.523 204.743 101.48 204.743H100.584V207.346H101.37ZM106.681 210.721H105.798V204.044H106.681V206.948H107.664L109.292 204.044H110.262L108.364 207.291V207.359L110.339 210.721H109.329L107.559 207.698H106.681V210.721ZM111.9 210.721V209.971H113.537V204.794H111.9V204.044H116.062V204.794H114.425V209.971H116.062V210.721H111.9ZM121.208 210.721L118.875 205.493H118.821V210.721H118.057V204.044H119.013L121.345 209.189H121.4V204.044H122.164V210.721H121.208ZM126.381 207.309H128.572V208.215C128.572 210.08 127.593 210.83 126.368 210.83C124.863 210.83 123.884 209.824 123.884 207.387C123.884 204.945 124.858 203.938 126.363 203.938C127.511 203.938 128.398 204.597 128.54 206.042L127.694 206.125C127.566 205.082 127.058 204.725 126.363 204.725C125.416 204.725 124.808 205.388 124.808 207.396C124.813 209.449 125.407 210.053 126.395 210.053C127.209 210.053 127.73 209.573 127.73 208.279V208.036H126.381V207.309ZM131.157 211.635H130.229L133.389 204.044H134.322L131.157 211.635ZM136.445 210.721V204.044H138.045C139.957 204.044 140.867 205.205 140.867 207.327C140.867 209.454 139.957 210.721 138.045 210.721H136.445ZM139.943 207.327C139.943 205.571 139.363 204.771 137.972 204.771H137.327V209.994H137.972C139.363 209.994 139.943 209.083 139.943 207.327ZM142.574 210.721V204.044H146.708V204.794H143.457V206.98H146.146V207.693H143.457V209.971H146.708V210.721H142.574ZM148.296 204.044H149.225L150.748 209.372H150.807L152.325 204.044H153.217L151.223 210.721H150.295L148.296 204.044Z" fill="black"/>
<path d="M175.131 93.3288C175.615 93.3288 176.475 92.7434 176.644 92.0437H177.532V97.9707H179.256V98.7207H174.966V97.9707H176.644V93.4202C176.215 93.8867 175.643 94.2023 175.131 94.2023V93.3288ZM185.55 95.3776C185.55 97.7146 184.64 98.8305 183.158 98.8305C181.676 98.8305 180.766 97.7146 180.766 95.3776C180.766 93.0041 181.676 91.9293 183.158 91.9293C184.64 91.9293 185.55 93.0041 185.55 95.3776ZM184.612 95.3776C184.612 93.4111 184.095 92.7205 183.158 92.7205C182.225 92.7205 181.704 93.4111 181.704 95.3776C181.704 97.3441 182.225 98.0393 183.158 98.0393C184.095 98.0393 184.612 97.3441 184.612 95.3776ZM183.158 96.1002C183.487 96.1002 183.67 95.8349 183.67 95.3913C183.67 94.9386 183.487 94.6825 183.158 94.6825C182.833 94.6825 182.65 94.9386 182.65 95.3913C182.65 95.8349 182.833 96.1002 183.158 96.1002ZM191.679 95.3776C191.679 97.7146 190.769 98.8305 189.287 98.8305C187.805 98.8305 186.895 97.7146 186.895 95.3776C186.895 93.0041 187.805 91.9293 189.287 91.9293C190.769 91.9293 191.679 93.0041 191.679 95.3776ZM190.742 95.3776C190.742 93.4111 190.225 92.7205 189.287 92.7205C188.354 92.7205 187.833 93.4111 187.833 95.3776C187.833 97.3441 188.354 98.0393 189.287 98.0393C190.225 98.0393 190.742 97.3441 190.742 95.3776ZM189.287 96.1002C189.616 96.1002 189.799 95.8349 189.799 95.3913C189.799 94.9386 189.616 94.6825 189.287 94.6825C188.962 94.6825 188.78 94.9386 188.78 95.3913C188.78 95.8349 188.962 96.1002 189.287 96.1002ZM194.031 94.3257C193.409 94.3257 192.947 93.8593 192.947 93.123C192.947 92.3958 193.409 91.9339 194.031 91.9339C194.653 91.9339 195.115 92.3958 195.115 93.123C195.115 93.8593 194.653 94.3257 194.031 94.3257ZM194.031 93.8547C194.337 93.8547 194.552 93.6169 194.552 93.123C194.552 92.6336 194.337 92.4004 194.031 92.4004C193.729 92.4004 193.509 92.6336 193.509 93.123C193.509 93.6169 193.729 93.8547 194.031 93.8547ZM196.802 98.8305C196.18 98.8305 195.718 98.3594 195.718 97.6277C195.718 96.9005 196.18 96.4386 196.802 96.4386C197.424 96.4386 197.886 96.9005 197.886 97.6277C197.886 98.3594 197.424 98.8305 196.802 98.8305ZM196.802 98.364C197.109 98.364 197.328 98.1216 197.328 97.6277C197.328 97.1383 197.109 96.9051 196.802 96.9051C196.5 96.9051 196.281 97.1383 196.281 97.6277C196.281 98.1216 196.5 98.364 196.802 98.364ZM193.935 98.7207H193.313L196.898 92.0437H197.52L193.935 98.7207ZM175.131 107.329C175.615 107.329 176.475 106.743 176.644 106.044H177.532V111.971H179.256V112.721H174.966V111.971H176.644V107.42C176.215 107.887 175.643 108.202 175.131 108.202V107.329ZM185.55 109.378C185.55 111.715 184.64 112.83 183.158 112.83C181.676 112.83 180.766 111.715 180.766 109.378C180.766 107.004 181.676 105.929 183.158 105.929C184.64 105.929 185.55 107.004 185.55 109.378ZM184.612 109.378C184.612 107.411 184.095 106.721 183.158 106.721C182.225 106.721 181.704 107.411 181.704 109.378C181.704 111.344 182.225 112.039 183.158 112.039C184.095 112.039 184.612 111.344 184.612 109.378ZM183.158 110.1C183.487 110.1 183.67 109.835 183.67 109.391C183.67 108.939 183.487 108.682 183.158 108.682C182.833 108.682 182.65 108.939 182.65 109.391C182.65 109.835 182.833 110.1 183.158 110.1ZM191.679 109.378C191.679 111.715 190.769 112.83 189.287 112.83C187.805 112.83 186.895 111.715 186.895 109.378C186.895 107.004 187.805 105.929 189.287 105.929C190.769 105.929 191.679 107.004 191.679 109.378ZM190.742 109.378C190.742 107.411 190.225 106.721 189.287 106.721C188.354 106.721 187.833 107.411 187.833 109.378C187.833 111.344 188.354 112.039 189.287 112.039C190.225 112.039 190.742 111.344 190.742 109.378ZM189.287 110.1C189.616 110.1 189.799 109.835 189.799 109.391C189.799 108.939 189.616 108.682 189.287 108.682C188.962 108.682 188.78 108.939 188.78 109.391C188.78 109.835 188.962 110.1 189.287 110.1ZM194.031 108.326C193.409 108.326 192.947 107.859 192.947 107.123C192.947 106.396 193.409 105.934 194.031 105.934C194.653 105.934 195.115 106.396 195.115 107.123C195.115 107.859 194.653 108.326 194.031 108.326ZM194.031 107.855C194.337 107.855 194.552 107.617 194.552 107.123C194.552 106.634 194.337 106.4 194.031 106.4C193.729 106.4 193.509 106.634 193.509 107.123C193.509 107.617 193.729 107.855 194.031 107.855ZM196.802 112.83C196.18 112.83 195.718 112.359 195.718 111.628C195.718 110.901 196.18 110.439 196.802 110.439C197.424 110.439 197.886 110.901 197.886 111.628C197.886 112.359 197.424 112.83 196.802 112.83ZM196.802 112.364C197.109 112.364 197.328 112.122 197.328 111.628C197.328 111.138 197.109 110.905 196.802 110.905C196.5 110.905 196.281 111.138 196.281 111.628C196.281 112.122 196.5 112.364 196.802 112.364ZM193.935 112.721H193.313L196.898 106.044H197.52L193.935 112.721ZM175.131 135.329C175.615 135.329 176.475 134.743 176.644 134.044H177.532V139.971H179.256V140.721H174.966V139.971H176.644V135.42C176.215 135.887 175.643 136.202 175.131 136.202V135.329ZM185.55 137.378C185.55 139.715 184.64 140.83 183.158 140.83C181.676 140.83 180.766 139.715 180.766 137.378C180.766 135.004 181.676 133.929 183.158 133.929C184.64 133.929 185.55 135.004 185.55 137.378ZM184.612 137.378C184.612 135.411 184.095 134.721 183.158 134.721C182.225 134.721 181.704 135.411 181.704 137.378C181.704 139.344 182.225 140.039 183.158 140.039C184.095 140.039 184.612 139.344 184.612 137.378ZM183.158 138.1C183.487 138.1 183.67 137.835 183.67 137.391C183.67 136.939 183.487 136.682 183.158 136.682C182.833 136.682 182.65 136.939 182.65 137.391C182.65 137.835 182.833 138.1 183.158 138.1ZM191.679 137.378C191.679 139.715 190.769 140.83 189.287 140.83C187.805 140.83 186.895 139.715 186.895 137.378C186.895 135.004 187.805 133.929 189.287 133.929C190.769 133.929 191.679 135.004 191.679 137.378ZM190.742 137.378C190.742 135.411 190.225 134.721 189.287 134.721C188.354 134.721 187.833 135.411 187.833 137.378C187.833 139.344 188.354 140.039 189.287 140.039C190.225 140.039 190.742 139.344 190.742 137.378ZM189.287 138.1C189.616 138.1 189.799 137.835 189.799 137.391C189.799 136.939 189.616 136.682 189.287 136.682C188.962 136.682 188.78 136.939 188.78 137.391C188.78 137.835 188.962 138.1 189.287 138.1ZM194.031 136.326C193.409 136.326 192.947 135.859 192.947 135.123C192.947 134.396 193.409 133.934 194.031 133.934C194.653 133.934 195.115 134.396 195.115 135.123C195.115 135.859 194.653 136.326 194.031 136.326ZM194.031 135.855C194.337 135.855 194.552 135.617 194.552 135.123C194.552 134.634 194.337 134.4 194.031 134.4C193.729 134.4 193.509 134.634 193.509 135.123C193.509 135.617 193.729 135.855 194.031 135.855ZM196.802 140.83C196.18 140.83 195.718 140.359 195.718 139.628C195.718 138.901 196.18 138.439 196.802 138.439C197.424 138.439 197.886 138.901 197.886 139.628C197.886 140.359 197.424 140.83 196.802 140.83ZM196.802 140.364C197.109 140.364 197.328 140.122 197.328 139.628C197.328 139.138 197.109 138.905 196.802 138.905C196.5 138.905 196.281 139.138 196.281 139.628C196.281 140.122 196.5 140.364 196.802 140.364ZM193.935 140.721H193.313L196.898 134.044H197.52L193.935 140.721ZM175.131 163.329C175.615 163.329 176.475 162.743 176.644 162.044H177.532V167.971H179.256V168.721H174.966V167.971H176.644V163.42C176.215 163.887 175.643 164.202 175.131 164.202V163.329ZM185.55 165.378C185.55 167.715 184.64 168.83 183.158 168.83C181.676 168.83 180.766 167.715 180.766 165.378C180.766 163.004 181.676 161.929 183.158 161.929C184.64 161.929 185.55 163.004 185.55 165.378ZM184.612 165.378C184.612 163.411 184.095 162.721 183.158 162.721C182.225 162.721 181.704 163.411 181.704 165.378C181.704 167.344 182.225 168.039 183.158 168.039C184.095 168.039 184.612 167.344 184.612 165.378ZM183.158 166.1C183.487 166.1 183.67 165.835 183.67 165.391C183.67 164.939 183.487 164.682 183.158 164.682C182.833 164.682 182.65 164.939 182.65 165.391C182.65 165.835 182.833 166.1 183.158 166.1ZM191.679 165.378C191.679 167.715 190.769 168.83 189.287 168.83C187.805 168.83 186.895 167.715 186.895 165.378C186.895 163.004 187.805 161.929 189.287 161.929C190.769 161.929 191.679 163.004 191.679 165.378ZM190.742 165.378C190.742 163.411 190.225 162.721 189.287 162.721C188.354 162.721 187.833 163.411 187.833 165.378C187.833 167.344 188.354 168.039 189.287 168.039C190.225 168.039 190.742 167.344 190.742 165.378ZM189.287 166.1C189.616 166.1 189.799 165.835 189.799 165.391C189.799 164.939 189.616 164.682 189.287 164.682C188.962 164.682 188.78 164.939 188.78 165.391C188.78 165.835 188.962 166.1 189.287 166.1ZM194.031 164.326C193.409 164.326 192.947 163.859 192.947 163.123C192.947 162.396 193.409 161.934 194.031 161.934C194.653 161.934 195.115 162.396 195.115 163.123C195.115 163.859 194.653 164.326 194.031 164.326ZM194.031 163.855C194.337 163.855 194.552 163.617 194.552 163.123C194.552 162.634 194.337 162.4 194.031 162.4C193.729 162.4 193.509 162.634 193.509 163.123C193.509 163.617 193.729 163.855 194.031 163.855ZM196.802 168.83C196.18 168.83 195.718 168.359 195.718 167.628C195.718 166.901 196.18 166.439 196.802 166.439C197.424 166.439 197.886 166.901 197.886 167.628C197.886 168.359 197.424 168.83 196.802 168.83ZM196.802 168.364C197.109 168.364 197.328 168.122 197.328 167.628C197.328 167.138 197.109 166.905 196.802 166.905C196.5 166.905 196.281 167.138 196.281 167.628C196.281 168.122 196.5 168.364 196.802 168.364ZM193.935 168.721H193.313L196.898 162.044H197.52L193.935 168.721ZM175.131 177.329C175.615 177.329 176.475 176.743 176.644 176.044H177.532V181.971H179.256V182.721H174.966V181.971H176.644V177.42C176.215 177.887 175.643 178.202 175.131 178.202V177.329ZM185.55 179.378C185.55 181.715 184.64 182.83 183.158 182.83C181.676 182.83 180.766 181.715 180.766 179.378C180.766 177.004 181.676 175.929 183.158 175.929C184.64 175.929 185.55 177.004 185.55 179.378ZM184.612 179.378C184.612 177.411 184.095 176.721 183.158 176.721C182.225 176.721 181.704 177.411 181.704 179.378C181.704 181.344 182.225 182.039 183.158 182.039C184.095 182.039 184.612 181.344 184.612 179.378ZM183.158 180.1C183.487 180.1 183.67 179.835 183.67 179.391C183.67 178.939 183.487 178.682 183.158 178.682C182.833 178.682 182.65 178.939 182.65 179.391C182.65 179.835 182.833 180.1 183.158 180.1ZM191.679 179.378C191.679 181.715 190.769 182.83 189.287 182.83C187.805 182.83 186.895 181.715 186.895 179.378C186.895 177.004 187.805 175.929 189.287 175.929C190.769 175.929 191.679 177.004 191.679 179.378ZM190.742 179.378C190.742 177.411 190.225 176.721 189.287 176.721C188.354 176.721 187.833 177.411 187.833 179.378C187.833 181.344 188.354 182.039 189.287 182.039C190.225 182.039 190.742 181.344 190.742 179.378ZM189.287 180.1C189.616 180.1 189.799 179.835 189.799 179.391C189.799 178.939 189.616 178.682 189.287 178.682C188.962 178.682 188.78 178.939 188.78 179.391C188.78 179.835 188.962 180.1 189.287 180.1ZM194.031 178.326C193.409 178.326 192.947 177.859 192.947 177.123C192.947 176.396 193.409 175.934 194.031 175.934C194.653 175.934 195.115 176.396 195.115 177.123C195.115 177.859 194.653 178.326 194.031 178.326ZM194.031 177.855C194.337 177.855 194.552 177.617 194.552 177.123C194.552 176.634 194.337 176.4 194.031 176.4C193.729 176.4 193.509 176.634 193.509 177.123C193.509 177.617 193.729 177.855 194.031 177.855ZM196.802 182.83C196.18 182.83 195.718 182.359 195.718 181.628C195.718 180.901 196.18 180.439 196.802 180.439C197.424 180.439 197.886 180.901 197.886 181.628C197.886 182.359 197.424 182.83 196.802 182.83ZM196.802 182.364C197.109 182.364 197.328 182.122 197.328 181.628C197.328 181.138 197.109 180.905 196.802 180.905C196.5 180.905 196.281 181.138 196.281 181.628C196.281 182.122 196.5 182.364 196.802 182.364ZM193.935 182.721H193.313L196.898 176.044H197.52L193.935 182.721ZM175.131 191.329C175.615 191.329 176.475 190.743 176.644 190.044H177.532V195.971H179.256V196.721H174.966V195.971H176.644V191.42C176.215 191.887 175.643 192.202 175.131 192.202V191.329ZM185.55 193.378C185.55 195.715 184.64 196.83 183.158 196.83C181.676 196.83 180.766 195.715 180.766 193.378C180.766 191.004 181.676 189.929 183.158 189.929C184.64 189.929 185.55 191.004 185.55 193.378ZM184.612 193.378C184.612 191.411 184.095 190.721 183.158 190.721C182.225 190.721 181.704 191.411 181.704 193.378C181.704 195.344 182.225 196.039 183.158 196.039C184.095 196.039 184.612 195.344 184.612 193.378ZM183.158 194.1C183.487 194.1 183.67 193.835 183.67 193.391C183.67 192.939 183.487 192.682 183.158 192.682C182.833 192.682 182.65 192.939 182.65 193.391C182.65 193.835 182.833 194.1 183.158 194.1ZM191.679 193.378C191.679 195.715 190.769 196.83 189.287 196.83C187.805 196.83 186.895 195.715 186.895 193.378C186.895 191.004 187.805 189.929 189.287 189.929C190.769 189.929 191.679 191.004 191.679 193.378ZM190.742 193.378C190.742 191.411 190.225 190.721 189.287 190.721C188.354 190.721 187.833 191.411 187.833 193.378C187.833 195.344 188.354 196.039 189.287 196.039C190.225 196.039 190.742 195.344 190.742 193.378ZM189.287 194.1C189.616 194.1 189.799 193.835 189.799 193.391C189.799 192.939 189.616 192.682 189.287 192.682C188.962 192.682 188.78 192.939 188.78 193.391C188.78 193.835 188.962 194.1 189.287 194.1ZM194.031 192.326C193.409 192.326 192.947 191.859 192.947 191.123C192.947 190.396 193.409 189.934 194.031 189.934C194.653 189.934 195.115 190.396 195.115 191.123C195.115 191.859 194.653 192.326 194.031 192.326ZM194.031 191.855C194.337 191.855 194.552 191.617 194.552 191.123C194.552 190.634 194.337 190.4 194.031 190.4C193.729 190.4 193.509 190.634 193.509 191.123C193.509 191.617 193.729 191.855 194.031 191.855ZM196.802 196.83C196.18 196.83 195.718 196.359 195.718 195.628C195.718 194.901 196.18 194.439 196.802 194.439C197.424 194.439 197.886 194.901 197.886 195.628C197.886 196.359 197.424 196.83 196.802 196.83ZM196.802 196.364C197.109 196.364 197.328 196.122 197.328 195.628C197.328 195.138 197.109 194.905 196.802 194.905C196.5 194.905 196.281 195.138 196.281 195.628C196.281 196.122 196.5 196.364 196.802 196.364ZM193.935 196.721H193.313L196.898 190.044H197.52L193.935 196.721ZM175.131 205.329C175.615 205.329 176.475 204.743 176.644 204.044H177.532V209.971H179.256V210.721H174.966V209.971H176.644V205.42C176.215 205.887 175.643 206.202 175.131 206.202V205.329ZM185.55 207.378C185.55 209.715 184.64 210.83 183.158 210.83C181.676 210.83 180.766 209.715 180.766 207.378C180.766 205.004 181.676 203.929 183.158 203.929C184.64 203.929 185.55 205.004 185.55 207.378ZM184.612 207.378C184.612 205.411 184.095 204.721 183.158 204.721C182.225 204.721 181.704 205.411 181.704 207.378C181.704 209.344 182.225 210.039 183.158 210.039C184.095 210.039 184.612 209.344 184.612 207.378ZM183.158 208.1C183.487 208.1 183.67 207.835 183.67 207.391C183.67 206.939 183.487 206.682 183.158 206.682C182.833 206.682 182.65 206.939 182.65 207.391C182.65 207.835 182.833 208.1 183.158 208.1ZM191.679 207.378C191.679 209.715 190.769 210.83 189.287 210.83C187.805 210.83 186.895 209.715 186.895 207.378C186.895 205.004 187.805 203.929 189.287 203.929C190.769 203.929 191.679 205.004 191.679 207.378ZM190.742 207.378C190.742 205.411 190.225 204.721 189.287 204.721C188.354 204.721 187.833 205.411 187.833 207.378C187.833 209.344 188.354 210.039 189.287 210.039C190.225 210.039 190.742 209.344 190.742 207.378ZM189.287 208.1C189.616 208.1 189.799 207.835 189.799 207.391C189.799 206.939 189.616 206.682 189.287 206.682C188.962 206.682 188.78 206.939 188.78 207.391C188.78 207.835 188.962 208.1 189.287 208.1ZM194.031 206.326C193.409 206.326 192.947 205.859 192.947 205.123C192.947 204.396 193.409 203.934 194.031 203.934C194.653 203.934 195.115 204.396 195.115 205.123C195.115 205.859 194.653 206.326 194.031 206.326ZM194.031 205.855C194.337 205.855 194.552 205.617 194.552 205.123C194.552 204.634 194.337 204.4 194.031 204.4C193.729 204.4 193.509 204.634 193.509 205.123C193.509 205.617 193.729 205.855 194.031 205.855ZM196.802 210.83C196.18 210.83 195.718 210.359 195.718 209.628C195.718 208.901 196.18 208.439 196.802 208.439C197.424 208.439 197.886 208.901 197.886 209.628C197.886 210.359 197.424 210.83 196.802 210.83ZM196.802 210.364C197.109 210.364 197.328 210.122 197.328 209.628C197.328 209.138 197.109 208.905 196.802 208.905C196.5 208.905 196.281 209.138 196.281 209.628C196.281 210.122 196.5 210.364 196.802 210.364ZM193.935 210.721H193.313L196.898 204.044H197.52L193.935 210.721Z" fill="#1C7D41"/>
<path d="M183.158 119.934C184.31 119.934 185.257 120.437 185.257 121.617C185.257 122.458 184.768 122.893 184.137 123.195C184.864 123.524 185.477 124.022 185.477 124.992C185.477 126.08 184.695 126.835 183.112 126.835C181.58 126.835 180.839 126.09 180.839 125.07C180.839 124.096 181.489 123.583 182.175 123.286C181.521 122.925 181.063 122.413 181.063 121.608C181.063 120.478 181.978 119.934 183.158 119.934ZM181.722 124.955C181.722 125.751 182.344 126.085 183.162 126.085C184.031 126.085 184.553 125.715 184.553 124.987C184.553 124.26 183.995 124.009 182.806 123.565L182.746 123.542C182.229 123.789 181.722 124.205 181.722 124.955ZM181.932 121.612C181.932 122.28 182.495 122.632 183.469 122.939L183.478 122.943C183.995 122.687 184.425 122.33 184.425 121.713C184.425 121.022 183.89 120.666 183.13 120.666C182.412 120.666 181.932 120.99 181.932 121.612ZM189.287 119.934C190.44 119.934 191.386 120.437 191.386 121.617C191.386 122.458 190.897 122.893 190.266 123.195C190.993 123.524 191.606 124.022 191.606 124.992C191.606 126.08 190.824 126.835 189.241 126.835C187.709 126.835 186.969 126.09 186.969 125.07C186.969 124.096 187.618 123.583 188.304 123.286C187.65 122.925 187.193 122.413 187.193 121.608C187.193 120.478 188.107 119.934 189.287 119.934ZM187.851 124.955C187.851 125.751 188.473 126.085 189.292 126.085C190.161 126.085 190.682 125.715 190.682 124.987C190.682 124.26 190.124 124.009 188.935 123.565L188.876 123.542C188.359 123.789 187.851 124.205 187.851 124.955ZM188.062 121.612C188.062 122.28 188.624 122.632 189.598 122.939L189.607 122.943C190.124 122.687 190.554 122.33 190.554 121.713C190.554 121.022 190.019 120.666 189.26 120.666C188.542 120.666 188.062 120.99 188.062 121.612ZM194.031 122.326C193.409 122.326 192.947 121.859 192.947 121.123C192.947 120.396 193.409 119.934 194.031 119.934C194.653 119.934 195.115 120.396 195.115 121.123C195.115 121.859 194.653 122.326 194.031 122.326ZM194.031 121.855C194.337 121.855 194.552 121.617 194.552 121.123C194.552 120.634 194.337 120.4 194.031 120.4C193.729 120.4 193.509 120.634 193.509 121.123C193.509 121.617 193.729 121.855 194.031 121.855ZM196.802 126.83C196.18 126.83 195.718 126.359 195.718 125.628C195.718 124.901 196.18 124.439 196.802 124.439C197.424 124.439 197.886 124.901 197.886 125.628C197.886 126.359 197.424 126.83 196.802 126.83ZM196.802 126.364C197.109 126.364 197.328 126.122 197.328 125.628C197.328 125.138 197.109 124.905 196.802 124.905C196.5 124.905 196.281 125.138 196.281 125.628C196.281 126.122 196.5 126.364 196.802 126.364ZM193.935 126.721H193.313L196.898 120.044H197.52L193.935 126.721Z" fill="#79A476"/>
<path d="M181.027 148.044H185.307V148.661L183.048 154.721H182.12L184.352 148.794H181.027V148.044ZM187.554 148.044H191.121V148.794H188.258L188.002 150.934C188.377 150.669 188.844 150.477 189.466 150.477C190.719 150.477 191.482 151.236 191.482 152.594C191.482 153.998 190.705 154.826 189.182 154.826C187.755 154.826 187.037 154.067 187.005 152.869L187.874 152.791C187.952 153.678 188.423 154.08 189.205 154.08C190.051 154.08 190.581 153.651 190.581 152.599C190.581 151.606 190.06 151.099 189.278 151.099C188.674 151.099 188.222 151.382 187.911 151.716L187.142 151.579L187.554 148.044ZM194.031 150.326C193.409 150.326 192.947 149.859 192.947 149.123C192.947 148.396 193.409 147.934 194.031 147.934C194.653 147.934 195.115 148.396 195.115 149.123C195.115 149.859 194.653 150.326 194.031 150.326ZM194.031 149.855C194.337 149.855 194.552 149.617 194.552 149.123C194.552 148.634 194.337 148.4 194.031 148.4C193.729 148.4 193.509 148.634 193.509 149.123C193.509 149.617 193.729 149.855 194.031 149.855ZM196.802 154.83C196.18 154.83 195.718 154.359 195.718 153.628C195.718 152.901 196.18 152.439 196.802 152.439C197.424 152.439 197.886 152.901 197.886 153.628C197.886 154.359 197.424 154.83 196.802 154.83ZM196.802 154.364C197.109 154.364 197.328 154.122 197.328 153.628C197.328 153.138 197.109 152.905 196.802 152.905C196.5 152.905 196.281 153.138 196.281 153.628C196.281 154.122 196.5 154.364 196.802 154.364ZM193.935 154.721H193.313L196.898 148.044H197.52L193.935 154.721Z" fill="#E0771C"/>
<path d="M68.9106 81.0608V75.3376H72.4542V75.9805H69.6671V77.8542H71.9721V78.4658H69.6671V80.4179H72.4542V81.0608H68.9106ZM76.8651 81.0608L74.8659 76.5802H74.8189V81.0608H74.1643V75.3376H74.9835L76.9827 79.7476H77.0298V75.3376H77.6844V81.0608H76.8651ZM81.5583 81.0608H80.7978V75.9805H79.2141V75.3376H83.1419V75.9805H81.5583V81.0608ZM84.6481 81.0608V80.4179H85.7653V75.9805H84.6481V75.3376H87.643V75.9805H86.5258V80.4179H87.643V81.0608H84.6481ZM91.9167 81.0608H91.1562V75.9805H89.4197V75.3376H93.6493V75.9805H91.9167V81.0608ZM97.3194 81.0608H96.5589V78.5638L94.7675 75.3376H95.5946L96.947 77.866H96.9979L98.3503 75.3376H99.1108L97.3194 78.5559V81.0608ZM143.219 81.0608H142.462V75.3376H143.219V77.8033H145.226V75.3376H145.983V81.0608H145.226V78.4462H143.219V81.0608ZM147.693 81.0608V80.4179H148.81V75.9805H147.693V75.3376H150.687V75.9805H149.57V80.4179H150.687V81.0608H147.693ZM154.961 81.0608H154.201V75.9805H152.464V75.3376H156.694V75.9805H154.961V81.0608ZM159.007 81.0608H158.247V75.3376H159.972C161.124 75.3376 161.916 75.8041 161.916 76.8938C161.916 77.7602 161.457 78.3991 160.587 78.6461L162.104 81.0608H161.191L159.854 78.7558L159.705 78.7598H159.007V81.0608ZM159.682 78.1678C160.748 78.1678 161.136 77.6818 161.136 76.9683C161.136 76.2157 160.67 75.9374 159.776 75.9374H159.007V78.1678H159.682ZM165.237 80.4963C166.162 80.4963 166.303 79.9201 166.303 79.1165V75.3376H167.06V79.3282C167.06 80.3709 166.566 81.151 165.237 81.151C163.908 81.151 163.414 80.3709 163.414 79.3282V75.3376H164.171V79.1165C164.171 79.9201 164.312 80.4963 165.237 80.4963ZM171.377 76.8546C171.334 76.1569 171.016 75.8786 170.413 75.8786C169.738 75.8786 169.46 76.1726 169.46 76.6704C169.46 77.1878 169.77 77.3564 170.546 77.768C171.487 78.2462 172.141 78.5834 172.141 79.4967C172.141 80.4375 171.514 81.1549 170.275 81.1549C169.044 81.1549 168.5 80.5002 168.46 79.4536L169.217 79.3634C169.268 80.1474 169.589 80.5081 170.303 80.5081C171.016 80.5081 171.342 80.1435 171.342 79.5869C171.342 79.0381 170.918 78.8656 170.146 78.4501C169.338 78.0306 168.7 77.6504 168.7 76.7253C168.7 75.7688 169.331 75.2435 170.452 75.2435C171.373 75.2435 172.102 75.6551 172.118 76.788L171.377 76.8546ZM175.976 81.0608H175.215V75.9805H173.479V75.3376H177.709V75.9805H175.976V81.0608ZM179.744 78.8146V78.1718H182.253V78.8146H179.744ZM188.471 81.0608H187.679L187.205 79.4967H185.264L184.794 81.0608H184.033L185.837 75.3376H186.66L188.471 81.0608ZM185.437 78.9166H187.032L186.256 76.3529H186.209L185.437 78.9166ZM189.197 75.3376H189.922L190.636 79.5398H190.698L191.459 76.2941H192.023L192.752 79.5398H192.807L193.517 75.3376H194.211L193.211 81.0608H192.537L191.725 77.4426H191.674L190.828 81.0608H190.2L189.197 75.3376ZM198.03 76.8546C197.982 76.1569 197.665 75.8786 197.065 75.8786C196.391 75.8786 196.113 76.1726 196.113 76.6704C196.113 77.1878 196.422 77.3564 197.195 77.768C198.139 78.2462 198.79 78.5834 198.79 79.4967C198.79 80.4375 198.167 81.1549 196.928 81.1549C195.697 81.1549 195.148 80.5002 195.109 79.4536L195.866 79.3634C195.917 80.1474 196.242 80.5081 196.955 80.5081C197.665 80.5081 197.994 80.1435 197.994 79.5869C197.994 79.0381 197.567 78.8656 196.795 78.4501C195.991 78.0306 195.352 77.6504 195.352 76.7253C195.352 75.7688 195.979 75.2435 197.104 75.2435C198.026 75.2435 198.751 75.6551 198.77 76.788L198.03 76.8546Z" fill="#1E1B28"/>
<rect width="234.623" height="3.15637" rx="1.57818" transform="matrix(-0.86601 0.500028 -3.18351e-05 1 493.559 175.94)" fill="#84F1AC"/>
<rect width="110.899" height="3.15637" rx="1.57818" transform="matrix(-0.86601 0.500028 -3.18351e-05 1 386.412 237.982)" fill="#1C7D41"/>
<path d="M307.753 269.402L307.753 268.444L310.197 262.573L310.889 262.173L310.889 263.537L310.467 263.781L308.822 267.742L308.822 267.794L312.234 265.824L312.234 266.815L307.753 269.402ZM310.501 269.049L310.501 267.523L310.512 267.087L310.512 262.391L311.497 261.822L311.497 268.474L310.501 269.049ZM314.866 266.656C314.403 266.923 314.005 267.017 313.673 266.938C313.343 266.856 313.089 266.61 312.911 266.2C312.735 265.786 312.646 265.216 312.646 264.491C312.648 263.765 312.737 263.096 312.914 262.485C313.092 261.871 313.346 261.335 313.676 260.876C314.008 260.416 314.405 260.052 314.866 259.786C315.327 259.52 315.724 259.425 316.056 259.502C316.388 259.579 316.642 259.822 316.818 260.231C316.996 260.639 317.085 261.205 317.085 261.928C317.085 262.656 316.996 263.329 316.818 263.947C316.642 264.562 316.387 265.1 316.056 265.563C315.726 266.024 315.329 266.388 314.866 266.656ZM314.866 265.639C315.226 265.431 315.51 265.063 315.718 264.533C315.928 264 316.033 263.335 316.033 262.536C316.033 262.007 315.985 261.591 315.89 261.287C315.794 260.982 315.659 260.79 315.485 260.709C315.31 260.625 315.104 260.652 314.866 260.79C314.508 260.997 314.225 261.366 314.016 261.897C313.808 262.427 313.703 263.088 313.701 263.882C313.699 264.414 313.745 264.833 313.839 265.141C313.935 265.447 314.07 265.642 314.244 265.725C314.418 265.806 314.626 265.778 314.866 265.639ZM320.704 261.911L320.704 261.56C320.704 261.303 320.751 261.038 320.844 260.768C320.94 260.496 321.079 260.242 321.261 260.004C321.443 259.767 321.663 259.574 321.922 259.425C322.188 259.271 322.411 259.208 322.591 259.236C322.771 259.262 322.907 259.357 322.999 259.52C323.093 259.683 323.14 259.894 323.14 260.154L323.14 260.505C323.14 260.762 323.093 261.026 322.999 261.297C322.905 261.568 322.767 261.822 322.586 262.059C322.405 262.295 322.184 262.489 321.922 262.64C321.659 262.792 321.437 262.854 321.255 262.827C321.073 262.8 320.935 262.705 320.842 262.543C320.75 262.379 320.704 262.169 320.704 261.911ZM321.438 261.136L321.438 261.487C321.438 261.658 321.474 261.795 321.545 261.896C321.616 261.998 321.742 261.997 321.922 261.893C322.104 261.788 322.228 261.646 322.296 261.466C322.365 261.283 322.4 261.105 322.4 260.932L322.4 260.581C322.4 260.408 322.367 260.269 322.301 260.164C322.236 260.056 322.109 260.057 321.922 260.165C321.745 260.267 321.621 260.411 321.548 260.599C321.474 260.784 321.438 260.963 321.438 261.136ZM317.776 259.795L317.776 259.444C317.776 259.184 317.823 258.919 317.919 258.647C318.015 258.375 318.154 258.122 318.335 257.887C318.517 257.65 318.738 257.456 318.996 257.307C319.261 257.154 319.483 257.092 319.663 257.12C319.845 257.145 319.982 257.239 320.074 257.403C320.166 257.566 320.212 257.778 320.212 258.038L320.212 258.388C320.212 258.648 320.165 258.914 320.071 259.184C319.979 259.452 319.842 259.703 319.66 259.938C319.478 260.173 319.257 260.366 318.996 260.516C318.732 260.669 318.509 260.733 318.327 260.708C318.147 260.682 318.01 260.588 317.916 260.425C317.823 260.263 317.776 260.053 317.776 259.795ZM318.515 259.017L318.515 259.368C318.515 259.541 318.55 259.679 318.619 259.782C318.691 259.882 318.816 259.879 318.996 259.775C319.176 259.672 319.3 259.53 319.368 259.35C319.437 259.167 319.472 258.989 319.472 258.816L319.472 258.465C319.472 258.292 319.439 258.152 319.373 258.047C319.308 257.94 319.182 257.94 318.996 258.047C318.818 258.15 318.694 258.295 318.622 258.481C318.551 258.667 318.515 258.846 318.515 259.017ZM318.096 264.664L322.057 255.725L322.76 255.319L318.799 264.258L318.096 264.664ZM325.536 260.368L325.536 253.716L327.696 252.469C328.139 252.213 328.51 252.094 328.81 252.111C329.112 252.128 329.34 252.258 329.494 252.503C329.649 252.744 329.727 253.076 329.727 253.498C329.727 253.925 329.649 254.349 329.494 254.77C329.338 255.191 329.108 255.585 328.805 255.951C328.501 256.314 328.127 256.625 327.682 256.881L326.25 257.708L326.251 256.717L327.542 255.972C327.8 255.822 328.012 255.648 328.177 255.449C328.342 255.25 328.464 255.036 328.543 254.809C328.624 254.581 328.664 254.348 328.664 254.112C328.664 253.876 328.624 253.692 328.543 253.558C328.464 253.424 328.341 253.355 328.175 253.352C328.01 253.346 327.797 253.418 327.536 253.568L326.58 254.12L326.58 259.766L325.536 260.368ZM332.015 256.725C331.593 256.968 331.228 257.072 330.918 257.036C330.609 257.001 330.369 256.839 330.198 256.552C330.029 256.264 329.945 255.863 329.945 255.347C329.945 254.832 330.029 254.332 330.198 253.847C330.369 253.361 330.609 252.921 330.918 252.528C331.228 252.135 331.593 251.817 332.015 251.573C332.437 251.329 332.803 251.225 333.112 251.261C333.422 251.297 333.661 251.46 333.83 251.75C334 252.039 334.086 252.441 334.086 252.957C334.086 253.472 334 253.972 333.83 254.456C333.661 254.939 333.422 255.377 333.112 255.77C332.803 256.163 332.437 256.481 332.015 256.725ZM332.021 255.779C332.25 255.647 332.441 255.464 332.595 255.23C332.749 254.994 332.863 254.731 332.938 254.441C333.015 254.15 333.053 253.853 333.053 253.549C333.053 253.244 333.015 252.99 332.938 252.788C332.863 252.582 332.749 252.45 332.595 252.392C332.441 252.333 332.25 252.37 332.021 252.502C331.787 252.637 331.592 252.824 331.436 253.061C331.282 253.297 331.167 253.561 331.09 253.855C331.015 254.145 330.977 254.443 330.977 254.748C330.977 255.051 331.015 255.305 331.09 255.508C331.167 255.711 331.282 255.841 331.436 255.9C331.591 255.955 331.787 255.915 332.021 255.779ZM335.572 247.921L335.572 254.573L334.554 255.161L334.554 248.509L335.572 247.921ZM336.223 254.198L336.223 249.208L337.241 248.621L337.241 253.61L336.223 254.198ZM336.735 248.205C336.574 248.298 336.435 248.316 336.319 248.26C336.203 248.202 336.144 248.085 336.145 247.909C336.145 247.732 336.203 247.548 336.319 247.357C336.435 247.164 336.574 247.021 336.735 246.928C336.898 246.834 337.037 246.817 337.152 246.876C337.268 246.933 337.326 247.05 337.326 247.227C337.326 247.402 337.268 247.587 337.151 247.779C337.037 247.969 336.898 248.111 336.735 248.205ZM339.777 252.243C339.346 252.492 338.975 252.596 338.666 252.556C338.358 252.515 338.121 252.35 337.954 252.061C337.789 251.769 337.707 251.37 337.707 250.866C337.707 250.359 337.791 249.863 337.96 249.378C338.129 248.891 338.367 248.45 338.674 248.056C338.984 247.659 339.35 247.338 339.772 247.095C340.122 246.892 340.433 246.788 340.703 246.781C340.974 246.772 341.191 246.855 341.352 247.033C341.514 247.208 341.605 247.469 341.628 247.816L340.655 248.378C340.615 248.16 340.522 248.014 340.373 247.939C340.227 247.861 340.031 247.893 339.786 248.035C339.577 248.155 339.395 248.326 339.237 248.547C339.08 248.765 338.957 249.02 338.869 249.312C338.782 249.602 338.739 249.915 338.739 250.25C338.739 250.59 338.782 250.858 338.868 251.053C338.955 251.245 339.076 251.363 339.231 251.405C339.389 251.444 339.574 251.402 339.785 251.28C339.935 251.193 340.07 251.083 340.188 250.95C340.308 250.814 340.408 250.66 340.489 250.487C340.569 250.315 340.625 250.131 340.655 249.934L341.628 249.372C341.604 249.739 341.514 250.103 341.358 250.466C341.202 250.827 340.99 251.161 340.722 251.47C340.454 251.776 340.139 252.034 339.777 252.243ZM342.701 252.328C342.562 252.408 342.434 252.47 342.315 252.512C342.199 252.555 342.106 252.581 342.037 252.588L342.273 251.536C342.421 251.5 342.554 251.447 342.67 251.378C342.786 251.309 342.888 251.208 342.976 251.074C343.066 250.942 343.142 250.764 343.204 250.54L343.292 250.22L341.725 246.032L342.805 245.408L343.801 248.601L343.846 248.575L344.844 244.231L345.927 243.605L344.197 250.197C344.117 250.508 344.01 250.796 343.877 251.061C343.743 251.329 343.58 251.568 343.387 251.779C343.196 251.991 342.967 252.174 342.701 252.328ZM352.781 240.23L351.729 240.837C351.699 240.655 351.643 240.511 351.563 240.404C351.482 240.294 351.382 240.22 351.262 240.181C351.142 240.142 351.005 240.14 350.851 240.175C350.699 240.206 350.535 240.273 350.359 240.374C350.046 240.555 349.768 240.806 349.526 241.128C349.284 241.447 349.095 241.821 348.958 242.249C348.821 242.674 348.753 243.137 348.753 243.637C348.753 244.146 348.821 244.535 348.958 244.805C349.097 245.071 349.286 245.224 349.526 245.263C349.768 245.298 350.045 245.226 350.356 245.047C350.528 244.947 350.69 244.828 350.84 244.689C350.992 244.548 351.128 244.39 351.248 244.217C351.369 244.042 351.472 243.856 351.554 243.656C351.639 243.456 351.697 243.249 351.729 243.036L352.781 242.435C352.741 242.774 352.656 243.12 352.525 243.473C352.395 243.825 352.225 244.168 352.015 244.501C351.805 244.832 351.56 245.139 351.278 245.42C350.997 245.7 350.685 245.938 350.342 246.136C349.835 246.429 349.383 246.554 348.986 246.513C348.588 246.472 348.275 246.262 348.046 245.883C347.818 245.504 347.703 244.957 347.703 244.243C347.703 243.526 347.819 242.847 348.049 242.205C348.28 241.56 348.594 240.988 348.992 240.488C349.389 239.988 349.839 239.593 350.342 239.302C350.663 239.117 350.961 238.997 351.236 238.942C351.512 238.887 351.758 238.897 351.973 238.974C352.189 239.049 352.366 239.191 352.505 239.401C352.646 239.608 352.738 239.884 352.781 240.23ZM355.18 243.35C354.758 243.593 354.392 243.697 354.083 243.661C353.773 243.626 353.533 243.464 353.363 243.177C353.194 242.889 353.11 242.488 353.11 241.972C353.11 241.457 353.194 240.957 353.363 240.472C353.533 239.986 353.773 239.546 354.083 239.153C354.392 238.76 354.758 238.442 355.18 238.198C355.602 237.954 355.968 237.85 356.277 237.886C356.586 237.922 356.825 238.085 356.994 238.375C357.165 238.664 357.25 239.066 357.25 239.582C357.25 240.097 357.165 240.597 356.994 241.081C356.825 241.564 356.586 242.002 356.277 242.395C355.967 242.788 355.602 243.106 355.18 243.35ZM355.185 242.404C355.414 242.272 355.605 242.089 355.759 241.855C355.913 241.619 356.027 241.356 356.102 241.066C356.179 240.775 356.218 240.478 356.218 240.174C356.218 239.869 356.179 239.615 356.102 239.413C356.027 239.207 355.913 239.075 355.759 239.017C355.606 238.958 355.414 238.995 355.186 239.127C354.951 239.262 354.756 239.449 354.6 239.686C354.447 239.922 354.331 240.186 354.254 240.48C354.179 240.77 354.142 241.068 354.142 241.373C354.142 241.676 354.179 241.93 354.254 242.133C354.331 242.336 354.447 242.466 354.6 242.525C354.756 242.58 354.951 242.54 355.185 242.404ZM357.718 241.786L357.718 236.797L358.692 236.235L358.692 237.083L358.742 237.054C358.832 236.716 358.981 236.407 359.19 236.127C359.398 235.844 359.646 235.619 359.935 235.453C360.228 235.284 360.474 235.224 360.675 235.272C360.877 235.318 361.02 235.457 361.102 235.691L361.147 235.665C361.243 235.333 361.404 235.019 361.631 234.723C361.86 234.424 362.131 234.185 362.444 234.004C362.842 233.774 363.166 233.732 363.417 233.877C363.669 234.022 363.794 234.373 363.794 234.929L363.794 238.278L362.773 238.868L362.773 235.701C362.773 235.391 362.702 235.206 362.559 235.145C362.417 235.083 362.242 235.111 362.036 235.23C361.79 235.372 361.598 235.572 361.46 235.829C361.323 236.084 361.254 236.352 361.254 236.633L361.254 239.745L360.255 240.321L360.256 237.106C360.256 236.848 360.188 236.681 360.053 236.606C359.92 236.529 359.746 236.553 359.53 236.677C359.384 236.762 359.25 236.882 359.13 237.038C359.01 237.191 358.915 237.367 358.844 237.564C358.772 237.759 358.737 237.959 358.737 238.165L358.737 241.198L357.718 241.786ZM364.431 239.781L364.431 232.921L365.433 232.343L365.433 233.168L365.492 233.134C365.544 232.983 365.618 232.811 365.714 232.619C365.81 232.425 365.939 232.233 366.102 232.041C366.265 231.847 366.473 231.677 366.727 231.531C367.06 231.338 367.361 231.263 367.629 231.305C367.899 231.344 368.113 231.51 368.271 231.802C368.43 232.091 368.51 232.513 368.51 233.067C368.51 233.615 368.432 234.126 368.276 234.599C368.121 235.072 367.909 235.487 367.641 235.843C367.372 236.199 367.069 236.475 366.729 236.671C366.482 236.814 366.276 236.885 366.113 236.884C365.95 236.883 365.819 236.844 365.719 236.767C365.622 236.687 365.546 236.602 365.492 236.512L365.449 236.536L365.449 239.193L364.431 239.781ZM365.43 234.839C365.43 235.162 365.469 235.422 365.548 235.619C365.628 235.815 365.744 235.938 365.894 235.988C366.046 236.034 366.229 235.995 366.445 235.871C366.67 235.741 366.859 235.563 367.01 235.336C367.162 235.108 367.277 234.85 367.354 234.563C367.432 234.273 367.472 233.972 367.472 233.66C367.472 233.351 367.433 233.098 367.357 232.902C367.28 232.706 367.165 232.583 367.013 232.535C366.862 232.486 366.672 232.527 366.445 232.658C366.228 232.784 366.043 232.957 365.891 233.176C365.739 233.396 365.624 233.648 365.545 233.931C365.468 234.214 365.43 234.517 365.43 234.839ZM370.004 228.041L370.004 234.693L368.986 235.281L368.986 228.629L370.004 228.041ZM370.655 234.317L370.655 229.328L371.673 228.74L371.673 233.729L370.655 234.317ZM371.167 228.324C371.006 228.417 370.867 228.436 370.751 228.379C370.635 228.321 370.576 228.204 370.576 228.028C370.576 227.851 370.635 227.667 370.751 227.476C370.867 227.284 371.006 227.141 371.167 227.048C371.33 226.953 371.469 226.936 371.583 226.996C371.7 227.052 371.758 227.169 371.758 227.346C371.758 227.522 371.7 227.706 371.583 227.899C371.469 228.088 371.33 228.23 371.167 228.324ZM373.568 232.736C373.294 232.894 373.047 232.98 372.828 232.994C372.61 233.005 372.438 232.936 372.31 232.786C372.185 232.636 372.122 232.397 372.122 232.07C372.122 231.788 372.167 231.53 372.257 231.294C372.347 231.058 372.47 230.839 372.625 230.639C372.781 230.439 372.956 230.254 373.151 230.085C373.348 229.913 373.552 229.753 373.762 229.606C374.015 229.43 374.22 229.284 374.378 229.169C374.535 229.052 374.65 228.947 374.721 228.854C374.794 228.758 374.831 228.653 374.831 228.541L374.831 228.521C374.831 228.277 374.768 228.123 374.642 228.062C374.517 228 374.336 228.037 374.099 228.174C373.85 228.318 373.652 228.495 373.506 228.705C373.361 228.914 373.264 229.118 373.213 229.319L372.263 229.712C372.338 229.365 372.461 229.041 372.634 228.737C372.806 228.432 373.017 228.157 373.267 227.911C373.516 227.663 373.792 227.452 374.094 227.277C374.302 227.157 374.509 227.066 374.715 227.003C374.922 226.94 375.11 226.924 375.281 226.956C375.451 226.985 375.588 227.08 375.691 227.242C375.796 227.402 375.849 227.648 375.849 227.979L375.849 231.318L374.87 231.883L374.87 231.198L374.836 231.217C374.774 231.392 374.687 231.572 374.575 231.758C374.464 231.941 374.324 232.118 374.155 232.289C373.989 232.457 373.793 232.606 373.568 232.736ZM373.832 231.719C374.036 231.601 374.214 231.452 374.364 231.272C374.514 231.091 374.629 230.898 374.71 230.696C374.792 230.492 374.833 230.299 374.833 230.115L374.833 229.527C374.802 229.575 374.747 229.635 374.67 229.705C374.595 229.775 374.511 229.846 374.417 229.92C374.323 229.993 374.231 230.064 374.139 230.132C374.047 230.201 373.967 230.26 373.9 230.309C373.748 230.421 373.612 230.538 373.492 230.662C373.372 230.785 373.277 230.916 373.208 231.053C373.138 231.189 373.103 231.332 373.103 231.484C373.103 231.7 373.172 231.824 373.309 231.856C373.446 231.887 373.62 231.841 373.832 231.719ZM377.495 227.444L377.495 230.367L376.477 230.955L376.477 225.966L377.45 225.404L377.45 226.252L377.501 226.223C377.6 225.886 377.759 225.573 377.976 225.283C378.195 224.991 378.466 224.753 378.789 224.566C379.087 224.394 379.347 224.318 379.568 224.337C379.791 224.356 379.964 224.469 380.086 224.678C380.209 224.886 380.27 225.19 380.269 225.589L380.268 228.766L379.25 229.354L379.25 226.359C379.25 226.026 379.175 225.808 379.025 225.706C378.877 225.604 378.672 225.628 378.409 225.78C378.231 225.882 378.073 226.019 377.934 226.19C377.797 226.358 377.689 226.549 377.61 226.764C377.533 226.977 377.495 227.204 377.495 227.444ZM382.792 227.406C382.361 227.655 381.99 227.76 381.681 227.72C381.374 227.679 381.136 227.514 380.969 227.224C380.804 226.932 380.722 226.534 380.722 226.029C380.722 225.523 380.806 225.027 380.975 224.542C381.144 224.054 381.382 223.614 381.69 223.22C381.999 222.822 382.365 222.502 382.787 222.258C383.137 222.056 383.448 221.951 383.718 221.945C383.99 221.935 384.206 222.019 384.367 222.196C384.529 222.372 384.621 222.633 384.643 222.979L383.67 223.541C383.63 223.323 383.537 223.177 383.389 223.103C383.242 223.025 383.046 223.057 382.801 223.198C382.593 223.319 382.41 223.489 382.252 223.71C382.095 223.929 381.972 224.184 381.884 224.475C381.797 224.765 381.754 225.078 381.754 225.414C381.754 225.754 381.797 226.021 381.884 226.216C381.97 226.409 382.091 226.526 382.246 226.568C382.404 226.607 382.589 226.566 382.801 226.443C382.951 226.357 383.085 226.247 383.203 226.114C383.323 225.977 383.423 225.823 383.504 225.651C383.584 225.479 383.64 225.294 383.67 225.097L384.643 224.535C384.619 224.902 384.529 225.267 384.373 225.63C384.217 225.99 384.005 226.325 383.737 226.633C383.469 226.94 383.154 227.197 382.792 227.406ZM386.996 224.979C386.563 225.229 386.189 225.341 385.874 225.315C385.56 225.286 385.319 225.129 385.151 224.843C384.982 224.555 384.897 224.15 384.898 223.628C384.898 223.115 384.982 222.616 385.151 222.131C385.321 221.642 385.56 221.202 385.865 220.809C386.171 220.413 386.53 220.097 386.943 219.859C387.209 219.705 387.46 219.609 387.696 219.573C387.935 219.533 388.145 219.563 388.326 219.664C388.51 219.763 388.655 219.942 388.76 220.2C388.865 220.455 388.917 220.801 388.917 221.239L388.917 221.599L385.376 223.644L385.376 222.852L387.941 221.37C387.939 221.146 387.897 220.97 387.815 220.843C387.732 220.713 387.617 220.64 387.469 220.623C387.322 220.606 387.152 220.654 386.957 220.766C386.748 220.887 386.566 221.051 386.408 221.258C386.251 221.464 386.128 221.687 386.04 221.926C385.953 222.162 385.909 222.392 385.907 222.616L385.907 223.308C385.907 223.598 385.953 223.821 386.045 223.976C386.137 224.128 386.265 224.212 386.43 224.227C386.596 224.24 386.789 224.183 387.01 224.055C387.158 223.97 387.292 223.868 387.412 223.751C387.532 223.632 387.636 223.5 387.724 223.353C387.813 223.207 387.879 223.051 387.924 222.884L388.875 222.459C388.815 222.783 388.7 223.103 388.532 223.417C388.365 223.728 388.151 224.018 387.89 224.287C387.63 224.555 387.332 224.785 386.996 224.979Z" fill="#1C7D41"/>
<g clip-path="url(#clip12_1298_155415)">
<path d="M297.162 266.751C294.05 268.548 291.504 272.958 291.504 276.551C291.504 280.143 294.05 281.613 297.161 279.817C300.273 278.02 302.819 273.61 302.819 270.017C302.819 266.424 300.273 264.955 297.162 266.751ZM296.03 277.204L293.201 275.571L293.999 274.189L296.03 275.355L300.324 267.917L301.122 268.384L296.03 277.204Z" fill="#1C7D41"/>
</g>
</g>
</g>
<defs>
<clipPath id="clip0_1298_155415">
<rect width="469" height="320" fill="white"/>
</clipPath>
<clipPath id="clip1_1298_155415">
<rect width="480.198" height="443.612" fill="white" transform="translate(47.3335 -123.612)"/>
</clipPath>
<clipPath id="clip2_1298_155415">
<rect width="32.6634" height="32.6634" fill="white" transform="matrix(0.86601 -0.500028 -3.18351e-05 1 288.414 174.96)"/>
</clipPath>
<clipPath id="clip3_1298_155415">
<rect width="32.6634" height="32.6634" fill="white" transform="matrix(0.86601 -0.500028 -3.18351e-05 1 291.027 217.426)"/>
</clipPath>
<clipPath id="clip4_1298_155415">
<rect width="32.6634" height="32.6634" fill="white" transform="matrix(0.86601 -0.500028 -3.18351e-05 1 323.04 154.707)"/>
</clipPath>
<clipPath id="clip5_1298_155415">
<rect width="32.6634" height="32.6634" fill="white" transform="matrix(0.86601 -0.500028 -3.18351e-05 1 324.347 200.44)"/>
</clipPath>
<clipPath id="clip6_1298_155415">
<rect width="32.6634" height="32.6634" fill="white" transform="matrix(0.86601 -0.500028 -3.18351e-05 1 359.626 135.107)"/>
</clipPath>
<clipPath id="clip7_1298_155415">
<rect width="32.6634" height="32.6634" fill="white" transform="matrix(0.86601 -0.500028 -3.18351e-05 1 359.626 181.493)"/>
</clipPath>
<clipPath id="clip8_1298_155415">
<rect width="32.6634" height="32.6634" fill="white" transform="matrix(0.86601 -0.500028 -3.18351e-05 1 394.253 115.507)"/>
</clipPath>
<clipPath id="clip9_1298_155415">
<rect width="32.6634" height="32.6634" fill="white" transform="matrix(0.86601 -0.500028 -3.18351e-05 1 394.253 160.587)"/>
</clipPath>
<clipPath id="clip10_1298_155415">
<rect width="32.6634" height="32.6634" fill="white" transform="matrix(0.86601 -0.500028 -3.18351e-05 1 426.92 97.2134)"/>
</clipPath>
<clipPath id="clip11_1298_155415">
<rect width="32.6634" height="32.6634" fill="white" transform="matrix(0.86601 -0.500028 -3.18351e-05 1 429.533 140.987)"/>
</clipPath>
<clipPath id="clip12_1298_155415">
<rect width="15.6784" height="15.6784" fill="white" transform="matrix(0.86601 -0.500028 -3.18907e-05 1 290.373 269.365)"/>
</clipPath>
</defs>
</svg>
