<svg width="395" height="200" viewBox="0 0 395 200" fill="none" xmlns="http://www.w3.org/2000/svg">
<g clip-path="url(#clip0_1298_155144)">
<rect width="395" height="200" fill="white"/>
<rect x="12.8545" y="9.3833" width="79.7045" height="79.7045" rx="7.4122" fill="white" stroke="#E0DBFF"/>
<g clip-path="url(#clip1_1298_155144)">
<path d="M53.053 66.2874C52.5963 66.2874 52.1699 66.1651 51.7736 65.9508L47.7215 63.5343C47.1122 63.1977 47.4168 63.0753 47.5994 63.0141C48.4221 62.7387 48.5746 62.6775 49.4277 62.1879C49.519 62.1267 49.6406 62.1573 49.7319 62.2185L52.8401 64.0847C52.9618 64.1459 53.1143 64.1459 53.2056 64.0847L65.3619 57.0178C65.484 56.9566 65.5449 56.8346 65.5449 56.6816V42.5784C65.5449 42.4254 65.484 42.303 65.3623 42.2418L53.2056 35.2055C53.0839 35.1443 52.9309 35.1443 52.8401 35.2055L40.6833 42.2418C40.5608 42.303 40.4999 42.456 40.4999 42.5784V56.6816C40.4999 56.8036 40.5612 56.9566 40.6829 57.0178L44.004 58.9452C45.8015 59.8631 46.9288 58.7922 46.9288 57.7216V43.802C46.9288 43.6184 47.0809 43.4348 47.2943 43.4348H48.8484C49.0309 43.4348 49.2139 43.5878 49.2139 43.802V57.7216C49.2139 60.1386 47.904 61.5457 45.6185 61.5457C44.918 61.5457 44.3695 61.5457 42.8159 60.7807L39.6164 58.9452C39.2274 58.7183 38.9045 58.3926 38.68 58.0007C38.4555 57.6088 38.3374 57.1645 38.3374 56.7122V42.609C38.3374 42.1566 38.4555 41.7121 38.6801 41.3202C38.9046 40.9282 39.2277 40.6025 39.6168 40.3756L51.7732 33.3087C52.5354 32.8803 53.5711 32.8803 54.3329 33.3087L66.4892 40.3756C66.8785 40.6024 67.2016 40.9281 67.4262 41.3201C67.6508 41.7121 67.7691 42.1566 67.7691 42.609V56.7122C67.769 57.1646 67.6507 57.609 67.4261 58.0009C67.2015 58.3928 66.8784 58.7184 66.4892 58.9452L54.3329 66.012C53.9674 66.165 53.5102 66.2874 53.053 66.2874Z" fill="#5FA04E"/>
<path d="M56.8312 56.5898C51.4988 56.5898 50.4023 54.1423 50.4023 52.0619C50.4023 51.8783 50.5545 51.6947 50.7678 51.6947H52.3523C52.5353 51.6947 52.6874 51.8171 52.6874 52.0007C52.9312 53.6221 53.6318 54.4177 56.8616 54.4177C59.4209 54.4177 60.5174 53.8363 60.5174 52.4597C60.5174 51.6645 60.2132 51.0827 56.2215 50.6853C52.9004 50.3487 50.8291 49.6143 50.8291 46.953C50.8291 44.4752 52.9008 43.0068 56.374 43.0068C60.274 43.0068 62.1932 44.3528 62.4374 47.2896C62.4374 47.3814 62.4066 47.4732 62.3457 47.565C62.2849 47.6262 62.1936 47.6874 62.1019 47.6874H60.487C60.4089 47.6847 60.3337 47.6564 60.2732 47.6066C60.2126 47.5569 60.17 47.4885 60.1519 47.412C59.7864 45.729 58.8421 45.1786 56.3436 45.1786C53.5405 45.1786 53.2054 46.1578 53.2054 46.8918C53.2054 47.7792 53.6014 48.0546 57.3797 48.5437C61.1271 49.0333 62.8938 49.7371 62.8938 52.3679C62.8938 55.0603 60.67 56.5898 56.8312 56.5898Z" fill="#5FA04E"/>
</g>
<rect x="109.383" y="9.3833" width="79.7045" height="79.7045" rx="7.4122" fill="white" stroke="#E0DBFF"/>
<g clip-path="url(#clip2_1298_155144)">
<path d="M149.811 33.8772C142.318 33.8772 142.786 37.1433 142.786 37.1433L142.794 40.5272H149.944V41.5431H139.955C139.955 41.5431 135.16 40.9965 135.16 48.5958C135.16 56.1954 139.345 55.9259 139.345 55.9259H141.842V52.3994C141.842 52.3994 141.708 48.1928 145.96 48.1928H153.052C153.052 48.1928 157.036 48.2575 157.036 44.3221V37.8152C157.036 37.8152 157.641 33.8772 149.811 33.8772ZM145.868 36.1528C146.037 36.1526 146.205 36.1859 146.361 36.2509C146.517 36.3158 146.659 36.411 146.778 36.5311C146.898 36.6512 146.992 36.7938 147.057 36.9508C147.122 37.1077 147.155 37.2759 147.154 37.4457C147.155 37.6156 147.122 37.7838 147.057 37.9407C146.992 38.0977 146.898 38.2403 146.778 38.3604C146.659 38.4805 146.517 38.5757 146.361 38.6406C146.205 38.7055 146.037 38.7389 145.868 38.7387C145.699 38.7389 145.532 38.7055 145.376 38.6406C145.22 38.5757 145.078 38.4805 144.958 38.3604C144.839 38.2403 144.744 38.0977 144.68 37.9407C144.615 37.7838 144.582 37.6156 144.582 37.4457C144.582 37.2759 144.615 37.1077 144.68 36.9508C144.744 36.7938 144.839 36.6512 144.958 36.5311C145.078 36.411 145.22 36.3158 145.376 36.2509C145.532 36.1859 145.699 36.1526 145.868 36.1528Z" fill="url(#paint0_linear_1298_155144)"/>
<path d="M150.024 63.3909C157.516 63.3909 157.049 60.1248 157.049 60.1248L157.04 56.7411H149.89V55.7252H159.88C159.88 55.7252 164.674 56.2718 164.674 48.6722C164.674 41.0727 160.49 41.3422 160.49 41.3422H157.992V44.8686C157.992 44.8686 158.127 49.0752 153.875 49.0752H146.783C146.783 49.0752 142.799 49.0105 142.799 52.946V59.4531C142.799 59.4531 142.194 63.3909 150.024 63.3909ZM153.966 61.1156C153.798 61.1158 153.63 61.0824 153.474 61.0175C153.318 60.9526 153.176 60.8574 153.057 60.7372C152.937 60.6171 152.842 60.4746 152.778 60.3176C152.713 60.1607 152.68 59.9925 152.68 59.8226C152.68 59.6528 152.713 59.4846 152.778 59.3276C152.842 59.1706 152.937 59.028 153.057 58.9079C153.176 58.7878 153.318 58.6926 153.474 58.6277C153.63 58.5627 153.798 58.5294 153.966 58.5295C154.135 58.5294 154.303 58.5627 154.459 58.6276C154.615 58.6926 154.757 58.7878 154.876 58.9079C154.996 59.028 155.091 59.1706 155.155 59.3275C155.22 59.4845 155.253 59.6527 155.253 59.8225C155.253 59.9923 155.22 60.1606 155.155 60.3175C155.091 60.4744 154.996 60.617 154.876 60.7371C154.757 60.8572 154.615 60.9525 154.459 61.0174C154.303 61.0823 154.135 61.1158 153.966 61.1156Z" fill="url(#paint1_linear_1298_155144)"/>
</g>
<rect x="205.912" y="9.3833" width="79.7045" height="79.7045" rx="7.4122" fill="white" stroke="#E0DBFF"/>
<mask id="mask0_1298_155144" style="mask-type:luminance" maskUnits="userSpaceOnUse" x="222" y="19" width="58" height="59">
<path d="M279.796 19.2312H222.196V77.2312H279.796V19.2312Z" fill="white"/>
</mask>
<g mask="url(#mask0_1298_155144)">
<path d="M225.814 46.4416C225.72 46.4416 225.697 46.3947 225.744 46.3241L226.234 45.6897C226.28 45.6191 226.397 45.5721 226.49 45.5721H234.822C234.916 45.5721 234.939 45.6426 234.892 45.7132L234.496 46.3241C234.449 46.3947 234.332 46.4652 234.262 46.4652L225.814 46.4416Z" fill="#00ACD7"/>
<path d="M222.289 48.6034C222.196 48.6034 222.172 48.5565 222.219 48.4859L222.709 47.8514C222.756 47.781 222.873 47.7339 222.966 47.7339H233.608C233.702 47.7339 233.749 47.8043 233.725 47.8749L233.538 48.4389C233.515 48.5329 233.422 48.5798 233.328 48.5798L222.289 48.6034Z" fill="#00ACD7"/>
<path d="M227.938 50.7652C227.844 50.7652 227.821 50.6948 227.868 50.6243L228.194 50.0368C228.241 49.9662 228.334 49.8958 228.428 49.8958H233.095C233.189 49.8958 233.236 49.9662 233.236 50.0603L233.189 50.6243C233.189 50.7183 233.095 50.7888 233.025 50.7888L227.938 50.7652Z" fill="#00ACD7"/>
<path d="M252.163 46.0185C250.693 46.3944 249.689 46.6765 248.242 47.0526C247.892 47.1466 247.869 47.1699 247.565 46.8176C247.215 46.418 246.958 46.1594 246.468 45.9244C244.998 45.196 243.574 45.4075 242.244 46.2769C240.657 47.311 239.84 48.8386 239.863 50.7421C239.887 52.6223 241.17 54.1733 243.014 54.4318C244.601 54.6433 245.931 54.0793 246.982 52.8807C247.192 52.6223 247.378 52.3402 247.612 52.0112C246.772 52.0112 245.721 52.0112 243.107 52.0112C242.617 52.0112 242.501 51.7057 242.664 51.3062C242.967 50.5777 243.527 49.3556 243.854 48.7446C243.924 48.6036 244.088 48.3686 244.438 48.3686C245.628 48.3686 250.016 48.3686 252.933 48.3686C252.886 49.003 252.886 49.6376 252.793 50.2721C252.536 51.9641 251.906 53.5153 250.879 54.8783C249.199 57.1109 247.005 58.4975 244.228 58.8734C241.94 59.179 239.817 58.7325 237.95 57.3224C236.222 56.0064 235.242 54.2673 234.985 52.1052C234.682 49.5437 235.429 47.2405 236.969 45.2195C238.626 43.0339 240.82 41.6473 243.504 41.1537C245.698 40.7543 247.798 41.0128 249.689 42.3053C250.926 43.1279 251.813 44.2559 252.396 45.6189C252.536 45.8304 252.443 45.9479 252.163 46.0185Z" fill="#00ACD7"/>
<path d="M259.888 59.0148C257.765 58.9678 255.827 58.3568 254.194 56.9467C252.817 55.7483 251.953 54.2206 251.673 52.4111C251.253 49.7554 251.977 47.4054 253.564 45.3138C255.267 43.0577 257.321 41.8828 260.098 41.3892C262.479 40.9662 264.72 41.2012 266.75 42.5877C268.594 43.8567 269.738 45.5723 270.041 47.8284C270.437 51.0011 269.528 53.5862 267.357 55.7952C265.817 57.3697 263.926 58.3568 261.756 58.8034C261.126 58.9207 260.495 58.9442 259.888 59.0148ZM265.443 49.5206C265.42 49.2149 265.42 48.9799 265.373 48.7449C264.953 46.4184 262.829 45.1023 260.612 45.6194C258.442 46.1128 257.041 47.4994 256.528 49.7085C256.108 51.5416 256.994 53.3981 258.675 54.1502C259.959 54.7142 261.242 54.6438 262.479 54.0092C264.323 53.0457 265.326 51.5416 265.443 49.5206Z" fill="#00ACD7"/>
</g>
<rect x="302.441" y="9.3833" width="79.7045" height="79.7045" rx="7.4122" fill="white" stroke="#E0DBFF"/>
<path d="M331.085 42.3767L325.137 33.0391H329.427L333.209 39.0516L337.023 33.0391H341.129L334.902 42.3767V48.2966H331.085V42.3767Z" fill="black"/>
<path d="M347.539 44.9392H340.63L339.225 48.332H336.166L342.635 33.0747H345.764L351.971 48.332H348.702L347.539 44.9392ZM346.391 41.8931L344.274 36.2942L341.911 41.8931H346.391Z" fill="#CB171E"/>
<path d="M331.085 50.0078V64.9614H334.293V54.6464L337.651 61.5796H340.176L343.649 54.4029V64.9581H346.727V50.0078H342.524L338.795 56.7701L335.244 50.0078H331.085Z" fill="black"/>
<path d="M359.864 61.7119H351.971V50.0038H348.702V64.8937H359.864V61.7119Z" fill="black"/>
<rect x="61.1191" y="105.912" width="79.7045" height="79.7045" rx="7.4122" fill="white" stroke="#E0DBFF"/>
<g clip-path="url(#clip3_1298_155144)">
<path d="M111.703 130.54H89.0377C87.5186 130.54 86.2871 131.771 86.2871 133.29V155.955C86.2871 157.475 87.5186 158.706 89.0377 158.706H111.703C113.222 158.706 114.453 157.475 114.453 155.955V133.29C114.453 131.771 113.222 130.54 111.703 130.54Z" fill="#3178C6"/>
<path d="M111.703 130.54H89.0377C87.5186 130.54 86.2871 131.771 86.2871 133.29V155.955C86.2871 157.475 87.5186 158.706 89.0377 158.706H111.703C113.222 158.706 114.453 157.475 114.453 155.955V133.29C114.453 131.771 113.222 130.54 111.703 130.54Z" fill="#3178C6"/>
<path fill-rule="evenodd" clip-rule="evenodd" d="M103.722 152.953V155.707C104.17 155.937 104.7 156.109 105.311 156.224C105.922 156.338 106.566 156.396 107.244 156.396C107.904 156.396 108.531 156.333 109.125 156.206C109.719 156.08 110.24 155.872 110.688 155.583C111.135 155.293 111.49 154.914 111.751 154.446C112.012 153.979 112.143 153.401 112.143 152.712C112.143 152.213 112.068 151.776 111.919 151.4C111.77 151.024 111.554 150.69 111.273 150.397C110.992 150.105 110.655 149.842 110.261 149.61C109.868 149.377 109.425 149.158 108.931 148.952C108.57 148.802 108.245 148.657 107.958 148.517C107.671 148.376 107.427 148.233 107.227 148.087C107.026 147.94 106.871 147.785 106.762 147.622C106.653 147.458 106.598 147.273 106.598 147.067C106.598 146.877 106.647 146.707 106.744 146.555C106.842 146.403 106.98 146.272 107.158 146.163C107.336 146.054 107.554 145.969 107.812 145.909C108.07 145.849 108.357 145.819 108.673 145.819C108.903 145.819 109.145 145.836 109.4 145.871C109.656 145.905 109.913 145.958 110.171 146.03C110.429 146.101 110.68 146.192 110.924 146.301C111.168 146.41 111.394 146.536 111.6 146.68V144.106C111.181 143.946 110.724 143.827 110.227 143.749C109.731 143.672 109.161 143.633 108.518 143.633C107.864 143.633 107.244 143.703 106.658 143.844C106.073 143.984 105.558 144.204 105.113 144.502C104.668 144.801 104.317 145.181 104.058 145.642C103.8 146.104 103.671 146.657 103.671 147.299C103.671 148.12 103.908 148.82 104.381 149.399C104.855 149.979 105.573 150.469 106.538 150.871C106.917 151.026 107.27 151.178 107.597 151.327C107.924 151.476 108.207 151.631 108.445 151.792C108.683 151.952 108.871 152.127 109.009 152.317C109.147 152.506 109.215 152.721 109.215 152.962C109.215 153.14 109.172 153.305 109.086 153.457C109 153.609 108.87 153.741 108.695 153.853C108.519 153.965 108.301 154.052 108.04 154.115C107.779 154.178 107.473 154.21 107.123 154.21C106.526 154.21 105.935 154.105 105.35 153.896C104.764 153.686 104.222 153.372 103.722 152.953ZM99.0926 146.168H102.626V143.908H92.7783V146.168H96.2939V156.231H99.0926V146.168Z" fill="white"/>
</g>
<rect x="157.648" y="105.912" width="79.7045" height="79.7045" rx="7.4122" fill="white" stroke="#E0DBFF"/>
<g clip-path="url(#clip4_1298_155144)">
<path d="M212.949 138.47C212.949 137.9 212.828 137.396 212.583 136.964C212.343 136.538 211.983 136.182 211.5 135.9C207.512 133.584 203.521 131.275 199.535 128.956C198.461 128.331 197.419 128.354 196.352 128.988C194.765 129.931 186.819 134.517 184.451 135.899C183.476 136.467 183.002 137.338 183.002 138.469C183 143.127 183.002 147.785 183 152.443C183 153 183.116 153.494 183.35 153.92C183.591 154.358 183.956 154.725 184.45 155.013C186.818 156.394 194.765 160.98 196.352 161.923C197.419 162.558 198.461 162.58 199.536 161.955C203.522 159.636 207.513 157.328 211.501 155.011C211.995 154.723 212.36 154.357 212.601 153.919C212.835 153.493 212.951 152.999 212.951 152.441C212.951 152.441 212.951 143.128 212.949 138.47Z" fill="#A179DC"/>
<path d="M198.021 145.41L183.35 153.92C183.591 154.358 183.956 154.725 184.45 155.013C186.818 156.394 194.765 160.98 196.352 161.923C197.419 162.558 198.461 162.58 199.536 161.955C203.522 159.636 207.513 157.328 211.501 155.011C211.995 154.723 212.36 154.357 212.601 153.919L198.021 145.41Z" fill="#280068"/>
<path d="M212.95 138.47C212.949 137.9 212.828 137.396 212.584 136.964L198.021 145.41L212.601 153.919C212.835 153.493 212.951 152.999 212.951 152.441C212.951 152.441 212.951 143.128 212.95 138.47Z" fill="#390091"/>
<path d="M206.659 142.229V143.82H208.238V142.229H209.028V143.82H210.607V144.615H209.028V146.206H210.607V147.001H209.028V148.592H208.238V147.001H206.659V148.592H205.87V147.001H204.291V146.206H205.87V144.615H204.291V143.82H205.87V142.229H206.659ZM208.238 144.615H206.659V146.206H208.238V144.615Z" fill="white"/>
<path d="M198.053 134.241C202.172 134.241 205.767 136.494 207.693 139.843L207.675 139.811L202.829 142.622C201.874 140.993 200.124 139.894 198.117 139.872L198.053 139.871C194.992 139.871 192.51 142.372 192.51 145.456C192.51 146.464 192.777 147.41 193.241 148.227C194.196 149.907 195.993 151.041 198.053 151.041C200.127 151.041 201.933 149.893 202.884 148.194L202.861 148.235L207.699 151.059C205.794 154.379 202.248 156.626 198.177 156.67L198.053 156.671C193.922 156.671 190.316 154.404 188.395 151.037C187.457 149.393 186.92 147.488 186.92 145.456C186.92 139.262 191.905 134.241 198.053 134.241Z" fill="white"/>
</g>
<rect x="254.177" y="105.912" width="79.7045" height="79.7045" rx="7.4122" fill="white" stroke="#E0DBFF"/>
<g clip-path="url(#clip5_1298_155144)">
<path fill-rule="evenodd" clip-rule="evenodd" d="M288.577 153.584C288.577 153.584 287.4 154.269 289.415 154.5C291.856 154.778 293.103 154.738 295.792 154.23C295.792 154.23 296.5 154.673 297.488 155.057C291.458 157.64 283.841 154.907 288.577 153.584Z" fill="#0074BD"/>
<path fill-rule="evenodd" clip-rule="evenodd" d="M287.84 150.212C287.84 150.212 286.52 151.189 288.536 151.397C291.144 151.666 293.202 151.688 296.766 151.002C296.766 151.002 297.258 151.502 298.032 151.775C290.743 153.907 282.624 151.943 287.84 150.212Z" fill="#0074BD"/>
<path fill-rule="evenodd" clip-rule="evenodd" d="M294.051 144.491C295.538 146.203 293.662 147.741 293.662 147.741C293.662 147.741 297.434 145.794 295.702 143.355C294.084 141.081 292.843 139.951 299.56 136.056C299.56 136.056 289.016 138.689 294.051 144.491Z" fill="#EA2D2E"/>
<path fill-rule="evenodd" clip-rule="evenodd" d="M302.027 156.078C302.027 156.078 302.897 156.796 301.067 157.351C297.588 158.405 286.582 158.723 283.525 157.393C282.427 156.915 284.487 156.252 285.135 156.112C285.811 155.966 286.197 155.992 286.197 155.992C284.975 155.132 278.298 157.682 282.806 158.414C295.099 160.407 305.215 157.516 302.027 156.078Z" fill="#0074BD"/>
<path fill-rule="evenodd" clip-rule="evenodd" d="M289.143 146.718C289.143 146.718 283.546 148.048 287.161 148.531C288.688 148.735 291.73 148.688 294.566 148.45C296.883 148.256 299.209 147.84 299.209 147.84C299.209 147.84 298.392 148.19 297.801 148.594C292.116 150.089 281.135 149.393 284.296 147.864C286.969 146.571 289.143 146.718 289.143 146.718Z" fill="#0074BD"/>
<path fill-rule="evenodd" clip-rule="evenodd" d="M299.185 152.33C304.964 149.328 302.292 146.442 300.427 146.831C299.971 146.926 299.766 147.009 299.766 147.009C299.766 147.009 299.936 146.742 300.26 146.628C303.95 145.331 306.787 150.453 299.07 152.482C299.07 152.482 299.159 152.402 299.185 152.33Z" fill="#0074BD"/>
<path fill-rule="evenodd" clip-rule="evenodd" d="M295.703 129.764C295.703 129.764 298.902 132.966 292.667 137.888C287.666 141.838 291.527 144.089 292.665 146.662C289.746 144.029 287.605 141.71 289.041 139.552C291.15 136.385 296.993 134.849 295.703 129.764Z" fill="#EA2D2E"/>
<path fill-rule="evenodd" clip-rule="evenodd" d="M289.711 160.469C295.257 160.823 303.776 160.271 303.978 157.647C303.978 157.647 303.59 158.642 299.394 159.431C294.66 160.322 288.819 160.219 285.357 159.647C285.357 159.647 286.066 160.234 289.711 160.469Z" fill="#0074BD"/>
</g>
<path d="M-18 27.5L410 27.5V8.5L-18 8.5V27.5Z" fill="url(#paint2_linear_1298_155144)"/>
<path d="M30 102L30 8L11 8L11 102L30 102Z" fill="url(#paint3_linear_1298_155144)"/>
<path d="M365 8L365 102L384 102L384 8L365 8Z" fill="url(#paint4_linear_1298_155144)"/>
<path d="M79 192L79 98L60 98L60 192L79 192Z" fill="url(#paint5_linear_1298_155144)"/>
<path d="M316 98L316 192L335 192L335 98L316 98Z" fill="url(#paint6_linear_1298_155144)"/>
<path d="M-18 186.5L410 186.5V167.5L-18 167.5V186.5Z" fill="url(#paint7_linear_1298_155144)"/>
</g>
<defs>
<linearGradient id="paint0_linear_1298_155144" x1="137.996" y1="36.5318" x2="152.698" y2="51.011" gradientUnits="userSpaceOnUse">
<stop stop-color="#387EB8"/>
<stop offset="1" stop-color="#366994"/>
</linearGradient>
<linearGradient id="paint1_linear_1298_155144" x1="146.975" y1="45.8787" x2="162.759" y2="60.7222" gradientUnits="userSpaceOnUse">
<stop stop-color="#FFE052"/>
<stop offset="1" stop-color="#FFC331"/>
</linearGradient>
<linearGradient id="paint2_linear_1298_155144" x1="179.584" y1="27.5" x2="179.342" y2="8.49548" gradientUnits="userSpaceOnUse">
<stop stop-color="white" stop-opacity="0"/>
<stop offset="1" stop-color="white"/>
</linearGradient>
<linearGradient id="paint3_linear_1298_155144" x1="30" y1="58.6053" x2="11.0561" y2="59.7035" gradientUnits="userSpaceOnUse">
<stop stop-color="white" stop-opacity="0"/>
<stop offset="1" stop-color="white"/>
</linearGradient>
<linearGradient id="paint4_linear_1298_155144" x1="365" y1="51.3947" x2="383.944" y2="50.2965" gradientUnits="userSpaceOnUse">
<stop stop-color="white" stop-opacity="0"/>
<stop offset="1" stop-color="white"/>
</linearGradient>
<linearGradient id="paint5_linear_1298_155144" x1="79" y1="148.605" x2="60.0561" y2="149.703" gradientUnits="userSpaceOnUse">
<stop stop-color="white" stop-opacity="0"/>
<stop offset="1" stop-color="white"/>
</linearGradient>
<linearGradient id="paint6_linear_1298_155144" x1="316" y1="141.395" x2="334.944" y2="140.297" gradientUnits="userSpaceOnUse">
<stop stop-color="white" stop-opacity="0"/>
<stop offset="1" stop-color="white"/>
</linearGradient>
<linearGradient id="paint7_linear_1298_155144" x1="179.584" y1="186.5" x2="179.342" y2="167.495" gradientUnits="userSpaceOnUse">
<stop stop-color="white"/>
<stop offset="1" stop-color="white" stop-opacity="0"/>
</linearGradient>
<clipPath id="clip0_1298_155144">
<rect width="395" height="200" fill="white"/>
</clipPath>
<clipPath id="clip1_1298_155144">
<rect width="30" height="34" fill="white" transform="translate(38 32.5)"/>
</clipPath>
<clipPath id="clip2_1298_155144">
<rect width="29.5137" height="29.5137" fill="white" transform="translate(135.16 33.8772)"/>
</clipPath>
<clipPath id="clip3_1298_155144">
<rect width="28.1663" height="28.1663" fill="white" transform="translate(86.2871 130.54)"/>
</clipPath>
<clipPath id="clip4_1298_155144">
<rect width="30" height="34" fill="white" transform="translate(183 128.5)"/>
</clipPath>
<clipPath id="clip5_1298_155144">
<rect width="24.1197" height="30.7969" fill="white" transform="translate(280.595 129.764)"/>
</clipPath>
</defs>
</svg>
