<?xml version="1.0" encoding="utf-8"?>
<!-- Generator: Adobe Illustrator 27.2.0, SVG Export Plug-In . SVG Version: 6.00 Build 0)  -->
<svg version="1.1" id="Layer_1" xmlns="http://www.w3.org/2000/svg" xmlns:xlink="http://www.w3.org/1999/xlink" x="0px" y="0px"
	 viewBox="0 0 1024 768" style="enable-background:new 0 0 1024 768;" xml:space="preserve">
<style type="text/css">
	.st0{fill:#C46C3C;}
	.st1{fill:#FFFFFF;}
	.st2{fill:#A2562D;}
	.st3{fill:#EF9C2F;}
	.st4{fill:none;stroke:#000000;stroke-width:9.7565;stroke-miterlimit:10;}
	.st5{fill:#A75629;}
	.st6{fill:#26C9DA;}
	.st7{fill:#26E0EE;}
	.st8{fill:#00AEEA;}
	.st9{fill:#0089D2;}
	.st10{fill:#C6D6D0;}
	.st11{fill:#FFB365;}
	.st12{fill:#C9ECDE;}
	.st13{fill:#FF0000;}
	.st14{fill:#525252;}
	.st15{fill:#FFC800;}
	.st16{fill:#FFA200;}
	.st17{fill:#0CB0C7;}
	.st18{fill:#9000A6;}
	.st19{fill:#C41ACD;}
	.st20{fill:#720087;}
	.st21{fill:#676767;}
	.st22{fill:#00A4BF;}
	.st23{fill:#C3AC8A;}
	.st24{fill:#9F8365;}
	.st25{fill:#DED1B6;}
	.st26{fill:#876D52;}
	.st27{fill:#AC9476;}
	.st28{fill:#FFD193;}
	.st29{fill:#FFEECD;}
	.st30{fill:#F7F6E5;}
	.st31{fill:#A66152;}
	.st32{fill:#E7E6D5;}
	.st33{fill:none;stroke:#000000;stroke-width:2.4298;stroke-miterlimit:10;}
	.st34{fill:#A27D54;}
	.st35{fill:#AF8E6B;}
	.st36{fill:#8A5F41;}
	.st37{fill:#2A5139;}
	.st38{fill:#C3FFFF;}
	.st39{fill:#453772;}
	.st40{fill:#5371A0;}
	.st41{fill:#EF00C3;}
	.st42{fill:#806447;}
	.st43{fill:#FFD55B;}
	.st44{fill:#FF92B0;}
	.st45{fill:#B14FBE;}
	.st46{fill:#C38300;}
	.st47{fill:#C78300;}
	.st48{fill:#C2009B;}
	.st49{fill:#A80079;}
	.st50{fill:#D200A5;}
	.st51{fill:#00A6E0;}
	.st52{fill:#0088CC;}
	.st53{fill:#FF729E;}
	.st54{fill:#E40068;}
	.st55{fill:none;stroke:#000000;stroke-width:5.1136;stroke-miterlimit:10;}
	.st56{fill:#F2E8D3;}
	.st57{fill:#FF9551;}
	.st58{fill:none;stroke:#000000;stroke-width:9.1483;stroke-linecap:round;stroke-linejoin:round;stroke-miterlimit:10;}
	.st59{fill:none;}
	.st60{fill:#EAE1AC;}
	.st61{fill:#D0C290;}
	.st62{fill:#C3BABB;}
	.st63{fill:none;stroke:#FFFED3;stroke-width:1.6231;stroke-miterlimit:10;}
	.st64{fill:#FF8B00;}
	.st65{fill:#EAEBE9;}
	.st66{fill:#00D4FF;}
	.st67{fill:#FF71C0;}
	.st68{fill:#009EE5;}
	.st69{fill:#007FC1;}
	.st70{fill:#00C9F7;}
	.st71{fill:none;stroke:#FFFFFF;stroke-width:4;stroke-miterlimit:10;}
	.st72{fill:#FFFFFC;}
	.st73{fill:none;stroke:#000000;stroke-width:15.3517;stroke-miterlimit:10;}
	.st74{fill:#DCCDA7;}
	.st75{fill:#DBD4C2;}
	.st76{fill:#A78459;}
	.st77{fill:#B79B72;}
	.st78{fill:#710043;}
	.st79{fill:#E4DFD2;}
	.st80{fill:#987359;}
	.st81{opacity:0.54;fill:#FF5242;}
	.st82{fill:#D4C5AC;}
	.st83{fill:#DFD0BB;}
	.st84{fill:#6D3D35;}
	.st85{fill:#C8BFAB;}
	.st86{fill:#BDB39B;}
	.st87{fill:#CDC8AB;}
	.st88{fill:#EC517D;}
	.st89{fill:#FFFCCF;}
	.st90{fill:#E3D496;}
	.st91{opacity:0.54;fill:#FF2129;}
	.st92{opacity:0.54;fill:#FF3542;}
	.st93{fill:#FF712D;}
	.st94{fill:#FF2900;}
	.st95{fill:#D50700;stroke:#D50700;stroke-width:4.226;stroke-linecap:round;stroke-linejoin:round;stroke-miterlimit:10;}
	.st96{fill:#D50700;}
	.st97{fill:#E8DFD2;}
	.st98{fill:#B82831;}
	.st99{fill:#621C0F;}
	.st100{fill:#6C2621;}
	.st101{opacity:0.54;fill:#DB6D43;}
	.st102{fill:#00CCE0;}
</style>
<path class="st0" d="M707.4,215.7c-1.3-0.6-3.6-3.4-5-3.7c-6.7-1.4-8.8,2.1-10.1,6.6c-1.1,3.8,0.7,7.8,0.8,11.8
	c0.1,3.5-1.2,6.9-2.5,10.2c-2.1,5.6-4.3,11.2-7.6,16.1c-2.4,3.6-5.2,6.8-8.1,10c-10.5,11.9-20.5,24.4-26.7,39
	c-2.3,5.5-4.1,11.4-3.1,17.2c0.9,5.5,4.2,10.3,7.4,14.9c7.6,10.7,15.6,21.4,26.8,28.3c11.9,7.3,26.9,9.3,40.4,5.6
	c2.9-0.8,5.7-1.9,8.2-3.5c8.4-5.2,12.4-15.1,17.8-23.4c5.5-8.3,13.1-15.9,14.5-25.7c1.1-7.9-2-16.3,0.4-24
	c2.3-7.4,9.3-12.6,12.1-19.8c2.4-6.3,1.8-14.1,6.5-18.9c2.2-2.3,5.3-0.4,8-2c5.3-3.2,4.8-8.3,3.9-11.4c-0.8-2.6-3.5-4.1-6.2-4.7
	s-5.5-0.4-8.1-1c-9.3-2.3-12.1-10.5-29.3-16.7C722.5,211.7,711.6,217.8,707.4,215.7z"/>
<path class="st1" d="M697.7,276.7c-1,2.3-1.8,4.8-2.6,7.2c-2,5.8-4.6,11.4-7.6,16.7c-3.2,5.6-7,11.3-7.4,17.7
	c-0.2,4.7,1.4,9.2,3.5,13.4c3.7,7.6,10.1,15.2,18.5,15.4c4.3,0.1,8.3-1.8,12.2-3.7c5.4-2.6,10.9-5.2,15.9-8.6
	c2.4-1.6,4.8-3.5,6.5-5.8c2-2.7,3-6,4.1-9.2c1.7-5.2,3.3-10.4,5-15.6c1.3-4,2.6-8.1,3.2-12.3c1.6-10.4-1.4-21.6-8.3-29.6
	c-1.2-1.5-2.6-2.8-4.3-3.8C722.2,249.8,703.3,263.8,697.7,276.7z"/>
<circle cx="716.5" cy="245.7" r="7"/>
<circle class="st1" cx="715.1" cy="243.2" r="1.4"/>
<circle cx="752.3" cy="258" r="7"/>
<circle class="st1" cx="750.9" cy="255.5" r="1.4"/>
<path d="M721.3,255.9c-1.5,0.5-3,1.2-3.8,2.5c-1.5,2.4,0,5.6,2,7.4c2.5,2.3,5.9,3.5,9.2,4c3.4,0.5,6.8,0.3,10.2,0.1
	c1.5-0.1,3.2-0.3,4.2-1.5c1.6-1.9,0.3-4.7-1-6.7C736.9,253.2,730.3,252.7,721.3,255.9z"/>
<path class="st2" d="M696.9,217.3c0,0,7.4,3.2,4.2,10.9C701.1,228.2,695.1,222.9,696.9,217.3z"/>
<path class="st2" d="M778.3,249.9c0,0,1.1-10.5,9.1-5.6C787.4,244.3,785.3,251.7,778.3,249.9z"/>
<path class="st3" d="M707,273.4c0,0-16.1,10.2-4.9,27.7c0,0,9.1,11.9,26.7,6.3c0,0,16.5-4.9,14-23.2c0,0-14-2.5-14.4-13
	C728.4,271.3,717.6,280.5,707,273.4z"/>
<path class="st4" d="M702.8,266.1c1.8,5.3,6.6,9.4,12.1,10.3c5.5,0.9,11.6-4.1,14.9-8.5c-1.9,2.4,0,9.3,2.1,11.6
	c2.1,2.3,3.8,2.7,6.8,3.4c4.7,1.1,10.2,1.3,13.5-2.1"/>
<path class="st0" d="M707.3,287.1c1,0,2,0.1,2.9,0.6c0.8,0.6,1.3,1.8,0.7,2.6c-0.4,0.5-1,0.7-1.6,0.8c-1.5,0.4-3,0.8-4.5,1.2
	c2.1-0.3,4.2-0.2,6.2,0.1c0.8,0.1,1.7,0.4,2,1.2c0.5,1.3-1.1,2.4-2.5,2.5s-3,0-3.9,1c1.8,0.1,3.6,0.1,5.4,0.2c0.9,0,2,0.3,2.1,1.2
	c0.1,0.9-1.1,1.4-2,1.6c-10.6,1.8-20.8,5.8-29.9,11.7c-6,3.9-11.5,8.6-18.1,11.3c-0.6,0.2-1.2,0.4-1.7,0.3c-0.5-0.1-0.8-0.5-1.1-0.9
	c-6.9-8.5-6.4-22,1-30c1-1.1,2.1-2.1,3.5-2.6c3.6-1.4,7,0.7,9.5,3c4,3.6,4.2,4.4,8.9,1.3C691.1,289.6,699,287,707.3,287.1z"/>
<path class="st5" d="M658.5,311.5c3.3,1.8,7.3,2,11,1.3c3.7-0.7,7.2-2.1,10.7-3.5c4.1-1.5,8.2-2.8,12.4-3.9c-6.3,2.9-12,7-18,10.5
	c-6,3.5-12.7,6.3-19.7,6.1c-0.9,0-1.8-0.1-2.5-0.5c-1.6-0.7-2.4-2.5-2.6-4.3s0.4-3.5,0.9-5.1c0.7-2.3,1.2-4.7,2.2-6.9
	C654.6,307.6,655.8,310,658.5,311.5z"/>
<path class="st0" d="M735.2,298.2c-0.5-0.8-1.1-1.7-2-2.1c-0.9-0.4-2.2-0.2-2.6,0.7c-0.2,0.6-0.1,1.2,0.1,1.8c0.4,1.5,0.8,3,1.2,4.5
	c-0.8-1.9-1.9-3.7-3.2-5.3c-0.5-0.6-1.2-1.3-2-1.2c-1.4,0.2-1.5,2.2-0.9,3.4s1.5,2.6,1.1,3.9c-1-1.5-1.9-3.1-2.9-4.6
	c-0.5-0.8-1.3-1.6-2.1-1.2c-0.9,0.4-0.6,1.6-0.3,2.5c3.8,10.1,5.5,20.9,5,31.7c-0.3,7.1-1.6,14.3-0.6,21.3c0.1,0.6,0.2,1.2,0.7,1.6
	c0.4,0.3,0.8,0.4,1.3,0.5c10.8,1.7,22.3-5.6,25.4-16c0.4-1.4,0.7-2.9,0.5-4.3c-0.6-3.8-4.1-5.7-7.4-6.7c-5.1-1.6-5.9-1.4-5.6-7
	C741.2,313.5,739.5,305.3,735.2,298.2z"/>
<path class="st5" d="M738.7,352.6c-3.2-1.9-5.4-5.3-6.7-8.8s-1.8-7.3-2.4-11c-0.8-4.3-1.7-8.5-2.9-12.6c0.7,6.9,0,13.9,0.1,20.8
	c0.1,7,1,14.2,4.7,20c0.5,0.7,1,1.5,1.7,2c1.4,1,3.4,0.8,5,0.1s2.8-2.1,4-3.3c1.6-1.7,3.5-3.4,4.9-5.3
	C744.1,354.1,741.4,354.2,738.7,352.6z"/>
<path class="st6" d="M545.4,82c-1.1,3.8-4,41.3-5.3,47c-4.4,18.7-10.3,37.5-11.9,50.4c-4.3,34.2-4.1,42.6,3.2,61.8
	c8.6,22.5,9.6,27.1,26.6,34.5c13.8,6,40.4,11.7,55.3,10.7c28.7-1.8,38.7-1.6,65.7-11.3c7.1-2.5,17.7-8.9,19.9-15
	c5.1-14.6-10.2-23.7-16.6-26.8c-7.9-3.9-25.8-11.1-28.1-13.8c-1.6-1.8-2.5-4.1-3.3-6.4c-8.2-21.9-9.1-37.7-13.5-60.7
	c-3.5-18,6.7-26.5,4.6-44.7c-0.9-7.4,0.7-27.9-12.6-41.5c-6.1-6.1-16.2-7.3-29.3-9.2c-9.9-1.4-23-5.2-33.9-2
	C553.8,58.7,549.5,67.8,545.4,82z"/>
<g>
	<path class="st7" d="M637.2,151.6c0.4,28.1-0.5,57.2,13.7,81c1.2,2,2.5,4,4.5,5.2c1.6,1,3.5,1.4,5.4,1.8
		c12.4,2.5,24.9,4.9,37.3,7.4c-3.6-7.1-11.7-11.7-15.8-13.8c-7.9-3.9-25.8-11.1-28.1-13.8c-1.6-1.8-2.5-4.1-3.3-6.4
		c-8.2-21.9-9.1-37.7-13.5-60.7C637.2,152.1,637.2,151.9,637.2,151.6z"/>
	<path class="st7" d="M619.5,61.8c2,3.9,5.6,7.7,7.7,11.6c9.4,17.2,6.3,30.4,7.1,36.7c1.3,9.9,2.1,19.9,2.5,29.9
		c1.4-10.6,6.6-18.8,5-32.2c-0.9-7.4,0.7-27.9-12.6-41.5c-2.7-2.7-6.2-4.5-10.4-5.8C619.1,60.9,619.3,61.3,619.5,61.8z"/>
</g>
<path class="st8" d="M130.2,347c-4.8-3-8.6-3.2-10.9-3.1c-6.4,0.3-8.8,4-9.1,6.2c-1.2,8,5.1,10.1,5.1,10.1s-3.3,10.1-3.9,17
	c-1.1,12.1,1.1,20,0.1,29.9c-0.4,3.9-6.5,19.7-7.3,27c-2.9,28.5-1.5,36.7,3.3,50.9c0.8,2.5,6.7-1.9,8.9-0.5c1.6,1,3.4,1.2,5.3,1.4
	c14,1.3,28.2,0.9,42.2-1.2c11.9-1.8,24.6-5.4,32-14.9c8.4-10.9,7.5-26.3,3.8-39.5c-1.3-4.8-3-9.6-3.7-14.5c-1.3-9,0.5-18.1,1.6-27.2
	c1.1-9,1.4-18.6-2.7-26.8c-0.4-0.8-0.8-1.5-1-2.3c-0.3-1.1,0.6-4.5-2.1-7.7c-3.2-3.9-9.7-2.6-9.7-2.6s-8.1-7.6-21.3-8
	C150.3,340.6,139.9,343,130.2,347z"/>
<path class="st9" d="M182.9,400.7l-4.5,1.6c0-0.4,0-0.8,0-1.2l-6.3-0.5c0,0-2.1,9.9,2.6,10.1c0,0,1.5,0.1,2.5-1.1
	c0.5,0.4,1.1,0.7,2,0.7c0,0,2.8,0.2,3.3-3C182.5,407.2,183,403.4,182.9,400.7z"/>
<path class="st10" d="M615.9,577.5c-6.9,2.7-14.3,8-13.2,14.7c0.9,5,6.4,8.3,11.7,9.6s11.1,1.4,16.3,3.2c-2,2.5,0,5.9,2.5,8.1
	c8.3,7.4,30.2,9.1,33.7,9.2c30.8,0.5,37.7,0.2,68-4.7c22.3-3.6,40.6-4.9,55.9-13.6c2.1-1.2,24.5-14.8-22.3-18.8
	c-29.2-2.5-46-10.8-75.2-11.1c-14.6-0.1-29.1-0.1-43.7-0.6C636.8,573.1,628.1,572.6,615.9,577.5z"/>
<ellipse class="st1" cx="153.6" cy="374" rx="18" ry="17.8"/>
<path d="M117.2,357.1c0,0-4.6-2.8-2.6-6.5c0,0,2.2-4.3,8.5,0.6C123.2,351.2,120.2,352.8,117.2,357.1z"/>
<circle cx="160.5" cy="383.5" r="5.6"/>
<path class="st1" d="M173.4,401.1c0,0-2,7.1,2.7,7.3c0,0,2.8,0.2,3.3-3c0,0,0.4-3.8,0.4-6.6L173.4,401.1z"/>
<path class="st1" d="M177.8,400.7c0,0-2,7.1,2.7,7.3c0,0,2.8,0.2,3.3-3c0,0,0.4-3.8,0.4-6.6L177.8,400.7z"/>
<path class="st11" d="M170.9,389.5c-1.9,1.1-3.5,2.8-4,4.9c-0.5,2.1,0.4,4.6,2.4,5.6c1.2,0.6,2.9,1.3,4.2,1.2
	c1.8-0.1,3.5-0.7,5.2-1.1c0.7-0.2,2.2-0.1,3.1,0.3c1.3,0.6,2.8,0.3,4.2-0.1c0.7-0.2,2.6-1.3,3.3-3.5c0.4-1.1,0.4-3-0.9-4.5
	c-1.3-1.5-3.6-2.6-5.2-3.6C179.6,386.4,174.4,387.5,170.9,389.5z"/>
<path d="M176.7,386.7c-0.9,0.3-1.8,1-2.1,1.9c-0.6,2.2,1.7,3.4,2.2,3.5c1.5,0.3,2.4,0.4,4,0.4c1.1,0,3.2-0.4,3.9-1.3
	c0.8-1.1,0.3-2.7-0.6-3.6C181.9,385.7,179.1,385.8,176.7,386.7z"/>
<circle class="st1" cx="159.1" cy="381.4" r="1.6"/>
<path d="M185.1,351.9c0,0,3.4,3,5.7,5.9c0,0,0.5-2.7-1.3-4.7C189.5,353.1,187.1,350.9,185.1,351.9z"/>
<path class="st1" d="M186.8,357.6c0,0-8.9,2.9-4.5,21c0,0,3.9,14.1,13.9,13.2c0,0,9.6-4.2,8.6-18.4
	C204.7,373.4,203.5,355.8,186.8,357.6z"/>
<path class="st12" d="M205.7,373.2c0,0-1.2-17.6-17.9-15.8c0,0-0.3,0.1-0.8,0.4c15.8-1.1,17.1,15.9,17.1,15.9
	c0.8,11.7-5.5,16.6-7.8,18c0.3,0,0.6,0,0.9,0C197.1,391.6,206.7,387.4,205.7,373.2z"/>
<ellipse cx="195.2" cy="383.7" rx="4.2" ry="5.3"/>
<circle class="st1" cx="195.1" cy="381.8" r="1.6"/>
<path d="M800.9,417.5c5.8-4.1,9.8-10.1,13.6-16.1c3.8-6,7.6-12.1,13-16.6c5.6-4.6,12.9-7.1,20.2-7c3.5,0.1,7.2,0.8,9.7,3.2
	c2.6,2.4,3.5,6.8,1.2,9.4c-3.3,3.9-9.6,1.5-14.7,2.3c-5.2,0.8-9.1,5.2-12.3,9.4c-7,9.2-13.2,19.1-21.7,26.9
	c-8.5,7.8-19.9,13.5-31.3,12c-0.8-0.1-1.6-0.3-2.1-0.9c-0.5-0.5-0.6-1.3-0.6-2c-0.3-3.4-0.7-6.9,0.2-10.2
	C778.8,417.2,792.9,423.2,800.9,417.5z"/>
<path class="st13" d="M836.1,354.6c-0.2,1.8-2.2,3-4.1,3s-3.5-1-5.2-1.9c-5.9-3.3-12.1-6-18.3-8.6c-1.5-0.7-3.8-1.1-4.5,0.4
	c-0.7,1.6,1.2,3,2.7,3.7c5.7,2.6,11.4,5.1,17,7.7c0.7,0.3,1.4,0.7,1.6,1.4c0.1,0.7-0.3,1.3-0.8,1.9c-0.6,0.7-1.1,1.4-1.7,2.2
	c-0.2,0.3-0.5,0.6-0.9,0.7c-0.3,0.1-0.7,0-1-0.2c-9.3-3.4-20.1-6.6-28.5-11.9c3-6.2,8.8-12.3,16.1-10.6
	C812,343.1,836.3,351.6,836.1,354.6z"/>
<path d="M743.2,402.4l42.8,18.9c0,0,6.5-15,7.9-23.8s0.2-18.3-4.9-25.6c7.2-5.8,11.5-14.4,15.3-22.8c4.1-9,7.8-18.2,11.1-27.5
	c0.5-1.5,1-3.3-0.1-4.5c-0.7-0.8-1.8-0.9-2.9-1c-4.3-0.2-8.6,0.5-12.6,2.1c-0.9,0.4-1.9,0.8-2.9,0.8c-1.3-0.1-9.2-4.5-14.9-7.2l0,0
	c-0.1,0-0.2-0.1-0.3-0.1c-0.1,0-0.2-0.1-0.3-0.1l0,0c-5.8-2.6-14.3-5.6-15.2-6.6c-0.7-0.7-1-1.7-1.3-2.7c-1.4-4-3.7-7.8-6.6-10.9
	c-0.7-0.8-1.6-1.5-2.6-1.6c-1.6-0.1-2.7,1.5-3.4,2.9c-4.8,8.6-9.3,17.5-13.5,26.4c-3.9,8.4-7.6,17.2-7.2,26.5
	c-8.9,0.9-16.8,6.3-22.6,13c-5.8,6.8-12.9,21.5-12.9,21.5l42.3,20l0,0.1l2.4,1.1L743.2,402.4L743.2,402.4z"/>
<path class="st14" d="M768,344.1c12.9,6.1,23.7,6.2,28.6,1.5c-11.6-6.9-23.7-13-36.1-18.3c-3.5-1.5-15.1-4.6-15.1-4.6
	S744.3,332.9,768,344.1z"/>
<ellipse transform="matrix(0.4157 -0.9095 0.9095 0.4157 142.9446 883.0661)" cx="758.8" cy="330.3" rx="5" ry="3.9"/>
<ellipse transform="matrix(0.4157 -0.9095 0.9095 0.4157 146.9469 911.0103)" cx="782.5" cy="341.1" rx="5" ry="3.9"/>
<path class="st13" d="M804.9,345.5c0.5,0.2,1.2,0.5,1.7,0.2c0.4-0.2,0.7-0.7,0.8-1.2c1.4-3.5,2.8-7,4.3-10.6
	c-21.9-10.1-43.9-20.1-65.8-30.2c-0.4-0.2-1-0.4-1.4-0.2c-0.4,0.2-0.6,0.5-0.7,0.9c-1.3,2.7-2.6,5.3-3.9,8
	c-2.4,4.9,6.8,6.9,10.1,8.5c6.1,2.9,12.2,5.8,18.3,8.6C780.4,335,792.6,340.3,804.9,345.5z"/>
<path class="st14" d="M731.5,345.2c2.3,10.2,19.8,19.5,19.8,19.5l16.6,51.4l-23.2-13l-16.8-57.9"/>
<path class="st15" d="M318.2,478.3c-16.5,19.4-23.3,46.7-17.7,71.5c0.6,2.8,1.4,5.6,3.3,7.9c1.7,2,4.1,3.4,6.6,4.3
	c13.9,5.3,29.3-0.4,43.1-6.1c1.7-0.7,3.5-1.5,4.2-3.2c0.7-1.6-6.5,5.4-7.1,3.8c-8.3-24.5,11.8-59.4,16.8-84.7
	C350.5,473.3,318.2,478.3,318.2,478.3z"/>
<path class="st16" d="M339.9,488.5c0,0-19.9,22.1-16,90l26.5-9.4c0,0,0-45.3,10.5-87.2L339.9,488.5z"/>
<path class="st10" d="M89,646.9c-5.7,0.9-11.8,1.9-16.3,5.6c-4.5,3.7-6.5,11.1-2.6,15.4c2,2.3,5.2,3.1,8.1,4
	c25.7,8,72.5-2.1,75.3,0.5c14,13,47.4,18.1,71.5,16.8c81.2-4.3,39.7-42.2,39.7-42.2s37.4-12.6,40.8-13.6
	c28.3-8.7,54.8-15.6,83.9-21.3c10.3-2,25.2-2.7,35.7-4c-4.3,5.6-23.3,22.5-1.4,27.6c21.3,4.9,41.2,1.8,58.9-11
	c13.2-9.6,36.1-6.2,40.3-6.6c21.7-2.2,37.2-2.5,58.8-4.6c4.5-0.5,17.7-2.3,22.1-3.5c24.7-6.6,17.7-18.1,19.1-19
	c1-0.6,2.2-0.9,3.4-1.1c10.5-2.3,21.1-4.6,31.6-6.8c22.2-4.8,46.3-11.8,68.1-17.9s0-0.3,20.7,9c6.4,2.9,8.7,2,15.5,3.9
	c14.4,4,99.4-3.3,101.1-16.5c0.7-5.8-18.5-7.6-24.3-8.3c-27.9-3.1-44.7-10.8-72.6-13.9c-12.1-1.3-24.2-2.7-36.3-3.1
	c-16.7-0.5-33.3,0.7-50,1.9c-54,4-107.9,8-161.9,12.4c-62.4,5.2-125.6,11.2-184.6,32.3c-49.3,17.6-95.4,45.7-147.1,53.8L89,646.9z"
	/>
<path class="st17" d="M535.8,292.8c4.1-2.3,6.9-6.2,10.2-9.5c5.8-5.9,13.4-10.4,21.6-11.3c-2.3-7.1-4.8-14.1-7.6-21.1
	c-14.6,0.1-29,6.3-39.1,16.9c4.2,6.8,9,13.2,13.9,19.5"/>
<path class="st18" d="M510.2,242.1c-2.2-2-4.7-4-7.8-4.9c-3.2-0.8-7.3,0-9,2.5c-1,1.5-1.1,3.6-2.8,4.6c-1.7,1-4.2,0.5-5.9,1.5
	c-3.1,1.8-0.7,6.2-3,8.7c-1,1.1-2.9,1.7-3.6,3c-1.5,2.5,2.2,5.3,0.9,7.9c-0.4,0.8-1.2,1.4-1.4,2.2c-0.3,1,0.2,2,0.8,2.9
	c7.9,12.5,21,22.6,36.6,28.1c6.8,2.4,16.1,3.5,20.9-1.5c2.3-2.4,2.8-5.6,3-8.6C539.8,269.3,524.7,255.1,510.2,242.1z"/>
<path class="st19" d="M481.1,259.9c0-0.4,0.1-0.9,0.5-1.2c0.8-0.6,2.1-0.1,3.2-0.2c2.1-0.3,2.4-2.7,1.9-4.4c-0.5-1.7-1-3.8,0.7-4.9
	c1.9-1.2,4.7,0.4,6.9-0.5c2.7-1.1,1.9-4.5,3.6-6.6c1.6-1.9,5-2,7.3-1c2.3,1,3.9,2.9,5.5,4.6c4.6,4.8,10.3,8.6,16.1,12.5
	c-4.9-5.8-10.8-11.2-16.7-16.4c-2.2-2-4.7-4-7.8-4.9c-3.2-0.8-7.3,0-9,2.5c-1,1.5-1.1,3.6-2.8,4.6c-1.7,1-4.2,0.5-5.9,1.5
	c-3.1,1.8-0.7,6.2-3,8.7c-1,1.1-2.9,1.7-3.6,3c-1.5,2.5,2.2,5.3,0.9,7.9c-0.4,0.8-1.2,1.4-1.4,2.2c-0.3,1,0.2,2,0.8,2.9
	c0.1,0.2,3-1,3.8-4.3C482.4,264.5,481.1,260.9,481.1,259.9z"/>
<path class="st20" d="M534.7,280.6c-4.7-7.3-17.8-22-21.2-9c-1.2,4.5-10.4,2.6-11.9,5.2c-1.9,1.7-0.8,2.3-3,5.6
	c-2.3,3.6-6.2,2.8-5.6,4c6.4,5,13.8,9.1,21.8,12c6.8,2.4,16.1,3.5,20.9-1.5c2.3-2.4,2.8-5.6,3-8.6c0-0.3,0-0.7,0-1
	C537.2,285.1,536.1,282.8,534.7,280.6z"/>
<path class="st21" d="M533.7,55.5c1.6,3.3,9.7,3.2,13.4,3.1c8.7,0,13.8-1.5,22.3,0.3c2.9,0.6,5.7,1.7,8.7,1.5s6.1-2.2,6.2-5.2
	c0.1-1.8-1-3.5-2.5-4.5c-1.4-1-18.8-3-25.7-2.6c-1.9,0.1-3.9,0.3-5.8,0.5C543.5,49.6,533.1,54.3,533.7,55.5z"/>
<path class="st22" d="M551,66.9c0,0,3.3-14.5,23.6-14l39.3,6c0,0-13.2,20.2-26.1,18.3L551,66.9z"/>
<path class="st23" d="M140.1,628.2c-1.6,0.4-3.3,0.9-4.4,2.2c-1,1.2-1.3,2.9-1.4,4.5c-0.8,8.7-0.6,2.7,2.1,11c1.2,3.5,5.6,3.5,9,5
	c1.9,0.8,16.9,7.5,18.9,7.5c20.7-0.7,26.1,5,45.8-1.5c52.1-17.2,103.4-37,153.6-59.1c-6.7-5.8-13.5-11.6-20.2-17.4
	c-10.5-9-23.3-19-38.2-16.3c-10,1.8-17.8,11.3-26.4,16.3c-27.3,15.7-57.9,25.6-88.1,34.2C174,619.2,157,623.6,140.1,628.2z"/>
<path class="st23" d="M375,539.1c-13.6,3.5-27.2,7.1-41.2,7.9c-5.9,0.4-11.8,0.3-17.5,1.8c-13.3,3.5-23.4,16.8-23.4,30.6
	c0.1,13.8,10.3,26.9,23.7,30.3c11.6,3,23.6-0.8,35.2-3.7c49.8-12.7,102.5-10.5,152.3-23.1c8-2,16.2-4.6,21.9-10.5
	c9.5-9.8,9-26.6,1-37.6s-21.6-17-35.1-18.6C453.7,511.7,411.5,529.6,375,539.1z"/>
<path class="st24" d="M532.7,564.3c-5.7,5.9-58.7-20.6-66.9-19.8c-16.5,1.6-37.5,10.2-52.1,15.4c-10.2,3.6-14.9,3.3-22.8,7.4
	c-7.1,3.6-4.1,6.4-12.3,9.8c-8.2,3.4-17.2,6.6-27.7,9.3c-5.4,1.4-21.1,18.3-26.6,19.3c-15.8,7.9-23.5,5.3-34.1,8.3
	c-11.9,3.3-31.4,10.6-36.2,11.4c-25.9,4.4-28.4,14.5-37.3,23.5c-14.7,14.7-25.1,0.8-45.8,1.5c-2,0.1-17.1-6.7-18.9-7.5
	c-3.4-1.5-7.8-1.4-9-5c-2.2-6.8-2.8-4-2.4-7.5c-0.6,1.1-0.9,2.5-1,3.8c-0.8,8.7-0.6,2.7,2.1,11c1.2,3.5,5.6,3.5,9,5
	c1.9,0.8,16.9,7.5,18.9,7.5c20.7-0.7,26.1,5,45.8-1.5c42.4-14,84.2-29.7,125.4-47c5.5-1,11-2.5,16.4-3.9
	c49.8-12.7,102.5-10.5,152.3-23.1c8-2,16.2-4.6,21.9-10.5c4.4-4.5,6.7-10.6,7-16.9C537.3,558.3,535.4,561.6,532.7,564.3z"/>
<path class="st25" d="M292.8,564.3c1.8-3.9,2.9-8.3,5.9-11.4c4.4-4.6,11.4-5.1,17.8-5.5c19.7-1.2,39.3-4.2,58-10.4
	c8.2-2.7,16.6-6.1,25.2-5.7c7.3,0.3,14.3,3.4,20.2,7.7c-2.2,3-5.4,5.3-9,6.4c2.6,0.8,4.6,3.3,4.6,6c-7.5-1.7-15.6-0.5-22.3,3.4
	c2,0.1,2.1,3.5,0.4,4.6c-1.8,1-4,0.5-6,0c-2-0.4-4.5-0.5-5.7,1.1c-1.1,1.4-0.8,3.4-1.7,4.9c-1.4,2.5-4.9,2.5-7.8,2.2
	c-9-0.9-18.1-1.9-27.1-2.8c-0.8,8.7-8.2,16.4-16.9,17.7c-5.2,0.8-10.6-0.6-15.8,0.2c-7,1.2-12.6,6.1-18.6,9.9
	c-11.5,7.5-24.9,11.5-38,15.5c0.7-10.4,5-19.6,14.3-24.1C280,579.4,288.2,574.7,292.8,564.3z"/>
<path class="st26" d="M718.8,543.1c11.8-6.7,12.6-9.3,25.5-13.5c0.6,5.6,13.9,5.5,18.4,8.9c8.8-2,15.8-9.2,19.1-17.5
	c3.3-8.4,3.1-17.8,1.3-26.6c-1.5-6.9-4.3-13.9-9.8-18.3c-5.9-4.7-13.7-5.6-21.2-6.4c-4.1-0.4-8.5-0.8-12,1.3
	c-2.2,1.3-3.8,3.5-5.3,5.6c-6,8.8-10.9,18.3-17.3,26.8c-9.5,12.5-30.8,21.2-33.7,38C679.8,563.8,709.1,548.6,718.8,543.1z"/>
<path class="st23" d="M286.5,276.6c2.4,44.3,7.4,70.2,17.4,98.1c2.3,6.5,9.6,33.5,11,39.9c2.2,10.7,6.3,12.5,9,22.9
	c4,16,5.3,33.4,12,47.9c7.3,15.7,7.9,24,23.9,30.9c6.9,3,14.5,4.2,21.5,7.1c7.7,3.3,14.5,8.6,22.1,12.1c7.6,3.6,17,5.2,24.2,1
	c3.6-2.1,6.4-5.4,10.4-6.7c4.7-1.5,9.7,0.2,14.3,1.9c16.8,6.3,33.6,12.5,50.4,18.8c41.9,15.6,85.1,29.4,128.6,18.7
	s82.4-38.5,106.8-76c4.3-6.6,12.1-14.5,18.4-9.8c2.1,1.5,3.1,4,4.2,6.3c9.6,22.2,22.6,43,38.4,61.3c5.6,6.5,11.8,12.8,19.5,16.5
	c7.8,3.7,17.5,4.3,24.7-0.4c10.8-7.1,11.9-22.6,9.6-35.3c-2.3-12.7-6.8-25.9-2.9-38.3c1.4-4.4,3.9-8.6,4.5-13.2
	c1.2-8.5-4.9-17.4-13.3-19.3c-8.4-1.9-17.7,3.4-20.3,11.6c-4.9-9.2-7.5-19.5-12-28.9c-8.9-18.7-24.4-33.2-39.6-47.2
	c-13.2-12.2-26.5-24.4-42-33.6c-18-10.7-38.9-17.1-53.8-31.8c-13-12.7-20.5-30.7-35.3-41.2c-11.4-8-25.8-10.5-39.7-11.4
	c-9-0.6-14.4-1.1-25.3,0.7c-7.6,1.2-18.1,12.6-24.7,21.2c-25-8.6-44.5-1.4-66,14.1c-23.9,17.3-37.2,46.1-60.3,64.5
	c-2.1,1.7-4.4,3.3-7.1,3.6c-4.8,0.5-8.9-3.5-12-7.3c-17.3-21.3-28.6-47.5-32.2-74.7c-3.2-23.9-0.9-49.3-11.3-71
	C331.8,236.9,306.2,256,286.5,276.6z"/>
<path class="st27" d="M369.6,510c1.3-6.3,1.5-12.8,0.6-19.2c3.6,6.4,9.7,11.3,16.6,13.6c1.4-3.7,2.4-7.4,3.3-11.3
	c7.3,11.9,21.1,19.4,35,19c0-2.4-0.1-4.9-0.1-7.3c4.9,5.6,9.9,11.2,16.5,14.7c6.5,3.5,14.9,4.5,21.2,0.5
	c9.6,6.9,19.5,13.9,30.9,16.4c2.6,0.6,5.2,0.9,7.7,1.6c7.7,2.1,14.2,7.2,20.5,12.3c-10.1,1.1-19.9,4-28.9,8.6
	c-8.5,4.3-16.2,10.1-24.2,15.4c-2.9,1.9-6.1,3.8-9.5,3.4c-8.2-0.9-9.8-12.7-16.8-17.2c-2.3-1.4-4.9-2-7.5-2.9
	c-4.9-1.8-9.2-4.9-13.4-7.9c-6.1-4.4-12.2-8.8-18.2-13.2c-4.4-3.2-11-6.2-14.7-2.2c-2.7-2.3-5.5-4.6-8.2-6.8
	c-11.3,3.6-12.7-6.5-19.8-10.5c-3.1-1.7-6.9,1.4-8.3-3.5c-0.8-2.6,2.8-9.3,3.5-11.9C356.5,502.5,369.2,512.2,369.6,510z"/>
<path class="st28" d="M290.7,457.7c0-19.4-42.8-35.1-95.5-35.1c-52.7,0-95.5,15.7-95.5,35.1c0,1.8,29.1,191.7,29.1,191.7h0.2
	c3,13,32.5,23.2,68.6,23.2s65.6-10.2,68.6-23.2h0l0-0.1c0.1-0.6,0.2-1.1,0.2-1.7C266.2,647.6,290.7,458.8,290.7,457.7z"/>
<ellipse class="st29" cx="195.4" cy="456.8" rx="90" ry="30.1"/>
<path class="st30" d="M195.2,489.9c-49.1,0-83.1-9.5-94.7-25.5c5,33.7,28.1,185,28.1,185h0.2c3,13,32.5,23.2,68.6,23.2
	s65.6-10.2,68.6-23.2h0l0-0.1c0.1-0.6,0.2-1.1,0.2-1.7c0,0,19.3-149,23.6-183C276.5,477.8,251,489.9,195.2,489.9z"/>
<path class="st31" d="M156.3,448.1c-7,1.2-13.9,4.6-18,10.4c-1.8,2.6-2.9,5.7-2.3,8.7c1.2,5.7,7.9,8.1,13.6,9.1
	c31.6,5,63.4-8.1,95.3-6.2c-3.7-12.9-12.4-24.3-23.9-31.3c-11.5-7-36.3-11.7-44.4-4.3c-4,3.6-6.4,8.6-1.2,13.2
	C170.4,447.1,162.7,447,156.3,448.1z"/>
<path class="st29" d="M171.5,451.8c-0.9,0.2-1.8,0.5-2.8,0.6c-0.9,0.1-1.8,0.1-2.7,0.1c-4.7,0-9.4,1.1-13.7,3.1
	c-2.4,1.1-4.8,2.6-6.1,4.9c-1.3,2.3-1.4,5.5,0.5,7.4c1.7,1.7,4.5,1.8,6.9,1.8c1.8,0,3.6,0,5.4,0c4.8,0,9.5,0,14.3-0.4
	c10.3-0.9,20.3-3.7,30.5-5.3c10.2-1.6,20.7-1.9,31-1c-5.9-3.9-8.3-11.5-13.5-16.3c-1.5-1.4-3.2-2.5-5-3.6c-4.5-2.9-9.2-5.5-14.4-6.9
	c-5.1-1.5-10.8-1.7-15.8,0.2c-1.7,0.6-3.4,1.6-4.5,3s-1.5,3.5-0.7,5.1c0.8,1.5,5.3,6.9,5.3,6.9S174.7,451.2,171.5,451.8z"/>
<ellipse class="st31" cx="253.8" cy="467.7" rx="2.5" ry="1.2"/>
<ellipse class="st31" cx="248.1" cy="460.1" rx="3.7" ry="2"/>
<ellipse class="st31" cx="135.4" cy="453.3" rx="2.7" ry="1"/>
<ellipse class="st31" cx="127" cy="468.5" rx="3.7" ry="1.5"/>
<ellipse class="st31" cx="130.5" cy="458.2" rx="2.2" ry="1"/>
<ellipse class="st31" cx="152.3" cy="464.1" rx="2.2" ry="1"/>
<ellipse class="st31" cx="230.9" cy="441.6" rx="1.6" ry="0.9"/>
<ellipse class="st31" cx="254.2" cy="444.9" rx="1.4" ry="0.7"/>
<ellipse class="st31" cx="218.7" cy="478.9" rx="1.4" ry="0.7"/>
<ellipse class="st31" cx="207" cy="449.5" rx="1.4" ry="0.7"/>
<ellipse class="st31" cx="200.3" cy="454.6" rx="1.4" ry="0.7"/>
<ellipse class="st31" cx="165" cy="439.1" rx="1.4" ry="0.7"/>
<ellipse class="st31" cx="120.8" cy="453.8" rx="1.4" ry="0.7"/>
<path class="st32" d="M235.3,487.4c-0.1,0.3-0.2,0.6-0.2,0.9c-3.1,15.8,0.5,24-1.5,40c-0.9,6.8-1.1,21.5-2.6,28.2
	c-2.6,11.5-0.6,49.8-1,61.5c-1,26.3-4.2,26.1-4.3,52.3c22.3-3.7,38.2-11.6,40.4-20.9h0l0-0.1c0.1-0.6,0.2-1.1,0.2-1.7
	c0,0,19.3-149,23.6-183C280.4,474.2,264.4,483.1,235.3,487.4z"/>
<polygon class="st33" points="119.9,495.9 120.4,507.4 132,509 130.9,496.4 "/>
<polygon class="st33" points="122.5,521.5 123,533 134.6,534.6 133.5,522 "/>
<path class="st34" d="M110.1,533.4c0,0,15.2,15.5,86.1,15.5c0,0,58.5,1.5,85.4-21.7l-14,113.4c0,0-17,23.7-70.7,23.1
	c0,0-51.9,1.1-73.6-23.5L110.1,533.4z"/>
<path class="st33" d="M121.2,523.5c2.5,2.3,10.6,10.6,13.1,12.8"/>
<path class="st33" d="M121.4,533.5c1.6-1.5,13.7-11.9,15.3-13.4"/>
<path class="st35" d="M139.2,620.2c-1.2-7.4-2.5-14.9-3.7-22.3c-0.6-3.5-1.2-7.1-0.7-10.7c0.5-4.4,2.6-8.6,2.8-13
	c0.5-10.4-1.5-15.7-1-26.1c-14.1-1.5-27-11.4-27-11.4l16.6,104.8c4.5,3.9,8.7,7.4,19.2,10.9C143.5,641,141.1,631.5,139.2,620.2z"/>
<path class="st36" d="M232.7,545.9c-1.4,10.1-5.2,109.2-6,113.3c29.6-5,41.8-18.6,41.8-18.6l13.5-113
	C274.6,537.1,241.6,545.1,232.7,545.9z"/>
<path class="st37" d="M245.8,635.3c0,0,14-31.1,1.4-57.6c0,0-9.5-24.8-47.7-24.4c0,0-51.2-3.1-48.4,48.8l-0.6,15.6
	c0,0,1.2,11.6,11.8,21.8c0,0,13.1,16.5,36.2,15.8C198.6,655.2,226.7,659.5,245.8,635.3z"/>
<path class="st34" d="M181.4,593.9c-2.2,5.7-5.8,7.7-9.5,10.7c-1.8,1.5-8.2,5.3-9.5,7.3c-2.2,3.4-1.1,6.1,0.2,8
	c3.7-3.8,9.1-4.6,14.8-4.6c4.4,0,14.6,2.4,18.9,1.7c10.4-1.6,15.4-14.7,15.4-14.7s7-1.5,7.8-3.3c0,5.3-6.3,7.2-6.3,7.2
	s-6.8,15.8-16,18.9c-4.4,1.5-19.1-0.9-22.9-0.8c0.8,2.8,8.2,5.5,19,5.7c12,0.2,15.9-5.3,24-17.3c0.9-1.4,3.6-6.1,4.7-6.9
	c2.4-1.9,4.8-3,3.8-6.8c-0.3-1.1-0.9-3.3-2.2-4.7c-2.9-3-7.7-2.7-11.6-4c-3.2-1.1-5.1-5.1-9.2-6.4c-4.7-1.5-9-0.8-12.5,0.5
	C186.2,586,183.4,588.7,181.4,593.9z"/>
<ellipse class="st34" cx="218.3" cy="582.4" rx="7.2" ry="7.5"/>
<ellipse class="st37" cx="219.4" cy="582" rx="5.3" ry="5.5"/>
<path class="st34" d="M224,570c-8.5-1.8-23.3-1.4-31,2.6c-10.3,5.3-15.2,12.9-20.3,26.7c-4.7-0.6-11.2-1.2-15.9-1.8
	c-0.3-6.7,0.4-13.5,2-20c1.5,1.7,2.7,3.7,3.5,5.8c-0.2-2.1,2.7-3.5,4.6-2.5c1.9,1,2.6,3.5,2.3,5.6c0.2-1.6,1.3-3.2,2.9-3.4
	c1.6-0.3,3.3,1.2,3,2.8c3.9-8.8,19.2-19.7,32-21.7c23.5-3.7,35.9,11.4,37,17.7C238.6,575.9,232.8,571.9,224,570z"/>
<path class="st34" d="M205.7,624.6c0,0,26.7-6.1,19.7-26.3L205.7,624.6z"/>
<polygon class="st34" points="178.1,558.1 178.8,565.5 170.4,567.2 177.8,570 176.7,580.1 185.1,567.9 195,567.9 188.3,564.1 
	191.4,559.9 184.8,561.6 "/>
<path class="st34" d="M235.9,603.6c-0.7,1.1-1.6,2.2-2.1,3.5c-1.7,4.2,1.1,8.9,0.3,13.3c-1,5.2-6.4,8.1-11.1,10.3
	c-4.8,2.2-10.1,5.3-10.8,10.5c2.2-3.7,7.5-3.6,11.7-4.6c7.8-1.8,13.7-9.8,13.1-17.8c-0.2-2.6-1-5.3-0.2-7.8c0.6-1.8,1.9-3.3,3-4.8
	c3.2-4.6,4.1-10.7,2.5-16c-1-3.3-3-6.5-5.7-8.6c-4.9-3.9-2.8-0.1-1,2.7C239.2,589.9,239.6,597.8,235.9,603.6z"/>
<path class="st23" d="M523.6,546c-13,4.4-26,8.8-38.9,13.1c-9.7,3.3-19.6,6.6-29.8,7.1c-5.5,0.3-11.1-0.3-16.5,0.7
	c-9.3,1.7-17.1,7.9-23.7,14.6c-5.9,6-11.5,13.4-11.6,21.9c-0.1,10.7,8.9,19.8,19,23.2c10.1,3.5,17.2,3.8,27.8,2.9
	c3.8-0.3,11.7-2,15.2-3.6c2.9-1.4,8.7-5.2,11.4-7c10.5-7.3,20.7-6.7,33.4-7.4c15.9-0.9,31.8-1.7,47.7-2.6c16.1-0.9,34.1-2.7,44.5-15
	c11.2-13.3,8.9-33.3,2.7-49.6s-15.4-31.9-16.3-49.2c-0.6-12.1,3-24.5,0.4-36.3c-0.7-3-4-6.6-6.2-4.3c-0.6,0.7-0.8,1.6-1,2.5
	c-1.8,11.2-3.6,22.5-5.4,33.7c-1.1,6.9-2.2,13.9-1.5,20.9c1.1,11.4,7.3,23,7,34.2c-8.3-0.8-15.2-6.7-24.3-7.1
	C546,538.4,534.3,542.2,523.6,546z"/>
<g>
	<path class="st24" d="M608.3,559.4c1.2,10.9-0.6,21.8-7.5,30c-10.4,12.3-28.4,14.1-44.5,15c-15.9,0.9-31.8,1.7-47.7,2.6
		c-12.7,0.7-22.9,0.1-33.4,7.4c-2.7,1.8-8.4,5.6-11.4,7c-3.5,1.6-11.4,3.3-15.2,3.6c-10.7,0.9-17.7,0.6-27.8-2.9
		c-8.4-2.9-16.1-9.7-18.3-18c0.2,10.5,9.1,19.3,19,22.7c10.1,3.5,17.2,3.8,27.8,2.9c3.8-0.3,11.7-2,15.2-3.6c2.9-1.4,8.7-5.2,11.4-7
		c10.5-7.3,20.7-6.7,33.4-7.4c15.9-0.9,31.8-1.7,47.7-2.6c16.1-0.9,34.1-2.7,44.5-15C609.4,584.6,610.5,571.8,608.3,559.4z"/>
</g>
<ellipse transform="matrix(0.991 -0.1337 0.1337 0.991 -4.6596 81.7171)" class="st38" cx="606.1" cy="75.6" rx="10.1" ry="12.1"/>
<ellipse transform="matrix(0.991 -0.1337 0.1337 0.991 -4.4859 81.8932)" class="st39" cx="607.5" cy="74.3" rx="6.8" ry="8.2"/>
<ellipse transform="matrix(0.9972 -7.413867e-02 7.413867e-02 0.9972 -4.1833 45.3014)" class="st40" cx="608.1" cy="79" rx="3.6" ry="2.6"/>
<ellipse transform="matrix(0.991 -0.1337 0.1337 0.991 -3.4393 82.0493)" class="st1" cx="609.2" cy="66.6" rx="1.4" ry="1.4"/>
<path d="M564.4,43.3c0.4-2.4,0.8-4.9,1.8-7.2c1.7-4.2,3.8-8.8,13.8-12.2c4.5-1.5,19.1-1.6,21.8-1c9.4,2.3,18.8,5.2,23.1,9.1
	c13.2,12.1,5.1,34.7,5.1,34.7s-13.7-5.4-22.6-6.6c-7.4-1-11.6-4.6-18.9-6c-5.5-1.1-11.1-1.7-16.7-2.7c-2.4-0.4-8.8,2.3-8.8-0.3
	C563,48.7,563.9,45.8,564.4,43.3z"/>
<path class="st41" d="M582.3,134.9c15.7-3.5,27.9-20.1,29.2-31.7c-7.9,1.8-17.9,4.5-25.7,6.3c-3.8,0.9-7.7,1.8-11,3.9
	c-2,1.3-3.8,3.1-5.6,4.6c-3,2.5-6.4,3.9-9.5,6c-3.1,2.2-12.2,0.9-10.1,4.5C553.3,135,569.1,137.8,582.3,134.9z"/>
<path class="st23" d="M60.6,573.3c-3.2,6.2-5.5,12.9-5.8,19.8c-0.9,16.8,2,42.2,16.5,53c14.5,10.8,43.3,17.8,65.3,15.2
	c-4.6-4.6-13-13-11.9-19c1-6.1,3.8-11.8,6-17.5c4.1-10.6,16.8-20.6,17.2-31.8c0.2-5.8-0.1-11.9-3.3-16.9
	c-3.2-5.1-15.2-11.9-26.5-8.4c6.4-7.9,14.2-12.9,17.3-25.2c6-24-24.8-21.1-37.5-11.8C81,543,70.2,554.7,60.6,573.3z"/>
<g>
	<path class="st27" d="M126,637.4c-19.3-0.6-35.8,0.8-48.8-7.6c-12.9-8.3-20.2-25.1-21.3-40.2c-0.3,1.6-0.5,3.2-0.6,4.8
		c-0.9,16.8,1.1,41.3,15.6,52.1c14.5,10.8,45.2,17,67.1,14.4C128.3,655.2,125.2,643.3,126,637.4z"/>
</g>
<g>
	<path class="st42" d="M135.2,658.8c-0.3,0-3.3-3.8-3.6-3.8c0.1,0.1-21.5,2.5-33.9-0.7c-11-2.6-22.2-5.1-28.8-10
		c-0.5-0.4-1-0.8-1.5-1.2c1.2,1.4,2.6,2.6,4,3.7c6.6,4.9,14.3,9.2,25.3,11.8c12.5,3.2,28.6,4.3,40.3,2.9c-0.1-0.1,0.9-0.3,1.5-0.4
		C137.3,660.5,136.2,659.6,135.2,658.8z"/>
	<path class="st42" d="M132.2,547.7c-4.3,8.9-10.5,14.1-17.1,20.5c1.2-0.3,6.8-2,8.7-1.8c5.9-6.9,9.5-12.7,12.2-21
		c2.7-7.9,0.8-15.3-3.3-18C137.3,536.9,134.9,542,132.2,547.7z"/>
	<path class="st42" d="M145.1,576.2c-0.5-0.8-1.4-1.6-2.5-2.4c3.1,5,2.8,9.1,1.7,14.7c-2.2,11.9-13,19.8-18.3,30
		c-2.9,5.6-9.5,16.4-8.9,25.1c0,0,0.4,11.8,7.1,15.4c3.5,1.8,4-3.9,8.6-2.5c-5.3-6.1-7.1-14.3-6.4-18.9c-0.1,0-0.2,0-0.2,0
		c1.3-4.3,1.9-7.2,4.9-12.7c5.5-10.1,16.8-20.6,17.2-31.8C148.6,587.3,148.3,581.3,145.1,576.2z"/>
</g>
<g>
	
		<ellipse transform="matrix(1.167658e-02 -0.9999 0.9999 1.167658e-02 537.6231 608.2938)" class="st43" cx="576.5" cy="32.2" rx="1.1" ry="2"/>
	
		<ellipse transform="matrix(1.167658e-02 -0.9999 0.9999 1.167658e-02 533.3107 612.4576)" class="st43" cx="576.5" cy="36.4" rx="1.1" ry="2"/>
	<ellipse transform="matrix(0.8494 -0.5278 0.5278 0.8494 66.2152 306.9703)" class="st44" cx="570.9" cy="37.5" rx="1.1" ry="2"/>
	<ellipse transform="matrix(0.8494 -0.5278 0.5278 0.8494 65.6498 309.2449)" class="st44" cx="574.6" cy="39.6" rx="1.1" ry="2"/>
	<ellipse transform="matrix(0.8494 -0.5278 0.5278 0.8494 63.9407 307.5908)" class="st44" cx="570.8" cy="41.8" rx="1.1" ry="2"/>
	<ellipse transform="matrix(0.8494 -0.5278 0.5278 0.8494 63.3753 309.8654)" class="st44" cx="574.6" cy="43.9" rx="1.1" ry="2"/>
	<ellipse transform="matrix(0.5475 -0.8368 0.8368 0.5475 228.2842 505.9731)" class="st45" cx="582" cy="41.9" rx="2" ry="1.1"/>
	<ellipse transform="matrix(0.5475 -0.8368 0.8368 0.5475 224.8791 503.7578)" class="st45" cx="578.2" cy="43.9" rx="2" ry="1.1"/>
	<ellipse transform="matrix(0.5475 -0.8368 0.8368 0.5475 231.9809 504.0296)" class="st45" cx="582" cy="37.5" rx="2" ry="1.1"/>
	<ellipse transform="matrix(0.5475 -0.8368 0.8368 0.5475 228.5757 501.8143)" class="st45" cx="578.3" cy="39.6" rx="2" ry="1.1"/>
	
		<ellipse transform="matrix(1.167658e-02 -0.9999 0.9999 1.167658e-02 531.905 606.6548)" class="st43" cx="572.8" cy="34.3" rx="1.1" ry="2"/>
	
		<ellipse transform="matrix(1.167658e-02 -0.9999 0.9999 1.167658e-02 539.1224 614.1296)" class="st43" cx="580.2" cy="34.3" rx="1.1" ry="2"/>
</g>
<path class="st25" d="M402,607c4.4-1.8,16.2-21,20.8-19.8c-0.6,3.8,0.1,7.7,1.7,11.1c3.6-4.3,9.9-8.9,14-5.1c3.2,3,3.3,10.1,7.6,9.6
	c1.4-0.2,2.6-1.3,3.5-2.4c3.6-4.1,6.8-8.6,9.5-13.3c3.8,1.6,7.2,4.2,9.7,7.4c5.3-0.9,4.7-13.2,9.7-11c0.9,0.4,1.5,1.2,2,2
	c2.7,3.8,5.4,7.7,8,11.5c1.7-5.5,3.5-11,5.2-16.4c6.7,2.8,12.2,8.4,14.8,15.2c-0.6-4.2,2.4-8.5,6.5-9.5c4.1-1,8.7,1.5,10.1,5.4
	c3.9-4.1,7.7-8.2,11.6-12.2c4.2,1.5,8.4,3,12.6,4.4c4.4-3,7.8-7.6,9.2-12.7c4.8,3.9,9.6,7.8,14.4,11.7c4.2-11.3,4.2-24.7-2.2-34.9
	s-19.9-16.3-31.2-12.1c6.8,0.5,13.3,4.4,16.9,10.2c-13.2-9.6-31.5-5.6-47.2-1.1c-12.3,3.5-13.3,8.8-25.6,12.3
	c-4.3,1.2-28.2,5.5-30.7,6.4c-2.5,0.9-5.3,1.2-8,1.4c-6.9,0.5-21.3-1.7-26.8,2.3C394.1,584.4,405.7,604.9,402,607z"/>
<path class="st25" d="M372.3,306.2c1.5,7.4,3,14.8,5.4,22c2.7,7.7,6.5,15,10.4,22.1c1.6,2.9,3.2,5.8,4.8,8.7
	c2.8,5.1,5.8,10.3,10,14.4c4.2,4.1,9.9,7.1,15.7,6.6c7.1-6,14.2-11.9,21.4-17.9c-0.5,2.7,2.9,4.3,5.6,4.6c2.7,0.3,6.1,0.5,7.2,3
	c1.8,4-4.5,7.6-4,11.9c3.8-0.8,8,2.1,8.6,5.9c-3.2-0.1-5.5,3.5-5.2,6.7s2.3,5.9,4.3,8.5c-2.8,0.7-3.8,4.5-2.9,7.2
	c1,2.7,3.3,4.8,5.2,6.9c6.5,6.9,10.6,15.9,11.6,25.3c0.1,0.7,0.1,1.5-0.4,2.1c-0.7,0.7-1.8,0.6-2.8,0.4c-2.6-0.6-5.2-1.2-7.9-1.8
	c0.7,7.7,1.3,15.5,2,23.2c-2.8-0.3-5.6-1.1-8.1-2.5c0.5,4.5-0.3,9-2.1,13.1c-3.6-2.1-6.5-5.5-8.2-9.4c-3.1,1.9-6.3,3.8-9.4,5.8
	c-0.7,0.4-1.6,0.9-2.4,0.6c-0.7-0.2-1.1-0.9-1.5-1.5c-3.4-6.2-6.4-12.6-8.9-19.2c-1.1-3-2.3-6.1-5-7.9c-2.6-1.8-7.1-0.9-7.7,2.2
	c-6.5-5-9.2-13.5-10.3-21.7s-1-16.5-3.5-24.4c-1.9,3.9-4.5,7.4-7.5,10.4c-6.2-7.2-9.1-17.3-7.6-26.7c-2.1,3-6.7,3.5-9.8,1.6
	c-3.1-1.9-4.8-5.6-5-9.2c-0.2-5.2,2.2-10.9-0.6-15.3c-5.7,0.1-8.4-7.2-7.8-12.8c0.6-5.6,3-11.4,1.1-16.7c-4.8-1.3-6.2-7.3-6.8-12.2
	c-1-8.4-2.1-17-0.4-25.4c1-4.9,6.5-20.2,14-18C370.1,278.8,371.1,300.5,372.3,306.2z"/>
<path class="st24" d="M311.4,400.7c14.4-5.2,25.4-19,27.3-34.2c0.3-2.5,0.4-5.1,1.6-7.4c2.6-5.1,9.1-6.5,13.8-9.8
	c9-6.4,10.3-19,10.8-30.1c0.6-13.3,1.1-26.6,1.7-39.8c-9.4,4-18.7,8-28.1,12c-2.3,1-4.7,2-6.5,3.8c-2.2,2.2-3.2,5.2-4.2,8.1
	c-6,17.4-12,34.8-18,52.2c-2.5,7.1-5.1,12.8-3.9,20.2C306.3,378.9,313.3,398.8,311.4,400.7z"/>
<path class="st25" d="M68.6,556.6c-12.1,18-17.3,35.4-12.1,61.6c0.3-8.5,1.1-17.8,3.7-25.9c0.4,2.4,1.7,4.7,3.8,6.3
	c0.5-5.6,3-11,6.9-15.3c2.6,2.3,2.2,6,2.2,9.2s1.3,7.2,4.9,7.8c1.4-11.3,4.8-22.4,10.2-32.7c-0.4,4.4-0.8,8.9-1.2,13.3
	c2,0.9,3.3-2.3,5.5-2.7c2.7-0.4,3.2,3.2,3.4,5.6c0.2,3.5,2.3,6.8,5.5,8.8c4.2-4.1,8.4-8.2,12.5-12.3c1.8,2.1,3.6,4.3,5.4,6.4
	c5.1-2.7,10.2-5.5,15.3-8.2c1.5-0.8,3.3-2,3.1-3.6c-0.1-1.1-1.3-2-2.3-2.6c-6.5-3.9-14.8-5.4-22.5-4.1c3.5-7.1,10.1-12.6,14.2-19.5
	c3.2-5.3,5.2-14.8,0.2-20c-4.8-5-14.4-4.8-20.7-3C89.9,530.4,77.6,543.3,68.6,556.6z"/>
<path class="st25" d="M437.3,364.4c3.8-7.3,9-13.8,14.1-20.3c3.3-4.2,6.6-8.4,10-12.6c4.9-6.2,9.8-12.4,15.7-17.7
	c14.6-13.2,34.9-19.8,54.5-17.7c1.3,3.3,0.2,7.3-2.4,9.5c2.8-0.4,5.8,0.5,7.9,2.6c-0.6,2.8-1.7,5.5-3.2,7.9
	c6.9-1.3,14.2,4.3,14.8,11.2c-2.9-1.2-6.7,0.5-7.6,3.5c7.2,0.1,14.3,3.2,19.3,8.3c6.7,6.9,9.4,16.8,11,26.3c0.2,1.3,0.4,2.9-0.6,3.9
	c-0.8,0.8-2,0.9-3.1,1c-4.9,0.2-9.8-0.4-14.6-1.7c1.2,3.7,2.3,7.5,3.5,11.2c-2.7-0.8-5.3-2.1-7.7-3.6c0.5,9,0.9,18,1.4,27
	c-3.4-0.5-6.6-2.2-8.9-4.7c0.2,4.8,0.2,9.8-2.3,13.9c-2.5,4-8.7,6.1-12.1,2.9c2.7,3.1,2.9,8.2,0.4,11.5c-7.4-3.8-15.3-6.4-23.5-7.7
	c-1.3-0.2-2.6-0.4-3.8,0.1c-2.5,1.1-2.9,4.4-3,7.1c-0.2,16.6,0.8,33.2,3.2,49.6c-4.9,0-9.7-1.9-13.3-5.1c1,5.2,0.1,11.3-4.2,14.4
	c-4.3,3.1-12,0.3-11.7-5c-0.3,3.2-1.9,6.2-4.3,8.2c-16.2-12.3-24.9-33.7-21.7-53.8c0.7-4.4,1.9-8.7,2-13.1
	c0.5-14.5-10.2-27.9-8.5-42.3c0.8-6.2,3.8-12.7,1.2-18.4c3.6-0.1,7.2-0.2,10.7-0.3"/>
<path class="st25" d="M545.8,374.4c13.3-1.5,27.1,5,34.5,16.1c4.3,6.5,6.4,14.3,7.9,22c4.1,20.8,4.2,42.2,2.1,63.3
	c-1.2,12.2-3.1,24.6-0.4,36.6c2.6,11.1,9.1,21,12.6,31.9c3.8,11.9,3.7,25-0.1,36.9c-4.9-6.9-8.5-14.8-10.5-23
	c-0.1,2.6-0.2,5.3-0.3,7.9c-1.6-7.3-3.2-14.5-4.7-21.8c0.4,1.9,3-0.7,2.6-2.7c-4.3-19.2-31.8-23.6-40.4-41.4
	c2.8,0.6,5.8,0.2,8.3-1.1c-1-4.3-2-8.5-2.9-12.8c3-0.5,4.3,3.8,6.7,5.6c3.8,2.8,9.4-1.7,9.4-6.4s-3.2-8.7-6.3-12.2
	c6.5,0.4,11.6-6.4,11.9-12.9s-2.7-12.6-5.7-18.4c7.3-0.5,10-10.4,7.4-17.2s-8.2-12-11.1-18.7c-2.9-6.7-1.3-16.6,5.8-18.2
	c5,3.8,9.9,7.6,14.9,11.5L545.8,374.4z"/>
<path class="st25" d="M579.7,307.9c6.9,8.7,13,18.1,18.3,27.8c5-1.5,10.2,1.3,14.9,3.8c19.9,10.7,41.9,17.7,64.4,20.4
	c9,1.1,18.9,1.8,25.7,7.9c4.5,4.1,6.9,10,9.1,15.7c7.8,20,15.6,40,23.4,60c-11.8-6-24-12.5-31.4-23.4c-6.1-9-9.9-21.7-20.5-24.2
	c5.4,12.2,10,24.6,13.8,37.4c-8.4-7-16.7-14-25.1-21c-2.9,3.5-5.2,7.5-6.8,11.7c-4-6.2-7.6-12.8-10.7-19.5
	c-1.5,4.9-4.2,9.5-7.9,13.1c-6.5-6.4-13-12.7-19.5-19.1c-6.6-0.3-13-3.8-16.9-9.2c-1.9-2.7-3.5-5.9-6.4-7.2
	c-5.5-2.5-11.1,3.1-14.6,8c-7.4-8-45.3-18.2-55.9-15.4c-1.4-19.7,7.2-30.8-10.2-40.2c-3.7-12.2-6.5-24.7-8.5-37.3
	c11.4-0.5,22.7-0.8,34.2-0.6c5.7,0.1,12.3-1,17.7,0.9C570.2,298.7,577.9,307.9,579.7,307.9z"/>
<path class="st25" d="M815.6,462.6c4.4,12.5,13.9,22.4,21.7,33c7.8,10.7,14.5,23.6,12,36.6c-19.2-24.9-35.6-52-48.6-80.7
	c-4.4-9.7-9-20.2-18.3-25.3c2.6,40.1,40.4,70.8,44.4,110.8c-20.7-21.6-37.4-47-48.9-74.6c-7.4-17.7-12.8-36.4-23.4-52.4
	c-9.6-14.5-22.9-25-38.1-33.1c24.8-6.1,38.1,5.7,54.9,21.1c9.5,8.7,22.6,14.2,30.8,24C811.9,433.8,810.8,449.1,815.6,462.6z"/>
<path class="st17" d="M561.8,280c11,4.9,23.1,6.9,35.1,7.8c5.1-1.1,10.1-2.2,15.2-3.3c1.2-0.3,2.4-0.5,3.6-0.5
	c1.5,0,3.1,0.3,4.6,0.6c18.8,3.7,38.7,1.9,56.4-5.4c9.1-3.7,18.3-9.5,21.8-18.7c-7,2.4-13.9,4.9-21.1,6.7
	c-26.3,6.7-54.8,4.4-79.8-6.3c-2.6-1.1-5.1-2.3-7.9-2.7c-3.3-0.5-7,0.2-9.9-1.4c-3-1.6-4.4-5.1-5.6-8.4c-0.6-1.6-1.2-3.3-1.3-5
	c-0.2-4.3,2.7-8,4.7-11.9c4.1-7.8,4.6-16.9,5.6-25.6c0.2-1.7,0.5-3.6,1.6-4.9c0.8-1,2.1-1.6,3.2-2.1c16.2-7.3,12.2-25-7.5-22.4
	c-0.8,0.1-1.6,0.2-2.3,0c-1-0.3-1.7-1.3-2.4-2.1c-2.1-2.7-4.7-5.1-7.7-6.9c-1.6-1-3.4-1.9-5.3-1.7c-4,0.3-6.2,4.6-7.6,8.4
	c-6.5,17.4-12.3,35-17.3,52.8c-2.6,9.3-7.3,22.6-1.8,31.6C542.1,268,551.5,275.4,561.8,280z"/>
<path d="M529.9,257.3c7.8,0.4,15.6-2.9,21.6-7.9c6-5,10.3-11.6,13.5-18.5c8.8-18.5,11.9-36.7,6.2-56.1c-1.4-4.9-2.7-10.1-7.7-15.4
	c-2.5-2.7-5.8-6-11.5-8.2c-7.8-2.9-17.6-3.8-25.6-0.1c-2.4,1.1-3.4,4.9-5.5,6.3c-5.5,3.8-6.8,6.6-7.5,13c-1.6,14.4-2.1,29-3,43.4
	c-0.5,7.4-1.1,14.8-2.2,22.2c-0.6,4.6-3,10.9,1,14.5C513.7,254.8,523.9,257,529.9,257.3z"/>
<ellipse transform="matrix(0.2626 -0.9649 0.9649 0.2626 195.8141 658.9835)" class="st46" cx="529.1" cy="201.4" rx="55" ry="32.7"/>
<polygon class="st47" points="495.1,191.2 501.4,186.8 502.9,222.7 495.8,225.8 "/>
<path class="st48" d="M505.8,95c5.4-0.9,10.5-2.4,15.9-2c-1.1-0.1-2.3-0.9-3.4-1.2c-1.4-0.4-2.7-0.7-4.1-1c-2.7-0.5-5.5-0.7-8.3-0.6
	c-4.9,0.2-12.1,1.1-16,4.3c1.6,1.4,5.6,1.4,7.7,1.4C500.3,95.8,503.1,95.4,505.8,95z"/>
<path class="st41" d="M521.8,113.5c-3.1,3.8-4.7,6.9-3.3,11.6c0.9,3,3.6,5.2,6.5,6.2c3,1,7.7,1.1,10.8,0.9c10.7-0.8,19.8-4,29.2-9.2
	c4.1-2.2,8-4.8,12.3-6.5c8.9-3.4,19-2.8,27.6-6.8c4.2-2,8.3-4.2,5.8-10.7c-0.9-2.3-2.5-3.7-4.6-4.9c-5.5-3-10.9-6.1-16.4-9.1
	c-0.7-0.4-1.5-0.8-2.3-0.8c-1,0-1.9,0.6-2.8,1.2c-9.3,6.6-18.8,13-28.5,18.9c-4.9,3-10,6-15.5,7.9c-3.4,1.2-7,2-10.5,2.7
	c-2.6,0.6-5.2,1.1-7.8,1.7"/>
<path class="st49" d="M523.3,111.3c-2.4,2.5-4.7,6-3.3,9.1c0.7,1.5,2.1,2.5,3.7,3.2c4.1,1.8,8.8,1.4,13.2,0.9c6.6-0.7,13-2.6,19-5.6
	c5.1-2.6,9.6-5.5,14.1-9c8.1-6.3,17.1-11.4,26.9-14.6c-1.9-1.8-4.7-2.5-7.3-3c-12.2-2.2-24.8-1.9-36.8,0.8
	C540.9,95.8,531.7,102.5,523.3,111.3z"/>
<path class="st41" d="M513,91c6.5,0.9,14.2,4.3,20.6,5.6c15.8,3.2,29.9-2.1,45.9-2.2c11,0,20.2,2.1,31,3.6c-8-3-12.8-7.6-18.4-14
	c-2.5-2.8-4.4-8.1-6.3-11.3c-5.5-9.5-20.3-8.1-31.4-7.3c-9.7,0.7-12.2,10.3-13.9,11.7c-7.6,6-18,6.3-27.6,7.2
	c-7.6,0.7-22.7,0.5-23.1,10.1C497.8,95.1,504.5,89.8,513,91z"/>
<path class="st6" d="M664.2,164.2c6.7,15.8,3.1,25.6-1.8,29.8c-6.5,5.6-15.7,6.3-24.3,7.3c-15.2,1.8-29.7-1.8-32.9-3.8
	c2.1-0.6,4.1-1.8,5.6-3.4c0.6-0.6,1.1-1.3,1.8-1.7c0.9-0.5,1.9-0.6,2.8-0.8c3.9-0.8,8.1-13.9,6.6-15c5.8,0.2,14.1-1.6,14.2-3
	c0.7-6.3-9.6-18.9-13.1-24c-3-4.4,1.3-7.4,1.2-12.6c-0.1-4.7-3.9-25.2,3-21.9C633.4,118,659.2,152.2,664.2,164.2z"/>
<path d="M634.6,138.5l1.3,3.5c0,0-57,35.5-63.2,45.1l-10.4-7.4C562.3,179.7,626.7,138.5,634.6,138.5z"/>
<polygon class="st46" points="632.1,128.8 635.2,138.9 558.7,188.4 555.9,168.3 "/>
<path class="st17" d="M666.8,185.3c-4.6,2.1-9.7,2.9-14.7,3.6c-3.5,0.5-7.1,0.8-10.6,0.4c-2.4-0.3-13.7-0.2-16.3-0.3
	c-5.6-0.4-11.7,9.4-16.8,7.2c-1,0.7,5.6,6.5,4.4,6.9c3.2,2,9.5,2.5,24.8,0.7c8.6-1,18.2-4,24.7-9.6c2.2-1.9,4.1-4.9,4.9-9.1
	C667,185.1,666.9,185.2,666.8,185.3z"/>
<path class="st17" d="M618,171.9l15.7-1.8c0,0,12-12.2,28-10.8c0,0-2.3-5-8.3-13c0,0-15,4.1-25.8,15.8l-18.6,3.9L618,171.9z"/>
<path class="st24" d="M564.4,299c5.1,1.3,8.7,5.7,11.9,9.8c6,7.7,12,15.5,18,23.2c1.3-2.5,2.5-5,3.8-7.5c2.1,3.1,4.2,6.2,6.3,9.2
	c2.2-1.6,3.8-3.9,4.6-6.5c3.8,2.1,7.6,4.2,11.5,6.3c0.3-5.8,1.7-11.6,4.2-16.8c1.6,1.5,3.2,3,4.8,4.6c2.1-1.6,3.5-4,3.8-6.6
	c3.2,5,7.4,9.4,12.2,13c2.1-0.4,3.8-2.3,4-4.4c2.9,5.6,7.9,12.1,14,10.5c0.6-1.2,0.4-2.8-0.5-3.8c2.3,3,6,5,9.8,5.2
	c-0.9-3.2-2.5-6.2-4.7-8.7c1.4,0.5,3,0.7,4.5,0.5c-6.6-8.4-13.3-16.7-19.9-25.1c-2.5-3.2-5.1-6.4-8.2-8.9c-3.7-3-8.2-4.9-12.4-7.1
	c-10.3-5.4-13.7-1-24.4-5.5c-10.7-4.5-27.6-9.3-37.4-3c-5.8,3.7-11.4,6.4-14.5,12.5c-1.4,2.8-6.9,8.3,0.8,4.5
	C557.8,297.9,561.2,298.2,564.4,299z"/>
<path class="st24" d="M489.1,511.3c0.5,0.7,1.1,1.5,2,1.8c0.9,0.3,2,0,2.3-0.9c-1.1,5.6,2,11.1,4.9,16c1,1.7,2.1,3.4,3.1,5.1
	c2.2,3.7,4.7,7.6,8.5,9.6c0.4,0.2,0.9,0.4,1.3,0.2c0.4-0.2,0.6-0.6,0.8-1c1.3-1.7,3.9-0.2,6.1,0.1c2.7,0.5,5.5-1.5,6-4.2
	c-4.6-2.8-8.8-6.4-12.3-10.6c1.6,0.6,3.2,1.2,4.9,1.7c1.3,0.4,3,0.7,3.6-0.5c-3.3-5.8-7.8-10.9-13.1-14.9c0.6,1.8,1.7,3.3,3.3,4.3
	c2-1,2.8-3.6,2.4-5.8c-0.4-2.2-1.8-4.1-3.3-5.8c-5.9-7-13.8-12.4-22.4-15.5c-0.7,3.4,1.3,7.3-0.7,10.1c-1.2,1.7-2.4,2.5-2.8,4.5
	C486.3,506.7,487.4,508.9,489.1,511.3z"/>
<path class="st24" d="M591.7,485.9c-0.7,5.3-1.6,10.6-1,15.9c0.7,6.1,3.4,11.8,5.9,17.4c7.1,16.6,11.9,34.3,14.2,52.2
	c21-0.2,41.8-6.4,59.5-17.6c-3.5,0.7-7.1,0.6-10.6-0.2c5.2-7.8,9.3-16.3,12.1-25.2c-3.8,0.9-7.3,3.1-9.7,6.1
	c-0.1-3.8-0.2-7.6-0.2-11.4c-9.6,5.4-9,23.2-19.9,25c4-8.4,6-17.7,5.8-27c-3.6,9.3-8.6,18-14.8,25.8c2.8-12.9,4.7-25.9,5.8-39.1
	c-3.4,5.8-7.5,11.2-12.1,16c1-7.4,0.5-15-1.6-22.2c-3.9,5.7-9,10.4-15,13.7c6.4-11.9,9.8-25.5,9.7-39.1
	c-4.9,9.4-12.4,17.5-21.4,23.2c4.1-11.2,7.4-22.7,9.9-34.3c-1.7,0.2-3.4,0.4-5,0.7c-0.4-10.4-0.8-20.8-1.2-31.2
	c-0.2-6.1-0.9-14.7-7-17.8c-6.1,8.9-2.6,18.2-1.4,27.8C595.2,457.9,593.5,472.5,591.7,485.9z"/>
<path d="M560.6,51.9c16.3,6.8,26.8,8.6,30.4,9.2c7.4,1.1,16.4-0.4,23.6-0.4c-8.3-5.4-25.3-8.9-35-10.7c-6.3-1.1-21.9-3.1-28.3-2.5
	c-9.3,0.8-16.1,5-17.7,8C540.1,50.6,550.2,47.5,560.6,51.9z"/>
<path class="st50" d="M557.8,70.2c4.9,0.3,11.8,1.1,15.6,3.1c3.7,1.9,9.7,4.9,14.4,3.6c-0.2-0.3-1.8-4.2-1.9-4.5
	c-5.5-9.5-20.3-8.1-31.4-7.3c-5.1,0.4-8.3,3.3-10.3,6.1C544.2,71.6,547.6,69.6,557.8,70.2z"/>
<path class="st50" d="M550.6,129.3c0,0,5.3,9.8,30.5,5.6c0,0,8.3-9.5,7.1-21.7c0,0-7,2.3-10.8,4.2C569,121.8,558.6,128,550.6,129.3z
	"/>
<path class="st51" d="M308.8,320.8c-11.8,5.1-23.8,10.2-34,17.9s-18.9,18.4-21.6,31c-1.2,5.8-1.2,11.9-0.2,17.7
	c4.3,26.6,27.1,48,53.1,55.1s54.3,1.4,78.3-10.9c10.3-5.3,20-11.8,28.8-19.4c10.5-9,20-19.9,23.4-33.3s-0.8-29.4-12.7-36.4
	c-9.5-5.6-21.7-4.5-32-0.4c-10.3,4-19.3,10.6-29.1,15.8c-18.2,9.7-38.9,14.7-59.5,14.2"/>
<path class="st51" d="M312.7,424.7c-11.7,17.2-11.2,41.8,1.2,58.5c12.4,16.7,35.8,24.3,55.7,18c8.2-2.6,15.7-7.3,22.4-12.8
	c6.9-5.7,13.7-14,11.4-22.7c-1.5-5.9-7.1-10.1-12.9-11.8c-5.9-1.6-12.1-1.1-18.2-0.5c-14.2,1.6-28.4,4-42.3,7.2
	c-1.8-13.1-3.7-26.1-5.5-39.2c-4.6,0.8-9.1,2.5-13.2,4.9c4-1.1,8-2.3,12-3.4"/>
<g>
	<path class="st52" d="M395.2,482.6c-7.1,5.5-15.1,10.2-23.9,12.8c-21.2,6.3-46.2-1.3-59.4-18c-1.9-2.4-3.6-5-4.9-7.7
		c1.6,4.9,4,9.6,7.1,13.7c12.4,16.7,35.8,24.3,55.7,18c8.2-2.6,15.7-7.3,22.4-12.8c4.3-3.5,8.6-8.1,10.6-13.2
		C400.5,478.2,397.9,480.6,395.2,482.6z"/>
</g>
<path class="st51" d="M152.9,175.9c-3.4-2.5-17.4-14.5-47.2-11.2c-25.9,2.9-38.2,24.9-41.1,36.9c-2.9,12-1.9,24.6-0.8,36.9
	c3.3,37.3,35.2,64.5,46,71.2c21,13,41,20.3,64.8,26.9c8.1,2.2,16.3,3.7,24.6,5c61,9.5,123.2,10.1,184.5,2.8
	c9.8-1.2,19.9-2.6,28.6-7.3c8.7-4.7,16-13.2,16.4-23.1c0.4-9.6-5.8-18.7-13.9-23.9c-8.1-5.2-17.9-7.1-27.5-8.1
	c-55.7-5.6-122.7,20.3-177.4,8.5c-30.2-6.5-68.4-8.8-66.6-50.5c5.9,4.3,13.1,8.9,20,6.4c6.4-2.3,7.7-8,6.6-14.8
	c-1.1-6.9-3.9-14.3-7.2-20.2c7.6-3.4,12.2-10,9.4-18.1C168.9,184,160.1,181.3,152.9,175.9z"/>
<g>
	<path class="st52" d="M417.6,327.5c-9,4.7-19.3,6.1-29.5,7.3C325,342,260.8,341.4,198,332c-8.5-1.3-17-2.7-25.4-5
		c-24.5-6.6-45.2-13.9-66.8-26.9c-7.5-4.5-24.9-18.3-36.5-38.3c10.6,25.1,31.6,42.6,40.1,47.8c21,13,41,20.3,64.8,26.9
		c8.1,2.2,16.3,3.7,24.6,5c61,9.5,123.2,10.1,184.5,2.8c9.8-1.2,19.9-2.6,28.6-7.3c6.7-3.6,12.6-9.5,15.1-16.6
		C424.3,323.3,421.1,325.7,417.6,327.5z"/>
</g>
<path class="st51" d="M125.6,240.5c0,0,10.9,11.8,24.3,13.6c8.6,1.2,21.8-2.6,22.1-14l-6.3-8.1L125.6,240.5z"/>
<path class="st53" d="M162.5,211.5c0,0-31.4,6.1-50.7-2.1c0,0,18.2,39.7,50.2,38.1C162,247.5,184.7,248.1,162.5,211.5z"/>
<path class="st54" d="M131.7,236c13.7-9.2,31.7-8.7,48.8-4.9c6.8,1.5,13.6,3.2,20.5,4.2c5.6,0.8,11.2,0.8,16-0.8
	c1.6-0.5-12.4,0-20.1-3.7c6.6,0.1,15-0.1,20.9-3c-15.2,2.6-36.8-4.5-52.1-6.4s-27.5,0.4-41.4,7.1C124.4,228.5,128.4,233.4,131.7,236
	z"/>
<circle cx="120.9" cy="182.6" r="6.9"/>
<circle cx="141.6" cy="181.8" r="6.9"/>
<path class="st52" d="M101.7,236.4c0,0,21,11,42.3,16.2c0,0,1.8,16.9,20.2,25.8C164.3,278.4,115,279.5,101.7,236.4z"/>
<path class="st15" d="M230.8,345.5c0.1,18.2,9.1,27.8,17.3,32.1c11.2,5.9,21.3,9,33.8,10.3c20.9,2.2,55,1.5,75.5-3.2
	c42.8-9.8,56.5-16,89.5-55c21-24.8,32-59.9,34.4-72.6c2.7-14.9,7.2-36.7-0.7-49.6c-7.9-12.9-30.1-14.9-43.2-7.5
	c-5.4,3-10.6,6.1-15.6,9.6c-14,9.8-13.7,22.1-8.5,26.3c5.2,4.3,16.4,4.8,23.2,5c-3.3,34.8-15.5,53.5-15.5,53.5s10.5,18.4,2.2,32.3
	c-8,13.4-33.2,17.7-57.7,19.7c-20.8,1.7-40,2.4-43.4,2.6C292,350.9,280.9,350.3,230.8,345.5z"/>
<path class="st55" d="M437.3,203c-0.4,1.6-0.5,3.4,0.3,4.8c1.3,2.6,5,3.5,7.4,1.8c1.5-1.1,2.3-2.9,3-4.7"/>
<path class="st55" d="M452.8,205.2c-0.4,1.6-0.5,3.4,0.3,4.8c1.3,2.6,5,3.5,7.4,1.8c1.5-1.1,2.3-2.9,3-4.7"/>
<path class="st52" d="M295.1,408c3.3,0.8,6.7,1,10.1,1.1c8.1,0.4,17.1,0.5,23.4-4.7c5.3-4.3,7.5-11.4,8.2-18.2
	c-15.7-2.5-31.7-2.2-47.5-1.8c-4.4,0.1-10.8-1-14.9,0.6c-5.1,1.9-1.8,5.1,0.6,8.2C280.1,399.9,286.7,405.9,295.1,408z"/>
<g>
	<path class="st16" d="M359.2,377.9c-21.9,4.7-58.3,5.4-80.6,3.2c-13.4-1.3-24.2-4.5-36.1-10.3c-1.9-0.9-3.9-2.1-5.8-3.6
		c3.2,4.9,7.4,8.2,11.3,10.3c11.2,5.9,21.3,9,33.8,10.3c20.9,2.2,55,1.5,75.5-3.2c36.3-8.3,51.6-14,75.5-39.3
		C411.1,365,394.3,370.4,359.2,377.9z"/>
</g>
<path class="st15" d="M359.2,436.6c-51.4,5.5-74.8-5-82.4-9.7c0.3,7.2,3.2,12,8,17.6c6.8,7.9,31.7,27.4,82.5,16.8
	c18.4-3.8,39.5-14.2,52.2-28.1c13-14.4,21.5-36.7,17.1-51.6C414,428.2,359.2,436.6,359.2,436.6z"/>
<g>
	<path class="st16" d="M421.5,429.3c-13,13.9-34.8,24.3-53.8,28.1c-52.4,10.5-78.2-8.9-85.2-16.8c-0.7-0.8-1.4-1.6-2-2.4
		c1.2,2.1,2.8,4.1,4.6,6.3c6.8,7.9,31.7,27.4,82.5,16.8c18.4-3.8,39.5-14.2,52.2-28.1c4.6-5,8.6-11.1,11.7-17.4
		C428.6,420.7,425.2,425.3,421.5,429.3z"/>
</g>
<g>
	<path class="st52" d="M430.8,392.4c-20.7,21-29.8,25.2-41,30.5c-26.1,12.3-56.8,18-85.1,10.9c-19.4-4.9-37.2-16.5-48-32
		c8.7,19.8,27.7,35,48.8,40.8c26,7.1,59.5,2,84.1-9.1C421.4,419.1,431.6,391.6,430.8,392.4z"/>
</g>
<path class="st15" d="M345.1,577.6c3.1,16.3,9.5,31.7,15.3,39c9.6,12.1,20.7,19.2,30.2,13.2c0.4-0.2,4.4-3.3,3.7-8.8
	c-1.1-8.5-7.6-21.5-8.8-28c-3.3-16.9-4.4-56.8-29.4-66.6c-32-12.5-42.7,14.9-44.4,21.3C338,544.9,343.9,571.5,345.1,577.6z"/>
<path class="st16" d="M367.5,614.2c-5.9-11.9-9.6-24.8-12.1-37.8c-1.1-5.8-2.1-11.8-5-16.9c-6.7-11.9-21.5-15.3-34.1-13.5
	c-2.9,0.4-5,0.4-6.6-0.1c-0.2,0.5-0.3,1-0.4,1.4c26.5-2.8,32.4,23.7,33.6,29.8c3.1,16.3,9.5,31.7,15.3,39
	c6.7,8.5,14.1,14.5,21.2,15.3C374.4,626.4,370.6,620.5,367.5,614.2z"/>
<path d="M707.8,348.2c1.1-0.1,2.2,0.1,3.2,0.2c2,0.3,4.1,0.8,5.9,1.8c2.2,1.2,4,3.1,5.1,5.3c0.9,1.9,1.3,4.2,0.7,6.2
	c-0.6,2.1-2.3,3.8-4.4,4.2c-2.1,0.4-4.5-1-4.9-3.1c-0.8,0.4-3.4,1-5.4,0c-2.2-1.1-3.1-3.3-3.1-3.3s-2.2,1.3-4.8-1.2
	c-1.6-1.6-0.6-4.5,0.5-6C702.5,350,704.9,348.4,707.8,348.2z"/>
<path d="M766,389.9c1.1-0.1,2.2,0.1,3.2,0.2c2,0.3,4.1,0.8,5.9,1.8c2.2,1.2,4,3.1,5.1,5.3c0.9,1.9,1.3,4.2,0.7,6.2
	c-0.6,2.1-2.3,3.8-4.4,4.2c-2.1,0.4-4.5-1-4.9-3.1c-0.8,0.4-3.4,1-5.4,0c-2.2-1.1-3.1-3.3-3.1-3.3s-2.2,1.3-4.8-1.2
	c-1.6-1.6-0.6-4.5,0.5-6C760.7,391.7,763.1,390,766,389.9z"/>
<path class="st11" d="M132.7,440.4c1.6-1.2,2.1-3.4,1.6-5.4s-3.8-6.9-8.9-8.2c-14.7-3.8-13.4,13.5-13.4,13.5l7.7-4
	C119.7,436.3,129.4,442.9,132.7,440.4z"/>
<path class="st11" d="M213.2,427.9c0.2,1.4-1.4,2.6-2.7,3.1c-3.4,1.1-8.3-2.3-11.6-5.6c-1.5-1.5-3.7-3.7-3.7-3.7s4.2-5.4,9.4-4.1
	C208.1,418.5,212.3,421.1,213.2,427.9z"/>
<path class="st56" d="M482.3,477.8c1.8-5.4,2.3-11.3,1.5-17c2.9,2,5.7,4,8.6,6c0.8-1.2,2.3-2,3.8-1.9c-0.4-15.6-0.7-31.1-1.1-46.7
	c3.3,1.3,6.5,2.7,9.8,4c4.3-2.7,7-7.9,6.6-12.9c2.4,2.1,5,4.3,8.1,4.7c3.2,0.4,6.8-2,6.5-5.2c1.5,4.1,7.4,5.9,11,3.3
	c3.6-2.7,3.9-7.9,3.8-12.4c-0.1-5.4-0.3-11.3-3.8-15.4c2.5,3.1,6.3,5.1,10.2,5.3c0.6-6.8-1-13.8-4.6-19.5c3.8,1,7.6,1.9,11.3,2.9
	c1.4-4.7,0.9-9.9-1.4-14.2c5.2,4.2,11.8,6.7,18.5,6.8c-0.7-6.8-5-13.1-11.1-16.3c-2.4-1.2-5.2-2-7.8-1.3c-2.6,0.7-4.9,3.2-4.5,5.9
	c-2.4-3.6-6.8-7.7-10.4-5.2c-3.2,2.3-1.7,7.2,0.1,10.6c-0.5-3.1-5.5-3-7.2-0.4c-1.7,2.6-1.1,6-0.4,9.1c0.7,3.1,1.4,6.2,2.1,9.3
	c-0.8-2.9-4.2-4.7-7.1-3.8c-0.3,7.5,0.6,15.1,2.8,22.3c-2.7-5-7.1-8.7-11.8-11.9c-1.9-1.3-4.2-2.5-6.3-1.8c-2.2,0.7-2.8,4.5-0.6,5.1
	c-3.3-3.9-8.2-6.5-13.3-7.1c-2.1-0.3-4.5-0.1-5.9,1.5c-1.5,1.7-1.3,4.3-0.9,6.6c0.7,4.7,1.4,9.4,2.1,14c0.2-3.6-5.7-4.6-8-1.8
	c-2.3,2.8-2,6.8-1.5,10.4c1.1,8.6,2.2,17.2,3.4,25.8c1-3.4-4.6-5.7-7.3-3.4c-2.7,2.3-2.9,6.5-2.2,9.9c0.7,3.5,2,7,1.3,10.5
	c1.3-6.4-14.6-5.3-9.3,5.3c-2.5-5.4-9.7-2.8-10.1,2.3c-0.4,4.8,8,12.9,10.9,15.8c2.1-2.9,2.5-6.7,1.9-10.3
	C473.1,471.5,477.2,475.4,482.3,477.8z"/>
<path class="st57" d="M187.5,398.7c-1.9-0.6-3.8-1.4-5.8-1.5c-1.2-0.1-2.4,0.2-3.6,0.4c-2.8,0.4-5.6,0.8-8.4,0.5
	c-0.8-0.1-1.7-0.2-2.6-0.4c0.4,1,1.1,1.9,2.1,2.3c1.2,0.6,2.9,1.3,4.2,1.2c1.8-0.1,3.5-0.7,5.2-1.1c0.7-0.2,2.2-0.1,3.1,0.3
	c1.3,0.6,2.8,0.3,4.2-0.1c0.5-0.1,1.4-0.6,2.1-1.5C187.9,398.8,187.7,398.7,187.5,398.7z"/>
<path class="st58" d="M166.9,541.3c-3.9-12.1-9.3-21-7.6-33.6c1-7.6,6.5-11.4,10.7-11.8c5.5-0.5,10.4,4.8,10.4,10.2
	c0,5.5-4,10.4-9.1,12.6s-14.4,2.7-19.7,1.3"/>
<path class="st58" d="M172.7,524.6c-0.6,3.8,0.3,13.2,5,11.5c4.7-1.3,5.2-6.5,5.1-11.4c0,3.5,2.3,9,6.7,7.9
	c8.3-2.2,10.8-15.2,11.4-24.7c0.3-5.5-0.1-9.5-0.2-10c-0.6-2.3-1.7-2.7-2.7-2.7c-1.4,0-3,1.3-3.4,4.7c-0.6,5-0.6,20.9,4.4,29.6
	c0.6,1.1,1.7,2.4,2.9,2.2c1.4-0.2,2.1-1.7,2.5-3c0.8-2.5,1.6-5,2.4-7.5c0,3.2,1.5,7.6,3,8.3c3.9,1.9,6.1-3.9,5.9-10
	c0.5,3.2,3.1,9.7,4.9,8.4c1.2-3.9,1.9-8.1,2-12.2c1.1,3.6,2,7.2,2.8,10.9c0.1-3.2,0.5-6.3,1.3-9.4c1.2,1.3,2.3,2.7,3.3,4.2
	c0.6-2.2,1.6-4.2,3-5.9c1,1.4,1.3,3.2,1.9,4.8c0.9,2.3,2.5,4.2,4.4,5.8"/>
<path class="st58" d="M240.3,513.3c0.2,2.3,0.5,6.3,1.3,9.8"/>
<circle cx="239.3" cy="506.4" r="1.8"/>
<path class="st59" d="M644.6,159.7c3.4,2.6,8.6,3.8,9.7,8c-13.2,1.5-26.5,3-39.7,4.5c4.6,1.9,9.2,3.7,13.8,5.6
	c0.4-1.4,2.3-1.8,3.7-1.4c1.4,0.4,2.8,1.2,4.2,1.1c1.2-0.1,2.3-0.8,3.5-1.3c6.8-3.2,15.2,0.9,22.3-1.5c0.7-0.2,1.4-0.6,2-1.1
	c0.6-0.6,0.9-1.3,1.2-2.1c0.6-1.5,1.2-3,1.8-4.6c1.2,0,2.5-0.1,3.7-0.1c5.9,7.3,6.8,17.4,10.2,26.2c2,5.2,5,10.1,6,15.5
	c0.6,3.3,0.4,6.7,0.2,10.1c0,0.8-0.1,1.6-0.3,2.3c-0.4,1.1-1.1,2-1.9,2.9c-3,3.3-6.4,6.1-10.3,8.3c-6.3,3.6-13.4,5.4-20.5,6.9
	c-8.7,1.9-17.5,3.5-26.3,5.1c-4.8,0.9-9.6,1.7-14.4,1.3c-9-0.8-16.9-5.8-25.1-9.6c-4.3-2-8.8-3.7-12.3-6.9c-3-2.8-4.9-6.6-6.5-10.3
	c-6.6-15.1-9.6-32.8-3.3-48c2.1-5,5-9.5,8-13.9c2.6-3.8,5.2-7.7,8.6-10.8c8.8-8.2,24.9-12.4,36.7-9.8c3.5,0.8,4.6,3.6,7.6,5.5
	c2,1.3,4.3,1.7,6.3,3C638.7,148.1,639.4,155.7,644.6,159.7z"/>
<path class="st7" d="M624.6,174.3c0.1-0.5,0.7-0.6,1.2-0.7c7.9-0.7,16,0,23.7-1.9c1.6-0.4,3.3-0.5,4.3-1.7c1.1-1.2,1.7-2.7,2.6-4.1
	c0.3-0.4,0.6-0.9,1.1-1.1c0.5-0.2,1.1,0,1.6,0.2c4.6,1.8,7.7,7,7.1,11.9c-1.6-0.5-3.2-0.7-4.8-0.8c0.4,1.3-0.8,2.6-2,2.9
	s-2.6,0.1-3.9-0.1c-1.3-0.2-2.7-0.2-3.8,0.6c-0.4,0.3-0.8,0.7-1.3,1c-0.4,0.2-0.9,0.2-1.4,0.2c-3-0.1-6.1-1.3-9-0.4
	c-1,0.3-2,0.9-3.1,1.2c-1.9,0.4-3.9-0.5-5.7,0.1c-1.3,0.4-2.4,1.6-3.8,1.8c-0.4,0.1-0.8,0.1-1.1-0.1c-0.2-0.2-0.4-0.4-0.5-0.6
	c-0.7-1.2-1.5-2.5-2.2-3.7C623,177.7,623.5,175.3,624.6,174.3z"/>
<ellipse transform="matrix(0.2616 -0.9652 0.9652 0.2616 194.8885 656.5512)" class="st60" cx="526.5" cy="200.9" rx="52.9" ry="31.5"/>
<path class="st61" d="M523.6,182c1.9,0.8,3.8,1.9,5,3.5c1.2,1.7,1.5,4.2,0.2,5.8c-2.1,2.6-7.3,2-8.4,5.2c-0.8,2.4,1.4,4.9,1,7.3
	c-0.4,2.5-2,4.6-3.5,6.7c-2.5,3.2-1.3,3.2-0.8,4.1c1,1.9,7,3.2,5.8,9.1c-1.9,9.6-26.3,11.1-26.3,11.1s-5.6-14.2-3.8-25.3
	c0.9-5.3-6-19.2-1.8-22.6c4.2-3.4,9.3-5.6,14.5-6.6C511.5,179,517.9,179.6,523.6,182z"/>
<ellipse transform="matrix(0.8169 -0.5768 0.5768 0.8169 55.9325 400.3575)" class="st62" cx="658.5" cy="112.1" rx="3.2" ry="2.7"/>
<ellipse transform="matrix(0.7775 -0.6288 0.6288 0.7775 69.7765 430.0096)" class="st62" cx="642.6" cy="116.4" rx="3.2" ry="2.7"/>
<line class="st63" x1="505.7" y1="198.8" x2="633.7" y2="129.5"/>
<line class="st63" x1="506.5" y1="202.1" x2="632.2" y2="133.4"/>
<line class="st63" x1="505.8" y1="208.2" x2="633.7" y2="135.3"/>
<line class="st63" x1="508.4" y1="212.4" x2="634.5" y2="137.8"/>
<path class="st46" d="M632.8,133.9c0,0,5.1-7.6,6.9-12.1c0,0,12.9-4,26.8-18l2.5,4.4c0,0,1.9,2.6,4.1,4.8l-2.1,4.8l1.4,0.4l2,2.7
	c0,0-3.1,5.2,1.2,11.6c0,0-22.8,4.4-29.5,11.4c0,0-4.6-2.7-10.7-1.4L632.8,133.9z"/>
<path d="M629.5,130.1c0,0,6.4-6.7,8.1-11.2c0,0,14.9-1.2,28.7-15.3c0,0,1.2,4.6,4.5,8.1l-1.6,3.8l3,2.5c0,0-5.1,5.3-0.8,11.7
	c0,0-20,3.2-26.8,10.2c0,0-4-2.4-10.1-1L629.5,130.1z"/>
<ellipse transform="matrix(0.7775 -0.6288 0.6288 0.7775 66.3187 432.0586)" class="st62" cx="643.8" cy="122.3" rx="2.5" ry="2.7"/>
<ellipse transform="matrix(0.7775 -0.6288 0.6288 0.7775 60.7726 436.4608)" class="st62" cx="647.3" cy="132.3" rx="2.5" ry="2.7"/>
<ellipse transform="matrix(0.8169 -0.5768 0.5768 0.8169 52.373 402.5556)" class="st62" cx="660.1" cy="118.8" rx="2.5" ry="2.7"/>
<ellipse transform="matrix(0.8169 -0.5768 0.5768 0.8169 46.9749 406.0395)" class="st62" cx="662.9" cy="129" rx="2.5" ry="2.7"/>
<ellipse transform="matrix(0.7775 -0.6288 0.6288 0.7775 56.1339 440.581)" class="st62" cx="650.8" cy="141" rx="3.2" ry="2.7"/>
<ellipse transform="matrix(0.8169 -0.5768 0.5768 0.8169 42.51 409.6292)" class="st62" cx="666.3" cy="137.9" rx="3.2" ry="2.7"/>
<path class="st18" d="M521.6,179.1c1.9,0.8,3.8,1.9,5,3.5c1.2,1.7,1.5,4.2,0.2,5.8c-2.1,2.6-7.3,2-8.4,5.2c-0.8,2.4,1.4,4.9,1,7.3
	c-0.4,2.5-3.5,4.1-3.5,6.7c0,0.9,0.4,1.8,0.9,2.7c1,1.9,2.2,3.7,2.8,5.8c0.5,2.1,2.8,10.8-25.2,15.7c-0.7,0.1-1.5,0-2.2-0.3
	c-0.9-0.4-1.5-1.1-2-1.9c-6.6-9.1-9.3-21-7.5-32.1c0.9-5.3,2.1-10.2,6.4-13.6c4.2-3.4,9.3-5.6,14.5-6.6
	C509.5,176.2,515.9,176.7,521.6,179.1z"/>
<g>
	<path class="st19" d="M483.6,202.8c0.9-5.3,2.1-10.2,6.4-13.6c4.2-3.4,9.3-5.6,14.5-6.6c6-1.1,12.4-0.6,18.1,1.8
		c1.7,0.7,3.4,1.6,4.5,3c0.7-1.5,0.3-3.5-0.7-5c-1.2-1.7-3.1-2.7-5-3.5c-5.7-2.4-12.1-2.9-18.1-1.8c-5.3,1-10.4,3.2-14.5,6.6
		c-4.3,3.5-5.6,8.3-6.4,13.6c-1,6-0.6,12.2,0.9,18.1C482.8,211.2,482.9,206.9,483.6,202.8z"/>
</g>
<path class="st18" d="M568.5,175.6c8.6,14.9,25,25.6,43,28c1.9,0.3,9.2-0.5,15.4-6.9c2.7-2.8,8.8-9.2-0.6-20.5
	c-2.2-2.6-5.1-4.5-6.6-7.5s-2.6-6.2-4.2-9.1c-1.7-2.9-4.1-5.6-7.4-6.7s-7.6-0.3-9.5,2.5c-0.3,0.4-0.5,0.9-1,1.2
	c-0.4,0.2-0.9,0.2-1.3,0.2c-1.8-0.1-3.5-0.7-5.3-0.8c-1.8-0.1-3.8,0.3-4.9,1.7c-1,1.3-1,3-2,4.3c-1.3,1.7-3.8,1.9-6,1.7
	c-2.1-0.3-4.3-0.9-6.4-0.5C564.4,164.6,566,171.4,568.5,175.6z"/>
<path class="st20" d="M615.9,180.4c-1.4-1.2-3.6-2.6-5-1.3c-0.4,0.4-0.6,0.9-1,1.3c-1.3,1.2-3.3,0.2-5-0.1c-2.7-0.4-5.6,1.5-6,4.1
	c-3.8-1.1-8.7-1.9-11.4,0.9c-0.7,0.7-1.2,1.7-2,2.3c-1.1,0.9-2.6,1.1-4,1.3c-0.6,0.1-1.3,0.1-1.9,0.1c8.7,7.7,19.9,12.9,31.9,14.4
	c1.9,0.3,9.2-0.5,15.4-6.9c1.7-1.7,4.6-4.8,4.4-9.5C625.2,188.1,621.2,185.2,615.9,180.4z"/>
<path class="st19" d="M568.4,175.1c-0.1-0.6-0.2-1.3-0.2-1.9c0-1.8,0.7-3.7,2.1-4.9c1.5-1.3,3.6-1.8,5.7-1.6c2,0.2,3.9,0.8,5.8,1.6
	c0.8,0.3,1.5,0.6,2.4,0.7c0.8,0.1,1.7-0.1,2.3-0.6c0.6-0.5,0.8-1.3,1-2.1c0.3-1.2,0.5-2.4,0.8-3.6c0.2-0.9,0.4-1.8,1-2.4
	c0.8-0.9,2.3-1.1,3.5-0.9c1.2,0.2,2.3,0.8,3.5,1.2c1.1,0.5,2.4,0.8,3.6,0.6c0.3-0.1,0.6-0.2,0.9-0.3c0.7-0.4,1.1-1,1.5-1.7
	c0.5-0.9,1-1.8,1.8-2.5s1.8-1.3,2.9-1.1c3.6,0.5,6.6,2.2,9,4.8c0.2,0.2,0.4,0.4,0.6,0.6c-0.3-0.7-0.7-1.3-1-2
	c-1.7-2.9-4.1-5.6-7.4-6.7c-3.3-1.1-7.6-0.3-9.5,2.5c-0.3,0.4-0.5,0.9-1,1.2c-0.4,0.2-0.9,0.2-1.3,0.2c-1.8-0.1-3.5-0.7-5.3-0.8
	c-1.8-0.1-3.8,0.3-4.9,1.7c-1,1.3-1,3-2,4.3c-1.3,1.7-3.8,1.9-6,1.7c-2.1-0.3-4.3-0.9-6.4-0.5C564.3,164,565.9,170.8,568.4,175.1
	C568.4,175.1,568.4,175.1,568.4,175.1z"/>
<path class="st20" d="M523.1,185.9c-1.5,0.7-3.2,1.1-4.6,1.9c-1.5,0.8-2.8,2.2-2.7,3.9c0.1,1.2,0.8,2.2,1.1,3.3
	c1,4-3.8,7.8-2.7,11.8c0.5,1.6,1.8,2.7,2.6,4.1c1.3,2.1,1.4,5,0,7c-1.7,2.5-4.9,3.2-7.7,4.4c-2,0.9-3.8,2-5.7,3.1
	c-1.3,0.7-2.6,1.4-4,1.9c-1.6,0.6-3.4,0.8-5.1,1.1c-1.1,0.2-2.8,0.7-4.4,1c0,0,0,0,0,0c0.6,0.8,1.2,1.5,2,1.9
	c0.7,0.3,1.5,0.4,2.2,0.3c28-4.9,25.7-13.6,25.2-15.7c-0.5-2.1-1.7-3.9-2.8-5.8c-0.5-0.8-0.9-1.7-0.9-2.7c0-2.6,3.1-4.1,3.5-6.7
	c0.4-2.5-1.8-5-1-7.3c1.1-3.2,6.3-2.5,8.4-5.2c1.2-1.5,1-3.8,0.1-5.4C525.8,184.1,524.5,185.2,523.1,185.9z"/>
<path class="st59" d="M898,430.5c0-0.1,0-0.2,0-0.3"/>
<polygon points="761.7,519.2 770.5,537.9 781.8,523.4 774.1,517.6 "/>
<path d="M648.9,418c-3,8.7-2.9,17.6-2.4,28.9c0.4,10.1-1.3,17.7-3.5,27.6c-4.4,20.4-14.1,39.4-18.4,59.8
	c-4.2,20.4-1.7,44.4,14.3,57.9c13.8,11.6,33.5,12.3,51.5,11.1c22.2-1.6,44.2-5.3,65.7-11.1c2.8-0.8,5.7-1.6,7.9-3.4
	c3.9-3.1,5.1-8.4,5.9-13.3c2.3-14.2,3.4-28.7,1-42.9c-2.4-14.2-8.3-28-18.4-38.2c-11-11.1-20.8-17.9-28.2-31.6
	c-10.1-18.6,5-46.5-19.3-62.9C690.3,389.8,657.2,393.8,648.9,418z"/>
<path class="st1" d="M662.8,522.6c-1.1,26.9,9.4,55.1,30.8,71.5c1.5,1.1,3,2.2,4.5,3.1c10,5.8,22.9,5.8,33.4,0.9
	c10.5-4.9,18.5-14.4,22.6-25.3s4.5-22.9,2.2-34.2c-0.5-2.7-1.3-5.4-2.5-7.8c-1.1-2.2-2.5-4.1-4-6c-15-20.4-28.6-41.9-40.5-64.3
	c-4.9,2.9-10.6,3.9-16.3,4.4c-3.6,0.3-14.3-0.7-16.6,2.4c-0.5,0.7,0,1.7-0.2,2.5c-0.4,1.6-1.3,3.1-1.9,4.6c-1.2,3-2.4,5.9-3.4,8.9
	c-2.1,6-3.9,12.1-5.3,18.4C664,508.6,663.1,515.6,662.8,522.6z"/>
<ellipse transform="matrix(0.9891 -0.1474 0.1474 0.9891 -55.7515 104.5139)" class="st1" cx="677.4" cy="428.5" rx="13.1" ry="18.9"/>
<ellipse transform="matrix(0.9891 -0.1474 0.1474 0.9891 -54.69 104.3586)" cx="676.9" cy="421.3" rx="7.7" ry="9.4"/>
<path class="st1" d="M717.7,425c0.8,9.7-3.2,17.5-9.7,18.4s-9.2-5.3-10-15s2.2-18.7,8.7-19.6C713.2,407.9,716.9,415.3,717.7,425z"/>
<ellipse transform="matrix(0.9983 -5.819783e-02 5.819783e-02 0.9983 -23.1795 41.8671)" cx="707.2" cy="418.9" rx="6.5" ry="9.4"/>
<path class="st15" d="M673.9,468.3c7,3.8,13.7,9.8,24.2,10.1c7.8,0.2,15-3.6,19.1-7.5c3.3-3.1,12.2-12.6,11.9-21.2
	c-0.2-5.2-6-6.3-12.7-9.3c-7.6-3.3-16.3-8.1-19.6-7.6c-4.7,0.8-7.7,4.5-12.5,7.7c-3.3,2.2-8.3,3.5-12.1,6.2
	C661.5,454.1,665.4,463.7,673.9,468.3z"/>
<path class="st16" d="M718.2,467.6c-4.4,3.9-12,7.7-20.3,7.5c-11.3-0.3-18.4-6.3-25.8-10.1c-2.1-1.1-3.9-2.4-5.3-3.9
	c1.3,2.8,3.9,5.4,7.2,7.1c7,3.8,13.7,9.8,24.2,10.1c7.8,0.2,15-3.6,19.1-7.5c2.4-2.3,7.9-8.1,10.5-14.5
	C724.7,461.4,720.3,465.7,718.2,467.6z"/>
<path class="st64" d="M726.7,450.8c-25.5,9-55.2,5.6-55.2,5.6s14.1,10.3,30.5,8.9c0,0,4.1,0.1,9.4-1.7
	C717.9,461.3,726,456.5,726.7,450.8z"/>
<path class="st15" d="M784.9,581.1c4.2-8.2,8.4-16.4,12.5-24.6c1-2.1,2.1-4.2,2.4-6.4c0.4-2.6-0.2-5.2-1.7-7.4
	c-0.7-1-1.5-1.9-1.8-3.1c-0.4-1.4,0.1-2.9,0.3-4.3c0.4-1.9,0.5-3.8,0.3-5.6c-0.2-2.1-0.8-4.3-2.4-5.6c-1.6-1.3-4.5-1.2-5.5,0.6
	c-2.9-4.9-10.5-4.8-14.8-1.2c-4.3,3.6-6,9.5-7.1,15c-1.1,6.1-1.7,12.3-3.3,18.2c-2.6,9.2-7.8,17.8-8.3,27.4c-0.1,1.8,0,3.7,0.7,5.5
	c1.6,4.1,6.3,5.9,10.7,6.2C776.9,596.5,783.1,584.5,784.9,581.1z"/>
<path class="st16" d="M798.2,542.5c-0.7-1-1.5-1.9-1.8-3.1c-0.4-1.4,0.1-2.9,0.3-4.3c0.4-1.9,0.5-3.8,0.3-5.6
	c-0.2-2.1-0.8-4.3-2.4-5.6c-1.6-1.3-4.5-1.2-5.5,0.6c0,0,0-0.1-0.1-0.1c-1.3,2.1-3.2,3.3-5.6,4.7c-3.2,1.8-4.2,5.8-4.9,9.2
	c-2.4,11.6-3.8,23.6-8.7,34.4c-1.6,3.5-3.6,6.9-4.8,10.6c-1.2,3.8-1.6,7.9-1,11.9c0.9,0.2,1.8,0.3,2.7,0.4c10,0.8,16.3-11.2,18-14.7
	c4.2-8.2,8.4-16.4,12.5-24.6c1-2.1,2.1-4.2,2.4-6.4C800.2,547.3,799.6,544.6,798.2,542.5z"/>
<path d="M776.7,523.5c2.2,5,4.3,10,6.5,15c1.1,2.6,2.5,5.5,5.1,6.7c0.4,0.2,0.9,0.4,1.4,0.3c0.8-0.2,1.3-1,1.6-1.7
	c2.5-5.3,4.8-10.7,6.7-16.2c1.1-3.2,2.1-7,0.3-9.8c-0.8-1.2-1.9-2-3.1-2.8c-8.1-4.9-19-4.8-27,0.2c-1.5,1-3.1,2.3-3.3,4.1"/>
<path class="st65" d="M756.8,562.5c-3.1,1.1-6.1,3.7-9.3,2.9c-1.1-0.3-2.2-0.9-3.3-0.9c-2.7,0.1-3.9,3.7-6.5,4.6
	c-2.7,1-5.7-1.4-8.5-0.7c-2.2,0.5-3.7,2.9-5.8,3.6c-4.1,1.4-8.7-3.2-12.6-1.4c-4.7,2.2-4.9,0.8-9.2-1.3c-2.1-1-2.9-1-4.9,0.1
	c-2,1.1-3.2,3.1-5.4,4c-3.3,1.4-7.3,0.9-10.7,0.5c-2-0.2-4-0.4-6-0.7c4.9,8.4,11.2,15.9,19,21.8c1.5,1.1,3,2.2,4.5,3.1
	c10,5.8,22.9,5.8,33.4,0.9c10.5-4.9,18.5-14.4,22.6-25.3C755.3,570.2,756.2,566.4,756.8,562.5C756.8,562.5,756.8,562.5,756.8,562.5z
	"/>
<path class="st15" d="M715.1,597.1c-0.4-4.6-2.7-8.7-5-12.7c-7.2-12.9-14.5-25.8-23.8-37.3c-2.9-3.6-6.1-7.2-10.4-8.9
	c-4.3-1.8-9.8-1.2-12.7,2.4c-1.9,2.5-2.3,5.9-4.1,8.5c-2.3,3.3-6.3,4.7-10.2,5.5c-3.9,0.8-8,1.2-11.4,3.2c-4,2.4-6.5,6.9-6.5,11.5
	c0,4.3,2.1,8.3,2.7,12.6c1.2,8.4-3.1,17.9,1.5,25.1c3.5,5.3,10.5,6.8,16.9,7.4c13.1,1.3,26.3,1,39.3-0.9
	C701.3,612,716.5,610.9,715.1,597.1z"/>
<g>
	<path class="st16" d="M715,597.1c-0.1-0.5-0.1-1.1-0.2-1.6c0.1,12.3-14.2,13.4-23.7,14.8c-13,1.9-26.2,2.3-39.3,0.9
		c-6.3-0.6-13.4-2.1-16.9-7.4c-1-1.5-1.6-3.1-1.9-4.8c0.1,2.8,0.6,5.5,2.2,8c3.5,5.3,10.5,6.8,16.9,7.4c13.1,1.3,26.3,1,39.3-0.9
		C701.3,612,716.4,610.8,715,597.1z"/>
</g>
<circle class="st1" cx="674" cy="416.3" r="1.3"/>
<circle class="st1" cx="705.3" cy="414" r="1.3"/>
<path d="M628.3,498.7c-5.8-4.6-11.5-9.1-17.3-13.7c-2-1.5-4-3.1-6.3-4c-2.9-1.1-6-1-9.1-0.8c-12.6,0.9-25,4.1-36.4,9.4
	c-1.8,0.8-3.9,2.3-3.5,4.3c0.4,1.7,2.4,2.4,4.1,2.7c9.6,2,19.1,4,28.7,5.9c2.4,0.5,4.8,1,6.9,2.1c2.4,1.3,4.2,3.3,6.1,5.3
	c4.9,5.3,10.1,10.6,16.4,14.2c6.3,3.6,14.1,5.2,21,2.9c5.3-1.8,14.7-10,10.6-16.3c-1.6-2.4-7.6-3.3-10.2-4.6
	C635.3,504.2,631.8,501.4,628.3,498.7z"/>
<ellipse class="st66" cx="834.3" cy="704.8" rx="135.3" ry="18.9"/>
<path class="st67" d="M702.7,676c0,0,13.8-9.4,66.8-12.2l-13.1,13.4l-13.6,5.3C742.8,682.5,712.4,686.4,702.7,676z"/>
<path class="st68" d="M871.1,519.4c-0.9-0.8-1.9-1.5-3.1-1.5c-2.4,0-3.7,2.7-4.4,4.9c-2,6.3-4,12.7-4.3,19.3
	c-0.3,6.6,1.3,13.6,5.8,18.5c3.1,3.4,7.7,6,8.6,10.5c0.5,2.4-0.2,4.9-1.3,7.1c-5.6,11.7-20,16-32.9,17.6
	c-45.8,5.9-92.1-5.7-138.2-4.6c-3.5,0.1-7.3,0.4-9.9,2.8c-2.7,2.5-3.2,6.5-3.4,10.2c-0.8,12.3-1.1,24.6-0.8,37
	c0.1,3.2,0.2,6.5,1.6,9.4c2.8,5.8,9.8,8.2,16.2,9.3c21.3,3.9,43.9,0.6,63.3-9.1c-5.6,16-18.5,21.2-30.1,24.5
	c-11.6,3.3-26,3.2-35.5,0.7c7.6,12.6,20.9,18.7,35.1,22.4c14.3,3.7,35.4,5.1,50.1,5c19.1-0.2,37.3-1.4,63.1-15.7
	c6.9-3.8,20.9-17.9,25.1-24.6c12.1-19.1,7.8-43.7,10-66.1c0.4-4.4,1.2-9,4-12.5c1.9-2.4,4.5-4,7.1-5.5c8.1-4.7,16.6-9,23.1-15.6
	c6.5-6.7,10.7-16.6,7.8-25.4c-9.6-1-19.5-1.8-28.6,1.4c-7.8,2.7-16.6,10-17,18.9C887.3,544.8,881.7,528.3,871.1,519.4z"/>
<g>
	<path class="st69" d="M855,682.4c-28.4,14.3-48.4,15.5-69.4,15.7c-16.2,0.2-39.5-1.3-55.1-5c-5.7-1.4-11.2-3-16.4-5.2
		c6.8,4.8,15,7.9,23.5,10.1c14.3,3.7,35.4,5.1,50.1,5c19.1-0.2,37.3-1.4,63.1-15.7c3.7-2.1,9.6-7.2,14.8-12.5
		C861.7,678.2,857.8,681,855,682.4z"/>
</g>
<path class="st68" d="M835,709.1c7.4,3.4,16.4,4,23.3-0.2c-1.6-5.3-4.9-9.9-8.1-14.4c-3.5-4.9-7-9.7-10.5-14.6
	c-3.6-4.8-23.3,8.8-25.9,11.4c4.2-2.7,6.2,5.2,8.5,8.1C825.8,703.5,830.1,706.9,835,709.1z"/>
<circle class="st69" cx="788.5" cy="647.2" r="14.5"/>
<ellipse class="st66" cx="868.2" cy="734.2" rx="20.2" ry="6.2"/>
<ellipse class="st66" cx="906" cy="744" rx="9.9" ry="3"/>
<g>
	<path class="st70" d="M739.4,680.3c9.9-2.9,18.7-9.6,24-18.5c0.7-1.2,1.4-2.6,1.5-3.9c-6.5,10.6-17,14.7-26.7,17.5
		c-11.6,3.3-26,3.2-35.5,0.7c1.4,2.2,2.9,4.3,4.6,6.1c2.7,0.3,5.4,0.3,8.1,0.3C723.5,682.5,731.7,682.6,739.4,680.3z"/>
	<path class="st70" d="M695.8,604c5.2-2.4,11.1-2.4,16.8-2.1c37.6,1.4,74.9,9.7,112.5,8.4c7.4-0.2,24.6-1,37.5-8
		c11.8-6.5,18.7-18.7,29.9-26.1c9.2-6.1,20.5-9.9,27.3-18.5c4.5-5.6,6.5-12.6,7.7-19.8c-9.3-1-19-1.6-27.8,1.5
		c-6.2,2.1-12.9,7.1-15.7,13.5c1.8-12.2-3.6-25.6-12.9-33.4c-0.9-0.8-1.9-1.5-3.1-1.5c-2.4,0-3.7,2.7-4.4,4.9
		c-2,6.3-4,12.7-4.3,19.3c-0.3,6.6,1.3,13.6,5.8,18.5c3.1,3.4,7.7,6,8.6,10.5c0.5,2.4-0.2,4.9-1.3,7.1c-5.6,11.7-20,16-32.9,17.6
		c-45.8,5.9-92.1-5.7-138.2-4.6c-3.5,0.1-7.3,0.4-9.9,2.8c-2.7,2.5-3.2,6.5-3.4,10.2c-0.2,3.1-0.4,6.2-0.5,9.3
		C688.4,609.4,691.8,605.9,695.8,604z"/>
</g>
<g>
	<path class="st1" d="M694,599.2c2.6-2.4,6.4-2.7,9.9-2.8c46.2-1.1,92.4,10.5,138.2,4.6c12.9-1.6,27.3-5.9,32.9-17.6
		c1.1-2.2,1.8-4.7,1.3-7.1c-0.2-1.1-0.7-2.1-1.3-3c0.4,2.3-0.3,4.7-1.3,6.9c-5.6,11.7-20,16-32.9,17.6c-45.8,5.9-92.1-5.7-138.2-4.6
		c-3.5,0.1-7.3,0.4-9.9,2.8C690,598.5,691.3,601.7,694,599.2z"/>
</g>
<circle class="st1" cx="790.5" cy="646.1" r="14.5"/>
<circle cx="794.1" cy="643.5" r="8.2"/>
<path class="st1" d="M862.4,546.4c0.3-6.4,2.1-12.6,3.8-18.7c0.6-2.2,1.8-4.8,3.9-4.8c1.1,0,2,0.7,2.8,1.5c3.7,3.3,6.7,7.8,8.7,12.7
	c-2-6.2-5.4-11.8-9.9-15.8c-0.8-0.7-1.7-1.5-2.8-1.5c-2.1,0-3.3,2.6-3.9,4.8c-1.8,6.1-3.6,12.3-3.8,18.7c-0.2,4.5,0.5,9.2,2.3,13.2
	C862.6,553.3,862.2,549.8,862.4,546.4z"/>
<path class="st1" d="M886.6,555.9c2.5-5.6,8.4-10.1,13.9-12c5.3-1.8,12.8-3,18.4-3.4c3.9-0.3,6.9-0.7,7-1.6
	c-8.3-0.8-18.8-0.6-26.6,2.1c-3.4,1.2-7,3.3-9.8,6.2C888.5,548.2,885.6,552.7,886.6,555.9z"/>
<circle class="st1" cx="792.6" cy="639.6" r="1.7"/>
<line class="st71" x1="886.6" y1="690.5" x2="886.6" y2="714.5"/>
<line class="st71" x1="893.1" y1="692.5" x2="893.1" y2="707.4"/>
<line class="st71" x1="915.1" y1="693.1" x2="915.1" y2="715.2"/>
<ellipse class="st10" cx="526.1" cy="703.7" rx="98.9" ry="26"/>
<path d="M602,648.4c1.6,2,3.2,4.1,4.7,6.2c1.8,2.5,3.4,5.1,4.8,7.8c1,1.8,1.8,3.7,2,5.7c0.2,2-0.5,4.3-2.2,5.4
	c-7.8,2.8-11.2-6.2-13.1-11c-1.2,0.4,0.5-0.9-0.2-1.9c-2.5-3.8-5.1-7.6-7.6-11.4c-1.7-2.5-3.5-5.4-3-8.4c0.5-3,6.7-2.6,8-1.6
	c0.6,0.5,1.6,3.2,2.2,4C598.8,645,600.5,646.6,602,648.4z"/>
<path d="M605.5,604c4.2,0.9,7.4,2,7.1,6.1c-1.9,7-13.1,13.8-19,18.1c-10.7,7.8-11.5,16.5-19.6,27c-2.5-5.5-4.2-11.4-5.1-17.4
	c-0.1-0.9-0.2-1.8,0-2.7c0.4-1.3,1.7-2.1,2.9-2.8c9.5-5.7,19-11.4,28.5-17.1c1.6-1,7.1-4.6,0.8-6.6c-2-0.6-11.8-2.7-33.9-5.7
	c-10.8-1.5-5.5-5.1,0.4-4.6C583.3,600,597.1,602.3,605.5,604z"/>
<path d="M599.3,659.1c3.9,49-20.3,50.7-26.4,50.5c-12.5-0.4-17.3-8.9-17.3-8.9s-9.7,14.5-19.6,19.6c-8.4,4.3-21.9,5.5-31.1,3.4
	c-14.4-3.2-24.1-9.2-31-26.4c-5.5-13.7-5.4-30-4.2-44.7c3-35.6,12.4-70.2,22.9-104.3c5.8-18.8,16.6-44.7,28.9-60
	c-1.8,0.8,42.3,78.8,44.8,83.4C581,599.2,596.8,628,599.3,659.1z"/>
<path class="st72" d="M485.7,587.6c7.1-11,42.1-16.2,51.2-15.4c12.1,1,25.4,2.9,34.4,10.8c11.9,22.9,22.9,46.8,24.9,72.4
	c1.8,23.3-2.5,37-9.5,43.7c-13.9,13.2-29.6-5.5-29.6-5.5s-10.3,19.9-35.9,23.7c-14,2.1-36.3-2.3-43.8-24.7
	c-4.6-13.7-4-28.5-2.8-42.9C476,632.3,480.7,609,485.7,587.6z"/>
<path class="st13" d="M540.1,556.7c6.5-1.6,9-2.1,15.6-1.9c6.7,0.2,13.6,2.4,18,7.4c4.5,5,5.7,13,1.8,18.4c-1.8,2.4-4.4,4.1-7.1,5.5
	c-9.4,4.7-20.7,5.7-30.8,2.5c-6.1-1.9-11.9-6.2-13.2-12.5C521.6,561.2,540.1,556.7,540.1,556.7z"/>
<path class="st1" d="M535.4,582.2c11.9,3.1,25.2,2.2,36.3-2.5c1.3-0.6,2.6-1.2,3.8-1.9c-1.8,2.4-4.4,4.1-7,5.5
	c-9.4,4.7-20.7,5.7-30.8,2.5c-4.2-1.3-8.2-3.7-10.8-7.2C529.5,580.2,532.4,581.4,535.4,582.2z"/>
<ellipse class="st1" cx="555.4" cy="560.5" rx="7.7" ry="2.5"/>
<path d="M472.8,607.6c-3.4,6.1-1.9,14.4,3,19.4c1.1,1.1,2.4,2.1,3.9,2.4c1.5,0.4,3.1,0,4.6-0.5c5.3-2,9.2-6.9,10.4-12.4
	c1.3-5.9,0.2-13.8-5.8-15.9C482.9,598.6,475.6,602.5,472.8,607.6z"/>
<path d="M467,584.2c2.6-1.2,4.7-3.2,6.2-5.7c0.6-0.9,1.1-2.1,0.7-3.1c-0.4-1.3-1.8-1.9-3-2.6c-1.2-0.7-2.4-1.8-2.1-3.1
	c0.1-0.6,0.6-1,0.9-1.4c2.1-2.3,4.1-4.8,5.1-7.7c1.1-2.9,1.2-6.3-0.2-9.1c-0.7-1.3-1.7-2.5-2.2-3.9c-0.6-2-0.2-4.1,0.6-6
	c1.5-3.5,4-6.4,6.2-9.4c2.2-3.1,4.3-6.4,4.6-10.2c0.3-3.8-1.6-7.9-5.1-9.2c-2.5-0.9-5.4-0.1-7.8,1c-8.3,3.8-14.4,12.3-15.2,21.4
	c-3.8-5-7.8-9.8-12.1-14.4c-5.2-5.5-11.1-10.9-18.4-12.9c-4-1.1-8.6-1-12,1.3c-3.5,2.3-5.3,7.3-3.2,10.9c1.4,2.4,4.1,3.7,6.5,5
	c7.7,4.1,14.5,9.9,19.9,16.7c-4.5-3-9.4-5.5-14.5-7.5c-3.9-1.5-8-2.7-12.1-2.5c-4.2,0.2-8.4,1.9-10.8,5.3c-2.4,3.4-2.4,8.5,0.5,11.4
	c3.1,3.1,8.1,2.8,12.4,2.9c7.6,0.1,15.6,1.8,21,7.2c-4.8-0.7-9.7-0.2-14.5,0.5c-4.7,0.7-9.6,1.6-13.7,4.1c-4.1,2.5-7.3,6.8-7.2,11.6
	c0.1,2.9,1.6,5.9,4.3,7c1.6,0.6,3.4,0.6,5,0.2c4.3-0.8,8.1-3.2,12.1-5.2c3.9-2,8.3-3.7,12.6-2.9c5.7,1,10.6,6.1,16.3,5.2
	c2.2-0.4,4.7-1.6,6.5-0.3c0.8,0.5,1.2,1.4,1.8,2.2c1.5,2.2,3.8,3.7,6.3,4.3"/>
<path class="st73" d="M480.6,610.5c-2.1-4-4.2-8.1-6.3-12.1c-2.3-4.4-4.6-8.7-6.8-13.1c-4.4-8.5-8.8-17-13-25.6"/>
<path class="st16" d="M276.8,383.8c5.4,1.8,10.8,3.4,16.5,3.9c2.3,0.2,4.5,0.4,6.8,0.3c2.5-0.1,5-0.7,7.5-0.7c2.3,0,4.6,0.5,6.9,0.7
	c2.4,0.2,4.8,0,7.2-0.3c1.9-0.2,3.8-0.3,5.5-1.1c2.9-1.3,4.7-4.2,6-7c2.4-5.2,3.4-10.9,4.2-16.6c0.9-6.6,1.6-13.2,1.3-19.9
	c-6.9-0.3-13.8,0.5-20.7,1.1c-6,0.5-11.9,0.9-17.9,1.1c-9.3,0.3-18.5,0.3-27.8,0.2c-4.7-0.1-9.3-0.2-14-0.3c-3-0.1-5.8,0.2-6.6,3.6
	C250.8,352.6,260,378.3,276.8,383.8z"/>
<path class="st52" d="M242.1,333.4c1.4,4.9,5,9.4,9.9,10.9c1.4,0.4-2.7,2.6-1.3,2.7c29,3.2,64,2.6,88.5,1.1
	c-1.2-5.5,3.4-16.4,5.8-21.4c0.3-0.6,0.6-1.3,1.2-1.7c0.8-0.7,1.8-1,2.8-1.2c6.8-1.8,14-4.4,17.9-10.3c2.6-3.9,3.4-8.8,3-13.5
	c-0.4-4.7-1.8-9.2-3.3-13.6c-0.5-1.3-1.1-2.8-2.3-3.3c-0.7-0.3-1.4-0.2-2.1-0.2c-20.4,1.1-40.8,2.2-61.2,3.4
	c-12.1,0.7-24.1,1.3-36.1,3.2c-2.3,0.4-4.7,0.9-6.1,2.7c-0.9,1.3-1.2,2.9-1.4,4.5c-0.7,4.5-1.9,8.9-3.6,13.2c-0.4,1-0.8,2-1.5,2.8
	c-0.6,0.7-1.4,1.3-2.1,1.8c-2.3,1.7-6.4,3.5-7.7,6.1C240.5,324.1,241.1,329.8,242.1,333.4z"/>
<path class="st23" d="M396.1,112.5c9.3-4.3,20.1-7.2,30.9-5c2.9,0.6,6.1,1.8,7.7,4.1c1.7,2.5,1.1,5.5,0.3,8.2
	c-2.4,8-6.1,15.6-10.8,22.6c-3.5,5.2-7.7,10.2-13.7,13.2c-5.1,2.7-11.2,3.8-17.2,4.6c-8.7,1.3-17.6,2.1-26.5,2.5
	c-1.5,0.1-3.2,0.1-4.6-0.6c-3.6-1.8-2.9-6.4-4.5-9.7c-1.5-2.9-5.1-5.1-5.7-8.2c-0.4-2,0.5-3.9,0.9-5.9c0.8-4.3-1.5-9.1,0-13.2
	c3-8.5,12-4.2,19.1-4.1C380.7,121.3,388.9,115.9,396.1,112.5z"/>
<path class="st74" d="M435.1,111.8c-1.6-2.3-4.7-3.5-7.7-4.1c-10.8-2.2-21.6,0.7-30.9,5c-7.2,3.4-15.4,8.8-24.3,8.7
	c-7.1-0.1-16.1-4.4-19.1,4.1c-1.4,4.1,0.8,8.9,0,13.2c-0.3,1.6-0.9,3.1-1,4.7c2.1-2.9,5.4-5.7,9-4.2c1.5,0.6,2.7,1.9,4.3,2.1
	c2.7,0.2,3.6-2.8,4.8-4.8c3-5,12.7-4.9,16.6,0.1c3.1-5.3,7.7-11.2,14.8-10.6c3.4-4.6,10.6-6.8,17-5.1c0.8,0.2,1.5,0.5,2.1,1
	c1.5,1.4,0.5,3.5-0.7,4.8c-2.5,3-5.9,5.5-9.7,7.2c2.2,1.7,2.9,4.7,1.7,6.8c-1.9,3.4-7.1,3.9-10.2,6.5c-1.9,1.6-2.9,3.9-5,5.3
	c-4.2,2.7-10.6,0.5-15.6-1.8c-1,2.3-4.2,3-6.9,3.5c-5.1,0.9-10.1,1.6-15.2,2.4c0.5,2.4,1,4.7,3.4,5.9c1.4,0.7,3.1,0.6,4.6,0.6
	c8.9-0.4,17.8-1.3,26.5-2.5c6-0.9,12.1-2,17.2-4.6c5.9-3.1,10.2-8,13.7-13.2c4.7-7,8.4-14.6,10.8-22.6
	C436.2,117.3,436.8,114.3,435.1,111.8z"/>
<path class="st23" d="M181.7,108.8c-6.5,2-13.3,6.7-13.2,14.1c0.1,6.2,4.8,11.4,9.2,15.9c3.9,4,7.9,8,11.8,12
	c4.1,4.2,8.3,8.4,13,11.8c11.5,8.3,26,11.1,38.5,7.4c5.6-1.7,10.8-4.5,15.8-7.4c1-0.6,2.1-1.2,2.8-2.1c1.8-2.6,0.5-6.5-1.1-9.6
	c-2.9-5.6-6.5-10.9-10.5-15.7C230.6,114.3,206.3,101.2,181.7,108.8z"/>
<path class="st74" d="M235.7,163.7c-4.8-1.8-9.2-5.4-14.1-6.7c-4.3-1.2-7.7,3.3-11.8,0.8c-2.3-1.4-3.6-4.5-2.9-7.1
	c-3.9,0.2-8.6,0.2-11.3-3.2c-0.9-1.1-1.4-2.4-2.3-3.4c-2.2-2.4-6-2.6-7.8-5.3c-1.4-2-1.2-5-3-6.6c-1.5-1.3-4-1.2-5-3
	c-1.2-2.3,1.6-4.4,4-4.3s5.3,0.6,6.7-1.4c0.6-0.9,0.8-2.1,1.5-2.8c2.7-2.5,6.7,4.6,10.3,3.6c1.1-0.3,1.8-1.3,2.7-1.9
	c2-1.2,4.8-0.5,6.8,1.2c2,1.7,3.3,4,4.6,6.3c1.8-3,6.2-2.5,9.5-1.1c3.3,1.4,6.8,3.4,10.2,2.7c2.4-0.5,4.3-2.3,6.7-2.5
	c0.6,0,1.1,0,1.6,0.1c-16.9-17.5-38.9-27.6-61.2-20.8c-6.5,2-13.3,6.7-13.2,14.1c0.1,6.2,4.8,11.4,9.2,15.9c3.9,4,7.9,8,11.8,12
	c4.1,4.2,8.3,8.4,13,11.8c11.5,8.3,26,11.1,38.5,7.4c3.1-0.9,6.1-2.2,9-3.7C244.6,165.9,240.1,165.3,235.7,163.7z"/>
<path class="st23" d="M207.7,139.1c7-3.8,14.6-6.2,21.5-10.2c9.9-5.7,17.8-14.4,27-21.2c9.2-6.8,20.9-11.9,32-8.9
	c3.6,1,7.1,2.8,10.8,2.7c1.9-0.1,3.7-0.6,5.5-1c13.9-3.1,29.3,1.4,39.3,11.5c2.7,2.8,5.1,5.9,8,8.5c4.5,3.8,10.1,6,15.8,7.8
	c8,2.5,16.4,4.5,23.1,9.5c6.7,5,11.1,14.3,7.6,21.9c-1.3,2.9-3.7,5.2-6.6,6.5c-2.8,1.3-6.1,1.6-8.7,3.3c-3.1,2-4.8,5.9-4.1,9.5
	c0.6,3.6,3.6,6.7,7.1,7.6c1.5,0.4,3.2,0.4,4.5,1.2c2,1.3,2.3,4.3,1.4,6.6s-2.9,3.9-4.7,5.4c-6.9,5.8-13.9,12.1-16.7,20.7
	c-2.7,8.3-0.9,17.3,0.1,26c3.6,33.4-100.8,48-122.3,15.9c-2.7-4-5.3-8.1-7.3-12.5c-5-11.2-5.2-24-9.2-35.7
	c-1.6-4.6-4.1-9.4-8.5-11.4c-2.7-1.2-5.7-1.3-8.5-2s-5.8-2.5-6.3-5.4c-0.7-4,3.4-7.1,5.1-10.7c2.4-5.2-0.2-11.5-4.5-15.2
	c-5.2-4.4-15.7-4.4-16.5-12.4C191.6,149,201.7,142.3,207.7,139.1z"/>
<path class="st75" d="M258.2,354.7c2.5,4.9,5.1,9.8,9,13.6c5.1,5.1,12.2,7.9,19.3,8.4c12.3,1,25-4.6,32.5-14.5
	c4.4-5.8,7-12.9,9.4-19.8c5-14.7,9.4-29.6,13-44.7c-0.2,0.9-29.7,0.4-32.6,0.5c-11.1,0.4-22.1,1-33.1,1.9c-10.1,0.8-7.5-6-17.2-2.7
	c-9.5,3.2-22.4,11-13,33.4C250.4,342.5,252.4,343.4,258.2,354.7z"/>
<path class="st76" d="M282,351.1c3.1,2.1,6.8,2.7,10.6,2.6c4.4-0.2,9.4-2.4,11.4-4.1c8.2-6.8,14.3-28.6,17.6-32.1
	c1.2-1.3-6.4,1.6-7-0.1c-1.5-4.9-7.5-6.4-12.6-6.8c-10.2-0.7-20.5,0.3-30.4,2.9c-8.1,2.2-5.8,22.7-3.3,25.5
	C271.9,343.1,277.5,348.1,282,351.1z"/>
<path class="st77" d="M400.8,155.8c-1.2-1.5-3.3-2.2-4.6-3.7c-2.5-2.6-2-6.7-3.4-9.9c-1.8-4-6.2-6.3-10.5-8
	c-5.7-2.4-13.1-3.3-18.4-6.3c-3.5-1.9-3.9-4.4-5.5-7.8c-4.4-8.9-12.5-15.8-22.2-19.3c-11.5-4.1-24.6-3.6-36.4-0.2
	c-0.8,0.2-1.6,0.5-2.3,0.9c-0.7-0.4-1.5-0.6-2.3-0.9c-11.8-3.4-24.8-4-36.4,0.2c-9.7,3.5-17.8,10.4-22.2,19.3
	c-1.7,3.3-2,5.8-5.5,7.8c-5.3,2.9-12.7,3.9-18.4,6.3c-4.2,1.7-8.7,4-10.5,8c-1.4,3.2-0.9,7.3-3.4,9.9c-1.3,1.4-4.3,5-5.2,6.7
	c-4.1,7.8-1.2,11.5,1.5,14.4c2.7,2.9,5.9,1,7.3,4.5c2.4,6.2-1,10.2,0.5,16.7c2.2,9.8,9.4,8.4,16.7,14.1c4.1,3.2,17.9,18.3,19.9,35.2
	c0.2-4.7,3.8-25.1-7.8-39.2c-1.5-1.8-6.7-5.3-7.4-8.4c-1.1-4.5-2.9-19.5-2.8-22.1c2.7,0.2,4.7-2.6,4.6-5.1c-0.1-2.5-1.7-4.7-3.3-6.8
	c0.7-2.5,4.7-1.5,7.4-1.7c3.7-0.2,6.4-3.8,6.5-7.3c0.2-3.5-1.5-6.8-3.4-9.9c5-0.1,10.9-0.7,13.3-4.9c1.3-2.3,1.3-5.4,3.5-7
	c1.5-1,3.5-0.9,5.3-0.8c4.4,0.3,8.8,0.7,13.2,1c2.4,0.2,4.9,0.3,7.1-0.6c2.7-1.1,4.3-3.6,6.7-5.2c1.8-1.2,4.4-0.9,3.3-0.6
	c2-0.1,7.6-9.8,12.5-9.8c4.9,0,9.2,9.6,11.1,9.8c-1-0.3,1.5-0.6,3.3,0.6c2.4,1.6,4.1,4.1,6.7,5.2c2.2,0.9,4.7,0.8,7.1,0.6
	c4.4-0.3,8.8-0.7,13.2-1c1.8-0.1,3.8-0.2,5.3,0.8c2.3,1.5,2.2,4.6,3.5,7c2.4,4.2,8.3,4.8,13.3,4.9c-1.9,3-3.6,6.4-3.4,9.9
	c0.2,3.5,2.9,7.1,6.5,7.3c2.8,0.2,6.7-0.9,7.4,1.7c-1.5,2.1-3.1,4.3-3.3,6.8c-0.1,2.5,1.9,5.3,4.6,5.1c0.3,5.4-8.5,3.5-8.4,13.7
	c0.1,7,3.3,33.3,3.5,37c3.5-15,27.9-16.4,29-29.9c0.6-6.6-8.9-13.8-6.5-20c1.4-3.6,2.8-2.2,6.3-4
	C405.7,166.5,403.3,158.8,400.8,155.8z"/>
<path class="st78" d="M278,352.7c4.4,4,9.5,5,13.2,5.3c7,0.4,10.7-4,12.8-5.7c13-11.2,11.3-22.3,18.9-33.8c1-1.4-7.2-4.4-7.7-6
	c-1.5-4.9-7.5-6.4-12.6-6.8c-10.2-0.7-20.5,0.3-30.4,2.9c-8.1,2.2-20-11.9-14.1-3.7c2.2,3-4.1,24.8,7.8,34.4
	C270.1,342.7,274,349,278,352.7z"/>
<path class="st79" d="M317.7,359.2c-1.6-1-3.9-0.6-5.4,0.5c-1.6,1.1-2.6,2.8-3.6,4.5c-2-1.9-4.1-3.9-6.8-4.5c-2.7-0.6-6,0.9-6.4,3.7
	c-0.9-4.3-4.6,7.4-9,7.3c-4.4-0.1-9-11.9-9.9-7.6c0.1-0.6-8.3-6-9.3-6.6c-3.4-2.1-4.2-2.9-6.6,0c-0.3,0.4-0.6,0.7-0.8,1
	c2.1,3.9,4.3,7.6,7.4,10.7c5.1,5.1,12.2,7.9,19.3,8.4c12.3,1,25-4.6,32.5-14.5c0.3-0.3,0.5-0.7,0.7-1
	C319.1,360.5,318.5,359.7,317.7,359.2z"/>
<path class="st59" d="M210.6,158.4c-2.3-1.4-3.6-4.5-2.9-7.1c-3.9,0.2-8.6,0.2-11.3-3.2c-0.9-1.1-1.4-2.4-2.3-3.4
	c-2.2-2.4-6-2.6-7.8-5.3c-1.4-2-1.2-5-3-6.6c-1.5-1.3-4-1.2-5-3c-1.2-2.3,1.6-4.4,4-4.3c2.4,0,5.3,0.6,6.7-1.4
	c0.6-0.9,0.8-2.1,1.5-2.8c2.7-2.5,6.7,4.6,10.3,3.6c1.1-0.3,1.8-1.3,2.7-1.9c2-1.2,4.8-0.5,6.8,1.2c2,1.7,3.3,4,4.6,6.3
	c1.8-3,6.2-2.5,9.5-1.1c3.3,1.4,6.8,3.4,10.2,2.7c2.4-0.5,4.3-2.3,6.7-2.5c2.6-0.2,5.1,1.4,7.6,2.2c2.4,0.8,4.9,0.8,7.3,1.1
	c5.5,0.6,11,2.6,15.9,5.6c1.1,0.7,2.2,1.4,2.8,2.5c1,1.7,0.8,3.9,0.6,5.8c-0.3,2.5-0.7,5-1,7.5c-0.2,1.5-0.4,3-1.2,4.2
	c-0.8,1.2-2.1,1.9-3.4,2.4c-10.2,4.7-22.2,7.7-33.4,3.4c-4.8-1.8-9.2-5.4-14.1-6.7C218.1,156.4,214.7,160.9,210.6,158.4z"/>
<path class="st80" d="M198.3,156.2c1.5-0.5,3.1-1,4.6-0.6c0.8,0.2,1.6,0.7,2.4,0.7c1.4,0.1,2.6-0.8,4-0.9c1.1-0.1,2.1,0.4,3.1,0.9
	c1.4,0.7,3.1,1.9,2.7,3.4c-0.1,0.4-0.4,0.8-0.4,1.2c0,0.6,0.4,1,0.8,1.4c1,1,2,2,3,3c0.4,0.4,0.8,0.8,1,1.4c0.2,0.5,0,1.1,0.1,1.7
	c0.1,1.8,1.6,3.1,2.8,4.4c4.1,4.4,5.7,13-2.2,8.1c-5.3-3.2-9.6-5.2-15.8-5.5c-3.6-0.1-7.6,0.7-10.5-1.9c-3.4-3.1-4.1-10.6,1.4-11.7
	C192.7,159.2,195.8,157.1,198.3,156.2z"/>
<path class="st81" d="M423.2,150c-4.1-28.7-54-23.7-74.9-20.8c-4.7,0.7-19.7,1.9-24.4,1.9c-14.5,0-35.2,0-49.3,0
	c-4.8,0-19.7-1.3-24.4-1.9c-20.9-2.9-70.8-7.9-74.9,20.8c-3.7,26,10,56.8,40.3,56.4c21.6-0.3,30.8-21.6,43.2-37.9
	c2.6-3.5,6.3-6.1,9.9-8.5c8.9-5.7,19.9-6.5,30.5-7c10.6,0.5,21.6,1.2,30.5,7c3.7,2.4,7.3,5,9.9,8.5c12.4,16.3,21.6,37.6,43.2,37.9
	C413.2,206.8,426.9,176,423.2,150z"/>
<path class="st82" d="M238.5,263.8c0.3,8.8,0.7,17.7,3,26.2c3.7,13.5,13.1,26.1,26.3,30.9c13.2,4.8,30,0,36.6-12.4
	c2.3,6.9,9.5,11.1,16.6,12.6c10.6,2.3,22.2-0.1,31-6.4s14.9-16.5,16.2-27.3c0.5-4,0.4-8,0.2-12c-0.4-10.9-0.7-21.9-3.2-32.5
	c-3.1-13.4-9.5-25.8-15.8-38.1c-0.4-0.8-0.9-1.7-1.6-2.3c-1.1-0.9-2.6-1.1-4-1.2c-23.1-1.8-46.1,1.7-69.2,1.7
	c-7,0-20.4-3.6-26.2,1.4c-5.6,4.8-7.3,17.2-8.4,23.9C238,240,238.2,252,238.5,263.8z"/>
<path class="st83" d="M253.4,176c-1.9,3.9-2.9,8.2-5.5,11.7c-1.7,2.2-3.4,4.4-5.5,6.2c-13,11.3-6.5,20.8,0.9,28.8
	c7.4,8,21.2,13.2,31.2,17.6c2.9,1.3,5.9,2.7,8.1,5c2.7,2.8,3.9,6.6,5,10.4c2.9,10,5.3,20.2,7.1,30.4c3.9-0.9,7.8-1.3,11.8-1.3
	c-0.4-10.6-0.5-22.2,6-30.6c8.8-11.5,28.9-20.8,40-30.1c12.2-10.4,13.5-23.9,2.9-35.9c-2.8-3.1-8.3-13.2-10.6-16.7
	c-4.1-6.5-14.2-26.6-43.5-27.3C283.2,143.7,264.4,153.6,253.4,176z"/>
<path class="st75" d="M369.1,268.6c-0.3-8.4,0.5-15.5-0.7-23.8c-7.2-40.4-48.3-17.3-56.6-6.7c-18.3,23.1-5.9,68.9-8.1,62
	c-0.7-26.4-2.1-45.8-7.9-57c-4.8-9.3-10.3-14.3-16.3-16.5c-13.2-4.8-44.6-10-43.3,25.2c0.1,2.5-2.8,10,0.9,20.9
	c0.4,5,1.3,13.4,2.6,18.2c3.7,13.5,15,24.2,28.2,29c13.2,4.8,30,0,36.6-12.4c2.3,6.9,9.5,11.1,16.6,12.6c10.6,2.3,22.2-0.1,31-6.4
	c8.9-6.3,14.9-16.5,16.2-27.3C368.7,282.5,369.2,272.6,369.1,268.6z"/>
<g>
	<path class="st79" d="M355.1,295.3c-9.5,6.3-18.5,8.4-29.9,6.2c-7.7-1.5-19.1-0.8-21.5-7.7c-7.1,12.4-25,8.6-39.2,3.8
		c-10.5-3.5-21.5-15.5-27.3-24.2c0.3,1.5,2,16.7,2.3,17.9c3.7,13.5,14.7,24.8,27.9,29.6c13.2,4.8,30.5,0.3,37.1-12.1
		c2.3,6.9,9.2,11,16.3,12.5c10.6,2.3,22.4-0.4,31.4-6.5c14.6-9.9,16-28.8,16-29.3C365.2,291.1,360.8,291.6,355.1,295.3z
		 M303.4,300.4c0-0.6,0-1.1,0-1.6C303.8,301,303.9,301.7,303.4,300.4z"/>
</g>
<g>
	<path class="st23" d="M304.1,304.3c-0.1-0.4-0.2-0.7-0.3-1.1C303.9,303.9,304,304.3,304.1,304.3z"/>
	<path class="st23" d="M303.2,303.6c0,0.2-0.1,0.3-0.1,0.5C303.1,304.1,303.1,303.9,303.2,303.6z"/>
	<path class="st23" d="M357.3,200.2c-2.4-2.6-5-8.2-18.2-2.1c-7.5,3.5-13,7.8-24.1,17.5c-3.4,1.6-5.3,4.9-8.8,6.6
		c-1.4-3.6-2.6-8.7-2.9-13.2c-0.3-4.9-2.1-32-3-37.2c-0.6,2.5,0,9.4-0.4,12.8c-0.2-0.9-1.9,20.4-2.6,23.8c-1,4.6-0.1,13.6-0.3,16.9
		c-9.7-12.8-26-27.7-44.7-28.2c-0.5,0-7.8,1.1-10.2,3.7c-3.1,3.4-2.7,9,0,12.8c2.7,3.8,7,6,11.3,7.6c7.1,2.6,15.5,2.2,24.4,6.5
		c3.6,1.7,13.8,9.3,17.9,18.9c6.4,15,4.6,37.5,7.4,53.6c0,1.6,0,2.8,0,3.4c0.1-0.6,0.3-1.1,0.4-1.7c0.1,0.4,0.2,0.9,0.3,1.3
		c-0.1-0.5-0.1-1-0.2-1.8c2.8-15.3-4.2-29.8,2.2-52.8c2.8-10.1,12.5-15,18.1-19c6.2-4.4,14-5.7,21.1-8.4c4.3-1.6,8.7-3.8,11.3-7.6
		C359,209.9,360.5,203.6,357.3,200.2z M303,293"/>
</g>
<path class="st80" d="M331.4,215.2c-13.9,4.2-25.1,20-21.1,13.9c1.3-2,11.1-16,22.7-24.1c8.5-5.9,13.8-7.5,19.7-2.6
	c2.3,1.9-0.8,4-4.5,5.9C341.7,211.4,334.5,214.3,331.4,215.2z"/>
<path class="st80" d="M272.8,214.3c12.8,3.7,13,5.6,19.4,17.2c-1.9-7.2-0.9-5.3-4.8-11.4c-3.4-5.3-27-24.6-36.5-16.7
	c-2.3,1.9-1.6,3.8,2.2,5.7C259.4,212.2,269.7,213.4,272.8,214.3z"/>
<g>
	<path class="st84" d="M258.6,205.6c4.7,2.6,10.1,3.5,15.2,4.8c1.4,0.4,2.9,0.7,4.3,1.1c-7.3-5.6-17.3-11.3-24.1-9.8
		C255.3,203.3,257.2,204.8,258.6,205.6z"/>
</g>
<path class="st84" d="M323.2,213.7c0,0,8.1-5.5,14.5-7.3c0,0,9.9-3.5,11.4-5.9c0,0-4.4-4.2-14.5,3.5
	C334.7,204,327.6,208.8,323.2,213.7z"/>
<path class="st23" d="M298.1,283.8c-1.1,1.3-3,1.8-3.7,3.4c-0.7,1.5-0.6,4,0.9,4.6c6.2,2.5,5.9,10.9,9,14.7c3.4-3.3-0.1-10.1,7.4-15
	c1.7-1.1,1.7-4,0.7-5.7c-1-1.9-3.4-2.6-4.8-4.2c-3.7-4.4-3.5-15.4-5.2-20.5C298.7,250.6,303.6,277.7,298.1,283.8z"/>
<circle class="st85" cx="255.8" cy="285.7" r="1.7"/>
<circle class="st85" cx="267.7" cy="287.9" r="1.7"/>
<circle class="st86" cx="282.5" cy="289.2" r="1.7"/>
<circle class="st86" cx="265.1" cy="279.7" r="1.7"/>
<circle class="st85" cx="276.5" cy="281.1" r="1.7"/>
<circle class="st86" cx="289.3" cy="280.8" r="1.7"/>
<circle class="st85" cx="274.6" cy="295.5" r="1.7"/>
<circle class="st85" cx="261.1" cy="293.3" r="1.7"/>
<circle class="st75" cx="247.3" cy="292.9" r="1.7"/>
<circle class="st75" cx="255.1" cy="302.1" r="1.7"/>
<circle class="st75" cx="268.7" cy="305.2" r="1.7"/>
<circle class="st75" cx="269.6" cy="315.8" r="1.7"/>
<circle class="st75" cx="285.7" cy="316.7" r="1.7"/>
<circle class="st85" cx="283.3" cy="301" r="1.7"/>
<circle class="st86" cx="291.1" cy="296.2" r="1.7"/>
<circle class="st75" cx="293.6" cy="307.4" r="1.7"/>
<circle class="st75" cx="277.2" cy="310.7" r="1.7"/>
<circle class="st75" cx="260.3" cy="309.6" r="1.7"/>
<circle class="st75" cx="362.3" cy="292.7" r="1.7"/>
<circle class="st75" cx="354.6" cy="301.9" r="1.7"/>
<circle class="st75" cx="341" cy="305" r="1.7"/>
<circle class="st75" cx="340.1" cy="315.6" r="1.7"/>
<circle class="st75" cx="324" cy="316.4" r="1.7"/>
<circle class="st75" cx="316.1" cy="307.2" r="1.7"/>
<circle class="st75" cx="332.5" cy="310.5" r="1.7"/>
<circle class="st75" cx="326.3" cy="304.8" r="1.7"/>
<circle class="st75" cx="349.4" cy="309.4" r="1.7"/>
<circle class="st85" cx="244.2" cy="281.3" r="1.7"/>
<circle class="st85" cx="253.6" cy="278" r="1.7"/>
<circle class="st85" cx="242" cy="273.1" r="1.7"/>
<circle class="st87" cx="249.1" cy="266" r="1.7"/>
<circle class="st87" cx="262.3" cy="269.8" r="1.7"/>
<circle class="st87" cx="260.8" cy="254.8" r="1.7"/>
<circle class="st87" cx="241.4" cy="256.9" r="1.7"/>
<circle class="st87" cx="249.4" cy="244.6" r="1.7"/>
<circle class="st87" cx="270.2" cy="244.8" r="1.7"/>
<circle class="st87" cx="283.7" cy="256.6" r="1.7"/>
<circle class="st87" cx="274.6" cy="268" r="1.7"/>
<circle class="st87" cx="287" cy="268.6" r="1.7"/>
<circle class="st85" cx="350.2" cy="285.7" r="1.7"/>
<circle class="st85" cx="338.4" cy="287.9" r="1.7"/>
<circle class="st86" cx="323.6" cy="289.2" r="1.7"/>
<circle class="st86" cx="341" cy="279.7" r="1.7"/>
<circle class="st85" cx="329.6" cy="281.1" r="1.7"/>
<circle class="st86" cx="316.8" cy="280.8" r="1.7"/>
<circle class="st85" cx="331.5" cy="295.5" r="1.7"/>
<circle class="st85" cx="346.1" cy="294.4" r="1.7"/>
<circle class="st75" cx="358.7" cy="292.9" r="1.7"/>
<circle class="st86" cx="315" cy="296.2" r="1.7"/>
<circle class="st85" cx="360.6" cy="281.5" r="1.7"/>
<circle class="st85" cx="352.5" cy="278" r="1.7"/>
<circle class="st85" cx="364.1" cy="273.1" r="1.7"/>
<circle class="st87" cx="357" cy="266" r="1.7"/>
<circle class="st87" cx="343.8" cy="269.8" r="1.7"/>
<circle class="st87" cx="348.8" cy="256.3" r="1.7"/>
<circle class="st87" cx="364.7" cy="256.9" r="1.7"/>
<circle class="st87" cx="360.6" cy="245.4" r="1.7"/>
<circle class="st87" cx="339.2" cy="246.9" r="1.7"/>
<circle class="st87" cx="331.2" cy="256.9" r="1.7"/>
<circle class="st87" cx="324.4" cy="271.8" r="1.7"/>
<circle class="st87" cx="313.3" cy="268.3" r="1.7"/>
<path class="st88" d="M293.9,343.8c-7.9,0.5-16.3,0.2-23-4.1c-1.2-0.8-7.8-6.4-9.4-5.9c5.3,11.5,10.9,19.1,14.4,22.2
	c4.4,4,7.5,3.9,11.2,4.1c7,0.4,14.8-6.1,16.9-7.8c3.7-3.1,6.3-6.8,8.8-11C306.5,342.6,300.2,343.4,293.9,343.8z"/>
<path class="st89" d="M268.3,331.7c0.1-0.5,0.2-1,0.7-1.2c0.2-0.1,0.5-0.1,0.7-0.1c2.4,0,4.7,0,7.1,0.1c0.3,4.8,0.2,9.7-0.1,14.5
	c0,0.2,0,0.4-0.2,0.6c-2,2.4-5.7-2.3-6.4-3.6C268.2,338.9,267.6,335.2,268.3,331.7z"/>
<path class="st89" d="M279.1,346.6c0.8,1.6,2.4,2.9,4.2,2.9c1.7,0,3.2-1.3,3.9-2.8c0.8-1.5,1-3.2,1.1-4.9c0.3-4.1,1.1-10.2,0.8-14.3
	c0-0.1-10.8,0.5-11.8,1.5C275.5,330.9,278.3,345,279.1,346.6z"/>
<path class="st89" d="M290.1,346c0.2,1.5,0.6,3.2,1.8,4c1.1,0.7,2.7,0.5,3.9-0.1c2.5-1.3,3.8-4.1,4.7-6.8c1.5-4.4,2.4-8.9,2.5-13.5
	c-3.2,0-9.9-1.5-12.1,1.6C288.7,334.7,289.6,342.1,290.1,346z"/>
<path class="st89" d="M303.5,346.8c0.3,0.1,0.6,0.2,0.9,0.1c0.3,0,0.6-0.2,0.9-0.4c0.9-0.5,1.7-1.1,2.5-1.8c1.6-1.4,2.6-3.4,3.1-5.5
	c0.5-2.1,0.7-4.2,0.8-6.3c-3.5,0-6.9,0.2-10.3,0.7c-0.9,0.1-1.4,7.5-1.4,8.5C299.9,344.7,300.9,346,303.5,346.8z"/>
<path class="st90" d="M302.9,333.2c0,0-1,5.7-2.7,11c0,0,0.7,1.3,2,2.1c0,0,2.6-6.5,3.1-13.2L302.9,333.2z"/>
<path class="st90" d="M273.7,330.5c0,0,0.2,10.1,2.1,15.5c0,0,1.2,0.2,1.2-3.9c0,0,0-3.2,0.1-5.5c0,0-0.3-3-0.3-5.9L273.7,330.5z"/>
<g>
	<path class="st91" d="M224.8,191.2c1.2-4.5-6.4-14.4-6.3-17c2.7,0.2,4.7-2.6,4.6-5.1c-0.1-2.5-1.7-4.7-3.3-6.8
		c0.7-2.5,4.7-1.5,7.4-1.7c3.7-0.2,6.4-3.8,6.5-7.3c0.2-3.5-1.5-6.8-3.4-9.9c5-0.1,10.9-0.7,13.3-4.9c1.3-2.3,1.3-5.4,3.5-7
		c1.5-1,3.5-0.9,5.3-0.8c4.4,0.3,8.8,0.7,13.2,1c2.4,0.2,4.9,0.3,7.1-0.6c0.1,0,0.1-0.1,0.2-0.1c-0.4,0-0.9,0-1.3,0
		c-4.8,0-19.7-1.3-24.4-1.9c-4.8-0.7-11.2-1.4-18.1-1.9c-0.3,0.2-0.6,0.4-0.9,0.6c-5.3,2.9-12.7,3.9-18.4,6.3c-4.2,1.7-8.7,4-10.5,8
		c-1.4,3.2-0.9,7.3-3.4,9.9c-1.3,1.4-4.3,5-5.2,6.7c-4.1,7.8-1.3,13.5,1.4,16.4c2.7,2.9,5.8,2.1,7.2,5.7c2.4,6.2-0.8,7.1,0.7,13.6
		c1.9,8.3,4,8.3,10,11.7c9.4,0.9,15.5-1.2,19.4-3.4C227.2,200.9,223.1,197.3,224.8,191.2z"/>
	<path class="st92" d="M398.1,195.1c0.6-6.6-8.9-13.8-6.5-20c1.4-3.6,2.8-2.2,6.3-4c8.2-4.4,5.7-12.1,3.3-15.1
		c-1.2-1.5-3.3-2.2-4.6-3.7c-2.5-2.6-2-6.7-3.4-9.9c-1.8-4-6.2-6.3-10.5-8c-5.7-2.4-13.1-3.3-18.4-6.3c-0.2-0.1-0.4-0.2-0.6-0.3
		c-5.7,0.5-10.9,1.1-15,1.7c-4.7,0.7-19.7,1.9-24.4,1.9c-1.5,0-3.1,0-4.7,0c0.1,0,0.1,0.1,0.2,0.1c2.2,0.9,4.7,0.8,7.1,0.6
		c4.4-0.3,8.8-0.7,13.2-1c1.8-0.1,3.8-0.2,5.3,0.8c2.3,1.5,2.2,4.6,3.5,7c2.4,4.2,8.3,4.8,13.3,4.9c-1.9,3-3.6,6.4-3.4,9.9
		c0.2,3.5,2.9,7.1,6.5,7.3c2.8,0.2,6.7-0.9,7.4,1.7c-1.5,2.1-3.1,4.3-3.3,6.8c-0.1,2.5,1.9,5.3,4.6,5.1c0.3,5.4-8.5,3.5-8.4,13.7
		c0,2.5,0.5,7.6,1,13.2c4.7,3.2,10,5.1,16.5,5.2c2.4,0,4.7-0.1,6.9-0.5C394.4,203.2,397.7,199.9,398.1,195.1z"/>
</g>
<path class="st93" d="M175.3,156c4.1-28.7,51.3-25.1,72.2-21.9c19.4,2.9,25.9,13.6,26.1,18.8c0.4,8.9,28.8-2.1,28.8-2.1
	s18.5,18.6,22.6,4.7c2.6-9.1,9.1-17,23.4-20.3c20.6-4.7,70.8-7.9,74.9,20.8c0.2,1.6,0.4,3.1,0.5,4.7c0.2-4.1,0.1-8.2-0.5-12.2
	c-4.1-28.7-53.8-21.7-74.9-20.8c-37.5,1.6-60.7,1.6-98.2,0c-21.1-0.9-70.8-7.9-74.9,20.8c-0.6,4-0.7,8.1-0.5,12.2
	C174.9,159.2,175.1,157.6,175.3,156z"/>
<path class="st94" d="M175.3,157.5c4.1-28.7,51.3-25.1,72.2-21.9c19.4,2.9,25.9,13.6,26.1,18.8c0.4,8.9,28.8-2.1,28.8-2.1
	s18.5,18.6,22.6,4.7c2.6-9.1,9.1-17,23.4-20.3c20.6-4.7,70.8-7.9,74.9,20.8c0.2,1.6,0.4,3.1,0.5,4.7c0.2-4.1,0.1-8.2-0.5-12.2
	c-4.1-28.7-53.8-21.7-74.9-20.8c-37.5,1.6-60.7,1.6-98.2,0c-21.1-0.9-70.8-7.9-74.9,20.8c-0.6,4-0.7,8.1-0.5,12.2
	C174.9,160.6,175.1,159,175.3,157.5z"/>
<path class="st74" d="M278.8,93c-0.9,0-2,0.1-2.7,0.6c-0.7,0.6-1,1.9-0.2,2.4c-6.7-1.2-13.7-0.7-20.2,1.4c-3.6,1.2-7.5,3.5-8.3,7.2
	c-2.8-0.1-5.4,1.9-7,4.3c-1.6,2.4-2.4,5.1-3.5,7.8c-1.3,3.2-3.1,6.3-5.3,9c2.7,1.3,5.5-1.2,7.6-3.2c2.9-2.8,6.1-5.2,9.6-7.2
	c-1,2.7-2.1,5.5-3.1,8.2c2.5-0.6,4.6-2.1,6.7-3.6c3.9-2.8,7.8-5.6,11.7-8.4c-1.1,3.2-9.2,16.8-8,19.9c4.4,1.7,16.2-11.7,19.8-14.6
	c2.7-2.2,5.5-4.5,8.2-6.7c-0.1,2.3-0.2,4.7-0.2,7c4.4-2.2,8.4-5,12-8.4c0.5,1.2,1.3,2.3,2.2,3.2c1.4-0.5,2.9-1.1,4.3-1.6
	c2.5,5,7.7,8.5,13.3,8.8c0.6,0,1.3,0,1.9-0.3c1.2-0.6,1.4-2.3,1.1-3.6c-0.3-1.3-0.8-2.7-0.6-4c4.7,4,15.3,16,21,18.3
	c-0.9-3-7.1-14.6-8.1-17.5c3.7,0.9,7.1,2.7,10,5.1c1.5,1.2,2.9,2.7,4.7,3.6c1.7,1,3.9,1.4,5.7,0.6c-1-2-1.8-4.1-2.4-6.3
	c2.5,3.1,6.2,5.1,10.2,5.3c-1.8-4.8-4.7-9.1-8.3-12.8c1.6,1.1,4.2,0.5,5.1-1.2c-6.6-5.4-14.9-8.4-23.4-9.8c-8.4-1.4-17-1.2-25.5-0.8
	c4.4-3.2,8.8-6.5,13.2-9.7c1.2-0.9,2.5-1.9,3.1-3.3c0.6-1.4,0.1-3.4-1.3-3.9c-1-0.3-2,0.1-3,0.5c-8.9,4-16.4,11-21.1,19.5
	c-0.8-4.8-1.6-9.6-3.6-14.1c-2-4.4-5.4-8.4-10-10.1c-1.2-0.4-2.7-0.6-3.4,0.5c-0.6,1,0.1,2.2,0.7,3.2c2.1,3.2,4.3,6.4,6.4,9.6
	c1.4,2.1,4.9,5.7,4.8,8.2C288.3,94.6,283.8,93.1,278.8,93z"/>
<path class="st95" d="M275.6,133.6h3.9l2.3,2.8l2.3-2.8h3.9l-4.4,4.9v3.5H280v-3.5L275.6,133.6z M294.6,140.5h-4l-0.6,1.4h-3.6
	l4.3-8.4h3.8l4.3,8.4h-3.7L294.6,140.5z M293.9,138.7l-1.3-3l-1.2,3H293.9z M299.9,133.6h4.6l1.8,5.1l1.8-5.1h4.6v8.4h-2.9v-6.4
	l-2.2,6.4H305l-2.2-6.4v6.4h-2.9V133.6z M314.9,133.6h3.5v6.3h5.5v2.1h-9V133.6z"/>
<path class="st1" d="M275.8,134.1h3.9l2.3,2.6l2.3-2.6h3.9l-4.4,4.5v3.3h-3.5v-3.3L275.8,134.1z M294.8,140.6h-4l-0.6,1.3h-3.6
	l4.3-7.8h3.8l4.3,7.8h-3.7L294.8,140.6z M294,138.9l-1.3-2.8l-1.2,2.8H294z M300.1,134.1h4.6l1.8,4.7l1.8-4.7h4.6v7.8H310V136
	l-2.2,5.9h-2.6L303,136v5.9h-2.9V134.1z M315.1,134.1h3.5v5.9h5.5v1.9h-9V134.1z"/>
<path class="st81" d="M276.6,145.2c-8.1-7.3-22.9-13-33.7-11.7c-1.3,2.4-1.8,6.7-5.8,7.4c-4,0.9-8.8-3-8.9,1.4
	c-0.1,2.4,3.1,5.7,3.7,8c0.8,3.1,1.5,7.3-1.4,8.5c-2.9,1.2-10.1,1.3-13.2,1c1.5,2.4,4.2,4.9,4.5,7.7c0.3,2.8,1.7,5.5-1.1,6.3
	c4,3.7,5.9,9.6,4.8,15c-0.4,1.9-1.1,3.8-1.2,5.7c-0.1,2.5,1.1,4.9,3,6.5c0.8,0.7,1.4,1.2,1.8,1.6c12.7-6.7,20.3-22,29.7-34.5
	c2.6-3.5,6.3-6.1,9.9-8.5c4.8-3.1,10.3-4.8,16-5.7C282.3,150.9,279.6,147.9,276.6,145.2z"/>
<path class="st81" d="M325.2,146.8c8.1-7.3,22.9-13,33.7-11.7c1.3,2.4,1.8,6.7,5.8,7.4c4,0.9,8.8-3,8.9,1.4c0.1,2.4-3.1,5.7-3.7,8
	c-0.8,3.1-1.5,7.3,1.4,8.5c2.9,1.2,10.1,1.3,13.2,1c-1.5,2.4-4.2,4.9-4.5,7.7c-0.3,2.8-1.7,5.5,1.1,6.3c-4,3.7-5.9,9.6-4.8,15
	c0.4,1.9,1.1,3.8,1.2,5.7c0.1,2.5-1.1,4.9-3,6.5c-0.8,0.7-1.4,1.2-1.8,1.6c-14.8-5.7-20.1-19.4-29.8-34.5c-2.4-3.7-6.3-6.1-9.9-8.5
	c-4.8-3.1-10.3-4.8-16-5.7C319.5,152.5,322.2,149.5,325.2,146.8z"/>
<path class="st96" d="M423.4,160.9c-0.1-1.6-0.3-3.1-0.5-4.7c-4.1-28.7-54.3-25.5-74.9-20.8c-14.3,3.3-23,11.2-25.6,20.3
	c-4,13.9-20.4-4.7-20.4-4.7s-26.9,11.2-27.3,2.3c-0.2-5.2-8.2-16.1-27.6-19.1c-20.9-3.2-68.1-6.8-72.2,21.9c-0.2,1.6-0.2,3,0,1.5
	c4.1-28.7,51.3-25.1,72.2-21.9c19.4,2.9,25.9,13.6,26.1,18.8c0.4,8.9,28.8-2.1,28.8-2.1s18.5,18.6,22.6,4.7
	c2.6-9.1,9.1-17,23.4-20.3c20.6-4.7,70.8-7.9,74.9,20.8c0.2,1.6,0.4,3.1,0.5,4.7c0.1-1.5,0.1-3,0.1-4.5
	C423.5,158.9,423.4,159.9,423.4,160.9z"/>
<path class="st97" d="M254.4,174.9c-0.3,0.8-0.5,1.6-0.2,2.4c0.4,0.9,1.4,1.4,2.4,1.7c4.4,1.2,9-0.4,13.3-1.9
	c9.9-3.4,21.2-9,31.3-9.1c14.3-0.2,36.5,15.9,41.3,8.9c1.1-1.6,3.4-6.1-2.8-13.4c-14.3-16.7-23.6-18.9-38.6-19.6
	C283.4,143,260.8,156,254.4,174.9z"/>
<path class="st98" d="M194.7,173.6c-1.4-1.2-2-3.3-1.1-4.9c1.1,0.3,2.3,0.4,3.4,0.3c-0.9-1.4,0.1-3.3,1.5-4.1
	c1.4-0.8,3.2-0.6,4.8-0.4c2.1,0.3,4.3,0.7,6.3,1.5c1.1,0.5,2.1,1.1,3.2,1.7c3.4,2,6.7,4.2,9.5,6.9c2.8,2.7,5.1,6.1,5.9,10
	c0.3,1.3,0.3,2.6-0.2,3.8c-0.5,1.2-1.8,2.1-3.1,1.8c0.2,1.3-0.5,2.7-1.6,3.5c-1.1,0.8-2.4,1.1-3.8,1.3c-3.7,0.4-7.5-0.5-10.5-2.6
	c-3-2.1-5.1-5.5-5.5-9.2c-0.2-1.7,0-3.4-0.5-5.1C201.7,174.2,197.3,175.9,194.7,173.6z"/>
<path class="st99" d="M224.2,179.6c1.8,2.7,3.1,6.1,1.8,9.1c-1.2,2.8-4.4,4.4-7.5,4.4s-6-1.3-8.6-3c-5.1-3.3-14.2-14.5-6.6-20
	C209.7,165.5,220.9,174.7,224.2,179.6z"/>
<path class="st100" d="M198.8,170.7c-1,3.2-3.8,5.6-6.9,7c-3.1,1.4-6.5,1.9-9.8,2.2c3.5,1.1,7.5,0.8,10.8-0.7
	c-1.9,2.3-4.4,4.2-7.2,5.4c8.4-0.1,13.7-10.6,20.8-12.8c1.9-0.6,11.6,1.3,13.7,2.7c-2.9-3.9-7.6-6.5-12.5-6.6
	c-4.9-0.2-9.8,2-12.9,5.8"/>
<circle class="st101" cx="206.1" cy="178.2" r="2.4"/>
<path class="st98" d="M402,169c1.4-1.2,2-3.3,1.1-4.9c-1.1,0.3-2.3,0.4-3.4,0.3c0.9-1.4-0.1-3.3-1.5-4.1c-1.4-0.8-3.2-0.6-4.8-0.4
	c-2.1,0.3-4.3,0.7-6.3,1.5c-1.1,0.5-2.1,1.1-3.2,1.7c-3.4,2-6.7,4.2-9.5,6.9c-2.8,2.7-5.1,6.1-5.9,10c-0.3,1.3-0.3,2.6,0.2,3.8
	c0.5,1.2,1.8,2.1,3.1,1.8c-0.2,1.3,0.5,2.7,1.6,3.5c1.1,0.8,2.4,1.1,3.8,1.3c3.7,0.4,7.5-0.5,10.5-2.6c3-2.1,5.1-5.5,5.5-9.2
	c0.2-1.7,0-3.4,0.5-5.1C395,169.5,399.4,171.3,402,169z"/>
<path class="st99" d="M377.5,172.4c-2.1,1.8-4.1,4.3-3.9,7.1c0.2,3,2.9,5.1,5.5,6.7c1.4,0.8,2.8,1.6,4.4,1.9
	c5.3,1.2,10.8-2.6,12.9-7.5c1.7-4,2.8-14.3-2-16C389.9,163,380.6,169.7,377.5,172.4z"/>
<path class="st100" d="M393.8,164c2,0,3.8,1.1,5.7,1.9c5.6,2.4,11.9,3.1,17.9,1.9c0.4,1.1-1,1.9-2.2,2.1c-4.3,0.9-8.8,1.1-13.2,0.8
	c1.8,1.4,4.2,1.8,6.5,2.1c3.4,0.5,6.7,1,10.1,1.6c-2.5,1.7-5.7,2.1-8.8,1.8c-3-0.3-5.9-1.3-8.8-2.3c3,3.2,6.7,5.9,10.7,7.7
	c-4.3,0.8-9.7-1.4-13.3-7.7c-2.4-4.1-4.8-4.7-8-5.5s-12.7,3.4-12.7,3.4S384.2,164.1,393.8,164z"/>
<circle class="st101" cx="383.7" cy="174.9" r="2.4"/>
<path class="st1" d="M190.8,146.5c-6,3.7-9.3,9.6-10.8,12.9c4.6,23.5,19.9,38.2,19.9,38.2c6.6,0.2,10.4,1,10.4,1
	C192.2,182.2,190.9,153.8,190.8,146.5z"/>
<path class="st16" d="M436.7,240.8c0,0,17.2,0.8,27.7-3.5c0,0-7.6,31.9-33.3,32.2"/>
<path class="st102" d="M85.6,213.5c-0.3,3.1,0,7.1,3,8c1.7,0.5,3.8-0.1,4.6-1.8c0.9-2.1,0.7-6.4,0.5-8.8c-0.5-4.7-2.9-22.5-4.1-25.5
	C87.6,194.3,86,209.2,85.6,213.5z"/>
<path class="st16" d="M432.4,230.2c0,0-2.4,6.3-2.4,9.9c0,0-6.8-0.3-9.6-0.9C420.4,239.2,426.4,229.7,432.4,230.2z"/>
<path class="st54" d="M406,246.2c-4,7.5-6.5,15.7-9,23.8c2.5-3.1,5.1-6.2,7.6-9.3c-0.2,4.4-0.3,8.8-0.5,13.2
	c5.1-7.6,6.7-16.9,10.8-25.1c4-8.1,10.3-14.1,17.7-19.1c-4.5-0.4-10.6-1.4-14.6,1.2C412.8,234.5,408.9,240.8,406,246.2z"/>
<path class="st18" d="M565.9,242.3c1.1-4.9,4.3-8.1,9.1-9.5c4.2-1.2,9.3,2.7,13.6,2.4c5.2-0.3,8.8-3.1,13.8-1.9
	c3.8,0.9,7.8,5.5,11.1,6.1c2.3,0.4,7.6-0.2,9.8,0.3c2.9,0.7,4.8,4.5,7.7,5.2c1.5,0.4,3.1-0.1,4.7,0c4.3,0.4,9.1,3.2,8.1,9.9
	c-1.8,13.1-13.4,29-22.4,39.1c-4.1,4.6-14.3,8.8-20.5,8.9c-22.1,0.2-28.9-20.6-30.8-29.9C568.6,265.1,564.3,249.7,565.9,242.3z"/>
<path class="st19" d="M635.6,244.8c-1.6-0.1-3.1,0.3-4.7,0c-2.9-0.7-4.8-4.5-7.7-5.2c-2.2-0.5-7.5,0.1-9.8-0.3
	c-3.3-0.6-7.3-5.1-11.1-6.1c-5-1.2-8.7,1.5-13.8,1.9c-4.3,0.3-9.4-3.6-13.6-2.4c-4.8,1.3-8,4.6-9.1,9.5c-0.5,2.2-0.4,5-0.1,8.1
	c0-0.1,0.1-0.1,0.1-0.2c1.8-3.7,2.2-10.5,8.1-9.8c2.3,0.3,4,2.1,5.9,3.3c4.3,2.8,10.2,2.7,14.4-0.3c1-0.7,1.9-1.6,3-1.9
	c2.2-0.8,4.6,0.4,6.4,2c1.8,1.5,3.2,3.4,5.3,4.5c2.1,1.1,4.7,1.2,6.8,0.3c1.5-0.7,3-1.8,4.7-1.8c3.2,0.1,4.7,4.3,7.8,5.2
	c3.1,0.9,6.4-2,9.5-1.1c2.9,0.8,4,4.3,4.5,7.4c0.1,0.8,0.3,1.7,0.4,2.5c0.6-1.9,1-3.8,1.3-5.6C644.6,248,639.9,245.2,635.6,244.8z"
	/>
<path class="st20" d="M634.2,276.9c-3.7-3.5-8.6,2.8-14,1.6c-3.8-0.5-5.5-4.5-8.3-5.3c-2.7-0.8-4.2,2.4-10.3,2
	c-4.3-0.2-6.4-3.4-10.2-3.3c-3.8,0.1-5.9,1.8-8.4,3.4c-1.9,1.3-4.2-0.3-4.2-0.3s-7.6-4.1-8.6-1.3c2,9.5,8.9,29.6,30.7,29.4
	c6.2,0,16.4-4.3,20.5-8.9c4.2-4.7,8.9-10.7,13-17.1C634.3,277.1,634.2,277,634.2,276.9z"/>
<path d="M490.1,158.4c-0.4-1.4-3.1-1.7-4.5-1c-3.7,1.7-2.7,4.9-2.4,5.3c1.5,2.6,5.7,2.5,7.8,1c4.2-3.1,1.1-13.6,1.3-17.5
	c1.4-0.2,7.6,0.7,7.6,0.4c0-1.3-0.3-3.7-0.8-4.9c-3.9-0.2-10.8-2-11.3,1.5C487.2,147.2,489.1,154.7,490.1,158.4z"/>
<path d="M478.6,126.3c-0.2-1.9,1.4-4.7-0.1-5c0,0-16.6-2-17,1.2c-0.5,3.9,1.3,11.4,2.4,15.2c-0.4-1.4-3.1-1.7-4.5-1
	c-3.7,1.7-2.7,4.9-2.4,5.3c1.5,2.6,5.7,2.5,7.8,1c4.2-3.1,1.1-13.6,1.3-17.5c1.4-0.2,7.3,0.7,7.6,0.4c0.3,4,1.6,9.2,2.4,12.1
	c-0.4-1.4-3.1-1.7-4.5-1c-3.7,1.7-2.7,4.9-2.4,5.3c1.5,2.6,5.7,2.5,7.8,1C481,140.2,478.4,130.1,478.6,126.3z"/>
</svg>
