<svg width="1200" height="628" viewBox="0 0 1200 628" fill="none" xmlns="http://www.w3.org/2000/svg">
<g clip-path="url(#clip0_1139_1017)">
<g style="mix-blend-mode:soft-light" opacity="0.2">
<path d="M263.945 622.722L157.117 442.278V339.748C168.916 339.748 178.419 329.718 178.419 317.368C178.419 305.018 168.916 294.989 157.117 294.989H157.037H62.7211H60.9789C49.1795 294.989 39.5974 305.018 39.5974 317.368C39.5974 329.718 49.1795 339.748 60.9789 339.748H62.7211V442.278L-44.1074 622.722C-58.045 650.075 -40.7022 684.224 -11.0848 685.882C-10.1345 685.965 -9.18424 685.965 -8.23395 685.965H228.072C229.022 685.965 229.972 685.965 230.923 685.882C260.461 684.224 277.804 650.075 263.945 622.722Z" fill="white"/>
<path d="M222.924 610.704L185.784 553.263C176.36 561.138 167.411 566.277 149.039 570.089C115.541 576.969 100.654 558.568 77.4506 537.1C66.2847 526.74 55.9899 525.165 43.3985 527.569L-3.16573 610.787C-13.3814 630.845 -0.631618 655.877 21.0667 657.12C21.7794 657.12 22.4921 657.203 23.2048 657.203H196.554C197.266 657.203 197.979 657.203 198.692 657.12C220.39 655.877 233.14 630.762 222.924 610.704Z" fill="black"/>
<path d="M150.94 529.392C157.15 529.392 162.185 524.123 162.185 517.622C162.185 511.122 157.15 505.852 150.94 505.852C144.729 505.852 139.695 511.122 139.695 517.622C139.695 524.123 144.729 529.392 150.94 529.392Z" fill="black"/>
<path d="M151.595 485.003C154.595 481.863 154.595 476.773 151.595 473.633C148.595 470.493 143.732 470.493 140.732 473.633C137.732 476.773 137.732 481.863 140.732 485.003C143.732 488.143 148.595 488.143 151.595 485.003Z" fill="black"/>
<path d="M121.322 511.406C126.615 511.406 130.905 506.915 130.905 501.376C130.905 495.837 126.615 491.347 121.322 491.347C116.03 491.347 111.74 495.837 111.74 501.376C111.74 506.915 116.03 511.406 121.322 511.406Z" fill="black"/>
<path d="M130.904 624.38C135.715 624.38 139.615 620.298 139.615 615.263C139.615 610.227 135.715 606.145 130.904 606.145C126.094 606.145 122.193 610.227 122.193 615.263C122.193 620.298 126.094 624.38 130.904 624.38Z" fill="white"/>
<path d="M180.834 602.456C182.149 595.682 177.969 589.074 171.497 587.697C165.025 586.321 158.712 590.696 157.396 597.47C156.081 604.244 160.261 610.852 166.733 612.229C173.205 613.605 179.518 609.23 180.834 602.456Z" fill="white"/>
<path d="M182.062 634.575C186.217 634.575 189.585 631.05 189.585 626.701C189.585 622.352 186.217 618.827 182.062 618.827C177.907 618.827 174.539 622.352 174.539 626.701C174.539 631.05 177.907 634.575 182.062 634.575Z" fill="white"/>
<path d="M399.124 363.371V259.845C410.924 259.845 420.427 249.816 420.427 237.466C420.427 225.116 410.924 215.087 399.124 215.087H399.045H304.729H302.986C291.187 215.087 281.605 225.116 281.605 237.466C281.605 249.816 291.187 259.845 302.986 259.845H304.729V362.542C262.045 381.44 232.111 425.701 232.111 477.257C232.111 546.052 285.327 601.752 351.055 601.752C416.784 601.752 470 546.052 470 477.257C470 426.447 440.858 382.766 399.124 363.371Z" fill="white"/>
<path d="M424.545 426.613C413.775 436.145 391.284 453.634 370.774 454.297C342.661 455.209 337.672 434.487 309.559 434.985C293.088 435.233 276.695 445.18 265.925 453.385C263.945 461.011 262.916 468.968 262.916 477.257C262.916 528.149 302.353 569.426 350.976 569.426C399.599 569.426 439.036 528.149 439.036 477.257C439.036 458.524 433.731 441.118 424.545 426.613Z" fill="black"/>
<path d="M329.199 420.645C332.085 420.645 334.425 418.196 334.425 415.175C334.425 412.153 332.085 409.704 329.199 409.704C326.312 409.704 323.972 412.153 323.972 415.175C323.972 418.196 326.312 420.645 329.199 420.645Z" fill="black"/>
<path d="M363.013 392.464C369.093 392.464 374.021 387.306 374.021 380.943C374.021 374.58 369.093 369.421 363.013 369.421C356.934 369.421 352.006 374.58 352.006 380.943C352.006 387.306 356.934 392.464 363.013 392.464Z" fill="black"/>
<path d="M365.072 426.613C369.971 426.613 373.941 422.457 373.941 417.33C373.941 412.203 369.971 408.046 365.072 408.046C360.174 408.046 356.203 412.203 356.203 417.33C356.203 422.457 360.174 426.613 365.072 426.613Z" fill="black"/>
<path d="M346.937 487.866C352.011 487.866 356.124 483.561 356.124 478.251C356.124 472.941 352.011 468.636 346.937 468.636C341.864 468.636 337.751 472.941 337.751 478.251C337.751 483.561 341.864 487.866 346.937 487.866Z" fill="white"/>
<path d="M384.157 458.607C388.356 458.607 391.76 455.045 391.76 450.65C391.76 446.256 388.356 442.693 384.157 442.693C379.959 442.693 376.555 446.256 376.555 450.65C376.555 455.045 379.959 458.607 384.157 458.607Z" fill="white"/>
<path d="M394.927 492.757C400.875 492.757 405.697 487.71 405.697 481.484C405.697 475.258 400.875 470.211 394.927 470.211C388.979 470.211 384.157 475.258 384.157 481.484C384.157 487.71 388.979 492.757 394.927 492.757Z" fill="white"/>
<path d="M135.577 267.305C143.143 267.305 149.277 260.885 149.277 252.966C149.277 245.046 143.143 238.626 135.577 238.626C128.011 238.626 121.877 245.046 121.877 252.966C121.877 260.885 128.011 267.305 135.577 267.305Z" fill="white"/>
<path d="M182.616 214.341C187.996 214.341 192.357 209.776 192.357 204.145C192.357 198.515 187.996 193.95 182.616 193.95C177.237 193.95 172.876 198.515 172.876 204.145C172.876 209.776 177.237 214.341 182.616 214.341Z" fill="white"/>
<path d="M336.009 177.705C340.295 177.705 343.77 174.068 343.77 169.582C343.77 165.096 340.295 161.459 336.009 161.459C331.723 161.459 328.248 165.096 328.248 169.582C328.248 174.068 331.723 177.705 336.009 177.705Z" fill="white"/>
<path d="M382.098 188.314C389.183 188.314 394.927 182.303 394.927 174.887C394.927 167.471 389.183 161.459 382.098 161.459C375.013 161.459 369.269 167.471 369.269 174.887C369.269 182.303 375.013 188.314 382.098 188.314Z" fill="white"/>
<path d="M365.072 145.213C369.97 145.213 373.941 141.057 373.941 135.93C373.941 130.803 369.97 126.647 365.072 126.647C360.174 126.647 356.203 130.803 356.203 135.93C356.203 141.057 360.174 145.213 365.072 145.213Z" fill="white"/>
<path d="M751.945 622.722L645.117 442.278V339.748C656.916 339.748 666.419 329.718 666.419 317.368C666.419 305.018 656.916 294.989 645.117 294.989H645.037H550.721H548.979C537.179 294.989 527.597 305.018 527.597 317.368C527.597 329.718 537.179 339.748 548.979 339.748H550.721V442.278L443.893 622.722C429.955 650.075 447.298 684.224 476.915 685.882C477.865 685.965 478.816 685.965 479.766 685.965H716.072C717.022 685.965 717.972 685.965 718.923 685.882C748.461 684.224 765.804 650.075 751.945 622.722Z" fill="white"/>
<path d="M710.924 610.704L673.784 553.263C664.36 561.138 655.411 566.277 637.039 570.089C603.541 576.969 588.654 558.568 565.451 537.1C554.285 526.74 543.99 525.165 531.399 527.569L484.834 610.787C474.619 630.845 487.368 655.877 509.067 657.12C509.779 657.12 510.492 657.203 511.205 657.203H684.554C685.266 657.203 685.979 657.203 686.692 657.12C708.39 655.877 721.14 630.762 710.924 610.704Z" fill="black"/>
<path d="M638.94 529.392C645.15 529.392 650.185 524.123 650.185 517.622C650.185 511.122 645.15 505.852 638.94 505.852C632.729 505.852 627.695 511.122 627.695 517.622C627.695 524.123 632.729 529.392 638.94 529.392Z" fill="black"/>
<path d="M639.595 485.003C642.595 481.863 642.595 476.773 639.595 473.633C636.595 470.493 631.732 470.493 628.732 473.633C625.732 476.773 625.732 481.863 628.732 485.003C631.732 488.143 636.595 488.143 639.595 485.003Z" fill="black"/>
<path d="M609.322 511.406C614.615 511.406 618.905 506.915 618.905 501.376C618.905 495.837 614.615 491.347 609.322 491.347C604.03 491.347 599.74 495.837 599.74 501.376C599.74 506.915 604.03 511.406 609.322 511.406Z" fill="black"/>
<path d="M618.905 624.38C623.715 624.38 627.616 620.298 627.616 615.263C627.616 610.227 623.715 606.145 618.905 606.145C614.094 606.145 610.194 610.227 610.194 615.263C610.194 620.298 614.094 624.38 618.905 624.38Z" fill="white"/>
<path d="M668.834 602.456C670.149 595.682 665.969 589.074 659.497 587.697C653.025 586.321 646.712 590.696 645.396 597.47C644.081 604.244 648.261 610.852 654.733 612.229C661.205 613.605 667.518 609.23 668.834 602.456Z" fill="white"/>
<path d="M670.062 634.575C674.217 634.575 677.585 631.05 677.585 626.701C677.585 622.352 674.217 618.827 670.062 618.827C665.907 618.827 662.539 622.352 662.539 626.701C662.539 631.05 665.907 634.575 670.062 634.575Z" fill="white"/>
<path d="M887.124 363.371V259.845C898.924 259.845 908.427 249.816 908.427 237.466C908.427 225.116 898.924 215.087 887.124 215.087H887.045H792.729H790.986C779.187 215.087 769.605 225.116 769.605 237.466C769.605 249.816 779.187 259.845 790.986 259.845H792.729V362.542C750.045 381.44 720.111 425.701 720.111 477.257C720.111 546.052 773.327 601.752 839.055 601.752C904.784 601.752 958 546.052 958 477.257C958 426.447 928.858 382.766 887.124 363.371Z" fill="white"/>
<path d="M912.545 426.613C901.775 436.145 879.284 453.634 858.774 454.297C830.661 455.209 825.672 434.487 797.559 434.985C781.088 435.233 764.695 445.18 753.925 453.385C751.945 461.011 750.916 468.968 750.916 477.257C750.916 528.149 790.353 569.426 838.976 569.426C887.6 569.426 927.037 528.149 927.037 477.257C927.037 458.524 921.731 441.118 912.545 426.613Z" fill="black"/>
<path d="M817.199 420.645C820.085 420.645 822.425 418.196 822.425 415.175C822.425 412.153 820.085 409.704 817.199 409.704C814.312 409.704 811.972 412.153 811.972 415.175C811.972 418.196 814.312 420.645 817.199 420.645Z" fill="black"/>
<path d="M851.013 392.464C857.093 392.464 862.021 387.306 862.021 380.943C862.021 374.58 857.093 369.421 851.013 369.421C844.934 369.421 840.006 374.58 840.006 380.943C840.006 387.306 844.934 392.464 851.013 392.464Z" fill="black"/>
<path d="M853.072 426.613C857.971 426.613 861.941 422.457 861.941 417.33C861.941 412.203 857.971 408.046 853.072 408.046C848.174 408.046 844.203 412.203 844.203 417.33C844.203 422.457 848.174 426.613 853.072 426.613Z" fill="black"/>
<path d="M834.937 487.866C840.011 487.866 844.124 483.561 844.124 478.251C844.124 472.941 840.011 468.636 834.937 468.636C829.864 468.636 825.751 472.941 825.751 478.251C825.751 483.561 829.864 487.866 834.937 487.866Z" fill="white"/>
<path d="M872.157 458.607C876.356 458.607 879.76 455.045 879.76 450.65C879.76 446.256 876.356 442.693 872.157 442.693C867.959 442.693 864.555 446.256 864.555 450.65C864.555 455.045 867.959 458.607 872.157 458.607Z" fill="white"/>
<path d="M882.927 492.757C888.875 492.757 893.697 487.71 893.697 481.484C893.697 475.258 888.875 470.211 882.927 470.211C876.979 470.211 872.157 475.258 872.157 481.484C872.157 487.71 876.979 492.757 882.927 492.757Z" fill="white"/>
<path d="M623.577 267.305C631.143 267.305 637.277 260.885 637.277 252.966C637.277 245.046 631.143 238.626 623.577 238.626C616.011 238.626 609.877 245.046 609.877 252.966C609.877 260.885 616.011 267.305 623.577 267.305Z" fill="white"/>
<path d="M670.616 214.341C675.996 214.341 680.357 209.776 680.357 204.145C680.357 198.515 675.996 193.95 670.616 193.95C665.237 193.95 660.876 198.515 660.876 204.145C660.876 209.776 665.237 214.341 670.616 214.341Z" fill="white"/>
<path d="M824.009 177.705C828.295 177.705 831.77 174.068 831.77 169.582C831.77 165.096 828.295 161.459 824.009 161.459C819.723 161.459 816.248 165.096 816.248 169.582C816.248 174.068 819.723 177.705 824.009 177.705Z" fill="white"/>
<path d="M870.098 188.314C877.183 188.314 882.927 182.303 882.927 174.887C882.927 167.471 877.183 161.459 870.098 161.459C863.013 161.459 857.269 167.471 857.269 174.887C857.269 182.303 863.013 188.314 870.098 188.314Z" fill="white"/>
<path d="M853.072 145.213C857.97 145.213 861.941 141.057 861.941 135.93C861.941 130.803 857.97 126.647 853.072 126.647C848.174 126.647 844.203 130.803 844.203 135.93C844.203 141.057 848.174 145.213 853.072 145.213Z" fill="white"/>
<path d="M1239.95 624.816L1133.12 444.372V341.841C1144.92 341.841 1154.42 331.812 1154.42 319.462C1154.42 307.112 1144.92 297.083 1133.12 297.083H1133.04H1038.72H1036.98C1025.18 297.083 1015.6 307.112 1015.6 319.462C1015.6 331.812 1025.18 341.841 1036.98 341.841H1038.72V444.372L931.893 624.816C917.955 652.168 935.298 686.318 964.915 687.975C965.865 688.058 966.816 688.058 967.766 688.058H1204.07C1205.02 688.058 1205.97 688.058 1206.92 687.975C1236.46 686.318 1253.8 652.168 1239.95 624.816Z" fill="white"/>
<path d="M1198.92 612.797L1161.78 555.357C1152.36 563.231 1143.41 568.37 1125.04 572.183C1091.54 579.062 1076.65 560.662 1053.45 539.194C1042.28 528.833 1031.99 527.258 1019.4 529.662L972.834 612.88C962.619 632.939 975.368 657.97 997.067 659.214C997.779 659.214 998.492 659.297 999.205 659.297H1172.55C1173.27 659.297 1173.98 659.296 1174.69 659.214C1196.39 657.97 1209.14 632.856 1198.92 612.797Z" fill="black"/>
<path d="M1126.94 531.486C1133.15 531.486 1138.19 526.216 1138.19 519.716C1138.19 513.215 1133.15 507.946 1126.94 507.946C1120.73 507.946 1115.69 513.215 1115.69 519.716C1115.69 526.216 1120.73 531.486 1126.94 531.486Z" fill="black"/>
<path d="M1127.6 487.097C1130.59 483.957 1130.59 478.866 1127.6 475.727C1124.6 472.587 1119.73 472.587 1116.73 475.727C1113.73 478.866 1113.73 483.957 1116.73 487.097C1119.73 490.236 1124.6 490.236 1127.6 487.097Z" fill="black"/>
<path d="M1097.32 513.499C1102.61 513.499 1106.9 509.009 1106.9 503.47C1106.9 497.931 1102.61 493.441 1097.32 493.441C1092.03 493.441 1087.74 497.931 1087.74 503.47C1087.74 509.009 1092.03 513.499 1097.32 513.499Z" fill="black"/>
<path d="M1106.9 626.473C1111.72 626.473 1115.62 622.391 1115.62 617.356C1115.62 612.32 1111.72 608.238 1106.9 608.238C1102.09 608.238 1098.19 612.32 1098.19 617.356C1098.19 622.391 1102.09 626.473 1106.9 626.473Z" fill="white"/>
<path d="M1156.83 604.55C1158.15 597.776 1153.97 591.168 1147.5 589.791C1141.03 588.414 1134.71 592.789 1133.4 599.563C1132.08 606.337 1136.26 612.945 1142.73 614.322C1149.21 615.699 1155.52 611.324 1156.83 604.55Z" fill="white"/>
<path d="M1158.06 636.669C1162.22 636.669 1165.59 633.143 1165.59 628.794C1165.59 624.446 1162.22 620.92 1158.06 620.92C1153.91 620.92 1150.54 624.446 1150.54 628.794C1150.54 633.143 1153.91 636.669 1158.06 636.669Z" fill="white"/>
<path d="M1111.58 269.398C1119.14 269.398 1125.28 262.978 1125.28 255.059C1125.28 247.14 1119.14 240.72 1111.58 240.72C1104.01 240.72 1097.88 247.14 1097.88 255.059C1097.88 262.978 1104.01 269.398 1111.58 269.398Z" fill="white"/>
<path d="M1158.62 216.434C1164 216.434 1168.36 211.87 1168.36 206.239C1168.36 200.608 1164 196.044 1158.62 196.044C1153.24 196.044 1148.88 200.608 1148.88 206.239C1148.88 211.87 1153.24 216.434 1158.62 216.434Z" fill="white"/>
</g>
</g>
<defs>
<clipPath id="clip0_1139_1017">
<rect width="1200" height="628" fill="white"/>
</clipPath>
</defs>
</svg>
