<svg width="393" height="200" viewBox="0 0 393 200" fill="none" xmlns="http://www.w3.org/2000/svg">
<rect x="99.1665" y="0.5" width="194.244" height="194.244" rx="11.1698" fill="white" stroke="#edebff"/>
<rect x="117.258" y="19.3459" width="157.306" height="157.306" rx="11.1698" fill="white" stroke="#edebff" stroke-dasharray="15 4"/>
<path d="M232.137 53.5903H160.817C156.052 53.5903 152.189 57.4533 152.189 62.2184V133.538C152.189 138.303 156.052 142.166 160.817 142.166H232.137C236.902 142.166 240.765 138.303 240.765 133.538V62.2184C240.765 57.4533 236.902 53.5903 232.137 53.5903Z" stroke="#702eea" stroke-miterlimit="10"/>
<path d="M196.472 103.02C194.59 103.02 193.08 101.469 193.08 99.5735C193.08 97.6609 194.59 96.1274 196.472 96.1274C197.372 96.1274 198.235 96.4905 198.871 97.1367C199.507 97.783 199.865 98.6595 199.865 99.5735C199.865 100.487 199.507 101.364 198.871 102.01C198.235 102.657 197.372 103.02 196.472 103.02ZM206.649 108.189V90.9582H186.296V108.189H206.649ZM206.649 87.5121C207.549 87.5121 208.412 87.8752 209.048 88.5214C209.684 89.1677 210.042 90.0442 210.042 90.9582V108.189C210.042 109.103 209.684 109.979 209.048 110.626C208.412 111.272 207.549 111.635 206.649 111.635H186.296C184.413 111.635 182.903 110.084 182.903 108.189V90.9582C182.903 89.0456 184.413 87.5121 186.296 87.5121H187.992V84.066C187.992 81.7811 188.885 79.5897 190.476 77.974C192.066 76.3584 194.223 75.4507 196.472 75.4507C197.586 75.4507 198.689 75.6735 199.718 76.1065C200.747 76.5394 201.682 77.174 202.469 77.974C203.257 78.774 203.881 79.7238 204.308 80.769C204.734 81.8143 204.953 82.9346 204.953 84.066V87.5121H206.649ZM196.472 78.8968C195.123 78.8968 193.829 79.4414 192.874 80.4108C191.92 81.3802 191.384 82.695 191.384 84.066V87.5121H201.561V84.066C201.561 82.695 201.025 81.3802 200.07 80.4108C199.116 79.4414 197.822 78.8968 196.472 78.8968Z" fill="#702eea"/>
<path d="M84.6665 196L314.667 196V158L84.6665 158V196Z" fill="url(#paint0_linear_1298_155193)"/>
<path d="M310.667 0L80.6665 0V38H310.667V0Z" fill="url(#paint1_linear_1298_155193)"/>
<defs>
<linearGradient id="paint0_linear_1298_155193" x1="190.845" y1="196" x2="189.048" y2="158.07" gradientUnits="userSpaceOnUse">
<stop stop-color="white"/>
<stop offset="1" stop-color="white" stop-opacity="0"/>
</linearGradient>
<linearGradient id="paint1_linear_1298_155193" x1="204.488" y1="5.43531e-07" x2="206.285" y2="37.93" gradientUnits="userSpaceOnUse">
<stop stop-color="white"/>
<stop offset="1" stop-color="white" stop-opacity="0"/>
</linearGradient>
</defs>
</svg>
