<svg width="1200" height="600" viewBox="0 0 1200 600" fill="none" xmlns="http://www.w3.org/2000/svg">
<g clip-path="url(#clip0_3547_3696)">
<rect width="1200" height="600" fill="white"/>
<path fill-rule="evenodd" clip-rule="evenodd" d="M67.0852 113.242C71.6866 110.586 71.6942 101.987 67.1022 94.0352C62.5102 86.0839 55.0575 81.7912 50.4561 84.4472C45.8547 87.1033 45.847 95.7023 50.439 103.654C55.031 111.605 62.4837 115.898 67.0852 113.242ZM67.1123 130.268C71.7043 138.219 71.6966 146.818 67.0952 149.474C62.4938 152.13 55.041 147.838 50.449 139.886C45.8571 131.935 45.8647 123.336 50.4661 120.68C55.0676 118.024 62.5203 122.317 67.1123 130.268ZM98.47 148.393C103.062 156.344 103.054 164.943 98.4529 167.599C93.8515 170.255 86.3987 165.962 81.8068 158.011C77.2148 150.06 77.2224 141.461 81.8238 138.805C86.4253 136.149 93.878 140.441 98.47 148.393ZM98.4595 112.161C103.052 120.112 103.044 128.711 98.4424 131.367C93.841 134.023 86.3883 129.731 81.7963 121.779C77.2043 113.828 77.2119 105.229 81.8134 102.573C86.4148 99.9168 93.8675 104.21 98.4595 112.161Z" fill="#F26E7E"/>
<path fill-rule="evenodd" clip-rule="evenodd" d="M161.189 103.673C165.781 95.7218 165.774 87.1228 161.172 84.4668C156.571 81.8107 149.118 86.1034 144.526 94.0548C139.934 102.006 139.942 110.605 144.543 113.261C149.145 115.917 156.597 111.625 161.189 103.673ZM161.19 120.69C165.791 123.346 165.799 131.945 161.207 139.896C156.615 147.848 149.162 152.14 144.561 149.484C139.96 146.828 139.952 138.229 144.544 130.278C149.136 122.327 156.589 118.034 161.19 120.69ZM129.839 138.785C134.441 141.442 134.448 150.041 129.856 157.992C125.264 165.943 117.811 170.236 113.21 167.58C108.609 164.924 108.601 156.325 113.193 148.373C117.785 140.422 125.238 136.129 129.839 138.785ZM129.821 102.562C134.423 105.218 134.431 113.817 129.839 121.768C125.247 129.719 117.794 134.012 113.192 131.356C108.591 128.7 108.583 120.101 113.175 112.149C117.767 104.198 125.22 99.9055 129.821 102.562Z" fill="#8A3391"/>
<path fill-rule="evenodd" clip-rule="evenodd" d="M122.437 53.6184C122.437 58.9305 114.992 63.2368 105.808 63.2368C96.6239 63.2368 89.1789 58.9305 89.1789 53.6184C89.1789 48.3063 96.6239 44 105.808 44C114.992 44 122.437 48.3063 122.437 53.6184ZM91.0863 71.6949C91.0863 77.007 83.6412 81.3133 74.4572 81.3133C65.2732 81.3133 57.8281 77.007 57.8281 71.6949C57.8281 66.3828 65.2732 62.0765 74.4572 62.0765C83.6412 62.0765 91.0863 66.3828 91.0863 71.6949ZM137.2 81.3133C146.384 81.3133 153.829 77.007 153.829 71.6949C153.829 66.3828 146.384 62.0765 137.2 62.0765C128.016 62.0765 120.571 66.3828 120.571 71.6949C120.571 77.007 128.016 81.3133 137.2 81.3133ZM122.437 89.8114C122.437 95.1235 114.992 99.4298 105.808 99.4298C96.6239 99.4298 89.1789 95.1235 89.1789 89.8114C89.1789 84.4993 96.6239 80.1929 105.808 80.1929C114.992 80.1929 122.437 84.4993 122.437 89.8114Z" fill="#F7BF2A"/>
<path d="M64.5703 244H84.8903C90.0903 244 94.3303 245.76 97.7703 249.2C101.21 252.64 102.97 256.88 102.97 262C102.97 267.04 101.21 271.36 97.7703 274.8C94.3303 278.24 90.0903 280 84.8903 280H72.0103V300H64.5703V244ZM72.0103 273.04H84.8903C88.0103 273.04 90.5703 272 92.5703 269.92C94.5703 267.76 95.6103 265.12 95.6103 262C95.6103 255.6 91.0503 250.96 84.8903 250.96H72.0103V273.04ZM138.638 281.2V260H145.598V300H138.638V294.24C135.838 298.8 131.518 301.04 125.678 301.04C116.318 301.04 110.158 294.72 110.158 284.56V260H117.118V284.16C117.118 290.64 120.878 294.4 127.038 294.4C133.998 294.4 138.638 290.16 138.638 281.2ZM163.154 300H156.194V241.6H163.154V300ZM201.372 281.2V260H208.332V300H201.372V294.24C198.572 298.8 194.252 301.04 188.412 301.04C179.052 301.04 172.892 294.72 172.892 284.56V260H179.852V284.16C179.852 290.64 183.612 294.4 189.772 294.4C196.732 294.4 201.372 290.16 201.372 281.2ZM262.128 258.96C271.088 258.96 277.168 265.2 277.168 275.12V300H270.208V275.36C270.208 269.2 266.768 265.6 261.408 265.6C255.408 265.6 251.568 269.52 251.568 277.76V300H244.608V275.36C244.608 269.2 241.328 265.6 236.128 265.6C230.288 265.6 225.888 269.68 225.888 277.76V300H218.928V260H225.888V265.36C228.608 261.12 232.608 258.96 237.808 258.96C243.168 258.96 247.088 261.2 249.568 265.76C252.368 261.2 256.528 258.96 262.128 258.96ZM290.339 252.72C287.699 252.72 285.619 250.64 285.619 248.08C285.619 245.52 287.699 243.36 290.339 243.36C292.899 243.36 294.979 245.52 294.979 248.08C294.979 250.64 292.899 252.72 290.339 252.72ZM293.779 300H286.819V260H293.779V300ZM327.917 252.72C325.277 252.72 323.197 250.64 323.197 248.08C323.197 245.52 325.277 243.36 327.917 243.36C330.477 243.36 332.557 245.52 332.557 248.08C332.557 250.64 330.477 252.72 327.917 252.72ZM331.357 300H324.397V260H331.357V300ZM361.895 258.96C371.255 258.96 377.415 265.28 377.415 275.44V300H370.455V275.84C370.455 269.36 366.695 265.6 360.535 265.6C353.575 265.6 348.935 269.84 348.935 278.8V300H341.975V260H348.935V265.76C351.735 261.2 356.055 258.96 361.895 258.96ZM403.292 244H443.692V251.04H427.132V300H419.772V251.04H403.292V244ZM470.255 258.96C479.615 258.96 485.775 265.28 485.775 275.44V300H478.815V275.84C478.815 269.36 475.055 265.6 468.895 265.6C461.935 265.6 457.295 269.84 457.295 278.8V300H450.335V244H457.295V265.76C460.095 261.2 464.415 258.96 470.255 258.96ZM502.451 260V266.72C504.771 261.76 508.931 259.28 514.931 259.28V266.56C511.491 266.4 508.611 267.28 506.131 269.28C503.651 271.28 502.451 274.4 502.451 278.8V300H495.491V260H502.451ZM557.953 283.2H524.433C525.793 290.32 531.313 294.48 538.913 294.48C544.193 294.48 548.033 292.56 550.433 288.64L556.353 292C552.433 298 546.593 301.04 538.753 301.04C532.433 301.04 527.233 299.04 523.233 295.12C519.313 291.12 517.313 286.08 517.313 280C517.313 274 519.233 268.96 523.153 264.96C527.073 260.96 532.113 258.96 538.273 258.96C544.113 258.96 548.913 261.04 552.593 265.2C556.353 269.28 558.193 274.24 558.193 280.08C558.193 281.12 558.113 282.16 557.953 283.2ZM538.273 265.52C530.833 265.52 525.633 270.08 524.433 277.12H551.153C549.953 269.52 544.673 265.52 538.273 265.52ZM604.516 283.2H570.996C572.356 290.32 577.876 294.48 585.476 294.48C590.756 294.48 594.596 292.56 596.996 288.64L602.916 292C598.996 298 593.156 301.04 585.316 301.04C578.996 301.04 573.796 299.04 569.796 295.12C565.876 291.12 563.876 286.08 563.876 280C563.876 274 565.796 268.96 569.716 264.96C573.636 260.96 578.676 258.96 584.836 258.96C590.676 258.96 595.476 261.04 599.156 265.2C602.916 269.28 604.756 274.24 604.756 280.08C604.756 281.12 604.676 282.16 604.516 283.2ZM584.836 265.52C577.396 265.52 572.196 270.08 570.996 277.12H597.716C596.516 269.52 591.236 265.52 584.836 265.52ZM677.477 244H685.877V300H678.517V256.24L660.197 286.72H659.237L640.917 256.32V300H633.477V244H641.877L659.717 273.6L677.477 244ZM700.652 252.72C698.012 252.72 695.932 250.64 695.932 248.08C695.932 245.52 698.012 243.36 700.652 243.36C703.212 243.36 705.292 245.52 705.292 248.08C705.292 250.64 703.212 252.72 700.652 252.72ZM704.092 300H697.132V260H704.092V300ZM734.63 258.96C743.99 258.96 750.15 265.28 750.15 275.44V300H743.19V275.84C743.19 269.36 739.43 265.6 733.27 265.6C726.31 265.6 721.67 269.84 721.67 278.8V300H714.71V260H721.67V265.76C724.47 261.2 728.79 258.96 734.63 258.96ZM787.466 281.2V260H794.426V300H787.466V294.24C784.666 298.8 780.346 301.04 774.506 301.04C765.146 301.04 758.986 294.72 758.986 284.56V260H765.946V284.16C765.946 290.64 769.706 294.4 775.866 294.4C782.826 294.4 787.466 290.16 787.466 281.2ZM826.782 260V266.72H816.142V288.4C816.142 294.56 819.662 294.08 826.782 293.76V300C814.622 301.6 809.182 298.32 809.182 288.4V266.72H801.262V260H809.182V250.88L816.142 248.8V260H826.782ZM871.391 283.2H837.871C839.231 290.32 844.751 294.48 852.351 294.48C857.631 294.48 861.471 292.56 863.871 288.64L869.791 292C865.871 298 860.031 301.04 852.191 301.04C845.871 301.04 840.671 299.04 836.671 295.12C832.751 291.12 830.751 286.08 830.751 280C830.751 274 832.671 268.96 836.591 264.96C840.511 260.96 845.551 258.96 851.711 258.96C857.551 258.96 862.351 261.04 866.031 265.2C869.791 269.28 871.631 274.24 871.631 280.08C871.631 281.12 871.551 282.16 871.391 283.2ZM851.711 265.52C844.271 265.52 839.071 270.08 837.871 277.12H864.591C863.391 269.52 858.111 265.52 851.711 265.52ZM884.069 270.8C884.069 273.92 887.589 275.6 891.989 276.8C898.229 278.16 906.549 280.48 906.469 289.04C906.469 292.64 905.029 295.6 902.229 297.76C899.429 299.92 895.909 301.04 891.509 301.04C883.749 301.04 877.909 297.36 875.589 291.68L881.589 288.24C882.869 292.08 886.629 294.48 891.509 294.48C896.069 294.48 899.429 292.8 899.429 289.04C899.429 285.92 895.909 284.16 891.509 283.12C885.189 281.44 877.029 279.36 877.029 270.88C877.029 267.44 878.389 264.56 881.029 262.32C883.749 260.08 887.109 258.96 891.189 258.96C897.669 258.96 903.029 262.08 905.589 267.28L899.749 270.56C898.309 267.12 895.429 265.44 891.189 265.44C887.269 265.44 884.069 267.36 884.069 270.8Z" fill="black"/>
<g clip-path="url(#clip1_3547_3696)">
<path fill-rule="evenodd" clip-rule="evenodd" d="M999 527.923H1011.5V540.148H1024H1036.5H1049V552.373V564.597H1061.5V576.822V589.047V601.272H1049V613.497H1036.5V625.722H1024H1011.5V613.497H999H986.5V601.272H974H961.5V613.497H949V625.722H936.5H924V637.947H911.5H899H886.5H874V625.722H861.5H849V613.497H836.5V601.272V589.047V576.822V564.597H849V552.373H861.5V552.434H861.623V564.597H874V552.373H886.5H899V564.597H911.5V552.373H924V540.148V527.923H936.5H949H961.5V540.148H974V527.923H986.5H999ZM861.623 564.597V564.659H861.5H849.123V564.597V552.434H861.5V564.597H861.623Z" fill="#FDFDFD"/>
<path fill-rule="evenodd" clip-rule="evenodd" d="M899 515.698H886.5H874V527.923H861.5V540.148V552.373H874V540.148H886.5H899V552.373H911.5V540.148V527.923H899V515.698Z" fill="#F7BF2A"/>
<path fill-rule="evenodd" clip-rule="evenodd" d="M899 430.124H886.5V442.349H874H861.5H849H836.5V454.574V466.799V479.023H849V491.248H861.5H874H886.5H899V479.023H911.5V466.799V454.574H899V442.349V430.124ZM861.5 466.799H849V454.574H861.5V466.799Z" fill="#F7BF2A"/>
<path fill-rule="evenodd" clip-rule="evenodd" d="M961.5 381.225H949H936.5H924H911.5H899V393.449H886.5V405.674V417.899H899V430.124H911.5V442.349V454.574H924V466.799H936.5V479.023H924V491.248H911.5H899V503.473H911.5H924H936.5H949V491.248H961.5H974V479.023H986.5V466.799V454.574H999V442.349H1011.5H1024H1036.5V430.124H1024H1011.5V417.899H1024H1036.5H1049V405.674H1036.5H1024H1011.5H999V393.449H986.5H974H961.5V381.225ZM949 503.473V515.698H961.5V527.923H974V515.698H986.5H999V503.473H986.5H974H961.5H949ZM924 417.899V430.124V442.349H936.5V430.124V417.899H924Z" fill="#805AC3"/>
<path fill-rule="evenodd" clip-rule="evenodd" d="M861.5 564.598H874V576.823V589.047V601.272H886.5V613.497H899H911.5H924V601.272H936.5V613.497H924V625.722H911.5H899H886.5H874V613.497H861.5V601.272H849V589.047V576.823V564.598H861.5ZM999 576.823H986.5V564.598H974V576.823V589.047H986.5V601.272H999H1011.5V613.497H1024H1036.5V601.272H1024V589.047H1011.5H999V576.823Z" fill="#CACEF4"/>
<path fill-rule="evenodd" clip-rule="evenodd" d="M974 369H961.5H949H936.5H924H911.5H899V381.225H911.5H924H936.5H949H961.5V393.45H974H986.5H999V381.225H986.5H974V369ZM1049 405.675V393.45H1036.5H1024H1011.5H999V405.675H1011.5H1024H1036.5H1049ZM1049 417.899H1061.5V405.675H1049V417.899ZM1036.5 442.349H1049V430.124V417.899H1036.5H1024H1011.5V430.124H1024H1036.5V442.349ZM999 454.574H1011.5H1024H1036.5V442.349H1024H1011.5H999V454.574ZM986.5 479.024H999V466.799V454.574H986.5V466.799V479.024ZM949 503.473V491.249H961.5H974V479.024H986.5V491.249H999V503.473H1011.5V515.698H1024V527.923H1036.5H1049V540.148H1061.5V552.373V564.598H1074V576.823V589.047V601.272H1061.5V613.497H1049V625.722H1036.5V637.947H1024V650.172H1036.5V662.397V674.621H1024V686.846H1011.5V699.071H999H986.5H974H961.5V686.846H949V674.621V662.397H936.5V650.172V637.947H924V650.172H911.5H899H886.5H874V637.947H861.5H849V625.722H836.5V613.497H824V601.272V589.047V576.823V564.598H836.5V552.373H849V540.148V527.923H861.5V515.698H874V503.473H861.5H849V491.249H836.5V479.024H824V466.799V454.574V442.349H836.5V430.124H849H861.5H874V417.899V405.675V393.45H886.5V381.225H899V393.45H886.5V405.675V417.899H899V430.124H911.5V442.349V454.574H924V466.799H936.5V479.024H924V491.249H911.5H899V503.473H911.5H924H936.5H949ZM961.5 527.923V515.698H949V503.473H961.5H974H986.5H999V515.698H986.5H974V527.923H986.5H999H1011.5V540.148H1024H1036.5H1049V552.373V564.598H1061.5V576.823V589.047V601.272H1049V613.497H1036.5V625.722H1024H1011.5V613.497H999H986.5V625.722H999V637.947H1011.5V650.172H1024V662.397V674.621H1011.5V686.846H999H986.5H974H961.5V674.621V662.397H949V650.172V637.947V625.722H936.5H924V637.947H911.5H899H886.5H874V625.722H861.5H849V613.497H836.5V601.272V589.047V576.823V564.598H849V552.373H861.5V540.148V527.923H874V515.698H886.5H899V527.923H911.5V540.148V552.373H924V540.148V527.923H936.5H949H961.5ZM899 552.373V564.598H911.5V552.373H899ZM874 552.373H886.5H899V540.148H886.5H874V552.373ZM874 552.373V564.598H861.5V552.373H874ZM961.5 527.923H974V540.148H961.5V527.923ZM961.5 613.497V601.272H974H986.5V613.497H974H961.5ZM961.5 613.497V625.722H949V613.497H961.5ZM899 442.349V430.124H886.5V442.349H874H861.5H849H836.5V454.574V466.799V479.024H849V491.249H861.5H874H886.5H899V479.024H911.5V466.799V454.574H899V442.349ZM936.5 417.899H924V430.124V442.349H936.5V430.124V417.899ZM849 454.574H861.5V466.799H849V454.574Z" fill="#131314"/>
</g>
<path d="M84.0957 532.376C87.4557 532.376 90.3357 533.624 92.6877 536.072C95.0397 538.52 96.2397 541.496 96.2397 545C96.2397 548.504 95.0397 551.528 92.6877 553.976C90.3357 556.424 87.4557 557.624 84.0957 557.624C80.1117 557.624 77.0877 556.04 75.0237 552.872V566.6H70.8477V533H75.0237V537.128C77.0877 533.96 80.1117 532.376 84.0957 532.376ZM83.5677 553.592C85.9677 553.592 87.9837 552.776 89.6157 551.144C91.2477 549.464 92.0637 547.448 92.0637 545C92.0637 542.552 91.2477 540.536 89.6157 538.904C87.9837 537.224 85.9677 536.408 83.5677 536.408C81.1197 536.408 79.1037 537.224 77.4717 538.904C75.8397 540.536 75.0237 542.552 75.0237 545C75.0237 547.448 75.8397 549.464 77.4717 551.144C79.1037 552.776 81.1197 553.592 83.5677 553.592ZM117.783 545.72V533H121.959V557H117.783V553.544C116.103 556.28 113.511 557.624 110.007 557.624C104.391 557.624 100.695 553.832 100.695 547.736V533H104.871V547.496C104.871 551.384 107.127 553.64 110.823 553.64C114.999 553.64 117.783 551.096 117.783 545.72ZM132.492 557H128.316V521.96H132.492V557ZM155.423 545.72V533H159.599V557H155.423V553.544C153.743 556.28 151.151 557.624 147.647 557.624C142.031 557.624 138.335 553.832 138.335 547.736V533H142.511V547.496C142.511 551.384 144.767 553.64 148.463 553.64C152.639 553.64 155.423 551.096 155.423 545.72ZM191.877 532.376C197.253 532.376 200.901 536.12 200.901 542.072V557H196.725V542.216C196.725 538.52 194.661 536.36 191.445 536.36C187.845 536.36 185.541 538.712 185.541 543.656V557H181.365V542.216C181.365 538.52 179.397 536.36 176.277 536.36C172.773 536.36 170.133 538.808 170.133 543.656V557H165.957V533H170.133V536.216C171.765 533.672 174.165 532.376 177.285 532.376C180.501 532.376 182.853 533.72 184.341 536.456C186.021 533.72 188.517 532.376 191.877 532.376ZM208.803 528.632C207.219 528.632 205.971 527.384 205.971 525.848C205.971 524.312 207.219 523.016 208.803 523.016C210.339 523.016 211.587 524.312 211.587 525.848C211.587 527.384 210.339 528.632 208.803 528.632ZM210.867 557H206.691V533H210.867V557ZM219.878 557.528C218.15 557.528 216.758 556.136 216.758 554.408C216.758 552.68 218.15 551.288 219.878 551.288C221.654 551.288 222.998 552.68 222.998 554.408C222.998 556.136 221.654 557.528 219.878 557.528ZM238.268 557.624C234.668 557.624 231.644 556.424 229.244 554.024C226.844 551.576 225.644 548.6 225.644 545C225.644 541.4 226.844 538.424 229.244 536.024C231.644 533.576 234.668 532.376 238.268 532.376C243.02 532.376 247.004 534.824 248.876 538.664L245.372 540.68C244.172 538.136 241.484 536.456 238.268 536.456C235.868 536.456 233.852 537.272 232.22 538.904C230.636 540.536 229.82 542.552 229.82 545C229.82 547.4 230.636 549.416 232.22 551.048C233.852 552.68 235.868 553.496 238.268 553.496C241.484 553.496 244.172 551.864 245.516 549.32L249.068 551.384C247.004 555.176 242.924 557.624 238.268 557.624ZM273.119 553.976C270.671 556.424 267.647 557.624 264.143 557.624C260.639 557.624 257.615 556.424 255.167 553.976C252.719 551.528 251.519 548.552 251.519 545C251.519 541.448 252.719 538.472 255.167 536.024C257.615 533.576 260.639 532.376 264.143 532.376C267.647 532.376 270.671 533.576 273.119 536.024C275.567 538.472 276.815 541.448 276.815 545C276.815 548.552 275.567 551.528 273.119 553.976ZM264.143 553.544C266.543 553.544 268.559 552.728 270.191 551.096C271.823 549.464 272.639 547.448 272.639 545C272.639 542.552 271.823 540.536 270.191 538.904C268.559 537.272 266.543 536.456 264.143 536.456C261.791 536.456 259.775 537.272 258.143 538.904C256.511 540.536 255.695 542.552 255.695 545C255.695 547.448 256.511 549.464 258.143 551.096C259.775 552.728 261.791 553.544 264.143 553.544ZM307.658 532.376C313.034 532.376 316.682 536.12 316.682 542.072V557H312.506V542.216C312.506 538.52 310.442 536.36 307.226 536.36C303.626 536.36 301.322 538.712 301.322 543.656V557H297.146V542.216C297.146 538.52 295.178 536.36 292.058 536.36C288.554 536.36 285.914 538.808 285.914 543.656V557H281.738V533H285.914V536.216C287.546 533.672 289.946 532.376 293.066 532.376C296.282 532.376 298.634 533.72 300.122 536.456C301.802 533.72 304.298 532.376 307.658 532.376ZM342.825 518.6L323.625 561.8H321.129L340.329 518.6H342.825ZM351.432 539.48C351.432 541.352 353.544 542.36 356.184 543.08C359.928 543.896 364.92 545.288 364.872 550.424C364.872 552.584 364.008 554.36 362.328 555.656C360.648 556.952 358.536 557.624 355.896 557.624C351.24 557.624 347.736 555.416 346.344 552.008L349.944 549.944C350.712 552.248 352.968 553.688 355.896 553.688C358.632 553.688 360.648 552.68 360.648 550.424C360.648 548.552 358.536 547.496 355.896 546.872C352.104 545.864 347.208 544.616 347.208 539.528C347.208 537.464 348.024 535.736 349.608 534.392C351.24 533.048 353.256 532.376 355.704 532.376C359.592 532.376 362.808 534.248 364.344 537.368L360.84 539.336C359.976 537.272 358.248 536.264 355.704 536.264C353.352 536.264 351.432 537.416 351.432 539.48ZM381.935 533V537.032H375.551V550.04C375.551 553.736 377.663 553.448 381.935 553.256V557C374.639 557.96 371.375 555.992 371.375 550.04V537.032H366.623V533H371.375V527.528L375.551 526.28V533H381.935ZM405.532 537.128V533H409.708V557H405.532V552.872C403.468 556.04 400.444 557.624 396.46 557.624C393.1 557.624 390.22 556.424 387.868 553.976C385.516 551.528 384.316 548.504 384.316 545C384.316 541.496 385.516 538.52 387.868 536.072C390.22 533.624 393.1 532.376 396.46 532.376C400.444 532.376 403.468 533.96 405.532 537.128ZM396.988 553.592C399.436 553.592 401.452 552.776 403.084 551.144C404.716 549.464 405.532 547.448 405.532 545C405.532 542.552 404.716 540.536 403.084 538.904C401.452 537.224 399.436 536.408 396.988 536.408C394.588 536.408 392.572 537.224 390.94 538.904C389.308 540.536 388.492 542.552 388.492 545C388.492 547.448 389.308 549.464 390.94 551.144C392.572 552.776 394.588 553.592 396.988 553.592ZM420.211 533V537.032C421.603 534.056 424.099 532.568 427.699 532.568V536.936C425.635 536.84 423.907 537.368 422.419 538.568C420.931 539.768 420.211 541.64 420.211 544.28V557H416.035V533H420.211ZM445.404 533V537.032H439.02V550.04C439.02 553.736 441.132 553.448 445.404 553.256V557C438.108 557.96 434.844 555.992 434.844 550.04V537.032H430.092V533H434.844V527.528L439.02 526.28V533H445.404Z" fill="black"/>
</g>
<defs>
<clipPath id="clip0_3547_3696">
<rect width="1200" height="600" fill="white"/>
</clipPath>
<clipPath id="clip1_3547_3696">
<rect width="250" height="330.071" fill="white" transform="matrix(-1 0 0 1 1074 369)"/>
</clipPath>
</defs>
</svg>
