<svg width="858" height="500" viewBox="0 0 858 500" fill="none" xmlns="http://www.w3.org/2000/svg">
<g clip-path="url(#clip0_1335_156382)">
<path d="M795.727 255.337L795.727 41.2818C795.727 28.3151 785.226 17.8046 772.279 17.8046L420.055 17.8046" stroke="#E0DBFF" stroke-width="0.952033" stroke-miterlimit="10"/>
<path d="M776.582 266.761L776.582 54.277C776.582 44.2616 768.461 36.1313 758.455 36.1313L420.055 36.1313" stroke="#E0DBFF" stroke-width="0.952033" stroke-miterlimit="10"/>
<path d="M757.455 260.097L757.456 67.2912C757.456 60.2081 751.734 54.4769 744.66 54.4769L420.065 54.4769" stroke="#E0DBFF" stroke-width="0.952033" stroke-miterlimit="10"/>
<path d="M738.31 256.289L738.31 80.277C738.31 76.1452 734.959 72.794 730.837 72.794L420.065 72.794" stroke="#E0DBFF" stroke-width="0.952033" stroke-miterlimit="10"/>
</g>
<rect x="567.107" y="107.105" width="280.779" height="178.934" rx="8.8587" fill="white" stroke="#E0DBFF" stroke-width="0.571529"/>
<rect x="588.185" y="228.93" width="80.1358" height="34.8049" rx="8.66844" stroke="#84F1AC" stroke-width="0.952033"/>
<path d="M600.145 179.259C600.092 178.785 599.969 178.402 599.778 178.109C599.591 177.817 599.333 177.604 599.003 177.47C598.678 177.337 598.274 177.271 597.789 177.271C597.033 177.271 596.464 177.409 596.08 177.686C595.697 177.963 595.505 178.37 595.505 178.908C595.505 179.265 595.59 179.56 595.761 179.794C595.931 180.029 596.192 180.244 596.543 180.441C596.895 180.633 597.414 180.864 598.101 181.136C598.958 181.477 599.631 181.791 600.121 182.078C600.616 182.361 601.005 182.707 601.287 183.117C601.569 183.521 601.71 184.03 601.71 184.642C601.71 185.302 601.553 185.888 601.239 186.399C600.93 186.904 600.464 187.304 599.842 187.597C599.219 187.884 598.457 188.028 597.558 188.028C596.674 188.028 595.934 187.889 595.338 187.613C594.741 187.336 594.286 186.939 593.972 186.423C593.658 185.906 593.479 185.289 593.437 184.57L594.97 184.386C595.061 185.19 595.319 185.781 595.745 186.159C596.176 186.532 596.802 186.718 597.622 186.718C598.431 186.718 599.043 186.553 599.458 186.223C599.879 185.893 600.089 185.422 600.089 184.81C600.089 184.432 599.985 184.12 599.778 183.875C599.575 183.63 599.309 183.428 598.979 183.268C598.649 183.103 598.069 182.85 597.238 182.51C596.519 182.217 595.926 181.927 595.457 181.639C594.994 181.346 594.627 180.987 594.355 180.561C594.084 180.135 593.948 179.624 593.948 179.028C593.948 178.368 594.102 177.811 594.411 177.359C594.725 176.906 595.175 176.565 595.761 176.336C596.352 176.102 597.065 175.985 597.901 175.985C599.014 175.985 599.905 176.235 600.576 176.736C601.247 177.236 601.606 178.032 601.654 179.124L600.145 179.259ZM607.143 175.993C607.925 175.993 608.591 176.108 609.139 176.336C609.687 176.565 610.103 176.901 610.385 177.343C610.672 177.785 610.816 178.328 610.816 178.972C610.816 179.616 610.67 180.151 610.377 180.577C610.084 180.998 609.701 181.317 609.227 181.535C608.758 181.754 608.237 181.897 607.662 181.967L607.654 181.719C608.309 181.778 608.889 181.9 609.395 182.086C609.906 182.273 610.326 182.581 610.656 183.013C610.986 183.439 611.152 184.016 611.152 184.746C611.152 185.4 611.005 185.975 610.712 186.471C610.419 186.96 609.98 187.344 609.395 187.621C608.809 187.892 608.09 188.028 607.238 188.028C606.392 188.028 605.681 187.895 605.106 187.629C604.537 187.362 604.103 186.976 603.804 186.471C603.506 185.959 603.349 185.339 603.333 184.61L604.827 184.474C604.885 184.975 605.013 185.392 605.21 185.728C605.407 186.058 605.673 186.308 606.009 186.479C606.344 186.644 606.749 186.726 607.222 186.726C607.989 186.726 608.569 186.55 608.963 186.199C609.357 185.842 609.554 185.358 609.554 184.746C609.554 184.219 609.411 183.79 609.123 183.46C608.841 183.124 608.46 182.882 607.981 182.733C607.502 182.584 606.959 182.51 606.352 182.51H606.144V181.28H606.344C606.94 181.28 607.459 181.192 607.901 181.016C608.348 180.841 608.692 180.59 608.931 180.266C609.171 179.935 609.291 179.544 609.291 179.092C609.291 178.719 609.208 178.397 609.043 178.125C608.878 177.848 608.639 177.638 608.325 177.494C608.01 177.351 607.635 177.279 607.198 177.279C606.778 177.279 606.416 177.348 606.112 177.486C605.809 177.625 605.564 177.843 605.378 178.141C605.197 178.439 605.08 178.82 605.026 179.283L603.565 179.147C603.592 178.407 603.765 177.803 604.084 177.335C604.409 176.866 604.832 176.525 605.354 176.312C605.881 176.1 606.477 175.993 607.143 175.993ZM624.811 186.359L624.643 187.836H623.366V175.618H624.875V186.359H624.811ZM630.809 183.723C630.809 184.613 630.678 185.379 630.417 186.023C630.162 186.668 629.786 187.163 629.291 187.509C628.801 187.855 628.213 188.028 627.526 188.028C626.957 188.028 626.462 187.913 626.041 187.684C625.62 187.456 625.266 187.144 624.979 186.75H624.62V185.528C624.982 185.965 625.354 186.279 625.738 186.471C626.126 186.657 626.531 186.75 626.951 186.75C627.447 186.75 627.864 186.638 628.205 186.415C628.546 186.191 628.804 185.856 628.98 185.408C629.161 184.956 629.251 184.394 629.251 183.723C629.251 183.058 629.164 182.504 628.988 182.062C628.817 181.62 628.562 181.288 628.221 181.064C627.886 180.841 627.471 180.729 626.975 180.729C626.549 180.729 626.145 180.822 625.762 181.008C625.378 181.195 624.998 181.503 624.62 181.935V180.721H624.971C625.296 180.321 625.671 180.01 626.097 179.786C626.528 179.557 627.026 179.443 627.59 179.443C628.277 179.443 628.86 179.619 629.339 179.97C629.818 180.316 630.183 180.809 630.433 181.447C630.684 182.086 630.809 182.845 630.809 183.723ZM638.485 179.635H639.994V187.836H638.717L638.557 186.455H638.485V179.635ZM634.62 179.635V185.097C634.62 185.523 634.686 185.861 634.819 186.111C634.953 186.356 635.131 186.529 635.354 186.63C635.583 186.731 635.847 186.782 636.145 186.782C636.672 186.782 637.151 186.649 637.583 186.383C638.014 186.117 638.405 185.744 638.756 185.265V186.662H638.381C637.992 187.078 637.572 187.408 637.119 187.653C636.667 187.897 636.124 188.02 635.49 188.02C634.995 188.02 634.569 187.932 634.212 187.756C633.861 187.581 633.59 187.306 633.398 186.934C633.206 186.561 633.11 186.085 633.11 185.504V179.635H634.62ZM650.21 185.337C650.061 185.928 649.806 186.425 649.444 186.83C649.087 187.229 648.648 187.53 648.126 187.732C647.604 187.929 647.026 188.028 646.393 188.028C645.573 188.028 644.854 187.865 644.237 187.541C643.624 187.211 643.148 186.723 642.807 186.079C642.466 185.43 642.296 184.642 642.296 183.715C642.296 182.784 642.469 181.998 642.815 181.36C643.167 180.721 643.654 180.242 644.277 179.922C644.905 179.603 645.637 179.443 646.473 179.443C647.154 179.443 647.764 179.549 648.302 179.762C648.839 179.975 649.273 180.3 649.603 180.737C649.939 181.173 650.141 181.711 650.21 182.35L648.717 182.478C648.626 181.871 648.379 181.421 647.974 181.128C647.575 180.83 647.061 180.681 646.433 180.681C645.586 180.681 644.945 180.942 644.508 181.463C644.072 181.98 643.853 182.731 643.853 183.715C643.853 184.397 643.955 184.967 644.157 185.424C644.364 185.882 644.657 186.226 645.035 186.455C645.419 186.678 645.874 186.79 646.401 186.79C647.002 186.79 647.5 186.649 647.894 186.367C648.294 186.079 648.578 185.659 648.749 185.105L650.21 185.337ZM652.6 187.836V175.618H654.109V187.836H652.6ZM656.186 182.813L655.371 183.204L658.485 179.635H660.21L656.912 183.372V183.476L660.546 187.836H658.717L655.323 183.755L656.138 184.035H653.758V182.813H656.186ZM661.786 183.723C661.786 182.813 661.956 182.038 662.297 181.4C662.643 180.755 663.13 180.268 663.758 179.938C664.386 179.608 665.121 179.443 665.962 179.443C666.739 179.443 667.402 179.579 667.951 179.85C668.499 180.116 668.917 180.521 669.204 181.064C669.497 181.607 669.644 182.275 669.644 183.069V183.787H662.943V182.781H668.566L668.166 183.124V182.797C668.166 182.089 667.961 181.559 667.551 181.208C667.141 180.856 666.596 180.681 665.914 180.681C665.094 180.681 664.458 180.942 664.006 181.463C663.558 181.98 663.335 182.733 663.335 183.723C663.335 184.73 663.558 185.494 664.006 186.015C664.453 186.532 665.089 186.79 665.914 186.79C666.447 186.79 666.902 186.678 667.28 186.455C667.658 186.231 667.945 185.89 668.142 185.432L669.612 185.68C669.425 186.186 669.157 186.614 668.805 186.966C668.459 187.317 668.041 187.583 667.551 187.764C667.062 187.94 666.513 188.028 665.906 188.028C665.081 188.028 664.36 187.863 663.742 187.533C663.124 187.203 662.643 186.715 662.297 186.071C661.956 185.427 661.786 184.644 661.786 183.723ZM679.029 179.635V180.856H671.363V179.635H674.174H674.405H679.029ZM677.12 187.996C676.295 188.001 675.64 187.903 675.156 187.7C674.677 187.498 674.32 187.144 674.086 186.638C673.857 186.133 673.742 185.424 673.742 184.514V177.063H675.26V184.442C675.26 185.033 675.324 185.488 675.451 185.808C675.579 186.127 675.784 186.351 676.066 186.479C676.348 186.601 676.742 186.662 677.248 186.662C677.855 186.662 678.513 186.572 679.221 186.391V187.708C678.917 187.799 678.582 187.868 678.214 187.916C677.852 187.969 677.488 187.996 677.12 187.996Z" fill="black"/>
<path d="M600.196 247.122C600.196 250.389 601.171 251.555 602.688 251.555C603.998 251.555 604.732 250.668 604.852 249.087L606.561 249.215C606.465 251.746 604.972 253.136 602.64 253.136C600.029 253.136 598.312 251.299 598.312 247.122C598.312 242.938 600.013 241.101 602.64 241.101C604.956 241.101 606.465 242.499 606.561 244.982L604.852 245.11C604.732 243.577 603.998 242.682 602.688 242.682C601.171 242.682 600.196 243.848 600.196 247.122ZM612.017 244.639L612.137 245.845H612.369C613.175 244.934 613.974 244.447 615.38 244.447C615.683 244.447 615.939 244.471 616.186 244.527V246.196C614.437 246.196 613.439 246.3 612.265 247.019V251.515H615.036V252.952H608.408V251.515H610.492V246.076H608.408V244.639H612.017ZM617.897 248.783C617.897 245.933 619.606 244.447 622.153 244.447C624.517 244.447 625.899 245.685 625.899 248.177V248.935H619.702C619.75 250.78 620.604 251.722 622.09 251.722C623.04 251.722 623.775 251.339 624.15 250.477L625.867 250.74C625.292 252.385 623.838 253.144 622.082 253.144C619.606 253.144 617.897 251.65 617.897 248.783ZM619.79 247.817H624.166C624.166 246.468 623.303 245.861 622.098 245.861C620.884 245.861 620.045 246.492 619.79 247.817ZM631.491 244.447C633.559 244.447 634.805 245.126 634.805 247.067V251.044C634.805 251.611 635.005 251.754 635.723 251.666V252.952C635.316 253.064 634.941 253.12 634.597 253.12C633.543 253.12 633.208 252.601 633.144 251.93H632.968C632.337 252.561 631.483 253.144 630.221 253.144C628.728 253.144 627.761 252.305 627.761 250.908C627.761 248.576 630.429 248.264 633.032 248.296V247.162C633.032 245.972 632.345 245.677 631.355 245.685C630.381 245.685 629.67 245.996 629.662 246.963L629.654 247.298H628.041V246.875C628.041 245.453 629.007 244.447 631.491 244.447ZM629.606 250.676C629.606 251.419 630.157 251.834 631.068 251.834C631.818 251.834 632.449 251.547 633.032 251.123V249.287C632.809 249.263 632.585 249.247 632.361 249.247C630.628 249.247 629.606 249.662 629.606 250.676ZM643.048 253.136C640.589 253.144 639.582 252.425 639.582 249.574V246.076H637.299V244.639H639.582V242.147H641.355V244.639H644.965V246.076H641.355V249.526C641.355 251.195 641.858 251.595 643.24 251.595C643.887 251.595 644.534 251.483 645.157 251.331V252.856C644.55 253.032 643.815 253.136 643.048 253.136ZM647.131 248.783C647.131 245.933 648.84 244.447 651.388 244.447C653.751 244.447 655.133 245.685 655.133 248.177V248.935H648.936C648.984 250.78 649.838 251.722 651.324 251.722C652.274 251.722 653.009 251.339 653.384 250.477L655.101 250.74C654.526 252.385 653.073 253.144 651.316 253.144C648.84 253.144 647.131 251.65 647.131 248.783ZM649.024 247.817H653.4C653.4 246.468 652.538 245.861 651.332 245.861C650.118 245.861 649.279 246.492 649.024 247.817Z" fill="#1C7D41"/>
<path d="M597.39 205.692H597.462V212.4H595.952V205.069L596.312 205.429H593.772V204.207H597.23L597.39 205.692ZM601.455 205.501C600.736 205.501 600.148 205.53 599.69 205.588C599.237 205.642 598.809 205.754 598.404 205.924C598.005 206.089 597.576 206.347 597.118 206.699V205.373H597.566C598.018 204.91 598.476 204.569 598.939 204.351C599.402 204.127 599.977 204.015 600.664 204.015C600.952 204.015 601.215 204.039 601.455 204.087V205.501ZM593.772 211.187H600.369V212.408H593.772V211.187ZM603.317 208.296C603.317 207.385 603.488 206.611 603.828 205.972C604.174 205.328 604.662 204.84 605.29 204.51C605.918 204.18 606.653 204.015 607.494 204.015C608.271 204.015 608.934 204.151 609.482 204.423C610.031 204.689 610.449 205.093 610.736 205.636C611.029 206.179 611.175 206.848 611.175 207.641V208.36H604.475V207.353H610.097L609.698 207.697V207.369C609.698 206.661 609.493 206.132 609.083 205.78C608.673 205.429 608.128 205.253 607.446 205.253C606.626 205.253 605.99 205.514 605.537 206.036C605.09 206.552 604.867 207.305 604.867 208.296C604.867 209.302 605.09 210.066 605.537 210.588C605.985 211.104 606.621 211.362 607.446 211.362C607.978 211.362 608.434 211.25 608.812 211.027C609.19 210.803 609.477 210.463 609.674 210.005L611.144 210.252C610.957 210.758 610.688 211.187 610.337 211.538C609.991 211.889 609.573 212.156 609.083 212.337C608.593 212.512 608.045 212.6 607.438 212.6C606.613 212.6 605.891 212.435 605.274 212.105C604.656 211.775 604.174 211.288 603.828 210.644C603.488 209.999 603.317 209.217 603.317 208.296ZM613.062 207.928C613.062 207.14 613.195 206.454 613.461 205.868C613.733 205.277 614.114 204.822 614.603 204.502C615.098 204.178 615.673 204.015 616.328 204.015C616.717 204.015 617.071 204.071 617.39 204.183C617.71 204.289 617.992 204.438 618.237 204.63C618.487 204.816 618.705 205.037 618.892 205.293H619.251V206.515C618.889 206.078 618.514 205.767 618.125 205.58C617.742 205.389 617.34 205.293 616.919 205.293C616.44 205.293 616.027 205.397 615.681 205.604C615.341 205.812 615.077 206.113 614.891 206.507C614.71 206.901 614.619 207.375 614.619 207.928C614.619 208.461 614.707 208.921 614.883 209.31C615.059 209.699 615.317 209.999 615.657 210.212C615.998 210.42 616.411 210.524 616.895 210.524C617.321 210.524 617.726 210.431 618.109 210.244C618.492 210.058 618.873 209.746 619.251 209.31V210.532H618.9C618.575 210.926 618.194 211.237 617.758 211.466C617.327 211.695 616.829 211.81 616.264 211.81C615.61 211.81 615.04 211.647 614.555 211.322C614.071 210.998 613.701 210.545 613.445 209.965C613.19 209.379 613.062 208.7 613.062 207.928ZM620.505 211.945C620.505 212.829 620.364 213.545 620.082 214.093C619.805 214.647 619.392 215.052 618.844 215.307C618.301 215.563 617.622 215.691 616.807 215.691C616.083 215.691 615.474 215.597 614.979 215.411C614.489 215.23 614.108 214.977 613.837 214.652C613.565 214.328 613.376 213.947 613.27 213.511L614.643 213.199C614.792 213.668 615.048 214.014 615.41 214.237C615.772 214.461 616.238 214.573 616.807 214.573C617.5 214.573 618.037 214.386 618.421 214.014C618.804 213.641 618.996 213.005 618.996 212.105V205.652H619.067L619.227 204.207H620.505V211.945ZM626.049 212.408V204.926L626.408 205.405H623.142V204.207L627.367 204.023L627.566 204.215V212.408H626.049ZM623.142 211.187H630.473V212.408H623.142V211.187ZM626.512 202.139C626.294 202.139 626.1 202.099 625.929 202.019C625.764 201.934 625.634 201.814 625.538 201.659C625.442 201.5 625.394 201.316 625.394 201.108C625.394 200.794 625.495 200.547 625.698 200.366C625.905 200.179 626.177 200.086 626.512 200.086C626.842 200.086 627.108 200.179 627.311 200.366C627.518 200.547 627.622 200.794 627.622 201.108C627.622 201.428 627.518 201.681 627.311 201.867C627.108 202.048 626.842 202.139 626.512 202.139ZM640.553 208.32C640.553 209.246 640.378 210.031 640.026 210.676C639.675 211.314 639.196 211.796 638.589 212.121C637.982 212.44 637.303 212.6 636.552 212.6C635.802 212.6 635.123 212.44 634.516 212.121C633.914 211.796 633.435 211.314 633.078 210.676C632.727 210.031 632.551 209.246 632.551 208.32C632.551 207.399 632.727 206.613 633.078 205.964C633.435 205.314 633.914 204.827 634.516 204.502C635.123 204.178 635.802 204.015 636.552 204.015C637.303 204.015 637.982 204.178 638.589 204.502C639.196 204.827 639.675 205.314 640.026 205.964C640.378 206.608 640.553 207.393 640.553 208.32ZM638.996 208.32C638.996 207.638 638.892 207.069 638.685 206.611C638.482 206.153 638.197 205.812 637.83 205.588C637.468 205.365 637.042 205.253 636.552 205.253C636.063 205.253 635.634 205.365 635.267 205.588C634.899 205.812 634.612 206.153 634.404 206.611C634.202 207.069 634.101 207.638 634.101 208.32C634.101 208.996 634.202 209.563 634.404 210.021C634.612 210.473 634.897 210.811 635.259 211.035C635.626 211.253 636.057 211.362 636.552 211.362C637.047 211.362 637.476 211.253 637.838 211.035C638.2 210.811 638.482 210.473 638.685 210.021C638.892 209.563 638.996 208.996 638.996 208.32ZM644.364 212.408H642.855V204.207H644.133L644.293 205.588H644.364V212.408ZM648.23 212.408V206.938C648.23 206.517 648.163 206.182 648.03 205.932C647.897 205.682 647.716 205.506 647.487 205.405C647.263 205.304 647.002 205.253 646.704 205.253C646.177 205.253 645.698 205.389 645.267 205.66C644.836 205.927 644.444 206.299 644.093 206.778V205.381H644.468C644.857 204.966 645.278 204.635 645.73 204.391C646.183 204.14 646.726 204.015 647.359 204.015C647.854 204.015 648.278 204.106 648.629 204.287C648.986 204.462 649.26 204.737 649.452 205.109C649.643 205.482 649.739 205.958 649.739 206.539V212.408H648.23ZM656.066 212.648C655.789 212.648 655.539 212.589 655.315 212.472C655.091 212.361 654.913 212.195 654.78 211.977C654.652 211.759 654.588 211.503 654.588 211.211C654.588 210.918 654.652 210.662 654.78 210.444C654.913 210.226 655.091 210.061 655.315 209.949C655.539 209.832 655.789 209.773 656.066 209.773C656.337 209.773 656.585 209.832 656.808 209.949C657.032 210.061 657.208 210.226 657.335 210.444C657.469 210.662 657.535 210.918 657.535 211.211C657.535 211.498 657.469 211.754 657.335 211.977C657.208 212.195 657.032 212.361 656.808 212.472C656.585 212.589 656.337 212.648 656.066 212.648ZM656.066 206.435C655.789 206.435 655.539 206.376 655.315 206.259C655.091 206.142 654.913 205.974 654.78 205.756C654.652 205.538 654.588 205.285 654.588 204.998C654.588 204.699 654.652 204.444 654.78 204.231C654.913 204.013 655.091 203.848 655.315 203.736C655.539 203.619 655.789 203.56 656.066 203.56C656.337 203.56 656.585 203.619 656.808 203.736C657.032 203.848 657.208 204.013 657.335 204.231C657.469 204.444 657.535 204.699 657.535 204.998C657.535 205.285 657.469 205.538 657.335 205.756C657.208 205.974 657.032 206.142 656.808 206.259C656.585 206.376 656.337 206.435 656.066 206.435ZM677.464 204.207H678.973V212.408H677.695L677.536 211.027H677.464V204.207ZM673.599 204.207V209.669C673.599 210.095 673.665 210.433 673.798 210.683C673.931 210.928 674.11 211.101 674.333 211.203C674.562 211.304 674.826 211.354 675.124 211.354C675.651 211.354 676.13 211.221 676.561 210.955C676.993 210.689 677.384 210.316 677.735 209.837V211.235H677.36C676.971 211.65 676.551 211.98 676.098 212.225C675.646 212.47 675.103 212.592 674.469 212.592C673.974 212.592 673.548 212.504 673.191 212.329C672.84 212.153 672.568 211.879 672.377 211.506C672.185 211.133 672.089 210.657 672.089 210.077V204.207H673.599ZM685.308 204.015C686.037 204.015 686.655 204.106 687.161 204.287C687.672 204.462 688.063 204.731 688.334 205.093C688.611 205.455 688.76 205.911 688.782 206.459L687.408 206.555C687.355 206.086 687.145 205.735 686.777 205.501C686.415 205.261 685.891 205.141 685.204 205.141C684.56 205.141 684.059 205.237 683.703 205.429C683.351 205.62 683.176 205.905 683.176 206.283C683.176 206.491 683.237 206.667 683.359 206.81C683.487 206.954 683.684 207.082 683.95 207.194C684.216 207.3 684.597 207.412 685.092 207.529C685.289 207.566 685.481 207.606 685.667 207.649C686.46 207.814 687.081 207.987 687.528 208.168C687.975 208.349 688.31 208.589 688.534 208.887C688.763 209.179 688.877 209.56 688.877 210.029C688.877 210.55 688.739 211.003 688.462 211.386C688.191 211.77 687.783 212.068 687.24 212.281C686.703 212.488 686.037 212.592 685.244 212.592C684.467 212.592 683.809 212.512 683.271 212.353C682.739 212.188 682.31 211.919 681.986 211.546C681.661 211.168 681.437 210.662 681.315 210.029L682.704 209.853C682.827 210.305 683.013 210.646 683.263 210.875C683.514 211.104 683.796 211.253 684.11 211.322C684.429 211.392 684.831 211.426 685.316 211.426C685.784 211.426 686.173 211.37 686.482 211.258C686.791 211.147 687.014 211 687.153 210.819C687.296 210.633 687.368 210.425 687.368 210.196C687.368 209.957 687.286 209.762 687.121 209.613C686.956 209.459 686.695 209.326 686.338 209.214C685.987 209.102 685.452 208.972 684.733 208.823C684.041 208.679 683.476 208.509 683.04 208.312C682.609 208.115 682.281 207.864 682.058 207.561C681.839 207.258 681.73 206.877 681.73 206.419C681.73 205.663 682.026 205.075 682.617 204.654C683.213 204.228 684.11 204.015 685.308 204.015ZM692.465 206.523H697.576V207.833H692.465V206.523ZM701.467 204.207L702.785 210.093H702.92L704.334 205.469H705.356L706.674 210.093H706.81L708.119 204.207H709.509L707.56 212.408H706.219L704.821 207.473H704.709L703.216 212.408H701.97L700.022 204.207H701.467ZM710.509 208.296C710.509 207.385 710.679 206.611 711.02 205.972C711.366 205.328 711.853 204.84 712.482 204.51C713.11 204.18 713.844 204.015 714.686 204.015C715.463 204.015 716.126 204.151 716.674 204.423C717.222 204.689 717.64 205.093 717.928 205.636C718.221 206.179 718.367 206.848 718.367 207.641V208.36H711.667V207.353H717.289L716.89 207.697V207.369C716.89 206.661 716.685 206.132 716.275 205.78C715.865 205.429 715.319 205.253 714.638 205.253C713.818 205.253 713.182 205.514 712.729 206.036C712.282 206.552 712.058 207.305 712.058 208.296C712.058 209.302 712.282 210.066 712.729 210.588C713.176 211.104 713.812 211.362 714.638 211.362C715.17 211.362 715.625 211.25 716.003 211.027C716.381 210.803 716.669 210.463 716.866 210.005L718.335 210.252C718.149 210.758 717.88 211.187 717.529 211.538C717.183 211.889 716.765 212.156 716.275 212.337C715.785 212.512 715.237 212.6 714.63 212.6C713.805 212.6 713.083 212.435 712.466 212.105C711.848 211.775 711.366 211.288 711.02 210.644C710.679 209.999 710.509 209.217 710.509 208.296ZM724.287 204.015C725.016 204.015 725.634 204.106 726.139 204.287C726.65 204.462 727.042 204.731 727.313 205.093C727.59 205.455 727.739 205.911 727.76 206.459L726.387 206.555C726.334 206.086 726.123 205.735 725.756 205.501C725.394 205.261 724.87 205.141 724.183 205.141C723.539 205.141 723.038 205.237 722.681 205.429C722.33 205.62 722.154 205.905 722.154 206.283C722.154 206.491 722.216 206.667 722.338 206.81C722.466 206.954 722.663 207.082 722.929 207.194C723.195 207.3 723.576 207.412 724.071 207.529C724.268 207.566 724.46 207.606 724.646 207.649C725.439 207.814 726.059 207.987 726.507 208.168C726.954 208.349 727.289 208.589 727.513 208.887C727.742 209.179 727.856 209.56 727.856 210.029C727.856 210.55 727.718 211.003 727.441 211.386C727.169 211.77 726.762 212.068 726.219 212.281C725.681 212.488 725.016 212.592 724.223 212.592C723.445 212.592 722.788 212.512 722.25 212.353C721.718 212.188 721.289 211.919 720.964 211.546C720.64 211.168 720.416 210.662 720.294 210.029L721.683 209.853C721.806 210.305 721.992 210.646 722.242 210.875C722.492 211.104 722.775 211.253 723.089 211.322C723.408 211.392 723.81 211.426 724.295 211.426C724.763 211.426 725.152 211.37 725.461 211.258C725.769 211.147 725.993 211 726.131 210.819C726.275 210.633 726.347 210.425 726.347 210.196C726.347 209.957 726.264 209.762 726.099 209.613C725.934 209.459 725.673 209.326 725.317 209.214C724.965 209.102 724.43 208.972 723.712 208.823C723.019 208.679 722.455 208.509 722.019 208.312C721.587 208.115 721.26 207.864 721.036 207.561C720.818 207.258 720.709 206.877 720.709 206.419C720.709 205.663 721.004 205.075 721.595 204.654C722.192 204.228 723.089 204.015 724.287 204.015ZM737.497 204.207V205.429H729.831V204.207H732.642H732.873H737.497ZM735.589 212.568C734.763 212.573 734.108 212.475 733.624 212.273C733.145 212.07 732.788 211.716 732.554 211.211C732.325 210.705 732.21 209.997 732.21 209.086V201.635H733.728V209.014C733.728 209.605 733.792 210.061 733.919 210.38C734.047 210.699 734.252 210.923 734.534 211.051C734.817 211.173 735.211 211.235 735.716 211.235C736.323 211.235 736.981 211.144 737.689 210.963V212.281C737.385 212.371 737.05 212.44 736.683 212.488C736.321 212.542 735.956 212.568 735.589 212.568ZM741.189 206.523H746.3V207.833H741.189V206.523ZM750.175 202.993C750.462 202.993 750.795 202.889 751.173 202.682C751.556 202.474 751.902 202.197 752.211 201.851C752.52 201.505 752.722 201.138 752.818 200.749H753.984C753.92 201.377 753.686 201.984 753.281 202.57C752.882 203.15 752.397 203.621 751.828 203.983C751.263 204.34 750.712 204.518 750.175 204.518V202.993ZM752.818 212.408V200.749H754.367V212.408H752.818ZM749.887 211.099H757.378V212.408H749.887V211.099Z" fill="black" fill-opacity="0.7"/>
<g clip-path="url(#clip1_1335_156382)">
<path d="M603.2 143.258C603.2 143.663 603.244 143.991 603.321 144.232C603.409 144.473 603.52 144.735 603.674 145.02C603.729 145.107 603.751 145.195 603.751 145.272C603.751 145.381 603.685 145.491 603.542 145.6L602.847 146.06C602.747 146.125 602.648 146.158 602.56 146.158C602.449 146.158 602.339 146.103 602.229 146.005C602.074 145.841 601.942 145.666 601.832 145.491C601.721 145.304 601.611 145.097 601.49 144.845C600.629 145.852 599.548 146.355 598.246 146.355C597.319 146.355 596.58 146.092 596.039 145.567C595.499 145.042 595.223 144.341 595.223 143.466C595.223 142.535 595.554 141.78 596.227 141.211C596.9 140.642 597.794 140.357 598.93 140.357C599.305 140.357 599.691 140.39 600.099 140.445C600.508 140.5 600.927 140.587 601.368 140.686V139.887C601.368 139.055 601.192 138.475 600.85 138.136C600.497 137.796 599.901 137.632 599.051 137.632C598.665 137.632 598.268 137.676 597.86 137.775C597.452 137.873 597.054 137.993 596.668 138.147C596.492 138.223 596.359 138.267 596.282 138.289C596.205 138.311 596.15 138.322 596.106 138.322C595.951 138.322 595.874 138.212 595.874 137.982V137.446C595.874 137.271 595.896 137.14 595.951 137.063C596.006 136.987 596.106 136.91 596.26 136.833C596.646 136.636 597.109 136.472 597.65 136.341C598.191 136.199 598.764 136.133 599.371 136.133C600.684 136.133 601.644 136.428 602.262 137.019C602.869 137.61 603.178 138.508 603.178 139.712V143.258H603.2ZM598.72 144.921C599.084 144.921 599.459 144.856 599.857 144.724C600.254 144.593 600.607 144.352 600.905 144.024C601.081 143.816 601.214 143.586 601.28 143.323C601.346 143.061 601.39 142.743 601.39 142.371V141.912C601.07 141.835 600.728 141.769 600.375 141.726C600.022 141.682 599.68 141.66 599.338 141.66C598.599 141.66 598.058 141.802 597.694 142.098C597.33 142.393 597.154 142.809 597.154 143.356C597.154 143.871 597.286 144.254 597.562 144.516C597.827 144.79 598.213 144.921 598.72 144.921ZM607.58 146.103C607.381 146.103 607.249 146.071 607.16 145.994C607.072 145.928 606.995 145.775 606.929 145.567L604.336 137.107C604.27 136.888 604.237 136.746 604.237 136.669C604.237 136.494 604.325 136.396 604.501 136.396H605.583C605.792 136.396 605.936 136.428 606.013 136.505C606.101 136.571 606.167 136.724 606.234 136.932L608.087 144.177L609.808 136.932C609.863 136.713 609.93 136.571 610.018 136.505C610.106 136.439 610.261 136.396 610.459 136.396H611.342C611.551 136.396 611.695 136.428 611.783 136.505C611.871 136.571 611.949 136.724 611.993 136.932L613.736 144.265L615.645 136.932C615.711 136.713 615.788 136.571 615.865 136.505C615.953 136.439 616.097 136.396 616.295 136.396H617.322C617.498 136.396 617.597 136.483 617.597 136.669C617.597 136.724 617.586 136.779 617.575 136.844C617.564 136.91 617.542 136.997 617.498 137.118L614.839 145.578C614.773 145.797 614.696 145.939 614.607 146.005C614.519 146.071 614.376 146.114 614.188 146.114H613.239C613.03 146.114 612.886 146.082 612.798 146.005C612.71 145.928 612.633 145.786 612.588 145.567L610.878 138.508L609.179 145.556C609.124 145.775 609.058 145.917 608.97 145.994C608.881 146.071 608.727 146.103 608.528 146.103H607.58ZM621.757 146.399C621.183 146.399 620.609 146.333 620.058 146.202C619.506 146.071 619.076 145.928 618.789 145.764C618.612 145.666 618.491 145.556 618.447 145.458C618.403 145.359 618.381 145.25 618.381 145.151V144.593C618.381 144.363 618.469 144.254 618.634 144.254C618.701 144.254 618.767 144.265 618.833 144.287C618.899 144.309 618.998 144.352 619.109 144.396C619.484 144.56 619.892 144.692 620.322 144.779C620.764 144.867 621.194 144.91 621.635 144.91C622.33 144.91 622.871 144.79 623.246 144.549C623.621 144.309 623.82 143.958 623.82 143.51C623.82 143.203 623.72 142.951 623.522 142.743C623.323 142.535 622.948 142.349 622.408 142.174L620.808 141.682C620.002 141.43 619.407 141.058 619.043 140.565C618.679 140.084 618.491 139.548 618.491 138.978C618.491 138.519 618.59 138.114 618.789 137.764C618.987 137.413 619.252 137.107 619.583 136.866C619.914 136.614 620.289 136.428 620.731 136.297C621.172 136.166 621.635 136.111 622.121 136.111C622.363 136.111 622.617 136.122 622.86 136.155C623.114 136.188 623.345 136.231 623.577 136.275C623.798 136.33 624.007 136.385 624.206 136.45C624.405 136.516 624.559 136.582 624.669 136.647C624.824 136.735 624.934 136.822 625 136.921C625.066 137.008 625.1 137.129 625.1 137.282V137.796C625.1 138.026 625.011 138.147 624.846 138.147C624.757 138.147 624.614 138.103 624.427 138.015C623.798 137.731 623.092 137.588 622.308 137.588C621.679 137.588 621.183 137.687 620.841 137.895C620.499 138.103 620.322 138.42 620.322 138.869C620.322 139.175 620.433 139.438 620.653 139.646C620.874 139.854 621.282 140.062 621.867 140.248L623.434 140.741C624.228 140.992 624.802 141.343 625.144 141.791C625.486 142.24 625.651 142.754 625.651 143.323C625.651 143.794 625.552 144.221 625.364 144.593C625.166 144.965 624.901 145.294 624.559 145.556C624.217 145.83 623.809 146.027 623.334 146.169C622.838 146.322 622.319 146.399 621.757 146.399Z" fill="black"/>
<path fill-rule="evenodd" clip-rule="evenodd" d="M623.841 151.718C620.211 154.377 614.937 155.789 610.403 155.789C604.048 155.789 598.322 153.458 593.997 149.584C593.655 149.277 593.964 148.861 594.372 149.102C599.05 151.794 604.82 153.425 610.789 153.425C614.816 153.425 619.24 152.593 623.311 150.886C623.918 150.612 624.436 151.28 623.841 151.718Z" fill="#FF9900"/>
<path fill-rule="evenodd" clip-rule="evenodd" d="M625.352 150.01C624.888 149.419 622.285 149.726 621.104 149.868C620.751 149.912 620.696 149.605 621.016 149.375C623.09 147.931 626.499 148.347 626.896 148.828C627.294 149.321 626.786 152.703 624.844 154.322C624.547 154.574 624.26 154.443 624.392 154.115C624.833 153.031 625.815 150.59 625.352 150.01Z" fill="#FF9900"/>
</g>
<g clip-path="url(#clip2_1335_156382)">
<path d="M275.795 345.612V500.009" stroke="#E0DBFF" stroke-width="0.952033" stroke-miterlimit="10"/>
<path d="M294.834 345.612V500.009" stroke="#E0DBFF" stroke-width="0.952033" stroke-miterlimit="10"/>
<path d="M313.882 345.612V500.009" stroke="#E0DBFF" stroke-width="0.952033" stroke-miterlimit="10"/>
<path d="M332.921 345.612V500.009" stroke="#E0DBFF" stroke-width="0.952033" stroke-miterlimit="10"/>
</g>
<rect x="242" y="422.895" width="117.1" height="77.1147" fill="url(#paint0_linear_1335_156382)"/>
<defs>
<linearGradient id="paint0_linear_1335_156382" x1="307.103" y1="500.009" x2="307.103" y2="422.895" gradientUnits="userSpaceOnUse">
<stop stop-color="white"/>
<stop offset="1" stop-color="white" stop-opacity="0"/>
</linearGradient>
<clipPath id="clip0_1335_156382">
<rect width="182" height="417" fill="white" transform="translate(796 434) rotate(-180)"/>
</clipPath>
<clipPath id="clip1_1335_156382">
<rect width="33.1723" height="23.2206" fill="white" transform="translate(593.85 132.682)"/>
</clipPath>
<clipPath id="clip2_1335_156382">
<rect width="58" height="149" fill="white" transform="translate(276 351)"/>
</clipPath>
</defs>
</svg>
