<svg width="361" height="179" viewBox="0 0 361 179" fill="none" xmlns="http://www.w3.org/2000/svg">
<g clip-path="url(#clip0_977_23617)">
<mask id="mask0_977_23617" style="mask-type:luminance" maskUnits="userSpaceOnUse" x="0" y="0" width="361" height="179">
<path d="M361 0H0V179H361V0Z" fill="white"/>
</mask>
<g mask="url(#mask0_977_23617)">
<path d="M361 0H0V179H361V0Z" fill="white"/>
<g opacity="0.5">
<path d="M181.271 201.655C231.259 201.655 271.782 161.132 271.782 111.144C271.782 61.1563 231.259 20.6333 181.271 20.6333C131.283 20.6333 90.7604 61.1563 90.7604 111.144C90.7604 161.132 131.283 201.655 181.271 201.655Z" stroke="#5a30c5" stroke-opacity="0.5"/>
<path d="M180.5 234.824C250.716 234.824 307.638 177.902 307.638 107.686C307.638 37.4697 250.716 -19.4519 180.5 -19.4519C110.284 -19.4519 53.362 37.4697 53.362 107.686C53.362 177.902 110.284 234.824 180.5 234.824Z" stroke="#5a30c5" stroke-opacity="0.4"/>
<path d="M180.5 272.278C274.12 272.278 350.014 196.384 350.014 102.764C350.014 9.14401 274.12 -66.75 180.5 -66.75C86.88 -66.75 10.986 9.14401 10.986 102.764C10.986 196.384 86.88 272.278 180.5 272.278Z" stroke="#5a30c5" stroke-opacity="0.2"/>
<path d="M180.5 161.764C208.667 161.764 231.5 138.93 231.5 110.764C231.5 82.5974 208.667 59.7639 180.5 59.7639C152.334 59.7639 129.5 82.5974 129.5 110.764C129.5 138.93 152.334 161.764 180.5 161.764Z" stroke="#5a30c5" stroke-dasharray="3 3"/>
</g>
<g filter="url(#filter0_f_977_23617)">
<path d="M372.148 161.5H-20.8516V203H372.148V161.5Z" fill="white"/>
</g>
<g filter="url(#filter1_f_977_23617)">
<path d="M372.148 -20.5H-20.8516V27.5H372.148V-20.5Z" fill="white"/>
</g>
<path fill-rule="evenodd" clip-rule="evenodd" d="M170.505 110.772C171.686 110.09 171.688 107.883 170.51 105.842C169.331 103.802 167.419 102.7 166.238 103.381C165.058 104.063 165.056 106.27 166.234 108.311C167.412 110.352 169.325 111.454 170.505 110.772ZM170.512 115.142C171.691 117.183 171.689 119.39 170.508 120.071C169.327 120.753 167.415 119.651 166.237 117.611C165.058 115.57 165.06 113.363 166.241 112.681C167.422 111.999 169.334 113.101 170.512 115.142ZM178.559 119.794C179.737 121.835 179.735 124.042 178.554 124.724C177.374 125.405 175.461 124.303 174.283 122.262C173.105 120.222 173.107 118.015 174.287 117.333C175.468 116.651 177.38 117.753 178.559 119.794ZM178.556 110.494C179.734 112.535 179.732 114.742 178.552 115.424C177.371 116.106 175.459 115.004 174.28 112.963C173.102 110.922 173.104 108.715 174.285 108.034C175.465 107.352 177.378 108.454 178.556 110.494Z" fill="#F26E7E"/>
<path fill-rule="evenodd" clip-rule="evenodd" d="M194.653 108.316C195.831 106.275 195.829 104.068 194.649 103.386C193.468 102.705 191.556 103.806 190.377 105.847C189.199 107.888 189.201 110.095 190.382 110.777C191.562 111.459 193.475 110.357 194.653 108.316ZM194.653 112.684C195.834 113.365 195.836 115.572 194.658 117.613C193.479 119.654 191.567 120.756 190.386 120.074C189.206 119.392 189.204 117.185 190.382 115.145C191.56 113.104 193.473 112.002 194.653 112.684ZM186.609 117.328C187.789 118.01 187.791 120.217 186.613 122.258C185.435 124.298 183.522 125.4 182.342 124.718C181.161 124.037 181.159 121.83 182.337 119.789C183.516 117.748 185.428 116.646 186.609 117.328ZM186.604 108.031C187.785 108.712 187.787 110.919 186.608 112.96C185.43 115.001 183.518 116.103 182.337 115.421C181.156 114.739 181.154 112.532 182.333 110.491C183.511 108.451 185.423 107.349 186.604 108.031Z" fill="#8A3391"/>
<path fill-rule="evenodd" clip-rule="evenodd" d="M184.709 95.4687C184.709 96.8321 182.798 97.9374 180.442 97.9374C178.085 97.9374 176.175 96.8321 176.175 95.4687C176.175 94.1053 178.085 93 180.442 93C182.798 93 184.709 94.1053 184.709 95.4687ZM176.664 100.108C176.664 101.472 174.754 102.577 172.397 102.577C170.04 102.577 168.13 101.472 168.13 100.108C168.13 98.7448 170.04 97.6395 172.397 97.6395C174.754 97.6395 176.664 98.7448 176.664 100.108ZM188.497 102.577C190.853 102.577 192.764 101.472 192.764 100.108C192.764 98.7448 190.853 97.6395 188.497 97.6395C186.14 97.6395 184.23 98.7448 184.23 100.108C184.23 101.472 186.14 102.577 188.497 102.577ZM184.709 104.758C184.709 106.122 182.798 107.227 180.442 107.227C178.085 107.227 176.175 106.122 176.175 104.758C176.175 103.395 178.085 102.289 180.442 102.289C182.798 102.289 184.709 103.395 184.709 104.758Z" fill="#F7BF2A"/>
</g>
</g>
<defs>
<filter id="filter0_f_977_23617" x="-40.8516" y="141.5" width="433" height="81.5" filterUnits="userSpaceOnUse" color-interpolation-filters="sRGB">
<feFlood flood-opacity="0" result="BackgroundImageFix"/>
<feBlend mode="normal" in="SourceGraphic" in2="BackgroundImageFix" result="shape"/>
<feGaussianBlur stdDeviation="10" result="effect1_foregroundBlur_977_23617"/>
</filter>
<filter id="filter1_f_977_23617" x="-40.8516" y="-40.5" width="433" height="88" filterUnits="userSpaceOnUse" color-interpolation-filters="sRGB">
<feFlood flood-opacity="0" result="BackgroundImageFix"/>
<feBlend mode="normal" in="SourceGraphic" in2="BackgroundImageFix" result="shape"/>
<feGaussianBlur stdDeviation="10" result="effect1_foregroundBlur_977_23617"/>
</filter>
<clipPath id="clip0_977_23617">
<rect width="361" height="179" fill="white"/>
</clipPath>
</defs>
</svg>
