<svg id="Layer_1" data-name="Layer 1" xmlns="http://www.w3.org/2000/svg" viewBox="0 0 319.47 207.14"><defs><style>.cls-1{fill:#ee985d;}.cls-2{fill:#522768;}</style></defs><title>pulumi_crosswalk_mark</title><path class="cls-1" d="M302.33,119a50.9,50.9,0,0,1-69,71.67,82.16,82.16,0,0,1-74.43-3.06,88.06,88.06,0,0,1-46.37,13.09A91.12,91.12,0,0,1,101,200a7.8,7.8,0,1,1,2-15.47,74.51,74.51,0,0,0,9.46.6A72.57,72.57,0,0,0,154.23,172a7.79,7.79,0,0,1,8.71-.15,66.49,66.49,0,0,0,67.33,2.91,7.83,7.83,0,0,1,8.41.69,34.94,34.94,0,0,0,21.41,7.25A35.3,35.3,0,0,0,286,123.44a7.79,7.79,0,0,1,.83-11.37A45.67,45.67,0,0,0,244.4,33a7.78,7.78,0,0,1-7.58-1.65,61,61,0,0,0-90.26,9.48,7.81,7.81,0,0,1-9,2.73A73.11,73.11,0,0,0,43,89.74a7.8,7.8,0,0,1-5.39,5.13,29.86,29.86,0,0,0,4.93,58.52A7.8,7.8,0,1,1,41,168.91,45.45,45.45,0,0,1,29.48,81.13a88.7,88.7,0,0,1,108-54A76.58,76.58,0,0,1,244,16.91,61.27,61.27,0,0,1,302.33,119Z"/><path class="cls-2" d="M169.2,112.51A53.48,53.48,0,0,1,115.72,166a9.61,9.61,0,0,1,0-19.22,34.26,34.26,0,1,0-34.25-34.26h0v85a9.61,9.61,0,0,1-19.22,0v-85h0a53.48,53.48,0,0,1,107,0Zm103.33,37.25L220.59,102l35.17-31.95a9.62,9.62,0,0,0-12.94-14.24l-33.6,30.53V35.19a9.61,9.61,0,1,0-19.22,0v39.5A9.61,9.61,0,0,0,179.71,90.6L190,100.06v3.79L181,112a9.61,9.61,0,0,0,6.47,16.73,9.72,9.72,0,0,0,2.51-.33v27a9.61,9.61,0,1,0,19.22,0V117.71l50.3,46.21a9.61,9.61,0,1,0,13-14.16Z"/></svg>