<svg width="14" height="14" viewBox="0 0 14 14" fill="none" xmlns="http://www.w3.org/2000/svg">
<path d="M3.55829 5.83334L2.33329 10.5V4.66668H12.25C12.25 4.35726 12.127 4.06051 11.9082 3.84172C11.6895 3.62293 11.3927 3.50001 11.0833 3.50001H6.99996L5.83329 2.33334H2.33329C2.02387 2.33334 1.72713 2.45626 1.50833 2.67505C1.28954 2.89384 1.16663 3.19059 1.16663 3.50001V10.5C1.16663 10.8094 1.28954 11.1062 1.50833 11.325C1.72713 11.5438 2.02387 11.6667 2.33329 11.6667H11.0833C11.6083 11.6667 12.075 11.3167 12.1916 10.7917L13.5333 5.83334H3.55829ZM11.0833 10.5H3.49996L4.43329 7.00001H12.0166L11.0833 10.5Z" fill="#131314"/>
</svg>
