<svg width="19" height="19" viewBox="0 0 19 19" fill="none" xmlns="http://www.w3.org/2000/svg">
<path d="M15.0731 9.78249C15.1031 9.54249 15.1256 9.30249 15.1256 9.04749C15.1256 8.79249 15.1031 8.55249 15.0731 8.31249L16.6556 7.07499C16.7981 6.96249 16.8356 6.75998 16.7456 6.59499L15.2456 3.99999C15.1781 3.87999 15.0506 3.81249 14.9156 3.81249C14.8706 3.81249 14.8256 3.81999 14.7881 3.83499L12.9206 4.58499C12.5306 4.28499 12.1106 4.03749 11.6531 3.84999L11.3681 1.86249C11.3456 1.68249 11.1881 1.54749 11.0006 1.54749H8.00061C7.81311 1.54749 7.65561 1.68249 7.63311 1.86249L7.34811 3.84999C6.89061 4.03749 6.47061 4.29249 6.08061 4.58499L4.21311 3.83499C4.16811 3.81999 4.12311 3.81249 4.07811 3.81249C3.95061 3.81249 3.82311 3.87999 3.75561 3.99999L2.25561 6.59499C2.15811 6.75998 2.20311 6.96249 2.34561 7.07499L3.92811 8.31249C3.89811 8.55249 3.87561 8.79999 3.87561 9.04749C3.87561 9.29499 3.89811 9.54249 3.92811 9.78249L2.34561 11.02C2.20311 11.1325 2.16561 11.335 2.25561 11.5L3.75561 14.095C3.82311 14.215 3.95061 14.2825 4.08561 14.2825C4.13061 14.2825 4.17561 14.275 4.21311 14.26L6.08061 13.51C6.47061 13.81 6.89061 14.0575 7.34811 14.245L7.63311 16.2325C7.65561 16.4125 7.81311 16.5475 8.00061 16.5475H11.0006C11.1881 16.5475 11.3456 16.4125 11.3681 16.2325L11.6531 14.245C12.1106 14.0575 12.5306 13.8025 12.9206 13.51L14.7881 14.26C14.8331 14.275 14.8781 14.2825 14.9231 14.2825C15.0506 14.2825 15.1781 14.215 15.2456 14.095L16.7456 11.5C16.8356 11.335 16.7981 11.1325 16.6556 11.02L15.0731 9.78249ZM13.5881 8.49999C13.6181 8.73249 13.6256 8.88999 13.6256 9.04749C13.6256 9.20499 13.6106 9.36999 13.5881 9.59499L13.4831 10.4425L14.1506 10.9675L14.9606 11.5975L14.4356 12.505L13.4831 12.1225L12.7031 11.8075L12.0281 12.3175C11.7056 12.5575 11.3981 12.7375 11.0906 12.865L10.2956 13.1875L10.1756 14.035L10.0256 15.0475H8.97561L8.71311 13.1875L7.91811 12.865C7.59561 12.73 7.29561 12.5575 6.99561 12.3325L6.31311 11.8075L5.51811 12.13L4.56561 12.5125L4.04061 11.605L4.85061 10.975L5.51811 10.45L5.41311 9.60249C5.39061 9.36999 5.37561 9.19749 5.37561 9.04749C5.37561 8.89749 5.39061 8.72499 5.41311 8.49999L5.51811 7.65249L4.85061 7.12749L4.04061 6.49749L4.56561 5.58999L5.51811 5.97249L6.29811 6.28749L6.97311 5.77749C7.29561 5.53749 7.60311 5.35749 7.91061 5.22999L8.70561 4.90749L8.82561 4.05999L8.97561 3.04749H10.0181L10.2806 4.90749L11.0756 5.22999C11.3981 5.36499 11.6981 5.53749 11.9981 5.76249L12.6806 6.28749L13.4756 5.96499L14.4281 5.58249L14.9531 6.48999L14.1506 7.12749L13.4831 7.65249L13.5881 8.49999ZM9.50061 6.04749C7.84311 6.04749 6.50061 7.38999 6.50061 9.04749C6.50061 10.705 7.84311 12.0475 9.50061 12.0475C11.1581 12.0475 12.5006 10.705 12.5006 9.04749C12.5006 7.38999 11.1581 6.04749 9.50061 6.04749ZM9.50061 10.5475C8.67561 10.5475 8.00061 9.87249 8.00061 9.04749C8.00061 8.22249 8.67561 7.54749 9.50061 7.54749C10.3256 7.54749 11.0006 8.22249 11.0006 9.04749C11.0006 9.87249 10.3256 10.5475 9.50061 10.5475Z" fill="#2B2B2C"/>
</svg>
