<svg width="19" height="19" viewBox="0 0 19 19" fill="none" xmlns="http://www.w3.org/2000/svg">
<path d="M15.0736 9.78236C15.1036 9.54236 15.1261 9.30236 15.1261 9.04736C15.1261 8.79236 15.1036 8.55236 15.0736 8.31236L16.6561 7.07486C16.7986 6.96236 16.8361 6.75986 16.7461 6.59486L15.2461 3.99986C15.1786 3.87986 15.0511 3.81236 14.9161 3.81236C14.8711 3.81236 14.8261 3.81986 14.7886 3.83486L12.9211 4.58486C12.5311 4.28486 12.1111 4.03736 11.6536 3.84986L11.3686 1.86236C11.3461 1.68236 11.1886 1.54736 11.0011 1.54736H8.0011C7.8136 1.54736 7.6561 1.68236 7.6336 1.86236L7.3486 3.84986C6.8911 4.03736 6.4711 4.29236 6.0811 4.58486L4.2136 3.83486C4.1686 3.81986 4.1236 3.81236 4.0786 3.81236C3.9511 3.81236 3.8236 3.87986 3.7561 3.99986L2.2561 6.59486C2.1586 6.75986 2.2036 6.96236 2.3461 7.07486L3.9286 8.31236C3.8986 8.55236 3.8761 8.79986 3.8761 9.04736C3.8761 9.29486 3.8986 9.54236 3.9286 9.78236L2.3461 11.0199C2.2036 11.1324 2.1661 11.3349 2.2561 11.4999L3.7561 14.0949C3.8236 14.2149 3.9511 14.2824 4.0861 14.2824C4.1311 14.2824 4.1761 14.2749 4.2136 14.2599L6.0811 13.5099C6.4711 13.8099 6.8911 14.0574 7.3486 14.2449L7.6336 16.2324C7.6561 16.4124 7.8136 16.5474 8.0011 16.5474H11.0011C11.1886 16.5474 11.3461 16.4124 11.3686 16.2324L11.6536 14.2449C12.1111 14.0574 12.5311 13.8024 12.9211 13.5099L14.7886 14.2599C14.8336 14.2749 14.8786 14.2824 14.9236 14.2824C15.0511 14.2824 15.1786 14.2149 15.2461 14.0949L16.7461 11.4999C16.8361 11.3349 16.7986 11.1324 16.6561 11.0199L15.0736 9.78236ZM13.5886 8.49986C13.6186 8.73236 13.6261 8.88986 13.6261 9.04736C13.6261 9.20486 13.6111 9.36986 13.5886 9.59486L13.4836 10.4424L14.1511 10.9674L14.9611 11.5974L14.4361 12.5049L13.4836 12.1224L12.7036 11.8074L12.0286 12.3174C11.7061 12.5574 11.3986 12.7374 11.0911 12.8649L10.2961 13.1874L10.1761 14.0349L10.0261 15.0474H8.9761L8.7136 13.1874L7.9186 12.8649C7.5961 12.7299 7.2961 12.5574 6.9961 12.3324L6.3136 11.8074L5.5186 12.1299L4.5661 12.5124L4.0411 11.6049L4.8511 10.9749L5.5186 10.4499L5.4136 9.60236C5.3911 9.36986 5.3761 9.19736 5.3761 9.04736C5.3761 8.89736 5.3911 8.72486 5.4136 8.49986L5.5186 7.65236L4.8511 7.12736L4.0411 6.49736L4.5661 5.58986L5.5186 5.97236L6.2986 6.28736L6.9736 5.77736C7.2961 5.53736 7.6036 5.35736 7.9111 5.22986L8.7061 4.90736L8.8261 4.05986L8.9761 3.04736H10.0186L10.2811 4.90736L11.0761 5.22986C11.3986 5.36486 11.6986 5.53736 11.9986 5.76236L12.6811 6.28736L13.4761 5.96486L14.4286 5.58236L14.9536 6.48986L14.1511 7.12736L13.4836 7.65236L13.5886 8.49986ZM9.5011 6.04736C7.8436 6.04736 6.5011 7.38986 6.5011 9.04736C6.5011 10.7049 7.8436 12.0474 9.5011 12.0474C11.1586 12.0474 12.5011 10.7049 12.5011 9.04736C12.5011 7.38986 11.1586 6.04736 9.5011 6.04736ZM9.5011 10.5474C8.6761 10.5474 8.0011 9.87236 8.0011 9.04736C8.0011 8.22236 8.6761 7.54736 9.5011 7.54736C10.3261 7.54736 11.0011 8.22236 11.0011 9.04736C11.0011 9.87236 10.3261 10.5474 9.5011 10.5474Z" fill="#2B2B2C"/>
</svg>
