<svg width="180" height="46" viewBox="0 0 180 46" fill="none" xmlns="http://www.w3.org/2000/svg">
<g clip-path="url(#clip0_1_2)">
<path d="M174 0H6C2.68629 0 0 2.68629 0 6V39.2215C0 42.5352 2.68629 45.2215 6 45.2215H174C177.314 45.2215 180 42.5352 180 39.2215V6C180 2.68629 177.314 0 174 0Z" fill="#2B2B2C"/>
<path d="M17.4163 29.9959C18.1986 29.5428 18.1999 28.0757 17.4193 26.719C16.6386 25.3625 15.3716 24.6301 14.5894 25.0832C13.8072 25.5363 13.8059 27.0034 14.5865 28.36C15.3672 29.7166 16.6341 30.4491 17.4163 29.9959Z" fill="#F26E7E"/>
<path d="M33.4153 28.361C34.196 27.0045 34.1947 25.5374 33.4125 25.0842C32.6303 24.6311 31.3632 25.3634 30.5825 26.7201C29.802 28.0766 29.8032 29.5437 30.5856 29.9969C31.3677 30.4501 32.6347 29.7178 33.4153 28.361Z" fill="#8A3391"/>
<path d="M22.7471 33.0874C23.5293 32.6342 23.5306 31.1671 22.7501 29.8106C21.9694 28.4539 20.7024 27.7215 19.9202 28.1747C19.138 28.6278 19.1367 30.095 19.9173 31.4515C20.6979 32.8083 21.9649 33.5405 22.7471 33.0874Z" fill="#F26E7E"/>
<path d="M28.0856 31.4483C28.8663 30.0918 28.8651 28.6247 28.0828 28.1715C27.3006 27.7184 26.0335 28.4506 25.2529 29.8074C24.4724 31.164 24.4737 32.6311 25.2559 33.0842C26.0381 33.5374 27.3051 32.805 28.0856 31.4483Z" fill="#8A3391"/>
<path d="M23.9975 15.2821C25.5588 15.2821 26.8244 14.5474 26.8244 13.641C26.8244 12.7347 25.5588 12 23.9975 12C22.4362 12 21.1705 12.7347 21.1705 13.641C21.1705 14.5474 22.4362 15.2821 23.9975 15.2821Z" fill="#F7BF2A"/>
<path d="M17.4145 23.8139C18.1967 23.3607 18.198 21.8937 17.4174 20.537C16.6367 19.1805 15.3698 18.4481 14.5875 18.9012C13.8053 19.3544 13.804 20.8215 14.5846 22.1781C15.3653 23.5347 16.6322 24.2671 17.4145 23.8139Z" fill="#F26E7E"/>
<path d="M18.6679 18.3662C20.2292 18.3662 21.4949 17.6314 21.4949 16.725C21.4949 15.8188 20.2292 15.084 18.6679 15.084C17.1067 15.084 15.841 15.8188 15.841 16.725C15.841 17.6314 17.1067 18.3662 18.6679 18.3662Z" fill="#F7BF2A"/>
<path d="M33.4124 22.1813C34.193 20.8247 34.1916 19.3576 33.4095 18.9044C32.6272 18.4513 31.3602 19.1836 30.5797 20.5403C29.799 21.8968 29.8003 23.364 30.5825 23.8172C31.3648 24.2702 32.6317 23.5379 33.4124 22.1813Z" fill="#8A3391"/>
<path d="M29.3342 18.3662C30.8954 18.3662 32.1611 17.6314 32.1611 16.725C32.1611 15.8188 30.8954 15.084 29.3342 15.084C27.7729 15.084 26.5073 15.8188 26.5073 16.725C26.5073 17.6314 27.7729 18.3662 29.3342 18.3662Z" fill="#F7BF2A"/>
<path d="M22.7453 26.9066C23.5276 26.4533 23.5289 24.9862 22.7482 23.6297C21.9676 22.273 20.7007 21.5406 19.9184 21.9938C19.1361 22.447 19.1348 23.914 19.9155 25.2707C20.6962 26.6273 21.9631 27.3597 22.7453 26.9066Z" fill="#F26E7E"/>
<path d="M28.0827 25.2685C28.8633 23.912 28.862 22.4449 28.0797 21.9917C27.2975 21.5385 26.0305 22.2709 25.2499 23.6275C24.4693 24.9841 24.4705 26.4512 25.2528 26.9044C26.0349 27.3575 27.302 26.6252 28.0827 25.2685Z" fill="#8A3391"/>
<path d="M23.9975 21.4576C25.5588 21.4576 26.8244 20.7229 26.8244 19.8166C26.8244 18.9102 25.5588 18.1756 23.9975 18.1756C22.4362 18.1756 21.1705 18.9102 21.1705 19.8166C21.1705 20.7229 22.4362 21.4576 23.9975 21.4576Z" fill="#F7BF2A"/>
<path d="M58.00 23.06L65 23.06L65 23.90Q65 25.22 64.52 26.39Q64.03 27.56 63.16 28.42Q62.29 29.28 60.99 29.77Q59.70 30.26 58.14 30.26L58.14 30.26Q56.56 30.26 55.18 29.69Q53.79 29.11 52.83 28.13Q51.87 27.16 51.31 25.82Q50.76 24.48 50.76 23.00L50.76 23.00Q50.76 21.01 51.70 19.35Q52.64 17.69 54.32 16.71Q56.01 15.74 58.10 15.74L58.10 15.74Q60.03 15.74 61.65 16.67Q63.27 17.59 64.16 19.12L64.16 19.12L62.56 20.06Q61.95 18.92 60.75 18.23Q59.54 17.54 58.08 17.54L58.08 17.54Q56.48 17.54 55.22 18.27Q53.96 18.99 53.28 20.23Q52.60 21.47 52.60 23.00L52.60 23.00Q52.60 25.31 54.15 26.88Q55.70 28.44 58.16 28.44L58.16 28.44Q60.26 28.44 61.56 27.41Q62.86 26.38 63.14 24.74L63.14 24.74L58.00 24.74L58.00 23.06ZM76.67 25.80L68.29 25.80Q68.54 27.13 69.52 27.88Q70.50 28.62 71.91 28.62L71.91 28.62Q72.90 28.62 73.65 28.22Q74.39 27.81 74.79 27.16L74.79 27.16L76.27 28.00Q75.59 29.05 74.46 29.66Q73.33 30.26 71.88 30.26L71.88 30.26Q69.49 30.26 68.00 28.77Q66.51 27.28 66.51 25Q66.51 22.75 67.98 21.25Q69.44 19.74 71.75 19.74L71.75 19.74Q73.21 19.74 74.37 20.47Q75.52 21.21 76.12 22.41Q76.73 23.61 76.73 25.02L76.73 25.02Q76.73 25.41 76.67 25.80L76.67 25.80ZM71.75 21.38L71.75 21.38Q70.35 21.38 69.43 22.17Q68.51 22.96 68.29 24.28L68.29 24.28L74.97 24.28Q74.76 22.86 73.85 22.12Q72.95 21.38 71.75 21.38ZM83.86 20L83.86 21.68L81.20 21.68L81.20 27.10Q81.20 27.83 81.49 28.14Q81.79 28.45 82.38 28.46Q82.97 28.48 83.86 28.44L83.86 28.44L83.86 30Q81.58 30.30 80.52 29.63Q79.46 28.96 79.46 27.10L79.46 27.10L79.46 21.68L77.48 21.68L77.48 20L79.46 20L79.46 17.72L81.20 17.20L81.20 20L83.86 20ZM95.67 30.26L95.67 30.26Q93.71 30.26 92.33 29.34Q90.95 28.42 90.38 26.82L90.38 26.82L91.98 25.90Q92.37 27.10 93.31 27.77Q94.24 28.44 95.72 28.44L95.72 28.44Q97.17 28.44 97.92 27.85Q98.68 27.26 98.68 26.28L98.68 26.28Q98.68 25.86 98.53 25.52Q98.37 25.19 98.13 24.95Q97.88 24.71 97.42 24.48Q96.95 24.26 96.53 24.10Q96.10 23.95 95.38 23.72L95.38 23.72Q94.49 23.44 94.04 23.27Q93.58 23.11 92.89 22.75Q92.20 22.39 91.86 22.02Q91.51 21.65 91.25 21.05Q90.98 20.45 90.98 19.70L90.98 19.70Q90.98 18.48 91.59 17.56Q92.21 16.65 93.20 16.20Q94.19 15.74 95.38 15.74L95.38 15.74Q97.04 15.74 98.27 16.58Q99.50 17.42 100.12 18.80L100.12 18.80L98.55 19.70Q97.66 17.54 95.38 17.54L95.38 17.54Q94.24 17.54 93.54 18.11Q92.84 18.67 92.84 19.62L92.84 19.62Q92.84 20.10 93.01 20.45Q93.18 20.80 93.59 21.08Q93.99 21.36 94.48 21.56Q94.97 21.77 95.78 22.02L95.78 22.02Q97.69 22.65 98.44 23.05L98.44 23.05Q100.01 23.87 100.38 25.20L100.38 25.20Q100.52 25.67 100.52 26.24L100.52 26.24Q100.52 28.07 99.18 29.17Q97.84 30.26 95.67 30.26ZM107.67 20L107.67 21.68L105.01 21.68L105.01 27.10Q105.01 27.83 105.30 28.14Q105.60 28.45 106.19 28.46Q106.78 28.48 107.67 28.44L107.67 28.44L107.67 30Q105.39 30.30 104.33 29.63Q103.27 28.96 103.27 27.10L103.27 27.10L103.27 21.68L101.29 21.68L101.29 20L103.27 20L103.27 17.72L105.01 17.20L105.01 20L107.67 20ZM117.51 21.72L117.51 20L119.25 20L119.25 30L117.51 30L117.51 28.28Q116.89 29.22 115.93 29.74Q114.97 30.26 113.73 30.26L113.73 30.26Q112.35 30.26 111.19 29.57Q110.03 28.88 109.35 27.67Q108.67 26.46 108.67 25Q108.67 23.54 109.35 22.33Q110.03 21.12 111.19 20.43Q112.35 19.74 113.73 19.74L113.73 19.74Q114.97 19.74 115.93 20.26Q116.89 20.78 117.51 21.72L117.51 21.72ZM113.95 28.58L113.95 28.58Q115.46 28.58 116.48 27.56Q117.51 26.53 117.51 25Q117.51 23.47 116.48 22.44Q115.46 21.42 113.95 21.42L113.95 21.42Q112.44 21.42 111.43 22.44Q110.41 23.47 110.41 25Q110.41 26.53 111.43 27.56Q112.44 28.58 113.95 28.58ZM123.62 20L123.62 21.68Q124.48 19.82 126.75 19.82L126.75 19.82L126.75 21.64Q126.15 21.62 125.62 21.77Q125.09 21.91 124.63 22.25Q124.17 22.59 123.90 23.22Q123.62 23.85 123.62 24.70L123.62 24.70L123.62 30L121.88 30L121.88 20L123.62 20ZM134.12 20L134.12 21.68L131.46 21.68L131.46 27.10Q131.46 27.83 131.76 28.14Q132.05 28.45 132.64 28.46Q133.23 28.48 134.12 28.44L134.12 28.44L134.12 30Q131.85 30.30 130.79 29.63Q129.73 28.96 129.73 27.10L129.73 27.10L129.73 21.68L127.74 21.68L127.74 20L129.73 20L129.73 17.72L131.46 17.20L131.46 20L134.12 20ZM145.28 25.80L136.90 25.80Q137.16 27.13 138.13 27.88Q139.11 28.62 140.53 28.62L140.53 28.62Q141.51 28.62 142.26 28.22Q143.01 27.81 143.41 27.16L143.41 27.16L144.88 28.00Q144.20 29.05 143.07 29.66Q141.94 30.26 140.49 30.26L140.49 30.26Q138.11 30.26 136.62 28.77Q135.13 27.28 135.13 25Q135.13 22.75 136.59 21.25Q138.06 19.74 140.36 19.74L140.36 19.74Q141.83 19.74 142.98 20.47Q144.13 21.21 144.74 22.41Q145.34 23.61 145.34 25.02L145.34 25.02Q145.34 25.41 145.28 25.80L145.28 25.80ZM140.36 21.38L140.36 21.38Q138.96 21.38 138.04 22.17Q137.12 22.96 136.90 24.28L136.90 24.28L143.58 24.28Q143.37 22.86 142.47 22.12Q141.56 21.38 140.36 21.38ZM155.60 21.72L155.60 16.00L157.33 16.00L157.33 30L155.60 30L155.60 28.28Q154.98 29.22 154.02 29.74Q153.06 30.26 151.82 30.26L151.82 30.26Q150.44 30.26 149.28 29.57Q148.12 28.88 147.44 27.67Q146.76 26.46 146.76 25Q146.76 23.54 147.44 22.33Q148.12 21.12 149.28 20.43Q150.44 19.74 151.82 19.74L151.82 19.74Q153.06 19.74 154.02 20.26Q154.98 20.78 155.60 21.72L155.60 21.72ZM152.03 28.58L152.03 28.58Q153.54 28.58 154.57 27.56Q155.60 26.53 155.60 25Q155.60 23.47 154.57 22.44Q153.54 21.42 152.03 21.42L152.03 21.42Q150.53 21.42 149.51 22.44Q148.50 23.47 148.50 25Q148.50 26.53 149.51 27.56Q150.53 28.58 152.03 28.58Z" fill="white"/>
</g>
<defs>
<clipPath id="clip0_1_2">
<rect width="180" height="46" fill="white"/>
</clipPath>
</defs>
</svg>
