<svg width="13" height="12" viewBox="0 0 13 12" fill="none" xmlns="http://www.w3.org/2000/svg">
<path d="M1.83329 2.5114H0.666626V10.6781C0.666626 11.3197 1.19163 11.8447 1.83329 11.8447H9.99996V10.6781H1.83329V2.5114ZM11.1666 0.17807H4.16663C3.52496 0.17807 2.99996 0.70307 2.99996 1.34474V8.34474C2.99996 8.9864 3.52496 9.5114 4.16663 9.5114H11.1666C11.8083 9.5114 12.3333 8.9864 12.3333 8.34474V1.34474C12.3333 0.70307 11.8083 0.17807 11.1666 0.17807ZM11.1666 8.34474H4.16663V1.34474H11.1666V8.34474ZM5.33329 4.2614H9.99996V5.42807H5.33329V4.2614ZM5.33329 6.0114H7.66663V7.17807H5.33329V6.0114ZM5.33329 2.5114H9.99996V3.67807H5.33329V2.5114Z" fill="#B985BD"/>
</svg>
