<svg width="17" height="16" viewBox="0 0 17 16" fill="none" xmlns="http://www.w3.org/2000/svg">
<path d="M6.50001 14C6.50001 14.3666 6.80001 14.6666 7.16668 14.6666H9.83334C10.2 14.6666 10.5 14.3666 10.5 14V13.3333H6.50001V14ZM8.50001 1.33331C5.92668 1.33331 3.83334 3.42665 3.83334 5.99998C3.83334 7.58665 4.62668 8.97998 5.83334 9.82665V11.3333C5.83334 11.7 6.13334 12 6.50001 12H10.5C10.8667 12 11.1667 11.7 11.1667 11.3333V9.82665C12.3733 8.97998 13.1667 7.58665 13.1667 5.99998C13.1667 3.42665 11.0733 1.33331 8.50001 1.33331ZM10.4 8.73331L9.83334 9.13331V10.6666H7.16668V9.13331L6.60001 8.73331C5.70001 8.10665 5.16668 7.08665 5.16668 5.99998C5.16668 4.15998 6.66001 2.66665 8.50001 2.66665C10.34 2.66665 11.8333 4.15998 11.8333 5.99998C11.8333 7.08665 11.3 8.10665 10.4 8.73331Z" fill="#5F6065"/>
</svg>
