<svg width="14" height="15" viewBox="0 0 14 15" fill="none" xmlns="http://www.w3.org/2000/svg">
<path d="M11.6667 1.66667H2.33332C1.74999 1.66667 1.16666 2.19167 1.16666 2.83333V4.58917C1.16666 5.00917 1.41749 5.37083 1.74999 5.575V12.1667C1.74999 12.8083 2.39166 13.3333 2.91666 13.3333H11.0833C11.6083 13.3333 12.25 12.8083 12.25 12.1667V5.575C12.5825 5.37083 12.8333 5.00917 12.8333 4.58917V2.83333C12.8333 2.19167 12.25 1.66667 11.6667 1.66667ZM11.0833 12.1667H2.91666V5.75H11.0833V12.1667ZM11.6667 4.58333H2.33332V2.83333H11.6667V4.58333Z" fill="#2B2B2C"/>
<path d="M8.74999 7.5H5.24999V8.66667H8.74999V7.5Z" fill="#2B2B2C"/>
</svg>
