<svg width="25" height="25" viewBox="0 0 25 25" fill="none" xmlns="http://www.w3.org/2000/svg">
<path d="M11.249 4.29749C11.529 4.29749 11.749 4.51749 11.749 4.79749V6.79749H17.749V12.7975H19.749C20.029 12.7975 20.249 13.0175 20.249 13.2975C20.249 13.5775 20.029 13.7975 19.749 13.7975H17.749V19.7975H15.629C14.949 18.0475 13.239 16.7975 11.249 16.7975C9.25902 16.7975 7.54902 18.0475 6.86902 19.7975H4.74902V17.6775C6.49902 16.9975 7.74902 15.2875 7.74902 13.2975C7.74902 11.3075 6.50902 9.59749 4.75902 8.91749L4.74902 6.79749H10.749V4.79749C10.749 4.51749 10.969 4.29749 11.249 4.29749ZM11.249 2.29749C9.86902 2.29749 8.74902 3.41749 8.74902 4.79749H4.74902C3.64902 4.79749 2.75902 5.69749 2.75902 6.79749V10.5975H3.04902C4.53902 10.5975 5.74902 11.8075 5.74902 13.2975C5.74902 14.7875 4.53902 15.9975 3.04902 15.9975H2.74902V19.7975C2.74902 20.8975 3.64902 21.7975 4.74902 21.7975H8.54902V21.4975C8.54902 20.0075 9.75902 18.7975 11.249 18.7975C12.739 18.7975 13.949 20.0075 13.949 21.4975V21.7975H17.749C18.849 21.7975 19.749 20.8975 19.749 19.7975V15.7975C21.129 15.7975 22.249 14.6775 22.249 13.2975C22.249 11.9175 21.129 10.7975 19.749 10.7975V6.79749C19.749 5.69749 18.849 4.79749 17.749 4.79749H13.749C13.749 3.41749 12.629 2.29749 11.249 2.29749Z" fill="#8E8F97"/>
</svg>
