<svg width="25" height="25" viewBox="0 0 25 25" fill="none" xmlns="http://www.w3.org/2000/svg">
<path d="M11.499 18.1222H13.499V16.1222H11.499V18.1222ZM12.499 2.12219C6.97902 2.12219 2.49902 6.60219 2.49902 12.1222C2.49902 17.6422 6.97902 22.1222 12.499 22.1222C18.019 22.1222 22.499 17.6422 22.499 12.1222C22.499 6.60219 18.019 2.12219 12.499 2.12219ZM12.499 20.1222C8.08902 20.1222 4.49902 16.5322 4.49902 12.1222C4.49902 7.71219 8.08902 4.12219 12.499 4.12219C16.909 4.12219 20.499 7.71219 20.499 12.1222C20.499 16.5322 16.909 20.1222 12.499 20.1222ZM12.499 6.12219C10.289 6.12219 8.49902 7.91219 8.49902 10.1222H10.499C10.499 9.02219 11.399 8.12219 12.499 8.12219C13.599 8.12219 14.499 9.02219 14.499 10.1222C14.499 12.1222 11.499 11.8722 11.499 15.1222H13.499C13.499 12.8722 16.499 12.6222 16.499 10.1222C16.499 7.91219 14.709 6.12219 12.499 6.12219Z" fill="#8E8F97"/>
</svg>
