<svg width="11" height="14" viewBox="0 0 11 14" fill="none" xmlns="http://www.w3.org/2000/svg">
<path d="M7.22144 0.89328H3.72144V2.05995H7.22144V0.89328ZM4.8881 8.47661H6.05477V4.97661H4.8881V8.47661ZM9.57227 4.62078L10.4006 3.79245C10.1498 3.49495 9.8756 3.21495 9.5781 2.96995L8.74977 3.79828C7.8456 3.07495 6.7081 2.64328 5.47144 2.64328C2.57227 2.64328 0.221436 4.99411 0.221436 7.89328C0.221436 10.7924 2.56644 13.1433 5.47144 13.1433C8.37644 13.1433 10.7214 10.7924 10.7214 7.89328C10.7214 6.65661 10.2898 5.51911 9.57227 4.62078ZM5.47144 11.9766C3.21394 11.9766 1.3881 10.1508 1.3881 7.89328C1.3881 5.63578 3.21394 3.80995 5.47144 3.80995C7.72894 3.80995 9.55477 5.63578 9.55477 7.89328C9.55477 10.1508 7.72894 11.9766 5.47144 11.9766Z" fill="#8EB287"/>
</svg>
