<svg width="180" height="60" viewBox="0 0 180 60" fill="none" xmlns="http://www.w3.org/2000/svg">
<path d="M11.3123 21.9661C13.3327 21.9661 15.1841 22.6957 16.6236 23.9014L18.5799 21.5723C16.613 19.9212 14.078 18.924 11.313 18.924C5.07474 18.924 0 23.9928 0 30.2225C0 36.4537 5.07509 41.5224 11.3137 41.5203C14.0787 41.5203 16.6134 40.5231 18.5803 38.872L16.624 36.543C15.1379 37.7941 13.2566 38.4796 11.313 38.4782C6.75506 38.4782 3.04625 34.7747 3.04625 30.2225C3.0459 25.6706 6.75506 21.9651 11.3137 21.9661H11.3123ZM73.9332 19.5766H67.842C67.4384 19.5767 67.0512 19.7369 66.7658 20.022C66.4803 20.3071 66.3199 20.6938 66.3198 21.097V39.3477C66.3201 39.7509 66.4805 40.1375 66.766 40.4226C67.0514 40.7077 67.4384 40.868 67.842 40.8684H73.9335C79.8116 40.8684 84.5931 36.0926 84.5931 30.2222C84.5931 24.3511 79.8123 19.5752 73.9321 19.5766H73.9335H73.9332ZM73.9332 37.8274H69.365V22.6184H73.9335C78.132 22.6184 81.5458 26.031 81.5458 30.2232C81.5476 34.4182 78.132 37.8263 73.9321 37.8274H73.9335H73.9332ZM92.8387 21.0977V39.3484C92.8391 39.7516 92.9996 40.1381 93.2851 40.4232C93.5706 40.7082 93.9576 40.8685 94.3613 40.8688H107.052V37.8274H95.885V31.7432H102.991V28.7018H95.8846V22.618H107.052V19.5766H94.3613C94.1614 19.5764 93.9635 19.6156 93.7788 19.692C93.5941 19.7684 93.4263 19.8804 93.285 20.0216C93.1437 20.1628 93.0317 20.3305 92.9555 20.515C92.8792 20.6996 92.8401 20.8973 92.8405 21.097H92.8387V21.0977ZM138.935 21.0977V39.3484C138.935 39.7516 139.095 40.1381 139.381 40.4232C139.666 40.7082 140.053 40.8685 140.457 40.8688H153.147V37.8274H141.98V31.7432H149.086V28.7018H141.98V22.618H153.147V19.5766H140.458C140.258 19.5764 140.06 19.6156 139.875 19.6919C139.69 19.7682 139.522 19.8802 139.381 20.0214C139.239 20.1626 139.127 20.3303 139.051 20.5149C138.974 20.6994 138.935 20.8972 138.935 21.097H138.935L138.935 21.0977ZM124.442 19.5766H117.843C117.439 19.5767 117.052 19.7369 116.766 20.022C116.481 20.3071 116.321 20.6938 116.321 21.097V40.8688H119.366V31.7432H124.443C127.801 31.7432 130.534 29.014 130.534 25.6601C130.533 22.3058 127.801 19.5752 124.441 19.5766H124.442ZM124.442 28.7015H119.366V22.6187H124.442C126.121 22.6187 127.487 23.9819 127.487 25.6601C127.487 27.3383 126.121 28.7029 124.441 28.7015H124.442ZM176.956 19.5766V35.1474L164.421 20.1234C164.22 19.8831 163.951 19.7104 163.649 19.6287C163.347 19.547 163.027 19.5604 162.732 19.667C162.438 19.7734 162.184 19.9678 162.004 20.2236C161.824 20.4795 161.728 20.7844 161.728 21.097V40.8688H164.774V25.2983L177.309 40.3217C177.509 40.5617 177.778 40.7343 178.08 40.8158C178.382 40.8974 178.701 40.8839 178.995 40.7773C179.289 40.6709 179.544 40.4765 179.724 40.2207C179.903 39.9648 180 39.6599 180 39.3474V19.5756H176.956V19.5766ZM57.6683 25.0374C57.6609 24.998 57.6542 24.9586 57.6436 24.9203C57.6373 24.8971 57.6296 24.8753 57.6218 24.8525C57.6111 24.8182 57.5992 24.7845 57.5859 24.7512C57.5764 24.728 57.5655 24.7055 57.5549 24.6833C57.5404 24.6519 57.5245 24.621 57.5074 24.5909C57.4951 24.5687 57.481 24.5476 57.4676 24.5262C57.4165 24.4471 57.3575 24.3733 57.2916 24.3061C57.2733 24.2878 57.255 24.2691 57.2353 24.2512C57.21 24.2281 57.1837 24.2062 57.1564 24.1855C57.1353 24.1693 57.1149 24.1528 57.093 24.1376C57.0849 24.132 57.0783 24.1253 57.0698 24.1201L42.223 14.2343C41.9938 14.0815 41.7244 14 41.4488 14C41.1733 14 40.9039 14.0815 40.6747 14.2343L25.8271 24.1197C25.8187 24.125 25.812 24.1317 25.8039 24.1373C25.7821 24.1528 25.7617 24.1689 25.7405 24.1848C25.6923 24.221 25.6472 24.2613 25.6057 24.305C25.5388 24.372 25.4796 24.4463 25.4293 24.5265C25.4156 24.548 25.4022 24.5687 25.3895 24.5912C25.3719 24.6214 25.3568 24.6524 25.3424 24.683C25.3318 24.7055 25.3205 24.728 25.311 24.7508C25.2977 24.7841 25.2856 24.8179 25.2748 24.8521C25.2677 24.875 25.2596 24.8971 25.2537 24.9179C25.2431 24.9562 25.2361 24.9952 25.229 25.0349C25.2251 25.055 25.2202 25.0747 25.2178 25.0951C25.2097 25.1554 25.2056 25.2163 25.2054 25.2772V35.1654C25.2054 35.2266 25.2097 35.2877 25.2185 35.3475C25.2216 35.3693 25.2273 35.3869 25.2315 35.408C25.2385 35.4474 25.2449 35.4864 25.2579 35.5258C25.2639 35.5476 25.2709 35.5697 25.2797 35.5936C25.2906 35.6288 25.3015 35.6636 25.3149 35.6956C25.3241 35.7174 25.3367 35.7392 25.3452 35.761C25.3846 35.8468 25.4346 35.9274 25.4941 36.0008C25.5092 36.0226 25.5247 36.0402 25.5423 36.0613C25.5645 36.0873 25.586 36.1137 25.612 36.1369C25.63 36.1544 25.6472 36.1759 25.6691 36.1893C25.6944 36.2111 25.7219 36.2328 25.7479 36.2557C25.7691 36.2733 25.7916 36.2863 25.8092 36.3032C25.8173 36.3074 25.8222 36.3162 25.831 36.3204L40.6747 46.211C40.9091 46.3686 41.1781 46.4473 41.4492 46.4459C41.7248 46.4454 41.9942 46.3638 42.2237 46.2114L57.0712 36.3253C57.0793 36.3204 57.0863 36.3141 57.0941 36.3084C57.1163 36.293 57.1367 36.2768 57.1575 36.2606C57.1849 36.2395 57.2117 36.217 57.237 36.1945C57.256 36.1773 57.2743 36.1587 57.293 36.1404C57.335 36.0979 57.374 36.0524 57.4095 36.0043C57.4447 35.9563 57.4776 35.9066 57.5081 35.8556C57.5261 35.8253 57.5415 35.794 57.5563 35.7628C57.5669 35.7402 57.5774 35.7181 57.5873 35.6952C57.6005 35.6617 57.6125 35.6277 57.6232 35.5933C57.6306 35.5708 57.6384 35.5486 57.645 35.5258C57.6553 35.4871 57.6623 35.4481 57.6697 35.4087C57.6732 35.3886 57.6785 35.369 57.6803 35.3486C57.6883 35.2881 57.6929 35.228 57.6929 35.1661V25.28C57.6926 25.2191 57.6884 25.1583 57.6806 25.0979C57.6771 25.0764 57.6704 25.0588 57.6662 25.0374H57.6683ZM41.4485 33.5213L36.5114 30.2232L41.4485 26.9245L46.3863 30.2232L41.4485 33.5213ZM40.053 24.5026L34.0006 28.5457L29.1152 25.2818L40.0533 17.999V24.5026H40.053ZM31.4898 30.2225L27.9979 32.5554V27.8896L31.4902 30.2225H31.4898ZM34.0006 31.9014L40.053 35.9442V42.4471L29.1149 35.1636L34.0006 31.9V31.9011V31.9014ZM42.8447 35.9431L48.8971 31.9004L53.7828 35.164L42.8447 42.4468V35.9431ZM51.4078 30.2236L54.9001 27.8903V32.5561L51.4078 30.2225V30.2236ZM48.8971 28.5457L42.8447 24.503V17.999L53.7828 25.2818L48.8971 28.5457Z" fill="black"/>
</svg>
