<svg width="180" height="60" viewBox="0 0 180 60" fill="none" xmlns="http://www.w3.org/2000/svg">
<path d="M0 26.2516C0 19.5427 5.01631 14.3381 12.0422 14.3381C16.2748 14.3381 20.015 16.4814 21.9996 19.7381L18.0619 21.9961C16.9301 19.9676 14.6884 18.7239 12.0422 18.7239C7.50878 18.7239 4.53349 21.8255 4.53349 26.2516C4.53349 30.6777 7.52446 33.7453 12.0422 33.7453C14.6884 33.7453 16.9708 32.5046 18.0619 30.5071L21.9996 32.7651C20.0464 36.0374 16.303 38.1651 12.0422 38.1651C5.01631 38.1651 0 32.9202 0 26.2516Z" fill="black"/>
<path d="M34.1735 21.0159V25.7273C31.9569 25.4668 29.1572 26.4469 29.1572 29.8835V37.7059H24.8745V21.3415H29.1572V24.1579C30.0193 21.9309 32.1011 21.0159 34.1735 21.0159Z" fill="black"/>
<path d="M44.2907 34.3343C45.9461 34.3343 47.2692 33.6488 47.9964 32.6998L51.4452 34.6631C49.8776 36.8869 47.4071 38.1648 44.2343 38.1648C38.6787 38.1648 35.1704 34.3995 35.1704 29.5236C35.1704 24.6478 38.7007 20.8855 43.8925 20.8855C48.7896 20.8855 52.2603 24.7129 52.2603 29.5236C52.2575 30.1051 52.2029 30.6854 52.0973 31.2575H39.6287C40.2243 33.4286 42.0427 34.3343 44.2907 34.3343ZM47.9964 27.9852C47.4667 25.6311 45.6827 24.6819 43.8925 24.6819C41.6101 24.6819 40.055 25.8916 39.5597 27.9852H47.9964Z" fill="black"/>
<path d="M71.9157 14.7971V37.706H67.6456V35.7768C66.4573 37.2811 64.7016 38.165 62.2875 38.165C57.8543 38.165 54.2175 34.3996 54.2175 29.5238C54.2175 24.648 57.8543 20.8857 62.2875 20.8857C64.7016 20.8857 66.4573 21.7697 67.6456 23.274V14.7971H71.9157ZM67.6456 29.5238C67.6456 26.7757 65.6955 24.9085 63.0807 24.9085C60.466 24.9085 58.4845 26.7696 58.4845 29.5238C58.4845 32.278 60.4346 34.1391 63.0807 34.1391C65.7268 34.1391 67.6456 32.278 67.6456 29.5238Z" fill="black"/>
<path d="M75.3197 16.7918C75.3023 16.4398 75.3574 16.088 75.4816 15.7576C75.6058 15.4273 75.7965 15.1254 76.0422 14.8702C76.2879 14.6149 76.5834 14.4118 76.9108 14.2729C77.2382 14.1341 77.5907 14.0625 77.947 14.0625C78.3032 14.0625 78.6557 14.1341 78.9832 14.2729C79.3106 14.4118 79.6062 14.6149 79.8518 14.8702C80.0975 15.1254 80.2882 15.4273 80.4124 15.7576C80.5366 16.088 80.5917 16.4398 80.5743 16.7918C80.5743 17.482 80.2972 18.1439 79.8038 18.6319C79.3105 19.1199 78.6415 19.3941 77.9438 19.3941C77.2463 19.3941 76.5772 19.1199 76.0839 18.6319C75.5906 18.1439 75.3135 17.482 75.3135 16.7918H75.3197ZM75.8088 21.3388H80.0758V37.7063H75.8151L75.8088 21.3388Z" fill="black"/>
<path d="M84.1856 21.3419H88.4526V38.0351C88.4526 42.8457 86.1357 45.0044 81.2417 44.7098V40.6528C83.2608 40.7831 84.1888 40.0325 84.1888 38.0351L84.1856 21.3419ZM83.6871 16.7918C83.6871 16.1016 83.9643 15.4397 84.4576 14.9516C84.9508 14.4636 85.6199 14.1895 86.3175 14.1895C87.0151 14.1895 87.6842 14.4636 88.1775 14.9516C88.6708 15.4397 88.948 16.1016 88.948 16.7918C88.948 17.4819 88.6708 18.1438 88.1775 18.6318C87.6842 19.1199 87.0151 19.394 86.3175 19.394C85.6199 19.394 84.9508 19.1199 84.4576 18.6318C83.9643 18.1438 83.6871 17.4819 83.6871 16.7918Z" fill="black"/>
<path d="M107.536 21.3413V37.7057H103.269V35.8726C102.278 37.3459 100.557 38.1647 98.341 38.1647C94.8358 38.1647 92.0894 35.7423 92.0894 31.3907V21.3413H96.3564V30.8665C96.3564 33.0904 97.7139 34.238 99.6327 34.238C101.717 34.238 103.269 33.0252 103.269 30.178V21.3413H107.536Z" fill="black"/>
<path d="M123.78 32.9205C123.78 36.4532 120.67 38.1561 117.13 38.1561C113.823 38.1561 111.374 36.782 110.183 34.2604L113.888 32.1978C114.352 33.5408 115.478 34.3255 117.13 34.3255C118.488 34.3255 119.413 33.8696 119.413 32.9205C119.413 30.5291 110.879 31.838 110.879 26.0782C110.879 22.7408 113.757 20.8767 117.149 20.8767C119.827 20.8767 122.143 22.0864 123.42 24.3444L119.783 26.3078C119.56 25.8001 119.189 25.3701 118.718 25.0727C118.246 24.7753 117.696 24.6243 117.137 24.639C116.077 24.639 115.218 25.098 115.218 25.9821C115.218 28.4013 123.752 26.9125 123.752 32.9205" fill="black"/>
<path d="M131.753 25.4012V32.2063C131.753 33.9742 133.041 34.0084 135.49 33.8781V37.7056C129.502 38.36 127.483 36.6261 127.483 32.2063V25.4012H124.604V21.3412H127.483V18.0317L131.753 16.76V21.3412H135.49V25.4012H131.753Z" fill="black"/>
<path d="M137.143 29.5241C137.14 27.8106 137.651 26.1347 138.611 24.7088C139.572 23.2828 140.938 22.1709 142.537 21.5137C144.136 20.8566 145.897 20.6839 147.596 21.0174C149.295 21.3509 150.855 22.1757 152.08 23.3873C153.305 24.5989 154.138 26.1429 154.476 27.8235C154.813 29.5042 154.638 31.246 153.974 32.8285C153.31 34.411 152.186 35.7627 150.744 36.7129C149.303 37.6629 147.609 38.1683 145.877 38.1652C144.726 38.1773 143.585 37.962 142.521 37.532C141.456 37.102 140.488 36.4659 139.674 35.6611C138.861 34.8563 138.218 33.8989 137.783 32.8451C137.348 31.7912 137.131 30.6621 137.143 29.5241ZM150.376 29.5241C150.376 26.8752 148.423 25.008 145.877 25.008C143.331 25.008 141.398 26.8752 141.398 29.5241C141.398 32.1729 143.35 34.0401 145.864 34.0401C148.379 34.0401 150.363 32.179 150.363 29.5241" fill="black"/>
<path d="M167.683 45.5563L179.96 14.763C179.993 14.6785 180.006 14.5871 179.996 14.4967C179.985 14.4064 179.953 14.3199 179.902 14.2447C179.85 14.1695 179.781 14.1079 179.7 14.0653C179.618 14.0226 179.528 14.0002 179.436 14H171.31C171.16 14.0001 171.013 14.0448 170.889 14.1283C170.765 14.2119 170.669 14.3303 170.614 14.4684L158.328 45.2647C158.294 45.3491 158.281 45.4404 158.291 45.5306C158.302 45.6207 158.334 45.7072 158.386 45.7822C158.437 45.8572 158.507 45.9184 158.588 45.9608C158.669 46.003 158.759 46.025 158.851 46.0247H166.975C167.125 46.0243 167.272 45.9796 167.396 45.8961C167.521 45.8127 167.618 45.6943 167.674 45.5563" fill="#FE9E2C"/>
</svg>
