<svg width="122" height="35" viewBox="0 0 122 35" fill="none" xmlns="http://www.w3.org/2000/svg">
<path d="M23.9899 17.4498C23.9697 17.464 23.9531 17.4831 23.9417 17.5053C23.9303 17.5276 23.9243 17.5524 23.9243 17.5775C23.9243 17.6027 23.9303 17.6274 23.9417 17.6497C23.9531 17.6719 23.9697 17.691 23.9899 17.7052L27.6943 19.9C28.0533 20.1142 28.3372 20.4392 28.5058 20.8286C28.5162 20.8421 28.5253 20.8566 28.533 20.872C28.5699 20.9374 28.5925 21.0103 28.5993 21.0856C28.6542 21.2723 28.6821 21.4663 28.6823 21.6613V24.9612L31.1288 26.4115V18.2918C31.1293 17.9367 31.2205 17.5879 31.3933 17.2802C31.5662 16.9725 31.8145 16.7167 32.1137 16.5382L39.0007 12.4288L32.1348 8.36122C31.9939 8.27811 31.8343 8.23438 31.6718 8.23438C31.5093 8.23438 31.3496 8.27811 31.2087 8.36122L28.6823 9.85793V13.4999C28.682 13.8554 28.5907 14.2047 28.4176 14.5127C28.2445 14.8207 27.9956 15.0767 27.6958 15.2551L23.9899 17.4498Z" fill="#0023FF"/>
<path d="M39.3306 13.4764L32.6398 17.4681C32.4996 17.5522 32.3833 17.6724 32.3023 17.8169C32.2214 17.9613 32.1786 18.1249 32.1782 18.2915V26.4267L39.0742 22.3405C39.2149 22.2569 39.3316 22.1368 39.4129 21.9923C39.4942 21.8478 39.537 21.6839 39.5373 21.5171V13.3525L39.3306 13.4764Z" fill="#0023FF"/>
<path d="M11.8419 15.2551C11.543 15.0762 11.295 14.82 11.1227 14.512C10.9504 14.204 10.8598 13.8551 10.86 13.4999V9.85801L8.32906 8.3613C8.18782 8.2777 8.02755 8.23391 7.8645 8.23438C7.7024 8.23387 7.54309 8.27768 7.40296 8.3613L0.537109 12.4289L7.42408 16.5382C7.72277 16.7172 7.97066 16.9732 8.14317 17.2808C8.31568 17.5884 8.4068 17.937 8.4075 18.2919V26.4054L10.86 24.9551V21.6552C10.8603 21.2996 10.9516 20.9504 11.1247 20.6424C11.2978 20.3343 11.5467 20.0784 11.8465 19.9L15.5464 17.7068C15.5666 17.6926 15.5831 17.6736 15.5945 17.6513C15.606 17.6291 15.6119 17.6043 15.6119 17.5791C15.6119 17.554 15.606 17.5292 15.5945 17.507C15.5831 17.4847 15.5666 17.4657 15.5464 17.4514L11.8419 15.2551Z" fill="#0023FF"/>
<path d="M6.89752 17.4681L0.205131 13.4748L0 13.3525V21.5171C0.000235787 21.6839 0.0431235 21.8478 0.124379 21.9923C0.205635 22.1368 0.322414 22.2569 0.463052 22.3405L7.35907 26.4267V18.2915C7.35838 18.125 7.31547 17.9615 7.23454 17.8171C7.15362 17.6727 7.03747 17.5525 6.89752 17.4681Z" fill="#0023FF"/>
<path d="M18.7817 26.0651L11.9038 21.9883V29.882C11.9037 30.0495 11.9465 30.2141 12.0281 30.3592C12.1096 30.5043 12.227 30.6247 12.3684 30.7085L19.2463 34.7838V26.271C19.0835 26.2229 18.9274 26.1538 18.7817 26.0651Z" fill="#0023FF"/>
<path d="M20.7545 26.0646C20.6095 26.1502 20.4544 26.2162 20.293 26.2612V34.774L27.1709 30.708C27.3115 30.6243 27.4283 30.5042 27.5096 30.3597C27.5908 30.2152 27.6337 30.0514 27.6339 29.8846V22.0156L20.7545 26.0646Z" fill="#0023FF"/>
<path d="M27.1693 20.8314L22.7259 18.2002L20.756 19.3672C20.4555 19.5447 20.1148 19.6382 19.768 19.6382C19.4213 19.6382 19.0806 19.5447 18.7801 19.3672L16.8102 18.2002L12.3683 20.8314C12.3187 20.8605 12.2722 20.8947 12.2295 20.9336L12.5674 21.1332L19.3065 25.1265C19.4473 25.2098 19.607 25.2536 19.7696 25.2536C19.9321 25.2536 20.0918 25.2098 20.2326 25.1265L27.02 21.1317L27.3217 20.9506C27.2752 20.9055 27.2241 20.8655 27.1693 20.8314Z" fill="#0023FF"/>
<path d="M20.293 9.88091V18.3937L27.1709 14.32C27.3115 14.2363 27.4283 14.1162 27.5096 13.9717C27.5908 13.8272 27.6337 13.6634 27.6339 13.4965V5.63379L20.7545 9.68434C20.6095 9.76989 20.4544 9.83595 20.293 9.88091Z" fill="#0023FF"/>
<path d="M19.2448 9.87988C19.0829 9.83411 18.9273 9.76754 18.7817 9.68176L11.9038 5.60645V13.5001C11.9042 13.6671 11.9473 13.8311 12.0288 13.9756C12.1104 14.1201 12.2275 14.2401 12.3684 14.3236L19.2463 18.3989L19.2448 9.87988Z" fill="#0023FF"/>
<path d="M27.1693 4.45459L20.2311 0.343672C20.0905 0.260549 19.9311 0.216797 19.7688 0.216797C19.6065 0.216797 19.4471 0.260549 19.3065 0.343672L12.3683 4.45459C12.3191 4.48365 12.2726 4.51733 12.2295 4.5552L12.5674 4.75641L19.3065 8.74969C19.4474 8.83265 19.6071 8.8763 19.7696 8.8763C19.932 8.8763 20.0917 8.83265 20.2326 8.74969L27.02 4.75486L27.3217 4.57377C27.2752 4.52862 27.2241 4.48867 27.1693 4.45459Z" fill="#0023FF"/>
<path fill-rule="evenodd" clip-rule="evenodd" d="M57.4138 27.5355C61.7411 27.5355 65.4229 24.7216 66.4712 20.6958C66.5783 20.2547 66.337 19.9792 65.88 19.9792H62.7125C62.3369 19.9792 62.1212 20.1711 61.9583 20.5302C61.2042 22.2126 59.4591 23.2326 57.4168 23.2326C54.0849 23.2326 51.9341 20.9435 51.9341 17.4965C51.9341 14.0496 54.0849 11.7604 57.4168 11.7604C59.4591 11.7604 61.2072 12.7804 61.9583 14.4629C62.1197 14.8204 62.3354 15.0139 62.7125 15.0139H65.88C66.3325 15.0139 66.5783 14.7043 66.4712 14.24C65.3686 10.2158 61.714 7.45605 57.4138 7.45605C51.7425 7.45605 47.6309 11.8131 47.6309 17.495C47.6309 23.1769 51.7425 27.5355 57.4138 27.5355ZM79.399 7.843H67.8423C67.4124 7.843 67.1696 8.09219 67.1696 8.53331V11.4014C67.1696 11.8425 67.4124 12.0901 67.8423 12.0901H71.4622V26.4598C71.4622 26.9009 71.7051 27.1485 72.1349 27.1485H75.0912C75.5211 27.1485 75.7624 26.9009 75.7624 26.4598V12.0901H79.3914C79.8213 12.0901 80.0626 11.8425 80.0626 11.4014V8.53331C80.0702 8.09219 79.8289 7.843 79.399 7.843ZM90.9285 27.5355C96.3298 27.5355 100.711 23.1785 100.711 17.4965C100.711 11.8146 96.3298 7.4576 90.9285 7.4576C85.5273 7.4576 81.1471 11.8146 81.1471 17.4965C81.1471 23.1785 85.5212 27.5355 90.9285 27.5355ZM90.9285 23.2326C87.8652 23.2326 85.4458 20.9435 85.4458 17.4965C85.4458 14.0496 87.8591 11.7604 90.9285 11.7604C93.998 11.7604 96.4113 14.0496 96.4113 17.4965C96.4113 20.9435 93.9919 23.2326 90.9285 23.2326Z" fill="#0023FF"/>
<path fill-rule="evenodd" clip-rule="evenodd" d="M103.698 26.603C104.476 26.603 104.961 26.2176 104.961 25.3059C104.961 24.3943 104.476 23.9826 103.698 23.9826C102.92 23.9826 102.434 24.3958 102.434 25.3059C102.434 26.216 102.918 26.603 103.698 26.603ZM112.083 15.1292C114.044 15.1292 115.25 16.2885 115.25 18.1629V18.9089H111.464C108.562 18.9089 106.761 20.37 106.761 22.797C106.761 25.3338 108.562 26.7407 111.412 26.7407C113.024 26.7407 114.579 26.052 115.255 24.7549V25.7548C115.245 25.8727 115.259 25.9914 115.296 26.1034C115.334 26.2153 115.393 26.3182 115.471 26.4053C115.549 26.4925 115.644 26.5621 115.749 26.6097C115.855 26.6572 115.969 26.6818 116.084 26.6818C116.2 26.6818 116.314 26.6572 116.419 26.6097C116.525 26.5621 116.62 26.4925 116.698 26.4053C116.776 26.3182 116.835 26.2153 116.872 26.1034C116.91 25.9914 116.924 25.8727 116.914 25.7548V18.1706C116.914 15.3583 115.194 13.4824 112.077 13.4824C109.814 13.4824 108.368 14.4482 107.615 15.6617C107.528 15.8 107.481 15.9612 107.481 16.126C107.481 16.3381 107.564 16.5414 107.71 16.6914C107.856 16.8414 108.054 16.9258 108.261 16.9262C108.502 16.9262 108.691 16.8426 108.959 16.5393C109.805 15.5719 110.659 15.1292 112.083 15.1292ZM111.571 25.1357C109.476 25.1357 108.508 24.2256 108.508 22.7908C108.508 21.1919 109.715 20.4459 111.464 20.4459H115.255V21.6052C115.255 23.9547 113.454 25.1357 111.571 25.1357ZM121.839 14.5163C121.839 14.2823 121.748 14.0579 121.587 13.8925C121.426 13.727 121.207 13.6341 120.979 13.6341C120.751 13.6341 120.532 13.727 120.371 13.8925C120.21 14.0579 120.119 14.2823 120.119 14.5163V25.7145C120.119 25.9485 120.21 26.1729 120.371 26.3384C120.532 26.5038 120.751 26.5968 120.979 26.5968C121.207 26.5968 121.426 26.5038 121.587 26.3384C121.748 26.1729 121.839 25.9485 121.839 25.7145V14.5163ZM120.979 11.0508C121.624 11.0508 122 10.6654 122 10.003C122 9.20278 121.624 8.89941 120.979 8.89941C120.333 8.89941 119.958 9.20897 119.958 10.003C119.958 10.6623 120.333 11.0508 120.979 11.0508Z" fill="#0023FF"/>
</svg>
