<svg xmlns="http://www.w3.org/2000/svg" xmlns:xlink="http://www.w3.org/1999/xlink" viewBox="0 0 459.5 165.7" xmlns:v="https://vecta.io/nano"><path fill="#1e1b58" d="M225.1 93.4V50.6h-7.4c-3.9.1-7 3.3-7 7.2v35c0 7.6-3.4 10.8-9 10.8-3.3 0-5.8-1.1-8.7-3.3-1.2-1-2.7-1.5-4.3-1.5-3.8 0-6.8 3-6.8 6.8v.1c0 2.2 1 4.2 2.7 5.5 5 3.8 11.1 5.8 17.3 5.7 7.1 0 13-2.1 17-6.1s6.1-9.6 6.2-17.4m-50.5-31.3L154 83.3l20.6 21.3c2.8 2.7 2.9 7.1.2 9.9l-.2.2c-2.8 2.7-7.2 2.6-9.9-.2l-29.6-31.2 29.6-31.2c2.7-2.8 7.1-2.9 9.9-.2l.2.2c2.7 2.8 2.6 7.2-.2 10 0-.1 0-.1 0 0m-39.9 47.6c0 3.5-3.1 6.3-7.1 6.3h-7.1V57.7c0-3.8 3-7 6.8-7.1h7.4v59.1zm236.4-36.3v-.2c0-13.4-9.5-22.7-25.1-22.7h-19.5c-3.9 0-7.2 3.1-7.2 7.1V116h7.3c3.8 0 7.1-2.8 7.1-6.3v-46h13.1c6.1.6 9.8 4 9.8 9.8v.2c0 5.2-3.6 9.2-9.8 9.9h-.1c-4.7 0-8.6 3.9-8.6 8.6v4.2h6.5l3.2-.1c13.1-1.1 23.3-8.9 23.3-22.9M110.2 103H77V50.6h-7.4c-3.9.1-7 3.3-7 7.2v58.3h41.1c3.6 0 6.5-2.8 6.6-6.4l-.1-6.7zM14.3 103h36.1v6.7c0 3.5-2.9 6.4-6.4 6.4H0V57.8c0-3.9 3.2-7.2 7.1-7.2h43.3V57c0 3.5-2.8 6.4-6.3 6.4H14.3v13.3h25c3.6 0 6.4 2.9 6.5 6.5 0 3.5-2.9 6.4-6.4 6.4h-25l-.1 13.4zM304.9 70.2c-.9-2-1.9-3.9-3.2-5.6-.1-.1-1.6-2.3-1.6-2.3l-5.6 5.6c-1.9 1.8-2.5 4.6-1.5 7.1 4.4 10.9-.8 23.3-11.7 27.7-5.1 2.1-10.9 2.1-16 0-2.7-1.1-5.7-.3-7.5 2-1.3 1.2-5.2 5.2-5.2 5.2 2.3 1.9 4.8 3.4 7.5 4.7l.3.2c17.5 7.1 37.4-1.3 44.6-18.8 1.7-4.1 2.5-8.5 2.5-13 .1-4.4-.8-8.8-2.6-12.8m-51.3 20.9c-4.4-10.9.8-23.3 11.7-27.7 5.1-2.1 10.9-2.1 16 0 2.5 1 5.3.4 7.1-1.5l5.6-5.6c-2.2-1.8-4.6-3.3-7.2-4.6l-.6-.3c-17.5-7.1-37.5 1.3-44.6 18.8-3.4 8.3-3.4 17.5 0 25.8.1.4.4 1 .6 1.4 1.3 2.2 2.7 4.4 4.2 6.4l5.1-5.1c.9-.7 1.6-1.6 2-2.6.7-1.5.7-3.4.1-5"/><path d="M416.9 93.8l-19.2 20.4c-8.4 8.6-13.3 20.1-13.7 32.2v1.8c0 4.4.6 8.7 1.7 12.9l1.4 4.4 40.5-41.2c10.6-10.5 10.6-27.6 0-38.2l-5-5-2.1-2.3a17.5 17.5 0 0 1-3.6 15m-31-89.5c-1.9 8.8-1.5 18 1 26.6 3.4 11.8 13 22.7 13 22.7l40 40.2c4.1 4.1 5.8 9.9 4.7 15.5l1.8-2 5.1-5c4.4-4.4 7.2-10.3 7.8-16.5.1-.8.1-1.7.1-2.5v-.2c0-7.1-2.9-14-7.9-19L386.7 0l-.8 4.3z" fill="#93d500"/><defs><path id="A" d="M416.9 93.8l-19.2 20.4c-8.4 8.6-13.3 20.1-13.7 32.2v1.8c0 4.4.6 8.7 1.7 12.9l1.4 4.4 40.5-41.2c10.5-10.5 10.5-27.6 0-38.2l-5-5-2.1-2.3c1.2 5.4-.1 10.9-3.6 15"/></defs><clipPath id="B"><use xlink:href="#A"/></clipPath><g clip-path="url(#B)"><linearGradient id="C" x1="375.782" x2="430.384" y1="167.621" y2="95.685" gradientUnits="userSpaceOnUse"><stop offset="0" stop-color="#006d46" stop-opacity="0"/><stop offset=".17" stop-color="#006d46" stop-opacity=".05"/><stop offset=".37" stop-color="#006d46" stop-opacity=".18"/><stop offset=".59" stop-color="#006d46" stop-opacity=".41"/><stop offset=".83" stop-color="#006d46" stop-opacity=".72"/><stop offset="1" stop-color="#006d46"/></linearGradient><path fill="url(#C)" d="M342.3 134l60.8-80.1 74.9 56.8-60.9 80.1z"/></g><defs><path id="D" d="M385.9 4.3c-1.9 8.8-1.5 18 1 26.6 3.4 11.8 13 22.7 13 22.7l40 40.2c4.1 4.1 5.8 9.9 4.7 15.5l1.8-2 5.1-5.1c4.4-4.4 7.2-10.3 7.8-16.5.1-.8.1-1.7.1-2.5V83c0-7.1-2.9-14-7.9-19L386.7 0l-.8 4.3z"/></defs><clipPath id="E"><use xlink:href="#D"/></clipPath><g clip-path="url(#E)"><linearGradient id="F" x1="448.666" x2="393.265" y1="86.448" y2="22.717" gradientUnits="userSpaceOnUse"><stop offset="0" stop-color="#006d46" stop-opacity="0"/><stop offset=".17" stop-color="#006d46" stop-opacity=".05"/><stop offset=".37" stop-color="#006d46" stop-opacity=".18"/><stop offset=".59" stop-color="#006d46" stop-opacity=".41"/><stop offset=".83" stop-color="#006d46" stop-opacity=".72"/><stop offset="1" stop-color="#006d46"/></linearGradient><path fill="url(#F)" d="M328.5 47.1L426.4-38l87.2 100.3-97.9 85.1z"/></g></svg>
