<svg width="180" height="60" viewBox="0 0 180 60" fill="none" xmlns="http://www.w3.org/2000/svg">
<path d="M121.432 32.5176C121.432 37.3472 121.432 42.1469 121.402 46.9766H114.562C114.562 42.0869 114.592 37.1973 114.622 32.3076C114.622 31.9176 114.622 31.4976 114.592 31.1077V30.9577C114.592 30.4777 114.472 30.0577 114.292 29.6378C114.202 29.4278 114.112 29.2178 113.992 29.0378C113.932 28.9178 113.842 28.7978 113.752 28.6778C113.662 28.5578 113.542 28.4378 113.452 28.3479C112.792 27.7179 111.892 27.3879 110.992 27.3879C109.403 27.2379 107.033 30.0577 107.033 30.0577V29.3378C107.033 29.3378 110.452 25.948 111.982 24.9581C113.122 24.2081 114.442 23.7582 115.792 23.7882C117.142 23.7882 118.492 24.2981 119.452 25.2281C120.382 26.128 120.922 27.3879 121.192 28.6478C121.342 29.4278 121.402 30.2377 121.432 31.0177C121.432 31.5276 121.432 32.0076 121.432 32.5176ZM51.6265 46.9766V28.9478L57.2061 23.9082C57.4761 23.6682 57.896 23.8482 57.896 24.2081V47.0066H51.6265V46.9766ZM73.525 32.5176C73.525 37.3472 73.525 42.1469 73.495 46.9766H66.6554C66.6554 42.0869 66.6854 37.1973 66.7154 32.3076C66.7154 31.9176 66.7154 31.4976 66.6854 31.1077V30.9577C66.6854 30.4777 66.5654 30.0577 66.3855 29.6378C66.2955 29.4278 66.2055 29.2178 66.0855 29.0378C66.0255 28.9178 65.9355 28.7978 65.8455 28.6778C65.7555 28.5578 65.6355 28.4378 65.5455 28.3479C64.8856 27.7179 63.9856 27.3879 63.0857 27.3879C61.4958 27.2379 59.126 30.0277 59.126 30.0277V29.3378C59.126 29.3378 62.5457 25.948 64.0756 24.9581C65.2155 24.2081 66.5354 23.7582 67.8854 23.7882C69.2353 23.7882 70.5852 24.2981 71.5451 25.2281C72.475 26.128 73.015 27.3879 73.285 28.6478C73.435 29.4278 73.495 30.2377 73.525 31.0177C73.525 31.5276 73.525 32.0076 73.525 32.5176ZM104.783 12.149L99.1732 18.2985C98.9932 18.4785 98.9032 18.7485 98.9032 19.0185V46.9466H105.593V12.4489C105.593 12.029 105.053 11.849 104.783 12.149ZM6.62955 12.6589V46.6766C6.62955 46.8566 6.47956 47.0066 6.29957 47.0066H0.329979C0.149992 47.0066 0 46.8566 0 46.6766V19.1385C0.0299979 19.0485 0.0599968 18.9885 0.0899948 18.8985L5.66961 12.329C6.02959 11.969 6.62955 12.179 6.62955 12.6589ZM23.6084 24.3581L17.6988 30.2677C17.5188 30.4477 17.2488 30.3577 17.1888 30.1177C16.6189 27.9879 14.759 25.4381 12.7791 24.3281C12.5391 24.1781 12.6891 23.7882 12.9891 23.7882H23.3684C23.6684 23.8482 23.7284 24.2081 23.6084 24.3581ZM25.0783 46.9766H18.2388C18.1488 46.9766 18.0588 46.9466 17.9988 46.8566L16.9488 45.5667L10.6493 37.8572C10.5593 37.7372 10.5593 37.3772 10.6793 37.2872L14.669 33.2975C14.819 33.1475 15.179 33.1775 15.299 33.3275L18.8387 37.8572L25.4083 46.3166C25.6182 46.5866 25.4083 46.9766 25.0783 46.9766ZM94.3435 37.2872C94.0436 36.5373 93.6236 35.8473 93.1436 35.2174C91.0138 32.5776 87.384 31.8276 84.5042 30.0577C83.7243 29.5778 83.0643 28.8878 82.7343 28.0179C82.3444 26.9379 82.4644 25.678 83.4243 24.9281C84.0243 24.4481 84.8042 24.2081 85.5841 24.1481C86.9341 24.0281 88.284 24.3881 89.4839 25.0481C90.6838 25.708 91.6737 26.638 92.5437 27.6879C92.6337 27.8079 92.7537 27.9279 92.9036 28.0179C93.0536 28.0779 93.2636 28.0179 93.2936 27.8979C93.3236 27.8379 93.3236 27.7779 93.3236 27.7179V24.0582C93.3236 23.9082 93.3236 23.8182 92.7836 23.8182C90.9838 23.8182 88.9139 23.7882 87.144 23.8182C85.4642 23.8182 83.8143 23.7282 82.2544 24.4481C80.9645 25.0181 79.9445 26.038 79.1346 27.1779C78.2946 28.4079 77.7547 29.8777 77.8747 31.3476C78.0547 33.3875 79.3746 35.1274 80.9345 36.4773C82.3444 37.7072 83.9643 38.6671 85.6741 39.4471C86.8741 39.9871 88.194 40.557 88.9139 41.7869C89.4539 42.7169 89.5439 43.9168 89.0339 44.9067C88.4639 46.0166 87.204 46.5566 86.0041 46.7366C85.5542 46.7966 85.1042 46.8266 84.6842 46.7966C83.2743 46.7066 82.0744 46.0766 80.9345 45.2667C79.9145 44.5467 77.9047 42.2969 77.9047 42.2969C77.9047 42.2969 77.9047 44.8167 77.9047 45.8667C77.9047 46.2266 77.9347 46.6766 78.2346 46.9166C78.4446 47.0666 78.7446 47.0966 78.9846 47.0966H87.744C88.7039 47.0066 89.1839 46.9166 89.3339 46.8866C90.0238 46.7366 90.6838 46.5266 91.3737 46.2266C92.6637 45.6267 93.8336 44.6067 94.4635 43.3168C95.2135 41.367 95.0935 39.1771 94.3435 37.2872ZM32.5778 32.4876C32.5778 30.1477 33.1777 27.4779 35.0376 25.858C36.7775 24.3281 39.6873 24.0581 41.1872 26.038C41.4572 26.368 41.6372 26.758 41.7571 27.1479C42.3271 29.1278 41.4572 31.1077 39.0273 31.8576C38.9673 31.8576 38.9673 31.9476 39.0273 31.9476H46.8868C47.3968 31.9476 47.7567 31.4676 47.6367 30.9877C47.1568 28.7378 45.8369 26.788 43.947 25.498C39.1773 22.2883 32.4878 23.4582 28.978 27.9279C27.3281 30.0577 26.4282 32.6976 26.4282 35.3974C26.4282 41.7269 31.4379 46.8866 37.6474 46.8866C41.3972 46.8866 44.7269 44.6367 46.5868 41.457C46.6468 41.337 46.5268 41.217 46.4068 41.277C45.1769 41.7569 43.497 42.1769 42.2071 42.1169C37.4974 41.9369 32.5778 38.0972 32.5778 32.4876Z" fill="black"/>
<path d="M137.001 47.2164C137.001 47.2464 137.001 47.2164 137.001 47.2164C133.941 46.9764 130.941 45.8065 128.781 43.5267C127.491 42.1768 126.531 40.5569 126.021 38.757C125.841 38.067 125.661 37.4071 125.601 36.6871C125.271 33.7473 126.081 30.7775 127.821 28.4077C128.901 26.9378 130.281 25.7679 131.901 24.9879C133.311 24.298 134.841 23.878 136.401 23.728C136.581 23.728 136.791 23.728 136.971 23.728C135.471 23.998 134.271 25.3779 133.761 26.7878C133.191 28.4077 133.221 30.1776 133.221 31.8575C133.221 33.7173 133.221 35.6072 133.221 37.4671V39.5669C133.221 40.9768 133.281 42.3868 133.701 43.7067C134.271 45.3266 135.471 46.4965 137.001 47.2164ZM139.34 47.2164C139.34 47.2464 139.34 47.2164 139.34 47.2164C142.4 46.9764 145.4 45.8065 147.56 43.5267C148.85 42.1768 149.81 40.5569 150.32 38.757C150.5 38.067 150.68 37.4071 150.74 36.6871C151.07 33.7473 150.26 30.7775 148.52 28.4077C147.44 26.9378 146.06 25.7679 144.44 24.9879C143.03 24.298 141.5 23.878 139.94 23.728C139.76 23.728 139.55 23.728 139.37 23.728C140.87 23.998 142.07 25.3779 142.58 26.7878C143.15 28.4077 143.12 30.1776 143.12 31.8575C143.12 33.7173 143.12 35.6072 143.12 37.4671V39.5669C143.12 40.9768 143.06 42.3868 142.64 43.7067C142.07 45.3266 140.87 46.4965 139.34 47.2164Z" fill="black"/>
<path d="M166.189 47.2164C166.189 47.2464 166.189 47.2164 166.189 47.2164C163.129 46.9764 160.129 45.8065 157.969 43.5267C156.679 42.1768 155.719 40.5569 155.209 38.757C155.029 38.067 154.849 37.4071 154.789 36.6871C154.459 33.7473 155.269 30.7775 157.009 28.4077C158.089 26.9378 159.469 25.7679 161.089 24.9879C162.499 24.298 164.029 23.878 165.589 23.728C165.769 23.728 165.979 23.728 166.159 23.728C164.659 23.998 163.459 25.3779 162.949 26.7878C162.379 28.4077 162.409 30.1776 162.409 31.8575C162.409 33.7173 162.409 35.6072 162.409 37.4671V39.5669C162.409 40.9768 162.469 42.3868 162.889 43.7067C163.459 45.3266 164.659 46.4965 166.189 47.2164ZM168.528 47.2164C168.528 47.2464 168.528 47.2164 168.528 47.2164C171.588 46.9764 174.588 45.8065 176.748 43.5267C178.038 42.1768 178.998 40.5569 179.508 38.757C179.688 38.067 179.868 37.4071 179.928 36.6871C180.258 33.7473 179.448 30.7775 177.708 28.4077C176.628 26.9378 175.248 25.7679 173.628 24.9879C172.218 24.298 170.688 23.878 169.128 23.728C168.948 23.728 168.738 23.728 168.558 23.728C170.058 23.998 171.258 25.3779 171.768 26.7878C172.338 28.4077 172.308 30.1776 172.308 31.8575C172.308 33.7173 172.308 35.6072 172.308 37.4671V39.5669C172.308 40.9768 172.248 42.3868 171.828 43.7067C171.288 45.3266 170.088 46.4965 168.528 47.2164Z" fill="black"/>
</svg>
