<?xml version="1.0" encoding="utf-8"?>
<!-- Generator: Adobe Illustrator 27.5.0, SVG Export Plug-In . SVG Version: 6.00 Build 0)  -->
<svg version="1.1" id="Layer_1" xmlns="http://www.w3.org/2000/svg" xmlns:xlink="http://www.w3.org/1999/xlink" x="0px" y="0px"
	 viewBox="0 0 180 41" style="enable-background:new 0 0 180 41;" xml:space="preserve">
<style type="text/css">
	.st0{clip-path:url(#SVGID_00000141436507887052691670000006037334902333267084_);}
	.st1{fill-rule:evenodd;clip-rule:evenodd;}
</style>
<g>
	<defs>
		<rect id="SVGID_1_" width="180" height="41"/>
	</defs>
	<clipPath id="SVGID_00000042724158621357973970000017918201239496124566_">
		<use xlink:href="#SVGID_1_"  style="overflow:visible;"/>
	</clipPath>
	<g style="clip-path:url(#SVGID_00000042724158621357973970000017918201239496124566_);">
		<path class="st1" d="M166.6,28.8l-0.1-1c0-0.2-0.6-4.3,2.2-7.2c0.8-0.8,1.8-1.3,2.7-1.3c0.8,0,1.4,0.3,1.7,1
			C174.6,23.3,166.6,28.8,166.6,28.8z M154.4,22.3l-0.1-1.7l0-0.2c0-0.1-0.4-5.5,0-9.5c0.4-4.3,1.6-7,3.2-7c0.3,0,0.6,0.2,0.9,0.5
			c0.8,1,1,3.5,0.5,5.8c-0.8,3.7-2,6.6-2.9,8.8c-0.3,0.6-0.5,1.1-0.7,1.6L154.4,22.3z M145.9,33.9c-2,0-2.9-1.9-2.9-3.7
			c0-9.2,5.1-11,7.3-10.3c0,0,0.1,1.7,0.3,4c0.2,1.9,0.3,4.3,0.3,4.5C150.9,28.4,149.1,33.9,145.9,33.9z M129.8,20.3
			c0,0-0.6,13.6-5.7,13.6c-2.5,0-2.6-2.7-2.6-3.6C121.5,20.6,128.9,18.9,129.8,20.3z M82.4,34.2c-2.9,0-4-2.9-4-5.7
			c0-5,2.9-8.8,5.4-8.8c2.4,0,3.3,3.3,3.3,5.6C87.1,30.3,85,34.2,82.4,34.2z M35.6,22.7c-1.7,2.6-5.5,5.2-6.6,5.6
			c0,0-0.8-5.1,3.4-8.1C35.4,18,36.8,20.8,35.6,22.7z M163.9,34.7c1.2,1.9,3.3,2.8,6.3,2.8c3.3,0,6.7-2.5,8.7-4.8
			c1.2-1.4,1.3-2.2,0.8-2.6c-0.4-0.4-1.4,0.1-2.3,0.9c-1.2,1.1-3.8,2.7-6.1,2.7c-2.7,0-4-1.8-4-1.8c5.6-3.4,9.7-7.3,9.7-10.6
			c0-3.7-2.8-5.4-5.5-5.4c-4.9,0-10.2,4.5-10.2,11.7c0,2.4,0.8,4.4,0.8,4.4s-1,1.5-4,1.3c-3.3-0.3-3.1-6.2-3.1-6.2s1-1.9,1.4-2.6
			c2.2-4.1,5.2-9.6,5.7-16.3c0.3-3.7-0.8-5.8-1.7-6.8c-0.8-0.9-1.9-1.5-3-1.5c-3.8,0-6.4,3.9-7,7.7c-0.6,3.8-0.4,9.4-0.4,9.4
			s-3.4-0.8-6.8,1.5c-3.1,2.1-4.5,6.4-4.9,8.5c-0.2,1-0.3,2-0.2,3c0,0.5,0.2,1.4,0.2,1.4s-1.1,2.4-3.1,2.4c-3.2,0-1.1-14.9-1-15.8
			c0.1-0.7,0.5-2.1-1.8-2.2c-1.4-0.1-1.9,0.5-2,1.1l-0.1,0.7c0,0-4.6-3.2-9.9,2.5c-2.8,3-3.8,7.4-3.9,10.9l0,0.2
			c0,0-1.2,3.3-3.8,2.8c-1.8-0.3-2-3.5-2-4.7c0-2.4,0.5-5,1-7.1c0.3-1.3,0.5-2.5,0.5-3.1c0-2.3-0.6-3.2-2.1-3.2
			c-2,0-3.8,1.6-5.8,4.1c-2.6,3.1-4.5,8.1-4.5,8.1s0.1-0.9,0.2-1.7c0.1-0.5,0.3-3.1,0.7-5.4c0.2-1.3,0.3-2.3,0.3-2.4
			c0.1-0.6-0.1-1.2-0.4-1.6c-0.3-0.4-0.8-0.6-1.4-0.6c-0.9,0-2,0.6-2.6,2.3c-0.2,0.8-0.4,1.3-0.6,2.2l-0.2,0.8l-0.6-0.6
			c-2.5-2.3-5.9-4.9-10.8-4.9c-6.9,0-10.6,6.4-10.6,12.4c0,0.7,0,1.4,0.1,2.1l0,0.3c0,0-1.4,3.5-4,2.9c-1.1-0.3-1.8-1.5-1.8-4.3
			c0-2.3,0.5-5.5,0.7-7.4c0.1-0.6,0.2-1.2,0.2-1.4l0.1-0.7c0.2-2.1,0.2-3.1-0.5-3.5c-0.5-0.3-1.1-0.5-1.7-0.5c-0.6,0-1,0.3-1.4,0.6
			c-0.6,0.4-2.7,3.2-6.5,9.5c-0.1,0.1-0.1,0.2-0.1,0.2L58.8,27l-1,2.2l0.6-3.2l0-0.2c0.1-0.5,0.2-1.5,0.3-1.8l0.2-0.7
			c0.3-1.1,0.8-3.5,0.9-3.9c0.2-1.4,0.1-2.3-0.3-2.8c-0.3-0.4-0.8-0.6-1.6-0.6c-1.4,0-2.5,1.1-4.5,4.2c-0.3,0.5-1.4,2.4-2.3,3.9
			c-1.2,1.9-2.2,3.4-2.2,3.4l0.2-2.6c0.2-1.2,0.9-6.5,0.9-6.7c0-1.1-0.6-1.6-1.7-1.6c-0.5,0-1.7,0.1-2.2,1.1
			c-0.5,0.9-1.7,5-2.3,11.2c0,0-4.9,4.7-10.1,4.7c-1.9,0-3.4-0.8-4-2.2c0,0,2.8-1.5,4.1-2.4c3.4-2.4,5.8-4.8,5.8-7.8
			c0-3.8-3.5-5.5-6.3-5.1c-4.9,0.6-9,5.8-9,11.8c0,5.6,3.1,9.7,8.6,9.7c6.3,0,10.7-5.2,10.7-5.2l-0.1,2.4c-0.1,1.2,0.4,2.8,2.5,2.8
			c0.6,0,1.6-0.2,2.1-1.4c3.2-7.1,6.6-12.7,6.6-12.8l0.1-0.2l0.6-1.1l0.9-1.5l-0.7,3.1c-0.1,0.7-1.2,7.1-1.4,9.9
			c-0.1,1.4-0.1,2.8,0.5,3.4c0.3,0.3,0.7,0.4,1.4,0.4c1.5,0,2.5-0.5,2.8-1.6c2.5-7.6,5.2-12.7,5.3-12.9l0.1-0.2l1.4-2.8
			c0,0-1.1,6.3-1.1,10.6c0,2.1,0.4,5.8,3.3,6.5c4.5,1.1,7.2-3.6,7.2-3.6l0.3,0.8c1.3,2.2,3.4,3.3,6.1,3.3c5.7,0,9.3-4.4,9.3-11.3
			c0-4.3-2-6.7-2-6.7s2.2,0.8,3.8,1.9c1.7,1.2,2.9,2.6,2.9,2.6l0,0.3c-0.1,0.3-0.1,0.7-0.1,1c-0.2,1.3-0.3,2.7-0.5,4.1
			c-0.1,1.3-0.2,2.5-0.2,3.5c0,0.6,0,1.2,0.1,1.8c0.1,0.5,0.2,1,0.4,1.4c0.1,0.1,0.6,1.2,2.1,1.2c1,0,1.6-0.3,2-1.4
			c4.4-10.3,7.9-13.6,8.3-14c0.8-0.9,0.4,0.7,0.4,0.7l0,0.2c0,0-0.6,3.5-0.7,4.6c-0.1,1-0.2,2-0.2,3c0,2.9,0.6,6.2,4,6.7
			c4.6,0.7,6.2-2.9,6.2-2.9s1.7,3,5.6,3c5.7,0,7.5-4.4,7.5-4.4c0.6,2.6,1.7,4.1,4.3,4.1c2.8,0,4.7-3.2,4.7-3.2s1.6,3.5,5.6,3.5
			c4.6,0,6.9-3.5,7-3.7l0.5-0.8c0,0,1.5,3.8,5.3,4C161.4,37.3,163.9,34.7,163.9,34.7z M6.9,36.1c-4-0.1-4.3-3.3-0.6-4.1
			c3.4-0.7,6.2,0.4,6.2,0.4S11.7,36.3,6.9,36.1z M24.8,4.3c2.3,0.2,2.2,3.4,1.5,5.5c-1.9,6-6.3,6.2-6.3,6.2S21.4,4,24.8,4.3z
			 M19.6,18.8c0,0,7.5,0,10-8.8c1.5-5.1-0.6-9.5-5-9.6c-4.4-0.1-7.9,3.8-9.5,15.5c0,0-4.3-0.6-6.2-3.9c-0.9-1.6-2.2-0.9-1.8,0.7
			c1.4,5.1,7.7,6,7.7,6s-0.3,2.3-0.6,5.1c-0.4,2.7-1,6.1-1,6.1s-4-1.3-8.2-0.4c-6.5,1.4-7.2,9.4,0.7,10.2c9.3,0.9,11.1-5.5,11.1-5.5
			s1.8,0.9,4.4,3.2c2.9,2.6,4.2,4.2,4.8,3.6c0.7-0.6-0.8-2.8-3.5-5.6c-3-3.2-5.1-4-5.1-4s0.5-2.1,1-5.5
			C19.1,22.2,19.6,18.8,19.6,18.8z"/>
	</g>
</g>
</svg>
