<svg xmlns="http://www.w3.org/2000/svg" width="246.005" height="44.846" viewBox="0 0 246.005 44.846"><defs><style>.a{fill:#00528b;}</style></defs><g transform="translate(123.003 22.423)"><g transform="translate(-123.003 -22.423)"><path class="a" d="M141.7,58.7" transform="translate(-87.571 -36.277)"/><path class="a" d="M140.4,58.7" transform="translate(-86.768 -36.277)"/><path class="a" d="M138.3,58.7" transform="translate(-85.47 -36.277)"/><path class="a" d="M141.7,58.7" transform="translate(-87.571 -36.277)"/><path class="a" d="M140.3,58.7" transform="translate(-86.706 -36.277)"/><path class="a" d="M290.361,44.846H289.1V0h37.741V3.973H297.122V5.348h29.719v1.3H295.823V2.674h29.719V1.3H290.361Z" transform="translate(-178.665)"/><path class="a" d="M156.92,44.808h-4.278V1.3H138.7L127.277,35.793,115.856,1.3h-1.8L126.7,39.04h1.108l12.3-36.366h4.775L130.142,44.426h-6L109.591,1.3H79.261L79.3,4.7V42.058H78V0h32.508L125.1,43.165h4.126L143.054,3.935h-2.025l-12.3,36.4h-2.98L112.265,0h4.508l10.5,31.706L137.782,0h16.158V43.509h1.681V0h1.3Z" transform="translate(-48.204)"/><path class="a" d="M54.205,6.961V2.95H32.584V42.258H52.868v1.337H1.3V1.5H2.827V42.258H22V38.17H6.991V.2h-1.3V39.469H20.742v1.49H4.087V.2H0V44.855H54.167v-3.9H33.883V4.249H52.906V5.663H35.678V19.414H52.1V20.79H35.678v18.68h18.45v-1.3H36.939V22.088H53.365V18.116H36.939V6.961Z" transform="translate(0 -0.124)"/><path class="a" d="M429.688,50.086H407.8l.458-1.3h19.52L418.84,25.6,410.971,46h13.79l.5,1.3h-16.2l9.779-25.1Z" transform="translate(-252.022 -13.72)"/><g transform="translate(129.496)"><path class="a" d="M513.542,1.3h31.476V2.636H524.734V41.9h21.621V37.932H529.089V22.805h16.464V18.832H529.089V6.685h17.19V5.424h-18.45V20.131h16.426v1.375H527.828V39.193h17.228v1.452H526.033V3.9h20.284V0H486V3.973h29.719V5.348H486v1.3h31.018V2.674H487.3V1.3Z" transform="translate(-429.847)"/><path class="a" d="M409.555,41.115h-1.719V11.052h-1.261V42.414h4.278V12.351h1.681V43.865H389.5l-2.025-5.272H364.747l-2.063,5.386H360.7L375.748,5.666h1.031l14.21,36.251h4.737L379.033.7h-5.615L356.266,43.865H346.3V11.052h-4.278V43.865H340.3V11.052H339V45.126h4.278V12.351H345V45.126h12.148L374.258,2h3.9l15.662,38.62h-1.948L377.658,4.405h-2.789L358.826,45.279h4.737l2.063-5.424H386.6l2.025,5.272h25.212V11.052h-4.278Z" transform="translate(-339 -0.433)"/><path class="a" d="M581.4,47.6V6.8h-1.3V48.858h24.41V47.6Z" transform="translate(-488.001 -4.202)"/></g></g></g></svg>