<svg width="301" height="78" viewBox="0 0 301 78" fill="none" xmlns="http://www.w3.org/2000/svg">
<path d="M34.6954 33.712C33.8463 33.7168 33.0236 33.4168 32.3769 32.8665C31.9814 32.5302 31.6632 32.1123 31.4443 31.6415C31.2254 31.1707 31.1109 30.6581 31.1086 30.1389V4.14532C31.1086 3.19406 31.4865 2.28177 32.1592 1.60912C32.8318 0.936481 33.7441 0.558594 34.6954 0.558594C35.6466 0.558594 36.5589 0.936481 37.2316 1.60912C37.9042 2.28177 38.2821 3.19406 38.2821 4.14532V26.5113H60.7162C61.631 26.5676 62.4899 26.9708 63.1177 27.6385C63.7456 28.3062 64.0951 29.1883 64.0951 30.1048C64.0951 31.0213 63.7456 31.9034 63.1177 32.5711C62.4899 33.2388 61.631 33.642 60.7162 33.6984H34.6954V33.712Z" fill="#DD7E79"/>
<path d="M22.9807 33.6998H3.4514C2.5366 33.6434 1.67774 33.2403 1.0499 32.5725C0.422058 31.9048 0.0725098 31.0228 0.0725098 30.1062C0.0725098 29.1897 0.422058 28.3077 1.0499 27.6399C1.67774 26.9722 2.5366 26.5691 3.4514 26.5127H22.9807C23.4712 26.4824 23.9627 26.553 24.425 26.7199C24.8872 26.8868 25.3104 27.1466 25.6685 27.4832C26.0265 27.8199 26.3118 28.2263 26.5069 28.6774C26.7019 29.1285 26.8025 29.6148 26.8025 30.1062C26.8025 30.5977 26.7019 31.0839 26.5069 31.535C26.3118 31.9862 26.0265 32.3925 25.6685 32.7292C25.3104 33.0659 24.8872 33.3257 24.425 33.4926C23.9627 33.6595 23.4712 33.73 22.9807 33.6998Z" fill="#323341"/>
<path d="M50.4333 62.107C49.4947 62.1103 48.5928 61.7427 47.9239 61.0842L32.0087 45.5235L16.2161 61.0024C15.5362 61.6697 14.6189 62.0396 13.6662 62.0306C12.7135 62.0217 11.8034 61.6346 11.1361 60.9547C10.4687 60.2747 10.0989 59.3574 10.1078 58.4047C10.1168 57.452 10.5038 56.5419 11.1838 55.8746L29.4584 37.9682C29.9889 37.4492 30.6672 37.1076 31.4 36.9904C32.1328 36.8731 32.8838 36.986 33.5497 37.3136L33.6998 37.3954C34.0361 37.5597 34.3445 37.776 34.6135 38.0364L52.8745 55.9428C53.3782 56.439 53.7247 57.0726 53.8706 57.7645C54.0166 58.4563 53.9556 59.1759 53.6953 59.8333C53.4349 60.4908 52.9867 61.057 52.4066 61.4613C51.8265 61.8657 51.1402 62.0903 50.4333 62.107Z" fill="#323341"/>
<path d="M76.2632 56.3131V3.82131C76.2686 3.333 76.3702 2.85055 76.5625 2.40164C76.7547 1.95273 77.0337 1.54619 77.3834 1.20535C77.7331 0.864507 78.1467 0.59607 78.6004 0.415438C79.0541 0.234806 79.539 0.145538 80.0272 0.152748C80.9937 0.173613 81.9147 0.566821 82.5982 1.25034C83.2817 1.93386 83.6749 2.8549 83.6958 3.82131V53.6264H108.503C109.382 53.6264 110.225 53.9756 110.846 54.5971C111.468 55.2186 111.817 56.0615 111.817 56.9404C111.817 57.8193 111.468 58.6623 110.846 59.2837C110.225 59.9052 109.382 60.2544 108.503 60.2544H80.2045C79.6733 60.3101 79.1363 60.2464 78.6327 60.0681C78.1292 59.8897 77.6719 59.6011 77.2942 59.2234C76.9165 58.8457 76.6279 58.3884 76.4495 57.8849C76.2711 57.3813 76.2075 56.8443 76.2632 56.3131V56.3131Z" fill="#323341"/>
<path d="M119.986 71.7064C120.245 71.7064 120.695 71.8019 121.418 71.8019C124.364 71.8019 126.341 70.82 127.868 67.2332L130.732 60.6871L114.367 21.2876C114.186 20.8943 114.093 20.466 114.094 20.0329C114.083 19.5903 114.161 19.1499 114.322 18.7375C114.484 18.3252 114.726 17.9493 115.035 17.6318C115.343 17.3142 115.712 17.0615 116.12 16.8884C116.527 16.7152 116.965 16.6252 117.408 16.6235C118.076 16.6206 118.729 16.8143 119.287 17.1806C119.845 17.5468 120.282 18.0693 120.545 18.6828L134.183 52.4499L147.82 18.6828C148.092 18.0756 148.531 17.5588 149.087 17.1938C149.643 16.8288 150.292 16.6309 150.957 16.6235C151.406 16.6161 151.852 16.6993 152.269 16.8682C152.685 17.0371 153.063 17.2881 153.38 17.6064C153.697 17.9247 153.946 18.3036 154.114 18.7205C154.281 19.1375 154.362 19.5838 154.353 20.0329C154.36 20.5018 154.267 20.9667 154.08 21.3967L134.196 69.0471C131.605 75.3204 127.214 77.7343 121.486 77.8298C120.822 77.8547 120.157 77.7951 119.508 77.6525C118.746 77.6114 118.027 77.2836 117.496 76.7348C116.965 76.1859 116.661 75.4567 116.645 74.6931C116.66 74.2749 116.759 73.8642 116.937 73.4854C117.115 73.1066 117.368 72.7677 117.68 72.4888C117.992 72.2099 118.357 71.9969 118.753 71.8624C119.149 71.728 119.569 71.675 119.986 71.7064Z" fill="#323341"/>
<path d="M201.294 57.238C201.305 57.6806 201.228 58.121 201.066 58.5334C200.905 58.9457 200.663 59.3216 200.354 59.6392C200.045 59.9567 199.676 60.2094 199.269 60.3825C198.861 60.5557 198.423 60.6457 197.98 60.6474C197.494 60.6723 197.007 60.5885 196.557 60.4021C196.106 60.2158 195.703 59.9316 195.376 59.57L179.529 40.8727L172.178 47.6915V57.238C172.178 58.1277 171.824 58.9811 171.195 59.6102C170.566 60.2394 169.713 60.5929 168.823 60.5929C167.933 60.5929 167.08 60.2394 166.451 59.6102C165.821 58.9811 165.468 58.1277 165.468 57.238V3.46426C165.468 2.57449 165.821 1.72117 166.451 1.092C167.08 0.462839 167.933 0.109375 168.823 0.109375C169.713 0.109375 170.566 0.462839 171.195 1.092C171.824 1.72117 172.178 2.57449 172.178 3.46426V40.0953L195.553 17.443C195.835 17.1641 196.173 16.9472 196.544 16.8063C196.915 16.6654 197.311 16.6036 197.708 16.6247C198.526 16.6391 199.306 16.9772 199.876 17.565C200.446 18.1529 200.76 18.9426 200.749 19.7614C200.722 20.5627 200.407 21.3275 199.862 21.9162L184.356 36.7813L200.449 54.9605C200.982 55.601 201.28 56.4046 201.294 57.238Z" fill="#323341"/>
<path d="M249.831 57.2405C249.842 57.6832 249.764 58.1236 249.603 58.5359C249.441 58.9482 249.199 59.3242 248.891 59.6417C248.582 59.9592 248.213 60.212 247.805 60.3851C247.398 60.5582 246.96 60.6483 246.517 60.65C246.032 60.6747 245.548 60.5908 245.1 60.4044C244.651 60.218 244.25 59.9338 243.926 59.5726L228.065 40.8752L220.728 47.6941V57.2405C220.674 58.0951 220.296 58.8968 219.671 59.4828C219.047 60.0687 218.223 60.3948 217.366 60.3948C216.51 60.3948 215.686 60.0687 215.061 59.4828C214.437 58.8968 214.059 58.0951 214.005 57.2405V3.46681C214.059 2.61223 214.437 1.81048 215.061 1.22455C215.686 0.638624 216.51 0.3125 217.366 0.3125C218.223 0.3125 219.047 0.638624 219.671 1.22455C220.296 1.81048 220.674 2.61223 220.728 3.46681V40.0978L244.09 17.4455C244.369 17.167 244.705 16.9502 245.073 16.8093C245.442 16.6683 245.836 16.6063 246.231 16.6273C247.051 16.6416 247.832 16.9793 248.404 17.5667C248.976 18.1542 249.293 18.9439 249.286 19.7639C249.253 20.5668 248.934 21.3314 248.385 21.9187L232.907 36.7839L249.026 54.963C249.545 55.609 249.829 56.4121 249.831 57.2405Z" fill="#323341"/>
<path d="M279.302 15.916C292.381 15.916 300.073 26.1307 300.073 37.4091C300.073 39.5639 298.641 40.8186 296.131 40.8186H265.064C265.596 49.0012 271.324 55.8201 280.639 55.8201C284.872 55.8153 288.979 54.3727 292.285 51.7288C292.752 51.4728 293.281 51.3501 293.813 51.3742C294.536 51.3742 295.23 51.6616 295.742 52.1731C296.253 52.6846 296.54 53.3784 296.54 54.1018C296.536 54.5393 296.428 54.9696 296.227 55.358C296.026 55.7465 295.736 56.0823 295.381 56.3383C290.971 59.7369 285.537 61.5355 279.971 61.4389C267.165 61.4389 257.946 52.2197 257.946 38.6911C257.986 26.0352 266.933 15.916 279.302 15.916ZM265.064 35.8817H293.445C293.363 29.4447 289.067 21.4666 279.207 21.4666C270.001 21.4666 265.419 29.2537 265.064 35.8817Z" fill="#323341"/>
</svg>
