<svg width="148" height="37" viewBox="0 0 148 37" fill="none" xmlns="http://www.w3.org/2000/svg">
<path d="M43.4194 0.000300176C44.3669 0.0175902 45.1308 0.78821 45.148 1.74394V25.4095H56.8363C57.6987 25.4095 58.3978 26.1147 58.3978 26.9846C58.3978 27.8545 57.6987 28.5597 56.8363 28.5597H43.503C42.996 28.6133 42.4921 28.4332 42.1317 28.0697C41.7713 27.7061 41.5928 27.1978 41.6459 26.6864V1.74394C41.6493 1.27464 41.8387 0.82621 42.1718 0.49865C42.505 0.17108 42.9543 -0.00836982 43.4194 0.000300176Z" fill="#2F2E42"/>
<path d="M76.833 7.83003C77.2606 7.82331 77.6727 7.99196 77.9745 8.29762C78.2763 8.60327 78.4418 9.01962 78.433 9.45093C78.4341 9.6729 78.3926 9.893 78.3109 10.0991L68.9937 32.734C67.7664 35.7157 65.6973 36.863 62.9985 36.9019C62.6877 36.914 62.3767 36.8857 62.0732 36.8176C61.3277 36.7806 60.7366 36.1701 60.7174 35.4175C60.7355 35.0218 60.9104 34.6501 61.2028 34.3856C61.4951 34.1212 61.8805 33.9862 62.2724 34.0109C62.4009 34.0109 62.6065 34.0498 62.9149 34.0498C64.3093 34.0498 65.2346 33.5831 65.9543 31.8849L67.3037 28.7735L59.5929 10.0473C59.5112 9.85905 59.4676 9.65634 59.4643 9.45093C59.454 9.02589 59.6137 8.61454 59.9075 8.30966C60.2012 8.00478 60.6043 7.83206 61.0258 7.83003C61.6686 7.82759 62.2507 8.2131 62.5037 8.80922L68.9294 24.8585L75.3551 8.80922C75.616 8.21985 76.1932 7.83762 76.833 7.83003Z" fill="#2F2E42"/>
<path d="M85.2602 0.0761719C86.0976 0.0761719 86.7909 0.732402 86.8441 1.57539V18.9858L97.8578 8.21288C98.1251 7.94683 98.4918 7.80781 98.8666 7.83045C99.6697 7.84465 100.31 8.51112 100.3 9.32129C100.286 9.70192 100.137 10.065 99.8819 10.3454L92.5823 17.4107L100.184 26.0511C100.423 26.3533 100.554 26.7277 100.557 27.1142C100.555 27.7806 100.15 28.3784 99.535 28.6228C98.9203 28.8671 98.22 28.7085 97.7678 28.2226L90.3012 19.3683L86.8441 22.6092V27.1466C86.7909 27.9896 86.0976 28.6458 85.2602 28.6458C84.4228 28.6458 83.7295 27.9896 83.6763 27.1466V1.57539C83.7295 0.732402 84.4228 0.0761719 85.2602 0.0761719Z" fill="#2F2E42"/>
<path d="M108.129 0.0761719C108.967 0.0761719 109.66 0.732402 109.713 1.57539V18.9858L120.746 8.21288C121.016 7.9458 121.385 7.80677 121.762 7.83045C122.565 7.84465 123.205 8.51112 123.194 9.32129C123.181 9.70327 123.03 10.0673 122.77 10.3454L115.471 17.4107L123.066 26.0511C123.303 26.3536 123.43 26.7287 123.426 27.1142C123.436 27.5392 123.276 27.9506 122.983 28.2554C122.689 28.5603 122.286 28.733 121.864 28.7347C121.402 28.7585 120.953 28.5703 120.643 28.2226L113.17 19.3683L109.713 22.6092V27.1466C109.66 27.9896 108.967 28.6458 108.129 28.6458C107.292 28.6458 106.599 27.9896 106.545 27.1466V1.57539C106.599 0.732402 107.292 0.0761719 108.129 0.0761719Z" fill="#2F2E42"/>
<path d="M137.312 7.49341C143.474 7.49341 147.098 12.3419 147.098 17.7089C147.098 18.7266 146.455 19.3229 145.241 19.3229H130.603C130.854 23.2121 133.553 26.453 137.941 26.453C139.936 26.4518 141.871 25.766 143.429 24.5085C143.649 24.3868 143.898 24.3285 144.149 24.3399C144.858 24.3399 145.434 24.9203 145.434 25.6363C145.426 26.0572 145.224 26.4505 144.888 26.6993C142.81 28.3147 140.249 29.1695 137.627 29.1236C131.593 29.1236 127.249 24.7418 127.249 18.3117C127.268 12.303 131.49 7.49341 137.312 7.49341ZM137.267 10.1315C132.955 10.1315 130.77 13.8327 130.603 16.9829H143.975C143.937 13.917 141.912 10.1315 137.267 10.1315Z" fill="#2F2E42"/>
<path d="M16.3394 0C17.3129 0 18.102 0.74486 18.102 1.66368V12.0286H29.1061C30.0795 12.0286 30.8686 12.7735 30.8686 13.6923C30.8686 14.6111 30.0795 15.356 29.1061 15.356H16.524C16.4616 15.3609 16.4018 15.3633 16.3394 15.3633C15.8718 15.364 15.4231 15.1889 15.0924 14.8768C14.7617 14.5646 14.5762 14.1411 14.5769 13.6996V1.66368C14.5769 0.74486 15.366 0 16.3394 0Z" fill="#2F2E42"/>
<path d="M11.133 12.8027C12.0878 12.8027 12.8619 13.567 12.8619 14.5098C12.8619 15.4525 12.0878 16.2168 11.133 16.2168H1.72886C0.774036 16.2168 0 15.4525 0 14.5098C0 13.567 0.774036 12.8027 1.72886 12.8027H11.133Z" fill="#F37065"/>
<path d="M16.6127 17.2505L16.6878 17.2882C16.851 17.3671 17.0004 17.4707 17.1303 17.595L26.0564 26.0949C26.5645 26.5806 26.7202 27.3165 26.4507 27.9577C26.1812 28.5988 25.5398 29.0183 24.8271 29.0196H24.8245C24.3648 29.0194 23.9235 28.8443 23.5952 28.5317L15.8363 21.1458L8.12918 28.494C7.68167 28.9207 7.03384 29.0831 6.42974 28.9199C5.82563 28.7567 5.35702 28.2927 5.20043 27.7027C5.04384 27.1128 5.22305 26.4864 5.67056 26.0597L14.5966 17.5573C15.1328 17.0482 15.942 16.9251 16.6127 17.2505Z" fill="#F37065"/>
</svg>
