<svg width="160" height="35" viewBox="0 0 160 35" fill="none" xmlns="http://www.w3.org/2000/svg">
<g clip-path="url(#clip0)">
<path d="M150.629 7.90567H153.9C153.924 7.90567 153.946 7.91512 153.963 7.93192C153.979 7.94871 153.988 7.97143 153.988 7.99498L153.977 9.66069C153.976 9.6968 153.997 9.73 154.031 9.74343C154.064 9.75685 154.102 9.74754 154.126 9.72024C154.612 9.26772 155.163 8.89178 155.761 8.6053C156.395 8.29728 157.072 8.08604 157.768 7.97861C158.064 7.93641 158.362 7.91403 158.66 7.91162H159.767C159.915 7.91162 159.915 7.92204 159.915 8.08132V11.5973C159.898 11.7958 159.812 11.9822 159.673 12.1243C159.516 12.2489 159.32 12.3129 159.12 12.3044C158.148 12.297 157.801 12.3342 157.092 12.5396C156.311 12.7659 155.717 13.0874 155.103 13.9924C154.508 14.8722 154.627 15.8576 154.627 18.5847L154.643 19.5344V27.339C154.644 27.3625 154.635 27.3852 154.618 27.402C154.602 27.4188 154.579 27.4283 154.556 27.4283H150.632C150.424 27.4271 150.224 27.3429 150.078 27.1944C149.932 27.0458 149.85 26.8451 149.852 26.6363V8.69759C149.848 8.26408 150.196 7.90976 150.629 7.90567Z" fill="#8E8F97"/>
<path d="M148.111 18.6933H133.879C133.852 18.6933 133.826 18.7053 133.809 18.726C133.792 18.7467 133.785 18.774 133.789 18.8005C134.025 20.1184 134.617 21.1743 135.566 21.9682C136.538 22.777 137.777 23.1809 139.283 23.1799C141.067 23.1799 142.6 22.4951 143.435 21.6913C143.697 21.4397 143.697 21.3489 143.918 21.4487L146.715 22.7631C146.946 22.873 147.113 23.0845 147.166 23.3351C147.22 23.5858 147.153 23.847 146.987 24.0418C146.163 25.0248 145.144 25.8261 143.996 26.3952C142.582 27.0844 141.263 27.4297 139.318 27.4297C136.299 27.4297 133.841 26.4766 131.943 24.5702C130.045 22.6638 129.096 20.2762 129.096 17.4072C129.096 14.4688 130.042 12.028 131.934 10.0849C133.826 8.14185 136.199 7.1713 139.052 7.17328C142.479 7.17328 145.97 8.70205 147.675 11.7953C148.044 12.4732 148.326 13.1949 148.515 13.9433C148.848 15.2309 148.927 16.5557 148.926 17.8776C148.923 18.3271 148.56 18.6909 148.111 18.6933ZM144.039 14.8856C144.076 14.8883 144.112 14.8715 144.134 14.8413C144.156 14.811 144.161 14.7715 144.147 14.7367C144.12 14.6429 144.113 14.5879 144.088 14.5C143.477 12.3803 141.401 11.2549 139.298 11.2549C138.024 11.2309 136.779 11.6292 135.755 12.3877C135.139 12.8433 134.5 13.5697 134.039 14.762C134.029 14.7898 134.033 14.8208 134.05 14.8451C134.067 14.8694 134.094 14.8839 134.124 14.8841H144.039V14.8856Z" fill="#8E8F97"/>
<path d="M111.917 0.720337H115.84C115.864 0.720337 115.886 0.729791 115.903 0.746584C115.919 0.763378 115.928 0.786101 115.928 0.809651V9.19328C115.927 9.22895 115.948 9.26166 115.98 9.27604C116.013 9.29041 116.051 9.28359 116.077 9.25877C118.359 7.32363 122.044 6.95596 124.613 8.44453C125.143 8.7402 125.631 9.10623 126.063 9.53267C127.416 10.9095 128.179 12.7606 128.189 14.6921V26.6423C128.189 26.8498 128.106 27.0488 127.96 27.1954C127.813 27.342 127.614 27.4242 127.407 27.4238H123.516C123.493 27.4242 123.47 27.4151 123.453 27.3986C123.436 27.3821 123.427 27.3595 123.427 27.336V18.9776C123.427 17.629 123.443 16.2268 123.21 14.8945C123.125 14.2967 122.892 13.7297 122.532 13.2452C122.155 12.794 121.657 12.4595 121.097 12.2806C120.245 11.9871 119.315 12.02 118.485 12.3729C117.772 12.7048 117.177 13.2484 116.783 13.9299C116.093 15.0791 115.999 16.4515 115.956 17.7585C115.934 18.4031 115.928 19.0491 115.928 19.6936V27.3434C115.928 27.3668 115.919 27.3894 115.903 27.406C115.886 27.4225 115.864 27.4316 115.84 27.4313H111.917C111.486 27.4313 111.136 27.0816 111.135 26.6497V1.50332C111.136 1.07123 111.485 0.721156 111.917 0.720337ZM116.111 9.22602C116.994 8.48174 117.366 8.44453 118.452 8.08132C119.437 7.75383 120.697 7.66303 121.676 7.66303" fill="#8E8F97"/>
<path d="M110.348 7.88335H107.494V0.699507C107.494 0.696743 107.493 0.694093 107.491 0.692139C107.489 0.690185 107.486 0.689087 107.484 0.689087H103.483C103.265 0.690267 103.056 0.778334 102.902 0.933871C102.749 1.08941 102.664 1.29964 102.665 1.51822V7.93247H101.247C101.026 7.93404 100.815 8.02338 100.66 8.18083C100.505 8.33828 100.419 8.55094 100.42 8.77202V12.0082C100.42 12.0337 100.441 12.0543 100.466 12.0543H102.665V26.2285C102.663 26.5379 102.783 26.8355 103 27.0558C103.217 27.2761 103.513 27.401 103.822 27.403H107.494V12.099H109.575C109.784 12.0978 109.984 12.0137 110.13 11.8652C110.277 11.7167 110.359 11.5159 110.357 11.3071V7.89377C110.357 7.88855 110.354 7.88409 110.348 7.88335Z" fill="#8E8F97"/>
<path d="M84.0367 7.61094H87.9735C87.9935 7.61094 88.0126 7.61898 88.0266 7.63326C88.0406 7.64755 88.0483 7.66686 88.0479 7.68686V9.22157C88.0481 9.25034 88.0649 9.27639 88.0909 9.28848C88.117 9.30058 88.1477 9.29655 88.1698 9.27814C90.4504 7.32365 94.1523 6.95002 96.7287 8.44454C97.259 8.73977 97.7466 9.10584 98.1783 9.53268C99.5312 10.9095 100.294 12.7606 100.304 14.6921V26.6423C100.304 27.0739 99.9548 27.4238 99.5237 27.4238H95.6226C95.6027 27.4242 95.5834 27.4165 95.5691 27.4025C95.5548 27.3885 95.5468 27.3694 95.5468 27.3494V18.9777C95.5468 17.629 95.5632 16.2268 95.3297 14.8945C95.2454 14.2965 95.0122 13.7294 94.6518 13.2452C94.2745 12.794 93.777 12.4595 93.2171 12.2806C92.3649 11.9871 91.4344 12.02 90.605 12.3729C89.8915 12.7048 89.2972 13.2484 88.9027 13.9299C88.2129 15.0791 88.1192 16.4516 88.0761 17.7585C88.0538 18.4031 88.0479 19.0491 88.0479 19.6937V27.3568C88.0479 27.3979 88.0146 27.4312 87.9735 27.4312H84.0367C83.6056 27.4312 83.2562 27.0814 83.2562 26.6497V8.39393C83.2562 7.96208 83.6054 7.61176 84.0367 7.61094ZM88.2292 9.22604C89.1123 8.48175 89.484 8.44454 90.5708 8.08133C91.555 7.75384 92.8157 7.66304 93.7955 7.66304" fill="#8E8F97"/>
<path d="M77.0105 7.64666H80.9681C81.4 7.64666 81.7502 7.99722 81.7502 8.42965V26.6423C81.7493 27.0742 81.3995 27.4238 80.9681 27.4238H77.0105C76.987 27.4242 76.9643 27.4151 76.9475 27.3986C76.9308 27.3821 76.9213 27.3595 76.9213 27.336V25.5899C76.9217 25.5545 76.9008 25.5223 76.8683 25.5083C76.8358 25.4944 76.7981 25.5013 76.7727 25.5259C75.8806 26.3654 74.947 26.6542 74.2869 26.9296C73.2028 27.2696 72.0719 27.4364 70.9358 27.4238C68.4521 27.4238 66.3028 26.4587 64.488 24.5285C62.6757 22.5934 61.8342 20.6955 61.8342 17.83C61.8342 14.8528 62.7114 12.415 64.4657 10.5166C66.1764 8.65555 68.5911 7.60232 71.1172 7.6154C71.9847 7.59368 72.852 7.66555 73.7041 7.82976C74.6199 7.97861 75.9773 8.43858 76.7727 9.24688C76.7972 9.27265 76.8349 9.28073 76.8678 9.26723C76.9007 9.25373 76.9219 9.22142 76.9213 9.18584V7.73895L77.0105 7.64666ZM71.6064 11.7536C70.1196 11.7536 68.6106 12.288 67.6235 13.3434C66.6363 14.3988 66.0208 16.0794 66.0208 17.7332C66.0208 19.3364 66.3821 20.6508 67.6651 21.9369C68.8678 23.1412 70.5463 23.5848 72.2501 23.3689C73.478 23.2096 74.6168 22.6419 75.4837 21.7568C76.4828 20.7014 76.9972 19.4376 77.0655 17.7377C77.1324 16.063 76.6403 14.506 75.6413 13.4685C74.5767 12.3836 73.1253 11.7667 71.6064 11.7536ZM71.1187 7.61243C71.9861 7.59254 72.8532 7.66439 73.7056 7.82678C74.6809 8.03071 75.9104 8.41179 76.7117 9.18287" fill="#8E8F97"/>
<path d="M46.0722 8.24804V10.0165C46.0716 10.0619 46.0985 10.1031 46.1403 10.1207C46.1821 10.1384 46.2304 10.1289 46.2625 10.0968C47.0291 9.35105 47.9228 8.74861 48.9014 8.31801C49.9297 7.87801 51.0375 7.65505 52.1558 7.66263C54.6663 7.66263 56.8007 8.61324 58.559 10.5136C60.3173 12.4141 61.1954 14.8518 61.1935 17.827C61.1935 20.6955 60.2643 22.5993 58.4475 24.5256C56.6308 26.4518 54.481 27.4238 51.9922 27.4238C50.8846 27.4238 49.7235 27.2928 48.7661 26.9594C47.8438 26.668 46.9901 26.1925 46.2565 25.5616C46.2229 25.5342 46.1766 25.5284 46.1373 25.5468C46.098 25.5652 46.0727 25.6045 46.0722 25.6479V34.3829C46.0722 34.4066 46.0628 34.4293 46.046 34.446C46.0293 34.4628 46.0066 34.4722 45.983 34.4722H42.061C41.6291 34.4722 41.279 34.1216 41.279 33.6892V8.94023C41.2798 8.50838 41.6297 8.15873 42.061 8.15873H45.983C46.0322 8.15873 46.0722 8.19872 46.0722 8.24804ZM51.7008 12.0945C50.1799 12.0945 48.6917 12.6125 47.654 13.5533C46.5851 14.5253 45.8581 16.0794 45.8581 17.7555C45.8581 19.4674 46.5152 20.9783 47.5782 21.9727C48.4568 22.7943 49.7592 23.2692 50.9486 23.4166C52.659 23.6437 54.3716 23.0142 55.5291 21.733C56.4657 20.6771 56.934 19.3473 56.934 17.7436C56.934 16.0893 56.4385 14.7342 55.4473 13.6783C54.4562 12.6225 53.2074 12.0945 51.7008 12.0945Z" fill="#8E8F97"/>
<path fill-rule="evenodd" clip-rule="evenodd" d="M17.5267 0.428593C17.5961 0.411605 17.6684 0.393935 17.7444 0.374329C17.8205 0.393935 17.8928 0.411605 17.9622 0.428593C18.1074 0.464118 18.2404 0.496656 18.371 0.537655C21.3767 1.44366 24.3809 2.35239 27.3838 3.26387C27.5271 3.31524 27.6805 3.33178 27.8314 3.31213C27.9824 3.29249 28.1264 3.23721 28.2518 3.15088C28.7897 2.80829 29.3319 2.4723 29.8742 2.13629C30.5043 1.7459 31.1344 1.35549 31.7577 0.954703C31.9869 0.776028 32.2665 0.673861 32.557 0.662618C32.8475 0.651376 33.1341 0.731625 33.3765 0.892043C33.793 1.13134 34.2227 1.34671 34.6636 1.53713C34.9537 1.66248 35.2014 1.86876 35.3772 2.13128C35.553 2.39381 35.6494 2.70144 35.6549 3.01734C35.6766 3.30044 35.6882 3.58435 35.6998 3.86837C35.7107 4.13674 35.7217 4.40522 35.7412 4.67321C35.766 5.14119 35.6493 5.60579 35.4063 6.00653C35.1391 6.49324 34.8785 6.98386 34.618 7.47443C34.1225 8.40746 33.6271 9.34032 33.0858 10.2458C32.6902 10.9051 32.5588 11.6898 32.7181 12.442C32.9321 13.756 33.1229 15.0741 33.3137 16.3921C33.4288 17.1873 33.544 17.9825 33.6642 18.7768C33.7429 19.1323 33.7075 19.5037 33.5629 19.8379C33.4183 20.1721 33.1719 20.4521 32.8588 20.6381C31.1065 21.8276 29.3741 23.0498 27.6437 24.2705C27.5331 24.3485 27.4225 24.4265 27.3119 24.5045C27.0951 24.6591 26.922 24.8672 26.8096 25.1085C25.9098 27.1568 25.0109 29.2071 24.1594 31.2718C24.0406 31.634 23.8163 31.9524 23.5152 32.1862C23.2141 32.4199 22.85 32.5583 22.4696 32.5836C21.4336 32.7086 20.4016 32.8689 19.3695 33.0292C18.9176 33.0994 18.4658 33.1696 18.0136 33.2369C17.9632 33.2487 17.9106 33.2504 17.8382 33.2528C17.8102 33.2537 17.7793 33.2547 17.7444 33.2564C17.7096 33.2547 17.6787 33.2537 17.6507 33.2528C17.5783 33.2504 17.5257 33.2487 17.4753 33.2369C17.0231 33.1696 16.5712 33.0994 16.1194 33.0292C15.0873 32.8689 14.0553 32.7086 13.0193 32.5836C12.6389 32.5583 12.2748 32.4199 11.9737 32.1862C11.6726 31.9524 11.4483 31.634 11.3295 31.2718C10.478 29.2071 9.57915 27.1568 8.67931 25.1085C8.56687 24.8672 8.39381 24.6591 8.177 24.5045C8.06636 24.4265 7.95571 24.3484 7.84506 24.2704C6.11475 23.0497 4.38239 21.8276 2.63006 20.6381C2.317 20.4521 2.07062 20.1721 1.92602 19.8379C1.78141 19.5037 1.74597 19.1323 1.82473 18.7768C1.94495 17.9825 2.06007 17.1872 2.1752 16.392C2.366 15.074 2.55681 13.756 2.77079 12.442C2.93012 11.6898 2.79873 10.9051 2.40305 10.2458C1.86177 9.34033 1.36638 8.40748 0.870901 7.47445C0.610381 6.98387 0.349836 6.49325 0.0825813 6.00653C-0.160377 5.60579 -0.277065 5.14119 -0.25229 4.67321C-0.232825 4.4052 -0.221848 4.1367 -0.210875 3.86831C-0.199264 3.5843 -0.187657 3.30042 -0.166004 3.01734C-0.160535 2.70144 -0.0641243 2.39381 0.11168 2.13128C0.287484 1.86876 0.535231 1.66248 0.825254 1.53713C1.26619 1.34671 1.69592 1.13134 2.11235 0.892043C2.35476 0.731625 2.64142 0.651376 2.93189 0.662618C3.22235 0.673861 3.50195 0.776028 3.73124 0.954703C4.35449 1.35549 4.98457 1.74589 5.61462 2.13627C6.15693 2.47228 6.69922 2.80828 7.23711 3.15088C7.36245 3.23721 7.50654 3.29249 7.65747 3.31213C7.80839 3.33178 7.96183 3.31524 8.1051 3.26387C11.108 2.35239 14.1122 1.44366 17.1178 0.537655C17.2485 0.496656 17.3815 0.464118 17.5267 0.428593Z" fill="#8E8F97"/>
</g>
<defs>
<clipPath id="clip0">
<rect width="160" height="35" fill="white"/>
</clipPath>
</defs>
</svg>
