<?xml version="1.0" encoding="utf-8"?>
<!-- Generator: Adobe Illustrator 24.1.0, SVG Export Plug-In . SVG Version: 6.00 Build 0)  -->
<svg version="1.1" id="Layer_1" xmlns="http://www.w3.org/2000/svg" xmlns:xlink="http://www.w3.org/1999/xlink" x="0px" y="0px"
	 viewBox="0 0 449.27 152.79" style="enable-background:new 0 0 449.27 152.79;" xml:space="preserve">
<style type="text/css">
	.st0{fill:#00205B;}
	.st1{fill:#5F249F;}
</style>
<g>
	<g>
		<path class="st0" d="M152.78,150.07h-4.7l-0.88,2.47h-2.85l4.58-12.16h3.14l4.53,12.16h-2.95L152.78,150.07z M148.97,147.6h2.95
			l-1.46-4.2L148.97,147.6z"/>
		<path class="st0" d="M171.2,152.54l-5.01-7.99v7.99h-2.69v-12.16h3.29l4.56,7.39v-7.39h2.71v12.16H171.2z"/>
		<path class="st0" d="M183.37,140.12c3.41,0,6.31,2.49,6.31,6.35c0,3.84-2.9,6.33-6.31,6.33c-3.43,0-6.33-2.49-6.33-6.33
			C177.04,142.61,179.94,140.12,183.37,140.12z M183.37,150.12c1.68,0,3.5-1.13,3.5-3.67c0-2.54-1.82-3.69-3.5-3.69
			c-1.7,0-3.52,1.15-3.52,3.69C179.86,148.99,181.67,150.12,183.37,150.12z"/>
		<path class="st0" d="M200.37,152.54l-5.01-7.99v7.99h-2.69v-12.16h3.29l4.56,7.39v-7.39h2.71v12.16H200.37z"/>
		<path class="st0" d="M209.63,148.17v4.37h-2.71v-12.16h4.58c2.47,0,4.17,1.63,4.17,3.89c0,2.3-1.7,3.89-4.17,3.89H209.63z
			 M211.22,145.83c1.03,0,1.73-0.6,1.73-1.54c0-0.98-0.7-1.56-1.73-1.56h-1.58v3.1H211.22z"/>
		<path class="st0" d="M222.04,148.01h-0.96v4.53h-2.71v-12.16h4.82c2.4,0,3.94,1.65,3.94,3.81c0,1.65-0.91,2.9-2.4,3.43l2.47,4.92
			h-2.98L222.04,148.01z M222.68,145.68c1.12,0,1.71-0.62,1.71-1.47c0-0.91-0.6-1.48-1.71-1.48h-1.59v2.95H222.68z"/>
		<path class="st0" d="M235.73,140.12c3.41,0,6.31,2.49,6.31,6.35c0,3.84-2.9,6.33-6.31,6.33c-3.43,0-6.33-2.49-6.33-6.33
			C229.4,142.61,232.3,140.12,235.73,140.12z M235.73,150.12c1.68,0,3.5-1.13,3.5-3.67c0-2.54-1.82-3.69-3.5-3.69
			c-1.7,0-3.52,1.15-3.52,3.69C232.21,148.99,234.03,150.12,235.73,150.12z"/>
		<path class="st0" d="M245.02,152.54v-12.16h7.84v2.57h-5.13v2.57h4.51v2.47h-4.49v4.54H245.02z"/>
		<path class="st0" d="M255.79,152.54v-12.16h2.74v12.16H255.79z"/>
		<path class="st0" d="M267.59,142.97v9.57h-2.71v-9.57h-3.74v-2.59h10.2v2.59H267.59z"/>
		<path class="st0" d="M277.73,146.48c0-3.79,2.88-6.36,6.28-6.36c3.65,0,5.26,2.35,5.66,4.1l-2.55,0.81
			c-0.19-0.84-0.96-2.26-3.1-2.26c-1.63,0-3.46,1.17-3.46,3.72c0,2.28,1.68,3.6,3.5,3.6c2.11,0,2.95-1.41,3.19-2.28l2.59,0.74
			c-0.39,1.68-2.01,4.25-5.78,4.25C280.54,152.79,277.73,150.27,277.73,146.48z"/>
		<path class="st0" d="M300.06,152.54v-4.84h-4.85v4.84h-2.71v-12.16h2.71v4.77h4.85v-4.77h2.73v12.16H300.06z"/>
		<path class="st0" d="M313.64,150.07h-4.7l-0.88,2.47h-2.85l4.58-12.16h3.14l4.53,12.16h-2.95L313.64,150.07z M309.83,147.6h2.95
			l-1.46-4.2L309.83,147.6z"/>
		<path class="st0" d="M327.62,152.54l-5.01-7.99v7.99h-2.69v-12.16h3.29l4.56,7.39v-7.39h2.71v12.16H327.62z"/>
		<path class="st0" d="M343.21,152.54l-0.17-1.24c-0.53,0.77-1.68,1.49-3.41,1.49c-3.38,0-6.16-2.49-6.16-6.33
			c0-3.83,2.9-6.35,6.33-6.35c3.48,0,5.09,2.06,5.63,3.76l-2.61,0.91c-0.19-0.75-1-2.13-3.02-2.13c-1.65,0-3.58,1.1-3.58,3.81
			c0,2.54,1.68,3.86,3.65,3.86c2.01,0,2.85-1.3,3-1.99h-3.65v-2.3h6.19v6.5H343.21z"/>
		<path class="st0" d="M348.64,152.54v-12.16h2.74v12.16H348.64z"/>
		<path class="st0" d="M362.78,152.54l-5.01-7.99v7.99h-2.69v-12.16h3.29l4.56,7.39v-7.39h2.71v12.16H362.78z"/>
		<path class="st0" d="M378.37,152.54l-0.17-1.24c-0.53,0.77-1.68,1.49-3.41,1.49c-3.38,0-6.16-2.49-6.16-6.33
			c0-3.83,2.9-6.35,6.33-6.35c3.48,0,5.09,2.06,5.63,3.76l-2.61,0.91c-0.19-0.75-1-2.13-3.02-2.13c-1.65,0-3.58,1.1-3.58,3.81
			c0,2.54,1.68,3.86,3.65,3.86c2.01,0,2.85-1.3,3-1.99h-3.65v-2.3h6.19v6.5H378.37z"/>
		<path class="st0" d="M388.72,152.54v-12.16h2.71v9.57h5.25v2.59H388.72z"/>
		<path class="st0" d="M399.27,152.54v-12.16h2.74v12.16H399.27z"/>
		<path class="st0" d="M413.28,140.38h2.88l-4.44,12.16h-2.79l-4.46-12.16h2.98l2.93,8.56L413.28,140.38z"/>
		<path class="st0" d="M418.63,152.54v-12.16h7.7v2.56h-4.99v2.32h4.53v2.38h-4.53v2.33h5.01v2.57H418.63z"/>
		<path class="st0" d="M435.53,144.05c-0.09-0.57-0.55-1.53-2.02-1.53c-1.01,0-1.66,0.63-1.66,1.3c0,0.58,0.36,1.01,1.2,1.17
			l1.63,0.31c2.32,0.43,3.52,1.92,3.52,3.65c0,1.9-1.59,3.84-4.49,3.84c-3.36,0-4.8-2.18-4.97-3.89l2.49-0.6
			c0.1,1.12,0.86,2.09,2.52,2.09c1.06,0,1.71-0.51,1.71-1.27c0-0.62-0.5-1.06-1.3-1.22l-1.66-0.31c-2.06-0.39-3.31-1.77-3.31-3.57
			c0-2.3,2.02-3.91,4.36-3.91c3.04,0,4.18,1.82,4.44,3.24L435.53,144.05z"/>
	</g>
	<g>
		<path class="st1" d="M86.56,93.44c-0.98-2.7-1.49-5.53-1.49-8.41c0-3.67,1.42-7.46,2.63-10.01c0.05-0.12,1.31-2.99,3.32-5.8
			c1.65-2.31,4.18-5.06,6.87-5.07c3.42,0,5.06,2.81,6.51,5.29c1.46,2.54,2.72,4.73,5.35,4.73c1.37,0,2.78-1.12,3.93-3.07
			c0.62-2.19,0.96-4.33,0.96-6.39c0-3.02-0.48-5.93-1.38-8.68c-0.12-0.14-0.22-0.29-0.35-0.43c-2.15-2.33-5.37-3.46-9.9-3.46
			c-13.07,0.02-18.6,9.05-18.64,9.12l-0.71,1.21l-1.22-0.68c-0.04-0.03-4.67-2.54-12.3-2.54c-7.24,0.01-11.75,2.3-12.25,2.57
			l-1.23,0.66l-0.73-1.23c-0.23-0.37-5.72-9.11-18.67-9.11c-4.39,0.01-7.71,1.21-9.88,3.58c-2.28,2.47-2.76,5.63-2.76,7.83
			c0.01,4.93,2.51,9.78,5.25,10.52l0,0.1l1.43,0V74.1c1.45-0.24,2.36-1.22,3.06-2.19c0.61-1.14,1.27-2.23,1.94-3.2
			c1.41-2.45,3.06-4.79,6.1-4.79h0.49c0.04,0,0.07,0.01,0.11,0.01l0.11-0.02l0.07,0.03c2.34,0.31,5.42,4.11,7.42,7.4
			c1.41,2.29,4.68,8.2,4.69,13.73c0,2.88-0.49,5.72-1.47,8.42l-0.07,0.15l-1.88,3.97c-0.28,0.5-1.84,3.49-1.86,7.22l0,0.04l0,0.04
			c0.49,4.91,4.59,8.6,9.53,8.6h0.01c3.97,0,7.39-2.45,8.83-5.91v-6.99c-3.41-0.81-5.94-3.84-5.94-7.47c0,0,3.2-1.59,7.7-1.59
			c4.56,0,7.74,1.59,7.74,1.59c0,3.64-2.52,6.66-5.93,7.48h-0.1v6.61c1.27,3.42,4.41,5.93,8.18,6.25c3.38-2.95,6.87-6.15,10.28-9.51
			c-0.23-3.55-1.76-6.27-1.97-6.63L86.56,93.44z M62.09,88.32c-1.67,0-3.02-1.36-3.02-3.05c0-1.66,1.34-3.03,3.01-3.04
			c1.68,0,3.05,1.37,3.05,3.03C65.14,86.95,63.77,88.32,62.09,88.32z M78.29,88.33c-1.67,0-3.04-1.36-3.05-3.05
			c0-1.66,1.36-3.03,3.04-3.04c1.66,0,3.03,1.37,3.03,3.03C81.31,86.96,79.95,88.32,78.29,88.33z"/>
		<path class="st1" d="M69.99,121.44c-3.22,0-5.73-1.43-7.05-4.02c-0.14-0.27-0.25-0.54-0.36-0.8c-0.96,0.23-1.97,0.35-3,0.35
			c-6.73,0-12.32-5.04-12.98-11.72l0-0.04l-0.02-0.19l0-0.19l0-0.03c0-0.23,0.01-0.45,0.02-0.67c-3.12,2.85-6.85,4.9-10.79,5.86
			c-1.51,0.37-3.04,0.57-4.56,0.62c13.42,12.1,26.08,20.86,26.08,20.86s5.59-3.89,13.28-10.07C70.4,121.42,70.2,121.44,69.99,121.44
			z"/>
		<path class="st1" d="M70.23,111.46c-1.15,1.63-2.67,2.97-4.43,3.93c0.48,1.23,1.6,2.58,4.19,2.58c2.75,0,3.84-1.52,4.27-2.8
			C72.68,114.23,71.3,112.97,70.23,111.46z"/>
		<path class="st1" d="M109.75,77.63c-4.63,0-6.79-3.73-8.36-6.46c-1.54-2.63-2.3-3.56-3.51-3.56c-0.51,0-2,0.76-4.05,3.62
			c-1.79,2.5-2.92,5.07-2.96,5.17l-0.02,0.05l-0.02,0.05c-1.05,2.22-2.3,5.51-2.3,8.52c0.01,2.43,0.42,4.82,1.23,7.1l1.69,3.62
			c0.39,0.68,1.37,2.58,1.94,5.16c7.31-7.53,13.92-15.66,17.76-23.44C110.63,77.59,110.15,77.63,109.75,77.63z"/>
		<path class="st1" d="M10.21,72.23c0.63-1.08,3.92-6.53,6.77-7.88l0.93-0.44l1.02,0.14c0.78,0.11,1.54,0.41,2.29,0.91
			c-0.04-0.48-0.06-0.95-0.06-1.42c0-2.83,0.63-6.89,3.67-10.18c2.85-3.12,7.04-4.7,12.44-4.71h0h0c6.06,0,11.65,1.76,16.17,5.09
			c2.11,1.56,3.56,3.14,4.45,4.25c2.23-0.9,6.47-2.22,12.26-2.23c5.78,0,10.07,1.32,12.31,2.22c0.87-1.08,2.26-2.59,4.27-4.1
			c5.75-4.32,12.03-5.23,16.29-5.24c2.82,0,5.26,0.39,7.35,1.18c-5.4-8.66-15.36-14.48-26.76-14.48c-11.08,0-20.79,6.11-26.28,14.36
			c-5.49-8.25-15.21-14.36-26.28-14.36C13.9,35.36,0,48.49,0,64.7c0,5.57,2.42,11.67,6.26,17.85C6.86,78.66,8.65,74.9,10.21,72.23z"
			/>
		<path class="st1" d="M44.15,94.35l4.95,1.01c0.61-1.15,1.12-2.34,1.51-3.55l-6.52,1.04c-0.07,0.01-0.13,0.02-0.2,0.02
			c-0.6,0-1.13-0.43-1.22-1.04c-0.11-0.68,0.35-1.31,1.03-1.42l7.56-1.2c0.18-1.03,0.28-2.07,0.28-3.1c0-0.15-0.01-0.3-0.01-0.46
			c0.01-0.19,0.01-0.39,0.01-0.58c-0.01-7.11-6.85-16.57-8.95-17.57c-0.71,0.1-1.61,0.87-2.54,2.02c-0.27,0.33-0.54,0.7-0.8,1.08
			c0,0,0,0,0,0l-0.04,0.06l-0.04,0.06l-0.03,0.05l-0.03,0.05l-0.04,0.05c-0.51,0.75-1.02,1.59-1.5,2.5l-0.02,0.04l-0.1,0.18
			l-0.12,0.17l-0.01,0.02c-0.53,1.02-1.03,2.07-1.44,3.1l-0.73,1.86l-1.9-0.59c-0.87-0.27-1.8-0.41-2.72-0.41
			c-0.93,0.01-1.85,0.14-2.72,0.41l-1.9,0.59l-0.73-1.86c-1.06-2.66-2.66-5.51-4.17-7.36c-0.94-1.15-1.83-1.92-2.54-2.02
			c-2.1,0.99-8.94,10.46-8.95,17.57c0,0.19,0.01,0.38,0.01,0.57c0,0.15-0.01,0.31-0.01,0.46c0,0.44,0.02,0.88,0.06,1.32
			c0.44,0.6,0.88,1.19,1.34,1.79l7.49,1.19c0.68,0.11,1.14,0.74,1.03,1.42c-0.1,0.61-0.62,1.04-1.22,1.04
			c-0.06,0-0.13-0.01-0.2-0.02l-4.82-0.77c0.76,0.93,1.54,1.85,2.34,2.77l2.42-0.49c0.67-0.14,1.33,0.3,1.46,0.97
			c0.14,0.67-0.3,1.33-0.97,1.46l-1.01,0.21c3.1,3.41,6.4,6.73,9.73,9.88c1.09,0.2,2.21,0.31,3.35,0.31c1.53,0,3.02-0.19,4.46-0.54
			c5.24-1.28,9.76-4.7,12.74-9.02l-4.07-0.83c-0.67-0.14-1.1-0.79-0.97-1.46C42.83,94.64,43.48,94.21,44.15,94.35z M19.84,85.28
			c0-1.66,1.36-3.03,3.05-3.04c1.65,0,3.01,1.36,3.02,3.03c0,1.68-1.36,3.05-3.01,3.05C21.21,88.32,19.84,86.96,19.84,85.28z
			 M38.65,98.38c-0.99,0.97-2.3,1.51-3.7,1.51h-0.01c-1.59,0-2.99-0.72-3.95-1.83h0c-0.96,1.11-2.39,1.83-3.99,1.83h-0.01
			c-1.4,0-2.7-0.55-3.67-1.51c-0.98-0.99-1.52-2.31-1.52-3.71c0-0.69,0.56-1.24,1.24-1.24s1.24,0.56,1.24,1.24c0,0,0,0,0,0
			c0,0.73,0.28,1.41,0.79,1.92c0.51,0.51,1.2,0.8,1.92,0.8H27c1.5,0,2.72-1.22,2.72-2.73l0-1.07c0-0.07,0.03-0.14,0.04-0.21
			c-1.6-0.52-2.76-2-2.76-3.75c0,0,1.68-0.81,4-0.81c2.25,0,3.95,0.81,3.95,0.81h0c0,1.75-1.16,3.24-2.73,3.75
			c0.01,0.07,0.04,0.14,0.04,0.21l0,1.07c0,1.5,1.19,2.73,2.69,2.73h0c0.73,0,1.41-0.28,1.92-0.8c0.52-0.51,0.8-1.2,0.8-1.92h0.03
			c0,0,0,0,0,0c0-0.69,0.56-1.24,1.24-1.24s1.24,0.56,1.24,1.24C40.19,96.07,39.65,97.39,38.65,98.38z M39.07,88.32
			c-1.69,0-3.06-1.36-3.06-3.05c0-1.67,1.36-3.03,3.05-3.03c1.68,0,3.03,1.36,3.03,3.03C42.09,86.95,40.76,88.32,39.07,88.32z"/>
	</g>
</g>
<g>
	<g>
		<g>
			<g>
				<path class="st1" d="M143.37,127.7V6.79h22.21V127.7H143.37z"/>
				<path class="st1" d="M266.11,86.62c0,25.22-18.54,43.59-43.09,43.59c-24.55,0-43.09-18.37-43.09-43.59
					c0-25.38,18.54-43.59,43.09-43.59C247.58,43.03,266.11,61.23,266.11,86.62z M243.9,86.62c0-15.53-10.02-23.38-20.88-23.38
					s-20.88,7.85-20.88,23.38c0,15.37,10.02,23.38,20.88,23.38S243.9,102.15,243.9,86.62z"/>
				<path class="st1" d="M323.9,127.7h-22.21l-33.57-82.17h24.38l20.38,55.11l19.54-55.11h23.38L323.9,127.7z"/>
				<path class="st1" d="M438.46,104.15c-4.17,14.2-17.2,26.05-37.41,26.05c-22.55,0-42.42-16.2-42.42-43.92
					c0-26.22,19.37-43.25,40.42-43.25c25.39,0,40.58,16.2,40.58,42.59c0,3.17-0.33,6.51-0.33,6.85h-58.79
					c0.5,10.86,9.69,18.7,20.71,18.7c10.35,0,16.03-5.18,18.7-12.53L438.46,104.15z M417.75,77.26c-0.33-8.18-5.68-16.2-18.37-16.2
					c-11.52,0-17.87,8.68-18.37,16.2H417.75z"/>
			</g>
		</g>
		<g id="Petco_-_logotype_CMYK_12_">
			<g>
				<g>
					<path class="st0" d="M236.27,21.47V11.32h4.54V6.69h-4.54V0h-4.72v3.28c0,1.93-1.03,3.41-3.37,3.41h-1.12v4.63h4.04v11.01
						c0,4.09,2.52,6.51,6.56,6.51c1.89,0,2.87-0.36,3.19-0.49v-4.31c-0.22,0.04-1.08,0.18-1.8,0.18
						C237.13,24.21,236.27,23.4,236.27,21.47z"/>
					<path class="st0" d="M182.96,37.1c2.19,0,3.23-1.3,3.36-3.05V26.1c1.12,1.66,3.5,3.01,6.65,3.01c6.29,0,10.29-4.94,10.29-11.5
						c0-6.47-3.64-11.41-10.11-11.41c-3.37,0-5.88,1.57-6.96,3.46V6.69h-5.03V37.1L182.96,37.1z M192.16,24.48
						c-3.41,0-5.88-2.7-5.88-6.87c0-4.09,2.47-6.78,5.88-6.78c3.5,0,5.88,2.7,5.88,6.78C198.04,21.79,195.62,24.48,192.16,24.48z"/>
					<path class="st0" d="M276.36,6.02c-6.51,0-11.32,4.9-11.32,11.59c0,6.74,4.81,11.63,11.32,11.63c6.56,0,11.36-4.9,11.36-11.63
						C287.72,10.92,282.92,6.02,276.36,6.02z M276.36,24.57c-3.19,0-6.11-2.43-6.11-6.96c0-4.54,2.92-6.87,6.11-6.87
						c3.23,0,6.11,2.34,6.11,6.87C282.47,22.19,279.59,24.57,276.36,24.57z"/>
					<path class="st0" d="M226.31,17.38c0-6.92-3.95-11.36-10.69-11.36c-5.53,0-10.65,4.58-10.65,11.5
						c0,7.41,5.26,11.72,11.18,11.72c5.26,0,8.71-3.1,9.88-6.92l0.16-0.62h-4.87c-0.83,1.77-2.42,3.04-5.17,3.04
						c-3.23,0-5.84-2.38-5.97-5.7h15.99C226.22,18.96,226.31,18.24,226.31,17.38z M210.32,15.23c0.18-2.34,2.07-4.85,5.35-4.85
						c3.59,0,5.3,2.29,5.39,4.85H210.32z"/>
					<path class="st0" d="M263.48,20.44h-4.79c-0.49,1.66-2.07,4.04-5.48,4.04c-3.28,0-6.11-2.47-6.11-6.87s2.83-6.78,6.02-6.78
						c3.32,0,4.81,2.16,5.3,4.09l0.02-0.01l-0.02,0.01h4.89c0.2,0-0.16-1.46-0.22-1.71l0,0c0,0,0,0,0-0.01
						c0-0.02-0.01-0.03-0.01-0.03l0,0c-0.91-3.49-4.14-7.15-10-7.15c-6.29,0-11.18,4.85-11.18,11.59c0,6.65,4.9,11.63,11.32,11.63
						c5.75,0,9.03-3.73,10.06-7.14C263.27,22.1,263.69,20.44,263.48,20.44z"/>
					<path class="st0" d="M287.47,27.15c0.56,0,1.02,0.46,1.02,1.02c0,0.56-0.46,1.02-1.02,1.02c-0.56,0-1.01-0.46-1.01-1.02
						C286.46,27.61,286.91,27.15,287.47,27.15z M287.47,28.98c0.44,0,0.78-0.35,0.78-0.81c0-0.46-0.35-0.81-0.78-0.81
						c-0.44,0-0.78,0.35-0.78,0.81C286.68,28.63,287.03,28.98,287.47,28.98z M287.43,28.32h-0.08v0.4h-0.24v-1.11h0.41
						c0.22,0,0.38,0.16,0.38,0.35c0,0.15-0.09,0.27-0.23,0.33l0.23,0.43h-0.27L287.43,28.32z M287.49,28.12
						c0.11,0,0.17-0.06,0.17-0.15c0-0.1-0.06-0.15-0.17-0.15h-0.14v0.31H287.49z"/>
				</g>
			</g>
		</g>
	</g>
</g>
<g>
	<path class="st1" d="M440.57,120.12v4.11h-1.53v-4.11h-1.5v-1.37h4.51v1.37H440.57z M447.87,124.23v-3.33l-1.23,3.33h-1.14
		l-1.25-3.27v3.27h-1.49v-5.47h2.13l1.2,2.91l1.14-2.91h2.13v5.47H447.87z"/>
</g>
</svg>
