<svg width="159" height="40" viewBox="0 0 159 40" fill="none" xmlns="http://www.w3.org/2000/svg">
<path d="M151.975 19.2797H149.681C149.251 19.2797 149.068 19.0944 149.068 18.6671V17.1975C149.068 16.7679 149.251 16.5847 149.681 16.5847H151.975V12.2461C151.975 11.8166 152.158 11.6334 152.588 11.6334H154.483C154.912 11.6334 155.095 11.8166 155.095 12.2461V16.5916H158.371C158.799 16.5916 158.982 16.7747 158.982 17.2043V18.6738C158.982 19.1011 158.799 19.2866 158.371 19.2866H155.097V26.4491C155.097 27.8056 155.65 28.5924 156.965 28.5924C157.578 28.5924 157.883 28.4386 158.127 28.4386C158.371 28.4386 158.435 28.5607 158.435 28.7755V30.704C158.435 31.0093 158.342 31.102 157.983 31.1562C157.302 31.2485 156.616 31.2894 155.929 31.2784C153.606 31.2784 151.983 30.0235 151.983 27.4213L151.975 19.2797Z" fill="#000046"/>
<path d="M134.587 17.1975C134.587 16.768 134.77 16.5848 135.199 16.5848H136.859C137.289 16.5848 137.345 16.7521 137.472 17.1975L137.709 18.1765C139.181 16.7792 140.341 16.3226 142.427 16.3203C145.484 16.3203 147.657 17.9391 147.657 21.8414V30.3605C147.657 30.7878 147.474 30.9732 147.044 30.9732H145.147C144.718 30.9732 144.535 30.7878 144.535 30.3605V21.8866C144.504 20.0553 143.442 18.6128 141.123 18.7733C140.521 18.8418 139.943 19.0571 139.443 19.4005C138.943 19.7438 138.534 20.2046 138.254 20.7425C137.65 21.9635 137.75 23.2296 137.709 25.0383V30.365C137.709 30.7923 137.526 30.9777 137.096 30.9777H135.199C134.77 30.9777 134.587 30.7923 134.587 30.365V17.1975Z" fill="#000046"/>
<path d="M130.181 10.096C130.593 10.0956 130.996 10.2173 131.338 10.4458C131.681 10.6744 131.947 10.9994 132.106 11.3798C132.264 11.7604 132.305 12.1791 132.226 12.5832C132.146 12.9872 131.947 13.3585 131.656 13.6499C131.365 13.9413 130.993 14.1399 130.59 14.2204C130.186 14.3009 129.767 14.2598 129.386 14.1023C129.006 13.9447 128.681 13.6779 128.452 13.3354C128.222 12.9928 128.1 12.5903 128.1 12.1783C128.098 11.9044 128.151 11.6327 128.254 11.3791C128.357 11.1255 128.51 10.8951 128.704 10.7013C128.898 10.5075 129.128 10.3542 129.382 10.2503C129.635 10.1463 129.907 10.0939 130.181 10.096ZM128.621 17.1975C128.621 16.7679 128.804 16.5847 129.233 16.5847H131.13C131.56 16.5847 131.743 16.7679 131.743 17.1975V30.3605C131.743 30.7878 131.56 30.9731 131.13 30.9731H129.233C128.804 30.9731 128.621 30.7878 128.621 30.3605V17.1975Z" fill="#000046"/>
<path d="M111.174 23.7767C111.174 19.1554 114.325 16.2773 118.673 16.2773C123.02 16.2773 126.172 19.1554 126.172 23.7767C126.172 28.7348 122.745 31.2761 118.673 31.2761C114.601 31.2761 111.174 28.7371 111.174 23.7767ZM122.93 23.8061C122.93 20.7154 121.031 18.9701 118.675 18.9701C116.319 18.9701 114.42 20.7154 114.42 23.8061C114.42 26.6232 116.002 28.5834 118.675 28.5834C121.347 28.5834 122.928 26.6254 122.928 23.8084L122.93 23.8061Z" fill="#000046"/>
<path d="M95.0423 17.1975C95.0423 16.768 95.2254 16.5848 95.6527 16.5848H97.215C97.5813 16.5848 97.7666 16.7385 97.8277 17.0143L98.1646 18.1765C99.1119 17.1048 100.674 16.2796 102.686 16.2796C106.421 16.2796 109.177 18.7891 109.177 23.7789C109.177 28.7688 106.238 31.2784 102.169 31.2784C100.516 31.2784 99.1074 30.7878 98.16 30.053V37.4009C98.16 37.8282 97.9747 38.0136 97.5474 38.0136H95.6483C95.2209 38.0136 95.0378 37.8282 95.0378 37.4009L95.0423 17.1975ZM98.1646 25.5244C98.1646 26.4717 98.316 26.9307 99.1119 27.6044C99.7245 28.1244 100.613 28.5857 102.083 28.5857C104.316 28.5857 105.94 26.7181 105.94 23.7474C105.94 20.9935 104.561 18.9723 102.144 18.9723C101.544 18.9676 100.952 19.1037 100.415 19.3696C99.878 19.6354 99.4106 20.0235 99.0508 20.5029C98.4624 21.2175 98.1481 22.1186 98.1646 23.0442V25.5244Z" fill="#000046"/>
<path d="M79.4604 17.1975C79.4604 16.768 79.6459 16.5848 80.0732 16.5848H81.7349C82.1621 16.5848 82.2187 16.7521 82.3476 17.1975L82.5736 18.1765C84.0455 16.7792 85.2053 16.3226 87.2921 16.3203C90.3488 16.3203 92.5237 17.9391 92.5237 21.8414V30.3605C92.5237 30.7878 92.3383 30.9732 91.911 30.9732H90.0119C89.5846 30.9732 89.4015 30.7878 89.4015 30.3605V21.8866C89.3676 20.0553 88.3072 18.6128 85.9875 18.7733C85.3848 18.8421 84.8082 19.0577 84.308 19.401C83.8078 19.7443 83.3994 20.2049 83.1185 20.7425C82.5148 21.9635 82.6166 23.2296 82.5736 25.0383V30.365C82.5736 30.7923 82.3905 30.9777 81.9632 30.9777H80.0641C79.6368 30.9777 79.4514 30.7923 79.4514 30.365L79.4604 17.1975Z" fill="#000046"/>
<path d="M75.054 10.096C75.4658 10.096 75.8684 10.2181 76.2108 10.4469C76.5533 10.6757 76.8202 11.0009 76.9778 11.3814C77.1354 11.762 77.1766 12.1806 77.0963 12.5845C77.0159 12.9885 76.8176 13.3595 76.5264 13.6507C76.2352 13.9419 75.8641 14.1402 75.4603 14.2205C75.0563 14.3009 74.6376 14.2597 74.2572 14.1021C73.8767 13.9445 73.5515 13.6776 73.3227 13.3352C73.0939 12.9927 72.9717 12.5902 72.9717 12.1783C72.9697 11.9043 73.0221 11.6325 73.126 11.379C73.2299 11.1253 73.3832 10.895 73.577 10.7012C73.7707 10.5074 74.0011 10.3541 74.2547 10.2502C74.5083 10.1463 74.7799 10.0939 75.054 10.096ZM73.4918 17.1975C73.4918 16.7679 73.6771 16.5847 74.1044 16.5847H76.0035C76.4309 16.5847 76.6141 16.7679 76.6141 17.1975V30.3605C76.6141 30.7878 76.4309 30.9731 76.0035 30.9731H74.1044C73.6771 30.9731 73.4918 30.7878 73.4918 30.3605V17.1975Z" fill="#000046"/>
<path d="M55.8909 10.8353C55.8909 10.4057 56.0762 10.2226 56.5035 10.2226H64.6155C69.1146 10.2226 71.5655 12.9176 71.5655 16.682C71.5655 20.2994 69.0536 23.1413 64.9524 23.1413H59.2595V30.3605C59.2595 30.7878 59.0764 30.9731 58.6469 30.9731H56.5035C56.0762 30.9731 55.8909 30.7878 55.8909 30.3605V10.8353ZM64.5002 20.1412C66.9871 20.1412 68.2036 18.6105 68.2036 16.682C68.2036 14.7534 66.9804 13.2228 64.5002 13.2228H59.2595V20.1412H64.5002Z" fill="#000046"/>
<path fill-rule="evenodd" clip-rule="evenodd" d="M12.9061 39.9821H17.3357V39.9847C28.2947 39.9847 37.2085 31.0234 37.2085 20.0087C37.2085 8.99394 28.2947 0.0326014 17.3351 0.031311H17.3113L15.9991 0.0467986C7.17655 0.053897 0 7.27098 0 16.1414C9.36626e-05 19.4984 1.04451 22.7714 2.98704 25.5023C4.92957 28.233 7.67297 30.2849 10.8332 31.3705L10.8518 31.3757V37.9171C10.8518 38.4648 11.0682 38.9901 11.4535 39.3773C11.8388 39.7646 12.3613 39.9821 12.9061 39.9821ZM16.0332 4.31806L17.3473 4.30256C26.0369 4.30902 33.105 11.4144 33.105 20.1545C33.105 28.8945 26.0305 36.005 17.3357 36.005H14.9553V32.0171H17.6098C23.6148 32.0171 28.5002 27.1064 28.5002 21.0702V20.27C28.5002 14.9823 24.2201 10.6801 18.9599 10.6801H12.9054C12.3607 10.6801 11.8382 10.8977 11.4528 11.285C11.0676 11.6721 10.8512 12.1974 10.8512 12.7451V23.6423C11.5695 24.5283 13.046 25.1743 14.3942 25.2111H14.9553V14.8075H18.9579C20.3993 14.809 21.7812 15.3852 22.8005 16.4096C23.8197 17.434 24.3931 18.8231 24.3948 20.272V21.0702C24.3927 22.8793 23.6767 24.6138 22.4038 25.8928C21.1308 27.1718 19.4052 27.891 17.6053 27.8923H13.982C12.7891 27.8263 11.6245 27.5016 10.5681 26.9405C6.65335 24.9394 4.10154 20.8914 4.10154 16.2879C4.10154 9.68763 9.44335 4.31806 16.0094 4.31806H16.0332Z" fill="#000046"/>
</svg>
