<?xml version="1.0" encoding="UTF-8"?>
<!DOCTYPE svg PUBLIC "-//W3C//DTD SVG 1.1//EN" "http://www.w3.org/Graphics/SVG/1.1/DTD/svg11.dtd">
<svg width="1627" height="230" viewBox="0 0 1627 230" fill="none" xmlns="http://www.w3.org/2000/svg">
<path d="M95.6719 9.76562L154.032 68.1579L212.424 9.76562" stroke="#F07F65" stroke-width="26.9553" stroke-miterlimit="10" stroke-linejoin="round"/>
<path d="M212.424 219.767L154.032 161.406L95.6719 219.767" stroke="#F07F65" stroke-width="26.9553" stroke-miterlimit="10" stroke-linejoin="round"/>
<path d="M71.8795 56.3262L13.4873 114.814L71.8795 173.079" stroke="#F07F65" stroke-width="26.9553" stroke-miterlimit="10" stroke-linejoin="round"/>
<path d="M236.151 173.078L294.544 114.814L236.439 56.6133" stroke="#F07F65" stroke-width="26.9553" stroke-miterlimit="10" stroke-linejoin="round"/>
<path d="M488.268 163.518C488.268 168.634 488.46 172.951 488.876 176.405C489.291 179.858 489.995 183.664 490.954 187.821H459.392C457.601 182.417 456.706 174.454 456.706 163.933V156.674C456.706 149.191 454.659 143.627 450.566 139.95C446.473 136.272 440.844 134.449 433.649 134.449H405.189V187.853H373.402V49.707H446.313C461.119 49.707 472.439 53.0967 480.274 59.8761C488.108 66.6555 492.01 75.8652 492.01 87.5053C492.01 96.9389 489.323 104.837 483.919 111.297C478.515 117.725 471.575 121.85 463.133 123.673C471.16 125.623 477.364 128.853 481.713 133.426C486.062 137.999 488.268 144.938 488.268 154.212V163.518V163.518ZM439.246 111.777C446.185 111.777 451.205 110.146 454.307 106.884C457.409 103.622 458.976 98.6657 458.976 92.0462C458.976 80.1503 452.389 74.1704 439.246 74.1704H405.189V111.777H439.246Z" fill="#070F4D"/>
<path d="M578.222 166.33C582.091 163.899 584.809 160.606 586.312 156.449H615.796C614.133 166.298 609.049 174.516 600.543 181.168C592.036 187.819 579.245 191.145 562.201 191.145C543.238 191.145 529.167 185.932 520.021 175.476C510.876 165.019 506.303 151.748 506.303 135.695C506.303 125.302 508.349 115.964 512.443 107.65C516.536 99.3354 522.772 92.7479 531.15 87.9192C539.528 83.0585 549.889 80.6602 562.201 80.6602C580.62 80.6602 594.179 85.7767 602.909 96.0417C611.639 106.307 615.988 119.45 615.988 135.503C615.988 139.532 615.86 142.282 615.572 143.817H536.426C537.258 153.251 539.912 159.966 544.421 163.963C548.93 167.993 555.038 169.975 562.808 169.975C569.204 169.943 574.32 168.76 578.222 166.33ZM544.868 106.818C540.647 110.432 537.897 116.508 536.65 125.11H586.728C586.184 117.211 583.914 111.295 579.981 107.362C576.047 103.429 570.259 101.446 562.648 101.446C555.006 101.414 549.09 103.205 544.868 106.818Z" fill="#070F4D"/>
<path d="M663.796 187.819H633.064V42.4141H663.796V187.819Z" fill="#070F4D"/>
<path d="M766.639 83.9546H797.37V187.82H766.639V172.247C759.284 184.846 747.164 191.146 730.279 191.146C714.226 191.146 702.394 185.997 694.848 175.668C687.301 165.339 683.527 152.1 683.527 135.887C683.527 119.418 687.301 106.084 694.848 95.8825C702.394 85.7134 714.194 80.6289 730.279 80.6289C747.324 80.6289 759.444 86.8647 766.639 99.3362V83.9546ZM760.083 159.775C764.432 154.914 766.639 146.952 766.639 135.887C766.639 124.823 764.496 116.86 760.211 112C755.926 107.139 749.115 104.74 739.841 104.74C730.567 104.74 723.948 107.139 720.014 111.904C716.081 116.668 714.098 124.695 714.098 135.887C714.098 146.984 716.081 154.946 720.014 159.775C723.948 164.636 730.567 167.034 739.841 167.034C748.987 167.066 755.734 164.636 760.083 159.775Z" fill="#070F4D"/>
<path d="M869.066 187.819C854.804 187.819 844.859 184.813 839.263 178.769C833.666 172.757 830.852 163.291 830.852 150.404V107.234H811.953V92.4917L833.347 83.7617L846.01 59.2344H861.583V83.9535H891.483V107.234H861.583V163.323H888.605V187.851H869.066V187.819Z" fill="#070F4D"/>
<path d="M941.975 70.2358H908.525V49.6738H941.975V70.2358ZM940.728 187.82H909.996V83.9545H940.728V187.82Z" fill="#070F4D"/>
<path d="M983.708 183.568C975.106 178.515 968.806 171.832 964.809 163.517C960.779 155.203 958.797 145.929 958.797 135.664C958.797 125.559 960.811 116.349 964.809 108.035C968.838 99.7206 975.138 93.0692 983.708 88.0806C992.278 83.092 1003.15 80.5977 1016.33 80.5977C1029.47 80.5977 1040.37 83.1239 1049.04 88.1765C1057.71 93.2291 1064.01 99.9125 1067.94 108.227C1071.87 116.541 1073.85 125.687 1073.85 135.664C1073.85 145.769 1071.87 155.011 1067.94 163.389C1064.01 171.768 1057.67 178.483 1049.04 183.536C1040.37 188.588 1029.47 191.114 1016.33 191.114C1003.18 191.146 992.31 188.62 983.708 183.568ZM995.987 160C1000.14 164.7 1006.92 167.067 1016.36 167.067C1025.92 167.067 1032.76 164.7 1036.92 160C1041.08 155.299 1043.16 147.272 1043.16 135.888C1043.16 124.536 1041.08 116.509 1036.92 111.776C1032.76 107.076 1025.92 104.709 1016.36 104.709C1006.92 104.709 1000.14 107.076 995.987 111.776C991.83 116.477 989.752 124.536 989.752 135.888C989.752 147.24 991.83 155.267 995.987 160Z" fill="#070F4D"/>
<path d="M1198.54 124.055V187.82H1167.81V128.82C1167.81 120.666 1166.14 114.718 1162.82 111.072C1159.49 107.395 1154.57 105.572 1148.07 105.572C1139.63 105.572 1133.27 108.418 1128.95 114.078C1124.67 119.77 1122.52 128.628 1122.52 140.684V187.852H1091.79V83.9546H1122.52V104.325C1130.01 88.5275 1142.48 80.6289 1159.91 80.6289C1185.65 80.6289 1198.54 95.115 1198.54 124.055Z" fill="#070F4D"/>
<path d="M1299.07 83.9546H1329.81V187.82H1299.07V172.247C1291.72 184.846 1279.6 191.146 1262.72 191.146C1246.66 191.146 1234.83 185.997 1227.28 175.668C1219.74 165.339 1215.96 152.1 1215.96 135.887C1215.96 119.418 1219.74 106.084 1227.28 95.8825C1234.83 85.7134 1246.63 80.6289 1262.72 80.6289C1279.76 80.6289 1291.88 86.8647 1299.07 99.3362V83.9546V83.9546ZM1292.52 159.775C1296.87 154.914 1299.07 146.952 1299.07 135.887C1299.07 124.823 1296.93 116.86 1292.65 112C1288.36 107.139 1281.55 104.74 1272.28 104.74C1263 104.74 1256.38 107.139 1252.45 111.904C1248.52 116.668 1246.53 124.695 1246.53 135.887C1246.53 146.984 1248.52 154.946 1252.45 159.775C1256.38 164.636 1263 167.034 1272.28 167.034C1281.42 167.066 1288.17 164.636 1292.52 159.775Z" fill="#070F4D"/>
<path d="M1384.87 187.819H1354.14V42.4141H1384.87V187.819Z" fill="#070F4D"/>
<path d="M1535.08 187.82H1517.62L1504.12 152.516H1435.56L1422.07 187.82H1404.83L1457.18 49.6738H1482.73L1535.08 187.82ZM1469.84 62.1453L1440.74 138.605H1498.91L1469.84 62.1453Z" fill="#070F4D"/>
<path d="M1626.88 49.6738V63.5844H1597.59V173.909H1626.88V187.82H1551.26V173.909H1580.55V63.5844H1551.26V49.6738H1626.88V49.6738Z" fill="#070F4D"/>
</svg>
