<svg width="180" height="60" viewBox="0 0 180 60" fill="none" xmlns="http://www.w3.org/2000/svg">
<path d="M58.122 24.7038C58.122 21.4748 54.9821 18.0454 49.5484 18.0454C43.4467 18.0454 36.7438 22.5215 35.7194 31.4513C34.6728 40.4702 40.2845 44.4787 45.9409 44.4787C51.5972 44.4787 54.559 42.274 57.5875 39.3345C54.9821 36.061 51.6194 37.5753 50.9736 37.9093C50.261 38.2656 49.348 38.7555 47.4774 38.7555C45.2951 38.7555 43.0682 37.7757 43.0682 33.7005C57.0531 32.3198 58.122 27.9328 58.122 24.7038ZM51.1963 25.2383C51.1073 26.2404 50.7064 27.9551 43.6249 28.9127C45.1169 23.6126 47.9673 23.2118 49.2812 23.2118C50.506 23.2118 51.2854 24.1694 51.1963 25.2383ZM27.5022 26.1068C27.5022 26.1068 24.4959 35.5488 24.2509 36.3282C24.1618 35.5265 21.9572 18.5799 21.9572 18.5799C16.8353 18.5799 14.0963 22.232 12.6488 26.0845C12.6488 26.0845 8.99666 35.5488 8.68489 36.3505C8.66263 35.6156 8.12817 26.1958 8.12817 26.1958C7.8164 21.4748 3.49623 18.6021 0 18.6021L4.2311 44.2782C9.59792 44.256 12.4929 40.6261 14.0072 36.7736C14.0072 36.7736 17.2362 28.4227 17.3698 28.0442C17.3921 28.4005 19.6858 44.2782 19.6858 44.2782C25.0749 44.2782 27.9698 40.8711 29.5286 37.1522L37.0778 18.6021C31.7555 18.6021 28.9496 22.232 27.5022 26.1068ZM77.8968 18.0009C74.5787 18.0009 72.0401 19.8047 69.9023 22.4547V22.4324L71.8174 7C67.4081 7 63.8228 10.8303 63.1325 16.5311L59.7922 44.0778C62.3308 44.0778 65.0254 43.3429 66.4728 41.4724C67.7644 43.1425 69.7018 44.4787 72.5745 44.4787C80.0124 44.4787 85.112 35.8383 85.112 27.7324C85.0674 20.3391 81.4821 18.0009 77.8968 18.0009ZM77.2065 31.2509C76.4271 35.7715 73.9107 38.8446 71.4834 38.8446C69.0338 38.8446 67.9871 37.7534 67.9871 37.7534C68.4548 33.7896 68.7443 31.3622 69.635 29.269C70.5258 27.1757 72.6413 23.8353 74.846 23.8353C77.0061 23.8353 77.9859 26.708 77.2065 31.2509ZM103.684 18.6021H98.4956L98.5179 18.3349C98.8742 14.95 99.6759 13.1685 102.326 12.879C104.13 12.7009 104.931 11.7656 105.132 10.7412C105.288 9.9395 105.778 7.15588 105.778 7.15588C95.3557 7.08908 92.0822 11.5874 91.2359 18.4462L91.2137 18.6021H91.1023C89.4099 18.6021 87.5393 20.5173 87.2275 22.9446L87.1162 23.8353H90.5901L87.6729 47.9303L86.7821 52.2505C86.8935 52.2505 87.0271 52.2728 87.1384 52.2728C92.0153 52.0946 95.133 48.2421 95.8233 42.6526L98.0948 23.8353H99.7204C101.324 23.8353 103.194 22.232 103.528 19.5597L103.684 18.6021ZM130.674 18.1567C124.684 18.1567 119.028 22.566 117.291 29.4916C115.554 36.4173 118.181 44.6123 127 44.6123C135.796 44.6123 140.873 36.0833 140.873 28.9795C140.873 21.9202 136.086 18.1567 130.674 18.1567ZM133.102 31.0282C132.79 34.1681 131.409 38.9337 127.623 38.9337C123.815 38.9337 124.35 33.3664 124.728 30.7164C125.129 27.8883 126.71 23.8576 130.118 23.8576C133.168 23.8576 133.458 27.4874 133.102 31.0282ZM170.469 26.1068C170.469 26.1068 167.463 35.5488 167.218 36.3282C167.129 35.5265 164.924 18.5799 164.924 18.5799C159.802 18.5799 157.063 22.232 155.615 26.0845C155.615 26.0845 151.963 35.5488 151.652 36.3505C151.629 35.6156 151.095 26.1958 151.095 26.1958C150.783 21.4748 146.463 18.6021 142.967 18.6021L147.176 44.2782C152.542 44.256 155.437 40.6261 156.952 36.7736C156.952 36.7736 160.181 28.4227 160.292 28.0442C160.337 28.4005 162.608 44.2782 162.608 44.2782C167.997 44.2782 170.892 40.8711 172.451 37.1522L180 18.6021C174.7 18.6021 171.894 22.232 170.469 26.1068ZM108.583 7.15588L104.219 42.3631L103.328 46.7056C103.439 46.7056 103.573 46.7278 103.684 46.7278C108.383 46.661 111.723 42.5413 112.347 37.3526L114.863 17.1546C115.62 10.9861 111.946 7.15588 108.583 7.15588Z" fill="black"/>
</svg>
