<svg width="215" height="46" viewBox="0 0 215 46" fill="none" xmlns="http://www.w3.org/2000/svg">
<g clip-path="url(#clip0_1_2)">
<path d="M208.059 0H6C2.68629 0 0 2.68629 0 6V39.2215C0 42.5352 2.68629 45.2215 6 45.2215H208.059C211.373 45.2215 214.059 42.5352 214.059 39.2215V6C214.059 2.68629 211.373 0 208.059 0Z" fill="#2B2B2C"/>
<path d="M17.4163 29.9959C18.1986 29.5428 18.1999 28.0757 17.4193 26.719C16.6386 25.3625 15.3716 24.6301 14.5894 25.0832C13.8072 25.5363 13.8059 27.0034 14.5865 28.36C15.3672 29.7166 16.6341 30.4491 17.4163 29.9959Z" fill="#F26E7E"/>
<path d="M33.4153 28.361C34.196 27.0045 34.1947 25.5374 33.4125 25.0842C32.6303 24.6311 31.3632 25.3634 30.5825 26.7201C29.802 28.0766 29.8032 29.5437 30.5856 29.9969C31.3677 30.4501 32.6347 29.7178 33.4153 28.361Z" fill="#8A3391"/>
<path d="M22.7471 33.0874C23.5293 32.6342 23.5306 31.1671 22.7501 29.8106C21.9694 28.4539 20.7024 27.7215 19.9202 28.1747C19.138 28.6278 19.1367 30.095 19.9173 31.4515C20.6979 32.8083 21.9649 33.5405 22.7471 33.0874Z" fill="#F26E7E"/>
<path d="M28.0856 31.4483C28.8663 30.0918 28.8651 28.6247 28.0828 28.1715C27.3006 27.7184 26.0335 28.4506 25.2529 29.8074C24.4724 31.164 24.4737 32.6311 25.2559 33.0842C26.0381 33.5374 27.3051 32.805 28.0856 31.4483Z" fill="#8A3391"/>
<path d="M23.9975 15.2821C25.5588 15.2821 26.8244 14.5474 26.8244 13.641C26.8244 12.7347 25.5588 12 23.9975 12C22.4362 12 21.1705 12.7347 21.1705 13.641C21.1705 14.5474 22.4362 15.2821 23.9975 15.2821Z" fill="#F7BF2A"/>
<path d="M17.4145 23.8139C18.1967 23.3607 18.198 21.8937 17.4174 20.537C16.6367 19.1805 15.3698 18.4481 14.5875 18.9012C13.8053 19.3544 13.804 20.8215 14.5846 22.1781C15.3653 23.5347 16.6322 24.2671 17.4145 23.8139Z" fill="#F26E7E"/>
<path d="M18.6679 18.3662C20.2292 18.3662 21.4949 17.6314 21.4949 16.725C21.4949 15.8188 20.2292 15.084 18.6679 15.084C17.1067 15.084 15.841 15.8188 15.841 16.725C15.841 17.6314 17.1067 18.3662 18.6679 18.3662Z" fill="#F7BF2A"/>
<path d="M33.4124 22.1813C34.193 20.8247 34.1916 19.3576 33.4095 18.9044C32.6272 18.4513 31.3602 19.1836 30.5797 20.5403C29.799 21.8968 29.8003 23.364 30.5825 23.8172C31.3648 24.2702 32.6317 23.5379 33.4124 22.1813Z" fill="#8A3391"/>
<path d="M29.3342 18.3662C30.8954 18.3662 32.1611 17.6314 32.1611 16.725C32.1611 15.8188 30.8954 15.084 29.3342 15.084C27.7729 15.084 26.5073 15.8188 26.5073 16.725C26.5073 17.6314 27.7729 18.3662 29.3342 18.3662Z" fill="#F7BF2A"/>
<path d="M22.7453 26.9066C23.5276 26.4533 23.5289 24.9862 22.7482 23.6297C21.9676 22.273 20.7007 21.5406 19.9184 21.9938C19.1361 22.447 19.1348 23.914 19.9155 25.2707C20.6962 26.6273 21.9631 27.3597 22.7453 26.9066Z" fill="#F26E7E"/>
<path d="M28.0827 25.2685C28.8633 23.912 28.862 22.4449 28.0797 21.9917C27.2975 21.5385 26.0305 22.2709 25.2499 23.6275C24.4693 24.9841 24.4705 26.4512 25.2528 26.9044C26.0349 27.3575 27.302 26.6252 28.0827 25.2685Z" fill="#8A3391"/>
<path d="M23.9975 21.4576C25.5588 21.4576 26.8244 20.7229 26.8244 19.8166C26.8244 18.9102 25.5588 18.1756 23.9975 18.1756C22.4362 18.1756 21.1705 18.9102 21.1705 19.8166C21.1705 20.7229 22.4362 21.4576 23.9975 21.4576Z" fill="#F7BF2A"/>
<path d="M43 16.54V29.14H47.914C49.624 29.14 51.046 28.528 52.18 27.322C53.314 26.098 53.89 24.604 53.89 22.84C53.89 21.076 53.314 19.582 52.18 18.376C51.046 17.152 49.624 16.54 47.914 16.54H43ZM44.674 27.556V18.124H47.914C49.192 18.124 50.254 18.574 51.064 19.474C51.874 20.374 52.288 21.49 52.288 22.84C52.288 24.19 51.874 25.306 51.064 26.206C50.254 27.106 49.192 27.556 47.914 27.556H44.674Z" fill="white"/>
<path d="M64.3979 25.36C64.4339 25.126 64.4519 24.892 64.4519 24.658C64.4519 23.344 64.0379 22.228 63.1919 21.31C62.3639 20.374 61.2839 19.906 59.9699 19.906C58.5839 19.906 57.4499 20.356 56.5679 21.256C55.6859 22.156 55.2539 23.29 55.2539 24.64C55.2539 26.008 55.7039 27.142 56.5859 28.042C57.4859 28.924 58.6559 29.374 60.0779 29.374C61.8419 29.374 63.1559 28.69 64.0379 27.34L62.7059 26.584C62.1659 27.466 61.3019 27.898 60.1139 27.898C58.4039 27.898 57.1619 26.962 56.8559 25.36H64.3979ZM59.9699 21.382C61.4099 21.382 62.5979 22.282 62.8679 23.992H56.8559C57.1259 22.408 58.2959 21.382 59.9699 21.382Z" fill="white"/>
<path d="M71.2201 19.906C69.7261 19.906 68.5921 20.5 67.8181 21.688V20.14H66.2521V32.74H67.8181V27.592C68.5921 28.78 69.7261 29.374 71.2201 29.374C72.4801 29.374 73.5601 28.924 74.4421 28.006C75.3241 27.088 75.7741 25.954 75.7741 24.64C75.7741 23.326 75.3241 22.21 74.4421 21.292C73.5601 20.374 72.4801 19.906 71.2201 19.906ZM71.0221 27.862C70.1041 27.862 69.3481 27.556 68.7361 26.944C68.1241 26.314 67.8181 25.558 67.8181 24.64C67.8181 23.722 68.1241 22.966 68.7361 22.354C69.3481 21.724 70.1041 21.418 71.0221 21.418C71.9221 21.418 72.6781 21.724 73.2901 22.354C73.9021 22.966 74.2081 23.722 74.2081 24.64C74.2081 25.558 73.9021 26.314 73.2901 26.944C72.6781 27.556 71.9221 27.862 71.0221 27.862Z" fill="white"/>
<path d="M79.2087 29.14V16H77.6427V29.14H79.2087Z" fill="white"/>
<path d="M89.1938 28.006C90.1118 27.088 90.5798 25.972 90.5798 24.64C90.5798 23.308 90.1118 22.192 89.1938 21.274C88.2758 20.356 87.1418 19.906 85.8278 19.906C84.5138 19.906 83.3798 20.356 82.4618 21.274C81.5438 22.192 81.0938 23.308 81.0938 24.64C81.0938 25.972 81.5438 27.088 82.4618 28.006C83.3798 28.924 84.5138 29.374 85.8278 29.374C87.1418 29.374 88.2758 28.924 89.1938 28.006ZM85.8278 27.844C84.9458 27.844 84.1898 27.538 83.5778 26.926C82.9658 26.314 82.6598 25.558 82.6598 24.64C82.6598 23.722 82.9658 22.966 83.5778 22.354C84.1898 21.742 84.9458 21.436 85.8278 21.436C86.7278 21.436 87.4838 21.742 88.0958 22.354C88.7078 22.966 89.0138 23.722 89.0138 24.64C89.0138 25.558 88.7078 26.314 88.0958 26.926C87.4838 27.538 86.7278 27.844 85.8278 27.844Z" fill="white"/>
<path d="M95.7643 27.196L92.7043 20.14H91.0303L94.9543 29.104L94.7923 29.446C94.2703 30.76 93.4603 31.372 92.3623 31.282V32.74C94.1623 32.866 95.5843 31.732 96.3583 29.698L100.03 20.14H98.356L95.7643 27.196Z" fill="white"/>
<path d="M114.46 26.998L112.336 20.14H110.824L108.7 26.98L106.72 20.14H105.082L107.872 29.14H109.474L111.58 22.48L113.686 29.14H115.288L118.078 20.14H116.44L114.46 26.998Z" fill="white"/>
<path d="M120.482 18.502C121.058 18.502 121.526 18.034 121.526 17.458C121.526 16.882 121.058 16.396 120.482 16.396C119.888 16.396 119.42 16.882 119.42 17.458C119.42 18.034 119.888 18.502 120.482 18.502ZM121.256 29.14V20.14H119.69V29.14H121.256Z" fill="white"/>
<path d="M128.541 20.14H126.147V17.62L124.581 18.088V20.14H122.799V21.652H124.581V26.53C124.581 28.762 125.805 29.5 128.541 29.14V27.736C126.939 27.808 126.147 27.916 126.147 26.53V21.652H128.541V20.14Z" fill="white"/>
<path d="M134.877 19.906C133.563 19.906 132.591 20.41 131.961 21.436V16.54H130.395V29.14H131.961V24.37C131.961 22.354 133.005 21.4 134.571 21.4C135.957 21.4 136.803 22.246 136.803 23.704V29.14H138.369V23.614C138.369 21.328 136.983 19.906 134.877 19.906Z" fill="white"/>
<path d="M145.217 16.54V29.14H146.891V24.64H149.789C150.959 24.64 151.913 24.244 152.687 23.47C153.461 22.696 153.857 21.724 153.857 20.59C153.857 19.438 153.461 18.484 152.687 17.71C151.913 16.936 150.959 16.54 149.789 16.54H145.217ZM146.891 23.074V18.106H149.789C151.175 18.106 152.201 19.15 152.201 20.59C152.201 21.292 151.967 21.886 151.517 22.372C151.067 22.84 150.491 23.074 149.789 23.074H146.891Z" fill="white"/>
<path d="M161.882 24.91C161.882 26.926 160.838 27.88 159.272 27.88C157.886 27.88 157.04 27.034 157.04 25.576V20.14H155.474V25.666C155.474 27.952 156.86 29.374 158.966 29.374C160.28 29.374 161.252 28.87 161.882 27.844V29.14H163.448V20.14H161.882V24.91Z" fill="white"/>
<path d="M167.398 29.14V16H165.832V29.14H167.398Z" fill="white"/>
<path d="M175.997 24.91C175.997 26.926 174.953 27.88 173.387 27.88C172.001 27.88 171.155 27.034 171.155 25.576V20.14H169.589V25.666C169.589 27.952 170.975 29.374 173.081 29.374C174.395 29.374 175.367 28.87 175.997 27.844V29.14H177.563V20.14H175.997V24.91Z" fill="white"/>
<path d="M189.667 19.906C188.407 19.906 187.471 20.41 186.841 21.436C186.283 20.41 185.401 19.906 184.195 19.906C183.025 19.906 182.125 20.392 181.513 21.346V20.14H179.947V29.14H181.513V24.136C181.513 22.318 182.503 21.4 183.817 21.4C184.987 21.4 185.725 22.21 185.725 23.596V29.14H187.291V24.136C187.291 22.282 188.155 21.4 189.505 21.4C190.711 21.4 191.485 22.21 191.485 23.596V29.14H193.051V23.542C193.051 21.31 191.683 19.906 189.667 19.906Z" fill="white"/>
<path d="M196.015 18.502C196.591 18.502 197.059 18.034 197.059 17.458C197.059 16.882 196.591 16.396 196.015 16.396C195.421 16.396 194.953 16.882 194.953 17.458C194.953 18.034 195.421 18.502 196.015 18.502ZM196.789 29.14V20.14H195.223V29.14H196.789Z" fill="white"/>
</g>
<defs>
<clipPath id="clip0_1_2">
<rect width="215" height="46" fill="white"/>
</clipPath>
</defs>
</svg>
