<svg width="215" height="46" viewBox="0 0 215 46" fill="none" xmlns="http://www.w3.org/2000/svg">
<g clip-path="url(#clip0_1_52)">
<path d="M208.059 0H6C2.68629 0 0 2.68629 0 6V39.2215C0 42.5352 2.68629 45.2215 6 45.2215H208.059C211.373 45.2215 214.059 42.5352 214.059 39.2215V6C214.059 2.68629 211.373 0 208.059 0Z" fill="white"/>
<path d="M208.059 0H6C2.68629 0 0 2.68629 0 6V39.2215C0 42.5352 2.68629 45.2215 6 45.2215H208.059C211.373 45.2215 214.059 42.5352 214.059 39.2215V6C214.059 2.68629 211.373 0 208.059 0Z" fill="url(#paint0_linear_1_52)" fill-opacity="0.1"/>
<path d="M42.9776 16.5476H47.8973C49.6093 16.5476 51.033 17.1683 52.1683 18.4096C53.3037 19.6327 53.8803 21.1478 53.8803 22.9368C53.8803 24.7258 53.3037 26.2409 52.1683 27.4822C51.033 28.7053 49.6093 29.3259 47.8973 29.3259H42.9776V16.5476ZM44.6536 27.7195H47.8973C49.1768 27.7195 50.2401 27.2632 51.051 26.3504C51.862 25.4377 52.2765 24.3059 52.2765 22.9368C52.2765 21.5677 51.862 20.4359 51.051 19.5232C50.2401 18.6104 49.1768 18.1541 47.8973 18.1541H44.6536V27.7195ZM64.4005 25.4925H56.8497C57.1561 27.1171 58.3995 28.0664 60.1115 28.0664C61.3009 28.0664 62.1659 27.6283 62.7065 26.7338L64.0401 27.5005C63.1571 28.8696 61.8415 29.5633 60.0755 29.5633C58.6518 29.5633 57.4804 29.1069 56.5794 28.2124C55.6964 27.2997 55.2458 26.1496 55.2458 24.7623C55.2458 23.3932 55.6783 22.2431 56.5614 21.3304C57.4444 20.4176 58.5797 19.9613 59.9673 19.9613C61.2829 19.9613 62.3641 20.4359 63.1931 21.3851C64.0401 22.3161 64.4546 23.4479 64.4546 24.7805C64.4546 25.0178 64.4366 25.2551 64.4005 25.4925ZM59.9673 21.4582C58.2914 21.4582 57.12 22.4987 56.8497 24.1051H62.8687C62.5984 22.3709 61.409 21.4582 59.9673 21.4582ZM71.2307 19.9613C72.4922 19.9613 73.5734 20.4359 74.4565 21.3669C75.3395 22.2979 75.79 23.4297 75.79 24.7623C75.79 26.0949 75.3395 27.2449 74.4565 28.1759C73.5734 29.1069 72.4922 29.5633 71.2307 29.5633C69.7349 29.5633 68.5996 28.9608 67.8247 27.756V32.9769H66.2569V20.1986H67.8247V21.7685C68.5996 20.5637 69.7349 19.9613 71.2307 19.9613ZM71.0325 28.0299C71.9335 28.0299 72.6904 27.7195 73.3031 27.0989C73.9158 26.46 74.2222 25.6933 74.2222 24.7623C74.2222 23.8313 73.9158 23.0646 73.3031 22.4439C72.6904 21.805 71.9335 21.4947 71.0325 21.4947C70.1134 21.4947 69.3565 21.805 68.7438 22.4439C68.1311 23.0646 67.8247 23.8313 67.8247 24.7623C67.8247 25.6933 68.1311 26.46 68.7438 27.0989C69.3565 27.7195 70.1134 28.0299 71.0325 28.0299ZM79.2286 29.3259H77.6608V16H79.2286V29.3259ZM89.2254 28.1759C88.3063 29.1069 87.171 29.5633 85.8555 29.5633C84.5399 29.5633 83.4046 29.1069 82.4855 28.1759C81.5665 27.2449 81.1159 26.1131 81.1159 24.7623C81.1159 23.4114 81.5665 22.2796 82.4855 21.3486C83.4046 20.4176 84.5399 19.9613 85.8555 19.9613C87.171 19.9613 88.3063 20.4176 89.2254 21.3486C90.1445 22.2796 90.613 23.4114 90.613 24.7623C90.613 26.1131 90.1445 27.2449 89.2254 28.1759ZM85.8555 28.0116C86.7565 28.0116 87.5134 27.7013 88.1261 27.0806C88.7388 26.46 89.0452 25.6933 89.0452 24.7623C89.0452 23.8313 88.7388 23.0646 88.1261 22.4439C87.5134 21.8233 86.7565 21.5129 85.8555 21.5129C84.9724 21.5129 84.2156 21.8233 83.6028 22.4439C82.9901 23.0646 82.6838 23.8313 82.6838 24.7623C82.6838 25.6933 82.9901 26.46 83.6028 27.0806C84.2156 27.7013 84.9724 28.0116 85.8555 28.0116ZM95.8036 27.3544L98.3986 20.1986H100.074L96.3983 29.8918C95.6234 31.9546 94.1997 33.1047 92.3976 32.9769V31.4983C93.4969 31.5895 94.3078 30.9689 94.8304 29.6363L94.9926 29.2894L91.064 20.1986H92.74L95.8036 27.3544ZM114.521 27.1536L116.503 20.1986H118.143L115.35 29.3259H113.746L111.638 22.5717L109.529 29.3259H107.925L105.132 20.1986H106.772L108.754 27.1354L110.881 20.1986H112.395L114.521 27.1536ZM120.55 18.5374C119.955 18.5374 119.487 18.0628 119.487 17.4786C119.487 16.8945 119.955 16.4016 120.55 16.4016C121.127 16.4016 121.595 16.8945 121.595 17.4786C121.595 18.0628 121.127 18.5374 120.55 18.5374ZM121.325 29.3259H119.757V20.1986H121.325V29.3259ZM128.619 20.1986V21.732H126.222V26.679C126.222 28.0846 127.015 27.9751 128.619 27.9021V29.3259C125.879 29.691 124.654 28.9426 124.654 26.679V21.732H122.87V20.1986H124.654V18.1175L126.222 17.6429V20.1986H128.619ZM134.962 19.9613C137.07 19.9613 138.458 21.4034 138.458 23.7217V29.3259H136.89V23.813C136.89 22.3344 136.043 21.4764 134.656 21.4764C133.088 21.4764 132.043 22.4439 132.043 24.4884V29.3259H130.475V16.5476H132.043V21.5129C132.673 20.4724 133.646 19.9613 134.962 19.9613ZM145.314 16.5476H149.891C151.063 16.5476 152.018 16.9492 152.793 17.7342C153.568 18.5192 153.964 19.4867 153.964 20.655C153.964 21.805 153.568 22.7908 152.793 23.5757C152.018 24.3607 151.063 24.7623 149.891 24.7623H146.99V29.3259H145.314V16.5476ZM146.99 23.1741H149.891C150.594 23.1741 151.171 22.9368 151.621 22.4622C152.072 21.9693 152.306 21.3669 152.306 20.655C152.306 19.1946 151.279 18.1358 149.891 18.1358H146.99V23.1741ZM161.999 25.0361V20.1986H163.566V29.3259H161.999V28.0116C161.368 29.0521 160.395 29.5633 159.079 29.5633C156.971 29.5633 155.583 28.1211 155.583 25.8028V20.1986H157.151V25.7115C157.151 27.1901 157.998 28.0481 159.386 28.0481C160.953 28.0481 161.999 27.0806 161.999 25.0361ZM167.521 29.3259H165.953V16H167.521V29.3259ZM176.13 25.0361V20.1986H177.698V29.3259H176.13V28.0116C175.499 29.0521 174.526 29.5633 173.211 29.5633C171.102 29.5633 169.715 28.1211 169.715 25.8028V20.1986H171.282V25.7115C171.282 27.1901 172.129 28.0481 173.517 28.0481C175.085 28.0481 176.13 27.0806 176.13 25.0361ZM189.816 19.9613C191.834 19.9613 193.204 21.3851 193.204 23.6487V29.3259H191.636V23.7035C191.636 22.2979 190.861 21.4764 189.654 21.4764C188.302 21.4764 187.437 22.3709 187.437 24.2511V29.3259H185.869V23.7035C185.869 22.2979 185.131 21.4764 183.959 21.4764C182.644 21.4764 181.653 22.4074 181.653 24.2511V29.3259H180.085V20.1986H181.653V21.4217C182.265 20.4542 183.166 19.9613 184.338 19.9613C185.545 19.9613 186.428 20.4724 186.987 21.5129C187.617 20.4724 188.555 19.9613 189.816 19.9613ZM196.171 18.5374C195.577 18.5374 195.108 18.0628 195.108 17.4786C195.108 16.8945 195.577 16.4016 196.171 16.4016C196.748 16.4016 197.217 16.8945 197.217 17.4786C197.217 18.0628 196.748 18.5374 196.171 18.5374ZM196.946 29.3259H195.379V20.1986H196.946V29.3259Z" fill="#131314"/>
<path d="M17.4163 29.9959C18.1986 29.5428 18.1999 28.0757 17.4193 26.719C16.6386 25.3625 15.3716 24.6301 14.5894 25.0832C13.8072 25.5363 13.8059 27.0034 14.5865 28.36C15.3672 29.7166 16.6341 30.4491 17.4163 29.9959Z" fill="#F26E7E"/>
<path d="M33.4153 28.361C34.196 27.0045 34.1947 25.5374 33.4125 25.0842C32.6303 24.6311 31.3632 25.3634 30.5825 26.7201C29.802 28.0766 29.8032 29.5437 30.5856 29.9969C31.3677 30.4501 32.6347 29.7178 33.4153 28.361Z" fill="#8A3391"/>
<path d="M22.7471 33.0874C23.5293 32.6342 23.5306 31.1671 22.7501 29.8106C21.9694 28.4539 20.7024 27.7215 19.9202 28.1747C19.138 28.6278 19.1367 30.095 19.9173 31.4515C20.6979 32.8083 21.9649 33.5405 22.7471 33.0874Z" fill="#F26E7E"/>
<path d="M28.0856 31.4483C28.8663 30.0918 28.8651 28.6247 28.0828 28.1715C27.3006 27.7184 26.0335 28.4506 25.2529 29.8074C24.4724 31.164 24.4737 32.6311 25.2559 33.0842C26.0381 33.5374 27.3051 32.805 28.0856 31.4483Z" fill="#8A3391"/>
<path d="M23.9975 15.2821C25.5588 15.2821 26.8244 14.5474 26.8244 13.641C26.8244 12.7347 25.5588 12 23.9975 12C22.4362 12 21.1705 12.7347 21.1705 13.641C21.1705 14.5474 22.4362 15.2821 23.9975 15.2821Z" fill="#F7BF2A"/>
<path d="M17.4145 23.8139C18.1967 23.3607 18.198 21.8937 17.4174 20.537C16.6367 19.1805 15.3698 18.4481 14.5875 18.9012C13.8053 19.3544 13.804 20.8215 14.5846 22.1781C15.3653 23.5347 16.6322 24.2671 17.4145 23.8139Z" fill="#F26E7E"/>
<path d="M18.6679 18.3662C20.2292 18.3662 21.4949 17.6314 21.4949 16.725C21.4949 15.8188 20.2292 15.084 18.6679 15.084C17.1067 15.084 15.841 15.8188 15.841 16.725C15.841 17.6314 17.1067 18.3662 18.6679 18.3662Z" fill="#F7BF2A"/>
<path d="M33.4124 22.1813C34.193 20.8247 34.1916 19.3576 33.4095 18.9044C32.6272 18.4513 31.3602 19.1836 30.5797 20.5403C29.799 21.8968 29.8003 23.364 30.5825 23.8172C31.3648 24.2702 32.6317 23.5379 33.4124 22.1813Z" fill="#8A3391"/>
<path d="M29.3342 18.3662C30.8954 18.3662 32.1611 17.6314 32.1611 16.725C32.1611 15.8188 30.8954 15.084 29.3342 15.084C27.7729 15.084 26.5073 15.8188 26.5073 16.725C26.5073 17.6314 27.7729 18.3662 29.3342 18.3662Z" fill="#F7BF2A"/>
<path d="M22.7453 26.9066C23.5276 26.4533 23.5289 24.9862 22.7482 23.6297C21.9676 22.273 20.7007 21.5406 19.9184 21.9938C19.1361 22.447 19.1348 23.914 19.9155 25.2707C20.6962 26.6273 21.9631 27.3597 22.7453 26.9066Z" fill="#F26E7E"/>
<path d="M28.0827 25.2685C28.8633 23.912 28.862 22.4449 28.0797 21.9917C27.2975 21.5385 26.0305 22.2709 25.2499 23.6275C24.4693 24.9841 24.4705 26.4512 25.2528 26.9044C26.0349 27.3575 27.302 26.6252 28.0827 25.2685Z" fill="#8A3391"/>
<path d="M23.9975 21.4576C25.5588 21.4576 26.8244 20.7229 26.8244 19.8166C26.8244 18.9102 25.5588 18.1756 23.9975 18.1756C22.4362 18.1756 21.1705 18.9102 21.1705 19.8166C21.1705 20.7229 22.4362 21.4576 23.9975 21.4576Z" fill="#F7BF2A"/>
</g>
<defs>
<linearGradient id="paint0_linear_1_52" x1="0" y1="45.2217" x2="214.059" y2="45.2217" gradientUnits="userSpaceOnUse">
<stop stop-color="#F7BF2A"/>
<stop offset="0.182292" stop-color="#F26E7E"/>
<stop offset="0.380208" stop-color="#BE5188"/>
<stop offset="0.536458" stop-color="#8A3391"/>
<stop offset="0.744792" stop-color="#805AC3"/>
<stop offset="1" stop-color="#7682F4"/>
</linearGradient>
<clipPath id="clip0_1_52">
<rect width="215" height="46" fill="white"/>
</clipPath>
</defs>
</svg>
