<svg width="700" height="197" viewBox="0 0 700 197" fill="none" xmlns="http://www.w3.org/2000/svg">
<g clip-path="url(#clip0_2063_34160)">
<rect width="700" height="197" rx="4" fill="#EDEFFB"/>
<g clip-path="url(#clip1_2063_34160)">
<path d="M53.5793 155.809L51.9056 161.622L48.4875 162.622L51.9409 164.621L53.5793 174.371L55.0054 164.621L58.4706 162.868L54.9465 161.622L53.5793 155.809Z" fill="#F8F9FE"/>
<path d="M458.81 14.2049L457.136 20.0176L453.706 21.0173L457.171 23.0166L458.81 32.7662L460.236 23.0166L463.701 21.2641L460.177 20.0176L458.81 14.2049Z" fill="#F8F9FE"/>
<path d="M621.522 133.767L619.86 139.58L616.43 140.58L619.884 142.579L621.522 152.329L622.948 142.579L626.413 140.827L622.889 139.58L621.522 133.767Z" fill="#F8F9FE"/>
<path d="M534.738 9.20662L533.465 13.6495L530.837 14.4147L533.489 15.945L534.738 23.3991L535.834 15.945L538.486 14.5998L535.787 13.6495L534.738 9.20662Z" fill="#F8F9FE"/>
<path d="M16.2044 181.763L14.9315 186.206L12.3031 186.983L14.9433 188.514L16.2044 195.968L17.2888 188.514L19.9407 187.168L17.2534 186.206L16.2044 181.763Z" fill="#F8F9FE"/>
<path d="M299.327 7.09631L298.054 11.5515L295.426 12.3167L298.078 13.847L299.327 21.3012L300.423 13.847L303.075 12.5018L300.376 11.5515L299.327 7.09631Z" fill="#F8F9FE"/>
<path d="M386.429 24.3371L385.156 28.78L382.528 29.5451L385.18 31.0755L386.429 38.5296L387.525 31.0755L390.177 29.7303L387.478 28.78L386.429 24.3371Z" fill="#F8F9FE"/>
<path d="M386.429 24.3371L385.156 28.78L382.528 29.5451L385.18 31.0755L386.429 38.5296L387.525 31.0755L390.177 29.7303L387.478 28.78L386.429 24.3371Z" fill="#F8F9FE"/>
<path d="M696.107 322.861L694.445 328.674L691.015 329.674L694.468 331.673L696.107 341.422L697.533 331.673L700.998 329.92L697.474 328.674L696.107 322.861Z" fill="#F8F9FE"/>
<path d="M683 86.0808L681.326 91.8935L677.897 92.9055L681.362 94.9048L683 104.642L684.426 94.9048L687.891 93.1524L684.367 91.8935L683 86.0808Z" fill="#F8F9FE"/>
<path d="M12.7392 7.02211L11.0655 12.8349L7.63565 13.8469L11.1009 15.8461L12.7392 25.5834L14.1653 15.8461L17.6306 14.0813L14.1064 12.8349L12.7392 7.02211Z" fill="#F8F9FE"/>
<path d="M164.313 4.92419L162.64 10.737L159.21 11.7366L162.675 13.7359L164.313 23.4855L165.728 13.7359L169.205 11.9834L165.68 10.737L164.313 4.92419Z" fill="#F8F9FE"/>
<path d="M104.226 109.714L102.564 115.539L99.1223 116.539L102.588 118.538L104.226 128.288L105.652 118.538L109.117 116.786L105.593 115.539L104.226 109.714Z" fill="#F8F9FE"/>
<path d="M526.346 69.9999L523.517 79.8729L517.695 81.576L523.576 84.9822L526.346 101.532L528.774 84.9822L534.667 81.9956L528.68 79.8729L526.346 69.9999Z" fill="#F8F9FE"/>
<path d="M582.627 38.9493L578.454 53.5244L569.862 56.042L578.525 61.0526L582.627 85.4761L586.198 61.0526L594.896 56.6468L586.056 53.5244L582.627 38.9493Z" fill="#F8F9FE"/>
<path d="M24.8676 72.1102L20.6834 86.673L12.091 89.1906L20.7659 94.2011L24.8676 118.625L28.4271 94.2011L37.1255 89.8076L28.2974 86.673L24.8676 72.1102Z" fill="#F8F9FE"/>
<path d="M16.2987 251.368L13.4699 261.241L7.63565 262.944L13.5171 266.338L16.2987 282.888L18.7149 266.338L24.6082 263.364L18.6206 261.241L16.2987 251.368Z" fill="#F8F9FE"/>
<path d="M227.371 39.2454L224.53 49.1185L218.708 50.8339L224.589 54.2278L227.371 70.7775L229.787 54.2278L235.669 51.2412L229.693 49.1185L227.371 39.2454Z" fill="#F8F9FE"/>
<path d="M669.587 223.254L666.758 233.127L660.936 234.831L666.817 238.224L669.587 254.774L672.003 238.224L677.897 235.238L671.921 233.127L669.587 223.254Z" fill="#F8F9FE"/>
<path d="M661.101 23.4855L658.272 33.3586L652.45 35.0617L658.331 38.4556L661.101 55.0176L663.529 38.4556L669.422 35.4813L663.435 33.3586L661.101 23.4855Z" fill="#F8F9FE"/>
<path d="M78.6844 23.4855L75.8557 33.3586L70.0331 35.0617L75.9028 38.4556L78.6844 55.0176L81.1006 38.4556L86.9939 35.4813L81.0181 33.3586L78.6844 23.4855Z" fill="#F8F9FE"/>
<path d="M696.083 0L694.81 4.45522L692.182 5.22038L694.834 6.7507L696.083 14.2049L697.179 6.7507L699.831 5.4055L697.132 4.45522L696.083 0Z" fill="#F8F9FE"/>
<path d="M669.493 167.274L668.22 171.717L665.591 172.482L668.243 174.013L669.493 181.467L670.589 174.013L673.241 172.668L670.542 171.717L669.493 167.274Z" fill="#F8F9FE"/>
<path d="M3.89937 339.904L2.62643 344.36L-0.00195312 345.125L2.65 346.655L3.89937 354.109L4.98372 346.655L7.63568 345.31L4.94836 344.36L3.89937 339.904Z" fill="#F8F9FE"/>
</g>
<path d="M598.277 197.959C563.231 202.53 562.836 223.258 578.976 231.48C605.896 245.194 642.267 244.883 663.286 243.164C718.577 238.641 729.339 221.487 728.933 213.961C728.17 199.871 656.898 200.437 640.175 199.485C630.63 198.939 617.634 195.434 598.277 197.959Z" fill="#D5EAEF"/>
<path d="M577.227 203.197C575.943 203.52 574.421 204.088 574.196 205.393C573.916 207.017 575.841 208.053 577.411 208.551C576.767 209.885 576.526 210.802 577.421 211.981C578.723 213.691 582.069 213.951 582.069 213.951C581.883 214.399 581.816 214.888 581.875 215.37C581.933 215.851 582.115 216.31 582.403 216.7C583.663 218.298 587.125 217.815 587.125 217.815C587.125 217.815 585.571 224.324 598.56 221.442C608.01 219.343 615.073 214.864 623.567 210.216C624.997 209.433 626.577 208.454 626.881 206.853C627.283 204.736 625.244 203.004 623.369 201.942C617.231 198.465 607.103 194.628 599.951 196.655C596.817 197.543 593.98 199.048 590.723 199.843C586.22 200.946 581.721 202.064 577.227 203.197Z" fill="#9000A6"/>
<path d="M581.028 207.149C581.028 207.149 577.794 208.523 580.137 210.866C581.157 211.888 583.928 212.126 583.928 212.126C583.728 212.387 583.588 212.689 583.517 213.01C583.446 213.331 583.447 213.664 583.519 213.985C584.225 215.881 587.872 215.212 589.132 214.914C588.66 215.129 588.271 215.492 588.023 215.948C587.775 216.405 587.682 216.929 587.758 217.442C589.696 223.124 612.518 211.754 617.346 205.898C619.372 203.442 618.943 201.791 617.712 199.614C611.931 197.154 604.874 195.363 599.498 196.887C596.364 197.775 593.771 199.026 590.51 199.821C586.007 200.919 581.585 202.112 577.09 203.24C576.653 203.357 576.228 203.513 575.819 203.707C575.874 204.077 575.982 204.437 576.139 204.776C577.008 206.605 581.028 207.149 581.028 207.149Z" fill="#B61AC0"/>
<path d="M563.849 112.648C561.47 114.081 559.079 114.614 555.655 115.296C541.231 118.166 536.525 118.159 524.439 122.038C522.195 122.759 518.115 119.997 517.175 122.447C516.236 124.897 518.284 128.509 520.424 127.452C520.287 128.182 520.39 128.938 520.719 129.605C521.047 130.272 521.582 130.815 522.244 131.153C523.505 131.664 524.883 131.817 526.226 131.597C526.072 134.857 529.827 137.341 532.202 135.549C532.866 136.783 533.822 137.834 534.987 138.612C536.152 139.389 537.49 139.869 538.884 140.009C541.565 140.183 544.256 139.875 546.829 139.102C553.931 137.421 555.504 138.749 562.486 136.52C571.943 133.5 578.553 130.635 583.285 126.832C588.863 122.348 592.117 115.491 594.186 111.368C598.113 103.552 597.526 96.3191 599.444 87.5674C599.444 87.5743 587.131 86.1104 585.996 86.1619C582.721 86.3108 580.998 80.0724 579.467 83.4539C576.085 90.9616 571.227 108.207 563.849 112.648Z" fill="#26E4EE"/>
<path d="M582.579 127.534C588.156 123.051 591.41 116.194 593.481 112.07C594.847 109.301 595.823 106.356 596.381 103.318C595.465 103.095 594.538 102.882 593.612 102.685C592.814 102.414 591.944 102.451 591.172 102.789C590.574 103.133 588.283 91.7225 587.916 92.3651C585.365 96.8326 583.906 106.975 582.417 112.036C581.296 115.833 578.393 121.07 576.583 122.633C569.825 128.467 557.166 132.238 547.557 134.145C547.425 137.099 546.412 137.885 548.216 140.507C551.814 139.694 558.545 138.174 561.783 137.214C571.281 134.406 577.847 131.339 582.579 127.534Z" fill="#26B8D0"/>
<path d="M598.955 196.996C599.462 196.996 600.593 196.519 600.979 196.544C601.519 196.579 601.694 196.429 602.214 196.488C603.003 196.57 603.641 196.822 604.39 196.946C605.232 197.081 606.315 196.453 607.114 196.632C608.162 196.861 608.915 197.918 609.904 198.213C610.766 198.469 612.047 197.984 612.875 198.28C613.613 198.54 613.899 199.571 614.617 199.852C615.558 200.322 616.456 200.873 617.3 201.5C618.196 202.166 619.618 203.596 619.962 203.837C622.411 205.556 623.628 205.389 624.484 205.365C625.017 205.351 626.39 204.727 626.898 204.907C625.723 197.056 623.948 186.765 625.796 179.213C626.598 175.916 627.973 172.769 628.471 169.398C628.62 168.704 628.583 167.983 628.365 167.308C628.082 166.709 627.668 166.181 627.154 165.763C623.603 162.555 618.708 161.192 614.042 159.952C610.839 158.924 607.499 158.384 604.135 158.348C601.064 158.476 599.123 154.462 597.347 156.87C595.646 159.174 594.298 168.454 594.247 171.189C594.089 179.619 596.421 188.743 598.955 196.996Z" fill="#26E4EE"/>
<path d="M628.467 169.195C628.617 168.501 628.58 167.78 628.361 167.106C628.079 166.506 627.665 165.977 627.15 165.56C623.599 162.353 618.704 160.99 614.04 159.748L613.15 159.513C613.11 160.89 612.915 162.259 612.569 163.592C611.646 166.958 609.448 170.007 609.239 173.582C609.081 176.262 610.773 178.273 611.657 180.747C607.067 179.643 612.939 189.041 613.556 188.892C612.616 189.121 612.85 190.437 613.274 191.298C614.878 194.558 616.482 197.819 618.086 201.079C618.758 202.158 619.524 203.174 620.377 204.117C621.577 205.32 623.844 205.998 626.803 205.07C625.628 197.219 623.948 186.56 625.797 179.009C626.6 175.712 627.975 172.566 628.467 169.195Z" fill="#1ED0DF"/>
<path d="M580.804 24.2374C563.713 24.069 556.533 26.9511 548.845 33.8494C538.966 42.719 538.831 55.9771 545.4 67.5112C548.159 72.3533 551.242 73.3831 555.764 76.6501C560.593 80.1439 565.042 89.8234 568.202 95.8419C572.654 104.336 578.969 148.937 591.957 164.785C619.848 198.824 658.723 196.708 676.217 197.45C698.997 198.415 731.354 196.501 731.354 196.501C732.209 195.192 732.784 193.72 733.043 192.178C733.301 190.636 733.237 189.057 732.854 187.541C732.293 185.265 729.567 178.148 716.869 174.85C707.14 172.319 693.621 170.109 690.966 166.215C687.89 161.703 688.881 147.568 670.993 110.246C669.045 106.177 647.732 70.1837 643.584 64.6612C636.359 54.6982 627.782 45.79 618.1 38.1931C606.906 29.1528 595.346 24.3772 580.804 24.2374Z" fill="#1ED0DF"/>
<path d="M685.89 208.116C708.669 209.082 729.105 204.645 732.617 193.895C724.793 194.406 718.287 192.886 710.456 192.475C707.1 192.3 696.494 193.825 693.582 192.149C692.247 191.382 690.746 190.299 689.326 190.897C688.852 191.096 683.858 189.402 683.351 189.495C682.845 189.588 676.526 184.226 676.067 184.041C671.236 182.048 671.002 181.703 666.171 179.71C664.737 180.274 658.74 173.12 658.74 173.639C651.278 170.993 655.14 172.305 648.903 167.434C647.979 166.712 641.202 158.634 640.54 159.596C637.021 157.008 632.379 156.219 628.856 153.63C624.086 151.873 620.355 154.961 616.599 151.537C616.379 152.17 616.16 152.802 615.941 153.435L603.518 147.425C602.79 146.974 601.936 146.769 601.083 146.84C600.249 147.005 599.551 147.999 600.004 148.717C599.296 148.746 598.59 148.622 597.934 148.355C597.277 148.088 596.686 147.683 596.199 147.168C595.227 146.131 593.99 145.379 592.621 144.992C591.222 144.775 589.541 145.942 589.886 147.314C587.768 145.985 585.824 144.397 584.099 142.588L583.922 145.707C581.839 144.376 581.759 141.323 580.247 139.366C580.195 140.429 584.714 156.618 592.292 166.319C619.371 201.014 668.396 207.375 685.89 208.116Z" fill="#1BC1D7"/>
<path d="M635.235 213.406C636.167 212.532 636.907 211.768 637.46 211.79C637.906 211.807 638.29 211.561 638.72 211.587C639.327 211.626 640.103 210.939 640.689 211C641.578 211.091 642.265 211.946 643.109 212.081C644.057 212.233 645.276 211.528 646.176 211.728C647.357 211.991 648.205 213.177 649.319 213.508C650.29 213.797 651.733 213.255 652.666 213.585C653.496 213.877 653.819 215.039 654.628 215.355C655.288 215.663 656.036 215.729 656.739 215.541C657.336 215.324 657.96 216.723 658.396 216.908C661.155 218.089 663.964 216.876 666.839 217.982C667.4 218.197 667.887 220.845 668.46 221.052C667.136 212.208 665.138 200.617 667.218 192.113C668.128 188.397 665.738 185.125 660.485 183.732C656.812 182.755 639.866 173.951 636.132 174.11C632.672 174.255 631.835 178.015 631.684 183.078C631.404 192.571 632.381 204.107 635.235 213.406Z" fill="#26E4EE"/>
<path d="M667.916 190.617C668.086 189.198 668.047 187.762 667.801 186.355C667.533 185.68 662.966 184.98 662.407 184.475C658.398 180.86 662.886 184.251 657.632 182.854C657.299 182.766 653.844 178.177 653.509 178.089C653.443 179.649 650.82 175.312 650.416 176.802C649.376 180.593 648.812 181.742 648.576 185.772C648.398 188.789 650.305 191.055 651.301 193.842C646.13 192.598 652.743 203.182 653.44 203.015C652.38 203.27 652.644 204.755 653.123 205.727C654.929 209.4 656.736 213.072 658.543 216.745C659.153 217.006 659.439 217.392 660.047 217.656C660.675 217.927 661.524 217.85 662.182 218.114C662.696 218.315 663.012 218.855 663.538 219.052C663.84 219.167 664.139 218.912 664.445 219.024C664.751 219.137 665.074 219.617 665.386 219.73C665.927 219.924 666.417 219.677 666.953 219.869C667.441 220.043 669.348 221.427 669.829 221.6C668.506 212.756 665.139 200.394 667.221 191.889C668.125 188.17 667.36 194.414 667.916 190.617Z" fill="#1BC1D7"/>
<path d="M570.778 39.6626L576.277 37.2238C578.848 36.7576 579.973 37.2937 582.545 36.8263C582.225 37.3166 588.979 37.202 592.812 37.9947C593.47 38.1311 606.877 40.0567 607.098 40.445C607.319 40.8333 617.541 44.1438 622.822 45.9835C622.471 46.0555 622.149 46.2293 621.897 46.4832C621.644 46.737 621.472 47.0597 621.402 47.4108L629.622 53.978L628.913 55.3068C631.297 56.5538 633.485 58.1431 635.409 60.024C637.654 62.1272 639.698 64.4354 641.737 66.739C649.171 75.1367 655.996 87.9171 663.429 96.3159C656.818 87.4463 646.45 68.5008 643.397 64.4331C636.168 54.4702 627.588 45.5624 617.903 37.9661C615.058 35.6511 612.043 33.5542 608.882 31.6933C610.601 31.6509 612.485 31.5616 614.495 31.3943C611.317 30.2626 608.274 30.0816 604.759 29.4939L604.752 29.4012C606.231 29.0518 608.356 29.1594 609.677 28.5397C605.315 27.967 595.864 25.4469 588.503 24.5797C585.883 24.2207 583.243 24.0294 580.599 24.007C563.508 23.8386 556.327 26.7206 548.639 33.6189C545.738 36.1753 543.508 39.4041 542.144 43.0224C549.145 45.7521 548.935 51.0787 555.1 47.4601C558.307 45.5883 571.108 38.7175 570.778 39.6626Z" fill="#26E4EE"/>
<path d="M590.033 42.9521C590.452 37.1608 586.796 32.1771 581.867 31.8206C576.938 31.4642 572.603 35.8701 572.185 41.6614C571.766 47.4527 575.422 52.4364 580.351 52.7928C585.279 53.1492 589.614 48.7434 590.033 42.9521Z" fill="#26C9DA"/>
<path d="M588.952 43.6152C589.371 37.8239 585.715 32.8402 580.787 32.4838C575.858 32.1274 571.523 36.5332 571.104 42.3245C570.685 48.1158 574.341 53.0995 579.27 53.4559C584.199 53.8124 588.534 49.4065 588.952 43.6152Z" fill="#B6F7FA"/>
<path d="M588.548 43.2108C588.891 38.4644 585.895 34.3799 581.855 34.0878C577.816 33.7957 574.263 37.4066 573.919 42.153C573.576 46.8993 576.573 50.9838 580.612 51.2759C584.652 51.5681 588.205 47.9572 588.548 43.2108Z" fill="#453772"/>
<path d="M577.171 37.3832C578.026 37.3832 578.719 36.6904 578.719 35.8357C578.719 34.981 578.026 34.2881 577.171 34.2881C576.316 34.2881 575.624 34.981 575.624 35.8357C575.624 36.6904 576.316 37.3832 577.171 37.3832Z" fill="white"/>
<path d="M584.328 47.6502C584.421 46.3699 583.021 45.2254 581.202 45.0938C579.383 44.9623 577.833 45.8935 577.74 47.1738C577.648 48.4541 579.047 49.5986 580.867 49.7302C582.686 49.8617 584.236 48.9305 584.328 47.6502Z" fill="#5371A0"/>
<path d="M626.698 107.034C626.473 111.407 625.353 115.687 623.408 119.61C621.462 123.532 618.733 127.014 615.388 129.84C614.714 130.293 614.179 130.925 613.842 131.665C613.709 132.334 613.822 133.028 614.162 133.62C614.501 134.212 615.044 134.66 615.689 134.883C616.996 135.286 618.384 135.355 619.725 135.084C620.171 135.972 620.823 136.74 621.626 137.325C622.034 137.604 622.527 137.733 623.021 137.689C623.514 137.645 623.976 137.432 624.329 137.084C624.739 136.577 624.798 135.856 625.185 135.332C625.802 134.497 627.012 134.415 627.883 133.849C628.713 133.183 629.331 132.288 629.66 131.275C631.229 127.66 632.831 123.715 631.871 119.888C633.1 120.044 633.942 118.582 633.933 117.344C633.734 116.124 633.634 114.89 633.633 113.654C633.74 112.978 634.047 112.352 634.217 111.689C634.492 110.012 634.332 108.292 633.753 106.694C633.025 103.996 629.275 88.1585 625.128 88.4976C622.141 88.7358 626.828 104.198 626.698 107.034Z" fill="#26E4EE"/>
<path d="M641.467 133.741C640.99 136.511 640.335 139.248 639.507 141.935C638.705 144.362 637.615 146.687 636.772 149.102C635.362 153.579 634.369 158.177 633.806 162.837L636.838 163.359C636.784 163.936 636.905 164.515 637.184 165.023C637.463 165.531 637.888 165.943 638.404 166.206C639.445 166.713 640.579 167.002 641.736 167.053C642.614 163.865 643.493 160.675 644.237 157.453C644.944 154.389 645.529 151.296 645.962 148.181C647.749 133.84 647.469 119.317 645.132 105.055C644.268 106.597 644.763 109.039 644.7 110.803C644.606 113.463 644.362 116.116 644.031 118.755C643.402 123.786 642.435 128.767 641.467 133.741Z" fill="#1BC1D7"/>
<path d="M510.634 120.455C507.981 120.59 496.494 122.444 496.742 125.099C496.993 127.789 501.335 130.483 507.015 131.437C506.847 134.799 511.451 135.604 511.451 135.604C511.301 136.691 511.531 137.795 512.102 138.732C512.659 139.573 513.456 140.226 514.389 140.608C515.323 140.989 516.349 141.081 517.336 140.87C516.979 141.659 516.895 142.545 517.098 143.387C517.301 144.228 517.778 144.979 518.455 145.519C521.953 148.268 529.617 146.977 533.226 145.819C537.043 144.594 540.757 142.897 544.144 141.838C551.11 139.662 549.661 140.515 549.661 140.515L548.805 135.138C548.805 135.138 543.733 119.461 541.76 119.913C534.825 121.503 524.106 119.764 510.634 120.455Z" fill="#9000A6"/>
<path d="M517.335 138.986C516.349 139.196 515.322 139.104 514.388 138.722C513.455 138.341 512.658 137.687 512.101 136.846C511.531 135.909 511.301 134.805 511.451 133.719C511.451 133.719 506.847 132.917 507.014 129.552C502.088 128.72 498.176 126.588 497.057 124.283C496.951 124.394 496.869 124.525 496.814 124.669C496.76 124.813 496.735 124.966 496.741 125.119C496.992 127.808 501.335 130.496 507.014 131.457C506.847 134.818 511.451 135.623 511.451 135.623C511.301 136.71 511.531 137.814 512.101 138.751C512.62 139.548 513.358 140.179 514.226 140.569C515.094 140.959 516.055 141.091 516.996 140.949C516.958 140.277 517.074 139.606 517.335 138.986V138.986Z" fill="#670082"/>
<path d="M544.144 139.959C540.756 141.017 537.042 142.714 533.226 143.938C529.616 145.097 521.953 146.388 518.455 143.639C517.787 143.14 517.309 142.428 517.102 141.621C516.911 142.335 516.938 143.09 517.179 143.789C517.42 144.488 517.864 145.099 518.455 145.544C521.953 148.293 529.616 147.001 533.226 145.843C537.043 144.619 540.756 142.922 544.144 141.862C545.929 141.214 547.766 140.715 549.634 140.373L549.337 138.504C547.581 138.894 545.847 139.38 544.144 139.959V139.959Z" fill="#670082"/>
<path d="M549.631 140.373L549.657 140.535C549.657 140.535 549.949 140.363 549.631 140.373Z" fill="#670082"/>
<path d="M509.187 129.993C509.187 129.993 507.6 133.642 513.625 133.532C513.33 134.152 513.198 134.836 513.242 135.521C513.286 136.206 513.504 136.869 513.876 137.445C515.423 139.668 519.202 138.976 519.202 138.976C519.202 138.976 518.514 141.946 522.052 142.7C525.551 143.444 531.273 141.325 536.51 139.078C541.748 136.83 543.383 136.09 549.002 135.36C549.696 134.781 543.962 117.888 542.679 117.988C536.493 118.469 531.083 118.548 519.54 119.236C513.109 119.621 505.003 120.21 502.822 120.468C493.731 121.541 496.636 126.565 499.411 127.975C502.606 129.605 509.187 129.993 509.187 129.993Z" fill="#B61AC0"/>
<path d="M597.806 165.708L598.952 163.263C599.732 163.896 600.637 164.356 601.608 164.613C601.956 163.307 602.092 161.953 602.012 160.604C602.819 160.7 603.595 160.971 604.287 161.399C604.436 160.66 604.584 159.921 604.732 159.182L606.778 159.827L606.265 151.911C606.155 150.206 606.045 148.501 605.934 146.796C605.532 140.586 614.231 144.928 613.829 138.718C613.808 138.394 614.708 129.63 614.136 126.936C613.744 125.093 611.845 129.09 611.743 128.687C611.072 125.668 610.23 122.689 609.223 119.765C608.41 117.655 607.516 121.827 607.481 121.301C606.768 119.493 602.561 110.305 601.847 108.496C600.771 105.771 600.103 112.124 599.028 109.399L594.701 98.4452L592.707 99.2779C588.641 93.9868 585.747 85.5513 580.127 81.7299C574.507 77.9085 565.496 77.2625 559.337 79.7184C559.146 79.7952 558.954 79.8765 558.764 79.9635C562.352 84.4413 565.589 91.3316 568.043 96.0007C572.13 103.796 577.531 141.916 588.471 160.399C589.204 160.87 589.911 161.38 590.589 161.928C592.702 163.682 595.161 164.971 597.806 165.708V165.708Z" fill="#26E4EE"/>
<path d="M594.473 138.666C592.765 139.737 589.646 141.969 589.108 143.912C588.072 147.664 592.821 147.596 593.902 148.876C594.638 149.747 593.013 152.958 594.854 155.362C597.481 158.799 599.878 158.385 601.342 159.563C602.129 160.508 601.646 162.397 602.341 164.157C602.659 165.241 603.267 166.217 604.099 166.98C604.931 167.744 605.955 168.266 607.062 168.49C608.159 168.807 609.424 168.883 610.203 169.718C610.89 170.455 610.489 172.689 613.188 174.502C616.052 176.426 617.937 174.778 619.333 175.648C621.131 176.774 621.738 178.877 624.357 178.998C626.419 179.095 628.321 176.492 629.27 174.655C634.338 164.845 634.301 152.962 639.694 143.331C639.24 143.701 638.708 143.963 638.137 144.095C637.567 144.227 636.973 144.226 636.403 144.093C635.833 143.959 635.301 143.697 634.848 143.325C634.396 142.953 634.034 142.483 633.792 141.949C633.658 141.36 633.436 140.793 633.135 140.269C632.373 139.279 630.874 139.451 629.65 139.201C628.736 138.998 627.906 138.519 627.271 137.83C626.636 137.141 626.227 136.275 626.099 135.347C626.15 134.539 625.97 133.733 625.58 133.024C624.924 132.235 623.712 132.371 622.703 132.191C621.595 131.866 620.622 131.191 619.932 130.266C619.241 129.341 618.87 128.217 618.873 127.062C617.475 127.419 615.353 128.648 613.906 129.172C611.581 130.016 609.29 130.944 607.033 131.956C602.698 133.903 598.501 136.145 594.473 138.666V138.666Z" fill="#9000A6"/>
<path d="M612.896 174.701C615.891 176.327 617.936 174.777 619.333 175.65C621.131 176.776 621.738 178.879 624.357 179C626.419 179.097 628.322 176.494 629.27 174.657C634.338 164.847 634.3 152.964 639.694 143.333C639.243 143.725 638.701 143.999 638.117 144.129C637.533 144.259 636.926 144.243 636.35 144.08C632.841 152.831 632.254 162.798 627.897 171.228C626.948 173.061 625.049 175.668 622.984 175.572C620.367 175.451 619.758 173.347 617.959 172.222C617.272 171.794 615.889 172.671 614.268 172.312C612.951 171.892 611.727 171.219 610.667 170.331C610.515 171.203 610.651 172.1 611.053 172.888C611.454 173.676 612.101 174.313 612.896 174.701V174.701Z" fill="#670082"/>
<path d="M602.848 159.203C603.088 156.622 603.83 154.113 605.032 151.817C604.624 151.941 604.215 152.059 603.803 152.168C602.347 152.556 600.643 152.799 599.465 151.859C598.952 151.372 598.596 150.743 598.442 150.052C598.288 149.362 598.342 148.641 598.598 147.982C599.133 146.672 599.93 145.485 600.938 144.492C599.899 145.14 598.721 145.532 597.502 145.638C596.892 145.675 596.288 145.501 595.792 145.145C595.296 144.789 594.937 144.273 594.777 143.684C594.533 142.124 596.137 140.963 597.535 140.229C604.728 136.449 612.189 132.669 619.944 130.415C619.157 129.475 618.737 128.281 618.762 127.054C617.364 127.411 615.241 128.64 613.794 129.164C611.47 130.008 609.179 130.936 606.921 131.948C602.584 133.894 598.386 136.135 594.356 138.655C592.649 139.725 589.529 141.957 588.993 143.9C587.956 147.653 591.844 148.292 592.925 149.573C593.66 150.442 593.102 152.802 594.738 155.351C596.636 158.307 599.408 158.476 600.872 159.653C601.66 160.598 601.54 162.382 602.226 164.146C602.513 164.855 602.913 165.513 603.411 166.093C602.869 163.839 602.679 161.515 602.848 159.203V159.203Z" fill="#B61AC0"/>
<path d="M560.912 44.3313C562.516 47.997 565.134 47.777 567.612 50.9203C570.802 54.9674 576.808 55.0441 579.611 55.8723C586.326 57.8517 586.942 63.089 587.199 66.9551C588.033 79.4732 575.722 91.8218 566.878 91.7359C565.045 91.7175 563.724 90.8424 562.272 89.0004C560.059 85.8195 558.027 82.5171 556.184 79.1089C556.184 79.1089 555.599 64.8863 553.708 65.0719C543.627 66.065 526.915 66.9047 512.011 67.8131C495.235 68.4431 481.701 69.1064 479.78 62.0707C478.453 57.2045 487.518 55.0831 492.538 54.5779C503.678 53.4691 531.28 52.9307 539.476 48.3498C544.872 45.3325 558.528 38.8879 560.912 44.3313Z" fill="#CC00A4"/>
<path d="M495.191 58.9841C503.932 58.2636 522.579 57.4217 533.423 56.1479C548.544 54.3712 560.778 53.055 567.141 51.5429C568.537 51.213 566.254 49.5452 564.232 46.2072C563.05 44.2598 560.661 36.6365 555.661 35.0648C553.415 34.1901 550.95 34.0474 548.617 34.657C542.546 36.4154 539.803 47.001 532.274 49.8923C527.796 51.6105 502.95 52.6839 491.907 54.5224C478.015 56.8352 479.714 62.1091 479.714 62.1091C479.714 62.1091 482.723 60.0128 495.191 58.9841Z" fill="#EF00C3"/>
<path d="M568.686 77.7991C565.216 73.7176 559.419 69.3509 553.186 69.1287C550.541 69.0348 529.52 76.7704 527.069 76.0292C525.586 75.6072 524.048 75.411 522.507 75.4473C518.226 75.9788 515.11 76.7074 515.231 77.8094C516.053 85.2552 555.998 79.491 555.998 79.491C555.998 79.491 560.247 86.2242 562.446 89.0136C563.899 90.8555 565.225 91.8086 567.053 91.749C570.321 91.6413 572.126 90.3996 573.9 89.584C573.428 85.2097 571.605 81.0908 568.686 77.7991V77.7991Z" fill="#EF00C3"/>
<path d="M570.901 64.5761C568.839 66.6758 564.674 68.5647 553.455 71.8718C548.11 73.4469 517.119 79.2936 515.309 77.5169C515.309 77.5169 514.467 75.3003 543.545 65.7766C543.545 65.7766 551.181 65.1523 557.086 64.15C562.849 63.1706 569.662 61.891 572.76 60.9368C572.597 62.3338 571.937 63.6255 570.901 64.5761Z" fill="#88007F"/>
<path d="M522.261 122.34C522.261 122.34 517.123 125.823 517.518 128.852C517.518 128.852 517.321 135.063 525.88 131.731C525.88 131.731 533.258 127.338 534.97 126.732" fill="#9000A6"/>
<path d="M523.315 119.689C523.315 119.689 518.177 123.173 518.572 126.201C518.572 126.201 519.626 131.2 528.195 127.868C528.195 127.868 532.015 126.201 533.728 125.595" fill="#B61AC0"/>
<path d="M541.247 117.987C541.056 117.994 540.871 118.053 540.712 118.159C540.595 118.28 540.508 118.427 540.458 118.588C540.409 118.748 540.399 118.919 540.428 119.085C540.669 121.49 544.536 121.775 544.473 124.192C544.453 124.932 544.015 125.585 543.952 126.322C543.953 126.834 544.07 127.339 544.294 127.8C544.518 128.261 544.842 128.666 545.244 128.984C546.039 129.576 546.717 130.309 547.246 131.147C548.076 132.831 547.354 134.921 547.355 136.857C547.355 137.969 547.609 139.066 548.098 140.065C548.18 140.27 548.32 140.448 548.503 140.573C548.663 140.644 548.841 140.669 549.015 140.644C551.786 140.498 552.451 139.774 556.774 138.468C554.353 135.307 553.468 131.224 552.536 127.15C552.178 125.163 551.602 123.221 550.818 121.361C548.54 116.591 545.247 117.498 541.247 117.987Z" fill="#26E4EE"/>
<path d="M554.865 132.469C554.865 132.469 550.846 133.661 547.553 134.267C547.553 134.267 546.159 138.974 548.503 140.578C548.503 140.578 549.014 140.832 550.715 140.455C551.523 140.276 552.734 139.864 554.22 139.399C555.116 139.12 556.246 138.744 557.63 138.319L560.068 136.349L554.865 132.469Z" fill="#1BC1D7"/>
<path d="M692.175 167.548C692.175 167.548 696.238 176.942 713.253 180.372C713.253 180.372 724.68 182.091 730.206 182.663C730.206 182.663 727.095 178.029 719.032 175.425C719.031 175.42 693.699 167.993 692.175 167.548Z" fill="#26E4EE"/>
<path d="M497.077 136.985C494.458 142.913 503.368 144.497 503.368 144.497C503.368 144.497 501.543 148.595 504.44 150.757C509.199 154.307 522.663 146.643 528.015 144.696C531.157 143.551 533.061 142.888 539.439 141.079C540.132 140.499 540.296 118.899 530.966 119.279C523.085 119.601 524.688 118.778 513.806 118.754C507.366 118.74 493.546 117.594 491.363 117.851C487.419 118.318 485.842 120.612 486.985 123.373C488.337 126.642 492.506 128.418 492.506 128.418C492.506 128.418 487.604 134.728 497.077 136.985Z" fill="#B61AC0"/>
<path d="M525.654 142.084C520.302 144.03 509.675 153.267 504.915 149.713C502.019 147.55 503.843 143.453 503.843 143.453C503.843 143.453 494.935 141.868 497.553 135.942C491.771 134.568 491.347 131.676 491.894 129.636C490.995 131.582 490.302 135.35 497.173 136.988C494.553 142.916 503.463 144.5 503.463 144.5C503.463 144.5 501.638 148.598 504.535 150.76C509.294 154.309 522.758 146.646 528.11 144.699C531.252 143.554 533.157 142.891 539.535 141.082C539.615 141.014 539.698 137.953 539.751 137.386C533.518 139.155 528.765 140.952 525.654 142.084Z" fill="#670082"/>
<path d="M492.985 127.374C492.985 127.374 488.816 125.597 487.463 122.329C487.157 121.629 487.055 120.857 487.17 120.102C486.896 120.601 486.746 121.159 486.73 121.728C486.715 122.297 486.836 122.862 487.082 123.375C488.257 126.215 491.555 127.927 492.401 128.328C492.568 127.994 492.764 127.675 492.985 127.374V127.374Z" fill="#670082"/>
<path d="M488.891 118.521L508.12 151.458C509.534 151.553 510.953 151.392 512.309 150.982L491.842 117.949C490.827 117.906 489.816 118.101 488.891 118.521Z" fill="#9000A6"/>
<g clip-path="url(#clip2_2063_34160)">
<path d="M488.237 112.305L522.17 85.9035L550.022 134.027L516.089 160.428L488.237 112.305Z" fill="#4D5BD9"/>
<path d="M528.787 87.732L522.15 88.0787L490.168 113.113L494.783 115.589L528.787 87.7319L528.787 87.732Z" fill="#FFFAED"/>
<path d="M495.797 112.062L529.73 85.6602L557.582 133.783L523.649 160.185L495.797 112.062Z" fill="#364098"/>
<path d="M488.237 112.305C488.237 112.305 490.454 111.89 492.344 111.829C494.234 111.768 495.798 112.062 495.798 112.062L523.649 160.183C523.649 160.183 521.101 161.023 519.21 161.084C517.32 161.145 516.088 160.427 516.088 160.427L488.237 112.305Z" fill="#4D5BD9"/>
<g filter="url(#filter0_dd_2063_34160)">
<path d="M525.287 129.789C525.595 129.141 524.935 128.18 523.814 127.645C522.692 127.109 521.534 127.2 521.226 127.848C520.919 128.497 521.578 129.457 522.7 129.993C523.821 130.529 524.979 130.438 525.287 129.789Z" fill="#F26E7E"/>
</g>
<g filter="url(#filter1_dd_2063_34160)">
<path d="M535.016 121.519C534.916 120.28 534.255 119.321 533.539 119.377C532.824 119.432 532.325 120.482 532.425 121.721C532.525 122.959 533.186 123.918 533.902 123.863C534.617 123.807 535.116 122.757 535.016 121.519Z" fill="#A15CA7"/>
</g>
<g filter="url(#filter2_dd_2063_34160)">
<path d="M530.166 129.412C530.473 128.764 529.814 127.804 528.693 127.268C527.571 126.732 526.413 126.823 526.105 127.471C525.798 128.12 526.457 129.08 527.578 129.616C528.7 130.152 529.858 130.061 530.166 129.412Z" fill="#F26E7E"/>
</g>
<g filter="url(#filter3_dd_2063_34160)">
<path d="M532.92 125.937C532.819 124.698 532.158 123.739 531.443 123.795C530.727 123.851 530.228 124.9 530.328 126.139C530.428 127.378 531.089 128.337 531.805 128.281C532.521 128.225 533.02 127.176 532.92 125.937Z" fill="#A15CA7"/>
</g>
<g filter="url(#filter4_dd_2063_34160)">
<path d="M522.968 117.203C523.99 116.501 524.487 115.45 524.079 114.857C523.671 114.265 522.512 114.354 521.491 115.057C520.47 115.759 519.973 116.81 520.381 117.403C520.789 117.995 521.947 117.906 522.968 117.203Z" fill="#F7BF2A"/>
</g>
<g filter="url(#filter5_dd_2063_34160)">
<path d="M522.503 125.747C522.811 125.098 522.151 124.138 521.03 123.602C519.909 123.066 518.75 123.158 518.443 123.806C518.135 124.455 518.795 125.415 519.916 125.951C521.037 126.487 522.195 126.395 522.503 125.747Z" fill="#F26E7E"/>
</g>
<g filter="url(#filter6_dd_2063_34160)">
<path d="M520.871 121.62C521.892 120.917 522.389 119.867 521.981 119.274C521.573 118.681 520.415 118.77 519.393 119.473C518.372 120.176 517.875 121.226 518.283 121.819C518.691 122.412 519.85 122.322 520.871 121.62Z" fill="#F7BF2A"/>
</g>
<g filter="url(#filter7_dd_2063_34160)">
<path d="M532.232 117.478C532.132 116.239 531.471 115.28 530.755 115.336C530.039 115.392 529.541 116.441 529.641 117.68C529.741 118.918 530.402 119.877 531.117 119.822C531.833 119.766 532.332 118.717 532.232 117.478Z" fill="#A15CA7"/>
</g>
<g filter="url(#filter8_dd_2063_34160)">
<path d="M527.847 116.818C528.869 116.116 529.366 115.065 528.958 114.472C528.55 113.88 527.391 113.969 526.37 114.672C525.349 115.374 524.852 116.425 525.26 117.017C525.668 117.61 526.826 117.521 527.847 116.818Z" fill="#F7BF2A"/>
</g>
<g filter="url(#filter9_dd_2063_34160)">
<path d="M527.382 125.37C527.69 124.721 527.03 123.761 525.909 123.225C524.788 122.689 523.629 122.781 523.322 123.429C523.014 124.078 523.674 125.038 524.795 125.574C525.916 126.11 527.074 126.018 527.382 125.37Z" fill="#F26E7E"/>
</g>
<g filter="url(#filter10_dd_2063_34160)">
<path d="M530.136 121.896C530.036 120.657 529.375 119.698 528.659 119.754C527.943 119.81 527.444 120.859 527.544 122.098C527.644 123.337 528.306 124.296 529.021 124.24C529.737 124.184 530.236 123.135 530.136 121.896Z" fill="#A15CA7"/>
</g>
<g filter="url(#filter11_dd_2063_34160)">
<path d="M525.748 121.242C526.769 120.54 527.267 119.489 526.859 118.896C526.451 118.304 525.292 118.393 524.271 119.096C523.25 119.798 522.753 120.849 523.161 121.441C523.569 122.034 524.727 121.945 525.748 121.242Z" fill="#F7BF2A"/>
</g>
</g>
</g>
<defs>
<filter id="filter0_dd_2063_34160" x="519.151" y="125.295" width="8.21143" height="7.04669" filterUnits="userSpaceOnUse" color-interpolation-filters="sRGB">
<feFlood flood-opacity="0" result="BackgroundImageFix"/>
<feColorMatrix in="SourceAlpha" type="matrix" values="0 0 0 0 0 0 0 0 0 0 0 0 0 0 0 0 0 0 127 0" result="hardAlpha"/>
<feOffset dx="-0.5" dy="0.5"/>
<feComposite in2="hardAlpha" operator="out"/>
<feColorMatrix type="matrix" values="0 0 0 0 0.25098 0 0 0 0 0.176471 0 0 0 0 0.384314 0 0 0 1 0"/>
<feBlend mode="normal" in2="BackgroundImageFix" result="effect1_dropShadow_2063_34160"/>
<feColorMatrix in="SourceAlpha" type="matrix" values="0 0 0 0 0 0 0 0 0 0 0 0 0 0 0 0 0 0 127 0" result="hardAlpha"/>
<feOffset/>
<feGaussianBlur stdDeviation="1"/>
<feComposite in2="hardAlpha" operator="out"/>
<feColorMatrix type="matrix" values="0 0 0 0 0.25098 0 0 0 0 0.176471 0 0 0 0 0.384314 0 0 0 1 0"/>
<feBlend mode="normal" in2="effect1_dropShadow_2063_34160" result="effect2_dropShadow_2063_34160"/>
<feBlend mode="normal" in="SourceGraphic" in2="effect2_dropShadow_2063_34160" result="shape"/>
</filter>
<filter id="filter1_dd_2063_34160" x="530.412" y="117.375" width="6.6167" height="8.49036" filterUnits="userSpaceOnUse" color-interpolation-filters="sRGB">
<feFlood flood-opacity="0" result="BackgroundImageFix"/>
<feColorMatrix in="SourceAlpha" type="matrix" values="0 0 0 0 0 0 0 0 0 0 0 0 0 0 0 0 0 0 127 0" result="hardAlpha"/>
<feOffset dx="-0.5" dy="0.5"/>
<feComposite in2="hardAlpha" operator="out"/>
<feColorMatrix type="matrix" values="0 0 0 0 0.25098 0 0 0 0 0.176471 0 0 0 0 0.384314 0 0 0 1 0"/>
<feBlend mode="normal" in2="BackgroundImageFix" result="effect1_dropShadow_2063_34160"/>
<feColorMatrix in="SourceAlpha" type="matrix" values="0 0 0 0 0 0 0 0 0 0 0 0 0 0 0 0 0 0 127 0" result="hardAlpha"/>
<feOffset/>
<feGaussianBlur stdDeviation="1"/>
<feComposite in2="hardAlpha" operator="out"/>
<feColorMatrix type="matrix" values="0 0 0 0 0.25098 0 0 0 0 0.176471 0 0 0 0 0.384314 0 0 0 1 0"/>
<feBlend mode="normal" in2="effect1_dropShadow_2063_34160" result="effect2_dropShadow_2063_34160"/>
<feBlend mode="normal" in="SourceGraphic" in2="effect2_dropShadow_2063_34160" result="shape"/>
</filter>
<filter id="filter2_dd_2063_34160" x="524.03" y="124.919" width="8.21143" height="7.04669" filterUnits="userSpaceOnUse" color-interpolation-filters="sRGB">
<feFlood flood-opacity="0" result="BackgroundImageFix"/>
<feColorMatrix in="SourceAlpha" type="matrix" values="0 0 0 0 0 0 0 0 0 0 0 0 0 0 0 0 0 0 127 0" result="hardAlpha"/>
<feOffset dx="-0.5" dy="0.5"/>
<feComposite in2="hardAlpha" operator="out"/>
<feColorMatrix type="matrix" values="0 0 0 0 0.25098 0 0 0 0 0.176471 0 0 0 0 0.384314 0 0 0 1 0"/>
<feBlend mode="normal" in2="BackgroundImageFix" result="effect1_dropShadow_2063_34160"/>
<feColorMatrix in="SourceAlpha" type="matrix" values="0 0 0 0 0 0 0 0 0 0 0 0 0 0 0 0 0 0 127 0" result="hardAlpha"/>
<feOffset/>
<feGaussianBlur stdDeviation="1"/>
<feComposite in2="hardAlpha" operator="out"/>
<feColorMatrix type="matrix" values="0 0 0 0 0.25098 0 0 0 0 0.176471 0 0 0 0 0.384314 0 0 0 1 0"/>
<feBlend mode="normal" in2="effect1_dropShadow_2063_34160" result="effect2_dropShadow_2063_34160"/>
<feBlend mode="normal" in="SourceGraphic" in2="effect2_dropShadow_2063_34160" result="shape"/>
</filter>
<filter id="filter3_dd_2063_34160" x="528.315" y="121.793" width="6.6167" height="8.49048" filterUnits="userSpaceOnUse" color-interpolation-filters="sRGB">
<feFlood flood-opacity="0" result="BackgroundImageFix"/>
<feColorMatrix in="SourceAlpha" type="matrix" values="0 0 0 0 0 0 0 0 0 0 0 0 0 0 0 0 0 0 127 0" result="hardAlpha"/>
<feOffset dx="-0.5" dy="0.5"/>
<feComposite in2="hardAlpha" operator="out"/>
<feColorMatrix type="matrix" values="0 0 0 0 0.25098 0 0 0 0 0.176471 0 0 0 0 0.384314 0 0 0 1 0"/>
<feBlend mode="normal" in2="BackgroundImageFix" result="effect1_dropShadow_2063_34160"/>
<feColorMatrix in="SourceAlpha" type="matrix" values="0 0 0 0 0 0 0 0 0 0 0 0 0 0 0 0 0 0 127 0" result="hardAlpha"/>
<feOffset/>
<feGaussianBlur stdDeviation="1"/>
<feComposite in2="hardAlpha" operator="out"/>
<feColorMatrix type="matrix" values="0 0 0 0 0.25098 0 0 0 0 0.176471 0 0 0 0 0.384314 0 0 0 1 0"/>
<feBlend mode="normal" in2="effect1_dropShadow_2063_34160" result="effect2_dropShadow_2063_34160"/>
<feBlend mode="normal" in="SourceGraphic" in2="effect2_dropShadow_2063_34160" result="shape"/>
</filter>
<filter id="filter4_dd_2063_34160" x="518.238" y="112.465" width="7.9834" height="7.32959" filterUnits="userSpaceOnUse" color-interpolation-filters="sRGB">
<feFlood flood-opacity="0" result="BackgroundImageFix"/>
<feColorMatrix in="SourceAlpha" type="matrix" values="0 0 0 0 0 0 0 0 0 0 0 0 0 0 0 0 0 0 127 0" result="hardAlpha"/>
<feOffset dx="-0.5" dy="0.5"/>
<feComposite in2="hardAlpha" operator="out"/>
<feColorMatrix type="matrix" values="0 0 0 0 0.25098 0 0 0 0 0.176471 0 0 0 0 0.384314 0 0 0 1 0"/>
<feBlend mode="normal" in2="BackgroundImageFix" result="effect1_dropShadow_2063_34160"/>
<feColorMatrix in="SourceAlpha" type="matrix" values="0 0 0 0 0 0 0 0 0 0 0 0 0 0 0 0 0 0 127 0" result="hardAlpha"/>
<feOffset/>
<feGaussianBlur stdDeviation="1"/>
<feComposite in2="hardAlpha" operator="out"/>
<feColorMatrix type="matrix" values="0 0 0 0 0.25098 0 0 0 0 0.176471 0 0 0 0 0.384314 0 0 0 1 0"/>
<feBlend mode="normal" in2="effect1_dropShadow_2063_34160" result="effect2_dropShadow_2063_34160"/>
<feBlend mode="normal" in="SourceGraphic" in2="effect2_dropShadow_2063_34160" result="shape"/>
</filter>
<filter id="filter5_dd_2063_34160" x="516.367" y="121.253" width="8.21143" height="7.04675" filterUnits="userSpaceOnUse" color-interpolation-filters="sRGB">
<feFlood flood-opacity="0" result="BackgroundImageFix"/>
<feColorMatrix in="SourceAlpha" type="matrix" values="0 0 0 0 0 0 0 0 0 0 0 0 0 0 0 0 0 0 127 0" result="hardAlpha"/>
<feOffset dx="-0.5" dy="0.5"/>
<feComposite in2="hardAlpha" operator="out"/>
<feColorMatrix type="matrix" values="0 0 0 0 0.25098 0 0 0 0 0.176471 0 0 0 0 0.384314 0 0 0 1 0"/>
<feBlend mode="normal" in2="BackgroundImageFix" result="effect1_dropShadow_2063_34160"/>
<feColorMatrix in="SourceAlpha" type="matrix" values="0 0 0 0 0 0 0 0 0 0 0 0 0 0 0 0 0 0 127 0" result="hardAlpha"/>
<feOffset/>
<feGaussianBlur stdDeviation="1"/>
<feComposite in2="hardAlpha" operator="out"/>
<feColorMatrix type="matrix" values="0 0 0 0 0.25098 0 0 0 0 0.176471 0 0 0 0 0.384314 0 0 0 1 0"/>
<feBlend mode="normal" in2="effect1_dropShadow_2063_34160" result="effect2_dropShadow_2063_34160"/>
<feBlend mode="normal" in="SourceGraphic" in2="effect2_dropShadow_2063_34160" result="shape"/>
</filter>
<filter id="filter6_dd_2063_34160" x="516.141" y="116.881" width="7.9834" height="7.32959" filterUnits="userSpaceOnUse" color-interpolation-filters="sRGB">
<feFlood flood-opacity="0" result="BackgroundImageFix"/>
<feColorMatrix in="SourceAlpha" type="matrix" values="0 0 0 0 0 0 0 0 0 0 0 0 0 0 0 0 0 0 127 0" result="hardAlpha"/>
<feOffset dx="-0.5" dy="0.5"/>
<feComposite in2="hardAlpha" operator="out"/>
<feColorMatrix type="matrix" values="0 0 0 0 0.25098 0 0 0 0 0.176471 0 0 0 0 0.384314 0 0 0 1 0"/>
<feBlend mode="normal" in2="BackgroundImageFix" result="effect1_dropShadow_2063_34160"/>
<feColorMatrix in="SourceAlpha" type="matrix" values="0 0 0 0 0 0 0 0 0 0 0 0 0 0 0 0 0 0 127 0" result="hardAlpha"/>
<feOffset/>
<feGaussianBlur stdDeviation="1"/>
<feComposite in2="hardAlpha" operator="out"/>
<feColorMatrix type="matrix" values="0 0 0 0 0.25098 0 0 0 0 0.176471 0 0 0 0 0.384314 0 0 0 1 0"/>
<feBlend mode="normal" in2="effect1_dropShadow_2063_34160" result="effect2_dropShadow_2063_34160"/>
<feBlend mode="normal" in="SourceGraphic" in2="effect2_dropShadow_2063_34160" result="shape"/>
</filter>
<filter id="filter7_dd_2063_34160" x="527.628" y="113.333" width="6.6167" height="8.49042" filterUnits="userSpaceOnUse" color-interpolation-filters="sRGB">
<feFlood flood-opacity="0" result="BackgroundImageFix"/>
<feColorMatrix in="SourceAlpha" type="matrix" values="0 0 0 0 0 0 0 0 0 0 0 0 0 0 0 0 0 0 127 0" result="hardAlpha"/>
<feOffset dx="-0.5" dy="0.5"/>
<feComposite in2="hardAlpha" operator="out"/>
<feColorMatrix type="matrix" values="0 0 0 0 0.25098 0 0 0 0 0.176471 0 0 0 0 0.384314 0 0 0 1 0"/>
<feBlend mode="normal" in2="BackgroundImageFix" result="effect1_dropShadow_2063_34160"/>
<feColorMatrix in="SourceAlpha" type="matrix" values="0 0 0 0 0 0 0 0 0 0 0 0 0 0 0 0 0 0 127 0" result="hardAlpha"/>
<feOffset/>
<feGaussianBlur stdDeviation="1"/>
<feComposite in2="hardAlpha" operator="out"/>
<feColorMatrix type="matrix" values="0 0 0 0 0.25098 0 0 0 0 0.176471 0 0 0 0 0.384314 0 0 0 1 0"/>
<feBlend mode="normal" in2="effect1_dropShadow_2063_34160" result="effect2_dropShadow_2063_34160"/>
<feBlend mode="normal" in="SourceGraphic" in2="effect2_dropShadow_2063_34160" result="shape"/>
</filter>
<filter id="filter8_dd_2063_34160" x="523.117" y="112.08" width="7.98291" height="7.32953" filterUnits="userSpaceOnUse" color-interpolation-filters="sRGB">
<feFlood flood-opacity="0" result="BackgroundImageFix"/>
<feColorMatrix in="SourceAlpha" type="matrix" values="0 0 0 0 0 0 0 0 0 0 0 0 0 0 0 0 0 0 127 0" result="hardAlpha"/>
<feOffset dx="-0.5" dy="0.5"/>
<feComposite in2="hardAlpha" operator="out"/>
<feColorMatrix type="matrix" values="0 0 0 0 0.25098 0 0 0 0 0.176471 0 0 0 0 0.384314 0 0 0 1 0"/>
<feBlend mode="normal" in2="BackgroundImageFix" result="effect1_dropShadow_2063_34160"/>
<feColorMatrix in="SourceAlpha" type="matrix" values="0 0 0 0 0 0 0 0 0 0 0 0 0 0 0 0 0 0 127 0" result="hardAlpha"/>
<feOffset/>
<feGaussianBlur stdDeviation="1"/>
<feComposite in2="hardAlpha" operator="out"/>
<feColorMatrix type="matrix" values="0 0 0 0 0.25098 0 0 0 0 0.176471 0 0 0 0 0.384314 0 0 0 1 0"/>
<feBlend mode="normal" in2="effect1_dropShadow_2063_34160" result="effect2_dropShadow_2063_34160"/>
<feBlend mode="normal" in="SourceGraphic" in2="effect2_dropShadow_2063_34160" result="shape"/>
</filter>
<filter id="filter9_dd_2063_34160" x="521.246" y="120.876" width="8.21143" height="7.04675" filterUnits="userSpaceOnUse" color-interpolation-filters="sRGB">
<feFlood flood-opacity="0" result="BackgroundImageFix"/>
<feColorMatrix in="SourceAlpha" type="matrix" values="0 0 0 0 0 0 0 0 0 0 0 0 0 0 0 0 0 0 127 0" result="hardAlpha"/>
<feOffset dx="-0.5" dy="0.5"/>
<feComposite in2="hardAlpha" operator="out"/>
<feColorMatrix type="matrix" values="0 0 0 0 0.25098 0 0 0 0 0.176471 0 0 0 0 0.384314 0 0 0 1 0"/>
<feBlend mode="normal" in2="BackgroundImageFix" result="effect1_dropShadow_2063_34160"/>
<feColorMatrix in="SourceAlpha" type="matrix" values="0 0 0 0 0 0 0 0 0 0 0 0 0 0 0 0 0 0 127 0" result="hardAlpha"/>
<feOffset/>
<feGaussianBlur stdDeviation="1"/>
<feComposite in2="hardAlpha" operator="out"/>
<feColorMatrix type="matrix" values="0 0 0 0 0.25098 0 0 0 0 0.176471 0 0 0 0 0.384314 0 0 0 1 0"/>
<feBlend mode="normal" in2="effect1_dropShadow_2063_34160" result="effect2_dropShadow_2063_34160"/>
<feBlend mode="normal" in="SourceGraphic" in2="effect2_dropShadow_2063_34160" result="shape"/>
</filter>
<filter id="filter10_dd_2063_34160" x="525.532" y="117.752" width="6.6167" height="8.49036" filterUnits="userSpaceOnUse" color-interpolation-filters="sRGB">
<feFlood flood-opacity="0" result="BackgroundImageFix"/>
<feColorMatrix in="SourceAlpha" type="matrix" values="0 0 0 0 0 0 0 0 0 0 0 0 0 0 0 0 0 0 127 0" result="hardAlpha"/>
<feOffset dx="-0.5" dy="0.5"/>
<feComposite in2="hardAlpha" operator="out"/>
<feColorMatrix type="matrix" values="0 0 0 0 0.25098 0 0 0 0 0.176471 0 0 0 0 0.384314 0 0 0 1 0"/>
<feBlend mode="normal" in2="BackgroundImageFix" result="effect1_dropShadow_2063_34160"/>
<feColorMatrix in="SourceAlpha" type="matrix" values="0 0 0 0 0 0 0 0 0 0 0 0 0 0 0 0 0 0 127 0" result="hardAlpha"/>
<feOffset/>
<feGaussianBlur stdDeviation="1"/>
<feComposite in2="hardAlpha" operator="out"/>
<feColorMatrix type="matrix" values="0 0 0 0 0.25098 0 0 0 0 0.176471 0 0 0 0 0.384314 0 0 0 1 0"/>
<feBlend mode="normal" in2="effect1_dropShadow_2063_34160" result="effect2_dropShadow_2063_34160"/>
<feBlend mode="normal" in="SourceGraphic" in2="effect2_dropShadow_2063_34160" result="shape"/>
</filter>
<filter id="filter11_dd_2063_34160" x="521.018" y="116.504" width="7.9834" height="7.32959" filterUnits="userSpaceOnUse" color-interpolation-filters="sRGB">
<feFlood flood-opacity="0" result="BackgroundImageFix"/>
<feColorMatrix in="SourceAlpha" type="matrix" values="0 0 0 0 0 0 0 0 0 0 0 0 0 0 0 0 0 0 127 0" result="hardAlpha"/>
<feOffset dx="-0.5" dy="0.5"/>
<feComposite in2="hardAlpha" operator="out"/>
<feColorMatrix type="matrix" values="0 0 0 0 0.25098 0 0 0 0 0.176471 0 0 0 0 0.384314 0 0 0 1 0"/>
<feBlend mode="normal" in2="BackgroundImageFix" result="effect1_dropShadow_2063_34160"/>
<feColorMatrix in="SourceAlpha" type="matrix" values="0 0 0 0 0 0 0 0 0 0 0 0 0 0 0 0 0 0 127 0" result="hardAlpha"/>
<feOffset/>
<feGaussianBlur stdDeviation="1"/>
<feComposite in2="hardAlpha" operator="out"/>
<feColorMatrix type="matrix" values="0 0 0 0 0.25098 0 0 0 0 0.176471 0 0 0 0 0.384314 0 0 0 1 0"/>
<feBlend mode="normal" in2="effect1_dropShadow_2063_34160" result="effect2_dropShadow_2063_34160"/>
<feBlend mode="normal" in="SourceGraphic" in2="effect2_dropShadow_2063_34160" result="shape"/>
</filter>
<clipPath id="clip0_2063_34160">
<rect width="700" height="197" rx="4" fill="white"/>
</clipPath>
<clipPath id="clip1_2063_34160">
<rect width="701" height="367" fill="white" transform="translate(-0.00195312)"/>
</clipPath>
<clipPath id="clip2_2063_34160">
<rect width="92.0835" height="92.0835" fill="white" transform="translate(459.998 106.257) rotate(-30.0606)"/>
</clipPath>
</defs>
</svg>
