<svg width="928" height="750" viewBox="0 0 928 750" fill="none" xmlns="http://www.w3.org/2000/svg">
<rect width="928" height="750" fill="white"/>
<rect x="27" y="89" width="874" height="637" rx="9" fill="#F4F4F9"/>
<rect x="516" y="168" width="334" height="61" rx="5" fill="#DBDEF7"/>
<path d="M628.724 205.312C625.58 205.312 623.252 203.752 622.364 201.184L624.284 200.08C624.932 202.12 626.444 203.128 628.772 203.128C631.076 203.128 632.324 202.096 632.324 200.536C632.324 199.744 632.012 199.144 631.412 198.736C630.812 198.328 629.78 197.92 628.364 197.464L626.756 196.936C626.396 196.792 625.916 196.576 625.364 196.312C624.812 196.024 624.404 195.736 624.14 195.448C623.588 194.848 623.084 193.864 623.084 192.64C623.084 191.176 623.588 190.024 624.62 189.184C625.652 188.32 626.9 187.888 628.364 187.888C631.028 187.888 633.068 189.352 634.052 191.56L632.18 192.64C631.46 190.912 630.188 190.048 628.364 190.048C626.54 190.048 625.316 191.008 625.316 192.544C625.316 193.288 625.58 193.84 626.108 194.224C626.636 194.608 627.548 195.016 628.844 195.424L629.828 195.736C630.02 195.808 630.308 195.904 630.716 196.072C631.556 196.384 631.748 196.504 632.396 196.864C633.068 197.224 633.284 197.488 633.692 197.968C634.292 198.568 634.532 199.432 634.532 200.488C634.532 201.952 634.004 203.128 632.924 204.016C631.844 204.88 630.452 205.312 628.724 205.312ZM643.135 193V195.016H639.943V201.52C639.943 203.368 640.999 203.224 643.135 203.128V205C639.487 205.48 637.855 204.496 637.855 201.52V195.016H635.479V193H637.855V190.264L639.943 189.64V193H643.135ZM654.934 195.064V193H657.022V205H654.934V202.936C653.902 204.52 652.39 205.312 650.398 205.312C648.718 205.312 647.278 204.712 646.102 203.488C644.926 202.264 644.326 200.752 644.326 199C644.326 197.248 644.926 195.76 646.102 194.536C647.278 193.312 648.718 192.688 650.398 192.688C652.39 192.688 653.902 193.48 654.934 195.064ZM650.662 203.296C651.886 203.296 652.894 202.888 653.71 202.072C654.526 201.232 654.934 200.224 654.934 199C654.934 197.776 654.526 196.768 653.71 195.952C652.894 195.112 651.886 194.704 650.662 194.704C649.462 194.704 648.454 195.112 647.638 195.952C646.822 196.768 646.414 197.776 646.414 199C646.414 200.224 646.822 201.232 647.638 202.072C648.454 202.888 649.462 203.296 650.662 203.296ZM665.826 205.312C664.026 205.312 662.514 204.712 661.314 203.512C660.114 202.288 659.514 200.8 659.514 199C659.514 197.2 660.114 195.712 661.314 194.512C662.514 193.288 664.026 192.688 665.826 192.688C668.202 192.688 670.194 193.912 671.13 195.832L669.378 196.84C668.778 195.568 667.434 194.728 665.826 194.728C664.626 194.728 663.618 195.136 662.802 195.952C662.01 196.768 661.602 197.776 661.602 199C661.602 200.2 662.01 201.208 662.802 202.024C663.618 202.84 664.626 203.248 665.826 203.248C667.434 203.248 668.778 202.432 669.45 201.16L671.226 202.192C670.194 204.088 668.154 205.312 665.826 205.312ZM677.511 198.808L683.439 205H680.847L675.375 199.312V205H673.287V188.2H675.375V198.304L680.559 193H683.247L677.511 198.808ZM695.917 207.4H693.829C690.301 200.368 690.301 192.832 693.829 185.8H695.917C692.389 192.832 692.389 200.368 695.917 207.4ZM708.043 195.064V188.2H710.131V205H708.043V202.936C707.011 204.52 705.499 205.312 703.507 205.312C701.827 205.312 700.387 204.712 699.211 203.488C698.035 202.264 697.435 200.752 697.435 199C697.435 197.248 698.035 195.76 699.211 194.536C700.387 193.312 701.827 192.688 703.507 192.688C705.499 192.688 707.011 193.48 708.043 195.064ZM703.771 203.296C704.995 203.296 706.003 202.888 706.819 202.072C707.635 201.232 708.043 200.224 708.043 199C708.043 197.776 707.635 196.768 706.819 195.952C706.003 195.112 704.995 194.704 703.771 194.704C702.571 194.704 701.563 195.112 700.747 195.952C699.931 196.768 699.523 197.776 699.523 199C699.523 200.224 699.931 201.232 700.747 202.072C701.563 202.888 702.571 203.296 703.771 203.296ZM724.815 199.96H714.759C715.167 202.096 716.823 203.344 719.103 203.344C720.687 203.344 721.839 202.768 722.559 201.592L724.335 202.6C723.159 204.4 721.407 205.312 719.055 205.312C717.159 205.312 715.599 204.712 714.399 203.536C713.223 202.336 712.623 200.824 712.623 199C712.623 197.2 713.199 195.688 714.375 194.488C715.551 193.288 717.063 192.688 718.911 192.688C720.663 192.688 722.103 193.312 723.207 194.56C724.335 195.784 724.887 197.272 724.887 199.024C724.887 199.336 724.863 199.648 724.815 199.96ZM718.911 194.656C716.679 194.656 715.119 196.024 714.759 198.136H722.775C722.415 195.856 720.831 194.656 718.911 194.656ZM731.45 202.768L735.218 193H737.474L732.674 205H730.226L725.426 193H727.682L731.45 202.768ZM740.344 207.4H738.256C741.784 200.368 741.784 192.832 738.256 185.8H740.344C743.872 192.832 743.872 200.368 740.344 207.4Z" fill="black"/>
<rect x="516" y="239" width="334" height="61" rx="5" fill="#FCE2E5"/>
<path d="M633.724 276.312C630.58 276.312 628.252 274.752 627.364 272.184L629.284 271.08C629.932 273.12 631.444 274.128 633.772 274.128C636.076 274.128 637.324 273.096 637.324 271.536C637.324 270.744 637.012 270.144 636.412 269.736C635.812 269.328 634.78 268.92 633.364 268.464L631.756 267.936C631.396 267.792 630.916 267.576 630.364 267.312C629.812 267.024 629.404 266.736 629.14 266.448C628.588 265.848 628.084 264.864 628.084 263.64C628.084 262.176 628.588 261.024 629.62 260.184C630.652 259.32 631.9 258.888 633.364 258.888C636.028 258.888 638.068 260.352 639.052 262.56L637.18 263.64C636.46 261.912 635.188 261.048 633.364 261.048C631.54 261.048 630.316 262.008 630.316 263.544C630.316 264.288 630.58 264.84 631.108 265.224C631.636 265.608 632.548 266.016 633.844 266.424L634.828 266.736C635.02 266.808 635.308 266.904 635.716 267.072C636.556 267.384 636.748 267.504 637.396 267.864C638.068 268.224 638.284 268.488 638.692 268.968C639.292 269.568 639.532 270.432 639.532 271.488C639.532 272.952 639.004 274.128 637.924 275.016C636.844 275.88 635.452 276.312 633.724 276.312ZM648.135 264V266.016H644.943V272.52C644.943 274.368 645.999 274.224 648.135 274.128V276C644.487 276.48 642.855 275.496 642.855 272.52V266.016H640.479V264H642.855V261.264L644.943 260.64V264H648.135ZM659.934 266.064V264H662.022V276H659.934V273.936C658.902 275.52 657.39 276.312 655.398 276.312C653.718 276.312 652.278 275.712 651.102 274.488C649.926 273.264 649.326 271.752 649.326 270C649.326 268.248 649.926 266.76 651.102 265.536C652.278 264.312 653.718 263.688 655.398 263.688C657.39 263.688 658.902 264.48 659.934 266.064ZM655.662 274.296C656.886 274.296 657.894 273.888 658.71 273.072C659.526 272.232 659.934 271.224 659.934 270C659.934 268.776 659.526 267.768 658.71 266.952C657.894 266.112 656.886 265.704 655.662 265.704C654.462 265.704 653.454 266.112 652.638 266.952C651.822 267.768 651.414 268.776 651.414 270C651.414 271.224 651.822 272.232 652.638 273.072C653.454 273.888 654.462 274.296 655.662 274.296ZM670.826 276.312C669.026 276.312 667.514 275.712 666.314 274.512C665.114 273.288 664.514 271.8 664.514 270C664.514 268.2 665.114 266.712 666.314 265.512C667.514 264.288 669.026 263.688 670.826 263.688C673.202 263.688 675.194 264.912 676.13 266.832L674.378 267.84C673.778 266.568 672.434 265.728 670.826 265.728C669.626 265.728 668.618 266.136 667.802 266.952C667.01 267.768 666.602 268.776 666.602 270C666.602 271.2 667.01 272.208 667.802 273.024C668.618 273.84 669.626 274.248 670.826 274.248C672.434 274.248 673.778 273.432 674.45 272.16L676.226 273.192C675.194 275.088 673.154 276.312 670.826 276.312ZM682.511 269.808L688.439 276H685.847L680.375 270.312V276H678.287V259.2H680.375V269.304L685.559 264H688.247L682.511 269.808ZM700.917 278.4H698.829C695.301 271.368 695.301 263.832 698.829 256.8H700.917C697.389 263.832 697.389 271.368 700.917 278.4ZM713.043 266.064V264H715.131V280.8H713.043V273.936C712.011 275.52 710.499 276.312 708.507 276.312C706.827 276.312 705.387 275.712 704.211 274.488C703.035 273.264 702.435 271.752 702.435 270C702.435 268.248 703.035 266.76 704.211 265.536C705.387 264.312 706.827 263.688 708.507 263.688C710.499 263.688 712.011 264.48 713.043 266.064ZM708.771 274.296C709.995 274.296 711.003 273.888 711.819 273.072C712.635 272.232 713.043 271.224 713.043 270C713.043 268.776 712.635 267.768 711.819 266.952C711.003 266.112 709.995 265.704 708.771 265.704C707.571 265.704 706.563 266.112 705.747 266.952C704.931 267.768 704.523 268.776 704.523 270C704.523 271.224 704.931 272.232 705.747 273.072C706.563 273.888 707.571 274.296 708.771 274.296ZM728.231 266.064V264H730.319V276H728.231V273.936C727.199 275.52 725.687 276.312 723.695 276.312C722.015 276.312 720.575 275.712 719.399 274.488C718.223 273.264 717.623 271.752 717.623 270C717.623 268.248 718.223 266.76 719.399 265.536C720.575 264.312 722.015 263.688 723.695 263.688C725.687 263.688 727.199 264.48 728.231 266.064ZM723.959 274.296C725.183 274.296 726.191 273.888 727.007 273.072C727.823 272.232 728.231 271.224 728.231 270C728.231 268.776 727.823 267.768 727.007 266.952C726.191 266.112 725.183 265.704 723.959 265.704C722.759 265.704 721.751 266.112 720.935 266.952C720.119 267.768 719.711 268.776 719.711 270C719.711 271.224 720.119 272.232 720.935 273.072C721.751 273.888 722.759 274.296 723.959 274.296ZM734.586 278.4H732.498C736.026 271.368 736.026 263.832 732.498 256.8H734.586C738.114 263.832 738.114 271.368 734.586 278.4Z" fill="black"/>
<rect x="516" y="310" width="334" height="61" rx="5" fill="#F2DBE7"/>
<path d="M623.224 347.312C620.08 347.312 617.752 345.752 616.864 343.184L618.784 342.08C619.432 344.12 620.944 345.128 623.272 345.128C625.576 345.128 626.824 344.096 626.824 342.536C626.824 341.744 626.512 341.144 625.912 340.736C625.312 340.328 624.28 339.92 622.864 339.464L621.256 338.936C620.896 338.792 620.416 338.576 619.864 338.312C619.312 338.024 618.904 337.736 618.64 337.448C618.088 336.848 617.584 335.864 617.584 334.64C617.584 333.176 618.088 332.024 619.12 331.184C620.152 330.32 621.4 329.888 622.864 329.888C625.528 329.888 627.568 331.352 628.552 333.56L626.68 334.64C625.96 332.912 624.688 332.048 622.864 332.048C621.04 332.048 619.816 333.008 619.816 334.544C619.816 335.288 620.08 335.84 620.608 336.224C621.136 336.608 622.048 337.016 623.344 337.424L624.328 337.736C624.52 337.808 624.808 337.904 625.216 338.072C626.056 338.384 626.248 338.504 626.896 338.864C627.568 339.224 627.784 339.488 628.192 339.968C628.792 340.568 629.032 341.432 629.032 342.488C629.032 343.952 628.504 345.128 627.424 346.016C626.344 346.88 624.952 347.312 623.224 347.312ZM637.635 335V337.016H634.443V343.52C634.443 345.368 635.499 345.224 637.635 345.128V347C633.987 347.48 632.355 346.496 632.355 343.52V337.016H629.979V335H632.355V332.264L634.443 331.64V335H637.635ZM649.434 337.064V335H651.522V347H649.434V344.936C648.402 346.52 646.89 347.312 644.898 347.312C643.218 347.312 641.778 346.712 640.602 345.488C639.426 344.264 638.826 342.752 638.826 341C638.826 339.248 639.426 337.76 640.602 336.536C641.778 335.312 643.218 334.688 644.898 334.688C646.89 334.688 648.402 335.48 649.434 337.064ZM645.162 345.296C646.386 345.296 647.394 344.888 648.21 344.072C649.026 343.232 649.434 342.224 649.434 341C649.434 339.776 649.026 338.768 648.21 337.952C647.394 337.112 646.386 336.704 645.162 336.704C643.962 336.704 642.954 337.112 642.138 337.952C641.322 338.768 640.914 339.776 640.914 341C640.914 342.224 641.322 343.232 642.138 344.072C642.954 344.888 643.962 345.296 645.162 345.296ZM660.326 347.312C658.526 347.312 657.014 346.712 655.814 345.512C654.614 344.288 654.014 342.8 654.014 341C654.014 339.2 654.614 337.712 655.814 336.512C657.014 335.288 658.526 334.688 660.326 334.688C662.702 334.688 664.694 335.912 665.63 337.832L663.878 338.84C663.278 337.568 661.934 336.728 660.326 336.728C659.126 336.728 658.118 337.136 657.302 337.952C656.51 338.768 656.102 339.776 656.102 341C656.102 342.2 656.51 343.208 657.302 344.024C658.118 344.84 659.126 345.248 660.326 345.248C661.934 345.248 663.278 344.432 663.95 343.16L665.726 344.192C664.694 346.088 662.654 347.312 660.326 347.312ZM672.011 340.808L677.939 347H675.347L669.875 341.312V347H667.787V330.2H669.875V340.304L675.059 335H677.747L672.011 340.808ZM690.417 349.4H688.329C684.801 342.368 684.801 334.832 688.329 327.8H690.417C686.889 334.832 686.889 342.368 690.417 349.4ZM699.231 334.688C700.911 334.688 702.351 335.312 703.527 336.536C704.703 337.76 705.303 339.248 705.303 341C705.303 342.752 704.703 344.264 703.527 345.488C702.351 346.712 700.911 347.312 699.231 347.312C697.239 347.312 695.727 346.52 694.695 344.936V351.8H692.607V335H694.695V337.064C695.727 335.48 697.239 334.688 699.231 334.688ZM698.967 345.296C700.167 345.296 701.175 344.888 701.991 344.072C702.807 343.232 703.215 342.224 703.215 341C703.215 339.776 702.807 338.768 701.991 337.952C701.175 337.112 700.167 336.704 698.967 336.704C697.743 336.704 696.735 337.112 695.919 337.952C695.103 338.768 694.695 339.776 694.695 341C694.695 342.224 695.103 343.232 695.919 344.072C696.735 344.888 697.743 345.296 698.967 345.296ZM709.883 335V337.016C710.579 335.528 711.827 334.784 713.627 334.784V336.968C712.595 336.92 711.731 337.184 710.987 337.784C710.243 338.384 709.883 339.32 709.883 340.64V347H707.795V335H709.883ZM725.142 345.488C723.918 346.712 722.406 347.312 720.654 347.312C718.902 347.312 717.39 346.712 716.166 345.488C714.942 344.264 714.342 342.776 714.342 341C714.342 339.224 714.942 337.736 716.166 336.512C717.39 335.288 718.902 334.688 720.654 334.688C722.406 334.688 723.918 335.288 725.142 336.512C726.366 337.736 726.99 339.224 726.99 341C726.99 342.776 726.366 344.264 725.142 345.488ZM720.654 345.272C721.854 345.272 722.862 344.864 723.678 344.048C724.494 343.232 724.902 342.224 724.902 341C724.902 339.776 724.494 338.768 723.678 337.952C722.862 337.136 721.854 336.728 720.654 336.728C719.478 336.728 718.47 337.136 717.654 337.952C716.838 338.768 716.43 339.776 716.43 341C716.43 342.224 716.838 343.232 717.654 344.048C718.47 344.864 719.478 345.272 720.654 345.272ZM739.387 337.064V330.2H741.475V347H739.387V344.936C738.355 346.52 736.843 347.312 734.851 347.312C733.171 347.312 731.731 346.712 730.555 345.488C729.379 344.264 728.779 342.752 728.779 341C728.779 339.248 729.379 337.76 730.555 336.536C731.731 335.312 733.171 334.688 734.851 334.688C736.843 334.688 738.355 335.48 739.387 337.064ZM735.115 345.296C736.339 345.296 737.347 344.888 738.163 344.072C738.979 343.232 739.387 342.224 739.387 341C739.387 339.776 738.979 338.768 738.163 337.952C737.347 337.112 736.339 336.704 735.115 336.704C733.915 336.704 732.907 337.112 732.091 337.952C731.275 338.768 730.867 339.776 730.867 341C730.867 342.224 731.275 343.232 732.091 344.072C732.907 344.888 733.915 345.296 735.115 345.296ZM745.743 349.4H743.655C747.183 342.368 747.183 334.832 743.655 327.8H745.743C749.271 334.832 749.271 342.368 745.743 349.4Z" fill="black"/>
<rect x="77" y="168" width="412" height="507" rx="9" fill="#E5E5ED"/>
<path d="M76.95 118H84.78C86.79 118 88.5 118.69 89.88 120.04C91.26 121.39 91.95 123.07 91.95 125.05C91.95 127.03 91.26 128.71 89.88 130.06C88.5 131.41 86.79 132.1 84.78 132.1H81.09V139H76.95V118ZM81.09 128.23H84.78C86.55 128.23 87.84 126.85 87.84 125.05C87.84 123.22 86.55 121.87 84.78 121.87H81.09V128.23ZM98.013 124V126.58C98.733 124.66 100.533 123.7 102.573 123.7V128.02C101.403 127.87 100.323 128.11 99.393 128.74C98.463 129.37 98.013 130.39 98.013 131.83V139H94.143V124H98.013ZM117.06 137.14C115.53 138.67 113.64 139.42 111.42 139.42C109.2 139.42 107.31 138.67 105.78 137.14C104.25 135.61 103.5 133.72 103.5 131.5C103.5 129.28 104.25 127.42 105.78 125.89C107.31 124.36 109.2 123.58 111.42 123.58C113.64 123.58 115.53 124.36 117.06 125.89C118.59 127.42 119.37 129.28 119.37 131.5C119.37 133.72 118.59 135.61 117.06 137.14ZM108.51 134.47C109.29 135.25 110.25 135.64 111.42 135.64C112.59 135.64 113.55 135.25 114.33 134.47C115.11 133.69 115.5 132.7 115.5 131.5C115.5 130.3 115.11 129.31 114.33 128.53C113.55 127.75 112.59 127.36 111.42 127.36C110.25 127.36 109.29 127.75 108.51 128.53C107.76 129.31 107.37 130.3 107.37 131.5C107.37 132.7 107.76 133.69 108.51 134.47ZM124.113 122.2C122.793 122.2 121.713 121.12 121.713 119.83C121.713 118.54 122.793 117.43 124.113 117.43C125.403 117.43 126.483 118.54 126.483 119.83C126.483 121.12 125.403 122.2 124.113 122.2ZM122.163 139.3V124H126.033V139.3C126.033 143.71 123.933 145.69 119.493 145.42V141.7C121.323 141.82 122.163 141.1 122.163 139.3ZM144.143 133.09H132.833C133.343 134.98 134.753 135.91 137.063 135.91C138.533 135.91 139.673 135.4 140.423 134.41L143.543 136.21C142.073 138.34 139.883 139.42 137.003 139.42C134.513 139.42 132.533 138.67 131.033 137.17C129.533 135.67 128.783 133.78 128.783 131.5C128.783 129.25 129.533 127.36 131.003 125.86C132.473 124.33 134.393 123.58 136.703 123.58C138.893 123.58 140.723 124.33 142.133 125.86C143.573 127.39 144.293 129.25 144.293 131.5C144.293 132.01 144.233 132.52 144.143 133.09ZM132.773 130.09H140.423C139.973 128.05 138.473 127.06 136.703 127.06C134.633 127.06 133.223 128.17 132.773 130.09ZM154.017 139.42C151.767 139.42 149.877 138.67 148.347 137.14C146.847 135.61 146.097 133.75 146.097 131.5C146.097 129.25 146.847 127.39 148.347 125.86C149.877 124.33 151.767 123.58 154.017 123.58C156.927 123.58 159.507 125.08 160.737 127.45L157.407 129.4C156.807 128.17 155.517 127.39 153.987 127.39C151.677 127.39 149.967 129.1 149.967 131.5C149.967 132.67 150.357 133.66 151.107 134.44C151.857 135.19 152.817 135.58 153.987 135.58C155.547 135.58 156.837 134.83 157.437 133.6L160.797 135.52C159.477 137.89 156.927 139.42 154.017 139.42ZM171.424 124V127.72H168.034V133.96C168.034 135.58 169.204 135.61 171.424 135.49V139C166.114 139.6 164.164 138.07 164.164 133.96V127.72H161.554V124H164.164V120.97L168.034 119.8V124H171.424Z" fill="black"/>
<path d="M117.56 198.2H123.824C125.432 198.2 126.8 198.752 127.904 199.832C129.008 200.912 129.56 202.256 129.56 203.84C129.56 205.424 129.008 206.768 127.904 207.848C126.8 208.928 125.432 209.48 123.824 209.48H120.872V215H117.56V198.2ZM120.872 206.384H123.824C125.24 206.384 126.272 205.28 126.272 203.84C126.272 202.376 125.24 201.296 123.824 201.296H120.872V206.384ZM134.41 203V205.064C134.986 203.528 136.426 202.76 138.058 202.76V206.216C137.122 206.096 136.258 206.288 135.514 206.792C134.77 207.296 134.41 208.112 134.41 209.264V215H131.314V203H134.41ZM149.648 213.512C148.424 214.736 146.912 215.336 145.136 215.336C143.36 215.336 141.848 214.736 140.624 213.512C139.4 212.288 138.8 210.776 138.8 209C138.8 207.224 139.4 205.736 140.624 204.512C141.848 203.288 143.36 202.664 145.136 202.664C146.912 202.664 148.424 203.288 149.648 204.512C150.872 205.736 151.496 207.224 151.496 209C151.496 210.776 150.872 212.288 149.648 213.512ZM142.808 211.376C143.432 212 144.2 212.312 145.136 212.312C146.072 212.312 146.84 212 147.464 211.376C148.088 210.752 148.4 209.96 148.4 209C148.4 208.04 148.088 207.248 147.464 206.624C146.84 206 146.072 205.688 145.136 205.688C144.2 205.688 143.432 206 142.808 206.624C142.208 207.248 141.896 208.04 141.896 209C141.896 209.96 142.208 210.752 142.808 211.376ZM162.866 204.488V203H165.89V214.424C165.89 216.272 165.266 217.688 164.042 218.672C162.818 219.656 161.354 220.136 159.626 220.136C157.034 220.136 154.994 219.128 153.938 217.208L156.578 215.696C157.178 216.824 158.234 217.376 159.722 217.376C161.666 217.376 162.866 216.32 162.866 214.424V213.128C161.954 214.352 160.682 214.952 159.026 214.952C157.322 214.952 155.906 214.352 154.754 213.176C153.626 211.976 153.05 210.512 153.05 208.808C153.05 207.104 153.626 205.664 154.778 204.464C155.93 203.264 157.346 202.664 159.026 202.664C160.682 202.664 161.954 203.264 162.866 204.488ZM162.866 208.808C162.866 207.872 162.554 207.08 161.906 206.48C161.282 205.856 160.49 205.544 159.506 205.544C158.522 205.544 157.73 205.856 157.082 206.48C156.458 207.08 156.146 207.872 156.146 208.808C156.146 210.728 157.562 212.096 159.506 212.096C161.45 212.096 162.866 210.728 162.866 208.808ZM171.793 203V205.064C172.369 203.528 173.809 202.76 175.441 202.76V206.216C174.505 206.096 173.641 206.288 172.897 206.792C172.153 207.296 171.793 208.112 171.793 209.264V215H168.697V203H171.793ZM185.927 204.416V203H189.023V215H185.927V213.584C184.991 214.76 183.695 215.336 182.015 215.336C180.407 215.336 179.039 214.736 177.887 213.512C176.759 212.288 176.183 210.776 176.183 209C176.183 207.224 176.759 205.736 177.887 204.512C179.039 203.288 180.407 202.664 182.015 202.664C183.695 202.664 184.991 203.24 185.927 204.416ZM180.215 211.448C180.839 212.072 181.631 212.384 182.591 212.384C183.551 212.384 184.343 212.072 184.967 211.448C185.615 210.8 185.927 209.984 185.927 209C185.927 208.016 185.615 207.2 184.967 206.576C184.343 205.928 183.551 205.616 182.591 205.616C181.631 205.616 180.839 205.928 180.215 206.576C179.591 207.2 179.279 208.016 179.279 209C179.279 209.984 179.591 210.8 180.215 211.448ZM205.102 202.664C207.862 202.664 209.638 204.608 209.638 207.608V215H206.542V207.824C206.542 206.384 205.798 205.544 204.526 205.544C203.11 205.544 202.294 206.504 202.294 208.256V215H199.198V207.824C199.198 206.384 198.454 205.544 197.182 205.544C195.814 205.544 194.926 206.504 194.926 208.256V215H191.83V203H194.926V204.272C195.646 203.192 196.75 202.664 198.262 202.664C199.726 202.664 200.83 203.24 201.526 204.392C202.318 203.24 203.518 202.664 205.102 202.664Z" fill="black"/>
<path d="M282.293 415.707C282.683 416.098 283.317 416.098 283.707 415.707L290.071 409.343C290.462 408.953 290.462 408.319 290.071 407.929C289.681 407.538 289.047 407.538 288.657 407.929L283 413.586L277.343 407.929C276.953 407.538 276.319 407.538 275.929 407.929C275.538 408.319 275.538 408.953 275.929 409.343L282.293 415.707ZM282 282L282 415L284 415L284 282L282 282Z" fill="#8D6BC9"/>
<path d="M282.293 586.707C282.683 587.098 283.317 587.098 283.707 586.707L290.071 580.343C290.462 579.953 290.462 579.319 290.071 578.929C289.681 578.538 289.047 578.538 288.657 578.929L283 584.586L277.343 578.929C276.953 578.538 276.319 578.538 275.929 578.929C275.538 579.319 275.538 579.953 275.929 580.343L282.293 586.707ZM282 453L282 586L284 586L284 453L282 453Z" fill="#8D6BC9"/>
<rect x="117" y="246" width="332" height="59" rx="4" fill="#F2EAF3"/>
<rect x="117" y="246" width="332" height="59" rx="4" stroke="#8D6BC9" stroke-width="2"/>
<path d="M246.732 282H244.26L240.492 275.568H236.532V282H234.3V265.2H241.02C242.46 265.2 243.684 265.704 244.716 266.736C245.748 267.744 246.252 268.968 246.252 270.408C246.252 271.488 245.916 272.496 245.268 273.384C244.62 274.272 243.804 274.92 242.772 275.28L246.732 282ZM241.02 267.288H236.532V273.552H241.02C241.86 273.552 242.556 273.24 243.132 272.64C243.732 272.016 244.02 271.272 244.02 270.408C244.02 269.544 243.732 268.8 243.132 268.2C242.556 267.6 241.86 267.288 241.02 267.288ZM259.667 276.96H249.611C250.019 279.096 251.675 280.344 253.955 280.344C255.539 280.344 256.691 279.768 257.411 278.592L259.187 279.6C258.011 281.4 256.259 282.312 253.907 282.312C252.011 282.312 250.451 281.712 249.251 280.536C248.075 279.336 247.475 277.824 247.475 276C247.475 274.2 248.051 272.688 249.227 271.488C250.403 270.288 251.915 269.688 253.763 269.688C255.515 269.688 256.955 270.312 258.059 271.56C259.187 272.784 259.739 274.272 259.739 276.024C259.739 276.336 259.715 276.648 259.667 276.96ZM253.763 271.656C251.531 271.656 249.971 273.024 249.611 275.136H257.627C257.267 272.856 255.683 271.656 253.763 271.656ZM263.47 273.24C263.47 274.176 264.526 274.68 265.846 275.04C267.718 275.448 270.214 276.144 270.19 278.712C270.19 279.792 269.758 280.68 268.918 281.328C268.078 281.976 267.022 282.312 265.702 282.312C263.374 282.312 261.622 281.208 260.926 279.504L262.726 278.472C263.11 279.624 264.238 280.344 265.702 280.344C267.07 280.344 268.078 279.84 268.078 278.712C268.078 277.776 267.022 277.248 265.702 276.936C263.806 276.432 261.358 275.808 261.358 273.264C261.358 272.232 261.766 271.368 262.558 270.696C263.374 270.024 264.382 269.688 265.606 269.688C267.55 269.688 269.158 270.624 269.926 272.184L268.174 273.168C267.742 272.136 266.878 271.632 265.606 271.632C264.43 271.632 263.47 272.208 263.47 273.24ZM282.462 280.488C281.238 281.712 279.726 282.312 277.974 282.312C276.222 282.312 274.71 281.712 273.486 280.488C272.262 279.264 271.662 277.776 271.662 276C271.662 274.224 272.262 272.736 273.486 271.512C274.71 270.288 276.222 269.688 277.974 269.688C279.726 269.688 281.238 270.288 282.462 271.512C283.686 272.736 284.31 274.224 284.31 276C284.31 277.776 283.686 279.264 282.462 280.488ZM277.974 280.272C279.174 280.272 280.182 279.864 280.998 279.048C281.814 278.232 282.222 277.224 282.222 276C282.222 274.776 281.814 273.768 280.998 272.952C280.182 272.136 279.174 271.728 277.974 271.728C276.798 271.728 275.79 272.136 274.974 272.952C274.158 273.768 273.75 274.776 273.75 276C273.75 277.224 274.158 278.232 274.974 279.048C275.79 279.864 276.798 280.272 277.974 280.272ZM295.052 276.36V270H297.14V282H295.052V280.272C294.212 281.64 292.916 282.312 291.164 282.312C288.355 282.312 286.508 280.416 286.508 277.368V270H288.596V277.248C288.596 279.192 289.724 280.32 291.572 280.32C293.66 280.32 295.052 279.048 295.052 276.36ZM302.406 270V272.016C303.102 270.528 304.35 269.784 306.15 269.784V271.968C305.118 271.92 304.254 272.184 303.51 272.784C302.766 273.384 302.406 274.32 302.406 275.64V282H300.318V270H302.406ZM313.177 282.312C311.377 282.312 309.865 281.712 308.665 280.512C307.465 279.288 306.865 277.8 306.865 276C306.865 274.2 307.465 272.712 308.665 271.512C309.865 270.288 311.377 269.688 313.177 269.688C315.553 269.688 317.545 270.912 318.481 272.832L316.729 273.84C316.129 272.568 314.785 271.728 313.177 271.728C311.977 271.728 310.969 272.136 310.153 272.952C309.361 273.768 308.953 274.776 308.953 276C308.953 277.2 309.361 278.208 310.153 279.024C310.969 279.84 311.977 280.248 313.177 280.248C314.785 280.248 316.129 279.432 316.801 278.16L318.577 279.192C317.545 281.088 315.505 282.312 313.177 282.312ZM331.995 276.96H321.939C322.347 279.096 324.003 280.344 326.283 280.344C327.867 280.344 329.019 279.768 329.739 278.592L331.515 279.6C330.339 281.4 328.587 282.312 326.235 282.312C324.339 282.312 322.779 281.712 321.579 280.536C320.403 279.336 319.803 277.824 319.803 276C319.803 274.2 320.379 272.688 321.555 271.488C322.731 270.288 324.243 269.688 326.091 269.688C327.843 269.688 329.283 270.312 330.387 271.56C331.515 272.784 332.067 274.272 332.067 276.024C332.067 276.336 332.043 276.648 331.995 276.96ZM326.091 271.656C323.859 271.656 322.299 273.024 321.939 275.136H329.955C329.595 272.856 328.011 271.656 326.091 271.656Z" fill="black"/>
<path d="M370 382.934C312 365.387 254 400.482 196 382.934V339.066C254 356.613 312 321.518 370 339.066V382.934Z" fill="#D1D1D9"/>
<path d="M213.553 366V352H215.413V366H213.553ZM223.216 355.74C225.556 355.74 227.096 357.32 227.096 359.86V366H225.356V359.96C225.356 358.34 224.416 357.4 222.876 357.4C221.136 357.4 219.976 358.46 219.976 360.7V366H218.236V356H219.976V357.44C220.676 356.3 221.756 355.74 223.216 355.74ZM235.045 355.74C236.445 355.74 237.645 356.26 238.625 357.28C239.605 358.3 240.105 359.54 240.105 361C240.105 362.46 239.605 363.72 238.625 364.74C237.645 365.76 236.445 366.26 235.045 366.26C233.385 366.26 232.125 365.6 231.265 364.28V370H229.525V356H231.265V357.72C232.125 356.4 233.385 355.74 235.045 355.74ZM234.825 364.58C235.825 364.58 236.665 364.24 237.345 363.56C238.025 362.86 238.365 362.02 238.365 361C238.365 359.98 238.025 359.14 237.345 358.46C236.665 357.76 235.825 357.42 234.825 357.42C233.805 357.42 232.965 357.76 232.285 358.46C231.605 359.14 231.265 359.98 231.265 361C231.265 362.02 231.605 362.86 232.285 363.56C232.965 364.24 233.805 364.58 234.825 364.58ZM249.081 361.3V356H250.821V366H249.081V364.56C248.381 365.7 247.301 366.26 245.841 366.26C243.501 366.26 241.961 364.68 241.961 362.14V356H243.701V362.04C243.701 363.66 244.641 364.6 246.181 364.6C247.921 364.6 249.081 363.54 249.081 361.3ZM258.91 356V357.68H256.25V363.1C256.25 364.64 257.13 364.52 258.91 364.44V366C255.87 366.4 254.51 365.58 254.51 363.1V357.68H252.53V356H254.51V353.72L256.25 353.2V356H258.91ZM261.982 358.7C261.982 359.48 262.862 359.9 263.962 360.2C265.522 360.54 267.602 361.12 267.582 363.26C267.582 364.16 267.222 364.9 266.522 365.44C265.822 365.98 264.942 366.26 263.842 366.26C261.902 366.26 260.442 365.34 259.862 363.92L261.362 363.06C261.682 364.02 262.622 364.62 263.842 364.62C264.982 364.62 265.822 364.2 265.822 363.26C265.822 362.48 264.942 362.04 263.842 361.78C262.262 361.36 260.222 360.84 260.222 358.72C260.222 357.86 260.562 357.14 261.222 356.58C261.902 356.02 262.742 355.74 263.762 355.74C265.382 355.74 266.722 356.52 267.362 357.82L265.902 358.64C265.542 357.78 264.822 357.36 263.762 357.36C262.782 357.36 261.982 357.84 261.982 358.7ZM278.122 350L270.122 368H269.082L277.082 350H278.122ZM279.649 359C279.649 356.98 280.349 355.26 281.749 353.86C283.149 352.44 284.869 351.74 286.889 351.74C288.909 351.74 290.629 352.44 292.029 353.86C293.449 355.26 294.149 356.98 294.149 359C294.149 361.02 293.449 362.72 292.029 364.14C290.629 365.56 288.909 366.26 286.889 366.26C284.869 366.26 283.149 365.56 281.749 364.14C280.349 362.72 279.649 361.02 279.649 359ZM292.289 359C292.289 357.46 291.769 356.16 290.729 355.12C289.709 354.06 288.429 353.54 286.889 353.54C285.349 353.54 284.069 354.06 283.029 355.12C282.009 356.16 281.489 357.46 281.489 359C281.489 360.54 282.009 361.82 283.029 362.88C284.069 363.92 285.349 364.44 286.889 364.44C288.429 364.44 289.709 363.92 290.729 362.88C291.769 361.82 292.289 360.54 292.289 359ZM303.202 361.3V356H304.942V366H303.202V364.56C302.502 365.7 301.422 366.26 299.962 366.26C297.622 366.26 296.082 364.68 296.082 362.14V356H297.822V362.04C297.822 363.66 298.762 364.6 300.302 364.6C302.042 364.6 303.202 363.54 303.202 361.3ZM313.031 356V357.68H310.371V363.1C310.371 364.64 311.251 364.52 313.031 364.44V366C309.991 366.4 308.631 365.58 308.631 363.1V357.68H306.651V356H308.631V353.72L310.371 353.2V356H313.031ZM320.67 355.74C322.07 355.74 323.27 356.26 324.25 357.28C325.23 358.3 325.73 359.54 325.73 361C325.73 362.46 325.23 363.72 324.25 364.74C323.27 365.76 322.07 366.26 320.67 366.26C319.01 366.26 317.75 365.6 316.89 364.28V370H315.15V356H316.89V357.72C317.75 356.4 319.01 355.74 320.67 355.74ZM320.45 364.58C321.45 364.58 322.29 364.24 322.97 363.56C323.65 362.86 323.99 362.02 323.99 361C323.99 359.98 323.65 359.14 322.97 358.46C322.29 357.76 321.45 357.42 320.45 357.42C319.43 357.42 318.59 357.76 317.91 358.46C317.23 359.14 316.89 359.98 316.89 361C316.89 362.02 317.23 362.86 317.91 363.56C318.59 364.24 319.43 364.58 320.45 364.58ZM334.706 361.3V356H336.446V366H334.706V364.56C334.006 365.7 332.926 366.26 331.466 366.26C329.126 366.26 327.586 364.68 327.586 362.14V356H329.326V362.04C329.326 363.66 330.266 364.6 331.806 364.6C333.546 364.6 334.706 363.54 334.706 361.3ZM344.535 356V357.68H341.875V363.1C341.875 364.64 342.755 364.52 344.535 364.44V366C341.495 366.4 340.135 365.58 340.135 363.1V357.68H338.155V356H340.135V353.72L341.875 353.2V356H344.535ZM347.607 358.7C347.607 359.48 348.487 359.9 349.587 360.2C351.147 360.54 353.227 361.12 353.207 363.26C353.207 364.16 352.847 364.9 352.147 365.44C351.447 365.98 350.567 366.26 349.467 366.26C347.527 366.26 346.067 365.34 345.487 363.92L346.987 363.06C347.307 364.02 348.247 364.62 349.467 364.62C350.607 364.62 351.447 364.2 351.447 363.26C351.447 362.48 350.567 362.04 349.467 361.78C347.887 361.36 345.847 360.84 345.847 358.72C345.847 357.86 346.187 357.14 346.847 356.58C347.527 356.02 348.367 355.74 349.387 355.74C351.007 355.74 352.347 356.52 352.987 357.82L351.527 358.64C351.167 357.78 350.447 357.36 349.387 357.36C348.407 357.36 347.607 357.84 347.607 358.7Z" fill="black"/>
<rect x="117" y="417" width="332" height="59" rx="4" fill="#F2EAF3"/>
<rect x="117" y="417" width="332" height="59" rx="4" stroke="#8D6BC9" stroke-width="2"/>
<path d="M246.732 453H244.26L240.492 446.568H236.532V453H234.3V436.2H241.02C242.46 436.2 243.684 436.704 244.716 437.736C245.748 438.744 246.252 439.968 246.252 441.408C246.252 442.488 245.916 443.496 245.268 444.384C244.62 445.272 243.804 445.92 242.772 446.28L246.732 453ZM241.02 438.288H236.532V444.552H241.02C241.86 444.552 242.556 444.24 243.132 443.64C243.732 443.016 244.02 442.272 244.02 441.408C244.02 440.544 243.732 439.8 243.132 439.2C242.556 438.6 241.86 438.288 241.02 438.288ZM259.667 447.96H249.611C250.019 450.096 251.675 451.344 253.955 451.344C255.539 451.344 256.691 450.768 257.411 449.592L259.187 450.6C258.011 452.4 256.259 453.312 253.907 453.312C252.011 453.312 250.451 452.712 249.251 451.536C248.075 450.336 247.475 448.824 247.475 447C247.475 445.2 248.051 443.688 249.227 442.488C250.403 441.288 251.915 440.688 253.763 440.688C255.515 440.688 256.955 441.312 258.059 442.56C259.187 443.784 259.739 445.272 259.739 447.024C259.739 447.336 259.715 447.648 259.667 447.96ZM253.763 442.656C251.531 442.656 249.971 444.024 249.611 446.136H257.627C257.267 443.856 255.683 442.656 253.763 442.656ZM263.47 444.24C263.47 445.176 264.526 445.68 265.846 446.04C267.718 446.448 270.214 447.144 270.19 449.712C270.19 450.792 269.758 451.68 268.918 452.328C268.078 452.976 267.022 453.312 265.702 453.312C263.374 453.312 261.622 452.208 260.926 450.504L262.726 449.472C263.11 450.624 264.238 451.344 265.702 451.344C267.07 451.344 268.078 450.84 268.078 449.712C268.078 448.776 267.022 448.248 265.702 447.936C263.806 447.432 261.358 446.808 261.358 444.264C261.358 443.232 261.766 442.368 262.558 441.696C263.374 441.024 264.382 440.688 265.606 440.688C267.55 440.688 269.158 441.624 269.926 443.184L268.174 444.168C267.742 443.136 266.878 442.632 265.606 442.632C264.43 442.632 263.47 443.208 263.47 444.24ZM282.462 451.488C281.238 452.712 279.726 453.312 277.974 453.312C276.222 453.312 274.71 452.712 273.486 451.488C272.262 450.264 271.662 448.776 271.662 447C271.662 445.224 272.262 443.736 273.486 442.512C274.71 441.288 276.222 440.688 277.974 440.688C279.726 440.688 281.238 441.288 282.462 442.512C283.686 443.736 284.31 445.224 284.31 447C284.31 448.776 283.686 450.264 282.462 451.488ZM277.974 451.272C279.174 451.272 280.182 450.864 280.998 450.048C281.814 449.232 282.222 448.224 282.222 447C282.222 445.776 281.814 444.768 280.998 443.952C280.182 443.136 279.174 442.728 277.974 442.728C276.798 442.728 275.79 443.136 274.974 443.952C274.158 444.768 273.75 445.776 273.75 447C273.75 448.224 274.158 449.232 274.974 450.048C275.79 450.864 276.798 451.272 277.974 451.272ZM295.052 447.36V441H297.14V453H295.052V451.272C294.212 452.64 292.916 453.312 291.164 453.312C288.355 453.312 286.508 451.416 286.508 448.368V441H288.596V448.248C288.596 450.192 289.724 451.32 291.572 451.32C293.66 451.32 295.052 450.048 295.052 447.36ZM302.406 441V443.016C303.102 441.528 304.35 440.784 306.15 440.784V442.968C305.118 442.92 304.254 443.184 303.51 443.784C302.766 444.384 302.406 445.32 302.406 446.64V453H300.318V441H302.406ZM313.177 453.312C311.377 453.312 309.865 452.712 308.665 451.512C307.465 450.288 306.865 448.8 306.865 447C306.865 445.2 307.465 443.712 308.665 442.512C309.865 441.288 311.377 440.688 313.177 440.688C315.553 440.688 317.545 441.912 318.481 443.832L316.729 444.84C316.129 443.568 314.785 442.728 313.177 442.728C311.977 442.728 310.969 443.136 310.153 443.952C309.361 444.768 308.953 445.776 308.953 447C308.953 448.2 309.361 449.208 310.153 450.024C310.969 450.84 311.977 451.248 313.177 451.248C314.785 451.248 316.129 450.432 316.801 449.16L318.577 450.192C317.545 452.088 315.505 453.312 313.177 453.312ZM331.995 447.96H321.939C322.347 450.096 324.003 451.344 326.283 451.344C327.867 451.344 329.019 450.768 329.739 449.592L331.515 450.6C330.339 452.4 328.587 453.312 326.235 453.312C324.339 453.312 322.779 452.712 321.579 451.536C320.403 450.336 319.803 448.824 319.803 447C319.803 445.2 320.379 443.688 321.555 442.488C322.731 441.288 324.243 440.688 326.091 440.688C327.843 440.688 329.283 441.312 330.387 442.56C331.515 443.784 332.067 445.272 332.067 447.024C332.067 447.336 332.043 447.648 331.995 447.96ZM326.091 442.656C323.859 442.656 322.299 444.024 321.939 446.136H329.955C329.595 443.856 328.011 442.656 326.091 442.656Z" fill="black"/>
<path d="M370 553.934C312 536.387 254 571.482 196 553.934V510.066C254 527.613 312 492.518 370 510.066V553.934Z" fill="#D1D1D9"/>
<path d="M213.553 537V523H215.413V537H213.553ZM223.216 526.74C225.556 526.74 227.096 528.32 227.096 530.86V537H225.356V530.96C225.356 529.34 224.416 528.4 222.876 528.4C221.136 528.4 219.976 529.46 219.976 531.7V537H218.236V527H219.976V528.44C220.676 527.3 221.756 526.74 223.216 526.74ZM235.045 526.74C236.445 526.74 237.645 527.26 238.625 528.28C239.605 529.3 240.105 530.54 240.105 532C240.105 533.46 239.605 534.72 238.625 535.74C237.645 536.76 236.445 537.26 235.045 537.26C233.385 537.26 232.125 536.6 231.265 535.28V541H229.525V527H231.265V528.72C232.125 527.4 233.385 526.74 235.045 526.74ZM234.825 535.58C235.825 535.58 236.665 535.24 237.345 534.56C238.025 533.86 238.365 533.02 238.365 532C238.365 530.98 238.025 530.14 237.345 529.46C236.665 528.76 235.825 528.42 234.825 528.42C233.805 528.42 232.965 528.76 232.285 529.46C231.605 530.14 231.265 530.98 231.265 532C231.265 533.02 231.605 533.86 232.285 534.56C232.965 535.24 233.805 535.58 234.825 535.58ZM249.081 532.3V527H250.821V537H249.081V535.56C248.381 536.7 247.301 537.26 245.841 537.26C243.501 537.26 241.961 535.68 241.961 533.14V527H243.701V533.04C243.701 534.66 244.641 535.6 246.181 535.6C247.921 535.6 249.081 534.54 249.081 532.3ZM258.91 527V528.68H256.25V534.1C256.25 535.64 257.13 535.52 258.91 535.44V537C255.87 537.4 254.51 536.58 254.51 534.1V528.68H252.53V527H254.51V524.72L256.25 524.2V527H258.91ZM261.982 529.7C261.982 530.48 262.862 530.9 263.962 531.2C265.522 531.54 267.602 532.12 267.582 534.26C267.582 535.16 267.222 535.9 266.522 536.44C265.822 536.98 264.942 537.26 263.842 537.26C261.902 537.26 260.442 536.34 259.862 534.92L261.362 534.06C261.682 535.02 262.622 535.62 263.842 535.62C264.982 535.62 265.822 535.2 265.822 534.26C265.822 533.48 264.942 533.04 263.842 532.78C262.262 532.36 260.222 531.84 260.222 529.72C260.222 528.86 260.562 528.14 261.222 527.58C261.902 527.02 262.742 526.74 263.762 526.74C265.382 526.74 266.722 527.52 267.362 528.82L265.902 529.64C265.542 528.78 264.822 528.36 263.762 528.36C262.782 528.36 261.982 528.84 261.982 529.7ZM278.122 521L270.122 539H269.082L277.082 521H278.122ZM279.649 530C279.649 527.98 280.349 526.26 281.749 524.86C283.149 523.44 284.869 522.74 286.889 522.74C288.909 522.74 290.629 523.44 292.029 524.86C293.449 526.26 294.149 527.98 294.149 530C294.149 532.02 293.449 533.72 292.029 535.14C290.629 536.56 288.909 537.26 286.889 537.26C284.869 537.26 283.149 536.56 281.749 535.14C280.349 533.72 279.649 532.02 279.649 530ZM292.289 530C292.289 528.46 291.769 527.16 290.729 526.12C289.709 525.06 288.429 524.54 286.889 524.54C285.349 524.54 284.069 525.06 283.029 526.12C282.009 527.16 281.489 528.46 281.489 530C281.489 531.54 282.009 532.82 283.029 533.88C284.069 534.92 285.349 535.44 286.889 535.44C288.429 535.44 289.709 534.92 290.729 533.88C291.769 532.82 292.289 531.54 292.289 530ZM303.202 532.3V527H304.942V537H303.202V535.56C302.502 536.7 301.422 537.26 299.962 537.26C297.622 537.26 296.082 535.68 296.082 533.14V527H297.822V533.04C297.822 534.66 298.762 535.6 300.302 535.6C302.042 535.6 303.202 534.54 303.202 532.3ZM313.031 527V528.68H310.371V534.1C310.371 535.64 311.251 535.52 313.031 535.44V537C309.991 537.4 308.631 536.58 308.631 534.1V528.68H306.651V527H308.631V524.72L310.371 524.2V527H313.031ZM320.67 526.74C322.07 526.74 323.27 527.26 324.25 528.28C325.23 529.3 325.73 530.54 325.73 532C325.73 533.46 325.23 534.72 324.25 535.74C323.27 536.76 322.07 537.26 320.67 537.26C319.01 537.26 317.75 536.6 316.89 535.28V541H315.15V527H316.89V528.72C317.75 527.4 319.01 526.74 320.67 526.74ZM320.45 535.58C321.45 535.58 322.29 535.24 322.97 534.56C323.65 533.86 323.99 533.02 323.99 532C323.99 530.98 323.65 530.14 322.97 529.46C322.29 528.76 321.45 528.42 320.45 528.42C319.43 528.42 318.59 528.76 317.91 529.46C317.23 530.14 316.89 530.98 316.89 532C316.89 533.02 317.23 533.86 317.91 534.56C318.59 535.24 319.43 535.58 320.45 535.58ZM334.706 532.3V527H336.446V537H334.706V535.56C334.006 536.7 332.926 537.26 331.466 537.26C329.126 537.26 327.586 535.68 327.586 533.14V527H329.326V533.04C329.326 534.66 330.266 535.6 331.806 535.6C333.546 535.6 334.706 534.54 334.706 532.3ZM344.535 527V528.68H341.875V534.1C341.875 535.64 342.755 535.52 344.535 535.44V537C341.495 537.4 340.135 536.58 340.135 534.1V528.68H338.155V527H340.135V524.72L341.875 524.2V527H344.535ZM347.607 529.7C347.607 530.48 348.487 530.9 349.587 531.2C351.147 531.54 353.227 532.12 353.207 534.26C353.207 535.16 352.847 535.9 352.147 536.44C351.447 536.98 350.567 537.26 349.467 537.26C347.527 537.26 346.067 536.34 345.487 534.92L346.987 534.06C347.307 535.02 348.247 535.62 349.467 535.62C350.607 535.62 351.447 535.2 351.447 534.26C351.447 533.48 350.567 533.04 349.467 532.78C347.887 532.36 345.847 531.84 345.847 529.72C345.847 528.86 346.187 528.14 346.847 527.58C347.527 527.02 348.367 526.74 349.387 526.74C351.007 526.74 352.347 527.52 352.987 528.82L351.527 529.64C351.167 528.78 350.447 528.36 349.387 528.36C348.407 528.36 347.607 528.84 347.607 529.7Z" fill="black"/>
<rect x="117" y="588" width="332" height="59" rx="4" fill="#F2EAF3"/>
<rect x="117" y="588" width="332" height="59" rx="4" stroke="#8D6BC9" stroke-width="2"/>
<path d="M246.732 624H244.26L240.492 617.568H236.532V624H234.3V607.2H241.02C242.46 607.2 243.684 607.704 244.716 608.736C245.748 609.744 246.252 610.968 246.252 612.408C246.252 613.488 245.916 614.496 245.268 615.384C244.62 616.272 243.804 616.92 242.772 617.28L246.732 624ZM241.02 609.288H236.532V615.552H241.02C241.86 615.552 242.556 615.24 243.132 614.64C243.732 614.016 244.02 613.272 244.02 612.408C244.02 611.544 243.732 610.8 243.132 610.2C242.556 609.6 241.86 609.288 241.02 609.288ZM259.667 618.96H249.611C250.019 621.096 251.675 622.344 253.955 622.344C255.539 622.344 256.691 621.768 257.411 620.592L259.187 621.6C258.011 623.4 256.259 624.312 253.907 624.312C252.011 624.312 250.451 623.712 249.251 622.536C248.075 621.336 247.475 619.824 247.475 618C247.475 616.2 248.051 614.688 249.227 613.488C250.403 612.288 251.915 611.688 253.763 611.688C255.515 611.688 256.955 612.312 258.059 613.56C259.187 614.784 259.739 616.272 259.739 618.024C259.739 618.336 259.715 618.648 259.667 618.96ZM253.763 613.656C251.531 613.656 249.971 615.024 249.611 617.136H257.627C257.267 614.856 255.683 613.656 253.763 613.656ZM263.47 615.24C263.47 616.176 264.526 616.68 265.846 617.04C267.718 617.448 270.214 618.144 270.19 620.712C270.19 621.792 269.758 622.68 268.918 623.328C268.078 623.976 267.022 624.312 265.702 624.312C263.374 624.312 261.622 623.208 260.926 621.504L262.726 620.472C263.11 621.624 264.238 622.344 265.702 622.344C267.07 622.344 268.078 621.84 268.078 620.712C268.078 619.776 267.022 619.248 265.702 618.936C263.806 618.432 261.358 617.808 261.358 615.264C261.358 614.232 261.766 613.368 262.558 612.696C263.374 612.024 264.382 611.688 265.606 611.688C267.55 611.688 269.158 612.624 269.926 614.184L268.174 615.168C267.742 614.136 266.878 613.632 265.606 613.632C264.43 613.632 263.47 614.208 263.47 615.24ZM282.462 622.488C281.238 623.712 279.726 624.312 277.974 624.312C276.222 624.312 274.71 623.712 273.486 622.488C272.262 621.264 271.662 619.776 271.662 618C271.662 616.224 272.262 614.736 273.486 613.512C274.71 612.288 276.222 611.688 277.974 611.688C279.726 611.688 281.238 612.288 282.462 613.512C283.686 614.736 284.31 616.224 284.31 618C284.31 619.776 283.686 621.264 282.462 622.488ZM277.974 622.272C279.174 622.272 280.182 621.864 280.998 621.048C281.814 620.232 282.222 619.224 282.222 618C282.222 616.776 281.814 615.768 280.998 614.952C280.182 614.136 279.174 613.728 277.974 613.728C276.798 613.728 275.79 614.136 274.974 614.952C274.158 615.768 273.75 616.776 273.75 618C273.75 619.224 274.158 620.232 274.974 621.048C275.79 621.864 276.798 622.272 277.974 622.272ZM295.052 618.36V612H297.14V624H295.052V622.272C294.212 623.64 292.916 624.312 291.164 624.312C288.355 624.312 286.508 622.416 286.508 619.368V612H288.596V619.248C288.596 621.192 289.724 622.32 291.572 622.32C293.66 622.32 295.052 621.048 295.052 618.36ZM302.406 612V614.016C303.102 612.528 304.35 611.784 306.15 611.784V613.968C305.118 613.92 304.254 614.184 303.51 614.784C302.766 615.384 302.406 616.32 302.406 617.64V624H300.318V612H302.406ZM313.177 624.312C311.377 624.312 309.865 623.712 308.665 622.512C307.465 621.288 306.865 619.8 306.865 618C306.865 616.2 307.465 614.712 308.665 613.512C309.865 612.288 311.377 611.688 313.177 611.688C315.553 611.688 317.545 612.912 318.481 614.832L316.729 615.84C316.129 614.568 314.785 613.728 313.177 613.728C311.977 613.728 310.969 614.136 310.153 614.952C309.361 615.768 308.953 616.776 308.953 618C308.953 619.2 309.361 620.208 310.153 621.024C310.969 621.84 311.977 622.248 313.177 622.248C314.785 622.248 316.129 621.432 316.801 620.16L318.577 621.192C317.545 623.088 315.505 624.312 313.177 624.312ZM331.995 618.96H321.939C322.347 621.096 324.003 622.344 326.283 622.344C327.867 622.344 329.019 621.768 329.739 620.592L331.515 621.6C330.339 623.4 328.587 624.312 326.235 624.312C324.339 624.312 322.779 623.712 321.579 622.536C320.403 621.336 319.803 619.824 319.803 618C319.803 616.2 320.379 614.688 321.555 613.488C322.731 612.288 324.243 611.688 326.091 611.688C327.843 611.688 329.283 612.312 330.387 613.56C331.515 614.784 332.067 616.272 332.067 618.024C332.067 618.336 332.043 618.648 331.995 618.96ZM326.091 613.656C323.859 613.656 322.299 615.024 321.939 617.136H329.955C329.595 614.856 328.011 613.656 326.091 613.656Z" fill="black"/>
<g clip-path="url(#clip0_1_144)">
<path fill-rule="evenodd" clip-rule="evenodd" d="M34.6718 46.7203C36.4305 45.6923 36.4305 42.3776 34.6718 39.3077C32.92 36.2378 30.0673 34.5804 28.3156 35.6084C26.5568 36.6364 26.5568 39.951 28.3156 43.021C30.0673 46.0909 32.92 47.7482 34.6718 46.7203ZM34.6857 53.2937C36.4375 56.3636 36.4375 59.6783 34.6857 60.7063C32.927 61.7343 30.0812 60.0769 28.3294 57.007C26.5776 53.9371 26.5776 50.6224 28.3294 49.5944C30.0881 48.5664 32.9339 50.2238 34.6857 53.2937ZM46.6643 60.2867C48.4161 63.3566 48.4161 66.6713 46.6643 67.6993C44.9056 68.7273 42.0598 67.0699 40.308 64C38.5562 60.9301 38.5562 57.6154 40.308 56.5874C42.0667 55.5594 44.9125 57.2168 46.6643 60.2867ZM46.6643 46.3077C48.4161 49.3776 48.4161 52.6923 46.6643 53.7203C44.9056 54.7482 42.0598 53.0909 40.308 50.021C38.5562 46.951 38.5562 43.6364 40.308 42.6084C42.0667 41.5804 44.9125 43.2378 46.6643 46.3077Z" fill="#F26E7E"/>
<path fill-rule="evenodd" clip-rule="evenodd" d="M70.6215 43.028C72.3733 39.958 72.3733 36.6434 70.6215 35.6154C68.8628 34.5874 66.017 36.2448 64.2652 39.3147C62.5135 42.3846 62.5135 45.6993 64.2652 46.7273C66.024 47.7552 68.8697 46.0979 70.6215 43.028ZM70.6215 49.5944C72.3802 50.6224 72.3802 53.9371 70.6215 57.007C68.8697 60.0769 66.017 61.7343 64.2652 60.7063C62.5135 59.6783 62.5065 56.3636 64.2652 53.2937C66.017 50.2238 68.8697 48.5664 70.6215 49.5944ZM58.6429 56.5804C60.4016 57.6084 60.4016 60.9231 58.6429 63.993C56.8911 67.0629 54.0384 68.7203 52.2866 67.6923C50.5349 66.6643 50.5279 63.3497 52.2866 60.2797C54.0384 57.2098 56.8911 55.5525 58.6429 56.5804ZM58.6429 42.6014C60.4016 43.6294 60.4016 46.9441 58.6429 50.014C56.8911 53.0839 54.0384 54.7413 52.2866 53.7133C50.5279 52.6853 50.5279 49.3706 52.2866 46.3007C54.0384 43.2308 56.8911 41.5734 58.6429 42.6014Z" fill="#8A3391"/>
<path fill-rule="evenodd" clip-rule="evenodd" d="M55.8179 23.7133C55.8179 25.7622 52.9721 27.4266 49.4686 27.4266C45.965 27.4266 43.1192 25.7622 43.1192 23.7133C43.1192 21.6643 45.9581 20 49.4616 20C52.9652 20 55.811 21.6643 55.811 23.7133H55.8179ZM43.8393 30.6923C43.8393 32.7413 40.9935 34.4056 37.49 34.4056C33.9864 34.4056 31.1406 32.7413 31.1406 30.6923C31.1406 28.6434 33.9864 26.979 37.49 26.979C40.9935 26.979 43.8393 28.6434 43.8393 30.6923ZM61.4541 34.4056C64.9646 34.4056 67.8035 32.7413 67.8035 30.6923C67.8035 28.6434 64.9577 26.979 61.4541 26.979C57.9505 26.979 55.1047 28.6434 55.1047 30.6923C55.1047 32.7413 57.9505 34.4056 61.4541 34.4056ZM55.8179 37.6853C55.8179 39.7343 52.9721 41.3986 49.4686 41.3986C45.965 41.3986 43.1192 39.7343 43.1192 37.6853C43.1192 35.6364 45.965 33.972 49.4686 33.972C52.9721 33.972 55.8179 35.6364 55.8179 37.6853Z" fill="#F7BF2A"/>
<path fill-rule="evenodd" clip-rule="evenodd" d="M141.247 28.6224H143.608C144.342 28.6224 144.75 29.035 144.75 29.7762V57.4755C144.75 58.2168 144.342 58.6294 143.608 58.6294H141.247C140.513 58.6294 140.104 58.2168 140.104 57.4755V29.7762C140.104 29.035 140.513 28.6224 141.247 28.6224ZM95.8251 58.6224C96.559 58.6224 96.9676 58.2098 96.9676 57.4685V48.1958H101.752C107.818 48.1958 111.626 44.5385 111.626 39.028C111.626 33.5175 107.818 29.8601 101.752 29.8601H93.3047C92.5708 29.8601 92.1623 30.2727 92.1623 31.014V57.4755C92.1623 58.2168 92.5708 58.6294 93.3047 58.6294H95.832L95.8251 58.6224ZM96.9676 33.951H101.447C104.868 33.951 106.8 35.9441 106.8 39.028C106.8 42.1119 104.868 44.1259 101.447 44.1259H96.9676V33.951ZM115.046 38.4965V50.4615C115.046 55.7063 118.404 59.0979 123.473 59.0979C126.159 59.0979 128.458 57.7622 129.884 55.8112V57.4755C129.884 58.2168 130.293 58.6294 131.027 58.6294H133.409C134.143 58.6294 134.551 58.2168 134.551 57.4755V38.4965C134.551 37.7552 134.143 37.3427 133.409 37.3427H131.027C130.293 37.3427 129.884 37.7552 129.884 38.4965V48.9441C129.884 52.4825 127.357 54.965 124.428 54.965C121.499 54.965 119.685 52.951 119.685 50.0699V38.4965C119.685 37.7552 119.277 37.3427 118.543 37.3427H116.182C115.448 37.3427 115.039 37.7552 115.039 38.4965H115.046ZM149.923 38.4965V50.4615C149.923 55.7063 153.281 59.0979 158.349 59.0979C161.036 59.0979 163.335 57.7622 164.761 55.8112V57.4755C164.761 58.2168 165.169 58.6294 165.903 58.6294H168.285C169.019 58.6294 169.428 58.2168 169.428 57.4755V38.4965C169.428 37.7552 169.019 37.3427 168.285 37.3427H165.903C165.169 37.3427 164.761 37.7552 164.761 38.4965V48.9441C164.761 52.4825 162.234 54.965 159.305 54.965C156.376 54.965 154.562 52.951 154.562 50.0699V38.4965C154.562 37.7552 154.153 37.3427 153.419 37.3427H151.058C150.324 37.3427 149.916 37.7552 149.916 38.4965H149.923ZM207.621 45.5105V57.4965C207.621 58.2378 207.212 58.6503 206.478 58.6503H204.097C203.363 58.6503 202.954 58.2378 202.954 57.4965V45.9231C202.954 43.042 201.181 41.028 198.578 41.028C195.975 41.028 193.468 43.6993 193.468 46.9301V57.4965C193.468 58.2378 193.06 58.6503 192.326 58.6503H189.944C189.21 58.6503 188.801 58.2378 188.801 57.4965V45.9231C188.801 43.042 187.029 41.028 184.425 41.028C181.822 41.028 179.315 43.4545 179.315 46.9301V57.4965C179.315 58.2378 178.907 58.6503 178.173 58.6503H175.791C175.057 58.6503 174.649 58.2378 174.649 57.4965V38.4965C174.649 37.7552 175.057 37.3427 175.791 37.3427H178.173C178.907 37.3427 179.315 37.7552 179.315 38.4965V40.1189C180.804 38.1469 182.937 36.8462 185.402 36.8462C188.58 36.8462 191.245 38.5105 192.568 41.2657C193.953 38.5944 196.515 36.8462 199.534 36.8462C204.117 36.8462 207.614 40.2587 207.614 45.5035L207.621 45.5105ZM218.007 31.5524C218.007 29.9301 216.747 28.6713 215.113 28.6713C213.479 28.6713 212.239 29.9231 212.239 31.5524C212.239 33.1818 213.479 34.4126 215.113 34.4126C216.747 34.4126 218.007 33.1608 218.007 31.5524ZM217.439 38.5035C217.439 37.7622 217.031 37.3496 216.297 37.3496H213.936C213.202 37.3496 212.793 37.7622 212.793 38.5035V57.4825C212.793 58.2238 213.202 58.6364 213.936 58.6364H216.297C217.031 58.6364 217.439 58.2238 217.439 57.4825V38.5035Z" fill="black"/>
</g>
<defs>
<clipPath id="clip0_1_144">
<rect width="191" height="48" fill="white" transform="translate(27 20)"/>
</clipPath>
</defs>
</svg>
