<svg width="49" height="42" viewBox="0 0 49 42" fill="none" xmlns="http://www.w3.org/2000/svg">
<path d="M38.435 15.8041C34.7361 11.7404 32.567 6.49075 32.3068 0.973022C32.04 6.48361 29.8835 11.7279 26.2079 15.8041C23.4064 18.419 19.8068 19.9886 16.0039 20.2534C29.1695 23.2196 30.6648 27.6392 32.3068 39.1184C33.597 28.2028 36.1189 24.8807 48.6394 20.2534C44.8354 19.9933 41.2339 18.423 38.435 15.8041Z" fill="#F8F9FE"/>
<path d="M11.2622 29.4168C9.4057 27.3772 8.31702 24.7424 8.18642 21.973C8.0525 24.7388 6.97014 27.371 5.12537 29.4168C3.71927 30.7292 1.91259 31.517 0.00390625 31.6499C6.6118 33.1387 7.36227 35.3569 8.18642 41.1184C8.83396 35.6398 10.0997 33.9724 16.3838 31.6499C14.4746 31.5194 12.667 30.7313 11.2622 29.4168Z" fill="#F8F9FE"/>
</svg>
