<svg width="692" height="434" viewBox="0 0 692 434" fill="none" xmlns="http://www.w3.org/2000/svg">
<g clip-path="url(#clip0_1058_36490)">
<path d="M159.127 51.3538L71.0004 51.3677" stroke="#DEDBFF" stroke-miterlimit="10"/>
<path d="M159.127 65.3921L71.0004 65.4061" stroke="#DEDBFF" stroke-miterlimit="10"/>
<path d="M159.127 79.4375L71.0004 79.4445" stroke="#DEDBFF" stroke-miterlimit="10"/>
<path d="M159.127 93.4761L71.0004 93.4831" stroke="#DEDBFF" stroke-miterlimit="10"/>
</g>
<rect x="71" y="35.3557" width="51.0643" height="69.1839" fill="url(#paint0_linear_1058_36490)"/>
<rect x="139.037" y="9.5" width="123.366" height="123.366" rx="17.5" stroke="#702EEA" stroke-opacity="0.3" stroke-dasharray="15 4"/>
<path d="M239.063 23.8992H161.142C155.935 23.8992 151.715 28.1197 151.715 33.3259V111.247C151.715 116.454 155.935 120.674 161.142 120.674H239.063C244.269 120.674 248.49 116.454 248.49 111.247V33.3259C248.49 28.1197 244.269 23.8992 239.063 23.8992Z" fill="#FAF9FD" stroke="#5A30C5" stroke-miterlimit="10"/>
<path d="M219.561 83.0613L213.561 89.0613C213.422 89.2007 213.256 89.3114 213.074 89.3868C212.892 89.4623 212.697 89.5012 212.5 89.5012C212.303 89.5012 212.108 89.4623 211.925 89.3868C211.743 89.3114 211.578 89.2007 211.439 89.0613L205.439 83.0613C205.157 82.7798 204.999 82.398 204.999 82C204.999 81.602 205.157 81.2202 205.439 80.9387C205.72 80.6573 206.102 80.4992 206.5 80.4992C206.898 80.4992 207.28 80.6573 207.561 80.9387L211 84.3794V73.6206L200.5 63.1206L190 73.6206V84.3794L193.439 80.9387C193.72 80.6573 194.102 80.4992 194.5 80.4992C194.898 80.4992 195.28 80.6573 195.561 80.9387C195.843 81.2202 196.001 81.602 196.001 82C196.001 82.398 195.843 82.7798 195.561 83.0613L189.561 89.0613C189.422 89.2007 189.256 89.3114 189.074 89.3868C188.892 89.4623 188.697 89.5012 188.5 89.5012C188.303 89.5012 188.108 89.4623 187.925 89.3868C187.743 89.3114 187.578 89.2007 187.439 89.0613L181.439 83.0613C181.299 82.9219 181.189 82.7564 181.113 82.5743C181.038 82.3923 180.999 82.1971 180.999 82C180.999 81.8029 181.038 81.6077 181.113 81.4257C181.189 81.2436 181.299 81.0781 181.439 80.9387C181.72 80.6573 182.102 80.4992 182.5 80.4992C182.697 80.4992 182.892 80.538 183.074 80.6134C183.256 80.6888 183.422 80.7994 183.561 80.9387L187 84.3794V73C187 72.803 187.038 72.6078 187.114 72.4257C187.189 72.2436 187.299 72.0782 187.439 71.9387L199 60.3794V52C199 51.6022 199.158 51.2206 199.439 50.9393C199.721 50.658 200.102 50.5 200.5 50.5C200.898 50.5 201.279 50.658 201.561 50.9393C201.842 51.2206 202 51.6022 202 52V60.3794L213.561 71.9387C213.7 72.0782 213.811 72.2436 213.886 72.4257C213.961 72.6078 214 72.803 214 73V84.3794L217.439 80.9387C217.72 80.6573 218.102 80.4992 218.5 80.4992C218.898 80.4992 219.28 80.6573 219.561 80.9387C219.843 81.2202 220.001 81.602 220.001 82C220.001 82.398 219.843 82.7798 219.561 83.0613Z" fill="#5A30C5"/>
<g clip-path="url(#clip1_1058_36490)">
<path d="M298.318 241.609L71 241.623" stroke="#DEDBFF" stroke-miterlimit="10"/>
<path d="M298.318 255.648L71 255.662" stroke="#DEDBFF" stroke-miterlimit="10"/>
<path d="M298.318 269.693L71 269.7" stroke="#DEDBFF" stroke-miterlimit="10"/>
<path d="M298.318 283.732L71 283.739" stroke="#DEDBFF" stroke-miterlimit="10"/>
</g>
<rect x="71" y="225.611" width="51.0643" height="69.1839" fill="url(#paint1_linear_1058_36490)"/>
<rect x="278.228" y="199.756" width="123.366" height="123.366" rx="17.5" stroke="#702EEA" stroke-opacity="0.3" stroke-dasharray="15 4"/>
<path d="M378.254 214.155H300.333C295.126 214.155 290.906 218.375 290.906 223.582V301.503C290.906 306.709 295.126 310.93 300.333 310.93H378.254C383.46 310.93 387.681 306.709 387.681 301.503V223.582C387.681 218.375 383.46 214.155 378.254 214.155Z" fill="#FAF9FD" stroke="#5A30C5" stroke-miterlimit="10"/>
<g clip-path="url(#clip2_1058_36490)">
<path d="M433.392 146.069L71 146.083" stroke="#DEDBFF" stroke-miterlimit="10"/>
<path d="M433.392 160.108L71 160.122" stroke="#DEDBFF" stroke-miterlimit="10"/>
<path d="M433.392 174.153L71 174.16" stroke="#DEDBFF" stroke-miterlimit="10"/>
<path d="M433.392 188.192L71 188.199" stroke="#DEDBFF" stroke-miterlimit="10"/>
</g>
<rect x="71" y="130.072" width="51.0643" height="69.1839" fill="url(#paint2_linear_1058_36490)"/>
<rect x="413.301" y="104.216" width="123.366" height="123.366" rx="17.5" stroke="#702EEA" stroke-opacity="0.3" stroke-dasharray="15 4"/>
<path d="M513.327 118.615H435.406C430.2 118.615 425.979 122.836 425.979 128.042V205.964C425.979 211.17 430.2 215.39 435.406 215.39H513.327C518.534 215.39 522.754 211.17 522.754 205.964V128.042C522.754 122.836 518.534 118.615 513.327 118.615Z" fill="#FAF9FD" stroke="#5A30C5" stroke-miterlimit="10"/>
<g clip-path="url(#clip3_1058_36490)">
<path d="M518.224 337.149L70.9999 337.163" stroke="#DEDBFF" stroke-miterlimit="10"/>
<path d="M518.224 351.188L70.9999 351.201" stroke="#DEDBFF" stroke-miterlimit="10"/>
<path d="M518.224 365.233L70.9999 365.24" stroke="#DEDBFF" stroke-miterlimit="10"/>
<path d="M518.224 379.271L70.9999 379.278" stroke="#DEDBFF" stroke-miterlimit="10"/>
</g>
<rect x="71" y="321.151" width="51.0643" height="69.1839" fill="url(#paint3_linear_1058_36490)"/>
<rect x="498.134" y="295.295" width="123.366" height="123.366" rx="17.5" stroke="#702EEA" stroke-opacity="0.3" stroke-dasharray="15 4"/>
<path d="M598.16 309.694H520.238C515.032 309.694 510.812 313.915 510.812 319.121V397.043C510.812 402.249 515.032 406.469 520.238 406.469H598.16C603.366 406.469 607.587 402.249 607.587 397.043V319.121C607.587 313.915 603.366 309.694 598.16 309.694Z" fill="#FAF9FD" stroke="#5A30C5" stroke-miterlimit="10"/>
<g clip-path="url(#clip4_1058_36490)">
<path d="M562.5 364.378C564.852 362.913 566.662 360.723 567.658 358.137C568.653 355.552 568.78 352.713 568.018 350.05C567.257 347.386 565.648 345.043 563.436 343.375C561.225 341.707 558.53 340.805 555.76 340.805C552.989 340.805 550.294 341.707 548.083 343.375C545.871 345.043 544.263 347.386 543.501 350.05C542.739 352.713 542.866 355.552 543.861 358.137C544.857 360.723 546.668 362.913 549.019 364.378C545.147 365.645 541.663 368.013 538.862 371.347C538.731 371.497 538.631 371.672 538.568 371.861C538.505 372.05 538.48 372.25 538.496 372.449C538.511 372.648 538.565 372.841 538.656 373.019C538.747 373.196 538.873 373.354 539.025 373.482C539.178 373.611 539.355 373.707 539.545 373.767C539.735 373.826 539.936 373.847 540.134 373.828C540.333 373.809 540.525 373.75 540.701 373.656C540.877 373.562 541.032 373.433 541.157 373.278C544.922 368.786 550.108 366.313 555.75 366.313C561.392 366.313 566.578 368.786 570.351 373.278C570.607 373.583 570.974 373.774 571.37 373.808C571.767 373.843 572.161 373.718 572.466 373.462C572.771 373.206 572.961 372.839 572.996 372.443C573.03 372.046 572.906 371.652 572.65 371.347C569.846 368.013 566.363 365.645 562.5 364.378ZM546 353.563C546 351.634 546.572 349.749 547.643 348.146C548.715 346.542 550.237 345.293 552.019 344.555C553.801 343.817 555.761 343.624 557.652 344C559.544 344.376 561.281 345.305 562.644 346.668C564.008 348.032 564.937 349.769 565.313 351.661C565.689 353.552 565.496 355.512 564.758 357.294C564.02 359.075 562.77 360.598 561.167 361.67C559.564 362.741 557.679 363.313 555.75 363.313C553.165 363.31 550.687 362.282 548.859 360.454C547.031 358.626 546.003 356.148 546 353.563ZM582.797 361.638L581.923 361.134C582.026 360.591 582.026 360.034 581.923 359.491L582.797 358.987C582.968 358.889 583.117 358.757 583.237 358.601C583.357 358.445 583.445 358.266 583.496 358.076C583.547 357.886 583.56 357.687 583.535 357.492C583.509 357.297 583.445 357.108 583.346 356.938C583.248 356.767 583.117 356.617 582.961 356.498C582.804 356.378 582.626 356.29 582.436 356.239C582.245 356.188 582.047 356.175 581.851 356.2C581.656 356.226 581.468 356.29 581.297 356.388L580.421 356.895C580.002 356.535 579.521 356.256 579 356.071V355.063C579 354.665 578.842 354.283 578.561 354.002C578.28 353.721 577.898 353.563 577.5 353.563C577.102 353.563 576.721 353.721 576.44 354.002C576.158 354.283 576 354.665 576 355.063V356.071C575.48 356.256 574.998 356.535 574.579 356.895L573.703 356.388C573.533 356.29 573.344 356.226 573.149 356.2C572.954 356.175 572.755 356.188 572.565 356.239C572.375 356.29 572.196 356.378 572.04 356.498C571.884 356.617 571.752 356.767 571.654 356.938C571.555 357.108 571.492 357.297 571.466 357.492C571.44 357.687 571.453 357.886 571.504 358.076C571.555 358.266 571.643 358.445 571.763 358.601C571.883 358.757 572.033 358.889 572.203 358.987L573.077 359.491C572.975 360.034 572.975 360.591 573.077 361.134L572.203 361.638C572.033 361.737 571.883 361.868 571.763 362.024C571.643 362.181 571.555 362.359 571.504 362.549C571.453 362.74 571.44 362.938 571.466 363.133C571.492 363.329 571.555 363.517 571.654 363.688C571.752 363.858 571.884 364.008 572.04 364.128C572.196 364.248 572.375 364.336 572.565 364.387C572.755 364.438 572.954 364.451 573.149 364.425C573.344 364.399 573.533 364.336 573.703 364.237L574.579 363.731C574.998 364.09 575.48 364.369 576 364.554V365.563C576 365.961 576.158 366.342 576.44 366.623C576.721 366.905 577.102 367.063 577.5 367.063C577.898 367.063 578.28 366.905 578.561 366.623C578.842 366.342 579 365.961 579 365.563V364.554C579.521 364.369 580.002 364.09 580.421 363.731L581.297 364.237C581.525 364.369 581.784 364.438 582.047 364.438C582.377 364.438 582.698 364.329 582.961 364.128C583.223 363.927 583.411 363.645 583.497 363.326C583.582 363.007 583.56 362.668 583.433 362.363C583.307 362.058 583.083 361.803 582.797 361.638ZM576 360.313C576 360.016 576.088 359.726 576.253 359.479C576.418 359.233 576.652 359.04 576.926 358.927C577.2 358.813 577.502 358.784 577.793 358.841C578.084 358.899 578.351 359.042 578.561 359.252C578.771 359.462 578.913 359.729 578.971 360.02C579.029 360.311 579 360.613 578.886 360.887C578.772 361.161 578.58 361.395 578.334 361.56C578.087 361.725 577.797 361.813 577.5 361.813C577.102 361.813 576.721 361.655 576.44 361.373C576.158 361.092 576 360.711 576 360.313Z" fill="#5A30C5"/>
</g>
<g clip-path="url(#clip5_1058_36490)">
<path d="M348 265.5H354C354.796 265.5 355.559 265.184 356.121 264.621C356.684 264.059 357 263.296 357 262.5V256.5C357 255.704 356.684 254.941 356.121 254.379C355.559 253.816 354.796 253.5 354 253.5H348C347.204 253.5 346.441 253.816 345.879 254.379C345.316 254.941 345 255.704 345 256.5V258H331.5V252H333C333.796 252 334.559 251.684 335.121 251.121C335.684 250.559 336 249.796 336 249V243C336 242.204 335.684 241.441 335.121 240.879C334.559 240.316 333.796 240 333 240H327C326.204 240 325.441 240.316 324.879 240.879C324.316 241.441 324 242.204 324 243V249C324 249.796 324.316 250.559 324.879 251.121C325.441 251.684 326.204 252 327 252H328.5V273C328.5 274.193 328.974 275.338 329.818 276.182C330.662 277.026 331.807 277.5 333 277.5H345V279C345 279.796 345.316 280.559 345.879 281.121C346.441 281.684 347.204 282 348 282H354C354.796 282 355.559 281.684 356.121 281.121C356.684 280.559 357 279.796 357 279V273C357 272.204 356.684 271.441 356.121 270.879C355.559 270.316 354.796 270 354 270H348C347.204 270 346.441 270.316 345.879 270.879C345.316 271.441 345 272.204 345 273V274.5H333C332.602 274.5 332.221 274.342 331.939 274.061C331.658 273.779 331.5 273.398 331.5 273V261H345V262.5C345 263.296 345.316 264.059 345.879 264.621C346.441 265.184 347.204 265.5 348 265.5ZM327 243H333V249H327V243ZM348 273H354V279H348V273ZM348 256.5H354V262.5H348V256.5Z" fill="#5A30C5"/>
</g>
<path d="M489.968 154.329L486.968 148.329C486.843 148.08 486.651 147.87 486.414 147.724C486.177 147.577 485.904 147.5 485.625 147.5H458.625C458.346 147.5 458.073 147.577 457.836 147.724C457.599 147.87 457.407 148.08 457.283 148.329L454.283 154.329C454.179 154.537 454.125 154.767 454.125 155V180.5C454.125 181.296 454.441 182.059 455.004 182.621C455.566 183.184 456.329 183.5 457.125 183.5H487.125C487.921 183.5 488.684 183.184 489.246 182.621C489.809 182.059 490.125 181.296 490.125 180.5V155C490.125 154.767 490.071 154.537 489.968 154.329ZM459.551 150.5H484.699L486.199 153.5H458.051L459.551 150.5ZM487.125 180.5H457.125V156.5H487.125V180.5ZM479.186 165.939C479.326 166.078 479.436 166.244 479.512 166.426C479.587 166.608 479.626 166.803 479.626 167C479.626 167.197 479.587 167.392 479.512 167.574C479.436 167.756 479.326 167.922 479.186 168.061C479.047 168.201 478.881 168.311 478.699 168.387C478.517 168.462 478.322 168.501 478.125 168.501C477.928 168.501 477.733 168.462 477.551 168.387C477.369 168.311 477.203 168.201 477.064 168.061L473.625 164.621V176C473.625 176.398 473.467 176.779 473.186 177.061C472.904 177.342 472.523 177.5 472.125 177.5C471.727 177.5 471.346 177.342 471.064 177.061C470.783 176.779 470.625 176.398 470.625 176V164.621L467.186 168.061C467.047 168.201 466.881 168.311 466.699 168.387C466.517 168.462 466.322 168.501 466.125 168.501C465.928 168.501 465.733 168.462 465.551 168.387C465.369 168.311 465.203 168.201 465.064 168.061C464.924 167.922 464.814 167.756 464.738 167.574C464.663 167.392 464.624 167.197 464.624 167C464.624 166.803 464.663 166.608 464.738 166.426C464.814 166.244 464.924 166.078 465.064 165.939L471.064 159.939C471.203 159.799 471.368 159.689 471.551 159.613C471.733 159.538 471.928 159.499 472.125 159.499C472.322 159.499 472.517 159.538 472.699 159.613C472.882 159.689 473.047 159.799 473.186 159.939L479.186 165.939Z" fill="#5A30C5"/>
<defs>
<linearGradient id="paint0_linear_1058_36490" x1="122.064" y1="76.5366" x2="82.5306" y2="76.5366" gradientUnits="userSpaceOnUse">
<stop stop-color="white" stop-opacity="0"/>
<stop offset="1" stop-color="white"/>
</linearGradient>
<linearGradient id="paint1_linear_1058_36490" x1="122.064" y1="266.792" x2="82.5306" y2="266.792" gradientUnits="userSpaceOnUse">
<stop stop-color="white" stop-opacity="0"/>
<stop offset="1" stop-color="white"/>
</linearGradient>
<linearGradient id="paint2_linear_1058_36490" x1="122.064" y1="171.253" x2="82.5306" y2="171.253" gradientUnits="userSpaceOnUse">
<stop stop-color="white" stop-opacity="0"/>
<stop offset="1" stop-color="white"/>
</linearGradient>
<linearGradient id="paint3_linear_1058_36490" x1="122.064" y1="362.332" x2="82.5306" y2="362.332" gradientUnits="userSpaceOnUse">
<stop stop-color="white" stop-opacity="0"/>
<stop offset="1" stop-color="white"/>
</linearGradient>
<clipPath id="clip0_1058_36490">
<rect width="42.8281" height="88.1271" fill="white" transform="translate(159.127 51.0044) rotate(90)"/>
</clipPath>
<clipPath id="clip1_1058_36490">
<rect width="42.8281" height="227.318" fill="white" transform="translate(298.318 241.26) rotate(90)"/>
</clipPath>
<clipPath id="clip2_1058_36490">
<rect width="42.8281" height="362.392" fill="white" transform="translate(433.392 145.72) rotate(90)"/>
</clipPath>
<clipPath id="clip3_1058_36490">
<rect width="42.8281" height="447.224" fill="white" transform="translate(518.224 336.8) rotate(90)"/>
</clipPath>
<clipPath id="clip4_1058_36490">
<rect width="53" height="53" fill="white" transform="translate(533 329)"/>
</clipPath>
<clipPath id="clip5_1058_36490">
<rect width="46" height="46" fill="white" transform="translate(316 238)"/>
</clipPath>
</defs>
</svg>
