<svg width="779" height="504" viewBox="0 0 779 504" fill="none" xmlns="http://www.w3.org/2000/svg">
<path opacity="0.03" d="M336.401 469.382L538.589 352.274C545.995 347.975 552 336.466 552 326.56V98.7855C552 88.8794 545.995 84.3249 538.589 88.6138L336.411 205.732C329.005 210.021 323 221.54 323 231.446V459.21C323 469.117 329.005 473.681 336.411 469.382H336.401Z" fill="#5a30c5"/>
<path opacity="0.03" d="M292.401 445.382L494.589 328.274C501.995 323.975 508 312.466 508 302.56V74.7855C508 64.8794 501.995 60.3249 494.589 64.6138L292.411 181.732C285.005 186.021 279 197.54 279 207.446V435.21C279 445.117 285.005 449.681 292.411 445.382H292.401Z" fill="#5a30c5"/>
<path opacity="0.03" d="M247.46 420.382L450.531 303.274C457.968 298.975 464 287.466 464 277.56V49.7855C464 39.8794 457.968 35.3249 450.531 39.6138L247.469 156.732C240.032 161.021 234 172.54 234 182.446V410.21C234 420.117 240.032 424.681 247.469 420.382H247.46Z" fill="#5a30c5"/>
<path opacity="0.03" d="M203.401 396.382L405.589 279.274C412.995 274.975 419 263.466 419 253.56V25.7855C419 15.8794 412.995 11.3249 405.589 15.6138L203.411 132.732C196.005 137.021 190 148.54 190 158.446V386.21C190 396.117 196.005 400.681 203.411 396.382H203.401Z" fill="#5a30c5"/>
<path d="M584.754 109.772C582.591 108.143 579.576 107.981 576.116 109.855L575.78 110.043L372.719 226.855C369.107 228.933 365.797 232.79 363.388 237.378C360.981 241.961 359.5 247.224 359.5 252.069V479.241C359.5 484.098 360.983 487.522 363.246 489.228C365.409 490.857 368.424 491.019 371.883 489.142L372.21 488.953L575.281 372.149C578.893 370.067 582.203 366.211 584.612 361.624C587.019 357.042 588.5 351.781 588.5 346.936V119.755C588.5 114.898 587.017 111.477 584.754 109.772Z" stroke="#5a30c5"/>
<path d="M460.919 210.897L395.875 248.452C391.529 250.962 388.006 257.064 388.006 262.082L388.004 337.19C388.004 342.208 391.526 344.242 395.872 341.733L460.916 304.177C465.262 301.668 468.785 295.565 468.785 290.547L468.788 215.439C468.788 210.421 465.265 208.387 460.919 210.897Z" fill="#f5f5ff" stroke="#5a30c5" stroke-miterlimit="10"/>
<g clip-path="url(#clip0_1058_36432)">
<path d="M418.685 268.128C417.078 269.056 415.763 271.334 415.763 273.189C415.763 275.045 414.448 277.322 412.841 278.25L412.841 281.624C414.448 280.696 415.763 281.456 415.763 283.311C415.763 285.167 417.078 285.926 418.685 284.998L421.606 283.311L421.607 279.937L418.685 281.624L418.685 279.937C418.685 278.081 417.37 277.322 415.763 278.25C417.37 277.322 418.685 275.045 418.685 273.189L418.685 271.502L421.607 269.815L421.607 266.441M427.451 263.067C429.058 262.139 430.373 262.898 430.373 264.754C430.372 266.61 431.687 267.369 433.294 266.441L433.294 269.815C431.687 270.743 430.372 273.02 430.372 274.876C430.372 276.732 429.057 279.009 427.45 279.937L424.528 281.624L424.528 278.25L427.45 276.563L427.45 274.876C427.45 273.02 428.765 270.743 430.372 269.815C428.765 270.743 427.451 269.984 427.451 268.128L427.451 266.441L424.529 268.128L424.529 264.754L427.451 263.067ZM443.521 258.849L443.52 279.093C443.52 280.965 442.22 283.218 440.598 284.154L417.223 297.651C415.616 298.578 414.301 297.836 414.301 295.964L414.302 290.903L417.223 289.216L417.223 294.277L440.598 280.78L440.599 260.536L436.26 263.041L436.26 259.668L440.599 257.162C442.221 256.226 443.521 256.977 443.521 258.849Z" fill="#5a30c5"/>
</g>
<path d="M460.916 317.276L395.872 354.832C391.526 357.341 388.003 363.443 388.003 368.461L388 443.569C388 448.587 391.523 450.621 395.869 448.112L460.913 410.556C465.259 408.047 468.782 401.944 468.782 396.926L468.784 321.819C468.784 316.8 465.262 314.766 460.916 317.276Z" fill="#f5f5ff" stroke="#5a30c5" stroke-miterlimit="10"/>
<g clip-path="url(#clip1_1058_36432)">
<path d="M427.376 381.131L438.158 385.385L436.671 386.595L435.589 387.454C434.525 388.323 433.916 390.04 434.389 390.879L434.846 391.748L437.144 396.158L434.744 398.832L432.446 394.441L432.006 393.563C431.55 392.675 430.282 393.055 429.437 394.343L428.575 395.622L427.375 397.427L427.376 381.131ZM426.125 377.345C425.784 377.542 425.458 377.887 425.217 378.304C424.976 378.721 424.841 379.177 424.841 379.57L424.84 401.916C424.84 402.736 425.414 403.067 426.124 402.657C426.445 402.472 426.716 402.199 426.936 401.877L430.164 396.988L432.969 402.433C433.189 402.833 433.645 402.882 434.135 402.599C434.321 402.491 434.507 402.384 434.693 402.12L439.358 396.929C440 396.207 440.304 395.134 439.966 394.607L437.144 389.152L441.217 385.922C441.488 385.668 441.741 385.385 441.944 384.995C442.4 384.107 442.333 383.229 441.741 383.004L426.97 377.189L426.953 377.218C426.734 377.13 426.446 377.16 426.125 377.345ZM433.291 375.764L433.291 371.861L441.742 366.982L441.742 370.885L433.291 375.764ZM431.314 366.679L436.097 358.395L438.48 359.77L433.697 368.055L431.314 366.679ZM424.841 361.127L428.221 359.175L428.221 368.934L424.841 370.885L424.841 361.127ZM414.581 395.661L419.365 387.377L421.747 388.752L416.964 397.037L414.581 395.661ZM414.582 373.569L416.965 369.441L421.748 372.203L419.365 376.33L414.582 373.569ZM419.77 383.571L411.32 388.45L411.32 384.547L419.77 379.668L419.77 383.571Z" fill="#5a30c5"/>
</g>
<path d="M561.982 152.544L496.938 190.1C492.592 192.609 489.069 198.711 489.069 203.729L489.067 278.837C489.066 283.855 492.589 285.889 496.935 283.38L561.979 245.824C566.325 243.315 569.848 237.213 569.848 232.194L569.851 157.087C569.851 152.068 566.328 150.035 561.982 152.544Z" fill="#f5f5ff" stroke="#5a30c5" stroke-miterlimit="10"/>
<g clip-path="url(#clip2_1058_36432)">
<path d="M528.646 198.783L522.604 212.954L522.604 219.725L518.901 221.863L518.901 215.091L513.131 207.741L517.293 205.338L520.962 210.098L524.662 201.083L528.646 198.783Z" fill="#5a30c5"/>
<path d="M534.863 208.807L528.161 212.676L526.798 217.345L523.83 219.058L530.106 197.981L533.142 196.228L539.162 210.206L535.991 212.037L534.863 208.807L534.863 208.807ZM533.75 205.965L531.696 200.746L529.403 208.474L533.75 205.965Z" fill="#5a30c5"/>
<path d="M518.901 223.821L518.9 240.927L522.013 239.13L522.013 227.33L525.27 233.381L527.72 231.967L531.089 221.811L531.088 233.887L534.074 232.163L534.075 215.06L529.998 217.413L526.38 227.238L522.936 221.491L518.901 223.821Z" fill="#5a30c5"/>
<path d="M546.818 221.091L539.162 225.511L539.162 212.118L535.991 213.949L535.991 230.982L546.818 224.731L546.818 221.091L546.818 221.091Z" fill="#5a30c5"/>
</g>
<path d="M561.979 258.923L496.935 296.479C492.589 298.988 489.066 305.09 489.066 310.108L489.063 385.216C489.063 390.234 492.586 392.268 496.932 389.759L561.976 352.203C566.322 349.694 569.845 343.591 569.845 338.573L569.847 263.466C569.847 258.447 566.325 256.413 561.979 258.923Z" fill="#f5f5ff" stroke="#5a30c5" stroke-miterlimit="10"/>
<g clip-path="url(#clip3_1058_36432)">
<path d="M535.204 332.741C537.253 331.557 538.924 328.628 538.924 326.217C538.924 323.805 537.254 322.805 535.204 323.988C533.139 325.181 531.484 328.101 531.484 330.512C531.484 332.924 533.139 333.933 535.204 332.741ZM543.099 325.021L545.346 325.795C545.543 325.878 545.604 326.164 545.467 326.529L543.341 332.079C543.205 332.426 542.947 332.682 542.689 332.724L540.047 332.999C539.5 333.815 538.893 334.576 538.255 335.266L537.845 338.807C537.815 339.128 537.587 339.492 537.329 339.641L533.078 342.095C532.805 342.253 532.592 342.144 532.547 341.866L532.152 338.79C531.499 338.845 530.907 338.776 530.361 338.592L527.704 341.376C527.476 341.615 527.187 341.674 527.066 341.476L524.941 338.381C524.804 338.174 524.865 337.817 525.062 337.507L527.309 334.138L527.233 332.967L527.309 331.69L525.062 330.934C524.865 330.851 524.804 330.547 524.941 330.2L527.066 324.65C527.188 324.294 527.476 324.02 527.704 323.996L530.361 323.73C530.908 322.915 531.5 322.144 532.153 321.463L532.547 317.913C532.593 317.601 532.805 317.246 533.079 317.088L537.33 314.634C537.588 314.485 537.816 314.585 537.846 314.854L538.256 317.939C538.893 317.875 539.501 317.953 540.047 318.137L542.689 315.344C542.947 315.088 543.205 315.046 543.342 315.253L545.467 318.348C545.604 318.537 545.543 318.912 545.346 319.222L543.099 322.574L543.175 323.762L543.099 325.021ZM521.221 322.274C522.542 321.511 523.605 319.647 523.605 318.093C523.605 316.539 522.542 315.884 521.222 316.647C520.585 317.014 519.975 317.664 519.525 318.453C519.075 319.242 518.823 320.106 518.823 320.854C518.823 322.408 519.901 323.036 521.221 322.274ZM526.292 317.327L527.765 317.799C527.871 317.862 527.902 318.059 527.811 318.29L526.444 321.866C526.368 322.088 526.186 322.265 526.034 322.281L524.334 322.459L523.21 323.894L522.922 326.186C522.891 326.4 522.755 326.622 522.588 326.718L519.855 328.296C519.673 328.401 519.536 328.337 519.506 328.158L519.263 326.173L518.109 326.053L516.378 327.856C516.242 328.007 516.074 328.032 515.983 327.906L514.617 325.908C514.526 325.782 514.572 325.542 514.693 325.346L516.135 323.192L516.09 322.432L516.135 321.62L514.693 321.131C514.572 321.076 514.526 320.888 514.617 320.657L515.984 317.081C516.075 316.85 516.242 316.682 516.379 316.675L518.094 316.488L519.263 315.027L519.506 312.761C519.537 312.547 519.673 312.325 519.855 312.22L522.588 310.642C522.755 310.546 522.892 310.61 522.922 310.789L523.211 312.748L524.334 312.885L526.034 311.099C526.186 310.94 526.368 310.907 526.444 311.041L527.811 313.039C527.902 313.165 527.871 313.397 527.765 313.583L526.292 315.755L526.338 316.515L526.292 317.327Z" fill="#5a30c5"/>
</g>
<defs>
<clipPath id="clip0_1058_36432">
<rect width="40.4876" height="40.4876" fill="white" transform="matrix(0.86601 -0.500028 -3.185e-05 1 411.38 267.285)"/>
</clipPath>
<clipPath id="clip1_1058_36432">
<rect width="46.8386" height="46.8386" fill="white" transform="matrix(0.86601 -0.500028 -3.18649e-05 1 407.94 370.886)"/>
</clipPath>
<clipPath id="clip2_1058_36432">
<rect width="38.8999" height="36.5182" fill="white" transform="matrix(0.86601 -0.500028 -3.18649e-05 1 513.131 207.741)"/>
</clipPath>
<clipPath id="clip3_1058_36432">
<rect width="42.0754" height="42.8692" fill="white" transform="matrix(0.86601 -0.500028 -3.18649e-05 1 511.065 313.723)"/>
</clipPath>
</defs>
</svg>
