<svg width="756" height="497" viewBox="0 0 756 497" fill="none" xmlns="http://www.w3.org/2000/svg">
<path opacity="0.2" d="M321.401 461.882L523.589 344.774C530.995 340.475 537 328.966 537 319.06V91.2855C537 81.3794 530.995 76.8249 523.589 81.1138L321.411 198.232C314.005 202.521 308 214.04 308 223.946V451.71C308 461.617 314.005 466.181 321.411 461.882H321.401Z" fill="#DEDBFF"/>
<path opacity="0.2" d="M277.401 437.882L479.589 320.774C486.995 316.475 493 304.966 493 295.06V67.2855C493 57.3794 486.995 52.8249 479.589 57.1138L277.411 174.232C270.005 178.521 264 190.04 264 199.946V427.71C264 437.617 270.005 442.181 277.411 437.882H277.401Z" fill="#DEDBFF"/>
<path opacity="0.2" d="M232.46 412.882L435.531 295.774C442.968 291.475 449 279.966 449 270.06V42.2855C449 32.3794 442.968 27.8249 435.531 32.1138L232.469 149.232C225.032 153.521 219 165.04 219 174.946V402.71C219 412.617 225.032 417.181 232.469 412.882H232.46Z" fill="#DEDBFF"/>
<path opacity="0.2" d="M188.401 388.882L390.589 271.774C397.995 267.475 404 255.966 404 246.06V18.2855C404 8.37943 397.995 3.8249 390.589 8.11375L188.411 125.232C181.005 129.521 175 141.04 175 150.946V378.71C175 388.617 181.005 393.181 188.411 388.882H188.401Z" fill="#DEDBFF"/>
<path d="M569.754 102.272C567.591 100.643 564.576 100.481 561.116 102.355L560.78 102.543L357.719 219.355C354.107 221.433 350.797 225.29 348.388 229.878C345.981 234.461 344.5 239.724 344.5 244.569V471.741C344.5 476.598 345.983 480.022 348.246 481.728C350.409 483.357 353.424 483.519 356.883 481.642L357.21 481.453L560.281 364.649C563.893 362.567 567.203 358.711 569.612 354.124C572.019 349.542 573.5 344.281 573.5 339.436V112.255C573.5 107.398 572.017 103.977 569.754 102.272Z" stroke="#5A30C5"/>
<path d="M445.919 203.397L380.875 240.952C376.529 243.462 373.006 249.564 373.006 254.582L373.004 329.69C373.004 334.708 376.526 336.742 380.872 334.233L445.916 296.677C450.262 294.168 453.785 288.065 453.785 283.047L453.788 207.939C453.788 202.921 450.265 200.887 445.919 203.397Z" fill="#FAF9FD" stroke="#5A30C5" stroke-miterlimit="10"/>
<g clip-path="url(#clip0_1058_36432)">
<path d="M421.893 267.893C422.014 267.962 422.109 268.072 422.175 268.217C422.24 268.361 422.274 268.537 422.274 268.734C422.274 268.931 422.24 269.145 422.175 269.365C422.109 269.585 422.014 269.806 421.893 270.015L417.996 276.764C417.752 277.186 417.422 277.535 417.077 277.734C416.732 277.933 416.402 277.966 416.158 277.826C415.914 277.685 415.777 277.382 415.777 276.984C415.778 276.586 415.914 276.125 416.158 275.703L419.138 270.545L416.158 268.826C415.915 268.686 415.778 268.383 415.778 267.985C415.778 267.587 415.915 267.126 416.158 266.704C416.402 266.282 416.733 265.933 417.077 265.734C417.422 265.535 417.753 265.502 417.996 265.643L421.893 267.893ZM410.203 270.143C410.082 270.073 409.939 270.045 409.781 270.061C409.624 270.076 409.455 270.135 409.284 270.233C409.113 270.332 408.944 270.468 408.787 270.635C408.629 270.801 408.486 270.995 408.365 271.204L404.468 277.953C404.348 278.162 404.252 278.383 404.186 278.603C404.121 278.823 404.087 279.037 404.087 279.234C404.087 279.432 404.121 279.607 404.186 279.752C404.252 279.896 404.347 280.006 404.468 280.076L408.365 282.325C408.485 282.395 408.629 282.423 408.786 282.407C408.944 282.392 409.113 282.333 409.284 282.234C409.454 282.136 409.623 281.999 409.781 281.833C409.939 281.666 410.082 281.473 410.203 281.264C410.323 281.055 410.419 280.834 410.484 280.615C410.55 280.395 410.583 280.18 410.583 279.983C410.583 279.786 410.55 279.61 410.484 279.466C410.419 279.322 410.323 279.212 410.203 279.142L407.224 277.424L410.203 272.265C410.324 272.056 410.42 271.835 410.485 271.615C410.55 271.396 410.584 271.181 410.584 270.984C410.584 270.787 410.55 270.611 410.485 270.467C410.42 270.322 410.324 270.212 410.203 270.143ZM427.469 253.736L427.468 277.733C427.468 278.529 427.194 279.45 426.707 280.294C426.22 281.138 425.559 281.835 424.87 282.233L401.49 295.732C400.801 296.13 400.14 296.196 399.653 295.914C399.166 295.633 398.892 295.028 398.892 294.233L398.893 261.236C398.893 260.44 399.167 259.519 399.654 258.675C400.142 257.832 400.802 257.134 401.491 256.736L417.078 247.737C417.249 247.638 417.418 247.579 417.575 247.563C417.733 247.547 417.876 247.575 417.997 247.645L427.089 252.894C427.209 252.964 427.305 253.074 427.37 253.218C427.435 253.363 427.469 253.539 427.469 253.736ZM418.377 257.486L423.035 254.796L418.377 252.107L418.377 257.486ZM424.87 279.233L424.871 256.735L417.078 261.235C416.733 261.434 416.403 261.467 416.159 261.326C415.916 261.186 415.779 260.883 415.779 260.485L415.779 251.486L401.491 259.736L401.49 292.733L424.87 279.233Z" fill="#5A30C5"/>
</g>
<path d="M445.916 309.776L380.872 347.332C376.526 349.841 373.003 355.943 373.003 360.961L373 436.069C373 441.087 376.523 443.121 380.869 440.612L445.913 403.056C450.259 400.547 453.782 394.444 453.782 389.426L453.784 314.319C453.784 309.3 450.262 307.266 445.916 309.776Z" fill="#FAF9FD" stroke="#5A30C5" stroke-miterlimit="10"/>
<g clip-path="url(#clip1_1058_36432)">
<path d="M405.287 360.178L405.287 358.678C405.287 358.28 405.424 357.82 405.668 357.398C405.911 356.976 406.242 356.627 406.586 356.428C406.931 356.229 407.261 356.196 407.505 356.337C407.748 356.478 407.885 356.78 407.885 357.178L407.885 358.678C407.885 359.076 407.748 359.536 407.505 359.958C407.261 360.38 406.931 360.729 406.586 360.928C406.242 361.127 405.911 361.159 405.668 361.019C405.424 360.878 405.287 360.576 405.287 360.178ZM393.597 381.926L394.896 381.176C395.24 380.977 395.571 380.628 395.814 380.207C396.058 379.785 396.195 379.324 396.195 378.926C396.195 378.529 396.058 378.226 395.814 378.085C395.571 377.945 395.24 377.978 394.896 378.176L393.597 378.926C393.252 379.125 392.922 379.474 392.678 379.896C392.435 380.318 392.298 380.778 392.298 381.176C392.298 381.574 392.435 381.876 392.678 382.017C392.922 382.158 393.252 382.125 393.597 381.926ZM411.2 359.606C411.353 359.606 411.519 359.563 411.689 359.478C411.86 359.394 412.031 359.27 412.193 359.115C412.355 358.959 412.504 358.774 412.633 358.57C412.762 358.366 412.868 358.148 412.944 357.928L414.243 354.178C414.397 353.733 414.423 353.307 414.314 352.992C414.205 352.678 413.971 352.501 413.663 352.501C413.355 352.501 412.998 352.677 412.671 352.992C412.344 353.306 412.074 353.732 411.92 354.177L410.621 357.927C410.544 358.147 410.499 358.365 410.486 358.569C410.474 358.773 410.495 358.958 410.549 359.114C410.603 359.27 410.688 359.393 410.8 359.478C410.912 359.562 411.048 359.606 411.2 359.606ZM395.613 383.921L393.015 386.921C392.707 387.277 392.473 387.724 392.364 388.164C392.255 388.604 392.281 389.002 392.435 389.268C392.589 389.535 392.859 389.65 393.186 389.587C393.513 389.524 393.87 389.288 394.178 388.932L396.776 385.932C396.928 385.756 397.064 385.556 397.176 385.342C397.288 385.129 397.373 384.907 397.427 384.689C397.481 384.471 397.502 384.261 397.49 384.072C397.478 383.882 397.432 383.717 397.356 383.585C397.28 383.453 397.174 383.357 397.045 383.302C396.916 383.247 396.767 383.235 396.605 383.267C396.443 383.298 396.272 383.372 396.102 383.484C395.932 383.596 395.766 383.745 395.613 383.921ZM426.606 377.865C426.847 378.004 427.039 378.225 427.169 378.513C427.3 378.802 427.367 379.153 427.367 379.547C427.367 379.941 427.3 380.37 427.169 380.809C427.039 381.249 426.847 381.69 426.606 382.108L424.547 385.674C424.306 386.092 424.019 386.478 423.704 386.811C423.389 387.144 423.051 387.416 422.71 387.613C422.369 387.81 422.031 387.928 421.716 387.959C421.4 387.99 421.114 387.935 420.873 387.795L412.544 382.985L409.67 393.285C409.67 393.304 409.657 393.332 409.649 393.357C409.45 394.007 409.119 394.654 408.698 395.217C408.276 395.78 407.783 396.235 407.278 396.524L407.15 396.598C406.624 396.876 406.118 396.957 405.699 396.83C405.281 396.702 404.971 396.373 404.81 395.887L396.325 370.775C396.179 370.334 396.161 369.783 396.274 369.182C396.386 368.582 396.624 367.955 396.962 367.37C397.299 366.786 397.723 366.266 398.187 365.868C398.651 365.471 399.137 365.21 399.592 365.116L425.582 359.909C426.079 359.814 426.514 359.924 426.83 360.224C427.146 360.524 427.328 361 427.353 361.59C427.377 362.18 427.243 362.856 426.968 363.529C426.693 364.203 426.29 364.842 425.811 365.364L425.759 365.418L418.275 373.056L426.606 377.865ZM424.77 381.046L416.439 376.236C416.139 376.064 415.917 375.767 415.792 375.372C415.667 374.976 415.643 374.495 415.722 373.968C415.801 373.442 415.981 372.887 416.245 372.352C416.51 371.818 416.851 371.319 417.24 370.9L417.292 370.843L424.752 363.228L398.793 368.427L407.267 393.505L410.133 383.226C410.133 383.205 410.146 383.177 410.154 383.152C410.323 382.606 410.584 382.061 410.915 381.565C411.246 381.069 411.636 380.636 412.052 380.305C412.213 380.178 412.376 380.066 412.539 379.971C413.227 379.574 413.887 379.51 414.374 379.791L422.709 384.615L424.77 381.046Z" fill="#5A30C5"/>
</g>
<path d="M546.982 145.044L481.938 182.6C477.592 185.109 474.069 191.211 474.069 196.229L474.067 271.337C474.066 276.355 477.589 278.389 481.935 275.88L546.979 238.324C551.325 235.815 554.848 229.713 554.848 224.694L554.851 149.587C554.851 144.568 551.328 142.535 546.982 145.044Z" fill="#FAF9FD" stroke="#5A30C5" stroke-miterlimit="10"/>
<g clip-path="url(#clip2_1058_36432)">
<path d="M513.646 191.283L507.604 205.454L507.604 212.225L503.901 214.363L503.901 207.591L498.131 200.241L502.293 197.838L505.962 202.598L509.662 193.583L513.646 191.283Z" fill="#5A30C5"/>
<path d="M519.863 201.307L513.161 205.176L511.798 209.845L508.83 211.558L515.106 190.481L518.142 188.728L524.162 202.706L520.991 204.537L519.863 201.307L519.863 201.307ZM518.75 198.465L516.696 193.246L514.403 200.974L518.75 198.465Z" fill="#5A30C5"/>
<path d="M503.901 216.321L503.9 233.427L507.013 231.63L507.013 219.83L510.27 225.881L512.72 224.467L516.089 214.311L516.088 226.387L519.074 224.663L519.075 207.56L514.998 209.913L511.38 219.738L507.936 213.991L503.901 216.321Z" fill="#5A30C5"/>
<path d="M531.818 213.591L524.162 218.011L524.162 204.618L520.991 206.449L520.991 223.482L531.818 217.231L531.818 213.591L531.818 213.591Z" fill="#5A30C5"/>
</g>
<path d="M546.979 251.423L481.935 288.979C477.589 291.488 474.066 297.59 474.066 302.608L474.063 377.716C474.063 382.734 477.586 384.768 481.932 382.259L546.976 344.703C551.322 342.194 554.845 336.091 554.845 331.073L554.847 255.966C554.847 250.947 551.325 248.913 546.979 251.423Z" fill="#FAF9FD" stroke="#5A30C5" stroke-miterlimit="10"/>
<g clip-path="url(#clip3_1058_36432)">
<path d="M515.055 308.587C513.514 309.477 512.007 310.874 510.725 312.603C509.444 314.332 508.445 316.314 507.855 318.299C507.265 320.284 507.111 322.183 507.411 323.755C507.712 325.327 508.454 326.502 509.544 327.131C510.634 327.76 512.023 327.815 513.534 327.29C515.046 326.764 516.613 325.681 518.037 324.178C519.461 322.674 520.678 320.818 521.535 318.844C522.391 316.87 522.848 314.866 522.848 313.086C522.846 310.701 522.025 308.888 520.563 308.045C519.102 307.201 517.121 307.396 515.055 308.587ZM515.055 323.585C514.027 324.178 513.023 324.407 512.168 324.241C511.314 324.075 510.648 323.522 510.255 322.653C509.862 321.784 509.759 320.637 509.959 319.358C510.16 318.078 510.655 316.723 511.381 315.465C512.108 314.206 513.034 313.1 514.042 312.287C515.049 311.473 516.094 310.989 517.043 310.895C517.993 310.801 518.804 311.101 519.375 311.758C519.946 312.415 520.251 313.399 520.251 314.586C520.25 316.177 519.703 318.019 518.729 319.707C517.754 321.394 516.433 322.79 515.055 323.585ZM529.343 309.741C529.349 309.467 529.349 309.197 529.343 308.931L531.765 304.038C531.892 303.781 531.98 303.515 532.022 303.261C532.064 303.007 532.058 302.772 532.006 302.575C531.609 301.081 531.015 299.769 530.239 298.674C530.138 298.531 529.997 298.44 529.828 298.41C529.659 298.38 529.466 298.41 529.265 298.5L525.414 300.228C525.254 300.126 525.091 300.032 524.927 299.947L524.472 295.751C524.449 295.533 524.379 295.351 524.268 295.219C524.157 295.088 524.008 295.012 523.833 294.996C522.496 294.874 521.063 295.016 519.571 295.419C519.374 295.472 519.168 295.585 518.969 295.748C518.77 295.912 518.583 296.121 518.425 296.36L515.406 300.885C515.172 301.02 514.939 301.155 514.705 301.29L511.678 300.246C511.52 300.191 511.333 300.197 511.134 300.264C510.935 300.33 510.729 300.456 510.532 300.63C509.04 301.951 507.606 303.465 506.27 305.131C506.095 305.349 505.947 305.597 505.836 305.857C505.725 306.116 505.655 306.379 505.632 306.624L505.203 311.326C505.034 311.61 504.872 311.891 504.716 312.17L500.855 314.911C500.654 315.054 500.461 315.246 500.292 315.472C500.123 315.698 499.982 315.951 499.881 316.212C499.107 318.202 498.514 320.2 498.116 322.152C498.064 322.41 498.058 322.651 498.1 322.856C498.142 323.062 498.231 323.227 498.358 323.336L500.767 325.43C500.767 325.7 500.767 325.97 500.767 326.24L498.349 331.131C498.222 331.388 498.135 331.654 498.093 331.908C498.051 332.162 498.057 332.397 498.109 332.593C498.506 334.088 499.1 335.4 499.875 336.495C499.977 336.638 500.118 336.728 500.287 336.759C500.456 336.789 500.649 336.758 500.85 336.669L504.701 334.94C504.862 335.042 505.024 335.136 505.188 335.222L505.637 339.42C505.661 339.639 505.731 339.821 505.842 339.952C505.953 340.083 506.102 340.16 506.277 340.176C507.614 340.298 509.047 340.155 510.539 339.753C510.736 339.7 510.942 339.587 511.141 339.423C511.34 339.26 511.527 339.05 511.685 338.812L514.704 334.287C514.938 334.159 515.171 334.024 515.405 333.882L518.431 334.931C518.59 334.986 518.777 334.98 518.976 334.913C519.175 334.847 519.381 334.721 519.578 334.547C521.07 333.227 522.504 331.713 523.84 330.046C524.015 329.828 524.163 329.58 524.274 329.32C524.385 329.061 524.455 328.798 524.478 328.553L524.907 323.859C525.076 323.576 525.238 323.295 525.394 323.015L529.255 320.261C529.456 320.118 529.648 319.925 529.818 319.7C529.987 319.474 530.128 319.22 530.229 318.959C531.003 316.969 531.596 314.972 531.994 313.019C532.046 312.762 532.052 312.521 532.01 312.315C531.968 312.109 531.879 311.945 531.752 311.835L529.343 309.741ZM526.729 310.032C526.756 310.558 526.756 311.101 526.729 311.659C526.709 312.041 526.81 312.349 527.011 312.523L529.315 314.517C529.051 315.64 528.712 316.776 528.303 317.913L524.634 320.512C524.314 320.737 524.019 321.084 523.806 321.485C523.493 322.071 523.161 322.648 522.809 323.212C522.569 323.597 522.416 324.026 522.38 324.415L521.973 328.884C521.193 329.807 520.377 330.668 519.537 331.458L516.657 330.461C516.427 330.381 516.14 330.431 515.845 330.602L515.767 330.647C515.298 330.95 514.827 331.221 514.358 331.46C514.037 331.624 513.72 331.923 513.468 332.3L510.581 336.629C509.741 336.809 508.926 336.889 508.146 336.868L507.73 332.876C507.695 332.528 507.542 332.275 507.302 332.167C506.95 332.009 506.618 331.817 506.305 331.592C506.092 331.437 505.797 331.431 505.477 331.575L501.811 333.219C501.402 332.555 501.064 331.809 500.799 330.991L503.103 326.335C503.305 325.929 503.405 325.504 503.386 325.144C503.358 324.618 503.358 324.075 503.386 323.517C503.405 323.135 503.305 322.827 503.104 322.653L500.8 320.652C501.064 319.529 501.403 318.392 501.811 317.255L505.476 314.659C505.795 314.434 506.091 314.087 506.304 313.686C506.617 313.1 506.949 312.523 507.301 311.96C507.542 311.574 507.696 311.144 507.731 310.753L508.139 306.286C508.919 305.364 509.734 304.502 510.574 303.712L513.455 304.71C513.706 304.797 514.023 304.73 514.344 304.522C514.814 304.219 515.284 303.947 515.754 303.708C516.075 303.545 516.392 303.246 516.643 302.868L519.529 298.542C520.369 298.362 521.184 298.283 521.964 298.304L522.379 302.295C522.415 302.644 522.568 302.896 522.808 303.004C523.16 303.162 523.492 303.354 523.805 303.58C524.018 303.734 524.313 303.74 524.633 303.596L528.299 301.95C528.708 302.615 529.046 303.361 529.31 304.178L527.006 308.835C526.803 309.245 526.702 309.673 526.724 310.035L526.729 310.032Z" fill="#5A30C5"/>
</g>
<defs>
<clipPath id="clip0_1058_36432">
<rect width="40.4876" height="40.4876" fill="white" transform="matrix(0.86601 -0.500028 -3.185e-05 1 396.38 259.785)"/>
</clipPath>
<clipPath id="clip1_1058_36432">
<rect width="46.8386" height="46.8386" fill="white" transform="matrix(0.86601 -0.500028 -3.18649e-05 1 392.94 363.386)"/>
</clipPath>
<clipPath id="clip2_1058_36432">
<rect width="38.8999" height="36.5182" fill="white" transform="matrix(0.86601 -0.500028 -3.18649e-05 1 498.131 200.241)"/>
</clipPath>
<clipPath id="clip3_1058_36432">
<rect width="42.0754" height="42.8692" fill="white" transform="matrix(0.86601 -0.500028 -3.18649e-05 1 496.065 306.223)"/>
</clipPath>
</defs>
</svg>
