<svg width="19" height="19" viewBox="0 0 19 19" fill="none" xmlns="http://www.w3.org/2000/svg">
<path d="M16.249 3.04749C15.4165 2.78499 14.5015 2.67249 13.624 2.67249C12.1615 2.67249 10.5865 2.97249 9.49902 3.79749C8.41152 2.97249 6.83652 2.67249 5.37402 2.67249C3.91152 2.67249 2.33652 2.97249 1.24902 3.79749V14.785C1.24902 14.9725 1.43652 15.16 1.62402 15.16C1.69902 15.16 1.73652 15.1225 1.81152 15.1225C2.82402 14.635 4.28652 14.2975 5.37402 14.2975C6.83652 14.2975 8.41152 14.5975 9.49902 15.4225C10.5115 14.785 12.349 14.2975 13.624 14.2975C14.8615 14.2975 16.1365 14.5225 17.1865 15.085C17.2615 15.1225 17.299 15.1225 17.374 15.1225C17.5615 15.1225 17.749 14.935 17.749 14.7475V3.79749C17.299 3.45999 16.8115 3.23499 16.249 3.04749ZM16.249 13.1725C15.424 12.91 14.524 12.7975 13.624 12.7975C12.349 12.7975 10.5115 13.285 9.49902 13.9225V5.29749C10.5115 4.65999 12.349 4.17249 13.624 4.17249C14.524 4.17249 15.424 4.28499 16.249 4.54749V13.1725Z" fill="#2B2B2C"/>
</svg>
