<svg width="16" height="17" viewBox="0 0 16 17" fill="none" xmlns="http://www.w3.org/2000/svg">
<path d="M14 3.16667C13.26 2.93333 12.4467 2.83333 11.6667 2.83333C10.3667 2.83333 8.96666 3.1 7.99999 3.83333C7.03332 3.1 5.63332 2.83333 4.33332 2.83333C3.03332 2.83333 1.63332 3.1 0.666656 3.83333V13.6C0.666656 13.7667 0.833323 13.9333 0.99999 13.9333C1.06666 13.9333 1.09999 13.9 1.16666 13.9C2.06666 13.4667 3.36666 13.1667 4.33332 13.1667C5.63332 13.1667 7.03332 13.4333 7.99999 14.1667C8.89999 13.6 10.5333 13.1667 11.6667 13.1667C12.7667 13.1667 13.9 13.3667 14.8333 13.8667C14.9 13.9 14.9333 13.9 15 13.9C15.1667 13.9 15.3333 13.7333 15.3333 13.5667V3.83333C14.9333 3.53333 14.5 3.33333 14 3.16667ZM14 12.1667C13.2667 11.9333 12.4667 11.8333 11.6667 11.8333C10.5333 11.8333 8.89999 12.2667 7.99999 12.8333V5.16667C8.89999 4.6 10.5333 4.16667 11.6667 4.16667C12.4667 4.16667 13.2667 4.26667 14 4.5V12.1667Z" fill="#131314"/>
</svg>
