<svg width="19" height="19" viewBox="0 0 19 19" fill="none" xmlns="http://www.w3.org/2000/svg">
<path d="M16.249 3.04736C15.4165 2.78486 14.5015 2.67236 13.624 2.67236C12.1615 2.67236 10.5865 2.97236 9.49902 3.79736C8.41152 2.97236 6.83652 2.67236 5.37402 2.67236C3.91152 2.67236 2.33652 2.97236 1.24902 3.79736V14.7849C1.24902 14.9724 1.43652 15.1599 1.62402 15.1599C1.69902 15.1599 1.73652 15.1224 1.81152 15.1224C2.82402 14.6349 4.28652 14.2974 5.37402 14.2974C6.83652 14.2974 8.41152 14.5974 9.49902 15.4224C10.5115 14.7849 12.349 14.2974 13.624 14.2974C14.8615 14.2974 16.1365 14.5224 17.1865 15.0849C17.2615 15.1224 17.299 15.1224 17.374 15.1224C17.5615 15.1224 17.749 14.9349 17.749 14.7474V3.79736C17.299 3.45986 16.8115 3.23486 16.249 3.04736ZM16.249 13.1724C15.424 12.9099 14.524 12.7974 13.624 12.7974C12.349 12.7974 10.5115 13.2849 9.49902 13.9224V5.29736C10.5115 4.65986 12.349 4.17236 13.624 4.17236C14.524 4.17236 15.424 4.28486 16.249 4.54736V13.1724Z" fill="#2B2B2C"/>
</svg>
