<svg width="18" height="19" viewBox="0 0 18 19" fill="none" xmlns="http://www.w3.org/2000/svg">
<path d="M16.7927 5.52254C15.9879 4.10903 14.8962 2.98995 13.5174 2.16504C12.1384 1.3401 10.6329 0.927734 8.99992 0.927734C7.36712 0.927734 5.86115 1.34023 4.48241 2.16504C3.10347 2.9899 2.01185 4.10903 1.20704 5.52254C0.402361 6.93602 0 8.47954 0 10.1531C0 12.1634 0.572163 13.9711 1.71678 15.5767C2.86127 17.1824 4.33978 18.2934 6.15219 18.91C6.36316 18.9502 6.51934 18.9219 6.62088 18.8261C6.72247 18.73 6.7732 18.6098 6.7732 18.4658C6.7732 18.4418 6.77119 18.2257 6.76729 17.8172C6.76327 17.4087 6.76138 17.0523 6.76138 16.7482L6.49184 16.796C6.31998 16.8283 6.10319 16.842 5.84144 16.8381C5.57983 16.8344 5.30823 16.8063 5.02703 16.754C4.74571 16.7022 4.48405 16.5821 4.24185 16.3939C3.99977 16.2057 3.82791 15.9594 3.72633 15.6552L3.60914 15.3788C3.53104 15.1948 3.40807 14.9904 3.24007 14.7663C3.07207 14.542 2.90219 14.3899 2.73034 14.3098L2.64829 14.2496C2.59362 14.2096 2.54288 14.1614 2.49597 14.1054C2.4491 14.0494 2.414 13.9933 2.39057 13.9372C2.36709 13.881 2.38655 13.835 2.44914 13.7988C2.51173 13.7627 2.62485 13.7451 2.78899 13.7451L3.02327 13.781C3.17953 13.8131 3.37281 13.909 3.60336 14.0693C3.83378 14.2294 4.0232 14.4376 4.17166 14.6937C4.35144 15.0222 4.56803 15.2724 4.82206 15.4446C5.07588 15.6168 5.33179 15.7028 5.58955 15.7028C5.84731 15.7028 6.06994 15.6828 6.25751 15.6429C6.44488 15.6029 6.62068 15.5427 6.78482 15.4626C6.85513 14.9259 7.04656 14.5135 7.35895 14.2252C6.9137 14.1773 6.51339 14.105 6.15782 14.009C5.80245 13.9128 5.43522 13.7567 5.05638 13.5403C4.67733 13.3241 4.36289 13.0558 4.11297 12.7356C3.86301 12.4152 3.65786 11.9946 3.49783 11.4742C3.33772 10.9536 3.25764 10.353 3.25764 9.67238C3.25764 8.7032 3.56629 7.87847 4.18348 7.19772C3.89436 6.46908 3.92166 5.65226 4.26545 4.74733C4.49202 4.67517 4.82801 4.72932 5.27326 4.90944C5.7186 5.08964 6.04466 5.24401 6.25177 5.372C6.45888 5.49995 6.62482 5.60837 6.74985 5.69631C7.47654 5.48817 8.22647 5.38408 8.99984 5.38408C9.7732 5.38408 10.5233 5.48817 11.25 5.69631L11.6953 5.40814C11.9998 5.21587 12.3594 5.03966 12.7732 4.87949C13.1873 4.71939 13.5039 4.6753 13.7228 4.74746C14.0742 5.65243 14.1055 6.46921 13.8163 7.19784C14.4335 7.8786 14.7422 8.70354 14.7422 9.6725C14.7422 10.3532 14.6619 10.9556 14.502 11.4803C14.3419 12.005 14.135 12.4251 13.8812 12.7416C13.6271 13.058 13.3106 13.3243 12.9318 13.5404C12.5529 13.7567 12.1855 13.9128 11.8302 14.0089C11.4746 14.1051 11.0743 14.1774 10.6291 14.2254C11.0352 14.5857 11.2383 15.1543 11.2383 15.9311V18.4655C11.2383 18.6095 11.2871 18.7297 11.3849 18.8257C11.4825 18.9216 11.6367 18.9498 11.8477 18.9097C13.6603 18.2932 15.1389 17.182 16.2833 15.5763C17.4276 13.9707 18 12.163 18 10.1527C17.9996 8.47941 17.597 6.93602 16.7927 5.52254Z" fill="black"/>
</svg>
