<svg width="22" height="22" viewBox="0 0 22 22" fill="none" xmlns="http://www.w3.org/2000/svg">
<g clip-path="url(#clip0_2057_19962)">
<g filter="url(#filter0_d_2057_19962)">
<path d="M7.88086 18.9018C7.88086 19.383 8.27461 19.7768 8.75586 19.7768H12.2559C12.7371 19.7768 13.1309 19.383 13.1309 18.9018V18.0268H7.88086V18.9018ZM10.5059 2.27679C7.12836 2.27679 4.38086 5.02429 4.38086 8.40179C4.38086 10.4843 5.42211 12.313 7.00586 13.4243V15.4018C7.00586 15.883 7.39961 16.2768 7.88086 16.2768H13.1309C13.6121 16.2768 14.0059 15.883 14.0059 15.4018V13.4243C15.5896 12.313 16.6309 10.4843 16.6309 8.40179C16.6309 5.02429 13.8834 2.27679 10.5059 2.27679ZM12.9996 11.9893L12.2559 12.5143V14.5268H8.75586V12.5143L8.01211 11.9893C6.83086 11.1668 6.13086 9.82804 6.13086 8.40179C6.13086 5.98679 8.09086 4.02679 10.5059 4.02679C12.9209 4.02679 14.8809 5.98679 14.8809 8.40179C14.8809 9.82804 14.1809 11.1668 12.9996 11.9893Z" fill="#4D5BD9"/>
</g>
</g>
<defs>
<filter id="filter0_d_2057_19962" x="-19.6191" y="-21.7232" width="60.25" height="65.5" filterUnits="userSpaceOnUse" color-interpolation-filters="sRGB">
<feFlood flood-opacity="0" result="BackgroundImageFix"/>
<feColorMatrix in="SourceAlpha" type="matrix" values="0 0 0 0 0 0 0 0 0 0 0 0 0 0 0 0 0 0 127 0" result="hardAlpha"/>
<feOffset/>
<feGaussianBlur stdDeviation="12"/>
<feComposite in2="hardAlpha" operator="out"/>
<feColorMatrix type="matrix" values="0 0 0 0 0.898039 0 0 0 0 0.898039 0 0 0 0 0.913725 0 0 0 1 0"/>
<feBlend mode="normal" in2="BackgroundImageFix" result="effect1_dropShadow_2057_19962"/>
<feBlend mode="normal" in="SourceGraphic" in2="effect1_dropShadow_2057_19962" result="shape"/>
</filter>
<clipPath id="clip0_2057_19962">
<rect width="21" height="21" fill="white" transform="translate(0.00585938 0.526794)"/>
</clipPath>
</defs>
</svg>
