<svg width="16" height="17" viewBox="0 0 16 17" fill="none" xmlns="http://www.w3.org/2000/svg">
<path d="M13.3334 6.83333V5.5C13.3334 4.76667 12.7334 4.16667 12 4.16667H10C10 3.06 9.10669 2.16667 8.00002 2.16667C6.89335 2.16667 6.00002 3.06 6.00002 4.16667H4.00002C3.26669 4.16667 2.66669 4.76667 2.66669 5.5V6.83333C1.56002 6.83333 0.666687 7.72667 0.666687 8.83333C0.666687 9.94 1.56002 10.8333 2.66669 10.8333V13.5C2.66669 14.2333 3.26669 14.8333 4.00002 14.8333H12C12.7334 14.8333 13.3334 14.2333 13.3334 13.5V10.8333C14.44 10.8333 15.3334 9.94 15.3334 8.83333C15.3334 7.72667 14.44 6.83333 13.3334 6.83333ZM12 13.5H4.00002V5.5H12V13.5ZM6.00002 9.5C5.44669 9.5 5.00002 9.05333 5.00002 8.5C5.00002 7.94667 5.44669 7.5 6.00002 7.5C6.55335 7.5 7.00002 7.94667 7.00002 8.5C7.00002 9.05333 6.55335 9.5 6.00002 9.5ZM11 8.5C11 9.05333 10.5534 9.5 10 9.5C9.44669 9.5 9.00002 9.05333 9.00002 8.5C9.00002 7.94667 9.44669 7.5 10 7.5C10.5534 7.5 11 7.94667 11 8.5ZM5.33335 10.8333H10.6667V12.1667H5.33335V10.8333Z" fill="#2B2B2C"/>
</svg>
