<svg width="25" height="25" viewBox="0 0 25 25" fill="none" xmlns="http://www.w3.org/2000/svg">
<path d="M18.159 17.7573L17.099 18.8173L16.389 18.1073L17.449 17.0473L15.509 15.1073L14.449 16.1673L13.739 15.4573L14.799 14.3973L12.859 12.4573L11.799 13.5173L11.089 12.8073L12.149 11.7473L10.199 9.79729L9.13902 10.8573L8.42902 10.1473L9.48902 9.08729L7.54902 7.14729L6.48902 8.20729L5.77902 7.49729L6.83902 6.43729L4.49902 4.09729V18.0973C4.49902 19.1973 5.39902 20.0973 6.49902 20.0973H20.499L18.159 17.7573ZM7.49902 17.0973V11.3373L13.259 17.0973H7.49902Z" fill="#8E8F97"/>
</svg>
