<svg width="22" height="22" viewBox="0 0 22 22" fill="none" xmlns="http://www.w3.org/2000/svg">
<g clip-path="url(#clip0_2057_20605)">
<g filter="url(#filter0_d_2057_20605)">
<path d="M17.5059 4.17822H3.50586C2.53461 4.17822 1.75586 4.96572 1.75586 5.92822V16.4282C1.75586 17.3907 2.53461 18.1782 3.50586 18.1782H17.5059C18.4684 18.1782 19.2559 17.3907 19.2559 16.4282V5.92822C19.2559 4.96572 18.4771 4.17822 17.5059 4.17822ZM17.5059 16.4282H3.50586V7.67822H17.5059V16.4282ZM15.7559 15.5532H10.5059V13.8032H15.7559V15.5532ZM6.56836 15.5532L5.33461 14.3195L7.59211 12.0532L5.32586 9.78697L6.56836 8.55322L10.0684 12.0532L6.56836 15.5532Z" fill="#4D5BD9"/>
</g>
</g>
<defs>
<filter id="filter0_d_2057_20605" x="-22.2441" y="-19.8218" width="65.5" height="62" filterUnits="userSpaceOnUse" color-interpolation-filters="sRGB">
<feFlood flood-opacity="0" result="BackgroundImageFix"/>
<feColorMatrix in="SourceAlpha" type="matrix" values="0 0 0 0 0 0 0 0 0 0 0 0 0 0 0 0 0 0 127 0" result="hardAlpha"/>
<feOffset/>
<feGaussianBlur stdDeviation="12"/>
<feComposite in2="hardAlpha" operator="out"/>
<feColorMatrix type="matrix" values="0 0 0 0 0.898039 0 0 0 0 0.898039 0 0 0 0 0.913725 0 0 0 1 0"/>
<feBlend mode="normal" in2="BackgroundImageFix" result="effect1_dropShadow_2057_20605"/>
<feBlend mode="normal" in="SourceGraphic" in2="effect1_dropShadow_2057_20605" result="shape"/>
</filter>
<clipPath id="clip0_2057_20605">
<rect width="21" height="21" fill="white" transform="translate(0.00585938 0.678223)"/>
</clipPath>
</defs>
</svg>
