<svg width="600" height="185" viewBox="0 0 600 185" fill="none" xmlns="http://www.w3.org/2000/svg">
    <path d="M587.838 24.1362C594.413 24.2467 599.981 18.8052 599.996 12.233C600.174 5.67244 594.794 0.0835635 588.052 0.000910973C581.442 -0.0802873 576.03 5.27735 575.88 11.7756C575.726 18.4451 581.018 24.0213 587.838 24.1362Z" fill="#EE985D"/>
    <path d="M360.744 33.529C355.369 33.529 350.971 37.9243 350.971 43.2962V94.2918C350.971 109.98 338.244 122.697 322.546 122.697C306.847 122.697 294.121 109.98 294.121 94.2918V43.2962C294.121 37.9243 289.723 33.529 284.347 33.529C278.971 33.529 274.573 37.9243 274.573 43.2962V94.2918C274.573 120.768 296.051 142.232 322.546 142.232C349.04 142.232 370.519 120.768 370.519 94.2918V43.2962C370.519 37.9243 366.12 33.529 360.744 33.529Z" fill="#522768"/>
    <path d="M245.707 0.554016C240.331 0.554016 235.933 4.94918 235.933 10.3212V132.544C235.933 137.916 240.331 142.312 245.707 142.312C251.083 142.312 255.481 137.916 255.481 132.544V10.3212C255.481 4.94918 251.083 0.554016 245.707 0.554016Z" fill="#522768"/>
    <path d="M587.943 33.529C582.567 33.529 578.169 37.9243 578.169 43.2962V132.464C578.169 137.836 582.567 142.232 587.943 142.232C593.319 142.232 597.717 137.836 597.717 132.464V43.2962C597.717 37.9243 593.319 33.529 587.943 33.529Z" fill="#522768"/>
    <path d="M207.067 33.529C201.692 33.529 197.293 37.9243 197.293 43.2962V94.2918C197.293 109.98 184.567 122.697 168.868 122.697C153.17 122.697 140.444 109.98 140.444 94.2918V43.2962C140.444 37.9243 136.045 33.529 130.67 33.529C125.294 33.529 120.896 37.9243 120.896 43.2962V94.2918C120.896 120.768 142.374 142.232 168.868 142.232C195.363 142.232 216.841 120.768 216.841 94.2918V43.2962C216.841 37.9243 212.443 33.529 207.067 33.529Z" fill="#522768"/>
    <path d="M511.091 33.529C495.48 33.529 481.653 41.0142 472.892 52.5524C464.132 41.0142 450.305 33.529 434.694 33.529C408.199 33.529 386.721 54.9924 386.721 81.4688V132.464C386.721 137.836 391.119 142.232 396.495 142.232C401.87 142.232 406.269 137.836 406.269 132.464V81.4688C406.269 65.781 418.995 53.0636 434.694 53.0636C450.392 53.0636 463.118 65.781 463.118 81.4688V132.464C463.118 135.15 464.218 137.592 465.989 139.362C467.761 141.133 470.204 142.232 472.892 142.232H472.892C473.564 142.232 474.221 142.163 474.856 142.032C475.49 141.902 476.103 141.709 476.687 141.461C477.856 140.965 478.909 140.248 479.795 139.362C481.567 137.592 482.666 135.15 482.666 132.464V81.4688C482.666 65.781 495.392 53.0636 511.091 53.0636C526.789 53.0636 539.516 65.781 539.516 81.4688V132.464C539.516 137.836 543.914 142.232 549.289 142.232C554.665 142.232 559.064 137.836 559.064 132.464V81.4688C559.064 54.9924 537.585 33.529 511.091 33.529Z" fill="#522768"/>
    <path d="M54.3888 33.5289C24.3507 33.5289 0.000137135 57.8629 0.000137135 87.8803H0V174.297C0 179.668 4.39832 184.064 9.77407 184.064C15.1497 184.064 19.548 179.668 19.548 174.297V87.8803H19.5481C19.5481 68.6515 35.1469 53.0636 54.3888 53.0636C73.6308 53.0636 89.2295 68.6515 89.2295 87.8803C89.2295 107.109 73.6308 122.697 54.3888 122.697C48.9908 122.697 44.6148 127.07 44.6148 132.464C44.6148 137.859 48.9908 142.232 54.3888 142.232C84.4268 142.232 108.778 117.898 108.778 87.8803C108.778 57.8629 84.4268 33.5289 54.3888 33.5289Z" fill="#522768"/>
    <path d="M203.462 22.6155C203.462 22.5703 203.449 22.5285 203.448 22.4836C203.442 22.2846 203.421 22.0877 203.388 21.8908C203.015 17.596 199.449 14.2142 195.055 14.2142C193.703 14.2142 192.444 14.5628 191.312 15.1296C189.304 6.46728 181.57 0.000793457 172.291 0.000793457C164.146 0.000793457 157.171 4.97603 154.225 12.048C152.205 10.7462 149.805 9.9823 147.222 9.9823C140.072 9.9823 134.275 15.775 134.275 22.9207C134.275 26.6525 137.189 27.0714 141.964 27.0714L199.047 27.0716C201.823 27.0716 203.451 24.8551 203.448 22.6145C203.453 22.6148 203.456 22.615 203.462 22.6155Z" fill="#EE985D"/>
</svg>
