<?xml version="1.0" encoding="UTF-8" standalone="no"?>
<!-- Created with Inkscape (http://www.inkscape.org/) -->

<svg
   xmlns:dc="http://purl.org/dc/elements/1.1/"
   xmlns:cc="http://creativecommons.org/ns#"
   xmlns:rdf="http://www.w3.org/1999/02/22-rdf-syntax-ns#"
   xmlns:svg="http://www.w3.org/2000/svg"
   xmlns="http://www.w3.org/2000/svg"
   xmlns:sodipodi="http://sodipodi.sourceforge.net/DTD/sodipodi-0.dtd"
   xmlns:inkscape="http://www.inkscape.org/namespaces/inkscape"
   width="187.88008mm"
   height="101.59633mm"
   viewBox="0 0 665.71682 359.98699"
   id="svg2"
   version="1.1"
   inkscape:version="0.91 r13725"
   sodipodi:docname="A+E2017.svg">
  <defs
     id="defs4" />
  <sodipodi:namedview
     id="base"
     pagecolor="#ffffff"
     bordercolor="#666666"
     borderopacity="1.0"
     inkscape:pageopacity="0.0"
     inkscape:pageshadow="2"
     inkscape:zoom="0.35"
     inkscape:cx="465.78075"
     inkscape:cy="112.08626"
     inkscape:document-units="px"
     inkscape:current-layer="layer1"
     showgrid="false"
     fit-margin-top="0"
     fit-margin-left="0"
     fit-margin-right="0"
     fit-margin-bottom="0"
     inkscape:window-width="1366"
     inkscape:window-height="705"
     inkscape:window-x="-8"
     inkscape:window-y="-8"
     inkscape:window-maximized="1" />
  <metadata
     id="metadata7">
    <rdf:RDF>
      <cc:Work
         rdf:about="">
        <dc:format>image/svg+xml</dc:format>
        <dc:type
           rdf:resource="http://purl.org/dc/dcmitype/StillImage" />
        <dc:title></dc:title>
      </cc:Work>
    </rdf:RDF>
  </metadata>
  <g
     inkscape:label="Layer 1"
     inkscape:groupmode="layer"
     id="layer1"
     transform="translate(475.53666,-563.07492)">
    <g
       id="Page-1"
       style="fill:none;fill-rule:evenodd;stroke:none;stroke-width:1"
       transform="matrix(4.4295483,0,0,4.4295483,-475.53666,562.48579)">
      <g
         id="aetn-charcoal-color"
         style="fill:#000000">
        <path
           id="Fill-1"
           d="m 19.118,37.346 15.852,0 -5.368,-16.958 C 28.595,17.26 27.169,11.331 27.169,11.331 l -0.167,0 c 0,0 -1.509,5.929 -2.517,9.057 l -5.367,16.958 z m 1.762,-37.211 12.578,0 21.134,58.863 -12.663,0 -4.025,-12.512 -21.637,0 -3.94,12.512 -12.327,0 20.88,-58.863 0,0 z"
           inkscape:connector-curvature="0" />
        <polyline
           points="105.929 0.133 105.929 59 150.29 59 150.29 49.036 118.09 49.036 118.09 34.146 146.1 34.146 146.1 24.35 118.09 24.35 118.09 10.179 150.279 10.179 150.279 0.133 105.929 0.133"
           id="Fill-3" />
        <polyline
           points="57.249 28.841 75.728 28.841 75.728 10.261 77.067 10.261 77.067 28.841 95.636 28.841 95.636 30.067 77.067 30.067 77.067 48.822 75.728 48.822 75.728 30.067 57.249 30.067 57.249 28.841"
           id="Fill-5" />
        <path
           id="Fill-6"
           d="m 34.388408,79.527054 c -0.175682,-0.312635 -0.552599,-0.967049 -0.93311,-1.537615 l -4.790122,-7.307962 -0.02076,-0.03194 -1.170679,0 0,10.54889 1.072457,0 0,-8.846374 c 0.194049,0.324612 0.632055,1.049299 0.992203,1.594312 l 4.774151,7.22012 0.02116,0.03194 1.127158,0 0,-10.54889 -1.072457,0 0,8.877519"
           inkscape:connector-curvature="0" />
        <polyline
           points="203.579 16.426 203.579 42.846 222.05 42.846 222.05 40.234 206.374 40.234 206.374 30.415 220.375 30.415 220.375 27.946 206.374 27.946 206.374 18.929 221.65 18.929 221.65 16.426 203.579 16.426"
           id="Fill-7"
           transform="matrix(0.39927669,0,0,0.39927669,-40.74109,64.091017)" />
        <polyline
           points="231.059 16.426 231.059 18.965 239.881 18.965 239.881 42.846 242.675 42.846 242.675 18.965 251.464 18.965 251.464 16.426 231.059 16.426"
           id="Fill-8"
           transform="matrix(0.39927669,0,0,0.39927669,-40.74109,64.091017)" />
        <path
           id="Fill-9"
           d="m 73.073524,77.718729 -7.98e-4,0.0012 c -0.13815,0.564577 -0.333795,1.412242 -0.426028,1.819104 -0.09423,-0.402072 -0.288677,-1.233365 -0.427625,-1.77718 l -1.906547,-7.06001 -0.01397,-0.0519 -1.156305,0 -1.919722,7.126689 c -0.148931,0.540221 -0.345774,1.359137 -0.440402,1.759612 -0.08984,-0.408859 -0.280293,-1.25333 -0.429222,-1.817507 l -1.804731,-7.01609 -0.01277,-0.0527 -1.150716,0 2.788948,10.496585 0.01397,0.05191 1.141932,0 2.051483,-7.636965 c 0.120583,-0.461564 0.263523,-1.095216 0.339386,-1.440989 0.07786,0.348168 0.223594,0.988209 0.354557,1.440989 l 1.980014,7.583861 0.01397,0.0531 1.096813,0 2.838059,-10.46025 0.02396,-0.08824 -1.12077,0 -1.833479,7.068794"
           inkscape:connector-curvature="0" />
        <path
           id="Fill-10"
           d="m 84.346707,70.431131 c -2.887569,0 -4.903122,2.255514 -4.903122,5.485263 0,3.230548 2.015553,5.486062 4.903122,5.486062 2.90354,0 4.932265,-2.255514 4.932265,-5.486062 0,-3.229749 -2.028725,-5.485263 -4.932265,-5.485263 m 3.772765,5.485263 c 0,2.716678 -1.480917,4.472298 -3.772765,4.472298 -2.273882,0 -3.743219,-1.75562 -3.743219,-4.472298 0,-2.71588 1.469337,-4.4715 3.743219,-4.4715 2.291848,0 3.772765,1.75562 3.772765,4.4715"
           inkscape:connector-curvature="0" />
        <path
           id="Fill-11"
           d="m 101.24211,78.839499 c -0.0747,-1.658596 -0.45039,-2.407239 -1.41984,-2.782959 1.12077,-0.401273 1.66699,-1.229373 1.66699,-2.527022 0,-1.803133 -1.13075,-2.879983 -3.025326,-2.879983 l -4.714262,0 0,10.54889 1.116376,0 0,-4.643588 3.102777,0 c 1.550794,0 2.074645,0.545812 2.157295,2.247928 0.0903,1.84985 0.15173,2.206404 0.40926,2.382883 l 0.0176,0.01278 1.13993,0 0,-0.1657 -0.0304,-0.02116 c -0.22998,-0.158912 -0.36373,-0.849261 -0.42043,-2.172065 m -6.37606,-7.190574 3.393851,0 c 1.441388,0 2.084639,0.6073 2.084639,1.967635 0,1.287269 -0.766228,1.967636 -2.215599,1.967636 l -3.262891,0 0,-3.935271"
           inkscape:connector-curvature="0" />
        <polyline
           points="383.928 16.426 370.105 30.07 370.105 16.426 367.31 16.426 367.31 42.846 370.105 42.846 370.105 33.557 374.574 29.155 384.772 42.775 384.825 42.846 388.177 42.846 376.505 27.23 387.297 16.729 387.605 16.426 383.928 16.426"
           id="Fill-12"
           transform="matrix(0.39927669,0,0,0.39927669,-40.74109,64.091017)" />
        <path
           id="Fill-13"
           d="m 121.34209,75.13501 -8e-4,0 c -1.8742,-0.352162 -2.76658,-0.724688 -2.76658,-1.896964 0,-1.133147 0.94907,-1.835874 2.47711,-1.835874 1.51286,0 2.47471,0.788571 2.63802,2.165278 l 0.007,0.06189 1.08603,0 -0.008,-0.07786 c -0.20842,-1.974024 -1.57036,-3.105974 -3.73842,-3.105974 -2.12256,0 -3.54877,1.133947 -3.54877,2.821689 0,1.316415 0.56657,2.304225 3.33156,2.848839 2.18764,0.443996 3.1463,0.786176 3.1463,2.20241 0,1.283275 -1.01815,2.112972 -2.5933,2.112972 -1.91973,0 -3.07843,-0.978626 -3.17625,-2.684736 l -0.004,-0.06628 -1.11678,0 0.004,0.07387 c 0.13137,2.275078 1.73047,3.633418 4.27745,3.633418 2.23635,0 3.73884,-1.250934 3.73884,-3.112761 0,-2.229162 -1.70092,-2.741035 -3.75441,-3.139912"
           inkscape:connector-curvature="0" />
      </g>
    </g>
  </g>
</svg>
