<svg width="180" height="60" viewBox="0 0 180 60" fill="none" xmlns="http://www.w3.org/2000/svg">
<path d="M34.8332 13L44.6735 39.357H38.6648L36.6619 33.4935H26.8506L24.7896 39.357H18.9551L28.9115 13H34.8332ZM35.1525 29.1684L31.8433 19.5022H31.7853L28.36 29.1684H35.1525Z" fill="#231F20"/>
<path d="M51.3788 20.2858V22.9273H51.4949C52.0754 21.8824 52.9753 21.0406 54.0493 20.5181C55.0653 20.0246 56.1683 19.7633 57.3004 19.7633C58.4905 19.7343 59.6516 19.9085 60.7547 20.3439C61.5965 20.6922 62.3222 21.2147 62.8737 21.9404C63.4252 22.6661 63.7735 23.5079 63.9477 24.4078C64.1509 25.4818 64.267 26.5558 64.267 27.6298V39.357H59.042V28.5587C59.042 26.9912 58.8098 25.8011 58.3163 25.0464C57.8229 24.2626 56.952 23.8853 55.7039 23.8853C54.2815 23.8853 53.2365 24.3207 52.6269 25.1625C52.0174 26.0043 51.6981 27.3976 51.669 29.3424V39.3279H46.415V20.2858H51.3788Z" fill="#231F20"/>
<path d="M85.8054 40.7501C85.5732 41.7661 85.1088 42.6949 84.4702 43.5077C83.6574 44.4366 82.6414 45.1913 81.4803 45.6558C79.8258 46.3234 78.026 46.6137 76.2554 46.5556C75.2975 46.5556 74.3395 46.4395 73.3816 46.2073C72.4527 45.9751 71.5529 45.6267 70.7401 45.1333C69.9564 44.6398 69.2597 44.0012 68.7372 43.2465C68.1857 42.4047 67.8664 41.4468 67.8374 40.4598H73.0333C73.1784 41.3307 73.73 42.0563 74.4847 42.5208C75.2394 42.9272 76.1102 43.1013 76.952 43.1013C78.4324 43.1013 79.5065 42.6659 80.1741 41.7661C80.8707 40.7791 81.2191 39.618 81.161 38.3989V35.8735H81.103C80.5514 36.8604 79.7096 37.6441 78.6937 38.1086C77.6487 38.573 76.5456 38.8343 75.3845 38.8343C74.1073 38.8633 72.8591 38.6021 71.698 38.0796C70.6821 37.6151 69.8112 36.9185 69.1436 36.0186C68.4469 35.0897 67.9535 34.0447 67.6922 32.9417C67.3729 31.7225 67.2278 30.4743 67.2278 29.2262C67.2278 28.007 67.4019 26.8169 67.7503 25.6558C68.0696 24.5527 68.6211 23.5367 69.3178 22.6369C70.0144 21.7661 70.8853 21.0404 71.8722 20.5469C72.9752 20.0244 74.1654 19.7341 75.3845 19.7632C76.5166 19.7341 77.6487 19.9664 78.6937 20.4598C79.7096 20.9823 80.5224 21.8241 81.0739 22.8111H81.132V20.2566H86.1247V38.1086C86.0667 39.0084 85.9796 39.8793 85.8054 40.7501ZM78.6356 34.3931C79.1871 34.1028 79.6806 33.6964 80.0289 33.2029C80.4063 32.7095 80.6966 32.1289 80.8707 31.5193C81.0449 30.8807 81.161 30.2131 81.161 29.5455C81.161 28.7907 81.103 28.036 80.9288 27.3103C80.7837 26.6427 80.5514 26.0041 80.2031 25.4526C79.8548 24.9301 79.3903 24.4656 78.8388 24.1754C78.1712 23.827 77.4455 23.6529 76.6908 23.6819C76.0231 23.6529 75.3845 23.827 74.804 24.1173C74.2815 24.4076 73.817 24.814 73.4687 25.3074C73.0914 25.8299 72.8301 26.4105 72.685 27.0491C72.5108 27.7167 72.4527 28.4134 72.4527 29.11C72.4527 29.8067 72.5108 30.4743 72.6559 31.171C72.772 31.8096 73.0043 32.4482 73.3526 32.9997C73.6719 33.5513 74.1363 33.9867 74.6588 34.335C75.2684 34.7124 75.9941 34.8865 76.7198 34.8575C77.3584 34.8575 78.026 34.6833 78.6356 34.3931Z" fill="#231F20"/>
<path d="M95.4716 34.7705C96.2553 35.5252 97.3874 35.9026 98.8678 35.9026C99.8257 35.9316 100.784 35.6413 101.596 35.1189C102.235 34.7415 102.728 34.1319 102.99 33.4353H107.605C106.879 35.7284 105.747 37.354 104.209 38.3409C102.554 39.3569 100.609 39.8794 98.6646 39.8213C97.2713 39.8504 95.907 39.5891 94.6008 39.0956C93.4397 38.6602 92.3947 37.9345 91.5238 37.0347C90.682 36.1058 90.0144 35.0318 89.579 33.8707C89.1146 32.5644 88.8823 31.2001 88.9114 29.8068C88.9114 28.4425 89.1436 27.1072 89.637 25.83C90.5079 23.4207 92.3656 21.5049 94.7169 20.518C95.9651 19.9955 97.3294 19.7342 98.6937 19.7342C100.174 19.7052 101.625 20.0245 102.932 20.6631C104.093 21.2727 105.109 22.1145 105.892 23.1885C106.676 24.2625 107.257 25.5107 107.576 26.817C107.924 28.2103 108.041 29.6326 107.953 31.055H94.1654C94.2524 32.7676 94.6878 34.0158 95.4716 34.7705ZM101.393 24.727C100.755 24.0303 99.8257 23.711 98.5195 23.711C97.7938 23.682 97.0971 23.8271 96.4295 24.1464C95.907 24.4077 95.4716 24.756 95.0942 25.1914C94.7749 25.5688 94.5427 26.0332 94.3976 26.5267C94.2815 26.9331 94.1944 27.3685 94.1654 27.7749H102.699C102.554 26.6428 102.119 25.5978 101.393 24.727Z" fill="#231F20"/>
<path d="M115.994 13V39.357H110.74V13H115.994Z" fill="#231F20"/>
<path d="M125.951 13V34.4804H138.781V39.357H120.145V13H125.951Z" fill="#231F20"/>
<path d="M140.958 17.3251V13H146.183V17.3251H140.958ZM146.183 20.2859V39.357H140.958V20.2859H146.183Z" fill="#231F20"/>
<path d="M154.369 34.5965C154.601 35.0029 154.891 35.3222 155.268 35.5834C155.646 35.8447 156.081 36.0479 156.546 36.164C157.039 36.2801 157.533 36.3382 158.055 36.3382C158.432 36.3382 158.839 36.2801 159.216 36.222C159.594 36.135 159.971 36.0188 160.319 35.8157C160.639 35.6415 160.929 35.3802 161.161 35.09C161.393 34.7416 161.509 34.3352 161.48 33.9289C161.48 33.1451 160.958 32.5646 159.913 32.1582C158.491 31.6647 157.039 31.2583 155.53 30.968C154.775 30.7939 154.02 30.5907 153.295 30.3585C152.598 30.1553 151.959 29.836 151.35 29.4296C150.798 29.0522 150.334 28.5588 149.985 27.9782C149.637 27.3396 149.434 26.5849 149.463 25.8592C149.405 24.8142 149.666 23.7692 150.189 22.8403C150.653 22.0566 151.321 21.418 152.075 20.9826C152.888 20.5181 153.788 20.1988 154.717 20.0247C155.704 19.8505 156.72 19.7344 157.736 19.7344C158.752 19.7344 159.768 19.8215 160.755 20.0247C161.684 20.1988 162.554 20.5471 163.367 21.0116C164.122 21.476 164.79 22.1146 165.254 22.8694C165.805 23.7692 166.096 24.7561 166.154 25.8011H161.161C161.19 24.9593 160.755 24.1756 160.029 23.7402C159.274 23.3628 158.432 23.1887 157.591 23.2177C157.271 23.2177 156.952 23.2467 156.633 23.2757C156.313 23.3048 155.994 23.3918 155.704 23.508C155.443 23.6241 155.181 23.7982 154.978 24.0305C154.775 24.2917 154.659 24.64 154.688 24.9593C154.688 25.3948 154.862 25.8302 155.21 26.0914C155.617 26.4107 156.081 26.672 156.546 26.8171C157.155 27.0203 157.794 27.1945 158.432 27.3396C159.158 27.4847 159.884 27.6589 160.61 27.8331C161.364 28.0072 162.119 28.2104 162.845 28.4717C163.541 28.7039 164.18 29.0232 164.79 29.4586C165.341 29.865 165.805 30.3875 166.154 30.9971C166.531 31.6937 166.705 32.4485 166.676 33.2322C166.763 35.3222 165.718 37.2961 163.948 38.3991C163.106 38.9216 162.148 39.299 161.161 39.4731C160.116 39.6763 159.042 39.7924 157.968 39.7924C156.865 39.7924 155.791 39.6763 154.717 39.4731C153.73 39.2699 152.772 38.8926 151.901 38.3701C151.059 37.8476 150.363 37.1509 149.84 36.3091C149.289 35.3512 148.969 34.2482 148.969 33.1161H153.962C153.962 33.6676 154.107 34.1611 154.369 34.5965Z" fill="#231F20"/>
<path d="M180 20.286V23.7984H176.168V33.2323C176.168 34.1032 176.313 34.7127 176.604 35.003C176.894 35.2933 177.504 35.4384 178.374 35.4384C178.665 35.4384 178.955 35.4384 179.216 35.4094C179.477 35.3804 179.739 35.3513 180 35.2933V39.3572C179.506 39.4442 179.013 39.4733 178.519 39.5023C177.968 39.5313 177.445 39.5313 176.923 39.5313C176.139 39.5313 175.384 39.4733 174.63 39.3572C173.962 39.2701 173.295 39.0378 172.714 38.7185C172.162 38.3992 171.698 37.9348 171.408 37.3542C171.059 36.6286 170.885 35.8448 170.914 35.032V23.7693H167.75V20.257H170.914V14.5386H176.139V20.257H180V20.286Z" fill="#231F20"/>
<path d="M15.6459 24.5819C16.7489 24.7851 17.5327 25.2496 17.9681 25.9752C18.4325 26.7009 18.6357 27.833 18.6357 29.4005C18.6357 32.5064 17.7068 35.0318 15.8491 36.9767C13.9913 38.9506 11.611 39.9375 8.70827 39.9375C7.5762 39.9375 6.44412 39.7343 5.39913 39.3279C4.38316 38.9506 3.42525 38.37 2.64151 37.6153C1.82874 36.8896 1.1611 36.0188 0.667634 35.0609C0.232221 34.19 0 33.2321 0 32.2742C0 31.2292 0.232221 30.4165 0.667634 29.8359C1.13208 29.2554 1.82874 28.878 2.81568 28.6458C2.67054 28.2974 2.5254 27.9201 2.40929 27.5718C2.32221 27.3395 2.29318 27.1363 2.29318 26.9041C2.29318 26.3526 2.58345 25.8011 3.16401 25.2205C3.74456 24.64 4.29608 24.3497 4.81858 24.3497C5.0508 24.3497 5.28302 24.3787 5.51524 24.4658C5.80552 24.5819 6.09579 24.698 6.35704 24.8722C5.39913 22.2017 4.7315 20.1407 4.29608 18.6893C3.86067 17.2379 3.65747 16.222 3.65747 15.6705C3.65747 14.9157 3.86067 14.3062 4.23803 13.8707C4.64441 13.4063 5.22496 13.1741 5.83454 13.2031C6.99565 13.2031 8.44703 15.7866 10.2177 20.9244C10.537 21.7953 10.7692 22.4919 10.9144 22.9564C11.0595 22.579 11.2337 22.0275 11.4949 21.3308C13.2656 16.222 14.775 13.6675 16.0522 13.6675C16.6328 13.6385 17.1843 13.8707 17.5617 14.3062C17.939 14.7416 18.1132 15.2931 18.1132 16.0188C18.1132 16.5703 17.91 17.5572 17.5036 18.9796C17.0972 20.4019 16.4586 22.2597 15.6459 24.5819ZM2.46734 32.1001C2.64151 32.3033 2.87373 32.6226 3.19303 33.0289C4.00581 34.132 4.76052 34.7125 5.42816 34.7125C5.66038 34.7125 5.86357 34.6255 6.06676 34.4803C6.2119 34.3642 6.32801 34.2191 6.35704 34.0159C6.35704 33.8417 6.24093 33.5224 5.97968 33.087C5.68941 32.5645 5.34107 32.1001 4.96372 31.6356C4.58636 31.1421 4.17997 30.6777 3.74456 30.2713C3.42525 29.981 3.16401 29.8359 2.96081 29.8359C2.5254 29.8359 2.14804 30.0681 1.77068 30.5326C1.39332 30.997 1.19013 31.5776 1.21916 32.1581C1.21916 32.7387 1.3643 33.3192 1.59652 33.8417C1.88679 34.5093 2.23512 35.148 2.69956 35.6995C3.39623 36.6574 4.32511 37.4121 5.39913 37.9346C6.50218 38.4571 7.72134 38.7183 8.96952 38.7183C11.2627 38.7474 13.4688 37.7895 14.9782 36.0478C16.6038 34.2771 17.3875 32.042 17.3875 29.3424C17.4165 28.6748 17.3295 28.0362 17.2134 27.3686C17.1263 26.9622 16.9231 26.5848 16.6038 26.3236C16.0523 25.8882 15.0943 25.5398 13.643 25.1915C12.1626 24.8432 10.6241 24.698 9.08563 24.698C8.65022 24.698 8.33092 24.7851 8.15675 24.9302C7.98258 25.0754 7.86647 25.3366 7.86647 25.685C7.86647 26.5268 8.33091 27.1363 9.2598 27.4847C10.1887 27.862 11.6981 28.0362 13.7881 28.0362H14.5428C14.688 28.0362 14.8621 28.0943 14.9492 28.2104C15.0653 28.3845 15.1524 28.5877 15.1524 28.7909C14.9492 28.9941 14.5138 29.1973 13.8752 29.4586C13.3527 29.6327 12.8592 29.894 12.3948 30.1842C11.6691 30.7067 11.0885 31.3744 10.6241 32.1291C10.2177 32.7677 9.98549 33.4934 9.95646 34.2481C9.98549 34.7416 10.0726 35.235 10.2467 35.6995C10.3919 36.0478 10.479 36.3961 10.537 36.7445V36.8606L10.508 37.0347C9.95646 37.0057 9.55007 36.6864 9.23077 36.0768C8.91147 35.4963 8.76633 34.6835 8.76633 33.6966V33.5224C8.67925 33.6095 8.59216 33.6676 8.47605 33.6966C8.38897 33.7256 8.27286 33.7546 8.18578 33.7546C8.06967 33.7546 7.98258 33.7546 7.86647 33.7256C7.75036 33.6966 7.63425 33.6675 7.54717 33.6385C7.5762 33.7546 7.60523 33.8998 7.63425 34.0449C7.66328 34.132 7.66328 34.2481 7.66328 34.3352C7.66328 34.7706 7.46009 35.206 7.14078 35.4963C6.79245 35.8156 6.32801 35.9898 5.86357 35.9898C5.07983 35.9898 4.29608 35.6124 3.51234 34.8577C2.72859 34.103 2.32221 33.3773 2.32221 32.6516C2.32221 32.5355 2.32221 32.4194 2.38026 32.3033C2.32221 32.2742 2.38026 32.1581 2.46734 32.1001ZM7.98258 32.5355C8.2148 32.5355 8.418 32.4194 8.56314 32.2452C8.7373 32.071 8.82438 31.8678 8.82438 31.6356C8.82438 31.4034 8.65022 30.8519 8.33092 30.0101C7.98258 29.1392 7.54717 28.2974 7.08273 27.4847C6.79245 26.9622 6.41509 26.4977 6.00871 26.0914C5.66038 25.772 5.31205 25.6269 4.99274 25.6269C4.7315 25.6269 4.44122 25.8011 4.15094 26.1204C3.83164 26.4397 3.6865 26.759 3.6865 27.0202C3.6865 27.3105 3.83164 27.7459 4.15094 28.3555C4.49927 29.0231 4.90566 29.6327 5.3701 30.2423C5.80552 30.8519 6.32801 31.4324 6.90856 31.9259C7.31495 32.3323 7.69231 32.5355 7.98258 32.5355ZM9.78229 23.653L7.80842 17.9056C7.28592 16.4542 6.90856 15.4963 6.61829 15.0318C6.32801 14.5964 6.03774 14.3642 5.68941 14.3642C5.45718 14.3642 5.22496 14.4803 5.07983 14.6545C4.90566 14.8867 4.81858 15.148 4.84761 15.4382C4.84761 15.9898 5.0508 16.9767 5.48621 18.399C5.92163 19.7924 6.56023 21.6211 7.43106 23.9143C7.48912 23.7982 7.60523 23.6821 7.75036 23.624C7.92453 23.566 8.12772 23.5369 8.30189 23.5369C8.38897 23.5369 8.53411 23.5369 8.7373 23.566C8.91147 23.566 9.28883 23.595 9.78229 23.653ZM11.8723 29.2263C11.3788 29.1973 10.8563 29.1392 10.3628 29.0522C9.8984 28.9651 9.46299 28.849 8.99855 28.6748C9.20174 29.0812 9.37591 29.4586 9.52105 29.8649C9.66618 30.2423 9.78229 30.6197 9.8984 31.026C10.1887 30.6777 10.479 30.3294 10.8273 30.0101C11.1466 29.7198 11.4949 29.4586 11.8723 29.2263ZM14.3106 24.2626C15.1234 22.0275 15.762 20.1988 16.2264 18.7183C16.6909 17.267 16.9231 16.3671 16.9231 16.0478C16.9521 15.7575 16.865 15.4673 16.6909 15.206C16.5457 15.0028 16.3135 14.8867 16.0522 14.9157C15.7039 14.9157 15.3556 15.206 15.0073 15.7575C14.6589 16.3381 14.2525 17.2379 13.8171 18.5152L11.9594 23.8272L14.3106 24.2626Z" fill="#231F20"/>
</svg>
