<svg width="180" height="60" viewBox="0 0 180 60" fill="none" xmlns="http://www.w3.org/2000/svg">
<path d="M6.54753 29.1878C6.4288 29.0325 6.24411 28.9412 6.04859 28.9412C5.80503 28.9412 5.58245 29.0829 5.47962 29.3038L0.0683303 40.123C0.0233406 40.2126 0 40.3117 0 40.4122C0 40.767 0.291926 41.059 0.64677 41.059H8.18171C8.42797 41.0647 8.65529 40.924 8.76015 40.7014C10.3855 37.3427 9.40049 32.2359 6.54753 29.1878Z" fill="url(#paint0_linear)"/>
<path d="M10.5163 19.3471C7.77635 23.5629 7.45939 28.9268 9.68317 33.436L13.3158 40.7013C13.4251 40.9202 13.6497 41.0589 13.8943 41.0589H21.4279C21.7827 41.0589 22.0746 40.7669 22.0746 40.4121C22.0746 40.3116 22.0513 40.2125 22.0063 40.1229C21.9613 40.0332 11.8711 19.8501 11.6164 19.343C11.5142 19.1336 11.3004 19 11.0674 19C10.8326 19 10.6178 19.1353 10.5163 19.3471Z" fill="#2684FF"/>
<path d="M98.8815 28.022C98.8815 30.7011 100.124 32.8281 104.986 33.7672C107.886 34.376 108.493 34.8442 108.493 35.811C108.493 36.75 107.884 37.3579 105.842 37.3579C103.373 37.3136 100.953 36.6587 98.7986 35.4521V39.8157C100.263 40.5339 102.196 41.3349 105.787 41.3349C110.869 41.3349 112.885 39.0685 112.885 35.7004L98.8815 28.022ZM112.885 35.7004C112.885 32.524 111.2 31.0323 106.45 30.0107C103.826 29.4305 103.19 28.8508 103.19 28.022C103.19 26.9734 104.129 26.5306 105.869 26.5306C107.969 26.5306 110.04 27.1658 112.001 28.0497V23.8789C110.121 23.0231 108.073 22.5985 106.007 22.6361C101.312 22.6361 98.8815 24.6799 98.8815 28.022" fill="#0052CC"/>
<path d="M164.173 22.9121V41.0589H168.04V27.221L169.67 30.8942L175.139 41.0589H180V22.9121H176.133V34.6233L174.669 31.2257L170.277 22.9121H164.173Z" fill="#0052CC"/>
<path fill-rule="evenodd" clip-rule="evenodd" d="M135.353 22.9121H139.579V41.0589H135.353V22.9121Z" fill="#0052CC"/>
<path d="M130.477 35.7004C130.477 32.524 128.792 31.0323 124.042 30.0107C121.418 29.4305 120.782 28.8508 120.782 28.022C120.782 26.9734 121.721 26.5306 123.461 26.5306C125.561 26.5306 127.632 27.1658 129.593 28.0497V23.8789C127.713 23.0231 125.665 22.5985 123.599 22.6361C118.904 22.6361 116.473 24.6799 116.473 28.022C116.473 30.7011 117.716 32.8281 122.578 33.7672C125.478 34.376 126.085 34.8442 126.085 35.811C126.085 36.75 125.477 37.3579 123.434 37.3579C120.965 37.3136 118.545 36.6587 116.391 35.4521V39.8157C117.855 40.5339 119.788 41.3349 123.379 41.3349C128.461 41.3349 130.477 39.0685 130.477 35.7004Z" fill="#0052CC"/>
<path d="M66.0527 22.9121V41.0589H74.7388L76.1064 37.1367H70.3061V22.9121H66.0527Z" fill="#0052CC"/>
<path d="M48.8916 22.9121V26.834H53.5871V41.0589H57.8405V26.834H62.8675V22.9121H48.8916Z" fill="#0052CC"/>
<path d="M42.7241 22.9121H37.1498L30.8218 41.0589H35.6543L36.5514 38.0026C38.7606 38.6514 41.1102 38.6514 43.3195 38.0026L44.2166 41.0589H49.0501L42.7241 22.9121ZM39.9368 34.7302C39.1496 34.7302 38.3665 34.6176 37.6112 34.3957L39.9368 26.4764L42.2624 34.3984C41.507 34.6193 40.7239 34.7309 39.9368 34.7302Z" fill="#0052CC"/>
<path d="M89.7133 22.9121H84.1393L77.8113 41.0589H82.6448L83.5419 38.0026C85.7511 38.6514 88.1007 38.6514 90.31 38.0026L91.2071 41.0589H96.0406L89.7133 22.9121ZM86.9263 34.7302C86.1391 34.7302 85.356 34.6176 84.6007 34.3957L86.9263 26.4764L89.2519 34.3984C88.4965 34.6193 87.7134 34.7309 86.9263 34.7302Z" fill="#0052CC"/>
<path d="M154.808 22.9121H149.234L142.906 41.0589H147.739L148.636 38.0026C150.845 38.6514 153.195 38.6514 155.404 38.0026L156.301 41.0589H161.135L154.808 22.9121ZM152.019 34.7302C151.232 34.7302 150.449 34.6176 149.693 34.3957L152.019 26.4764L154.344 34.3984C153.589 34.6193 152.806 34.7309 152.019 34.7302Z" fill="#0052CC"/>
<defs>
<linearGradient id="paint0_linear" x1="9.51314" y1="30.8575" x2="3.80248" y2="40.7488" gradientUnits="userSpaceOnUse">
<stop stop-color="#0052CC"/>
<stop offset="0.92" stop-color="#2684FF"/>
<stop offset="1" stop-color="#2684FF"/>
</linearGradient>
</defs>
</svg>
