<svg width="425" height="106" viewBox="0 0 425 106" fill="none" xmlns="http://www.w3.org/2000/svg">
<g clip-path="url(#clip0_2674_2)">
<path fill-rule="evenodd" clip-rule="evenodd" d="M17.0724 58.8697C20.9836 56.6115 20.9901 49.3006 17.0869 42.5402C13.1837 35.7799 6.84888 32.1302 2.93767 34.3884C-0.973545 36.6466 -0.980047 43.9576 2.92315 50.7179C6.82634 57.4783 13.1612 61.1279 17.0724 58.8697ZM17.0958 73.3453C20.999 80.1057 20.9925 87.4166 17.0813 89.6748C13.17 91.933 6.83522 88.2833 2.93203 81.523C-0.971168 74.7627 -0.964668 67.4517 2.94655 65.1935C6.85776 62.9353 13.1926 66.585 17.0958 73.3453ZM43.7495 88.7551C47.6527 95.5154 47.6462 102.826 43.735 105.085C39.8238 107.343 33.4889 103.693 29.5857 96.9327C25.6826 90.1724 25.6891 82.8615 29.6003 80.6032C33.5115 78.345 39.8463 81.9947 43.7495 88.7551ZM43.7408 57.9504C47.644 64.7107 47.6375 72.0217 43.7263 74.2799C39.8151 76.5381 33.4803 72.8884 29.5771 66.1281C25.6739 59.3677 25.6804 52.0568 29.5916 49.7986C33.5028 47.5404 39.8377 51.1901 43.7408 57.9504Z" fill="#F26E7E"/>
<path fill-rule="evenodd" clip-rule="evenodd" d="M97.0612 50.7349C100.964 43.9746 100.958 36.6636 97.0467 34.4054C93.1355 32.1472 86.8007 35.7969 82.8975 42.5573C78.9943 49.3176 79.0008 56.6285 82.912 58.8868C86.8232 61.145 93.1581 57.4953 97.0612 50.7349ZM97.062 65.2032C100.973 67.4614 100.98 74.7723 97.0766 81.5327C93.1734 88.293 86.8385 91.9427 82.9273 89.6845C79.0161 87.4263 79.0096 80.1153 82.9128 73.355C86.816 66.5947 93.1508 62.945 97.062 65.2032ZM70.4136 80.5877C74.3249 82.8459 74.3314 90.1568 70.4282 96.9172C66.525 103.677 60.1901 107.327 56.2789 105.069C52.3677 102.811 52.3612 95.4998 56.2644 88.7395C60.1676 81.9791 66.5024 78.3294 70.4136 80.5877ZM70.3986 49.7897C74.3098 52.0479 74.3163 59.3589 70.4131 66.1192C66.5099 72.8796 60.1751 76.5293 56.2638 74.2711C52.3526 72.0129 52.3461 64.7019 56.2493 57.9416C60.1525 51.1812 66.4873 47.5315 70.3986 49.7897Z" fill="#8A3391"/>
<path fill-rule="evenodd" clip-rule="evenodd" d="M64.1222 8.17769C64.1222 12.6941 57.7939 16.3554 49.9875 16.3554C42.1811 16.3554 35.8528 12.6941 35.8528 8.17769C35.8528 3.66127 42.1811 0 49.9875 0C57.7939 0 64.1222 3.66127 64.1222 8.17769ZM37.474 23.5464C37.474 28.0628 31.1457 31.7241 23.3393 31.7241C15.5329 31.7241 9.20459 28.0628 9.20459 23.5464C9.20459 19.03 15.5329 15.3687 23.3393 15.3687C31.1457 15.3687 37.474 19.03 37.474 23.5464ZM76.6705 31.7241C84.4769 31.7241 90.8052 28.0628 90.8052 23.5464C90.8052 19.03 84.4769 15.3687 76.6705 15.3687C68.8641 15.3687 62.5358 19.03 62.5358 23.5464C62.5358 28.0628 68.8641 31.7241 76.6705 31.7241ZM64.1222 38.9496C64.1222 43.466 57.7939 47.1272 49.9875 47.1272C42.1811 47.1272 35.8528 43.466 35.8528 38.9496C35.8528 34.4332 42.1811 30.7719 49.9875 30.7719C57.7939 30.7719 64.1222 34.4332 64.1222 38.9496Z" fill="#F7BF2A"/>
<path fill-rule="evenodd" clip-rule="evenodd" d="M253.247 8H258.07C259.567 8 260.398 8.8367 260.398 10.3428V66.695C260.398 68.2012 259.567 69.0379 258.07 69.0379H253.247C251.75 69.0379 250.918 68.2012 250.918 66.695V10.3428C250.918 8.8367 251.75 8 253.247 8ZM160.484 69.0376C161.981 69.0376 162.813 68.2009 162.813 66.6948V47.827H172.583C184.974 47.827 192.75 40.3804 192.75 29.1685C192.75 17.9984 184.974 10.5099 172.583 10.5099H155.329C153.832 10.5099 153 11.3466 153 12.8527V66.6948C153 68.2009 153.832 69.0376 155.329 69.0376H160.484ZM162.813 18.8351H171.96C178.945 18.8351 182.896 22.8932 182.896 29.1685C182.896 35.4857 178.945 39.5437 171.96 39.5437H162.813V18.8351ZM199.735 28.0809V52.4291C199.735 63.0972 206.596 70 216.95 70C222.438 70 227.136 67.2807 230.047 63.3064V66.695C230.047 68.2011 230.878 69.0378 232.375 69.0378H237.24C238.737 69.0378 239.569 68.2011 239.569 66.695V28.0809C239.569 26.5748 238.737 25.7381 237.24 25.7381H232.375C230.878 25.7381 230.047 26.5748 230.047 28.0809V49.3333C230.047 56.529 224.891 61.591 218.904 61.591C213.166 61.591 209.216 57.4912 209.216 51.6342V28.0809C209.216 26.5748 208.384 25.7381 206.887 25.7381H202.064C200.567 25.7381 199.735 26.5748 199.735 28.0809ZM270.96 28.0809V52.4291C270.96 63.0972 277.82 70 288.174 70C293.663 70 298.361 67.2807 301.272 63.3064V66.695C301.272 68.2011 302.103 69.0378 303.6 69.0378H308.465C309.962 69.0378 310.793 68.2011 310.793 66.695V28.0809C310.793 26.5748 309.962 25.7381 308.465 25.7381H303.6C302.103 25.7381 301.272 26.5748 301.272 28.0809V49.3333C301.272 56.529 296.116 61.591 290.128 61.591C284.39 61.591 280.44 57.4912 280.44 51.6342V28.0809C280.44 26.5748 279.608 25.7381 278.112 25.7381H273.289C271.792 25.7381 270.96 26.5748 270.96 28.0809ZM388.795 42.3469V66.7369C388.795 68.243 387.963 69.0797 386.467 69.0797H381.602C380.105 69.0797 379.274 68.243 379.274 66.7369V43.1836C379.274 37.3267 375.657 33.2268 370.334 33.2268C364.97 33.2268 359.898 38.6654 359.898 45.2335V66.7369C359.898 68.243 359.066 69.0797 357.569 69.0797H352.705C351.208 69.0797 350.376 68.243 350.376 66.7369V43.1836C350.376 37.3267 346.759 33.2268 341.437 33.2268C336.323 33.2268 331 38.1634 331 45.2335V66.7369C331 68.243 330.168 69.0797 328.671 69.0797H323.807C322.311 69.0797 321.479 68.243 321.479 66.7369V28.0811C321.479 26.5749 322.311 25.7382 323.807 25.7382H328.671C330.168 25.7382 331 26.5749 331 28.0811V31.3861C334.035 27.3698 338.402 24.7342 343.432 24.7342C349.919 24.7342 355.365 28.1228 358.069 33.7289C360.896 28.2902 366.135 24.7342 372.288 24.7342C381.644 24.7342 388.795 31.6789 388.795 42.3469ZM410 13.9408C410 10.6358 407.422 8.08385 404.095 8.08385C400.769 8.08385 398.233 10.6358 398.233 13.9408C398.233 17.2039 400.769 19.7559 404.095 19.7559C407.422 19.7559 410 17.2039 410 13.9408ZM408.836 28.0811C408.836 26.575 408.005 25.7383 406.508 25.7383H401.684C400.187 25.7383 399.356 26.575 399.356 28.0811V66.6952C399.356 68.2013 400.187 69.038 401.684 69.038H406.508C408.005 69.038 408.836 68.2013 408.836 66.6952V28.0811Z" fill="black"/>
<path d="M168.542 101H164.942L163.934 97.976H157.238L156.23 101H152.654L158.534 84.2H162.638L168.542 101ZM160.598 88.016L158.294 94.88H162.902L160.598 88.016ZM183.832 95.48V89H186.928V101H183.832V99.656C183.088 100.784 181.888 101.336 180.256 101.336C178.936 101.336 177.856 100.904 176.992 100.016C176.152 99.128 175.72 97.928 175.72 96.368V89H178.816V95.984C178.816 97.592 179.752 98.456 181.192 98.456C182.8 98.456 183.832 97.472 183.832 95.48ZM202.628 89V91.976H199.916V96.968C199.916 98.264 200.852 98.288 202.628 98.192V101C198.38 101.48 196.82 100.256 196.82 96.968V91.976H194.732V89H196.82V86.576L199.916 85.64V89H202.628ZM220.66 99.512C219.436 100.736 217.924 101.336 216.148 101.336C214.372 101.336 212.86 100.736 211.636 99.512C210.412 98.288 209.812 96.776 209.812 95C209.812 93.224 210.412 91.736 211.636 90.512C212.86 89.288 214.372 88.664 216.148 88.664C217.924 88.664 219.436 89.288 220.66 90.512C221.884 91.736 222.508 93.224 222.508 95C222.508 96.776 221.884 98.288 220.66 99.512ZM213.82 97.376C214.444 98 215.212 98.312 216.148 98.312C217.084 98.312 217.852 98 218.476 97.376C219.1 96.752 219.412 95.96 219.412 95C219.412 94.04 219.1 93.248 218.476 92.624C217.852 92 217.084 91.688 216.148 91.688C215.212 91.688 214.444 92 213.82 92.624C213.22 93.248 212.908 94.04 212.908 95C212.908 95.96 213.22 96.752 213.82 97.376ZM243.958 88.664C246.718 88.664 248.494 90.608 248.494 93.608V101H245.398V93.824C245.398 92.384 244.654 91.544 243.382 91.544C241.966 91.544 241.15 92.504 241.15 94.256V101H238.054V93.824C238.054 92.384 237.31 91.544 236.038 91.544C234.67 91.544 233.782 92.504 233.782 94.256V101H230.686V89H233.782V90.272C234.502 89.192 235.606 88.664 237.118 88.664C238.582 88.664 239.686 89.24 240.382 90.392C241.174 89.24 242.374 88.664 243.958 88.664ZM266.243 90.416V89H269.339V101H266.243V99.584C265.307 100.76 264.011 101.336 262.331 101.336C260.723 101.336 259.355 100.736 258.203 99.512C257.075 98.288 256.499 96.776 256.499 95C256.499 93.224 257.075 91.736 258.203 90.512C259.355 89.288 260.723 88.664 262.331 88.664C264.011 88.664 265.307 89.24 266.243 90.416ZM260.531 97.448C261.155 98.072 261.947 98.384 262.907 98.384C263.867 98.384 264.659 98.072 265.283 97.448C265.931 96.8 266.243 95.984 266.243 95C266.243 94.016 265.931 93.2 265.283 92.576C264.659 91.928 263.867 91.616 262.907 91.616C261.947 91.616 261.155 91.928 260.531 92.576C259.907 93.2 259.595 94.016 259.595 95C259.595 95.984 259.907 96.8 260.531 97.448ZM285.01 89V91.976H282.298V96.968C282.298 98.264 283.234 98.288 285.01 98.192V101C280.762 101.48 279.202 100.256 279.202 96.968V91.976H277.114V89H279.202V86.576L282.298 85.64V89H285.01ZM294.729 87.56C293.697 87.56 292.833 86.696 292.833 85.664C292.833 84.632 293.697 83.744 294.729 83.744C295.785 83.744 296.649 84.632 296.649 85.664C296.649 86.696 295.785 87.56 294.729 87.56ZM296.289 101H293.193V89H296.289V101ZM315.347 99.512C314.123 100.736 312.611 101.336 310.835 101.336C309.059 101.336 307.547 100.736 306.323 99.512C305.099 98.288 304.499 96.776 304.499 95C304.499 93.224 305.099 91.736 306.323 90.512C307.547 89.288 309.059 88.664 310.835 88.664C312.611 88.664 314.123 89.288 315.347 90.512C316.571 91.736 317.195 93.224 317.195 95C317.195 96.776 316.571 98.288 315.347 99.512ZM308.507 97.376C309.131 98 309.899 98.312 310.835 98.312C311.771 98.312 312.539 98 313.163 97.376C313.787 96.752 314.099 95.96 314.099 95C314.099 94.04 313.787 93.248 313.163 92.624C312.539 92 311.771 91.688 310.835 91.688C309.899 91.688 309.131 92 308.507 92.624C307.907 93.248 307.595 94.04 307.595 95C307.595 95.96 307.907 96.752 308.507 97.376ZM332.045 88.664C333.365 88.664 334.445 89.096 335.285 89.984C336.149 90.872 336.581 92.072 336.581 93.632V101H333.485V94.016C333.485 92.408 332.549 91.544 331.109 91.544C329.501 91.544 328.469 92.528 328.469 94.52V101H325.373V89H328.469V90.344C329.213 89.216 330.413 88.664 332.045 88.664ZM371.769 101H368.169L367.161 97.976H360.465L359.457 101H355.881L361.761 84.2H365.865L371.769 101ZM363.825 88.016L361.521 94.88H366.129L363.825 88.016ZM379.4 84.2H385.664C387.272 84.2 388.64 84.752 389.744 85.832C390.848 86.912 391.4 88.256 391.4 89.84C391.4 91.424 390.848 92.768 389.744 93.848C388.64 94.928 387.272 95.48 385.664 95.48H382.712V101H379.4V84.2ZM382.712 92.384H385.664C387.08 92.384 388.112 91.28 388.112 89.84C388.112 88.376 387.08 87.296 385.664 87.296H382.712V92.384ZM399.556 101V84.2H402.868V101H399.556Z" fill="black"/>
</g>
<defs>
<clipPath id="clip0_2674_2">
<rect width="425" height="106" fill="white"/>
</clipPath>
</defs>
</svg>
