<svg width="275" height="71" viewBox="0 0 275 71" fill="none" xmlns="http://www.w3.org/2000/svg">
<mask id="mask0" mask-type="alpha" maskUnits="userSpaceOnUse" x="76" y="15" width="199" height="51">
<path d="M238 64.3369L236.319 65.9677C234.052 65.7329 231.591 66.5027 229.369 65.3154L220.088 39.2085V64.2325L218.246 65.9547C215.947 65.6872 213.364 66.607 211 65.0349V15.9785C213.351 14.3607 215.947 15.411 218.343 15C220.404 17.3941 220.854 20.3818 221.885 23.0956C223.345 26.9357 224.753 30.7998 226.11 34.6878C227.012 37.245 227.785 39.8544 228.616 42.4376C228.698 42.3918 228.776 42.3371 228.848 42.2746C228.918 42.2019 228.963 42.108 228.976 42.0071C228.976 33.3244 228.976 24.6482 228.976 16.0242C231.359 14.3998 233.949 15.3262 236.338 15.0522L237.994 16.6961L238 64.3369Z" fill="black"/>
<path d="M168.98 65.0062C166.562 66.4774 164.012 65.6572 161.521 65.9241C159.786 64.3227 159.316 62.0769 158.527 60.0198C157.527 57.416 156.964 54.5778 155.785 52.0325C154.606 49.4872 154.202 46.6425 152.731 44.1493C151.764 42.5089 151.539 40.4518 150.664 38.6421V64.9672C149.315 65.5825 147.855 65.9302 146.368 65.9905C144.881 66.0509 143.397 65.8226 142 65.3187V15.6956C144.667 14.7251 147.607 14.7716 150.24 15.8258C153.332 24.2754 156.394 32.6988 159.428 41.0963C159.513 41.0658 159.593 41.0242 159.667 40.9726C159.746 40.9056 159.8 40.8136 159.819 40.7122C159.819 32.79 159.819 24.8742 159.819 16.7046L161.806 15.1032C164.019 15.3636 166.569 14.4848 169 16.0016L168.98 65.0062Z" fill="black"/>
<path d="M101 58.9609C100.095 62.4261 98.2836 64.2208 94.6938 65.3041C89.6977 66.5636 83.6612 65.6695 77.5477 65.9567L76 64.0445V16.5358L78.1063 15.0022C77.6054 15.1262 77.7981 15.0348 77.9972 15.0348C81.8502 15.0348 85.7033 14.9565 89.5564 15.0348C91.4829 15.087 93.5764 15.0805 95.336 15.7592C97.2111 16.477 99.3817 17.2601 100.12 19.6747C100.37 20.296 100.664 20.898 101 21.4759V37.7385C100.242 38.5738 99.3946 39.507 98.5212 40.4794C99.2854 41.3539 100.172 42.3654 101 43.2986V58.9609ZM85.0483 24.2298V35.8525H91.7462C92.0031 35.5915 92.4205 35.3631 92.4269 35.1347C92.4654 31.7347 92.4269 28.3281 92.4269 24.9412L91.7269 24.2298H85.0483ZM92.6517 45.5957C90.0188 44.5451 87.4693 45.1781 85.0419 45.152V56.729H91.7334L92.6517 55.8219V45.5957Z" fill="black"/>
<path d="M135.72 65.9944C133.468 65.7394 130.934 66.5698 128.425 65.0725C127.912 62.2805 127.38 59.3447 126.764 56.0035C126.24 55.7662 125.684 55.6097 125.115 55.5392C122.241 55.4804 119.341 55.5392 116.512 55.5392C114.761 58.7693 115.614 62.7317 113.548 65.8964H106.594C106.427 65.4125 105.953 64.7325 106.004 64.0983C106.172 62.3529 106.453 60.6208 106.844 58.9132C107.338 56.6312 108.018 54.3885 108.506 52.1065C108.827 50.583 108.762 48.9614 109.224 47.4968C109.641 46.1498 109.455 44.6002 110.45 43.4429C110.065 40.6574 111.45 38.1662 111.861 35.5115C112.169 33.0899 112.717 30.7063 113.497 28.3976C113.959 27.1552 114.036 25.5794 114.292 24.154C114.549 22.7286 114.389 21.0678 115.082 19.9301C115.774 18.7924 115.268 17.8377 115.928 16.3077L117.468 15H125.558L127.078 17.0139C127.455 19.5586 127.971 22.0799 128.624 24.566C128.812 25.3642 128.96 26.1716 129.067 26.9852C129.227 27.7764 129.542 28.5349 129.708 29.3326C129.965 30.758 129.708 32.543 130.472 33.55C131.447 34.8577 130.26 36.4139 131.492 37.4012C131.492 40.0166 132.679 42.3967 132.942 44.9663C133.07 46.1956 133.051 47.5818 133.641 48.5756C134.558 50.0926 134.116 51.7926 134.783 53.3357C135.341 54.6435 134.866 56.4743 135.598 57.5335C136.541 58.9001 135.803 60.3647 136.573 61.7509C136.963 62.4425 137.092 63.2557 136.935 64.0374C136.778 64.819 136.345 65.5151 135.72 65.9944V65.9944ZM121.022 29.3783C119.906 35.5965 118.841 41.5401 117.763 47.5164H124.929C123.851 41.3963 122.786 35.3612 121.721 29.3391L121.022 29.3783Z" fill="black"/>
<path d="M184.591 15.7565C188.118 14.7369 191.862 14.7482 195.383 15.789C198.922 32.1523 202.461 48.5024 206 64.8396C203.667 66.6389 201.042 65.674 198.359 66L196.936 63.9986L195.318 55.6084H184.591C184.075 58.4899 183.553 61.417 183.025 64.3898C182.557 64.8787 182.031 65.4263 181.544 65.9478H175.884L174 64.9765C177.515 48.6524 181.03 32.3087 184.591 15.7565ZM193.687 47.6028C192.44 40.9728 191.238 34.5644 189.977 27.8757L186.287 47.6028H193.687Z" fill="black"/>
<path d="M275 64.7394L273.726 65.9811C271.317 65.7131 268.783 66.5366 266.467 65.2622C265.147 62.1449 265.45 58.6028 263.945 55.5182H253.888L253.28 56.2894C252.726 59.2629 252.198 62.1057 251.67 64.9224C249.558 66.5235 247.129 65.8373 244.826 65.9157C244.277 65.8288 243.752 65.6332 243.282 65.3406C242.516 62.9683 243.506 60.9686 243.942 58.9884C244.14 58.178 244.186 57.3677 244.364 56.5638C244.542 55.76 244.839 55.015 245.024 54.2177C245.73 50.8063 246.245 47.3427 247.176 43.9901C247.644 42.3041 247.836 40.5853 248.311 38.9123C249.01 36.357 249.452 33.7364 250.106 31.1615C250.759 28.5867 251.135 26.136 251.63 23.6134C251.861 22.3979 251.762 20.9993 252.37 20.0125C253.096 18.8623 252.818 17.7709 252.964 16.5815L254.646 15H263.226L264.691 16.6077C267.945 32.7692 271.852 48.8066 275 64.7394ZM258.501 29.3905L255.201 47.5583H262.546C261.444 41.4414 260.355 35.4029 259.246 29.3905H258.501Z" fill="black"/>
</mask>
<g mask="url(#mask0)">
<rect x="71" y="-3" width="210" height="81" fill="url(#paint0_linear)"/>
</g>
<path d="M6.46643 24.8263C8.3924 24.121 9.24441 25.2011 10.1127 26.4826C12.2391 29.6126 14.6334 32.4506 18.238 34.0475C25.046 37.0742 35.7521 37.206 42.2295 29.9496C44.2294 27.7525 46.6188 25.9433 49.2777 24.6127C51.3393 23.5432 52.7498 21.1842 54.9104 18.94C55.8916 18.8215 56.8861 19.0104 57.7562 19.4807C58.6264 19.9509 59.3293 20.6792 59.7676 21.5648C58.4156 22.2846 57.0629 22.798 56.0009 23.6361C54.9389 24.4742 54.062 25.7327 52.9291 26.9736C54.2649 30.2134 53.7053 33.3558 51.9531 36.2858C49.2374 40.805 45.9278 44.8166 40.9279 46.9132C33.2488 50.1268 25.6037 49.995 18.0278 46.2778C14.0184 44.2866 10.2484 42.0344 7.28329 38.6295C4.0325 34.8766 2.7334 29.6905 6.46643 24.8263Z" fill="white"/>
<path d="M6.46643 24.8263C8.3924 24.121 9.24441 25.2011 10.1127 26.4826C12.2391 29.6126 14.6334 32.4506 18.238 34.0475C25.046 37.0742 35.7521 37.206 42.2295 29.9496C44.2294 27.7525 46.6188 25.9433 49.2777 24.6127C51.3393 23.5432 52.7498 21.1842 54.9104 18.94C55.8916 18.8215 56.8861 19.0104 57.7562 19.4807C58.6264 19.9509 59.3293 20.6792 59.7676 21.5648C58.4156 22.2846 57.0629 22.798 56.0009 23.6361C54.9389 24.4742 54.062 25.7327 52.9291 26.9736C54.2649 30.2134 53.7053 33.3558 51.9531 36.2858C49.2374 40.805 45.9278 44.8166 40.9279 46.9132C33.2488 50.1268 25.6037 49.995 18.0278 46.2778C14.0184 44.2866 10.2484 42.0344 7.28329 38.6295C4.0325 34.8766 2.7334 29.6905 6.46643 24.8263ZM55.2657 22.0086L54.6044 21.4547C53.9065 22.1709 53.2397 22.9025 52.5106 23.5903C51.6863 24.379 50.8567 25.1651 49.9649 25.8816C47.7405 27.6689 45.0571 29.0802 43.3072 31.2385C37.2675 38.6929 21.531 40.0821 13.8675 32.9655C12.5145 31.6054 11.2394 30.17 10.0485 28.6664C9.35258 27.8571 8.762 26.8617 7.48302 27.7466C7.28168 31.2858 9.185 34.8912 12.4938 37.5779C15.4406 39.9238 18.8521 41.6181 22.5019 42.5482C30.757 44.7155 38.5579 44.3256 45.2678 38.3956C48.0996 35.8793 50.6898 33.0562 51.2671 29.1369C51.5089 27.3386 52.3039 25.6606 53.5423 24.3346C54.1936 23.5952 54.6973 22.7761 55.2657 22.0086V22.0086Z" fill="url(#paint1_linear)"/>
<path d="M0.813588 52.0068C2.71833 49.9979 4.3967 50.7921 6.21557 51.8199C10.6652 54.3271 15.2631 56.3203 20.5792 56.0867C30.626 55.6585 43.647 49.3906 47.1208 36.7303C48.2193 32.8737 50.0215 29.2523 52.4369 26.0476C54.287 23.5171 54.5758 19.8187 55.8404 15.8088C56.9554 15.0765 58.2709 14.7078 59.6051 14.7538C60.9393 14.7999 62.2262 15.2583 63.2877 16.0657C62.0855 17.7475 60.7584 19.1802 59.9778 20.8309C59.1972 22.4815 58.8927 24.5293 58.2682 26.7094C61.8279 29.8239 63.0379 33.9584 62.6788 38.5522C62.1089 45.6455 60.5164 52.4817 55.7312 58.0177C48.3776 66.5125 39.0568 70.9428 27.6674 70.9973C21.6253 70.9973 15.7159 70.5379 10.0875 68.2021C3.9049 65.6171 -0.778905 60.1278 0.813588 52.0068Z" fill="white"/>
<path d="M0.813588 52.0095C2.71833 50.0006 4.3967 50.7948 6.21557 51.8226C10.6652 54.3298 15.2631 56.323 20.5792 56.0894C30.626 55.6612 43.647 49.3933 47.1208 36.733C48.2193 32.8764 50.0215 29.2549 52.4369 26.0503C54.287 23.5198 54.5758 19.8213 55.8404 15.8115C56.9554 15.0791 58.2709 14.7105 59.6051 14.7565C60.9393 14.8026 62.2262 15.261 63.2877 16.0684C62.0855 17.7502 60.7584 19.1829 59.9778 20.8336C59.1972 22.4842 58.8927 24.532 58.2682 26.7121C61.8279 29.8266 63.0379 33.9611 62.6788 38.5549C62.1089 45.6481 60.5164 52.4844 55.7312 58.0204C48.3776 66.5151 39.0568 70.9455 27.6674 71C21.6253 71 15.7159 70.5406 10.0875 68.2048C3.9049 65.6197 -0.778905 60.1305 0.813588 52.0095ZM58.1121 19.3075L56.9802 19.0349C56.5664 20.3197 56.1995 21.6044 55.7312 22.8735C55.2081 24.3218 54.6773 25.77 54.0294 27.1715C52.4135 30.6675 50.0169 33.9844 49.1973 37.6439C46.3714 50.2809 28.1826 61.4074 14.6464 57.4053C12.1943 56.5733 9.79131 55.6037 7.44897 54.501C6.1219 53.9404 4.81043 53.0917 3.79561 54.9293C5.67693 59.3285 10.1422 62.5442 15.7549 63.8055C20.7253 64.8723 25.8664 64.8723 30.8368 63.8055C42.1169 61.4697 51.3128 56.3152 55.8639 45.1187C57.7764 40.3769 59.2128 35.4093 57.5578 30.3249C56.7705 28.0059 56.7241 25.5003 57.4251 23.1538C57.7686 21.8691 57.8857 20.5766 58.1121 19.3075V19.3075Z" fill="url(#paint2_linear)"/>
<defs>
<linearGradient id="paint0_linear" x1="106.017" y1="3.40266" x2="151.884" y2="113.116" gradientUnits="userSpaceOnUse">
<stop stop-color="#B0DB43"/>
<stop offset="1" stop-color="#12EAEA"/>
</linearGradient>
<linearGradient id="paint1_linear" x1="11.2175" y1="9.37215" x2="55.0403" y2="59.9984" gradientUnits="userSpaceOnUse">
<stop stop-color="#B0DB43"/>
<stop offset="1" stop-color="#12EAEA"/>
</linearGradient>
<linearGradient id="paint2_linear" x1="10.9696" y1="19.1988" x2="55.7011" y2="65.2676" gradientUnits="userSpaceOnUse">
<stop stop-color="#B0DB43"/>
<stop offset="1" stop-color="#12EAEA"/>
</linearGradient>
</defs>
</svg>
