<svg width="53" height="53" viewBox="0 0 53 53" fill="none" xmlns="http://www.w3.org/2000/svg">
<g clip-path="url(#clip0_2_52640)">
<path d="M41.7001 26.1838C41.7001 34.7589 34.7589 41.7001 26.1838 41.7001V26.1838H41.7001ZM26.1838 10.6675V26.1838H10.6675C10.6675 17.6088 17.6088 10.6675 26.1838 10.6675Z" fill="#0166B1"/>
<path d="M26.1838 10.6675C34.7589 10.6675 41.7001 17.6088 41.7001 26.1838H26.1838V10.6675ZM10.6675 26.1838H26.1838V41.7001C17.6088 41.7001 10.6675 34.7589 10.6675 26.1838Z" fill="white"/>
<path d="M26.1838 10.6675V11.5182C34.2696 11.5182 40.8494 18.0964 40.8494 26.1838H41.7001C41.7001 17.6149 34.7527 10.6675 26.1838 10.6675ZM26.1838 40.8494C18.098 40.8494 11.5182 34.2712 11.5182 26.1838H10.6675C10.6675 34.7527 17.6149 41.7001 26.1838 41.7001M26.1838 0C11.7233 0 0 11.7233 0 26.1838C0 40.6443 11.7233 52.3676 26.1838 52.3676C40.6443 52.3676 52.3676 40.6443 52.3676 26.1838C52.3676 11.7233 40.6443 0 26.1838 0ZM50.6649 26.1838C50.6649 39.7037 39.7052 50.6649 26.1838 50.6649C12.6624 50.6649 1.70269 39.7037 1.70269 26.1838C1.70269 12.6639 12.6639 1.70269 26.1838 1.70269C39.7037 1.70269 50.6649 12.6639 50.6649 26.1838Z" fill="#6F6F6F"/>
<path d="M14.9942 13.5523C15.8309 12.6771 16.3046 11.6659 15.4679 10.7005C15.0126 10.1766 14.2482 10.062 13.6145 10.3202L13.5515 10.3446L13.5715 10.2896C13.6653 10.0406 13.7253 9.24634 13.0439 8.69798C12.7117 8.43067 12.2949 8.33139 11.8734 8.37415C11.0875 8.45358 10.483 8.98667 8.83727 10.809C8.34047 11.3588 7.61758 12.2265 7.18384 12.7886L11.7042 17.0472C13.2023 15.4005 13.8129 14.788 14.9942 13.5523ZM9.09567 12.5106C10.0062 11.4047 10.9737 10.4011 11.412 10.004C11.5504 9.87872 11.7012 9.75347 11.8842 9.70459C12.181 9.62363 12.4871 9.8329 12.5563 10.1353C12.6256 10.4393 12.4333 10.728 12.2195 10.9663C11.7381 11.5055 9.97237 13.34 9.97237 13.34L9.09567 12.5106ZM10.866 14.1786C10.866 14.1786 12.5856 12.3731 13.147 11.7957C13.37 11.5666 13.513 11.4276 13.6668 11.3527C13.8652 11.2565 14.0821 11.2366 14.2759 11.365C14.4666 11.4917 14.5543 11.7102 14.5066 11.9271C14.4497 12.1852 14.2375 12.4311 14.0621 12.619C13.8253 12.871 11.7858 15.0385 11.7827 15.0416L10.866 14.1786ZM26.7005 8.47344L28.1478 5.25352L28.2401 4.96788L28.214 5.26574L28.3662 9.56864C28.8738 9.61599 29.3983 9.68626 29.9151 9.7718L29.6798 3.39916C28.9569 3.31973 28.237 3.26322 27.5172 3.23267L26.0914 6.74739L26.0407 7.00859L25.9899 6.74739L24.5656 3.23267C23.8458 3.26322 23.126 3.31973 22.4031 3.39916L22.1678 9.7718C22.6846 9.68626 23.2091 9.61752 23.7166 9.56864L23.8689 5.26574L23.8428 4.96788L23.935 5.25352L25.3824 8.47344H26.7005ZM38.7206 15.1348C39.0759 15.5136 39.588 16.1246 39.8757 16.4958L45.1728 13.1567C44.9082 12.813 44.4868 12.2906 44.1715 11.9225L40.817 14.1251L40.5878 14.3206L40.7585 14.0732L42.2397 11.1374L41.1923 10.0971L38.2345 11.5681L37.9854 11.7377L38.1838 11.5101L40.4032 8.18016C40.0126 7.85023 39.6373 7.54779 39.1589 7.1812L35.7967 12.4372C36.2227 12.7626 36.7841 13.2407 37.1425 13.5661L40.3079 11.9347L40.5109 11.7865L40.3617 11.9882L38.7206 15.1348Z" fill="#6F6F6F"/>
</g>
<defs>
<clipPath id="clip0_2_52640">
<rect width="52.3676" height="52.3676" fill="white"/>
</clipPath>
</defs>
</svg>
