<svg width="2345" height="300" viewBox="0 0 2345 300" fill="none" xmlns="http://www.w3.org/2000/svg">
<mask id="path-1-outside-1_189_7303" maskUnits="userSpaceOnUse" x="1633.08" y="61" width="711" height="178" fill="black">
<rect fill="white" x="1633.08" y="61" width="711" height="178"/>
<path d="M1909.84 141.55C1912.98 148.459 1919.36 152.725 1925.48 152.725C1933.56 152.725 1939.66 146.207 1939.66 138.029C1939.66 130.767 1936.47 126.705 1922.76 116.966C1910.47 108.242 1905.94 101.848 1905.94 92.533C1905.94 82.543 1913.29 73.049 1925.59 73.049C1934.44 73.049 1942.41 78.154 1944.86 86.371L1938.1 89.83C1935.93 83.811 1930.91 80.499 1925.42 80.499C1918.95 80.499 1913.72 85.584 1913.72 91.862C1913.72 97.527 1916.26 103.317 1927.06 110.779C1942 121.015 1947.6 126.98 1947.6 138.029C1947.6 150.655 1938.22 160.175 1925.31 160.175C1915.41 160.175 1906 153.808 1902.88 145.084L1909.84 141.55ZM1806.78 150.803V74.894H1798.51V158.283H1840.12L1842.09 150.803H1806.78ZM1860.39 150.803V74.894H1852.13V158.283H1893.73L1895.71 150.803H1860.39ZM2339.38 119.356V111.876H2305.88V82.373H2341.2V74.893H2297.62V158.283H2340.78L2342.74 150.803H2305.88V119.356H2339.38ZM2184.36 158.283V120.628L2213.6 74.894H2203.98L2180.56 113.036L2156.95 74.894H2147.18L2176.1 120.624V158.283H2184.36ZM1983.58 120.141V112.822H1956.62V120.141H1983.58ZM2286.37 146.56L2287.05 145.853L2281.47 141.061L2280.78 141.744C2273.65 148.876 2264.91 152.659 2254.25 152.659C2234.26 152.659 2218.94 136.985 2218.94 116.53C2218.94 96.752 2235.02 80.4 2254.91 80.4C2265.49 80.4 2274.19 84.11 2280.61 90.811L2281.44 91.68L2286.26 85.616L2285.7 85.035C2278.52 77.545 2268.02 72.938 2255.12 72.938C2230.61 72.938 2211.03 92.64 2211.03 116.856C2211.03 141.541 2229.28 160.128 2253.97 160.128C2267.02 160.128 2278.36 154.892 2286.37 146.56ZM1688.63 158.283L1662.81 116.045H1642.34V158.283H1634.08V62H1662.84C1679 62 1691.19 73.617 1691.19 89.022C1691.19 101.697 1683.2 111.879 1671.15 114.844L1698.52 158.283H1688.63ZM1663.95 108.275C1676.48 108.275 1683.04 98.59 1683.04 89.022C1683.04 78.046 1674.4 69.769 1662.95 69.769H1642.34V108.275H1663.95ZM1743.52 160.128C1718.79 160.128 1700.14 141.48 1700.14 116.751C1700.14 92.245 1719.19 73.049 1743.52 73.049C1768.21 73.049 1786.73 92.107 1786.73 116.426C1786.73 140.572 1767.66 160.128 1743.52 160.128ZM1743.19 80.586C1723.65 80.586 1708.34 96.472 1708.34 116.752C1708.34 134.365 1721.62 152.584 1743.85 152.584C1763.3 152.584 1778.53 136.701 1778.53 116.425C1778.53 93.147 1760.32 80.586 1743.19 80.586ZM2050.53 158.283L2024.71 116.045H2004.24V158.283H1995.98V62H2024.74C2040.9 62 2053.09 73.617 2053.09 89.022C2053.09 101.697 2045.1 111.879 2033.05 114.844L2060.42 158.283H2050.53ZM2025.85 108.275C2038.38 108.275 2044.94 98.59 2044.94 89.022C2044.94 78.046 2036.3 69.769 2024.85 69.769H2004.24V108.275H2025.85ZM2105.42 160.128C2080.69 160.128 2062.04 141.48 2062.04 116.751C2062.04 92.245 2081.1 73.049 2105.42 73.049C2130.11 73.049 2148.63 92.107 2148.63 116.426C2148.63 140.572 2129.56 160.128 2105.42 160.128ZM2105.09 80.586C2085.55 80.586 2070.24 96.472 2070.24 116.752C2070.24 134.365 2083.52 152.584 2105.75 152.584C2125.2 152.584 2140.43 136.701 2140.43 116.425C2140.43 93.147 2122.22 80.586 2105.09 80.586ZM1840.86 203.826C1831.53 203.826 1823.95 211.416 1823.95 220.747C1823.95 230.643 1831.06 237.825 1840.86 237.825C1850.18 237.825 1857.77 230.235 1857.77 220.904C1857.77 211.009 1850.66 203.826 1840.86 203.826ZM1840.86 232.845C1834.13 232.845 1829.25 227.757 1829.25 220.746C1829.25 214.051 1834.35 208.806 1840.86 208.806C1847.58 208.806 1852.46 213.894 1852.46 220.905C1852.46 227.6 1847.37 232.845 1840.86 232.845ZM1861.86 209.278H1871.13V237.17H1876.33V209.278H1885.27V204.482H1861.86V209.278ZM1906.6 203.826C1897.27 203.826 1889.68 211.416 1889.68 220.747C1889.68 230.643 1896.79 237.825 1906.6 237.825C1915.92 237.825 1923.51 230.235 1923.51 220.904C1923.51 211.009 1916.4 203.826 1906.6 203.826ZM1906.6 232.845C1899.87 232.845 1894.99 227.757 1894.99 220.746C1894.99 214.051 1900.09 208.806 1906.6 208.806C1913.32 208.806 1918.2 213.894 1918.2 220.905C1918.2 227.6 1913.11 232.845 1906.6 232.845ZM1800.84 222.13L1790.61 204.482H1785.65V237.17H1790.69V213.913L1799.16 228.064H1802.15L1810.37 214.034V237.17H1815.41V204.482H1810.92L1800.84 222.13ZM2084.73 218.058C2080.65 215.393 2079.91 213.915 2079.91 211.965C2079.91 210.472 2080.98 208.866 2083.32 208.866C2085.4 208.866 2086.99 210.248 2087.57 212.564L2092.09 211.545C2091.27 207.086 2087.91 204.316 2083.32 204.316C2077.77 204.316 2074.87 208.406 2074.87 212.447C2074.87 216.829 2077.45 219.375 2081.91 222.282C2086.35 225.406 2087.55 226.579 2087.55 228.881C2087.55 231.425 2085.97 232.943 2083.32 232.943C2079.9 232.943 2078.42 230.048 2077.78 227.62L2073.09 228.817C2073.94 232.779 2076.41 237.501 2083.32 237.501C2087.93 237.501 2092.59 234.426 2092.59 228.549C2092.59 223.803 2090.2 221.709 2084.73 218.058ZM2064.94 214.239C2064.94 208.403 2060.62 204.482 2054.2 204.482H2044.61V237.17H2049.82V223.673H2053.93L2062.23 237.17H2068.09L2059.16 222.773C2062.89 221.218 2064.94 218.208 2064.94 214.239ZM2054.39 219.148H2049.82V209.331H2054.22C2057.81 209.331 2059.95 211.103 2059.95 214.073C2059.95 215.263 2059.55 219.148 2054.39 219.148ZM2019.87 204.482L2007.3 237.17H2012.9L2016.09 228.021H2027.96L2031.1 237.17H2036.86L2024.45 204.482H2019.87ZM2017.69 223.416L2022.08 210.831L2026.39 223.416H2017.69ZM1952.22 214.239C1952.22 208.403 1947.9 204.482 1941.48 204.482H1931.89V237.17H1937.08V223.673H1941.21L1949.51 237.17H1955.37L1946.43 222.773C1950.17 221.218 1952.22 218.209 1952.22 214.239ZM1941.67 219.148H1937.08V209.331H1941.5C1945.09 209.331 1947.23 211.103 1947.23 214.073C1947.23 215.263 1946.83 219.148 1941.67 219.148ZM1989.96 208.806C1993.5 208.806 1996.25 209.905 1998.61 212.266L2002.19 209.031C1998.91 205.432 1995.14 203.826 1989.96 203.826C1980.72 203.826 1973.2 211.562 1973.2 221.071C1973.2 230.779 1980.04 237.825 1989.47 237.825C1994.44 237.825 1998.84 235.974 2002.18 232.47L1998.6 229.237C1996.28 231.699 1993.46 232.785 1989.79 232.785C1984.3 232.785 1978.57 229.189 1978.57 220.904C1978.57 214.041 1983.44 208.806 1989.96 208.806ZM2175.12 204.574H2167.76H2163.42V237.17H2175.72V237.167C2185.28 237.109 2191.18 229.747 2191.18 221.114C2191.18 212.126 2183.95 204.574 2175.12 204.574ZM2175.58 232.424H2168.62V209.332H2175.12C2181.71 209.332 2186.28 213.647 2186.28 220.872C2186.28 227.295 2182.96 232.424 2175.58 232.424ZM2117.86 232.373V204.482H2112.66V237.17H2131.28V232.373H2117.86ZM2133.09 209.278H2142.36V237.17H2147.56V209.278H2156.51V204.482H2133.09V209.278Z"/>
</mask>
<path d="M1909.84 141.55C1912.98 148.459 1919.36 152.725 1925.48 152.725C1933.56 152.725 1939.66 146.207 1939.66 138.029C1939.66 130.767 1936.47 126.705 1922.76 116.966C1910.47 108.242 1905.94 101.848 1905.94 92.533C1905.94 82.543 1913.29 73.049 1925.59 73.049C1934.44 73.049 1942.41 78.154 1944.86 86.371L1938.1 89.83C1935.93 83.811 1930.91 80.499 1925.42 80.499C1918.95 80.499 1913.72 85.584 1913.72 91.862C1913.72 97.527 1916.26 103.317 1927.06 110.779C1942 121.015 1947.6 126.98 1947.6 138.029C1947.6 150.655 1938.22 160.175 1925.31 160.175C1915.41 160.175 1906 153.808 1902.88 145.084L1909.84 141.55ZM1806.78 150.803V74.894H1798.51V158.283H1840.12L1842.09 150.803H1806.78ZM1860.39 150.803V74.894H1852.13V158.283H1893.73L1895.71 150.803H1860.39ZM2339.38 119.356V111.876H2305.88V82.373H2341.2V74.893H2297.62V158.283H2340.78L2342.74 150.803H2305.88V119.356H2339.38ZM2184.36 158.283V120.628L2213.6 74.894H2203.98L2180.56 113.036L2156.95 74.894H2147.18L2176.1 120.624V158.283H2184.36ZM1983.58 120.141V112.822H1956.62V120.141H1983.58ZM2286.37 146.56L2287.05 145.853L2281.47 141.061L2280.78 141.744C2273.65 148.876 2264.91 152.659 2254.25 152.659C2234.26 152.659 2218.94 136.985 2218.94 116.53C2218.94 96.752 2235.02 80.4 2254.91 80.4C2265.49 80.4 2274.19 84.11 2280.61 90.811L2281.44 91.68L2286.26 85.616L2285.7 85.035C2278.52 77.545 2268.02 72.938 2255.12 72.938C2230.61 72.938 2211.03 92.64 2211.03 116.856C2211.03 141.541 2229.28 160.128 2253.97 160.128C2267.02 160.128 2278.36 154.892 2286.37 146.56ZM1688.63 158.283L1662.81 116.045H1642.34V158.283H1634.08V62H1662.84C1679 62 1691.19 73.617 1691.19 89.022C1691.19 101.697 1683.2 111.879 1671.15 114.844L1698.52 158.283H1688.63ZM1663.95 108.275C1676.48 108.275 1683.04 98.59 1683.04 89.022C1683.04 78.046 1674.4 69.769 1662.95 69.769H1642.34V108.275H1663.95ZM1743.52 160.128C1718.79 160.128 1700.14 141.48 1700.14 116.751C1700.14 92.245 1719.19 73.049 1743.52 73.049C1768.21 73.049 1786.73 92.107 1786.73 116.426C1786.73 140.572 1767.66 160.128 1743.52 160.128ZM1743.19 80.586C1723.65 80.586 1708.34 96.472 1708.34 116.752C1708.34 134.365 1721.62 152.584 1743.85 152.584C1763.3 152.584 1778.53 136.701 1778.53 116.425C1778.53 93.147 1760.32 80.586 1743.19 80.586ZM2050.53 158.283L2024.71 116.045H2004.24V158.283H1995.98V62H2024.74C2040.9 62 2053.09 73.617 2053.09 89.022C2053.09 101.697 2045.1 111.879 2033.05 114.844L2060.42 158.283H2050.53ZM2025.85 108.275C2038.38 108.275 2044.94 98.59 2044.94 89.022C2044.94 78.046 2036.3 69.769 2024.85 69.769H2004.24V108.275H2025.85ZM2105.42 160.128C2080.69 160.128 2062.04 141.48 2062.04 116.751C2062.04 92.245 2081.1 73.049 2105.42 73.049C2130.11 73.049 2148.63 92.107 2148.63 116.426C2148.63 140.572 2129.56 160.128 2105.42 160.128ZM2105.09 80.586C2085.55 80.586 2070.24 96.472 2070.24 116.752C2070.24 134.365 2083.52 152.584 2105.75 152.584C2125.2 152.584 2140.43 136.701 2140.43 116.425C2140.43 93.147 2122.22 80.586 2105.09 80.586ZM1840.86 203.826C1831.53 203.826 1823.95 211.416 1823.95 220.747C1823.95 230.643 1831.06 237.825 1840.86 237.825C1850.18 237.825 1857.77 230.235 1857.77 220.904C1857.77 211.009 1850.66 203.826 1840.86 203.826ZM1840.86 232.845C1834.13 232.845 1829.25 227.757 1829.25 220.746C1829.25 214.051 1834.35 208.806 1840.86 208.806C1847.58 208.806 1852.46 213.894 1852.46 220.905C1852.46 227.6 1847.37 232.845 1840.86 232.845ZM1861.86 209.278H1871.13V237.17H1876.33V209.278H1885.27V204.482H1861.86V209.278ZM1906.6 203.826C1897.27 203.826 1889.68 211.416 1889.68 220.747C1889.68 230.643 1896.79 237.825 1906.6 237.825C1915.92 237.825 1923.51 230.235 1923.51 220.904C1923.51 211.009 1916.4 203.826 1906.6 203.826ZM1906.6 232.845C1899.87 232.845 1894.99 227.757 1894.99 220.746C1894.99 214.051 1900.09 208.806 1906.6 208.806C1913.32 208.806 1918.2 213.894 1918.2 220.905C1918.2 227.6 1913.11 232.845 1906.6 232.845ZM1800.84 222.13L1790.61 204.482H1785.65V237.17H1790.69V213.913L1799.16 228.064H1802.15L1810.37 214.034V237.17H1815.41V204.482H1810.92L1800.84 222.13ZM2084.73 218.058C2080.65 215.393 2079.91 213.915 2079.91 211.965C2079.91 210.472 2080.98 208.866 2083.32 208.866C2085.4 208.866 2086.99 210.248 2087.57 212.564L2092.09 211.545C2091.27 207.086 2087.91 204.316 2083.32 204.316C2077.77 204.316 2074.87 208.406 2074.87 212.447C2074.87 216.829 2077.45 219.375 2081.91 222.282C2086.35 225.406 2087.55 226.579 2087.55 228.881C2087.55 231.425 2085.97 232.943 2083.32 232.943C2079.9 232.943 2078.42 230.048 2077.78 227.62L2073.09 228.817C2073.94 232.779 2076.41 237.501 2083.32 237.501C2087.93 237.501 2092.59 234.426 2092.59 228.549C2092.59 223.803 2090.2 221.709 2084.73 218.058ZM2064.94 214.239C2064.94 208.403 2060.62 204.482 2054.2 204.482H2044.61V237.17H2049.82V223.673H2053.93L2062.23 237.17H2068.09L2059.16 222.773C2062.89 221.218 2064.94 218.208 2064.94 214.239ZM2054.39 219.148H2049.82V209.331H2054.22C2057.81 209.331 2059.95 211.103 2059.95 214.073C2059.95 215.263 2059.55 219.148 2054.39 219.148ZM2019.87 204.482L2007.3 237.17H2012.9L2016.09 228.021H2027.96L2031.1 237.17H2036.86L2024.45 204.482H2019.87ZM2017.69 223.416L2022.08 210.831L2026.39 223.416H2017.69ZM1952.22 214.239C1952.22 208.403 1947.9 204.482 1941.48 204.482H1931.89V237.17H1937.08V223.673H1941.21L1949.51 237.17H1955.37L1946.43 222.773C1950.17 221.218 1952.22 218.209 1952.22 214.239ZM1941.67 219.148H1937.08V209.331H1941.5C1945.09 209.331 1947.23 211.103 1947.23 214.073C1947.23 215.263 1946.83 219.148 1941.67 219.148ZM1989.96 208.806C1993.5 208.806 1996.25 209.905 1998.61 212.266L2002.19 209.031C1998.91 205.432 1995.14 203.826 1989.96 203.826C1980.72 203.826 1973.2 211.562 1973.2 221.071C1973.2 230.779 1980.04 237.825 1989.47 237.825C1994.44 237.825 1998.84 235.974 2002.18 232.47L1998.6 229.237C1996.28 231.699 1993.46 232.785 1989.79 232.785C1984.3 232.785 1978.57 229.189 1978.57 220.904C1978.57 214.041 1983.44 208.806 1989.96 208.806ZM2175.12 204.574H2167.76H2163.42V237.17H2175.72V237.167C2185.28 237.109 2191.18 229.747 2191.18 221.114C2191.18 212.126 2183.95 204.574 2175.12 204.574ZM2175.58 232.424H2168.62V209.332H2175.12C2181.71 209.332 2186.28 213.647 2186.28 220.872C2186.28 227.295 2182.96 232.424 2175.58 232.424ZM2117.86 232.373V204.482H2112.66V237.17H2131.28V232.373H2117.86ZM2133.09 209.278H2142.36V237.17H2147.56V209.278H2156.51V204.482H2133.09V209.278Z" fill="#6F6F6F"/>
<path d="M1909.84 141.55C1912.98 148.459 1919.36 152.725 1925.48 152.725C1933.56 152.725 1939.66 146.207 1939.66 138.029C1939.66 130.767 1936.47 126.705 1922.76 116.966C1910.47 108.242 1905.94 101.848 1905.94 92.533C1905.94 82.543 1913.29 73.049 1925.59 73.049C1934.44 73.049 1942.41 78.154 1944.86 86.371L1938.1 89.83C1935.93 83.811 1930.91 80.499 1925.42 80.499C1918.95 80.499 1913.72 85.584 1913.72 91.862C1913.72 97.527 1916.26 103.317 1927.06 110.779C1942 121.015 1947.6 126.98 1947.6 138.029C1947.6 150.655 1938.22 160.175 1925.31 160.175C1915.41 160.175 1906 153.808 1902.88 145.084L1909.84 141.55ZM1806.78 150.803V74.894H1798.51V158.283H1840.12L1842.09 150.803H1806.78ZM1860.39 150.803V74.894H1852.13V158.283H1893.73L1895.71 150.803H1860.39ZM2339.38 119.356V111.876H2305.88V82.373H2341.2V74.893H2297.62V158.283H2340.78L2342.74 150.803H2305.88V119.356H2339.38ZM2184.36 158.283V120.628L2213.6 74.894H2203.98L2180.56 113.036L2156.95 74.894H2147.18L2176.1 120.624V158.283H2184.36ZM1983.58 120.141V112.822H1956.62V120.141H1983.58ZM2286.37 146.56L2287.05 145.853L2281.47 141.061L2280.78 141.744C2273.65 148.876 2264.91 152.659 2254.25 152.659C2234.26 152.659 2218.94 136.985 2218.94 116.53C2218.94 96.752 2235.02 80.4 2254.91 80.4C2265.49 80.4 2274.19 84.11 2280.61 90.811L2281.44 91.68L2286.26 85.616L2285.7 85.035C2278.52 77.545 2268.02 72.938 2255.12 72.938C2230.61 72.938 2211.03 92.64 2211.03 116.856C2211.03 141.541 2229.28 160.128 2253.97 160.128C2267.02 160.128 2278.36 154.892 2286.37 146.56ZM1688.63 158.283L1662.81 116.045H1642.34V158.283H1634.08V62H1662.84C1679 62 1691.19 73.617 1691.19 89.022C1691.19 101.697 1683.2 111.879 1671.15 114.844L1698.52 158.283H1688.63ZM1663.95 108.275C1676.48 108.275 1683.04 98.59 1683.04 89.022C1683.04 78.046 1674.4 69.769 1662.95 69.769H1642.34V108.275H1663.95ZM1743.52 160.128C1718.79 160.128 1700.14 141.48 1700.14 116.751C1700.14 92.245 1719.19 73.049 1743.52 73.049C1768.21 73.049 1786.73 92.107 1786.73 116.426C1786.73 140.572 1767.66 160.128 1743.52 160.128ZM1743.19 80.586C1723.65 80.586 1708.34 96.472 1708.34 116.752C1708.34 134.365 1721.62 152.584 1743.85 152.584C1763.3 152.584 1778.53 136.701 1778.53 116.425C1778.53 93.147 1760.32 80.586 1743.19 80.586ZM2050.53 158.283L2024.71 116.045H2004.24V158.283H1995.98V62H2024.74C2040.9 62 2053.09 73.617 2053.09 89.022C2053.09 101.697 2045.1 111.879 2033.05 114.844L2060.42 158.283H2050.53ZM2025.85 108.275C2038.38 108.275 2044.94 98.59 2044.94 89.022C2044.94 78.046 2036.3 69.769 2024.85 69.769H2004.24V108.275H2025.85ZM2105.42 160.128C2080.69 160.128 2062.04 141.48 2062.04 116.751C2062.04 92.245 2081.1 73.049 2105.42 73.049C2130.11 73.049 2148.63 92.107 2148.63 116.426C2148.63 140.572 2129.56 160.128 2105.42 160.128ZM2105.09 80.586C2085.55 80.586 2070.24 96.472 2070.24 116.752C2070.24 134.365 2083.52 152.584 2105.75 152.584C2125.2 152.584 2140.43 136.701 2140.43 116.425C2140.43 93.147 2122.22 80.586 2105.09 80.586ZM1840.86 203.826C1831.53 203.826 1823.95 211.416 1823.95 220.747C1823.95 230.643 1831.06 237.825 1840.86 237.825C1850.18 237.825 1857.77 230.235 1857.77 220.904C1857.77 211.009 1850.66 203.826 1840.86 203.826ZM1840.86 232.845C1834.13 232.845 1829.25 227.757 1829.25 220.746C1829.25 214.051 1834.35 208.806 1840.86 208.806C1847.58 208.806 1852.46 213.894 1852.46 220.905C1852.46 227.6 1847.37 232.845 1840.86 232.845ZM1861.86 209.278H1871.13V237.17H1876.33V209.278H1885.27V204.482H1861.86V209.278ZM1906.6 203.826C1897.27 203.826 1889.68 211.416 1889.68 220.747C1889.68 230.643 1896.79 237.825 1906.6 237.825C1915.92 237.825 1923.51 230.235 1923.51 220.904C1923.51 211.009 1916.4 203.826 1906.6 203.826ZM1906.6 232.845C1899.87 232.845 1894.99 227.757 1894.99 220.746C1894.99 214.051 1900.09 208.806 1906.6 208.806C1913.32 208.806 1918.2 213.894 1918.2 220.905C1918.2 227.6 1913.11 232.845 1906.6 232.845ZM1800.84 222.13L1790.61 204.482H1785.65V237.17H1790.69V213.913L1799.16 228.064H1802.15L1810.37 214.034V237.17H1815.41V204.482H1810.92L1800.84 222.13ZM2084.73 218.058C2080.65 215.393 2079.91 213.915 2079.91 211.965C2079.91 210.472 2080.98 208.866 2083.32 208.866C2085.4 208.866 2086.99 210.248 2087.57 212.564L2092.09 211.545C2091.27 207.086 2087.91 204.316 2083.32 204.316C2077.77 204.316 2074.87 208.406 2074.87 212.447C2074.87 216.829 2077.45 219.375 2081.91 222.282C2086.35 225.406 2087.55 226.579 2087.55 228.881C2087.55 231.425 2085.97 232.943 2083.32 232.943C2079.9 232.943 2078.42 230.048 2077.78 227.62L2073.09 228.817C2073.94 232.779 2076.41 237.501 2083.32 237.501C2087.93 237.501 2092.59 234.426 2092.59 228.549C2092.59 223.803 2090.2 221.709 2084.73 218.058ZM2064.94 214.239C2064.94 208.403 2060.62 204.482 2054.2 204.482H2044.61V237.17H2049.82V223.673H2053.93L2062.23 237.17H2068.09L2059.16 222.773C2062.89 221.218 2064.94 218.208 2064.94 214.239ZM2054.39 219.148H2049.82V209.331H2054.22C2057.81 209.331 2059.95 211.103 2059.95 214.073C2059.95 215.263 2059.55 219.148 2054.39 219.148ZM2019.87 204.482L2007.3 237.17H2012.9L2016.09 228.021H2027.96L2031.1 237.17H2036.86L2024.45 204.482H2019.87ZM2017.69 223.416L2022.08 210.831L2026.39 223.416H2017.69ZM1952.22 214.239C1952.22 208.403 1947.9 204.482 1941.48 204.482H1931.89V237.17H1937.08V223.673H1941.21L1949.51 237.17H1955.37L1946.43 222.773C1950.17 221.218 1952.22 218.209 1952.22 214.239ZM1941.67 219.148H1937.08V209.331H1941.5C1945.09 209.331 1947.23 211.103 1947.23 214.073C1947.23 215.263 1946.83 219.148 1941.67 219.148ZM1989.96 208.806C1993.5 208.806 1996.25 209.905 1998.61 212.266L2002.19 209.031C1998.91 205.432 1995.14 203.826 1989.96 203.826C1980.72 203.826 1973.2 211.562 1973.2 221.071C1973.2 230.779 1980.04 237.825 1989.47 237.825C1994.44 237.825 1998.84 235.974 2002.18 232.47L1998.6 229.237C1996.28 231.699 1993.46 232.785 1989.79 232.785C1984.3 232.785 1978.57 229.189 1978.57 220.904C1978.57 214.041 1983.44 208.806 1989.96 208.806ZM2175.12 204.574H2167.76H2163.42V237.17H2175.72V237.167C2185.28 237.109 2191.18 229.747 2191.18 221.114C2191.18 212.126 2183.95 204.574 2175.12 204.574ZM2175.58 232.424H2168.62V209.332H2175.12C2181.71 209.332 2186.28 213.647 2186.28 220.872C2186.28 227.295 2182.96 232.424 2175.58 232.424ZM2117.86 232.373V204.482H2112.66V237.17H2131.28V232.373H2117.86ZM2133.09 209.278H2142.36V237.17H2147.56V209.278H2156.51V204.482H2133.09V209.278Z" stroke="#6F6F6F" stroke-width="2" mask="url(#path-1-outside-1_189_7303)"/>
<path d="M1360.44 127V176.121H1371.47V127H1360.44Z" fill="#6F6F6F"/>
<path d="M1305.75 127V176.121H1315.99V144.09L1338.01 176.121H1349.08V127H1338.83V159.803L1316.48 127H1305.75Z" fill="#6F6F6F"/>
<path d="M1284.14 127V176.121H1295.17V127H1284.14Z" fill="#6F6F6F"/>
<path d="M1220.69 127V176.121H1230.94V137.455L1241.74 176.121H1252.36L1263.2 137.455V176.121H1273.45V127H1256.9L1247.11 160.507L1237.2 127H1220.69Z" fill="#6F6F6F"/>
<path d="M1296.08 41C1277.66 41.003 1259.55 45.6452 1243.4 54.4979C1227.25 63.3506 1213.59 76.1286 1203.69 91.6523H1046.08L1061.77 107.342H1195.5C1192.96 113.247 1190.95 119.365 1189.48 125.623H1080.05L1095.55 141.121H1186.94C1186.64 144.281 1186.48 147.451 1186.46 150.625C1186.48 153.555 1186.63 156.484 1186.89 159.402H1113.83L1129.33 174.9H1189.28C1190.67 181.151 1192.6 187.267 1195.06 193.18H1147.61L1163.29 208.871H1203.36C1213.21 224.575 1226.88 237.525 1243.1 246.51C1259.31 255.495 1277.54 260.222 1296.08 260.248C1314.62 260.222 1332.84 255.495 1349.06 246.51C1365.27 237.525 1378.94 224.575 1388.79 208.871H1428.86L1444.55 193.18H1397.1C1399.55 187.267 1401.49 181.151 1402.88 174.9H1462.83L1478.33 159.402H1405.26C1405.53 156.484 1405.67 153.555 1405.7 150.625C1405.68 147.452 1405.52 144.281 1405.22 141.121H1496.61L1512.11 125.623H1402.68C1401.21 119.365 1399.2 113.247 1396.66 107.342H1530.39L1546.08 91.6523H1388.47C1378.56 76.1286 1364.91 63.3506 1348.76 54.4979C1332.61 45.6452 1314.49 41.003 1296.08 41ZM1296.08 55.8594C1321.21 55.8598 1345.31 65.8442 1363.09 83.6161C1380.86 101.388 1390.84 125.492 1390.84 150.625C1390.84 175.758 1380.86 199.862 1363.09 217.634C1345.31 235.406 1321.21 245.39 1296.08 245.391C1283.63 245.391 1271.31 242.94 1259.81 238.177C1248.32 233.415 1237.87 226.434 1229.07 217.635C1220.27 208.835 1213.29 198.388 1208.53 186.89C1203.76 175.393 1201.31 163.07 1201.31 150.625C1201.31 138.18 1203.76 125.857 1208.53 114.36C1213.29 102.862 1220.27 92.4153 1229.07 83.6155C1237.87 74.8156 1248.32 67.8353 1259.81 63.0729C1271.31 58.3105 1283.63 55.8593 1296.08 55.8594Z" fill="#6F6F6F"/>
<g clip-path="url(#clip0_189_7303)">
<path d="M808.078 0C725.238 0 658.078 67.1602 658.078 150C658.078 232.84 725.238 300 808.078 300C890.918 300 958.078 232.84 958.078 150C958.078 67.1602 890.918 0 808.078 0ZM948.323 150C948.323 227.452 885.539 290.245 808.078 290.245C730.617 290.245 667.833 227.452 667.833 150C667.833 72.5484 730.627 9.75469 808.078 9.75469C885.53 9.75469 948.323 72.5484 948.323 150Z" fill="#6F6F6F"/>
<path d="M808.079 61.1108V65.9847C854.4 65.9847 892.094 103.67 892.094 150H896.968C896.968 100.911 857.167 61.1108 808.079 61.1108ZM808.079 234.015C761.757 234.015 724.063 196.33 724.063 150H719.189C719.189 199.089 758.99 238.889 808.079 238.889" fill="#6E6E6E"/>
<path d="M744.007 77.6368C748.8 72.6235 751.514 66.8298 746.721 61.2997C744.113 58.2985 739.733 57.6423 736.103 59.1212L735.742 59.2606L735.857 58.9454C736.395 57.5192 736.738 52.9688 732.834 49.8282C730.931 48.2966 728.543 47.7282 726.129 47.9731C721.627 48.4278 718.164 51.4817 708.736 61.9208C705.889 65.0708 701.748 70.0419 699.264 73.2622L725.16 97.6583C733.741 88.2247 737.239 84.7161 744.007 77.6368ZM710.216 71.6696C715.432 65.3333 720.974 59.5853 723.485 57.3095C724.279 56.5923 725.142 55.8751 726.191 55.595C727.891 55.131 729.645 56.3298 730.041 58.0618C730.438 59.8032 729.336 61.4579 728.112 62.822C725.353 65.911 715.239 76.4204 715.239 76.4204L710.216 71.6696ZM720.357 81.2251C720.357 81.2251 730.208 70.8821 733.425 67.5739C734.702 66.2614 735.521 65.4646 736.403 65.0368C737.539 64.4849 738.782 64.3712 739.893 65.106C740.985 65.8325 741.486 67.0841 741.213 68.3263C740.887 69.8052 739.672 71.2138 738.667 72.2907C737.311 73.7345 725.626 86.1517 725.609 86.1692L720.357 81.2251ZM811.069 48.5415L819.361 30.095L819.889 28.4591L819.739 30.1653L820.611 54.8157C823.52 55.0864 826.525 55.4895 829.485 55.9794L828.136 19.472C823.996 19.0173 819.872 18.6938 815.748 18.5181L807.58 38.6532L807.289 40.1497L806.999 38.6532L798.839 18.5181C794.715 18.6938 790.591 19.0173 786.451 19.472L785.102 55.9794C788.063 55.4895 791.067 55.0958 793.976 54.8157L794.848 30.1653L794.698 28.4591L795.226 30.095L803.518 48.5415H811.069ZM879.929 86.7024C881.965 88.8728 884.898 92.3731 886.546 94.4989L916.893 75.3704C915.376 73.4017 912.962 70.4087 911.156 68.3005L891.939 80.9181L890.626 82.0384L891.604 80.6204L900.089 63.8028L894.089 57.8438L877.145 66.2696L875.718 67.2411L876.854 65.938L889.568 46.861C887.331 44.972 885.18 43.2388 882.441 41.1388L863.179 71.2489C865.62 73.1134 868.835 75.8521 870.888 77.7153L889.022 68.3708L890.186 67.5212L889.33 68.6767L879.929 86.7024Z" fill="#6E6E6E"/>
<path d="M808.119 234.725C761.237 233.1 725.163 198.222 723.476 150.082H808.119V234.725ZM808.037 65.2749C854.919 66.9 890.993 101.777 892.68 149.917H808.037V65.2749Z" fill="white"/>
<path d="M896.968 150C896.968 199.124 857.202 238.889 808.079 238.889V150H896.968ZM808.079 61.1108V150H719.189C719.189 100.876 758.955 61.1108 808.079 61.1108Z" fill="#0066B0"/>
</g>
<path d="M4.33398 137.114H60.2954C78.1674 137.114 88.9986 134.046 96.9419 127.367C105.245 120.687 109.217 110.216 109.217 97.3995C109.217 88.9148 106.871 81.694 103.621 77.0008C100.371 72.6679 96.9419 69.5989 92.9703 66.7109C94.9556 63.4608 97.6634 59.1289 100.191 54.796C103.983 47.9364 106.329 41.9794 106.329 33.4948C106.329 22.4823 101.455 12.915 93.3315 7.31824C86.1107 2.44501 77.0846 1 63.1843 1H4.33398V137.114ZM26.1766 116.535V78.2637H61.9205C70.2241 78.2637 75.2794 78.9862 79.4312 81.5139C84.8468 85.3044 87.0133 90.3588 87.0133 97.3995C87.0133 103.718 85.3882 108.411 81.4165 111.661C77.4449 115.09 71.669 116.535 60.6567 116.535H26.1766ZM26.1766 57.6849V21.5798H61.198C69.1413 21.5798 74.7371 21.941 78.3475 24.1075C82.5002 26.4541 84.1243 30.2446 84.1243 35.6612C84.1243 40.8957 82.3192 44.8674 79.7924 49.3803C78.1674 52.0882 76.3621 55.1572 74.7371 57.6849H26.1766Z" fill="#6F6F6F"/>
<path d="M146.225 137.114V33.6749L178.177 110.036H198.214L230.167 33.6749V137.114H251.649V1H222.766L188.467 83.1379L153.987 1H124.742V137.114H146.225Z" fill="#6F6F6F"/>
<path d="M317.179 137.114L339.744 52.0882L362.309 137.114H391.013L417.731 1H395.707L374.766 108.772L351.478 21.5798H328.192L304.904 108.772L283.963 1H261.578L288.296 137.114H317.179Z" fill="#6F6F6F"/>
<path d="M101.274 293.939V222.453H79.6102V276.067C74.736 276.61 65.3497 277.692 56.5038 277.692C41.1596 277.692 32.3136 273.902 27.4394 264.153C23.4677 256.21 22.2049 244.476 22.2049 228.591C22.2049 212.704 23.6488 200.429 27.6205 192.305C32.6749 181.654 40.4371 177.502 56.1425 177.502C61.0168 177.502 66.4324 178.225 72.0282 179.308C80.5128 180.933 89.3588 182.918 96.7597 184.723V163.422C91.164 161.978 83.4018 160.173 75.0973 158.548C68.4178 157.284 61.0168 156.201 53.9761 156.201C28.8833 156.201 17.3306 165.588 9.74852 178.405C2.52771 190.5 0 206.747 0 228.952C0 250.253 2.70781 265.778 8.84592 276.429C16.2469 289.246 27.0781 298.452 53.2546 298.452C68.9601 298.452 88.2761 296.106 101.274 293.939Z" fill="#6F6F6F"/>
<path d="M139.098 295.384V245.74H171.051L200.296 295.384H225.749L194.519 242.491C197.949 238.881 203.546 232.563 207.877 227.327C214.918 218.662 219.251 210.178 219.251 197.902C219.251 185.987 214.918 174.975 207.156 168.477C198.491 161.076 188.381 159.271 171.773 159.271H117.256V295.384H139.098ZM139.098 224.799V180.21H169.427C180.98 180.21 186.756 181.113 190.728 183.821C195.422 187.07 197.046 191.764 197.046 198.082C197.046 205.303 193.977 210.539 190.006 215.593C187.659 218.481 184.591 222.092 182.063 224.799H139.098Z" fill="#6F6F6F"/>
<path d="M284.965 156.201C258.247 156.201 245.79 164.866 237.307 179.308C230.266 191.223 228.1 209.455 228.1 227.688C228.1 248.809 231.349 266.5 238.389 277.874C246.693 291.231 258.428 298.452 284.965 298.452C308.071 298.452 320.346 292.134 329.915 278.234C338.038 266.681 341.649 248.268 341.649 227.688C341.649 208.191 338.76 188.875 329.915 176.239C320.527 162.7 308.251 156.201 284.965 156.201ZM284.965 177.141C297.24 177.141 306.807 180.21 312.584 190.32C317.82 199.165 319.444 213.065 319.444 227.688C319.444 242.852 317.82 258.196 310.779 267.222C304.461 275.346 295.796 277.512 284.965 277.512C272.688 277.512 262.399 275.526 256.442 265.236C251.748 256.751 250.303 242.13 250.303 227.688C250.303 213.065 251.567 198.805 256.261 190.32C262.218 179.489 272.688 177.141 284.965 177.141Z" fill="#6F6F6F"/>
<path d="M355.596 159.271V243.033C355.596 262.348 357.762 276.249 366.968 285.997C375.994 295.926 387.909 298.453 406.323 298.453C423.652 298.453 435.747 295.565 444.954 286.357C454.702 276.61 456.868 263.431 456.868 243.033V159.271H435.026V243.574C435.026 257.835 434.123 266.32 428.165 271.916C423.111 276.429 415.349 277.513 406.323 277.513C397.115 277.513 389.173 276.429 384.299 271.736C378.342 265.959 377.439 257.474 377.439 243.574V159.271H355.596Z" fill="#6F6F6F"/>
<path d="M494.62 295.384V246.643C508.881 246.643 520.977 246.643 528.559 246.102C541.195 245.379 551.485 242.671 559.067 234.909C567.009 226.605 570.078 214.871 570.078 201.873C570.078 189.418 566.648 177.864 559.427 170.282C551.845 162.52 542.098 159.271 527.114 159.271H472.777V295.384H494.62ZM494.62 225.702V180.21H524.767C533.433 180.21 538.667 181.113 542.459 184.905C546.249 188.695 547.875 194.472 547.875 201.873C547.875 209.094 546.972 214.871 543.362 218.842C539.751 223.175 534.516 224.619 526.392 225.161C518.088 225.702 506.715 225.702 494.62 225.702Z" fill="#6F6F6F"/>
<defs>
<clipPath id="clip0_189_7303">
<rect width="300" height="300" fill="white" transform="translate(658.078)"/>
</clipPath>
</defs>
</svg>
