<svg width="500" height="241" viewBox="0 0 500 241" fill="none" xmlns="http://www.w3.org/2000/svg">
<path d="M125 110.128C88.9814 110.128 59.7826 139.317 59.7826 175.324C59.7826 211.33 88.9814 240.519 125 240.519C161.019 240.519 190.217 211.33 190.217 175.324C190.217 139.317 161.019 110.128 125 110.128ZM185.976 175.324C185.976 208.988 158.676 236.279 125 236.279C91.3238 236.279 64.0239 208.988 64.0239 175.324C64.0239 141.659 91.3238 114.368 125 114.368C158.676 114.368 185.976 141.659 185.976 175.324Z" fill="#6F6F6F"/>
<path d="M125 136.662V138.782C145.156 138.782 161.554 155.175 161.554 175.324H163.674C163.674 153.972 146.359 136.662 125 136.662ZM125 211.865C104.844 211.865 88.4462 195.473 88.4462 175.324H86.3255C86.3255 196.676 103.641 213.985 125 213.985" fill="#6F6F6F"/>
<path d="M156.607 147.665C157.492 148.616 158.768 150.151 159.485 151.08L172.692 142.699C172.032 141.836 170.983 140.526 170.195 139.604L161.833 145.132L161.264 145.624L161.69 145.002L165.382 137.634L162.772 135.025L155.399 138.716L154.778 139.141L155.273 138.569L160.806 130.212C159.833 129.383 158.898 128.625 157.704 127.704L149.318 140.896C150.381 141.714 151.78 142.912 152.672 143.729L160.564 139.635L161.069 139.264L160.698 139.77L156.607 147.665Z" fill="#6F6F6F"/>
<path d="M126.643 130.948L130.251 122.869L130.481 122.154L130.416 122.901L130.796 133.698C132.061 133.818 133.368 133.993 134.659 134.207L134.072 118.214C132.268 118.015 130.473 117.873 128.678 117.797L125.125 126.616L125 127.271L124.875 126.616L121.321 117.797C119.526 117.873 117.732 118.015 115.928 118.214L115.341 134.207C116.631 133.993 117.938 133.818 119.204 133.698L119.583 122.901L119.518 122.154L119.748 122.869L123.356 130.948H126.643Z" fill="#6F6F6F"/>
<path d="M97.4554 143.691C99.5405 141.495 100.724 138.957 98.6349 136.533C97.4995 135.217 95.5955 134.93 94.013 135.58L93.8563 135.643L93.9077 135.505C94.1419 134.881 94.2902 132.888 92.5907 131.511C91.7631 130.841 90.7249 130.592 89.6716 130.699C87.7135 130.897 86.2042 132.235 82.1004 136.811C80.8636 138.19 79.061 140.368 77.9772 141.78L89.246 152.468C92.9906 148.329 94.5119 146.792 97.4554 143.691ZM82.7528 141.079C85.0222 138.304 87.4349 135.787 88.5292 134.788C88.8747 134.473 89.25 134.161 89.7061 134.036C90.4464 133.831 91.2104 134.358 91.3829 135.117C91.5563 135.88 91.076 136.603 90.5448 137.201C89.3441 138.553 84.9442 143.157 84.9442 143.157L82.7528 141.079ZM87.1632 145.263C87.1632 145.263 91.4514 140.733 92.8484 139.283C93.4036 138.707 93.7606 138.36 94.145 138.171C94.6392 137.928 95.1787 137.88 95.6622 138.202C96.1371 138.518 96.3576 139.07 96.2372 139.612C96.0937 140.259 95.5676 140.877 95.1283 141.348C94.5374 141.981 89.4528 147.42 89.4456 147.428L87.1632 145.263Z" fill="#6F6F6F"/>
<path d="M125 136.663V175.324H86.3259C86.3259 153.957 103.626 136.663 125 136.663Z" fill="#0066B1"/>
<path d="M163.675 175.324C163.675 196.691 146.375 213.985 125 213.985V175.324H163.675Z" fill="#0066B1"/>
<path d="M309.937 185.579H305.931V165.074H311.897L317.126 181.445L322.313 165.074H328.277V185.579H324.143V170.398L319.342 185.579H314.869L309.937 170.283V185.579ZM337.176 185.579H332.929V165.074H337.176V185.579ZM345.901 185.579H341.821V165.074H346.828L355.005 179.944V165.074H359.074V185.579H354.064L345.901 170.782V185.579ZM367.977 185.579H363.737V165.074H367.977V185.579ZM398.111 193.134H378.66C379.698 190.72 380.518 188.194 381.129 185.579H405.68L412.156 179.106H382.143C382.243 177.856 382.309 176.6 382.309 175.325C382.309 174.051 382.243 172.793 382.143 171.546H419.711L426.187 165.074H381.129C380.518 162.46 379.698 159.93 378.66 157.511H433.742L440.217 151.037H375.223C367.167 138.398 353.032 129.986 336.955 129.986C320.882 129.986 306.746 138.398 298.689 151.037H233.696L240.166 157.511H295.255C294.216 159.93 293.392 162.46 292.783 165.074H247.727L254.199 171.546H291.771C291.669 172.793 291.602 174.051 291.602 175.325C291.602 176.6 291.669 177.856 291.771 179.106H261.763L268.232 185.579H292.783C293.392 188.194 294.216 190.72 295.255 193.134H275.793L282.265 199.605H298.689C306.746 212.248 320.884 220.662 336.955 220.662C353.032 220.662 367.167 212.248 375.223 199.605H391.639L398.111 193.134ZM336.955 214.188C315.518 214.188 298.077 196.757 298.077 175.325C298.077 153.896 315.518 136.457 336.955 136.457C358.393 136.457 375.834 153.896 375.834 175.325C375.834 196.757 358.393 214.188 336.955 214.188Z" fill="#6F6F6F"/>
<path d="M0 66.6647H26.815C35.3787 66.6647 40.5687 65.1952 44.3749 61.9959C48.3537 58.7966 50.2568 53.7813 50.2568 47.6425C50.2568 43.5786 49.1324 40.12 47.5755 37.8721C46.0181 35.7967 44.3749 34.3268 42.4718 32.9435C43.4231 31.3868 44.7206 29.3119 45.9318 27.2366C47.7486 23.951 48.873 21.0978 48.873 17.0339C48.873 11.7592 46.5374 7.17669 42.6449 4.496C39.1849 2.16185 34.8599 1.46973 28.1993 1.46973H0V66.6647ZM10.4663 56.8081V38.477H27.5937C31.5725 38.477 33.9949 38.823 35.9843 40.0337C38.5793 41.8493 39.6174 44.2702 39.6174 47.6425C39.6174 50.6688 38.8387 52.9167 36.9356 54.4734C35.0325 56.1159 32.2649 56.8081 26.9881 56.8081H10.4663ZM10.4663 28.6203V11.3269H27.2475C31.0537 11.3269 33.735 11.4999 35.465 12.5376C37.4549 13.6615 38.2331 15.4771 38.2331 18.0715C38.2331 20.5787 37.3681 22.481 36.1574 24.6426C35.3787 25.9396 34.5137 27.4096 33.735 28.6203H10.4663Z" fill="#6F6F6F"/>
<path d="M67.9898 66.6647V17.1201L83.3004 53.695H92.9017L108.212 17.1201V66.6647H118.506V1.46973H104.666L88.231 40.8116L71.7092 1.46973H57.6961V66.6647H67.9898Z" fill="#6F6F6F"/>
<path d="M149.906 66.6647L160.718 25.9396L171.531 66.6647H185.285L198.087 1.46973H187.534L177.5 53.0897L166.341 11.3269H155.183L144.024 53.0897L133.99 1.46973H123.263L136.066 66.6647H149.906Z" fill="#6F6F6F"/>
<path d="M275.364 65.9729V31.7326H264.983V57.4127C262.648 57.6725 258.15 58.1911 253.911 58.1911C246.559 58.1911 242.32 56.3755 239.985 51.7062C238.082 47.9016 237.476 42.2814 237.476 34.6726C237.476 27.0633 238.168 21.1838 240.071 17.2929C242.493 12.1913 246.213 10.2027 253.738 10.2027C256.074 10.2027 258.669 10.5488 261.35 11.0674C265.416 11.8458 269.655 12.7967 273.201 13.6613V3.45861C270.52 2.76699 266.8 1.90234 262.821 1.12396C259.62 0.518612 256.074 0 252.7 0C240.677 0 235.141 4.49627 231.508 10.635C228.048 16.4283 226.836 24.2101 226.836 34.8456C226.836 45.0483 228.134 52.4846 231.075 57.5857C234.621 63.725 239.812 68.1345 252.355 68.1345C259.88 68.1345 269.136 67.0105 275.364 65.9729Z" fill="#6F6F6F"/>
<path d="M293.488 66.6645V42.8868H308.799L322.813 66.6645H335.009L320.044 41.3305C321.688 39.6012 324.369 36.5749 326.445 34.0673C329.819 29.9171 331.895 25.8531 331.895 19.9737C331.895 14.2667 329.819 8.99207 326.1 5.87954C321.948 2.33469 317.103 1.47003 309.145 1.47003H283.022V66.6645H293.488ZM293.488 32.8566V11.4997H308.021C313.557 11.4997 316.325 11.9321 318.228 13.229C320.477 14.7853 321.255 17.0336 321.255 20.0599C321.255 23.5185 319.785 26.0262 317.882 28.4471C316.757 29.8303 315.287 31.5596 314.076 32.8566H293.488Z" fill="#6F6F6F"/>
<path d="M363.382 0C350.579 0 344.611 4.15021 340.546 11.0674C337.172 16.7743 336.134 25.5071 336.134 34.2403C336.134 44.3567 337.691 52.8302 341.064 58.2778C345.043 64.6759 350.666 68.1345 363.382 68.1345C374.454 68.1345 380.336 65.1082 384.921 58.4504C388.813 52.9169 390.543 44.0974 390.543 34.2403C390.543 24.9017 389.159 15.6499 384.921 9.59738C380.422 3.11253 374.54 0 363.382 0ZM363.382 10.0297C369.264 10.0297 373.848 11.4997 376.616 16.342C379.125 20.5785 379.903 27.2364 379.903 34.2403C379.903 41.5035 379.125 48.853 375.751 53.1762C372.724 57.0671 368.572 58.1048 363.382 58.1048C357.499 58.1048 352.569 57.1534 349.714 52.2248C347.466 48.1609 346.773 41.1574 346.773 34.2403C346.773 27.2364 347.379 20.4059 349.628 16.342C352.483 11.1541 357.499 10.0297 363.382 10.0297Z" fill="#6F6F6F"/>
<path d="M397.227 1.47003V41.5898C397.227 50.8416 398.265 57.4995 402.676 62.1688C407.001 66.9243 412.71 68.1345 421.533 68.1345C429.837 68.1345 435.633 66.7513 440.045 62.3413C444.715 57.6725 445.753 51.3602 445.753 41.5898V1.47003H435.287V41.8491C435.287 48.68 434.855 52.7439 432 55.4241C429.578 57.5857 425.858 58.1048 421.533 58.1048C417.122 58.1048 413.316 57.5857 410.98 55.3379C408.126 52.5709 407.693 48.507 407.693 41.8491V1.47003H397.227Z" fill="#6F6F6F"/>
<path d="M463.843 66.6645V43.3191C470.676 43.3191 476.472 43.3191 480.105 43.0598C486.16 42.7137 491.091 41.4168 494.724 37.6989C498.529 33.7212 500 28.101 500 21.8755C500 15.9097 498.356 10.3758 494.896 6.74417C491.263 3.0263 486.592 1.47003 479.413 1.47003H453.376V66.6645H463.843ZM463.843 33.2889V11.4997H478.288C482.441 11.4997 484.949 11.9321 486.766 13.7481C488.582 15.5637 489.361 18.3306 489.361 21.8755C489.361 25.3341 488.928 28.101 487.198 30.0033C485.468 32.0787 482.959 32.7703 479.067 33.0296C475.088 33.2889 469.638 33.2889 463.843 33.2889Z" fill="#6F6F6F"/>
</svg>
