<svg viewBox="0 0 152 42" fill="none" xmlns="http://www.w3.org/2000/svg" aria-label="Boost Insurance Home"><path fill="#000000" d="M63.9207 11.6845C60.1413 11.6845 57.2103 13.3427 55.5295 16.2243C55.4082 16.4321 55.0559 16.3494 55.0559 16.1089V6.58787C55.0559 6.4643 54.9558 6.36412 54.8322 6.36412H52.0113C51.8878 6.36412 51.7876 6.4643 51.7876 6.58787V33.6437C51.7876 33.7673 51.8878 33.8675 52.0113 33.8675H54.8322C54.9558 33.8675 55.0559 33.7673 55.0559 33.6437V29.8456C55.0559 29.6051 55.408 29.5225 55.529 29.7305C57.2097 32.6193 60.1409 34.3147 63.9207 34.3147C69.9201 34.3147 74.7107 29.2609 74.7107 22.9549C74.7107 16.6489 69.9201 11.6845 63.9207 11.6845ZM63.2939 31.2288C58.5481 31.2288 55.0559 27.7403 55.0559 22.9549C55.0559 18.2142 58.5481 14.7257 63.2939 14.7257C67.9054 14.7257 71.4871 18.3931 71.4871 22.9549C71.4871 27.6062 67.9054 31.2288 63.2939 31.2288Z"></path><path fill="#000000" d="M87.1751 11.6845C80.8623 11.6845 75.9374 16.6041 75.9374 22.9996C75.9374 29.3951 80.8623 34.3147 87.1751 34.3147C93.4879 34.3147 98.4575 29.3951 98.4575 22.9996C98.4575 16.6041 93.4879 11.6845 87.1751 11.6845ZM87.1751 14.7705C91.697 14.7705 95.234 18.3484 95.234 22.9996C95.234 27.6062 91.697 31.2288 87.1751 31.2288C82.6531 31.2288 79.1609 27.6062 79.1609 22.9996C79.1609 18.3484 82.6531 14.7705 87.1751 14.7705Z"></path><path fill="#000000" d="M110.918 11.6845C104.605 11.6845 99.6804 16.6041 99.6804 22.9996C99.6804 29.3951 104.605 34.3147 110.918 34.3147C117.231 34.3147 122.201 29.3951 122.201 22.9996C122.201 16.6041 117.231 11.6845 110.918 11.6845ZM110.918 14.7705C115.44 14.7705 118.977 18.3484 118.977 22.9996C118.977 27.6062 115.44 31.2288 110.918 31.2288C106.396 31.2288 102.904 27.6062 102.904 22.9996C102.904 18.3484 106.396 14.7705 110.918 14.7705Z"></path><path fill="#000000" d="M131.929 34.3147C136.585 34.3147 140.033 31.5418 140.033 27.6956C140.033 18.7061 126.825 23.4021 126.825 17.5433C126.825 15.6649 128.661 14.4127 131.302 14.4127C133.904 14.4127 135.876 15.7971 136.282 17.7127C136.305 17.8205 136.398 17.9011 136.508 17.9011H139.376C139.511 17.9011 139.615 17.7822 139.593 17.6492C138.981 13.91 135.465 11.6845 131.392 11.6845C126.691 11.6845 123.646 14.2338 123.646 17.7669C123.646 26.175 136.854 21.6579 136.854 27.785C136.854 29.9765 134.839 31.4971 131.795 31.4971C128.831 31.4971 126.674 29.9718 126.272 27.6224C126.253 27.5113 126.158 27.4273 126.046 27.4273H123.357C123.225 27.4273 123.121 27.5432 123.139 27.6749C123.694 31.7783 127.144 34.3147 131.929 34.3147Z"></path><path fill="#000000" d="M151.564 15.3984C151.687 15.3984 151.788 15.2982 151.788 15.1746V12.3555C151.788 12.2319 151.687 12.1318 151.564 12.1318H145.922C145.799 12.1318 145.699 12.0316 145.699 11.908V6.5463C145.699 6.36976 145.504 6.26276 145.355 6.35751L142.534 8.15183C142.469 8.19289 142.43 8.2641 142.43 8.34062V12.1318V15.173V26.5775C142.43 31.676 145.251 34.0911 149.683 34.0911C150.291 34.0911 151.044 34.0179 151.614 33.9047C151.716 33.8844 151.788 33.7936 151.788 33.6894V30.9744C151.788 30.8166 151.629 30.7097 151.482 30.7659C151.116 30.9053 150.664 31.0499 150.161 31.0499C147.508 31.0499 145.699 29.8423 145.699 26.5328V15.6221C145.699 15.4986 145.799 15.3984 145.922 15.3984H151.564Z"></path><path d="M15.5922 0.845548C17.0953 -0.0916587 19.0014 -0.0892951 20.5022 0.851639L37.0382 11.2187C39.2486 12.6045 39.2426 15.8271 37.027 17.2046L19.9072 27.849C18.769 28.5568 17.328 28.5584 16.188 27.8533L9.08123 23.4574C7.13023 22.2506 7.13023 19.4129 9.08122 18.2061L16.188 13.8101C17.328 13.105 18.769 13.1067 19.9072 13.8144L27.1079 18.2915C27.1931 18.3444 27.2563 18.433 27.2423 18.5324C27.148 19.2051 25.8857 19.9762 24.7854 19.9189C24.732 19.9161 24.6806 19.8984 24.6352 19.8702L18.5099 16.0617C18.2254 15.8848 17.8651 15.8844 17.5801 16.0607L10.4733 20.4566C10.1946 20.629 10.1946 21.0344 10.4733 21.2068L17.5801 25.6028C17.8651 25.779 18.2254 25.7786 18.5099 25.6017L35.6297 14.9573C36.1836 14.6129 36.1851 13.8073 35.6325 13.4608L19.0966 3.09375C18.4534 2.69049 17.6365 2.68948 16.9923 3.09114L3.3733 11.6054C3.26211 11.675 3.12104 11.675 3.00981 11.6056L0.925266 10.3041C0.817729 10.237 0.817687 10.0804 0.925189 10.0132L15.5922 0.845548Z" fill="url(#paint0_linear_1833_314)"></path><path d="M30.844 23.7305C30.7777 23.6893 30.7262 23.6268 30.705 23.5516C30.3633 22.3422 31.5108 21.6552 32.1889 21.5358C32.2619 21.5229 32.3357 21.5419 32.3986 21.581L37.027 24.4588C39.2426 25.8364 39.2486 29.0589 37.0382 30.4447L20.5035 40.811C19.0017 41.7525 17.0944 41.7543 15.5909 40.8156L0.925393 31.6591C0.817825 31.5919 0.817827 31.4353 0.925396 31.3681L3.00917 30.0672C3.12033 29.9978 3.26132 29.9978 3.37248 30.0672L16.9924 38.5709C17.6368 38.9732 18.4542 38.9724 19.0978 38.5689L35.6325 28.2026C36.1851 27.8562 36.1836 27.0505 35.6297 26.7061L30.844 23.7305Z" fill="url(#paint1_linear_1833_314)"></path><defs><linearGradient id="paint0_linear_1833_314" x1="19.6924" y1="-4.40686" x2="6.27732" y2="46.6845" gradientUnits="userSpaceOnUse"><stop stop-color="#FCE344"></stop><stop offset="0.517073" stop-color="#79FA4B"></stop><stop offset="1" stop-color="#30D7F1"></stop></linearGradient><linearGradient id="paint1_linear_1833_314" x1="19.6924" y1="-4.40686" x2="6.27732" y2="46.6845" gradientUnits="userSpaceOnUse"><stop stop-color="#FCE344"></stop><stop offset="0.517073" stop-color="#79FA4B"></stop><stop offset="1" stop-color="#30D7F1"></stop></linearGradient></defs></svg>