<svg width="180" height="60" viewBox="0 0 180 60" fill="none" xmlns="http://www.w3.org/2000/svg">
<g clip-path="url(#clip0)">
<path d="M9.57419 43.15C8.46029 43.15 7.31988 43.0704 6.20598 42.9113C12.7567 41.1079 17.5836 35.5649 18.4588 28.855C18.4588 28.8285 18.4853 28.8285 18.5119 28.8285C18.5119 28.8285 18.5384 28.8285 18.5384 28.855C19.0953 29.8363 19.4931 30.8972 19.7584 31.9845C22.1453 29.412 25.5135 27.9533 29.0143 27.9533C27.7678 27.9798 26.7335 28.9346 26.6009 30.1546C26.4417 31.5071 26.0704 32.8332 25.54 34.0797C26.3887 33.7349 27.2639 33.4697 28.1656 33.3106C28.1921 33.3106 28.2187 33.3371 28.2187 33.3371V33.3636C24.0018 39.4635 17.0267 43.15 9.57419 43.15ZM11.0594 32.4884C10.2107 32.7271 9.30897 32.9128 8.43377 32.9658C9.86592 34.2919 11.4042 35.4323 13.075 36.4136C13.5259 36.6788 14.1093 36.5462 14.4011 36.0953C16.0454 33.7615 17.0532 31.0298 17.3449 28.192C17.398 27.6085 17.1858 27.025 16.7615 26.6007C15.4089 25.3542 13.7645 24.4525 11.9876 24.0016C7.39944 22.8082 3.26212 20.3947 0 17C0.981288 20.6599 3.55385 23.6834 6.9751 25.2746C5.19817 25.142 3.47429 24.6647 1.90953 23.8425C1.93605 23.8955 1.96258 23.9486 1.96258 23.9751C3.52733 26.4151 5.88773 28.245 8.64594 29.1733C7.26683 29.1998 5.88773 29.0141 4.56166 28.5898C4.58818 28.6163 4.58818 28.6428 4.6147 28.6694C6.33859 30.5524 8.56638 31.8519 11.0594 32.4884ZM34.4777 37.7396C36.3342 37.7396 38.1907 37.3153 39.8615 36.5462C39.4637 36.5727 39.0393 36.5992 38.6415 36.5992C37.3685 36.5992 36.122 36.4136 34.902 36.0423C38.3763 36.4401 41.8771 35.4058 44.5558 33.178C41.3732 34.7162 37.7133 34.9019 34.3981 33.7084C33.2577 33.3106 32.0377 33.0984 30.8177 33.0984H30.6851C30.1017 33.1249 29.5447 33.4167 29.1999 33.9206C27.7413 36.0158 25.9909 37.8723 24.0018 39.437C23.8692 39.5431 23.8426 39.7287 23.9487 39.8348C24.0018 39.8879 24.0813 39.9409 24.1609 39.9409C24.9565 40.0205 25.7787 40.047 26.6009 40.047C28.086 40.047 29.5712 39.9144 31.0299 39.6757C30.3669 39.2779 29.7304 38.827 29.1204 38.3231C31.2686 38.9331 33.5229 38.9861 35.6977 38.4557C35.8037 38.4027 35.9363 38.3762 36.069 38.3231C34.6633 38.2701 33.2577 37.9783 31.9316 37.4744C32.7803 37.6336 33.629 37.7396 34.4777 37.7396Z" fill="url(#paint0_linear)"/>
<path d="M54.8991 34.2124C54.8991 38.058 57.3125 40.1002 60.0177 40.1002C63.1472 40.1002 64.3141 37.9784 64.6854 36.6524L67.5762 37.8989C66.7806 40.3123 64.3672 43.1236 60.0177 43.1236C55.1112 43.1236 51.5574 39.278 51.5574 34.1859C51.5574 28.9612 55.2173 25.3013 59.9911 25.3013C64.4732 25.3013 66.7541 28.086 67.4436 30.6321L64.4732 31.8786C64.0489 30.2342 62.8289 28.3247 59.9646 28.3247C57.339 28.3512 54.8991 30.3138 54.8991 34.2124Z" fill="#7C1952"/>
<path d="M70.467 42.6196V17.3713H73.7292V42.6196H70.467Z" fill="#7C1952"/>
<path d="M93.0103 37.8459C92.0555 40.8163 89.3768 43.1502 85.4782 43.1502C80.9696 43.1502 77.0444 39.8615 77.0444 34.186C77.0444 28.9348 80.837 25.3279 85.0539 25.3279C90.2255 25.3279 93.1163 28.8817 93.1163 34.1064C93.1163 34.4512 93.0898 34.796 93.0368 35.1408H80.4126C80.4922 38.1377 82.6404 40.2328 85.4782 40.2328C88.1834 40.2328 89.5625 38.7477 90.1725 36.8381L93.0103 37.8459ZM89.6951 32.5152C89.6155 30.1017 88.0508 28.2187 85.1069 28.2187C82.6669 28.1922 80.6513 30.0752 80.5452 32.5152H89.6951Z" fill="#7C1952"/>
<path d="M100.489 33.0191L105.024 32.356C106.032 32.2234 106.324 31.693 106.324 31.1095C106.324 29.4652 105.237 28.1391 102.69 28.1391C100.383 28.1391 99.1101 29.5713 98.8979 31.5339L95.7419 30.7647C96.0867 27.5557 98.9775 25.3279 102.611 25.3279C107.623 25.3279 109.586 28.1922 109.586 31.4543V39.8615C109.586 40.7898 109.639 41.718 109.798 42.6198H106.589C106.456 41.8772 106.403 41.108 106.403 40.3655C105.661 41.5589 103.99 43.1502 100.993 43.1502C97.5719 43.1502 95.3706 40.7898 95.3706 38.1377C95.3971 35.1142 97.5984 33.4434 100.489 33.0191ZM106.324 35.4325V34.6634L101.205 35.4325C99.7997 35.6447 98.7653 36.4403 98.7653 37.952C98.7653 39.1985 99.7997 40.392 101.497 40.392C104.149 40.392 106.324 39.0924 106.324 35.4325Z" fill="#7C1952"/>
<path d="M122.953 29.1469C122.475 29.0674 121.998 29.0408 121.521 29.0408C118.762 29.0408 116.932 30.4995 116.932 34.2125V42.6197H113.644V25.8318H116.853V28.7491C118.073 26.1765 120.168 25.54 121.865 25.54C122.237 25.54 122.581 25.5666 122.953 25.6461V29.1469Z" fill="#7C1952"/>
<path d="M127.063 37.2093C127.276 38.9597 128.602 40.3388 130.962 40.3388C132.819 40.3388 133.826 39.3045 133.826 38.1111C133.826 37.0767 133.057 36.2546 131.678 35.9363L128.814 35.2998C126.188 34.7429 124.65 32.9659 124.65 30.6055C124.65 27.7412 127.329 25.3013 130.617 25.3013C135.205 25.3013 136.638 28.2982 137.009 29.8099L134.118 30.8973C133.985 30.0221 133.296 28.1125 130.644 28.1125C128.973 28.1125 127.859 29.1999 127.859 30.3403C127.859 31.3481 128.496 32.0907 129.769 32.3559L132.5 32.9394C135.524 33.6024 137.142 35.4589 137.142 37.9254C137.142 40.2858 135.152 43.1236 131.015 43.1236C126.427 43.1236 124.464 40.1532 124.173 38.2437L127.063 37.2093Z" fill="#7C1952"/>
<path d="M144.117 33.0189L148.652 32.3559C149.66 32.2233 149.951 31.6928 149.951 31.1094C149.951 29.465 148.864 28.139 146.318 28.139C144.011 28.139 142.738 29.5711 142.525 31.5337L139.396 30.7911C139.741 27.582 142.632 25.3542 146.265 25.3542C151.277 25.3542 153.24 28.2185 153.24 31.4807V39.8879C153.24 40.8162 153.293 41.7444 153.452 42.6461H150.243C150.111 41.9035 150.058 41.1344 150.058 40.3918C149.315 41.5853 147.644 43.1765 144.647 43.1765C141.226 43.1765 139.025 40.8162 139.025 38.164C139.025 35.1141 141.226 33.4432 144.117 33.0189ZM149.925 35.4323V34.6632L144.806 35.4323C143.401 35.6445 142.366 36.4401 142.366 37.9519C142.366 39.1984 143.401 40.3918 145.098 40.3918C147.777 40.3918 149.925 39.0923 149.925 35.4323Z" fill="#7C1952"/>
<path d="M157.324 42.6196V17.3713H160.613V42.6196H157.324Z" fill="#7C1952"/>
<path d="M179.894 37.8459C178.939 40.8163 176.26 43.1502 172.362 43.1502C167.853 43.1502 163.928 39.8615 163.928 34.186C163.928 28.9348 167.721 25.3279 171.937 25.3279C177.109 25.3279 180 28.8817 180 34.1064C180 34.4512 179.973 34.796 179.92 35.1408H167.296C167.376 38.1377 169.524 40.2328 172.362 40.2328C175.093 40.2328 176.446 38.7477 177.083 36.8381L179.894 37.8459ZM176.579 32.5152C176.499 30.1017 174.934 28.2187 171.964 28.2187C169.524 28.1922 167.508 30.0752 167.402 32.5152H176.579Z" fill="#7C1952"/>
</g>
<defs>
<linearGradient id="paint0_linear" x1="0" y1="30.0684" x2="44.5608" y2="30.0684" gradientUnits="userSpaceOnUse">
<stop stop-color="#DB406C"/>
<stop offset="1" stop-color="#FAA519"/>
</linearGradient>
<clipPath id="clip0">
<rect width="180" height="26.15" fill="white" transform="translate(0 17)"/>
</clipPath>
</defs>
</svg>
