<svg viewBox="0 0 215 50" xmlns="http://www.w3.org/2000/svg" fill-rule="evenodd" clip-rule="evenodd" stroke-linejoin="round" stroke-miterlimit="2"><g transform="matrix(1.14997 0 0 1 -.044 0)"><path fill="none" d="M.038 0H187v50H.038z"/><clipPath id="a"><path d="M.038 0H187v50H.038z"/></clipPath><g clip-path="url(#a)"><path d="M32.515 38.103c-.184 6.464-4.724 11.682-10.345 11.896l-.033.001c.17-6.494 4.731-11.743 10.38-11.935l-.002.038zm-21.377-.037c5.62.211 10.157 5.432 10.345 11.896l.001.038c-5.648-.195-10.212-5.44-10.38-11.935h.034zm10.345-12.65c-.188 6.464-4.726 11.68-10.345 11.896l-.033.001c.168-6.495 4.732-11.742 10.38-11.935l-.002.038zm22.066 0c-.187 6.464-4.727 11.68-10.346 11.896l-.033.001c.17-6.495 4.734-11.742 10.38-11.935l-.001.038zm-21.38-.037c5.622.212 10.161 5.43 10.346 11.896v.038c-5.647-.196-10.208-5.44-10.379-11.935l.033.001zm-22.065 0c5.62.212 10.16 5.43 10.346 11.896v.038C4.804 37.117.242 31.873.072 25.378l.033.001zm32.411-12.652c-.184 6.463-4.724 11.682-10.345 11.896l-.033.001c.17-6.492 4.731-11.74 10.38-11.935l-.002.038zm-21.377-.036c5.62.213 10.157 5.433 10.345 11.895l.001.038c-5.648-.195-10.212-5.442-10.38-11.935l.034.002zm22.065 0c5.62.213 10.159 5.433 10.345 11.895l.001.038c-5.646-.195-10.209-5.442-10.38-11.935l.034.002zm-22.753.036C10.263 19.19 5.723 24.41.104 24.623l-.033.001c.17-6.492 4.732-11.74 10.38-11.935l-.001.038zM22.17.001c5.62.215 10.16 5.432 10.345 11.897v.038C26.869 11.741 22.308 6.492 22.137 0l.033.001zm-.687.037c-.188 6.462-4.726 11.683-10.345 11.897l-.033.001C11.273 5.441 15.837.196 21.485 0l-.002.038z" fill="#0bce7c" fill-rule="nonzero"/><path d="M61.955 12.384c-6.115 0-10.611 4.592-10.611 12.365 0 7.738 4.523 12.362 10.64 12.362 5.054 0 9.103-3.435 9.913-9.055h-4.615c-.669 3.046-2.722 4.656-5.439 4.656-3.434 0-6.116-2.762-6.116-7.963 0-4.882 2.43-7.965 6.089-7.965 2.745 0 4.774 1.642 5.464 4.751h4.588c-.754-5.683-4.858-9.15-9.913-9.15M78.412 22.05v-1.895h-3.937v16.603h4.076v-8.414c0-2.28 1.48-3.82 3.827-3.82v-4.53c-2.207 0-3.352.964-3.966 2.056M87.363 26.836c.112-2.12 1.257-3.341 2.988-3.341 1.843 0 2.737 1.317 2.822 3.34h-5.81zm3.017-7.002c-4.301 0-7.345 3.276-7.345 8.64 0 5.33 3.044 8.638 7.456 8.638 3.378 0 6.142-2.248 6.647-5.394h-4.185c-.365 1.014-1.247 1.604-2.573 1.604-1.844 0-2.933-1.317-3.017-3.372h9.914v-1.862c0-5.17-2.736-8.254-6.897-8.254M109.897 28.827c0 2.697-1.397 4.239-3.407 4.239-2.038 0-3.49-1.638-3.49-4.593 0-2.953 1.452-4.624 3.49-4.624 2.01 0 3.407 1.573 3.407 4.239v.739zm0-7.226c-.754-.996-2.205-1.767-4.077-1.767-4.077 0-6.953 3.404-6.953 8.64 0 5.202 2.876 8.637 6.953 8.637 2.04 0 3.547-.93 4.301-2.055v1.703h3.826V11.806h-4.05V21.6zM119.746 16.856c1.368 0 2.458-1.252 2.458-2.793 0-1.574-1.09-2.827-2.458-2.827-1.313 0-2.43 1.253-2.43 2.827 0 1.54 1.062 2.793 2.43 2.793" fill="#fff" fill-rule="nonzero"/><path fill="#fff" d="M121.784 20.155h-4.076v16.603h4.076z"/><path d="M124.993 38.396c0 1.605-.977 2.634-2.373 2.634-.42 0-.698-.033-.95-.098v4.08c.418.063.81.096 1.424.096 3.603 0 5.976-2.633 5.976-6.808V20.092h-4.077v18.304zM127.003 11.172c-1.367 0-2.428 1.253-2.428 2.827 0 1.54 1.061 2.793 2.428 2.793 1.37 0 2.458-1.253 2.458-2.793 0-1.574-1.089-2.827-2.458-2.827M140.936 29.533c0 1.862-.894 3.211-2.458 3.211-1.591 0-2.317-1.124-2.317-3.146v-9.442h-4.077v10.437c0 4.045 2.01 6.518 5.333 6.518 2.04 0 3.183-.994 3.742-2.023v1.67h3.854V20.156h-4.077v9.377zM152.82 19.834c-3.63 0-5.78 2.056-5.78 5.235 0 3.404 2.037 4.142 5.11 5.042 2.095.579 2.625.899 2.625 1.894 0 .964-.698 1.51-1.816 1.51-1.298 0-1.944-.724-2.073-1.808h-3.952l-.147.01c.308 3.468 2.459 5.395 6.144 5.395 3.771 0 5.922-2.152 5.922-5.524 0-3.018-2.04-4.046-4.916-4.913-1.732-.515-2.82-.675-2.82-1.831 0-.898.558-1.413 1.648-1.413 1.155 0 1.696.707 1.818 1.745h4.071c-.26-3.072-2.185-5.342-5.834-5.342M167.063 14.665h-4.078l-.028 5.49h-2.652v4.047h2.625l-.029 7.29c-.028 3.854 2.123 5.587 5.25 5.587 1.118 0 1.676-.096 2.262-.192v-4.175c-.306.064-.67.16-1.256.16-1.146 0-2.178-.674-2.178-2.504l.029-6.166h3.405v-4.047h-3.378l.028-5.49zM179.32 33.066c-2.094 0-3.547-1.702-3.547-4.593 0-2.922 1.453-4.624 3.546-4.624 2.096 0 3.547 1.702 3.547 4.624 0 2.89-1.451 4.593-3.547 4.593m0-13.232c-4.41 0-7.679 3.404-7.679 8.64 0 5.202 3.269 8.638 7.68 8.638 4.412 0 7.68-3.436 7.68-8.639 0-5.235-3.268-8.639-7.68-8.639" fill="#fff" fill-rule="nonzero"/></g></g></svg>