<svg width="215" height="50" viewBox="0 0 215 50" fill="none" xmlns="http://www.w3.org/2000/svg">
<path d="M37.3473 38.103C37.1357 44.567 31.9148 49.785 25.4508 49.999L25.4129 50C25.6084 43.506 30.8534 38.257 37.3496 38.065L37.3473 38.103V38.103ZM12.7644 38.066C19.2272 38.277 24.4446 43.498 24.6608 49.962L24.662 50C18.1669 49.805 12.9185 44.56 12.7253 38.065H12.7644V38.066ZM24.6608 25.416C24.4446 31.88 19.2261 37.096 12.7644 37.312L12.7264 37.313C12.9196 30.818 18.1681 25.571 24.6631 25.378L24.6608 25.416V25.416ZM50.0361 25.416C49.821 31.88 44.6001 37.096 38.1385 37.312L38.1005 37.313C38.296 30.818 43.5445 25.571 50.0372 25.378L50.0361 25.416V25.416ZM25.4497 25.379C31.9148 25.591 37.1345 30.809 37.3473 37.275V37.313C30.8534 37.117 25.6084 31.873 25.4117 25.378L25.4497 25.379V25.379ZM0.0756077 25.379C6.53844 25.591 11.7593 30.809 11.9732 37.275V37.313C5.48047 37.117 0.234304 31.873 0.0388087 25.378L0.0767577 25.379H0.0756077ZM37.3473 12.727C37.1357 19.19 31.9148 24.409 25.4508 24.623L25.4129 24.624C25.6084 18.132 30.8534 12.884 37.3496 12.689L37.3473 12.727ZM12.7644 12.691C19.2272 12.904 24.4446 18.124 24.6608 24.586L24.662 24.624C18.1669 24.429 12.9185 19.182 12.7253 12.689L12.7644 12.691V12.691ZM38.1385 12.691C44.6013 12.904 49.821 18.124 50.0349 24.586L50.0361 24.624C43.5433 24.429 38.296 19.182 38.0994 12.689L38.1385 12.691V12.691ZM11.9732 12.727C11.7582 19.19 6.53729 24.41 0.0756077 24.623L0.0376587 24.624C0.233154 18.132 5.47932 12.884 11.9743 12.689L11.9732 12.727V12.727ZM25.4508 0.001C31.9137 0.216 37.1345 5.433 37.3473 11.898V11.936C30.8546 11.741 25.6095 6.492 25.4129 0L25.4508 0.001ZM24.6608 0.038C24.4446 6.5 19.2261 11.721 12.7644 11.935L12.7264 11.936C12.9196 5.441 18.1681 0.196 24.6631 0L24.6608 0.038Z" fill="#0BCE7C"/>
<path d="M71.2024 12.384C64.1704 12.384 59.0001 16.976 59.0001 24.749C59.0001 32.487 64.2014 37.111 71.2358 37.111C77.0477 37.111 81.704 33.676 82.6354 28.056H77.3283C76.559 31.102 74.1981 32.712 71.0736 32.712C67.1246 32.712 64.0404 29.95 64.0404 24.749C64.0404 19.867 66.8348 16.784 71.0426 16.784C74.1992 16.784 76.5325 18.426 77.326 21.535H82.6021C81.735 15.852 77.0155 12.385 71.2024 12.385V12.384ZM90.1275 22.05V20.155H85.6V36.758H90.2873V28.344C90.2873 26.064 91.9893 24.524 94.6883 24.524V19.994C92.1503 19.994 90.8336 20.958 90.1275 22.05ZM100.421 26.836C100.55 24.716 101.866 23.495 103.857 23.495C105.976 23.495 107.004 24.812 107.102 26.835H100.421V26.836ZM103.89 19.834C98.9443 19.834 95.4438 23.11 95.4438 28.474C95.4438 33.804 98.9443 37.112 104.018 37.112C107.903 37.112 111.081 34.864 111.662 31.718H106.849C106.429 32.732 105.415 33.322 103.89 33.322C101.77 33.322 100.517 32.005 100.421 29.95H111.822V28.088C111.822 22.918 108.675 19.834 103.89 19.834V19.834ZM126.334 28.827C126.334 31.524 124.728 33.066 122.416 33.066C120.073 33.066 118.403 31.428 118.403 28.473C118.403 25.52 120.073 23.849 122.416 23.849C124.728 23.849 126.334 25.422 126.334 28.088V28.827V28.827ZM126.334 21.601C125.467 20.605 123.799 19.834 121.646 19.834C116.957 19.834 113.65 23.238 113.65 28.474C113.65 33.676 116.957 37.111 121.646 37.111C123.992 37.111 125.725 36.181 126.592 35.056V36.759H130.992V11.806H126.334V21.6V21.601ZM137.66 16.856C139.234 16.856 140.487 15.604 140.487 14.063C140.487 12.489 139.234 11.236 137.66 11.236C136.15 11.236 134.866 12.489 134.866 14.063C134.866 15.603 136.087 16.856 137.66 16.856Z" fill="#1B1B1B"/>
<path fill-rule="evenodd" clip-rule="evenodd" d="M140.004 20.155H135.317V36.758H140.004V20.155Z" fill="#1B1B1B"/>
<path d="M143.694 38.396C143.694 40.001 142.571 41.03 140.965 41.03C140.482 41.03 140.163 40.997 139.873 40.932V45.012C140.354 45.075 140.804 45.108 141.51 45.108C145.654 45.108 148.383 42.475 148.383 38.3V20.092H143.694V38.396ZM146.006 11.172C144.434 11.172 143.214 12.425 143.214 13.999C143.214 15.539 144.434 16.792 146.006 16.792C147.581 16.792 148.832 15.539 148.832 13.999C148.832 12.425 147.58 11.172 146.006 11.172V11.172ZM162.028 29.533C162.028 31.395 161 32.744 159.202 32.744C157.372 32.744 156.537 31.62 156.537 29.598V20.156H151.849V30.593C151.849 34.638 154.16 37.111 157.981 37.111C160.327 37.111 161.642 36.117 162.285 35.088V36.758H166.717V20.156H162.028V29.533ZM175.694 19.834C171.52 19.834 169.048 21.89 169.048 25.069C169.048 28.473 171.39 29.211 174.924 30.111C177.333 30.69 177.943 31.01 177.943 32.005C177.943 32.969 177.14 33.515 175.854 33.515C174.362 33.515 173.619 32.791 173.47 31.707H168.926L168.757 31.717C169.111 35.185 171.584 37.112 175.822 37.112C180.159 37.112 182.632 34.96 182.632 31.588C182.632 28.57 180.286 27.542 176.979 26.675C174.987 26.16 173.736 26 173.736 24.844C173.736 23.946 174.378 23.431 175.631 23.431C176.959 23.431 177.582 24.138 177.722 25.176H182.403C182.104 22.104 179.891 19.834 175.694 19.834V19.834ZM192.073 14.665H187.384L187.352 20.155H184.302V24.202H187.321L187.287 31.492C187.255 35.346 189.729 37.079 193.325 37.079C194.61 37.079 195.252 36.983 195.926 36.887V32.712C195.574 32.776 195.155 32.872 194.481 32.872C193.164 32.872 191.977 32.198 191.977 30.368L192.01 24.202H195.926V20.155H192.041L192.073 14.665V14.665ZM206.169 33.066C203.761 33.066 202.09 31.364 202.09 28.473C202.09 25.551 203.761 23.849 206.167 23.849C208.578 23.849 210.246 25.551 210.246 28.473C210.246 31.363 208.578 33.066 206.167 33.066H206.169ZM206.167 19.834C201.096 19.834 197.337 23.238 197.337 28.474C197.337 33.676 201.096 37.112 206.169 37.112C211.242 37.112 215 33.676 215 28.473C215 23.238 211.242 19.834 206.169 19.834" fill="#1B1B1B"/>
</svg>
