<svg width="182" height="34" viewBox="-4 -6 192 44" fill="none" xmlns="http://www.w3.org/2000/svg">
<path d="M155.348 26.5552C155.348 24.403 157.101 22.729 159.174 22.729C161.326 22.729 163 24.4827 163 26.5552C163 28.6278 161.246 30.3815 159.174 30.3815C157.101 30.3815 155.348 28.7075 155.348 26.5552Z" fill="#86BC25"/>
<path d="M40.4012 16.2727C40.4012 20.7366 39.2852 24.0845 36.8938 26.4759C34.5024 28.8673 31.1545 30.063 26.85 30.063H18.4004V3.51855H27.3283C31.5531 3.51855 34.7416 4.55483 36.9735 6.78679C39.2852 8.93905 40.4012 12.1276 40.4012 16.2727ZM33.0676 16.5118C33.0676 14.0407 32.5893 12.287 31.6328 11.0913C30.7559 9.97532 29.2414 9.33761 27.3283 9.33761H25.4151V24.1643H27.0094C29.1617 24.1643 30.6762 23.5265 31.7125 22.2511C32.5893 20.9757 33.0676 19.0626 33.0676 16.5118Z" fill="black"/>
<path d="M70.2138 3.43848H63.5977V30.0627H70.2138V3.43848Z" fill="black"/>
<path d="M92.0549 20.0988C92.0549 23.2873 91.2577 25.8381 89.504 27.6715C87.7503 29.5049 85.359 30.3818 82.3299 30.3818C79.3805 30.3818 77.0688 29.5049 75.3151 27.5918C73.5614 25.6787 72.6846 23.2076 72.6846 20.0988C72.6846 16.9103 73.4817 14.3594 75.2354 12.6058C76.9891 10.7724 79.3805 9.89551 82.4096 9.89551C84.3227 9.89551 85.9967 10.2941 87.4315 11.0912C88.946 11.8883 89.9823 13.084 90.7795 14.5986C91.736 16.2726 92.0549 18.0262 92.0549 20.0988ZM79.5399 20.0988C79.5399 21.8525 79.779 23.0482 80.1776 23.925C80.5762 24.8019 81.2936 25.2004 82.4096 25.2004C83.5256 25.2004 84.1633 24.8019 84.6415 23.925C85.0401 23.0482 85.2792 21.693 85.2792 20.0988C85.2792 18.3451 85.0401 17.1494 84.6415 16.2726C84.243 15.4754 83.5256 14.9971 82.4096 14.9971C81.453 14.9971 80.6559 15.3957 80.1776 16.2726C79.779 17.1494 79.5399 18.3451 79.5399 20.0988Z" fill="black"/>
<path d="M101.381 10.2139H94.7646V29.9827H101.381V10.2139Z" fill="black"/>
<path d="M101.381 3.43848H94.7646V7.90241H101.381V3.43848Z" fill="black"/>
<path d="M114.853 24.9609C115.73 24.9609 116.846 24.7217 118.042 24.3232V29.3451C117.165 29.7437 116.288 29.9828 115.491 30.1422C114.694 30.3017 113.737 30.3814 112.621 30.3814C110.389 30.3814 108.795 29.8234 107.759 28.6277C106.802 27.5117 106.244 25.758 106.244 23.4463V15.3156H103.933V10.214H106.244V5.27175L112.94 4.15576V10.3734H117.245V15.3953H112.94V23.0478C113.1 24.4029 113.658 24.9609 114.853 24.9609Z" fill="black"/>
<path d="M130.317 24.9609C131.194 24.9609 132.31 24.7217 133.506 24.3232V29.3451C132.629 29.7437 131.752 29.9828 130.955 30.1422C130.158 30.3017 129.201 30.3814 128.085 30.3814C125.853 30.3814 124.259 29.8234 123.223 28.6277C122.266 27.5117 121.708 25.758 121.708 23.4463V15.3156H119.396V10.214H121.708V5.19203L128.404 4.15576V10.3734H132.709V15.3953H128.404V23.0478C128.484 24.4029 129.121 24.9609 130.317 24.9609Z" fill="black"/>
<path d="M151.362 12.2072C149.768 10.6129 147.536 9.89551 144.666 9.89551C141.637 9.89551 139.246 10.7724 137.572 12.6058C135.898 14.4392 135.101 16.99 135.101 20.3379C135.101 23.5265 135.977 26.0773 137.731 27.831C139.565 29.5846 142.036 30.4615 145.224 30.4615C146.818 30.4615 148.094 30.3818 149.21 30.1426C150.246 29.9035 151.442 29.5846 152.398 29.0267L151.442 24.5627C150.724 24.8816 149.927 25.1207 149.29 25.2801C148.333 25.5193 147.217 25.599 146.101 25.599C144.826 25.599 143.789 25.2801 143.072 24.7221C142.354 24.0844 141.956 23.2076 141.956 22.0916H153.833V18.9828C153.753 16.0334 152.877 13.8015 151.362 12.2072ZM141.956 17.7074C142.036 16.6711 142.354 15.7943 142.833 15.316C143.311 14.8377 143.949 14.5986 144.826 14.5986C145.623 14.5986 146.42 14.8377 146.898 15.3957C147.376 15.9537 147.616 16.6711 147.695 17.7074H141.956Z" fill="black"/>
<path d="M58.655 12.2072C56.9811 10.6129 54.8288 9.89551 51.9591 9.89551C48.93 9.89551 46.5386 10.7724 44.8647 12.6058C43.1907 14.4392 42.3936 16.99 42.3936 20.3379C42.3936 23.5265 43.2704 26.0773 45.0241 27.831C46.8575 29.5846 49.3286 30.4615 52.5171 30.4615C54.1114 30.4615 55.3868 30.3818 56.5028 30.1426C57.539 29.9035 58.7347 29.5846 59.6913 29.0267L58.7347 24.483C58.0173 24.8019 57.2202 25.041 56.5825 25.2004C55.6259 25.4396 54.51 25.5193 53.394 25.5193C52.1186 25.5193 51.0823 25.2004 50.3649 24.6424C49.6474 24.0047 49.2489 23.1279 49.2489 22.0119H61.1261V18.9828C61.0464 16.0334 60.1696 13.8015 58.655 12.2072ZM49.1692 17.7074C49.2489 16.6711 49.5677 15.7943 50.046 15.316C50.5243 14.8377 51.162 14.5986 52.0388 14.5986C52.9157 14.5986 53.6331 14.8377 54.1114 15.3957C54.5897 15.9537 54.8288 16.6711 54.9085 17.7074H49.1692Z" fill="black"/>
</svg>
