<svg width="180" height="60" viewBox="0 0 180 60" fill="none" xmlns="http://www.w3.org/2000/svg">
<g clip-path="url(#clip0)">
<path d="M56.8261 25.8288V24.1268C56.8261 18.5301 61.6344 14.3901 67.285 14.3901C68.4181 14.3901 69.5512 14.5588 70.0565 14.7275L68.7551 19.7261C68.2956 19.5574 67.7903 19.4961 67.285 19.4961C64.3449 19.4961 62.3696 21.6428 62.3696 24.1421V25.8441H69.153V30.0301H62.3696V51.3129H56.8261V30.0148H53.5493V25.8288H56.8261Z" fill="#3F00A5"/>
<path d="M70.2712 38.5707C70.2712 31.2107 75.5849 25.5527 82.5982 25.5527C86.2119 25.5527 89.3819 27.4847 91.2499 30.3674V25.8441H96.7779V51.3128H91.2347V46.7895C89.3052 49.6721 86.1506 51.604 82.5827 51.604C75.5849 51.5888 70.2712 45.8693 70.2712 38.5707ZM75.8145 38.5707C75.8145 43.4929 79.2599 47.3414 83.5017 47.3414C87.1154 47.3414 91.2499 44.336 91.2499 38.5707C91.2499 33.7101 87.9118 29.8001 83.5017 29.8001C79.2599 29.8001 75.8145 33.7561 75.8145 38.5707Z" fill="#3F00A5"/>
<path d="M100.345 40.6081V25.8423H105.827V40.9609C105.827 44.2423 108.308 47.0788 111.815 47.0788C116.286 47.0788 118.706 43.2915 118.706 40.6236V25.8576H124.188V51.3262H118.706V47.8764C116.96 50.0843 114.188 51.6176 110.957 51.6176C104.296 51.587 100.345 46.5423 100.345 40.6081Z" fill="#3F00A5"/>
<path d="M127.25 51.2977V25.8289H132.732V29.2789C134.432 27.0709 137.204 25.5376 140.48 25.5376C147.096 25.5376 151.108 30.5823 151.108 36.5161V51.2823H145.626V36.1636C145.626 32.7136 142.976 30.0456 139.577 30.0456C135.06 30.0456 132.732 34.0016 132.732 36.501V51.2668H127.25V51.2977Z" fill="#3F00A5"/>
<path d="M153.588 38.5707C153.588 31.2107 158.902 25.5527 165.915 25.5527C169.529 25.5527 172.699 27.4847 174.567 30.3674V25.8441H180.111V51.3128H174.567V46.7895C172.638 49.6721 169.483 51.604 165.915 51.604C158.902 51.5888 153.588 45.8693 153.588 38.5707ZM159.132 38.5707C159.132 43.4929 162.577 47.3414 166.819 47.3414C170.433 47.3414 174.567 44.336 174.567 38.5707C174.567 33.7101 171.229 29.8001 166.819 29.8001C162.577 29.8001 159.132 33.7561 159.132 38.5707Z" fill="#3F00A5"/>
<path d="M32.739 16.8133C29.845 17.7793 28.4514 19.512 27.502 22.2107C27.257 22.9313 26.6445 23.7287 25.9554 24.2653L28.3289 26.8107L20.795 21.536L0 7C0 7 1.50067 16.752 2.02131 20.34C2.38882 22.87 3.01665 24.0047 5.00733 25.1547L5.80361 25.584L9.23371 27.3933L7.19708 26.3353L16.5992 31.472L16.538 31.61L6.41611 26.918C6.95209 28.758 7.99334 32.3 8.43742 33.864C8.91213 35.5507 9.44808 36.164 11.0866 36.7621L14.1032 37.8661L15.9714 37.13L13.5979 38.7095L1.73036 53.7819C9.61652 46.4527 16.2929 43.846 21.1778 41.7146C27.4102 39.0161 31.1619 37.2835 33.6119 31.058C35.3576 26.688 36.7203 21.0913 38.4509 18.9293L42.1413 14.2067C42.1413 14.2067 34.4999 16.2307 32.739 16.8133Z" fill="#3F00A5"/>
</g>
<defs>
<clipPath id="clip0">
<rect width="180" height="46.6775" fill="white" transform="translate(0 7)"/>
</clipPath>
</defs>
</svg>
