<svg width="180" height="60" viewBox="0 0 180 60" fill="none" xmlns="http://www.w3.org/2000/svg">
<g clip-path="url(#clip0)">
<path d="M107.811 41.559C107.33 41.2727 106.911 41.017 106.492 40.7614C104.702 39.6467 104.211 38.0003 105.183 36.1187C106.134 34.278 107.719 33.1327 109.539 32.2839C109.948 32.0896 109.999 31.9976 109.672 31.6601C107.341 29.2161 106.972 26.3835 108.148 23.3054C110.02 18.4071 114.724 15.2268 119.99 15.2166C122.301 15.2166 124.387 15.8199 126.105 17.4356C126.279 17.5992 126.392 17.5992 126.566 17.4254C128.11 15.8812 130.053 15.2984 132.169 15.237C133.397 15.2063 134.419 16.1062 134.532 17.2618C134.644 18.3969 133.857 19.4706 132.691 19.6547C132.057 19.7569 131.403 19.6854 130.758 19.716C129.91 19.7569 129.061 19.8285 128.263 20.1558C128.038 20.2478 127.936 20.3296 128.048 20.6057C128.795 22.4464 128.631 24.3178 128.048 26.1483C126.606 30.6784 123.385 33.1327 118.773 33.8894C117.372 34.1246 115.951 34.053 114.54 34.094C113.773 34.1144 113.016 34.1962 112.28 34.4416C111.82 34.595 111.421 34.8507 111.165 35.2802C110.746 35.9858 110.93 36.6709 111.656 37.0391C112.586 37.5197 113.619 37.5708 114.632 37.6526C117.025 37.8572 119.428 37.8469 121.78 38.3685C122.496 38.5321 123.191 38.7366 123.856 39.0536C125.993 40.066 126.923 41.8556 126.637 44.2076C126.238 47.347 124.398 49.4536 121.81 51.0182C119.571 52.3782 117.096 53.0225 114.509 53.227C111.83 53.4417 109.171 53.3395 106.553 52.6543C105.766 52.4498 104.999 52.1635 104.283 51.7647C102.013 50.4966 101.246 48.5639 102.033 46.079C102.851 43.4815 104.907 41.8556 107.647 41.6204C107.668 41.6408 107.698 41.6101 107.811 41.559ZM119.172 20.1046C116.575 20.1046 114.151 22.068 113.619 24.5939C113.016 27.4674 114.979 29.5536 117.894 29.1138C120.144 28.7764 122.209 26.7516 122.588 24.5121C123.017 21.9862 121.565 20.1046 119.172 20.1046ZM113.231 48.9423C114.315 49.0241 115.286 48.9729 116.237 48.7889C117.689 48.5025 119.008 47.9606 119.97 46.7743C120.716 45.854 120.604 44.9541 119.673 44.2076C119.111 43.7576 118.446 43.4815 117.761 43.2872C115.951 42.7759 114.1 42.6532 112.249 42.7964C110.664 42.9191 109.263 43.5224 108.363 44.9132C107.504 46.2323 107.514 47.889 109.621 48.4923C109.764 48.5332 109.917 48.5741 110.061 48.6048C111.134 48.8605 112.239 48.9218 113.231 48.9423Z" fill="#EC1D24"/>
<path d="M49.0108 20.2067C49.8084 19.1739 50.6368 18.1615 51.6696 17.3536C54.0318 15.5027 56.6906 14.7664 59.6562 15.2164C61.8343 15.5436 63.5114 17.3843 63.8284 19.7159C64.0738 21.485 63.675 23.1621 63.2762 24.8494C62.0593 30.0238 60.8424 35.1982 59.6153 40.3624C59.1755 42.2133 57.9075 43.4405 56.1486 43.7268C54.2261 44.0438 52.7536 42.5712 53.1626 40.6692C53.9091 37.2537 54.717 33.8484 55.4839 30.4328C55.9339 28.4592 56.3736 26.4958 56.8031 24.5221C56.936 23.9188 56.936 23.3052 56.7622 22.7019C56.5474 21.9554 56.0055 21.5361 55.2283 21.5259C53.1422 21.5054 51.4548 22.4053 49.9823 23.7961C49.8187 23.9495 49.6755 24.1233 49.5119 24.2665C48.2848 25.33 47.9984 26.8128 47.661 28.2956C46.5872 33.0609 45.4726 37.8263 44.3784 42.5917C44.2966 42.9394 44.1534 43.0416 43.8057 43.0314C42.0877 43.011 40.3698 43.011 38.6415 43.0314C38.2427 43.0314 38.12 42.9803 38.2223 42.5303C39.8994 34.8198 41.5662 27.0991 43.2331 19.3784C43.3149 19 43.2024 18.8978 42.8342 18.9182C42.3434 18.9387 41.8423 18.9489 41.3515 18.908C40.472 18.8467 39.8278 18.1411 39.8278 17.2923C39.8278 16.4026 40.472 15.6663 41.3821 15.6561C44.0409 15.6357 46.6997 15.6663 49.3483 15.6459C49.8493 15.6459 49.8698 15.8402 49.7675 16.239C49.4914 17.3741 49.2562 18.5296 49.0006 19.6647C48.9699 19.8284 48.9699 20.0022 48.9494 20.1658C48.929 20.1863 48.9085 20.1965 48.8881 20.217C48.9085 20.2374 48.9188 20.2476 48.9392 20.2681C48.9904 20.2579 49.0006 20.2374 49.0108 20.2067Z" fill="#EC1D24"/>
<path d="M28.7631 30.4431C26.1964 30.4431 23.6194 30.4431 21.0526 30.4431C20.8583 30.4431 20.7663 30.5045 20.7356 30.6886C20.4493 32.3554 20.2652 34.0325 20.7765 35.6891C21.3083 37.4071 22.6274 38.3377 24.4272 38.3991C26.7997 38.4706 28.7018 37.4583 30.3788 35.9141C30.7367 35.5767 31.0947 35.229 31.4424 34.8813C32.3832 33.9507 33.8659 33.8996 34.8681 34.7688C35.8396 35.6278 36.0032 37.1719 35.1544 38.1741C32.5161 41.334 29.1722 43.1951 25.0408 43.5939C23.4762 43.7473 21.9116 43.8087 20.3675 43.4405C17.1258 42.6633 15.2237 40.5465 14.4466 37.3662C13.741 34.4825 14.0682 31.6191 14.7533 28.7865C15.6021 25.2381 17.0542 21.9862 19.6107 19.3274C22.7399 16.0755 26.5645 14.6438 31.064 15.2267C34.367 15.6562 36.8417 18.1514 37.5576 21.618C38.0791 24.0927 37.7825 26.5163 37.2099 28.9399C37.1178 29.3183 37.0054 29.6966 36.9645 30.0852C36.9235 30.4534 36.7497 30.5045 36.4327 30.5045C33.8762 30.4943 31.3196 30.4943 28.7631 30.4943C28.7631 30.484 28.7631 30.4636 28.7631 30.4431ZM26.902 25.9743C26.902 25.9846 26.902 25.9948 26.902 26.005C28.4666 26.005 30.0311 25.9948 31.606 26.0152C31.923 26.0152 32.0048 25.913 32.0457 25.6266C32.1173 25.0131 32.1582 24.4097 32.1377 23.7962C32.0764 21.6794 30.8083 20.2273 28.7938 20.0227C27.1474 19.8591 25.6544 20.2886 24.3863 21.3828C23.0672 22.5077 22.3411 23.9802 21.8503 25.6062C21.7378 25.9846 21.9423 25.9846 22.2184 25.9846C23.7728 25.9743 25.3374 25.9743 26.902 25.9743Z" fill="#EC1D24"/>
<path d="M79.2801 30.4433C76.7133 30.4433 74.1363 30.4433 71.5696 30.4331C71.3344 30.4331 71.2628 30.5149 71.2321 30.7092C70.9458 32.376 70.7617 34.0429 71.2832 35.6995C71.8048 37.3561 73.1239 38.3174 74.8624 38.3788C77.1019 38.4606 78.963 37.6016 80.5992 36.1392C81.0594 35.7302 81.5094 35.3212 81.9286 34.8712C82.8081 33.9304 84.3624 33.869 85.3544 34.7178C86.3565 35.5768 86.5201 37.1312 85.6509 38.164C83.3705 40.8944 80.5276 42.7044 76.9996 43.3589C74.8726 43.7475 72.7353 43.9111 70.6185 43.3486C67.2644 42.459 65.4953 40.1172 64.851 36.8346C64.2579 33.8486 64.6772 30.9137 65.4544 28.0197C66.3031 24.8598 67.6734 21.9556 69.9129 19.5218C72.7865 16.4028 76.3554 14.8792 80.6095 15.0939C84.5976 15.2882 87.4303 17.9163 88.1461 21.9965C88.5654 24.3588 88.2484 26.6699 87.7064 28.9605C87.6246 29.2877 87.5325 29.615 87.4916 29.9524C87.4507 30.3717 87.2564 30.4944 86.8372 30.4842C84.3215 30.4637 81.7957 30.474 79.2801 30.474C79.2801 30.4842 79.2801 30.4637 79.2801 30.4433ZM77.3985 25.9745C77.3985 25.9847 77.3985 25.9949 77.3985 26.0052C78.963 26.0052 80.5379 25.9949 82.1025 26.0154C82.399 26.0154 82.5115 25.9438 82.5524 25.637C82.6444 24.9416 82.6854 24.2463 82.6342 23.5509C82.4911 21.5875 81.2844 20.2581 79.3619 20.0331C78.2575 19.9002 77.1837 20.0433 76.1815 20.5444C74.0341 21.6079 72.9705 23.4998 72.3365 25.6984C72.2343 26.0665 72.5206 25.9847 72.7047 25.9847C74.259 25.9847 75.8236 25.9745 77.3985 25.9745Z" fill="#EC1D24"/>
<path d="M130.492 34.0631C130.809 28.7149 132.169 23.7143 135.892 19.6647C139.297 15.9629 143.551 14.521 148.511 15.605C151.906 16.3413 153.767 18.6728 154.483 21.9758C155.066 24.6449 154.769 27.2832 154.166 29.9113C153.358 33.4598 151.957 36.7423 149.452 39.442C146.21 42.9291 142.222 44.4119 137.477 43.6859C133.887 43.1337 131.474 40.6896 130.769 37.0082C130.584 36.0367 130.513 35.055 130.492 34.0631ZM148.409 25.3811C148.388 24.9414 148.378 24.5017 148.337 24.062C148.163 22.1804 147.192 20.9839 145.576 20.6669C144.901 20.534 144.216 20.5442 143.541 20.6771C141.782 21.0044 140.504 22.0577 139.645 23.5609C137.661 27.0378 136.833 30.8214 136.914 34.7994C136.935 35.8834 137.242 36.9366 138.101 37.6934C139.195 38.6649 140.514 38.6955 141.854 38.4399C143.633 38.0922 144.85 36.9571 145.719 35.4436C147.519 32.3247 148.143 28.8989 148.409 25.3811Z" fill="#EC1D24"/>
<path d="M14.8658 15.6972C15.5816 15.6972 16.2974 15.7074 17.0132 15.687C17.2894 15.6767 17.3712 15.7688 17.3098 16.0347C17.0235 17.3129 16.7371 18.581 16.461 19.8592C16.3997 20.1558 16.1849 20.1046 15.9906 20.1046C14.6306 20.1046 13.2705 20.1251 11.9002 20.0944C11.4911 20.0842 11.3173 20.1865 11.2253 20.616C9.66068 27.5902 8.0654 34.5541 6.48035 41.5284C6.44968 41.6408 6.42922 41.7635 6.39855 41.876C6.12244 43.0214 6.12244 43.0214 4.91576 43.0214C3.43297 43.0214 1.95019 43.0009 0.467401 43.0316C-0.00299988 43.0418 -0.0541305 42.8884 0.0379045 42.4896C1.65363 35.1984 3.2489 27.8969 4.86463 20.6057C4.96689 20.166 4.86463 20.0842 4.44536 20.1046C3.82157 20.1353 3.18755 20.1251 2.55353 20.1149C1.31617 20.0944 0.354914 19.1127 0.354914 17.8958C0.354914 16.6789 1.31617 15.7074 2.56375 15.6972C3.50456 15.687 4.43513 15.687 5.37594 15.6972C5.67249 15.6972 5.83611 15.6461 5.88724 15.3086C5.95882 14.8075 6.12244 14.3167 6.21448 13.8156C6.76669 10.7375 8.66874 8.72299 11.3275 7.33223C13.158 6.36075 15.1214 5.96194 17.1871 6.00284C18.2813 6.02329 19.3653 6.08465 20.4492 6.1051C20.7356 6.1051 20.848 6.16646 20.7662 6.47324C20.4492 7.81286 20.1527 9.15248 19.8663 10.5023C19.805 10.7887 19.6618 10.8296 19.4062 10.8398C18.404 10.8602 17.4018 10.7887 16.3997 10.9011C14.5999 11.0852 13.4239 12.026 12.8103 13.7031C12.616 14.2349 12.5035 14.7768 12.3706 15.3291C12.2888 15.6358 12.3706 15.7176 12.6774 15.7074C13.4034 15.687 14.1295 15.6972 14.8658 15.6972Z" fill="#EC1D24"/>
<path d="M99.4768 20.4216C100.182 19.4296 100.847 18.6013 101.614 17.8548C103.301 16.2391 105.295 15.329 107.637 15.1858C108.056 15.1551 108.169 15.2472 108.067 15.6767C107.607 17.7014 107.177 19.7262 106.737 21.751C106.686 21.9759 106.656 22.16 106.318 22.1089C104.651 21.8941 103.209 22.4975 101.849 23.3769C101.113 23.8473 100.479 24.4404 99.8142 24.9926C98.8325 25.8107 98.5053 26.9049 98.2599 28.1014C97.4009 32.243 96.501 36.3743 95.6011 40.5057C95.2431 42.1725 93.9137 43.4405 92.298 43.7167C90.2323 44.0746 88.77 42.5816 89.2097 40.5363C90.0892 36.4561 90.9686 32.3657 91.8583 28.2855C92.4923 25.3812 93.1263 22.477 93.7501 19.5728C93.8831 18.9388 93.8831 18.9388 93.249 18.9388C92.7889 18.9388 92.3287 18.9592 91.8685 18.9183C91.03 18.8365 90.3857 18.1003 90.4062 17.2924C90.4164 16.4232 91.0607 15.6869 91.9299 15.6767C94.6193 15.6562 97.3088 15.6869 99.9983 15.6869C100.377 15.6869 100.448 15.7891 100.356 16.1573C100.06 17.4151 99.7938 18.6729 99.5279 19.941C99.5177 20.0432 99.5074 20.1557 99.4768 20.4216Z" fill="#EC1D24"/>
<path d="M163.799 24.7269C161.938 24.8701 160.527 23.3975 160.741 21.5159C160.977 19.4093 163.022 17.5788 165.149 17.5584C167.245 17.5482 168.534 19.348 167.91 21.4239C167.368 23.2748 165.722 24.5837 163.799 24.7269Z" fill="#EC1D24"/>
<path d="M177.134 26.0254C179.067 26.0254 180.324 27.5491 179.966 29.4614C179.568 31.5782 177.635 33.1837 175.528 33.1735C173.739 33.1633 172.501 31.7827 172.706 29.9932C172.931 27.8559 174.976 26.0152 177.134 26.0254Z" fill="#EC1D24"/>
<path d="M161.662 33.46C163.533 33.4702 164.74 34.8303 164.525 36.6915C164.269 38.9105 162.081 40.741 159.862 40.608C158.134 40.5058 157.009 39.0639 157.254 37.2846C157.551 35.2087 159.586 33.4498 161.662 33.46Z" fill="#EC1D24"/>
<path d="M49.0108 20.207C49.0005 20.2377 48.9903 20.2581 48.9801 20.2888C48.9596 20.2683 48.9494 20.2581 48.929 20.2377C48.9494 20.2172 48.9699 20.207 48.9903 20.1865C48.9903 20.1865 49.0108 20.207 49.0108 20.207Z" fill="#EC1D24"/>
</g>
<defs>
<clipPath id="clip0">
<rect width="180" height="60" fill="white"/>
</clipPath>
</defs>
</svg>
