<svg width="418" height="158" viewBox="0 0 418 158" fill="none" xmlns="http://www.w3.org/2000/svg">
<path d="M156.081 5.51458V148.71H137.72V5.51458H156.081ZM161.6 0H132.201V154.224H161.6V0Z" fill="#1DFDC0"/>
<path d="M404.938 48.0693L373.406 93.7483L371.235 96.8916L373.424 100.035L407.404 148.71H388.05L364.244 113.454L359.682 106.708L355.101 113.435L331.074 148.71H311.868L345.479 100.017L347.631 96.8916L345.479 93.7667L314.13 48.0509H333.576L355.082 80.0722L359.682 86.9286L364.262 80.0538L385.529 48.0693H404.938ZM415.443 42.5547H382.586L359.682 77.0024L336.538 42.5547H303.681L340.935 96.8916L301.363 154.243H333.999L359.682 116.56L385.143 154.243H418L377.968 96.8916L415.443 42.5547Z" fill="#1DFDC0"/>
<path d="M117.318 28.2162V0H8.09471V31.7272V37.5175L13.9082 43.3262L0 57.2045L13.8898 71.0829L0 84.9796L13.8898 98.858L0 112.755L8.09471 120.843V125.273V154.224H40.9519V89.9427H115.699V61.7449H40.9519V28.2162H117.318ZM40.9519 67.2595H110.18V84.4465H40.9519H35.4328V89.9611V148.71H13.6138V125.273V118.545L7.80036 112.736L21.6902 98.858L7.80036 84.9796L21.6902 71.1013L7.80036 57.2229L21.6902 43.3446L13.5954 35.2565V31.7456V5.51458H111.781V22.7017H40.9519H35.4328V28.2162V61.7449V67.2595H40.9519Z" fill="#1DFDC0"/>
<path d="M284.823 48.0693V100.494C284.823 135.291 269.922 151.504 237.929 151.504C205.937 151.504 191.035 135.291 191.035 100.494V48.0693H209.395V100.494C209.395 132.589 227.277 137.387 237.947 137.387C248.618 137.387 266.5 132.589 266.5 100.494V48.0693H284.823ZM290.342 42.5547H260.944V100.494C260.944 117.406 255.517 131.872 237.911 131.872C220.323 131.872 214.878 117.406 214.878 100.494V42.5547H185.479V100.494C185.479 138.177 202.478 157.019 237.892 157.019C273.307 157.019 290.306 138.177 290.306 100.494V42.5547H290.342Z" fill="#1DFDC0"/>
</svg>
