<svg width="180" height="60" viewBox="0 0 180 60" fill="none" xmlns="http://www.w3.org/2000/svg">
<path d="M6.28101 41.8308L10.6862 41.0502V6.59564L6.38387 6.12971V3.57617H20.0108V6.12971L15.763 6.57143V22.8306H35.7495V6.57143L31.4472 6.12971V3.57617H44.9955V6.12971L40.8021 6.57143V41.0502L45.2859 41.8308V44.0455H31.2778V41.8308L35.7616 41.0744V25.9045H15.769V41.0442L20.2528 41.8247V44.0394H6.28101V41.8308Z" fill="#6ABF4B"/>
<path d="M47.3494 52.8799C47.6459 52.9646 47.9847 53.0372 48.3781 53.0857C48.7653 53.1401 49.1223 53.1643 49.4309 53.1643C50.0542 53.1643 50.7319 53.0493 51.4641 52.8255C52.1963 52.6016 52.9345 52.1598 53.6788 51.5124C54.423 50.8589 55.1492 49.9331 55.8511 48.735C56.553 47.5369 57.1944 45.9757 57.7693 44.0454H56.6498L46.2057 18.1167L43.4949 17.6448V14.8855H55.5606V17.6508L51.809 18.1712L57.9326 35.6587L59.6814 40.9775L61.1941 35.6587L66.4827 18.0925L62.4164 17.6508V14.8855H73.6714V17.6508L70.7548 18.0683C69.593 21.4388 68.5703 24.4038 67.6929 26.9573C66.8155 29.5108 66.0531 31.7255 65.3996 33.6013C64.7461 35.4772 64.1894 37.0686 63.7295 38.3695C63.2696 39.6705 62.8824 40.7597 62.5677 41.625C62.2531 42.4963 62.005 43.1922 61.8113 43.7247C61.6177 44.2572 61.4543 44.6929 61.3152 45.0378C60.6374 46.7744 59.9537 48.3356 59.2699 49.7273C58.5861 51.1191 57.86 52.3232 57.0915 53.3337C56.3291 54.3503 55.5062 55.1854 54.6288 55.8328C53.7514 56.4863 52.7711 56.9402 51.7001 57.2004C51.0042 57.3758 50.2418 57.4605 49.4067 57.4605C49.2313 57.4605 49.0437 57.4484 48.8319 57.4363C48.6261 57.4182 48.4204 57.394 48.2207 57.3577C48.021 57.3214 47.8456 57.279 47.6882 57.2246C47.5309 57.1701 47.4159 57.1217 47.3494 57.0672V52.8799Z" fill="#6ABF4B"/>
<path d="M72.2251 41.8308L76.6545 41.2862V5.99662L72.4853 5.05871V2.78957L80.6421 1.69434L81.6829 2.29339V41.2802L86.324 41.8248V44.0394H72.2251V41.8308Z" fill="#6ABF4B"/>
<path d="M86.4631 35.6527C86.5841 34.4365 86.9714 33.3715 87.637 32.4578C88.2966 31.5441 89.1135 30.7574 90.0877 30.0979C91.0619 29.4383 92.145 28.8877 93.331 28.458C94.517 28.0224 95.7151 27.6775 96.9133 27.4173C98.1114 27.1571 99.2671 26.9755 100.38 26.8727C101.494 26.7698 102.456 26.7153 103.273 26.7153V24.4462C103.273 23.0726 103.091 21.9592 102.728 21.1C102.365 20.2407 101.857 19.5691 101.216 19.0789C100.574 18.5949 99.8177 18.262 98.9464 18.0866C98.075 17.9111 97.1371 17.8264 96.1327 17.8264C95.6304 17.8264 95.0677 17.8748 94.4384 17.9716C93.8151 18.0684 93.1677 18.2015 92.496 18.377C91.8243 18.5525 91.1527 18.7582 90.475 19.0003C89.7972 19.2423 89.1558 19.5146 88.5447 19.8111L87.5826 17.4633C88.224 16.9429 89.0106 16.4891 89.9425 16.0958C90.8743 15.7025 91.8304 15.3818 92.8107 15.1155C93.7909 14.8553 94.747 14.6617 95.6788 14.5407C96.6107 14.4196 97.4034 14.3591 98.0629 14.3591C99.4365 14.3591 100.744 14.5044 101.984 14.7888C103.224 15.0732 104.314 15.5814 105.252 16.3015C106.189 17.0216 106.934 17.9958 107.478 19.2181C108.029 20.4404 108.301 22.0016 108.301 23.8956L108.247 41.8248H111.581V43.5433C110.97 43.8761 110.219 44.1423 109.324 44.348C108.428 44.5538 107.527 44.6627 106.625 44.6627C106.311 44.6627 105.972 44.6385 105.609 44.5961C105.246 44.5538 104.907 44.4449 104.604 44.2694C104.302 44.0939 104.047 43.8277 103.848 43.4646C103.648 43.1015 103.545 42.5932 103.545 41.9518V41.2197C103.146 41.7037 102.674 42.1576 102.123 42.5751C101.573 42.9926 100.949 43.3557 100.247 43.6703C99.5454 43.985 98.7467 44.227 97.8512 44.4025C96.9556 44.578 95.9632 44.6627 94.868 44.6627C93.5126 44.6627 92.2842 44.4207 91.1829 43.9305C90.0756 43.4464 89.1558 42.7869 88.4176 41.9639C87.6794 41.141 87.1287 40.1849 86.7778 39.0957C86.4329 38.0187 86.3239 36.869 86.4631 35.6527ZM91.5157 35.7556C91.5157 36.7843 91.6549 37.6495 91.9332 38.3636C92.2116 39.0776 92.617 39.6524 93.1435 40.0942C93.6759 40.5359 94.3174 40.8566 95.0858 41.0563C95.8483 41.256 96.7075 41.3588 97.6636 41.3588C98.184 41.3588 98.7165 41.2862 99.255 41.1531C99.7935 41.0139 100.314 40.8384 100.804 40.6327C101.3 40.427 101.76 40.1849 102.184 39.9187C102.607 39.6524 102.952 39.3862 103.212 39.126C103.212 37.4922 103.218 35.8705 103.224 34.267C103.231 32.6574 103.249 31.0418 103.261 29.408C102.535 29.408 101.73 29.4504 100.865 29.523C99.9932 29.6017 99.1279 29.7348 98.2566 29.9284C97.3852 30.1221 96.5441 30.3702 95.7272 30.6848C94.9104 30.9995 94.1903 31.3928 93.567 31.8708C92.9438 32.3488 92.4415 32.9055 92.0664 33.553C91.7033 34.1823 91.5157 34.9205 91.5157 35.7556Z" fill="#6ABF4B"/>
<path d="M112.495 41.8308L116.041 41.3104V20.0713L112.337 18.0381V16.4225L119.272 14.3652L120.446 14.8855V18.613C121.033 18.1107 121.747 17.6085 122.582 17.1123C123.417 16.6161 124.3 16.1684 125.238 15.769C126.176 15.3696 127.138 15.0429 128.131 14.7887C129.123 14.5346 130.061 14.3954 130.944 14.3591C132.56 14.3046 133.915 14.5043 135.011 14.9461C136.106 15.3878 136.989 16.1079 137.667 17.1063C138.345 18.1047 138.829 19.3875 139.125 20.9487C139.422 22.5098 139.567 24.3857 139.567 26.5761V41.2983L143.76 41.8187V44.0334H130.624V41.8187L134.557 41.2741V27.4959C134.557 25.9166 134.478 24.5248 134.321 23.3267C134.163 22.1286 133.855 21.1363 133.395 20.3557C132.935 19.5751 132.294 19.0002 131.477 18.6372C130.66 18.2741 129.589 18.1168 128.27 18.1652C127.193 18.2197 126.055 18.4557 124.857 18.8792C123.659 19.3028 122.4 19.9684 121.081 20.87V41.2741L124.966 41.8187V44.0334H112.483V41.8308H112.495Z" fill="#6ABF4B"/>
<path d="M153.932 44.6688C152.474 44.6688 151.058 44.3783 149.684 43.7974C148.311 43.2165 147.101 42.321 146.048 41.1107C144.995 39.9005 144.148 38.3757 143.506 36.5241C142.865 34.6725 142.544 32.482 142.544 29.9405C142.544 27.6109 142.931 25.4688 143.718 23.5144C144.499 21.5599 145.57 19.8777 146.925 18.4738C148.281 17.064 149.872 15.9687 151.705 15.176C153.539 14.3833 155.505 13.99 157.611 13.99C158.531 13.99 159.427 14.0505 160.292 14.1716C161.163 14.2926 161.907 14.456 162.537 14.6677V5.99662L156.988 5.05871V2.78957L166.367 1.69434L167.541 2.29339V41.8248H171.063V43.7792C170.766 43.9366 170.397 44.0818 169.955 44.221C169.514 44.3601 169.042 44.4812 168.545 44.584C168.049 44.6869 167.547 44.7656 167.033 44.82C166.518 44.8745 166.04 44.8987 165.587 44.8987C165.272 44.8987 164.945 44.8745 164.606 44.8321C164.267 44.7898 163.959 44.6809 163.68 44.5054C163.402 44.3299 163.172 44.0636 162.991 43.6945C162.809 43.3315 162.718 42.8292 162.718 42.1818V41.5283C162.458 41.8248 162.077 42.1515 161.569 42.5206C161.066 42.8837 160.437 43.2226 159.693 43.5372C158.942 43.8519 158.089 44.1181 157.127 44.3299C156.159 44.5598 155.094 44.6688 153.932 44.6688ZM155.941 41.0986C156.498 41.0986 157.012 41.0684 157.49 41.0079C157.968 40.9474 158.416 40.8627 158.834 40.7598C159.687 40.548 160.413 40.2757 161.024 39.9247C161.629 39.5798 162.137 39.2047 162.537 38.8053V18.8732C162.343 18.6493 162.113 18.4133 161.835 18.1713C161.557 17.9293 161.193 17.6993 160.752 17.4936C160.31 17.2878 159.778 17.1184 159.16 16.9853C158.543 16.8522 157.817 16.7917 156.988 16.7917C156.328 16.7917 155.639 16.8764 154.931 17.0397C154.217 17.2031 153.515 17.4754 152.819 17.8627C152.123 18.2439 151.463 18.7401 150.84 19.3452C150.217 19.9563 149.66 20.6946 149.17 21.572C148.68 22.4494 148.293 23.472 147.996 24.6459C147.7 25.8198 147.542 27.1631 147.524 28.6698C147.488 30.8058 147.706 32.6575 148.178 34.2186C148.65 35.7798 149.273 37.0747 150.066 38.0913C150.858 39.1079 151.76 39.8642 152.789 40.3604C153.811 40.8506 154.864 41.0986 155.941 41.0986Z" fill="#6ABF4B"/>
<path d="M172.436 1.75488C174.167 1.75488 175.613 3.11636 175.613 4.90747C175.613 6.72883 174.161 8.09636 172.436 8.09636C170.7 8.09636 169.241 6.72883 169.241 4.90747C169.241 3.11636 170.7 1.75488 172.436 1.75488ZM172.436 7.62438C173.901 7.62438 175.038 6.45653 175.038 4.90142C175.038 3.38261 173.901 2.21476 172.436 2.21476C170.954 2.21476 169.816 3.38261 169.816 4.90142C169.816 6.45653 170.954 7.62438 172.436 7.62438ZM171.202 3.06796H172.636C173.519 3.06796 173.931 3.41287 173.931 4.12689C173.931 4.79855 173.507 5.0769 172.957 5.13741L174.015 6.77119H173.398L172.388 5.17977H171.777V6.77119H171.202V3.06796ZM171.777 4.70779H172.376C172.884 4.70779 173.35 4.68358 173.35 4.09663C173.35 3.6065 172.926 3.52783 172.539 3.52783H171.777V4.70779Z" fill="#6ABF4B"/>
</svg>
