<svg width="180" height="60" viewBox="0 0 180 60" fill="none" xmlns="http://www.w3.org/2000/svg">
<g clip-path="url(#clip0)">
<path fill-rule="evenodd" clip-rule="evenodd" d="M166.586 37.8074L166.461 36.7641C166.435 36.5898 165.844 32.478 168.644 29.5858C169.458 28.742 170.442 28.2586 171.34 28.2586C172.106 28.2586 172.737 28.592 173.056 29.2279C174.602 32.3052 166.586 37.8074 166.586 37.8074ZM154.4 31.3277L154.294 29.5916L154.278 29.3735C154.274 29.3191 153.886 23.8269 154.232 19.9177C154.612 15.6663 155.858 12.9198 157.405 12.9198C157.722 12.9198 158.025 13.082 158.262 13.3782C159.034 14.3391 159.26 16.9022 158.777 19.2115C157.999 22.8992 156.766 25.8235 155.863 27.9648C155.608 28.5703 155.382 29.106 155.204 29.5715L154.4 31.3277ZM145.947 42.9067C143.971 42.9067 143.039 41.0158 143.039 39.2382C143.039 30.0666 148.105 28.2586 150.321 28.9632C150.321 28.9632 150.394 30.7053 150.572 32.9473C150.727 34.8943 150.867 37.199 150.9 37.3979C150.9 37.3979 149.06 42.9067 145.947 42.9067ZM129.844 29.3197C129.844 29.3197 129.28 42.9067 124.151 42.9067C121.694 42.9067 121.503 40.1685 121.503 39.3283C121.503 29.6382 128.856 27.913 129.844 29.3197ZM82.387 43.2315C79.4444 43.2315 78.3967 40.3119 78.3967 37.5793C78.3967 32.6014 81.2976 28.7397 83.792 28.7397C86.2218 28.7397 87.1043 32.0777 87.1043 34.3206C87.1043 39.3175 85.0317 43.2315 82.387 43.2315ZM35.5609 31.6754C33.874 34.2988 30.0318 36.8943 28.9154 37.3078C28.9154 37.3078 28.1137 32.1693 32.3088 29.1686C35.3825 26.9701 36.7803 29.7793 35.5609 31.6754ZM163.865 43.7251C165.063 45.6138 167.197 46.5338 170.214 46.5338C173.531 46.5338 176.963 44.0391 178.927 41.7155C180.094 40.3373 180.22 39.5455 179.729 39.1129C179.283 38.7197 178.296 39.2342 177.393 40.0523C176.174 41.1552 173.593 42.7408 171.335 42.7408C168.596 42.7408 167.348 40.9594 167.348 40.9594C172.925 37.555 177.033 33.6905 177.033 30.3736C177.033 26.6565 174.278 24.9942 171.548 24.9942C166.665 24.9942 161.393 29.4602 161.393 36.6762C161.393 39.0611 162.195 41.0873 162.195 41.0873C162.195 41.0873 161.226 42.5951 158.147 42.3404C154.874 42.07 155.081 36.1483 155.081 36.1483C155.081 36.1483 156.082 34.2805 156.46 33.5849C158.676 29.5123 161.708 23.936 162.198 17.2493C162.471 13.5027 161.411 11.4907 160.473 10.462C159.639 9.54599 158.524 9 157.491 9C153.705 9 151.079 12.8877 150.442 16.728C149.819 20.4938 150.07 26.0956 150.07 26.0956C150.07 26.0956 146.669 25.2537 143.255 27.5719C140.131 29.6926 138.746 33.9369 138.31 36.079C138.111 37.0377 138.044 38.0438 138.108 39.0677C138.138 39.5452 138.285 40.465 138.285 40.465C138.285 40.465 137.162 42.8335 135.166 42.8335C131.951 42.8335 134.073 27.9158 134.197 27.0768C134.296 26.4012 134.708 24.9593 132.44 24.8582C131.07 24.7973 130.498 25.3095 130.393 25.978L130.301 26.6436C130.301 26.6436 125.652 23.4773 120.389 29.1798C117.585 32.2128 116.567 36.6018 116.521 40.1233L116.519 40.3451C116.519 40.3451 115.366 43.6825 112.682 43.1829C110.895 42.8504 110.67 39.6683 110.67 38.4384C110.67 36.079 111.213 33.4498 111.65 31.3371C111.926 29.9982 112.165 28.8438 112.165 28.2123C112.165 25.9562 111.534 24.9942 110.055 24.9942C108.042 24.9942 106.235 26.5906 104.234 29.0553C101.68 32.2007 99.7796 37.1152 99.7796 37.1152C99.7796 37.1152 99.8632 36.2367 99.9951 35.3897C100.081 34.842 100.313 32.3052 100.742 30.0016C100.979 28.7265 101.066 27.6826 101.081 27.5702C101.156 26.9458 101.015 26.4066 100.675 26.0109C100.339 25.622 99.8265 25.3982 99.2685 25.3982C98.3741 25.3982 97.2235 25.9966 96.677 27.6757C96.4273 28.4341 96.2842 28.9932 96.1062 29.8937L95.9388 30.7293L95.317 30.1616C92.8538 27.9067 89.4417 25.2194 84.5487 25.2194C77.6582 25.2194 73.9393 31.605 73.9393 37.6148C73.9393 38.3554 73.9853 39.0616 74.0744 39.7158L74.1092 39.9739C74.1092 39.9739 72.6709 43.4604 70.1462 42.8252C69.0408 42.547 68.3599 41.3669 68.3599 38.5569C68.3599 36.219 68.8292 33.042 69.1097 31.1357C69.2046 30.4887 69.2808 29.9779 69.3017 29.7398L69.3641 29.0347C69.5569 26.9126 69.6113 25.9539 68.9089 25.4918C68.3925 25.1564 67.8482 24.9942 67.2474 24.9942C66.6697 24.9942 66.2146 25.262 65.809 25.551C65.1853 25.9977 63.1448 28.7171 59.2907 35.014C59.2283 35.1158 59.1925 35.1702 59.1889 35.1751L58.7685 35.9855L57.7574 38.2143L58.3086 34.9759L58.3434 34.7639C58.4333 34.219 58.5927 33.259 58.6587 32.9533L58.8203 32.2505C59.0805 31.1225 59.6223 28.7763 59.694 28.3617C59.926 26.9873 59.8347 26.069 59.4143 25.5559C59.1034 25.1779 58.5836 24.9942 57.8245 24.9942C56.4264 24.9942 55.3011 26.0581 53.3613 29.2113C53.0587 29.7043 51.9254 31.5858 51.03 33.0752C49.87 35.0057 48.8175 36.4336 48.8175 36.4336L49.0622 33.8527C49.2495 32.6938 49.9508 27.371 49.9602 27.1212C49.9577 25.9989 49.4032 25.4763 48.2142 25.4763C47.7304 25.4763 46.5505 25.5831 46.0561 26.5712C45.6032 27.4743 44.3461 31.5649 43.7348 37.8206C43.7348 37.8206 38.8696 42.5347 33.6682 42.5347C31.7516 42.5347 30.2346 41.7839 29.6848 40.317C29.6848 40.317 32.4674 38.8616 33.7888 37.9408C37.1725 35.5828 39.6341 33.18 39.6341 30.0943C39.6341 26.3191 36.178 24.619 33.3229 24.9942C28.4197 25.6383 24.2754 30.8083 24.2754 36.8136C24.2754 42.4626 27.4028 46.5338 32.8456 46.5338C39.1496 46.5338 43.5011 41.3017 43.5011 41.3017L43.3701 43.6899C43.289 44.9347 43.7988 46.5338 45.8746 46.5338C46.4258 46.5338 47.4322 46.3572 47.9671 45.1748C51.1963 38.0747 54.5781 32.4437 54.6115 32.3882L54.7271 32.1962L55.3138 31.0633L56.1875 29.5964L55.4873 32.7447C55.3602 33.463 54.2465 39.8509 54.0871 42.6675C54.0049 44.0894 54.0038 45.4887 54.556 46.0882C54.8358 46.393 55.2851 46.5338 55.969 46.5338C57.4976 46.5338 58.446 46.0018 58.7881 44.9519C61.2766 37.3862 63.9583 32.2814 64.0714 32.0671L64.1765 31.8691L65.5837 29.1071C65.5837 29.1071 64.4736 35.408 64.4736 39.7049C64.4736 41.7587 64.8752 45.4976 67.7837 46.2078C72.2606 47.3015 75.0113 42.64 75.0113 42.64L75.3026 43.4567C76.5804 45.6144 78.704 46.7555 81.4444 46.7555C87.1228 46.7555 90.7923 42.3178 90.7923 35.4489C90.7923 31.1872 88.8397 28.7457 88.8397 28.7457C88.8397 28.7457 91.0069 29.5109 92.5984 30.6572C94.3225 31.8988 95.5471 33.214 95.5471 33.214L95.5043 33.4947C95.4533 33.8218 95.4072 34.1512 95.3609 34.4843C95.1818 35.802 95.0238 37.1836 94.8897 38.5923C94.7661 39.9052 94.7024 41.0925 94.7024 42.1201C94.7024 42.7445 94.736 43.3202 94.8075 43.882C94.8698 44.4056 94.9981 44.8832 95.1865 45.2979C95.2466 45.4246 95.8116 46.5338 97.2395 46.5338C98.1926 46.5338 98.8045 46.1872 99.2558 45.1322C103.668 34.8119 107.203 31.5045 107.514 31.1757C108.333 30.309 107.963 31.9223 107.963 31.9223L107.931 32.1346C107.925 32.169 107.38 35.6644 107.257 36.7275C107.134 37.7759 107.072 38.7772 107.072 39.7049C107.072 42.5797 107.711 45.8559 111.058 46.3735C115.633 47.0815 117.218 43.4885 117.218 43.4885C117.218 43.4885 118.873 46.5338 122.781 46.5338C128.512 46.5338 130.286 42.1367 130.286 42.1367C130.89 44.7822 131.964 46.2078 134.548 46.2078C137.345 46.2078 139.288 43.0541 139.288 43.0541C139.288 43.0541 140.906 46.5338 144.859 46.5338C149.436 46.5338 151.775 43.0263 151.871 42.8795L152.402 42.0465C152.402 42.0465 153.892 45.8304 157.735 46.0479C161.369 46.2533 163.865 43.7251 163.865 43.7251ZM6.85051 45.0769C2.80994 44.927 2.58705 41.783 6.29795 40.9712C9.68886 40.2294 12.517 41.4167 12.517 41.4167C12.517 41.4167 11.6613 45.2558 6.85051 45.0769ZM24.7935 13.2946C27.1281 13.4866 26.9526 16.7371 26.3173 18.7751C24.4555 24.7495 20.0023 24.9278 20.0023 24.9278C20.0023 24.9278 21.4111 13.0165 24.7935 13.2946ZM19.6078 27.7828C19.6078 27.7828 27.0933 27.8326 29.6429 18.9958C31.1264 13.8529 29.0255 9.46987 24.6448 9.37716C20.2213 9.28358 16.7945 13.2034 15.1887 24.9186C15.1887 24.9186 10.9131 24.354 9.02431 20.9794C8.13079 19.3826 6.78265 20.1258 7.20306 21.6433C8.62431 26.7746 14.9192 27.6008 14.9192 27.6008C14.9192 27.6008 14.6585 29.8723 14.2693 32.6529C13.8916 35.3505 13.2434 38.7446 13.2434 38.7446C13.2434 38.7446 9.27176 37.4878 5.04609 38.3711C-1.44773 39.729 -2.16221 47.7871 5.78375 48.5829C15.1018 49.5158 16.8613 43.0676 16.8613 43.0676C16.8613 43.0676 18.6919 43.9575 21.2897 46.2822C24.1686 48.8585 25.4842 50.4564 26.0812 49.8838C26.7355 49.256 25.2942 47.0637 22.6257 44.2683C19.6061 41.1048 17.5162 40.2884 17.5162 40.2884C17.5162 40.2884 18.0158 38.1957 18.5603 34.8002C19.1369 31.2061 19.6078 27.7828 19.6078 27.7828Z" fill="black"/>
</g>
<defs>
<clipPath id="clip0">
<rect width="180" height="41" fill="white" transform="translate(0 9)"/>
</clipPath>
</defs>
</svg>
