<svg width="235" height="57" viewBox="0 0 235 57" fill="none" xmlns="http://www.w3.org/2000/svg">
    <path fill-rule="evenodd" clip-rule="evenodd" d="M43.665 48.656H37.95V28.163C37.95 23.453 35.793 21.099 31.478 21.099C29.491 21.099 27.1 21.757 24.308 23.071C24.73 24.218 24.942 25.681 24.942 27.461V48.655H19.232V28.1C19.232 23.433 17.072 21.1 12.756 21.1C10.894 21.1 8.63 21.65 5.966 22.754C6.05 23.517 6.094 24.069 6.094 24.408V48.656H0.38V23.454C0.38 22.607 0.254 21.227 0 19.317C5.457 17.197 9.922 16.137 13.392 16.137C17.37 16.137 20.312 17.112 22.214 19.062C26.022 17.112 29.554 16.136 32.811 16.136C36.241 16.136 38.906 17.069 40.811 18.936C42.714 20.803 43.667 23.476 43.667 26.956V48.656H43.665ZM77.976 31.218C77.976 32.195 77.87 33.36 77.656 34.718H56.525C56.695 37.645 57.625 39.958 59.318 41.655C61.095 43.48 63.465 44.391 66.426 44.391C69.049 44.391 71.566 43.903 73.979 42.928L75.755 47.255C72.708 48.657 69.43 49.355 65.918 49.355C61.178 49.355 57.391 47.785 54.558 44.647C51.723 41.507 50.306 37.519 50.306 32.683C50.306 28.016 51.448 24.177 53.732 21.163C56.272 17.813 59.782 16.136 64.27 16.136C68.585 16.136 71.99 17.6 74.488 20.526C76.814 23.243 77.978 26.806 77.978 31.219L77.976 31.218ZM71.946 30.074C71.902 27.527 71.269 25.427 70.043 23.772C68.689 21.949 66.783 21.036 64.33 21.036C61.96 21.036 60.087 21.896 58.713 23.613C57.338 25.333 56.607 27.485 56.523 30.073H71.946V30.074ZM111.576 48.656H105.866V28.163C105.866 23.453 103.474 21.099 98.692 21.099C96.28 21.099 93.764 21.649 91.14 22.753C91.226 23.473 91.267 24.003 91.267 24.343V48.655H85.557V23.645C85.557 22.797 85.407 21.375 85.111 19.38C90.741 17.217 95.308 16.136 98.821 16.136C107.324 16.136 111.577 19.786 111.577 27.081V48.657L111.576 48.656ZM138.132 47.953C135.044 49.015 132.462 49.545 130.392 49.545C124.51 49.545 121.568 46.809 121.568 41.333V21.798L117.951 21.608V17.088L121.569 16.898V8.116H127.282V16.834H136.484V21.798H127.284V41.08C127.284 43.33 128.51 44.454 130.964 44.454C132.53 44.454 134.412 44.05 136.611 43.244L138.133 47.954L138.132 47.953ZM167.35 47C162.48 48.57 158.272 49.353 154.72 49.353C150.7 49.353 147.525 48.57 145.2 46.999C142.702 45.345 141.454 43.012 141.454 39.999C141.454 36.859 142.618 34.462 144.944 32.809C146.594 31.619 149.069 30.687 152.37 30.007C155.67 29.327 157.7 28.841 158.463 28.544C160.24 27.824 161.129 26.784 161.129 25.426C161.129 22.542 159.054 21.098 154.907 21.098C152.497 21.098 149.703 21.776 146.531 23.134L144.563 18.679C148.16 16.983 151.733 16.134 155.289 16.134C163.032 16.134 166.904 19.529 166.904 26.316V42.926C166.904 43.732 167.052 45.09 167.348 46.998L167.35 47ZM161.318 43.31C161.233 42.716 161.191 42.29 161.191 42.035V32.045C160.388 32.682 158.273 33.381 154.847 34.145C152.562 34.655 150.931 35.207 149.959 35.799C148.519 36.689 147.801 37.939 147.801 39.553C147.801 42.777 150.106 44.39 154.719 44.39C157.046 44.39 159.245 44.032 161.319 43.31H161.318Z" fill="#B2B2B2"/>
    <path fill-rule="evenodd" clip-rule="evenodd" d="M234.882 29.856C229.467 32.851 224.56 33.331 219.845 32.523C224.697 32.953 229.705 32.128 234.935 28.818C234.935 28.665 234.957 28.516 234.957 28.362C234.957 28.108 234.925 27.862 234.92 27.61C228.173 32.095 221.934 32.25 215.72 30.85C222.033 31.69 228.436 31.03 234.844 26.12C234.821 25.823 234.814 25.52 234.782 25.226C227.502 31.026 220.399 31.071 213.107 29.651C220.401 30.401 227.705 29.757 234.517 23.487C234.482 23.282 234.463 23.073 234.424 22.87C226.818 30.036 218.529 29.952 210.332 28.79C218.622 29.233 226.916 28.6 233.945 20.85C233.921 20.752 233.898 20.652 233.87 20.555C226.256 29.042 217.105 29.033 208.086 28.391L208.076 28.386C217.126 28.236 226.264 27.449 233.156 18.346C233.142 18.309 233.129 18.27 233.114 18.233C226.231 27.369 217.078 28.137 208.014 28.285C215.896 23.41 223.67 18.083 226.477 7.805C225.927 7.251 225.344 6.735 224.753 6.228C224.07 9.19 222.978 11.738 221.553 13.958C222.868 11.584 223.863 8.936 224.403 5.908C223.953 5.538 223.478 5.206 223.009 4.864C222.191 10.49 219.779 14.744 216.525 18.367C219.497 14.437 221.65 9.897 222.123 4.205C221.803 3.988 221.457 3.802 221.128 3.598C220.671 10.984 217.374 16.318 212.963 21.028C216.92 15.958 219.885 10.232 219.833 2.81C219.583 2.672 219.315 2.558 219.061 2.427C219.231 10.847 215.396 17.074 210.631 22.65C214.921 16.65 218.241 10.076 217.426 1.64C217.249 1.562 217.068 1.492 216.889 1.42C217.899 10.943 213.527 18.094 208.449 24.734C212.941 17.661 216.689 10.134 214.919 0.696C214.827 0.666 214.739 0.626 214.645 0.596C216.628 10.858 212.002 18.862 207.015 26.492V26.474C211.317 18.444 215.222 10.066 212.4 0.008L212.38 0C215.103 9.98 211.278 18.287 207.023 26.25C207.265 16.795 206.959 7.255 198.893 0.158C198.087 0.361 197.293 0.59 196.513 0.86C198.853 2.697 200.568 4.728 201.813 6.914C200.418 4.739 198.56 2.75 196.143 0.994C195.566 1.204 194.983 1.41 194.42 1.654C199.4 4.947 201.953 9.216 203.328 14.038C201.538 9.298 198.642 5.102 193.53 2.084C193.153 2.264 192.77 2.434 192.404 2.629C199.167 6.355 202.062 12.024 203.67 18.523C201.504 12.233 198.083 6.647 191.143 3.358C190.887 3.508 190.633 3.661 190.383 3.818C198.396 7.4 201.623 13.922 203.776 21.388C201.008 14.258 197.102 7.854 188.893 4.844C188.738 4.956 188.587 5.071 188.433 5.186C197.681 8.438 201.423 16.109 204.28 24.246C200.722 16.371 196.322 9.026 186.83 6.496C186.752 6.564 186.677 6.636 186.602 6.706C196.924 9.386 201.222 17.814 204.966 26.426V26.441C200.48 18.175 195.46 10.136 184.931 8.318L184.848 8.408C195.433 10.21 200.445 18.318 204.946 26.625C196.856 22.095 188.384 17.951 177.566 22.255C177.401 23.037 177.282 23.835 177.178 24.637C179.842 23.437 182.342 22.791 184.725 22.571C182.278 22.926 179.745 23.731 177.113 25.068C177.047 25.66 177.023 26.261 176.991 26.863C182.397 23.877 187.298 23.393 192.004 24.193C187.16 23.769 182.162 24.599 176.938 27.903C176.936 28.057 176.916 28.206 176.916 28.363C176.916 28.616 176.946 28.861 176.952 29.113C183.699 24.627 189.942 24.473 196.156 25.873C189.842 25.033 183.44 25.691 177.028 30.603C177.051 30.9 177.058 31.203 177.091 31.499C184.371 25.699 191.473 25.651 198.764 27.069C191.471 26.325 184.167 26.971 177.354 33.241C177.39 33.444 177.411 33.653 177.448 33.858C185.054 26.686 193.343 26.77 201.54 27.934C193.25 27.49 184.954 28.124 177.925 35.874C177.953 35.974 177.975 36.074 178.003 36.174C185.615 27.684 194.77 27.694 203.783 28.331L203.801 28.341C194.751 28.491 185.611 29.278 178.718 38.381L178.722 38.389C185.669 29.361 194.809 28.594 203.852 28.443C195.972 33.316 188.204 38.643 185.396 48.915C185.948 49.47 186.533 49.989 187.126 50.495C187.806 47.537 188.896 44.995 190.319 42.773C189.005 45.145 188.011 47.79 187.475 50.813C187.921 51.183 188.399 51.513 188.865 51.858C189.683 46.222 192.102 41.964 195.365 38.338C192.388 42.273 190.228 46.818 189.753 52.514C190.078 52.731 190.421 52.918 190.75 53.122C191.206 45.736 194.507 40.402 198.92 35.688C194.956 40.761 191.99 46.488 192.043 53.908C192.295 54.048 192.563 54.16 192.818 54.291C192.644 45.881 196.478 39.658 201.238 34.086C196.952 40.082 193.636 46.652 194.448 55.079C194.628 55.157 194.806 55.226 194.986 55.301C193.978 45.781 198.351 38.631 203.426 31.993C198.936 39.066 195.186 46.591 196.958 56.023C197.051 56.055 197.141 56.095 197.235 56.126C195.252 45.866 199.875 37.866 204.86 30.236C204.86 30.246 204.86 30.256 204.858 30.264C200.558 38.289 196.656 46.66 199.476 56.711C199.513 56.721 199.551 56.731 199.588 56.743C196.772 46.779 200.592 38.459 204.853 30.493C204.611 39.937 204.923 49.471 212.983 56.563C213.791 56.36 214.585 56.13 215.363 55.861C213.033 54.031 211.321 52.011 210.076 49.831C211.471 51.998 213.323 53.981 215.729 55.727C216.309 55.519 216.891 55.314 217.455 55.07C212.478 51.778 209.925 47.51 208.55 42.685C210.34 47.423 213.234 51.621 218.345 54.641C218.725 54.461 219.105 54.293 219.475 54.096C212.722 50.376 209.827 44.716 208.219 38.229C210.385 44.509 213.804 50.083 220.736 53.366C220.99 53.216 221.244 53.066 221.491 52.906C213.477 49.319 210.251 42.794 208.101 35.326C210.868 42.458 214.773 48.866 222.983 51.881C223.138 51.771 223.289 51.653 223.439 51.538C214.189 48.285 210.449 40.604 207.594 32.466C211.156 40.343 215.551 47.694 225.046 50.233C225.123 50.163 225.198 50.091 225.276 50.021C214.956 47.339 210.656 38.911 206.914 30.301C206.914 30.293 206.914 30.286 206.916 30.277C211.398 38.542 216.416 46.587 226.948 48.407L226.954 48.397C216.428 46.49 211.427 38.392 206.937 30.103C215.029 34.628 223.495 38.773 234.312 34.47C234.479 33.688 234.595 32.89 234.699 32.086C232.039 33.282 229.539 33.93 227.156 34.151C229.603 33.793 232.136 32.991 234.764 31.651C234.829 31.061 234.854 30.458 234.886 29.857L234.882 29.856Z" fill="#6EC829"/>
</svg>
