<svg id="Layer_1" data-name="Layer 1" xmlns="http://www.w3.org/2000/svg" xmlns:xlink="http://www.w3.org/1999/xlink" viewBox="0 0 141.5 45"><defs><style>.cls-1{fill:url(#New_Gradient_Swatch_2);}.cls-2{fill:#696c74;}</style><linearGradient id="New_Gradient_Swatch_2" x1="18.79" y1="19.8" x2="35.25" y2="25.79" gradientUnits="userSpaceOnUse"><stop offset="0" stop-color="#b52a72"/><stop offset="0.31" stop-color="#ce3c4b"/><stop offset="0.68" stop-color="#e55a26"/><stop offset="1" stop-color="#f5891f"/></linearGradient></defs><title>MB_LOGO_Lockups_2016</title><path class="cls-1" d="M35.12,25.29a4.44,4.44,0,0,1-.11.64,8.8,8.8,0,0,1-.61,1.6l0,0.09c0-.15.07-0.26,0.09-0.34a6.73,6.73,0,0,0,.36-1A9.22,9.22,0,0,0,35.12,25.29Zm-0.76-1.74c0,0.1,0,.19,0,0.28V23.76C34.37,23.69,34.37,23.61,34.37,23.54Zm-7.49-6.69a6.39,6.39,0,0,1,1,.08,6.73,6.73,0,0,1,2.54.93A6.63,6.63,0,0,0,28.67,17,4.92,4.92,0,0,0,26.87,16.85Zm-1.67.24a14.12,14.12,0,0,1,1.67-.24,6.42,6.42,0,0,0-1.53.18ZM29,17a4.87,4.87,0,0,0-1.48-.24,7,7,0,0,1,2.7.84A6.71,6.71,0,0,0,29,17Zm2,13.56c-0.19.11-.39,0.22-0.6,0.32A4.3,4.3,0,0,0,30.94,30.56Zm3.5-3.3c0.14-.72-0.32.65,0,0h0Zm-6.77-13a8.69,8.69,0,0,1,1.39,0A8.42,8.42,0,0,0,28,14.15a10,10,0,0,0-2,0A9.42,9.42,0,0,1,27.67,14.31ZM35,19.66c-0.06-.21-0.17-0.41-0.25-0.61a7.59,7.59,0,0,0-3-3.17L32,16.06a8.62,8.62,0,0,1,.83.69A9,9,0,0,0,32,16.1l0.16,0.14a7.56,7.56,0,0,1,1.15,1.17L33,17l0.28,0.36a10,10,0,0,1,1.65,2.49c0.32,0.74.4,0.91,0.44,0.79a2,2,0,0,0-.16-0.83,9.71,9.71,0,0,0-.48-1C34.81,19.09,34.91,19.37,35,19.66Zm-6.79-5.19h0a7.6,7.6,0,0,1,2.83.73,8,8,0,0,0-3.36-.84C27.89,14.4,28.05,14.44,28.21,14.46Zm-0.67-.14h0.11l-0.25,0Zm1.79,15.13A5.5,5.5,0,0,0,31.41,28a7,7,0,0,1-1.07.89s0,0-.08,0l0.08,0s0,0,0,0a5.54,5.54,0,0,1-.92.54Zm3.3-9.25A6.43,6.43,0,0,0,31,18.29c-0.19-.15-0.4-0.29-0.6-0.42a6.64,6.64,0,0,1,2,2.12,6.71,6.71,0,0,1,.85,4.67c0,0.18-.07.37-0.13,0.54a6,6,0,0,0,.18-0.66,9.52,9.52,0,0,0,0-2.46c0-.23-0.05-0.45-0.08-0.67A6.68,6.68,0,0,0,33,20.75a6.12,6.12,0,0,0-2.67-3.09L30.2,17.6A6.8,6.8,0,0,1,32.64,20.2Zm0.49,0c-0.07-.13-0.15-0.26-0.23-0.39,0,0.08.08,0.17,0.12,0.25s0.19,0.4.26,0.6C33.23,20.51,33.18,20.36,33.13,20.2Zm0.41,1.71a8.16,8.16,0,0,0-.23-1.14c-0.05-.14-0.11-0.28-0.18-0.42a7.59,7.59,0,0,1,.38,1.45Zm-2.92,6.32c-0.12.06-.25,0.14-0.37,0.19a5.77,5.77,0,0,0,2.51-2,7,7,0,0,1-1.64,2.06c-0.21.2-.44,0.36-0.58,0.49l-0.27.31a5.52,5.52,0,0,0,.89-0.67s0,0,0,0a6.85,6.85,0,0,0,1-1,5.83,5.83,0,0,1-2,1.79l-0.09.11a6.67,6.67,0,0,0,2.18-1.79l0.08-.12a8.16,8.16,0,0,0,.87-2.36A5.88,5.88,0,0,1,30.62,28.24Zm2.9-6.4c0,0.19.05,0.39,0.07,0.58,0-.16,0-0.31,0-0.47ZM29.3,29.56l-0.09,0C29.3,29.58,29.31,29.57,29.3,29.56ZM23.87,15.25c0.32-.11.61-0.2,0.9-0.29l-0.49.12Zm3.64,1.51a5.35,5.35,0,0,0-1.61.11A11.8,11.8,0,0,1,27.51,16.76Zm0.78-1.89h0Zm7.11,10.27a8.31,8.31,0,0,1-.75,2.1,9.55,9.55,0,0,0,.79-3.1,6.59,6.59,0,0,0-.23-2.85c-0.06-.19-0.12-0.37-0.18-0.54a8.82,8.82,0,0,1,.41,3.39A8.9,8.9,0,0,1,35,26v0a9,9,0,0,0,.29-1.44,7.52,7.52,0,0,0,.1-1c0,0.09,0,.18,0,0.27a6.68,6.68,0,0,1-.05.69c0,0.27-.1.54-0.18,0.8V25.2a1.13,1.13,0,0,0,0-.2,8.53,8.53,0,0,1-2,4,8.6,8.6,0,0,0,1.11-1.56,7.38,7.38,0,0,1-1.74,2.1,5.46,5.46,0,0,0,.69-0.82,9,9,0,0,0,1.95-3.86c0-.23-0.08-0.44-0.15-0.22a9,9,0,0,1-.9,2.66,6.85,6.85,0,0,1-.81,1.24c-0.06,0,.39-0.57.71-1.23a7.35,7.35,0,0,0,.53-1.3l-0.21.46L34.43,26a6.21,6.21,0,0,0,.26-1,13.59,13.59,0,0,0,.12-1.84,6.17,6.17,0,0,1,0,.67s0,0,0,.05a8.83,8.83,0,0,1-.9,3.35l0,0A7.8,7.8,0,0,1,29,31c-0.08,0-.17,0-0.13,0a7.85,7.85,0,0,0,4.51-3.42,8.51,8.51,0,0,0,.48-1,8,8,0,0,0,.44-1.35v0h0c0,0.07,0,.13-0.07.2l-0.05.19h0a8.07,8.07,0,0,1-.32.95A7.57,7.57,0,0,1,29,30.83s0.1,0,.14-0.06a6.51,6.51,0,0,0,2.58-1.52,7.69,7.69,0,0,1-1.34.92s0,0,0,0a6,6,0,0,1-1.13.54c0.12-.09.19-0.09,0.32-0.18l0.8-.5,0.08,0a6.86,6.86,0,0,1-1.63.55L29,30.4A6,6,0,0,0,30.09,30s0,0,0,0l-0.1,0c0.1,0,.1,0,0.1,0A7.47,7.47,0,0,0,31,29.59a7.44,7.44,0,0,0,2.24-2.38,7.7,7.7,0,0,0,1.13-3.38,8.56,8.56,0,0,1-.18,1.35,0,0,0,0,1,0,0,7.51,7.51,0,0,0,.18-1.45c0-.19,0-0.38,0-0.57a0.93,0.93,0,0,0-.12-0.3,7.44,7.44,0,0,1-1,4l0.09-.17s0.25-.58.41-1.2A6.9,6.9,0,0,0,34,24.24l-0.1.44s0-.08,0-0.12q-0.08.34-.2,0.69l0,0.21v0a7.68,7.68,0,0,1-1,1.94c-0.15.24-.3,0.47-0.47,0.69a4.51,4.51,0,0,0,.25-0.39,6.75,6.75,0,0,1-2.41,2A0.08,0.08,0,0,1,30,29.6a7.23,7.23,0,0,0,2.11-1.68L32,28.13l0.2-.28a6.46,6.46,0,0,0,1-1.65c0-.14.09-0.27,0.13-0.41a6.84,6.84,0,0,1-.88,1.65,8.94,8.94,0,0,0,1.44-4.33,6.27,6.27,0,0,0-.06-1.1c0-.13,0-0.26-0.05-0.39l-0.05-.19,0,0.24a7.34,7.34,0,0,0-1.31-2.88l-0.09-.13a7.23,7.23,0,0,1,.73,1.43l-0.2-.3,0-.06a7.7,7.7,0,0,0-.4-0.68,4.91,4.91,0,0,1,.28.55c0-.06-0.1-0.15-0.09-0.09a3.14,3.14,0,0,0-.91-1.05l0,0-0.11-.1a5.19,5.19,0,0,0-1.92-1.23,8,8,0,0,0-.77-0.31c0.18,0.06.43,0.18,0.6,0.24l0.17,0.07a7.33,7.33,0,0,1,1.74,1.1l0.19,0.14,0.1,0.11,0,0a5.47,5.47,0,0,1,.55.59h0l0,0.08c0.18,0.23.34,0.46,0.48,0.68a6.52,6.52,0,0,1,.27.92,6.23,6.23,0,0,0-2.45-3,7.31,7.31,0,0,0-2.52-1,5.15,5.15,0,0,0-2.65.18l0.43-.06a4.11,4.11,0,0,0-.55.17,6.38,6.38,0,0,0-3.9,2.85A6.46,6.46,0,0,0,21,21.25a6.54,6.54,0,0,1,1-1.92,5.19,5.19,0,0,0-.28.45,5.79,5.79,0,0,0-.32.7,5.76,5.76,0,0,1,2.35-2.6,4.69,4.69,0,0,0-.4.28,6,6,0,0,0-2.26,5,5.8,5.8,0,0,0,.27,1.14,6.79,6.79,0,0,0,1.49,2.52c-0.18-.18-0.35-0.36-0.51-0.56A6.34,6.34,0,0,1,21.16,24,6.91,6.91,0,0,0,23,27.11s-0.26-.14-0.3-0.17a6.66,6.66,0,0,1-1.28-1.56,6.52,6.52,0,0,0,.8,1.28c-0.15-.17-0.29-0.35-0.43-0.54A6,6,0,0,1,21,24.38l0-.12A6.42,6.42,0,0,0,22.37,27l-0.1-.1a5.78,5.78,0,0,1-1.59-3.51,6.2,6.2,0,0,1,.5-3,6.2,6.2,0,0,0-.47,1.23,6.05,6.05,0,0,0-.12.93,5.69,5.69,0,0,0,0,1h0a5.87,5.87,0,0,0,1.66,3.73,6.45,6.45,0,0,0,1.56,1.23,3.38,3.38,0,0,1,.34.26l0.25,0.14a0.14,0.14,0,0,0,.08-0.12h0.27C24.67,28.6,24,28.36,24,28.26a4.4,4.4,0,0,1,.95.41,1.71,1.71,0,0,0,.58.14s0-.08,0-0.11,0.21,0.09.33,0.1a0.22,0.22,0,0,0,0,0,5.27,5.27,0,0,1,1.09.35,1.42,1.42,0,0,1,.67.66l0,0a0.49,0.49,0,0,1,.11.39,1.77,1.77,0,0,1,0,.5,0.56,0.56,0,0,0-.05.16h0a0.42,0.42,0,0,1-.14.27l-0.14.12,0,0c0.06,0,0,.09-0.2.11a0.67,0.67,0,0,1-.22.06c-0.18,0-.75,0-0.93,0s-0.39-.08-0.58-0.08a3.92,3.92,0,0,1-.66-0.14,4.69,4.69,0,0,1-.72-0.26,1.35,1.35,0,0,1-.34-0.21h0l-2.34-1A8.51,8.51,0,0,1,18.25,23a9.26,9.26,0,0,1,2.14-6,8.7,8.7,0,0,0-1,1.83L19.36,19A8,8,0,0,1,22,15.72a7.55,7.55,0,0,0-2,2.19,8.08,8.08,0,0,0-.39.76,7.53,7.53,0,0,1,2.21-2.48l0,0L22.14,16a7.2,7.2,0,0,0-2.63,3.62l-0.05.17a8,8,0,0,1,2.43-3.44,7.58,7.58,0,0,0-1.83,2.31,8.16,8.16,0,0,0-.34.79,7.86,7.86,0,0,1,2-2.78,7.49,7.49,0,0,1,1.87-1.29l0.66-.19a8.61,8.61,0,0,1,2.42-.43,8.71,8.71,0,0,0-1.87.19l0.4-.11-0.31,0a8.2,8.2,0,0,1,2-.32c0.22,0,.44,0,0.66,0a7.78,7.78,0,0,0-5.12,1.22l-0.2.13-0.35.23a8.15,8.15,0,0,1,4.41-1.87,8.33,8.33,0,0,1,1,0l-0.2,0-0.17,0,0.56,0,0.65,0.11c-0.27,0-.53,0-0.79,0a6.3,6.3,0,0,1,2.11.36,8.27,8.27,0,0,0-2.59-.15h-0.2l-0.17,0,0.46,0,0.46,0A7.74,7.74,0,0,1,29,15a8.38,8.38,0,0,0-1.11-.22,8,8,0,0,1,2.8.81,7.65,7.65,0,0,0-2.35-.69H28.24l-0.58-.07,0.31,0H27.54a8.21,8.21,0,0,0-.87-0.05,9,9,0,0,0-2,.32,7.71,7.71,0,0,1,1.24-.2A10.89,10.89,0,0,1,27,14.83H26.93a5.52,5.52,0,0,1,1.15.11,8.68,8.68,0,0,0-1.39,0c0.09,0,.1-0.06,0-0.11a9.73,9.73,0,0,0-2.84.6l-0.16.07a8.76,8.76,0,0,1,2.59-.5l0.25,0a8,8,0,0,1,3.85.84,7.6,7.6,0,0,0-2.86-.73,8.31,8.31,0,0,0-.86,0,7.48,7.48,0,0,1,3.23.81,8.33,8.33,0,0,1,3.42,2.57l-0.08-.08a8,8,0,0,1,.66,1L34,19.67a6.56,6.56,0,0,1,.25.61c0-.13-0.09-0.26-0.13-0.39a10.75,10.75,0,0,1,.75,2.89H35l0-.11a9.76,9.76,0,0,0-.08-1.06l0,0.06,0-.1a4.47,4.47,0,0,0-.17-0.71l-0.09-.25,0,0.1a7.82,7.82,0,0,1,.24.85v0q-0.06-.24-0.15-0.5c0,0.11,0,.23.06,0.34,0-.13-0.08-0.26-0.12-0.38s-0.13-.48-0.21-0.71a8.64,8.64,0,0,0-.61-1.24h0a8.68,8.68,0,0,1,.44.79c-0.06-.16-0.13-0.31-0.2-0.46S33.82,19,33.69,18.8a8.5,8.5,0,0,0-1.12-1.67,7.18,7.18,0,0,1,1.74,2.27c0.08,0.2.19,0.4,0.25,0.61a9.2,9.2,0,0,0-1.27-2.56A9,9,0,0,1,34.38,19c-0.13-.22-0.27-0.44-0.4-0.64v0l0.19,0.32A8.75,8.75,0,0,1,35.39,25.14ZM18.54,23.63v0a0.84,0.84,0,0,1,0-.12A1.26,1.26,0,0,0,18.54,23.63Zm0.57-3.53a13.22,13.22,0,0,0-.49,1.6,5,5,0,0,0-.12,1.24,0.22,0.22,0,0,0,0,.13s0-.06,0-0.1l0,0.07a8.32,8.32,0,0,1,.23-1.72c0-.07,0-0.14,0-0.21A7.57,7.57,0,0,1,19.11,20.1Zm3.18,8a5.12,5.12,0,0,0,1.3.9h0.07A6.93,6.93,0,0,1,22.29,28.06ZM22,28.94a5.44,5.44,0,0,1,.48.27h0L22.25,29Zm-1-3v0h0Zm0-3.9a5.89,5.89,0,0,1,.11-0.63c0,0.15-.07.3-0.09,0.44Zm0-4.66a8.36,8.36,0,0,1,.85-0.72l0.13-.1a7.55,7.55,0,0,1,2.12-1.1A8.23,8.23,0,0,1,25,15.23a8.06,8.06,0,0,0-2.83,1.16l0.11-.08L22,16.46l-0.28.2-0.24.22a4.66,4.66,0,0,0-.44.48Zm3.32-.57a7.94,7.94,0,0,0-2.14,1.43,7.73,7.73,0,0,0-.58.7,5.82,5.82,0,0,0-.57.92l0.17-.21a7.38,7.38,0,0,0-.65,1.46,0.28,0.28,0,0,1,0,.18,5.75,5.75,0,0,0-.19,2.44c0,0.09.07,0.25,0.11,0.42s0.09,0.41.15,0.61v0c0-.17-0.08-0.33-0.12-0.5a5.66,5.66,0,0,1-.14-1.64,6.66,6.66,0,0,1,1.27-3.52,6.38,6.38,0,0,1,.5-0.64A8.53,8.53,0,0,1,24,17C24.1,17,24.27,16.88,24.35,16.82Zm-3.44,2h0v0Zm6.43-3.69a7,7,0,0,0-4.59,1.1,6.5,6.5,0,0,0-2.63,3.44l0,0.15a7.23,7.23,0,0,1,2.18-3.09,6.82,6.82,0,0,0-1.64,2.08,7.41,7.41,0,0,0-.3.71,7.25,7.25,0,0,1,6.45-4.39C26.94,15.16,27.14,15.14,27.33,15.17Zm4.71,3c0.24,0.24.48,0.48,0.7,0.74s0.36,0.46.52,0.7a9.8,9.8,0,0,0-.94-1.23,10.72,10.72,0,0,1,1,1.24l0-.07A8.27,8.27,0,0,0,30.2,16.7l0,0a8.22,8.22,0,0,1,2.1,1.67,11.17,11.17,0,0,0-1.09-1A3.81,3.81,0,0,0,30.61,17,9.66,9.66,0,0,1,32,18.18a9.65,9.65,0,0,0-1.82-1.34h0a9.15,9.15,0,0,1,2.37,2,6.38,6.38,0,0,1,.53.73l-0.06-.1A9.89,9.89,0,0,0,32,18.18Zm1.5,2.5c0-.12-0.07-0.23-0.11-0.35A7.29,7.29,0,0,0,33,19.45c0.05,0.09.1,0.18,0.15,0.28L33.27,20C33.37,20.26,33.46,20.47,33.55,20.67Zm0.57,4.81a0.9,0.9,0,0,1,0-.09,7.84,7.84,0,0,1-.6,1.64A7.33,7.33,0,0,0,34.12,25.49Zm0.07,0.1,0,0A3,3,0,0,1,34,26a3.11,3.11,0,0,0,.14-0.36A0.22,0.22,0,0,1,34.18,25.58Zm0.08-.22h0v0Zm-0.09-4.54a5.44,5.44,0,0,0-.25-0.59C34,20.44,34.1,20.64,34.17,20.83Zm0.32,3c0,0.06,0,.13,0,0.19,0,0.25,0,.5-0.08.74,0-.08,0-0.17.05-0.25S34.48,24,34.49,23.81ZM34.8,23a5.19,5.19,0,0,0-.06-0.55,8,8,0,0,0-.56-1.79,0.08,0.08,0,0,1,0-.06c0.07,0.2.14,0.41,0.21,0.62,0-.19-0.1-0.38-0.17-0.57a8.19,8.19,0,0,1,.59,3.06A6.9,6.9,0,0,0,34.8,23Zm0.4-1.35c0,0.23.07,0.45,0.09,0.68s0.06,0.57.07,0.85c0,0,0,0,0,.07,0-.29,0-0.58,0-0.87s0-.31-0.08-0.46Z"/><path class="cls-2" d="M79.57,17.44h4.52c1.75,0,3.55.8,3.55,2.91a2.58,2.58,0,0,1-2,2.54v0a2.76,2.76,0,0,1,2.51,2.8c0,2.52-2.2,3.31-4.39,3.31H79.57V17.44Zm2.06,4.72h1.88c1.37,0,2.06-.59,2.06-1.46s-0.69-1.49-2.24-1.49h-1.7v2.95Zm0,5.11h1.9c1.07,0,2.54-.18,2.54-1.7,0-1.21-.79-1.64-2.46-1.64h-2v3.34Z"/><path class="cls-2" d="M95,17.15a5.76,5.76,0,0,1,6.17,6.07A5.91,5.91,0,0,1,95,29.33a5.81,5.81,0,0,1-6.12-6A5.83,5.83,0,0,1,95,17.15Zm0,10.32a4,4,0,0,0,4-4.31,4,4,0,1,0-8,0A4,4,0,0,0,95.05,27.47Z"/><path class="cls-2" d="M102.52,17.44h4.57c3,0,5.9,1.87,5.9,5.8s-3.36,5.8-6.14,5.8h-4.32V17.44Zm3.6,9.73c2.59,0,4.7-1.12,4.7-3.93s-1.84-3.93-4.36-3.93h-1.88v7.86h1.54Z"/><path class="cls-2" d="M116.8,24.08l-4.36-6.63H115l2.85,4.62,2.88-4.62h2.46l-4.36,6.63v5H116.8v-5Z"/><path class="cls-2" d="M39,17.44h2L45,26.53h0l4-9.09h2V29H49.6V19.31h0L45.41,29H44.58l-4.16-9.73h0V29H39V17.44Z"/><path class="cls-2" d="M52.88,17.44h1.38V29H52.88V17.44Z"/><path class="cls-2" d="M56.16,17.44h1.74l6.72,9.63h0V17.44H66V29H64.28l-6.72-9.63h0V29H56.16V17.44Z"/><path class="cls-2" d="M68,17.44h4.45a5.56,5.56,0,0,1,5.68,5.8A5.56,5.56,0,0,1,72.48,29H68V17.44ZM69.4,27.76H72c2.65,0,4.67-1.34,4.67-4.52s-2-4.52-4.67-4.52H69.4v9Z"/><path class="cls-2" d="M120.85,27.54a1.68,1.68,0,0,1,.37-0.54,1.72,1.72,0,0,1,.54-0.36,1.7,1.7,0,0,1,2.22.89,1.63,1.63,0,0,1,.14.67,1.67,1.67,0,0,1-.14.68,1.72,1.72,0,0,1-.37.54,1.65,1.65,0,0,1-.54.36,1.77,1.77,0,0,1-1.32,0,1.67,1.67,0,0,1-.54-0.36,1.7,1.7,0,0,1-.37-0.54,1.67,1.67,0,0,1-.14-0.68A1.63,1.63,0,0,1,120.85,27.54Zm0.28,1.25a1.41,1.41,0,0,0,.29.46,1.36,1.36,0,0,0,.44.31,1.38,1.38,0,0,0,.56.11,1.35,1.35,0,0,0,.55-0.11,1.37,1.37,0,0,0,.44-0.31,1.42,1.42,0,0,0,.29-0.46,1.54,1.54,0,0,0,.11-0.58,1.5,1.5,0,0,0-.11-0.57,1.38,1.38,0,0,0-.74-0.76,1.35,1.35,0,0,0-.55-0.11,1.38,1.38,0,0,0-1.3.87,1.5,1.5,0,0,0-.11.57A1.54,1.54,0,0,0,121.13,28.78Zm1.4-1.56a0.81,0.81,0,0,1,.52.14,0.52,0.52,0,0,1,.17.43,0.48,0.48,0,0,1-.15.39,0.67,0.67,0,0,1-.37.15l0.57,0.88h-0.33l-0.54-.85h-0.33V29.2h-0.31v-2h0.77Zm-0.14.88h0.2l0.17,0a0.26,0.26,0,0,0,.12-0.1,0.33,0.33,0,0,0,0-.18,0.29,0.29,0,0,0,0-.16,0.26,0.26,0,0,0-.1-0.09l-0.14,0h-0.56V28.1h0.32Z"/></svg>