<svg width="220" height="36" viewBox="0 0 220 36" fill="none" xmlns="http://www.w3.org/2000/svg">
<g clip-path="url(#clip0)">
<path d="M35.0564 23.2524C35.0148 23.7095 34.9317 24.1459 34.8278 24.5823C34.5161 25.7252 34.0797 26.8474 33.5602 27.9071V28.0942C33.5602 27.7825 33.7057 27.5539 33.7473 27.3876C34.059 26.7227 34.3083 26.0162 34.4953 25.3096C34.7239 24.6447 34.9109 23.9381 35.0564 23.2524ZM33.4771 19.6366C33.4771 19.8444 33.4771 20.0314 33.4771 20.2185V20.073C33.4979 19.9275 33.4979 19.7613 33.4979 19.6158L33.4771 19.6366ZM17.9127 5.73467C18.5985 5.73467 19.305 5.79701 19.9908 5.90091C21.861 6.17106 23.6481 6.83602 25.2689 7.83347C24.1676 7.0646 22.9415 6.4412 21.6532 6.02559C20.4271 5.69311 19.1595 5.58921 17.9127 5.71389V5.73467ZM14.4424 6.2334C15.5854 6.00481 16.749 5.83857 17.9127 5.73467C16.8322 5.73467 15.7724 5.85935 14.7334 6.10872L14.4424 6.2334ZM22.3389 6.02559C21.3415 5.69311 20.3025 5.52687 19.2635 5.52687C21.2376 5.71389 23.1493 6.31652 24.8741 7.27241C24.0845 6.77368 23.2325 6.35808 22.3389 6.02559ZM26.495 34.2035C26.1001 34.4321 25.6845 34.6607 25.2481 34.8685C25.643 34.6815 26.017 34.4529 26.3703 34.2035H26.495ZM33.768 27.3461C34.059 25.8499 33.1031 28.6968 33.768 27.3461V27.3461ZM19.6998 0.331819C20.6557 0.248698 21.6324 0.248698 22.5883 0.331819C21.8194 0.207138 21.0505 0.124017 20.2609 0.103237C18.8894 -0.0422247 17.4764 -0.0422247 16.1049 0.103237C17.2686 0.103237 18.4322 0.227918 19.5752 0.43572L19.6998 0.331819ZM34.807 11.5531C34.6824 11.1167 34.4538 10.7011 34.2875 10.2855C32.8953 7.52177 30.7341 5.23595 28.0535 3.69821L28.573 4.07226C29.1756 4.50864 29.7575 4.98658 30.2977 5.50609C29.7575 5.02815 29.1756 4.57098 28.573 4.15538L28.9055 4.4463C29.7782 5.17361 30.5887 5.98403 31.2952 6.87758L30.651 6.02559L31.2328 6.77368C32.6251 8.31142 33.7888 10.057 34.6616 11.948C35.3266 13.4857 35.4928 13.839 35.5759 13.5896C35.5967 13.0077 35.472 12.4051 35.2434 11.8648C34.9525 11.1583 34.62 10.4518 34.246 9.78681C34.4122 10.3687 34.62 10.9505 34.807 11.5531ZM20.6973 0.768203C22.7337 0.892884 24.7286 1.41239 26.5781 2.28516C24.3962 1.20459 22.0272 0.601962 19.5959 0.539621C20.0323 0.622742 20.3648 0.705863 20.6973 0.768203ZM19.305 0.47728H19.5336H19.0141H19.305ZM23.0247 31.9177C24.6871 31.2528 26.1625 30.2137 27.3469 28.8838C26.6612 29.5696 25.9339 30.193 25.1235 30.7333C25.1235 30.7333 25.1235 30.7333 24.9572 30.7333H25.1235C24.5208 31.1696 23.8767 31.5437 23.2117 31.8554L23.0247 31.9177ZM29.8821 12.696C29.0301 11.1583 27.8665 9.80759 26.495 8.70624C26.1001 8.39454 25.6638 8.10362 25.2481 7.83347C26.9521 8.97638 28.3652 10.4726 29.4042 12.2389C31.1497 15.1481 31.7939 18.5976 31.1705 21.9432C31.1705 22.3173 31.025 22.7121 30.9004 23.0654C31.0458 22.6082 31.1705 22.151 31.2744 21.6939C31.503 19.9899 31.503 18.2859 31.2744 16.5819C31.2744 16.104 31.1705 15.6468 31.1082 15.1897C30.9835 14.7325 30.8172 14.2753 30.651 13.8182C29.5912 11.096 27.6379 8.83092 25.1027 7.39709L24.8325 7.27241C26.9729 8.58156 28.7184 10.4518 29.9029 12.6753L29.8821 12.696ZM30.9004 12.696C30.7549 12.4259 30.5887 12.1558 30.4224 11.8856C30.4224 12.0519 30.5887 12.2389 30.6718 12.4051C30.7549 12.5714 31.0666 13.2363 31.2121 13.6519C31.1289 13.3194 31.025 13.0077 30.9211 12.6753L30.9004 12.696ZM31.7524 16.2495C31.6485 15.4598 31.4822 14.6494 31.2744 13.8805C31.1705 13.5896 31.0458 13.2987 30.9004 13.0077C31.2536 13.9844 31.5238 15.0026 31.69 16.0209L31.7524 16.2495ZM25.6845 29.3825C25.4352 29.5072 25.165 29.6735 24.9157 29.7774C27.0145 28.9046 28.8223 27.4708 30.1315 25.6213C29.2795 27.2422 28.1158 28.6968 26.7235 29.902C26.2872 30.3177 25.8092 30.6501 25.5183 30.9203L24.9572 31.5645C25.6222 31.1696 26.2456 30.6917 26.8067 30.1722C27.5755 29.5488 28.2613 28.863 28.8847 28.0942C27.8041 29.6319 26.3911 30.9203 24.7286 31.8138L24.5416 32.0424C26.3079 31.1489 27.8457 29.8813 29.0717 28.3228L29.2379 28.0734C30.0899 26.5357 30.6926 24.894 31.0458 23.1693C30.0276 25.7876 28.1574 27.9903 25.7053 29.3825H25.6845ZM31.7108 16.0832C31.7108 16.478 31.8147 16.8936 31.8563 17.2885C31.8563 16.956 31.8563 16.6443 31.8563 16.3118L31.7108 16.0832ZM22.9623 32.1255H22.7753C22.9623 32.1671 22.9831 32.1463 22.9623 32.1255ZM11.6787 2.38906C12.3436 2.16048 12.9463 1.97346 13.5489 1.78643L12.5307 2.0358L11.6787 2.38906ZM19.2427 5.52687C18.1205 5.44375 16.9984 5.50609 15.8971 5.75545C16.9984 5.60999 18.1205 5.52687 19.2427 5.52687ZM35.6383 22.9407C35.3265 24.4576 34.7863 25.933 34.0797 27.3045C34.9941 25.2681 35.5344 23.0861 35.7214 20.8627C35.9915 18.8678 35.8253 16.8521 35.2434 14.9403C35.1187 14.5455 34.9941 14.1714 34.8694 13.8182C35.6175 16.0832 35.9084 18.4729 35.7214 20.8627C35.5551 22.1718 35.2434 23.481 34.807 24.7278C35.098 23.7511 35.285 22.7537 35.4097 21.7354C35.5344 21.0497 35.5967 20.3639 35.6175 19.6574C35.6175 19.8444 35.6175 20.0314 35.6175 20.2185C35.6175 20.6964 35.5759 21.1744 35.5136 21.6523C35.5136 22.2134 35.3058 22.7744 35.1395 23.3147V23.0654C35.1603 22.9199 35.1603 22.7952 35.1395 22.6498C34.5161 25.746 33.0823 28.6137 30.9835 30.9618C31.877 29.9644 32.6459 28.8838 33.2901 27.7201C32.3758 29.3825 31.1497 30.8579 29.6743 32.084C30.2146 31.5645 30.6926 31.0034 31.1082 30.38C33.0823 28.0734 34.4746 25.3304 35.1603 22.3588C35.1603 21.8809 34.9941 21.4445 34.8486 21.9017C34.5161 23.8342 33.8927 25.7044 32.9784 27.4292C32.5212 28.3435 31.9394 29.2163 31.2952 30.0059C31.1705 30.0059 32.1056 28.8215 32.7706 27.45C33.2277 26.5772 33.6018 25.6837 33.8719 24.7486L33.4356 25.7044L33.6226 24.7278C33.8512 24.042 34.0382 23.3563 34.1629 22.6498C34.3291 21.3822 34.4122 20.1146 34.4122 18.8262C34.433 19.2834 34.433 19.7613 34.4122 20.2185C34.4122 20.2185 34.4122 20.2185 34.4122 20.3224C34.246 22.7537 33.6226 25.1018 32.542 27.2837C30.3601 31.1904 26.682 34.0165 22.3389 35.1179C22.1727 35.1179 21.9857 35.1179 22.0688 35.1179C25.9755 33.9957 29.3003 31.4606 31.4407 28.011C31.8147 27.3461 32.1472 26.6396 32.4381 25.933C32.8329 25.0187 33.1238 24.0836 33.3524 23.1277C33.3524 23.2732 33.3524 23.3978 33.207 23.5433L33.1031 23.9381C32.916 24.6031 32.7082 25.2681 32.4381 25.9122C30.5679 30.2138 26.869 33.4762 22.3389 34.7646C22.3389 34.7646 22.5467 34.7646 22.6298 34.6399C24.6455 34.0165 26.4742 32.936 27.9911 31.4813C27.1391 32.2086 26.204 32.8528 25.2066 33.3931C24.4585 33.8503 23.6689 34.2243 22.8584 34.5153C23.1078 34.3282 23.2532 34.3282 23.5234 34.1412L25.1858 33.1022H25.3521C24.2715 33.6217 23.1286 34.0165 21.9649 34.2451L22.3389 33.8711C23.1286 33.6633 23.8767 33.3931 24.604 33.0399H24.3962C24.604 33.0399 24.604 33.0399 24.604 33.0399C25.2481 32.7905 25.8923 32.5204 26.495 32.1879C28.386 30.8995 29.986 29.2163 31.1497 27.2422C32.4797 25.1226 33.2693 22.7121 33.4979 20.2185C33.4563 21.1536 33.3316 22.1095 33.1238 23.0238C33.3524 22.0264 33.4771 21.0289 33.4979 20.0107C33.4979 19.6158 33.4979 19.221 33.4979 18.8262C33.4563 18.5976 33.3732 18.3898 33.2485 18.2028C33.3524 21.112 32.6251 24.0005 31.1705 26.5149L31.3575 26.1616C31.3575 26.1616 31.877 24.9564 32.2095 23.668C32.4589 22.816 32.6459 21.9432 32.729 21.0705L32.5212 21.9848C32.5212 21.9848 32.5212 21.8185 32.5212 21.7354C32.4173 22.2134 32.2719 22.6913 32.1056 23.1693V23.6056C31.6069 25.0395 30.9004 26.3902 30.0276 27.637C29.7159 28.1357 29.4042 28.6137 29.0509 29.0708C29.2379 28.8007 29.4042 28.5306 29.5704 28.2604C28.2405 30.0267 26.5365 31.4398 24.5624 32.4165C24.4793 32.4165 24.3962 32.3333 24.4169 32.2294V32.2086C26.0794 31.3359 27.5755 30.1514 28.8016 28.7176L28.573 29.154L28.9886 28.5721C29.8406 27.5331 30.5471 26.3902 31.0666 25.1434C31.0666 24.8525 31.2536 24.5823 31.3367 24.2914C30.8796 25.5174 30.277 26.6603 29.5081 27.7201C31.2744 25.0395 32.2926 21.9224 32.5004 18.7223C32.5212 17.9534 32.4797 17.1846 32.3758 16.4365C32.3758 16.1663 32.3758 15.8962 32.2719 15.626L32.168 15.2312V15.73C31.7108 13.5688 30.7757 11.5116 29.4458 9.74525L29.2587 9.47511C29.8821 10.4102 30.3809 11.4077 30.7757 12.4467L30.3601 11.8233V11.6986C30.1107 11.2206 29.8198 10.7427 29.5289 10.2855C29.7367 10.6596 29.9445 11.0336 30.1107 11.4284C30.1107 11.3038 29.9029 11.1167 29.9237 11.2414C29.4665 10.3894 28.8223 9.64135 28.0327 9.0595L27.8041 8.8517C26.682 7.70879 25.3105 6.83602 23.8143 6.29574C23.2948 6.04637 22.7545 5.83857 22.2142 5.65155C22.5883 5.77623 23.1078 6.02559 23.4611 6.15028L23.8143 6.29574C25.1235 6.87758 26.3287 7.64645 27.4301 8.58156L27.8249 8.87248L28.0327 9.10107C28.4483 9.47511 28.8223 9.89071 29.1756 10.3271V10.4933C29.5497 10.9713 29.8821 11.4492 30.1731 11.9064C30.4016 12.5298 30.5887 13.174 30.7341 13.8182C29.7367 11.2622 27.9496 9.0595 25.643 7.58411C24.0429 6.56588 22.2766 5.85935 20.4064 5.50609C18.5777 5.15283 16.6659 5.27751 14.8996 5.88013L15.7932 5.75545C15.3983 5.83857 15.0243 5.96325 14.6502 6.10872C11.2839 6.93992 8.37463 9.08028 6.54597 12.0311C6.17192 12.9454 5.881 13.8805 5.71476 14.8572C6.17192 13.4233 6.87845 12.0726 7.79278 10.8674C7.58498 11.1791 7.39796 11.4908 7.21093 11.8025C6.96157 12.2804 6.73299 12.7584 6.54597 13.2571C7.5642 10.9921 9.28895 9.10106 11.4293 7.85425C11.1384 8.04127 10.8682 8.2283 10.5981 8.4361C7.43952 10.9297 5.69398 14.8156 5.90178 18.8262C6.00568 19.6366 6.1927 20.4263 6.46285 21.1951C7.10703 23.1485 8.16682 24.9356 9.5591 26.4318C9.18505 26.0577 8.83179 25.6837 8.49931 25.2681C7.37718 23.8758 6.54597 22.2965 6.04724 20.5717C6.73299 23.0238 8.04214 25.2473 9.8708 27.0344C9.8708 27.0344 9.33051 26.7435 9.24739 26.6811C8.20838 25.746 7.29406 24.6447 6.58753 23.4394C7.04469 24.3953 7.58498 25.2888 8.24994 26.0993C7.93824 25.746 7.64732 25.372 7.3564 24.9771C6.62909 23.8758 6.06802 22.6498 5.71476 21.3614V21.112C6.1927 23.2108 7.16937 25.1642 8.56165 26.8058L8.35385 26.598C6.44207 24.6239 5.27838 22.0471 5.04979 19.3041C4.88355 17.1638 5.23681 15.0234 6.0888 13.0701C5.6732 13.8805 5.34072 14.7325 5.11213 15.626C4.98745 16.2702 4.90433 16.9144 4.86277 17.5586C4.80043 18.2444 4.80043 18.9509 4.86277 19.6366C5.04979 22.5459 6.27582 25.3096 8.31228 27.3876C9.24739 28.4059 10.3487 29.2579 11.554 29.9436C11.8034 30.1098 12.0319 30.2969 12.2605 30.4839L12.78 30.7748C12.8839 30.7333 12.9463 30.6294 12.9463 30.5255H13.5073C13.3411 30.1306 11.9488 29.6319 11.9488 29.4241C12.6346 29.6319 13.2995 29.9228 13.9229 30.2761C14.297 30.4423 14.7126 30.5462 15.1282 30.567C15.1282 30.567 15.1282 30.4008 15.1282 30.3384C15.1282 30.2761 15.5646 30.5255 15.8139 30.5462C16.5828 30.7125 17.3517 30.9411 18.079 31.2735C18.6816 31.5645 19.1803 32.0424 19.4713 32.645C19.6583 32.8736 19.7414 33.1645 19.6998 33.4555C19.7414 33.8087 19.7414 34.1412 19.6998 34.4945C19.6583 34.5984 19.6167 34.7023 19.5959 34.827C19.5752 35.0348 19.4713 35.2426 19.305 35.388L19.0141 35.6374C19.1388 35.6374 19.0141 35.8244 18.5985 35.866C18.453 35.9283 18.3076 35.9699 18.1413 35.9906C17.7673 35.9906 16.5828 35.9906 16.2088 35.9906C15.8347 35.9906 15.3983 35.8244 15.0035 35.8244C14.5463 35.7621 14.0892 35.6789 13.632 35.5335C13.1125 35.388 12.6138 35.2218 12.1358 34.9932C11.8865 34.8893 11.6371 34.7438 11.4293 34.5568L6.56675 32.4788C2.34837 29.0708 -0.0621371 23.9173 0.000203482 18.4937C-0.0413569 13.9429 1.53794 9.51667 4.44717 6.02559C3.59518 7.21007 2.90943 8.47766 2.36915 9.82837L2.30681 10.1816C3.49128 7.45943 5.38228 5.11127 7.79278 3.36573C6.13036 4.59176 4.71731 6.1295 3.63674 7.91659C3.34582 8.4361 3.07567 8.9556 2.82631 9.49589C3.94844 7.45943 5.52774 5.69311 7.41874 4.3424L8.0837 3.94757C5.50696 5.81779 3.59518 8.4361 2.61851 11.47L2.51461 11.8233C3.53284 9.03872 5.27838 6.56588 7.5642 4.67488C6.00568 6.00481 4.69653 7.64645 3.76142 9.47511C3.49128 10.0154 3.2627 10.5557 3.05489 11.1167C3.99 8.91404 5.42384 6.93992 7.21093 5.33985C8.35385 4.25928 9.663 3.34495 11.0968 2.6592L12.4683 2.26438C14.0892 1.72409 15.7932 1.43317 17.4971 1.37083C16.188 1.37083 14.8788 1.49551 13.6112 1.76565L14.4424 1.53707H13.7983C15.149 1.14225 16.5412 0.913665 17.9543 0.872104C18.4115 0.872104 18.8686 0.872104 19.3258 0.872104C15.5854 0.4565 11.8241 1.35005 8.68633 3.40729L8.27072 3.67743L7.54342 4.15538C10.1409 1.97346 13.3411 0.622742 16.7075 0.269478C17.3932 0.227918 18.0998 0.227918 18.7855 0.269478H18.3699H18.0166H19.1803L20.531 0.498061C19.97 0.498061 19.4297 0.498061 18.8894 0.498061C20.3856 0.498061 21.861 0.747423 23.274 1.24615C21.5077 0.851324 19.6998 0.747423 17.892 0.934445H17.4764H17.1231H18.079H19.0349C20.157 1.12147 21.2791 1.43317 22.3389 1.86955C21.5908 1.66175 20.8012 1.51629 20.0323 1.41239C22.0688 1.62019 24.0221 2.18126 25.8508 3.09559C24.313 2.36828 22.6714 1.86955 20.9674 1.66175H20.7596L19.5544 1.51629H20.1986H19.305C18.7024 1.45395 18.0998 1.41239 17.4971 1.41239C16.0841 1.47473 14.6918 1.70331 13.3411 2.07736C14.1931 1.86955 15.0451 1.72409 15.9178 1.66175C16.6659 1.57863 17.4348 1.53707 18.1829 1.51629H18.0374C18.8478 1.51629 19.6375 1.57863 20.4271 1.74487C19.4713 1.66175 18.4946 1.66175 17.5387 1.74487C17.7257 1.74487 17.7465 1.62019 17.5387 1.51629C15.523 1.64097 13.5281 2.05658 11.6371 2.7631L11.3046 2.90856C13.0294 2.28516 14.858 1.93189 16.6867 1.86955H17.2062C19.97 1.76565 22.7337 2.36828 25.2066 3.61509C23.3364 2.72154 21.3207 2.20204 19.2635 2.09814C18.6608 2.07736 18.079 2.07736 17.4764 2.09814C19.8037 2.1397 22.1103 2.72154 24.1884 3.78133C26.9729 4.90346 29.425 6.7529 31.2952 9.12184L31.1289 8.9556C31.6277 9.62057 32.1056 10.3063 32.5004 11.0336L32.729 11.5739C32.916 11.9895 33.1031 12.4051 33.2485 12.8415C33.2485 12.5714 33.0615 12.3012 32.9784 12.0311C33.768 13.9429 34.3083 15.9793 34.5369 18.0366H34.807V17.808C34.7863 17.0807 34.7447 16.3326 34.6408 15.6053V15.73V15.5221C34.5577 15.0234 34.4538 14.5247 34.2875 14.0468L34.1005 13.5272V13.7351C34.3083 14.3169 34.4746 14.8987 34.5992 15.5014C34.5161 15.1689 34.4122 14.8156 34.2875 14.4624C34.2875 14.6909 34.2875 14.9403 34.4122 15.1689C34.4122 14.8987 34.246 14.6286 34.1629 14.3792C34.0797 14.1299 33.8927 13.3818 33.7265 12.9038C33.3732 12.0103 32.9576 11.1583 32.4589 10.3271C32.7914 10.8674 33.1031 11.4077 33.3732 11.9687C33.2485 11.6363 33.1031 11.3245 32.9576 11.0128C32.8121 10.7011 32.355 10.1816 32.0848 9.76603C31.4406 8.51922 30.6718 7.35553 29.7575 6.29574C31.2744 7.60489 32.5004 9.20497 33.3732 11.0128C33.5395 11.4284 33.768 11.8441 33.8927 12.2804C33.2901 10.3894 32.3965 8.58156 31.2536 6.9607C32.1264 7.95815 32.8745 9.03872 33.5187 10.1816C33.2485 9.72447 32.9576 9.26731 32.6875 8.8517L33.0823 9.51667C35.6383 13.4857 36.5526 18.3067 35.6175 22.9407H35.6383V22.9407ZM0.602829 19.8029C0.602829 19.7197 0.602829 19.6366 0.602829 19.5535C0.602829 19.6366 0.602829 19.7197 0.602829 19.8029ZM1.7873 12.4675C1.3717 13.548 1.03921 14.6702 0.769071 15.7923C0.582049 16.6443 0.498928 17.4963 0.519709 18.369C0.498928 18.4522 0.498928 18.5561 0.519709 18.6392C0.519709 18.6392 0.519709 18.5145 0.519709 18.4314V18.5768C0.561269 17.3716 0.70673 16.1663 0.997653 15.0026C0.997653 14.8572 0.997653 14.7117 0.997653 14.5663C1.20546 13.839 1.4756 13.1532 1.7873 12.4675ZM8.39541 29.0916C9.18505 29.8605 10.0994 30.4839 11.0968 30.9618H11.2423C10.2241 30.4216 9.26817 29.7774 8.39541 29.0085V29.0916ZM7.79278 30.8372C8.12526 31.0034 8.45775 31.1904 8.79023 31.3982L8.31228 30.9618L7.79278 30.8372ZM5.71476 16.4988C5.7771 16.0624 5.83944 15.626 5.94334 15.1897C5.94334 15.5014 5.79788 15.8131 5.75632 16.104L5.71476 16.4988ZM5.71476 6.81524C6.27583 6.27496 6.85767 5.77623 7.48108 5.31907L7.75122 5.11127C9.08115 4.11382 10.5773 3.34495 12.1566 2.82544C12.78 2.63842 13.4034 2.47218 14.0268 2.3475C11.928 2.7631 9.93314 3.59431 8.14604 4.758L8.37463 4.59176L7.79278 4.90346L7.21093 5.31907L6.71221 5.77623C6.37973 6.08794 6.0888 6.42042 5.79788 6.77368L5.71476 6.81524ZM12.6138 5.63077C10.9722 6.37886 9.47598 7.37631 8.16682 8.60234C7.73044 9.0595 7.33562 9.55823 6.96157 10.057C6.50441 10.6596 6.10958 11.3038 5.7771 11.9687L6.13036 11.5323C5.5693 12.4882 5.11213 13.5065 4.77965 14.5663C4.82121 14.6909 4.82121 14.8156 4.77965 14.9403C4.28093 16.5819 4.15624 18.3067 4.38483 20.0107C4.38483 20.1977 4.53029 20.5302 4.61341 20.8834C4.69653 21.2367 4.80043 21.7354 4.92511 22.151C4.92511 21.7978 4.75887 21.4653 4.67575 21.112C4.40561 19.9899 4.32249 18.847 4.38483 17.7041C4.55107 15.065 5.4654 12.5298 7.02391 10.3894C7.33562 9.93227 7.68888 9.47511 8.06292 9.0595C9.20583 7.87503 10.515 6.8568 11.9488 6.02559C12.1566 6.02559 12.5099 5.77623 12.6761 5.65155L12.6138 5.63077ZM18.8271 2.11892C15.4815 1.74487 12.1151 2.5553 9.28895 4.40474C6.71221 6.08794 4.77965 8.62312 3.82376 11.5531V11.8648C4.73809 9.35043 6.29661 7.14773 8.35385 5.44375C6.94079 6.649 5.79788 8.12439 4.94589 9.76603C4.71731 10.244 4.50951 10.7427 4.32249 11.2414C6.62909 5.85935 11.8657 2.28516 17.7257 2.11892C18.0582 2.20204 18.4738 2.16048 18.8686 2.22282L18.8271 2.11892ZM28.6145 8.35298C29.1133 8.8517 29.612 9.35043 30.0692 9.89071C30.5263 10.431 30.8172 10.8466 31.1497 11.3453C30.5679 10.4518 29.9237 9.57901 29.1964 8.78936C29.9445 9.59979 30.651 10.4518 31.2744 11.3661V11.2206C29.6536 8.76858 27.4509 6.7529 24.8325 5.40219C26.4742 6.31652 27.9496 7.48021 29.1964 8.87248C28.4899 8.1244 27.7418 7.43865 26.9313 6.79446C26.5365 6.50354 26.1209 6.2334 25.6845 6.02559C26.7235 6.7529 27.6794 7.56333 28.573 8.47766C27.4301 7.39709 26.1625 6.46198 24.791 5.69311C26.6612 6.79446 28.3236 8.18674 29.7159 9.84915C30.1107 10.3271 30.4848 10.8258 30.8172 11.3661L30.6926 11.1583C30.0692 10.2024 29.3626 9.30887 28.573 8.47766L28.6145 8.35298ZM31.7316 13.548C31.7316 13.2987 31.5861 13.0701 31.503 12.8207C31.2536 12.2389 30.9627 11.657 30.651 11.1167C30.7549 11.3038 30.8588 11.4908 30.9627 11.6986L31.2121 12.2597C31.4199 12.7999 31.6069 13.2363 31.7939 13.6519L31.7316 13.548ZM32.916 23.5433C32.916 23.481 32.916 23.4186 32.916 23.3563C32.6251 24.5408 32.2095 25.6837 31.6692 26.7642C32.2095 25.7876 32.6667 24.7486 32.9784 23.668L32.916 23.5433ZM33.0615 23.7511C32.9784 24.0836 32.8745 24.4161 32.729 24.7278C32.8329 24.4784 32.9368 24.2291 33.0199 23.9797C33.0407 23.9381 33.0615 23.8966 33.1031 23.855L33.0615 23.7511ZM33.0407 13.8597C32.8953 13.4441 32.7082 13.0285 32.5212 12.6337C32.729 13.174 32.9368 13.5896 33.0823 13.9844L33.0407 13.8597ZM33.7057 20.0938C33.7057 20.2185 33.7057 20.3639 33.7057 20.4886C33.7057 21.0081 33.7057 21.5276 33.5395 22.0264C33.5395 21.8601 33.5395 21.6731 33.6434 21.5068C33.7473 21.3406 33.7265 20.5717 33.7473 20.1769L33.7057 20.0938ZM34.3914 18.4937C34.3707 18.1197 34.3291 17.7248 34.2668 17.3508C34.0174 16.0624 33.6434 14.8156 33.1031 13.6311C33.0823 13.5896 33.0823 13.548 33.1031 13.5065C33.2485 13.9221 33.394 14.3585 33.5395 14.7948C33.5395 14.4 33.3316 14.0052 33.1862 13.6104C33.9966 15.626 34.4122 17.7872 34.4122 19.9691C34.433 19.4704 34.433 18.9924 34.3914 18.4937ZM35.2227 15.6884C35.2227 16.1663 35.3681 16.6235 35.4097 17.1014C35.4512 17.5794 35.5344 18.2859 35.5551 18.8678C35.5551 18.8678 35.5551 18.8678 35.5551 19.0132C35.5551 18.4106 35.5551 17.808 35.5551 17.2053C35.5551 16.6027 35.5551 16.5612 35.3889 16.2495L35.2227 15.6884Z" fill="url(#paint0_linear)"/>
<path d="M127.424 6.94043H136.817C140.453 6.94043 144.194 8.60285 144.194 12.9875C144.215 15.5019 142.49 17.7046 140.038 18.2656C143.03 18.5358 145.316 21.071 145.254 24.0841C145.254 29.3207 140.682 30.9623 136.131 30.9623H127.424V6.94043V6.94043ZM131.705 16.7487H135.612C138.459 16.7487 139.892 15.5227 139.892 13.7148C139.892 11.9069 138.459 10.6185 135.238 10.6185H131.705C131.705 10.6185 131.705 16.7487 131.705 16.7487ZM131.705 27.3674H135.653C137.877 27.3674 140.931 26.9933 140.931 23.8347C140.931 21.3203 139.29 20.4268 135.82 20.4268H131.663V27.3674H131.705Z" fill="#696C74"/>
<path d="M159.488 6.33758C166.075 5.85964 171.811 10.8053 172.289 17.4134C172.33 17.9329 172.33 18.4524 172.309 18.9512C172.538 25.7255 167.239 31.4193 160.465 31.6479C160.132 31.6686 159.821 31.6479 159.488 31.6479C152.838 32.0011 147.145 26.91 146.791 20.2395C146.771 19.8863 146.771 19.533 146.771 19.1797C146.355 12.5093 151.446 6.75319 158.117 6.33758C158.574 6.3168 159.031 6.3168 159.488 6.33758ZM159.488 27.7828C164.08 27.8035 167.821 24.0839 167.821 19.4915C167.821 19.2629 167.821 19.0551 167.8 18.8265C167.8 14.2341 164.08 10.5144 159.488 10.5144C154.896 10.5144 151.176 14.2341 151.176 18.8265C150.823 23.3981 154.231 27.4087 158.823 27.762C159.072 27.7828 159.343 27.7828 159.592 27.7828H159.488Z" fill="#696C74"/>
<path d="M175.115 6.94043H184.611C190.845 6.94043 196.872 10.8263 196.872 18.9929C196.872 27.1596 189.889 31.0455 184.113 31.0455H175.136V6.94043H175.115ZM182.596 27.1596C187.978 27.1596 192.362 24.8322 192.362 18.9929C192.362 13.1537 188.539 10.8263 183.302 10.8263H179.395V27.1596H182.596Z" fill="#696C74"/>
<path d="M204.789 20.7382L195.729 6.96094H201.048L206.971 16.5614L212.956 6.96094H218.067L209.007 20.7382V31.1283H204.789C204.789 31.1283 204.789 20.7382 204.789 20.7382Z" fill="#696C74"/>
<path d="M43.1189 6.94043H47.2749L55.587 25.8296L63.8991 6.94043H68.0551V30.9623H65.1459V10.8263L56.439 30.9623H54.7142L46.0697 10.7432V30.9623H43.1189V6.94043Z" fill="#696C74"/>
<path d="M71.9617 6.94043H74.8293V30.9623H71.9617V6.94043Z" fill="#696C74"/>
<path d="M78.7776 6.94043H82.3933L96.3576 26.9518V6.94043H99.2253V30.9623H95.6511L81.6868 10.951V30.9623H78.7776V6.94043V6.94043Z" fill="#696C74"/>
<path d="M103.382 6.94057H112.629C119.008 6.7951 124.286 11.8447 124.432 18.2242C124.432 18.4736 124.432 18.7229 124.432 18.9931C124.661 25.3726 119.673 30.7339 113.294 30.9625C113.086 30.9625 112.878 30.9625 112.691 30.9625H103.382V6.94057ZM106.291 28.3857H111.694C117.2 28.3857 121.398 25.6012 121.398 18.9931C121.398 12.385 117.242 9.60043 111.694 9.60043H106.291V28.3026V28.3857Z" fill="#696C74"/>
<path d="M213.205 27.9284C213.392 27.5128 213.641 27.118 213.974 26.8063C214.306 26.4946 214.68 26.2245 215.096 26.0582C216.883 25.3101 218.94 26.1206 219.709 27.9077C219.896 28.344 220 28.822 220 29.2999C220 29.7779 219.896 30.2766 219.709 30.713C219.522 31.1286 219.273 31.5234 218.94 31.8351C218.628 32.1468 218.234 32.417 217.818 32.5832C216.945 32.9365 215.948 32.9365 215.075 32.5832C214.659 32.417 214.265 32.1468 213.953 31.8351C213.62 31.5234 213.371 31.1286 213.184 30.713C212.997 30.2766 212.893 29.7779 212.893 29.2999C212.893 28.822 213.018 28.3648 213.205 27.9284ZM213.787 30.526C213.932 30.8792 214.119 31.2117 214.389 31.4819C214.639 31.752 214.95 31.9806 215.304 32.126C215.678 32.2923 216.072 32.3546 216.467 32.3546C216.862 32.3546 217.257 32.2715 217.61 32.126C217.963 31.9806 218.275 31.752 218.525 31.4819C218.795 31.2117 218.982 30.8792 219.127 30.526C219.273 30.1519 219.356 29.7363 219.356 29.3207C219.356 28.9051 219.273 28.5103 219.127 28.1362C218.836 27.4297 218.296 26.8479 217.589 26.5569C217.236 26.4115 216.841 26.3284 216.446 26.3284C215.262 26.3076 214.181 27.0349 213.745 28.1362C213.6 28.5103 213.516 28.9051 213.516 29.3207C213.537 29.7363 213.62 30.1311 213.787 30.5052V30.526V30.526ZM216.696 27.2843C217.07 27.2635 217.465 27.3674 217.776 27.5752C218.026 27.8038 218.15 28.1362 218.13 28.4687C218.15 28.7804 218.047 29.0714 217.818 29.2792C217.589 29.4662 217.34 29.5701 217.049 29.5909L218.234 31.4195H217.548L216.426 29.6532H215.74V31.378H215.096V27.2219H216.696V27.2843ZM216.405 29.1129H216.821H217.174C217.278 29.0714 217.361 28.9882 217.423 28.9051C217.465 28.7804 217.465 28.6557 217.423 28.5311C217.465 28.4272 217.465 28.3025 217.423 28.1986C217.382 28.1155 217.298 28.0531 217.215 28.0116H216.924H215.761V29.0921H216.426L216.405 29.1129Z" fill="#696C74"/>
</g>
<defs>
<linearGradient id="paint0_linear" x1="1.15039" y1="11.779" x2="35.3534" y2="24.2259" gradientUnits="userSpaceOnUse">
<stop stop-color="#B52A72"/>
<stop offset="0.31" stop-color="#CE3C4B"/>
<stop offset="0.68" stop-color="#E55A26"/>
<stop offset="1" stop-color="#F5891F"/>
</linearGradient>
<clipPath id="clip0">
<rect width="220" height="35.9913" fill="white"/>
</clipPath>
</defs>
</svg>
