
<svg width="118" height="26" viewBox="0 0 118 26" fill="none" xmlns="http://www.w3.org/2000/svg">
<path d="M19.4404 12.155V24.482H13.3621V13.039C13.413 12.5615 13.3584 12.0788 13.2021 11.6243C13.0458 11.1698 12.7915 10.7546 12.4569 10.4075C12.1223 10.0604 11.7155 9.78977 11.2648 9.61442C10.814 9.43907 10.3302 9.36323 9.84684 9.39216C7.61813 9.39216 6.0783 10.6781 6.0783 13.5213V24.482H0V4.38899H6.0783V6.29783C6.78119 5.46873 7.67125 4.8156 8.67628 4.39144C9.68131 3.96727 10.773 3.78401 11.8628 3.85652C15.9657 3.85652 19.4404 6.73988 19.4404 12.155Z" fill="#161616"/>
<path d="M32.2658 19.6597C32.9823 19.6803 33.6957 19.5565 34.3626 19.2957C35.0295 19.035 35.6361 18.6427 36.1457 18.1427L40.0662 22.0207C39.0347 23.0371 37.8015 23.8299 36.4447 24.3487C35.088 24.8676 33.6373 25.1011 32.1847 25.0346C25.2656 25.0346 20.9804 20.4233 20.9804 14.4456C20.9363 13.0363 21.185 11.6331 21.7111 10.3233C22.2372 9.01339 23.0294 7.8249 24.0386 6.83169C25.0477 5.83849 26.252 5.06181 27.5768 4.54998C28.9015 4.03815 30.3183 3.80211 31.739 3.85654C37.6451 3.85654 42.0214 8.38752 42.0214 14.4456C42.0249 15.2555 41.9434 16.0636 41.7783 16.8567H27.4133C28.1832 18.9364 30.0371 19.6597 32.2658 19.6597ZM35.9431 12.3559C35.6507 11.4402 35.0718 10.6407 34.2904 10.0733C33.509 9.50582 32.5657 9.19992 31.5972 9.19992C30.6286 9.19992 29.6853 9.50582 28.9039 10.0733C28.1225 10.6407 27.5436 11.4402 27.2512 12.3559H35.9431Z" fill="#161616"/>
<path d="M107.738 0.280029H113.816V4.4192H118V10.6179H113.836V16.5454C113.836 18.2734 115.336 18.4241 118 18.2734V24.4821C110.078 25.2858 107.768 22.9149 107.768 17.2988L107.738 0.280029Z" fill="#161616"/>
<path d="M58.838 25.0447L54.3704 20.6644L60.5703 14.5059L54.3704 8.35739L58.838 3.93691L69.4953 14.5059L58.838 25.0447ZM57.0955 14.4657L46.4383 3.89673L42.0214 8.3172L48.2212 14.4657L42.0214 20.6644L46.4889 25.0849L57.0955 14.4657ZM71.2782 3.89673L66.8107 8.3172L71.2782 12.7477L75.7356 8.3172L71.2782 3.89673ZM71.2782 16.1937L66.7702 20.6644L71.2377 25.0849L75.6951 20.6644L71.2782 16.1937Z" fill="#161616"/>
<path d="M84.7618 14.4455C84.7557 12.342 85.3792 10.284 86.5533 8.53203C87.7273 6.78011 89.3992 5.41304 91.3571 4.60392C93.315 3.79479 95.471 3.57999 97.5521 3.98671C99.6332 4.39343 101.546 5.40339 103.048 6.8887C104.55 8.37402 105.574 10.2679 105.99 12.3306C106.406 14.3933 106.195 16.532 105.385 18.476C104.575 20.42 103.201 22.0818 101.438 23.2511C99.6744 24.4204 97.6009 25.0446 95.4798 25.0446C94.0704 25.0607 92.6718 24.7977 91.3661 24.2712C90.0604 23.7446 88.8738 22.9649 87.8756 21.9779C86.8775 20.9909 86.088 19.8163 85.5533 18.5229C85.0186 17.2295 84.7495 15.8433 84.7618 14.4455V14.4455ZM100.13 14.4455C100.13 13.2225 99.6398 12.0496 98.7678 11.1848C97.8958 10.32 96.713 9.83415 95.4798 9.83415C94.2466 9.83415 93.0639 10.32 92.1918 11.1848C91.3198 12.0496 90.8299 13.2225 90.8299 14.4455C90.8299 15.6685 91.3198 16.8414 92.1918 17.7062C93.0639 18.571 94.2466 19.0569 95.4798 19.0569C96.713 19.0569 97.8958 18.571 98.7678 17.7062C99.6398 16.8414 100.13 15.6685 100.13 14.4455V14.4455Z" fill="#161616"/>
<path d="M77.1539 4.41919H83.2322V24.5122H77.1539V4.41919Z" fill="#161616"/>
</svg>
