<svg width="490" height="120" viewBox="0 0 490 120" fill="none" xmlns="http://www.w3.org/2000/svg">
<path d="M372.129 89.0141V52.3663C372.503 46.46 375.109 40.9186 379.418 36.8712C383.727 32.8239 389.414 30.5751 395.319 30.583H401.283V44.7042H398.057C394.868 44.6999 391.799 45.9142 389.473 48.0996C387.147 50.285 385.741 53.277 385.54 56.4656V89.0141H372.129Z" fill="#011639"/>
<path d="M263.211 82.0569C257.239 87.8341 249.907 90.6844 241.198 90.6844C232.489 90.6844 225.248 87.8341 219.185 82.0569C216.335 79.2673 214.071 75.935 212.526 72.256C210.98 68.577 210.184 64.6255 210.184 60.6337C210.184 56.6419 210.98 52.6904 212.526 49.0114C214.071 45.3324 216.335 42.0002 219.185 39.2105C225.248 33.4256 232.588 30.583 241.198 30.583C249.807 30.583 257.254 33.4256 263.211 39.2105C266.06 42.0002 268.324 45.3324 269.87 49.0114C271.415 52.6904 272.212 56.6419 272.212 60.6337C272.212 64.6255 271.415 68.577 269.87 72.256C268.324 75.935 266.06 79.2673 263.211 82.0569V82.0569ZM253.217 47.93C250.159 44.5944 246.147 42.9292 241.182 42.9343C236.218 42.9394 232.211 44.6046 229.163 47.93C226.104 51.263 224.667 55.4771 224.667 60.5801C224.667 65.683 226.127 69.9891 229.163 73.3221C232.198 76.6552 236.205 78.3255 241.198 78.3255C251.275 78.3255 257.728 71.0695 257.728 60.5801C257.728 55.3852 256.276 51.171 253.217 47.93Z" fill="#011639"/>
<path d="M312.174 49.8004C312.174 44.7051 308.252 41.7628 302.097 41.7628C296.225 41.7628 293.289 44.3143 293.289 47.9385C293.289 54.2137 301.799 53.823 310.309 55.6006C313.067 56.1509 315.781 56.9038 318.429 57.8532C323.521 59.7151 327.337 64.9177 327.337 72.8556C327.337 78.8397 324.989 83.2454 320.295 86.2872C315.6 89.3291 309.59 90.7006 302.097 90.7006C294.757 90.7006 288.785 88.9306 284.389 85.5057C279.992 82.0807 277.836 77.2613 277.836 71.4841H291.239C291.239 76.1886 295.735 79.422 302.097 79.422C308.749 79.422 313.054 77.0698 313.054 72.8556C313.054 66.1896 304.643 66.68 296.125 65.1935C293.339 64.662 290.593 63.9401 287.906 63.0328C282.921 61.1709 279.212 56.0756 279.212 47.9308C279.212 36.6599 287.722 30.5762 302.112 30.5762C316.686 30.5762 325.486 37.633 325.486 49.7927L312.174 49.8004Z" fill="#011639"/>
<path d="M338.993 43.0343H333.809V32.2461H338.993V19.4121H352.886V32.2461H362.558V43.0343H352.886V73.2153C352.872 73.6613 352.948 74.1054 353.11 74.5214C353.271 74.9373 353.514 75.3166 353.824 75.6367C354.134 75.9568 354.505 76.2113 354.915 76.385C355.326 76.5587 355.766 76.6481 356.212 76.6479H362.558V88.9991H356.212C345.943 88.9991 338.993 82.4327 338.993 72.2345V43.0343Z" fill="#011639"/>
<path d="M453.024 89.2557V80.9194H452.825C447.832 87.5854 441.57 90.9261 433.939 90.9261C425.528 90.9261 418.68 88.0834 413.394 82.3982C408.118 76.7052 405.473 69.5489 405.473 60.8294C405.473 52.11 408.118 45.0378 413.394 39.3756C418.67 33.7133 425.528 30.8477 433.939 30.8477C441.677 30.8477 447.931 34.1807 452.825 40.7547H453.024V32.4874H466.916V89.2557H453.024ZM453.024 60.8294C453.094 56.3176 451.407 51.9558 448.321 48.6697C446.796 47.0549 444.959 45.7687 442.921 44.8898C440.883 44.0108 438.688 43.5574 436.47 43.5574C434.251 43.5574 432.056 44.0108 430.018 44.8898C427.981 45.7687 426.143 47.0549 424.618 48.6697C421.538 51.9587 419.854 56.3192 419.924 60.8294C419.854 65.3693 421.536 69.7609 424.618 73.0887C426.143 74.7035 427.981 75.9896 430.018 76.8686C432.056 77.7476 434.251 78.201 436.47 78.201C438.688 78.201 440.883 77.7476 442.921 76.8686C444.959 75.9896 446.796 74.7035 448.321 73.0887C451.406 69.7621 453.091 65.3704 453.024 60.8294Z" fill="#011639"/>
<path d="M478.533 32.3584H471.449V34.0024H474.133V41.4248H475.849V34.0024H478.533V32.3584Z" fill="#011639"/>
<path d="M487.529 35.03L487.517 41.4248H489.234V32.3584H487.276L484.664 36.7828H484.616L482.005 32.3584H480.047V41.4248H481.763L481.751 35.03H481.8L483.842 38.5719H485.438L487.481 35.03H487.529Z" fill="#011639"/>
<path d="M203.228 89.0141H189.114V56.9789C189.114 53.7275 187.825 50.6093 185.53 48.3102C183.236 46.0112 180.125 44.7196 176.88 44.7196C173.635 44.7196 170.524 46.0112 168.229 48.3102C165.935 50.6093 164.646 53.7275 164.646 56.9789V89.0141H150.547V56.9789C150.547 49.9783 153.322 43.2644 158.262 38.3142C163.202 33.364 169.902 30.583 176.888 30.583C183.874 30.583 190.573 33.364 195.513 38.3142C200.453 43.2644 203.228 49.9783 203.228 56.9789V89.0141Z" fill="#011639"/>
<path d="M0 15C0 6.71573 6.71573 0 15 0H105C113.284 0 120 6.71573 120 15V105C120 113.284 113.284 120 105 120H15C6.71573 120 0 113.284 0 105V15Z" fill="#011639"/>
<path d="M85.7997 57.1406V89.5679H73.1522V57.1406C73.1975 55.3802 72.8953 53.6349 72.2757 51.9954C71.6487 50.3559 70.7118 48.8524 69.5181 47.5831C68.3168 46.3063 66.8888 45.2863 65.2946 44.5686C63.708 43.8584 61.993 43.4655 60.2553 43.4202C58.5175 43.3748 56.7874 43.6771 55.163 44.3117C53.5386 44.9463 52.0578 45.8908 50.796 47.0996C49.5343 48.3085 48.5219 49.7591 47.8192 51.3683C47.1166 52.9776 46.686 54.7078 46.6406 56.4682V53.854C46.7615 48.2178 48.7485 43.8584 52.3978 40.1714C56.047 36.4844 60.9957 34.4067 66.156 34.3916C70.4776 34.4143 74.6708 35.9178 78.0404 38.6528C80.4732 41.0705 82.4074 43.9415 83.7371 47.1147C85.0669 50.2879 85.7695 53.6954 85.7922 57.1406H85.7997Z" fill="url(#paint0_linear_3603_30293)"/>
<path d="M78.0474 38.6452C74.4208 35.8875 70.4467 34.4067 66.1176 34.384C60.9573 34.3916 56.0086 36.5146 52.3594 40.2016C48.7102 43.8886 46.7156 48.3235 46.6476 54.1109V56.4983C46.6249 56.725 46.6476 89.6056 46.6476 89.6056H34V57.1405C34.0076 51.9954 35.5186 46.9636 38.3367 42.6722C41.1549 38.3808 45.1592 35.0262 49.851 33.024C50.6519 32.7294 51.4074 32.4272 52.2536 32.1703C54.7317 31.377 57.3232 30.9766 59.9222 30.9766C65.9362 30.9766 71.7538 33.0845 76.4003 36.9452C77.5232 37.8783 77.4732 38.003 78.0474 38.6527V38.6452Z" fill="url(#paint1_linear_3603_30293)"/>
<defs>
<linearGradient id="paint0_linear_3603_30293" x1="66.2239" y1="74.0342" x2="66.2239" y2="21.1698" gradientUnits="userSpaceOnUse">
<stop stop-color="white"/>
<stop offset="0.97" stop-color="#B2B2B2"/>
</linearGradient>
<linearGradient id="paint1_linear_3603_30293" x1="56.0237" y1="22.0311" x2="56.0237" y2="89.6056" gradientUnits="userSpaceOnUse">
<stop offset="0.22" stop-color="white"/>
<stop offset="1" stop-color="#BDBDBD"/>
</linearGradient>
</defs>
</svg>
