<svg xmlns="http://www.w3.org/2000/svg" xml:space="preserve" id="Layer_1" x="0" y="0" viewBox="0 0 449.27 152.79"><style>.st0{fill:#00205b}.st1{fill:#5f249f}</style><path d="M152.78 150.07h-4.7l-.88 2.47h-2.85l4.58-12.16h3.14l4.53 12.16h-2.95zm-3.81-2.47h2.95l-1.46-4.2zM171.2 152.54l-5.01-7.99v7.99h-2.69v-12.16h3.29l4.56 7.39v-7.39h2.71v12.16zM183.37 140.12c3.41 0 6.31 2.49 6.31 6.35 0 3.84-2.9 6.33-6.31 6.33-3.43 0-6.33-2.49-6.33-6.33 0-3.86 2.9-6.35 6.33-6.35m0 10c1.68 0 3.5-1.13 3.5-3.67s-1.82-3.69-3.5-3.69c-1.7 0-3.52 1.15-3.52 3.69.01 2.54 1.82 3.67 3.52 3.67M200.37 152.54l-5.01-7.99v7.99h-2.69v-12.16h3.29l4.56 7.39v-7.39h2.71v12.16zM209.63 148.17v4.37h-2.71v-12.16h4.58c2.47 0 4.17 1.63 4.17 3.89 0 2.3-1.7 3.89-4.17 3.89h-1.87zm1.59-2.34c1.03 0 1.73-.6 1.73-1.54 0-.98-.7-1.56-1.73-1.56h-1.58v3.1zM222.04 148.01h-.96v4.53h-2.71v-12.16h4.82c2.4 0 3.94 1.65 3.94 3.81 0 1.65-.91 2.9-2.4 3.43l2.47 4.92h-2.98zm.64-2.33c1.12 0 1.71-.62 1.71-1.47 0-.91-.6-1.48-1.71-1.48h-1.59v2.95zM235.73 140.12c3.41 0 6.31 2.49 6.31 6.35 0 3.84-2.9 6.33-6.31 6.33-3.43 0-6.33-2.49-6.33-6.33 0-3.86 2.9-6.35 6.33-6.35m0 10c1.68 0 3.5-1.13 3.5-3.67s-1.82-3.69-3.5-3.69c-1.7 0-3.52 1.15-3.52 3.69s1.82 3.67 3.52 3.67M245.02 152.54v-12.16h7.84v2.57h-5.13v2.57h4.51v2.47h-4.49v4.54h-2.73zM255.79 152.54v-12.16h2.74v12.16zM267.59 142.97v9.57h-2.71v-9.57h-3.74v-2.59h10.2v2.59zM277.73 146.48c0-3.79 2.88-6.36 6.28-6.36 3.65 0 5.26 2.35 5.66 4.1l-2.55.81c-.19-.84-.96-2.26-3.1-2.26-1.63 0-3.46 1.17-3.46 3.72 0 2.28 1.68 3.6 3.5 3.6 2.11 0 2.95-1.41 3.19-2.28l2.59.74c-.39 1.68-2.01 4.25-5.78 4.25-3.52-.01-6.33-2.53-6.33-6.32M300.06 152.54v-4.84h-4.85v4.84h-2.71v-12.16h2.71v4.77h4.85v-4.77h2.73v12.16zM313.64 150.07h-4.7l-.88 2.47h-2.85l4.58-12.16h3.14l4.53 12.16h-2.95zm-3.81-2.47h2.95l-1.46-4.2zM327.62 152.54l-5.01-7.99v7.99h-2.69v-12.16h3.29l4.56 7.39v-7.39h2.71v12.16zM343.21 152.54l-.17-1.24c-.53.77-1.68 1.49-3.41 1.49-3.38 0-6.16-2.49-6.16-6.33 0-3.83 2.9-6.35 6.33-6.35 3.48 0 5.09 2.06 5.63 3.76l-2.61.91c-.19-.75-1-2.13-3.02-2.13-1.65 0-3.58 1.1-3.58 3.81 0 2.54 1.68 3.86 3.65 3.86 2.01 0 2.85-1.3 3-1.99h-3.65v-2.3h6.19v6.5h-2.2zM348.64 152.54v-12.16h2.74v12.16zM362.78 152.54l-5.01-7.99v7.99h-2.69v-12.16h3.29l4.56 7.39v-7.39h2.71v12.16zM378.37 152.54l-.17-1.24c-.53.77-1.68 1.49-3.41 1.49-3.38 0-6.16-2.49-6.16-6.33 0-3.83 2.9-6.35 6.33-6.35 3.48 0 5.09 2.06 5.63 3.76l-2.61.91c-.19-.75-1-2.13-3.02-2.13-1.65 0-3.58 1.1-3.58 3.81 0 2.54 1.68 3.86 3.65 3.86 2.01 0 2.85-1.3 3-1.99h-3.65v-2.3h6.19v6.5h-2.2zM388.72 152.54v-12.16h2.71v9.57h5.25v2.59zM399.27 152.54v-12.16h2.74v12.16zM413.28 140.38h2.88l-4.44 12.16h-2.79l-4.46-12.16h2.98l2.93 8.56zM418.63 152.54v-12.16h7.7v2.56h-4.99v2.32h4.53v2.38h-4.53v2.33h5.01v2.57zM435.53 144.05c-.09-.57-.55-1.53-2.02-1.53-1.01 0-1.66.63-1.66 1.3 0 .58.36 1.01 1.2 1.17l1.63.31c2.32.43 3.52 1.92 3.52 3.65 0 1.9-1.59 3.84-4.49 3.84-3.36 0-4.8-2.18-4.97-3.89l2.49-.6c.1 1.12.86 2.09 2.52 2.09 1.06 0 1.71-.51 1.71-1.27 0-.62-.5-1.06-1.3-1.22l-1.66-.31c-2.06-.39-3.31-1.77-3.31-3.57 0-2.3 2.02-3.91 4.36-3.91 3.04 0 4.18 1.82 4.44 3.24z" class="st0"/><path d="M86.56 93.44c-.98-2.7-1.49-5.53-1.49-8.41 0-3.67 1.42-7.46 2.63-10.01.05-.12 1.31-2.99 3.32-5.8 1.65-2.31 4.18-5.06 6.87-5.07 3.42 0 5.06 2.81 6.51 5.29 1.46 2.54 2.72 4.73 5.35 4.73 1.37 0 2.78-1.12 3.93-3.07.62-2.19.96-4.33.96-6.39 0-3.02-.48-5.93-1.38-8.68-.12-.14-.22-.29-.35-.43-2.15-2.33-5.37-3.46-9.9-3.46-13.07.02-18.6 9.05-18.64 9.12l-.71 1.21-1.22-.68c-.04-.03-4.67-2.54-12.3-2.54-7.24.01-11.75 2.3-12.25 2.57l-1.23.66-.73-1.23c-.23-.37-5.72-9.11-18.67-9.11-4.39.01-7.71 1.21-9.88 3.58-2.28 2.47-2.76 5.63-2.76 7.83.01 4.93 2.51 9.78 5.25 10.52v.1h1.43v-.07c1.45-.24 2.36-1.22 3.06-2.19.61-1.14 1.27-2.23 1.94-3.2 1.41-2.45 3.06-4.79 6.1-4.79h.49c.04 0 .07.01.11.01l.11-.02.07.03c2.34.31 5.42 4.11 7.42 7.4 1.41 2.29 4.68 8.2 4.69 13.73 0 2.88-.49 5.72-1.47 8.42l-.07.15-1.88 3.97c-.28.5-1.84 3.49-1.86 7.22v.08c.49 4.91 4.59 8.6 9.53 8.6h.01c3.97 0 7.39-2.45 8.83-5.91v-6.99c-3.41-.81-5.94-3.84-5.94-7.47 0 0 3.2-1.59 7.7-1.59 4.56 0 7.74 1.59 7.74 1.59 0 3.64-2.52 6.66-5.93 7.48h-.1v6.61c1.27 3.42 4.41 5.93 8.18 6.25 3.38-2.95 6.87-6.15 10.28-9.51-.23-3.55-1.76-6.27-1.97-6.63zm-24.47-5.12c-1.67 0-3.02-1.36-3.02-3.05 0-1.66 1.34-3.03 3.01-3.04 1.68 0 3.05 1.37 3.05 3.03a3.043 3.043 0 0 1-3.04 3.06m16.2.01c-1.67 0-3.04-1.36-3.05-3.05 0-1.66 1.36-3.03 3.04-3.04 1.66 0 3.03 1.37 3.03 3.03 0 1.69-1.36 3.05-3.02 3.06" class="st1"/><path d="M69.99 121.44c-3.22 0-5.73-1.43-7.05-4.02-.14-.27-.25-.54-.36-.8-.96.23-1.97.35-3 .35-6.73 0-12.32-5.04-12.98-11.72v-.04l-.02-.19v-.22c0-.23.01-.45.02-.67-3.12 2.85-6.85 4.9-10.79 5.86-1.51.37-3.04.57-4.56.62 13.42 12.1 26.08 20.86 26.08 20.86s5.59-3.89 13.28-10.07c-.21.02-.41.04-.62.04M70.23 111.46a13.1 13.1 0 0 1-4.43 3.93c.48 1.23 1.6 2.58 4.19 2.58 2.75 0 3.84-1.52 4.27-2.8-1.58-.94-2.96-2.2-4.03-3.71M109.75 77.63c-4.63 0-6.79-3.73-8.36-6.46-1.54-2.63-2.3-3.56-3.51-3.56-.51 0-2 .76-4.05 3.62-1.79 2.5-2.92 5.07-2.96 5.17l-.02.05-.02.05c-1.05 2.22-2.3 5.51-2.3 8.52.01 2.43.42 4.82 1.23 7.1l1.69 3.62c.39.68 1.37 2.58 1.94 5.16 7.31-7.53 13.92-15.66 17.76-23.44-.52.13-1 .17-1.4.17M10.21 72.23c.63-1.08 3.92-6.53 6.77-7.88l.93-.44 1.02.14c.78.11 1.54.41 2.29.91-.04-.48-.06-.95-.06-1.42 0-2.83.63-6.89 3.67-10.18 2.85-3.12 7.04-4.7 12.44-4.71 6.06 0 11.65 1.76 16.17 5.09a24 24 0 0 1 4.45 4.25c2.23-.9 6.47-2.22 12.26-2.23 5.78 0 10.07 1.32 12.31 2.22.87-1.08 2.26-2.59 4.27-4.1 5.75-4.32 12.03-5.23 16.29-5.24 2.82 0 5.26.39 7.35 1.18-5.4-8.66-15.36-14.48-26.76-14.48-11.08 0-20.79 6.11-26.28 14.36-5.49-8.25-15.21-14.36-26.28-14.36C13.9 35.36 0 48.49 0 64.7c0 5.57 2.42 11.67 6.26 17.85.6-3.89 2.39-7.65 3.95-10.32" class="st1"/><path d="m44.15 94.35 4.95 1.01c.61-1.15 1.12-2.34 1.51-3.55l-6.52 1.04c-.07.01-.13.02-.2.02-.6 0-1.13-.43-1.22-1.04-.11-.68.35-1.31 1.03-1.42l7.56-1.2c.18-1.03.28-2.07.28-3.1 0-.15-.01-.3-.01-.46.01-.19.01-.39.01-.58-.01-7.11-6.85-16.57-8.95-17.57-.71.1-1.61.87-2.54 2.02-.27.33-.54.7-.8 1.08l-.04.06-.04.06-.03.05-.03.05-.04.05c-.51.75-1.02 1.59-1.5 2.5l-.02.04-.1.18-.12.17-.01.02a35 35 0 0 0-1.44 3.1l-.73 1.86-1.9-.59c-.87-.27-1.8-.41-2.72-.41-.93.01-1.85.14-2.72.41l-1.9.59-.73-1.86c-1.06-2.66-2.66-5.51-4.17-7.36-.94-1.15-1.83-1.92-2.54-2.02-2.1.99-8.94 10.46-8.95 17.57 0 .19.01.38.01.57 0 .15-.01.31-.01.46q0 .66.06 1.32c.44.6.88 1.19 1.34 1.79l7.49 1.19c.68.11 1.14.74 1.03 1.42-.1.61-.62 1.04-1.22 1.04-.06 0-.13-.01-.2-.02l-4.82-.77c.76.93 1.54 1.85 2.34 2.77l2.42-.49c.67-.14 1.33.3 1.46.97.14.67-.3 1.33-.97 1.46l-1.01.21c3.1 3.41 6.4 6.73 9.73 9.88 1.09.2 2.21.31 3.35.31 1.53 0 3.02-.19 4.46-.54 5.24-1.28 9.76-4.7 12.74-9.02l-4.07-.83c-.67-.14-1.1-.79-.97-1.46.15-.69.8-1.12 1.47-.98m-24.31-9.07c0-1.66 1.36-3.03 3.05-3.04 1.65 0 3.01 1.36 3.02 3.03 0 1.68-1.36 3.05-3.01 3.05a3.05 3.05 0 0 1-3.06-3.04m18.81 13.1c-.99.97-2.3 1.51-3.7 1.51h-.01c-1.59 0-2.99-.72-3.95-1.83A5.27 5.27 0 0 1 27 99.89h-.01c-1.4 0-2.7-.55-3.67-1.51a5.24 5.24 0 0 1-1.52-3.71 1.24 1.24 0 1 1 2.48 0 2.718 2.718 0 0 0 2.71 2.72H27c1.5 0 2.72-1.22 2.72-2.73v-1.07c0-.07.03-.14.04-.21-1.6-.52-2.76-2-2.76-3.75 0 0 1.68-.81 4-.81 2.25 0 3.95.81 3.95.81 0 1.75-1.16 3.24-2.73 3.75.01.07.04.14.04.21v1.07c0 1.5 1.19 2.73 2.69 2.73.73 0 1.41-.28 1.92-.8.52-.51.8-1.2.8-1.92h.03a1.24 1.24 0 1 1 2.48 0 5.13 5.13 0 0 1-1.53 3.71m.42-10.06c-1.69 0-3.06-1.36-3.06-3.05 0-1.67 1.36-3.03 3.05-3.03 1.68 0 3.03 1.36 3.03 3.03 0 1.68-1.33 3.05-3.02 3.05M143.37 127.7V6.79h22.21V127.7zM266.11 86.62c0 25.22-18.54 43.59-43.09 43.59s-43.09-18.37-43.09-43.59c0-25.38 18.54-43.59 43.09-43.59 24.56 0 43.09 18.2 43.09 43.59m-22.21 0c0-15.53-10.02-23.38-20.88-23.38s-20.88 7.85-20.88 23.38c0 15.37 10.02 23.38 20.88 23.38s20.88-7.85 20.88-23.38M323.9 127.7h-22.21l-33.57-82.17h24.38l20.38 55.11 19.54-55.11h23.38zM438.46 104.15c-4.17 14.2-17.2 26.05-37.41 26.05-22.55 0-42.42-16.2-42.42-43.92 0-26.22 19.37-43.25 40.42-43.25 25.39 0 40.58 16.2 40.58 42.59 0 3.17-.33 6.51-.33 6.85h-58.79c.5 10.86 9.69 18.7 20.71 18.7 10.35 0 16.03-5.18 18.7-12.53zm-20.71-26.89c-.33-8.18-5.68-16.2-18.37-16.2-11.52 0-17.87 8.68-18.37 16.2z" class="st1"/><g id="Petco_-_logotype_CMYK_12_"><path d="M236.27 21.47V11.32h4.54V6.69h-4.54V0h-4.72v3.28c0 1.93-1.03 3.41-3.37 3.41h-1.12v4.63h4.04v11.01c0 4.09 2.52 6.51 6.56 6.51 1.89 0 2.87-.36 3.19-.49v-4.31c-.22.04-1.08.18-1.8.18-1.92-.01-2.78-.82-2.78-2.75M182.96 37.1c2.19 0 3.23-1.3 3.36-3.05V26.1c1.12 1.66 3.5 3.01 6.65 3.01 6.29 0 10.29-4.94 10.29-11.5 0-6.47-3.64-11.41-10.11-11.41-3.37 0-5.88 1.57-6.96 3.46V6.69h-5.03V37.1zm9.2-12.62c-3.41 0-5.88-2.7-5.88-6.87 0-4.09 2.47-6.78 5.88-6.78 3.5 0 5.88 2.7 5.88 6.78 0 4.18-2.42 6.87-5.88 6.87M276.36 6.02c-6.51 0-11.32 4.9-11.32 11.59 0 6.74 4.81 11.63 11.32 11.63 6.56 0 11.36-4.9 11.36-11.63 0-6.69-4.8-11.59-11.36-11.59m0 18.55c-3.19 0-6.11-2.43-6.11-6.96 0-4.54 2.92-6.87 6.11-6.87 3.23 0 6.11 2.34 6.11 6.87 0 4.58-2.88 6.96-6.11 6.96M226.31 17.38c0-6.92-3.95-11.36-10.69-11.36-5.53 0-10.65 4.58-10.65 11.5 0 7.41 5.26 11.72 11.18 11.72 5.26 0 8.71-3.1 9.88-6.92l.16-.62h-4.87c-.83 1.77-2.42 3.04-5.17 3.04-3.23 0-5.84-2.38-5.97-5.7h15.99c.05-.08.14-.8.14-1.66m-15.99-2.15c.18-2.34 2.07-4.85 5.35-4.85 3.59 0 5.3 2.29 5.39 4.85zM263.48 20.44h-4.79c-.49 1.66-2.07 4.04-5.48 4.04-3.28 0-6.11-2.47-6.11-6.87s2.83-6.78 6.02-6.78c3.32 0 4.81 2.16 5.3 4.09l.02-.01-.02.01h4.89c.2 0-.16-1.46-.22-1.71v-.01c0-.02-.01-.03-.01-.03-.91-3.49-4.14-7.15-10-7.15-6.29 0-11.18 4.85-11.18 11.59 0 6.65 4.9 11.63 11.32 11.63 5.75 0 9.03-3.73 10.06-7.14-.01 0 .41-1.66.2-1.66M287.47 27.15c.56 0 1.02.46 1.02 1.02s-.46 1.02-1.02 1.02-1.01-.46-1.01-1.02.45-1.02 1.01-1.02m0 1.83c.44 0 .78-.35.78-.81s-.35-.81-.78-.81c-.44 0-.78.35-.78.81-.01.46.34.81.78.81m-.04-.66h-.08v.4h-.24v-1.11h.41c.22 0 .38.16.38.35 0 .15-.09.27-.23.33l.23.43h-.27zm.06-.2c.11 0 .17-.06.17-.15 0-.1-.06-.15-.17-.15h-.14v.31h.14z" class="st0"/></g><path d="M440.57 120.12v4.11h-1.53v-4.11h-1.5v-1.37h4.51v1.37zm7.3 4.11v-3.33l-1.23 3.33h-1.14l-1.25-3.27v3.27h-1.49v-5.47h2.13l1.2 2.91 1.14-2.91h2.13v5.47z" class="st1"/></svg>