<svg width="180" height="60" viewBox="0 0 180 60" fill="none" xmlns="http://www.w3.org/2000/svg">
<g clip-path="url(#clip0)">
<path d="M120 29.9574C120.111 46.4041 106.682 60.0266 90.0136 59.9989C73.4008 59.9989 60.0275 46.5979 59.9998 29.9851C59.9721 13.4276 73.5669 -0.0841481 90.1521 -0.0010839C106.571 0.0819803 120.027 13.5107 120 29.9574ZM104.993 30.4004C104.993 25.5273 101.449 21.8725 96.6311 21.8448C91.7857 21.8171 88.1309 25.4442 88.1032 30.262C88.0755 35.0797 91.6472 38.7068 96.465 38.7345C101.421 38.7622 104.965 35.2735 104.993 30.4004ZM85.6112 26.0257C85.6112 24.6413 85.6112 23.3123 85.6112 21.9002C83.6731 21.8725 82.2887 22.7585 81.1812 24.2536C81.1812 23.5891 81.1812 22.9523 81.1812 22.2601C80.8212 22.2601 80.5166 22.2047 80.2674 22.2601C78.6339 22.7031 77.0003 23.1738 75.3667 23.6445C75.1175 23.7276 74.9237 23.8383 75.0344 24.1429C76.7788 24.5859 77.0833 25.0012 77.0833 26.884C77.0833 30.345 77.0833 33.7783 77.0833 37.2393C77.0833 37.5162 77.0003 37.8208 77.1664 38.07C78.5508 38.07 79.9075 38.07 81.3196 38.07C81.3196 37.3224 81.3196 36.6302 81.3196 35.938C81.3196 33.9722 81.2919 32.0063 81.375 30.0404C81.458 27.9638 82.5932 26.6071 84.3376 26.2195C84.7529 26.1364 85.1682 26.2195 85.6112 26.0257Z" fill="#1ECD96"/>
<path d="M104.993 30.4015C104.993 35.2746 101.421 38.7632 96.4652 38.7356C91.6752 38.7079 88.0757 35.0807 88.1034 30.263C88.1311 25.4453 91.7859 21.8182 96.6313 21.8459C101.449 21.9012 104.993 25.5284 104.993 30.4015ZM91.8967 30.3461C91.8967 30.5399 91.8967 30.706 91.8967 30.8998C92.0351 33.0318 93.641 34.7485 95.6069 34.9423C97.9881 35.1915 99.8432 33.9455 100.452 31.7305C100.674 30.8722 100.701 30.0138 100.508 29.1278C99.9262 26.2759 96.8529 24.7531 94.3056 26.0544C92.5612 26.9681 91.9244 28.491 91.8967 30.3461Z" fill="#FCFEFD"/>
<path d="M85.6116 26.0266C85.1686 26.2481 84.7532 26.1373 84.3656 26.2204C82.6213 26.608 81.486 27.9924 81.403 30.0413C81.3199 32.0072 81.3753 33.973 81.3476 35.9389C81.3476 36.6311 81.3476 37.3233 81.3476 38.0709C79.9355 38.0709 78.5788 38.0709 77.1944 38.0709C77.0006 37.8217 77.1113 37.5171 77.1113 37.2402C77.1113 33.7792 77.1113 30.3459 77.1113 26.8849C77.1113 25.0021 76.8068 24.5868 75.0624 24.1438C74.9517 23.8392 75.1455 23.7008 75.3947 23.6454C77.0283 23.1747 78.6619 22.704 80.2955 22.261C80.5723 22.1779 80.8769 22.261 81.2092 22.261C81.2092 22.9255 81.2092 23.59 81.2092 24.2545C82.3167 22.7317 83.7011 21.8734 85.6393 21.901C85.6116 23.2854 85.6116 24.6422 85.6116 26.0266Z" fill="#FAFDFC"/>
<path d="M91.8966 30.3462C91.9243 28.4911 92.5611 26.9682 94.2778 26.0822C96.8527 24.7809 99.8984 26.3037 100.48 29.1556C100.646 30.0416 100.646 30.8999 100.425 31.7583C99.8154 33.9733 97.9603 35.1916 95.5791 34.9701C93.6132 34.7763 92.0073 33.0319 91.8689 30.9276C91.8966 30.7061 91.8966 30.5123 91.8966 30.3462Z" fill="#20CE96"/>
</g>
<defs>
<clipPath id="clip0">
<rect width="60" height="60" fill="white" transform="translate(60)"/>
</clipPath>
</defs>
</svg>
