<svg width="220" height="51" viewBox="0 0 220 51" fill="none" xmlns="http://www.w3.org/2000/svg">
<path fill-rule="evenodd" clip-rule="evenodd" d="M136.088 15.6949L136.082 15.691C136.082 15.691 136.079 15.6888 136.074 15.6888C135.925 15.6232 135.762 15.5893 135.604 15.5893C135.349 15.5911 135.104 15.6672 134.891 15.8006C134.673 15.9382 134.49 16.1394 134.384 16.3906V16.3967L129.405 30.0224L125.568 20.8896L125.562 20.8853C125.454 20.6301 125.261 20.4329 125.042 20.2956C124.82 20.1579 124.565 20.0822 124.296 20.0822C124.035 20.0822 123.792 20.1637 123.577 20.2974C123.365 20.4347 123.174 20.6301 123.067 20.8853L123.064 20.8896L119.22 30.0285L114.214 16.4086H114.211C114.123 16.1455 113.945 15.94 113.734 15.8045C113.519 15.6672 113.268 15.5911 113.009 15.5893C112.843 15.5893 112.676 15.6232 112.518 15.6888H112.51L112.504 15.6949C112.038 15.9123 111.753 16.3787 111.751 16.8869C111.751 17.0466 111.783 17.2059 111.844 17.3634H111.842L118 33.8953V33.9014C118.047 34.0247 118.115 34.1465 118.215 34.2662C118.286 34.352 118.392 34.4237 118.502 34.4835C118.522 34.5034 118.554 34.5311 118.601 34.561C118.653 34.5931 118.719 34.6151 118.787 34.627C118.897 34.663 119.042 34.7164 119.238 34.7164C119.486 34.7164 119.718 34.627 119.925 34.4933C120.119 34.3639 120.292 34.1703 120.387 33.9194L120.403 33.9072L124.296 24.6007L128.195 33.8693H128.199C128.289 34.1166 128.446 34.3102 128.63 34.4475C128.823 34.5931 129.04 34.6829 129.27 34.7164H129.433C129.589 34.7164 129.74 34.6868 129.867 34.6371C130.001 34.5852 130.109 34.5174 130.198 34.4496C130.408 34.29 130.569 34.0708 130.669 33.8275V33.8218L136.786 17.3634C136.846 17.2059 136.878 17.0484 136.878 16.8891C136.876 16.3848 136.579 15.9044 136.088 15.6949ZM107.944 25.133C107.944 23.1917 107.198 21.4335 106.012 20.1637C104.82 18.892 103.206 18.1146 101.452 18.1146C99.6975 18.1146 98.0791 18.892 96.889 20.1637C95.701 21.4335 94.9556 23.1917 94.9556 25.133C94.9556 27.0725 95.701 28.8146 96.889 30.0761C98.0791 31.3419 99.6975 32.1075 101.452 32.1075C103.206 32.1075 104.826 31.3419 106.012 30.0761C107.198 28.8146 107.944 27.0725 107.944 25.133ZM107.91 18.3939C109.556 20.1399 110.557 22.5357 110.561 25.133C110.557 27.7304 109.556 30.124 107.91 31.8703C106.276 33.6145 103.993 34.7167 101.456 34.7167C98.9381 34.7167 96.6518 33.6145 95.0115 31.8703C93.3689 30.124 92.3525 27.7304 92.3525 25.133C92.3525 22.5357 93.3689 20.1399 95.0115 18.3939C96.6518 16.6515 98.9381 15.5493 101.456 15.5493C103.993 15.5493 106.276 16.6515 107.91 18.3939ZM81.9874 15.5832C79.9462 15.5832 78.0827 16.3787 76.6914 17.6482V16.8891C76.6893 16.5402 76.5599 16.2151 76.3324 15.9761C76.1115 15.7407 75.7842 15.5832 75.4256 15.5832C75.0547 15.5832 74.7198 15.7328 74.487 15.9739C74.2578 16.2111 74.1201 16.5402 74.1201 16.8891V33.8059L74.1738 33.8596L74.1759 33.8675C74.19 33.9234 74.2257 33.985 74.2635 34.0449C74.4409 34.3577 74.7317 34.5953 75.0925 34.7005L75.1444 34.7167H75.4256C75.613 34.7167 75.8022 34.6767 75.9817 34.5931C76.1313 34.5214 76.2708 34.4057 76.3825 34.2583L76.3865 34.2601C76.4002 34.2464 76.4045 34.2283 76.4204 34.2143C76.4262 34.2125 76.4323 34.2064 76.4362 34.2002C76.5058 34.1108 76.5638 34.0189 76.5999 33.9335C76.6377 33.8315 76.6615 33.736 76.6795 33.6621L76.6914 33.6145V23.4566C76.7293 22.0037 77.3272 20.6899 78.286 19.7351C79.2387 18.7807 80.5442 18.1906 81.9874 18.1906C83.4547 18.1906 84.7638 18.7807 85.7129 19.7351C86.6655 20.6863 87.2436 21.9976 87.2436 23.4429V33.417C87.2436 33.7818 87.399 34.1188 87.6344 34.3498C87.8755 34.5808 88.2042 34.7167 88.5473 34.7167C88.8959 34.7167 89.2232 34.5808 89.4621 34.3498C89.7054 34.1188 89.8529 33.7818 89.8529 33.417V23.4429C89.8529 19.1375 86.3368 15.5893 81.9874 15.5832ZM210.479 23.2833C209.738 20.2754 207.096 18.1326 204.083 18.1387C200.993 18.1387 198.388 20.2357 197.581 23.2833H210.479ZM213.335 24.5152V24.6446C213.335 25.0054 213.174 25.3302 212.929 25.5436C212.686 25.7588 212.368 25.8705 212.028 25.8745H197.399C197.772 29.4442 200.622 32.0798 204.025 32.1075H204.888C206.014 32.1115 207.11 31.7229 208.075 31.0788C209.042 30.4412 209.877 29.5502 210.465 28.5695C210.586 28.36 210.76 28.2007 210.949 28.103C211.143 27.9974 211.35 27.9495 211.559 27.9495C211.79 27.9495 212.02 28.0093 212.221 28.1308L212.235 28.1369L212.251 28.1488C212.618 28.4181 212.847 28.8286 212.847 29.2792C212.847 29.5084 212.787 29.7416 212.662 29.9528L212.658 29.9607L212.654 29.9647C211.836 31.2645 210.722 32.4503 209.399 33.3096C208.073 34.1707 206.536 34.7167 204.888 34.7167H204.011C201.444 34.6987 199.123 33.6145 197.451 31.8801C195.783 30.1521 194.754 27.7779 194.754 25.1691C194.754 22.5159 195.791 20.1082 197.473 18.3658C199.156 16.626 201.493 15.5493 204.083 15.5493C206.554 15.5493 208.775 16.5322 210.419 18.1409C212.064 19.7492 213.138 21.9835 213.329 24.4972L213.335 24.5152ZM153.332 7.6759C152.976 7.6759 152.648 7.82548 152.413 8.06085C152.178 8.29405 152.029 8.62277 152.029 8.97961V33.417C152.029 33.7738 152.178 34.1007 152.413 34.3321C152.648 34.5632 152.976 34.7167 153.332 34.7167C154.072 34.7167 154.67 34.1346 154.674 33.417V8.97961C154.67 8.26017 154.072 7.6759 153.332 7.6759ZM68.0885 24.6666C67.036 24.1703 65.8419 23.8037 64.6503 23.4087C63.5538 23.0382 62.4415 22.7231 61.6482 22.3086C61.2495 22.0953 60.9385 21.87 60.7373 21.617C60.5319 21.3639 60.4324 21.1066 60.4263 20.7559C60.4284 20.2754 60.5679 19.8886 60.8029 19.5459C61.1598 19.0337 61.7577 18.635 62.4116 18.3777C63.0575 18.1189 63.7571 17.9971 64.2574 17.9971C65.7363 17.9992 66.6712 18.4916 67.3889 19.0016C67.7435 19.259 68.0427 19.5199 68.3257 19.7351C68.4713 19.8468 68.6068 19.9485 68.7643 20.0242C68.9135 20.0981 69.0891 20.1579 69.2805 20.1579C69.4019 20.1579 69.5238 20.1359 69.6351 20.088C69.7526 20.0404 69.8546 19.9726 69.9523 19.8886C70.0478 19.7993 70.1297 19.6915 70.1873 19.5718C70.2392 19.4482 70.263 19.3206 70.263 19.1952C70.263 18.9638 70.1891 18.7468 70.0835 18.5431C69.8864 18.1845 69.5832 17.8417 69.1968 17.4989C68.6227 16.9886 67.8654 16.5023 67.0501 16.1354C66.2326 15.7688 65.3556 15.5194 64.5205 15.5194C62.5849 15.5194 60.9684 15.9581 59.7944 16.7654C59.1824 17.1879 58.6443 17.6503 58.2636 18.2883C57.8769 18.9281 57.6617 19.7174 57.6336 20.744C57.6318 20.7897 57.6318 20.8355 57.6318 20.8813C57.6278 21.8779 57.9486 22.6993 58.4529 23.3431C59.2184 24.312 60.3546 24.8919 61.469 25.3024C62.5813 25.713 63.6933 25.9584 64.3951 26.1934C65.3834 26.5225 66.4341 26.879 67.1993 27.3515C67.5803 27.5927 67.8892 27.8518 68.0986 28.1369C68.3019 28.43 68.4172 28.7327 68.4215 29.1155V29.1436C68.4194 29.6976 68.2561 30.1323 67.9868 30.505C67.5803 31.059 66.9044 31.4656 66.1868 31.7229C65.4713 31.9738 64.7278 32.0798 64.2495 32.0798C62.5612 32.0798 61.4312 31.6728 60.6119 31.2645C60.201 31.059 59.8683 30.8557 59.5674 30.6841C59.4178 30.6023 59.2783 30.5266 59.1309 30.4668C58.987 30.4073 58.8339 30.3691 58.6605 30.3691C58.5549 30.3691 58.4392 30.3871 58.3332 30.429C58.2258 30.4751 58.1281 30.5389 58.0463 30.6164C57.9328 30.7263 57.8333 30.8496 57.7634 30.9912C57.6956 31.1329 57.6617 31.2821 57.6617 31.4378C57.6617 31.693 57.7572 31.9262 57.8931 32.1374C58.1061 32.4424 58.4194 32.7156 58.8097 32.9884C59.2123 33.2577 59.6928 33.5226 60.2468 33.7839C61.4748 34.3639 63.0496 34.667 64.2455 34.6868H64.2495C66.1093 34.6868 67.7158 34.2583 69.0692 33.2616V33.2595H69.071C70.3946 32.2629 71.2178 30.7818 71.2178 29.1098C71.2178 28.1906 71.0026 27.4114 70.626 26.7734C70.0579 25.8067 69.1348 25.1691 68.0885 24.6666ZM172.99 25.133C172.99 23.1737 172.25 21.4176 171.068 20.15C169.888 18.8863 168.268 18.1189 166.495 18.1149C164.738 18.1149 163.123 18.8863 161.931 20.15C160.747 21.4176 159.998 23.1737 159.998 25.133C159.998 27.0906 160.747 28.8347 161.931 30.0923C163.117 31.3502 164.738 32.1075 166.495 32.1075C168.272 32.1075 169.892 31.3502 171.072 30.0963C172.25 28.8347 172.99 27.0924 172.99 25.133ZM175.206 15.9123C175.447 16.1455 175.597 16.4825 175.597 16.8469V33.417C175.597 33.7738 175.444 34.1007 175.214 34.3321C174.979 34.5632 174.654 34.7167 174.295 34.7167C173.937 34.7167 173.608 34.5632 173.376 34.3321C173.141 34.1007 172.99 33.7738 172.99 33.417V31.8004C171.349 33.5727 169.045 34.7167 166.495 34.7167C163.958 34.7167 161.674 33.6264 160.037 31.8801C158.395 30.142 157.391 27.748 157.391 25.133C157.391 22.518 158.395 20.1219 160.037 18.382C161.674 16.6379 163.958 15.5493 166.495 15.5493C169.043 15.5493 171.349 16.6598 172.99 18.4238V16.8469C172.99 16.4825 173.139 16.1455 173.381 15.9123C173.622 15.683 173.946 15.5493 174.295 15.5493C174.64 15.5493 174.969 15.683 175.206 15.9123ZM193.61 17.5927C193.869 17.3353 194.011 16.9943 194.011 16.6559C194.011 16.3228 193.869 15.9898 193.608 15.7486H193.61C193.608 15.7407 193.602 15.7407 193.602 15.7407C193.6 15.735 193.596 15.7328 193.596 15.7328H193.592C193.341 15.4855 193.018 15.35 192.685 15.35C192.348 15.35 192.02 15.4899 191.768 15.7407L181.577 25.6733V8.97961C181.577 8.26017 180.975 7.6759 180.235 7.6759C179.879 7.6759 179.552 7.82548 179.318 8.06085C179.087 8.29405 178.932 8.62277 178.932 8.97961V33.417C178.932 33.7738 179.087 34.1007 179.318 34.3321C179.552 34.5632 179.879 34.7167 180.235 34.7167C180.975 34.7167 181.577 34.1346 181.577 33.417V29.3848L184.895 26.0698L191.661 34.2323C191.788 34.4197 191.962 34.5491 192.133 34.6169C192.328 34.6908 192.518 34.7167 192.687 34.7167C192.92 34.7167 193.249 34.667 193.538 34.4396L193.554 34.4298L193.572 34.4118C193.843 34.1447 193.997 33.7897 193.997 33.4271C193.997 33.1222 193.883 32.8111 193.674 32.562V32.5581L186.787 24.1862L193.604 17.5927H193.61ZM147.954 7.73393H147.663C147.625 7.73393 147.588 7.7379 147.548 7.7397C147.512 7.7379 147.474 7.73393 147.436 7.73393C146.685 7.73393 145.955 7.81936 145.273 8.04679C144.602 8.26991 143.982 8.63863 143.501 9.19912L143.499 9.19695L143.498 9.19912V9.20092C143.001 9.75311 142.674 10.4127 142.475 11.1624C142.276 11.9157 142.194 12.7649 142.186 13.7295V15.5976H140.127C139.411 15.6016 138.843 16.1736 138.843 16.8653C138.839 17.238 138.985 17.5808 139.22 17.828C139.457 18.0713 139.782 18.2306 140.143 18.2505H142.186V33.4491L142.184 33.4848C142.184 33.8416 142.333 34.1703 142.575 34.4057C142.814 34.6371 143.149 34.7744 143.514 34.7744C144.207 34.7704 144.777 34.2046 144.779 33.4848V18.2505H146.994C147.35 18.2306 147.679 18.081 147.915 17.8399C148.156 17.5988 148.303 17.26 148.303 16.893V16.8433C148.295 16.1595 147.723 15.5976 147.008 15.5976H144.779V13.7374C144.793 12.9145 144.879 12.2985 145.002 11.8501C145.122 11.3996 145.285 11.1163 145.433 10.9411C145.576 10.7854 145.764 10.656 146.069 10.5522C146.376 10.4527 146.8 10.3889 147.375 10.3889H147.442C147.476 10.3889 147.512 10.3828 147.544 10.3828C147.584 10.3828 147.621 10.3889 147.663 10.3889H147.831H147.954C148.69 10.3889 149.282 9.79492 149.282 9.06143C149.282 8.32794 148.69 7.73393 147.954 7.73393ZM16.6723 25.9959C16.7779 25.6629 16.8218 25.3201 16.8139 24.9813C16.8017 24.7362 16.7699 24.4911 16.7004 24.246C16.491 23.4844 15.9946 22.8046 15.2511 22.376L4.6747 16.2688C3.18177 15.4095 1.27829 15.9202 0.421167 17.411C-0.443886 18.9 0.0664954 20.8013 1.55943 21.6627L7.46955 25.0811L1.55943 28.4894C0.0664954 29.3527 -0.442084 31.254 0.421167 32.7491C1.27829 34.2359 3.18177 34.7445 4.6747 33.8852L15.2511 27.774C15.9647 27.3634 16.4492 26.7193 16.6723 25.9959ZM19.5424 31.7186C18.9347 31.6667 18.3029 31.7943 17.7348 32.1252L7.15056 38.2285C5.66159 39.0896 5.15301 41.001 6.01229 42.4921C6.87554 43.9793 8.77722 44.4915 10.264 43.6264L16.194 40.2059V47.0409C16.194 48.763 17.5871 50.1583 19.3114 50.1583C21.0274 50.1583 22.4249 48.763 22.4249 47.0409V34.822C22.4249 33.1816 21.1532 31.8339 19.5424 31.7186ZM30.3819 18.4393C30.9878 18.4891 31.6179 18.3597 32.1859 18.0327L42.768 11.9237C44.2592 11.0622 44.7652 9.15875 43.9081 7.66401C43.0492 6.17504 41.1457 5.66465 39.6564 6.52574L33.7307 9.95027V3.11311C33.7307 1.39526 32.3373 0 30.6133 0C28.889 0 27.4995 1.39526 27.4995 3.11311V15.332C27.4995 16.9705 28.7675 18.32 30.3819 18.4393ZM7.15056 11.9237L17.7348 18.0327C18.3029 18.3597 18.9347 18.4891 19.5424 18.4393C21.1532 18.32 22.4249 16.9705 22.4249 15.332V3.11311C22.4249 1.39526 21.0274 0 19.3114 0C17.5871 0 16.194 1.39526 16.194 3.11311V9.95027L10.264 6.52574C8.77722 5.66465 6.87554 6.17504 6.01229 7.66401C5.15301 9.15875 5.66159 11.0622 7.15056 11.9237ZM27.041 25.0552C27.041 24.8778 26.9336 24.6306 26.8082 24.499L25.5344 23.2314C25.4089 23.1059 25.1617 23.0021 24.984 23.0021H24.9342C24.7569 23.0021 24.51 23.1059 24.3864 23.2314L23.1126 24.499C22.985 24.6306 22.8873 24.8778 22.8873 25.0552V25.1049C22.8873 25.2804 22.985 25.5255 23.1126 25.6531L24.3864 26.9248C24.5118 27.0502 24.7569 27.154 24.9342 27.154H24.984C25.1617 27.154 25.4089 27.0502 25.5344 26.9248L26.8082 25.6531C26.9336 25.5255 27.041 25.2804 27.041 25.1049V25.0552ZM30.5574 26.2749L26.1583 30.6683C26.0325 30.7977 25.7896 30.9033 25.6061 30.9033H25.2871H24.6372H24.3125C24.1348 30.9033 23.8879 30.7977 23.7603 30.6683L19.3633 26.2749C19.2375 26.1513 19.1359 25.9022 19.1359 25.727V25.4019V24.752V24.4313C19.1359 24.2518 19.2375 24.0027 19.3633 23.8773L23.7603 19.4839C23.8879 19.3545 24.1348 19.2528 24.3125 19.2528H24.6372H25.2871H25.6061C25.7856 19.2528 26.0325 19.3545 26.1583 19.4839L30.5574 23.8773C30.6829 24.0027 30.7845 24.2518 30.7845 24.4313V24.752V25.4019V25.727C30.7845 25.9022 30.6829 26.1513 30.5574 26.2749ZM42.768 38.2285L32.1859 32.1252C31.6179 31.7943 30.9878 31.6667 30.3819 31.7186C28.7675 31.8339 27.4995 33.1816 27.4995 34.822V47.0409C27.4995 48.763 28.889 50.1583 30.6133 50.1583C32.3373 50.1583 33.7307 48.763 33.7307 47.0409V40.2059L39.6564 43.6264C41.1453 44.4915 43.0492 43.9793 43.9081 42.4921C44.7652 41.001 44.2592 39.0896 42.768 38.2285ZM48.3631 21.6627L42.453 25.0811L48.3631 28.4894C49.8561 29.3527 50.3664 31.254 49.5032 32.7491C48.6421 34.2359 46.7368 34.7445 45.2496 33.8852L34.6654 27.774C33.9596 27.3634 33.4694 26.7193 33.2521 25.9959C33.1486 25.6629 33.1007 25.3201 33.1126 24.9813C33.1187 24.7362 33.1544 24.4911 33.2222 24.246C33.4337 23.4844 33.9301 22.805 34.6654 22.376L45.2496 16.2688C46.7368 15.4095 48.6421 15.9202 49.5032 17.411C50.3664 18.9 49.8561 20.8013 48.3631 21.6627ZM220 15.5664C220 17.2798 218.853 18.7099 216.937 18.7099C215.035 18.7099 213.902 17.2663 213.902 15.5664C213.902 13.853 215.035 12.4229 216.937 12.4229C218.853 12.4229 220 13.853 220 15.5664ZM219.393 15.5664C219.393 14.1093 218.422 13.003 216.937 13.003C215.48 13.003 214.509 14.0553 214.509 15.5664C214.509 17.01 215.48 18.1298 216.937 18.1298C218.422 18.1298 219.393 17.0235 219.393 15.5664ZM215.737 14.1498H217.045C217.76 14.1498 218.233 14.541 218.233 15.1482C218.233 15.5259 218.044 15.8092 217.76 15.9846L218.273 16.7267V16.8751H217.531L217.032 16.16H216.452V16.8751H215.737V14.1498ZM217.032 14.8109H216.452V15.5259H217.032C217.302 15.5259 217.477 15.4045 217.477 15.1751C217.477 14.9323 217.315 14.8109 217.032 14.8109Z" fill="#29B5E8"/>
</svg>
