<?xml version="1.0" encoding="UTF-8"?><svg id="Layer_1" xmlns="http://www.w3.org/2000/svg" viewBox="0 0 180 25.2"><defs><style>.cls-1{fill:#f96216;}.cls-2{fill:#00b4f2;}.cls-3{fill:#b200f8;}</style></defs><path d="m37.65,14.7c.03.51.24.96.63,1.35.39.39.96.6,1.74.6.57,0,.99-.12,1.29-.39.27-.24.42-.54.42-.9,0-.3-.12-.54-.33-.78-.21-.21-.57-.39-1.08-.48l-1.71-.39c-1.26-.27-2.16-.75-2.76-1.44-.57-.69-.87-1.5-.87-2.4,0-.57.12-1.11.36-1.65.24-.51.57-.96,1.02-1.35.42-.36.93-.69,1.53-.9.57-.24,1.23-.33,1.92-.33.9,0,1.68.12,2.31.39.63.24,1.14.57,1.53.96s.69.78.87,1.23c.18.42.3.81.33,1.17l-2.91.66c-.03-.18-.09-.39-.18-.6-.09-.21-.21-.39-.39-.57-.18-.18-.39-.3-.63-.42-.24-.09-.57-.15-.93-.15-.45,0-.84.12-1.17.36-.33.24-.48.54-.48.93,0,.3.12.57.33.75.21.18.51.33.84.39l1.83.39c1.26.27,2.22.75,2.88,1.47.63.72.96,1.53.96,2.49,0,.51-.09,1.05-.3,1.53-.21.51-.51.96-.93,1.35-.42.39-.93.72-1.56.96-.63.24-1.35.36-2.19.36-.99,0-1.8-.15-2.46-.42-.66-.27-1.2-.63-1.62-1.02-.42-.39-.72-.84-.93-1.29s-.33-.87-.36-1.23l3-.63Zm15.39-9.03c.96,0,1.86.18,2.67.51.84.33,1.53.81,2.16,1.41.6.6,1.08,1.32,1.41,2.16.33.84.51,1.74.51,2.76s-.18,1.92-.51,2.73c-.33.84-.81,1.56-1.41,2.16s-1.32,1.08-2.16,1.44c-.84.33-1.71.51-2.67.51s-1.86-.18-2.67-.51c-.84-.33-1.53-.81-2.16-1.44-.6-.6-1.08-1.32-1.41-2.16-.33-.84-.51-1.74-.51-2.73s.18-1.92.51-2.76c.33-.84.81-1.56,1.41-2.16.6-.6,1.32-1.08,2.16-1.41s1.71-.51,2.67-.51Zm0,10.5c.42,0,.84-.09,1.23-.24.39-.15.75-.39,1.05-.69.3-.3.54-.69.72-1.14.18-.45.27-.99.27-1.59s-.09-1.14-.27-1.59-.42-.84-.72-1.14c-.3-.3-.66-.54-1.05-.69s-.81-.24-1.23-.24-.84.09-1.23.24c-.39.15-.75.39-1.05.69-.3.3-.54.69-.72,1.14s-.27.99-.27,1.59.09,1.14.27,1.59c.18.45.42.84.72,1.14.3.3.66.54,1.05.69.42.15.84.24,1.23.24Zm17.37,2.79c-.03-.15-.06-.33-.09-.6-.03-.27-.03-.51-.03-.78-.36.6-.87,1.05-1.53,1.32-.66.27-1.35.42-2.04.42-.78,0-1.47-.15-2.07-.42s-1.11-.63-1.53-1.08c-.42-.45-.75-.99-.96-1.62s-.33-1.29-.33-1.98V6.09h3.48v7.41c0,.72.18,1.35.57,1.86.36.51.96.75,1.8.75.78,0,1.38-.24,1.8-.72s.63-1.08.63-1.83v-7.5h3.51v10.56c0,.51,0,.96.03,1.38.03.42.06.72.09.96h-3.33Zm14.25-9.45c-.36-.06-.69-.12-1.05-.12-.45,0-.87.06-1.29.18-.39.12-.75.33-1.05.6s-.54.66-.72,1.11c-.18.45-.27,1.05-.27,1.74v5.88h-3.48V6.03h3.39v1.92c.18-.42.45-.75.75-1.02.3-.27.63-.48.96-.6.33-.15.69-.24,1.02-.3.33-.06.66-.09.93-.09h.42c.12,0,.27.03.42.03l-.03,3.54Zm7.59-.6c-.45,0-.87.09-1.26.24s-.75.39-1.02.69c-.3.3-.54.69-.72,1.14-.18.45-.27.96-.27,1.53s.09,1.08.27,1.53c.18.45.42.84.72,1.14.3.33.66.54,1.05.72.39.15.81.24,1.26.24s.81-.06,1.17-.21c.33-.12.63-.3.87-.51.24-.21.45-.45.6-.72.15-.27.27-.51.33-.75l3.06,1.02c-.15.54-.36,1.08-.69,1.59-.33.51-.75.99-1.23,1.38-.51.42-1.11.75-1.77.99-.69.24-1.44.39-2.31.39-.93,0-1.83-.18-2.67-.51-.84-.33-1.56-.81-2.16-1.44-.6-.6-1.08-1.32-1.44-2.16-.36-.84-.54-1.74-.54-2.73s.18-1.92.51-2.76c.33-.84.81-1.56,1.41-2.16s1.32-1.08,2.13-1.41,1.68-.51,2.64-.51c.87,0,1.65.12,2.34.39.69.24,1.29.57,1.8.99.51.39.93.87,1.23,1.38.3.51.54,1.05.69,1.59l-3.12,1.05c-.15-.54-.45-1.05-.9-1.5-.45-.45-1.11-.63-1.98-.63Zm19.5,6.36c-.15.57-.39,1.08-.75,1.59-.33.51-.75.93-1.26,1.29-.48.36-1.05.66-1.71.87-.66.21-1.38.33-2.16.33-.9,0-1.74-.15-2.55-.45s-1.5-.75-2.13-1.35c-.6-.6-1.11-1.32-1.44-2.16-.36-.84-.54-1.83-.54-2.91,0-1.02.18-1.95.51-2.79.36-.84.81-1.56,1.41-2.13.57-.57,1.26-1.05,2.04-1.35.78-.33,1.56-.48,2.37-.48,2.01,0,3.57.6,4.68,1.77,1.11,1.2,1.68,2.82,1.68,4.89,0,.24,0,.48-.03.69-.03.21-.03.33-.03.39h-9.21c.03.42.12.81.3,1.17.18.36.42.66.72.93.3.27.63.48,1.02.63s.78.21,1.23.21c.81,0,1.47-.18,1.92-.54.45-.36.81-.84,1.02-1.41l2.91.81Zm-3.24-4.23c-.03-.3-.09-.63-.18-.93-.12-.3-.3-.57-.51-.81-.24-.24-.54-.42-.9-.57s-.78-.21-1.26-.21c-.45,0-.84.09-1.2.24s-.66.36-.9.6c-.24.24-.42.51-.57.81-.12.3-.21.6-.21.9l5.73-.03Zm7.89,7.77c.12.72.45,1.29.96,1.74.51.45,1.2.69,2.04.69,1.11,0,1.95-.27,2.55-.84.6-.57.9-1.47.9-2.73v-.93c-.27.42-.69.81-1.29,1.14-.6.33-1.35.51-2.31.51-.87,0-1.65-.15-2.37-.48-.75-.3-1.38-.75-1.89-1.32-.54-.57-.96-1.23-1.26-1.98-.3-.75-.45-1.59-.45-2.49s.15-1.65.45-2.43c.3-.75.72-1.44,1.23-2.01s1.14-1.02,1.89-1.35c.72-.33,1.56-.51,2.43-.51,1.02,0,1.83.18,2.43.54.6.36,1.02.78,1.23,1.2v-1.53h3.36v11.49c0,.9-.12,1.74-.39,2.55-.24.81-.66,1.53-1.2,2.16-.54.63-1.23,1.11-2.1,1.5-.87.36-1.89.57-3.09.57-.9,0-1.71-.12-2.43-.39-.72-.24-1.35-.6-1.89-1.02-.54-.42-.99-.93-1.32-1.5-.33-.57-.54-1.17-.63-1.77l3.15-.81Zm3.45-3.42c.9,0,1.62-.3,2.19-.9s.84-1.38.84-2.37-.3-1.77-.9-2.37c-.6-.57-1.32-.87-2.16-.87-.45,0-.84.09-1.23.21-.39.15-.72.36-.99.66-.27.3-.51.63-.66,1.02-.15.39-.24.84-.24,1.32,0,1.02.3,1.8.87,2.4.63.6,1.38.9,2.28.9Zm17.28-5.88c-.36-.06-.69-.12-1.05-.12-.45,0-.87.06-1.29.18-.39.12-.75.33-1.05.6-.3.27-.54.66-.72,1.11-.18.45-.27,1.05-.27,1.74v5.88h-3.48V6.03h3.39v1.92c.18-.42.45-.75.75-1.02s.63-.48.96-.63c.33-.15.69-.24,1.02-.3s.66-.09.93-.09h.42c.12,0,.27.03.42.03l-.03,3.57Zm1.23,5.94c0-.57.09-1.08.3-1.53.21-.45.48-.84.81-1.17.36-.33.75-.6,1.23-.78.45-.18.96-.33,1.5-.42l3.18-.48c.36-.06.63-.15.75-.33.15-.18.21-.36.21-.6,0-.45-.18-.84-.54-1.17s-.9-.51-1.65-.51-1.35.21-1.77.63-.63.9-.69,1.47l-3.09-.66c.06-.51.21-1.02.48-1.53.27-.51.63-.96,1.08-1.35.45-.39,1.02-.72,1.68-.99.66-.24,1.44-.39,2.31-.39,1.02,0,1.89.12,2.58.42.72.27,1.29.63,1.74,1.08.45.45.78.96.96,1.56.21.6.3,1.2.3,1.86v6.33c0,.36.03.72.06,1.11.03.39.06.69.12.93h-3.18c-.03-.18-.06-.42-.09-.72-.03-.3-.03-.57-.03-.81-.33.51-.81.96-1.44,1.35s-1.41.57-2.37.57c-.69,0-1.29-.12-1.86-.33-.54-.21-1.02-.51-1.41-.87-.39-.36-.69-.78-.87-1.23-.18-.45-.3-.93-.3-1.44Zm5.16,1.26c.36,0,.72-.06,1.05-.15.33-.09.63-.27.9-.51.27-.24.48-.54.63-.93.15-.36.24-.84.24-1.44v-.57l-2.91.45c-.45.06-.84.24-1.14.48-.3.24-.45.63-.45,1.14,0,.39.15.72.42,1.02.3.36.72.51,1.26.51Zm9.21,7.2V6.06h3.39v1.56c.3-.51.78-.93,1.47-1.32.69-.36,1.5-.54,2.49-.54.93,0,1.77.18,2.52.51.72.33,1.35.81,1.86,1.41.51.6.9,1.32,1.17,2.13.27.81.39,1.71.39,2.67s-.15,1.89-.42,2.7c-.3.84-.69,1.53-1.23,2.16-.54.6-1.17,1.08-1.92,1.41-.75.33-1.59.51-2.49.51s-1.65-.15-2.28-.45c-.63-.3-1.11-.69-1.44-1.11v6.24l-3.51-.03Zm9.87-11.4c0-1.14-.3-2.04-.93-2.67-.63-.63-1.38-.93-2.25-.93-.45,0-.87.09-1.26.24-.39.18-.72.39-1.02.72-.3.3-.54.69-.69,1.11-.18.45-.24.96-.24,1.53s.09,1.08.24,1.53c.18.45.39.81.69,1.14.3.33.63.54,1.02.72s.81.24,1.26.24c.9,0,1.65-.33,2.25-.96.6-.63.93-1.53.93-2.67Zm9.12,6.45h-3.48V0h3.48v7.14c.42-.51.96-.87,1.59-1.08.63-.21,1.29-.33,1.89-.33.81,0,1.53.12,2.13.42.6.27,1.11.63,1.5,1.08.39.45.69.99.87,1.62.18.63.3,1.29.3,1.98v8.1h-3.48v-7.5c0-.72-.18-1.35-.57-1.83-.36-.48-.99-.72-1.83-.72-.72,0-1.32.24-1.74.72s-.66,1.08-.69,1.8l.03,7.56Z"/><path class="cls-1" d="m7.11,3.3l5.46,20.04c.36,1.35,1.77,2.13,3.09,1.77,1.35-.36,2.13-1.77,1.77-3.12L11.97,1.95c-.36-1.35-1.77-2.13-3.09-1.77-1.32.39-2.13,1.8-1.77,3.12Z"/><path class="cls-3" d="m17.25,3.24L3.54,18.72c-.93,1.05-.84,2.64.21,3.57,1.05.93,2.64.84,3.57-.21l13.71-15.48c.93-1.05.84-2.64-.21-3.57s-2.64-.84-3.57.21Z"/><path class="cls-2" d="m1.74,11.82l19.53,6.48c1.32.45,2.76-.27,3.18-1.62.45-1.32-.27-2.76-1.59-3.18L3.3,7.02c-1.32-.45-2.76.27-3.18,1.62-.42,1.32.3,2.76,1.62,3.18Z"/></svg>