<svg xmlns="http://www.w3.org/2000/svg" width="180" height="60" fill="none" viewBox="0 0 180 60"><path fill="#000" d="M37.65 31.7q.045.765.63 1.35c.39.39.96.6 1.74.6.57 0 .99-.12 1.29-.39.27-.24.42-.54.42-.9 0-.3-.12-.54-.33-.78-.21-.21-.57-.39-1.08-.48l-1.71-.39c-1.26-.27-2.16-.75-2.76-1.44a3.7 3.7 0 0 1-.87-2.4c0-.57.12-1.11.36-1.65.24-.51.57-.96 1.02-1.35.42-.36.93-.69 1.53-.9.57-.24 1.23-.33 1.92-.33.9 0 1.68.12 2.31.39.63.24 1.14.57 1.53.96s.69.78.87 1.23c.18.42.3.81.33 1.17l-2.91.66c-.03-.18-.09-.39-.18-.6s-.21-.39-.39-.57-.39-.3-.63-.42c-.24-.09-.57-.15-.93-.15q-.675 0-1.17.36c-.33.24-.48.54-.48.93 0 .3.12.57.33.75s.51.33.84.39l1.83.39c1.26.27 2.22.75 2.88 1.47.63.72.96 1.53.96 2.49 0 .51-.09 1.05-.3 1.53-.21.51-.51.96-.93 1.35s-.93.72-1.56.96-1.35.36-2.19.36c-.99 0-1.8-.15-2.46-.42s-1.2-.63-1.62-1.02-.72-.84-.93-1.29-.33-.87-.36-1.23zm15.39-9.03c.96 0 1.86.18 2.67.51.84.33 1.53.81 2.16 1.41.6.6 1.08 1.32 1.41 2.16s.51 1.74.51 2.76c0 .99-.18 1.92-.51 2.73-.33.84-.81 1.56-1.41 2.16q-.9.9-2.16 1.44c-.84.33-1.71.51-2.67.51s-1.86-.18-2.67-.51c-.84-.33-1.53-.81-2.16-1.44-.6-.6-1.08-1.32-1.41-2.16s-.51-1.74-.51-2.73.18-1.92.51-2.76a6.27 6.27 0 0 1 3.57-3.57c.84-.33 1.71-.51 2.67-.51m0 10.5c.42 0 .84-.09 1.23-.24s.75-.39 1.05-.69.54-.69.72-1.14.27-.99.27-1.59-.09-1.14-.27-1.59-.42-.84-.72-1.14-.66-.54-1.05-.69a3.5 3.5 0 0 0-1.23-.24c-.42 0-.84.09-1.23.24s-.75.39-1.05.69-.54.69-.72 1.14-.27.99-.27 1.59.09 1.14.27 1.59.42.84.72 1.14.66.54 1.05.69c.42.15.84.24 1.23.24m17.37 2.79c-.03-.15-.06-.33-.09-.6s-.03-.51-.03-.78c-.36.6-.87 1.05-1.53 1.32s-1.35.42-2.04.42c-.78 0-1.47-.15-2.07-.42q-.9-.405-1.53-1.08c-.42-.45-.75-.99-.96-1.62a6.2 6.2 0 0 1-.33-1.98v-8.13h3.48v7.41c0 .72.18 1.35.57 1.86.36.51.96.75 1.8.75q1.17 0 1.8-.72c.42-.48.63-1.08.63-1.83v-7.5h3.51v10.56c0 .51 0 .96.03 1.38s.06.72.09.96zm14.25-9.45c-.36-.06-.69-.12-1.05-.12-.45 0-.87.06-1.29.18-.39.12-.75.33-1.05.6s-.54.66-.72 1.11-.27 1.05-.27 1.74v5.88H76.8V23.03h3.39v1.92c.18-.42.45-.75.75-1.02s.63-.48.96-.6c.33-.15.69-.24 1.02-.3s.66-.09.93-.09h.42c.12 0 .27.03.42.03zm7.59-.6c-.45 0-.87.09-1.26.24s-.75.39-1.02.69c-.3.3-.54.69-.72 1.14q-.27.675-.27 1.53t.27 1.53c.18.45.42.84.72 1.14.3.33.66.54 1.05.72.39.15.81.24 1.26.24s.81-.06 1.17-.21c.33-.12.63-.3.87-.51s.45-.45.6-.72.27-.51.33-.75l3.06 1.02c-.15.54-.36 1.08-.69 1.59s-.75.99-1.23 1.38c-.51.42-1.11.75-1.77.99-.69.24-1.44.39-2.31.39-.93 0-1.83-.18-2.67-.51a5.9 5.9 0 0 1-2.16-1.44 6.8 6.8 0 0 1-1.44-2.16c-.36-.84-.54-1.74-.54-2.73s.18-1.92.51-2.76.81-1.56 1.41-2.16 1.32-1.08 2.13-1.41a6.9 6.9 0 0 1 2.64-.51c.87 0 1.65.12 2.34.39q1.035.36 1.8.99c.51.39.93.87 1.23 1.38s.54 1.05.69 1.59l-3.12 1.05c-.15-.54-.45-1.05-.9-1.5s-1.11-.63-1.98-.63m19.5 6.36a4.8 4.8 0 0 1-.75 1.59c-.33.51-.75.93-1.26 1.29-.48.36-1.05.66-1.71.87s-1.38.33-2.16.33c-.9 0-1.74-.15-2.55-.45s-1.5-.75-2.13-1.35c-.6-.6-1.11-1.32-1.44-2.16-.36-.84-.54-1.83-.54-2.91 0-1.02.18-1.95.51-2.79.36-.84.81-1.56 1.41-2.13.57-.57 1.26-1.05 2.04-1.35.78-.33 1.56-.48 2.37-.48 2.01 0 3.57.6 4.68 1.77 1.11 1.2 1.68 2.82 1.68 4.89 0 .24 0 .48-.03.69s-.03.33-.03.39h-9.21c.03.42.12.81.3 1.17s.42.66.72.93.63.48 1.02.63.78.21 1.23.21c.81 0 1.47-.18 1.92-.54s.81-.84 1.02-1.41zm-3.24-4.23c-.03-.3-.09-.63-.18-.93-.12-.3-.3-.57-.51-.81-.24-.24-.54-.42-.9-.57s-.78-.21-1.26-.21c-.45 0-.84.09-1.2.24s-.66.36-.9.6-.42.51-.57.81c-.12.3-.21.6-.21.9zm7.89 7.77c.12.72.45 1.29.96 1.74s1.2.69 2.04.69c1.11 0 1.95-.27 2.55-.84s.9-1.47.9-2.73v-.93c-.27.42-.69.81-1.29 1.14s-1.35.51-2.31.51c-.87 0-1.65-.15-2.37-.48-.75-.3-1.38-.75-1.89-1.32q-.81-.855-1.26-1.98c-.3-.75-.45-1.59-.45-2.49 0-.87.15-1.65.45-2.43.3-.75.72-1.44 1.23-2.01q.765-.855 1.89-1.35c.72-.33 1.56-.51 2.43-.51q1.53 0 2.43.54c.6.36 1.02.78 1.23 1.2v-1.53h3.36v11.49c0 .9-.12 1.74-.39 2.55-.24.81-.66 1.53-1.2 2.16s-1.23 1.11-2.1 1.5c-.87.36-1.89.57-3.09.57-.9 0-1.71-.12-2.43-.39-.72-.24-1.35-.6-1.89-1.02s-.99-.93-1.32-1.5-.54-1.17-.63-1.77zm3.45-3.42c.9 0 1.62-.3 2.19-.9s.84-1.38.84-2.37-.3-1.77-.9-2.37c-.6-.57-1.32-.87-2.16-.87-.45 0-.84.09-1.23.21-.39.15-.72.36-.99.66s-.51.63-.66 1.02-.24.84-.24 1.32c0 1.02.3 1.8.87 2.4.63.6 1.38.9 2.28.9m17.28-5.88c-.36-.06-.69-.12-1.05-.12-.45 0-.87.06-1.29.18-.39.12-.75.33-1.05.6s-.54.66-.72 1.11-.27 1.05-.27 1.74v5.88h-3.48V23.03h3.39v1.92c.18-.42.45-.75.75-1.02s.63-.48.96-.63.69-.24 1.02-.3.66-.09.93-.09h.42c.12 0 .27.03.42.03zm1.23 5.94c0-.57.09-1.08.3-1.53q.315-.675.81-1.17c.36-.33.75-.6 1.23-.78.45-.18.96-.33 1.5-.42l3.18-.48c.36-.06.63-.15.75-.33.15-.18.21-.36.21-.6q0-.675-.54-1.17c-.36-.33-.9-.51-1.65-.51-.78 0-1.35.21-1.77.63s-.63.9-.69 1.47l-3.09-.66c.06-.51.21-1.02.48-1.53q.405-.765 1.08-1.35c.45-.39 1.02-.72 1.68-.99.66-.24 1.44-.39 2.31-.39 1.02 0 1.89.12 2.58.42.72.27 1.29.63 1.74 1.08s.78.96.96 1.56c.21.6.3 1.2.3 1.86v6.33c0 .36.03.72.06 1.11s.06.69.12.93h-3.18q-.045-.27-.09-.72c-.03-.3-.03-.57-.03-.81q-.495.765-1.44 1.35c-.63.39-1.41.57-2.37.57-.69 0-1.29-.12-1.86-.33a4.5 4.5 0 0 1-1.41-.87c-.39-.36-.69-.78-.87-1.23s-.3-.93-.3-1.44m5.16 1.26c.36 0 .72-.06 1.05-.15s.63-.27.9-.51.48-.54.63-.93c.15-.36.24-.84.24-1.44v-.57l-2.91.45c-.45.06-.84.24-1.14.48s-.45.63-.45 1.14c0 .39.15.72.42 1.02.3.36.72.51 1.26.51m9.21 7.2V23.06h3.39v1.56c.3-.51.78-.93 1.47-1.32.69-.36 1.5-.54 2.49-.54.93 0 1.77.18 2.52.51.72.33 1.35.81 1.86 1.41s.9 1.32 1.17 2.13.39 1.71.39 2.67c0 .99-.15 1.89-.42 2.7-.3.84-.69 1.53-1.23 2.16-.54.6-1.17 1.08-1.92 1.41s-1.59.51-2.49.51-1.65-.15-2.28-.45-1.11-.69-1.44-1.11v6.24zm9.87-11.4c0-1.14-.3-2.04-.93-2.67s-1.38-.93-2.25-.93c-.45 0-.87.09-1.26.24-.39.18-.72.39-1.02.72-.3.3-.54.69-.69 1.11-.18.45-.24.96-.24 1.53s.09 1.08.24 1.53c.18.45.39.81.69 1.14s.63.54 1.02.72.81.24 1.26.24c.9 0 1.65-.33 2.25-.96s.93-1.53.93-2.67m9.12 6.45h-3.48V17h3.48v7.14c.42-.51.96-.87 1.59-1.08s1.29-.33 1.89-.33c.81 0 1.53.12 2.13.42.6.27 1.11.63 1.5 1.08s.69.99.87 1.62.3 1.29.3 1.98v8.1h-3.48v-7.5c0-.72-.18-1.35-.57-1.83-.36-.48-.99-.72-1.83-.72-.72 0-1.32.24-1.74.72s-.66 1.08-.69 1.8z"/><path fill="#f96216" d="m7.11 20.3 5.46 20.04c.36 1.35 1.77 2.13 3.09 1.77 1.35-.36 2.13-1.77 1.77-3.12l-5.46-20.04c-.36-1.35-1.77-2.13-3.09-1.77-1.32.39-2.13 1.8-1.77 3.12"/><path fill="#b200f8" d="M17.25 20.24 3.54 35.72c-.93 1.05-.84 2.64.21 3.57s2.64.84 3.57-.21L21.03 23.6c.93-1.05.84-2.64-.21-3.57a2.52 2.52 0 0 0-3.57.21"/><path fill="#00b4f2" d="m1.74 28.82 19.53 6.48c1.32.45 2.76-.27 3.18-1.62.45-1.32-.27-2.76-1.59-3.18L3.3 24.02c-1.32-.45-2.76.27-3.18 1.62-.42 1.32.3 2.76 1.62 3.18"/></svg>