<svg width="220" height="32" viewBox="0 0 220 32" fill="none" xmlns="http://www.w3.org/2000/svg">
<g clip-path="url(#clip0)">
<path fill-rule="evenodd" clip-rule="evenodd" d="M46.201 18.2015C46.2431 18.82 46.4992 19.3729 46.9682 19.8628C47.436 20.3527 48.1401 20.5988 49.0781 20.5988C49.7822 20.5988 50.3032 20.4442 50.646 20.135C50.9851 19.8268 51.1571 19.4583 51.1571 19.0327C51.1571 18.6703 51.0284 18.3561 50.7722 18.0889C50.5161 17.823 50.0792 17.6263 49.4617 17.4976L47.384 17.0177C45.8495 16.6775 44.7296 16.0862 44.0267 15.2438C43.3239 14.4026 42.9712 13.4279 42.9712 12.3195C42.9712 11.6157 43.1197 10.9514 43.4191 10.3218C43.7174 9.69335 44.127 9.15031 44.6504 8.69137C45.1726 8.23368 45.7901 7.86629 46.5054 7.5892C47.2194 7.31335 48.0015 7.1748 48.8554 7.1748C49.9629 7.1748 50.9009 7.32943 51.6681 7.63868C52.4354 7.94793 53.0591 8.33635 53.538 8.80518C54.0181 9.274 54.3745 9.76881 54.6083 10.2908C54.8423 10.8128 54.9809 11.2866 55.0242 11.7134L51.4763 12.5112C51.433 12.2775 51.3637 12.0375 51.2684 11.7925C51.1732 11.5476 51.0185 11.3188 50.8056 11.1048C50.5916 10.892 50.3317 10.7213 50.0223 10.5939C49.7129 10.4665 49.3355 10.4022 48.8876 10.4022C48.3332 10.4022 47.8592 10.5518 47.4645 10.8487C47.0709 11.1481 46.8729 11.5204 46.8729 11.967C46.8729 12.3504 47.0053 12.6597 47.2726 12.8947C47.5387 13.1285 47.8852 13.2881 48.3121 13.3734L50.5495 13.8522C52.105 14.1725 53.2719 14.7688 54.0503 15.6421C54.8287 16.5167 55.2172 17.5273 55.2172 18.6777C55.2172 19.3184 55.0935 19.9456 54.8497 20.5629C54.6034 21.1815 54.226 21.7344 53.7149 22.2254C53.2039 22.7165 52.5641 23.1099 51.7969 23.408C51.0296 23.705 50.1349 23.8547 49.1115 23.8547C47.9186 23.8547 46.9175 23.6839 46.1069 23.3437C45.2964 23.0035 44.6368 22.5867 44.1245 22.0968C43.6122 21.6069 43.2348 21.08 42.9897 20.5159C42.7447 19.9506 42.5999 19.4459 42.5579 18.9981L46.201 18.2015Z" fill="#151C28"/>
<path fill-rule="evenodd" clip-rule="evenodd" d="M64.9912 7.1748C66.1631 7.1748 67.2558 7.38138 68.268 7.79702C69.2803 8.21265 70.1539 8.78786 70.8902 9.52264C71.6253 10.2574 72.2007 11.1369 72.6166 12.1587C73.0323 13.1817 73.2401 14.3 73.2401 15.5147C73.2401 16.7294 73.0323 17.8415 72.6166 18.8546C72.2007 19.8677 71.6253 20.746 70.8902 21.4907C70.1552 22.2378 69.2803 22.8168 68.268 23.2324C67.2558 23.648 66.1631 23.8559 64.9912 23.8559C63.8181 23.8559 62.7254 23.648 61.7144 23.2324C60.7021 22.8168 59.8285 22.2366 59.0934 21.4907C58.3571 20.746 57.7817 19.8677 57.3659 18.8546C56.9501 17.8415 56.7422 16.7294 56.7422 15.5147C56.7422 14.3012 56.9501 13.1817 57.3659 12.1587C57.7817 11.1357 58.3571 10.2574 59.0934 9.52264C59.8285 8.78786 60.7021 8.21265 61.7144 7.79702C62.7266 7.38262 63.8193 7.1748 64.9912 7.1748ZM64.9914 19.9891C65.5037 19.9891 66.0036 19.8951 66.4937 19.7022C66.9837 19.5116 67.4106 19.2284 67.7732 18.856C68.1346 18.4837 68.4278 18.0198 68.653 17.4656C68.8771 16.9114 68.9884 16.262 68.9884 15.5161C68.9884 14.7702 68.8771 14.1208 68.653 13.5666C68.4278 13.0136 68.1358 12.5498 67.7732 12.1762C67.4106 11.8038 66.9849 11.5218 66.4937 11.3288C66.0036 11.1371 65.5037 11.0418 64.9914 11.0418C64.4803 11.0418 63.9791 11.1371 63.4891 11.3288C62.999 11.5206 62.5733 11.8038 62.2108 12.1762C61.8482 12.5498 61.5561 13.0136 61.3322 13.5666C61.1082 14.1208 60.9968 14.7702 60.9968 15.5161C60.9968 16.262 61.1094 16.9102 61.3322 17.4656C61.5561 18.0198 61.8482 18.4837 62.2108 18.856C62.5733 19.2284 62.999 19.5104 63.4891 19.7022C63.9791 19.8951 64.4803 19.9891 64.9914 19.9891Z" fill="#151C28"/>
<path fill-rule="evenodd" clip-rule="evenodd" d="M86.1907 23.3789C86.1474 23.2069 86.1153 22.9632 86.0955 22.6428C86.0732 22.3224 86.0633 22.0034 86.0633 21.6842C85.6363 22.4313 85.0127 22.9682 84.1935 23.2997C83.3718 23.6287 82.5464 23.7945 81.716 23.7945C80.757 23.7945 79.9106 23.6275 79.1743 23.2997C78.4392 22.9682 77.8155 22.5266 77.3044 21.9723C76.7921 21.4183 76.4036 20.7626 76.1375 20.0068C75.8714 19.251 75.7378 18.4457 75.7378 17.5946V7.65527H79.9898V16.7312C79.9898 17.6268 80.2187 18.3764 80.6778 18.9838C81.1357 19.5899 81.8658 19.8942 82.8681 19.8942C83.8272 19.8942 84.5635 19.6072 85.0745 19.032C85.5856 18.4568 85.8418 17.7109 85.8418 16.7943V7.65527H90.0937V20.5337C90.0937 21.1522 90.1098 21.7114 90.142 22.2124C90.1741 22.7134 90.2113 23.1018 90.2533 23.3789H86.1907Z" fill="#151C28"/>
<path fill-rule="evenodd" clip-rule="evenodd" d="M103.6 11.8729C103.175 11.7876 102.749 11.7443 102.322 11.7443C101.768 11.7443 101.246 11.8198 100.755 11.9682C100.265 12.1179 99.8385 12.3628 99.4772 12.703C99.1146 13.0444 98.8213 13.4971 98.5986 14.0612C98.3746 14.6265 98.2632 15.3353 98.2632 16.1864V23.3771H94.01V7.65476H98.1345V9.98775C98.3684 9.47563 98.6728 9.05628 99.0453 8.72477C99.4178 8.39572 99.8125 8.14585 100.228 7.9739C100.643 7.8032 101.06 7.68692 101.474 7.62259C101.89 7.55951 102.269 7.52734 102.609 7.52734C102.78 7.52734 102.945 7.53229 103.104 7.54342C103.264 7.55456 103.43 7.57064 103.599 7.59167V11.8729H103.6Z" fill="#151C28"/>
<path fill-rule="evenodd" clip-rule="evenodd" d="M112.839 11.106C112.285 11.106 111.767 11.2025 111.289 11.393C110.808 11.586 110.388 11.868 110.026 12.2403C109.664 12.6139 109.375 13.0766 109.163 13.6307C108.948 14.1849 108.843 14.8133 108.843 15.5159C108.843 16.2186 108.948 16.8482 109.163 17.4011C109.375 17.9565 109.669 18.4229 110.041 18.8076C110.414 19.1923 110.841 19.4793 111.319 19.6698C111.8 19.8616 112.316 19.9568 112.87 19.9568C113.403 19.9568 113.877 19.8789 114.293 19.7181C114.708 19.5585 115.065 19.3507 115.365 19.0946C115.663 18.8385 115.903 18.5516 116.084 18.2324C116.264 17.9133 116.398 17.604 116.483 17.3059L120.223 18.5516C120.052 19.2134 119.77 19.8591 119.375 20.485C118.981 21.1134 118.475 21.6775 117.857 22.1796C117.238 22.6794 116.514 23.0839 115.683 23.3919C114.852 23.7013 113.913 23.8559 112.87 23.8559C111.719 23.8559 110.638 23.648 109.625 23.2324C108.613 22.8168 107.735 22.2366 106.988 21.4907C106.242 20.746 105.657 19.8665 105.231 18.8546C104.804 17.8427 104.59 16.7294 104.59 15.5147C104.59 14.3012 104.798 13.1817 105.214 12.1587C105.63 11.1357 106.205 10.2574 106.941 9.52264C107.676 8.78786 108.54 8.21265 109.53 7.79702C110.521 7.38262 111.593 7.1748 112.743 7.1748C113.809 7.1748 114.762 7.32943 115.604 7.63868C116.445 7.94793 117.175 8.34625 117.794 8.83734C118.413 9.3272 118.913 9.89128 119.296 10.5308C119.68 11.1703 119.957 11.8198 120.128 12.4803L116.324 13.7582C116.132 13.0988 115.763 12.4915 115.22 11.9373C114.677 11.3831 113.882 11.106 112.839 11.106Z" fill="#151C28"/>
<path fill-rule="evenodd" clip-rule="evenodd" d="M136.699 18.8715C136.508 19.5531 136.206 20.1964 135.79 20.8037C135.375 21.4098 134.867 21.938 134.27 22.3846C133.673 22.8324 132.976 23.1874 132.177 23.4546C131.378 23.7218 130.5 23.8541 129.54 23.8541C128.452 23.8541 127.419 23.6673 126.439 23.295C125.459 22.9215 124.595 22.3734 123.85 21.6498C123.104 20.9249 122.512 20.0416 122.076 18.9952C121.639 17.9536 121.421 16.7698 121.421 15.4487C121.421 14.1919 121.633 13.0514 122.061 12.0296C122.486 11.0066 123.057 10.1395 123.771 9.4257C124.485 8.71195 125.31 8.15777 126.25 7.7644C127.186 7.3698 128.156 7.17188 129.158 7.17188C131.608 7.17188 133.515 7.89676 134.881 9.34529C136.245 10.7938 136.925 12.7854 136.925 15.3213C136.925 15.6206 136.915 15.9014 136.894 16.1686C136.872 16.4346 136.863 16.5892 136.863 16.6313H125.61C125.631 17.1421 125.755 17.6172 125.979 18.0526C126.201 18.4905 126.49 18.869 126.841 19.1882C127.192 19.5073 127.603 19.7584 128.072 19.939C128.541 20.1197 129.041 20.2099 129.575 20.2099C130.576 20.2099 131.358 19.9848 131.923 19.5383C132.489 19.0917 132.9 18.5165 133.153 17.8126L136.699 18.8715ZM132.737 13.7255C132.715 13.3421 132.638 12.9635 132.499 12.5912C132.361 12.2189 132.148 11.8886 131.86 11.6016C131.57 11.3134 131.21 11.0796 130.772 10.899C130.334 10.7184 129.818 10.6268 129.22 10.6268C128.667 10.6268 128.177 10.7233 127.752 10.9151C127.325 11.1068 126.962 11.353 126.665 11.6498C126.366 11.9492 126.138 12.2782 125.978 12.6407C125.817 13.0031 125.727 13.3643 125.706 13.7268H132.737V13.7255Z" fill="#151C28"/>
<path fill-rule="evenodd" clip-rule="evenodd" d="M142.33 23.2175C142.477 24.0908 142.873 24.8033 143.511 25.3587C144.152 25.9117 144.983 26.1888 146.006 26.1888C147.348 26.1888 148.382 25.8423 149.107 25.151C149.832 24.457 150.195 23.3436 150.195 21.8109V20.6594C149.873 21.1715 149.351 21.6353 148.626 22.051C147.903 22.4654 146.965 22.6731 145.816 22.6731C144.769 22.6731 143.8 22.4827 142.905 22.098C142.008 21.7145 141.237 21.1826 140.587 20.4997C139.938 19.8182 139.425 19.0141 139.053 18.0876C138.678 17.1611 138.492 16.1443 138.492 15.0359C138.492 13.9919 138.673 13.0072 139.035 12.0795C139.398 11.1529 139.898 10.3378 140.539 9.6339C141.178 8.93129 141.946 8.37711 142.839 7.97261C143.737 7.5681 144.727 7.36523 145.814 7.36523C147.072 7.36523 148.062 7.58913 148.784 8.03569C149.509 8.48225 150.012 8.97334 150.288 9.50526V7.65469H154.38V21.6836C154.38 22.7709 154.225 23.8087 153.919 24.7996C153.609 25.7917 153.123 26.6638 152.463 27.4208C151.801 28.1766 150.947 28.784 149.907 29.2416C148.862 29.6994 147.604 29.9294 146.134 29.9294C145.046 29.9294 144.06 29.7748 143.175 29.4668C142.29 29.1576 141.517 28.7419 140.857 28.2199C140.197 27.6967 139.663 27.0906 139.259 26.3991C138.854 25.7051 138.597 24.9864 138.491 24.2418L142.33 23.2175ZM146.547 19.0314C147.632 19.0314 148.524 18.6689 149.215 17.944C149.909 17.2204 150.254 16.2506 150.254 15.0358C150.254 13.8211 149.892 12.8575 149.167 12.1437C148.441 11.43 147.569 11.0725 146.547 11.0725C146.012 11.0725 145.517 11.164 145.061 11.3446C144.602 11.5252 144.201 11.7912 143.859 12.1437C143.519 12.495 143.253 12.9168 143.061 13.4067C142.87 13.8966 142.774 14.4408 142.774 15.0358C142.774 16.2728 143.124 17.2476 143.828 17.9601C144.531 18.6739 145.438 19.0314 146.547 19.0314Z" fill="#151C28"/>
<path fill-rule="evenodd" clip-rule="evenodd" d="M167.679 11.8729C167.253 11.7876 166.828 11.7443 166.401 11.7443C165.848 11.7443 165.325 11.8198 164.834 11.9682C164.343 12.1166 163.918 12.3628 163.556 12.703C163.193 13.0444 162.901 13.4971 162.676 14.0612C162.453 14.6265 162.342 15.3353 162.342 16.1864V23.3771H158.087V7.65476H162.211V9.98775C162.447 9.47563 162.75 9.05628 163.124 8.72477C163.496 8.39572 163.89 8.14585 164.306 7.9739C164.722 7.8032 165.137 7.68692 165.553 7.62259C165.969 7.55951 166.346 7.52734 166.687 7.52734C166.859 7.52734 167.022 7.53229 167.182 7.54342C167.344 7.55456 167.508 7.57064 167.677 7.59167V11.8729H167.679Z" fill="#151C28"/>
<path fill-rule="evenodd" clip-rule="evenodd" d="M169.147 19.0939C169.147 18.3913 169.27 17.7678 169.514 17.2235C169.758 16.6792 170.095 16.2067 170.519 15.8022C170.947 15.3977 171.442 15.0786 172.005 14.8448C172.571 14.611 173.185 14.4403 173.844 14.3326L177.714 13.7574C178.16 13.6943 178.47 13.5607 178.639 13.3591C178.811 13.1563 178.896 12.9175 178.896 12.6392C178.896 12.085 178.678 11.6063 178.241 11.2005C177.803 10.796 177.138 10.5932 176.242 10.5932C175.304 10.5932 174.587 10.8492 174.084 11.3601C173.584 11.8722 173.301 12.4685 173.238 13.1501L169.465 12.351C169.528 11.7325 169.721 11.1152 170.04 10.4967C170.359 9.87942 170.796 9.32524 171.351 8.83539C171.906 8.34553 172.588 7.94598 173.397 7.63673C174.207 7.32748 175.145 7.17285 176.21 7.17285C177.445 7.17285 178.502 7.33737 179.377 7.66765C180.249 7.99793 180.957 8.43459 181.502 8.97764C182.045 9.52068 182.44 10.1553 182.683 10.8789C182.93 11.6038 183.053 12.3596 183.053 13.1476V20.8814C183.053 21.3082 183.073 21.7609 183.117 22.2396C183.16 22.7183 183.201 23.0969 183.245 23.3752H179.345C179.301 23.1624 179.266 22.8692 179.233 22.4957C179.202 22.1234 179.185 21.7881 179.185 21.4887C178.779 22.1072 178.199 22.6503 177.443 23.1191C176.687 23.588 175.721 23.8217 174.55 23.8217C173.718 23.8217 172.967 23.6893 172.297 23.4209C171.625 23.1549 171.055 22.8049 170.586 22.367C170.117 21.9291 169.759 21.4293 169.515 20.8653C169.272 20.3012 169.147 19.7124 169.147 19.0939ZM175.446 20.6597C175.89 20.6597 176.323 20.6016 176.739 20.4841C177.155 20.3666 177.522 20.165 177.844 19.8779C178.163 19.5897 178.417 19.2174 178.61 18.7585C178.801 18.302 178.897 17.7194 178.897 17.018V16.3154L175.349 16.8572C174.796 16.9425 174.33 17.1405 173.96 17.4497C173.585 17.759 173.399 18.2228 173.399 18.8389C173.399 19.3089 173.569 19.7308 173.911 20.1019C174.252 20.473 174.761 20.6597 175.446 20.6597Z" fill="#151C28"/>
<path fill-rule="evenodd" clip-rule="evenodd" d="M186.7 29.4489V7.65404H190.826V9.5714C191.189 8.9529 191.783 8.42099 192.614 7.97319C193.446 7.5254 194.458 7.30273 195.652 7.30273C196.803 7.30273 197.825 7.50931 198.721 7.92495C199.616 8.34058 200.377 8.91703 201.008 9.65181C201.637 10.3866 202.111 11.25 202.429 12.2409C202.748 13.2317 202.908 14.3128 202.908 15.4843C202.908 16.678 202.733 17.7789 202.38 18.792C202.03 19.8027 201.529 20.6773 200.879 21.4121C200.227 22.1468 199.446 22.7245 198.528 23.1377C197.612 23.5533 196.599 23.7623 195.493 23.7623C194.405 23.7623 193.472 23.5755 192.694 23.2032C191.918 22.8297 191.335 22.3769 190.951 21.845V29.4501H186.7V29.4489ZM198.72 15.5151C198.72 14.1086 198.34 13.0226 197.584 12.2544C196.828 11.4874 195.907 11.104 194.82 11.104C194.264 11.104 193.754 11.2054 193.285 11.4083C192.816 11.6111 192.4 11.8981 192.038 12.2717C191.675 12.6453 191.394 13.1017 191.191 13.6448C190.988 14.1878 190.887 14.8113 190.887 15.5151C190.887 16.2177 190.988 16.8424 191.191 17.383C191.394 17.9261 191.675 18.3899 192.038 18.7746C192.4 19.1593 192.816 19.4513 193.285 19.6529C193.754 19.857 194.264 19.956 194.82 19.956C195.907 19.956 196.828 19.5688 197.584 18.7907C198.342 18.0139 198.72 16.9216 198.72 15.5151Z" fill="#151C28"/>
<path fill-rule="evenodd" clip-rule="evenodd" d="M209.946 23.3785H205.694V0.240234H209.946V8.96485C210.458 8.34633 211.108 7.90596 211.896 7.63877C212.684 7.37158 213.453 7.23922 214.196 7.23922C215.2 7.23922 216.067 7.40374 216.801 7.73402C217.539 8.0643 218.145 8.50715 218.624 9.06132C219.105 9.61551 219.461 10.2748 219.694 11.043C219.928 11.81 220.047 12.6189 220.047 13.4713V23.3785H215.795V14.206C215.795 13.3104 215.565 12.5658 215.106 11.9683C214.649 11.3721 213.907 11.0739 212.885 11.0739C211.99 11.0739 211.287 11.3659 210.775 11.9522C210.265 12.5386 209.986 13.2684 209.943 14.1417V23.3785H209.946Z" fill="#151C28"/>
<path fill-rule="evenodd" clip-rule="evenodd" d="M8.88718 4.29171L15.5683 28.7445C16.0181 30.3874 17.7119 31.3551 19.3529 30.9067C20.9938 30.4557 21.9593 28.7586 21.5108 27.1158L14.8283 2.6617C14.3785 1.01879 12.6847 0.0510952 11.0437 0.500799C9.40409 0.950502 8.43731 2.64752 8.88718 4.29171Z" fill="#F96216"/>
<path fill-rule="evenodd" clip-rule="evenodd" d="M21.3523 4.19838L4.62066 23.1129C3.49275 24.3887 3.61005 26.3395 4.88362 27.4695C6.15719 28.5996 8.10363 28.4811 9.23154 27.2054L25.9633 8.29081C27.0912 7.01514 26.9738 5.06557 25.7002 3.93552C24.4266 2.80546 22.4815 2.92272 21.3523 4.19838Z" fill="#B200F8"/>
<path fill-rule="evenodd" clip-rule="evenodd" d="M2.35323 14.6816L26.2145 22.583C27.8298 23.119 29.5713 22.2402 30.1061 20.6231C30.6411 19.0047 29.7633 17.26 28.1494 16.7265L4.28679 8.8213C2.67163 8.28784 0.930141 9.16406 0.39648 10.7825C-0.13847 12.4009 0.738075 14.1456 2.35323 14.6816Z" fill="#00B4F2"/>
</g>
<defs>
<clipPath id="clip0">
<rect width="220" height="31.2568" fill="white"/>
</clipPath>
</defs>
</svg>
