<svg width="1058" height="236" viewBox="0 0 1058 236" fill="none" xmlns="http://www.w3.org/2000/svg">
<g clip-path="url(#clip0_148_1813)">
<path d="M322.76 67H375.73L376.4 67.63L376.92 68.15C381.6 72.89 386.33 77.58 391.05 82.29C385.93 87.28 380.91 92.38 375.85 97.43C372.13 93.76 368.49 90 364.73 86.38C354.61 86.49 344.42 86.27 334.31 86.47C332 87.76 330.08 90.47 328.06 92.26C328.07 95.51 327.89 98.79 328.1 102.04C329.17 103.8 330.94 105.3 332.51 106.63C336.62 107.29 340.84 106.68 345 107.54C355.56 108.1 366.12 108.97 376.7 109.24C381.97 114.44 387.21 119.68 392.41 124.95C392.39 134.03 392.34 143.12 392.43 152.2C387.48 157.33 382.35 162.27 377.37 167.37C376.31 168.31 375.69 169.39 374.09 169.23C355.74 169.21 337.4 169.23 319.06 169.22C313.68 164.04 308.67 158.38 303 153.52V153.4C308.19 148.48 313.14 143.27 318.26 138.26C322.16 142.15 326.03 146.05 329.94 149.92C341.28 149.85 352.67 150.03 363.99 149.84C366.38 148.37 368.29 145.68 370.43 143.8C370.46 140.41 370.44 137.01 370.53 133.62C369.08 132.06 367.67 130.36 365.97 129.07C361.18 128.14 355.8 128.12 350.93 127.97C341.11 126.86 331.19 126.82 321.35 125.98C316.14 120.74 310.82 115.59 305.69 110.25C305.82 101.5 305.75 92.75 305.73 84C311.38 78.31 317.05 72.63 322.76 67Z" fill="#000031"/>
<path fill-rule="evenodd" clip-rule="evenodd" d="M483.09 67H414.11C414.158 90.305 414.145 113.629 414.132 136.949C414.126 147.711 414.12 158.472 414.12 169.23C421.48 169.21 428.83 169.22 436.18 169.23C436.18 165.947 436.178 162.664 436.176 159.379C436.17 150.619 436.164 141.854 436.2 133.09C446.235 133.026 456.275 133.036 466.313 133.046C471.889 133.052 477.465 133.057 483.04 133.05C488.73 127.41 494.42 121.75 500.05 116.05C500.03 105.34 500.03 94.64 500.04 83.93L497.064 80.941C492.424 76.281 487.777 71.613 483.09 67ZM456.338 86.58C449.621 86.56 442.904 86.54 436.19 86.68C436.188 88.642 436.184 90.604 436.179 92.567C436.165 99.435 436.15 106.302 436.22 113.17C442.333 113.251 448.446 113.239 454.557 113.226C459.713 113.215 464.867 113.204 470.02 113.25C472.38 113.718 474.259 111.639 475.958 109.76C476.585 109.067 477.187 108.401 477.78 107.9C477.75 102.64 477.74 97.38 477.78 92.12C475.93 90.24 474.05 88.38 472.14 86.55C466.874 86.612 461.606 86.596 456.338 86.58Z" fill="#000031"/>
<path d="M521.24 67H603.17C603.14 73.53 603.16 80.07 603.16 86.6C583.18 86.61 563.18 86.48 543.2 86.67C543.19 93.77 543.13 100.88 543.23 107.99C560.71 108.17 578.21 108.08 595.69 108.03C595.62 114.68 595.66 121.34 595.67 128C578.18 128.04 560.69 127.97 543.19 128.04C543.16 135.11 543.21 142.18 543.16 149.26C563.16 149.46 583.17 149.28 603.16 149.36C603.15 155.98 603.16 162.61 603.17 169.23C575.86 169.21 548.55 169.22 521.24 169.23C521.28 135.16 521.26 101.08 521.24 67Z" fill="#000031"/>
<path fill-rule="evenodd" clip-rule="evenodd" d="M680.29 67H657.81C651.05 83.98 644.382 101.057 637.715 118.135C631.047 135.212 624.38 152.29 617.62 169.27C621.527 169.204 625.432 169.213 629.336 169.222C633.105 169.23 636.872 169.239 640.64 169.18C641.777 165.459 643.116 161.799 644.453 158.141C645.539 155.173 646.624 152.207 647.6 149.21C661.55 149.13 675.5 149.16 689.44 149.19C691.74 155.9 694.08 162.62 696.58 169.26C704.52 169.2 712.48 169.19 720.42 169.26C710.509 144.156 700.68 119.013 690.853 93.872C687.433 85.124 684.013 76.376 680.59 67.63L680.29 67ZM674.6 107.944C672.605 102.453 670.61 96.961 668.74 91.43C667.46 93.79 666.5 96.24 665.68 98.79C664.304 102.665 662.919 106.536 661.524 110.404C659.223 116.8 656.922 123.196 654.71 129.62C663.85 129.69 673.02 129.69 682.16 129.62C679.829 122.337 677.214 115.141 674.6 107.944ZM808.18 67H739.26C739.262 74.864 739.266 82.727 739.27 90.59C739.283 116.807 739.296 143.021 739.25 169.23L742.383 169.225C748.649 169.216 754.916 169.206 761.19 169.24C761.198 164.474 761.192 159.707 761.187 154.941C761.179 146.997 761.17 139.054 761.22 131.11C766.361 131.049 771.502 131.057 776.641 131.065C779.038 131.069 781.434 131.073 783.83 131.07C790.93 143.75 797.94 156.48 804.9 169.24C807.518 169.246 810.137 169.235 812.755 169.223C818.43 169.198 824.105 169.173 829.77 169.33C826.27 163.109 822.803 156.868 819.336 150.627C815.68 144.048 812.025 137.469 808.33 130.91C810.054 129.183 811.773 127.449 813.491 125.716C817.214 121.96 820.936 118.205 824.72 114.51C824.799 107.057 824.785 99.605 824.771 92.152C824.765 89.255 824.76 86.357 824.76 83.46C822.196 80.951 819.664 78.413 817.132 75.875C814.164 72.9 811.197 69.925 808.18 67ZM782.103 86.579C775.131 86.559 768.159 86.541 761.19 86.68C761.178 89.972 761.182 93.264 761.186 96.556C761.192 101.493 761.198 106.428 761.15 111.36C768.346 111.563 775.552 111.538 782.757 111.512C787.597 111.495 792.436 111.478 797.27 111.53C799.16 109.66 801.02 107.77 802.85 105.85C802.83 101.26 802.82 96.66 802.85 92.06C801.01 90.19 799.13 88.37 797.23 86.56C792.189 86.606 787.146 86.592 782.103 86.579ZM943.77 67H921.14C915.111 82.453 909.057 97.908 903.003 113.365C895.697 132 888.41 150.641 881.14 169.29C888.7 169.18 896.31 169.17 903.87 169.29C906.29 162.62 908.67 155.93 911.02 149.23C918.357 149.14 925.696 149.154 933.035 149.167C939.581 149.179 946.127 149.191 952.67 149.13C954.007 152.5 955.204 155.924 956.401 159.347C957.559 162.659 958.717 165.97 960 169.23C967.93 169.22 975.86 169.21 983.79 169.24C980.08 159.766 976.366 150.29 972.652 140.814C963.118 116.495 953.583 92.17 944.12 67.84L943.77 67ZM935.712 101.524C934.483 98.114 933.254 94.702 932.03 91.29C930.93 93.294 930.229 95.418 929.52 97.563C929.358 98.052 929.197 98.541 929.03 99.03C928.091 101.653 927.146 104.274 926.201 106.895C923.475 114.459 920.749 122.023 918.15 129.62C927.34 129.69 936.54 129.69 945.72 129.62C942.452 120.233 939.082 110.878 935.712 101.524Z" fill="#000031"/>
<path d="M998.3 67H1058V86.43C1051.71 86.83 1045.38 86.43 1039.08 86.62C1039.02 107.51 1039.08 128.41 1039.05 149.3C1045.36 149.5 1051.7 149.1 1058 149.52V169.2C1038.09 169.29 1018.17 169.14 998.26 169.27C998.34 162.64 998.3 156.01 998.28 149.38C1004.54 149.28 1010.81 149.45 1017.07 149.27C1016.81 128.34 1017.02 107.49 1016.89 86.58C1010.69 86.56 1004.49 86.61 998.28 86.56C998.31 80.04 998.3 73.52 998.3 67Z" fill="#000031"/>
<path d="M49.4 235.692H81.9L33.15 151.255L87.2625 57.5288H54.7625L0.650002 151.255L49.4 235.692Z" fill="#2F6FB6"/>
<path d="M271.375 151.255L255.125 123.109L206.375 207.546L98.1498 207.547L114.4 235.692L222.625 235.692L271.375 151.255Z" fill="#2F6FB6"/>
<path d="M87.2628 1.23781L71.0128 29.3836L168.512 29.3834L222.625 123.109L238.875 94.9634L184.762 1.23753L87.2628 1.23781Z" fill="#2F6FB6"/>
<path d="M81.9 179.401H190.125L206.375 151.255L152.262 57.5288H119.762L65.65 151.255L81.9 179.401Z" fill="#000031"/>
</g>
<defs>
<clipPath id="clip0_148_1813">
<rect width="1058" height="236" fill="white"/>
</clipPath>
</defs>
</svg>
