<svg width="180" height="60" viewBox="0 0 180 60" fill="none" xmlns="http://www.w3.org/2000/svg">
<g clip-path="url(#clip0)">
<path d="M92.8626 20.7693C93.6505 20.7693 94.4384 20.7693 95.2262 20.7693C95.2262 22.7652 95.2262 24.7086 95.2262 26.652C95.909 26.4419 96.4868 26.2843 97.1696 26.1793C100.374 25.7065 103 27.7025 103.367 30.959C103.473 31.8519 103.473 32.6923 103.262 33.5852C102.737 35.7912 101.266 37.1043 99.0605 37.577C96.9595 38.0497 94.9111 37.682 92.9677 37.0517C92.8626 36.579 92.8101 21.1895 92.8626 20.7693ZM95.2787 35.1084C96.2767 35.5286 97.6423 35.6336 98.5878 35.371C100.006 35.0033 100.794 33.8478 100.899 32.167C100.951 30.4337 100.216 29.0681 98.9029 28.5954C97.6423 28.1227 96.4343 28.3853 95.2787 28.963C95.2787 31.0115 95.2787 33.0599 95.2787 35.1084Z" fill="#1B3C72"/>
<path d="M155.366 26.1269C155.366 29.7511 155.366 33.3752 155.366 36.9994C153.738 37.6297 152.057 37.8398 150.376 37.7347C149.904 37.6822 149.431 37.6297 149.011 37.5246C146.542 36.8944 145.072 35.2136 144.914 32.6924C144.861 31.7995 144.914 30.9591 145.124 30.0662C145.964 26.8097 149.589 25.1815 152.582 26.6522C152.74 26.7047 152.845 26.8097 153.003 26.8623C153.108 26.5996 153.003 26.3895 153.108 26.1269C153.791 26.1269 154.578 26.1269 155.366 26.1269ZM152.95 29.1208C152.635 28.8582 152.267 28.7006 151.847 28.543C150.219 27.9653 148.538 28.543 147.803 29.9087C146.91 31.4844 147.278 33.848 148.538 34.8459C148.696 34.951 148.906 35.1085 149.063 35.1611C150.324 35.7388 151.637 35.5287 152.95 35.2661C152.95 33.2177 152.95 31.1692 152.95 29.1208Z" fill="#1B3C72"/>
<path d="M78.7862 26.8623C78.7862 26.5997 78.7862 26.3896 78.8388 26.127C79.6266 26.127 80.4145 26.127 81.2023 26.127C81.2549 26.4946 81.2549 36.3166 81.1498 37.052C79.5741 37.6297 77.8933 37.8398 76.16 37.7348C75.6348 37.6823 75.057 37.6297 74.5318 37.4722C72.3258 36.8419 71.0652 35.3187 70.6975 33.0601C70.54 32.0622 70.5925 31.0642 70.8551 30.0663C71.6955 26.8098 75.2671 25.129 78.3135 26.6522C78.4711 26.7047 78.6287 26.7572 78.7862 26.8623ZM78.7862 29.1208C78.366 28.8057 77.8933 28.5956 77.3681 28.438C75.7924 28.0703 74.2692 28.7006 73.6389 30.0137C73.0611 31.2743 73.0611 32.5874 73.6389 33.848C73.954 34.5308 74.4793 35.0035 75.2146 35.2661C76.4226 35.6863 77.6307 35.5288 78.8388 35.2661C78.7862 33.2177 78.7862 31.1693 78.7862 29.1208Z" fill="#1B3C72"/>
<path d="M135.512 32.4298C132.728 32.4298 130.05 32.4298 127.318 32.4298C127.213 34.1106 128.579 35.4762 130.365 35.5812C131.888 35.6863 133.411 35.4237 134.882 34.7409C134.882 35.4762 134.882 36.2115 134.882 36.9469C134.146 37.3145 133.411 37.5772 132.571 37.6822C131.415 37.8923 130.26 37.8398 129.104 37.5772C126.163 36.8944 124.429 34.3732 124.797 31.2743C124.902 30.4339 125.06 29.646 125.48 28.9107C126.583 26.8097 128.736 25.7592 131.31 26.1794C133.464 26.4946 135.039 28.1228 135.407 30.4339C135.512 31.1167 135.512 31.747 135.512 32.4298ZM132.833 30.644C132.938 29.7511 132.466 28.9107 131.625 28.5955C131.048 28.3329 130.47 28.3329 129.892 28.438C128.736 28.6481 127.581 29.6986 127.476 30.6965C129.262 30.644 131.048 30.644 132.833 30.644Z" fill="#1B3B71"/>
<path d="M61.9258 28.2802C61.9258 29.0681 61.9258 29.7509 61.9258 30.4863C59.7723 30.4863 57.6714 30.4863 55.5179 30.4863C55.5179 32.9549 55.5179 35.371 55.5179 37.7871C54.73 37.7871 53.9422 37.7871 53.1543 37.7871C53.1543 35.371 53.1543 32.9549 53.1543 30.4863C51.0008 30.4863 48.8473 30.4863 46.6938 30.4863C46.6938 29.6984 46.6938 29.0156 46.6938 28.2277C48.7948 28.2277 50.9483 28.2277 53.1018 28.2277C53.1018 25.9692 53.1018 23.7106 53.1018 21.5046C53.8896 21.5046 54.6775 21.5046 55.4654 21.5046C55.4654 23.7106 55.4654 25.9692 55.4654 28.2277C57.6714 28.2802 59.7723 28.2802 61.9258 28.2802Z" fill="#1A3A71"/>
<path d="M172.226 26.3894C173.067 26.3894 173.802 26.3894 174.537 26.3894C174.643 26.547 174.59 26.7045 174.59 26.8621C174.59 29.0156 174.59 31.1691 174.59 33.3226C174.59 35.7387 173.487 37.0518 171.123 37.5245C169.758 37.7871 168.392 37.7346 167.079 37.2094C165.608 36.5791 164.768 35.4761 164.715 33.8478C164.663 31.4317 164.715 28.9631 164.715 26.547C164.715 26.4945 164.715 26.4419 164.768 26.3894C165.556 26.3894 166.344 26.3894 167.132 26.3894C167.132 26.547 167.132 26.7571 167.132 26.9146C167.132 29.0681 167.132 31.2216 167.132 33.3751C167.132 34.3205 167.342 35.1609 168.235 35.5811C169.233 36.0538 170.283 36.0538 171.228 35.4761C172.016 35.0034 172.174 34.2155 172.174 33.3226C172.174 31.1691 172.174 29.0156 172.174 26.8621C172.226 26.7571 172.226 26.5995 172.226 26.3894Z" fill="#1A3A71"/>
<path d="M115.028 18.5107C115.028 25.6015 115.028 32.6397 115.028 39.7305C114.24 39.7305 113.504 39.7305 112.717 39.7305C112.717 32.6922 112.717 25.6015 112.717 18.5107C113.452 18.5107 114.187 18.5107 115.028 18.5107Z" fill="#1A3A71"/>
<path d="M17.9108 30.5388C16.1775 30.5388 14.4442 30.5388 12.7634 30.5388C12.7634 29.856 12.7634 29.2257 12.7634 28.5429C14.4967 28.5429 16.1775 28.5429 17.9108 28.5429C17.9108 26.6521 17.9108 24.8137 17.9108 22.9229C18.5936 22.9229 19.2239 22.9229 19.9592 22.9229C19.9592 24.7612 19.9592 26.5995 19.9592 28.4904C21.6925 28.4904 23.3733 28.4904 25.1066 28.4904C25.1066 29.1732 25.1066 29.8035 25.1066 30.4863C23.4258 30.4863 21.745 30.4863 19.9592 30.4863C19.9592 32.3772 19.9592 34.2155 19.9592 36.1064C19.2764 36.1064 18.5936 36.1064 17.9108 36.1064C17.9108 34.2681 17.9108 32.4297 17.9108 30.5388Z" fill="#E36C31"/>
<path d="M23.1631 39.2579C23.1631 38.7327 23.1631 38.2599 23.1631 37.7347C24.6863 37.7347 26.2095 37.7347 27.7852 37.7347C27.7852 36.0539 27.7852 34.3732 27.7852 32.6924C28.4155 32.6924 28.9407 32.6924 29.571 32.6924C29.571 34.3732 29.571 36.0014 29.571 37.6822C31.1467 37.6822 32.6174 37.6822 34.1931 37.6822C34.1931 38.2074 34.1931 38.6801 34.1931 39.2054C32.6699 39.2054 31.1467 39.2054 29.571 39.2054C29.571 40.8861 29.571 42.5144 29.571 44.2477C28.9933 44.2477 28.4155 44.2477 27.7852 44.2477C27.7852 42.6194 27.7852 40.9387 27.7852 39.2579C26.2095 39.2579 24.6863 39.2579 23.1631 39.2579Z" fill="#1F3F74"/>
<path d="M29.5185 19.6663C31.0943 19.6663 32.6175 19.6663 34.1407 19.6663C34.1407 20.1916 34.1407 20.6643 34.1407 21.1895C32.6175 21.1895 31.0943 21.1895 29.5185 21.1895C29.5185 22.8703 29.5185 24.4986 29.5185 26.1793C28.8882 26.1793 28.363 26.1793 27.7327 26.1793C27.7327 24.5511 27.7327 22.9228 27.7327 21.1895C26.157 21.1895 24.6338 21.1895 23.1106 21.1895C23.1106 20.6643 23.1106 20.1916 23.1106 19.6663C24.6338 19.6663 26.157 19.6663 27.7327 19.6663C27.7327 17.933 27.7327 16.3048 27.7327 14.624C28.363 14.624 28.8882 14.624 29.5185 14.624C29.5185 16.3048 29.5185 17.933 29.5185 19.6663Z" fill="#538093"/>
<path d="M8.29888 39.2579C6.72315 39.2579 5.19996 39.2579 3.67676 39.2579C3.67676 38.7326 3.67676 38.2599 3.67676 37.7347C5.19996 37.7347 6.72315 37.7347 8.29888 37.7347C8.29888 36.0539 8.29888 34.3732 8.29888 32.6924C8.92916 32.6924 9.45441 32.6924 10.0847 32.6924C10.0847 34.3206 10.0847 36.0014 10.0847 37.6822C11.6604 37.6822 13.1836 37.6822 14.7068 37.6822C14.7068 38.2074 14.7068 38.6801 14.7068 39.2579C13.1836 39.2579 11.6604 39.2579 10.0847 39.2579C10.0847 40.9912 10.0847 42.6194 10.0847 44.3002C9.45441 44.3002 8.92916 44.3002 8.3514 44.3002C8.29888 42.6194 8.29888 40.9912 8.29888 39.2579Z" fill="#BE1D31"/>
<path d="M3.62427 21.1895C3.62427 20.6643 3.62427 20.1915 3.62427 19.7188C5.14747 19.7188 6.67066 19.7188 8.29891 19.7188C8.29891 17.9855 8.29891 16.3573 8.29891 14.6765C8.87667 14.6765 9.40192 14.6765 9.97968 14.6765C9.97968 16.3573 9.97968 18.0381 9.97968 19.7188C11.5554 19.7188 13.0786 19.7188 14.6543 19.7188C14.6543 20.2441 14.6543 20.7168 14.6543 21.1895C13.1311 21.1895 11.6079 21.1895 10.0322 21.1895C10.0322 22.8703 10.0322 24.551 10.0322 26.2318C9.45444 26.2318 8.9292 26.2318 8.35143 26.2318C8.35143 24.6036 8.35143 22.9228 8.35143 21.1895C6.72319 21.1895 5.19999 21.1895 3.62427 21.1895Z" fill="#E78836"/>
<path d="M34.6133 25.3389C34.6133 26.4944 34.6133 27.5974 34.6133 28.8055C35.6638 28.8055 36.7143 28.8055 37.7648 28.8055C37.7648 29.2782 37.7648 29.6984 37.7648 30.1711C36.7668 30.1711 35.7163 30.1711 34.6659 30.1711C34.6659 31.3791 34.6659 32.5347 34.6659 33.6902C34.1406 33.6902 33.6679 33.6902 33.1427 33.6902C33.1427 32.5347 33.1427 31.3791 33.1427 30.2236C32.0922 30.2236 31.0417 30.2236 29.9912 30.2236C29.9912 29.7509 29.9912 29.3307 29.9912 28.858C30.9892 28.858 32.0396 28.858 33.0901 28.858C33.0901 27.6499 33.0901 26.5469 33.0901 25.3389C33.6154 25.3389 34.0881 25.3389 34.6133 25.3389Z" fill="#535C86"/>
<path d="M19.6966 43.3023C20.7996 43.3023 21.7975 43.3023 22.848 43.3023C22.848 43.775 22.848 44.1952 22.848 44.6679C21.8501 44.6679 20.7996 44.6679 19.7491 44.6679C19.7491 45.876 19.7491 47.0315 19.7491 48.187C19.2239 48.187 18.7511 48.187 18.2259 48.187C18.2259 47.0315 18.2259 45.876 18.2259 44.7204C17.1754 44.7204 16.1249 44.7204 15.0745 44.7204C15.0745 44.2477 15.0745 43.8275 15.0745 43.3548C16.1249 43.3548 17.1229 43.3548 18.1734 43.3548C18.1734 42.1468 18.1734 41.0437 18.1734 39.8357C18.6986 39.8357 19.1713 39.8357 19.6966 39.8357C19.6966 40.9387 19.6966 42.0942 19.6966 43.3023Z" fill="#535C86"/>
<path d="M22.5854 14.414C22.5854 14.8342 22.5854 15.1493 22.5854 15.517C21.5349 15.517 20.5369 15.517 19.4865 15.517C19.4865 16.6725 19.4865 17.7755 19.4865 18.931C19.1188 18.9836 18.7511 18.9836 18.3834 18.931C18.3834 17.828 18.3834 16.6725 18.3834 15.517C17.333 15.517 16.335 15.517 15.2845 15.517C15.1795 15.1493 15.232 14.8342 15.2845 14.414C16.2825 14.414 17.2804 14.414 18.3834 14.414C18.3834 13.2584 18.3834 12.1554 18.3834 10.9999C18.7511 10.9474 19.1188 10.9999 19.4865 10.9999C19.4865 12.1554 19.4865 13.2584 19.4865 14.414C20.5369 14.414 21.5349 14.414 22.5854 14.414Z" fill="#6A929E"/>
<path d="M4.25445 30.0136C4.25445 31.1691 4.25445 32.2721 4.25445 33.3751C3.88678 33.4802 3.51911 33.4276 3.15144 33.4276C3.15144 32.3246 3.15144 31.2216 3.15144 30.0661C2.10096 30.0661 1.10301 30.0661 0.0525241 30.0661C0 29.6984 0 29.3833 0 28.9631C0.997957 28.9631 1.99591 28.9631 3.09892 28.9631C3.09892 27.8076 3.09892 26.7045 3.09892 25.6015C3.51911 25.4965 3.83426 25.549 4.25445 25.549C4.25445 26.652 4.25445 27.755 4.25445 28.9106C5.30493 28.9106 6.30289 28.9106 7.30085 28.9106C7.40589 29.2782 7.35337 29.5934 7.35337 29.961C6.35541 30.0136 5.35746 30.0136 4.25445 30.0136Z" fill="#6A929E"/>
<path d="M180 27.7026C180 28.4905 179.37 29.1208 178.582 29.1208C177.794 29.1208 177.164 28.4905 177.164 27.7026C177.164 26.9147 177.794 26.2319 178.582 26.2319C179.37 26.2845 180 26.9147 180 27.7026ZM179.737 27.7551C179.737 27.0723 179.265 26.5471 178.582 26.5471C177.951 26.5471 177.479 27.0723 177.426 27.7551C177.426 28.4379 177.951 28.9632 178.582 28.9632C179.212 28.9107 179.737 28.3854 179.737 27.7551Z" fill="#345081"/>
<path d="M179.16 28.543C178.739 28.4905 178.95 28.0703 178.792 28.0178C178.634 27.8602 178.529 27.8602 178.372 27.8602C178.214 28.0703 178.424 28.3329 178.109 28.5955C178.109 28.0178 178.109 27.4925 178.109 26.9673C178.424 26.9148 178.792 26.8097 179.055 27.1249C179.212 27.335 179.107 27.5451 178.897 27.7026C179.107 27.9652 179.16 28.2279 179.16 28.543ZM178.372 27.1249C178.319 27.2824 178.319 27.44 178.372 27.5976C178.582 27.6501 178.739 27.5976 178.897 27.3875C178.844 27.1249 178.634 27.1249 178.372 27.1249Z" fill="#345081"/>
</g>
<defs>
<clipPath id="clip0">
<rect width="180" height="37.187" fill="white" transform="translate(0 11)"/>
</clipPath>
</defs>
</svg>
