<?xml version="1.0" encoding="UTF-8"?> <svg xmlns="http://www.w3.org/2000/svg" width="199" height="46.415"><defs><clipPath id="a"><path data-name="Прямоугольник 6" fill="none" d="M0 0h199v46.415H0z"></path></clipPath></defs><g data-name="Сгруппировать 2"><g data-name="Сгруппировать 1" clip-path="url(#a)"><path data-name="Контур 1" d="m198.937 14.425-2.111 4.379a16.425 16.425 0 0 0-7.057-2.3c-1.449 0-2.424.536-2.424 1.607 0 3.812 11.656 1.637 11.656 9.607 0 4.412-3.907 6.742-8.821 6.742a16.447 16.447 0 0 1-10.082-3.53l2.173-4.316a13.746 13.746 0 0 0 7.97 3.308c1.766 0 2.868-.662 2.868-1.922 0-3.907-11.656-1.574-11.656-9.389 0-4.064 3.5-6.645 8.789-6.645a16.555 16.555 0 0 1 8.7 2.457" fill="#1a1818"></path><path data-name="Прямоугольник 5" fill="#1a1818" d="M171.749 12.22h5.609v22.052h-5.609z"></path><path data-name="Контур 2" d="M162.108 12.22v13.607L151.934 12.22h-4.947v22.051h5.261V20.694l10.144 13.577h4.947V12.22Z" fill="#1a1818"></path><path data-name="Контур 3" d="m133.219 17.801 3.15 8.16h-6.364Zm-2.709-5.576-9.515 22.052h5.767l1.606-4.065h9.641l1.574 4.065h5.986l-9.293-22.052Z" fill="#1a1818"></path><path data-name="Контур 4" d="M110.41 23.654c2.426 0 3.843-1.229 3.843-3.559 0-2.3-1.417-3.464-3.843-3.464h-4.254v7.024Zm.157 4.411h-4.411v6.206h-5.608V12.219h9.862c5.828 0 9.167 2.772 9.167 7.686 0 3.373-1.419 5.8-4 7.089l4.632 7.278h-6.363Z" fill="#1a1818"></path><path data-name="Контур 5" d="m86.782 17.801 3.15 8.16h-6.364Zm-2.711-5.581-9.51 22.052h5.765l1.606-4.065h9.643l1.574 4.065h5.986L89.838 12.22Z" fill="#1a1818"></path><path data-name="Контур 6" d="M58.68 12.189v4.536h6.584v17.547h5.607V16.725h6.648v-4.536Z" fill="#1a1818"></path><path data-name="Контур 7" d="M23.108.05c.053-.068.088-.065.133 0 .15.216 2.048 3.03 2.046 4.852a4.872 4.872 0 0 1-1.6 3.541 2.556 2.556 0 0 0-.192.511c-.006.028-.129.084-.129.084l-.006-.125c0-.214-.056-5.322-.056-5.335 0-.039-.054-.039-.056 0-.014.238-.233 4.728-.235 4.777s-.016.045-.023.039a4.941 4.941 0 0 1-1.882-3.632c0-2.155 1.939-4.64 2-4.717" fill="#2e462d"></path><path data-name="Контур 8" d="M11.675 3.124c.013-.086.043-.1.116-.066.237.114 3.277 1.623 4.176 3.209a4.86 4.86 0 0 1 .36 3.867 2.594 2.594 0 0 0 .087.539c.008.028-.071.137-.071.137l-.067-.1c-.107-.185-2.677-4.6-2.684-4.61-.022-.034-.067-.009-.048.03.1.214 2.133 4.225 2.156 4.268s.008.048 0 .047a4.94 4.94 0 0 1-3.425-2.231c-1.068-1.876-.612-4.994-.6-5.09" fill="#90b656"></path><path data-name="Контур 9" d="M3.081 11.755c-.032-.081-.013-.109.066-.115.262-.023 3.646-.265 5.226.645a4.868 4.868 0 0 1 2.276 3.149 2.563 2.563 0 0 0 .347.421c.022.02.01.154.01.154l-.112-.057-4.654-2.609c-.036-.018-.062.026-.026.049.2.13 3.983 2.558 4.024 2.584s.031.036.023.04a4.944 4.944 0 0 1-4.087-.178c-1.868-1.077-3.057-3.995-3.094-4.084" fill="#90b656"></path><path data-name="Контур 10" d="M.05 23.309c-.068-.053-.066-.088 0-.133.216-.15 3.03-2.048 4.852-2.046a4.872 4.872 0 0 1 3.541 1.6 2.556 2.556 0 0 0 .511.192c.028.006.084.129.084.129l-.125.006c-.214 0-5.322.056-5.334.056-.04 0-.04.054 0 .056.238.014 4.728.233 4.777.235s.045.016.039.023a4.941 4.941 0 0 1-3.632 1.882c-2.155 0-4.64-1.939-4.717-2" fill="#90b656"></path><path data-name="Контур 11" d="M3.124 34.738c-.086-.013-.1-.043-.066-.116.114-.237 1.623-3.277 3.209-4.176a4.864 4.864 0 0 1 3.867-.36 2.594 2.594 0 0 0 .539-.087c.028-.008.137.071.137.071l-.1.067-4.61 2.684c-.034.022-.009.067.03.048.214-.1 4.225-2.133 4.268-2.156s.048-.008.047 0a4.94 4.94 0 0 1-2.227 3.431c-1.875 1.063-4.993.607-5.089.593" fill="#90b656"></path><path data-name="Контур 12" d="M11.754 43.334c-.081.032-.109.013-.115-.066-.023-.261-.265-3.646.645-5.226a4.868 4.868 0 0 1 3.149-2.274 2.563 2.563 0 0 0 .421-.347c.02-.022.154-.01.154-.01l-.057.112c-.1.186-2.6 4.641-2.61 4.652-.018.036.026.062.049.026.13-.2 2.558-3.983 2.584-4.024s.036-.031.04-.023a4.944 4.944 0 0 1-.178 4.087c-1.077 1.868-3.995 3.057-4.084 3.094" fill="#2e462d"></path><path data-name="Контур 13" d="M23.308 46.366c-.053.068-.088.066-.133 0-.15-.216-2.048-3.03-2.045-4.852a4.862 4.862 0 0 1 1.6-3.541 2.617 2.617 0 0 0 .191-.511c.006-.028.129-.084.129-.084l.006.125c0 .214.055 5.322.056 5.335 0 .039.054.039.056 0 .014-.238.233-4.728.235-4.777s.016-.045.023-.039a4.941 4.941 0 0 1 1.882 3.632c0 2.155-1.939 4.64-2 4.717" fill="#2e462d"></path><path data-name="Контур 14" d="M34.737 43.291c-.013.086-.043.1-.116.066-.237-.114-3.277-1.623-4.176-3.209a4.86 4.86 0 0 1-.36-3.867 2.594 2.594 0 0 0-.087-.539c-.008-.028.07-.137.07-.137s.066.1.068.1c.107.185 2.677 4.6 2.684 4.61.022.034.067.009.048-.03-.1-.214-2.133-4.225-2.156-4.268s-.008-.048 0-.047a4.94 4.94 0 0 1 3.431 2.227c1.063 1.875.607 4.993.593 5.089" fill="#2e462d"></path><path data-name="Контур 15" d="M43.334 34.661c.032.081.013.109-.066.115-.261.023-3.646.265-5.226-.645a4.868 4.868 0 0 1-2.274-3.149 2.563 2.563 0 0 0-.347-.421c-.022-.02-.01-.154-.01-.154l.112.057 4.652 2.61c.036.018.062-.026.026-.049-.2-.13-3.983-2.558-4.024-2.584s-.031-.036-.023-.04a4.944 4.944 0 0 1 4.087.178c1.868 1.077 3.057 3.995 3.094 4.084" fill="#2e462d"></path><path data-name="Контур 16" d="M46.366 23.108c.068.053.066.088 0 .133-.216.15-3.03 2.048-4.852 2.045a4.862 4.862 0 0 1-3.541-1.6 2.616 2.616 0 0 0-.511-.191c-.028-.006-.084-.129-.084-.129l.125-.006c.214 0 5.322-.055 5.335-.056.039 0 .039-.054 0-.056-.238-.014-4.728-.233-4.777-.235s-.045-.016-.039-.023a4.941 4.941 0 0 1 3.632-1.882c2.155 0 4.64 1.939 4.717 2" fill="#2e462d"></path><path data-name="Контур 17" d="M43.291 11.676c.086.013.1.043.065.116-.113.237-1.622 3.277-3.209 4.176a4.864 4.864 0 0 1-3.867.36 2.594 2.594 0 0 0-.539.087c-.028.008-.138-.071-.138-.071l.106-.067 4.61-2.684c.034-.022.009-.067-.03-.048-.214.1-4.225 2.133-4.268 2.156s-.048.008-.047 0a4.94 4.94 0 0 1 2.227-3.425c1.875-1.063 4.993-.607 5.089-.593" fill="#2e462d"></path><path data-name="Контур 18" d="M34.661 3.081c.081-.032.109-.013.115.066.023.262.265 3.646-.645 5.226a4.868 4.868 0 0 1-3.15 2.276 2.563 2.563 0 0 0-.421.347c-.02.022-.154.01-.154.01l.057-.112c.1-.186 2.6-4.641 2.61-4.652.018-.036-.026-.062-.049-.026-.13.2-2.558 3.983-2.584 4.024s-.036.031-.04.023a4.944 4.944 0 0 1 .178-4.087c1.075-1.869 3.993-3.058 4.083-3.095" fill="#2e462d"></path></g></g></svg> 