<svg xmlns="http://www.w3.org/2000/svg" width="180" height="60" fill="none" viewBox="0 0 180 60"><path fill="#4d4f56" d="M107.199 52.428c0-1.756.027-3.376 0-4.997-.027-1.35-.54-2.053-1.567-2.134-1.08-.081-1.971.702-2.052 2.026-.082 1.648-.027 3.322-.027 5.105-.514.027-.865.054-1.405.108v-8.211c.459-.027.756.027 1.134 0 0 .378.027.81.054 1.161 1.297-1.431 3.431-1.945 4.916.027.757-.891 1.567-1.431 2.701-1.377 1.432.08 2.377.729 2.458 2.16.136 2 .027 4.025.027 6.132-.324.027-.648.054-1.242.108v-3.268c0-.757 0-1.54-.054-2.296-.108-1.08-.675-1.621-1.594-1.675-.972-.054-1.809.621-1.971 1.648-.109.675-.055 1.35-.055 2.026v3.457zM74.762 44.055H73.6c-1.053-2.08-2.458-2.296-4.106-1.73-.729.244-1.215.757-1.242 1.595-.027.837.46 1.377 1.188 1.62.946.324 1.918.513 2.864.784 1.89.54 2.809 1.593 2.728 3.16-.081 1.566-1.216 2.809-3.053 3.052a8.2 8.2 0 0 1-2.809-.081c-1.404-.324-2.404-1.188-2.647-2.836.405-.054.784-.108 1.135-.135.162.162.27.243.324.35a3.41 3.41 0 0 0 4.457 1.243c.702-.35 1.27-.918 1.08-1.674-.135-.567-.621-1.216-1.135-1.513-.675-.405-1.54-.459-2.295-.702-.649-.19-1.324-.378-1.891-.702-1.35-.784-1.864-2.566-1.054-3.863.973-1.594 2.54-1.89 4.241-1.756 1.702.135 2.89 1.027 3.35 2.485.026.162 0 .352.026.703M53.02 41.056h1.269v1.864c0 1.945.027 3.863-.027 5.807-.054 2.026-1.35 3.458-3.323 3.836-2.755.567-5.942-.594-5.834-4.781.081-2.188 0-4.403 0-6.726.46-.027.81-.054 1.405-.108 0 1.324-.027 2.512 0 3.728.026 1.404 0 2.782.135 4.16.162 1.593 1.35 2.484 2.97 2.538s2.864-.837 3.107-2.376c.19-1.189.135-2.404.162-3.62.027-1.27 0-2.512.027-3.782.027-.107.054-.243.108-.54M39.245 52.455c-.54.027-.946.054-1.405.081-.405-1.08-.81-2.134-1.215-3.214h-4.646c-.378 1.053-.756 2.053-1.162 3.133h-1.431c1.404-3.835 2.809-7.617 4.213-11.398h1.432c1.377 3.727 2.782 7.482 4.214 11.398m-3.052-4.51c-.622-1.756-1.189-3.323-1.73-4.89-.107 0-.188 0-.296.028-.54 1.593-1.108 3.16-1.702 4.888 1.296-.027 2.404-.027 3.727-.027M117.354 55.183h-1.35V44.298c.378-.028.729-.028 1.08-.055.081.379.135.676.216 1 .135-.054.297-.054.351-.135 1.027-1.08 2.269-1.27 3.593-.783 1.404.513 2.026 1.701 2.188 3.133.054.432.054.891.027 1.35-.054 1.486-.568 2.782-1.945 3.458-1.432.702-2.782.378-4.16-.919zm4.781-6.834c-.054-.378-.054-.783-.135-1.161-.297-1.162-1.242-1.918-2.296-1.891-1.026.027-1.999.837-2.188 2.026a7 7 0 0 0 0 2.134c.189 1.188 1.135 1.998 2.188 2.025 1.108.027 2.08-.783 2.35-1.998.027-.379.027-.757.081-1.135M57.07 41.057c1.648 0 3.241-.135 4.754.027 1.864.216 2.944 1.674 2.944 3.592 0 1.89-1.107 3.322-2.944 3.593-1.053.162-2.134.162-3.404.216V52.4h-1.377c.027-3.754.027-7.455.027-11.344m1.432 6.131c1.107-.054 2.133 0 3.133-.189 1.161-.216 1.782-1.215 1.729-2.404-.054-1.161-.676-2.08-1.783-2.215-1-.135-2.026-.027-3.08-.027zM89.508 49.24c.379.028.757.055 1.162.055-.54 2.106-1.756 3.106-3.97 3.349-2.162.243-4.187-.73-5.079-2.593-1.026-2.188-1.053-4.484 0-6.645.946-1.944 2.674-2.7 4.808-2.593 1.918.108 3.35.973 4.133 2.755.108.244.108.514.189.892-.46.027-.837.08-1.243.108-.648-1.513-1.701-2.377-3.295-2.512-.135 0-.27-.027-.405 0-1.567.135-2.62.972-3.106 2.43-.676 2.027-.649 4.025.756 5.754 1 1.215 2.296 1.486 3.728 1.053.783-.189 1.863-.783 2.322-2.052M130.616 47.566c.243-1.053.027-1.783-.973-2.16-1.026-.406-1.863-.055-2.782 1.107h-1.026c0-.19-.054-.325-.027-.433.513-1.512 1.864-2.16 3.835-1.917 1.513.189 2.377 1.107 2.404 2.728.054 1.782 0 3.592 0 5.483-.405.054-.729.08-1.08.108a22 22 0 0 1-.351-.972c-.189.108-.486.459-.621.54-.568.27-.946.405-1.54.486-1.648.243-2.89-.648-3.079-2.08-.189-1.296.675-2.296 2.323-2.593.945-.135 1.89-.162 2.917-.297m0 1.107c-.973.081-1.864.135-2.728.27-.703.108-1.162.568-1.108 1.297.054.783.595 1.161 1.351 1.242 1.566.19 2.62-.864 2.485-2.809M100.231 48.403c0 2.404-1.242 3.998-3.295 4.187-1.621.162-2.999-.297-3.755-1.783-.891-1.756-.891-3.565.243-5.24.946-1.404 2.404-1.62 3.97-1.35 1.783.324 2.837 1.944 2.837 4.186m-1.54-1.323c-.297-1.108-1.215-1.783-2.242-1.81-1.026 0-1.917.675-2.241 1.81-.352 1.107-.298 2.242.297 3.268.837 1.459 2.917 1.54 3.808.108 0 0 .891-1.486.378-3.376M141.446 52.455h-1.323v-3.808c0-.54 0-1.08-.081-1.621-.189-1.189-.811-1.756-1.837-1.756-1.053-.027-1.945.648-2.107 1.702s-.135 2.134-.162 3.214c-.027.703 0 1.432 0 2.215-.459.027-.81.054-1.242.108v-8.184c.324-.027.648-.081 1.026-.108.081.378.162.648.243 1 .135-.055.27-.082.351-.163.784-.837 1.756-1 2.836-.864 1.378.189 2.188 1.107 2.296 2.863.054 1.756 0 3.484 0 5.402M143.094 44.27h1.404c.73 2.16 1.459 4.322 2.188 6.456.081.027.189.027.27.054.73-2.161 1.486-4.35 2.242-6.51h1.378c-.432 1.161-.811 2.215-1.189 3.241-.756 2.053-1.485 4.133-2.296 6.186-.621 1.512-1.242 1.836-2.998 1.81a9 9 0 0 1-.135-.81c1.648-.568 1.648-.568 2.161-2.216-.972-2.647-1.972-5.375-3.025-8.211"/><path fill="#4d4f55" d="M0 4.108h6.104c1.323 5.942 2.62 11.83 3.916 17.745.108 0 .216.027.351.027 1.729-5.915 3.485-11.857 5.213-17.772h4.538c1.728 5.915 3.457 11.803 5.185 17.69.136.028.244.028.379.055 1.296-5.888 2.62-11.776 3.916-17.718h5.86c-2.43 9.75-4.807 19.392-7.238 29.116h-5.482c-1.567-6.32-3.16-12.587-4.727-18.88h-.324a9595 9595 0 0 1-4.727 18.907H7.238C4.835 23.608 2.431 13.939 0 4.108M71.979 22.258h-4.754v10.966h-5.618V4.243c.081-.054.217-.162.325-.162 5.077.027 10.155-.081 15.233.108 2.863.108 4.645 2.134 4.807 5.024.108 2.052 0 4.132.081 6.212.135 3.079-.621 5.645-3.97 6.833 1.594 3.646 3.133 7.211 4.754 10.939h-6.105c-1.566-3.566-3.133-7.212-4.753-10.939m-4.7-5.159c2.674 0 5.213.081 7.752-.054.46-.027 1.188-.864 1.242-1.377.162-1.594.135-3.241 0-4.835-.027-.459-.702-1.215-1.08-1.242-2.62-.108-5.24-.054-7.914-.054zM154.627 13.318h-5.591c0-.81-.027-1.512 0-2.214.054-1.135-.541-1.675-1.621-1.702a259 259 0 0 0-6.482 0c-1.026.027-1.513.594-1.513 1.647.027 5.078 0 10.183 0 15.26 0 1.189.541 1.702 1.729 1.702 2.08-.027 4.132-.027 6.212 0 1.107 0 1.675-.513 1.675-1.62v-4.16h-5.294v-5.024h10.776c.082.217.163.379.163.568 0 3.565.081 7.103-.081 10.668-.136 2.863-2.242 4.808-5.105 4.889-3.295.08-6.563.054-9.858.027-3.728-.027-5.861-1.972-5.942-5.672a490 490 0 0 1 0-17.826c.054-3.511 1.89-5.483 5.374-5.672 3.62-.189 7.293-.108 10.912.081 2.593.135 4.402 2.08 4.619 4.646.108 1.35.027 2.809.027 4.402M179.988 18.747c0 2.971.027 5.942 0 8.913-.027 3.511-2.134 5.618-5.645 5.672-3.187.054-6.374.027-9.588 0-3.754-.027-5.888-1.999-5.942-5.807a482 482 0 0 1 0-17.664c.054-3.592 1.891-5.537 5.483-5.726s7.184-.135 10.776.081c3.025.162 4.862 2.323 4.889 5.375.054 3.052.027 6.104.027 9.156m-15.449 0v7.563c0 1.188.54 1.701 1.728 1.701 2.107-.027 4.241-.027 6.348 0 1.215.027 1.755-.594 1.755-1.729V11.186c0-1.135-.54-1.783-1.701-1.783-2.107-.027-4.214 0-6.348 0-1.296 0-1.809.648-1.782 1.945.027 2.457 0 4.942 0 7.4M115.247 27.93h9.129c.054-.864.081-1.702.135-2.62h5.213v7.914h-20.149v-6.05c0-.54.027-1.08 0-1.621-.216-3.62.163-5.645 5.348-7.563 2.485-.918 4.97-1.81 7.509-2.62 1.215-.405 1.728-1.08 1.728-2.35 0-3.402-.108-3.564-3.538-3.564h-2.836c-1.863.027-2.296.432-2.323 2.295 0 .325-.027.622-.054 1.054h-5.617c.162-1.675.108-3.295.54-4.808.621-2.215 2.241-3.673 4.564-3.781 3.322-.162 6.644-.19 9.967 0 2.781.162 4.807 2.566 4.888 5.375.054 1.62-.054 3.24.027 4.861.108 2.35-.945 4.052-2.971 5.024-1.971.945-4.078 1.648-6.131 2.43-1.215.46-2.431.919-3.7 1.27-1.297.378-1.837 1.162-1.729 2.485.054.702 0 1.431 0 2.269M105.686 4.162v5.294H92.56v7.562h10.614v5.132H92.56v5.78h13.072v5.294h-18.69V4.162zM58.448 33.224h-6.105c-.567-1.864-1.107-3.7-1.647-5.51H40.514c-.568 1.837-1.108 3.62-1.675 5.483h-5.861c3.16-9.778 6.266-19.5 9.372-29.197h6.725c3.106 9.696 6.24 19.42 9.372 29.224m-16.314-11.02h7.022c-1.134-3.943-2.241-7.779-3.322-11.587-.108.027-.216.027-.324.054-1.134 3.782-2.241 7.59-3.376 11.533"/></svg>