<svg width="576" height="65" viewBox="0 0 576 65" fill="none" xmlns="http://www.w3.org/2000/svg">
<g clip-path="url(#clip0_1_3)">
<path d="M561.609 63.9839C558.895 63.9839 557.983 62.4537 557.983 60.4657C557.983 58.2408 559.583 57.1112 561.565 57.1112C562.617 57.1112 564.216 57.3803 564.628 58.8603H566.061C565.847 57.4496 564.383 56.0971 561.565 56.0971C558.379 56.0971 556.458 57.8984 556.458 60.5029C556.458 63.75 558.895 65 561.38 65C562.205 65 565.558 64.8554 566.168 61.6656H564.734C564.232 63.6325 562.57 63.9839 561.609 63.9839ZM552.937 64.7751H554.414V56.321H552.937V64.7751ZM549.286 60.5029C549.286 58.3683 548.021 57.2959 546.008 57.2959H543.251V63.7992H546.117C548.038 63.7992 549.286 62.6305 549.286 60.5029ZM550.811 60.4326C550.811 62.3262 549.745 64.7751 546.147 64.7751H541.77V56.321H546.209C549.057 56.321 550.811 57.9928 550.811 60.4326ZM532.529 64.7751H534.009V60.9346H539.374V59.9235H534.009V57.3331H540.104V56.321H532.529V64.7751ZM524.373 59.6414H524.342V58.6163H523.078V64.7751H524.42V61.1937C524.42 60.3021 525.212 59.548 526.46 59.548H526.965V58.4757C526.857 58.4516 526.781 58.4416 526.614 58.4416C525.609 58.4416 524.907 58.9215 524.373 59.6414ZM519.902 61.2057C519.827 60.2549 519.31 59.3703 517.676 59.3703C516.443 59.3703 515.468 60.2549 515.468 61.2057H519.902ZM521.293 62.031H515.468C515.468 63.3142 516.243 64.0542 517.785 64.0542C519.051 64.0542 519.797 63.3042 519.843 62.8413H521.184C521.138 63.1365 520.771 64.007 519.767 64.5271C519.4 64.7148 518.884 64.9528 517.601 64.9528C515.36 64.9528 514.035 63.6455 514.035 61.8674C514.035 59.9597 515.225 58.4416 517.862 58.4416C520.164 58.4416 521.293 59.8533 521.293 62.031ZM511.439 61.6786C511.439 60.8884 511.334 59.3703 509.259 59.3703C507.324 59.3703 507.11 60.9818 507.11 61.9838C507.11 63.6224 508.437 64.0542 509.29 64.0542C510.755 64.0542 511.439 63.0331 511.439 61.6786ZM512.829 61.515C512.829 62.9859 512.035 64.9528 509.321 64.9528C507.964 64.9528 507.401 64.3494 507.126 64.007H507.095V64.7751H505.829V56.321H507.171V59.3944H507.201C507.779 58.7468 508.572 58.4516 509.504 58.4416C511.624 58.4416 512.829 59.782 512.829 61.515ZM501.492 58.4416C500.258 58.4416 499.723 58.8603 499.054 59.4406C498.826 59.1093 498.367 58.4416 496.933 58.4416C495.502 58.4416 494.816 59.1554 494.525 59.4868H494.497V58.6163H493.23V64.7751H494.572V61.4176C494.572 59.7448 495.912 59.3703 496.676 59.3703C497.666 59.3703 497.926 59.9928 497.926 60.5129V64.7751H499.266V61.019C499.266 60.1946 500.015 59.3703 501.141 59.3703C502.285 59.3703 502.624 59.9466 502.624 60.794V64.7751H503.962V60.5129C503.962 58.7839 502.346 58.4416 501.492 58.4416ZM490.238 61.2057C490.162 60.2549 489.644 59.3703 488.012 59.3703C486.778 59.3703 485.803 60.2549 485.803 61.2057H490.238ZM491.627 62.031H485.803C485.803 63.3142 486.581 64.0542 488.121 64.0542C489.385 64.0542 490.131 63.3042 490.178 62.8413H491.518C491.475 63.1365 491.108 64.007 490.103 64.5271C489.736 64.7148 489.219 64.9528 487.939 64.9528C485.695 64.9528 484.37 63.6455 484.37 61.8674C484.37 59.9597 485.559 58.4416 488.196 58.4416C490.499 58.4416 491.627 59.8533 491.627 62.031ZM477.441 63.4678H477.41L474.285 56.321H472.166V64.7751H473.597V59.782C473.597 59.534 473.569 58.4657 473.569 57.6855H473.597L476.679 64.7751H478.14L481.221 57.6745H481.252C481.252 58.4657 481.221 59.534 481.221 59.782V64.7751H482.654V56.321H480.552L477.441 63.4678ZM576 21.591H566.888L557.565 31.3574V12.5948H550.149V47.3127H557.565V36.9791L566.061 47.3127H574.962L563.276 34.0362L576 21.591ZM547.671 47.3127V29.519C547.671 23.8622 543.381 20.9143 537.871 20.9143C532.52 20.9143 530.403 23.813 529.394 25.3612H529.29V21.591H522.189V47.3127H529.607V32.5653C529.607 28.6495 532.151 26.6193 535.432 26.6193C540.15 26.6193 540.254 29.8102 540.254 31.6958V47.3127H547.671ZM512.115 34.7922C511.372 35.3214 510.155 35.7571 507.082 36.1939C504.327 36.6286 502.048 37.2562 502.048 40.0625C502.048 42.431 504.062 43.157 505.492 43.157C508.775 43.157 512.115 41.2232 512.115 38.0785V34.7922ZM521.014 47.3127H513.014C512.592 46.1038 512.484 45.7203 512.327 44.2654C510.631 45.8629 508.248 47.9894 503.215 47.9894C498.975 47.9894 494.631 45.8147 494.631 40.4942C494.631 35.47 498.129 32.9046 502.845 32.2751L509.519 31.3574C510.682 31.2128 512.115 30.7771 512.115 29.3272C512.115 26.4727 509.148 26.3301 507.239 26.3301C503.531 26.3301 502.896 28.4075 502.684 29.9055H495.533C496.38 22.0258 502.368 20.9143 508.141 20.9143C512.115 20.9143 519.37 22.0258 519.37 28.3603V42.2854C519.37 45.3317 520.112 46.0095 521.014 46.2986V47.3127ZM470.304 41.3185H480.051C483.918 41.3185 486.143 39.7693 486.143 36.2421C486.143 33.1958 483.282 32.0351 480.421 32.0351H470.304V41.3185ZM470.304 26.1835H479.628C482.752 26.1835 485.244 25.0721 485.244 22.3149C485.244 19.4624 483.017 18.5929 479.416 18.5929H470.304V26.1835ZM478.78 47.3127H462.676V12.5948H481.165C490.488 12.5948 492.872 17.9152 492.872 21.4926C492.872 26.4727 489.798 27.8754 488.209 28.6023C492.872 30.1967 494.088 33.5824 494.088 37.0152C494.088 39.7693 492.817 42.3838 490.803 44.171C488.632 46.1038 486.567 47.3127 478.78 47.3127ZM248.145 62.2288C248.175 62.2037 248.223 62.1405 248.28 62.0602C248.278 62.0581 248.276 62.0571 248.274 62.0551C248.274 62.0551 248.08 62.2841 248.145 62.2288ZM445.654 14.625H438.312V21.59V26.4235V42.0405C438.312 45.3799 439.466 47.6029 445.811 47.6029H446.755C447.91 47.6029 449.062 47.5517 450.217 47.5065V42.3798C449.693 42.428 449.168 42.4752 448.697 42.4752C445.707 42.4752 445.654 41.8969 445.654 40.3958V26.4235H450.217V21.59H445.654V14.625ZM419.368 28.5511C419.368 27.4376 419.885 26.0369 423.832 26.0369C427.778 26.0369 428.401 27.776 428.712 29.4226H435.826C435.255 22.1704 428.815 20.9113 423.416 20.9113C414.798 20.9113 412.252 25.7458 412.252 29.518C412.252 39.1388 429.388 35.8997 429.388 40.2051C429.388 41.1679 428.506 42.8638 424.767 42.8638C420.197 42.8638 418.744 41.2704 418.744 39.0896H411.267C411.472 45.9582 418.275 47.9864 424.558 47.9864C428.869 47.9864 436.657 46.632 436.657 39.1388C436.657 29.6636 419.368 32.6115 419.368 28.5511ZM402.744 36.4318C402.744 41.0254 399.523 42.2854 397.134 42.2854C394.904 42.2854 392.412 41.5083 392.412 37.5453V21.59H385.142V38.5142C385.142 45.0908 389.089 47.9864 394.54 47.9864C398.382 47.9864 401.292 46.4412 402.953 43.6871H403.054V47.3097H410.014V21.59H402.744V36.4318ZM374.356 26.0369H374.251V21.59H367.294V47.3097H374.562V33.9177C374.562 31.0662 375.6 27.776 381.26 27.776C381.935 27.776 382.713 27.776 383.337 27.8734V21.0057C382.871 20.9595 382.403 20.9113 381.935 20.9113C377.52 20.9113 375.859 23.4264 374.356 26.0369ZM374.188 12.5948H343.864V18.7355H355.131V47.3097H362.921V18.7355H374.188V12.5948ZM328.436 20.9113C323.193 20.9113 321.115 23.813 320.127 25.3592H320.024V21.59H313.067V47.3097H320.338V32.5643C320.338 28.6495 322.828 26.6173 326.048 26.6173C330.669 26.6173 330.772 29.8082 330.772 31.6948V47.3097H338.041V29.518C338.041 23.8622 333.838 20.9113 328.436 20.9113ZM304.234 34.4519C304.234 31.1616 303.194 26.6173 297.587 26.6173C291.98 26.6173 290.943 31.1616 290.943 34.4519C290.943 37.7361 291.98 42.2854 297.587 42.2854C303.194 42.2854 304.234 37.7361 304.234 34.4519ZM311.709 34.4519C311.709 43.7313 305.011 47.9864 297.587 47.9864C290.163 47.9864 283.465 43.7313 283.465 34.4519C283.465 25.1674 290.163 20.9113 297.587 20.9113C305.011 20.9113 311.709 25.1674 311.709 34.4519ZM261.528 33.3133C261.528 29.6244 259.305 26.6323 256.562 26.6323C253.817 26.6323 251.591 29.6244 251.591 33.3133C251.591 37.0032 253.817 39.9942 256.562 39.9942C259.305 39.9942 261.528 37.0032 261.528 33.3133ZM282.684 42.4752C283.153 42.4752 283.673 42.428 284.191 42.3798V47.5065C283.049 47.5517 281.905 47.6029 280.764 47.6029H279.829C273.546 47.6029 272.403 45.3799 272.403 42.0405V26.4235H266.686C268.128 28.3924 268.985 30.775 268.985 33.3133C268.985 37.3305 266.857 40.8748 263.614 43.0003C267.72 44.8056 270.915 48.0276 270.536 52.6874C270.847 60.9557 263.082 64.7751 256.221 64.7751C253.202 64.7751 250.433 63.755 248.28 62.0602C248.803 61.3182 250.345 58.4998 250.415 58.542C250.415 58.542 253.766 60.0059 256.25 59.6826C258.995 59.6826 265.391 57.9164 264.769 52.8239C264.769 47.4151 258.063 46.3599 255.318 46.3599C254.038 46.3599 249.382 47.0165 248.501 48.0858C248.501 48.0858 249.548 46.0757 251.093 43.8728C246.977 41.9541 244.137 37.952 244.137 33.3133C244.137 26.8131 249.7 21.2918 256.562 21.2918C257.487 21.2918 258.386 21.4003 259.254 21.59H272.403V14.625H279.673V21.59H284.191V26.4235H279.673V40.3958C279.673 41.8969 279.725 42.4752 282.684 42.4752ZM233.387 20.9113C228.145 20.9113 226.067 23.813 225.081 25.3592H224.976V21.59H218.019V47.3097H225.287V32.5643C225.287 28.6495 227.781 26.6173 231 26.6173C235.621 26.6173 235.724 29.8082 235.724 31.6948V47.3097H242.993V29.518C242.993 23.8622 238.787 20.9113 233.387 20.9113ZM208.049 47.3097H215.318V21.59H208.049V47.3097ZM208.049 18.5417H215.318V12.2564H208.049V18.5417ZM195.885 20.9113C191.94 20.9113 188.824 22.7969 187.889 24.9255H187.786V12.5948H180.517V47.3097H187.786V32.5643C187.786 28.6495 190.279 26.6173 193.499 26.6173C198.119 26.6173 198.222 29.8082 198.222 31.6948V47.3097H205.492V29.518C205.492 23.8622 201.285 20.9113 195.885 20.9113ZM161.658 28.5511C161.658 27.4376 162.178 26.0369 166.123 26.0369C170.069 26.0369 170.693 27.776 171.005 29.4226H178.119C177.545 22.1704 171.108 20.9113 165.708 20.9113C157.089 20.9113 154.545 25.7458 154.545 29.518C154.545 39.1388 171.68 35.8997 171.68 40.2051C171.68 41.1679 170.798 42.8638 167.059 42.8638C162.488 42.8638 161.035 41.2704 161.035 39.0896H153.559C153.767 45.9582 160.567 47.9864 166.85 47.9864C171.161 47.9864 178.948 46.632 178.948 39.1388C178.948 29.6636 161.658 32.6115 161.658 28.5511ZM144.976 34.7902C144.25 35.3194 143.054 35.7541 140.044 36.1929C137.343 36.6266 135.111 37.2552 135.111 40.0585C135.111 42.428 137.085 43.1529 138.487 43.1529C141.706 43.1529 144.976 41.2191 144.976 38.0745V34.7902ZM154.223 46.2956V47.3097H146.382C145.966 46.1038 145.863 45.7163 145.707 44.2654C144.046 45.8588 141.709 47.9864 136.777 47.9864C132.624 47.9864 128.365 45.8107 128.365 40.4912C128.365 35.466 131.792 32.9026 136.414 32.2731L142.955 31.3554C144.099 31.2088 145.501 30.775 145.501 29.3252C145.501 26.4707 142.591 26.3281 140.723 26.3281C137.088 26.3281 136.465 28.4065 136.258 29.9055H129.248C130.079 22.0238 135.947 20.9113 141.606 20.9113C145.501 20.9113 152.613 22.0238 152.613 28.3593V42.2854C152.613 45.3317 153.341 46.0095 154.223 46.2956ZM124.92 12.5948C120.091 31.6948 119.467 34.6898 118.844 37.9801H118.741C117.91 33.483 117.546 31.6456 113.185 12.5948H104.929C100.983 30.8232 100.412 34.3505 99.7378 37.9801H99.6338C98.9588 34.0121 98.4908 31.5954 93.7138 12.5948H85.4068L95.9468 47.3097H103.216C107.214 29.4226 107.838 26.9085 108.981 20.2336H109.083C110.329 26.9085 111.005 30.2921 114.846 47.3097H122.322L132.812 12.5948H124.92ZM18.286 59.9155H33.5599V18.36H18.286V59.9155ZM36.5729 59.9155H39.3029C46.2369 59.9155 51.8469 54.2667 51.8469 47.3207V18.361H36.5729V59.9155ZM0 47.3207C0 54.2667 5.62699 59.9155 12.544 59.9155H15.275V18.361H0V47.3207ZM54.8589 59.9155H57.5889C64.5229 59.9155 70.1329 54.2667 70.1329 47.3207V31.4698H54.8589V59.9155ZM70.1329 12.5948V28.4457H54.8589V18.358C54.8589 16.6893 53.5109 15.3358 51.8499 15.3358H0V12.5948C0 5.63873 5.61599 0 12.544 0H57.5889C64.5229 0 70.1329 5.64877 70.1329 12.5948Z" fill="#004163"/>
<mask id="mask0_1_3" style="mask-type:luminance" maskUnits="userSpaceOnUse" x="0" y="0" width="576" height="65">
<path d="M561.609 63.9839C558.895 63.9839 557.983 62.4537 557.983 60.4657C557.983 58.2408 559.583 57.1112 561.565 57.1112C562.617 57.1112 564.216 57.3803 564.628 58.8603H566.061C565.847 57.4496 564.383 56.0971 561.565 56.0971C558.379 56.0971 556.458 57.8984 556.458 60.5029C556.458 63.75 558.895 65 561.38 65C562.205 65 565.558 64.8554 566.168 61.6656H564.734C564.232 63.6325 562.57 63.9839 561.609 63.9839ZM552.937 64.7751H554.414V56.321H552.937V64.7751ZM549.286 60.5029C549.286 58.3683 548.021 57.2959 546.008 57.2959H543.251V63.7992H546.117C548.038 63.7992 549.286 62.6305 549.286 60.5029ZM550.811 60.4326C550.811 62.3262 549.745 64.7751 546.147 64.7751H541.77V56.321H546.209C549.057 56.321 550.811 57.9928 550.811 60.4326ZM532.529 64.7751H534.009V60.9346H539.374V59.9235H534.009V57.3331H540.104V56.321H532.529V64.7751ZM524.373 59.6414H524.342V58.6163H523.078V64.7751H524.42V61.1937C524.42 60.3021 525.212 59.548 526.46 59.548H526.965V58.4757C526.857 58.4516 526.781 58.4416 526.614 58.4416C525.609 58.4416 524.907 58.9215 524.373 59.6414ZM519.902 61.2057C519.827 60.2549 519.31 59.3703 517.676 59.3703C516.443 59.3703 515.468 60.2549 515.468 61.2057H519.902ZM521.293 62.031H515.468C515.468 63.3142 516.243 64.0542 517.785 64.0542C519.051 64.0542 519.797 63.3042 519.843 62.8413H521.184C521.138 63.1365 520.771 64.007 519.767 64.5271C519.4 64.7148 518.884 64.9528 517.601 64.9528C515.36 64.9528 514.035 63.6455 514.035 61.8674C514.035 59.9597 515.225 58.4416 517.862 58.4416C520.164 58.4416 521.293 59.8533 521.293 62.031ZM511.439 61.6786C511.439 60.8884 511.334 59.3703 509.259 59.3703C507.324 59.3703 507.11 60.9818 507.11 61.9838C507.11 63.6224 508.437 64.0542 509.29 64.0542C510.755 64.0542 511.439 63.0331 511.439 61.6786ZM512.829 61.515C512.829 62.9859 512.035 64.9528 509.321 64.9528C507.964 64.9528 507.401 64.3494 507.126 64.007H507.095V64.7751H505.829V56.321H507.171V59.3944H507.201C507.779 58.7468 508.572 58.4516 509.504 58.4416C511.624 58.4416 512.829 59.782 512.829 61.515ZM501.492 58.4416C500.258 58.4416 499.723 58.8603 499.054 59.4406C498.826 59.1093 498.367 58.4416 496.933 58.4416C495.502 58.4416 494.816 59.1554 494.525 59.4868H494.497V58.6163H493.23V64.7751H494.572V61.4176C494.572 59.7448 495.912 59.3703 496.676 59.3703C497.666 59.3703 497.926 59.9928 497.926 60.5129V64.7751H499.266V61.019C499.266 60.1946 500.015 59.3703 501.141 59.3703C502.285 59.3703 502.624 59.9466 502.624 60.794V64.7751H503.962V60.5129C503.962 58.7839 502.346 58.4416 501.492 58.4416ZM490.238 61.2057C490.162 60.2549 489.644 59.3703 488.012 59.3703C486.778 59.3703 485.803 60.2549 485.803 61.2057H490.238ZM491.627 62.031H485.803C485.803 63.3142 486.581 64.0542 488.121 64.0542C489.385 64.0542 490.131 63.3042 490.178 62.8413H491.518C491.475 63.1365 491.108 64.007 490.103 64.5271C489.736 64.7148 489.219 64.9528 487.939 64.9528C485.695 64.9528 484.37 63.6455 484.37 61.8674C484.37 59.9597 485.559 58.4416 488.196 58.4416C490.499 58.4416 491.627 59.8533 491.627 62.031ZM477.441 63.4678H477.41L474.285 56.321H472.166V64.7751H473.597V59.782C473.597 59.534 473.569 58.4657 473.569 57.6855H473.597L476.679 64.7751H478.14L481.221 57.6745H481.252C481.252 58.4657 481.221 59.534 481.221 59.782V64.7751H482.654V56.321H480.552L477.441 63.4678ZM576 21.591H566.888L557.565 31.3574V12.5948H550.149V47.3127H557.565V36.9791L566.061 47.3127H574.962L563.276 34.0362L576 21.591ZM547.671 47.3127V29.519C547.671 23.8622 543.381 20.9143 537.871 20.9143C532.52 20.9143 530.403 23.813 529.394 25.3612H529.29V21.591H522.189V47.3127H529.607V32.5653C529.607 28.6495 532.151 26.6193 535.432 26.6193C540.15 26.6193 540.254 29.8102 540.254 31.6958V47.3127H547.671ZM512.115 34.7922C511.372 35.3214 510.155 35.7571 507.082 36.1939C504.327 36.6286 502.048 37.2562 502.048 40.0625C502.048 42.431 504.062 43.157 505.492 43.157C508.775 43.157 512.115 41.2232 512.115 38.0785V34.7922ZM521.014 47.3127H513.014C512.592 46.1038 512.484 45.7203 512.327 44.2654C510.631 45.8629 508.248 47.9894 503.215 47.9894C498.975 47.9894 494.631 45.8147 494.631 40.4942C494.631 35.47 498.129 32.9046 502.845 32.2751L509.519 31.3574C510.682 31.2128 512.115 30.7771 512.115 29.3272C512.115 26.4727 509.148 26.3301 507.239 26.3301C503.531 26.3301 502.896 28.4075 502.684 29.9055H495.533C496.38 22.0258 502.368 20.9143 508.141 20.9143C512.115 20.9143 519.37 22.0258 519.37 28.3603V42.2854C519.37 45.3317 520.112 46.0095 521.014 46.2986V47.3127ZM470.304 41.3185H480.051C483.918 41.3185 486.143 39.7693 486.143 36.2421C486.143 33.1958 483.282 32.0351 480.421 32.0351H470.304V41.3185ZM470.304 26.1835H479.628C482.752 26.1835 485.244 25.0721 485.244 22.3149C485.244 19.4624 483.017 18.5929 479.416 18.5929H470.304V26.1835ZM478.78 47.3127H462.676V12.5948H481.165C490.488 12.5948 492.872 17.9152 492.872 21.4926C492.872 26.4727 489.798 27.8754 488.209 28.6023C492.872 30.1967 494.088 33.5824 494.088 37.0152C494.088 39.7693 492.817 42.3838 490.803 44.171C488.632 46.1038 486.567 47.3127 478.78 47.3127ZM248.145 62.2288C248.175 62.2037 248.223 62.1405 248.28 62.0602C248.278 62.0581 248.276 62.0571 248.274 62.0551C248.274 62.0551 248.08 62.2841 248.145 62.2288ZM445.654 14.625H438.312V21.59V26.4235V42.0405C438.312 45.3799 439.466 47.6029 445.811 47.6029H446.755C447.91 47.6029 449.062 47.5517 450.217 47.5065V42.3798C449.693 42.428 449.168 42.4752 448.697 42.4752C445.707 42.4752 445.654 41.8969 445.654 40.3958V26.4235H450.217V21.59H445.654V14.625ZM419.368 28.5511C419.368 27.4376 419.885 26.0369 423.832 26.0369C427.778 26.0369 428.401 27.776 428.712 29.4226H435.826C435.255 22.1704 428.815 20.9113 423.416 20.9113C414.798 20.9113 412.252 25.7458 412.252 29.518C412.252 39.1388 429.388 35.8997 429.388 40.2051C429.388 41.1679 428.506 42.8638 424.767 42.8638C420.197 42.8638 418.744 41.2704 418.744 39.0896H411.267C411.472 45.9582 418.275 47.9864 424.558 47.9864C428.869 47.9864 436.657 46.632 436.657 39.1388C436.657 29.6636 419.368 32.6115 419.368 28.5511ZM402.744 36.4318C402.744 41.0254 399.523 42.2854 397.134 42.2854C394.904 42.2854 392.412 41.5083 392.412 37.5453V21.59H385.142V38.5142C385.142 45.0908 389.089 47.9864 394.54 47.9864C398.382 47.9864 401.292 46.4412 402.953 43.6871H403.054V47.3097H410.014V21.59H402.744V36.4318ZM374.356 26.0369H374.251V21.59H367.294V47.3097H374.562V33.9177C374.562 31.0662 375.6 27.776 381.26 27.776C381.935 27.776 382.713 27.776 383.337 27.8734V21.0057C382.871 20.9595 382.403 20.9113 381.935 20.9113C377.52 20.9113 375.859 23.4264 374.356 26.0369ZM374.188 12.5948H343.864V18.7355H355.131V47.3097H362.921V18.7355H374.188V12.5948ZM328.436 20.9113C323.193 20.9113 321.115 23.813 320.127 25.3592H320.024V21.59H313.067V47.3097H320.338V32.5643C320.338 28.6495 322.828 26.6173 326.048 26.6173C330.669 26.6173 330.772 29.8082 330.772 31.6948V47.3097H338.041V29.518C338.041 23.8622 333.838 20.9113 328.436 20.9113ZM304.234 34.4519C304.234 31.1616 303.194 26.6173 297.587 26.6173C291.98 26.6173 290.943 31.1616 290.943 34.4519C290.943 37.7361 291.98 42.2854 297.587 42.2854C303.194 42.2854 304.234 37.7361 304.234 34.4519ZM311.709 34.4519C311.709 43.7313 305.011 47.9864 297.587 47.9864C290.163 47.9864 283.465 43.7313 283.465 34.4519C283.465 25.1674 290.163 20.9113 297.587 20.9113C305.011 20.9113 311.709 25.1674 311.709 34.4519ZM261.528 33.3133C261.528 29.6244 259.305 26.6323 256.562 26.6323C253.817 26.6323 251.591 29.6244 251.591 33.3133C251.591 37.0032 253.817 39.9942 256.562 39.9942C259.305 39.9942 261.528 37.0032 261.528 33.3133ZM282.684 42.4752C283.153 42.4752 283.673 42.428 284.191 42.3798V47.5065C283.049 47.5517 281.905 47.6029 280.764 47.6029H279.829C273.546 47.6029 272.403 45.3799 272.403 42.0405V26.4235H266.686C268.128 28.3924 268.985 30.775 268.985 33.3133C268.985 37.3305 266.857 40.8748 263.614 43.0003C267.72 44.8056 270.915 48.0276 270.536 52.6874C270.847 60.9557 263.082 64.7751 256.221 64.7751C253.202 64.7751 250.433 63.755 248.28 62.0602C248.803 61.3182 250.345 58.4998 250.415 58.542C250.415 58.542 253.766 60.0059 256.25 59.6826C258.995 59.6826 265.391 57.9164 264.769 52.8239C264.769 47.4151 258.063 46.3599 255.318 46.3599C254.038 46.3599 249.382 47.0165 248.501 48.0858C248.501 48.0858 249.548 46.0757 251.093 43.8728C246.977 41.9541 244.137 37.952 244.137 33.3133C244.137 26.8131 249.7 21.2918 256.562 21.2918C257.487 21.2918 258.386 21.4003 259.254 21.59H272.403V14.625H279.673V21.59H284.191V26.4235H279.673V40.3958C279.673 41.8969 279.725 42.4752 282.684 42.4752ZM233.387 20.9113C228.145 20.9113 226.067 23.813 225.081 25.3592H224.976V21.59H218.019V47.3097H225.287V32.5643C225.287 28.6495 227.781 26.6173 231 26.6173C235.621 26.6173 235.724 29.8082 235.724 31.6948V47.3097H242.993V29.518C242.993 23.8622 238.787 20.9113 233.387 20.9113ZM208.049 47.3097H215.318V21.59H208.049V47.3097ZM208.049 18.5417H215.318V12.2564H208.049V18.5417ZM195.885 20.9113C191.94 20.9113 188.824 22.7969 187.889 24.9255H187.786V12.5948H180.517V47.3097H187.786V32.5643C187.786 28.6495 190.279 26.6173 193.499 26.6173C198.119 26.6173 198.222 29.8082 198.222 31.6948V47.3097H205.492V29.518C205.492 23.8622 201.285 20.9113 195.885 20.9113ZM161.658 28.5511C161.658 27.4376 162.178 26.0369 166.123 26.0369C170.069 26.0369 170.693 27.776 171.005 29.4226H178.119C177.545 22.1704 171.108 20.9113 165.708 20.9113C157.089 20.9113 154.545 25.7458 154.545 29.518C154.545 39.1388 171.68 35.8997 171.68 40.2051C171.68 41.1679 170.798 42.8638 167.059 42.8638C162.488 42.8638 161.035 41.2704 161.035 39.0896H153.559C153.767 45.9582 160.567 47.9864 166.85 47.9864C171.161 47.9864 178.948 46.632 178.948 39.1388C178.948 29.6636 161.658 32.6115 161.658 28.5511ZM144.976 34.7902C144.25 35.3194 143.054 35.7541 140.044 36.1929C137.343 36.6266 135.111 37.2552 135.111 40.0585C135.111 42.428 137.085 43.1529 138.487 43.1529C141.706 43.1529 144.976 41.2191 144.976 38.0745V34.7902ZM154.223 46.2956V47.3097H146.382C145.966 46.1038 145.863 45.7163 145.707 44.2654C144.046 45.8588 141.709 47.9864 136.777 47.9864C132.624 47.9864 128.365 45.8107 128.365 40.4912C128.365 35.466 131.792 32.9026 136.414 32.2731L142.955 31.3554C144.099 31.2088 145.501 30.775 145.501 29.3252C145.501 26.4707 142.591 26.3281 140.723 26.3281C137.088 26.3281 136.465 28.4065 136.258 29.9055H129.248C130.079 22.0238 135.947 20.9113 141.606 20.9113C145.501 20.9113 152.613 22.0238 152.613 28.3593V42.2854C152.613 45.3317 153.341 46.0095 154.223 46.2956ZM124.92 12.5948C120.091 31.6948 119.467 34.6898 118.844 37.9801H118.741C117.91 33.483 117.546 31.6456 113.185 12.5948H104.929C100.983 30.8232 100.412 34.3505 99.7378 37.9801H99.6338C98.9588 34.0121 98.4908 31.5954 93.7138 12.5948H85.4068L95.9468 47.3097H103.216C107.214 29.4226 107.838 26.9085 108.981 20.2336H109.083C110.329 26.9085 111.005 30.2921 114.846 47.3097H122.322L132.812 12.5948H124.92ZM18.286 59.9155H33.5599V18.36H18.286V59.9155ZM36.5729 59.9155H39.3029C46.2369 59.9155 51.8469 54.2667 51.8469 47.3207V18.361H36.5729V59.9155ZM0 47.3207C0 54.2667 5.62699 59.9155 12.544 59.9155H15.275V18.361H0V47.3207ZM54.8589 59.9155H57.5889C64.5229 59.9155 70.1329 54.2667 70.1329 47.3207V31.4698H54.8589V59.9155ZM70.1329 12.5948V28.4457H54.8589V18.358C54.8589 16.6893 53.5109 15.3358 51.8499 15.3358H0V12.5948C0 5.63873 5.61599 0 12.544 0H57.5889C64.5229 0 70.1329 5.64877 70.1329 12.5948Z" fill="#004163"/>
</mask>
<g mask="url(#mask0_1_3)">
<path d="M625 -36H-52V96H625V-36Z" fill="#004163"/>
</g>
</g>
<defs>
<clipPath id="clip0_1_3">
<rect width="576" height="65" fill="white"/>
</clipPath>
</defs>
</svg>
