<svg xmlns="http://www.w3.org/2000/svg" width="401" height="60" viewBox="0 0 401 60"><title>Group 6</title><g fill="none" fill-rule="evenodd"><path fill="#228798" d="m10.25 4.871 16.552 45.005q.75 2.018-.17 3.953-.914 1.931-2.974 2.666c-1.365.49-2.707.434-4.017-.166q-1.968-.903-2.717-2.922L.37 8.405l-.035-.096q-.748-2.018.17-3.95.917-1.933 2.969-2.669 2.059-.734 4.023.166 1.97.903 2.717 2.921z"/><path fill="#228798" d="M34.588 4.691 18.036 49.696q-.75 2.018.17 3.953.914 1.931 2.973 2.666 2.05.734 4.018-.166 1.968-.903 2.717-2.923L44.467 8.225l.035-.097q.748-2.016-.17-3.95-.916-1.932-2.97-2.668-2.058-.734-4.022.166-1.97.904-2.717 2.92zM68.807 4.691 52.254 49.696q-.75 2.018.17 3.953.914 1.931 2.974 2.666 2.05.734 4.017-.166 1.968-.903 2.717-2.923L78.685 8.225l.035-.097q.748-2.016-.17-3.95-.917-1.932-2.969-2.668-2.059-.734-4.023.166-1.97.904-2.717 2.92zM194.155 0q2.186 0 3.72 1.534 1.536 1.533 1.535 3.68 0 1.635-.988 3.016l-20.294 27.402v14.67q0 1.891-1.275 3.349-1.276 1.455-3.147 1.763h-.105a.6.6 0 0 0-.26.05h-.937a.6.6 0 0 0-.26-.05h-.105q-1.874-.307-3.147-1.763-1.275-1.457-1.276-3.35v-.51l-.064-14.17v.035q.084-1.75.467-2.643.598-1.395 12.103-17.663l9.766-13.203a6.1 6.1 0 0 1 1.872-1.56A5 5 0 0 1 194.155 0"/><path fill="#ffc000" d="M156.66 3.366 167.74 18.95q1.243 1.718.93 3.819-.313 2.095-2.003 3.362-1.69 1.265-3.743.946-2.064-.319-3.303-2.04L148.543 9.456l-.06-.082q-1.24-1.718-.927-3.82.31-2.094 1.997-3.362 1.693-1.267 3.747-.947c1.378.214 2.474.896 3.303 2.04z"/><path fill="#228798" d="M45.647 4.692 62.2 49.697q.75 2.018-.17 3.95-.914 1.932-2.972 2.668-2.054.735-4.019-.167-1.97-.9-2.716-2.92L35.769 8.224l-.037-.095q-.745-2.017.173-3.952.913-1.932 2.967-2.666 2.058-.736 4.024.166 1.968.902 2.717 2.92zM90.856 6.34q0-2.145 1.524-3.652t3.695-1.508q2.173.001 3.698 1.508t1.524 3.652v17.415h26.315V6.34q-.001-2.145 1.526-3.652 1.524-1.507 3.696-1.508 2.17.001 3.695 1.508t1.524 3.652v45.146q0 2.147-1.524 3.653t-3.695 1.506-3.696-1.506q-1.527-1.506-1.526-3.653V34.123h-26.315v17.364q0 2.145-1.524 3.652-1.524 1.506-3.697 1.506-2.171 0-3.696-1.506t-1.525-3.652Z"/><path fill="#636d6f" d="M246.226 47.802q1.563 1.533 1.562 3.68t-1.562 3.655c-1.042 1.007.46 1.508-.998 1.508H215.29q-2.188.001-3.722-1.508-1.539-1.507-1.538-3.655V6.395q0-2.147 1.538-3.68 1.534-1.535 3.722-1.535t3.724 1.534q1.537 1.534 1.537 3.68V46.27h21.926q2.187 0 3.75 1.533"/><path fill="#636d6f" d="M297.345 51.487q0 2.145-1.522 3.652-1.522 1.506-3.688 1.506a5.1 5.1 0 0 1-2.76-.792q-1.262-.792-1.883-2.067l-.051.05-5.364-10.52H269.64q-2.168 0-3.715-1.533-1.547-1.531-1.548-3.677 0-2.145 1.548-3.652 1.546-1.506 3.715-1.506h7.123l-7.736-15.117-18.468 36.005v-.05a5.4 5.4 0 0 1-1.908 2.067 4.97 4.97 0 0 1-2.735.792q-2.167 0-3.688-1.506-1.52-1.506-1.52-3.652 0-1.225.566-2.349h-.05l22.953-44.687q.567-1.431 1.884-2.35a5.05 5.05 0 0 1 2.966-.92q1.65 0 2.938.92a5.53 5.53 0 0 1 1.909 2.35l22.904 44.687q.566 1.124.567 2.349M337.711 45.333a6.65 6.65 0 0 0 2.431-2.502 6.7 6.7 0 0 0 .863-3.295q0-1.94-1.15-3.677-1.255-1.787-2.876-2.4-1.622-.612-3.504-.613l-1.78.05-4.266-.05-.158.05q-2.196 0-3.738-1.53-1.544-1.532-1.544-3.68-.001-1.99 1.385-3.471 1.387-1.48 3.374-1.685h4.897q2.612-.052 4.051-1.686t1.439-3.831q-.001-2.145-1.385-3.754-1.388-1.61-3.845-1.66H313.81v34.68h20.344q1.986 0 3.557-.946m12.238-13.202q1.673 3.474 1.673 7.251 0 4.445-2.17 8.402-2.17 3.96-6.172 6.41-4 2.45-9.126 2.45h-25.625q-.367.001-.524-.049a4.9 4.9 0 0 1-2.695-.995 5.44 5.44 0 0 1-1.75-2.275 5.6 5.6 0 0 1-.315-1.838V6.34q0-2.145 1.543-3.652t3.74-1.508h23.011q4.6 0 8.343 2.223 3.736 2.221 5.83 5.9 2.09 3.676 2.09 7.813.001 4.698-2.822 8.783-.105.104-.105.206 3.4 2.555 5.074 6.026M388.28 26.654s1.98.607 5.876 3.367q5.842 4.14 5.844 11.853 0 4.709-2.394 8.618t-6.977 6.21q-4.584 2.302-10.862 2.303-5.82 0-10.888-1.707-5.073-1.709-10.22-5.125a5.15 5.15 0 0 1-1.698-1.864 5.1 5.1 0 0 1-.619-2.484q0-2.173 1.518-3.7 1.52-1.527 3.682-1.527 1.645-.001 2.832.829v-.054q3.912 2.591 7.516 3.883 3.603 1.293 7.877 1.294 5.095 0 7.439-1.915 2.342-1.915 2.342-4.76 0-2.071-1.493-3.419-1.494-1.344-3.758-2.148-2.265-.801-6.282-1.784-5.302-1.346-8.725-2.588t-6.384-3.78q-2.96-2.534-4.196-6.624-.567-1.709-.567-4.038v-.413q.155-5.9 2.757-9.73 2.596-3.83 6.82-5.59Q371.94 0 376.987 0q5.455 0 10.708 1.865a54 54 0 0 1 6.846 3.052 5.25 5.25 0 0 1 2.06 1.915 5.1 5.1 0 0 1 .773 2.744c0 1.448-.508 2.684-1.519 3.7q-1.52 1.529-3.681 1.528-1.287 0-2.42-.57-4.273-2.223-7.027-2.95a21.9 21.9 0 0 0-5.585-.725q-3.296 0-5.175.777c-1.253.517-2.129 1.262-2.626 2.225q-.746 1.451-.798 3.778v.155q.052 2.538 3.037 3.986 2.987 1.45 7.106 2.381c6.417 1.347 9.594 2.793 9.594 2.793"/></g></svg>