<svg width="209" height="38" viewBox="0 0 209 38" fill="none" xmlns="http://www.w3.org/2000/svg">
<path d="M42.6405 18.6288C42.6405 22.2456 41.716 25.8048 39.9579 28.9713C38.1998 32.133 35.6657 34.7869 32.5854 36.7078C32.4082 36.8084 32.2022 36.8611 31.9914 36.8611C31.7806 36.8611 31.5794 36.8084 31.3974 36.7078L21.3567 30.8779L11.3112 36.6887C11.1339 36.7893 10.9279 36.842 10.7172 36.842C10.5064 36.842 10.3052 36.7893 10.1231 36.6887C7.0477 34.7677 4.51357 32.1138 2.76027 28.9521C1.00219 25.7857 0.0776367 22.2216 0.0776367 18.6096C0.0776367 14.9976 1.00219 11.4336 2.76027 8.2719C4.51836 5.11022 7.05249 2.44675 10.1231 0.535375C10.3052 0.434776 10.516 0.38208 10.7172 0.38208C10.9184 0.38208 11.1339 0.434775 11.3112 0.544954L21.3567 6.34615L31.3974 0.544954C31.5794 0.434775 31.7902 0.38208 31.9914 0.38208C32.1926 0.38208 32.4082 0.434775 32.5854 0.544954V0.559327C35.6657 2.4707 38.1998 5.13418 39.9579 8.29585C41.716 11.4575 42.6405 15.0168 42.6405 18.6336V18.6288Z" fill="#F0F0F0"/>
<path d="M42.6407 18.6288C42.6407 22.2456 41.7161 25.8048 39.958 28.9713C38.2 32.133 35.6658 34.7869 32.5856 36.7078C32.4083 36.8084 32.2023 36.8611 31.9916 36.8611C31.7808 36.8611 31.5796 36.8084 31.3976 36.7078L21.3568 30.8779L30.8275 25.3976C31.1772 25.1964 31.4694 24.909 31.6706 24.5593C31.8718 24.2144 31.9868 23.8216 31.9868 23.4192V13.8048C31.9868 13.3976 31.8766 13.0096 31.6754 12.6551C31.4742 12.3054 31.1772 12.0132 30.8227 11.8168L21.3521 6.34615L31.3928 0.544954C31.5748 0.434775 31.7856 0.38208 31.9868 0.38208C32.188 0.38208 32.4035 0.434775 32.5808 0.544954V0.559327C35.661 2.4707 38.1952 5.13418 39.9532 8.29585C41.7113 11.4575 42.6359 15.0168 42.6359 18.6336L42.6407 18.6288Z" fill="url(#paint0_radial_3633_98)"/>
<path d="M11.8813 25.4264L21.3616 30.8779L11.316 36.6887C11.1388 36.7893 10.9328 36.842 10.722 36.842C10.5113 36.842 10.3101 36.7893 10.128 36.6887C7.05258 34.7677 4.51845 32.1138 2.76515 28.9521C1.00707 25.7857 0.0825195 22.2216 0.0825195 18.6096C0.0825195 14.9976 1.00707 11.4336 2.76515 8.2719C4.52324 5.11022 7.05737 2.44675 10.128 0.535375C10.3101 0.434776 10.5208 0.38208 10.722 0.38208C10.9232 0.38208 11.1388 0.434775 11.316 0.544954L21.3616 6.34615L11.8813 11.8264C11.5316 12.0228 11.2442 12.315 11.043 12.6647C10.8418 13.0096 10.7316 13.4024 10.7268 13.8048V23.4479C10.7316 23.8551 10.8418 24.2384 11.043 24.5881C11.2442 24.9378 11.5364 25.2252 11.8813 25.4264V25.4264Z" fill="url(#paint1_radial_3633_98)"/>
<path d="M64.5807 18.3702L71.6992 7.31872C71.8142 7.13668 71.8238 6.91154 71.7232 6.71992C71.6226 6.53309 71.4214 6.41333 71.2106 6.41333H68.0394C67.8382 6.41333 67.6513 6.51393 67.5412 6.68639L62.3244 14.9594L57.0118 6.68639C56.9016 6.51872 56.7196 6.41812 56.5184 6.41812H53.3471C53.1316 6.41812 52.9352 6.53788 52.8298 6.72471C52.7292 6.91632 52.7388 7.14626 52.8537 7.32351L60.0729 18.3367L52.2932 29.9151C52.1735 30.0972 52.1591 30.3271 52.2597 30.5187C52.3603 30.7103 52.5615 30.8301 52.7771 30.8301H55.9819C56.1783 30.8301 56.3603 30.7295 56.4705 30.5666L62.2861 21.7331L68.0681 30.5666C68.1783 30.7343 68.3603 30.8301 68.5567 30.8301H71.7615C71.9771 30.8301 72.1783 30.7103 72.2789 30.5187C72.3795 30.3271 72.3699 30.0972 72.2501 29.9199L64.5711 18.3702H64.5807Z" fill="#000035"/>
<path d="M96.6959 6.41797H95.7426C95.5558 6.41797 95.3785 6.50899 95.2732 6.65749L85.9893 19.2467L76.7726 6.65749C76.6624 6.50899 76.4851 6.41797 76.2983 6.41797H75.3115C74.9905 6.41797 74.7271 6.68144 74.7271 7.0024V30.2455C74.7271 30.5665 74.9905 30.8299 75.3115 30.8299H78.0612C78.3821 30.8299 78.6456 30.5665 78.6456 30.2455V15.5533L85.0552 24.1186C85.1654 24.2671 85.3426 24.3533 85.5247 24.3533H86.5115C86.6935 24.3533 86.8708 24.2671 86.9809 24.1186L93.357 15.5916V30.2455C93.357 30.5665 93.6205 30.8299 93.9414 30.8299H96.6911C97.0121 30.8299 97.2755 30.5665 97.2755 30.2455V7.0024C97.2755 6.68144 97.0121 6.41797 96.6911 6.41797H96.6959Z" fill="#000035"/>
<path d="M124.001 9.73766C127.014 9.73766 129.333 10.988 131.091 13.5652C131.182 13.6993 131.326 13.7904 131.489 13.8143C131.651 13.8383 131.814 13.7951 131.939 13.6945L133.98 12.0754C134.219 11.8886 134.272 11.5532 134.109 11.2993C133.074 9.69455 131.647 8.40113 129.879 7.45742C128.111 6.51371 126.123 6.03467 123.968 6.03467C120.442 6.03467 117.419 7.26102 114.976 9.6706C112.533 12.085 111.297 15.0981 111.297 18.6287C111.297 22.1592 112.533 25.1676 114.976 27.5868C117.414 30.0011 120.442 31.2275 123.968 31.2275C126.123 31.2275 128.116 30.7484 129.898 29.8047C131.685 28.8562 133.103 27.5628 134.118 25.9532C134.277 25.6993 134.219 25.3688 133.984 25.182L131.944 23.5628C131.819 23.4622 131.651 23.4191 131.493 23.443C131.33 23.467 131.187 23.558 131.096 23.6922C129.342 26.2694 127.024 27.5197 124.006 27.5197C121.553 27.5197 119.469 26.667 117.821 24.9856C116.169 23.2993 115.33 21.1628 115.33 18.6335C115.33 16.1041 116.169 13.9676 117.821 12.2814C119.469 10.5999 121.553 9.74724 124.006 9.74724L124.001 9.73766Z" fill="#000035"/>
<path d="M165.553 12.1184C164.183 12.1184 162.885 12.3963 161.697 12.9472C161.002 13.2681 160.379 13.6705 159.833 14.14V3.83101C159.833 3.51005 159.57 3.24658 159.249 3.24658H156.538C156.217 3.24658 155.953 3.51005 155.953 3.83101V30.2406C155.953 30.5615 156.217 30.825 156.538 30.825H159.072C159.393 30.825 159.656 30.5615 159.656 30.2406V29.0669C160.207 29.5651 160.844 29.9915 161.567 30.3316C162.813 30.916 164.169 31.213 165.587 31.213C168.188 31.213 170.368 30.2837 172.073 28.4538C173.764 26.6334 174.626 24.358 174.626 21.6801C174.626 19.0023 173.759 16.6885 172.054 14.8681C170.339 13.0382 168.15 12.1136 165.548 12.1136L165.553 12.1184ZM170.674 21.6514C170.674 23.3663 170.147 24.7939 169.108 25.8957C168.063 27.0023 166.775 27.5436 165.165 27.5436C163.685 27.5436 162.401 27.0454 161.357 26.0633C160.322 25.0909 159.8 23.6202 159.8 21.6849C159.8 19.7496 160.327 18.2693 161.362 17.2873C162.42 16.2813 163.666 15.7927 165.165 15.7927C166.751 15.7927 168.035 16.334 169.088 17.4406C170.138 18.5424 170.669 19.9604 170.669 21.6514H170.674Z" fill="#000035"/>
<path d="M186.123 12.1187C183.503 12.1187 181.266 13.0576 179.469 14.9019C177.678 16.7462 176.768 19.0264 176.768 21.6851C176.768 24.3438 177.702 26.6576 179.551 28.4779C181.395 30.2935 183.714 31.218 186.444 31.218C189.175 31.218 191.757 30.1498 193.74 28.042C193.946 27.8216 193.956 27.4863 193.754 27.2564L192.169 25.4264C192.063 25.3019 191.91 25.23 191.742 25.2252C191.589 25.2252 191.421 25.2827 191.311 25.3977C189.884 26.8252 188.255 27.5486 186.478 27.5486C184.945 27.5486 183.632 27.0791 182.588 26.145C181.697 25.3498 181.122 24.3246 180.883 23.0839H193.73C194.004 23.0839 194.243 22.8923 194.301 22.624C194.449 21.9534 194.526 21.2204 194.526 20.454C194.526 18.0492 193.716 16.0324 192.111 14.4707C190.516 12.9091 188.499 12.1187 186.118 12.1187H186.123ZM182.698 16.9713C183.642 16.1666 184.768 15.7546 186.051 15.7546C187.335 15.7546 188.399 16.1378 189.271 16.9234C189.999 17.5845 190.415 18.4324 190.535 19.5103H181.055C181.366 18.4851 181.922 17.6324 182.698 16.9666V16.9713Z" fill="#000035"/>
<path d="M207.642 12.521C207.139 12.4204 206.674 12.3677 206.257 12.3677C204.384 12.3677 202.799 12.9329 201.524 14.0539V13.0958C201.524 12.7749 201.261 12.5114 200.94 12.5114H198.406C198.085 12.5114 197.821 12.7749 197.821 13.0958V30.2455C197.821 30.5665 198.085 30.8299 198.406 30.8299H201.117C201.443 30.8299 201.702 30.5665 201.702 30.2455V20.5258C201.702 19.1222 202.152 18.0587 203.076 17.2779C204.02 16.4826 205.17 16.0803 206.502 16.0803H207.522C207.843 16.0803 208.106 15.8168 208.106 15.4958V13.1006C208.106 12.8228 207.91 12.5785 207.637 12.5258L207.642 12.521Z" fill="#000035"/>
<path d="M152.887 12.4491H150.281C150.018 12.4491 149.783 12.6072 149.682 12.8467L144.336 25.6898L139.268 12.8563C139.172 12.6072 138.933 12.4443 138.665 12.4443H136.097C135.881 12.4443 135.68 12.5497 135.56 12.727C135.441 12.9042 135.417 13.1294 135.493 13.3306L142.281 30.4515L139.608 36.7174C139.522 36.9186 139.546 37.1437 139.666 37.3258C139.785 37.5078 139.987 37.618 140.207 37.618H142.741C143 37.618 143.235 37.4647 143.335 37.2252L153.477 13.3497C153.563 13.1485 153.539 12.9234 153.419 12.7413C153.299 12.5593 153.098 12.4491 152.878 12.4491H152.887Z" fill="#000035"/>
<defs>
<radialGradient id="paint0_radial_3633_98" cx="0" cy="0" r="1" gradientUnits="userSpaceOnUse" gradientTransform="translate(23.2874 18.5713) scale(19.4491 19.4491)">
<stop stop-color="white"/>
<stop offset="0.96" stop-color="#23D0FF"/>
</radialGradient>
<radialGradient id="paint1_radial_3633_98" cx="0" cy="0" r="1" gradientUnits="userSpaceOnUse" gradientTransform="translate(19.5843 18.5186) scale(19.4395)">
<stop stop-color="white"/>
<stop offset="1" stop-color="#00FF91"/>
</radialGradient>
</defs>
</svg>
