<svg width="65" height="18" viewBox="0 0 65 18" fill="none" xmlns="http://www.w3.org/2000/svg">
<g clip-path="url(#clip0_379_976)">
<path fill-rule="evenodd" clip-rule="evenodd" d="M2.59012 9.89242C3.1835 9.54901 3.18449 8.43723 2.59232 7.40917C2.00015 6.38112 1.03907 5.8261 0.445685 6.16951C-0.1477 6.51292 -0.148687 7.62471 0.443482 8.65276C1.03565 9.68083 1.99674 10.2358 2.59012 9.89242ZM2.59367 12.0937C3.18584 13.1218 3.18485 14.2336 2.59147 14.577C1.99807 14.9204 1.037 14.3654 0.444829 13.3373C-0.14734 12.3093 -0.146353 11.1975 0.447032 10.8541C1.04042 10.5107 2.0015 11.0657 2.59367 12.0937ZM6.6374 14.4371C7.22957 15.4652 7.22859 16.5769 6.6352 16.9205C6.04182 17.2638 5.08073 16.7088 4.48856 15.6807C3.89641 14.6527 3.89739 13.5409 4.49077 13.1975C5.08416 12.8541 6.04523 13.4091 6.6374 14.4371ZM6.63608 9.75262C7.22825 10.7807 7.22727 11.8925 6.63388 12.2359C6.0405 12.5793 5.07942 12.0243 4.48726 10.9962C3.89509 9.96815 3.89607 8.85637 4.48945 8.51296C5.08284 8.16956 6.04393 8.72457 6.63608 9.75262Z" fill="#F26E7E"/>
<path fill-rule="evenodd" clip-rule="evenodd" d="M14.7255 8.6552C15.3177 7.62715 15.3167 6.51536 14.7233 6.17195C14.13 5.82854 13.1689 6.38356 12.5767 7.41162C11.9845 8.43967 11.9855 9.55145 12.5789 9.89488C13.1723 10.2383 14.1334 9.68327 14.7255 8.6552ZM14.7257 10.8554C15.319 11.1988 15.3201 12.3106 14.7279 13.3387C14.1357 14.3667 13.1746 14.9217 12.5812 14.5783C11.9879 14.2349 11.9869 13.1231 12.579 12.0951C13.1712 11.067 14.1323 10.512 14.7257 10.8554ZM10.6827 13.195C11.2761 13.5384 11.2771 14.6502 10.6849 15.6782C10.0928 16.7062 9.13169 17.2613 8.53831 16.9179C7.94492 16.5745 7.94394 15.4627 8.53611 14.4346C9.12828 13.4066 10.0894 12.8515 10.6827 13.195ZM10.6805 8.51147C11.2738 8.85487 11.2748 9.96667 10.6827 10.9947C10.0905 12.0228 9.12941 12.5778 8.53602 12.2344C7.94263 11.891 7.94165 10.7792 8.53381 9.75114C9.12598 8.72307 10.0871 8.16806 10.6805 8.51147Z" fill="#8A3391"/>
<path fill-rule="evenodd" clip-rule="evenodd" d="M9.72824 2.18354C9.72824 2.87035 8.76815 3.42713 7.58382 3.42713C6.39948 3.42713 5.43939 2.87035 5.43939 2.18354C5.43939 1.49672 6.39948 0.939941 7.58382 0.939941C8.76815 0.939941 9.72824 1.49672 9.72824 2.18354ZM5.68534 4.52068C5.68534 5.2075 4.72525 5.76428 3.54092 5.76428C2.35658 5.76428 1.39648 5.2075 1.39648 4.52068C1.39648 3.83386 2.35658 3.27708 3.54092 3.27708C4.72525 3.27708 5.68534 3.83386 5.68534 4.52068ZM11.632 5.76428C12.8163 5.76428 13.7764 5.2075 13.7764 4.52068C13.7764 3.83386 12.8163 3.27708 11.632 3.27708C10.4477 3.27708 9.48757 3.83386 9.48757 4.52068C9.48757 5.2075 10.4477 5.76428 11.632 5.76428ZM9.72824 6.86307C9.72824 7.54989 8.76815 8.10665 7.58382 8.10665C6.39948 8.10665 5.43939 7.54989 5.43939 6.86307C5.43939 6.17625 6.39948 5.61947 7.58382 5.61947C8.76815 5.61947 9.72824 6.17625 9.72824 6.86307Z" fill="#F7BF2A"/>
<path fill-rule="evenodd" clip-rule="evenodd" d="M38.5684 3.8291H39.3657C39.6131 3.8291 39.7506 3.96688 39.7506 4.21488V13.4942C39.7506 13.7422 39.6131 13.88 39.3657 13.88H38.5684C38.321 13.88 38.1835 13.7422 38.1835 13.4942V4.21488C38.1835 3.96688 38.321 3.8291 38.5684 3.8291ZM23.2356 13.8799C23.4831 13.8799 23.6205 13.7421 23.6205 13.4942V10.3873H25.2355C27.2836 10.3873 28.5688 9.16105 28.5688 7.31484C28.5688 5.4755 27.2836 4.2424 25.2355 4.2424H22.3834C22.136 4.2424 21.9985 4.38018 21.9985 4.62818V13.4942C21.9985 13.7421 22.136 13.8799 22.3834 13.8799H23.2356ZM23.6205 5.61328H25.1325C26.287 5.61328 26.94 6.2815 26.94 7.31484C26.94 8.35506 26.287 9.02328 25.1325 9.02328H23.6205V5.61328ZM29.7235 7.13575V11.1451C29.7235 12.9017 30.8576 14.0384 32.5689 14.0384C33.476 14.0384 34.2526 13.5906 34.7337 12.9362V13.4942C34.7337 13.7422 34.8711 13.88 35.1186 13.88H35.9227C36.1701 13.88 36.3076 13.7422 36.3076 13.4942V7.13575C36.3076 6.88775 36.1701 6.74997 35.9227 6.74997H35.1186C34.8711 6.74997 34.7337 6.88775 34.7337 7.13575V10.6353C34.7337 11.8202 33.8815 12.6537 32.8919 12.6537C31.9434 12.6537 31.2905 11.9786 31.2905 11.0142V7.13575C31.2905 6.88775 31.1531 6.74997 30.9057 6.74997H30.1084C29.861 6.74997 29.7235 6.88775 29.7235 7.13575ZM41.4963 7.13575V11.1451C41.4963 12.9017 42.6302 14.0384 44.3416 14.0384C45.2488 14.0384 46.0254 13.5906 46.5065 12.9362V13.4942C46.5065 13.7422 46.644 13.88 46.8914 13.88H47.6955C47.943 13.88 48.0804 13.7422 48.0804 13.4942V7.13575C48.0804 6.88775 47.943 6.74997 47.6955 6.74997H46.8914C46.644 6.74997 46.5065 6.88775 46.5065 7.13575V10.6353C46.5065 11.8202 45.6544 12.6537 44.6646 12.6537C43.7162 12.6537 43.0632 11.9786 43.0632 11.0142V7.13575C43.0632 6.88775 42.9258 6.74997 42.6785 6.74997H41.8812C41.6338 6.74997 41.4963 6.88775 41.4963 7.13575ZM60.9734 9.48487V13.5011C60.9734 13.7491 60.8359 13.8869 60.5886 13.8869H59.7845C59.5371 13.8869 59.3996 13.7491 59.3996 13.5011V9.62265C59.3996 8.65821 58.8017 7.98311 57.9219 7.98311C57.0353 7.98311 56.1969 8.87865 56.1969 9.9602V13.5011C56.1969 13.7491 56.0595 13.8869 55.8121 13.8869H55.008C54.7605 13.8869 54.6231 13.7491 54.6231 13.5011V9.62265C54.6231 8.65821 54.0252 7.98311 53.1455 7.98311C52.3002 7.98311 51.4204 8.79599 51.4204 9.9602V13.5011C51.4204 13.7491 51.2829 13.8869 51.0355 13.8869H50.2314C49.9841 13.8869 49.8467 13.7491 49.8467 13.5011V7.13578C49.8467 6.88776 49.9841 6.74999 50.2314 6.74999H51.0355C51.2829 6.74999 51.4204 6.88776 51.4204 7.13578V7.68C51.9221 7.01865 52.6438 6.58465 53.4754 6.58465C54.5475 6.58465 55.4478 7.14265 55.8946 8.06577C56.3619 7.17021 57.2278 6.58465 58.2449 6.58465C59.7914 6.58465 60.9734 7.72822 60.9734 9.48487ZM64.4784 4.80735C64.4784 4.26313 64.0522 3.84291 63.5024 3.84291C62.9526 3.84291 62.5334 4.26313 62.5334 4.80735C62.5334 5.34468 62.9526 5.7649 63.5024 5.7649C64.0522 5.7649 64.4784 5.34468 64.4784 4.80735ZM64.286 7.13578C64.286 6.88778 64.1486 6.75 63.9011 6.75H63.1039C62.8564 6.75 62.719 6.88778 62.719 7.13578V13.4942C62.719 13.7422 62.8564 13.88 63.1039 13.88H63.9011C64.1486 13.88 64.286 13.7422 64.286 13.4942V7.13578Z" fill="black"/>
</g>
<defs>
<clipPath id="clip0_379_976">
<rect width="64.4784" height="16.1196" fill="white" transform="translate(0 0.939941)"/>
</clipPath>
</defs>
</svg>
