<svg width="90" height="30" viewBox="0 0 90 30" fill="none" xmlns="http://www.w3.org/2000/svg">
<path d="M18.8247 15.85C18.8397 16.105 18.9447 16.33 19.1397 16.525C19.3347 16.72 19.6197 16.825 20.0097 16.825C20.2947 16.825 20.5047 16.765 20.6547 16.63C20.7897 16.51 20.8647 16.36 20.8647 16.18C20.8647 16.03 20.8047 15.91 20.6997 15.79C20.5947 15.685 20.4147 15.595 20.1597 15.55L19.3047 15.355C18.6747 15.22 18.2247 14.98 17.9247 14.635C17.6397 14.29 17.4897 13.885 17.4897 13.435C17.4897 13.15 17.5497 12.88 17.6697 12.61C17.7897 12.355 17.9547 12.13 18.1797 11.935C18.3897 11.755 18.6447 11.59 18.9447 11.485C19.2297 11.365 19.5597 11.32 19.9047 11.32C20.3547 11.32 20.7447 11.38 21.0597 11.515C21.3747 11.635 21.6297 11.8 21.8247 11.995C22.0197 12.19 22.1697 12.385 22.2597 12.61C22.3497 12.82 22.4097 13.015 22.4247 13.195L20.9697 13.525C20.9547 13.435 20.9247 13.33 20.8797 13.225C20.8347 13.12 20.7747 13.03 20.6847 12.94C20.5947 12.85 20.4897 12.79 20.3697 12.73C20.2497 12.685 20.0847 12.655 19.9047 12.655C19.6797 12.655 19.4847 12.715 19.3197 12.835C19.1547 12.955 19.0797 13.105 19.0797 13.3C19.0797 13.45 19.1397 13.585 19.2447 13.675C19.3497 13.765 19.4997 13.84 19.6647 13.87L20.5797 14.065C21.2097 14.2 21.6897 14.44 22.0197 14.8C22.3347 15.16 22.4997 15.565 22.4997 16.045C22.4997 16.3 22.4547 16.57 22.3497 16.81C22.2447 17.065 22.0947 17.29 21.8847 17.485C21.6747 17.68 21.4197 17.845 21.1047 17.965C20.7897 18.085 20.4297 18.145 20.0097 18.145C19.5147 18.145 19.1097 18.07 18.7797 17.935C18.4497 17.8 18.1797 17.62 17.9697 17.425C17.7597 17.23 17.6097 17.005 17.5047 16.78C17.3997 16.555 17.3397 16.345 17.3247 16.165L18.8247 15.85ZM26.5197 11.335C26.9997 11.335 27.4497 11.425 27.8547 11.59C28.2747 11.755 28.6197 11.995 28.9347 12.295C29.2347 12.595 29.4747 12.955 29.6397 13.375C29.8047 13.795 29.8947 14.245 29.8947 14.755C29.8947 15.25 29.8047 15.715 29.6397 16.12C29.4747 16.54 29.2347 16.9 28.9347 17.2C28.6347 17.5 28.2747 17.74 27.8547 17.92C27.4347 18.085 26.9997 18.175 26.5197 18.175C26.0397 18.175 25.5897 18.085 25.1847 17.92C24.7647 17.755 24.4197 17.515 24.1047 17.2C23.8047 16.9 23.5647 16.54 23.3997 16.12C23.2347 15.7 23.1447 15.25 23.1447 14.755C23.1447 14.26 23.2347 13.795 23.3997 13.375C23.5647 12.955 23.8047 12.595 24.1047 12.295C24.4047 11.995 24.7647 11.755 25.1847 11.59C25.6047 11.425 26.0397 11.335 26.5197 11.335ZM26.5197 16.585C26.7297 16.585 26.9397 16.54 27.1347 16.465C27.3297 16.39 27.5097 16.27 27.6597 16.12C27.8097 15.97 27.9297 15.775 28.0197 15.55C28.1097 15.325 28.1547 15.055 28.1547 14.755C28.1547 14.455 28.1097 14.185 28.0197 13.96C27.9297 13.735 27.8097 13.54 27.6597 13.39C27.5097 13.24 27.3297 13.12 27.1347 13.045C26.9397 12.97 26.7297 12.925 26.5197 12.925C26.3097 12.925 26.0997 12.97 25.9047 13.045C25.7097 13.12 25.5297 13.24 25.3797 13.39C25.2297 13.54 25.1097 13.735 25.0197 13.96C24.9297 14.185 24.8847 14.455 24.8847 14.755C24.8847 15.055 24.9297 15.325 25.0197 15.55C25.1097 15.775 25.2297 15.97 25.3797 16.12C25.5297 16.27 25.7097 16.39 25.9047 16.465C26.1147 16.54 26.3247 16.585 26.5197 16.585ZM35.2048 17.98C35.1898 17.905 35.1748 17.815 35.1598 17.68C35.1448 17.545 35.1448 17.425 35.1448 17.29C34.9648 17.59 34.7098 17.815 34.3798 17.95C34.0498 18.085 33.7048 18.16 33.3598 18.16C32.9698 18.16 32.6248 18.085 32.3248 17.95C32.0248 17.815 31.7698 17.635 31.5598 17.41C31.3498 17.185 31.1848 16.915 31.0798 16.6C30.9748 16.285 30.9147 15.955 30.9147 15.61V11.545H32.6548V15.25C32.6548 15.61 32.7448 15.925 32.9398 16.18C33.1198 16.435 33.4198 16.555 33.8398 16.555C34.2298 16.555 34.5298 16.435 34.7398 16.195C34.9498 15.955 35.0548 15.655 35.0548 15.28V11.53H36.8098V16.81C36.8098 17.065 36.8098 17.29 36.8248 17.5C36.8398 17.71 36.8548 17.86 36.8698 17.98H35.2048ZM42.3298 13.255C42.1498 13.225 41.9848 13.195 41.8048 13.195C41.5798 13.195 41.3698 13.225 41.1598 13.285C40.9648 13.345 40.7848 13.45 40.6348 13.585C40.4848 13.72 40.3648 13.915 40.2748 14.14C40.1848 14.365 40.1398 14.665 40.1398 15.01V17.95H38.3998V11.515H40.0948V12.475C40.1848 12.265 40.3198 12.1 40.4698 11.965C40.6198 11.83 40.7848 11.725 40.9498 11.665C41.1148 11.59 41.2948 11.545 41.4598 11.515C41.6248 11.485 41.7898 11.47 41.9248 11.47C41.9998 11.47 42.0598 11.47 42.1348 11.47C42.1948 11.47 42.2698 11.485 42.3448 11.485L42.3298 13.255ZM46.1248 12.955C45.8998 12.955 45.6898 13 45.4948 13.075C45.2998 13.15 45.1198 13.27 44.9848 13.42C44.8348 13.57 44.7148 13.765 44.6248 13.99C44.5348 14.215 44.4898 14.47 44.4898 14.755C44.4898 15.04 44.5348 15.295 44.6248 15.52C44.7148 15.745 44.8348 15.94 44.9848 16.09C45.1348 16.255 45.3148 16.36 45.5098 16.45C45.7048 16.525 45.9148 16.57 46.1398 16.57C46.3648 16.57 46.5448 16.54 46.7248 16.465C46.8898 16.405 47.0398 16.315 47.1598 16.21C47.2798 16.105 47.3848 15.985 47.4598 15.85C47.5348 15.715 47.5948 15.595 47.6248 15.475L49.1548 15.985C49.0798 16.255 48.9748 16.525 48.8098 16.78C48.6448 17.035 48.4348 17.275 48.1948 17.47C47.9398 17.68 47.6398 17.845 47.3098 17.965C46.9648 18.085 46.5898 18.16 46.1548 18.16C45.6898 18.16 45.2398 18.07 44.8198 17.905C44.3998 17.74 44.0398 17.5 43.7398 17.185C43.4398 16.885 43.1998 16.525 43.0198 16.105C42.8398 15.685 42.7498 15.235 42.7498 14.74C42.7498 14.245 42.8398 13.78 43.0048 13.36C43.1698 12.94 43.4098 12.58 43.7098 12.28C44.0098 11.98 44.3698 11.74 44.7748 11.575C45.1798 11.41 45.6148 11.32 46.0948 11.32C46.5298 11.32 46.9198 11.38 47.2648 11.515C47.6098 11.635 47.9098 11.8 48.1648 12.01C48.4198 12.205 48.6298 12.445 48.7798 12.7C48.9298 12.955 49.0498 13.225 49.1248 13.495L47.5648 14.02C47.4898 13.75 47.3398 13.495 47.1148 13.27C46.8898 13.045 46.5598 12.955 46.1248 12.955ZM55.8748 16.135C55.7998 16.42 55.6798 16.675 55.4998 16.93C55.3348 17.185 55.1248 17.395 54.8698 17.575C54.6298 17.755 54.3448 17.905 54.0148 18.01C53.6848 18.115 53.3248 18.175 52.9348 18.175C52.4848 18.175 52.0648 18.1 51.6598 17.95C51.2548 17.8 50.9098 17.575 50.5948 17.275C50.2948 16.975 50.0398 16.615 49.8748 16.195C49.6948 15.775 49.6048 15.28 49.6048 14.74C49.6048 14.23 49.6948 13.765 49.8598 13.345C50.0398 12.925 50.2648 12.565 50.5648 12.28C50.8498 11.995 51.1948 11.755 51.5848 11.605C51.9748 11.44 52.3648 11.365 52.7698 11.365C53.7748 11.365 54.5548 11.665 55.1098 12.25C55.6648 12.85 55.9498 13.66 55.9498 14.695C55.9498 14.815 55.9498 14.935 55.9348 15.04C55.9198 15.145 55.9198 15.205 55.9198 15.235H51.3148C51.3298 15.445 51.3748 15.64 51.4648 15.82C51.5548 16 51.6748 16.15 51.8248 16.285C51.9748 16.42 52.1398 16.525 52.3348 16.6C52.5298 16.675 52.7248 16.705 52.9498 16.705C53.3548 16.705 53.6848 16.615 53.9098 16.435C54.1348 16.255 54.3148 16.015 54.4198 15.73L55.8748 16.135ZM54.2548 14.02C54.2398 13.87 54.2098 13.705 54.1648 13.555C54.1048 13.405 54.0148 13.27 53.9098 13.15C53.7898 13.03 53.6398 12.94 53.4598 12.865C53.2798 12.79 53.0698 12.76 52.8298 12.76C52.6048 12.76 52.4098 12.805 52.2298 12.88C52.0498 12.955 51.8998 13.06 51.7798 13.18C51.6598 13.3 51.5698 13.435 51.4948 13.585C51.4348 13.735 51.3898 13.885 51.3898 14.035L54.2548 14.02ZM58.1998 17.905C58.2598 18.265 58.4248 18.55 58.6798 18.775C58.9348 19 59.2798 19.12 59.6998 19.12C60.2548 19.12 60.6748 18.985 60.9748 18.7C61.2748 18.415 61.4249 17.965 61.4249 17.335V16.87C61.2898 17.08 61.0798 17.275 60.7798 17.44C60.4798 17.605 60.1048 17.695 59.6248 17.695C59.1898 17.695 58.7998 17.62 58.4398 17.455C58.0648 17.305 57.7498 17.08 57.4948 16.795C57.2248 16.51 57.0148 16.18 56.8648 15.805C56.7148 15.43 56.6398 15.01 56.6398 14.56C56.6398 14.125 56.7148 13.735 56.8648 13.345C57.0148 12.97 57.2248 12.625 57.4798 12.34C57.7348 12.055 58.0498 11.83 58.4248 11.665C58.7848 11.5 59.2048 11.41 59.6398 11.41C60.1498 11.41 60.5548 11.5 60.8548 11.68C61.1548 11.86 61.3648 12.07 61.4698 12.28V11.515H63.1499V17.26C63.1499 17.71 63.0899 18.13 62.9549 18.535C62.8349 18.94 62.6249 19.3 62.3549 19.615C62.0848 19.93 61.7398 20.17 61.3048 20.365C60.8698 20.545 60.3598 20.65 59.7598 20.65C59.3098 20.65 58.9048 20.59 58.5448 20.455C58.1848 20.335 57.8698 20.155 57.5998 19.945C57.3298 19.735 57.1048 19.48 56.9398 19.195C56.7748 18.91 56.6698 18.61 56.6248 18.31L58.1998 17.905ZM59.9248 16.195C60.3748 16.195 60.7348 16.045 61.0198 15.745C61.3048 15.445 61.4398 15.055 61.4398 14.56C61.4398 14.065 61.2898 13.675 60.9898 13.375C60.6898 13.09 60.3298 12.94 59.9098 12.94C59.6848 12.94 59.4898 12.985 59.2948 13.045C59.0998 13.12 58.9348 13.225 58.7998 13.375C58.6648 13.525 58.5448 13.69 58.4698 13.885C58.3948 14.08 58.3498 14.305 58.3498 14.545C58.3498 15.055 58.4998 15.445 58.7848 15.745C59.0998 16.045 59.4748 16.195 59.9248 16.195ZM68.5649 13.255C68.3849 13.225 68.2199 13.195 68.0399 13.195C67.8149 13.195 67.6049 13.225 67.3949 13.285C67.1999 13.345 67.0199 13.45 66.8699 13.585C66.7199 13.72 66.5999 13.915 66.5099 14.14C66.4199 14.365 66.3749 14.665 66.3749 15.01V17.95H64.6349V11.515H66.3299V12.475C66.4199 12.265 66.5549 12.1 66.7049 11.965C66.8549 11.83 67.0199 11.725 67.1849 11.65C67.3499 11.575 67.5299 11.53 67.6949 11.5C67.8599 11.47 68.0249 11.455 68.1599 11.455C68.2349 11.455 68.2949 11.455 68.3699 11.455C68.4299 11.455 68.5049 11.47 68.5799 11.47L68.5649 13.255ZM69.1799 16.225C69.1799 15.94 69.2249 15.685 69.3299 15.46C69.4349 15.235 69.5699 15.04 69.7349 14.875C69.9149 14.71 70.1099 14.575 70.3499 14.485C70.5749 14.395 70.8299 14.32 71.0999 14.275L72.6899 14.035C72.8699 14.005 73.0049 13.96 73.0649 13.87C73.1399 13.78 73.1699 13.69 73.1699 13.57C73.1699 13.345 73.0799 13.15 72.8999 12.985C72.7199 12.82 72.4499 12.73 72.0749 12.73C71.6849 12.73 71.3999 12.835 71.1899 13.045C70.9799 13.255 70.8749 13.495 70.8449 13.78L69.2999 13.45C69.3299 13.195 69.4049 12.94 69.5399 12.685C69.6749 12.43 69.8549 12.205 70.0799 12.01C70.3049 11.815 70.5899 11.65 70.9199 11.515C71.2499 11.395 71.6399 11.32 72.0749 11.32C72.5849 11.32 73.0199 11.38 73.3649 11.53C73.7249 11.665 74.0099 11.845 74.2349 12.07C74.4599 12.295 74.6249 12.55 74.7149 12.85C74.8199 13.15 74.8649 13.45 74.8649 13.78V16.945C74.8649 17.125 74.8799 17.305 74.8949 17.5C74.9099 17.695 74.9249 17.845 74.9549 17.965H73.3649C73.3499 17.875 73.3349 17.755 73.3199 17.605C73.3049 17.455 73.3049 17.32 73.3049 17.2C73.1399 17.455 72.8999 17.68 72.5849 17.875C72.2699 18.07 71.8799 18.16 71.3999 18.16C71.0549 18.16 70.7549 18.1 70.4699 17.995C70.1999 17.89 69.9599 17.74 69.7649 17.56C69.5699 17.38 69.4199 17.17 69.3299 16.945C69.2399 16.72 69.1799 16.48 69.1799 16.225ZM71.7599 16.855C71.9399 16.855 72.1199 16.825 72.2849 16.78C72.4499 16.735 72.5999 16.645 72.7349 16.525C72.8699 16.405 72.9749 16.255 73.0499 16.06C73.1249 15.88 73.1699 15.64 73.1699 15.34V15.055L71.7149 15.28C71.4899 15.31 71.2949 15.4 71.1449 15.52C70.9949 15.64 70.9199 15.835 70.9199 16.09C70.9199 16.285 70.9949 16.45 71.1299 16.6C71.2799 16.78 71.4899 16.855 71.7599 16.855ZM76.3649 20.455V11.53H78.0599V12.31C78.2099 12.055 78.4499 11.845 78.7949 11.65C79.1399 11.47 79.5449 11.38 80.0399 11.38C80.5049 11.38 80.9249 11.47 81.2999 11.635C81.6599 11.8 81.9749 12.04 82.2299 12.34C82.4849 12.64 82.6799 13 82.8149 13.405C82.9499 13.81 83.0099 14.26 83.0099 14.74C83.0099 15.235 82.9349 15.685 82.7999 16.09C82.6499 16.51 82.4549 16.855 82.1849 17.17C81.9149 17.47 81.5999 17.71 81.2249 17.875C80.8499 18.04 80.4299 18.13 79.9799 18.13C79.5299 18.13 79.1549 18.055 78.8399 17.905C78.5249 17.755 78.2849 17.56 78.1199 17.35V20.47L76.3649 20.455ZM81.2999 14.755C81.2999 14.185 81.1499 13.735 80.8349 13.42C80.5199 13.105 80.1449 12.955 79.7099 12.955C79.4849 12.955 79.2749 13 79.0799 13.075C78.8849 13.165 78.7199 13.27 78.5699 13.435C78.4199 13.585 78.2999 13.78 78.2249 13.99C78.1349 14.215 78.1049 14.47 78.1049 14.755C78.1049 15.04 78.1499 15.295 78.2249 15.52C78.3149 15.745 78.4199 15.925 78.5699 16.09C78.7199 16.255 78.8849 16.36 79.0799 16.45C79.2749 16.54 79.4849 16.57 79.7099 16.57C80.1599 16.57 80.5349 16.405 80.8349 16.09C81.1349 15.775 81.2999 15.325 81.2999 14.755ZM85.8599 17.98H84.1199V8.5H85.8599V12.07C86.0699 11.815 86.3399 11.635 86.6549 11.53C86.9699 11.425 87.2999 11.365 87.5999 11.365C88.0049 11.365 88.3649 11.425 88.6649 11.575C88.9649 11.71 89.2199 11.89 89.4149 12.115C89.6099 12.34 89.7599 12.61 89.8499 12.925C89.9399 13.24 89.9999 13.57 89.9999 13.915V17.965H88.2599V14.215C88.2599 13.855 88.1699 13.54 87.9749 13.3C87.7949 13.06 87.4799 12.94 87.0599 12.94C86.6999 12.94 86.3999 13.06 86.1899 13.3C85.9799 13.54 85.8599 13.84 85.8449 14.2L85.8599 17.98Z" fill="black"/>
<path d="M3.55479 10.1502L6.2848 20.1702C6.4648 20.8453 7.1698 21.2353 7.8298 21.0553C8.5048 20.8753 8.89481 20.1702 8.7148 19.4952L5.9848 9.47521C5.8048 8.80021 5.09979 8.41021 4.43979 8.59021C3.77979 8.78521 3.37479 9.49021 3.55479 10.1502Z" fill="#F96216"/>
<path d="M8.62476 10.1202L1.76973 17.8602C1.30473 18.3852 1.34973 19.1802 1.87473 19.6452C2.39973 20.1102 3.19474 20.0653 3.65974 19.5402L10.5148 11.8002C10.9798 11.2752 10.9348 10.4802 10.4098 10.0152C9.88476 9.55022 9.08976 9.59521 8.62476 10.1202Z" fill="#B200F8"/>
<path d="M0.869838 14.4098L10.6349 17.6499C11.2949 17.8749 12.0149 17.5149 12.2249 16.8399C12.4499 16.1799 12.0899 15.4598 11.4299 15.2498L1.64984 12.0098C0.989839 11.7848 0.269836 12.1448 0.0598355 12.8198C-0.150165 13.4798 0.209836 14.1998 0.869838 14.4098Z" fill="#00B4F2"/>
</svg>
