<svg width="533" height="93" viewBox="0 0 533 93" fill="none" xmlns="http://www.w3.org/2000/svg">
<path d="M56.59 14.27C65.19 9.11003 76.52 9.18003 85.19 14.15C86.83 15.09 88.35 16.21 89.82 17.4C92.82 16.21 95.88 15.11 99.11 14.71C102.31 14.2 105.58 14.32 108.79 14.62C111.9 15.22 114.99 15.99 117.86 17.36C121.76 19.14 125.3 21.69 128.28 24.78C129.99 26.75 131.61 28.8 132.92 31.06C135.69 35.73 137.26 41.06 137.61 46.47C137.83 49.94 137.46 53.43 136.65 56.81C135.02 63.54 131.21 69.64 126.18 74.35C123.98 76.9 121.36 79.13 118.24 80.46C115.03 81.96 111.46 82.42 107.94 82.46C105.41 82.72 102.85 82.74 100.32 82.48C96.07 82.32 91.81 82.45 87.56 82.41C65.71 82.41 43.86 82.4 22.01 82.4C19.92 82.4 17.82 82.18 15.79 81.63C10.53 80.25 5.77999 76.78 3.13999 71.99C0.909994 68.01 0.279994 63.15 1.53999 58.75C2.77999 54.2 5.90999 50.29 9.86999 47.78C9.93999 42.73 11.77 37.69 15.25 33.99C18.69 30.2 23.65 27.81 28.77 27.59C32.32 27.41 35.96 28.13 39.06 29.89C40.42 30.55 41.6 31.49 42.84 32.33C43.62 29.86 44.47 27.39 45.8 25.15C48.34 20.66 52.09 16.85 56.59 14.27Z" fill="white"/>
<path d="M68.55 2.11C72.3 0.210005 76.64 -0.359995 80.78 0.220005C85.47 0.900005 89.89 3.22 93.13 6.67C94.09 7.67 94.95 8.78 95.69 9.95C94.71 10.21 93.7 10.36 92.7 10.54C89.95 11.13 87.35 12.37 85.18 14.15C76.51 9.18 65.17 9.11001 56.58 14.27C52.09 16.85 48.34 20.66 45.78 25.16C44.45 27.4 43.6 29.87 42.82 32.34C41.58 31.5 40.4 30.55 39.04 29.9C39.08 29.82 39.17 29.65 39.21 29.56C38.46 23.36 41.1 16.87 46 13C49.41 10.24 53.83 8.78001 58.21 9.02001C58.9 9.06001 59.58 9.12 60.27 9.17C62.39 6.17 65.25 3.7 68.55 2.11Z" fill="#D2D1D4"/>
<path d="M95.81 10.13C100.49 9.93003 105.28 11.48 108.79 14.61C105.57 14.31 102.31 14.19 99.11 14.7C98.69 14.61 98.29 14.51 97.88 14.41C97.28 12.94 96.59 11.51 95.81 10.13Z" fill="#D2D1D4"/>
<path d="M92.71 10.53C93.71 10.35 94.71 10.2 95.7 9.94L95.81 10.13C96.6 11.51 97.29 12.94 97.87 14.41C98.28 14.51 98.68 14.61 99.1 14.7C95.88 15.11 92.81 16.21 89.81 17.39C88.34 16.2 86.82 15.07 85.18 14.14C87.36 12.37 89.96 11.12 92.71 10.53Z" fill="#D9D9D9"/>
<path d="M168.743 27.7061L173.692 29.2752C172.933 32.034 171.669 34.0859 169.898 35.4309C168.14 36.7643 165.904 37.4311 163.191 37.4311C159.834 37.4311 157.075 36.2873 154.914 33.9997C152.753 31.7007 151.673 28.5625 151.673 24.5851C151.673 20.3778 152.759 17.1132 154.931 14.7911C157.104 12.4576 159.961 11.2908 163.501 11.2908C166.593 11.2908 169.105 12.2047 171.036 14.0324C172.186 15.113 173.048 16.6649 173.623 18.688L168.571 19.895C168.272 18.5846 167.645 17.55 166.691 16.7913C165.749 16.0326 164.599 15.6533 163.243 15.6533C161.369 15.6533 159.846 16.3257 158.673 17.6707C157.512 19.0156 156.932 21.194 156.932 24.2058C156.932 27.4014 157.506 29.6775 158.656 31.0339C159.805 32.3904 161.3 33.0686 163.139 33.0686C164.496 33.0686 165.662 32.6375 166.639 31.7754C167.617 30.9132 168.318 29.5568 168.743 27.7061ZM178.227 37V11.9288H183.331V32.741H196.021V37H178.227ZM198.642 24.5161C198.642 21.9412 199.027 19.7801 199.798 18.0328C200.372 16.7453 201.154 15.59 202.143 14.567C203.143 13.5439 204.235 12.7852 205.419 12.2909C206.994 11.6242 208.81 11.2908 210.868 11.2908C214.592 11.2908 217.569 12.4461 219.799 14.7566C222.041 17.0672 223.162 20.2801 223.162 24.3954C223.162 28.4763 222.052 31.6719 219.834 33.9825C217.615 36.2815 214.649 37.4311 210.936 37.4311C207.178 37.4311 204.189 36.2873 201.97 33.9997C199.752 31.7007 198.642 28.5395 198.642 24.5161ZM203.901 24.3437C203.901 27.206 204.562 29.3786 205.884 30.8615C207.206 32.3329 208.885 33.0686 210.919 33.0686C212.954 33.0686 214.621 32.3387 215.92 30.8788C217.23 29.4074 217.885 27.206 217.885 24.2747C217.885 21.3779 217.247 19.2168 215.971 17.7914C214.707 16.366 213.023 15.6533 210.919 15.6533C208.816 15.6533 207.12 16.3775 205.833 17.8259C204.545 19.2628 203.901 21.4354 203.901 24.3437ZM227.128 11.7219H232.231V25.4128C232.231 27.5854 232.295 28.9935 232.421 29.6373C232.64 30.6718 233.157 31.5053 233.973 32.1375C234.801 32.7582 235.927 33.0686 237.353 33.0686C238.801 33.0686 239.893 32.7755 240.629 32.1892C241.364 31.5915 241.807 30.8615 241.956 29.9994C242.106 29.1372 242.181 27.7061 242.181 25.7059V11.7219H247.285V24.9989C247.285 28.0337 247.147 30.1776 246.871 31.4305C246.595 32.6835 246.083 33.7411 245.336 34.6032C244.6 35.4654 243.612 36.1551 242.37 36.6724C241.129 37.1782 239.508 37.4311 237.508 37.4311C235.094 37.4311 233.26 37.1552 232.007 36.6034C230.766 36.0401 229.783 35.3159 229.059 34.4308C228.335 33.5342 227.858 32.5973 227.628 31.6202C227.294 30.1718 227.128 28.0337 227.128 25.2058V11.7219ZM252.664 11.7219H261.993C264.096 11.7219 265.7 11.8828 266.804 12.2047C268.286 12.6415 269.557 13.4174 270.614 14.5325C271.672 15.6475 272.476 17.0155 273.028 18.6363C273.58 20.2456 273.856 22.2343 273.856 24.6023C273.856 26.683 273.597 28.4763 273.08 29.9821C272.448 31.8214 271.545 33.31 270.373 34.448C269.488 35.3102 268.292 35.9827 266.786 36.4655C265.66 36.8218 264.154 37 262.269 37H252.664V11.7219ZM257.768 15.9981V32.741H261.579C263.004 32.741 264.033 32.6605 264.665 32.4996C265.493 32.2927 266.177 31.9421 266.717 31.4478C267.269 30.9535 267.717 30.1431 268.062 29.0165C268.407 27.8785 268.58 26.3324 268.58 24.3782C268.58 22.424 268.407 20.9239 268.062 19.8778C267.717 18.8317 267.235 18.0155 266.614 17.4293C265.993 16.843 265.206 16.4464 264.252 16.2395C263.539 16.0786 262.142 15.9981 260.062 15.9981H257.768ZM288.03 37V11.7219H306.773V15.9981H293.133V21.6021H305.824V25.8611H293.133V32.741H307.255V37H288.03ZM311.635 37V11.7219H316.601L326.947 28.6027V11.7219H331.689V37H326.567L316.377 20.5158V37H311.635ZM348.863 27.7061V23.4471H359.864V33.5169C358.795 34.5515 357.243 35.4654 355.208 36.2586C353.185 37.0402 351.133 37.4311 349.052 37.4311C346.408 37.4311 344.104 36.8793 342.138 35.7758C340.172 34.6607 338.695 33.0744 337.706 31.0167C336.718 28.9476 336.224 26.7002 336.224 24.2747C336.224 21.6423 336.775 19.303 337.879 17.2569C338.982 15.2107 340.597 13.6416 342.724 12.5495C344.345 11.7104 346.362 11.2908 348.776 11.2908C351.915 11.2908 354.363 11.9518 356.122 13.2737C357.892 14.5842 359.03 16.4005 359.536 18.7225L354.467 19.6709C354.11 18.4294 353.438 17.4523 352.449 16.7396C351.472 16.0154 350.248 15.6533 348.776 15.6533C346.546 15.6533 344.77 16.3602 343.448 17.7741C342.138 19.1881 341.483 21.286 341.483 24.0678C341.483 27.0681 342.149 29.3212 343.483 30.827C344.816 32.3214 346.564 33.0686 348.725 33.0686C349.794 33.0686 350.863 32.8617 351.932 32.4479C353.012 32.0225 353.938 31.511 354.708 30.9132V27.7061H348.863ZM364.433 37V11.7219H369.537V37H364.433ZM374.468 37V11.7219H379.434L389.78 28.6027V11.7219H394.522V37H389.401L379.21 20.5158V37H374.468ZM399.936 37V11.7219H418.679V15.9981H405.04V21.6021H417.731V25.8611H405.04V32.741H419.162V37H399.936ZM423.49 37V11.7219H442.233V15.9981H428.594V21.6021H441.285V25.8611H428.594V32.741H442.716V37H423.49ZM447.061 37V11.7219H457.803C460.505 11.7219 462.465 11.9518 463.683 12.4116C464.913 12.8599 465.896 13.6646 466.632 14.8256C467.367 15.9866 467.735 17.3143 467.735 18.8087C467.735 20.7054 467.178 22.2745 466.063 23.516C464.948 24.746 463.281 25.522 461.062 25.8438C462.166 26.4876 463.074 27.1945 463.787 27.9647C464.511 28.7349 465.482 30.1028 466.701 32.0685L469.787 37H463.683L459.993 31.4995C458.683 29.5338 457.786 28.2981 457.303 27.7923C456.821 27.275 456.309 26.9244 455.769 26.7405C455.228 26.545 454.372 26.4473 453.199 26.4473H452.165V37H447.061ZM452.165 22.4125H455.941C458.39 22.4125 459.918 22.309 460.528 22.1021C461.137 21.8952 461.614 21.5388 461.959 21.0331C462.304 20.5273 462.476 19.895 462.476 19.1363C462.476 18.2857 462.246 17.6017 461.786 17.0844C461.338 16.5556 460.7 16.2223 459.873 16.0843C459.459 16.0269 458.217 15.9981 456.148 15.9981H452.165V22.4125ZM472.408 37V11.7219H477.512V37H472.408ZM482.443 37V11.7219H487.409L497.755 28.6027V11.7219H502.497V37H497.376L487.185 20.5158V37H482.443ZM519.671 27.7061V23.4471H530.672V33.5169C529.603 34.5515 528.051 35.4654 526.016 36.2586C523.993 37.0402 521.941 37.4311 519.861 37.4311C517.217 37.4311 514.912 36.8793 512.946 35.7758C510.981 34.6607 509.503 33.0744 508.515 31.0167C507.526 28.9476 507.032 26.7002 507.032 24.2747C507.032 21.6423 507.584 19.303 508.687 17.2569C509.791 15.2107 511.406 13.6416 513.532 12.5495C515.153 11.7104 517.171 11.2908 519.585 11.2908C522.723 11.2908 525.171 11.9518 526.93 13.2737C528.701 14.5842 529.839 16.4005 530.344 18.7225L525.275 19.6709C524.919 18.4294 524.246 17.4523 523.257 16.7396C522.28 16.0154 521.056 15.6533 519.585 15.6533C517.355 15.6533 515.579 16.3602 514.257 17.7741C512.946 19.1881 512.291 21.286 512.291 24.0678C512.291 27.0681 512.958 29.3212 514.291 30.827C515.625 32.3214 517.372 33.0686 519.533 33.0686C520.602 33.0686 521.671 32.8617 522.74 32.4479C523.821 32.0225 524.746 31.511 525.516 30.9132V27.7061H519.671Z" fill="white"/>
<path d="M151.511 69.6767L160.685 69.102C160.884 70.5919 161.288 71.7272 161.898 72.5076C162.892 73.7705 164.311 74.402 166.155 74.402C167.532 74.402 168.589 74.0827 169.327 73.4442C170.079 72.7914 170.455 72.0393 170.455 71.1879C170.455 70.3791 170.1 69.6554 169.391 69.0168C168.681 68.3783 167.035 67.7752 164.453 67.2076C160.224 66.2569 157.209 64.9939 155.406 63.4188C153.59 61.8437 152.682 59.8358 152.682 57.3951C152.682 55.7916 153.143 54.2804 154.065 52.8614C155.002 51.4282 156.4 50.3071 158.259 49.4983C160.132 48.6753 162.693 48.2638 165.943 48.2638C169.93 48.2638 172.967 49.0087 175.053 50.4987C177.153 51.9745 178.402 54.33 178.799 57.5654L169.71 58.0975C169.469 56.6927 168.958 55.671 168.178 55.0325C167.411 54.3939 166.347 54.0746 164.985 54.0746C163.864 54.0746 163.019 54.3159 162.452 54.7983C161.884 55.2666 161.6 55.8413 161.6 56.5224C161.6 57.0191 161.835 57.4661 162.303 57.8634C162.757 58.2749 163.835 58.658 165.538 59.0128C169.753 59.921 172.768 60.8433 174.584 61.7799C176.415 62.7022 177.742 63.8516 178.565 65.2281C179.402 66.6045 179.821 68.1441 179.821 69.847C179.821 71.8478 179.267 73.6925 178.16 75.3811C177.053 77.0697 175.507 78.3539 173.52 79.2337C171.534 80.0993 169.029 80.5321 166.006 80.5321C160.699 80.5321 157.024 79.5104 154.981 77.4671C152.937 75.4237 151.781 72.8269 151.511 69.6767ZM205.001 48.7959H214.622V67.3992C214.622 69.2439 214.331 70.9893 213.749 72.6353C213.182 74.2672 212.281 75.7004 211.046 76.9349C209.826 78.1553 208.541 79.0138 207.193 79.5104C205.32 80.2058 203.071 80.5534 200.446 80.5534C198.928 80.5534 197.267 80.447 195.465 80.2341C193.677 80.0213 192.18 79.6027 190.974 78.9783C189.768 78.3398 188.661 77.4387 187.654 76.2751C186.66 75.1115 185.979 73.9124 185.61 72.6779C185.014 70.6913 184.716 68.9317 184.716 67.3992V48.7959H194.337V67.8461C194.337 69.549 194.805 70.8828 195.742 71.8478C196.693 72.7985 198.005 73.2739 199.68 73.2739C201.34 73.2739 202.638 72.8056 203.575 71.8691C204.526 70.9183 205.001 69.5773 205.001 67.8461V48.7959ZM220.901 48.7959H233.587L238.483 67.7823L243.357 48.7959H256V80H248.125V56.2031L242.016 80H234.885L228.798 56.2031V80H220.901V48.7959ZM262.067 48.7959H274.753L279.648 67.7823L284.522 48.7959H297.166V80H289.29V56.2031L283.182 80H276.051L269.963 56.2031V80H262.067V48.7959ZM303.722 48.7959H313.385V80H303.722V48.7959ZM318.132 48.7959H347.442V56.5011H337.608V80H327.966V56.5011H318.132V48.7959Z" fill="white"/>
</svg>
