<svg width="134" height="53" fill="none" xmlns="http://www.w3.org/2000/svg"><rect x="1" y="1" width="132" height="51" rx="3" fill="#52A6DA" stroke="#4387C7" stroke-width="2"/><path d="M27.052 26.388h3.965v5.181c-.643.21-1.25.356-1.819.438-.565.086-1.144.13-1.736.13-1.509 0-2.662-.442-3.46-1.326-.792-.89-1.188-2.163-1.188-3.822 0-1.613.46-2.87 1.38-3.773.925-.902 2.206-1.354 3.842-1.354 1.025 0 2.014.205 2.967.616l-.704 1.695a5.028 5.028 0 0 0-2.276-.547c-.917 0-1.65.308-2.202.923-.551.615-.827 1.442-.827 2.481 0 1.085.221 1.914.663 2.489.447.57 1.094.854 1.942.854a6.85 6.85 0 0 0 1.346-.137v-2.085h-1.893v-1.763zM39.158 32h-5.756v-9.994h5.756v1.736h-3.636v2.194h3.383v1.737h-3.383v2.577h3.636V32zM45.105 32h-2.119v-8.23h-2.713v-1.764h7.546v1.764h-2.714V32zM58.894 29.225c0 .902-.326 1.613-.978 2.132-.647.52-1.55.78-2.707.78-1.066 0-2.01-.2-2.83-.602v-1.969c.674.301 1.244.513 1.709.636.47.123.898.185 1.285.185.465 0 .82-.09 1.067-.267.25-.178.375-.442.375-.793a.86.86 0 0 0-.164-.52 1.791 1.791 0 0 0-.485-.444c-.21-.141-.64-.367-1.292-.677-.61-.287-1.069-.562-1.374-.827a3.104 3.104 0 0 1-.731-.923c-.183-.35-.274-.76-.274-1.23 0-.884.299-1.579.896-2.085.601-.506 1.43-.759 2.488-.759.52 0 1.014.062 1.483.185.474.123.969.296 1.484.52l-.684 1.647a9.891 9.891 0 0 0-1.326-.458 4.215 4.215 0 0 0-1.026-.13c-.4 0-.708.093-.922.28a.925.925 0 0 0-.322.732c0 .186.044.35.13.492.087.137.224.271.41.403.192.128.64.36 1.347.697.934.447 1.575.896 1.921 1.347.346.447.52.996.52 1.648zM64.56 32h-2.119v-8.23h-2.714v-1.764h7.547v1.764h-2.713V32zM74.93 32l-.724-2.379h-3.644L69.838 32h-2.283l3.527-10.035h2.59L77.215 32H74.93zm-1.23-4.156a2039.46 2039.46 0 0 1-1.135-3.658 11.538 11.538 0 0 1-.177-.67c-.15.584-.581 2.026-1.292 4.328H73.7zM80.598 26.442h.683c.67 0 1.165-.111 1.484-.335.319-.223.478-.574.478-1.052 0-.474-.164-.811-.492-1.012-.324-.2-.827-.3-1.51-.3h-.643v2.7zm0 1.723V32h-2.12v-9.994h2.913c1.358 0 2.363.248 3.014.745.652.492.978 1.242.978 2.249 0 .588-.162 1.112-.486 1.572-.323.456-.781.814-1.374 1.073A402.632 402.632 0 0 0 86.463 32H84.11l-2.385-3.835h-1.128zM91.576 32h-2.119v-8.23h-2.714v-1.764h7.547v1.764h-2.714V32zM101.584 32h-5.756v-9.994h5.756v1.736h-3.637v2.194h3.384v1.737h-3.384v2.577h3.637V32zM111.968 26.907c0 1.645-.47 2.905-1.408 3.78-.935.875-2.286 1.313-4.054 1.313h-2.83v-9.994h3.137c1.632 0 2.899.43 3.801 1.292.903.861 1.354 2.064 1.354 3.61zm-2.201.055c0-2.147-.948-3.22-2.844-3.22h-1.128v6.508h.909c2.042 0 3.063-1.096 3.063-3.288z" fill="#fff"/></svg>