<svg width="148" height="53" viewBox="0 0 148 53" fill="none" xmlns="http://www.w3.org/2000/svg">
<rect width="148" height="53" rx="26.5" fill="#805AC3"/>
<path d="M34.5341 24H36.1705C35.6847 21.4688 33.5625 19.7301 30.8011 19.7301C27.4453 19.7301 25.0739 22.3125 25.0739 26.4545C25.0739 30.5966 27.4261 33.179 30.9034 33.179C34.0227 33.179 36.2472 31.1016 36.2472 27.8608V26.4545H31.2614V27.8608H34.7131C34.6683 30.2131 33.1214 31.696 30.9034 31.696C28.4744 31.696 26.608 29.8551 26.608 26.4545C26.608 23.054 28.4744 21.2131 30.8011 21.2131C32.6932 21.2131 33.978 22.2805 34.5341 24ZM42.8741 33.2045C44.8684 33.2045 46.3258 32.2074 46.786 30.7244L45.3287 30.3153C44.9451 31.3381 44.0566 31.8494 42.8741 31.8494C41.1035 31.8494 39.8826 30.7053 39.8123 28.6023H46.9395V27.9631C46.9395 24.3068 44.7662 23.054 42.7207 23.054C40.0616 23.054 38.2974 25.1506 38.2974 28.1676C38.2974 31.1847 40.036 33.2045 42.8741 33.2045ZM39.8123 27.2983C39.9146 25.7706 40.9949 24.4091 42.7207 24.4091C44.3571 24.4091 45.4054 25.6364 45.4054 27.2983H39.8123ZM53.5041 23.1818H51.4075V20.8295H49.899V23.1818H48.416V24.4602H49.899V30.5966C49.899 32.3097 51.2797 33.1278 52.5581 33.1278C53.1206 33.1278 53.4785 33.0256 53.6831 32.9489L53.3762 31.5938C53.2484 31.6193 53.0439 31.6705 52.7115 31.6705C52.0467 31.6705 51.4075 31.4659 51.4075 30.1875V24.4602H53.5041V23.1818ZM68.1994 23.1818H69.7335C69.6632 21.2067 67.8414 19.7301 65.3102 19.7301C62.8045 19.7301 60.8358 21.1875 60.8358 23.3864C60.8358 25.1506 62.1142 26.1989 64.1596 26.7869L65.7704 27.2472C67.1511 27.6307 68.3784 28.1165 68.3784 29.4205C68.3784 30.8523 66.9977 31.7983 65.1824 31.7983C63.6227 31.7983 62.242 31.108 62.1142 29.625H60.4778C60.6312 31.7727 62.3699 33.2301 65.1824 33.2301C68.1994 33.2301 69.9125 31.5682 69.9125 29.446C69.9125 26.9915 67.5858 26.1989 66.2306 25.8409L64.9011 25.483C63.9295 25.2273 62.3699 24.7159 62.3699 23.3097C62.3699 22.0568 63.5204 21.1364 65.2591 21.1364C66.8443 21.1364 68.046 21.8906 68.1994 23.1818ZM76.5842 23.1818H74.4876V20.8295H72.979V23.1818H71.4961V24.4602H72.979V30.5966C72.979 32.3097 74.3597 33.1278 75.6381 33.1278C76.2006 33.1278 76.5586 33.0256 76.7631 32.9489L76.4563 31.5938C76.3285 31.6193 76.1239 31.6705 75.7915 31.6705C75.1268 31.6705 74.4876 31.4659 74.4876 30.1875V24.4602H76.5842V23.1818ZM81.7425 33.2301C83.4556 33.2301 84.3505 32.3097 84.6573 31.6705H84.734V33H86.2425V26.5312C86.2425 23.4119 83.8647 23.054 82.6119 23.054C81.1289 23.054 79.4414 23.5653 78.6744 25.3551L80.1062 25.8665C80.4386 25.1506 81.2248 24.3835 82.663 24.3835C84.0501 24.3835 84.734 25.1186 84.734 26.3778V26.429C84.734 27.1577 83.9925 27.0938 82.2028 27.3239C80.381 27.5604 78.3931 27.9631 78.3931 30.2131C78.3931 32.1307 79.8761 33.2301 81.7425 33.2301ZM81.9727 31.875C80.771 31.875 79.9016 31.3381 79.9016 30.2898C79.9016 29.1392 80.9499 28.7812 82.1261 28.6278C82.7653 28.5511 84.4783 28.3722 84.734 28.0653V29.446C84.734 30.6733 83.7624 31.875 81.9727 31.875ZM88.9959 33H90.5044V26.7869C90.5044 25.4574 91.5527 24.4858 92.9846 24.4858C93.3873 24.4858 93.8027 24.5625 93.905 24.5881V23.054C93.7324 23.0412 93.3361 23.0284 93.1124 23.0284C91.9363 23.0284 90.9135 23.6932 90.5556 24.6648H90.4533V23.1818H88.9959V33ZM100.578 23.1818H98.4817V20.8295H96.9732V23.1818H95.4902V24.4602H96.9732V30.5966C96.9732 32.3097 98.3539 33.1278 99.6323 33.1278C100.195 33.1278 100.553 33.0256 100.757 32.9489L100.45 31.5938C100.323 31.6193 100.118 31.6705 99.7857 31.6705C99.1209 31.6705 98.4817 31.4659 98.4817 30.1875V24.4602H100.578V23.1818ZM106.858 33.2045C108.853 33.2045 110.31 32.2074 110.77 30.7244L109.313 30.3153C108.93 31.3381 108.041 31.8494 106.858 31.8494C105.088 31.8494 103.867 30.7053 103.797 28.6023H110.924V27.9631C110.924 24.3068 108.751 23.054 106.705 23.054C104.046 23.054 102.282 25.1506 102.282 28.1676C102.282 31.1847 104.02 33.2045 106.858 33.2045ZM103.797 27.2983C103.899 25.7706 104.979 24.4091 106.705 24.4091C108.341 24.4091 109.39 25.6364 109.39 27.2983H103.797ZM116.926 33.2045C118.818 33.2045 119.457 32.0284 119.79 31.4915H119.969V33H121.426V19.9091H119.917V24.7415H119.79C119.457 24.2301 118.869 23.054 116.952 23.054C114.471 23.054 112.758 25.0227 112.758 28.1165C112.758 31.2358 114.471 33.2045 116.926 33.2045ZM117.131 31.8494C115.238 31.8494 114.267 30.1875 114.267 28.0909C114.267 26.0199 115.213 24.4091 117.131 24.4091C118.971 24.4091 119.943 25.892 119.943 28.0909C119.943 30.3153 118.946 31.8494 117.131 31.8494Z" fill="white"/>
</svg>
