<svg width="280" height="62" viewBox="0 0 280 62" fill="none" xmlns="http://www.w3.org/2000/svg">
    <g clip-path="url(#clip0)">
        <path d="M28.92 38.79C29.82 33.39 30.56 28.25 30.56 28.25C30.56 28.25 42.22 28.32 46.19 15.04C48.51 7.32 45.19 0.73 38.41 0.59C31.63 0.45 26.17 6.31 23.7 23.91C23.7 23.91 17.04 23.06 14.09 17.99C12.7 15.6 10.6 16.71 11.25 18.99C13.47 26.7 23.25 27.99 23.25 27.99C23.25 27.99 22.84 31.4 22.25 35.58C21.66 39.76 20.65 44.73 20.65 44.73C16.4829 43.6066 12.1194 43.4154 7.87003 44.17C-2.29997 46.16 -3.36996 58.27 9.01004 59.46C23.53 60.87 26.28 51.18 26.28 51.18C28.7695 52.5008 31.0869 54.123 33.18 56.01C37.7 59.88 39.7 62.28 40.64 61.42C41.58 60.56 39.42 57.18 35.26 52.98C30.55 48.23 27.26 46.98 27.26 46.98C27.26 46.98 28.07 43.86 28.92 38.79ZM38.64 6.45C42.28 6.74 42 11.62 41.01 14.68C38.11 23.68 31.17 23.93 31.17 23.93C31.17 23.93 33.37 6.03 38.64 6.45ZM10.7 54.2C4.40003 53.97 4.05003 49.25 9.83004 48.03C13.0644 47.3711 16.417 47.6026 19.53 48.7C19.53 48.7 18.17 54.47 10.7 54.2ZM244.97 55.66C248.485 55.7602 251.906 54.5115 254.53 52.17C256.39 55 259.72 56.39 264.42 56.39C269.59 56.39 274.94 52.64 278 49.15C279.82 47.08 280 45.89 279.25 45.24C278.5 44.59 277.02 45.42 275.61 46.65C273.71 48.3 269.69 50.65 266.17 50.65C264.999 50.6995 263.831 50.4843 262.754 50.0203C261.677 49.5563 260.719 48.8555 259.95 47.97C268.65 42.86 275.05 37.05 275.05 32.07C275.05 26.48 270.75 23.99 266.5 23.99C258.89 23.99 250.67 30.69 250.67 41.54C250.698 43.8026 251.121 46.0428 251.92 48.16C251.92 48.16 250.41 50.43 245.61 50.05C240.51 49.64 240.84 40.74 240.84 40.74L242.99 36.89C246.44 30.77 251.16 22.4 251.93 12.35C252.33 6.79 250.7 3.79 249.22 2.19C248.628 1.53556 247.913 1.00502 247.114 0.629103C246.316 0.253183 245.451 0.0393545 244.57 0C238.67 0 234.57 5.84 233.57 11.61C232.972 16.2746 232.778 20.982 232.99 25.68C229.296 25.0388 225.497 25.8329 222.37 27.9C217.5 31.08 215.37 37.46 214.66 40.68C214.35 42.1551 214.245 43.6662 214.35 45.17C214.35 45.89 214.62 47.27 214.62 47.27C214.62 47.27 212.89 50.79 209.78 50.79C204.78 50.79 208.08 28.37 208.27 27.11C208.43 26.11 209.07 23.93 205.53 23.78C203.4 23.69 202.53 24.46 202.34 25.46L202.2 26.46C202.2 26.46 194.96 21.71 186.75 30.27C182.38 34.83 180.75 41.42 180.75 46.71V47.05C180.75 47.05 178.96 52.05 174.75 51.31C171.97 50.81 171.62 46.03 171.62 44.18C171.767 40.5813 172.276 37.0066 173.14 33.51C173.538 31.9715 173.809 30.4029 173.95 28.82C173.95 25.43 172.95 23.99 170.66 23.99C167.52 23.99 164.71 26.38 161.59 30.09C157.59 34.81 154.65 42.2 154.65 42.2C154.65 42.2 154.78 40.88 154.98 39.6C155.11 38.78 155.48 34.97 156.14 31.51C156.52 29.59 156.65 28.02 156.67 27.86C156.743 27.4461 156.724 27.0212 156.615 26.6152C156.507 26.2092 156.31 25.832 156.04 25.51C155.759 25.2123 155.42 24.9766 155.042 24.8181C154.665 24.6597 154.259 24.582 153.85 24.59C152.46 24.59 150.66 25.49 149.85 28.01C149.475 29.1009 149.177 30.2171 148.96 31.35L148.7 32.64L147.7 31.79C143.86 28.4 138.55 24.36 130.92 24.36C120.18 24.36 114.39 33.96 114.39 42.99C114.386 44.0436 114.456 45.0962 114.6 46.14L114.65 46.53C114.65 46.53 112.39 51.79 108.46 50.79C106.7 50.4 105.7 48.62 105.7 44.4C105.838 40.6612 106.229 36.936 106.87 33.25C107.02 32.25 107.14 31.51 107.17 31.16L107.27 30.1C107.57 26.91 107.65 25.47 106.56 24.77C105.785 24.2812 104.886 24.0244 103.97 24.03C103.155 24.0669 102.372 24.357 101.73 24.86C100.73 25.53 97.57 29.62 91.57 39.08L91.41 39.32L90.7 40.54L89.15 43.89L90.01 39.02V38.7C90.15 37.88 90.4 36.44 90.5 35.98L90.76 34.98C91.16 33.28 92 29.76 92.12 29.13C92.48 27.07 92.34 25.69 91.68 24.92C91.3542 24.6058 90.9628 24.3676 90.5341 24.2223C90.1053 24.0771 89.6498 24.0285 89.2 24.08C87.02 24.08 85.27 25.67 82.2 30.41C81.73 31.15 79.96 33.98 78.56 36.22C76.76 39.12 75.12 41.22 75.12 41.22L75.5 37.34C75.79 35.6 76.88 27.61 76.9 27.23C76.9 25.55 76.03 24.76 74.18 24.76C73.42 24.76 71.58 24.92 70.81 26.4C70.04 27.88 68.15 33.91 67.2 43.31C67.2 43.31 59.61 50.39 51.51 50.39C48.51 50.39 46.16 49.26 45.3 47.06C45.3 47.06 49.64 44.87 51.7 43.49C56.97 39.94 60.81 36.33 60.81 31.7C60.81 26.03 55.42 23.47 50.97 24.04C43.43 24.99 36.97 32.79 36.97 41.79C36.97 50.28 41.84 56.4 50.33 56.4C60.15 56.4 66.93 48.53 66.93 48.53L66.7 52.11C66.57 53.98 67.37 56.39 70.6 56.39C71.2859 56.4124 71.9628 56.2292 72.5438 55.8639C73.1247 55.4986 73.5831 54.9679 73.86 54.34C76.9837 47.7587 80.4519 41.3465 84.25 35.13L84.43 34.85L85.34 33.14L86.7 30.94L85.61 35.67C85.41 36.79 83.7 46.35 83.43 50.58C83.3 52.71 83.3 54.82 84.16 55.72C84.4629 55.9738 84.8138 56.1639 85.1918 56.279C85.5698 56.3942 85.9671 56.4319 86.36 56.39C88.74 56.39 90.22 55.59 90.75 54.01C92.98 47.3488 95.7354 40.8751 98.99 34.65L99.15 34.35L101.35 30.2C100.388 35.4612 99.8061 40.7851 99.61 46.13C99.61 49.21 100.24 54.83 104.77 55.9C111.77 57.54 116.04 50.54 116.04 50.54L116.49 51.76C118.49 55 121.79 56.76 126.06 56.76C134.91 56.76 140.63 50.09 140.63 39.76C140.744 36.1674 139.691 32.6346 137.63 29.69C139.686 30.4134 141.65 31.3768 143.48 32.56C145.121 33.7048 146.66 34.9896 148.08 36.4L148.01 36.83C147.93 37.32 147.86 37.83 147.79 38.31C147.51 40.31 147.26 42.37 147.06 44.48C146.86 46.59 146.76 48.24 146.76 49.78C146.759 50.6661 146.815 51.5513 146.93 52.43C147.006 53.1681 147.205 53.8881 147.52 54.56C147.83 55.1287 148.291 55.6006 148.852 55.9236C149.413 56.2465 150.053 56.408 150.7 56.39C151.385 56.443 152.067 56.2636 152.637 55.8806C153.207 55.4977 153.63 54.9338 153.84 54.28C160.7 38.79 166.2 33.79 166.7 33.31C167.98 32.01 167.4 34.43 167.4 34.43L167.35 34.75C167.35 34.75 166.49 40.06 166.35 41.65C166.165 43.1363 166.068 44.6322 166.06 46.13C166.06 50.44 167.06 55.37 172.27 56.13C179.4 57.2 181.87 51.8 181.87 51.8C182.807 53.2376 184.094 54.4126 185.611 55.214C187.128 56.0154 188.825 56.4167 190.54 56.38C199.47 56.38 202.24 49.77 202.24 49.77C203.18 53.77 204.85 55.89 208.88 55.89C213.24 55.89 216.27 51.15 216.27 51.15C217.113 52.7215 218.364 54.0366 219.892 54.957C221.419 55.8774 223.167 56.369 224.95 56.38C227.073 56.3765 229.166 55.8786 231.063 54.9256C232.96 53.9727 234.61 52.591 235.88 50.89L236.7 49.63C236.7 49.63 238.96 55.33 244.95 55.66H244.97ZM49.49 30.3C54.28 26.99 56.49 31.21 54.56 34.06C51.93 38 45.94 41.9 44.2 42.52C44.2 42.52 42.95 34.79 49.49 30.3ZM127.49 51.42C122.91 51.42 121.27 47.04 121.27 42.93C121.27 35.45 125.79 29.65 129.68 29.65C133.57 29.65 134.84 34.65 134.84 38.04C134.88 45.54 131.7 51.42 127.53 51.42H127.49ZM201.49 30.52C201.49 30.52 200.61 50.94 192.62 50.94C188.79 50.94 188.49 46.82 188.49 45.56C188.49 31 199.95 28.41 201.49 30.52ZM226.58 50.94C223.5 50.94 222.05 48.1 222.05 45.42C222.05 31.65 229.95 28.93 233.4 29.99C233.4 29.99 233.51 32.61 233.79 35.99C234.03 38.92 234.25 42.38 234.3 42.68C234.3 42.66 231.43 50.94 226.58 50.94ZM239.76 33.54L239.59 30.93V30.6C239.248 25.8737 239.221 21.1298 239.51 16.4C240.11 10.01 242.05 5.89 244.51 5.89C244.768 5.89678 245.022 5.96138 245.252 6.07906C245.482 6.19673 245.683 6.36449 245.84 6.57C247.05 8.02 247.4 11.87 246.65 15.34C245.585 19.8654 244.064 24.2712 242.11 28.49C241.71 29.4 241.36 30.2 241.11 30.9L239.76 33.54ZM258.76 43.28L258.56 41.71C258.56 41.45 257.56 35.27 261.96 30.92C263.053 29.7354 264.561 29.0189 266.17 28.92C266.708 28.8862 267.244 29.0054 267.716 29.2638C268.189 29.5222 268.578 29.9092 268.84 30.38C271.24 35.01 258.75 43.28 258.75 43.28H258.76Z" fill="#4A4A4A"/>
    </g>
    <defs>
        <clipPath id="clip0">
            <rect width="279.65" height="61.6" fill="white"/>
        </clipPath>
    </defs>
</svg>
