<svg xmlns="http://www.w3.org/2000/svg" width="39" height="39" fill="none" viewBox="0 0 39 39"><path fill="#673eac" fill-rule="evenodd" d="M31.232 21.245c.216.264.528.794.816 1.348.29.556.564 1.158.702 1.573.472 1.416.138 2.907-.892 3.942-1.102 1.106-2.784 1.369-4.735.805a.7.7 0 0 0-.172-.035.2.2 0 0 0-.114.035c-.055.03-.128.085-.235.18-.105.093-.238.22-.413.39-1.257 1.216-2.432 1.898-4.016 2.327-.587.16-1.643.246-2.696.26-1.055.014-2.138-.045-2.78-.187-1.86-.411-3.041-1.021-4.301-2.229l-.76-.728-.907.173c-1.744.33-3.1.016-4.108-1.001-.72-.727-1.083-1.529-1.067-2.482.016-.942.403-2.014 1.135-3.289.187-.326.363-.628.494-.85q.1-.17.162-.27l.05-.081.008-.017 1.459 1.094q-.037.077-.098.192c-.083.154-.198.356-.324.57a10 10 0 0 0-.7 1.452c-.182.474-.282.866-.281 1.079.002.26.086.555.233.824.146.27.347.503.567.65a1.87 1.87 0 0 0 1.103.345c.45.003 1.027-.11 1.879-.347 2.907-.812 5.054-1.104 8.117-1.102 2.806.001 4.815.27 7.818 1.044 1.627.42 2.35.43 2.926.132.249-.128.42-.265.552-.443.133-.179.233-.411.322-.745.157-.592-.033-1.284-.85-2.722a19 19 0 0 1-.436-.81q-.028-.057-.05-.109l1.476-1.109zm-9.4 6.66c-2.236-.216-5.234-.094-7.371.299l-.67.122.24.213c.631.565 1.855 1.15 2.986 1.414.564.133 1.472.195 2.377.187.907-.009 1.786-.088 2.297-.23.676-.187 1.505-.585 2.118-.968.306-.191.549-.373.689-.515a1 1 0 0 0 .086-.106l-.025-.008a3 3 0 0 0-.195-.051 10 10 0 0 0-.63-.121 32 32 0 0 0-1.903-.236" clip-rule="evenodd"/><path fill="#673eac" d="M17.24 21.304c.205-.151.447-.204.676-.08.313.169.403.537.363.888a1.96 1.96 0 0 1-.512 1.076c-.184.198-.362.344-.552.383-.213.044-.389-.054-.539-.205a.72.72 0 0 1-.214-.575c.011-.218.099-.471.242-.771.154-.32.336-.568.536-.716m3.19.028c.148-.14.372-.249.593-.178a.5.5 0 0 1 .159.093q.072.059.149.14c.1.106.207.24.297.38.201.313.317.659.335.958.018.287-.055.595-.309.732a2 2 0 0 1-.181.09.37.37 0 0 1-.209.029.5.5 0 0 1-.19-.088q-.082-.059-.201-.155c-.192-.152-.367-.397-.494-.647-.126-.25-.218-.53-.218-.764 0-.23.118-.446.27-.59"/><path fill="#673eac" d="M20.718 13.34c4.085.003 7.768.136 9.293.404.453.08.813.216 1.077.435.269.222.424.518.492.887.027.141.034.438.027.786a21 21 0 0 1-.063 1.201c-.07.873-.168 1.501-.349 2.01-.182.514-.446.899-.834 1.29-.775.782-2.002 1.253-3.293 1.394-1.292.14-2.677-.047-3.785-.613-.864-.442-1.403-.995-2.255-2.273-.457-.687-.747-1.067-1.013-1.28-.25-.201-.483-.261-.862-.267-.376-.005-.6.043-.8.187-.21.153-.414.428-.71.932-.996 1.693-2.439 2.891-3.919 3.213-.808.176-1.832.233-2.531.137-1.508-.205-2.674-.808-3.47-1.819-.589-.747-.74-1.477-.801-3.517-.027-.888-.04-1.361-.012-1.646.015-.146.042-.257.09-.355.047-.095.11-.17.175-.243s.129-.141.211-.198a.9.9 0 0 1 .303-.13c.232-.06.592-.093 1.214-.144 3.204-.263 7.722-.393 11.815-.39m-11.03-2.225C13.76 5.349 22.74 4.71 27.756 9.82a13 13 0 0 1 1.488 1.865c.196.3.354.574.446.787.038.086.063.172.078.248a36 36 0 0 0-2.473-.431l-.007-.012c-.59-.864-1.757-1.965-2.713-2.56-3.265-2.028-8.147-1.86-11.27.387-.361.26-.868.72-1.326 1.188-.444.454-.825.898-.988 1.16a56 56 0 0 0-2.187.334.4.4 0 0 1 .001-.066 1 1 0 0 1 .042-.154c.039-.107.105-.243.185-.395.161-.304.397-.69.656-1.055"/></svg>