<svg width="1964" height="452" viewBox="0 0 1964 452" fill="none" xmlns="http://www.w3.org/2000/svg">
<style>path,rect,circle,ellipse{vector-effect:non-scaling-stroke}</style>
<g clip-path="url(#clip0_432_10950)">
<path d="M-285.715 436.133L826.377 436.133C839.681 436.133 852.436 430.846 861.847 421.452C898.537 384.762 919.608 363.691 956.299 327" stroke="#9077F3" stroke-miterlimit="10"/>
<path d="M-288.477 412.262L820.68 412.262C831.512 412.262 841.902 407.966 849.558 400.303L935.361 314.5" stroke="#9077F3" stroke-miterlimit="10"/>
<path d="M-292.619 388.392L814.995 388.392C823.355 388.392 831.381 385.074 837.292 379.166C951.511 265.018 804.92 411.648 919.139 297.5" stroke="#9077F3" stroke-miterlimit="10"/>
<path d="M-294 364.521L809.299 364.521C815.187 364.521 820.835 362.182 825.003 358.016C901.349 281.67 831.173 351.846 907.52 275.5" stroke="#9077F3" stroke-miterlimit="10"/>
<rect x="841.5" y="127.5" width="266" height="264" rx="23.5" stroke="#DEDBFF"/>
<path d="M974 153H881.527C872.4 153 865 160.4 865 169.527V351.473C865 360.6 872.4 368 881.527 368H1066.47C1075.6 368 1083 360.6 1083 351.473V260.5" stroke="#5A30C5"/>
<path d="M1005.69 231.013C1016.57 241.896 1023.85 254.293 1026.83 265.518C1029.81 276.757 1028.48 286.717 1022.31 292.884C1016.14 299.052 1006.18 300.391 994.941 297.407C983.716 294.426 971.32 287.151 960.436 276.267C949.553 265.384 942.278 252.987 939.297 241.762C936.312 230.523 937.652 220.563 943.819 214.396C949.986 208.228 959.946 206.889 971.186 209.873C982.411 212.854 994.807 220.129 1005.69 231.013Z" stroke="#5A30C5"/>
<path d="M989.618 247.085C1000.5 257.969 1007.78 270.365 1010.76 281.59C1013.74 292.83 1012.4 302.79 1006.24 308.957C1000.07 315.124 990.108 316.464 978.869 313.479C967.644 310.498 955.247 303.223 944.364 292.34C933.48 281.456 926.205 269.06 923.224 257.835C920.24 246.595 921.579 236.635 927.747 230.468C933.914 224.301 943.874 222.961 955.113 225.946C966.338 228.927 978.735 236.202 989.618 247.085Z" stroke="#5A30C5"/>
<path d="M974.062 262.641C984.946 273.525 992.221 285.922 995.201 297.147C998.186 308.386 996.846 318.346 990.679 324.513C984.512 330.68 974.552 332.02 963.313 329.036C952.087 326.055 939.691 318.78 928.807 307.896C917.924 297.013 910.649 284.616 907.668 273.391C904.683 262.152 906.023 252.192 912.19 246.024C918.357 239.857 928.317 238.518 939.557 241.502C950.782 244.483 963.179 251.758 974.062 262.641Z" stroke="#5A30C5"/>
<circle cx="45.9894" cy="45.9894" r="45.9894" transform="matrix(0.965918 0.25885 0.25885 0.965918 1006.36 117.796)" fill="#5A30C5"/>
<mask id="path-11-inside-1_432_10950" fill="white">
<path d="M1153.91 67.2847C1162.62 66.966 1169.77 74.113 1169.45 82.823L1169.03 94.1278C1167.74 129.463 1153.13 163.001 1128.12 188.004L1039.65 276.478C1034.13 284.099 1023.52 287.05 1009.77 283.367C985.237 276.792 960.019 251.574 953.444 227.04C949.864 213.682 952.551 203.281 959.701 197.638L1048.73 108.61C1073.73 83.6075 1107.27 68.9918 1142.61 67.699L1153.91 67.2847Z"/>
</mask>
<path d="M1153.91 67.2847C1162.62 66.966 1169.77 74.113 1169.45 82.823L1169.03 94.1278C1167.74 129.463 1153.13 163.001 1128.12 188.004L1039.65 276.478C1034.13 284.099 1023.52 287.05 1009.77 283.367C985.237 276.792 960.019 251.574 953.444 227.04C949.864 213.682 952.551 203.281 959.701 197.638L1048.73 108.61C1073.73 83.6075 1107.27 68.9918 1142.61 67.699L1153.91 67.2847Z" fill="#5A30C5"/>
<path d="M1153.91 67.2847L1153.87 66.2853L1153.87 66.2853L1153.91 67.2847ZM1169.45 82.823L1170.45 82.8596L1170.45 82.8596L1169.45 82.823ZM1169.03 94.1278L1168.04 94.0912L1168.04 94.0912L1169.03 94.1278ZM1128.12 188.004L1128.83 188.711V188.711L1128.12 188.004ZM1039.65 276.478L1038.94 275.771L1038.89 275.827L1038.84 275.892L1039.65 276.478ZM1009.77 283.367L1009.51 284.332V284.332L1009.77 283.367ZM953.444 227.04L952.478 227.299L952.478 227.299L953.444 227.04ZM959.701 197.638L960.321 198.423L960.367 198.387L960.408 198.345L959.701 197.638ZM1142.61 67.699L1142.64 68.6983L1142.64 68.6983L1142.61 67.699ZM1153.91 67.2847L1153.95 68.284C1162.08 67.9866 1168.75 74.6571 1168.45 82.7865L1169.45 82.823L1170.45 82.8596C1170.79 73.5689 1163.16 65.9454 1153.87 66.2853L1153.91 67.2847ZM1169.45 82.823L1168.45 82.7865L1168.04 94.0912L1169.03 94.1278L1170.03 94.1643L1170.45 82.8596L1169.45 82.823ZM1169.03 94.1278L1168.04 94.0912C1166.75 129.174 1152.24 162.473 1127.42 187.297L1128.12 188.004L1128.83 188.711C1154.01 163.53 1168.73 129.752 1170.03 94.1643L1169.03 94.1278ZM1128.12 188.004L1127.42 187.297L1038.94 275.771L1039.65 276.478L1040.36 277.186L1128.83 188.711L1128.12 188.004ZM1039.65 276.478L1038.84 275.892C1033.65 283.052 1023.55 286.023 1010.03 282.401L1009.77 283.367L1009.51 284.332C1023.48 288.077 1034.6 285.146 1040.46 277.065L1039.65 276.478ZM1009.77 283.367L1010.03 282.401C997.972 279.169 985.682 271.333 975.58 261.231C965.478 251.129 957.642 238.839 954.41 226.782L953.444 227.04L952.478 227.299C955.822 239.775 963.882 252.361 974.166 262.645C984.45 272.929 997.036 280.989 1009.51 284.332L1009.77 283.367ZM953.444 227.04L954.41 226.782C950.89 213.644 953.599 203.727 960.321 198.423L959.701 197.638L959.082 196.853C951.503 202.834 948.839 213.719 952.478 227.299L953.444 227.04ZM959.701 197.638L960.408 198.345L1049.44 109.317L1048.73 108.61L1048.02 107.903L958.994 196.931L959.701 197.638ZM1048.73 108.61L1049.44 109.317C1074.26 84.4932 1107.56 69.9819 1142.64 68.6983L1142.61 67.699L1142.57 66.6996C1106.98 68.0017 1073.2 82.7218 1048.02 107.903L1048.73 108.61ZM1142.61 67.699L1142.64 68.6983L1153.95 68.284L1153.91 67.2847L1153.87 66.2853L1142.57 66.6996L1142.61 67.699Z" fill="white" mask="url(#path-11-inside-1_432_10950)"/>
<ellipse cx="1085.55" cy="116.004" rx="16.3445" ry="20.253" transform="rotate(45 1085.55 116.004)" fill="white"/>
<path d="M1101.08 95.9596C1109.28 104.164 1107.84 119.139 1097.56 129.422C1087.28 139.706 1072.3 141.144 1064.1 132.94C1055.89 124.735 1057.33 109.761 1067.61 99.4772C1077.9 89.194 1092.87 87.7557 1101.08 95.9596Z" stroke="white"/>
<path d="M1016.36 141.144H951.316C949.081 141.145 946.937 142.014 945.356 143.559L909.117 179.014C908.011 180.099 907.235 181.464 906.876 182.956C906.517 184.447 906.59 186.008 907.086 187.461C907.582 188.915 908.482 190.205 909.685 191.187C910.887 192.169 912.346 192.804 913.896 193.021L958.361 199.139" fill="#5A30C5" stroke="white" stroke-linecap="round" stroke-linejoin="round"/>
<path d="M1095.52 220.31V285.35C1095.52 287.585 1094.65 289.729 1093.11 291.311L1057.65 327.549C1056.57 328.656 1055.2 329.432 1053.71 329.79C1052.22 330.149 1050.66 330.076 1049.21 329.58C1047.75 329.084 1046.46 328.185 1045.48 326.982C1044.5 325.779 1043.86 324.321 1043.65 322.77L1037.53 278.305" fill="#5A30C5" stroke="white" stroke-linecap="round" stroke-linejoin="round"/>
<path d="M1079.23 157.473C1090.11 168.357 1097.39 180.754 1100.37 191.979C1103.35 203.218 1102.01 213.178 1095.85 219.345C1089.68 225.512 1079.72 226.852 1068.48 223.868C1057.26 220.887 1044.86 213.612 1033.98 202.728C1023.09 191.845 1015.82 179.448 1012.84 168.223C1009.85 156.984 1011.19 147.024 1017.36 140.856C1023.53 134.689 1033.49 133.35 1044.72 136.334C1055.95 139.315 1068.35 146.59 1079.23 157.473Z" stroke="white"/>
<path d="M1152.42 84.995C1159.3 91.8775 1163.94 99.6635 1165.89 106.668C1167.86 113.69 1167.1 119.811 1163.38 123.532C1159.65 127.253 1153.53 128.012 1146.51 126.051C1139.51 124.095 1131.72 119.455 1124.84 112.572C1117.96 105.69 1113.32 97.9037 1111.36 90.8991C1109.4 83.8773 1110.16 77.756 1113.88 74.0349C1117.6 70.3138 1123.72 69.5548 1130.74 71.5158C1137.75 73.4721 1145.53 78.1126 1152.42 84.995Z" stroke="white"/>
<path d="M1033.5 203.2C1044.39 214.084 1051.66 226.481 1054.64 237.706C1057.63 248.945 1056.29 258.905 1050.12 265.072C1043.95 271.239 1033.99 272.579 1022.75 269.594C1011.53 266.614 999.132 259.339 988.248 248.455C977.365 237.572 970.09 225.175 967.109 213.95C964.125 202.711 965.464 192.75 971.631 186.583C977.799 180.416 987.759 179.077 998.998 182.061C1010.22 185.042 1022.62 192.317 1033.5 203.2Z" stroke="white"/>
<path d="M1034.35 202.353L1165.25 71.4537" stroke="white"/>
<path d="M955.646 231.182L1059.95 126.879" stroke="white"/>
<path d="M1094.95 91.8774L1116.52 70.3106" stroke="white"/>
<path d="M1005.93 281.464L1164.68 122.714" stroke="white"/>
<path d="M1002.34 238.708L961.653 279.398C960.183 280.868 957.8 280.868 956.33 279.398C954.86 277.928 954.86 275.545 956.33 274.076L997.012 233.393L1029.4 206.775L1002.34 238.708Z" fill="#D9D9D9"/>
<path d="M1002.34 238.708L961.653 279.398C960.183 280.868 957.8 280.868 956.33 279.398C954.86 277.928 954.86 275.545 956.33 274.076L997.012 233.393L1029.4 206.775L1002.34 238.708Z" fill="#5A30C5"/>
<path d="M1002.34 238.708L961.653 279.398C960.183 280.868 957.8 280.868 956.33 279.398C954.86 277.928 954.86 275.545 956.33 274.076L997.012 233.393L1029.4 206.775L1002.34 238.708Z" stroke="white"/>
</g>
<defs>
<clipPath id="clip0_432_10950">
<rect width="1964" height="452" fill="white"/>
</clipPath>
</defs>
</svg>
