<svg width="516" height="171" viewBox="0 0 516 171" fill="none" xmlns="http://www.w3.org/2000/svg">
<rect width="516" height="171" rx="12" fill="white"/>
<path fill-rule="evenodd" clip-rule="evenodd" d="M63.0724 90.8698C66.9836 88.6116 66.9901 81.3006 63.0869 74.5402C59.1837 67.7799 52.8489 64.1303 48.9377 66.3885C45.0265 68.6467 45.02 75.9576 48.9231 82.7179C52.8263 89.4783 59.1612 93.128 63.0724 90.8698ZM63.0958 105.345C66.999 112.106 66.9925 119.417 63.0813 121.675C59.17 123.933 52.8352 120.283 48.932 113.523C45.0288 106.763 45.0353 99.4517 48.9465 97.1935C52.8578 94.9353 59.1926 98.585 63.0958 105.345ZM89.7495 120.755C93.6527 127.515 93.6462 134.826 89.735 137.085C85.8238 139.343 79.4889 135.693 75.5857 128.933C71.6826 122.172 71.6891 114.862 75.6003 112.603C79.5115 110.345 85.8463 113.995 89.7495 120.755ZM89.7408 89.9505C93.644 96.7108 93.6375 104.022 89.7263 106.28C85.8151 108.538 79.4803 104.888 75.5771 98.1281C71.6739 91.3677 71.6804 84.0568 75.5916 81.7986C79.5028 79.5404 85.8377 83.1902 89.7408 89.9505Z" fill="#F26E7E"/>
<path fill-rule="evenodd" clip-rule="evenodd" d="M143.061 82.7349C146.964 75.9746 146.958 68.6636 143.047 66.4054C139.136 64.1472 132.801 67.7969 128.898 74.5573C124.994 81.3176 125.001 88.6285 128.912 90.8868C132.823 93.145 139.158 89.4953 143.061 82.7349ZM143.062 97.2032C146.973 99.4614 146.98 106.772 143.077 113.533C139.173 120.293 132.839 123.943 128.927 121.685C125.016 119.426 125.01 112.115 128.913 105.355C132.816 98.5947 139.151 94.945 143.062 97.2032ZM116.414 112.588C120.325 114.846 120.331 122.157 116.428 128.917C112.525 135.677 106.19 139.327 102.279 137.069C98.3677 134.811 98.3612 127.5 102.264 120.74C106.168 113.979 112.502 110.329 116.414 112.588ZM116.399 81.7897C120.31 84.0479 120.316 91.3589 116.413 98.1192C112.51 104.88 106.175 108.529 102.264 106.271C98.3526 104.013 98.3461 96.7019 102.249 89.9416C106.153 83.1812 112.487 79.5315 116.399 81.7897Z" fill="#8A3391"/>
<path fill-rule="evenodd" clip-rule="evenodd" d="M110.122 40.1777C110.122 44.6941 103.794 48.3554 95.9875 48.3554C88.1811 48.3554 81.8528 44.6941 81.8528 40.1777C81.8528 35.6613 88.1811 32 95.9875 32C103.794 32 110.122 35.6613 110.122 40.1777ZM83.474 55.5464C83.474 60.0628 77.1457 63.7241 69.3393 63.7241C61.5329 63.7241 55.2046 60.0628 55.2046 55.5464C55.2046 51.03 61.5329 47.3687 69.3393 47.3687C77.1457 47.3687 83.474 51.03 83.474 55.5464ZM122.671 63.7241C130.477 63.7241 136.805 60.0628 136.805 55.5464C136.805 51.03 130.477 47.3687 122.671 47.3687C114.864 47.3687 108.536 51.03 108.536 55.5464C108.536 60.0628 114.864 63.7241 122.671 63.7241ZM110.122 70.9496C110.122 75.466 103.794 79.1272 95.9875 79.1272C88.1811 79.1272 81.8528 75.466 81.8528 70.9496C81.8528 66.4332 88.1811 62.7719 95.9875 62.7719C103.794 62.7719 110.122 66.4332 110.122 70.9496Z" fill="#F7BF2A"/>
<path fill-rule="evenodd" clip-rule="evenodd" d="M300.218 51H305.473C307.104 51 308.01 51.906 308.01 53.5368V114.556C308.01 116.187 307.104 117.093 305.473 117.093H300.218C298.587 117.093 297.681 116.187 297.681 114.556V53.5368C297.681 51.906 298.587 51 300.218 51ZM199.154 117.093C200.785 117.093 201.691 116.187 201.691 114.556V94.1255H212.336C225.836 94.1255 234.307 86.0621 234.307 73.9217C234.307 61.8265 225.836 53.7178 212.336 53.7178H193.537C191.906 53.7178 191 54.6238 191 56.2546V114.556C191 116.187 191.906 117.093 193.537 117.093H199.154ZM201.691 62.7325H211.657C219.267 62.7325 223.571 67.1266 223.571 73.9217C223.571 80.762 219.267 85.1561 211.657 85.1561H201.691V62.7325ZM241.918 72.744V99.1087C241.918 110.66 249.393 118.135 260.673 118.135C266.652 118.135 271.771 115.19 274.942 110.887V114.556C274.942 116.187 275.848 117.093 277.479 117.093H282.779C284.41 117.093 285.316 116.187 285.316 114.556V72.744C285.316 71.1132 284.41 70.2072 282.779 70.2072H277.479C275.848 70.2072 274.942 71.1132 274.942 72.744V95.7565C274.942 103.548 269.325 109.029 262.802 109.029C256.55 109.029 252.247 104.59 252.247 98.248V72.744C252.247 71.1132 251.341 70.2072 249.71 70.2072H244.455C242.824 70.2072 241.918 71.1132 241.918 72.744ZM319.517 72.744V99.1087C319.517 110.66 326.991 118.135 338.271 118.135C344.251 118.135 349.37 115.19 352.541 110.887V114.556C352.541 116.187 353.447 117.093 355.078 117.093H360.378C362.009 117.093 362.915 116.187 362.915 114.556V72.744C362.915 71.1132 362.009 70.2072 360.378 70.2072H355.078C353.447 70.2072 352.541 71.1132 352.541 72.744V95.7565C352.541 103.548 346.924 109.029 340.4 109.029C334.149 109.029 329.845 104.59 329.845 98.248V72.744C329.845 71.1132 328.939 70.2072 327.309 70.2072H322.054C320.423 70.2072 319.517 71.1132 319.517 72.744ZM447.897 88.1915V114.602C447.897 116.232 446.991 117.138 445.361 117.138H440.061C438.43 117.138 437.524 116.232 437.524 114.602V89.0975C437.524 82.7555 433.583 78.3161 427.784 78.3161C421.94 78.3161 416.414 84.2051 416.414 91.3172V114.602C416.414 116.232 415.508 117.138 413.877 117.138H408.577C406.946 117.138 406.04 116.232 406.04 114.602V89.0975C406.04 82.7555 402.099 78.3161 396.301 78.3161C390.729 78.3161 384.93 83.6615 384.93 91.3172V114.602C384.93 116.232 384.024 117.138 382.393 117.138H377.093C375.463 117.138 374.557 116.232 374.557 114.602V72.7442C374.557 71.1133 375.463 70.2073 377.093 70.2073H382.393C384.024 70.2073 384.93 71.1133 384.93 72.7442V76.3229C388.237 71.974 392.994 69.1201 398.475 69.1201C405.542 69.1201 411.476 72.7894 414.421 78.8597C417.501 72.9706 423.209 69.1201 429.913 69.1201C440.106 69.1201 447.897 76.64 447.897 88.1915ZM471 57.4328C471 53.8541 468.191 51.0908 464.567 51.0908C460.943 51.0908 458.18 53.8541 458.18 57.4328C458.18 60.9662 460.943 63.7295 464.567 63.7295C468.191 63.7295 471 60.9662 471 57.4328ZM469.732 72.7442C469.732 71.1134 468.826 70.2074 467.195 70.2074H461.94C460.309 70.2074 459.403 71.1134 459.403 72.7442V114.556C459.403 116.187 460.309 117.093 461.94 117.093H467.195C468.826 117.093 469.732 116.187 469.732 114.556V72.7442Z" fill="black"/>
</svg>
