<?xml version="1.0" encoding="utf-8"?>
<!-- Generator: Adobe Illustrator 22.1.0, SVG Export Plug-In . SVG Version: 6.00 Build 0)  -->
<svg version="1.1" id="Layer_1" xmlns="http://www.w3.org/2000/svg" xmlns:xlink="http://www.w3.org/1999/xlink" x="0px" y="0px"
	 viewBox="0 0 202 202" style="enable-background:new 0 0 202 202;" xml:space="preserve">
<style type="text/css">
	.st0{fill:#EE985D;}
	.st1{fill:#FFFFFF;}
</style>
<path class="st0" d="M101.2695312,161.5368347c-2.6611328,0-5.3378906-0.1699219-7.9570312-0.5039062l-0.1884766-0.0253906
	c-3.0087891-0.4199219-5.1074219-3.1992188-4.6875-6.2070312c0.4199219-3.0058594,3.1992188-5.1025391,6.1972656-4.6884766
	c0.0273438,0.0029297,0.1220703,0.015625,0.1357422,0.0175781c2.0957031,0.2675781,4.3037109,0.4072266,6.5,0.4072266
	c12.03125,0,23.7304688-4.2578125,32.9433594-11.9882812c0.9404297-0.7890625,2.1171875-1.2412109,3.3447266-1.2841797
	c17.5322266-0.6074219,31.265625-14.8300781,31.265625-32.3789062c0-5.9404297-1.6191406-11.7470703-4.6835938-16.7929688
	c-0.6279297-1.0341797-0.8974609-2.2470703-0.7666016-3.4501953c0.1220703-1.1230469,0.1845703-2.2333984,0.1845703-3.3017578
	c0-16.6054688-13.5087891-30.1142616-30.1132812-30.1142616c-2.7675781,0-5.5322266,0.3847656-8.2167969,1.1445312
	c-1.2148438,0.3427734-2.5146484,0.2597656-3.6748047-0.2412109c-6.4238281-2.7695312-13.2480469-4.1738281-20.2832031-4.1738281
	c-22.359375,0-41.9804688,14.2929688-48.8261719,35.5664101c-0.5703125,1.7734375-1.9990234,3.1367188-3.796875,3.6240234
	c-9.1083984,2.4667969-15.4697266,10.7871094-15.4697266,20.2314453c0,10.3339844,7.6953125,19.25,17.8994141,20.7412109
	c0.2158203,0.03125,0.4287109,0.0595703,0.6435547,0.0849609c3.0175781,0.3505859,5.1787109,3.0810547,4.8271484,6.0986328
	c-0.3505859,3.0166016-3.0800781,5.1816406-6.0986328,4.8271484c-0.3222656-0.0371094-0.6445312-0.0791016-0.9638672-0.1269531
	c-15.5673828-2.2734375-27.3076172-15.8701172-27.3076172-31.625c0-13.3896484,8.3886719-25.296875,20.7333984-29.9277344
	c9.0615234-24.3378944,32.1640625-40.4941444,58.359375-40.4941444c7.8984375,0,15.5820312,1.4589844,22.8671875,4.3408203
	c3.0576172-0.7109375,6.1796875-1.0703125,9.3076172-1.0703125c22.6699219,0,41.1132812,18.4433594,41.1132812,41.1142616
	c0,0.8691406-0.0292969,1.7539062-0.0878906,2.6474609c3.5078125,6.3789062,5.3535156,13.5644531,5.3535156,20.8974609
	c0,22.8701172-17.4140625,41.5224609-39.9863281,43.2666016
	C128.8818359,156.7966003,115.2597656,161.5368347,101.2695312,161.5368347z"/>
<g>
	<path class="st1" d="M103.2691422,61.0217628c-20.7773438,0-37.6806641,16.9033165-37.6806641,37.6806602v59.4433594
		c0,3.8095703,3.0888672,6.8984375,6.8984375,6.8984375s6.8984375-3.0888672,6.8984375-6.8984375V98.7024231
		c0-13.1699219,10.7138672-23.8837891,23.8837891-23.8837891s23.8837891,10.7138672,23.8837891,23.8837891
		s-10.7138672,23.8837891-23.8837891,23.8837891c-3.8095703,0-6.8984375,3.0888672-6.8984375,6.8984375
		s3.0888672,6.8984375,6.8984375,6.8984375c20.7773438,0,37.6806717-16.9033203,37.6806717-37.6806641
		S124.0464859,61.0217628,103.2691422,61.0217628z"/>
</g>
</svg>
