<svg xmlns="http://www.w3.org/2000/svg" id="Layer_1" data-name="Layer 1" viewBox="0 0 476.38 86.81">
    <defs>
        <style>
            .cls-1 {
                fill: #0c1635;
            }
        </style>
    </defs>
    <path
        class="cls-1"
        d="M241.65,160.54V108h0l-24.09,0v1.34l11.21,6.56v35.24a17.24,17.24,0,0,1-13.83,7c-6.68,0-11.21-3.94-11.21-13.72V108l-24.09,0v1.34l11.21,6.56v32c0,14.43,8,21,18.6,21,8,0,15-5.84,19.92-14.55v13.87l12.18,0,8.81,0v-1.36Zm212.59,5.69,10.63-6.62V92.11L453.3,85.49V84.11h24.45v75.5l10.61,6.61v1.38H420.12v-1.38l10.62-6.61V115.43l-11.57-6v-1.29h24.45v51.49ZM436.65,98.91a8.27,8.27,0,0,0,0-16.53,8.27,8.27,0,0,0,0,16.53m104.21,48c-6.83,8.09-11.77,10.16-19,10.16-15.51,0-21.83-11.33-21.83-22.9v-1.55h41.75c-.6-13.72-8.23-25.41-23.62-25.41-19.2,0-29.58,15.75-29.58,32,0,18.36,13.24,29.69,28.27,29.69,15.38,0,23.12-13.38,25.21-20.92-.38-.38-1.16-1-1.16-1M501,128.72c1.79-9.66,7.87-18.13,16.82-18.13,7.27,0,10.49,7.52,10.49,15.15a23.77,23.77,0,0,1-.12,3Zm-96.4,21.95-55.5-66.56H330.28l-.51.83,11.55,13.25v60.42l-12.17,7.61v1.38h30.18v-1.38l-13.84-7.61V103.08l54.79,64.52h8.47V93.1l12.16-7.61V84.11H390.73v1.38l13.83,7.61ZM304.67,147c-6.83,8.09-11.77,10.16-19.05,10.16-15.5,0-21.82-11.33-21.82-22.9v-1.55h41.74c-.59-13.72-8.23-25.41-23.61-25.41-19.2,0-29.58,15.75-29.58,32,0,18.36,13.24,29.69,28.27,29.69,15.37,0,23.12-13.38,25.21-20.92-.39-.38-1.16-1-1.16-1m-40.39-18.23c1.78-9.66,7.87-18.13,16.81-18.13,7.28,0,10.5,7.52,10.5,15.15a23.77,23.77,0,0,1-.12,3ZM130.54,145.9c0-10.14-8.11-20.4-21.94-20.4H97.49v38.17h14.92c12.53,0,18.13-8.11,18.13-17.77m-33-24.22h13.14c10.25,0,15.14-9.06,15.14-16.34,0-9.18-5.72-17.41-16.22-17.41H97.49Zm48.92,23.14c0,11-9.9,22.78-28,22.78h-47v-1.38l11.53-6.61V92.11L71.41,85.49V84.11h46.13c16.22,0,24.22,9.43,24.22,18.49,0,8.47-6.8,17.18-19.8,20,14.91,2.14,24.45,11.45,24.45,22.18m2.5,22.78H183v-1.38l-10.62-6.61V84.11H148v1.38l11.57,6.62v67.5l-10.61,6.61Z"
        transform="translate(-71.41 -82.38)"
    />
    <path
        class="cls-1"
        d="M543.66,169.19a3.92,3.92,0,0,1-1.6-.33,4.08,4.08,0,0,1-1.31-.88,4.22,4.22,0,0,1-.89-1.31,4.13,4.13,0,0,1,5.41-5.41,4.22,4.22,0,0,1,1.31.89,4.08,4.08,0,0,1,.88,1.31,4.07,4.07,0,0,1,0,3.21,4.1,4.1,0,0,1-2.19,2.19A3.93,3.93,0,0,1,543.66,169.19Zm-3.41-4.13a3.29,3.29,0,0,0,.27,1.33,3.67,3.67,0,0,0,.73,1.08,3.42,3.42,0,0,0,1.09.73,3.25,3.25,0,0,0,1.32.27,3.33,3.33,0,0,0,1.33-.27,3.38,3.38,0,0,0,1.08-.73,3.49,3.49,0,0,0,.73-1.08,3.29,3.29,0,0,0,.27-1.33,3.25,3.25,0,0,0-.27-1.32,3.42,3.42,0,0,0-.73-1.09,3.55,3.55,0,0,0-1.08-.73,3.33,3.33,0,0,0-1.33-.27,3.25,3.25,0,0,0-1.32.27,3.38,3.38,0,0,0-1.82,1.82A3.25,3.25,0,0,0,540.25,165.06Zm4.9-.94a1.12,1.12,0,0,1-.06.35,1,1,0,0,1-.16.33,1.27,1.27,0,0,1-.25.27,1.1,1.1,0,0,1-.32.17l1.34,1.92h-.91l-1.31-1.87h-.43v1.87h-.79V163h1.62a1.29,1.29,0,0,1,.47.07,1.06,1.06,0,0,1,.35.18A1.12,1.12,0,0,1,545.15,164.12Zm-2.1.44h.78a.69.69,0,0,0,.28,0,.38.38,0,0,0,.15-.09.37.37,0,0,0,.07-.14.5.5,0,0,0,0-.16.48.48,0,0,0-.1-.29.58.58,0,0,0-.15-.11.69.69,0,0,0-.28,0h-.78Z"
        transform="translate(-71.41 -82.38)"
    />
</svg>
