<svg width="2000" height="374" viewBox="0 0 2000 374" fill="none" xmlns="http://www.w3.org/2000/svg">
<rect x="382" y="4.00098" width="1614" height="366" rx="28" fill="#212529"/>
<rect x="382" y="4.00098" width="1614" height="366" rx="28" stroke="#F8F9FA" stroke-width="8"/>
<path d="M547.022 228.073L525.903 250.921H480.783L456.783 217.129V156.073L480.783 122.281H525.903L547.407 145.129C548.431 159.209 546.575 166.249 541.839 166.249C537.103 166.249 533.839 161.257 532.047 151.273L518.607 136.681H488.271L472.143 162.025V211.369L488.271 236.521H518.607L531.471 221.929C532.239 212.201 535.055 207.337 539.919 207.337C544.655 207.337 547.022 214.249 547.022 228.073ZM585.001 250.921L562.345 217.129V156.649L586.153 122.281H631.849L654.505 156.073V217.129L631.849 250.921H585.001ZM624.361 236.137L639.145 211.369V162.025L624.361 137.065H592.489L577.705 162.025V211.369L592.489 236.137H624.361ZM750.468 124.201C755.588 124.201 758.147 145.001 758.147 186.601C758.147 228.201 755.588 249.001 750.468 249.001C745.348 249.001 742.788 235.241 742.788 207.721C742.788 180.457 739.268 180.457 732.228 207.721C725.06 235.241 718.98 249.001 713.988 249.001C708.996 249.001 702.916 235.369 695.748 208.105C688.708 181.097 685.188 181.097 685.188 208.105C685.188 235.369 682.628 249.001 677.508 249.001C672.388 249.001 669.828 228.201 669.828 186.601C669.828 145.001 672.388 124.201 677.508 124.201C682.628 124.201 689.988 141.545 699.588 176.233C709.188 210.921 718.788 210.921 728.388 176.233C737.988 141.545 745.348 124.201 750.468 124.201ZM835.102 124.201L853.726 133.801L864.67 152.041V177.001L853.726 195.241L835.102 204.841H807.07C796.19 204.841 790.75 212.201 790.75 226.921C790.75 241.641 788.19 249.001 783.07 249.001C777.95 249.001 775.39 228.201 775.39 186.601C775.39 145.001 783.39 124.201 799.39 124.201H835.102ZM834.91 190.057L849.31 176.041V152.617L835.102 138.985H807.07C796.19 138.985 790.75 147.497 790.75 164.521C790.75 181.545 796.19 190.057 807.07 190.057H834.91ZM901.689 250.921L879.033 217.129V156.649L902.841 122.281H948.537L971.193 156.073V217.129L948.537 250.921H901.689ZM941.049 236.137L955.833 211.369V162.025L941.049 137.065H909.177L894.393 162.025V211.369L909.177 236.137H941.049ZM994.963 208.489C999.571 208.489 1002.13 212.585 1002.64 220.777L1021.46 236.521H1045.08L1058.13 225.577V210.217L1051.03 202.345L1044.88 197.929C1041.68 196.649 1037.84 195.305 1033.36 193.897C1028.88 192.361 1024.21 190.697 1019.35 188.905L1003.99 181.609L992.083 167.401V147.049L1001.49 131.497L1019.35 122.281H1050.64L1071.38 143.977C1071.12 156.137 1068.76 162.217 1064.28 162.217C1059.54 162.217 1057.11 157.929 1056.98 149.353L1042.39 136.873H1020.69L1007.44 146.473V161.833L1014.16 169.897L1023.76 174.505C1026.58 175.529 1029.08 176.425 1031.25 177.193C1033.56 177.961 1035.16 178.473 1036.05 178.729C1037.97 179.625 1039.76 180.329 1041.43 180.841C1042.32 181.225 1043.92 181.929 1046.23 182.953C1048.53 183.849 1051.6 185.001 1055.44 186.409L1064.66 193.513L1073.49 206.185V231.913L1053.14 250.921H1018.96L997.267 237.481L987.667 219.241C987.667 215.913 987.603 213.545 987.475 212.137C987.475 210.601 987.923 209.641 988.819 209.257C989.843 208.745 991.891 208.489 994.963 208.489ZM1186.16 131.305C1186.16 136.169 1179.12 138.601 1165.04 138.601C1150.96 138.601 1143.92 156.969 1143.92 193.705C1143.92 230.569 1141.36 249.001 1136.24 249.001C1131.12 249.001 1128.56 230.569 1128.56 193.705C1128.56 156.969 1121.52 138.601 1107.44 138.601C1093.36 138.601 1086.32 136.169 1086.32 131.305C1086.32 126.569 1102.96 124.201 1136.24 124.201C1169.52 124.201 1186.16 126.569 1186.16 131.305ZM1280.58 249.001C1278.41 249.001 1276.36 247.913 1274.44 245.737C1272.65 243.561 1270.98 240.873 1269.45 237.673C1268.04 234.345 1266.82 231.081 1265.8 227.881C1264.78 224.553 1264.01 221.801 1263.5 219.625C1262.98 217.449 1262.73 216.361 1262.73 216.361H1241.61C1227.53 216.361 1218.89 221.801 1215.69 232.681C1212.49 243.561 1208.2 249.001 1202.82 249.001C1201.54 249.001 1200.9 247.209 1200.9 243.625C1201.03 240.041 1201.67 235.241 1202.82 229.225C1203.98 223.209 1205.51 216.489 1207.43 209.065C1209.48 201.513 1211.72 193.705 1214.15 185.641C1216.58 177.577 1219.08 169.833 1221.64 162.409C1224.33 154.857 1226.95 148.073 1229.51 142.057C1232.07 136.041 1234.38 131.241 1236.42 127.657C1238.6 124.073 1240.33 122.281 1241.61 122.281C1243.02 122.281 1244.74 124.073 1246.79 127.657C1248.84 131.241 1251.14 136.041 1253.7 142.057C1256.26 148.073 1258.89 154.857 1261.58 162.409C1264.26 169.833 1266.82 177.577 1269.26 185.641C1271.69 193.705 1273.86 201.513 1275.78 209.065C1277.83 216.489 1279.43 223.209 1280.58 229.225C1281.86 235.241 1282.5 240.041 1282.5 243.625C1282.63 247.209 1281.99 249.001 1280.58 249.001ZM1241.61 201.769C1252.87 201.769 1255.69 192.169 1250.06 172.969C1244.42 153.769 1238.79 153.769 1233.16 172.969C1227.66 192.169 1230.47 201.769 1241.61 201.769ZM1389.79 230.569L1368.48 248.041C1362.47 248.297 1357.92 248.553 1354.85 248.809C1351.91 248.937 1350.43 249.001 1350.43 249.001H1326.82C1311.07 249.001 1303.2 228.201 1303.2 186.601C1303.2 145.001 1310.11 124.201 1323.94 124.201H1364.07L1385.76 141.865V170.473L1372.13 183.913C1367.91 184.553 1365.92 185.193 1366.18 185.833C1366.43 186.473 1368.93 187.049 1373.67 187.561L1389.79 200.041V230.569ZM1331.62 139.177C1322.91 139.177 1318.56 145.897 1318.56 159.337C1318.56 172.905 1322.59 179.689 1330.66 179.689H1356L1370.59 168.745V148.393L1356.58 139.177H1331.62ZM1374.43 234.025V202.921L1356.77 194.665H1330.66C1322.59 194.665 1318.56 201.193 1318.56 214.249C1318.56 227.433 1323.23 234.025 1332.58 234.025H1374.43ZM1460.61 234.601C1484.93 234.601 1497.08 236.969 1497.08 241.705C1497.08 246.569 1484.73 249.001 1460.03 249.001H1415.87C1411.13 249.001 1408.77 228.201 1408.77 186.601C1408.77 145.001 1411.33 124.201 1416.45 124.201C1421.57 124.201 1424.12 142.569 1424.12 179.305C1424.12 216.169 1436.29 234.601 1460.61 234.601ZM1566.36 234.601C1590.68 234.601 1602.84 236.969 1602.84 241.705C1602.84 246.569 1588.12 249.001 1558.68 249.001C1529.11 249.001 1514.33 228.201 1514.33 186.601C1514.33 145.001 1529.05 124.201 1558.49 124.201C1587.93 124.201 1602.65 126.569 1602.65 131.305C1602.65 136.169 1590.49 138.601 1566.17 138.601C1541.85 138.601 1529.69 145.449 1529.69 159.145C1529.69 172.841 1539.67 179.689 1559.64 179.689C1579.48 179.689 1589.4 182.057 1589.4 186.793C1589.4 191.657 1579.48 194.089 1559.64 194.089C1539.67 194.089 1529.69 200.809 1529.69 214.249C1529.69 227.817 1541.91 234.601 1566.36 234.601ZM1674.03 239.593C1674.03 245.865 1670.71 249.001 1664.05 249.001C1657.39 249.001 1654.07 245.865 1654.07 239.593C1654.07 233.321 1657.39 230.185 1664.05 230.185C1670.71 230.185 1674.03 233.321 1674.03 239.593ZM1808.4 249.001C1806.22 249.001 1804.17 247.913 1802.25 245.737C1800.46 243.561 1798.8 240.873 1797.26 237.673C1795.85 234.345 1794.64 231.08 1793.61 227.881C1792.59 224.553 1791.82 221.801 1791.31 219.625C1790.8 217.449 1790.54 216.361 1790.54 216.361H1769.42C1755.34 216.361 1746.7 221.801 1743.5 232.681C1740.3 243.561 1736.01 249.001 1730.64 249.001C1729.36 249.001 1728.72 247.209 1728.72 243.625C1728.84 240.041 1729.48 235.241 1730.64 229.225C1731.79 223.209 1733.32 216.489 1735.24 209.065C1737.29 201.513 1739.53 193.705 1741.96 185.641C1744.4 177.577 1746.89 169.833 1749.45 162.409C1752.14 154.857 1754.76 148.073 1757.32 142.057C1759.88 136.041 1762.19 131.241 1764.24 127.657C1766.41 124.073 1768.14 122.281 1769.42 122.281C1770.83 122.281 1772.56 124.073 1774.6 127.657C1776.65 131.241 1778.96 136.041 1781.52 142.057C1784.08 148.073 1786.7 154.857 1789.39 162.409C1792.08 169.833 1794.64 177.577 1797.07 185.641C1799.5 193.705 1801.68 201.513 1803.6 209.065C1805.64 216.489 1807.24 223.209 1808.4 229.225C1809.68 235.241 1810.32 240.041 1810.32 243.625C1810.44 247.209 1809.8 249.001 1808.4 249.001ZM1769.42 201.769C1780.68 201.769 1783.5 192.169 1777.87 172.969C1772.24 153.769 1766.6 153.769 1760.97 172.969C1755.47 192.169 1758.28 201.769 1769.42 201.769ZM1895.34 138.601C1887.02 138.601 1882.86 154.601 1882.86 186.601C1882.86 218.601 1887.02 234.601 1895.34 234.601C1903.66 234.601 1907.82 236.969 1907.82 241.705C1907.82 246.569 1903.66 249.001 1895.34 249.001H1855.02C1846.7 249.001 1842.54 246.569 1842.54 241.705C1842.54 236.969 1846.7 234.601 1855.02 234.601C1863.34 234.601 1867.5 218.601 1867.5 186.601C1867.5 154.601 1863.34 138.601 1855.02 138.601C1846.7 138.601 1842.54 136.169 1842.54 131.305C1842.54 126.569 1853.42 124.201 1875.18 124.201C1896.94 124.201 1907.82 126.569 1907.82 131.305C1907.82 136.169 1903.66 138.601 1895.34 138.601Z" fill="#F8F9FA"/>
<rect x="4" y="4" width="343.922" height="366" rx="28" fill="#212529"/>
<rect x="4" y="4" width="343.922" height="366" rx="28" stroke="#F8F9FA" stroke-width="8"/>
<path fill-rule="evenodd" clip-rule="evenodd" d="M195.796 93.1358C217.108 95.0159 243.475 70.4794 258.267 85.9366C274.704 103.113 252.803 132.177 255.735 155.77C257.476 169.775 268.985 180.207 271.702 194.057C275.457 213.197 286.469 235.936 274.478 251.321C262.648 266.5 236.495 254.028 218.895 261.812C197.069 271.465 184.35 306.64 161.047 301.488C138.393 296.48 143.395 259.247 128.157 241.752C112.856 224.184 80.153 223.024 73.3096 200.754C66.6016 178.925 87.411 158.735 96.1654 137.643C105.293 115.652 104.076 83.963 125.816 74.2515C148.332 64.1931 171.231 90.9686 195.796 93.1358Z" fill="#F8F9FA"/>
<path fill-rule="evenodd" clip-rule="evenodd" d="M183.199 101.183C203.746 102.584 208.783 130.404 222.325 145.919C234.148 159.463 256.077 167.069 256.399 185.045C256.723 203.082 235.305 211.742 223.753 225.599C209.936 242.174 204.763 272.048 183.199 272.855C161.698 273.66 154.694 243.978 139.492 228.753C124.311 213.55 95.7969 206.527 95.5197 185.045C95.2423 163.557 122.819 155.048 138.349 140.194C153.234 125.957 162.649 99.782 183.199 101.183Z" fill="#212529"/>
<path fill-rule="evenodd" clip-rule="evenodd" d="M208.895 165.588C213.892 173.956 218.869 183.53 215.926 192.821C213.218 201.371 201.685 202.163 195.311 208.473C186.88 216.821 185.317 234.056 173.479 234.849C161.795 235.632 156.725 220.358 148.978 211.578C140.201 201.63 123.308 193.988 125.958 180.989C128.627 167.893 147.995 168.713 159.199 161.426C168.711 155.24 174.362 141.207 185.669 142.154C197.062 143.108 203.033 155.772 208.895 165.588Z" fill="#F8F9FA"/>
</svg>