<svg xmlns="http://www.w3.org/2000/svg" width="180" height="60" fill="none" viewBox="0 0 180 60"><mask id="a" width="30" height="30" x="0" y="15" mask-type="alpha" maskUnits="userSpaceOnUse"><path fill="#6a6d75" d="M20.618 44.104c.33-.15.69-.33 1.02-.54-.33.18-.66.36-1.02.54m-1.92-2.22c.15-.03.15-.06.15-.06zm1.92-1.29c0 .03 0 .03-.15.09zs-.03-.03.03-.06c-.45.33-.99.69-1.56.93l-.18.18c1.44-.63 2.73-1.59 3.54-2.58-.63.63-1.11 1.02-1.83 1.53m6.84-2.79c-.09.3-.15.57.12.03.06-.27.06-.36.03-.36s-.09.15-.15.33m-1.8-.72c.03-.03.03-.06.06-.09-.03.03-.06.06-.06.09m2.55-.991c-.24.9-.51 1.41-.63 1.74-.03.15-.09.33-.15.6l.09-.15c.42-.87.78-1.8 1.05-2.76.09-.39.18-.78.18-1.11-.15.57-.33 1.14-.54 1.68m-7.11 3.42c-.21.12-.42.24-.63.33a9.85 9.85 0 0 0 4.26-3.54 11.9 11.9 0 0 1-2.79 3.57c-.36.33-.75.63-.99.87-.15.18-.33.36-.48.54.57-.36 1.11-.75 1.53-1.17-.06.06-.03.06-.03.09.69-.57 1.11-1.08 1.71-1.8-.72 1.14-1.95 2.28-3.36 3.09-.06.06-.12.12-.15.18 1.44-.75 2.7-1.83 3.69-3.12.03-.06.09-.15.12-.21.72-1.29 1.2-2.67 1.47-4.08a10 10 0 0 1-4.35 5.25m6.36-7.65v-.48zm-1.32-2.431-.09-.81c0-.06-.03-.12-.03-.21.06.33.09.66.12 1.02m-.15-1.08c.03.06.03.12.06.18-.09-.69-.21-1.35-.39-1.98-.09-.24-.18-.48-.3-.72q.45 1.215.63 2.52m-.84-3c.18.33.3.69.45 1.02l-.27-.81a5 5 0 0 0-.39-.66c.09.15.15.3.21.45m-18.782-1.29q.045 0 0 0 .045 0 0 0m2.94-2.491c.03-.03.06-.03.09-.06-.03.03-.06.06-.09.06m15.212 3.99c-.69-1.29-1.62-2.43-2.73-3.33-.33-.27-.66-.51-1.02-.72 1.35.96 2.52 2.22 3.33 3.66 1.44 2.37 1.95 5.311 1.44 8.102-.06.3-.12.63-.21.93.12-.36.21-.75.3-1.14.18-1.44.18-2.88 0-4.261-.03-.39-.09-.78-.15-1.17-.12-.39-.24-.75-.36-1.14-.9-2.4-2.64-4.291-4.53-5.371-.06-.03-.15-.09-.21-.12a12.34 12.34 0 0 1 4.14 4.56m-9.811-5.82c.57 0 1.17.06 1.74.15 1.62.27 3.03.81 4.32 1.62-.93-.63-1.92-1.17-3-1.5-.75-.24-1.47-.3-2.16-.3-.3 0-.6.03-.9.03m5.67 1.29c-.66-.42-1.35-.75-2.07-1.02-.87-.3-1.71-.39-2.52-.42 1.74.12 3.42.78 4.59 1.44m-7.32-1.26c1.02-.12 1.86-.21 2.73-.18-.27-.03-.54-.03-.78-.03-.69 0-1.35.06-1.95.21m10.381-1.41c.51.39.96.78 1.41 1.2-.42-.39-.87-.78-1.32-1.14.09.09.18.15.27.24.69.57 1.32 1.23 1.95 2.01-.18-.15-.42-.42-.66-.66.15.21.33.42.48.63 1.14 1.29 2.1 2.76 2.82 4.32.54 1.29.69 1.56.75 1.35s-.06-.9-.27-1.44a16 16 0 0 0-.81-1.77c.21.48.36.96.54 1.44-.12-.33-.27-.69-.42-1.02-1.11-2.34-2.94-4.2-5.07-5.52.06.15.21.27.33.36m-13.142-1.68c-.24.09-.48.18-.69.3.54-.21 1.05-.36 1.53-.51-.27.06-.54.12-.84.21m6.841-.36q-.045 0 0 0-.045 0 0 0m-.15-.72h.09c1.65.09 3.3.54 4.8 1.26-1.77-.9-3.72-1.41-5.7-1.47.27.12.54.18.81.21m-1.14-.24h.18c-.15-.031-.3-.031-.42-.031.09 0 .18 0 .24.03M6.516 40.743l.18.06.18.06c.15.12.3.24.48.33-.18-.09-.69-.39-.84-.45m.42-1.53c.69.63 1.53 1.14 2.34 1.56h-.12c-.9-.45-1.68-1.02-2.22-1.56m20.163-4.231c0-.03.03-.06.03-.09 0 .03 0 .03-.03.09-.03.18-.12.39-.21.6.09-.18.15-.39.21-.6m-.06-.39v.15c-.24.93-.57 1.83-1.02 2.7.45-.9.78-1.86 1.02-2.85m.24-.03v.03zm.09-.3q0-.045 0 0 0-.045 0 0c-.18.81-.42 1.59-.75 2.37.21-.54.39-1.08.54-1.65v-.03c.03-.12.06-.21.09-.33.06-.12.09-.24.12-.36m.27-2.1c0-.12.03-.21.03-.33 0 .39-.03.81-.09 1.2-.03.15-.06.3-.09.42.06-.42.12-.84.15-1.29m1.5-.36.09-.45c-.03.54-.09 1.11-.18 1.65.06-.39.06-.78.09-1.2m-28.624-.51c0 .06 0 .12.03.21v.03c0-.09-.03-.18-.03-.24m28.624-.54c-.03-.51-.06-.99-.12-1.471-.03-.39-.09-.78-.15-1.17.03.15.09.3.12.48.06.24.09.51.15.78q.045.765 0 1.53zM4.835 28.441c.03-.27.09-.51.15-.78-.09.36-.15.72-.18 1.11.03-.12.03-.21.03-.33m23.734-1.92c.12.3.21.63.3.93.45 1.35.6 3.15.39 4.95.15-1.98-.06-3.99-.69-5.88m-.69-.06c0-.06-.03-.12-.06-.18l.15.42c.15.45.24.84.3 1.23a9 9 0 0 0-.39-1.47m-.81-.18c.03.06.06.12.06.09.45 1.02.78 2.16.96 3.09.06.3.09.63.09.96 0 .42 0 .84-.06 1.26-.03-1.83-.33-3.66-.99-5.31q.18.495.27.99c-.09-.36-.21-.72-.33-1.08m-.36-.66c.15.33.3.66.42 1.02-.12-.3-.27-.66-.42-1.02M.485 30.302c0-.81.06-1.59.21-2.16.24-.96.51-1.89.84-2.76-.21.57-.36 1.17-.48 1.74-.03.12-.06.24-.06.36-.24.99-.36 1.98-.39 2.97-.03-.06-.03-.09-.03-.12v.18c-.09-.06-.12-.12-.09-.21m25.113-5.01c-.09-.18-.15-.36-.24-.54s-.18-.33-.27-.48c.3.48.57.99.78 1.53.06.21.12.39.18.6-.12-.36-.3-.75-.45-1.11m-21.033-2.04s0 .03-.03.03zm18.363-.75-.18-.181q.135.09.18.18l.06.03zm-.48-.421a10.9 10.9 0 0 0-2.97-1.89c1.23.54 2.22 1.02 3.27 2.13-.12-.09-.24-.18-.3-.24m-16.652 1.32c.39-.48.63-.9.99-1.2 1.11-1.11 2.49-1.92 3.63-2.49-.12.09-.42.21-.57.3-.81.51-2.28 1.41-3.21 2.49-.3.36-.6.72-.84 1.11-1.26 1.77-2.01 3.84-2.16 6.121-.06.9.03 1.98.24 2.85.06.3.12.6.21.87v.06c-.09-.36-.18-.72-.24-1.08-.09-.3-.18-.6-.18-.72-.12-.6-.12-1.38-.06-2.13 0-.63.18-1.35.39-2.1.03-.15.03-.3 0-.33.39-.99.51-1.62 1.11-2.55l-.27.36c.27-.51.51-.93.96-1.56m13.411-3.33c-.27-.12-.66-.27-.96-.39.42.15.84.33 1.23.51zm1.2-.54-.03-.03c1.98 1.02 3.901 2.85 5.251 4.98.03.03.03.09.06.12-.51-.75-1.05-1.47-1.71-2.16.6.69 1.14 1.41 1.59 2.13-.27-.42-.57-.84-.9-1.2-.39-.45-.78-.87-1.2-1.29.66.69 1.23 1.44 1.77 2.25l.09.18q-.405-.675-.9-1.26c-1.11-1.35-2.49-2.58-4.02-3.48v-.03c1.14.66 2.16 1.44 3.09 2.31a18 18 0 0 0-2.43-2.1c.33.18.72.42 1.08.72.66.54 1.29 1.14 1.86 1.74-1.11-1.2-2.37-2.22-3.6-2.88m-8.94-2.61c-.45.09-.93.24-1.41.39-1.291.45-2.611 1.14-3.601 1.92-.09.06-.15.12-.21.18q-.765.585-1.44 1.26c0-.03.03-.03.03-.06.18-.24.45-.54.75-.84.12-.12.27-.24.42-.39.15-.12.3-.24.48-.36.12-.09.24-.18.39-.27l-.18.15c1.44-.96 3.09-1.62 4.77-1.98m-8.252 7.77c.69-2.25 2.25-4.47 4.47-5.97 2.221-1.5 5.072-2.22 7.802-1.89-.21-.03-.45-.03-.66-.03h-.33c-2.97.09-5.851 1.26-7.951 3.3-1.32 1.2-2.34 2.7-3 4.35.15-.42.33-.84.51-1.23.69-1.38 1.65-2.61 2.79-3.6a12.5 12.5 0 0 0-3.72 5.37c.03-.12.06-.21.09-.3M13.747 15.3c-2.76.24-5.401 1.5-7.501 3.24.18-.12.39-.27.6-.39.12-.09.21-.15.33-.24 2.46-1.68 5.64-2.46 8.701-2.13-.24-.03-.48-.03-.75-.03h-.39c-1.17.03-2.34.21-3.45.54.18-.03.36-.06.51-.06-.24.06-.45.12-.69.18 1.05-.24 2.13-.33 3.18-.33-1.41.06-2.79.3-4.11.75-.39.12-.78.24-1.141.33a11.8 11.8 0 0 0-3.18 2.25c-1.44 1.32-2.58 3.001-3.36 4.831.18-.45.36-.93.57-1.38.75-1.53 1.83-2.88 3.12-4.02-1.86 1.56-3.3 3.63-4.141 5.97.03-.09.06-.21.09-.3.72-2.31 2.25-4.65 4.47-6.3l-.45.27c-.03.03-.03.03-.06.03-1.53 1.23-2.88 2.52-3.75 4.32.21-.45.42-.9.66-1.32.84-1.47 2.01-2.76 3.36-3.81a13.9 13.9 0 0 0-4.5 5.67c.03-.09.09-.18.12-.27.39-1.05.93-2.16 1.65-3.18-2.28 2.79-3.66 6.48-3.63 10.381-.12 4.35 2.04 8.881 5.43 11.612l3.991 1.77h.03c.18.12.33.27.57.36.42.15.78.36 1.23.45.3.06.78.24 1.14.24.33 0 .69.15.99.15.3-.03 1.26 0 1.59-.03.15-.03.27-.06.36-.12.3-.03.451-.12.331-.18l-.03-.03c.06-.06.15-.15.24-.21.15-.12.21-.3.24-.48h.03-.03l.09-.27c.21-.36-.09-.39.03-.87.03-.15-.03-.54-.18-.66l-.03.06c-.15-.36-.66-.96-1.14-1.14-.63-.24-1.14-.48-1.86-.6v.06c-.21 0-.33-.18-.57-.18.03.06-.03.12 0 .18-.33.03-.69-.15-.99-.24-.27-.09-1.29-.75-1.62-.69.06.18 1.14.6 1.23.81h-.45c0 .09-.06.15-.15.21-.15-.09-.27-.15-.42-.24-.24-.15-.21-.24-.57-.45-.991-.57-1.861-1.29-2.641-2.13a10.38 10.38 0 0 1-2.82-6.482c0 .03 0 .03-.03.03-.03-.57-.03-1.17.03-1.77.06-.57.06-1.05.21-1.62.18-.75.45-1.47.81-2.13-.72 1.68-1.02 3.51-.87 5.28.21 2.4 1.26 4.59 2.7 6.091l.18.18a11.24 11.24 0 0 1-2.43-4.71c.03.06.03.15.06.21.3 1.08.78 2.1 1.41 3.03.24.33.48.63.72.93-.54-.69-.99-1.44-1.35-2.22.57 1.02 1.32 1.92 2.16 2.7.06.06.45.24.51.3-1.53-1.56-2.64-3.42-3.12-5.4.39 1.38 1.05 2.7 1.98 3.87.27.33.57.66.87.99-1.17-1.29-2.04-2.79-2.52-4.38q-.315-.99-.45-1.98c-.03-.84.03-1.681.18-2.491.42-2.4 1.74-4.59 3.66-6.151.21-.15.39-.3.6-.45a9.87 9.87 0 0 0-3.9 4.47c.15-.42.33-.81.54-1.23.15-.24.27-.51.45-.75-.72.99-1.32 2.13-1.71 3.3.18-.81.45-1.62.81-2.37 1.47-2.43 3.87-4.26 6.63-4.95-.06.03-.15.06-.24.09 1.08-.21 1.95-.36 2.82-.42h-.09c-.87 0-1.71.12-2.52.33.3-.12.6-.21.93-.3l-.72.09c1.11-.45 2.85-.63 4.501-.3 1.68.3 3.24 1.08 4.29 1.77 1.741 1.08 3.271 2.91 4.171 5.13-.12-.54-.27-1.08-.45-1.59q-.36-.585-.81-1.17c-.03-.06-.06-.09-.09-.15v.03c-.3-.36-.6-.72-.93-1.02.39.18 1.08 1.02 1.56 1.83-.03-.12.06.03.15.15-.15-.33-.3-.63-.48-.96.24.39.48.75.66 1.17.03.03.03.06.06.09.12.18.24.36.33.54-.33-.87-.75-1.71-1.23-2.49.06.06.12.15.15.21.96 1.32 1.83 3.06 2.22 5.01-.03-.15-.06-.27-.09-.42.03.12.06.21.09.33.03.21.06.45.09.66.09.631.12 1.261.09 1.921-.06 2.52-1.05 5.22-2.43 7.501.63-.9 1.14-1.86 1.5-2.88-.06.24-.15.48-.21.72-.42.99-1.02 1.98-1.74 2.85-.09.15-.21.3-.3.45.06-.09.15-.21.21-.3-1.02 1.2-2.25 2.22-3.6 2.91-.03.12-.03.18.12.21 1.62-.78 3-1.98 4.11-3.45-.12.24-.27.45-.42.66.27-.39.54-.78.78-1.2.72-1.02 1.26-2.16 1.68-3.36l.03-.09.09-.36c.12-.39.24-.81.33-1.2 0 .06 0 .15-.03.21l.18-.78c.03-.09-.09 1.05-.39 2.13-.27 1.08-.75 2.07-.69 2.07-.03.06-.06.12-.09.21 1.14-2.07 1.68-4.47 1.59-6.75.06.09.15.3.21.51 0 .33 0 .66-.03.99-.03.84-.12 1.68-.3 2.52 0-.03 0-.06-.03-.06.15-.75.27-1.53.3-2.34a13.6 13.6 0 0 1-1.92 5.85c-.96 1.68-2.25 3.03-3.81 4.14-.51.3-.99.54-1.59.81 0 .03 0 .03-.18.06.06-.03.12-.03.18-.06 0-.03-.03-.03.06-.06-.57.24-1.23.51-1.92.66-.09.06-.15.091-.24.151.99-.21 1.92-.54 2.76-.96-.06.03-.09.06-.12.09-.45.3-1.05.66-1.35.87-.21.18-.33.18-.54.33.69-.24 1.38-.57 1.92-.93-.06.06-.06.06-.03.09.9-.48 1.47-.93 2.28-1.62-1.02 1.11-2.64 2.04-4.38 2.64-.09.06-.18.06-.24.09 3.69-1.05 6.93-3.87 8.34-7.411-.24.6-.51 1.17-.81 1.74-1.5 2.7-4.53 5.011-7.68 5.941-.03.06 0 .06.06.06h.18c3.54-.9 6.42-3.27 8.22-6.45l.03-.09c.66-1.441 1.53-3.841 1.53-5.822v-.09c.03-.39.06-.78.06-1.17.03 1.11-.09 2.22-.21 3.21-.03.39-.27 1.14-.45 1.71-.06.24-.15.51-.21.781l.36-.81c.03-.09-.33 1.11-.9 2.25-.54 1.14-1.32 2.16-1.2 2.13 0 0 .69-.84 1.38-2.16.69-1.29 1.29-3.09 1.53-4.62.12-.39.24-.03.27.39-.57 2.46-1.71 4.8-3.3 6.69-.09.3-.84 1.02-1.17 1.44 1.26-1.08 2.16-2.19 2.94-3.63-.54.96-1.17 1.89-1.89 2.7 1.62-1.83 2.91-4.26 3.42-6.9 0 .12 0 .27-.03.36 0 .03 0 .09-.03.15.12-.45.21-.93.3-1.38-.09.84-.27 1.68-.48 2.49v.06c.36-1.02.6-2.1.72-3.18a17 17 0 0 1-1.32 5.37c.57-1.11 1.02-2.46 1.26-3.63.781-4.08-.12-8.071-2.1-11.192-.09-.18-.21-.36-.33-.54l.03.03c.21.36.45.72.69 1.11-.54-.99-1.14-1.89-1.86-2.73.93 1.32 1.65 2.85 2.16 4.41-.12-.33-.27-.66-.42-.99-.72-1.53-1.74-2.85-2.97-3.96.75.87 1.38 1.86 1.89 2.88.24.36.45.75.66 1.11l.36.81c-.21-.48-.48-.93-.75-1.38.42.69.75 1.44 1.02 2.16.15.42.24.81.36 1.23.06.21.12.45.21.66-.03-.18-.06-.39-.09-.6.09.3.18.6.24.87v-.06l.03.18-.03-.09c.09.57.12 1.141.15 1.831l.03.18h-.09c-.24-1.56-.54-3.42-1.29-5.01.06.18.15.39.18.57-.12-.33-.27-.63-.39-.96-.09-.18-.18-.33-.24-.51-.33-.6-.72-1.17-1.14-1.711.06.06.09.09.12.15-1.5-2.01-3.57-3.51-5.82-4.47-1.77-.81-3.541-1.44-5.491-1.41.48-.03.96-.06 1.47-.03 1.65.09 3.33.54 4.86 1.26a13.75 13.75 0 0 0-6.54-1.47c-.12.03-.27.03-.42.06-1.5.06-3 .36-4.41.87.09-.03.18-.09.27-.12 1.5-.57 3.21-.96 4.83-1.05q.225.135 0 .18c.75-.06 1.56-.09 2.37-.03-.63-.12-1.29-.18-1.95-.18h.12c-.6 0-1.2.03-1.83.09-.72.06-1.41.18-2.1.36 1.11-.3 2.22-.51 3.36-.57.51 0 .99.03 1.5.09h.42c.09 0 .21 0 .3.03-.18-.03-.36-.06-.51-.09.33.03.66.06.99.12h.06-.03.06c1.38.18 2.73.57 3.99 1.2a14.1 14.1 0 0 0-4.77-1.41c.63.09 1.26.21 1.89.39-.87-.21-1.71-.33-2.58-.36-.27-.03-.51-.06-.78-.09-.27 0-.51 0-.78.03.09 0 .21-.03.3-.03.06 0 .12 0 .18-.03h-.15.27c1.38-.12 2.91-.09 4.41.27-1.14-.39-2.34-.63-3.6-.63.45-.03.9-.03 1.35-.03-.36-.091-.72-.151-1.11-.181-.3 0-.63 0-.96.03.09-.03.21-.03.3-.03.12 0 .21-.03.33-.03-.51-.06-1.02-.09-1.5-.09-.12.24-.18.24-.27.24m-.57-.18c.99-.03 1.95.06 2.91.21.75-.06 1.56-.03 2.37.06-.6-.15-1.2-.27-1.8-.33-.48-.03-.99-.06-1.47-.06-.69 0-1.35.03-2.01.12"/></mask><g mask="url(#a)"><path fill="url(#b)" d="m.575 10.2 33.965 5.37-5.371 33.935-33.965-5.371z"/></g><path fill="#6a6d75" d="M104.239 20.82h7.682c2.97 0 6.03 1.351 6.03 4.951 0 2.22-1.38 3.691-3.42 4.321v.06c2.49.27 4.261 2.22 4.261 4.77 0 4.291-3.721 5.612-7.472 5.612h-7.111zm3.511 8.012h3.21c2.341 0 3.511-.99 3.511-2.49 0-1.71-1.17-2.55-3.811-2.55h-2.91zm0 8.701h3.24c1.801 0 4.321-.3 4.321-2.91 0-2.07-1.35-2.79-4.171-2.79h-3.39zM130.523 20.31c6.151-.12 10.502 4.021 10.502 10.322 0 6.151-4.351 10.262-10.502 10.381-6.061 0-10.411-4.11-10.411-10.26 0-6.302 4.32-10.442 10.411-10.442m.03 17.553c4.081 0 6.781-3.12 6.781-7.32 0-3.931-2.7-7.052-6.781-7.052-4.051 0-6.781 3.12-6.781 7.051 0 4.2 2.7 7.321 6.781 7.321M143.245 20.82h7.771c5.191 0 10.021 3.181 10.021 9.842 0 6.751-5.7 9.842-10.441 9.842h-7.351zm6.121 16.533c4.41 0 7.981-1.89 7.981-6.69 0-4.802-3.121-6.692-7.411-6.692h-3.181v13.382zM167.518 32.102l-7.411-11.281h4.411l4.83 7.86 4.921-7.86h4.171l-7.411 11.281v8.432h-3.511zM35.26 20.82h3.48l6.691 15.453h.06l6.721-15.452h3.39v19.713h-2.34V24h-.03l-7.08 16.533h-1.41L37.66 24h-.06v16.533h-2.34zM61.183 20.82h-2.34v19.714h2.34zM64.424 20.82h2.94l11.432 16.383h.03V20.821h2.34v19.713h-2.94L66.794 24.15h-.03v16.383h-2.34zM84.617 20.82h7.56c3.871 0 9.662 2.581 9.662 9.842s-5.79 9.842-9.661 9.842h-7.561zm2.31 17.553h4.47c4.501 0 7.952-2.28 7.952-7.68 0-5.402-3.42-7.682-7.951-7.682h-4.471zM174.419 37.983q.225-.54.63-.9c.27-.27.57-.45.93-.6s.721-.21 1.111-.21.78.06 1.11.21c.36.15.66.36.93.6q.405.405.63.9c.15.36.24.72.24 1.14s-.09.81-.24 1.14c-.15.36-.36.66-.63.93s-.57.45-.93.6-.72.21-1.11.21-.781-.06-1.111-.21c-.36-.15-.66-.36-.93-.6-.27-.27-.48-.57-.63-.93s-.24-.75-.24-1.14c0-.42.09-.78.24-1.14m.48 2.13c.12.3.3.57.51.78s.48.39.75.51c.301.12.601.18.931.18s.63-.06.93-.18.54-.3.75-.51.39-.48.51-.78q.18-.45.18-.99c0-.33-.06-.66-.18-.96s-.3-.57-.51-.78-.45-.39-.75-.51-.6-.18-.93-.18-.66.06-.931.18c-.3.12-.54.3-.75.51s-.39.48-.51.78-.18.63-.18.96c0 .36.06.66.18.99m2.371-2.67c.39 0 .69.09.9.24.18.15.3.39.3.72 0 .3-.09.54-.24.66-.18.15-.39.21-.63.24l.96 1.5h-.6l-.9-1.44h-.57v1.44h-.511v-3.36zm-.24 1.5h.33a.6.6 0 0 0 .27-.06c.09-.03.15-.09.21-.18.06-.06.06-.18.06-.3a.6.6 0 0 0-.06-.27.3.3 0 0 0-.18-.15.6.6 0 0 0-.24-.06c-.09 0-.18-.03-.27-.03h-.69v1.08z"/><defs><linearGradient id="b" x1=".173" x2="29.418" y1="27.524" y2="32.156" gradientUnits="userSpaceOnUse"><stop stop-color="#b52972"/><stop offset=".314" stop-color="#cf3c4c"/><stop offset=".682" stop-color="#e45b25"/><stop offset=".855" stop-color="#ed7222"/><stop offset="1" stop-color="#f68820"/></linearGradient></defs></svg>