<svg xmlns="http://www.w3.org/2000/svg" width="230" height="53" viewBox="-2.4 -2.4 369.7 87">
<g stroke-width="4.6"  stroke-linecap="round">
<path d="m1,80h19" stroke="#a6dff9"/>
<path d="m31,80h19" stroke="#93daf8"/>
<path d="m61,80h19" stroke="#7ed4f7"/>
<path d="m91,80h19" stroke="#6bcff6"/>
<path d="m121,80h19" stroke="#52cbf5"/>
<path d="m151,80h19" stroke="#39c6f4"/>
<path d="m181,80h19" stroke="#20c2f3"/>
<path d="m211,80h19" stroke="#04bef2"/>
<path d="m241,80h19" stroke="#00baf2"/>
<path d="m271,80h19" stroke="#00b6f1"/>
<path d="m301,80h19" stroke="#00b3f0"/>
<path d="m331,80h19" stroke="#00afef"/>
</g>
<path d="M165.2 0v24.5a20 20 0 0 0-17-9c-6.2 0-11.4 2.2-15.8 6.6A22 22 0 0 0 126 38c0 6.4 2.2 11.7 6.5 16.1 4.2 4.5 9.5 6.7 15.5 6.7 3.5 0 6.7-.8 9.6-2.1 2.8-1.5 5.4-3.6 7.7-6.4v7.4h5.5V0Zm-145 15c-3 0-6 .8-8.8 2.5a21 21 0 0 0-5.9 6.1v-7.5H0v43.6h5.5V41.2c0-5.5.6-9.5 1.6-12.2a14 14 0 0 1 4.9-6.3c2.2-1.5 4.6-2.3 7.1-2.3 2.2 0 4.1.6 5.8 1.7a9.2 9.2 0 0 1 3.4 4.5c.6 2 .9 5.5.9 10.8v22.3h5.5v-17c0-6.3.5-10.8 1.5-13.5 1-2.6 2.7-4.8 4.9-6.4 2.2-1.6 4.6-2.4 7.3-2.4 2.2 0 4 .5 5.6 1.6 1.6 1 2.7 2.5 3.4 4.2.7 1.8 1 5 1 9.7v23.8H64V36c0-5.4-.5-9.6-1.6-12.3a13.5 13.5 0 0 0-13-8.7c-3.1 0-6 1-8.8 2.7-2.7 1.8-5 4.4-6.9 7.8-.8-2.5-1.9-4.5-3-5.9a12 12 0 0 0-4.6-3.3c-1.9-.9-3.8-1.3-6-1.3zm75.3 0c-6.5 0-11.9 2.4-16 7.3A23 23 0 0 0 73.5 38c0 6 2 11.4 6.2 16 4 4.5 9.3 6.8 15.7 6.8a20 20 0 0 0 15.7-6.9 23 23 0 0 0 6.1-15.9c0-6-1.9-11.3-5.8-15.8a20.5 20.5 0 0 0-16-7.3zM203 15c-7 0-12.6 2.7-16.9 8.2-3.3 4.3-4.9 9.2-4.9 14.8 0 5.9 2 11.1 5.9 15.8a20 20 0 0 0 16.2 7 21.5 21.5 0 0 0 15-5.8c2-1.8 3.8-4.3 5.2-7.3l-4.5-2.5c-1.7 2.9-3.2 5-4.7 6.2a17.6 17.6 0 0 1-11.5 4.2c-4.4 0-8.2-1.6-11.2-4.8-3.1-3.3-4.7-7.4-4.8-12.5h38.2c0-6-1.6-11-4.7-15A20.8 20.8 0 0 0 203 15zm46.8 0c-2.1 0-4.1.6-6 1.8a20 20 0 0 0-5.6 5.7V16h-5.8v43.6h5.8V45c0-7.6.4-12.7 1.1-15.1 1-3.3 2.3-5.7 4-7.2a8.2 8.2 0 0 1 5.6-2.3c.7 0 1.7.2 3 .8l3-4.8c-1.9-1-3.5-1.5-5.1-1.5zm33 0c-3.2 0-6.1.7-8.8 2.2a23 23 0 0 0-7.3 6.7V16h-5.5v43.6h5.5v-16c0-5.7.3-9.7.8-11.9.8-3.3 2.6-6 5.2-8.3 2.7-2.3 5.7-3.4 9-3.4 3 0 5.3.8 7 2.2a11 11 0 0 1 3.7 6.5c.5 1.7.7 5 .7 10.1v20.8h5.5V37.3c0-6-.6-10.4-1.8-13.2-1.2-2.8-3-5-5.5-6.7a15 15 0 0 0-8.5-2.5zm47 0c-5.9 0-11 2.2-15.2 6.6a22.6 22.6 0 0 0-6.4 16.1 23 23 0 0 0 6.3 16.3 20.6 20.6 0 0 0 32-1.9v7.6h5.4V16h-5.3v8a21 21 0 0 0-7.4-6.9A19 19 0 0 0 330 15zm-126.8 5.3c2.6 0 5 .6 7.2 1.7 2.4 1 4.2 2.5 5.6 4.3 1.3 1.8 2.4 4.1 3.2 7.1h-31.7c1.2-4 2.8-7 5-9 3-2.7 6.6-4 10.7-4zm127.3 0c4.7 0 8.6 1.7 11.9 5.1 3.1 3.4 4.7 7.6 4.7 12.7 0 3.3-.7 6.3-2 8.9a16.7 16.7 0 0 1-14.5 8.6c-3 0-5.8-.8-8.4-2.3a18.5 18.5 0 0 1-6.1-24.1 16.2 16.2 0 0 1 14.4-8.8zm-235 .2c4.5 0 8.4 1.7 11.6 5.1a18.6 18.6 0 0 1 2.7 21.3 15.8 15.8 0 0 1-14.2 8.6 15.8 15.8 0 0 1-14.2-8.6 18.6 18.6 0 0 1-2.2-8.8c0-4.9 1.6-9 4.8-12.5 3.2-3.4 7-5.1 11.6-5.1zm53.2.3a17 17 0 0 1 17 17.5 18 18 0 0 1-2.2 8.9 17.7 17.7 0 0 1-14.9 8.5 17 17 0 0 1-14.7-8.8 17.8 17.8 0 0 1 0-17.4 16.7 16.7 0 0 1 14.8-8.7zM360 19.5h.8c.4 0 .7 0 .8-.2.2 0 .3-.2.3-.4l-.2-.3c0-.2 0-.2-.2-.3H360zm-.6 2.3v-4h2.4c.3.1.5.3.6.5l.2.5c0 .4-.2.6-.3.8a2 2 0 0 1-1 .4l.4.2.6.8.5.8h-.8l-.3-.7-.7-1h-.9v1.7zm1.6-5.3c-.5 0-1 .1-1.5.5-.5.2-.9.6-1.1 1.1a3 3 0 0 0 0 3.2c.2.5.6.9 1.1 1.1.5.4 1 .5 1.5.5.6 0 1.1-.1 1.6-.5.5-.2 1-.6 1.2-1.1.2-.5.4-1 .4-1.6 0-.5-.2-1-.4-1.6a3 3 0 0 0-1.2-1.1c-.5-.4-1-.5-1.6-.5zm0-.5c.7 0 1.3.1 1.9.4.6.3 1 .8 1.4 1.4.4.6.5 1.2.5 2 0 .6-.1 1.2-.5 1.8-.3.6-.8 1-1.4 1.4a4 4 0 0 1-1.9.5c-.6 0-1.2-.2-1.8-.5-.6-.3-1-.8-1.4-1.4-.3-.6-.5-1.2-.5-1.9s.2-1.3.5-1.9c.4-.6.8-1 1.4-1.4.6-.3 1.3-.4 1.8-.4z" fill="#e51937"/>
</svg>