<svg width="350" height="88" viewBox="0 0 350 88" fill="none" xmlns="http://www.w3.org/2000/svg">
<path d="M125.169 24.3252H139.659C142.117 24.3252 144.24 24.6806 145.991 25.3559C147.741 26.0312 149.194 26.9553 150.312 28.0571C151.429 29.1589 152.286 30.474 152.807 31.9667C153.329 33.4595 153.627 34.9878 153.627 36.5872C153.627 38.6486 153.254 40.4257 152.509 41.954C151.764 43.4823 150.796 44.7618 149.529 45.7925C148.263 46.8232 146.847 47.6052 145.209 48.1383C143.57 48.6714 141.856 48.9202 140.068 48.9202H133.922V62.284H125.169V24.3252ZM139.174 41.954C140.85 41.954 142.154 41.4564 143.123 40.4968C144.091 39.5371 144.575 38.2576 144.575 36.7293C144.575 35.1299 144.091 33.8504 143.085 32.8197C142.08 31.789 140.776 31.327 139.1 31.327H133.922V41.954H139.174Z" fill="black"/>
<path d="M187.485 63.2437C184.543 63.2437 181.824 62.7461 179.291 61.7154C176.758 60.6847 174.597 59.2985 172.735 57.5214C170.873 55.7444 169.42 53.6118 168.377 51.195C167.334 48.7782 166.812 46.1125 166.812 43.3047C166.812 40.4614 167.334 37.8313 168.377 35.4144C169.42 32.9976 170.873 30.9006 172.735 29.088C174.597 27.3109 176.758 25.8892 179.291 24.894C181.824 23.8633 184.543 23.3657 187.485 23.3657C190.428 23.3657 193.147 23.8633 195.68 24.894C198.213 25.9247 200.373 27.3109 202.236 29.088C204.098 30.8651 205.551 32.962 206.594 35.4144C207.637 37.8313 208.158 40.4614 208.158 43.3047C208.158 46.1125 207.637 48.7426 206.594 51.195C205.551 53.6474 204.098 55.7444 202.236 57.5214C200.373 59.2985 198.213 60.7202 195.68 61.7154C193.147 62.7106 190.428 63.2437 187.485 63.2437ZM187.485 55.1401C189.236 55.1401 190.8 54.8203 192.179 54.1805C193.557 53.5408 194.749 52.6522 195.717 51.5504C196.686 50.4486 197.431 49.1691 197.952 47.7474C198.474 46.2902 198.734 44.7619 198.734 43.127C198.734 41.4921 198.474 39.9638 197.952 38.5066C197.431 37.0493 196.686 35.8054 195.717 34.7391C194.749 33.6729 193.557 32.8199 192.179 32.1801C190.8 31.5403 189.236 31.256 187.485 31.256C185.735 31.256 184.17 31.5759 182.755 32.1801C181.339 32.8199 180.147 33.6729 179.179 34.7391C178.21 35.8054 177.466 37.0849 176.944 38.5066C176.423 39.9638 176.162 41.4921 176.162 43.127C176.162 44.7619 176.423 46.2902 176.944 47.7474C177.466 49.2047 178.21 50.4486 179.179 51.5504C180.147 52.6522 181.339 53.5052 182.755 54.1805C184.17 54.8203 185.735 55.1401 187.485 55.1401Z" fill="black"/>
<path d="M223.579 24.3252H238.367C240.676 24.3252 242.687 24.6451 244.438 25.2493C246.189 25.889 247.641 26.7421 248.833 27.8083C250.025 28.8746 250.882 30.1541 251.441 31.5758C251.999 33.033 252.297 34.5613 252.297 36.1962C252.297 38.6486 251.739 40.8167 250.584 42.6649C249.467 44.513 247.865 45.9703 245.779 47.0721L254.607 62.2485H244.699L237.324 48.316H232.332V62.2485H223.579V24.3252V24.3252ZM237.882 41.4564C239.559 41.4564 240.862 40.9944 241.831 40.0348C242.799 39.0751 243.246 37.9022 243.246 36.445C243.246 34.8812 242.762 33.6727 241.831 32.7486C240.862 31.8246 239.559 31.3981 237.882 31.3981H232.332V41.4564H237.882Z" fill="black"/>
<path d="M278.521 31.8956H265.633V24.3252H300.385V31.8956H287.572V62.2485H278.521V31.8956Z" fill="black"/>
<path d="M325.529 42.7716L312.417 24.3608H323.443L330.892 35.521L338.044 24.3608H347.989L335.697 42.2029L350.001 62.2841H338.901L330.334 49.5601L321.99 62.2841H312.082L325.529 42.7716Z" fill="black"/>
<path d="M74.0722 44.3953L99.3762 1.81735C99.5939 1.42792 99.5939 0.986562 99.3762 0.59713C99.1313 0.233659 98.7232 0 98.2607 0H80.303C79.8405 0 79.4051 0.233659 79.1874 0.623092L54.0467 43.7982C53.8291 44.1876 53.8291 44.629 54.0739 45.0184L79.8405 87.0252C80.0581 87.3886 80.4935 87.6223 80.956 87.6223H98.2607C98.7232 87.6223 99.1313 87.3886 99.3762 86.9992C99.5939 86.6098 99.5939 86.1425 99.3762 85.779L74.0722 44.3953Z" fill="#4FC7E7"/>
<path d="M20.3624 0.623092C20.1447 0.233659 19.7094 0 19.2468 0H1.28916C0.82661 0 0.418482 0.233659 0.173604 0.59713C-0.0440641 0.9606 -0.0440641 1.42792 0.173604 1.81735L25.4776 44.3953L0.173604 85.8049C-0.0440641 86.1944 -0.0712727 86.6617 0.173604 87.0252C0.391273 87.4146 0.82661 87.6482 1.28916 87.6482H18.5938C19.0564 87.6482 19.4645 87.4146 19.7094 87.0511L45.4759 45.0443C45.6935 44.6809 45.7208 44.2136 45.5031 43.8241L20.3624 0.623092Z" fill="#4FC7E7"/>
</svg>
