<svg width="180" height="60" viewBox="0 0 180 60" fill="none" xmlns="http://www.w3.org/2000/svg">
<path d="M51.8151 31.1199C51.8151 31.1199 47.4438 23.3258 44.9076 20.2947C42.3714 17.2843 36.4949 8.21179 39.4641 3.71678C42.3096 -0.0153219 50.3924 0.397064 51.712 19.4081H53.2997V0.211491H51.6295L49.98 3.98483C49.98 3.98483 45.3406 -2.98451 38.9899 1.51051C32.6391 5.9849 35.1547 19.4081 35.1547 19.4081C35.1547 19.4081 36.1444 24.6866 41.1755 32.6251C46.2273 40.5635 54.9492 51.9042 48.3304 57.4095C41.8353 61.4715 35.8764 50.6464 35.6908 38.0067H34V59.5952H35.5464L37.6496 55.3888C37.6496 55.3888 42.7632 62.6674 49.7738 58.9353C56.7844 55.1826 57.9803 41.2233 51.8151 31.1199Z" fill="#064C70"/>
<path d="M142.581 31.1199C142.581 31.1199 138.21 23.3258 135.674 20.2947C133.138 17.2843 127.261 8.19117 130.23 3.71678C133.076 -0.0153219 141.179 0.397064 142.478 19.4081H144.066V0.211491H142.396L140.746 3.98483C140.746 3.98483 136.107 -2.98451 129.756 1.51051C123.405 6.00552 125.921 19.4287 125.921 19.4287C125.921 19.4287 126.911 24.7073 131.942 32.6457C133.447 35.0169 135.282 37.6768 136.932 40.3986H126.539C126.478 39.615 126.436 38.8109 126.436 38.0273H124.746V40.3986H117.323V8.70666C116.58 1.61361 121.611 2.72705 121.611 2.72705V0.871309H109.57V2.72705C115.034 2.72705 114.807 8.70666 114.807 8.70666V36.0273L100.807 0.871309H89.2803V2.78891H93.198V40.3779H89.0947H83.3832L76.4345 0.871309H69.5682C69.5682 0.871309 61.2999 44.1307 60.0421 51.0794C58.7843 58.0281 55.4646 57.2858 55.4646 57.2858V59.2034H67.362V57.3477C61.5267 57.492 63.1556 50.9144 63.1556 50.9144L64.5577 42.6461H75.1148L77.3211 57.1827H73.1766V59.1828H102.044V57.2652C95.095 57.2652 95.5898 50.1103 95.5898 50.1103V42.5636H108.704L115.426 58.8116H117.343V42.5636H124.766V59.5539H126.313L128.416 55.3476C128.416 55.3476 133.529 62.6262 140.54 58.8941C147.571 55.1826 148.746 41.2233 142.581 31.1199ZM64.8464 40.3779L69.8569 11.5109L74.5787 40.3779H64.8464ZM89.5071 57.1827H86.4555L83.61 42.5842H89.0947H93.1361V51.3887C93.1361 51.3887 93.5691 56.6466 89.5071 57.1827ZM95.6104 40.3779V10.8511L107.817 40.3779H95.6104ZM139.117 57.4095C133.426 60.9767 128.148 53.1001 126.787 42.5842H138.231C141.406 48.2958 143.22 53.9867 139.117 57.4095Z" fill="#064C70"/>
</svg>
