<?xml version="1.0" encoding="UTF-8"?>
<svg id="Layer_1" xmlns="http://www.w3.org/2000/svg" version="1.1" viewBox="0 0 75 14.91">
  <!-- Generator: Adobe Illustrator 30.2.1, SVG Export Plug-In . SVG Version: 2.1.1 Build 1)  -->
  <defs>
    <style>
      .st0 {
        fill: #1e394b;
      }

      .st1 {
        fill: #61cae6;
      }
    </style>
  </defs>
  <g>
    <path class="st1" d="M9.68,6.98s.06-.03.09-.04l.17-.06L7.55.07l-.03-.07h-.08c-.36,0-.72.03-1.07.09l-.14.02,3.34,6.92.09-.05h0Z"/>
    <path class="st1" d="M9.23,7.32s.08-.08.12-.12l.08-.07L3.94.97l-.06-.06-.07.04c-.34.19-.66.41-.97.65l-.1.08,6.42,5.72.07-.08h0Z"/>
    <path class="st1" d="M8.95,7.8c.02-.05.04-.1.06-.15l.05-.1L1.03,3.67l-.05.09c-.2.35-.37.71-.51,1.09l-.04.1,8.48,2.96s.03-.1.03-.1Z"/>
    <path class="st1" d="M8.87,8.36s0-.04,0-.06h0v-.03s0-.02,0-.03c0-.02,0-.03,0-.05v-.1L0,7.57v.12c.01.39.06.79.13,1.18l.02.09,8.72-.5v-.1h0Z"/>
    <path class="st1" d="M9.01,8.9c-.02-.05-.05-.1-.06-.15l-.03-.1-7.81,2.72.07.11c.2.32.43.62.69.91l.05.06,7.14-3.45s-.05-.09-.05-.09Z"/>
    <path class="st1" d="M9.35,9.35s-.08-.08-.12-.12l-.07-.08h0l-5.39,4.8.13.07c.31.16.63.3.95.42l.07.03,4.5-5.05s-.08-.07-.08-.07Z"/>
    <path class="st1" d="M9.83,9.63c-.05-.02-.1-.04-.15-.06l-.1-.05h0l-2.6,5.38h.17c.05,0,.1,0,.14,0,.05,0,.1,0,.15,0,.2,0,.4-.01.6-.03h.07s1.82-5.22,1.82-5.22l-.1-.03h0Z"/>
  </g>
  <g>
    <path class="st0" d="M10.39,9.71s-.04,0-.06,0c-.02,0-.04,0-.06,0-.02,0-.03,0-.05,0h-.1l-.28,4.81.15-.05c.24-.09.47-.18.7-.29l.06-.03-.26-4.43h-.1Z"/>
    <path class="st0" d="M11.37,9.23s-.08.08-.12.12l-.08.07,2.23,2.51.08-.11c.11-.15.21-.3.3-.46l.05-.08-2.4-2.13-.07.08h0Z"/>
    <path class="st0" d="M11.73,8.09v.1s0,.04,0,.06c0,0,0,.02,0,.03,0,.01,0,.02,0,.03,0,.02,0,.03,0,.05v.1l3.07.18v-.1c.04-.19.06-.36.07-.52v-.12s-3.14.18-3.14.18h0Z"/>
    <path class="st0" d="M11.25,7.2s.08.08.12.12l.07.08,2.95-2.63-.03-.07c-.08-.2-.17-.41-.28-.62l-.07-.14-2.84,3.19.08.07h0Z"/>
    <path class="st0" d="M10.21,6.84s.04,0,.06,0c.02,0,.04,0,.06,0,.02,0,.03,0,.05,0h.1l.35-6.02-.06-.03c-.29-.14-.58-.27-.89-.37l-.15-.05.37,6.48h.11Z"/>
    <path class="st0" d="M10.92,9.57s-.1.05-.15.06l-.1.03,1.29,3.72.12-.09c.16-.13.31-.26.46-.4l.07-.07-1.6-3.3-.09.05h0Z"/>
    <path class="st0" d="M11.65,8.75c-.02.05-.04.1-.06.15l-.05.09,2.77,1.35.04-.11c.05-.13.12-.3.18-.48l.03-.1-2.88-1.01s-.03.1-.03.1Z"/>
    <path class="st0" d="M11.59,7.65s.05.1.06.15l.03.1,3.19-1.1v-.08c-.03-.19-.06-.38-.09-.57l-.03-.14-3.21,1.54.05.1h0Z"/>
    <path class="st0" d="M10.77,6.92c.05.02.1.04.15.06l.09.05,2.12-4.38-.05-.05c-.18-.2-.37-.4-.56-.58l-.12-.11-1.73,4.98.1.03h0Z"/>
  </g>
  <g>
    <path class="st0" d="M19.68,10.15c.24.36.55.62.92.79.37.17.76.26,1.15.26.22,0,.45-.03.68-.11.23-.07.44-.17.63-.31s.34-.31.46-.51c.12-.2.18-.44.18-.7,0-.38-.12-.66-.36-.86-.24-.2-.54-.36-.89-.5s-.74-.26-1.16-.39c-.42-.12-.81-.3-1.16-.52-.35-.22-.65-.52-.89-.89-.24-.37-.36-.88-.36-1.51,0-.28.06-.59.19-.91.12-.32.32-.62.58-.88s.61-.49,1.03-.67c.42-.18.92-.27,1.51-.27.53,0,1.04.07,1.53.22s.91.45,1.28.9l-1.08.98c-.16-.26-.4-.47-.7-.62s-.65-.23-1.04-.23-.67.05-.92.14-.44.22-.58.37c-.15.15-.25.32-.31.49-.06.18-.09.33-.09.48,0,.41.12.73.36.95.24.22.54.4.89.54.35.14.74.26,1.16.37.42.11.81.26,1.16.46.35.2.65.47.89.8.24.33.36.8.36,1.39,0,.47-.09.89-.27,1.27s-.42.7-.72.95c-.3.26-.66.45-1.08.59-.41.14-.85.21-1.33.21-.62,0-1.22-.11-1.78-.33-.56-.22-1.01-.56-1.34-1.02l1.09-.94h0Z"/>
    <path class="st0" d="M30.25,6.73h-1.78v2.97c0,.18,0,.37.01.55,0,.18.04.34.1.48s.15.26.28.34c.12.09.31.13.55.13.15,0,.3-.01.45-.04.16-.03.3-.08.43-.15v1.13c-.15.08-.34.14-.57.17-.23.03-.42.05-.55.05-.48,0-.85-.07-1.11-.2-.26-.13-.45-.31-.58-.52s-.2-.45-.22-.71-.03-.53-.03-.79v-3.41h-1.44v-1.08h1.44v-1.84h1.24v1.84h1.78v1.08Z"/>
    <path class="st0" d="M31.88,6.45c.35-.32.76-.56,1.22-.72.46-.16.92-.24,1.38-.24s.89.06,1.23.18c.35.12.63.28.85.48.22.2.38.43.49.7s.16.54.16.82v3.34c0,.23,0,.44.01.64s.02.38.04.55h-1.1c-.03-.33-.04-.66-.04-.99h-.03c-.28.42-.6.72-.98.9s-.81.26-1.31.26c-.3,0-.59-.04-.87-.12-.28-.08-.52-.21-.72-.37s-.37-.37-.49-.61-.18-.53-.18-.85c0-.42.09-.78.28-1.06.19-.28.45-.52.77-.7.33-.18.71-.31,1.14-.39s.9-.12,1.4-.12h.91v-.28c0-.16-.03-.33-.1-.5s-.16-.32-.29-.45-.29-.24-.48-.32c-.19-.08-.42-.12-.69-.12-.24,0-.45.02-.63.07s-.34.11-.49.17c-.15.07-.28.15-.4.24s-.24.18-.35.26c0,0-.74-.77-.74-.77ZM35.38,9.05c-.3,0-.6.02-.9.05-.31.03-.59.09-.84.18s-.46.22-.62.39-.24.38-.24.64c0,.38.13.65.38.81.25.16.6.25,1.03.25.34,0,.63-.06.87-.17.24-.11.43-.26.58-.45.15-.18.25-.39.32-.61s.1-.45.1-.67v-.41h-.66Z"/>
    <path class="st0" d="M39.01,5.66h1.24v1.01h.03c.08-.18.19-.33.33-.48s.29-.26.46-.37.36-.18.56-.24c.2-.06.4-.09.61-.09s.39.03.55.08l-.05,1.34c-.1-.03-.2-.05-.3-.07s-.2-.03-.3-.03c-.61,0-1.07.17-1.39.51-.32.34-.48.87-.48,1.59v3.28h-1.24v-6.54h0Z"/>
    <path class="st0" d="M44.12,1.76h1.24v4.83h.03c.22-.34.54-.61.95-.81.41-.2.85-.3,1.33-.3.51,0,.96.09,1.37.26.41.18.76.42,1.05.72.29.31.51.67.67,1.09s.24.87.24,1.36-.08.94-.24,1.35-.38.78-.67,1.09-.64.56-1.05.73-.87.26-1.37.26c-.44,0-.87-.1-1.29-.29-.42-.19-.75-.47-.99-.81h-.03v.94h-1.24V1.76h0ZM47.51,11.2c.33,0,.63-.06.9-.17.27-.11.49-.27.68-.47.18-.2.33-.44.43-.72s.15-.59.15-.92-.05-.64-.15-.92-.24-.52-.43-.72-.41-.35-.68-.47-.56-.17-.9-.17-.63.06-.9.17-.49.27-.68.47c-.18.2-.33.44-.43.72-.1.28-.15.59-.15.92s.05.64.15.92.24.52.43.72.41.35.68.47c.27.12.56.17.9.17Z"/>
    <path class="st0" d="M58.35,12.2h-1.24v-1.01h-.03c-.16.35-.43.63-.81.85-.39.22-.83.32-1.34.32-.32,0-.62-.05-.91-.14s-.54-.25-.75-.45c-.22-.2-.39-.46-.52-.78-.13-.32-.19-.69-.19-1.12v-4.21h1.24v3.86c0,.3.04.56.12.78.08.22.19.39.33.53.14.13.3.23.48.29.18.06.37.09.56.09.26,0,.5-.04.72-.12.22-.08.41-.21.58-.39.16-.18.3-.41.39-.68.09-.28.14-.6.14-.98v-3.37h1.24v6.54h0Z"/>
    <path class="st0" d="M60.22,5.66h1.24v1.01h.03c.08-.18.19-.33.33-.48s.29-.26.46-.37.36-.18.56-.24c.2-.06.4-.09.61-.09s.39.03.55.08l-.05,1.34c-.1-.03-.2-.05-.3-.07s-.2-.03-.3-.03c-.61,0-1.07.17-1.39.51-.32.34-.48.87-.48,1.59v3.28h-1.24v-6.54h0Z"/>
    <path class="st0" d="M68.81,7.3c-.15-.18-.33-.34-.55-.46-.22-.12-.48-.19-.79-.19-.3,0-.55.06-.77.19s-.32.31-.32.55c0,.19.06.35.19.47s.27.22.44.29.35.13.55.16.36.07.5.1c.27.07.52.14.75.23.24.09.44.21.61.36.17.15.3.33.4.54s.14.47.14.77c0,.37-.08.68-.24.95-.16.26-.36.48-.61.64s-.53.28-.85.36c-.32.07-.64.11-.96.11-.54,0-1.02-.08-1.43-.25-.41-.16-.78-.47-1.1-.91l.94-.77c.2.2.43.38.68.54.25.16.55.24.91.24.16,0,.32-.02.48-.05.16-.03.3-.08.43-.15s.23-.16.3-.26.12-.23.12-.37c0-.18-.06-.33-.17-.45s-.25-.21-.41-.28c-.16-.07-.33-.12-.51-.16-.18-.04-.34-.08-.48-.1-.27-.07-.52-.14-.76-.22-.24-.08-.45-.19-.64-.33s-.33-.31-.44-.53c-.11-.21-.16-.47-.16-.79,0-.34.07-.64.21-.89.14-.25.33-.46.56-.63s.5-.29.8-.37c.3-.08.6-.12.9-.12.44,0,.87.08,1.27.25.41.16.73.44.97.83l-.97.73h0Z"/>
    <path class="st0" d="M74.96,6.73h-1.78v2.97c0,.18,0,.37.01.55,0,.18.04.34.1.48s.15.26.28.34c.12.09.31.13.55.13.15,0,.3-.01.45-.04.16-.03.3-.08.43-.15v1.13c-.15.08-.34.14-.57.17-.23.03-.42.05-.55.05-.48,0-.85-.07-1.11-.2-.26-.13-.45-.31-.58-.52s-.2-.45-.22-.71-.03-.53-.03-.79v-3.41h-1.44v-1.08h1.44v-1.84h1.24v1.84h1.78v1.08Z"/>
  </g>
</svg>