<svg width="180" height="60" viewBox="0 0 180 60" fill="none" xmlns="http://www.w3.org/2000/svg">
<path d="M43.05 35.3599C43.23 37.1599 44.88 40.2199 49.59 40.2199C53.7 40.2199 55.68 37.6099 55.68 35.0599C55.68 32.7499 54.1201 30.8899 51.0301 30.2299L48.81 29.7499C47.94 29.5999 47.37 29.1199 47.37 28.3399C47.37 27.4399 48.2701 26.7799 49.3801 26.7799C51.18 26.7799 51.84 27.9499 51.96 28.8799L55.5 28.0699C55.32 26.3899 53.82 23.5399 49.35 23.5399C45.96 23.5399 43.47 25.8799 43.47 28.6699C43.47 30.8599 44.8501 32.6899 47.8801 33.3499L49.95 33.8299C51.15 34.0999 51.63 34.6699 51.63 35.3599C51.63 36.1999 50.97 36.9199 49.56 36.9199C47.7 36.9199 46.8001 35.7799 46.6801 34.5199L43.05 35.3599ZM69.24 39.7399H73.29C73.23 39.1999 73.14 38.1199 73.14 36.8899V24.0199H68.9101V33.1399C68.9101 34.9699 67.83 36.2299 65.94 36.2299C63.96 36.2299 63.06 34.8199 63.06 33.0799V24.0199H58.8V33.9499C58.8 37.3699 60.96 40.1299 64.77 40.1299C66.42 40.1299 68.25 39.4999 69.12 38.0299C69.09 38.6899 69.15 39.4099 69.24 39.7399ZM81.9 45.7999V38.2099C82.68 39.2599 84.2701 40.1299 86.43 40.1299C90.87 40.1299 93.84 36.6199 93.84 31.8499C93.84 27.1999 91.2001 23.6899 86.6101 23.6899C84.2401 23.6899 82.5 24.7399 81.78 25.9699V24.0499H77.67V45.7999H81.9ZM89.64 31.8799C89.64 34.6999 87.93 36.3199 85.74 36.3199C83.58 36.3199 81.8101 34.6699 81.8101 31.8799C81.8101 29.0899 83.55 27.4699 85.74 27.4699C87.9 27.4699 89.64 29.0899 89.64 31.8799ZM96.21 35.4499C96.21 37.9099 98.25 40.1899 101.61 40.1899C103.95 40.1899 105.45 39.1099 106.23 37.8499C106.23 38.4499 106.29 39.3199 106.38 39.7399H110.28C110.19 39.1999 110.1 38.0899 110.1 37.2499V29.5099C110.1 26.3599 108.24 23.5399 103.29 23.5399C99.09 23.5399 96.81 26.2399 96.57 28.6999L100.32 29.5099C100.44 28.1299 101.46 26.9599 103.32 26.9599C105.12 26.9599 105.96 27.8899 105.96 28.9999C105.96 29.5399 105.66 29.9899 104.79 30.1099L100.92 30.6799C98.28 31.0699 96.21 32.6299 96.21 35.4499ZM102.51 37.0099C101.13 37.0099 100.47 36.1099 100.47 35.1799C100.47 33.9799 101.34 33.3499 102.42 33.1999L105.96 32.6599V33.3499C105.93 36.1699 104.28 37.0099 102.51 37.0099ZM118.47 39.7399V37.8199C119.31 39.1699 120.96 40.1299 123.12 40.1299C127.59 40.1299 130.53 36.5899 130.53 31.8199C130.53 27.1699 127.89 23.5999 123.3 23.5999C120.96 23.5999 119.25 24.6199 118.56 25.7299V16.6099H114.39V39.7099H118.47V39.7399ZM126.3 31.8499C126.3 34.7299 124.59 36.3199 122.4 36.3199C120.27 36.3199 118.47 34.6999 118.47 31.8499C118.47 28.9699 120.27 27.4099 122.4 27.4099C124.56 27.4099 126.3 28.9699 126.3 31.8499ZM132.93 35.4499C132.93 37.9099 134.97 40.1899 138.33 40.1899C140.67 40.1899 142.17 39.1099 142.95 37.8499C142.95 38.4499 143.01 39.3199 143.1 39.7399H147C146.91 39.1999 146.82 38.0899 146.82 37.2499V29.5099C146.82 26.3599 144.96 23.5399 140.01 23.5399C135.81 23.5399 133.53 26.2399 133.29 28.6999L137.04 29.5099C137.16 28.1299 138.18 26.9599 140.04 26.9599C141.84 26.9599 142.68 27.8899 142.68 28.9999C142.68 29.5399 142.38 29.9899 141.51 30.1099L137.64 30.6799C135 31.0699 132.93 32.6299 132.93 35.4499ZM139.2 37.0099C137.82 37.0099 137.16 36.1099 137.16 35.1799C137.16 33.9799 138.03 33.3499 139.11 33.1999L142.65 32.6599V33.3499C142.65 36.1699 141 37.0099 139.2 37.0099ZM149.73 35.3599C149.91 37.1599 151.56 40.2199 156.27 40.2199C160.38 40.2199 162.36 37.6099 162.36 35.0599C162.36 32.7499 160.8 30.8899 157.71 30.2299L155.49 29.7499C154.62 29.5999 154.05 29.1199 154.05 28.3399C154.05 27.4399 154.95 26.7799 156.06 26.7799C157.86 26.7799 158.52 27.9499 158.64 28.8799L162.18 28.0699C162 26.3899 160.5 23.5399 156.03 23.5399C152.64 23.5399 150.15 25.8799 150.15 28.6699C150.15 30.8599 151.53 32.6899 154.56 33.3499L156.63 33.8299C157.83 34.0999 158.31 34.6699 158.31 35.3599C158.31 36.1999 157.65 36.9199 156.24 36.9199C154.38 36.9199 153.48 35.7799 153.36 34.5199L149.73 35.3599ZM168.81 30.0799C168.9 28.6399 170.13 26.9899 172.32 26.9899C174.75 26.9899 175.77 28.5199 175.83 30.0799H168.81ZM176.25 34.1899C175.74 35.5999 174.66 36.5899 172.68 36.5899C170.58 36.5899 168.81 35.0899 168.72 33.0199H179.94C179.94 32.9599 180 32.3299 180 31.6999C180 26.6599 177.09 23.5699 172.26 23.5699C168.24 23.5699 164.55 26.8399 164.55 31.8499C164.55 37.1599 168.33 40.2499 172.65 40.2499C176.52 40.2499 179.01 37.9699 179.79 35.2699L176.25 34.1899Z" fill="#1F1F1F"/>
<path d="M31.68 26C32.61 26 33.36 26.75 33.36 27.68C33.36 28.04 33.24 28.4 33.03 28.67L32.4 29.57L17.85 49.22C17.73 49.37 17.55 49.49 17.34 49.49C16.98 49.49 16.71 49.22 16.71 48.86V48.8V26H31.68Z" fill="url(#paint0_linear)"/>
<path d="M1.68 34.49C0.75 34.49 0 33.74 0 32.81C0 32.45 0.12 32.09 0.33 31.82L0.96 30.92L15.51 11.27C15.63 11.12 15.81 11 16.02 11C16.38 11 16.65 11.27 16.65 11.63V11.69V34.46H1.68V34.49Z" fill="#3ECF8E"/>
<path d="M31.68 26C32.61 26 33.36 26.75 33.36 27.68C33.36 28.04 33.24 28.4 33.03 28.67L32.4 29.57L17.85 49.22C17.73 49.37 17.55 49.49 17.34 49.49C16.98 49.49 16.71 49.22 16.71 48.86V48.8V26H31.68Z" fill="url(#paint1_linear)" fill-opacity="0.2"/>
<defs>
<linearGradient id="paint0_linear" x1="15.3864" y1="34.1427" x2="27.8116" y2="38.9911" gradientUnits="userSpaceOnUse">
<stop stop-color="#249361"/>
<stop offset="1" stop-color="#3ECF8E"/>
</linearGradient>
<linearGradient id="paint1_linear" x1="15.0831" y1="20.7334" x2="21.2856" y2="31.5968" gradientUnits="userSpaceOnUse">
<stop/>
<stop offset="1" stop-opacity="0"/>
</linearGradient>
</defs>
</svg>
