<svg xmlns="http://www.w3.org/2000/svg" width="576" height="65" fill="none" viewBox="0 0 576 65"><g clip-path="url(#a)"><path fill="#004163" d="M561.609 63.984c-2.714 0-3.626-1.53-3.626-3.518 0-2.225 1.6-3.355 3.582-3.355 1.052 0 2.651.27 3.063 1.75h1.433c-.214-1.411-1.678-2.764-4.496-2.764-3.186 0-5.107 1.801-5.107 4.406 0 3.247 2.437 4.497 4.922 4.497.825 0 4.178-.145 4.788-3.334h-1.434c-.502 1.967-2.164 2.318-3.125 2.318m-8.672.791h1.477v-8.454h-1.477zm-3.651-4.272c0-2.135-1.265-3.207-3.278-3.207h-2.757v6.503h2.866c1.921 0 3.169-1.169 3.169-3.296m1.525-.07c0 1.893-1.066 4.342-4.664 4.342h-4.377v-8.454h4.439c2.848 0 4.602 1.672 4.602 4.112m-18.282 4.342h1.48v-3.84h5.365v-1.012h-5.365v-2.59h6.095v-1.012h-7.575zm-8.156-5.134h-.031v-1.025h-1.264v6.16h1.342v-3.582c0-.892.792-1.646 2.04-1.646h.505v-1.072a1.4 1.4 0 0 0-.351-.034c-1.005 0-1.707.48-2.241 1.2m-4.471 1.565c-.075-.951-.592-1.836-2.226-1.836-1.233 0-2.208.885-2.208 1.836zm1.391.825h-5.825c0 1.283.775 2.023 2.317 2.023 1.266 0 2.012-.75 2.058-1.213h1.341c-.046.295-.413 1.166-1.417 1.686-.367.188-.883.426-2.166.426-2.241 0-3.566-1.308-3.566-3.086 0-1.907 1.19-3.425 3.827-3.425 2.302 0 3.431 1.411 3.431 3.589m-9.854-.352c0-.79-.105-2.309-2.18-2.309-1.935 0-2.149 1.612-2.149 2.614 0 1.638 1.327 2.07 2.18 2.07 1.465 0 2.149-1.02 2.149-2.375m1.39-.164c0 1.47-.794 3.438-3.508 3.438-1.357 0-1.92-.604-2.195-.946h-.031v.768h-1.266v-8.454h1.342v3.073h.03c.578-.647 1.371-.942 2.303-.952 2.12 0 3.325 1.34 3.325 3.073m-11.337-3.073c-1.234 0-1.769.418-2.438.999-.228-.332-.687-1-2.121-1-1.431 0-2.117.714-2.408 1.046h-.028v-.87h-1.267v6.158h1.342v-3.357c0-1.673 1.34-2.048 2.104-2.048.99 0 1.25.623 1.25 1.143v4.262h1.34V61.02c0-.824.749-1.649 1.875-1.649 1.144 0 1.483.577 1.483 1.424v3.981h1.338v-4.262c0-1.73-1.616-2.071-2.47-2.071m-11.254 2.764c-.076-.951-.594-1.836-2.226-1.836-1.234 0-2.209.885-2.209 1.836zm1.389.825h-5.824c0 1.283.778 2.023 2.318 2.023 1.264 0 2.01-.75 2.057-1.213h1.34c-.043.295-.41 1.166-1.415 1.686-.367.188-.884.426-2.164.426-2.244 0-3.569-1.308-3.569-3.086 0-1.907 1.189-3.425 3.826-3.425 2.303 0 3.431 1.411 3.431 3.589m-14.186 1.437h-.031l-3.125-7.147h-2.119v8.454h1.431v-4.993c0-.248-.028-1.316-.028-2.096h.028l3.082 7.09h1.461l3.081-7.101h.031c0 .79-.031 1.859-.031 2.107v4.993h1.433v-8.454h-2.102zM576 21.59h-9.112l-9.323 9.766V12.595h-7.416v34.718h7.416V36.979l8.496 10.334h8.901l-11.686-13.277zm-28.329 25.722V29.519c0-5.657-4.29-8.605-9.8-8.605-5.351 0-7.468 2.899-8.477 4.447h-.104v-3.77h-7.101v25.722h7.418V32.565c0-3.915 2.544-5.946 5.825-5.946 4.718 0 4.822 3.191 4.822 5.077v15.617zm-35.556-12.52c-.743.528-1.96.964-5.033 1.4-2.755.436-5.034 1.063-5.034 3.87 0 2.368 2.014 3.094 3.444 3.094 3.283 0 6.623-1.934 6.623-5.078zm8.899 12.52h-8c-.422-1.21-.53-1.593-.687-3.048-1.696 1.598-4.079 3.724-9.112 3.724-4.24 0-8.584-2.174-8.584-7.495 0-5.024 3.498-7.59 8.214-8.219l6.674-.918c1.163-.144 2.596-.58 2.596-2.03 0-2.854-2.967-2.997-4.876-2.997-3.708 0-4.343 2.078-4.555 3.576h-7.151c.847-7.88 6.835-8.992 12.608-8.992 3.974 0 11.229 1.112 11.229 7.446v13.925c0 3.047.742 3.725 1.644 4.014zm-50.71-5.995h9.747c3.867 0 6.092-1.549 6.092-5.076 0-3.046-2.861-4.207-5.722-4.207h-10.117zm0-15.134h9.324c3.124 0 5.616-1.112 5.616-3.87 0-2.852-2.227-3.721-5.828-3.721h-9.112zm8.476 21.129h-16.104V12.595h18.489c9.323 0 11.707 5.32 11.707 8.898 0 4.98-3.074 6.382-4.663 7.11 4.663 1.594 5.879 4.98 5.879 8.412 0 2.754-1.271 5.369-3.285 7.156-2.171 1.933-4.236 3.142-12.023 3.142M248.145 62.229a1 1 0 0 0 .135-.169l-.006-.005s-.194.23-.129.174m197.509-47.604h-7.342v27.416c0 3.339 1.154 5.562 7.499 5.562h.944c1.155 0 2.307-.051 3.462-.096V42.38a17 17 0 0 1-1.52.095c-2.99 0-3.043-.578-3.043-2.08V26.424h4.563V21.59h-4.563zm-26.286 13.926c0-1.113.517-2.514 4.464-2.514 3.946 0 4.569 1.739 4.88 3.386h7.114c-.571-7.253-7.011-8.512-12.41-8.512-8.618 0-11.164 4.835-11.164 8.607 0 9.62 17.136 6.382 17.136 10.687 0 .963-.882 2.659-4.621 2.659-4.57 0-6.023-1.594-6.023-3.774h-7.477c.205 6.868 7.008 8.896 13.291 8.896 4.311 0 12.099-1.354 12.099-8.847 0-9.475-17.289-6.528-17.289-10.588m-16.624 7.88c0 4.594-3.221 5.854-5.61 5.854-2.23 0-4.722-.777-4.722-4.74V21.59h-7.27v16.924c0 6.577 3.947 9.472 9.398 9.472 3.842 0 6.752-1.545 8.413-4.299h.101v3.623h6.96V21.59h-7.27zm-28.388-10.394h-.105V21.59h-6.957v25.72h7.268V33.918c0-2.852 1.038-6.142 6.698-6.142.675 0 1.453 0 2.077.097v-6.867c-.466-.047-.934-.095-1.402-.095-4.415 0-6.076 2.515-7.579 5.126m-.168-13.442h-30.324v6.14h11.267V47.31h7.79V18.735h11.267zm-45.752 8.316c-5.243 0-7.321 2.902-8.309 4.448h-.103V21.59h-6.957v25.72h7.271V32.564c0-3.915 2.49-5.947 5.71-5.947 4.621 0 4.724 3.191 4.724 5.078V47.31h7.269V29.518c0-5.656-4.203-8.607-9.605-8.607m-24.202 13.54c0-3.29-1.04-7.834-6.647-7.834s-6.644 4.545-6.644 7.835c0 3.284 1.037 7.833 6.644 7.833s6.647-4.549 6.647-7.833m7.475 0c0 9.28-6.698 13.535-14.122 13.535s-14.122-4.255-14.122-13.534c0-9.285 6.698-13.54 14.122-13.54s14.122 4.255 14.122 13.54m-50.181-1.138c0-3.689-2.223-6.68-4.966-6.68-2.745 0-4.971 2.991-4.971 6.68 0 3.69 2.226 6.681 4.971 6.681 2.743 0 4.966-2.99 4.966-6.68m21.156 9.162c.469 0 .989-.047 1.507-.095v5.127c-1.142.045-2.286.096-3.427.096h-.935c-6.283 0-7.426-2.223-7.426-5.562V26.424h-5.717c1.442 1.968 2.299 4.351 2.299 6.89 0 4.017-2.128 7.56-5.371 9.686 4.106 1.806 7.301 5.028 6.922 9.687.311 8.269-7.454 12.088-14.315 12.088-3.019 0-5.788-1.02-7.941-2.715.523-.742 2.065-3.56 2.135-3.518 0 0 3.351 1.464 5.835 1.14 2.745 0 9.141-1.766 8.519-6.858 0-5.409-6.706-6.464-9.451-6.464-1.28 0-5.936.657-6.817 1.726 0 0 1.047-2.01 2.592-4.213-4.116-1.919-6.956-5.921-6.956-10.56 0-6.5 5.563-12.021 12.425-12.021.925 0 1.824.108 2.692.298h13.149v-6.965h7.27v6.965h4.518v4.834h-4.518v13.972c0 1.5.052 2.08 3.011 2.08m-49.297-21.564c-5.242 0-7.32 2.902-8.306 4.448h-.105V21.59h-6.957v25.72h7.268V32.564c0-3.915 2.494-5.947 5.713-5.947 4.621 0 4.724 3.191 4.724 5.078V47.31h7.269V29.518c0-5.656-4.206-8.607-9.606-8.607M208.049 47.31h7.269V21.59h-7.269zm0-28.768h7.269v-6.286h-7.269zm-12.164 2.37c-3.945 0-7.061 1.885-7.996 4.014h-.103V12.595h-7.269V47.31h7.269V32.564c0-3.915 2.493-5.947 5.713-5.947 4.62 0 4.723 3.191 4.723 5.078V47.31h7.27V29.518c0-5.656-4.207-8.607-9.607-8.607m-34.227 7.64c0-1.114.52-2.515 4.465-2.515 3.946 0 4.57 1.739 4.882 3.386h7.114c-.574-7.253-7.011-8.512-12.411-8.512-8.619 0-11.163 4.835-11.163 8.607 0 9.62 17.135 6.382 17.135 10.687 0 .963-.882 2.659-4.621 2.659-4.571 0-6.024-1.594-6.024-3.774h-7.476c.208 6.868 7.008 8.896 13.291 8.896 4.311 0 12.098-1.354 12.098-8.847 0-9.475-17.29-6.528-17.29-10.588m-16.682 6.238c-.726.53-1.922.964-4.932 1.403-2.701.434-4.933 1.062-4.933 3.866 0 2.369 1.974 3.094 3.376 3.094 3.219 0 6.489-1.934 6.489-5.078zm9.247 11.506v1.014h-7.841c-.416-1.206-.519-1.594-.675-3.045-1.661 1.594-3.998 3.721-8.93 3.721-4.153 0-8.412-2.175-8.412-7.495 0-5.025 3.427-7.588 8.049-8.218l6.541-.918c1.144-.146 2.546-.58 2.546-2.03 0-2.854-2.91-2.997-4.778-2.997-3.635 0-4.258 2.079-4.465 3.578h-7.01c.831-7.882 6.699-8.995 12.358-8.995 3.895 0 11.007 1.113 11.007 7.448v13.926c0 3.047.728 3.725 1.61 4.01M124.92 12.595c-4.829 19.1-5.453 22.095-6.076 25.385h-.103c-.831-4.497-1.195-6.334-5.556-25.385h-8.256c-3.946 18.228-4.517 21.755-5.191 25.385h-.104c-.675-3.968-1.143-6.385-5.92-25.385h-8.307l10.54 34.715h7.269c3.998-17.887 4.622-20.402 5.765-27.076h.102c1.246 6.674 1.922 10.058 5.763 27.076h7.476l10.49-34.715zM18.286 59.915H33.56V18.36H18.286zm18.287 0h2.73c6.934 0 12.544-5.648 12.544-12.594V18.36H36.573zM0 47.322c0 6.946 5.627 12.595 12.544 12.595h2.731V18.36H0zm54.859 12.595h2.73c6.934 0 12.544-5.65 12.544-12.595V31.47H54.859zm15.274-47.321v15.85H54.859V18.359a3.016 3.016 0 0 0-3.01-3.022H0v-2.741C0 5.639 5.616 0 12.544 0h45.045c6.934 0 12.544 5.649 12.544 12.595"/><mask id="b" width="576" height="65" x="0" y="0" maskUnits="userSpaceOnUse" style="mask-type:luminance"><path fill="#004163" d="M561.609 63.984c-2.714 0-3.626-1.53-3.626-3.518 0-2.225 1.6-3.355 3.582-3.355 1.052 0 2.651.27 3.063 1.75h1.433c-.214-1.411-1.678-2.764-4.496-2.764-3.186 0-5.107 1.801-5.107 4.406 0 3.247 2.437 4.497 4.922 4.497.825 0 4.178-.145 4.788-3.334h-1.434c-.502 1.967-2.164 2.318-3.125 2.318m-8.672.791h1.477v-8.454h-1.477zm-3.651-4.272c0-2.135-1.265-3.207-3.278-3.207h-2.757v6.503h2.866c1.921 0 3.169-1.169 3.169-3.296m1.525-.07c0 1.893-1.066 4.342-4.664 4.342h-4.377v-8.454h4.439c2.848 0 4.602 1.672 4.602 4.112m-18.282 4.342h1.48v-3.84h5.365v-1.012h-5.365v-2.59h6.095v-1.012h-7.575zm-8.156-5.134h-.031v-1.025h-1.264v6.16h1.342v-3.582c0-.892.792-1.646 2.04-1.646h.505v-1.072a1.4 1.4 0 0 0-.351-.034c-1.005 0-1.707.48-2.241 1.2m-4.471 1.565c-.075-.951-.592-1.836-2.226-1.836-1.233 0-2.208.885-2.208 1.836zm1.391.825h-5.825c0 1.283.775 2.023 2.317 2.023 1.266 0 2.012-.75 2.058-1.213h1.341c-.046.295-.413 1.166-1.417 1.686-.367.188-.883.426-2.166.426-2.241 0-3.566-1.308-3.566-3.086 0-1.907 1.19-3.425 3.827-3.425 2.302 0 3.431 1.411 3.431 3.589m-9.854-.352c0-.79-.105-2.309-2.18-2.309-1.935 0-2.149 1.612-2.149 2.614 0 1.638 1.327 2.07 2.18 2.07 1.465 0 2.149-1.02 2.149-2.375m1.39-.164c0 1.47-.794 3.438-3.508 3.438-1.357 0-1.92-.604-2.195-.946h-.031v.768h-1.266v-8.454h1.342v3.073h.03c.578-.647 1.371-.942 2.303-.952 2.12 0 3.325 1.34 3.325 3.073m-11.337-3.073c-1.234 0-1.769.418-2.438.999-.228-.332-.687-1-2.121-1-1.431 0-2.117.714-2.408 1.046h-.028v-.87h-1.267v6.158h1.342v-3.357c0-1.673 1.34-2.048 2.104-2.048.99 0 1.25.623 1.25 1.143v4.262h1.34V61.02c0-.824.749-1.649 1.875-1.649 1.144 0 1.483.577 1.483 1.424v3.981h1.338v-4.262c0-1.73-1.616-2.071-2.47-2.071m-11.254 2.764c-.076-.951-.594-1.836-2.226-1.836-1.234 0-2.209.885-2.209 1.836zm1.389.825h-5.824c0 1.283.778 2.023 2.318 2.023 1.264 0 2.01-.75 2.057-1.213h1.34c-.043.295-.41 1.166-1.415 1.686-.367.188-.884.426-2.164.426-2.244 0-3.569-1.308-3.569-3.086 0-1.907 1.189-3.425 3.826-3.425 2.303 0 3.431 1.411 3.431 3.589m-14.186 1.437h-.031l-3.125-7.147h-2.119v8.454h1.431v-4.993c0-.248-.028-1.316-.028-2.096h.028l3.082 7.09h1.461l3.081-7.101h.031c0 .79-.031 1.859-.031 2.107v4.993h1.433v-8.454h-2.102zM576 21.59h-9.112l-9.323 9.766V12.595h-7.416v34.718h7.416V36.979l8.496 10.334h8.901l-11.686-13.277zm-28.329 25.722V29.519c0-5.657-4.29-8.605-9.8-8.605-5.351 0-7.468 2.899-8.477 4.447h-.104v-3.77h-7.101v25.722h7.418V32.565c0-3.915 2.544-5.946 5.825-5.946 4.718 0 4.822 3.191 4.822 5.077v15.617zm-35.556-12.52c-.743.528-1.96.964-5.033 1.4-2.755.436-5.034 1.063-5.034 3.87 0 2.368 2.014 3.094 3.444 3.094 3.283 0 6.623-1.934 6.623-5.078zm8.899 12.52h-8c-.422-1.21-.53-1.593-.687-3.048-1.696 1.598-4.079 3.724-9.112 3.724-4.24 0-8.584-2.174-8.584-7.495 0-5.024 3.498-7.59 8.214-8.219l6.674-.918c1.163-.144 2.596-.58 2.596-2.03 0-2.854-2.967-2.997-4.876-2.997-3.708 0-4.343 2.078-4.555 3.576h-7.151c.847-7.88 6.835-8.992 12.608-8.992 3.974 0 11.229 1.112 11.229 7.446v13.925c0 3.047.742 3.725 1.644 4.014zm-50.71-5.995h9.747c3.867 0 6.092-1.549 6.092-5.076 0-3.046-2.861-4.207-5.722-4.207h-10.117zm0-15.134h9.324c3.124 0 5.616-1.112 5.616-3.87 0-2.852-2.227-3.721-5.828-3.721h-9.112zm8.476 21.129h-16.104V12.595h18.489c9.323 0 11.707 5.32 11.707 8.898 0 4.98-3.074 6.382-4.663 7.11 4.663 1.594 5.879 4.98 5.879 8.412 0 2.754-1.271 5.369-3.285 7.156-2.171 1.933-4.236 3.142-12.023 3.142M248.145 62.229a1 1 0 0 0 .135-.169l-.006-.005s-.194.23-.129.174m197.509-47.604h-7.342v27.416c0 3.339 1.154 5.562 7.499 5.562h.944c1.155 0 2.307-.051 3.462-.096V42.38a17 17 0 0 1-1.52.095c-2.99 0-3.043-.578-3.043-2.08V26.424h4.563V21.59h-4.563zm-26.286 13.926c0-1.113.517-2.514 4.464-2.514 3.946 0 4.569 1.739 4.88 3.386h7.114c-.571-7.253-7.011-8.512-12.41-8.512-8.618 0-11.164 4.835-11.164 8.607 0 9.62 17.136 6.382 17.136 10.687 0 .963-.882 2.659-4.621 2.659-4.57 0-6.023-1.594-6.023-3.774h-7.477c.205 6.868 7.008 8.896 13.291 8.896 4.311 0 12.099-1.354 12.099-8.847 0-9.475-17.289-6.528-17.289-10.588m-16.624 7.88c0 4.594-3.221 5.854-5.61 5.854-2.23 0-4.722-.777-4.722-4.74V21.59h-7.27v16.924c0 6.577 3.947 9.472 9.398 9.472 3.842 0 6.752-1.545 8.413-4.299h.101v3.623h6.96V21.59h-7.27zm-28.388-10.394h-.105V21.59h-6.957v25.72h7.268V33.918c0-2.852 1.038-6.142 6.698-6.142.675 0 1.453 0 2.077.097v-6.867c-.466-.047-.934-.095-1.402-.095-4.415 0-6.076 2.515-7.579 5.126m-.168-13.442h-30.324v6.14h11.267V47.31h7.79V18.735h11.267zm-45.752 8.316c-5.243 0-7.321 2.902-8.309 4.448h-.103V21.59h-6.957v25.72h7.271V32.564c0-3.915 2.49-5.947 5.71-5.947 4.621 0 4.724 3.191 4.724 5.078V47.31h7.269V29.518c0-5.656-4.203-8.607-9.605-8.607m-24.202 13.54c0-3.29-1.04-7.834-6.647-7.834s-6.644 4.545-6.644 7.835c0 3.284 1.037 7.833 6.644 7.833s6.647-4.549 6.647-7.833m7.475 0c0 9.28-6.698 13.535-14.122 13.535s-14.122-4.255-14.122-13.534c0-9.285 6.698-13.54 14.122-13.54s14.122 4.255 14.122 13.54m-50.181-1.138c0-3.689-2.223-6.68-4.966-6.68-2.745 0-4.971 2.991-4.971 6.68 0 3.69 2.226 6.681 4.971 6.681 2.743 0 4.966-2.99 4.966-6.68m21.156 9.162c.469 0 .989-.047 1.507-.095v5.127c-1.142.045-2.286.096-3.427.096h-.935c-6.283 0-7.426-2.223-7.426-5.562V26.424h-5.717c1.442 1.968 2.299 4.351 2.299 6.89 0 4.017-2.128 7.56-5.371 9.686 4.106 1.806 7.301 5.028 6.922 9.687.311 8.269-7.454 12.088-14.315 12.088-3.019 0-5.788-1.02-7.941-2.715.523-.742 2.065-3.56 2.135-3.518 0 0 3.351 1.464 5.835 1.14 2.745 0 9.141-1.766 8.519-6.858 0-5.409-6.706-6.464-9.451-6.464-1.28 0-5.936.657-6.817 1.726 0 0 1.047-2.01 2.592-4.213-4.116-1.919-6.956-5.921-6.956-10.56 0-6.5 5.563-12.021 12.425-12.021.925 0 1.824.108 2.692.298h13.149v-6.965h7.27v6.965h4.518v4.834h-4.518v13.972c0 1.5.052 2.08 3.011 2.08m-49.297-21.564c-5.242 0-7.32 2.902-8.306 4.448h-.105V21.59h-6.957v25.72h7.268V32.564c0-3.915 2.494-5.947 5.713-5.947 4.621 0 4.724 3.191 4.724 5.078V47.31h7.269V29.518c0-5.656-4.206-8.607-9.606-8.607M208.049 47.31h7.269V21.59h-7.269zm0-28.768h7.269v-6.286h-7.269zm-12.164 2.37c-3.945 0-7.061 1.885-7.996 4.014h-.103V12.595h-7.269V47.31h7.269V32.564c0-3.915 2.493-5.947 5.713-5.947 4.62 0 4.723 3.191 4.723 5.078V47.31h7.27V29.518c0-5.656-4.207-8.607-9.607-8.607m-34.227 7.64c0-1.114.52-2.515 4.465-2.515 3.946 0 4.57 1.739 4.882 3.386h7.114c-.574-7.253-7.011-8.512-12.411-8.512-8.619 0-11.163 4.835-11.163 8.607 0 9.62 17.135 6.382 17.135 10.687 0 .963-.882 2.659-4.621 2.659-4.571 0-6.024-1.594-6.024-3.774h-7.476c.208 6.868 7.008 8.896 13.291 8.896 4.311 0 12.098-1.354 12.098-8.847 0-9.475-17.29-6.528-17.29-10.588m-16.682 6.238c-.726.53-1.922.964-4.932 1.403-2.701.434-4.933 1.062-4.933 3.866 0 2.369 1.974 3.094 3.376 3.094 3.219 0 6.489-1.934 6.489-5.078zm9.247 11.506v1.014h-7.841c-.416-1.206-.519-1.594-.675-3.045-1.661 1.594-3.998 3.721-8.93 3.721-4.153 0-8.412-2.175-8.412-7.495 0-5.025 3.427-7.588 8.049-8.218l6.541-.918c1.144-.146 2.546-.58 2.546-2.03 0-2.854-2.91-2.997-4.778-2.997-3.635 0-4.258 2.079-4.465 3.578h-7.01c.831-7.882 6.699-8.995 12.358-8.995 3.895 0 11.007 1.113 11.007 7.448v13.926c0 3.047.728 3.725 1.61 4.01M124.92 12.595c-4.829 19.1-5.453 22.095-6.076 25.385h-.103c-.831-4.497-1.195-6.334-5.556-25.385h-8.256c-3.946 18.228-4.517 21.755-5.191 25.385h-.104c-.675-3.968-1.143-6.385-5.92-25.385h-8.307l10.54 34.715h7.269c3.998-17.887 4.622-20.402 5.765-27.076h.102c1.246 6.674 1.922 10.058 5.763 27.076h7.476l10.49-34.715zM18.286 59.915H33.56V18.36H18.286zm18.287 0h2.73c6.934 0 12.544-5.648 12.544-12.594V18.36H36.573zM0 47.322c0 6.946 5.627 12.595 12.544 12.595h2.731V18.36H0zm54.859 12.595h2.73c6.934 0 12.544-5.65 12.544-12.595V31.47H54.859zm15.274-47.321v15.85H54.859V18.359a3.016 3.016 0 0 0-3.01-3.022H0v-2.741C0 5.639 5.616 0 12.544 0h45.045c6.934 0 12.544 5.649 12.544 12.595"/></mask><g mask="url(#b)"><path fill="#004163" d="M625-36H-52V96h677z"/></g></g><defs><clipPath id="a"><path fill="#fff" d="M0 0h576v65H0z"/></clipPath></defs></svg>