<?xml version="1.0" encoding="UTF-8"?><svg id="Layer_1" xmlns="http://www.w3.org/2000/svg" viewBox="0 0 178 227.87"><defs><style>.cls-1,.cls-2{fill:#fff;}.cls-3{fill:#805ac3;}.cls-4{fill:#131314;}.cls-5{fill:#5f6065;}.cls-6{fill:#8a3391;}.cls-6,.cls-7,.cls-8,.cls-2{fill-rule:evenodd;}.cls-7{fill:#fed05d;}.cls-8{fill:#f26e7e;}.cls-9{stroke:#c0ade1;}.cls-9,.cls-10{fill:none;}.cls-10{stroke:#805ac3;}</style></defs><rect class="cls-1" x=".5" y=".5" width="177" height="226.87"/><path class="cls-4" d="m38.68,41.9v5.42c0,.43-.24.67-.67.67h-1.49c-.43,0-.67-.24-.67-.67v-15.46c0-.43.24-.67.67-.67h4.98c3.58,0,5.82,2.15,5.82,5.35s-2.24,5.35-5.82,5.35h-2.82Zm5.8-5.35c0-1.8-1.14-2.96-3.16-2.96h-2.64v5.94h2.64c2.02,0,3.16-1.16,3.16-2.98Zm10.07,11.72c-2.99,0-4.97-1.98-4.97-5.04v-7c0-.43.24-.67.67-.67h1.39c.43,0,.67.24.67.67v6.76c0,1.68,1.14,2.86,2.8,2.86s3.22-1.45,3.22-3.52v-6.1c0-.43.24-.67.67-.67h1.4c.43,0,.67.24.67.67v11.09c0,.43-.24.67-.67.67h-1.4c-.43,0-.67-.24-.67-.67v-.97c-.84,1.14-2.2,1.92-3.78,1.92Zm10.05-17.12c0-.43.24-.67.67-.67h1.39c.43,0,.67.24.67.67v16.18c0,.43-.24.67-.67.67h-1.39c-.43,0-.67-.24-.67-.67v-16.18Zm10.99,17.12c-2.99,0-4.97-1.98-4.97-5.04v-7c0-.43.24-.67.67-.67h1.39c.43,0,.67.24.67.67v6.76c0,1.68,1.14,2.86,2.8,2.86s3.22-1.45,3.22-3.52v-6.1c0-.43.24-.67.67-.67h1.4c.43,0,.67.24.67.67v11.09c0,.43-.24.67-.67.67h-1.4c-.43,0-.67-.24-.67-.67v-.97c-.84,1.14-2.2,1.92-3.78,1.92Zm24.54-13c2.7,0,4.76,1.99,4.76,5.05v7c0,.43-.24.67-.67.67h-1.4c-.43,0-.67-.24-.67-.67v-6.76c0-1.68-1.04-2.86-2.58-2.86s-3.01,1.56-3.01,3.44v6.17c0,.43-.24.67-.67.67h-1.4c-.43,0-.67-.24-.67-.67v-6.76c0-1.68-1.04-2.86-2.58-2.86s-3.01,1.42-3.01,3.44v6.17c0,.43-.24.67-.67.67h-1.4c-.43,0-.67-.24-.67-.67v-11.09c0-.43.24-.67.67-.67h1.4c.43,0,.67.24.67.67v.95c.86-1.15,2.12-1.91,3.58-1.91,1.87,0,3.44.97,4.22,2.58.83-1.56,2.34-2.58,4.12-2.58Zm7.71-3.1c0-.95.73-1.68,1.69-1.68s1.7.73,1.7,1.68-.74,1.67-1.7,1.67-1.69-.73-1.69-1.67Zm.32,4.06c0-.43.24-.67.67-.67h1.39c.43,0,.67.24.67.67v11.09c0,.43-.24.67-.67.67h-1.39c-.43,0-.67-.24-.67-.67v-11.09Zm18.81,5.95c0,3.66-2.75,6.07-6.22,6.07s-6.22-2.41-6.22-6.07v-10.32c0-.43.24-.67.67-.67h1.49c.43,0,.67.24.67.67v10.51c0,2.05,1.49,3.4,3.38,3.4s3.38-1.34,3.38-3.4v-10.51c0-.43.24-.67.67-.67h1.49c.43,0,.67.24.67.67v10.32Zm6.53-.29v5.42c0,.43-.24.67-.67.67h-1.49c-.43,0-.67-.24-.67-.67v-15.46c0-.43.24-.67.67-.67h4.98c3.58,0,5.82,2.15,5.82,5.35s-2.24,5.35-5.82,5.35h-2.82Zm5.8-5.35c0-1.8-1.14-2.96-3.16-2.96h-2.64v5.94h2.64c2.02,0,3.16-1.16,3.16-2.98Z"/><path d="m36.46,175.01h-6.21v3.1h6.21v-3.1Z"/><path d="m30.26,178.1h-3.12v3.16h3.12v-3.16Z"/><path d="m27.16,181.24h-3.16v6.21h3.16v-6.21Z"/><path d="m39.55,178.09h-3.1v3.1h3.1v-3.1Z"/><path d="m45.8,175h-6.23v3.16h6.23v-3.16Z"/><path d="m48.88,178.1h-3.16v3.18h3.16v-3.18Z"/><path d="m52,181.23h-3.16v6.21h3.16v-6.21Z"/><path d="m48.88,187.36h-3.16v3.18h3.16v-3.18Z"/><path d="m45.76,190.5h-3.1v3.1h3.1v-3.1Z"/><path d="m42.68,193.6h-3.12v3.16h3.12v-3.16Z"/><path d="m30.26,187.43h-3.1v3.1h3.1v-3.1Z"/><path d="m33.35,190.54h-3.1v3.1h3.1v-3.1Z"/><path d="m39.54,196.76h-3.1v3.1h3.1v-3.1Z"/><path d="m30.26,184.31v-6.21h3.16v12.42h-3.16v-6.21Z"/><path d="m33.34,185.87v-7.76h3.11v15.52h-3.11v-7.76Z"/><path d="m39.55,185.88v-7.78h3.13v15.55h-3.13v-7.78Z"/><path d="m42.6,184.31v-6.21h3.18v12.42h-3.18v-6.21Z"/><path d="m27.13,184.34v-3.11h3.32v6.21h-3.32v-3.11Z"/><path d="m45.73,184.33v-3.1h3.16v6.2h-3.16v-3.1Z"/><path d="m36.41,188.97v-7.77h3.19v15.55h-3.19v-7.77Z"/><path d="m33.34,195.18v-1.55h3.12v3.09h-3.12v-1.55Z"/><path d="m42.71,192.06v-1.54h3.04v3.07h-3.04v-1.54Z"/><path d="m39.56,195.19v-1.57h3.12v3.14h-3.12v-1.57Z"/><path d="m36.47,198.29v-1.55h3.09v3.1h-3.09v-1.55Z"/><path class="cls-7" d="m39.6,193.73v3.09h-3.19v-3.12h-3.07v-3.1h-3.08v-3.08h-3.13v-6.21h3.13v-3.13h6.19v3.1h3.1v-3.1h6.23v3.13h3.11v6.2h-3.11v3.09h-3.11v3.13h-3.07Z"/><path d="m70.46,175.01h-6.21v3.1h6.21v-3.1Z"/><path d="m64.26,178.1h-3.12v3.16h3.12v-3.16Z"/><path d="m61.16,181.24h-3.16v6.21h3.16v-6.21Z"/><path d="m73.55,178.09h-3.1v3.1h3.1v-3.1Z"/><path d="m79.8,175h-6.23v3.16h6.23v-3.16Z"/><path d="m82.88,178.1h-3.16v3.18h3.16v-3.18Z"/><path d="m86,181.23h-3.16v6.21h3.16v-6.21Z"/><path d="m82.88,187.36h-3.16v3.18h3.16v-3.18Z"/><path d="m79.76,190.5h-3.1v3.1h3.1v-3.1Z"/><path d="m76.68,193.6h-3.12v3.16h3.12v-3.16Z"/><path d="m64.26,187.43h-3.1v3.1h3.1v-3.1Z"/><path d="m67.35,190.54h-3.1v3.1h3.1v-3.1Z"/><path d="m73.54,196.76h-3.1v3.1h3.1v-3.1Z"/><path d="m64.26,184.31v-6.21h3.16v12.42h-3.16v-6.21Z"/><path d="m67.34,185.87v-7.76h3.11v15.52h-3.11v-7.76Z"/><path d="m73.55,185.88v-7.78h3.13v15.55h-3.13v-7.78Z"/><path d="m76.6,184.31v-6.21h3.18v12.42h-3.18v-6.21Z"/><path d="m61.13,184.34v-3.11h3.32v6.21h-3.32v-3.11Z"/><path d="m79.73,184.33v-3.1h3.16v6.2h-3.16v-3.1Z"/><path d="m70.41,188.97v-7.77h3.19v15.55h-3.19v-7.77Z"/><path d="m67.34,195.18v-1.55h3.12v3.09h-3.12v-1.55Z"/><path d="m76.71,192.06v-1.54h3.04v3.07h-3.04v-1.54Z"/><path d="m73.56,195.19v-1.57h3.12v3.14h-3.12v-1.57Z"/><path d="m70.47,198.29v-1.55h3.09v3.1h-3.09v-1.55Z"/><path class="cls-8" d="m73.6,193.73v3.09h-3.19v-3.12h-3.07v-3.1h-3.08v-3.08h-3.13v-6.21h3.13v-3.13h6.19v3.1h3.1v-3.1h6.23v3.13h3.11v6.2h-3.11v3.09h-3.11v3.13h-3.07Z"/><path d="m104.46,175.01h-6.21v3.1h6.21v-3.1Z"/><path d="m98.26,178.1h-3.12v3.16h3.12v-3.16Z"/><path d="m95.16,181.24h-3.16v6.21h3.16v-6.21Z"/><path d="m107.55,178.09h-3.1v3.1h3.1v-3.1Z"/><path d="m113.8,175h-6.23v3.16h6.23v-3.16Z"/><path d="m116.88,178.1h-3.16v3.18h3.16v-3.18Z"/><path d="m120,181.23h-3.16v6.21h3.16v-6.21Z"/><path d="m116.88,187.36h-3.16v3.18h3.16v-3.18Z"/><path d="m113.76,190.5h-3.1v3.1h3.1v-3.1Z"/><path d="m110.68,193.6h-3.12v3.16h3.12v-3.16Z"/><path d="m98.26,187.43h-3.1v3.1h3.1v-3.1Z"/><path d="m101.35,190.54h-3.1v3.1h3.1v-3.1Z"/><path d="m107.54,196.76h-3.1v3.1h3.1v-3.1Z"/><path d="m98.26,184.31v-6.21h3.16v12.42h-3.16v-6.21Z"/><path d="m101.34,185.87v-7.76h3.11v15.52h-3.11v-7.76Z"/><path d="m107.54,185.88v-7.78h3.12v15.55h-3.12v-7.78Z"/><path d="m110.6,184.31v-6.21h3.18v12.42h-3.18v-6.21Z"/><path d="m95.13,184.34v-3.11h3.32v6.21h-3.32v-3.11Z"/><path d="m113.73,184.33v-3.1h3.16v6.2h-3.16v-3.1Z"/><path d="m104.41,188.97v-7.77h3.19v15.55h-3.19v-7.77Z"/><path d="m101.34,195.18v-1.55h3.12v3.09h-3.12v-1.55Z"/><path d="m110.71,192.06v-1.54h3.04v3.07h-3.04v-1.54Z"/><path d="m107.56,195.19v-1.57h3.12v3.14h-3.12v-1.57Z"/><path d="m104.47,198.29v-1.55h3.09v3.1h-3.09v-1.55Z"/><path class="cls-2" d="m110.6,178.18v12.42h3.18v-3.09h3.11v-6.2h-3.11v-3.13h-3.18Z"/><path class="cls-6" d="m107.6,193.73v3.09h-3.19v-3.12h-3.07v-3.1h-3.08v-3.08h-3.13v-6.21h3.13v-3.13h6.19v3.1h3.1v-3.1h3.12v15.56h-3.07Z"/><path d="m138.46,175.01h-6.21v3.1h6.21v-3.1Z"/><path d="m132.26,178.1h-3.12v3.16h3.12v-3.16Z"/><path d="m129.16,181.24h-3.16v6.21h3.16v-6.21Z"/><path d="m141.55,178.09h-3.1v3.1h3.1v-3.1Z"/><path d="m147.8,175h-6.23v3.16h6.23v-3.16Z"/><path d="m150.88,178.1h-3.16v3.18h3.16v-3.18Z"/><path d="m154,181.23h-3.16v6.21h3.16v-6.21Z"/><path d="m150.88,187.36h-3.16v3.18h3.16v-3.18Z"/><path d="m147.76,190.5h-3.1v3.1h3.1v-3.1Z"/><path d="m144.68,193.6h-3.12v3.16h3.12v-3.16Z"/><path d="m132.26,187.43h-3.1v3.1h3.1v-3.1Z"/><path d="m135.35,190.54h-3.1v3.1h3.1v-3.1Z"/><path d="m141.54,196.76h-3.1v3.1h3.1v-3.1Z"/><path d="m132.26,184.31v-6.21h3.16v12.42h-3.16v-6.21Z"/><path d="m135.34,185.87v-7.76h3.11v15.52h-3.11v-7.76Z"/><path d="m141.54,185.88v-7.78h3.12v15.55h-3.12v-7.78Z"/><path d="m144.6,184.31v-6.21h3.18v12.42h-3.18v-6.21Z"/><path d="m129.13,184.34v-3.11h3.32v6.21h-3.32v-3.11Z"/><path d="m147.73,184.33v-3.1h3.16v6.2h-3.16v-3.1Z"/><path d="m138.41,188.97v-7.77h3.19v15.55h-3.19v-7.77Z"/><path d="m135.34,195.18v-1.55h3.12v3.09h-3.12v-1.55Z"/><path d="m144.71,192.06v-1.54h3.04v3.07h-3.04v-1.54Z"/><path d="m141.55,195.19v-1.57h3.12v3.14h-3.12v-1.57Z"/><path d="m138.47,198.29v-1.55h3.09v3.1h-3.09v-1.55Z"/><path class="cls-2" d="m141.6,193.73v3.09h-3.19v-3.12h-3.07v-3.1h-3.08v-3.08h-3.13v-6.21h3.13v-3.13h6.19v3.1h3.1v-3.1h6.23v3.13h3.11v6.2h-3.11v3.09h-3.11v3.13h-3.07Z"/><rect class="cls-9" x=".5" y=".5" width="177" height="226.87"/><path class="cls-3" d="m41.94,123.38l-2.19-8h.98l1.67,6.52h.08l1.7-6.52h1.09l1.7,6.52h.08l1.67-6.52h.98l-2.19,8h-1l-1.77-6.38h-.06l-1.77,6.38h-1Z"/><path class="cls-3" d="m52,123.52c-.38,0-.73-.07-1.04-.22s-.56-.35-.74-.63-.27-.61-.27-1c0-.34.07-.62.2-.84s.32-.38.54-.51.48-.21.75-.28.55-.11.83-.15c.36-.05.66-.08.89-.11s.39-.07.5-.13.16-.16.16-.31v-.03c0-.39-.1-.68-.31-.9s-.53-.32-.95-.32-.79.1-1.04.29-.43.4-.53.62l-.88-.31c.16-.36.37-.65.63-.85s.55-.35.86-.43.62-.12.92-.12c.19,0,.41.02.67.07s.49.14.73.28.43.35.59.64.23.66.23,1.14v3.95h-.92v-.81h-.05c-.06.13-.17.27-.31.42s-.34.27-.58.38-.54.16-.89.16Zm.14-.83c.36,0,.67-.07.92-.21s.44-.33.57-.55.19-.46.19-.71v-.84s-.12.09-.26.13-.28.07-.45.1-.34.05-.5.07-.29.04-.39.05c-.24.03-.46.08-.67.15s-.37.17-.5.31-.19.32-.19.56c0,.32.12.56.36.72s.54.24.91.24Z"/><path class="cls-3" d="m59.05,117.38v.78h-3.11v-.78h3.11Zm-2.2-1.44h.92v5.72c0,.26.04.46.12.58s.18.21.3.26.25.06.38.06c.1,0,.19,0,.25-.02s.12-.02.16-.03l.19.83c-.06.02-.15.05-.26.07s-.25.04-.43.04c-.26,0-.52-.06-.76-.17s-.45-.28-.62-.51-.24-.52-.24-.87v-5.97Z"/><path class="cls-3" d="m62.81,123.5c-.56,0-1.05-.13-1.45-.4s-.72-.63-.94-1.1-.33-1-.33-1.6.11-1.15.34-1.62.54-.83.95-1.1.88-.4,1.42-.4c.42,0,.8.08,1.14.23s.62.38.83.66.35.61.4.98h-.92c-.07-.27-.23-.52-.47-.73s-.56-.32-.97-.32c-.36,0-.67.09-.94.28s-.48.45-.63.79-.22.73-.22,1.19.07.87.22,1.21.36.61.62.8.59.29.95.29c.24,0,.46-.04.65-.12s.36-.2.5-.36.23-.34.29-.56h.92c-.05.35-.18.67-.38.96s-.47.51-.81.67-.72.25-1.17.25Z"/><path class="cls-3" d="m67.44,119.77v3.61h-.92v-8h.92v2.94h.08c.14-.31.35-.56.63-.74s.66-.28,1.13-.28c.41,0,.77.08,1.07.24s.55.41.72.75.26.76.26,1.28v3.81h-.92v-3.75c0-.48-.12-.85-.37-1.11s-.59-.39-1.02-.39c-.3,0-.57.06-.81.19s-.43.31-.56.56-.21.54-.21.89Z"/><path class="cls-3" d="m82.98,119.38c0,.84-.15,1.57-.46,2.19s-.72,1.09-1.25,1.42-1.14.5-1.82.5-1.29-.17-1.82-.5-.95-.81-1.25-1.42-.46-1.34-.46-2.19.15-1.57.46-2.19.72-1.09,1.25-1.42,1.14-.5,1.82-.5,1.29.17,1.82.5.95.81,1.25,1.42.46,1.34.46,2.19Zm-.94,0c0-.69-.12-1.28-.35-1.75s-.54-.84-.93-1.08c-.39-.25-.83-.37-1.31-.37s-.92.12-1.31.37-.7.61-.93,1.08-.35,1.06-.35,1.75.12,1.28.35,1.75.54.84.93,1.08.83.37,1.31.37.92-.12,1.31-.37c.39-.25.7-.61.93-1.08s.35-1.06.35-1.75Z"/><path class="cls-3" d="m85.41,119.77v3.61h-.92v-6h.89v.94h.08c.14-.3.35-.55.64-.74s.66-.28,1.11-.28c.41,0,.76.08,1.07.25s.54.42.71.75.25.76.25,1.27v3.81h-.92v-3.75c0-.47-.12-.84-.37-1.1s-.58-.4-1.01-.4c-.29,0-.56.06-.79.19s-.41.31-.54.56-.2.54-.2.89Z"/><path class="cls-3" d="m94.36,119.52v.86h-3.5v-.86h3.5Z"/><path class="cls-3" d="m98.58,123.38h-2.47v-8h2.58c.78,0,1.44.16,1.99.48s.98.78,1.27,1.37.44,1.31.44,2.13-.15,1.55-.45,2.15-.73,1.06-1.3,1.38-1.26.48-2.07.48Zm-1.5-.86h1.44c.66,0,1.21-.13,1.64-.38s.76-.62.97-1.09.32-1.03.32-1.68-.11-1.2-.32-1.67-.53-.83-.95-1.08-.94-.38-1.57-.38h-1.55v6.28Z"/><path class="cls-3" d="m106.41,123.5c-.58,0-1.08-.13-1.49-.38s-.74-.62-.96-1.08-.34-1-.34-1.62.11-1.16.34-1.63.54-.84.95-1.1.88-.4,1.42-.4c.31,0,.62.05.93.16s.58.27.83.51.45.54.6.92.22.85.22,1.41v.39h-4.62v-.8h3.69c0-.34-.07-.64-.2-.91s-.32-.48-.57-.63-.54-.23-.87-.23c-.37,0-.68.09-.95.27s-.47.42-.62.71-.21.6-.21.93v.53c0,.45.08.84.24,1.15s.38.55.66.71.61.24.98.24c.24,0,.46-.03.66-.1s.37-.17.51-.31.25-.31.33-.52l.89.25c-.09.3-.25.57-.47.79s-.5.41-.82.53-.69.19-1.1.19Z"/><path class="cls-3" d="m110.3,123.38v-6h.89v.94h.08c.12-.32.33-.57.61-.75s.61-.27,1-.27.73.09.99.27.47.43.62.75h.06c.15-.31.38-.56.69-.74s.68-.28,1.11-.28c.54,0,.98.17,1.32.5s.51.85.51,1.56v4.02h-.92v-4.02c0-.44-.12-.76-.36-.95s-.53-.29-.86-.29c-.42,0-.75.13-.98.38s-.35.58-.35.96v3.91h-.94v-4.11c0-.34-.11-.62-.33-.83s-.51-.31-.86-.31c-.24,0-.46.06-.67.19s-.37.3-.5.53-.19.49-.19.78v3.75h-.92Z"/><path class="cls-3" d="m121.62,123.52c-.38,0-.73-.07-1.04-.22s-.56-.35-.74-.63-.27-.61-.27-1c0-.34.07-.62.2-.84s.32-.38.54-.51.48-.21.75-.28.55-.11.83-.15c.36-.05.66-.08.89-.11s.39-.07.5-.13.16-.16.16-.31v-.03c0-.39-.1-.68-.31-.9s-.53-.32-.95-.32-.79.1-1.04.29-.43.4-.53.62l-.88-.31c.16-.36.37-.65.63-.85s.55-.35.86-.43.62-.12.92-.12c.19,0,.42.02.67.07s.5.14.73.28.43.35.59.64.23.66.23,1.14v3.95h-.92v-.81h-.05c-.06.13-.17.27-.31.42s-.34.27-.58.38-.54.16-.89.16Zm.14-.83c.36,0,.67-.07.92-.21s.44-.33.57-.55.19-.46.19-.71v-.84s-.12.09-.26.13-.28.07-.45.1-.34.05-.5.07-.29.04-.39.05c-.24.03-.46.08-.67.15s-.37.17-.5.31-.19.32-.19.56c0,.32.12.56.36.72s.54.24.91.24Z"/><path class="cls-3" d="m126.98,119.77v3.61h-.92v-6h.89v.94h.08c.14-.3.35-.55.64-.74s.66-.28,1.11-.28c.41,0,.76.08,1.07.25s.54.42.71.75.25.76.25,1.27v3.81h-.92v-3.75c0-.47-.12-.84-.37-1.1s-.58-.4-1.01-.4c-.29,0-.56.06-.79.19s-.41.31-.54.56-.2.54-.2.89Z"/><path class="cls-3" d="m134.77,123.5c-.5,0-.94-.13-1.32-.38s-.68-.61-.9-1.08-.32-1.01-.32-1.65.11-1.18.32-1.64.52-.82.9-1.07.83-.38,1.34-.38c.39,0,.7.06.93.19s.4.27.52.44.22.3.28.4h.08v-2.95h.92v8h-.89v-.92h-.11c-.07.11-.16.25-.29.41s-.3.31-.54.44-.54.19-.93.19Zm.12-.83c.37,0,.68-.1.94-.29s.45-.46.58-.81.2-.74.2-1.2-.07-.84-.2-1.18-.32-.6-.58-.79-.57-.28-.95-.28-.72.1-.97.3-.45.47-.58.81-.19.72-.19,1.14.07.81.2,1.16.33.62.59.83.58.31.97.31Z"/><rect class="cls-10" x="33.1" y="104.35" width="111.81" height="31" rx="4" ry="4"/><path class="cls-5" d="m24.62,64.1v-.86h6v.86h-2.52v7.14h-.97v-7.14h-2.52Z"/><path class="cls-5" d="m32.92,67.63v3.61h-.92v-8h.92v2.94h.08c.14-.31.35-.56.63-.74s.66-.28,1.13-.28c.41,0,.77.08,1.07.24s.55.41.72.75.26.76.26,1.28v3.81h-.92v-3.75c0-.48-.12-.85-.37-1.11s-.59-.39-1.02-.39c-.3,0-.57.06-.81.19s-.43.31-.56.56-.21.54-.21.89Z"/><path class="cls-5" d="m41.01,71.36c-.58,0-1.08-.13-1.49-.38s-.74-.62-.96-1.08-.34-1-.34-1.62.11-1.16.34-1.63.54-.84.95-1.1.88-.4,1.42-.4c.31,0,.62.05.93.16s.58.27.83.51.45.54.6.92.22.85.22,1.41v.39h-4.62v-.8h3.69c0-.34-.07-.64-.2-.91s-.32-.48-.57-.63-.54-.23-.87-.23c-.37,0-.68.09-.95.27s-.47.42-.62.71-.21.6-.21.93v.53c0,.45.08.84.24,1.15s.38.55.66.71.61.24.98.24c.24,0,.46-.03.66-.1s.37-.17.51-.31.25-.31.33-.52l.89.25c-.09.3-.25.57-.47.79s-.49.4-.82.53-.69.19-1.1.19Z"/><path class="cls-5" d="m53.59,65.74c-.09-.26-.2-.5-.34-.71s-.3-.39-.5-.54-.41-.26-.65-.34-.51-.12-.8-.12c-.47,0-.9.12-1.29.37s-.7.61-.93,1.08-.34,1.06-.34,1.75.12,1.28.35,1.75.55.84.94,1.08.84.37,1.34.37c.46,0,.86-.1,1.21-.29s.62-.48.82-.84.29-.79.29-1.28l.3.06h-2.41v-.86h3.05v.86c0,.66-.14,1.23-.42,1.72s-.67.86-1.16,1.13-1.05.4-1.69.4c-.71,0-1.33-.17-1.87-.5s-.95-.81-1.25-1.42-.45-1.34-.45-2.19c0-.63.09-1.2.26-1.71s.41-.94.72-1.29.68-.63,1.11-.82.9-.29,1.41-.29c.42,0,.82.06,1.18.19s.69.3.98.54.53.51.72.82.33.67.4,1.06h-1Z"/><path class="cls-5" d="m57.09,63.24v8h-.92v-8h.92Z"/><path class="cls-5" d="m61.21,71.36c-.54,0-1.02-.13-1.42-.39s-.73-.62-.95-1.08-.34-1.01-.34-1.62.11-1.17.34-1.64.55-.83.95-1.09.88-.39,1.42-.39,1.02.13,1.42.39.73.62.95,1.09.34,1.01.34,1.64-.11,1.16-.34,1.62-.55.82-.95,1.08-.88.39-1.42.39Zm0-.83c.41,0,.75-.11,1.02-.32s.46-.49.59-.83.19-.72.19-1.12-.06-.77-.19-1.12-.32-.63-.59-.84-.6-.32-1.02-.32-.75.11-1.02.32-.46.49-.59.84-.19.72-.19,1.12.06.77.19,1.12.32.62.59.83.6.32,1.02.32Z"/><path class="cls-5" d="m65.46,71.24v-8h.92v2.95h.08c.07-.1.16-.24.28-.4s.3-.31.52-.44.54-.19.93-.19c.51,0,.95.13,1.34.38s.69.61.9,1.07.32,1.01.32,1.64-.11,1.19-.32,1.65-.52.82-.9,1.08-.82.38-1.32.38c-.39,0-.69-.06-.93-.19s-.41-.28-.54-.44-.22-.3-.29-.41h-.11v.92h-.89Zm.91-3c0,.45.07.85.2,1.2s.33.61.58.81.57.29.94.29.71-.1.97-.31.45-.48.59-.83.2-.73.2-1.16-.06-.8-.19-1.14-.32-.61-.58-.81-.58-.3-.97-.3-.69.09-.95.28-.45.45-.58.79-.2.73-.2,1.18Z"/><path class="cls-5" d="m73.93,71.38c-.38,0-.73-.07-1.04-.22s-.56-.35-.74-.63-.27-.61-.27-1c0-.34.07-.62.2-.84s.32-.38.54-.51.48-.21.75-.28.55-.11.83-.15c.36-.05.66-.08.89-.11s.39-.07.5-.13.16-.16.16-.31v-.03c0-.39-.1-.69-.31-.9s-.53-.32-.95-.32-.79.1-1.04.29-.43.4-.53.62l-.88-.31c.16-.36.37-.65.63-.85s.55-.35.86-.43.62-.12.92-.12c.19,0,.41.02.67.07s.49.14.73.28.43.35.59.64.23.66.23,1.14v3.95h-.92v-.81h-.05c-.06.13-.17.27-.31.42s-.34.27-.58.38-.54.16-.89.16Zm.14-.83c.36,0,.67-.07.92-.21s.44-.33.57-.55.19-.46.19-.71v-.84s-.12.09-.26.13-.28.07-.45.1-.34.05-.5.07-.29.04-.39.05c-.24.03-.46.08-.67.15s-.37.17-.5.31-.19.32-.19.56c0,.32.12.56.36.72s.54.24.91.24Z"/><path class="cls-5" d="m79.29,63.24v8h-.92v-8h.92Z"/><path class="cls-5" d="m85.16,63.24v8h-.97v-8h.97Z"/><path class="cls-5" d="m87.9,67.63v3.61h-.92v-6h.89v.94h.08c.14-.3.35-.55.64-.74s.66-.28,1.11-.28c.41,0,.76.08,1.07.25s.54.42.71.75.25.76.25,1.27v3.81h-.92v-3.75c0-.47-.12-.84-.37-1.1s-.58-.4-1.01-.4c-.29,0-.56.06-.79.19s-.41.31-.54.56-.2.54-.2.89Z"/><path class="cls-5" d="m96.09,65.24v.78h-3.23v-.78h3.23Zm-2.27,6v-6.83c0-.34.08-.63.24-.86s.37-.4.63-.52.53-.17.82-.17c.23,0,.41.02.55.05s.25.07.32.1l-.27.8s-.11-.04-.19-.06-.19-.04-.32-.04c-.3,0-.52.08-.66.23s-.2.38-.2.68v6.61h-.92Z"/><path class="cls-5" d="m97.38,71.24v-6h.89v.91h.06c.11-.3.31-.54.59-.72s.61-.28.97-.28c.07,0,.15,0,.25,0s.18,0,.23.01v.94s-.1-.02-.21-.04-.23-.03-.35-.03c-.29,0-.55.06-.78.18s-.41.29-.54.5-.2.45-.2.72v3.8h-.92Z"/><path class="cls-5" d="m103.24,71.38c-.38,0-.73-.07-1.04-.22s-.56-.35-.74-.63-.27-.61-.27-1c0-.34.07-.62.2-.84s.32-.38.54-.51.48-.21.75-.28.55-.11.83-.15c.36-.05.66-.08.89-.11s.39-.07.5-.13.16-.16.16-.31v-.03c0-.39-.1-.69-.31-.9s-.53-.32-.95-.32-.79.1-1.04.29-.43.4-.53.62l-.88-.31c.16-.36.37-.65.63-.85s.55-.35.86-.43.62-.12.92-.12c.19,0,.42.02.67.07s.5.14.73.28.43.35.59.64.23.66.23,1.14v3.95h-.92v-.81h-.05c-.06.13-.17.27-.31.42s-.34.27-.58.38-.54.16-.89.16Zm.14-.83c.36,0,.67-.07.92-.21s.44-.33.57-.55.19-.46.19-.71v-.84s-.12.09-.26.13-.28.07-.45.1-.34.05-.5.07-.29.04-.39.05c-.24.03-.46.08-.67.15s-.37.17-.5.31-.19.32-.19.56c0,.32.12.56.36.72s.54.24.91.24Z"/><path class="cls-5" d="m111.93,66.58l-.83.23c-.05-.14-.13-.27-.23-.4s-.24-.24-.41-.33-.39-.13-.66-.13c-.37,0-.67.08-.92.25s-.37.38-.37.64c0,.23.08.41.25.54s.43.24.78.33l.89.22c.54.13.94.33,1.2.6s.39.61.39,1.03c0,.34-.1.65-.29.92s-.47.48-.82.64-.76.23-1.23.23c-.61,0-1.12-.13-1.52-.4s-.66-.65-.76-1.16l.88-.22c.08.32.24.56.47.73s.54.24.92.24c.43,0,.77-.09,1.03-.28s.38-.4.38-.66c0-.21-.07-.38-.22-.53s-.37-.25-.67-.32l-1-.23c-.55-.13-.95-.33-1.21-.61s-.38-.62-.38-1.03c0-.34.1-.64.29-.9s.45-.46.79-.61.71-.22,1.13-.22c.59,0,1.06.13,1.4.39s.58.6.72,1.03Z"/><path class="cls-5" d="m116.04,65.24v.78h-3.11v-.78h3.11Zm-2.2-1.44h.92v5.72c0,.26.04.46.12.58s.18.21.3.26.25.06.38.06c.1,0,.18,0,.25-.02s.12-.02.16-.03l.19.83c-.06.02-.15.05-.26.07s-.25.04-.43.04c-.26,0-.51-.06-.76-.17s-.45-.28-.62-.51-.24-.52-.24-.87v-5.97Z"/><path class="cls-5" d="m117.43,71.24v-6h.89v.91h.06c.11-.3.31-.54.59-.72s.61-.28.97-.28c.07,0,.15,0,.25,0s.18,0,.23.01v.94s-.1-.02-.21-.04-.23-.03-.35-.03c-.29,0-.55.06-.78.18s-.41.29-.54.5-.2.45-.2.72v3.8h-.92Z"/><path class="cls-5" d="m125.3,68.78v-3.55h.92v6h-.92v-1.02h-.06c-.14.3-.36.56-.66.78s-.67.32-1.12.32c-.38,0-.71-.08-1-.25s-.52-.42-.69-.75-.25-.76-.25-1.27v-3.81h.92v3.75c0,.44.12.79.37,1.05s.56.39.94.39c.23,0,.46-.06.7-.18s.44-.3.6-.54.24-.55.24-.93Z"/><path class="cls-5" d="m130.35,71.36c-.56,0-1.05-.13-1.45-.4s-.72-.63-.94-1.1-.33-1-.33-1.6.11-1.15.34-1.62.54-.83.95-1.1.88-.4,1.42-.4c.42,0,.8.08,1.14.23s.62.38.83.66.35.61.4.98h-.92c-.07-.27-.23-.52-.47-.73s-.56-.32-.97-.32c-.36,0-.67.09-.94.28s-.48.45-.63.79-.22.73-.22,1.19.07.87.22,1.21.36.61.62.8.59.29.95.29c.24,0,.46-.04.65-.12s.36-.2.5-.36.23-.34.29-.56h.92c-.05.35-.18.67-.38.96s-.47.51-.81.67-.72.25-1.17.25Z"/><path class="cls-5" d="m136.66,65.24v.78h-3.11v-.78h3.11Zm-2.2-1.44h.92v5.72c0,.26.04.46.12.58s.18.21.3.26.25.06.38.06c.1,0,.18,0,.25-.02s.12-.02.16-.03l.19.83c-.06.02-.15.05-.26.07s-.25.04-.43.04c-.26,0-.51-.06-.76-.17s-.45-.28-.62-.51-.24-.52-.24-.87v-5.97Z"/><path class="cls-5" d="m141.84,68.78v-3.55h.92v6h-.92v-1.02h-.06c-.14.3-.36.56-.66.78s-.67.32-1.12.32c-.38,0-.71-.08-1-.25s-.52-.42-.69-.75-.25-.76-.25-1.27v-3.81h.92v3.75c0,.44.12.79.37,1.05s.56.39.94.39c.23,0,.46-.06.7-.18s.44-.3.6-.54.24-.55.24-.93Z"/><path class="cls-5" d="m144.45,71.24v-6h.89v.91h.06c.11-.3.31-.54.59-.72s.61-.28.97-.28c.07,0,.15,0,.25,0s.18,0,.23.01v.94s-.1-.02-.21-.04-.23-.03-.35-.03c-.29,0-.55.06-.78.18s-.41.29-.54.5-.2.45-.2.72v3.8h-.92Z"/><path class="cls-5" d="m150.87,71.36c-.58,0-1.08-.13-1.49-.38s-.74-.62-.96-1.08-.34-1-.34-1.62.11-1.16.34-1.63.54-.84.95-1.1.88-.4,1.42-.4c.31,0,.62.05.93.16s.58.27.83.51.45.54.6.92.22.85.22,1.41v.39h-4.62v-.8h3.69c0-.34-.07-.64-.2-.91s-.32-.48-.57-.63-.54-.23-.87-.23c-.37,0-.68.09-.95.27s-.47.42-.62.71-.21.6-.21.93v.53c0,.45.08.84.24,1.15s.38.55.66.71.61.24.98.24c.24,0,.46-.03.66-.1s.37-.17.51-.31.25-.31.33-.52l.89.25c-.09.3-.25.57-.47.79s-.5.4-.82.53-.69.19-1.1.19Z"/><path class="cls-5" d="m38.43,84.58c-.38,0-.73-.07-1.04-.22s-.56-.35-.74-.63-.27-.61-.27-1c0-.34.07-.62.2-.84s.32-.38.54-.51.48-.21.75-.28.55-.11.83-.15c.36-.05.66-.08.89-.11s.39-.07.5-.13.16-.16.16-.31v-.03c0-.39-.1-.69-.31-.9s-.53-.32-.95-.32-.79.1-1.04.29-.43.4-.53.62l-.88-.31c.16-.36.37-.65.63-.85s.55-.35.86-.43.62-.12.92-.12c.19,0,.41.02.67.07s.49.14.73.28.43.35.59.64.23.66.23,1.14v3.95h-.92v-.81h-.05c-.06.13-.17.27-.31.42s-.34.27-.58.38-.54.16-.89.16Zm.14-.83c.36,0,.67-.07.92-.21s.44-.33.57-.55.19-.46.19-.71v-.84s-.12.09-.26.13-.28.07-.45.1-.34.05-.5.07-.29.04-.39.05c-.24.03-.46.08-.67.15s-.37.17-.5.31-.19.32-.19.56c0,.32.12.56.36.72s.54.24.91.24Z"/><path class="cls-5" d="m47.12,79.78l-.83.23c-.05-.14-.13-.27-.23-.4s-.24-.24-.41-.33-.39-.13-.66-.13c-.37,0-.67.08-.92.25s-.37.38-.37.64c0,.23.08.41.25.54s.43.24.78.33l.89.22c.54.13.94.33,1.2.6s.39.61.39,1.03c0,.34-.1.65-.29.92s-.47.48-.82.64-.76.23-1.23.23c-.61,0-1.12-.13-1.52-.4s-.65-.65-.76-1.16l.88-.22c.08.32.24.56.47.73s.54.24.92.24c.43,0,.77-.09,1.03-.28s.38-.4.38-.66c0-.21-.07-.38-.22-.53s-.37-.25-.67-.32l-1-.23c-.55-.13-.95-.33-1.21-.61s-.38-.62-.38-1.03c0-.34.1-.64.29-.9s.45-.46.79-.61.71-.22,1.13-.22c.59,0,1.06.13,1.4.39s.58.6.72,1.03Z"/><path class="cls-5" d="m58.27,78.94h-.97c-.06-.28-.16-.52-.3-.73s-.31-.39-.52-.53-.43-.25-.67-.33-.5-.11-.77-.11c-.48,0-.92.12-1.31.37s-.7.61-.93,1.08-.35,1.06-.35,1.75.12,1.28.35,1.75.54.84.93,1.08.83.37,1.31.37c.27,0,.52-.04.77-.11s.47-.18.67-.33.37-.32.52-.54.24-.46.3-.73h.97c-.07.41-.21.77-.4,1.1s-.43.6-.72.82-.61.4-.96.51-.73.18-1.14.18c-.68,0-1.29-.17-1.82-.5s-.95-.81-1.25-1.42-.46-1.34-.46-2.19.15-1.57.46-2.19.72-1.09,1.25-1.42,1.14-.5,1.82-.5c.4,0,.78.06,1.14.18s.68.29.96.51.53.5.72.82.33.69.4,1.1Z"/><path class="cls-5" d="m62.15,84.56c-.54,0-1.02-.13-1.42-.39s-.73-.62-.95-1.08-.34-1.01-.34-1.62.11-1.17.34-1.64.55-.83.95-1.09.88-.39,1.42-.39,1.02.13,1.42.39.73.62.95,1.09.34,1.01.34,1.64-.11,1.16-.34,1.62-.55.82-.95,1.08-.88.39-1.42.39Zm0-.83c.41,0,.75-.11,1.02-.32s.46-.49.59-.83.19-.72.19-1.12-.06-.77-.19-1.12-.32-.63-.59-.84-.6-.32-1.02-.32-.75.11-1.02.32-.46.49-.59.84-.19.72-.19,1.12.06.77.19,1.12.32.62.59.83.6.32,1.02.32Z"/><path class="cls-5" d="m68.54,84.56c-.5,0-.94-.13-1.32-.38s-.68-.61-.9-1.08-.32-1.02-.32-1.65.11-1.18.32-1.64.52-.82.9-1.07.83-.38,1.34-.38c.39,0,.7.06.93.19s.4.27.52.44.22.3.28.4h.08v-2.95h.92v8h-.89v-.92h-.11c-.07.11-.16.25-.29.41s-.3.31-.54.44-.54.19-.93.19Zm.12-.83c.37,0,.68-.1.94-.29s.45-.46.58-.81.2-.74.2-1.2-.06-.84-.2-1.18-.32-.6-.58-.79-.57-.28-.95-.28-.72.1-.97.3-.45.47-.58.81-.19.72-.19,1.14.07.81.2,1.16.33.62.59.83.58.31.97.31Z"/><path class="cls-5" d="m75.62,84.56c-.58,0-1.08-.13-1.49-.38s-.74-.62-.96-1.08-.34-1-.34-1.62.11-1.16.34-1.63.54-.84.95-1.1.88-.4,1.42-.4c.31,0,.62.05.93.16s.58.27.83.51.45.54.6.92.22.85.22,1.41v.39h-4.62v-.8h3.69c0-.34-.07-.64-.2-.91s-.32-.48-.57-.63-.54-.23-.87-.23c-.37,0-.68.09-.95.27s-.47.42-.62.71-.21.6-.21.93v.53c0,.45.08.84.24,1.15s.38.55.66.71.61.24.98.24c.24,0,.46-.03.66-.1s.37-.17.51-.31.25-.31.33-.52l.89.25c-.09.3-.25.57-.47.79s-.49.4-.82.53-.69.19-1.1.19Z"/><path class="cls-5" d="m89.16,78.94h-.97c-.06-.28-.16-.52-.3-.73s-.31-.39-.52-.53-.42-.25-.67-.33-.5-.11-.77-.11c-.48,0-.92.12-1.31.37s-.7.61-.93,1.08-.35,1.06-.35,1.75.12,1.28.35,1.75.54.84.93,1.08.83.37,1.31.37c.27,0,.52-.04.77-.11s.47-.18.67-.33.37-.32.52-.54.24-.46.3-.73h.97c-.07.41-.21.77-.4,1.1s-.43.6-.72.82-.61.4-.96.51-.74.18-1.14.18c-.68,0-1.29-.17-1.82-.5s-.95-.81-1.25-1.42-.46-1.34-.46-2.19.15-1.57.46-2.19.72-1.09,1.25-1.42,1.14-.5,1.82-.5c.4,0,.78.06,1.14.18s.68.29.96.51.53.5.72.82.33.69.4,1.1Z"/><path class="cls-5" d="m93.04,84.56c-.54,0-1.02-.13-1.42-.39s-.73-.62-.95-1.08-.34-1.01-.34-1.62.11-1.17.34-1.64.55-.83.95-1.09.88-.39,1.42-.39,1.02.13,1.42.39.73.62.95,1.09.34,1.01.34,1.64-.11,1.16-.34,1.62-.55.82-.95,1.08-.88.39-1.42.39Zm0-.83c.41,0,.75-.11,1.02-.32s.46-.49.59-.83.19-.72.19-1.12-.06-.77-.19-1.12-.32-.63-.59-.84-.6-.32-1.02-.32-.75.11-1.02.32-.46.49-.59.84-.19.72-.19,1.12.06.77.19,1.12.32.62.59.83.6.32,1.02.32Z"/><path class="cls-5" d="m98.09,80.83v3.61h-.92v-6h.89v.94h.08c.14-.3.35-.55.64-.74s.66-.28,1.11-.28c.41,0,.76.08,1.07.25s.54.42.71.75.25.76.25,1.27v3.81h-.92v-3.75c0-.47-.12-.84-.37-1.1s-.58-.4-1.01-.4c-.29,0-.56.06-.79.19s-.41.31-.54.56-.2.54-.2.89Z"/><path class="cls-5" d="m106.27,78.44v.78h-3.23v-.78h3.23Zm-2.27,6v-6.83c0-.34.08-.63.24-.86s.37-.4.63-.52.53-.17.82-.17c.23,0,.41.02.55.05s.25.07.32.1l-.27.8s-.11-.04-.19-.06-.19-.04-.32-.04c-.3,0-.52.08-.66.23s-.2.38-.2.68v6.61h-.92Z"/><path class="cls-5" d="m109.84,84.56c-.58,0-1.08-.13-1.49-.38s-.74-.62-.96-1.08-.34-1-.34-1.62.11-1.16.34-1.63.54-.84.95-1.1.88-.4,1.42-.4c.31,0,.62.05.93.16s.58.27.83.51.45.54.6.92.22.85.22,1.41v.39h-4.62v-.8h3.69c0-.34-.07-.64-.2-.91s-.32-.48-.57-.63-.54-.23-.87-.23c-.37,0-.68.09-.95.27s-.47.42-.62.71-.21.6-.21.93v.53c0,.45.08.84.24,1.15s.38.55.66.71.61.24.98.24c.24,0,.46-.03.66-.1s.37-.17.51-.31.25-.31.33-.52l.89.25c-.09.3-.25.57-.47.79s-.5.4-.82.53-.69.19-1.1.19Z"/><path class="cls-5" d="m113.73,84.44v-6h.89v.91h.06c.11-.3.31-.54.59-.72s.61-.28.97-.28c.07,0,.15,0,.25,0s.18,0,.23.01v.94s-.1-.02-.21-.04-.23-.03-.35-.03c-.29,0-.55.06-.78.18s-.41.29-.54.5-.2.45-.2.72v3.8h-.92Z"/><path class="cls-5" d="m120.15,84.56c-.58,0-1.08-.13-1.49-.38s-.74-.62-.96-1.08-.34-1-.34-1.62.11-1.16.34-1.63.54-.84.95-1.1.88-.4,1.42-.4c.31,0,.62.05.93.16s.58.27.83.51.45.54.6.92.22.85.22,1.41v.39h-4.62v-.8h3.69c0-.34-.07-.64-.2-.91s-.32-.48-.57-.63-.54-.23-.87-.23c-.37,0-.68.09-.95.27s-.47.42-.62.71-.21.6-.21.93v.53c0,.45.08.84.24,1.15s.38.55.66.71.61.24.98.24c.24,0,.46-.03.66-.1s.37-.17.51-.31.25-.31.33-.52l.89.25c-.09.3-.25.57-.47.79s-.5.4-.82.53-.69.19-1.1.19Z"/><path class="cls-5" d="m124.96,80.83v3.61h-.92v-6h.89v.94h.08c.14-.3.35-.55.64-.74s.66-.28,1.11-.28c.41,0,.76.08,1.07.25s.54.42.71.75.25.76.25,1.27v3.81h-.92v-3.75c0-.47-.12-.84-.37-1.1s-.58-.4-1.01-.4c-.29,0-.56.06-.79.19s-.41.31-.54.56-.2.54-.2.89Z"/><path class="cls-5" d="m132.91,84.56c-.56,0-1.05-.13-1.45-.4s-.72-.63-.94-1.1-.33-1-.33-1.6.11-1.15.34-1.62.54-.83.95-1.1.88-.4,1.42-.4c.42,0,.8.08,1.14.23s.62.38.83.66.35.61.4.98h-.92c-.07-.27-.23-.52-.47-.73s-.56-.32-.97-.32c-.36,0-.67.09-.94.28s-.48.45-.63.79-.22.73-.22,1.19.07.87.22,1.21.36.61.62.8.59.29.95.29c.24,0,.46-.04.65-.12s.36-.2.5-.36.23-.34.29-.56h.92c-.05.35-.18.67-.38.96s-.47.51-.81.67-.72.25-1.17.25Z"/><path class="cls-5" d="m139.13,84.56c-.58,0-1.08-.13-1.49-.38s-.74-.62-.96-1.08-.34-1-.34-1.62.11-1.16.34-1.63.54-.84.95-1.1.88-.4,1.42-.4c.31,0,.62.05.93.16s.58.27.83.51.45.54.6.92.22.85.22,1.41v.39h-4.62v-.8h3.69c0-.34-.07-.64-.2-.91s-.32-.48-.57-.63-.54-.23-.87-.23c-.37,0-.68.09-.95.27s-.47.42-.62.71-.21.6-.21.93v.53c0,.45.08.84.24,1.15s.38.55.66.71.61.24.98.24c.24,0,.46-.03.66-.1s.37-.17.51-.31.25-.31.33-.52l.89.25c-.09.3-.25.57-.47.79s-.5.4-.82.53-.69.19-1.1.19Z"/></svg>