<svg width="178" height="228" viewBox="0 0 178 228" fill="none" xmlns="http://www.w3.org/2000/svg">
<rect x="0.5" y="0.5" width="177" height="226.866" fill="white"/>
<path d="M38.752 41.904V47.328C38.752 47.76 38.512 48 38.08 48H36.592C36.16 48 35.92 47.76 35.92 47.328V31.872C35.92 31.44 36.16 31.2 36.592 31.2H41.572C45.148 31.2 47.392 33.348 47.392 36.552C47.392 39.768 45.148 41.904 41.572 41.904H38.752ZM44.548 36.552C44.548 34.752 43.408 33.588 41.392 33.588H38.752V39.528H41.392C43.408 39.528 44.548 38.364 44.548 36.552ZM54.6226 48.276C51.6346 48.276 49.6546 46.296 49.6546 43.236V36.24C49.6546 35.808 49.8946 35.568 50.3266 35.568H51.7186C52.1506 35.568 52.3906 35.808 52.3906 36.24V42.996C52.3906 44.676 53.5306 45.852 55.1866 45.852C56.9146 45.852 58.4026 44.4 58.4026 42.336V36.24C58.4026 35.808 58.6426 35.568 59.0746 35.568H60.4786C60.9106 35.568 61.1506 35.808 61.1506 36.24V47.328C61.1506 47.76 60.9106 48 60.4786 48H59.0746C58.6426 48 58.4026 47.76 58.4026 47.328V46.356C57.5626 47.496 56.2066 48.276 54.6226 48.276ZM64.6761 31.152C64.6761 30.72 64.9161 30.48 65.3481 30.48H66.7401C67.1721 30.48 67.4121 30.72 67.4121 31.152V47.328C67.4121 47.76 67.1721 48 66.7401 48H65.3481C64.9161 48 64.6761 47.76 64.6761 47.328V31.152ZM75.6694 48.276C72.6814 48.276 70.7014 46.296 70.7014 43.236V36.24C70.7014 35.808 70.9414 35.568 71.3734 35.568H72.7654C73.1974 35.568 73.4374 35.808 73.4374 36.24V42.996C73.4374 44.676 74.5774 45.852 76.2334 45.852C77.9614 45.852 79.4494 44.4 79.4494 42.336V36.24C79.4494 35.808 79.6894 35.568 80.1214 35.568H81.5254C81.9574 35.568 82.1974 35.808 82.1974 36.24V47.328C82.1974 47.76 81.9574 48 81.5254 48H80.1214C79.6894 48 79.4494 47.76 79.4494 47.328V46.356C78.6094 47.496 77.2534 48.276 75.6694 48.276ZM100.207 35.28C102.907 35.28 104.971 37.272 104.971 40.332V47.328C104.971 47.76 104.731 48 104.299 48H102.895C102.463 48 102.223 47.76 102.223 47.328V40.572C102.223 38.892 101.179 37.716 99.643 37.716C98.095 37.716 96.631 39.276 96.631 41.16V47.328C96.631 47.76 96.391 48 95.959 48H94.555C94.123 48 93.883 47.76 93.883 47.328V40.572C93.883 38.892 92.839 37.716 91.303 37.716C89.827 37.716 88.291 39.132 88.291 41.16V47.328C88.291 47.76 88.051 48 87.619 48H86.215C85.783 48 85.543 47.76 85.543 47.328V36.24C85.543 35.808 85.783 35.568 86.215 35.568H87.619C88.051 35.568 88.291 35.808 88.291 36.24V37.188C89.155 36.036 90.415 35.28 91.867 35.28C93.739 35.28 95.311 36.252 96.091 37.86C96.919 36.3 98.431 35.28 100.207 35.28ZM107.922 32.184C107.922 31.236 108.654 30.504 109.614 30.504C110.574 30.504 111.318 31.236 111.318 32.184C111.318 33.12 110.574 33.852 109.614 33.852C108.654 33.852 107.922 33.12 107.922 32.184ZM108.246 36.24C108.246 35.808 108.486 35.568 108.918 35.568H110.31C110.742 35.568 110.982 35.808 110.982 36.24V47.328C110.982 47.76 110.742 48 110.31 48H108.918C108.486 48 108.246 47.76 108.246 47.328V36.24ZM127.052 42.192C127.052 45.852 124.304 48.264 120.836 48.264C117.368 48.264 114.62 45.852 114.62 42.192V31.872C114.62 31.44 114.86 31.2 115.292 31.2H116.78C117.212 31.2 117.452 31.44 117.452 31.872V42.384C117.452 44.436 118.94 45.78 120.836 45.78C122.744 45.78 124.22 44.436 124.22 42.384V31.872C124.22 31.44 124.46 31.2 124.892 31.2H126.38C126.812 31.2 127.052 31.44 127.052 31.872V42.192ZM133.58 41.904V47.328C133.58 47.76 133.34 48 132.908 48H131.42C130.988 48 130.748 47.76 130.748 47.328V31.872C130.748 31.44 130.988 31.2 131.42 31.2H136.4C139.976 31.2 142.22 33.348 142.22 36.552C142.22 39.768 139.976 41.904 136.4 41.904H133.58ZM139.376 36.552C139.376 34.752 138.236 33.588 136.22 33.588H133.58V39.528H136.22C138.236 39.528 139.376 38.364 139.376 36.552Z" fill="#131314"/>
<path d="M53.3977 65.2727H54.4545V71.5114C54.4545 72.0682 54.3523 72.5412 54.1477 72.9304C53.9432 73.3196 53.6548 73.6151 53.2827 73.8168C52.9105 74.0185 52.4716 74.1193 51.9659 74.1193C51.4886 74.1193 51.0639 74.0327 50.6918 73.8594C50.3196 73.6832 50.027 73.4332 49.8139 73.1094C49.6009 72.7855 49.4943 72.4006 49.4943 71.9545H50.5341C50.5341 72.2017 50.5952 72.4176 50.7173 72.6023C50.8423 72.7841 51.0128 72.9261 51.2287 73.0284C51.4446 73.1307 51.6903 73.1818 51.9659 73.1818C52.2699 73.1818 52.5284 73.1179 52.7415 72.9901C52.9545 72.8622 53.1165 72.6747 53.2273 72.4276C53.3409 72.1776 53.3977 71.8722 53.3977 71.5114V65.2727ZM60.5611 71.3239V67.4545H61.5668V74H60.5611V72.892H60.4929C60.3395 73.2244 60.1009 73.5071 59.777 73.7401C59.4531 73.9702 59.044 74.0852 58.5497 74.0852C58.1406 74.0852 57.777 73.9957 57.4588 73.8168C57.1406 73.6349 56.8906 73.3622 56.7088 72.9986C56.527 72.6321 56.4361 72.1705 56.4361 71.6136V67.4545H57.4418V71.5455C57.4418 72.0227 57.5753 72.4034 57.8423 72.6875C58.1122 72.9716 58.456 73.1136 58.8736 73.1136C59.1236 73.1136 59.3778 73.0497 59.6364 72.9219C59.8977 72.794 60.1165 72.598 60.2926 72.3338C60.4716 72.0696 60.5611 71.733 60.5611 71.3239ZM64.4144 70.0625V74H63.4087V67.4545H64.3803V68.4773H64.4656C64.619 68.1449 64.8519 67.8778 65.1644 67.6761C65.4769 67.4716 65.8803 67.3693 66.3746 67.3693C66.8178 67.3693 67.2056 67.4602 67.538 67.642C67.8704 67.821 68.1289 68.0938 68.3136 68.4602C68.4982 68.8239 68.5906 69.2841 68.5906 69.8409V74H67.5849V69.9091C67.5849 69.3949 67.4513 68.9943 67.1843 68.7074C66.9173 68.4176 66.5508 68.2727 66.0849 68.2727C65.7638 68.2727 65.4769 68.3423 65.2241 68.4815C64.9741 68.6207 64.7766 68.8239 64.6317 69.0909C64.4869 69.358 64.4144 69.6818 64.4144 70.0625ZM73.1726 74.1364C72.5419 74.1364 71.9979 73.9972 71.5405 73.7188C71.0859 73.4375 70.7351 73.0455 70.4879 72.5426C70.2436 72.0369 70.1214 71.4489 70.1214 70.7784C70.1214 70.108 70.2436 69.517 70.4879 69.0057C70.7351 68.4915 71.0788 68.0909 71.5192 67.804C71.9624 67.5142 72.4794 67.3693 73.0703 67.3693C73.4112 67.3693 73.7479 67.4261 74.0803 67.5398C74.4126 67.6534 74.7152 67.8381 74.9879 68.0938C75.2607 68.3466 75.478 68.6818 75.6399 69.0994C75.8018 69.517 75.8828 70.0312 75.8828 70.642V71.0682H70.8374V70.1989H74.8601C74.8601 69.8295 74.7862 69.5 74.6385 69.2102C74.4936 68.9205 74.2862 68.6918 74.0163 68.5241C73.7493 68.3565 73.4339 68.2727 73.0703 68.2727C72.6697 68.2727 72.3232 68.3722 72.0305 68.571C71.7408 68.767 71.5178 69.0227 71.3615 69.3381C71.2053 69.6534 71.1271 69.9915 71.1271 70.3523V70.9318C71.1271 71.4261 71.2124 71.8452 71.3828 72.1889C71.5561 72.5298 71.7962 72.7898 72.103 72.9688C72.4098 73.1449 72.7663 73.233 73.1726 73.233C73.4368 73.233 73.6754 73.196 73.8885 73.1222C74.1044 73.0455 74.2905 72.9318 74.4467 72.7812C74.603 72.6278 74.7237 72.4375 74.8089 72.2102L75.7805 72.483C75.6783 72.8125 75.5064 73.1023 75.2649 73.3523C75.0234 73.5994 74.7251 73.7926 74.37 73.9318C74.0149 74.0682 73.6158 74.1364 73.1726 74.1364ZM83.8388 65.2727V74H82.782V66.3807H82.7308L80.6001 67.7955V66.7216L82.782 65.2727H83.8388ZM89.076 74.1193C88.576 74.1193 88.1257 74.0199 87.7251 73.821C87.3246 73.6222 87.0036 73.3494 86.7621 73.0028C86.5206 72.6562 86.3885 72.2614 86.3658 71.8182H87.3885C87.4283 72.2131 87.6072 72.5398 87.9254 72.7983C88.2464 73.054 88.63 73.1818 89.076 73.1818C89.4339 73.1818 89.7521 73.098 90.0305 72.9304C90.3118 72.7628 90.532 72.5327 90.6911 72.2401C90.853 71.9446 90.9339 71.6108 90.9339 71.2386C90.9339 70.858 90.8501 70.5185 90.6825 70.2202C90.5178 69.919 90.2905 69.6818 90.0007 69.5085C89.7109 69.3352 89.38 69.2472 89.0078 69.2443C88.7408 69.2415 88.4666 69.2827 88.1854 69.3679C87.9041 69.4503 87.6726 69.5568 87.4908 69.6875L86.5021 69.5682L87.0305 65.2727H91.5646V66.2102H87.9169L87.6101 68.7841H87.6612C87.8402 68.642 88.0646 68.5241 88.3345 68.4304C88.6044 68.3366 88.8857 68.2898 89.1783 68.2898C89.7124 68.2898 90.1882 68.4176 90.6058 68.6733C91.0263 68.9261 91.3558 69.2727 91.5945 69.7131C91.8359 70.1534 91.9567 70.6562 91.9567 71.2216C91.9567 71.7784 91.8317 72.2756 91.5817 72.7131C91.3345 73.1477 90.9936 73.4915 90.5589 73.7443C90.1243 73.9943 89.63 74.1193 89.076 74.1193ZM94.8384 72.8068L94.7702 73.267C94.7219 73.5909 94.6481 73.9375 94.5487 74.3068C94.4521 74.6761 94.3512 75.0241 94.2461 75.3509C94.141 75.6776 94.0543 75.9375 93.9862 76.1307H93.2191C93.256 75.9489 93.3043 75.7088 93.364 75.4105C93.4237 75.1122 93.4833 74.7784 93.543 74.4091C93.6055 74.0426 93.6566 73.6676 93.6964 73.2841L93.7475 72.8068H94.8384ZM100.06 74V73.233L102.94 70.0795C103.278 69.7102 103.557 69.3892 103.776 69.1165C103.994 68.8409 104.156 68.5824 104.261 68.3409C104.369 68.0966 104.423 67.8409 104.423 67.5739C104.423 67.267 104.349 67.0014 104.202 66.777C104.057 66.5526 103.858 66.3793 103.605 66.2571C103.352 66.1349 103.068 66.0739 102.753 66.0739C102.418 66.0739 102.125 66.1435 101.875 66.2827C101.628 66.419 101.436 66.6108 101.3 66.858C101.166 67.1051 101.099 67.3949 101.099 67.7273H100.094C100.094 67.2159 100.212 66.767 100.447 66.3807C100.683 65.9943 101.004 65.6932 101.411 65.4773C101.82 65.2614 102.278 65.1534 102.787 65.1534C103.298 65.1534 103.751 65.2614 104.146 65.4773C104.541 65.6932 104.851 65.9844 105.075 66.3509C105.3 66.7173 105.412 67.125 105.412 67.5739C105.412 67.8949 105.354 68.2088 105.237 68.5156C105.124 68.8196 104.925 69.1591 104.641 69.5341C104.359 69.9062 103.969 70.3608 103.469 70.8977L101.509 72.9943V73.0625H105.565V74H100.06ZM110.172 74.1193C109.53 74.1193 108.983 73.9446 108.531 73.5952C108.08 73.2429 107.734 72.733 107.496 72.0653C107.257 71.3949 107.138 70.5852 107.138 69.6364C107.138 68.6932 107.257 67.8878 107.496 67.2202C107.737 66.5497 108.084 66.0384 108.536 65.6861C108.99 65.331 109.536 65.1534 110.172 65.1534C110.808 65.1534 111.352 65.331 111.804 65.6861C112.259 66.0384 112.605 66.5497 112.844 67.2202C113.085 67.8878 113.206 68.6932 113.206 69.6364C113.206 70.5852 113.087 71.3949 112.848 72.0653C112.609 72.733 112.264 73.2429 111.812 73.5952C111.361 73.9446 110.814 74.1193 110.172 74.1193ZM110.172 73.1818C110.808 73.1818 111.303 72.875 111.655 72.2614C112.007 71.6477 112.183 70.7727 112.183 69.6364C112.183 68.8807 112.102 68.2372 111.94 67.706C111.781 67.1747 111.551 66.7699 111.25 66.4915C110.952 66.2131 110.592 66.0739 110.172 66.0739C109.541 66.0739 109.048 66.3849 108.693 67.0071C108.338 67.6264 108.161 68.5028 108.161 69.6364C108.161 70.392 108.24 71.0341 108.399 71.5625C108.558 72.0909 108.787 72.4929 109.085 72.7685C109.386 73.044 109.749 73.1818 110.172 73.1818ZM114.825 74V73.233L117.706 70.0795C118.044 69.7102 118.322 69.3892 118.541 69.1165C118.76 68.8409 118.922 68.5824 119.027 68.3409C119.135 68.0966 119.189 67.8409 119.189 67.5739C119.189 67.267 119.115 67.0014 118.967 66.777C118.822 66.5526 118.624 66.3793 118.371 66.2571C118.118 66.1349 117.834 66.0739 117.518 66.0739C117.183 66.0739 116.891 66.1435 116.641 66.2827C116.393 66.419 116.202 66.6108 116.065 66.858C115.932 67.1051 115.865 67.3949 115.865 67.7273H114.859C114.859 67.2159 114.977 66.767 115.213 66.3807C115.449 65.9943 115.77 65.6932 116.176 65.4773C116.585 65.2614 117.044 65.1534 117.553 65.1534C118.064 65.1534 118.517 65.2614 118.912 65.4773C119.307 65.6932 119.616 65.9844 119.841 66.3509C120.065 66.7173 120.178 67.125 120.178 67.5739C120.178 67.8949 120.119 68.2088 120.003 68.5156C119.889 68.8196 119.69 69.1591 119.406 69.5341C119.125 69.9062 118.734 70.3608 118.234 70.8977L116.274 72.9943V73.0625H120.331V74H114.825ZM125.04 74.1193C124.477 74.1193 123.976 74.0227 123.536 73.8295C123.098 73.6364 122.75 73.3679 122.491 73.0241C122.236 72.6776 122.097 72.2756 122.074 71.8182H123.148C123.17 72.0994 123.267 72.3423 123.438 72.5469C123.608 72.7486 123.831 72.9048 124.107 73.0156C124.382 73.1264 124.688 73.1818 125.023 73.1818C125.398 73.1818 125.73 73.1165 126.02 72.9858C126.31 72.8551 126.537 72.6733 126.702 72.4403C126.866 72.2074 126.949 71.9375 126.949 71.6307C126.949 71.3097 126.869 71.027 126.71 70.7827C126.551 70.5355 126.318 70.3423 126.011 70.2031C125.705 70.0639 125.33 69.9943 124.886 69.9943H124.188V69.0568H124.886C125.233 69.0568 125.537 68.9943 125.798 68.8693C126.063 68.7443 126.268 68.5682 126.416 68.3409C126.567 68.1136 126.642 67.8466 126.642 67.5398C126.642 67.2443 126.577 66.9872 126.446 66.7685C126.315 66.5497 126.131 66.3793 125.892 66.2571C125.656 66.1349 125.378 66.0739 125.057 66.0739C124.756 66.0739 124.472 66.1293 124.205 66.2401C123.94 66.348 123.724 66.5057 123.557 66.7131C123.389 66.9176 123.298 67.1648 123.284 67.4545H122.261C122.278 66.9972 122.416 66.5966 122.675 66.2528C122.933 65.9062 123.271 65.6364 123.689 65.4432C124.109 65.25 124.571 65.1534 125.074 65.1534C125.614 65.1534 126.077 65.2628 126.463 65.4815C126.849 65.6974 127.146 65.983 127.354 66.3381C127.561 66.6932 127.665 67.0767 127.665 67.4886C127.665 67.9801 127.536 68.3991 127.277 68.7457C127.021 69.0923 126.673 69.3324 126.233 69.4659V69.5341C126.784 69.625 127.214 69.8594 127.524 70.2372C127.834 70.6122 127.989 71.0767 127.989 71.6307C127.989 72.1051 127.859 72.5312 127.601 72.9091C127.345 73.2841 126.996 73.5795 126.553 73.7955C126.109 74.0114 125.605 74.1193 125.04 74.1193Z" fill="#5F6065"/>
<rect x="47" y="101.5" width="84" height="31" rx="3.5" fill="white"/>
<path d="M62.9576 122V111.818H66.3979C67.1934 111.818 67.8463 111.954 68.3567 112.226C68.8671 112.494 69.245 112.864 69.4902 113.335C69.7355 113.805 69.8581 114.34 69.8581 114.94C69.8581 115.54 69.7355 116.072 69.4902 116.536C69.245 117 68.8688 117.365 68.3617 117.63C67.8546 117.892 67.2066 118.023 66.4178 118.023H63.6337V116.909H66.378C66.9216 116.909 67.3591 116.83 67.6905 116.67C68.0253 116.511 68.2672 116.286 68.4164 115.994C68.5688 115.699 68.6451 115.348 68.6451 114.94C68.6451 114.533 68.5688 114.176 68.4164 113.871C68.2639 113.567 68.0203 113.331 67.6855 113.165C67.3508 112.996 66.9083 112.912 66.3581 112.912H64.1905V122H62.9576ZM67.7502 117.426L70.2559 122H68.824L66.3581 117.426H67.7502ZM74.8732 122.159C74.1374 122.159 73.5027 121.997 72.9691 121.672C72.4388 121.344 72.0295 120.886 71.7411 120.3C71.4561 119.71 71.3136 119.024 71.3136 118.241C71.3136 117.459 71.4561 116.77 71.7411 116.173C72.0295 115.573 72.4305 115.106 72.9442 114.771C73.4613 114.433 74.0645 114.264 74.7539 114.264C75.1516 114.264 75.5444 114.33 75.9322 114.463C76.32 114.596 76.6729 114.811 76.9911 115.109C77.3093 115.404 77.5629 115.795 77.7518 116.283C77.9407 116.77 78.0352 117.37 78.0352 118.082V118.58H72.1488V117.565H76.842C76.842 117.134 76.7558 116.75 76.5835 116.412C76.4144 116.074 76.1725 115.807 75.8576 115.612C75.546 115.416 75.1781 115.318 74.7539 115.318C74.2866 115.318 73.8822 115.434 73.5408 115.666C73.2028 115.895 72.9426 116.193 72.7603 116.561C72.578 116.929 72.4869 117.323 72.4869 117.744V118.42C72.4869 118.997 72.5863 119.486 72.7852 119.887C72.9873 120.285 73.2674 120.588 73.6254 120.797C73.9833 121.002 74.3993 121.105 74.8732 121.105C75.1815 121.105 75.4599 121.062 75.7085 120.976C75.9603 120.886 76.1774 120.754 76.3597 120.578C76.542 120.399 76.6829 120.177 76.7823 119.912L77.9158 120.23C77.7965 120.615 77.596 120.953 77.3143 121.244C77.0326 121.533 76.6845 121.758 76.2702 121.92C75.8559 122.08 75.3903 122.159 74.8732 122.159ZM82.9023 125.023C82.3356 125.023 81.8484 124.95 81.4407 124.804C81.033 124.661 80.6933 124.473 80.4215 124.237C80.1531 124.005 79.9393 123.757 79.7802 123.491L80.7148 122.835C80.8209 122.974 80.9551 123.134 81.1175 123.312C81.2799 123.495 81.502 123.652 81.7837 123.785C82.0688 123.921 82.4416 123.989 82.9023 123.989C83.5188 123.989 84.0276 123.839 84.4286 123.541C84.8297 123.243 85.0302 122.776 85.0302 122.139V120.588H84.9308C84.8446 120.727 84.7219 120.9 84.5629 121.105C84.4071 121.307 84.1817 121.488 83.8867 121.647C83.5951 121.803 83.2006 121.881 82.7035 121.881C82.087 121.881 81.5335 121.735 81.043 121.443C80.5558 121.152 80.1696 120.727 79.8846 120.17C79.6029 119.614 79.462 118.937 79.462 118.142C79.462 117.36 79.5996 116.679 79.8746 116.099C80.1497 115.515 80.5326 115.065 81.0231 114.746C81.5136 114.425 82.0804 114.264 82.7234 114.264C83.2205 114.264 83.6149 114.347 83.9066 114.513C84.2016 114.675 84.427 114.861 84.5827 115.07C84.7418 115.275 84.8645 115.444 84.9506 115.577H85.07V114.364H86.2035V122.219C86.2035 122.875 86.0543 123.409 85.756 123.82C85.4611 124.234 85.0633 124.537 84.5629 124.729C84.0657 124.925 83.5122 125.023 82.9023 125.023ZM82.8626 120.827C83.3332 120.827 83.7309 120.719 84.0558 120.504C84.3806 120.288 84.6275 119.978 84.7965 119.574C84.9656 119.17 85.0501 118.686 85.0501 118.122C85.0501 117.572 84.9672 117.086 84.8015 116.665C84.6358 116.245 84.3905 115.915 84.0657 115.676C83.7409 115.437 83.3398 115.318 82.8626 115.318C82.3654 115.318 81.9511 115.444 81.6197 115.696C81.2915 115.948 81.0446 116.286 80.8789 116.71C80.7165 117.134 80.6353 117.605 80.6353 118.122C80.6353 118.652 80.7182 119.121 80.8839 119.529C81.0529 119.933 81.3015 120.252 81.6296 120.484C81.9611 120.712 82.372 120.827 82.8626 120.827ZM88.3512 122V114.364H89.5245V122H88.3512ZM88.9478 113.091C88.7191 113.091 88.5219 113.013 88.3562 112.857C88.1938 112.701 88.1126 112.514 88.1126 112.295C88.1126 112.077 88.1938 111.889 88.3562 111.734C88.5219 111.578 88.7191 111.5 88.9478 111.5C89.1765 111.5 89.372 111.578 89.5344 111.734C89.7002 111.889 89.783 112.077 89.783 112.295C89.783 112.514 89.7002 112.701 89.5344 112.857C89.372 113.013 89.1765 113.091 88.9478 113.091ZM97.0826 116.074L96.0286 116.372C95.9623 116.196 95.8645 116.026 95.7353 115.86C95.6093 115.691 95.437 115.552 95.2182 115.442C94.9995 115.333 94.7194 115.278 94.378 115.278C93.9107 115.278 93.5212 115.386 93.2097 115.602C92.9015 115.814 92.7473 116.084 92.7473 116.412C92.7473 116.704 92.8534 116.934 93.0655 117.103C93.2776 117.272 93.6091 117.413 94.0598 117.526L95.1934 117.804C95.8761 117.97 96.3849 118.223 96.7196 118.565C97.0544 118.903 97.2218 119.339 97.2218 119.872C97.2218 120.31 97.0958 120.701 96.8439 121.045C96.5953 121.39 96.2473 121.662 95.7999 121.861C95.3525 122.06 94.8321 122.159 94.2388 122.159C93.4599 122.159 92.8153 121.99 92.3049 121.652C91.7944 121.314 91.4713 120.82 91.3354 120.17L92.449 119.892C92.5551 120.303 92.7556 120.611 93.0506 120.817C93.3489 121.022 93.7383 121.125 94.2189 121.125C94.7658 121.125 95.2 121.009 95.5215 120.777C95.8463 120.542 96.0087 120.26 96.0087 119.932C96.0087 119.667 95.9159 119.445 95.7303 119.266C95.5447 119.083 95.2596 118.947 94.8752 118.858L93.6025 118.56C92.9031 118.394 92.3894 118.137 92.0613 117.789C91.7364 117.438 91.574 116.999 91.574 116.472C91.574 116.041 91.695 115.66 91.937 115.328C92.1822 114.997 92.5153 114.737 92.9363 114.548C93.3605 114.359 93.8411 114.264 94.378 114.264C95.1337 114.264 95.727 114.43 96.1578 114.761C96.592 115.093 96.9003 115.53 97.0826 116.074ZM102.309 114.364V115.358H98.3516V114.364H102.309ZM99.505 112.534H100.678V119.812C100.678 120.144 100.726 120.393 100.822 120.558C100.922 120.721 101.048 120.83 101.2 120.886C101.356 120.939 101.52 120.966 101.692 120.966C101.822 120.966 101.928 120.959 102.011 120.946C102.094 120.929 102.16 120.916 102.21 120.906L102.448 121.96C102.369 121.99 102.258 122.02 102.115 122.05C101.973 122.083 101.792 122.099 101.573 122.099C101.242 122.099 100.917 122.028 100.599 121.886C100.284 121.743 100.022 121.526 99.8132 121.234C99.6077 120.943 99.505 120.575 99.505 120.131V112.534ZM107.194 122.159C106.458 122.159 105.823 121.997 105.289 121.672C104.759 121.344 104.35 120.886 104.061 120.3C103.776 119.71 103.634 119.024 103.634 118.241C103.634 117.459 103.776 116.77 104.061 116.173C104.35 115.573 104.751 115.106 105.265 114.771C105.782 114.433 106.385 114.264 107.074 114.264C107.472 114.264 107.865 114.33 108.252 114.463C108.64 114.596 108.993 114.811 109.311 115.109C109.63 115.404 109.883 115.795 110.072 116.283C110.261 116.77 110.355 117.37 110.355 118.082V118.58H104.469V117.565H109.162C109.162 117.134 109.076 116.75 108.904 116.412C108.735 116.074 108.493 115.807 108.178 115.612C107.866 115.416 107.498 115.318 107.074 115.318C106.607 115.318 106.203 115.434 105.861 115.666C105.523 115.895 105.263 116.193 105.081 116.561C104.898 116.929 104.807 117.323 104.807 117.744V118.42C104.807 118.997 104.907 119.486 105.105 119.887C105.308 120.285 105.588 120.588 105.946 120.797C106.304 121.002 106.72 121.105 107.194 121.105C107.502 121.105 107.78 121.062 108.029 120.976C108.281 120.886 108.498 120.754 108.68 120.578C108.862 120.399 109.003 120.177 109.103 119.912L110.236 120.23C110.117 120.615 109.916 120.953 109.635 121.244C109.353 121.533 109.005 121.758 108.591 121.92C108.176 122.08 107.711 122.159 107.194 122.159ZM112.14 122V114.364H113.274V115.517H113.353C113.493 115.139 113.744 114.833 114.109 114.597C114.474 114.362 114.885 114.244 115.342 114.244C115.428 114.244 115.536 114.246 115.665 114.249C115.794 114.253 115.892 114.258 115.958 114.264V115.457C115.919 115.447 115.828 115.433 115.685 115.413C115.546 115.389 115.398 115.378 115.243 115.378C114.871 115.378 114.54 115.456 114.248 115.612C113.96 115.764 113.731 115.976 113.562 116.248C113.396 116.516 113.314 116.823 113.314 117.168V122H112.14Z" fill="#805AC3"/>
<rect x="47" y="101.5" width="84" height="31" rx="3.5" stroke="#805AC3"/>
<path d="M36.4573 175.006H30.2446V178.11H36.4573V175.006Z" fill="black"/>
<path d="M30.2627 178.104H27.1409V181.262H30.2627V178.104Z" fill="black"/>
<path d="M27.1585 181.245H24V187.457H27.1585V181.245Z" fill="black"/>
<path d="M39.5492 178.091H36.4456V181.195H39.5492V178.091Z" fill="black"/>
<path d="M45.7987 175H39.5679V178.158H45.7987V175Z" fill="black"/>
<path d="M48.8841 178.104H45.7256V181.281H48.8841V178.104Z" fill="black"/>
<path d="M52 181.226H48.8416V187.438H52V181.226Z" fill="black"/>
<path d="M48.8841 187.361H45.7256V190.538H48.8841V187.361Z" fill="black"/>
<path d="M45.7628 190.5H42.6592V193.603H45.7628V190.5Z" fill="black"/>
<path d="M42.6773 193.603H39.5554V196.762H42.6773V193.603Z" fill="black"/>
<path d="M30.2631 187.433H27.1594V190.537H30.2631V187.433Z" fill="black"/>
<path d="M33.3483 190.537H30.2446V193.641H33.3483V190.537Z" fill="black"/>
<path d="M39.5431 196.763H36.4395V199.866H39.5431V196.763Z" fill="black"/>
<path d="M30.261 184.313V178.103H33.4226V190.523H30.261V184.313Z" fill="black"/>
<path d="M33.342 185.865V178.103H36.4488V193.627H33.342V185.865Z" fill="black"/>
<path d="M39.5452 185.879V178.102H42.6703V193.657H39.5452V185.879Z" fill="black"/>
<path d="M42.5969 184.313V178.103H45.7769V190.523H42.5969V184.313Z" fill="black"/>
<path d="M27.1306 184.34V181.233H30.4474V187.447H27.1306V184.34Z" fill="black"/>
<path d="M45.7275 184.332V181.232H48.8891V187.431H45.7275V184.332Z" fill="black"/>
<path d="M36.4104 188.973V181.199H39.6038V196.746H36.4104V188.973Z" fill="black"/>
<path d="M33.342 195.184V193.637H36.4643V196.731H33.342V195.184Z" fill="black"/>
<path d="M42.7107 192.064V190.528H45.7465V193.6H42.7107V192.064Z" fill="black"/>
<path d="M39.5554 195.194V193.626H42.6735V196.763H39.5554V195.194Z" fill="black"/>
<path d="M36.4663 198.286V196.736H39.5571V199.836H36.4663V198.286Z" fill="black"/>
<path fill-rule="evenodd" clip-rule="evenodd" d="M39.6034 193.731V196.82H36.41V193.701H33.3414V190.597H30.2605V187.518H27.1321V184.412V181.305H30.2605V178.176H33.3414H33.422H36.4481V181.273H39.5467V178.176H42.6719V178.176H45.7786V181.306H48.8885V187.505H45.7786V190.597H42.6719V193.731H39.6034Z" fill="#FED05D"/>
<path d="M70.4573 175.006H64.2446V178.11H70.4573V175.006Z" fill="black"/>
<path d="M64.2627 178.104H61.1409V181.262H64.2627V178.104Z" fill="black"/>
<path d="M61.1585 181.245H58V187.457H61.1585V181.245Z" fill="black"/>
<path d="M73.5492 178.091H70.4456V181.195H73.5492V178.091Z" fill="black"/>
<path d="M79.7987 175H73.5679V178.158H79.7987V175Z" fill="black"/>
<path d="M82.8841 178.104H79.7256V181.281H82.8841V178.104Z" fill="black"/>
<path d="M86 181.226H82.8416V187.438H86V181.226Z" fill="black"/>
<path d="M82.8841 187.361H79.7256V190.538H82.8841V187.361Z" fill="black"/>
<path d="M79.7628 190.5H76.6592V193.603H79.7628V190.5Z" fill="black"/>
<path d="M76.6773 193.603H73.5554V196.762H76.6773V193.603Z" fill="black"/>
<path d="M64.2631 187.433H61.1594V190.537H64.2631V187.433Z" fill="black"/>
<path d="M67.3483 190.537H64.2446V193.641H67.3483V190.537Z" fill="black"/>
<path d="M73.5431 196.763H70.4395V199.866H73.5431V196.763Z" fill="black"/>
<path d="M64.261 184.313V178.103H67.4226V190.523H64.261V184.313Z" fill="black"/>
<path d="M67.342 185.865V178.103H70.4488V193.627H67.342V185.865Z" fill="black"/>
<path d="M73.5452 185.879V178.102H76.6703V193.657H73.5452V185.879Z" fill="black"/>
<path d="M76.5969 184.313V178.103H79.7769V190.523H76.5969V184.313Z" fill="black"/>
<path d="M61.1306 184.34V181.233H64.4474V187.447H61.1306V184.34Z" fill="black"/>
<path d="M79.7275 184.332V181.232H82.8891V187.431H79.7275V184.332Z" fill="black"/>
<path d="M70.4104 188.973V181.199H73.6038V196.746H70.4104V188.973Z" fill="black"/>
<path d="M67.342 195.184V193.637H70.4643V196.731H67.342V195.184Z" fill="black"/>
<path d="M76.7107 192.064V190.528H79.7465V193.6H76.7107V192.064Z" fill="black"/>
<path d="M73.5554 195.194V193.626H76.6735V196.763H73.5554V195.194Z" fill="black"/>
<path d="M70.4663 198.286V196.736H73.5571V199.836H70.4663V198.286Z" fill="black"/>
<path fill-rule="evenodd" clip-rule="evenodd" d="M73.6034 193.731V196.82H70.41V193.701H67.3414V190.597H64.2605V187.518H61.1321V184.412V181.305H64.2605V178.176H67.3414H67.422H70.4481V181.273H73.5467V178.176H76.6719V178.176H79.7786V181.306H82.8885V187.505H79.7786V190.597H76.6719V193.731H73.6034Z" fill="#F26E7E"/>
<path d="M104.457 175.006H98.2446V178.11H104.457V175.006Z" fill="black"/>
<path d="M98.2627 178.104H95.1409V181.262H98.2627V178.104Z" fill="black"/>
<path d="M95.1585 181.245H92V187.457H95.1585V181.245Z" fill="black"/>
<path d="M107.549 178.091H104.446V181.195H107.549V178.091Z" fill="black"/>
<path d="M113.799 175H107.568V178.158H113.799V175Z" fill="black"/>
<path d="M116.884 178.104H113.726V181.281H116.884V178.104Z" fill="black"/>
<path d="M120 181.226H116.842V187.438H120V181.226Z" fill="black"/>
<path d="M116.884 187.361H113.726V190.538H116.884V187.361Z" fill="black"/>
<path d="M113.763 190.5H110.659V193.603H113.763V190.5Z" fill="black"/>
<path d="M110.677 193.603H107.555V196.762H110.677V193.603Z" fill="black"/>
<path d="M98.2631 187.433H95.1594V190.537H98.2631V187.433Z" fill="black"/>
<path d="M101.348 190.537H98.2446V193.641H101.348V190.537Z" fill="black"/>
<path d="M107.543 196.763H104.439V199.866H107.543V196.763Z" fill="black"/>
<path d="M98.261 184.313V178.103H101.423V190.523H98.261V184.313Z" fill="black"/>
<path d="M101.342 185.865V178.103H104.449V193.627H101.342V185.865Z" fill="black"/>
<path d="M107.545 185.879V178.102H110.67V193.657H107.545V185.879Z" fill="black"/>
<path d="M110.597 184.313V178.103H113.777V190.523H110.597V184.313Z" fill="black"/>
<path d="M95.1306 184.34V181.233H98.4474V187.447H95.1306V184.34Z" fill="black"/>
<path d="M113.728 184.332V181.232H116.889V187.431H113.728V184.332Z" fill="black"/>
<path d="M104.41 188.973V181.199H107.604V196.746H104.41V188.973Z" fill="black"/>
<path d="M101.342 195.184V193.637H104.464V196.731H101.342V195.184Z" fill="black"/>
<path d="M110.711 192.064V190.528H113.746V193.6H110.711V192.064Z" fill="black"/>
<path d="M107.555 195.194V193.626H110.674V196.763H107.555V195.194Z" fill="black"/>
<path d="M104.466 198.286V196.736H107.557V199.836H104.466V198.286Z" fill="black"/>
<path fill-rule="evenodd" clip-rule="evenodd" d="M110.599 178.176V184.387V190.597H113.779V187.505H116.889V181.306H113.779V178.176H110.599Z" fill="white"/>
<path fill-rule="evenodd" clip-rule="evenodd" d="M107.603 193.731V196.82H104.41V193.701H101.341V190.597H98.2605V187.518H95.1321V184.412V181.305H98.2605V178.176H101.341H101.422H104.448V181.273H107.547V178.176H110.672V193.731H107.603Z" fill="#8A3391"/>
<path d="M138.457 175.006H132.245V178.11H138.457V175.006Z" fill="black"/>
<path d="M132.263 178.104H129.141V181.262H132.263V178.104Z" fill="black"/>
<path d="M129.158 181.245H126V187.457H129.158V181.245Z" fill="black"/>
<path d="M141.549 178.091H138.446V181.195H141.549V178.091Z" fill="black"/>
<path d="M147.799 175H141.568V178.158H147.799V175Z" fill="black"/>
<path d="M150.884 178.104H147.726V181.281H150.884V178.104Z" fill="black"/>
<path d="M154 181.226H150.842V187.438H154V181.226Z" fill="black"/>
<path d="M150.884 187.361H147.726V190.538H150.884V187.361Z" fill="black"/>
<path d="M147.763 190.5H144.659V193.603H147.763V190.5Z" fill="black"/>
<path d="M144.677 193.603H141.555V196.762H144.677V193.603Z" fill="black"/>
<path d="M132.263 187.433H129.159V190.537H132.263V187.433Z" fill="black"/>
<path d="M135.348 190.537H132.245V193.641H135.348V190.537Z" fill="black"/>
<path d="M141.543 196.763H138.439V199.866H141.543V196.763Z" fill="black"/>
<path d="M132.261 184.313V178.103H135.423V190.523H132.261V184.313Z" fill="black"/>
<path d="M135.342 185.865V178.103H138.449V193.627H135.342V185.865Z" fill="black"/>
<path d="M141.545 185.879V178.102H144.67V193.657H141.545V185.879Z" fill="black"/>
<path d="M144.597 184.313V178.103H147.777V190.523H144.597V184.313Z" fill="black"/>
<path d="M129.131 184.34V181.233H132.447V187.447H129.131V184.34Z" fill="black"/>
<path d="M147.728 184.332V181.232H150.889V187.431H147.728V184.332Z" fill="black"/>
<path d="M138.41 188.973V181.199H141.604V196.746H138.41V188.973Z" fill="black"/>
<path d="M135.342 195.184V193.637H138.464V196.731H135.342V195.184Z" fill="black"/>
<path d="M144.711 192.064V190.528H147.746V193.6H144.711V192.064Z" fill="black"/>
<path d="M141.555 195.194V193.626H144.674V196.763H141.555V195.194Z" fill="black"/>
<path d="M138.466 198.286V196.736H141.557V199.836H138.466V198.286Z" fill="black"/>
<path fill-rule="evenodd" clip-rule="evenodd" d="M141.603 193.731V196.82H138.41V193.701H135.341V190.597H132.26V187.518H129.132V184.412V181.305H132.26V178.176H135.341H135.422H138.448V181.273H141.547V178.176H144.672V178.176H147.779V181.306H150.889V187.505H147.779V190.597H144.672V193.731H141.603Z" fill="white"/>
<rect x="0.5" y="0.5" width="177" height="226.866" stroke="#C0ADE1"/>
</svg>
