<?xml version="1.0" encoding="UTF-8"?>
<svg width="233px" height="192px" viewBox="0 0 233 192" version="1.1" xmlns="http://www.w3.org/2000/svg" xmlns:xlink="http://www.w3.org/1999/xlink">
    <!-- Generator: Sketch 51.1 (57501) - http://www.bohemiancoding.com/sketch -->
    <title>info 2</title>
    <desc>Created with Sketch.</desc>
    <defs></defs>
    <g id="Hi-fi" stroke="none" stroke-width="1" fill="none" fill-rule="evenodd">
        <g id="AWS-Cloudformation" transform="translate(-769.000000, -2466.000000)">
            <g id="featured-customer" transform="translate(163.000000, 2117.000000)">
                <g id="infographics" transform="translate(206.000000, 349.000000)">
                    <g id="info-2" transform="translate(400.000000, 0.000000)">
                        <path d="M137.72,93.392 C137.72,92.3866616 137.494669,91.4940039 137.044,90.714 C136.593331,89.9339961 135.813339,89.2840026 134.704,88.764 C133.594661,88.2439974 132.104009,87.8453347 130.232,87.568 C128.359991,87.2906653 126.002681,87.152 123.16,87.152 C123.541335,83.9279839 123.853332,80.6520166 124.096,77.324 C124.338668,73.9959834 124.529333,70.8760146 124.668,67.964 L144.168,67.964 L144.168,74.464 L131.168,74.464 C131.098666,75.7120062 131.020667,76.9166609 130.934,78.078 C130.847333,79.2393391 130.752001,80.253329 130.648,81.12 C135.709359,81.4666684 139.444655,82.6539899 141.854,84.682 C144.263345,86.7100101 145.468,89.5266486 145.468,93.132 C145.468,94.7960083 145.173336,96.3386596 144.584,97.76 C143.994664,99.1813404 143.110673,100.411995 141.932,101.452 C140.753327,102.492005 139.271342,103.306664 137.486,103.896 C135.700658,104.485336 133.612012,104.78 131.22,104.78 C130.283995,104.78 129.304672,104.719334 128.282,104.598 C127.259328,104.476666 126.271338,104.320668 125.318,104.13 C124.364662,103.939332 123.50667,103.740001 122.744,103.532 C121.98133,103.323999 121.392002,103.116001 120.976,102.908 L122.38,96.512 C123.246671,96.8933352 124.39066,97.2659982 125.812,97.63 C127.23334,97.9940018 128.93199,98.176 130.908,98.176 C133.300012,98.176 135.033328,97.6993381 136.108,96.746 C137.182672,95.7926619 137.72,94.6746731 137.72,93.392 Z M175.304,85.904 C175.304,91.970697 174.151345,96.6246505 171.846,99.866 C169.540655,103.10735 166.36002,104.728 162.304,104.728 C158.24798,104.728 155.067345,103.10735 152.762,99.866 C150.456655,96.6246505 149.304,91.970697 149.304,85.904 C149.304,82.8879849 149.60733,80.2186783 150.214,77.896 C150.82067,75.5733217 151.695994,73.6146746 152.84,72.02 C153.984006,70.4253254 155.353325,69.2120042 156.948,68.38 C158.542675,67.5479958 160.32799,67.132 162.304,67.132 C166.36002,67.132 169.540655,68.7526505 171.846,71.994 C174.151345,75.2353495 175.304,79.8719698 175.304,85.904 Z M167.4,85.904 C167.4,84.1013243 167.313334,82.4633407 167.14,80.99 C166.966666,79.5166593 166.689335,78.242672 166.308,77.168 C165.926665,76.093328 165.40667,75.2613363 164.748,74.672 C164.08933,74.0826637 163.274672,73.788 162.304,73.788 C161.333328,73.788 160.527337,74.0826637 159.886,74.672 C159.244663,75.2613363 158.724669,76.093328 158.326,77.168 C157.927331,78.242672 157.641334,79.5166593 157.468,80.99 C157.294666,82.4633407 157.208,84.1013243 157.208,85.904 C157.208,87.7066757 157.294666,89.3533259 157.468,90.844 C157.641334,92.3346741 157.927331,93.617328 158.326,94.692 C158.724669,95.766672 159.244663,96.5986637 159.886,97.188 C160.527337,97.7773363 161.333328,98.072 162.304,98.072 C163.274672,98.072 164.08933,97.7773363 164.748,97.188 C165.40667,96.5986637 165.926665,95.766672 166.308,94.692 C166.689335,93.617328 166.966666,92.3346741 167.14,90.844 C167.313334,89.3533259 167.4,87.7066757 167.4,85.904 Z M203.84,85.904 C203.84,91.970697 202.687345,96.6246505 200.382,99.866 C198.076655,103.10735 194.89602,104.728 190.84,104.728 C186.78398,104.728 183.603345,103.10735 181.298,99.866 C178.992655,96.6246505 177.84,91.970697 177.84,85.904 C177.84,82.8879849 178.14333,80.2186783 178.75,77.896 C179.35667,75.5733217 180.231994,73.6146746 181.376,72.02 C182.520006,70.4253254 183.889325,69.2120042 185.484,68.38 C187.078675,67.5479958 188.86399,67.132 190.84,67.132 C194.89602,67.132 198.076655,68.7526505 200.382,71.994 C202.687345,75.2353495 203.84,79.8719698 203.84,85.904 Z M195.936,85.904 C195.936,84.1013243 195.849334,82.4633407 195.676,80.99 C195.502666,79.5166593 195.225335,78.242672 194.844,77.168 C194.462665,76.093328 193.94267,75.2613363 193.284,74.672 C192.62533,74.0826637 191.810672,73.788 190.84,73.788 C189.869328,73.788 189.063337,74.0826637 188.422,74.672 C187.780663,75.2613363 187.260669,76.093328 186.862,77.168 C186.463331,78.242672 186.177334,79.5166593 186.004,80.99 C185.830666,82.4633407 185.744,84.1013243 185.744,85.904 C185.744,87.7066757 185.830666,89.3533259 186.004,90.844 C186.177334,92.3346741 186.463331,93.617328 186.862,94.692 C187.260669,95.766672 187.780663,96.5986637 188.422,97.188 C189.063337,97.7773363 189.869328,98.072 190.84,98.072 C191.810672,98.072 192.62533,97.7773363 193.284,97.188 C193.94267,96.5986637 194.462665,95.766672 194.844,94.692 C195.225335,93.617328 195.502666,92.3346741 195.676,90.844 C195.849334,89.3533259 195.936,87.7066757 195.936,85.904 Z M219.116,84.968 L224.524,76.648 L232.532,76.648 L223.172,89.804 C225.25201,92.404013 227.141325,94.9346544 228.84,97.396 C230.538675,99.8573456 231.890662,102.058657 232.896,104 L224.576,104 L223.536,102.05 C223.119998,101.269996 222.652003,100.455338 222.132,99.606 C221.611997,98.7566624 221.066003,97.9073376 220.494,97.058 C219.921997,96.2086624 219.358669,95.4373368 218.804,94.744 C218.283997,95.40267 217.755336,96.1306627 217.218,96.928 C216.680664,97.7253373 216.169336,98.5313293 215.684,99.346 C215.198664,100.160671 214.722002,100.966663 214.254,101.764 C213.785998,102.561337 213.378668,103.306663 213.032,104 L205.128,104 C205.544002,103.133329 206.115996,102.110673 206.844,100.932 C207.572004,99.7533274 208.360662,98.5313397 209.21,97.266 C210.059338,96.0006603 210.951995,94.7353397 211.888,93.47 C212.824005,92.2046603 213.742662,91.0173389 214.644,89.908 C213.083992,87.7239891 211.524008,85.5140112 209.964,83.278 C208.403992,81.0419888 206.861341,78.8320109 205.336,76.648 L213.708,76.648 L219.116,84.968 Z" id="500x" fill="#EE795C"></path>
                        <rect id="Rectangle-2" fill="#00ACF2" fill-rule="nonzero" x="0" y="0" width="96" height="192"></rect>
                        <rect id="Rectangle-2-Copy" fill="#00ACF2" fill-rule="nonzero" x="113" y="186" width="96" height="6"></rect>
                        <path d="M13.304,29.21 C13.0519987,29.21 12.7930013,29.1936668 12.527,29.161 C12.2609987,29.1283332 12.0090012,29.0863336 11.771,29.035 C11.5329988,28.9836664 11.316001,28.927667 11.12,28.867 C10.923999,28.806333 10.7746672,28.7480003 10.672,28.692 L11.008,27.25 C11.204001,27.3433338 11.4886648,27.4483327 11.862,27.565 C12.2353352,27.6816673 12.6973306,27.74 13.248,27.74 C13.985337,27.74 14.5173317,27.5976681 14.844,27.313 C15.1706683,27.0283319 15.334,26.6480024 15.334,26.172 C15.334,25.8639985 15.2710006,25.6073344 15.145,25.402 C15.0189994,25.1966656 14.8463344,25.0310006 14.627,24.905 C14.4076656,24.7789994 14.1556681,24.6903336 13.871,24.639 C13.5863319,24.5876664 13.2853349,24.562 12.968,24.562 L12.394,24.562 L12.394,23.19 L13.094,23.19 C13.3086677,23.19 13.5256656,23.1690002 13.745,23.127 C13.9643344,23.0849998 14.1626658,23.0103339 14.34,22.903 C14.5173342,22.7956661 14.6619994,22.6533342 14.774,22.476 C14.8860006,22.2986658 14.942,22.0700014 14.942,21.79 C14.942,21.5659989 14.9000004,21.3746675 14.816,21.216 C14.7319996,21.0573325 14.622334,20.9266672 14.487,20.824 C14.351666,20.7213328 14.1953342,20.6466669 14.018,20.6 C13.8406658,20.5533331 13.654001,20.53 13.458,20.53 C13.0379979,20.53 12.6646683,20.5929994 12.338,20.719 C12.0113317,20.8450006 11.7220013,20.9873325 11.47,21.146 L10.854,19.886 C10.9846673,19.8019996 11.1433324,19.7133338 11.33,19.62 C11.5166676,19.5266662 11.7243322,19.4380004 11.953,19.354 C12.1816678,19.2699996 12.4266654,19.2023336 12.688,19.151 C12.9493346,19.0996664 13.2246652,19.074 13.514,19.074 C14.055336,19.074 14.521998,19.1393327 14.914,19.27 C15.306002,19.4006673 15.630332,19.5849988 15.887,19.823 C16.143668,20.0610012 16.3349994,20.3409984 16.461,20.663 C16.5870006,20.9850016 16.65,21.3373314 16.65,21.72 C16.65,22.1680022 16.5263346,22.5693316 16.279,22.924 C16.0316654,23.2786684 15.712002,23.5493324 15.32,23.736 C15.8240025,23.9133342 16.241665,24.2073313 16.573,24.618 C16.904335,25.0286687 17.07,25.5559968 17.07,26.2 C17.07,26.6293355 16.9953341,27.0283315 16.846,27.397 C16.6966659,27.7656685 16.4680015,28.0829987 16.16,28.349 C15.8519985,28.6150013 15.4623357,28.8249992 14.991,28.979 C14.5196643,29.1330008 13.9573366,29.21 13.304,29.21 Z M28.592,20.39 C28.7413341,20.8940025 28.8999992,21.4189973 29.068,21.965 C29.2360008,22.5110027 29.4109991,23.0569973 29.593,23.603 C29.7750009,24.1490027 29.9569991,24.685664 30.139,25.213 C30.3210009,25.740336 30.4959992,26.237331 30.664,26.704 C30.8040007,26.1999975 30.9393327,25.6516696 31.07,25.059 C31.2006673,24.4663304 31.3313327,23.8503365 31.462,23.211 C31.5926673,22.5716635 31.7209994,21.92067 31.847,21.258 C31.9730006,20.59533 32.0919994,19.9420032 32.204,19.298 L34.024,19.298 C33.6973317,21.0526754 33.3333353,22.7396586 32.932,24.359 C32.5306647,25.9783414 32.0826691,27.525326 31.588,29 L29.908,29 C29.1799964,27.1146572 28.4753367,25.0566778 27.794,22.826 C27.4486649,23.955339 27.0986684,25.0286616 26.744,26.046 C26.3893316,27.0633384 26.0346684,28.0479952 25.68,29 L24,29 C23.4959975,27.525326 23.0456686,25.9783414 22.649,24.359 C22.2523314,22.7396586 21.8906683,21.0526754 21.564,19.298 L23.454,19.298 C23.5660006,19.9326698 23.6849994,20.58133 23.811,21.244 C23.9370006,21.90667 24.067666,22.5576635 24.203,23.197 C24.338334,23.8363365 24.4759993,24.4546637 24.616,25.052 C24.7560007,25.6493363 24.8959993,26.1999975 25.036,26.704 C25.2133342,26.2279976 25.3929991,25.726336 25.575,25.199 C25.7570009,24.671664 25.9366658,24.1350027 26.114,23.589 C26.2913342,23.0429973 26.4616659,22.499336 26.625,21.958 C26.7883342,21.416664 26.9399993,20.8940025 27.08,20.39 L28.592,20.39 Z M35.018,25.374 C35.018,24.7299968 35.1136657,24.1653358 35.305,23.68 C35.4963343,23.1946642 35.7506651,22.7910016 36.068,22.469 C36.3853349,22.1469984 36.7493313,21.9043342 37.16,21.741 C37.5706687,21.5776658 37.9906645,21.496 38.42,21.496 C39.428005,21.496 40.2143305,21.8086635 40.779,22.434 C41.3436695,23.0593365 41.626,23.9926605 41.626,25.234 C41.626,25.3273338 41.6236667,25.4323328 41.619,25.549 C41.6143333,25.6656672 41.6073334,25.7706662 41.598,25.864 L36.768,25.864 C36.8146669,26.4520029 37.0223315,26.9069984 37.391,27.229 C37.7596685,27.5510016 38.2939965,27.712 38.994,27.712 C39.4046687,27.712 39.7803316,27.674667 40.121,27.6 C40.4616684,27.525333 40.729999,27.4460004 40.926,27.362 L41.15,28.748 C41.0566662,28.7946669 40.9283341,28.8436664 40.765,28.895 C40.6016659,28.9463336 40.4150011,28.9929998 40.205,29.035 C39.994999,29.0770002 39.7686679,29.1119999 39.526,29.14 C39.2833321,29.1680001 39.0360013,29.182 38.784,29.182 C38.1399968,29.182 37.5800024,29.0863343 37.104,28.895 C36.6279976,28.7036657 36.2360015,28.4376684 35.928,28.097 C35.6199985,27.7563316 35.3913341,27.3550023 35.242,26.893 C35.0926659,26.4309977 35.018,25.9246694 35.018,25.374 Z M39.932,24.618 C39.932,24.3846655 39.8993337,24.163001 39.834,23.953 C39.7686663,23.742999 39.6730006,23.5610008 39.547,23.407 C39.4209994,23.2529992 39.2670009,23.1316671 39.085,23.043 C38.9029991,22.9543329 38.6860013,22.91 38.434,22.91 C38.1726654,22.91 37.944001,22.9589995 37.748,23.057 C37.551999,23.1550005 37.386334,23.2833325 37.251,23.442 C37.115666,23.6006675 37.010667,23.7826656 36.936,23.988 C36.861333,24.1933344 36.8100001,24.4033323 36.782,24.618 L39.932,24.618 Z M43.012,25.374 C43.012,24.7299968 43.1076657,24.1653358 43.299,23.68 C43.4903343,23.1946642 43.7446651,22.7910016 44.062,22.469 C44.3793349,22.1469984 44.7433313,21.9043342 45.154,21.741 C45.5646687,21.5776658 45.9846645,21.496 46.414,21.496 C47.422005,21.496 48.2083305,21.8086635 48.773,22.434 C49.3376695,23.0593365 49.62,23.9926605 49.62,25.234 C49.62,25.3273338 49.6176667,25.4323328 49.613,25.549 C49.6083333,25.6656672 49.6013334,25.7706662 49.592,25.864 L44.762,25.864 C44.8086669,26.4520029 45.0163315,26.9069984 45.385,27.229 C45.7536685,27.5510016 46.2879965,27.712 46.988,27.712 C47.3986687,27.712 47.7743316,27.674667 48.115,27.6 C48.4556684,27.525333 48.723999,27.4460004 48.92,27.362 L49.144,28.748 C49.0506662,28.7946669 48.9223341,28.8436664 48.759,28.895 C48.5956659,28.9463336 48.4090011,28.9929998 48.199,29.035 C47.9889989,29.0770002 47.7626679,29.1119999 47.52,29.14 C47.2773321,29.1680001 47.0300013,29.182 46.778,29.182 C46.1339968,29.182 45.5740024,29.0863343 45.098,28.895 C44.6219976,28.7036657 44.2300015,28.4376684 43.922,28.097 C43.6139985,27.7563316 43.3853341,27.3550023 43.236,26.893 C43.0866659,26.4309977 43.012,25.9246694 43.012,25.374 Z M47.926,24.618 C47.926,24.3846655 47.8933337,24.163001 47.828,23.953 C47.7626663,23.742999 47.6670006,23.5610008 47.541,23.407 C47.4149994,23.2529992 47.2610009,23.1316671 47.079,23.043 C46.8969991,22.9543329 46.6800013,22.91 46.428,22.91 C46.1666654,22.91 45.938001,22.9589995 45.742,23.057 C45.545999,23.1550005 45.380334,23.2833325 45.245,23.442 C45.109666,23.6006675 45.004667,23.7826656 44.93,23.988 C44.855333,24.1933344 44.8040001,24.4033323 44.776,24.618 L47.926,24.618 Z M53.106,24.534 C53.3206677,24.3099989 53.5493321,24.0696679 53.792,23.813 C54.0346679,23.5563321 54.2726655,23.2996679 54.506,23.043 C54.7393345,22.786332 54.960999,22.5390012 55.171,22.301 C55.3810011,22.0629988 55.5606659,21.8553342 55.71,21.678 L57.712,21.678 C57.245331,22.2006693 56.7530026,22.7419972 56.235,23.302 C55.7169974,23.8620028 55.1966693,24.4079973 54.674,24.94 C54.9540014,25.1733345 55.2479985,25.455665 55.556,25.787 C55.8640015,26.118335 56.1626652,26.4706648 56.452,26.844 C56.7413348,27.2173352 57.0119987,27.5906648 57.264,27.964 C57.5160013,28.3373352 57.7259992,28.6826651 57.894,29 L55.934,29 C55.7659992,28.7106652 55.5723344,28.4073349 55.353,28.09 C55.1336656,27.7726651 54.8980013,27.4646682 54.646,27.166 C54.3939987,26.8673318 54.1373346,26.5850013 53.876,26.319 C53.6146654,26.0529987 53.3580013,25.8266676 53.106,25.64 L53.106,29 L51.412,29 L51.412,18.416 L53.106,18.136 L53.106,24.534 Z M60.96,27.782 C61.4080022,27.782 61.7346656,27.7283339 61.94,27.621 C62.1453344,27.5136661 62.248,27.3293346 62.248,27.068 C62.248,26.8253321 62.1383344,26.6246675 61.919,26.466 C61.6996656,26.3073325 61.3380025,26.1346676 60.834,25.948 C60.5259985,25.8359994 60.243668,25.7170006 59.987,25.591 C59.7303321,25.4649994 59.5086676,25.3180008 59.322,25.15 C59.1353324,24.9819992 58.9883339,24.7790012 58.881,24.541 C58.7736661,24.3029988 58.72,24.0113351 58.72,23.666 C58.72,22.9939966 58.9673309,22.4643353 59.462,22.077 C59.9566691,21.6896647 60.6286624,21.496 61.478,21.496 C61.9073355,21.496 62.317998,21.5356663 62.71,21.615 C63.102002,21.6943337 63.395999,21.771333 63.592,21.846 L63.284,23.218 C63.0973324,23.1339996 62.8593348,23.0570003 62.57,22.987 C62.2806652,22.9169997 61.9446686,22.882 61.562,22.882 C61.2166649,22.882 60.9366677,22.9403327 60.722,23.057 C60.5073323,23.1736672 60.4,23.3533321 60.4,23.596 C60.4,23.7173339 60.4209998,23.8246662 60.463,23.918 C60.5050002,24.0113338 60.5773328,24.0976663 60.68,24.177 C60.7826672,24.2563337 60.9179992,24.3356663 61.086,24.415 C61.2540008,24.4943337 61.4593321,24.5759996 61.702,24.66 C62.1033353,24.8093341 62.4439986,24.9563326 62.724,25.101 C63.0040014,25.2456674 63.2349991,25.4089991 63.417,25.591 C63.5990009,25.7730009 63.7319996,25.9806655 63.816,26.214 C63.9000004,26.4473345 63.942,26.7273317 63.942,27.054 C63.942,27.7540035 63.6830026,28.2836649 63.165,28.643 C62.6469974,29.0023351 61.9073381,29.182 60.946,29.182 C60.3019968,29.182 59.784002,29.1283339 59.392,29.021 C58.999998,28.9136661 58.7246675,28.8273337 58.566,28.762 L58.86,27.348 C59.1120013,27.4506672 59.4129983,27.5486662 59.763,27.642 C60.1130018,27.7353338 60.5119978,27.782 60.96,27.782 Z" id="3-Weeks" fill="#FFFFFF"></path>
                        <path d="M154.26,170.314 C154.801336,170.099332 155.344997,169.824002 155.891,169.488 C156.437003,169.151998 156.919998,168.755336 157.34,168.298 L158.53,168.298 L158.53,178 L156.836,178 L156.836,170.566 C156.583999,170.762001 156.266669,170.953332 155.884,171.14 C155.501331,171.326668 155.132668,171.480666 154.778,171.602 L154.26,170.314 Z M171.354,168.298 L173.118,168.298 L173.118,178 L171.354,178 L171.354,173.702 L167.14,173.702 L167.14,178 L165.376,178 L165.376,168.298 L167.14,168.298 L167.14,172.176 L171.354,172.176 L171.354,168.298 Z M179.53,172.204 C179.389999,172.157333 179.196335,172.108334 178.949,172.057 C178.701665,172.005666 178.414668,171.98 178.088,171.98 C177.901332,171.98 177.703001,171.998666 177.493,172.036 C177.282999,172.073334 177.136,172.106 177.052,172.134 L177.052,178 L175.358,178 L175.358,171.028 C175.684668,170.906666 176.092998,170.792334 176.583,170.685 C177.073002,170.577666 177.616664,170.524 178.214,170.524 C178.326001,170.524 178.456666,170.531 178.606,170.545 C178.755334,170.559 178.904666,170.577667 179.054,170.601 C179.203334,170.624333 179.347999,170.652333 179.488,170.685 C179.628001,170.717667 179.74,170.748 179.824,170.776 L179.53,172.204 Z" id="1-Hr" fill="#000000"></path>
                        <polyline id="Path-2" stroke="#EE795C" stroke-width="4" fill-rule="nonzero" points="113 3 167 3 167 51.9609375"></polyline>
                        <path d="M167,121 L167,157" id="Path-2-Copy" stroke="#EE795C" stroke-width="4" fill-rule="nonzero"></path>
                    </g>
                </g>
            </g>
        </g>
    </g>
</svg>