<?xml version="1.0" encoding="UTF-8"?>
<svg width="209px" height="192px" viewBox="0 0 209 192" version="1.1" xmlns="http://www.w3.org/2000/svg" xmlns:xlink="http://www.w3.org/1999/xlink">
    <!-- Generator: Sketch 51.1 (57501) - http://www.bohemiancoding.com/sketch -->
    <title>info 1</title>
    <desc>Created with Sketch.</desc>
    <defs></defs>
    <g id="Hi-fi" stroke="none" stroke-width="1" fill="none" fill-rule="evenodd">
        <g id="AWS-Cloudformation" transform="translate(-369.000000, -2466.000000)">
            <g id="featured-customer" transform="translate(163.000000, 2117.000000)">
                <g id="infographics" transform="translate(206.000000, 349.000000)">
                    <g id="info-1">
                        <path d="M140.72,93.392 C140.72,92.3866616 140.494669,91.4940039 140.044,90.714 C139.593331,89.9339961 138.813339,89.2840026 137.704,88.764 C136.594661,88.2439974 135.104009,87.8453347 133.232,87.568 C131.359991,87.2906653 129.002681,87.152 126.16,87.152 C126.541335,83.9279839 126.853332,80.6520166 127.096,77.324 C127.338668,73.9959834 127.529333,70.8760146 127.668,67.964 L147.168,67.964 L147.168,74.464 L134.168,74.464 C134.098666,75.7120062 134.020667,76.9166609 133.934,78.078 C133.847333,79.2393391 133.752001,80.253329 133.648,81.12 C138.709359,81.4666684 142.444655,82.6539899 144.854,84.682 C147.263345,86.7100101 148.468,89.5266486 148.468,93.132 C148.468,94.7960083 148.173336,96.3386596 147.584,97.76 C146.994664,99.1813404 146.110673,100.411995 144.932,101.452 C143.753327,102.492005 142.271342,103.306664 140.486,103.896 C138.700658,104.485336 136.612012,104.78 134.22,104.78 C133.283995,104.78 132.304672,104.719334 131.282,104.598 C130.259328,104.476666 129.271338,104.320668 128.318,104.13 C127.364662,103.939332 126.50667,103.740001 125.744,103.532 C124.98133,103.323999 124.392002,103.116001 123.976,102.908 L125.38,96.512 C126.246671,96.8933352 127.39066,97.2659982 128.812,97.63 C130.23334,97.9940018 131.93199,98.176 133.908,98.176 C136.300012,98.176 138.033328,97.6993381 139.108,96.746 C140.182672,95.7926619 140.72,94.6746731 140.72,93.392 Z M178.304,85.904 C178.304,91.970697 177.151345,96.6246505 174.846,99.866 C172.540655,103.10735 169.36002,104.728 165.304,104.728 C161.24798,104.728 158.067345,103.10735 155.762,99.866 C153.456655,96.6246505 152.304,91.970697 152.304,85.904 C152.304,82.8879849 152.60733,80.2186783 153.214,77.896 C153.82067,75.5733217 154.695994,73.6146746 155.84,72.02 C156.984006,70.4253254 158.353325,69.2120042 159.948,68.38 C161.542675,67.5479958 163.32799,67.132 165.304,67.132 C169.36002,67.132 172.540655,68.7526505 174.846,71.994 C177.151345,75.2353495 178.304,79.8719698 178.304,85.904 Z M170.4,85.904 C170.4,84.1013243 170.313334,82.4633407 170.14,80.99 C169.966666,79.5166593 169.689335,78.242672 169.308,77.168 C168.926665,76.093328 168.40667,75.2613363 167.748,74.672 C167.08933,74.0826637 166.274672,73.788 165.304,73.788 C164.333328,73.788 163.527337,74.0826637 162.886,74.672 C162.244663,75.2613363 161.724669,76.093328 161.326,77.168 C160.927331,78.242672 160.641334,79.5166593 160.468,80.99 C160.294666,82.4633407 160.208,84.1013243 160.208,85.904 C160.208,87.7066757 160.294666,89.3533259 160.468,90.844 C160.641334,92.3346741 160.927331,93.617328 161.326,94.692 C161.724669,95.766672 162.244663,96.5986637 162.886,97.188 C163.527337,97.7773363 164.333328,98.072 165.304,98.072 C166.274672,98.072 167.08933,97.7773363 167.748,97.188 C168.40667,96.5986637 168.926665,95.766672 169.308,94.692 C169.689335,93.617328 169.966666,92.3346741 170.14,90.844 C170.313334,89.3533259 170.4,87.7066757 170.4,85.904 Z M193.58,84.968 L198.988,76.648 L206.996,76.648 L197.636,89.804 C199.71601,92.404013 201.605325,94.9346544 203.304,97.396 C205.002675,99.8573456 206.354662,102.058657 207.36,104 L199.04,104 L198,102.05 C197.583998,101.269996 197.116003,100.455338 196.596,99.606 C196.075997,98.7566624 195.530003,97.9073376 194.958,97.058 C194.385997,96.2086624 193.822669,95.4373368 193.268,94.744 C192.747997,95.40267 192.219336,96.1306627 191.682,96.928 C191.144664,97.7253373 190.633336,98.5313293 190.148,99.346 C189.662664,100.160671 189.186002,100.966663 188.718,101.764 C188.249998,102.561337 187.842668,103.306663 187.496,104 L179.592,104 C180.008002,103.133329 180.579996,102.110673 181.308,100.932 C182.036004,99.7533274 182.824662,98.5313397 183.674,97.266 C184.523338,96.0006603 185.415995,94.7353397 186.352,93.47 C187.288005,92.2046603 188.206662,91.0173389 189.108,89.908 C187.547992,87.7239891 185.988008,85.5140112 184.428,83.278 C182.867992,81.0419888 181.325341,78.8320109 179.8,76.648 L188.172,76.648 L193.58,84.968 Z" id="50x" fill="#EE795C"></path>
                        <rect id="Rectangle-2" fill="#512668" fill-rule="nonzero" x="0" y="0" width="96" height="192"></rect>
                        <rect id="Rectangle-2-Copy" fill="#512668" fill-rule="nonzero" x="113" y="186" width="96" height="6"></rect>
                        <path d="M16.734,21.818 C16.734,22.1540017 16.6640007,22.4829984 16.524,22.805 C16.3839993,23.1270016 16.2043344,23.4396652 15.985,23.743 C15.7656656,24.0463349 15.5160014,24.3403319 15.236,24.625 C14.9559986,24.9096681 14.6760014,25.187332 14.396,25.458 C14.2466659,25.5980007 14.0786676,25.765999 13.892,25.962 C13.7053324,26.158001 13.5280008,26.353999 13.36,26.55 C13.1919992,26.746001 13.0473339,26.9349991 12.926,27.117 C12.8046661,27.2990009 12.7393334,27.4506661 12.73,27.572 L17.042,27.572 L17.042,29 L10.868,29 C10.8586666,28.925333 10.854,28.8343339 10.854,28.727 L10.854,28.482 C10.854,28.0339978 10.9263326,27.6210019 11.071,27.243 C11.2156674,26.8649981 11.4046655,26.5126683 11.638,26.186 C11.8713345,25.8593317 12.1326652,25.5513348 12.422,25.262 C12.7113348,24.9726652 13.0006652,24.6880014 13.29,24.408 C13.5140011,24.1933323 13.7286656,23.9833344 13.934,23.778 C14.1393344,23.5726656 14.3189992,23.3696677 14.473,23.169 C14.6270008,22.9683323 14.7506662,22.763001 14.844,22.553 C14.9373338,22.342999 14.984,22.1260011 14.984,21.902 C14.984,21.4166642 14.8440014,21.0713344 14.564,20.866 C14.2839986,20.6606656 13.9433353,20.558 13.542,20.558 C13.2806654,20.558 13.0380011,20.595333 12.814,20.67 C12.5899989,20.744667 12.3916675,20.8333328 12.219,20.936 C12.0463325,21.0386672 11.8946673,21.1436661 11.764,21.251 C11.6333327,21.3583339 11.5353337,21.4446663 11.47,21.51 L10.63,20.32 C11.022002,19.9466648 11.481664,19.6456678 12.009,19.417 C12.536336,19.1883322 13.1033303,19.074 13.71,19.074 C14.7460052,19.074 15.5089976,19.3189975 15.999,19.809 C16.4890025,20.2990024 16.734,20.9686624 16.734,21.818 Z M23.314,26.228 C23.314,25.9199985 23.2533339,25.6446679 23.132,25.402 C23.0106661,25.1593321 22.7983348,24.9540008 22.495,24.786 C22.1916651,24.6179992 21.7856692,24.4920004 21.277,24.408 C20.7683308,24.3239996 20.1266705,24.282 19.352,24.282 C19.4546672,23.3859955 19.5339997,22.5343374 19.59,21.727 C19.6460003,20.9196626 19.6926665,20.1100041 19.73,19.298 L24.686,19.298 L24.686,20.726 L21.172,20.726 C21.1626666,20.8846675 21.1510001,21.0643323 21.137,21.265 C21.1229999,21.4656677 21.1090001,21.6686656 21.095,21.874 C21.0809999,22.0793344 21.0646668,22.2753324 21.046,22.462 C21.0273332,22.6486676 21.0086668,22.8073327 20.99,22.938 C22.3713402,23.012667 23.3909967,23.3276639 24.049,23.883 C24.7070033,24.4383361 25.036,25.1966619 25.036,26.158 C25.036,26.5966689 24.9613341,27.0026648 24.812,27.376 C24.6626659,27.7493352 24.4340015,28.071332 24.126,28.342 C23.8179985,28.612668 23.430669,28.8249992 22.964,28.979 C22.497331,29.1330008 21.9513365,29.21 21.326,29.21 C21.0739987,29.21 20.8173346,29.1913335 20.556,29.154 C20.2946654,29.1166665 20.0450012,29.0723336 19.807,29.021 C19.5689988,28.9696664 19.3566676,28.9160003 19.17,28.86 C18.9833324,28.8039997 18.8433338,28.7526669 18.75,28.706 L19.072,27.278 C19.268001,27.3713338 19.5503315,27.4716661 19.919,27.579 C20.2876685,27.6863339 20.7379973,27.74 21.27,27.74 C21.6340018,27.74 21.9466654,27.7003337 22.208,27.621 C22.4693346,27.5416663 22.6816658,27.4320007 22.845,27.292 C23.0083341,27.1519993 23.127333,26.9910009 23.202,26.809 C23.276667,26.6269991 23.314,26.4333344 23.314,26.228 Z M28.732,27.138 C28.7506668,27.2966675 28.76,27.413333 28.76,27.488 L28.76,27.712 C28.76,28.2906696 28.6690009,28.8879969 28.487,29.504 C28.3049991,30.1200031 28.0506683,30.7033306 27.724,31.254 L26.394,30.89 C26.6180011,30.348664 26.7696663,29.8190026 26.849,29.301 C26.9283337,28.7829974 26.968,28.328002 26.968,27.936 C26.968,27.8239994 26.9656667,27.6840008 26.961,27.516 C26.9563333,27.3479992 26.9493334,27.2220004 26.94,27.138 L28.732,27.138 Z M37.006,24.142 C37.006,25.7753415 36.7073363,27.028329 36.11,27.901 C35.5126637,28.773671 34.6866719,29.21 33.632,29.21 C32.5773281,29.21 31.7513363,28.773671 31.154,27.901 C30.5566637,27.028329 30.258,25.7753415 30.258,24.142 C30.258,23.3299959 30.3349992,22.6090031 30.489,21.979 C30.6430008,21.3489968 30.8669985,20.8193355 31.161,20.39 C31.4550015,19.9606645 31.8096646,19.6340011 32.225,19.41 C32.6403354,19.1859989 33.1093307,19.074 33.632,19.074 C34.6866719,19.074 35.5126637,19.510329 36.11,20.383 C36.7073363,21.255671 37.006,22.5086585 37.006,24.142 Z M35.256,24.142 C35.256,23.6379975 35.2280003,23.1666689 35.172,22.728 C35.1159997,22.2893311 35.0250006,21.9090016 34.899,21.587 C34.7729994,21.2649984 34.6073344,21.0106676 34.402,20.824 C34.1966656,20.6373324 33.9400015,20.544 33.632,20.544 C33.3239985,20.544 33.065001,20.6373324 32.855,20.824 C32.644999,21.0106676 32.4770006,21.2649984 32.351,21.587 C32.2249994,21.9090016 32.1363336,22.2893311 32.085,22.728 C32.0336664,23.1666689 32.008,23.6379975 32.008,24.142 C32.008,24.6460025 32.0336664,25.1173311 32.085,25.556 C32.1363336,25.9946689 32.2249994,26.3749984 32.351,26.697 C32.4770006,27.0190016 32.644999,27.2733324 32.855,27.46 C33.065001,27.6466676 33.3239985,27.74 33.632,27.74 C33.9400015,27.74 34.1966656,27.6466676 34.402,27.46 C34.6073344,27.2733324 34.7729994,27.0190016 34.899,26.697 C35.0250006,26.3749984 35.1159997,25.9946689 35.172,25.556 C35.2280003,25.1173311 35.256,24.6460025 35.256,24.142 Z M44.958,24.142 C44.958,25.7753415 44.6593363,27.028329 44.062,27.901 C43.4646637,28.773671 42.6386719,29.21 41.584,29.21 C40.5293281,29.21 39.7033363,28.773671 39.106,27.901 C38.5086637,27.028329 38.21,25.7753415 38.21,24.142 C38.21,23.3299959 38.2869992,22.6090031 38.441,21.979 C38.5950008,21.3489968 38.8189985,20.8193355 39.113,20.39 C39.4070015,19.9606645 39.7616646,19.6340011 40.177,19.41 C40.5923354,19.1859989 41.0613307,19.074 41.584,19.074 C42.6386719,19.074 43.4646637,19.510329 44.062,20.383 C44.6593363,21.255671 44.958,22.5086585 44.958,24.142 Z M43.208,24.142 C43.208,23.6379975 43.1800003,23.1666689 43.124,22.728 C43.0679997,22.2893311 42.9770006,21.9090016 42.851,21.587 C42.7249994,21.2649984 42.5593344,21.0106676 42.354,20.824 C42.1486656,20.6373324 41.8920015,20.544 41.584,20.544 C41.2759985,20.544 41.017001,20.6373324 40.807,20.824 C40.5969989,21.0106676 40.4290006,21.2649984 40.303,21.587 C40.1769994,21.9090016 40.0883336,22.2893311 40.037,22.728 C39.9856664,23.1666689 39.96,23.6379975 39.96,24.142 C39.96,24.6460025 39.9856664,25.1173311 40.037,25.556 C40.0883336,25.9946689 40.1769994,26.3749984 40.303,26.697 C40.4290006,27.0190016 40.5969989,27.2733324 40.807,27.46 C41.017001,27.6466676 41.2759985,27.74 41.584,27.74 C41.8920015,27.74 42.1486656,27.6466676 42.354,27.46 C42.5593344,27.2733324 42.7249994,27.0190016 42.851,26.697 C42.9770006,26.3749984 43.0679997,25.9946689 43.124,25.556 C43.1800003,25.1173311 43.208,24.6460025 43.208,24.142 Z M52.91,24.142 C52.91,25.7753415 52.6113363,27.028329 52.014,27.901 C51.4166637,28.773671 50.5906719,29.21 49.536,29.21 C48.4813281,29.21 47.6553363,28.773671 47.058,27.901 C46.4606637,27.028329 46.162,25.7753415 46.162,24.142 C46.162,23.3299959 46.2389992,22.6090031 46.393,21.979 C46.5470008,21.3489968 46.7709985,20.8193355 47.065,20.39 C47.3590015,19.9606645 47.7136646,19.6340011 48.129,19.41 C48.5443354,19.1859989 49.0133307,19.074 49.536,19.074 C50.5906719,19.074 51.4166637,19.510329 52.014,20.383 C52.6113363,21.255671 52.91,22.5086585 52.91,24.142 Z M51.16,24.142 C51.16,23.6379975 51.1320003,23.1666689 51.076,22.728 C51.0199997,22.2893311 50.9290006,21.9090016 50.803,21.587 C50.6769994,21.2649984 50.5113344,21.0106676 50.306,20.824 C50.1006656,20.6373324 49.8440015,20.544 49.536,20.544 C49.2279985,20.544 48.969001,20.6373324 48.759,20.824 C48.5489989,21.0106676 48.3810006,21.2649984 48.255,21.587 C48.1289994,21.9090016 48.0403336,22.2893311 47.989,22.728 C47.9376664,23.1666689 47.912,23.6379975 47.912,24.142 C47.912,24.6460025 47.9376664,25.1173311 47.989,25.556 C48.0403336,25.9946689 48.1289994,26.3749984 48.255,26.697 C48.3810006,27.0190016 48.5489989,27.2733324 48.759,27.46 C48.969001,27.6466676 49.2279985,27.74 49.536,27.74 C49.8440015,27.74 50.1006656,27.6466676 50.306,27.46 C50.5113344,27.2733324 50.6769994,27.0190016 50.803,26.697 C50.9290006,26.3749984 51.0199997,25.9946689 51.076,25.556 C51.1320003,25.1173311 51.16,24.6460025 51.16,24.142 Z M17.294,46.474 L17.294,48 L11.162,48 L11.162,38.298 L12.926,38.298 L12.926,46.474 L17.294,46.474 Z M25.176,44.332 C25.176,44.9106696 25.0920008,45.4379976 24.924,45.914 C24.7559992,46.3900024 24.5180015,46.7959983 24.21,47.132 C23.9019985,47.4680017 23.5310022,47.7293324 23.097,47.916 C22.6629978,48.1026676 22.1846693,48.196 21.662,48.196 C21.1393307,48.196 20.6633355,48.1026676 20.234,47.916 C19.8046645,47.7293324 19.4360015,47.4680017 19.128,47.132 C18.8199985,46.7959983 18.5796675,46.3900024 18.407,45.914 C18.2343325,45.4379976 18.148,44.9106696 18.148,44.332 C18.148,43.7533304 18.2343325,43.2283357 18.407,42.757 C18.5796675,42.2856643 18.8223318,41.8820017 19.135,41.546 C19.4476682,41.2099983 19.8186645,40.9510009 20.248,40.769 C20.6773355,40.5869991 21.1486641,40.496 21.662,40.496 C22.1753359,40.496 22.6489978,40.5869991 23.083,40.769 C23.5170022,40.9510009 23.8879985,41.2099983 24.196,41.546 C24.5040015,41.8820017 24.7443325,42.2856643 24.917,42.757 C25.0896675,43.2283357 25.176,43.7533304 25.176,44.332 Z M23.44,44.332 C23.44,43.6039964 23.2836682,43.0276688 22.971,42.603 C22.6583318,42.1783312 22.2220028,41.966 21.662,41.966 C21.1019972,41.966 20.6656682,42.1783312 20.353,42.603 C20.0403318,43.0276688 19.884,43.6039964 19.884,44.332 C19.884,45.069337 20.0403318,45.6526645 20.353,46.082 C20.6656682,46.5113355 21.1019972,46.726 21.662,46.726 C22.2220028,46.726 22.6583318,46.5113355 22.971,46.082 C23.2836682,45.6526645 23.44,45.069337 23.44,44.332 Z M31.322,48.21 C30.5939964,48.21 29.9406696,48.0980011 29.362,47.874 C28.7833304,47.6499989 28.2933353,47.3210022 27.892,46.887 C27.4906647,46.4529978 27.1826677,45.9233365 26.968,45.298 C26.7533323,44.6726635 26.646,43.9540041 26.646,43.142 C26.646,42.3299959 26.7696654,41.6113365 27.017,40.986 C27.2643346,40.3606635 27.6026645,39.8310022 28.032,39.397 C28.4613355,38.9629978 28.9653304,38.6340011 29.544,38.41 C30.1226696,38.1859989 30.74333,38.074 31.406,38.074 C31.8073353,38.074 32.1713317,38.104333 32.498,38.165 C32.8246683,38.225667 33.1093321,38.293333 33.352,38.368 C33.5946679,38.442667 33.7953325,38.5219996 33.954,38.606 C34.1126675,38.6900004 34.2246663,38.7506665 34.29,38.788 L33.772,40.23 C33.5479989,40.0899993 33.2283354,39.9570006 32.813,39.831 C32.3976646,39.7049994 31.9473358,39.642 31.462,39.642 C31.0419979,39.642 30.6500018,39.7143326 30.286,39.859 C29.9219982,40.0036674 29.6070013,40.2206652 29.341,40.51 C29.0749987,40.7993348 28.8673341,41.1633311 28.718,41.602 C28.5686659,42.0406689 28.494,42.5493304 28.494,43.128 C28.494,43.6413359 28.5523328,44.1126645 28.669,44.542 C28.7856673,44.9713355 28.9653321,45.3423318 29.208,45.655 C29.4506679,45.9676682 29.7586648,46.2103325 30.132,46.383 C30.5053352,46.5556675 30.9533307,46.642 31.476,46.642 C32.1013365,46.642 32.609998,46.5790006 33.002,46.453 C33.394002,46.3269994 33.6973323,46.2080006 33.912,46.096 L34.388,47.538 C34.2759994,47.612667 34.1243343,47.687333 33.933,47.762 C33.7416657,47.836667 33.5153346,47.9089996 33.254,47.979 C32.9926654,48.0490004 32.6986683,48.1049998 32.372,48.147 C32.0453317,48.1890002 31.6953352,48.21 31.322,48.21 Z" id="25,000-LoC" fill="#FFFFFF"></path>
                        <path d="M140.362,175.228 C140.362,174.919998 140.301334,174.644668 140.18,174.402 C140.058666,174.159332 139.846335,173.954001 139.543,173.786 C139.239665,173.617999 138.833669,173.492 138.325,173.408 C137.816331,173.324 137.174671,173.282 136.4,173.282 C136.502667,172.385996 136.582,171.534337 136.638,170.727 C136.694,169.919663 136.740666,169.110004 136.778,168.298 L141.734,168.298 L141.734,169.726 L138.22,169.726 C138.210667,169.884667 138.199,170.064332 138.185,170.265 C138.171,170.465668 138.157,170.668666 138.143,170.874 C138.129,171.079334 138.112667,171.275332 138.094,171.462 C138.075333,171.648668 138.056667,171.807333 138.038,171.938 C139.41934,172.012667 140.438997,172.327664 141.097,172.883 C141.755003,173.438336 142.084,174.196662 142.084,175.158 C142.084,175.596669 142.009334,176.002665 141.86,176.376 C141.710666,176.749335 141.482002,177.071332 141.174,177.342 C140.865998,177.612668 140.478669,177.824999 140.012,177.979 C139.545331,178.133001 138.999336,178.21 138.374,178.21 C138.121999,178.21 137.865335,178.191334 137.604,178.154 C137.342665,178.116666 137.093001,178.072334 136.855,178.021 C136.616999,177.969666 136.404668,177.916 136.218,177.86 C136.031332,177.804 135.891334,177.752667 135.798,177.706 L136.12,176.278 C136.316001,176.371334 136.598331,176.471666 136.967,176.579 C137.335669,176.686334 137.785997,176.74 138.318,176.74 C138.682002,176.74 138.994665,176.700334 139.256,176.621 C139.517335,176.541666 139.729666,176.432001 139.893,176.292 C140.056334,176.151999 140.175333,175.991001 140.25,175.809 C140.324667,175.626999 140.362,175.433334 140.362,175.228 Z M150.302,173.142 C150.302,174.775341 150.003336,176.028329 149.406,176.901 C148.808664,177.773671 147.982672,178.21 146.928,178.21 C145.873328,178.21 145.047336,177.773671 144.45,176.901 C143.852664,176.028329 143.554,174.775341 143.554,173.142 C143.554,172.329996 143.630999,171.609003 143.785,170.979 C143.939001,170.348997 144.162999,169.819335 144.457,169.39 C144.751001,168.960665 145.105665,168.634001 145.521,168.41 C145.936335,168.185999 146.405331,168.074 146.928,168.074 C147.982672,168.074 148.808664,168.510329 149.406,169.383 C150.003336,170.255671 150.302,171.508658 150.302,173.142 Z M148.552,173.142 C148.552,172.637997 148.524,172.166669 148.468,171.728 C148.412,171.289331 148.321001,170.909002 148.195,170.587 C148.068999,170.264998 147.903334,170.010668 147.698,169.824 C147.492666,169.637332 147.236002,169.544 146.928,169.544 C146.619998,169.544 146.361001,169.637332 146.151,169.824 C145.940999,170.010668 145.773001,170.264998 145.647,170.587 C145.520999,170.909002 145.432334,171.289331 145.381,171.728 C145.329666,172.166669 145.304,172.637997 145.304,173.142 C145.304,173.646003 145.329666,174.117331 145.381,174.556 C145.432334,174.994669 145.520999,175.374998 145.647,175.697 C145.773001,176.019002 145.940999,176.273332 146.151,176.46 C146.361001,176.646668 146.619998,176.74 146.928,176.74 C147.236002,176.74 147.492666,176.646668 147.698,176.46 C147.903334,176.273332 148.068999,176.019002 148.195,175.697 C148.321001,175.374998 148.412,174.994669 148.468,174.556 C148.524,174.117331 148.552,173.646003 148.552,173.142 Z M158.254,173.142 C158.254,174.775341 157.955336,176.028329 157.358,176.901 C156.760664,177.773671 155.934672,178.21 154.88,178.21 C153.825328,178.21 152.999336,177.773671 152.402,176.901 C151.804664,176.028329 151.506,174.775341 151.506,173.142 C151.506,172.329996 151.582999,171.609003 151.737,170.979 C151.891001,170.348997 152.114999,169.819335 152.409,169.39 C152.703001,168.960665 153.057665,168.634001 153.473,168.41 C153.888335,168.185999 154.357331,168.074 154.88,168.074 C155.934672,168.074 156.760664,168.510329 157.358,169.383 C157.955336,170.255671 158.254,171.508658 158.254,173.142 Z M156.504,173.142 C156.504,172.637997 156.476,172.166669 156.42,171.728 C156.364,171.289331 156.273001,170.909002 156.147,170.587 C156.020999,170.264998 155.855334,170.010668 155.65,169.824 C155.444666,169.637332 155.188002,169.544 154.88,169.544 C154.571998,169.544 154.313001,169.637332 154.103,169.824 C153.892999,170.010668 153.725001,170.264998 153.599,170.587 C153.472999,170.909002 153.384334,171.289331 153.333,171.728 C153.281666,172.166669 153.256,172.637997 153.256,173.142 C153.256,173.646003 153.281666,174.117331 153.333,174.556 C153.384334,174.994669 153.472999,175.374998 153.599,175.697 C153.725001,176.019002 153.892999,176.273332 154.103,176.46 C154.313001,176.646668 154.571998,176.74 154.88,176.74 C155.188002,176.74 155.444666,176.646668 155.65,176.46 C155.855334,176.273332 156.020999,176.019002 156.147,175.697 C156.273001,175.374998 156.364,174.994669 156.42,174.556 C156.476,174.117331 156.504,173.646003 156.504,173.142 Z M169.412,176.474 L169.412,178 L163.28,178 L163.28,168.298 L165.044,168.298 L165.044,176.474 L169.412,176.474 Z M177.294,174.332 C177.294,174.91067 177.210001,175.437998 177.042,175.914 C176.873999,176.390002 176.636002,176.795998 176.328,177.132 C176.019998,177.468002 175.649002,177.729332 175.215,177.916 C174.780998,178.102668 174.302669,178.196 173.78,178.196 C173.257331,178.196 172.781335,178.102668 172.352,177.916 C171.922665,177.729332 171.554002,177.468002 171.246,177.132 C170.937998,176.795998 170.697668,176.390002 170.525,175.914 C170.352332,175.437998 170.266,174.91067 170.266,174.332 C170.266,173.75333 170.352332,173.228336 170.525,172.757 C170.697668,172.285664 170.940332,171.882002 171.253,171.546 C171.565668,171.209998 171.936665,170.951001 172.366,170.769 C172.795335,170.586999 173.266664,170.496 173.78,170.496 C174.293336,170.496 174.766998,170.586999 175.201,170.769 C175.635002,170.951001 176.005998,171.209998 176.314,171.546 C176.622002,171.882002 176.862332,172.285664 177.035,172.757 C177.207668,173.228336 177.294,173.75333 177.294,174.332 Z M175.558,174.332 C175.558,173.603996 175.401668,173.027669 175.089,172.603 C174.776332,172.178331 174.340003,171.966 173.78,171.966 C173.219997,171.966 172.783668,172.178331 172.471,172.603 C172.158332,173.027669 172.002,173.603996 172.002,174.332 C172.002,175.069337 172.158332,175.652665 172.471,176.082 C172.783668,176.511335 173.219997,176.726 173.78,176.726 C174.340003,176.726 174.776332,176.511335 175.089,176.082 C175.401668,175.652665 175.558,175.069337 175.558,174.332 Z M183.44,178.21 C182.711996,178.21 182.05867,178.098001 181.48,177.874 C180.90133,177.649999 180.411335,177.321002 180.01,176.887 C179.608665,176.452998 179.300668,175.923336 179.086,175.298 C178.871332,174.672664 178.764,173.954004 178.764,173.142 C178.764,172.329996 178.887665,171.611336 179.135,170.986 C179.382335,170.360664 179.720665,169.831002 180.15,169.397 C180.579335,168.962998 181.08333,168.634001 181.662,168.41 C182.24067,168.185999 182.86133,168.074 183.524,168.074 C183.925335,168.074 184.289332,168.104333 184.616,168.165 C184.942668,168.225667 185.227332,168.293333 185.47,168.368 C185.712668,168.442667 185.913333,168.522 186.072,168.606 C186.230667,168.69 186.342666,168.750666 186.408,168.788 L185.89,170.23 C185.665999,170.089999 185.346335,169.957001 184.931,169.831 C184.515665,169.704999 184.065336,169.642 183.58,169.642 C183.159998,169.642 182.768002,169.714333 182.404,169.859 C182.039998,170.003667 181.725001,170.220665 181.459,170.51 C181.192999,170.799335 180.985334,171.163331 180.836,171.602 C180.686666,172.040669 180.612,172.54933 180.612,173.128 C180.612,173.641336 180.670333,174.112665 180.787,174.542 C180.903667,174.971335 181.083332,175.342332 181.326,175.655 C181.568668,175.967668 181.876665,176.210332 182.25,176.383 C182.623335,176.555668 183.071331,176.642 183.594,176.642 C184.219336,176.642 184.727998,176.579001 185.12,176.453 C185.512002,176.326999 185.815332,176.208001 186.03,176.096 L186.506,177.538 C186.393999,177.612667 186.242334,177.687333 186.051,177.762 C185.859666,177.836667 185.633335,177.909 185.372,177.979 C185.110665,178.049 184.816668,178.105 184.49,178.147 C184.163332,178.189 183.813335,178.21 183.44,178.21 Z" id="500-LoC" fill="#000000"></path>
                        <polyline id="Path-2" stroke="#EE795C" stroke-width="4" fill-rule="nonzero" points="113 3 167 3 167 51.9609375"></polyline>
                        <path d="M167,121 L167,157" id="Path-2-Copy" stroke="#EE795C" stroke-width="4" fill-rule="nonzero"></path>
                    </g>
                </g>
            </g>
        </g>
    </g>
</svg>