<svg viewBox="0 0 32 32" fill="currentColor" xmlns="http://www.w3.org/2000/svg">
<path d="M25.681 18.2698C26.1299 17.9483 26.7549 18.0514 27.0765 18.5002C27.786 19.4902 28.9021 21.1552 28.7601 23.1018C28.6896 24.0683 28.0729 25.0222 27.2582 25.6409C26.4097 26.285 25.2181 26.6653 23.9203 26.2854C23.6041 26.1928 23.1777 26.0891 22.6771 25.9807L22.5004 26.175C20.9698 27.8446 18.2918 29.3702 15.7162 29.3284C13.7101 29.2957 11.1148 28.5298 9.21715 26.4778L9.01402 26.259C8.57047 26.368 8.14196 26.4721 7.72887 26.5618L7.7152 26.5647L7.7025 26.5676C6.96261 26.7071 4.56093 27.0016 3.22008 24.6965C2.52543 23.5023 2.75413 22.1868 3.13512 21.176C3.52257 20.1482 4.14924 19.2122 4.57652 18.6047C4.89428 18.153 5.51836 18.0448 5.97008 18.3625C6.42154 18.6803 6.52991 19.3035 6.21227 19.7551C5.79772 20.3444 5.29943 21.1068 5.00719 21.8821C4.70858 22.6743 4.70265 23.2676 4.9486 23.6907C5.58304 24.7813 6.69381 24.7206 7.3275 24.6018C9.38651 24.1527 12.5745 23.1298 16.015 23.1614H16.0238C18.9188 23.1628 22.8799 23.8976 24.4818 24.3664C25.0626 24.5364 25.6079 24.3823 26.0482 24.0481C26.5221 23.6883 26.7468 23.2187 26.766 22.9563C26.8498 21.806 26.1783 20.6807 25.4505 19.6653C25.129 19.2164 25.2322 18.5914 25.681 18.2698ZM16.0052 25.1614C14.3367 25.1451 12.7674 25.398 11.3168 25.7131C12.6868 26.8437 14.3818 27.3061 15.7494 27.3284C17.2721 27.353 18.9988 26.5737 20.263 25.5393C18.8463 25.3238 17.3026 25.1614 16.015 25.1614H16.0052ZM25.139 9.49046C26.2278 9.49358 27.2472 10.2896 27.3324 11.4905C27.4052 12.5179 27.411 14.1947 26.8421 15.6614C26.5521 16.4091 26.095 17.1463 25.3812 17.7004C24.6568 18.2627 23.736 18.5823 22.6195 18.5979C21.0874 18.6192 19.9449 18.354 19.0736 17.8586C18.1904 17.3564 17.686 16.6747 17.3402 16.0588C17.175 15.7645 17.0343 15.4631 16.9242 15.2366C16.8046 14.9906 16.7156 14.8216 16.6254 14.6916C16.5409 14.5701 16.4793 14.5187 16.4349 14.4924C16.4062 14.4754 16.3561 14.4514 16.263 14.4387L16.1556 14.4309H15.4847C15.383 14.4303 15.3576 14.4503 15.3558 14.4514C15.3409 14.4608 15.2926 14.4972 15.2093 14.6233C15.1215 14.7562 15.0342 14.9263 14.9095 15.1789C14.7934 15.4143 14.6487 15.7119 14.4701 16.0129C14.1006 16.6356 13.5654 17.3114 12.6644 17.8244C11.7742 18.3314 10.6073 18.6336 9.0443 18.6614C7.95447 18.6807 7.0417 18.3786 6.30895 17.8352C5.58982 17.3018 5.10105 16.5796 4.76793 15.841C4.11174 14.3861 3.97793 12.6887 3.96422 11.6155C3.94799 10.3415 4.99655 9.43034 6.17027 9.43382C9.91365 9.44497 21.5222 9.48021 25.139 9.49046ZM6.16442 11.4338C6.08696 11.4336 6.03359 11.4614 6.00426 11.4895C5.97828 11.5144 5.96364 11.5445 5.96422 11.5901C5.97688 12.5803 6.10663 13.9444 6.59117 15.0188C6.82841 15.5448 7.1305 15.9544 7.50035 16.2287C7.85647 16.4928 8.33171 16.6744 9.00914 16.6623C10.3367 16.6387 11.1517 16.3842 11.6752 16.0862C12.1875 15.7943 12.4989 15.4162 12.7504 14.9924C12.8821 14.7704 12.9912 14.5462 13.1156 14.2942C13.2315 14.0594 13.3719 13.7757 13.5404 13.5207C13.7134 13.2588 13.9507 12.973 14.2933 12.758C14.6478 12.5356 15.0508 12.4292 15.4906 12.4309H16.2074C16.6683 12.4429 17.0861 12.5535 17.4545 12.7717C17.8166 12.9863 18.0746 13.2717 18.2679 13.55C18.4554 13.8198 18.6027 14.1141 18.723 14.3616C18.8528 14.6285 18.9567 14.8519 19.0843 15.0793C19.3243 15.5066 19.6023 15.859 20.0619 16.1203C20.534 16.3887 21.2962 16.6169 22.5921 16.5989C23.3244 16.5886 23.8114 16.3868 24.1546 16.1203C24.5085 15.8457 24.7796 15.4464 24.9769 14.9377C25.3827 13.8915 25.4041 12.5753 25.3373 11.6321C25.3348 11.597 25.3216 11.5699 25.2933 11.5452C25.2615 11.5173 25.2069 11.4907 25.1332 11.4905C21.5161 11.4802 9.90712 11.445 6.16442 11.4338ZM15.6693 3.00706C18.8363 3.05051 20.9179 4.10602 22.2181 5.21507C22.8606 5.76312 23.299 6.31297 23.5804 6.7346C23.7211 6.94542 23.8236 7.12525 23.8929 7.25804C23.9275 7.32419 23.9539 7.37888 23.973 7.42015C23.9825 7.44069 23.9905 7.45822 23.9964 7.47191C23.9995 7.47878 24.0021 7.48542 24.0043 7.49046C24.0053 7.49287 24.0064 7.49533 24.0072 7.4973L24.0082 7.50023L24.0091 7.50121C24.0093 7.50185 23.9994 7.50699 23.18 7.84496L24.0091 7.50121C24.2197 8.01172 23.9766 8.59722 23.4662 8.80785C22.9876 9.00523 22.4441 8.80417 22.2045 8.35765L22.1625 8.26878C22.1629 8.26989 22.1631 8.27102 22.1634 8.27171L22.1586 8.26195C22.1519 8.24768 22.1391 8.22032 22.1195 8.18285C22.0803 8.10786 22.0146 7.99067 21.9173 7.84496C21.722 7.55237 21.402 7.1475 20.9203 6.73656C19.9718 5.92748 18.3385 5.04407 15.642 5.00706C12.9703 4.97042 11.3543 5.87309 10.4105 6.72093C9.92962 7.153 9.60845 7.58498 9.41051 7.9016C9.31175 8.05957 9.24485 8.18778 9.20445 8.27074C9.18431 8.31211 9.17061 8.34201 9.16344 8.35863C9.15988 8.36688 9.15813 8.37193 9.15758 8.37328L9.15953 8.36839C9.15955 8.36834 9.15964 8.36692 9.15856 8.36644C8.96049 8.88142 8.38379 9.13909 7.86852 8.94164C7.3529 8.74382 7.09458 8.16526 7.29235 7.64964L8.17809 7.98949C7.34865 7.67126 7.29643 7.65049 7.29332 7.64867V7.64671L7.2943 7.64476C7.29504 7.64285 7.2963 7.64027 7.29723 7.63792C7.29924 7.63284 7.30218 7.62641 7.30504 7.61937C7.31077 7.60528 7.31819 7.58722 7.3275 7.56566C7.34611 7.52256 7.37156 7.46473 7.40563 7.39476C7.47376 7.25485 7.57459 7.0644 7.71422 6.84105C7.99306 6.39502 8.43021 5.81171 9.0736 5.23363C10.3786 4.06111 12.4776 2.96329 15.6693 3.00706Z" />
<path d="M13.4964 18.8153C13.819 18.3672 14.4437 18.2653 14.892 18.5878C15.3401 18.9103 15.4419 19.535 15.1195 19.9833L14.4632 20.8954C14.1407 21.3436 13.5161 21.4454 13.0677 21.1229C12.6196 20.8004 12.5178 20.1757 12.8402 19.7274L13.4964 18.8153ZM16.4838 18.5878C16.9321 18.2653 17.5568 18.367 17.8793 18.8153L18.5355 19.7274C18.8579 20.1756 18.7559 20.8003 18.308 21.1229C17.8596 21.4454 17.234 21.3437 16.9115 20.8954L16.2552 19.9833C15.9329 19.5349 16.0355 18.9102 16.4838 18.5878Z" />
</svg>
