<svg viewBox="0 0 32 32" fill="currentColor" xmlns="http://www.w3.org/2000/svg">
<path fill-rule="evenodd" clip-rule="evenodd" d="M15.7734 2.66718C17.3646 2.6673 18.8905 3.29988 20.0156 4.42499C21.1406 5.55018 21.7734 7.07603 21.7734 8.66718V11.6672H23.7734C24.6273 11.6672 25.3613 11.8088 25.9678 12.1232C26.592 12.447 27.0188 12.9217 27.293 13.4699C27.7953 14.4749 27.7734 15.7432 27.7734 16.6672C27.7734 17.743 27.7955 18.475 28.043 18.9699C28.1437 19.1713 28.28 19.3221 28.499 19.4357C28.7362 19.5586 29.1281 19.6672 29.7734 19.6672C30.3255 19.6674 30.7734 20.1151 30.7734 20.6672C30.7734 21.2192 30.3254 21.6669 29.7734 21.6672C29.128 21.6672 28.7362 21.7757 28.499 21.8986C28.2799 22.0123 28.1437 22.1629 28.043 22.3644C27.7955 22.8594 27.7734 23.5913 27.7734 24.6672C27.7734 25.5913 27.7954 26.8594 27.293 27.8644C27.0188 28.4127 26.5921 28.8873 25.9678 29.2111C25.3613 29.5255 24.6273 29.6671 23.7734 29.6672H7.77344C6.91953 29.6672 6.18561 29.5254 5.5791 29.2111C4.95476 28.8874 4.5281 28.4127 4.25391 27.8644C3.7514 26.8594 3.77344 25.5913 3.77344 24.6672C3.77344 23.5915 3.75123 22.8594 3.50391 22.3644C3.4032 22.163 3.26673 22.0123 3.04785 21.8986C2.8108 21.7757 2.41891 21.6672 1.77344 21.6672C1.2212 21.6672 0.772543 21.2194 0.772461 20.6672C0.772461 20.1149 1.22115 19.6672 1.77344 19.6672C2.41891 19.6671 2.8108 19.5586 3.04785 19.4357C3.2668 19.3221 3.40318 19.1714 3.50391 18.9699C3.75133 18.475 3.77344 17.7429 3.77344 16.6672C3.77344 15.7431 3.75138 14.475 4.25391 13.4699C4.5281 12.9216 4.95467 12.447 5.5791 12.1232C6.18563 11.8089 6.91947 11.6672 7.77344 11.6672H9.77344V8.66718C9.77344 7.07588 10.406 5.55021 11.5312 4.42499C12.6565 3.29987 14.1822 2.66718 15.7734 2.66718ZM15.8271 17.1672C15.1196 17.1672 14.4346 17.4172 13.8936 17.8732C13.3525 18.3294 12.9898 18.9628 12.8701 19.6603C12.7505 20.3577 12.8812 21.0754 13.2393 21.6857C13.5973 22.296 14.16 22.7604 14.8271 22.9963L14.8223 25.7766C14.8223 26.0417 14.9277 26.2961 15.1152 26.4836C15.3028 26.6711 15.5571 26.7766 15.8223 26.7766C16.0874 26.7765 16.3418 26.6711 16.5293 26.4836C16.7168 26.2961 16.8222 26.0417 16.8223 25.7766L16.8271 22.9963C17.4943 22.7604 18.057 22.296 18.415 21.6857C18.7731 21.0754 18.9038 20.3577 18.7842 19.6603C18.6645 18.9628 18.3018 18.3294 17.7607 17.8732C17.2197 17.4172 16.5347 17.1672 15.8271 17.1672ZM15.7734 4.66718C14.7127 4.66718 13.6954 5.08901 12.9453 5.83905C12.1952 6.5892 11.7734 7.60631 11.7734 8.66718V11.6672H19.7734V8.66718C19.7734 7.60646 19.3515 6.58916 18.6016 5.83905C17.8515 5.08902 16.8341 4.6673 15.7734 4.66718Z" />
</svg>
