<svg viewBox="0 0 32 32" fill="currentColor" xmlns="http://www.w3.org/2000/svg">
<path d="M19.5 8.66153C19.5 7.73327 19.131 6.8433 18.4746 6.18692C17.8182 5.53054 16.9283 5.16153 16 5.16153C15.0717 5.16153 14.1818 5.53054 13.5254 6.18692C12.869 6.8433 12.5 7.73327 12.5 8.66153V11.1615H19.5V8.66153ZM17 20.1615C17 19.6092 16.5523 19.1615 16 19.1615C15.4477 19.1615 15 19.6092 15 20.1615C15 20.7138 15.4477 21.1615 16 21.1615C16.5523 21.1615 17 20.7138 17 20.1615ZM20 20.1615C20 21.8399 18.9655 23.275 17.5 23.8686V25.6615C17.5 26.49 16.8284 27.1615 16 27.1615C15.1716 27.1615 14.5 26.49 14.5 25.6615V23.8686C13.0345 23.275 12 21.8399 12 20.1615C12 17.9524 13.7909 16.1615 16 16.1615C18.2091 16.1615 20 17.9524 20 20.1615ZM22.5 11.1615H24C24.9063 11.1615 25.7258 11.3109 26.4248 11.6732C27.1506 12.0496 27.6493 12.6056 27.9668 13.2406C28.5331 14.3732 28.5 15.7754 28.5 16.6615C28.5 17.7754 28.5331 18.3732 28.7168 18.7406C28.7742 18.8555 28.8382 18.9246 28.9561 18.9857C29.1008 19.0608 29.4064 19.1615 30 19.1615C30.8284 19.1615 31.5 19.8331 31.5 20.6615C31.5 21.49 30.8284 22.1615 30 22.1615C29.4064 22.1615 29.1008 22.2623 28.9561 22.3373C28.8382 22.3985 28.7742 22.4676 28.7168 22.5824C28.5331 22.9498 28.5 23.5477 28.5 24.6615C28.5 25.5477 28.5331 26.9498 27.9668 28.0824C27.6493 28.7175 27.1506 29.2735 26.4248 29.6498C25.7258 30.0122 24.9063 30.1615 24 30.1615C23.1716 30.1615 22.5 29.49 22.5 28.6615C22.5 27.8331 23.1716 27.1615 24 27.1615C24.5936 27.1615 24.8992 27.0608 25.0439 26.9857C25.1618 26.9246 25.2258 26.8555 25.2832 26.7406C25.4669 26.3732 25.5 25.7754 25.5 24.6615C25.5 23.7754 25.4669 22.3732 26.0332 21.2406C26.1346 21.0379 26.2567 20.8449 26.3965 20.6615C26.2567 20.4782 26.1346 20.2852 26.0332 20.0824C25.4669 18.9498 25.5 17.5477 25.5 16.6615C25.5 15.5477 25.4669 14.9498 25.2832 14.5824C25.2258 14.4676 25.1618 14.3985 25.0439 14.3373C24.8992 14.2623 24.5936 14.1615 24 14.1615H8C7.40636 14.1615 7.10078 14.2623 6.95605 14.3373C6.83818 14.3985 6.77423 14.4676 6.7168 14.5824C6.53309 14.9498 6.5 15.5477 6.5 16.6615C6.5 17.5477 6.53309 18.9498 5.9668 20.0824C5.86532 20.2854 5.74249 20.4781 5.60254 20.6615C5.74249 20.845 5.86532 21.0377 5.9668 21.2406C6.53309 22.3732 6.5 23.7754 6.5 24.6615C6.5 25.7754 6.53309 26.3732 6.7168 26.7406C6.77423 26.8555 6.83818 26.9246 6.95605 26.9857C7.10078 27.0608 7.40636 27.1615 8 27.1615C8.82843 27.1615 9.5 27.8331 9.5 28.6615C9.5 29.49 8.82843 30.1615 8 30.1615C7.09373 30.1615 6.27418 30.0122 5.5752 29.6498C4.84944 29.2735 4.35073 28.7175 4.0332 28.0824C3.46691 26.9498 3.5 25.5477 3.5 24.6615C3.5 23.5477 3.46691 22.9498 3.2832 22.5824C3.22577 22.4676 3.16182 22.3985 3.04395 22.3373C2.89922 22.2623 2.59364 22.1615 2 22.1615C1.17157 22.1615 0.5 21.49 0.5 20.6615C0.5 19.8331 1.17157 19.1615 2 19.1615C2.59364 19.1615 2.89922 19.0608 3.04395 18.9857C3.16182 18.9246 3.22577 18.8555 3.2832 18.7406C3.46691 18.3732 3.5 17.7754 3.5 16.6615C3.5 15.7754 3.46691 14.3732 4.0332 13.2406C4.35073 12.6056 4.84944 12.0496 5.5752 11.6732C6.27418 11.3109 7.09373 11.1615 8 11.1615H9.5V8.66153C9.5 6.93762 10.1843 5.28384 11.4033 4.06485C12.6223 2.84586 14.2761 2.16153 16 2.16153C17.7239 2.16153 19.3777 2.84586 20.5967 4.06485C21.8157 5.28384 22.5 6.93762 22.5 8.66153V11.1615Z" />
</svg>
