<svg viewBox="0 0 32 32" fill="currentColor" xmlns="http://www.w3.org/2000/svg">
<path d="M25.1364 10.4906C21.5195 10.4804 9.91056 10.4444 6.16754 10.4332C5.50137 10.4313 4.95618 10.9364 4.96469 11.6025C4.99106 13.666 5.49156 17.7244 9.02714 17.6616C14.8082 17.5589 13.3132 13.4174 15.4906 13.4307H16.1815C18.687 13.4962 16.9496 17.677 22.606 17.5982C26.3044 17.5466 26.4747 13.5313 26.335 11.5607C26.2908 10.9387 25.7599 10.4924 25.1364 10.4906Z" />
<path d="M25.6814 18.2704C26.1303 17.9487 26.7552 18.0511 27.0769 18.4999C27.7863 19.4898 28.9024 21.1549 28.7605 23.1015C28.69 24.068 28.0732 25.0219 27.2585 25.6405C26.4101 26.2847 25.2185 26.6649 23.9206 26.2851C23.6045 26.1925 23.178 26.0897 22.6775 25.9814L22.5007 26.1747C20.9702 27.8443 18.2921 29.3699 15.7165 29.328C13.7104 29.2953 11.1152 28.5295 9.21752 26.4774L9.01537 26.2587C8.57148 26.3677 8.14262 26.4718 7.72924 26.5614L7.71557 26.5644L7.70287 26.5673C6.96298 26.7067 4.56129 27.0013 3.22045 24.6962C2.52599 23.5022 2.75462 22.1874 3.13549 21.1767C3.52295 20.1487 4.14957 19.2119 4.5769 18.6044C4.89465 18.1527 5.51873 18.0445 5.97045 18.3622C6.42193 18.68 6.53022 19.3032 6.21264 19.7548C5.79809 20.3441 5.2998 21.1064 5.00756 21.8817C4.70894 22.674 4.70309 23.2672 4.94897 23.6903C5.58342 24.781 6.69419 24.7203 7.32787 24.6015C9.38688 24.1524 12.5749 23.1295 16.0154 23.161C18.9111 23.161 22.8787 23.8968 24.4822 24.3661C25.063 24.5361 25.6082 24.3821 26.0486 24.0478C26.5225 23.6879 26.7472 23.2184 26.7663 22.956C26.8501 21.8057 26.1786 20.6804 25.4509 19.6649C25.1294 19.2161 25.2327 18.5921 25.6814 18.2704ZM16.0056 25.161C14.3371 25.1448 12.7678 25.3977 11.3171 25.7128C12.6872 26.8435 14.3821 27.3068 15.7497 27.329C17.2725 27.3536 18.9992 26.5734 20.2634 25.539C18.8467 25.3235 17.303 25.161 16.0154 25.161H16.0056ZM13.4968 18.8153C13.8193 18.367 14.444 18.2644 14.8923 18.5868C15.3407 18.9093 15.4423 19.535 15.1199 19.9833L14.4636 20.8954C14.1411 21.3435 13.5163 21.4454 13.0681 21.123C12.6198 20.8005 12.5181 20.1758 12.8406 19.7274L13.4968 18.8153ZM16.4841 18.5868C16.9325 18.2646 17.5572 18.3671 17.8796 18.8153L18.5359 19.7274C18.8582 20.1757 18.7564 20.8004 18.3083 21.123C17.86 21.4454 17.2344 21.3437 16.9119 20.8954L16.2556 19.9833C15.9331 19.535 16.0358 18.9093 16.4841 18.5868ZM25.1394 9.49014C26.2281 9.49333 27.2476 10.2894 27.3328 11.4901C27.4056 12.5175 27.4114 14.1944 26.8425 15.661C26.5524 16.4089 26.0954 17.1459 25.3816 17.7001C24.6572 18.2624 23.7365 18.583 22.6199 18.5985C21.0878 18.6199 19.9452 18.3546 19.074 17.8593C18.1907 17.3571 17.6864 16.6744 17.3406 16.0585C17.1753 15.7642 17.0347 15.4628 16.9246 15.2362C16.805 14.9903 16.716 14.8213 16.6257 14.6913C16.5413 14.5698 16.4796 14.5184 16.4353 14.4921C16.4065 14.4751 16.3565 14.4511 16.2634 14.4384L16.155 14.4306H15.4841C15.385 14.43 15.3589 14.4491 15.3562 14.4511C15.3413 14.4604 15.2929 14.497 15.2097 14.623C15.1219 14.7559 15.0346 14.926 14.9099 15.1786C14.7938 15.4139 14.649 15.7116 14.4705 16.0126C14.101 16.6352 13.5657 17.3111 12.6648 17.8241C11.7746 18.3311 10.6077 18.6333 9.04467 18.661C7.9546 18.6804 7.04119 18.3784 6.30834 17.8349C5.58933 17.3015 5.10139 16.5792 4.7683 15.8407C4.11212 14.3858 3.97831 12.6884 3.96459 11.6151C3.9484 10.3412 4.99693 9.43001 6.17065 9.4335C9.91417 9.44465 21.5226 9.47989 25.1394 9.49014ZM6.16479 11.4335C6.08738 11.4333 6.03398 11.4611 6.00463 11.4892C5.97863 11.5141 5.96401 11.5442 5.96459 11.5898C5.97725 12.58 6.10699 13.9441 6.59155 15.0185C6.82878 15.5445 7.13087 15.9541 7.50072 16.2284C7.85684 16.4925 8.3321 16.6741 9.00951 16.662C10.3369 16.6384 11.1511 16.3839 11.6746 16.0858C12.1872 15.7939 12.4992 15.416 12.7507 14.9921C12.8824 14.7701 12.9916 14.5459 13.116 14.2939C13.2318 14.0591 13.3723 13.7754 13.5408 13.5204C13.7138 13.2585 13.9511 12.9727 14.2937 12.7577C14.6482 12.5353 15.0511 12.4288 15.491 12.4306H16.2078C16.6686 12.4426 17.0865 12.5532 17.4548 12.7714C17.817 12.9859 18.0749 13.2714 18.2683 13.5497C18.4557 13.8195 18.6031 14.1138 18.7234 14.3612C18.8531 14.6282 18.9561 14.8517 19.0837 15.079C19.3237 15.5065 19.6025 15.8586 20.0622 16.12C20.5343 16.3884 21.2959 16.6165 22.5915 16.5985C23.3241 16.5883 23.8117 16.3865 24.155 16.12C24.5089 15.8453 24.78 15.4461 24.9773 14.9374C25.3831 13.8911 25.4045 12.575 25.3376 11.6317C25.3352 11.5967 25.322 11.5696 25.2937 11.5448C25.2619 11.517 25.2073 11.4904 25.1335 11.4901C21.5167 11.4799 9.9077 11.4446 6.16479 11.4335ZM15.6697 3.00674C18.8367 3.05019 20.9183 4.10569 22.2185 5.21475C22.861 5.76281 23.2994 6.31264 23.5808 6.73428C23.7215 6.94511 23.824 7.12493 23.8933 7.25772C23.9278 7.32386 23.9542 7.37856 23.9734 7.41983C23.9829 7.44036 23.9908 7.45791 23.9968 7.47159C23.9998 7.47846 24.0025 7.4851 24.0046 7.49014C24.0057 7.49256 24.0067 7.495 24.0076 7.49698C24.0079 7.49791 24.0082 7.49907 24.0085 7.49991L24.0095 7.50089C24.0097 7.50151 24.0022 7.50565 23.1804 7.84464L24.0095 7.50089C24.2201 8.01139 23.977 8.59689 23.4665 8.80753C22.9879 9.00492 22.4445 8.80386 22.2048 8.35733L22.1628 8.26846C22.1633 8.26956 22.1635 8.27071 22.1638 8.27139L22.1589 8.26163C22.1523 8.24736 22.1394 8.22 22.1199 8.18253C22.0807 8.10754 22.015 7.99035 21.9177 7.84464C21.7224 7.55205 21.4024 7.14719 20.9206 6.73624C19.9721 5.92716 18.3389 5.04375 15.6423 5.00674C12.9707 4.9701 11.3546 5.87276 10.4109 6.72061C9.92999 7.15268 9.60882 7.58465 9.41088 7.90128C9.31212 8.05926 9.24522 8.18746 9.20483 8.27042C9.18467 8.31181 9.17099 8.34169 9.16381 8.35831C9.16024 8.36657 9.1585 8.37161 9.15795 8.37296L9.1599 8.36807C9.15993 8.36801 9.16003 8.36661 9.15893 8.36612C8.96087 8.88112 8.38418 9.13878 7.86889 8.94131C7.35326 8.7435 7.09493 8.16495 7.29272 7.64932L8.17846 7.98917C7.34763 7.6704 7.29664 7.65011 7.29369 7.64835L7.29467 7.64444C7.29542 7.64252 7.29667 7.63997 7.2976 7.6376C7.29961 7.63252 7.30255 7.6261 7.30541 7.61905C7.31115 7.60496 7.31857 7.58689 7.32787 7.56534C7.34649 7.52224 7.37193 7.4644 7.406 7.39444C7.47413 7.25453 7.57496 7.06409 7.71459 6.84073C7.99344 6.3947 8.43059 5.81139 9.07397 5.23331C10.379 4.06078 12.4779 2.96297 15.6697 3.00674Z" />
</svg>
