<svg viewBox="0 0 32 32" fill="currentColor" xmlns="http://www.w3.org/2000/svg">
<path d="M16.126 2.50391C16.3764 2.51929 16.623 2.57986 16.8525 2.68457L16.9658 2.74121L22.9238 5.91797L23.041 5.98535C23.1051 6.02518 23.1663 6.06955 23.2256 6.11621C23.473 6.25272 23.6854 6.45988 23.8271 6.72852C23.965 6.98991 24.0153 7.27359 23.9932 7.54785C23.9971 7.59838 23.9999 7.64921 24 7.7002V13.3105L29.4238 16.2041L29.541 16.2715C29.6052 16.3113 29.6663 16.3557 29.7256 16.4023C29.9729 16.5389 30.1855 16.7461 30.3271 17.0146C30.465 17.2761 30.5154 17.5597 30.4932 17.834C30.4971 17.8842 30.4999 17.9347 30.5 17.9854V24.2998C30.4991 24.6707 30.3955 25.032 30.2041 25.3457C30.0129 25.6591 29.7423 25.9123 29.4238 26.082L29.4229 26.0811L23.4658 29.2588C23.1676 29.4177 22.8354 29.5 22.5 29.5C22.2064 29.5 21.9155 29.4368 21.6475 29.3145L21.5342 29.2588L16 26.3066L10.4658 29.2588C10.1676 29.4177 9.83537 29.5 9.5 29.5C9.20636 29.5 8.91548 29.4368 8.64746 29.3145L8.53418 29.2588L2.57715 26.0811C2.2587 25.9114 1.98713 25.6591 1.7959 25.3457C1.60446 25.032 1.50087 24.6708 1.5 24.2998V17.9854L1.50488 17.8477C1.50521 17.8431 1.50648 17.8386 1.50684 17.834C1.48458 17.5597 1.53503 17.2761 1.67285 17.0146C1.81379 16.7475 2.02478 16.5408 2.27051 16.4043C2.36618 16.3287 2.46837 16.2616 2.57617 16.2041L8 13.3105V7.7002C8.00012 7.64923 8.00191 7.59836 8.00586 7.54785C7.98371 7.27362 8.03499 6.98989 8.17285 6.72852C8.31369 6.46153 8.52404 6.25471 8.76953 6.11816C8.86534 6.04241 8.96819 5.97552 9.07617 5.91797L15.0342 2.74121C15.3324 2.58229 15.6646 2.5 16 2.5L16.126 2.50391ZM4.5 23.707L8 25.5732V22.0469L4.5 20.2012V23.707ZM11 22.0469V25.5732L14.5 23.707V20.2012L11 22.0469ZM17.5 23.707L21 25.5732V22.0469L17.5 20.2012V23.707ZM24 22.0469V25.5732L27.5 23.707V20.2012L24 22.0469ZM6.16699 17.6885L9.5 19.4463L12.7285 17.7432L9.39551 15.9658L6.16699 17.6885ZM19.2705 17.7432L22.5 19.4463L25.832 17.6885L22.6025 15.9668L19.2705 17.7432ZM11 13.3105L14.5 15.1777V11.7607L11 9.91504V13.3105ZM17.5 11.7607V15.1777L21 13.3105V9.91504L17.5 11.7607ZM12.667 7.40234L16 9.16016L19.332 7.40234L15.999 5.62598L12.667 7.40234Z" />
</svg>
