<svg viewBox="0 0 32 32" fill="currentColor" xmlns="http://www.w3.org/2000/svg">
<path d="M16.1895 3.01172C16.315 3.02712 16.4382 3.05808 16.5566 3.10352L16.7305 3.18262L22.6885 6.35938C22.7786 6.40739 22.8618 6.46662 22.9404 6.53125C23.1239 6.62113 23.2821 6.76736 23.3848 6.96191C23.4857 7.15325 23.5162 7.36234 23.4893 7.56152C23.4937 7.60791 23.4999 7.65426 23.5 7.70117V13.6113L29.1885 16.6455C29.2793 16.6939 29.3632 16.7531 29.4424 16.8184C29.625 16.9083 29.7825 17.0543 29.8848 17.248C29.9856 17.4394 30.0163 17.6485 29.9893 17.8477C29.9937 17.8939 29.9999 17.9405 30 17.9873V24.2988C29.9993 24.5775 29.9215 24.8498 29.7773 25.0859C29.6333 25.3218 29.429 25.5125 29.1885 25.6406L23.2305 28.8174C23.0051 28.9375 22.7539 29 22.5 29C22.3096 29 22.1209 28.9646 21.9434 28.8965L21.7695 28.8174L16 25.7402L10.2305 28.8174C10.0051 28.9375 9.75387 29 9.5 29C9.30961 29 9.12093 28.9646 8.94336 28.8965L8.76953 28.8174L2.81152 25.6406C2.57102 25.5125 2.36665 25.3217 2.22266 25.0859C2.07855 24.8498 2.00069 24.5775 2 24.2988V17.9873L2.01074 17.8477C1.9837 17.6485 2.01439 17.4394 2.11523 17.248C2.21746 17.0542 2.37503 16.9083 2.55762 16.8184C2.63679 16.7531 2.72072 16.6939 2.81152 16.6455L8.5 13.6113V7.70117C8.50011 7.65429 8.50535 7.60788 8.50977 7.56152C8.48286 7.36237 8.51433 7.15321 8.61523 6.96191C8.71772 6.76762 8.87542 6.62117 9.05859 6.53125C9.13741 6.46644 9.22121 6.40751 9.31152 6.35938L15.2695 3.18262C15.4949 3.06251 15.7461 3 16 3L16.1895 3.01172ZM4 24.0078L8.5 26.4062V21.7451L4 19.3721V24.0078ZM10.5 21.7451V26.4062L15 24.0078V19.3721L10.5 21.7451ZM17 24.0078L21.5 26.4062V21.7451L17 19.3721V24.0078ZM23.5 21.7451V26.4062L28 24.0078V19.3721L23.5 21.7451ZM5.09961 17.6914L9.5 20.0117L13.7959 17.7461L9.39648 15.3994L5.09961 17.6914ZM18.2031 17.7461L22.5 20.0117L26.8994 17.6914L22.6025 15.3994L18.2031 17.7461ZM10.5 13.6113L15 16.0107V11.46L10.5 9.08691V13.6113ZM17 11.46V16.0107L21.5 13.6113V9.08691L17 11.46ZM11.5996 7.40527L16 9.72559L20.3994 7.40527L16 5.05957L11.5996 7.40527Z" />
</svg>
