<svg viewBox="0 0 32 32" fill="currentColor" xmlns="http://www.w3.org/2000/svg">
<path d="M8.5 21.7383V28.6738L2.81152 25.6406C2.57101 25.5125 2.36664 25.3217 2.22266 25.0859C2.0786 24.8498 2.00074 24.5775 2 24.2988V18.2197L8.5 21.7383Z" />
<path d="M21.5 21.7461V28.6738L16 25.7402L10.5 28.6738V21.7451L15.999 18.8447L21.5 21.7461Z" />
<path d="M30 24.2988C29.9993 24.5775 29.9214 24.8498 29.7773 25.0859C29.6334 25.3217 29.429 25.5125 29.1885 25.6406L23.5 28.6738V21.7324L30 18.1416V24.2988Z" />
<path d="M13.9141 17.6826L9.50586 20.0088L3.05371 16.5156L7.46387 14.1641L13.9141 17.6826Z" />
<path d="M28.875 16.4785L22.4883 20.0059L18.1182 17.7002L24.7285 14.2676L28.875 16.4785Z" />
<path d="M23.5 12.6523L17 16.0283V11.4512L23.5 7.91016V12.6523Z" />
<path d="M15 11.4678V15.9961L8.5 12.4512V8.13574L15 11.4678Z" />
<path d="M16.1895 3.01172C16.315 3.02712 16.4382 3.05808 16.5566 3.10352L16.7305 3.18262L22.4248 6.21875L15.9854 9.72559L9.36328 6.33105L15.2695 3.18262C15.4949 3.06251 15.7461 3 16 3L16.1895 3.01172Z" />
</svg>
