<svg viewBox="0 0 32 32" fill="currentColor" xmlns="http://www.w3.org/2000/svg">
<path opacity="0.2" d="M16.48 3.12499L27.48 9.14749C27.6371 9.23343 27.7682 9.35996 27.8597 9.51388C27.9511 9.6678 27.9996 9.84345 28 10.0225L28 21.9775C27.9996 22.1565 27.9511 22.3322 27.8597 22.4861C27.7682 22.64 27.6371 22.7666 27.48 22.8525L16.48 28.875C16.3328 28.9555 16.1678 28.9977 16 28.9977C15.8322 28.9977 15.6672 28.9555 15.52 28.875L4.52 22.8525C4.36293 22.7666 4.23181 22.64 4.14035 22.4861C4.04888 22.3322 4.00041 22.1565 4 21.9775L4 10.0225C4.00041 9.84345 4.04888 9.6678 4.14035 9.51388C4.23181 9.35996 4.36293 9.23343 4.52 9.14749L15.52 3.12499C15.6672 3.04446 15.8322 3.00226 16 3.00226C16.1678 3.00226 16.3328 3.04446 16.48 3.12499Z" />
<path d="M15.7729 2.17007C16.1084 2.17007 16.4386 2.2542 16.7329 2.41519L27.7319 8.43765H27.7329C28.047 8.60953 28.3097 8.86322 28.4927 9.17105C28.6754 9.47869 28.7721 9.82984 28.7729 10.1877V22.1476C28.7721 22.5057 28.6756 22.8574 28.4927 23.1652C28.3097 23.473 28.047 23.7258 27.7329 23.8976L16.7329 29.9201C16.4386 30.0811 16.1085 30.1652 15.7729 30.1652C15.4794 30.1652 15.1902 30.1007 14.9253 29.9767L14.813 29.9201L3.81299 23.8976C3.49888 23.7258 3.23616 23.473 3.05322 23.1652C2.87029 22.8574 2.77377 22.5057 2.77295 22.1476V10.1877L2.77783 10.0539C2.79946 9.74276 2.89333 9.44023 3.05322 9.17105C3.21333 8.90163 3.43453 8.67382 3.69775 8.50601L3.81299 8.43765L14.813 2.41519C15.1073 2.2542 15.4375 2.17007 15.7729 2.17007ZM4.77295 10.1925V22.1427L15.7729 28.1652L26.7729 22.1427V10.1925L15.7729 4.17007L4.77295 10.1925ZM12.5659 11.4611C12.9564 11.0706 13.5895 11.0706 13.98 11.4611C14.3704 11.8516 14.3705 12.4847 13.98 12.8752L10.687 16.1681L13.98 19.4611C14.3704 19.8516 14.3705 20.4847 13.98 20.8752C13.5895 21.2655 12.9564 21.2655 12.5659 20.8752L8.56592 16.8752C8.17544 16.4847 8.17555 15.8516 8.56592 15.4611L12.5659 11.4611ZM17.5659 11.4611C17.9564 11.0706 18.5895 11.0706 18.98 11.4611L22.98 15.4611C23.3704 15.8516 23.3705 16.4847 22.98 16.8752L18.98 20.8752C18.5895 21.2655 17.9564 21.2655 17.5659 20.8752C17.1754 20.4847 17.1755 19.8516 17.5659 19.4611L20.8589 16.1681L17.5659 12.8752C17.1754 12.4847 17.1755 11.8516 17.5659 11.4611Z" />
</svg>
