<svg viewBox="0 0 32 32" fill="currentColor" xmlns="http://www.w3.org/2000/svg">
<path d="M19.7725 8.66748C19.7725 7.60661 19.3507 6.5895 18.6006 5.83936C17.8504 5.08921 16.8333 4.66748 15.7725 4.66748C14.7116 4.66748 13.6945 5.08921 12.9443 5.83936C12.1942 6.5895 11.7725 7.60661 11.7725 8.66748V11.6675H19.7725V8.66748ZM17.2725 20.1675C17.2725 19.3391 16.6009 18.6675 15.7725 18.6675C14.944 18.6675 14.2725 19.3391 14.2725 20.1675C14.2725 20.9959 14.944 21.6675 15.7725 21.6675C16.6009 21.6675 17.2725 20.9959 17.2725 20.1675ZM19.2725 20.1675C19.2725 21.7528 18.218 23.0906 16.7725 23.521V25.6675C16.7725 26.2198 16.3247 26.6675 15.7725 26.6675C15.2202 26.6675 14.7725 26.2198 14.7725 25.6675V23.521C13.3269 23.0906 12.2725 21.7528 12.2725 20.1675C12.2725 18.2345 13.8395 16.6675 15.7725 16.6675C17.7055 16.6675 19.2725 18.2345 19.2725 20.1675ZM21.7725 11.6675H23.7725C24.6266 11.6675 25.3602 11.8091 25.9668 12.1235C26.5913 12.4473 27.0178 12.9218 27.292 13.4702C27.7945 14.4753 27.7725 15.7434 27.7725 16.6675C27.7725 17.7434 27.7945 18.4753 28.042 18.9702C28.1428 19.1718 28.2789 19.3223 28.498 19.436C28.7352 19.559 29.1267 19.6675 29.7725 19.6675C30.3247 19.6675 30.7725 20.1152 30.7725 20.6675C30.7725 21.2198 30.3247 21.6675 29.7725 21.6675C29.1267 21.6675 28.7352 21.776 28.498 21.8989C28.2789 22.0126 28.1428 22.1632 28.042 22.3647C27.7945 22.8597 27.7725 23.5916 27.7725 24.6675C27.7725 25.5916 27.7945 26.8597 27.292 27.8647C27.0178 28.4131 26.5913 28.8876 25.9668 29.2114C25.3602 29.5259 24.6266 29.6675 23.7725 29.6675C23.2202 29.6675 22.7725 29.2198 22.7725 28.6675C22.7725 28.1152 23.2202 27.6675 23.7725 27.6675C24.4182 27.6675 24.8098 27.559 25.0469 27.436C25.266 27.3223 25.4022 27.1718 25.5029 26.9702C25.7504 26.4753 25.7725 25.7434 25.7725 24.6675C25.7725 23.7434 25.7504 22.4753 26.2529 21.4702C26.3993 21.1774 26.59 20.9065 26.8301 20.6675C26.59 20.4285 26.3993 20.1576 26.2529 19.8647C25.7504 18.8597 25.7725 17.5916 25.7725 16.6675C25.7725 15.5916 25.7504 14.8597 25.5029 14.3647C25.4022 14.1632 25.266 14.0126 25.0469 13.8989C24.8098 13.776 24.4182 13.6675 23.7725 13.6675H7.77246C7.1267 13.6675 6.73516 13.776 6.49805 13.8989C6.27891 14.0126 6.14276 14.1632 6.04199 14.3647C5.79452 14.8597 5.77246 15.5916 5.77246 16.6675C5.77246 17.5916 5.79452 18.8597 5.29199 19.8647C5.14549 20.1578 4.9542 20.4283 4.71387 20.6675C4.9542 20.9066 5.14549 21.1772 5.29199 21.4702C5.79452 22.4753 5.77246 23.7434 5.77246 24.6675C5.77246 25.7434 5.79452 26.4753 6.04199 26.9702C6.14276 27.1718 6.27891 27.3223 6.49805 27.436C6.73516 27.559 7.1267 27.6675 7.77246 27.6675C8.32475 27.6675 8.77246 28.1152 8.77246 28.6675C8.77246 29.2198 8.32475 29.6675 7.77246 29.6675C6.91834 29.6675 6.18472 29.5259 5.57812 29.2114C4.95367 28.8876 4.52712 28.4131 4.25293 27.8647C3.7504 26.8597 3.77246 25.5916 3.77246 24.6675C3.77246 23.5916 3.7504 22.8597 3.50293 22.3647C3.40216 22.1632 3.26602 22.0126 3.04688 21.8989C2.80977 21.776 2.41822 21.6675 1.77246 21.6675C1.22018 21.6675 0.772461 21.2198 0.772461 20.6675C0.772461 20.1152 1.22018 19.6675 1.77246 19.6675C2.41822 19.6675 2.80977 19.559 3.04688 19.436C3.26602 19.3223 3.40216 19.1718 3.50293 18.9702C3.7504 18.4753 3.77246 17.7434 3.77246 16.6675C3.77246 15.7434 3.7504 14.4753 4.25293 13.4702C4.52712 12.9218 4.95367 12.4473 5.57812 12.1235C6.18472 11.8091 6.91834 11.6675 7.77246 11.6675H9.77246V8.66748C9.77246 7.07618 10.4051 5.55051 11.5303 4.42529C12.6555 3.30007 14.1812 2.66748 15.7725 2.66748C17.3638 2.66748 18.8894 3.30007 20.0146 4.42529C21.1399 5.55051 21.7725 7.07618 21.7725 8.66748V11.6675Z" />
</svg>
