<svg viewBox="0 0 32 32" fill="currentColor" xmlns="http://www.w3.org/2000/svg">
<path d="M25.7734 3.66724C26.3037 3.66737 26.8125 3.87822 27.1875 4.25317C27.5624 4.62822 27.7734 5.13696 27.7734 5.66724V12.6672C27.7734 17.51 26.0695 20.9937 23.9609 23.4407C23.9586 23.4382 23.9565 23.4353 23.9541 23.4329C23.9516 23.4304 23.9488 23.4275 23.9463 23.425C23.9437 23.4225 23.9402 23.4198 23.9375 23.4172C23.9349 23.4146 23.9323 23.4111 23.9297 23.4084L23.9219 23.4006C23.9193 23.398 23.9157 23.3954 23.9131 23.3928C23.9105 23.3902 23.9079 23.3867 23.9053 23.384C23.9026 23.3814 23.8992 23.3788 23.8965 23.3762C23.8939 23.3736 23.8913 23.3701 23.8887 23.3674C23.8861 23.3648 23.8826 23.3622 23.8799 23.3596C23.8773 23.357 23.8747 23.3535 23.8721 23.3508C23.8694 23.3482 23.866 23.3456 23.8633 23.343C23.8606 23.3404 23.8581 23.3369 23.8555 23.3342C23.8528 23.3316 23.8494 23.329 23.8467 23.3264C23.844 23.3238 23.8415 23.3203 23.8389 23.3176C23.8362 23.3149 23.8328 23.3116 23.8301 23.3088C23.8274 23.3062 23.824 23.3036 23.8213 23.301C23.8186 23.2984 23.8161 23.2949 23.8135 23.2922L23.8047 23.2834C23.802 23.2808 23.7986 23.2783 23.7959 23.2756C23.7932 23.273 23.7907 23.2695 23.7881 23.2668L23.7705 23.2493C23.7679 23.2466 23.7644 23.2441 23.7617 23.2415L23.7441 23.2239C23.7415 23.2212 23.739 23.2178 23.7363 23.2151L23.6309 23.1096C23.628 23.1068 23.624 23.1037 23.6211 23.1008L23.6035 23.0833C23.6006 23.0804 23.5976 23.0764 23.5947 23.0735C23.5919 23.0707 23.5888 23.0675 23.5859 23.0647C23.583 23.0618 23.5791 23.0588 23.5762 23.0559C23.5734 23.0531 23.5702 23.0499 23.5674 23.0471C23.5645 23.0442 23.5615 23.0403 23.5586 23.0374C23.5558 23.0345 23.5526 23.0314 23.5498 23.0286C23.5469 23.0256 23.543 23.0227 23.54 23.0198C23.5371 23.0169 23.5341 23.013 23.5312 23.01C23.5284 23.0072 23.5253 23.004 23.5225 23.0012C23.5195 22.9983 23.5157 22.9954 23.5127 22.9924C23.5098 22.9895 23.5068 22.9856 23.5039 22.9827C23.5011 22.9798 23.4979 22.9767 23.4951 22.9739C23.4922 22.971 23.4883 22.968 23.4854 22.9651C23.4824 22.9622 23.4795 22.9583 23.4766 22.9553C23.4736 22.9524 23.4698 22.9495 23.4668 22.9465C23.4638 22.9436 23.4609 22.9398 23.458 22.9368C23.455 22.9338 23.4512 22.9309 23.4482 22.928C23.4453 22.925 23.4424 22.9212 23.4395 22.9182C23.4365 22.9153 23.4327 22.9124 23.4297 22.9094C23.4267 22.9065 23.4238 22.9027 23.4209 22.8997C23.418 22.8967 23.4141 22.8938 23.4111 22.8909C23.4081 22.8879 23.4044 22.8841 23.4014 22.8811C23.3984 22.8782 23.3955 22.8743 23.3926 22.8713C23.3896 22.8684 23.3858 22.8655 23.3828 22.8625C23.3798 22.8596 23.377 22.8558 23.374 22.8528C23.371 22.8497 23.3673 22.8461 23.3643 22.843C23.3613 22.84 23.3575 22.8372 23.3545 22.8342C23.3515 22.8312 23.3487 22.8275 23.3457 22.8245C23.3427 22.8214 23.339 22.8178 23.3359 22.8147C23.333 22.8117 23.3292 22.8089 23.3262 22.8059C23.3231 22.8028 23.3195 22.7992 23.3164 22.7961C23.3134 22.7932 23.3106 22.7894 23.3076 22.7864C23.3045 22.7833 23.3009 22.7797 23.2979 22.7766C23.2949 22.7736 23.2911 22.7708 23.2881 22.7678C23.285 22.7647 23.2814 22.7612 23.2783 22.7581C23.2753 22.7551 23.2725 22.7513 23.2695 22.7483L23.2402 22.719C23.2373 22.716 23.2335 22.7132 23.2305 22.7102L23.1816 22.6614C23.1787 22.6584 23.1758 22.6546 23.1729 22.6516L23.1436 22.6223C23.1404 22.6192 23.136 22.6157 23.1328 22.6125L23.084 22.5637C23.0808 22.5605 23.0774 22.5562 23.0742 22.553L23.0449 22.5237C23.0417 22.5205 23.0374 22.5171 23.0342 22.5139L23.0146 22.4944C23.0114 22.4912 23.0081 22.4869 23.0049 22.4836C23.0017 22.4805 22.9983 22.477 22.9951 22.4739C22.9919 22.4707 22.9876 22.4673 22.9844 22.4641C22.9812 22.461 22.9778 22.4575 22.9746 22.4543C22.9714 22.4511 22.9681 22.4469 22.9648 22.4436L22.9551 22.4338C22.9518 22.4306 22.9476 22.4273 22.9443 22.4241C22.9412 22.4209 22.9377 22.4175 22.9346 22.4143C22.9313 22.4111 22.928 22.4069 22.9248 22.4036C22.9216 22.4003 22.9174 22.397 22.9141 22.3938C22.9109 22.3907 22.9074 22.3872 22.9043 22.384C22.901 22.3808 22.8978 22.3766 22.8945 22.3733C22.8913 22.37 22.8871 22.3668 22.8838 22.3635C22.8806 22.3604 22.8772 22.3569 22.874 22.3538C22.8708 22.3505 22.8675 22.3463 22.8643 22.343C22.861 22.3397 22.8568 22.3365 22.8535 22.3333C22.8502 22.33 22.847 22.3258 22.8438 22.3225C22.8405 22.3193 22.8363 22.316 22.833 22.3127L22.8232 22.303C22.82 22.2997 22.8167 22.2955 22.8135 22.2922C22.8102 22.289 22.806 22.2857 22.8027 22.2825C22.7994 22.2792 22.7962 22.275 22.793 22.2717C22.7897 22.2684 22.7856 22.2652 22.7822 22.262C22.7789 22.2587 22.7757 22.2546 22.7725 22.2512C22.7692 22.2479 22.765 22.2447 22.7617 22.2415C22.7584 22.2382 22.7552 22.234 22.752 22.2307C22.7487 22.2274 22.7445 22.2242 22.7412 22.2209C22.7379 22.2176 22.7347 22.2135 22.7314 22.2102C22.7281 22.2069 22.724 22.2037 22.7207 22.2004C22.7174 22.1971 22.7142 22.193 22.7109 22.1897C22.7076 22.1864 22.7035 22.1832 22.7002 22.1799C22.6969 22.1766 22.6937 22.1725 22.6904 22.1692C22.6872 22.1659 22.683 22.1627 22.6797 22.1594C22.6764 22.1562 22.6732 22.152 22.6699 22.1487L22.6592 22.1379C22.6559 22.1347 22.6518 22.1314 22.6484 22.1282C22.6451 22.1249 22.642 22.1208 22.6387 22.1174C22.6354 22.1141 22.6313 22.1109 22.6279 22.1077L22.6172 22.0969C22.6139 22.0936 22.6107 22.0895 22.6074 22.0862C22.6041 22.0829 22.6 22.0797 22.5967 22.0764C22.5934 22.0731 22.5902 22.069 22.5869 22.0657C22.5836 22.0623 22.5796 22.0583 22.5762 22.0549C22.5729 22.0516 22.5688 22.0484 22.5654 22.0452C22.5621 22.0419 22.5589 22.0378 22.5557 22.0344L22.5449 22.0237C22.5416 22.0204 22.5375 22.0172 22.5342 22.0139C22.5309 22.0106 22.5277 22.0065 22.5244 22.0032C22.521 21.9998 22.5171 21.9958 22.5137 21.9924C22.5104 21.9891 22.5063 21.9859 22.5029 21.9827C22.4995 21.9793 22.4956 21.9753 22.4922 21.9719C22.4889 21.9686 22.4857 21.9645 22.4824 21.9612C22.479 21.9578 22.4751 21.9538 22.4717 21.9504C22.4684 21.9471 22.4643 21.944 22.4609 21.9407C22.4575 21.9373 22.4536 21.9333 22.4502 21.9299C22.4469 21.9266 22.4437 21.9225 22.4404 21.9192L22.4297 21.9084C22.4264 21.9051 22.4223 21.902 22.4189 21.8987L22.4082 21.8879C22.4049 21.8846 22.4017 21.8805 22.3984 21.8772C22.395 21.8738 22.3911 21.8699 22.3877 21.8665C22.3844 21.8631 22.3803 21.86 22.377 21.8567L22.3555 21.8352C22.3522 21.8319 22.349 21.8278 22.3457 21.8245L22.3242 21.803C22.3209 21.7997 22.3168 21.7965 22.3135 21.7932L22.292 21.7717C22.2887 21.7684 22.2855 21.7643 22.2822 21.761L22.2607 21.7395C22.2574 21.7362 22.2533 21.733 22.25 21.7297L22.2178 21.6975C22.2145 21.6942 22.2113 21.6901 22.208 21.6868L22.165 21.6438C22.1617 21.6405 22.1576 21.6373 22.1543 21.634L22.1113 21.5911C22.108 21.5878 22.1048 21.5837 22.1016 21.5803L22.0264 21.5051C22.0231 21.5018 22.019 21.4986 22.0156 21.4954L21.9082 21.3879C21.9049 21.3846 21.9017 21.3805 21.8984 21.3772L21.6729 21.1516C21.6695 21.1483 21.6654 21.1451 21.6621 21.1418L21.5225 21.0022C21.5191 20.9989 21.516 20.9948 21.5127 20.9915L21.4375 20.9163C21.4342 20.9129 21.4301 20.9098 21.4268 20.9065L21.373 20.8528C21.3697 20.8495 21.3666 20.8454 21.3633 20.842L21.3203 20.7991C21.317 20.7958 21.3129 20.7926 21.3096 20.7893L21.2773 20.7571C21.274 20.7538 21.2709 20.7497 21.2676 20.7463L21.2354 20.7141C21.232 20.7108 21.2279 20.7076 21.2246 20.7043L21.2031 20.6829C21.1998 20.6795 21.1966 20.6755 21.1934 20.6721L21.1719 20.6506C21.1686 20.6473 21.1645 20.6442 21.1611 20.6409C21.1577 20.6375 21.1538 20.6335 21.1504 20.6301C21.1471 20.6268 21.1439 20.6227 21.1406 20.6194L21.1191 20.5979C21.1158 20.5946 21.1117 20.5914 21.1084 20.5881C21.105 20.5847 21.1011 20.5808 21.0977 20.5774C21.0943 20.5741 21.0912 20.57 21.0879 20.5667C21.0845 20.5633 21.0806 20.5593 21.0771 20.5559C21.0738 20.5526 21.0697 20.5494 21.0664 20.5461C21.063 20.5428 21.0591 20.5388 21.0557 20.5354C21.0524 20.5321 21.0492 20.528 21.0459 20.5247C21.0425 20.5213 21.0386 20.5173 21.0352 20.5139C21.0318 20.5106 21.0278 20.5074 21.0244 20.5042C21.0211 20.5008 21.0179 20.4967 21.0146 20.4934C21.0113 20.49 21.0073 20.4861 21.0039 20.4827C21.0006 20.4794 20.9965 20.4762 20.9932 20.4729C20.9898 20.4695 20.9858 20.4655 20.9824 20.4622C20.9791 20.4588 20.9759 20.4548 20.9727 20.4514C20.9694 20.4481 20.9652 20.4449 20.9619 20.4417C20.9585 20.4383 20.9546 20.4343 20.9512 20.4309C20.9479 20.4276 20.9447 20.4235 20.9414 20.4202C20.9381 20.4169 20.934 20.4137 20.9307 20.4104C20.9273 20.407 20.9233 20.403 20.9199 20.3997C20.9166 20.3964 20.9134 20.3922 20.9102 20.3889C20.9068 20.3856 20.9028 20.3824 20.8994 20.3792C20.8961 20.3759 20.8929 20.3717 20.8896 20.3684L20.8789 20.3577C20.8756 20.3544 20.8715 20.3512 20.8682 20.3479C20.8649 20.3446 20.8617 20.3405 20.8584 20.3372C20.8551 20.3339 20.851 20.3307 20.8477 20.3274C20.8444 20.3241 20.8411 20.32 20.8379 20.3167C20.8346 20.3133 20.8305 20.3093 20.8271 20.3059C20.8239 20.3027 20.8197 20.2994 20.8164 20.2961C20.8131 20.2929 20.8099 20.2887 20.8066 20.2854C20.8034 20.2821 20.7992 20.2789 20.7959 20.2756C20.7926 20.2724 20.7894 20.2682 20.7861 20.2649C20.7828 20.2616 20.7787 20.2584 20.7754 20.2551C20.7721 20.2518 20.7689 20.2477 20.7656 20.2444C20.7623 20.2411 20.7582 20.2379 20.7549 20.2346C20.7516 20.2313 20.7484 20.2272 20.7451 20.2239C20.7418 20.2206 20.7377 20.2174 20.7344 20.2141C20.7311 20.2108 20.7278 20.2067 20.7246 20.2034C20.7214 20.2001 20.7172 20.1968 20.7139 20.1936C20.7106 20.1904 20.7073 20.1861 20.7041 20.1829C20.701 20.1797 20.6975 20.1762 20.6943 20.1731C20.6911 20.1698 20.6869 20.1666 20.6836 20.1633C20.6803 20.16 20.6771 20.1559 20.6738 20.1526C20.6705 20.1493 20.6664 20.1461 20.6631 20.1428C20.6598 20.1396 20.6565 20.1354 20.6533 20.1321C20.6502 20.1289 20.6467 20.1255 20.6436 20.1223C20.6403 20.1191 20.6361 20.1158 20.6328 20.1125C20.6295 20.1093 20.6263 20.1051 20.623 20.1018C20.6199 20.0987 20.6164 20.0952 20.6133 20.092C20.61 20.0888 20.6058 20.0855 20.6025 20.0823C20.5993 20.079 20.596 20.0748 20.5928 20.0715C20.5896 20.0684 20.5862 20.0649 20.583 20.0618C20.5798 20.0585 20.5755 20.0552 20.5723 20.052C20.569 20.0488 20.5657 20.0445 20.5625 20.0413L20.5527 20.0315C20.5495 20.0283 20.5453 20.0249 20.542 20.0217C20.5388 20.0186 20.5354 20.0151 20.5322 20.012C20.529 20.0087 20.5257 20.0045 20.5225 20.0012L20.5029 19.9817C20.4997 19.9785 20.4954 19.9751 20.4922 19.9719L20.4727 19.9524C20.4695 19.9492 20.4661 19.9449 20.4629 19.9417L20.4336 19.9124C20.4304 19.9092 20.4261 19.9058 20.4229 19.9026L20.2959 19.7756C20.2929 19.7726 20.2901 19.7689 20.2871 19.7659L20.2578 19.7366C20.2548 19.7336 20.2511 19.7307 20.248 19.7278C20.245 19.7247 20.2414 19.7211 20.2383 19.718C20.2353 19.715 20.2324 19.7113 20.2295 19.7083L20.21 19.6887C20.207 19.6857 20.2032 19.6829 20.2002 19.6799C20.1971 19.6769 20.1935 19.6732 20.1904 19.6702C20.1874 19.6672 20.1846 19.6634 20.1816 19.6604C20.1787 19.6574 20.1749 19.6546 20.1719 19.6516C20.1688 19.6486 20.1652 19.6449 20.1621 19.6418C20.1591 19.6389 20.1563 19.6351 20.1533 19.6321C20.1504 19.6291 20.1465 19.6262 20.1436 19.6233C20.1405 19.6203 20.1368 19.6166 20.1338 19.6135C20.1308 19.6105 20.1279 19.6068 20.125 19.6038C20.122 19.6008 20.1182 19.5979 20.1152 19.595C20.1123 19.592 20.1094 19.5882 20.1064 19.5852C20.1035 19.5823 20.0997 19.5793 20.0967 19.5764C20.0937 19.5734 20.0899 19.5697 20.0869 19.5667C20.084 19.5637 20.081 19.5599 20.0781 19.5569C20.0752 19.554 20.0713 19.551 20.0684 19.5481C20.0654 19.5452 20.0625 19.5413 20.0596 19.5383C20.0566 19.5354 20.0528 19.5324 20.0498 19.5295C20.0469 19.5266 20.0439 19.5227 20.041 19.5198C20.0382 19.5169 20.035 19.5138 20.0322 19.511C20.0293 19.5081 20.0254 19.5051 20.0225 19.5022C20.0195 19.4992 20.0166 19.4954 20.0137 19.4924C20.0107 19.4895 20.0069 19.4866 20.0039 19.4836C20.001 19.4807 19.998 19.4768 19.9951 19.4739C19.9923 19.4711 19.9891 19.4679 19.9863 19.4651C19.9834 19.4622 19.9795 19.4592 19.9766 19.4563C19.9736 19.4534 19.9707 19.4495 19.9678 19.4465C19.9649 19.4437 19.9618 19.4406 19.959 19.4377C19.9561 19.4348 19.9522 19.4318 19.9492 19.429C19.9477 19.4274 19.9459 19.4256 19.9443 19.4241C20.4678 18.6337 20.7734 17.6862 20.7734 16.6672C20.7734 13.906 18.5346 11.6675 15.7734 11.6672C13.012 11.6672 10.7734 13.9058 10.7734 16.6672C10.7735 19.4286 13.0121 21.6672 15.7734 21.6672C16.7923 21.6671 17.74 21.3615 18.5303 20.8381C18.5318 20.8397 18.5336 20.8415 18.5352 20.843C18.5381 20.8459 18.542 20.8489 18.5449 20.8518C18.5478 20.8548 18.5508 20.8587 18.5537 20.8616L18.5898 20.8977C18.5928 20.9006 18.5967 20.9035 18.5996 20.9065C18.6025 20.9095 18.6055 20.9133 18.6084 20.9163L18.7012 21.009C18.7042 21.012 18.7079 21.0148 18.7109 21.0178C18.7139 21.0208 18.7167 21.0246 18.7197 21.0276C18.7228 21.0306 18.7265 21.0343 18.7295 21.0374C18.7325 21.0403 18.7363 21.0432 18.7393 21.0461C18.7422 21.0492 18.7451 21.0529 18.748 21.0559C18.7511 21.059 18.7548 21.0626 18.7578 21.0657C18.7608 21.0686 18.7646 21.0715 18.7676 21.0745C18.7705 21.0775 18.7734 21.0812 18.7764 21.0842L18.7959 21.1038C18.7989 21.1067 18.8027 21.1096 18.8057 21.1125C18.8086 21.1156 18.8115 21.1193 18.8145 21.1223L18.8438 21.1516C18.8468 21.1546 18.8505 21.1574 18.8535 21.1604C18.8566 21.1635 18.8602 21.1671 18.8633 21.1702C18.8662 21.1732 18.8691 21.1769 18.8721 21.1799L19.0283 21.3362C19.0316 21.3394 19.0359 21.3428 19.0391 21.3459C19.0422 21.3492 19.0456 21.3535 19.0488 21.3567L19.0879 21.3958C19.0911 21.3989 19.0954 21.4023 19.0986 21.4055C19.1018 21.4088 19.1052 21.413 19.1084 21.4163L19.1279 21.4358C19.1312 21.439 19.1354 21.4423 19.1387 21.4456C19.1419 21.4488 19.1452 21.4531 19.1484 21.4563L19.249 21.5569C19.2523 21.5601 19.2565 21.5634 19.2598 21.5667C19.263 21.57 19.2662 21.5741 19.2695 21.5774L19.3203 21.6282C19.3236 21.6314 19.3278 21.6347 19.3311 21.6379C19.3343 21.6413 19.3375 21.6454 19.3408 21.6487C19.3441 21.6519 19.3483 21.6552 19.3516 21.6584C19.3548 21.6618 19.358 21.6659 19.3613 21.6692C19.3646 21.6724 19.3688 21.6757 19.3721 21.679C19.3753 21.6823 19.3786 21.6864 19.3818 21.6897L19.4336 21.7415C19.4369 21.7447 19.441 21.7479 19.4443 21.7512C19.4476 21.7546 19.4508 21.7586 19.4541 21.762L19.4854 21.7932C19.4887 21.7965 19.4928 21.7997 19.4961 21.803C19.4994 21.8063 19.5026 21.8104 19.5059 21.8137C19.5092 21.8171 19.5132 21.8211 19.5166 21.8245C19.5199 21.8277 19.524 21.8309 19.5273 21.8342C19.5306 21.8376 19.5338 21.8417 19.5371 21.845C19.5405 21.8484 19.5445 21.8523 19.5479 21.8557C19.5512 21.859 19.5553 21.8622 19.5586 21.8655C19.5619 21.8688 19.565 21.8729 19.5684 21.8762C19.5718 21.8796 19.5757 21.8836 19.5791 21.887C19.5824 21.8902 19.5865 21.8934 19.5898 21.8967C19.5931 21.9001 19.5963 21.9042 19.5996 21.9075L19.6211 21.929C19.6244 21.9322 19.6285 21.9354 19.6318 21.9387C19.6351 21.9421 19.6383 21.9462 19.6416 21.9495L19.6631 21.9709C19.6664 21.9742 19.6705 21.9774 19.6738 21.9807C19.6771 21.9841 19.6803 21.9881 19.6836 21.9915L19.7051 22.0129C19.7084 22.0162 19.7125 22.0194 19.7158 22.0227C19.7191 22.026 19.7223 22.0301 19.7256 22.0334L19.7578 22.0657C19.7612 22.069 19.7652 22.0721 19.7686 22.0754C19.7718 22.0788 19.775 22.0829 19.7783 22.0862L19.8213 22.1292C19.8246 22.1324 19.8287 22.1356 19.832 22.1389C19.8355 22.1423 19.8393 22.1462 19.8428 22.1497C19.8461 22.153 19.8492 22.1571 19.8525 22.1604L19.9062 22.2141C19.9096 22.2174 19.9137 22.2206 19.917 22.2239C19.9204 22.2273 19.9243 22.2312 19.9277 22.2346C19.931 22.238 19.9342 22.242 19.9375 22.2454L20.0342 22.342C20.0375 22.3453 20.0416 22.3485 20.0449 22.3518L20.0664 22.3733C20.0697 22.3766 20.0729 22.3807 20.0762 22.384L20.3125 22.6204C20.3158 22.6236 20.3199 22.6268 20.3232 22.6301L20.4199 22.7268C20.4232 22.7301 20.4264 22.7342 20.4297 22.7375L20.6338 22.9417C20.6371 22.9449 20.6412 22.9481 20.6445 22.9514L20.666 22.9729C20.6693 22.9762 20.6725 22.9803 20.6758 22.9836L20.7617 23.0696C20.7651 23.0729 20.7692 23.076 20.7725 23.0793C20.7759 23.0828 20.7798 23.0867 20.7832 23.0901C20.7865 23.0934 20.7897 23.0975 20.793 23.1008L20.8467 23.1545C20.85 23.1578 20.8541 23.161 20.8574 23.1643C20.8607 23.1676 20.8639 23.1717 20.8672 23.175L20.9102 23.218C20.9135 23.2213 20.9176 23.2245 20.9209 23.2278C20.9242 23.2311 20.9274 23.2352 20.9307 23.2385L20.9629 23.2708C20.9662 23.274 20.9703 23.2772 20.9736 23.2805C20.9769 23.2838 20.9801 23.288 20.9834 23.2913L21.0156 23.3235C21.019 23.3268 21.0231 23.33 21.0264 23.3333C21.0297 23.3366 21.0328 23.3407 21.0361 23.344L21.0576 23.3655C21.0609 23.3687 21.0651 23.372 21.0684 23.3752C21.0716 23.3786 21.0748 23.3827 21.0781 23.386C21.0815 23.3894 21.0855 23.3933 21.0889 23.3967C21.0922 23.4 21.0963 23.4032 21.0996 23.4065C21.1029 23.4098 21.1061 23.414 21.1094 23.4172L21.1826 23.4905C21.186 23.4938 21.19 23.4969 21.1934 23.5002C21.1966 23.5036 21.1998 23.5077 21.2031 23.511L21.2139 23.5217C21.2172 23.525 21.2213 23.5282 21.2246 23.5315C21.2279 23.5348 21.2311 23.5389 21.2344 23.5422L21.2861 23.594C21.2895 23.5973 21.2936 23.6005 21.2969 23.6038C21.3002 23.6071 21.3033 23.6112 21.3066 23.6145C21.31 23.6178 21.3141 23.621 21.3174 23.6243C21.3207 23.6276 21.3238 23.6317 21.3271 23.635C21.3305 23.6383 21.3346 23.6415 21.3379 23.6448C21.3412 23.6481 21.3444 23.6522 21.3477 23.6555C21.351 23.6588 21.3551 23.662 21.3584 23.6653C21.3617 23.6686 21.3649 23.6727 21.3682 23.676C21.3715 23.6793 21.3756 23.6825 21.3789 23.6858C21.3822 23.6891 21.3854 23.6932 21.3887 23.6965L21.4395 23.7473C21.4428 23.7506 21.4469 23.7538 21.4502 23.7571C21.4534 23.7604 21.4567 23.7646 21.46 23.7678C21.4631 23.771 21.4666 23.7744 21.4697 23.7776C21.473 23.7808 21.4772 23.7841 21.4805 23.7874C21.4837 23.7907 21.487 23.7948 21.4902 23.7981C21.4934 23.8012 21.4969 23.8047 21.5 23.8079C21.5033 23.8111 21.5075 23.8144 21.5107 23.8176C21.514 23.8209 21.5173 23.8251 21.5205 23.8284L21.5801 23.8879C21.5833 23.8911 21.5876 23.8945 21.5908 23.8977C21.594 23.901 21.5974 23.9052 21.6006 23.9084L21.6299 23.9377C21.6331 23.9409 21.6374 23.9443 21.6406 23.9475C21.6438 23.9508 21.6472 23.9551 21.6504 23.9583L21.8262 24.134C21.8292 24.137 21.833 24.1398 21.8359 24.1428L21.8457 24.1526C21.8487 24.1556 21.8515 24.1594 21.8545 24.1624L21.8838 24.1917C21.8868 24.1946 21.8906 24.1975 21.8936 24.2004C21.8965 24.2035 21.8994 24.2072 21.9023 24.2102L21.9688 24.2766C21.9718 24.2796 21.9755 24.2824 21.9785 24.2854C21.9814 24.2884 21.9844 24.2922 21.9873 24.2952L22.0156 24.3235C22.0186 24.3264 22.0224 24.3293 22.0254 24.3323C22.0283 24.3353 22.0312 24.3391 22.0342 24.342C22.0372 24.345 22.041 24.3479 22.0439 24.3508C22.0469 24.3538 22.0498 24.3576 22.0527 24.3606L22.0986 24.4065C22.1016 24.4094 22.1055 24.4123 22.1084 24.4153C22.1113 24.4182 22.1143 24.4221 22.1172 24.425C22.12 24.4279 22.1232 24.431 22.126 24.4338C22.1289 24.4367 22.1328 24.4397 22.1357 24.4426C22.1386 24.4456 22.1416 24.4495 22.1445 24.4524L22.1621 24.47C22.1651 24.4729 22.169 24.4759 22.1719 24.4788C22.1747 24.4817 22.1778 24.4857 22.1807 24.4885L22.2158 24.5237C22.2187 24.5265 22.2227 24.5296 22.2256 24.5325C22.2284 24.5353 22.2316 24.5384 22.2344 24.5413C22.2372 24.5442 22.2403 24.5482 22.2432 24.551L22.2959 24.6038C22.2986 24.6064 22.302 24.6089 22.3047 24.6116C22.3075 24.6144 22.3107 24.6176 22.3135 24.6204C22.3161 24.6231 22.3186 24.6265 22.3213 24.6292L22.3564 24.6643C22.3591 24.6669 22.3626 24.6695 22.3652 24.6721C22.3679 24.6748 22.3704 24.6783 22.373 24.6809L22.4326 24.7405C22.4353 24.7431 22.4387 24.7456 22.4414 24.7483C22.444 24.751 22.4466 24.7544 22.4492 24.7571C22.4519 24.7597 22.4554 24.7623 22.458 24.7649C22.4606 24.7676 22.4632 24.7711 22.4658 24.7737C22.4685 24.7763 22.472 24.7789 22.4746 24.7815C22.4772 24.7842 22.4798 24.7877 22.4824 24.7903C22.4851 24.7929 22.4886 24.7955 22.4912 24.7981C22.4938 24.8008 22.4964 24.8043 22.499 24.8069L22.5557 24.8635C22.5583 24.8661 22.5619 24.8688 22.5645 24.8713L22.5654 24.8723C22.3463 25.0712 22.1266 25.2613 21.9062 25.4417C20.4494 26.6336 18.9956 27.4259 17.9062 27.9211C17.3607 28.1691 16.9026 28.3441 16.5771 28.4583C16.4146 28.5153 16.2842 28.5578 16.1924 28.5862C16.1468 28.6003 16.1101 28.6108 16.084 28.6184C16.0714 28.6221 16.0605 28.625 16.0527 28.6272C16.049 28.6283 16.0446 28.6294 16.042 28.6301L16.0391 28.6311L16.0381 28.6321L15.7734 27.6672L16.0361 28.6321C15.8643 28.6789 15.6826 28.6788 15.5107 28.6321L15.7734 27.6672C15.5225 28.5874 15.5099 28.6302 15.5088 28.6321L15.5078 28.6311L15.5049 28.6301C15.5024 28.6294 15.4979 28.6283 15.4941 28.6272C15.4864 28.625 15.4755 28.6221 15.4629 28.6184C15.4368 28.6108 15.4001 28.6003 15.3545 28.5862C15.2628 28.5578 15.1323 28.5153 14.9697 28.4583C14.6444 28.3442 14.1862 28.1691 13.6406 27.9211C12.5513 27.426 11.0976 26.6335 9.64062 25.4417C6.70608 23.0407 3.77251 19.0236 3.77246 12.6672V5.66724C3.77246 5.1368 3.9843 4.62825 4.35938 4.25317C4.73443 3.87821 5.24308 3.66724 5.77344 3.66724H25.7734Z" />
<path d="M15.7734 13.6672C17.4301 13.6675 18.7734 15.0105 18.7734 16.6672C18.7734 18.3239 17.43 19.667 15.7734 19.6672C14.1166 19.6672 12.7735 18.324 12.7734 16.6672C12.7734 15.0104 14.1166 13.6672 15.7734 13.6672Z" />
</svg>
