<svg viewBox="0 0 32 32" fill="currentColor" xmlns="http://www.w3.org/2000/svg">
<path d="M16 1.66379C16.3669 1.66379 16.7284 1.74511 17.0596 1.90012L17.2002 1.97043L28.2002 7.99289L28.3438 8.07883C28.6257 8.25862 28.8689 8.49286 29.0586 8.76828L29.1494 8.90891L29.2295 9.05539C29.406 9.4034 29.4991 9.78863 29.5 10.1804V22.1423C29.499 22.5898 29.378 23.0291 29.1494 23.4138C28.9493 23.7506 28.6728 24.0351 28.3438 24.2448L28.2002 24.3298L17.2002 30.3523C16.8323 30.5536 16.4194 30.6589 16 30.6589C15.6332 30.6589 15.2715 30.5785 14.9404 30.4236L14.7998 30.3523L3.7998 24.3298C3.40722 24.115 3.07922 23.7985 2.85059 23.4138C2.62201 23.0291 2.50102 22.5898 2.5 22.1423V10.1804L2.50586 10.0134C2.53284 9.62417 2.65047 9.24564 2.85059 8.90891L2.94141 8.76828C3.1627 8.44701 3.45622 8.18089 3.7998 7.99289L14.7998 1.97043L14.9404 1.90012C15.2716 1.74511 15.6331 1.66379 16 1.66379ZM5.5 10.4821V21.8396L16 27.5886L26.5 21.8396V10.4821L16 4.73312L5.5 10.4821ZM12.4395 11.1013C13.0252 10.5155 13.9748 10.5155 14.5605 11.1013C15.1462 11.6871 15.1463 12.6366 14.5605 13.2224L11.6211 16.1618L14.5605 19.1013C15.1462 19.6871 15.1463 20.6366 14.5605 21.2224C13.9748 21.808 13.0252 21.808 12.4395 21.2224L8.43945 17.2224C7.85372 16.6366 7.85382 15.6871 8.43945 15.1013L12.4395 11.1013ZM17.4395 11.1013C18.0252 10.5155 18.9748 10.5155 19.5605 11.1013L23.5605 15.1013C24.1462 15.6871 24.1463 16.6366 23.5605 17.2224L19.5605 21.2224C18.9748 21.808 18.0252 21.808 17.4395 21.2224C16.8537 20.6366 16.8538 19.6871 17.4395 19.1013L20.3789 16.1618L17.4395 13.2224C16.8537 12.6366 16.8538 11.6871 17.4395 11.1013Z" />
</svg>
