<svg viewBox="0 0 32 32" fill="currentColor" xmlns="http://www.w3.org/2000/svg">
<path opacity="0.2" d="M25.8683 12.6678L5.69482 12.6598C5.42961 12.6598 5.17525 12.7652 4.98772 12.9527C4.80018 13.1402 4.69482 13.3946 4.69482 13.6598V27.6598C4.69482 27.925 4.80018 28.1794 4.98772 28.3669C5.17525 28.5544 5.42961 28.6598 5.69482 28.6598L25.8683 28.6678C26.1335 28.6678 26.3879 28.5624 26.5754 28.3749C26.763 28.1874 26.8683 27.933 26.8683 27.6678V13.6678C26.8683 13.4026 26.763 13.1482 26.5754 12.9607C26.3879 12.7732 26.1335 12.6678 25.8683 12.6678ZM15.7729 22.6678C15.2784 22.6678 14.7951 22.5212 14.3839 22.2465C13.9728 21.9718 13.6524 21.5813 13.4632 21.1245C13.2739 20.6677 13.2244 20.165 13.3209 19.6801C13.4174 19.1951 13.6555 18.7497 14.0051 18.4C14.3547 18.0504 14.8002 17.8123 15.2851 17.7159C15.7701 17.6194 16.2728 17.6689 16.7296 17.8581C17.1864 18.0473 17.5768 18.3678 17.8515 18.7789C18.1262 19.19 18.2729 19.6734 18.2729 20.1678C18.2729 20.8309 18.0095 21.4667 17.5406 21.9356C17.0718 22.4044 16.4359 22.6678 15.7729 22.6678Z" />
<path d="M19.7729 8.66748C19.7729 7.60661 19.3512 6.5895 18.6011 5.83936C17.8509 5.08921 16.8338 4.66748 15.7729 4.66748C14.7121 4.66748 13.695 5.08921 12.9448 5.83936C12.1947 6.5895 11.7729 7.60661 11.7729 8.66748V11.6675H19.7729V8.66748ZM17.2729 20.1675C17.2729 19.3391 16.6014 18.6675 15.7729 18.6675C14.9445 18.6675 14.2729 19.3391 14.2729 20.1675C14.2729 20.9959 14.9445 21.6675 15.7729 21.6675C16.6014 21.6675 17.2729 20.9959 17.2729 20.1675ZM19.2729 20.1675C19.2729 21.7528 18.2185 23.0906 16.7729 23.521V25.6675C16.7729 26.2198 16.3252 26.6675 15.7729 26.6675C15.2207 26.6675 14.7729 26.2198 14.7729 25.6675V23.521C13.3274 23.0906 12.2729 21.7528 12.2729 20.1675C12.2729 18.2345 13.84 16.6675 15.7729 16.6675C17.7059 16.6675 19.2729 18.2345 19.2729 20.1675ZM21.7729 11.6675H23.7729C24.6271 11.6675 25.3607 11.8091 25.9673 12.1235C26.5917 12.4473 27.0183 12.9218 27.2925 13.4702C27.795 14.4753 27.7729 15.7434 27.7729 16.6675C27.7729 17.7434 27.795 18.4753 28.0425 18.9702C28.1433 19.1718 28.2794 19.3223 28.4985 19.436C28.7356 19.559 29.1272 19.6675 29.7729 19.6675C30.3252 19.6675 30.7729 20.1152 30.7729 20.6675C30.7729 21.2198 30.3252 21.6675 29.7729 21.6675C29.1272 21.6675 28.7356 21.776 28.4985 21.8989C28.2794 22.0126 28.1433 22.1632 28.0425 22.3647C27.795 22.8597 27.7729 23.5916 27.7729 24.6675C27.7729 25.5916 27.795 26.8597 27.2925 27.8647C27.0183 28.4131 26.5917 28.8876 25.9673 29.2114C25.3607 29.5259 24.6271 29.6675 23.7729 29.6675C23.2207 29.6675 22.7729 29.2198 22.7729 28.6675C22.7729 28.1152 23.2207 27.6675 23.7729 27.6675C24.4187 27.6675 24.8103 27.559 25.0474 27.436C25.2665 27.3223 25.4026 27.1718 25.5034 26.9702C25.7509 26.4753 25.7729 25.7434 25.7729 24.6675C25.7729 23.7434 25.7509 22.4753 26.2534 21.4702C26.3998 21.1774 26.5905 20.9065 26.8306 20.6675C26.5905 20.4285 26.3998 20.1576 26.2534 19.8647C25.7509 18.8597 25.7729 17.5916 25.7729 16.6675C25.7729 15.5916 25.7509 14.8597 25.5034 14.3647C25.4026 14.1632 25.2665 14.0126 25.0474 13.8989C24.8103 13.776 24.4187 13.6675 23.7729 13.6675H7.77295C7.12719 13.6675 6.73564 13.776 6.49854 13.8989C6.27939 14.0126 6.14325 14.1632 6.04248 14.3647C5.79501 14.8597 5.77295 15.5916 5.77295 16.6675C5.77295 17.5916 5.79501 18.8597 5.29248 19.8647C5.14597 20.1578 4.95469 20.4283 4.71436 20.6675C4.95469 20.9066 5.14597 21.1772 5.29248 21.4702C5.79501 22.4753 5.77295 23.7434 5.77295 24.6675C5.77295 25.7434 5.79501 26.4753 6.04248 26.9702C6.14325 27.1718 6.27939 27.3223 6.49854 27.436C6.73564 27.559 7.12719 27.6675 7.77295 27.6675C8.32523 27.6675 8.77295 28.1152 8.77295 28.6675C8.77295 29.2198 8.32523 29.6675 7.77295 29.6675C6.91883 29.6675 6.1852 29.5259 5.57861 29.2114C4.95415 28.8876 4.52761 28.4131 4.25342 27.8647C3.75089 26.8597 3.77295 25.5916 3.77295 24.6675C3.77295 23.5916 3.75089 22.8597 3.50342 22.3647C3.40265 22.1632 3.2665 22.0126 3.04736 21.8989C2.81025 21.776 2.41871 21.6675 1.77295 21.6675C1.22066 21.6675 0.772949 21.2198 0.772949 20.6675C0.772949 20.1152 1.22066 19.6675 1.77295 19.6675C2.41871 19.6675 2.81025 19.559 3.04736 19.436C3.2665 19.3223 3.40265 19.1718 3.50342 18.9702C3.75089 18.4753 3.77295 17.7434 3.77295 16.6675C3.77295 15.7434 3.75089 14.4753 4.25342 13.4702C4.52761 12.9218 4.95415 12.4473 5.57861 12.1235C6.1852 11.8091 6.91883 11.6675 7.77295 11.6675H9.77295V8.66748C9.77295 7.07618 10.4055 5.55051 11.5308 4.42529C12.656 3.30007 14.1817 2.66748 15.7729 2.66748C17.3642 2.66748 18.8899 3.30007 20.0151 4.42529C21.1404 5.55051 21.7729 7.07618 21.7729 8.66748V11.6675Z" />
</svg>
