<svg viewBox="0 0 32 32" fill="currentColor" xmlns="http://www.w3.org/2000/svg">
<path class="duotone-secondary" d="M25.1361 10.4909C21.5192 10.4807 9.91033 10.4447 6.1673 10.4336C5.50114 10.4316 4.95594 10.9367 4.96445 11.6028C4.99082 13.6664 5.49132 17.7248 9.02691 17.6619C14.808 17.5592 13.313 13.4178 15.4903 13.431H16.1813C18.6867 13.4965 16.9494 17.6773 22.6057 17.5985C26.3042 17.5469 26.4745 13.5317 26.3347 11.561C26.2906 10.939 25.7597 10.4927 25.1361 10.4909Z" />
<path class="duotone-primary" d="M25.6814 18.2707C26.1303 17.949 26.7552 18.0514 27.0769 18.5002C27.7863 19.4901 28.9024 21.1552 28.7605 23.1018C28.69 24.0683 28.0732 25.0222 27.2585 25.6409C26.4101 26.285 25.2185 26.6653 23.9206 26.2854C23.6045 26.1929 23.178 26.09 22.6775 25.9817L22.5007 26.175C20.9702 27.8447 18.2921 29.3703 15.7165 29.3284C13.7104 29.2957 11.1152 28.5299 9.21752 26.4778L9.01537 26.259C8.57148 26.3681 8.14262 26.4721 7.72924 26.5618L7.71557 26.5647L7.70287 26.5676C6.96298 26.7071 4.56129 27.0016 3.22045 24.6965C2.52599 23.5025 2.75462 22.1877 3.13549 21.177C3.52295 20.149 4.14957 19.2122 4.5769 18.6047C4.89465 18.153 5.51873 18.0448 5.97045 18.3625C6.42193 18.6803 6.53022 19.3035 6.21264 19.7551C5.79809 20.3444 5.2998 21.1068 5.00756 21.8821C4.70894 22.6743 4.70309 23.2676 4.94897 23.6907C5.58342 24.7814 6.69419 24.7206 7.32787 24.6018C9.38688 24.1527 12.5749 23.1298 16.0154 23.1614C18.9111 23.1614 22.8787 23.8972 24.4822 24.3664C25.063 24.5364 25.6082 24.3824 26.0486 24.0481C26.5225 23.6883 26.7472 23.2187 26.7663 22.9563C26.8501 21.806 26.1786 20.6807 25.4509 19.6653C25.1294 19.2164 25.2327 18.5924 25.6814 18.2707ZM16.0056 25.1614C14.3371 25.1451 12.7678 25.398 11.3171 25.7131C12.6872 26.8438 14.3821 27.3071 15.7497 27.3293C17.2725 27.354 18.9992 26.5737 20.2634 25.5393C18.8467 25.3238 17.303 25.1614 16.0154 25.1614H16.0056ZM13.4968 18.8157C13.8193 18.3673 14.444 18.2647 14.8923 18.5871C15.3407 18.9096 15.4423 19.5353 15.1199 19.9836L14.4636 20.8957C14.1411 21.3438 13.5163 21.4457 13.0681 21.1233C12.6198 20.8008 12.5181 20.1761 12.8406 19.7278L13.4968 18.8157ZM16.4841 18.5871C16.9325 18.2649 17.5572 18.3674 17.8796 18.8157L18.5359 19.7278C18.8582 20.176 18.7564 20.8008 18.3083 21.1233C17.86 21.4457 17.2344 21.344 16.9119 20.8957L16.2556 19.9836C15.9331 19.5353 16.0358 18.9096 16.4841 18.5871ZM25.1394 9.49046C26.2282 9.49358 27.2476 10.2896 27.3328 11.4905C27.4056 12.5179 27.4114 14.1947 26.8425 15.6614C26.5524 16.4092 26.0954 17.1462 25.3816 17.7004C24.6572 18.2627 23.7364 18.5833 22.6199 18.5989C21.0878 18.6202 19.9452 18.3549 19.074 17.8596C18.1906 17.3574 17.6864 16.6747 17.3406 16.0588C17.1753 15.7645 17.0347 15.4631 16.9246 15.2366C16.805 14.9906 16.716 14.8216 16.6257 14.6916C16.5413 14.5701 16.4796 14.5187 16.4353 14.4924C16.4065 14.4754 16.3565 14.4514 16.2634 14.4387L16.156 14.4309H15.4851C15.3841 14.4303 15.3583 14.45 15.3562 14.4514C15.3413 14.4608 15.293 14.4973 15.2097 14.6233C15.1219 14.7562 15.0346 14.9263 14.9099 15.1789C14.7937 15.4143 14.6491 15.7119 14.4705 16.0129C14.101 16.6356 13.5657 17.3114 12.6648 17.8244C11.7746 18.3314 10.6077 18.6336 9.04467 18.6614C7.95482 18.6807 7.04208 18.3786 6.30932 17.8352C5.59017 17.3018 5.10143 16.5797 4.7683 15.841C4.11212 14.3861 3.97831 12.6887 3.96459 11.6155C3.9484 10.3415 4.99694 9.43034 6.17065 9.43382C9.91403 9.44497 21.5226 9.48021 25.1394 9.49046ZM6.16479 11.4338C6.08733 11.4336 6.03396 11.4614 6.00463 11.4895C5.97864 11.5144 5.96401 11.5445 5.96459 11.5901C5.97725 12.5803 6.10699 13.9444 6.59155 15.0188C6.82879 15.5448 7.13085 15.9544 7.50072 16.2287C7.85685 16.4928 8.33205 16.6744 9.00951 16.6623C10.337 16.6387 11.1521 16.3842 11.6755 16.0862C12.1879 15.7943 12.4993 15.4161 12.7507 14.9924C12.8825 14.7704 12.9916 14.5462 13.116 14.2942C13.2318 14.0594 13.3723 13.7757 13.5408 13.5207C13.7138 13.2588 13.951 12.973 14.2937 12.758C14.6482 12.5356 15.0511 12.4292 15.491 12.4309H16.2078C16.6687 12.4429 17.0865 12.5535 17.4548 12.7717C17.817 12.9863 18.0749 13.2717 18.2683 13.55C18.4557 13.8198 18.6031 14.1141 18.7234 14.3616C18.8532 14.6285 18.957 14.8519 19.0847 15.0793C19.3247 15.5067 19.6026 15.859 20.0622 16.1203C20.5343 16.3887 21.2965 16.6169 22.5925 16.5989C23.3248 16.5886 23.8118 16.3868 24.155 16.1203C24.5089 15.8456 24.78 15.4464 24.9773 14.9377C25.3831 13.8914 25.4045 12.5753 25.3376 11.6321C25.3352 11.597 25.322 11.5699 25.2937 11.5452C25.2619 11.5173 25.2072 11.4907 25.1335 11.4905C21.5165 11.4802 9.9075 11.445 6.16479 11.4338ZM15.6697 3.00706C18.8367 3.05051 20.9183 4.10601 22.2185 5.21507C22.861 5.76313 23.2994 6.31296 23.5808 6.7346C23.7215 6.94543 23.824 7.12525 23.8933 7.25804C23.9278 7.32418 23.9542 7.37888 23.9734 7.42015C23.9829 7.44068 23.9908 7.45823 23.9968 7.47191C23.9998 7.47878 24.0025 7.48542 24.0046 7.49046C24.0057 7.49288 24.0067 7.49532 24.0076 7.4973C24.0079 7.49823 24.0082 7.49939 24.0085 7.50023L24.0095 7.50121C24.0097 7.50183 24.0022 7.50597 23.1804 7.84496L24.0095 7.50121C24.2201 8.01171 23.977 8.59721 23.4665 8.80785C22.9879 9.00524 22.4445 8.80418 22.2048 8.35765L22.1628 8.26878C22.1633 8.26988 22.1635 8.27103 22.1638 8.27171L22.1589 8.26195C22.1523 8.24768 22.1394 8.22032 22.1199 8.18285C22.0807 8.10786 22.015 7.99067 21.9177 7.84496C21.7224 7.55237 21.4024 7.14751 20.9206 6.73656C19.9721 5.92748 18.3389 5.04407 15.6423 5.00706C12.9707 4.97042 11.3546 5.87308 10.4109 6.72093C9.92999 7.153 9.60882 7.58497 9.41088 7.9016C9.31212 8.05958 9.24522 8.18778 9.20483 8.27074C9.18467 8.31213 9.17099 8.34201 9.16381 8.35863C9.16024 8.36689 9.1585 8.37193 9.15795 8.37328L9.1599 8.36839C9.15993 8.36834 9.16003 8.36693 9.15893 8.36644C8.96087 8.88144 8.38418 9.1391 7.86889 8.94164C7.35326 8.74382 7.09493 8.16527 7.29272 7.64964L8.17846 7.98949C7.34763 7.67072 7.29664 7.65043 7.29369 7.64867L7.29467 7.64476C7.29542 7.64284 7.29667 7.64029 7.2976 7.63792C7.29961 7.63284 7.30255 7.62642 7.30541 7.61937C7.31115 7.60528 7.31857 7.58721 7.32787 7.56566C7.34649 7.52256 7.37193 7.46472 7.406 7.39476C7.47413 7.25485 7.57496 7.06441 7.71459 6.84105C7.99344 6.39502 8.43059 5.81171 9.07397 5.23363C10.379 4.0611 12.4779 2.96329 15.6697 3.00706Z" />
</svg>
