<svg viewBox="0 0 32 32" fill="currentColor" xmlns="http://www.w3.org/2000/svg">
<path d="M16.3945 29.1088C16.1362 29.1792 15.8638 29.1792 15.6055 29.1088L16 27.6615L16.3945 29.1088ZM18.5 16.6615C18.5 15.2808 17.3807 14.1615 16 14.1615C14.6193 14.1615 13.5 15.2808 13.5 16.6615C13.5 18.0422 14.6193 19.1615 16 19.1615C17.3807 19.1615 18.5 18.0422 18.5 16.6615ZM21.5 16.6615C21.5 17.6352 21.2456 18.5489 20.8018 19.3422L22.7305 21.2709C24.2963 19.2499 25.5 16.4696 25.5 12.6615V6.16153H6.5V12.6615C6.5 18.1269 8.97705 21.4769 11.4502 23.5004C12.7016 24.5243 13.9585 25.211 14.9023 25.64C15.3584 25.8473 15.7371 25.9915 16 26.0844C16.2629 25.9915 16.6416 25.8473 17.0977 25.64C18.0415 25.211 19.2984 24.5243 20.5498 23.5004C20.5804 23.4754 20.6091 23.4477 20.6396 23.4223L18.6807 21.4633C17.8874 21.9071 16.9736 22.1615 16 22.1615C12.9624 22.1615 10.5 19.6991 10.5 16.6615C10.5 13.624 12.9624 11.1615 16 11.1615C19.0376 11.1615 21.5 13.624 21.5 16.6615ZM28.5 12.6615C28.5 19.1961 25.477 23.3461 22.4502 25.8227C20.9519 27.0486 19.4585 27.862 18.3398 28.3705C17.7789 28.6255 17.3066 28.8058 16.9688 28.9242C16.7997 28.9835 16.6638 29.0279 16.5664 29.058C16.5179 29.073 16.479 29.0848 16.4502 29.0932C16.4358 29.0974 16.4233 29.1003 16.4141 29.1029C16.4095 29.1042 16.4056 29.1059 16.4023 29.1068C16.4009 29.1072 16.3996 29.1075 16.3984 29.1078H16.3965C16.3957 29.108 16.3947 29.1087 16 27.6615C15.6053 29.1087 15.6043 29.108 15.6035 29.1078H15.6016C15.6004 29.1075 15.5991 29.1072 15.5977 29.1068C15.5944 29.1059 15.5905 29.1042 15.5859 29.1029C15.5767 29.1003 15.5642 29.0974 15.5498 29.0932C15.521 29.0848 15.4821 29.073 15.4336 29.058C15.3362 29.0279 15.2003 28.9835 15.0312 28.9242C14.6934 28.8058 14.2211 28.6255 13.6602 28.3705C12.5415 27.862 11.0481 27.0486 9.5498 25.8227C6.52299 23.3461 3.5 19.1961 3.5 12.6615V5.66153C3.5 4.99849 3.76358 4.36279 4.23242 3.89395C4.70126 3.42511 5.33696 3.16153 6 3.16153H26C26.663 3.16153 27.2987 3.42511 27.7676 3.89395C28.2364 4.36279 28.5 4.99849 28.5 5.66153V12.6615Z" />
</svg>
