<svg viewBox="0 0 32 32" fill="currentColor" xmlns="http://www.w3.org/2000/svg">
<path d="M15.7725 2.16977C16.1079 2.16977 16.4381 2.2539 16.7324 2.41489L27.7314 8.43735H27.7324C28.0466 8.60923 28.3092 8.86291 28.4922 9.17075C28.6749 9.47838 28.7716 9.82953 28.7725 10.1873V22.1473C28.7716 22.5054 28.6751 22.8571 28.4922 23.1649C28.3093 23.4727 28.0465 23.7254 27.7324 23.8973L16.7324 29.9198C16.4381 30.0808 16.108 30.1649 15.7725 30.1649C15.479 30.1649 15.1897 30.1004 14.9248 29.9764L14.8125 29.9198L3.8125 23.8973C3.49839 23.7254 3.23567 23.4727 3.05273 23.1649C2.8698 22.8571 2.77328 22.5054 2.77246 22.1473V10.1873L2.77734 10.0536C2.79897 9.74246 2.89284 9.43993 3.05273 9.17075C3.21285 8.90133 3.43404 8.67351 3.69727 8.50571L3.8125 8.43735L14.8125 2.41489C15.1068 2.2539 15.437 2.16977 15.7725 2.16977ZM4.77246 10.1922V22.1424L15.7725 28.1649L26.7725 22.1424V10.1922L15.7725 4.16977L4.77246 10.1922ZM12.5654 11.4608C12.956 11.0703 13.589 11.0703 13.9795 11.4608C14.3699 11.8513 14.37 12.4844 13.9795 12.8748L10.6865 16.1678L13.9795 19.4608C14.3699 19.8513 14.37 20.4844 13.9795 20.8748C13.589 21.2652 12.9559 21.2652 12.5654 20.8748L8.56543 16.8748C8.17496 16.4844 8.17506 15.8513 8.56543 15.4608L12.5654 11.4608ZM17.5654 11.4608C17.956 11.0703 18.589 11.0703 18.9795 11.4608L22.9795 15.4608C23.3699 15.8513 23.37 16.4844 22.9795 16.8748L18.9795 20.8748C18.589 21.2652 17.9559 21.2652 17.5654 20.8748C17.175 20.4844 17.1751 19.8513 17.5654 19.4608L20.8584 16.1678L17.5654 12.8748C17.175 12.4844 17.1751 11.8513 17.5654 11.4608Z" />
</svg>
