<svg viewBox="0 0 32 32" fill="currentColor" xmlns="http://www.w3.org/2000/svg">
<path d="M16.0352 28.6323C15.8632 28.6792 15.6818 28.6792 15.5098 28.6323L15.7725 27.6675L16.0352 28.6323ZM18.7725 16.6675C18.7725 15.0106 17.4293 13.6675 15.7725 13.6675C14.1156 13.6675 12.7725 15.0106 12.7725 16.6675C12.7725 18.3243 14.1156 19.6675 15.7725 19.6675C17.4293 19.6675 18.7725 18.3243 18.7725 16.6675ZM20.7725 16.6675C20.7725 17.6865 20.4669 18.6339 19.9434 19.4243L22.4795 21.9604C22.5008 21.9818 22.521 22.0041 22.54 22.0269C24.3366 19.8982 25.7725 16.8868 25.7725 12.6675V5.66748H5.77246V12.6675C5.77246 18.3107 8.34 21.794 10.9053 23.8931C12.1979 24.9507 13.4948 25.6588 14.4678 26.1011C14.953 26.3216 15.3548 26.475 15.6309 26.5718C15.6823 26.5898 15.7301 26.6035 15.7725 26.6177C15.8148 26.6035 15.8626 26.5898 15.9141 26.5718C16.1901 26.475 16.5919 26.3216 17.0771 26.1011C18.0501 25.6588 19.347 24.9507 20.6396 23.8931C20.8114 23.7525 20.9823 23.6048 21.1533 23.4517C21.1231 23.4278 21.0933 23.4024 21.0654 23.3745L18.5293 20.8384C17.7389 21.3619 16.7915 21.6675 15.7725 21.6675C13.011 21.6675 10.7725 19.4289 10.7725 16.6675C10.7725 13.9061 13.011 11.6675 15.7725 11.6675C18.5339 11.6675 20.7725 13.9061 20.7725 16.6675ZM27.7725 12.6675C27.7725 19.0239 24.8398 23.0409 21.9053 25.4419C20.4482 26.6339 18.9947 27.4262 17.9053 27.9214C17.3595 28.1694 16.9016 28.3444 16.5762 28.4585C16.4134 28.5156 16.2832 28.558 16.1914 28.5864C16.1456 28.6006 16.1092 28.6111 16.083 28.6187C16.0702 28.6224 16.0596 28.6252 16.0518 28.6274C16.0478 28.6286 16.0436 28.6296 16.041 28.6304C16.0399 28.6307 16.0389 28.6311 16.0381 28.6313L16.0371 28.6323C16.0365 28.6325 16.0356 28.6322 15.7725 27.6675C15.5093 28.6322 15.5084 28.6325 15.5078 28.6323L15.5068 28.6313C15.506 28.6311 15.505 28.6307 15.5039 28.6304C15.5013 28.6296 15.4971 28.6286 15.4932 28.6274C15.4853 28.6252 15.4747 28.6224 15.4619 28.6187C15.4358 28.6111 15.3993 28.6006 15.3535 28.5864C15.2617 28.558 15.1316 28.5156 14.9688 28.4585C14.6433 28.3444 14.1854 28.1694 13.6396 27.9214C12.5503 27.4262 11.0967 26.6339 9.63965 25.4419C6.70508 23.0409 3.77246 19.0239 3.77246 12.6675V5.66748C3.77246 5.13705 3.98333 4.62849 4.3584 4.25342C4.73347 3.87835 5.24203 3.66748 5.77246 3.66748H25.7725C26.3029 3.66748 26.8114 3.87835 27.1865 4.25342C27.5616 4.62849 27.7725 5.13705 27.7725 5.66748V12.6675Z" />
</svg>
