<svg viewBox="0 0 32 32" fill="currentColor" xmlns="http://www.w3.org/2000/svg">
<path opacity="0.2" d="M22.5 14.2852C22.5908 14.2852 22.6801 14.3081 22.7598 14.3506L28.7188 17.5273C28.8036 17.5726 28.8743 17.6397 28.9238 17.7207C28.9734 17.8019 28.9998 17.8948 29 17.9893V24.2959C28.9998 24.3903 28.9733 24.4833 28.9238 24.5645C28.8744 24.6455 28.8036 24.7125 28.7188 24.7578L22.7598 27.9355C22.6801 27.9779 22.5907 28 22.5 28C22.4093 28 22.3199 27.9779 22.2402 27.9355L16.2812 24.7578C16.1963 24.7125 16.1256 24.6455 16.0762 24.5645C16.039 24.5034 16.0146 24.4361 16.0049 24.3662L16 24.2959C15.9998 24.3903 15.9733 24.4833 15.9238 24.5645C15.8744 24.6455 15.8036 24.7125 15.7188 24.7578L9.75977 27.9355C9.68014 27.9779 9.59074 28 9.5 28C9.40927 28 9.31986 27.9779 9.24023 27.9355L3.28125 24.7578C3.19633 24.7125 3.12565 24.6455 3.07617 24.5645C3.02665 24.4833 3.00022 24.3903 3 24.2959V17.9893C3.00022 17.8948 3.02663 17.8019 3.07617 17.7207C3.12567 17.6397 3.19634 17.5726 3.28125 17.5273L9.24023 14.3506C9.31992 14.3081 9.40918 14.2852 9.5 14.2852C9.59083 14.2852 9.68008 14.3081 9.75977 14.3506L15.7188 17.5273C15.8036 17.5726 15.8743 17.6397 15.9238 17.7207C15.9734 17.8019 15.9998 17.8948 16 17.9893L16.0049 17.9189C16.0147 17.8492 16.039 17.7816 16.0762 17.7207C16.1257 17.6397 16.1963 17.5726 16.2812 17.5273L22.2402 14.3506C22.3199 14.3081 22.4092 14.2852 22.5 14.2852Z" />
<path d="M16.1895 3.01172C16.315 3.02712 16.4382 3.05808 16.5566 3.10352L16.7305 3.18262L22.6885 6.35938C22.7786 6.40739 22.8618 6.46662 22.9404 6.53125C23.1239 6.62113 23.2821 6.76736 23.3848 6.96191C23.4857 7.15325 23.5162 7.36234 23.4893 7.56152C23.4937 7.60791 23.4999 7.65426 23.5 7.70117V13.6113L29.1885 16.6455C29.2793 16.6939 29.3632 16.7531 29.4424 16.8184C29.625 16.9083 29.7825 17.0543 29.8848 17.248C29.9856 17.4394 30.0163 17.6485 29.9893 17.8477C29.9937 17.8939 29.9999 17.9405 30 17.9873V24.2988C29.9993 24.5775 29.9215 24.8498 29.7773 25.0859C29.6333 25.3218 29.429 25.5125 29.1885 25.6406L23.2305 28.8174C23.0051 28.9375 22.7539 29 22.5 29C22.3096 29 22.1209 28.9646 21.9434 28.8965L21.7695 28.8174L16 25.7402L10.2305 28.8174C10.0051 28.9375 9.75387 29 9.5 29C9.30961 29 9.12093 28.9646 8.94336 28.8965L8.76953 28.8174L2.81152 25.6406C2.57102 25.5125 2.36665 25.3217 2.22266 25.0859C2.07855 24.8498 2.00069 24.5775 2 24.2988V17.9873L2.01074 17.8477C1.9837 17.6485 2.01439 17.4394 2.11523 17.248C2.21746 17.0542 2.37503 16.9083 2.55762 16.8184C2.63679 16.7531 2.72072 16.6939 2.81152 16.6455L8.5 13.6113V7.70117C8.50011 7.65429 8.50535 7.60788 8.50977 7.56152C8.48286 7.36237 8.51433 7.15321 8.61523 6.96191C8.71772 6.76762 8.87542 6.62117 9.05859 6.53125C9.13741 6.46644 9.22121 6.40751 9.31152 6.35938L15.2695 3.18262C15.4949 3.06251 15.7461 3 16 3L16.1895 3.01172ZM4 24.0078L8.5 26.4062V21.7451L4 19.3721V24.0078ZM10.5 21.7451V26.4062L15 24.0078V19.3721L10.5 21.7451ZM17 24.0078L21.5 26.4062V21.7451L17 19.3721V24.0078ZM23.5 21.7451V26.4062L28 24.0078V19.3721L23.5 21.7451ZM5.09961 17.6914L9.5 20.0117L13.7959 17.7461L9.39648 15.3994L5.09961 17.6914ZM18.2031 17.7461L22.5 20.0117L26.8994 17.6914L22.6025 15.3994L18.2031 17.7461ZM10.5 13.6113L15 16.0107V11.46L10.5 9.08691V13.6113ZM17 11.46V16.0107L21.5 13.6113V9.08691L17 11.46ZM11.5996 7.40527L16 9.72559L20.3994 7.40527L16 5.05957L11.5996 7.40527Z" />
</svg>
