<svg viewBox="0 0 32 32" fill="currentColor" xmlns="http://www.w3.org/2000/svg">
<path class="duotone-secondary" fill-rule="evenodd" clip-rule="evenodd" d="M25.7729 5C26.0382 5 26.2924 5.10543 26.48 5.29297C26.6675 5.48051 26.7729 5.73478 26.7729 6V13C26.7729 25 15.7729 28 15.7729 28C15.7729 28 4.77295 25 4.77295 13V6C4.77295 5.73478 4.87838 5.48051 5.06592 5.29297C5.25345 5.10543 5.50773 5 5.77295 5H25.7729ZM15.7729 13C13.5638 13 11.7729 14.7909 11.7729 17C11.7729 19.2091 13.5638 21 15.7729 21C17.9821 21 19.7729 19.2091 19.7729 17C19.7729 14.7909 17.9821 13 15.7729 13Z" />
<path class="duotone-primary" d="M16.0356 28.9648C15.8636 29.0117 15.6823 29.0117 15.5103 28.9648L15.7729 28L16.0356 28.9648ZM18.7729 17C18.7729 15.3431 17.4298 14 15.7729 14C14.1161 14 12.7729 15.3431 12.7729 17C12.7729 18.6569 14.1161 20 15.7729 20C17.4298 20 18.7729 18.6569 18.7729 17ZM20.7729 17C20.7729 18.0191 20.4673 18.9664 19.9438 19.7568L22.48 22.293C22.5013 22.3143 22.5215 22.3367 22.5405 22.3594C24.337 20.2307 25.7729 17.2193 25.7729 13V6H5.77295V13C5.77295 18.6432 8.34049 22.1266 10.9058 24.2256C12.1984 25.2832 13.4953 25.9913 14.4683 26.4336C14.9535 26.6542 15.3553 26.8075 15.6313 26.9043C15.6828 26.9223 15.7306 26.936 15.7729 26.9502C15.8153 26.936 15.8631 26.9223 15.9146 26.9043C16.1906 26.8075 16.5924 26.6542 17.0776 26.4336C18.0506 25.9913 19.3475 25.2832 20.6401 24.2256C20.8119 24.085 20.9828 23.9374 21.1538 23.7842C21.1236 23.7603 21.0938 23.7349 21.0659 23.707L18.5298 21.1709C17.7394 21.6944 16.792 22 15.7729 22C13.0115 22 10.7729 19.7614 10.7729 17C10.7729 14.2386 13.0115 12 15.7729 12C18.5344 12 20.7729 14.2386 20.7729 17ZM27.7729 13C27.7729 19.3564 24.8403 23.3734 21.9058 25.7744C20.4487 26.9665 18.9951 27.7587 17.9058 28.2539C17.36 28.502 16.9021 28.6769 16.5767 28.791C16.4139 28.8481 16.2837 28.8906 16.1919 28.9189C16.1461 28.9331 16.1097 28.9436 16.0835 28.9512C16.0707 28.9549 16.0601 28.9578 16.0522 28.96C16.0483 28.9611 16.0441 28.9622 16.0415 28.9629C16.0404 28.9632 16.0394 28.9636 16.0386 28.9639L16.0376 28.9648C16.037 28.965 16.0361 28.9648 15.7729 28C15.5098 28.9648 15.5089 28.965 15.5083 28.9648L15.5073 28.9639C15.5065 28.9636 15.5055 28.9632 15.5044 28.9629C15.5018 28.9622 15.4976 28.9611 15.4937 28.96C15.4858 28.9578 15.4752 28.9549 15.4624 28.9512C15.4362 28.9436 15.3998 28.9331 15.354 28.9189C15.2622 28.8906 15.132 28.8481 14.9692 28.791C14.6438 28.6769 14.1859 28.502 13.6401 28.2539C12.5508 27.7587 11.0972 26.9665 9.64014 25.7744C6.70557 23.3734 3.77295 19.3564 3.77295 13V6C3.77295 5.46957 3.98381 4.96101 4.35889 4.58594C4.73396 4.21087 5.24252 4 5.77295 4H25.7729C26.3034 4 26.8119 4.21087 27.187 4.58594C27.5621 4.96101 27.7729 5.46957 27.7729 6V13Z" />
</svg>
