<svg viewBox="0 0 32 32" fill="currentColor" xmlns="http://www.w3.org/2000/svg">
<path d="M15.7729 3.16913C15.9407 3.16913 16.1062 3.21165 16.2534 3.29218L27.2534 9.31464C27.4102 9.40052 27.5409 9.52717 27.6323 9.68085C27.7238 9.83475 27.7725 10.0106 27.7729 10.1896V22.1447C27.7725 22.3237 27.7238 22.4996 27.6323 22.6535C27.5409 22.8072 27.4102 22.9338 27.2534 23.0197L16.2534 29.0422C16.1062 29.1227 15.9407 29.1652 15.7729 29.1652C15.6052 29.1652 15.4397 29.1227 15.2925 29.0422L4.29248 23.0197C4.13566 22.9338 4.00497 22.8072 3.91357 22.6535C3.82211 22.4996 3.77336 22.3237 3.77295 22.1447V10.1896C3.77336 10.0106 3.82211 9.83475 3.91357 9.68085C4.00497 9.52717 4.13566 9.40052 4.29248 9.31464L15.2925 3.29218C15.4397 3.21165 15.6052 3.16913 15.7729 3.16913ZM13.7534 11.6281C13.363 11.2376 12.7299 11.2378 12.3394 11.6281L8.33936 15.6281C7.94883 16.0186 7.94883 16.6517 8.33936 17.0422L12.3394 21.0422C12.7299 21.4324 13.363 21.4326 13.7534 21.0422C14.1437 20.6517 14.1436 20.0186 13.7534 19.6281L10.4604 16.3351L13.7534 13.0422C14.1437 12.6517 14.1436 12.0186 13.7534 11.6281ZM18.7534 11.6281C18.363 11.2376 17.7299 11.2378 17.3394 11.6281C16.9488 12.0186 16.9488 12.6517 17.3394 13.0422L20.6323 16.3351L17.3394 19.6281C16.9488 20.0186 16.9488 20.6517 17.3394 21.0422C17.7299 21.4324 18.363 21.4326 18.7534 21.0422L22.7534 17.0422C23.1437 16.6517 23.1436 16.0186 22.7534 15.6281L18.7534 11.6281Z" />
</svg>
