<svg viewBox="0 0 32 32" fill="currentColor" xmlns="http://www.w3.org/2000/svg">
<path d="M15.9033 2.50098C19.1878 2.54603 21.3814 3.64415 22.7696 4.82813C23.4522 5.41046 23.9206 5.99627 24.2237 6.4502C24.3753 6.67736 24.4866 6.8732 24.5635 7.02051C24.6019 7.09409 24.632 7.15601 24.6543 7.2041C24.6654 7.22801 24.6743 7.2487 24.6817 7.26563C24.6854 7.27413 24.6886 7.28241 24.6914 7.28906C24.6918 7.29003 24.692 7.29107 24.6924 7.29199L25.3809 8.91406C25.3909 8.93771 25.3985 8.96248 25.4072 8.98633C26.6317 9.00771 27.7973 9.85534 28.0254 11.1758L28.0586 11.4492L28.0821 11.874C28.1259 12.936 28.0686 14.4607 27.5352 15.8359C27.3748 16.2493 27.1633 16.6653 26.8887 17.0576L27.71 18.2031C28.4148 19.1867 29.6427 20.9863 29.4863 23.1318C29.403 24.2746 28.6872 25.3498 27.7871 26.0332C26.8366 26.7548 25.4839 27.1911 24.0069 26.7588C23.757 26.6857 23.4344 26.6074 23.0596 26.5225C23.0021 26.6285 22.9329 26.7303 22.8477 26.8232C21.1847 28.6373 18.6093 29.8657 15.9356 29.8223C13.8698 29.7887 11.3917 29.2029 9.35744 27.0029C9.29284 26.9331 9.23732 26.858 9.1885 26.7803C8.8051 26.8737 8.43009 26.9642 8.06252 27.0439L8.04201 27.0488L8.0215 27.0527C7.25423 27.1973 4.53243 27.5489 3.01564 24.9414C2.20897 23.5546 2.49304 22.0595 2.89455 20.9941C3.30583 19.903 3.96403 18.9226 4.39455 18.3105L5.19436 17.1729C4.92731 16.8093 4.71304 16.4236 4.54006 16.04C3.84104 14.4901 3.70543 12.7103 3.69143 11.6162C3.67126 10.0382 4.97188 8.92349 6.39943 8.92774H6.60549L7.03322 7.51563L7.05275 7.46484L8.45314 8.00195C7.10513 7.4848 7.05527 7.46447 7.05373 7.46289L7.05471 7.46094C7.05516 7.45975 7.05518 7.45833 7.05568 7.45703C7.05678 7.45422 7.05828 7.45059 7.05959 7.44727C7.06216 7.44076 7.06496 7.43321 7.06838 7.42481C7.07541 7.40753 7.08498 7.38621 7.09572 7.36133C7.11719 7.31162 7.14607 7.24702 7.18361 7.16992C7.25866 7.01581 7.36781 6.80993 7.5176 6.57031C7.81669 6.09189 8.28269 5.47013 8.96682 4.85547C10.3622 3.60181 12.5817 2.45543 15.9033 2.50098ZM16.2276 25.6553C15.0207 25.6435 13.8721 25.7747 12.7783 25.9697C13.7986 26.5926 14.9055 26.8047 15.9844 26.8223C17.1546 26.8413 18.3273 26.4785 19.3125 25.875C18.2514 25.7434 17.176 25.6553 16.2422 25.6553H16.2276ZM15.835 14.9248C15.7724 15.0249 15.6996 15.1622 15.585 15.3945C15.4709 15.6258 15.3174 15.9419 15.127 16.2627C14.728 16.9349 14.1366 17.6847 13.1387 18.2529C12.1569 18.8119 10.9028 19.1264 9.28127 19.1553C8.68611 19.1659 8.13312 19.0881 7.626 18.9316L6.84865 20.0371C6.43739 20.6218 5.9706 21.3398 5.70217 22.0518C5.42402 22.7897 5.47443 23.2033 5.60842 23.4336C5.86735 23.8786 6.17925 24.0366 6.48244 24.1074C6.82837 24.1882 7.19168 24.1528 7.44631 24.1064C9.44234 23.6712 12.7283 22.624 16.2422 22.6553H16.2559C19.2059 22.6575 23.2114 23.4004 24.8496 23.8799C25.2513 23.9974 25.6353 23.9004 25.9737 23.6436C26.3619 23.3487 26.4877 23.0007 26.4942 22.9141C26.5636 21.9628 26.0038 20.9721 25.2715 19.9502L24.4756 18.8398C23.9794 18.9973 23.4378 19.0837 22.8535 19.0918C21.2624 19.1139 20.0248 18.8392 19.0537 18.2871C18.0644 17.7246 17.5032 16.96 17.1309 16.2969C16.9564 15.9861 16.8074 15.6656 16.7022 15.4492C16.5829 15.2038 16.5084 15.0657 16.4424 14.9707C16.4291 14.9516 16.4166 14.9381 16.4082 14.9277L16.3692 14.9248H15.835ZM6.70119 11.9277C6.73842 12.841 6.88425 13.9414 7.27443 14.8066C7.48771 15.2795 7.74285 15.6117 8.02541 15.8213C8.28735 16.0155 8.65336 16.1665 9.22756 16.1563C10.4961 16.1337 11.2226 15.8914 11.6543 15.6455C12.0697 15.4089 12.3249 15.1055 12.5469 14.7314C12.667 14.529 12.768 14.3228 12.8946 14.0664C13.0082 13.8362 13.1621 13.5246 13.3506 13.2393C13.5461 12.9434 13.8303 12.5945 14.2549 12.3281C14.5753 12.1271 14.9246 12.0055 15.292 11.9541C11.8844 11.9437 8.55096 11.9333 6.70119 11.9277ZM16.8477 11.958C17.234 12.0131 17.5999 12.1356 17.9365 12.335C18.3782 12.5966 18.6846 12.9412 18.9053 13.2588C19.1171 13.5637 19.2789 13.8898 19.3994 14.1377C19.534 14.4146 19.6289 14.6176 19.7471 14.8281C19.9606 15.2084 20.1824 15.4785 20.5362 15.6797C20.9084 15.8913 21.5756 16.11 22.8125 16.0928C23.4484 16.0838 23.8272 15.9121 24.0752 15.7197C24.339 15.5149 24.5642 15.1998 24.7383 14.751C25.0623 13.9157 25.1187 12.8559 25.0821 11.9834C23.3429 11.9784 20.162 11.9681 16.8477 11.958ZM15.8623 5.50098C13.3205 5.46611 11.8251 6.32018 10.9717 7.08692C10.5316 7.48236 10.2393 7.87592 10.0615 8.16016C9.97299 8.3018 9.91434 8.41468 9.88088 8.4834C9.87467 8.49615 9.86872 8.50705 9.86428 8.5166L9.73732 8.9375C13.403 8.94868 18.5385 8.96378 22.1475 8.97461L21.9307 8.46289L21.9278 8.45606C21.9228 8.4458 21.9145 8.42952 21.9033 8.4082C21.8717 8.3476 21.815 8.24583 21.7285 8.11621C21.5548 7.85587 21.2649 7.48705 20.8233 7.11035C19.9627 6.37627 18.4413 5.53637 15.8623 5.50098ZM21.9326 8.46777V8.46582C21.9322 8.46496 21.9312 8.46407 21.9307 8.46289C21.9316 8.46504 21.9322 8.4667 21.9326 8.46777Z" />
<path d="M13.7236 18.8091C14.0461 18.361 14.6708 18.2592 15.1191 18.5816C15.567 18.9042 15.669 19.5289 15.3466 19.9771L14.6904 20.8891L14.6259 20.9692C14.3123 21.3229 13.7906 21.4081 13.3808 21.1723L13.2949 21.1167C12.8747 20.8143 12.7588 20.2463 13.0117 19.8071L13.0673 19.7212L13.7236 18.8091ZM16.7109 18.5816C17.1592 18.2592 17.7839 18.3609 18.1064 18.8091L18.7626 19.7212C19.0848 20.1694 18.9829 20.7941 18.5351 21.1167L18.4492 21.1723C18.0391 21.4084 17.5158 21.3233 17.2021 20.9692L17.1386 20.8891L16.4824 19.9771C16.1801 19.5567 16.2512 18.981 16.6308 18.6451L16.7109 18.5816Z" />
</svg>
