<svg width="268" height="281" viewBox="0 0 268 281" fill="none" xmlns="http://www.w3.org/2000/svg">
<path d="M138.93 26.2C200.595 26.2003 250.66 76.2661 250.66 137.93V246.92C250.66 252.444 246.185 256.92 240.66 256.92H37.2C31.6754 256.92 27.2 252.444 27.2 246.92V137.93L27.2088 136.487C27.9825 75.4863 77.7476 26.2 138.93 26.2Z" fill="#1F1B21" stroke="#A697FC" stroke-width="4"/>
<path d="M41.44 171.43H41.86C41.99 171.43 42.11 171.44 42.22 171.46C43.15 171.58 44 171.88 44.77 172.37C45.54 172.86 46.2 173.48 46.74 174.21C47.28 174.94 47.67 175.76 47.91 176.65C48.15 177.54 48.2 178.45 48.04 179.38C48.31 179.36 48.58 179.35 48.84 179.35H49.97C50.46 179.35 51.13 179.35 51.96 179.34C52.79 179.33 53.91 179.31 55.32 179.27H55.35C55.35 179.27 55.35 179.3 55.36 179.31C55.36 179.32 55.37 179.33 55.37 179.35C55.45 179.62 55.5 179.96 55.53 180.38C55.56 180.8 55.58 181.23 55.59 181.68C55.59 182.13 55.59 182.58 55.58 183.03C55.56 183.47 55.53 183.86 55.49 184.19C54.08 184.25 52.55 184.28 50.89 184.28H45.8C44.06 184.28 42.31 184.28 40.55 184.29C38.79 184.29 37.11 184.33 35.5 184.39C35.29 183.6 35.13 182.73 35.04 181.79C34.94 180.85 34.93 179.91 35.01 178.98C35.09 178.04 35.26 177.13 35.52 176.24C35.78 175.35 36.17 174.56 36.68 173.88C37.19 173.19 37.84 172.63 38.61 172.18C39.38 171.74 40.32 171.48 41.42 171.43H41.44ZM40.22 176.51C39.83 176.99 39.59 177.55 39.48 178.19C39.37 178.83 39.4 179.46 39.55 180.07C39.55 180.11 39.55 180.14 39.58 180.16C39.93 180.14 40.29 180.14 40.68 180.15C41.07 180.16 41.45 180.15 41.84 180.15C42.23 180.15 42.6 180.12 42.96 180.09C43.32 180.06 43.64 180 43.93 179.9V179.81C43.91 179.5 43.9 179.17 43.89 178.82C43.89 178.47 43.86 178.13 43.82 177.79C43.78 177.45 43.71 177.12 43.6 176.8C43.49 176.48 43.32 176.21 43.09 175.97C42.88 175.82 42.64 175.7 42.37 175.64C42.1 175.57 41.83 175.56 41.56 175.61C41.29 175.66 41.04 175.76 40.81 175.9C40.58 176.04 40.39 176.24 40.23 176.49L40.22 176.51Z" fill="#A697FC"/>
<path d="M36.28 155.81C38.76 155.69 41.25 155.66 43.78 155.69C46.3 155.73 48.81 155.88 51.31 156.15C52.59 156.3 53.67 156.79 54.56 157.6C55.45 158.41 55.96 159.51 56.1 160.91C56.18 161.72 56.14 162.56 56 163.43C55.85 164.3 55.59 165.09 55.22 165.79C54.84 166.5 54.34 167.09 53.71 167.56C53.08 168.03 52.32 168.29 51.43 168.33C48.88 168.33 46.31 168.3 43.72 168.24C41.13 168.18 38.56 168.17 36.01 168.21L35.98 168.24V168.21C35.98 167.92 35.98 167.6 35.95 167.24C35.93 166.88 35.92 166.52 35.92 166.15C35.92 165.78 35.93 165.42 35.96 165.08C35.99 164.73 36.04 164.41 36.12 164.12H36.15C40.83 164.33 45.57 164.25 50.39 163.86C50.85 163.73 51.19 163.48 51.4 163.12C51.61 162.76 51.71 162.39 51.69 162C51.67 161.61 51.54 161.26 51.28 160.93C51.03 160.6 50.68 160.39 50.24 160.29C47.92 160.19 45.56 160.14 43.16 160.13C40.76 160.13 38.44 160.09 36.2 160.03C36.18 159.78 36.15 159.46 36.1 159.06C36.05 158.66 36.02 158.26 36 157.86C35.98 157.45 36 157.07 36.03 156.7C36.07 156.33 36.16 156.03 36.29 155.8L36.28 155.81Z" fill="#A697FC"/>
<path d="M53.04 139.91C53.74 139.87 54.26 139.85 54.62 139.85C54.98 139.85 55.24 139.87 55.4 139.92C55.56 139.97 55.65 140.05 55.66 140.17C55.66 140.29 55.67 140.45 55.67 140.66C55.65 140.87 55.65 141.15 55.67 141.49C55.69 141.83 55.71 142.4 55.73 143.2C55.75 144 55.76 145.1 55.76 146.51C55.76 147.92 55.74 149.78 55.7 152.12H55.18C53.73 152.06 52.42 152.01 51.25 151.97C50.08 151.93 48.99 151.91 47.97 151.9C46.95 151.9 45.97 151.89 45.03 151.89C44.09 151.89 43.12 151.89 42.13 151.92C41.14 151.94 40.1 151.96 38.98 151.98C37.87 152 36.64 152.02 35.28 152.04C35.2 151.85 35.14 151.55 35.09 151.14C35.04 150.73 35.02 150.3 35.02 149.83C35.02 149.36 35.05 148.91 35.11 148.47C35.17 148.03 35.25 147.67 35.37 147.4C36.63 147.44 37.92 147.45 39.24 147.44C40.56 147.44 41.89 147.42 43.23 147.4C44.56 147.38 45.89 147.37 47.22 147.36C48.55 147.35 49.83 147.36 51.06 147.37H51.09C51.05 147.23 51.04 146.98 51.05 146.6C51.06 146.22 51.08 145.78 51.09 145.28C51.11 144.78 51.13 144.24 51.16 143.67C51.19 143.1 51.21 142.56 51.23 142.05C51.25 141.54 51.26 141.08 51.27 140.69C51.27 140.29 51.27 140.02 51.26 139.86C51.47 139.86 51.69 139.86 51.9 139.89C52.09 139.91 52.29 139.92 52.49 139.93C52.69 139.94 52.87 139.93 53.03 139.92L53.04 139.91Z" fill="#A697FC"/>
<path d="M37.69 122.76C40.16 122.93 42.65 123.18 45.15 123.51C47.65 123.84 50.13 124.28 52.57 124.84C53.82 125.14 54.84 125.75 55.63 126.66C56.42 127.57 56.8 128.72 56.77 130.12C56.75 130.94 56.62 131.77 56.38 132.61C56.13 133.46 55.78 134.21 55.33 134.87C54.87 135.53 54.31 136.06 53.63 136.45C52.95 136.85 52.17 137.01 51.28 136.95C48.74 136.66 46.19 136.33 43.63 135.97C41.07 135.61 38.51 135.31 35.97 135.05L35.94 135.08V135.05C35.98 134.76 36.01 134.44 36.03 134.08C36.05 133.72 36.08 133.36 36.13 133C36.17 132.64 36.23 132.28 36.3 131.94C36.37 131.6 36.46 131.29 36.57 131.01H36.6C41.22 131.77 45.95 132.23 50.77 132.4C51.25 132.32 51.61 132.11 51.86 131.78C52.11 131.45 52.25 131.09 52.28 130.7C52.31 130.31 52.21 129.94 52 129.59C51.79 129.23 51.47 128.98 51.04 128.84C48.75 128.48 46.41 128.15 44.03 127.86C41.65 127.57 39.35 127.27 37.13 126.95C37.14 126.7 37.14 126.37 37.14 125.97C37.14 125.57 37.15 125.17 37.18 124.76C37.21 124.35 37.26 123.97 37.34 123.61C37.42 123.25 37.54 122.96 37.7 122.75L37.69 122.76Z" fill="#A697FC"/>
<path d="M52.36 107.82L61.17 110.64C61.05 110.91 60.93 111.2 60.83 111.54C60.73 111.87 60.62 112.2 60.52 112.54C60.42 112.87 60.32 113.19 60.24 113.5C60.16 113.81 60.08 114.07 60.01 114.29C59.21 114.08 58.34 113.84 57.41 113.56C56.48 113.28 55.54 113 54.58 112.71C53.62 112.42 52.67 112.16 51.73 111.92C50.79 111.68 49.92 111.49 49.12 111.34C49.28 111.53 49.56 111.78 49.94 112.08C50.32 112.38 50.72 112.69 51.13 112.99C51.54 113.3 51.9 113.58 52.2 113.84C52.51 114.1 52.65 114.26 52.62 114.34C52.59 114.43 52.46 114.51 52.23 114.57C52 114.63 51.72 114.67 51.38 114.7C51.05 114.73 50.69 114.76 50.32 114.78C49.95 114.81 49.61 114.82 49.3 114.83C48.99 114.83 48.64 114.85 48.23 114.86C49.92 115.55 51.66 116.14 53.45 116.64C55.24 117.14 57.01 117.6 58.76 118.02C58.67 118.64 58.51 119.3 58.27 119.99C58.03 120.69 57.82 121.33 57.64 121.92C57.63 121.96 57.59 121.98 57.53 121.98C57.45 121.98 57.27 121.94 56.99 121.87C56.71 121.8 56.28 121.69 55.72 121.52C55.15 121.35 54.41 121.13 53.49 120.84C52.57 120.55 51.42 120.2 50.06 119.76C48.7 119.33 47.07 118.82 45.19 118.22C43.31 117.63 41.12 116.93 38.61 116.14C38.61 115.88 38.65 115.59 38.73 115.27C38.81 114.95 38.9 114.63 39.02 114.3C39.14 113.97 39.24 113.64 39.36 113.31C39.47 112.98 39.57 112.66 39.65 112.34V112.31C39.9 112.2 40.23 112.12 40.66 112.07C41.09 112.02 41.54 111.99 42.01 111.97C42.48 111.95 42.93 111.94 43.36 111.92C43.79 111.9 44.14 111.85 44.41 111.77C44.48 111.73 44.53 111.68 44.54 111.63C44.58 111.58 44.43 111.44 44.09 111.2C43.75 110.96 43.37 110.7 42.92 110.41C42.47 110.12 42.04 109.81 41.61 109.49C41.18 109.17 40.89 108.89 40.72 108.65C40.78 108.53 40.85 108.29 40.94 107.94C41.03 107.59 41.12 107.22 41.23 106.81C41.33 106.41 41.45 106 41.56 105.58C41.68 105.16 41.78 104.8 41.88 104.51C43.63 105.13 45.38 105.67 47.13 106.13C48.88 106.59 50.63 107.14 52.37 107.78L52.36 107.82Z" fill="#A697FC"/>
<path d="M46.14 94.72L46.44 94.09L46.54 94.14C48.04 94.85 49.54 95.59 51.04 96.36C52.54 97.13 54.04 97.89 55.56 98.64C57.07 99.39 58.6 100.12 60.12 100.83C61.64 101.54 63.17 102.2 64.7 102.81C64.77 103.02 64.72 103.35 64.53 103.81C64.34 104.27 64.12 104.75 63.86 105.26C63.6 105.77 63.34 106.25 63.09 106.71C62.84 107.17 62.7 107.5 62.67 107.7C61.16 106.83 59.6 106.03 58 105.29C56.4 104.55 54.81 103.83 53.23 103.13C51.65 102.43 50.09 101.72 48.56 101C47.03 100.28 45.57 99.5 44.17 98.64L44.12 98.62C44.14 98.52 44.23 98.36 44.38 98.12C44.53 97.88 44.63 97.7 44.69 97.58C44.86 97.27 45.05 96.92 45.27 96.52C45.49 96.12 45.78 95.53 46.14 94.73V94.72Z" fill="#A697FC"/>
<path d="M60.52 80.54C60.52 80.6 60.55 80.66 60.6 80.74C60.65 80.82 60.68 80.88 60.7 80.91C60.72 80.98 60.97 81.21 61.43 81.62C61.9 82.03 62.46 82.5 63.11 83.05C63.76 83.6 64.45 84.15 65.17 84.72C65.89 85.29 66.53 85.77 67.1 86.14C67.58 86.44 68.1 86.67 68.66 86.81C69.23 86.95 69.74 86.85 70.21 86.51C70.5 86.2 70.71 85.85 70.81 85.45C70.92 85.05 70.88 84.66 70.7 84.27C70.49 83.83 70.17 83.46 69.77 83.18C69.37 82.9 69.01 82.57 68.69 82.19C68.89 82 69.09 81.77 69.28 81.49C69.48 81.21 69.68 80.94 69.9 80.67C70.12 80.4 70.34 80.14 70.56 79.88C70.79 79.63 71.01 79.42 71.24 79.26C72.23 79.63 73.07 80.18 73.75 80.92C74.43 81.66 74.92 82.48 75.22 83.38C75.52 84.28 75.6 85.22 75.48 86.2C75.36 87.18 74.97 88.09 74.33 88.93C73.97 89.53 73.53 90.1 73.01 90.62C72.48 91.14 71.91 91.56 71.27 91.87C70.64 92.18 69.98 92.34 69.28 92.34C68.59 92.34 67.9 92.12 67.21 91.68C66.64 91.28 66.06 90.85 65.45 90.39C64.85 89.94 64.18 89.42 63.44 88.84C62.7 88.26 61.87 87.6 60.94 86.85C60.02 86.1 58.95 85.23 57.73 84.24C57.45 84.07 57.2 83.85 56.97 83.58C56.75 83.32 56.56 83.05 56.4 82.78C56.12 82.33 55.89 81.87 55.72 81.4C55.55 80.93 55.45 80.45 55.42 79.96C55.43 79.7 55.47 79.43 55.55 79.17C55.62 78.91 55.71 78.65 55.82 78.39C56.15 77.51 56.6 76.75 57.19 76.11C57.78 75.46 58.44 74.95 59.18 74.56C59.92 74.17 60.7 73.91 61.53 73.78C62.35 73.65 63.16 73.66 63.96 73.82C64.76 73.98 65.51 74.3 66.22 74.77C66.93 75.24 67.54 75.87 68.05 76.67C67.73 77.33 67.33 77.91 66.87 78.41C66.41 78.92 65.89 79.42 65.33 79.91C65.01 79.73 64.66 79.49 64.29 79.21C63.92 78.93 63.55 78.7 63.18 78.53C62.81 78.36 62.44 78.3 62.09 78.34C61.73 78.39 61.38 78.64 61.05 79.09C60.92 79.31 60.8 79.55 60.67 79.8C60.54 80.05 60.49 80.29 60.51 80.51L60.52 80.54Z" fill="#A697FC"/>
<path d="M86.83 72.35C87.32 72.84 87.69 73.23 87.92 73.49C88.16 73.76 88.31 73.97 88.39 74.12C88.47 74.27 88.46 74.39 88.38 74.48C88.3 74.57 88.18 74.68 88.02 74.82C87.85 74.95 87.64 75.13 87.4 75.37C87.16 75.61 86.75 76 86.16 76.55C85.57 77.1 84.75 77.84 83.71 78.77C82.67 79.7 81.25 80.93 79.48 82.45L79.13 82.06C78.21 80.94 77.38 79.93 76.63 79.03C75.88 78.13 75.17 77.3 74.51 76.53C73.84 75.76 73.2 75.03 72.57 74.32C71.94 73.61 71.29 72.9 70.62 72.17C69.95 71.45 69.24 70.67 68.49 69.86C67.74 69.04 66.9 68.13 65.99 67.13C66.08 66.94 66.27 66.7 66.54 66.39C66.81 66.08 67.12 65.78 67.47 65.47C67.82 65.16 68.18 64.88 68.55 64.63C68.92 64.38 69.25 64.21 69.53 64.11C70.34 65.08 71.18 66.05 72.07 67.03C72.96 68.01 73.85 69 74.75 69.98C75.65 70.96 76.54 71.95 77.43 72.93C78.32 73.91 79.16 74.87 79.97 75.81L79.99 75.83C80.07 75.71 80.25 75.53 80.53 75.29C80.82 75.05 81.16 74.77 81.55 74.45C81.94 74.13 82.36 73.79 82.8 73.44C83.25 73.08 83.67 72.74 84.06 72.42C84.46 72.09 84.81 71.8 85.11 71.55C85.41 71.29 85.62 71.11 85.72 70.99C85.86 71.15 86 71.31 86.12 71.49C86.23 71.65 86.35 71.81 86.48 71.96C86.61 72.12 86.73 72.25 86.85 72.35H86.83Z" fill="#A697FC"/>
<path d="M91.29 52.36C91.56 52.54 91.8 52.74 92.01 52.95C92.22 53.17 92.43 53.4 92.62 53.64C92.91 54.03 93.18 54.43 93.43 54.83C93.69 55.23 93.93 55.64 94.17 56.06C94.66 56.96 95.16 57.82 95.68 58.64C96.2 59.45 96.69 60.31 97.15 61.21L97.58 62.07C97.9 62.67 98.17 63.3 98.38 63.98C98.59 64.66 98.69 65.32 98.69 65.98C98.65 66.55 98.48 67.09 98.17 67.61C97.86 68.13 97.5 68.61 97.07 69.05C96.69 69.46 96.27 69.83 95.82 70.15C95.37 70.47 94.9 70.76 94.4 71.02C94.03 71.2 93.67 71.36 93.32 71.5C92.96 71.64 92.6 71.73 92.23 71.78C91.86 71.83 91.5 71.82 91.14 71.75C90.78 71.69 90.43 71.53 90.08 71.3C89.6 71.03 89.17 70.68 88.81 70.26C88.45 69.84 88.11 69.39 87.8 68.92C86.96 67.67 86.12 66.41 85.27 65.15C84.42 63.89 83.63 62.59 82.92 61.23C82.48 60.48 82.12 59.68 81.83 58.82C81.54 57.96 81.48 57.09 81.63 56.2C81.69 55.93 81.79 55.67 81.92 55.41C82.3 54.81 82.77 54.26 83.33 53.74C83.89 53.23 84.5 52.79 85.15 52.44C85.8 52.08 86.49 51.82 87.21 51.64C87.93 51.46 88.64 51.41 89.34 51.47C90.08 51.61 90.73 51.9 91.28 52.36H91.29ZM92.35 60.01L91.27 58.36C91.27 58.36 91.14 58.18 90.92 57.88C90.7 57.57 90.49 57.29 90.3 57.02C89.98 56.58 89.6 56.24 89.14 55.99C88.69 55.75 88.21 55.65 87.72 55.7C87.31 55.77 86.96 55.95 86.66 56.25C86.37 56.54 86.15 56.87 86 57.23C85.7 58.03 85.66 58.83 85.88 59.65C86.13 60.36 86.46 61.06 86.86 61.77C87.26 62.48 87.69 63.17 88.15 63.84C88.59 64.37 89.01 64.92 89.41 65.5C89.81 66.08 90.26 66.59 90.76 67.04C91.13 67.27 91.52 67.38 91.95 67.37C92.37 67.36 92.78 67.25 93.15 67.06C93.53 66.86 93.86 66.59 94.15 66.24C94.44 65.89 94.62 65.51 94.69 65.07C94.72 64.78 94.73 64.55 94.72 64.39C94.71 64.23 94.67 64.06 94.59 63.91C94.52 63.75 94.41 63.57 94.28 63.37C94.15 63.17 93.99 62.89 93.81 62.52C93.62 62.18 93.46 61.88 93.32 61.63C93.18 61.38 93.09 61.24 93.07 61.2L92.34 60.01H92.35Z" fill="#A697FC"/>
<path d="M107.73 42.94C108.73 45.21 109.67 47.52 110.54 49.89C111.42 52.26 112.18 54.65 112.83 57.08C113.15 58.33 113.09 59.51 112.65 60.63C112.21 61.75 111.37 62.63 110.12 63.26C109.39 63.63 108.59 63.9 107.73 64.08C106.87 64.26 106.04 64.3 105.24 64.2C104.45 64.1 103.71 63.85 103.05 63.43C102.38 63.02 101.87 62.4 101.51 61.58C100.59 59.2 99.69 56.79 98.81 54.35C97.93 51.91 97.01 49.51 96.05 47.15L96.01 47.13H96.04C96.31 47.01 96.61 46.89 96.94 46.74C97.27 46.59 97.6 46.45 97.94 46.32C98.28 46.19 98.62 46.07 98.96 45.97C99.3 45.87 99.61 45.81 99.91 45.77V45.8C101.41 50.24 103.21 54.63 105.31 58.98C105.6 59.36 105.96 59.59 106.37 59.66C106.78 59.73 107.16 59.68 107.52 59.53C107.87 59.37 108.16 59.12 108.37 58.76C108.59 58.41 108.66 58.01 108.59 57.56C107.84 55.36 107.04 53.14 106.18 50.9C105.32 48.66 104.52 46.49 103.76 44.37C103.99 44.26 104.28 44.11 104.63 43.92C104.98 43.73 105.34 43.56 105.71 43.39C106.08 43.23 106.45 43.1 106.8 43C107.16 42.9 107.47 42.88 107.73 42.92V42.94Z" fill="#A697FC"/>
<path d="M124.29 40.77C124.83 41.34 125.3 41.94 125.71 42.58C126.12 43.22 126.48 43.91 126.79 44.63C126.94 44.92 127.06 45.2 127.15 45.49C127.23 45.78 127.32 46.07 127.39 46.37C127.52 47.27 127.66 48.17 127.8 49.08C127.94 49.99 128.01 50.89 128.01 51.8C128.01 51.82 128.01 51.83 128.01 51.83C128.01 51.83 128 51.84 128.01 51.86C127.84 53.05 127.53 54.21 127.06 55.35C126.59 56.49 126.09 57.56 125.54 58.59C124.29 58.87 123.04 59.13 121.76 59.38C120.49 59.63 119.26 59.87 118.06 60.1L118.04 60.13C117.55 58.67 117.12 57.14 116.76 55.55C116.4 53.96 116.06 52.33 115.75 50.68C115.44 49.03 115.13 47.36 114.84 45.67C114.55 43.98 114.23 42.32 113.88 40.67C113.9 40.65 113.91 40.63 113.91 40.61C113.91 40.59 113.93 40.57 113.94 40.55C114.45 40.32 114.98 40.12 115.56 39.96C116.13 39.8 116.71 39.67 117.3 39.57C117.89 39.47 118.48 39.37 119.06 39.28C119.64 39.19 120.21 39.08 120.76 38.96C121.4 39 122.04 39.18 122.68 39.52C123.32 39.86 123.87 40.27 124.32 40.76L124.29 40.77ZM123.63 51.61C123.86 51.05 123.99 50.47 124.02 49.85C124.05 49.23 123.92 48.59 123.64 47.92C123.53 47.65 123.41 47.36 123.27 47.06C123.13 46.76 122.97 46.48 122.77 46.22C122.57 45.96 122.35 45.74 122.1 45.57C121.85 45.39 121.55 45.28 121.21 45.22C120.88 45.24 120.52 45.29 120.14 45.35C119.76 45.41 119.4 45.51 119.08 45.66H119.02L118.99 45.68L119.01 45.79C119.14 46.3 119.27 46.84 119.38 47.43C119.49 48.02 119.6 48.63 119.7 49.27C119.8 49.91 119.91 50.56 120.04 51.21C120.16 51.87 120.31 52.51 120.47 53.15C120.71 53.3 121.02 53.33 121.39 53.24C121.76 53.15 122.11 53.05 122.44 52.95C122.54 52.95 122.62 52.92 122.69 52.86C122.76 52.8 122.83 52.74 122.92 52.68C123.09 52.53 123.23 52.36 123.34 52.17C123.45 51.98 123.55 51.79 123.63 51.6V51.61Z" fill="#A697FC"/>
<path d="M152.49 38.2L152.52 38.23C151.99 41.55 151.43 44.85 150.84 48.14C150.25 51.43 149.7 54.75 149.19 58.08C149.05 58.11 148.9 58.12 148.74 58.11C148.58 58.1 148.4 58.09 148.2 58.07L147.16 58L146.81 57.98C146.65 57.74 146.53 57.39 146.43 56.95C146.34 56.51 146.24 56.03 146.14 55.53C146.04 55.03 145.94 54.54 145.84 54.07C145.74 53.6 145.61 53.22 145.46 52.94H145.43C145.24 53.1 145.07 53.39 144.92 53.82C144.77 54.25 144.61 54.7 144.46 55.18C144.31 55.66 144.16 56.13 144.01 56.59C143.86 57.05 143.7 57.39 143.53 57.63C143.28 57.65 143.04 57.67 142.83 57.68C142.62 57.69 142.37 57.69 142.1 57.68C141.79 57.66 141.43 57.6 141.01 57.51H140.98C140.75 54.18 140.54 50.83 140.33 47.46C140.12 44.09 140.11 40.74 140.29 37.4V37.37C140.58 37.35 140.89 37.34 141.21 37.33C141.53 37.33 141.85 37.33 142.18 37.36C142.57 37.39 142.95 37.42 143.34 37.47C143.72 37.52 144.09 37.56 144.43 37.61C144.45 38.46 144.42 39.42 144.34 40.48C144.26 41.54 144.19 42.61 144.11 43.69C144.03 44.77 143.99 45.83 143.97 46.88C143.95 47.93 144.02 48.87 144.17 49.71C144.48 48.86 144.77 48.02 145.03 47.2C145.29 46.38 145.56 45.54 145.83 44.68C145.85 44.64 145.86 44.61 145.87 44.6C145.87 44.58 145.88 44.56 145.9 44.54C145.97 44.6 146.06 44.89 146.17 45.39C146.28 45.89 146.38 46.46 146.49 47.08C146.59 47.71 146.69 48.33 146.79 48.93C146.89 49.54 146.99 49.99 147.08 50.29C147.22 49.47 147.34 48.52 147.46 47.45C147.58 46.38 147.69 45.29 147.79 44.17C147.9 43.05 148.01 41.96 148.11 40.89C148.22 39.82 148.34 38.87 148.47 38.02V37.99C148.8 37.94 149.15 37.91 149.49 37.92C149.84 37.92 150.19 37.94 150.53 37.97C151.19 38.02 151.83 38.09 152.46 38.2H152.49Z" fill="#A697FC"/>
<path d="M164.54 50.99L164.33 61.37V61.4C163.73 61.38 163.1 61.28 162.43 61.09C161.76 60.9 161.14 60.67 160.57 60.4H160.54C160.5 60.07 160.47 59.68 160.47 59.24C160.47 58.8 160.47 58.35 160.46 57.9C160.46 57.44 160.45 57 160.43 56.58C160.41 56.16 160.37 55.79 160.3 55.48C160.06 55.38 159.88 55.32 159.75 55.29C159.62 55.26 159.5 55.23 159.4 55.21C159.3 55.19 159.18 55.16 159.06 55.14C158.94 55.12 158.77 55.09 158.56 55.04C158.36 55.31 158.17 55.64 157.99 56.02C157.81 56.4 157.63 56.81 157.44 57.23C157.25 57.65 157.06 58.06 156.87 58.45C156.68 58.84 156.46 59.18 156.22 59.46C156.2 59.46 156.18 59.46 156.17 59.46C156.16 59.46 156.14 59.46 156.12 59.46C155.96 59.46 155.58 59.37 154.99 59.19C154.4 59.01 153.46 58.78 152.17 58.5C152.15 58.5 152.13 58.48 152.12 58.46C152.19 58.34 152.34 57.99 152.58 57.41C152.82 56.83 153.13 56.08 153.53 55.16C153.93 54.24 154.39 53.18 154.92 51.99C155.45 50.79 156.04 49.53 156.69 48.19C157.34 46.85 158.04 45.47 158.77 44.03C159.51 42.59 160.28 41.18 161.08 39.78C161.22 39.79 161.36 39.82 161.51 39.85C161.66 39.88 161.86 39.93 162.1 39.99C162.34 40.05 162.66 40.12 163.05 40.2C163.44 40.28 163.95 40.37 164.58 40.46C164.58 40.72 164.58 41.11 164.58 41.64C164.58 42.17 164.58 42.76 164.58 43.43C164.58 44.09 164.56 44.8 164.56 45.55C164.56 46.3 164.54 47.03 164.54 47.72C164.54 48.41 164.54 49.05 164.54 49.63C164.54 50.21 164.54 50.66 164.54 51V50.99ZM161.22 52.14C161.41 50.48 161.55 49.18 161.62 48.24C161.69 47.3 161.71 46.66 161.69 46.32C161.66 45.98 161.57 45.88 161.43 46.04C161.28 46.19 161.1 46.53 160.89 47.06C160.68 47.59 160.42 48.25 160.12 49.05C159.82 49.85 159.49 50.72 159.14 51.65C159.45 51.74 159.79 51.83 160.15 51.9C160.51 51.97 160.87 52.05 161.23 52.14H161.22Z" fill="#A697FC"/>
<path d="M183.17 47.27C182.97 47.88 182.71 48.56 182.39 49.33C182.07 50.1 181.74 50.79 181.39 51.4C181.08 51.19 180.67 51 180.16 50.81C179.65 50.63 178.97 50.38 178.11 50.08L178.06 50.06H178.03C178.03 50.06 178.01 50.08 178 50.08C177.99 50.08 177.98 50.1 177.97 50.11C177.92 50.19 177.85 50.33 177.76 50.51C177.67 50.69 177.55 50.99 177.39 51.39C177.23 51.79 177.02 52.32 176.76 52.98C176.51 53.64 176.18 54.49 175.78 55.53C175.38 56.57 174.9 57.81 174.34 59.26C173.78 60.71 173.12 62.42 172.37 64.39V64.42L172.35 64.45C172.01 64.37 171.64 64.26 171.25 64.12C170.86 63.97 170.47 63.82 170.09 63.67C169.7 63.51 169.32 63.36 168.95 63.21C168.57 63.06 168.21 62.94 167.87 62.87C167.87 62.79 168.01 62.47 168.26 61.9C168.51 61.33 168.87 60.48 169.33 59.35C169.8 58.21 170.37 56.75 171.06 54.97C171.75 53.19 172.54 51.01 173.45 48.46L173.43 48.42C173.26 48.23 173.02 48.05 172.7 47.89C172.39 47.73 172.07 47.59 171.75 47.45C171.43 47.31 171.14 47.19 170.87 47.08C170.6 46.97 170.42 46.88 170.33 46.8C170.33 46.71 170.36 46.52 170.45 46.22C170.54 45.92 170.66 45.57 170.81 45.16C170.96 44.75 171.13 44.32 171.32 43.85C171.51 43.38 171.71 42.94 171.91 42.53C171.91 42.51 171.91 42.5 171.91 42.5C171.91 42.5 171.9 42.49 171.91 42.47C173.75 43.19 175.64 43.93 177.59 44.71C179.54 45.48 181.4 46.34 183.17 47.28V47.27Z" fill="#A697FC"/>
<path d="M189.89 56.09C189.84 56.1 189.77 56.14 189.7 56.2C189.63 56.26 189.58 56.3 189.54 56.32C189.48 56.35 189.27 56.62 188.92 57.13C188.57 57.64 188.16 58.25 187.69 58.96C187.22 59.67 186.75 60.42 186.26 61.2C185.78 61.98 185.38 62.67 185.07 63.28C184.82 63.79 184.66 64.33 184.59 64.91C184.51 65.49 184.67 65.99 185.07 66.42C185.41 66.68 185.78 66.84 186.19 66.9C186.6 66.96 186.98 66.88 187.35 66.65C187.77 66.38 188.09 66.04 188.33 65.6C188.57 65.17 188.85 64.77 189.19 64.41C189.4 64.59 189.65 64.75 189.95 64.92C190.25 65.08 190.54 65.26 190.84 65.44C191.14 65.62 191.42 65.81 191.7 66.01C191.98 66.21 192.21 66.41 192.4 66.62C192.15 67.65 191.69 68.54 191.04 69.31C190.38 70.07 189.62 70.65 188.76 71.05C187.9 71.45 186.97 71.64 185.99 71.63C185.01 71.63 184.06 71.34 183.14 70.8C182.5 70.51 181.89 70.14 181.31 69.68C180.73 69.22 180.25 68.69 179.87 68.1C179.49 67.51 179.25 66.87 179.17 66.18C179.09 65.49 179.23 64.78 179.59 64.05C179.92 63.44 180.28 62.81 180.66 62.16C181.04 61.51 181.48 60.78 181.96 59.98C182.45 59.18 183.01 58.28 183.65 57.27C184.29 56.27 185.03 55.1 185.87 53.78C186.01 53.48 186.2 53.2 186.44 52.95C186.68 52.7 186.92 52.48 187.17 52.3C187.58 51.97 188.01 51.69 188.46 51.46C188.91 51.23 189.37 51.08 189.86 51C190.12 50.98 190.39 51 190.66 51.04C190.93 51.08 191.2 51.14 191.47 51.22C192.38 51.44 193.19 51.81 193.89 52.32C194.59 52.83 195.19 53.43 195.66 54.12C196.13 54.81 196.48 55.56 196.71 56.36C196.94 57.16 197.02 57.97 196.95 58.78C196.88 59.59 196.65 60.38 196.27 61.14C195.89 61.9 195.33 62.58 194.6 63.17C193.91 62.92 193.29 62.6 192.73 62.19C192.17 61.79 191.62 61.33 191.07 60.83C191.21 60.49 191.41 60.12 191.64 59.72C191.88 59.32 192.06 58.93 192.19 58.54C192.32 58.15 192.34 57.78 192.25 57.43C192.16 57.08 191.87 56.76 191.39 56.48C191.16 56.38 190.9 56.28 190.64 56.18C190.37 56.08 190.13 56.06 189.92 56.11L189.89 56.09Z" fill="#A697FC"/>
<path d="M212.7 67.83L199.65 83.4C199.37 83.22 199.08 83.01 198.79 82.78C198.5 82.54 198.22 82.3 197.95 82.06C197.68 81.82 197.43 81.59 197.18 81.36C196.93 81.13 196.71 80.95 196.53 80.81L196.51 80.79C196.87 80.25 197.26 79.72 197.7 79.19C198.14 78.66 198.58 78.14 199.03 77.64C199.48 77.13 199.92 76.62 200.36 76.11C200.8 75.6 201.2 75.08 201.56 74.57V74.53C201.21 74.08 200.82 73.67 200.41 73.29C199.99 72.91 199.53 72.59 199.03 72.31C198.53 72.77 198.07 73.25 197.63 73.74C197.2 74.23 196.76 74.73 196.34 75.23C195.91 75.73 195.48 76.21 195.06 76.67C194.63 77.13 194.17 77.56 193.69 77.95C193.43 77.89 193.15 77.74 192.87 77.48C192.58 77.22 192.31 76.95 192.05 76.66C191.79 76.37 191.54 76.11 191.3 75.87C191.06 75.63 190.85 75.49 190.65 75.44C190.98 75.01 191.45 74.44 192.04 73.71C192.63 72.98 193.31 72.17 194.07 71.28C194.83 70.39 195.64 69.44 196.5 68.45C197.36 67.46 198.23 66.46 199.1 65.47C199.98 64.48 200.83 63.53 201.66 62.62C202.49 61.71 203.25 60.91 203.92 60.19L203.94 60.17L203.96 60.19L204 60.23C204.18 60.47 204.39 60.69 204.64 60.89C204.89 61.09 205.14 61.29 205.39 61.49C205.64 61.69 205.88 61.89 206.11 62.1C206.34 62.31 206.53 62.53 206.68 62.77C205.91 63.88 205.11 64.89 204.26 65.83C203.41 66.77 202.67 67.76 202.01 68.84L202.03 68.86C202.31 69.27 202.67 69.65 203.12 69.99C203.57 70.33 203.98 70.65 204.37 70.95L204.39 70.97C205.37 70.06 206.26 69.18 207.04 68.32C207.82 67.46 208.66 66.51 209.56 65.43C209.78 65.53 210.04 65.67 210.33 65.85C210.62 66.03 210.91 66.24 211.2 66.46C211.49 66.69 211.77 66.92 212.03 67.17C212.29 67.42 212.52 67.65 212.72 67.85L212.7 67.83Z" fill="#A697FC"/>
<path d="M219.95 76.31L220.39 76.85L220.3 76.92C219.02 77.98 217.72 79.03 216.39 80.07C215.06 81.11 213.74 82.16 212.42 83.21C211.1 84.27 209.8 85.34 208.52 86.43C207.24 87.52 206 88.63 204.79 89.75C204.57 89.73 204.29 89.54 203.96 89.18C203.62 88.82 203.28 88.41 202.93 87.96C202.58 87.51 202.25 87.07 201.94 86.65C201.63 86.23 201.39 85.96 201.22 85.85C202.65 84.84 204.03 83.77 205.37 82.63C206.71 81.49 208.03 80.35 209.33 79.21C210.63 78.07 211.93 76.95 213.22 75.86C214.51 74.77 215.84 73.78 217.2 72.87L217.24 72.83C217.32 72.89 217.43 73.04 217.59 73.27C217.75 73.5 217.87 73.67 217.95 73.78C218.16 74.06 218.4 74.38 218.66 74.75C218.93 75.12 219.35 75.63 219.92 76.29L219.95 76.31Z" fill="#A697FC"/>
<path d="M212.43 101.81C212.23 101.48 212.02 101.09 211.79 100.64C211.57 100.19 211.36 99.7901 211.15 99.4701C212.03 98.1801 212.88 96.9101 213.7 95.6701C214.52 94.4301 215.33 93.3001 216.16 92.2701L216.75 91.5701C216.89 91.3901 217.02 91.2301 217.14 91.0701C217.26 90.9101 217.31 90.8201 217.29 90.7901C217.29 90.7701 217.07 90.8701 216.66 91.0901C216.25 91.3101 215.73 91.6001 215.12 91.9501C214.5 92.3101 213.82 92.7101 213.07 93.1601C212.32 93.6101 211.6 94.0401 210.91 94.4701C210.53 94.7001 210.16 94.9301 209.81 95.1501C209.46 95.3701 209.14 95.5701 208.87 95.7601C208.71 95.6101 208.56 95.4501 208.44 95.2801C208.31 95.1101 208.19 94.9301 208.08 94.7501C207.84 94.3501 207.62 93.9401 207.42 93.5101C207.22 93.0801 207.01 92.6701 206.77 92.2901L208.5 91.2301C210.06 90.2701 211.55 89.3401 212.95 88.4401C214.35 87.5401 215.83 86.6201 217.37 85.6701C218.51 84.9701 219.64 84.3001 220.77 83.6501C221.9 83.0001 223.02 82.3901 224.12 81.8301C224.25 81.9701 224.39 82.1401 224.52 82.3201C224.65 82.5001 224.78 82.6901 224.9 82.8901C224.96 82.9901 225.06 83.1601 225.19 83.3901C225.32 83.6301 225.45 83.8701 225.57 84.1101C225.69 84.3501 225.78 84.5801 225.86 84.7701C225.94 84.9601 225.95 85.0701 225.92 85.0901C225.69 85.3901 225.51 85.6501 225.38 85.8701C225.24 86.0901 225.11 86.3001 224.99 86.5001C224.86 86.7001 224.72 86.9201 224.57 87.1701C224.41 87.4101 224.21 87.7201 223.95 88.0801C223.89 88.1601 223.78 88.3301 223.62 88.5901C223.46 88.8501 223.27 89.1401 223.06 89.4801C222.85 89.8201 222.62 90.1701 222.39 90.5401C222.15 90.9101 221.94 91.2501 221.76 91.5601C221.57 91.8701 221.42 92.1301 221.29 92.3401C221.16 92.5601 221.1 92.6701 221.11 92.6901C221.17 92.7201 221.36 92.6601 221.68 92.5101C222 92.3601 222.29 92.2001 222.57 92.0301C223.23 91.6201 223.83 91.2401 224.39 90.8601C224.94 90.4901 225.52 90.1201 226.11 89.7501C226.46 89.5401 226.81 89.3301 227.17 89.1201C227.53 88.9101 227.92 88.6901 228.34 88.4501C228.78 88.9501 229.2 89.5101 229.58 90.1401C229.95 90.7501 230.24 91.3201 230.43 91.8601L222.47 96.7501C221.79 97.1901 221.09 97.6301 220.39 98.0701C219.68 98.5101 218.97 98.9401 218.27 99.3801C217.79 99.6701 217.33 99.9501 216.88 100.22C216.43 100.49 215.97 100.76 215.51 101.04C215.18 101.24 214.85 101.45 214.53 101.66C214.21 101.87 213.88 102.08 213.55 102.28L213.06 102.58C213.06 102.58 212.95 102.5 212.85 102.4C212.75 102.3 212.61 102.12 212.44 101.84L212.43 101.81Z" fill="#A697FC"/>
<path d="M225.95 107.13C226.18 107.31 226.42 107.66 226.65 108.18C226.88 108.7 227.11 109.26 227.32 109.86C227.53 110.46 227.72 111.03 227.87 111.56C228.02 112.09 228.14 112.45 228.21 112.63L228.23 112.68L228.21 112.72C227.3 113.2 226.31 113.67 225.25 114.12C224.19 114.57 223.14 114.9 222.1 115.1C221.15 115.37 220.33 115.36 219.67 115.08C219 114.8 218.41 114.37 217.89 113.78C217.59 113.38 217.29 112.95 217.01 112.51C216.72 112.06 216.46 111.59 216.21 111.11C215.97 110.62 215.78 110.13 215.65 109.63C215.52 109.13 215.46 108.63 215.47 108.13C215.49 107.29 215.69 106.58 216.07 106C216.45 105.42 216.98 104.87 217.67 104.35C217.85 104.22 218.1 104.05 218.43 103.85C218.76 103.65 219.09 103.46 219.44 103.29C219.99 103.01 220.5 102.76 220.95 102.54C221.4 102.32 221.86 102.11 222.31 101.9C222.76 101.69 223.24 101.49 223.75 101.28C224.26 101.07 224.85 100.84 225.53 100.6C226.11 100.39 226.71 100.19 227.33 99.99C227.95 99.79 228.56 99.62 229.17 99.49C229.8 99.35 230.44 99.28 231.08 99.29C231.73 99.29 232.33 99.49 232.9 99.87C233.35 100.11 233.73 100.43 234.05 100.82C234.37 101.21 234.66 101.64 234.92 102.1C235.43 103.04 235.77 104 235.93 104.97C236.09 105.94 236.06 106.85 235.82 107.69C235.59 108.53 235.13 109.27 234.46 109.9C233.78 110.54 232.87 111.01 231.72 111.31L231.55 111.35C231.48 111.33 231.42 111.26 231.37 111.14C231.32 111.01 231.23 110.81 231.1 110.53C230.99 110.26 230.9 110.03 230.82 109.85C230.74 109.66 230.66 109.48 230.58 109.29C230.51 109.1 230.44 108.9 230.38 108.7C230.32 108.5 230.26 108.25 230.19 107.97C230.35 107.85 230.54 107.68 230.76 107.48C230.98 107.28 231.18 107.06 231.34 106.82C231.51 106.58 231.63 106.33 231.73 106.06C231.82 105.79 231.82 105.53 231.71 105.26C231.61 104.95 231.5 104.65 231.39 104.36C231.28 104.07 231.07 103.86 230.77 103.73C230.72 103.71 230.61 103.7 230.43 103.69C230.25 103.68 230.08 103.69 229.93 103.72C229.45 103.76 228.89 103.86 228.24 104.02C227.6 104.18 226.92 104.37 226.21 104.61C225.5 104.84 224.78 105.11 224.05 105.42C223.32 105.73 222.63 106.04 221.98 106.35C221.6 106.54 221.19 106.78 220.77 107.07C220.34 107.36 220.06 107.73 219.93 108.18C219.89 108.38 219.89 108.62 219.93 108.9C220 109.18 220.12 109.46 220.29 109.74C220.46 110.02 220.64 110.26 220.83 110.48C221 110.64 221.19 110.77 221.39 110.85C221.59 110.93 221.84 110.96 222.12 110.94C222.2 110.93 222.33 110.9 222.51 110.87C222.69 110.84 222.87 110.78 223.06 110.72C223.24 110.66 223.41 110.6 223.55 110.53C223.69 110.47 223.76 110.4 223.76 110.34C223.74 110.22 223.68 110.07 223.6 109.89C223.52 109.71 223.43 109.51 223.34 109.31C223.25 109.11 223.18 108.92 223.12 108.74C223.06 108.57 223.03 108.43 223.03 108.32C223.3 108.17 223.55 108.05 223.76 107.96C223.97 107.87 224.18 107.78 224.39 107.71C224.6 107.64 224.81 107.56 225.03 107.48C225.25 107.4 225.51 107.27 225.82 107.11H225.85C225.85 107.11 225.88 107.1 225.89 107.11L225.94 107.15L225.95 107.13Z" fill="#A697FC"/>
<path d="M237.18 128.92C237.18 128.92 237.07 128.86 236.98 128.84C236.89 128.82 236.83 128.8 236.78 128.79C236.72 128.76 236.38 128.76 235.76 128.79C235.14 128.83 234.41 128.88 233.56 128.95C232.71 129.02 231.83 129.1 230.92 129.2C230.01 129.3 229.22 129.41 228.55 129.54C228 129.66 227.47 129.86 226.97 130.16C226.47 130.46 226.17 130.89 226.07 131.47C226.07 131.9 226.18 132.29 226.38 132.65C226.58 133.01 226.89 133.26 227.29 133.41C227.75 133.57 228.23 133.62 228.72 133.54C229.21 133.46 229.7 133.44 230.19 133.49C230.18 133.76 230.2 134.07 230.26 134.4C230.31 134.73 230.36 135.07 230.4 135.42C230.44 135.77 230.46 136.11 230.48 136.45C230.5 136.79 230.48 137.1 230.43 137.37C229.47 137.8 228.48 137.99 227.47 137.95C226.46 137.9 225.54 137.66 224.7 137.22C223.86 136.78 223.14 136.18 222.54 135.39C221.94 134.61 221.58 133.69 221.45 132.63C221.28 131.95 221.2 131.24 221.21 130.5C221.22 129.76 221.34 129.06 221.57 128.39C221.8 127.72 222.16 127.15 222.65 126.66C223.14 126.17 223.79 125.84 224.59 125.68C225.28 125.57 226 125.46 226.74 125.36C227.49 125.26 228.33 125.16 229.26 125.05C230.19 124.94 231.25 124.83 232.43 124.71C233.61 124.59 234.98 124.46 236.54 124.32C236.86 124.25 237.2 124.23 237.54 124.26C237.88 124.29 238.21 124.35 238.51 124.43C239.03 124.55 239.51 124.72 239.96 124.93C240.41 125.14 240.82 125.42 241.18 125.75C241.36 125.95 241.51 126.16 241.64 126.4C241.77 126.64 241.89 126.89 242 127.15C242.38 128 242.59 128.87 242.62 129.74C242.65 130.61 242.54 131.44 242.29 132.24C242.03 133.03 241.66 133.77 241.17 134.44C240.68 135.11 240.09 135.67 239.41 136.11C238.73 136.55 237.97 136.86 237.13 137.02C236.29 137.19 235.41 137.16 234.5 136.95C234.27 136.26 234.14 135.56 234.12 134.88C234.1 134.2 234.12 133.48 234.17 132.73C234.53 132.63 234.94 132.56 235.4 132.5C235.86 132.44 236.28 132.34 236.67 132.2C237.06 132.06 237.36 131.85 237.58 131.56C237.8 131.27 237.87 130.85 237.79 130.3C237.73 130.05 237.65 129.79 237.56 129.52C237.47 129.25 237.34 129.04 237.17 128.91L237.18 128.92Z" fill="#A697FC"/>
<path d="M224.82 153.4C224.12 153.44 223.6 153.46 223.24 153.46C222.88 153.46 222.62 153.44 222.46 153.39C222.3 153.34 222.21 153.26 222.2 153.14C222.2 153.02 222.19 152.86 222.19 152.65C222.21 152.44 222.21 152.16 222.19 151.82C222.17 151.48 222.15 150.91 222.13 150.11C222.11 149.31 222.1 148.21 222.1 146.8C222.1 145.39 222.12 143.53 222.16 141.19H222.68C224.13 141.25 225.44 141.3 226.61 141.34C227.78 141.38 228.87 141.4 229.89 141.41C230.91 141.41 231.89 141.42 232.83 141.42C233.77 141.42 234.74 141.42 235.73 141.39C236.72 141.37 237.76 141.35 238.88 141.33C239.99 141.31 241.22 141.29 242.58 141.27C242.66 141.46 242.72 141.76 242.77 142.17C242.82 142.58 242.84 143.01 242.84 143.48C242.84 143.95 242.81 144.4 242.75 144.84C242.69 145.28 242.61 145.64 242.49 145.91C241.23 145.87 239.94 145.86 238.62 145.87C237.3 145.87 235.97 145.89 234.63 145.91C233.3 145.93 231.97 145.94 230.64 145.95C229.31 145.96 228.03 145.95 226.8 145.94H226.77C226.81 146.08 226.82 146.33 226.81 146.71C226.8 147.09 226.78 147.53 226.77 148.03C226.75 148.53 226.73 149.07 226.7 149.64C226.67 150.21 226.65 150.75 226.63 151.26C226.61 151.77 226.6 152.23 226.59 152.62C226.59 153.02 226.59 153.29 226.6 153.45C226.39 153.45 226.17 153.45 225.96 153.42C225.77 153.4 225.57 153.39 225.37 153.38C225.17 153.37 224.99 153.38 224.83 153.39L224.82 153.4Z" fill="#A697FC"/>
<path d="M241.58 168.96C239.1 169.08 236.61 169.11 234.08 169.08C231.56 169.04 229.05 168.89 226.55 168.62C225.27 168.47 224.19 167.98 223.3 167.17C222.41 166.36 221.9 165.26 221.76 163.86C221.68 163.05 221.72 162.21 221.86 161.34C222.01 160.47 222.27 159.68 222.64 158.98C223.02 158.27 223.52 157.68 224.15 157.21C224.78 156.74 225.54 156.48 226.43 156.44C228.98 156.44 231.55 156.47 234.14 156.53C236.73 156.59 239.3 156.6 241.85 156.56L241.88 156.53V156.56C241.88 156.85 241.88 157.17 241.91 157.53C241.93 157.89 241.94 158.25 241.94 158.62C241.94 158.99 241.93 159.35 241.9 159.69C241.87 160.04 241.82 160.36 241.74 160.65H241.71C237.03 160.44 232.29 160.52 227.47 160.91C227.01 161.04 226.67 161.29 226.46 161.65C226.25 162.01 226.15 162.38 226.17 162.77C226.19 163.16 226.32 163.51 226.58 163.84C226.83 164.17 227.18 164.38 227.62 164.48C229.94 164.58 232.3 164.63 234.7 164.64C237.1 164.64 239.42 164.68 241.66 164.74C241.68 164.99 241.71 165.31 241.76 165.71C241.81 166.11 241.84 166.51 241.86 166.91C241.88 167.32 241.86 167.7 241.83 168.07C241.79 168.44 241.7 168.74 241.57 168.97L241.58 168.96Z" fill="#A697FC"/>
<path d="M231.78 183.06C231.39 183.37 231.01 183.66 230.63 183.94C230.25 184.22 229.86 184.46 229.44 184.67C229.02 184.87 228.56 185.01 228.06 185.09C227.56 185.17 227 185.15 226.38 185.03C225.47 184.88 224.73 184.58 224.16 184.15C223.59 183.72 223.15 183.19 222.84 182.57C222.53 181.95 222.32 181.27 222.22 180.51C222.11 179.76 222.06 178.98 222.05 178.18C222.05 177.38 222.06 176.58 222.12 175.77C222.18 174.97 222.22 174.22 222.24 173.52V173.19C222.24 173.08 222.26 172.98 222.3 172.89C225.64 172.77 228.97 172.74 232.26 172.8C235.55 172.86 238.89 172.86 242.25 172.8L242.28 172.83C242.49 173.6 242.66 174.43 242.77 175.3C242.88 176.17 242.92 177.03 242.89 177.88C242.85 178.73 242.73 179.55 242.51 180.33C242.3 181.11 241.95 181.8 241.48 182.4C241.01 183 240.4 183.47 239.65 183.82C238.9 184.17 237.99 184.34 236.91 184.34C236.1 184.34 235.3 184.2 234.53 183.92C233.76 183.64 233.04 183.31 232.38 182.92C232.24 182.84 232.14 182.82 232.06 182.86C231.98 182.9 231.89 182.97 231.77 183.06H231.78ZM226.96 180.34C227.25 180.55 227.6 180.65 228 180.64C228.41 180.63 228.77 180.56 229.1 180.42C229.33 180.3 229.54 180.13 229.72 179.9C229.9 179.67 230.02 179.43 230.08 179.17C230.18 178.8 230.23 178.43 230.24 178.04C230.25 177.65 230.27 177.28 230.31 176.91C230.02 176.83 229.69 176.76 229.32 176.71C228.95 176.66 228.58 176.62 228.2 176.61C227.82 176.6 227.46 176.62 227.11 176.68C226.76 176.74 226.47 176.84 226.24 177L226.21 177.06C226.21 177.33 226.21 177.62 226.2 177.92C226.19 178.22 226.2 178.52 226.23 178.82C226.26 179.12 226.33 179.4 226.43 179.66C226.54 179.92 226.71 180.15 226.94 180.34H226.96ZM235.23 180.31C235.46 180.44 235.73 180.56 236.04 180.66C236.35 180.76 236.66 180.73 236.97 180.57C237.28 180.42 237.52 180.22 237.68 179.98C237.84 179.74 237.96 179.46 238.04 179.15C238.12 178.76 238.16 178.35 238.17 177.92C238.18 177.49 238.11 177.12 237.95 176.83C237.5 176.87 236.96 176.85 236.33 176.79C235.69 176.72 235.03 176.78 234.36 176.95C234.32 177.24 234.29 177.55 234.27 177.88C234.25 178.21 234.27 178.53 234.3 178.84C234.34 179.15 234.43 179.43 234.58 179.7C234.73 179.96 234.94 180.17 235.23 180.32V180.31Z" fill="#A697FC"/>
<mask id="mask0_253_153" style="mask-type:luminance" maskUnits="userSpaceOnUse" x="59" y="63" width="160" height="218">
<path d="M138.93 63.57C182.59 63.57 218.03 99.01 218.03 142.67V280.92H59.83V142.67C59.83 99.01 95.27 63.57 138.93 63.57Z" fill="white"/>
</mask>
<g mask="url(#mask0_253_153)">
<path d="M173.59 219.41H311.17" stroke="#A697FC" stroke-width="4" stroke-linejoin="bevel"/>
<path d="M162.12 213.63L253.84 152.94" stroke="#A697FC" stroke-width="4" stroke-linejoin="bevel"/>
<path d="M156.38 210.73L225.17 114.71" stroke="#A697FC" stroke-width="4" stroke-linejoin="bevel"/>
<path d="M150.65 207.84L196.51 76.47" stroke="#A697FC" stroke-width="4" stroke-linejoin="bevel"/>
<path d="M145.3 201.97L167.84 38.24" stroke="#A697FC" stroke-width="4" stroke-linejoin="bevel"/>
<path d="M139.18 202.06V0" stroke="#A697FC" stroke-width="4" stroke-linejoin="bevel"/>
<path d="M133.3 204.74L108.82 38.03" stroke="#A697FC" stroke-width="4" stroke-linejoin="bevel"/>
<path d="M127.43 207.67L78.45 76.3" stroke="#A697FC" stroke-width="4" stroke-linejoin="bevel"/>
<path d="M121.56 210.61L48.09 114.58" stroke="#A697FC" stroke-width="4" stroke-linejoin="bevel"/>
<path d="M115.68 213.54L17.73 152.86" stroke="#A697FC" stroke-width="4" stroke-linejoin="bevel"/>
<path d="M103.93 219.41H-43" stroke="#A697FC" stroke-width="4" stroke-linejoin="bevel"/>
</g>
<path d="M29.2 219.24H100.45" stroke="#A697FC" stroke-width="4" stroke-linejoin="bevel"/>
<path d="M176.39 219.24H248.66" stroke="#A697FC" stroke-width="4" stroke-linejoin="bevel"/>
<path d="M130.93 153.72C122.98 153.72 116.75 147.49 116.75 139.54C116.75 131.59 122.98 125.36 130.93 125.36C131.29 125.36 131.63 125.36 131.97 125.37C131.97 125.02 131.97 124.67 131.97 124.32C131.97 110.9 142.88 99.99 156.3 99.99C166.78 99.99 175.98 106.62 179.29 116.32C180.69 115.68 182.27 115.21 184.21 115.21C190.63 115.21 195.85 120.43 195.85 126.85C195.85 127.27 195.83 127.69 195.78 128.1C196.53 127.96 197.32 127.89 198.16 127.89C205.28 127.89 211.08 133.69 211.08 140.81C211.08 147.93 205.29 153.72 198.16 153.72H130.94H130.93Z" fill="#A697FC"/>
<path d="M156.29 101.48C166.94 101.48 175.82 108.58 178.36 118.47C180.14 117.46 181.91 116.7 184.2 116.7C189.78 116.7 194.34 121.27 194.34 126.84C194.34 128.11 194.09 129.38 193.58 130.39C195.1 129.63 196.62 129.38 198.15 129.38C204.49 129.38 209.56 134.45 209.56 140.8C209.56 147.15 204.49 152.21 198.15 152.21H130.93C123.82 152.21 118.25 146.63 118.25 139.53C118.25 132.43 123.83 126.85 130.93 126.85C131.94 126.85 132.7 126.85 133.72 127.1C133.47 126.34 133.47 125.32 133.47 124.31C133.47 111.63 143.61 101.48 156.3 101.48M156.29 98.48C149.35 98.48 142.86 101.16 138 106.02C133.25 110.77 130.58 117.09 130.47 123.86C121.9 124.1 115.25 130.9 115.25 139.54C115.25 148.18 122.14 155.22 130.93 155.22H198.15C206.1 155.22 212.56 148.75 212.56 140.81C212.56 132.87 206.09 126.39 198.15 126.39C197.88 126.39 197.6 126.39 197.34 126.41C197.11 119.36 191.3 113.7 184.2 113.7C182.68 113.7 181.34 113.96 180.15 114.36C176.24 104.86 166.89 98.48 156.29 98.48Z" fill="#1F1B21"/>
<path d="M160.07 178.75C152.07 178.75 146.04 173.35 146.04 166.19C146.04 160.45 149.79 155.38 154.94 153.92C155.44 148.45 159.33 143.05 166.13 143.05C167.36 143.05 168.58 143.26 169.73 143.65C172.16 139.73 176.88 135.94 183.65 135.94C188.28 135.94 192.56 137.85 195.69 141.31C198.56 144.49 200.11 148.58 200.04 152.71C205.58 154.39 209.48 159.55 209.48 165.45C209.48 172.78 203.52 178.74 196.19 178.74H160.07V178.75Z" fill="#A697FC"/>
<path d="M183.66 137.44C192.86 137.44 199.3 145.7 198.47 153.87C203.89 154.94 207.98 159.72 207.98 165.46C207.98 171.97 202.7 177.25 196.19 177.25H160.07C152.57 177.25 147.54 172.33 147.54 166.19C147.54 161.06 151.16 156.01 156.39 155.13C156.39 148.3 161.22 144.55 166.14 144.55C167.59 144.55 169.05 144.88 170.4 145.55C172.61 141.13 177.37 137.44 183.67 137.44M183.66 134.44C177.75 134.44 172.38 137.24 169.09 141.9C168.13 141.67 167.13 141.55 166.14 141.55C162.81 141.55 159.67 142.83 157.32 145.14C155.26 147.16 153.98 149.78 153.55 152.8C148.28 154.77 144.54 160.14 144.54 166.19C144.54 174.2 151.22 180.25 160.07 180.25H196.19C204.35 180.25 210.98 173.61 210.98 165.46C210.98 159.27 207.13 153.82 201.52 151.65C201.33 147.52 199.68 143.5 196.8 140.32C193.38 136.54 188.71 134.46 183.65 134.46L183.66 134.44Z" fill="#1F1B21"/>
<path d="M77.38 169.24C71.32 169.24 66.56 164.49 66.56 158.42C66.56 153.23 70.35 148.79 75.39 147.79C76.04 142.35 80.67 138.12 86.27 138.12C87.25 138.12 88.21 138.25 89.15 138.52C90.68 133.49 95.25 131.21 99.46 131.21C103.67 131.21 108.23 133.49 109.77 138.52C110.7 138.25 111.66 138.12 112.64 138.12C118.24 138.12 122.87 142.35 123.52 147.79C128.57 148.79 132.35 153.24 132.35 158.42C132.35 164.38 127.5 169.24 121.53 169.24H77.37H77.38Z" fill="#A697FC"/>
<path d="M99.47 132.71C103.71 132.71 107.95 135.32 108.69 140.54C109.99 139.91 111.33 139.62 112.65 139.62C117.58 139.62 122.1 143.67 122.1 149.11C126.94 149.48 130.86 153.58 130.86 158.43C130.86 163.65 126.58 167.75 121.54 167.75H77.38C72.16 167.75 68.06 163.65 68.06 158.43C68.06 153.59 71.97 149.49 76.82 149.11C76.82 143.67 81.35 139.62 86.27 139.62C87.59 139.62 88.93 139.91 90.23 140.54C90.98 135.32 95.21 132.71 99.45 132.71M99.47 129.71C94.39 129.71 90.14 132.49 88.23 136.78C87.59 136.67 86.94 136.62 86.28 136.62C80.28 136.62 75.26 140.9 74.08 146.57C68.86 148.08 65.07 152.88 65.07 158.42C65.07 165.33 70.48 170.74 77.39 170.74H121.55C128.34 170.74 133.87 165.22 133.87 158.42C133.87 152.87 130.07 148.08 124.86 146.57C123.69 140.9 118.66 136.62 112.66 136.62C112 136.62 111.36 136.67 110.72 136.78C108.81 132.49 104.56 129.71 99.48 129.71H99.47Z" fill="#1F1B21"/>
<path d="M85.42 103.65C86.73 97.39 91.3 92.23 97.35 90.19C99.23 89.56 101.17 89.24 103.14 89.24C107.49 89.24 111.7 90.81 115 93.67L117.82 96.11L109.64 96.53C103.21 96.86 96.74 99.05 91.42 102.68L87.66 105.25L84.79 106.69L85.42 103.65Z" fill="#A697FC"/>
<path d="M103.13 90.73C107.15 90.73 111.02 92.2 114.01 94.79L109.56 95.02C102.82 95.37 96.15 97.62 90.57 101.43L86.89 103.95C88.05 98.38 92.05 93.56 97.83 91.6C99.59 91.01 101.38 90.72 103.14 90.72M103.14 87.73C101.01 87.73 98.9 88.08 96.87 88.76C90.32 90.97 85.37 96.56 83.95 103.33L82.87 108.5L87.86 106.78L88.24 106.65L88.58 106.42L92.26 103.9C97.35 100.42 103.55 98.33 109.71 98.01L114.16 97.78L121.61 97.39L115.97 92.51C112.4 89.42 107.84 87.72 103.13 87.72L103.14 87.73Z" fill="#1F1B21"/>
<path d="M75.91 118.85C74.95 118.85 74.12 118.23 73.84 117.32C73.56 116.4 73.9 115.43 74.69 114.89L92 103.07C97.43 99.3599 104.04 97.1299 110.6 96.7899L131.65 95.6899C132.61 95.6899 133.44 96.3099 133.72 97.2199C134 98.1299 133.66 99.1099 132.87 99.6499L115.56 111.47C110.13 115.18 103.52 117.41 96.96 117.75L75.91 118.85Z" fill="#A697FC"/>
<path d="M131.65 97.1799C132.3 97.1799 132.57 98.0299 132.02 98.3999L114.71 110.22C109.47 113.8 103.21 115.91 96.88 116.24L75.95 117.33C75.95 117.33 75.92 117.33 75.91 117.33C75.26 117.33 74.99 116.48 75.54 116.11L92.85 104.29C98.09 100.71 104.35 98.5999 110.68 98.2699L131.61 97.1799C131.61 97.1799 131.64 97.1799 131.65 97.1799ZM131.65 94.1799H131.45L110.52 95.2799C103.68 95.6399 96.8 97.9599 91.15 101.82L73.84 113.64C72.5 114.55 71.92 116.21 72.4 117.75C72.88 119.3 74.29 120.34 75.9 120.34H76.1L97.03 119.24C103.87 118.88 110.75 116.56 116.4 112.7L133.71 100.88C135.05 99.9699 135.63 98.3099 135.15 96.7699C134.67 95.2199 133.26 94.1799 131.65 94.1799Z" fill="#1F1B21"/>
<path d="M138.93 194.99C116.89 194.99 101.47 219.23 101.47 219.23C101.47 219.23 112.71 243.47 138.93 243.47C165.15 243.47 176.39 219.23 176.39 219.23C176.39 219.23 161.18 194.99 138.93 194.99ZM138.93 234.66C130.34 234.66 123.51 227.83 123.51 219.24C123.51 210.65 130.34 203.82 138.93 203.82C147.52 203.82 154.35 210.65 154.35 219.24C154.35 227.83 147.52 234.66 138.93 234.66Z" fill="#A697FC"/>
<path d="M145.54 219.24C145.54 222.89 142.58 225.85 138.93 225.85C135.28 225.85 132.32 222.89 132.32 219.24C132.32 215.59 135.28 212.63 138.93 212.63C142.58 212.63 145.54 215.59 145.54 219.24Z" fill="#A697FC"/>
</svg>
