<svg width="940" height="155" viewBox="0 0 940 155" fill="none" xmlns="http://www.w3.org/2000/svg">
<path fill-rule="evenodd" clip-rule="evenodd" d="M20.5724 58.8698C24.4836 56.6116 24.4901 49.3006 20.5869 42.5403C16.6837 35.7799 10.3489 32.1302 6.43767 34.3885C2.52646 36.6467 2.51995 43.9576 6.42315 50.718C10.3263 57.4783 16.6612 61.128 20.5724 58.8698ZM20.5958 73.3454C24.499 80.1057 24.4925 87.4166 20.5813 89.6749C16.67 91.9331 10.3352 88.2834 6.43203 81.523C2.52883 74.7627 2.53533 67.4517 6.44655 65.1935C10.3578 62.9353 16.6926 66.585 20.5958 73.3454ZM47.2495 88.7551C51.1527 95.5154 51.1462 102.826 47.235 105.085C43.3238 107.343 36.9889 103.693 33.0857 96.9328C29.1826 90.1725 29.1891 82.8615 33.1003 80.6033C37.0115 78.3451 43.3463 81.9948 47.2495 88.7551ZM47.2408 57.9504C51.144 64.7107 51.1375 72.0217 47.2263 74.2799C43.3151 76.5381 36.9803 72.8884 33.0771 66.1281C29.1739 59.3678 29.1804 52.0568 33.0916 49.7986C37.0028 47.5404 43.3376 51.1901 47.2408 57.9504Z" fill="#F26E7E"/>
<path fill-rule="evenodd" clip-rule="evenodd" d="M100.561 50.7349C104.464 43.9746 104.458 36.6636 100.547 34.4054C96.6355 32.1472 90.3007 35.7969 86.3975 42.5572C82.4943 49.3176 82.5008 56.6285 86.412 58.8867C90.3232 61.1449 96.658 57.4953 100.561 50.7349ZM100.562 65.2032C104.473 67.4614 104.48 74.7723 100.577 81.5327C96.6734 88.293 90.3385 91.9427 86.4273 89.6845C82.5161 87.4263 82.5096 80.1153 86.4128 73.355C90.316 66.5946 96.6508 62.9449 100.562 65.2032ZM73.9136 80.5876C77.8249 82.8458 77.8314 90.1568 73.9282 96.9171C70.025 103.677 63.6901 107.327 59.7789 105.069C55.8677 102.811 55.8612 95.4998 59.7644 88.7395C63.6676 81.9791 70.0024 78.3294 73.9136 80.5876ZM73.8986 49.7897C77.8098 52.0479 77.8163 59.3589 73.9131 66.1192C70.0099 72.8796 63.6751 76.5292 59.7638 74.271C55.8526 72.0128 55.8461 64.7019 59.7493 57.9415C63.6525 51.1812 69.9873 47.5315 73.8986 49.7897Z" fill="#8A3391"/>
<path fill-rule="evenodd" clip-rule="evenodd" d="M67.6222 8.17769C67.6222 12.6941 61.2939 16.3554 53.4875 16.3554C45.6811 16.3554 39.3528 12.6941 39.3528 8.17769C39.3528 3.66127 45.6811 0 53.4875 0C61.2939 0 67.6222 3.66127 67.6222 8.17769ZM40.974 23.5464C40.974 28.0628 34.6457 31.7241 26.8393 31.7241C19.0329 31.7241 12.7046 28.0628 12.7046 23.5464C12.7046 19.03 19.0329 15.3687 26.8393 15.3687C34.6457 15.3687 40.974 19.03 40.974 23.5464ZM80.1705 31.7241C87.9769 31.7241 94.3052 28.0628 94.3052 23.5464C94.3052 19.03 87.9769 15.3687 80.1705 15.3687C72.3641 15.3687 66.0358 19.03 66.0358 23.5464C66.0358 28.0628 72.3641 31.7241 80.1705 31.7241ZM67.6222 38.9496C67.6222 43.466 61.2939 47.1272 53.4875 47.1272C45.6811 47.1272 39.3528 43.466 39.3528 38.9496C39.3528 34.4332 45.6811 30.7719 53.4875 30.7719C61.2939 30.7719 67.6222 34.4332 67.6222 38.9496Z" fill="#F7BF2A"/>
<path d="M158.62 62.95H169.195C182.605 62.95 191.02 54.94 191.02 42.88C191.02 30.865 182.605 22.81 169.195 22.81H150.52C148.9 22.81 148 23.71 148 25.33V83.29C148 84.91 148.9 85.81 150.52 85.81H156.1C157.72 85.81 158.62 84.91 158.62 83.29V62.95ZM180.355 42.88C180.355 49.675 176.08 54.04 168.52 54.04H158.62V31.765H168.52C176.08 31.765 180.355 36.13 180.355 42.88Z" fill="black"/>
<path d="M218.134 86.845C224.074 86.845 229.159 83.92 232.309 79.645V83.29C232.309 84.91 233.209 85.81 234.829 85.81H240.094C241.714 85.81 242.614 84.91 242.614 83.29V41.71C242.614 40.09 241.714 39.19 240.094 39.19H234.829C233.209 39.19 232.309 40.09 232.309 41.71V64.57C232.309 72.31 226.729 77.755 220.249 77.755C214.039 77.755 209.764 73.345 209.764 67.045V41.71C209.764 40.09 208.864 39.19 207.244 39.19H202.024C200.404 39.19 199.504 40.09 199.504 41.71V67.945C199.504 79.42 206.929 86.845 218.134 86.845Z" fill="black"/>
<path d="M255.835 22.63V83.29C255.835 84.91 256.735 85.81 258.355 85.81H263.575C265.195 85.81 266.095 84.91 266.095 83.29V22.63C266.095 21.01 265.195 20.11 263.575 20.11H258.355C256.735 20.11 255.835 21.01 255.835 22.63Z" fill="black"/>
<path d="M297.06 86.845C303 86.845 308.085 83.92 311.235 79.645V83.29C311.235 84.91 312.135 85.81 313.755 85.81H319.02C320.64 85.81 321.54 84.91 321.54 83.29V41.71C321.54 40.09 320.64 39.19 319.02 39.19H313.755C312.135 39.19 311.235 40.09 311.235 41.71V64.57C311.235 72.31 305.655 77.755 299.175 77.755C292.965 77.755 288.69 73.345 288.69 67.045V41.71C288.69 40.09 287.79 39.19 286.17 39.19H280.95C279.33 39.19 278.43 40.09 278.43 41.71V67.945C278.43 79.42 285.855 86.845 297.06 86.845Z" fill="black"/>
<path d="M389.076 38.11C382.416 38.11 376.746 41.935 373.641 47.785C370.716 41.755 364.821 38.11 357.801 38.11C352.356 38.11 347.631 40.945 344.391 45.265V41.71C344.391 40.09 343.491 39.19 341.871 39.19H336.606C334.986 39.19 334.086 40.09 334.086 41.71V83.29C334.086 84.91 334.986 85.81 336.606 85.81H341.871C343.491 85.81 344.391 84.91 344.391 83.29V60.16C344.391 52.555 350.151 47.245 355.686 47.245C361.446 47.245 365.361 51.655 365.361 57.955V83.29C365.361 84.91 366.261 85.81 367.881 85.81H373.146C374.766 85.81 375.666 84.91 375.666 83.29V60.16C375.666 53.095 381.156 47.245 386.961 47.245C392.721 47.245 396.636 51.655 396.636 57.955V83.29C396.636 84.91 397.536 85.81 399.156 85.81H404.421C406.041 85.81 406.941 84.91 406.941 83.29V57.055C406.941 45.58 399.201 38.11 389.076 38.11Z" fill="black"/>
<path d="M418.009 26.5C418.009 30.01 420.754 32.755 424.354 32.755C427.954 32.755 430.744 30.01 430.744 26.5C430.744 22.945 427.954 20.2 424.354 20.2C420.754 20.2 418.009 22.945 418.009 26.5ZM419.224 41.71V83.29C419.224 84.91 420.124 85.81 421.744 85.81H426.964C428.584 85.81 429.484 84.91 429.484 83.29V41.71C429.484 40.09 428.584 39.19 426.964 39.19H421.744C420.124 39.19 419.224 40.09 419.224 41.71Z" fill="black"/>
<path d="M525.233 68.395L522.803 66.64C521.498 65.695 520.283 65.875 519.293 67.225C514.478 73.75 507.773 77.575 499.223 77.575C487.748 77.575 477.668 68.62 477.668 54.31C477.668 40.045 487.523 31.045 498.818 31.045C506.378 31.045 513.128 34.96 516.188 42.34C516.728 43.69 517.628 44.365 519.068 44.365H525.098C526.898 44.365 527.798 43.24 527.213 41.53C523.163 29.2 512.723 21.73 498.683 21.73C480.818 21.73 466.913 35.59 466.913 54.31C466.913 73.075 480.818 86.89 498.683 86.89C510.698 86.89 519.653 81.895 525.953 71.86C526.808 70.51 526.493 69.34 525.233 68.395Z" fill="black"/>
<path d="M560.361 47.245C561.126 47.245 561.891 47.29 562.656 47.425C564.321 47.695 565.311 47.11 565.446 45.355L565.806 41.08C565.941 39.505 565.266 38.47 563.736 38.245C563.151 38.155 562.521 38.11 561.891 38.11C555.951 38.11 551.091 41.305 548.121 45.625V41.71C548.121 40.09 547.221 39.19 545.601 39.19H540.336C538.716 39.19 537.816 40.09 537.816 41.71V83.29C537.816 84.91 538.716 85.81 540.336 85.81H545.601C547.221 85.81 548.121 84.91 548.121 83.29V60.475C548.121 52.78 553.836 47.245 560.361 47.245Z" fill="black"/>
<path d="M569.471 62.5C569.471 76.045 580.361 86.89 595.031 86.89C609.701 86.89 620.546 76.045 620.546 62.5C620.546 48.955 609.701 38.11 595.031 38.11C580.361 38.11 569.471 48.955 569.471 62.5ZM579.866 62.5C579.866 54.04 586.436 47.245 595.031 47.245C603.626 47.245 610.196 54.04 610.196 62.5C610.196 71.005 603.626 77.755 595.031 77.755C586.436 77.755 579.866 71.005 579.866 62.5Z" fill="black"/>
<path d="M630.421 74.47L629.161 75.955C628.171 77.125 628.081 78.34 629.116 79.51C633.301 84.235 638.476 86.89 645.046 86.89C656.251 86.89 662.866 80.86 662.866 72.805C662.866 64.975 657.781 60.16 647.026 58C641.176 56.83 638.521 54.445 638.521 51.52C638.521 48.595 641.311 46.615 645.181 46.615C648.241 46.615 650.401 47.965 651.391 50.125C652.021 51.52 652.696 52.24 654.181 52.24H659.086C660.841 52.24 661.831 51.16 661.336 49.45C659.221 42.25 653.281 38.11 644.596 38.11C634.651 38.11 628.351 43.78 628.351 51.385C628.351 58.855 633.346 63.85 643.516 65.875C650.176 67.18 652.696 69.295 652.696 72.67C652.696 76.135 649.591 78.43 644.506 78.43C640.456 78.43 636.946 76.9 633.976 74.335C632.716 73.21 631.501 73.21 630.421 74.47Z" fill="black"/>
<path d="M672.696 74.47L671.436 75.955C670.446 77.125 670.356 78.34 671.391 79.51C675.576 84.235 680.751 86.89 687.321 86.89C698.526 86.89 705.141 80.86 705.141 72.805C705.141 64.975 700.056 60.16 689.301 58C683.451 56.83 680.796 54.445 680.796 51.52C680.796 48.595 683.586 46.615 687.456 46.615C690.516 46.615 692.676 47.965 693.666 50.125C694.296 51.52 694.971 52.24 696.456 52.24H701.361C703.116 52.24 704.106 51.16 703.611 49.45C701.496 42.25 695.556 38.11 686.871 38.11C676.926 38.11 670.626 43.78 670.626 51.385C670.626 58.855 675.621 63.85 685.791 65.875C692.451 67.18 694.971 69.295 694.971 72.67C694.971 76.135 691.866 78.43 686.781 78.43C682.731 78.43 679.221 76.9 676.251 74.335C674.991 73.21 673.776 73.21 672.696 74.47Z" fill="black"/>
<path d="M745.818 39.19H739.788C738.303 39.19 737.403 39.865 736.998 41.35L728.403 72.625L719.538 41.305C719.133 39.865 718.233 39.19 716.748 39.19H711.348C709.548 39.19 708.738 40.27 709.278 42.025L722.283 83.74C722.733 85.18 723.633 85.81 725.118 85.81H731.328C732.813 85.81 733.713 85.135 734.118 83.695L742.803 52.735L751.533 83.695C751.938 85.135 752.838 85.81 754.323 85.81H760.533C762.018 85.81 762.918 85.18 763.368 83.74L776.373 42.025C776.913 40.27 776.103 39.19 774.303 39.19H768.858C767.373 39.19 766.473 39.865 766.068 41.305L757.248 72.625L748.608 41.35C748.203 39.91 747.303 39.19 745.818 39.19Z" fill="black"/>
<path d="M780.496 62.5C780.496 76.09 790.126 86.89 803.266 86.89C810.061 86.89 815.731 84.055 819.646 79.51V83.29C819.646 84.91 820.547 85.81 822.167 85.81H827.342C828.962 85.81 829.861 84.91 829.861 83.29V41.71C829.861 40.09 828.962 39.19 827.342 39.19H822.167C820.547 39.19 819.646 40.09 819.646 41.71V45.535C815.731 40.945 810.061 38.11 803.266 38.11C790.126 38.11 780.496 48.955 780.496 62.5ZM790.891 62.5C790.891 54.04 797.012 47.245 805.292 47.245C813.572 47.245 819.646 54.04 819.646 62.5C819.646 71.005 813.482 77.755 805.292 77.755C797.102 77.755 790.891 71.005 790.891 62.5Z" fill="black"/>
<path d="M843.12 22.63V83.29C843.12 84.91 844.02 85.81 845.64 85.81H850.86C852.48 85.81 853.38 84.91 853.38 83.29V22.63C853.38 21.01 852.48 20.11 850.86 20.11H845.64C844.02 20.11 843.12 21.01 843.12 22.63Z" fill="black"/>
<path d="M901.13 39.19H895.91C894.29 39.19 893.48 40.09 893.345 41.755C892.625 51.88 887.63 55.615 881.375 55.615H876.92V22.63C876.92 21.01 876.02 20.11 874.4 20.11H869.135C867.515 20.11 866.615 21.01 866.615 22.63V83.29C866.615 84.91 867.515 85.81 869.135 85.81H874.4C876.02 85.81 876.92 84.91 876.92 83.29V64.435H883.355L894.785 84.1C895.46 85.27 896.405 85.81 897.755 85.81H903.875C905.855 85.81 906.62 84.505 905.585 82.795L893.39 62.095C899.465 58.675 903.11 51.79 903.605 41.8C903.695 40.09 902.75 39.19 901.13 39.19Z" fill="black"/>
<path d="M730.36 114.37V112.06C730.36 111.01 729.82 110.38 728.8 110.29C728.2 110.23 727.6 110.2 727 110.2C719.14 110.2 715.33 113.77 715.33 121.09V122.92H711.25C710.17 122.92 709.57 123.52 709.57 124.6V127.24C709.57 128.32 710.17 128.92 711.25 128.92H715.33V152.32C715.33 153.4 715.93 154 717.01 154H720.49C721.57 154 722.17 153.4 722.17 152.32V128.92H728.68C729.76 128.92 730.36 128.32 730.36 127.24V124.6C730.36 123.52 729.76 122.92 728.68 122.92H722.17V121.18C722.17 117.7 723.67 115.96 727.6 115.96C728.02 115.96 728.5 115.96 728.98 115.99C729.88 116.05 730.36 115.48 730.36 114.37Z" fill="black"/>
<path d="M733.16 138.46C733.16 147.49 740.42 154.72 750.2 154.72C759.98 154.72 767.21 147.49 767.21 138.46C767.21 129.43 759.98 122.2 750.2 122.2C740.42 122.2 733.16 129.43 733.16 138.46ZM740.09 138.46C740.09 132.82 744.47 128.29 750.2 128.29C755.93 128.29 760.31 132.82 760.31 138.46C760.31 144.13 755.93 148.63 750.2 148.63C744.47 148.63 740.09 144.13 740.09 138.46Z" fill="black"/>
<path d="M788.493 128.29C789.003 128.29 789.513 128.32 790.023 128.41C791.133 128.59 791.793 128.2 791.883 127.03L792.123 124.18C792.213 123.13 791.763 122.44 790.743 122.29C790.353 122.23 789.933 122.2 789.513 122.2C785.553 122.2 782.313 124.33 780.333 127.21V124.6C780.333 123.52 779.733 122.92 778.653 122.92H775.143C774.063 122.92 773.463 123.52 773.463 124.6V152.32C773.463 153.4 774.063 154 775.143 154H778.653C779.733 154 780.333 153.4 780.333 152.32V137.11C780.333 131.98 784.143 128.29 788.493 128.29Z" fill="black"/>
<path d="M834.55 112H829.57C828.61 112 827.98 112.42 827.65 113.35L813.4 152.08C812.98 153.25 813.52 154 814.75 154H818.83C819.79 154 820.42 153.55 820.75 152.65L823.78 143.86H840.31L843.34 152.65C843.67 153.55 844.3 154 845.26 154H849.34C850.57 154 851.11 153.25 850.69 152.08L836.47 113.35C836.14 112.42 835.51 112 834.55 112ZM838.39 137.95H825.73L832.06 119.68L838.39 137.95Z" fill="black"/>
<path d="M879.773 112H875.693C874.703 112 874.103 112.45 873.833 113.41L865.313 143.95L857.423 113.44C857.183 112.45 856.553 112 855.563 112H851.603C850.403 112 849.863 112.75 850.193 113.89L861.113 152.59C861.383 153.55 861.983 154 862.973 154H867.113C868.103 154 868.703 153.55 868.973 152.59L877.733 121.69L886.463 152.59C886.733 153.55 887.333 154 888.323 154H892.493C893.483 154 894.083 153.55 894.353 152.59L905.273 113.89C905.603 112.75 905.063 112 903.863 112H899.903C898.913 112 898.283 112.45 898.043 113.44L890.123 143.95L881.633 113.44C881.363 112.48 880.763 112 879.773 112Z" fill="black"/>
<path d="M912.162 144.43L911.082 145.6C910.392 146.35 910.302 147.16 910.992 147.97C914.682 152.29 919.422 154.72 924.462 154.72C933.822 154.72 939.552 149.59 939.552 142.42C939.552 135.94 935.682 131.62 926.202 129.46C919.992 128.05 917.382 125.86 917.382 122.53C917.382 119.47 920.232 117.4 924.162 117.4C927.642 117.4 930.342 119.02 931.182 122.08C931.482 123.1 931.992 123.61 933.012 123.61H936.822C937.962 123.61 938.622 122.95 938.412 121.81C937.092 114.64 930.822 111.28 923.862 111.28C915.822 111.28 910.212 116.11 910.212 123.04C910.212 129.16 914.622 133.42 923.142 135.22C930.192 136.69 932.382 139.3 932.382 142.57C932.382 146.23 928.992 148.6 924.252 148.6C920.472 148.6 917.262 146.92 914.532 144.4C913.722 143.62 912.912 143.62 912.162 144.43Z" fill="black"/>
</svg>
