<svg width="33" height="33" viewBox="0 0 33 33" fill="none" xmlns="http://www.w3.org/2000/svg">
<g clip-path="url(#clip0_2071_20371)">
<g clip-path="url(#clip1_2071_20371)">
<path d="M15.1755 0.55952C15.9664 0.107321 16.9967 0.105279 17.787 0.55952C21.7628 2.80338 25.7399 5.04372 29.715 7.28894C30.4627 7.70959 30.9628 8.54068 30.9552 9.40117V22.9011C30.9608 23.7972 30.4112 24.6481 29.6224 25.0593C25.6597 27.2908 21.6989 29.525 17.7369 31.7565C16.9295 32.2175 15.8786 32.182 15.0965 31.6832C13.9085 30.9953 12.7184 30.3108 11.5303 29.6236C11.2875 29.479 11.0138 29.3639 10.8423 29.1288C10.9939 28.9248 11.2649 28.8994 11.485 28.8103C11.981 28.6528 12.4364 28.4 12.892 28.1546C13.0072 28.0759 13.1479 28.1061 13.2583 28.1765C14.2742 28.7583 15.2811 29.357 16.3005 29.9333C16.5179 30.0586 16.7381 29.8922 16.924 29.7887C20.8127 27.5935 24.7061 25.4066 28.5941 23.2108C28.7382 23.1415 28.8178 22.9888 28.8061 22.8312C28.8089 18.3778 28.8068 13.9237 28.8075 9.47039C28.824 9.29155 28.7204 9.12712 28.5585 9.05393C24.6094 6.83265 20.6625 4.60797 16.7141 2.38613C16.6457 2.33916 16.5647 2.31395 16.4817 2.31383C16.3987 2.31371 16.3175 2.33868 16.249 2.38545C12.3007 4.60797 8.35436 6.8347 4.40602 9.05586C4.24469 9.12917 4.13642 9.29087 4.15562 9.47039C4.1563 13.9237 4.15562 18.3778 4.15562 22.8319C4.14878 22.9088 4.16569 22.9859 4.20408 23.0529C4.24247 23.1199 4.3005 23.1736 4.37035 23.2067C5.42398 23.8034 6.47898 24.396 7.53329 24.9907C8.12725 25.31 8.85652 25.4998 9.51093 25.2551C10.0884 25.0483 10.4932 24.4597 10.4822 23.8472C10.4876 19.4199 10.4795 14.9919 10.4863 10.5652C10.4719 10.3687 10.6585 10.2063 10.8498 10.2248C11.3561 10.2214 11.863 10.218 12.3693 10.2261C12.5806 10.2214 12.726 10.433 12.6999 10.631C12.6978 15.0864 12.7053 19.5419 12.6965 23.9972C12.6978 25.1847 12.2094 26.4767 11.1098 27.0577C9.75508 27.7586 8.08067 27.61 6.74233 26.9378C5.58372 26.3603 4.47805 25.6786 3.34001 25.0598C2.54916 24.651 2.00234 23.7966 2.00791 22.9012V9.40117C1.99962 8.52287 2.51962 7.67668 3.29058 7.26216C7.25267 5.02885 11.2141 2.79385 15.1755 0.55952Z" fill="#8CC84B"/>
<path d="M18.6319 9.91101C20.3599 9.79992 22.2099 9.84519 23.7649 10.6955C24.9688 11.347 25.6363 12.7145 25.6575 14.0505C25.6239 14.2307 25.4353 14.3301 25.2631 14.3177C24.7617 14.317 24.2602 14.3245 23.7588 14.3143C23.5462 14.3225 23.4225 14.1266 23.3958 13.9388C23.2518 13.2996 22.9028 12.6665 22.3004 12.3582C21.3757 11.8958 20.3036 11.9191 19.2953 11.9287C18.5592 11.9677 17.7676 12.0314 17.144 12.4637C16.6653 12.7912 16.5198 13.4523 16.6907 13.9848C16.8518 14.3671 17.2937 14.4904 17.6552 14.6041C19.7377 15.1481 21.9445 15.094 23.9872 15.8099C24.8329 16.1018 25.6602 16.6691 25.9497 17.5536C26.3284 18.7389 26.1624 20.1558 25.318 21.1074C24.6333 21.8905 23.636 22.3167 22.6414 22.5482C21.3181 22.8429 19.9449 22.8504 18.6011 22.7195C17.3375 22.5756 16.0226 22.2441 15.0471 21.3841C14.213 20.6607 13.8056 19.5336 13.846 18.4457C13.8557 18.262 14.0388 18.1339 14.215 18.149C14.7199 18.1449 15.2248 18.1435 15.7297 18.1496C15.9313 18.1352 16.0809 18.3093 16.0912 18.4992C16.1844 19.1082 16.4135 19.7474 16.9452 20.1085C17.9714 20.7697 19.2589 20.7244 20.4339 20.7429C21.4073 20.6998 22.5 20.6867 23.2944 20.0441C23.7135 19.6776 23.8377 19.0644 23.7244 18.5368C23.6017 18.0914 23.1352 17.8839 22.7346 17.7482C20.6788 17.0986 18.4474 17.3343 16.4115 16.5998C15.5849 16.3081 14.7857 15.7565 14.4681 14.9083C14.0251 13.708 14.2281 12.2233 15.1609 11.3038C16.0705 10.3892 17.3835 10.037 18.6319 9.91089V9.91101Z" fill="#8CC84B"/>
</g>
</g>
<defs>
<clipPath id="clip0_2071_20371">
<rect width="32" height="32" fill="white" transform="translate(0.339355 0.153259)"/>
</clipPath>
<clipPath id="clip1_2071_20371">
<rect width="29.0909" height="32" fill="white" transform="translate(1.93945 0.153259)"/>
</clipPath>
</defs>
</svg>
