<svg width="33" height="33" viewBox="0 0 33 33" fill="none" xmlns="http://www.w3.org/2000/svg">
<g clip-path="url(#clip0_2071_20391)">
<path d="M15.8911 0.153259C7.76746 0.153259 8.27468 3.69455 8.27468 3.69455L8.28371 7.36344H16.0359V8.46494H5.20465C5.20465 8.46494 0.00634766 7.87231 0.00634766 16.1118C0.00634766 24.3516 4.54355 24.0594 4.54355 24.0594H7.25134V20.2358C7.25134 20.2358 7.10536 15.6749 11.7161 15.6749H19.4049C19.4049 15.6749 23.7247 15.745 23.7247 11.4781V4.42297C23.7247 4.42297 24.3808 0.153259 15.8911 0.153259ZM11.6165 2.62051C11.7997 2.62035 11.9811 2.6565 12.1504 2.72689C12.3197 2.79728 12.4735 2.90054 12.603 3.03075C12.7325 3.16097 12.8353 3.31558 12.9053 3.48574C12.9753 3.6559 13.0113 3.83827 13.0111 4.02242C13.0113 4.20657 12.9753 4.38894 12.9053 4.5591C12.8353 4.72927 12.7325 4.88388 12.603 5.01409C12.4735 5.1443 12.3197 5.24756 12.1504 5.31795C11.9811 5.38834 11.7997 5.42449 11.6165 5.42433C11.4333 5.42449 11.2519 5.38834 11.0826 5.31795C10.9133 5.24756 10.7595 5.1443 10.63 5.01409C10.5005 4.88388 10.3977 4.72927 10.3277 4.5591C10.2577 4.38894 10.2217 4.20657 10.2219 4.02242C10.2217 3.83827 10.2577 3.6559 10.3277 3.48574C10.3977 3.31558 10.5005 3.16097 10.63 3.03075C10.7595 2.90054 10.9133 2.79728 11.0826 2.72689C11.2519 2.6565 11.4333 2.62035 11.6165 2.62051Z" fill="url(#paint0_linear_2071_20391)"/>
<path d="M16.1219 32.1532C24.2455 32.1532 23.7383 28.6119 23.7383 28.6119L23.7293 24.9432H15.9769V23.8417H26.8082C26.8082 23.8417 32.0065 24.4343 32.0065 16.1945C32.0065 7.95491 27.4693 8.24713 27.4693 8.24713H24.7615V12.0706C24.7615 12.0706 24.9075 16.6315 20.2967 16.6315H12.6079C12.6079 16.6315 8.28812 16.5613 8.28812 20.8284V27.8837C8.28812 27.8837 7.63216 32.1532 16.1218 32.1532H16.1219ZM20.3965 29.6862C20.2133 29.6864 20.0319 29.6503 19.8626 29.5799C19.6933 29.5095 19.5395 29.4062 19.41 29.276C19.2804 29.1458 19.1777 28.9912 19.1077 28.821C19.0377 28.6509 19.0017 28.4685 19.0019 28.2843C19.0017 28.1002 19.0376 27.9178 19.1076 27.7476C19.1777 27.5774 19.2804 27.4228 19.4099 27.2926C19.5395 27.1624 19.6933 27.0591 19.8626 26.9887C20.0318 26.9183 20.2133 26.8821 20.3965 26.8823C20.5797 26.8821 20.7611 26.9183 20.9304 26.9887C21.0996 27.0591 21.2534 27.1623 21.383 27.2925C21.5125 27.4227 21.6152 27.5774 21.6853 27.7475C21.7553 27.9177 21.7913 28.1001 21.7911 28.2842C21.7913 28.4683 21.7553 28.6507 21.6853 28.8209C21.6152 28.991 21.5125 29.1457 21.383 29.2759C21.2534 29.4061 21.0996 29.5093 20.9304 29.5797C20.7611 29.6501 20.5797 29.6863 20.3965 29.6861V29.6862Z" fill="url(#paint1_linear_2071_20391)"/>
</g>
<defs>
<linearGradient id="paint0_linear_2071_20391" x1="3.08154" y1="3.03147" x2="19.0216" y2="18.7305" gradientUnits="userSpaceOnUse">
<stop stop-color="#387EB8"/>
<stop offset="1" stop-color="#366994"/>
</linearGradient>
<linearGradient id="paint1_linear_2071_20391" x1="12.8155" y1="13.1658" x2="29.9292" y2="29.2597" gradientUnits="userSpaceOnUse">
<stop stop-color="#FFE052"/>
<stop offset="1" stop-color="#FFC331"/>
</linearGradient>
<clipPath id="clip0_2071_20391">
<rect width="32" height="32" fill="white" transform="translate(0.00634766 0.153259)"/>
</clipPath>
</defs>
</svg>
