<svg width="32" height="32" viewBox="0 0 32 32" fill="none" xmlns="http://www.w3.org/2000/svg">
<path d="M14.7371 1L8.99862 9.61606V15.078H5.48137V9.61606L0 1H3.95312L7.43862 6.54774L10.9527 1H14.7371Z" fill="black"/>
<path d="M20.6433 11.9803H14.277L12.9822 15.111H10.1631L16.1243 1.03296H19.0079L24.7273 15.111H21.7148L20.6433 11.9803H20.6433ZM19.5858 9.16964L17.6342 4.0034L15.4569 9.16964H19.5858Z" fill="#CB171E"/>
<path d="M5.48145 16.6569V30.4546H8.43788V20.937L11.5319 27.3343H13.8591L17.0588 20.7122V30.4517H19.895V16.6569H16.0225L12.5864 22.8968L9.31395 16.6569H5.48145Z" fill="black"/>
<path d="M32.0002 27.456H24.7276V16.6536H21.7153V30.3919H32.0002V27.4562V27.456Z" fill="black"/>
</svg>
