<svg width="715" height="477" viewBox="0 0 715 477" fill="none" xmlns="http://www.w3.org/2000/svg">
<g filter="url(#filter0_d)">
<path d="M667 30H48C41.3726 30 36 35.3726 36 42V423C36 429.627 41.3726 435 48 435H667C673.627 435 679 429.627 679 423V42C679 35.3726 673.627 30 667 30Z" fill="white"/>
<path d="M180 85H98C92.4772 85 88 89.4772 88 95V123C88 128.523 92.4772 133 98 133H180C185.523 133 190 128.523 190 123V95C190 89.4772 185.523 85 180 85Z" fill="#FCE5AA"/>
<path d="M102.752 113.768H104.912C105.499 113.768 106.048 113.693 106.56 113.544C107.083 113.395 107.536 113.155 107.92 112.824C108.315 112.483 108.624 112.04 108.848 111.496C109.072 110.952 109.184 110.291 109.184 109.512C109.184 108.787 109.083 108.163 108.88 107.64C108.677 107.107 108.389 106.669 108.016 106.328C107.653 105.987 107.205 105.736 106.672 105.576C106.149 105.405 105.563 105.32 104.912 105.32H102.752V113.768ZM101.408 104.088H104.912C105.776 104.088 106.555 104.195 107.248 104.408C107.952 104.621 108.555 104.952 109.056 105.4C109.557 105.848 109.941 106.413 110.208 107.096C110.485 107.779 110.624 108.584 110.624 109.512C110.624 110.451 110.475 111.267 110.176 111.96C109.877 112.643 109.472 113.213 108.96 113.672C108.448 114.12 107.845 114.456 107.152 114.68C106.459 114.893 105.712 115 104.912 115H101.408V104.088ZM118.542 114.808C118.296 114.883 118.04 114.947 117.774 115C117.518 115.053 117.23 115.101 116.91 115.144C116.6 115.187 116.275 115.208 115.934 115.208C115.4 115.208 114.904 115.133 114.446 114.984C113.987 114.835 113.587 114.595 113.246 114.264C112.904 113.933 112.632 113.507 112.43 112.984C112.238 112.451 112.142 111.8 112.142 111.032C112.142 110.339 112.238 109.731 112.43 109.208C112.622 108.675 112.883 108.232 113.214 107.88C113.555 107.517 113.95 107.245 114.398 107.064C114.856 106.883 115.352 106.792 115.886 106.792C116.408 106.792 116.862 106.893 117.246 107.096C117.63 107.299 117.944 107.576 118.19 107.928C118.446 108.269 118.632 108.675 118.75 109.144C118.878 109.603 118.942 110.088 118.942 110.6L118.702 111.304H113.534C113.534 111.635 113.576 111.965 113.662 112.296C113.747 112.627 113.891 112.925 114.094 113.192C114.307 113.459 114.579 113.677 114.91 113.848C115.251 114.008 115.672 114.088 116.174 114.088C116.494 114.088 116.787 114.072 117.054 114.04C117.32 113.997 117.55 113.955 117.742 113.912C117.944 113.859 118.131 113.8 118.302 113.736L118.542 114.808ZM117.614 110.28C117.614 110.205 117.598 110.04 117.566 109.784C117.534 109.528 117.459 109.261 117.342 108.984C117.224 108.707 117.043 108.461 116.798 108.248C116.552 108.024 116.227 107.912 115.822 107.912C115.374 107.912 115.006 108.008 114.718 108.2C114.43 108.381 114.2 108.6 114.03 108.856C113.859 109.112 113.742 109.373 113.678 109.64C113.614 109.907 113.582 110.12 113.582 110.28H117.614ZM119.691 106.952H121.099L123.051 112.632L123.403 113.896H123.419L123.787 112.632L125.867 106.952H127.211L124.091 115H122.651L119.691 106.952ZM134.385 114.808C134.14 114.883 133.884 114.947 133.617 115C133.361 115.053 133.073 115.101 132.753 115.144C132.444 115.187 132.119 115.208 131.777 115.208C131.244 115.208 130.748 115.133 130.289 114.984C129.831 114.835 129.431 114.595 129.089 114.264C128.748 113.933 128.476 113.507 128.273 112.984C128.081 112.451 127.985 111.8 127.985 111.032C127.985 110.339 128.081 109.731 128.273 109.208C128.465 108.675 128.727 108.232 129.057 107.88C129.399 107.517 129.793 107.245 130.241 107.064C130.7 106.883 131.196 106.792 131.729 106.792C132.252 106.792 132.705 106.893 133.089 107.096C133.473 107.299 133.788 107.576 134.033 107.928C134.289 108.269 134.476 108.675 134.593 109.144C134.721 109.603 134.785 110.088 134.785 110.6L134.545 111.304H129.377C129.377 111.635 129.42 111.965 129.505 112.296C129.591 112.627 129.735 112.925 129.937 113.192C130.151 113.459 130.423 113.677 130.753 113.848C131.095 114.008 131.516 114.088 132.017 114.088C132.337 114.088 132.631 114.072 132.897 114.04C133.164 113.997 133.393 113.955 133.585 113.912C133.788 113.859 133.975 113.8 134.145 113.736L134.385 114.808ZM133.457 110.28C133.457 110.205 133.441 110.04 133.409 109.784C133.377 109.528 133.303 109.261 133.185 108.984C133.068 108.707 132.887 108.461 132.641 108.248C132.396 108.024 132.071 107.912 131.665 107.912C131.217 107.912 130.849 108.008 130.561 108.2C130.273 108.381 130.044 108.6 129.873 108.856C129.703 109.112 129.585 109.373 129.521 109.64C129.457 109.907 129.425 110.12 129.425 110.28H133.457ZM136.527 103.016L137.807 102.872V115H136.527V103.016ZM141.017 111.016C141.017 112.051 141.246 112.824 141.705 113.336C142.174 113.837 142.804 114.088 143.593 114.088C144.372 114.088 144.98 113.837 145.417 113.336C145.854 112.835 146.073 112.083 146.073 111.08C146.073 110.013 145.838 109.219 145.369 108.696C144.91 108.173 144.281 107.912 143.481 107.912C142.681 107.912 142.068 108.173 141.641 108.696C141.225 109.208 141.017 109.981 141.017 111.016ZM139.657 111C139.657 110.189 139.785 109.517 140.041 108.984C140.297 108.44 140.622 108.008 141.017 107.688C141.412 107.357 141.833 107.128 142.281 107C142.74 106.861 143.172 106.792 143.577 106.792C143.961 106.792 144.377 106.856 144.825 106.984C145.284 107.101 145.705 107.32 146.089 107.64C146.473 107.949 146.793 108.371 147.049 108.904C147.305 109.427 147.433 110.093 147.433 110.904C147.433 111.747 147.3 112.445 147.033 113C146.777 113.555 146.452 113.997 146.057 114.328C145.662 114.648 145.236 114.872 144.777 115C144.318 115.139 143.892 115.208 143.497 115.208C143.092 115.208 142.665 115.144 142.217 115.016C141.769 114.888 141.353 114.669 140.969 114.36C140.596 114.04 140.281 113.608 140.025 113.064C139.78 112.52 139.657 111.832 139.657 111ZM149.309 108.808C149.309 108.424 149.282 107.853 149.229 107.096L150.413 106.936L150.557 107.8C150.77 107.619 150.989 107.459 151.213 107.32C151.447 107.171 151.698 107.048 151.965 106.952C152.242 106.845 152.535 106.792 152.845 106.792C153.282 106.792 153.693 106.867 154.077 107.016C154.471 107.165 154.813 107.405 155.101 107.736C155.399 108.067 155.634 108.499 155.805 109.032C155.975 109.555 156.061 110.2 156.061 110.968C156.061 111.747 155.943 112.408 155.709 112.952C155.485 113.485 155.186 113.923 154.813 114.264C154.45 114.595 154.034 114.835 153.565 114.984C153.106 115.133 152.637 115.208 152.157 115.208C151.645 115.197 151.122 115.133 150.589 115.016V118.488L149.309 118.648V108.808ZM152.157 114.088C152.605 114.088 152.989 114.008 153.309 113.848C153.629 113.688 153.89 113.469 154.093 113.192C154.306 112.904 154.461 112.579 154.557 112.216C154.653 111.843 154.701 111.448 154.701 111.032C154.701 110.659 154.663 110.285 154.589 109.912C154.525 109.539 154.413 109.208 154.253 108.92C154.103 108.621 153.901 108.381 153.645 108.2C153.389 108.008 153.074 107.912 152.701 107.912C152.423 107.912 152.162 107.965 151.917 108.072C151.671 108.168 151.437 108.291 151.213 108.44C150.999 108.579 150.791 108.739 150.589 108.92V113.832C150.706 113.875 150.834 113.917 150.973 113.96C151.122 113.992 151.293 114.024 151.485 114.056C151.687 114.077 151.911 114.088 152.157 114.088ZM163.885 114.808C163.64 114.883 163.384 114.947 163.117 115C162.861 115.053 162.573 115.101 162.253 115.144C161.944 115.187 161.619 115.208 161.277 115.208C160.744 115.208 160.248 115.133 159.789 114.984C159.331 114.835 158.931 114.595 158.589 114.264C158.248 113.933 157.976 113.507 157.773 112.984C157.581 112.451 157.485 111.8 157.485 111.032C157.485 110.339 157.581 109.731 157.773 109.208C157.965 108.675 158.227 108.232 158.557 107.88C158.899 107.517 159.293 107.245 159.741 107.064C160.2 106.883 160.696 106.792 161.229 106.792C161.752 106.792 162.205 106.893 162.589 107.096C162.973 107.299 163.288 107.576 163.533 107.928C163.789 108.269 163.976 108.675 164.093 109.144C164.221 109.603 164.285 110.088 164.285 110.6L164.045 111.304H158.877C158.877 111.635 158.92 111.965 159.005 112.296C159.091 112.627 159.235 112.925 159.437 113.192C159.651 113.459 159.923 113.677 160.253 113.848C160.595 114.008 161.016 114.088 161.517 114.088C161.837 114.088 162.131 114.072 162.397 114.04C162.664 113.997 162.893 113.955 163.085 113.912C163.288 113.859 163.475 113.8 163.645 113.736L163.885 114.808ZM162.957 110.28C162.957 110.205 162.941 110.04 162.909 109.784C162.877 109.528 162.803 109.261 162.685 108.984C162.568 108.707 162.387 108.461 162.141 108.248C161.896 108.024 161.571 107.912 161.165 107.912C160.717 107.912 160.349 108.008 160.061 108.2C159.773 108.381 159.544 108.6 159.373 108.856C159.203 109.112 159.085 109.373 159.021 109.64C158.957 109.907 158.925 110.12 158.925 110.28H162.957ZM166.043 108.248C166.043 108.003 166.016 107.619 165.963 107.096L167.147 106.936L167.275 108.104H167.291C167.483 107.859 167.67 107.645 167.851 107.464C168.032 107.283 168.219 107.128 168.411 107C168.614 106.861 168.806 106.792 168.987 106.792C169.232 106.781 169.574 106.808 170.011 106.872L169.723 108.104C169.371 108.04 169.126 108.013 168.987 108.024C168.806 108.024 168.614 108.109 168.411 108.28C168.208 108.451 168.032 108.632 167.883 108.824C167.691 109.059 167.504 109.325 167.323 109.624V115H166.043V108.248ZM175.77 108.264C175.322 108.125 174.922 108.035 174.57 107.992C174.228 107.939 173.914 107.912 173.626 107.912C173.252 107.912 172.938 108.003 172.682 108.184C172.436 108.365 172.314 108.6 172.314 108.888C172.324 109.144 172.436 109.363 172.65 109.544C172.863 109.725 173.108 109.891 173.386 110.04C173.674 110.179 173.988 110.333 174.33 110.504C174.682 110.675 175.007 110.867 175.306 111.08C175.615 111.293 175.866 111.549 176.058 111.848C176.25 112.147 176.351 112.504 176.362 112.92C176.351 113.368 176.25 113.741 176.058 114.04C175.876 114.328 175.636 114.563 175.338 114.744C175.05 114.915 174.735 115.032 174.394 115.096C174.052 115.171 173.732 115.208 173.434 115.208C173.05 115.208 172.65 115.187 172.234 115.144C171.828 115.101 171.391 115.011 170.922 114.872L171.162 113.72C171.642 113.848 172.079 113.944 172.474 114.008C172.868 114.061 173.194 114.088 173.45 114.088C173.642 114.088 173.828 114.067 174.01 114.024C174.202 113.981 174.372 113.923 174.522 113.848C174.671 113.763 174.788 113.656 174.874 113.528C174.97 113.4 175.018 113.256 175.018 113.096C175.007 112.797 174.906 112.547 174.714 112.344C174.522 112.131 174.271 111.944 173.962 111.784C173.663 111.613 173.338 111.448 172.986 111.288C172.644 111.117 172.319 110.925 172.01 110.712C171.711 110.488 171.46 110.227 171.258 109.928C171.055 109.619 170.954 109.24 170.954 108.792C170.954 108.472 171.034 108.189 171.194 107.944C171.364 107.688 171.578 107.48 171.834 107.32C172.1 107.149 172.388 107.021 172.698 106.936C173.018 106.84 173.327 106.792 173.626 106.792C173.935 106.792 174.282 106.819 174.666 106.872C175.05 106.915 175.492 107 175.994 107.128L175.77 108.264Z" fill="#444547"/>
<path d="M180 277H98C92.4772 277 88 281.477 88 287V315C88 320.523 92.4772 325 98 325H180C185.523 325 190 320.523 190 315V287C190 281.477 185.523 277 180 277Z" fill="#FCE5AA"/>
<path d="M135.712 299.624C135.243 299.528 134.741 299.437 134.208 299.352C133.685 299.267 133.077 299.213 132.384 299.192C131.68 299.203 131.072 299.309 130.56 299.512C130.048 299.715 129.627 300.008 129.296 300.392C128.976 300.765 128.736 301.213 128.576 301.736C128.416 302.259 128.336 302.835 128.336 303.464C128.336 304.275 128.437 304.968 128.64 305.544C128.853 306.12 129.141 306.595 129.504 306.968C129.877 307.331 130.309 307.597 130.8 307.768C131.291 307.939 131.819 308.024 132.384 308.024C132.747 308.024 133.072 308.003 133.36 307.96C133.659 307.917 133.915 307.869 134.128 307.816C134.352 307.752 134.555 307.683 134.736 307.608V304.68H132.736V303.48H136.096V308.264C135.723 308.509 135.205 308.733 134.544 308.936C133.893 309.128 133.173 309.219 132.384 309.208C131.659 309.208 130.96 309.123 130.288 308.952C129.627 308.781 129.035 308.483 128.512 308.056C128 307.619 127.589 307.027 127.28 306.28C126.971 305.533 126.816 304.589 126.816 303.448C126.816 302.52 126.96 301.715 127.248 301.032C127.536 300.339 127.925 299.768 128.416 299.32C128.917 298.861 129.493 298.52 130.144 298.296C130.805 298.061 131.504 297.944 132.24 297.944C132.72 297.944 133.184 297.971 133.632 298.024C134.08 298.067 134.491 298.12 134.864 298.184C135.237 298.237 135.595 298.307 135.936 298.392L135.712 299.624ZM138.23 300.936L139.51 300.792V309H138.23V300.936ZM138.022 298.648C138.022 298.403 138.102 298.2 138.262 298.04C138.433 297.869 138.641 297.784 138.886 297.784C139.142 297.784 139.355 297.869 139.526 298.04C139.707 298.2 139.798 298.403 139.798 298.648C139.798 298.893 139.707 299.101 139.526 299.272C139.355 299.432 139.142 299.512 138.886 299.512C138.641 299.512 138.433 299.432 138.262 299.272C138.102 299.101 138.022 298.893 138.022 298.648ZM143.68 298.552V300.952H146V301.992H143.68V306.264C143.68 306.616 143.686 306.909 143.696 307.144C143.718 307.379 143.755 307.565 143.808 307.704C143.862 307.843 143.936 307.944 144.032 308.008C144.128 308.061 144.251 308.088 144.4 308.088C144.806 308.077 145.275 307.928 145.808 307.64L146.192 308.616C145.84 308.851 145.51 309.005 145.2 309.08C144.902 309.165 144.603 309.208 144.304 309.208C143.6 309.208 143.104 309.011 142.816 308.616C142.539 308.211 142.4 307.544 142.4 306.616V301.992H140.928V300.952H142.4V298.712L143.68 298.552Z" fill="#444547"/>
<path d="M138.293 272.707C138.683 273.098 139.317 273.098 139.707 272.707L146.071 266.343C146.462 265.953 146.462 265.319 146.071 264.929C145.681 264.538 145.047 264.538 144.657 264.929L139 270.586L133.343 264.929C132.953 264.538 132.319 264.538 131.929 264.929C131.538 265.319 131.538 265.953 131.929 266.343L138.293 272.707ZM138 133V272H140V133H138Z" fill="#444547"/>
<path d="M317.787 331C327.61 331 335.574 318.464 335.574 303C335.574 287.536 327.61 275 317.787 275C307.964 275 300 287.536 300 303C300 318.464 307.964 331 317.787 331Z" fill="#FAC5CB"/>
<path d="M398.214 275H317.787V331H398.214V275Z" fill="#FAC5CB"/>
<path d="M398.213 331C408.036 331 416 318.464 416 303C416 287.536 408.036 275 398.213 275C388.39 275 380.426 287.536 380.426 303C380.426 318.464 388.39 331 398.213 331Z" fill="#FAC5CB"/>
<path d="M557.612 305.971C569.297 305.971 578.769 294.949 578.769 281.353C578.769 267.757 569.297 256.735 557.612 256.735C545.927 256.735 536.455 267.757 536.455 281.353C536.455 294.949 545.927 305.971 557.612 305.971Z" fill="#B8BDF0"/>
<path d="M573.127 347C584.812 347 594.284 335.978 594.284 322.382C594.284 308.786 584.812 297.764 573.127 297.764C561.442 297.764 551.97 308.786 551.97 322.382C551.97 335.978 561.442 347 573.127 347Z" fill="#B8BDF0"/>
<path d="M541.157 333.324C552.842 333.324 562.314 322.302 562.314 308.706C562.314 295.11 552.842 284.088 541.157 284.088C529.472 284.088 520 295.11 520 308.706C520 322.302 529.472 333.324 541.157 333.324Z" fill="#B8BDF0"/>
<path d="M607.918 342.077C619.603 342.077 629.075 331.055 629.075 317.459C629.075 303.863 619.603 292.841 607.918 292.841C596.234 292.841 586.761 303.863 586.761 317.459C586.761 331.055 596.234 342.077 607.918 342.077Z" fill="#B8BDF0"/>
<path d="M595.664 299.953C595.664 313.347 586.347 324.071 575.007 324.071C563.667 324.071 554.351 313.347 554.351 299.953C554.351 286.559 563.667 275.835 575.007 275.835C586.347 275.835 595.664 286.559 595.664 299.953Z" fill="#B8BDF0" stroke="#444547"/>
<path d="M624.843 324.571C636.528 324.571 646 313.549 646 299.953C646 286.357 636.528 275.335 624.843 275.335C613.158 275.335 603.686 286.357 603.686 299.953C603.686 313.549 613.158 324.571 624.843 324.571Z" fill="#B8BDF0"/>
<path d="M596.164 308.706C607.849 308.706 617.321 297.684 617.321 284.088C617.321 270.492 607.849 259.47 596.164 259.47C584.479 259.47 575.007 270.492 575.007 284.088C575.007 297.684 584.479 308.706 596.164 308.706Z" fill="#B8BDF0"/>
<path d="M575.007 303.236C586.692 303.236 596.164 292.214 596.164 278.618C596.164 265.022 586.692 254 575.007 254C563.322 254 553.85 265.022 553.85 278.618C553.85 292.214 563.322 303.236 575.007 303.236Z" fill="#B8BDF0"/>
<path d="M557.612 315.271C569.297 315.271 578.769 304.249 578.769 290.653C578.769 277.057 569.297 266.035 557.612 266.035C545.927 266.035 536.455 277.057 536.455 290.653C536.455 304.249 545.927 315.271 557.612 315.271Z" fill="#B8BDF0"/>
<path d="M585.351 317.459C597.036 317.459 606.508 306.437 606.508 292.841C606.508 279.245 597.036 268.223 585.351 268.223C573.666 268.223 564.194 279.245 564.194 292.841C564.194 306.437 573.666 317.459 585.351 317.459Z" fill="#B8BDF0"/>
<path d="M573.127 339.889C584.812 339.889 594.284 328.867 594.284 315.271C594.284 301.675 584.812 290.653 573.127 290.653C561.442 290.653 551.97 301.675 551.97 315.271C551.97 328.867 561.442 339.889 573.127 339.889Z" fill="#B8BDF0"/>
<path d="M606.507 327.853C618.192 327.853 627.664 316.831 627.664 303.235C627.664 289.639 618.192 278.617 606.507 278.617C594.822 278.617 585.35 289.639 585.35 303.235C585.35 316.831 594.822 327.853 606.507 327.853Z" fill="#B8BDF0"/>
<path d="M289.707 301.707C290.098 301.317 290.098 300.683 289.707 300.293L283.343 293.929C282.953 293.538 282.319 293.538 281.929 293.929C281.538 294.319 281.538 294.953 281.929 295.343L287.586 301L281.929 306.657C281.538 307.047 281.538 307.681 281.929 308.071C282.319 308.462 282.953 308.462 283.343 308.071L289.707 301.707ZM190 302H289V300H190V302Z" fill="#444547"/>
<path d="M515.707 301.707C516.098 301.317 516.098 300.683 515.707 300.293L509.343 293.929C508.953 293.538 508.319 293.538 507.929 293.929C507.538 294.319 507.538 294.953 507.929 295.343L513.586 301L507.929 306.657C507.538 307.047 507.538 307.681 507.929 308.071C508.319 308.462 508.953 308.462 509.343 308.071L515.707 301.707ZM416 302H515V300H416V302Z" fill="#444547"/>
<path d="M337.715 291.624C337.448 291.539 337.165 291.464 336.867 291.4C336.568 291.325 336.237 291.267 335.875 291.224C335.523 291.171 335.149 291.144 334.755 291.144C334.115 291.144 333.571 291.283 333.123 291.56C332.675 291.837 332.307 292.195 332.019 292.632C331.741 293.059 331.539 293.539 331.411 294.072C331.283 294.605 331.219 295.133 331.219 295.656C331.219 296.317 331.309 296.92 331.491 297.464C331.683 297.997 331.939 298.456 332.259 298.84C332.589 299.213 332.968 299.501 333.395 299.704C333.832 299.907 334.291 300.008 334.771 300.008C335.219 300.008 335.629 299.987 336.003 299.944C336.376 299.891 336.696 299.837 336.963 299.784C337.272 299.72 337.549 299.645 337.795 299.56L338.067 300.696C337.779 300.792 337.459 300.877 337.107 300.952C336.808 301.016 336.461 301.075 336.067 301.128C335.672 301.181 335.24 301.208 334.771 301.208C333.928 301.208 333.187 301.069 332.547 300.792C331.917 300.515 331.389 300.131 330.963 299.64C330.547 299.139 330.232 298.552 330.019 297.88C329.805 297.197 329.699 296.451 329.699 295.64C329.699 294.712 329.827 293.896 330.083 293.192C330.339 292.477 330.691 291.88 331.139 291.4C331.587 290.92 332.12 290.557 332.739 290.312C333.357 290.067 334.035 289.944 334.771 289.944C335.219 289.944 335.635 289.971 336.019 290.024C336.413 290.067 336.771 290.125 337.091 290.2C337.421 290.275 337.725 290.355 338.003 290.44L337.715 291.624ZM340.01 290.088H341.354V301H340.01V290.088ZM351.59 291.624C351.323 291.539 351.04 291.464 350.742 291.4C350.443 291.325 350.112 291.267 349.75 291.224C349.398 291.171 349.024 291.144 348.63 291.144C347.99 291.144 347.446 291.283 346.998 291.56C346.55 291.837 346.182 292.195 345.894 292.632C345.616 293.059 345.414 293.539 345.286 294.072C345.158 294.605 345.094 295.133 345.094 295.656C345.094 296.317 345.184 296.92 345.366 297.464C345.558 297.997 345.814 298.456 346.134 298.84C346.464 299.213 346.843 299.501 347.27 299.704C347.707 299.907 348.166 300.008 348.646 300.008C349.094 300.008 349.504 299.987 349.878 299.944C350.251 299.891 350.571 299.837 350.838 299.784C351.147 299.72 351.424 299.645 351.67 299.56L351.942 300.696C351.654 300.792 351.334 300.877 350.982 300.952C350.683 301.016 350.336 301.075 349.942 301.128C349.547 301.181 349.115 301.208 348.646 301.208C347.803 301.208 347.062 301.069 346.422 300.792C345.792 300.515 345.264 300.131 344.838 299.64C344.422 299.139 344.107 298.552 343.894 297.88C343.68 297.197 343.574 296.451 343.574 295.64C343.574 294.712 343.702 293.896 343.958 293.192C344.214 292.477 344.566 291.88 345.014 291.4C345.462 290.92 345.995 290.557 346.614 290.312C347.232 290.067 347.91 289.944 348.646 289.944C349.094 289.944 349.51 289.971 349.894 290.024C350.288 290.067 350.646 290.125 350.966 290.2C351.296 290.275 351.6 290.355 351.878 290.44L351.59 291.624ZM355.229 299.768H357.389C357.975 299.768 358.525 299.693 359.037 299.544C359.559 299.395 360.013 299.155 360.397 298.824C360.791 298.483 361.101 298.04 361.325 297.496C361.549 296.952 361.661 296.291 361.661 295.512C361.661 294.787 361.559 294.163 361.357 293.64C361.154 293.107 360.866 292.669 360.493 292.328C360.13 291.987 359.682 291.736 359.149 291.576C358.626 291.405 358.039 291.32 357.389 291.32H355.229V299.768ZM353.885 290.088H357.389C358.253 290.088 359.031 290.195 359.725 290.408C360.429 290.621 361.031 290.952 361.533 291.4C362.034 291.848 362.418 292.413 362.685 293.096C362.962 293.779 363.101 294.584 363.101 295.512C363.101 296.451 362.951 297.267 362.653 297.96C362.354 298.643 361.949 299.213 361.437 299.672C360.925 300.12 360.322 300.456 359.629 300.68C358.935 300.893 358.189 301 357.389 301H353.885V290.088ZM367.858 292.952H369.202L370.146 296.584C370.232 296.893 370.306 297.224 370.37 297.576C370.445 297.917 370.514 298.237 370.578 298.536C370.642 298.888 370.712 299.235 370.786 299.576H370.802C370.877 299.235 370.962 298.888 371.058 298.536C371.144 298.237 371.234 297.917 371.33 297.576C371.426 297.224 371.522 296.893 371.618 296.584L372.754 292.952H374.466L375.378 296.584C375.453 296.893 375.528 297.224 375.602 297.576C375.688 297.917 375.757 298.237 375.81 298.536C375.874 298.888 375.938 299.235 376.002 299.576H376.018C376.114 299.224 376.216 298.872 376.322 298.52C376.408 298.221 376.504 297.901 376.61 297.56C376.717 297.208 376.818 296.883 376.914 296.584L378.034 292.952H379.362L376.722 301H375.298L374.146 296.584C374.04 296.179 373.949 295.816 373.874 295.496C373.81 295.165 373.752 294.888 373.698 294.664C373.645 294.397 373.597 294.163 373.554 293.96H373.522C373.48 294.163 373.426 294.397 373.362 294.664C373.309 294.888 373.234 295.165 373.138 295.496C373.042 295.816 372.936 296.179 372.818 296.584L371.458 301H370.034L367.858 292.952ZM385.441 287.4L386.641 287.848L380.641 304.344L379.441 303.896L385.441 287.4ZM336.471 306.088H338.983C340.369 306.088 341.393 306.333 342.055 306.824C342.727 307.315 343.062 308.141 343.062 309.304C343.062 309.944 342.94 310.477 342.695 310.904C342.449 311.331 342.14 311.677 341.767 311.944C341.404 312.2 341.009 312.387 340.583 312.504C340.156 312.611 339.761 312.664 339.399 312.664H337.815V317H336.471V306.088ZM337.815 311.464H339.286C339.649 311.464 339.975 311.432 340.263 311.368C340.561 311.293 340.817 311.176 341.031 311.016C341.244 310.845 341.409 310.621 341.527 310.344C341.644 310.056 341.703 309.699 341.703 309.272C341.703 308.845 341.639 308.504 341.511 308.248C341.393 307.981 341.212 307.779 340.967 307.64C340.732 307.501 340.433 307.411 340.071 307.368C339.708 307.315 339.287 307.288 338.807 307.288H337.815V311.464ZM349.671 316.12H349.639C349.543 316.195 349.404 316.296 349.223 316.424C349.042 316.541 348.834 316.659 348.599 316.776C348.364 316.893 348.103 316.995 347.815 317.08C347.538 317.165 347.255 317.208 346.967 317.208C346.572 317.208 346.236 317.155 345.959 317.048C345.682 316.952 345.458 316.787 345.287 316.552C345.116 316.317 344.994 316.008 344.919 315.624C344.844 315.24 344.807 314.76 344.807 314.184V308.952H346.087V313.992C346.087 314.312 346.092 314.6 346.103 314.856C346.114 315.112 346.151 315.331 346.215 315.512C346.279 315.693 346.38 315.837 346.519 315.944C346.668 316.04 346.876 316.088 347.143 316.088C347.42 316.088 347.708 316.029 348.007 315.912C348.306 315.795 348.578 315.661 348.823 315.512C349.111 315.341 349.394 315.149 349.671 314.936V308.952H350.951V315.96C350.962 316.344 350.988 316.691 351.031 317L349.767 317.128L349.671 316.12ZM353.277 305.016L354.557 304.872V317H353.277V305.016ZM361.671 316.12H361.639C361.543 316.195 361.404 316.296 361.223 316.424C361.042 316.541 360.834 316.659 360.599 316.776C360.364 316.893 360.103 316.995 359.815 317.08C359.538 317.165 359.255 317.208 358.967 317.208C358.572 317.208 358.236 317.155 357.959 317.048C357.682 316.952 357.458 316.787 357.287 316.552C357.116 316.317 356.994 316.008 356.919 315.624C356.844 315.24 356.807 314.76 356.807 314.184V308.952H358.087V313.992C358.087 314.312 358.092 314.6 358.103 314.856C358.114 315.112 358.151 315.331 358.215 315.512C358.279 315.693 358.38 315.837 358.519 315.944C358.668 316.04 358.876 316.088 359.143 316.088C359.42 316.088 359.708 316.029 360.007 315.912C360.306 315.795 360.578 315.661 360.823 315.512C361.111 315.341 361.394 315.149 361.671 314.936V308.952H362.951V315.96C362.962 316.344 362.988 316.691 363.031 317L361.767 317.128L361.671 316.12ZM365.293 310.408C365.293 310.045 365.261 309.608 365.197 309.096L366.397 308.936L366.573 309.944C366.861 309.731 367.144 309.544 367.421 309.384C367.698 309.224 367.997 309.085 368.317 308.968C368.637 308.851 368.962 308.792 369.293 308.792C369.826 308.792 370.248 308.888 370.557 309.08C370.866 309.261 371.096 309.576 371.245 310.024C371.682 309.715 372.136 309.432 372.605 309.176C373.085 308.92 373.581 308.792 374.093 308.792C374.488 308.792 374.824 308.845 375.101 308.952C375.378 309.048 375.602 309.213 375.773 309.448C375.944 309.683 376.066 309.992 376.141 310.376C376.216 310.76 376.253 311.24 376.253 311.816V317H374.973V311.96C374.973 311.64 374.968 311.357 374.957 311.112C374.946 310.856 374.909 310.643 374.845 310.472C374.781 310.291 374.674 310.152 374.525 310.056C374.386 309.96 374.184 309.912 373.917 309.912C373.672 309.912 373.437 309.949 373.213 310.024C373 310.088 372.776 310.184 372.541 310.312C372.306 310.44 371.944 310.701 371.453 311.096V317H370.173V311.96C370.173 311.64 370.168 311.357 370.157 311.112C370.146 310.856 370.109 310.643 370.045 310.472C369.981 310.291 369.874 310.152 369.725 310.056C369.586 309.96 369.384 309.912 369.117 309.912C368.84 309.912 368.552 309.971 368.253 310.088C367.954 310.205 367.672 310.344 367.405 310.504C367.138 310.664 366.861 310.851 366.573 311.064V317H365.293V310.408ZM378.511 308.936L379.791 308.792V317H378.511V308.936ZM378.303 306.648C378.303 306.403 378.383 306.2 378.543 306.04C378.714 305.869 378.922 305.784 379.167 305.784C379.423 305.784 379.637 305.869 379.807 306.04C379.989 306.2 380.079 306.403 380.079 306.648C380.079 306.893 379.989 307.101 379.807 307.272C379.637 307.432 379.423 307.512 379.167 307.512C378.922 307.512 378.714 307.432 378.543 307.272C378.383 307.101 378.303 306.893 378.303 306.648Z" fill="#444547"/>
<path d="M573.832 296.624C573.565 296.539 573.283 296.464 572.984 296.4C572.685 296.325 572.355 296.267 571.992 296.224C571.64 296.171 571.267 296.144 570.872 296.144C570.232 296.144 569.688 296.283 569.24 296.56C568.792 296.837 568.424 297.195 568.136 297.632C567.859 298.059 567.656 298.539 567.528 299.072C567.4 299.605 567.336 300.133 567.336 300.656C567.336 301.317 567.427 301.92 567.608 302.464C567.8 302.997 568.056 303.456 568.376 303.84C568.707 304.213 569.085 304.501 569.512 304.704C569.949 304.907 570.408 305.008 570.888 305.008C571.336 305.008 571.747 304.987 572.12 304.944C572.493 304.891 572.813 304.837 573.08 304.784C573.389 304.72 573.667 304.645 573.912 304.56L574.184 305.696C573.896 305.792 573.576 305.877 573.224 305.952C572.925 306.016 572.579 306.075 572.184 306.128C571.789 306.181 571.357 306.208 570.888 306.208C570.045 306.208 569.304 306.069 568.664 305.792C568.035 305.515 567.507 305.131 567.08 304.64C566.664 304.139 566.349 303.552 566.136 302.88C565.923 302.197 565.816 301.451 565.816 300.64C565.816 299.712 565.944 298.896 566.2 298.192C566.456 297.477 566.808 296.88 567.256 296.4C567.704 295.92 568.237 295.557 568.856 295.312C569.475 295.067 570.152 294.944 570.888 294.944C571.336 294.944 571.752 294.971 572.136 295.024C572.531 295.067 572.888 295.125 573.208 295.2C573.539 295.275 573.843 295.355 574.12 295.44L573.832 296.624ZM575.871 294.016L577.151 293.872V306H575.871V294.016ZM580.361 302.016C580.361 303.051 580.59 303.824 581.049 304.336C581.518 304.837 582.148 305.088 582.937 305.088C583.716 305.088 584.324 304.837 584.761 304.336C585.198 303.835 585.417 303.083 585.417 302.08C585.417 301.013 585.182 300.219 584.713 299.696C584.254 299.173 583.625 298.912 582.825 298.912C582.025 298.912 581.412 299.173 580.985 299.696C580.569 300.208 580.361 300.981 580.361 302.016ZM579.001 302C579.001 301.189 579.129 300.517 579.385 299.984C579.641 299.44 579.966 299.008 580.361 298.688C580.756 298.357 581.177 298.128 581.625 298C582.084 297.861 582.516 297.792 582.921 297.792C583.305 297.792 583.721 297.856 584.169 297.984C584.628 298.101 585.049 298.32 585.433 298.64C585.817 298.949 586.137 299.371 586.393 299.904C586.649 300.427 586.777 301.093 586.777 301.904C586.777 302.747 586.644 303.445 586.377 304C586.121 304.555 585.796 304.997 585.401 305.328C585.006 305.648 584.58 305.872 584.121 306C583.662 306.139 583.236 306.208 582.841 306.208C582.436 306.208 582.009 306.144 581.561 306.016C581.113 305.888 580.697 305.669 580.313 305.36C579.94 305.04 579.625 304.608 579.369 304.064C579.124 303.52 579.001 302.832 579.001 302ZM593.452 305.12H593.42C593.324 305.195 593.186 305.296 593.004 305.424C592.823 305.541 592.615 305.659 592.38 305.776C592.146 305.893 591.884 305.995 591.596 306.08C591.319 306.165 591.036 306.208 590.748 306.208C590.354 306.208 590.018 306.155 589.74 306.048C589.463 305.952 589.239 305.787 589.068 305.552C588.898 305.317 588.775 305.008 588.7 304.624C588.626 304.24 588.588 303.76 588.588 303.184V297.952H589.868V302.992C589.868 303.312 589.874 303.6 589.884 303.856C589.895 304.112 589.932 304.331 589.996 304.512C590.06 304.693 590.162 304.837 590.3 304.944C590.45 305.04 590.658 305.088 590.924 305.088C591.202 305.088 591.49 305.029 591.788 304.912C592.087 304.795 592.359 304.661 592.604 304.512C592.892 304.341 593.175 304.149 593.452 303.936V297.952H594.732V304.96C594.743 305.344 594.77 305.691 594.812 306L593.548 306.128L593.452 305.12ZM602.082 299.152C601.698 299.045 601.4 298.981 601.186 298.96C600.973 298.928 600.754 298.912 600.53 298.912C600.082 298.912 599.698 298.992 599.378 299.152C599.058 299.312 598.792 299.536 598.578 299.824C598.376 300.101 598.226 300.427 598.13 300.8C598.034 301.163 597.986 301.552 597.986 301.968C597.986 302.341 598.024 302.715 598.098 303.088C598.184 303.461 598.312 303.797 598.482 304.096C598.653 304.395 598.861 304.635 599.106 304.816C599.352 304.997 599.645 305.088 599.986 305.088C600.221 305.088 600.461 305.045 600.706 304.96C600.962 304.875 601.197 304.779 601.41 304.672C601.624 304.555 601.848 304.411 602.082 304.24V299.152ZM602.098 305.36C601.853 305.531 601.613 305.675 601.378 305.792C601.154 305.899 600.904 305.995 600.626 306.08C600.36 306.165 600.098 306.208 599.842 306.208C598.84 306.208 598.05 305.856 597.474 305.152C596.909 304.437 596.626 303.397 596.626 302.032C596.626 301.221 596.754 300.544 597.01 300C597.277 299.456 597.608 299.024 598.002 298.704C598.397 298.373 598.818 298.139 599.266 298C599.725 297.861 600.146 297.792 600.53 297.792C600.722 297.792 600.925 297.808 601.138 297.84C601.352 297.861 601.666 297.925 602.082 298.032V294.016L603.362 293.872V304.544C603.362 304.693 603.362 304.853 603.362 305.024C603.373 305.184 603.384 305.344 603.394 305.504C603.416 305.664 603.437 305.829 603.458 306L602.226 306.128L602.098 305.36Z" fill="#444547"/>
</g>
<defs>
<filter id="filter0_d" x="0" y="0" width="715" height="477" filterUnits="userSpaceOnUse" color-interpolation-filters="sRGB">
<feFlood flood-opacity="0" result="BackgroundImageFix"/>
<feColorMatrix in="SourceAlpha" type="matrix" values="0 0 0 0 0 0 0 0 0 0 0 0 0 0 0 0 0 0 127 0" result="hardAlpha"/>
<feOffset dy="6"/>
<feGaussianBlur stdDeviation="18"/>
<feColorMatrix type="matrix" values="0 0 0 0 0 0 0 0 0 0 0 0 0 0 0 0 0 0 0.1 0"/>
<feBlend mode="normal" in2="BackgroundImageFix" result="effect1_dropShadow"/>
<feBlend mode="normal" in="SourceGraphic" in2="effect1_dropShadow" result="shape"/>
</filter>
</defs>
</svg>
