<svg width="715" height="477" viewBox="0 0 715 477" fill="none" xmlns="http://www.w3.org/2000/svg">
<g filter="url(#filter0_d)">
<path d="M667 30H48C41.3726 30 36 35.3726 36 42V423C36 429.627 41.3726 435 48 435H667C673.627 435 679 429.627 679 423V42C679 35.3726 673.627 30 667 30Z" fill="white"/>
<path d="M503.294 344.944C503.668 344.933 504.046 344.923 504.43 344.912C504.761 344.901 505.118 344.896 505.502 344.896C505.886 344.885 506.26 344.88 506.622 344.88H507.614V343.2C507.614 342.624 507.614 342.112 507.614 341.664C507.625 341.216 507.636 340.837 507.646 340.528C507.657 340.165 507.673 339.845 507.694 339.568L503.294 344.944ZM501.662 345.136L507.614 337.952H508.894V344.88H510.014V346H508.894V349.12H507.614V346H501.742L501.662 345.136Z" fill="#444547"/>
<path d="M308 89H143C137.477 89 133 93.4772 133 99V179C133 184.523 137.477 189 143 189H308C313.523 189 318 184.523 318 179V99C318 93.4772 313.523 89 308 89Z" fill="#D0ADD3"/>
<path d="M193.992 135.592C193.736 135.528 193.469 135.469 193.192 135.416C192.947 135.363 192.664 135.32 192.344 135.288C192.035 135.245 191.709 135.224 191.368 135.224C190.579 135.224 190.013 135.347 189.672 135.592C189.331 135.827 189.16 136.195 189.16 136.696C189.171 137.091 189.315 137.427 189.592 137.704C189.869 137.971 190.216 138.221 190.632 138.456C191.048 138.68 191.501 138.904 191.992 139.128C192.493 139.341 192.952 139.592 193.368 139.88C193.784 140.157 194.131 140.488 194.408 140.872C194.696 141.245 194.84 141.704 194.84 142.248C194.84 142.877 194.701 143.384 194.424 143.768C194.157 144.152 193.816 144.451 193.4 144.664C192.984 144.877 192.525 145.021 192.024 145.096C191.533 145.171 191.064 145.208 190.616 145.208C190.189 145.208 189.8 145.181 189.448 145.128C189.096 145.075 188.792 145.016 188.536 144.952C188.237 144.877 187.965 144.792 187.72 144.696L188.04 143.4C188.285 143.507 188.547 143.597 188.824 143.672C189.069 143.736 189.341 143.795 189.64 143.848C189.949 143.901 190.275 143.928 190.616 143.928C191.032 143.928 191.411 143.901 191.752 143.848C192.104 143.795 192.408 143.709 192.664 143.592C192.92 143.475 193.117 143.32 193.256 143.128C193.405 142.936 193.48 142.701 193.48 142.424C193.469 142.008 193.331 141.672 193.064 141.416C192.808 141.149 192.461 140.899 192.024 140.664C191.597 140.419 191.133 140.184 190.632 139.96C190.141 139.736 189.688 139.48 189.272 139.192C188.856 138.904 188.504 138.563 188.216 138.168C187.939 137.773 187.8 137.283 187.8 136.696C187.8 136.355 187.859 136.019 187.976 135.688C188.093 135.357 188.291 135.064 188.568 134.808C188.856 134.552 189.224 134.344 189.672 134.184C190.131 134.024 190.696 133.944 191.368 133.944C191.752 133.944 192.115 133.965 192.456 134.008C192.808 134.04 193.112 134.077 193.368 134.12C193.667 134.173 193.949 134.232 194.216 134.296L193.992 135.592ZM202.526 144.808C202.281 144.883 202.025 144.947 201.758 145C201.502 145.053 201.214 145.101 200.894 145.144C200.585 145.187 200.259 145.208 199.918 145.208C199.385 145.208 198.889 145.133 198.43 144.984C197.971 144.835 197.571 144.595 197.23 144.264C196.889 143.933 196.617 143.507 196.414 142.984C196.222 142.451 196.126 141.8 196.126 141.032C196.126 140.339 196.222 139.731 196.414 139.208C196.606 138.675 196.867 138.232 197.198 137.88C197.539 137.517 197.934 137.245 198.382 137.064C198.841 136.883 199.337 136.792 199.87 136.792C200.393 136.792 200.846 136.893 201.23 137.096C201.614 137.299 201.929 137.576 202.174 137.928C202.43 138.269 202.617 138.675 202.734 139.144C202.862 139.603 202.926 140.088 202.926 140.6L202.686 141.304H197.518C197.518 141.635 197.561 141.965 197.646 142.296C197.731 142.627 197.875 142.925 198.078 143.192C198.291 143.459 198.563 143.677 198.894 143.848C199.235 144.008 199.657 144.088 200.158 144.088C200.478 144.088 200.771 144.072 201.038 144.04C201.305 143.997 201.534 143.955 201.726 143.912C201.929 143.859 202.115 143.8 202.286 143.736L202.526 144.808ZM201.598 140.28C201.598 140.205 201.582 140.04 201.55 139.784C201.518 139.528 201.443 139.261 201.326 138.984C201.209 138.707 201.027 138.461 200.782 138.248C200.537 138.024 200.211 137.912 199.806 137.912C199.358 137.912 198.99 138.008 198.702 138.2C198.414 138.381 198.185 138.6 198.014 138.856C197.843 139.112 197.726 139.373 197.662 139.64C197.598 139.907 197.566 140.12 197.566 140.28H201.598ZM204.668 133.016L205.948 132.872V145H204.668V133.016ZM208.934 137.992H207.446V136.952H208.934C208.934 136.205 208.982 135.576 209.078 135.064C209.184 134.541 209.35 134.12 209.574 133.8C209.798 133.469 210.086 133.235 210.438 133.096C210.79 132.947 211.216 132.872 211.718 132.872C212.123 132.872 212.502 132.941 212.854 133.08C213.206 133.208 213.488 133.368 213.702 133.56L213.142 134.52C212.928 134.36 212.704 134.232 212.47 134.136C212.246 134.04 212 133.992 211.734 133.992C211.382 133.992 211.104 134.072 210.902 134.232C210.699 134.381 210.544 134.589 210.438 134.856C210.342 135.123 210.278 135.437 210.246 135.8C210.224 136.152 210.214 136.536 210.214 136.952H212.214V137.992H210.214V145H208.934V137.992ZM223.18 135.592C222.924 135.528 222.657 135.469 222.38 135.416C222.134 135.363 221.852 135.32 221.532 135.288C221.222 135.245 220.897 135.224 220.556 135.224C219.766 135.224 219.201 135.347 218.86 135.592C218.518 135.827 218.348 136.195 218.348 136.696C218.358 137.091 218.502 137.427 218.78 137.704C219.057 137.971 219.404 138.221 219.82 138.456C220.236 138.68 220.689 138.904 221.18 139.128C221.681 139.341 222.14 139.592 222.556 139.88C222.972 140.157 223.318 140.488 223.596 140.872C223.884 141.245 224.028 141.704 224.028 142.248C224.028 142.877 223.889 143.384 223.612 143.768C223.345 144.152 223.004 144.451 222.588 144.664C222.172 144.877 221.713 145.021 221.212 145.096C220.721 145.171 220.252 145.208 219.804 145.208C219.377 145.208 218.988 145.181 218.636 145.128C218.284 145.075 217.98 145.016 217.724 144.952C217.425 144.877 217.153 144.792 216.908 144.696L217.228 143.4C217.473 143.507 217.734 143.597 218.012 143.672C218.257 143.736 218.529 143.795 218.828 143.848C219.137 143.901 219.462 143.928 219.804 143.928C220.22 143.928 220.598 143.901 220.94 143.848C221.292 143.795 221.596 143.709 221.852 143.592C222.108 143.475 222.305 143.32 222.444 143.128C222.593 142.936 222.668 142.701 222.668 142.424C222.657 142.008 222.518 141.672 222.252 141.416C221.996 141.149 221.649 140.899 221.212 140.664C220.785 140.419 220.321 140.184 219.82 139.96C219.329 139.736 218.876 139.48 218.46 139.192C218.044 138.904 217.692 138.563 217.404 138.168C217.126 137.773 216.988 137.283 216.988 136.696C216.988 136.355 217.046 136.019 217.164 135.688C217.281 135.357 217.478 135.064 217.756 134.808C218.044 134.552 218.412 134.344 218.86 134.184C219.318 134.024 219.884 133.944 220.556 133.944C220.94 133.944 221.302 133.965 221.644 134.008C221.996 134.04 222.3 134.077 222.556 134.12C222.854 134.173 223.137 134.232 223.404 134.296L223.18 135.592ZM231.713 144.808C231.468 144.883 231.212 144.947 230.945 145C230.689 145.053 230.401 145.101 230.081 145.144C229.772 145.187 229.447 145.208 229.105 145.208C228.572 145.208 228.076 145.133 227.617 144.984C227.159 144.835 226.759 144.595 226.417 144.264C226.076 143.933 225.804 143.507 225.601 142.984C225.409 142.451 225.313 141.8 225.313 141.032C225.313 140.339 225.409 139.731 225.601 139.208C225.793 138.675 226.055 138.232 226.385 137.88C226.727 137.517 227.121 137.245 227.569 137.064C228.028 136.883 228.524 136.792 229.057 136.792C229.58 136.792 230.033 136.893 230.417 137.096C230.801 137.299 231.116 137.576 231.361 137.928C231.617 138.269 231.804 138.675 231.921 139.144C232.049 139.603 232.113 140.088 232.113 140.6L231.873 141.304H226.705C226.705 141.635 226.748 141.965 226.833 142.296C226.919 142.627 227.063 142.925 227.265 143.192C227.479 143.459 227.751 143.677 228.081 143.848C228.423 144.008 228.844 144.088 229.345 144.088C229.665 144.088 229.959 144.072 230.225 144.04C230.492 143.997 230.721 143.955 230.913 143.912C231.116 143.859 231.303 143.8 231.473 143.736L231.713 144.808ZM230.785 140.28C230.785 140.205 230.769 140.04 230.737 139.784C230.705 139.528 230.631 139.261 230.513 138.984C230.396 138.707 230.215 138.461 229.969 138.248C229.724 138.024 229.399 137.912 228.993 137.912C228.545 137.912 228.177 138.008 227.889 138.2C227.601 138.381 227.372 138.6 227.201 138.856C227.031 139.112 226.913 139.373 226.849 139.64C226.785 139.907 226.753 140.12 226.753 140.28H230.785ZM233.871 138.248C233.871 138.003 233.844 137.619 233.791 137.096L234.975 136.936L235.103 138.104H235.119C235.311 137.859 235.498 137.645 235.679 137.464C235.86 137.283 236.047 137.128 236.239 137C236.442 136.861 236.634 136.792 236.815 136.792C237.06 136.781 237.402 136.808 237.839 136.872L237.551 138.104C237.199 138.04 236.954 138.013 236.815 138.024C236.634 138.024 236.442 138.109 236.239 138.28C236.036 138.451 235.86 138.632 235.711 138.824C235.519 139.059 235.332 139.325 235.151 139.624V145H233.871V138.248ZM238.254 136.952H239.662L241.614 142.632L241.966 143.896H241.982L242.35 142.632L244.43 136.952H245.774L242.654 145H241.214L238.254 136.952ZM247.074 136.936L248.354 136.792V145H247.074V136.936ZM246.866 134.648C246.866 134.403 246.946 134.2 247.106 134.04C247.277 133.869 247.485 133.784 247.73 133.784C247.986 133.784 248.199 133.869 248.37 134.04C248.551 134.2 248.642 134.403 248.642 134.648C248.642 134.893 248.551 135.101 248.37 135.272C248.199 135.432 247.986 135.512 247.73 135.512C247.485 135.512 247.277 135.432 247.106 135.272C246.946 135.101 246.866 134.893 246.866 134.648ZM255.644 138.12C255.463 138.077 255.212 138.035 254.892 137.992C254.572 137.939 254.247 137.912 253.916 137.912C253.436 137.912 253.041 138.008 252.732 138.2C252.433 138.392 252.199 138.643 252.028 138.952C251.857 139.251 251.74 139.587 251.676 139.96C251.612 140.323 251.58 140.68 251.58 141.032C251.58 141.576 251.649 142.045 251.788 142.44C251.927 142.824 252.108 143.139 252.332 143.384C252.567 143.629 252.833 143.811 253.132 143.928C253.431 144.035 253.745 144.088 254.076 144.088C254.3 144.088 254.513 144.077 254.716 144.056C254.929 144.024 255.121 143.992 255.292 143.96C255.473 143.917 255.644 143.869 255.804 143.816L256.06 144.888C255.836 144.952 255.628 145.005 255.436 145.048C255.244 145.091 255.015 145.128 254.748 145.16C254.492 145.192 254.215 145.208 253.916 145.208C253.329 145.208 252.807 145.133 252.348 144.984C251.889 144.835 251.5 144.595 251.18 144.264C250.871 143.933 250.631 143.501 250.46 142.968C250.3 142.435 250.22 141.784 250.22 141.016C250.22 140.269 250.321 139.629 250.524 139.096C250.737 138.552 251.015 138.115 251.356 137.784C251.697 137.443 252.087 137.192 252.524 137.032C252.972 136.872 253.436 136.792 253.916 136.792C254.172 136.792 254.417 136.808 254.652 136.84C254.897 136.861 255.111 136.888 255.292 136.92C255.505 136.963 255.708 137.005 255.9 137.048L255.644 138.12ZM263.401 144.808C263.156 144.883 262.9 144.947 262.633 145C262.377 145.053 262.089 145.101 261.769 145.144C261.46 145.187 261.134 145.208 260.793 145.208C260.26 145.208 259.764 145.133 259.305 144.984C258.846 144.835 258.446 144.595 258.105 144.264C257.764 143.933 257.492 143.507 257.289 142.984C257.097 142.451 257.001 141.8 257.001 141.032C257.001 140.339 257.097 139.731 257.289 139.208C257.481 138.675 257.742 138.232 258.073 137.88C258.414 137.517 258.809 137.245 259.257 137.064C259.716 136.883 260.212 136.792 260.745 136.792C261.268 136.792 261.721 136.893 262.105 137.096C262.489 137.299 262.804 137.576 263.049 137.928C263.305 138.269 263.492 138.675 263.609 139.144C263.737 139.603 263.801 140.088 263.801 140.6L263.561 141.304H258.393C258.393 141.635 258.436 141.965 258.521 142.296C258.606 142.627 258.75 142.925 258.953 143.192C259.166 143.459 259.438 143.677 259.769 143.848C260.11 144.008 260.532 144.088 261.033 144.088C261.353 144.088 261.646 144.072 261.913 144.04C262.18 143.997 262.409 143.955 262.601 143.912C262.804 143.859 262.99 143.8 263.161 143.736L263.401 144.808ZM262.473 140.28C262.473 140.205 262.457 140.04 262.425 139.784C262.393 139.528 262.318 139.261 262.201 138.984C262.084 138.707 261.902 138.461 261.657 138.248C261.412 138.024 261.086 137.912 260.681 137.912C260.233 137.912 259.865 138.008 259.577 138.2C259.289 138.381 259.06 138.6 258.889 138.856C258.718 139.112 258.601 139.373 258.537 139.64C258.473 139.907 258.441 140.12 258.441 140.28H262.473Z" fill="#444547"/>
<path d="M583 89H418C412.477 89 408 93.4772 408 99V179C408 184.523 412.477 189 418 189H583C588.523 189 593 184.523 593 179V99C593 93.4772 588.523 89 583 89Z" fill="#CFD8C1"/>
<path d="M462.832 135.624C462.565 135.539 462.283 135.464 461.984 135.4C461.685 135.325 461.355 135.267 460.992 135.224C460.64 135.171 460.267 135.144 459.872 135.144C459.232 135.144 458.688 135.283 458.24 135.56C457.792 135.837 457.424 136.195 457.136 136.632C456.859 137.059 456.656 137.539 456.528 138.072C456.4 138.605 456.336 139.133 456.336 139.656C456.336 140.317 456.427 140.92 456.608 141.464C456.8 141.997 457.056 142.456 457.376 142.84C457.707 143.213 458.085 143.501 458.512 143.704C458.949 143.907 459.408 144.008 459.888 144.008C460.336 144.008 460.747 143.987 461.12 143.944C461.493 143.891 461.813 143.837 462.08 143.784C462.389 143.72 462.667 143.645 462.912 143.56L463.184 144.696C462.896 144.792 462.576 144.877 462.224 144.952C461.925 145.016 461.579 145.075 461.184 145.128C460.789 145.181 460.357 145.208 459.888 145.208C459.045 145.208 458.304 145.069 457.664 144.792C457.035 144.515 456.507 144.131 456.08 143.64C455.664 143.139 455.349 142.552 455.136 141.88C454.923 141.197 454.816 140.451 454.816 139.64C454.816 138.712 454.944 137.896 455.2 137.192C455.456 136.477 455.808 135.88 456.256 135.4C456.704 134.92 457.237 134.557 457.856 134.312C458.475 134.067 459.152 133.944 459.888 133.944C460.336 133.944 460.752 133.971 461.136 134.024C461.531 134.067 461.888 134.125 462.208 134.2C462.539 134.275 462.843 134.355 463.12 134.44L462.832 135.624ZM465.408 141.016C465.408 142.051 465.637 142.824 466.096 143.336C466.565 143.837 467.194 144.088 467.984 144.088C468.762 144.088 469.37 143.837 469.808 143.336C470.245 142.835 470.464 142.083 470.464 141.08C470.464 140.013 470.229 139.219 469.76 138.696C469.301 138.173 468.672 137.912 467.872 137.912C467.072 137.912 466.458 138.173 466.032 138.696C465.616 139.208 465.408 139.981 465.408 141.016ZM464.048 141C464.048 140.189 464.176 139.517 464.432 138.984C464.688 138.44 465.013 138.008 465.408 137.688C465.802 137.357 466.224 137.128 466.672 137C467.13 136.861 467.562 136.792 467.968 136.792C468.352 136.792 468.768 136.856 469.216 136.984C469.674 137.101 470.096 137.32 470.48 137.64C470.864 137.949 471.184 138.371 471.44 138.904C471.696 139.427 471.824 140.093 471.824 140.904C471.824 141.747 471.69 142.445 471.424 143C471.168 143.555 470.842 143.997 470.448 144.328C470.053 144.648 469.626 144.872 469.168 145C468.709 145.139 468.282 145.208 467.888 145.208C467.482 145.208 467.056 145.144 466.608 145.016C466.16 144.888 465.744 144.669 465.36 144.36C464.986 144.04 464.672 143.608 464.416 143.064C464.17 142.52 464.048 141.832 464.048 141ZM473.699 138.552C473.71 138.328 473.683 137.843 473.619 137.096L474.803 136.936L474.979 137.96C475.299 137.747 475.614 137.56 475.923 137.4C476.243 137.24 476.569 137.101 476.899 136.984C477.23 136.856 477.55 136.792 477.859 136.792C478.297 136.792 478.659 136.845 478.947 136.952C479.246 137.048 479.486 137.213 479.667 137.448C479.849 137.683 479.977 137.992 480.051 138.376C480.137 138.76 480.179 139.24 480.179 139.816V145H478.899V139.96C478.899 139.64 478.894 139.357 478.883 139.112C478.873 138.856 478.825 138.643 478.739 138.472C478.665 138.291 478.542 138.152 478.371 138.056C478.211 137.96 477.982 137.912 477.683 137.912C477.406 137.912 477.113 137.976 476.803 138.104C476.494 138.221 476.19 138.36 475.891 138.52C475.593 138.68 475.289 138.867 474.979 139.08V145H473.699V138.552ZM486.785 138.264C486.337 138.125 485.937 138.035 485.585 137.992C485.244 137.939 484.929 137.912 484.641 137.912C484.268 137.912 483.953 138.003 483.697 138.184C483.452 138.365 483.329 138.6 483.329 138.888C483.34 139.144 483.452 139.363 483.665 139.544C483.879 139.725 484.124 139.891 484.401 140.04C484.689 140.179 485.004 140.333 485.345 140.504C485.697 140.675 486.023 140.867 486.321 141.08C486.631 141.293 486.881 141.549 487.073 141.848C487.265 142.147 487.367 142.504 487.377 142.92C487.367 143.368 487.265 143.741 487.073 144.04C486.892 144.328 486.652 144.563 486.353 144.744C486.065 144.915 485.751 145.032 485.409 145.096C485.068 145.171 484.748 145.208 484.449 145.208C484.065 145.208 483.665 145.187 483.249 145.144C482.844 145.101 482.407 145.011 481.937 144.872L482.177 143.72C482.657 143.848 483.095 143.944 483.489 144.008C483.884 144.061 484.209 144.088 484.465 144.088C484.657 144.088 484.844 144.067 485.025 144.024C485.217 143.981 485.388 143.923 485.537 143.848C485.687 143.763 485.804 143.656 485.889 143.528C485.985 143.4 486.033 143.256 486.033 143.096C486.023 142.797 485.921 142.547 485.729 142.344C485.537 142.131 485.287 141.944 484.977 141.784C484.679 141.613 484.353 141.448 484.001 141.288C483.66 141.117 483.335 140.925 483.025 140.712C482.727 140.488 482.476 140.227 482.273 139.928C482.071 139.619 481.969 139.24 481.969 138.792C481.969 138.472 482.049 138.189 482.209 137.944C482.38 137.688 482.593 137.48 482.849 137.32C483.116 137.149 483.404 137.021 483.713 136.936C484.033 136.84 484.343 136.792 484.641 136.792C484.951 136.792 485.297 136.819 485.681 136.872C486.065 136.915 486.508 137 487.009 137.128L486.785 138.264ZM489.105 136.936L490.385 136.792V145H489.105V136.936ZM488.897 134.648C488.897 134.403 488.977 134.2 489.137 134.04C489.308 133.869 489.516 133.784 489.761 133.784C490.017 133.784 490.23 133.869 490.401 134.04C490.582 134.2 490.673 134.403 490.673 134.648C490.673 134.893 490.582 135.101 490.401 135.272C490.23 135.432 490.017 135.512 489.761 135.512C489.516 135.512 489.308 135.432 489.137 135.272C488.977 135.101 488.897 134.893 488.897 134.648ZM497.035 138.264C496.587 138.125 496.187 138.035 495.835 137.992C495.494 137.939 495.179 137.912 494.891 137.912C494.518 137.912 494.203 138.003 493.947 138.184C493.702 138.365 493.579 138.6 493.579 138.888C493.59 139.144 493.702 139.363 493.915 139.544C494.129 139.725 494.374 139.891 494.651 140.04C494.939 140.179 495.254 140.333 495.595 140.504C495.947 140.675 496.273 140.867 496.571 141.08C496.881 141.293 497.131 141.549 497.323 141.848C497.515 142.147 497.617 142.504 497.627 142.92C497.617 143.368 497.515 143.741 497.323 144.04C497.142 144.328 496.902 144.563 496.603 144.744C496.315 144.915 496.001 145.032 495.659 145.096C495.318 145.171 494.998 145.208 494.699 145.208C494.315 145.208 493.915 145.187 493.499 145.144C493.094 145.101 492.657 145.011 492.187 144.872L492.427 143.72C492.907 143.848 493.345 143.944 493.739 144.008C494.134 144.061 494.459 144.088 494.715 144.088C494.907 144.088 495.094 144.067 495.275 144.024C495.467 143.981 495.638 143.923 495.787 143.848C495.937 143.763 496.054 143.656 496.139 143.528C496.235 143.4 496.283 143.256 496.283 143.096C496.273 142.797 496.171 142.547 495.979 142.344C495.787 142.131 495.537 141.944 495.227 141.784C494.929 141.613 494.603 141.448 494.251 141.288C493.91 141.117 493.585 140.925 493.275 140.712C492.977 140.488 492.726 140.227 492.523 139.928C492.321 139.619 492.219 139.24 492.219 138.792C492.219 138.472 492.299 138.189 492.459 137.944C492.63 137.688 492.843 137.48 493.099 137.32C493.366 137.149 493.654 137.021 493.963 136.936C494.283 136.84 494.593 136.792 494.891 136.792C495.201 136.792 495.547 136.819 495.931 136.872C496.315 136.915 496.758 137 497.259 137.128L497.035 138.264ZM501.227 134.552V136.952H503.547V137.992H501.227V142.264C501.227 142.616 501.232 142.909 501.243 143.144C501.264 143.379 501.302 143.565 501.355 143.704C501.408 143.843 501.483 143.944 501.579 144.008C501.675 144.061 501.798 144.088 501.947 144.088C502.352 144.077 502.822 143.928 503.355 143.64L503.739 144.616C503.387 144.851 503.056 145.005 502.747 145.08C502.448 145.165 502.15 145.208 501.851 145.208C501.147 145.208 500.651 145.011 500.363 144.616C500.086 144.211 499.947 143.544 499.947 142.616V137.992H498.475V136.952H499.947V134.712L501.227 134.552ZM511.073 144.808C510.827 144.883 510.571 144.947 510.305 145C510.049 145.053 509.761 145.101 509.441 145.144C509.131 145.187 508.806 145.208 508.465 145.208C507.931 145.208 507.435 145.133 506.977 144.984C506.518 144.835 506.118 144.595 505.777 144.264C505.435 143.933 505.163 143.507 504.961 142.984C504.769 142.451 504.673 141.8 504.673 141.032C504.673 140.339 504.769 139.731 504.961 139.208C505.153 138.675 505.414 138.232 505.745 137.88C506.086 137.517 506.481 137.245 506.929 137.064C507.387 136.883 507.883 136.792 508.417 136.792C508.939 136.792 509.393 136.893 509.777 137.096C510.161 137.299 510.475 137.576 510.721 137.928C510.977 138.269 511.163 138.675 511.281 139.144C511.409 139.603 511.473 140.088 511.473 140.6L511.233 141.304H506.065C506.065 141.635 506.107 141.965 506.193 142.296C506.278 142.627 506.422 142.925 506.625 143.192C506.838 143.459 507.11 143.677 507.441 143.848C507.782 144.008 508.203 144.088 508.705 144.088C509.025 144.088 509.318 144.072 509.585 144.04C509.851 143.997 510.081 143.955 510.273 143.912C510.475 143.859 510.662 143.8 510.833 143.736L511.073 144.808ZM510.145 140.28C510.145 140.205 510.129 140.04 510.097 139.784C510.065 139.528 509.99 139.261 509.873 138.984C509.755 138.707 509.574 138.461 509.329 138.248C509.083 138.024 508.758 137.912 508.353 137.912C507.905 137.912 507.537 138.008 507.249 138.2C506.961 138.381 506.731 138.6 506.561 138.856C506.39 139.112 506.273 139.373 506.209 139.64C506.145 139.907 506.113 140.12 506.113 140.28H510.145ZM513.231 138.552C513.241 138.328 513.215 137.843 513.151 137.096L514.335 136.936L514.511 137.96C514.831 137.747 515.145 137.56 515.455 137.4C515.775 137.24 516.1 137.101 516.431 136.984C516.761 136.856 517.081 136.792 517.391 136.792C517.828 136.792 518.191 136.845 518.479 136.952C518.777 137.048 519.017 137.213 519.199 137.448C519.38 137.683 519.508 137.992 519.583 138.376C519.668 138.76 519.711 139.24 519.711 139.816V145H518.431V139.96C518.431 139.64 518.425 139.357 518.415 139.112C518.404 138.856 518.356 138.643 518.271 138.472C518.196 138.291 518.073 138.152 517.903 138.056C517.743 137.96 517.513 137.912 517.215 137.912C516.937 137.912 516.644 137.976 516.335 138.104C516.025 138.221 515.721 138.36 515.423 138.52C515.124 138.68 514.82 138.867 514.511 139.08V145H513.231V138.552ZM526.957 138.12C526.775 138.077 526.525 138.035 526.205 137.992C525.885 137.939 525.559 137.912 525.229 137.912C524.749 137.912 524.354 138.008 524.045 138.2C523.746 138.392 523.511 138.643 523.341 138.952C523.17 139.251 523.053 139.587 522.989 139.96C522.925 140.323 522.893 140.68 522.893 141.032C522.893 141.576 522.962 142.045 523.101 142.44C523.239 142.824 523.421 143.139 523.645 143.384C523.879 143.629 524.146 143.811 524.445 143.928C524.743 144.035 525.058 144.088 525.389 144.088C525.613 144.088 525.826 144.077 526.029 144.056C526.242 144.024 526.434 143.992 526.605 143.96C526.786 143.917 526.957 143.869 527.117 143.816L527.373 144.888C527.149 144.952 526.941 145.005 526.749 145.048C526.557 145.091 526.327 145.128 526.061 145.16C525.805 145.192 525.527 145.208 525.229 145.208C524.642 145.208 524.119 145.133 523.661 144.984C523.202 144.835 522.813 144.595 522.493 144.264C522.183 143.933 521.943 143.501 521.773 142.968C521.613 142.435 521.533 141.784 521.533 141.016C521.533 140.269 521.634 139.629 521.837 139.096C522.05 138.552 522.327 138.115 522.669 137.784C523.01 137.443 523.399 137.192 523.837 137.032C524.285 136.872 524.749 136.792 525.229 136.792C525.485 136.792 525.73 136.808 525.965 136.84C526.21 136.861 526.423 136.888 526.605 136.92C526.818 136.963 527.021 137.005 527.213 137.048L526.957 138.12ZM527.909 136.952H529.269L530.773 140.584C530.922 140.936 531.056 141.288 531.173 141.64C531.301 141.992 531.413 142.307 531.509 142.584C531.626 142.915 531.728 143.235 531.813 143.544H531.829C531.925 143.235 532.032 142.915 532.149 142.584C532.245 142.307 532.357 141.992 532.485 141.64C532.613 141.288 532.746 140.936 532.885 140.584L534.277 136.952H535.621L531.813 146.552C531.664 146.947 531.466 147.288 531.221 147.576C530.986 147.864 530.757 148.104 530.533 148.296C530.266 148.52 529.989 148.712 529.701 148.872L529.077 147.768C529.301 147.661 529.509 147.528 529.701 147.368C529.872 147.229 530.042 147.053 530.213 146.84C530.384 146.637 530.522 146.392 530.629 146.104L531.125 144.792L527.909 136.952Z" fill="#444547"/>
<path d="M308 276H143C137.477 276 133 280.477 133 286V366C133 371.523 137.477 376 143 376H308C313.523 376 318 371.523 318 366V286C318 280.477 313.523 276 308 276Z" fill="#B8BDF0"/>
<path d="M174.696 322.336H171.272V321.088H179.464V322.336H176.04V332H174.696V322.336ZM180.886 323.936L182.166 323.792V332H180.886V323.936ZM180.678 321.648C180.678 321.403 180.758 321.2 180.918 321.04C181.089 320.869 181.297 320.784 181.542 320.784C181.798 320.784 182.012 320.869 182.182 321.04C182.364 321.2 182.454 321.403 182.454 321.648C182.454 321.893 182.364 322.101 182.182 322.272C182.012 322.432 181.798 322.512 181.542 322.512C181.297 322.512 181.089 322.432 180.918 322.272C180.758 322.101 180.678 321.893 180.678 321.648ZM184.481 325.408C184.481 325.045 184.449 324.608 184.385 324.096L185.585 323.936L185.761 324.944C186.049 324.731 186.331 324.544 186.609 324.384C186.886 324.224 187.185 324.085 187.505 323.968C187.825 323.851 188.15 323.792 188.481 323.792C189.014 323.792 189.435 323.888 189.745 324.08C190.054 324.261 190.283 324.576 190.433 325.024C190.87 324.715 191.323 324.432 191.793 324.176C192.273 323.92 192.769 323.792 193.281 323.792C193.675 323.792 194.011 323.845 194.289 323.952C194.566 324.048 194.79 324.213 194.961 324.448C195.131 324.683 195.254 324.992 195.329 325.376C195.403 325.76 195.441 326.24 195.441 326.816V332H194.161V326.96C194.161 326.64 194.155 326.357 194.145 326.112C194.134 325.856 194.097 325.643 194.033 325.472C193.969 325.291 193.862 325.152 193.713 325.056C193.574 324.96 193.371 324.912 193.105 324.912C192.859 324.912 192.625 324.949 192.401 325.024C192.187 325.088 191.963 325.184 191.729 325.312C191.494 325.44 191.131 325.701 190.641 326.096V332H189.361V326.96C189.361 326.64 189.355 326.357 189.345 326.112C189.334 325.856 189.297 325.643 189.233 325.472C189.169 325.291 189.062 325.152 188.913 325.056C188.774 324.96 188.571 324.912 188.305 324.912C188.027 324.912 187.739 324.971 187.441 325.088C187.142 325.205 186.859 325.344 186.593 325.504C186.326 325.664 186.049 325.851 185.761 326.064V332H184.481V325.408ZM203.651 331.808C203.406 331.883 203.15 331.947 202.883 332C202.627 332.053 202.339 332.101 202.019 332.144C201.71 332.187 201.384 332.208 201.043 332.208C200.51 332.208 200.014 332.133 199.555 331.984C199.096 331.835 198.696 331.595 198.355 331.264C198.014 330.933 197.742 330.507 197.539 329.984C197.347 329.451 197.251 328.8 197.251 328.032C197.251 327.339 197.347 326.731 197.539 326.208C197.731 325.675 197.992 325.232 198.323 324.88C198.664 324.517 199.059 324.245 199.507 324.064C199.966 323.883 200.462 323.792 200.995 323.792C201.518 323.792 201.971 323.893 202.355 324.096C202.739 324.299 203.054 324.576 203.299 324.928C203.555 325.269 203.742 325.675 203.859 326.144C203.987 326.603 204.051 327.088 204.051 327.6L203.811 328.304H198.643C198.643 328.635 198.686 328.965 198.771 329.296C198.856 329.627 199 329.925 199.203 330.192C199.416 330.459 199.688 330.677 200.019 330.848C200.36 331.008 200.782 331.088 201.283 331.088C201.603 331.088 201.896 331.072 202.163 331.04C202.43 330.997 202.659 330.955 202.851 330.912C203.054 330.859 203.24 330.8 203.411 330.736L203.651 331.808ZM202.723 327.28C202.723 327.205 202.707 327.04 202.675 326.784C202.643 326.528 202.568 326.261 202.451 325.984C202.334 325.707 202.152 325.461 201.907 325.248C201.662 325.024 201.336 324.912 200.931 324.912C200.483 324.912 200.115 325.008 199.827 325.2C199.539 325.381 199.31 325.6 199.139 325.856C198.968 326.112 198.851 326.373 198.787 326.64C198.723 326.907 198.691 327.12 198.691 327.28H202.723ZM211.321 321.552V323.952H213.641V324.992H211.321V329.264C211.321 329.616 211.326 329.909 211.337 330.144C211.358 330.379 211.396 330.565 211.449 330.704C211.502 330.843 211.577 330.944 211.673 331.008C211.769 331.061 211.892 331.088 212.041 331.088C212.446 331.077 212.916 330.928 213.449 330.64L213.833 331.616C213.481 331.851 213.15 332.005 212.841 332.08C212.542 332.165 212.244 332.208 211.945 332.208C211.241 332.208 210.745 332.011 210.457 331.616C210.18 331.211 210.041 330.544 210.041 329.616V324.992H208.569V323.952H210.041V321.712L211.321 321.552ZM216.127 328.016C216.127 329.051 216.356 329.824 216.815 330.336C217.284 330.837 217.913 331.088 218.703 331.088C219.481 331.088 220.089 330.837 220.527 330.336C220.964 329.835 221.183 329.083 221.183 328.08C221.183 327.013 220.948 326.219 220.479 325.696C220.02 325.173 219.391 324.912 218.591 324.912C217.791 324.912 217.177 325.173 216.751 325.696C216.335 326.208 216.127 326.981 216.127 328.016ZM214.767 328C214.767 327.189 214.895 326.517 215.151 325.984C215.407 325.44 215.732 325.008 216.127 324.688C216.521 324.357 216.943 324.128 217.391 324C217.849 323.861 218.281 323.792 218.687 323.792C219.071 323.792 219.487 323.856 219.935 323.984C220.393 324.101 220.815 324.32 221.199 324.64C221.583 324.949 221.903 325.371 222.159 325.904C222.415 326.427 222.543 327.093 222.543 327.904C222.543 328.747 222.409 329.445 222.142 330C221.887 330.555 221.561 330.997 221.167 331.328C220.772 331.648 220.345 331.872 219.887 332C219.428 332.139 219.001 332.208 218.607 332.208C218.201 332.208 217.775 332.144 217.327 332.016C216.879 331.888 216.463 331.669 216.079 331.36C215.705 331.04 215.391 330.608 215.135 330.064C214.889 329.52 214.767 328.832 214.767 328ZM228.618 321.088H230.33L232.794 327.584C232.933 327.957 233.061 328.304 233.178 328.624C233.296 328.933 233.397 329.211 233.482 329.456C233.589 329.733 233.68 329.989 233.754 330.224H233.786C233.85 329.989 233.93 329.733 234.026 329.456C234.112 329.211 234.208 328.933 234.314 328.624C234.421 328.304 234.549 327.957 234.698 327.584L237.21 321.088H238.922L239.482 332H238.122L237.85 326C237.829 325.477 237.813 325.035 237.802 324.672C237.792 324.309 237.786 324.011 237.786 323.776V323.104H237.754C237.69 323.264 237.61 323.483 237.514 323.76C237.429 323.995 237.317 324.299 237.178 324.672C237.05 325.035 236.89 325.477 236.698 326L234.442 332H233.082L230.81 326C230.608 325.488 230.442 325.051 230.314 324.688C230.186 324.315 230.08 324.011 229.994 323.776C229.898 323.499 229.824 323.275 229.77 323.104H229.738C229.749 323.275 229.76 323.499 229.77 323.776C229.781 324.224 229.765 324.965 229.722 326L229.402 332H228.042L228.618 321.088ZM246.273 328.304C246.059 328.315 245.857 328.325 245.665 328.336C245.473 328.347 245.281 328.363 245.089 328.384C244.907 328.395 244.742 328.411 244.593 328.432C243.825 328.528 243.281 328.699 242.961 328.944C242.641 329.179 242.481 329.52 242.481 329.968C242.481 330.341 242.593 330.624 242.817 330.816C243.051 330.997 243.355 331.088 243.729 331.088C244.241 331.088 244.694 331.003 245.089 330.832C245.494 330.651 245.889 330.416 246.273 330.128V328.304ZM246.257 331.248C245.755 331.536 245.286 331.771 244.849 331.952C244.422 332.123 243.958 332.208 243.457 332.208C242.742 332.208 242.171 332.037 241.745 331.696C241.329 331.344 241.121 330.768 241.121 329.968C241.121 329.552 241.227 329.189 241.441 328.88C241.654 328.571 241.931 328.315 242.273 328.112C242.625 327.899 243.019 327.733 243.457 327.616C243.894 327.499 244.342 327.424 244.801 327.392C244.993 327.371 245.243 327.355 245.553 327.344C245.862 327.323 246.102 327.307 246.273 327.296C246.273 326.923 246.262 326.592 246.241 326.304C246.219 326.005 246.155 325.755 246.049 325.552C245.942 325.339 245.782 325.179 245.569 325.072C245.366 324.965 245.073 324.912 244.689 324.912C244.379 324.912 244.081 324.933 243.793 324.976C243.505 325.008 243.249 325.045 243.025 325.088C242.758 325.141 242.513 325.2 242.289 325.264L242.033 324.16C242.299 324.096 242.587 324.037 242.897 323.984C243.163 323.931 243.473 323.888 243.825 323.856C244.177 323.813 244.555 323.792 244.961 323.792C245.505 323.792 245.942 323.872 246.273 324.032C246.614 324.192 246.875 324.411 247.057 324.688C247.249 324.955 247.377 325.264 247.441 325.616C247.515 325.957 247.553 326.32 247.553 326.704V330.544C247.553 330.693 247.553 330.853 247.553 331.024C247.563 331.184 247.574 331.344 247.585 331.504C247.606 331.664 247.627 331.829 247.649 332L246.417 332.128L246.257 331.248ZM249.824 325.248C249.824 325.003 249.798 324.619 249.744 324.096L250.928 323.936L251.056 325.104H251.072C251.264 324.859 251.451 324.645 251.632 324.464C251.814 324.283 252 324.128 252.192 324C252.395 323.861 252.587 323.792 252.768 323.792C253.014 323.781 253.355 323.808 253.792 323.872L253.504 325.104C253.152 325.04 252.907 325.013 252.768 325.024C252.587 325.024 252.395 325.109 252.192 325.28C251.99 325.451 251.814 325.632 251.664 325.824C251.472 326.059 251.286 326.325 251.104 326.624V332H249.824V325.248ZM255.199 320.016L256.479 319.872V327.088L260.047 323.952H261.807L258.319 327.008L261.935 332H260.319L257.375 327.824L256.479 328.608V332H255.199V320.016ZM268.76 331.808C268.515 331.883 268.259 331.947 267.992 332C267.736 332.053 267.448 332.101 267.128 332.144C266.819 332.187 266.494 332.208 266.152 332.208C265.619 332.208 265.123 332.133 264.664 331.984C264.206 331.835 263.806 331.595 263.464 331.264C263.123 330.933 262.851 330.507 262.648 329.984C262.456 329.451 262.36 328.8 262.36 328.032C262.36 327.339 262.456 326.731 262.648 326.208C262.84 325.675 263.102 325.232 263.432 324.88C263.774 324.517 264.168 324.245 264.616 324.064C265.075 323.883 265.571 323.792 266.104 323.792C266.627 323.792 267.08 323.893 267.464 324.096C267.848 324.299 268.163 324.576 268.408 324.928C268.664 325.269 268.851 325.675 268.968 326.144C269.096 326.603 269.16 327.088 269.16 327.6L268.92 328.304H263.752C263.752 328.635 263.795 328.965 263.88 329.296C263.966 329.627 264.11 329.925 264.312 330.192C264.526 330.459 264.798 330.677 265.128 330.848C265.47 331.008 265.891 331.088 266.392 331.088C266.712 331.088 267.006 331.072 267.272 331.04C267.539 330.997 267.768 330.955 267.96 330.912C268.163 330.859 268.35 330.8 268.52 330.736L268.76 331.808ZM267.832 327.28C267.832 327.205 267.816 327.04 267.784 326.784C267.752 326.528 267.678 326.261 267.56 325.984C267.443 325.707 267.262 325.461 267.016 325.248C266.771 325.024 266.446 324.912 266.04 324.912C265.592 324.912 265.224 325.008 264.936 325.2C264.648 325.381 264.419 325.6 264.248 325.856C264.078 326.112 263.96 326.373 263.896 326.64C263.832 326.907 263.8 327.12 263.8 327.28H267.832ZM272.774 321.552V323.952H275.094V324.992H272.774V329.264C272.774 329.616 272.779 329.909 272.79 330.144C272.811 330.379 272.849 330.565 272.902 330.704C272.955 330.843 273.03 330.944 273.126 331.008C273.222 331.061 273.345 331.088 273.494 331.088C273.899 331.077 274.369 330.928 274.902 330.64L275.286 331.616C274.934 331.851 274.603 332.005 274.294 332.08C273.995 332.165 273.697 332.208 273.398 332.208C272.694 332.208 272.198 332.011 271.91 331.616C271.633 331.211 271.494 330.544 271.494 329.616V324.992H270.022V323.952H271.494V321.712L272.774 321.552Z" fill="#444547"/>
<path d="M583 276H418C412.477 276 408 280.477 408 286V366C408 371.523 412.477 376 418 376H583C588.523 376 593 371.523 593 366V286C593 280.477 588.523 276 583 276Z" fill="#FCE5AA"/>
<path d="M472.712 322.624C472.243 322.528 471.741 322.437 471.208 322.352C470.685 322.267 470.077 322.213 469.384 322.192C468.68 322.203 468.072 322.309 467.56 322.512C467.048 322.715 466.627 323.008 466.296 323.392C465.976 323.765 465.736 324.213 465.576 324.736C465.416 325.259 465.336 325.835 465.336 326.464C465.336 327.275 465.437 327.968 465.64 328.544C465.853 329.12 466.141 329.595 466.504 329.968C466.877 330.331 467.309 330.597 467.8 330.768C468.291 330.939 468.819 331.024 469.384 331.024C469.747 331.024 470.072 331.003 470.36 330.96C470.659 330.917 470.915 330.869 471.128 330.816C471.352 330.752 471.555 330.683 471.736 330.608V327.68H469.736V326.48H473.096V331.264C472.723 331.509 472.205 331.733 471.544 331.936C470.893 332.128 470.173 332.219 469.384 332.208C468.659 332.208 467.96 332.123 467.288 331.952C466.627 331.781 466.035 331.483 465.512 331.056C465 330.619 464.589 330.027 464.28 329.28C463.971 328.533 463.816 327.589 463.816 326.448C463.816 325.52 463.96 324.715 464.248 324.032C464.536 323.339 464.925 322.768 465.416 322.32C465.917 321.861 466.493 321.52 467.144 321.296C467.805 321.061 468.504 320.944 469.24 320.944C469.72 320.944 470.184 320.971 470.632 321.024C471.08 321.067 471.491 321.12 471.864 321.184C472.237 321.237 472.595 321.307 472.936 321.392L472.712 322.624ZM480.046 331.12H480.014C479.918 331.195 479.779 331.296 479.598 331.424C479.417 331.541 479.209 331.659 478.974 331.776C478.739 331.893 478.478 331.995 478.19 332.08C477.913 332.165 477.63 332.208 477.342 332.208C476.947 332.208 476.611 332.155 476.334 332.048C476.057 331.952 475.833 331.787 475.662 331.552C475.491 331.317 475.369 331.008 475.294 330.624C475.219 330.24 475.182 329.76 475.182 329.184V323.952H476.462V328.992C476.462 329.312 476.467 329.6 476.478 329.856C476.489 330.112 476.526 330.331 476.59 330.512C476.654 330.693 476.755 330.837 476.894 330.944C477.043 331.04 477.251 331.088 477.518 331.088C477.795 331.088 478.083 331.029 478.382 330.912C478.681 330.795 478.953 330.661 479.198 330.512C479.486 330.341 479.769 330.149 480.046 329.936V323.952H481.326V330.96C481.337 331.344 481.363 331.691 481.406 332L480.142 332.128L480.046 331.12ZM488.132 328.304C487.919 328.315 487.716 328.325 487.524 328.336C487.332 328.347 487.14 328.363 486.948 328.384C486.767 328.395 486.601 328.411 486.452 328.432C485.684 328.528 485.14 328.699 484.82 328.944C484.5 329.179 484.34 329.52 484.34 329.968C484.34 330.341 484.452 330.624 484.676 330.816C484.911 330.997 485.215 331.088 485.588 331.088C486.1 331.088 486.553 331.003 486.948 330.832C487.353 330.651 487.748 330.416 488.132 330.128V328.304ZM488.116 331.248C487.615 331.536 487.145 331.771 486.708 331.952C486.281 332.123 485.817 332.208 485.316 332.208C484.601 332.208 484.031 332.037 483.604 331.696C483.188 331.344 482.98 330.768 482.98 329.968C482.98 329.552 483.087 329.189 483.3 328.88C483.513 328.571 483.791 328.315 484.132 328.112C484.484 327.899 484.879 327.733 485.316 327.616C485.753 327.499 486.201 327.424 486.66 327.392C486.852 327.371 487.103 327.355 487.412 327.344C487.721 327.323 487.961 327.307 488.132 327.296C488.132 326.923 488.121 326.592 488.1 326.304C488.079 326.005 488.015 325.755 487.908 325.552C487.801 325.339 487.641 325.179 487.428 325.072C487.225 324.965 486.932 324.912 486.548 324.912C486.239 324.912 485.94 324.933 485.652 324.976C485.364 325.008 485.108 325.045 484.884 325.088C484.617 325.141 484.372 325.2 484.148 325.264L483.892 324.16C484.159 324.096 484.447 324.037 484.756 323.984C485.023 323.931 485.332 323.888 485.684 323.856C486.036 323.813 486.415 323.792 486.82 323.792C487.364 323.792 487.801 323.872 488.132 324.032C488.473 324.192 488.735 324.411 488.916 324.688C489.108 324.955 489.236 325.264 489.3 325.616C489.375 325.957 489.412 326.32 489.412 326.704V330.544C489.412 330.693 489.412 330.853 489.412 331.024C489.423 331.184 489.433 331.344 489.444 331.504C489.465 331.664 489.487 331.829 489.508 332L488.276 332.128L488.116 331.248ZM491.684 325.248C491.684 325.003 491.657 324.619 491.604 324.096L492.788 323.936L492.916 325.104H492.932C493.124 324.859 493.31 324.645 493.492 324.464C493.673 324.283 493.86 324.128 494.052 324C494.254 323.861 494.446 323.792 494.628 323.792C494.873 323.781 495.214 323.808 495.652 323.872L495.364 325.104C495.012 325.04 494.766 325.013 494.628 325.024C494.446 325.024 494.254 325.109 494.052 325.28C493.849 325.451 493.673 325.632 493.524 325.824C493.332 326.059 493.145 326.325 492.964 326.624V332H491.684V325.248ZM501.848 325.152C501.464 325.045 501.165 324.981 500.952 324.96C500.739 324.928 500.52 324.912 500.296 324.912C499.848 324.912 499.464 324.992 499.144 325.152C498.824 325.312 498.557 325.536 498.344 325.824C498.141 326.101 497.992 326.427 497.896 326.8C497.8 327.163 497.752 327.552 497.752 327.968C497.752 328.341 497.789 328.715 497.864 329.088C497.949 329.461 498.077 329.797 498.248 330.096C498.419 330.395 498.627 330.635 498.872 330.816C499.117 330.997 499.411 331.088 499.752 331.088C499.987 331.088 500.227 331.045 500.472 330.96C500.728 330.875 500.963 330.779 501.176 330.672C501.389 330.555 501.613 330.411 501.848 330.24V325.152ZM501.864 331.36C501.619 331.531 501.379 331.675 501.144 331.792C500.92 331.899 500.669 331.995 500.392 332.08C500.125 332.165 499.864 332.208 499.608 332.208C498.605 332.208 497.816 331.856 497.24 331.152C496.675 330.437 496.392 329.397 496.392 328.032C496.392 327.221 496.52 326.544 496.776 326C497.043 325.456 497.373 325.024 497.768 324.704C498.163 324.373 498.584 324.139 499.032 324C499.491 323.861 499.912 323.792 500.296 323.792C500.488 323.792 500.691 323.808 500.904 323.84C501.117 323.861 501.432 323.925 501.848 324.032V320.016L503.128 319.872V330.544C503.128 330.693 503.128 330.853 503.128 331.024C503.139 331.184 503.149 331.344 503.16 331.504C503.181 331.664 503.203 331.829 503.224 332L501.992 332.128L501.864 331.36ZM505.465 325.248C505.465 325.003 505.438 324.619 505.385 324.096L506.569 323.936L506.697 325.104H506.713C506.905 324.859 507.092 324.645 507.273 324.464C507.454 324.283 507.641 324.128 507.833 324C508.036 323.861 508.228 323.792 508.409 323.792C508.654 323.781 508.996 323.808 509.433 323.872L509.145 325.104C508.793 325.04 508.548 325.013 508.409 325.024C508.228 325.024 508.036 325.109 507.833 325.28C507.63 325.451 507.454 325.632 507.305 325.824C507.113 326.059 506.926 326.325 506.745 326.624V332H505.465V325.248ZM515.21 328.304C514.997 328.315 514.794 328.325 514.602 328.336C514.41 328.347 514.218 328.363 514.026 328.384C513.845 328.395 513.679 328.411 513.53 328.432C512.762 328.528 512.218 328.699 511.898 328.944C511.578 329.179 511.418 329.52 511.418 329.968C511.418 330.341 511.53 330.624 511.754 330.816C511.989 330.997 512.293 331.088 512.666 331.088C513.178 331.088 513.631 331.003 514.026 330.832C514.431 330.651 514.826 330.416 515.21 330.128V328.304ZM515.194 331.248C514.693 331.536 514.223 331.771 513.786 331.952C513.359 332.123 512.895 332.208 512.394 332.208C511.679 332.208 511.109 332.037 510.682 331.696C510.266 331.344 510.058 330.768 510.058 329.968C510.058 329.552 510.165 329.189 510.378 328.88C510.591 328.571 510.869 328.315 511.21 328.112C511.562 327.899 511.957 327.733 512.394 327.616C512.831 327.499 513.279 327.424 513.738 327.392C513.93 327.371 514.181 327.355 514.49 327.344C514.799 327.323 515.039 327.307 515.21 327.296C515.21 326.923 515.199 326.592 515.178 326.304C515.157 326.005 515.093 325.755 514.986 325.552C514.879 325.339 514.719 325.179 514.506 325.072C514.303 324.965 514.01 324.912 513.626 324.912C513.317 324.912 513.018 324.933 512.73 324.976C512.442 325.008 512.186 325.045 511.962 325.088C511.695 325.141 511.45 325.2 511.226 325.264L510.97 324.16C511.237 324.096 511.525 324.037 511.834 323.984C512.101 323.931 512.41 323.888 512.762 323.856C513.114 323.813 513.493 323.792 513.898 323.792C514.442 323.792 514.879 323.872 515.21 324.032C515.551 324.192 515.813 324.411 515.994 324.688C516.186 324.955 516.314 325.264 516.378 325.616C516.453 325.957 516.49 326.32 516.49 326.704V330.544C516.49 330.693 516.49 330.853 516.49 331.024C516.501 331.184 516.511 331.344 516.522 331.504C516.543 331.664 516.565 331.829 516.586 332L515.354 332.128L515.194 331.248ZM518.746 323.936L520.026 323.792V332H518.746V323.936ZM518.538 321.648C518.538 321.403 518.618 321.2 518.778 321.04C518.948 320.869 519.156 320.784 519.402 320.784C519.658 320.784 519.871 320.869 520.042 321.04C520.223 321.2 520.314 321.403 520.314 321.648C520.314 321.893 520.223 322.101 520.042 322.272C519.871 322.432 519.658 322.512 519.402 322.512C519.156 322.512 518.948 322.432 518.778 322.272C518.618 322.101 518.538 321.893 518.538 321.648ZM522.324 320.016L523.604 319.872V332H522.324V320.016ZM530.254 325.264C529.806 325.125 529.406 325.035 529.054 324.992C528.713 324.939 528.398 324.912 528.11 324.912C527.737 324.912 527.422 325.003 527.166 325.184C526.921 325.365 526.798 325.6 526.798 325.888C526.809 326.144 526.921 326.363 527.134 326.544C527.347 326.725 527.593 326.891 527.87 327.04C528.158 327.179 528.473 327.333 528.814 327.504C529.166 327.675 529.491 327.867 529.79 328.08C530.099 328.293 530.35 328.549 530.542 328.848C530.734 329.147 530.835 329.504 530.846 329.92C530.835 330.368 530.734 330.741 530.542 331.04C530.361 331.328 530.121 331.563 529.822 331.744C529.534 331.915 529.219 332.032 528.878 332.096C528.537 332.171 528.217 332.208 527.918 332.208C527.534 332.208 527.134 332.187 526.718 332.144C526.313 332.101 525.875 332.011 525.406 331.872L525.646 330.72C526.126 330.848 526.563 330.944 526.958 331.008C527.353 331.061 527.678 331.088 527.934 331.088C528.126 331.088 528.313 331.067 528.494 331.024C528.686 330.981 528.857 330.923 529.006 330.848C529.155 330.763 529.273 330.656 529.358 330.528C529.454 330.4 529.502 330.256 529.502 330.096C529.491 329.797 529.39 329.547 529.198 329.344C529.006 329.131 528.755 328.944 528.446 328.784C528.147 328.613 527.822 328.448 527.47 328.288C527.129 328.117 526.803 327.925 526.494 327.712C526.195 327.488 525.945 327.227 525.742 326.928C525.539 326.619 525.438 326.24 525.438 325.792C525.438 325.472 525.518 325.189 525.678 324.944C525.849 324.688 526.062 324.48 526.318 324.32C526.585 324.149 526.873 324.021 527.182 323.936C527.502 323.84 527.811 323.792 528.11 323.792C528.419 323.792 528.766 323.819 529.15 323.872C529.534 323.915 529.977 324 530.478 324.128L530.254 325.264Z" fill="#444547"/>
</g>
<defs>
<filter id="filter0_d" x="0" y="0" width="715" height="477" filterUnits="userSpaceOnUse" color-interpolation-filters="sRGB">
<feFlood flood-opacity="0" result="BackgroundImageFix"/>
<feColorMatrix in="SourceAlpha" type="matrix" values="0 0 0 0 0 0 0 0 0 0 0 0 0 0 0 0 0 0 127 0" result="hardAlpha"/>
<feOffset dy="6"/>
<feGaussianBlur stdDeviation="18"/>
<feColorMatrix type="matrix" values="0 0 0 0 0 0 0 0 0 0 0 0 0 0 0 0 0 0 0.1 0"/>
<feBlend mode="normal" in2="BackgroundImageFix" result="effect1_dropShadow"/>
<feBlend mode="normal" in="SourceGraphic" in2="effect1_dropShadow" result="shape"/>
</filter>
</defs>
</svg>
