<svg width="547" height="208" viewBox="0 0 547 208" fill="none" xmlns="http://www.w3.org/2000/svg">
<path d="M24.5375 59.2877H22.8854V43.3215H26.1896V57.691H27.8417V59.2877H29.4938V60.8843H32.798V59.2877H34.4501V57.691H36.1022V43.3215H39.4064V59.2877H37.7543V60.8843H36.1022V62.4809H34.4501V64.0775H32.798V65.6741H29.4938V64.0775H27.8417V62.4809H26.1896V60.8843H24.5375V59.2877Z" fill="black"/>
<path d="M46.3531 65.6741V62.4809H49.6573V46.5147H46.3531V43.3215H56.2658V46.5147H52.9615V62.4809H56.2658V65.6741H46.3531Z" fill="black"/>
<path d="M66.5167 46.5147V52.9012H74.7772V51.3046H76.4293V48.1114H74.7772V46.5147H66.5167ZM68.1688 56.0944H66.5167V65.6741H63.2125V43.3215H76.4293V44.9181H78.0814V46.5147H79.7335V52.9012H78.0814V54.4978H76.4293V56.0944H73.1251V57.691H74.7772V59.2877H76.4293V60.8843H78.0814V62.4809H79.7335V65.6741H76.4293V64.0775H74.7772V62.4809H73.1251V60.8843H71.473V59.2877H69.8209V57.691H68.1688V56.0944Z" fill="black"/>
<path d="M89.9845 46.5147H83.3761V43.3215H99.8971V46.5147H93.2887V65.6741H89.9845V46.5147Z" fill="black"/>
<path d="M105.192 62.4809H103.54V43.3215H106.844V60.8843H108.496V62.4809H115.104V60.8843H116.756V43.3215H120.061V62.4809H118.409V64.0775H116.756V65.6741H106.844V64.0775H105.192V62.4809Z" fill="black"/>
<path d="M127.007 56.0944H136.92V51.3046H135.268V49.708H133.616V48.1114H130.312V49.708H128.66V51.3046H127.007V56.0944ZM127.007 65.6741H123.703V49.708H125.355V48.1114H127.007V46.5147H128.66V44.9181H130.312V43.3215H133.616V44.9181H135.268V46.5147H136.92V48.1114H138.572V49.708H140.224V65.6741H136.92V59.2877H127.007V65.6741Z" fill="black"/>
<path d="M143.867 65.6741V43.3215H147.171V62.4809H160.388V65.6741H143.867Z" fill="black"/>
<path d="M273.5 108.996C304.644 108.996 329.892 84.5961 329.892 54.4978C329.892 24.3995 304.644 0 273.5 0C242.356 0 217.108 24.3995 217.108 54.4978C217.108 84.5961 242.356 108.996 273.5 108.996Z" fill="white"/>
<path d="M253.584 74.751C255.941 73.4358 255.945 69.1781 253.593 65.2408C251.24 61.3039 247.423 59.1781 245.066 60.4933C242.709 61.8085 242.705 66.0662 245.057 70.0035C247.409 73.9405 251.227 76.0659 253.584 74.751Z" fill="#F26E7E"/>
<path d="M301.791 70.009C304.143 66.0721 304.139 61.8143 301.782 60.4991C299.425 59.1839 295.608 61.3093 293.256 65.2466C290.903 69.1835 290.907 73.4413 293.264 74.7565C295.621 76.0717 299.439 73.9463 301.791 70.009Z" fill="#8A3391"/>
<path d="M269.646 83.7254C272.003 82.4101 272.007 78.1524 269.655 74.2151C267.303 70.2782 263.485 68.1528 261.128 69.4676C258.771 70.7829 258.767 75.0406 261.119 78.9779C263.472 82.9148 267.289 85.0406 269.646 83.7254Z" fill="#F26E7E"/>
<path d="M285.732 78.9688C288.084 75.0315 288.08 70.7738 285.723 69.4586C283.366 68.1437 279.549 70.2691 277.197 74.206C274.844 78.1433 274.848 82.4011 277.205 83.7163C279.562 85.0315 283.38 82.9057 285.732 78.9688Z" fill="#8A3391"/>
<path d="M273.414 32.0509C278.118 32.0509 281.932 29.9186 281.932 27.2883C281.932 24.658 278.118 22.5258 273.414 22.5258C268.709 22.5258 264.896 24.658 264.896 27.2883C264.896 29.9186 268.709 32.0509 273.414 32.0509Z" fill="#F7BF2A"/>
<path d="M253.578 56.8103C255.935 55.4955 255.939 51.2378 253.587 47.3005C251.235 43.3635 247.417 41.2378 245.06 42.553C242.703 43.8682 242.7 48.1259 245.052 52.0629C247.404 56.0001 251.221 58.1256 253.578 56.8103Z" fill="#F26E7E"/>
<path d="M257.355 41.0013C262.06 41.0013 265.873 38.8689 265.873 36.2388C265.873 33.6085 262.06 31.4762 257.355 31.4762C252.651 31.4762 248.837 33.6085 248.837 36.2388C248.837 38.8689 252.651 41.0013 257.355 41.0013Z" fill="#F7BF2A"/>
<path d="M301.782 52.073C304.133 48.1357 304.13 43.878 301.773 42.5628C299.416 41.2479 295.598 43.3734 293.246 47.3103C290.894 51.2476 290.898 55.5053 293.255 56.8205C295.612 58.1357 299.429 56.01 301.782 52.073Z" fill="#8A3391"/>
<path d="M289.494 41.0013C294.198 41.0013 298.012 38.8689 298.012 36.2388C298.012 33.6085 294.198 31.4762 289.494 31.4762C284.79 31.4762 280.976 33.6085 280.976 36.2388C280.976 38.8689 284.79 41.0013 289.494 41.0013Z" fill="#F7BF2A"/>
<path d="M269.641 65.785C271.998 64.4698 272.002 60.2121 269.65 56.2752C267.297 52.3379 263.48 50.2125 261.123 51.5277C258.766 52.8425 258.762 57.1006 261.114 61.0376C263.466 64.9748 267.284 67.1003 269.641 65.785Z" fill="#F26E7E"/>
<path d="M285.723 61.0325C288.075 57.0955 288.071 52.8375 285.714 51.5226C283.357 50.2074 279.54 52.3328 277.187 56.2701C274.835 60.207 274.839 64.4647 277.196 65.78C279.553 67.0952 283.37 64.9697 285.723 61.0325Z" fill="#8A3391"/>
<path d="M273.414 49.972C278.118 49.972 281.932 47.8396 281.932 45.2092C281.932 42.5791 278.118 40.4468 273.414 40.4468C268.709 40.4468 264.896 42.5791 264.896 45.2092C264.896 47.8396 268.709 49.972 273.414 49.972Z" fill="#F7BF2A"/>
<path d="M433.379 43.3215V46.5147H420.162V52.9012H430.074V56.0944H420.162V65.6741H416.858V43.3215H433.379Z" fill="black"/>
<path d="M440.325 46.5147V52.9012H448.586V51.3046H450.238V48.1114H448.586V46.5147H440.325ZM441.977 56.0944H440.325V65.6741H437.021V43.3215H450.238V44.9181H451.89V46.5147H453.542V52.9012H451.89V54.4978H450.238V56.0944H446.934V57.691H448.586V59.2877H450.238V60.8843H451.89V62.4809H453.542V65.6741H450.238V64.0775H448.586V62.4809H446.934V60.8843H445.282V59.2877H443.63V57.691H441.977V56.0944Z" fill="black"/>
<path d="M473.706 43.3215V46.5147H460.489V52.9012H470.401V56.0944H460.489V62.4809H473.706V65.6741H457.185V43.3215H473.706Z" fill="black"/>
<path d="M493.869 43.3215V46.5147H480.652V52.9012H490.565V56.0944H480.652V62.4809H493.869V65.6741H477.348V43.3215H493.869Z" fill="black"/>
<path d="M14.5729 176.453V203.307C14.5729 205.445 13.3379 206.634 11.115 206.634H3.45798C1.23499 206.634 0 205.445 0 203.307V126.787C0 124.648 1.23499 123.46 3.45798 123.46H29.0841C47.4855 123.46 59.0327 134.094 59.0327 149.957C59.0327 165.878 47.4855 176.453 29.0841 176.453H14.5729ZM44.3981 149.957C44.3981 141.045 38.5318 135.282 28.1579 135.282H14.5729V164.69H28.1579C38.5318 164.69 44.3981 158.927 44.3981 149.957ZM96.24 208C80.8643 208 70.6756 198.197 70.6756 183.048V148.412C70.6756 146.273 71.9106 145.085 74.1336 145.085H81.2966C83.5196 145.085 84.7546 146.273 84.7546 148.412V181.86C84.7546 190.177 90.6208 195.999 99.1423 195.999C108.034 195.999 115.691 188.811 115.691 178.592V148.412C115.691 146.273 116.926 145.085 119.149 145.085H126.374C128.597 145.085 129.832 146.273 129.832 148.412V203.307C129.832 205.445 128.597 206.634 126.374 206.634H119.149C116.926 206.634 115.691 205.445 115.691 203.307V198.494C111.369 204.138 104.391 208 96.24 208ZM147.973 123.222C147.973 121.083 149.208 119.895 151.431 119.895H158.594C160.817 119.895 162.052 121.083 162.052 123.222V203.307C162.052 205.445 160.817 206.634 158.594 206.634H151.431C149.208 206.634 147.973 205.445 147.973 203.307V123.222ZM204.543 208C189.167 208 178.978 198.197 178.978 183.048V148.412C178.978 146.273 180.213 145.085 182.436 145.085H189.599C191.822 145.085 193.057 146.273 193.057 148.412V181.86C193.057 190.177 198.924 195.999 207.445 195.999C216.337 195.999 223.994 188.811 223.994 178.592V148.412C223.994 146.273 225.229 145.085 227.452 145.085H234.677C236.9 145.085 238.135 146.273 238.135 148.412V203.307C238.135 205.445 236.9 206.634 234.677 206.634H227.452C225.229 206.634 223.994 205.445 223.994 203.307V198.494C219.672 204.138 212.694 208 204.543 208ZM330.809 143.659C344.702 143.659 355.323 153.521 355.323 168.671V203.307C355.323 205.445 354.088 206.634 351.865 206.634H344.641C342.418 206.634 341.183 205.445 341.183 203.307V169.859C341.183 161.541 335.81 155.719 327.906 155.719C319.941 155.719 312.407 163.443 312.407 172.77V203.307C312.407 205.445 311.172 206.634 308.949 206.634H301.725C299.502 206.634 298.267 205.445 298.267 203.307V169.859C298.267 161.541 292.894 155.719 284.99 155.719C277.395 155.719 269.491 162.73 269.491 172.77V203.307C269.491 205.445 268.256 206.634 266.033 206.634H258.809C256.586 206.634 255.351 205.445 255.351 203.307V148.412C255.351 146.273 256.586 145.085 258.809 145.085H266.033C268.256 145.085 269.491 146.273 269.491 148.412V153.105C273.937 147.402 280.421 143.659 287.893 143.659C297.526 143.659 305.615 148.471 309.629 156.432C313.889 148.709 321.67 143.659 330.809 143.659ZM370.511 128.331C370.511 123.638 374.277 120.014 379.217 120.014C384.157 120.014 387.986 123.638 387.986 128.331C387.986 132.965 384.157 136.589 379.217 136.589C374.277 136.589 370.511 132.965 370.511 128.331ZM372.178 148.412C372.178 146.273 373.413 145.085 375.636 145.085H382.799C385.022 145.085 386.257 146.273 386.257 148.412V203.307C386.257 205.445 385.022 206.634 382.799 206.634H375.636C373.413 206.634 372.178 205.445 372.178 203.307V148.412ZM468.947 177.879C468.947 195.999 454.806 207.941 436.96 207.941C419.115 207.941 404.974 195.999 404.974 177.879V126.787C404.974 124.648 406.209 123.46 408.432 123.46H416.089C418.312 123.46 419.547 124.648 419.547 126.787V178.83C419.547 188.989 427.204 195.643 436.96 195.643C446.778 195.643 454.374 188.989 454.374 178.83V126.787C454.374 124.648 455.609 123.46 457.832 123.46H465.489C467.712 123.46 468.947 124.648 468.947 126.787V177.879ZM502.54 176.453V203.307C502.54 205.445 501.305 206.634 499.082 206.634H491.425C489.202 206.634 487.967 205.445 487.967 203.307V126.787C487.967 124.648 489.202 123.46 491.425 123.46H517.051C535.453 123.46 547 134.094 547 149.957C547 165.878 535.453 176.453 517.051 176.453H502.54ZM532.365 149.957C532.365 141.045 526.499 135.282 516.125 135.282H502.54V164.69H516.125C526.499 164.69 532.365 158.927 532.365 149.957Z" fill="#131314"/>
</svg>
