<svg width="80" height="80" viewBox="0 0 80 80" fill="none" xmlns="http://www.w3.org/2000/svg">
<g clip-path="url(#clip0_1542_34026)">
<rect width="80" height="80" rx="40" fill="#E8D6E9"/>
<g filter="url(#filter0_d_1542_34026)">
<path d="M34.4324 99.6498C34.098 99.3191 33.7636 98.9884 33.4291 98.6577C33.1626 99.1081 32.7994 99.501 32.3714 99.8022C31.9649 99.2268 30.3596 101.907 30.1548 101.233C29.7776 101.425 29.4434 101.702 29.1833 102.036C28.9763 101.701 28.7692 101.365 28.5622 101.03C28.2667 101.259 27.9712 101.488 27.6758 101.717C27.2808 100.393 18.5982 113.91 15.0907 98.7154C15.0525 98.5498 11.24 75.1002 17.8605 76.7931C19.0061 77.086 21.7126 79.8986 21.634 79.6349C21.6562 78.6184 22.0525 73.3498 22.0747 72.3333C22.1082 70.8018 23.5885 73.7953 23.622 72.2639C23.6669 70.212 23.7118 68.1601 23.7567 66.1082C24.1332 66.1235 24.5098 66.1388 24.8864 66.154C25.921 62.8217 25.8103 58.1603 27.8741 55.2662C29.94 52.3692 34.2411 50.4187 37.709 50.5053C37.8164 50.508 37.925 50.5133 38.0332 50.5218C37.0854 53.3691 36.7474 57.3347 36.3931 60.0721C35.8025 64.636 40.0696 84.3067 38.0561 95.3552C37.811 95.6788 37.495 96.143 37.2947 96.4891C36.5776 97.7284 35.595 98.8135 34.4324 99.6498Z" fill="#26C9DA"/>
<path d="M17.1033 27.2001C25.4579 24.0145 29.5038 24.1237 34.5256 26.1107C40.9819 28.6653 43.4535 35.141 42.3237 41.989C41.8493 44.8639 40.5209 45.9293 38.8977 48.3516C37.1622 50.9415 36.7339 56.4974 36.2781 60.0193C35.6345 64.9923 40.6278 88.0074 37.1328 98.1352C29.6261 119.888 10.1696 125.909 1.72118 129.45C-9.27929 134.059 -20.6665 138.814 -23.0937 138.303C-24.7 137.965 -27.4664 137.5 -27.8632 134.875C-28.0464 133.663 -27.8526 132.193 -25.9082 129.941C-24.3471 128.134 -21.1605 121.512 -17.2852 119.536C-16.8511 119.315 -11.6305 116.704 -11.2051 116.467C-8.71126 115.073 -13.5428 107.292 -11.5386 85.7452C-11.3201 83.3963 -7.39605 61.8799 -6.36339 58.4187C-4.72743 52.9354 -3.02543 48.1307 1.33682 40.8148C5.19262 34.3481 9.99565 29.9104 17.1033 27.2001Z" fill="#26C9DA"/>
<path d="M24.822 32.9425L21.6842 32.7444C20.3379 32.9825 19.8834 33.4493 18.537 33.6875C18.7824 33.87 15.4486 35.04 13.7119 36.1242C13.4136 36.3105 7.18633 39.6915 7.14776 39.9199C7.10912 40.1483 2.69517 43.6296 0.438348 45.4901C0.80629 45.4273 1.20382 45.6113 1.3938 45.9323C0.446759 47.503 -0.500288 49.0738 -1.44733 50.6445C-1.25094 50.8188 -1.05463 50.9931 -0.85824 51.1674C-1.82262 52.1889 -2.56108 53.4035 -3.18949 54.6596C-3.9094 56.0986 -4.49299 57.601 -5.07537 59.1007C-7.19871 64.5682 -8.07345 72.0341 -10.1967 77.5015C-9.33772 71.4943 -7.71855 63.72 -6.30787 58.2718C-4.87358 52.7324 -2.96987 47.9838 1.39236 40.6678C2.41318 38.9558 3.50134 37.3874 4.68016 35.9541C3.82892 36.2455 2.88857 36.5437 1.87358 36.8265C3.22809 35.6941 4.68762 35.0532 6.30362 34.1276C6.29631 34.1023 6.29737 34.1059 6.29005 34.0806C5.50105 34.1777 4.47832 34.6162 3.71458 34.5535C5.75123 33.4825 9.92986 30.5269 13.3847 28.7675C14.5673 28.1337 15.8223 27.5629 17.1589 27.0532C25.5134 23.8676 29.5593 23.9768 34.5811 25.9638C36.5966 26.7612 38.2236 27.9409 39.4741 29.3946C36.5342 32.0041 37.604 34.5775 33.9231 33.9226C32.0158 33.5833 24.4885 32.5388 24.822 32.9425Z" fill="#26E4EE"/>
<path d="M12.7937 39.3071C10.9892 35.3378 12.2667 30.8745 15.6471 29.3381C19.0275 27.8016 23.2308 29.7738 25.0353 33.7431C26.8399 37.7124 25.5624 42.1757 22.1819 43.7122C18.8015 45.2486 14.5983 43.2764 12.7937 39.3071Z" fill="#26C9DA"/>
<path d="M14.2634 39.8137C12.4589 35.8444 13.7364 31.3811 17.1168 29.8447C20.4972 28.3082 24.7005 30.2804 26.505 34.2497C28.3096 38.219 27.0321 42.6823 23.6517 44.2188C20.2712 45.7552 16.068 43.783 14.2634 39.8137Z" fill="#B6F7FA"/>
<path d="M14.9123 39.7503C13.4233 36.4751 14.4774 32.7924 17.2666 31.5247C20.0559 30.2569 23.524 31.8842 25.013 35.1593C26.5019 38.4345 25.4479 42.1172 22.6586 43.3849C19.8694 44.6527 16.4012 43.0254 14.9123 39.7503Z" fill="#453772"/>
<path d="M21.4554 32.6303C20.8491 32.8547 20.1757 32.5453 19.9515 31.9394C19.7272 31.3334 20.037 30.6603 20.6433 30.4359C21.2497 30.2115 21.923 30.5208 22.1473 31.1267C22.3715 31.7327 22.0618 32.4058 21.4554 32.6303Z" fill="white"/>
<path d="M19.0711 41.7896C18.6696 40.9063 19.3623 39.7275 20.6183 39.1566C21.8743 38.5857 23.218 38.839 23.6196 39.7222C24.0212 40.6055 23.3285 41.7843 22.0724 42.3552C20.8164 42.9261 19.4727 42.6729 19.0711 41.7896Z" fill="#5371A0"/>
<path d="M30.5094 33.4404C30.3868 35.5298 29.0015 38.2975 28.3138 40.2744C27.8219 41.6886 26.5693 43.1994 25.3838 44.1649C22.585 46.4442 21.9109 49.4509 22.0778 51.1239C22.1767 52.1164 22.4469 53.0144 22.849 53.8179C22.9363 53.9925 24.1098 53.4835 24.2092 53.6492C26.6617 57.7353 32.661 59.1086 36.1842 57.7654C37.0782 57.4246 37.5693 56.7549 37.9477 55.5882C38.5209 53.8209 38.808 50.4148 41.0109 49.3481C43.0526 48.3593 55.4819 45.1292 54.7318 42.3256C54.3063 40.7355 41.5398 44.3501 38.8831 44.7326C30.0229 46.0082 31.0215 44.4635 32.8681 43.5498C33.4735 43.2503 32.7303 43.4572 35.2901 42.9111C37.927 42.3486 41.5086 40.7992 46.7215 39.2599C50.3692 38.1828 59.1879 35.9156 62.4546 34.7418C68.04 32.7253 74.2779 31.3029 73.9432 27.5047C73.7118 24.8779 68.4666 25.383 65.9136 26.0494C60.2468 27.5286 46.607 32.2766 41.755 31.5182C38.5607 31.0189 37.4755 26.0478 34.176 26.2887C30.051 26.5898 30.6915 30.3383 30.5094 33.4404Z" fill="#CC00A4"/>
<path d="M65.4119 28.6912C60.9926 29.9247 51.6915 32.8981 46.1402 34.2421C38.4022 36.1154 30.9116 37.6915 28.3047 40.2794C28.2592 40.3246 29.4868 37.0826 29.4277 34.5051C29.4049 33.5105 29.2651 30.8997 28.8575 29.5232C28.7973 29.3199 30.21 30.8413 30.2379 30.6435C30.4652 29.0288 31.1509 27.8801 31.6174 27.4123C32.1475 26.7971 33.4159 26.1682 34.6226 25.8079C40.0877 24.1762 43.7773 28.6211 47.9583 29.1757C49.3696 29.3629 50.5457 29.6931 54.618 28.6553C58.5375 27.6565 64.1255 25.1638 66.7678 24.4487C73.6016 22.5992 73.8905 27.2789 73.8905 27.2789C73.8905 27.2789 71.7154 26.9317 65.4119 28.6912Z" fill="#EF00C3"/>
<path d="M32.7683 51.2603C33.7298 48.6293 34.3337 45.0096 37.3515 43.7686C38.632 43.2421 47.4494 44.4489 48.5198 43.6393C49.1666 43.1501 49.8929 42.8022 50.6521 42.5261C52.8487 42.0094 54.5014 41.8049 54.6507 42.3627C54.989 43.6272 53.4987 45.3147 50.6371 46.5079C47.1543 47.9603 42.0506 48.8424 40.9297 49.3851C38.7269 50.4519 38.4398 53.8579 37.8666 55.6252C37.4881 56.792 37.0107 57.4999 36.1031 57.8025C34.4806 58.3434 33.4423 58.3159 32.4237 58.2384C31.9364 56.4454 31.8174 53.8619 32.7683 51.2603Z" fill="#EF00C3"/>
<path d="M29.2827 45.1797C30.6732 45.8359 32.8166 45.9332 38.9208 45.5172C41.8288 45.319 54.1126 43.6399 54.6751 42.4416C54.6751 42.4416 55.5398 40.0177 42.7585 40.455C42.7585 40.455 39.0594 41.8825 35.9801 42.4632C32.9753 43.0299 29.4002 43.6394 27.7076 43.7337C27.7076 43.7337 28.0411 44.5938 29.2827 45.1797Z" fill="#88007F"/>
<path d="M25.2799 54.8054C25.2799 54.8054 29.9037 69.9446 29.0741 71.2301C29.0741 71.2301 25.8774 73.1741 22.3701 72.5153C22.3701 72.5153 21.1119 65.5885 20.9678 55.2055L25.2799 54.8054Z" fill="black"/>
<path d="M17.5548 62.9138C21.2936 60.6511 25.7108 59.5257 30.0761 59.7236C30.9871 59.7649 32.0854 60.0052 32.3679 60.8718C32.7452 62.029 31.3113 63.028 31.228 64.2425C31.171 65.0736 31.7515 65.7922 32.2434 66.4645C32.7352 67.1368 33.1829 68.0068 32.8446 68.7683C32.6529 69.1996 32.2401 69.501 32.0415 69.9293C31.3475 71.4263 33.6143 73.0229 33.0841 74.5852C32.8932 75.1477 32.3652 75.5549 32.2101 76.1283C32.0079 76.8756 32.4915 77.6165 32.6628 78.3714C33.023 79.9593 31.9019 81.5926 30.4484 82.3287C28.9949 83.0647 27.2955 83.099 25.6674 83.0404C22.5996 82.9298 19.5076 82.5356 16.6438 81.4317C13.78 80.3279 11.1433 78.4661 9.50088 75.8745C10.017 75.9957 10.4372 75.3575 10.3561 74.8338C10.275 74.3101 9.89846 73.8908 9.60772 73.4478C9.31699 73.0047 9.10392 72.4183 9.36807 71.9587C9.87546 72.0409 10.2932 71.5012 10.3416 70.9897C10.39 70.4781 10.2031 69.9762 10.1481 69.4654C10.0931 68.9546 10.2291 68.3494 10.6934 68.1287C11.0819 67.944 11.5483 68.0989 11.9683 68.0048C12.9986 67.7737 13.8834 66.4455 14.4886 65.6464C15.348 64.5117 16.3336 63.6528 17.5548 62.9138Z" fill="#9000A6"/>
<path d="M33.0764 74.5763C32.8662 73.8692 32.4058 73.3983 31.3293 73.6236C31.104 73.6708 30.8885 73.7635 30.6598 73.7901C30.1676 73.8472 29.687 73.5877 29.327 73.2475C28.4176 72.3882 28.118 70.9463 28.6099 69.7956C28.8033 69.3432 29.1126 68.898 29.0535 68.4097C28.9253 67.3498 27.2852 67.1239 26.9592 66.1073C26.8337 65.7161 26.9302 65.262 26.7262 64.9054C26.4255 64.38 25.6826 64.367 25.0817 64.4432C21.5622 64.8891 18.1423 66.1064 15.1325 67.9845C13.5851 68.9501 12.1197 70.1934 10.3882 70.6444C10.3492 70.2779 10.1771 69.8382 10.1375 69.4694C10.0824 68.9586 10.2184 68.3534 10.6827 68.1327C11.0712 67.948 11.5376 68.1029 11.9576 68.0088C12.9879 67.7777 13.8727 66.4495 14.4779 65.6504C15.3373 64.5157 16.3229 63.6568 17.5441 62.9178C21.2829 60.6551 25.7001 59.5297 30.0654 59.7276C30.9765 59.7689 32.0746 60.0092 32.3572 60.8758C32.7345 62.033 31.3006 63.0321 31.2173 64.2465C31.1602 65.0776 31.7408 65.7963 32.2327 66.4686C32.7246 67.1408 33.1722 68.0108 32.8339 68.7723C32.6422 69.2036 32.2294 69.505 32.0308 69.9333C31.3388 71.4261 33.5898 73.0181 33.0764 74.5763Z" fill="#B61AC0"/>
<path d="M32.0172 70.1976C31.6972 69.5521 31.4741 68.914 31.762 68.2932C31.9605 67.8649 32.3734 67.5635 32.5651 67.1321C32.5783 67.1024 32.5828 67.0715 32.5937 67.0414C32.9304 67.6193 33.1418 68.2737 32.8796 68.8639C32.688 69.2952 32.275 69.5966 32.0765 70.0249C32.0499 70.0822 32.0354 70.14 32.0172 70.1976Z" fill="#670082"/>
<path d="M31.9308 74.4922C32.0859 73.9189 32.6139 73.5117 32.8048 72.9492C32.8127 72.9259 32.8144 72.9025 32.821 72.8792C33.1147 73.4798 33.3223 74.0828 33.1194 74.6809C32.9285 75.2434 32.4004 75.6506 32.2453 76.2239C32.2425 76.2344 32.2427 76.2449 32.2402 76.2553C32.0363 75.665 31.7716 75.0805 31.9308 74.4922Z" fill="#670082"/>
<path d="M10.241 75.6138C11.857 77.4989 14.0356 78.898 16.3646 79.7957C19.2284 80.8995 22.3205 81.2938 25.3882 81.4043C27.0163 81.463 28.7157 81.4286 30.1692 80.6926C31.3444 80.0976 32.3013 78.9159 32.4347 77.646C32.5318 77.9185 32.6357 78.1919 32.6982 78.4671C33.0583 80.055 31.9372 81.6883 30.4838 82.4243C29.0303 83.1603 27.3309 83.1947 25.7028 83.136C22.635 83.0255 19.543 82.6313 16.6792 81.5274C13.8154 80.4235 11.1787 78.5618 9.53622 75.9702C9.82484 76.0379 10.0833 75.8681 10.241 75.6138Z" fill="#670082"/>
<path opacity="0.44" d="M26.2858 53.9981C18.8176 56.762 10.5242 52.9523 7.76203 45.4889C4.99988 38.0255 8.81494 29.7345 16.2832 26.9706C23.7514 24.2067 32.0448 28.0164 34.807 35.4798C37.5691 42.9433 33.7541 51.2342 26.2858 53.9981Z" fill="#DCFFFF"/>
<path d="M11.8635 46.7999C16.0806 51.2256 23.0901 51.3948 27.5197 47.178C31.9493 42.9612 32.1216 35.9551 27.9046 31.5294C26.6687 30.2324 25.1922 29.3039 23.6119 28.7413C25.9673 29.2094 28.2069 30.3793 29.9888 32.2494C34.5877 37.0758 34.3997 44.7164 29.569 49.3151C24.7382 53.9137 17.094 53.7291 12.4951 48.9026C10.7421 47.0628 9.68684 44.8139 9.31691 42.4807C9.80734 44.0481 10.6539 45.5304 11.8635 46.7999Z" fill="white"/>
<path fill-rule="evenodd" clip-rule="evenodd" d="M16.4543 28.2151C23.287 25.6864 30.8745 29.1719 33.4016 36.0001C35.9287 42.8283 32.4383 50.4136 25.6057 52.9423C18.773 55.471 11.1855 51.9856 8.6584 45.1573C6.13133 38.3291 9.62168 30.7438 16.4543 28.2151ZM35.7033 35.1483C32.7061 27.0496 23.7069 22.9157 15.603 25.9148C7.49916 28.914 3.35942 37.9106 6.35665 46.0092C9.35389 54.1078 18.3531 58.2418 26.457 55.2426C34.5608 52.2434 38.7006 43.2469 35.7033 35.1483Z" fill="black"/>
</g>
</g>
<defs>
<filter id="filter0_d_1542_34026" x="-67.335" y="-9.07654" width="175.671" height="173.053" filterUnits="userSpaceOnUse" color-interpolation-filters="sRGB">
<feFlood flood-opacity="0" result="BackgroundImageFix"/>
<feColorMatrix in="SourceAlpha" type="matrix" values="0 0 0 0 0 0 0 0 0 0 0 0 0 0 0 0 0 0 127 0" result="hardAlpha"/>
<feOffset dx="2" dy="2"/>
<feComposite in2="hardAlpha" operator="out"/>
<feColorMatrix type="matrix" values="0 0 0 0 0.815686 0 0 0 0 0.678431 0 0 0 0 0.827451 0 0 0 1 0"/>
<feBlend mode="normal" in2="BackgroundImageFix" result="effect1_dropShadow_1542_34026"/>
<feBlend mode="normal" in="SourceGraphic" in2="effect1_dropShadow_1542_34026" result="shape"/>
</filter>
<clipPath id="clip0_1542_34026">
<rect width="80" height="80" rx="40" fill="white"/>
</clipPath>
</defs>
</svg>
