<?xml version="1.0" encoding="UTF-8" standalone="no"?>
<svg
   xmlns:dc="http://purl.org/dc/elements/1.1/"
   xmlns:cc="http://creativecommons.org/ns#"
   xmlns:rdf="http://www.w3.org/1999/02/22-rdf-syntax-ns#"
   xmlns:svg="http://www.w3.org/2000/svg"
   xmlns="http://www.w3.org/2000/svg"
   xmlns:sodipodi="http://sodipodi.sourceforge.net/DTD/sodipodi-0.dtd"
   xmlns:inkscape="http://www.inkscape.org/namespaces/inkscape"
   sodipodi:docname="crossguard.svg"
   inkscape:version="1.0beta1 (32d4812, 2019-09-19)"
   id="svg917"
   version="1.1"
   viewBox="0 0 317.5 166.15833"
   height="628"
   width="1200">
  <defs
     id="defs911">
    <rect
       id="rect2250"
       height="41.199406"
       width="131.53571"
       y="41.955357"
       x="201.83929" />
  </defs>
  <sodipodi:namedview
     inkscape:window-maximized="0"
     inkscape:window-y="76"
     inkscape:window-x="1754"
     inkscape:window-height="1005"
     inkscape:window-width="1721"
     units="px"
     showgrid="false"
     inkscape:document-rotation="0"
     inkscape:current-layer="layer1"
     inkscape:document-units="mm"
     inkscape:cy="23.529994"
     inkscape:cx="732.38858"
     inkscape:zoom="0.7"
     inkscape:pageshadow="2"
     inkscape:pageopacity="0.0"
     borderopacity="1.0"
     bordercolor="#666666"
     pagecolor="#ffffff"
     id="base" />
  <metadata
     id="metadata914">
    <rdf:RDF>
      <cc:Work
         rdf:about="">
        <dc:format>image/svg+xml</dc:format>
        <dc:type
           rdf:resource="http://purl.org/dc/dcmitype/StillImage" />
        <dc:title></dc:title>
      </cc:Work>
    </rdf:RDF>
  </metadata>
  <g
     id="layer1"
     inkscape:groupmode="layer"
     inkscape:label="Layer 1">
    <g
       style="display:inline"
       id="g884"
       transform="matrix(0.3857625,0,0,0.3857625,1.8146578,35.917852)">
      <path
         d="m 213.567,84.596 c 0,4.083 -0.12,8.038 -0.324,11.886 H 128.016 V 0.006 c 22.392,9.758 47.937,16.849 75.45,20.807 6.636,19.807 10.101,41.673 10.101,63.783 z"
         id="path874"
         inkscape:connector-curvature="0"
         style="opacity:1;fill:#ee975c;fill-opacity:1;stop-opacity:1" />
      <path
         d="M 23.41,20.807 C 50.945,16.85 76.492,9.758 98.863,0 V 96.476 H 13.601 c -0.184,-3.849 -0.294,-7.803 -0.294,-11.887 0,-22.103 3.48,-43.969 10.103,-63.782 z"
         id="path876"
         inkscape:connector-curvature="0"
         style="opacity:1;fill:#512668;fill-opacity:1;stop-opacity:1" />
      <path
         d="M 16.955,125.632 H 98.869 V 226.873 C 74.342,218.323 29.922,193.672 16.955,125.632 Z"
         id="path878"
         inkscape:connector-curvature="0"
         style="opacity:1;fill:#ee975c;fill-opacity:1;stop-opacity:1" />
      <path
         d="M 128.016,225.924 V 125.632 h 81.569 c -13.336,64.287 -56.907,90.456 -81.569,100.292 z"
         id="path880"
         inkscape:connector-curvature="0"
         style="opacity:1;fill:#512668;fill-opacity:1;stop-opacity:1" />
    </g>
    <g
       style="display:inline"
       transform="matrix(0.3857625,0,0,0.3857625,535.26912,212.26659)"
       id="g886" />
    <g
       transform="matrix(0.3857625,0,0,0.3857625,535.26912,212.26659)"
       id="g888" />
    <g
       transform="matrix(0.3857625,0,0,0.3857625,535.26912,212.26659)"
       id="g890" />
    <g
       transform="matrix(0.3857625,0,0,0.3857625,535.26912,212.26659)"
       id="g892" />
    <g
       transform="matrix(0.3857625,0,0,0.3857625,535.26912,212.26659)"
       id="g894" />
    <g
       transform="matrix(0.3857625,0,0,0.3857625,535.26912,212.26659)"
       id="g896" />
    <g
       transform="matrix(0.3857625,0,0,0.3857625,535.26912,212.26659)"
       id="g898" />
    <g
       transform="matrix(0.3857625,0,0,0.3857625,535.26912,212.26659)"
       id="g900" />
    <g
       transform="matrix(0.3857625,0,0,0.3857625,535.26912,212.26659)"
       id="g902" />
    <g
       transform="matrix(0.3857625,0,0,0.3857625,535.26912,212.26659)"
       id="g904" />
    <g
       transform="matrix(0.3857625,0,0,0.3857625,535.26912,212.26659)"
       id="g906" />
    <g
       transform="matrix(0.3857625,0,0,0.3857625,535.26912,212.26659)"
       id="g908" />
    <g
       transform="matrix(0.3857625,0,0,0.3857625,535.26912,212.26659)"
       id="g910" />
    <g
       style="display:inline"
       transform="matrix(0.3857625,0,0,0.3857625,535.26912,212.26659)"
       id="g912" />
    <g
       style="display:inline"
       transform="matrix(0.3857625,0,0,0.3857625,535.26912,212.26659)"
       id="g914" />
    <g
       transform="matrix(1.458,0,0,1.458,-7.3301728,38.345702)"
       id="g2261">
      <path
         id="path1590"
         d="m 214.67039,7.0778442 a 2.7003375,2.7003375 0 1 1 -2.67255,-2.741084 2.6966333,2.6966333 0 0 1 2.67255,2.741084 z m -88.78702,2.163233 a 1.8761604,1.8761604 0 0 0 -1.86505,-1.720585 1.8520833,1.8520833 0 0 0 -0.83714,0.205581 4.3746208,4.3746208 0 0 0 -8.30289,-0.690827 2.8966583,2.8966583 0 0 0 -4.46722,2.435489 c 0,0.8371418 0.65378,0.9260418 1.72244,0.9260418 h 12.77937 a 0.97419581,0.97419581 0 0 0 0.99087,-0.9945678 v 0 c 0,-0.0093 0,-0.01852 0,-0.02778 a 1.0482792,1.0482792 0 0 0 -0.0204,-0.13335 z"
         class="cls-1"
         style="display:inline;fill:#ee985d;stroke-width:0.185208"
         inkscape:connector-curvature="0" />
      <path
         style="display:inline;fill:#522768;stroke-width:0.185208"
         d="m 100.32277,24.022554 a 7.800975,7.800975 0 0 1 -7.800971,7.799122 2.1891625,2.1891625 0 0 0 0,4.376473 12.177448,12.177448 0 1 0 -12.17005,-12.173743 v 0 19.357975 a 2.1891625,2.1891625 0 1 0 4.37648,0 v -19.357975 0 a 7.800975,7.800975 0 1 1 15.600091,0 z"
         id="path2190"
         inkscape:connector-curvature="0" />
      <path
         style="display:inline;fill:#522768;stroke-width:0.185208"
         d="m 201.1261,22.585338 v 11.423649 a 2.1891625,2.1891625 0 1 0 4.37648,0 V 22.58719 a 10.730971,10.730971 0 0 0 -19.2913,-6.482292 10.730971,10.730971 0 0 0 -19.2913,6.482292 v 11.423649 a 2.1891625,2.1891625 0 1 0 4.37647,0 V 22.58719 a 6.36376,6.36376 0 0 1 12.72752,0 v 11.423649 a 2.1947187,2.1947187 0 0 0 2.18731,2.189162 v 0 a 2.2762104,2.2762104 0 0 0 0.43894,-0.04445 2.35585,2.35585 0 0 0 0.41117,-0.127793 2.2039792,2.2039792 0 0 0 0.70194,-0.470429 2.1761979,2.1761979 0 0 0 0.64267,-1.54649 V 22.58719 a 6.36376,6.36376 0 1 1 12.72752,0 z"
         id="path2188"
         inkscape:connector-curvature="0" />
      <path
         style="display:inline;fill:#522768;stroke-width:0.185208"
         d="M 128.89486,25.457918 V 14.036121 a 2.187311,2.187311 0 1 0 -4.37462,0 V 25.45977 a 6.36376,6.36376 0 0 1 -12.72752,0 V 14.036121 a 2.1891625,2.1891625 0 0 0 -4.37647,0 V 25.45977 a 10.742083,10.742083 0 1 0 21.48416,0 z"
         id="path2186"
         inkscape:connector-curvature="0" />
      <path
         style="display:inline;fill:#522768;stroke-width:0.185208"
         d="m 211.97376,36.2 a 2.1947187,2.1947187 0 0 0 2.18731,-2.189162 v -19.97472 a 2.1891625,2.1891625 0 0 0 -4.37647,0 v 19.974718 a 2.1965708,2.1965708 0 0 0 2.18916,2.189162 z"
         id="path2184"
         inkscape:connector-curvature="0" />
      <path
         style="display:inline;fill:#522768;stroke-width:0.185208"
         d="m 135.35863,36.21667 a 2.1947187,2.1947187 0 0 0 2.18731,-2.187311 V 6.6481602 a 2.1891625,2.1891625 0 0 0 -4.37647,0 V 34.029359 a 2.1947187,2.1947187 0 0 0 2.18916,2.187311 z"
         id="path2182"
         inkscape:connector-curvature="0" />
      <path
         style="display:inline;fill:#522768;stroke-width:0.185208"
         d="M 141.82055,25.45977 V 14.036121 a 2.187311,2.187311 0 1 1 4.37462,0 V 25.45977 a 6.3637583,6.3637583 0 1 0 12.72751,0 V 14.036121 a 2.1891625,2.1891625 0 0 1 4.37647,0 V 25.45977 a 10.742083,10.742083 0 1 1 -21.48416,0 z"
         id="path1594"
         inkscape:connector-curvature="0" />
    </g>
    <text
       transform="matrix(1.458,0,0,1.458,-10.636705,23.466284)"
       style="font-size:10.5833px;line-height:1.25;font-family:'PT Sans';-inkscape-font-specification:'PT Sans Normal';shape-inside:url(#rect2250)"
       id="text2248"
       xml:space="preserve" />
  </g>
</svg>
