<?xml version="1.0" encoding="UTF-8" standalone="no"?>
<svg
   width="214.02824"
   height="41"
   viewBox="0 0 214.02824 41"
   fill="none"
   version="1.1"
   id="svg10"
   sodipodi:docname="1password-40.svg"
   inkscape:version="1.3.2 (091e20e, 2023-11-25)"
   xmlns:inkscape="http://www.inkscape.org/namespaces/inkscape"
   xmlns:sodipodi="http://sodipodi.sourceforge.net/DTD/sodipodi-0.dtd"
   xmlns="http://www.w3.org/2000/svg"
   xmlns:svg="http://www.w3.org/2000/svg">
  <sodipodi:namedview
     id="namedview10"
     pagecolor="#ffffff"
     bordercolor="#000000"
     borderopacity="0.25"
     inkscape:showpageshadow="2"
     inkscape:pageopacity="0.0"
     inkscape:pagecheckerboard="0"
     inkscape:deskcolor="#d1d1d1"
     inkscape:zoom="0.69933921"
     inkscape:cx="106.52913"
     inkscape:cy="20.733858"
     inkscape:window-width="1392"
     inkscape:window-height="762"
     inkscape:window-x="0"
     inkscape:window-y="25"
     inkscape:window-maximized="0"
     inkscape:current-layer="svg10" />
  <g
     clip-path="url(#clip0_317_39299)"
     id="g10"
     transform="matrix(0.236186,0,0,0.236186,-0.20285708,0)">
    <path
       fill-rule="evenodd"
       clip-rule="evenodd"
       d="M 174.553,86.7961 C 174.553,38.8605 135.669,0 87.7058,0 39.7422,0 0.858887,38.8605 0.858887,86.7961 c 0,47.9379 38.883313,86.7959 86.846913,86.7959 47.9632,0 86.8472,-38.858 86.8472,-86.7959 z M 71.8986,38.576 c -0.6828,1.3392 -0.6828,3.0924 -0.6828,6.5987 v 19.8725 c 0,0.8759 0,1.3138 0.1107,1.7187 0.098,0.3587 0.2592,0.6971 0.476,0.9993 0.2446,0.3411 0.5847,0.6172 1.2649,1.1695 l 5.0298,4.0835 c 0.8199,0.6656 1.2298,0.9984 1.3786,1.3991 0.1305,0.3514 0.1305,0.738 0,1.0894 -0.1488,0.4006 -0.5587,0.7334 -1.3786,1.399 l -5.0297,4.0836 c -0.6802,0.5522 -1.0204,0.8283 -1.265,1.1694 -0.2168,0.3022 -0.378,0.6406 -0.476,0.9994 -0.1107,0.4049 -0.1107,0.8428 -0.1107,1.7187 v 43.5402 c 0,3.506 0,5.259 0.6828,6.598 0.6006,1.179 1.5589,2.136 2.7376,2.736 1.3401,0.683 3.0943,0.683 6.6026,0.683 h 12.9339 c 3.5083,0 5.2625,0 6.6023,-0.683 1.179,-0.6 2.137,-1.557 2.738,-2.736 0.683,-1.339 0.683,-3.092 0.683,-6.598 v -19.873 c 0,-0.876 0,-1.314 -0.111,-1.718 -0.098,-0.359 -0.259,-0.698 -0.476,-1 -0.245,-0.341 -0.585,-0.617 -1.265,-1.169 l -5.0297,-4.084 c -0.8198,-0.6653 -1.2298,-0.9982 -1.3786,-1.3989 -0.1305,-0.3514 -0.1305,-0.7379 0,-1.0893 0.1488,-0.4007 0.5587,-0.7335 1.3786,-1.3991 l 5.0297,-4.0835 c 0.68,-0.5522 1.02,-0.8284 1.265,-1.1695 0.217,-0.3022 0.378,-0.6406 0.476,-0.9993 0.111,-0.4049 0.111,-0.8428 0.111,-1.7187 v -43.54 c 0,-3.5063 0,-5.2595 -0.683,-6.5987 -0.601,-1.178 -1.559,-2.1358 -2.738,-2.736 -1.3398,-0.6824 -3.094,-0.6824 -6.6023,-0.6824 H 81.2388 c -3.5083,0 -5.2625,0 -6.6026,0.6824 -1.1787,0.6002 -2.137,1.558 -2.7376,2.736 z"
       fill="#1a285f"
       id="path1" />
    <path
       d="m 244.271,138.719 c 0.861,0 1.558,-0.697 1.558,-1.557 V 35.2064 c 0,-0.8599 -0.697,-1.557 -1.558,-1.557 h -15.034 c -0.557,0 -1.067,0.3013 -1.373,0.7665 -3.447,5.2385 -9.857,7.877 -18.641,8.1517 -0.86,0.0268 -1.559,0.721 -1.559,1.581 v 15.2492 c 0,0.8599 0.697,1.557 1.558,1.557 h 12.15 c 0.86,0 1.558,0.6971 1.558,1.5571 v 74.6501 c 0,0.86 0.697,1.557 1.558,1.557 z"
       fill="#1a285f"
       id="path2" />
    <path
       d="m 304.292,54.7273 c 8.11,0 14.63,4.3114 14.63,15.1696 0,10.539 -6.52,15.1697 -14.63,15.1697 H 286.64 V 54.7273 Z m 0,49.9797 c 23.853,0 37.688,-14.5306 37.688,-35.4488 0,-19.8004 -13.835,-34.3313 -37.688,-34.3313 h -38.834 c -0.861,0 -1.558,0.6971 -1.558,1.557 V 137.162 c 0,0.86 0.697,1.557 1.558,1.557 h 19.624 c 0.86,0 1.558,-0.697 1.558,-1.557 v -30.898 c 0,-0.86 0.698,-1.557 1.558,-1.557 z"
       fill="#1a285f"
       id="path3" />
    <path
       d="m 377.251,124.029 c -6.679,0 -10.813,-3.034 -10.813,-8.463 0,-4.791 2.862,-7.984 9.7,-7.984 h 18.606 v 1.596 c 0,9.262 -7.951,14.851 -17.493,14.851 z m 19.242,13.133 c 0,0.86 0.698,1.557 1.558,1.557 h 17.08 c 0.861,0 1.558,-0.697 1.558,-1.557 V 92.0926 c 0,-21.7166 -12.245,-34.3314 -34.349,-34.3314 -16.412,0 -28.977,8.7644 -34.129,22.8545 -0.309,0.8462 0.204,1.7587 1.08,1.9733 l 17.208,4.2178 c 0.778,0.1906 1.568,-0.2408 1.871,-0.9814 2.613,-6.3921 6.964,-10.1799 13.97,-10.1799 7.315,0 12.404,4.7904 12.404,13.4131 v 1.1178 c 0,2.3952 -0.795,3.3533 -3.658,3.3533 h -19.878 c -16.538,0 -26.557,8.7823 -26.557,22.6743 0,14.851 11.45,24.432 27.352,24.432 8.002,0 15.69,-2.63 21.108,-8.486 1.065,-1.151 3.382,-0.449 3.382,1.119 z"
       fill="#1a285f"
       id="path4" />
    <path
       d="m 458.999,124.667 c -7.727,0 -13.372,-3.207 -16.155,-9.101 -0.337,-0.715 -1.121,-1.131 -1.889,-0.937 l -16.085,4.072 c -0.827,0.209 -1.336,1.047 -1.09,1.864 4.072,13.524 17.693,20.071 34.424,20.071 21.469,0 33.713,-11.018 33.713,-26.028 0,-29.0623 -45.958,-19.1621 -45.958,-33.5334 0,-4.7904 3.976,-7.8244 11.132,-7.8244 7.122,0 11.891,3.8924 14.177,9.8612 0.283,0.7404 1.043,1.2049 1.822,1.0574 l 16.417,-3.1077 c 0.877,-0.1662 1.439,-1.037 1.186,-1.8932 -3.766,-12.7145 -14.349,-21.4067 -33.443,-21.4067 -20.991,0 -32.123,11.1777 -32.123,25.2296 0,30.0202 46.117,21.0782 46.117,33.5332 0,4.95 -4.134,8.143 -12.245,8.143 z"
       fill="#1a285f"
       id="path5" />
    <path
       d="m 530.442,124.667 c -7.728,0 -13.372,-3.207 -16.155,-9.101 -0.338,-0.715 -1.122,-1.131 -1.889,-0.937 l -16.085,4.072 c -0.827,0.209 -1.336,1.047 -1.09,1.864 4.072,13.524 17.692,20.071 34.424,20.071 21.468,0 33.713,-11.018 33.713,-26.028 0,-29.0623 -45.958,-19.1621 -45.958,-33.5334 0,-4.7904 3.976,-7.8244 11.132,-7.8244 7.122,0 11.89,3.8924 14.176,9.8612 0.284,0.7404 1.043,1.2049 1.823,1.0574 l 16.416,-3.1077 c 0.878,-0.1662 1.44,-1.037 1.186,-1.8932 -3.765,-12.7145 -14.349,-21.4067 -33.442,-21.4067 -20.991,0 -32.123,11.1777 -32.123,25.2296 0,30.0202 46.117,21.0782 46.117,33.5332 0,4.95 -4.135,8.143 -12.245,8.143 z"
       fill="#1a285f"
       id="path6" />
    <path
       d="m 583.463,137.53 c 0.17,0.698 0.795,1.189 1.514,1.189 h 24.734 c 0.723,0 1.351,-0.497 1.517,-1.2 l 12.598,-53.5702 12.599,53.5702 c 0.165,0.703 0.793,1.2 1.517,1.2 h 25.532 c 0.717,0 1.342,-0.489 1.513,-1.186 l 18.636,-75.9276 c 0.241,-0.9811 -0.502,-1.928 -1.513,-1.928 h -17.577 c -0.739,0 -1.376,0.5186 -1.526,1.2417 L 650.542,121.154 635.099,60.8484 c -0.177,-0.6891 -0.798,-1.171 -1.509,-1.171 h -19.664 c -0.722,0 -1.349,0.4952 -1.516,1.1967 L 598.064,121.154 585.756,60.9229 c -0.148,-0.7249 -0.786,-1.2455 -1.526,-1.2455 h -17.737 c -1.01,0 -1.753,0.9448 -1.514,1.9251 z"
       fill="#1a285f"
       id="path7" />
    <path
       d="m 725.638,140.636 c 23.853,0 40.233,-18.523 40.233,-41.3578 0,-22.994 -16.38,-41.517 -40.233,-41.517 -23.695,0 -40.233,18.523 -40.233,41.517 0,22.8348 16.538,41.3578 40.233,41.3578 z m 0,-19.002 c -9.86,0 -17.493,-8.304 -17.493,-22.3558 0,-14.0519 7.633,-22.515 17.493,-22.515 9.859,0 17.651,8.4631 17.651,22.515 0,14.0518 -7.792,22.3558 -17.651,22.3558 z"
       fill="#1a285f"
       id="path8" />
    <path
       d="m 797.237,96.883 c 0,-13.5729 6.838,-16.7665 17.333,-16.7665 2.012,0 4.223,0.1997 6.318,0.5991 0.888,0.1692 1.768,-0.3975 1.925,-1.2871 l 3.329,-18.8046 c 0.117,-0.6605 -0.199,-1.3302 -0.816,-1.5931 -1.913,-0.8144 -4.279,-1.2696 -7.098,-1.2696 -10.655,0 -18.924,6.2276 -22.899,18.8423 V 61.2344 c 0,-0.8599 -0.698,-1.557 -1.558,-1.557 h -17.24 c -0.86,0 -1.557,0.6971 -1.557,1.557 v 75.9276 c 0,0.86 0.697,1.557 1.557,1.557 h 19.148 c 0.86,0 1.558,-0.697 1.558,-1.557 z"
       fill="#1a285f"
       id="path9" />
    <path
       d="m 867.288,122.113 c -11.45,0 -17.493,-9.422 -17.493,-22.8348 0,-13.4132 6.043,-22.994 17.493,-22.994 11.45,0 17.493,9.5808 17.493,22.994 0,13.4128 -6.043,22.8348 -17.493,22.8348 z m 18.765,15.049 c 0,0.86 0.697,1.557 1.558,1.557 h 17.875 c 0.86,0 1.558,-0.697 1.558,-1.557 V 36.7161 c 0,-0.8599 -0.698,-1.557 -1.558,-1.557 h -18.511 c -0.861,0 -1.558,0.6971 -1.558,1.557 v 33.9792 c -4.93,-9.2614 -13.199,-12.9341 -23.695,-12.9341 -20.514,0 -34.508,17.8843 -34.508,41.517 0,23.6328 13.994,41.3578 34.508,41.3578 11.132,0 19.719,-4.472 24.331,-15.969 z"
       fill="#1a285f"
       id="path10" />
  </g>
  <defs
     id="defs10">
    <clipPath
       id="clip0_317_39299">
      <rect
         width="908"
         height="174"
         fill="#ffffff"
         id="rect10"
         x="0"
         y="0" />
    </clipPath>
  </defs>
</svg>
