<?xml version="1.0" encoding="UTF-8" standalone="no"?>
<svg
   width="122.05448"
   height="41"
   viewBox="0 0 122.05448 41"
   fill="none"
   version="1.1"
   id="svg7"
   sodipodi:docname="vault-40.svg"
   inkscape:version="1.3.2 (091e20e, 2023-11-25)"
   xmlns:inkscape="http://www.inkscape.org/namespaces/inkscape"
   xmlns:sodipodi="http://sodipodi.sourceforge.net/DTD/sodipodi-0.dtd"
   xmlns="http://www.w3.org/2000/svg"
   xmlns:svg="http://www.w3.org/2000/svg">
  <defs
     id="defs7" />
  <sodipodi:namedview
     id="namedview7"
     pagecolor="#ffffff"
     bordercolor="#000000"
     borderopacity="0.25"
     inkscape:showpageshadow="2"
     inkscape:pageopacity="0.0"
     inkscape:pagecheckerboard="0"
     inkscape:deskcolor="#d1d1d1"
     inkscape:zoom="3.6363636"
     inkscape:cx="65.0375"
     inkscape:cy="13.3375"
     inkscape:window-width="1392"
     inkscape:window-height="762"
     inkscape:window-x="0"
     inkscape:window-y="25"
     inkscape:window-maximized="0"
     inkscape:current-layer="svg7" />
  <g
     id="g7"
     transform="scale(0.58571345)">
    <path
       d="m 108.669,25.4456 h 8.521 L 104.279,68.7948 H 92.1643 L 79.2531,25.4456 h 8.5321 l 10.4689,36.119 z"
       fill="#000000"
       id="path1" />
    <path
       d="m 140.947,68.7949 h -6.509 l -0.581,-2.1519 c -2.81,1.8223 -6.087,2.7938 -9.436,2.7974 -5.8,0 -8.274,-3.9702 -8.274,-9.4359 0,-6.4556 2.808,-8.9195 9.242,-8.9195 h 7.618 v -3.2923 c 0,-3.5183 -0.979,-4.7556 -6.047,-4.7556 -2.955,0.0345 -5.9,0.3624 -8.79,0.9791 l -0.98,-6.0468 c 3.539,-0.9839 7.194,-1.4905 10.867,-1.5063 9.963,0 12.912,3.5183 12.912,11.4587 z m -7.94,-11.9751 h -5.853 c -2.604,0 -3.325,0.7101 -3.325,3.1202 0,2.2164 0.721,3.2277 3.228,3.2277 2.099,-0.0284 4.157,-0.5873 5.982,-1.6246 z"
       fill="#000000"
       id="path2" />
    <path
       d="m 153.396,37.0981 v 22.1212 c 0,1.7 0.72,2.5392 2.539,2.5392 1.818,0 5.379,-1.1728 8.263,-2.6683 V 37.0981 h 7.951 v 31.697 h -6.047 l -0.796,-2.7114 c -3.953,1.9728 -8.273,3.1013 -12.685,3.3139 -5.272,0 -7.166,-3.712 -7.166,-9.3714 V 37.0981 Z"
       fill="#000000"
       id="path3" />
    <path
       d="M 176.367,68.795 V 24.1223 l 7.94,-1.0759 V 68.795 Z"
       fill="#000000"
       id="path4" />
    <path
       d="m 207.999,68.2354 c -2.242,0.7871 -4.596,1.205 -6.972,1.2374 -5.789,0 -8.715,-2.7329 -8.715,-8.3923 V 43.4137 h -4.756 V 37.098 h 4.756 v -7.8758 l 7.94,-1.076 v 8.9841 h 8.134 l -0.527,6.3157 h -7.607 v 16.5586 c 0,1.6892 0.775,2.7974 2.862,2.7974 1.346,-0.0405 2.681,-0.2576 3.97,-0.6456 z"
       fill="#000000"
       id="path5" />
    <path
       d="M 0,0.451904 34.645,70.0001 69.5482,0.451904 Z M 38.7335,14.439 h 4.0348 v 4.0025 h -4.0348 z m -8.0264,16.139 h -3.9917 v -4.067 h 4.024 z m 0,-6.0468 h -3.9917 v -4.067 h 4.024 z m 0,-6.0467 h -3.9917 v -4.067 h 4.024 z m 6.0467,18.151 h -3.9917 v -4.0778 h 4.024 z m 0,-6.0575 h -3.9917 v -4.067 h 4.024 z m 0,-6.0468 h -3.9917 v -4.067 h 4.024 z m 0,-6.0467 h -3.9917 v -4.067 h 4.024 z m 1.9797,1.9797 h 4.0348 v 4.024 h -4.0348 z m 0,10.0707 V 26.511 h 4.024 v 4.0239 z"
       fill="#000000"
       id="path6" />
    <path
       d="M 87.6561,14.8156 V 8.73656 H 82.0936 V 14.8156 H 79.2531 V 0.204428 h 2.8405 V 6.33724 h 5.5625 V 0.204428 h 2.8512 V 14.8156 Z m 13.2659,0 h -2.2591 l -0.2044,-0.7101 c -0.9697,0.6023 -2.0864,0.9261 -3.2278,0.936 -2.0013,0 -2.862,-1.3234 -2.862,-3.1417 0,-2.15186 0.9684,-2.96957 3.2278,-2.96957 h 2.636 V 7.8543 c 0,-1.16201 -0.3335,-1.57086 -2.1518,-1.57086 -1.0229,0.01046 -2.0425,0.11854 -3.0449,0.32278 L 92.7023,4.59423 c 1.2276,-0.33321 2.4937,-0.50324 3.7657,-0.50569 3.443,0 4.465,1.17276 4.465,3.81956 z m -2.754,-3.981 h -2.0335 c -0.893,0 -1.1405,0.2367 -1.1405,1.076 0,0.8392 0.2474,1.0759 1.0759,1.0759 0.7256,-0.0079 1.4384,-0.1926 2.0766,-0.538 z m 8.511,4.2069 c -1.286,-0.0237 -2.561,-0.2302 -3.788,-0.6133 l 0.388,-2.012 c 1.052,0.2871 2.137,0.439 3.227,0.4519 1.216,0 1.399,-0.2582 1.399,-1.0759 0,-0.8177 -0.14,-0.9791 -1.915,-1.3879 -2.69,-0.62408 -3.002,-1.2804 -3.002,-3.31391 0,-2.03351 0.968,-3.05565 4.099,-3.05565 1.109,-0.00134 2.213,0.12502 3.293,0.37658 l -0.269,2.09807 c -0.999,-0.17644 -2.01,-0.27715 -3.024,-0.30127 -1.194,0 -1.398,0.25823 -1.398,0.90378 0,0.84999 0.075,0.91455 1.56,1.28037 3.066,0.77467 3.357,1.162 3.357,3.33543 0,2.1733 -0.614,3.3138 -3.927,3.3138 z m 12.599,-0.2259 V 7.4562 c 0,-0.55948 -0.248,-0.83922 -0.883,-0.83922 -1.001,0.107 -1.973,0.40658 -2.861,0.88226 v 7.31636 h -2.755 V 0 l 2.755,0.408853 V 5.0784 c 1.252,-0.61506 2.619,-0.96313 4.013,-1.02214 1.829,0 2.485,1.23732 2.485,3.1202 V 14.8156 Z M 124.335,2.78666 V 0.204428 h 2.754 V 2.78666 Z m 0,12.02894 V 4.27145 h 2.754 V 14.8156 Z m 4.949,-10.45808 c 0,-2.63603 1.603,-4.174612 5.38,-4.174612 1.373,-7.05e-4 2.741,0.158165 4.077,0.473411 l -0.312,2.367051 c -1.214,-0.21999 -2.445,-0.34232 -3.679,-0.36582 -1.959,0 -2.593,0.64556 -2.593,2.15186 v 5.54109 c 0,1.5385 0.634,2.1518 2.593,2.1518 1.234,-0.0235 2.465,-0.1458 3.679,-0.3658 l 0.312,2.3563 c -1.336,0.3189 -2.704,0.4813 -4.077,0.4842 -3.745,0 -5.38,-1.5386 -5.38,-4.1854 z m 15.504,10.68398 c -3.766,0 -4.777,-2.0012 -4.777,-4.1638 V 8.22012 c 0,-2.15187 1.011,-4.16386 4.777,-4.16386 3.766,0 4.766,1.99048 4.766,4.16386 v 2.65758 c 0,2.1626 -1,4.1638 -4.766,4.1638 z m 0,-8.72578 c -1.463,0 -2.033,0.62404 -2.033,1.81832 v 2.82966 c 0,1.1943 0.57,1.8184 2.033,1.8184 1.463,0 2.034,-0.6241 2.034,-1.8184 V 8.13404 c 0,-1.22656 -0.571,-1.81832 -2.034,-1.81832 z m 12.524,0.17215 c -1.007,0.43569 -1.979,0.95015 -2.905,1.53858 v 6.78915 h -2.701 V 4.27145 h 2.324 l 0.183,1.17276 c 0.894,-0.58426 1.86,-1.05076 2.873,-1.38795 z m 10.996,4.82013 c 0,2.3456 -1.076,3.7335 -3.626,3.7335 -0.983,-0.0124 -1.963,-0.1168 -2.926,-0.312 v 4.3037 l -2.755,0.4089 V 4.27145 h 2.152 l 0.269,0.89302 c 1.018,-0.71138 2.233,-1.08748 3.475,-1.07593 2.206,0 3.379,1.25884 3.379,3.65816 z m -6.552,1.1943 c 0.799,0.171 1.613,0.2647 2.431,0.2798 0.99,0 1.377,-0.4519 1.377,-1.4095 V 7.64987 c 0,-0.86074 -0.344,-1.33415 -1.355,-1.33415 -0.902,0.02694 -1.768,0.36097 -2.453,0.94682 z"
       fill="#000000"
       id="path7" />
  </g>
</svg>
