<?xml version="1.0" encoding="UTF-8" standalone="no"?>
<svg
   xmlns:dc="http://purl.org/dc/elements/1.1/"
   xmlns:cc="http://creativecommons.org/ns#"
   xmlns:rdf="http://www.w3.org/1999/02/22-rdf-syntax-ns#"
   xmlns:svg="http://www.w3.org/2000/svg"
   xmlns="http://www.w3.org/2000/svg"
   xmlns:sodipodi="http://sodipodi.sourceforge.net/DTD/sodipodi-0.dtd"
   xmlns:inkscape="http://www.inkscape.org/namespaces/inkscape"
   inkscape:version="1.0beta1 (32d4812, 2019-09-19)"
   height="383.29999"
   width="845.79999"
   sodipodi:docname="infrastructure_resources.svg"
   xml:space="preserve"
   viewBox="0 0 845.79999 383.29999"
   y="0px"
   x="0px"
   id="Layer_1"
   version="1.1"><metadata
   id="metadata1403">
  <rdf:RDF>
    <cc:Work
       rdf:about="">
      <dc:format>image/svg+xml</dc:format>
      <dc:type
         rdf:resource="http://purl.org/dc/dcmitype/StillImage" />
      <dc:title></dc:title>
    </cc:Work>
  </rdf:RDF>
</metadata>
<defs
   id="defs1401" />
<sodipodi:namedview
   inkscape:current-layer="Layer_1"
   inkscape:window-maximized="0"
   inkscape:window-y="23"
   inkscape:window-x="0"
   inkscape:cy="-158.7"
   inkscape:cx="-7.8"
   inkscape:zoom="0.5"
   showgrid="false"
   id="namedview1399"
   inkscape:window-height="1005"
   inkscape:window-width="1600"
   inkscape:pageshadow="2"
   inkscape:pageopacity="0"
   guidetolerance="10"
   gridtolerance="10"
   objecttolerance="10"
   borderopacity="1"
   inkscape:document-rotation="0"
   bordercolor="#666666"
   pagecolor="#ffffff" />

<style
   id="style10"
   type="text/css">
	.st0{fill:#522569;}
	.st1{fill:#DFF8DD;stroke:#687080;stroke-width:2;stroke-miterlimit:10;stroke-dasharray:12;}
	.st2{fill:#9DD1F0;}
	.st3{fill:#687080;stroke:#B4BCC7;stroke-miterlimit:10;}
	.st4{fill:#EE975C;}
	.st5{fill:#326CE5;}
	.st6{fill:#FFFFFF;stroke:#FFFFFF;stroke-width:3.144756e-02;}
	.st7{fill:#FFFFFF;}
	.st8{fill:#0A0A0A;}
	.st9{fill:#141414;}
	.st10{fill:#4387C7;}
	.st11{fill:#DBE0E6;}
	.st12{fill:#FFFFFF;stroke:#687080;stroke-width:2;stroke-miterlimit:10;}
	.st13{fill:none;stroke:#687080;stroke-width:2;stroke-miterlimit:10;stroke-dasharray:12.0104,12.0104;}
	.st14{fill:#384049;}
	.st15{fill:#FFFFFF;stroke:#687080;stroke-miterlimit:10;}
	.st16{fill:none;stroke:#687080;stroke-width:2;stroke-miterlimit:10;}
	.st17{fill:#687080;}
	.st18{fill:#0072C6;}
	.st19{fill:#252E3E;}
	.st20{fill-rule:evenodd;clip-rule:evenodd;fill:#FF9900;}
	.st21{fill:#E2E3E4;}
	.st22{fill:#F8BB17;}
	.st23{fill:#0374BB;}
	.st24{fill:#EA4234;}
</style>


























































































<path
   inkscape:connector-curvature="0"
   id="path730"
   d="M 841.8,247.5 H 164.3 c -2.2,0 -4,-1.8 -4,-4 V 4 c 0,-2.2 1.8,-4 4,-4 h 677.5 c 2.2,0 4,1.8 4,4 v 239.5 c 0,2.2 -1.8,4 -4,4 z"
   class="st11" />
<path
   inkscape:connector-curvature="0"
   id="path732"
   d="M 376.7,383.3 H 164.3 c -2.2,0 -4,-1.8 -4,-4 V 261.5 c 0,-2.2 1.8,-4 4,-4 h 212.5 c 2.2,0 4,1.8 4,4 v 117.8 c -0.1,2.2 -1.9,4 -4.1,4 z"
   class="st12" />
<path
   inkscape:connector-curvature="0"
   id="path734"
   d="M 609.2,383.3 H 396.8 c -2.2,0 -4,-1.8 -4,-4 V 261.5 c 0,-2.2 1.8,-4 4,-4 h 212.4 c 2.2,0 4,1.8 4,4 v 117.8 c 0,2.2 -1.8,4 -4,4 z"
   class="st12" />
<path
   inkscape:connector-curvature="0"
   id="path736"
   d="M 841.8,383 H 629.3 c -2.2,0 -4,-1.8 -4,-4 V 261.2 c 0,-2.2 1.8,-4 4,-4 h 212.5 c 2.2,0 4,1.8 4,4 V 379 c 0,2.2 -1.8,4 -4,4 z"
   class="st12" />
<g
   transform="translate(-184.8,-722.7)"
   id="g740">
	<path
   inkscape:connector-curvature="0"
   id="path738"
   d="M 827.9,905.3 H 415.5 c -2.2,0 -4,-1.8 -4,-4 V 749.7 c 0,-2.2 1.8,-4 4,-4 h 412.4 c 2.2,0 4,1.8 4,4 v 151.6 c 0,2.2 -1.8,4 -4,4 z"
   class="st13" />

</g>
<g
   transform="translate(-184.8,-722.7)"
   id="g790">
	<g
   id="g788">
		<path
   inkscape:connector-curvature="0"
   id="path742"
   d="m 557.7,936.2 h 1.7 v 12.5 h -1.7 z"
   class="st9" />

		<path
   inkscape:connector-curvature="0"
   id="path744"
   d="m 571.5,948.7 c -0.3,-0.4 -0.6,-0.9 -0.9,-1.5 -0.3,-0.6 -0.7,-1.1 -1.1,-1.7 -0.4,-0.6 -0.8,-1.2 -1.2,-1.8 -0.4,-0.6 -0.8,-1.2 -1.3,-1.8 -0.4,-0.6 -0.8,-1.1 -1.2,-1.6 -0.4,-0.5 -0.8,-0.9 -1.1,-1.3 v 9.7 H 563 v -12.5 h 1.4 c 0.6,0.6 1.2,1.3 1.8,2.1 0.6,0.8 1.3,1.6 1.9,2.5 0.6,0.8 1.2,1.7 1.8,2.5 0.6,0.8 1,1.5 1.4,2.2 v -9.2 h 1.7 v 12.5 h -1.5 z"
   class="st9" />

		<path
   inkscape:connector-curvature="0"
   id="path746"
   d="m 576.4,948.7 v -12.5 h 7.5 v 1.5 h -5.8 v 3.8 h 5.1 v 1.5 h -5.1 v 5.7 z"
   class="st9" />

		<path
   inkscape:connector-curvature="0"
   id="path748"
   d="m 592.5,943.5 c 0.2,0.2 0.4,0.6 0.7,0.9 0.3,0.4 0.6,0.8 0.9,1.3 0.3,0.5 0.6,1 0.9,1.5 0.3,0.5 0.6,1 0.8,1.5 H 594 c -0.2,-0.5 -0.5,-0.9 -0.8,-1.4 -0.3,-0.5 -0.6,-0.9 -0.9,-1.3 -0.3,-0.4 -0.6,-0.8 -0.9,-1.2 -0.3,-0.4 -0.5,-0.7 -0.8,-1 -0.2,0 -0.3,0 -0.5,0 -0.2,0 -0.3,0 -0.5,0 H 588 v 4.9 h -1.7 v -12.3 c 0.5,-0.1 1,-0.2 1.6,-0.2 0.6,0 1.2,-0.1 1.7,-0.1 1.8,0 3.1,0.3 4,1 0.9,0.7 1.4,1.6 1.4,3 0,0.8 -0.2,1.5 -0.7,2.1 -0.3,0.5 -0.9,1 -1.8,1.3 z m -2.6,-5.9 c -0.7,0 -1.3,0 -1.7,0.1 v 4.7 h 1.2 c 0.6,0 1.1,0 1.6,-0.1 0.5,-0.1 0.9,-0.2 1.2,-0.3 0.3,-0.1 0.6,-0.4 0.8,-0.7 0.2,-0.3 0.3,-0.7 0.3,-1.2 0,-0.5 -0.1,-0.9 -0.3,-1.2 -0.2,-0.3 -0.4,-0.6 -0.7,-0.7 -0.3,-0.2 -0.7,-0.3 -1.1,-0.4 -0.4,-0.1 -0.8,-0.2 -1.3,-0.2 z"
   class="st9" />

		<path
   inkscape:connector-curvature="0"
   id="path750"
   d="m 607,948.7 c -0.2,-0.5 -0.4,-1.1 -0.6,-1.6 -0.2,-0.5 -0.4,-1.1 -0.6,-1.6 h -5.7 l -1.1,3.2 h -1.8 c 0.5,-1.3 0.9,-2.5 1.4,-3.7 0.4,-1.1 0.8,-2.2 1.2,-3.2 0.4,-1 0.8,-2 1.2,-2.9 0.4,-0.9 0.8,-1.8 1.2,-2.7 h 1.6 c 0.4,0.9 0.8,1.8 1.2,2.7 0.4,0.9 0.8,1.9 1.2,2.9 0.4,1 0.8,2.1 1.2,3.2 0.4,1.1 0.9,2.3 1.3,3.7 z m -1.7,-4.6 c -0.4,-1 -0.8,-2.1 -1.1,-3 -0.4,-1 -0.8,-1.9 -1.2,-2.8 -0.4,0.9 -0.8,1.8 -1.2,2.8 -0.4,1 -0.8,2 -1.1,3 z"
   class="st9" />

		<path
   inkscape:connector-curvature="0"
   id="path752"
   d="m 614.1,947.4 c 1.8,0 2.7,-0.6 2.7,-1.9 0,-0.4 -0.1,-0.7 -0.2,-1 -0.2,-0.3 -0.4,-0.5 -0.7,-0.7 -0.3,-0.2 -0.6,-0.4 -0.9,-0.5 -0.4,-0.1 -0.7,-0.3 -1.1,-0.4 -0.5,-0.2 -0.9,-0.3 -1.3,-0.5 -0.4,-0.2 -0.8,-0.4 -1.1,-0.7 -0.3,-0.3 -0.5,-0.6 -0.7,-1 -0.2,-0.4 -0.3,-0.8 -0.3,-1.4 0,-1.1 0.4,-1.9 1.1,-2.6 0.7,-0.7 1.8,-0.9 3.1,-0.9 0.8,0 1.4,0.1 2.1,0.2 0.6,0.2 1.1,0.3 1.4,0.5 l -0.6,1.4 c -0.3,-0.2 -0.6,-0.3 -1.1,-0.5 -0.5,-0.2 -1.1,-0.2 -1.7,-0.2 -0.3,0 -0.6,0 -0.9,0.1 -0.3,0.1 -0.5,0.2 -0.8,0.3 -0.2,0.1 -0.4,0.3 -0.5,0.5 -0.1,0.2 -0.2,0.5 -0.2,0.8 0,0.3 0.1,0.6 0.2,0.8 0.1,0.2 0.3,0.4 0.6,0.6 0.2,0.2 0.5,0.3 0.8,0.5 0.3,0.1 0.7,0.3 1.1,0.4 0.5,0.2 1,0.4 1.5,0.6 0.4,0.2 0.8,0.5 1.2,0.8 0.3,0.3 0.6,0.7 0.8,1.1 0.2,0.4 0.3,0.9 0.3,1.5 0,1.1 -0.4,1.9 -1.2,2.5 -0.8,0.6 -1.9,0.9 -3.4,0.9 -0.5,0 -0.9,0 -1.4,-0.1 -0.4,-0.1 -0.8,-0.1 -1.1,-0.2 -0.3,-0.1 -0.6,-0.2 -0.8,-0.3 -0.2,-0.1 -0.4,-0.2 -0.5,-0.3 l 0.5,-1.4 c 0.3,0.2 0.7,0.3 1.3,0.5 0.3,0.5 1,0.6 1.8,0.6 z"
   class="st9" />

		<path
   inkscape:connector-curvature="0"
   id="path754"
   d="m 629.5,936.2 v 1.5 h -3.9 v 11 h -1.7 v -11 H 620 v -1.5 z"
   class="st9" />

		<path
   inkscape:connector-curvature="0"
   id="path756"
   d="m 637.8,943.5 c 0.2,0.2 0.4,0.6 0.7,0.9 0.3,0.4 0.6,0.8 0.9,1.3 0.3,0.5 0.6,1 0.9,1.5 0.3,0.5 0.6,1 0.8,1.5 h -1.9 c -0.2,-0.5 -0.5,-0.9 -0.8,-1.4 -0.3,-0.5 -0.6,-0.9 -0.9,-1.3 -0.3,-0.4 -0.6,-0.8 -0.9,-1.2 -0.3,-0.4 -0.5,-0.7 -0.8,-1 -0.2,0 -0.3,0 -0.5,0 -0.2,0 -0.3,0 -0.5,0 h -1.6 v 4.9 h -1.7 v -12.3 c 0.5,-0.1 1,-0.2 1.6,-0.2 0.6,0 1.2,-0.1 1.7,-0.1 1.8,0 3.1,0.3 4,1 0.9,0.7 1.4,1.6 1.4,3 0,0.8 -0.2,1.5 -0.7,2.1 -0.2,0.5 -0.9,1 -1.7,1.3 z m -2.7,-5.9 c -0.7,0 -1.3,0 -1.7,0.1 v 4.7 h 1.2 c 0.6,0 1.1,0 1.6,-0.1 0.5,-0.1 0.9,-0.2 1.2,-0.3 0.3,-0.1 0.6,-0.4 0.8,-0.7 0.2,-0.3 0.3,-0.7 0.3,-1.2 0,-0.5 -0.1,-0.9 -0.3,-1.2 -0.2,-0.3 -0.4,-0.6 -0.7,-0.7 -0.3,-0.2 -0.7,-0.3 -1.1,-0.4 -0.4,-0.1 -0.8,-0.2 -1.3,-0.2 z"
   class="st9" />

		<path
   inkscape:connector-curvature="0"
   id="path758"
   d="m 648,948.9 c -0.8,0 -1.5,-0.1 -2.1,-0.4 -0.6,-0.3 -1.1,-0.6 -1.5,-1 -0.4,-0.4 -0.7,-1 -0.9,-1.6 -0.2,-0.6 -0.3,-1.2 -0.3,-1.9 v -7.8 h 1.7 v 7.6 c 0,1.2 0.3,2.2 0.8,2.7 0.6,0.6 1.3,0.8 2.2,0.8 0.4,0 0.8,-0.1 1.2,-0.2 0.4,-0.1 0.7,-0.4 0.9,-0.6 0.3,-0.3 0.5,-0.7 0.6,-1.1 0.1,-0.4 0.2,-1 0.2,-1.6 v -7.6 h 1.7 v 7.8 c 0,0.7 -0.1,1.3 -0.3,1.9 -0.2,0.6 -0.5,1.1 -0.9,1.6 -0.4,0.5 -0.9,0.8 -1.5,1 -0.3,0.3 -1,0.4 -1.8,0.4 z"
   class="st9" />

		<path
   inkscape:connector-curvature="0"
   id="path760"
   d="m 661.5,948.9 c -0.9,0 -1.7,-0.1 -2.4,-0.4 -0.7,-0.3 -1.3,-0.7 -1.9,-1.3 -0.5,-0.6 -0.9,-1.2 -1.2,-2 -0.3,-0.8 -0.4,-1.7 -0.4,-2.8 0,-1.1 0.2,-2 0.5,-2.8 0.3,-0.8 0.7,-1.5 1.3,-2 0.5,-0.6 1.2,-1 1.9,-1.3 0.7,-0.3 1.5,-0.4 2.3,-0.4 0.5,0 1,0 1.4,0.1 0.4,0.1 0.8,0.2 1.1,0.3 0.3,0.1 0.6,0.2 0.7,0.3 0.2,0.1 0.3,0.2 0.4,0.2 l -0.5,1.4 c -0.1,-0.1 -0.3,-0.1 -0.5,-0.2 -0.2,-0.1 -0.4,-0.2 -0.7,-0.3 -0.3,-0.1 -0.5,-0.2 -0.8,-0.2 -0.3,-0.1 -0.6,-0.1 -0.9,-0.1 -0.7,0 -1.3,0.1 -1.8,0.3 -0.5,0.2 -1,0.6 -1.4,1 -0.4,0.4 -0.7,1 -0.9,1.6 -0.2,0.6 -0.3,1.3 -0.3,2.1 0,0.7 0.1,1.4 0.3,2 0.2,0.6 0.4,1.1 0.8,1.6 0.3,0.4 0.8,0.8 1.3,1 0.5,0.2 1.1,0.4 1.8,0.4 0.8,0 1.5,-0.1 2,-0.3 0.5,-0.2 0.9,-0.3 1.2,-0.5 l 0.4,1.4 c -0.1,0.1 -0.2,0.1 -0.4,0.2 -0.2,0.1 -0.5,0.2 -0.8,0.3 -0.3,0.1 -0.7,0.2 -1.1,0.2 -0.5,0.2 -0.9,0.2 -1.4,0.2 z"
   class="st9" />

		<path
   inkscape:connector-curvature="0"
   id="path762"
   d="m 676.3,936.2 v 1.5 h -3.9 v 11 h -1.7 v -11 h -3.9 v -1.5 z"
   class="st9" />

		<path
   inkscape:connector-curvature="0"
   id="path764"
   d="m 683.1,948.9 c -0.8,0 -1.5,-0.1 -2.1,-0.4 -0.6,-0.3 -1.1,-0.6 -1.5,-1 -0.4,-0.4 -0.7,-1 -0.9,-1.6 -0.2,-0.6 -0.3,-1.2 -0.3,-1.9 v -7.8 h 1.7 v 7.6 c 0,1.2 0.3,2.2 0.8,2.7 0.6,0.6 1.3,0.8 2.2,0.8 0.4,0 0.8,-0.1 1.2,-0.2 0.4,-0.1 0.7,-0.4 0.9,-0.6 0.2,-0.2 0.5,-0.7 0.6,-1.1 0.1,-0.5 0.2,-1 0.2,-1.6 v -7.6 h 1.7 v 7.8 c 0,0.7 -0.1,1.3 -0.3,1.9 -0.2,0.6 -0.5,1.1 -0.9,1.6 -0.4,0.4 -0.9,0.8 -1.5,1 -0.6,0.2 -1,0.4 -1.8,0.4 z"
   class="st9" />

		<path
   inkscape:connector-curvature="0"
   id="path766"
   d="m 697.3,943.5 c 0.2,0.2 0.4,0.6 0.7,0.9 0.3,0.4 0.6,0.8 0.9,1.3 0.3,0.5 0.6,1 0.9,1.5 0.3,0.5 0.6,1 0.8,1.5 h -1.9 c -0.2,-0.5 -0.5,-0.9 -0.8,-1.4 -0.3,-0.5 -0.6,-0.9 -0.9,-1.3 -0.3,-0.4 -0.6,-0.8 -0.9,-1.2 -0.3,-0.4 -0.5,-0.7 -0.8,-1 -0.2,0 -0.3,0 -0.5,0 -0.2,0 -0.3,0 -0.5,0 h -1.6 v 4.9 H 691 v -12.3 c 0.5,-0.1 1,-0.2 1.6,-0.2 0.6,0 1.2,-0.1 1.7,-0.1 1.8,0 3.1,0.3 4,1 0.9,0.7 1.4,1.6 1.4,3 0,0.8 -0.2,1.5 -0.7,2.1 -0.2,0.5 -0.9,1 -1.7,1.3 z m -2.7,-5.9 c -0.7,0 -1.3,0 -1.7,0.1 v 4.7 h 1.2 c 0.6,0 1.1,0 1.6,-0.1 0.5,-0.1 0.9,-0.2 1.2,-0.3 0.3,-0.1 0.6,-0.4 0.8,-0.7 0.2,-0.3 0.3,-0.7 0.3,-1.2 0,-0.5 -0.1,-0.9 -0.3,-1.2 -0.2,-0.3 -0.4,-0.6 -0.7,-0.7 -0.3,-0.2 -0.7,-0.3 -1.1,-0.4 -0.4,-0.1 -0.8,-0.2 -1.3,-0.2 z"
   class="st9" />

		<path
   inkscape:connector-curvature="0"
   id="path768"
   d="m 702.9,948.7 v -12.5 h 7.6 v 1.5 h -5.9 v 3.7 h 5.2 v 1.5 h -5.2 v 4.3 h 6.3 v 1.5 z"
   class="st9" />

		<path
   inkscape:connector-curvature="0"
   id="path770"
   d="m 724.1,943.5 c 0.2,0.2 0.4,0.6 0.7,0.9 0.3,0.4 0.6,0.8 0.9,1.3 0.3,0.5 0.6,1 0.9,1.5 0.3,0.5 0.6,1 0.8,1.5 h -1.9 c -0.2,-0.5 -0.5,-0.9 -0.8,-1.4 -0.3,-0.5 -0.6,-0.9 -0.9,-1.3 -0.3,-0.4 -0.6,-0.8 -0.9,-1.2 -0.3,-0.4 -0.5,-0.7 -0.8,-1 -0.2,0 -0.3,0 -0.5,0 -0.2,0 -0.3,0 -0.5,0 h -1.6 v 4.9 H 718 v -12.3 c 0.5,-0.1 1,-0.2 1.6,-0.2 0.6,0 1.2,-0.1 1.7,-0.1 1.8,0 3.1,0.3 4,1 0.9,0.7 1.4,1.6 1.4,3 0,0.8 -0.2,1.5 -0.7,2.1 -0.4,0.5 -1,1 -1.9,1.3 z m -2.6,-5.9 c -0.7,0 -1.3,0 -1.7,0.1 v 4.7 h 1.2 c 0.6,0 1.1,0 1.6,-0.1 0.5,-0.1 0.9,-0.2 1.2,-0.3 0.3,-0.1 0.6,-0.4 0.8,-0.7 0.2,-0.3 0.3,-0.7 0.3,-1.2 0,-0.5 -0.1,-0.9 -0.3,-1.2 -0.2,-0.3 -0.4,-0.6 -0.7,-0.7 -0.3,-0.2 -0.7,-0.3 -1.1,-0.4 -0.4,-0.1 -0.8,-0.2 -1.3,-0.2 z"
   class="st9" />

		<path
   inkscape:connector-curvature="0"
   id="path772"
   d="m 729.7,948.7 v -12.5 h 7.6 v 1.5 h -5.9 v 3.7 h 5.2 v 1.5 h -5.2 v 4.3 h 6.3 v 1.5 z"
   class="st9" />

		<path
   inkscape:connector-curvature="0"
   id="path774"
   d="m 743.2,947.4 c 1.8,0 2.7,-0.6 2.7,-1.9 0,-0.4 -0.1,-0.7 -0.2,-1 -0.2,-0.3 -0.4,-0.5 -0.7,-0.7 -0.3,-0.2 -0.6,-0.4 -0.9,-0.5 -0.4,-0.1 -0.7,-0.3 -1.1,-0.4 -0.5,-0.2 -0.9,-0.3 -1.3,-0.5 -0.4,-0.2 -0.8,-0.4 -1.1,-0.7 -0.3,-0.3 -0.5,-0.6 -0.7,-1 -0.2,-0.4 -0.3,-0.8 -0.3,-1.4 0,-1.1 0.4,-1.9 1.1,-2.6 0.7,-0.7 1.8,-0.9 3.1,-0.9 0.8,0 1.4,0.1 2.1,0.2 0.6,0.2 1.1,0.3 1.4,0.5 l -0.6,1.4 c -0.3,-0.2 -0.6,-0.3 -1.1,-0.5 -0.5,-0.2 -1.1,-0.2 -1.7,-0.2 -0.3,0 -0.6,0 -0.9,0.1 -0.3,0.1 -0.5,0.2 -0.8,0.3 -0.2,0.1 -0.4,0.3 -0.5,0.5 -0.1,0.2 -0.2,0.5 -0.2,0.8 0,0.3 0.1,0.6 0.2,0.8 0.1,0.2 0.3,0.4 0.6,0.6 0.2,0.2 0.5,0.3 0.8,0.5 0.3,0.1 0.7,0.3 1.1,0.4 0.5,0.2 1,0.4 1.5,0.6 0.5,0.2 0.8,0.5 1.2,0.8 0.3,0.3 0.6,0.7 0.8,1.1 0.2,0.4 0.3,0.9 0.3,1.5 0,1.1 -0.4,1.9 -1.2,2.5 -0.8,0.6 -1.9,0.9 -3.4,0.9 -0.5,0 -0.9,0 -1.4,-0.1 -0.4,-0.1 -0.8,-0.1 -1.1,-0.2 -0.3,-0.1 -0.6,-0.2 -0.8,-0.3 -0.2,-0.1 -0.4,-0.2 -0.5,-0.3 l 0.5,-1.4 c 0.3,0.2 0.7,0.3 1.3,0.5 0.3,0.5 1,0.6 1.8,0.6 z"
   class="st9" />

		<path
   inkscape:connector-curvature="0"
   id="path776"
   d="m 749.8,942.4 c 0,-1.1 0.2,-2 0.5,-2.8 0.3,-0.8 0.7,-1.5 1.3,-2 0.5,-0.5 1.2,-1 1.9,-1.2 0.7,-0.2 1.5,-0.4 2.3,-0.4 0.8,0 1.6,0.1 2.3,0.4 0.7,0.3 1.3,0.7 1.9,1.2 0.5,0.5 1,1.2 1.3,2 0.3,0.8 0.5,1.8 0.5,2.8 0,1.1 -0.2,2 -0.5,2.8 -0.3,0.8 -0.7,1.5 -1.3,2 -0.5,0.5 -1.2,1 -1.9,1.2 -0.7,0.3 -1.5,0.4 -2.3,0.4 -0.8,0 -1.6,-0.1 -2.3,-0.4 -0.7,-0.3 -1.4,-0.7 -1.9,-1.2 -0.5,-0.5 -1,-1.2 -1.3,-2 -0.4,-0.8 -0.5,-1.7 -0.5,-2.8 z m 1.8,0 c 0,0.8 0.1,1.4 0.3,2.1 0.2,0.6 0.5,1.1 0.8,1.6 0.4,0.4 0.8,0.8 1.3,1 0.5,0.2 1.1,0.4 1.7,0.4 0.6,0 1.2,-0.1 1.7,-0.4 0.5,-0.2 0.9,-0.6 1.3,-1 0.4,-0.4 0.6,-1 0.8,-1.6 0.2,-0.6 0.3,-1.3 0.3,-2.1 0,-0.8 -0.1,-1.4 -0.3,-2.1 -0.2,-0.6 -0.5,-1.1 -0.8,-1.6 -0.3,-0.5 -0.8,-0.8 -1.3,-1 -0.5,-0.2 -1.1,-0.4 -1.7,-0.4 -0.6,0 -1.2,0.1 -1.7,0.4 -0.5,0.2 -0.9,0.6 -1.3,1 -0.4,0.4 -0.6,1 -0.8,1.6 -0.2,0.7 -0.3,1.4 -0.3,2.1 z"
   class="st9" />

		<path
   inkscape:connector-curvature="0"
   id="path778"
   d="m 769.3,948.9 c -0.8,0 -1.5,-0.1 -2.1,-0.4 -0.6,-0.3 -1.1,-0.6 -1.5,-1 -0.4,-0.4 -0.7,-1 -0.9,-1.6 -0.2,-0.6 -0.3,-1.2 -0.3,-1.9 v -7.8 h 1.7 v 7.6 c 0,1.2 0.3,2.2 0.8,2.7 0.6,0.6 1.3,0.8 2.2,0.8 0.4,0 0.8,-0.1 1.2,-0.2 0.4,-0.1 0.7,-0.4 0.9,-0.6 0.3,-0.3 0.5,-0.7 0.6,-1.1 0.1,-0.4 0.2,-1 0.2,-1.6 v -7.6 h 1.7 v 7.8 c 0,0.7 -0.1,1.3 -0.3,1.9 -0.2,0.6 -0.5,1.1 -0.9,1.6 -0.4,0.5 -0.9,0.8 -1.5,1 -0.3,0.3 -1,0.4 -1.8,0.4 z"
   class="st9" />

		<path
   inkscape:connector-curvature="0"
   id="path780"
   d="m 783.5,943.5 c 0.2,0.2 0.4,0.6 0.7,0.9 0.3,0.4 0.6,0.8 0.9,1.3 0.3,0.5 0.6,1 0.9,1.5 0.3,0.5 0.6,1 0.8,1.5 h -1.9 c -0.2,-0.5 -0.5,-0.9 -0.8,-1.4 -0.3,-0.5 -0.6,-0.9 -0.9,-1.3 -0.3,-0.4 -0.6,-0.8 -0.9,-1.2 -0.3,-0.4 -0.5,-0.7 -0.8,-1 -0.2,0 -0.3,0 -0.5,0 -0.2,0 -0.3,0 -0.5,0 h -1.6 v 4.9 h -1.7 v -12.3 c 0.5,-0.1 1,-0.2 1.6,-0.2 0.6,0 1.2,-0.1 1.7,-0.1 1.8,0 3.1,0.3 4,1 0.9,0.7 1.4,1.6 1.4,3 0,0.8 -0.2,1.5 -0.7,2.1 -0.2,0.5 -0.9,1 -1.7,1.3 z m -2.7,-5.9 c -0.7,0 -1.3,0 -1.7,0.1 v 4.7 h 1.2 c 0.6,0 1.1,0 1.6,-0.1 0.5,-0.1 0.9,-0.2 1.2,-0.3 0.3,-0.1 0.6,-0.4 0.8,-0.7 0.2,-0.3 0.3,-0.7 0.3,-1.2 0,-0.5 -0.1,-0.9 -0.3,-1.2 -0.2,-0.3 -0.4,-0.6 -0.7,-0.7 -0.3,-0.2 -0.7,-0.3 -1.1,-0.4 -0.4,-0.1 -0.8,-0.2 -1.3,-0.2 z"
   class="st9" />

		<path
   inkscape:connector-curvature="0"
   id="path782"
   d="m 794.2,948.9 c -0.9,0 -1.7,-0.1 -2.4,-0.4 -0.7,-0.3 -1.3,-0.7 -1.9,-1.3 -0.5,-0.6 -0.9,-1.2 -1.2,-2 -0.3,-0.8 -0.4,-1.7 -0.4,-2.8 0,-1.1 0.2,-2 0.5,-2.8 0.3,-0.8 0.7,-1.5 1.3,-2 0.5,-0.6 1.2,-1 1.9,-1.3 0.7,-0.3 1.5,-0.4 2.3,-0.4 0.5,0 1,0 1.4,0.1 0.4,0.1 0.8,0.2 1.1,0.3 0.3,0.1 0.6,0.2 0.7,0.3 0.2,0.1 0.3,0.2 0.4,0.2 l -0.5,1.4 c -0.1,-0.1 -0.3,-0.1 -0.5,-0.2 -0.2,-0.1 -0.4,-0.2 -0.7,-0.3 -0.3,-0.1 -0.5,-0.2 -0.8,-0.2 -0.3,-0.1 -0.6,-0.1 -0.9,-0.1 -0.7,0 -1.3,0.1 -1.8,0.3 -0.5,0.2 -1,0.6 -1.4,1 -0.4,0.4 -0.7,1 -0.9,1.6 -0.2,0.6 -0.3,1.3 -0.3,2.1 0,0.7 0.1,1.4 0.3,2 0.2,0.6 0.4,1.1 0.8,1.6 0.3,0.4 0.8,0.8 1.3,1 0.5,0.2 1.1,0.4 1.8,0.4 0.8,0 1.5,-0.1 2,-0.3 0.5,-0.2 0.9,-0.3 1.2,-0.5 l 0.4,1.4 c -0.1,0.1 -0.2,0.1 -0.4,0.2 -0.2,0.1 -0.5,0.2 -0.8,0.3 -0.3,0.1 -0.7,0.2 -1.1,0.2 -0.4,0.2 -0.9,0.2 -1.4,0.2 z"
   class="st9" />

		<path
   inkscape:connector-curvature="0"
   id="path784"
   d="m 800.4,948.7 v -12.5 h 7.6 v 1.5 h -5.9 v 3.7 h 5.2 v 1.5 h -5.2 v 4.3 h 6.3 v 1.5 z"
   class="st9" />

		<path
   inkscape:connector-curvature="0"
   id="path786"
   d="m 813.9,947.4 c 1.8,0 2.7,-0.6 2.7,-1.9 0,-0.4 -0.1,-0.7 -0.2,-1 -0.2,-0.3 -0.4,-0.5 -0.7,-0.7 -0.3,-0.2 -0.6,-0.4 -0.9,-0.5 -0.4,-0.1 -0.7,-0.3 -1.1,-0.4 -0.5,-0.2 -0.9,-0.3 -1.3,-0.5 -0.4,-0.2 -0.8,-0.4 -1.1,-0.7 -0.3,-0.3 -0.5,-0.6 -0.7,-1 -0.2,-0.4 -0.3,-0.8 -0.3,-1.4 0,-1.1 0.4,-1.9 1.1,-2.6 0.7,-0.7 1.8,-0.9 3.1,-0.9 0.8,0 1.4,0.1 2.1,0.2 0.6,0.2 1.1,0.3 1.4,0.5 l -0.6,1.4 c -0.3,-0.2 -0.6,-0.3 -1.1,-0.5 -0.5,-0.2 -1.1,-0.2 -1.7,-0.2 -0.3,0 -0.6,0 -0.9,0.1 -0.3,0.1 -0.5,0.2 -0.8,0.3 -0.2,0.1 -0.4,0.3 -0.5,0.5 -0.1,0.2 -0.2,0.5 -0.2,0.8 0,0.3 0.1,0.6 0.2,0.8 0.1,0.2 0.3,0.4 0.6,0.6 0.2,0.2 0.5,0.3 0.8,0.5 0.3,0.1 0.7,0.3 1.1,0.4 0.5,0.2 1,0.4 1.5,0.6 0.5,0.2 0.8,0.5 1.2,0.8 0.3,0.3 0.6,0.7 0.8,1.1 0.2,0.4 0.3,0.9 0.3,1.5 0,1.1 -0.4,1.9 -1.2,2.5 -0.8,0.6 -1.9,0.9 -3.4,0.9 -0.5,0 -0.9,0 -1.4,-0.1 -0.4,-0.1 -0.8,-0.1 -1.1,-0.2 -0.3,-0.1 -0.6,-0.2 -0.8,-0.3 -0.2,-0.1 -0.4,-0.2 -0.5,-0.3 l 0.5,-1.4 c 0.3,0.2 0.7,0.3 1.3,0.5 0.3,0.5 1,0.6 1.8,0.6 z"
   class="st9" />

	</g>

</g>
<g
   transform="translate(-184.8,-722.7)"
   id="g798">
	<path
   inkscape:connector-curvature="0"
   id="path792"
   d="m 780.5,776.3 c -0.6,-1.2 -1.1,-2.4 -1.6,-3.6 -0.5,-1.3 -1,-2.5 -1.5,-3.7 -0.5,-1.2 -0.9,-2.4 -1.3,-3.5 -0.4,-1.1 -0.8,-2.1 -1,-3 h 3.4 c 0.3,0.8 0.5,1.7 0.9,2.6 0.3,0.9 0.6,1.8 1,2.8 0.3,0.9 0.6,1.8 0.9,2.6 0.3,0.8 0.6,1.6 0.9,2.2 0.3,-0.6 0.5,-1.3 0.9,-2.2 0.4,-0.9 0.6,-1.7 1,-2.6 0.3,-0.9 0.7,-1.8 1,-2.8 0.3,-0.9 0.6,-1.8 0.9,-2.6 h 3.3 c -0.3,0.9 -0.7,1.9 -1.1,3 -0.4,1.1 -0.8,2.3 -1.3,3.5 -0.5,1.2 -1,2.5 -1.5,3.7 -0.5,1.3 -1.1,2.5 -1.6,3.6 z"
   class="st14" />

	<path
   inkscape:connector-curvature="0"
   id="path794"
   d="m 795,762.3 c 2.1,0 3.7,0.4 4.8,1.1 1.1,0.7 1.7,1.9 1.7,3.6 0,1.7 -0.6,2.9 -1.7,3.6 -1.1,0.7 -2.7,1.1 -4.8,1.1 h -1 v 4.6 h -3.1 v -13.7 c 0.7,-0.1 1.4,-0.2 2.2,-0.3 0.7,0 1.3,0 1.9,0 z m 0.2,2.7 c -0.2,0 -0.5,0 -0.7,0 -0.2,0 -0.4,0 -0.6,0 v 4 h 1 c 1.1,0 1.9,-0.1 2.4,-0.4 0.5,-0.3 0.8,-0.8 0.8,-1.6 0,-0.4 -0.1,-0.7 -0.2,-1 -0.1,-0.3 -0.3,-0.5 -0.6,-0.6 -0.3,-0.2 -0.6,-0.3 -1,-0.3 -0.2,-0.1 -0.6,-0.1 -1.1,-0.1 z"
   class="st14" />

	<path
   inkscape:connector-curvature="0"
   id="path796"
   d="m 810,776.6 c -2.3,0 -4,-0.6 -5.2,-1.9 -1.2,-1.3 -1.8,-3 -1.8,-5.3 0,-1.1 0.2,-2.2 0.5,-3.1 0.4,-0.9 0.9,-1.7 1.5,-2.3 0.6,-0.6 1.4,-1.1 2.2,-1.4 0.9,-0.3 1.8,-0.5 2.8,-0.5 0.6,0 1.1,0 1.6,0.1 0.5,0.1 0.9,0.2 1.3,0.3 0.4,0.1 0.7,0.2 0.9,0.3 0.2,0.1 0.4,0.2 0.5,0.3 l -0.9,2.5 c -0.4,-0.2 -0.9,-0.4 -1.5,-0.6 -0.6,-0.2 -1.2,-0.2 -1.9,-0.2 -0.5,0 -1,0.1 -1.4,0.2 -0.5,0.2 -0.9,0.4 -1.2,0.8 -0.4,0.4 -0.6,0.8 -0.9,1.4 -0.2,0.6 -0.3,1.2 -0.3,2 0,0.6 0.1,1.2 0.2,1.8 0.1,0.6 0.4,1 0.7,1.4 0.3,0.4 0.7,0.7 1.2,1 0.5,0.2 1.1,0.3 1.8,0.3 0.5,0 0.9,0 1.2,-0.1 0.4,-0.1 0.7,-0.1 1,-0.2 0.3,-0.1 0.5,-0.2 0.7,-0.2 0.2,-0.1 0.4,-0.2 0.6,-0.3 l 0.9,2.5 c -0.4,0.3 -1.1,0.5 -1.9,0.7 -0.8,0.2 -1.5,0.5 -2.6,0.5 z"
   class="st14" />

</g>
<g
   transform="translate(-184.8,-722.7)"
   id="g806">
	<g
   id="g804">
		<path
   inkscape:connector-curvature="0"
   id="path800"
   d="m 477.7,881.5 c -0.4,-0.9 -0.9,-1.9 -1.3,-2.9 -0.4,-1 -0.8,-2 -1.2,-3 -0.4,-1 -0.7,-1.9 -1.1,-2.8 -0.3,-0.9 -0.6,-1.7 -0.8,-2.4 h 2.8 c 0.2,0.6 0.4,1.3 0.7,2.1 0.3,0.8 0.5,1.5 0.8,2.2 0.3,0.7 0.5,1.4 0.8,2.1 0.2,0.7 0.5,1.3 0.7,1.7 0.2,-0.5 0.4,-1.1 0.7,-1.7 0.2,-0.7 0.5,-1.4 0.8,-2.1 0.3,-0.7 0.5,-1.5 0.8,-2.2 0.3,-0.7 0.5,-1.4 0.7,-2.1 h 2.7 c -0.2,0.7 -0.5,1.5 -0.9,2.4 -0.4,0.9 -0.7,1.8 -1.1,2.8 -0.4,1 -0.8,2 -1.2,3 -0.4,1 -0.9,2 -1.3,2.9 z"
   class="st9" />

		<path
   inkscape:connector-curvature="0"
   id="path802"
   d="m 488.7,870.4 c 0.2,0.4 0.4,0.8 0.7,1.3 0.3,0.5 0.5,1.1 0.8,1.7 0.3,0.6 0.5,1.2 0.8,1.8 0.3,0.6 0.5,1.2 0.8,1.8 0.2,-0.6 0.5,-1.1 0.8,-1.8 0.3,-0.6 0.5,-1.2 0.8,-1.8 0.3,-0.6 0.5,-1.2 0.8,-1.7 0.3,-0.5 0.5,-1 0.7,-1.3 h 2.3 c 0.1,0.7 0.2,1.6 0.3,2.5 0.1,0.9 0.2,1.9 0.2,2.8 0.1,1 0.1,2 0.2,3 0.1,1 0.1,1.9 0.2,2.8 h -2.4 c 0,-1.1 -0.1,-2.2 -0.1,-3.5 -0.1,-1.3 -0.1,-2.5 -0.2,-3.8 -0.2,0.4 -0.4,0.9 -0.6,1.5 -0.2,0.6 -0.5,1.1 -0.7,1.6 -0.2,0.5 -0.5,1.1 -0.7,1.6 -0.2,0.5 -0.4,0.9 -0.5,1.3 h -1.7 c -0.1,-0.4 -0.3,-0.8 -0.5,-1.3 -0.2,-0.5 -0.4,-1 -0.7,-1.6 -0.2,-0.5 -0.5,-1.1 -0.7,-1.6 -0.2,-0.5 -0.5,-1 -0.6,-1.5 -0.1,1.3 -0.2,2.6 -0.2,3.8 -0.1,1.3 -0.1,2.4 -0.1,3.5 H 486 c 0,-0.9 0.1,-1.8 0.2,-2.8 0.1,-1 0.1,-2 0.2,-3 0.1,-1 0.1,-1.9 0.2,-2.8 0.1,-0.9 0.2,-1.7 0.3,-2.5 z"
   class="st9" />

	</g>

</g>
<g
   transform="translate(-184.8,-722.7)"
   id="g824">
	<g
   id="g822">
		<path
   inkscape:connector-curvature="0"
   id="path808"
   d="m 575.9,879.6 c 0.4,0 0.6,0 0.9,-0.1 0.2,-0.1 0.4,-0.1 0.6,-0.2 0.2,-0.1 0.2,-0.2 0.3,-0.4 0.1,-0.1 0.1,-0.3 0.1,-0.5 0,-0.4 -0.2,-0.7 -0.5,-0.9 -0.3,-0.2 -0.9,-0.5 -1.8,-0.8 -0.4,-0.1 -0.7,-0.3 -1.1,-0.4 -0.4,-0.2 -0.7,-0.4 -1,-0.6 -0.3,-0.2 -0.5,-0.6 -0.7,-0.9 -0.2,-0.3 -0.3,-0.8 -0.3,-1.3 0,-0.5 0.1,-1 0.3,-1.4 0.2,-0.4 0.5,-0.8 0.8,-1 0.4,-0.3 0.8,-0.5 1.3,-0.7 0.5,-0.2 1.1,-0.2 1.7,-0.2 0.7,0 1.4,0.1 1.9,0.2 0.5,0.1 1,0.3 1.3,0.5 l -0.7,2 c -0.3,-0.2 -0.7,-0.3 -1,-0.4 -0.4,-0.1 -0.8,-0.2 -1.4,-0.2 -0.6,0 -1,0.1 -1.3,0.2 -0.3,0.2 -0.4,0.4 -0.4,0.8 0,0.2 0,0.4 0.1,0.5 0.1,0.1 0.2,0.3 0.4,0.4 0.2,0.1 0.4,0.2 0.6,0.3 0.2,0.1 0.5,0.2 0.8,0.3 0.6,0.2 1.1,0.4 1.5,0.6 0.4,0.2 0.8,0.5 1.1,0.7 0.3,0.3 0.5,0.6 0.6,1 0.1,0.4 0.2,0.8 0.2,1.4 0,1 -0.4,1.8 -1.1,2.4 -0.7,0.6 -1.8,0.9 -3.3,0.9 -0.5,0 -0.9,0 -1.3,-0.1 -0.4,-0.1 -0.7,-0.1 -1,-0.2 -0.3,-0.1 -0.6,-0.2 -0.8,-0.3 -0.2,-0.1 -0.4,-0.2 -0.6,-0.3 l 0.7,-2 c 0.3,0.2 0.7,0.3 1.2,0.5 0.6,0.1 1.2,0.2 1.9,0.2 z"
   class="st9" />

		<path
   inkscape:connector-curvature="0"
   id="path810"
   d="m 582,871 2.4,-0.4 v 2.5 h 2.9 v 2 h -2.9 v 3 c 0,0.5 0.1,0.9 0.3,1.2 0.2,0.3 0.5,0.4 1.1,0.4 0.3,0 0.5,0 0.8,-0.1 0.3,0 0.5,-0.1 0.7,-0.2 l 0.3,1.9 c -0.3,0.1 -0.6,0.2 -1,0.3 -0.4,0.1 -0.8,0.1 -1.3,0.1 -0.7,0 -1.2,-0.1 -1.6,-0.3 -0.4,-0.2 -0.8,-0.4 -1,-0.7 -0.3,-0.3 -0.4,-0.7 -0.5,-1.1 -0.1,-0.4 -0.2,-0.9 -0.2,-1.5 z"
   class="st9" />

		<path
   inkscape:connector-curvature="0"
   id="path812"
   d="m 596.7,877.3 c 0,0.7 -0.1,1.3 -0.3,1.8 -0.2,0.5 -0.5,1 -0.8,1.4 -0.4,0.4 -0.8,0.7 -1.3,0.9 -0.5,0.2 -1.1,0.3 -1.7,0.3 -0.6,0 -1.2,-0.1 -1.7,-0.3 -0.5,-0.2 -0.9,-0.5 -1.3,-0.9 -0.4,-0.4 -0.6,-0.9 -0.8,-1.4 -0.2,-0.5 -0.3,-1.2 -0.3,-1.8 0,-0.6 0.1,-1.3 0.3,-1.8 0.2,-0.5 0.5,-1 0.9,-1.4 0.4,-0.4 0.8,-0.7 1.3,-0.9 0.5,-0.2 1.1,-0.3 1.7,-0.3 0.6,0 1.2,0.1 1.7,0.3 0.5,0.2 0.9,0.5 1.3,0.9 0.4,0.4 0.6,0.8 0.8,1.4 0.1,0.5 0.2,1.1 0.2,1.8 z m -2.4,0 c 0,-0.7 -0.1,-1.3 -0.4,-1.7 -0.3,-0.4 -0.7,-0.6 -1.3,-0.6 -0.6,0 -1,0.2 -1.3,0.6 -0.3,0.4 -0.4,1 -0.4,1.7 0,0.7 0.1,1.3 0.4,1.8 0.3,0.5 0.7,0.6 1.3,0.6 0.6,0 1,-0.2 1.3,-0.6 0.2,-0.5 0.4,-1.1 0.4,-1.8 z"
   class="st9" />

		<path
   inkscape:connector-curvature="0"
   id="path814"
   d="m 603.6,875.2 c -0.2,-0.1 -0.5,-0.1 -0.8,-0.2 -0.3,-0.1 -0.6,-0.1 -0.9,-0.1 -0.1,0 -0.3,0 -0.5,0 -0.2,0 -0.4,0.1 -0.5,0.1 v 6.4 h -2.4 v -8 c 0.4,-0.1 0.9,-0.3 1.5,-0.4 0.6,-0.1 1.2,-0.2 1.9,-0.2 0.1,0 0.3,0 0.5,0 0.2,0 0.4,0 0.5,0.1 0.2,0 0.4,0.1 0.5,0.1 0.2,0 0.3,0.1 0.5,0.1 z"
   class="st9" />

		<path
   inkscape:connector-curvature="0"
   id="path816"
   d="m 608.2,872.9 c 0.7,0 1.3,0.1 1.8,0.2 0.5,0.2 0.8,0.4 1.1,0.7 0.3,0.3 0.5,0.7 0.6,1.1 0.1,0.4 0.2,0.9 0.2,1.4 v 5 c -0.3,0.1 -0.8,0.2 -1.4,0.3 -0.6,0.1 -1.3,0.2 -2.2,0.2 -0.5,0 -1,0 -1.5,-0.1 -0.4,-0.1 -0.8,-0.3 -1.1,-0.5 -0.3,-0.2 -0.6,-0.5 -0.7,-0.9 -0.2,-0.4 -0.3,-0.8 -0.3,-1.3 0,-0.5 0.1,-0.9 0.3,-1.2 0.2,-0.3 0.5,-0.6 0.8,-0.8 0.3,-0.2 0.7,-0.3 1.1,-0.4 0.4,-0.1 0.9,-0.1 1.3,-0.1 0.3,0 0.6,0 0.8,0 0.2,0 0.4,0.1 0.6,0.1 v -0.2 c 0,-0.4 -0.1,-0.7 -0.4,-1 -0.2,-0.2 -0.7,-0.4 -1.3,-0.4 -0.4,0 -0.8,0 -1.2,0.1 -0.4,0.1 -0.7,0.1 -1,0.2 l -0.3,-1.9 c 0.1,0 0.3,-0.1 0.5,-0.1 0.2,0 0.4,-0.1 0.7,-0.1 0.2,0 0.5,-0.1 0.8,-0.1 0.2,-0.2 0.5,-0.2 0.8,-0.2 z m 0.2,7 c 0.2,0 0.5,0 0.7,0 0.2,0 0.4,0 0.5,0 V 878 c -0.1,0 -0.2,0 -0.4,-0.1 -0.2,0 -0.4,0 -0.5,0 -0.2,0 -0.4,0 -0.6,0 -0.2,0 -0.4,0.1 -0.5,0.2 -0.1,0.1 -0.3,0.2 -0.4,0.3 -0.1,0.1 -0.1,0.3 -0.1,0.5 0,0.4 0.1,0.6 0.4,0.8 0.1,0.1 0.4,0.2 0.9,0.2 z"
   class="st9" />

		<path
   inkscape:connector-curvature="0"
   id="path818"
   d="m 621.3,880.5 c 0,1.4 -0.3,2.4 -1,3.1 -0.7,0.7 -1.8,1 -3.2,1 -0.5,0 -1,0 -1.5,-0.1 -0.5,-0.1 -1,-0.2 -1.4,-0.4 l 0.4,-2 c 0.4,0.1 0.8,0.3 1.2,0.4 0.4,0.1 0.9,0.1 1.4,0.1 0.7,0 1.2,-0.1 1.4,-0.4 0.3,-0.3 0.4,-0.7 0.4,-1.2 v -0.3 c -0.3,0.1 -0.5,0.2 -0.8,0.3 -0.3,0.1 -0.6,0.1 -0.9,0.1 -1.2,0 -2.1,-0.3 -2.7,-1 -0.6,-0.7 -0.9,-1.7 -0.9,-2.9 0,-0.6 0.1,-1.2 0.3,-1.7 0.2,-0.5 0.5,-0.9 0.8,-1.3 0.4,-0.4 0.8,-0.6 1.4,-0.8 0.5,-0.2 1.1,-0.3 1.8,-0.3 0.3,0 0.6,0 0.9,0 0.3,0 0.6,0.1 0.9,0.1 0.3,0 0.6,0.1 0.9,0.2 0.3,0.1 0.5,0.1 0.7,0.2 v 6.9 z M 616,877 c 0,1.3 0.5,2 1.6,2 0.2,0 0.5,0 0.7,-0.1 0.2,-0.1 0.4,-0.1 0.5,-0.2 v -3.8 c -0.1,0 -0.3,0 -0.4,-0.1 -0.2,0 -0.3,0 -0.6,0 -0.6,0 -1.1,0.2 -1.4,0.6 -0.2,0.5 -0.4,1 -0.4,1.6 z"
   class="st9" />

		<path
   inkscape:connector-curvature="0"
   id="path820"
   d="m 623.1,877.4 c 0,-0.7 0.1,-1.4 0.3,-2 0.2,-0.6 0.5,-1 0.9,-1.4 0.4,-0.4 0.8,-0.7 1.3,-0.8 0.5,-0.2 1,-0.3 1.5,-0.3 1.2,0 2.1,0.4 2.8,1.1 0.7,0.7 1,1.8 1,3.2 0,0.1 0,0.3 0,0.5 0,0.2 0,0.3 0,0.4 h -5.4 c 0.1,0.5 0.3,0.9 0.7,1.2 0.4,0.3 0.9,0.4 1.6,0.4 0.4,0 0.9,0 1.3,-0.1 0.4,-0.1 0.8,-0.2 1,-0.3 l 0.3,1.9 c -0.1,0.1 -0.3,0.1 -0.5,0.2 -0.2,0.1 -0.5,0.1 -0.7,0.2 -0.3,0 -0.5,0.1 -0.8,0.1 -0.3,0 -0.6,0 -0.9,0 -0.8,0 -1.4,-0.1 -2,-0.3 -0.6,-0.2 -1,-0.5 -1.4,-0.9 -0.4,-0.4 -0.6,-0.8 -0.8,-1.4 -0.1,-0.5 -0.2,-1.1 -0.2,-1.7 z m 5.6,-0.9 c 0,-0.2 0,-0.4 -0.1,-0.6 -0.1,-0.2 -0.1,-0.4 -0.3,-0.5 -0.1,-0.1 -0.3,-0.3 -0.5,-0.4 -0.2,-0.1 -0.4,-0.1 -0.7,-0.1 -0.3,0 -0.5,0 -0.7,0.1 -0.2,0.1 -0.4,0.2 -0.5,0.4 -0.1,0.2 -0.2,0.3 -0.3,0.5 -0.1,0.2 -0.1,0.4 -0.2,0.6 z"
   class="st9" />

	</g>

</g>
<g
   transform="translate(-184.8,-722.7)"
   id="g844">
	<g
   id="g842">
		<path
   inkscape:connector-curvature="0"
   id="path826"
   d="m 945.6,913.8 c 1.7,0 2.9,0.3 3.8,0.9 0.9,0.6 1.3,1.5 1.3,2.8 0,0.8 -0.2,1.4 -0.5,1.9 -0.3,0.5 -0.9,0.9 -1.5,1.1 0.2,0.3 0.5,0.6 0.7,1 0.2,0.4 0.5,0.7 0.7,1.1 0.2,0.4 0.5,0.8 0.7,1.2 0.2,0.4 0.4,0.8 0.6,1.2 h -2.8 c -0.2,-0.4 -0.4,-0.7 -0.6,-1.1 -0.2,-0.4 -0.4,-0.7 -0.6,-1.1 -0.2,-0.4 -0.4,-0.7 -0.7,-1 -0.3,-0.3 -0.4,-0.6 -0.6,-0.9 h -1.2 v 4 h -2.5 V 914 c 0.5,-0.1 1.1,-0.2 1.7,-0.2 0.5,0 1,0 1.5,0 z m 0.1,2.1 c -0.2,0 -0.3,0 -0.5,0 -0.1,0 -0.3,0 -0.4,0 v 3 h 0.7 c 0.9,0 1.6,-0.1 2,-0.4 0.4,-0.3 0.6,-0.6 0.6,-1.2 0,-0.5 -0.2,-0.9 -0.6,-1.2 -0.4,0 -1,-0.2 -1.8,-0.2 z"
   class="st9" />

		<path
   inkscape:connector-curvature="0"
   id="path828"
   d="m 952,920.9 c 0,-0.7 0.1,-1.4 0.3,-2 0.2,-0.6 0.5,-1 0.9,-1.4 0.4,-0.4 0.8,-0.7 1.3,-0.8 0.5,-0.2 1,-0.3 1.5,-0.3 1.2,0 2.1,0.4 2.8,1.1 0.7,0.7 1,1.8 1,3.2 0,0.1 0,0.3 0,0.5 0,0.2 0,0.3 0,0.4 h -5.4 c 0.1,0.5 0.3,0.9 0.7,1.2 0.4,0.3 0.9,0.4 1.6,0.4 0.4,0 0.9,0 1.3,-0.1 0.4,-0.1 0.8,-0.2 1,-0.3 l 0.3,1.9 c -0.1,0.1 -0.3,0.1 -0.5,0.2 -0.2,0.1 -0.5,0.1 -0.7,0.2 -0.3,0 -0.5,0.1 -0.8,0.1 -0.3,0 -0.6,0 -0.9,0 -0.8,0 -1.4,-0.1 -2,-0.3 -0.6,-0.2 -1,-0.5 -1.4,-0.9 -0.4,-0.4 -0.6,-0.8 -0.8,-1.4 -0.1,-0.5 -0.2,-1.1 -0.2,-1.7 z m 5.6,-0.9 c 0,-0.2 0,-0.4 -0.1,-0.6 -0.1,-0.2 -0.1,-0.4 -0.3,-0.5 -0.1,-0.1 -0.3,-0.3 -0.5,-0.4 -0.2,-0.1 -0.4,-0.1 -0.7,-0.1 -0.3,0 -0.5,0 -0.7,0.1 -0.2,0.1 -0.4,0.2 -0.5,0.4 -0.1,0.2 -0.2,0.3 -0.3,0.5 -0.1,0.2 -0.1,0.4 -0.2,0.6 z"
   class="st9" />

		<path
   inkscape:connector-curvature="0"
   id="path830"
   d="m 969,924 c 0,1.4 -0.3,2.4 -1,3.1 -0.7,0.7 -1.8,1 -3.2,1 -0.5,0 -1,0 -1.5,-0.1 -0.5,-0.1 -1,-0.2 -1.4,-0.4 l 0.4,-2 c 0.4,0.1 0.8,0.3 1.2,0.4 0.4,0.1 0.9,0.1 1.4,0.1 0.7,0 1.2,-0.1 1.4,-0.4 0.3,-0.3 0.4,-0.7 0.4,-1.2 v -0.3 c -0.3,0.1 -0.5,0.2 -0.8,0.3 -0.3,0.1 -0.6,0.1 -0.9,0.1 -1.2,0 -2.1,-0.3 -2.7,-1 -0.6,-0.7 -0.9,-1.7 -0.9,-2.9 0,-0.6 0.1,-1.2 0.3,-1.7 0.2,-0.5 0.5,-0.9 0.8,-1.3 0.4,-0.4 0.8,-0.6 1.4,-0.8 0.5,-0.2 1.1,-0.3 1.8,-0.3 0.3,0 0.6,0 0.9,0 0.3,0 0.6,0.1 0.9,0.1 0.3,0 0.6,0.1 0.9,0.2 0.3,0.1 0.5,0.1 0.7,0.2 v 6.9 z m -5.2,-3.4 c 0,1.3 0.5,2 1.6,2 0.2,0 0.5,0 0.7,-0.1 0.2,-0.1 0.4,-0.1 0.5,-0.2 v -3.8 c -0.1,0 -0.3,0 -0.4,-0.1 -0.2,0 -0.3,0 -0.6,0 -0.6,0 -1.1,0.2 -1.4,0.6 -0.2,0.4 -0.4,0.9 -0.4,1.6 z"
   class="st9" />

		<path
   inkscape:connector-curvature="0"
   id="path832"
   d="m 973.9,914.2 c 0,0.4 -0.1,0.8 -0.4,1 -0.3,0.2 -0.6,0.4 -1,0.4 -0.4,0 -0.7,-0.1 -1,-0.4 -0.3,-0.3 -0.4,-0.6 -0.4,-1 0,-0.4 0.1,-0.8 0.4,-1 0.3,-0.2 0.6,-0.4 1,-0.4 0.4,0 0.7,0.1 1,0.4 0.3,0.2 0.4,0.5 0.4,1 z m -0.2,10.8 h -2.4 v -8.4 h 2.4 z"
   class="st9" />

		<path
   inkscape:connector-curvature="0"
   id="path834"
   d="m 978.3,923.3 c 0.4,0 0.7,0 0.9,-0.1 0.2,-0.1 0.3,-0.2 0.3,-0.5 0,-0.2 -0.1,-0.4 -0.4,-0.5 -0.2,-0.1 -0.6,-0.3 -1.1,-0.5 -0.4,-0.1 -0.7,-0.3 -1,-0.4 -0.3,-0.1 -0.6,-0.3 -0.8,-0.5 -0.2,-0.2 -0.4,-0.5 -0.5,-0.7 -0.1,-0.3 -0.2,-0.6 -0.2,-1 0,-0.8 0.3,-1.4 0.9,-1.9 0.6,-0.5 1.4,-0.7 2.4,-0.7 0.5,0 1,0 1.5,0.1 0.5,0.1 0.8,0.2 1.1,0.3 l -0.4,1.9 c -0.3,-0.1 -0.6,-0.2 -0.9,-0.3 -0.3,-0.1 -0.7,-0.1 -1.1,-0.1 -0.7,0 -1.1,0.2 -1.1,0.6 0,0.1 0,0.2 0,0.3 0,0.1 0.1,0.1 0.2,0.2 0.1,0.1 0.2,0.1 0.4,0.2 0.2,0.1 0.4,0.2 0.6,0.3 0.5,0.2 1,0.4 1.3,0.6 0.3,0.2 0.6,0.4 0.8,0.6 0.2,0.2 0.3,0.5 0.4,0.7 0.1,0.3 0.1,0.6 0.1,0.9 0,0.8 -0.3,1.5 -0.9,1.9 -0.6,0.4 -1.5,0.6 -2.6,0.6 -0.7,0 -1.4,-0.1 -1.9,-0.2 -0.5,-0.1 -0.8,-0.2 -1,-0.3 l 0.4,-1.9 c 0.4,0.2 0.8,0.3 1.2,0.4 0.6,0 1,0 1.4,0 z"
   class="st9" />

		<path
   inkscape:connector-curvature="0"
   id="path836"
   d="m 983.6,914.5 2.4,-0.4 v 2.5 h 2.9 v 2 H 986 v 3 c 0,0.5 0.1,0.9 0.3,1.2 0.2,0.3 0.5,0.4 1.1,0.4 0.3,0 0.5,0 0.8,-0.1 0.3,0 0.5,-0.1 0.7,-0.2 l 0.3,1.9 c -0.3,0.1 -0.6,0.2 -1,0.3 -0.4,0.1 -0.8,0.1 -1.3,0.1 -0.7,0 -1.2,-0.1 -1.6,-0.3 -0.4,-0.2 -0.8,-0.4 -1,-0.7 -0.3,-0.3 -0.4,-0.7 -0.5,-1.1 -0.1,-0.4 -0.2,-0.9 -0.2,-1.5 z"
   class="st9" />

		<path
   inkscape:connector-curvature="0"
   id="path838"
   d="m 995.8,918.7 c -0.2,-0.1 -0.5,-0.1 -0.8,-0.2 -0.3,-0.1 -0.6,-0.1 -0.9,-0.1 -0.1,0 -0.3,0 -0.5,0 -0.2,0 -0.4,0.1 -0.5,0.1 v 6.4 h -2.4 v -8 c 0.4,-0.1 0.9,-0.3 1.5,-0.4 0.6,-0.1 1.2,-0.2 1.9,-0.2 0.1,0 0.3,0 0.5,0 0.2,0 0.4,0 0.5,0.1 0.2,0 0.4,0.1 0.5,0.1 0.2,0 0.3,0.1 0.5,0.1 z"
   class="st9" />

		<path
   inkscape:connector-curvature="0"
   id="path840"
   d="m 1005.5,916.6 c -0.5,1.6 -1,3.1 -1.5,4.6 -0.5,1.4 -1.1,2.8 -1.7,4.1 -0.2,0.5 -0.4,0.9 -0.7,1.2 -0.2,0.3 -0.5,0.6 -0.7,0.8 -0.3,0.2 -0.6,0.4 -0.9,0.5 -0.3,0.1 -0.7,0.2 -1.2,0.2 -0.4,0 -0.7,0 -1,-0.1 -0.3,-0.1 -0.6,-0.1 -0.8,-0.2 l 0.4,-1.9 c 0.2,0.1 0.5,0.1 0.7,0.2 0.2,0.1 0.4,0 0.6,0 0.4,0 0.8,-0.1 1,-0.3 0.2,-0.2 0.4,-0.5 0.6,-1 -0.5,-1.1 -1.1,-2.3 -1.6,-3.6 -0.5,-1.3 -1.1,-2.8 -1.5,-4.5 h 2.5 c 0.1,0.4 0.2,0.9 0.4,1.4 0.2,0.5 0.3,1 0.5,1.5 0.2,0.5 0.3,1 0.5,1.4 0.2,0.4 0.3,0.9 0.5,1.3 0.1,-0.4 0.3,-0.8 0.4,-1.3 0.1,-0.5 0.3,-1 0.4,-1.4 0.1,-0.4 0.3,-1 0.4,-1.5 0.1,-0.5 0.3,-0.9 0.4,-1.4 z"
   class="st9" />

	</g>

</g>
<g
   transform="translate(-184.8,-722.7)"
   id="g874">
	<g
   id="g872">
		<path
   inkscape:connector-curvature="0"
   id="path846"
   d="M 861.5,913.9 H 864 V 925 h -2.5 z"
   class="st9" />

		<path
   inkscape:connector-curvature="0"
   id="path848"
   d="m 873.9,924.8 c -0.2,0.1 -0.5,0.1 -0.7,0.2 -0.2,0.1 -0.6,0.1 -0.9,0.2 -0.3,0 -0.6,0.1 -0.9,0.1 -0.3,0 -0.6,0 -0.9,0 -0.7,0 -1.3,-0.1 -1.9,-0.3 -0.6,-0.2 -1,-0.5 -1.4,-0.9 -0.4,-0.4 -0.7,-0.8 -0.9,-1.4 -0.2,-0.5 -0.3,-1.1 -0.3,-1.8 0,-0.7 0.1,-1.3 0.3,-1.8 0.2,-0.5 0.4,-1 0.7,-1.4 0.3,-0.4 0.7,-0.7 1.2,-0.9 0.5,-0.2 1,-0.3 1.6,-0.3 0.3,0 0.6,0 0.9,0.1 0.3,0.1 0.5,0.2 0.8,0.3 V 913 l 2.4,-0.4 z m -5.4,-4 c 0,0.7 0.2,1.3 0.5,1.8 0.3,0.4 0.8,0.7 1.5,0.7 0.2,0 0.4,0 0.6,0 0.2,0 0.3,0 0.4,-0.1 v -4.3 c -0.1,-0.1 -0.3,-0.2 -0.6,-0.2 -0.2,-0.1 -0.5,-0.1 -0.7,-0.1 -1.2,-0.1 -1.7,0.6 -1.7,2.2 z"
   class="st9" />

		<path
   inkscape:connector-curvature="0"
   id="path850"
   d="m 875.7,920.9 c 0,-0.7 0.1,-1.4 0.3,-2 0.2,-0.6 0.5,-1 0.9,-1.4 0.4,-0.4 0.8,-0.7 1.3,-0.8 0.5,-0.2 1,-0.3 1.5,-0.3 1.2,0 2.1,0.4 2.8,1.1 0.7,0.7 1,1.8 1,3.2 0,0.1 0,0.3 0,0.5 0,0.2 0,0.3 0,0.4 h -5.4 c 0.1,0.5 0.3,0.9 0.7,1.2 0.4,0.3 0.9,0.4 1.6,0.4 0.4,0 0.9,0 1.3,-0.1 0.4,-0.1 0.8,-0.2 1,-0.3 l 0.3,1.9 c -0.1,0.1 -0.3,0.1 -0.5,0.2 -0.2,0.1 -0.5,0.1 -0.7,0.2 -0.3,0 -0.5,0.1 -0.8,0.1 -0.3,0 -0.6,0 -0.9,0 -0.8,0 -1.4,-0.1 -2,-0.3 -0.6,-0.2 -1,-0.5 -1.4,-0.9 -0.4,-0.4 -0.6,-0.8 -0.8,-1.4 -0.1,-0.5 -0.2,-1.1 -0.2,-1.7 z m 5.6,-0.9 c 0,-0.2 0,-0.4 -0.1,-0.6 -0.1,-0.2 -0.1,-0.4 -0.3,-0.5 -0.1,-0.1 -0.3,-0.3 -0.5,-0.4 -0.2,-0.1 -0.4,-0.1 -0.7,-0.1 -0.3,0 -0.5,0 -0.7,0.1 -0.2,0.1 -0.4,0.2 -0.5,0.4 -0.1,0.2 -0.2,0.3 -0.3,0.5 -0.1,0.2 -0.1,0.4 -0.2,0.6 z"
   class="st9" />

		<path
   inkscape:connector-curvature="0"
   id="path852"
   d="m 885.4,916.9 c 0.4,-0.1 0.9,-0.2 1.6,-0.3 0.6,-0.1 1.3,-0.2 2,-0.2 0.7,0 1.3,0.1 1.8,0.3 0.5,0.2 0.9,0.5 1.1,0.8 0.3,0.3 0.5,0.7 0.6,1.2 0.1,0.5 0.2,1 0.2,1.6 v 4.8 h -2.4 v -4.5 c 0,-0.8 -0.1,-1.3 -0.3,-1.6 -0.2,-0.3 -0.6,-0.5 -1.1,-0.5 -0.2,0 -0.4,0 -0.5,0 -0.2,0 -0.4,0 -0.5,0.1 v 6.5 h -2.4 v -8.2 z"
   class="st9" />

		<path
   inkscape:connector-curvature="0"
   id="path854"
   d="m 894.8,914.5 2.4,-0.4 v 2.5 h 2.9 v 2 h -2.9 v 3 c 0,0.5 0.1,0.9 0.3,1.2 0.2,0.3 0.5,0.4 1.1,0.4 0.3,0 0.5,0 0.8,-0.1 0.3,0 0.5,-0.1 0.7,-0.2 l 0.3,1.9 c -0.3,0.1 -0.6,0.2 -1,0.3 -0.4,0.1 -0.8,0.1 -1.3,0.1 -0.7,0 -1.2,-0.1 -1.6,-0.3 -0.4,-0.2 -0.8,-0.4 -1,-0.7 -0.3,-0.3 -0.4,-0.7 -0.5,-1.1 -0.1,-0.4 -0.2,-0.9 -0.2,-1.5 z"
   class="st9" />

		<path
   inkscape:connector-curvature="0"
   id="path856"
   d="m 904.6,914.2 c 0,0.4 -0.1,0.8 -0.4,1 -0.3,0.2 -0.6,0.4 -1,0.4 -0.4,0 -0.7,-0.1 -1,-0.4 -0.3,-0.3 -0.4,-0.6 -0.4,-1 0,-0.4 0.1,-0.8 0.4,-1 0.3,-0.2 0.6,-0.4 1,-0.4 0.4,0 0.7,0.1 1,0.4 0.2,0.2 0.4,0.5 0.4,1 z M 904.4,925 H 902 v -8.4 h 2.4 z"
   class="st9" />

		<path
   inkscape:connector-curvature="0"
   id="path858"
   d="m 906.5,914.5 2.4,-0.4 v 2.5 h 2.9 v 2 h -2.9 v 3 c 0,0.5 0.1,0.9 0.3,1.2 0.2,0.3 0.5,0.4 1.1,0.4 0.3,0 0.5,0 0.8,-0.1 0.3,0 0.5,-0.1 0.7,-0.2 l 0.3,1.9 c -0.3,0.1 -0.6,0.2 -1,0.3 -0.4,0.1 -0.8,0.1 -1.3,0.1 -0.7,0 -1.2,-0.1 -1.6,-0.3 -0.4,-0.2 -0.8,-0.4 -1,-0.7 -0.3,-0.3 -0.4,-0.7 -0.5,-1.1 -0.1,-0.4 -0.2,-0.9 -0.2,-1.5 z"
   class="st9" />

		<path
   inkscape:connector-curvature="0"
   id="path860"
   d="m 921.3,916.6 c -0.5,1.6 -1,3.1 -1.5,4.6 -0.5,1.4 -1.1,2.8 -1.7,4.1 -0.2,0.5 -0.4,0.9 -0.7,1.2 -0.2,0.3 -0.5,0.6 -0.7,0.8 -0.3,0.2 -0.6,0.4 -0.9,0.5 -0.3,0.1 -0.7,0.2 -1.2,0.2 -0.4,0 -0.7,0 -1,-0.1 -0.3,-0.1 -0.6,-0.1 -0.8,-0.2 l 0.4,-1.9 c 0.2,0.1 0.5,0.1 0.7,0.2 0.2,0.1 0.4,0 0.6,0 0.4,0 0.8,-0.1 1,-0.3 0.2,-0.2 0.4,-0.5 0.6,-1 -0.5,-1.1 -1.1,-2.3 -1.6,-3.6 -0.5,-1.3 -1.1,-2.8 -1.5,-4.5 h 2.5 c 0.1,0.4 0.2,0.9 0.4,1.4 0.2,0.5 0.3,1 0.5,1.5 0.2,0.5 0.3,1 0.5,1.4 0.2,0.4 0.3,0.9 0.5,1.3 0.1,-0.4 0.3,-0.8 0.4,-1.3 0.1,-0.5 0.3,-1 0.4,-1.4 0.1,-0.4 0.3,-1 0.4,-1.5 0.1,-0.5 0.3,-0.9 0.4,-1.4 z"
   class="st9" />

		<path
   inkscape:connector-curvature="0"
   id="path862"
   d="m 873.2,939.5 c 0,1.3 0.2,2.5 0.6,3.6 0.4,1.1 0.9,2.2 1.6,3.1 l -1.7,1.1 c -0.9,-1.1 -1.6,-2.2 -2.1,-3.6 -0.5,-1.3 -0.7,-2.7 -0.7,-4.2 0,-1.5 0.2,-2.9 0.7,-4.2 0.5,-1.3 1.2,-2.5 2.1,-3.6 l 1.7,1.1 c -0.6,0.9 -1.2,1.9 -1.6,3.1 -0.4,1.1 -0.6,2.3 -0.6,3.6 z"
   class="st9" />

		<path
   inkscape:connector-curvature="0"
   id="path864"
   d="m 876.7,933.1 h 2.5 v 11.1 h -2.5 z"
   class="st9" />

		<path
   inkscape:connector-curvature="0"
   id="path866"
   d="m 889.2,944.2 c -0.1,-0.4 -0.3,-0.8 -0.4,-1.2 -0.1,-0.4 -0.3,-0.8 -0.4,-1.2 H 884 c -0.1,0.4 -0.3,0.8 -0.4,1.2 -0.1,0.4 -0.3,0.8 -0.4,1.2 h -2.6 c 0.4,-1.2 0.8,-2.3 1.2,-3.3 0.4,-1 0.7,-2 1.1,-2.9 0.4,-0.9 0.7,-1.7 1.1,-2.6 0.4,-0.9 0.7,-1.6 1.1,-2.4 h 2.4 c 0.4,0.8 0.7,1.6 1.1,2.4 0.4,0.8 0.7,1.7 1.1,2.6 0.4,0.9 0.7,1.9 1.1,2.9 0.4,1 0.8,2.1 1.2,3.3 z m -3,-8.5 c -0.1,0.2 -0.1,0.4 -0.2,0.7 -0.1,0.3 -0.2,0.6 -0.4,1 -0.2,0.4 -0.3,0.8 -0.5,1.2 -0.2,0.4 -0.3,0.9 -0.5,1.4 h 3.2 c -0.2,-0.5 -0.3,-0.9 -0.5,-1.4 -0.2,-0.4 -0.3,-0.8 -0.5,-1.2 -0.1,-0.4 -0.3,-0.7 -0.4,-1 -0.1,-0.4 -0.2,-0.6 -0.2,-0.7 z"
   class="st9" />

		<path
   inkscape:connector-curvature="0"
   id="path868"
   d="m 896.2,933.1 c 0.2,0.4 0.4,0.8 0.7,1.3 0.3,0.5 0.5,1.1 0.8,1.7 0.3,0.6 0.5,1.2 0.8,1.8 0.3,0.6 0.5,1.2 0.8,1.8 0.2,-0.6 0.5,-1.1 0.8,-1.8 0.3,-0.6 0.5,-1.2 0.8,-1.8 0.3,-0.6 0.5,-1.2 0.8,-1.7 0.3,-0.5 0.5,-1 0.7,-1.3 h 2.3 c 0.1,0.7 0.2,1.6 0.3,2.5 0.1,0.9 0.2,1.9 0.2,2.8 0.1,1 0.1,2 0.2,3 0.1,1 0.1,1.9 0.2,2.8 H 903 c 0,-1.1 -0.1,-2.2 -0.1,-3.5 -0.1,-1.3 -0.1,-2.5 -0.2,-3.8 -0.2,0.4 -0.4,0.9 -0.6,1.5 -0.2,0.6 -0.5,1.1 -0.7,1.6 -0.2,0.5 -0.5,1.1 -0.7,1.6 -0.2,0.5 -0.4,0.9 -0.5,1.3 h -1.7 c -0.1,-0.4 -0.3,-0.8 -0.5,-1.3 -0.2,-0.5 -0.4,-1 -0.7,-1.6 -0.2,-0.5 -0.5,-1.1 -0.7,-1.6 -0.2,-0.5 -0.5,-1 -0.6,-1.5 -0.1,1.3 -0.2,2.6 -0.2,3.8 -0.1,1.3 -0.1,2.4 -0.1,3.5 H 893 c 0,-0.9 0.1,-1.8 0.2,-2.8 0.1,-1 0.1,-2 0.2,-3 0.1,-1 0.1,-1.9 0.2,-2.8 0.1,-0.9 0.2,-1.7 0.3,-2.5 z"
   class="st9" />

		<path
   inkscape:connector-curvature="0"
   id="path870"
   d="m 908.6,939.5 c 0,-1.3 -0.2,-2.5 -0.6,-3.6 -0.4,-1.1 -0.9,-2.2 -1.6,-3.1 l 1.7,-1.1 c 0.9,1.1 1.6,2.2 2.1,3.6 0.5,1.3 0.7,2.7 0.7,4.2 0,1.5 -0.2,2.9 -0.7,4.2 -0.5,1.3 -1.2,2.5 -2.1,3.6 l -1.7,-1.1 c 0.6,-0.9 1.2,-1.9 1.6,-3.1 0.4,-1.2 0.6,-2.4 0.6,-3.6 z"
   class="st9" />

	</g>

</g>
<g
   transform="translate(-184.8,-722.7)"
   id="g904">
	<g
   id="g902">
		<path
   inkscape:connector-curvature="0"
   id="path876"
   d="m 881.9,819.4 c -0.2,-0.4 -0.5,-0.8 -0.8,-1.2 -0.3,-0.4 -0.6,-0.8 -1,-1.3 -0.4,-0.4 -0.7,-0.8 -1.1,-1.2 -0.4,-0.4 -0.8,-0.7 -1.2,-1 v 4.7 h -2.5 v -11.1 h 2.5 v 4.2 c 0.6,-0.7 1.3,-1.4 2,-2.1 0.7,-0.7 1.3,-1.4 1.8,-2.1 h 3 c -0.8,0.9 -1.5,1.8 -2.3,2.6 -0.8,0.8 -1.6,1.7 -2.4,2.5 0.9,0.7 1.7,1.6 2.6,2.6 0.8,1 1.6,2.1 2.4,3.4 z"
   class="st9" />

		<path
   inkscape:connector-curvature="0"
   id="path878"
   d="m 885.1,815.3 c 0,-0.7 0.1,-1.4 0.3,-2 0.2,-0.6 0.5,-1 0.9,-1.4 0.4,-0.4 0.8,-0.7 1.3,-0.8 0.5,-0.2 1,-0.3 1.5,-0.3 1.2,0 2.1,0.4 2.8,1.1 0.7,0.7 1,1.8 1,3.2 0,0.1 0,0.3 0,0.5 0,0.2 0,0.3 0,0.4 h -5.4 c 0.1,0.5 0.3,0.9 0.7,1.2 0.4,0.3 0.9,0.4 1.6,0.4 0.4,0 0.9,0 1.3,-0.1 0.4,-0.1 0.8,-0.2 1,-0.3 l 0.3,1.9 c -0.1,0.1 -0.3,0.1 -0.5,0.2 -0.2,0.1 -0.5,0.1 -0.7,0.2 -0.3,0 -0.5,0.1 -0.8,0.1 -0.3,0 -0.6,0 -0.9,0 -0.8,0 -1.4,-0.1 -2,-0.3 -0.6,-0.2 -1,-0.5 -1.4,-0.9 -0.4,-0.4 -0.6,-0.9 -0.8,-1.4 -0.1,-0.5 -0.2,-1.1 -0.2,-1.7 z m 5.6,-1 c 0,-0.2 0,-0.4 -0.1,-0.6 -0.1,-0.2 -0.1,-0.4 -0.3,-0.5 -0.1,-0.1 -0.3,-0.3 -0.5,-0.4 -0.2,-0.1 -0.4,-0.1 -0.7,-0.1 -0.3,0 -0.5,0 -0.7,0.1 -0.2,0.1 -0.4,0.2 -0.5,0.4 -0.1,0.2 -0.2,0.3 -0.3,0.5 -0.1,0.2 -0.1,0.4 -0.2,0.6 z"
   class="st9" />

		<path
   inkscape:connector-curvature="0"
   id="path880"
   d="m 902.3,811 c -0.5,1.6 -1,3.1 -1.5,4.6 -0.5,1.4 -1.1,2.8 -1.7,4.1 -0.2,0.5 -0.4,0.9 -0.7,1.2 -0.2,0.3 -0.5,0.6 -0.7,0.8 -0.3,0.2 -0.6,0.4 -0.9,0.5 -0.3,0.1 -0.7,0.2 -1.2,0.2 -0.4,0 -0.7,0 -1,-0.1 -0.3,-0.1 -0.6,-0.1 -0.8,-0.2 l 0.4,-1.9 c 0.2,0.1 0.5,0.1 0.7,0.2 0.2,0.1 0.4,0 0.6,0 0.4,0 0.8,-0.1 1,-0.3 0.2,-0.2 0.4,-0.5 0.6,-1 -0.5,-1.1 -1.1,-2.3 -1.6,-3.6 -0.5,-1.3 -1.1,-2.8 -1.5,-4.5 h 2.5 c 0.1,0.4 0.2,0.9 0.4,1.4 0.2,0.5 0.3,1 0.5,1.5 0.2,0.5 0.3,1 0.5,1.4 0.2,0.5 0.3,0.9 0.5,1.3 0.1,-0.4 0.3,-0.8 0.4,-1.3 0.1,-0.5 0.3,-1 0.4,-1.4 0.1,-0.5 0.3,-1 0.4,-1.5 0.1,-0.5 0.3,-0.9 0.4,-1.4 z"
   class="st9" />

		<path
   inkscape:connector-curvature="0"
   id="path882"
   d="m 906,817.7 c 0.4,0 0.7,0 0.9,-0.1 0.2,-0.1 0.3,-0.3 0.3,-0.5 0,-0.2 -0.1,-0.4 -0.4,-0.5 -0.2,-0.1 -0.6,-0.3 -1.1,-0.5 -0.4,-0.1 -0.7,-0.3 -1,-0.4 -0.3,-0.1 -0.6,-0.3 -0.8,-0.5 -0.2,-0.2 -0.4,-0.5 -0.5,-0.7 -0.1,-0.3 -0.2,-0.6 -0.2,-1 0,-0.8 0.3,-1.4 0.9,-1.9 0.6,-0.5 1.4,-0.7 2.4,-0.7 0.5,0 1,0 1.5,0.1 0.5,0.1 0.8,0.2 1.1,0.3 l -0.4,1.9 c -0.3,-0.1 -0.6,-0.2 -0.9,-0.3 -0.3,-0.1 -0.7,-0.1 -1.1,-0.1 -0.7,0 -1.1,0.2 -1.1,0.6 0,0.1 0,0.2 0,0.3 0,0.1 0.1,0.1 0.2,0.2 0.1,0.1 0.2,0.1 0.4,0.2 0.2,0.1 0.4,0.2 0.6,0.3 0.5,0.2 1,0.4 1.3,0.6 0.3,0.2 0.6,0.4 0.8,0.6 0.2,0.2 0.3,0.5 0.4,0.7 0.1,0.3 0.1,0.6 0.1,0.9 0,0.8 -0.3,1.5 -0.9,1.9 -0.6,0.4 -1.5,0.6 -2.6,0.6 -0.7,0 -1.4,-0.1 -1.9,-0.2 -0.5,-0.1 -0.8,-0.2 -1,-0.3 l 0.4,-1.9 c 0.4,0.2 0.8,0.3 1.2,0.4 0.6,-0.1 1,0 1.4,0 z"
   class="st9" />

		<path
   inkscape:connector-curvature="0"
   id="path884"
   d="m 914.6,816.5 c 0,-0.4 0.1,-0.8 0.2,-1.1 0.1,-0.3 0.3,-0.6 0.5,-0.9 0.2,-0.3 0.4,-0.5 0.7,-0.7 0.3,-0.2 0.5,-0.4 0.8,-0.6 -0.3,-0.3 -0.5,-0.6 -0.7,-1 -0.2,-0.4 -0.3,-0.7 -0.3,-1.2 0,-0.9 0.3,-1.7 0.8,-2.2 0.5,-0.5 1.3,-0.8 2.3,-0.8 0.5,0 0.9,0.1 1.3,0.2 0.4,0.1 0.7,0.3 0.9,0.5 0.2,0.2 0.4,0.5 0.6,0.8 0.1,0.3 0.2,0.6 0.2,1 0,0.7 -0.2,1.2 -0.6,1.7 -0.4,0.5 -0.8,0.9 -1.4,1.3 l 1.8,1.8 c 0.1,-0.2 0.2,-0.5 0.3,-0.8 0.1,-0.3 0.1,-0.6 0.2,-0.9 l 2,0.3 c 0,0.2 -0.1,0.4 -0.1,0.7 -0.1,0.2 -0.1,0.5 -0.2,0.7 -0.1,0.2 -0.2,0.5 -0.3,0.7 -0.1,0.2 -0.2,0.5 -0.3,0.7 0.3,0.4 0.7,0.8 1,1.3 0.3,0.5 0.6,0.9 0.8,1.4 h -2.4 c -0.1,-0.1 -0.2,-0.3 -0.4,-0.5 -0.2,-0.2 -0.3,-0.4 -0.4,-0.5 -0.4,0.3 -0.9,0.6 -1.5,0.9 -0.6,0.2 -1.2,0.3 -1.9,0.3 -0.7,0 -1.4,-0.1 -1.9,-0.3 -0.5,-0.2 -0.9,-0.4 -1.2,-0.7 -0.3,-0.3 -0.5,-0.6 -0.6,-1 -0.1,-0.4 -0.2,-0.8 -0.2,-1.1 z m 2.2,-0.3 c 0,0.2 0,0.3 0.1,0.5 0.1,0.2 0.2,0.3 0.3,0.5 0.1,0.1 0.3,0.3 0.6,0.4 0.2,0.1 0.5,0.1 0.8,0.1 0.4,0 0.8,-0.1 1.2,-0.2 0.3,-0.1 0.6,-0.3 0.8,-0.5 l -2.6,-2.6 c -0.1,0.1 -0.3,0.2 -0.4,0.3 -0.1,0.1 -0.3,0.2 -0.4,0.4 -0.1,0.1 -0.2,0.3 -0.3,0.5 0,0.2 -0.1,0.4 -0.1,0.6 z m 3.1,-5.5 c 0,-0.2 -0.1,-0.5 -0.2,-0.7 -0.2,-0.2 -0.4,-0.3 -0.8,-0.3 -0.3,0 -0.6,0.1 -0.8,0.3 -0.2,0.2 -0.3,0.5 -0.3,0.8 0,0.3 0.1,0.5 0.2,0.8 0.2,0.3 0.4,0.5 0.6,0.7 0.3,-0.2 0.6,-0.4 0.9,-0.7 0.3,-0.1 0.4,-0.5 0.4,-0.9 z"
   class="st9" />

		<path
   inkscape:connector-curvature="0"
   id="path886"
   d="m 933.5,817.5 c 0.4,0 0.6,0 0.9,-0.1 0.3,-0.1 0.4,-0.1 0.6,-0.2 0.1,-0.1 0.2,-0.2 0.3,-0.4 0.1,-0.1 0.1,-0.3 0.1,-0.5 0,-0.4 -0.2,-0.7 -0.5,-0.9 -0.3,-0.2 -0.9,-0.5 -1.8,-0.8 -0.4,-0.1 -0.7,-0.3 -1.1,-0.4 -0.4,-0.2 -0.7,-0.4 -1,-0.6 -0.3,-0.3 -0.5,-0.6 -0.7,-0.9 -0.2,-0.3 -0.3,-0.8 -0.3,-1.3 0,-0.5 0.1,-1 0.3,-1.4 0.2,-0.4 0.5,-0.8 0.8,-1 0.4,-0.3 0.8,-0.5 1.3,-0.7 0.5,-0.2 1.1,-0.2 1.7,-0.2 0.7,0 1.4,0.1 1.9,0.2 0.5,0.1 1,0.3 1.3,0.5 l -0.7,2 c -0.3,-0.2 -0.7,-0.3 -1,-0.4 -0.4,-0.1 -0.8,-0.2 -1.4,-0.2 -0.6,0 -1,0.1 -1.3,0.2 -0.3,0.2 -0.4,0.4 -0.4,0.8 0,0.2 0,0.4 0.1,0.5 0.1,0.1 0.2,0.3 0.4,0.4 0.2,0.1 0.4,0.2 0.6,0.3 0.2,0.1 0.5,0.2 0.8,0.3 0.6,0.2 1.1,0.4 1.5,0.6 0.4,0.2 0.8,0.5 1.1,0.7 0.3,0.3 0.5,0.6 0.6,1 0.1,0.4 0.2,0.8 0.2,1.4 0,1 -0.4,1.8 -1.1,2.4 -0.7,0.6 -1.8,0.9 -3.3,0.9 -0.5,0 -0.9,0 -1.3,-0.1 -0.4,-0.1 -0.7,-0.1 -1,-0.2 -0.3,-0.1 -0.6,-0.2 -0.8,-0.3 -0.2,-0.1 -0.4,-0.2 -0.6,-0.3 l 0.7,-2 c 0.3,0.2 0.7,0.3 1.2,0.5 0.6,0.1 1.2,0.2 1.9,0.2 z"
   class="st9" />

		<path
   inkscape:connector-curvature="0"
   id="path888"
   d="m 939.2,815.3 c 0,-0.7 0.1,-1.4 0.3,-2 0.2,-0.6 0.5,-1 0.9,-1.4 0.4,-0.4 0.8,-0.7 1.3,-0.8 0.5,-0.2 1,-0.3 1.5,-0.3 1.2,0 2.1,0.4 2.8,1.1 0.7,0.7 1,1.8 1,3.2 0,0.1 0,0.3 0,0.5 0,0.2 0,0.3 0,0.4 h -5.4 c 0.1,0.5 0.3,0.9 0.7,1.2 0.4,0.3 0.9,0.4 1.6,0.4 0.4,0 0.9,0 1.3,-0.1 0.4,-0.1 0.8,-0.2 1,-0.3 l 0.3,1.9 c -0.1,0.1 -0.3,0.1 -0.5,0.2 -0.2,0.1 -0.5,0.1 -0.7,0.2 -0.3,0 -0.5,0.1 -0.8,0.1 -0.3,0 -0.6,0 -0.9,0 -0.8,0 -1.4,-0.1 -2,-0.3 -0.6,-0.2 -1,-0.5 -1.4,-0.9 -0.4,-0.4 -0.6,-0.9 -0.8,-1.4 -0.1,-0.5 -0.2,-1.1 -0.2,-1.7 z m 5.6,-1 c 0,-0.2 0,-0.4 -0.1,-0.6 -0.1,-0.2 -0.1,-0.4 -0.3,-0.5 -0.1,-0.1 -0.3,-0.3 -0.5,-0.4 -0.2,-0.1 -0.4,-0.1 -0.7,-0.1 -0.3,0 -0.5,0 -0.7,0.1 -0.2,0.1 -0.4,0.2 -0.5,0.4 -0.1,0.2 -0.2,0.3 -0.3,0.5 -0.1,0.2 -0.1,0.4 -0.2,0.6 z"
   class="st9" />

		<path
   inkscape:connector-curvature="0"
   id="path890"
   d="m 948.6,815.2 c 0,-0.6 0.1,-1.2 0.3,-1.7 0.2,-0.5 0.5,-1 0.9,-1.4 0.4,-0.4 0.8,-0.7 1.4,-1 0.5,-0.2 1.1,-0.4 1.8,-0.4 0.4,0 0.9,0 1.2,0.1 0.4,0.1 0.7,0.2 1.1,0.3 l -0.5,1.9 c -0.2,-0.1 -0.5,-0.2 -0.7,-0.2 -0.3,-0.1 -0.6,-0.1 -0.9,-0.1 -0.7,0 -1.2,0.2 -1.6,0.7 -0.3,0.4 -0.5,1 -0.5,1.7 0,0.8 0.2,1.3 0.5,1.8 0.3,0.5 0.9,0.6 1.7,0.6 0.3,0 0.6,0 0.9,-0.1 0.3,-0.1 0.6,-0.1 0.9,-0.3 l 0.3,2 c -0.3,0.1 -0.6,0.2 -1,0.3 -0.4,0.1 -0.9,0.1 -1.4,0.1 -0.8,0 -1.4,-0.1 -2,-0.3 -0.6,-0.2 -1,-0.5 -1.4,-0.9 -0.4,-0.4 -0.6,-0.9 -0.8,-1.4 -0.2,-0.5 -0.2,-1.1 -0.2,-1.7 z"
   class="st9" />

		<path
   inkscape:connector-curvature="0"
   id="path892"
   d="m 964.1,819.1 c -0.4,0.1 -0.9,0.2 -1.6,0.3 -0.6,0.1 -1.3,0.2 -2,0.2 -0.7,0 -1.3,-0.1 -1.8,-0.3 -0.5,-0.2 -0.9,-0.5 -1.1,-0.8 -0.2,-0.3 -0.5,-0.8 -0.6,-1.2 -0.1,-0.5 -0.2,-1 -0.2,-1.6 V 811 h 2.4 v 4.4 c 0,0.8 0.1,1.3 0.3,1.7 0.2,0.3 0.6,0.5 1.1,0.5 0.2,0 0.4,0 0.5,0 0.2,0 0.4,0 0.5,-0.1 V 811 h 2.4 v 8.1 z"
   class="st9" />

		<path
   inkscape:connector-curvature="0"
   id="path894"
   d="m 971.5,813.1 c -0.2,-0.1 -0.5,-0.1 -0.8,-0.2 -0.3,-0.1 -0.6,-0.1 -0.9,-0.1 -0.1,0 -0.3,0 -0.5,0 -0.2,0 -0.4,0.1 -0.5,0.1 v 6.4 h -2.4 v -8 c 0.4,-0.1 0.9,-0.3 1.5,-0.4 0.6,-0.1 1.2,-0.2 1.9,-0.2 0.1,0 0.3,0 0.5,0 0.2,0 0.4,0 0.5,0.1 0.1,0.1 0.4,0.1 0.5,0.1 0.1,0 0.3,0.1 0.5,0.1 z"
   class="st9" />

		<path
   inkscape:connector-curvature="0"
   id="path896"
   d="m 975.7,808.6 c 0,0.4 -0.1,0.8 -0.4,1 -0.3,0.3 -0.6,0.4 -1,0.4 -0.4,0 -0.7,-0.1 -1,-0.4 -0.3,-0.2 -0.4,-0.6 -0.4,-1 0,-0.4 0.1,-0.8 0.4,-1 0.3,-0.3 0.6,-0.4 1,-0.4 0.4,0 0.7,0.1 1,0.4 0.3,0.2 0.4,0.5 0.4,1 z m -0.2,10.8 h -2.4 V 811 h 2.4 z"
   class="st9" />

		<path
   inkscape:connector-curvature="0"
   id="path898"
   d="m 977.7,808.9 2.4,-0.4 v 2.5 h 2.9 v 2 h -2.9 v 3 c 0,0.5 0.1,0.9 0.3,1.2 0.2,0.3 0.5,0.4 1.1,0.4 0.3,0 0.5,0 0.8,-0.1 0.3,0 0.5,-0.1 0.7,-0.2 l 0.3,1.9 c -0.3,0.1 -0.6,0.2 -1,0.3 -0.4,0.1 -0.8,0.1 -1.3,0.1 -0.7,0 -1.2,-0.1 -1.6,-0.3 -0.4,-0.2 -0.8,-0.4 -1,-0.7 -0.3,-0.3 -0.4,-0.7 -0.5,-1.1 -0.1,-0.4 -0.2,-0.9 -0.2,-1.5 z"
   class="st9" />

		<path
   inkscape:connector-curvature="0"
   id="path900"
   d="m 992.5,811 c -0.5,1.6 -1,3.1 -1.5,4.6 -0.5,1.4 -1.1,2.8 -1.7,4.1 -0.2,0.5 -0.4,0.9 -0.7,1.2 -0.2,0.3 -0.5,0.6 -0.7,0.8 -0.3,0.2 -0.6,0.4 -0.9,0.5 -0.3,0.1 -0.7,0.2 -1.2,0.2 -0.4,0 -0.7,0 -1,-0.1 -0.3,-0.1 -0.6,-0.1 -0.8,-0.2 l 0.4,-1.9 c 0.2,0.1 0.5,0.1 0.7,0.2 0.2,0.1 0.4,0 0.6,0 0.4,0 0.8,-0.1 1,-0.3 0.2,-0.2 0.4,-0.5 0.6,-1 -0.5,-1.1 -1.1,-2.3 -1.6,-3.6 -0.5,-1.3 -1.1,-2.8 -1.5,-4.5 h 2.5 c 0.1,0.4 0.2,0.9 0.4,1.4 0.2,0.5 0.3,1 0.5,1.5 0.2,0.5 0.3,1 0.5,1.4 0.2,0.5 0.3,0.9 0.5,1.3 0.1,-0.4 0.3,-0.8 0.4,-1.3 0.1,-0.5 0.3,-1 0.4,-1.4 0.1,-0.5 0.3,-1 0.4,-1.5 0.1,-0.5 0.3,-0.9 0.4,-1.4 z"
   class="st9" />

	</g>

</g>
<g
   transform="translate(-184.8,-722.7)"
   id="g938">
	<g
   id="g936">
		<path
   inkscape:connector-curvature="0"
   id="path906"
   d="m 671.6,870.4 c 0.2,0.4 0.4,0.8 0.7,1.3 0.3,0.5 0.5,1.1 0.8,1.7 0.3,0.6 0.5,1.2 0.8,1.8 0.3,0.6 0.5,1.2 0.8,1.8 0.2,-0.6 0.5,-1.1 0.8,-1.8 0.3,-0.6 0.5,-1.2 0.8,-1.8 0.3,-0.6 0.5,-1.2 0.8,-1.7 0.3,-0.5 0.5,-1 0.7,-1.3 h 2.3 c 0.1,0.7 0.2,1.6 0.3,2.5 0.1,0.9 0.2,1.9 0.2,2.8 0.1,1 0.1,2 0.2,3 0.1,1 0.1,1.9 0.2,2.8 h -2.4 c 0,-1.1 -0.1,-2.2 -0.1,-3.5 -0.1,-1.3 -0.1,-2.5 -0.2,-3.8 -0.2,0.4 -0.4,0.9 -0.6,1.5 -0.2,0.6 -0.5,1.1 -0.7,1.6 -0.2,0.5 -0.5,1.1 -0.7,1.6 -0.2,0.5 -0.4,0.9 -0.5,1.3 h -1.7 c -0.1,-0.4 -0.3,-0.8 -0.5,-1.3 -0.2,-0.5 -0.4,-1 -0.7,-1.6 -0.2,-0.5 -0.5,-1.1 -0.7,-1.6 -0.2,-0.5 -0.5,-1 -0.6,-1.5 -0.1,1.3 -0.2,2.6 -0.2,3.8 -0.1,1.3 -0.1,2.4 -0.1,3.5 h -2.4 c 0,-0.9 0.1,-1.8 0.2,-2.8 0.1,-1 0.1,-2 0.2,-3 0.1,-1 0.1,-1.9 0.2,-2.8 0.1,-0.9 0.2,-1.7 0.3,-2.5 z"
   class="st9" />

		<path
   inkscape:connector-curvature="0"
   id="path908"
   d="m 685.9,872.9 c 0.7,0 1.3,0.1 1.8,0.2 0.5,0.2 0.8,0.4 1.1,0.7 0.3,0.3 0.5,0.7 0.6,1.1 0.1,0.4 0.2,0.9 0.2,1.4 v 5 c -0.3,0.1 -0.8,0.2 -1.4,0.3 -0.6,0.1 -1.3,0.2 -2.2,0.2 -0.5,0 -1,0 -1.5,-0.1 -0.4,-0.1 -0.8,-0.3 -1.1,-0.5 -0.3,-0.2 -0.6,-0.5 -0.7,-0.9 -0.2,-0.4 -0.3,-0.8 -0.3,-1.3 0,-0.5 0.1,-0.9 0.3,-1.2 0.2,-0.3 0.5,-0.6 0.8,-0.8 0.3,-0.2 0.7,-0.3 1.1,-0.4 0.4,-0.1 0.9,-0.1 1.3,-0.1 0.3,0 0.6,0 0.8,0 0.2,0 0.4,0.1 0.6,0.1 v -0.2 c 0,-0.4 -0.1,-0.7 -0.4,-1 -0.2,-0.2 -0.7,-0.4 -1.3,-0.4 -0.4,0 -0.8,0 -1.2,0.1 -0.4,0.1 -0.7,0.1 -1,0.2 l -0.3,-1.9 c 0.1,0 0.3,-0.1 0.5,-0.1 0.2,0 0.4,-0.1 0.7,-0.1 0.2,0 0.5,-0.1 0.8,-0.1 0.2,-0.2 0.5,-0.2 0.8,-0.2 z m 0.2,7 c 0.2,0 0.5,0 0.7,0 0.2,0 0.4,0 0.5,0 V 878 c -0.1,0 -0.2,0 -0.4,-0.1 -0.2,0 -0.4,0 -0.5,0 -0.2,0 -0.4,0 -0.6,0 -0.2,0 -0.4,0.1 -0.5,0.2 -0.1,0.1 -0.3,0.2 -0.4,0.3 -0.1,0.1 -0.1,0.3 -0.1,0.5 0,0.4 0.1,0.6 0.4,0.8 0.1,0.1 0.4,0.2 0.9,0.2 z"
   class="st9" />

		<path
   inkscape:connector-curvature="0"
   id="path910"
   d="m 691.7,873.4 c 0.4,-0.1 0.9,-0.2 1.6,-0.3 0.6,-0.1 1.3,-0.2 2,-0.2 0.7,0 1.3,0.1 1.8,0.3 0.5,0.2 0.9,0.5 1.1,0.8 0.3,0.3 0.5,0.7 0.6,1.2 0.1,0.5 0.2,1 0.2,1.6 v 4.8 h -2.4 v -4.5 c 0,-0.8 -0.1,-1.3 -0.3,-1.6 -0.2,-0.3 -0.6,-0.5 -1.1,-0.5 -0.2,0 -0.4,0 -0.5,0 -0.2,0 -0.4,0 -0.5,0.1 v 6.5 h -2.4 v -8.2 z"
   class="st9" />

		<path
   inkscape:connector-curvature="0"
   id="path912"
   d="m 704.1,872.9 c 0.7,0 1.3,0.1 1.8,0.2 0.5,0.2 0.8,0.4 1.1,0.7 0.3,0.3 0.5,0.7 0.6,1.1 0.1,0.4 0.2,0.9 0.2,1.4 v 5 c -0.3,0.1 -0.8,0.2 -1.4,0.3 -0.6,0.1 -1.3,0.2 -2.2,0.2 -0.5,0 -1,0 -1.5,-0.1 -0.4,-0.1 -0.8,-0.3 -1.1,-0.5 -0.3,-0.2 -0.6,-0.5 -0.7,-0.9 -0.2,-0.4 -0.3,-0.8 -0.3,-1.3 0,-0.5 0.1,-0.9 0.3,-1.2 0.2,-0.3 0.5,-0.6 0.8,-0.8 0.3,-0.2 0.7,-0.3 1.1,-0.4 0.4,-0.1 0.9,-0.1 1.3,-0.1 0.3,0 0.6,0 0.8,0 0.2,0 0.4,0.1 0.6,0.1 v -0.2 c 0,-0.4 -0.1,-0.7 -0.4,-1 -0.2,-0.2 -0.7,-0.4 -1.3,-0.4 -0.4,0 -0.8,0 -1.2,0.1 -0.4,0.1 -0.7,0.1 -1,0.2 l -0.3,-1.9 c 0.1,0 0.3,-0.1 0.5,-0.1 0.2,0 0.4,-0.1 0.7,-0.1 0.2,0 0.5,-0.1 0.8,-0.1 0.3,-0.2 0.6,-0.2 0.8,-0.2 z m 0.2,7 c 0.2,0 0.5,0 0.7,0 0.2,0 0.4,0 0.5,0 V 878 c -0.1,0 -0.2,0 -0.4,-0.1 -0.2,0 -0.4,0 -0.5,0 -0.2,0 -0.4,0 -0.6,0 -0.2,0 -0.4,0.1 -0.5,0.2 -0.1,0.1 -0.3,0.2 -0.4,0.3 -0.1,0.1 -0.1,0.3 -0.1,0.5 0,0.4 0.1,0.6 0.4,0.8 0.1,0.1 0.5,0.2 0.9,0.2 z"
   class="st9" />

		<path
   inkscape:connector-curvature="0"
   id="path914"
   d="m 717.2,880.5 c 0,1.4 -0.3,2.4 -1,3.1 -0.7,0.7 -1.8,1 -3.2,1 -0.5,0 -1,0 -1.5,-0.1 -0.5,-0.1 -1,-0.2 -1.4,-0.4 l 0.4,-2 c 0.4,0.1 0.8,0.3 1.2,0.4 0.4,0.1 0.9,0.1 1.4,0.1 0.7,0 1.2,-0.1 1.4,-0.4 0.3,-0.3 0.4,-0.7 0.4,-1.2 v -0.3 c -0.3,0.1 -0.5,0.2 -0.8,0.3 -0.3,0.1 -0.6,0.1 -0.9,0.1 -1.2,0 -2.1,-0.3 -2.7,-1 -0.6,-0.7 -0.9,-1.7 -0.9,-2.9 0,-0.6 0.1,-1.2 0.3,-1.7 0.2,-0.5 0.5,-0.9 0.8,-1.3 0.4,-0.4 0.8,-0.6 1.4,-0.8 0.5,-0.2 1.1,-0.3 1.8,-0.3 0.3,0 0.6,0 0.9,0 0.3,0 0.6,0.1 0.9,0.1 0.3,0 0.6,0.1 0.9,0.2 0.3,0.1 0.5,0.1 0.7,0.2 v 6.9 z M 712,877 c 0,1.3 0.5,2 1.6,2 0.2,0 0.5,0 0.7,-0.1 0.2,-0.1 0.4,-0.1 0.5,-0.2 v -3.8 c -0.1,0 -0.3,0 -0.4,-0.1 -0.2,0 -0.3,0 -0.6,0 -0.6,0 -1.1,0.2 -1.4,0.6 -0.3,0.5 -0.4,1 -0.4,1.6 z"
   class="st9" />

		<path
   inkscape:connector-curvature="0"
   id="path916"
   d="m 719.1,877.4 c 0,-0.7 0.1,-1.4 0.3,-2 0.2,-0.6 0.5,-1 0.9,-1.4 0.4,-0.4 0.8,-0.7 1.3,-0.8 0.5,-0.2 1,-0.3 1.5,-0.3 1.2,0 2.1,0.4 2.8,1.1 0.7,0.7 1,1.8 1,3.2 0,0.1 0,0.3 0,0.5 0,0.2 0,0.3 0,0.4 h -5.4 c 0.1,0.5 0.3,0.9 0.7,1.2 0.4,0.3 0.9,0.4 1.6,0.4 0.4,0 0.9,0 1.3,-0.1 0.4,-0.1 0.8,-0.2 1,-0.3 l 0.3,1.9 c -0.1,0.1 -0.3,0.1 -0.5,0.2 -0.2,0.1 -0.5,0.1 -0.7,0.2 -0.3,0 -0.5,0.1 -0.8,0.1 -0.3,0 -0.6,0 -0.9,0 -0.8,0 -1.4,-0.1 -2,-0.3 -0.6,-0.2 -1,-0.5 -1.4,-0.9 -0.4,-0.4 -0.6,-0.8 -0.8,-1.4 -0.1,-0.5 -0.2,-1.1 -0.2,-1.7 z m 5.6,-0.9 c 0,-0.2 0,-0.4 -0.1,-0.6 -0.1,-0.2 -0.1,-0.4 -0.3,-0.5 -0.1,-0.1 -0.3,-0.3 -0.5,-0.4 -0.2,-0.1 -0.4,-0.1 -0.7,-0.1 -0.3,0 -0.5,0 -0.7,0.1 -0.2,0.1 -0.4,0.2 -0.5,0.4 -0.1,0.2 -0.2,0.3 -0.3,0.5 -0.1,0.2 -0.1,0.4 -0.2,0.6 z"
   class="st9" />

		<path
   inkscape:connector-curvature="0"
   id="path918"
   d="m 736.2,881.2 c -0.2,0.1 -0.5,0.1 -0.7,0.2 -0.2,0.1 -0.6,0.1 -0.9,0.2 -0.3,0 -0.6,0.1 -0.9,0.1 -0.3,0 -0.6,0 -0.9,0 -0.7,0 -1.3,-0.1 -1.9,-0.3 -0.6,-0.2 -1,-0.5 -1.4,-0.9 -0.4,-0.4 -0.7,-0.8 -0.9,-1.4 -0.2,-0.5 -0.3,-1.1 -0.3,-1.8 0,-0.7 0.1,-1.3 0.3,-1.8 0.2,-0.5 0.4,-1 0.7,-1.4 0.3,-0.4 0.7,-0.7 1.2,-0.9 0.5,-0.2 1,-0.3 1.6,-0.3 0.3,0 0.6,0 0.9,0.1 0.3,0.1 0.5,0.2 0.8,0.3 v -3.8 l 2.4,-0.4 z m -5.4,-4 c 0,0.7 0.2,1.3 0.5,1.8 0.3,0.4 0.8,0.7 1.5,0.7 0.2,0 0.4,0 0.6,0 0.2,0 0.3,0 0.4,-0.1 v -4.3 c -0.1,-0.1 -0.3,-0.2 -0.6,-0.2 -0.2,-0.1 -0.5,-0.1 -0.7,-0.1 -1.1,-0.1 -1.7,0.7 -1.7,2.2 z"
   class="st9" />

		<path
   inkscape:connector-curvature="0"
   id="path920"
   d="m 745.5,879.6 c 0.4,0 0.6,0 0.9,-0.1 0.2,-0.1 0.4,-0.1 0.6,-0.2 0.2,-0.1 0.2,-0.2 0.3,-0.4 0.1,-0.1 0.1,-0.3 0.1,-0.5 0,-0.4 -0.2,-0.7 -0.5,-0.9 -0.3,-0.2 -0.9,-0.5 -1.8,-0.8 -0.4,-0.1 -0.7,-0.3 -1.1,-0.4 -0.4,-0.2 -0.7,-0.4 -1,-0.6 -0.3,-0.2 -0.5,-0.6 -0.7,-0.9 -0.2,-0.3 -0.3,-0.8 -0.3,-1.3 0,-0.5 0.1,-1 0.3,-1.4 0.2,-0.4 0.5,-0.8 0.8,-1 0.4,-0.3 0.8,-0.5 1.3,-0.7 0.5,-0.2 1.1,-0.2 1.7,-0.2 0.7,0 1.4,0.1 1.9,0.2 0.5,0.1 1,0.3 1.3,0.5 l -0.7,2 c -0.3,-0.2 -0.7,-0.3 -1,-0.4 -0.4,-0.1 -0.8,-0.2 -1.4,-0.2 -0.6,0 -1,0.1 -1.3,0.2 -0.3,0.2 -0.4,0.4 -0.4,0.8 0,0.2 0,0.4 0.1,0.5 0.1,0.1 0.2,0.3 0.4,0.4 0.2,0.1 0.4,0.2 0.6,0.3 0.2,0.1 0.5,0.2 0.8,0.3 0.6,0.2 1.1,0.4 1.5,0.6 0.4,0.2 0.8,0.5 1.1,0.7 0.3,0.3 0.5,0.6 0.6,1 0.1,0.4 0.2,0.8 0.2,1.4 0,1 -0.4,1.8 -1.1,2.4 -0.7,0.6 -1.8,0.9 -3.3,0.9 -0.5,0 -0.9,0 -1.3,-0.1 -0.4,-0.1 -0.7,-0.1 -1,-0.2 -0.3,-0.1 -0.6,-0.2 -0.8,-0.3 -0.2,-0.1 -0.4,-0.2 -0.6,-0.3 l 0.7,-2 c 0.3,0.2 0.7,0.3 1.2,0.5 0.6,0.1 1.2,0.2 1.9,0.2 z"
   class="st9" />

		<path
   inkscape:connector-curvature="0"
   id="path922"
   d="m 751.2,877.4 c 0,-0.7 0.1,-1.4 0.3,-2 0.2,-0.6 0.5,-1 0.9,-1.4 0.4,-0.4 0.8,-0.7 1.3,-0.8 0.5,-0.2 1,-0.3 1.5,-0.3 1.2,0 2.1,0.4 2.8,1.1 0.7,0.7 1,1.8 1,3.2 0,0.1 0,0.3 0,0.5 0,0.2 0,0.3 0,0.4 h -5.4 c 0.1,0.5 0.3,0.9 0.7,1.2 0.4,0.3 0.9,0.4 1.6,0.4 0.4,0 0.9,0 1.3,-0.1 0.4,-0.1 0.8,-0.2 1,-0.3 l 0.3,1.9 c -0.1,0.1 -0.3,0.1 -0.5,0.2 -0.2,0.1 -0.5,0.1 -0.7,0.2 -0.3,0 -0.5,0.1 -0.8,0.1 -0.3,0 -0.6,0 -0.9,0 -0.8,0 -1.4,-0.1 -2,-0.3 -0.6,-0.2 -1,-0.5 -1.4,-0.9 -0.4,-0.4 -0.6,-0.8 -0.8,-1.4 -0.1,-0.5 -0.2,-1.1 -0.2,-1.7 z m 5.6,-0.9 c 0,-0.2 0,-0.4 -0.1,-0.6 -0.1,-0.2 -0.1,-0.4 -0.3,-0.5 -0.1,-0.1 -0.3,-0.3 -0.5,-0.4 -0.2,-0.1 -0.4,-0.1 -0.7,-0.1 -0.3,0 -0.5,0 -0.7,0.1 -0.2,0.1 -0.4,0.2 -0.5,0.4 -0.1,0.2 -0.2,0.3 -0.3,0.5 -0.1,0.2 -0.1,0.4 -0.2,0.6 z"
   class="st9" />

		<path
   inkscape:connector-curvature="0"
   id="path924"
   d="m 766,875.2 c -0.2,-0.1 -0.5,-0.1 -0.8,-0.2 -0.3,-0.1 -0.6,-0.1 -0.9,-0.1 -0.1,0 -0.3,0 -0.5,0 -0.2,0 -0.4,0.1 -0.5,0.1 v 6.4 H 761 v -8 c 0.4,-0.1 0.9,-0.3 1.5,-0.4 0.6,-0.1 1.2,-0.2 1.9,-0.2 0.1,0 0.3,0 0.5,0 0.2,0 0.4,0 0.5,0.1 0.2,0 0.4,0.1 0.5,0.1 0.2,0 0.3,0.1 0.5,0.1 z"
   class="st9" />

		<path
   inkscape:connector-curvature="0"
   id="path926"
   d="m 770.5,881.5 c -0.5,-1.1 -1.1,-2.3 -1.7,-3.7 -0.6,-1.4 -1.1,-3 -1.6,-4.7 h 2.5 c 0.1,0.4 0.2,0.9 0.4,1.4 0.2,0.5 0.3,1 0.5,1.5 0.2,0.5 0.3,1 0.5,1.4 0.2,0.5 0.3,0.9 0.5,1.3 0.1,-0.4 0.3,-0.8 0.4,-1.3 0.2,-0.5 0.3,-1 0.5,-1.4 0.2,-0.4 0.3,-1 0.5,-1.5 0.1,-0.5 0.3,-0.9 0.4,-1.4 h 2.5 c -0.5,1.7 -1,3.2 -1.6,4.7 -0.6,1.4 -1.1,2.7 -1.7,3.7 z"
   class="st9" />

		<path
   inkscape:connector-curvature="0"
   id="path928"
   d="m 779.6,870.7 c 0,0.4 -0.1,0.8 -0.4,1 -0.3,0.2 -0.6,0.4 -1,0.4 -0.4,0 -0.7,-0.1 -1,-0.4 -0.3,-0.3 -0.4,-0.6 -0.4,-1 0,-0.4 0.1,-0.8 0.4,-1 0.3,-0.2 0.6,-0.4 1,-0.4 0.4,0 0.7,0.1 1,0.4 0.3,0.2 0.4,0.5 0.4,1 z m -0.2,10.8 H 777 v -8.4 h 2.4 z"
   class="st9" />

		<path
   inkscape:connector-curvature="0"
   id="path930"
   d="m 781.2,877.3 c 0,-0.6 0.1,-1.2 0.3,-1.7 0.2,-0.5 0.5,-1 0.9,-1.4 0.4,-0.4 0.8,-0.7 1.4,-1 0.5,-0.2 1.1,-0.4 1.8,-0.4 0.4,0 0.9,0 1.2,0.1 0.4,0.1 0.7,0.2 1.1,0.3 l -0.5,1.9 c -0.2,-0.1 -0.5,-0.2 -0.7,-0.2 -0.3,-0.1 -0.6,-0.1 -0.9,-0.1 -0.7,0 -1.2,0.2 -1.6,0.7 -0.4,0.5 -0.5,1 -0.5,1.7 0,0.8 0.2,1.3 0.5,1.8 0.3,0.4 0.9,0.6 1.7,0.6 0.3,0 0.6,0 0.9,-0.1 0.3,-0.1 0.6,-0.1 0.9,-0.3 l 0.3,2 c -0.3,0.1 -0.6,0.2 -1,0.3 -0.4,0.1 -0.9,0.1 -1.4,0.1 -0.8,0 -1.4,-0.1 -2,-0.3 -0.6,-0.2 -1,-0.5 -1.4,-0.9 -0.4,-0.4 -0.6,-0.9 -0.8,-1.4 -0.1,-0.5 -0.2,-1.1 -0.2,-1.7 z"
   class="st9" />

		<path
   inkscape:connector-curvature="0"
   id="path932"
   d="m 788.8,877.4 c 0,-0.7 0.1,-1.4 0.3,-2 0.2,-0.6 0.5,-1 0.9,-1.4 0.4,-0.4 0.8,-0.7 1.3,-0.8 0.5,-0.2 1,-0.3 1.5,-0.3 1.2,0 2.1,0.4 2.8,1.1 0.7,0.7 1,1.8 1,3.2 0,0.1 0,0.3 0,0.5 0,0.2 0,0.3 0,0.4 h -5.4 c 0.1,0.5 0.3,0.9 0.7,1.2 0.4,0.3 0.9,0.4 1.6,0.4 0.4,0 0.9,0 1.3,-0.1 0.4,-0.1 0.8,-0.2 1,-0.3 l 0.3,1.9 c -0.1,0.1 -0.3,0.1 -0.5,0.2 -0.2,0.1 -0.5,0.1 -0.7,0.2 -0.3,0 -0.5,0.1 -0.8,0.1 -0.3,0 -0.6,0 -0.9,0 -0.8,0 -1.4,-0.1 -2,-0.3 -0.6,-0.2 -1,-0.5 -1.4,-0.9 -0.4,-0.4 -0.6,-0.8 -0.8,-1.4 -0.1,-0.5 -0.2,-1.1 -0.2,-1.7 z m 5.6,-0.9 c 0,-0.2 0,-0.4 -0.1,-0.6 -0.1,-0.2 -0.1,-0.4 -0.3,-0.5 -0.1,-0.1 -0.3,-0.3 -0.5,-0.4 -0.2,-0.1 -0.4,-0.1 -0.7,-0.1 -0.3,0 -0.5,0 -0.7,0.1 -0.2,0.1 -0.4,0.2 -0.5,0.4 -0.1,0.2 -0.2,0.3 -0.3,0.5 -0.1,0.2 -0.1,0.4 -0.2,0.6 z"
   class="st9" />

		<path
   inkscape:connector-curvature="0"
   id="path934"
   d="m 801,879.8 c 0.4,0 0.7,0 0.9,-0.1 0.2,-0.1 0.3,-0.2 0.3,-0.5 0,-0.2 -0.1,-0.4 -0.4,-0.5 -0.2,-0.1 -0.6,-0.3 -1.1,-0.5 -0.4,-0.1 -0.7,-0.3 -1,-0.4 -0.3,-0.1 -0.6,-0.3 -0.8,-0.5 -0.2,-0.2 -0.4,-0.5 -0.5,-0.7 -0.1,-0.3 -0.2,-0.6 -0.2,-1 0,-0.8 0.3,-1.4 0.9,-1.9 0.6,-0.5 1.4,-0.7 2.4,-0.7 0.5,0 1,0 1.5,0.1 0.5,0.1 0.8,0.2 1.1,0.3 l -0.4,1.9 c -0.3,-0.1 -0.6,-0.2 -0.9,-0.3 -0.3,-0.1 -0.7,-0.1 -1.1,-0.1 -0.7,0 -1.1,0.2 -1.1,0.6 0,0.1 0,0.2 0,0.3 0,0.1 0.1,0.1 0.2,0.2 0.1,0.1 0.2,0.1 0.4,0.2 0.2,0.1 0.4,0.2 0.6,0.3 0.5,0.2 1,0.4 1.3,0.6 0.3,0.2 0.6,0.4 0.8,0.6 0.2,0.2 0.3,0.5 0.4,0.7 0.1,0.3 0.1,0.6 0.1,0.9 0,0.8 -0.3,1.5 -0.9,1.9 -0.6,0.4 -1.5,0.6 -2.6,0.6 -0.7,0 -1.4,-0.1 -1.9,-0.2 -0.5,-0.1 -0.8,-0.2 -1,-0.3 l 0.4,-1.9 c 0.4,0.2 0.8,0.3 1.2,0.4 0.6,0 1,0 1.4,0 z"
   class="st9" />

	</g>

</g>
<path
   inkscape:connector-curvature="0"
   id="path956"
   d="M 108.6,21"
   class="st15" />
<g
   transform="translate(-184.8,-722.7)"
   id="g966">
	<path
   inkscape:connector-curvature="0"
   id="path958"
   d="m 625.1,816.7 c 0,3.8 0,10.4 0,14.4 0,6 -10.9,10.8 -24.4,10.8 -13.5,0 -24.4,-4.8 -24.4,-10.8 0,-4.5 0,-6.2 0,-14.4"
   class="st12" />

	<path
   inkscape:connector-curvature="0"
   id="path960"
   d="m 625.1,802.3 c 0,3.8 0,10.4 0,14.4 0,6 -10.9,10.8 -24.4,10.8 -13.5,0 -24.4,-4.8 -24.4,-10.8 0,-4.5 0,-6.2 0,-14.4"
   class="st12" />

	<path
   inkscape:connector-curvature="0"
   id="path962"
   d="m 625.1,787.9 c 0,3.8 0,10.4 0,14.4 0,6 -10.9,10.8 -24.4,10.8 -13.5,0 -24.4,-4.8 -24.4,-10.8 0,-4.5 0,-6.2 0,-14.4"
   class="st12" />

	<ellipse
   id="ellipse964"
   ry="10.8"
   rx="24.4"
   cy="787.79999"
   cx="600.79999"
   class="st12" />

</g>
<g
   transform="translate(-184.8,-722.7)"
   id="g976">
	<path
   inkscape:connector-curvature="0"
   id="path968"
   d="m 997.7,874.2 c 0,3.8 0,10.4 0,14.4 0,6 -10.9,10.8 -24.4,10.8 -13.5,0 -24.4,-4.8 -24.4,-10.8 0,-4.5 0,-6.2 0,-14.4"
   class="st12" />

	<path
   inkscape:connector-curvature="0"
   id="path970"
   d="m 997.7,859.8 c 0,3.8 0,10.4 0,14.4 0,6 -10.9,10.8 -24.4,10.8 -13.5,0 -24.4,-4.8 -24.4,-10.8 0,-4.5 0,-6.2 0,-14.4"
   class="st12" />

	<path
   inkscape:connector-curvature="0"
   id="path972"
   d="m 997.7,845.3 c 0,3.8 0,10.4 0,14.4 0,6 -10.9,10.8 -24.4,10.8 -13.5,0 -24.4,-4.8 -24.4,-10.8 0,-4.5 0,-6.2 0,-14.4"
   class="st12" />

	<ellipse
   id="ellipse974"
   ry="10.8"
   rx="24.4"
   cy="845.29999"
   cx="973.40002"
   class="st12" />

</g>
<g
   transform="translate(-184.8,-722.7)"
   id="g990">
	<g
   id="g982">
		<path
   inkscape:connector-curvature="0"
   id="path978"
   d="m 709.3,838.2 c 0.2,0.8 0.9,1.4 1.7,1.4 h 8 c 0.8,0 1.5,-0.6 1.7,-1.4 l 0.9,-4.5 c 1.1,-0.4 2.2,-0.8 3.2,-1.4 l 3.9,2.6 c 0.7,0.5 1.6,0.4 2.2,-0.2 l 5.7,-5.7 c 0.6,-0.6 0.7,-1.5 0.2,-2.2 l -2.9,-4.4 c 0.4,-0.8 0.7,-1.7 0.9,-2.6 l 5.2,-1.1 c 0.8,-0.2 1.4,-0.9 1.4,-1.7 v -8 c 0,-0.8 -0.6,-1.5 -1.4,-1.7 l -6,-1.3 c -0.2,-0.5 -0.5,-1.1 -0.7,-1.6 l 3.4,-5.2 c 0.5,-0.7 0.4,-1.6 -0.2,-2.2 l -5.7,-5.7 c -0.6,-0.6 -1.5,-0.7 -2.2,-0.2 l -5.7,3.7 c -0.3,-0.1 -0.7,-0.3 -1,-0.4 l -1.4,-6.6 c -0.2,-0.8 -0.9,-1.4 -1.7,-1.4 h -8 c -0.8,0 -1.5,0.6 -1.7,1.4 l -1.4,6.6 c -0.3,0.1 -0.7,0.3 -1,0.4 l -5.7,-3.7 c -0.7,-0.4 -1.6,-0.4 -2.2,0.2 l -5.7,5.7 c -0.6,0.6 -0.7,1.5 -0.2,2.2 l 3.4,5.2 c -0.3,0.5 -0.5,1 -0.7,1.6 l -6,1.3 c -0.8,0.2 -1.4,0.9 -1.4,1.7 v 8 c 0,0.8 0.6,1.5 1.4,1.7 l 5.2,1.1 c 0.3,0.9 0.6,1.7 0.9,2.6 l -2.8,4.4 c -0.5,0.7 -0.4,1.6 0.2,2.2 l 5.7,5.7 c 0.6,0.6 1.5,0.7 2.2,0.2 l 3.9,-2.6 c 1,0.6 2.1,1 3.2,1.4 z"
   class="st12" />

		<path
   inkscape:connector-curvature="0"
   id="path980"
   d="m 704.5,813 c 0,-5.9 4.7,-10.6 10.6,-10.6 5.9,0 10.6,4.7 10.6,10.6 0,5.1 -3.7,9.5 -8.7,10.5 -0.6,0.1 -1.3,0.2 -1.9,0.2 -5.9,-0.1 -10.6,-4.9 -10.6,-10.7 z"
   class="st12" />

	</g>

	<g
   id="g988">
		<path
   inkscape:connector-curvature="0"
   id="path984"
   d="m 748.6,847.6 c 0.1,0.5 0.5,0.8 1,0.8 h 4.5 c 0.5,0 0.9,-0.3 1,-0.8 l 0.5,-2.5 c 0.6,-0.2 1.2,-0.5 1.8,-0.8 l 2.2,1.4 c 0.4,0.3 0.9,0.2 1.2,-0.1 l 3.2,-3.2 c 0.3,-0.3 0.4,-0.8 0.1,-1.2 l -1.6,-2.4 c 0.2,-0.5 0.4,-1 0.5,-1.4 l 2.9,-0.6 c 0.5,-0.1 0.8,-0.5 0.8,-1 v -4.5 c 0,-0.5 -0.3,-0.9 -0.8,-1 l -3.4,-0.7 c -0.1,-0.3 -0.3,-0.6 -0.4,-0.9 l 1.9,-2.9 c 0.3,-0.4 0.2,-0.9 -0.1,-1.2 l -3.2,-3.2 c -0.3,-0.3 -0.8,-0.4 -1.2,-0.1 l -3.2,2.1 c -0.2,-0.1 -0.4,-0.2 -0.6,-0.2 l -0.8,-3.7 c -0.1,-0.5 -0.5,-0.8 -1,-0.8 h -4.5 c -0.5,0 -0.9,0.3 -1,0.8 l -0.8,3.7 c -0.2,0.1 -0.4,0.1 -0.6,0.2 l -3.2,-2.1 c -0.4,-0.3 -0.9,-0.2 -1.2,0.1 l -3.2,3.2 c -0.3,0.3 -0.4,0.8 -0.1,1.2 l 1.9,2.9 c -0.1,0.3 -0.3,0.6 -0.4,0.9 l -3.4,0.7 c -0.5,0.1 -0.8,0.5 -0.8,1 v 4.5 c 0,0.5 0.3,0.9 0.8,1 l 2.9,0.6 c 0.1,0.5 0.3,1 0.5,1.4 l -1.6,2.4 c -0.3,0.4 -0.2,0.9 0.1,1.2 l 3.2,3.2 c 0.3,0.3 0.8,0.4 1.2,0.1 l 2.2,-1.4 c 0.6,0.3 1.2,0.6 1.8,0.8 z"
   class="st12" />

		<path
   inkscape:connector-curvature="0"
   id="path986"
   d="m 745.8,833.5 c 0,-3.3 2.7,-6 5.9,-6 3.2,0 6,2.7 6,5.9 0,2.9 -2.1,5.4 -4.9,5.9 -0.3,0.1 -0.7,0.1 -1.1,0.1 -3.2,0 -5.9,-2.7 -5.9,-5.9 z"
   class="st12" />

	</g>

</g>
<g
   transform="translate(-184.8,-722.7)"
   id="g1008">
	<path
   inkscape:connector-curvature="0"
   id="path992"
   d="M 521.9,838.4 H 450 c -3.8,0 -6.9,-3.1 -6.9,-6.9 v -48.9 c 0,-3.8 3.1,-6.9 6.9,-6.9 h 71.9 c 3.8,0 6.9,3.1 6.9,6.9 v 48.9 c 0,3.8 -3.1,6.9 -6.9,6.9 z"
   class="st12" />

	<rect
   id="rect994"
   height="13.7"
   width="16.6"
   class="st12"
   y="838.40002"
   x="477.70001" />

	<line
   id="line996"
   y2="852.09998"
   x2="457.20001"
   y1="852.09998"
   x1="514.79999"
   class="st12" />

	<line
   id="line998"
   y2="829.59998"
   x2="443.20001"
   y1="829.59998"
   x1="528.79999"
   class="st12" />

	<g
   id="g1006">
		<polygon
   id="polygon1000"
   points="504,815.6 486,825.8 486,804.8 504,794.6 "
   class="st12" />

		<polyline
   id="polyline1002"
   points="504,794.6 486,784.5 467.9,794.6   "
   class="st12" />

		<polygon
   id="polygon1004"
   points="467.9,815.6 486,825.8 486,804.8 467.9,794.6 "
   class="st12" />

	</g>

</g>
<g
   transform="translate(-184.8,-722.7)"
   id="g1024">
	<polyline
   id="polyline1010"
   points="955.5,766.7 955.5,791.9 951.6,795.8 947.7,791.9 947.7,788 950.3,785.4 945.7,780.8 949,777.5    949,766.3  "
   class="st12" />

	<g
   id="g1018">
		<rect
   id="rect1012"
   height="26.1"
   width="36.5"
   class="st12"
   y="769.70001"
   x="903.40002" />

		<path
   inkscape:connector-curvature="0"
   id="path1014"
   d="M 908.6,769.7 V 758 c 0,-7.2 5.9,-13 13,-13 v 0 c 7.2,0 13,5.9 13,13 v 11.7"
   class="st16" />

		<path
   inkscape:connector-curvature="0"
   id="path1016"
   d="m 925.5,778.9 c 0,-2.2 -1.7,-3.9 -3.9,-3.9 -2.2,0 -3.9,1.7 -3.9,3.9 0,1.2 0.5,2.1 1.3,2.9 l -1.3,6.3 h 7.8 l -1.3,-6.3 c 0.8,-0.9 1.3,-1.8 1.3,-2.9 z"
   class="st17" />

	</g>

	<circle
   id="circle1020"
   r="10.4"
   cy="756.70001"
   cx="952.90002"
   class="st12" />

	<circle
   id="circle1022"
   r="2.5999999"
   cy="752.79999"
   cx="952.90002"
   class="st17" />

</g>
<g
   transform="translate(-184.8,-722.7)"
   id="g1030">
	<path
   inkscape:connector-curvature="0"
   id="path1026"
   d="m 865.7,1051.4 h -1.9 v -11.1 c 0,-0.8 0.1,-1.9 0.2,-3.2 h -0.1 c -0.2,0.8 -0.3,1.3 -0.5,1.6 l -5.6,12.6 h -0.9 l -5.6,-12.4 c -0.2,-0.3 -0.3,-0.9 -0.5,-1.7 h -0.1 c 0.1,0.7 0.1,1.7 0.1,3.2 v 11 H 849 V 1035 h 2.5 l 5.1,11.5 c 0.4,0.8 0.6,1.5 0.8,1.9 h 0.1 c 0.4,-1 0.7,-1.7 0.8,-2 l 5.1,-11.4 h 2.4 v 16.4 z m 5.6,-15.9 c 0,0.3 -0.1,0.7 -0.3,0.8 -0.3,0.3 -0.5,0.3 -0.8,0.3 -0.3,0 -0.7,-0.1 -0.8,-0.3 -0.3,-0.3 -0.3,-0.5 -0.3,-0.9 0,-0.3 0.1,-0.6 0.3,-0.8 0.3,-0.3 0.5,-0.3 0.8,-0.3 0.3,0 0.7,0.1 0.8,0.3 0.2,0.3 0.3,0.6 0.3,0.9 z m -0.2,15.9 h -1.9 v -11.7 h 1.9 z m 11,-0.5 c -0.9,0.6 -1.9,0.8 -3.2,0.8 -1.1,0 -2,-0.3 -2.9,-0.8 -0.8,-0.5 -1.5,-1.2 -2,-2.1 -0.5,-0.9 -0.7,-1.9 -0.7,-3 0,-1.9 0.6,-3.5 1.7,-4.6 1.1,-1.2 2.6,-1.8 4.5,-1.8 1,0 1.9,0.2 2.7,0.6 v 1.9 c -0.8,-0.6 -1.8,-0.9 -2.8,-0.9 -1.2,0 -2.2,0.4 -3,1.3 -0.8,0.8 -1.1,2 -1.1,3.4 0,1.3 0.3,2.4 1.1,3.2 0.8,0.8 1.7,1.2 2.9,1.2 1,0 2,-0.3 2.9,-1 z m 8.3,-9.2 c -0.3,-0.3 -0.8,-0.3 -1.4,-0.3 -0.8,0 -1.5,0.4 -2,1.2 -0.5,0.8 -0.8,1.8 -0.8,3 v 6 h -1.9 v -11.8 h 1.9 v 2.4 h 0.1 c 0.3,-0.8 0.7,-1.4 1.2,-1.9 0.5,-0.5 1.2,-0.7 1.9,-0.7 0.5,0 0.8,0.1 1.1,0.2 v 1.9 z m 11.7,3.8 c 0,1.9 -0.5,3.4 -1.6,4.5 -1.1,1.1 -2.4,1.7 -4.2,1.7 -1.8,0 -3.1,-0.6 -4.1,-1.7 -1,-1.1 -1.5,-2.5 -1.5,-4.4 0,-1.9 0.5,-3.5 1.6,-4.6 1.1,-1.1 2.5,-1.7 4.4,-1.7 1.8,0 3.1,0.5 4,1.6 1,1.3 1.4,2.8 1.4,4.6 z m -1.9,0.1 c 0,-1.4 -0.3,-2.6 -1,-3.4 -0.7,-0.8 -1.6,-1.2 -2.8,-1.2 -1.2,0 -2.2,0.4 -2.9,1.2 -0.7,0.8 -1,1.9 -1,3.4 0,1.4 0.3,2.5 1.1,3.3 0.7,0.8 1.7,1.2 2.9,1.2 1.2,0 2.2,-0.4 2.8,-1.2 0.6,-0.7 0.9,-1.8 0.9,-3.3 z m 10.6,2.7 c 0,1 -0.4,1.9 -1.2,2.4 -0.8,0.7 -1.9,0.9 -3.1,0.9 -1.1,0 -2.1,-0.3 -2.9,-0.7 v -2 c 0.9,0.8 1.9,1.1 3,1.1 1.5,0 2.2,-0.5 2.2,-1.6 0,-0.4 -0.2,-0.8 -0.4,-1.1 -0.3,-0.3 -0.9,-0.7 -1.9,-1.1 -1,-0.4 -1.8,-0.9 -2.2,-1.4 -0.4,-0.5 -0.7,-1.2 -0.7,-2 0,-0.9 0.4,-1.8 1.2,-2.4 0.8,-0.7 1.8,-1 3,-1 0.9,0 1.8,0.2 2.5,0.6 v 1.9 c -0.8,-0.6 -1.7,-0.8 -2.6,-0.8 -0.6,0 -1.1,0.2 -1.5,0.4 -0.3,0.3 -0.6,0.7 -0.6,1.2 0,0.5 0.2,0.9 0.4,1.2 0.3,0.3 0.9,0.6 1.8,1 1.1,0.5 1.9,0.9 2.4,1.5 0.3,0.5 0.6,1.2 0.6,1.9 z m 12.7,-2.8 c 0,1.9 -0.5,3.4 -1.6,4.5 -1.1,1.1 -2.4,1.7 -4.2,1.7 -1.8,0 -3.1,-0.6 -4.1,-1.7 -1,-1.1 -1.5,-2.5 -1.5,-4.4 0,-1.9 0.5,-3.5 1.6,-4.6 1.1,-1.1 2.5,-1.7 4.4,-1.7 1.8,0 3.1,0.5 4,1.6 0.9,1.3 1.4,2.8 1.4,4.6 z m -1.9,0.1 c 0,-1.4 -0.3,-2.6 -1,-3.4 -0.7,-0.8 -1.6,-1.2 -2.8,-1.2 -1.2,0 -2.2,0.4 -2.9,1.2 -0.7,0.8 -1,1.9 -1,3.4 0,1.4 0.3,2.5 1.1,3.3 0.7,0.8 1.7,1.2 2.9,1.2 1.2,0 2.2,-0.4 2.8,-1.2 0.6,-0.7 0.9,-1.8 0.9,-3.3 z m 9.6,-9.8 c -0.3,-0.2 -0.8,-0.3 -1.3,-0.3 -1.3,0 -1.9,0.8 -1.9,2.4 v 1.9 h 2.8 v 1.6 H 928 v 10.1 h -1.9 v -10.1 h -2 v -1.6 h 2 v -1.9 c 0,-1.2 0.3,-2.1 1,-2.9 0.8,-0.8 1.7,-1.2 2.8,-1.2 0.6,0 1,0.1 1.3,0.2 z"
   class="st18" />

	<path
   inkscape:connector-curvature="0"
   id="path1028"
   d="m 937.5,1051.4 c -0.4,0.3 -1,0.3 -1.8,0.3 -2,0 -3,-1.2 -3,-3.5 v -6.9 h -2 v -1.6 h 2 v -2.9 l 1.9,-0.6 v 3.5 h 3 v 1.6 h -3 v 6.6 c 0,0.8 0.2,1.3 0.4,1.7 0.3,0.3 0.7,0.5 1.3,0.5 0.5,0 0.8,-0.1 1.2,-0.3 z m 19.7,0 h -2.1 l -1.7,-4.6 h -7 l -1.6,4.6 h -2.1 l 6.2,-16.4 h 2 z m -4.5,-6.3 -2.6,-7 c -0.1,-0.2 -0.2,-0.5 -0.3,-1.1 h -0.1 c -0.1,0.5 -0.2,0.8 -0.3,1.1 l -2.5,7 z m 15,-4.9 -7,9.6 h 6.8 v 1.6 H 958 v -0.6 l 6.9,-9.5 h -6.2 v -1.6 h 9 z m 11.3,11.2 h -1.9 v -1.9 H 977 c -0.8,1.4 -1.9,2.1 -3.6,2.1 -2.8,0 -4.2,-1.7 -4.2,-5 v -7 h 1.9 v 6.7 c 0,2.4 0.9,3.7 2.9,3.7 0.9,0 1.7,-0.3 2.3,-1 0.6,-0.7 0.8,-1.5 0.8,-2.6 v -6.8 h 1.9 z m 9.2,-9.7 c -0.3,-0.3 -0.8,-0.3 -1.4,-0.3 -0.8,0 -1.5,0.4 -2,1.2 -0.5,0.8 -0.8,1.8 -0.8,3 v 6 h -1.9 v -11.8 h 1.9 v 2.4 h 0.1 c 0.3,-0.8 0.7,-1.4 1.2,-1.9 0.5,-0.5 1.2,-0.7 1.9,-0.7 0.5,0 0.8,0.1 1.1,0.2 v 1.9 z m 10.5,4.3 h -8.3 c 0,1.3 0.3,2.4 1,3 0.7,0.7 1.6,1 2.8,1 1.3,0 2.5,-0.4 3.6,-1.3 v 1.8 c -1,0.8 -2.4,1.1 -4,1.1 -1.6,0 -3,-0.5 -3.9,-1.6 -0.9,-1.1 -1.4,-2.5 -1.4,-4.5 0,-1.2 0.3,-2.2 0.7,-3.2 0.5,-0.9 1.1,-1.7 1.9,-2.2 0.8,-0.5 1.8,-0.8 2.8,-0.8 1.5,0 2.7,0.5 3.5,1.5 0.8,1 1.3,2.4 1.3,4.1 z m -1.9,-1.6 c 0,-1.1 -0.3,-1.9 -0.8,-2.5 -0.5,-0.6 -1.2,-0.9 -2.1,-0.9 -0.8,0 -1.6,0.3 -2.2,0.9 -0.6,0.6 -1,1.4 -1.2,2.4 z"
   class="st18" />

</g>
<g
   transform="translate(-184.8,-722.7)"
   id="g1040">
	<path
   inkscape:connector-curvature="0"
   id="path1032"
   d="m 436.9,1039.2 c 0,1 0.1,1.9 0.3,2.5 0.2,0.6 0.5,1.3 0.9,2 0.1,0.2 0.2,0.4 0.2,0.6 0,0.3 -0.2,0.6 -0.5,0.8 l -1.8,1.2 c -0.3,0.2 -0.5,0.3 -0.7,0.3 -0.3,0 -0.6,-0.1 -0.8,-0.4 -0.4,-0.4 -0.7,-0.9 -1,-1.3 -0.3,-0.5 -0.6,-1 -0.9,-1.7 -2.2,2.6 -4.9,3.9 -8.2,3.9 -2.4,0 -4.2,-0.7 -5.6,-2 -1.4,-1.3 -2.1,-3.1 -2.1,-5.4 0,-2.4 0.8,-4.3 2.6,-5.8 1.7,-1.5 4,-2.2 6.9,-2.2 1,0 1.9,0.1 3,0.2 1.1,0.1 2.1,0.4 3.2,0.6 v -2 c 0,-2.1 -0.4,-3.6 -1.3,-4.5 -0.9,-0.9 -2.4,-1.3 -4.6,-1.3 -1,0 -2,0.1 -3,0.4 -1,0.3 -2,0.6 -3,1 -0.4,0.2 -0.8,0.3 -1,0.4 -0.2,0.1 -0.3,0.1 -0.4,0.1 -0.4,0 -0.6,-0.3 -0.6,-0.9 v -1.4 c 0,-0.4 0.1,-0.8 0.2,-1 0.1,-0.2 0.4,-0.4 0.8,-0.6 1,-0.5 2.2,-0.9 3.5,-1.3 1.4,-0.4 2.8,-0.5 4.4,-0.5 3.3,0 5.8,0.8 7.4,2.3 1.5,1.5 2.3,3.8 2.3,6.9 z m -11.4,4.3 c 0.9,0 1.9,-0.2 2.9,-0.5 1,-0.3 1.9,-1 2.7,-1.8 0.4,-0.5 0.8,-1.1 1,-1.8 0.2,-0.7 0.3,-1.5 0.3,-2.4 v -1.2 c -0.8,-0.2 -1.7,-0.4 -2.6,-0.5 -0.9,-0.1 -1.8,-0.2 -2.6,-0.2 -1.9,0 -3.3,0.4 -4.2,1.1 -0.9,0.8 -1.4,1.8 -1.4,3.2 0,1.3 0.3,2.3 1,3 0.6,0.8 1.6,1.1 2.9,1.1 z m 22.5,3 c -0.5,0 -0.8,-0.1 -1.1,-0.3 -0.2,-0.2 -0.4,-0.6 -0.6,-1.1 l -6.6,-21.7 c -0.2,-0.6 -0.3,-0.9 -0.3,-1.1 0,-0.4 0.2,-0.7 0.7,-0.7 h 2.7 c 0.5,0 0.9,0.1 1.1,0.3 0.2,0.2 0.4,0.6 0.6,1.1 l 4.7,18.6 4.4,-18.6 c 0.1,-0.6 0.3,-0.9 0.5,-1.1 0.2,-0.2 0.6,-0.3 1.1,-0.3 h 2.2 c 0.5,0 0.9,0.1 1.1,0.3 0.2,0.2 0.4,0.6 0.5,1.1 l 4.4,18.8 4.9,-18.8 c 0.2,-0.6 0.4,-0.9 0.6,-1.1 0.2,-0.2 0.6,-0.3 1.1,-0.3 h 2.6 c 0.4,0 0.7,0.2 0.7,0.7 0,0.1 0,0.3 -0.1,0.4 0,0.2 -0.1,0.4 -0.2,0.7 l -6.8,21.7 c -0.2,0.6 -0.4,0.9 -0.6,1.1 -0.2,0.2 -0.6,0.3 -1.1,0.3 h -2.4 c -0.5,0 -0.9,-0.1 -1.1,-0.3 -0.2,-0.2 -0.4,-0.6 -0.5,-1.1 l -4.3,-18.1 -4.3,18.1 c -0.1,0.6 -0.3,0.9 -0.5,1.1 -0.2,0.2 -0.6,0.3 -1.1,0.3 z m 36.1,0.8 c -1.5,0 -2.9,-0.2 -4.3,-0.5 -1.4,-0.3 -2.5,-0.7 -3.2,-1.1 -0.4,-0.3 -0.8,-0.5 -0.9,-0.8 -0.1,-0.3 -0.2,-0.5 -0.2,-0.8 v -1.4 c 0,-0.6 0.2,-0.9 0.6,-0.9 0.2,0 0.3,0 0.5,0.1 0.2,0.1 0.4,0.2 0.7,0.3 1,0.4 2,0.8 3.1,1 1.1,0.2 2.2,0.3 3.3,0.3 1.8,0 3.1,-0.3 4.1,-0.9 1,-0.6 1.5,-1.5 1.5,-2.7 0,-0.8 -0.3,-1.4 -0.8,-2 -0.5,-0.5 -1.5,-1 -2.8,-1.5 l -4.1,-1.3 c -2,-0.6 -3.6,-1.6 -4.5,-2.9 -0.9,-1.2 -1.4,-2.6 -1.4,-4.1 0,-1.2 0.3,-2.2 0.8,-3.1 0.5,-0.9 1.2,-1.7 2,-2.3 0.8,-0.6 1.8,-1.1 2.9,-1.5 1.1,-0.3 2.3,-0.5 3.5,-0.5 0.6,0 1.3,0 1.9,0.1 0.6,0.1 1.2,0.2 1.8,0.3 0.6,0.1 1.1,0.3 1.6,0.4 0.5,0.2 0.9,0.3 1.2,0.5 0.4,0.2 0.7,0.4 0.8,0.7 0.2,0.2 0.3,0.5 0.3,0.9 v 1.3 c 0,0.6 -0.2,0.9 -0.6,0.9 -0.2,0 -0.6,-0.1 -1.1,-0.3 -1.6,-0.7 -3.4,-1.1 -5.4,-1.1 -1.6,0 -2.9,0.3 -3.7,0.8 -0.9,0.5 -1.3,1.3 -1.3,2.5 0,0.8 0.3,1.5 0.8,2 0.6,0.5 1.6,1.1 3.1,1.5 l 4,1.3 c 2,0.6 3.5,1.5 4.3,2.7 0.9,1.2 1.3,2.5 1.3,3.9 0,1.2 -0.3,2.3 -0.7,3.3 -0.5,1 -1.2,1.8 -2,2.5 -0.9,0.7 -1.9,1.2 -3.1,1.6 -1.3,0.6 -2.6,0.8 -4,0.8 z"
   class="st19" />

	<g
   id="g1038">
		<path
   inkscape:connector-curvature="0"
   id="path1034"
   d="m 489.4,1060.9 c -9.2,6.8 -22.6,10.4 -34.2,10.4 -16.2,0 -30.7,-6 -41.7,-15.9 -0.9,-0.8 -0.1,-1.9 1,-1.2 11.9,6.9 26.6,11.1 41.7,11.1 10.2,0 21.5,-2.1 31.8,-6.5 1.6,-0.7 2.9,1 1.4,2.1 z"
   class="st20" />

		<path
   inkscape:connector-curvature="0"
   id="path1036"
   d="m 493.2,1056.5 c -1.2,-1.5 -7.8,-0.7 -10.8,-0.4 -0.9,0.1 -1,-0.7 -0.2,-1.3 5.3,-3.7 13.9,-2.6 15,-1.4 1,1.3 -0.3,9.9 -5.2,14.1 -0.8,0.6 -1.5,0.3 -1.2,-0.5 1.1,-2.7 3.6,-9 2.4,-10.5 z"
   class="st20" />

	</g>

</g>
<g
   transform="translate(-184.8,-722.7)"
   id="g1050">
	<path
   inkscape:connector-curvature="0"
   id="path1042"
   d="m 727.5,1040.7 -17.7,-30.9 c -0.9,-1.5 -2.5,-2.4 -4.2,-2.4 h -35.4 c -1.7,0 -3.4,0.9 -4.2,2.4 l -17.7,30.9 c -0.9,1.5 -0.9,3.3 0,4.9 l 17.7,30.9 c 0.9,1.5 2.5,2.4 4.2,2.4 h 35.4 c 1.7,0 3.4,-0.9 4.2,-2.4 l 17.7,-30.9 c 0.9,-1.6 0.9,-3.4 0,-4.9 z m -39.7,13.2 c -5.9,0 -10.8,-4.8 -10.8,-10.8 0,-6 4.8,-10.8 10.8,-10.8 6,0 10.8,4.8 10.8,10.8 0,6 -4.8,10.8 -10.8,10.8 z"
   class="st21" />

	<path
   inkscape:connector-curvature="0"
   id="path1044"
   d="m 709.8,1009.8 c -0.9,-1.5 -2.5,-2.4 -4.2,-2.4 h -35.4 c -1.7,0 -3.4,0.9 -4.2,2.4 l -11,19.1 8.1,14.2 12.4,-21.6 h 24.8 16.3 z"
   class="st22" />

	<path
   inkscape:connector-curvature="0"
   id="path1046"
   d="m 648,1040.8 c -0.9,1.5 -0.9,3.4 0,4.9 l 17.7,30.7 c 0.9,1.5 2.5,2.4 4.2,2.4 l 22.1,-0.1 8.2,-14.1 -24.9,0.1 -12.4,-21.5 -8.1,-14.1 z"
   class="st23" />

	<path
   inkscape:connector-curvature="0"
   id="path1048"
   d="m 705.7,1078.8 c 1.7,0 3.4,-0.9 4.2,-2.4 l 17.7,-30.7 c 0.9,-1.5 0.9,-3.4 0,-4.9 l -11.1,-19.1 h -16.3 l 12.5,21.5 -12.4,21.5 -8.1,14.1 z"
   class="st24" />

</g>
<g
   transform="translate(-184.8,-722.7)"
   id="g1370">
	<path
   inkscape:connector-curvature="0"
   id="path1284"
   d="m 206.8,818.9 c 0,0.7 -0.1,1.4 -0.3,2 -0.2,0.6 -0.5,1.1 -0.8,1.5 -0.4,0.4 -0.8,0.8 -1.3,1 -0.5,0.2 -1.1,0.4 -1.8,0.4 -0.5,0 -1,-0.1 -1.4,-0.2 -0.4,-0.1 -0.7,-0.3 -0.9,-0.4 v 3.7 h -1.7 v -12.4 c 0.4,-0.1 0.9,-0.2 1.5,-0.3 0.6,-0.1 1.3,-0.2 2.1,-0.2 0.7,0 1.4,0.1 1.9,0.3 0.6,0.2 1.1,0.6 1.5,1 0.4,0.4 0.7,0.9 0.9,1.5 0.2,0.7 0.3,1.4 0.3,2.1 z m -1.8,0 c 0,-1.1 -0.3,-1.9 -0.8,-2.5 -0.5,-0.6 -1.3,-0.9 -2.2,-0.9 -0.5,0 -0.9,0 -1.2,0.1 -0.3,0.1 -0.5,0.1 -0.7,0.1 v 5.9 c 0.2,0.2 0.5,0.3 0.9,0.5 0.4,0.2 0.8,0.2 1.3,0.2 0.5,0 0.9,-0.1 1.2,-0.3 0.3,-0.2 0.6,-0.4 0.8,-0.7 0.2,-0.3 0.4,-0.7 0.5,-1.1 0.2,-0.3 0.2,-0.8 0.2,-1.3 z"
   class="st9" />

	<path
   inkscape:connector-curvature="0"
   id="path1286"
   d="m 216.6,823.3 c -0.4,0.1 -0.9,0.2 -1.5,0.3 -0.6,0.1 -1.4,0.2 -2.2,0.2 -0.7,0 -1.3,-0.1 -1.8,-0.3 -0.5,-0.2 -0.9,-0.5 -1.2,-0.9 -0.3,-0.4 -0.5,-0.8 -0.6,-1.4 -0.1,-0.5 -0.2,-1.1 -0.2,-1.7 v -5.3 h 1.7 v 4.9 c 0,1.1 0.2,2 0.5,2.4 0.3,0.4 1,0.7 1.8,0.7 0.2,0 0.4,0 0.6,0 0.2,0 0.4,0 0.5,0 0.1,0 0.3,0 0.5,-0.1 0.1,0 0.2,0 0.3,-0.1 v -7.9 h 1.7 v 9.2 z"
   class="st9" />

	<path
   inkscape:connector-curvature="0"
   id="path1288"
   d="m 222.3,823.8 c -1,0 -1.8,-0.2 -2.2,-0.7 -0.4,-0.4 -0.6,-1.1 -0.6,-2 v -11.2 l 1.7,-0.3 v 11.2 c 0,0.3 0,0.5 0.1,0.7 0,0.2 0.1,0.3 0.2,0.4 0.1,0.1 0.3,0.2 0.4,0.2 0.2,0.1 0.4,0.1 0.7,0.1 z"
   class="st9" />

	<path
   inkscape:connector-curvature="0"
   id="path1290"
   d="m 231.8,823.3 c -0.4,0.1 -0.9,0.2 -1.5,0.3 -0.6,0.1 -1.4,0.2 -2.2,0.2 -0.7,0 -1.3,-0.1 -1.8,-0.3 -0.5,-0.2 -0.9,-0.5 -1.2,-0.9 -0.3,-0.4 -0.5,-0.8 -0.6,-1.4 -0.1,-0.5 -0.2,-1.1 -0.2,-1.7 v -5.3 h 1.7 v 4.9 c 0,1.1 0.2,2 0.5,2.4 0.3,0.4 1,0.7 1.8,0.7 0.2,0 0.4,0 0.6,0 0.2,0 0.4,0 0.5,0 0.1,0 0.3,0 0.5,-0.1 0.1,0 0.2,0 0.3,-0.1 v -7.9 h 1.7 v 9.2 z"
   class="st9" />

	<path
   inkscape:connector-curvature="0"
   id="path1292"
   d="m 234.7,814.5 c 0.4,-0.1 0.9,-0.2 1.5,-0.3 0.6,-0.1 1.4,-0.2 2.2,-0.2 0.6,0 1.1,0.1 1.5,0.2 0.4,0.2 0.8,0.4 1,0.7 0.1,-0.1 0.2,-0.1 0.4,-0.3 0.2,-0.1 0.4,-0.2 0.7,-0.3 0.3,-0.1 0.6,-0.2 0.9,-0.3 0.3,-0.1 0.7,-0.1 1,-0.1 0.7,0 1.3,0.1 1.8,0.3 0.5,0.2 0.8,0.5 1.1,0.9 0.3,0.4 0.4,0.8 0.5,1.4 0.1,0.5 0.1,1.1 0.1,1.7 v 5.3 h -1.7 v -4.9 c 0,-0.6 0,-1 -0.1,-1.4 -0.1,-0.4 -0.2,-0.7 -0.3,-1 -0.2,-0.3 -0.4,-0.5 -0.6,-0.6 -0.3,-0.1 -0.6,-0.2 -1,-0.2 -0.6,0 -1,0.1 -1.4,0.2 -0.4,0.1 -0.6,0.3 -0.7,0.4 0.1,0.3 0.2,0.7 0.2,1 0,0.4 0.1,0.8 0.1,1.2 v 5.3 h -1.7 v -4.9 c 0,-0.6 0,-1 -0.1,-1.4 -0.1,-0.4 -0.2,-0.7 -0.3,-1 -0.1,-0.3 -0.4,-0.5 -0.6,-0.6 -0.3,-0.1 -0.6,-0.2 -1,-0.2 -0.2,0 -0.3,0 -0.5,0 -0.2,0 -0.4,0 -0.5,0 -0.2,0 -0.3,0 -0.5,0.1 -0.1,0 -0.2,0 -0.3,0.1 v 7.9 h -1.7 z"
   class="st9" />

	<path
   inkscape:connector-curvature="0"
   id="path1294"
   d="m 251,812.5 c -0.3,0 -0.6,-0.1 -0.8,-0.3 -0.2,-0.2 -0.3,-0.5 -0.3,-0.8 0,-0.3 0.1,-0.6 0.3,-0.8 0.2,-0.2 0.5,-0.3 0.8,-0.3 0.3,0 0.6,0.1 0.8,0.3 0.2,0.2 0.3,0.5 0.3,0.8 0,0.3 -0.1,0.6 -0.3,0.8 -0.2,0.2 -0.5,0.3 -0.8,0.3 z m 0.9,11.1 h -1.7 v -9.4 h 1.7 z"
   class="st9" />

	<path
   inkscape:connector-curvature="0"
   id="path1296"
   d="m 254.6,826.9 h -1.7 l 6.1,-17.4 h 1.7 z"
   class="st9" />

	<path
   inkscape:connector-curvature="0"
   id="path1298"
   d="m 264.7,814 c 0.7,0 1.2,0.1 1.7,0.3 0.5,0.2 0.8,0.4 1.1,0.7 0.3,0.3 0.5,0.7 0.6,1.1 0.1,0.4 0.2,0.9 0.2,1.4 v 5.8 c -0.1,0 -0.3,0.1 -0.6,0.1 -0.3,0 -0.5,0.1 -0.9,0.1 -0.3,0 -0.7,0.1 -1.1,0.1 -0.4,0 -0.8,0 -1.1,0 -0.5,0 -1,-0.1 -1.5,-0.2 -0.4,-0.1 -0.8,-0.3 -1.2,-0.5 -0.3,-0.2 -0.6,-0.5 -0.8,-0.9 -0.2,-0.4 -0.3,-0.8 -0.3,-1.4 0,-0.5 0.1,-1 0.3,-1.3 0.2,-0.4 0.5,-0.7 0.9,-0.9 0.4,-0.2 0.8,-0.4 1.3,-0.5 0.5,-0.1 1,-0.2 1.5,-0.2 0.2,0 0.3,0 0.5,0 0.2,0 0.4,0 0.5,0.1 0.2,0 0.3,0.1 0.4,0.1 0.1,0 0.2,0 0.3,0.1 v -0.5 c 0,-0.3 0,-0.5 -0.1,-0.8 -0.1,-0.3 -0.2,-0.5 -0.3,-0.7 -0.1,-0.2 -0.4,-0.4 -0.6,-0.5 -0.3,-0.1 -0.6,-0.2 -1.1,-0.2 -0.6,0 -1,0 -1.4,0.1 -0.4,0.1 -0.7,0.2 -0.9,0.2 l -0.2,-1.4 c 0.2,-0.1 0.6,-0.2 1.1,-0.3 0.5,-0.1 1.1,0.1 1.7,0.1 z m 0.2,8.4 c 0.4,0 0.7,0 1.1,0 0.3,0 0.6,-0.1 0.8,-0.1 v -2.8 c -0.1,-0.1 -0.3,-0.1 -0.6,-0.2 -0.3,0 -0.6,-0.1 -1,-0.1 -0.3,0 -0.5,0 -0.8,0.1 -0.3,0 -0.5,0.1 -0.8,0.2 -0.2,0.1 -0.4,0.3 -0.6,0.5 -0.2,0.2 -0.2,0.5 -0.2,0.8 0,0.6 0.2,1 0.6,1.3 0.3,0.2 0.8,0.3 1.5,0.3 z"
   class="st9" />

	<path
   inkscape:connector-curvature="0"
   id="path1300"
   d="m 278.5,823.6 c -0.3,-0.9 -0.7,-1.9 -1.1,-3 -0.4,-1.1 -0.7,-2.3 -1,-3.5 -0.3,1.2 -0.7,2.4 -1,3.5 -0.4,1.1 -0.7,2.1 -1.1,3 h -1.5 c -0.6,-1.2 -1.1,-2.6 -1.6,-4.2 -0.5,-1.6 -1,-3.3 -1.5,-5.1 h 1.8 c 0.1,0.6 0.3,1.2 0.4,1.8 0.1,0.6 0.3,1.3 0.5,2 0.2,0.7 0.4,1.3 0.6,1.9 0.2,0.6 0.4,1.1 0.6,1.6 0.2,-0.6 0.4,-1.2 0.6,-1.8 0.2,-0.6 0.4,-1.3 0.6,-1.9 0.2,-0.6 0.4,-1.3 0.5,-1.9 0.2,-0.6 0.3,-1.2 0.4,-1.7 h 1.4 c 0.1,0.5 0.2,1.1 0.4,1.7 0.2,0.6 0.3,1.2 0.5,1.9 0.2,0.6 0.4,1.3 0.6,1.9 0.2,0.6 0.4,1.2 0.6,1.8 0.2,-0.5 0.4,-1 0.6,-1.6 0.2,-0.6 0.4,-1.2 0.6,-1.9 0.2,-0.7 0.4,-1.3 0.5,-2 0.1,-0.7 0.3,-1.3 0.4,-1.8 h 1.7 c -0.5,1.8 -1,3.5 -1.5,5.1 -0.5,1.6 -1.1,3 -1.6,4.2 z"
   class="st9" />

	<path
   inkscape:connector-curvature="0"
   id="path1302"
   d="m 287,822.4 c 0.7,0 1.2,-0.1 1.5,-0.3 0.3,-0.2 0.5,-0.5 0.5,-0.9 0,-0.4 -0.2,-0.7 -0.5,-1 -0.3,-0.2 -0.9,-0.5 -1.6,-0.8 -0.4,-0.1 -0.7,-0.3 -1,-0.4 -0.3,-0.1 -0.6,-0.3 -0.9,-0.5 -0.2,-0.2 -0.4,-0.5 -0.6,-0.7 -0.1,-0.3 -0.2,-0.6 -0.2,-1.1 0,-0.8 0.3,-1.5 0.9,-2 0.6,-0.5 1.4,-0.7 2.5,-0.7 0.3,0 0.5,0 0.8,0 0.3,0 0.5,0.1 0.7,0.1 0.2,0 0.4,0.1 0.6,0.1 0.2,0 0.3,0.1 0.4,0.1 l -0.3,1.4 c -0.2,-0.1 -0.5,-0.2 -0.8,-0.3 -0.4,-0.1 -0.8,-0.2 -1.4,-0.2 -0.5,0 -0.9,0.1 -1.2,0.3 -0.3,0.2 -0.5,0.5 -0.5,0.9 0,0.2 0,0.4 0.1,0.5 0.1,0.2 0.2,0.3 0.4,0.4 0.2,0.1 0.4,0.2 0.6,0.4 0.2,0.1 0.5,0.2 0.9,0.3 0.4,0.2 0.8,0.3 1.2,0.5 0.4,0.2 0.6,0.4 0.9,0.6 0.2,0.2 0.4,0.5 0.6,0.8 0.1,0.3 0.2,0.7 0.2,1.1 0,0.9 -0.3,1.5 -1,2 -0.6,0.4 -1.6,0.7 -2.7,0.7 -0.8,0 -1.5,-0.1 -1.9,-0.2 -0.5,-0.1 -0.8,-0.2 -1,-0.3 l 0.3,-1.4 c 0.2,0.1 0.5,0.2 0.9,0.3 0.4,0.2 0.9,0.3 1.6,0.3 z"
   class="st9" />

	<path
   inkscape:connector-curvature="0"
   id="path1304"
   d="m 197.6,848.9 c 0,0.7 -0.1,1.4 -0.3,2 -0.2,0.6 -0.5,1.1 -0.8,1.5 -0.4,0.4 -0.8,0.8 -1.3,1 -0.5,0.2 -1.1,0.4 -1.8,0.4 -0.5,0 -1,-0.1 -1.4,-0.2 -0.4,-0.1 -0.7,-0.3 -0.9,-0.4 v 3.7 h -1.7 v -12.4 c 0.4,-0.1 0.9,-0.2 1.5,-0.3 0.6,-0.1 1.3,-0.2 2.1,-0.2 0.7,0 1.4,0.1 1.9,0.3 0.6,0.2 1.1,0.6 1.5,1 0.4,0.4 0.7,0.9 0.9,1.5 0.2,0.7 0.3,1.4 0.3,2.1 z m -1.8,0 c 0,-1.1 -0.3,-1.9 -0.8,-2.5 -0.5,-0.6 -1.3,-0.9 -2.2,-0.9 -0.5,0 -0.9,0 -1.2,0.1 -0.3,0.1 -0.5,0.1 -0.7,0.1 v 5.9 c 0.2,0.2 0.5,0.3 0.9,0.5 0.4,0.2 0.8,0.2 1.3,0.2 0.5,0 0.9,-0.1 1.2,-0.3 0.3,-0.2 0.6,-0.4 0.8,-0.7 0.2,-0.3 0.4,-0.7 0.5,-1.1 0.2,-0.3 0.2,-0.8 0.2,-1.3 z"
   class="st9" />

	<path
   inkscape:connector-curvature="0"
   id="path1306"
   d="m 207.4,853.3 c -0.4,0.1 -0.9,0.2 -1.5,0.3 -0.6,0.1 -1.4,0.2 -2.2,0.2 -0.7,0 -1.3,-0.1 -1.8,-0.3 -0.5,-0.2 -0.9,-0.5 -1.2,-0.9 -0.3,-0.4 -0.5,-0.8 -0.6,-1.4 -0.1,-0.5 -0.2,-1.1 -0.2,-1.7 v -5.3 h 1.7 v 4.9 c 0,1.1 0.2,2 0.5,2.4 0.3,0.4 1,0.7 1.8,0.7 0.2,0 0.4,0 0.6,0 0.2,0 0.4,0 0.5,0 0.1,0 0.3,0 0.5,-0.1 0.1,0 0.2,0 0.3,-0.1 v -7.9 h 1.7 v 9.2 z"
   class="st9" />

	<path
   inkscape:connector-curvature="0"
   id="path1308"
   d="m 213.1,853.8 c -1,0 -1.8,-0.2 -2.2,-0.7 -0.4,-0.4 -0.6,-1.1 -0.6,-2 v -11.2 l 1.7,-0.3 v 11.2 c 0,0.3 0,0.5 0.1,0.7 0,0.2 0.1,0.3 0.2,0.4 0.1,0.1 0.3,0.2 0.4,0.2 0.2,0.1 0.4,0.1 0.7,0.1 z"
   class="st9" />

	<path
   inkscape:connector-curvature="0"
   id="path1310"
   d="m 222.6,853.3 c -0.4,0.1 -0.9,0.2 -1.5,0.3 -0.6,0.1 -1.4,0.2 -2.2,0.2 -0.7,0 -1.3,-0.1 -1.8,-0.3 -0.5,-0.2 -0.9,-0.5 -1.2,-0.9 -0.3,-0.4 -0.5,-0.8 -0.6,-1.4 -0.1,-0.5 -0.2,-1.1 -0.2,-1.7 v -5.3 h 1.7 v 4.9 c 0,1.1 0.2,2 0.5,2.4 0.3,0.4 1,0.7 1.8,0.7 0.2,0 0.4,0 0.6,0 0.2,0 0.4,0 0.5,0 0.1,0 0.3,0 0.5,-0.1 0.1,0 0.2,0 0.3,-0.1 v -7.9 h 1.7 v 9.2 z"
   class="st9" />

	<path
   inkscape:connector-curvature="0"
   id="path1312"
   d="m 225.5,844.5 c 0.4,-0.1 0.9,-0.2 1.5,-0.3 0.6,-0.1 1.4,-0.2 2.2,-0.2 0.6,0 1.1,0.1 1.5,0.2 0.4,0.2 0.8,0.4 1,0.7 0.1,-0.1 0.2,-0.1 0.4,-0.3 0.2,-0.1 0.4,-0.2 0.7,-0.3 0.3,-0.1 0.6,-0.2 0.9,-0.3 0.3,-0.1 0.7,-0.1 1,-0.1 0.7,0 1.3,0.1 1.8,0.3 0.5,0.2 0.8,0.5 1.1,0.9 0.3,0.4 0.4,0.8 0.5,1.4 0.1,0.5 0.1,1.1 0.1,1.7 v 5.3 h -1.7 v -4.9 c 0,-0.6 0,-1 -0.1,-1.4 -0.1,-0.4 -0.2,-0.7 -0.3,-1 -0.2,-0.3 -0.4,-0.5 -0.6,-0.6 -0.3,-0.1 -0.6,-0.2 -1,-0.2 -0.6,0 -1,0.1 -1.4,0.2 -0.4,0.1 -0.6,0.3 -0.7,0.4 0.1,0.3 0.2,0.7 0.2,1 0,0.4 0.1,0.8 0.1,1.2 v 5.3 H 231 v -4.9 c 0,-0.6 0,-1 -0.1,-1.4 -0.1,-0.4 -0.2,-0.7 -0.3,-1 -0.1,-0.3 -0.4,-0.5 -0.6,-0.6 -0.3,-0.1 -0.6,-0.2 -1,-0.2 -0.2,0 -0.3,0 -0.5,0 -0.2,0 -0.4,0 -0.5,0 -0.2,0 -0.3,0 -0.5,0.1 -0.1,0 -0.2,0 -0.3,0.1 v 7.9 h -1.7 z"
   class="st9" />

	<path
   inkscape:connector-curvature="0"
   id="path1314"
   d="m 241.9,842.5 c -0.3,0 -0.6,-0.1 -0.8,-0.3 -0.2,-0.2 -0.3,-0.5 -0.3,-0.8 0,-0.3 0.1,-0.6 0.3,-0.8 0.2,-0.2 0.5,-0.3 0.8,-0.3 0.3,0 0.6,0.1 0.8,0.3 0.2,0.2 0.3,0.5 0.3,0.8 0,0.3 -0.1,0.6 -0.3,0.8 -0.2,0.2 -0.5,0.3 -0.8,0.3 z m 0.8,11.1 H 241 v -9.4 h 1.7 z"
   class="st9" />

	<path
   inkscape:connector-curvature="0"
   id="path1316"
   d="m 245.4,856.9 h -1.7 l 6.1,-17.4 h 1.7 z"
   class="st9" />

	<path
   inkscape:connector-curvature="0"
   id="path1318"
   d="m 255.5,844 c 0.7,0 1.2,0.1 1.7,0.3 0.5,0.2 0.8,0.4 1.1,0.7 0.3,0.3 0.5,0.7 0.6,1.1 0.1,0.4 0.2,0.9 0.2,1.4 v 5.8 c -0.1,0 -0.3,0.1 -0.6,0.1 -0.3,0 -0.5,0.1 -0.9,0.1 -0.3,0 -0.7,0.1 -1.1,0.1 -0.4,0 -0.8,0 -1.1,0 -0.5,0 -1,-0.1 -1.5,-0.2 -0.4,-0.1 -0.8,-0.3 -1.2,-0.5 -0.3,-0.2 -0.6,-0.5 -0.8,-0.9 -0.2,-0.4 -0.3,-0.8 -0.3,-1.4 0,-0.5 0.1,-1 0.3,-1.3 0.2,-0.4 0.5,-0.7 0.9,-0.9 0.4,-0.2 0.8,-0.4 1.3,-0.5 0.5,-0.1 1,-0.2 1.5,-0.2 0.2,0 0.3,0 0.5,0 0.2,0 0.4,0 0.5,0.1 0.2,0 0.3,0.1 0.4,0.1 0.1,0 0.2,0 0.3,0.1 v -0.5 c 0,-0.3 0,-0.5 -0.1,-0.8 -0.1,-0.3 -0.2,-0.5 -0.3,-0.7 -0.1,-0.2 -0.4,-0.4 -0.6,-0.5 -0.3,-0.1 -0.6,-0.2 -1.1,-0.2 -0.6,0 -1,0 -1.4,0.1 -0.4,0.1 -0.7,0.2 -0.9,0.2 l -0.2,-1.4 c 0.2,-0.1 0.6,-0.2 1.1,-0.3 0.5,-0.1 1.1,0.1 1.7,0.1 z m 0.2,8.4 c 0.4,0 0.7,0 1.1,0 0.3,0 0.6,-0.1 0.8,-0.1 v -2.8 c -0.1,-0.1 -0.3,-0.1 -0.6,-0.2 -0.3,0 -0.6,-0.1 -1,-0.1 -0.3,0 -0.5,0 -0.8,0.1 -0.3,0 -0.5,0.1 -0.8,0.2 -0.2,0.1 -0.4,0.3 -0.6,0.5 -0.2,0.2 -0.2,0.5 -0.2,0.8 0,0.6 0.2,1 0.6,1.3 0.3,0.2 0.8,0.3 1.5,0.3 z"
   class="st9" />

	<path
   inkscape:connector-curvature="0"
   id="path1320"
   d="m 269.3,853.6 c -0.3,-0.9 -0.7,-1.9 -1.1,-3 -0.4,-1.1 -0.7,-2.3 -1,-3.5 -0.3,1.2 -0.7,2.4 -1,3.5 -0.4,1.1 -0.7,2.1 -1.1,3 h -1.5 c -0.6,-1.2 -1.1,-2.6 -1.6,-4.2 -0.5,-1.6 -1,-3.3 -1.5,-5.1 h 1.8 c 0.1,0.6 0.3,1.2 0.4,1.8 0.1,0.6 0.3,1.3 0.5,2 0.2,0.7 0.4,1.3 0.6,1.9 0.2,0.6 0.4,1.1 0.6,1.6 0.2,-0.6 0.4,-1.2 0.6,-1.8 0.2,-0.6 0.4,-1.3 0.6,-1.9 0.2,-0.6 0.4,-1.3 0.5,-1.9 0.2,-0.6 0.3,-1.2 0.4,-1.7 h 1.4 c 0.1,0.5 0.2,1.1 0.4,1.7 0.2,0.6 0.3,1.2 0.5,1.9 0.2,0.6 0.4,1.3 0.6,1.9 0.2,0.6 0.4,1.2 0.6,1.8 0.2,-0.5 0.4,-1 0.6,-1.6 0.2,-0.6 0.4,-1.2 0.6,-1.9 0.2,-0.7 0.4,-1.3 0.5,-2 0.1,-0.7 0.3,-1.3 0.4,-1.8 h 1.7 c -0.5,1.8 -1,3.5 -1.5,5.1 -0.5,1.6 -1.1,3 -1.6,4.2 z"
   class="st9" />

	<path
   inkscape:connector-curvature="0"
   id="path1322"
   d="m 277.8,852.4 c 0.7,0 1.2,-0.1 1.5,-0.3 0.3,-0.2 0.5,-0.5 0.5,-0.9 0,-0.4 -0.2,-0.7 -0.5,-1 -0.3,-0.2 -0.9,-0.5 -1.6,-0.8 -0.4,-0.1 -0.7,-0.3 -1,-0.4 -0.3,-0.1 -0.6,-0.3 -0.9,-0.5 -0.2,-0.2 -0.4,-0.5 -0.6,-0.7 -0.1,-0.3 -0.2,-0.6 -0.2,-1.1 0,-0.8 0.3,-1.5 0.9,-2 0.6,-0.5 1.4,-0.7 2.5,-0.7 0.3,0 0.5,0 0.8,0 0.3,0 0.5,0.1 0.7,0.1 0.2,0 0.4,0.1 0.6,0.1 0.2,0 0.3,0.1 0.4,0.1 l -0.3,1.4 c -0.2,-0.1 -0.5,-0.2 -0.8,-0.3 -0.4,-0.1 -0.8,-0.2 -1.4,-0.2 -0.5,0 -0.9,0.1 -1.2,0.3 -0.3,0.2 -0.5,0.5 -0.5,0.9 0,0.2 0,0.4 0.1,0.5 0.1,0.2 0.2,0.3 0.4,0.4 0.2,0.1 0.4,0.2 0.6,0.4 0.2,0.1 0.5,0.2 0.9,0.3 0.4,0.2 0.8,0.3 1.2,0.5 0.4,0.2 0.6,0.4 0.9,0.6 0.2,0.2 0.4,0.5 0.6,0.8 0.1,0.3 0.2,0.7 0.2,1.1 0,0.9 -0.3,1.5 -1,2 -0.6,0.4 -1.6,0.7 -2.7,0.7 -0.8,0 -1.5,-0.1 -1.9,-0.2 -0.5,-0.1 -0.8,-0.2 -1,-0.3 l 0.3,-1.4 c 0.2,0.1 0.5,0.2 0.9,0.3 0.4,0.2 0.9,0.3 1.6,0.3 z"
   class="st9" />

	<path
   inkscape:connector-curvature="0"
   id="path1324"
   d="m 289.3,853.6 c -0.1,-0.3 -0.3,-0.6 -0.5,-0.9 -0.2,-0.3 -0.4,-0.7 -0.6,-1 -0.2,-0.3 -0.5,-0.7 -0.7,-1 -0.2,-0.3 -0.5,-0.7 -0.7,-1 -0.2,0.3 -0.5,0.6 -0.7,1 -0.2,0.3 -0.5,0.7 -0.7,1 -0.2,0.3 -0.4,0.7 -0.6,1 -0.2,0.3 -0.4,0.6 -0.5,0.9 h -1.7 c 0.4,-0.8 0.9,-1.6 1.5,-2.5 0.6,-0.8 1.2,-1.7 1.7,-2.4 l -3.1,-4.4 h 1.9 l 2.2,3.3 2.2,-3.3 h 1.8 l -3,4.3 c 0.6,0.8 1.2,1.6 1.8,2.5 0.6,0.9 1.1,1.7 1.5,2.5 z"
   class="st9" />

	<path
   inkscape:connector-curvature="0"
   id="path1326"
   d="m 208.6,878.9 c 0,0.7 -0.1,1.4 -0.3,2 -0.2,0.6 -0.5,1.1 -0.8,1.5 -0.4,0.4 -0.8,0.8 -1.3,1 -0.5,0.2 -1.1,0.4 -1.8,0.4 -0.5,0 -1,-0.1 -1.4,-0.2 -0.4,-0.1 -0.7,-0.3 -0.9,-0.4 v 3.7 h -1.7 v -12.4 c 0.4,-0.1 0.9,-0.2 1.5,-0.3 0.6,-0.1 1.3,-0.2 2.1,-0.2 0.7,0 1.4,0.1 1.9,0.3 0.6,0.2 1.1,0.6 1.5,1 0.4,0.4 0.7,0.9 0.9,1.5 0.2,0.7 0.3,1.4 0.3,2.1 z m -1.7,0 c 0,-1.1 -0.3,-1.9 -0.8,-2.5 -0.5,-0.6 -1.3,-0.9 -2.2,-0.9 -0.5,0 -0.9,0 -1.2,0.1 -0.3,0.1 -0.5,0.1 -0.7,0.1 v 5.9 c 0.2,0.2 0.5,0.3 0.9,0.5 0.4,0.2 0.8,0.2 1.3,0.2 0.5,0 0.9,-0.1 1.2,-0.3 0.3,-0.2 0.6,-0.4 0.8,-0.7 0.2,-0.3 0.4,-0.7 0.5,-1.1 0.1,-0.3 0.2,-0.8 0.2,-1.3 z"
   class="st9" />

	<path
   inkscape:connector-curvature="0"
   id="path1328"
   d="m 218.4,883.3 c -0.4,0.1 -0.9,0.2 -1.5,0.3 -0.6,0.1 -1.4,0.2 -2.2,0.2 -0.7,0 -1.3,-0.1 -1.8,-0.3 -0.5,-0.2 -0.9,-0.5 -1.2,-0.9 -0.3,-0.4 -0.5,-0.8 -0.6,-1.4 -0.1,-0.5 -0.2,-1.1 -0.2,-1.7 v -5.3 h 1.7 v 4.9 c 0,1.1 0.2,2 0.5,2.4 0.3,0.4 1,0.7 1.8,0.7 0.2,0 0.4,0 0.6,0 0.2,0 0.4,0 0.5,0 0.1,0 0.3,0 0.5,-0.1 0.1,0 0.2,0 0.3,-0.1 v -7.9 h 1.7 v 9.2 z"
   class="st9" />

	<path
   inkscape:connector-curvature="0"
   id="path1330"
   d="m 224.1,883.8 c -1,0 -1.8,-0.2 -2.2,-0.7 -0.4,-0.4 -0.6,-1.1 -0.6,-2 v -11.2 l 1.7,-0.3 v 11.2 c 0,0.3 0,0.5 0.1,0.7 0,0.2 0.1,0.3 0.2,0.4 0.1,0.1 0.3,0.2 0.4,0.2 0.2,0.1 0.4,0.1 0.7,0.1 z"
   class="st9" />

	<path
   inkscape:connector-curvature="0"
   id="path1332"
   d="m 233.7,883.3 c -0.4,0.1 -0.9,0.2 -1.5,0.3 -0.6,0.1 -1.4,0.2 -2.2,0.2 -0.7,0 -1.3,-0.1 -1.8,-0.3 -0.5,-0.2 -0.9,-0.5 -1.2,-0.9 -0.3,-0.4 -0.5,-0.8 -0.6,-1.4 -0.1,-0.5 -0.2,-1.1 -0.2,-1.7 v -5.3 h 1.7 v 4.9 c 0,1.1 0.2,2 0.5,2.4 0.3,0.4 1,0.7 1.8,0.7 0.2,0 0.4,0 0.6,0 0.2,0 0.4,0 0.5,0 0.1,0 0.3,0 0.5,-0.1 0.1,0 0.2,0 0.3,-0.1 v -7.9 h 1.7 v 9.2 z"
   class="st9" />

	<path
   inkscape:connector-curvature="0"
   id="path1334"
   d="m 236.5,874.5 c 0.4,-0.1 0.9,-0.2 1.5,-0.3 0.6,-0.1 1.4,-0.2 2.2,-0.2 0.6,0 1.1,0.1 1.5,0.2 0.4,0.2 0.8,0.4 1,0.7 0.1,-0.1 0.2,-0.1 0.4,-0.3 0.2,-0.1 0.4,-0.2 0.7,-0.3 0.3,-0.1 0.6,-0.2 0.9,-0.3 0.3,-0.1 0.7,-0.1 1,-0.1 0.7,0 1.3,0.1 1.8,0.3 0.5,0.2 0.8,0.5 1.1,0.9 0.3,0.4 0.4,0.8 0.5,1.4 0.1,0.5 0.1,1.1 0.1,1.7 v 5.3 h -1.7 v -4.9 c 0,-0.6 0,-1 -0.1,-1.4 -0.1,-0.4 -0.2,-0.7 -0.3,-1 -0.2,-0.3 -0.4,-0.5 -0.6,-0.6 -0.3,-0.1 -0.6,-0.2 -1,-0.2 -0.6,0 -1,0.1 -1.4,0.2 -0.4,0.1 -0.6,0.3 -0.7,0.4 0.1,0.3 0.2,0.7 0.2,1 0,0.4 0.1,0.8 0.1,1.2 v 5.3 H 242 v -4.9 c 0,-0.6 0,-1 -0.1,-1.4 -0.1,-0.4 -0.2,-0.7 -0.3,-1 -0.1,-0.3 -0.4,-0.5 -0.6,-0.6 -0.3,-0.1 -0.6,-0.2 -1,-0.2 -0.2,0 -0.3,0 -0.5,0 -0.2,0 -0.4,0 -0.5,0 -0.2,0 -0.3,0 -0.5,0.1 -0.1,0 -0.2,0 -0.3,0.1 v 7.9 h -1.7 z"
   class="st9" />

	<path
   inkscape:connector-curvature="0"
   id="path1336"
   d="m 252.9,872.5 c -0.3,0 -0.6,-0.1 -0.8,-0.3 -0.2,-0.2 -0.3,-0.5 -0.3,-0.8 0,-0.3 0.1,-0.6 0.3,-0.8 0.2,-0.2 0.5,-0.3 0.8,-0.3 0.3,0 0.6,0.1 0.8,0.3 0.2,0.2 0.3,0.5 0.3,0.8 0,0.3 -0.1,0.6 -0.3,0.8 -0.2,0.2 -0.5,0.3 -0.8,0.3 z m 0.8,11.1 H 252 v -9.4 h 1.7 z"
   class="st9" />

	<path
   inkscape:connector-curvature="0"
   id="path1338"
   d="m 256.4,886.9 h -1.7 l 6.1,-17.4 h 1.7 z"
   class="st9" />

	<path
   inkscape:connector-curvature="0"
   id="path1340"
   d="m 269.4,882.7 c -0.1,0.1 -0.4,0.2 -0.8,0.4 -0.4,0.1 -0.9,0.2 -1.4,0.2 -0.6,0 -1.1,-0.1 -1.6,-0.3 -0.5,-0.2 -0.9,-0.5 -1.3,-0.8 -0.4,-0.4 -0.7,-0.8 -0.9,-1.4 -0.2,-0.6 -0.3,-1.2 -0.3,-2 0,-0.7 0.1,-1.3 0.3,-1.9 0.2,-0.6 0.5,-1.1 0.9,-1.5 0.4,-0.4 0.9,-0.7 1.4,-1 0.6,-0.2 1.2,-0.4 1.9,-0.4 0.8,0 1.5,0.1 2,0.2 0.5,0.1 1.1,0.2 1.5,0.3 v 8.4 c 0,1.4 -0.4,2.5 -1.1,3.1 -0.7,0.6 -1.9,1 -3.4,1 -0.6,0 -1.1,0 -1.7,-0.1 -0.5,-0.1 -1,-0.2 -1.4,-0.3 l 0.3,-1.5 c 0.3,0.1 0.7,0.2 1.2,0.4 0.5,0.1 1,0.2 1.5,0.2 1,0 1.7,-0.2 2.2,-0.6 0.4,-0.4 0.7,-1 0.7,-1.9 z m 0,-7 c -0.2,0 -0.4,-0.1 -0.7,-0.1 -0.3,0 -0.7,-0.1 -1.1,-0.1 -0.9,0 -1.6,0.3 -2.1,0.9 -0.5,0.6 -0.7,1.4 -0.7,2.3 0,0.5 0.1,1 0.2,1.4 0.1,0.4 0.3,0.7 0.6,1 0.2,0.3 0.5,0.4 0.8,0.6 0.3,0.1 0.6,0.2 0.9,0.2 0.4,0 0.9,-0.1 1.2,-0.2 0.3,-0.1 0.7,-0.3 0.9,-0.4 z"
   class="st9" />

	<path
   inkscape:connector-curvature="0"
   id="path1342"
   d="m 278,883.8 c -0.8,0 -1.4,-0.1 -2,-0.4 -0.6,-0.2 -1,-0.6 -1.4,-1 -0.4,-0.4 -0.7,-0.9 -0.9,-1.5 -0.2,-0.6 -0.3,-1.3 -0.3,-2 0,-0.7 0.1,-1.4 0.3,-2 0.2,-0.6 0.5,-1.1 0.9,-1.6 0.4,-0.4 0.9,-0.8 1.4,-1 0.6,-0.2 1.2,-0.4 1.9,-0.4 0.4,0 0.8,0 1.3,0.1 0.4,0.1 0.8,0.2 1.2,0.3 l -0.4,1.4 c -0.3,-0.1 -0.5,-0.2 -0.9,-0.3 -0.4,-0.1 -0.7,-0.1 -1.1,-0.1 -0.9,0 -1.7,0.3 -2.2,0.9 -0.5,0.6 -0.7,1.4 -0.7,2.6 0,0.5 0.1,1 0.2,1.4 0.1,0.4 0.3,0.8 0.5,1.1 0.2,0.3 0.6,0.5 0.9,0.7 0.4,0.2 0.9,0.2 1.4,0.2 0.4,0 0.8,0 1.2,-0.1 0.4,-0.1 0.6,-0.2 0.8,-0.3 l 0.2,1.4 c -0.1,0.1 -0.2,0.1 -0.4,0.2 -0.2,0.1 -0.4,0.1 -0.6,0.1 -0.2,0 -0.5,0.1 -0.7,0.1 -0.1,0.2 -0.4,0.2 -0.6,0.2 z"
   class="st9" />

	<path
   inkscape:connector-curvature="0"
   id="path1344"
   d="m 290.5,878.9 c 0,0.7 -0.1,1.4 -0.3,2 -0.2,0.6 -0.5,1.1 -0.8,1.5 -0.4,0.4 -0.8,0.8 -1.3,1 -0.5,0.2 -1.1,0.4 -1.8,0.4 -0.5,0 -1,-0.1 -1.4,-0.2 -0.4,-0.1 -0.7,-0.3 -0.9,-0.4 v 3.7 h -1.7 v -12.4 c 0.4,-0.1 0.9,-0.2 1.5,-0.3 0.6,-0.1 1.3,-0.2 2.1,-0.2 0.7,0 1.4,0.1 1.9,0.3 0.6,0.2 1.1,0.6 1.5,1 0.4,0.4 0.7,0.9 0.9,1.5 0.2,0.7 0.3,1.4 0.3,2.1 z m -1.7,0 c 0,-1.1 -0.3,-1.9 -0.8,-2.5 -0.5,-0.6 -1.3,-0.9 -2.2,-0.9 -0.5,0 -0.9,0 -1.2,0.1 -0.3,0.1 -0.5,0.1 -0.7,0.1 v 5.9 c 0.2,0.2 0.5,0.3 0.9,0.5 0.4,0.2 0.8,0.2 1.3,0.2 0.5,0 0.9,-0.1 1.2,-0.3 0.3,-0.2 0.6,-0.4 0.8,-0.7 0.2,-0.3 0.4,-0.7 0.5,-1.1 0.1,-0.3 0.2,-0.8 0.2,-1.3 z"
   class="st9" />

	<path
   inkscape:connector-curvature="0"
   id="path1346"
   d="m 193,908.9 c 0,0.7 -0.1,1.4 -0.3,2 -0.2,0.6 -0.5,1.1 -0.8,1.5 -0.4,0.4 -0.8,0.8 -1.3,1 -0.5,0.2 -1.1,0.4 -1.8,0.4 -0.5,0 -1,-0.1 -1.4,-0.2 -0.4,-0.1 -0.7,-0.3 -0.9,-0.4 v 3.7 h -1.7 v -12.4 c 0.4,-0.1 0.9,-0.2 1.5,-0.3 0.6,-0.1 1.3,-0.2 2.1,-0.2 0.7,0 1.4,0.1 1.9,0.3 0.6,0.2 1.1,0.6 1.5,1 0.4,0.4 0.7,0.9 0.9,1.5 0.2,0.7 0.3,1.4 0.3,2.1 z m -1.7,0 c 0,-1.1 -0.3,-1.9 -0.8,-2.5 -0.5,-0.6 -1.3,-0.9 -2.2,-0.9 -0.5,0 -0.9,0 -1.2,0.1 -0.3,0.1 -0.5,0.1 -0.7,0.1 v 5.9 c 0.2,0.2 0.5,0.3 0.9,0.5 0.4,0.2 0.8,0.2 1.3,0.2 0.5,0 0.9,-0.1 1.2,-0.3 0.3,-0.2 0.6,-0.4 0.8,-0.7 0.2,-0.3 0.4,-0.7 0.5,-1.1 0.1,-0.3 0.2,-0.8 0.2,-1.3 z"
   class="st9" />

	<path
   inkscape:connector-curvature="0"
   id="path1348"
   d="m 202.8,913.3 c -0.4,0.1 -0.9,0.2 -1.5,0.3 -0.6,0.1 -1.4,0.2 -2.2,0.2 -0.7,0 -1.3,-0.1 -1.8,-0.3 -0.5,-0.2 -0.9,-0.5 -1.2,-0.9 -0.3,-0.4 -0.5,-0.8 -0.6,-1.4 -0.1,-0.5 -0.2,-1.1 -0.2,-1.7 v -5.3 h 1.7 v 4.9 c 0,1.1 0.2,2 0.5,2.4 0.3,0.4 1,0.7 1.8,0.7 0.2,0 0.4,0 0.6,0 0.2,0 0.4,0 0.5,0 0.1,0 0.3,0 0.5,-0.1 0.1,0 0.2,0 0.3,-0.1 v -7.9 h 1.7 v 9.2 z"
   class="st9" />

	<path
   inkscape:connector-curvature="0"
   id="path1350"
   d="m 208.5,913.8 c -1,0 -1.8,-0.2 -2.2,-0.7 -0.4,-0.4 -0.6,-1.1 -0.6,-2 v -11.2 l 1.7,-0.3 v 11.2 c 0,0.3 0,0.5 0.1,0.7 0,0.2 0.1,0.3 0.2,0.4 0.1,0.1 0.3,0.2 0.4,0.2 0.2,0.1 0.4,0.1 0.7,0.1 z"
   class="st9" />

	<path
   inkscape:connector-curvature="0"
   id="path1352"
   d="m 218.1,913.3 c -0.4,0.1 -0.9,0.2 -1.5,0.3 -0.6,0.1 -1.4,0.2 -2.2,0.2 -0.7,0 -1.3,-0.1 -1.8,-0.3 -0.5,-0.2 -0.9,-0.5 -1.2,-0.9 -0.3,-0.4 -0.5,-0.8 -0.6,-1.4 -0.1,-0.5 -0.2,-1.1 -0.2,-1.7 v -5.3 h 1.7 v 4.9 c 0,1.1 0.2,2 0.5,2.4 0.3,0.4 1,0.7 1.8,0.7 0.2,0 0.4,0 0.6,0 0.2,0 0.4,0 0.5,0 0.1,0 0.3,0 0.5,-0.1 0.1,0 0.2,0 0.3,-0.1 v -7.9 h 1.7 v 9.2 z"
   class="st9" />

	<path
   inkscape:connector-curvature="0"
   id="path1354"
   d="m 220.9,904.5 c 0.4,-0.1 0.9,-0.2 1.5,-0.3 0.6,-0.1 1.4,-0.2 2.2,-0.2 0.6,0 1.1,0.1 1.5,0.2 0.4,0.2 0.8,0.4 1,0.7 0.1,-0.1 0.2,-0.1 0.4,-0.3 0.2,-0.1 0.4,-0.2 0.7,-0.3 0.3,-0.1 0.6,-0.2 0.9,-0.3 0.3,-0.1 0.7,-0.1 1,-0.1 0.7,0 1.3,0.1 1.8,0.3 0.5,0.2 0.8,0.5 1.1,0.9 0.3,0.4 0.4,0.8 0.5,1.4 0.1,0.5 0.1,1.1 0.1,1.7 v 5.3 H 232 v -4.9 c 0,-0.6 0,-1 -0.1,-1.4 -0.1,-0.4 -0.2,-0.7 -0.3,-1 -0.2,-0.3 -0.4,-0.5 -0.6,-0.6 -0.3,-0.1 -0.6,-0.2 -1,-0.2 -0.6,0 -1,0.1 -1.4,0.2 -0.4,0.1 -0.6,0.3 -0.7,0.4 0.1,0.3 0.2,0.7 0.2,1 0,0.4 0.1,0.8 0.1,1.2 v 5.3 h -1.7 v -4.9 c 0,-0.6 0,-1 -0.1,-1.4 -0.1,-0.4 -0.2,-0.7 -0.3,-1 -0.1,-0.3 -0.4,-0.5 -0.6,-0.6 -0.3,-0.1 -0.6,-0.2 -1,-0.2 -0.2,0 -0.3,0 -0.5,0 -0.2,0 -0.4,0 -0.5,0 -0.2,0 -0.3,0 -0.5,0.1 -0.1,0 -0.2,0 -0.3,0.1 v 7.9 H 221 v -9 z"
   class="st9" />

	<path
   inkscape:connector-curvature="0"
   id="path1356"
   d="m 237.3,902.5 c -0.3,0 -0.6,-0.1 -0.8,-0.3 -0.2,-0.2 -0.3,-0.5 -0.3,-0.8 0,-0.3 0.1,-0.6 0.3,-0.8 0.2,-0.2 0.5,-0.3 0.8,-0.3 0.3,0 0.6,0.1 0.8,0.3 0.2,0.2 0.3,0.5 0.3,0.8 0,0.3 -0.1,0.6 -0.3,0.8 -0.2,0.2 -0.5,0.3 -0.8,0.3 z m 0.8,11.1 h -1.7 v -9.4 h 1.7 z"
   class="st9" />

	<path
   inkscape:connector-curvature="0"
   id="path1358"
   d="m 240.8,916.9 h -1.7 l 6.1,-17.4 h 1.7 z"
   class="st9" />

	<path
   inkscape:connector-curvature="0"
   id="path1360"
   d="m 250.9,904 c 0.7,0 1.2,0.1 1.7,0.3 0.5,0.2 0.8,0.4 1.1,0.7 0.3,0.3 0.5,0.7 0.6,1.1 0.1,0.4 0.2,0.9 0.2,1.4 v 5.8 c -0.1,0 -0.3,0.1 -0.6,0.1 -0.3,0 -0.5,0.1 -0.9,0.1 -0.3,0 -0.7,0.1 -1.1,0.1 -0.4,0 -0.8,0 -1.1,0 -0.5,0 -1,-0.1 -1.5,-0.2 -0.4,-0.1 -0.8,-0.3 -1.2,-0.5 -0.3,-0.2 -0.6,-0.5 -0.8,-0.9 -0.2,-0.4 -0.3,-0.8 -0.3,-1.4 0,-0.5 0.1,-1 0.3,-1.3 0.2,-0.4 0.5,-0.7 0.9,-0.9 0.4,-0.2 0.8,-0.4 1.3,-0.5 0.5,-0.1 1,-0.2 1.5,-0.2 0.2,0 0.3,0 0.5,0 0.2,0 0.4,0 0.5,0.1 0.2,0 0.3,0.1 0.4,0.1 0.1,0 0.2,0 0.3,0.1 v -0.5 c 0,-0.3 0,-0.5 -0.1,-0.8 -0.1,-0.3 -0.2,-0.5 -0.3,-0.7 -0.1,-0.2 -0.4,-0.4 -0.6,-0.5 -0.3,-0.1 -0.6,-0.2 -1.1,-0.2 -0.6,0 -1,0 -1.4,0.1 -0.4,0.1 -0.7,0.2 -0.9,0.2 l -0.2,-1.4 c 0.2,-0.1 0.6,-0.2 1.1,-0.3 0.5,-0.1 1.1,0.1 1.7,0.1 z m 0.2,8.4 c 0.4,0 0.7,0 1.1,0 0.3,0 0.6,-0.1 0.8,-0.1 v -2.8 c -0.1,-0.1 -0.3,-0.1 -0.6,-0.2 -0.3,0 -0.6,-0.1 -1,-0.1 -0.3,0 -0.5,0 -0.8,0.1 -0.3,0 -0.5,0.1 -0.8,0.2 -0.2,0.1 -0.4,0.3 -0.6,0.5 -0.2,0.2 -0.2,0.5 -0.2,0.8 0,0.6 0.2,1 0.6,1.3 0.3,0.2 0.8,0.3 1.5,0.3 z"
   class="st9" />

	<path
   inkscape:connector-curvature="0"
   id="path1362"
   d="m 263.5,905.5 c -0.3,0.3 -0.6,0.7 -1,1.2 -0.4,0.5 -0.9,1.1 -1.3,1.7 -0.5,0.6 -0.9,1.3 -1.4,1.9 -0.5,0.7 -0.9,1.3 -1.3,1.9 h 5.1 v 1.4 h -7.1 v -1.1 c 0.3,-0.5 0.6,-1.1 1.1,-1.7 0.4,-0.6 0.9,-1.3 1.3,-1.9 0.4,-0.6 0.9,-1.2 1.3,-1.8 0.4,-0.6 0.8,-1 1.1,-1.4 h -4.6 v -1.4 h 6.8 z"
   class="st9" />

	<path
   inkscape:connector-curvature="0"
   id="path1364"
   d="m 273,913.3 c -0.4,0.1 -0.9,0.2 -1.5,0.3 -0.6,0.1 -1.4,0.2 -2.2,0.2 -0.7,0 -1.3,-0.1 -1.8,-0.3 -0.5,-0.2 -0.9,-0.5 -1.2,-0.9 -0.3,-0.4 -0.5,-0.8 -0.6,-1.4 -0.1,-0.5 -0.2,-1.1 -0.2,-1.7 v -5.3 h 1.7 v 4.9 c 0,1.1 0.2,2 0.5,2.4 0.3,0.4 1,0.7 1.8,0.7 0.2,0 0.4,0 0.6,0 0.2,0 0.4,0 0.5,0 0.1,0 0.3,0 0.5,-0.1 0.1,0 0.2,0 0.3,-0.1 v -7.9 h 1.7 v 9.2 z"
   class="st9" />

	<path
   inkscape:connector-curvature="0"
   id="path1366"
   d="m 279.3,904 c 0.1,0 0.3,0 0.5,0 0.2,0 0.4,0 0.5,0.1 0.2,0 0.3,0.1 0.5,0.1 0.2,0 0.3,0.1 0.3,0.1 l -0.3,1.5 c -0.1,0 -0.4,-0.1 -0.7,-0.2 -0.3,-0.1 -0.7,-0.1 -1.2,-0.1 -0.3,0 -0.6,0 -0.9,0.1 -0.3,0.1 -0.5,0.1 -0.6,0.1 v 7.9 h -1.7 v -9 c 0.4,-0.1 0.9,-0.3 1.5,-0.4 0.6,-0.1 1.4,-0.2 2.1,-0.2 z"
   class="st9" />

	<path
   inkscape:connector-curvature="0"
   id="path1368"
   d="m 282.3,908.9 c 0,-0.8 0.1,-1.6 0.4,-2.2 0.2,-0.6 0.6,-1.1 1,-1.5 0.4,-0.4 0.9,-0.7 1.4,-0.9 0.5,-0.2 1,-0.3 1.6,-0.3 1.3,0 2.2,0.4 2.9,1.2 0.7,0.8 1,2 1,3.6 0,0.1 0,0.2 0,0.3 0,0.1 0,0.2 0,0.3 H 284 c 0.1,1 0.4,1.7 0.8,2.2 0.4,0.5 1.3,0.8 2.3,0.8 0.6,0 1.1,-0.1 1.5,-0.2 0.4,-0.1 0.7,-0.2 0.9,-0.3 l 0.2,1.4 c -0.2,0.1 -0.6,0.2 -1.1,0.3 -0.5,0.1 -1.1,0.2 -1.7,0.2 -0.8,0 -1.5,-0.1 -2.1,-0.4 -0.6,-0.2 -1.1,-0.6 -1.5,-1 -0.4,-0.4 -0.7,-0.9 -0.9,-1.5 0,-0.6 -0.1,-1.3 -0.1,-2 z m 6.4,-0.9 c 0,-0.8 -0.2,-1.4 -0.6,-1.9 -0.4,-0.5 -0.9,-0.7 -1.6,-0.7 -0.4,0 -0.7,0.1 -1,0.2 -0.3,0.1 -0.5,0.3 -0.7,0.6 -0.2,0.2 -0.4,0.5 -0.5,0.8 -0.1,0.3 -0.2,0.6 -0.2,1 z"
   class="st9" />

</g>
<polyline
   transform="translate(-184.8,-722.7)"
   id="polyline1388"
   points="333.6,956.8 322.6,956.8 322.6,736.2 333.6,736.2 "
   class="st16" />
<line
   id="line1390"
   y2="123.8"
   x2="122.8"
   y1="123.8"
   x1="137.8"
   class="st16" />
<g
   transform="translate(-184.8,-722.7)"
   id="g1396">
	<path
   inkscape:connector-curvature="0"
   id="path1392"
   d="m 891,840.1 c 23.7,0 35.7,28.9 18.8,45.7 -16.9,16.9 -45.7,4.8 -45.7,-18.8 0,-14.8 12,-26.9 26.9,-26.9 z"
   class="st12" />

	<path
   inkscape:connector-curvature="0"
   id="path1394"
   d="m 911.2,884.4 c -8.1,-7 -20.6,-6.3 -15.1,-15.4 2,-3 3.5,-6.2 3.7,-9.5 0.2,-2.7 -0.9,-11.5 -8.9,-11.5 -5.4,0 -9.8,4.6 -9.7,11.4 0.1,3.1 1.2,6.6 3.8,10.2 3.6,5 -0.7,7 -0.9,7 -3.2,1.1 -10.3,5.2 -13,7.7"
   class="st12" />

</g>
</svg>
