<svg width="32" height="32" viewBox="0 0 32 32" fill="none" xmlns="http://www.w3.org/2000/svg">
    <path d="M9.49142 14.7684C9.39635 14.644 9.2708 14.5462 9.12691 14.4845C8.98301 14.4228 8.82563 14.3993 8.66998 14.4162C8.51433 14.4331 8.36567 14.4899 8.23838 14.5811C8.11109 14.6722 8.00947 14.7947 7.94334 14.9366L0.0989652 30.6204C0.027504 30.7634 -0.00623619 30.9222 0.000948073 31.0818C0.00813234 31.2415 0.0560026 31.3966 0.140014 31.5326C0.224025 31.6685 0.341389 31.7807 0.480962 31.8586C0.620534 31.9364 0.777684 31.9773 0.93749 31.9773H11.8604C12.0353 31.9813 12.2077 31.9345 12.3565 31.8425C12.5054 31.7505 12.6243 31.6173 12.6989 31.459C15.0551 26.5901 13.6272 19.1871 9.49142 14.7684Z" fill="url(#paint0_linear)"/>
    <path d="M15.2448 0.50314C13.2902 3.51063 12.1511 6.97465 11.9394 10.5552C11.7277 14.1358 12.4505 17.71 14.037 20.9268L19.3031 31.4589C19.3809 31.6146 19.5006 31.7456 19.6487 31.8372C19.7968 31.9287 19.9675 31.9772 20.1416 31.9772H31.0625C31.2223 31.9772 31.3795 31.9364 31.519 31.8585C31.6586 31.7807 31.776 31.6685 31.86 31.5325C31.944 31.3966 31.9919 31.2414 31.999 31.0818C32.0062 30.9222 31.9725 30.7633 31.901 30.6204C31.901 30.6204 17.2087 1.23231 16.8395 0.497255C16.7665 0.347633 16.6528 0.221619 16.5114 0.133668C16.37 0.045717 16.2068 -0.000608292 16.0403 6.03147e-06C15.8738 0.000620355 15.7109 0.0481494 15.5702 0.137141C15.4295 0.226133 15.3167 0.352983 15.2448 0.50314Z" fill="#2684FF"/>
<defs>
    <linearGradient id="paint0_linear" x1="13.7905" y1="17.1888" x2="5.51211" y2="31.5276" gradientUnits="userSpaceOnUse">
        <stop stop-color="#0052CC"/>
        <stop offset="0.923" stop-color="#2684FF"/>
    </linearGradient>
</defs>
</svg>
