<svg width="44" height="45" viewBox="0 0 44 45" fill="none" xmlns="http://www.w3.org/2000/svg">
<path d="M26.3334 9.89591V5.31258H17.6667V9.89591H26.3334ZM4.66671 14.4792V39.6876H39.3334V14.4792H4.66671ZM39.3334 9.89591C41.7384 9.89591 43.6667 11.9355 43.6667 14.4792V39.6876C43.6667 42.2313 41.7384 44.2709 39.3334 44.2709H4.66671C2.26171 44.2709 0.333374 42.2313 0.333374 39.6876L0.355041 14.4792C0.355041 11.9355 2.26171 9.89591 4.66671 9.89591H13.3334V5.31258C13.3334 2.76883 15.2617 0.729248 17.6667 0.729248H26.3334C28.7384 0.729248 30.6667 2.76883 30.6667 5.31258V9.89591H39.3334Z" fill="#2B2B2C"/>
</svg>
