<svg width="49" height="49" viewBox="0 0 49 49" fill="none" xmlns="http://www.w3.org/2000/svg">
<path d="M15.3125 24.5C15.3125 19.3416 19.3416 15.3125 24.5 15.3125C29.5722 15.3125 33.6875 19.3416 33.6875 24.5C33.6875 29.5723 29.5722 33.6875 24.5 33.6875C19.3416 33.6875 15.3125 29.5723 15.3125 24.5ZM24.5 19.9062C21.9638 19.9062 19.9062 21.9639 19.9062 24.5C19.9062 27.0361 21.9638 29.0938 24.5 29.0938C27.0361 29.0938 29.0937 27.0361 29.0937 24.5C29.0937 21.9639 27.0361 19.9062 24.5 19.9062ZM28.0505 2.87109e-05C30.1752 2.87109e-05 32.0222 1.45373 32.5199 3.51613L33.2664 6.62361C34.0798 7.02078 34.855 7.47154 35.5919 7.97016L38.664 7.06576C40.7025 6.4657 42.8845 7.33756 43.9468 9.17506L47.4974 15.3221C48.5502 17.1596 48.2152 19.4852 46.6839 20.9494L44.3584 23.074C44.3871 23.6004 44.4062 24.0502 44.4062 24.5C44.4062 24.9498 44.3871 25.3996 44.3584 25.8398L46.6839 28.0506C48.2152 29.5148 48.5502 31.8404 47.4974 33.6779L43.9468 39.8221C42.8845 41.6596 40.7025 42.5305 38.664 41.9371L35.5919 41.0279C34.855 41.5256 34.0798 41.9754 33.2664 42.3773L32.5199 45.4877C32.0222 47.5453 30.1752 49 28.0505 49H20.9494C18.8248 49 16.9777 47.5453 16.48 45.4877L15.7336 42.3773C14.9201 41.9754 14.1449 41.5256 13.408 41.0279L10.2498 41.9371C8.30029 42.5305 6.11922 41.6596 5.05787 39.8221L1.50728 33.6779C0.445933 31.8404 0.78166 29.5148 2.31884 28.0506L4.63869 25.8398C4.60902 25.3996 4.59371 24.9498 4.59371 24.4139C4.59371 24.0502 4.60902 23.6004 4.63869 23.074L2.31884 20.9494C0.781564 19.4852 0.445933 17.1596 1.50728 15.3221L5.05787 9.17506C6.11922 7.33756 8.30029 6.4657 10.2498 7.06576L13.408 7.97016C14.1449 7.47154 14.9201 7.02078 15.7336 6.62361L16.48 3.51613C16.9777 1.45277 18.8248 0 20.9494 0L28.0505 2.87109e-05ZM19.667 9.91484L18.5951 10.3646C17.3796 10.8719 16.2503 11.5322 15.2263 12.317L14.298 13.0252L9.03625 11.4748L5.4847 17.6189L9.45638 21.3992L9.30996 22.5477C9.22957 23.1889 9.18746 23.8396 9.18746 24.5C9.18746 25.1604 9.22957 25.8111 9.30996 26.4523L9.45638 27.6008L5.48566 31.3811L9.03625 37.5252L14.298 35.9748L15.2263 36.683C16.2503 37.4678 17.3796 38.1281 18.5951 38.6354L19.667 39.0852L20.9494 44.4062H28.0505L29.333 39.0852L30.4048 38.6354C31.6203 38.1281 32.7496 37.4678 33.7736 36.683L34.7019 35.9748L39.9656 37.5252L43.5162 31.3811L39.5445 27.6008L39.688 26.4523C39.7742 25.8111 39.8125 25.1604 39.8125 24.5C39.8125 23.8396 39.7742 23.1889 39.688 22.5477L39.5445 21.3992L43.5162 17.6189L39.9656 11.4748L34.7019 13.0252L33.7736 12.317C32.7496 11.5322 31.6203 10.8719 30.4048 10.3646L29.333 9.91484L28.0505 4.59375H20.9494L19.667 9.91484Z" fill="#131314"/>
</svg>
