<svg width="75" height="75" viewBox="0 0 75 75" fill="none" xmlns="http://www.w3.org/2000/svg">
<rect width="75" height="75" fill="#cbeffe"/>
<path d="M35.2084 42.0835H30.625C30.625 30.6939 39.8605 21.4585 51.25 21.4585V26.0418C42.3813 26.0418 35.2084 33.2147 35.2084 42.0835ZM51.25 35.2085V30.6252C44.925 30.6252 39.7917 35.7585 39.7917 42.0835H44.375C44.375 38.2793 47.4459 35.2085 51.25 35.2085ZM26.0417 19.1668C26.0417 16.6231 24.0021 14.5835 21.4584 14.5835C18.9146 14.5835 16.875 16.6231 16.875 19.1668C16.875 21.7106 18.9146 23.7502 21.4584 23.7502C24.0021 23.7502 26.0417 21.7106 26.0417 19.1668ZM36.2396 20.3127H31.6563C31.1063 23.5668 28.3105 26.0418 24.8959 26.0418H18.0209C16.1188 26.0418 14.5834 27.5772 14.5834 29.4793V35.2085H28.3334V30.0293C32.5959 28.6772 35.7813 24.9189 36.2396 20.3127ZM53.5417 48.9585C56.0855 48.9585 58.125 46.9189 58.125 44.3752C58.125 41.8314 56.0855 39.7918 53.5417 39.7918C50.998 39.7918 48.9584 41.8314 48.9584 44.3752C48.9584 46.9189 50.998 48.9585 53.5417 48.9585ZM56.9792 51.2502H50.1042C46.6896 51.2502 43.8938 48.7752 43.3438 45.521H38.7605C39.2188 50.1272 42.4042 53.8856 46.6667 55.2377V60.4168H60.4167V54.6877C60.4167 52.7856 58.8813 51.2502 56.9792 51.2502Z" fill="#2B2B2C"/>
</svg>
