<svg width="400" height="483" viewBox="0 0 400 483" fill="none" xmlns="http://www.w3.org/2000/svg">
<path d="M376.566 324.471C376.381 328.044 375.467 332.396 372.043 333.435C370.885 333.786 369.617 333.674 368.478 334.078C365.337 335.227 364.571 339.804 361.439 340.976C359.046 341.871 356.457 340.361 353.904 340.33C348.568 340.266 345.276 346.312 340.285 348.198C338.866 348.732 337.355 348.977 335.84 348.918C334.326 348.859 332.838 348.497 331.466 347.854C330.093 347.21 328.863 346.298 327.849 345.172C326.835 344.045 326.056 342.727 325.56 341.295C324.548 338.627 324.603 331.451 324.869 323.514C325.438 306.378 328.041 277.483 319.844 263.727C319.844 263.672 349.923 260.27 352.349 260.239C361.941 260.115 365.061 259.318 368.457 268.853C374.776 286.682 377.531 305.58 376.566 324.471Z" fill="#9000A6"/>
<path d="M372.192 333.528C371.033 333.877 369.763 333.767 368.626 334.171C365.485 335.317 364.717 339.897 361.585 341.069C359.192 341.964 356.603 340.455 354.052 340.423C348.714 340.356 345.424 346.405 340.431 348.291C339.217 348.741 337.923 348.932 336.631 348.851C342.579 340.735 352.954 332.037 351.581 322.098C351.057 318.312 349.494 314.216 351.36 310.881C352.281 305.971 352.8 300.994 352.911 296C352.38 284.362 351.322 268.484 344.974 260.023C343.369 257.882 348.764 262.84 347.645 260.387L352.492 260.33C362.085 260.205 365.207 259.409 368.6 268.943C374.92 286.77 377.677 305.664 376.714 324.553C376.53 328.137 375.616 332.489 372.192 333.528Z" fill="#730085"/>
<path d="M335.652 339.304C334.642 336.633 334.695 329.458 334.961 321.521C335.525 304.547 338.071 276.059 330.158 262.138C326.873 262.514 319.841 263.71 319.841 263.727C328.041 277.483 325.438 306.377 324.866 323.514C324.6 331.451 324.545 338.626 325.557 341.294C326.054 342.727 326.832 344.045 327.846 345.171C328.861 346.298 330.09 347.21 331.463 347.853C332.835 348.497 334.323 348.859 335.838 348.918C337.352 348.977 338.863 348.732 340.282 348.197C340.55 348.097 340.813 347.977 341.072 347.853C336.81 347.666 337.485 344.142 335.652 339.304Z" fill="#670082"/>
<path d="M359.197 339.273C357.75 339.284 356.334 339.69 355.1 340.445C357.134 341.157 359.315 341.34 361.439 340.977C362.036 340.743 362.58 340.393 363.039 339.945C361.783 339.599 360.496 339.374 359.197 339.273Z" fill="#670082"/>
<path d="M337.823 192.183C346.197 204.376 353.376 217.349 359.259 230.921C361.02 235.347 364.02 239.918 365.08 247.323C366.693 258.629 373.017 271.662 367.724 271.662C358.187 271.662 322.741 280.658 322.741 280.658L317.98 265.843C317.98 265.843 311.63 258.425 310.043 252.087C307.99 243.87 301.444 242.595 298.955 234.498C292.637 213.921 288.556 192.723 286.784 171.27C286.231 164.571 285.647 154.445 291.863 149.841C298.037 145.271 303.971 152.256 308.545 156.333C320.141 166.657 329.168 179.394 337.823 192.183Z" fill="black"/>
<path d="M78.8351 148.911C84.0704 157.51 97.0532 162.035 106.717 164.861C111.792 166.342 117.205 165.339 122.452 164.712C140.022 162.578 157.795 164.585 175.494 164.667C194.631 164.409 213.733 162.921 232.68 160.212C253.221 157.647 287.827 164.784 302.64 150.497C315.949 137.665 316.812 111.159 291 106.584C283.194 105.15 275.274 104.429 267.338 104.43C247.756 105.076 228.224 106.722 208.7 108.369L142.168 113.98C131.305 114.896 120.198 116.611 109.299 116.693C104.1 116.731 95.06 112.798 89.8822 114.317C73.0135 119.282 71.4273 136.741 78.8351 148.911Z" fill="black"/>
<path d="M89.8867 123.909C95.0646 122.39 104.104 126.324 109.304 126.285C120.202 126.206 131.316 124.488 142.172 123.572L208.704 117.961C228.229 116.315 247.76 114.669 267.342 114.023C275.278 114.018 283.198 114.734 291.004 116.162C303.47 118.373 309.701 125.701 311.328 134.131C313.481 122.22 308.074 109.608 291.004 106.584C283.198 105.15 275.279 104.429 267.342 104.43C247.76 105.076 228.229 106.722 208.704 108.369L142.172 113.98C131.309 114.896 120.202 116.611 109.304 116.693C104.104 116.731 95.0646 112.798 89.8867 114.317C77.1647 118.052 73.1376 128.898 75.0973 139.225C75.8495 135.529 77.6406 132.125 80.2604 129.412C82.8801 126.699 86.2197 124.79 89.8867 123.909Z" fill="#424248"/>
<path d="M200 482.218C310.457 482.218 400 477.549 400 471.791C400 466.032 310.457 461.363 200 461.363C89.543 461.363 0 466.032 0 471.791C0 477.549 89.543 482.218 200 482.218Z" fill="#D5EAEF"/>
<path d="M224.934 461.347C226.975 459.521 305.015 449.278 306.348 449.706C307.066 434.362 305.492 372.72 306.877 348.382C307.329 340.471 293.081 389.135 280.916 386.213C272.415 384.172 217.7 336.378 221.816 346.255C228.183 361.611 227.577 443.356 224.934 461.347Z" fill="#26C9DA"/>
<path d="M167.196 457.114C165.16 455.288 91.1794 441.87 89.8514 442.298C89.4159 431.718 91.0047 376.424 89.8514 348.913C89.5212 340.996 100.829 389.135 112.951 386.213C121.423 384.172 175.948 336.378 171.855 346.255C165.502 361.611 166.143 440.183 167.196 457.114Z" fill="#26C9DA"/>
<path d="M115.004 445.564C114.063 439.714 109.01 434.993 108.711 429.076L114.283 429.643C113.23 424.946 112.561 420.171 112.281 415.366L116.15 415.584C114.692 411.635 114.236 407.386 114.822 403.218L118.688 404.568C117.7 404.223 118.839 395.073 119.619 390.104C117.499 391.314 115.265 392.315 112.951 393.092C100.829 396.011 89.5212 347.87 89.8514 355.79C91.0047 383.306 89.4159 438.594 89.8514 449.177C90.3587 449.015 101.38 450.852 114.951 453.3C115.209 450.729 115.226 448.139 115.004 445.564Z" fill="#26E4EE"/>
<path d="M132.77 387.137C133.858 389.796 135.112 392.383 136.526 394.885C140.242 401.307 139.766 405.836 140.763 413.103C142.041 422.389 139.969 438.944 140.74 448.383C135.337 448.249 145.046 445.615 145.286 448.295C145.167 449.9 144.864 451.487 144.381 453.023C144.308 454.643 144.622 456.257 145.298 457.731C145.975 459.206 146.993 460.497 148.27 461.498C150.662 463.685 153.533 465.326 155.782 467.635C156.129 467.992 156.448 468.353 156.759 468.743C160.307 469.331 163.798 470.219 167.196 471.399C166.136 454.468 165.502 375.896 171.854 360.551C174.589 353.945 151.15 373.094 132.77 387.137Z" fill="#00A2BF"/>
<path d="M274.04 384.491C275.128 387.149 276.383 389.737 277.796 392.238C281.512 398.66 268.84 404.609 269.841 411.875C271.118 421.164 272.774 441.066 273.544 450.501C268.142 450.364 286.314 442.969 286.556 445.648C286.438 447.254 286.134 448.84 285.652 450.376C285.578 451.997 285.892 453.611 286.569 455.085C287.245 456.559 288.264 457.851 289.54 458.851C291.933 461.038 294.804 462.68 297.053 464.989C297.4 465.345 297.718 465.707 298.029 466.097C301.578 466.683 305.069 467.572 308.466 468.755C307.406 451.824 302.642 365.315 308.995 349.971C311.73 343.362 292.421 370.448 274.04 384.491Z" fill="#00A2BF"/>
<path d="M82.3765 286.894C82.9675 277.103 91.7823 179.566 93.1677 145.769C94.0291 124.713 101.992 92.3111 107.747 67.4292C121.081 9.76478 144.396 5.27129 194.234 4.23285C253.482 2.99582 276.043 17.6559 284.631 84.3601C286.246 96.8955 291.715 131.052 293.168 145.769C294.989 164.236 306.586 227.708 307.742 283.59C308.46 317.789 318.136 384.629 261.782 411.349C240.815 421.29 212.54 421.456 191.535 421.398C158.151 421.312 135.055 415.986 127.671 412.93C127.671 412.923 76.9092 377.303 82.3765 286.894Z" fill="#26C9DA"/>
<path d="M308.27 285.702C307.115 229.823 295.52 166.351 293.696 147.882C292.246 133.164 286.774 99.0105 285.161 86.4751C277.856 29.739 265.302 23.1111 251.707 15.0859C257.286 42.9922 252.185 37.623 258.2 84.3575C259.816 96.893 265.926 152.217 267.726 166.906C270.898 192.831 287.538 227.184 288.693 283.063C289.411 317.26 299.09 384.103 242.736 410.822C221.766 420.764 193.492 420.929 172.486 420.872C162.676 420.848 153.773 420.369 145.879 419.63C161.129 422.273 176.581 423.575 192.058 423.518C213.064 423.571 241.348 423.408 262.309 413.468C318.664 386.742 308.988 319.901 308.27 285.702Z" fill="#0BB2CA"/>
<path d="M108.832 287.006C109.423 277.215 111.818 226.624 113.204 192.827C114.065 171.771 118.145 120.883 123.897 96.0007C137.234 38.3362 157.498 27.2532 187.304 18.2231C204.771 12.9304 239.192 9.22171 239.192 9.22171C230.109 5.95267 220.549 4.20014 210.896 4.03431C207.998 3.95774 197.054 1.04823 193.932 1.0578C191.355 1.0578 196.635 3.97929 193.9 4.03672C192.108 4.075 172.381 -0.0309295 170.651 0.000175847C167.373 0.0647792 182.174 4.27597 179.121 4.3645C139.05 5.49865 118.446 13.8516 106.71 65.5558C101.803 87.1811 93.6935 124.522 92.8322 145.573C91.4492 179.37 82.6344 276.907 82.041 286.7C79.5598 327.754 87.9821 385.156 119.367 402.615C112.113 385.476 106.921 318.6 108.832 287.006Z" fill="#26E4EE"/>
<path d="M269.841 346.796C265.175 353.966 259.861 360.694 253.967 366.895C248.758 372.228 242.308 375.372 237.565 379.593C229.119 387.113 213.997 393.767 211.64 395.466C206.048 399.498 183.901 403.805 175.132 406.049C159.611 410.165 143.563 411.948 127.517 411.339C148.949 419.648 171.725 423.952 194.712 424.037C220.628 424.33 246.445 420.764 271.312 413.457C285.668 409.303 294.521 398.344 301.46 388.333C303.915 377.176 305.817 346.786 305.817 346.786L269.841 346.796Z" fill="#00A2BF"/>
<path d="M60.9183 459.342C55.0777 462.452 48.4546 469.824 59.5592 472.37C65.4094 473.71 71.3602 472.241 77.3133 472.535C85.0609 472.918 86.604 475.284 94.3325 475.193C100.731 475.117 107.636 472.994 111.979 473.21C119.915 473.6 122.902 475.988 129.225 476.246C133.915 476.438 142.005 473.973 147.578 473.896C154.404 473.803 154.545 474.552 164.088 475.27C183.382 476.72 177.03 464.28 175.706 462.737C172.488 458.985 168.643 454.63 164.602 450.694C161.647 447.409 158.02 444.797 153.966 443.038C137.667 436.223 114.766 436.721 103.174 438.731C84.4077 441.985 83.4649 447.289 60.9183 459.342Z" fill="#9000A6"/>
<path d="M71.7933 470.135C76.184 465.697 91.9281 465.682 91.3203 468.118C95.419 460.801 114.266 461.332 113.752 467.4C117.638 457.25 122.703 445.998 135.406 441.203C137.143 440.558 138.93 440.058 140.749 439.707C128.168 437.394 115.29 437.198 102.645 439.128C83.879 442.385 82.9363 447.689 60.3873 459.739C54.5491 462.849 47.9236 470.221 59.0306 472.765C62.5278 473.404 66.0994 473.528 69.6325 473.133C70.1154 471.983 70.8546 470.957 71.7933 470.135Z" fill="#C41ACD"/>
<path d="M164.616 472.918C155.073 472.2 154.933 471.451 148.106 471.544C142.533 471.621 134.444 474.085 129.756 473.894C123.43 473.636 120.444 471.25 112.507 470.858C108.164 470.645 101.261 472.772 94.8609 472.844C87.1324 472.935 85.589 470.566 77.8414 470.185C71.8883 469.891 65.9378 471.358 60.0876 470.018C56.7091 469.245 54.979 468.025 54.3617 466.613C53.4668 469.109 54.6466 471.511 60.0876 472.757C65.9378 474.097 71.8883 472.631 77.8414 472.923C85.589 473.305 87.1324 475.674 94.8609 475.581C101.259 475.507 108.164 473.384 112.507 473.597C120.444 473.99 123.43 476.375 129.756 476.634C134.444 476.825 142.533 474.361 148.106 474.284C154.933 474.191 155.073 474.942 164.616 475.657C177.103 476.598 178.845 471.719 178.163 467.74C177.522 470.877 174.299 473.648 164.616 472.918Z" fill="#670082"/>
<path d="M332.798 459.342C338.636 462.452 345.262 469.824 334.155 472.37C328.307 473.71 322.354 472.241 316.403 472.535C308.655 472.918 307.112 475.284 299.381 475.193C292.985 475.117 286.08 472.994 281.737 473.21C273.801 473.6 270.814 475.988 264.488 476.246C259.801 476.438 251.711 473.973 246.138 473.896C239.31 473.803 239.168 474.552 229.629 475.27C210.334 476.72 216.684 464.28 218.01 462.737C221.228 458.985 225.071 454.63 229.112 450.694C232.067 447.409 235.694 444.797 239.747 443.038C256.049 436.223 278.95 436.721 290.542 438.731C309.306 441.985 310.251 447.289 332.798 459.342Z" fill="#9000A6"/>
<path d="M258.594 459.248C261.376 461.136 264.06 463.164 266.637 465.323C265.432 463.663 264.85 461.631 264.995 459.584C265.139 457.538 266 455.608 267.426 454.133C268.941 452.75 270.906 451.965 272.956 451.921C275.007 451.877 277.003 452.578 278.576 453.893C275.192 448.88 272.735 443.299 271.324 437.417C260.19 437.243 249.121 439.146 238.685 443.028C234.631 444.787 231.003 447.399 228.049 450.685C224.008 454.621 220.153 458.975 216.944 462.727C215.621 464.271 209.269 476.71 228.566 475.26C238.106 474.543 238.247 473.794 245.076 473.887C249.737 473.949 256.152 475.679 260.868 476.134C256.429 471.32 253.386 464.495 258.594 459.248Z" fill="#C41ACD"/>
<path d="M229.1 472.918C238.64 472.2 238.781 471.451 245.61 471.544C251.182 471.621 259.272 474.085 263.959 473.894C270.286 473.636 273.272 471.25 281.208 470.858C285.551 470.645 292.454 472.772 298.852 472.844C306.583 472.935 308.126 470.566 315.872 470.185C321.825 469.891 327.778 471.358 333.625 470.018C337.004 469.245 338.736 468.025 339.354 466.613C340.249 469.109 339.069 471.511 333.625 472.757C327.778 474.097 321.825 472.631 315.872 472.923C308.126 473.305 306.583 475.674 298.852 475.581C292.454 475.507 285.551 473.384 281.208 473.597C273.272 473.99 270.286 476.375 263.959 476.634C259.272 476.825 251.182 474.361 245.61 474.284C238.781 474.191 238.64 474.942 229.1 475.657C216.612 476.598 214.87 471.719 215.552 467.74C216.194 470.877 219.416 473.648 229.1 472.918Z" fill="#670082"/>
<path d="M11.2625 324.471C11.4467 328.044 12.3608 332.396 15.7847 333.435C16.9428 333.786 18.2133 333.674 19.3499 334.078C22.4915 335.227 23.2596 339.804 26.3916 340.976C28.7843 341.871 31.3731 340.361 33.9238 340.33C39.2619 340.266 42.5519 346.312 47.5455 348.198C48.964 348.732 50.4752 348.977 51.9898 348.917C53.5044 348.858 54.9918 348.496 56.3643 347.852C57.7367 347.209 58.9664 346.297 59.9808 345.171C60.9951 344.045 61.7737 342.727 62.2704 341.295C63.2801 338.627 63.2273 331.451 62.9617 323.514C62.3899 306.378 59.7866 277.483 67.9864 263.727C67.9864 263.672 37.9076 260.27 35.4814 260.239C25.889 260.115 22.7691 259.318 19.3738 268.853C13.0535 286.682 10.2975 305.579 11.2625 324.471Z" fill="#9000A6"/>
<path d="M67.4603 263.728C67.4603 263.713 60.0309 259.294 57.1405 258.964C49.6322 273.081 53.9677 301.293 55.188 322.131C55.6521 330.059 55.5063 337.244 54.4966 339.912C52.3432 345.599 50.0293 347.975 45.0405 347.197C45.6658 347.591 46.3269 347.924 47.0147 348.193C48.4334 348.727 49.9445 348.972 51.4593 348.913C52.974 348.853 54.4617 348.491 55.8343 347.848C57.207 347.205 58.4369 346.293 59.4514 345.166C60.466 344.04 61.2447 342.722 61.7416 341.29C62.7514 338.622 62.6989 331.446 62.4333 323.51C61.8614 306.378 59.258 277.495 67.4603 263.728Z" fill="#670082"/>
<path d="M15.6408 333.528C16.7989 333.877 18.0694 333.767 19.2059 334.172C22.3476 335.318 23.1132 339.897 26.2477 341.07C28.6404 341.965 31.2271 340.455 33.7801 340.424C39.1183 340.357 42.408 346.406 47.3992 348.291C48.6134 348.742 49.909 348.933 51.2015 348.851C45.2532 340.735 39.1087 331.509 40.4845 321.574C41.0061 317.789 42.5684 313.692 40.7045 310.357C39.5937 305.477 39.0733 300.481 39.1541 295.477C41.6282 285.738 40.1111 268.262 42.858 260.029C43.7074 257.49 39.068 262.845 40.1878 260.392L35.3378 260.335C25.7454 260.21 22.6251 259.414 19.2322 268.949C12.9121 286.775 10.1553 305.669 11.1185 324.558C11.3004 328.137 12.2144 332.49 15.6408 333.528Z" fill="#C41ACD"/>
<path d="M228.571 185.419C236.152 184.741 243.495 182.421 250.089 178.619C256.683 174.818 262.371 169.626 266.756 163.406C269.07 159.185 279.701 155.904 279.225 151.018C277.129 129.544 265.62 109.218 247.435 88.9825C245.913 87.286 245.294 84.7426 243.518 83.3691C242.081 82.374 240.451 81.6911 238.733 81.3642C223.343 77.5573 207.285 79.4021 191.666 81.8762C182.378 82.9965 173.283 85.3651 164.628 88.9179C159.207 91.3138 154.285 94.7073 150.119 98.9218C145.769 103.415 143.687 109.184 139.966 114.116C135.872 119.542 135.501 120.224 138.77 127.053C148.513 147.331 193.659 188.065 228.571 185.419Z" fill="#00A2BF"/>
<path d="M132.702 70.4847C140.788 70.3311 147.146 59.8153 146.903 46.9971C146.659 34.179 139.907 23.9123 131.821 24.0659C123.735 24.2196 117.377 34.7353 117.62 47.5535C117.864 60.3717 124.616 70.6383 132.702 70.4847Z" fill="#18ACC8"/>
<path d="M132.389 72.7949C140.474 72.6425 146.832 62.1298 146.59 49.3139C146.349 36.498 139.599 26.2322 131.514 26.3846C123.43 26.537 117.072 37.0499 117.313 49.8658C117.555 62.6817 124.305 72.9473 132.389 72.7949Z" fill="#B6F7FA"/>
<path d="M132.72 65.4986C139.011 65.349 143.935 57.8435 143.718 48.7346C143.502 39.6257 138.227 32.3627 131.936 32.5122C125.645 32.6618 120.72 40.1673 120.937 49.2762C121.153 58.3851 126.429 65.6482 132.72 65.4986Z" fill="#453772"/>
<path d="M126.637 40.006C127.965 40.006 129.041 38.6787 129.041 37.0415C129.041 35.4042 127.965 34.0768 126.637 34.0768C125.309 34.0768 124.232 35.4042 124.232 37.0415C124.232 38.6787 125.309 40.006 126.637 40.006Z" fill="white"/>
<path d="M133.115 62.5046C135.925 62.113 137.929 59.8253 137.59 57.3948C137.251 54.9644 134.699 53.3114 131.889 53.703C129.079 54.0946 127.075 56.3825 127.414 58.813C127.753 61.2434 130.305 62.8962 133.115 62.5046Z" fill="#5371A0"/>
<path d="M255.361 70.6593C263.445 70.5069 269.803 59.9939 269.562 47.1781C269.32 34.3622 262.57 24.0963 254.486 24.2488C246.401 24.4012 240.043 34.9141 240.285 47.73C240.526 60.5459 247.276 70.8117 255.361 70.6593Z" fill="#00A2BF"/>
<path d="M255.708 72.7962C263.792 72.6437 270.15 62.131 269.909 49.3151C269.667 36.4992 262.917 26.2334 254.833 26.3858C246.748 26.5382 240.39 37.0511 240.632 49.867C240.873 62.6829 247.623 72.9486 255.708 72.7962Z" fill="#B6F7FA"/>
<path d="M255.056 65.5086C261.277 65.3652 266.15 57.8646 265.941 48.7556C265.731 39.6465 260.517 32.3783 254.296 32.5217C248.075 32.665 243.202 40.1656 243.412 49.2747C243.622 58.3838 248.835 65.6519 255.056 65.5086Z" fill="#453772"/>
<path d="M249.053 40.006C250.365 40.006 251.429 38.6787 251.429 37.0415C251.429 35.4042 250.365 34.0768 249.053 34.0768C247.741 34.0768 246.677 35.4042 246.677 37.0415C246.677 38.6787 247.741 40.006 249.053 40.006Z" fill="white"/>
<path d="M255.526 62.4645C258.301 62.0452 260.254 59.7384 259.887 57.3119C259.521 54.8855 256.974 53.2583 254.199 53.6775C251.423 54.0968 249.471 56.4038 249.837 58.8303C250.204 61.2567 252.751 62.8838 255.526 62.4645Z" fill="#5371A0"/>
<path d="M144.458 130.465C156.66 139.608 169.28 148.011 189.68 147.875C208.666 148.118 227.069 141.325 241.343 128.805C250.531 120.476 255.475 104.009 257.487 94.8738C228.186 94.144 198.841 94.6344 169.612 96.3356C160.898 96.8429 126.869 86.0278 125.804 94.1247C124.239 106.036 135.325 123.615 144.458 130.465Z" fill="#EF00C3"/>
<path d="M232.258 94.5005C229.918 103.901 188.402 82.9676 185.93 94.4143C182.284 111.278 181.937 147.87 189.909 147.817C208.895 148.06 227.299 141.267 241.573 128.747C250.759 120.418 255.704 103.952 257.714 94.8162C249.233 94.6057 240.747 94.5005 232.258 94.5005Z" fill="#C100A6"/>
<path d="M90.492 142.546C91.1333 137.971 89.5112 133.865 92.3274 137.521C98.3092 145.307 113.383 153.045 123.808 158.419C138.914 166.215 149.217 171.125 158.73 175.886C170.61 182.007 181.151 190.434 189.737 200.675C190.221 201.273 190.832 201.756 191.525 202.09C192.218 202.425 192.977 202.602 193.746 202.609C194.515 202.615 195.277 202.452 195.976 202.13C196.675 201.808 197.294 201.336 197.789 200.746C206.264 191.09 216.098 182.716 226.98 175.886C251.596 160.941 284.644 145.197 294.177 132.233C296.713 128.781 298.055 134.88 298.304 139.158C298.338 139.735 298.371 140.182 298.409 140.436C301.041 157.845 301.07 155.301 303.7 172.711C307.945 200.794 315.341 257.892 314.812 309.22C315.001 316.525 314.173 323.821 312.352 330.898C312.227 331.28 312.147 331.675 312.113 332.075C311.933 334.315 311.301 342.012 310.596 347.434C310.458 348.515 309.984 349.525 309.242 350.322C308.5 351.119 307.526 351.663 306.459 351.877C286.511 355.849 233.383 356.275 195.231 355.78C164.762 355.385 104.748 356.259 86.8407 353.627C85.6324 353.448 84.5245 352.853 83.709 351.943C82.8936 351.034 82.4221 349.868 82.376 348.647C82.0195 339.287 81.6846 332.779 81.5386 330.128C81.4987 329.375 81.2937 328.639 80.9381 327.974C80.0863 326.362 78.3825 321.909 77.2316 310.802C73.1879 271.571 83.8809 189.623 90.492 142.546Z" fill="black"/>
<path d="M251.696 211.668C254.401 211.665 256.592 210.389 256.59 208.818C256.589 207.247 254.394 205.975 251.689 205.978C248.984 205.981 246.793 207.258 246.795 208.829C246.797 210.4 248.991 211.671 251.696 211.668Z" fill="#FFD55B"/>
<path d="M251.708 222.335C254.413 222.332 256.604 221.056 256.602 219.484C256.601 217.913 254.406 216.642 251.701 216.645C248.996 216.648 246.805 217.924 246.807 219.496C246.808 221.067 249.003 222.338 251.708 222.335Z" fill="#FFD55B"/>
<path d="M240.411 226.412C241.735 225.566 241.627 223.032 240.17 220.753C238.713 218.474 236.459 217.312 235.135 218.159C233.811 219.005 233.919 221.539 235.376 223.818C236.833 226.097 239.088 227.258 240.411 226.412Z" fill="#FF92B0"/>
<path d="M249.743 231.617C251.066 230.771 250.959 228.237 249.502 225.958C248.045 223.679 245.79 222.517 244.466 223.364C243.142 224.21 243.25 226.744 244.708 229.023C246.165 231.302 248.419 232.463 249.743 231.617Z" fill="#FF92B0"/>
<path d="M240.423 237.156C241.747 236.31 241.639 233.776 240.182 231.497C238.725 229.218 236.471 228.056 235.147 228.903C233.823 229.749 233.931 232.283 235.388 234.562C236.845 236.841 239.099 238.002 240.423 237.156Z" fill="#FF92B0"/>
<path d="M249.754 242.361C251.077 241.515 250.97 238.981 249.513 236.702C248.056 234.423 245.801 233.262 244.477 234.108C243.153 234.954 243.261 237.488 244.719 239.767C246.176 242.046 248.43 243.208 249.754 242.361Z" fill="#FF92B0"/>
<path d="M268.055 234.537C269.507 232.255 269.61 229.721 268.284 228.878C266.958 228.035 264.707 229.201 263.255 231.483C261.803 233.766 261.7 236.3 263.026 237.143C264.352 237.986 266.604 236.82 268.055 234.537Z" fill="#B14FBE"/>
<path d="M258.74 239.762C260.192 237.48 260.294 234.946 258.968 234.102C257.643 233.259 255.391 234.426 253.939 236.708C252.487 238.99 252.385 241.524 253.711 242.368C255.036 243.211 257.288 242.044 258.74 239.762Z" fill="#B14FBE"/>
<path d="M268.045 223.553C269.497 221.271 269.599 218.737 268.273 217.894C266.948 217.05 264.696 218.217 263.244 220.499C261.792 222.782 261.69 225.316 263.016 226.159C264.341 227.002 266.593 225.836 268.045 223.553Z" fill="#B14FBE"/>
<path d="M258.727 228.779C260.179 226.496 260.281 223.963 258.955 223.119C257.63 222.276 255.378 223.442 253.926 225.725C252.474 228.007 252.372 230.541 253.698 231.384C255.023 232.228 257.275 231.061 258.727 228.779Z" fill="#B14FBE"/>
<path d="M242.54 216.974C245.245 216.971 247.437 215.694 247.435 214.123C247.433 212.552 245.239 211.281 242.534 211.284C239.829 211.287 237.637 212.563 237.639 214.134C237.641 215.705 239.835 216.977 242.54 216.974Z" fill="#FFD55B"/>
<path d="M261.026 216.953C263.731 216.949 265.922 215.673 265.921 214.102C265.919 212.531 263.724 211.26 261.019 211.263C258.314 211.266 256.123 212.542 256.125 214.113C256.127 215.684 258.321 216.956 261.026 216.953Z" fill="#FFD55B"/>
<path d="M194.444 211.346L194.454 213.136" stroke="#74767A" stroke-width="2.992" stroke-miterlimit="10"/>
<path d="M194.473 216.746L195.217 352.196" stroke="#74767A" stroke-width="2.992" stroke-miterlimit="10" stroke-dasharray="1.51 1.51"/>
<path d="M195.227 354L195.236 355.79" stroke="#74767A" stroke-width="2.992" stroke-miterlimit="10"/>
<path d="M145.113 103.937C145.113 103.937 158.95 136.741 194.178 135.683C194.178 135.683 232.576 134.626 237.436 102.879L173.789 86.4771L145.113 103.937Z" fill="#6F0065"/>
<path d="M124.27 107.852C149.846 106.725 162.214 104.576 189.642 104.334C204.969 104.071 220.3 104.63 235.568 106.009C244.437 106.741 253.346 106.864 262.232 106.38C268.431 105.902 272.148 97.9268 276.753 94.2253C276.258 90.5859 274.157 86.054 265.558 82.0677C255.959 77.3417 247.307 70.899 240.028 63.0577C234.125 56.7481 232.371 50.3237 224.363 44.6338C217.964 40.0876 207.721 37.19 192.539 37.19C174.912 37.19 166.406 40.3628 159.745 45.9474C152.15 52.3144 149.188 61.311 139.557 67.7785C129.223 74.7174 111.905 79.9574 104.959 91.4951C102.023 96.3738 105.555 102.858 105.555 102.858C105.555 102.858 111.673 108.412 124.27 107.852Z" fill="#EF00C3"/>
<path d="M262.583 78.7348C255.077 75.2897 248.044 70.8949 241.657 65.6585C239.487 63.6888 237.579 61.4494 235.979 58.9949C233.113 53.7344 229.289 49.056 224.704 45.2008C215.392 37.8217 206.61 36.8813 193.764 37.233C202.923 37.5632 209.396 37.3144 216.607 43.1574C222.39 47.8448 223.446 53.6016 225.594 58.2458C227.132 61.359 229.243 64.1546 231.815 66.4864C238.68 71.1885 245.938 75.2866 253.51 78.7348C263.265 83.4436 270.893 85.999 271.156 94.2204C271.295 98.6182 269.582 104.191 258.441 105.765C254.117 106.633 249.74 107.212 245.339 107.498C254.431 107.694 262.794 107.411 267.634 105.765C270.362 105.019 272.77 103.4 274.49 101.156C276.21 98.9114 277.147 96.1651 277.157 93.3375C276.99 88.3367 273.511 84.0753 262.583 78.7348Z" fill="#C100A6"/>
<path d="M265.639 103.578C255.413 106.059 231.215 103.966 215.87 103.492C204.716 103.147 185.71 102.535 162.429 103.971C145.092 105.028 128.039 106.337 117.228 106.086C108.337 105.88 104.418 100.953 103.796 96.0507C103.092 102.032 106.703 107.93 117.228 108.926C131.238 110.254 146.151 109.287 163.489 108.23C186.77 106.811 205.773 107.414 216.928 107.751C232.272 108.23 257.166 110.608 267.127 107.22C274.171 104.827 277.148 99.3239 277.007 94.9189C275.874 97.1158 274.266 99.0328 272.3 100.531C270.333 102.028 268.058 103.07 265.639 103.578Z" fill="#A1008B"/>
<path d="M50.0054 192.183C41.6316 204.377 34.4527 217.349 28.5688 230.921C26.8101 235.347 23.8073 239.918 22.7497 247.323C21.1346 258.629 14.8131 271.662 20.1034 271.662C29.6432 271.662 65.0866 280.658 65.0866 280.658L69.8504 265.843C69.8504 265.843 76.1984 258.425 77.7871 252.087C79.8401 243.87 86.3864 242.595 88.8724 234.498C95.1929 213.921 99.2746 192.723 101.047 171.27C101.599 164.571 102.183 154.445 95.967 149.841C89.7938 145.271 83.8598 152.256 79.2849 156.333C67.6898 166.657 58.6622 179.394 50.0054 192.183Z" fill="black"/>
<path d="M31.8182 250.115C32.8781 242.698 35.8858 238.138 37.6396 233.713C43.5226 220.141 50.7012 207.167 59.0759 194.973C67.7304 182.193 76.7582 169.447 88.3438 159.123C91.1193 156.651 81.5652 152.564 81.5652 152.564C81.5652 152.564 58.6622 179.403 50.0054 192.183C41.6316 204.377 34.4527 217.349 28.5688 230.921C26.8101 235.347 23.8073 239.918 22.7497 247.323C21.1346 258.629 14.8131 271.662 20.1034 271.662C22.4695 271.743 24.8271 271.988 27.1595 272.394C26.6475 268.288 30.5907 258.71 31.8182 250.115Z" fill="#424248"/>
<path d="M356.235 250.115C355.177 242.698 352.167 238.137 350.413 233.713C344.53 220.14 337.351 207.167 328.977 194.973C320.322 182.193 311.295 169.447 299.709 159.123C296.934 156.651 302.324 150.899 302.324 150.899C302.324 150.899 328.24 176.022 336.894 188.802C345.663 202.138 353.223 216.232 359.484 230.914C361.243 235.34 364.245 239.91 365.303 247.316C366.918 258.621 373.24 271.654 367.949 271.654C365.584 271.736 363.227 271.98 360.896 272.387C361.388 268.288 357.462 258.71 356.235 250.115Z" fill="#424248"/>
<path d="M190.309 201.189C190.309 201.189 170.426 222.64 172.519 226.827L183.507 232.582C183.507 232.582 190.309 233.106 198.157 204.328L190.309 201.189Z" fill="#424248"/>
</svg>
