<?xml version="1.0" encoding="UTF-8" standalone="no"?>
<svg xmlns:svg="http://www.w3.org/2000/svg" xmlns="http://www.w3.org/2000/svg"
     viewBox="0 0 35 12" width="425" height="425" version="1.1">
  <defs>
    <filter id="shadow" x="-50%" y="-50%" width="200%" height="200%">
      <feGaussianBlur in="SourceAlpha" stdDeviation="1.6" result="blur"/>
      <feOffset in="blur" dx="0" dy="0.5" result="offsetBlur"/>
      <feFlood flood-color="#000000" flood-opacity="1" result="offsetColor"/>
      <feComposite in="offsetColor" in2="offsetBlur" operator="in" result="offsetBlur"/>
    </filter>
  </defs>
  <g transform="translate(-46, -87)">
    <path filter="url(#shadow)" d="m 74.332793,88.963101 c -0.410393,-1.75871 -1.963511,-3.07834 -3.840161,-3.07834 -0.321934,0 -0.644672,0.02948 -0.937924,0.117937 0.02949,-0.293252 0.05898,-0.586503 0.05898,-0.879754 0,-3.546907 -2.87275,-6.419653 -6.419657,-6.419653 -2.989888,0 -5.480931,2.023275 -6.214057,4.778084 -0.733131,-0.439081 -1.553118,-0.67416 -2.462356,-0.67416 -2.637665,0 -4.806767,2.169102 -4.806767,4.807568 0,0.468565 0.05818,0.908441 0.175309,1.318834 h 24.446641 v 0.02949" />
    <path fill="#3f3f3f" d="m 74.332793,88.963101 c -0.410393,-1.75871 -1.963511,-3.07834 -3.840161,-3.07834 -0.321934,0 -0.644672,0.02948 -0.937924,0.117937 0.02949,-0.293252 0.05898,-0.586503 0.05898,-0.879754 0,-3.546907 -2.87275,-6.419653 -6.419657,-6.419653 -2.989888,0 -5.480931,2.023275 -6.214057,4.778084 -0.733131,-0.439081 -1.553118,-0.67416 -2.462356,-0.67416 -2.637665,0 -4.806767,2.169102 -4.806767,4.807568 0,0.468565 0.05818,0.908441 0.175309,1.318834 h 24.446641 v 0.02949" />
  </g>
</svg>
