<svg width="2065" height="2500" viewBox="0 0 256 310" xmlns="http://www.w3.org/2000/svg" preserveAspectRatio="xMidYMid"><path d="M36.08 262.013L0 244.832V64l36.08-18.04.131.187.24 215.501-.371.365" fill="#4B612C"/><path d="M168.376 226.362L36.08 262.013V45.96l132.296 36.08v144.322" fill="#759C3E"/><path d="M59.705 124.134l68.295-8.59 1.667 1.456v73.333L128 192.859l-68.295-8.161v-60.564" fill="#4B612C"/><path d="M256 109.53l-62.282 6.443L59.705 94.497 127.167 72.5 256 109.53" fill="#3C4929"/><path d="M256 199.731l-62.282-6.442-134.013 21.476 72.462 18.402L256 199.731" fill="#B7CA9D"/><path d="M59.705 274.899L128 309.262l2.887-76.568-71.182-17.929v60.134" fill="#4B612C"/><path d="M256 245.262l-128 64v-77.316l128-32.215v45.531" fill="#759C3E"/><path d="M59.705 33.933L128 0l.495.698-.21 76.146-.285.471-68.295 17.182V33.933" fill="#4B612C"/><path d="M256 176.966l-128 15.893v-77.315l128 16.322v45.1M256 109.53L128 77.315V0l128 64v45.53" fill="#759C3E"/></svg>