<svg width="32" height="39" viewBox="0 0 32 39" fill="none" xmlns="http://www.w3.org/2000/svg">
<g clip-path="url(#clip0)">
<path d="M4.51269 32.7439L0.00374603 30.5968V7.99812L4.51269 5.74365L4.52906 5.76702L4.55905 32.6983L4.51269 32.7439" fill="#4B612C"/>
<path d="M21.0459 28.2886L4.5127 32.7439V5.74365L21.0459 10.2526V28.2886" fill="#759C3E"/>
<path d="M7.46513 15.5132L16 14.4397L16.2083 14.6217V23.7862L16 24.1019L7.46513 23.082V15.5132" fill="#4B612C"/>
<path d="M31.9963 13.6879L24.2128 14.4931L7.46513 11.8093L15.8959 9.0603L31.9963 13.6879Z" fill="#3C4929"/>
<path d="M31.9963 24.9606L24.2128 24.1555L7.46513 26.8393L16.5208 29.139L31.9963 24.9606Z" fill="#B7CA9D"/>
<path d="M7.46513 34.3543L16 38.6487L16.3608 29.08L7.46513 26.8394V34.3543Z" fill="#4B612C"/>
<path d="M31.9963 30.6505L16 38.6486V28.9864L31.9963 24.9604V30.6505Z" fill="#759C3E"/>
<path d="M31.9963 22.1156L16 24.1017V14.4396L31.9963 16.4794V22.1156ZM31.9963 13.688L16 9.66211V0L31.9963 7.99813V13.688Z" fill="#759C3E"/>
</g>
<defs>
<clipPath id="clip0">
<rect width="32" height="38.7409" fill="white"/>
</clipPath>
</defs>
</svg>
