<svg width="32" height="32" viewBox="0 0 32 32" fill="none" xmlns="http://www.w3.org/2000/svg">
<path d="M16.7838 18.7029C18.7639 18.7029 20.369 17.0978 20.369 15.1178C20.369 13.1378 18.7639 11.5327 16.7838 11.5327C14.8038 11.5327 13.1987 13.1378 13.1987 15.1178C13.1987 17.0978 14.8038 18.7029 16.7838 18.7029Z" fill="#343434"/>
<path d="M2.1409 11.317C2.1409 11.3602 2.09766 11.4465 2.09766 11.4898C2.09766 11.8785 2.4 12.2241 2.83196 12.2241H8.92248C9.22482 12.2241 9.4408 12.0513 9.5704 11.7921C10.8232 9.02766 13.5876 7.17024 16.7407 7.17024C21.1034 7.17024 24.6454 10.7122 24.6454 15.0749C24.6454 19.4375 21.1034 22.9796 16.7407 22.9796C13.5443 22.9796 10.823 21.079 9.5704 18.4009C9.4408 18.0986 9.22482 17.9257 8.92236 17.9257H2.8322C2.44336 17.9257 2.09778 18.228 2.09778 18.6601C2.09778 18.7032 2.09778 18.7896 2.14102 18.8329C3.8256 25.3984 9.74326 30.2362 16.7841 30.2362C25.1208 30.2362 31.9022 23.4546 31.9022 15.1181C31.9022 6.78152 25.1204 0 16.7839 0C9.74326 0 3.82548 4.83786 2.1409 11.317Z" fill="#343434"/>
</svg>
