<svg width="24" height="24" viewBox="0 0 38 24" version="1.1" xmlns="http://www.w3.org/2000/svg" xmlns:xlink="http://www.w3.org/1999/xlink">
  <g stroke="none" stroke-width="1" fill="none" fill-rule="evenodd">
      <g fill-rule="nonzero">
          <path d="M19.487,7.018 C21.9371274,9.87870122 22.9373602,13.706352 22.2,17.4 C26.046,15.866 27.538,13.294 27.992,10.722 C27.992,10.722 29.303,5.848 31.341,3.822 C27.314,4.454 26.907,2.874 19.487,7.022" fill="#4DBEA4"></path>
          <path d="M13.326,12 C12.5209212,9.5131558 11.1326211,7.25498239 9.277,5.414 C9.277,5.414 14.877,6.886 18.101,17.338 C15.059,16.42 13.761,13.418 13.32,12 M20.255,18.84 C20.345,18.34 21.829,13.284 18.889,9.178 C13.966,3.722 6.546,2.956 6.546,2.956 C7.994,5.756 8.04,8.37 9.622,13.7 C11.539,19.218 18.612,19.59 19.136,19.6 C19.611,20.35 20.7,21.36 23.193,21.882 L23.469,20.568 C21.318,20.118 20.531,19.29 20.261,18.834" fill="#4DBEA4"></path>
          <path d="M7.34,1.35 C4.211,2.824 2.956,6.422 2.956,11.922 C2.956,17.322 4.209,20.942 7.34,22.522 L6.989,23.872 C2.18,22.186 0,18.438 0,11.944 C0,5.4 2.18,1.65 6.989,0 L7.34,1.35 Z" fill="#29434B"></path>
          <path d="M30.512,0 C35.325,1.648 37.5,5.4 37.5,11.942 C37.5,18.442 35.32,22.186 30.511,23.858 L30.136,22.51 C33.269,20.936 34.52,17.31 34.52,11.91 C34.52,6.41 33.267,2.816 30.136,1.342 L30.512,0 Z" fill="#29434B"></path>
      </g>
  </g>
</svg>