<svg width="32" height="32" viewBox="0 0 32 32" fill="none" xmlns="http://www.w3.org/2000/svg">
<g clip-path="url(#clip0)">
<path fill-rule="evenodd" clip-rule="evenodd" d="M26.784 15.4281C26.784 21.7652 21.7616 26.9024 15.566 26.9024C9.37058 26.9024 4.34814 21.7652 4.34814 15.4281C4.34814 9.09091 9.37058 3.95361 15.566 3.95361C21.7616 3.95361 26.784 9.09091 26.784 15.4281Z" fill="#D33833"/>
<path d="M4.80588 18.2697C4.80588 18.2697 3.99378 6.30391 15.0195 5.96199L14.2503 4.67993L8.26742 6.68853L6.55798 8.65429L5.06228 11.5177L4.20752 14.851L4.46392 17.0732" fill="#EF3D3A"/>
<path d="M7.88312 7.60015C5.91492 9.61399 4.69696 12.3945 4.69696 15.4705C4.69696 18.5459 5.91492 21.3267 7.88312 23.3403C9.85226 25.3537 12.5661 26.5961 15.5663 26.5961C18.5665 26.5961 21.2806 25.3537 23.2494 23.3403C25.2176 21.3267 26.4358 18.5459 26.4358 15.4705C26.4358 12.3945 25.2176 9.61399 23.2494 7.60015C21.2806 5.58707 18.5665 4.34463 15.5663 4.34437C12.5661 4.34463 9.85226 5.58707 7.88312 7.60015ZM7.38492 23.8273C5.29316 21.6881 4 18.7317 4 15.4705C4 12.2089 5.29316 9.2527 7.38492 7.11334C9.47616 4.9736 12.371 3.64733 15.5663 3.64771C18.7615 3.64733 21.6566 4.9736 23.7476 7.11334C25.8394 9.2527 27.1328 12.2091 27.1326 15.4705C27.1328 18.7317 25.8394 21.6881 23.7476 23.8273C21.6566 25.9669 18.7615 27.2931 15.5663 27.2931C12.371 27.2931 9.47616 25.9669 7.38492 23.8273Z" fill="#231F20"/>
<path fill-rule="evenodd" clip-rule="evenodd" d="M20.2888 15.4919L18.5793 15.7484L16.2716 16.0048L14.7758 16.0475L13.3228 16.0048L12.2117 15.6628L11.2287 14.5945L10.4595 12.415L10.2886 11.9449L9.26295 11.6031L8.66465 10.6202L8.2373 9.20989L8.70747 7.97053L9.81848 7.58591L10.7159 8.01335L11.1434 8.95347L11.6562 8.86797L11.827 8.65437L11.6562 7.67143L11.6134 6.43207L11.8698 4.72271L11.8598 3.74629L12.639 2.50053L14.0065 1.51758L16.3998 0.491943L19.0493 0.876559L21.357 2.54323L22.4254 4.25259L23.1092 5.49193L23.28 8.56887L22.7672 11.2185L21.827 13.5689L20.9296 14.8082" fill="#F0D6B7"/>
<path fill-rule="evenodd" clip-rule="evenodd" d="M18.8355 22.8847L12.7243 23.1411V24.1667L13.2371 27.7565L12.9807 28.0557L8.70726 26.6027L8.40802 26.0899L7.9807 21.2609L6.99792 18.3549L6.78418 17.6711L10.2029 15.3208L11.2714 14.8933L12.2115 16.0472L13.0234 16.7737L13.9637 17.0728L14.3909 17.201L14.9038 19.4232L15.2884 19.8933L16.2714 19.5514L15.5875 20.8763L19.3055 22.6283L18.8355 22.8847Z" fill="#335061"/>
<path fill-rule="evenodd" clip-rule="evenodd" d="M8.70764 7.9697L9.81868 7.5851L10.7161 8.01252L11.1435 8.95266L11.6564 8.86714L11.7846 8.35432L11.5282 7.3715L11.7846 5.021L11.5708 3.73894L12.3401 2.8415L14.0067 1.51676L13.5366 0.875732L11.1862 2.02958L10.2033 2.79882L9.64774 3.99536L8.79304 5.1492L8.53662 6.51676L8.70764 7.9697Z" fill="#6D6B6D"/>
<path fill-rule="evenodd" clip-rule="evenodd" d="M10.4594 3.95303C10.4594 3.95303 11.1004 2.37187 13.6645 1.60265C16.2286 0.833412 13.7927 1.04701 13.7927 1.04701L11.015 2.11547L9.94656 3.18379L9.47656 4.03855L10.4594 3.95303Z" fill="#DCD9D8"/>
<path fill-rule="evenodd" clip-rule="evenodd" d="M9.17764 7.67118C9.17764 7.67118 8.28022 4.67964 11.699 4.25232L11.5708 3.7395L9.22046 4.29514L8.53662 6.51732L8.70764 7.97028L9.17764 7.67118Z" fill="#DCD9D8"/>
<path fill-rule="evenodd" clip-rule="evenodd" d="M10.5449 11.6452L11.1045 11.103C11.1045 11.103 11.357 11.1324 11.3997 11.4315C11.4424 11.7307 11.5706 14.423 13.4082 15.8761C13.5758 16.0087 12.0407 15.6623 12.0407 15.6623L10.6731 13.5256" fill="#F7E4CD"/>
<path fill-rule="evenodd" clip-rule="evenodd" d="M18.4084 10.8331C18.4084 10.8331 18.508 9.53768 18.8568 9.6373C19.2057 9.73692 19.2057 10.0858 19.2057 10.0858C19.2057 10.0858 18.3585 10.6339 18.4084 10.8331Z" fill="#F7E4CD"/>
<path d="M21.9554 6.0896C21.9554 6.0896 21.251 6.2383 21.1862 6.85882C21.1214 7.47946 21.9554 6.98702 22.0836 6.94434" fill="#F7E4CD"/>
<path d="M16.784 6.13306C16.784 6.13306 15.8438 6.26128 15.8438 6.85948C15.8438 7.45782 16.9122 7.41512 17.2113 7.15872" fill="#F7E4CD"/>
<path fill-rule="evenodd" clip-rule="evenodd" d="M10.972 8.91001C10.972 8.91001 9.34802 7.92705 9.17716 8.86731C9.00624 9.80745 8.62152 10.4913 9.43356 11.4741L8.87802 11.3032L8.3652 9.97847L8.19434 8.69641L9.17716 7.67065L10.2883 7.75617L10.9293 8.26899L10.972 8.91001Z" fill="#F7E4CD"/>
<path fill-rule="evenodd" clip-rule="evenodd" d="M11.7412 6.2178C11.7412 6.2178 12.4677 2.45716 16.143 1.73061C19.1688 1.13254 20.7582 1.85882 21.3566 2.54254C21.3566 2.54254 18.6643 -0.662461 16.1002 0.320359C13.5361 1.30331 11.6558 3.09818 11.6985 4.2519C11.7712 6.21702 11.7412 6.2178 11.7412 6.2178Z" fill="#F7E4CD"/>
<path fill-rule="evenodd" clip-rule="evenodd" d="M21.6556 2.97019C21.6556 2.97019 20.4164 2.92749 20.3736 4.03865C20.3736 4.03865 20.3734 4.20955 20.459 4.38045C20.459 4.38045 21.442 3.26929 22.0402 3.86763" fill="#F7E4CD"/>
<path fill-rule="evenodd" clip-rule="evenodd" d="M16.229 4.49597C16.229 4.49597 16.0156 2.79045 14.5615 3.78199C13.6214 4.42301 13.7069 5.32045 13.8778 5.49135C14.0487 5.66237 14.0022 6.00661 14.1324 5.77033C14.2624 5.53405 14.2196 4.76481 14.6897 4.55123C15.1598 4.33751 15.9305 4.09879 16.229 4.49597Z" fill="#F7E4CD"/>
<path fill-rule="evenodd" clip-rule="evenodd" d="M12.2115 16.047L8.19444 17.8418C8.19444 17.8418 9.8611 24.4658 9.00634 26.517L8.40802 26.3036L8.3653 23.782L7.25434 18.9958L6.78418 17.6709L10.9721 14.8506L12.2115 16.047Z" fill="#49728B"/>
<path fill-rule="evenodd" clip-rule="evenodd" d="M12.6246 19.7109L13.1945 20.4063V22.9703H12.5107C12.5107 22.9703 12.4253 21.1755 12.4253 20.9617C12.4253 20.7481 12.5107 19.9788 12.5107 19.9788" fill="#49728B"/>
<path fill-rule="evenodd" clip-rule="evenodd" d="M12.6389 23.3545L10.7158 23.4399L11.2715 23.8245L12.6389 24.0381" fill="#49728B"/>
<path fill-rule="evenodd" clip-rule="evenodd" d="M19.2202 22.9274L20.8014 22.8848L21.186 26.8164L19.562 27.03L19.2202 22.9274Z" fill="#335061"/>
<path fill-rule="evenodd" clip-rule="evenodd" d="M19.6475 22.9269L22.0406 22.7987C22.0406 22.7987 23.0234 20.3201 23.0234 20.1919C23.0234 20.0637 23.8782 16.6021 23.8782 16.6021L21.9552 14.5937L21.5706 14.2517L20.5448 15.2774V19.2517L19.6475 22.9269Z" fill="#335061"/>
<path fill-rule="evenodd" clip-rule="evenodd" d="M20.7158 22.6279L19.2202 22.9271L19.4338 24.1237C19.9893 24.3801 20.9296 23.6963 20.9296 23.6963" fill="#49728B"/>
<path fill-rule="evenodd" clip-rule="evenodd" d="M20.7584 15.1498L23.7498 17.372L23.8352 16.3463L21.5702 14.2524L20.7584 15.1498Z" fill="#49728B"/>
<path fill-rule="evenodd" clip-rule="evenodd" d="M14.1217 31.3467L13.2369 27.7565L12.7969 25.1073L12.7241 23.1411L16.7286 22.9279L19.2199 22.9275L18.9934 27.4151L19.378 30.8765L19.3353 31.5177L16.0876 31.7741L14.1217 31.3467Z" fill="white"/>
<path fill-rule="evenodd" clip-rule="evenodd" d="M18.6643 22.8846C18.6643 22.8846 18.4507 27.3292 19.0917 30.4914C19.0917 30.4914 17.8096 31.3034 15.9292 31.517L19.519 31.3888L19.9463 31.1324L19.4335 24.124L19.3053 22.6282" fill="#DCD9D8"/>
<path fill-rule="evenodd" clip-rule="evenodd" d="M21.2588 26.4746L22.9254 26.0046L26.0876 25.8336L26.5578 24.3806L25.703 21.8592L24.7202 21.731L23.3526 22.1584L22.0406 22.799L21.344 22.6712L20.8012 22.8844" fill="white"/>
<path fill-rule="evenodd" clip-rule="evenodd" d="M21.2286 25.6197C21.2286 25.6197 22.3396 25.1071 22.5106 25.1497L22.0406 22.7993L22.596 22.5857C22.596 22.5857 22.9806 24.8079 22.9806 25.0643C22.9806 25.0643 25.3738 25.1925 25.5874 25.1925C25.5874 25.1925 26.1004 24.2095 25.9722 23.1839L26.4422 24.5513L26.485 25.3207L25.8012 26.3463L25.032 26.5171L23.75 26.4745L23.3226 25.9189L21.8268 26.1325L21.3568 26.3037" fill="#DCD9D8"/>
<path d="M19.5491 22.586L18.6089 20.1928L17.626 18.7825C17.626 18.7825 17.8396 18.1841 18.1388 18.1841C18.438 18.1841 19.1217 18.1841 19.1217 18.1841L20.0618 18.5261L19.9765 20.1072L19.5491 22.586Z" fill="white"/>
<path fill-rule="evenodd" clip-rule="evenodd" d="M19.7327 21.7739C19.7327 21.7739 18.536 19.4662 18.536 19.1243C18.536 19.1243 18.7496 18.6115 19.0489 18.7397C19.3481 18.8679 19.9891 19.2097 19.9891 19.2097V18.3978L18.536 18.0986L17.5532 18.2268L19.2199 22.1585L19.5617 22.2013" fill="#DCD9D8"/>
<path d="M14.5065 16.1332L13.3226 16.0045L12.2114 15.6626V16.0472L12.7543 16.6459L14.4637 17.4151" fill="white"/>
<path fill-rule="evenodd" clip-rule="evenodd" d="M12.596 16.261C12.596 16.261 13.9209 16.8167 14.3482 16.6885L14.3907 17.2008L13.1943 16.9449L12.4678 16.432L12.596 16.261Z" fill="#DCD9D8"/>
<path fill-rule="evenodd" clip-rule="evenodd" d="M21.2536 18.3296C20.5284 18.3083 19.8734 18.2222 19.2998 18.0604C19.3387 17.8252 19.2658 17.5945 19.3244 17.4251C19.4843 17.31 19.7522 17.3118 19.9939 17.2847C19.7849 17.182 19.4913 17.1414 19.2502 17.2007C19.2445 17.0375 19.1713 16.9364 19.127 16.8087C19.5346 16.6632 20.497 15.7092 21.0384 16.0251C21.2964 16.1754 21.406 17.0336 21.426 17.4509C21.4428 17.797 21.3946 18.1463 21.2536 18.3296Z" fill="#D33833"/>
<path d="M21.2536 18.3296C20.5284 18.3083 19.8734 18.2222 19.2998 18.0604C19.3387 17.8252 19.2658 17.5945 19.3244 17.4251C19.4843 17.31 19.7522 17.3118 19.9939 17.2847C19.7849 17.182 19.4913 17.1414 19.2502 17.2007C19.2445 17.0375 19.1713 16.9364 19.127 16.8087C19.5346 16.6632 20.497 15.7092 21.0384 16.0251C21.2964 16.1754 21.406 17.0336 21.426 17.4509C21.4428 17.797 21.3946 18.1463 21.2536 18.3296Z" stroke="#D33833" stroke-width="0.121681"/>
<path fill-rule="evenodd" clip-rule="evenodd" d="M17.7868 17.1445C17.7848 17.1993 17.7825 17.2546 17.7803 17.31C17.5539 17.4587 17.1884 17.4569 16.94 17.5819C17.3062 17.5979 17.5946 17.6861 17.8441 17.8105C17.8386 17.9487 17.8333 18.0868 17.8279 18.225C17.4129 18.5091 17.0338 18.9322 16.5452 19.1986C16.3142 19.3246 15.5034 19.6488 15.2576 19.5915C15.1185 19.5592 15.106 19.3866 15.0504 19.224C14.932 18.8756 14.6593 18.3211 14.6355 17.7968C14.6052 17.1345 14.5383 16.0245 15.2521 16.1609C15.8279 16.2707 16.4976 16.536 16.9434 16.7796C17.2159 16.9286 17.3734 17.1127 17.7868 17.1445Z" fill="#D33833"/>
<path d="M17.7868 17.1445C17.7848 17.1993 17.7825 17.2546 17.7803 17.31C17.5539 17.4587 17.1884 17.4569 16.94 17.5819C17.3062 17.5979 17.5946 17.6861 17.8441 17.8105C17.8386 17.9487 17.8333 18.0868 17.8279 18.225C17.4129 18.5091 17.0338 18.9322 16.5452 19.1986C16.3142 19.3246 15.5034 19.6488 15.2576 19.5915C15.1185 19.5592 15.106 19.3866 15.0504 19.224C14.932 18.8756 14.6593 18.3211 14.6355 17.7968C14.6052 17.1345 14.5383 16.0245 15.2521 16.1609C15.8279 16.2707 16.4976 16.536 16.9434 16.7796C17.2159 16.9286 17.3734 17.1127 17.7868 17.1445Z" stroke="#D33833" stroke-width="0.121681"/>
<path fill-rule="evenodd" clip-rule="evenodd" d="M18.199 17.9342C18.1356 17.5734 18.0624 17.4705 18.0907 17.1557C19.0529 16.5142 19.2336 18.2576 18.199 17.9342Z" fill="#D33833"/>
<path d="M18.199 17.9342C18.1356 17.5734 18.0624 17.4705 18.0907 17.1557C19.0529 16.5142 19.2336 18.2576 18.199 17.9342Z" stroke="#D33833" stroke-width="0.121681"/>
<path fill-rule="evenodd" clip-rule="evenodd" d="M19.5915 18.227C19.5915 18.227 19.2923 17.7995 19.506 17.6713C19.7197 17.5431 19.9334 17.6714 20.0616 17.4577C20.1898 17.244 20.0616 17.1158 20.1044 16.8594C20.147 16.603 20.3608 16.5602 20.5744 16.5175C20.788 16.4748 21.3864 16.3893 21.4718 16.603L21.2154 15.8337L20.7026 15.6628L19.0787 16.603L18.9932 17.0731V18.0132" fill="#EF3D3A"/>
<path fill-rule="evenodd" clip-rule="evenodd" d="M15.105 19.6372C15.0537 18.9703 14.9993 18.3043 14.9389 17.638C14.8484 16.6431 15.1779 16.8167 16.0402 16.8167C16.172 16.8167 16.8513 16.9737 16.8998 17.0731C17.1329 17.5491 16.5101 17.4434 17.1683 17.8023C17.724 18.1053 18.7055 17.6183 18.481 16.9449C18.3554 16.7951 17.8264 16.8982 17.6368 16.7999C17.3029 16.6268 16.9691 16.4538 16.6352 16.2807C16.2104 16.0603 15.2287 15.739 14.7758 16.0469C13.6283 16.8273 14.8482 18.7772 15.2576 19.5913" fill="#EF3D3A"/>
<path fill-rule="evenodd" clip-rule="evenodd" d="M16.2295 4.49624C15.0647 4.22496 14.486 4.98368 14.1329 5.7706C13.8177 5.6942 13.9431 5.26548 14.0227 5.04702C14.2312 4.47368 15.0714 3.71048 15.7579 3.81394C16.0533 3.85842 16.4531 4.12856 16.2295 4.49624Z" fill="#231F20"/>
<path fill-rule="evenodd" clip-rule="evenodd" d="M21.9044 5.82275C21.9226 5.82351 21.9412 5.82415 21.9596 5.82493C22.2228 6.37173 22.4506 6.95095 22.7826 7.43365C22.5602 7.95173 21.0982 8.41019 21.1208 7.47993C21.437 7.34173 21.9828 7.45173 22.263 7.27519C22.101 6.83045 21.8672 6.45185 21.9044 5.82275Z" fill="#231F20"/>
<path fill-rule="evenodd" clip-rule="evenodd" d="M16.8256 5.83691C17.0753 6.29473 17.1566 6.77577 17.5116 7.12179C17.6715 7.27755 17.9824 7.46743 17.8283 7.90063C17.7923 8.00281 17.5291 8.23063 17.3771 8.27537C16.8221 8.43923 15.5289 8.30923 15.9669 7.61729C16.4258 7.63871 17.0428 7.91537 17.3859 7.58217C17.1224 7.16101 16.6527 6.32781 16.8256 5.83691Z" fill="#231F20"/>
<path fill-rule="evenodd" clip-rule="evenodd" d="M21.6964 10.4896C20.8606 11.0264 19.9289 11.6101 18.5596 11.4747C18.2671 11.2204 18.1555 10.6544 18.4398 10.2805C18.5877 10.5349 18.4948 11.0027 18.9071 11.0731C19.684 11.206 20.5882 10.5978 21.147 10.3853C21.4936 9.80105 21.1172 9.58617 20.805 9.21015C20.166 8.43977 19.3086 7.48489 19.3398 6.33157C19.5981 6.14425 19.6204 6.61747 19.6575 6.70361C19.9912 7.48465 20.831 8.48349 21.444 9.15195C21.5946 9.31657 21.8424 9.47451 21.8698 9.58335C21.9494 9.89989 21.663 10.2791 21.6964 10.4896Z" fill="#231F20"/>
<path fill-rule="evenodd" clip-rule="evenodd" d="M10.6794 9.92468C10.4175 9.77518 10.3552 9.11672 10.0477 9.098C9.6082 9.07134 9.68834 9.95224 9.69008 10.4674C9.3876 10.1927 9.3344 9.34724 9.55662 8.913C9.30336 8.78864 9.19028 9.05018 9.0498 9.14236C9.23034 7.83082 10.9684 8.53404 10.6794 9.92468Z" fill="#231F20"/>
<path fill-rule="evenodd" clip-rule="evenodd" d="M22.228 11.0356C21.839 11.776 21.2888 12.5914 20.1474 12.6151C20.1242 12.376 20.1064 12.0122 20.1486 11.8682C21.0212 11.7844 21.56 11.3403 22.228 11.0356Z" fill="#231F20"/>
<path fill-rule="evenodd" clip-rule="evenodd" d="M16.7598 11.5156C17.4878 11.8984 18.8257 11.9396 19.8152 11.9106C19.8683 12.1274 19.867 12.3952 19.869 12.6596C18.5971 12.723 17.0933 12.4083 16.7598 11.5156Z" fill="#231F20"/>
<path fill-rule="evenodd" clip-rule="evenodd" d="M16.6216 12.2297C17.125 13.4937 18.8553 13.3482 20.3144 13.3133C20.2502 13.4774 20.111 13.6713 19.9379 13.7414C19.4703 13.9317 18.1807 14.076 17.5316 13.7313C17.1199 13.5124 16.8554 13.0179 16.6299 12.7281C16.521 12.5881 15.9786 12.2305 16.6216 12.2297Z" fill="#231F20"/>
<path fill-rule="evenodd" clip-rule="evenodd" d="M21.6352 19.2021C21.0444 20.2139 20.4792 21.2531 19.7783 22.1457C20.0722 21.2817 20.198 19.8356 20.2422 18.7331C20.857 18.4455 21.3834 18.7979 21.6352 19.2021Z" fill="#81B0C4"/>
<path fill-rule="evenodd" clip-rule="evenodd" d="M24.8138 22.8384C24.1524 22.9708 23.6878 23.6136 23.0424 23.5724C23.397 23.0724 24.0186 22.8616 24.8138 22.8384Z" fill="#231F20"/>
<path fill-rule="evenodd" clip-rule="evenodd" d="M25.1058 23.8737C24.5668 23.9307 23.9336 24.0179 23.3868 23.9731C23.6456 23.5777 24.6428 23.7141 25.1058 23.8737Z" fill="#231F20"/>
<path fill-rule="evenodd" clip-rule="evenodd" d="M25.2928 24.766C24.6868 24.7792 23.9338 24.767 23.358 24.7188C23.6986 24.3528 24.8998 24.583 25.2928 24.766Z" fill="#231F20"/>
<path fill-rule="evenodd" clip-rule="evenodd" d="M20.4954 27.2082C20.5824 27.9692 20.884 28.7402 20.8462 29.5734C20.5112 29.6864 20.3188 29.7852 19.8699 29.7846C19.8382 29.0764 19.7435 27.9938 19.7718 27.3186C19.9926 27.3332 20.3182 27.161 20.4954 27.2082Z" fill="#DCD9D8"/>
<path fill-rule="evenodd" clip-rule="evenodd" d="M19.5186 15.9937C19.2144 16.1923 18.9553 16.4403 18.6631 16.6523C18.0152 16.6844 17.6616 16.6075 17.1855 16.2354C17.1934 16.2055 17.2412 16.2188 17.243 16.1822C17.9366 16.4913 18.8182 16.0563 19.5186 15.9937Z" fill="#F0D6B7"/>
<path fill-rule="evenodd" clip-rule="evenodd" d="M15.8774 20.7218C16.068 19.8961 16.8147 19.4684 17.4928 19.0137C18.1926 19.9019 18.6183 21.0442 19.087 22.1464C17.9796 21.8126 16.848 21.271 15.8774 20.7218Z" fill="#81B0C4"/>
<path fill-rule="evenodd" clip-rule="evenodd" d="M19.7719 27.3185C19.7436 27.9937 19.8383 29.0763 19.87 29.7845C20.3188 29.7851 20.5112 29.6863 20.8462 29.5733C20.884 28.7401 20.5824 27.9691 20.4956 27.2081C20.3182 27.1609 19.9927 27.3331 19.7719 27.3185ZM12.7829 23.4789C13.0789 26.1999 13.5076 28.4871 14.2938 30.8965C16.0389 31.4263 18.1426 31.4725 19.685 30.9945C19.4018 29.6345 19.5255 27.9789 19.36 26.5277C19.2353 25.4371 19.2988 24.3395 19.1278 23.2267C17.2588 22.8379 14.6171 23.1359 12.7829 23.4789ZM19.5697 23.2439C19.554 24.4123 19.622 25.5651 19.7113 26.7351C20.16 26.6677 20.4644 26.6227 20.8814 26.5313C20.746 25.4049 20.7626 24.1375 20.487 23.1411C20.1682 23.1441 19.8876 23.1373 19.5697 23.2439ZM21.846 23.0555C21.633 23.0067 21.3852 23.0535 21.1816 23.0575C21.2774 24.0101 21.5094 25.0613 21.591 26.0611C21.9112 26.0711 22.0822 25.9201 22.3456 25.8693C22.3596 24.9917 22.2688 23.7823 21.846 23.0555ZM25.2926 26.2045C25.96 26.0425 26.3796 25.2251 26.193 24.3859C26.0676 23.8217 25.8446 22.7595 25.6058 22.3987C25.4294 22.1317 24.9512 21.7823 24.5692 22.0269C23.948 22.4247 22.8534 22.5401 22.4004 23.0217C22.6276 23.7781 22.698 24.8171 22.7918 25.7755C23.568 25.8239 24.523 25.5619 25.1684 25.8399C24.7178 25.9859 24.133 25.9871 23.7438 26.1999C24.062 26.3535 24.807 26.3225 25.2926 26.2045ZM19.0872 22.1463C18.6185 21.0441 18.1928 19.9018 17.4929 19.0135C16.8149 19.4683 16.0682 19.896 15.8776 20.7217C16.8482 21.2709 17.9797 21.8125 19.0872 22.1463ZM20.2426 18.7329C20.1982 19.8353 20.0724 21.2813 19.7786 22.1453C20.4794 21.2529 21.0448 20.2137 21.6356 19.2018C21.3838 18.7976 20.8574 18.4452 20.2426 18.7329ZM18.9328 18.2675C18.6673 18.2389 18.4419 18.5728 18.0967 18.4284C18.0176 18.5158 17.9456 18.6106 17.865 18.696C18.6276 19.615 18.9741 20.9187 19.5631 21.9987C19.8791 20.9613 19.8427 19.8248 19.9123 18.6925C19.4781 18.7201 19.2372 18.2998 18.9328 18.2675ZM18.0906 17.156C18.0623 17.4707 18.1355 17.5737 18.1988 17.9344C19.2335 18.2579 19.0528 16.5144 18.0906 17.156ZM16.9433 16.7793C16.4975 16.5357 15.8278 16.2705 15.252 16.1606C14.5382 16.0241 14.6051 17.1342 14.6354 17.7965C14.6592 18.3208 14.9319 18.8753 15.0503 19.2237C15.1059 19.3863 15.1184 19.5589 15.2575 19.5912C15.5033 19.6485 16.3141 19.3243 16.5451 19.1983C17.0337 18.9319 17.4128 18.5088 17.8278 18.2247C17.8332 18.0865 17.8385 17.9484 17.844 17.8102C17.5945 17.6858 17.3061 17.5976 16.9399 17.5816C17.1883 17.4566 17.5538 17.4584 17.7803 17.3097C17.7824 17.2543 17.7847 17.1991 17.7867 17.1442C17.3733 17.1124 17.2158 16.9283 16.9433 16.7793ZM12.6852 16.0058C12.3152 16.3815 13.7229 16.8935 14.1711 16.9211C14.1686 16.6834 14.3066 16.4593 14.2788 16.2888C13.7465 16.1953 13.0469 16.257 12.6852 16.0058ZM17.2431 16.1823C17.2413 16.2189 17.1935 16.2056 17.1856 16.2355C17.6617 16.6075 18.0153 16.6844 18.6632 16.6524C18.9554 16.4403 19.2145 16.1924 19.5187 15.9938C18.8183 16.0564 17.9367 16.4914 17.2431 16.1823ZM21.4266 17.4508C21.4066 17.0335 21.297 16.1753 21.039 16.0251C20.4976 15.7091 19.5353 16.6632 19.1276 16.8087C19.1719 16.9364 19.2451 17.0375 19.2508 17.2007C19.4919 17.1414 19.7855 17.182 19.9945 17.2847C19.7528 17.3117 19.4849 17.3099 19.325 17.4251C19.2664 17.5944 19.3394 17.8252 19.3004 18.0603C19.874 18.2221 20.529 18.3083 21.2542 18.3296C21.3952 18.1462 21.4434 17.797 21.4266 17.4508ZM12.0623 16.3692C11.9461 16.2864 11.1601 15.2637 11.0524 15.3061C9.63014 15.867 8.30026 16.8369 7.11186 17.7542C8.24492 20.1855 8.7023 23.1641 8.78312 26.0351C10.0811 26.6423 11.2212 27.5175 12.9825 27.6087C12.7787 26.1667 12.5926 24.8801 12.4769 23.5225C12.0344 23.3359 11.3995 23.5309 10.9853 23.4647C10.9818 22.9655 11.6178 23.2461 11.6708 22.9105C11.7107 22.6567 11.3208 22.6373 11.4478 22.2377C11.7716 22.3553 11.9416 22.6153 12.2869 22.7129C12.6024 22.0227 12.2825 20.8013 12.3279 20.2245C12.3366 20.1161 12.382 19.6243 12.6247 19.7106C12.8394 19.787 12.6124 21.0185 12.6359 21.5645C12.6574 22.0677 12.5752 22.5545 12.7789 22.8703C14.4809 22.6385 16.2104 22.4889 18.0519 22.4383C17.6468 22.2645 17.1655 22.0999 16.6378 21.8025C16.3518 21.6413 15.4501 21.3057 15.3676 21.0341C15.2359 20.6011 15.7131 20.3705 15.7947 19.9993C14.9356 20.4679 14.768 19.5502 14.5648 18.9001C14.3806 18.3112 14.2758 17.8714 14.2306 17.5317C13.4906 17.1789 12.6993 16.8216 12.0623 16.3692ZM20.675 15.4298C21.86 14.8552 22.0736 17.5774 21.609 18.4543C21.6808 18.7158 21.9278 18.816 22.0286 19.0511C21.3674 20.2357 20.6328 21.3415 19.9581 22.5121C20.46 22.1997 21.177 22.4563 21.7676 22.2223C21.9834 22.1371 22.1398 21.6427 22.3032 21.2473C22.7528 20.1595 23.2248 18.7882 23.4348 17.7501C23.4824 17.5135 23.6116 16.9982 23.5826 16.7876C23.5308 16.4107 23.0194 16.1312 22.7594 15.8982C22.2802 15.4676 21.9784 15.0888 21.4784 14.6862C21.2758 14.9855 20.8408 15.1865 20.675 15.4298ZM9.35218 4.92106C8.78754 5.54234 8.90572 6.70644 8.97408 7.53466C9.99472 6.8926 11.3494 7.58542 11.3366 8.67748C11.8239 8.66452 11.5186 8.06888 11.4305 7.68516C11.1425 6.43184 11.9158 5.07016 11.4656 3.92402C10.5914 3.9903 9.87326 4.34734 9.35218 4.92106ZM13.3924 1.31517C12.1141 1.67747 10.4758 2.60632 9.95054 3.75466C10.3573 3.69554 10.6396 3.49042 11.0409 3.46504C11.1925 3.45516 11.3912 3.52862 11.5655 3.4853C11.9128 3.39914 12.2059 2.62042 12.4679 2.33068C12.7233 2.04772 13.0303 1.92683 13.2404 1.66888C13.3754 1.60375 13.5749 1.60824 13.5826 1.40555C13.5241 1.34299 13.4625 1.29529 13.3924 1.31517ZM20.0466 1.65593C18.7199 0.907344 16.4741 0.344268 15.0627 1.04785C13.9239 1.61568 12.3845 2.55516 11.8597 3.74568C12.35 4.89452 11.7145 5.94722 11.6739 7.11362C11.6524 7.73426 11.9661 8.27606 11.9902 8.9517C11.8224 9.2285 11.3098 9.2626 10.955 9.24362C10.8356 8.64594 10.6265 7.97414 10.011 7.9067C9.1401 7.81144 8.50332 8.53222 8.46376 9.28542C8.41694 10.1712 9.1441 11.6393 10.1748 11.5374C10.5729 11.498 10.6707 11.0989 11.1045 11.103C11.3396 11.5721 10.7418 11.7194 10.6803 12.0549C10.6643 12.1416 10.7299 12.4803 10.768 12.6392C10.9553 13.4126 11.3726 14.4137 11.7833 15.0025C12.3047 15.7494 13.3289 15.862 14.4308 15.9352C14.6276 15.5112 15.3526 15.5461 15.825 15.657C15.2589 15.4328 14.7325 14.8892 14.2963 14.408C13.7953 13.856 13.2877 13.2638 13.2621 12.5423C14.209 13.8558 14.9912 15.003 16.713 15.5808C18.0158 16.0178 19.5373 15.3806 20.5384 14.6776C20.9538 14.3855 21.2016 13.9219 21.497 13.4975C22.6016 11.9084 23.1172 9.64016 23.0038 7.4417C22.9572 6.53504 22.9592 5.63144 22.655 5.02144C22.337 4.38362 21.2616 3.81298 20.6322 4.3899C20.5156 3.76966 21.1556 3.38606 21.9076 3.60926C21.3714 2.91734 20.8088 2.08594 20.0466 1.65593ZM22.5186 22.1133C23.5554 21.5979 25.4926 20.7259 26.1426 22.1153C26.3824 22.6273 26.6638 23.4929 26.788 24.0215C26.9636 24.7673 26.5978 26.3347 25.8312 26.5849C25.1542 26.8059 24.3642 26.7925 23.5488 26.6287C23.4526 26.5489 23.3458 26.4095 23.271 26.2645C22.6888 26.2419 22.1434 26.2957 21.6834 26.5351C21.727 26.9657 21.4358 27.0349 21.1626 27.1235C20.9602 27.9263 21.5676 28.9745 21.4224 29.7063C21.3186 30.2277 20.677 30.3085 20.2056 30.4059C20.1902 30.6957 20.2262 30.9377 20.2584 31.1827C20.1506 31.5801 19.6669 31.8063 19.2087 31.8617C17.7011 32.0429 15.4121 32.1243 13.9621 31.6029C13.5574 30.6103 13.2386 29.4031 12.9016 28.2699C11.4874 28.4209 10.3435 27.6595 9.2652 27.1609C8.89186 26.9877 8.37538 26.8925 8.2359 26.5953C8.10068 26.3075 8.15602 25.7561 8.12246 25.2353C8.03708 23.9049 7.96396 22.6217 7.61264 21.2595C7.4549 20.6481 7.17996 20.1087 6.98814 19.5198C6.81086 18.9739 6.50112 18.2993 6.42034 17.7549C6.30056 16.9482 7.06026 16.9033 7.54604 16.5537C8.297 16.013 8.88644 15.7141 9.69974 15.2261C9.94062 15.0816 10.667 14.7158 10.7497 14.5474C10.9139 14.2134 10.4677 13.7425 10.3484 13.4807C10.1597 13.0667 10.0613 12.7151 10.0343 12.3066C9.35204 12.1988 8.83486 11.7928 8.52246 11.3349C8.00568 10.5773 7.6473 9.17542 8.09442 8.10914C8.12948 8.02516 8.30436 7.86004 8.33014 7.73106C8.38104 7.47708 8.2344 7.1394 8.22528 6.86926C8.1783 5.48336 8.45976 4.28926 9.39276 3.87132C9.7715 2.36248 11.1271 1.86081 12.4043 1.11093C12.8817 0.830678 13.408 0.651574 13.9515 0.451576C15.9013 -0.265988 18.8928 -0.13086 20.511 1.09299C21.1972 1.61196 22.294 2.70772 22.6862 3.50106C23.7224 5.59554 23.6488 9.09594 22.924 11.6438C22.8266 11.9858 22.6854 12.4887 22.488 12.8996C22.3506 13.1865 21.923 13.7606 21.9748 14.0139C22.0284 14.2758 22.9498 14.9755 23.1474 15.166C23.503 15.5092 24.179 15.9647 24.2338 16.3978C24.2926 16.8587 24.0306 17.4892 23.898 17.9339C23.4544 19.4181 23.0216 20.7901 22.5186 22.1133Z" fill="#231F20"/>
<path fill-rule="evenodd" clip-rule="evenodd" d="M15.6013 11.8391C15.6575 11.7642 15.9668 11.6505 16.3995 11.8588C16.3995 11.8588 15.8867 11.9443 15.9293 12.7993L15.7156 12.7565C15.7156 12.7565 15.4948 11.9813 15.6013 11.8391Z" fill="#F7E4CD"/>
<path fill-rule="evenodd" clip-rule="evenodd" d="M19.3481 19.1881C19.3481 19.3178 19.2428 19.423 19.1129 19.423C18.9832 19.423 18.8779 19.3178 18.8779 19.1881C18.8779 19.0583 18.9832 18.9529 19.1129 18.9529C19.2428 18.9529 19.3481 19.0583 19.3481 19.1881Z" fill="#1D1919"/>
<path fill-rule="evenodd" clip-rule="evenodd" d="M19.5834 20.2779C19.5834 20.4075 19.4782 20.5127 19.3483 20.5127C19.2185 20.5127 19.1133 20.4075 19.1133 20.2779C19.1133 20.1481 19.2185 20.0427 19.3483 20.0427C19.4782 20.0427 19.5834 20.1481 19.5834 20.2779Z" fill="#1D1919"/>
</g>
<defs>
<clipPath id="clip0">
<rect width="32" height="32" fill="white"/>
</clipPath>
</defs>
</svg>
