<svg width="32" height="32" viewBox="0 0 32 32" fill="none" xmlns="http://www.w3.org/2000/svg">
<g clip-path="url(#clip0)">
<path fill-rule="evenodd" clip-rule="evenodd" d="M26.784 15.4281C26.784 21.7652 21.7616 26.9024 15.566 26.9024C9.37058 26.9024 4.34814 21.7652 4.34814 15.4281C4.34814 9.09091 9.37058 3.95361 15.566 3.95361C21.7616 3.95361 26.784 9.09091 26.784 15.4281Z" fill="#D33833"/>
<path d="M4.80588 18.2695C4.80588 18.2695 3.99378 6.30376 15.0195 5.96184L14.2503 4.67978L8.26742 6.68838L6.55798 8.65414L5.06228 11.5175L4.20752 14.8508L4.46392 17.073" fill="#EF3D3A"/>
<path d="M7.88312 7.60005C5.91492 9.61389 4.69696 12.3944 4.69696 15.4704C4.69696 18.5458 5.91492 21.3266 7.88312 23.3402C9.85226 25.3536 12.5661 26.596 15.5663 26.596C18.5665 26.596 21.2806 25.3536 23.2494 23.3402C25.2176 21.3266 26.4358 18.5458 26.4358 15.4704C26.4358 12.3944 25.2176 9.61389 23.2494 7.60005C21.2806 5.58697 18.5665 4.34453 15.5663 4.34427C12.5661 4.34453 9.85226 5.58697 7.88312 7.60005ZM7.38492 23.8272C5.29316 21.688 4 18.7316 4 15.4704C4 12.2088 5.29316 9.25261 7.38492 7.11325C9.47616 4.97351 12.371 3.64723 15.5663 3.64761C18.7615 3.64723 21.6566 4.97351 23.7476 7.11325C25.8394 9.25261 27.1328 12.209 27.1326 15.4704C27.1328 18.7316 25.8394 21.688 23.7476 23.8272C21.6566 25.9668 18.7615 27.293 15.5663 27.293C12.371 27.293 9.47616 25.9668 7.38492 23.8272Z" fill="#231F20"/>
<path fill-rule="evenodd" clip-rule="evenodd" d="M20.2888 15.4918L18.5793 15.7483L16.2716 16.0047L14.7758 16.0474L13.3228 16.0047L12.2117 15.6627L11.2287 14.5944L10.4595 12.4149L10.2886 11.9448L9.26295 11.603L8.66465 10.6201L8.2373 9.2098L8.70747 7.97044L9.81848 7.58582L10.7159 8.01326L11.1434 8.95338L11.6562 8.86788L11.827 8.65428L11.6562 7.67134L11.6134 6.43198L11.8698 4.72262L11.8598 3.7462L12.639 2.50044L14.0065 1.51749L16.3998 0.491852L19.0493 0.876468L21.357 2.54314L22.4254 4.2525L23.1092 5.49184L23.28 8.56878L22.7672 11.2184L21.827 13.5688L20.9296 14.8081" fill="#F0D6B7"/>
<path fill-rule="evenodd" clip-rule="evenodd" d="M18.8355 22.8846L12.7243 23.141V24.1666L13.2371 27.7564L12.9807 28.0556L8.70726 26.6026L8.40802 26.0898L7.9807 21.2608L6.99792 18.3548L6.78418 17.671L10.2029 15.3207L11.2714 14.8932L12.2115 16.0471L13.0234 16.7736L13.9637 17.0727L14.3909 17.2009L14.9038 19.4231L15.2884 19.8932L16.2714 19.5513L15.5875 20.8762L19.3055 22.6282L18.8355 22.8846Z" fill="#335061"/>
<path fill-rule="evenodd" clip-rule="evenodd" d="M8.70764 7.96967L9.81868 7.58507L10.7161 8.01249L11.1435 8.95263L11.6564 8.86711L11.7846 8.35429L11.5282 7.37147L11.7846 5.02097L11.5708 3.73891L12.3401 2.84147L14.0067 1.51673L13.5366 0.875702L11.1862 2.02955L10.2033 2.79879L9.64774 3.99533L8.79304 5.14917L8.53662 6.51673L8.70764 7.96967Z" fill="#6D6B6D"/>
<path fill-rule="evenodd" clip-rule="evenodd" d="M10.4594 3.95306C10.4594 3.95306 11.1004 2.3719 13.6645 1.60268C16.2286 0.833446 13.7927 1.04704 13.7927 1.04704L11.015 2.1155L9.94656 3.18382L9.47656 4.03858L10.4594 3.95306Z" fill="#DCD9D8"/>
<path fill-rule="evenodd" clip-rule="evenodd" d="M9.17764 7.67112C9.17764 7.67112 8.28022 4.67958 11.699 4.25226L11.5708 3.73944L9.22046 4.29508L8.53662 6.51726L8.70764 7.97022L9.17764 7.67112Z" fill="#DCD9D8"/>
<path fill-rule="evenodd" clip-rule="evenodd" d="M10.5449 11.6451L11.1045 11.1029C11.1045 11.1029 11.357 11.1323 11.3997 11.4314C11.4424 11.7306 11.5706 14.4229 13.4082 15.876C13.5758 16.0086 12.0407 15.6622 12.0407 15.6622L10.6731 13.5255" fill="#F7E4CD"/>
<path fill-rule="evenodd" clip-rule="evenodd" d="M18.4084 10.833C18.4084 10.833 18.508 9.53762 18.8568 9.63724C19.2057 9.73686 19.2057 10.0857 19.2057 10.0857C19.2057 10.0857 18.3585 10.6338 18.4084 10.833Z" fill="#F7E4CD"/>
<path d="M21.9554 6.0896C21.9554 6.0896 21.251 6.2383 21.1862 6.85882C21.1214 7.47946 21.9554 6.98702 22.0836 6.94434" fill="#F7E4CD"/>
<path d="M16.784 6.13293C16.784 6.13293 15.8438 6.26115 15.8438 6.85935C15.8438 7.45769 16.9122 7.41499 17.2113 7.15859" fill="#F7E4CD"/>
<path fill-rule="evenodd" clip-rule="evenodd" d="M10.972 8.91001C10.972 8.91001 9.34802 7.92705 9.17716 8.86731C9.00624 9.80745 8.62152 10.4913 9.43356 11.4741L8.87802 11.3032L8.3652 9.97847L8.19434 8.69641L9.17716 7.67065L10.2883 7.75617L10.9293 8.26899L10.972 8.91001Z" fill="#F7E4CD"/>
<path fill-rule="evenodd" clip-rule="evenodd" d="M11.7412 6.21777C11.7412 6.21777 12.4677 2.45713 16.143 1.73058C19.1688 1.13251 20.7582 1.85879 21.3566 2.54251C21.3566 2.54251 18.6643 -0.662491 16.1002 0.320329C13.5361 1.30328 11.6558 3.09815 11.6985 4.25187C11.7712 6.21699 11.7412 6.21777 11.7412 6.21777Z" fill="#F7E4CD"/>
<path fill-rule="evenodd" clip-rule="evenodd" d="M21.6556 2.97013C21.6556 2.97013 20.4164 2.92743 20.3736 4.03859C20.3736 4.03859 20.3734 4.20949 20.459 4.38039C20.459 4.38039 21.442 3.26923 22.0402 3.86757" fill="#F7E4CD"/>
<path fill-rule="evenodd" clip-rule="evenodd" d="M16.229 4.496C16.229 4.496 16.0156 2.79048 14.5615 3.78202C13.6214 4.42304 13.7069 5.32048 13.8778 5.49138C14.0487 5.6624 14.0022 6.00664 14.1324 5.77036C14.2624 5.53408 14.2196 4.76484 14.6897 4.55126C15.1598 4.33754 15.9305 4.09882 16.229 4.496Z" fill="#F7E4CD"/>
<path fill-rule="evenodd" clip-rule="evenodd" d="M12.2115 16.047L8.19444 17.8418C8.19444 17.8418 9.8611 24.4658 9.00634 26.517L8.40802 26.3036L8.3653 23.782L7.25434 18.9958L6.78418 17.6709L10.9721 14.8506L12.2115 16.047Z" fill="#49728B"/>
<path fill-rule="evenodd" clip-rule="evenodd" d="M12.6246 19.7108L13.1945 20.4062V22.9702H12.5107C12.5107 22.9702 12.4253 21.1754 12.4253 20.9616C12.4253 20.748 12.5107 19.9787 12.5107 19.9787" fill="#49728B"/>
<path fill-rule="evenodd" clip-rule="evenodd" d="M12.6389 23.3544L10.7158 23.4398L11.2715 23.8244L12.6389 24.038" fill="#49728B"/>
<path fill-rule="evenodd" clip-rule="evenodd" d="M19.2202 22.9272L20.8014 22.8846L21.186 26.8162L19.562 27.0298L19.2202 22.9272Z" fill="#335061"/>
<path fill-rule="evenodd" clip-rule="evenodd" d="M19.6475 22.9268L22.0406 22.7986C22.0406 22.7986 23.0234 20.32 23.0234 20.1918C23.0234 20.0636 23.8782 16.602 23.8782 16.602L21.9552 14.5936L21.5706 14.2516L20.5448 15.2773V19.2516L19.6475 22.9268Z" fill="#335061"/>
<path fill-rule="evenodd" clip-rule="evenodd" d="M20.7158 22.6278L19.2202 22.927L19.4338 24.1236C19.9893 24.38 20.9296 23.6962 20.9296 23.6962" fill="#49728B"/>
<path fill-rule="evenodd" clip-rule="evenodd" d="M20.7584 15.1499L23.7498 17.3721L23.8352 16.3464L21.5702 14.2525L20.7584 15.1499Z" fill="#49728B"/>
<path fill-rule="evenodd" clip-rule="evenodd" d="M14.1217 31.3466L13.2369 27.7564L12.7969 25.1072L12.7241 23.141L16.7286 22.9278L19.2199 22.9274L18.9934 27.415L19.378 30.8764L19.3353 31.5176L16.0876 31.774L14.1217 31.3466Z" fill="white"/>
<path fill-rule="evenodd" clip-rule="evenodd" d="M18.6643 22.8846C18.6643 22.8846 18.4507 27.3292 19.0917 30.4914C19.0917 30.4914 17.8096 31.3034 15.9292 31.517L19.519 31.3888L19.9463 31.1324L19.4335 24.124L19.3053 22.6282" fill="#DCD9D8"/>
<path fill-rule="evenodd" clip-rule="evenodd" d="M21.2588 26.4746L22.9254 26.0046L26.0876 25.8336L26.5578 24.3806L25.703 21.8592L24.7202 21.731L23.3526 22.1584L22.0406 22.799L21.344 22.6712L20.8012 22.8844" fill="white"/>
<path fill-rule="evenodd" clip-rule="evenodd" d="M21.2286 25.6196C21.2286 25.6196 22.3396 25.107 22.5106 25.1496L22.0406 22.7992L22.596 22.5856C22.596 22.5856 22.9806 24.8078 22.9806 25.0642C22.9806 25.0642 25.3738 25.1924 25.5874 25.1924C25.5874 25.1924 26.1004 24.2094 25.9722 23.1838L26.4422 24.5512L26.485 25.3206L25.8012 26.3462L25.032 26.517L23.75 26.4744L23.3226 25.9188L21.8268 26.1324L21.3568 26.3036" fill="#DCD9D8"/>
<path d="M19.5491 22.586L18.6089 20.1928L17.626 18.7825C17.626 18.7825 17.8396 18.1841 18.1388 18.1841C18.438 18.1841 19.1217 18.1841 19.1217 18.1841L20.0618 18.5261L19.9765 20.1072L19.5491 22.586Z" fill="white"/>
<path fill-rule="evenodd" clip-rule="evenodd" d="M19.7327 21.7738C19.7327 21.7738 18.536 19.4661 18.536 19.1242C18.536 19.1242 18.7496 18.6114 19.0489 18.7396C19.3481 18.8678 19.9891 19.2096 19.9891 19.2096V18.3977L18.536 18.0985L17.5532 18.2267L19.2199 22.1584L19.5617 22.2012" fill="#DCD9D8"/>
<path d="M14.5065 16.1331L13.3226 16.0044L12.2114 15.6625V16.0471L12.7543 16.6458L14.4637 17.415" fill="white"/>
<path fill-rule="evenodd" clip-rule="evenodd" d="M12.596 16.2609C12.596 16.2609 13.9209 16.8166 14.3482 16.6884L14.3907 17.2007L13.1943 16.9448L12.4678 16.4319L12.596 16.2609Z" fill="#DCD9D8"/>
<path fill-rule="evenodd" clip-rule="evenodd" d="M21.2536 18.3296C20.5284 18.3083 19.8734 18.2222 19.2998 18.0604C19.3387 17.8252 19.2658 17.5945 19.3244 17.4251C19.4843 17.31 19.7522 17.3118 19.9939 17.2847C19.7849 17.182 19.4913 17.1414 19.2502 17.2007C19.2445 17.0375 19.1713 16.9364 19.127 16.8087C19.5346 16.6632 20.497 15.7092 21.0384 16.0251C21.2964 16.1754 21.406 17.0336 21.426 17.4509C21.4428 17.797 21.3946 18.1463 21.2536 18.3296Z" fill="#D33833"/>
<path d="M21.2536 18.3296C20.5284 18.3083 19.8734 18.2222 19.2998 18.0604C19.3387 17.8252 19.2658 17.5945 19.3244 17.4251C19.4843 17.31 19.7522 17.3118 19.9939 17.2847C19.7849 17.182 19.4913 17.1414 19.2502 17.2007C19.2445 17.0375 19.1713 16.9364 19.127 16.8087C19.5346 16.6632 20.497 15.7092 21.0384 16.0251C21.2964 16.1754 21.406 17.0336 21.426 17.4509C21.4428 17.797 21.3946 18.1463 21.2536 18.3296Z" stroke="#D33833" stroke-width="0.121681"/>
<path fill-rule="evenodd" clip-rule="evenodd" d="M17.7868 17.1444C17.7848 17.1992 17.7825 17.2545 17.7803 17.3099C17.5539 17.4586 17.1884 17.4568 16.94 17.5818C17.3062 17.5978 17.5946 17.686 17.8441 17.8104C17.8386 17.9486 17.8333 18.0867 17.8279 18.2249C17.4129 18.509 17.0338 18.9321 16.5452 19.1985C16.3142 19.3245 15.5034 19.6487 15.2576 19.5914C15.1185 19.5591 15.106 19.3865 15.0504 19.2239C14.932 18.8755 14.6593 18.321 14.6355 17.7967C14.6052 17.1344 14.5383 16.0244 15.2521 16.1608C15.8279 16.2706 16.4976 16.5359 16.9434 16.7795C17.2159 16.9285 17.3734 17.1126 17.7868 17.1444Z" fill="#D33833"/>
<path d="M17.7868 17.1444C17.7848 17.1992 17.7825 17.2545 17.7803 17.3099C17.5539 17.4586 17.1884 17.4568 16.94 17.5818C17.3062 17.5978 17.5946 17.686 17.8441 17.8104C17.8386 17.9486 17.8333 18.0867 17.8279 18.2249C17.4129 18.509 17.0338 18.9321 16.5452 19.1985C16.3142 19.3245 15.5034 19.6487 15.2576 19.5914C15.1185 19.5591 15.106 19.3865 15.0504 19.2239C14.932 18.8755 14.6593 18.321 14.6355 17.7967C14.6052 17.1344 14.5383 16.0244 15.2521 16.1608C15.8279 16.2706 16.4976 16.5359 16.9434 16.7795C17.2159 16.9285 17.3734 17.1126 17.7868 17.1444Z" stroke="#D33833" stroke-width="0.121681"/>
<path fill-rule="evenodd" clip-rule="evenodd" d="M18.199 17.9342C18.1356 17.5734 18.0624 17.4705 18.0907 17.1557C19.0529 16.5142 19.2336 18.2576 18.199 17.9342Z" fill="#D33833"/>
<path d="M18.199 17.9342C18.1356 17.5734 18.0624 17.4705 18.0907 17.1557C19.0529 16.5142 19.2336 18.2576 18.199 17.9342Z" stroke="#D33833" stroke-width="0.121681"/>
<path fill-rule="evenodd" clip-rule="evenodd" d="M19.5915 18.2271C19.5915 18.2271 19.2923 17.7996 19.506 17.6714C19.7197 17.5432 19.9334 17.6715 20.0616 17.4578C20.1898 17.2441 20.0616 17.1159 20.1044 16.8595C20.147 16.6031 20.3608 16.5603 20.5744 16.5176C20.788 16.4749 21.3864 16.3894 21.4718 16.6031L21.2154 15.8338L20.7026 15.6629L19.0787 16.6031L18.9932 17.0732V18.0133" fill="#EF3D3A"/>
<path fill-rule="evenodd" clip-rule="evenodd" d="M15.105 19.6372C15.0537 18.9703 14.9993 18.3043 14.9389 17.638C14.8484 16.6431 15.1779 16.8167 16.0402 16.8167C16.172 16.8167 16.8513 16.9737 16.8998 17.0731C17.1329 17.5491 16.5101 17.4434 17.1683 17.8023C17.724 18.1053 18.7055 17.6183 18.481 16.9449C18.3554 16.7951 17.8264 16.8982 17.6368 16.7999C17.3029 16.6268 16.9691 16.4538 16.6352 16.2807C16.2104 16.0603 15.2287 15.739 14.7758 16.0469C13.6283 16.8273 14.8482 18.7772 15.2576 19.5913" fill="#EF3D3A"/>
<path fill-rule="evenodd" clip-rule="evenodd" d="M16.2295 4.49615C15.0647 4.22487 14.486 4.98359 14.1329 5.77051C13.8177 5.69411 13.9431 5.26539 14.0227 5.04693C14.2312 4.47359 15.0714 3.71039 15.7579 3.81385C16.0533 3.85833 16.4531 4.12847 16.2295 4.49615Z" fill="#231F20"/>
<path fill-rule="evenodd" clip-rule="evenodd" d="M21.9044 5.82275C21.9226 5.82351 21.9412 5.82415 21.9596 5.82493C22.2228 6.37173 22.4506 6.95095 22.7826 7.43365C22.5602 7.95173 21.0982 8.41019 21.1208 7.47993C21.437 7.34173 21.9828 7.45173 22.263 7.27519C22.101 6.83045 21.8672 6.45185 21.9044 5.82275Z" fill="#231F20"/>
<path fill-rule="evenodd" clip-rule="evenodd" d="M16.8256 5.83679C17.0753 6.29461 17.1566 6.77565 17.5116 7.12167C17.6715 7.27743 17.9824 7.46731 17.8283 7.90051C17.7923 8.00269 17.5291 8.23051 17.3771 8.27525C16.8221 8.43911 15.5289 8.30911 15.9669 7.61717C16.4258 7.63859 17.0428 7.91525 17.3859 7.58205C17.1224 7.16089 16.6527 6.32769 16.8256 5.83679Z" fill="#231F20"/>
<path fill-rule="evenodd" clip-rule="evenodd" d="M21.6964 10.4897C20.8606 11.0265 19.9289 11.6102 18.5596 11.4748C18.2671 11.2205 18.1555 10.6545 18.4398 10.2806C18.5877 10.535 18.4948 11.0028 18.9071 11.0732C19.684 11.2061 20.5882 10.5979 21.147 10.3854C21.4936 9.80111 21.1172 9.58623 20.805 9.21021C20.166 8.43983 19.3086 7.48495 19.3398 6.33163C19.5981 6.14431 19.6204 6.61753 19.6575 6.70367C19.9912 7.48471 20.831 8.48355 21.444 9.15201C21.5946 9.31663 21.8424 9.47457 21.8698 9.58341C21.9494 9.89995 21.663 10.2792 21.6964 10.4897Z" fill="#231F20"/>
<path fill-rule="evenodd" clip-rule="evenodd" d="M10.6794 9.92459C10.4175 9.77509 10.3552 9.11663 10.0477 9.09791C9.6082 9.07125 9.68834 9.95215 9.69008 10.4673C9.3876 10.1926 9.3344 9.34715 9.55662 8.91291C9.30336 8.78855 9.19028 9.05009 9.0498 9.14227C9.23034 7.83073 10.9684 8.53395 10.6794 9.92459Z" fill="#231F20"/>
<path fill-rule="evenodd" clip-rule="evenodd" d="M22.228 11.0357C21.839 11.7761 21.2888 12.5915 20.1474 12.6152C20.1242 12.3761 20.1064 12.0123 20.1486 11.8683C21.0212 11.7845 21.56 11.3404 22.228 11.0357Z" fill="#231F20"/>
<path fill-rule="evenodd" clip-rule="evenodd" d="M16.7598 11.5156C17.4878 11.8984 18.8257 11.9396 19.8152 11.9106C19.8683 12.1274 19.867 12.3952 19.869 12.6596C18.5971 12.723 17.0933 12.4083 16.7598 11.5156Z" fill="#231F20"/>
<path fill-rule="evenodd" clip-rule="evenodd" d="M16.6216 12.2296C17.125 13.4936 18.8553 13.3481 20.3144 13.3132C20.2502 13.4773 20.111 13.6712 19.9379 13.7413C19.4703 13.9316 18.1807 14.0759 17.5316 13.7312C17.1199 13.5123 16.8554 13.0178 16.6299 12.728C16.521 12.588 15.9786 12.2304 16.6216 12.2296Z" fill="#231F20"/>
<path fill-rule="evenodd" clip-rule="evenodd" d="M21.6352 19.202C21.0444 20.2138 20.4792 21.253 19.7783 22.1456C20.0722 21.2816 20.198 19.8355 20.2422 18.733C20.857 18.4454 21.3834 18.7978 21.6352 19.202Z" fill="#81B0C4"/>
<path fill-rule="evenodd" clip-rule="evenodd" d="M24.8138 22.8384C24.1524 22.9708 23.6878 23.6136 23.0424 23.5724C23.397 23.0724 24.0186 22.8616 24.8138 22.8384Z" fill="#231F20"/>
<path fill-rule="evenodd" clip-rule="evenodd" d="M25.1058 23.8736C24.5668 23.9306 23.9336 24.0178 23.3868 23.973C23.6456 23.5776 24.6428 23.714 25.1058 23.8736Z" fill="#231F20"/>
<path fill-rule="evenodd" clip-rule="evenodd" d="M25.2928 24.766C24.6868 24.7792 23.9338 24.767 23.358 24.7188C23.6986 24.3528 24.8998 24.583 25.2928 24.766Z" fill="#231F20"/>
<path fill-rule="evenodd" clip-rule="evenodd" d="M20.4954 27.2082C20.5824 27.9692 20.884 28.7402 20.8462 29.5734C20.5112 29.6864 20.3188 29.7852 19.8699 29.7846C19.8382 29.0764 19.7435 27.9938 19.7718 27.3186C19.9926 27.3332 20.3182 27.161 20.4954 27.2082Z" fill="#DCD9D8"/>
<path fill-rule="evenodd" clip-rule="evenodd" d="M19.5186 15.9935C19.2144 16.1921 18.9553 16.4401 18.6631 16.6521C18.0152 16.6842 17.6616 16.6073 17.1855 16.2352C17.1934 16.2053 17.2412 16.2186 17.243 16.182C17.9366 16.4911 18.8182 16.0561 19.5186 15.9935Z" fill="#F0D6B7"/>
<path fill-rule="evenodd" clip-rule="evenodd" d="M15.8774 20.7218C16.068 19.8961 16.8147 19.4684 17.4928 19.0137C18.1926 19.9019 18.6183 21.0442 19.087 22.1464C17.9796 21.8126 16.848 21.271 15.8774 20.7218Z" fill="#81B0C4"/>
<path fill-rule="evenodd" clip-rule="evenodd" d="M19.7719 27.3184C19.7436 27.9936 19.8383 29.0762 19.87 29.7844C20.3188 29.785 20.5112 29.6862 20.8462 29.5732C20.884 28.74 20.5824 27.969 20.4956 27.208C20.3182 27.1608 19.9927 27.333 19.7719 27.3184ZM12.7829 23.4788C13.0789 26.1998 13.5076 28.487 14.2938 30.8964C16.0389 31.4262 18.1426 31.4724 19.685 30.9944C19.4018 29.6344 19.5255 27.9788 19.36 26.5276C19.2353 25.437 19.2988 24.3394 19.1278 23.2266C17.2588 22.8378 14.6171 23.1358 12.7829 23.4788ZM19.5697 23.2438C19.554 24.4122 19.622 25.565 19.7113 26.735C20.16 26.6676 20.4644 26.6226 20.8814 26.5312C20.746 25.4048 20.7626 24.1374 20.487 23.141C20.1682 23.144 19.8876 23.1372 19.5697 23.2438ZM21.846 23.0554C21.633 23.0066 21.3852 23.0534 21.1816 23.0574C21.2774 24.01 21.5094 25.0612 21.591 26.061C21.9112 26.071 22.0822 25.92 22.3456 25.8692C22.3596 24.9916 22.2688 23.7822 21.846 23.0554ZM25.2926 26.2044C25.96 26.0424 26.3796 25.225 26.193 24.3858C26.0676 23.8216 25.8446 22.7594 25.6058 22.3986C25.4294 22.1316 24.9512 21.7822 24.5692 22.0268C23.948 22.4246 22.8534 22.54 22.4004 23.0216C22.6276 23.778 22.698 24.817 22.7918 25.7754C23.568 25.8238 24.523 25.5618 25.1684 25.8398C24.7178 25.9858 24.133 25.987 23.7438 26.1998C24.062 26.3534 24.807 26.3224 25.2926 26.2044ZM19.0872 22.1462C18.6185 21.044 18.1928 19.9017 17.4929 19.0134C16.8149 19.4682 16.0682 19.8959 15.8776 20.7216C16.8482 21.2708 17.9797 21.8124 19.0872 22.1462ZM20.2426 18.7328C20.1982 19.8352 20.0724 21.2812 19.7786 22.1452C20.4794 21.2528 21.0448 20.2136 21.6356 19.2017C21.3838 18.7975 20.8574 18.4451 20.2426 18.7328ZM18.9328 18.2674C18.6673 18.2388 18.4419 18.5727 18.0967 18.4283C18.0176 18.5157 17.9456 18.6105 17.865 18.6959C18.6276 19.6149 18.9741 20.9186 19.5631 21.9986C19.8791 20.9612 19.8427 19.8247 19.9123 18.6924C19.4781 18.72 19.2372 18.2997 18.9328 18.2674ZM18.0906 17.1559C18.0623 17.4706 18.1355 17.5736 18.1988 17.9343C19.2335 18.2578 19.0528 16.5143 18.0906 17.1559ZM16.9433 16.7792C16.4975 16.5356 15.8278 16.2704 15.252 16.1605C14.5382 16.024 14.6051 17.1341 14.6354 17.7964C14.6592 18.3207 14.9319 18.8752 15.0503 19.2236C15.1059 19.3862 15.1184 19.5588 15.2575 19.5911C15.5033 19.6484 16.3141 19.3242 16.5451 19.1982C17.0337 18.9318 17.4128 18.5087 17.8278 18.2246C17.8332 18.0864 17.8385 17.9483 17.844 17.8101C17.5945 17.6857 17.3061 17.5975 16.9399 17.5815C17.1883 17.4565 17.5538 17.4583 17.7803 17.3096C17.7824 17.2542 17.7847 17.199 17.7867 17.1441C17.3733 17.1123 17.2158 16.9282 16.9433 16.7792ZM12.6852 16.0057C12.3152 16.3814 13.7229 16.8934 14.1711 16.921C14.1686 16.6833 14.3066 16.4592 14.2788 16.2887C13.7465 16.1952 13.0469 16.2569 12.6852 16.0057ZM17.2431 16.1822C17.2413 16.2188 17.1935 16.2055 17.1856 16.2354C17.6617 16.6074 18.0153 16.6843 18.6632 16.6523C18.9554 16.4402 19.2145 16.1923 19.5187 15.9937C18.8183 16.0563 17.9367 16.4913 17.2431 16.1822ZM21.4266 17.4507C21.4066 17.0334 21.297 16.1752 21.039 16.025C20.4976 15.709 19.5353 16.6631 19.1276 16.8086C19.1719 16.9363 19.2451 17.0374 19.2508 17.2006C19.4919 17.1413 19.7855 17.1819 19.9945 17.2846C19.7528 17.3116 19.4849 17.3098 19.325 17.425C19.2664 17.5943 19.3394 17.8251 19.3004 18.0602C19.874 18.222 20.529 18.3082 21.2542 18.3295C21.3952 18.1461 21.4434 17.7969 21.4266 17.4507ZM12.0623 16.3691C11.9461 16.2863 11.1601 15.2636 11.0524 15.306C9.63014 15.8669 8.30026 16.8368 7.11186 17.7541C8.24492 20.1854 8.7023 23.164 8.78312 26.035C10.0811 26.6422 11.2212 27.5174 12.9825 27.6086C12.7787 26.1666 12.5926 24.88 12.4769 23.5224C12.0344 23.3358 11.3995 23.5308 10.9853 23.4646C10.9818 22.9654 11.6178 23.246 11.6708 22.9104C11.7107 22.6566 11.3208 22.6372 11.4478 22.2376C11.7716 22.3552 11.9416 22.6152 12.2869 22.7128C12.6024 22.0226 12.2825 20.8012 12.3279 20.2244C12.3366 20.116 12.382 19.6242 12.6247 19.7105C12.8394 19.7869 12.6124 21.0184 12.6359 21.5644C12.6574 22.0676 12.5752 22.5544 12.7789 22.8702C14.4809 22.6384 16.2104 22.4888 18.0519 22.4382C17.6468 22.2644 17.1655 22.0998 16.6378 21.8024C16.3518 21.6412 15.4501 21.3056 15.3676 21.034C15.2359 20.601 15.7131 20.3704 15.7947 19.9992C14.9356 20.4678 14.768 19.5501 14.5648 18.9C14.3806 18.3111 14.2758 17.8713 14.2306 17.5316C13.4906 17.1788 12.6993 16.8215 12.0623 16.3691ZM20.675 15.4297C21.86 14.8551 22.0736 17.5773 21.609 18.4542C21.6808 18.7157 21.9278 18.8159 22.0286 19.051C21.3674 20.2356 20.6328 21.3414 19.9581 22.512C20.46 22.1996 21.177 22.4562 21.7676 22.2222C21.9834 22.137 22.1398 21.6426 22.3032 21.2472C22.7528 20.1594 23.2248 18.7881 23.4348 17.75C23.4824 17.5134 23.6116 16.9981 23.5826 16.7875C23.5308 16.4106 23.0194 16.1311 22.7594 15.8981C22.2802 15.4675 21.9784 15.0887 21.4784 14.6861C21.2758 14.9854 20.8408 15.1864 20.675 15.4297ZM9.35218 4.921C8.78754 5.54228 8.90572 6.70638 8.97408 7.5346C9.99472 6.89254 11.3494 7.58536 11.3366 8.67742C11.8239 8.66446 11.5186 8.06882 11.4305 7.6851C11.1425 6.43178 11.9158 5.0701 11.4656 3.92396C10.5914 3.99024 9.87326 4.34728 9.35218 4.921ZM13.3924 1.31511C12.1141 1.67741 10.4758 2.60626 9.95054 3.7546C10.3573 3.69548 10.6396 3.49036 11.0409 3.46498C11.1925 3.4551 11.3912 3.52856 11.5655 3.48524C11.9128 3.39908 12.2059 2.62036 12.4679 2.33062C12.7233 2.04766 13.0303 1.92677 13.2404 1.66882C13.3754 1.60369 13.5749 1.60818 13.5826 1.40549C13.5241 1.34293 13.4625 1.29523 13.3924 1.31511ZM20.0466 1.65587C18.7199 0.907283 16.4741 0.344207 15.0627 1.04779C13.9239 1.61562 12.3845 2.5551 11.8597 3.74562C12.35 4.89446 11.7145 5.94716 11.6739 7.11356C11.6524 7.7342 11.9661 8.276 11.9902 8.95164C11.8224 9.22844 11.3098 9.26254 10.955 9.24356C10.8356 8.64588 10.6265 7.97408 10.011 7.90664C9.1401 7.81138 8.50332 8.53216 8.46376 9.28536C8.41694 10.1711 9.1441 11.6392 10.1748 11.5373C10.5729 11.4979 10.6707 11.0988 11.1045 11.1029C11.3396 11.572 10.7418 11.7193 10.6803 12.0548C10.6643 12.1415 10.7299 12.4802 10.768 12.6391C10.9553 13.4125 11.3726 14.4136 11.7833 15.0024C12.3047 15.7493 13.3289 15.8619 14.4308 15.9351C14.6276 15.5111 15.3526 15.546 15.825 15.6569C15.2589 15.4327 14.7325 14.8891 14.2963 14.4079C13.7953 13.8559 13.2877 13.2637 13.2621 12.5422C14.209 13.8557 14.9912 15.0029 16.713 15.5807C18.0158 16.0177 19.5373 15.3805 20.5384 14.6775C20.9538 14.3854 21.2016 13.9218 21.497 13.4974C22.6016 11.9083 23.1172 9.6401 23.0038 7.44164C22.9572 6.53498 22.9592 5.63138 22.655 5.02138C22.337 4.38356 21.2616 3.81292 20.6322 4.38984C20.5156 3.7696 21.1556 3.386 21.9076 3.6092C21.3714 2.91728 20.8088 2.08588 20.0466 1.65587ZM22.5186 22.1132C23.5554 21.5978 25.4926 20.7258 26.1426 22.1152C26.3824 22.6272 26.6638 23.4928 26.788 24.0214C26.9636 24.7672 26.5978 26.3346 25.8312 26.5848C25.1542 26.8058 24.3642 26.7924 23.5488 26.6286C23.4526 26.5488 23.3458 26.4094 23.271 26.2644C22.6888 26.2418 22.1434 26.2956 21.6834 26.535C21.727 26.9656 21.4358 27.0348 21.1626 27.1234C20.9602 27.9262 21.5676 28.9744 21.4224 29.7062C21.3186 30.2276 20.677 30.3084 20.2056 30.4058C20.1902 30.6956 20.2262 30.9376 20.2584 31.1826C20.1506 31.58 19.6669 31.8062 19.2087 31.8616C17.7011 32.0428 15.4121 32.1242 13.9621 31.6028C13.5574 30.6102 13.2386 29.403 12.9016 28.2698C11.4874 28.4208 10.3435 27.6594 9.2652 27.1608C8.89186 26.9876 8.37538 26.8924 8.2359 26.5952C8.10068 26.3074 8.15602 25.756 8.12246 25.2352C8.03708 23.9048 7.96396 22.6216 7.61264 21.2594C7.4549 20.648 7.17996 20.1086 6.98814 19.5197C6.81086 18.9738 6.50112 18.2992 6.42034 17.7548C6.30056 16.9481 7.06026 16.9032 7.54604 16.5536C8.297 16.0129 8.88644 15.714 9.69974 15.226C9.94062 15.0815 10.667 14.7157 10.7497 14.5473C10.9139 14.2133 10.4677 13.7424 10.3484 13.4806C10.1597 13.0666 10.0613 12.715 10.0343 12.3065C9.35204 12.1987 8.83486 11.7927 8.52246 11.3348C8.00568 10.5772 7.6473 9.17536 8.09442 8.10908C8.12948 8.0251 8.30436 7.85998 8.33014 7.731C8.38104 7.47702 8.2344 7.13934 8.22528 6.8692C8.1783 5.4833 8.45976 4.2892 9.39276 3.87126C9.7715 2.36242 11.1271 1.86075 12.4043 1.11087C12.8817 0.830617 13.408 0.651513 13.9515 0.451515C15.9013 -0.266049 18.8928 -0.130921 20.511 1.09293C21.1972 1.6119 22.294 2.70766 22.6862 3.501C23.7224 5.59548 23.6488 9.09588 22.924 11.6437C22.8266 11.9857 22.6854 12.4886 22.488 12.8995C22.3506 13.1864 21.923 13.7605 21.9748 14.0138C22.0284 14.2757 22.9498 14.9754 23.1474 15.1659C23.503 15.5091 24.179 15.9646 24.2338 16.3977C24.2926 16.8586 24.0306 17.4891 23.898 17.9338C23.4544 19.418 23.0216 20.79 22.5186 22.1132Z" fill="#231F20"/>
<path fill-rule="evenodd" clip-rule="evenodd" d="M15.6013 11.8391C15.6575 11.7642 15.9668 11.6505 16.3995 11.8588C16.3995 11.8588 15.8867 11.9443 15.9293 12.7993L15.7156 12.7565C15.7156 12.7565 15.4948 11.9813 15.6013 11.8391Z" fill="#F7E4CD"/>
<path fill-rule="evenodd" clip-rule="evenodd" d="M19.3481 19.1879C19.3481 19.3176 19.2428 19.4228 19.1129 19.4228C18.9832 19.4228 18.8779 19.3176 18.8779 19.1879C18.8779 19.0581 18.9832 18.9527 19.1129 18.9527C19.2428 18.9527 19.3481 19.0581 19.3481 19.1879Z" fill="#1D1919"/>
<path fill-rule="evenodd" clip-rule="evenodd" d="M19.5834 20.2778C19.5834 20.4074 19.4782 20.5126 19.3483 20.5126C19.2185 20.5126 19.1133 20.4074 19.1133 20.2778C19.1133 20.148 19.2185 20.0426 19.3483 20.0426C19.4782 20.0426 19.5834 20.148 19.5834 20.2778Z" fill="#1D1919"/>
</g>
<defs>
<clipPath id="clip0">
<rect width="32" height="32" fill="white"/>
</clipPath>
</defs>
</svg>
