<svg width="32" height="32" viewBox="0 0 32 32" fill="none" xmlns="http://www.w3.org/2000/svg">
<g clip-path="url(#clip0)">
<path d="M7.96792 24.6894C6.95228 25.2214 5.93664 25.7694 4.90488 26.253C3.6313 26.8334 2.29324 27.0592 0.906798 26.8334C0.56825 26.769 0.165218 26.7206 0.0362473 26.3498C-0.108845 25.963 0.213582 25.705 0.43928 25.4632C1.00353 24.8828 1.71286 24.4798 2.37384 24.0122C3.67966 23.0934 4.88876 22.0776 5.71094 20.6912C6.48476 19.4015 6.62986 18.0473 6.09786 16.6125C5.58198 15.2422 4.93712 13.9042 4.7598 12.421C4.13106 7.14934 7.21022 2.26458 12.2562 0.571846C13.3847 0.184934 14.5293 0.023721 15.7545 0.00759965C16.9153 -0.00852165 18.0276 -0.024643 19.1561 0.24942C23.8958 1.36179 27.4102 5.85964 27.3134 10.7121C27.2974 11.8568 27.0072 12.9369 26.588 13.9848C26.2334 14.8876 25.911 15.7904 25.7174 16.7254C25.2822 18.7889 26.04 20.401 27.5876 21.7068C28.2162 22.2388 28.9096 22.7064 29.5382 23.2546C30.038 23.6898 30.6506 24.2862 30.2154 24.9472C29.78 25.6244 29.0546 25.0762 28.4742 24.8828C28.1034 24.7538 27.7648 24.5604 27.3458 24.3508C27.4264 24.7538 27.6682 24.9312 27.8294 25.1568C28.313 25.8016 28.829 26.4144 29.1836 27.1398C29.4092 27.6072 29.7962 28.1392 29.3932 28.639C28.9578 29.155 28.313 29.0098 27.7326 28.8648C26.9588 28.6552 26.33 28.1876 25.798 27.6234C25.0404 26.8334 24.315 25.9952 23.5734 25.189C23.396 24.9956 23.2186 24.786 23.0092 24.6248C22.2352 23.98 21.7838 24.0928 21.5098 25.0602C21.2196 26.0758 21.3164 27.1398 21.3324 28.1716C21.3324 29.0744 21.1874 29.9288 20.8166 30.751C20.1234 32.2824 18.9788 32.4114 17.9148 31.1056C17.0603 30.0578 16.8991 28.768 16.6896 27.4944C16.5606 26.7044 16.4316 25.9146 16.0769 25.173C15.5288 23.9638 14.8195 23.8348 13.8683 24.786C13.159 25.4954 12.6754 26.366 12.1433 27.2042C11.3695 28.4618 10.4829 29.6386 9.32212 30.5898C8.80624 31.0088 8.22588 31.3958 7.5649 31.1056C6.95228 30.8316 6.8072 30.1544 6.74272 29.5418C6.62986 28.5906 6.92004 27.6878 7.24248 26.8012C7.4843 26.1242 7.7906 25.4632 8.06466 24.8022C8.08078 24.7376 8.08078 24.6732 8.0969 24.6088C8.06466 24.641 8.0163 24.657 7.96792 24.6894Z" fill="#2F93DF"/>
</g>
<defs>
<clipPath id="clip0">
<rect width="32" height="32" fill="white"/>
</clipPath>
</defs>
</svg>
