<svg width="16" height="12" viewBox="0 0 16 12" fill="none" xmlns="http://www.w3.org/2000/svg">
<path d="M14 0.666667C13.26 0.433334 12.4466 0.333334 11.6666 0.333334C10.3666 0.333334 8.96663 0.600001 7.99996 1.33333C7.03329 0.600001 5.63329 0.333334 4.33329 0.333334C3.03329 0.333334 1.63329 0.600001 0.666626 1.33333V11.1C0.666626 11.2667 0.833293 11.4333 0.999959 11.4333C1.06663 11.4333 1.09996 11.4 1.16663 11.4C2.06663 10.9667 3.36663 10.6667 4.33329 10.6667C5.63329 10.6667 7.03329 10.9333 7.99996 11.6667C8.89996 11.1 10.5333 10.6667 11.6666 10.6667C12.7666 10.6667 13.9 10.8667 14.8333 11.3667C14.9 11.4 14.9333 11.4 15 11.4C15.1666 11.4 15.3333 11.2333 15.3333 11.0667V1.33333C14.9333 1.03333 14.5 0.833334 14 0.666667ZM14 9.66667C13.2666 9.43333 12.4666 9.33333 11.6666 9.33333C10.5333 9.33333 8.89996 9.76667 7.99996 10.3333V2.66667C8.89996 2.1 10.5333 1.66667 11.6666 1.66667C12.4666 1.66667 13.2666 1.76667 14 2V9.66667Z" fill="#131314"/>
</svg>
