<svg width="16" height="12" viewBox="0 0 16 12" fill="none" xmlns="http://www.w3.org/2000/svg">
<path d="M14.0001 0.666646C13.2601 0.433313 12.4467 0.333313 11.6667 0.333313C10.3667 0.333313 8.96675 0.59998 8.00008 1.33331C7.03341 0.59998 5.63341 0.333313 4.33341 0.333313C3.03341 0.333313 1.63341 0.59998 0.666748 1.33331V11.1C0.666748 11.2666 0.833415 11.4333 1.00008 11.4333C1.06675 11.4333 1.10008 11.4 1.16675 11.4C2.06675 10.9666 3.36675 10.6666 4.33341 10.6666C5.63341 10.6666 7.03341 10.9333 8.00008 11.6666C8.90008 11.1 10.5334 10.6666 11.6667 10.6666C12.7667 10.6666 13.9001 10.8666 14.8334 11.3666C14.9001 11.4 14.9334 11.4 15.0001 11.4C15.1667 11.4 15.3334 11.2333 15.3334 11.0666V1.33331C14.9334 1.03331 14.5001 0.833313 14.0001 0.666646ZM14.0001 9.66665C13.2667 9.43331 12.4667 9.33331 11.6667 9.33331C10.5334 9.33331 8.90008 9.76665 8.00008 10.3333V2.66665C8.90008 2.09998 10.5334 1.66665 11.6667 1.66665C12.4667 1.66665 13.2667 1.76665 14.0001 1.99998V9.66665Z" fill="#5F6065"/>
</svg>
