<?xml version="1.0" encoding="utf-8"?>
<!-- Generator: Adobe Illustrator 22.1.0, SVG Export Plug-In . SVG Version: 6.00 Build 0)  -->
<svg version="1.1" id="Layer_1" xmlns="http://www.w3.org/2000/svg" xmlns:xlink="http://www.w3.org/1999/xlink" x="0px" y="0px"
	 viewBox="0 0 134 94" style="enable-background:new 0 0 134 94;" xml:space="preserve">
<style type="text/css">
	.st0{fill:none;stroke:#00ACF2;stroke-width:3;stroke-linecap:round;stroke-linejoin:round;}
	.st1{fill:none;stroke:#2FC89F;stroke-width:3;stroke-linecap:round;stroke-linejoin:round;}
</style>
<title>icons/icon-eco2</title>
<desc>Created with Sketch.</desc>
<g id="icons_x2F_icon-eco2">
	<g id="Group" transform="translate(31.000000, -3.000000)">
		<path id="Rectangle" class="st0" d="M2.6,16.4v18.5l13.6,7.6V24L2.6,16.4z"/>
		<path id="Rectangle_1_" class="st0" d="M16.9,42.4V24l13.6-7.6v18.5L16.9,42.4z"/>
		<path id="Rectangle_9_" class="st0" d="M6,13.1l10.1-5.3l9.9,4.5"/>
	</g>
	<g id="Group_1_" transform="translate(64.000000, 38.000000)">
		<path id="Rectangle_5_" class="st0" d="M16.2,24L2.6,16.4v18.5l13.6,7.6"/>
		<path id="Rectangle_4_" class="st0" d="M16.9,42.4V24l13.6-7.6v18.5L16.9,42.4z"/>
		<path id="Rectangle_8_" class="st0" d="M6,13.1l10.1-5.3l9.9,4.5"/>
	</g>
	<g id="Group_2_" transform="translate(0.000000, 38.000000)">
		<path id="Rectangle_3_" class="st0" d="M16.2,24L2.6,16.4v18.5l13.6,7.6"/>
		<path id="Rectangle_7_" class="st0" d="M16.9,42.4V24l13.6-7.6v18.5L16.9,42.4z"/>
		<path id="Rectangle_2_" class="st0" d="M6,13.1l10.1-5.3l9.9,4.5"/>
	</g>
	<g id="Group-2" transform="translate(16.951119, 24.272193)">
		<polyline id="Path-8" class="st1" points="11.3,0 0,5.7 0,17 		"/>
		<path id="Path-9" class="st1" d="M10.2,55.4c0,0,7.2,3.8,21.5,11.3"/>
	</g>
	
		<g id="Group-2_1_" transform="translate(64.500000, 57.500000) scale(-1, 1) translate(-64.500000, -57.500000) translate(49.000000, 24.000000)">
		<polyline id="Path-8_1_" class="st1" points="11.1,0 0,5.7 0,17 		"/>
		<path id="Path-9_1_" class="st1" d="M10,55.6c0,0,7,3.8,21,11.4"/>
	</g>
</g>
</svg>
