<?xml version="1.0" encoding="utf-8"?>
<!-- Generator: Adobe Illustrator 22.1.0, SVG Export Plug-In . SVG Version: 6.00 Build 0)  -->
<svg version="1.1" id="Layer_1" xmlns="http://www.w3.org/2000/svg" xmlns:xlink="http://www.w3.org/1999/xlink" x="0px" y="0px"
	 viewBox="0 0 134 94" style="enable-background:new 0 0 134 94;" xml:space="preserve">
<style type="text/css">
	.st0{fill:none;stroke:#2FC89F;stroke-width:3;stroke-linecap:round;stroke-linejoin:round;}
	.st1{fill:none;stroke:#00ACF2;stroke-width:3;stroke-linecap:round;stroke-linejoin:round;}
</style>
<title>icons/icon-why-ent-grade</title>
<desc>Created with Sketch.</desc>
<g id="icons_x2F_icon-why-ent-grade">
	<g id="Group" transform="translate(3.000000, 44.000000)">
		<path id="Line-8" class="st0" d="M0.5,6.5h20"/>
		<path id="Line-8_1_" class="st0" d="M67.5,6.5h19"/>
		<path id="Line-8_2_" class="st0" d="M28.5,6.5h30"/>
		<rect id="Rectangle-2" x="20.5" y="1.5" class="st0" width="8" height="10"/>
		<rect id="Rectangle-2_1_" x="59.5" y="1.5" class="st0" width="8" height="10"/>
	</g>
	<path id="Rectangle-11" class="st1" d="M2.5,67.6c0,1.8,0,2.4,0,6.4c0,1.9,1.6,3.5,3.5,3.5h80c1.9,0,3.5-1.6,3.5-3.5V34.2
		 M70.9,28.5H6c-1.9,0-3.5,1.6-3.5,3.5c0,14,0,15.2,0,22.8"/>
	<path id="Rectangle" class="st1" d="M27,28.5V21c0-2.8,2.2-5,5-5h29c2.8,0,5,2.2,5,5v7.5"/>
</g>
</svg>
