<?xml version="1.0" encoding="UTF-8"?>
<svg width="137px" height="100px" viewBox="0 0 137 100" version="1.1" xmlns="http://www.w3.org/2000/svg" xmlns:xlink="http://www.w3.org/1999/xlink">
    <!-- Generator: Sketch 50.2 (55047) - http://www.bohemiancoding.com/sketch -->
    <title>icons/icon-book</title>
    <desc>Created with Sketch.</desc>
    <defs></defs>
    <g id="Symbols" stroke="none" stroke-width="1" fill="none" fill-rule="evenodd" stroke-linecap="round" stroke-linejoin="round">
        <g id="icons/icon-book" transform="translate(-25.000000, -10.000000)" stroke="#512668" stroke-width="3">
            <g transform="translate(27.000000, 12.000000)" id="Rectangle-2">
                <path d="M11,-1.42108547e-14 L41.546376,-1.0658141e-14 C50.1100105,-4.62521979e-15 58.2712305,3.63470058 64,10 L64,85 L64,85 C58.2712305,78.6347006 50.1100105,75 41.546376,75 L11,75 L11,-1.42108547e-14 Z"></path>
                <path d="M121.697121,81.503868 C116.403236,77.3218196 109.815854,75 102.971412,75 L72.4250361,75 L72.4250361,0 L102.971412,3.55271368e-15 C109.947001,7.89355835e-15 116.655586,2.41164954 122,6.74631243" transform="translate(97.212518, 40.751934) scale(-1, 1) translate(-97.212518, -40.751934) "></path>
                <path d="M64,96 C58.2712305,89.6347006 50.1100105,86 41.546376,86 L0,86 L0,7 L5,7"></path>
                <path d="M133,96 C127.271231,89.6347006 119.11001,86 110.546376,86 L69,86 L69,7 L73,7" transform="translate(101.000000, 51.500000) scale(-1, 1) translate(-101.000000, -51.500000) "></path>
            </g>
        </g>
    </g>
</svg>