<?xml version="1.0" encoding="UTF-8"?>
<svg width="134px" height="94px" viewBox="0 0 134 94" version="1.1" xmlns="http://www.w3.org/2000/svg" xmlns:xlink="http://www.w3.org/1999/xlink">
    <!-- Generator: Sketch 50.2 (55047) - http://www.bohemiancoding.com/sketch -->
    <title>icons/icon-why-ent-multicloud</title>
    <desc>Created with Sketch.</desc>
    <defs></defs>
    <g id="icons/icon-why-ent-multicloud" stroke="none" stroke-width="1" fill="none" fill-rule="evenodd" stroke-linecap="round">
        <path d="M76.093743,46.8324628 C77.4780472,48.9273913 78.283961,51.4380744 78.283961,54.1369887 C78.283961,60.0131696 72.9629483,64.997065 67.6705403,66.7404257 C64.703471,67.7178016 49.9105014,68.1066583 36.043864,67.9752388 C25.1763633,67.8722433 14.8778252,67.449689 11.2867431,66.7404257 C3.11353704,65.1261617 2,58.4935151 2,53.4736499 C2,45.3848107 6.52441893,38.3527063 13.180617,34.7699762 C12.8109777,33.4392632 12.6134207,32.0369334 12.6134207,30.5884616 C12.6134207,21.979192 19.5926126,15 28.2018823,15 C36.2836888,15 42.9290386,21.1502028 43.7129821,29.0256588 C44.2828527,28.962527 44.8619866,28.9301146 45.4486908,28.9301146 C53.0493778,28.9301146 59.3795452,34.3698557 60.7583991,41.5685438" id="Combined-Shape" stroke="#00ACF2" stroke-width="3" transform="translate(40.141980, 41.500000) scale(-1, 1) translate(-40.141980, -41.500000) "></path>
        <path d="M123.284817,73.4370295 C120.781127,76.3614073 117.204932,78.3477297 113.162162,78.7926955 L113.162162,78.8872951 L73.3783784,78.8872951 L73.3783784,78.7652087 C67.5106263,77.9295354 63,72.9051078 63,66.8317395 C63,60.1736401 68.4209847,54.776184 75.1081081,54.776184 C76.8694134,54.776184 78.5428828,55.1506218 80.052599,55.8239096 C82.2611455,54.0891764 85.0496926,53.0539618 88.0810811,53.0539618 C91.685972,53.0539618 94.9474444,54.5179294 97.2984935,56.8813206 C98.3832736,54.549007 100.033257,52.530477 102.073414,51" id="Combined-Shape" stroke="#00ACF2" stroke-width="3" transform="translate(93.142408, 64.943648) scale(-1, 1) translate(-93.142408, -64.943648) "></path>
        <path d="M74,27.304738 C76.9288809,24.0480107 81.1753944,22 85.9002463,22 C94.4607172,22 101.450991,28.7228143 101.879436,37.1768119 C103.56477,36.4206185 105.433388,36 107.400246,36 C114.85609,36 120.900246,42.0441559 120.900246,49.5" id="Combined-Shape" stroke="#2FC89F" stroke-width="3"></path>
    </g>
</svg>