<?xml version="1.0" encoding="UTF-8"?>
<svg width="134px" height="94px" viewBox="0 0 134 94" version="1.1" xmlns="http://www.w3.org/2000/svg" xmlns:xlink="http://www.w3.org/1999/xlink">
    <!-- Generator: Sketch 50.2 (55047) - http://www.bohemiancoding.com/sketch -->
    <title>icons/icon-why-devops-multicloud</title>
    <desc>Created with Sketch.</desc>
    <defs></defs>
    <g id="icons/icon-why-devops-multicloud" stroke="none" stroke-width="1" fill="none" fill-rule="evenodd" stroke-linecap="round">
        <path d="M83.0837187,44.8355254 C84.5986177,47.1280886 85.4805611,49.8756285 85.4805611,52.8291574 C85.4805611,59.259695 79.657566,64.7137692 73.8658743,66.6215979 C70.6188928,67.6911792 54.43036,68.1167204 39.2555492,67.9729029 C27.3628126,67.8601908 16.0927144,67.3977728 12.1628509,66.6215979 C3.21858771,64.8550448 2,57.5966769 2,52.1032395 C2,43.2513023 6.9512509,35.5557917 14.2353922,31.6350683 C13.8308813,30.1788164 13.6146868,28.6441912 13.6146868,27.0590712 C13.6146868,17.6376063 21.2522931,10 30.6737579,10 C39.5179991,10 46.7902687,16.7304106 47.6481691,25.3488342 C48.2718011,25.2797465 48.9055703,25.2442764 49.5476239,25.2442764 C57.8653569,25.2442764 64.7927099,31.1972005 66.3016443,39.0750102" id="Combined-Shape" stroke="#00ACF2" stroke-width="3" transform="translate(43.740281, 39.000000) scale(-1, 1) translate(-43.740281, -39.000000) "></path>
        <g id="Group-3" transform="translate(35.000000, 34.000000)" stroke="#2FC89F" stroke-width="3">
            <g id="Group" transform="translate(0.000000, 3.000000)">
                <path d="M8.4375,0.566666667 L0.5625,8.5" id="Line"></path>
                <path d="M8.4375,8.44471545 L0.5625,16.3780488" id="Line" transform="translate(4.500000, 12.411382) scale(1, -1) translate(-4.500000, -12.411382) "></path>
            </g>
            <g id="Group" transform="translate(27.500000, 11.500000) scale(-1, 1) translate(-27.500000, -11.500000) translate(23.000000, 3.000000)">
                <path d="M8.4375,0.566666667 L0.5625,8.5" id="Line"></path>
                <path d="M8.4375,8.44471545 L0.5625,16.3780488" id="Line" transform="translate(4.500000, 12.411382) scale(1, -1) translate(-4.500000, -12.411382) "></path>
            </g>
            <path d="M18.8125,0.196428571 L13.1875,21.8035714" id="Line-2"></path>
        </g>
        <path d="M132.284817,76.4370295 C129.781127,79.3614073 126.204932,81.3477297 122.162162,81.7926955 L122.162162,81.8872951 L82.3783784,81.8872951 L82.3783784,81.7652087 C76.5106263,80.9295354 72,75.9051078 72,69.8317395 C72,63.1736401 77.4209847,57.776184 84.1081081,57.776184 C85.8694134,57.776184 87.5428828,58.1506218 89.052599,58.8239096 C91.2611455,57.0891764 94.0496926,56.0539618 97.0810811,56.0539618 C100.685972,56.0539618 103.947444,57.5179294 106.298493,59.8813206 C107.383274,57.549007 109.033257,55.530477 111.073414,54" id="Combined-Shape" stroke="#00ACF2" stroke-width="3" transform="translate(102.142408, 67.943648) scale(-1, 1) translate(-102.142408, -67.943648) "></path>
        <path d="M81,25.304738 C83.9288809,22.0480107 88.1753944,20 92.9002463,20 C101.460717,20 108.450991,26.7228143 108.879436,35.1768119 C110.56477,34.4206185 112.433388,34 114.400246,34 C121.85609,34 127.900246,40.0441559 127.900246,47.5" id="Combined-Shape" stroke="#2FC89F" stroke-width="3"></path>
    </g>
</svg>