<?xml version="1.0" encoding="UTF-8"?>
<svg width="134px" height="94px" viewBox="0 0 134 94" version="1.1" xmlns="http://www.w3.org/2000/svg" xmlns:xlink="http://www.w3.org/1999/xlink">
    <!-- Generator: Sketch 50.2 (55047) - http://www.bohemiancoding.com/sketch -->
    <title>icons/icon-audience-enterprise</title>
    <desc>Created with Sketch.</desc>
    <defs></defs>
    <g id="icons/icon-audience-enterprise" stroke="none" stroke-width="1" fill="none" fill-rule="evenodd" stroke-linecap="round">
        <g transform="translate(2.000000, 2.000000)" stroke-width="3">
            <g id="Group-8" stroke="#00ACF2">
                <path d="M41.6666667,15.6778938 C41.6666667,24.3366211 34.7643441,31.3559322 26.2500711,31.3559322 C17.7355137,31.3559322 10.8333333,24.3366211 10.8333333,15.6778938 C10.8333333,7.01916646 17.7355137,0 26.2500711,0 C34.7643441,0 41.6666667,7.01916646 41.6666667,15.6778938 Z" id="Stroke-1"></path>
                <path d="M0,50 C0,42.0654323 5.35142566,35.1275275 13.3333333,31.3559322" id="Stroke-3"></path>
                <path d="M39.1666667,31.3559322 C43.9046188,33.7201297 47.7084405,37.2723638 50,41.5254237" id="Stroke-5"></path>
            </g>
            <g id="Group-17" transform="translate(80.000000, 0.000000)" stroke="#00ACF2">
                <path d="M39.1666667,15.6778938 C39.1666667,24.3366211 32.2643441,31.3559322 23.7500711,31.3559322 C15.2355137,31.3559322 8.33333333,24.3366211 8.33333333,15.6778938 C8.33333333,7.01916646 15.2355137,0 23.7500711,0 C32.2643441,0 39.1666667,7.01916646 39.1666667,15.6778938 Z" id="Stroke-7"></path>
                <path d="M0,41.5254237 C2.26611115,37.2689201 6.07543176,33.7136585 10.8333333,31.3559322" id="Stroke-9"></path>
                <path d="M36.6666667,31.3559322 C44.6484597,35.1270084 50,42.06506 50,50" id="Stroke-11"></path>
            </g>
            <g id="Group-5" transform="translate(39.000000, 40.000000)" stroke="#2FC89F">
                <path d="M42.0634921,15.6779661 C42.0634921,24.3366535 35.095433,31.3559322 26.4999282,31.3559322 C17.9044233,31.3559322 10.9365079,24.3366535 10.9365079,15.6779661 C10.9365079,7.01927874 17.9044233,0 26.4999282,0 C35.095433,0 42.0634921,7.01927874 42.0634921,15.6779661 Z" id="Stroke-13"></path>
                <path d="M0,50 C0,42.0654323 5.40239162,35.1275275 13.4603175,31.3559322" id="Stroke-15"></path>
                <path d="M39.5396825,31.3559322 C47.5974927,35.1270084 53,42.06506 53,50" id="Stroke-18"></path>
            </g>
        </g>
    </g>
</svg>