<?xml version="1.0" encoding="UTF-8"?>
<svg width="134px" height="94px" viewBox="0 0 134 94" version="1.1" xmlns="http://www.w3.org/2000/svg" xmlns:xlink="http://www.w3.org/1999/xlink">
    <!-- Generator: Sketch 50.2 (55047) - http://www.bohemiancoding.com/sketch -->
    <title>icons/icon-eco1</title>
    <desc>Created with Sketch.</desc>
    <defs></defs>
    <g id="icons/icon-eco1" stroke="none" stroke-width="1" fill="none" fill-rule="evenodd" stroke-linecap="round">
        <g id="Group-3" transform="translate(0.000000, 49.000000)" stroke="#2FC89F" stroke-width="3">
            <g id="Group" transform="translate(0.000000, 6.000000)">
                <path d="M15.9375,1.03333333 L1.0625,15.5" id="Line"></path>
                <path d="M15.9375,15.399187 L1.0625,29.8658537" id="Line" transform="translate(8.500000, 22.632520) scale(1, -1) translate(-8.500000, -22.632520) "></path>
            </g>
            <g id="Group" transform="translate(52.500000, 21.500000) scale(-1, 1) translate(-52.500000, -21.500000) translate(44.000000, 6.000000)">
                <path d="M15.9375,1.03333333 L1.0625,15.5" id="Line"></path>
                <path d="M15.9375,15.399187 L1.0625,29.8658537" id="Line" transform="translate(8.500000, 22.632520) scale(1, -1) translate(-8.500000, -22.632520) "></path>
            </g>
            <path d="M36.625,0.375 L25.375,41.625" id="Line-2"></path>
        </g>
        <path d="M14,45.3656208 C16.7927729,38.9884633 22.9939825,34.4484064 30.2979694,34.0055662 C29.5172597,32.1560129 29.0711994,30.1159961 29.0711994,27.9829485 C29.0711994,19.4415977 35.9953361,12.517461 44.5366869,12.517461 C47.6456068,12.517461 50.5500253,13.428283 52.9758465,15.0083562 C57.3626915,7.81928383 65.2399781,3 74.277771,3 C88.0757816,3.00059483 99.260898,14.1860681 99.260898,27.9833054 C99.260898,29.7863433 99.0657235,31.5290658 98.7032482,33.2251539 C104.075245,37.114724 107.588528,43.4487929 107.588528,50.5869481 C107.588528,62.4137633 98.0015909,72.0007 86.1747757,72.0007 C78.2821185,72.0007 72.3626256,72.0007 68.416297,72.0007" id="Fill-1" stroke="#00ACF2" stroke-width="3"></path>
    </g>
</svg>