<svg width="17" height="11" viewBox="0 0 17 11" fill="none" xmlns="http://www.w3.org/2000/svg">
<path d="M0.177734 6.41674H2.01107V4.58342H0.177734V6.41674ZM0.177734 10.0834H2.01107V8.25008H0.177734V10.0834ZM0.177734 2.75008H2.01107V0.916748H0.177734V2.75008ZM3.8444 6.41674H16.6777V4.58342H3.8444V6.41674ZM3.8444 10.0834H16.6777V8.25008H3.8444V10.0834ZM3.8444 0.916748V2.75008H16.6777V0.916748H3.8444ZM0.177734 6.41674H2.01107V4.58342H0.177734V6.41674ZM0.177734 10.0834H2.01107V8.25008H0.177734V10.0834ZM0.177734 2.75008H2.01107V0.916748H0.177734V2.75008ZM3.8444 6.41674H16.6777V4.58342H3.8444V6.41674ZM3.8444 10.0834H16.6777V8.25008H3.8444V10.0834ZM3.8444 0.916748V2.75008H16.6777V0.916748H3.8444Z" fill="#131314"/>
</svg>
