<svg width="14" height="14" viewBox="0 0 14 14" fill="none" xmlns="http://www.w3.org/2000/svg">
<path d="M12.3333 0.333313H1.66659C0.999919 0.333313 0.333252 0.933313 0.333252 1.66665V3.67331C0.333252 4.15331 0.619919 4.56665 0.999919 4.79998V12.3333C0.999919 13.0666 1.73325 13.6666 2.33325 13.6666H11.6666C12.2666 13.6666 12.9999 13.0666 12.9999 12.3333V4.79998C13.3799 4.56665 13.6666 4.15331 13.6666 3.67331V1.66665C13.6666 0.933313 12.9999 0.333313 12.3333 0.333313ZM11.6666 12.3333H2.33325V4.99998H11.6666V12.3333ZM12.3333 3.66665H1.66659V1.66665H12.3333V3.66665Z" fill="#131314"/>
<path d="M8.99992 6.99998H4.99992V8.33331H8.99992V6.99998Z" fill="#131314"/>
</svg>
