<svg width="20" height="17" viewBox="0 0 20 17" fill="none" xmlns="http://www.w3.org/2000/svg">
<path d="M8.89799 0.00440979H4.46037V2.12623H8.89799V0.00440979Z" fill="black"/>
<path d="M4.47338 2.12181H2.24348V4.28112H4.47338V2.12181Z" fill="black"/>
<path d="M2.25605 4.2691H0V8.51642H2.25605V4.2691Z" fill="black"/>
<path d="M11.1066 2.11333H8.88971V4.23514H11.1066V2.11333Z" fill="black"/>
<path d="M15.5705 0H11.1199V2.1593H15.5705V0Z" fill="black"/>
<path d="M17.7742 2.12181H15.5182V4.2937H17.7742V2.12181Z" fill="black"/>
<path d="M20 4.25636H17.744V8.50367H20V4.25636Z" fill="black"/>
<path d="M17.7742 8.45049H15.5182V10.6224H17.7742V8.45049Z" fill="black"/>
<path d="M15.5448 10.5964H13.3279V12.7182H15.5448V10.5964Z" fill="black"/>
<path d="M13.3409 12.7182H11.111V14.8775H13.3409V12.7182Z" fill="black"/>
<path d="M4.47368 8.5H2.25679V10.6218H4.47368V8.5Z" fill="black"/>
<path d="M6.67726 10.6218H4.46037V12.7436H6.67726V10.6218Z" fill="black"/>
<path d="M11.1022 14.8782H8.88528V17H11.1022V14.8782Z" fill="black"/>
<path d="M4.4722 6.36686V2.12111H6.73046V10.6126H4.4722V6.36686Z" fill="black"/>
<path d="M6.67282 7.42777V2.12111H8.89192V12.7344H6.67282V7.42777Z" fill="black"/>
<path d="M11.1036 7.43767V2.12054H13.3359V12.7548H11.1036V7.43767Z" fill="black"/>
<path d="M13.2836 6.36686V2.12111H15.555V10.6126H13.2836V6.36686Z" fill="black"/>
<path d="M2.2361 6.38526V4.26132H4.60521V8.5092H2.2361V6.38526Z" fill="black"/>
<path d="M15.5197 6.37959V4.26074H17.7779V8.49844H15.5197V6.37959Z" fill="black"/>
<path d="M8.86459 9.55242V4.23798H11.1456V14.8669H8.86459V9.55242Z" fill="black"/>
<path d="M6.67282 13.7989V12.7411H8.90301V14.8567H6.67282V13.7989Z" fill="black"/>
<path d="M13.3649 11.6658V10.6155H15.5333V12.716H13.3649V11.6658Z" fill="black"/>
<path d="M11.111 13.8059V12.7338H13.3383V14.8781H11.111V13.8059Z" fill="black"/>
<path d="M8.9045 15.9193V14.8597H11.1122V16.9789H8.9045V15.9193Z" fill="black"/>
<path fill-rule="evenodd" clip-rule="evenodd" d="M11.1453 12.8053V14.9174H8.86425V12.7849H6.67249V10.6631H4.47185V8.55828H2.23724V6.43435V4.3104H4.47185V2.17162H6.67249H6.73012H8.89159V4.28848H11.1048V2.17105H13.337V2.17162H15.5561V4.31126H17.7776V8.54895H15.5561V10.6631H13.337V12.8053H11.1453Z" fill="#D20001"/>
</svg>
