<svg width="88" height="17" viewBox="0 0 88 17" fill="none" xmlns="http://www.w3.org/2000/svg">
<g clip-path="url(#clip0_783_1890)">
<path d="M8.46148 0H4.23071V2.125H8.46148V0Z" fill="black"/>
<path d="M4.23086 2.125H2.11548V4.25H4.23086V2.125Z" fill="black"/>
<path d="M2.11538 4.25H0V8.5H2.11538V4.25Z" fill="black"/>
<path d="M10.5768 2.125H8.46143V4.25H10.5768V2.125Z" fill="black"/>
<path d="M14.8077 0H10.5769V2.125H14.8077V0Z" fill="black"/>
<path d="M16.923 2.125H14.8076V4.25H16.923V2.125Z" fill="black"/>
<path d="M19.0385 4.25H16.9231V8.5H19.0385V4.25Z" fill="black"/>
<path d="M16.923 8.5H14.8076V10.625H16.923V8.5Z" fill="black"/>
<path d="M14.8078 10.625H12.6924V12.75H14.8078V10.625Z" fill="black"/>
<path d="M12.7047 12.75H10.5769V14.9125H12.7047V12.75Z" fill="black"/>
<path d="M4.23086 8.5H2.11548V10.625H4.23086V8.5Z" fill="black"/>
<path d="M6.3461 10.625H4.23071V12.75H6.3461V10.625Z" fill="black"/>
<path d="M10.5768 14.875H8.46143V17H10.5768V14.875Z" fill="black"/>
<path d="M6.34619 13.8125V12.75H8.46158V14.875H6.34619V13.8125Z" fill="black"/>
<path d="M4.23071 6.375V2.125H6.3461V10.625H4.23071V6.375Z" fill="#F26E7E"/>
<path d="M6.34619 7.4375V2.125H8.46158V12.75H6.34619V7.4375Z" fill="#F26E7E"/>
<path d="M10.5769 7.4375V2.125H12.6923V12.75H10.5769V7.4375Z" fill="#F26E7E"/>
<path d="M12.6924 6.375V2.125H14.8078V10.625H12.6924V6.375Z" fill="#F26E7E"/>
<path d="M2.11548 6.375V4.25H4.23086V8.5H2.11548V6.375Z" fill="#F26E7E"/>
<path d="M14.8076 6.375V4.25H16.923V8.5H14.8076V6.375Z" fill="#F26E7E"/>
<path d="M8.46143 9.5625V4.25H10.5768V14.875H8.46143V9.5625Z" fill="#F26E7E"/>
<path d="M31.4488 0H27.218V2.125H31.4488V0Z" fill="black"/>
<path d="M27.2179 2.125H25.1025V4.25H27.2179V2.125Z" fill="black"/>
<path d="M25.1024 4.25H22.9871V8.5H25.1024V4.25Z" fill="black"/>
<path d="M33.5641 2.125H31.4487V4.25H33.5641V2.125Z" fill="black"/>
<path d="M37.795 0H33.5642V2.125H37.795V0Z" fill="black"/>
<path d="M39.9103 2.125H37.7949V4.25H39.9103V2.125Z" fill="black"/>
<path d="M42.0255 4.25H39.9102V8.5H42.0255V4.25Z" fill="black"/>
<path d="M39.9103 8.5H37.7949V10.625H39.9103V8.5Z" fill="black"/>
<path d="M37.7948 10.625H35.6794V12.75H37.7948V10.625Z" fill="black"/>
<path d="M35.692 12.75H33.5642V14.9125H35.692V12.75Z" fill="black"/>
<path d="M27.2179 8.5H25.1025V10.625H27.2179V8.5Z" fill="black"/>
<path d="M29.3334 10.625H27.218V12.75H29.3334V10.625Z" fill="black"/>
<path d="M33.5641 14.875H31.4487V17H33.5641V14.875Z" fill="black"/>
<path d="M29.3333 13.8125V12.75H31.4486V14.875H29.3333V13.8125Z" fill="black"/>
<path d="M27.218 6.375V2.125H29.3334V10.625H27.218V6.375Z" fill="#FED05D"/>
<path d="M29.3333 7.4375V2.125H31.4486V12.75H29.3333V7.4375Z" fill="#FED05D"/>
<path d="M33.5642 7.4375V2.125H35.6796V12.75H33.5642V7.4375Z" fill="#FED05D"/>
<path d="M35.6794 6.375V2.125H37.7948V10.625H35.6794V6.375Z" fill="#FED05D"/>
<path d="M25.1025 6.375V4.25H27.2179V8.5H25.1025V6.375Z" fill="#FED05D"/>
<path d="M37.7949 6.375V4.25H39.9103V8.5H37.7949V6.375Z" fill="#FED05D"/>
<path d="M31.4487 9.5625V4.25H33.5641V14.875H31.4487V9.5625Z" fill="#FED05D"/>
<path d="M54.4358 0H50.2051V2.125H54.4358V0Z" fill="black"/>
<path d="M50.2052 2.125H48.0898V4.25H50.2052V2.125Z" fill="black"/>
<path d="M48.0897 4.25H45.9744V8.5H48.0897V4.25Z" fill="black"/>
<path d="M56.5512 2.125H54.4358V4.25H56.5512V2.125Z" fill="black"/>
<path d="M60.782 0H56.5513V2.125H60.782V0Z" fill="black"/>
<path d="M62.8974 2.125H60.782V4.25H62.8974V2.125Z" fill="black"/>
<path d="M65.0128 4.25H62.8975V8.5H65.0128V4.25Z" fill="black"/>
<path d="M62.8974 8.5H60.782V10.625H62.8974V8.5Z" fill="black"/>
<path d="M60.7821 10.625H58.6667V12.75H60.7821V10.625Z" fill="black"/>
<path d="M58.6791 12.75H56.5513V14.9125H58.6791V12.75Z" fill="black"/>
<path d="M50.2052 8.5H48.0898V10.625H50.2052V8.5Z" fill="black"/>
<path d="M52.3205 10.625H50.2051V12.75H52.3205V10.625Z" fill="black"/>
<path d="M56.5512 14.875H54.4358V17H56.5512V14.875Z" fill="black"/>
<path d="M52.3206 13.8125V12.75H54.4359V14.875H52.3206V13.8125Z" fill="black"/>
<path d="M50.2051 6.375V2.125H52.3205V10.625H50.2051V6.375Z" fill="#8A3391"/>
<path d="M52.3206 7.4375V2.125H54.4359V12.75H52.3206V7.4375Z" fill="#8A3391"/>
<path d="M56.5513 7.4375V2.125H58.6667V12.75H56.5513V7.4375Z" fill="#8A3391"/>
<path d="M58.6667 6.375V2.125H60.7821V10.625H58.6667V6.375Z" fill="#8A3391"/>
<path d="M48.0898 6.375V4.25H50.2052V8.5H48.0898V6.375Z" fill="#8A3391"/>
<path d="M60.782 6.375V4.25H62.8974V8.5H60.782V6.375Z" fill="#8A3391"/>
<path d="M54.4358 9.5625V4.25H56.5512V14.875H54.4358V9.5625Z" fill="#8A3391"/>
<path d="M77.4232 0H73.1924V2.125H77.4232V0Z" fill="black"/>
<path d="M73.1923 2.125H71.0769V4.25H73.1923V2.125Z" fill="black"/>
<path d="M71.0768 4.25H68.9614V8.5H71.0768V4.25Z" fill="black"/>
<path d="M79.5385 2.125H77.4231V4.25H79.5385V2.125Z" fill="black"/>
<path d="M83.7693 0H79.5386V2.125H83.7693V0Z" fill="black"/>
<path d="M85.8847 2.125H83.7693V4.25H85.8847V2.125Z" fill="black"/>
<path d="M87.9999 4.25H85.8845V8.5H87.9999V4.25Z" fill="black"/>
<path d="M85.8847 8.5H83.7693V10.625H85.8847V8.5Z" fill="black"/>
<path d="M83.7692 10.625H81.6538V12.75H83.7692V10.625Z" fill="black"/>
<path d="M81.6664 12.75H79.5386V14.9125H81.6664V12.75Z" fill="black"/>
<path d="M73.1923 8.5H71.0769V10.625H73.1923V8.5Z" fill="black"/>
<path d="M75.3078 10.625H73.1924V12.75H75.3078V10.625Z" fill="black"/>
<path d="M79.5385 14.875H77.4231V17H79.5385V14.875Z" fill="black"/>
<path d="M75.3076 13.8125V12.75H77.423V14.875H75.3076V13.8125Z" fill="black"/>
<path d="M73.1924 6.375V2.125H75.3078V10.625H73.1924V6.375Z" fill="#4D5BD9"/>
<path d="M75.3076 7.4375V2.125H77.423V12.75H75.3076V7.4375Z" fill="#4D5BD9"/>
<path d="M79.5386 7.4375V2.125H81.654V12.75H79.5386V7.4375Z" fill="#4D5BD9"/>
<path d="M81.6538 6.375V2.125H83.7692V10.625H81.6538V6.375Z" fill="#4D5BD9"/>
<path d="M71.0769 6.375V4.25H73.1923V8.5H71.0769V6.375Z" fill="#4D5BD9"/>
<path d="M83.7693 6.375V4.25H85.8847V8.5H83.7693V6.375Z" fill="#4D5BD9"/>
<path d="M77.4231 9.5625V4.25H79.5385V14.875H77.4231V9.5625Z" fill="#4D5BD9"/>
</g>
<defs>
<clipPath id="clip0_783_1890">
<rect width="88" height="17" fill="white"/>
</clipPath>
</defs>
</svg>
