<svg width="692" height="434" viewBox="0 0 692 434" fill="none" xmlns="http://www.w3.org/2000/svg">
<g clip-path="url(#clip0_1058_36490)">
<path d="M159.127 51.3538L71.0004 51.3677" stroke="#D7CDEA" stroke-miterlimit="10"/>
<path d="M159.127 65.3921L71.0004 65.4061" stroke="#D7CDEA" stroke-miterlimit="10"/>
<path d="M159.127 79.4375L71.0004 79.4445" stroke="#D7CDEA" stroke-miterlimit="10"/>
<path d="M159.127 93.4761L71.0004 93.4831" stroke="#D7CDEA" stroke-miterlimit="10"/>
</g>
<rect x="71" y="35.3557" width="51.0643" height="69.1839" fill="url(#paint0_linear_1058_36490)"/>
<rect x="139.037" y="9.5" width="123.366" height="123.366" rx="17.5" stroke="#673EAC" stroke-opacity="0.3" stroke-dasharray="15 4"/>
<path d="M239.063 23.8992H161.142C155.935 23.8992 151.715 28.1197 151.715 33.3259V111.247C151.715 116.454 155.935 120.674 161.142 120.674H239.063C244.269 120.674 248.49 116.454 248.49 111.247V33.3259C248.49 28.1197 244.269 23.8992 239.063 23.8992Z" fill="#FAF9FD" stroke="#673EAC" stroke-miterlimit="10"/>
<path d="M205.083 53.1667L210.331 58.4147L203.731 65.0147L206.985 68.2688L213.585 61.6688L218.833 66.9167V53.1667M195.917 53.1667H182.167V66.9167L187.414 61.6688L198.208 72.4397V89.8334H202.792V70.5605L190.669 58.4147" fill="#673EAC"/>
<g clip-path="url(#clip1_1058_36490)">
<path d="M298.318 241.609L71 241.623" stroke="#D7CDEA" stroke-miterlimit="10"/>
<path d="M298.318 255.648L71 255.662" stroke="#D7CDEA" stroke-miterlimit="10"/>
<path d="M298.318 269.693L71 269.7" stroke="#D7CDEA" stroke-miterlimit="10"/>
<path d="M298.318 283.732L71 283.739" stroke="#D7CDEA" stroke-miterlimit="10"/>
</g>
<rect x="71" y="225.611" width="51.0643" height="69.1839" fill="url(#paint1_linear_1058_36490)"/>
<rect x="278.228" y="199.756" width="123.366" height="123.366" rx="17.5" stroke="#673EAC" stroke-opacity="0.3" stroke-dasharray="15 4"/>
<path d="M378.254 214.155H300.333C295.126 214.155 290.906 218.375 290.906 223.582V301.503C290.906 306.709 295.126 310.93 300.333 310.93H378.254C383.46 310.93 387.681 306.709 387.681 301.503V223.582C387.681 218.375 383.46 214.155 378.254 214.155Z" fill="#FAF9FD" stroke="#673EAC" stroke-miterlimit="10"/>
<g clip-path="url(#clip2_1058_36490)">
<path d="M433.392 146.069L71 146.083" stroke="#D7CDEA" stroke-miterlimit="10"/>
<path d="M433.392 160.108L71 160.122" stroke="#D7CDEA" stroke-miterlimit="10"/>
<path d="M433.392 174.153L71 174.16" stroke="#D7CDEA" stroke-miterlimit="10"/>
<path d="M433.392 188.192L71 188.199" stroke="#D7CDEA" stroke-miterlimit="10"/>
</g>
<rect x="71" y="130.072" width="51.0643" height="69.1839" fill="url(#paint2_linear_1058_36490)"/>
<rect x="413.301" y="104.216" width="123.366" height="123.366" rx="17.5" stroke="#673EAC" stroke-opacity="0.3" stroke-dasharray="15 4"/>
<path d="M513.327 118.615H435.406C430.2 118.615 425.979 122.836 425.979 128.042V205.964C425.979 211.17 430.2 215.39 435.406 215.39H513.327C518.534 215.39 522.754 211.17 522.754 205.964V128.042C522.754 122.836 518.534 118.615 513.327 118.615Z" fill="#FAF9FD" stroke="#673EAC" stroke-miterlimit="10"/>
<g clip-path="url(#clip3_1058_36490)">
<path d="M518.224 337.149L70.9999 337.163" stroke="#D7CDEA" stroke-miterlimit="10"/>
<path d="M518.224 351.188L70.9999 351.201" stroke="#D7CDEA" stroke-miterlimit="10"/>
<path d="M518.224 365.233L70.9999 365.24" stroke="#D7CDEA" stroke-miterlimit="10"/>
<path d="M518.224 379.271L70.9999 379.278" stroke="#D7CDEA" stroke-miterlimit="10"/>
</g>
<rect x="71" y="321.151" width="51.0643" height="69.1839" fill="url(#paint3_linear_1058_36490)"/>
<rect x="498.134" y="295.295" width="123.366" height="123.366" rx="17.5" stroke="#673EAC" stroke-opacity="0.3" stroke-dasharray="15 4"/>
<path d="M598.16 309.694H520.238C515.032 309.694 510.812 313.915 510.812 319.121V397.043C510.812 402.249 515.032 406.469 520.238 406.469H598.16C603.366 406.469 607.587 402.249 607.587 397.043V319.121C607.587 313.915 603.366 309.694 598.16 309.694Z" fill="#FAF9FD" stroke="#673EAC" stroke-miterlimit="10"/>
<path d="M555.083 355.5C559.964 355.5 563.917 351.547 563.917 346.667C563.917 341.786 559.964 337.833 555.083 337.833C550.203 337.833 546.25 341.786 546.25 346.667C546.25 351.547 550.203 355.5 555.083 355.5ZM555.083 342.25C557.534 342.25 559.5 344.238 559.5 346.667C559.5 349.096 557.534 351.083 555.083 351.083C552.632 351.083 550.667 349.118 550.667 346.667C550.667 344.216 552.654 342.25 555.083 342.25ZM559.5 373.167H537.417V366.542C537.417 360.646 549.187 357.708 555.083 357.708C557.292 357.708 560.339 358.128 563.276 358.945C562.614 360.182 562.216 361.551 562.172 362.986C560.008 362.346 557.534 361.904 555.083 361.904C548.524 361.904 541.612 365.128 541.612 366.542V368.971H559.5C559.5 369.037 559.5 369.126 559.5 369.192V373.167ZM578.933 366.542V363.229C578.933 360.138 575.842 357.708 572.75 357.708C569.658 357.708 566.567 360.138 566.567 363.229V366.542C565.242 366.542 563.917 367.867 563.917 369.192V376.921C563.917 378.467 565.242 379.792 566.567 379.792H578.712C580.258 379.792 581.583 378.467 581.583 377.142V369.413C581.583 367.867 580.258 366.542 578.933 366.542ZM576.062 366.542H569.437V363.229C569.437 361.463 570.983 360.358 572.75 360.358C574.517 360.358 576.062 361.463 576.062 363.229V366.542Z" fill="#673EAC"/>
<path d="M353.375 270.583C353.126 270.583 352.877 270.583 352.628 270.66L349.542 264.431C350.404 263.568 350.979 262.361 350.979 261C350.979 258.355 348.833 256.208 346.188 256.208C345.938 256.208 345.708 256.208 345.44 256.285L342.316 250.056C343.236 249.193 343.792 247.986 343.792 246.625C343.792 243.98 341.645 241.833 339 241.833C336.355 241.833 334.208 243.98 334.208 246.625C334.208 247.986 334.764 249.193 335.665 250.056L332.56 256.285C332.292 256.208 332.062 256.208 331.813 256.208C329.168 256.208 327.021 258.355 327.021 261C327.021 262.361 327.596 263.568 328.458 264.431L325.373 270.66C325.123 270.583 324.874 270.583 324.625 270.583C321.98 270.583 319.833 272.73 319.833 275.375C319.833 278.02 321.98 280.167 324.625 280.167C327.27 280.167 329.417 278.02 329.417 275.375C329.417 274.033 328.861 272.807 327.96 271.944L331.065 265.715C331.333 265.792 331.563 265.792 331.813 265.792C332.062 265.792 332.292 265.792 332.56 265.715L335.684 271.944C334.783 272.807 334.208 274.033 334.208 275.375C334.208 278.02 336.355 280.167 339 280.167C341.645 280.167 343.792 278.02 343.792 275.375C343.792 272.73 341.645 270.583 339 270.583C338.751 270.583 338.502 270.583 338.253 270.66L335.167 264.431C336.048 263.568 336.604 262.361 336.604 261C336.604 259.639 336.048 258.432 335.167 257.569L338.253 251.34C338.502 251.417 338.751 251.417 339 251.417C339.249 251.417 339.498 251.417 339.748 251.34L342.833 257.569C341.971 258.432 341.396 259.658 341.396 261C341.396 263.645 343.543 265.792 346.188 265.792C346.437 265.792 346.667 265.792 346.935 265.715L350.059 271.944C349.158 272.807 348.583 274.033 348.583 275.375C348.583 278.02 350.73 280.167 353.375 280.167C356.02 280.167 358.167 278.02 358.167 275.375C358.167 272.73 356.02 270.583 353.375 270.583Z" fill="#673EAC"/>
<path d="M479.25 165.5L469.75 156V163.125H450.75V167.875H469.75V175M493.5 179.75V151.25C493.5 148.614 491.362 146.5 488.75 146.5H460.25C458.99 146.5 457.782 147 456.891 147.891C456 148.782 455.5 149.99 455.5 151.25V158.375H460.25V151.25H488.75V179.75H460.25V172.625H455.5V179.75C455.5 181.01 456 182.218 456.891 183.109C457.782 184 458.99 184.5 460.25 184.5H488.75C490.01 184.5 491.218 184 492.109 183.109C493 182.218 493.5 181.01 493.5 179.75Z" fill="#673EAC"/>
<defs>
<linearGradient id="paint0_linear_1058_36490" x1="122.064" y1="76.5366" x2="82.5306" y2="76.5366" gradientUnits="userSpaceOnUse">
<stop stop-color="white" stop-opacity="0"/>
<stop offset="1" stop-color="white"/>
</linearGradient>
<linearGradient id="paint1_linear_1058_36490" x1="122.064" y1="266.792" x2="82.5306" y2="266.792" gradientUnits="userSpaceOnUse">
<stop stop-color="white" stop-opacity="0"/>
<stop offset="1" stop-color="white"/>
</linearGradient>
<linearGradient id="paint2_linear_1058_36490" x1="122.064" y1="171.253" x2="82.5306" y2="171.253" gradientUnits="userSpaceOnUse">
<stop stop-color="white" stop-opacity="0"/>
<stop offset="1" stop-color="white"/>
</linearGradient>
<linearGradient id="paint3_linear_1058_36490" x1="122.064" y1="362.332" x2="82.5306" y2="362.332" gradientUnits="userSpaceOnUse">
<stop stop-color="white" stop-opacity="0"/>
<stop offset="1" stop-color="white"/>
</linearGradient>
<clipPath id="clip0_1058_36490">
<rect width="42.8281" height="88.1271" fill="white" transform="translate(159.127 51.0044) rotate(90)"/>
</clipPath>
<clipPath id="clip1_1058_36490">
<rect width="42.8281" height="227.318" fill="white" transform="translate(298.318 241.26) rotate(90)"/>
</clipPath>
<clipPath id="clip2_1058_36490">
<rect width="42.8281" height="362.392" fill="white" transform="translate(433.392 145.72) rotate(90)"/>
</clipPath>
<clipPath id="clip3_1058_36490">
<rect width="42.8281" height="447.224" fill="white" transform="translate(518.224 336.8) rotate(90)"/>
</clipPath>
</defs>
</svg>
