<svg width="748" height="515" viewBox="0 0 748 515" fill="none" xmlns="http://www.w3.org/2000/svg">
<g clip-path="url(#clip0_1058_36426)">
<path d="M491.369 316.159L390.066 257.671C387.006 255.902 387.39 252.82 390.922 250.775L489.803 193.687C493.334 191.649 498.686 191.424 501.747 193.194L603.05 251.681C606.11 253.451 605.726 256.533 602.194 258.578L503.313 315.666C499.782 317.703 494.43 317.928 491.369 316.159Z" fill="#f6f5ff"/>
<g clip-path="url(#clip1_1058_36426)">
<path d="M482.603 490.29C483.174 490.62 483.699 490.852 484.146 490.985C484.61 491.11 485.134 491.235 485.752 491.342C485.953 491.369 486.107 491.422 486.215 491.484C486.369 491.574 486.431 491.716 486.385 491.921L486.061 492.857C486.014 492.991 485.922 493.098 485.798 493.169C485.644 493.258 485.412 493.303 485.119 493.311C484.671 493.303 484.239 493.267 483.838 493.213C483.421 493.151 482.973 493.071 482.448 492.964C482.664 494.479 481.862 495.762 480.04 496.814C478.743 497.563 477.338 497.946 475.841 497.955C474.343 497.964 472.97 497.616 471.735 496.903C470.422 496.146 469.82 495.263 469.959 494.256C470.098 493.249 470.947 492.295 472.537 491.378C473.062 491.074 473.649 490.789 474.297 490.504C474.946 490.219 475.656 489.952 476.412 489.675L475.285 489.025C474.112 488.347 473.047 488.018 472.09 488.018C471.117 488.026 470.052 488.374 468.863 489.06C468.323 489.372 467.829 489.729 467.397 490.139C466.964 490.549 466.578 490.968 466.254 491.404C466.115 491.609 465.992 491.752 465.914 491.832C465.837 491.912 465.776 491.966 465.714 492.001C465.498 492.126 465.235 492.099 464.911 491.912L464.155 491.476C463.908 491.333 463.753 491.208 463.722 491.101C463.691 490.994 463.722 490.852 463.83 490.665C464.093 490.192 464.51 489.684 465.081 489.141C465.637 488.588 466.347 488.071 467.196 487.581C469.033 486.52 470.793 485.986 472.491 485.968C474.174 485.959 475.872 486.44 477.57 487.42L482.572 490.308L482.603 490.29ZM478.681 495.263C479.191 494.969 479.623 494.613 479.994 494.185C480.364 493.757 480.519 493.276 480.472 492.768C480.426 492.456 480.287 492.162 480.009 491.894C479.731 491.627 479.345 491.333 478.82 491.03L478.172 490.656C477.616 490.852 477.045 491.074 476.489 491.324C475.934 491.574 475.424 491.832 474.946 492.108C473.911 492.705 473.355 493.258 473.263 493.793C473.17 494.327 473.51 494.809 474.282 495.254C475.007 495.673 475.733 495.878 476.489 495.869C477.246 495.878 477.971 495.673 478.681 495.263ZM492.745 489.069C492.467 489.23 492.236 489.31 492.004 489.319C491.788 489.337 491.464 489.274 491.078 489.158L475.517 484.364C475.115 484.239 474.868 484.15 474.76 484.087C474.513 483.945 474.498 483.793 474.745 483.651L476.258 482.777C476.551 482.608 476.798 482.519 477.014 482.519C477.23 482.501 477.539 482.572 477.925 482.688L490.738 487.091L482.927 479.8C482.695 479.578 482.587 479.408 482.618 479.283C482.649 479.159 482.803 478.998 483.081 478.838L484.316 478.125C484.61 477.956 484.857 477.866 485.088 477.858C485.304 477.84 485.628 477.902 485.984 478.036L498.766 482.599L491.093 475.086C490.877 474.854 490.785 474.676 490.8 474.56C490.831 474.435 490.97 474.284 491.248 474.123L492.683 473.294C492.93 473.152 493.193 473.143 493.455 473.294C493.533 473.339 493.594 473.392 493.672 473.455C493.749 473.517 493.841 473.606 493.949 473.74L502.162 482.777C502.378 483.009 502.471 483.187 502.44 483.312C502.409 483.437 502.27 483.588 502.008 483.74L500.68 484.506C500.387 484.675 500.14 484.765 499.908 484.773C499.677 484.782 499.368 484.729 498.998 484.586L486.647 480.219L494.212 487.331C494.443 487.554 494.551 487.723 494.536 487.857C494.521 487.991 494.351 488.142 494.073 488.303L492.745 489.069ZM513 477.858C512.197 478.321 511.301 478.731 510.344 479.07C509.387 479.408 508.584 479.64 507.951 479.738C507.565 479.8 507.241 479.809 507.041 479.765C506.84 479.72 506.655 479.649 506.516 479.569L505.728 479.114C505.404 478.927 505.373 478.767 505.605 478.633C505.697 478.579 505.806 478.535 505.929 478.499C506.053 478.464 506.253 478.419 506.469 478.366C507.226 478.196 507.982 477.973 508.708 477.697C509.449 477.412 510.113 477.1 510.73 476.743C511.703 476.182 512.289 475.647 512.475 475.148C512.66 474.649 512.444 474.203 511.811 473.838C511.379 473.589 510.885 473.464 510.313 473.455C509.742 473.446 508.955 473.597 507.951 473.892L505.018 474.783C503.536 475.228 502.178 475.407 500.974 475.3C499.785 475.202 498.766 474.916 497.963 474.453C497.315 474.079 496.883 473.669 496.666 473.223C496.45 472.777 496.389 472.314 496.512 471.851C496.62 471.378 496.883 470.924 497.315 470.46C497.747 469.997 498.318 469.578 498.998 469.186C499.337 468.99 499.708 468.794 500.094 468.624C500.495 468.446 500.881 468.295 501.267 468.143C501.653 468.009 502.023 467.885 502.394 467.778C502.764 467.671 503.073 467.599 503.32 467.564C503.66 467.51 503.938 467.492 504.169 467.519C504.385 467.537 504.601 467.608 504.818 467.733L505.543 468.152C505.867 468.339 505.914 468.508 505.682 468.642C505.559 468.713 505.296 468.794 504.91 468.874C503.629 469.15 502.44 469.605 501.344 470.237C500.464 470.745 499.908 471.227 499.723 471.672C499.538 472.118 499.739 472.519 500.371 472.884C500.804 473.134 501.329 473.259 501.931 473.25C502.533 473.241 503.397 473.081 504.478 472.76L507.365 471.895C508.831 471.458 510.128 471.28 511.24 471.369C512.351 471.458 513.308 471.744 514.111 472.207C514.775 472.59 515.238 473.018 515.5 473.473C515.747 473.936 515.84 474.417 515.732 474.908C515.639 475.407 515.346 475.897 514.883 476.396C514.404 476.922 513.787 477.403 513 477.858Z" fill="#252F3E"/>
<path fill-rule="evenodd" clip-rule="evenodd" d="M523.42 480.505C522.093 485.603 516.705 491.013 510.36 494.676C501.468 499.809 490.167 502.536 478.651 502.875C477.74 502.902 477.586 502.313 478.496 502.18C488.84 500.593 499.214 497.26 507.566 492.439C513.201 489.186 518.218 484.934 521.506 480.255C521.969 479.543 523.636 479.667 523.42 480.505Z" fill="#FF9900"/>
<path fill-rule="evenodd" clip-rule="evenodd" d="M523.126 477.893C521.644 477.786 518.433 480.139 516.982 481.208C516.55 481.529 516.04 481.324 516.164 480.879C517.028 478.027 522.385 475.612 523.62 475.683C524.871 475.763 528.931 478.927 528.499 481.815C528.437 482.26 527.85 482.385 527.572 482.011C526.661 480.772 524.593 477.991 523.126 477.893Z" fill="#FF9900"/>
</g>
<path d="M388 133V258.351" stroke="#E0DBFF" stroke-miterlimit="10" stroke-dasharray="15 4"/>
<path d="M605.118 133V258.351" stroke="#E0DBFF" stroke-miterlimit="10" stroke-dasharray="15 4"/>
<path d="M496.555 195.672V321.03" stroke="#E0DBFF" stroke-miterlimit="10" stroke-dasharray="15 4"/>
<path d="M600.205 507.51L498.901 449.022C495.841 447.253 496.225 444.171 499.757 442.126L598.638 385.038C602.17 383 607.522 382.775 610.582 384.545L711.885 443.032C714.946 444.802 714.561 447.884 711.03 449.929L612.149 507.016C608.617 509.054 603.265 509.279 600.205 507.51Z" stroke="#e0dbff" stroke-miterlimit="10"/>
<path d="M496.835 320.676V446.027" stroke="#e0dbff" stroke-miterlimit="10"/>
<path d="M713.953 320.676V446.027" stroke="#e0dbff" stroke-miterlimit="10"/>
<path d="M605.39 383.348V508.706" stroke="#e0dbff" stroke-miterlimit="10"/>
<path d="M600.205 382.159L498.901 323.671C495.841 321.902 496.225 318.82 499.757 316.775L598.638 259.687C602.17 257.649 607.522 257.424 610.582 259.194L711.885 317.681C714.946 319.451 714.561 322.533 711.03 324.578L612.149 381.666C608.617 383.703 603.265 383.928 600.205 382.159Z" stroke="#702eea" stroke-miterlimit="10"/>
<path d="M571.437 331.793C571.324 331.858 571.238 331.968 571.272 332.048L571.437 332.813C571.471 332.893 571.549 332.908 571.662 332.843L581.646 327.109C581.733 327.059 581.776 326.934 581.759 326.854L581.508 326.169C581.473 326.089 581.369 326.059 581.257 326.124L571.437 331.793Z" fill="#e0dbff"/>
<path d="M582.357 328.408L569.818 335.647C569.705 335.712 569.618 335.822 569.653 335.902L569.818 336.667C569.852 336.747 569.93 336.762 570.043 336.697L583.024 329.173C583.136 329.108 583.188 329.018 583.11 328.933L582.668 328.428C582.608 328.363 582.478 328.348 582.365 328.413L582.357 328.408Z" fill="#e0dbff"/>
<path d="M584.279 330.218L578.78 333.393C578.667 333.458 578.65 333.568 578.667 333.648L578.971 334.263C579.005 334.343 579.109 334.373 579.222 334.308L585.241 330.863C585.327 330.813 585.345 330.703 585.241 330.643L584.634 330.233C584.522 330.168 584.392 330.153 584.279 330.218Z" fill="#e0dbff"/>
<path d="M625.403 303.687C622.407 302.367 619.047 301.988 615.393 302.387C611.384 302.832 608.465 304.197 606.153 306.102C603.46 308.327 602.421 310.516 603.044 313.196C603.313 314.341 603.876 315.396 604.733 316.35L595.866 321.47C595.45 321.71 595.537 321.98 595.623 322.12C595.961 322.754 596.723 323.964 597.217 324.659C597.494 325.039 597.987 325.164 598.559 324.834L603.867 321.77C603.971 322.15 604.092 322.469 604.144 322.789C604.309 324.314 603.399 325.599 601.287 326.539C598.81 327.619 595.476 327.444 593.25 326.189C590.999 324.919 590.168 323.329 590.826 321.55C591.371 320.055 592.809 318.945 595.389 318.435C596.247 318.26 596.853 318.26 597.727 318.295C598.498 318.33 598.49 318.295 598.801 317.995C600.066 316.755 600.923 315.88 602.213 314.626C602.456 314.386 602.438 314.246 602.023 314.196C599.745 313.671 597.372 313.511 594.956 313.796C591.215 314.206 588.436 315.461 586.314 317.225C583.734 319.385 582.764 321.815 583.379 324.419C583.924 326.834 585.743 328.893 589.102 330.423C591.934 331.708 595.121 332.218 598.697 331.933C602.551 331.618 605.573 330.473 607.911 328.714C610.743 326.569 611.713 324.139 611.072 321.49C610.925 320.875 610.648 320.295 610.318 319.725C612.466 320.435 614.865 320.74 617.402 320.635C620.978 320.48 623.975 319.57 626.529 318.155C627.161 317.69 627.871 317.25 628.478 316.74C630.513 314.966 631.586 313.006 631.552 310.896C631.517 307.927 629.569 305.562 625.386 303.687L625.403 303.687ZM623.724 313.006C623.013 314.276 621.576 315.196 619.402 315.69C616.536 316.325 613.323 315.67 611.678 314.151C609.695 312.306 609.721 310.421 611.704 308.607C613.713 306.747 617.757 306.192 620.97 307.477C621.299 307.607 621.576 307.767 621.966 307.952C624.191 309.396 624.771 311.091 623.732 313.001L623.724 313.006Z" fill="#e0dbff"/>
<path d="M383.37 507.51L282.066 449.022C279.006 447.253 279.39 444.171 282.922 442.126L381.803 385.038C385.335 383 390.687 382.775 393.747 384.545L495.051 443.032C498.111 444.802 497.727 447.884 494.195 449.929L395.314 507.016C391.782 509.054 386.43 509.279 383.37 507.51Z" stroke="#e0dbff" stroke-miterlimit="10"/>
<path d="M280 320.676V446.027" stroke="#e0dbff" stroke-miterlimit="10"/>
<path d="M497.118 320.676V446.027" stroke="#e0dbff" stroke-miterlimit="10"/>
<path d="M388.555 383.348V508.706" stroke="#e0dbff" stroke-miterlimit="10"/>
<path d="M383.37 382.159L282.066 323.671C279.006 321.902 279.39 318.82 282.922 316.775L381.803 259.687C385.335 257.649 390.687 257.424 393.747 259.194L495.051 317.681C498.111 319.451 497.727 322.533 494.195 324.578L395.314 381.666C391.782 383.703 386.43 383.928 383.37 382.159Z" stroke="#702eea" stroke-miterlimit="10"/>
<path d="M491.37 251.51L390.067 193.022C387.007 191.253 387.391 188.171 390.923 186.126L489.804 129.038C493.335 127 498.687 126.775 501.748 128.545L603.051 187.032C606.111 188.802 605.727 191.884 602.195 193.929L503.314 251.016C499.782 253.054 494.431 253.279 491.37 251.51Z" stroke="#e0dbff" stroke-miterlimit="10"/>
<path d="M388 64.6763V190.027" stroke="#e0dbff" stroke-miterlimit="10"/>
<path d="M605.118 64.6763V190.027" stroke="#e0dbff" stroke-miterlimit="10"/>
<path d="M496.556 127.348V252.706" stroke="#e0dbff" stroke-miterlimit="10"/>
<path d="M383.464 299.905L356.299 315.587C354.481 316.637 354.472 318.342 356.299 319.397L383.464 335.08C385.283 336.129 388.236 336.134 390.063 335.08L417.228 319.397C419.047 318.347 419.055 316.642 417.228 315.587L390.063 299.905C388.245 298.855 385.292 298.85 383.464 299.905ZM391.31 317.002L387.075 319.447L399.138 326.411L395.787 328.346L383.724 321.382L379.507 323.816L376.797 322.251L388.6 315.437L391.31 317.002ZM412.171 316.417C412.422 316.922 412.448 317.427 412.258 317.937C412.067 318.447 411.695 318.952 411.132 319.447C410.569 319.942 409.893 320.422 409.105 320.877C408.317 321.332 407.451 321.752 406.577 322.096C405.702 322.441 404.862 322.686 404.057 322.841L400.758 320.937C401.857 320.882 402.879 320.722 403.832 320.462C404.784 320.202 405.616 319.862 406.334 319.447C406.75 319.207 407.088 318.972 407.322 318.747C407.555 318.522 407.711 318.312 407.798 318.112C407.876 317.917 407.867 317.732 407.789 317.567C407.711 317.402 407.564 317.257 407.356 317.137C407.07 316.972 406.724 316.872 406.334 316.837C405.945 316.802 405.512 316.812 405.027 316.862C404.551 316.917 404.022 317.002 403.459 317.127C402.888 317.247 402.282 317.387 401.641 317.547C400.004 317.932 398.558 318.097 397.294 318.017C396.029 317.947 394.912 317.622 393.925 317.052C393.154 316.607 392.652 316.137 392.41 315.637C392.167 315.138 392.124 314.633 392.306 314.118C392.488 313.603 392.834 313.093 393.371 312.593C393.908 312.093 394.566 311.613 395.345 311.163C396.125 310.713 396.843 310.348 397.536 310.058C398.229 309.768 398.913 309.533 399.606 309.353L402.689 311.133C402.264 311.178 401.849 311.248 401.424 311.343C401 311.438 400.584 311.548 400.195 311.673C399.796 311.803 399.433 311.943 399.078 312.098C398.731 312.248 398.42 312.408 398.142 312.568C397.761 312.788 397.458 313.003 397.225 313.228C396.982 313.448 396.826 313.658 396.74 313.858C396.653 314.058 396.644 314.243 396.714 314.413C396.783 314.583 396.93 314.738 397.155 314.868C397.406 315.013 397.692 315.098 398.021 315.138C398.35 315.178 398.723 315.173 399.13 315.138C399.545 315.098 400.013 315.028 400.524 314.933C401.035 314.838 401.598 314.703 402.212 314.558C403.052 314.363 403.849 314.203 404.594 314.093C405.339 313.983 406.066 313.933 406.75 313.938C407.434 313.943 408.101 314.028 408.724 314.188C409.357 314.343 409.971 314.598 410.569 314.943C411.392 315.417 411.928 315.907 412.18 316.412L412.171 316.417Z" fill="#e0dbff"/>
<path d="M491.37 126.159L390.066 67.6714C387.006 65.9019 387.39 62.8198 390.922 60.7747L489.803 3.68698C493.335 1.64917 498.687 1.42435 501.747 3.19384L603.051 61.6812C606.111 63.4507 605.727 66.5328 602.195 68.5779L503.314 125.666C499.782 127.703 494.43 127.928 491.37 126.159Z" fill="#f6f5ff" stroke="#702eea" stroke-miterlimit="10"/>
<path d="M480.434 53.3877C470.494 59.1266 475.454 61.2697 475.454 61.2697L479.946 63.8631L489.439 58.3823L490.791 59.1627L477.544 66.8105C477.544 66.8105 470.452 70.0642 480.538 75.8871C490.625 81.7101 495.814 78.2943 495.814 78.2943L499.131 76.3794L494.451 73.678C494.451 73.678 488.691 70.5564 494.327 67.3028L503.737 61.87C503.737 61.87 509.103 58.8685 503.883 55.855L495.252 50.8725C495.252 50.8725 490.833 47.3967 480.445 53.3938L480.434 53.3877ZM478.23 58.1542C478.459 58.0221 478.719 57.9201 479.02 57.854C479.311 57.782 479.623 57.746 479.946 57.752C480.258 57.752 480.58 57.794 480.882 57.86C481.173 57.9321 481.433 58.0341 481.661 58.1662C481.89 58.2982 482.067 58.4483 482.192 58.6164C482.317 58.7845 482.379 58.9646 482.379 59.1567C482.379 59.3488 482.317 59.5169 482.202 59.6909C482.077 59.859 481.911 60.0151 481.682 60.1472C481.454 60.2792 481.194 60.3813 480.892 60.4473C480.601 60.5194 480.289 60.5554 479.967 60.5494C479.655 60.5494 479.332 60.5074 479.031 60.4413C478.74 60.3693 478.48 60.2672 478.251 60.1352C478.022 60.0031 477.845 59.853 477.72 59.6849C477.596 59.5169 477.533 59.3368 477.533 59.1447C477.533 58.9646 477.596 58.7845 477.71 58.6104C477.835 58.4423 478.001 58.2862 478.23 58.1542Z" fill="#702eea"/>
<path d="M519.875 75.8209C529.816 70.082 524.856 67.9389 524.856 67.9389L520.364 65.3456L510.87 70.8264L509.519 70.046L522.766 62.3981C522.766 62.3981 529.858 59.1445 519.771 53.3215C509.685 47.4986 504.496 50.9143 504.496 50.9143L501.179 52.8293L505.858 55.5306C505.858 55.5306 511.619 58.6522 505.983 61.9059L496.573 67.3386C496.573 67.3386 491.207 70.3401 496.427 73.3537L505.058 78.3362C505.058 78.3362 509.477 81.8119 519.865 75.8149L519.875 75.8209ZM522.08 71.0665C521.851 71.1986 521.591 71.3006 521.289 71.3667C520.998 71.4387 520.686 71.4747 520.364 71.4687C520.052 71.4687 519.73 71.4267 519.428 71.3607C519.137 71.2886 518.877 71.1866 518.648 71.0545C518.42 70.9224 518.243 70.7724 518.118 70.6043C517.993 70.4362 517.931 70.2561 517.931 70.064C517.931 69.8839 517.993 69.7038 518.108 69.5297C518.232 69.3617 518.399 69.2056 518.628 69.0735C518.856 68.9414 519.116 68.8394 519.418 68.7733C519.709 68.7013 520.021 68.6653 520.343 68.6713C520.655 68.6713 520.978 68.7133 521.279 68.7794C521.57 68.8514 521.83 68.9534 522.059 69.0855C522.288 69.2176 522.464 69.3677 522.589 69.5357C522.714 69.7038 522.776 69.8839 522.776 70.076C522.776 70.2561 522.714 70.4362 522.6 70.6103C522.475 70.7784 522.309 70.9344 522.08 71.0665Z" fill="#702eea"/>
<path d="M126 170L126 89.6604C126 76.0404 137.03 65.0004 150.63 65.0004L387 65" stroke="#e0dbff" stroke-miterlimit="10"/>
<path d="M146.11 164L146.11 103.31C146.11 92.7902 154.64 84.2502 165.14 84.2502L387 84.25" stroke="#e0dbff" stroke-miterlimit="10"/>
<path d="M166.2 165L166.2 116.98C166.2 109.54 172.21 103.52 179.64 103.52L388 103.52" stroke="#e0dbff" stroke-miterlimit="10"/>
<path d="M186.31 166L186.31 130.62C186.31 126.28 189.83 122.76 194.16 122.76L389 122.76" stroke="#e0dbff" stroke-miterlimit="10"/>
<rect x="249" y="71" width="47" height="47" rx="23.5" fill="white"/>
<path d="M272.5 74.9167C261.729 74.9167 252.917 83.7292 252.917 94.5001C252.917 105.271 261.729 114.083 272.5 114.083C283.271 114.083 292.083 105.271 292.083 94.5001C292.083 83.7292 283.271 74.9167 272.5 74.9167ZM268.583 104.292L258.792 94.5001L261.553 91.7388L268.583 98.7497L283.447 83.8859L286.208 86.6667L268.583 104.292Z" fill="#1C7D41"/>
<rect x="0.5" y="157.5" width="354" height="105" rx="9.5" fill="white" stroke="#e0dbff"/>
<path d="M28.652 226.556C28.544 225.584 28.058 225.146 27.176 225.074V227.99C28.79 228.638 29.828 229.178 29.828 230.6C29.828 231.932 28.952 232.958 27.212 233.12V234.848H26.312V233.132C24.548 233.006 23.708 232.028 23.612 230.546L24.764 230.408C24.884 231.482 25.394 232.028 26.354 232.136V228.95C24.998 228.386 23.996 227.768 23.996 226.382C23.996 225.068 24.836 224.3 26.312 224.132V222.392H27.212V224.102C28.646 224.168 29.714 224.816 29.786 226.454L28.652 226.556ZM25.166 226.292C25.166 226.928 25.508 227.252 26.354 227.642V225.098C25.562 225.212 25.166 225.62 25.166 226.292ZM27.176 232.136C28.13 232.028 28.61 231.518 28.61 230.726C28.61 230 28.124 229.682 27.176 229.286V232.136Z" fill="#702eea"/>
<path d="M44.6088 229.91C44.6088 231.914 43.6968 233.144 42.1428 233.144C41.2368 233.144 40.6248 232.73 40.2288 232.184H40.1508V235.322H39.0168V226.838H39.9768L40.0668 227.654H40.2228C40.6668 227.108 41.2968 226.694 42.1908 226.694C43.7508 226.694 44.6088 227.948 44.6088 229.91ZM40.1508 231.482C40.6548 231.998 41.1708 232.184 41.7108 232.184C42.8088 232.184 43.4388 231.44 43.4388 229.91C43.4388 228.416 42.8448 227.66 41.7288 227.66C41.1768 227.66 40.6668 227.846 40.1508 228.362V231.482ZM46.4582 226.838H47.5922V230.942C47.5922 231.95 48.1142 232.208 48.7382 232.208C49.4582 232.208 50.0342 231.86 50.4962 231.326V226.838H51.6302V233H50.6702L50.5682 232.118H50.4182C49.9322 232.634 49.2902 233.138 48.2462 233.138C47.1482 233.138 46.4582 232.58 46.4582 231.248V226.838ZM53.7316 233V232.082H55.9156L55.9216 224.72H53.7316V223.82L56.9056 223.688L57.0556 223.826V232.082H59.2396V233H53.7316ZM61.341 226.838H62.475V230.942C62.475 231.95 62.997 232.208 63.621 232.208C64.341 232.208 64.917 231.86 65.379 231.326V226.838H66.513V233H65.553L65.451 232.118H65.301C64.815 232.634 64.173 233.138 63.129 233.138C62.031 233.138 61.341 232.58 61.341 231.248V226.838ZM72.4064 233H71.3384V228.428C71.3384 227.816 71.0024 227.654 70.6604 227.654C70.2164 227.654 69.8624 227.936 69.6104 228.338V233H68.5544V226.838H69.4424L69.5324 227.726H69.6224C69.9224 227.126 70.4564 226.7 71.1704 226.7C71.8244 226.7 72.2684 227.03 72.3704 227.726H72.4304C72.7304 227.126 73.2404 226.7 73.9604 226.7C74.7044 226.7 75.1784 227.132 75.1844 228.062L75.1904 233H74.1224V228.428C74.1224 227.816 73.7864 227.654 73.4384 227.654C72.9944 227.654 72.6464 227.93 72.3944 228.326L72.4064 233ZM77.1238 233V232.088H78.7738V227.738H77.1238V226.838L79.7638 226.7L79.9138 226.844V232.088H81.5638V233H77.1238ZM79.1278 225.308C78.6298 225.308 78.2878 225.014 78.2878 224.534C78.2878 224.054 78.6298 223.766 79.1278 223.766C79.6198 223.766 79.9618 224.054 79.9618 224.534C79.9618 225.014 79.6198 225.308 79.1278 225.308ZM96.2787 233H95.1447V228.89C95.1447 227.888 94.6227 227.624 93.9987 227.624C93.2787 227.624 92.7027 227.978 92.2407 228.512V233H91.1067V226.838H92.0667L92.1687 227.72H92.3187C92.8047 227.198 93.4467 226.694 94.4907 226.694C95.5887 226.694 96.2787 227.252 96.2787 228.59V233ZM98.1281 229.91C98.1281 227.828 99.3701 226.694 101.266 226.694C103.012 226.694 104.032 227.606 104.032 229.418V229.958H99.2921C99.3101 231.458 100.024 232.214 101.23 232.214C102.016 232.214 102.61 231.896 102.904 231.194L104.008 231.38C103.588 232.532 102.58 233.144 101.224 233.144C99.3821 233.144 98.1281 232.028 98.1281 229.91ZM99.3521 229.202H102.922C102.916 228.104 102.196 227.624 101.23 227.624C100.222 227.624 99.5501 228.158 99.3521 229.202ZM105.011 226.838H106.115L107.255 231.296H107.357L108.605 227.75H109.343L110.525 231.296H110.633L111.761 226.838H112.823L111.191 233H110.201L108.959 229.244H108.881L107.573 233H106.637L105.011 226.838ZM126.398 231.122C126.056 232.484 124.934 233.144 123.53 233.144C121.712 233.144 120.452 232.04 120.452 229.904C120.452 227.756 121.736 226.694 123.59 226.694C125.096 226.694 126.242 227.396 126.398 228.878L125.276 228.974C125.132 228.026 124.46 227.624 123.56 227.624C122.288 227.624 121.622 228.428 121.622 229.904C121.622 231.464 122.366 232.214 123.536 232.214C124.43 232.214 125.048 231.782 125.3 230.948L126.398 231.122ZM133.906 229.928C133.906 232.088 132.556 233.144 130.9 233.144C129.25 233.144 127.894 232.088 127.894 229.928C127.894 227.774 129.25 226.694 130.9 226.694C132.556 226.694 133.906 227.774 133.906 229.928ZM132.736 229.928C132.736 228.356 131.98 227.624 130.9 227.624C129.82 227.624 129.058 228.356 129.058 229.928C129.058 231.5 129.82 232.214 130.9 232.214C131.98 232.214 132.736 231.5 132.736 229.928ZM140.927 233H139.793V228.89C139.793 227.888 139.271 227.624 138.647 227.624C137.927 227.624 137.351 227.978 136.889 228.512V233H135.755V226.838H136.715L136.817 227.72H136.967C137.453 227.198 138.095 226.694 139.139 226.694C140.237 226.694 140.927 227.252 140.927 228.59V233ZM146.977 233.12C145.195 233.126 144.439 232.58 144.439 230.504V227.756H142.651V226.838H144.439V224.906H145.579V226.838H148.411V227.756H145.579V230.45C145.579 231.788 145.975 232.118 147.073 232.118C147.589 232.118 148.087 232.034 148.555 231.914V232.904C148.099 233.042 147.535 233.12 146.977 233.12ZM153.08 226.694C154.586 226.694 155.468 227.192 155.468 228.644V231.698C155.468 232.142 155.636 232.256 156.2 232.172V233C155.918 233.084 155.66 233.12 155.432 233.12C154.688 233.12 154.442 232.724 154.4 232.232H154.292C153.794 232.682 153.164 233.144 152.168 233.144C151.028 233.144 150.302 232.532 150.302 231.482C150.302 229.76 152.24 229.538 154.334 229.55V228.71C154.334 227.72 153.776 227.498 152.96 227.504C152.18 227.51 151.586 227.732 151.574 228.554V228.818H150.512V228.494C150.512 227.438 151.238 226.694 153.08 226.694ZM151.49 231.344C151.49 231.956 151.934 232.286 152.678 232.286C153.326 232.286 153.83 232.034 154.334 231.668V230.216C154.142 230.198 153.944 230.186 153.764 230.186C152.348 230.186 151.49 230.498 151.49 231.344ZM157.911 233V232.082H160.095V227.738H157.911V226.838L161.085 226.7L161.235 226.844V232.082H163.419V233H157.911ZM160.443 225.284C159.945 225.284 159.603 224.99 159.603 224.51C159.603 224.03 159.945 223.742 160.443 223.742C160.935 223.742 161.277 224.03 161.277 224.51C161.277 224.99 160.935 225.284 160.443 225.284ZM170.693 233H169.559V228.89C169.559 227.888 169.037 227.624 168.413 227.624C167.693 227.624 167.117 227.978 166.655 228.512V233H165.521V226.838H166.481L166.583 227.72H166.733C167.219 227.198 167.861 226.694 168.905 226.694C170.003 226.694 170.693 227.252 170.693 228.59V233ZM172.542 229.91C172.542 227.828 173.784 226.694 175.68 226.694C177.426 226.694 178.446 227.606 178.446 229.418V229.958H173.706C173.724 231.458 174.438 232.214 175.644 232.214C176.43 232.214 177.024 231.896 177.318 231.194L178.422 231.38C178.002 232.532 176.994 233.144 175.638 233.144C173.796 233.144 172.542 232.028 172.542 229.91ZM173.766 229.202H177.336C177.33 228.104 176.61 227.624 175.644 227.624C174.636 227.624 173.964 228.158 173.766 229.202ZM182.732 226.838L182.828 227.714H182.984C183.62 227.054 184.232 226.694 185.312 226.694C185.534 226.694 185.72 226.712 185.906 226.748V227.81C184.538 227.81 183.812 227.9 182.906 228.524V232.082H185.09V233H180.134V232.082H181.772V227.756H180.134V226.838H182.732ZM188.511 229.562V228.578H192.351V229.562H188.511ZM197.728 226.694C199.234 226.694 200.116 227.192 200.116 228.644V231.698C200.116 232.142 200.284 232.256 200.848 232.172V233C200.566 233.084 200.308 233.12 200.08 233.12C199.336 233.12 199.09 232.724 199.048 232.232H198.94C198.442 232.682 197.812 233.144 196.816 233.144C195.676 233.144 194.95 232.532 194.95 231.482C194.95 229.76 196.888 229.538 198.982 229.55V228.71C198.982 227.72 198.424 227.498 197.608 227.504C196.828 227.51 196.234 227.732 196.222 228.554V228.818H195.16V228.494C195.16 227.438 195.886 226.694 197.728 226.694ZM196.138 231.344C196.138 231.956 196.582 232.286 197.326 232.286C197.974 232.286 198.478 232.034 198.982 231.668V230.216C198.79 230.198 198.592 230.186 198.412 230.186C196.996 230.186 196.138 230.498 196.138 231.344ZM201.75 226.838H202.836L203.826 231.26H203.928L204.99 227.786H205.758L206.748 231.26H206.85L207.834 226.838H208.878L207.414 233H206.406L205.356 229.292H205.272L204.15 233H203.214L201.75 226.838ZM212.779 226.694C214.405 226.694 215.341 227.282 215.389 228.53L214.357 228.602C214.279 227.9 213.739 227.54 212.701 227.54C211.765 227.54 211.177 227.816 211.177 228.398C211.177 228.926 211.675 229.142 213.049 229.424C214.693 229.76 215.461 230.138 215.461 231.212C215.461 232.37 214.543 233.138 212.731 233.138C211.027 233.138 210.055 232.652 209.779 231.212L210.823 231.08C211.111 232.16 211.897 232.262 212.785 232.262C213.889 232.262 214.327 231.824 214.327 231.338C214.327 230.798 213.811 230.606 212.347 230.306C210.865 230 210.091 229.556 210.091 228.5C210.091 227.402 210.925 226.694 212.779 226.694ZM218.277 229.562V228.578H222.117V229.562H218.277ZM230.644 229.91C230.644 231.914 229.732 233.144 228.178 233.144C227.272 233.144 226.66 232.73 226.264 232.184H226.186V235.322H225.052V226.838H226.012L226.102 227.654H226.258C226.702 227.108 227.332 226.694 228.226 226.694C229.786 226.694 230.644 227.948 230.644 229.91ZM226.186 231.482C226.69 231.998 227.206 232.184 227.746 232.184C228.844 232.184 229.474 231.44 229.474 229.91C229.474 228.416 228.88 227.66 227.764 227.66C227.212 227.66 226.702 227.846 226.186 228.362V231.482ZM231.899 226.838H233.123L235.205 231.656H235.289L237.107 226.838H238.253L235.871 232.904C235.301 234.362 234.503 235.466 232.829 235.466C232.547 235.466 232.319 235.43 232.103 235.382V234.368C232.337 234.428 232.577 234.464 232.853 234.464C233.885 234.464 234.335 233.912 234.551 233.366L234.647 233.102L231.899 226.838ZM243.715 233.12C241.933 233.126 241.177 232.58 241.177 230.504V227.756H239.389V226.838H241.177V224.906H242.317V226.838H245.149V227.756H242.317V230.45C242.317 231.788 242.713 232.118 243.811 232.118C244.327 232.118 244.825 232.034 245.293 231.914V232.904C244.837 233.042 244.273 233.12 243.715 233.12ZM248.51 233H247.376V223.82H248.51V227.72H248.654C249.134 227.198 249.77 226.694 250.79 226.694C251.87 226.694 252.548 227.252 252.548 228.59V233H251.414V228.89C251.414 227.888 250.892 227.624 250.268 227.624C249.536 227.624 248.966 227.984 248.51 228.536V233ZM260.41 229.928C260.41 232.088 259.06 233.144 257.404 233.144C255.754 233.144 254.398 232.088 254.398 229.928C254.398 227.774 255.754 226.694 257.404 226.694C259.06 226.694 260.41 227.774 260.41 229.928ZM259.24 229.928C259.24 228.356 258.484 227.624 257.404 227.624C256.324 227.624 255.562 228.356 255.562 229.928C255.562 231.5 256.324 232.214 257.404 232.214C258.484 232.214 259.24 231.5 259.24 229.928ZM267.431 233H266.297V228.89C266.297 227.888 265.775 227.624 265.151 227.624C264.431 227.624 263.855 227.978 263.393 228.512V233H262.259V226.838H263.219L263.321 227.72H263.471C263.957 227.198 264.599 226.694 265.643 226.694C266.741 226.694 267.431 227.252 267.431 228.59V233Z" fill="#404041"/>
<path d="M10 157.5H345C350.247 157.5 354.5 161.753 354.5 167V200.5H0.5V167C0.500001 161.753 4.7533 157.5 10 157.5Z" fill="#f6f5ff" stroke="#e0dbff"/>
<circle cx="23.0635" cy="180.064" r="6.29606" stroke="#e0dbff" stroke-width="1.53493"/>
<circle cx="43.2452" cy="180.064" r="6.29606" stroke="#e0dbff" stroke-width="1.53493"/>
<circle cx="63.4263" cy="180.064" r="6.29606" stroke="#e0dbff" stroke-width="1.53493"/>
</g>
<defs>
<clipPath id="clip0_1058_36426">
<rect width="748" height="515" fill="white"/>
</clipPath>
<clipPath id="clip1_1058_36426">
<rect width="54.1899" height="32.4426" fill="white" transform="matrix(0.866041 -0.499972 0.866041 0.499972 459.014 492.073)"/>
</clipPath>
</defs>
</svg>
