<svg width="256" height="256" viewBox="0 0 256 256" version="1.1" xmlns="http://www.w3.org/2000/svg" xmlns:xlink="http://www.w3.org/1999/xlink">
<title>VSTS_color_scalable</title>
<desc>Created using Figma</desc>
<g id="Canvas" transform="translate(-2092 -232)">
<g id="VSTS_color_scalable">
<g id="layer1">
<g id="g14217">
<g id="path14209">
<use xlink:href="#path0_fill" transform="matrix(2.66667 0 0 2.66667 2092 292.961)" fill="#0078D7"/>
</g>
<g id="path14211">
<use xlink:href="#path1_fill" transform="matrix(2.66667 0 0 2.66667 2285.41 278.608)" fill="#0078D7"/>
</g>
<g id="path14213">
<use xlink:href="#path2_fill" transform="matrix(2.66667 0 0 2.66667 2092 232)" fill="#0078D7"/>
</g>
<g id="path14215">
<use xlink:href="#path3_fill" transform="matrix(2.66667 0 0 2.66667 2117.94 404.124)" fill="#0078D7"/>
</g>
</g>
</g>
</g>
</g>
<defs>
<path id="path0_fill" d="M 9.72656 -9.67496e-06L 0 12.7049L 0 39.8795L 9.72656 41.686L 9.72656 -9.67496e-06Z"/>
<path id="path1_fill" d="M -3.27778e-05 4.28298L -3.27778e-05 78.4837L 23.4705 59.132L 23.4705 -6.25618e-06L -3.27778e-05 4.28298Z"/>
<path id="path2_fill" d="M 0 35.5653L 72.5295 21.761L 42.7189 8.15647e-06L 42.7189 9.96245L 9.72656 22.8604L 0 35.5653Z"/>
<path id="path3_fill" d="M 2.5e-06 5.27567e-06L 86.2734 12.0637L 62.803 31.4153L 26.6239 19.3276L 26.6239 31.4536L 2.5e-06 5.27567e-06Z"/>
</defs>
</svg>
