<svg width="160" height="32" viewBox="0 0 160 32" fill="none" xmlns="http://www.w3.org/2000/svg">
<g id="logo-gradient-blue-bitbucket">
<path d="M0 0H160V32H0V0Z" fill="white" fill-opacity="0.01"/>
<g id="Bitbucket">
<path d="M33.9263 5.59874H42.6235C46.8643 5.59874 48.9128 7.61453 48.9128 10.8468C48.9128 13.2796 47.7627 14.7741 45.4267 15.2954C48.4815 15.782 50.0269 17.4155 50.0269 20.2654C50.0269 23.4629 47.7987 25.6872 43.1266 25.6872H33.9263V5.59874ZM36.8014 14.1833H42.2641C44.9595 14.1833 46.0736 13.0016 46.0736 11.0553C46.0736 9.109 44.8876 8.17062 42.2641 8.17062H36.8014V14.1833ZM36.8014 16.6509V22.9068H43.2704C46.0017 22.9068 47.2237 21.9684 47.2237 19.9526C47.2237 17.7978 46.0377 16.6509 43.1985 16.6509H36.8014Z" fill="#253858"/>
<path d="M54.699 4.52133C55.8131 4.52133 56.6037 5.18167 56.6037 6.36335C56.6037 7.51027 55.8131 8.20537 54.699 8.20537C53.5848 8.20537 52.7942 7.54502 52.7942 6.36335C52.7942 5.18167 53.5848 4.52133 54.699 4.52133ZM53.2973 10.3949H56.0287V25.6872H53.2973V10.3949Z" fill="#253858"/>
<path d="M66.3792 23.2196C67.0261 23.2196 67.6011 23.0806 68.1042 23.0111V25.5482C67.637 25.6872 67.0979 25.7915 66.2713 25.7915C62.8931 25.7915 61.2399 23.8799 61.2399 21.03V12.8278H58.6882V10.3949H61.2399V7.16272H63.8994V10.3949H68.1042V12.8278H63.8994V20.9258C63.8994 22.2812 64.726 23.2196 66.3792 23.2196Z" fill="#253858"/>
<path d="M74.2855 22.9763V25.6524H71.5542V4H74.2855V13.1406C75.2918 11.1248 77.1966 10.0821 79.6404 10.0821C83.8453 10.0821 85.9657 13.5229 85.9657 18.0411C85.9657 22.3507 83.7375 26 79.317 26C77.0169 26 75.2559 24.9921 74.2855 22.9763ZM78.9217 12.5498C76.4778 12.5498 74.3215 14.0442 74.3215 17.4502V18.6667C74.3215 22.0727 76.2981 23.5671 78.6341 23.5671C81.6889 23.5671 83.2703 21.6209 83.2703 18.0758C83.2343 14.357 81.7249 12.5498 78.9217 12.5498Z" fill="#253858"/>
<path d="M88.8049 10.3949H91.5362V19.6398C91.5362 22.3855 92.6863 23.6019 95.2739 23.6019C97.7896 23.6019 99.5506 21.9684 99.5506 18.8752V10.3949H102.282V25.6872H99.5506V23.1848C98.5443 24.9921 96.6755 26 94.5551 26C90.9253 26 88.8408 23.5671 88.8408 19.3618V10.3949H88.8049Z" fill="#253858"/>
<path d="M117.52 25.2701C116.586 25.7567 115.112 25.9652 113.675 25.9652C108.032 25.9652 105.409 22.6635 105.409 17.9716C105.409 13.3491 108.032 10.0474 113.675 10.0474C115.112 10.0474 116.19 10.2212 117.448 10.7772V13.2101C116.442 12.7583 115.364 12.4803 113.89 12.4803C109.793 12.4803 108.104 14.9826 108.104 17.9716C108.104 20.9605 109.829 23.4629 113.962 23.4629C115.58 23.4629 116.586 23.2543 117.556 22.9068V25.2701H117.52Z" fill="#253858"/>
<path d="M120.611 25.6872V4H123.342V17.5545L130.135 10.3949H133.693L126.253 17.9021L134.016 25.6872H130.314L123.342 18.5276V25.6872H120.611Z" fill="#253858"/>
<path d="M143.001 26C137.071 26 134.483 22.6983 134.483 18.0063C134.483 13.3839 137.143 10.0821 141.959 10.0821C146.846 10.0821 148.787 13.3491 148.787 18.0063V19.188H137.251C137.646 21.7946 139.371 23.4629 143.109 23.4629C144.942 23.4629 146.487 23.1153 147.925 22.6288V25.0616C146.631 25.7567 144.618 26 143.001 26ZM137.215 16.9289H146.056C145.912 14.079 144.582 12.4803 141.851 12.4803C138.976 12.4803 137.502 14.2875 137.215 16.9289Z" fill="#253858"/>
<path d="M158.275 23.2196C158.922 23.2196 159.497 23.0806 160 23.0111V25.5482C159.533 25.6872 158.994 25.7915 158.167 25.7915C154.789 25.7915 153.136 23.8799 153.136 21.03V12.8278H150.584V10.3949H153.136V7.16272H155.795V10.3949H160V12.8278H155.795V20.9258C155.795 22.2812 156.622 23.2196 158.275 23.2196Z" fill="#253858"/>
</g>
<g id="Icon">
<path id="Vector" d="M0.718705 6.18958C0.287438 6.18958 -0.0719508 6.57188 -7.29868e-05 6.98894L3.05473 24.8878C3.12661 25.3397 3.52194 25.6872 4.02508 25.6872H18.6522C19.0116 25.6872 19.2991 25.4439 19.371 25.0964L22.4258 6.98894C22.4977 6.57188 22.1742 6.18958 21.707 6.18958H0.718705ZM13.5848 19.1185H8.91277L7.65491 12.7235H14.7349L13.5848 19.1185Z" fill="#2684FF"/>
<path id="Vector_2" d="M21.4554 12.7235H14.6988L13.5847 19.1185H8.91267L3.37808 25.4439C3.37808 25.4439 3.62965 25.6872 4.02498 25.6872H18.6521C19.0115 25.6872 19.299 25.4439 19.3709 25.0963L21.4554 12.7235Z" fill="url(#paint0_linear)"/>
</g>
</g>
<defs>
<linearGradient id="paint0_linear" x1="23.0048" y1="14.52" x2="12.1415" y2="23.2886" gradientUnits="userSpaceOnUse">
<stop offset="0.176" stop-color="#0052CC"/>
<stop offset="1" stop-color="#2684FF"/>
</linearGradient>
</defs>
</svg>
