<svg width="32" height="32" viewBox="0 0 32 32" fill="none" xmlns="http://www.w3.org/2000/svg">
<path d="M16.4101 11.8046C18.4734 14.2137 19.3157 17.4369 18.6948 20.5474C21.9335 19.2556 23.1899 17.0897 23.5722 14.9238C23.5722 14.9238 24.6762 10.8194 26.3924 9.11328C23.0013 9.64549 22.6585 8.31497 16.4101 11.808" fill="#4DBEA4"/>
<path d="M11.2219 16C10.5439 13.9058 9.37482 12.0042 7.8122 10.4539C7.8122 10.4539 12.528 11.6935 15.2429 20.4952C12.6812 19.7221 11.5882 17.1941 11.2168 16H11.2219ZM17.0568 21.76C17.1326 21.339 18.3823 17.0813 15.9065 13.6236C11.7608 9.02909 5.51241 8.38403 5.51241 8.38403C6.73177 10.7419 6.77051 12.9432 8.10272 17.4316C9.71704 22.0783 15.6732 22.3916 16.1145 22.4C16.5145 23.0316 17.4316 23.8821 19.5309 24.3217L19.7634 23.2152C17.952 22.8362 17.2892 22.139 17.0619 21.755" fill="#4DBEA4"/>
<path d="M6.18105 7.03162C3.54611 8.27288 2.48926 11.3028 2.48926 15.9344C2.48926 20.4817 3.54442 23.5301 6.18105 24.8607L5.88547 25.9975C1.83579 24.5777 0 21.4215 0 15.9529C0 10.4421 1.83579 7.28425 5.88547 5.89478L6.18105 7.03162Z" fill="#29434B"/>
<path d="M25.6943 5.89478C29.7473 7.28256 31.5789 10.4421 31.5789 15.9512C31.5789 21.4249 29.7431 24.5777 25.6935 25.9857L25.3777 24.8506C28.016 23.5251 29.0695 20.4716 29.0695 15.9242C29.0695 11.2927 28.0143 8.26614 25.3777 7.02488L25.6943 5.89478Z" fill="#29434B"/>
</svg>
