<svg width="81" height="17" viewBox="0 0 81 17" fill="none" xmlns="http://www.w3.org/2000/svg">
<g clip-path="url(#clip0_7225_43052)">
<path d="M16.9673 5.56561L12.5764 1.27749C12.0564 0.798006 11.437 0.432892 10.76 0.20678C9.2598 -0.280386 7.76681 0.0998812 6.55768 1.27749L2.15595 5.56561C1.66437 6.07281 1.29004 6.67696 1.05822 7.33728C0.55696 8.80053 0.946827 10.2568 2.15595 11.4344L6.55229 15.7225C7.07146 16.2022 7.69031 16.5673 8.36688 16.7932C8.77674 16.9284 9.20624 16.9982 9.63888 17C10.6935 17 11.7032 16.5654 12.5692 15.7225L16.9637 11.4344C17.4559 10.9274 17.8309 10.3232 18.0632 9.66271C18.5627 8.19946 18.1728 6.74497 16.9637 5.56561H16.9673ZM9.8994 2.52169C10.2315 2.62555 10.5376 2.7963 10.7977 3.02288L12.0967 4.29162L9.56343 6.76074L7.03019 4.28986L8.33633 3.01412C8.68667 2.67415 9.18075 2.31316 9.90299 2.51994L9.8994 2.52169ZM3.43515 8.16792C3.54196 7.84374 3.71766 7.54518 3.95078 7.29172L5.24974 6.02473L7.78298 8.49561L5.24794 10.9665L3.9418 9.69075C3.59146 9.35078 3.22315 8.86888 3.43335 8.16441L3.43515 8.16792ZM9.22386 14.473C8.89133 14.3701 8.5851 14.1993 8.32555 13.9719L7.03019 12.7189L9.56343 10.2463L12.0967 12.7171L10.7905 13.9929C10.4402 14.3328 9.9479 14.6938 9.22386 14.4871V14.473ZM15.6917 8.83908C15.5849 9.1629 15.4099 9.46135 15.1779 9.71528L13.8789 10.9665L11.3457 8.49561L13.8789 6.02473L15.1851 7.29873C15.5354 7.63869 15.9037 8.1206 15.6935 8.82506" fill="#00ADE4"/>
<path d="M26.4481 14.5378H28.7173V8.39569C28.7173 6.50135 27.5369 5.10295 25.5229 5.10295C24.5419 5.10295 23.4909 5.52702 22.9447 6.30684V1.75061H20.6774V14.5326H22.9447V9.68722C22.9447 8.55517 23.5268 7.13923 24.8869 7.13923C26.0852 7.13923 26.4481 7.79287 26.4481 8.85658V14.5378ZM35.6109 10.9051C35.6109 12.2562 34.621 12.994 33.2178 12.994C32.5153 12.994 31.8847 12.5559 31.8847 11.8532C31.8847 11.1154 32.5512 10.7124 33.2358 10.6598L35.6109 10.4846V10.9051ZM37.5009 14.6798C37.8882 14.6921 38.2723 14.6077 38.6166 14.4345V12.8187C38.5224 12.8404 38.426 12.8521 38.3292 12.8538C37.9519 12.8538 37.8082 12.6961 37.8082 12.2737V8.88637C37.8365 8.26073 37.7445 7.63545 37.5369 7.04284C36.9979 5.67247 35.6289 5.1818 34.0281 5.1818C31.9386 5.1818 30.2641 6.0948 30.1384 8.14861H32.3177C32.3716 7.30571 32.9824 6.85009 34.0281 6.85009C35.3055 6.85009 35.6109 7.42837 35.6109 8.2888V8.85132L32.8549 9.03883C31.0726 9.16149 29.6874 10.1621 29.6874 11.9005C29.6874 13.3935 30.8391 14.7622 33.0723 14.7622C34.4036 14.7622 35.4833 14.1313 35.9163 13.3935C35.9882 14.0787 36.5272 14.6745 37.4991 14.6745L37.5009 14.6798ZM44.5707 7.35302C44.6908 7.35388 44.8107 7.36148 44.93 7.3758V5.30797C44.833 5.30797 44.7359 5.28695 44.6407 5.28695C43.5412 5.28695 42.4255 5.72505 41.9943 6.77824L41.7949 5.40962H39.8851V14.5396H42.1542V9.93956C42.1542 8.46404 42.9824 7.35828 44.5653 7.35828L44.5707 7.35302ZM51.6709 14.5431H53.9221V8.44652C53.9221 6.55042 52.7507 5.1818 50.7528 5.1818C49.6749 5.1818 48.5574 5.6199 47.9986 6.58372L47.8369 5.40786H45.9523V14.5378H48.2016V10.8175C48.2016 10.0447 48.1837 9.09666 48.5088 8.37642C48.8143 7.70876 49.3371 7.21808 50.1258 7.21808C51.3134 7.21808 51.6727 7.86822 51.6727 8.93894L51.6709 14.5431ZM61.3098 9.06511H57.2638C57.2539 8.55035 57.4258 8.04792 57.7507 7.64217C57.9378 7.41436 58.1769 7.23234 58.4489 7.11064C58.7209 6.98894 59.0183 6.93092 59.3173 6.94121C59.5787 6.92759 59.8401 6.96731 60.0848 7.05783C60.3295 7.14836 60.5521 7.28769 60.7385 7.46693C61.0978 7.85421 61.2972 8.37992 61.3152 9.06511H61.3098ZM63.5645 10.0482C63.6005 8.9074 63.4388 7.87173 62.7543 6.86936C61.9817 5.72855 60.7205 5.18531 59.3407 5.18531C58.7878 5.16957 58.2374 5.2642 57.7233 5.46339C57.2092 5.66258 56.7422 5.96212 56.3511 6.34364C55.4528 7.23911 55.0018 8.53764 55.0018 9.99563C55.0018 11.4887 55.5049 12.7697 56.4391 13.6476C56.8298 14.0174 57.2924 14.3073 57.7997 14.5002C58.3069 14.6931 58.8486 14.7852 59.3928 14.7709C60.5804 14.7709 61.75 14.4029 62.5423 13.4899C62.9016 13.0676 63.2807 12.3491 63.3346 11.8041H61.1786C61.1029 12.0968 60.9471 12.364 60.7277 12.5769C60.4043 12.8923 60.009 13.015 59.3604 13.015C58.8405 13.0133 58.3422 12.8119 57.9735 12.4542C57.7404 12.2169 57.5595 11.9356 57.4418 11.6276C57.3241 11.3197 57.2721 10.9915 57.2889 10.6633H63.5466C63.5466 10.4688 63.5645 10.0482 63.5645 10.0482ZM66.5865 7.95935C66.5918 7.74634 66.6634 7.53994 66.7918 7.3675C66.9201 7.19507 67.0991 7.06474 67.3051 6.99378C67.6152 6.88035 67.9466 6.83257 68.2771 6.85359C68.7242 6.84144 69.1601 6.99127 69.5006 7.27416C69.7359 7.50247 69.8711 7.81094 69.8779 8.13459H72.0212C71.9943 7.42971 71.699 6.75992 71.193 6.25602C70.5103 5.53403 69.3766 5.18355 68.2609 5.18355C67.0895 5.18355 66.105 5.51651 65.4169 6.09655C65.1096 6.34678 64.8643 6.66143 64.6991 7.01705C64.5339 7.37266 64.4531 7.76006 64.4629 8.15036C64.4629 9.30869 65.327 10.3268 66.6044 10.5914C67.4327 10.7667 68.3687 10.8193 69.197 10.9419C69.7719 11.0295 70.133 11.38 70.133 11.9075C70.133 12.9081 68.9814 13.0658 68.225 13.0658C67.5764 13.0658 67.1632 12.9432 66.8021 12.6628C66.5532 12.4454 66.3863 12.1529 66.3278 11.8321H64.2077C64.2948 12.5523 64.6396 13.2195 65.1815 13.716C65.9558 14.4362 67.0177 14.7674 68.207 14.7674C69.4844 14.7674 70.654 14.452 71.4104 13.716C71.6791 13.454 71.89 13.1412 72.03 12.7967C72.1699 12.4522 72.2361 12.0834 72.2243 11.713C72.2243 10.2725 71.1463 9.35952 69.6677 9.1317C68.7496 8.99151 68.516 8.97399 67.6698 8.86884C67.1668 8.79875 66.5919 8.60423 66.5919 7.95585L66.5865 7.95935ZM78.5142 8.13109H80.6504C80.6235 7.42621 80.3282 6.75642 79.8222 6.25252C79.1377 5.53403 78.004 5.18355 76.8955 5.18355C75.7259 5.18355 74.7395 5.51651 74.0514 6.09655C73.7442 6.34678 73.4988 6.66143 73.3336 7.01705C73.1684 7.37266 73.0877 7.76006 73.0974 8.15036C73.0974 9.30869 73.9616 10.3268 75.239 10.5914C76.0672 10.7667 77.0033 10.8193 77.8315 10.9419C78.4064 11.0295 78.7676 11.38 78.7676 11.9075C78.7676 12.9081 77.6141 13.0658 76.8596 13.0658C76.211 13.0658 75.7978 12.9432 75.4366 12.6628C75.1878 12.4454 75.0208 12.1529 74.9623 11.8321H72.8351C72.922 12.5528 73.2676 13.2201 73.8107 13.716C74.5832 14.4362 75.645 14.7674 76.8344 14.7674C78.1118 14.7674 79.2814 14.452 80.0378 13.716C80.3059 13.4537 80.516 13.1407 80.6554 12.7963C80.7948 12.4518 80.8603 12.0831 80.8481 11.713C80.8481 10.2725 79.7701 9.35952 78.2915 9.1317C77.3734 8.99151 77.1398 8.97399 76.2936 8.86884C75.7906 8.79875 75.2156 8.60423 75.2156 7.95585C75.221 7.74283 75.2926 7.53643 75.4209 7.364C75.5493 7.19157 75.7283 7.06124 75.9343 6.99027C76.2444 6.87685 76.5757 6.82906 76.9063 6.85009C77.3534 6.83794 77.7893 6.98777 78.1298 7.27066C78.3656 7.49879 78.5014 7.80723 78.5088 8.13109" fill="white"/>
</g>
<defs>
<clipPath id="clip0_7225_43052">
<rect width="80" height="17" fill="white" transform="translate(0.848022)"/>
</clipPath>
</defs>
</svg>
