<svg width="32" height="32" viewBox="0 0 32 32" fill="none" xmlns="http://www.w3.org/2000/svg">
<path d="M15.8921 0.445288C15.6171 0.459144 15.3476 0.527343 15.0994 0.645884L4.28246 5.81435C4.0025 5.94805 3.7565 6.1426 3.56274 6.38353C3.36898 6.62447 3.23245 6.90561 3.16328 7.20607L0.494656 18.8157C0.433034 19.0832 0.426137 19.3603 0.474375 19.6304C0.522613 19.9006 0.625005 20.1585 0.775491 20.3887C0.81198 20.445 0.851224 20.4995 0.893081 20.5519L8.38016 29.861C8.57395 30.1019 8.81998 30.2963 9.09995 30.43C9.37993 30.5636 9.68666 30.633 9.99738 30.6329L22.0041 30.6302C22.3147 30.6304 22.6213 30.5612 22.9013 30.4278C23.1813 30.2944 23.4274 30.1002 23.6213 29.8596L31.1056 20.5492C31.2995 20.3082 31.4361 20.0269 31.5054 19.7263C31.5746 19.4258 31.5746 19.1136 31.5054 18.813L28.8327 7.2033C28.7635 6.90284 28.6269 6.62171 28.4332 6.38077C28.2394 6.13983 27.9934 5.94528 27.7135 5.81158L16.8951 0.645884C16.583 0.496769 16.2381 0.427794 15.8921 0.445288V0.445288Z" fill="#326CE5"/>
<path d="M15.9993 4.39624C15.6418 4.39628 15.3519 4.71834 15.3519 5.11562C15.3519 5.12172 15.3531 5.12754 15.3533 5.1336C15.3528 5.18758 15.3501 5.25262 15.3519 5.29961C15.3604 5.52875 15.4104 5.70413 15.4404 5.91524C15.4949 6.36708 15.5405 6.74163 15.5124 7.08976C15.485 7.22104 15.3883 7.3411 15.3021 7.42455L15.2869 7.69847C14.8983 7.73066 14.5072 7.78961 14.1165 7.87831C12.4354 8.26001 10.988 9.12596 9.886 10.2951C9.81449 10.2464 9.68939 10.1566 9.6522 10.1291C9.5366 10.1447 9.41977 10.1804 9.2676 10.0918C8.97786 9.89675 8.71398 9.62753 8.39467 9.30323C8.24836 9.14811 8.1424 9.00039 7.96857 8.85086C7.9291 8.8169 7.86885 8.77097 7.8247 8.73603C7.68879 8.62768 7.5285 8.57117 7.3737 8.56587C7.17467 8.55906 6.98307 8.63687 6.85768 8.79414C6.63478 9.07371 6.70614 9.50103 7.01678 9.7487C7.01993 9.75121 7.02328 9.75316 7.02646 9.75561C7.06915 9.79022 7.12142 9.83455 7.16065 9.86352C7.34512 9.99972 7.51362 10.0694 7.69742 10.1776C8.08465 10.4167 8.40566 10.615 8.66028 10.8541C8.75971 10.96 8.77709 11.1468 8.79032 11.2276L8.99784 11.413C7.88696 13.0847 7.37284 15.1497 7.67667 17.2538L7.40552 17.3326C7.33406 17.4249 7.23307 17.5701 7.12745 17.6134C6.79432 17.7184 6.41939 17.7569 5.96676 17.8044C5.75425 17.822 5.57089 17.8115 5.3456 17.8542C5.29602 17.8636 5.22693 17.8816 5.17267 17.8943C5.17079 17.8947 5.16903 17.8952 5.16714 17.8957C5.16418 17.8963 5.1603 17.8978 5.15746 17.8984C4.77585 17.9906 4.5307 18.3414 4.60962 18.687C4.68856 19.0326 5.06131 19.2429 5.44521 19.1601C5.44798 19.1595 5.452 19.1594 5.45489 19.1587C5.45923 19.1577 5.46304 19.1556 5.46734 19.1546C5.52086 19.1428 5.58792 19.1298 5.63474 19.1172C5.85623 19.0579 6.01665 18.9708 6.21577 18.8945C6.64417 18.7408 6.99898 18.6125 7.34465 18.5625C7.48902 18.5512 7.64113 18.6516 7.71679 18.6939L7.99901 18.6455C8.64845 20.659 10.0095 22.2864 11.7329 23.3076L11.6153 23.5898C11.6577 23.6994 11.7044 23.8477 11.6728 23.9559C11.5472 24.2818 11.3319 24.6257 11.0868 25.0092C10.9681 25.1864 10.8467 25.3239 10.7396 25.5266C10.7139 25.5751 10.6813 25.6497 10.6566 25.7009C10.4902 26.057 10.6122 26.467 10.9319 26.6209C11.2535 26.7758 11.6528 26.6124 11.8256 26.2557C11.8258 26.2552 11.8267 26.2548 11.8269 26.2543C11.8271 26.2539 11.8268 26.2533 11.8269 26.2529C11.8515 26.2023 11.8864 26.1359 11.9072 26.0883C11.9989 25.8781 12.0294 25.6981 12.0939 25.4948C12.2652 25.0645 12.3594 24.613 12.5952 24.3317C12.6598 24.2546 12.765 24.225 12.8742 24.1958L13.0208 23.9302C14.5233 24.5068 16.205 24.6616 17.8849 24.2802C18.2682 24.1931 18.6382 24.0805 18.9958 23.9454C19.037 24.0185 19.1136 24.159 19.1342 24.1944C19.2451 24.2305 19.3662 24.2491 19.4648 24.395C19.6412 24.6964 19.7619 25.053 19.9089 25.4837C19.9734 25.687 20.0053 25.8671 20.097 26.0772C20.1179 26.1251 20.1526 26.1925 20.1773 26.2432C20.3497 26.6011 20.7502 26.765 21.0723 26.6098C21.3919 26.4559 21.5141 26.0459 21.3476 25.6899C21.3229 25.6386 21.2889 25.5641 21.2633 25.5156C21.1561 25.3128 21.0347 25.1767 20.916 24.9995C20.6709 24.6161 20.4676 24.2975 20.3419 23.9717C20.2893 23.8036 20.3508 23.6991 20.3917 23.5898C20.3672 23.5617 20.3147 23.403 20.2838 23.3284C22.0748 22.2708 23.3959 20.5827 24.0163 18.633C24.1 18.6462 24.2457 18.672 24.293 18.6815C24.3903 18.6172 24.4799 18.5334 24.6554 18.5473C25.0011 18.5973 25.3559 18.7257 25.7843 18.8793C25.9834 18.9556 26.1438 19.0441 26.3653 19.1034C26.4121 19.1159 26.4792 19.1276 26.5327 19.1394C26.537 19.1404 26.5408 19.1425 26.5452 19.1435C26.5481 19.1442 26.5521 19.1443 26.5549 19.1449C26.9388 19.2275 27.3116 19.0175 27.3904 18.6718C27.4693 18.3262 27.2242 17.9753 26.8426 17.8832C26.7871 17.8706 26.7084 17.8492 26.6545 17.8389C26.4292 17.7963 26.2458 17.8068 26.0333 17.7891C25.5807 17.7417 25.2057 17.7031 24.8726 17.5982C24.7368 17.5455 24.6401 17.3839 24.5932 17.3174L24.3317 17.2413C24.4673 16.2605 24.4307 15.2398 24.1961 14.2185C23.9593 13.1877 23.5409 12.245 22.9829 11.4143C23.0499 11.3534 23.1766 11.2412 23.2125 11.2082C23.223 11.092 23.214 10.9702 23.3342 10.8416C23.5888 10.6025 23.9099 10.4043 24.2971 10.1651C24.4809 10.057 24.6508 9.98728 24.8353 9.85107C24.877 9.82027 24.9339 9.77149 24.9777 9.73625C25.2883 9.4885 25.3598 9.06121 25.1368 8.78169C24.9139 8.50217 24.4818 8.47584 24.1712 8.72358C24.127 8.75859 24.067 8.80426 24.0273 8.83841C23.8535 8.98795 23.7462 9.13565 23.5999 9.29079C23.2806 9.6151 23.0166 9.88567 22.7269 10.0807C22.6014 10.1538 22.4175 10.1285 22.334 10.1236L22.0878 10.2993C20.6836 8.82687 18.7718 7.88549 16.7132 7.70262C16.7074 7.61635 16.6999 7.46041 16.698 7.41348C16.6137 7.33284 16.5119 7.26399 16.4863 7.08976C16.4581 6.74163 16.5052 6.36708 16.5596 5.91524C16.5897 5.70413 16.6396 5.52875 16.6482 5.29961C16.6501 5.24753 16.647 5.17194 16.6468 5.11562C16.6467 4.71834 16.3569 4.3962 15.9993 4.39624H15.9993ZM15.1887 9.41806L14.9964 12.8144L14.9825 12.8213C14.9696 13.1251 14.7196 13.3677 14.4126 13.3677C14.2868 13.3677 14.1707 13.3273 14.0764 13.2584L14.0709 13.2612L11.286 11.2871C12.1419 10.4454 13.2367 9.82349 14.4983 9.53703C14.7288 9.48471 14.9592 9.44588 15.1887 9.41806ZM16.8114 9.41806C18.2844 9.59922 19.6467 10.2662 20.6905 11.2884L17.9237 13.2501L17.914 13.246C17.6684 13.4254 17.3224 13.3808 17.131 13.1408C17.0526 13.0425 17.0114 12.9269 17.0065 12.8102L17.0037 12.8088L16.8114 9.41806ZM10.2761 12.5557L12.8189 14.83L12.8161 14.8438C13.0456 15.0434 13.0794 15.3896 12.888 15.6296C12.8096 15.7279 12.7047 15.7939 12.592 15.8247L12.5892 15.8357L9.32986 16.7765C9.16397 15.2596 9.52148 13.785 10.2761 12.5557ZM21.7046 12.557C22.0824 13.1694 22.3685 13.8533 22.5388 14.5948C22.707 15.3274 22.7493 16.0587 22.6799 16.7654L19.4039 15.8219L19.4012 15.8081C19.1078 15.7279 18.9275 15.4295 18.9958 15.1302C19.0238 15.0076 19.0889 14.9039 19.1771 14.8272L19.1757 14.8203L21.7046 12.557H21.7046ZM15.4778 15.0057H16.5195L17.1669 15.815L16.9345 16.8249L15.9993 17.2745L15.0614 16.8235L14.829 15.8136L15.4778 15.0057ZM18.8174 17.7753C18.8616 17.7731 18.9057 17.7771 18.9488 17.785L18.9543 17.7781L22.3257 18.348C21.8323 19.7343 20.8882 20.9352 19.6267 21.7388L18.318 18.5777L18.3221 18.5722C18.2019 18.2928 18.3222 17.9652 18.5988 17.832C18.6696 17.7979 18.7436 17.779 18.8174 17.7753H18.8174ZM13.155 17.7891C13.4123 17.7927 13.6431 17.9713 13.7029 18.2332C13.7308 18.3558 13.7172 18.4773 13.671 18.5846L13.6807 18.5971L12.3858 21.7264C11.1752 20.9495 10.2109 19.7863 9.69508 18.3591L13.0374 17.7919L13.043 17.7988C13.0804 17.7919 13.1183 17.7886 13.155 17.7891V17.7891ZM15.9786 19.1601C16.0682 19.1568 16.1591 19.1752 16.2456 19.2168C16.3589 19.2714 16.4464 19.3573 16.5015 19.4603H16.514L18.1616 22.4374C17.9478 22.5091 17.728 22.5704 17.5031 22.6214C16.243 22.9075 14.9869 22.8208 13.8495 22.4333L15.493 19.4617H15.4958C15.5944 19.2773 15.7814 19.1674 15.9786 19.1601Z" fill="white" stroke="white" stroke-width="0.25"/>
</svg>
