<svg width="32" height="32" viewBox="0 0 32 32" fill="none" xmlns="http://www.w3.org/2000/svg">
<g clip-path="url(#clip0)">
<path d="M11.4779 0.731302C11.0384 0.510844 10.5744 0.34303 10.0956 0.23134C3.67116 -1.29354 -1.1034 5.00596 1.52136 10.7305C1.54636 10.7555 6.19594 20.9548 6.94586 22.5796C6.94586 22.5796 15.4951 18.6549 17.2449 14.6302C18.8648 10.8805 16.1325 4.03604 15.6326 3.00862L11.4779 0.731302Z" fill="url(#paint0_linear)"/>
<path d="M30.7944 12.1071C30.2516 11.2751 29.5134 10.5886 28.6444 10.1073C28.6194 10.1073 22.6198 6.80762 22.6198 6.80762C22.6198 6.80762 2.02134 18.749 1.99883 18.7815C-0.326004 21.4312 -0.850966 25.6308 1.82385 29.2804C2.63026 30.3778 3.77038 31.1848 5.07362 31.5802C7.49844 32.3302 9.6483 32.0302 11.4482 31.0802C11.4982 31.0552 28.372 22.1062 28.422 22.0562C31.7192 20.3314 33.2466 15.9317 30.7944 12.1071Z" fill="#0CB0F2"/>
<path d="M9.60338 9.48535L4.1038 16.2347L1.97147 18.7819C-0.353344 21.4316 -0.878302 25.6312 1.79649 29.2808C2.6029 30.3784 3.74302 31.1852 5.04624 31.5806C7.47104 32.3306 9.64588 32.0306 11.4457 31.0806C11.4457 31.0806 11.8707 30.8558 12.5956 30.4558C14.8805 29.2208 18.0327 20.9192 20.1826 14.4999L9.60338 9.48535Z" fill="url(#paint1_linear)"/>
<path d="M18.2478 15.9828L22.62 6.75102C22.62 6.74438 22.6226 6.73802 22.6272 6.73334C22.632 6.72866 22.6384 6.72602 22.645 6.72602C22.67 6.65102 23.02 5.7511 23.045 5.7011C23.302 5.05254 23.3954 4.3507 23.3168 3.6575C23.2384 2.96432 22.9904 2.3011 22.595 1.72641C22.0906 0.928016 21.2908 0.361786 20.3702 0.151532C19.5963 -0.0543744 18.7791 -0.0291626 18.0195 0.224054C17.2598 0.47727 16.591 0.947406 16.0955 1.57642C16.0705 1.60142 15.1205 2.70134 15.1205 2.70134L8.12109 11.3257L18.2478 15.9828Z" fill="url(#paint2_linear)"/>
<path d="M5.99609 5.9834H25.9946V25.9818H5.99609V5.9834Z" fill="url(#paint3_linear)"/>
<path d="M10.6959 10.4079H7.99609V8.65809H15.3205V10.4079H12.6457V17.3049H10.6959V10.4079ZM15.3205 13.0002C15.3205 10.5004 17.1704 8.47559 19.8452 8.47559C21.47 8.47559 22.47 9.02555 23.27 9.82549L22.045 11.2254C21.37 10.6254 20.6952 10.2504 19.8202 10.2504C18.3703 10.2504 17.2954 11.4754 17.2954 12.9502V12.9752C17.2954 14.4751 18.3203 15.7 19.8202 15.7C20.82 15.7 21.42 15.3001 22.095 14.6751L23.3198 15.9C22.42 16.8499 21.445 17.4499 19.7702 17.4499C19.1822 17.4632 18.5976 17.3572 18.0517 17.1383C17.5058 16.9194 17.01 16.5922 16.5941 16.1763C16.1783 15.7604 15.851 15.2646 15.6321 14.7187C15.4132 14.1728 15.3072 13.5882 15.3205 13.0002ZM7.99609 21.982H15.3205V23.307H7.99609V21.982Z" fill="white"/>
</g>
<defs>
<linearGradient id="paint0_linear" x1="16.68" y1="19.4573" x2="6.59822" y2="7.00094" gradientUnits="userSpaceOnUse">
<stop offset="0.06" stop-color="#0CB0F2"/>
<stop offset="0.21" stop-color="#10ADF2"/>
<stop offset="0.37" stop-color="#1EA5F3"/>
<stop offset="0.54" stop-color="#3497F5"/>
<stop offset="0.71" stop-color="#5283F7"/>
<stop offset="0.88" stop-color="#796AF9"/>
<stop offset="0.97" stop-color="#905CFB"/>
</linearGradient>
<linearGradient id="paint1_linear" x1="5.22372" y1="30.3282" x2="10.2756" y2="18.6444" gradientUnits="userSpaceOnUse">
<stop offset="0.06" stop-color="#0CB0F2"/>
<stop offset="0.2" stop-color="#0DB2EE"/>
<stop offset="0.35" stop-color="#12B7E0"/>
<stop offset="0.51" stop-color="#19C0CA"/>
<stop offset="0.68" stop-color="#23CCAC"/>
<stop offset="0.85" stop-color="#30DC85"/>
<stop offset="0.97" stop-color="#3BEA62"/>
</linearGradient>
<linearGradient id="paint2_linear" x1="748.25" y1="-10298.6" x2="1385.75" y2="-9519.08" gradientUnits="userSpaceOnUse">
<stop offset="0.06" stop-color="#0CB0F2"/>
<stop offset="0.2" stop-color="#0DB2EE"/>
<stop offset="0.35" stop-color="#12B7E0"/>
<stop offset="0.51" stop-color="#19C0CA"/>
<stop offset="0.68" stop-color="#23CCAC"/>
<stop offset="0.85" stop-color="#30DC85"/>
<stop offset="0.97" stop-color="#3BEA62"/>
</linearGradient>
<linearGradient id="paint3_linear" x1="15.9953" y1="6.22838" x2="15.9953" y2="26.2268" gradientUnits="userSpaceOnUse">
<stop/>
<stop offset="1"/>
</linearGradient>
<clipPath id="clip0">
<rect width="32" height="32" fill="white"/>
</clipPath>
</defs>
</svg>
