<svg width="32" height="32" viewBox="0 0 32 32" fill="none" xmlns="http://www.w3.org/2000/svg">
<path d="M31.8308 11.1169C31.8158 11.0006 31.7978 10.8844 31.7738 10.7706C31.7524 10.6511 31.7248 10.5328 31.6914 10.416L31.6026 10.275C31.2364 9.9875 30.8414 9.77024 30.4404 9.57824C30.1094 9.422 29.7732 9.28574 29.4328 9.16024C28.4848 6.52888 26.8548 4.19562 24.7118 2.56988C22.4968 0.8895 19.8916 0 17.1784 0C14.465 0 11.8596 0.8895 9.64462 2.57C7.5015 4.19562 5.8715 6.529 4.9235 9.161C4.58412 9.286 4.24726 9.42262 3.91674 9.57824C3.515 9.77024 3.12026 9.9875 2.75412 10.275L2.665 10.416C2.63312 10.5331 2.60556 10.6514 2.58238 10.7705C2.55938 10.8845 2.54212 11.0005 2.52562 11.1167C2.493 11.347 2.47074 11.5785 2.45888 11.8107C2.43538 12.2756 2.44914 12.7416 2.5 13.2042C2.54964 13.6681 2.6359 14.1273 2.758 14.5775C2.82208 14.804 2.89696 15.0274 2.98238 15.2467C3.02538 15.3575 3.07238 15.4675 3.1245 15.5774C3.15024 15.632 3.17826 15.6854 3.207 15.7412C3.27062 15.8527 3.28224 15.8745 3.309 15.9141L3.42926 16.0249C3.50762 16.0651 3.5725 16.0957 3.64338 16.1294L3.8505 16.2222C3.88888 16.238 3.92488 16.2535 3.964 16.2692C3.02338 17.1389 2.00188 18.2686 1.11725 19.6649L0 21.4272L1.56837 20.0506C1.595 20.0274 2.91012 18.8889 5.10338 17.5991L5.13412 17.8512C4.99062 17.9259 4.301 18.2878 4.096 18.4592C3.75626 18.7414 3.73974 19.1793 3.83074 19.9961C3.87738 20.4148 4.03438 21.2276 4.24612 21.9728C4.61088 23.2552 4.87826 23.482 5.113 23.5352C5.21888 23.5604 5.3555 23.5722 5.50926 23.5722C5.92938 23.5722 6.4675 23.4904 6.81862 23.3844C7.2305 24.6652 7.81388 25.8214 8.52512 26.8362C8.49074 26.8454 8.45688 26.8564 8.4225 26.8662C7.99474 26.6678 6.499 25.975 5.99626 25.749L4.94562 25.276L5.567 26.2462C5.61224 26.3162 6.68488 27.9888 7.5605 29.116C8.37962 30.1672 9.50112 31.2434 11.6174 31.2434C11.8721 31.2434 12.1386 31.2268 12.4132 31.1966C13.0442 31.1242 13.5185 31.0672 13.879 31.021C16.1005 31.8372 18.5501 31.8874 20.8748 31.0066C21.4836 30.7752 22.069 30.486 22.6228 30.1432C23.5192 29.928 24.4996 29.6944 24.9838 29.5584C25.0614 29.5374 25.1586 29.5142 25.2598 29.4904C25.9344 29.3352 27.0622 29.0734 27.6634 27.8706C28.2696 26.657 29.2576 24.7974 29.268 24.7784L29.7302 23.9108L28.8298 24.3022C28.7816 24.3242 27.6408 24.8208 27.0482 25.1314C27.46 24.1834 27.7026 23.3988 27.7872 23.0974C28.119 23.1774 28.611 23.1672 28.9728 23.1672C29.1508 23.1672 29.3338 23.1362 29.4524 23.1058C29.6878 23.0462 29.8694 22.8898 30.2108 21.5666C30.4098 20.7974 30.5524 19.96 30.5914 19.5295C30.6672 18.6917 30.6426 18.2428 30.3008 17.9594C30.1304 17.8186 29.6304 17.5494 29.3762 17.4169C29.5184 17.356 29.5882 17.3739 29.5936 17.3754L29.8244 16.5C29.9056 16.4652 29.9916 16.4304 30.0894 16.3929C30.2288 16.3374 30.3682 16.2822 30.5076 16.2221L30.7134 16.1292C30.7852 16.0956 30.8498 16.0651 30.9282 16.0247L31.0486 15.914C31.0744 15.8744 31.0886 15.8526 31.1044 15.8224C31.1806 15.6852 31.2076 15.6319 31.2328 15.5774C31.285 15.4674 31.3312 15.3574 31.375 15.2466C31.4604 15.0273 31.5352 14.8039 31.599 14.5774C31.7214 14.1272 31.8076 13.668 31.8574 13.2041C31.9092 12.7416 31.9208 12.2757 31.8976 11.8106C31.8864 11.5784 31.864 11.3469 31.8308 11.1167V11.1169Z" fill="#0E0F0D"/>
<path d="M18.6345 29.1456C18.4643 29.171 18.2942 29.1918 18.126 29.2052C18.0165 29.2106 17.9016 29.2214 17.7969 29.2214L17.7578 29.2225C17.8892 28.9305 17.9891 28.7033 18.0643 28.5312C18.2182 28.7033 18.4139 28.9158 18.6345 29.1456Z" fill="#E1C5A2"/>
<path d="M18.4206 16.0658C18.1548 16.2815 17.8748 16.4823 17.5832 16.6585L16.6106 17.2451C16.0006 17.3195 15.4711 17.4702 15.4408 17.4795C15.4231 17.4832 15.4063 17.4916 15.3906 17.5011C15.3424 17.5295 15.3065 17.5749 15.2899 17.6283L14.2993 20.891L9.00468 22.0682L7.33656 20.9004L6.85156 16.9716C7.79894 16.7977 9.06532 16.597 10.5866 16.4263C10.4208 16.6243 10.2635 16.8294 10.1153 17.0409L9.20968 18.3403L10.5286 17.4615C10.5486 17.4477 11.3878 16.8954 12.7616 16.2234C14.2581 16.1113 15.7582 16.055 17.2589 16.0547C17.6539 16.0547 18.0407 16.0594 18.4206 16.0659V16.0658ZM10.1793 20.4918C10.5556 20.2886 10.9806 20.3184 11.6459 20.32C11.7168 20.3212 11.7907 20.3204 11.8672 20.3184C11.9328 20.3184 11.9984 20.3172 12.0681 20.3152C12.7538 20.3084 13.3234 20.3732 13.3131 19.2978C13.3029 18.2222 12.8247 17.3524 12.1394 17.3591C11.4544 17.3653 10.7912 18.2467 10.8322 19.3218C10.8431 19.6017 10.8847 19.804 10.9504 19.9493C10.3533 20.0994 10.1879 20.4686 10.1792 20.4918H10.1793ZM27.5974 16.9588L27.1206 20.2994L25.439 21.4766L20.1512 20.8758L19.1646 17.6282C19.1538 17.5928 19.1343 17.5606 19.108 17.5346C19.0816 17.5086 19.0491 17.4896 19.0136 17.4793C18.9811 17.4695 18.3264 17.2824 17.6324 17.2224L17.7594 17.2141C17.8688 17.2058 19.6923 16.9826 21.8704 16.2324C24.2816 16.4173 26.2514 16.7131 27.5974 16.9588ZM24.219 20.0508C24.212 20.0248 24.067 19.5928 23.4304 19.6686C23.5034 19.5087 23.5364 19.2929 23.5134 18.9967C23.4294 17.9233 22.804 17.0702 22.1196 17.0944C21.4344 17.1181 20.996 18.0079 21.034 19.085C21.0716 20.1594 21.646 20.152 22.3312 20.1274C23.2514 20.11 23.7566 19.8276 24.219 20.0508Z" fill="#A89983"/>
<path d="M22.4198 18.1175C22.4214 18.2103 22.3862 18.3001 22.3218 18.3669C22.2574 18.4338 22.1692 18.4724 22.0764 18.4741C22.0304 18.475 21.9848 18.4667 21.942 18.4499C21.8992 18.433 21.8602 18.4079 21.8272 18.376C21.7942 18.344 21.7678 18.3058 21.7494 18.2637C21.7312 18.2215 21.7214 18.1761 21.7206 18.1301C21.7196 18.0841 21.7278 18.0384 21.7446 17.9956C21.7612 17.9528 21.7862 17.9137 21.8182 17.8806C21.85 17.8475 21.888 17.821 21.9302 17.8026C21.9722 17.7842 22.0176 17.7744 22.0634 17.7735C22.1094 17.7725 22.1552 17.7806 22.1982 17.7974C22.241 17.8142 22.28 17.8393 22.3132 17.8713C22.3464 17.9032 22.3728 17.9415 22.391 17.9838C22.4094 18.026 22.4192 18.0715 22.4198 18.1176V18.1175ZM12.607 18.3752C12.6093 18.4679 12.5748 18.5578 12.511 18.6251C12.4473 18.6924 12.3594 18.7317 12.2668 18.7342C12.2207 18.7356 12.1748 18.7279 12.1318 18.7115C12.0887 18.6951 12.0493 18.6703 12.0158 18.6386C11.9823 18.6069 11.9554 18.5689 11.9366 18.5268C11.9178 18.4846 11.9076 18.4392 11.9064 18.3931C11.9052 18.347 11.9131 18.3012 11.9296 18.2582C11.9461 18.2153 11.9709 18.176 12.0027 18.1426C12.0344 18.1093 12.0724 18.0825 12.1144 18.0639C12.1565 18.0452 12.2018 18.0351 12.2478 18.034C12.3406 18.0316 12.4306 18.0662 12.4979 18.1302C12.5653 18.1942 12.6045 18.2823 12.607 18.3752Z" fill="white"/>
<path d="M29.9098 18.434C29.8272 18.3658 29.551 18.208 29.2818 18.0625L28.8388 21.1688C28.834 21.1986 28.8234 21.2274 28.8074 21.2532C28.7914 21.279 28.7704 21.3012 28.7458 21.3188L28.1116 21.7622C28.0966 21.8372 28.0848 21.8998 28.0736 21.9586C28.6966 22.1118 29.3018 21.6626 29.6414 21.3384C29.7986 20.7264 29.9354 20 29.9828 19.48C30.0552 18.674 29.9912 18.501 29.9098 18.4341V18.434ZM20.1168 30.2348C19.7055 30.0886 19.3284 29.8498 19.0001 29.5254C18.9727 29.4976 18.9467 29.4706 18.9192 29.4434C18.6624 29.4958 18.4026 29.533 18.1414 29.5552C18.0299 29.5602 17.9235 29.5696 17.8072 29.5696L17.6352 29.5712L17.569 29.5696C17.1757 30.1536 16.5147 30.4746 15.9967 30.6456C17.5355 30.9096 19.2286 30.5056 20.1168 30.2348ZM6.571 22.6276C6.55724 22.5808 6.54274 22.5344 6.52938 22.4874L5.70562 21.9108C5.68024 21.8928 5.65886 21.8698 5.64286 21.843C5.62688 21.8164 5.61662 21.7868 5.61274 21.7558L5.21112 18.4941C4.91388 18.6528 4.57024 18.8485 4.47888 18.9251C4.39938 18.9908 4.33874 19.158 4.42462 19.9351C4.48988 20.5196 4.69512 21.4172 4.90474 22.0898C5.32188 22.4088 5.93624 22.7452 6.571 22.6276ZM18.8856 22.4788C18.8425 22.4738 18.8018 22.4564 18.7685 22.4286C18.7352 22.4006 18.7108 22.3636 18.6984 22.3222L17.6819 18.9723C17.5114 18.95 17.3601 18.9375 17.2324 18.9375C17.1041 18.9375 16.9536 18.95 16.7834 18.9723L15.7952 22.2258C15.7837 22.2632 15.7624 22.297 15.7336 22.3236C15.7048 22.3502 15.6694 22.3688 15.6311 22.3772L15.1586 22.4826C15.1186 22.6494 14.9826 22.8942 14.5445 23.0286C13.8375 23.2442 9.36188 24.5782 8.8515 24.5056C8.5535 24.4638 7.9865 24.151 7.56712 23.8982C7.39924 23.5028 7.30638 23.2342 7.28512 23.1706V23.1692L7.28388 23.1706C7.34324 23.344 7.92724 25.0252 9.11388 26.6696C10.386 26.2946 11.4847 25.9452 11.8361 25.834C12.5516 24.7306 13.5711 23.6356 14.2951 23.5982C14.4227 23.5918 14.5504 23.5884 14.6781 23.5882C15.0329 23.5882 15.3715 23.6134 15.6859 23.6506C15.4189 23.4082 15.3641 23.1248 15.3254 22.999C15.3254 22.999 16.25 23.7222 17.4261 23.5702C18.6041 23.4194 19.3349 22.741 19.3349 22.741L19.358 22.5324L18.8855 22.4788" fill="#E1C5A2"/>
<path d="M19.8437 22.8856C19.5997 22.8226 19.446 22.722 19.3486 22.6172L19.3366 22.724C19.3366 22.724 19.3326 23.218 18.8203 23.6006C19.8068 23.3022 20.2148 23.201 20.4942 23.201C20.8016 23.201 20.9536 23.3292 21.087 23.442C21.1124 23.463 21.1376 23.485 21.1678 23.5086C21.8152 24.0178 22.461 24.529 23.1052 25.0422C23.414 25.0778 24.3942 25.1898 25.0112 25.246C25.3664 25.2792 25.6882 25.3058 26.0032 25.3058C26.1042 25.3058 26.1996 25.3024 26.29 25.2962C26.6154 24.6738 26.9148 23.9854 27.1814 23.2264C26.8166 23.482 25.9854 24.0416 25.5958 24.1136C25.0892 24.2084 20.5582 23.0708 19.8437 22.8856Z" fill="#E1C5A2"/>
<path d="M31.2462 11.176C31.2374 11.069 31.2262 10.9622 31.2128 10.8556C31.2038 10.7795 31.1926 10.7037 31.179 10.6282C30.8928 10.3876 30.5674 10.1732 30.229 9.97924C29.8622 9.764 29.4784 9.57262 29.0864 9.3945C28.698 9.21076 28.298 9.04462 27.8966 8.88274C27.6958 8.80084 27.4936 8.72228 27.2902 8.64712C27.0878 8.568 26.8836 8.49424 26.6786 8.41962C27.1082 8.491 27.5344 8.58924 27.9574 8.69788C28.2326 8.76812 28.506 8.848 28.7774 8.9335C26.8442 3.88262 22.2246 0.59375 17.1802 0.59375C12.135 0.59375 7.51566 3.88276 5.5839 8.9335C5.85514 8.848 6.12914 8.76812 6.40302 8.69788C6.82552 8.58912 7.25203 8.491 7.6824 8.41974C7.47614 8.49424 7.27242 8.568 7.06892 8.64724C6.86596 8.72264 6.66419 8.80114 6.46365 8.88274C6.06203 9.04462 5.6629 9.21076 5.27302 9.3945C4.8824 9.57262 4.49864 9.764 4.13152 9.97924C3.7929 10.1732 3.46827 10.3876 3.18153 10.6282C3.16899 10.7038 3.15775 10.7796 3.14777 10.8556C3.13485 10.9622 3.12355 11.069 3.11391 11.176C3.09617 11.3915 3.087 11.6076 3.08642 11.8237C3.08178 12.2566 3.11114 12.6896 3.16564 13.1175C3.22514 13.5471 3.30377 13.9739 3.42015 14.3867C3.47655 14.5921 3.54261 14.7947 3.61815 14.9937C3.65627 15.0921 3.69742 15.1897 3.74042 15.2836C3.76154 15.3306 3.78341 15.3771 3.80615 15.4215L3.83391 15.474C3.86553 15.4899 3.89891 15.5067 3.93015 15.5219L4.12215 15.6135C4.22941 15.6627 4.3779 15.7331 4.50052 15.7879C4.5074 15.7816 4.51428 15.7754 4.51978 15.7694L4.16328 14.4112C4.23904 14.3909 4.91602 14.2159 6.08276 13.9932C5.98824 13.9756 5.89418 13.9556 5.80066 13.9332C5.53504 13.8667 5.27278 13.7862 5.01842 13.6837C4.89266 13.6304 4.76853 13.5725 4.65027 13.5055C4.53215 13.4373 4.41604 13.3606 4.32566 13.2582C5.60728 13.677 8.2564 13.4878 10.6114 13.244C12.7645 13.0219 14.9242 12.8785 17.094 12.8736C19.2634 12.8785 21.4238 13.0219 23.5758 13.244C25.9318 13.4878 28.5808 13.677 29.8622 13.2582C29.773 13.3607 29.656 13.4373 29.539 13.5055C29.4196 13.5724 29.2952 13.6305 29.1696 13.6837C28.9154 13.7862 28.6542 13.8667 28.3882 13.9332C28.3486 13.9426 28.3088 13.9509 28.2694 13.9597C29.5494 14.197 30.2942 14.3901 30.3732 14.4111L30.0324 15.7049C30.1016 15.6749 30.1712 15.6449 30.238 15.6134L30.4304 15.5217C30.462 15.5066 30.495 15.4897 30.5276 15.4739L30.5534 15.4214C30.5766 15.377 30.5992 15.3305 30.6202 15.2835C30.6632 15.1897 30.7044 15.092 30.742 14.9936C30.8172 14.7944 30.8834 14.5919 30.9402 14.3866C31.0568 13.9737 31.1354 13.5469 31.194 13.1174C31.2496 12.6895 31.279 12.2565 31.275 11.8236C31.2744 11.6074 31.2648 11.3914 31.2462 11.176Z" fill="#E0D896"/>
<path d="M22.4874 8.67042C22.5072 9.24804 22.493 10.2963 22.2236 11.277C22.2128 11.3145 22.2144 11.3536 22.2236 11.3899C21.8812 11.354 21.5384 11.3224 21.1952 11.2949C21.5796 10.4888 21.6636 9.63056 21.6824 9.32802C21.978 9.11844 22.2718 8.86638 22.4874 8.67042ZM12.6783 9.32802C12.6962 9.63044 12.7802 10.4867 13.1646 11.2929C12.8217 11.32 12.4788 11.3515 12.1367 11.3879C12.1459 11.3531 12.1467 11.3146 12.1367 11.2771C11.8679 10.2979 11.8537 9.24966 11.8722 8.67056C12.0888 8.86638 12.3819 9.11844 12.6783 9.32802ZM26.6984 12.19C26.6966 12.1998 26.6942 12.2094 26.6912 12.2188C26.7288 12.2297 26.7656 12.2407 26.8034 12.2529C27.1204 12.3567 27.4376 12.4653 27.7408 12.6053C27.2348 12.2766 26.914 11.3285 26.735 10.6037C26.7844 11.5525 26.703 12.1542 26.6984 12.19ZM11.4503 8.4881L8.17733 9.41874C7.98133 10.6915 8.04107 11.6635 8.07257 12.0008L8.08919 11.9908C8.08919 11.9908 8.19583 10.6044 8.41319 10.0723C8.52519 9.79914 9.21033 9.62494 9.73257 9.5001C10.2561 9.37588 11.0907 9.12668 11.2527 9.86138C11.3527 10.3154 11.4904 10.6929 11.6224 10.9713C11.4122 9.96198 11.4256 8.97498 11.4503 8.4881ZM22.909 8.4881C22.9358 8.99398 22.9482 10.0396 22.711 11.0893C22.8596 10.8041 23.0248 10.3835 23.14 9.86138C23.3016 9.12668 24.1364 9.37588 24.6596 9.50022C25.183 9.62506 25.8674 9.79914 25.9794 10.0723C26.1638 10.5227 26.268 11.5844 26.2956 11.9004C26.3266 11.4943 26.3612 10.5818 26.1828 9.41862L22.909 8.4881ZM12.6523 8.7714C12.7676 8.86392 12.8864 8.95188 13.0086 9.03508C13.0657 9.07482 13.1007 9.13956 13.1019 9.2093C13.1027 9.22016 13.1272 10.2983 13.6039 11.2163C13.6108 11.23 13.6157 11.245 13.6203 11.2593C14.8056 11.1787 15.9943 11.1461 17.1801 11.1453C18.3666 11.1461 19.5546 11.1809 20.7392 11.262C20.744 11.2464 20.7484 11.2313 20.7566 11.2163C21.2326 10.2983 21.2584 9.22016 21.2584 9.2093C21.259 9.17488 21.268 9.14114 21.2844 9.11086C21.3008 9.08058 21.324 9.0546 21.3524 9.03508C21.4698 8.95464 21.5842 8.86972 21.6952 8.78052L21.7102 8.73854C21.958 6.32702 21.5034 4.1047 21.2146 3.00674C21.1994 3.75754 21.0214 10.1907 19.4246 10.1907H15.0173C13.3217 10.1907 13.1853 2.9375 13.1853 2.9375L13.0979 3.19506C12.8087 4.35164 12.4116 6.47748 12.6522 8.7714H12.6523ZM7.66869 12.2182C7.66719 12.2088 7.66457 12.1997 7.66245 12.19C7.65719 12.1542 7.57545 11.5517 7.62469 10.6021C7.44569 11.3274 7.12395 12.2771 6.61719 12.6057C6.92033 12.4651 7.23907 12.3562 7.55657 12.2523C7.59357 12.2407 7.63157 12.2297 7.66869 12.2182Z" fill="#D7C184"/>
<path d="M28.075 21.9559C28.0482 22.0989 28.0168 22.2407 27.9812 22.3817C28.3448 22.4665 28.939 22.5323 29.2232 22.4767C29.3448 22.3445 29.5018 21.8863 29.6428 21.3359C29.3032 21.6601 28.6978 22.1093 28.075 21.9559ZM15.0496 30.8527C15.9178 31.0905 16.8045 31.1935 17.6781 31.1357C18.5546 31.0761 19.6925 30.8869 20.9004 30.3965C20.6334 30.3771 20.3704 30.3219 20.1182 30.2325C19.2299 30.5033 17.5369 30.9073 15.9981 30.6433C15.5906 30.7773 15.2714 30.8189 15.2402 30.8229C15.176 30.8303 15.1228 30.8391 15.0496 30.8529V30.8527ZM6.62963 22.8197C6.60963 22.7551 6.59125 22.6899 6.57213 22.6251C5.93739 22.7425 5.32301 22.4063 4.90625 22.0875C5.04127 22.5193 5.17739 22.8585 5.27927 22.9617C5.59363 23.0167 6.28901 22.9203 6.62963 22.8197ZM7.56827 23.8955C7.98751 24.1485 8.55451 24.4615 8.85263 24.5031C9.36301 24.5755 13.8386 23.2415 14.5456 23.0259C14.9836 22.8917 15.1199 22.6469 15.1599 22.4799L8.70289 23.9177C8.68693 23.9207 8.67075 23.9223 8.65451 23.9225H8.65375C8.60925 23.9225 8.56463 23.9089 8.52663 23.8825L8.27513 23.7069L7.52089 23.1787V23.1775L7.21651 22.9651C7.22175 22.9823 7.22801 22.9995 7.23363 23.0165C7.25089 23.0665 7.26789 23.1173 7.28613 23.1665V23.1679C7.30739 23.2315 7.40025 23.5003 7.56813 23.8953L7.56827 23.8955ZM27.375 22.6553C27.4162 22.5027 27.4568 22.3483 27.4936 22.1925L27.2694 22.3499L26.6662 22.7725L26.0136 23.2299C25.98 23.2531 25.941 23.2669 25.901 23.2699C25.8878 23.2709 25.8744 23.2705 25.8612 23.2691L19.3592 22.5299L19.3482 22.6313C19.4455 22.7363 19.5991 22.8369 19.843 22.9001C20.5574 23.0853 25.0878 24.2239 25.5944 24.1289C25.9838 24.0569 26.8152 23.4969 27.1796 23.2409C27.1828 23.2321 27.1858 23.2235 27.1888 23.2147C27.2534 23.0291 27.3154 22.8425 27.375 22.6551" fill="#9F8F78"/>
<path d="M20.4976 13.8829C20.4464 13.9492 20.3904 14.0217 20.3302 14.0973C20.0214 14.4876 19.5937 14.9853 19.0871 15.4737C18.4806 15.4546 17.8739 15.4451 17.2672 15.4451C16.2363 15.4451 15.2479 15.4722 14.3094 15.5173C15.6361 14.9676 17.2291 14.4301 18.9544 14.1076C19.4653 14.0102 19.9802 13.9352 20.4976 13.8828V13.8829ZM12.7369 14.4766C12.2628 14.8093 11.7287 15.2333 11.2103 15.7483C10.0592 15.8632 8.91182 16.0126 7.76968 16.1963C9.23818 15.5217 10.9144 14.9001 12.7369 14.4766ZM28.9564 17.2172L28.416 20.9944L25.8292 22.8068L19.0829 22.0396L18.0679 18.6952C18.0559 18.6554 18.0329 18.6198 18.0017 18.5924C17.9704 18.565 17.9321 18.5469 17.8911 18.5402C17.6413 18.4998 17.4204 18.4802 17.2359 18.4802C17.0509 18.4802 16.8302 18.4998 16.5788 18.5402C16.538 18.5473 16.4999 18.5655 16.4688 18.5929C16.4377 18.6202 16.4147 18.6556 16.4024 18.6952L15.4122 21.9584L8.70406 23.4508L6.04556 21.5886L5.52094 17.3496C5.63662 17.2851 5.75246 17.2209 5.86844 17.1569C6.03332 17.1214 6.21844 17.0839 6.42318 17.0451L6.91694 21.0452C6.92382 21.1074 6.95882 21.1626 7.01018 21.1984L8.83956 22.48C8.87632 22.5054 8.92144 22.5198 8.96556 22.5198C8.98194 22.5198 8.99768 22.5176 9.01494 22.5144L14.5302 21.2874C14.5492 21.2826 14.5676 21.2758 14.5852 21.2672C14.6359 21.2396 14.6767 21.193 14.6933 21.1352L15.6872 17.8652C15.9536 17.7971 16.6362 17.6371 17.2358 17.6371C17.8343 17.6371 18.5167 17.7971 18.7838 17.8652L19.7771 21.1352C19.8024 21.2196 19.8767 21.2814 19.9641 21.2914L25.4804 21.9182C25.5332 21.9244 25.5876 21.9096 25.6316 21.879L27.4616 20.5996C27.5108 20.564 27.5446 20.5088 27.5532 20.4486L28.0416 17.0306C28.4084 17.1008 28.715 17.1652 28.9564 17.2172ZM29.6374 14.8481L29.1624 16.6494C28.1914 16.4352 26.0586 16.0148 23.1556 15.7319C24.1036 15.3276 25.0696 14.8209 25.9522 14.1862C27.6796 14.4302 28.948 14.6922 29.6374 14.8481ZM4.89844 14.8481L5.03044 15.3468C5.35232 15.0904 5.68358 14.846 6.02356 14.6141C5.55844 14.7033 5.17906 14.7846 4.89844 14.8481Z" fill="#6E6A67"/>
<path d="M23.5258 13.8487C22.7988 13.8074 22.0722 13.7727 21.3448 13.7426C21.2634 13.8626 21.18 13.9811 21.0942 14.0979C20.7044 14.6252 19.9361 15.5864 18.9513 16.4112C19.6923 16.1764 22.6318 15.1903 24.1206 13.8853C23.9224 13.8724 23.7242 13.8602 23.5258 13.8487ZM18.1986 13.6567L18.2016 13.6559C17.8329 13.6512 17.4639 13.6472 17.0958 13.6458H17.095C16.5526 13.6473 16.0116 13.6542 15.4693 13.6636L14.4693 14.1376C14.464 14.1396 14.459 14.1425 14.4545 14.1459C14.304 14.2189 12.9913 14.8814 11.7553 16.0633C11.8634 16.0063 11.978 15.9473 12.0961 15.8874C12.7721 15.4332 14.575 14.3576 17.3785 13.6487C17.6519 13.6503 17.9254 13.6519 18.1985 13.6567H18.1986ZM12.0535 13.7774C11.5905 13.7988 11.1273 13.8226 10.6648 13.8487C10.1283 13.8787 9.5935 13.9149 9.05912 13.9552C8.79262 13.9757 8.52577 13.9984 8.26151 14.0262C8.18477 14.0337 8.10977 14.0419 8.03463 14.0516C7.33639 14.4689 4.66412 16.1466 2.82812 18.3421C2.85977 18.3039 2.8924 18.2663 2.92478 18.2287C6.3239 15.3287 10.0505 14.1999 12.0535 13.7774ZM27.4314 25.7032L27.3702 25.7346C27.0292 25.914 26.5826 26.0016 26.0054 26.0016C25.6618 26.0016 25.3248 25.9728 24.9512 25.939C24.2056 25.8708 22.943 25.7224 22.9302 25.72L22.8336 25.7098L22.7572 25.6482C22.7456 25.6406 21.6402 24.7588 20.7466 24.0562C20.71 24.0266 20.6772 23.9986 20.6472 23.975C20.553 23.8944 20.553 23.8944 20.4968 23.8944C20.2098 23.8944 19.3765 24.153 17.5514 24.7184L17.4394 24.7544L17.3285 24.7122C17.316 24.709 16.1188 24.265 14.6835 24.265C14.566 24.265 14.4488 24.268 14.3348 24.2736C14.1911 24.281 13.3845 24.6642 12.3523 26.296L12.2861 26.4014L12.1674 26.4394C12.1501 26.445 10.3744 27.018 8.49088 27.5566L8.36938 27.591L8.25313 27.5374C8.24101 27.5332 7.50552 27.191 6.80452 26.8698C6.85614 26.8938 6.90812 26.9174 6.95988 26.9414C7.65188 27.5386 8.977 28.6874 9.12412 28.8464C9.1445 28.8694 9.17288 28.8974 9.20662 28.929C9.17252 28.8902 9.13926 28.8506 9.10688 28.8104L9.10563 28.8092L9.10576 28.8094C9.411 29.0986 9.75176 29.3488 10.124 29.5248C10.3098 29.612 10.5045 29.6796 10.7025 29.7126C10.8024 29.7288 10.8993 29.737 11.0004 29.737C11.1028 29.737 11.2074 29.734 11.3119 29.729C11.7259 29.7076 12.1438 29.676 12.5606 29.6356C12.9769 29.598 13.3935 29.5564 13.8094 29.506C14.2248 29.4612 14.6401 29.409 15.0519 29.345C15.2581 29.315 15.4631 29.281 15.6634 29.2366C15.7618 29.2134 15.8643 29.1876 15.9421 29.1526C16.0133 29.1186 16.0994 29.0504 16.1751 28.9852C16.3301 28.8518 16.4798 28.704 16.6279 28.5564C16.7764 28.4078 16.9224 28.2568 17.0659 28.1034C17.3098 27.848 17.5188 27.5768 17.7549 27.314C17.7851 27.2812 17.816 27.2464 17.8474 27.2126C17.8474 27.2134 17.8474 27.2134 17.8479 27.2134L17.8506 27.2164C17.8999 27.2518 17.949 27.2876 17.9971 27.3254C18.2813 27.5374 18.5746 27.7666 18.8576 27.9646C19.2225 28.221 19.5919 28.478 19.974 28.6916C20.0694 28.7448 20.168 28.7944 20.2622 28.8256C20.2744 28.83 20.2846 28.8322 20.294 28.8336C20.301 28.8378 20.3262 28.8418 20.329 28.8418C20.3476 28.8446 20.3726 28.8458 20.3966 28.8474C20.448 28.848 20.5012 28.8458 20.5546 28.8434C20.7702 28.8284 20.9888 28.797 21.2076 28.7626C21.6446 28.6946 22.0826 28.616 22.5182 28.5286C22.9546 28.4452 23.3906 28.3556 23.8238 28.2594C24.2588 28.1668 24.6918 28.066 25.1228 27.957C25.3368 27.8994 25.5508 27.8464 25.7418 27.7546C25.9368 27.664 26.1176 27.5394 26.2842 27.3966C26.6206 27.1104 26.9032 26.7554 27.138 26.3686L27.1374 26.37C27.2528 26.1558 27.351 25.9328 27.4314 25.7032ZM19.2831 5.16282H20.0518V3.60156H14.4318V5.16282H15.2005V4.36994H16.7896V9.19182H16.1354V10.0868H18.3479V9.19182H17.6935V4.36994H19.2831V5.16282Z" fill="#93232C"/>
<path d="M25.0982 13.9465C25.0968 13.9457 25.0952 13.9452 25.0936 13.9452C24.7754 13.9212 24.457 13.899 24.1386 13.8785L24.1204 13.8774C22.6314 15.1826 19.6921 16.1688 18.951 16.4036C18.9366 16.4158 18.9225 16.4281 18.9081 16.4401C19.8621 16.2683 21.2872 15.9278 22.7662 15.2728C23.4936 14.9508 24.2338 14.5531 24.9382 14.0614C24.9926 14.0237 25.0452 13.9842 25.0982 13.9465ZM17.3785 13.6406C14.575 14.3495 12.7721 15.4252 12.096 15.8795C12.7202 15.5619 13.356 15.2675 14.002 14.9969C14.0799 14.9645 14.158 14.9323 14.2361 14.9004C14.2606 14.8904 14.2849 14.8804 14.3095 14.8705C14.3744 14.8443 14.44 14.8184 14.5059 14.792C14.5426 14.7778 14.5789 14.7633 14.6159 14.749C14.6751 14.7257 14.735 14.7027 14.7953 14.6796C14.8404 14.6625 14.8855 14.6452 14.9311 14.6284C14.9864 14.6071 15.042 14.5864 15.0981 14.5659C15.1505 14.5465 15.2036 14.5274 15.2563 14.5083C15.3083 14.4893 15.3599 14.4708 15.4123 14.4521C15.4719 14.4311 15.532 14.4103 15.5925 14.3892C15.6403 14.3728 15.6878 14.3562 15.7358 14.3398C15.8065 14.3161 15.8778 14.2923 15.9494 14.2688C15.9888 14.2558 16.0278 14.2428 16.0673 14.2299C16.1793 14.1937 16.2925 14.1577 16.4065 14.1228C16.6553 14.0464 16.9094 13.9735 17.1678 13.9034C17.5093 13.8102 17.853 13.7253 18.1986 13.6486C17.9254 13.644 17.6519 13.6424 17.3785 13.6406ZM12.0535 13.7695C10.0505 14.1921 6.3239 15.3209 2.92478 18.2213C2.8924 18.2589 2.85977 18.2964 2.82812 18.3347C4.55602 17.1333 7.526 15.3476 11.1978 14.2612C11.3161 14.2262 11.4356 14.1921 11.5554 14.1583C12.1761 13.9843 12.8036 13.8358 13.4364 13.713C12.9758 13.7294 12.5146 13.7485 12.0535 13.7695ZM28.0932 25.3764C28.058 25.3924 28.0228 25.4088 27.9878 25.4254C27.9688 25.4342 27.9504 25.443 27.9312 25.4518L27.8856 25.4734L27.8162 25.5064C27.8066 25.5114 27.7966 25.5158 27.7866 25.521C27.7602 25.5334 27.7342 25.5456 27.7088 25.5582L27.6916 25.5668C27.6638 25.5806 27.636 25.5938 27.6092 25.6072L27.6006 25.6114C27.5408 25.6408 27.4842 25.6694 27.4314 25.6964C27.3508 25.9264 27.2522 26.1496 27.1366 26.364L27.1378 26.3624C27.1372 26.363 27.1366 26.3636 27.1362 26.3648C26.9016 26.7498 26.6192 27.1038 26.2838 27.3898C26.1172 27.5326 25.9362 27.6572 25.7416 27.7478C25.5502 27.8396 25.3362 27.8926 25.1226 27.9502C24.6926 28.0586 24.259 28.1604 23.8234 28.2524C23.3896 28.3488 22.9544 28.4386 22.5178 28.5218C22.0822 28.6094 21.6442 28.688 21.207 28.756C20.9884 28.7902 20.7698 28.8216 20.5542 28.8366C20.5016 28.8396 20.449 28.8408 20.3962 28.8406C20.3736 28.8396 20.351 28.8378 20.3286 28.835C20.3166 28.834 20.305 28.8312 20.2938 28.8268C20.2828 28.8256 20.272 28.8228 20.2618 28.8188C20.1674 28.788 20.0692 28.7378 19.9736 28.685C19.5916 28.471 19.222 28.2144 18.8571 27.958C18.5746 27.7598 18.2806 27.5304 17.9966 27.3184L17.9719 27.3536L17.9736 27.3554C17.9913 27.3714 18.0091 27.3862 18.0268 27.4018L18.0255 27.401C18.0125 27.3912 18.0001 27.3818 17.988 27.373L18.2261 27.657C18.2269 27.6578 18.2359 27.6688 18.2534 27.6892C18.3749 27.832 18.8834 28.422 19.4871 29.021C19.9468 29.4768 20.5012 29.7068 21.1374 29.7068C21.3546 29.7068 21.5828 29.6784 21.8134 29.6234C22.0266 29.571 22.2588 29.5158 22.4966 29.4584C23.2016 29.2906 23.9828 29.1034 24.5012 28.9688C24.5358 28.9596 24.5694 28.951 24.6016 28.9424C24.675 28.923 24.7416 28.9052 24.801 28.8888C24.9024 28.8606 25.0044 28.8354 25.1072 28.8132C25.736 28.6672 26.596 28.4678 27.0514 27.5548C27.188 27.2826 27.3258 27.011 27.4652 26.7402C27.6932 26.297 27.9232 25.8546 28.1548 25.4134C28.1548 25.4132 28.1552 25.4132 28.1552 25.4132L28.2004 25.3266L28.0932 25.3764ZM17.7958 27.3458L17.7549 27.307C17.5186 27.5702 17.3095 27.8414 17.0659 28.097C16.9224 28.2504 16.7764 28.4014 16.6279 28.5498C16.4798 28.6974 16.33 28.8458 16.1751 28.9786C16.0993 29.044 16.0131 29.1124 15.9421 29.1462C15.8644 29.1812 15.7618 29.207 15.6634 29.23C15.4634 29.2746 15.2581 29.3086 15.0519 29.3386C14.6403 29.4024 14.2248 29.455 13.8094 29.4994C13.3935 29.55 12.9769 29.5918 12.5606 29.629C12.1439 29.6694 11.7259 29.7012 11.3119 29.7228C11.2074 29.7274 11.1028 29.7308 11.0004 29.7308C10.8993 29.7308 10.8021 29.7228 10.7025 29.7062C10.5044 29.6734 10.3096 29.6056 10.124 29.5184C9.75188 29.3424 9.41112 29.0922 9.10576 28.8028L9.10688 28.8038C9.14812 28.8546 9.19351 28.9022 9.23689 28.9506C9.22639 28.941 9.21638 28.9314 9.20662 28.9224C9.17288 28.8908 9.1445 28.8628 9.124 28.8398C8.97676 28.6804 7.65151 27.5318 6.95977 26.9346C6.90801 26.9104 6.856 26.887 6.80438 26.863C6.9352 27.0568 7.06729 27.2498 7.20063 27.4418C7.40455 27.7364 7.61287 28.0278 7.82551 28.316C7.91711 28.4398 8.0101 28.5626 8.1045 28.6842C8.85662 29.6522 9.8034 30.5468 11.6203 30.5468C11.8478 30.5468 12.0899 30.5328 12.3384 30.5046C12.3963 30.4984 12.4525 30.4918 12.5079 30.4852C12.5611 30.4792 12.6135 30.4734 12.6643 30.4674C14.2441 30.2856 14.6775 30.2082 14.918 30.1666C14.9803 30.156 15.0334 30.1466 15.0909 30.138C15.1133 30.135 15.1361 30.1312 15.1604 30.128C15.1691 30.1272 15.7034 30.0586 16.2256 29.8044C16.5856 29.6298 16.9396 29.367 17.1128 28.9786C17.55 28.0002 17.6389 27.7666 17.6424 27.7578L17.7958 27.3458Z" fill="#731B2A"/>
<path d="M22.074 18.4699C22.1668 18.468 22.255 18.4295 22.3194 18.3627C22.3838 18.2959 22.419 18.2064 22.4176 18.1136C22.4168 18.0676 22.4072 18.0221 22.3888 17.9799C22.3704 17.9376 22.344 17.8994 22.3108 17.8675C22.2776 17.8355 22.2386 17.8104 22.1956 17.7937C22.1528 17.7769 22.107 17.7688 22.061 17.7699C22.015 17.7707 21.9696 17.7806 21.9274 17.7989C21.8854 17.8173 21.8472 17.8438 21.8154 17.8769C21.7836 17.9101 21.7584 17.9491 21.7418 17.9919C21.725 18.0347 21.7168 18.0804 21.7178 18.1264C21.7196 18.2192 21.758 18.3075 21.8248 18.3719C21.8916 18.4363 21.9812 18.4715 22.074 18.4699ZM24.2266 20.0466C23.7644 19.8231 23.2592 20.1058 22.339 20.1232C21.6536 20.1476 21.0794 20.155 21.0416 19.0801C21.0038 18.0029 21.442 17.1126 22.1272 17.0889C22.8118 17.0649 23.437 17.9183 23.521 18.992C23.5442 19.2883 23.5114 19.5041 23.4382 19.6641C24.0746 19.5881 24.2198 20.0204 24.2266 20.0466ZM12.2628 18.7296C12.3555 18.727 12.4433 18.6878 12.5071 18.6206C12.5709 18.5533 12.6054 18.4635 12.6031 18.3709C12.6006 18.278 12.5614 18.19 12.494 18.126C12.4267 18.0621 12.3367 18.0275 12.2438 18.0299C12.1979 18.0311 12.1526 18.0414 12.1107 18.0602C12.0687 18.0789 12.0308 18.1057 11.9992 18.1391C11.9676 18.1724 11.9429 18.2117 11.9265 18.2546C11.9101 18.2975 11.9023 18.3433 11.9035 18.3892C11.9047 18.4351 11.915 18.4804 11.9338 18.5224C11.9525 18.5643 11.9793 18.6022 12.0127 18.6338C12.046 18.6654 12.0853 18.6901 12.1282 18.7065C12.1711 18.7229 12.2169 18.7307 12.2628 18.7295V18.7296ZM13.3208 19.293C13.3309 20.3688 12.7613 20.304 12.0757 20.3108C12.0061 20.313 11.9404 20.3138 11.8747 20.3138C11.7983 20.316 11.7244 20.3168 11.6536 20.3156C10.9881 20.3138 10.5632 20.2842 10.1868 20.4876C10.1956 20.4642 10.3611 20.095 10.9581 19.9444C10.8922 19.799 10.8508 19.5968 10.8399 19.3169C10.7988 18.2416 11.4622 17.3599 12.1472 17.3536C12.8323 17.3469 13.3106 18.2171 13.3208 19.293ZM26.2956 11.8956C26.2906 11.9618 26.2844 12.0279 26.2768 12.0939C26.0054 12.0207 25.7326 11.9523 25.4586 11.8889C24.5536 11.6901 23.6376 11.5428 22.717 11.4376C22.6852 11.4335 22.6528 11.4314 22.6204 11.4274C22.6266 11.4136 22.6322 11.4 22.6364 11.3864C22.6638 11.2859 22.6878 11.1853 22.7106 11.0845C22.948 10.0345 22.9356 8.98875 22.9088 8.48263L26.1826 9.41351C26.361 10.5769 26.3264 11.4895 26.2956 11.8956ZM22.2236 11.2721C22.2126 11.3096 22.214 11.3487 22.2236 11.385C21.881 11.3492 21.5382 11.3175 21.195 11.29C21.5794 10.4838 21.6634 9.62525 21.6822 9.32263C21.9776 9.11301 22.2714 8.86089 22.4872 8.66489C22.507 9.24263 22.4928 10.2911 22.2234 11.2721H22.2236ZM12.1364 11.3829C12.1457 11.3481 12.1464 11.3096 12.1364 11.2721C11.8677 10.2925 11.8534 9.24413 11.8719 8.66489C12.0884 8.86089 12.3816 9.11301 12.6781 9.32263C12.6959 9.62513 12.7799 10.4816 13.1643 11.288C12.8214 11.315 12.4787 11.3466 12.1364 11.383V11.3829ZM11.6421 11.4369C11.1828 11.4929 10.7231 11.5508 10.2656 11.6266C9.80932 11.7048 9.35294 11.7878 8.90056 11.8883C8.62618 11.952 8.35432 12.0195 8.08218 12.0931C8.07968 12.0716 8.07632 12.0385 8.07244 11.9959C8.04094 11.6584 7.98118 10.6864 8.17718 9.41313L11.4501 8.48213C11.4253 8.96925 11.4119 9.95639 11.6223 10.9659C11.6516 11.1061 11.6848 11.2464 11.7231 11.3859C11.7273 11.3996 11.7328 11.4134 11.7388 11.4256C11.7059 11.4298 11.6744 11.4326 11.6419 11.4368L11.6421 11.4369ZM28.0502 12.7586C28.0224 12.7453 27.9948 12.7316 27.9684 12.7186C27.928 12.6991 27.883 12.6769 27.8316 12.6519C27.8002 12.6367 27.7698 12.6196 27.7404 12.6006C27.4376 12.4606 27.12 12.3521 26.803 12.2481C26.7656 12.2359 26.7286 12.2249 26.691 12.2139C26.694 12.2045 26.6964 12.1949 26.6982 12.1852C26.7028 12.1494 26.7842 11.5474 26.735 10.5985C26.7144 10.1933 26.6694 9.72477 26.5846 9.20989C26.5778 9.16981 26.56 9.13243 26.533 9.10209C26.506 9.07175 26.4708 9.04967 26.4318 9.03839L25.9652 8.90639C25.8648 5.29563 24.3782 3.59889 24.3316 3.54625C25.6596 5.68375 25.648 8.21863 25.625 8.80939L22.732 7.98701C22.7298 7.98701 22.728 7.98701 22.7252 7.98575C22.713 7.98307 22.7006 7.98123 22.688 7.98025C22.6854 7.98025 22.6822 7.97975 22.6774 7.97975C22.6616 7.97899 22.6456 7.98035 22.6302 7.98375C22.628 7.98375 22.6254 7.98589 22.6224 7.98589C22.6094 7.98861 22.5968 7.99293 22.585 7.99875C22.5804 8.00089 22.5764 8.00377 22.5722 8.00501C22.5624 8.01163 22.553 8.01713 22.5434 8.02401C22.5414 8.02551 22.5384 8.02675 22.5364 8.02875C22.5336 8.03075 22.5326 8.03289 22.531 8.03425C22.5282 8.03713 22.525 8.03901 22.5226 8.04113C22.52 8.04401 22.442 8.12025 22.321 8.23451C22.3296 7.96389 22.3316 7.54975 22.301 7.04413L22.2916 6.89825C22.2006 5.62789 21.9004 3.84351 21.003 2.28139C21.0106 2.30389 21.0994 2.56301 21.2142 2.99963C21.503 4.09789 21.9576 6.32075 21.7098 8.73289C21.7086 8.74389 21.7078 8.75475 21.7066 8.76589C21.703 8.76901 21.6988 8.77189 21.695 8.77489C21.584 8.86407 21.4696 8.94901 21.352 9.02951C21.3236 9.04905 21.3004 9.07501 21.284 9.10529C21.2676 9.13559 21.2586 9.16933 21.2576 9.20375C21.2576 9.21463 21.2324 10.293 20.7564 11.2113C20.748 11.2263 20.7436 11.2414 20.7386 11.257C19.5542 11.1757 18.3662 11.1411 17.1797 11.1402C15.9938 11.141 14.8052 11.1736 13.6199 11.2542C13.6152 11.2399 13.6104 11.2249 13.6036 11.2111C13.1268 10.293 13.1023 9.21463 13.1016 9.20363C13.1009 9.16927 13.0921 9.13557 13.0758 9.10529C13.0596 9.07501 13.0363 9.04905 13.0081 9.02951C12.8859 8.94633 12.7671 8.85833 12.6519 8.76575C12.4112 6.47113 12.8084 4.34489 13.0976 3.18789C13.2348 2.63863 13.3481 2.30663 13.3571 2.28125C12.0549 4.54701 12.0098 7.28089 12.0387 8.23439C11.9156 8.12013 11.8392 8.04401 11.8372 8.04101C11.8349 8.03889 11.8309 8.03701 11.8282 8.03413L11.8236 8.02851C11.8213 8.02663 11.8187 8.02539 11.8159 8.02389C11.8067 8.01741 11.7971 8.01153 11.7872 8.00625C11.7824 8.00363 11.7789 8.00075 11.7734 7.99863C11.7624 7.99267 11.7505 7.98875 11.7381 7.98701C11.7346 7.98575 11.7319 7.98363 11.7297 7.98363C11.7139 7.98031 11.6978 7.97895 11.6817 7.97963C11.6777 7.97963 11.6734 7.98013 11.6694 7.98013C11.6577 7.98139 11.6463 7.98275 11.6341 7.98563C11.6312 7.98689 11.6298 7.98689 11.6271 7.98689L8.73506 8.80925C8.71182 8.21839 8.69932 5.68351 10.0273 3.54613C9.98132 3.59901 8.49494 5.29589 8.39382 8.90663L7.92944 9.03851C7.88996 9.04935 7.85444 9.07129 7.8271 9.10173C7.79976 9.13219 7.78174 9.16985 7.77518 9.21025C7.69932 9.66941 7.649 10.1324 7.62444 10.5971C7.57544 11.5471 7.65694 12.1496 7.66218 12.1855C7.66432 12.195 7.66694 12.2043 7.66844 12.2136C7.63144 12.2251 7.59332 12.2361 7.55632 12.2477C7.23882 12.3517 6.92018 12.4607 6.61706 12.6012C6.58954 12.619 6.56098 12.6351 6.53156 12.6495L6.52682 12.6521C6.47518 12.6771 6.43032 12.6994 6.38982 12.7189L6.31868 12.7536C6.30368 12.7624 6.28818 12.7699 6.27344 12.7787C6.48806 12.6945 6.71006 12.633 6.93182 12.5785C7.15398 12.5232 7.37764 12.4742 7.60256 12.4315C8.05294 12.3478 8.50432 12.275 8.95856 12.2197C9.41156 12.1602 9.86644 12.1111 10.3221 12.073C10.7778 12.0341 11.2328 11.9958 11.6896 11.9694C13.5162 11.8613 15.3476 11.8271 17.1796 11.8265C19.0122 11.8278 20.8434 11.8565 22.6696 11.9688C23.1266 11.9951 23.5816 12.0332 24.038 12.0719C24.4944 12.1106 24.9476 12.1604 25.4006 12.2199C25.855 12.2745 26.3072 12.3469 26.7568 12.4311C26.9816 12.4735 27.205 12.5227 27.4266 12.5785C27.6502 12.6331 27.871 12.6946 28.086 12.7789C28.074 12.7716 28.0618 12.7654 28.0502 12.7586Z" fill="#0E0F0D"/>
<path d="M17.6909 4.37763V9.19951H18.3453V10.0945H16.1325V9.19951H16.7869V4.37763H15.1974V5.17063H14.4289V3.60939H20.0494V5.17063H19.2808V4.37751H17.6909V4.37763ZM20.6282 5.74789V3.03125H13.8516V5.74789H15.776V4.95489H16.2083V8.62113H15.5554V10.6709H18.9234V8.62089H18.2683V4.95463H18.7023V5.74777H20.6282V5.74789Z" fill="#0E0F0D"/>
</svg>
