<svg width="33" height="33" viewBox="0 0 33 33" fill="none" xmlns="http://www.w3.org/2000/svg">
<g clip-path="url(#clip0_2071_20428)">
<path d="M16.3398 32.1533C25.1764 32.1533 32.3398 24.9898 32.3398 16.1533C32.3398 7.3167 25.1764 0.153259 16.3398 0.153259C7.50329 0.153259 0.339844 7.3167 0.339844 16.1533C0.339844 24.9898 7.50329 32.1533 16.3398 32.1533Z" fill="#5C2D91"/>
<path opacity="0.1" d="M5.2499 4.65326C3.62338 6.10267 2.31 7.86898 1.39026 9.84392C0.470514 11.8189 -0.0362082 13.9608 -0.0988525 16.1386C-0.161497 18.3163 0.221257 20.4838 1.02595 22.5084C1.83064 24.5329 3.04031 26.3718 4.58082 27.9123C6.12133 29.4528 7.96022 30.6625 9.98478 31.4672C12.0093 32.2719 14.1769 32.6547 16.3546 32.592C18.5323 32.5294 20.6743 32.0226 22.6492 31.1029C24.6242 30.1832 26.3905 28.8698 27.8399 27.2433L5.2499 4.65326Z" fill="white"/>
<path d="M4.04002 18.7783C3.94669 18.7797 3.85407 18.7618 3.768 18.7257C3.68194 18.6895 3.60431 18.6359 3.54002 18.5683C3.47397 18.503 3.42176 18.4251 3.38654 18.3392C3.35131 18.2532 3.33379 18.1611 3.33502 18.0683C3.33435 17.9755 3.35213 17.8835 3.38733 17.7977C3.42252 17.7118 3.47442 17.6339 3.54002 17.5683C3.60368 17.4994 3.68108 17.4447 3.76721 17.4077C3.85333 17.3707 3.94628 17.3521 4.04002 17.3533C4.13363 17.353 4.22629 17.372 4.31229 17.409C4.39829 17.4459 4.47579 17.5002 4.54002 17.5683C4.60675 17.6333 4.65973 17.711 4.6958 17.7969C4.73188 17.8828 4.75032 17.9751 4.75002 18.0683C4.75089 18.1615 4.73272 18.2539 4.69661 18.3399C4.6605 18.4259 4.60722 18.5036 4.54002 18.5683C4.47518 18.6352 4.39745 18.6883 4.31152 18.7244C4.22558 18.7605 4.13323 18.7788 4.04002 18.7783Z" fill="white"/>
<path d="M13.9748 18.6533H12.6648L7.97977 11.3833C7.86307 11.2041 7.76585 11.0131 7.68977 10.8133H7.64977C7.69429 11.2284 7.71099 11.646 7.69977 12.0633V18.6533H6.63477V9.53827H8.01977L12.5798 16.6783C12.7698 16.9749 12.8931 17.1783 12.9498 17.2883H12.9748C12.922 16.8437 12.9003 16.3959 12.9098 15.9483V9.53827H13.9748V18.6533Z" fill="white"/>
<path d="M21.1848 18.6533H16.3398V9.53827H20.9598V10.5033H17.4298V13.5333H20.7198V14.4933H17.4298V17.6533H21.1898L21.1848 18.6533Z" fill="white"/>
<path d="M28.3399 10.5033H25.6899V18.6533H24.6249V10.5033H22.0049V9.53827H28.3399V10.5033Z" fill="white"/>
<path d="M13.4 24.8533C13.039 25.0281 12.6408 25.1122 12.24 25.0983C11.9736 25.1103 11.7078 25.0652 11.4603 24.966C11.2128 24.8668 10.9893 24.7159 10.805 24.5233C10.4376 24.112 10.244 23.5743 10.265 23.0233C10.2515 22.7249 10.2981 22.4269 10.4021 22.1469C10.506 21.8669 10.6651 21.6106 10.87 21.3933C11.0696 21.1888 11.3096 21.028 11.5747 20.9213C11.8399 20.8146 12.1243 20.7641 12.41 20.7733C12.7518 20.7616 13.0924 20.8212 13.41 20.9483V21.4483C13.1042 21.279 12.7594 21.1928 12.41 21.1983C12.1896 21.1921 11.9706 21.2335 11.7678 21.3198C11.565 21.4061 11.3832 21.5352 11.235 21.6983C10.9231 22.0535 10.7617 22.5162 10.785 22.9883C10.7616 23.4355 10.9121 23.8745 11.205 24.2133C11.3454 24.3643 11.5169 24.4832 11.7077 24.5617C11.8984 24.6403 12.1039 24.6766 12.31 24.6683C12.6939 24.6783 13.073 24.5814 13.405 24.3883L13.4 24.8533Z" fill="#F2F2F2"/>
<path d="M15.4447 25.0982C15.2456 25.1047 15.0475 25.0683 14.8638 24.9915C14.6801 24.9147 14.515 24.7994 14.3797 24.6532C14.1063 24.3481 13.9643 23.9474 13.9847 23.5382C13.9722 23.3239 14.0024 23.1091 14.0737 22.9066C14.1449 22.704 14.2557 22.5176 14.3997 22.3582C14.5466 22.2149 14.7213 22.1032 14.9131 22.0301C15.1049 21.957 15.3096 21.924 15.5147 21.9332C15.7085 21.9229 15.9022 21.9547 16.0826 22.0263C16.263 22.0979 16.4257 22.2078 16.5597 22.3482C16.8254 22.6685 16.9595 23.0778 16.9347 23.4932C16.9557 23.9148 16.8102 24.3278 16.5297 24.6432C16.3918 24.7922 16.2237 24.9099 16.0365 24.9884C15.8494 25.0669 15.6475 25.1043 15.4447 25.0982ZM15.4797 22.3632C15.3421 22.3574 15.2051 22.3828 15.0787 22.4373C14.9523 22.4918 14.8398 22.5742 14.7497 22.6782C14.5573 22.926 14.4613 23.2351 14.4797 23.5482C14.4622 23.8521 14.5585 24.1515 14.7497 24.3882C14.8408 24.4908 14.9535 24.5718 15.0798 24.6254C15.206 24.6791 15.3426 24.7039 15.4797 24.6982C15.6138 24.7062 15.7481 24.6832 15.872 24.6312C15.9959 24.5792 16.1063 24.4995 16.1947 24.3982C16.3765 24.1498 16.465 23.8454 16.4447 23.5382C16.4644 23.2296 16.376 22.9237 16.1947 22.6732C16.1075 22.5698 15.9976 22.488 15.8736 22.4342C15.7495 22.3805 15.6147 22.3562 15.4797 22.3632Z" fill="#F2F2F2"/>
<path d="M19.2697 22.5133C19.1617 22.4425 19.0335 22.4091 18.9047 22.4183C18.804 22.4219 18.7057 22.4503 18.6185 22.5009C18.5313 22.5514 18.4579 22.6227 18.4047 22.7083C18.2559 22.9439 18.1842 23.22 18.1997 23.4983V25.0283H17.6997V22.0283H18.1997V22.6533C18.2547 22.4599 18.364 22.2863 18.5147 22.1533C18.6451 22.0401 18.812 21.9779 18.9847 21.9783C19.0814 21.9739 19.178 21.9875 19.2697 22.0183V22.5133Z" fill="#F2F2F2"/>
<path d="M22.2 23.6532H20.085C20.0708 23.9328 20.1618 24.2075 20.34 24.4232C20.4327 24.5157 20.5439 24.5875 20.6662 24.634C20.7885 24.6806 20.9193 24.7007 21.05 24.6932C21.389 24.6899 21.7168 24.5718 21.98 24.3582V24.8082C21.6709 25.012 21.3048 25.1118 20.935 25.0932C20.7484 25.1027 20.5621 25.0708 20.3892 24.9999C20.2164 24.9291 20.0613 24.8209 19.935 24.6832C19.6747 24.3586 19.5446 23.9486 19.57 23.5332C19.5521 23.1169 19.6933 22.7093 19.965 22.3932C20.0887 22.2504 20.2426 22.1368 20.4155 22.0607C20.5885 21.9846 20.7762 21.9479 20.965 21.9532C21.1356 21.9437 21.306 21.9729 21.4637 22.0387C21.6213 22.1046 21.7619 22.2053 21.875 22.3332C22.1052 22.6368 22.2188 23.013 22.195 23.3932L22.2 23.6532ZM21.7 23.2482C21.7102 23.0166 21.6395 22.7886 21.5 22.6032C21.4316 22.5259 21.3466 22.4651 21.2514 22.4253C21.1561 22.3854 21.0531 22.3677 20.95 22.3732C20.8424 22.3719 20.7357 22.393 20.6367 22.4352C20.5377 22.4774 20.4486 22.5397 20.375 22.6182C20.2105 22.7923 20.1069 23.0152 20.08 23.2532L21.7 23.2482Z" fill="#F2F2F2"/>
</g>
<defs>
<clipPath id="clip0_2071_20428">
<rect width="32" height="32" fill="white" transform="translate(0.339844 0.153259)"/>
</clipPath>
</defs>
</svg>
