<svg width="33" height="33" viewBox="0 0 33 33" fill="none" xmlns="http://www.w3.org/2000/svg">
<g clip-path="url(#clip0_2071_20409)">
<path d="M3.0877 13.8667C3.0252 13.8667 3.00982 13.8353 3.04095 13.7885L3.36807 13.3663C3.39932 13.3194 3.47707 13.2881 3.53932 13.2881H9.10144C9.16393 13.2881 9.17931 13.3351 9.14818 13.382L8.88319 13.7885C8.85194 13.8354 8.77419 13.8824 8.72744 13.8824L3.08745 13.8667H3.0877ZM0.735203 15.3054C0.672703 15.3054 0.657328 15.2741 0.688453 15.2273L1.01558 14.8051C1.04683 14.7581 1.12458 14.7269 1.18683 14.7269H8.29144C8.35394 14.7269 8.38494 14.7738 8.36931 14.8207L8.24469 15.1959C8.22906 15.2586 8.16681 15.2897 8.10444 15.2897L0.735203 15.3054ZM4.50557 16.7442C4.44307 16.7442 4.4277 16.6972 4.45882 16.6503L4.67694 16.2594C4.70819 16.2124 4.77044 16.1655 4.83269 16.1655H7.94869C8.01119 16.1655 8.04219 16.2124 8.04219 16.2749L8.01094 16.6501C8.01094 16.7128 7.94844 16.7595 7.90194 16.7595L4.50545 16.7438L4.50557 16.7442ZM20.678 13.5851L18.0602 14.2732C17.8264 14.3359 17.8109 14.3514 17.6083 14.1169C17.3745 13.8509 17.2033 13.6777 16.876 13.5226C15.8945 13.0378 14.944 13.1786 14.056 13.7573C12.9966 14.4453 12.4513 15.4619 12.4668 16.7286C12.4824 17.9795 13.3393 19.0119 14.5702 19.184C15.6297 19.3248 16.5177 18.9494 17.2189 18.1519C17.3592 17.98 17.4839 17.7922 17.6395 17.5733H14.6327C14.3055 17.5733 14.2277 17.37 14.3367 17.104C14.5392 16.6192 14.9132 15.806 15.1313 15.3994C15.178 15.3055 15.287 15.1492 15.5208 15.1492H21.192C21.1608 15.5714 21.1608 15.9936 21.0985 16.4159C20.9273 17.5419 20.5065 18.574 19.821 19.4811C18.6993 20.9667 17.2348 21.8895 15.3807 22.1398C13.8538 22.3431 12.4361 22.0459 11.1894 21.1077C10.0352 20.2317 9.38206 19.0744 9.21068 17.6357C9.00819 15.9311 9.50668 14.3987 10.5351 13.0536C11.6413 11.5992 13.1058 10.6765 14.8975 10.3482C16.362 10.0822 17.7643 10.2543 19.0263 11.1144C19.852 11.6617 20.444 12.4124 20.8338 13.3195C20.9273 13.4603 20.865 13.5385 20.678 13.5855V13.5851Z" fill="#00ACD7"/>
<path d="M25.8346 22.2333C24.4168 22.2019 23.1236 21.7941 22.033 20.8569C21.1137 20.0593 20.5372 19.0426 20.3505 17.8386C20.07 16.0714 20.553 14.5074 21.6125 13.1157C22.75 11.6144 24.1208 10.8325 25.9749 10.5041C27.5642 10.2226 29.0599 10.379 30.4153 11.3017C31.6462 12.1461 32.4096 13.2879 32.6122 14.7891C32.8772 16.9004 32.2694 18.6205 30.8204 20.0906C29.7922 21.1383 28.5302 21.7952 27.0812 22.0924C26.6606 22.1705 26.2399 22.1862 25.8349 22.2331L25.8346 22.2333ZM29.5427 15.9153C29.5271 15.7121 29.5271 15.5556 29.4959 15.3993C29.2154 13.851 27.7977 12.9752 26.3176 13.3194C24.8686 13.6477 23.9338 14.5703 23.5911 16.0405C23.3106 17.2603 23.9027 18.4959 25.0245 18.9962C25.8813 19.3713 26.7382 19.3245 27.5641 18.9023C28.7949 18.2624 29.4648 17.2603 29.5428 15.9153H29.5427Z" fill="#00ACD7"/>
</g>
<defs>
<clipPath id="clip0_2071_20409">
<rect width="32" height="32" fill="white" transform="translate(0.672852 0.153259)"/>
</clipPath>
</defs>
</svg>
