<svg width="33" height="33" viewBox="0 0 33 33" fill="none" xmlns="http://www.w3.org/2000/svg">
<g clip-path="url(#clip0_2071_20454)">
<path d="M11.6288 24.8933C11.6288 24.8933 10.3988 25.6413 12.4838 25.8553C14.9938 26.1753 16.3308 26.1223 19.1088 25.5883C19.6671 25.9302 20.2576 26.2165 20.8718 26.4433C14.6218 29.1153 6.71176 26.2833 11.6278 24.8933H11.6288ZM10.8288 21.4203C10.8288 21.4203 9.49275 22.4353 11.5768 22.6503C14.3018 22.9173 16.4388 22.9703 20.1268 22.2233C20.4854 22.587 20.9246 22.8614 21.4088 23.0243C13.8748 25.2683 5.43275 23.2383 10.8288 21.4213V21.4203ZM25.5758 27.5103C25.5758 27.5103 26.4838 28.2583 24.5608 28.8463C20.9808 29.9163 9.54676 30.2363 6.34076 28.8463C5.21876 28.3663 7.35576 27.6713 8.04076 27.5643C8.73576 27.4043 9.11076 27.4043 9.11076 27.4043C7.88076 26.5493 0.935755 29.1673 5.58476 29.9143C18.3548 31.9983 28.8808 29.0063 25.5678 27.5103H25.5758ZM12.2068 17.7863C12.2068 17.7863 6.38276 19.1763 10.1228 19.6563C11.7258 19.8703 14.8778 19.8163 17.8168 19.6033C20.2208 19.3893 22.6268 18.9633 22.6268 18.9633C22.6268 18.9633 21.7718 19.3373 21.1838 19.7113C15.2538 21.2613 3.87176 20.5663 7.13176 18.9633C9.90976 17.6273 12.2078 17.7883 12.2078 17.7883L12.2068 17.7863ZM22.6268 23.6103C28.6108 20.5103 25.8328 17.5203 23.9088 17.8933C23.4288 18.0003 23.2138 18.1073 23.2138 18.1073C23.2138 18.1073 23.3738 17.7873 23.7478 17.6803C27.5418 16.3443 30.5338 21.6873 22.5178 23.7703C22.5178 23.7703 22.5708 23.7173 22.6248 23.6103H22.6268ZM12.7968 32.0523C18.5668 32.4263 27.3838 31.8383 27.5968 29.1123C27.5968 29.1123 27.1698 30.1823 22.8418 30.9823C17.9258 31.8903 11.8348 31.7823 8.25476 31.1963C8.25476 31.1963 9.00276 31.8363 12.7968 32.0513V32.0523Z" fill="#4E7896"/>
<path d="M19.0027 0.154236C19.0027 0.154236 22.3157 3.52024 15.8507 8.59624C10.6677 12.7102 14.6757 15.0612 15.8507 17.7332C12.8047 15.0082 10.6147 12.6032 12.1107 10.3602C14.3007 7.04624 20.3387 5.45324 19.0027 0.154236ZM17.3027 15.4892C18.8527 17.2522 16.8757 18.8552 16.8757 18.8552C16.8757 18.8552 20.8297 16.8252 19.0127 14.3132C17.3567 11.9092 16.0727 10.7332 23.0197 6.72624C23.0197 6.72624 12.0667 9.45124 17.3027 15.4892Z" fill="#F58219"/>
</g>
<defs>
<clipPath id="clip0_2071_20454">
<rect width="32" height="32" fill="white" transform="translate(0.00683594 0.153259)"/>
</clipPath>
</defs>
</svg>
