<svg width="1496" height="843" viewBox="0 0 1496 843" fill="none" xmlns="http://www.w3.org/2000/svg">
<rect width="1496" height="843" fill="white"/>
<rect x="37" y="64" width="407" height="721" rx="8" fill="#DBDEF7"/>
<rect x="569" y="300" width="343" height="266" rx="8" fill="#717CE1"/>
<path d="M654.795 447H670.035C673.935 447 677.115 448.32 679.695 450.9C682.275 453.48 683.595 456.66 683.595 460.5C683.595 464.28 682.275 467.52 679.695 470.1C677.115 472.68 673.935 474 670.035 474H660.375V489H654.795V447ZM660.375 468.78H670.035C672.375 468.78 674.295 468 675.795 466.44C677.295 464.82 678.075 462.84 678.075 460.5C678.075 455.7 674.655 452.22 670.035 452.22H660.375V468.78ZM710.346 474.9V459H715.566V489H710.346V484.68C708.246 488.1 705.006 489.78 700.626 489.78C693.606 489.78 688.986 485.04 688.986 477.42V459H694.206V477.12C694.206 481.98 697.026 484.8 701.646 484.8C706.866 484.8 710.346 481.62 710.346 474.9ZM728.733 489H723.513V445.2H728.733V489ZM757.396 474.9V459H762.616V489H757.396V484.68C755.296 488.1 752.056 489.78 747.676 489.78C740.656 489.78 736.036 485.04 736.036 477.42V459H741.256V477.12C741.256 481.98 744.076 484.8 748.696 484.8C753.916 484.8 757.396 481.62 757.396 474.9ZM802.964 458.22C809.684 458.22 814.244 462.9 814.244 470.34V489H809.024V470.52C809.024 465.9 806.444 463.2 802.424 463.2C797.924 463.2 795.044 466.14 795.044 472.32V489H789.824V470.52C789.824 465.9 787.364 463.2 783.464 463.2C779.084 463.2 775.784 466.26 775.784 472.32V489H770.564V459H775.784V463.02C777.824 459.84 780.824 458.22 784.724 458.22C788.744 458.22 791.684 459.9 793.544 463.32C795.644 459.9 798.764 458.22 802.964 458.22ZM824.121 453.54C822.141 453.54 820.581 451.98 820.581 450.06C820.581 448.14 822.141 446.52 824.121 446.52C826.041 446.52 827.601 448.14 827.601 450.06C827.601 451.98 826.041 453.54 824.121 453.54ZM826.701 489H821.481V459H826.701V489Z" fill="white"/>
<circle cx="740.698" cy="300.276" r="79.7755" fill="white" stroke="#717CE1" stroke-width="5"/>
<g clip-path="url(#clip0_2583_2)">
<path d="M708.498 334.713C712.324 332.497 712.33 325.321 708.512 318.686C704.694 312.051 698.498 308.469 694.672 310.685C690.846 312.902 690.84 320.077 694.658 326.712C698.476 333.347 704.672 336.929 708.498 334.713Z" fill="#F26E7E"/>
<path d="M786.747 326.722C790.566 320.087 790.559 312.912 786.733 310.695C782.908 308.479 776.711 312.061 772.893 318.696C769.075 325.331 769.081 332.506 772.907 334.722C776.733 336.939 782.93 333.357 786.747 326.722Z" fill="#8A3391"/>
<path d="M734.57 349.837C738.396 347.621 738.402 340.446 734.584 333.81C730.766 327.176 724.57 323.594 720.744 325.81C716.918 328.026 716.912 335.201 720.73 341.837C724.548 348.471 730.744 352.054 734.57 349.837Z" fill="#F26E7E"/>
<path d="M760.681 341.822C764.499 335.186 764.493 328.011 760.667 325.794C756.841 323.579 750.644 327.16 746.826 333.795C743.008 340.43 743.015 347.606 746.84 349.822C750.666 352.039 756.863 348.456 760.681 341.822Z" fill="#8A3391"/>
<path d="M740.686 262.753C748.322 262.753 754.512 259.159 754.512 254.727C754.512 250.294 748.322 246.701 740.686 246.701C733.05 246.701 726.859 250.294 726.859 254.727C726.859 259.159 733.05 262.753 740.686 262.753Z" fill="#F7BF2A"/>
<path d="M708.489 304.479C712.315 302.263 712.321 295.087 708.503 288.452C704.685 281.817 698.489 278.235 694.663 280.451C690.837 282.668 690.831 289.843 694.649 296.478C698.467 303.113 704.663 306.695 708.489 304.479Z" fill="#F26E7E"/>
<path d="M714.619 277.837C722.255 277.837 728.446 274.243 728.446 269.811C728.446 265.378 722.255 261.785 714.619 261.785C706.983 261.785 700.793 265.378 700.793 269.811C700.793 274.243 706.983 277.837 714.619 277.837Z" fill="#F7BF2A"/>
<path d="M786.733 296.495C790.55 289.86 790.544 282.685 786.719 280.468C782.892 278.252 776.696 281.834 772.878 288.469C769.06 295.104 769.066 302.28 772.892 304.496C776.718 306.712 782.914 303.13 786.733 296.495Z" fill="#8A3391"/>
<path d="M766.787 277.837C774.423 277.837 780.613 274.243 780.613 269.811C780.613 265.378 774.423 261.785 766.787 261.785C759.151 261.785 752.961 265.378 752.961 269.811C752.961 274.243 759.151 277.837 766.787 277.837Z" fill="#F7BF2A"/>
<path d="M734.562 319.603C738.387 317.387 738.394 310.211 734.576 303.577C730.758 296.942 724.561 293.36 720.735 295.576C716.91 297.792 716.903 304.968 720.721 311.603C724.539 318.238 730.736 321.82 734.562 319.603Z" fill="#F26E7E"/>
<path d="M760.666 311.594C764.483 304.959 764.477 297.784 760.651 295.568C756.826 293.351 750.629 296.933 746.811 303.568C742.993 310.203 742.999 317.378 746.825 319.595C750.651 321.811 756.848 318.23 760.666 311.594Z" fill="#8A3391"/>
<path d="M740.686 292.955C748.322 292.955 754.512 289.361 754.512 284.928C754.512 280.496 748.322 276.902 740.686 276.902C733.05 276.902 726.859 280.496 726.859 284.928C726.859 289.361 733.05 292.955 740.686 292.955Z" fill="#F7BF2A"/>
</g>
<path d="M1051.41 425.414C1052.2 424.633 1052.2 423.367 1051.41 422.586L1038.69 409.858C1037.91 409.077 1036.64 409.077 1035.86 409.858C1035.08 410.639 1035.08 411.905 1035.86 412.686L1047.17 424L1035.86 435.314C1035.08 436.095 1035.08 437.361 1035.86 438.142C1036.64 438.923 1037.91 438.923 1038.69 438.142L1051.41 425.414ZM912 426L1050 426L1050 422L912 422L912 426Z" fill="#6D6D6D"/>
<path d="M568.414 425.414C569.195 424.633 569.195 423.367 568.414 422.586L555.686 409.858C554.905 409.077 553.639 409.077 552.858 409.858C552.077 410.639 552.077 411.905 552.858 412.686L564.172 424L552.858 435.314C552.077 436.095 552.077 437.361 552.858 438.142C553.639 438.923 554.905 438.923 555.686 438.142L568.414 425.414ZM444 426L567 426L567 422L444 422L444 426Z" fill="#6D6D6D"/>
<path d="M1052 151H1459V777C1459 781.418 1455.42 785 1451 785H1060C1055.58 785 1052 781.418 1052 777V151Z" fill="#DBDEF7"/>
<path d="M1052 72C1052 67.5817 1055.58 64 1060 64H1451C1455.42 64 1459 67.5817 1459 72V215H1052V72Z" fill="#717CE1"/>
<path d="M1101.86 113.25C1101.86 108.705 1103.44 104.835 1106.59 101.685C1109.74 98.49 1113.61 96.915 1118.15 96.915C1122.7 96.915 1126.57 98.49 1129.72 101.685C1132.91 104.835 1134.49 108.705 1134.49 113.25C1134.49 117.795 1132.91 121.62 1129.72 124.815C1126.57 128.01 1122.7 129.585 1118.15 129.585C1113.61 129.585 1109.74 128.01 1106.59 124.815C1103.44 121.62 1101.86 117.795 1101.86 113.25ZM1130.3 113.25C1130.3 109.785 1129.13 106.86 1126.79 104.52C1124.5 102.135 1121.62 100.965 1118.15 100.965C1114.69 100.965 1111.81 102.135 1109.47 104.52C1107.17 106.86 1106 109.785 1106 113.25C1106 116.715 1107.17 119.595 1109.47 121.98C1111.81 124.32 1114.69 125.49 1118.15 125.49C1121.62 125.49 1124.5 124.32 1126.79 121.98C1129.13 119.595 1130.3 116.715 1130.3 113.25ZM1151.53 105.915C1154.68 105.915 1157.38 107.085 1159.59 109.38C1161.79 111.675 1162.92 114.465 1162.92 117.75C1162.92 121.035 1161.79 123.87 1159.59 126.165C1157.38 128.46 1154.68 129.585 1151.53 129.585C1147.8 129.585 1144.96 128.1 1143.03 125.13V138H1139.11V106.5H1143.03V110.37C1144.96 107.4 1147.8 105.915 1151.53 105.915ZM1151.04 125.805C1153.29 125.805 1155.18 125.04 1156.71 123.51C1158.24 121.935 1159 120.045 1159 117.75C1159 115.455 1158.24 113.565 1156.71 112.035C1155.18 110.46 1153.29 109.695 1151.04 109.695C1148.74 109.695 1146.85 110.46 1145.32 112.035C1143.79 113.565 1143.03 115.455 1143.03 117.75C1143.03 120.045 1143.79 121.935 1145.32 123.51C1146.85 125.04 1148.74 125.805 1151.04 125.805ZM1179.35 106.5V110.28H1173.36V122.475C1173.36 125.94 1175.34 125.67 1179.35 125.49V129C1172.51 129.9 1169.45 128.055 1169.45 122.475V110.28H1164.99V106.5H1169.45V101.37L1173.36 100.2V106.5H1179.35ZM1185.96 102.405C1184.48 102.405 1183.31 101.235 1183.31 99.795C1183.31 98.355 1184.48 97.14 1185.96 97.14C1187.4 97.14 1188.57 98.355 1188.57 99.795C1188.57 101.235 1187.4 102.405 1185.96 102.405ZM1187.9 129H1183.98V106.5H1187.9V129ZM1218.17 105.915C1223.21 105.915 1226.63 109.425 1226.63 115.005V129H1222.72V115.14C1222.72 111.675 1220.78 109.65 1217.77 109.65C1214.39 109.65 1212.23 111.855 1212.23 116.49V129H1208.32V115.14C1208.32 111.675 1206.47 109.65 1203.55 109.65C1200.26 109.65 1197.79 111.945 1197.79 116.49V129H1193.87V106.5H1197.79V109.515C1199.32 107.13 1201.57 105.915 1204.49 105.915C1207.51 105.915 1209.71 107.175 1211.11 109.74C1212.68 107.175 1215.02 105.915 1218.17 105.915ZM1234.04 102.405C1232.55 102.405 1231.38 101.235 1231.38 99.795C1231.38 98.355 1232.55 97.14 1234.04 97.14C1235.48 97.14 1236.65 98.355 1236.65 99.795C1236.65 101.235 1235.48 102.405 1234.04 102.405ZM1235.97 129H1232.06V106.5H1235.97V129ZM1258.01 109.11L1246.49 125.265H1258.46V129H1241.14V126.39L1252.61 110.235H1241.59V106.5H1258.01V109.11ZM1280.35 110.37V106.5H1284.27V129H1280.35V125.13C1278.42 128.1 1275.58 129.585 1271.85 129.585C1268.7 129.585 1266 128.46 1263.79 126.165C1261.59 123.87 1260.46 121.035 1260.46 117.75C1260.46 114.465 1261.59 111.675 1263.79 109.38C1266 107.085 1268.7 105.915 1271.85 105.915C1275.58 105.915 1278.42 107.4 1280.35 110.37ZM1272.34 125.805C1274.64 125.805 1276.53 125.04 1278.06 123.51C1279.59 121.935 1280.35 120.045 1280.35 117.75C1280.35 115.455 1279.59 113.565 1278.06 112.035C1276.53 110.46 1274.64 109.695 1272.34 109.695C1270.09 109.695 1268.2 110.46 1266.67 112.035C1265.14 113.565 1264.38 115.455 1264.38 117.75C1264.38 120.045 1265.14 121.935 1266.67 123.51C1268.2 125.04 1270.09 125.805 1272.34 125.805ZM1302.44 106.5V110.28H1296.45V122.475C1296.45 125.94 1298.43 125.67 1302.44 125.49V129C1295.6 129.9 1292.54 128.055 1292.54 122.475V110.28H1288.08V106.5H1292.54V101.37L1296.45 100.2V106.5H1302.44ZM1309.05 102.405C1307.57 102.405 1306.4 101.235 1306.4 99.795C1306.4 98.355 1307.57 97.14 1309.05 97.14C1310.49 97.14 1311.66 98.355 1311.66 99.795C1311.66 101.235 1310.49 102.405 1309.05 102.405ZM1310.99 129H1307.07V106.5H1310.99V129ZM1335.95 126.165C1333.66 128.46 1330.82 129.585 1327.54 129.585C1324.25 129.585 1321.42 128.46 1319.12 126.165C1316.83 123.87 1315.7 121.08 1315.7 117.75C1315.7 114.42 1316.83 111.63 1319.12 109.335C1321.42 107.04 1324.25 105.915 1327.54 105.915C1330.82 105.915 1333.66 107.04 1335.95 109.335C1338.25 111.63 1339.42 114.42 1339.42 117.75C1339.42 121.08 1338.25 123.87 1335.95 126.165ZM1327.54 125.76C1329.79 125.76 1331.68 124.995 1333.21 123.465C1334.74 121.935 1335.5 120.045 1335.5 117.75C1335.5 115.455 1334.74 113.565 1333.21 112.035C1331.68 110.505 1329.79 109.74 1327.54 109.74C1325.33 109.74 1323.44 110.505 1321.91 112.035C1320.38 113.565 1319.62 115.455 1319.62 117.75C1319.62 120.045 1320.38 121.935 1321.91 123.465C1323.44 124.995 1325.33 125.76 1327.54 125.76ZM1355.24 105.915C1360.5 105.915 1363.97 109.47 1363.97 115.185V129H1360.05V115.41C1360.05 111.765 1357.94 109.65 1354.47 109.65C1350.56 109.65 1347.95 112.035 1347.95 117.075V129H1344.03V106.5H1347.95V109.74C1349.52 107.175 1351.95 105.915 1355.24 105.915ZM1372.81 112.575C1372.81 114.33 1374.79 115.275 1377.26 115.95C1380.77 116.715 1385.45 118.02 1385.41 122.835C1385.41 124.86 1384.6 126.525 1383.02 127.74C1381.45 128.955 1379.47 129.585 1376.99 129.585C1372.63 129.585 1369.34 127.515 1368.04 124.32L1371.41 122.385C1372.13 124.545 1374.25 125.895 1376.99 125.895C1379.56 125.895 1381.45 124.95 1381.45 122.835C1381.45 121.08 1379.47 120.09 1376.99 119.505C1373.44 118.56 1368.85 117.39 1368.85 112.62C1368.85 110.685 1369.61 109.065 1371.1 107.805C1372.63 106.545 1374.52 105.915 1376.81 105.915C1380.46 105.915 1383.47 107.67 1384.91 110.595L1381.63 112.44C1380.82 110.505 1379.2 109.56 1376.81 109.56C1374.61 109.56 1372.81 110.64 1372.81 112.575ZM1409.12 93L1391.12 133.5H1388.78L1406.78 93H1409.12ZM1180.43 174V142.5H1184.62V174H1180.43ZM1202.18 150.915C1207.44 150.915 1210.91 154.47 1210.91 160.185V174H1206.99V160.41C1206.99 156.765 1204.88 154.65 1201.41 154.65C1197.5 154.65 1194.89 157.035 1194.89 162.075V174H1190.97V151.5H1194.89V154.74C1196.46 152.175 1198.89 150.915 1202.18 150.915ZM1219.75 157.575C1219.75 159.33 1221.73 160.275 1224.2 160.95C1227.71 161.715 1232.39 163.02 1232.35 167.835C1232.35 169.86 1231.54 171.525 1229.96 172.74C1228.39 173.955 1226.41 174.585 1223.93 174.585C1219.57 174.585 1216.28 172.515 1214.98 169.32L1218.35 167.385C1219.07 169.545 1221.19 170.895 1223.93 170.895C1226.5 170.895 1228.39 169.95 1228.39 167.835C1228.39 166.08 1226.41 165.09 1223.93 164.505C1220.38 163.56 1215.79 162.39 1215.79 157.62C1215.79 155.685 1216.55 154.065 1218.04 152.805C1219.57 151.545 1221.46 150.915 1223.75 150.915C1227.4 150.915 1230.41 152.67 1231.85 155.595L1228.57 157.44C1227.76 155.505 1226.14 154.56 1223.75 154.56C1221.55 154.56 1219.75 155.64 1219.75 157.575ZM1238.74 147.405C1237.26 147.405 1236.09 146.235 1236.09 144.795C1236.09 143.355 1237.26 142.14 1238.74 142.14C1240.18 142.14 1241.35 143.355 1241.35 144.795C1241.35 146.235 1240.18 147.405 1238.74 147.405ZM1240.68 174H1236.76V151.5H1240.68V174ZM1265.32 155.37V151.5H1269.19V173.055C1269.19 176.385 1268.07 178.95 1265.82 180.795C1263.57 182.64 1260.87 183.585 1257.72 183.585C1252.68 183.585 1248.9 181.65 1247.05 178.095L1250.47 176.16C1251.69 178.68 1254.16 179.94 1257.81 179.94C1262.49 179.94 1265.32 177.33 1265.32 173.055V169.86C1263.34 172.875 1260.51 174.36 1256.86 174.36C1253.67 174.36 1250.92 173.235 1248.72 170.94C1246.51 168.645 1245.39 165.9 1245.39 162.615C1245.39 159.33 1246.51 156.585 1248.72 154.335C1250.92 152.04 1253.67 150.915 1256.86 150.915C1260.55 150.915 1263.39 152.4 1265.32 155.37ZM1265.32 162.615C1265.32 160.365 1264.56 158.475 1263.03 156.945C1261.5 155.415 1259.61 154.65 1257.31 154.65C1255.02 154.65 1253.13 155.415 1251.6 156.945C1250.07 158.475 1249.3 160.365 1249.3 162.615C1249.3 164.91 1250.07 166.8 1251.6 168.33C1253.13 169.86 1255.02 170.625 1257.31 170.625C1259.61 170.625 1261.5 169.86 1263.03 168.33C1264.56 166.8 1265.32 164.91 1265.32 162.615ZM1286.33 150.915C1291.6 150.915 1295.06 154.47 1295.06 160.185V174H1291.15V160.41C1291.15 156.765 1289.03 154.65 1285.57 154.65C1281.65 154.65 1279.04 157.035 1279.04 162.075V174H1275.13V142.5H1279.04V154.74C1280.62 152.175 1283.05 150.915 1286.33 150.915ZM1312.77 151.5V155.28H1306.78V167.475C1306.78 170.94 1308.76 170.67 1312.77 170.49V174C1305.93 174.9 1302.87 173.055 1302.87 167.475V155.28H1298.41V151.5H1302.87V146.37L1306.78 145.2V151.5H1312.77ZM1319.68 157.575C1319.68 159.33 1321.66 160.275 1324.13 160.95C1327.64 161.715 1332.32 163.02 1332.28 167.835C1332.28 169.86 1331.47 171.525 1329.89 172.74C1328.32 173.955 1326.34 174.585 1323.86 174.585C1319.5 174.585 1316.21 172.515 1314.91 169.32L1318.28 167.385C1319 169.545 1321.12 170.895 1323.86 170.895C1326.43 170.895 1328.32 169.95 1328.32 167.835C1328.32 166.08 1326.34 165.09 1323.86 164.505C1320.31 163.56 1315.72 162.39 1315.72 157.62C1315.72 155.685 1316.48 154.065 1317.97 152.805C1319.5 151.545 1321.39 150.915 1323.68 150.915C1327.33 150.915 1330.34 152.67 1331.78 155.595L1328.5 157.44C1327.69 155.505 1326.07 154.56 1323.68 154.56C1321.48 154.56 1319.68 155.64 1319.68 157.575Z" fill="white"/>
<rect x="1068" y="232" width="375" height="167" rx="8" fill="#F8F8FF"/>
<path d="M1232.16 325.455C1228.45 325.455 1225.37 324.23 1222.96 321.78C1220.54 319.33 1219.35 316.32 1219.35 312.75C1219.35 309.18 1220.54 306.17 1222.96 303.72C1225.37 301.27 1228.45 300.045 1232.16 300.045C1236.64 300.045 1240.63 302.355 1242.73 305.995L1239.9 307.64C1238.5 304.945 1235.52 303.195 1232.16 303.195C1229.33 303.195 1227.02 304.105 1225.23 305.925C1223.45 307.745 1222.57 310.02 1222.57 312.75C1222.57 315.445 1223.45 317.72 1225.23 319.54C1227.02 321.36 1229.33 322.27 1232.16 322.27C1235.52 322.27 1238.5 320.52 1239.9 317.86L1242.73 319.47C1241.72 321.29 1240.25 322.76 1238.36 323.845C1236.47 324.93 1234.4 325.455 1232.16 325.455ZM1260.81 322.795C1259.02 324.58 1256.82 325.455 1254.26 325.455C1251.71 325.455 1249.5 324.58 1247.72 322.795C1245.93 321.01 1245.06 318.84 1245.06 316.25C1245.06 313.66 1245.93 311.49 1247.72 309.705C1249.5 307.92 1251.71 307.045 1254.26 307.045C1256.82 307.045 1259.02 307.92 1260.81 309.705C1262.59 311.49 1263.5 313.66 1263.5 316.25C1263.5 318.84 1262.59 321.01 1260.81 322.795ZM1254.26 322.48C1256.01 322.48 1257.48 321.885 1258.67 320.695C1259.86 319.505 1260.46 318.035 1260.46 316.25C1260.46 314.465 1259.86 312.995 1258.67 311.805C1257.48 310.615 1256.01 310.02 1254.26 310.02C1252.55 310.02 1251.08 310.615 1249.89 311.805C1248.7 312.995 1248.1 314.465 1248.1 316.25C1248.1 318.035 1248.7 319.505 1249.89 320.695C1251.08 321.885 1252.55 322.48 1254.26 322.48ZM1269.34 312.225C1269.34 313.59 1270.88 314.325 1272.8 314.85C1275.53 315.445 1279.17 316.46 1279.14 320.205C1279.14 321.78 1278.51 323.075 1277.28 324.02C1276.06 324.965 1274.52 325.455 1272.59 325.455C1269.2 325.455 1266.64 323.845 1265.63 321.36L1268.25 319.855C1268.81 321.535 1270.46 322.585 1272.59 322.585C1274.59 322.585 1276.06 321.85 1276.06 320.205C1276.06 318.84 1274.52 318.07 1272.59 317.615C1269.83 316.88 1266.26 315.97 1266.26 312.26C1266.26 310.755 1266.85 309.495 1268.01 308.515C1269.2 307.535 1270.67 307.045 1272.45 307.045C1275.29 307.045 1277.63 308.41 1278.75 310.685L1276.2 312.12C1275.57 310.615 1274.31 309.88 1272.45 309.88C1270.74 309.88 1269.34 310.72 1269.34 312.225ZM1291.58 307.5V310.44H1286.93V319.925C1286.93 322.62 1288.47 322.41 1291.58 322.27V325C1286.26 325.7 1283.88 324.265 1283.88 319.925V310.44H1280.42V307.5H1283.88V303.51L1286.93 302.6V307.5H1291.58Z" fill="black"/>
<rect x="1068" y="418" width="375" height="165" rx="8" fill="#F8F8FF"/>
<path d="M1200.73 510.455C1196.15 510.455 1192.75 508.18 1191.46 504.435L1194.26 502.825C1195.2 505.8 1197.41 507.27 1200.8 507.27C1204.16 507.27 1205.98 505.765 1205.98 503.49C1205.98 502.335 1205.53 501.46 1204.65 500.865C1203.78 500.27 1202.27 499.675 1200.21 499.01L1197.86 498.24C1197.34 498.03 1196.64 497.715 1195.83 497.33C1195.03 496.91 1194.43 496.49 1194.05 496.07C1193.24 495.195 1192.51 493.76 1192.51 491.975C1192.51 489.84 1193.24 488.16 1194.75 486.935C1196.25 485.675 1198.07 485.045 1200.21 485.045C1204.09 485.045 1207.07 487.18 1208.5 490.4L1205.77 491.975C1204.72 489.455 1202.87 488.195 1200.21 488.195C1197.55 488.195 1195.76 489.595 1195.76 491.835C1195.76 492.92 1196.15 493.725 1196.92 494.285C1197.69 494.845 1199.02 495.44 1200.91 496.035L1202.34 496.49C1202.62 496.595 1203.04 496.735 1203.64 496.98C1204.86 497.435 1205.14 497.61 1206.09 498.135C1207.07 498.66 1207.38 499.045 1207.98 499.745C1208.85 500.62 1209.2 501.88 1209.2 503.42C1209.2 505.555 1208.43 507.27 1206.86 508.565C1205.28 509.825 1203.25 510.455 1200.73 510.455ZM1229.95 502.65H1215.29C1215.88 505.765 1218.3 507.585 1221.62 507.585C1223.93 507.585 1225.61 506.745 1226.66 505.03L1229.25 506.5C1227.54 509.125 1224.98 510.455 1221.55 510.455C1218.79 510.455 1216.51 509.58 1214.76 507.865C1213.05 506.115 1212.17 503.91 1212.17 501.25C1212.17 498.625 1213.01 496.42 1214.73 494.67C1216.44 492.92 1218.65 492.045 1221.34 492.045C1223.9 492.045 1226 492.955 1227.61 494.775C1229.25 496.56 1230.06 498.73 1230.06 501.285C1230.06 501.74 1230.02 502.195 1229.95 502.65ZM1221.34 494.915C1218.09 494.915 1215.81 496.91 1215.29 499.99H1226.98C1226.45 496.665 1224.14 494.915 1221.34 494.915ZM1241.75 510.455C1239.13 510.455 1236.92 509.58 1235.17 507.83C1233.42 506.045 1232.55 503.875 1232.55 501.25C1232.55 498.625 1233.42 496.455 1235.17 494.705C1236.92 492.92 1239.13 492.045 1241.75 492.045C1245.22 492.045 1248.12 493.83 1249.49 496.63L1246.93 498.1C1246.06 496.245 1244.1 495.02 1241.75 495.02C1240 495.02 1238.53 495.615 1237.34 496.805C1236.19 497.995 1235.59 499.465 1235.59 501.25C1235.59 503 1236.19 504.47 1237.34 505.66C1238.53 506.85 1240 507.445 1241.75 507.445C1244.1 507.445 1246.06 506.255 1247.04 504.4L1249.63 505.905C1248.12 508.67 1245.15 510.455 1241.75 510.455ZM1264.74 501.775V492.5H1267.79V510H1264.74V507.48C1263.52 509.475 1261.63 510.455 1259.07 510.455C1254.98 510.455 1252.28 507.69 1252.28 503.245V492.5H1255.33V503.07C1255.33 505.905 1256.97 507.55 1259.67 507.55C1262.71 507.55 1264.74 505.695 1264.74 501.775ZM1275.47 492.5V495.44C1276.48 493.27 1278.3 492.185 1280.93 492.185V495.37C1279.42 495.3 1278.16 495.685 1277.08 496.56C1275.99 497.435 1275.47 498.8 1275.47 500.725V510H1272.42V492.5H1275.47ZM1285.45 489.315C1284.29 489.315 1283.38 488.405 1283.38 487.285C1283.38 486.165 1284.29 485.22 1285.45 485.22C1286.57 485.22 1287.48 486.165 1287.48 487.285C1287.48 488.405 1286.57 489.315 1285.45 489.315ZM1286.95 510H1283.91V492.5H1286.95V510ZM1301.12 492.5V495.44H1296.46V504.925C1296.46 507.62 1298 507.41 1301.12 507.27V510C1295.8 510.7 1293.42 509.265 1293.42 504.925V495.44H1289.95V492.5H1293.42V488.51L1296.46 487.6V492.5H1301.12ZM1312.27 506.22L1317.31 492.5H1320.57L1313.43 511.085C1311.92 515.04 1309.16 517.245 1305.66 517V514.165C1307.79 514.34 1309.37 513.15 1310.38 510.595L1310.7 509.93L1303.07 492.5H1306.32L1312.27 506.22Z" fill="black"/>
<rect x="1068" y="602" width="375" height="168" rx="8" fill="#F8F8FF"/>
<path d="M1172.06 695.455C1168.35 695.455 1165.27 694.23 1162.85 691.78C1160.44 689.33 1159.25 686.32 1159.25 682.75C1159.25 679.18 1160.44 676.17 1162.85 673.72C1165.27 671.27 1168.35 670.045 1172.06 670.045C1176.54 670.045 1180.53 672.355 1182.63 675.995L1179.79 677.64C1178.39 674.945 1175.42 673.195 1172.06 673.195C1169.22 673.195 1166.91 674.105 1165.13 675.925C1163.34 677.745 1162.47 680.02 1162.47 682.75C1162.47 685.445 1163.34 687.72 1165.13 689.54C1166.91 691.36 1169.22 692.27 1172.06 692.27C1175.42 692.27 1178.39 690.52 1179.79 687.86L1182.63 689.47C1181.61 691.29 1180.14 692.76 1178.25 693.845C1176.36 694.93 1174.3 695.455 1172.06 695.455ZM1200.7 692.795C1198.92 694.58 1196.71 695.455 1194.16 695.455C1191.6 695.455 1189.4 694.58 1187.61 692.795C1185.83 691.01 1184.95 688.84 1184.95 686.25C1184.95 683.66 1185.83 681.49 1187.61 679.705C1189.4 677.92 1191.6 677.045 1194.16 677.045C1196.71 677.045 1198.92 677.92 1200.7 679.705C1202.49 681.49 1203.4 683.66 1203.4 686.25C1203.4 688.84 1202.49 691.01 1200.7 692.795ZM1194.16 692.48C1195.91 692.48 1197.38 691.885 1198.57 690.695C1199.76 689.505 1200.35 688.035 1200.35 686.25C1200.35 684.465 1199.76 682.995 1198.57 681.805C1197.38 680.615 1195.91 680.02 1194.16 680.02C1192.44 680.02 1190.97 680.615 1189.78 681.805C1188.59 682.995 1188 684.465 1188 686.25C1188 688.035 1188.59 689.505 1189.78 690.695C1190.97 691.885 1192.44 692.48 1194.16 692.48ZM1225.88 677.045C1229.8 677.045 1232.46 679.775 1232.46 684.115V695H1229.42V684.22C1229.42 681.525 1227.91 679.95 1225.57 679.95C1222.94 679.95 1221.26 681.665 1221.26 685.27V695H1218.22V684.22C1218.22 681.525 1216.78 679.95 1214.51 679.95C1211.95 679.95 1210.03 681.735 1210.03 685.27V695H1206.98V677.5H1210.03V679.845C1211.22 677.99 1212.97 677.045 1215.24 677.045C1217.59 677.045 1219.3 678.025 1220.39 680.02C1221.61 678.025 1223.43 677.045 1225.88 677.045ZM1246.35 677.045C1248.8 677.045 1250.9 677.955 1252.61 679.74C1254.33 681.525 1255.2 683.695 1255.2 686.25C1255.2 688.805 1254.33 691.01 1252.61 692.795C1250.9 694.58 1248.8 695.455 1246.35 695.455C1243.44 695.455 1241.24 694.3 1239.73 691.99V702H1236.69V677.5H1239.73V680.51C1241.24 678.2 1243.44 677.045 1246.35 677.045ZM1245.96 692.515C1247.71 692.515 1249.18 691.92 1250.37 690.73C1251.56 689.505 1252.16 688.035 1252.16 686.25C1252.16 684.465 1251.56 682.995 1250.37 681.805C1249.18 680.58 1247.71 679.985 1245.96 679.985C1244.18 679.985 1242.71 680.58 1241.52 681.805C1240.33 682.995 1239.73 684.465 1239.73 686.25C1239.73 688.035 1240.33 689.505 1241.52 690.73C1242.71 691.92 1244.18 692.515 1245.96 692.515ZM1261.88 695H1258.84V669.45H1261.88V695ZM1268.07 674.315C1266.91 674.315 1266 673.405 1266 672.285C1266 671.165 1266.91 670.22 1268.07 670.22C1269.19 670.22 1270.1 671.165 1270.1 672.285C1270.1 673.405 1269.19 674.315 1268.07 674.315ZM1269.57 695H1266.53V677.5H1269.57V695ZM1288.71 680.51V677.5H1291.75V695H1288.71V691.99C1287.2 694.3 1285 695.455 1282.09 695.455C1279.64 695.455 1277.54 694.58 1275.83 692.795C1274.11 691.01 1273.24 688.805 1273.24 686.25C1273.24 683.695 1274.11 681.525 1275.83 679.74C1277.54 677.955 1279.64 677.045 1282.09 677.045C1285 677.045 1287.2 678.2 1288.71 680.51ZM1282.48 692.515C1284.26 692.515 1285.73 691.92 1286.92 690.73C1288.11 689.505 1288.71 688.035 1288.71 686.25C1288.71 684.465 1288.11 682.995 1286.92 681.805C1285.73 680.58 1284.26 679.985 1282.48 679.985C1280.73 679.985 1279.26 680.58 1278.07 681.805C1276.88 682.995 1276.28 684.465 1276.28 686.25C1276.28 688.035 1276.88 689.505 1278.07 690.73C1279.26 691.92 1280.73 692.515 1282.48 692.515ZM1305.08 677.045C1309.17 677.045 1311.87 679.81 1311.87 684.255V695H1308.82V684.43C1308.82 681.595 1307.18 679.95 1304.48 679.95C1301.44 679.95 1299.41 681.805 1299.41 685.725V695H1296.36V677.5H1299.41V680.02C1300.63 678.025 1302.52 677.045 1305.08 677.045ZM1324.35 695.455C1321.72 695.455 1319.52 694.58 1317.77 692.83C1316.02 691.045 1315.14 688.875 1315.14 686.25C1315.14 683.625 1316.02 681.455 1317.77 679.705C1319.52 677.92 1321.72 677.045 1324.35 677.045C1327.81 677.045 1330.72 678.83 1332.08 681.63L1329.53 683.1C1328.65 681.245 1326.69 680.02 1324.35 680.02C1322.6 680.02 1321.13 680.615 1319.94 681.805C1318.78 682.995 1318.19 684.465 1318.19 686.25C1318.19 688 1318.78 689.47 1319.94 690.66C1321.13 691.85 1322.6 692.445 1324.35 692.445C1326.69 692.445 1328.65 691.255 1329.63 689.4L1332.22 690.905C1330.72 693.67 1327.74 695.455 1324.35 695.455ZM1351.79 687.65H1337.12C1337.72 690.765 1340.13 692.585 1343.46 692.585C1345.77 692.585 1347.45 691.745 1348.5 690.03L1351.09 691.5C1349.37 694.125 1346.82 695.455 1343.39 695.455C1340.62 695.455 1338.35 694.58 1336.6 692.865C1334.88 691.115 1334.01 688.91 1334.01 686.25C1334.01 683.625 1334.85 681.42 1336.56 679.67C1338.28 677.92 1340.48 677.045 1343.18 677.045C1345.73 677.045 1347.83 677.955 1349.44 679.775C1351.09 681.56 1351.89 683.73 1351.89 686.285C1351.89 686.74 1351.86 687.195 1351.79 687.65ZM1343.18 679.915C1339.92 679.915 1337.65 681.91 1337.12 684.99H1348.81C1348.29 681.665 1345.98 679.915 1343.18 679.915Z" fill="black"/>
<rect x="53" y="232" width="375" height="79" rx="8" fill="#F8F8FF"/>
<rect x="53" y="505" width="375" height="79" rx="8" fill="#F8F8FF"/>
<rect x="53" y="323" width="375" height="79" rx="8" fill="#F8F8FF"/>
<rect x="53" y="596" width="375" height="79" rx="8" fill="#F8F8FF"/>
<rect x="53" y="414" width="375" height="79" rx="8" fill="#F8F8FF"/>
<rect x="53" y="687" width="375" height="79" rx="8" fill="#F8F8FF"/>
<path d="M156.472 259.4V261.864H147.792V268.22H156.108V270.684H147.792V279H145.188V259.4H156.472ZM161.809 265V267.352C162.621 265.616 164.077 264.748 166.177 264.748V267.296C164.973 267.24 163.965 267.548 163.097 268.248C162.229 268.948 161.809 270.04 161.809 271.58V279H159.373V265H161.809ZM179.611 277.236C178.183 278.664 176.419 279.364 174.375 279.364C172.331 279.364 170.567 278.664 169.139 277.236C167.711 275.808 167.011 274.072 167.011 272C167.011 269.928 167.711 268.192 169.139 266.764C170.567 265.336 172.331 264.636 174.375 264.636C176.419 264.636 178.183 265.336 179.611 266.764C181.039 268.192 181.767 269.928 181.767 272C181.767 274.072 181.039 275.808 179.611 277.236ZM174.375 276.984C175.775 276.984 176.951 276.508 177.903 275.556C178.855 274.604 179.331 273.428 179.331 272C179.331 270.572 178.855 269.396 177.903 268.444C176.951 267.492 175.775 267.016 174.375 267.016C173.003 267.016 171.827 267.492 170.875 268.444C169.923 269.396 169.447 270.572 169.447 272C169.447 273.428 169.923 274.604 170.875 275.556C171.827 276.508 173.003 276.984 174.375 276.984ZM191.611 264.636C194.887 264.636 197.043 266.848 197.043 270.404V279H194.607V270.544C194.607 268.276 193.291 266.96 191.135 266.96C188.699 266.96 187.075 268.444 187.075 271.58V279H184.639V265H187.075V267.016C188.055 265.42 189.567 264.636 191.611 264.636ZM208.06 265V267.352H204.336V274.94C204.336 277.096 205.568 276.928 208.06 276.816V279C203.804 279.56 201.9 278.412 201.9 274.94V267.352H199.128V265H201.9V261.808L204.336 261.08V265H208.06ZM223.673 273.12H211.941C212.417 275.612 214.349 277.068 217.009 277.068C218.857 277.068 220.201 276.396 221.041 275.024L223.113 276.2C221.741 278.3 219.697 279.364 216.953 279.364C214.741 279.364 212.921 278.664 211.521 277.292C210.149 275.892 209.449 274.128 209.449 272C209.449 269.9 210.121 268.136 211.493 266.736C212.865 265.336 214.629 264.636 216.785 264.636C218.829 264.636 220.509 265.364 221.797 266.82C223.113 268.248 223.757 269.984 223.757 272.028C223.757 272.392 223.729 272.756 223.673 273.12ZM216.785 266.932C214.181 266.932 212.361 268.528 211.941 270.992H221.293C220.873 268.332 219.025 266.932 216.785 266.932ZM233.529 264.636C236.805 264.636 238.961 266.848 238.961 270.404V279H236.525V270.544C236.525 268.276 235.209 266.96 233.053 266.96C230.617 266.96 228.993 268.444 228.993 271.58V279H226.557V265H228.993V267.016C229.973 265.42 231.485 264.636 233.529 264.636ZM253.954 267.408V259.4H256.39V279H253.954V276.592C252.75 278.44 250.986 279.364 248.662 279.364C246.702 279.364 245.022 278.664 243.65 277.236C242.278 275.808 241.578 274.044 241.578 272C241.578 269.956 242.278 268.22 243.65 266.792C245.022 265.364 246.702 264.636 248.662 264.636C250.986 264.636 252.75 265.56 253.954 267.408ZM248.97 277.012C250.398 277.012 251.574 276.536 252.526 275.584C253.478 274.604 253.954 273.428 253.954 272C253.954 270.572 253.478 269.396 252.526 268.444C251.574 267.464 250.398 266.988 248.97 266.988C247.57 266.988 246.394 267.464 245.442 268.444C244.49 269.396 244.014 270.572 244.014 272C244.014 273.428 244.49 274.604 245.442 275.584C246.394 276.536 247.57 277.012 248.97 277.012ZM273.66 279.364C269.992 279.364 267.276 277.544 266.24 274.548L268.48 273.26C269.236 275.64 271 276.816 273.716 276.816C276.404 276.816 277.86 275.612 277.86 273.792C277.86 272.868 277.496 272.168 276.796 271.692C276.096 271.216 274.892 270.74 273.24 270.208L271.364 269.592C270.944 269.424 270.384 269.172 269.74 268.864C269.096 268.528 268.62 268.192 268.312 267.856C267.668 267.156 267.08 266.008 267.08 264.58C267.08 262.872 267.668 261.528 268.872 260.548C270.076 259.54 271.532 259.036 273.24 259.036C276.348 259.036 278.728 260.744 279.876 263.32L277.692 264.58C276.852 262.564 275.368 261.556 273.24 261.556C271.112 261.556 269.684 262.676 269.684 264.468C269.684 265.336 269.992 265.98 270.608 266.428C271.224 266.876 272.288 267.352 273.8 267.828L274.948 268.192C275.172 268.276 275.508 268.388 275.984 268.584C276.964 268.948 277.188 269.088 277.944 269.508C278.728 269.928 278.98 270.236 279.456 270.796C280.156 271.496 280.436 272.504 280.436 273.736C280.436 275.444 279.82 276.816 278.56 277.852C277.3 278.86 275.676 279.364 273.66 279.364ZM290.474 265V267.352H286.75V274.94C286.75 277.096 287.982 276.928 290.474 276.816V279C286.218 279.56 284.314 278.412 284.314 274.94V267.352H281.542V265H284.314V261.808L286.75 261.08V265H290.474ZM304.239 267.408V265H306.675V279H304.239V276.592C303.035 278.44 301.271 279.364 298.947 279.364C296.987 279.364 295.307 278.664 293.935 277.236C292.563 275.808 291.863 274.044 291.863 272C291.863 269.956 292.563 268.22 293.935 266.792C295.307 265.364 296.987 264.636 298.947 264.636C301.271 264.636 303.035 265.56 304.239 267.408ZM299.255 277.012C300.683 277.012 301.859 276.536 302.811 275.584C303.763 274.604 304.239 273.428 304.239 272C304.239 270.572 303.763 269.396 302.811 268.444C301.859 267.464 300.683 266.988 299.255 266.988C297.855 266.988 296.679 267.464 295.727 268.444C294.775 269.396 294.299 270.572 294.299 272C294.299 273.428 294.775 274.604 295.727 275.584C296.679 276.536 297.855 277.012 299.255 277.012ZM316.946 279.364C314.846 279.364 313.082 278.664 311.682 277.264C310.282 275.836 309.582 274.1 309.582 272C309.582 269.9 310.282 268.164 311.682 266.764C313.082 265.336 314.846 264.636 316.946 264.636C319.718 264.636 322.042 266.064 323.134 268.304L321.09 269.48C320.39 267.996 318.822 267.016 316.946 267.016C315.546 267.016 314.37 267.492 313.418 268.444C312.494 269.396 312.018 270.572 312.018 272C312.018 273.4 312.494 274.576 313.418 275.528C314.37 276.48 315.546 276.956 316.946 276.956C318.822 276.956 320.39 276.004 321.174 274.52L323.246 275.724C322.042 277.936 319.662 279.364 316.946 279.364ZM330.579 271.776L337.495 279H334.471L328.087 272.364V279H325.651V259.4H328.087V271.188L334.135 265H337.271L330.579 271.776Z" fill="black"/>
<path d="M206.04 371H203.268L201.672 366.604H192.852L191.256 371H188.484L195.792 351.4H198.732L206.04 371ZM197.248 354.508L193.748 364.168H200.776L197.248 354.508ZM208.352 371V351.4H210.956V371H208.352ZM228.489 371.364C224.821 371.364 222.105 369.544 221.069 366.548L223.309 365.26C224.065 367.64 225.829 368.816 228.545 368.816C231.233 368.816 232.689 367.612 232.689 365.792C232.689 364.868 232.325 364.168 231.625 363.692C230.925 363.216 229.721 362.74 228.069 362.208L226.193 361.592C225.773 361.424 225.213 361.172 224.569 360.864C223.925 360.528 223.449 360.192 223.141 359.856C222.497 359.156 221.909 358.008 221.909 356.58C221.909 354.872 222.497 353.528 223.701 352.548C224.905 351.54 226.361 351.036 228.069 351.036C231.177 351.036 233.557 352.744 234.705 355.32L232.521 356.58C231.681 354.564 230.197 353.556 228.069 353.556C225.941 353.556 224.513 354.676 224.513 356.468C224.513 357.336 224.821 357.98 225.437 358.428C226.053 358.876 227.117 359.352 228.629 359.828L229.777 360.192C230.001 360.276 230.337 360.388 230.813 360.584C231.793 360.948 232.017 361.088 232.773 361.508C233.557 361.928 233.809 362.236 234.285 362.796C234.985 363.496 235.265 364.504 235.265 365.736C235.265 367.444 234.649 368.816 233.389 369.852C232.129 370.86 230.505 371.364 228.489 371.364ZM245.302 357V359.352H241.578V366.94C241.578 369.096 242.81 368.928 245.302 368.816V371C241.046 371.56 239.142 370.412 239.142 366.94V359.352H236.37V357H239.142V353.808L241.578 353.08V357H245.302ZM259.067 359.408V357H261.503V371H259.067V368.592C257.863 370.44 256.099 371.364 253.775 371.364C251.815 371.364 250.135 370.664 248.763 369.236C247.391 367.808 246.691 366.044 246.691 364C246.691 361.956 247.391 360.22 248.763 358.792C250.135 357.364 251.815 356.636 253.775 356.636C256.099 356.636 257.863 357.56 259.067 359.408ZM254.083 369.012C255.511 369.012 256.687 368.536 257.639 367.584C258.591 366.604 259.067 365.428 259.067 364C259.067 362.572 258.591 361.396 257.639 360.444C256.687 359.464 255.511 358.988 254.083 358.988C252.683 358.988 251.507 359.464 250.555 360.444C249.603 361.396 249.127 362.572 249.127 364C249.127 365.428 249.603 366.604 250.555 367.584C251.507 368.536 252.683 369.012 254.083 369.012ZM271.774 371.364C269.674 371.364 267.91 370.664 266.51 369.264C265.11 367.836 264.41 366.1 264.41 364C264.41 361.9 265.11 360.164 266.51 358.764C267.91 357.336 269.674 356.636 271.774 356.636C274.546 356.636 276.87 358.064 277.962 360.304L275.918 361.48C275.218 359.996 273.65 359.016 271.774 359.016C270.374 359.016 269.198 359.492 268.246 360.444C267.322 361.396 266.846 362.572 266.846 364C266.846 365.4 267.322 366.576 268.246 367.528C269.198 368.48 270.374 368.956 271.774 368.956C273.65 368.956 275.218 368.004 276.002 366.52L278.074 367.724C276.87 369.936 274.49 371.364 271.774 371.364ZM285.407 363.776L292.323 371H289.299L282.915 364.364V371H280.479V351.4H282.915V363.188L288.963 357H292.099L285.407 363.776Z" fill="black"/>
<path d="M121.65 441.4H124.59V461H122.014V445.684L115.602 456.352H115.266L108.854 445.712V461H106.25V441.4H109.19L115.434 451.76L121.65 441.4ZM129.762 444.452C128.838 444.452 128.11 443.724 128.11 442.828C128.11 441.932 128.838 441.176 129.762 441.176C130.658 441.176 131.386 441.932 131.386 442.828C131.386 443.724 130.658 444.452 129.762 444.452ZM130.966 461H128.53V447H130.966V461ZM141.262 461.364C139.162 461.364 137.398 460.664 135.998 459.264C134.598 457.836 133.898 456.1 133.898 454C133.898 451.9 134.598 450.164 135.998 448.764C137.398 447.336 139.162 446.636 141.262 446.636C144.034 446.636 146.358 448.064 147.45 450.304L145.406 451.48C144.706 449.996 143.138 449.016 141.262 449.016C139.862 449.016 138.686 449.492 137.734 450.444C136.81 451.396 136.334 452.572 136.334 454C136.334 455.4 136.81 456.576 137.734 457.528C138.686 458.48 139.862 458.956 141.262 458.956C143.138 458.956 144.706 458.004 145.49 456.52L147.562 457.724C146.358 459.936 143.978 461.364 141.262 461.364ZM152.43 447V449.352C153.242 447.616 154.698 446.748 156.798 446.748V449.296C155.594 449.24 154.586 449.548 153.718 450.248C152.85 450.948 152.43 452.04 152.43 453.58V461H149.994V447H152.43ZM170.232 459.236C168.804 460.664 167.04 461.364 164.996 461.364C162.952 461.364 161.188 460.664 159.76 459.236C158.332 457.808 157.632 456.072 157.632 454C157.632 451.928 158.332 450.192 159.76 448.764C161.188 447.336 162.952 446.636 164.996 446.636C167.04 446.636 168.804 447.336 170.232 448.764C171.66 450.192 172.388 451.928 172.388 454C172.388 456.072 171.66 457.808 170.232 459.236ZM164.996 458.984C166.396 458.984 167.572 458.508 168.524 457.556C169.476 456.604 169.952 455.428 169.952 454C169.952 452.572 169.476 451.396 168.524 450.444C167.572 449.492 166.396 449.016 164.996 449.016C163.624 449.016 162.448 449.492 161.496 450.444C160.544 451.396 160.068 452.572 160.068 454C160.068 455.428 160.544 456.604 161.496 457.556C162.448 458.508 163.624 458.984 164.996 458.984ZM177.059 450.78C177.059 451.872 178.291 452.46 179.831 452.88C182.015 453.356 184.927 454.168 184.899 457.164C184.899 458.424 184.395 459.46 183.415 460.216C182.435 460.972 181.203 461.364 179.663 461.364C176.947 461.364 174.903 460.076 174.091 458.088L176.191 456.884C176.639 458.228 177.955 459.068 179.663 459.068C181.259 459.068 182.435 458.48 182.435 457.164C182.435 456.072 181.203 455.456 179.663 455.092C177.451 454.504 174.595 453.776 174.595 450.808C174.595 449.604 175.071 448.596 175.995 447.812C176.947 447.028 178.123 446.636 179.551 446.636C181.819 446.636 183.695 447.728 184.591 449.548L182.547 450.696C182.043 449.492 181.035 448.904 179.551 448.904C178.179 448.904 177.059 449.576 177.059 450.78ZM200.841 455.12H189.109C189.585 457.612 191.517 459.068 194.177 459.068C196.025 459.068 197.369 458.396 198.209 457.024L200.281 458.2C198.909 460.3 196.865 461.364 194.121 461.364C191.909 461.364 190.089 460.664 188.689 459.292C187.317 457.892 186.617 456.128 186.617 454C186.617 451.9 187.289 450.136 188.661 448.736C190.033 447.336 191.797 446.636 193.953 446.636C195.997 446.636 197.677 447.364 198.965 448.82C200.281 450.248 200.925 451.984 200.925 454.028C200.925 454.392 200.897 454.756 200.841 455.12ZM193.953 448.932C191.349 448.932 189.529 450.528 189.109 452.992H198.461C198.041 450.332 196.193 448.932 193.953 448.932ZM206.161 447V449.352C206.973 447.616 208.429 446.748 210.529 446.748V449.296C209.325 449.24 208.317 449.548 207.449 450.248C206.581 450.948 206.161 452.04 206.161 453.58V461H203.725V447H206.161ZM218.316 458.396L222.712 447H225.344L219.744 461H216.888L211.288 447H213.92L218.316 458.396ZM228.637 444.452C227.713 444.452 226.985 443.724 226.985 442.828C226.985 441.932 227.713 441.176 228.637 441.176C229.533 441.176 230.261 441.932 230.261 442.828C230.261 443.724 229.533 444.452 228.637 444.452ZM229.841 461H227.405V447H229.841V461ZM240.137 461.364C238.037 461.364 236.273 460.664 234.873 459.264C233.473 457.836 232.773 456.1 232.773 454C232.773 451.9 233.473 450.164 234.873 448.764C236.273 447.336 238.037 446.636 240.137 446.636C242.909 446.636 245.233 448.064 246.325 450.304L244.281 451.48C243.581 449.996 242.013 449.016 240.137 449.016C238.737 449.016 237.561 449.492 236.609 450.444C235.685 451.396 235.209 452.572 235.209 454C235.209 455.4 235.685 456.576 236.609 457.528C237.561 458.48 238.737 458.956 240.137 458.956C242.013 458.956 243.581 458.004 244.365 456.52L246.437 457.724C245.233 459.936 242.853 461.364 240.137 461.364ZM262.091 455.12H250.359C250.835 457.612 252.767 459.068 255.427 459.068C257.275 459.068 258.619 458.396 259.459 457.024L261.531 458.2C260.159 460.3 258.115 461.364 255.371 461.364C253.159 461.364 251.339 460.664 249.939 459.292C248.567 457.892 247.867 456.128 247.867 454C247.867 451.9 248.539 450.136 249.911 448.736C251.283 447.336 253.047 446.636 255.203 446.636C257.247 446.636 258.927 447.364 260.215 448.82C261.531 450.248 262.175 451.984 262.175 454.028C262.175 454.392 262.147 454.756 262.091 455.12ZM255.203 448.932C252.599 448.932 250.779 450.528 250.359 452.992H259.711C259.291 450.332 257.443 448.932 255.203 448.932ZM266.528 450.78C266.528 451.872 267.76 452.46 269.3 452.88C271.484 453.356 274.396 454.168 274.368 457.164C274.368 458.424 273.864 459.46 272.884 460.216C271.904 460.972 270.672 461.364 269.132 461.364C266.416 461.364 264.372 460.076 263.56 458.088L265.66 456.884C266.108 458.228 267.424 459.068 269.132 459.068C270.728 459.068 271.904 458.48 271.904 457.164C271.904 456.072 270.672 455.456 269.132 455.092C266.92 454.504 264.064 453.776 264.064 450.808C264.064 449.604 264.54 448.596 265.464 447.812C266.416 447.028 267.592 446.636 269.02 446.636C271.288 446.636 273.164 447.728 274.06 449.548L272.016 450.696C271.512 449.492 270.504 448.904 269.02 448.904C267.648 448.904 266.528 449.576 266.528 450.78ZM290.832 461.364C287.164 461.364 284.448 459.544 283.412 456.548L285.652 455.26C286.408 457.64 288.172 458.816 290.888 458.816C293.576 458.816 295.032 457.612 295.032 455.792C295.032 454.868 294.668 454.168 293.968 453.692C293.268 453.216 292.064 452.74 290.412 452.208L288.536 451.592C288.116 451.424 287.556 451.172 286.912 450.864C286.268 450.528 285.792 450.192 285.484 449.856C284.84 449.156 284.252 448.008 284.252 446.58C284.252 444.872 284.84 443.528 286.044 442.548C287.248 441.54 288.704 441.036 290.412 441.036C293.52 441.036 295.9 442.744 297.048 445.32L294.864 446.58C294.024 444.564 292.54 443.556 290.412 443.556C288.284 443.556 286.856 444.676 286.856 446.468C286.856 447.336 287.164 447.98 287.78 448.428C288.396 448.876 289.46 449.352 290.972 449.828L292.12 450.192C292.344 450.276 292.68 450.388 293.156 450.584C294.136 450.948 294.36 451.088 295.116 451.508C295.9 451.928 296.152 452.236 296.628 452.796C297.328 453.496 297.608 454.504 297.608 455.736C297.608 457.444 296.992 458.816 295.732 459.852C294.472 460.86 292.848 461.364 290.832 461.364ZM307.646 447V449.352H303.922V456.94C303.922 459.096 305.154 458.928 307.646 458.816V461C303.39 461.56 301.486 460.412 301.486 456.94V449.352H298.714V447H301.486V443.808L303.922 443.08V447H307.646ZM321.411 449.408V447H323.847V461H321.411V458.592C320.207 460.44 318.443 461.364 316.119 461.364C314.159 461.364 312.479 460.664 311.107 459.236C309.735 457.808 309.035 456.044 309.035 454C309.035 451.956 309.735 450.22 311.107 448.792C312.479 447.364 314.159 446.636 316.119 446.636C318.443 446.636 320.207 447.56 321.411 449.408ZM316.427 459.012C317.855 459.012 319.031 458.536 319.983 457.584C320.935 456.604 321.411 455.428 321.411 454C321.411 452.572 320.935 451.396 319.983 450.444C319.031 449.464 317.855 448.988 316.427 448.988C315.027 448.988 313.851 449.464 312.899 450.444C311.947 451.396 311.471 452.572 311.471 454C311.471 455.428 311.947 456.604 312.899 457.584C313.851 458.536 315.027 459.012 316.427 459.012ZM334.117 461.364C332.017 461.364 330.253 460.664 328.853 459.264C327.453 457.836 326.753 456.1 326.753 454C326.753 451.9 327.453 450.164 328.853 448.764C330.253 447.336 332.017 446.636 334.117 446.636C336.889 446.636 339.213 448.064 340.305 450.304L338.261 451.48C337.561 449.996 335.993 449.016 334.117 449.016C332.717 449.016 331.541 449.492 330.589 450.444C329.665 451.396 329.189 452.572 329.189 454C329.189 455.4 329.665 456.576 330.589 457.528C331.541 458.48 332.717 458.956 334.117 458.956C335.993 458.956 337.561 458.004 338.345 456.52L340.417 457.724C339.213 459.936 336.833 461.364 334.117 461.364ZM347.751 453.776L354.667 461H351.643L345.259 454.364V461H342.823V441.4H345.259V453.188L351.307 447H354.443L347.751 453.776ZM375.748 461H363.092V458.872L370.008 451.816C371.856 449.968 372.78 448.372 372.78 447.056C372.78 444.844 371.24 443.556 369.308 443.556C367.46 443.556 366.116 444.424 365.276 446.188L363.092 444.9C364.324 442.352 366.62 441.036 369.28 441.036C370.932 441.036 372.36 441.568 373.564 442.66C374.768 443.752 375.384 445.208 375.384 447.028C375.384 449.016 374.208 451.172 371.884 453.496L366.872 458.48H375.748V461Z" fill="black"/>
<path d="M124.043 533.4H126.983V553H124.407V537.684L117.995 548.352H117.659L111.247 537.712V553H108.643V533.4H111.583L117.827 543.76L124.043 533.4ZM132.154 536.452C131.23 536.452 130.502 535.724 130.502 534.828C130.502 533.932 131.23 533.176 132.154 533.176C133.05 533.176 133.778 533.932 133.778 534.828C133.778 535.724 133.05 536.452 132.154 536.452ZM133.358 553H130.922V539H133.358V553ZM143.655 553.364C141.555 553.364 139.791 552.664 138.391 551.264C136.991 549.836 136.291 548.1 136.291 546C136.291 543.9 136.991 542.164 138.391 540.764C139.791 539.336 141.555 538.636 143.655 538.636C146.427 538.636 148.751 540.064 149.843 542.304L147.799 543.48C147.099 541.996 145.531 541.016 143.655 541.016C142.255 541.016 141.079 541.492 140.127 542.444C139.203 543.396 138.727 544.572 138.727 546C138.727 547.4 139.203 548.576 140.127 549.528C141.079 550.48 142.255 550.956 143.655 550.956C145.531 550.956 147.099 550.004 147.883 548.52L149.955 549.724C148.751 551.936 146.371 553.364 143.655 553.364ZM154.823 539V541.352C155.635 539.616 157.091 538.748 159.191 538.748V541.296C157.987 541.24 156.979 541.548 156.111 542.248C155.243 542.948 154.823 544.04 154.823 545.58V553H152.387V539H154.823ZM172.625 551.236C171.197 552.664 169.433 553.364 167.389 553.364C165.345 553.364 163.581 552.664 162.153 551.236C160.725 549.808 160.025 548.072 160.025 546C160.025 543.928 160.725 542.192 162.153 540.764C163.581 539.336 165.345 538.636 167.389 538.636C169.433 538.636 171.197 539.336 172.625 540.764C174.053 542.192 174.781 543.928 174.781 546C174.781 548.072 174.053 549.808 172.625 551.236ZM167.389 550.984C168.789 550.984 169.965 550.508 170.917 549.556C171.869 548.604 172.345 547.428 172.345 546C172.345 544.572 171.869 543.396 170.917 542.444C169.965 541.492 168.789 541.016 167.389 541.016C166.017 541.016 164.841 541.492 163.889 542.444C162.937 543.396 162.461 544.572 162.461 546C162.461 547.428 162.937 548.604 163.889 549.556C164.841 550.508 166.017 550.984 167.389 550.984ZM179.452 542.78C179.452 543.872 180.684 544.46 182.224 544.88C184.408 545.356 187.32 546.168 187.292 549.164C187.292 550.424 186.788 551.46 185.808 552.216C184.828 552.972 183.596 553.364 182.056 553.364C179.34 553.364 177.296 552.076 176.484 550.088L178.584 548.884C179.032 550.228 180.348 551.068 182.056 551.068C183.652 551.068 184.828 550.48 184.828 549.164C184.828 548.072 183.596 547.456 182.056 547.092C179.844 546.504 176.988 545.776 176.988 542.808C176.988 541.604 177.464 540.596 178.388 539.812C179.34 539.028 180.516 538.636 181.944 538.636C184.212 538.636 186.088 539.728 186.984 541.548L184.94 542.696C184.436 541.492 183.428 540.904 181.944 540.904C180.572 540.904 179.452 541.576 179.452 542.78ZM203.233 547.12H191.501C191.977 549.612 193.909 551.068 196.569 551.068C198.417 551.068 199.761 550.396 200.601 549.024L202.673 550.2C201.301 552.3 199.257 553.364 196.513 553.364C194.301 553.364 192.481 552.664 191.081 551.292C189.709 549.892 189.009 548.128 189.009 546C189.009 543.9 189.681 542.136 191.053 540.736C192.425 539.336 194.189 538.636 196.345 538.636C198.389 538.636 200.069 539.364 201.357 540.82C202.673 542.248 203.317 543.984 203.317 546.028C203.317 546.392 203.289 546.756 203.233 547.12ZM196.345 540.932C193.741 540.932 191.921 542.528 191.501 544.992H200.853C200.433 542.332 198.585 540.932 196.345 540.932ZM208.554 539V541.352C209.366 539.616 210.822 538.748 212.922 538.748V541.296C211.718 541.24 210.71 541.548 209.842 542.248C208.974 542.948 208.554 544.04 208.554 545.58V553H206.118V539H208.554ZM220.709 550.396L225.105 539H227.737L222.137 553H219.281L213.681 539H216.313L220.709 550.396ZM231.029 536.452C230.105 536.452 229.377 535.724 229.377 534.828C229.377 533.932 230.105 533.176 231.029 533.176C231.925 533.176 232.653 533.932 232.653 534.828C232.653 535.724 231.925 536.452 231.029 536.452ZM232.233 553H229.797V539H232.233V553ZM242.53 553.364C240.43 553.364 238.666 552.664 237.266 551.264C235.866 549.836 235.166 548.1 235.166 546C235.166 543.9 235.866 542.164 237.266 540.764C238.666 539.336 240.43 538.636 242.53 538.636C245.302 538.636 247.626 540.064 248.718 542.304L246.674 543.48C245.974 541.996 244.406 541.016 242.53 541.016C241.13 541.016 239.954 541.492 239.002 542.444C238.078 543.396 237.602 544.572 237.602 546C237.602 547.4 238.078 548.576 239.002 549.528C239.954 550.48 241.13 550.956 242.53 550.956C244.406 550.956 245.974 550.004 246.758 548.52L248.83 549.724C247.626 551.936 245.246 553.364 242.53 553.364ZM264.483 547.12H252.751C253.227 549.612 255.159 551.068 257.819 551.068C259.667 551.068 261.011 550.396 261.851 549.024L263.923 550.2C262.551 552.3 260.507 553.364 257.763 553.364C255.551 553.364 253.731 552.664 252.331 551.292C250.959 549.892 250.259 548.128 250.259 546C250.259 543.9 250.931 542.136 252.303 540.736C253.675 539.336 255.439 538.636 257.595 538.636C259.639 538.636 261.319 539.364 262.607 540.82C263.923 542.248 264.567 543.984 264.567 546.028C264.567 546.392 264.539 546.756 264.483 547.12ZM257.595 540.932C254.991 540.932 253.171 542.528 252.751 544.992H262.103C261.683 542.332 259.835 540.932 257.595 540.932ZM268.921 542.78C268.921 543.872 270.153 544.46 271.693 544.88C273.877 545.356 276.789 546.168 276.761 549.164C276.761 550.424 276.257 551.46 275.277 552.216C274.297 552.972 273.065 553.364 271.525 553.364C268.809 553.364 266.765 552.076 265.953 550.088L268.053 548.884C268.501 550.228 269.817 551.068 271.525 551.068C273.121 551.068 274.297 550.48 274.297 549.164C274.297 548.072 273.065 547.456 271.525 547.092C269.313 546.504 266.457 545.776 266.457 542.808C266.457 541.604 266.933 540.596 267.857 539.812C268.809 539.028 269.985 538.636 271.413 538.636C273.681 538.636 275.557 539.728 276.453 541.548L274.409 542.696C273.905 541.492 272.897 540.904 271.413 540.904C270.041 540.904 268.921 541.576 268.921 542.78ZM293.225 553.364C289.557 553.364 286.841 551.544 285.805 548.548L288.045 547.26C288.801 549.64 290.565 550.816 293.281 550.816C295.969 550.816 297.425 549.612 297.425 547.792C297.425 546.868 297.061 546.168 296.361 545.692C295.661 545.216 294.457 544.74 292.805 544.208L290.929 543.592C290.509 543.424 289.949 543.172 289.305 542.864C288.661 542.528 288.185 542.192 287.877 541.856C287.233 541.156 286.645 540.008 286.645 538.58C286.645 536.872 287.233 535.528 288.437 534.548C289.641 533.54 291.097 533.036 292.805 533.036C295.913 533.036 298.293 534.744 299.441 537.32L297.257 538.58C296.417 536.564 294.933 535.556 292.805 535.556C290.677 535.556 289.249 536.676 289.249 538.468C289.249 539.336 289.557 539.98 290.173 540.428C290.789 540.876 291.853 541.352 293.365 541.828L294.513 542.192C294.737 542.276 295.073 542.388 295.549 542.584C296.529 542.948 296.753 543.088 297.509 543.508C298.293 543.928 298.545 544.236 299.021 544.796C299.721 545.496 300.001 546.504 300.001 547.736C300.001 549.444 299.385 550.816 298.125 551.852C296.865 552.86 295.241 553.364 293.225 553.364ZM310.038 539V541.352H306.314V548.94C306.314 551.096 307.546 550.928 310.038 550.816V553C305.782 553.56 303.878 552.412 303.878 548.94V541.352H301.106V539H303.878V535.808L306.314 535.08V539H310.038ZM323.803 541.408V539H326.239V553H323.803V550.592C322.599 552.44 320.835 553.364 318.511 553.364C316.551 553.364 314.871 552.664 313.499 551.236C312.127 549.808 311.427 548.044 311.427 546C311.427 543.956 312.127 542.22 313.499 540.792C314.871 539.364 316.551 538.636 318.511 538.636C320.835 538.636 322.599 539.56 323.803 541.408ZM318.819 551.012C320.247 551.012 321.423 550.536 322.375 549.584C323.327 548.604 323.803 547.428 323.803 546C323.803 544.572 323.327 543.396 322.375 542.444C321.423 541.464 320.247 540.988 318.819 540.988C317.419 540.988 316.243 541.464 315.291 542.444C314.339 543.396 313.863 544.572 313.863 546C313.863 547.428 314.339 548.604 315.291 549.584C316.243 550.536 317.419 551.012 318.819 551.012ZM336.51 553.364C334.41 553.364 332.646 552.664 331.246 551.264C329.846 549.836 329.146 548.1 329.146 546C329.146 543.9 329.846 542.164 331.246 540.764C332.646 539.336 334.41 538.636 336.51 538.636C339.282 538.636 341.606 540.064 342.698 542.304L340.654 543.48C339.954 541.996 338.386 541.016 336.51 541.016C335.11 541.016 333.934 541.492 332.982 542.444C332.058 543.396 331.582 544.572 331.582 546C331.582 547.4 332.058 548.576 332.982 549.528C333.934 550.48 335.11 550.956 336.51 550.956C338.386 550.956 339.954 550.004 340.738 548.52L342.81 549.724C341.606 551.936 339.226 553.364 336.51 553.364ZM350.143 545.776L357.059 553H354.035L347.651 546.364V553H345.215V533.4H347.651V545.188L353.699 539H356.835L350.143 545.776ZM364.869 535.192L370.021 533.4H372.261V553H369.685V536.2L365.513 537.432L364.869 535.192Z" fill="black"/>
<path d="M141.796 638.016V623.4H144.4V643H142.3L132.22 628.356V643H129.616V623.4H131.716L141.796 638.016ZM161.78 637.12H150.048C150.524 639.612 152.456 641.068 155.116 641.068C156.964 641.068 158.308 640.396 159.148 639.024L161.22 640.2C159.848 642.3 157.804 643.364 155.06 643.364C152.848 643.364 151.028 642.664 149.628 641.292C148.256 639.892 147.556 638.128 147.556 636C147.556 633.9 148.228 632.136 149.6 630.736C150.972 629.336 152.736 628.636 154.892 628.636C156.936 628.636 158.616 629.364 159.904 630.82C161.22 632.248 161.864 633.984 161.864 636.028C161.864 636.392 161.836 636.756 161.78 637.12ZM154.892 630.932C152.288 630.932 150.468 632.528 150.048 634.992H159.4C158.98 632.332 157.132 630.932 154.892 630.932ZM171.87 629V631.352H168.146V638.94C168.146 641.096 169.378 640.928 171.87 640.816V643C167.614 643.56 165.71 642.412 165.71 638.94V631.352H162.938V629H165.71V625.808L168.146 625.08V629H171.87ZM188.248 639.668L191.328 629H193.876L189.536 643H187.044L183.768 632.64L180.492 643H178L173.66 629H176.208L179.288 639.64L182.592 629H184.944L188.248 639.668ZM207.652 641.236C206.224 642.664 204.46 643.364 202.416 643.364C200.372 643.364 198.608 642.664 197.18 641.236C195.752 639.808 195.052 638.072 195.052 636C195.052 633.928 195.752 632.192 197.18 630.764C198.608 629.336 200.372 628.636 202.416 628.636C204.46 628.636 206.224 629.336 207.652 630.764C209.08 632.192 209.808 633.928 209.808 636C209.808 638.072 209.08 639.808 207.652 641.236ZM202.416 640.984C203.816 640.984 204.992 640.508 205.944 639.556C206.896 638.604 207.372 637.428 207.372 636C207.372 634.572 206.896 633.396 205.944 632.444C204.992 631.492 203.816 631.016 202.416 631.016C201.044 631.016 199.868 631.492 198.916 632.444C197.964 633.396 197.488 634.572 197.488 636C197.488 637.428 197.964 638.604 198.916 639.556C199.868 640.508 201.044 640.984 202.416 640.984ZM215.116 629V631.352C215.928 629.616 217.384 628.748 219.484 628.748V631.296C218.28 631.24 217.272 631.548 216.404 632.248C215.536 632.948 215.116 634.04 215.116 635.58V643H212.68V629H215.116ZM226.796 635.776L233.712 643H230.688L224.304 636.364V643H221.868V623.4H224.304V635.188L230.352 629H233.488L226.796 635.776ZM237.209 626.452C236.285 626.452 235.557 625.724 235.557 624.828C235.557 623.932 236.285 623.176 237.209 623.176C238.105 623.176 238.833 623.932 238.833 624.828C238.833 625.724 238.105 626.452 237.209 626.452ZM238.413 643H235.977V629H238.413V643ZM249.101 628.636C252.377 628.636 254.533 630.848 254.533 634.404V643H252.097V634.544C252.097 632.276 250.781 630.96 248.625 630.96C246.189 630.96 244.565 632.444 244.565 635.58V643H242.129V629H244.565V631.016C245.545 629.42 247.057 628.636 249.101 628.636ZM269.554 631.408V629H271.962V642.412C271.962 644.484 271.262 646.08 269.862 647.228C268.462 648.376 266.782 648.964 264.822 648.964C261.686 648.964 259.334 647.76 258.186 645.548L260.314 644.344C261.07 645.912 262.61 646.696 264.878 646.696C267.79 646.696 269.554 645.072 269.554 642.412V640.424C268.322 642.3 266.558 643.224 264.29 643.224C262.302 643.224 260.594 642.524 259.222 641.096C257.85 639.668 257.15 637.96 257.15 635.916C257.15 633.872 257.85 632.164 259.222 630.764C260.594 629.336 262.302 628.636 264.29 628.636C266.586 628.636 268.35 629.56 269.554 631.408ZM269.554 635.916C269.554 634.516 269.078 633.34 268.126 632.388C267.174 631.436 265.998 630.96 264.57 630.96C263.142 630.96 261.966 631.436 261.014 632.388C260.062 633.34 259.586 634.516 259.586 635.916C259.586 637.344 260.062 638.52 261.014 639.472C261.966 640.424 263.142 640.9 264.57 640.9C265.998 640.9 267.174 640.424 268.126 639.472C269.078 638.52 269.554 637.344 269.554 635.916ZM289.233 643.364C285.565 643.364 282.849 641.544 281.813 638.548L284.053 637.26C284.809 639.64 286.573 640.816 289.289 640.816C291.977 640.816 293.433 639.612 293.433 637.792C293.433 636.868 293.069 636.168 292.369 635.692C291.669 635.216 290.465 634.74 288.813 634.208L286.937 633.592C286.517 633.424 285.957 633.172 285.313 632.864C284.669 632.528 284.193 632.192 283.885 631.856C283.241 631.156 282.653 630.008 282.653 628.58C282.653 626.872 283.241 625.528 284.445 624.548C285.649 623.54 287.105 623.036 288.813 623.036C291.921 623.036 294.301 624.744 295.449 627.32L293.265 628.58C292.425 626.564 290.941 625.556 288.813 625.556C286.685 625.556 285.257 626.676 285.257 628.468C285.257 629.336 285.565 629.98 286.181 630.428C286.797 630.876 287.861 631.352 289.373 631.828L290.521 632.192C290.745 632.276 291.081 632.388 291.557 632.584C292.537 632.948 292.761 633.088 293.517 633.508C294.301 633.928 294.553 634.236 295.029 634.796C295.729 635.496 296.009 636.504 296.009 637.736C296.009 639.444 295.393 640.816 294.133 641.852C292.873 642.86 291.249 643.364 289.233 643.364ZM306.046 629V631.352H302.322V638.94C302.322 641.096 303.554 640.928 306.046 640.816V643C301.79 643.56 299.886 642.412 299.886 638.94V631.352H297.114V629H299.886V625.808L302.322 625.08V629H306.046ZM319.811 631.408V629H322.247V643H319.811V640.592C318.607 642.44 316.843 643.364 314.519 643.364C312.559 643.364 310.879 642.664 309.507 641.236C308.135 639.808 307.435 638.044 307.435 636C307.435 633.956 308.135 632.22 309.507 630.792C310.879 629.364 312.559 628.636 314.519 628.636C316.843 628.636 318.607 629.56 319.811 631.408ZM314.827 641.012C316.255 641.012 317.431 640.536 318.383 639.584C319.335 638.604 319.811 637.428 319.811 636C319.811 634.572 319.335 633.396 318.383 632.444C317.431 631.464 316.255 630.988 314.827 630.988C313.427 630.988 312.251 631.464 311.299 632.444C310.347 633.396 309.871 634.572 309.871 636C309.871 637.428 310.347 638.604 311.299 639.584C312.251 640.536 313.427 641.012 314.827 641.012ZM332.518 643.364C330.418 643.364 328.654 642.664 327.254 641.264C325.854 639.836 325.154 638.1 325.154 636C325.154 633.9 325.854 632.164 327.254 630.764C328.654 629.336 330.418 628.636 332.518 628.636C335.29 628.636 337.614 630.064 338.706 632.304L336.662 633.48C335.962 631.996 334.394 631.016 332.518 631.016C331.118 631.016 329.942 631.492 328.99 632.444C328.066 633.396 327.59 634.572 327.59 636C327.59 637.4 328.066 638.576 328.99 639.528C329.942 640.48 331.118 640.956 332.518 640.956C334.394 640.956 335.962 640.004 336.746 638.52L338.818 639.724C337.614 641.936 335.234 643.364 332.518 643.364ZM346.151 635.776L353.067 643H350.043L343.659 636.364V643H341.223V623.4H343.659V635.188L349.707 629H352.843L346.151 635.776Z" fill="black"/>
<path d="M170.098 715.4H177.742C180.402 715.4 182.614 716.352 184.378 718.256C186.142 720.132 187.038 722.456 187.038 725.2C187.038 727.944 186.142 730.268 184.378 732.172C182.614 734.048 180.402 735 177.742 735H170.098V715.4ZM172.702 732.536H177.742C179.73 732.536 181.382 731.836 182.642 730.436C183.902 729.036 184.546 727.3 184.546 725.2C184.546 723.1 183.902 721.364 182.642 719.964C181.382 718.564 179.73 717.864 177.742 717.864H172.702V732.536ZM201.536 723.408V721H203.972V735H201.536V732.592C200.332 734.44 198.568 735.364 196.244 735.364C194.284 735.364 192.604 734.664 191.232 733.236C189.86 731.808 189.16 730.044 189.16 728C189.16 725.956 189.86 724.22 191.232 722.792C192.604 721.364 194.284 720.636 196.244 720.636C198.568 720.636 200.332 721.56 201.536 723.408ZM196.552 733.012C197.98 733.012 199.156 732.536 200.108 731.584C201.06 730.604 201.536 729.428 201.536 728C201.536 726.572 201.06 725.396 200.108 724.444C199.156 723.464 197.98 722.988 196.552 722.988C195.152 722.988 193.976 723.464 193.024 724.444C192.072 725.396 191.596 726.572 191.596 728C191.596 729.428 192.072 730.604 193.024 731.584C193.976 732.536 195.152 733.012 196.552 733.012ZM215.278 721V723.352H211.554V730.94C211.554 733.096 212.786 732.928 215.278 732.816V735C211.022 735.56 209.118 734.412 209.118 730.94V723.352H206.346V721H209.118V717.808L211.554 717.08V721H215.278ZM229.044 723.408V721H231.48V735H229.044V732.592C227.84 734.44 226.076 735.364 223.752 735.364C221.792 735.364 220.112 734.664 218.74 733.236C217.368 731.808 216.668 730.044 216.668 728C216.668 725.956 217.368 724.22 218.74 722.792C220.112 721.364 221.792 720.636 223.752 720.636C226.076 720.636 227.84 721.56 229.044 723.408ZM224.06 733.012C225.488 733.012 226.664 732.536 227.616 731.584C228.568 730.604 229.044 729.428 229.044 728C229.044 726.572 228.568 725.396 227.616 724.444C226.664 723.464 225.488 722.988 224.06 722.988C222.66 722.988 221.484 723.464 220.532 724.444C219.58 725.396 219.104 726.572 219.104 728C219.104 729.428 219.58 730.604 220.532 731.584C221.484 732.536 222.66 733.012 224.06 733.012ZM248.75 735.364C245.082 735.364 242.366 733.544 241.33 730.548L243.57 729.26C244.326 731.64 246.09 732.816 248.806 732.816C251.494 732.816 252.95 731.612 252.95 729.792C252.95 728.868 252.586 728.168 251.886 727.692C251.186 727.216 249.982 726.74 248.33 726.208L246.454 725.592C246.034 725.424 245.474 725.172 244.83 724.864C244.186 724.528 243.71 724.192 243.402 723.856C242.758 723.156 242.17 722.008 242.17 720.58C242.17 718.872 242.758 717.528 243.962 716.548C245.166 715.54 246.622 715.036 248.33 715.036C251.438 715.036 253.818 716.744 254.966 719.32L252.782 720.58C251.942 718.564 250.458 717.556 248.33 717.556C246.202 717.556 244.774 718.676 244.774 720.468C244.774 721.336 245.082 721.98 245.698 722.428C246.314 722.876 247.378 723.352 248.89 723.828L250.038 724.192C250.262 724.276 250.598 724.388 251.074 724.584C252.054 724.948 252.278 725.088 253.034 725.508C253.818 725.928 254.07 726.236 254.546 726.796C255.246 727.496 255.526 728.504 255.526 729.736C255.526 731.444 254.91 732.816 253.65 733.852C252.39 734.86 250.766 735.364 248.75 735.364ZM265.564 721V723.352H261.84V730.94C261.84 733.096 263.072 732.928 265.564 732.816V735C261.308 735.56 259.404 734.412 259.404 730.94V723.352H256.632V721H259.404V717.808L261.84 717.08V721H265.564ZM279.329 723.408V721H281.765V735H279.329V732.592C278.125 734.44 276.361 735.364 274.037 735.364C272.077 735.364 270.397 734.664 269.025 733.236C267.653 731.808 266.953 730.044 266.953 728C266.953 725.956 267.653 724.22 269.025 722.792C270.397 721.364 272.077 720.636 274.037 720.636C276.361 720.636 278.125 721.56 279.329 723.408ZM274.345 733.012C275.773 733.012 276.949 732.536 277.901 731.584C278.853 730.604 279.329 729.428 279.329 728C279.329 726.572 278.853 725.396 277.901 724.444C276.949 723.464 275.773 722.988 274.345 722.988C272.945 722.988 271.769 723.464 270.817 724.444C269.865 725.396 269.389 726.572 269.389 728C269.389 729.428 269.865 730.604 270.817 731.584C271.769 732.536 272.945 733.012 274.345 733.012ZM292.035 735.364C289.935 735.364 288.171 734.664 286.771 733.264C285.371 731.836 284.671 730.1 284.671 728C284.671 725.9 285.371 724.164 286.771 722.764C288.171 721.336 289.935 720.636 292.035 720.636C294.807 720.636 297.131 722.064 298.223 724.304L296.179 725.48C295.479 723.996 293.911 723.016 292.035 723.016C290.635 723.016 289.459 723.492 288.507 724.444C287.583 725.396 287.107 726.572 287.107 728C287.107 729.4 287.583 730.576 288.507 731.528C289.459 732.48 290.635 732.956 292.035 732.956C293.911 732.956 295.479 732.004 296.263 730.52L298.335 731.724C297.131 733.936 294.751 735.364 292.035 735.364ZM305.669 727.776L312.585 735H309.561L303.177 728.364V735H300.741V715.4H303.177V727.188L309.225 721H312.361L305.669 727.776Z" fill="black"/>
<path d="M37 72C37 67.5817 40.5817 64 45 64H436C440.418 64 444 67.5817 444 72V215H37V72Z" fill="#717CE1"/>
<path d="M105.623 129V97.5H109.808V129H105.623ZM127.365 105.915C132.63 105.915 136.095 109.47 136.095 115.185V129H132.18V115.41C132.18 111.765 130.065 109.65 126.6 109.65C122.685 109.65 120.075 112.035 120.075 117.075V129H116.16V106.5H120.075V109.74C121.65 107.175 124.08 105.915 127.365 105.915ZM153.126 96.915V100.695C149.166 100.38 147.186 102.09 147.186 105.825V106.5H153.126V110.28H147.186V129H143.271V110.28H139.671V106.5H143.271V105.825C143.271 99.75 146.781 96.51 153.126 96.915ZM160.022 106.5V110.28C161.327 107.49 163.667 106.095 167.042 106.095V110.19C165.107 110.1 163.487 110.595 162.092 111.72C160.697 112.845 160.022 114.6 160.022 117.075V129H156.107V106.5H160.022ZM188.272 110.37V106.5H192.187V129H188.272V125.13C186.337 128.1 183.502 129.585 179.767 129.585C176.617 129.585 173.917 128.46 171.712 126.165C169.507 123.87 168.382 121.035 168.382 117.75C168.382 114.465 169.507 111.675 171.712 109.38C173.917 107.085 176.617 105.915 179.767 105.915C183.502 105.915 186.337 107.4 188.272 110.37ZM180.262 125.805C182.557 125.805 184.447 125.04 185.977 123.51C187.507 121.935 188.272 120.045 188.272 117.75C188.272 115.455 187.507 113.565 185.977 112.035C184.447 110.46 182.557 109.695 180.262 109.695C178.012 109.695 176.122 110.46 174.592 112.035C173.062 113.565 172.297 115.455 172.297 117.75C172.297 120.045 173.062 121.935 174.592 123.51C176.122 125.04 178.012 125.805 180.262 125.805ZM201.449 112.575C201.449 114.33 203.429 115.275 205.904 115.95C209.414 116.715 214.094 118.02 214.049 122.835C214.049 124.86 213.239 126.525 211.664 127.74C210.089 128.955 208.109 129.585 205.634 129.585C201.269 129.585 197.984 127.515 196.679 124.32L200.054 122.385C200.774 124.545 202.889 125.895 205.634 125.895C208.199 125.895 210.089 124.95 210.089 122.835C210.089 121.08 208.109 120.09 205.634 119.505C202.079 118.56 197.489 117.39 197.489 112.62C197.489 110.685 198.254 109.065 199.739 107.805C201.269 106.545 203.159 105.915 205.454 105.915C209.099 105.915 212.114 107.67 213.554 110.595L210.269 112.44C209.459 110.505 207.839 109.56 205.454 109.56C203.249 109.56 201.449 110.64 201.449 112.575ZM230.046 106.5V110.28H224.061V122.475C224.061 125.94 226.041 125.67 230.046 125.49V129C223.206 129.9 220.146 128.055 220.146 122.475V110.28H215.691V106.5H220.146V101.37L224.061 100.2V106.5H230.046ZM238.728 106.5V110.28C240.033 107.49 242.373 106.095 245.748 106.095V110.19C243.813 110.1 242.193 110.595 240.798 111.72C239.403 112.845 238.728 114.6 238.728 117.075V129H234.813V106.5H238.728ZM265.103 118.425V106.5H269.018V129H265.103V125.76C263.528 128.325 261.098 129.585 257.813 129.585C252.548 129.585 249.083 126.03 249.083 120.315V106.5H252.998V120.09C252.998 123.735 255.113 125.85 258.578 125.85C262.493 125.85 265.103 123.465 265.103 118.425ZM285.554 129.585C282.179 129.585 279.344 128.46 277.094 126.21C274.844 123.915 273.719 121.125 273.719 117.75C273.719 114.375 274.844 111.585 277.094 109.335C279.344 107.04 282.179 105.915 285.554 105.915C290.009 105.915 293.744 108.21 295.499 111.81L292.214 113.7C291.089 111.315 288.569 109.74 285.554 109.74C283.304 109.74 281.414 110.505 279.884 112.035C278.399 113.565 277.634 115.455 277.634 117.75C277.634 120 278.399 121.89 279.884 123.42C281.414 124.95 283.304 125.715 285.554 125.715C288.569 125.715 291.089 124.185 292.349 121.8L295.679 123.735C293.744 127.29 289.919 129.585 285.554 129.585ZM311.784 106.5V110.28H305.799V122.475C305.799 125.94 307.779 125.67 311.784 125.49V129C304.944 129.9 301.884 128.055 301.884 122.475V110.28H297.429V106.5H301.884V101.37L305.799 100.2V106.5H311.784ZM332.076 118.425V106.5H335.991V129H332.076V125.76C330.501 128.325 328.071 129.585 324.786 129.585C319.521 129.585 316.056 126.03 316.056 120.315V106.5H319.971V120.09C319.971 123.735 322.086 125.85 325.551 125.85C329.466 125.85 332.076 123.465 332.076 118.425ZM345.866 106.5V110.28C347.171 107.49 349.511 106.095 352.886 106.095V110.19C350.951 110.1 349.331 110.595 347.936 111.72C346.541 112.845 345.866 114.6 345.866 117.075V129H341.951V106.5H345.866ZM377.087 119.55H358.232C358.997 123.555 362.102 125.895 366.377 125.895C369.347 125.895 371.507 124.815 372.857 122.61L376.187 124.5C373.982 127.875 370.697 129.585 366.287 129.585C362.732 129.585 359.807 128.46 357.557 126.255C355.352 124.005 354.227 121.17 354.227 117.75C354.227 114.375 355.307 111.54 357.512 109.29C359.717 107.04 362.552 105.915 366.017 105.915C369.302 105.915 372.002 107.085 374.072 109.425C376.187 111.72 377.222 114.51 377.222 117.795C377.222 118.38 377.177 118.965 377.087 119.55ZM366.017 109.605C361.832 109.605 358.907 112.17 358.232 116.13H373.262C372.587 111.855 369.617 109.605 366.017 109.605ZM186.193 174.585C180.298 174.585 175.933 171.66 174.268 166.845L177.868 164.775C179.083 168.6 181.918 170.49 186.283 170.49C190.603 170.49 192.943 168.555 192.943 165.63C192.943 164.145 192.358 163.02 191.233 162.255C190.108 161.49 188.173 160.725 185.518 159.87L182.503 158.88C181.828 158.61 180.928 158.205 179.893 157.71C178.858 157.17 178.093 156.63 177.598 156.09C176.563 154.965 175.618 153.12 175.618 150.825C175.618 148.08 176.563 145.92 178.498 144.345C180.433 142.725 182.773 141.915 185.518 141.915C190.513 141.915 194.338 144.66 196.183 148.8L192.673 150.825C191.323 147.585 188.938 145.965 185.518 145.965C182.098 145.965 179.803 147.765 179.803 150.645C179.803 152.04 180.298 153.075 181.288 153.795C182.278 154.515 183.988 155.28 186.418 156.045L188.263 156.63C188.623 156.765 189.163 156.945 189.928 157.26C191.503 157.845 191.863 158.07 193.078 158.745C194.338 159.42 194.743 159.915 195.508 160.815C196.633 161.94 197.083 163.56 197.083 165.54C197.083 168.285 196.093 170.49 194.068 172.155C192.043 173.775 189.433 174.585 186.193 174.585ZM213.215 151.5V155.28H207.23V167.475C207.23 170.94 209.21 170.67 213.215 170.49V174C206.375 174.9 203.315 173.055 203.315 167.475V155.28H198.86V151.5H203.315V146.37L207.23 145.2V151.5H213.215ZM235.337 155.37V151.5H239.252V174H235.337V170.13C233.402 173.1 230.567 174.585 226.832 174.585C223.682 174.585 220.982 173.46 218.777 171.165C216.572 168.87 215.447 166.035 215.447 162.75C215.447 159.465 216.572 156.675 218.777 154.38C220.982 152.085 223.682 150.915 226.832 150.915C230.567 150.915 233.402 152.4 235.337 155.37ZM227.327 170.805C229.622 170.805 231.512 170.04 233.042 168.51C234.572 166.935 235.337 165.045 235.337 162.75C235.337 160.455 234.572 158.565 233.042 157.035C231.512 155.46 229.622 154.695 227.327 154.695C225.077 154.695 223.187 155.46 221.657 157.035C220.127 158.565 219.362 160.455 219.362 162.75C219.362 165.045 220.127 166.935 221.657 168.51C223.187 170.04 225.077 170.805 227.327 170.805ZM255.759 174.585C252.384 174.585 249.549 173.46 247.299 171.21C245.049 168.915 243.924 166.125 243.924 162.75C243.924 159.375 245.049 156.585 247.299 154.335C249.549 152.04 252.384 150.915 255.759 150.915C260.214 150.915 263.949 153.21 265.704 156.81L262.419 158.7C261.294 156.315 258.774 154.74 255.759 154.74C253.509 154.74 251.619 155.505 250.089 157.035C248.604 158.565 247.839 160.455 247.839 162.75C247.839 165 248.604 166.89 250.089 168.42C251.619 169.95 253.509 170.715 255.759 170.715C258.774 170.715 261.294 169.185 262.554 166.8L265.884 168.735C263.949 172.29 260.124 174.585 255.759 174.585ZM277.669 162.39L288.784 174H283.924L273.664 163.335V174H269.749V142.5H273.664V161.445L283.384 151.5H288.424L277.669 162.39ZM294.086 157.575C294.086 159.33 296.066 160.275 298.541 160.95C302.051 161.715 306.731 163.02 306.686 167.835C306.686 169.86 305.876 171.525 304.301 172.74C302.726 173.955 300.746 174.585 298.271 174.585C293.906 174.585 290.621 172.515 289.316 169.32L292.691 167.385C293.411 169.545 295.526 170.895 298.271 170.895C300.836 170.895 302.726 169.95 302.726 167.835C302.726 166.08 300.746 165.09 298.271 164.505C294.716 163.56 290.126 162.39 290.126 157.62C290.126 155.685 290.891 154.065 292.376 152.805C293.906 151.545 295.796 150.915 298.091 150.915C301.736 150.915 304.751 152.67 306.191 155.595L302.906 157.44C302.096 155.505 300.476 154.56 298.091 154.56C295.886 154.56 294.086 155.64 294.086 157.575Z" fill="white"/>
<defs>
<clipPath id="clip0_2583_2">
<rect width="107.15" height="107.15" fill="white" transform="translate(687.123 246.701)"/>
</clipPath>
</defs>
</svg>
