<svg width="24" height="24" viewBox="0 0 24 24" fill="none" xmlns="http://www.w3.org/2000/svg">
<path d="M23.7603 7.64155C23.7603 7.64155 23.5258 5.98767 22.8062 5.25936C21.8936 4.30346 20.8706 4.29872 20.4015 4.24277C17.0431 4 12.0052 4 12.0052 4H11.9948C11.9948 4 6.95704 4 3.59847 4.24277C3.12932 4.29872 2.10671 4.30346 1.19375 5.25936C0.474175 5.98767 0.240015 7.64155 0.240015 7.64155C0.240015 7.64155 0 9.58371 0 11.5259V13.3467C0 15.2888 0.24002 17.231 0.24002 17.231C0.24002 17.231 0.47418 18.8848 1.19376 19.6131C2.10672 20.5691 3.30595 20.5388 3.84009 20.639C5.76014 20.8231 12 20.8801 12 20.8801C12 20.8801 17.0431 20.8725 20.4015 20.6297C20.8706 20.5738 21.8936 20.5691 22.8062 19.6131C23.5258 18.8848 23.7603 17.231 23.7603 17.231C23.7603 17.231 24 15.2888 24 13.3467V11.5259C24 9.58371 23.7603 7.64155 23.7603 7.64155Z" fill="#DC2217"/>
<path d="M9.5221 15.5532L9.521 8.80981L16.0059 12.1932L9.5221 15.5532Z" fill="white"/>
</svg>
