<svg width="51" height="40" viewBox="0 0 51 40" fill="none" xmlns="http://www.w3.org/2000/svg">
<path d="M40.8 39.2328V39.25H11.475C5.13745 39.25 0 33.707 0 26.875C0 21.4867 3.19308 16.8289 7.65 15.2047V15.1875C7.65 7.2125 13.6425 0.75 21.0375 0.75C25.0936 0.75 28.7194 2.69219 31.1817 5.76102C32.3691 5.19125 33.6759 4.875 35.0625 4.875C40.3458 4.875 44.625 9.48984 44.625 15.1875C44.625 15.7547 44.5852 16.3047 44.5055 16.8461C48.3305 18.6508 51 22.7758 51 27.5625C51 33.7844 46.4897 38.8719 40.8 39.2328ZM30.1378 10.7789L28.2811 8.45859C26.52 6.25687 23.9302 4.875 21.0375 4.875C15.7542 4.875 11.475 9.48984 11.475 15.1102V18.118L8.85328 19.0891C5.94788 20.232 3.825 23.2914 3.825 26.875C3.825 31.4297 7.24997 35.125 11.475 35.125H40.3697L40.5769 35.1078C44.2584 34.8844 47.175 31.5844 47.175 27.5625C47.175 24.4688 45.4538 21.7961 42.9675 20.6273L40.2502 19.3469L40.7283 16.193C40.7761 15.8664 40.8 15.5312 40.8 15.1875C40.8 11.7672 38.2341 9 35.0625 9C34.2258 9 33.4369 9.18906 32.7356 9.53281L30.1378 10.7789Z" fill="#131314"/>
</svg>
