<svg width="44" height="37" viewBox="0 0 44 37" fill="none" xmlns="http://www.w3.org/2000/svg">
<path d="M0.974854 32.3425L1.48527 36.875L4.79277 33.7308L10.4482 18.2142C9.05985 17.8671 7.83485 17.1729 6.83444 16.2133L0.974854 32.3425Z" fill="#2B2B2C"/>
<path d="M18.1453 16.2133C17.1449 17.1729 15.8994 17.8671 14.5315 18.2142L20.1869 33.7308L23.4944 36.875L24.0253 32.3425L18.1453 16.2133Z" fill="#2B2B2C"/>
<path d="M18.6149 10.3333C18.6149 7.67917 16.8999 5.43333 14.5315 4.57583V0.125H10.4482V4.57583C8.07985 5.43333 6.36485 7.67917 6.36485 10.3333C6.36485 13.7225 9.10069 16.4583 12.4899 16.4583C15.879 16.4583 18.6149 13.7225 18.6149 10.3333ZM12.4899 12.375C11.3669 12.375 10.4482 11.4563 10.4482 10.3333C10.4482 9.21042 11.3669 8.29167 12.4899 8.29167C13.6128 8.29167 14.5315 9.21042 14.5315 10.3333C14.5315 11.4563 13.6128 12.375 12.4899 12.375Z" fill="#2B2B2C"/>
</svg>
