<svg width="52" height="29" viewBox="0 0 52 29" fill="none" xmlns="http://www.w3.org/2000/svg">
<path d="M8.66667 16.7917C11.05 16.7917 13 14.7292 13 12.2083C13 9.6875 11.05 7.625 8.66667 7.625C6.28333 7.625 4.33333 9.6875 4.33333 12.2083C4.33333 14.7292 6.28333 16.7917 8.66667 16.7917ZM11.115 19.3125C10.3133 19.175 9.51167 19.0833 8.66667 19.0833C6.52167 19.0833 4.485 19.5646 2.64333 20.4125C1.04 21.1458 0 22.7958 0 24.6521V28.25H9.75V24.5604C9.75 22.6583 10.2483 20.8708 11.115 19.3125ZM43.3333 16.7917C45.7167 16.7917 47.6667 14.7292 47.6667 12.2083C47.6667 9.6875 45.7167 7.625 43.3333 7.625C40.95 7.625 39 9.6875 39 12.2083C39 14.7292 40.95 16.7917 43.3333 16.7917ZM52 24.6521C52 22.7958 50.96 21.1458 49.3567 20.4125C47.515 19.5646 45.4783 19.0833 43.3333 19.0833C42.4883 19.0833 41.6867 19.175 40.885 19.3125C41.7517 20.8708 42.25 22.6583 42.25 24.5604V28.25H52V24.6521ZM35.1867 18.2812C32.6517 17.0896 29.5317 16.2188 26 16.2188C22.4683 16.2188 19.3483 17.1125 16.8133 18.2812C14.4733 19.3813 13 21.8562 13 24.5604V28.25H39V24.5604C39 21.8562 37.5267 19.3813 35.1867 18.2812ZM17.485 23.6667C17.68 23.1396 17.7667 22.7729 19.4567 22.0854C21.5583 21.2146 23.7683 20.8021 26 20.8021C28.2317 20.8021 30.4417 21.2146 32.5433 22.0854C34.2117 22.7729 34.2983 23.1396 34.515 23.6667H17.485ZM26 5.33333C27.1917 5.33333 28.1667 6.36458 28.1667 7.625C28.1667 8.88542 27.1917 9.91667 26 9.91667C24.8083 9.91667 23.8333 8.88542 23.8333 7.625C23.8333 6.36458 24.8083 5.33333 26 5.33333ZM26 0.75C22.4033 0.75 19.5 3.82083 19.5 7.625C19.5 11.4292 22.4033 14.5 26 14.5C29.5967 14.5 32.5 11.4292 32.5 7.625C32.5 3.82083 29.5967 0.75 26 0.75Z" fill="#2B2B2C"/>
</svg>
