<svg width="76" height="75" viewBox="0 0 76 75" fill="none" xmlns="http://www.w3.org/2000/svg">
<rect width="75.125" height="75" fill="#cbeffe"/>
<g clip-path="url(#clip0_343_745)">
<path d="M48.2188 59.8438H26.9062L23.226 34.0625H18.0149L22.1185 62.7871C22.3021 64.0547 23.3893 65 24.6719 65H50.4531C51.7357 65 52.8228 64.0567 53.0065 62.7882L57.0166 34.0625H51.8066L48.2188 59.8438ZM45.6084 43.2578L40.7057 42.5394L38.5186 38.0921C38.1155 37.3023 36.9813 37.2856 36.5946 38.0921L34.415 42.5381L29.5059 43.2578C28.6324 43.3758 28.2608 44.4728 28.916 45.0947L32.4545 48.543L31.6196 53.436C31.4853 54.3097 32.4061 54.9829 33.1783 54.5629L37.5579 52.2501L41.9375 54.5629C42.7102 54.9657 43.6315 54.3095 43.4962 53.436L42.6612 48.543L46.1094 45.0947C46.8438 44.4717 46.4893 43.376 45.6084 43.2578ZM59.0469 25.3721L27.25 25.4688V24.6094C27.25 20.8679 29.9227 17.7397 33.459 17.0297C34.2432 17.9653 35.3818 18.5938 36.7031 18.5938H45.2969C47.6698 18.5938 49.5938 16.6698 49.5938 14.2969C49.5938 11.9239 47.6709 10 45.2969 10H36.7031C35.2422 10 34.0068 10.7784 33.2334 11.896C26.96 12.7597 22.0938 18.1018 22.0938 24.6094V25.4688L15.9814 25.3721C14.6548 25.3721 13.5 26.6182 13.5 27.9502C13.5 29.2822 14.6548 30.5283 15.9814 30.5283H58.9502C60.3735 30.5283 61.5283 29.3735 61.5283 27.9502C61.5283 26.5269 60.4756 25.3721 59.0469 25.3721Z" fill="#131314"/>
</g>
<defs>
<clipPath id="clip0_343_745">
<rect width="48.125" height="55" fill="white" transform="translate(13.5 10)"/>
</clipPath>
</defs>
</svg>
