<svg width="75" height="75" viewBox="0 0 75 75" fill="none" xmlns="http://www.w3.org/2000/svg">
<rect width="75" height="75" fill="#cbeffe"/>
<path d="M23.7509 44.3743C21.8488 44.3743 20.1301 45.1535 18.8926 46.391C16.1884 49.0951 14.5842 60.416 14.5842 60.416C14.5842 60.416 25.9051 58.8118 28.6092 56.1076C29.8467 54.8701 30.6259 53.1514 30.6259 51.2493C30.6259 47.4451 27.5551 44.3743 23.7509 44.3743ZM25.378 52.8764C24.7363 53.5181 20.4051 54.6181 20.4051 54.6181C20.4051 54.6181 21.4821 50.3097 22.1467 49.6451C22.5363 49.2097 23.1092 48.9576 23.7509 48.9576C25.0113 48.9576 26.0426 49.9889 26.0426 51.2493C26.0426 51.891 25.7905 52.4639 25.378 52.8764ZM49.9217 41.2806C64.4967 26.7056 59.6384 15.3618 59.6384 15.3618C59.6384 15.3618 48.2946 10.5035 33.7196 25.0785L28.0134 23.9326C26.5238 23.6347 24.9655 24.116 23.8655 25.1931L14.5842 34.4972L26.0426 39.4014L35.5988 48.9576L40.503 60.416L49.7842 51.1347C50.8613 50.0576 51.3426 48.4993 51.0446 46.9868L49.9217 41.2806ZM26.9821 34.8181L22.6051 32.9389L27.1196 28.4243L30.4196 29.0889C29.1134 30.991 27.9446 32.9847 26.9821 34.8181ZM42.0613 52.3951L40.1821 48.0181C42.0155 47.0556 44.0092 45.8868 45.8884 44.5806L46.553 47.8806L42.0613 52.3951ZM46.6676 38.0493C43.6426 41.0743 38.9217 43.5493 37.4092 44.3056L30.6946 37.591C31.428 36.1014 33.903 31.3806 36.9509 28.3326C47.6759 17.6076 55.8113 19.1889 55.8113 19.1889C55.8113 19.1889 57.3926 27.3243 46.6676 38.0493ZM44.3759 35.2076C46.8967 35.2076 48.9592 33.1451 48.9592 30.6243C48.9592 28.1035 46.8967 26.041 44.3759 26.041C41.8551 26.041 39.7926 28.1035 39.7926 30.6243C39.7926 33.1451 41.8551 35.2076 44.3759 35.2076Z" fill="#2B2B2C"/>
</svg>
