<svg width="710" height="430" viewBox="0 0 710 430" fill="none" xmlns="http://www.w3.org/2000/svg">
<g clip-path="url(#clip0_499_1470)">
<rect width="710" height="430" fill="white"/>
<rect x="-24.2334" y="-26.6211" width="221.37" height="221.37" rx="21.502" fill="white" stroke="#D1D1D1" stroke-width="0.5"/>
<rect x="241.141" y="-26.6211" width="221.37" height="221.37" rx="21.502" fill="white" stroke="#D1D1D1" stroke-width="0.5"/>
<rect x="506.515" y="-26.6211" width="221.37" height="221.37" rx="21.502" fill="white" stroke="#D1D1D1" stroke-width="0.5"/>
<g clip-path="url(#clip1_499_1470)">
<path d="M88.0048 57.4121C70.5891 57.4121 56.4844 71.5168 56.4844 88.9326C56.4844 102.881 65.5074 114.661 78.0361 118.836C79.6122 119.113 80.2015 118.167 80.2015 117.339C80.2015 116.591 80.1631 114.111 80.1631 111.468C72.2446 112.926 70.1971 109.539 69.5667 107.768C69.2104 106.861 67.6755 104.062 66.3325 103.314C65.2306 102.722 63.6546 101.264 66.2941 101.226C68.7774 101.187 70.5507 103.511 71.1428 104.457C73.9796 109.226 78.5103 107.883 80.3221 107.055C80.5961 105.008 81.4239 103.629 82.3311 102.84C75.3172 102.053 67.9907 99.3343 67.9907 87.277C67.9907 83.8509 69.2104 81.0141 71.2195 78.8076C70.9043 78.0183 69.8025 74.7867 71.5347 70.4534C71.5347 70.4534 74.1742 69.6256 80.2042 73.6849C82.7258 72.975 85.4037 72.6214 88.0843 72.6214C90.7622 72.6214 93.4428 72.9777 95.9644 73.6849C101.994 69.5872 104.631 70.4534 104.631 70.4534C106.366 74.7867 105.262 78.0183 104.946 78.8076C106.955 81.0141 108.178 83.8098 108.178 87.277C108.178 99.3727 100.81 102.051 93.7964 102.84C94.9393 103.827 95.9233 105.718 95.9233 108.673C95.9233 112.888 95.8849 116.276 95.8849 117.339C95.8849 118.167 96.477 119.154 98.0503 118.839C110.505 114.661 119.525 102.84 119.525 88.9326C119.525 71.5168 105.421 57.4121 88.0048 57.4121Z" fill="black"/>
</g>
<path d="M378.299 92.2578L378.224 92.0642L370.818 72.744C370.67 72.3637 370.403 72.0412 370.057 71.8241C369.712 71.6032 369.306 71.4975 368.897 71.522C368.487 71.5419 368.094 71.6914 367.775 71.9488C367.456 72.2062 367.227 72.5584 367.121 72.9544L362.132 88.2458H341.902L336.892 72.9544C336.785 72.5608 336.555 72.2113 336.237 71.9565C335.916 71.7024 335.524 71.5542 335.116 71.5323C334.707 71.5104 334.302 71.616 333.956 71.8343C333.611 72.0525 333.345 72.3746 333.195 72.7542L325.792 92.0642L325.718 92.2578C324.652 95.0431 324.52 98.0995 325.343 100.966C326.166 103.833 327.899 106.354 330.28 108.15L330.303 108.167L330.371 108.218L341.651 116.663L347.231 120.885L350.625 123.451C351.023 123.753 351.509 123.917 352.008 123.917C352.508 123.917 352.993 123.753 353.391 123.451L356.786 120.885L362.366 116.663L373.71 108.177L373.74 108.157C376.122 106.36 377.854 103.837 378.676 100.969C379.499 98.1012 379.366 95.0437 378.299 92.2578Z" fill="#E24329"/>
<path d="M378.3 92.258L378.225 92.0645C374.617 92.8052 371.218 94.3339 368.27 96.5415L352.008 108.836L362.367 116.663L373.711 108.177L373.741 108.157C376.123 106.36 377.855 103.837 378.678 100.969C379.5 98.1013 379.367 95.0439 378.3 92.258Z" fill="#FC6D26"/>
<path d="M341.651 116.662L347.232 120.885L350.626 123.451C351.024 123.753 351.51 123.916 352.009 123.916C352.509 123.916 352.994 123.753 353.392 123.451L356.786 120.885L362.367 116.662L352.007 108.835L341.651 116.662Z" fill="#FCA326"/>
<path d="M335.745 96.5415C332.798 94.3334 329.399 92.8045 325.792 92.0645L325.718 92.258C324.652 95.0432 324.52 98.0996 325.343 100.966C326.166 103.833 327.899 106.354 330.28 108.15L330.303 108.167L330.371 108.218L341.651 116.663L352.007 108.836L335.745 96.5415Z" fill="#FC6D26"/>
<g clip-path="url(#clip2_499_1470)">
<path d="M616.995 59.8478C616.477 59.8739 615.97 60.0022 615.503 60.2252L595.15 69.9503C594.623 70.2019 594.16 70.568 593.796 71.0213C593.431 71.4747 593.174 72.0037 593.044 72.569L588.023 94.414C587.907 94.9174 587.894 95.4386 587.984 95.947C588.075 96.4554 588.268 96.9405 588.551 97.3737C588.62 97.4796 588.694 97.5822 588.772 97.6809L602.86 115.197C603.225 115.65 603.688 116.016 604.215 116.268C604.741 116.519 605.318 116.65 605.903 116.65L628.495 116.644C629.08 116.645 629.657 116.515 630.183 116.264C630.71 116.013 631.173 115.647 631.538 115.194L645.621 97.6757C645.986 97.2222 646.243 96.693 646.373 96.1274C646.503 95.5619 646.503 94.9744 646.373 94.4088L641.344 72.5638C641.214 71.9985 640.957 71.4695 640.592 71.0161C640.228 70.5628 639.765 70.1967 639.238 69.9451L618.882 60.2252C618.295 59.9446 617.646 59.8149 616.995 59.8478Z" fill="#326CE5"/>
<path d="M617.196 67.2832C616.523 67.2833 615.978 67.8893 615.978 68.6368C615.978 68.6483 615.98 68.6592 615.981 68.6706C615.98 68.7722 615.975 68.8946 615.978 68.983C615.994 69.4142 616.088 69.7442 616.145 70.1414C616.247 70.9916 616.333 71.6963 616.28 72.3514C616.228 72.5984 616.046 72.8243 615.884 72.9813L615.856 73.4967C615.125 73.5573 614.389 73.6682 613.653 73.8351C610.49 74.5534 607.767 76.1828 605.693 78.3827C605.559 78.2909 605.323 78.1221 605.253 78.0704C605.036 78.0997 604.816 78.1668 604.53 78.0001C603.984 77.6331 603.488 77.1265 602.887 76.5163C602.612 76.2244 602.412 75.9465 602.085 75.6651C602.011 75.6012 601.898 75.5148 601.815 75.4491C601.559 75.2452 601.257 75.1388 600.966 75.1289C600.592 75.1161 600.231 75.2625 599.995 75.5584C599.576 76.0844 599.71 76.8885 600.294 77.3545C600.3 77.3592 600.307 77.3629 600.313 77.3675C600.393 77.4326 600.491 77.5161 600.565 77.5706C600.912 77.8268 601.229 77.958 601.575 78.1615C602.304 78.6114 602.908 78.9845 603.387 79.4344C603.574 79.6338 603.607 79.9852 603.632 80.1372L604.022 80.486C601.932 83.6317 600.964 87.5172 601.536 91.4762L601.026 91.6246C600.891 91.7982 600.701 92.0714 600.503 92.153C599.876 92.3504 599.17 92.4229 598.319 92.5122C597.919 92.5455 597.574 92.5256 597.15 92.6059C597.057 92.6236 596.927 92.6575 596.825 92.6814C596.821 92.6822 596.818 92.6832 596.814 92.684C596.809 92.6853 596.801 92.688 596.796 92.6892C596.078 92.8627 595.617 93.5227 595.765 94.173C595.914 94.8234 596.615 95.2189 597.337 95.0632C597.343 95.062 597.35 95.0618 597.356 95.0606C597.364 95.0588 597.371 95.0548 597.379 95.0528C597.48 95.0307 597.606 95.0061 597.694 94.9825C598.111 94.871 598.413 94.707 598.787 94.5635C599.593 94.2743 600.261 94.0328 600.911 93.9387C601.183 93.9174 601.469 94.1063 601.612 94.186L602.143 94.0949C603.365 97.8835 605.926 100.946 609.168 102.867L608.947 103.398C609.027 103.604 609.115 103.883 609.055 104.087C608.819 104.7 608.414 105.347 607.953 106.069C607.729 106.402 607.501 106.661 607.299 107.043C607.251 107.134 607.19 107.274 607.143 107.371C606.83 108.041 607.06 108.812 607.661 109.102C608.266 109.393 609.018 109.086 609.343 108.414C609.343 108.413 609.345 108.413 609.345 108.412C609.346 108.411 609.345 108.41 609.345 108.409C609.392 108.314 609.457 108.189 609.496 108.099C609.669 107.704 609.726 107.365 609.848 106.983C610.17 106.173 610.347 105.324 610.791 104.794C610.912 104.649 611.11 104.593 611.316 104.538L611.592 104.039C614.419 105.124 617.583 105.415 620.744 104.697C621.465 104.534 622.161 104.322 622.834 104.067C622.912 104.205 623.056 104.469 623.095 104.536C623.304 104.604 623.531 104.639 623.717 104.913C624.049 105.48 624.276 106.151 624.553 106.962C624.674 107.344 624.734 107.683 624.907 108.079C624.946 108.169 625.011 108.296 625.058 108.391C625.382 109.064 626.136 109.373 626.742 109.081C627.343 108.791 627.573 108.02 627.26 107.35C627.213 107.253 627.149 107.113 627.101 107.022C626.899 106.64 626.671 106.384 626.448 106.051C625.986 105.329 625.604 104.73 625.367 104.117C625.268 103.8 625.384 103.604 625.461 103.398C625.415 103.345 625.316 103.047 625.258 102.906C628.628 100.916 631.114 97.74 632.281 94.0715C632.439 94.0962 632.713 94.1447 632.802 94.1626C632.985 94.0417 633.153 93.8841 633.484 93.9101C634.134 94.0042 634.802 94.2458 635.608 94.5348C635.982 94.6784 636.284 94.845 636.701 94.9565C636.789 94.9801 636.915 95.0021 637.016 95.0242C637.024 95.0262 637.031 95.0301 637.039 95.032C637.045 95.0332 637.052 95.0334 637.058 95.0346C637.78 95.1901 638.482 94.7948 638.63 94.1444C638.778 93.494 638.317 92.8339 637.599 92.6606C637.495 92.6369 637.347 92.5965 637.245 92.5773C636.821 92.497 636.476 92.5168 636.076 92.4836C635.225 92.3943 634.519 92.3218 633.892 92.1244C633.637 92.0252 633.455 91.7211 633.367 91.5959L632.875 91.4528C633.13 89.6073 633.061 87.6867 632.619 85.765C632.174 83.8255 631.387 82.0515 630.337 80.4886C630.463 80.3739 630.701 80.1628 630.769 80.1008C630.788 79.8822 630.771 79.653 630.998 79.4109C631.477 78.9611 632.081 78.588 632.809 78.138C633.155 77.9346 633.475 77.8034 633.822 77.5471C633.901 77.4892 634.008 77.3974 634.09 77.3311C634.675 76.8649 634.809 76.0609 634.39 75.535C633.97 75.009 633.157 74.9595 632.573 75.4256C632.489 75.4915 632.377 75.5774 632.302 75.6417C631.975 75.9231 631.773 76.201 631.498 76.4929C630.897 77.1031 630.4 77.6122 629.855 77.9792C629.619 78.1168 629.273 78.0692 629.116 78.0599L628.652 78.3905C626.01 75.62 622.413 73.8486 618.539 73.5046C618.529 73.3422 618.514 73.0488 618.511 72.9605C618.352 72.8088 618.161 72.6792 618.113 72.3514C618.06 71.6963 618.148 70.9916 618.25 70.1414C618.307 69.7442 618.401 69.4142 618.417 68.983C618.421 68.885 618.415 68.7428 618.414 68.6368C618.414 67.8893 617.869 67.2831 617.196 67.2832ZM615.671 76.7324L615.309 83.1229L615.283 83.1359C615.259 83.7076 614.788 84.1642 614.211 84.1642C613.974 84.1642 613.755 84.0882 613.578 83.9585L613.568 83.9637L608.328 80.2491C609.938 78.6655 611.998 77.4952 614.372 76.9562C614.806 76.8578 615.239 76.7847 615.671 76.7324ZM618.724 76.7324C621.496 77.0733 624.059 78.3283 626.023 80.2517L620.817 83.9429L620.799 83.9351C620.337 84.2726 619.686 84.1888 619.326 83.7373C619.178 83.5522 619.101 83.3347 619.091 83.1151L619.086 83.1125L618.724 76.7324ZM606.427 82.6361L611.212 86.9156L611.207 86.9416C611.638 87.3171 611.702 87.9685 611.342 88.4202C611.194 88.6052 610.997 88.7293 610.785 88.7872L610.78 88.808L604.647 90.5781C604.335 87.7239 605.007 84.9494 606.427 82.6361ZM627.931 82.6387C628.642 83.791 629.181 85.0779 629.501 86.4731C629.818 87.8515 629.897 89.2275 629.766 90.5573L623.602 88.782L623.597 88.756C623.045 88.6051 622.706 88.0436 622.835 87.4805C622.887 87.2498 623.01 87.0546 623.176 86.9104L623.173 86.8974L627.931 82.6387ZM616.215 87.2462H618.175L619.393 88.769L618.956 90.6692L617.196 91.5152L615.431 90.6666L614.994 88.7664L616.215 87.2462ZM622.499 92.4576C622.582 92.4533 622.665 92.4609 622.746 92.4758L622.756 92.4628L629.1 93.5352C628.172 96.1436 626.395 98.4032 624.022 99.9154L621.559 93.9673L621.567 93.9569C621.341 93.4313 621.567 92.8149 622.087 92.5643C622.221 92.5001 622.36 92.4646 622.499 92.4576ZM611.844 92.4836C612.328 92.4904 612.763 92.8264 612.875 93.3192C612.928 93.5499 612.902 93.7785 612.815 93.9804L612.833 94.0038L610.397 99.8919C608.119 98.4302 606.305 96.2415 605.334 93.5561L611.623 92.4888L611.633 92.5018C611.704 92.4889 611.775 92.4826 611.844 92.4836ZM617.157 95.0632C617.326 95.057 617.497 95.0916 617.66 95.17C617.873 95.2726 618.037 95.4343 618.141 95.6281H618.165L621.265 101.23C620.862 101.365 620.449 101.48 620.026 101.576C617.655 102.114 615.291 101.951 613.151 101.222L616.244 95.6307H616.249C616.434 95.2838 616.786 95.0769 617.157 95.0632Z" fill="white" stroke="white" stroke-width="0.0208246"/>
</g>
<rect x="-24.2334" y="238.753" width="221.37" height="221.37" rx="21.502" fill="white" stroke="#D1D1D1" stroke-width="0.5"/>
<rect x="241.141" y="238.753" width="221.37" height="221.37" rx="21.502" fill="white" stroke="#D1D1D1" stroke-width="0.5"/>
<rect x="506.515" y="238.753" width="221.37" height="221.37" rx="21.502" fill="white" stroke="#D1D1D1" stroke-width="0.5"/>
<g clip-path="url(#clip3_499_1470)">
<path fill-rule="evenodd" clip-rule="evenodd" d="M104.883 341.72L100.021 338.514L95.9655 345.288L91.2487 343.909L87.0955 350.248L87.3084 352.243L109.889 348.082L108.578 333.974L104.883 341.72ZM83.824 335.637L87.4469 335.139C88.0331 335.403 88.4412 335.503 89.1441 335.682C90.2387 335.967 91.5059 336.241 93.3826 335.295C93.8193 335.078 94.729 334.247 95.0968 333.772L109.941 331.079L111.455 349.406L86.0248 353.989L83.824 335.637ZM111.398 329.034L109.932 329.313L107.118 300.229L59.1533 305.791L65.0624 353.743L70.6766 352.928C70.2282 352.288 69.5301 351.514 68.3379 350.522C66.6845 349.148 67.2693 346.815 68.2445 345.342C69.5349 342.852 76.1837 339.689 75.807 335.71C75.6719 334.263 75.4419 332.379 74.0989 331.089C74.0484 331.625 74.1391 332.141 74.1391 332.141C74.1391 332.141 73.5878 331.437 73.3127 330.478C73.0398 330.11 72.8255 329.992 72.5355 329.501C72.3287 330.069 72.356 330.729 72.356 330.729C72.356 330.729 71.9049 329.663 71.8319 328.763C71.5644 329.166 71.4968 329.931 71.4968 329.931C71.4968 329.931 70.9106 328.251 71.0444 327.346C70.7769 326.558 69.9839 324.996 70.2084 321.444C71.6722 322.469 74.8946 322.226 76.1502 320.375C76.5672 319.762 76.8524 318.089 75.9421 314.792C75.3573 312.678 73.9092 309.53 73.3448 308.336L73.2773 308.384C73.5748 309.347 74.1883 311.364 74.4237 312.342C75.1362 315.308 75.3272 316.341 74.9929 317.708C74.7083 318.897 74.0259 319.675 72.2959 320.544C70.566 321.416 68.2704 319.294 68.125 319.177C66.4442 317.838 65.1442 315.653 64.9989 314.592C64.8481 313.431 65.6683 312.733 66.0819 311.783C65.4902 311.953 64.8303 312.253 64.8303 312.253C64.8303 312.253 65.6178 311.438 66.5889 310.733C66.9909 310.467 67.227 310.298 67.6508 309.946C67.0373 309.935 66.5391 309.953 66.5391 309.953C66.5391 309.953 67.562 309.4 68.6225 308.998C67.8466 308.964 67.1041 308.992 67.1041 308.992C67.1041 308.992 69.3868 307.971 71.1898 307.222C72.4297 306.714 73.641 306.864 74.3214 307.848C75.2146 309.137 76.153 309.837 78.1415 310.271C79.3624 309.73 79.7336 309.452 81.2677 309.034C82.6182 307.549 83.6786 307.357 83.6786 307.357C83.6786 307.357 83.1525 307.839 83.0119 308.597C83.7776 307.994 84.6169 307.49 84.6169 307.49C84.6169 307.49 84.2921 307.892 83.9891 308.529L84.0594 308.633C84.9527 308.098 86.0029 307.675 86.0029 307.675C86.0029 307.675 85.7027 308.055 85.3505 308.546C86.0241 308.541 87.3903 308.575 87.9205 308.635C91.0508 308.704 91.7004 305.292 92.9015 304.864C94.4055 304.327 95.0777 304.002 97.6408 306.519C99.8403 308.681 101.559 312.549 100.706 313.416C99.9904 314.135 98.5792 313.135 97.0151 311.186C96.1887 310.153 95.5636 308.933 95.2708 307.382C95.0238 306.073 94.0623 305.313 94.0623 305.313C94.0623 305.313 94.6205 306.554 94.6205 307.65C94.6205 308.249 94.6955 310.486 95.655 311.742C95.5602 311.925 95.5158 312.65 95.4107 312.789C94.2943 311.44 91.8969 310.474 91.5059 310.189C92.8291 311.274 95.8707 313.765 97.0389 316.152C98.1438 318.409 97.4928 320.478 98.0517 321.014C98.2107 321.167 100.428 323.93 100.854 325.318C101.598 327.737 100.899 330.279 99.9249 331.856L97.2055 332.28C96.8076 332.169 96.5394 332.114 96.1825 331.907C96.3791 331.559 96.7701 330.691 96.7742 330.512L96.6206 330.243C95.7744 331.442 94.3564 332.606 93.1785 333.275C91.637 334.148 89.8599 334.014 88.7032 333.656C85.4202 332.643 82.3158 330.424 81.5672 329.842C81.5672 329.842 81.544 330.307 81.6853 330.411C82.5131 331.345 84.4095 333.034 86.2425 334.211L82.335 334.641L84.1823 349.025C83.3634 349.142 83.2357 349.2 82.339 349.327C81.5488 346.535 80.0373 344.713 78.3851 343.651C76.9282 342.715 74.9185 342.504 72.9947 342.885L72.8712 343.028C74.2088 342.889 75.7879 343.082 77.41 344.109C79.002 345.116 80.285 347.716 80.7572 349.281C81.3618 351.282 81.7801 353.422 80.1526 355.691C78.9945 357.303 75.6138 358.194 72.8828 356.267C73.6123 357.44 74.5984 358.399 75.9257 358.58C77.8965 358.848 79.767 358.506 81.0547 357.184C82.1541 356.054 82.7369 353.691 82.5834 351.202L84.3228 350.949L84.9506 355.416L113.747 351.949L111.398 329.034ZM93.878 316.902C93.7975 317.086 93.6712 317.206 93.8609 317.803L93.8725 317.837L93.9026 317.914L93.9817 318.093C94.3236 318.792 94.6989 319.451 95.3261 319.788C95.4885 319.76 95.6564 319.742 95.8304 319.733C96.4193 319.707 96.7912 319.8 97.0273 319.927C97.0485 319.81 97.0533 319.638 97.0403 319.385C96.9946 318.5 97.2157 316.994 95.5144 316.202C94.8723 315.904 93.9715 315.996 93.6712 316.368C93.7258 316.375 93.775 316.386 93.8132 316.399C94.267 316.558 93.9592 316.715 93.878 316.902ZM98.646 325.161C98.4229 325.038 97.3802 325.086 96.6472 325.174C95.251 325.338 93.7436 325.823 93.4133 326.081C92.8128 326.545 93.0857 327.354 93.5293 327.686C94.7733 328.616 95.8638 329.239 97.0151 329.087C97.722 328.995 98.3451 327.875 98.7866 326.86C99.0889 326.161 99.0889 325.406 98.646 325.161ZM86.2848 317.998C86.6785 317.624 84.3235 317.133 82.496 318.379C81.1482 319.298 81.1052 321.269 82.3957 322.386C82.5247 322.497 82.6311 322.575 82.7308 322.639C83.1074 322.462 83.5367 322.282 84.0308 322.122C84.8653 321.851 85.5594 321.711 86.1299 321.637C86.4028 321.332 86.7202 320.795 86.641 319.822C86.5332 318.503 85.5334 318.713 86.2848 317.998Z" fill="#632CA6"/>
</g>
<path d="M349.64 344.936C357.152 343.609 363.357 342.511 363.428 342.496L363.558 342.468L356.465 334.032C352.565 329.392 349.373 325.578 349.373 325.556C349.373 325.514 356.696 305.347 356.738 305.275C356.751 305.251 361.735 313.856 368.819 326.133C375.451 337.627 380.918 347.105 380.969 347.193L381.062 347.355L358.521 347.352L335.981 347.349L349.64 344.936ZM322.589 342.364C322.589 342.364 325.931 336.55 330.015 329.472L337.442 316.602L346.097 309.339C350.857 305.344 354.764 302.071 354.78 302.065C354.795 302.059 354.733 302.216 354.641 302.415C354.548 302.613 350.319 311.684 345.243 322.572L336.013 342.368L329.301 342.377C325.609 342.381 322.589 342.364 322.589 342.364Z" fill="#0089D6"/>
<path d="M619.964 315.472H613.86V321.021H619.964V315.472Z" fill="#099CEC"/>
<path d="M619.964 322.139H613.86V327.623H619.964V322.139Z" fill="#099CEC"/>
<path d="M612.751 315.472H606.647V321.021H612.751V315.472Z" fill="#099CEC"/>
<path d="M627.184 322.13H621.08V327.615H627.184V322.13Z" fill="#099CEC"/>
<path d="M619.964 308.759H613.86V314.364H619.964V308.759Z" fill="#099CEC"/>
<path d="M605.542 315.472H599.438V321.021H605.542V315.472Z" fill="#099CEC"/>
<path d="M612.751 322.13H606.647V327.615H612.751V322.13Z" fill="#099CEC"/>
<path d="M645.523 324.706C644.193 323.81 641.128 323.487 638.773 323.93C638.468 321.714 637.231 319.784 634.978 318.048L633.685 317.189L632.826 318.482C631.127 321.049 630.666 325.278 632.485 328.067C631.682 328.501 630.102 329.092 628.015 329.055H587.876C587.073 333.746 588.412 339.84 591.939 344.023C595.365 348.077 600.499 350.136 607.212 350.136C621.746 350.136 632.503 343.442 637.536 331.28C639.512 331.317 643.778 331.29 645.966 327.107C646.105 326.876 646.576 325.888 646.751 325.528L645.523 324.706Z" fill="#099CEC"/>
<path d="M598.336 322.13H598.327H592.232V327.615H598.336V322.13Z" fill="#099CEC"/>
<path d="M605.542 322.13H599.438V327.615H605.542V322.13Z" fill="#099CEC"/>
<rect x="-2" y="380" width="717" height="50" fill="url(#paint0_linear_499_1470)"/>
<rect x="715" y="50" width="717" height="50" transform="rotate(-180 715 50)" fill="url(#paint1_linear_499_1470)"/>
<rect width="469" height="50" transform="matrix(-4.37114e-08 -1 -1 4.37114e-08 48 442)" fill="url(#paint2_linear_499_1470)"/>
<rect width="469" height="50" transform="matrix(-4.37114e-08 1 1 4.37114e-08 660 -27)" fill="url(#paint3_linear_499_1470)"/>
</g>
<defs>
<linearGradient id="paint0_linear_499_1470" x1="384" y1="380" x2="385" y2="430" gradientUnits="userSpaceOnUse">
<stop stop-color="white" stop-opacity="0"/>
<stop offset="1" stop-color="white"/>
</linearGradient>
<linearGradient id="paint1_linear_499_1470" x1="1101" y1="50" x2="1102" y2="100" gradientUnits="userSpaceOnUse">
<stop stop-color="white" stop-opacity="0"/>
<stop offset="1" stop-color="white"/>
</linearGradient>
<linearGradient id="paint2_linear_499_1470" x1="252.488" y1="-5.39091e-07" x2="254.016" y2="49.9733" gradientUnits="userSpaceOnUse">
<stop stop-color="white" stop-opacity="0"/>
<stop offset="1" stop-color="white"/>
</linearGradient>
<linearGradient id="paint3_linear_499_1470" x1="252.488" y1="-5.39091e-07" x2="254.016" y2="49.9733" gradientUnits="userSpaceOnUse">
<stop stop-color="white" stop-opacity="0"/>
<stop offset="1" stop-color="white"/>
</linearGradient>
<clipPath id="clip0_499_1470">
<rect width="710" height="430" fill="white"/>
</clipPath>
<clipPath id="clip1_499_1470">
<rect width="65.7818" height="65.7818" fill="white" transform="translate(53.7432 55.3564)"/>
</clipPath>
<clipPath id="clip2_499_1470">
<rect width="60.2119" height="58.4727" fill="white" transform="translate(587.093 59.0107)"/>
</clipPath>
<clipPath id="clip3_499_1470">
<rect width="54.6307" height="58.4727" fill="white" transform="translate(59.1357 300.21)"/>
</clipPath>
</defs>
</svg>
