<svg width="746" height="461" viewBox="0 0 746 461" fill="none" xmlns="http://www.w3.org/2000/svg">
<rect x="-7.2334" y="-26.6211" width="221.37" height="221.37" rx="21.502" fill="white" stroke="#D1D1D1" stroke-width="0.5"/>
<rect x="258.141" y="-26.6211" width="221.37" height="221.37" rx="21.502" fill="white" stroke="#D1D1D1" stroke-width="0.5"/>
<rect x="523.515" y="-26.6211" width="221.37" height="221.37" rx="21.502" fill="white" stroke="#D1D1D1" stroke-width="0.5"/>
<g clip-path="url(#clip0_499_1471)">
<path d="M105.005 57.4121C87.5891 57.4121 73.4844 71.5168 73.4844 88.9326C73.4844 102.881 82.5074 114.661 95.0361 118.836C96.6122 119.113 97.2015 118.167 97.2015 117.339C97.2015 116.591 97.1631 114.111 97.1631 111.468C89.2446 112.926 87.1971 109.539 86.5667 107.768C86.2104 106.861 84.6755 104.062 83.3325 103.314C82.2306 102.722 80.6546 101.264 83.2941 101.226C85.7774 101.187 87.5507 103.511 88.1428 104.457C90.9796 109.226 95.5103 107.883 97.3221 107.055C97.5961 105.008 98.4239 103.629 99.3311 102.84C92.3172 102.053 84.9907 99.3343 84.9907 87.277C84.9907 83.8509 86.2104 81.0141 88.2195 78.8076C87.9043 78.0183 86.8025 74.7867 88.5347 70.4534C88.5347 70.4534 91.1742 69.6256 97.2042 73.6849C99.7258 72.975 102.404 72.6214 105.084 72.6214C107.762 72.6214 110.443 72.9777 112.964 73.6849C118.994 69.5872 121.631 70.4534 121.631 70.4534C123.366 74.7867 122.262 78.0183 121.946 78.8076C123.955 81.0141 125.178 83.8098 125.178 87.277C125.178 99.3727 117.81 102.051 110.796 102.84C111.939 103.827 112.923 105.718 112.923 108.673C112.923 112.888 112.885 116.276 112.885 117.339C112.885 118.167 113.477 119.154 115.05 118.839C127.505 114.661 136.525 102.84 136.525 88.9326C136.525 71.5168 122.421 57.4121 105.005 57.4121Z" fill="black"/>
</g>
<path d="M395.299 92.2578L395.224 92.0642L387.818 72.744C387.67 72.3637 387.403 72.0412 387.057 71.8241C386.712 71.6032 386.306 71.4975 385.897 71.522C385.487 71.5419 385.094 71.6914 384.775 71.9488C384.456 72.2062 384.227 72.5584 384.121 72.9544L379.132 88.2458H358.902L353.892 72.9544C353.785 72.5608 353.555 72.2113 353.237 71.9565C352.916 71.7024 352.524 71.5542 352.116 71.5323C351.707 71.5104 351.302 71.616 350.956 71.8343C350.611 72.0525 350.345 72.3746 350.195 72.7542L342.792 92.0642L342.718 92.2578C341.652 95.0431 341.52 98.0995 342.343 100.966C343.166 103.833 344.899 106.354 347.28 108.15L347.303 108.167L347.371 108.218L358.651 116.663L364.231 120.885L367.625 123.451C368.023 123.753 368.509 123.917 369.008 123.917C369.508 123.917 369.993 123.753 370.391 123.451L373.786 120.885L379.366 116.663L390.71 108.177L390.74 108.157C393.122 106.36 394.854 103.837 395.676 100.969C396.499 98.1012 396.366 95.0437 395.299 92.2578Z" fill="#E24329"/>
<path d="M395.3 92.258L395.225 92.0645C391.617 92.8052 388.218 94.3339 385.27 96.5415L369.008 108.836L379.367 116.663L390.711 108.177L390.741 108.157C393.123 106.36 394.855 103.837 395.678 100.969C396.5 98.1013 396.367 95.0439 395.3 92.258Z" fill="#FC6D26"/>
<path d="M358.651 116.662L364.232 120.885L367.626 123.451C368.024 123.753 368.51 123.916 369.009 123.916C369.509 123.916 369.994 123.753 370.392 123.451L373.786 120.885L379.367 116.662L369.007 108.835L358.651 116.662Z" fill="#FCA326"/>
<path d="M352.745 96.5415C349.798 94.3334 346.399 92.8045 342.792 92.0645L342.718 92.258C341.652 95.0432 341.52 98.0996 342.343 100.966C343.166 103.833 344.899 106.354 347.28 108.15L347.303 108.167L347.371 108.218L358.651 116.663L369.007 108.836L352.745 96.5415Z" fill="#FC6D26"/>
<g clip-path="url(#clip1_499_1471)">
<path d="M633.995 59.8478C633.477 59.8739 632.97 60.0022 632.503 60.2252L612.15 69.9503C611.623 70.2019 611.16 70.568 610.796 71.0213C610.431 71.4747 610.174 72.0037 610.044 72.569L605.023 94.414C604.907 94.9174 604.894 95.4386 604.984 95.947C605.075 96.4554 605.268 96.9405 605.551 97.3737C605.62 97.4796 605.694 97.5822 605.772 97.6809L619.86 115.197C620.225 115.65 620.688 116.016 621.215 116.268C621.741 116.519 622.318 116.65 622.903 116.65L645.495 116.644C646.08 116.645 646.657 116.515 647.183 116.264C647.71 116.013 648.173 115.647 648.538 115.194L662.621 97.6757C662.986 97.2222 663.243 96.693 663.373 96.1274C663.503 95.5619 663.503 94.9744 663.373 94.4088L658.344 72.5638C658.214 71.9985 657.957 71.4695 657.592 71.0161C657.228 70.5628 656.765 70.1967 656.238 69.9451L635.882 60.2252C635.295 59.9446 634.646 59.8149 633.995 59.8478Z" fill="#326CE5"/>
<path d="M634.196 67.2832C633.523 67.2833 632.978 67.8893 632.978 68.6368C632.978 68.6483 632.98 68.6592 632.981 68.6706C632.98 68.7722 632.975 68.8946 632.978 68.983C632.994 69.4142 633.088 69.7442 633.145 70.1414C633.247 70.9916 633.333 71.6963 633.28 72.3514C633.228 72.5984 633.046 72.8243 632.884 72.9813L632.856 73.4967C632.125 73.5573 631.389 73.6682 630.653 73.8351C627.49 74.5534 624.767 76.1828 622.693 78.3827C622.559 78.2909 622.323 78.1221 622.253 78.0704C622.036 78.0997 621.816 78.1668 621.53 78.0001C620.984 77.6331 620.488 77.1265 619.887 76.5163C619.612 76.2244 619.412 75.9465 619.085 75.6651C619.011 75.6012 618.898 75.5148 618.815 75.4491C618.559 75.2452 618.257 75.1388 617.966 75.1289C617.592 75.1161 617.231 75.2625 616.995 75.5584C616.576 76.0844 616.71 76.8885 617.294 77.3545C617.3 77.3592 617.307 77.3629 617.313 77.3675C617.393 77.4326 617.491 77.5161 617.565 77.5706C617.912 77.8268 618.229 77.958 618.575 78.1615C619.304 78.6114 619.908 78.9845 620.387 79.4344C620.574 79.6338 620.607 79.9852 620.632 80.1372L621.022 80.486C618.932 83.6317 617.964 87.5172 618.536 91.4762L618.026 91.6246C617.891 91.7982 617.701 92.0714 617.503 92.153C616.876 92.3504 616.17 92.4229 615.319 92.5122C614.919 92.5455 614.574 92.5256 614.15 92.6059C614.057 92.6236 613.927 92.6575 613.825 92.6814C613.821 92.6822 613.818 92.6832 613.814 92.684C613.809 92.6853 613.801 92.688 613.796 92.6892C613.078 92.8627 612.617 93.5227 612.765 94.173C612.914 94.8234 613.615 95.2189 614.337 95.0632C614.343 95.062 614.35 95.0618 614.356 95.0606C614.364 95.0588 614.371 95.0548 614.379 95.0528C614.48 95.0307 614.606 95.0061 614.694 94.9825C615.111 94.871 615.413 94.707 615.787 94.5635C616.593 94.2743 617.261 94.0328 617.911 93.9387C618.183 93.9174 618.469 94.1063 618.612 94.186L619.143 94.0949C620.365 97.8835 622.926 100.946 626.168 102.867L625.947 103.398C626.027 103.604 626.115 103.883 626.055 104.087C625.819 104.7 625.414 105.347 624.953 106.069C624.729 106.402 624.501 106.661 624.299 107.043C624.251 107.134 624.19 107.274 624.143 107.371C623.83 108.041 624.06 108.812 624.661 109.102C625.266 109.393 626.018 109.086 626.343 108.414C626.343 108.413 626.345 108.413 626.345 108.412C626.346 108.411 626.345 108.41 626.345 108.409C626.392 108.314 626.457 108.189 626.496 108.099C626.669 107.704 626.726 107.365 626.848 106.983C627.17 106.173 627.347 105.324 627.791 104.794C627.912 104.649 628.11 104.593 628.316 104.538L628.592 104.039C631.419 105.124 634.583 105.415 637.744 104.697C638.465 104.534 639.161 104.322 639.834 104.067C639.912 104.205 640.056 104.469 640.095 104.536C640.304 104.604 640.531 104.639 640.717 104.913C641.049 105.48 641.276 106.151 641.553 106.962C641.674 107.344 641.734 107.683 641.907 108.079C641.946 108.169 642.011 108.296 642.058 108.391C642.382 109.064 643.136 109.373 643.742 109.081C644.343 108.791 644.573 108.02 644.26 107.35C644.213 107.253 644.149 107.113 644.101 107.022C643.899 106.64 643.671 106.384 643.448 106.051C642.986 105.329 642.604 104.73 642.367 104.117C642.268 103.8 642.384 103.604 642.461 103.398C642.415 103.345 642.316 103.047 642.258 102.906C645.628 100.916 648.114 97.74 649.281 94.0715C649.439 94.0962 649.713 94.1447 649.802 94.1626C649.985 94.0417 650.153 93.8841 650.484 93.9101C651.134 94.0042 651.802 94.2458 652.608 94.5348C652.982 94.6784 653.284 94.845 653.701 94.9565C653.789 94.9801 653.915 95.0021 654.016 95.0242C654.024 95.0262 654.031 95.0301 654.039 95.032C654.045 95.0332 654.052 95.0334 654.058 95.0346C654.78 95.1901 655.482 94.7948 655.63 94.1444C655.778 93.494 655.317 92.8339 654.599 92.6606C654.495 92.6369 654.347 92.5965 654.245 92.5773C653.821 92.497 653.476 92.5168 653.076 92.4836C652.225 92.3943 651.519 92.3218 650.892 92.1244C650.637 92.0252 650.455 91.7211 650.367 91.5959L649.875 91.4528C650.13 89.6073 650.061 87.6867 649.619 85.765C649.174 83.8255 648.387 82.0515 647.337 80.4886C647.463 80.3739 647.701 80.1628 647.769 80.1008C647.788 79.8822 647.771 79.653 647.998 79.4109C648.477 78.9611 649.081 78.588 649.809 78.138C650.155 77.9346 650.475 77.8034 650.822 77.5471C650.901 77.4892 651.008 77.3974 651.09 77.3311C651.675 76.8649 651.809 76.0609 651.39 75.535C650.97 75.009 650.157 74.9595 649.573 75.4256C649.489 75.4915 649.377 75.5774 649.302 75.6417C648.975 75.9231 648.773 76.201 648.498 76.4929C647.897 77.1031 647.4 77.6122 646.855 77.9792C646.619 78.1168 646.273 78.0692 646.116 78.0599L645.652 78.3905C643.01 75.62 639.413 73.8486 635.539 73.5046C635.529 73.3422 635.514 73.0488 635.511 72.9605C635.352 72.8088 635.161 72.6792 635.113 72.3514C635.06 71.6963 635.148 70.9916 635.25 70.1414C635.307 69.7442 635.401 69.4142 635.417 68.983C635.421 68.885 635.415 68.7428 635.414 68.6368C635.414 67.8893 634.869 67.2831 634.196 67.2832ZM632.671 76.7324L632.309 83.1229L632.283 83.1359C632.259 83.7076 631.788 84.1642 631.211 84.1642C630.974 84.1642 630.755 84.0882 630.578 83.9585L630.568 83.9637L625.328 80.2491C626.938 78.6655 628.998 77.4952 631.372 76.9562C631.806 76.8578 632.239 76.7847 632.671 76.7324ZM635.724 76.7324C638.496 77.0733 641.059 78.3283 643.023 80.2517L637.817 83.9429L637.799 83.9351C637.337 84.2726 636.686 84.1888 636.326 83.7373C636.178 83.5522 636.101 83.3347 636.091 83.1151L636.086 83.1125L635.724 76.7324ZM623.427 82.6361L628.212 86.9156L628.207 86.9416C628.638 87.3171 628.702 87.9685 628.342 88.4202C628.194 88.6052 627.997 88.7293 627.785 88.7872L627.78 88.808L621.647 90.5781C621.335 87.7239 622.007 84.9494 623.427 82.6361ZM644.931 82.6387C645.642 83.791 646.181 85.0779 646.501 86.4731C646.818 87.8515 646.897 89.2275 646.766 90.5573L640.602 88.782L640.597 88.756C640.045 88.6051 639.706 88.0436 639.835 87.4805C639.887 87.2498 640.01 87.0546 640.176 86.9104L640.173 86.8974L644.931 82.6387ZM633.215 87.2462H635.175L636.393 88.769L635.956 90.6692L634.196 91.5152L632.431 90.6666L631.994 88.7664L633.215 87.2462ZM639.499 92.4576C639.582 92.4533 639.665 92.4609 639.746 92.4758L639.756 92.4628L646.1 93.5352C645.172 96.1436 643.395 98.4032 641.022 99.9154L638.559 93.9673L638.567 93.9569C638.341 93.4313 638.567 92.8149 639.087 92.5643C639.221 92.5001 639.36 92.4646 639.499 92.4576ZM628.844 92.4836C629.328 92.4904 629.763 92.8264 629.875 93.3192C629.928 93.5499 629.902 93.7785 629.815 93.9804L629.833 94.0038L627.397 99.8919C625.119 98.4302 623.305 96.2415 622.334 93.5561L628.623 92.4888L628.633 92.5018C628.704 92.4889 628.775 92.4826 628.844 92.4836ZM634.157 95.0632C634.326 95.057 634.497 95.0916 634.66 95.17C634.873 95.2726 635.037 95.4343 635.141 95.6281H635.165L638.265 101.23C637.862 101.365 637.449 101.48 637.026 101.576C634.655 102.114 632.291 101.951 630.151 101.222L633.244 95.6307H633.249C633.434 95.2838 633.786 95.0769 634.157 95.0632Z" fill="white" stroke="white" stroke-width="0.0208246"/>
</g>
<rect x="-7.2334" y="238.753" width="221.37" height="221.37" rx="21.502" fill="white" stroke="#D1D1D1" stroke-width="0.5"/>
<rect x="258.141" y="238.753" width="221.37" height="221.37" rx="21.502" fill="white" stroke="#D1D1D1" stroke-width="0.5"/>
<rect x="523.515" y="238.753" width="221.37" height="221.37" rx="21.502" fill="white" stroke="#D1D1D1" stroke-width="0.5"/>
<g clip-path="url(#clip2_499_1471)">
<path fill-rule="evenodd" clip-rule="evenodd" d="M121.883 341.72L117.021 338.514L112.966 345.288L108.249 343.909L104.095 350.248L104.308 352.243L126.889 348.082L125.578 333.974L121.883 341.72ZM100.824 335.637L104.447 335.139C105.033 335.403 105.441 335.503 106.144 335.682C107.239 335.967 108.506 336.241 110.383 335.295C110.819 335.078 111.729 334.247 112.097 333.772L126.941 331.079L128.455 349.406L103.025 353.989L100.824 335.637ZM128.398 329.034L126.932 329.313L124.118 300.229L76.1533 305.791L82.0624 353.743L87.6766 352.928C87.2282 352.288 86.5301 351.514 85.3379 350.522C83.6845 349.148 84.2693 346.815 85.2445 345.342C86.5349 342.852 93.1837 339.689 92.807 335.71C92.6719 334.263 92.4419 332.379 91.0989 331.089C91.0484 331.625 91.1391 332.141 91.1391 332.141C91.1391 332.141 90.5878 331.437 90.3127 330.478C90.0398 330.11 89.8255 329.992 89.5355 329.501C89.3287 330.069 89.356 330.729 89.356 330.729C89.356 330.729 88.9049 329.663 88.8319 328.763C88.5644 329.166 88.4968 329.931 88.4968 329.931C88.4968 329.931 87.9106 328.251 88.0444 327.346C87.7769 326.558 86.9839 324.996 87.2084 321.444C88.6722 322.469 91.8946 322.226 93.1502 320.375C93.5672 319.762 93.8524 318.089 92.9421 314.792C92.3573 312.678 90.9092 309.53 90.3448 308.336L90.2773 308.384C90.5748 309.347 91.1883 311.364 91.4237 312.342C92.1362 315.308 92.3272 316.341 91.9929 317.708C91.7083 318.897 91.0259 319.675 89.2959 320.544C87.566 321.416 85.2704 319.294 85.125 319.177C83.4442 317.838 82.1442 315.653 81.9989 314.592C81.8481 313.431 82.6683 312.733 83.0819 311.783C82.4902 311.953 81.8303 312.253 81.8303 312.253C81.8303 312.253 82.6178 311.438 83.5889 310.733C83.9909 310.467 84.227 310.298 84.6508 309.946C84.0373 309.935 83.5391 309.953 83.5391 309.953C83.5391 309.953 84.562 309.4 85.6225 308.998C84.8466 308.964 84.1041 308.992 84.1041 308.992C84.1041 308.992 86.3868 307.971 88.1898 307.222C89.4297 306.714 90.641 306.864 91.3214 307.848C92.2146 309.137 93.153 309.837 95.1415 310.271C96.3624 309.73 96.7336 309.452 98.2677 309.034C99.6182 307.549 100.679 307.357 100.679 307.357C100.679 307.357 100.152 307.839 100.012 308.597C100.778 307.994 101.617 307.49 101.617 307.49C101.617 307.49 101.292 307.892 100.989 308.529L101.059 308.633C101.953 308.098 103.003 307.675 103.003 307.675C103.003 307.675 102.703 308.055 102.351 308.546C103.024 308.541 104.39 308.575 104.921 308.635C108.051 308.704 108.7 305.292 109.901 304.864C111.406 304.327 112.078 304.002 114.641 306.519C116.84 308.681 118.559 312.549 117.706 313.416C116.99 314.135 115.579 313.135 114.015 311.186C113.189 310.153 112.564 308.933 112.271 307.382C112.024 306.073 111.062 305.313 111.062 305.313C111.062 305.313 111.62 306.554 111.62 307.65C111.62 308.249 111.696 310.486 112.655 311.742C112.56 311.925 112.516 312.65 112.411 312.789C111.294 311.44 108.897 310.474 108.506 310.189C109.829 311.274 112.871 313.765 114.039 316.152C115.144 318.409 114.493 320.478 115.052 321.014C115.211 321.167 117.428 323.93 117.854 325.318C118.598 327.737 117.899 330.279 116.925 331.856L114.205 332.28C113.808 332.169 113.539 332.114 113.183 331.907C113.379 331.559 113.77 330.691 113.774 330.512L113.621 330.243C112.774 331.442 111.356 332.606 110.179 333.275C108.637 334.148 106.86 334.014 105.703 333.656C102.42 332.643 99.3158 330.424 98.5672 329.842C98.5672 329.842 98.544 330.307 98.6853 330.411C99.5131 331.345 101.409 333.034 103.242 334.211L99.335 334.641L101.182 349.025C100.363 349.142 100.236 349.2 99.339 349.327C98.5488 346.535 97.0373 344.713 95.3851 343.651C93.9282 342.715 91.9185 342.504 89.9947 342.885L89.8712 343.028C91.2088 342.889 92.7879 343.082 94.41 344.109C96.002 345.116 97.285 347.716 97.7572 349.281C98.3618 351.282 98.7801 353.422 97.1526 355.691C95.9945 357.303 92.6138 358.194 89.8828 356.267C90.6123 357.44 91.5984 358.399 92.9257 358.58C94.8965 358.848 96.767 358.506 98.0547 357.184C99.1541 356.054 99.7369 353.691 99.5834 351.202L101.323 350.949L101.951 355.416L130.747 351.949L128.398 329.034ZM110.878 316.902C110.797 317.086 110.671 317.206 110.861 317.803L110.873 317.837L110.903 317.914L110.982 318.093C111.324 318.792 111.699 319.451 112.326 319.788C112.488 319.76 112.656 319.742 112.83 319.733C113.419 319.707 113.791 319.8 114.027 319.927C114.049 319.81 114.053 319.638 114.04 319.385C113.995 318.5 114.216 316.994 112.514 316.202C111.872 315.904 110.971 315.996 110.671 316.368C110.726 316.375 110.775 316.386 110.813 316.399C111.267 316.558 110.959 316.715 110.878 316.902ZM115.646 325.161C115.423 325.038 114.38 325.086 113.647 325.174C112.251 325.338 110.744 325.823 110.413 326.081C109.813 326.545 110.086 327.354 110.529 327.686C111.773 328.616 112.864 329.239 114.015 329.087C114.722 328.995 115.345 327.875 115.787 326.86C116.089 326.161 116.089 325.406 115.646 325.161ZM103.285 317.998C103.679 317.624 101.324 317.133 99.496 318.379C98.1482 319.298 98.1052 321.269 99.3957 322.386C99.5247 322.497 99.6311 322.575 99.7308 322.639C100.107 322.462 100.537 322.282 101.031 322.122C101.865 321.851 102.559 321.711 103.13 321.637C103.403 321.332 103.72 320.795 103.641 319.822C103.533 318.503 102.533 318.713 103.285 317.998Z" fill="#632CA6"/>
</g>
<path d="M366.64 344.936C374.152 343.609 380.357 342.511 380.428 342.496L380.558 342.468L373.465 334.032C369.565 329.392 366.373 325.578 366.373 325.556C366.373 325.514 373.696 305.347 373.738 305.275C373.751 305.251 378.735 313.856 385.819 326.133C392.451 337.627 397.918 347.105 397.969 347.193L398.062 347.355L375.521 347.352L352.981 347.349L366.64 344.936ZM339.589 342.364C339.589 342.364 342.931 336.55 347.015 329.472L354.442 316.602L363.097 309.339C367.857 305.344 371.764 302.071 371.78 302.065C371.795 302.059 371.733 302.216 371.641 302.415C371.548 302.613 367.319 311.684 362.243 322.572L353.013 342.368L346.301 342.377C342.609 342.381 339.589 342.364 339.589 342.364Z" fill="#0089D6"/>
<path d="M636.964 315.472H630.86V321.021H636.964V315.472Z" fill="#099CEC"/>
<path d="M636.964 322.139H630.86V327.623H636.964V322.139Z" fill="#099CEC"/>
<path d="M629.751 315.472H623.647V321.021H629.751V315.472Z" fill="#099CEC"/>
<path d="M644.184 322.13H638.08V327.615H644.184V322.13Z" fill="#099CEC"/>
<path d="M636.964 308.759H630.86V314.364H636.964V308.759Z" fill="#099CEC"/>
<path d="M622.542 315.472H616.438V321.021H622.542V315.472Z" fill="#099CEC"/>
<path d="M629.751 322.13H623.647V327.615H629.751V322.13Z" fill="#099CEC"/>
<path d="M662.523 324.706C661.193 323.81 658.128 323.487 655.773 323.93C655.468 321.714 654.231 319.784 651.978 318.048L650.685 317.189L649.826 318.482C648.127 321.049 647.666 325.278 649.485 328.067C648.682 328.501 647.102 329.092 645.015 329.055H604.876C604.073 333.746 605.412 339.84 608.939 344.023C612.365 348.077 617.499 350.136 624.212 350.136C638.746 350.136 649.503 343.442 654.536 331.28C656.512 331.317 660.778 331.29 662.966 327.107C663.105 326.876 663.576 325.888 663.751 325.528L662.523 324.706Z" fill="#099CEC"/>
<path d="M615.336 322.13H615.327H609.232V327.615H615.336V322.13Z" fill="#099CEC"/>
<path d="M622.542 322.13H616.438V327.615H622.542V322.13Z" fill="#099CEC"/>
<defs>
<clipPath id="clip0_499_1471">
<rect width="65.7818" height="65.7818" fill="white" transform="translate(70.7432 55.3564)"/>
</clipPath>
<clipPath id="clip1_499_1471">
<rect width="60.2119" height="58.4727" fill="white" transform="translate(604.093 59.0107)"/>
</clipPath>
<clipPath id="clip2_499_1471">
<rect width="54.6307" height="58.4727" fill="white" transform="translate(76.1357 300.21)"/>
</clipPath>
</defs>
</svg>
