<svg width="710" height="430" viewBox="0 0 710 430" fill="none" xmlns="http://www.w3.org/2000/svg">
<g clip-path="url(#clip0_978_23790)">
<rect width="710" height="430" fill="white"/>
<rect x="-24.2334" y="-26.6211" width="221.37" height="221.37" rx="21.502" fill="white" stroke="#D7CDEA" stroke-width="0.5"/>
<rect x="241.141" y="-26.6211" width="221.37" height="221.37" rx="21.502" fill="white" stroke="#D7CDEA" stroke-width="0.5"/>
<rect x="506.515" y="-26.6211" width="221.37" height="221.37" rx="21.502" fill="white" stroke="#D7CDEA" stroke-width="0.5"/>
<g clip-path="url(#clip1_978_23790)">
<path d="M88.0042 57.4116C70.5885 57.4116 56.4838 71.5163 56.4838 88.9321C56.4838 102.881 65.5069 114.661 78.0356 118.835C79.6116 119.112 80.2009 118.167 80.2009 117.339C80.2009 116.591 80.1625 114.11 80.1625 111.468C72.244 112.926 70.1966 109.538 69.5662 107.768C69.2098 106.86 67.6749 104.062 66.3319 103.314C65.23 102.722 63.654 101.263 66.2935 101.225C68.7768 101.187 70.5501 103.511 71.1422 104.457C73.979 109.226 78.5097 107.883 80.3215 107.055C80.5956 105.007 81.4233 103.629 82.3306 102.839C75.3166 102.053 67.9901 99.3338 67.9901 87.2766C67.9901 83.8504 69.2098 81.0136 71.2189 78.8072C70.9037 78.0178 69.8019 74.7862 71.5341 70.4529C71.5341 70.4529 74.1736 69.6251 80.2036 73.6844C82.7253 72.9745 85.4031 72.6209 88.0837 72.6209C90.7616 72.6209 93.4422 72.9772 95.9638 73.6844C101.994 69.5867 104.631 70.4529 104.631 70.4529C106.366 74.7862 105.261 78.0178 104.946 78.8072C106.955 81.0136 108.177 83.8093 108.177 87.2766C108.177 99.3722 100.81 102.05 93.7958 102.839C94.9387 103.826 95.9227 105.717 95.9227 108.672C95.9227 112.888 95.8844 116.275 95.8844 117.339C95.8844 118.167 96.4764 119.153 98.0497 118.838C110.504 114.661 119.525 102.839 119.525 88.9321C119.525 71.5163 105.42 57.4116 88.0042 57.4116Z" fill="black"/>
</g>
<path d="M378.299 92.258L378.224 92.0645L370.818 72.7442C370.67 72.3639 370.403 72.0414 370.057 71.8244C369.712 71.6035 369.306 71.4977 368.897 71.5223C368.487 71.5422 368.094 71.6916 367.775 71.949C367.456 72.2065 367.227 72.5586 367.121 72.9547L362.132 88.246H341.902L336.892 72.9547C336.785 72.561 336.555 72.2116 336.237 71.9568C335.916 71.7027 335.524 71.5544 335.116 71.5326C334.707 71.5107 334.302 71.6162 333.956 71.8346C333.611 72.0527 333.345 72.3749 333.195 72.7544L325.792 92.0645L325.718 92.258C324.652 95.0434 324.52 98.0998 325.343 100.966C326.166 103.833 327.899 106.354 330.28 108.15L330.303 108.167L330.371 108.218L341.651 116.663L347.231 120.885L350.625 123.451C351.023 123.754 351.509 123.917 352.008 123.917C352.508 123.917 352.993 123.754 353.391 123.451L356.786 120.885L362.366 116.663L373.71 108.177L373.74 108.157C376.122 106.36 377.854 103.837 378.676 100.969C379.499 98.1014 379.366 95.0439 378.299 92.258Z" fill="#E24329"/>
<path d="M378.3 92.258L378.226 92.0645C374.618 92.8052 371.218 94.3339 368.27 96.5415L352.008 108.836L362.367 116.663L373.711 108.177L373.742 108.157C376.123 106.36 377.856 103.837 378.678 100.969C379.5 98.1013 379.368 95.0439 378.3 92.258Z" fill="#FC6D26"/>
<path d="M341.651 116.663L347.231 120.885L350.626 123.451C351.024 123.753 351.509 123.917 352.009 123.917C352.508 123.917 352.994 123.753 353.392 123.451L356.786 120.885L362.367 116.663L352.007 108.835L341.651 116.663Z" fill="#FCA326"/>
<path d="M335.745 96.5415C332.798 94.3334 329.399 92.8045 325.792 92.0645L325.718 92.258C324.652 95.0432 324.52 98.0996 325.343 100.966C326.166 103.833 327.899 106.354 330.28 108.15L330.303 108.167L330.371 108.218L341.651 116.663L352.007 108.836L335.745 96.5415Z" fill="#FC6D26"/>
<g clip-path="url(#clip2_978_23790)">
<path d="M616.995 59.848C616.477 59.8741 615.97 60.0024 615.503 60.2255L595.15 69.9506C594.623 70.2021 594.16 70.5682 593.796 71.0216C593.431 71.4749 593.174 72.0039 593.044 72.5693L588.023 94.4143C587.907 94.9176 587.894 95.4389 587.984 95.9472C588.075 96.4556 588.268 96.9408 588.551 97.374C588.62 97.4799 588.694 97.5824 588.772 97.6811L602.86 115.197C603.225 115.65 603.688 116.016 604.215 116.268C604.741 116.519 605.318 116.65 605.903 116.65L628.495 116.645C629.08 116.645 629.657 116.515 630.183 116.264C630.71 116.013 631.173 115.647 631.538 115.195L645.621 97.6759C645.986 97.2225 646.243 96.6933 646.373 96.1277C646.503 95.5621 646.503 94.9747 646.373 94.4091L641.344 72.5641C641.214 71.9987 640.957 71.4697 640.592 71.0164C640.228 70.563 639.765 70.1969 639.238 69.9454L618.882 60.2255C618.295 59.9449 617.646 59.8151 616.995 59.848Z" fill="#326CE5"/>
<path d="M617.196 67.283C616.523 67.283 615.978 67.889 615.978 68.6366C615.978 68.648 615.98 68.659 615.98 68.6704C615.979 68.772 615.974 68.8943 615.978 68.9828C615.994 69.4139 616.088 69.7439 616.144 70.1411C616.247 70.9913 616.333 71.6961 616.28 72.3511C616.228 72.5982 616.046 72.8241 615.884 72.9811L615.855 73.4965C615.124 73.5571 614.388 73.668 613.653 73.8349C610.49 74.5531 607.766 76.1825 605.693 78.3825C605.558 78.2907 605.323 78.1218 605.253 78.0701C605.036 78.0995 604.816 78.1666 604.529 77.9998C603.984 77.6328 603.488 77.1263 602.887 76.5161C602.612 76.2242 602.412 75.9462 602.085 75.6649C602.011 75.601 601.897 75.5145 601.814 75.4488C601.559 75.2449 601.257 75.1386 600.966 75.1286C600.591 75.1158 600.231 75.2622 599.995 75.5581C599.575 76.0842 599.71 76.8883 600.294 77.3543C600.3 77.359 600.306 77.3627 600.312 77.3673C600.393 77.4324 600.491 77.5158 600.565 77.5703C600.912 77.8266 601.229 77.9578 601.575 78.1612C602.304 78.6112 602.908 78.9843 603.387 79.4341C603.574 79.6336 603.606 79.985 603.631 80.137L604.022 80.4858C601.932 83.6314 600.964 87.5169 601.536 91.476L601.026 91.6243C600.891 91.798 600.701 92.0712 600.502 92.1528C599.876 92.3502 599.17 92.4227 598.318 92.512C597.919 92.5452 597.574 92.5254 597.15 92.6057C597.056 92.6234 596.926 92.6572 596.824 92.6812C596.821 92.6819 596.817 92.683 596.814 92.6838C596.808 92.6851 596.801 92.6878 596.796 92.689C596.078 92.8625 595.616 93.5225 595.765 94.1727C595.913 94.8232 596.615 95.2187 597.337 95.063C597.342 95.0618 597.35 95.0616 597.355 95.0604C597.363 95.0585 597.371 95.0546 597.379 95.0526C597.479 95.0305 597.606 95.0059 597.694 94.9823C598.111 94.8707 598.412 94.7068 598.787 94.5632C599.593 94.2741 600.261 94.0326 600.911 93.9385C601.183 93.9172 601.469 94.1061 601.611 94.1858L602.142 94.0947C603.364 97.8833 605.925 100.946 609.168 102.867L608.947 103.398C609.027 103.604 609.115 103.883 609.055 104.087C608.819 104.7 608.414 105.347 607.952 106.069C607.729 106.402 607.501 106.661 607.299 107.042C607.251 107.134 607.189 107.274 607.143 107.37C606.83 108.04 607.059 108.812 607.661 109.101C608.266 109.393 609.017 109.085 609.343 108.414C609.343 108.413 609.345 108.413 609.345 108.412C609.345 108.411 609.345 108.41 609.345 108.409C609.391 108.314 609.457 108.189 609.496 108.099C609.669 107.704 609.726 107.365 609.847 106.982C610.17 106.173 610.347 105.323 610.791 104.794C610.912 104.649 611.11 104.593 611.316 104.538L611.592 104.038C614.419 105.124 617.583 105.415 620.744 104.697C621.465 104.533 622.161 104.321 622.834 104.067C622.912 104.205 623.056 104.469 623.095 104.536C623.303 104.604 623.531 104.639 623.717 104.913C624.049 105.48 624.276 106.151 624.552 106.962C624.674 107.344 624.734 107.683 624.906 108.078C624.946 108.169 625.011 108.295 625.057 108.391C625.382 109.064 626.135 109.373 626.741 109.081C627.343 108.791 627.573 108.019 627.259 107.35C627.213 107.253 627.149 107.113 627.101 107.022C626.899 106.64 626.671 106.384 626.447 106.051C625.986 105.329 625.604 104.73 625.367 104.117C625.268 103.8 625.384 103.604 625.461 103.398C625.415 103.345 625.316 103.047 625.258 102.906C628.628 100.916 631.113 97.7398 632.281 94.0712C632.438 94.096 632.712 94.1445 632.801 94.1623C632.985 94.0415 633.153 93.8838 633.483 93.9098C634.134 94.0039 634.801 94.2455 635.608 94.5346C635.982 94.6781 636.284 94.8447 636.701 94.9563C636.789 94.9799 636.915 95.0019 637.016 95.024C637.024 95.0259 637.031 95.0299 637.039 95.0318C637.045 95.033 637.052 95.0332 637.057 95.0344C637.78 95.1899 638.481 94.7946 638.63 94.1441C638.778 93.4938 638.317 92.8337 637.599 92.6604C637.494 92.6366 637.346 92.5963 637.245 92.5771C636.821 92.4968 636.476 92.5166 636.076 92.4833C635.224 92.3941 634.519 92.3215 633.892 92.1241C633.637 92.025 633.455 91.7209 633.366 91.5957L632.874 91.4525C633.129 89.6071 633.061 87.6865 632.619 85.7648C632.174 83.8252 631.386 82.0513 630.336 80.4884C630.463 80.3736 630.701 80.1626 630.768 80.1005C630.788 79.8819 630.771 79.6527 630.997 79.4107C631.477 78.9608 632.081 78.5878 632.809 78.1378C633.155 77.9343 633.475 77.8032 633.822 77.5469C633.9 77.4889 634.007 77.3972 634.09 77.3308C634.674 76.8647 634.809 76.0607 634.389 75.5347C633.97 75.0088 633.157 74.9592 632.572 75.4254C632.489 75.4913 632.376 75.5772 632.302 75.6414C631.975 75.9228 631.773 76.2007 631.497 76.4926C630.896 77.1029 630.4 77.612 629.855 77.979C629.619 78.1165 629.272 78.0689 629.115 78.0597L628.652 78.3903C626.01 75.6197 622.413 73.8484 618.539 73.5043C618.528 73.342 618.514 73.0486 618.511 72.9603C618.352 72.8085 618.16 72.679 618.112 72.3511C618.059 71.6961 618.148 70.9913 618.25 70.1411C618.307 69.7439 618.401 69.4139 618.417 68.9828C618.42 68.8848 618.415 68.7425 618.414 68.6366C618.414 67.889 617.869 67.2829 617.196 67.283ZM615.671 76.7321L615.309 83.1227L615.283 83.1357C615.258 83.7074 614.788 84.1639 614.21 84.1639C613.974 84.1639 613.755 84.0879 613.578 83.9583L613.567 83.9635L608.327 80.2489C609.938 78.6653 611.998 77.495 614.372 76.956C614.805 76.8575 615.239 76.7845 615.671 76.7321ZM618.724 76.7321C621.496 77.073 624.059 78.328 626.023 80.2515L620.817 83.9426L620.799 83.9348C620.337 84.2723 619.686 84.1886 619.325 83.737C619.178 83.552 619.1 83.3345 619.091 83.1149L619.086 83.1123L618.724 76.7321ZM606.427 82.6359L611.212 86.9154L611.206 86.9414C611.638 87.3168 611.702 87.9683 611.342 88.4199C611.194 88.605 610.997 88.729 610.785 88.787L610.779 88.8078L604.647 90.5779C604.334 87.7237 605.007 84.9491 606.427 82.6359ZM627.931 82.6385C628.642 83.7907 629.18 85.0777 629.501 86.4728C629.817 87.8513 629.897 89.2273 629.766 90.5571L623.602 88.7818L623.597 88.7557C623.045 88.6049 622.706 88.0434 622.834 87.4802C622.887 87.2495 623.009 87.0544 623.175 86.9102L623.173 86.8971L627.931 82.6385ZM616.215 87.2459H618.175L619.393 88.7687L618.956 90.669L617.196 91.515L615.431 90.6664L614.994 88.7661L616.215 87.2459ZM622.498 92.4573C622.582 92.4531 622.665 92.4606 622.746 92.4755L622.756 92.4625L629.1 93.535C628.171 96.1433 626.395 98.403 624.021 99.9151L621.559 93.9671L621.567 93.9567C621.34 93.4311 621.567 92.8147 622.087 92.564C622.22 92.4999 622.36 92.4643 622.498 92.4573ZM611.844 92.4833C612.328 92.4901 612.762 92.8261 612.875 93.3189C612.928 93.5496 612.902 93.7782 612.815 93.9801L612.833 94.0035L610.397 99.8917C608.119 98.4299 606.304 96.2412 605.334 93.5558L611.623 92.4886L611.633 92.5016C611.704 92.4886 611.775 92.4824 611.844 92.4833ZM617.157 95.063C617.326 95.0568 617.497 95.0914 617.659 95.1697C617.873 95.2724 618.037 95.434 618.141 95.6279H618.164L621.265 101.23C620.862 101.365 620.449 101.48 620.026 101.576C617.654 102.114 615.291 101.951 613.151 101.222L616.243 95.6305H616.248C616.434 95.2836 616.786 95.0766 617.157 95.063Z" fill="white" stroke="white" stroke-width="0.0208246"/>
</g>
<rect x="-24.2334" y="238.753" width="221.37" height="221.37" rx="21.502" fill="white" stroke="#D7CDEA" stroke-width="0.5"/>
<rect x="241.141" y="238.753" width="221.37" height="221.37" rx="21.502" fill="white" stroke="#D7CDEA" stroke-width="0.5"/>
<rect x="506.515" y="238.753" width="221.37" height="221.37" rx="21.502" fill="white" stroke="#D7CDEA" stroke-width="0.5"/>
<g clip-path="url(#clip3_978_23790)">
<path fill-rule="evenodd" clip-rule="evenodd" d="M104.883 341.721L100.021 338.514L95.9659 345.288L91.249 343.909L87.0958 350.248L87.3088 352.243L109.89 348.083L108.578 333.974L104.883 341.721ZM83.8243 335.638L87.4473 335.139C88.0335 335.403 88.4416 335.503 89.1445 335.682C90.239 335.967 91.5063 336.241 93.3829 335.295C93.8197 335.079 94.7293 334.247 95.0972 333.772L109.941 331.08L111.455 349.407L86.0251 353.99L83.8243 335.638ZM111.398 329.034L109.933 329.313L107.118 300.23L59.1537 305.791L65.0627 353.743L70.6769 352.929C70.2286 352.288 69.5305 351.514 68.3383 350.522C66.6848 349.149 67.2696 346.815 68.2448 345.342C69.5353 342.853 76.184 339.689 75.8073 335.71C75.6722 334.263 75.4422 332.38 74.0993 331.089C74.0488 331.625 74.1395 332.141 74.1395 332.141C74.1395 332.141 73.5881 331.437 73.3131 330.478C73.0401 330.11 72.8259 329.993 72.5358 329.501C72.3291 330.07 72.3564 330.729 72.3564 330.729C72.3564 330.729 71.9053 329.663 71.8323 328.764C71.5648 329.166 71.4972 329.931 71.4972 329.931C71.4972 329.931 70.911 328.251 71.0448 327.346C70.7773 326.559 69.9843 324.996 70.2088 321.444C71.6726 322.47 74.8949 322.226 76.1506 320.375C76.5675 319.763 76.8528 318.089 75.9425 314.792C75.3576 312.678 73.9095 309.53 73.3452 308.336L73.2776 308.385C73.5752 309.347 74.1886 311.364 74.4241 312.342C75.1365 315.308 75.3276 316.341 74.9932 317.708C74.7087 318.897 74.0262 319.675 72.2963 320.545C70.5664 321.417 68.2707 319.294 68.1254 319.177C66.4446 317.838 65.1446 315.654 64.9993 314.593C64.8484 313.431 65.6687 312.734 66.0822 311.784C65.4906 311.953 64.8307 312.253 64.8307 312.253C64.8307 312.253 65.6182 311.438 66.5893 310.733C66.9912 310.467 67.2273 310.298 67.6511 309.946C67.0376 309.936 66.5395 309.953 66.5395 309.953C66.5395 309.953 67.5624 309.401 68.6229 308.998C67.847 308.964 67.1045 308.993 67.1045 308.993C67.1045 308.993 69.3872 307.972 71.1901 307.222C72.4301 306.714 73.6414 306.864 74.3217 307.848C75.215 309.137 76.1533 309.837 78.1419 310.271C79.3627 309.73 79.734 309.452 81.268 309.034C82.6185 307.549 83.679 307.357 83.679 307.357C83.679 307.357 83.1529 307.839 83.0123 308.598C83.7779 307.994 84.6173 307.491 84.6173 307.491C84.6173 307.491 84.2925 307.892 83.9895 308.529L84.0598 308.634C84.9531 308.098 86.0033 307.676 86.0033 307.676C86.0033 307.676 85.703 308.055 85.3509 308.546C86.0245 308.541 87.3906 308.575 87.9209 308.635C91.0511 308.704 91.7008 305.292 92.9018 304.864C94.4059 304.327 95.0781 304.002 97.6412 306.52C99.8406 308.681 101.559 312.549 100.706 313.416C99.9908 314.135 98.5795 313.136 97.0154 311.186C96.189 310.153 95.5639 308.933 95.2712 307.382C95.0241 306.073 94.0626 305.314 94.0626 305.314C94.0626 305.314 94.6208 306.554 94.6208 307.65C94.6208 308.249 94.6959 310.486 95.6554 311.742C95.5605 311.926 95.5162 312.65 95.4111 312.789C94.2946 311.44 91.8973 310.474 91.5063 310.19C92.8295 311.274 95.871 313.765 97.0393 316.152C98.1441 318.409 97.4931 320.478 98.052 321.014C98.211 321.168 100.428 323.93 100.855 325.318C101.599 327.737 100.899 330.279 99.9252 331.856L97.2058 332.28C96.808 332.169 96.5398 332.114 96.1829 331.907C96.3794 331.559 96.7704 330.691 96.7745 330.513L96.621 330.243C95.7748 331.442 94.3567 332.606 93.1789 333.275C91.6373 334.148 89.8603 334.014 88.7036 333.656C85.4205 332.643 82.3162 330.425 81.5676 329.842C81.5676 329.842 81.5444 330.307 81.6857 330.412C82.5134 331.345 84.4099 333.034 86.2428 334.211L82.3353 334.641L84.1826 349.025C83.3637 349.143 83.2361 349.2 82.3394 349.327C81.5492 346.536 80.0376 344.713 78.3855 343.651C76.9285 342.715 74.9188 342.504 72.9951 342.885L72.8716 343.028C74.2091 342.889 75.7882 343.083 77.4103 344.11C79.0024 345.116 80.2853 347.716 80.7576 349.282C81.3622 351.283 81.7805 353.423 80.153 355.691C78.9949 357.304 75.6142 358.195 72.8832 356.267C73.6127 357.44 74.5988 358.399 75.9261 358.58C77.8969 358.848 79.7674 358.506 81.0551 357.184C82.1545 356.054 82.7373 353.691 82.5837 351.202L84.3232 350.95L84.951 355.417L113.748 351.949L111.398 329.034ZM93.8784 316.902C93.7978 317.086 93.6716 317.206 93.8613 317.803L93.8729 317.837L93.9029 317.915L93.9821 318.093C94.324 318.792 94.6993 319.451 95.3265 319.788C95.4889 319.76 95.6567 319.742 95.8308 319.733C96.4197 319.707 96.7916 319.801 97.0277 319.928C97.0489 319.81 97.0536 319.638 97.0407 319.385C96.995 318.5 97.2161 316.995 95.5148 316.202C94.8726 315.904 93.9719 315.996 93.6716 316.368C93.7262 316.375 93.7753 316.387 93.8135 316.4C94.2673 316.559 93.9596 316.715 93.8784 316.902ZM98.6464 325.161C98.4232 325.038 97.3805 325.087 96.6476 325.174C95.2514 325.339 93.7439 325.823 93.4136 326.081C92.8131 326.545 93.0861 327.354 93.5297 327.687C94.7737 328.616 95.8642 329.239 97.0154 329.088C97.7224 328.995 98.3455 327.876 98.787 326.86C99.0893 326.161 99.0893 325.406 98.6464 325.161ZM86.2851 317.998C86.6789 317.624 84.3239 317.133 82.4964 318.379C81.1486 319.298 81.1056 321.269 82.3961 322.386C82.525 322.497 82.6315 322.575 82.7311 322.64C83.1078 322.462 83.5371 322.283 84.0311 322.122C84.8657 321.851 85.5597 321.711 86.1302 321.637C86.4032 321.332 86.7205 320.795 86.6414 319.823C86.5335 318.503 85.5338 318.713 86.2851 317.998Z" fill="#632CA6"/>
</g>
<path d="M349.64 344.937C357.153 343.61 363.357 342.511 363.429 342.496L363.558 342.469L356.466 334.033C352.565 329.393 349.373 325.578 349.373 325.556C349.373 325.515 356.697 305.347 356.738 305.276C356.752 305.252 361.736 313.856 368.819 326.134C375.451 337.628 380.919 347.105 380.97 347.194L381.062 347.355L358.522 347.352L335.981 347.35L349.64 344.937ZM322.589 342.364C322.589 342.364 325.931 336.551 330.016 329.472L337.442 316.602L346.097 309.339C350.857 305.344 354.764 302.071 354.78 302.065C354.796 302.059 354.733 302.217 354.641 302.415C354.549 302.614 350.32 311.685 345.243 322.573L336.013 342.369L329.301 342.377C325.61 342.382 322.589 342.364 322.589 342.364Z" fill="#0089D6"/>
<path d="M619.963 315.471H613.859V321.02H619.963V315.471Z" fill="#099CEC"/>
<path d="M619.963 322.138H613.859V327.623H619.963V322.138Z" fill="#099CEC"/>
<path d="M612.75 315.471H606.647V321.02H612.75V315.471Z" fill="#099CEC"/>
<path d="M627.183 322.128H621.079V327.613H627.183V322.128Z" fill="#099CEC"/>
<path d="M619.963 308.758H613.859V314.363H619.963V308.758Z" fill="#099CEC"/>
<path d="M605.541 315.471H599.438V321.02H605.541V315.471Z" fill="#099CEC"/>
<path d="M612.75 322.128H606.647V327.613H612.75V322.128Z" fill="#099CEC"/>
<path d="M645.522 324.705C644.192 323.809 641.127 323.486 638.772 323.929C638.468 321.713 637.23 319.783 634.977 318.047L633.684 317.188L632.825 318.481C631.126 321.048 630.665 325.277 632.484 328.066C631.681 328.5 630.101 329.091 628.015 329.054H587.875C587.072 333.745 588.411 339.839 591.938 344.022C595.364 348.075 600.498 350.135 607.211 350.135C621.745 350.135 632.502 343.44 637.535 331.279C639.511 331.316 643.777 331.288 645.965 327.106C646.104 326.875 646.575 325.887 646.75 325.526L645.522 324.705Z" fill="#099CEC"/>
<path d="M598.336 322.128H598.326H592.232V327.613H598.336V322.128Z" fill="#099CEC"/>
<path d="M605.541 322.128H599.438V327.613H605.541V322.128Z" fill="#099CEC"/>
<rect x="-2" y="380" width="717" height="50" fill="url(#paint0_linear_978_23790)"/>
<rect x="715" y="50" width="717" height="50" transform="rotate(-180 715 50)" fill="url(#paint1_linear_978_23790)"/>
<rect width="469" height="50" transform="matrix(-4.37114e-08 -1 -1 4.37114e-08 48 442)" fill="url(#paint2_linear_978_23790)"/>
<rect width="469" height="50" transform="matrix(-4.37114e-08 1 1 4.37114e-08 660 -27)" fill="url(#paint3_linear_978_23790)"/>
</g>
<defs>
<linearGradient id="paint0_linear_978_23790" x1="384" y1="380" x2="385" y2="430" gradientUnits="userSpaceOnUse">
<stop stop-color="white" stop-opacity="0"/>
<stop offset="1" stop-color="white"/>
</linearGradient>
<linearGradient id="paint1_linear_978_23790" x1="1101" y1="50" x2="1102" y2="100" gradientUnits="userSpaceOnUse">
<stop stop-color="white" stop-opacity="0"/>
<stop offset="1" stop-color="white"/>
</linearGradient>
<linearGradient id="paint2_linear_978_23790" x1="252.488" y1="-5.39091e-07" x2="254.016" y2="49.9733" gradientUnits="userSpaceOnUse">
<stop stop-color="white" stop-opacity="0"/>
<stop offset="1" stop-color="white"/>
</linearGradient>
<linearGradient id="paint3_linear_978_23790" x1="252.488" y1="-5.39091e-07" x2="254.016" y2="49.9733" gradientUnits="userSpaceOnUse">
<stop stop-color="white" stop-opacity="0"/>
<stop offset="1" stop-color="white"/>
</linearGradient>
<clipPath id="clip0_978_23790">
<rect width="710" height="430" fill="white"/>
</clipPath>
<clipPath id="clip1_978_23790">
<rect width="65.7818" height="65.7818" fill="white" transform="translate(53.7429 55.356)"/>
</clipPath>
<clipPath id="clip2_978_23790">
<rect width="60.2119" height="58.4727" fill="white" transform="translate(587.093 59.0105)"/>
</clipPath>
<clipPath id="clip3_978_23790">
<rect width="54.6307" height="58.4727" fill="white" transform="translate(59.1357 300.21)"/>
</clipPath>
</defs>
</svg>
