<svg width="361" height="179" viewBox="0 0 361 179" fill="none" xmlns="http://www.w3.org/2000/svg">
<g clip-path="url(#clip0_499_1010)">
<rect width="361" height="179" fill="white"/>
<g opacity="0.5">
<circle cx="181.271" cy="111.144" r="90.5106" stroke="#8745FB" stroke-opacity="0.5" stroke-width="0.5"/>
<circle cx="180.5" cy="107.686" r="127.138" stroke="#8745FB" stroke-opacity="0.4" stroke-width="0.5"/>
<circle cx="180.5" cy="102.764" r="169.514" stroke="#8745FB" stroke-opacity="0.2" stroke-width="0.5"/>
<circle cx="180.5" cy="110.764" r="51" stroke="#8745FB" stroke-width="0.5" stroke-dasharray="3 3"/>
</g>
<g filter="url(#filter0_f_499_1010)">
<rect x="-20.8516" y="161.5" width="393" height="41.5" fill="white"/>
</g>
<g filter="url(#filter1_f_499_1010)">
<rect x="-20.8516" y="-20.5" width="393" height="48" fill="white"/>
</g>
<path fill-rule="evenodd" clip-rule="evenodd" d="M170.505 110.772C171.686 110.09 171.688 107.883 170.51 105.842C169.331 103.802 167.419 102.7 166.238 103.381C165.058 104.063 165.056 106.27 166.234 108.311C167.412 110.352 169.325 111.454 170.505 110.772ZM170.512 115.142C171.691 117.183 171.689 119.39 170.508 120.071C169.327 120.753 167.415 119.651 166.237 117.611C165.058 115.57 165.06 113.363 166.241 112.681C167.422 111.999 169.334 113.101 170.512 115.142ZM178.559 119.794C179.737 121.835 179.735 124.042 178.554 124.724C177.374 125.405 175.461 124.303 174.283 122.262C173.105 120.222 173.107 118.015 174.287 117.333C175.468 116.651 177.38 117.753 178.559 119.794ZM178.556 110.494C179.734 112.535 179.732 114.742 178.552 115.424C177.371 116.106 175.459 115.004 174.28 112.963C173.102 110.922 173.104 108.715 174.285 108.034C175.465 107.352 177.378 108.454 178.556 110.494Z" fill="#F26E7E"/>
<path fill-rule="evenodd" clip-rule="evenodd" d="M194.653 108.316C195.831 106.275 195.829 104.068 194.649 103.386C193.468 102.705 191.556 103.806 190.377 105.847C189.199 107.888 189.201 110.095 190.382 110.777C191.562 111.459 193.475 110.357 194.653 108.316ZM194.653 112.684C195.834 113.365 195.836 115.572 194.658 117.613C193.479 119.654 191.567 120.756 190.386 120.074C189.206 119.392 189.204 117.185 190.382 115.145C191.56 113.104 193.473 112.002 194.653 112.684ZM186.609 117.328C187.789 118.01 187.791 120.217 186.613 122.258C185.435 124.298 183.522 125.4 182.342 124.718C181.161 124.037 181.159 121.83 182.337 119.789C183.516 117.748 185.428 116.646 186.609 117.328ZM186.604 108.031C187.785 108.712 187.787 110.919 186.608 112.96C185.43 115.001 183.518 116.103 182.337 115.421C181.156 114.739 181.154 112.532 182.333 110.491C183.511 108.451 185.423 107.349 186.604 108.031Z" fill="#8A3391"/>
<path fill-rule="evenodd" clip-rule="evenodd" d="M184.709 95.4687C184.709 96.8321 182.798 97.9374 180.442 97.9374C178.085 97.9374 176.175 96.8321 176.175 95.4687C176.175 94.1053 178.085 93 180.442 93C182.798 93 184.709 94.1053 184.709 95.4687ZM176.664 100.108C176.664 101.472 174.754 102.577 172.397 102.577C170.04 102.577 168.13 101.472 168.13 100.108C168.13 98.7448 170.04 97.6395 172.397 97.6395C174.754 97.6395 176.664 98.7448 176.664 100.108ZM188.497 102.577C190.853 102.577 192.764 101.472 192.764 100.108C192.764 98.7448 190.853 97.6395 188.497 97.6395C186.14 97.6395 184.23 98.7448 184.23 100.108C184.23 101.472 186.14 102.577 188.497 102.577ZM184.709 104.758C184.709 106.122 182.798 107.227 180.442 107.227C178.085 107.227 176.175 106.122 176.175 104.758C176.175 103.395 178.085 102.289 180.442 102.289C182.798 102.289 184.709 103.395 184.709 104.758Z" fill="#F7BF2A"/>
</g>
<defs>
<filter id="filter0_f_499_1010" x="-40.8516" y="141.5" width="433" height="81.5" filterUnits="userSpaceOnUse" color-interpolation-filters="sRGB">
<feFlood flood-opacity="0" result="BackgroundImageFix"/>
<feBlend mode="normal" in="SourceGraphic" in2="BackgroundImageFix" result="shape"/>
<feGaussianBlur stdDeviation="10" result="effect1_foregroundBlur_499_1010"/>
</filter>
<filter id="filter1_f_499_1010" x="-40.8516" y="-40.5" width="433" height="88" filterUnits="userSpaceOnUse" color-interpolation-filters="sRGB">
<feFlood flood-opacity="0" result="BackgroundImageFix"/>
<feBlend mode="normal" in="SourceGraphic" in2="BackgroundImageFix" result="shape"/>
<feGaussianBlur stdDeviation="10" result="effect1_foregroundBlur_499_1010"/>
</filter>
<clipPath id="clip0_499_1010">
<rect width="361" height="179" fill="white"/>
</clipPath>
</defs>
</svg>
