<svg width="395" height="200" viewBox="0 0 395 200" fill="none" xmlns="http://www.w3.org/2000/svg">
<g clip-path="url(#clip0_1193_17934)">
<rect width="395" height="200" fill="white"/>
<path d="M89.6475 92.4717L209.647 92.4717" stroke="#DEDBFF"/>
<path d="M182.772 92.4717H255.897M255.897 92.4717V54.3467C255.897 48.8238 260.375 44.3467 265.897 44.3467H310.272M255.897 92.4717V121.847C255.897 127.37 260.375 131.847 265.897 131.847H302.772" stroke="#DEDBFF"/>
<rect x="8.64746" y="23.1738" width="112.75" height="137.345" rx="9.5" fill="white" stroke="#DEDBFF"/>
<rect x="301.397" y="-35.7783" width="180.25" height="116.568" rx="4.5" fill="white" stroke="#DEDBFF"/>
<rect x="301.397" y="98.0469" width="180.25" height="116.568" rx="4.5" fill="white" stroke="#DEDBFF"/>
<rect x="156.587" y="56.0967" width="71.5" height="71.5" rx="35.75" fill="white"/>
<rect x="156.587" y="56.0967" width="71.5" height="71.5" rx="35.75" stroke="#5A30C5"/>
<path d="M204.328 84.6156C199.581 84.6022 184.344 84.555 179.431 84.5403C178.557 84.5377 177.842 85.2007 177.853 86.075C177.887 88.7834 178.544 94.11 183.185 94.0275C190.772 93.8927 188.81 88.4571 191.668 88.4745H192.575C195.863 88.5605 193.583 94.0478 201.007 93.9443C205.861 93.8766 206.085 88.6066 205.901 86.0201C205.843 85.2037 205.146 84.618 204.328 84.6156Z" fill="#5A30C5"/>
<path d="M205.043 94.8266C205.633 94.4044 206.453 94.5387 206.875 95.1278C207.806 96.4271 209.271 98.6125 209.085 101.167C208.992 102.436 208.183 103.688 207.113 104.5C206 105.345 204.436 105.844 202.732 105.346C202.317 105.224 201.758 105.089 201.101 104.947L200.869 105.201C198.86 107.392 195.345 109.395 191.965 109.34C189.332 109.297 185.925 108.292 183.435 105.598L183.169 105.311C182.587 105.454 182.024 105.591 181.481 105.709L181.463 105.712L181.447 105.716C180.475 105.899 177.323 106.286 175.563 103.26C174.652 101.693 174.952 99.9676 175.452 98.6411C175.96 97.2919 176.783 96.0623 177.344 95.265C177.761 94.6721 178.58 94.53 179.173 94.9471C179.765 95.3642 179.907 96.1821 179.491 96.7749C178.947 97.5483 178.293 98.5489 177.909 99.5665C177.517 100.606 177.509 101.385 177.832 101.94C178.665 103.372 180.123 103.292 180.954 103.136C183.657 102.547 187.841 101.204 192.357 101.246C196.157 101.246 201.365 102.211 203.469 102.827C204.232 103.05 204.947 102.848 205.525 102.409C206.147 101.937 206.442 101.321 206.467 100.976C206.577 99.4666 205.696 97.9897 204.741 96.6569C204.319 96.0678 204.454 95.2488 205.043 94.8266ZM192.344 103.871C190.154 103.849 188.094 104.181 186.19 104.595C187.989 106.079 190.213 106.687 192.008 106.716C194.007 106.748 196.273 105.724 197.932 104.367C196.073 104.084 194.047 103.871 192.357 103.871H192.344ZM189.051 95.5418C189.474 94.9534 190.294 94.8187 190.883 95.2419C191.471 95.6652 191.605 96.4863 191.181 97.0748L190.32 98.2719C189.897 98.86 189.077 98.9937 188.488 98.5706C187.9 98.1473 187.767 97.3274 188.19 96.739L189.051 95.5418ZM192.972 95.2419C193.56 94.8189 194.38 94.9535 194.804 95.5418L195.665 96.739C196.088 97.3273 195.954 98.1473 195.366 98.5706C194.778 98.9938 193.957 98.8603 193.533 98.2719L192.672 97.0748C192.249 96.4863 192.384 95.6652 192.972 95.2419ZM204.332 83.3025C205.761 83.3067 207.099 84.3515 207.211 85.9275C207.306 87.276 207.314 89.4768 206.567 91.4018C206.187 92.3833 205.587 93.3507 204.65 94.0781C203.699 94.8162 202.491 95.2369 201.025 95.2573C199.014 95.2853 197.515 94.9371 196.371 94.287C195.212 93.6279 194.55 92.7318 194.096 91.9235C193.879 91.5372 193.695 91.1416 193.55 90.8443C193.393 90.5215 193.276 90.2997 193.158 90.129C193.047 89.9695 192.966 89.902 192.908 89.8676C192.87 89.8452 192.804 89.8137 192.682 89.7971L192.54 89.7868H191.659C191.529 89.7861 191.495 89.8112 191.492 89.8137C191.472 89.826 191.409 89.874 191.299 90.0393C191.184 90.2138 191.069 90.4371 190.906 90.7686C190.753 91.0775 190.563 91.4682 190.329 91.8632C189.844 92.6804 189.141 93.5675 187.959 94.2409C186.791 94.9062 185.259 95.3028 183.208 95.3393C181.777 95.3647 180.578 94.9684 179.616 94.255C178.673 93.5549 178.032 92.607 177.595 91.6376C176.734 89.728 176.558 87.5002 176.54 86.0916C176.519 84.4195 177.895 83.2236 179.436 83.2282C184.349 83.2428 199.585 83.289 204.332 83.3025ZM179.428 85.8532C179.326 85.8529 179.256 85.8894 179.218 85.9262C179.184 85.9589 179.164 85.9984 179.165 86.0582C179.182 87.358 179.352 89.1483 179.988 90.5584C180.299 91.2488 180.696 91.7864 181.181 92.1465C181.649 92.493 182.272 92.7314 183.162 92.7156C184.904 92.6846 185.972 92.3505 186.659 91.9594C187.332 91.5762 187.742 91.0802 188.072 90.5238C188.245 90.2324 188.388 89.9382 188.551 89.6074C188.703 89.2992 188.888 88.9269 189.109 88.5922C189.336 88.2485 189.647 87.8733 190.097 87.5912C190.562 87.2993 191.091 87.1595 191.668 87.1618H192.609C193.214 87.1777 193.763 87.3228 194.246 87.6091C194.721 87.8907 195.06 88.2654 195.314 88.6307C195.56 88.9848 195.753 89.371 195.911 89.6958C196.081 90.0462 196.216 90.3395 196.384 90.6379C196.699 91.1989 197.065 91.6611 197.668 92.0042C198.288 92.3565 199.287 92.6559 200.988 92.6323C201.949 92.6189 202.589 92.354 203.04 92.0042C203.504 91.6437 203.86 91.1197 204.119 90.452C204.652 89.0788 204.68 87.3514 204.592 86.1134C204.589 86.0673 204.572 86.0318 204.535 85.9993C204.493 85.9627 204.421 85.9278 204.324 85.9275C199.577 85.914 184.34 85.8678 179.428 85.8532ZM191.903 74.793C196.06 74.8501 198.792 76.2354 200.498 77.6911C201.342 78.4104 201.917 79.132 202.286 79.6854C202.471 79.9621 202.606 80.1982 202.697 80.3725C202.742 80.4593 202.777 80.531 202.802 80.5852C202.814 80.6122 202.825 80.6352 202.832 80.6532C202.836 80.6622 202.84 80.6709 202.843 80.6775C202.844 80.6807 202.845 80.6839 202.847 80.6865C202.847 80.6877 202.847 80.6892 202.848 80.6903L202.849 80.6916C202.849 80.6924 202.839 80.6979 201.761 81.1428L202.849 80.6916C203.125 81.3616 202.806 82.1301 202.136 82.4066C201.508 82.6656 200.795 82.4018 200.48 81.8157L200.425 81.699C200.426 81.7005 200.426 81.702 200.427 81.7029L200.42 81.6901C200.411 81.6714 200.395 81.6354 200.369 81.5863C200.318 81.4878 200.231 81.334 200.104 81.1428C199.847 80.7588 199.427 80.2274 198.795 79.688C197.55 78.6261 195.406 77.4666 191.867 77.418C188.361 77.3699 186.24 78.5547 185.001 79.6675C184.37 80.2346 183.948 80.8016 183.688 81.2171C183.559 81.4245 183.471 81.5927 183.418 81.7016C183.391 81.7559 183.374 81.7952 183.364 81.817C183.359 81.8278 183.357 81.8344 183.356 81.8362L183.359 81.8298C183.359 81.8297 183.359 81.8279 183.358 81.8272C183.098 82.5032 182.341 82.8413 181.664 82.5822C180.988 82.3225 180.649 81.5632 180.908 80.8864L182.071 81.3325C180.98 80.9141 180.913 80.8875 180.91 80.8851L180.911 80.88C180.912 80.8775 180.913 80.8741 180.915 80.871C180.917 80.8644 180.921 80.8559 180.925 80.8467C180.932 80.8282 180.942 80.8045 180.954 80.7762C180.979 80.7196 181.012 80.6437 181.057 80.5519C181.146 80.3683 181.279 80.1183 181.462 79.8251C181.828 79.2397 182.402 78.4741 183.246 77.7154C184.959 76.1765 187.714 74.7356 191.903 74.793Z" fill="#5A30C5"/>
<g filter="url(#filter0_f_1193_17934)">
<rect x="-19.8525" y="-20.5" width="393" height="37.5" fill="white"/>
</g>
<g filter="url(#filter1_f_1193_17934)">
<rect x="-19.8525" y="166" width="393" height="43.5" fill="white"/>
</g>
<g filter="url(#filter2_f_1193_17934)">
<rect x="401.519" y="-8" width="208" height="40.8516" transform="rotate(90 401.519 -8)" fill="white"/>
</g>
<rect x="26.8975" y="54.9712" width="40.625" height="7.5" rx="2.5" fill="#F0F0F0"/>
<rect x="73.7725" y="54.9712" width="15.625" height="7.5" rx="2.5" fill="#D7D7D7"/>
<rect x="26.8975" y="109.971" width="51.25" height="7.5" rx="2.5" fill="#EAEAEA"/>
<rect x="84.3975" y="109.971" width="15.625" height="7.5" rx="2.5" fill="#D7D7D7"/>
<rect x="88.7725" y="83.7211" width="15.625" height="7.5" rx="2.5" fill="#B59CDF"/>
<rect x="38.7725" y="69.3461" width="26.25" height="7.5" rx="2.5" fill="#A185D1"/>
<rect x="38.7725" y="124.346" width="72.5" height="7.5" rx="2.5" fill="#EAEAEA"/>
<rect x="71.2725" y="69.3461" width="36.875" height="7.5" rx="2.5" fill="#DECFF8"/>
<rect x="38.7725" y="84.3463" width="44.375" height="7.5" rx="2.5" fill="#D7D7D7"/>
</g>
<defs>
<filter id="filter0_f_1193_17934" x="-39.8525" y="-40.5" width="433" height="77.5" filterUnits="userSpaceOnUse" color-interpolation-filters="sRGB">
<feFlood flood-opacity="0" result="BackgroundImageFix"/>
<feBlend mode="normal" in="SourceGraphic" in2="BackgroundImageFix" result="shape"/>
<feGaussianBlur stdDeviation="10" result="effect1_foregroundBlur_1193_17934"/>
</filter>
<filter id="filter1_f_1193_17934" x="-39.8525" y="146" width="433" height="83.5" filterUnits="userSpaceOnUse" color-interpolation-filters="sRGB">
<feFlood flood-opacity="0" result="BackgroundImageFix"/>
<feBlend mode="normal" in="SourceGraphic" in2="BackgroundImageFix" result="shape"/>
<feGaussianBlur stdDeviation="10" result="effect1_foregroundBlur_1193_17934"/>
</filter>
<filter id="filter2_f_1193_17934" x="340.667" y="-28" width="80.8516" height="248" filterUnits="userSpaceOnUse" color-interpolation-filters="sRGB">
<feFlood flood-opacity="0" result="BackgroundImageFix"/>
<feBlend mode="normal" in="SourceGraphic" in2="BackgroundImageFix" result="shape"/>
<feGaussianBlur stdDeviation="10" result="effect1_foregroundBlur_1193_17934"/>
</filter>
<clipPath id="clip0_1193_17934">
<rect width="395" height="200" fill="white"/>
</clipPath>
</defs>
</svg>
