<svg width="666" height="513" viewBox="0 0 666 513" fill="none" xmlns="http://www.w3.org/2000/svg">
<g clip-path="url(#clip0_1335_156291)">
<g clip-path="url(#clip1_1335_156291)">
<g clip-path="url(#clip2_1335_156291)">
<path d="M280.009 40.476L65.9535 40.476C52.9868 40.476 42.4764 50.9769 42.4764 63.9246L42.4764 416.148" stroke="#dedbff" stroke-miterlimit="10"/>
<path d="M291.433 59.6215L78.9487 59.6215C68.9333 59.6215 60.8029 67.7423 60.8029 77.7482L60.8029 416.148" stroke="#dedbff" stroke-miterlimit="10"/>
<path d="M284.769 78.748L91.9631 78.7476C84.88 78.7476 79.1488 84.4693 79.1488 91.5429L79.1488 416.139" stroke="#dedbff" stroke-miterlimit="10"/>
<path d="M280.961 97.8931L104.949 97.8931C100.817 97.8931 97.4659 101.244 97.4659 105.367L97.4659 416.139" stroke="#dedbff" stroke-miterlimit="10"/>
</g>
<rect x="68.25" y="153.25" width="47.5" height="47.5" rx="7.75" fill="white"/>
<rect x="68.25" y="153.25" width="47.5" height="47.5" rx="7.75" stroke="#CECECE" stroke-width="0.5"/>
<rect x="81.0522" y="175.931" width="1.4258" height="12.4248" fill="#9077f3"/>
<rect x="78.4551" y="177.255" width="2.69883" height="9.67504" fill="#9077f3"/>
<rect x="77.0293" y="178.63" width="2.69883" height="6.82345" fill="#9077f3"/>
<rect x="82.3252" y="185.555" width="1.4258" height="2.80067" fill="#9077f3"/>
<rect x="87.9263" y="164.321" width="8.14741" height="3.25896" fill="#9077f3"/>
<rect x="86.6025" y="166.154" width="10.7953" height="1.4258" fill="#9077f3"/>
<rect width="1.4258" height="12.4248" transform="matrix(-1 0 0 1 102.745 175.932)" fill="#9077f3"/>
<rect width="2.69883" height="9.67504" transform="matrix(-1 0 0 1 105.341 177.255)" fill="#9077f3"/>
<rect width="2.69883" height="6.82345" transform="matrix(-1 0 0 1 106.767 178.63)" fill="#9077f3"/>
<rect width="1.4258" height="2.80067" transform="matrix(-1 0 0 1 101.472 185.555)" fill="#9077f3"/>
<rect x="83.751" y="186.879" width="16.3457" height="2.80067" fill="#9077f3"/>
<rect x="89.1997" y="180.005" width="1.4258" height="4.12462" fill="#9077f3"/>
<rect x="93.2734" y="180.005" width="1.4258" height="4.12462" fill="#9077f3"/>
<rect x="82.376" y="167.58" width="8.14741" height="1.32395" fill="#9077f3"/>
<rect x="81.0015" y="168.802" width="3.00436" height="1.47672" fill="#9077f3"/>
<rect x="80.3647" y="170.177" width="2.13869" height="5.7541" fill="#9077f3"/>
<rect x="82.478" y="174.429" width="2.13869" height="4.17555" fill="#9077f3"/>
<rect x="82.478" y="175.829" width="8.09648" height="2.77521" fill="#9077f3"/>
<rect x="89.2251" y="174.454" width="1.34941" height="4.15008" fill="#9077f3"/>
<rect width="8.14741" height="1.32395" transform="matrix(-1 0 0 1 101.471 167.58)" fill="#9077f3"/>
<rect width="3.00436" height="1.47672" transform="matrix(-1 0 0 1 102.846 168.802)" fill="#9077f3"/>
<rect width="2.13869" height="5.7541" transform="matrix(-1 0 0 1 103.483 170.177)" fill="#9077f3"/>
<rect width="2.13869" height="4.17555" transform="matrix(-1 0 0 1 101.37 174.429)" fill="#9077f3"/>
<rect width="8.09648" height="2.77521" transform="matrix(-1 0 0 1 101.37 175.829)" fill="#9077f3"/>
<rect width="1.34941" height="4.15008" transform="matrix(-1 0 0 1 94.6221 174.454)" fill="#9077f3"/>
<rect x="90.5234" y="172.876" width="2.74975" height="4.35377" fill="#9077f3"/>
<rect x="90.5234" y="167.58" width="2.82613" height="2.74975" fill="#9077f3"/>
<rect x="91.3125" y="170.177" width="1.37487" height="2.74975" fill="#9077f3"/>
<rect x="26.25" y="93.25" width="47.5" height="47.5" rx="7.75" fill="white"/>
<rect x="26.25" y="93.25" width="47.5" height="47.5" rx="7.75" stroke="#CECECE" stroke-width="0.5"/>
<path d="M61.3163 111.563H63.9715V117.253H61.3163V128H59.1669V122.184H56.2588V128H54.1094V122.184H45.8909V128H43.7415V122.184H40.8334V128H38.684V117.253H36.0288V111.563H38.684V106H61.3163V111.563Z" fill="#9077f3"/>
<rect x="41.7314" y="111.297" width="2.28103" height="2.28103" fill="white"/>
<rect x="55.4175" y="111.297" width="2.28103" height="2.28103" fill="white"/>
</g>
<g clip-path="url(#clip3_1335_156291)">
<path d="M139.477 265.125L139.477 479.18C139.477 492.147 149.978 502.657 162.925 502.657H515.149" stroke="#dedbff" stroke-miterlimit="10"/>
<path d="M158.622 253.701L158.622 466.185C158.622 476.2 166.743 484.331 176.749 484.331H515.149" stroke="#dedbff" stroke-miterlimit="10"/>
<path d="M177.748 260.365L177.748 453.171C177.748 460.254 183.47 465.985 190.543 465.985H515.139" stroke="#dedbff" stroke-miterlimit="10"/>
<path d="M196.894 264.173L196.894 440.185C196.894 444.317 200.245 447.668 204.367 447.668H515.139" stroke="#dedbff" stroke-miterlimit="10"/>
</g>
<rect x="362.77" y="258.483" width="234.205" height="254.199" rx="6.61009" fill="white" stroke="#dedbff" stroke-width="0.952055"/>
<path d="M393.329 311.294C395.072 311.294 396.057 311.872 396.057 313.593V317.306C396.057 317.856 396.278 317.999 396.964 317.877V318.705C396.664 318.798 396.386 318.841 396.143 318.841C395.315 318.841 395.036 318.356 395.007 317.784H394.893C394.272 318.291 393.544 318.877 392.287 318.877C390.916 318.877 390.059 318.17 390.059 316.92C390.059 314.9 392.28 314.65 394.943 314.657V313.671C394.943 312.372 394.229 312.115 393.172 312.129C392.18 312.136 391.409 312.386 391.387 313.472L391.38 313.8H390.309V313.414C390.309 312.179 391.173 311.294 393.329 311.294ZM391.223 316.799C391.223 317.592 391.794 318.006 392.751 318.006C393.629 318.006 394.272 317.649 394.943 317.163V315.357C394.672 315.335 394.408 315.321 394.186 315.321C392.358 315.321 391.223 315.685 391.223 316.799ZM405.62 316.535C405.227 318.056 403.97 318.877 402.285 318.877C400.179 318.877 398.679 317.577 398.679 315.064C398.679 312.593 400.143 311.294 402.342 311.294C404.092 311.294 405.42 312.108 405.627 313.829L404.506 313.921C404.327 312.715 403.442 312.243 402.321 312.243C400.7 312.243 399.843 313.243 399.843 315.064C399.843 316.999 400.8 317.927 402.292 317.927C403.399 317.927 404.213 317.413 404.542 316.335L405.62 316.535ZM411.419 318.705H410.363V312.965C410.363 312.4 410.034 312.258 409.734 312.258C409.284 312.258 408.949 312.572 408.706 312.965V318.705H407.642V311.465H408.513L408.62 312.336H408.699C409.013 311.701 409.542 311.308 410.234 311.308C410.884 311.308 411.334 311.644 411.412 312.336H411.477C411.784 311.701 412.291 311.308 412.969 311.308C413.669 311.308 414.14 311.715 414.14 312.543V318.705H413.083V312.965C413.083 312.4 412.755 312.258 412.448 312.258C411.998 312.258 411.662 312.579 411.419 312.972V318.705ZM416.105 315.085C416.105 312.665 417.533 311.294 419.768 311.294C421.796 311.294 422.996 312.365 422.996 314.443V315.057H417.262V315.085C417.262 316.985 418.19 317.927 419.733 317.927C420.754 317.927 421.503 317.513 421.882 316.62L422.96 316.82C422.489 318.091 421.389 318.877 419.733 318.877C417.562 318.877 416.105 317.549 416.105 315.085ZM417.333 314.25H421.903C421.889 312.85 420.961 312.243 419.725 312.243C418.412 312.243 417.576 312.957 417.333 314.25ZM426.032 314.55V313.571H430.602V314.55H426.032ZM436.894 311.294C438.637 311.294 439.622 311.872 439.622 313.593V317.306C439.622 317.856 439.843 317.999 440.529 317.877V318.705C440.229 318.798 439.95 318.841 439.708 318.841C438.879 318.841 438.601 318.356 438.572 317.784H438.458C437.837 318.291 437.109 318.877 435.852 318.877C434.481 318.877 433.624 318.17 433.624 316.92C433.624 314.9 435.845 314.65 438.508 314.657V313.671C438.508 312.372 437.794 312.115 436.737 312.129C435.745 312.136 434.974 312.386 434.952 313.472L434.945 313.8H433.874V313.414C433.874 312.179 434.738 311.294 436.894 311.294ZM434.788 316.799C434.788 317.592 435.359 318.006 436.316 318.006C437.194 318.006 437.837 317.649 438.508 317.163V315.357C438.237 315.335 437.973 315.321 437.751 315.321C435.923 315.321 434.788 315.685 434.788 316.799ZM449.242 315.078C449.242 317.492 448.099 318.877 446.3 318.877C445.222 318.877 444.493 318.384 443.979 317.72H443.894V321.512H442.773V311.465H443.708L443.808 312.45H443.972C444.536 311.779 445.293 311.294 446.357 311.294C448.178 311.294 449.242 312.729 449.242 315.078ZM443.894 316.899C444.551 317.656 445.2 317.913 445.914 317.913C447.278 317.913 448.085 316.97 448.085 315.078C448.085 313.236 447.328 312.265 445.936 312.265C445.229 312.265 444.579 312.529 443.894 313.286V316.899ZM457.955 315.078C457.955 317.492 456.812 318.877 455.013 318.877C453.935 318.877 453.206 318.384 452.692 317.72H452.607V321.512H451.486V311.465H452.421L452.521 312.45H452.685C453.249 311.779 454.006 311.294 455.07 311.294C456.891 311.294 457.955 312.729 457.955 315.078ZM452.607 316.899C453.264 317.656 453.913 317.913 454.627 317.913C455.991 317.913 456.798 316.97 456.798 315.078C456.798 313.236 456.041 312.265 454.649 312.265C453.942 312.265 453.292 312.529 452.607 313.286V316.899ZM461.07 320.134H459.856L464.983 308.28H466.189L461.07 320.134ZM475.381 315.078C475.381 317.492 474.238 318.877 472.439 318.877C471.361 318.877 470.632 318.384 470.118 317.72H470.033V321.512H468.912V311.465H469.847L469.947 312.45H470.111C470.675 311.779 471.432 311.294 472.496 311.294C474.317 311.294 475.381 312.729 475.381 315.078ZM470.033 316.899C470.689 317.656 471.339 317.913 472.053 317.913C473.417 317.913 474.224 316.97 474.224 315.078C474.224 313.236 473.467 312.265 472.075 312.265C471.368 312.265 470.718 312.529 470.033 313.286V316.899ZM480.181 311.465L480.295 312.486H480.452C481.252 311.722 482.002 311.301 483.308 311.301C483.565 311.301 483.787 311.315 484.001 311.351V312.386C482.316 312.386 481.495 312.508 480.374 313.35V317.806H483.08V318.705H477.225V317.806H479.252V312.365H477.225V311.465H480.181ZM492.807 315.092C492.807 317.584 491.25 318.877 489.308 318.877C487.373 318.877 485.809 317.584 485.809 315.092C485.809 312.6 487.373 311.294 489.308 311.294C491.25 311.294 492.807 312.6 492.807 315.092ZM491.65 315.092C491.65 313.2 490.693 312.243 489.308 312.243C487.923 312.243 486.966 313.2 486.966 315.092C486.966 316.985 487.923 317.927 489.308 317.927C490.693 317.927 491.65 316.985 491.65 315.092ZM494.522 315.1C494.522 312.679 495.665 311.301 497.464 311.301C498.542 311.301 499.27 311.786 499.785 312.45H499.87V307.781H500.991V318.705H500.056L499.949 317.72H499.792C499.228 318.391 498.471 318.877 497.407 318.877C495.593 318.877 494.522 317.442 494.522 315.1ZM495.686 315.1C495.686 316.935 496.436 317.913 497.828 317.913C498.542 317.913 499.192 317.649 499.87 316.885V313.279C499.213 312.522 498.564 312.258 497.849 312.258C496.486 312.258 495.686 313.2 495.686 315.1Z" fill="black" fill-opacity="0.7"/>
<path d="M390.173 294.952H388.436V283.832H391.97C394.194 283.832 395.763 284.662 395.763 286.962C395.763 289.263 394.415 290.961 391.193 290.961H390.173V294.952ZM391.33 289.598C393.303 289.598 393.989 288.646 393.989 287.168C393.989 285.69 393.166 285.157 391.544 285.157H390.173V289.598H391.33ZM400.944 287.023L401.058 288.173H401.279C402.049 287.305 402.81 286.841 404.151 286.841C404.44 286.841 404.684 286.863 404.92 286.917V288.509C403.252 288.509 402.3 288.608 401.18 289.293V293.581H403.823V294.952H397.502V293.581H399.489V288.394H397.502V287.023H400.944ZM414.336 291.007C414.336 293.825 412.584 295.135 410.444 295.135C408.311 295.135 406.552 293.825 406.552 291.007C406.552 288.189 408.311 286.841 410.444 286.841C412.584 286.841 414.336 288.189 414.336 291.007ZM412.614 291.007C412.614 289.026 411.716 288.189 410.444 288.189C409.179 288.189 408.273 289.026 408.273 291.007C408.273 292.979 409.179 293.779 410.444 293.779C411.716 293.779 412.614 292.979 412.614 291.007ZM415.846 291.007C415.846 288.493 416.927 286.848 418.953 286.848C420.111 286.848 420.88 287.374 421.352 288.044H421.451V283.299H423.142V294.952H421.687L421.573 293.939H421.36C420.819 294.609 420.035 295.142 418.892 295.142C416.881 295.142 415.846 293.474 415.846 291.007ZM417.574 291.007C417.574 292.835 418.275 293.718 419.631 293.718C420.263 293.718 420.865 293.528 421.451 293.01V288.966C420.865 288.448 420.255 288.257 419.646 288.257C418.306 288.257 417.574 289.141 417.574 291.007ZM425.627 287.023H427.318V292.302C427.318 293.459 427.904 293.764 428.635 293.764C429.481 293.764 430.174 293.36 430.745 292.736V287.023H432.436V294.952H430.981L430.859 293.794H430.638C429.968 294.526 429.153 295.127 427.858 295.127C426.457 295.127 425.627 294.426 425.627 292.751V287.023ZM442.118 292.5C441.669 294.335 440.161 295.135 438.394 295.135C436.025 295.135 434.433 293.711 434.433 290.976C434.433 288.166 436.132 286.841 438.478 286.841C440.45 286.841 441.928 287.754 442.118 289.689L440.465 289.834C440.29 288.722 439.521 288.189 438.432 288.189C436.939 288.189 436.162 289.171 436.162 290.976C436.162 292.873 437.015 293.779 438.409 293.779C439.49 293.779 440.191 293.238 440.488 292.263L442.118 292.5ZM449.127 295.127C446.781 295.135 445.822 294.449 445.822 291.73V288.394H443.643V287.023H445.822V284.647H447.512V287.023H450.955V288.394H447.512V291.685C447.512 293.276 447.992 293.657 449.31 293.657C449.927 293.657 450.544 293.551 451.138 293.406V294.861C450.559 295.028 449.858 295.127 449.127 295.127ZM453.356 294.952V293.581H456.067V288.379H453.356V287.023L457.553 286.841L457.758 287.046V293.581H460.47V294.952H453.356ZM456.608 285.264C455.907 285.264 455.42 284.837 455.42 284.16C455.42 283.482 455.907 283.07 456.608 283.07C457.317 283.07 457.796 283.482 457.796 284.16C457.796 284.837 457.317 285.264 456.608 285.264ZM470.099 291.007C470.099 293.825 468.347 295.135 466.207 295.135C464.074 295.135 462.315 293.825 462.315 291.007C462.315 288.189 464.074 286.841 466.207 286.841C468.347 286.841 470.099 288.189 470.099 291.007ZM468.377 291.007C468.377 289.026 467.479 288.189 466.207 288.189C464.942 288.189 464.036 289.026 464.036 291.007C464.036 292.979 464.942 293.779 466.207 293.779C467.479 293.779 468.377 292.979 468.377 291.007ZM478.905 294.952H477.214V289.666C477.214 288.516 476.628 288.211 475.897 288.211C475.059 288.211 474.366 288.623 473.787 289.24V294.952H472.096V287.023H473.551L473.673 288.173H473.893C474.571 287.45 475.386 286.841 476.681 286.841C478.075 286.841 478.905 287.541 478.905 289.224V294.952ZM488.627 287.023H490.257L491.544 292.423H491.666L493.159 288.097H494.218L495.589 292.423H495.726L497.013 287.023H498.574L496.579 294.952H495.155L493.646 290.26H493.547L491.956 294.952H490.615L488.627 287.023ZM499.49 290.976C499.49 288.257 501.12 286.841 503.55 286.841C505.804 286.841 507.122 288.021 507.122 290.397V291.121H501.211C501.257 292.88 502.072 293.779 503.489 293.779C504.395 293.779 505.096 293.414 505.454 292.591L507.091 292.842C506.543 294.411 505.157 295.135 503.481 295.135C501.12 295.135 499.49 293.711 499.49 290.976ZM501.295 290.055H505.469C505.469 288.767 504.646 288.189 503.496 288.189C502.339 288.189 501.539 288.79 501.295 290.055ZM516.568 290.969C516.568 293.482 515.486 295.135 513.46 295.135C512.31 295.135 511.533 294.602 511.069 293.931H510.848L510.726 294.952H509.271V283.299H510.962V288.044H511.061C511.594 287.374 512.379 286.841 513.521 286.841C515.54 286.841 516.568 288.501 516.568 290.969ZM510.962 293.01C511.549 293.52 512.15 293.718 512.767 293.718C514.108 293.718 514.847 292.835 514.847 290.969C514.847 289.141 514.146 288.257 512.783 288.257C512.158 288.257 511.549 288.455 510.962 288.973V293.01ZM531.043 286.841C533.015 286.841 534.204 287.488 534.204 289.339V293.132C534.204 293.672 534.394 293.81 535.079 293.726V294.952C534.691 295.059 534.333 295.112 534.006 295.112C533 295.112 532.68 294.617 532.619 293.977H532.452C531.85 294.579 531.035 295.135 529.832 295.135C528.407 295.135 527.486 294.335 527.486 293.002C527.486 290.778 530.03 290.481 532.513 290.512V289.43C532.513 288.295 531.858 288.013 530.913 288.021C529.984 288.021 529.306 288.318 529.299 289.24L529.291 289.56H527.752V289.156C527.752 287.8 528.674 286.841 531.043 286.841ZM529.245 292.781C529.245 293.49 529.771 293.886 530.639 293.886C531.355 293.886 531.957 293.612 532.513 293.208V291.456C532.299 291.433 532.086 291.418 531.873 291.418C530.22 291.418 529.245 291.814 529.245 292.781ZM544.449 290.969C544.449 293.482 543.368 295.135 541.342 295.135C540.192 295.135 539.415 294.602 538.95 293.931H538.844V297.846H537.153V287.023H538.608L538.714 288.044H538.943C539.476 287.374 540.26 286.841 541.403 286.841C543.421 286.841 544.449 288.501 544.449 290.969ZM538.844 293.01C539.43 293.52 540.032 293.718 540.649 293.718C541.989 293.718 542.728 292.835 542.728 290.969C542.728 289.141 542.027 288.257 540.664 288.257C540.04 288.257 539.43 288.455 538.844 288.973V293.01ZM553.743 290.969C553.743 293.482 552.662 295.135 550.636 295.135C549.486 295.135 548.709 294.602 548.244 293.931H548.138V297.846H546.447V287.023H547.901L548.008 288.044H548.237C548.77 287.374 549.554 286.841 550.697 286.841C552.715 286.841 553.743 288.501 553.743 290.969ZM548.138 293.01C548.724 293.52 549.326 293.718 549.943 293.718C551.283 293.718 552.022 292.835 552.022 290.969C552.022 289.141 551.321 288.257 549.958 288.257C549.333 288.257 548.724 288.455 548.138 288.973V293.01Z" fill="black"/>
<g clip-path="url(#clip4_1335_156291)">
<path d="M399.424 377.441H565.082C569.025 377.442 572.222 380.639 572.222 384.582V512.634H392.283V384.582C392.283 380.639 395.48 377.442 399.424 377.441Z" fill="#f5f5ff" stroke="#dedbff" stroke-width="0.952055"/>
<rect x="404.271" y="388.391" width="38.0822" height="9.52055" rx="3.80822" fill="#dedbff"/>
<rect x="447.113" y="422.664" width="79.4966" height="13.3288" rx="3.80822" fill="#dedbff"/>
<rect x="458.062" y="443.61" width="57.5993" height="13.3288" rx="3.80822" fill="#dedbff"/>
<rect x="436.879" y="475.027" width="46.6507" height="17.137" rx="3.80822" fill="#5a30c5"/>
<rect x="490.67" y="475.503" width="45.6986" height="16.1849" rx="3.33219" fill="white" stroke="#A8A8A8" stroke-width="0.952055"/>
<rect x="546.127" y="388.391" width="18.089" height="9.52055" rx="3.80822" fill="#5a30c5"/>
<rect x="522.326" y="388.391" width="18.089" height="9.52055" rx="3.80822" fill="#dedbff"/>
</g>
<rect x="0.51216" y="257.962" width="266.909" height="169.947" rx="8.23" fill="white" stroke="#dedbff" stroke-width="0.952055"/>
<rect x="20.3756" y="373.742" width="76.2937" height="33.1362" rx="8.25283" stroke="#84F1AC" stroke-width="0.906388"/>
<path d="M25.148 323.333H26.9727L29.3145 331.742H29.4209L31.7474 323.333H33.4809L30.2344 334.434H28.4097L25.148 323.333ZM36.9117 334.434H35.1782V323.333H38.706C40.9261 323.333 42.4923 324.162 42.4923 326.458C42.4923 328.754 41.1466 330.45 37.9305 330.45H36.9117V334.434ZM38.0673 329.089C40.0365 329.089 40.7208 328.138 40.7208 326.663C40.7208 325.188 39.8997 324.656 38.2802 324.656H36.9117V329.089H38.0673ZM45.6874 328.884C45.6874 331.993 46.6149 333.103 48.0595 333.103C49.3064 333.103 50.0059 332.259 50.1199 330.754L51.747 330.875C51.6557 333.286 50.234 334.609 48.0139 334.609C45.5277 334.609 43.8931 332.86 43.8931 328.884C43.8931 324.9 45.5125 323.151 48.0139 323.151C50.2188 323.151 51.6557 324.481 51.747 326.846L50.1199 326.968C50.0059 325.508 49.3064 324.656 48.0595 324.656C46.6149 324.656 45.6874 325.766 45.6874 328.884Z" fill="black"/>
<path d="M31.8111 390.877C31.8111 393.987 32.7387 395.097 34.1833 395.097C35.4302 395.097 36.1296 394.253 36.2437 392.748L37.8707 392.869C37.7795 395.28 36.3577 396.602 34.1376 396.602C31.6514 396.602 30.0168 394.854 30.0168 390.877C30.0168 386.893 31.6362 385.145 34.1376 385.145C36.3425 385.145 37.7795 386.475 37.8707 388.84L36.2437 388.961C36.1296 387.502 35.4302 386.65 34.1833 386.65C32.7387 386.65 31.8111 387.76 31.8111 390.877ZM43.0654 388.513L43.1794 389.661H43.3999C44.1678 388.794 44.9281 388.33 46.2663 388.33C46.5552 388.33 46.7985 388.353 47.0342 388.406V389.995C45.3691 389.995 44.4187 390.094 43.3011 390.779V395.059H45.9393V396.428H39.6288V395.059H41.6132V389.881H39.6288V388.513H43.0654ZM48.663 392.459C48.663 389.745 50.29 388.33 52.7154 388.33C54.9659 388.33 56.2812 389.509 56.2812 391.881V392.603H50.3813C50.4269 394.36 51.2404 395.257 52.6546 395.257C53.5594 395.257 54.2588 394.892 54.6162 394.071L56.2508 394.322C55.7034 395.888 54.3197 396.61 52.647 396.61C50.29 396.61 48.663 395.188 48.663 392.459ZM50.4649 391.539H54.6314C54.6314 390.254 53.8103 389.676 52.6622 389.676C51.5065 389.676 50.7082 390.277 50.4649 391.539ZM61.6051 388.33C63.5743 388.33 64.7604 388.977 64.7604 390.824V394.61C64.7604 395.15 64.9505 395.287 65.6348 395.204V396.428C65.247 396.534 64.8897 396.587 64.5627 396.587C63.5591 396.587 63.2398 396.093 63.179 395.454H63.0117C62.4111 396.055 61.5975 396.61 60.3963 396.61C58.9745 396.61 58.0545 395.812 58.0545 394.481C58.0545 392.261 60.5939 391.965 63.0725 391.995V390.915C63.0725 389.783 62.4187 389.501 61.4759 389.509C60.5483 389.509 59.8717 389.805 59.8641 390.725L59.8564 391.045H58.3206V390.642C58.3206 389.288 59.2406 388.33 61.6051 388.33ZM59.8108 394.261C59.8108 394.968 60.3354 395.363 61.2022 395.363C61.9169 395.363 62.5175 395.089 63.0725 394.687V392.938C62.8596 392.915 62.6468 392.9 62.4339 392.9C60.784 392.9 59.8108 393.295 59.8108 394.261ZM72.6085 396.602C70.2668 396.61 69.3088 395.926 69.3088 393.212V389.881H67.1343V388.513H69.3088V386.141H70.9967V388.513H74.4332V389.881H70.9967V393.166C70.9967 394.755 71.4757 395.135 72.791 395.135C73.4068 395.135 74.0227 395.029 74.6157 394.884V396.336C74.0379 396.504 73.3384 396.602 72.6085 396.602ZM76.4955 392.459C76.4955 389.745 78.1225 388.33 80.5479 388.33C82.7984 388.33 84.1137 389.509 84.1137 391.881V392.603H78.2137C78.2594 394.36 79.0729 395.257 80.487 395.257C81.3918 395.257 82.0913 394.892 82.4486 394.071L84.0833 394.322C83.5359 395.888 82.1521 396.61 80.4794 396.61C78.1225 396.61 76.4955 395.188 76.4955 392.459ZM78.2974 391.539H82.4638C82.4638 390.254 81.6427 389.676 80.4946 389.676C79.339 389.676 78.5407 390.277 78.2974 391.539Z" fill="#1C7D41"/>
<path d="M29.132 349.837C31.0404 349.837 32.158 350.468 32.158 352.308V356.178C32.158 356.74 32.3709 356.885 33.0856 356.778V357.828C32.7282 357.934 32.4013 357.98 32.1124 357.98C31.1696 357.98 30.8579 357.478 30.8047 356.854H30.6678C30.0368 357.425 29.2384 358.01 27.9763 358.01C26.5318 358.01 25.6118 357.235 25.6118 355.904C25.6118 353.722 28.0676 353.441 30.721 353.456V352.391C30.721 351.137 30.0139 350.856 28.9799 350.863C27.9915 350.871 27.2388 351.152 27.2236 352.194V352.528H25.8779V352.118C25.8779 350.78 26.7979 349.837 29.132 349.837ZM27.1172 355.729C27.1172 356.505 27.6798 356.923 28.6226 356.923C29.4437 356.923 30.0824 356.604 30.721 356.14V354.3C30.4777 354.277 30.2268 354.262 29.9987 354.262C28.2044 354.262 27.1172 354.657 27.1172 355.729ZM34.0757 350.019H35.4519L36.7064 355.623H36.8357L38.1814 351.221H39.1546L40.4091 355.623H40.5383L41.7852 350.019H43.1082L41.253 357.828H39.9757L38.6452 353.129H38.5387L37.117 357.828H35.9309L34.0757 350.019ZM47.8998 349.837C49.9603 349.837 51.1463 350.582 51.2072 352.163L49.8994 352.255C49.8006 351.365 49.1163 350.909 47.801 350.909C46.6149 350.909 45.8698 351.259 45.8698 351.996C45.8698 352.665 46.5009 352.939 48.242 353.296C50.3252 353.722 51.2984 354.201 51.2984 355.562C51.2984 357.029 50.1351 358.003 47.839 358.003C45.6798 358.003 44.4481 357.387 44.0983 355.562L45.4213 355.395C45.7862 356.763 46.7822 356.892 47.9075 356.892C49.3064 356.892 49.8614 356.337 49.8614 355.722C49.8614 355.037 49.2076 354.794 47.3524 354.414C45.4745 354.026 44.4937 353.463 44.4937 352.125C44.4937 350.734 45.5505 349.837 47.8998 349.837ZM57.1697 358.056C56.3866 358.056 55.7632 357.539 55.7632 356.687C55.7632 355.82 56.3866 355.319 57.1697 355.319C57.9452 355.319 58.5687 355.82 58.5687 356.687C58.5687 357.539 57.9452 358.056 57.1697 358.056ZM57.1697 352.141C56.3866 352.141 55.7632 351.624 55.7632 350.772C55.7632 349.905 56.3866 349.403 57.1697 349.403C57.9452 349.403 58.5687 349.905 58.5687 350.772C58.5687 351.624 57.9452 352.141 57.1697 352.141ZM62.6153 353.912C62.6153 351.274 64.1891 349.837 66.5917 349.837C68.8042 349.837 70.0967 350.993 70.0967 353.289V353.973H64.0903C64.1131 355.874 65.0178 356.832 66.5461 356.832C67.5421 356.832 68.2948 356.429 68.6673 355.539L70.0663 355.775C69.534 357.235 68.2567 358.01 66.5385 358.01C64.2043 358.01 62.6153 356.596 62.6153 353.912ZM64.1663 353.015H68.6901C68.6825 351.624 67.7701 351.015 66.5461 351.015C65.2687 351.015 64.4172 351.692 64.1663 353.015ZM79.4274 355.448C78.994 357.174 77.5722 358.01 75.7931 358.01C73.4894 358.01 71.8928 356.611 71.8928 353.904C71.8928 351.183 73.5198 349.837 75.8692 349.837C77.7775 349.837 79.2297 350.726 79.4274 352.604L78.0056 352.726C77.8231 351.525 76.9716 351.015 75.8311 351.015C74.2193 351.015 73.3754 352.034 73.3754 353.904C73.3754 355.881 74.3181 356.832 75.8007 356.832C76.9336 356.832 77.7167 356.284 78.036 355.227L79.4274 355.448ZM84.6905 346.545C86.7965 346.545 88.2031 347.465 88.2031 349.556C88.2031 351.973 86.5152 352.81 85.1238 353.616C83.3827 354.604 82.7061 355.273 82.6605 356.581H88.5908V357.828H81.2463V356.581C81.2463 354.809 82.3411 353.623 84.4015 352.46C85.6332 351.753 86.7205 351.145 86.7205 349.571C86.7205 348.331 86.0134 347.769 84.7513 347.769C83.5348 347.769 82.8125 348.293 82.6605 349.692L81.2463 349.563C81.3071 347.389 82.7973 346.545 84.6905 346.545ZM94.2797 358.056C93.4966 358.056 92.8731 357.539 92.8731 356.687C92.8731 355.82 93.4966 355.319 94.2797 355.319C95.0552 355.319 95.6786 355.82 95.6786 356.687C95.6786 357.539 95.0552 358.056 94.2797 358.056ZM94.2797 352.141C93.4966 352.141 92.8731 351.624 92.8731 350.772C92.8731 349.905 93.4966 349.403 94.2797 349.403C95.0552 349.403 95.6786 349.905 95.6786 350.772C95.6786 351.624 95.0552 352.141 94.2797 352.141ZM99.4439 346.727H100.987L103.519 355.585H103.618L106.142 346.727H107.625L104.31 357.828H102.766L99.4439 346.727ZM116.621 353.912C116.621 356.451 115.465 358.01 113.496 358.01C112.348 358.01 111.573 357.486 111.071 356.794H110.972V360.77H109.535V350.019H110.751L110.865 351.053H111.063C111.626 350.361 112.424 349.837 113.557 349.837C115.534 349.837 116.621 351.426 116.621 353.912ZM110.972 355.904C111.611 356.558 112.264 356.794 112.949 356.794C114.34 356.794 115.138 355.851 115.138 353.912C115.138 352.019 114.386 351.061 112.971 351.061C112.272 351.061 111.626 351.297 110.972 351.95V355.904ZM125.815 355.448C125.381 357.174 123.96 358.01 122.181 358.01C119.877 358.01 118.28 356.611 118.28 353.904C118.28 351.183 119.907 349.837 122.257 349.837C124.165 349.837 125.617 350.726 125.815 352.604L124.393 352.726C124.211 351.525 123.359 351.015 122.219 351.015C120.607 351.015 119.763 352.034 119.763 353.904C119.763 355.881 120.706 356.832 122.188 356.832C123.321 356.832 124.104 356.284 124.423 355.227L125.815 355.448Z" fill="black" fill-opacity="0.7"/>
<g clip-path="url(#clip5_1335_156291)">
<path d="M37.9009 290.806C37.9009 291.192 37.9429 291.505 38.0164 291.734C38.1004 291.963 38.2055 292.213 38.3525 292.484C38.405 292.567 38.4261 292.651 38.4261 292.724C38.4261 292.828 38.3631 292.932 38.2265 293.036L37.5648 293.474C37.4702 293.536 37.3757 293.568 37.2917 293.568C37.1866 293.568 37.0816 293.516 36.9766 293.422C36.8295 293.265 36.7035 293.099 36.5984 292.932C36.4934 292.755 36.3883 292.557 36.2728 292.317C35.4535 293.276 34.4241 293.755 33.1847 293.755C32.3024 293.755 31.5986 293.505 31.0839 293.005C30.5692 292.505 30.3066 291.838 30.3066 291.004C30.3066 290.119 30.6218 289.4 31.2625 288.858C31.9032 288.316 32.754 288.045 33.8359 288.045C34.193 288.045 34.5607 288.076 34.9493 288.128C35.3379 288.181 35.7371 288.264 36.1572 288.358V287.597C36.1572 286.805 35.9892 286.253 35.6636 285.93C35.3274 285.607 34.7602 285.451 33.9514 285.451C33.5838 285.451 33.2057 285.492 32.817 285.586C32.4284 285.68 32.0503 285.794 31.6826 285.94C31.5146 286.013 31.3885 286.055 31.315 286.076C31.2415 286.097 31.189 286.107 31.1469 286.107C30.9999 286.107 30.9264 286.003 30.9264 285.784V285.273C30.9264 285.107 30.9474 284.982 30.9999 284.909C31.0524 284.836 31.1469 284.763 31.294 284.69C31.6616 284.502 32.1028 284.346 32.6175 284.221C33.1322 284.086 33.6783 284.023 34.2561 284.023C35.506 284.023 36.4198 284.304 37.0081 284.867C37.5858 285.43 37.8799 286.284 37.8799 287.43V290.806H37.9009ZM33.6363 292.39C33.983 292.39 34.3401 292.328 34.7182 292.203C35.0964 292.078 35.4325 291.848 35.7161 291.536C35.8841 291.338 36.0102 291.119 36.0732 290.869C36.1362 290.619 36.1783 290.317 36.1783 289.962V289.525C35.8737 289.452 35.548 289.389 35.2119 289.348C34.8758 289.306 34.5502 289.285 34.2245 289.285C33.5208 289.285 33.0061 289.421 32.6595 289.702C32.3129 289.983 32.1448 290.379 32.1448 290.9C32.1448 291.39 32.2708 291.755 32.5334 292.005C32.7855 292.265 33.1532 292.39 33.6363 292.39ZM42.0709 293.516C41.8818 293.516 41.7558 293.484 41.6717 293.411C41.5877 293.349 41.5142 293.203 41.4512 293.005L38.9828 284.95C38.9197 284.742 38.8882 284.607 38.8882 284.534C38.8882 284.367 38.9723 284.273 39.1403 284.273H40.1697C40.3693 284.273 40.5058 284.304 40.5793 284.377C40.6634 284.44 40.7264 284.586 40.7894 284.784L42.554 291.682L44.1926 284.784C44.2452 284.575 44.3082 284.44 44.3922 284.377C44.4763 284.315 44.6233 284.273 44.8124 284.273H45.6527C45.8522 284.273 45.9888 284.304 46.0728 284.377C46.1569 284.44 46.2304 284.586 46.2724 284.784L47.932 291.765L49.7491 284.784C49.8122 284.575 49.8857 284.44 49.9592 284.377C50.0432 284.315 50.1798 284.273 50.3689 284.273H51.3457C51.5138 284.273 51.6083 284.356 51.6083 284.534C51.6083 284.586 51.5978 284.638 51.5873 284.7C51.5768 284.763 51.5558 284.846 51.5138 284.961L48.9824 293.015C48.9193 293.224 48.8458 293.359 48.7618 293.422C48.6778 293.484 48.5412 293.526 48.3626 293.526H47.4593C47.2597 293.526 47.1232 293.495 47.0392 293.422C46.9551 293.349 46.8816 293.213 46.8396 293.005L45.2115 286.284L43.5939 292.995C43.5414 293.203 43.4784 293.338 43.3944 293.411C43.3103 293.484 43.1633 293.516 42.9742 293.516H42.0709ZM55.5682 293.797C55.022 293.797 54.4758 293.734 53.9507 293.609C53.4255 293.484 53.0158 293.349 52.7427 293.193C52.5747 293.099 52.4591 292.995 52.4171 292.901C52.3751 292.807 52.3541 292.703 52.3541 292.609V292.078C52.3541 291.859 52.4381 291.755 52.5957 291.755C52.6587 291.755 52.7217 291.765 52.7847 291.786C52.8478 291.807 52.9423 291.848 53.0473 291.89C53.4045 292.046 53.7931 292.171 54.2028 292.255C54.6229 292.338 55.0326 292.38 55.4527 292.38C56.1143 292.38 56.629 292.265 56.9863 292.036C57.3434 291.807 57.5323 291.473 57.5323 291.046C57.5323 290.754 57.4378 290.515 57.2489 290.317C57.0597 290.119 56.7026 289.942 56.1879 289.775L54.6649 289.306C53.8981 289.066 53.3309 288.712 52.9843 288.243C52.6377 287.785 52.4591 287.274 52.4591 286.732C52.4591 286.295 52.5537 285.909 52.7427 285.576C52.9318 285.242 53.1839 284.95 53.499 284.721C53.8141 284.482 54.1712 284.304 54.5914 284.179C55.0116 284.054 55.4527 284.002 55.915 284.002C56.1459 284.002 56.3876 284.013 56.6186 284.044C56.8603 284.075 57.0808 284.117 57.3013 284.158C57.5114 284.211 57.7111 284.263 57.9001 284.325C58.0893 284.388 58.2362 284.45 58.3411 284.513C58.4883 284.596 58.5933 284.679 58.6564 284.773C58.7193 284.857 58.7509 284.971 58.7509 285.117V285.607C58.7509 285.826 58.6669 285.94 58.5092 285.94C58.4252 285.94 58.2887 285.899 58.1102 285.815C57.5114 285.544 56.8391 285.409 56.0935 285.409C55.4947 285.409 55.022 285.503 54.6964 285.701C54.3708 285.899 54.2028 286.201 54.2028 286.628C54.2028 286.92 54.3078 287.17 54.5179 287.368C54.7279 287.566 55.1166 287.764 55.6733 287.941L57.1648 288.41C57.9212 288.649 58.4672 288.983 58.7929 289.41C59.1186 289.837 59.276 290.327 59.276 290.869C59.276 291.317 59.1815 291.723 59.003 292.078C58.8138 292.432 58.5619 292.745 58.2362 292.995C57.9105 293.255 57.5219 293.443 57.0704 293.578C56.5977 293.724 56.1039 293.797 55.5682 293.797Z" fill="black"/>
<path fill-rule="evenodd" clip-rule="evenodd" d="M57.5527 298.861C54.0969 301.393 49.0761 302.737 44.759 302.737C38.7089 302.737 33.2574 300.518 29.1399 296.829C28.8143 296.537 29.1084 296.141 29.497 296.37C33.9506 298.934 39.4441 300.486 45.1267 300.486C48.9606 300.486 53.1726 299.694 57.0484 298.069C57.6263 297.808 58.1198 298.444 57.5527 298.861Z" fill="#FF9900"/>
<path fill-rule="evenodd" clip-rule="evenodd" d="M58.9912 297.235C58.5498 296.672 56.0709 296.964 54.9471 297.1C54.611 297.141 54.5585 296.849 54.8631 296.631C56.8377 295.255 60.0834 295.651 60.4616 296.11C60.8398 296.579 60.3567 299.798 58.5078 301.34C58.2244 301.58 57.9511 301.455 58.0772 301.142C58.4974 300.111 59.4323 297.787 58.9912 297.235Z" fill="#FF9900"/>
</g>
</g>
<defs>
<clipPath id="clip0_1335_156291">
<rect width="666" height="513" fill="white"/>
</clipPath>
<clipPath id="clip1_1335_156291">
<rect width="376.139" height="445.21" fill="white" transform="translate(445.21 40) rotate(90)"/>
</clipPath>
<clipPath id="clip2_1335_156291">
<rect width="376" height="111" fill="white" transform="translate(153 40) rotate(90)"/>
</clipPath>
<clipPath id="clip3_1335_156291">
<rect width="401" height="156" fill="white" transform="translate(104 347)"/>
</clipPath>
<clipPath id="clip4_1335_156291">
<rect width="180.89" height="136.144" fill="white" transform="translate(391.894 376.966)"/>
</clipPath>
<clipPath id="clip5_1335_156291">
<rect width="31.5818" height="22.1073" fill="white" transform="translate(29 280.737)"/>
</clipPath>
</defs>
</svg>
