<svg width="393" height="200" viewBox="0 0 393 200" fill="none" xmlns="http://www.w3.org/2000/svg">
<rect x="99.1665" y="0.5" width="194.244" height="194.244" rx="11.1698" fill="white" stroke="#DEDBFF"/>
<rect x="117.258" y="19.3459" width="157.306" height="157.306" rx="11.1698" fill="white" stroke="#DEDBFF" stroke-dasharray="15 4"/>
<path d="M232.137 53.5903H160.817C156.052 53.5903 152.189 57.4533 152.189 62.2184V133.538C152.189 138.303 156.052 142.166 160.817 142.166H232.137C236.902 142.166 240.765 138.303 240.765 133.538V62.2184C240.765 57.4533 236.902 53.5903 232.137 53.5903Z" stroke="#5A30C5" stroke-miterlimit="10"/>
<path d="M209.458 90.125H204.208V86.1875C204.208 84.0989 203.379 82.0959 201.902 80.619C200.425 79.1422 198.422 78.3125 196.333 78.3125C194.245 78.3125 192.242 79.1422 190.765 80.619C189.288 82.0959 188.458 84.0989 188.458 86.1875V90.125H183.208C182.512 90.125 181.845 90.4016 181.352 90.8938C180.86 91.3861 180.583 92.0538 180.583 92.75V111.125C180.583 111.821 180.86 112.489 181.352 112.981C181.845 113.473 182.512 113.75 183.208 113.75H209.458C210.155 113.75 210.822 113.473 211.315 112.981C211.807 112.489 212.083 111.821 212.083 111.125V92.75C212.083 92.0538 211.807 91.3861 211.315 90.8938C210.822 90.4016 210.155 90.125 209.458 90.125ZM191.083 86.1875C191.083 84.7951 191.637 83.4598 192.621 82.4752C193.606 81.4906 194.941 80.9375 196.333 80.9375C197.726 80.9375 199.061 81.4906 200.046 82.4752C201.03 83.4598 201.583 84.7951 201.583 86.1875V90.125H191.083V86.1875ZM209.458 111.125H183.208V92.75H209.458V111.125Z" fill="#5A30C5"/>
<path d="M84.6665 196L314.667 196V158L84.6665 158V196Z" fill="url(#paint0_linear_1193_17904)"/>
<path d="M310.667 0L80.6665 0V38H310.667V0Z" fill="url(#paint1_linear_1193_17904)"/>
<defs>
<linearGradient id="paint0_linear_1193_17904" x1="190.845" y1="196" x2="189.048" y2="158.07" gradientUnits="userSpaceOnUse">
<stop stop-color="white"/>
<stop offset="1" stop-color="white" stop-opacity="0"/>
</linearGradient>
<linearGradient id="paint1_linear_1193_17904" x1="204.488" y1="5.43531e-07" x2="206.285" y2="37.93" gradientUnits="userSpaceOnUse">
<stop stop-color="white"/>
<stop offset="1" stop-color="white" stop-opacity="0"/>
</linearGradient>
</defs>
</svg>
