<svg xmlns="http://www.w3.org/2000/svg" width="564" height="458" fill="none" viewBox="0 0 564 458"><rect width="564" height="458" fill="#1d1e20" rx="12"/><path fill="#242629" d="M0 12C0 5.373 5.373 0 12 0h540c6.627 0 12 5.373 12 12v33H0z"/><circle cx="22" cy="23" r="6" fill="#5f6064"/><circle cx="46" cy="23" r="6" fill="#5f6064"/><circle cx="70" cy="23" r="6" fill="#5f6064"/><path fill="#717ce1" d="M23.186 71.256V76H21.92v-4.744q0-1.032-.362-1.518-.363-.485-1.135-.485-.882 0-1.36.629-.472.622-.472 1.79V76h-1.258v-7.656h1.258v1.148q.334-.656.909-.991.574-.342 1.36-.342 1.169 0 1.744.773.58.765.58 2.324m6.051.895h-.417q-1.1 0-1.66.39-.555.383-.555 1.148 0 .69.417 1.074.418.382 1.156.382 1.039 0 1.634-.717.595-.725.601-1.996v-.28zm2.44-.52V76h-1.264v-1.135q-.403.684-1.018 1.012-.608.321-1.484.321-1.17 0-1.866-.656-.697-.663-.697-1.77 0-1.28.854-1.942.861-.663 2.523-.663h1.688v-.198q-.007-.916-.465-1.326-.458-.417-1.463-.417-.642 0-1.298.184a5.7 5.7 0 0 0-1.279.54v-1.258q.698-.266 1.333-.396a6 6 0 0 1 1.244-.137q.951 0 1.62.28.678.281 1.094.841.26.342.37.848.108.5.109 1.504m5.817-2.509q.233-.492.588-.725.363-.24.868-.239.923 0 1.299.718.383.711.383 2.687V76h-1.149v-4.382q0-1.62-.184-2.01-.178-.396-.656-.396-.548 0-.752.424-.2.417-.199 1.982V76h-1.148v-4.382q0-1.64-.198-2.023-.192-.383-.697-.383-.5 0-.698.424-.19.417-.191 1.982V76h-1.142v-7.656h1.142V69q.225-.41.56-.622.342-.219.773-.219.519 0 .861.24.349.238.54.724m11.471 2.42v.615h-5.448v.041q-.056 1.566.594 2.25.657.683 1.846.683.601 0 1.258-.192a7.7 7.7 0 0 0 1.401-.58v1.25a8 8 0 0 1-1.388.438q-.662.15-1.285.15-1.784 0-2.789-1.066-1.005-1.074-1.005-2.953 0-1.833.985-2.926.984-1.095 2.625-1.094 1.463 0 2.303.991.848.992.903 2.393m-1.258-.37a2.4 2.4 0 0 0-.581-1.366q-.492-.582-1.422-.581-.909 0-1.497.601t-.643 1.354z"/><path fill="#d8d9df" d="M52.676 68.35h2.133v2.468h-2.133zm0 5.162h2.133V76h-2.133z"/><path fill="#f26e7e" d="M71.235 69.123q.233-.492.588-.725.363-.24.868-.239.924 0 1.3.718.382.711.382 2.687V76h-1.148v-4.382q0-1.62-.185-2.01-.178-.396-.656-.396-.547 0-.752.424-.198.417-.198 1.982V76h-1.149v-4.382q0-1.64-.198-2.023-.192-.383-.697-.383-.5 0-.698.424-.19.417-.191 1.982V76h-1.142v-7.656h1.142V69q.225-.41.56-.622.342-.219.773-.219.519 0 .861.24.35.238.54.724m9.68 4.417q-.314.798-.8 2.104-.676 1.805-.909 2.202-.315.533-.786.8a2.2 2.2 0 0 1-1.1.266h-1.012V77.86h.745q.553 0 .868-.32.314-.323.8-1.662l-2.96-7.533h1.333l2.27 5.988 2.235-5.988h1.333zm3.268-2.49h7.246v1.156h-7.246zm14.389-2.44v1.23a4.8 4.8 0 0 0-1.087-.47 4 4 0 0 0-1.114-.158q-.855 0-1.278.28-.417.274-.417.841 0 .513.314.766.315.252 1.566.492l.505.096q.937.177 1.416.71.485.534.485 1.388 0 1.136-.807 1.778-.806.635-2.242.635-.567 0-1.19-.123a10 10 0 0 1-1.346-.355v-1.3q.704.363 1.347.548.643.177 1.216.177.834 0 1.292-.334.458-.342.458-.95 0-.876-1.674-1.21l-.055-.014-.472-.096q-1.086-.212-1.586-.71-.499-.507-.499-1.375 0-1.101.745-1.695.746-.602 2.126-.602.616 0 1.183.116.567.11 1.114.335m5.982-2.44v2.174h2.857v.977h-2.857v4.157q0 .847.321 1.182t1.121.335h1.415V76h-1.538q-1.415 0-1.996-.567-.58-.568-.581-1.956v-4.156h-2.044v-.977h2.044V66.17zm9.037 5.981h-.417q-1.101 0-1.661.39-.554.383-.554 1.148 0 .69.417 1.074.417.382 1.155.382 1.04 0 1.634-.717.595-.725.602-1.996v-.28zm2.44-.52V76h-1.264v-1.135q-.404.684-1.019 1.012-.609.321-1.483.321-1.17 0-1.867-.656-.697-.663-.697-1.77 0-1.28.855-1.942.861-.663 2.522-.663h1.689v-.198q-.007-.916-.465-1.326-.459-.417-1.463-.417a4.8 4.8 0 0 0-1.299.184 5.7 5.7 0 0 0-1.278.54v-1.258q.697-.266 1.333-.396a6 6 0 0 1 1.244-.137q.95 0 1.62.28a2.55 2.55 0 0 1 1.094.841q.26.342.369.848.11.5.109 1.504m8.449 3.978a4.3 4.3 0 0 1-1.045.438q-.534.15-1.094.15-1.777 0-2.782-1.066-.999-1.067-.998-2.953 0-1.887.998-2.953 1.005-1.067 2.782-1.067.553 0 1.08.144.526.142 1.059.444v1.32a3.4 3.4 0 0 0-1.004-.643 3.1 3.1 0 0 0-1.135-.198q-1.183 0-1.819.765t-.635 2.188q0 1.414.635 2.187.643.766 1.819.766.655 0 1.176-.198.519-.206.963-.63zm2.796-10.247h1.299v6.16l3.302-3.18h1.531l-3.014 2.885L133.88 76h-1.538l-2.83-3.951-.937.882V76h-1.299z"/><path fill="#717ce1" d="M23.897 89.923a2.9 2.9 0 0 0-.82-.458 2.8 2.8 0 0 0-.917-.144q-1.176 0-1.798.739-.622.738-.622 2.132V96h-1.264v-7.656h1.264v1.497q.315-.813.964-1.244.657-.438 1.552-.438.466 0 .868.116.403.117.773.363zm1.873 3.179v-4.745h1.257v4.745q0 1.032.363 1.517.369.486 1.134.486.89 0 1.36-.623.472-.629.472-1.797v-4.328h1.265V96h-1.265v-1.148a2.37 2.37 0 0 1-.916 1.004q-.573.342-1.346.342-1.176 0-1.75-.765-.575-.772-.575-2.331m14.288-1.846V96h-1.265v-4.744q0-1.032-.362-1.518-.363-.485-1.135-.485-.882 0-1.36.629-.472.622-.472 1.79V96h-1.258v-7.656h1.258v1.148q.334-.656.91-.991.573-.342 1.36-.342 1.168 0 1.743.773.58.765.58 2.324m5.449-5.086v2.174h2.857v.977h-2.857v4.157q0 .847.321 1.182t1.121.335h1.415V96h-1.538q-1.414 0-1.996-.567-.58-.568-.58-1.956v-4.156h-2.045v-.977h2.044V86.17zm6.398 2.201h3.22v6.651h2.495V96H51.37v-.978h2.495V89.35h-1.962zm1.962-2.974h1.258v1.586h-1.258zm8.935 3.726q.232-.492.588-.725.361-.24.868-.239.922 0 1.299.718.382.711.382 2.687V96H64.79v-4.382q0-1.62-.184-2.01-.178-.396-.657-.396-.546 0-.752.424-.198.417-.198 1.982V96H61.85v-4.382q0-1.64-.199-2.023-.191-.383-.697-.383-.5 0-.697.424-.192.417-.192 1.982V96h-1.141v-7.656h1.141V89q.226-.41.561-.622.342-.219.772-.219.52 0 .862.24.348.238.54.724m11.47 2.42v.615h-5.448v.041q-.054 1.566.595 2.25.657.683 1.846.683.6 0 1.257-.192a7.7 7.7 0 0 0 1.402-.58v1.25a8 8 0 0 1-1.388.438q-.663.15-1.285.15-1.785 0-2.789-1.066-1.005-1.074-1.005-2.953 0-1.833.984-2.926.985-1.095 2.626-1.094 1.463 0 2.303.991.847.992.903 2.393m-1.257-.37a2.4 2.4 0 0 0-.581-1.366q-.493-.581-1.422-.581-.909 0-1.497.601t-.643 1.354z"/><path fill="#d8d9df" d="M77.982 88.35h2.133v2.468h-2.133zm0 5.162h2.133V96h-2.133z"/><path fill="#f26e7e" d="M97.786 93.54q-.315.798-.8 2.104-.676 1.805-.909 2.202-.314.533-.786.8a2.2 2.2 0 0 1-1.1.266h-1.012V97.86h.745q.553 0 .868-.32.314-.323.8-1.662l-2.96-7.533h1.333l2.27 5.988 2.235-5.988h1.333zm7.369-1.389h-.417q-1.1 0-1.661.39-.554.383-.554 1.148 0 .69.417 1.074.418.382 1.156.382 1.038 0 1.633-.717.595-.725.602-1.996v-.28zm2.441-.52V96h-1.265v-1.135q-.403.684-1.019 1.012-.608.321-1.483.321-1.169 0-1.866-.656-.697-.663-.697-1.77 0-1.28.854-1.942.861-.663 2.523-.663h1.688v-.198q-.007-.916-.465-1.326-.458-.417-1.463-.417-.642 0-1.299.184a5.7 5.7 0 0 0-1.278.54v-1.258q.697-.266 1.333-.396a6 6 0 0 1 1.244-.137q.951 0 1.62.28.677.281 1.094.841.26.342.369.848.11.5.11 1.504m5.817-2.509q.233-.492.588-.725.363-.24.868-.239.922 0 1.299.718.383.711.383 2.687V96h-1.149v-4.382q0-1.62-.184-2.01-.178-.396-.656-.396-.548 0-.752.424-.2.417-.199 1.982V96h-1.148v-4.382q0-1.64-.198-2.023-.191-.383-.698-.383-.499 0-.697.424-.19.417-.191 1.982V96h-1.142v-7.656h1.142V89q.225-.41.56-.622.342-.219.773-.219.519 0 .861.24.348.238.54.724m8.73 4.108q0 .849.307 1.279.315.43.923.43h1.47V96h-1.593q-1.128 0-1.75-.718-.615-.724-.615-2.05v-6.925h-2.017v-.985h3.275z"/><path fill="#717ce1" d="M23.897 109.923a2.9 2.9 0 0 0-.82-.458 2.8 2.8 0 0 0-.917-.144q-1.176 0-1.798.739-.622.738-.622 2.132V116h-1.264v-7.656h1.264v1.497q.315-.813.964-1.244.657-.438 1.552-.438.466 0 .868.116.403.117.773.363zm8.196 1.62v.615h-5.449v.041q-.054 1.566.595 2.249.657.684 1.846.684.601 0 1.258-.192a7.7 7.7 0 0 0 1.401-.581v1.251a8 8 0 0 1-1.388.438q-.663.15-1.285.15-1.785 0-2.789-1.066-1.005-1.074-1.005-2.953 0-1.833.985-2.926.984-1.094 2.625-1.094 1.463 0 2.303.991.848.992.903 2.393m-1.258-.369a2.4 2.4 0 0 0-.581-1.367q-.492-.582-1.422-.581-.909 0-1.497.601t-.643 1.354zm8.688-2.564v1.231a4.8 4.8 0 0 0-1.087-.472 4 4 0 0 0-1.114-.157q-.854 0-1.278.28-.417.273-.417.841 0 .513.314.766.315.252 1.566.492l.506.096q.936.177 1.415.71.485.533.485 1.388 0 1.135-.807 1.777-.806.636-2.242.636-.567 0-1.19-.123a10 10 0 0 1-1.346-.355v-1.299q.704.362 1.347.547a4.6 4.6 0 0 0 1.217.178q.833 0 1.292-.335.458-.342.458-.951 0-.874-1.675-1.21l-.055-.013-.472-.096q-1.087-.212-1.585-.711-.5-.505-.5-1.374 0-1.101.746-1.695.744-.602 2.126-.602.615 0 1.182.116.567.11 1.114.335m5.996.616q-.958 0-1.45.745-.492.744-.492 2.208 0 1.455.492 2.208.492.745 1.45.745.964 0 1.456-.745.492-.753.492-2.208 0-1.464-.492-2.208t-1.456-.745m0-1.067q1.592 0 2.433 1.032.848 1.033.848 2.988 0 1.962-.841 2.994-.84 1.025-2.44 1.025-1.593 0-2.434-1.025-.84-1.032-.84-2.994 0-1.955.84-2.988t2.434-1.032m5.557 4.943v-4.745h1.258v4.745q0 1.032.362 1.517.37.486 1.135.485.889 0 1.36-.622.472-.629.472-1.797v-4.328h1.265V116h-1.265v-1.148a2.36 2.36 0 0 1-.916 1.004q-.575.342-1.347.342-1.175 0-1.75-.765-.573-.772-.574-2.331m14.998-3.179a2.9 2.9 0 0 0-.82-.458 2.8 2.8 0 0 0-.916-.144q-1.176 0-1.798.739-.622.738-.622 2.132V116h-1.265v-7.656h1.265v1.497q.314-.813.964-1.244.656-.438 1.552-.438.465 0 .868.116.403.117.772.363zm7.793 5.687a4.3 4.3 0 0 1-1.046.438q-.533.15-1.093.15-1.778 0-2.783-1.066-.998-1.066-.998-2.953t.998-2.953q1.005-1.067 2.783-1.067.553 0 1.08.144.525.143 1.06.444v1.319a3.4 3.4 0 0 0-1.006-.642 3.1 3.1 0 0 0-1.134-.198q-1.183 0-1.819.765-.636.766-.636 2.188 0 1.415.636 2.187.643.766 1.819.766.656 0 1.175-.198.52-.206.964-.629zm8.839-4.067v.615h-5.448v.041q-.055 1.566.595 2.249.656.684 1.845.684.601 0 1.258-.192a7.7 7.7 0 0 0 1.401-.581v1.251a8 8 0 0 1-1.387.438q-.663.15-1.285.15-1.785 0-2.79-1.066-1.005-1.074-1.004-2.953 0-1.833.984-2.926t2.625-1.094q1.462 0 2.304.991.848.992.902 2.393m-1.258-.369a2.4 2.4 0 0 0-.58-1.367q-.493-.582-1.423-.581-.909 0-1.497.601t-.642 1.354zm8.689-2.564v1.231a4.8 4.8 0 0 0-1.087-.472 4 4 0 0 0-1.114-.157q-.855 0-1.279.28-.417.273-.417.841 0 .513.315.766.314.252 1.565.492l.506.096q.936.177 1.415.71.485.533.485 1.388 0 1.135-.806 1.777-.807.636-2.242.636-.568 0-1.19-.123a10 10 0 0 1-1.347-.355v-1.299q.705.362 1.347.547a4.6 4.6 0 0 0 1.217.178q.834 0 1.292-.335.458-.342.458-.951 0-.874-1.675-1.21l-.055-.013-.471-.096q-1.088-.212-1.586-.711-.5-.505-.5-1.374.001-1.101.746-1.695.745-.602 2.126-.602.615 0 1.182.116.568.11 1.115.335"/><path fill="#d8d9df" d="M94.854 108.351h2.132v2.467h-2.133zm0 5.161h2.132V116h-2.133z"/><path fill="#717ce1" d="M56.019 132.179q0-1.464-.465-2.208t-1.374-.745q-.917 0-1.388.752-.472.744-.472 2.201 0 1.45.472 2.201.471.752 1.388.752.909 0 1.374-.745t.465-2.208m-3.699-2.858q.3-.56.828-.861a2.46 2.46 0 0 1 1.23-.301q1.38 0 2.174 1.067.793 1.059.793 2.925 0 1.894-.8 2.974-.794 1.073-2.18 1.073a2.44 2.44 0 0 1-1.21-.294q-.52-.3-.835-.868V136h-1.258v-10.637h1.258zm7.192 3.781v-4.745h1.258v4.745q0 1.032.362 1.517.369.486 1.135.485.888 0 1.36-.622.471-.629.472-1.797v-4.328h1.264V136H64.1v-1.148a2.36 2.36 0 0 1-.916 1.004q-.575.342-1.347.342-1.176 0-1.75-.765-.574-.772-.574-2.331m14.354 2.508a4.3 4.3 0 0 1-1.046.438q-.533.15-1.093.15-1.778 0-2.783-1.066-.998-1.066-.998-2.953t.998-2.953q1.005-1.067 2.783-1.067.553 0 1.08.144.525.143 1.06.444v1.319a3.4 3.4 0 0 0-1.006-.642 3.1 3.1 0 0 0-1.134-.198q-1.183 0-1.819.765-.636.766-.636 2.188 0 1.415.636 2.187.643.766 1.819.766.656 0 1.175-.198.52-.206.964-.629zm2.796-10.247h1.299v6.159l3.302-3.178h1.53l-3.014 2.885L83.267 136h-1.538l-2.83-3.951-.937.882V136h-1.299zm14.479 6.18v.615h-5.449v.041q-.054 1.566.595 2.249.657.684 1.846.684.6 0 1.258-.192a7.7 7.7 0 0 0 1.401-.581v1.251a8 8 0 0 1-1.388.438q-.663.15-1.285.15-1.784 0-2.789-1.066-1.005-1.074-1.005-2.953 0-1.833.985-2.926.984-1.094 2.624-1.094 1.464 0 2.304.991.847.992.903 2.393m-1.258-.369a2.4 2.4 0 0 0-.581-1.367q-.492-.582-1.422-.581-.909 0-1.497.601t-.643 1.354zm6.234-5.004v2.174h2.858v.977h-2.858v4.157q0 .848.322 1.182.32.335 1.12.335h1.416V136h-1.538q-1.416 0-1.997-.567-.58-.568-.58-1.955v-4.157h-2.045v-.977h2.044v-2.174z"/><path fill="#d8d9df" d="M103.289 128.351h2.133v2.467h-2.133zm0 5.161h2.133V136h-2.133z"/><path fill="#717ce1" d="M87.683 146.17v2.174h2.857v.977h-2.857v4.157q0 .848.32 1.182.323.335 1.122.335h1.415V156h-1.538q-1.415 0-1.996-.567-.581-.568-.581-1.955v-4.157H84.38v-.977h2.044v-2.174zm10.103 7.369q-.315.8-.8 2.106-.676 1.804-.909 2.201-.314.533-.786.8a2.2 2.2 0 0 1-1.1.266h-1.012v-1.053h.745q.553 0 .868-.321t.8-1.661l-2.96-7.533h1.333l2.27 5.988 2.235-5.988h1.333zm5.134 1.497v3.876h-1.265v-10.568h1.265v.977q.315-.567.834-.861a2.4 2.4 0 0 1 1.21-.301q1.388 0 2.174 1.073.793 1.074.793 2.974 0 1.866-.793 2.933-.794 1.059-2.174 1.059-.698 0-1.224-.294-.52-.3-.82-.868m3.691-2.857q0-1.464-.465-2.208-.458-.745-1.367-.745-.915 0-1.387.752-.472.744-.472 2.201 0 1.45.472 2.201.471.752 1.387.752.91 0 1.367-.745.465-.745.465-2.208m9.837-.636v.615H111v.041q-.054 1.566.595 2.249.656.684 1.845.684.602 0 1.258-.192a7.7 7.7 0 0 0 1.402-.581v1.251a8 8 0 0 1-1.388.438q-.663.15-1.285.15-1.784 0-2.789-1.066-1.005-1.074-1.005-2.953 0-1.833.984-2.926t2.625-1.094q1.462 0 2.304.991.848.992.902 2.393m-1.258-.369a2.4 2.4 0 0 0-.581-1.367q-.492-.582-1.421-.581-.91 0-1.498.601-.587.601-.642 1.354z"/><path fill="#d8d9df" d="M120.16 148.351h2.133v2.467h-2.133zm0 5.161h2.133V156h-2.133z"/><path fill="#f26e7e" d="M138.897 152.151h-.417q-1.1 0-1.661.39-.553.383-.553 1.148 0 .69.417 1.074.417.383 1.155.383 1.039 0 1.634-.718.594-.725.601-1.996v-.281zm2.441-.519V156h-1.265v-1.135q-.403.684-1.018 1.012-.608.321-1.484.321-1.169 0-1.866-.656-.697-.663-.697-1.771 0-1.278.854-1.941.862-.663 2.523-.663h1.688v-.198q-.006-.916-.465-1.326-.458-.417-1.462-.417-.643 0-1.299.184a5.7 5.7 0 0 0-1.279.54v-1.258q.698-.266 1.333-.396a6 6 0 0 1 1.245-.137q.95 0 1.62.28.676.281 1.093.841.26.342.37.848.108.5.109 1.504m1.196-3.288h1.244l1.333 6.186 1.094-3.951h1.073l1.108 3.951 1.333-6.186h1.244L149.172 156h-1.203l-1.224-4.197-1.217 4.197h-1.203zm15.087.266v1.231a4.8 4.8 0 0 0-1.087-.472 4 4 0 0 0-1.114-.157q-.855 0-1.278.28-.417.273-.417.841 0 .513.314.766.315.252 1.565.492l.506.096q.937.177 1.415.71.486.534.486 1.388 0 1.135-.807 1.777-.807.636-2.242.636-.567 0-1.19-.123a10.5 10.5 0 0 1-1.346-.355v-1.299a7.5 7.5 0 0 0 1.346.547q.643.178 1.217.178.834 0 1.292-.335.459-.342.458-.951 0-.874-1.675-1.21l-.054-.013-.472-.096q-1.087-.211-1.586-.711-.5-.506-.499-1.374 0-1.101.745-1.695.746-.602 2.126-.602.615 0 1.183.116.567.11 1.114.335m4.717-.259h2.133v2.467h-2.133zm0 5.161h2.133V156h-2.133zm12.154-4.902v1.231a4.8 4.8 0 0 0-1.087-.472 4 4 0 0 0-1.114-.157q-.855 0-1.278.28-.417.273-.417.841 0 .513.314.766.315.252 1.566.492l.505.096q.937.177 1.415.71.486.534.486 1.388 0 1.135-.807 1.777-.807.636-2.242.636-.567 0-1.189-.123a10 10 0 0 1-1.347-.355v-1.299q.703.362 1.347.547.642.178 1.216.178.834 0 1.292-.335.459-.342.458-.951 0-.874-1.674-1.21l-.055-.013-.472-.096q-1.086-.211-1.586-.711-.498-.506-.499-1.374 0-1.101.745-1.695.746-.602 2.126-.602.615 0 1.183.116.567.11 1.114.335m7.089 1.928q1.005.267 1.538.95.533.677.533 1.696 0 1.408-.95 2.214-.943.8-2.618.8-.704 0-1.436-.13a9 9 0 0 1-1.435-.376v-1.374q.698.363 1.374.54t1.347.178q1.134 0 1.743-.513.608-.512.608-1.476 0-.89-.608-1.408-.609-.527-1.648-.527h-1.052v-1.134h1.052q.95 0 1.484-.417.533-.417.533-1.163 0-.786-.499-1.203-.493-.423-1.408-.424a6 6 0 0 0-1.258.137 9 9 0 0 0-1.36.41v-1.271a17 17 0 0 1 1.469-.328q.65-.11 1.149-.11 1.49 0 2.379.752.895.745.895 1.983 0 .84-.472 1.401-.464.56-1.36.793m6.064-2.187h2.132v2.467h-2.132zm0 5.161h2.132V156h-2.132zm8.025-2.659v4.012h1.634q1.203 0 1.716-.417.512-.424.512-1.387 0-1.272-.54-1.737-.54-.471-1.688-.471zm0-3.924v2.802h1.606q.999 0 1.443-.382.451-.384.451-.964 0-.773-.444-1.114-.438-.342-1.45-.342zm-1.388-1.135h3.022q1.565 0 2.413.677.847.676.847 1.914 0 .663-.451 1.203-.444.54-1.34.677 1.005.15 1.573.861.574.704.574 2.071 0 1.388-.909 2.099-.91.704-2.707.704h-3.022zm8.634 7.308v-4.745h1.258v4.745q0 1.032.362 1.517.369.486 1.135.485.888 0 1.36-.622.472-.629.472-1.797v-4.328h1.265V156h-1.265v-1.148a2.36 2.36 0 0 1-.916 1.004q-.575.342-1.347.342-1.176 0-1.75-.765-.574-.772-.574-2.331"/><path fill="#717ce1" d="M20.212 169.226q-.957 0-1.45.745-.491.744-.492 2.208 0 1.455.493 2.208.491.744 1.449.745.964 0 1.456-.745.492-.753.492-2.208 0-1.464-.492-2.208t-1.456-.745m0-1.067q1.593 0 2.433 1.032.848 1.033.848 2.988 0 1.962-.84 2.994-.842 1.025-2.441 1.025-1.593 0-2.434-1.025-.84-1.032-.84-2.994 0-1.955.84-2.988t2.434-1.032m5.558 4.943v-4.745h1.257v4.745q0 1.032.363 1.517.369.486 1.134.485.89 0 1.36-.622.472-.629.472-1.797v-4.328h1.265V176h-1.265v-1.148a2.36 2.36 0 0 1-.916 1.004q-.573.342-1.346.342-1.176 0-1.75-.765-.575-.772-.575-2.331m11.301-6.932v2.174h2.857v.977h-2.858v4.157q0 .848.322 1.182.32.335 1.12.335h1.416V176h-1.538q-1.416 0-1.996-.567-.582-.568-.581-1.955v-4.157h-2.044v-.977h2.044v-2.174zm6.801 8.866v3.876h-1.265v-10.568h1.265v.977a2.17 2.17 0 0 1 .834-.861 2.4 2.4 0 0 1 1.21-.301q1.388 0 2.174 1.073.793 1.074.793 2.974 0 1.866-.793 2.933-.793 1.059-2.174 1.059-.697 0-1.224-.294-.52-.3-.82-.868m3.691-2.857q0-1.464-.464-2.208-.459-.745-1.367-.745-.917 0-1.388.752-.472.744-.472 2.201 0 1.45.472 2.201.471.752 1.387.752.91 0 1.368-.745.465-.745.465-2.208m3.513.923v-4.745h1.258v4.745q0 1.032.362 1.517.37.486 1.135.485.889 0 1.36-.622.472-.629.472-1.797v-4.328h1.265V176h-1.265v-1.148a2.36 2.36 0 0 1-.916 1.004q-.575.342-1.347.342-1.175 0-1.75-.765-.573-.772-.574-2.331m11.3-6.932v2.174h2.857v.977h-2.857v4.157q0 .848.321 1.182.321.335 1.121.335h1.415V176h-1.538q-1.414 0-1.996-.567-.58-.568-.58-1.955v-4.157h-2.045v-.977h2.044v-2.174zm10.89 2.44v1.231a4.8 4.8 0 0 0-1.087-.472 4 4 0 0 0-1.115-.157q-.854 0-1.278.28-.417.273-.417.841 0 .513.315.766.314.252 1.565.492l.506.096q.936.177 1.415.71.485.534.485 1.388 0 1.135-.806 1.777-.806.636-2.243.636-.567 0-1.189-.123a10 10 0 0 1-1.347-.355v-1.299q.705.362 1.347.547a4.6 4.6 0 0 0 1.217.178q.834 0 1.292-.335.458-.342.458-.951 0-.874-1.675-1.21l-.055-.013-.471-.096q-1.088-.211-1.586-.711-.5-.506-.5-1.374 0-1.101.746-1.695.744-.602 2.126-.602.615 0 1.182.116.568.11 1.115.335"/><path fill="#d8d9df" d="M77.982 168.351h2.133v2.467h-2.133zm0 5.161h2.133V176h-2.133z"/><path fill="#717ce1" d="M56.019 192.179q0-1.464-.465-2.208t-1.374-.745q-.917 0-1.388.752-.472.744-.472 2.201 0 1.45.472 2.201.471.752 1.388.752.909 0 1.374-.745t.465-2.208m-3.699-2.858q.3-.56.828-.861a2.46 2.46 0 0 1 1.23-.301q1.38 0 2.174 1.067.793 1.059.793 2.925 0 1.894-.8 2.974-.794 1.073-2.18 1.073a2.44 2.44 0 0 1-1.21-.294q-.52-.3-.835-.868V196h-1.258v-10.637h1.258zm7.192 3.781v-4.745h1.258v4.745q0 1.032.362 1.517.369.486 1.135.485.888 0 1.36-.622.471-.629.472-1.797v-4.328h1.264V196H64.1v-1.148a2.36 2.36 0 0 1-.916 1.004q-.575.342-1.347.342-1.176 0-1.75-.765-.574-.772-.574-2.331m14.354 2.508a4.3 4.3 0 0 1-1.046.438q-.533.15-1.093.15-1.778 0-2.783-1.066-.998-1.066-.998-2.953t.998-2.953q1.005-1.067 2.783-1.067.553 0 1.08.144.525.143 1.06.444v1.319a3.4 3.4 0 0 0-1.006-.642 3.1 3.1 0 0 0-1.134-.198q-1.183 0-1.819.765-.636.766-.636 2.188 0 1.415.636 2.187.643.766 1.819.766.656 0 1.175-.198.52-.206.964-.629zm2.796-10.247h1.299v6.159l3.302-3.178h1.53l-3.014 2.885L83.267 196h-1.538l-2.83-3.951-.937.882V196h-1.299zm14.479 6.18v.615h-5.449v.041q-.054 1.566.595 2.249.657.684 1.846.684.6 0 1.258-.192a7.7 7.7 0 0 0 1.401-.581v1.251a8 8 0 0 1-1.388.438q-.663.15-1.285.15-1.784 0-2.789-1.066-1.005-1.074-1.005-2.953 0-1.833.985-2.926.984-1.094 2.624-1.094 1.464 0 2.304.991.847.992.903 2.393m-1.258-.369a2.4 2.4 0 0 0-.581-1.367q-.492-.582-1.422-.581-.909 0-1.497.601t-.643 1.354zm6.234-5.004v2.174h2.858v.977h-2.858v4.157q0 .848.322 1.182.32.335 1.12.335h1.416V196h-1.538q-1.416 0-1.997-.567-.58-.568-.58-1.955v-4.157h-2.045v-.977h2.044v-2.174zm4.368-.342h1.887l3.992 8.374v-8.374h1.47V196h-1.887l-3.992-8.374V196h-1.47zm13.105 6.323h-.417q-1.101 0-1.661.39-.554.383-.554 1.148 0 .69.417 1.074.417.383 1.155.383 1.04 0 1.634-.718.595-.725.602-1.996v-.281zm2.44-.519V196h-1.264v-1.135q-.404.684-1.019 1.012-.609.321-1.483.321-1.17 0-1.867-.656-.697-.663-.697-1.771 0-1.278.855-1.941.861-.663 2.522-.663h1.689v-.198q-.007-.916-.465-1.326-.459-.417-1.463-.417-.643 0-1.299.184a5.7 5.7 0 0 0-1.278.54v-1.258q.697-.266 1.333-.396a6 6 0 0 1 1.244-.137q.95 0 1.62.28.677.281 1.094.841.26.342.369.848.11.5.109 1.504m5.818-2.509q.233-.492.588-.725a1.54 1.54 0 0 1 .868-.239q.922 0 1.299.718.382.71.382 2.686V196h-1.148v-4.382q0-1.62-.185-2.01-.177-.396-.656-.396-.547 0-.752.424-.198.417-.198 1.982V196h-1.149v-4.382q0-1.64-.198-2.023-.191-.383-.697-.383-.5 0-.697.424-.192.417-.192 1.982V196h-1.141v-7.656h1.141V189q.226-.41.561-.622a1.4 1.4 0 0 1 .772-.219q.52 0 .862.239.348.24.54.725m11.47 2.42v.615h-5.448v.041q-.054 1.566.595 2.249.656.684 1.846.684.601 0 1.257-.192a7.7 7.7 0 0 0 1.402-.581v1.251a8 8 0 0 1-1.388.438q-.663.15-1.285.15-1.784 0-2.789-1.066-1.005-1.074-1.005-2.953 0-1.833.984-2.926.986-1.094 2.625-1.094 1.463 0 2.304.991.848.992.902 2.393m-1.257-.369a2.4 2.4 0 0 0-.582-1.367q-.492-.582-1.421-.581-.91 0-1.497.601-.589.601-.643 1.354z"/><path fill="#d8d9df" d="M137.031 188.351h2.133v2.467h-2.133zm0 5.161h2.133V196h-2.133z"/><path fill="#98cc4e" d="M155.7 192.035v2.967q.752-.021 1.176-.417t.424-1.08q0-.636-.383-.984-.383-.355-1.217-.486m-.683-1.299v-2.823q-.711.027-1.115.41-.396.382-.396 1.026 0 .587.369.929.376.342 1.142.458m.683 7.322h-.683L155.01 196a8 8 0 0 1-1.388-.191 8.3 8.3 0 0 1-1.353-.438v-1.23q.683.424 1.374.649.696.225 1.374.239v-3.131q-1.368-.212-2.058-.834-.69-.621-.69-1.647 0-1.074.717-1.709.725-.642 2.031-.738v-1.607h.683l.007 1.607a9.3 9.3 0 0 1 2.222.417v1.182a6.4 6.4 0 0 0-1.135-.451 4.6 4.6 0 0 0-1.094-.191v2.946q1.408.212 2.147.875t.738 1.716q0 1.053-.8 1.757-.792.703-2.078.765zm10.76-1.709v.984h-.438q-1.701 0-2.283-.506-.574-.505-.574-2.016v-1.368q0-.745-.424-1.285-.417-.54-1.299-.54h-.834v-.977h.834q.965 0 1.34-.458.383-.459.383-1.347v-1.777q0-1.511.574-2.01.582-.506 2.283-.506h.438v.978h-.479q-.957 0-1.251.3-.287.294-.287 1.265v1.832q0 1.203-.471 1.62-.472.41-1.839.595 1.326.157 1.818.608.492.444.492 1.613v1.429q0 .978.287 1.272.294.294 1.251.294zm7.656-4.17q0-1.464-.465-2.208t-1.374-.745q-.916 0-1.387.752-.472.744-.472 2.201 0 1.45.472 2.201.471.752 1.387.752.909 0 1.374-.745t.465-2.208m-3.698-2.858q.3-.56.827-.861a2.46 2.46 0 0 1 1.231-.301q1.38 0 2.173 1.067.793 1.059.793 2.925 0 1.894-.799 2.974-.793 1.073-2.181 1.073-.684 0-1.21-.294-.519-.3-.834-.868V196h-1.258v-10.637h1.258zm7.191 3.781v-4.745h1.258v4.745q0 1.032.362 1.517.37.486 1.135.485.889 0 1.361-.622.471-.629.471-1.797v-4.328h1.265V196h-1.265v-1.148a2.36 2.36 0 0 1-.916 1.004q-.574.342-1.346.342-1.176 0-1.75-.765-.575-.772-.575-2.331m14.356 2.508a4.3 4.3 0 0 1-1.046.438q-.534.15-1.094.15-1.777 0-2.782-1.066-.998-1.066-.998-2.953t.998-2.953q1.005-1.067 2.782-1.067.554 0 1.08.144.526.143 1.06.444v1.319a3.4 3.4 0 0 0-1.005-.642 3.1 3.1 0 0 0-1.135-.198q-1.182 0-1.818.765-.636.766-.636 2.188 0 1.415.636 2.187.642.766 1.818.766.657 0 1.176-.198.52-.206.964-.629zm2.796-10.247h1.299v6.159l3.301-3.178h1.532l-3.015 2.885 3.486 4.771h-1.538l-2.83-3.951-.936.882V196h-1.299zm14.478 6.18v.615h-5.448v.041q-.054 1.566.595 2.249.656.684 1.845.684.602 0 1.258-.192a7.7 7.7 0 0 0 1.402-.581v1.251a8 8 0 0 1-1.388.438q-.663.15-1.285.15-1.784 0-2.789-1.066-1.005-1.074-1.005-2.953 0-1.833.984-2.926t2.625-1.094q1.462 0 2.304.991.848.992.902 2.393m-1.258-.369a2.4 2.4 0 0 0-.581-1.367q-.492-.582-1.421-.581-.91 0-1.498.601-.587.601-.642 1.354zm6.235-5.004v2.174h2.857v.977h-2.857v4.157q0 .848.321 1.182.321.335 1.121.335h1.415V196h-1.538q-1.415 0-1.996-.567-.58-.568-.581-1.955v-4.157h-2.044v-.977h2.044v-2.174zm6.897 7.068h2.407V196h-2.407zm7.937-4.867h3.22v6.651h2.495V196h-6.248v-.978h2.495v-5.673h-1.962zm1.962-2.974h1.258v1.586h-1.258zm10.178 3.924v-3.958h1.258V196h-1.258v-.964a2.2 2.2 0 0 1-.84.868 2.4 2.4 0 0 1-1.204.294q-1.387 0-2.187-1.073-.793-1.08-.793-2.974 0-1.866.8-2.925.8-1.067 2.18-1.067.691 0 1.217.301.527.294.827.861m-3.698 2.858q0 1.463.465 2.208.465.744 1.374.745.909 0 1.381-.752.478-.752.478-2.201 0-1.457-.478-2.201-.472-.752-1.381-.752t-1.374.745q-.465.744-.465 2.208m8.244 4.17q.957 0 1.244-.294.294-.294.294-1.272v-1.429q0-1.169.493-1.613.492-.451 1.818-.608-1.367-.184-1.839-.595-.471-.417-.472-1.62v-1.832q0-.97-.294-1.265-.287-.3-1.244-.3h-.478v-.978h.437q1.703 0 2.277.506.58.499.581 2.01v1.777q0 .888.376 1.347.383.458 1.346.458h.834v.977h-.834q-.881 0-1.305.54-.417.54-.417 1.285v1.368q0 1.51-.581 2.016-.575.506-2.277.506h-.437v-.984z"/><path fill="#2f3032" d="M0 45h564v1H0z"/><circle cx="255" cy="22.78" r="4" fill="#f26e7e"/><path fill="#8e8f97" d="M268.691 24.57v-2.824q0-.305-.099-.521a.74.74 0 0 0-.311-.346q-.204-.123-.533-.123a1.1 1.1 0 0 0-.486.1.7.7 0 0 0-.317.275.76.76 0 0 0-.111.416h-1.688q0-.405.188-.768t.545-.638q.357-.282.85-.44a3.7 3.7 0 0 1 1.113-.158q.738 0 1.312.246t.903.738q.333.493.334 1.23v2.714q0 .521.064.855.065.328.188.574v.1h-1.705a2.4 2.4 0 0 1-.188-.645 5 5 0 0 1-.059-.785m.223-2.431.012.955h-.944q-.333 0-.58.076t-.404.217a.8.8 0 0 0-.234.316 1.1 1.1 0 0 0-.071.399q0 .216.1.392a.7.7 0 0 0 .287.27 1 1 0 0 0 .44.093q.38 0 .662-.152.281-.151.433-.375a.8.8 0 0 0 .164-.422l.446.715q-.095.24-.258.498-.158.258-.405.486a2.1 2.1 0 0 1-.591.37q-.346.14-.821.14-.603 0-1.095-.24a2 2 0 0 1-.774-.674 1.77 1.77 0 0 1-.281-.984q0-.498.188-.885.187-.387.55-.65.37-.27.92-.405.55-.14 1.278-.14zm4.465-1.26v7.558h-1.688V19.66h1.565zm4.014 1.88v.124q0 .691-.164 1.283a3.2 3.2 0 0 1-.469 1.031 2.2 2.2 0 0 1-.774.68 2.2 2.2 0 0 1-1.054.24q-.58 0-1.008-.234a2.1 2.1 0 0 1-.721-.656 3.8 3.8 0 0 1-.463-.99 8 8 0 0 1-.269-1.208v-.322a8 8 0 0 1 .269-1.266q.176-.58.463-1.001.293-.428.715-.663a2.05 2.05 0 0 1 1.002-.234q.603 0 1.06.229.464.227.774.656.316.428.475 1.02.164.59.164 1.312m-1.694.124v-.123q0-.405-.07-.744a1.9 1.9 0 0 0-.211-.604 1.03 1.03 0 0 0-.375-.398 1 1 0 0 0-.557-.147q-.345 0-.591.111a1 1 0 0 0-.393.323 1.5 1.5 0 0 0-.229.504q-.076.293-.093.662v.814q.029.435.164.78.134.34.416.539.28.199.738.199.334 0 .563-.147.228-.152.369-.416.146-.263.205-.609a4 4 0 0 0 .064-.744m4.43-2.005v7.558h-1.688V19.66h1.565zm4.014 1.88v.124q0 .691-.164 1.283a3.2 3.2 0 0 1-.469 1.031 2.2 2.2 0 0 1-.774.68 2.2 2.2 0 0 1-1.054.24q-.58 0-1.008-.234a2.1 2.1 0 0 1-.721-.656 3.8 3.8 0 0 1-.463-.99 8 8 0 0 1-.269-1.208v-.322a8 8 0 0 1 .269-1.266q.176-.58.463-1.001.293-.428.715-.663a2.05 2.05 0 0 1 1.002-.234q.603 0 1.06.229.464.227.774.656.316.428.475 1.02.164.59.164 1.312m-1.694.124v-.123q0-.405-.07-.744a1.9 1.9 0 0 0-.211-.604 1.03 1.03 0 0 0-.375-.398 1 1 0 0 0-.557-.147q-.345 0-.591.111a1 1 0 0 0-.393.323 1.5 1.5 0 0 0-.229.504q-.076.293-.093.662v.814q.029.435.164.78.134.34.416.539.28.199.738.199.334 0 .563-.147.228-.152.369-.416.146-.263.205-.609a4 4 0 0 0 .064-.744m2.824 2.302a.84.84 0 0 1 .258-.627q.263-.252.698-.252.433 0 .691.252a.83.83 0 0 1 .264.627q0 .375-.264.627-.258.252-.691.252-.435 0-.698-.253a.84.84 0 0 1-.258-.626m5.28.099 1.681-5.625h1.811l-2.549 7.295a4 4 0 0 1-.223.516 2 2 0 0 1-.369.521 1.7 1.7 0 0 1-.58.41q-.345.159-.849.159-.24 0-.393-.03a7 7 0 0 1-.363-.082v-1.236h.135q.07.006.134.006.335 0 .545-.076a.76.76 0 0 0 .34-.235q.129-.152.205-.398zm-.703-5.625 1.377 4.594.24 1.787-1.149.123-2.279-6.504zm8.197 4.91v-2.824q0-.305-.1-.521a.74.74 0 0 0-.31-.346 1.03 1.03 0 0 0-.533-.123q-.282 0-.487.1a.7.7 0 0 0-.316.275.76.76 0 0 0-.112.416h-1.687q0-.405.187-.768.188-.363.545-.638a2.7 2.7 0 0 1 .85-.44 3.7 3.7 0 0 1 1.113-.158q.738 0 1.313.246.574.246.902.738.334.493.334 1.23v2.714q0 .521.065.855.064.328.187.574v.1h-1.705a2.4 2.4 0 0 1-.188-.645 5 5 0 0 1-.058-.785m.223-2.431.011.955h-.943q-.334 0-.58.076t-.404.217a.84.84 0 0 0-.235.316q-.07.181-.07.399 0 .216.099.392a.7.7 0 0 0 .288.27 1 1 0 0 0 .439.093q.381 0 .662-.152.281-.151.434-.375a.8.8 0 0 0 .164-.422l.445.715q-.093.24-.258.498a2.08 2.08 0 0 1-.996.856 2.2 2.2 0 0 1-.82.14q-.603 0-1.096-.24a2 2 0 0 1-.773-.674 1.77 1.77 0 0 1-.282-.984q0-.498.188-.885t.551-.65q.368-.27.92-.405.55-.14 1.277-.14zm4.464-1.166V26h-1.693v-6.34h1.588zm-.234 1.634h-.469q0-.662.158-1.218.165-.563.475-.973.317-.415.779-.645a2.4 2.4 0 0 1 1.073-.228q.422 0 .773.129.351.123.604.392.257.264.398.692.141.421.141 1.014V26h-1.688v-4.043q0-.434-.117-.668a.66.66 0 0 0-.334-.328 1.3 1.3 0 0 0-.51-.094q-.328 0-.574.135-.24.135-.398.375a1.7 1.7 0 0 0-.235.55 3 3 0 0 0-.076.68m3.773-.193-.603.076q0-.621.152-1.154.159-.533.463-.938.31-.405.768-.626a2.3 2.3 0 0 1 1.054-.229q.457 0 .832.135.375.128.639.416.27.28.41.738.147.457.147 1.12V26h-1.694v-4.049q0-.439-.117-.668a.6.6 0 0 0-.328-.322 1.2 1.2 0 0 0-.504-.094q-.305 0-.533.123a1.1 1.1 0 0 0-.381.328q-.152.211-.228.492a2.3 2.3 0 0 0-.077.604m6.95-5.414v9h-1.694v-9z"/><circle cx="536" cy="23" r="12" fill="#fff"/><g clip-path="url(#a)"><path fill="#000" d="M544 29.223h-3.636v-5.377h-1.507v6.839H544zm-13.26-5.376v6.869h1.478v-4.738l1.547 3.184h1.164l1.6-3.296v4.848h1.418v-6.867h-1.936l-1.718 3.106-1.637-3.106z"/><path fill="#cb171e" d="M538.322 21.52h-3.183l-.647 1.558h-1.41l2.981-7.008h1.441l2.86 7.008h-1.506zm-.529-1.4-.975-2.572-1.089 2.572z"/><path fill="#000" d="m535.369 16.053-2.87 4.29v2.718h-1.758v-2.719L528 16.053h1.977l1.742 2.762 1.757-2.762z"/></g><path fill="#626262" d="M211 144h1v14h-1z"/><path fill="#262626" stroke="#8e8f97" d="M211 167a6 6 0 0 1 6-6h112a6 6 0 0 1 6 6v93a6 6 0 0 1-6 6H217a6 6 0 0 1-6-6z"/><path fill="#8e8f97" d="M211 167a6 6 0 0 1 6-6h112a6 6 0 0 1 6 6v20H211z"/><mask id="b" fill="#fff"><path d="M240.861 204h2.953q.633 0 1.172-.158.545-.165.938-.481.393-.31.615-.773.223-.463.217-1.072 0-.346-.1-.657a1.9 1.9 0 0 0-.281-.574 2 2 0 0 0-1.102-.721v-.011a2.6 2.6 0 0 0 .452-.235q.199-.134.357-.31.222-.24.34-.551.123-.316.129-.68 0-.597-.229-1.031a1.94 1.94 0 0 0-.621-.721 2.8 2.8 0 0 0-.943-.416 4.7 4.7 0 0 0-1.166-.14h-2.731zm1.418-3.855h1.617q.346.005.616.105.269.093.457.27.188.175.281.427.094.246.094.569 0 .304-.117.556a1.1 1.1 0 0 1-.323.416q-.194.165-.468.258a1.9 1.9 0 0 1-.61.094h-1.547zm0-1.073v-2.437h1.33q.364.006.662.088.3.075.499.252a.9.9 0 0 1 .269.363q.1.216.1.516 0 .28-.106.498-.105.216-.287.369a1.4 1.4 0 0 1-.492.258 2.3 2.3 0 0 1-.633.093zM252.27 204h1.271v-6.34h-1.406v4.488a1.6 1.6 0 0 1-.199.323 1.4 1.4 0 0 1-.27.246q-.182.117-.422.187-.24.065-.545.065-.293 0-.51-.076a.77.77 0 0 1-.357-.258 1.1 1.1 0 0 1-.205-.469 3.6 3.6 0 0 1-.065-.738v-3.768h-1.4v3.756q0 .716.158 1.23.159.51.446.838.292.328.697.487.41.152.908.152.569 0 1.031-.264.464-.269.786-.744zm5.812-1.008q-.44 0-.732-.176a1.3 1.3 0 0 1-.463-.462 2 2 0 0 1-.252-.657 4 4 0 0 1-.071-.761v-.206q0-.38.071-.75.077-.368.252-.656.175-.286.463-.463.293-.181.732-.181a1.42 1.42 0 0 1 .967.369q.176.17.269.398.1.23.1.487h1.318a2.25 2.25 0 0 0-.738-1.723 2.5 2.5 0 0 0-.844-.492 3.1 3.1 0 0 0-1.06-.176q-.727 0-1.278.258a2.6 2.6 0 0 0-.914.685 2.9 2.9 0 0 0-.556 1.014 4.1 4.1 0 0 0-.182 1.23v.206q0 .655.188 1.236.187.574.55 1.008a2.7 2.7 0 0 0 .914.691q.551.252 1.284.252.526 0 1.002-.17.48-.175.849-.474.364-.3.574-.704.217-.41.211-.873h-1.318a.9.9 0 0 1-.111.44 1.1 1.1 0 0 1-.287.346q-.188.146-.434.228a1.7 1.7 0 0 1-.504.076m6.627-1.752 2.021 2.76h1.735l-2.824-3.697 2.466-2.643h-1.687l-1.893 1.992-.58.645V195h-1.406v9h1.406v-2.039zm7.986 2.877q.926 0 1.576-.363.657-.363.973-.82l-.75-.727q-.292.375-.744.58a2.4 2.4 0 0 1-.973.199q-.38 0-.703-.129a1.7 1.7 0 0 1-.551-.363 1.7 1.7 0 0 1-.369-.504 2.5 2.5 0 0 1-.199-.697v-.029h4.395v-.604q0-.68-.182-1.254a2.8 2.8 0 0 0-.539-.99 2.45 2.45 0 0 0-.885-.639 3 3 0 0 0-1.213-.234 2.9 2.9 0 0 0-2.109.891 3.1 3.1 0 0 0-.645 1.031 3.7 3.7 0 0 0-.234 1.347v.241q0 .65.223 1.213.228.557.644.966.417.417.996.651a3.5 3.5 0 0 0 1.289.234m-.17-5.437q.352 0 .616.123.269.117.445.316.182.205.281.481.1.269.1.545v.093h-2.983a2.6 2.6 0 0 1 .2-.65q.134-.288.334-.492a1.4 1.4 0 0 1 .451-.305 1.4 1.4 0 0 1 .556-.111m7.231-2.567h-1.406v1.547h-1.536v1.049h1.536v3.117q0 .61.158 1.043.164.433.451.715.287.275.686.41.404.129.884.129.264 0 .528-.029a5 5 0 0 0 .972-.182q.217-.07.369-.164l-.152-.967-.264.059a6 6 0 0 1-.334.053 5 5 0 0 1-.744.064q-.252 0-.463-.059a.87.87 0 0 1-.603-.568 1.8 1.8 0 0 1-.082-.592v-3.029h2.385v-1.049h-2.385zm6.029-.644h-1.746V204h1.318v-2.895l-.076-3.667 1.19 3.931h.732l1.313-4.072-.082 3.808V204h1.324v-8.531h-1.752l-1.166 3.65zm8.531 8.648q.926 0 1.577-.363.656-.363.972-.82l-.75-.727q-.293.375-.744.58a2.4 2.4 0 0 1-.973.199q-.38 0-.703-.129a1.7 1.7 0 0 1-.55-.363 1.7 1.7 0 0 1-.37-.504 2.5 2.5 0 0 1-.199-.697v-.029h4.395v-.604q0-.68-.182-1.254a2.8 2.8 0 0 0-.539-.99 2.45 2.45 0 0 0-.885-.639 3 3 0 0 0-1.213-.234 2.9 2.9 0 0 0-2.109.891 3.1 3.1 0 0 0-.645 1.031 3.7 3.7 0 0 0-.234 1.347v.241q0 .65.223 1.213.228.557.644.966.417.417.996.651a3.5 3.5 0 0 0 1.289.234m-.17-5.437q.352 0 .616.123.269.117.445.316.182.205.281.481.1.269.1.545v.093h-2.983a2.6 2.6 0 0 1 .2-.65 1.8 1.8 0 0 1 .334-.492 1.4 1.4 0 0 1 .451-.305 1.4 1.4 0 0 1 .556-.111m7.231-2.567h-1.406v1.547h-1.535v1.049h1.535v3.117q0 .61.158 1.043.164.433.451.715.287.275.686.41.404.129.884.129.264 0 .528-.029a5 5 0 0 0 .972-.182q.217-.07.37-.164l-.153-.967-.263.059a6 6 0 0 1-.334.053 5 5 0 0 1-.745.064q-.252 0-.463-.059a.87.87 0 0 1-.603-.568 1.8 1.8 0 0 1-.082-.592v-3.029h2.385v-1.049h-2.385zm8.777 1.43a2.4 2.4 0 0 0-1.201.305 2.9 2.9 0 0 0-.926.838l-.006-.147-.058-.879h-1.313V204h1.401v-3.914q.111-.282.275-.498t.399-.358a1.6 1.6 0 0 1 .498-.216q.28-.07.632-.071.311 0 .622.036.316.035.638.105l.199-1.383a3 3 0 0 0-.503-.111 4.5 4.5 0 0 0-.657-.047m3.147.117v1.166h1.951v4.014h-1.951V204h5.226v-1.16h-1.863v-5.18zm1.822-1.64q0 .222.106.392a.58.58 0 0 0 .322.229.75.75 0 0 0 .375.029.6.6 0 0 0 .293-.147.63.63 0 0 0 .375-.252.6.6 0 0 0 .088-.451.6.6 0 0 0-.229-.41.76.76 0 0 0-.51-.164.9.9 0 0 0-.339.059.69.69 0 0 0-.422.404.8.8 0 0 0-.059.311m7.822 6.972q-.44 0-.732-.176a1.3 1.3 0 0 1-.463-.462 2 2 0 0 1-.252-.657 4 4 0 0 1-.07-.761v-.206q0-.38.07-.75.076-.368.252-.656.175-.286.463-.463.292-.181.732-.181a1.42 1.42 0 0 1 .967.369q.175.17.27.398.099.23.099.487h1.319a2.25 2.25 0 0 0-.194-.967 2.2 2.2 0 0 0-.545-.756 2.5 2.5 0 0 0-.843-.492 3.1 3.1 0 0 0-1.061-.176q-.726 0-1.277.258a2.6 2.6 0 0 0-.914.685 2.9 2.9 0 0 0-.557 1.014 4.1 4.1 0 0 0-.182 1.23v.206q0 .655.188 1.236.187.574.551 1.008.368.433.914.691.55.252 1.283.252.526 0 1.002-.17.48-.175.849-.474.364-.3.575-.704.216-.41.211-.873h-1.319a.9.9 0 0 1-.111.44q-.105.2-.287.346-.188.146-.434.228a1.7 1.7 0 0 1-.504.076M240.861 230h2.953q.633 0 1.172-.158.545-.165.938-.481.393-.31.615-.773.223-.463.217-1.072 0-.346-.1-.657a1.9 1.9 0 0 0-.281-.574 2 2 0 0 0-1.102-.721v-.011a2.6 2.6 0 0 0 .452-.235q.199-.134.357-.31.222-.24.34-.551.123-.316.129-.68 0-.597-.229-1.031a1.94 1.94 0 0 0-.621-.721 2.8 2.8 0 0 0-.943-.416 4.7 4.7 0 0 0-1.166-.14h-2.731zm1.418-3.855h1.617q.346.005.616.105.269.093.457.27.188.175.281.427.094.246.094.569 0 .304-.117.556a1.1 1.1 0 0 1-.323.416q-.194.165-.468.258a1.9 1.9 0 0 1-.61.094h-1.547zm0-1.073v-2.437h1.33q.364.006.662.088.3.075.499.252a.9.9 0 0 1 .269.363q.1.216.1.516 0 .28-.106.498-.105.216-.287.369a1.4 1.4 0 0 1-.492.258 2.3 2.3 0 0 1-.633.093zM252.27 230h1.271v-6.34h-1.406v4.488a1.6 1.6 0 0 1-.199.323 1.4 1.4 0 0 1-.27.246q-.182.117-.422.187-.24.065-.545.065-.293 0-.51-.076a.77.77 0 0 1-.357-.258 1.1 1.1 0 0 1-.205-.469 3.6 3.6 0 0 1-.065-.738v-3.768h-1.4v3.756q0 .716.158 1.23.159.51.446.838.292.328.697.487.41.152.908.152.569 0 1.031-.264.464-.269.786-.744zm5.812-1.008q-.44 0-.732-.176a1.3 1.3 0 0 1-.463-.462 2 2 0 0 1-.252-.657 4 4 0 0 1-.071-.761v-.206q0-.38.071-.75.077-.368.252-.656.175-.286.463-.463.293-.181.732-.181a1.42 1.42 0 0 1 .967.369q.176.17.269.398.1.23.1.487h1.318a2.25 2.25 0 0 0-.738-1.723 2.5 2.5 0 0 0-.844-.492 3.1 3.1 0 0 0-1.06-.176q-.727 0-1.278.258a2.6 2.6 0 0 0-.914.685 2.9 2.9 0 0 0-.556 1.014 4.1 4.1 0 0 0-.182 1.23v.206q0 .655.188 1.236.187.574.55 1.008a2.7 2.7 0 0 0 .914.691q.551.252 1.284.252.526 0 1.002-.17.48-.175.849-.474.364-.3.574-.704.217-.41.211-.873h-1.318a.9.9 0 0 1-.111.44 1.1 1.1 0 0 1-.287.346q-.188.146-.434.228a1.7 1.7 0 0 1-.504.076m6.627-1.752 2.021 2.76h1.735l-2.824-3.697 2.466-2.643h-1.687l-1.893 1.992-.58.645V221h-1.406v9h1.406v-2.039zm7.986 2.877q.926 0 1.576-.363.657-.363.973-.82l-.75-.727q-.292.375-.744.58a2.4 2.4 0 0 1-.973.199q-.38 0-.703-.129a1.7 1.7 0 0 1-.551-.363 1.7 1.7 0 0 1-.369-.504 2.5 2.5 0 0 1-.199-.697v-.029h4.395v-.604q0-.68-.182-1.254a2.8 2.8 0 0 0-.539-.99 2.45 2.45 0 0 0-.885-.639 3 3 0 0 0-1.213-.234 2.9 2.9 0 0 0-2.109.891 3.1 3.1 0 0 0-.645 1.031 3.7 3.7 0 0 0-.234 1.347v.241q0 .65.223 1.213.228.557.644.966.417.417.996.651a3.5 3.5 0 0 0 1.289.234m-.17-5.437q.352 0 .616.123.269.117.445.316.182.205.281.481.1.269.1.545v.093h-2.983a2.6 2.6 0 0 1 .2-.65q.134-.288.334-.492a1.4 1.4 0 0 1 .451-.305 1.4 1.4 0 0 1 .556-.111m7.231-2.567h-1.406v1.547h-1.536v1.049h1.536v3.117q0 .61.158 1.043.164.433.451.715.287.275.686.41.404.129.884.129.264 0 .528-.029a5 5 0 0 0 .972-.182q.217-.07.369-.164l-.152-.967-.264.059a6 6 0 0 1-.334.053 5 5 0 0 1-.744.064q-.252 0-.463-.059a.87.87 0 0 1-.603-.568 1.8 1.8 0 0 1-.082-.592v-3.029h2.385v-1.049h-2.385zm10.142 4.19v-1.125q0-.534-.093-1.026a4.4 4.4 0 0 0-.282-.931 3.5 3.5 0 0 0-.421-.744 2.8 2.8 0 0 0-.592-.592 2.7 2.7 0 0 0-.768-.393 3 3 0 0 0-.937-.14q-.504 0-.926.14a2.5 2.5 0 0 0-.744.387 2.8 2.8 0 0 0-.592.609 3.8 3.8 0 0 0-.416.762 4.7 4.7 0 0 0-.264.92 5.7 5.7 0 0 0-.088 1.008v1.125q0 .498.082.972.082.47.241.885.17.434.427.797.258.363.598.621.335.252.756.399.428.14.937.14.493 0 .909-.135a2.8 2.8 0 0 0 .75-.369q.351-.258.621-.615.269-.363.451-.791a5 5 0 0 0 .258-.908q.093-.48.093-.996m-1.418-1.137v1.137q0 .31-.035.621a3.5 3.5 0 0 1-.105.592 2.7 2.7 0 0 1-.223.591q-.135.264-.34.457a1.3 1.3 0 0 1-.422.27 1.4 1.4 0 0 1-.539.1q-.31 0-.55-.1a1.4 1.4 0 0 1-.416-.281 1.8 1.8 0 0 1-.323-.457 3 3 0 0 1-.205-.592 4 4 0 0 1-.099-.586 6 6 0 0 1-.03-.615v-1.137q0-.316.03-.627.035-.316.105-.598.076-.328.217-.591.14-.27.346-.457.17-.165.398-.252.228-.094.516-.094.299 0 .533.094.234.093.416.257.205.188.346.457.145.264.234.586.077.282.111.592.036.31.035.633m8.45 1.729v-.124q0-.539-.1-1.019a3.6 3.6 0 0 0-.281-.873 3 3 0 0 0-.328-.516 1.9 1.9 0 0 0-.416-.404 2.1 2.1 0 0 0-.621-.305 2.4 2.4 0 0 0-.75-.111q-.311 0-.58.064a1.8 1.8 0 0 0-.803.399 2 2 0 0 0-.27.275V221h-1.4v9h1.265l.065-.691q.106.129.217.24.117.105.246.199.252.182.568.275.317.094.703.094a2.4 2.4 0 0 0 1.295-.369q.328-.216.563-.545.234-.328.375-.732.123-.34.187-.739.065-.397.065-.837m-1.401-.124v.124q0 .263-.029.509t-.088.457a1.9 1.9 0 0 1-.205.51 1.15 1.15 0 0 1-.334.369 1.3 1.3 0 0 1-.346.17 1.5 1.5 0 0 1-.433.059q-.264 0-.481-.065a1.4 1.4 0 0 1-.375-.187 1.6 1.6 0 0 1-.263-.252 2 2 0 0 1-.194-.322v-2.625q.07-.153.164-.282.1-.135.223-.234.17-.147.398-.223.23-.082.516-.082.234 0 .422.053t.334.158q.223.153.351.375.135.217.217.487.059.222.088.48.036.252.035.521m3.909-3.111v1.166h1.816v5.274q0 .369-.1.615a1.05 1.05 0 0 1-.269.398 1 1 0 0 1-.405.211 2 2 0 0 1-.498.065q-.07 0-.199-.006-.13 0-.269-.012a4 4 0 0 1-.282-.023 2 2 0 0 1-.216-.03l-.082 1.143a6 6 0 0 0 .48.07q.159.018.316.024.164.006.329.006.621 0 1.101-.153.48-.152.815-.457.333-.305.509-.767.176-.457.176-1.084v-6.44zm1.687-1.64q0 .327.211.544.216.217.598.217.392 0 .609-.217a.74.74 0 0 0 .217-.544.74.74 0 0 0-.217-.551q-.217-.223-.609-.223-.387 0-.598.229a.76.76 0 0 0-.211.545m7.605 8.097q.926 0 1.577-.363.656-.363.972-.82l-.75-.727q-.293.375-.744.58a2.4 2.4 0 0 1-.973.199q-.38 0-.703-.129a1.7 1.7 0 0 1-.55-.363 1.7 1.7 0 0 1-.37-.504 2.5 2.5 0 0 1-.199-.697v-.029h4.395v-.604q0-.68-.182-1.254a2.8 2.8 0 0 0-.539-.99 2.45 2.45 0 0 0-.885-.639 3 3 0 0 0-1.213-.234q-.615 0-1.16.234a2.8 2.8 0 0 0-.949.657 3.1 3.1 0 0 0-.645 1.031 3.7 3.7 0 0 0-.234 1.347v.241q0 .65.223 1.213.228.557.644.966.417.417.996.651a3.5 3.5 0 0 0 1.289.234m-.169-5.437q.351 0 .615.123.269.117.445.316.182.205.281.481.1.269.1.545v.093h-2.982a2.5 2.5 0 0 1 .199-.65 1.8 1.8 0 0 1 .334-.492 1.4 1.4 0 0 1 1.008-.416m7.177 4.312q-.44 0-.732-.176a1.3 1.3 0 0 1-.463-.462 2 2 0 0 1-.252-.657 4 4 0 0 1-.07-.761v-.206q0-.38.07-.75.076-.368.252-.656.175-.286.463-.463.293-.181.732-.181a1.4 1.4 0 0 1 .967.369q.175.17.27.398.099.23.099.487h1.319a2.26 2.26 0 0 0-.739-1.723 2.5 2.5 0 0 0-.843-.492 3.1 3.1 0 0 0-1.061-.176q-.726 0-1.277.258a2.6 2.6 0 0 0-.914.685 2.9 2.9 0 0 0-.557 1.014 4.1 4.1 0 0 0-.182 1.23v.206q0 .655.188 1.236.187.574.551 1.008.368.433.914.691.55.252 1.283.252.526 0 1.002-.17.48-.175.849-.474.364-.3.575-.704.216-.41.211-.873h-1.319a.9.9 0 0 1-.111.44q-.105.2-.287.346-.188.146-.434.228a1.7 1.7 0 0 1-.504.076m7.26-6.879h-1.406v1.547h-1.535v1.049h1.535v3.117q0 .61.158 1.043.164.433.451.715.288.275.686.41.404.129.884.129.264 0 .528-.029a5 5 0 0 0 .972-.182q.217-.07.37-.164l-.153-.967-.263.059a6 6 0 0 1-.334.053 5 5 0 0 1-.745.064q-.251 0-.462-.059a.87.87 0 0 1-.604-.568 1.8 1.8 0 0 1-.082-.592v-3.029h2.385v-1.049h-2.385zM240.861 256h2.953q.633 0 1.172-.158.545-.165.938-.481.393-.31.615-.773.223-.463.217-1.072 0-.346-.1-.657a1.9 1.9 0 0 0-.281-.574 2 2 0 0 0-1.102-.721v-.011a2.6 2.6 0 0 0 .452-.235q.199-.134.357-.31.222-.24.34-.551.123-.316.129-.68 0-.597-.229-1.031a1.94 1.94 0 0 0-.621-.721 2.8 2.8 0 0 0-.943-.416 4.7 4.7 0 0 0-1.166-.14h-2.731zm1.418-3.855h1.617q.346.005.616.105.269.093.457.27.188.175.281.427.094.246.094.569 0 .304-.117.556a1.1 1.1 0 0 1-.323.416q-.194.165-.468.258a1.9 1.9 0 0 1-.61.094h-1.547zm0-1.073v-2.437h1.33q.364.006.662.088.3.075.499.252a.9.9 0 0 1 .269.363q.1.216.1.516 0 .28-.106.498-.105.216-.287.369a1.4 1.4 0 0 1-.492.258 2.3 2.3 0 0 1-.633.093zM252.27 256h1.271v-6.34h-1.406v4.488a1.6 1.6 0 0 1-.199.323 1.4 1.4 0 0 1-.27.246q-.182.117-.422.187-.24.065-.545.065-.293 0-.51-.076a.77.77 0 0 1-.357-.258 1.1 1.1 0 0 1-.205-.469 3.6 3.6 0 0 1-.065-.738v-3.768h-1.4v3.756q0 .716.158 1.23.159.51.446.838.292.328.697.487.41.152.908.152.569 0 1.031-.264.464-.269.786-.744zm5.812-1.008q-.44 0-.732-.176a1.3 1.3 0 0 1-.463-.462 2 2 0 0 1-.252-.657 4 4 0 0 1-.071-.761v-.206q0-.38.071-.75.077-.368.252-.656.175-.286.463-.463.293-.181.732-.181a1.42 1.42 0 0 1 .967.369q.176.17.269.398.1.23.1.487h1.318a2.25 2.25 0 0 0-.738-1.723 2.5 2.5 0 0 0-.844-.492 3.1 3.1 0 0 0-1.06-.176q-.727 0-1.278.258a2.6 2.6 0 0 0-.914.685 2.9 2.9 0 0 0-.556 1.014 4.1 4.1 0 0 0-.182 1.23v.206q0 .655.188 1.236.187.574.55 1.008a2.7 2.7 0 0 0 .914.691q.551.252 1.284.252.526 0 1.002-.17.48-.175.849-.474.364-.3.574-.704.217-.41.211-.873h-1.318a.9.9 0 0 1-.111.44 1.1 1.1 0 0 1-.287.346q-.188.146-.434.228a1.7 1.7 0 0 1-.504.076m6.627-1.752 2.021 2.76h1.735l-2.824-3.697 2.466-2.643h-1.687l-1.893 1.992-.58.645V247h-1.406v9h1.406v-2.039zm7.986 2.877q.926 0 1.576-.363.657-.363.973-.82l-.75-.727q-.292.375-.744.58a2.4 2.4 0 0 1-.973.199q-.38 0-.703-.129a1.7 1.7 0 0 1-.551-.363 1.7 1.7 0 0 1-.369-.504 2.5 2.5 0 0 1-.199-.697v-.029h4.395v-.604q0-.68-.182-1.254a2.8 2.8 0 0 0-.539-.99 2.45 2.45 0 0 0-.885-.639 3 3 0 0 0-1.213-.234 2.9 2.9 0 0 0-2.109.891 3.1 3.1 0 0 0-.645 1.031 3.7 3.7 0 0 0-.234 1.347v.241q0 .65.223 1.213.228.557.644.966.417.417.996.651a3.5 3.5 0 0 0 1.289.234m-.17-5.437q.352 0 .616.123.269.117.445.316.182.205.281.481.1.269.1.545v.093h-2.983a2.6 2.6 0 0 1 .2-.65q.134-.288.334-.492a1.4 1.4 0 0 1 .451-.305 1.4 1.4 0 0 1 .556-.111m7.231-2.567h-1.406v1.547h-1.536v1.049h1.536v3.117q0 .61.158 1.043.164.433.451.715.287.275.686.41.404.129.884.129.264 0 .528-.029a5 5 0 0 0 .972-.182q.217-.07.369-.164l-.152-.967-.264.059a6 6 0 0 1-.334.053 5 5 0 0 1-.744.064q-.252 0-.463-.059a.87.87 0 0 1-.603-.568 1.8 1.8 0 0 1-.082-.592v-3.029h2.385v-1.049h-2.385zm5.871 4.635h1.447q.645 0 1.184-.187a2.8 2.8 0 0 0 .937-.528 2.4 2.4 0 0 0 .61-.826 2.6 2.6 0 0 0 .216-1.066q0-.616-.216-1.108a2.4 2.4 0 0 0-.61-.838 2.8 2.8 0 0 0-.937-.533 3.7 3.7 0 0 0-1.184-.193h-2.853V256h1.406zm0-1.148v-2.983h1.447q.357 0 .639.117.286.112.486.317t.299.486q.105.276.106.615 0 .31-.106.575a1.24 1.24 0 0 1-.299.457q-.2.192-.486.304a1.9 1.9 0 0 1-.639.112zm5.473 1.171v.124q0 .696.199 1.283.2.585.58 1.019.375.434.926.68.55.246 1.248.246.692 0 1.236-.246a2.6 2.6 0 0 0 .926-.68q.375-.434.574-1.019.2-.587.199-1.283v-.124q0-.69-.199-1.277a3 3 0 0 0-.574-1.025 2.7 2.7 0 0 0-.932-.68 3 3 0 0 0-1.242-.246q-.697 0-1.242.246t-.92.68a3 3 0 0 0-.58 1.025 4 4 0 0 0-.199 1.277m1.4.124v-.124q0-.415.088-.796.093-.381.281-.668.193-.288.481-.457.292-.17.691-.17.405 0 .691.17.294.17.481.457.188.287.281.668.094.38.094.796v.124q0 .427-.094.808-.087.381-.275.668a1.4 1.4 0 0 1-.481.457q-.293.165-.685.164-.404 0-.698-.164a1.5 1.5 0 0 1-.486-.457 2.1 2.1 0 0 1-.281-.668 3.6 3.6 0 0 1-.088-.808m6.334-5.895v1.166h2.004v6.674h-2.004V256h5.338v-1.16h-1.922V247zm7.26 2.66v1.166h1.951v4.014h-1.951V256h5.226v-1.16h-1.863v-5.18zm1.822-1.64a.73.73 0 0 0 .105.392.6.6 0 0 0 .323.229.75.75 0 0 0 .375.029.6.6 0 0 0 .293-.147.63.63 0 0 0 .375-.252.6.6 0 0 0 .088-.451.6.6 0 0 0-.229-.41.76.76 0 0 0-.51-.164 1 1 0 0 0-.34.059.69.69 0 0 0-.421.404.8.8 0 0 0-.059.311m7.822 6.972q-.44 0-.732-.176a1.3 1.3 0 0 1-.463-.462 2 2 0 0 1-.252-.657 4 4 0 0 1-.07-.761v-.206q0-.38.07-.75.076-.368.252-.656.175-.286.463-.463.293-.181.732-.181a1.4 1.4 0 0 1 .967.369q.175.17.27.398.099.23.099.487h1.319a2.26 2.26 0 0 0-.739-1.723 2.5 2.5 0 0 0-.843-.492 3.1 3.1 0 0 0-1.061-.176q-.726 0-1.277.258a2.6 2.6 0 0 0-.914.685 2.9 2.9 0 0 0-.557 1.014 4.1 4.1 0 0 0-.182 1.23v.206q0 .655.188 1.236.187.574.551 1.008.368.433.914.691.55.252 1.283.252.526 0 1.002-.17.48-.175.849-.474.364-.3.575-.704.216-.41.211-.873h-1.319a.9.9 0 0 1-.111.44q-.105.2-.287.346-.188.146-.434.228a1.7 1.7 0 0 1-.504.076m5.244 3.569q.464 0 .809-.165.346-.158.598-.398.251-.234.416-.516.17-.275.281-.521l3.217-7.301h-1.553l-1.529 3.891-.264.679-.217-.697-1.576-3.873h-1.541l2.701 6.059-.398.756q-.065.129-.141.246a3 3 0 0 1-.187.269 1.5 1.5 0 0 1-.287.27.6.6 0 0 1-.37.123q-.093 0-.246-.012l-.263-.012-.194 1.096q.17.041.358.07.188.036.386.036"/></mask><path fill="#262626" d="M240.861 204h2.953q.633 0 1.172-.158.545-.165.938-.481.393-.31.615-.773.223-.463.217-1.072 0-.346-.1-.657a1.9 1.9 0 0 0-.281-.574 2 2 0 0 0-1.102-.721v-.011a2.6 2.6 0 0 0 .452-.235q.199-.134.357-.31.222-.24.34-.551.123-.316.129-.68 0-.597-.229-1.031a1.94 1.94 0 0 0-.621-.721 2.8 2.8 0 0 0-.943-.416 4.7 4.7 0 0 0-1.166-.14h-2.731zm1.418-3.855h1.617q.346.005.616.105.269.093.457.27.188.175.281.427.094.246.094.569 0 .304-.117.556a1.1 1.1 0 0 1-.323.416q-.194.165-.468.258a1.9 1.9 0 0 1-.61.094h-1.547zm0-1.073v-2.437h1.33q.364.006.662.088.3.075.499.252a.9.9 0 0 1 .269.363q.1.216.1.516 0 .28-.106.498-.105.216-.287.369a1.4 1.4 0 0 1-.492.258 2.3 2.3 0 0 1-.633.093zM252.27 204h1.271v-6.34h-1.406v4.488a1.6 1.6 0 0 1-.199.323 1.4 1.4 0 0 1-.27.246q-.182.117-.422.187-.24.065-.545.065-.293 0-.51-.076a.77.77 0 0 1-.357-.258 1.1 1.1 0 0 1-.205-.469 3.6 3.6 0 0 1-.065-.738v-3.768h-1.4v3.756q0 .716.158 1.23.159.51.446.838.292.328.697.487.41.152.908.152.569 0 1.031-.264.464-.269.786-.744zm5.812-1.008q-.44 0-.732-.176a1.3 1.3 0 0 1-.463-.462 2 2 0 0 1-.252-.657 4 4 0 0 1-.071-.761v-.206q0-.38.071-.75.077-.368.252-.656.175-.286.463-.463.293-.181.732-.181a1.42 1.42 0 0 1 .967.369q.176.17.269.398.1.23.1.487h1.318a2.25 2.25 0 0 0-.738-1.723 2.5 2.5 0 0 0-.844-.492 3.1 3.1 0 0 0-1.06-.176q-.727 0-1.278.258a2.6 2.6 0 0 0-.914.685 2.9 2.9 0 0 0-.556 1.014 4.1 4.1 0 0 0-.182 1.23v.206q0 .655.188 1.236.187.574.55 1.008a2.7 2.7 0 0 0 .914.691q.551.252 1.284.252.526 0 1.002-.17.48-.175.849-.474.364-.3.574-.704.217-.41.211-.873h-1.318a.9.9 0 0 1-.111.44 1.1 1.1 0 0 1-.287.346q-.188.146-.434.228a1.7 1.7 0 0 1-.504.076m6.627-1.752 2.021 2.76h1.735l-2.824-3.697 2.466-2.643h-1.687l-1.893 1.992-.58.645V195h-1.406v9h1.406v-2.039zm7.986 2.877q.926 0 1.576-.363.657-.363.973-.82l-.75-.727q-.292.375-.744.58a2.4 2.4 0 0 1-.973.199q-.38 0-.703-.129a1.7 1.7 0 0 1-.551-.363 1.7 1.7 0 0 1-.369-.504 2.5 2.5 0 0 1-.199-.697v-.029h4.395v-.604q0-.68-.182-1.254a2.8 2.8 0 0 0-.539-.99 2.45 2.45 0 0 0-.885-.639 3 3 0 0 0-1.213-.234 2.9 2.9 0 0 0-2.109.891 3.1 3.1 0 0 0-.645 1.031 3.7 3.7 0 0 0-.234 1.347v.241q0 .65.223 1.213.228.557.644.966.417.417.996.651a3.5 3.5 0 0 0 1.289.234m-.17-5.437q.352 0 .616.123.269.117.445.316.182.205.281.481.1.269.1.545v.093h-2.983a2.6 2.6 0 0 1 .2-.65q.134-.288.334-.492a1.4 1.4 0 0 1 .451-.305 1.4 1.4 0 0 1 .556-.111m7.231-2.567h-1.406v1.547h-1.536v1.049h1.536v3.117q0 .61.158 1.043.164.433.451.715.287.275.686.41.404.129.884.129.264 0 .528-.029a5 5 0 0 0 .972-.182q.217-.07.369-.164l-.152-.967-.264.059a6 6 0 0 1-.334.053 5 5 0 0 1-.744.064q-.252 0-.463-.059a.87.87 0 0 1-.603-.568 1.8 1.8 0 0 1-.082-.592v-3.029h2.385v-1.049h-2.385zm6.029-.644h-1.746V204h1.318v-2.895l-.076-3.667 1.19 3.931h.732l1.313-4.072-.082 3.808V204h1.324v-8.531h-1.752l-1.166 3.65zm8.531 8.648q.926 0 1.577-.363.656-.363.972-.82l-.75-.727q-.293.375-.744.58a2.4 2.4 0 0 1-.973.199q-.38 0-.703-.129a1.7 1.7 0 0 1-.55-.363 1.7 1.7 0 0 1-.37-.504 2.5 2.5 0 0 1-.199-.697v-.029h4.395v-.604q0-.68-.182-1.254a2.8 2.8 0 0 0-.539-.99 2.45 2.45 0 0 0-.885-.639 3 3 0 0 0-1.213-.234 2.9 2.9 0 0 0-2.109.891 3.1 3.1 0 0 0-.645 1.031 3.7 3.7 0 0 0-.234 1.347v.241q0 .65.223 1.213.228.557.644.966.417.417.996.651a3.5 3.5 0 0 0 1.289.234m-.17-5.437q.352 0 .616.123.269.117.445.316.182.205.281.481.1.269.1.545v.093h-2.983a2.6 2.6 0 0 1 .2-.65 1.8 1.8 0 0 1 .334-.492 1.4 1.4 0 0 1 .451-.305 1.4 1.4 0 0 1 .556-.111m7.231-2.567h-1.406v1.547h-1.535v1.049h1.535v3.117q0 .61.158 1.043.164.433.451.715.287.275.686.41.404.129.884.129.264 0 .528-.029a5 5 0 0 0 .972-.182q.217-.07.37-.164l-.153-.967-.263.059a6 6 0 0 1-.334.053 5 5 0 0 1-.745.064q-.252 0-.463-.059a.87.87 0 0 1-.603-.568 1.8 1.8 0 0 1-.082-.592v-3.029h2.385v-1.049h-2.385zm8.777 1.43a2.4 2.4 0 0 0-1.201.305 2.9 2.9 0 0 0-.926.838l-.006-.147-.058-.879h-1.313V204h1.401v-3.914q.111-.282.275-.498t.399-.358a1.6 1.6 0 0 1 .498-.216q.28-.07.632-.071.311 0 .622.036.316.035.638.105l.199-1.383a3 3 0 0 0-.503-.111 4.5 4.5 0 0 0-.657-.047m3.147.117v1.166h1.951v4.014h-1.951V204h5.226v-1.16h-1.863v-5.18zm1.822-1.64q0 .222.106.392a.58.58 0 0 0 .322.229.75.75 0 0 0 .375.029.6.6 0 0 0 .293-.147.63.63 0 0 0 .375-.252.6.6 0 0 0 .088-.451.6.6 0 0 0-.229-.41.76.76 0 0 0-.51-.164.9.9 0 0 0-.339.059.69.69 0 0 0-.422.404.8.8 0 0 0-.059.311m7.822 6.972q-.44 0-.732-.176a1.3 1.3 0 0 1-.463-.462 2 2 0 0 1-.252-.657 4 4 0 0 1-.07-.761v-.206q0-.38.07-.75.076-.368.252-.656.175-.286.463-.463.292-.181.732-.181a1.42 1.42 0 0 1 .967.369q.175.17.27.398.099.23.099.487h1.319a2.25 2.25 0 0 0-.194-.967 2.2 2.2 0 0 0-.545-.756 2.5 2.5 0 0 0-.843-.492 3.1 3.1 0 0 0-1.061-.176q-.726 0-1.277.258a2.6 2.6 0 0 0-.914.685 2.9 2.9 0 0 0-.557 1.014 4.1 4.1 0 0 0-.182 1.23v.206q0 .655.188 1.236.187.574.551 1.008.368.433.914.691.55.252 1.283.252.526 0 1.002-.17.48-.175.849-.474.364-.3.575-.704.216-.41.211-.873h-1.319a.9.9 0 0 1-.111.44q-.105.2-.287.346-.188.146-.434.228a1.7 1.7 0 0 1-.504.076M240.861 230h2.953q.633 0 1.172-.158.545-.165.938-.481.393-.31.615-.773.223-.463.217-1.072 0-.346-.1-.657a1.9 1.9 0 0 0-.281-.574 2 2 0 0 0-1.102-.721v-.011a2.6 2.6 0 0 0 .452-.235q.199-.134.357-.31.222-.24.34-.551.123-.316.129-.68 0-.597-.229-1.031a1.94 1.94 0 0 0-.621-.721 2.8 2.8 0 0 0-.943-.416 4.7 4.7 0 0 0-1.166-.14h-2.731zm1.418-3.855h1.617q.346.005.616.105.269.093.457.27.188.175.281.427.094.246.094.569 0 .304-.117.556a1.1 1.1 0 0 1-.323.416q-.194.165-.468.258a1.9 1.9 0 0 1-.61.094h-1.547zm0-1.073v-2.437h1.33q.364.006.662.088.3.075.499.252a.9.9 0 0 1 .269.363q.1.216.1.516 0 .28-.106.498-.105.216-.287.369a1.4 1.4 0 0 1-.492.258 2.3 2.3 0 0 1-.633.093zM252.27 230h1.271v-6.34h-1.406v4.488a1.6 1.6 0 0 1-.199.323 1.4 1.4 0 0 1-.27.246q-.182.117-.422.187-.24.065-.545.065-.293 0-.51-.076a.77.77 0 0 1-.357-.258 1.1 1.1 0 0 1-.205-.469 3.6 3.6 0 0 1-.065-.738v-3.768h-1.4v3.756q0 .716.158 1.23.159.51.446.838.292.328.697.487.41.152.908.152.569 0 1.031-.264.464-.269.786-.744zm5.812-1.008q-.44 0-.732-.176a1.3 1.3 0 0 1-.463-.462 2 2 0 0 1-.252-.657 4 4 0 0 1-.071-.761v-.206q0-.38.071-.75.077-.368.252-.656.175-.286.463-.463.293-.181.732-.181a1.42 1.42 0 0 1 .967.369q.176.17.269.398.1.23.1.487h1.318a2.25 2.25 0 0 0-.738-1.723 2.5 2.5 0 0 0-.844-.492 3.1 3.1 0 0 0-1.06-.176q-.727 0-1.278.258a2.6 2.6 0 0 0-.914.685 2.9 2.9 0 0 0-.556 1.014 4.1 4.1 0 0 0-.182 1.23v.206q0 .655.188 1.236.187.574.55 1.008a2.7 2.7 0 0 0 .914.691q.551.252 1.284.252.526 0 1.002-.17.48-.175.849-.474.364-.3.574-.704.217-.41.211-.873h-1.318a.9.9 0 0 1-.111.44 1.1 1.1 0 0 1-.287.346q-.188.146-.434.228a1.7 1.7 0 0 1-.504.076m6.627-1.752 2.021 2.76h1.735l-2.824-3.697 2.466-2.643h-1.687l-1.893 1.992-.58.645V221h-1.406v9h1.406v-2.039zm7.986 2.877q.926 0 1.576-.363.657-.363.973-.82l-.75-.727q-.292.375-.744.58a2.4 2.4 0 0 1-.973.199q-.38 0-.703-.129a1.7 1.7 0 0 1-.551-.363 1.7 1.7 0 0 1-.369-.504 2.5 2.5 0 0 1-.199-.697v-.029h4.395v-.604q0-.68-.182-1.254a2.8 2.8 0 0 0-.539-.99 2.45 2.45 0 0 0-.885-.639 3 3 0 0 0-1.213-.234 2.9 2.9 0 0 0-2.109.891 3.1 3.1 0 0 0-.645 1.031 3.7 3.7 0 0 0-.234 1.347v.241q0 .65.223 1.213.228.557.644.966.417.417.996.651a3.5 3.5 0 0 0 1.289.234m-.17-5.437q.352 0 .616.123.269.117.445.316.182.205.281.481.1.269.1.545v.093h-2.983a2.6 2.6 0 0 1 .2-.65q.134-.288.334-.492a1.4 1.4 0 0 1 .451-.305 1.4 1.4 0 0 1 .556-.111m7.231-2.567h-1.406v1.547h-1.536v1.049h1.536v3.117q0 .61.158 1.043.164.433.451.715.287.275.686.41.404.129.884.129.264 0 .528-.029a5 5 0 0 0 .972-.182q.217-.07.369-.164l-.152-.967-.264.059a6 6 0 0 1-.334.053 5 5 0 0 1-.744.064q-.252 0-.463-.059a.87.87 0 0 1-.603-.568 1.8 1.8 0 0 1-.082-.592v-3.029h2.385v-1.049h-2.385zm10.142 4.19v-1.125q0-.534-.093-1.026a4.4 4.4 0 0 0-.282-.931 3.5 3.5 0 0 0-.421-.744 2.8 2.8 0 0 0-.592-.592 2.7 2.7 0 0 0-.768-.393 3 3 0 0 0-.937-.14q-.504 0-.926.14a2.5 2.5 0 0 0-.744.387 2.8 2.8 0 0 0-.592.609 3.8 3.8 0 0 0-.416.762 4.7 4.7 0 0 0-.264.92 5.7 5.7 0 0 0-.088 1.008v1.125q0 .498.082.972.082.47.241.885.17.434.427.797.258.363.598.621.335.252.756.399.428.14.937.14.493 0 .909-.135a2.8 2.8 0 0 0 .75-.369q.351-.258.621-.615.269-.363.451-.791a5 5 0 0 0 .258-.908q.093-.48.093-.996m-1.418-1.137v1.137q0 .31-.035.621a3.5 3.5 0 0 1-.105.592 2.7 2.7 0 0 1-.223.591q-.135.264-.34.457a1.3 1.3 0 0 1-.422.27 1.4 1.4 0 0 1-.539.1q-.31 0-.55-.1a1.4 1.4 0 0 1-.416-.281 1.8 1.8 0 0 1-.323-.457 3 3 0 0 1-.205-.592 4 4 0 0 1-.099-.586 6 6 0 0 1-.03-.615v-1.137q0-.316.03-.627.035-.316.105-.598.076-.328.217-.591.14-.27.346-.457.17-.165.398-.252.228-.094.516-.094.299 0 .533.094.234.093.416.257.205.188.346.457.145.264.234.586.077.282.111.592.036.31.035.633m8.45 1.729v-.124q0-.539-.1-1.019a3.6 3.6 0 0 0-.281-.873 3 3 0 0 0-.328-.516 1.9 1.9 0 0 0-.416-.404 2.1 2.1 0 0 0-.621-.305 2.4 2.4 0 0 0-.75-.111q-.311 0-.58.064a1.8 1.8 0 0 0-.803.399 2 2 0 0 0-.27.275V221h-1.4v9h1.265l.065-.691q.106.129.217.24.117.105.246.199.252.182.568.275.317.094.703.094a2.4 2.4 0 0 0 1.295-.369q.328-.216.563-.545.234-.328.375-.732.123-.34.187-.739.065-.397.065-.837m-1.401-.124v.124q0 .263-.029.509t-.088.457a1.9 1.9 0 0 1-.205.51 1.15 1.15 0 0 1-.334.369 1.3 1.3 0 0 1-.346.17 1.5 1.5 0 0 1-.433.059q-.264 0-.481-.065a1.4 1.4 0 0 1-.375-.187 1.6 1.6 0 0 1-.263-.252 2 2 0 0 1-.194-.322v-2.625q.07-.153.164-.282.1-.135.223-.234.17-.147.398-.223.23-.082.516-.082.234 0 .422.053t.334.158q.223.153.351.375.135.217.217.487.059.222.088.48.036.252.035.521m3.909-3.111v1.166h1.816v5.274q0 .369-.1.615a1.05 1.05 0 0 1-.269.398 1 1 0 0 1-.405.211 2 2 0 0 1-.498.065q-.07 0-.199-.006-.13 0-.269-.012a4 4 0 0 1-.282-.023 2 2 0 0 1-.216-.03l-.082 1.143a6 6 0 0 0 .48.07q.159.018.316.024.164.006.329.006.621 0 1.101-.153.48-.152.815-.457.333-.305.509-.767.176-.457.176-1.084v-6.44zm1.687-1.64q0 .327.211.544.216.217.598.217.392 0 .609-.217a.74.74 0 0 0 .217-.544.74.74 0 0 0-.217-.551q-.217-.223-.609-.223-.387 0-.598.229a.76.76 0 0 0-.211.545m7.605 8.097q.926 0 1.577-.363.656-.363.972-.82l-.75-.727q-.293.375-.744.58a2.4 2.4 0 0 1-.973.199q-.38 0-.703-.129a1.7 1.7 0 0 1-.55-.363 1.7 1.7 0 0 1-.37-.504 2.5 2.5 0 0 1-.199-.697v-.029h4.395v-.604q0-.68-.182-1.254a2.8 2.8 0 0 0-.539-.99 2.45 2.45 0 0 0-.885-.639 3 3 0 0 0-1.213-.234q-.615 0-1.16.234a2.8 2.8 0 0 0-.949.657 3.1 3.1 0 0 0-.645 1.031 3.7 3.7 0 0 0-.234 1.347v.241q0 .65.223 1.213.228.557.644.966.417.417.996.651a3.5 3.5 0 0 0 1.289.234m-.169-5.437q.351 0 .615.123.269.117.445.316.182.205.281.481.1.269.1.545v.093h-2.982a2.5 2.5 0 0 1 .199-.65 1.8 1.8 0 0 1 .334-.492 1.4 1.4 0 0 1 1.008-.416m7.177 4.312q-.44 0-.732-.176a1.3 1.3 0 0 1-.463-.462 2 2 0 0 1-.252-.657 4 4 0 0 1-.07-.761v-.206q0-.38.07-.75.076-.368.252-.656.175-.286.463-.463.293-.181.732-.181a1.4 1.4 0 0 1 .967.369q.175.17.27.398.099.23.099.487h1.319a2.26 2.26 0 0 0-.739-1.723 2.5 2.5 0 0 0-.843-.492 3.1 3.1 0 0 0-1.061-.176q-.726 0-1.277.258a2.6 2.6 0 0 0-.914.685 2.9 2.9 0 0 0-.557 1.014 4.1 4.1 0 0 0-.182 1.23v.206q0 .655.188 1.236.187.574.551 1.008.368.433.914.691.55.252 1.283.252.526 0 1.002-.17.48-.175.849-.474.364-.3.575-.704.216-.41.211-.873h-1.319a.9.9 0 0 1-.111.44q-.105.2-.287.346-.188.146-.434.228a1.7 1.7 0 0 1-.504.076m7.26-6.879h-1.406v1.547h-1.535v1.049h1.535v3.117q0 .61.158 1.043.164.433.451.715.288.275.686.41.404.129.884.129.264 0 .528-.029a5 5 0 0 0 .972-.182q.217-.07.37-.164l-.153-.967-.263.059a6 6 0 0 1-.334.053 5 5 0 0 1-.745.064q-.251 0-.462-.059a.87.87 0 0 1-.604-.568 1.8 1.8 0 0 1-.082-.592v-3.029h2.385v-1.049h-2.385zM240.861 256h2.953q.633 0 1.172-.158.545-.165.938-.481.393-.31.615-.773.223-.463.217-1.072 0-.346-.1-.657a1.9 1.9 0 0 0-.281-.574 2 2 0 0 0-1.102-.721v-.011a2.6 2.6 0 0 0 .452-.235q.199-.134.357-.31.222-.24.34-.551.123-.316.129-.68 0-.597-.229-1.031a1.94 1.94 0 0 0-.621-.721 2.8 2.8 0 0 0-.943-.416 4.7 4.7 0 0 0-1.166-.14h-2.731zm1.418-3.855h1.617q.346.005.616.105.269.093.457.27.188.175.281.427.094.246.094.569 0 .304-.117.556a1.1 1.1 0 0 1-.323.416q-.194.165-.468.258a1.9 1.9 0 0 1-.61.094h-1.547zm0-1.073v-2.437h1.33q.364.006.662.088.3.075.499.252a.9.9 0 0 1 .269.363q.1.216.1.516 0 .28-.106.498-.105.216-.287.369a1.4 1.4 0 0 1-.492.258 2.3 2.3 0 0 1-.633.093zM252.27 256h1.271v-6.34h-1.406v4.488a1.6 1.6 0 0 1-.199.323 1.4 1.4 0 0 1-.27.246q-.182.117-.422.187-.24.065-.545.065-.293 0-.51-.076a.77.77 0 0 1-.357-.258 1.1 1.1 0 0 1-.205-.469 3.6 3.6 0 0 1-.065-.738v-3.768h-1.4v3.756q0 .716.158 1.23.159.51.446.838.292.328.697.487.41.152.908.152.569 0 1.031-.264.464-.269.786-.744zm5.812-1.008q-.44 0-.732-.176a1.3 1.3 0 0 1-.463-.462 2 2 0 0 1-.252-.657 4 4 0 0 1-.071-.761v-.206q0-.38.071-.75.077-.368.252-.656.175-.286.463-.463.293-.181.732-.181a1.42 1.42 0 0 1 .967.369q.176.17.269.398.1.23.1.487h1.318a2.25 2.25 0 0 0-.738-1.723 2.5 2.5 0 0 0-.844-.492 3.1 3.1 0 0 0-1.06-.176q-.727 0-1.278.258a2.6 2.6 0 0 0-.914.685 2.9 2.9 0 0 0-.556 1.014 4.1 4.1 0 0 0-.182 1.23v.206q0 .655.188 1.236.187.574.55 1.008a2.7 2.7 0 0 0 .914.691q.551.252 1.284.252.526 0 1.002-.17.48-.175.849-.474.364-.3.574-.704.217-.41.211-.873h-1.318a.9.9 0 0 1-.111.44 1.1 1.1 0 0 1-.287.346q-.188.146-.434.228a1.7 1.7 0 0 1-.504.076m6.627-1.752 2.021 2.76h1.735l-2.824-3.697 2.466-2.643h-1.687l-1.893 1.992-.58.645V247h-1.406v9h1.406v-2.039zm7.986 2.877q.926 0 1.576-.363.657-.363.973-.82l-.75-.727q-.292.375-.744.58a2.4 2.4 0 0 1-.973.199q-.38 0-.703-.129a1.7 1.7 0 0 1-.551-.363 1.7 1.7 0 0 1-.369-.504 2.5 2.5 0 0 1-.199-.697v-.029h4.395v-.604q0-.68-.182-1.254a2.8 2.8 0 0 0-.539-.99 2.45 2.45 0 0 0-.885-.639 3 3 0 0 0-1.213-.234 2.9 2.9 0 0 0-2.109.891 3.1 3.1 0 0 0-.645 1.031 3.7 3.7 0 0 0-.234 1.347v.241q0 .65.223 1.213.228.557.644.966.417.417.996.651a3.5 3.5 0 0 0 1.289.234m-.17-5.437q.352 0 .616.123.269.117.445.316.182.205.281.481.1.269.1.545v.093h-2.983a2.6 2.6 0 0 1 .2-.65q.134-.288.334-.492a1.4 1.4 0 0 1 .451-.305 1.4 1.4 0 0 1 .556-.111m7.231-2.567h-1.406v1.547h-1.536v1.049h1.536v3.117q0 .61.158 1.043.164.433.451.715.287.275.686.41.404.129.884.129.264 0 .528-.029a5 5 0 0 0 .972-.182q.217-.07.369-.164l-.152-.967-.264.059a6 6 0 0 1-.334.053 5 5 0 0 1-.744.064q-.252 0-.463-.059a.87.87 0 0 1-.603-.568 1.8 1.8 0 0 1-.082-.592v-3.029h2.385v-1.049h-2.385zm5.871 4.635h1.447q.645 0 1.184-.187a2.8 2.8 0 0 0 .937-.528 2.4 2.4 0 0 0 .61-.826 2.6 2.6 0 0 0 .216-1.066q0-.616-.216-1.108a2.4 2.4 0 0 0-.61-.838 2.8 2.8 0 0 0-.937-.533 3.7 3.7 0 0 0-1.184-.193h-2.853V256h1.406zm0-1.148v-2.983h1.447q.357 0 .639.117.286.112.486.317t.299.486q.105.276.106.615 0 .31-.106.575a1.24 1.24 0 0 1-.299.457q-.2.192-.486.304a1.9 1.9 0 0 1-.639.112zm5.473 1.171v.124q0 .696.199 1.283.2.585.58 1.019.375.434.926.68.55.246 1.248.246.692 0 1.236-.246a2.6 2.6 0 0 0 .926-.68q.375-.434.574-1.019.2-.587.199-1.283v-.124q0-.69-.199-1.277a3 3 0 0 0-.574-1.025 2.7 2.7 0 0 0-.932-.68 3 3 0 0 0-1.242-.246q-.697 0-1.242.246t-.92.68a3 3 0 0 0-.58 1.025 4 4 0 0 0-.199 1.277m1.4.124v-.124q0-.415.088-.796.093-.381.281-.668.193-.288.481-.457.292-.17.691-.17.405 0 .691.17.294.17.481.457.188.287.281.668.094.38.094.796v.124q0 .427-.094.808-.087.381-.275.668a1.4 1.4 0 0 1-.481.457q-.293.165-.685.164-.404 0-.698-.164a1.5 1.5 0 0 1-.486-.457 2.1 2.1 0 0 1-.281-.668 3.6 3.6 0 0 1-.088-.808m6.334-5.895v1.166h2.004v6.674h-2.004V256h5.338v-1.16h-1.922V247zm7.26 2.66v1.166h1.951v4.014h-1.951V256h5.226v-1.16h-1.863v-5.18zm1.822-1.64a.73.73 0 0 0 .105.392.6.6 0 0 0 .323.229.75.75 0 0 0 .375.029.6.6 0 0 0 .293-.147.63.63 0 0 0 .375-.252.6.6 0 0 0 .088-.451.6.6 0 0 0-.229-.41.76.76 0 0 0-.51-.164 1 1 0 0 0-.34.059.69.69 0 0 0-.421.404.8.8 0 0 0-.059.311m7.822 6.972q-.44 0-.732-.176a1.3 1.3 0 0 1-.463-.462 2 2 0 0 1-.252-.657 4 4 0 0 1-.07-.761v-.206q0-.38.07-.75.076-.368.252-.656.175-.286.463-.463.293-.181.732-.181a1.4 1.4 0 0 1 .967.369q.175.17.27.398.099.23.099.487h1.319a2.26 2.26 0 0 0-.739-1.723 2.5 2.5 0 0 0-.843-.492 3.1 3.1 0 0 0-1.061-.176q-.726 0-1.277.258a2.6 2.6 0 0 0-.914.685 2.9 2.9 0 0 0-.557 1.014 4.1 4.1 0 0 0-.182 1.23v.206q0 .655.188 1.236.187.574.551 1.008.368.433.914.691.55.252 1.283.252.526 0 1.002-.17.48-.175.849-.474.364-.3.575-.704.216-.41.211-.873h-1.319a.9.9 0 0 1-.111.44q-.105.2-.287.346-.188.146-.434.228a1.7 1.7 0 0 1-.504.076m5.244 3.569q.464 0 .809-.165.346-.158.598-.398.251-.234.416-.516.17-.275.281-.521l3.217-7.301h-1.553l-1.529 3.891-.264.679-.217-.697-1.576-3.873h-1.541l2.701 6.059-.398.756q-.065.129-.141.246a3 3 0 0 1-.187.269 1.5 1.5 0 0 1-.287.27.6.6 0 0 1-.37.123q-.093 0-.246-.012l-.263-.012-.194 1.096q.17.041.358.07.188.036.386.036"/><path stroke="#d8d9df" stroke-width="2" d="M240.861 204h2.953q.633 0 1.172-.158.545-.165.938-.481.393-.31.615-.773.223-.463.217-1.072 0-.346-.1-.657a1.9 1.9 0 0 0-.281-.574 2 2 0 0 0-1.102-.721v-.011a2.6 2.6 0 0 0 .452-.235q.199-.134.357-.31.222-.24.34-.551.123-.316.129-.68 0-.597-.229-1.031a1.94 1.94 0 0 0-.621-.721 2.8 2.8 0 0 0-.943-.416 4.7 4.7 0 0 0-1.166-.14h-2.731zm1.418-3.855h1.617q.346.005.616.105.269.093.457.27.188.175.281.427.094.246.094.569 0 .304-.117.556a1.1 1.1 0 0 1-.323.416q-.194.165-.468.258a1.9 1.9 0 0 1-.61.094h-1.547zm0-1.073v-2.437h1.33q.364.006.662.088.3.075.499.252a.9.9 0 0 1 .269.363q.1.216.1.516 0 .28-.106.498-.105.216-.287.369a1.4 1.4 0 0 1-.492.258 2.3 2.3 0 0 1-.633.093z" mask="url(#b)"/><path stroke="#d8d9df" stroke-width="2" d="M252.27 204h1.271v-6.34h-1.406v4.488a1.6 1.6 0 0 1-.199.323 1.4 1.4 0 0 1-.27.246q-.182.117-.422.187-.24.065-.545.065-.293 0-.51-.076a.77.77 0 0 1-.357-.258 1.1 1.1 0 0 1-.205-.469 3.6 3.6 0 0 1-.065-.738v-3.768h-1.4v3.756q0 .716.158 1.23.159.51.446.838.292.328.697.487.41.152.908.152.569 0 1.031-.264.464-.269.786-.744z" mask="url(#b)"/><path stroke="#d8d9df" stroke-width="2" d="M258.082 202.992q-.44 0-.732-.176a1.3 1.3 0 0 1-.463-.462 2 2 0 0 1-.252-.657 4 4 0 0 1-.071-.761v-.206q0-.38.071-.75.077-.368.252-.656.175-.286.463-.463.293-.181.732-.181a1.42 1.42 0 0 1 .967.369q.176.17.269.398.1.23.1.487h1.318a2.25 2.25 0 0 0-.738-1.723 2.5 2.5 0 0 0-.844-.492 3.1 3.1 0 0 0-1.06-.176q-.727 0-1.278.258a2.6 2.6 0 0 0-.914.685 2.9 2.9 0 0 0-.556 1.014 4.1 4.1 0 0 0-.182 1.23v.206q0 .655.188 1.236.187.574.55 1.008a2.7 2.7 0 0 0 .914.691q.551.252 1.284.252.526 0 1.002-.17.48-.175.849-.474.364-.3.574-.704.217-.41.211-.873h-1.318a.9.9 0 0 1-.111.44 1.1 1.1 0 0 1-.287.346q-.188.146-.434.228a1.7 1.7 0 0 1-.504.076Z" mask="url(#b)"/><path stroke="#d8d9df" stroke-width="2" d="m264.709 201.24 2.021 2.76h1.735l-2.824-3.697 2.466-2.643h-1.687l-1.893 1.992-.58.645V195h-1.406v9h1.406v-2.039z" mask="url(#b)"/><path stroke="#d8d9df" stroke-width="2" d="M272.695 204.117q.926 0 1.576-.363.657-.363.973-.82l-.75-.727q-.292.375-.744.58a2.4 2.4 0 0 1-.973.199q-.38 0-.703-.129a1.7 1.7 0 0 1-.551-.363 1.7 1.7 0 0 1-.369-.504 2.5 2.5 0 0 1-.199-.697v-.029h4.395v-.604q0-.68-.182-1.254a2.8 2.8 0 0 0-.539-.99 2.45 2.45 0 0 0-.885-.639 3 3 0 0 0-1.213-.234 2.9 2.9 0 0 0-2.109.891 3.1 3.1 0 0 0-.645 1.031 3.7 3.7 0 0 0-.234 1.347v.241q0 .65.223 1.213.228.557.644.966.417.417.996.651a3.5 3.5 0 0 0 1.289.234Zm-.17-5.437q.352 0 .616.123.269.117.445.316.182.205.281.481.1.269.1.545v.093h-2.983a2.6 2.6 0 0 1 .2-.65q.134-.288.334-.492a1.4 1.4 0 0 1 .451-.305 1.4 1.4 0 0 1 .556-.111Z" mask="url(#b)"/><path stroke="#d8d9df" stroke-width="2" d="M279.756 196.113h-1.406v1.547h-1.536v1.049h1.536v3.117q0 .61.158 1.043.164.433.451.715.287.275.686.41.404.129.884.129.264 0 .528-.029a5 5 0 0 0 .972-.182q.217-.07.369-.164l-.152-.967-.264.059a6 6 0 0 1-.334.053 5 5 0 0 1-.744.064q-.252 0-.463-.059a.87.87 0 0 1-.603-.568 1.8 1.8 0 0 1-.082-.592v-3.029h2.385v-1.049h-2.385z" mask="url(#b)"/><path stroke="#d8d9df" stroke-width="2" d="M285.785 195.469h-1.746V204h1.318v-2.895l-.076-3.667 1.19 3.931h.732l1.313-4.072-.082 3.808V204h1.324v-8.531h-1.752l-1.166 3.65z" mask="url(#b)"/><path stroke="#d8d9df" stroke-width="2" d="M294.316 204.117q.926 0 1.577-.363.656-.363.972-.82l-.75-.727q-.293.375-.744.58a2.4 2.4 0 0 1-.973.199q-.38 0-.703-.129a1.7 1.7 0 0 1-.55-.363 1.7 1.7 0 0 1-.37-.504 2.5 2.5 0 0 1-.199-.697v-.029h4.395v-.604q0-.68-.182-1.254a2.8 2.8 0 0 0-.539-.99 2.45 2.45 0 0 0-.885-.639 3 3 0 0 0-1.213-.234 2.9 2.9 0 0 0-2.109.891 3.1 3.1 0 0 0-.645 1.031 3.7 3.7 0 0 0-.234 1.347v.241q0 .65.223 1.213.228.557.644.966.417.417.996.651a3.5 3.5 0 0 0 1.289.234Zm-.17-5.437q.352 0 .616.123.269.117.445.316.182.205.281.481.1.269.1.545v.093h-2.983a2.6 2.6 0 0 1 .2-.65 1.8 1.8 0 0 1 .334-.492 1.4 1.4 0 0 1 .451-.305 1.4 1.4 0 0 1 .556-.111Z" mask="url(#b)"/><path stroke="#d8d9df" stroke-width="2" d="M301.377 196.113h-1.406v1.547h-1.535v1.049h1.535v3.117q0 .61.158 1.043.164.433.451.715.287.275.686.41.404.129.884.129.264 0 .528-.029a5 5 0 0 0 .972-.182q.217-.07.37-.164l-.153-.967-.263.059a6 6 0 0 1-.334.053 5 5 0 0 1-.745.064q-.252 0-.463-.059a.87.87 0 0 1-.603-.568 1.8 1.8 0 0 1-.082-.592v-3.029h2.385v-1.049h-2.385z" mask="url(#b)"/><path stroke="#d8d9df" stroke-width="2" d="M310.154 197.543a2.4 2.4 0 0 0-1.201.305 2.9 2.9 0 0 0-.926.838l-.006-.147-.058-.879h-1.313V204h1.401v-3.914q.111-.282.275-.498t.399-.358a1.6 1.6 0 0 1 .498-.216q.28-.07.632-.071.311 0 .622.036.316.035.638.105l.199-1.383a3 3 0 0 0-.503-.111 4.5 4.5 0 0 0-.657-.047Z" mask="url(#b)"/><path stroke="#d8d9df" stroke-width="2" d="M313.301 197.66v1.166h1.951v4.014h-1.951V204h5.226v-1.16h-1.863v-5.18zm1.822-1.64q0 .222.106.392a.58.58 0 0 0 .322.229.75.75 0 0 0 .375.029.6.6 0 0 0 .293-.147.63.63 0 0 0 .375-.252.6.6 0 0 0 .088-.451.6.6 0 0 0-.229-.41.76.76 0 0 0-.51-.164.9.9 0 0 0-.339.059.69.69 0 0 0-.422.404.8.8 0 0 0-.059.311Z" mask="url(#b)"/><path stroke="#d8d9df" stroke-width="2" d="M322.945 202.992q-.44 0-.732-.176a1.3 1.3 0 0 1-.463-.462 2 2 0 0 1-.252-.657 4 4 0 0 1-.07-.761v-.206q0-.38.07-.75.076-.368.252-.656.175-.286.463-.463.292-.181.732-.181a1.42 1.42 0 0 1 .967.369q.175.17.27.398.099.23.099.487h1.319a2.25 2.25 0 0 0-.194-.967 2.2 2.2 0 0 0-.545-.756 2.5 2.5 0 0 0-.843-.492 3.1 3.1 0 0 0-1.061-.176q-.726 0-1.277.258a2.6 2.6 0 0 0-.914.685 2.9 2.9 0 0 0-.557 1.014 4.1 4.1 0 0 0-.182 1.23v.206q0 .655.188 1.236.187.574.551 1.008.368.433.914.691.55.252 1.283.252.526 0 1.002-.17.48-.175.849-.474.364-.3.575-.704.216-.41.211-.873h-1.319a.9.9 0 0 1-.111.44q-.105.2-.287.346-.188.146-.434.228a1.7 1.7 0 0 1-.504.076Z" mask="url(#b)"/><path stroke="#d8d9df" stroke-width="2" d="M240.861 230h2.953q.633 0 1.172-.158.545-.165.938-.481.393-.31.615-.773.223-.463.217-1.072 0-.346-.1-.657a1.9 1.9 0 0 0-.281-.574 2 2 0 0 0-1.102-.721v-.011a2.6 2.6 0 0 0 .452-.235q.199-.134.357-.31.222-.24.34-.551.123-.316.129-.68 0-.597-.229-1.031a1.94 1.94 0 0 0-.621-.721 2.8 2.8 0 0 0-.943-.416 4.7 4.7 0 0 0-1.166-.14h-2.731zm1.418-3.855h1.617q.346.005.616.105.269.093.457.27.188.175.281.427.094.246.094.569 0 .304-.117.556a1.1 1.1 0 0 1-.323.416q-.194.165-.468.258a1.9 1.9 0 0 1-.61.094h-1.547zm0-1.073v-2.437h1.33q.364.006.662.088.3.075.499.252a.9.9 0 0 1 .269.363q.1.216.1.516 0 .28-.106.498-.105.216-.287.369a1.4 1.4 0 0 1-.492.258 2.3 2.3 0 0 1-.633.093z" mask="url(#b)"/><path stroke="#d8d9df" stroke-width="2" d="M252.27 230h1.271v-6.34h-1.406v4.488a1.6 1.6 0 0 1-.199.323 1.4 1.4 0 0 1-.27.246q-.182.117-.422.187-.24.065-.545.065-.293 0-.51-.076a.77.77 0 0 1-.357-.258 1.1 1.1 0 0 1-.205-.469 3.6 3.6 0 0 1-.065-.738v-3.768h-1.4v3.756q0 .716.158 1.23.159.51.446.838.292.328.697.487.41.152.908.152.569 0 1.031-.264.464-.269.786-.744z" mask="url(#b)"/><path stroke="#d8d9df" stroke-width="2" d="M258.082 228.992q-.44 0-.732-.176a1.3 1.3 0 0 1-.463-.462 2 2 0 0 1-.252-.657 4 4 0 0 1-.071-.761v-.206q0-.38.071-.75.077-.368.252-.656.175-.286.463-.463.293-.181.732-.181a1.42 1.42 0 0 1 .967.369q.176.17.269.398.1.23.1.487h1.318a2.25 2.25 0 0 0-.738-1.723 2.5 2.5 0 0 0-.844-.492 3.1 3.1 0 0 0-1.06-.176q-.727 0-1.278.258a2.6 2.6 0 0 0-.914.685 2.9 2.9 0 0 0-.556 1.014 4.1 4.1 0 0 0-.182 1.23v.206q0 .655.188 1.236.187.574.55 1.008a2.7 2.7 0 0 0 .914.691q.551.252 1.284.252.526 0 1.002-.17.48-.175.849-.474.364-.3.574-.704.217-.41.211-.873h-1.318a.9.9 0 0 1-.111.44 1.1 1.1 0 0 1-.287.346q-.188.146-.434.228a1.7 1.7 0 0 1-.504.076Z" mask="url(#b)"/><path stroke="#d8d9df" stroke-width="2" d="m264.709 227.24 2.021 2.76h1.735l-2.824-3.697 2.466-2.643h-1.687l-1.893 1.992-.58.645V221h-1.406v9h1.406v-2.039z" mask="url(#b)"/><path stroke="#d8d9df" stroke-width="2" d="M272.695 230.117q.926 0 1.576-.363.657-.363.973-.82l-.75-.727q-.292.375-.744.58a2.4 2.4 0 0 1-.973.199q-.38 0-.703-.129a1.7 1.7 0 0 1-.551-.363 1.7 1.7 0 0 1-.369-.504 2.5 2.5 0 0 1-.199-.697v-.029h4.395v-.604q0-.68-.182-1.254a2.8 2.8 0 0 0-.539-.99 2.45 2.45 0 0 0-.885-.639 3 3 0 0 0-1.213-.234 2.9 2.9 0 0 0-2.109.891 3.1 3.1 0 0 0-.645 1.031 3.7 3.7 0 0 0-.234 1.347v.241q0 .65.223 1.213.228.557.644.966.417.417.996.651a3.5 3.5 0 0 0 1.289.234Zm-.17-5.437q.352 0 .616.123.269.117.445.316.182.205.281.481.1.269.1.545v.093h-2.983a2.6 2.6 0 0 1 .2-.65q.134-.288.334-.492a1.4 1.4 0 0 1 .451-.305 1.4 1.4 0 0 1 .556-.111Z" mask="url(#b)"/><path stroke="#d8d9df" stroke-width="2" d="M279.756 222.113h-1.406v1.547h-1.536v1.049h1.536v3.117q0 .61.158 1.043.164.433.451.715.287.275.686.41.404.129.884.129.264 0 .528-.029a5 5 0 0 0 .972-.182q.217-.07.369-.164l-.152-.967-.264.059a6 6 0 0 1-.334.053 5 5 0 0 1-.744.064q-.252 0-.463-.059a.87.87 0 0 1-.603-.568 1.8 1.8 0 0 1-.082-.592v-3.029h2.385v-1.049h-2.385z" mask="url(#b)"/><path stroke="#d8d9df" stroke-width="2" d="M289.898 226.303v-1.125q0-.534-.093-1.026a4.4 4.4 0 0 0-.282-.931 3.5 3.5 0 0 0-.421-.744 2.8 2.8 0 0 0-.592-.592 2.7 2.7 0 0 0-.768-.393 3 3 0 0 0-.937-.14q-.504 0-.926.14a2.5 2.5 0 0 0-.744.387 2.8 2.8 0 0 0-.592.609 3.8 3.8 0 0 0-.416.762 4.7 4.7 0 0 0-.264.92 5.7 5.7 0 0 0-.088 1.008v1.125q0 .498.082.972.082.47.241.885.17.434.427.797.258.363.598.621.335.252.756.399.428.14.937.14.493 0 .909-.135a2.8 2.8 0 0 0 .75-.369q.351-.258.621-.615.269-.363.451-.791a5 5 0 0 0 .258-.908q.093-.48.093-.996Zm-1.418-1.137v1.137q0 .31-.035.621a3.5 3.5 0 0 1-.105.592 2.7 2.7 0 0 1-.223.591q-.135.264-.34.457a1.3 1.3 0 0 1-.422.27 1.4 1.4 0 0 1-.539.1q-.31 0-.55-.1a1.4 1.4 0 0 1-.416-.281 1.8 1.8 0 0 1-.323-.457 3 3 0 0 1-.205-.592 4 4 0 0 1-.099-.586 6 6 0 0 1-.03-.615v-1.137q0-.316.03-.627.035-.316.105-.598.076-.328.217-.591.14-.27.346-.457.17-.165.398-.252.228-.094.516-.094.299 0 .533.094.234.093.416.257.205.188.346.457.145.264.234.586.077.282.111.592.036.31.035.633Z" mask="url(#b)"/><path stroke="#d8d9df" stroke-width="2" d="M296.93 226.895v-.124q0-.539-.1-1.019a3.6 3.6 0 0 0-.281-.873 3 3 0 0 0-.328-.516 1.9 1.9 0 0 0-.416-.404 2.1 2.1 0 0 0-.621-.305 2.4 2.4 0 0 0-.75-.111q-.311 0-.58.064a1.8 1.8 0 0 0-.803.399 2 2 0 0 0-.27.275V221h-1.4v9h1.265l.065-.691q.106.129.217.24.117.105.246.199.252.182.568.275.317.094.703.094a2.4 2.4 0 0 0 1.295-.369q.328-.216.563-.545.234-.328.375-.732.123-.34.187-.739.065-.397.065-.837Zm-1.401-.124v.124q0 .263-.029.509t-.088.457a1.9 1.9 0 0 1-.205.51 1.15 1.15 0 0 1-.334.369 1.3 1.3 0 0 1-.346.17 1.5 1.5 0 0 1-.433.059q-.264 0-.481-.065a1.4 1.4 0 0 1-.375-.187 1.6 1.6 0 0 1-.263-.252 2 2 0 0 1-.194-.322v-2.625q.07-.153.164-.282.1-.135.223-.234.17-.147.398-.223.23-.082.516-.082.234 0 .422.053t.334.158q.223.153.351.375.135.217.217.487.059.222.088.48.036.252.035.521Z" mask="url(#b)"/><path stroke="#d8d9df" stroke-width="2" d="M299.438 223.66v1.166h1.816v5.274q0 .369-.1.615a1.05 1.05 0 0 1-.269.398 1 1 0 0 1-.405.211 2 2 0 0 1-.498.065q-.07 0-.199-.006-.13 0-.269-.012a4 4 0 0 1-.282-.023 2 2 0 0 1-.216-.03l-.082 1.143a6 6 0 0 0 .48.07q.159.018.316.024.164.006.329.006.621 0 1.101-.153.48-.152.815-.457.333-.305.509-.767.176-.457.176-1.084v-6.44zm1.687-1.64q0 .327.211.544.216.217.598.217.392 0 .609-.217a.74.74 0 0 0 .217-.544.74.74 0 0 0-.217-.551q-.217-.223-.609-.223-.387 0-.598.229a.76.76 0 0 0-.211.545Z" mask="url(#b)"/><path stroke="#d8d9df" stroke-width="2" d="M308.73 230.117q.926 0 1.577-.363.656-.363.972-.82l-.75-.727q-.293.375-.744.58a2.4 2.4 0 0 1-.973.199q-.38 0-.703-.129a1.7 1.7 0 0 1-.55-.363 1.7 1.7 0 0 1-.37-.504 2.5 2.5 0 0 1-.199-.697v-.029h4.395v-.604q0-.68-.182-1.254a2.8 2.8 0 0 0-.539-.99 2.45 2.45 0 0 0-.885-.639 3 3 0 0 0-1.213-.234q-.615 0-1.16.234a2.8 2.8 0 0 0-.949.657 3.1 3.1 0 0 0-.645 1.031 3.7 3.7 0 0 0-.234 1.347v.241q0 .65.223 1.213.228.557.644.966.417.417.996.651a3.5 3.5 0 0 0 1.289.234Zm-.169-5.437q.351 0 .615.123.269.117.445.316.182.205.281.481.1.269.1.545v.093h-2.982a2.5 2.5 0 0 1 .199-.65 1.8 1.8 0 0 1 .334-.492 1.4 1.4 0 0 1 1.008-.416Z" mask="url(#b)"/><path stroke="#d8d9df" stroke-width="2" d="M315.738 228.992q-.44 0-.732-.176a1.3 1.3 0 0 1-.463-.462 2 2 0 0 1-.252-.657 4 4 0 0 1-.07-.761v-.206q0-.38.07-.75.076-.368.252-.656.175-.286.463-.463.293-.181.732-.181a1.4 1.4 0 0 1 .967.369q.175.17.27.398.099.23.099.487h1.319a2.26 2.26 0 0 0-.739-1.723 2.5 2.5 0 0 0-.843-.492 3.1 3.1 0 0 0-1.061-.176q-.726 0-1.277.258a2.6 2.6 0 0 0-.914.685 2.9 2.9 0 0 0-.557 1.014 4.1 4.1 0 0 0-.182 1.23v.206q0 .655.188 1.236.187.574.551 1.008.368.433.914.691.55.252 1.283.252.526 0 1.002-.17.48-.175.849-.474.364-.3.575-.704.216-.41.211-.873h-1.319a.9.9 0 0 1-.111.44q-.105.2-.287.346-.188.146-.434.228a1.7 1.7 0 0 1-.504.076Z" mask="url(#b)"/><path stroke="#d8d9df" stroke-width="2" d="M322.998 222.113h-1.406v1.547h-1.535v1.049h1.535v3.117q0 .61.158 1.043.164.433.451.715.288.275.686.41.404.129.884.129.264 0 .528-.029a5 5 0 0 0 .972-.182q.217-.07.37-.164l-.153-.967-.263.059a6 6 0 0 1-.334.053 5 5 0 0 1-.745.064q-.251 0-.462-.059a.87.87 0 0 1-.604-.568 1.8 1.8 0 0 1-.082-.592v-3.029h2.385v-1.049h-2.385z" mask="url(#b)"/><path stroke="#d8d9df" stroke-width="2" d="M240.861 256h2.953q.633 0 1.172-.158.545-.165.938-.481.393-.31.615-.773.223-.463.217-1.072 0-.346-.1-.657a1.9 1.9 0 0 0-.281-.574 2 2 0 0 0-1.102-.721v-.011a2.6 2.6 0 0 0 .452-.235q.199-.134.357-.31.222-.24.34-.551.123-.316.129-.68 0-.597-.229-1.031a1.94 1.94 0 0 0-.621-.721 2.8 2.8 0 0 0-.943-.416 4.7 4.7 0 0 0-1.166-.14h-2.731zm1.418-3.855h1.617q.346.005.616.105.269.093.457.27.188.175.281.427.094.246.094.569 0 .304-.117.556a1.1 1.1 0 0 1-.323.416q-.194.165-.468.258a1.9 1.9 0 0 1-.61.094h-1.547zm0-1.073v-2.437h1.33q.364.006.662.088.3.075.499.252a.9.9 0 0 1 .269.363q.1.216.1.516 0 .28-.106.498-.105.216-.287.369a1.4 1.4 0 0 1-.492.258 2.3 2.3 0 0 1-.633.093z" mask="url(#b)"/><path stroke="#d8d9df" stroke-width="2" d="M252.27 256h1.271v-6.34h-1.406v4.488a1.6 1.6 0 0 1-.199.323 1.4 1.4 0 0 1-.27.246q-.182.117-.422.187-.24.065-.545.065-.293 0-.51-.076a.77.77 0 0 1-.357-.258 1.1 1.1 0 0 1-.205-.469 3.6 3.6 0 0 1-.065-.738v-3.768h-1.4v3.756q0 .716.158 1.23.159.51.446.838.292.328.697.487.41.152.908.152.569 0 1.031-.264.464-.269.786-.744z" mask="url(#b)"/><path stroke="#d8d9df" stroke-width="2" d="M258.082 254.992q-.44 0-.732-.176a1.3 1.3 0 0 1-.463-.462 2 2 0 0 1-.252-.657 4 4 0 0 1-.071-.761v-.206q0-.38.071-.75.077-.368.252-.656.175-.286.463-.463.293-.181.732-.181a1.42 1.42 0 0 1 .967.369q.176.17.269.398.1.23.1.487h1.318a2.25 2.25 0 0 0-.738-1.723 2.5 2.5 0 0 0-.844-.492 3.1 3.1 0 0 0-1.06-.176q-.727 0-1.278.258a2.6 2.6 0 0 0-.914.685 2.9 2.9 0 0 0-.556 1.014 4.1 4.1 0 0 0-.182 1.23v.206q0 .655.188 1.236.187.574.55 1.008a2.7 2.7 0 0 0 .914.691q.551.252 1.284.252.526 0 1.002-.17.48-.175.849-.474.364-.3.574-.704.217-.41.211-.873h-1.318a.9.9 0 0 1-.111.44 1.1 1.1 0 0 1-.287.346q-.188.146-.434.228a1.7 1.7 0 0 1-.504.076Z" mask="url(#b)"/><path stroke="#d8d9df" stroke-width="2" d="m264.709 253.24 2.021 2.76h1.735l-2.824-3.697 2.466-2.643h-1.687l-1.893 1.992-.58.645V247h-1.406v9h1.406v-2.039z" mask="url(#b)"/><path stroke="#d8d9df" stroke-width="2" d="M272.695 256.117q.926 0 1.576-.363.657-.363.973-.82l-.75-.727q-.292.375-.744.58a2.4 2.4 0 0 1-.973.199q-.38 0-.703-.129a1.7 1.7 0 0 1-.551-.363 1.7 1.7 0 0 1-.369-.504 2.5 2.5 0 0 1-.199-.697v-.029h4.395v-.604q0-.68-.182-1.254a2.8 2.8 0 0 0-.539-.99 2.45 2.45 0 0 0-.885-.639 3 3 0 0 0-1.213-.234 2.9 2.9 0 0 0-2.109.891 3.1 3.1 0 0 0-.645 1.031 3.7 3.7 0 0 0-.234 1.347v.241q0 .65.223 1.213.228.557.644.966.417.417.996.651a3.5 3.5 0 0 0 1.289.234Zm-.17-5.437q.352 0 .616.123.269.117.445.316.182.205.281.481.1.269.1.545v.093h-2.983a2.6 2.6 0 0 1 .2-.65q.134-.288.334-.492a1.4 1.4 0 0 1 .451-.305 1.4 1.4 0 0 1 .556-.111Z" mask="url(#b)"/><path stroke="#d8d9df" stroke-width="2" d="M279.756 248.113h-1.406v1.547h-1.536v1.049h1.536v3.117q0 .61.158 1.043.164.433.451.715.287.275.686.41.404.129.884.129.264 0 .528-.029a5 5 0 0 0 .972-.182q.217-.07.369-.164l-.152-.967-.264.059a6 6 0 0 1-.334.053 5 5 0 0 1-.744.064q-.252 0-.463-.059a.87.87 0 0 1-.603-.568 1.8 1.8 0 0 1-.082-.592v-3.029h2.385v-1.049h-2.385z" mask="url(#b)"/><path stroke="#d8d9df" stroke-width="2" d="M285.627 252.748h1.447q.645 0 1.184-.187a2.8 2.8 0 0 0 .937-.528 2.4 2.4 0 0 0 .61-.826 2.6 2.6 0 0 0 .216-1.066q0-.616-.216-1.108a2.4 2.4 0 0 0-.61-.838 2.8 2.8 0 0 0-.937-.533 3.7 3.7 0 0 0-1.184-.193h-2.853V256h1.406zm0-1.148v-2.983h1.447q.357 0 .639.117.286.112.486.317t.299.486q.105.276.106.615 0 .31-.106.575a1.24 1.24 0 0 1-.299.457q-.2.192-.486.304a1.9 1.9 0 0 1-.639.112z" mask="url(#b)"/><path stroke="#d8d9df" stroke-width="2" d="M291.1 252.771v.124q0 .696.199 1.283.2.585.58 1.019.375.434.926.68.55.246 1.248.246.692 0 1.236-.246a2.6 2.6 0 0 0 .926-.68q.375-.434.574-1.019.2-.587.199-1.283v-.124q0-.69-.199-1.277a3 3 0 0 0-.574-1.025 2.7 2.7 0 0 0-.932-.68 3 3 0 0 0-1.242-.246q-.697 0-1.242.246t-.92.68a3 3 0 0 0-.58 1.025 4 4 0 0 0-.199 1.277Zm1.4.124v-.124q0-.415.088-.796.093-.381.281-.668.193-.288.481-.457.292-.17.691-.17.405 0 .691.17.294.17.481.457.188.287.281.668.094.38.094.796v.124q0 .427-.094.808-.087.381-.275.668a1.4 1.4 0 0 1-.481.457q-.293.165-.685.164-.404 0-.698-.164a1.5 1.5 0 0 1-.486-.457 2.1 2.1 0 0 1-.281-.668 3.6 3.6 0 0 1-.088-.808Z" mask="url(#b)"/><path stroke="#d8d9df" stroke-width="2" d="M298.834 247v1.166h2.004v6.674h-2.004V256h5.338v-1.16h-1.922V247z" mask="url(#b)"/><path stroke="#d8d9df" stroke-width="2" d="M306.094 249.66v1.166h1.951v4.014h-1.951V256h5.226v-1.16h-1.863v-5.18zm1.822-1.64a.73.73 0 0 0 .105.392.6.6 0 0 0 .323.229.75.75 0 0 0 .375.029.6.6 0 0 0 .293-.147.63.63 0 0 0 .375-.252.6.6 0 0 0 .088-.451.6.6 0 0 0-.229-.41.76.76 0 0 0-.51-.164 1 1 0 0 0-.34.059.69.69 0 0 0-.421.404.8.8 0 0 0-.059.311Z" mask="url(#b)"/><path stroke="#d8d9df" stroke-width="2" d="M315.738 254.992q-.44 0-.732-.176a1.3 1.3 0 0 1-.463-.462 2 2 0 0 1-.252-.657 4 4 0 0 1-.07-.761v-.206q0-.38.07-.75.076-.368.252-.656.175-.286.463-.463.293-.181.732-.181a1.4 1.4 0 0 1 .967.369q.175.17.27.398.099.23.099.487h1.319a2.26 2.26 0 0 0-.739-1.723 2.5 2.5 0 0 0-.843-.492 3.1 3.1 0 0 0-1.061-.176q-.726 0-1.277.258a2.6 2.6 0 0 0-.914.685 2.9 2.9 0 0 0-.557 1.014 4.1 4.1 0 0 0-.182 1.23v.206q0 .655.188 1.236.187.574.551 1.008.368.433.914.691.55.252 1.283.252.526 0 1.002-.17.48-.175.849-.474.364-.3.575-.704.216-.41.211-.873h-1.319a.9.9 0 0 1-.111.44q-.105.2-.287.346-.188.146-.434.228a1.7 1.7 0 0 1-.504.076Z" mask="url(#b)"/><path stroke="#d8d9df" stroke-width="2" d="M320.982 258.561q.464 0 .809-.165.346-.158.598-.398.251-.234.416-.516.17-.275.281-.521l3.217-7.301h-1.553l-1.529 3.891-.264.679-.217-.697-1.576-3.873h-1.541l2.701 6.059-.398.756q-.065.129-.141.246a3 3 0 0 1-.187.269 1.5 1.5 0 0 1-.287.27.6.6 0 0 1-.37.123q-.093 0-.246-.012l-.263-.012-.194 1.096q.17.041.358.07.188.036.386.036Z" mask="url(#b)"/><path fill="#262626" d="M240.861 179h2.953q.633 0 1.172-.158.545-.165.938-.481.393-.31.615-.773.223-.463.217-1.072 0-.346-.1-.657a1.9 1.9 0 0 0-.281-.574 2 2 0 0 0-1.102-.721v-.011a2.6 2.6 0 0 0 .452-.235q.199-.134.357-.31.222-.24.34-.551.123-.316.129-.68 0-.597-.229-1.031a1.94 1.94 0 0 0-.621-.721 2.8 2.8 0 0 0-.943-.416 4.7 4.7 0 0 0-1.166-.14h-2.731zm1.418-3.855h1.617q.346.005.616.105.269.093.457.27.188.175.281.427.094.246.094.569 0 .304-.117.556a1.1 1.1 0 0 1-.323.416q-.194.165-.468.258a1.9 1.9 0 0 1-.61.094h-1.547zm0-1.073v-2.437h1.33q.364.006.662.088.3.075.499.252a.9.9 0 0 1 .269.363q.1.216.1.516 0 .28-.106.498-.105.216-.287.369a1.4 1.4 0 0 1-.492.258 2.3 2.3 0 0 1-.633.093zM252.27 179h1.271v-6.34h-1.406v4.488a1.6 1.6 0 0 1-.199.323 1.4 1.4 0 0 1-.27.246q-.182.117-.422.187-.24.065-.545.065-.293 0-.51-.076a.77.77 0 0 1-.357-.258 1.1 1.1 0 0 1-.205-.469 3.6 3.6 0 0 1-.065-.738v-3.768h-1.4v3.756q0 .716.158 1.23.159.51.446.838.292.328.697.487.41.152.908.152.569 0 1.031-.264.464-.269.786-.744zm5.812-1.008q-.44 0-.732-.176a1.3 1.3 0 0 1-.463-.462 2 2 0 0 1-.252-.657 4 4 0 0 1-.071-.761v-.206q0-.38.071-.75.077-.368.252-.656.175-.286.463-.463.293-.181.732-.181a1.42 1.42 0 0 1 .967.369q.176.17.269.398.1.23.1.487h1.318a2.25 2.25 0 0 0-.738-1.723 2.5 2.5 0 0 0-.844-.492 3.1 3.1 0 0 0-1.06-.176q-.727 0-1.278.258a2.6 2.6 0 0 0-.914.685 2.9 2.9 0 0 0-.556 1.014 4.1 4.1 0 0 0-.182 1.23v.206q0 .655.188 1.236.187.574.55 1.008a2.7 2.7 0 0 0 .914.691q.551.252 1.284.252.526 0 1.002-.17.48-.175.849-.474.364-.3.574-.704.217-.41.211-.873h-1.318a.9.9 0 0 1-.111.44 1.1 1.1 0 0 1-.287.346q-.188.146-.434.228a1.7 1.7 0 0 1-.504.076m6.627-1.752 2.021 2.76h1.735l-2.824-3.697 2.466-2.643h-1.687l-1.893 1.992-.58.645V170h-1.406v9h1.406v-2.039zm7.986 2.877q.926 0 1.576-.363.657-.363.973-.82l-.75-.727q-.292.375-.744.58a2.4 2.4 0 0 1-.973.199q-.38 0-.703-.129a1.7 1.7 0 0 1-.551-.363 1.7 1.7 0 0 1-.369-.504 2.5 2.5 0 0 1-.199-.697v-.029h4.395v-.604q0-.68-.182-1.254a2.8 2.8 0 0 0-.539-.99 2.45 2.45 0 0 0-.885-.639 3 3 0 0 0-1.213-.234 2.9 2.9 0 0 0-2.109.891 3.1 3.1 0 0 0-.645 1.031 3.7 3.7 0 0 0-.234 1.347v.241q0 .65.223 1.213.228.557.644.966.417.417.996.651a3.5 3.5 0 0 0 1.289.234m-.17-5.437q.352 0 .616.123.269.117.445.316.182.205.281.481.1.269.1.545v.093h-2.983a2.6 2.6 0 0 1 .2-.65q.134-.288.334-.492a1.4 1.4 0 0 1 .451-.305 1.4 1.4 0 0 1 .556-.111m7.231-2.567h-1.406v1.547h-1.536v1.049h1.536v3.117q0 .61.158 1.043.164.433.451.715.287.275.686.41.404.129.884.129.264 0 .528-.029a5 5 0 0 0 .972-.182q.217-.07.369-.164l-.152-.967-.264.059a6 6 0 0 1-.334.053 5 5 0 0 1-.744.064q-.252 0-.463-.059a.87.87 0 0 1-.603-.568 1.8 1.8 0 0 1-.082-.592v-3.029h2.385v-1.049h-2.385z"/><path fill="#1d1e20" d="M230.34 175.71h.71l2.67-2.67v-.71l-1.34-1.33h-.7l-1.82 1.81h-5v-1.25l1.86-1.85V169l-2-2H224l-4 4v.71l2 2h.71l1.14-1.15v5.79l.5.5H229v.52l1.33 1.34h.71l2.67-2.67v-.71l-1.34-1.33h-.7l-1.86 1.85h-5v-4H229v.48zm1.69-3.65.63.63-2 2-.63-.63zm0 5 .63.63-2 2-.63-.63zm-9.68-4.41-1.29-1.3 3.29-3.29 1.3 1.29z"/><path fill="#d8d9df" d="M230.34 201.71h.71l2.67-2.67v-.71l-1.34-1.33h-.7l-1.82 1.81h-5v-1.25l1.86-1.85V195l-2-2H224l-4 4v.71l2 2h.71l1.14-1.15v5.79l.5.5H229v.52l1.33 1.34h.71l2.67-2.67v-.71l-1.34-1.33h-.7l-1.86 1.85h-5v-4H229v.48zm1.69-3.65.63.63-2 2-.63-.63zm0 5 .63.63-2 2-.63-.63zm-9.68-4.41-1.29-1.3 3.29-3.29 1.3 1.29zm7.99 29.06h.71l2.67-2.67v-.71l-1.34-1.33h-.7l-1.82 1.81h-5v-1.25l1.86-1.85V221l-2-2H224l-4 4v.71l2 2h.71l1.14-1.15v5.79l.5.5H229v.52l1.33 1.34h.71l2.67-2.67v-.71l-1.34-1.33h-.7l-1.86 1.85h-5v-4H229v.48zm1.69-3.65.63.63-2 2-.63-.63zm0 5 .63.63-2 2-.63-.63zm-9.68-4.41-1.29-1.3 3.29-3.29 1.3 1.29zm7.99 29.06h.71l2.67-2.67v-.71l-1.34-1.33h-.7l-1.82 1.81h-5v-1.25l1.86-1.85V247l-2-2H224l-4 4v.71l2 2h.71l1.14-1.15v5.79l.5.5H229v.52l1.33 1.34h.71l2.67-2.67v-.71l-1.34-1.33h-.7l-1.86 1.85h-5v-4H229v.48zm1.69-3.65.63.63-2 2-.63-.63zm0 5 .63.63-2 2-.63-.63zm-9.68-4.41-1.29-1.3 3.29-3.29 1.3 1.29z"/><defs><clipPath id="a"><path fill="#fff" d="M528 16h16v14.769h-16z"/></clipPath></defs></svg>