<svg width="150" height="150" viewBox="0 0 150 150" fill="none" xmlns="http://www.w3.org/2000/svg">
<path d="M29.923 123.213C35.2788 120.11 35.2878 110.065 29.9429 100.776C24.598 91.4885 15.9234 86.4742 10.5675 89.5762C5.2116 92.679 5.20269 102.724 10.5476 112.013C15.8925 121.301 24.5671 126.316 29.923 123.213Z" fill="#F26E7E"/>
<path d="M139.465 112.021C144.81 102.733 144.801 92.6883 139.445 89.5854C134.09 86.4825 125.414 91.4968 120.069 100.786C114.725 110.074 114.734 120.118 120.09 123.221C125.445 126.324 134.12 121.31 139.465 112.021Z" fill="#8A3391"/>
<path d="M66.4218 144.38C71.7776 141.277 71.7865 131.232 66.4416 121.944C61.0968 112.655 52.4221 107.641 47.0662 110.744C41.7103 113.846 41.7015 123.891 47.0464 133.179C52.3912 142.468 61.0659 147.483 66.4218 144.38Z" fill="#F26E7E"/>
<path d="M102.974 133.159C108.319 123.871 108.31 113.826 102.954 110.723C97.5985 107.62 88.9234 112.635 83.5787 121.923C78.2338 131.211 78.2427 141.257 83.5985 144.359C88.9542 147.462 97.6294 142.448 102.974 133.159Z" fill="#8A3391"/>
<path d="M74.9826 22.4716C85.6723 22.4716 94.338 17.4412 94.338 11.2359C94.338 5.03045 85.6723 0 74.9826 0C64.2929 0 55.6271 5.03045 55.6271 11.2359C55.6271 17.4412 64.2929 22.4716 74.9826 22.4716Z" fill="#F7BF2A"/>
<path d="M29.9101 80.8876C35.266 77.785 35.2749 67.74 29.93 58.4516C24.5852 49.1632 15.9105 44.1486 10.5546 47.2513C5.19879 50.354 5.18989 60.399 10.5348 69.6874C15.8796 78.9759 24.5543 83.9903 29.9101 80.8876Z" fill="#F26E7E"/>
<path d="M38.4923 43.5889C49.1821 43.5889 57.8478 38.5584 57.8478 32.353C57.8478 26.1477 49.1821 21.1172 38.4923 21.1172C27.8025 21.1172 19.1367 26.1477 19.1367 32.353C19.1367 38.5584 27.8025 43.5889 38.4923 43.5889Z" fill="#F7BF2A"/>
<path d="M139.444 69.7108C144.789 60.4224 144.78 50.3774 139.425 47.2748C134.068 44.1721 125.394 49.1865 120.049 58.4749C114.704 67.7634 114.713 77.8084 120.069 80.9111C125.425 84.0138 134.099 78.9992 139.444 69.7108Z" fill="#8A3391"/>
<path d="M111.522 43.5889C122.211 43.5889 130.877 38.5584 130.877 32.353C130.877 26.1477 122.211 21.1172 111.522 21.1172C100.832 21.1172 92.1667 26.1477 92.1667 32.353C92.1667 38.5584 100.832 43.5889 111.522 43.5889Z" fill="#F7BF2A"/>
<path d="M66.4095 102.06C71.7653 98.9576 71.7742 88.9127 66.4294 79.6245C61.0846 70.336 52.4098 65.3215 47.054 68.4242C41.6981 71.5268 41.6892 81.5718 47.0341 90.8602C52.379 100.149 61.0536 105.163 66.4095 102.06Z" fill="#F26E7E"/>
<path d="M102.953 90.8454C108.298 81.5572 108.289 71.5122 102.933 68.4095C97.5772 65.3068 88.9021 70.3214 83.5576 79.6098C78.2127 88.898 78.2216 98.9428 83.5775 102.046C88.933 105.149 97.6081 100.134 102.953 90.8454Z" fill="#8A3391"/>
<path d="M74.9826 64.7529C85.6723 64.7529 94.338 59.7224 94.338 53.517C94.338 47.3117 85.6723 42.2812 74.9826 42.2812C64.2929 42.2812 55.6271 47.3117 55.6271 53.517C55.6271 59.7224 64.2929 64.7529 74.9826 64.7529Z" fill="#F7BF2A"/>
</svg>
