<svg width="147" height="87" viewBox="0 0 147 87" fill="none" xmlns="http://www.w3.org/2000/svg">
<path d="M41.2569 31.5968C41.2569 33.3871 41.4517 34.8387 41.7925 35.9032C42.1821 36.9677 42.669 38.129 43.3507 39.3871C43.5941 39.7742 43.6915 40.1613 43.6915 40.5C43.6915 40.9839 43.3993 41.4677 42.7664 41.9516L39.6988 43.9839C39.2606 44.2742 38.8224 44.4194 38.4328 44.4194C37.9459 44.4194 37.459 44.1774 36.9721 43.7419C36.2904 43.0161 35.7061 42.2419 35.2192 41.4677C34.7323 40.6452 34.2454 39.7258 33.7098 38.6129C29.9119 43.0645 25.1402 45.2903 19.3946 45.2903C15.3045 45.2903 12.0422 44.129 9.65637 41.8065C7.2705 39.4839 6.05322 36.3871 6.05322 32.5161C6.05322 28.4032 7.51396 25.0645 10.4841 22.5484C13.4543 20.0323 17.3983 18.7742 22.4135 18.7742C24.069 18.7742 25.7731 18.9194 27.5747 19.1613C29.3763 19.4032 31.2266 19.7903 33.1742 20.2258V16.6936C33.1742 13.0161 32.3951 10.4516 30.8857 8.95161C29.3276 7.45161 26.6983 6.72581 22.9491 6.72581C21.2449 6.72581 19.492 6.91935 17.6904 7.35484C15.8888 7.79032 14.136 8.32258 12.4318 9C11.6527 9.33871 11.0684 9.53226 10.7276 9.62903C10.3867 9.72581 10.1433 9.77419 9.94852 9.77419C9.26684 9.77419 8.926 9.29032 8.926 8.27419V5.90323C8.926 5.12903 9.02338 4.54839 9.26684 4.20968C9.5103 3.87097 9.94852 3.53226 10.6302 3.19355C12.3344 2.32258 14.3794 1.59677 16.7653 1.01613C19.1511 0.387097 21.6831 0.0967742 24.3611 0.0967742C30.1553 0.0967742 34.3915 1.40323 37.1182 4.01613C39.7962 6.62903 41.1595 10.5968 41.1595 15.9194V31.5968H41.2569ZM21.4883 38.9516C23.0951 38.9516 24.7506 38.6613 26.5035 38.0807C28.2564 37.5 29.8145 36.4355 31.1292 34.9839C31.9082 34.0645 32.4925 33.0484 32.7847 31.8871C33.0768 30.7258 33.2716 29.3226 33.2716 27.6774V25.6452C31.8595 25.3065 30.3501 25.0161 28.792 24.8226C27.2339 24.629 25.7245 24.5323 24.215 24.5323C20.9527 24.5323 18.5669 25.1613 16.96 26.4677C15.3532 27.7742 14.5742 29.6129 14.5742 32.0323C14.5742 34.3065 15.1585 36 16.3757 37.1613C17.5443 38.371 19.2485 38.9516 21.4883 38.9516ZM60.5873 44.1774C59.7109 44.1774 59.1266 44.0323 58.7371 43.6936C58.3475 43.4032 58.0067 42.7258 57.7145 41.8065L46.2721 4.40323C45.98 3.43548 45.8339 2.80645 45.8339 2.46774C45.8339 1.69355 46.2234 1.25806 47.0025 1.25806H51.7742C52.6994 1.25806 53.3323 1.40323 53.6732 1.74194C54.0627 2.03226 54.3549 2.70968 54.647 3.62903L62.8271 35.6613L70.4229 3.62903C70.6664 2.66129 70.9585 2.03226 71.3481 1.74194C71.7376 1.45161 72.4193 1.25806 73.2957 1.25806H77.191C78.1161 1.25806 78.7491 1.40323 79.1387 1.74194C79.5282 2.03226 79.869 2.70968 80.0638 3.62903L87.757 36.0484L96.1806 3.62903C96.4727 2.66129 96.8135 2.03226 97.1544 1.74194C97.5439 1.45161 98.1769 1.25806 99.0533 1.25806H103.582C104.361 1.25806 104.799 1.64516 104.799 2.46774C104.799 2.70968 104.75 2.95161 104.702 3.24194C104.653 3.53226 104.555 3.91936 104.361 4.45161L92.6261 41.8548C92.334 42.8226 91.9931 43.4516 91.6036 43.7419C91.2141 44.0323 90.5811 44.2258 89.7533 44.2258H85.5659C84.6408 44.2258 84.0078 44.0807 83.6182 43.7419C83.2287 43.4032 82.8879 42.7742 82.6931 41.8065L75.146 10.5968L67.6475 41.7581C67.4041 42.7258 67.1119 43.3548 66.7224 43.6936C66.3329 44.0323 65.6512 44.1774 64.7748 44.1774H60.5873ZM123.155 45.4839C120.624 45.4839 118.092 45.1936 115.657 44.6129C113.222 44.0323 111.324 43.4032 110.058 42.6774C109.278 42.2419 108.743 41.7581 108.548 41.3226C108.353 40.8871 108.256 40.4032 108.256 39.9677V37.5C108.256 36.4839 108.646 36 109.376 36C109.668 36 109.96 36.0484 110.252 36.1452C110.544 36.2419 110.983 36.4355 111.47 36.629C113.125 37.3548 114.927 37.9355 116.826 38.3226C118.773 38.7097 120.672 38.9032 122.62 38.9032C125.687 38.9032 128.073 38.371 129.729 37.3065C131.384 36.2419 132.261 34.6936 132.261 32.7097C132.261 31.3548 131.822 30.2419 130.946 29.3226C130.07 28.4032 128.414 27.5806 126.028 26.8065L118.968 24.629C115.414 23.5161 112.784 21.871 111.177 19.6936C109.571 17.5645 108.743 15.1935 108.743 12.6774C108.743 10.6452 109.181 8.85484 110.058 7.30645C110.934 5.75807 112.103 4.40323 113.563 3.33871C115.024 2.22581 116.68 1.40323 118.627 0.822581C120.575 0.241935 122.62 0 124.762 0C125.833 0 126.953 0.0483871 128.025 0.193548C129.144 0.33871 130.167 0.532258 131.19 0.725806C132.163 0.967742 133.088 1.20968 133.965 1.5C134.841 1.79032 135.523 2.08065 136.01 2.37097C136.692 2.75806 137.179 3.14516 137.471 3.58065C137.763 3.96774 137.909 4.5 137.909 5.17742V7.45161C137.909 8.46774 137.519 9 136.789 9C136.399 9 135.766 8.80645 134.939 8.41936C132.163 7.16129 129.047 6.53226 125.59 6.53226C122.815 6.53226 120.624 6.96774 119.114 7.8871C117.605 8.80645 116.826 10.2097 116.826 12.1935C116.826 13.5484 117.313 14.7097 118.286 15.629C119.26 16.5484 121.062 17.4677 123.642 18.2903L130.557 20.4677C134.062 21.5806 136.594 23.129 138.104 25.1129C139.613 27.0968 140.343 29.371 140.343 31.8871C140.343 33.9677 139.905 35.8548 139.077 37.5C138.201 39.1452 137.032 40.5968 135.523 41.7581C134.014 42.9677 132.212 43.8387 130.118 44.4677C127.927 45.1452 125.639 45.4839 123.155 45.4839Z" fill="#252F3E"/>
<path fill-rule="evenodd" clip-rule="evenodd" d="M132.358 68.9996C116.339 80.7577 93.0644 86.9996 73.0523 86.9996C45.0062 86.9996 19.7355 76.6932 0.648574 59.5641C-0.860851 58.2093 0.502501 56.3706 2.30407 57.4351C22.9491 69.3383 48.4146 76.548 74.7565 76.548C92.5288 76.548 112.054 72.8706 130.021 65.3222C132.699 64.1125 134.987 67.0641 132.358 68.9996Z" fill="#FF9900"/>
<path fill-rule="evenodd" clip-rule="evenodd" d="M139.029 61.4517C136.984 58.8388 125.493 60.1936 120.283 60.8227C118.724 61.0162 118.481 59.6614 119.893 58.6453C129.047 52.2582 144.093 54.0969 145.845 56.2259C147.598 58.4033 145.359 73.3549 136.789 80.5162C135.474 81.6291 134.208 81.0485 134.793 79.5969C136.74 74.8066 141.074 64.0162 139.029 61.4517Z" fill="#FF9900"/>
</svg>
