<svg width="161" height="161" viewBox="0 0 161 161" fill="none" xmlns="http://www.w3.org/2000/svg">
<path d="M33.8257 101.739C33.8257 111.048 26.2215 118.652 16.9129 118.652C7.60423 118.652 0 111.048 0 101.739C0 92.4304 7.60423 84.8262 16.9129 84.8262H33.8257V101.739Z" fill="#E01E5A"/>
<path d="M42.3477 101.739C42.3477 92.4304 49.9519 84.8262 59.2605 84.8262C68.5691 84.8262 76.1734 92.4304 76.1734 101.739V144.087C76.1734 153.395 68.5691 161 59.2605 161C49.9519 161 42.3477 153.395 42.3477 144.087V101.739Z" fill="#E01E5A"/>
<path d="M59.2605 33.8257C49.9519 33.8257 42.3477 26.2215 42.3477 16.9129C42.3477 7.60423 49.9519 0 59.2605 0C68.5691 0 76.1734 7.60423 76.1734 16.9129V33.8257H59.2605Z" fill="#36C5F0"/>
<path d="M59.2606 42.3477C68.5692 42.3477 76.1735 49.9519 76.1735 59.2605C76.1735 68.5691 68.5692 76.1734 59.2606 76.1734H16.9129C7.60423 76.1734 0 68.5691 0 59.2605C0 49.9519 7.60423 42.3477 16.9129 42.3477H59.2606Z" fill="#36C5F0"/>
<path d="M127.174 59.2605C127.174 49.9519 134.778 42.3477 144.087 42.3477C153.395 42.3477 161 49.9519 161 59.2605C161 68.5691 153.395 76.1734 144.087 76.1734H127.174V59.2605Z" fill="#2EB67D"/>
<path d="M118.652 59.2606C118.652 68.5692 111.048 76.1735 101.739 76.1735C92.4304 76.1735 84.8262 68.5692 84.8262 59.2606V16.9129C84.8262 7.60423 92.4304 0 101.739 0C111.048 0 118.652 7.60423 118.652 16.9129V59.2606Z" fill="#2EB67D"/>
<path d="M101.739 127.174C111.048 127.174 118.652 134.778 118.652 144.087C118.652 153.395 111.048 161 101.739 161C92.4304 161 84.8262 153.395 84.8262 144.087V127.174H101.739Z" fill="#ECB22E"/>
<path d="M101.739 118.652C92.4304 118.652 84.8262 111.048 84.8262 101.739C84.8262 92.4304 92.4304 84.8262 101.739 84.8262H144.087C153.395 84.8262 161 92.4304 161 101.739C161 111.048 153.395 118.652 144.087 118.652H101.739Z" fill="#ECB22E"/>
</svg>
