<svg width="700" height="221" viewBox="0 0 700 221" fill="none" xmlns="http://www.w3.org/2000/svg">
<g clip-path="url(#clip0_2074_33993)">
<rect width="700" height="221" rx="4" fill="#EDEFFB"/>
<g clip-path="url(#clip1_2074_33993)">
<path d="M53.5793 155.809L51.9056 161.622L48.4875 162.622L51.9409 164.621L53.5793 174.371L55.0054 164.621L58.4706 162.868L54.9465 161.622L53.5793 155.809Z" fill="#F8F9FE"/>
<path d="M458.81 14.2049L457.136 20.0176L453.706 21.0173L457.171 23.0166L458.81 32.7662L460.236 23.0166L463.701 21.2641L460.177 20.0176L458.81 14.2049Z" fill="#F8F9FE"/>
<path d="M621.522 133.767L619.86 139.58L616.43 140.58L619.884 142.579L621.522 152.329L622.948 142.579L626.413 140.827L622.889 139.58L621.522 133.767Z" fill="#F8F9FE"/>
<path d="M534.738 9.20662L533.465 13.6495L530.837 14.4147L533.489 15.945L534.738 23.3991L535.834 15.945L538.486 14.5998L535.787 13.6495L534.738 9.20662Z" fill="#F8F9FE"/>
<path d="M16.2044 181.763L14.9315 186.206L12.3031 186.983L14.9433 188.514L16.2044 195.968L17.2888 188.514L19.9407 187.168L17.2534 186.206L16.2044 181.763Z" fill="#F8F9FE"/>
<path d="M299.327 7.09631L298.054 11.5515L295.426 12.3167L298.078 13.847L299.327 21.3012L300.423 13.847L303.075 12.5018L300.376 11.5515L299.327 7.09631Z" fill="#F8F9FE"/>
<path d="M386.429 24.3371L385.156 28.78L382.528 29.5451L385.18 31.0755L386.429 38.5296L387.525 31.0755L390.177 29.7303L387.478 28.78L386.429 24.3371Z" fill="#F8F9FE"/>
<path d="M386.429 24.3371L385.156 28.78L382.528 29.5451L385.18 31.0755L386.429 38.5296L387.525 31.0755L390.177 29.7303L387.478 28.78L386.429 24.3371Z" fill="#F8F9FE"/>
<path d="M696.107 322.861L694.445 328.674L691.015 329.674L694.468 331.673L696.107 341.422L697.533 331.673L700.998 329.92L697.474 328.674L696.107 322.861Z" fill="#F8F9FE"/>
<path d="M683 86.0808L681.326 91.8935L677.897 92.9055L681.362 94.9048L683 104.642L684.426 94.9048L687.891 93.1524L684.367 91.8935L683 86.0808Z" fill="#F8F9FE"/>
<path d="M12.7392 7.02211L11.0655 12.8349L7.63565 13.8469L11.1009 15.8461L12.7392 25.5834L14.1653 15.8461L17.6306 14.0813L14.1064 12.8349L12.7392 7.02211Z" fill="#F8F9FE"/>
<path d="M164.313 4.92419L162.64 10.737L159.21 11.7366L162.675 13.7359L164.313 23.4855L165.728 13.7359L169.205 11.9834L165.68 10.737L164.313 4.92419Z" fill="#F8F9FE"/>
<path d="M104.226 109.714L102.564 115.539L99.1223 116.539L102.588 118.538L104.226 128.288L105.652 118.538L109.117 116.786L105.593 115.539L104.226 109.714Z" fill="#F8F9FE"/>
<path d="M526.346 69.9999L523.517 79.8729L517.695 81.576L523.576 84.9822L526.346 101.532L528.774 84.9822L534.667 81.9956L528.68 79.8729L526.346 69.9999Z" fill="#F8F9FE"/>
<path d="M582.627 38.9493L578.454 53.5244L569.862 56.042L578.525 61.0526L582.627 85.4761L586.198 61.0526L594.896 56.6468L586.056 53.5244L582.627 38.9493Z" fill="#F8F9FE"/>
<path d="M24.8676 72.1102L20.6834 86.673L12.091 89.1906L20.7659 94.2011L24.8676 118.625L28.4271 94.2011L37.1255 89.8076L28.2974 86.673L24.8676 72.1102Z" fill="#F8F9FE"/>
<path d="M16.2987 251.368L13.4699 261.241L7.63565 262.944L13.5171 266.338L16.2987 282.888L18.7149 266.338L24.6082 263.364L18.6206 261.241L16.2987 251.368Z" fill="#F8F9FE"/>
<path d="M227.371 39.2454L224.53 49.1185L218.708 50.8339L224.589 54.2278L227.371 70.7775L229.787 54.2278L235.669 51.2412L229.693 49.1185L227.371 39.2454Z" fill="#F8F9FE"/>
<path d="M669.587 223.254L666.758 233.127L660.936 234.831L666.817 238.224L669.587 254.774L672.003 238.224L677.897 235.238L671.921 233.127L669.587 223.254Z" fill="#F8F9FE"/>
<path d="M661.101 23.4855L658.272 33.3586L652.45 35.0617L658.331 38.4556L661.101 55.0176L663.529 38.4556L669.422 35.4813L663.435 33.3586L661.101 23.4855Z" fill="#F8F9FE"/>
<path d="M78.6844 23.4855L75.8557 33.3586L70.0331 35.0617L75.9028 38.4556L78.6844 55.0176L81.1006 38.4556L86.9939 35.4813L81.0181 33.3586L78.6844 23.4855Z" fill="#F8F9FE"/>
<path d="M696.083 0L694.81 4.45522L692.182 5.22038L694.834 6.7507L696.083 14.2049L697.179 6.7507L699.831 5.4055L697.132 4.45522L696.083 0Z" fill="#F8F9FE"/>
<path d="M669.493 167.274L668.22 171.717L665.591 172.482L668.243 174.013L669.493 181.467L670.589 174.013L673.241 172.668L670.542 171.717L669.493 167.274Z" fill="#F8F9FE"/>
<path d="M3.89937 339.904L2.62643 344.36L-0.00195312 345.125L2.65 346.655L3.89937 354.109L4.98372 346.655L7.63568 345.31L4.94836 344.36L3.89937 339.904Z" fill="#F8F9FE"/>
</g>
</g>
<defs>
<clipPath id="clip0_2074_33993">
<rect width="700" height="221" rx="4" fill="white"/>
</clipPath>
<clipPath id="clip1_2074_33993">
<rect width="701" height="367" fill="white" transform="translate(-0.00195312)"/>
</clipPath>
</defs>
</svg>
