<svg width="1201" height="197" viewBox="0 0 1201 197" fill="none" xmlns="http://www.w3.org/2000/svg">
<g clip-path="url(#clip0_76_9165)">
<rect x="0.5" width="1200" height="197" rx="4" fill="#EDEFFB"/>
<g clip-path="url(#clip1_76_9165)">
<path d="M54.0793 155.809L52.4056 161.622L48.9875 162.622L52.4409 164.621L54.0793 174.371L55.5054 164.621L58.9706 162.868L55.4465 161.622L54.0793 155.809Z" fill="#F8F9FE"/>
<path d="M459.31 14.2049L457.636 20.0176L454.206 21.0173L457.671 23.0166L459.31 32.7662L460.736 23.0166L464.201 21.2641L460.677 20.0176L459.31 14.2049Z" fill="#F8F9FE"/>
<path d="M622.022 133.767L620.36 139.58L616.93 140.58L620.384 142.579L622.022 152.329L623.448 142.579L626.913 140.827L623.389 139.58L622.022 133.767Z" fill="#F8F9FE"/>
<path d="M535.238 9.20662L533.965 13.6495L531.337 14.4147L533.989 15.945L535.238 23.3991L536.334 15.945L538.986 14.5998L536.287 13.6495L535.238 9.20662Z" fill="#F8F9FE"/>
<path d="M16.7044 181.763L15.4315 186.206L12.8031 186.983L15.4433 188.514L16.7044 195.968L17.7888 188.514L20.4407 187.168L17.7534 186.206L16.7044 181.763Z" fill="#F8F9FE"/>
<path d="M299.827 7.09631L298.554 11.5515L295.926 12.3167L298.578 13.847L299.827 21.3012L300.923 13.847L303.575 12.5018L300.876 11.5515L299.827 7.09631Z" fill="#F8F9FE"/>
<path d="M386.929 24.3371L385.656 28.78L383.028 29.5451L385.68 31.0755L386.929 38.5296L388.025 31.0755L390.677 29.7303L387.978 28.78L386.929 24.3371Z" fill="#F8F9FE"/>
<path d="M386.929 24.3371L385.656 28.78L383.028 29.5451L385.68 31.0755L386.929 38.5296L388.025 31.0755L390.677 29.7303L387.978 28.78L386.929 24.3371Z" fill="#F8F9FE"/>
<path d="M696.607 322.861L694.945 328.674L691.515 329.674L694.968 331.673L696.607 341.422L698.033 331.673L701.498 329.92L697.974 328.674L696.607 322.861Z" fill="#F8F9FE"/>
<path d="M683.5 86.0808L681.826 91.8935L678.397 92.9055L681.862 94.9048L683.5 104.642L684.926 94.9048L688.391 93.1524L684.867 91.8935L683.5 86.0808Z" fill="#F8F9FE"/>
<path d="M13.2392 7.02211L11.5655 12.8349L8.13565 13.8469L11.6009 15.8461L13.2392 25.5834L14.6653 15.8461L18.1306 14.0813L14.6064 12.8349L13.2392 7.02211Z" fill="#F8F9FE"/>
<path d="M164.813 4.92419L163.14 10.737L159.71 11.7366L163.175 13.7359L164.813 23.4855L166.228 13.7359L169.705 11.9834L166.18 10.737L164.813 4.92419Z" fill="#F8F9FE"/>
<path d="M104.726 109.714L103.064 115.539L99.6223 116.539L103.088 118.538L104.726 128.288L106.152 118.538L109.617 116.786L106.093 115.539L104.726 109.714Z" fill="#F8F9FE"/>
<path d="M526.846 69.9999L524.017 79.8729L518.195 81.576L524.076 84.9822L526.846 101.532L529.274 84.9822L535.167 81.9956L529.18 79.8729L526.846 69.9999Z" fill="#F8F9FE"/>
<path d="M583.127 38.9493L578.954 53.5244L570.362 56.042L579.025 61.0526L583.127 85.4761L586.698 61.0526L595.396 56.6468L586.556 53.5244L583.127 38.9493Z" fill="#F8F9FE"/>
<path d="M25.3676 72.1102L21.1834 86.673L12.591 89.1906L21.2659 94.2011L25.3676 118.625L28.9271 94.2011L37.6255 89.8076L28.7974 86.673L25.3676 72.1102Z" fill="#F8F9FE"/>
<path d="M16.7987 251.368L13.9699 261.241L8.13565 262.944L14.0171 266.338L16.7987 282.888L19.2149 266.338L25.1082 263.364L19.1206 261.241L16.7987 251.368Z" fill="#F8F9FE"/>
<path d="M227.871 39.2454L225.03 49.1185L219.208 50.8339L225.089 54.2278L227.871 70.7775L230.287 54.2278L236.169 51.2412L230.193 49.1185L227.871 39.2454Z" fill="#F8F9FE"/>
<path d="M670.087 223.254L667.258 233.127L661.436 234.831L667.317 238.224L670.087 254.774L672.503 238.224L678.397 235.238L672.421 233.127L670.087 223.254Z" fill="#F8F9FE"/>
<path d="M661.601 23.4855L658.772 33.3586L652.95 35.0617L658.831 38.4556L661.601 55.0176L664.029 38.4556L669.922 35.4813L663.935 33.3586L661.601 23.4855Z" fill="#F8F9FE"/>
<path d="M79.1844 23.4855L76.3557 33.3586L70.5331 35.0617L76.4028 38.4556L79.1844 55.0176L81.6006 38.4556L87.4939 35.4813L81.5181 33.3586L79.1844 23.4855Z" fill="#F8F9FE"/>
<path d="M696.583 0L695.31 4.45522L692.682 5.22038L695.334 6.7507L696.583 14.2049L697.679 6.7507L700.331 5.4055L697.632 4.45522L696.583 0Z" fill="#F8F9FE"/>
<path d="M669.993 167.274L668.72 171.717L666.091 172.482L668.743 174.013L669.993 181.467L671.089 174.013L673.741 172.668L671.042 171.717L669.993 167.274Z" fill="#F8F9FE"/>
<path d="M4.39937 339.904L3.12643 344.36L0.498047 345.125L3.15 346.655L4.39937 354.109L5.48372 346.655L8.13568 345.31L5.44836 344.36L4.39937 339.904Z" fill="#F8F9FE"/>
</g>
<g clip-path="url(#clip2_76_9165)">
<path d="M792.581 155.809L790.908 161.622L787.489 162.622L790.943 164.621L792.581 174.371L794.007 164.621L797.473 162.868L793.948 161.622L792.581 155.809Z" fill="#F8F9FE"/>
<path d="M1197.81 14.2049L1196.14 20.0176L1192.71 21.0173L1196.17 23.0166L1197.81 32.7662L1199.24 23.0166L1202.7 21.2641L1199.18 20.0176L1197.81 14.2049Z" fill="#F8F9FE"/>
<path d="M1360.52 133.767L1358.86 139.58L1355.43 140.58L1358.89 142.579L1360.52 152.329L1361.95 142.579L1365.42 140.827L1361.89 139.58L1360.52 133.767Z" fill="#F8F9FE"/>
<path d="M1273.74 9.20662L1272.47 13.6495L1269.84 14.4147L1272.49 15.945L1273.74 23.3991L1274.84 15.945L1277.49 14.5998L1274.79 13.6495L1273.74 9.20662Z" fill="#F8F9FE"/>
<path d="M755.206 181.763L753.933 186.206L751.305 186.983L753.945 188.514L755.206 195.968L756.291 188.514L758.943 187.168L756.255 186.206L755.206 181.763Z" fill="#F8F9FE"/>
<path d="M1038.33 7.09631L1037.06 11.5515L1034.43 12.3167L1037.08 13.847L1038.33 21.3012L1039.43 13.847L1042.08 12.5018L1039.38 11.5515L1038.33 7.09631Z" fill="#F8F9FE"/>
<path d="M1125.43 24.3371L1124.16 28.78L1121.53 29.5451L1124.18 31.0755L1125.43 38.5296L1126.53 31.0755L1129.18 29.7303L1126.48 28.78L1125.43 24.3371Z" fill="#F8F9FE"/>
<path d="M1125.43 24.3371L1124.16 28.78L1121.53 29.5451L1124.18 31.0755L1125.43 38.5296L1126.53 31.0755L1129.18 29.7303L1126.48 28.78L1125.43 24.3371Z" fill="#F8F9FE"/>
<path d="M1435.11 322.861L1433.45 328.674L1430.02 329.674L1433.47 331.673L1435.11 341.422L1436.53 331.673L1440 329.92L1436.48 328.674L1435.11 322.861Z" fill="#F8F9FE"/>
<path d="M1422 86.0808L1420.33 91.8935L1416.9 92.9055L1420.36 94.9048L1422 104.642L1423.43 94.9048L1426.89 93.1524L1423.37 91.8935L1422 86.0808Z" fill="#F8F9FE"/>
<path d="M751.741 7.02211L750.067 12.8349L746.638 13.8469L750.103 15.8461L751.741 25.5834L753.167 15.8461L756.633 14.0813L753.108 12.8349L751.741 7.02211Z" fill="#F8F9FE"/>
<path d="M903.315 4.92419L901.642 10.737L898.212 11.7366L901.677 13.7359L903.315 23.4855L904.73 13.7359L908.207 11.9834L904.682 10.737L903.315 4.92419Z" fill="#F8F9FE"/>
<path d="M843.228 109.714L841.566 115.539L838.124 116.539L841.589 118.538L843.228 128.288L844.654 118.538L848.119 116.786L844.595 115.539L843.228 109.714Z" fill="#F8F9FE"/>
<path d="M1265.35 69.9999L1262.52 79.8729L1256.7 81.576L1262.58 84.9822L1265.35 101.532L1267.78 84.9822L1273.67 81.9956L1267.68 79.8729L1265.35 69.9999Z" fill="#F8F9FE"/>
<path d="M1321.63 38.9493L1317.46 53.5244L1308.86 56.042L1317.53 61.0526L1321.63 85.4761L1325.2 61.0526L1333.9 56.6468L1325.06 53.5244L1321.63 38.9493Z" fill="#F8F9FE"/>
<path d="M763.87 72.1102L759.685 86.673L751.093 89.1906L759.768 94.2011L763.87 118.625L767.429 94.2011L776.127 89.8076L767.299 86.673L763.87 72.1102Z" fill="#F8F9FE"/>
<path d="M755.301 251.368L752.472 261.241L746.638 262.944L752.519 266.338L755.301 282.888L757.717 266.338L763.61 263.364L757.623 261.241L755.301 251.368Z" fill="#F8F9FE"/>
<path d="M966.373 39.2454L963.532 49.1185L957.71 50.8339L963.591 54.2278L966.373 70.7775L968.789 54.2278L974.67 51.2412L968.695 49.1185L966.373 39.2454Z" fill="#F8F9FE"/>
<path d="M1408.59 223.254L1405.76 233.127L1399.94 234.831L1405.82 238.224L1408.59 254.774L1411.01 238.224L1416.9 235.238L1410.92 233.127L1408.59 223.254Z" fill="#F8F9FE"/>
<path d="M1400.1 23.4855L1397.27 33.3586L1391.45 35.0617L1397.33 38.4556L1400.1 55.0176L1402.53 38.4556L1408.42 35.4813L1402.44 33.3586L1400.1 23.4855Z" fill="#F8F9FE"/>
<path d="M817.686 23.4855L814.858 33.3586L809.035 35.0617L814.905 38.4556L817.686 55.0176L820.103 38.4556L825.996 35.4813L820.02 33.3586L817.686 23.4855Z" fill="#F8F9FE"/>
<path d="M1435.09 0L1433.81 4.45522L1431.18 5.22038L1433.84 6.7507L1435.09 14.2049L1436.18 6.7507L1438.83 5.4055L1436.13 4.45522L1435.09 0Z" fill="#F8F9FE"/>
<path d="M1408.49 167.274L1407.22 171.717L1404.59 172.482L1407.25 174.013L1408.49 181.467L1409.59 174.013L1412.24 172.668L1409.54 171.717L1408.49 167.274Z" fill="#F8F9FE"/>
<path d="M742.901 339.904L741.628 344.36L739 345.125L741.652 346.655L742.901 354.109L743.986 346.655L746.638 345.31L743.95 344.36L742.901 339.904Z" fill="#F8F9FE"/>
</g>
<path d="M1066.28 197.959C1031.23 202.53 1030.84 223.258 1046.98 231.48C1073.9 245.194 1110.27 244.883 1131.29 243.164C1186.58 238.641 1197.34 221.487 1196.93 213.961C1196.17 199.871 1124.9 200.437 1108.18 199.485C1098.63 198.939 1085.64 195.435 1066.28 197.959Z" fill="#D5EAEF"/>
<path d="M1045.23 203.197C1043.94 203.52 1042.42 204.088 1042.2 205.393C1041.92 207.017 1043.84 208.053 1045.41 208.551C1044.77 209.885 1044.53 210.802 1045.42 211.981C1046.72 213.691 1050.07 213.951 1050.07 213.951C1049.88 214.399 1049.82 214.888 1049.88 215.37C1049.94 215.851 1050.12 216.31 1050.41 216.7C1051.67 218.298 1055.13 217.815 1055.13 217.815C1055.13 217.815 1053.57 224.324 1066.56 221.442C1076.01 219.343 1083.08 214.864 1091.57 210.216C1093 209.433 1094.58 208.454 1094.88 206.852C1095.29 204.735 1093.25 203.004 1091.37 201.942C1085.23 198.465 1075.1 194.628 1067.95 196.655C1064.82 197.543 1061.98 199.048 1058.73 199.843C1054.22 200.946 1049.72 202.064 1045.23 203.197Z" fill="#9000A6"/>
<path d="M1049.03 207.149C1049.03 207.149 1045.8 208.523 1048.14 210.866C1049.16 211.888 1051.93 212.126 1051.93 212.126C1051.73 212.387 1051.59 212.689 1051.52 213.01C1051.45 213.331 1051.45 213.664 1051.52 213.985C1052.23 215.881 1055.87 215.212 1057.13 214.914C1056.66 215.129 1056.27 215.492 1056.02 215.948C1055.78 216.404 1055.68 216.929 1055.76 217.442C1057.7 223.124 1080.52 211.754 1085.35 205.898C1087.37 203.442 1086.95 201.791 1085.71 199.613C1079.93 197.154 1072.88 195.362 1067.5 196.887C1064.37 197.775 1061.77 199.026 1058.51 199.821C1054.01 200.919 1049.59 202.112 1045.09 203.24C1044.66 203.356 1044.23 203.513 1043.82 203.706C1043.88 204.076 1043.98 204.437 1044.14 204.776C1045.01 206.604 1049.03 207.149 1049.03 207.149Z" fill="#B61AC0"/>
<path d="M1031.85 112.648C1029.47 114.081 1027.08 114.614 1023.66 115.296C1009.23 118.166 1004.53 118.159 992.441 122.038C990.197 122.759 986.117 119.997 985.177 122.447C984.238 124.897 986.286 128.509 988.426 127.452C988.289 128.182 988.393 128.938 988.721 129.605C989.049 130.272 989.584 130.815 990.246 131.153C991.508 131.664 992.885 131.817 994.228 131.597C994.075 134.857 997.83 137.341 1000.2 135.549C1000.87 136.783 1001.82 137.834 1002.99 138.612C1004.15 139.389 1005.49 139.869 1006.89 140.009C1009.57 140.183 1012.26 139.875 1014.83 139.102C1021.93 137.421 1023.51 138.749 1030.49 136.52C1039.95 133.5 1046.55 130.635 1051.29 126.832C1056.87 122.348 1060.12 115.491 1062.19 111.368C1066.12 103.552 1065.53 96.3191 1067.45 87.5674C1067.45 87.5743 1055.13 86.1104 1054 86.1619C1050.72 86.3108 1049 80.0724 1047.47 83.4539C1044.09 90.9616 1039.23 108.207 1031.85 112.648Z" fill="#26E4EE"/>
<path d="M1050.58 127.534C1056.16 123.051 1059.41 116.194 1061.48 112.07C1062.85 109.301 1063.83 106.356 1064.38 103.318C1063.47 103.095 1062.54 102.882 1061.61 102.685C1060.82 102.414 1059.95 102.451 1059.17 102.789C1058.58 103.133 1056.29 91.7224 1055.92 92.365C1053.37 96.8325 1051.91 106.975 1050.42 112.036C1049.3 115.833 1046.4 121.07 1044.59 122.633C1037.83 128.467 1025.17 132.238 1015.56 134.145C1015.43 137.099 1014.41 137.885 1016.22 140.507C1019.82 139.694 1026.55 138.174 1029.79 137.214C1039.28 134.406 1045.85 131.339 1050.58 127.534Z" fill="#26B8D0"/>
<path d="M1066.96 196.996C1067.46 196.996 1068.6 196.519 1068.98 196.544C1069.52 196.579 1069.7 196.429 1070.22 196.488C1071.01 196.57 1071.64 196.822 1072.39 196.946C1073.23 197.081 1074.32 196.453 1075.12 196.632C1076.16 196.861 1076.92 197.919 1077.91 198.213C1078.77 198.47 1080.05 197.984 1080.88 198.281C1081.61 198.541 1081.9 199.572 1082.62 199.852C1083.56 200.322 1084.46 200.873 1085.3 201.501C1086.2 202.166 1087.62 203.596 1087.96 203.837C1090.41 205.556 1091.63 205.39 1092.49 205.366C1093.02 205.351 1094.39 204.727 1094.9 204.907C1093.73 197.056 1091.95 186.765 1093.8 179.214C1094.6 175.916 1095.98 172.769 1096.47 169.398C1096.62 168.704 1096.59 167.983 1096.37 167.308C1096.08 166.709 1095.67 166.181 1095.16 165.763C1091.6 162.556 1086.71 161.192 1082.04 159.952C1078.84 158.925 1075.5 158.384 1072.14 158.348C1069.07 158.476 1067.13 154.463 1065.35 156.87C1063.65 159.174 1062.3 168.454 1062.25 171.189C1062.09 179.619 1064.42 188.743 1066.96 196.996Z" fill="#26E4EE"/>
<path d="M1096.47 169.195C1096.62 168.501 1096.58 167.78 1096.36 167.106C1096.08 166.506 1095.67 165.977 1095.15 165.56C1091.6 162.353 1086.71 160.99 1082.04 159.748L1081.15 159.513C1081.11 160.89 1080.92 162.259 1080.57 163.592C1079.65 166.958 1077.45 170.007 1077.24 173.582C1077.08 176.262 1078.77 178.273 1079.66 180.747C1075.07 179.643 1080.94 189.041 1081.56 188.892C1080.62 189.121 1080.85 190.437 1081.28 191.298C1082.88 194.558 1084.48 197.819 1086.09 201.079C1086.76 202.158 1087.53 203.174 1088.38 204.117C1089.58 205.32 1091.85 205.998 1094.8 205.07C1093.63 197.219 1091.95 186.56 1093.8 179.009C1094.6 175.712 1095.98 172.566 1096.47 169.195Z" fill="#1ED0DF"/>
<path d="M1048.81 24.2374C1031.72 24.069 1024.54 26.9511 1016.85 33.8494C1006.97 42.719 1006.83 55.9771 1013.4 67.5112C1016.16 72.3533 1019.24 73.3831 1023.77 76.6501C1028.6 80.1439 1033.04 89.8234 1036.2 95.8419C1040.66 104.336 1046.97 148.937 1059.96 164.785C1087.85 198.824 1126.72 196.708 1144.22 197.45C1167 198.415 1199.36 196.501 1199.36 196.501C1200.21 195.192 1200.79 193.72 1201.04 192.178C1201.3 190.636 1201.24 189.057 1200.86 187.541C1200.3 185.265 1197.57 178.148 1184.87 174.85C1175.14 172.319 1161.62 170.109 1158.97 166.215C1155.89 161.703 1156.88 147.568 1138.99 110.245C1137.05 106.177 1115.73 70.1837 1111.59 64.6612C1104.36 54.6982 1095.78 45.79 1086.1 38.1931C1074.91 29.1528 1063.35 24.3772 1048.81 24.2374Z" fill="#1ED0DF"/>
<path d="M1153.89 208.116C1176.67 209.082 1197.11 204.645 1200.62 193.895C1192.8 194.406 1186.29 192.885 1178.46 192.475C1175.1 192.3 1164.5 193.825 1161.58 192.149C1160.25 191.381 1158.75 190.299 1157.33 190.897C1156.85 191.096 1151.86 189.402 1151.35 189.495C1150.85 189.588 1144.53 184.225 1144.07 184.041C1139.24 182.048 1139 181.703 1134.17 179.71C1132.74 180.273 1126.74 173.12 1126.74 173.639C1119.28 170.993 1123.14 172.305 1116.9 167.433C1115.98 166.712 1109.2 158.634 1108.54 159.596C1105.02 157.008 1100.38 156.219 1096.86 153.63C1092.09 151.873 1088.36 154.961 1084.6 151.537C1084.38 152.17 1084.16 152.802 1083.94 153.435L1071.52 147.425C1070.79 146.974 1069.94 146.769 1069.09 146.84C1068.25 147.004 1067.55 147.999 1068.01 148.717C1067.3 148.745 1066.59 148.622 1065.94 148.355C1065.28 148.088 1064.69 147.683 1064.2 147.168C1063.23 146.131 1061.99 145.378 1060.62 144.992C1059.22 144.775 1057.54 145.941 1057.89 147.314C1055.77 145.985 1053.83 144.397 1052.1 142.587L1051.92 145.707C1049.84 144.376 1049.76 141.323 1048.25 139.366C1048.2 140.429 1052.72 156.618 1060.29 166.319C1087.37 201.014 1136.4 207.375 1153.89 208.116Z" fill="#1BC1D7"/>
<path d="M1103.24 213.406C1104.17 212.532 1104.91 211.768 1105.46 211.79C1105.91 211.807 1106.29 211.561 1106.72 211.587C1107.33 211.626 1108.1 210.939 1108.69 210.999C1109.58 211.091 1110.27 211.946 1111.11 212.081C1112.06 212.233 1113.28 211.528 1114.18 211.728C1115.36 211.99 1116.21 213.177 1117.32 213.508C1118.29 213.797 1119.74 213.255 1120.67 213.585C1121.5 213.877 1121.82 215.039 1122.63 215.355C1123.29 215.663 1124.04 215.729 1124.74 215.54C1125.34 215.324 1125.96 216.722 1126.4 216.908C1129.16 218.089 1131.97 216.876 1134.84 217.981C1135.4 218.197 1135.89 220.845 1136.46 221.051C1135.14 212.208 1133.14 200.617 1135.22 192.112C1136.13 188.396 1133.74 185.125 1128.49 183.732C1124.81 182.755 1107.87 173.95 1104.13 174.11C1100.67 174.255 1099.84 178.015 1099.69 183.078C1099.41 192.571 1100.38 204.107 1103.24 213.406Z" fill="#26E4EE"/>
<path d="M1135.92 190.617C1136.09 189.198 1136.05 187.762 1135.8 186.355C1135.53 185.68 1130.97 184.98 1130.41 184.475C1126.4 180.86 1130.89 184.251 1125.63 182.854C1125.3 182.766 1121.85 178.177 1121.51 178.089C1121.45 179.649 1118.82 175.312 1118.42 176.802C1117.38 180.593 1116.81 181.742 1116.58 185.772C1116.4 188.789 1118.31 191.055 1119.3 193.842C1114.13 192.598 1120.75 203.182 1121.44 203.015C1120.38 203.27 1120.65 204.755 1121.12 205.727C1122.93 209.4 1124.74 213.072 1126.54 216.745C1127.15 217.006 1127.44 217.392 1128.05 217.656C1128.68 217.927 1129.53 217.85 1130.18 218.114C1130.7 218.315 1131.01 218.855 1131.54 219.052C1131.84 219.167 1132.14 218.912 1132.45 219.024C1132.75 219.137 1133.08 219.617 1133.39 219.73C1133.93 219.924 1134.42 219.677 1134.96 219.869C1135.44 220.043 1137.35 221.427 1137.83 221.6C1136.51 212.756 1133.14 200.394 1135.22 191.889C1136.13 188.17 1135.36 194.414 1135.92 190.617Z" fill="#1BC1D7"/>
<path d="M1038.78 39.6626L1044.28 37.2238C1046.85 36.7576 1047.98 37.2937 1050.55 36.8263C1050.23 37.3166 1056.98 37.202 1060.81 37.9947C1061.47 38.1311 1074.88 40.0567 1075.1 40.445C1075.32 40.8333 1085.54 44.1438 1090.82 45.9835C1090.47 46.0555 1090.15 46.2293 1089.9 46.4832C1089.65 46.737 1089.47 47.0597 1089.4 47.4108L1097.62 53.978L1096.91 55.3068C1099.3 56.5538 1101.49 58.1431 1103.41 60.024C1105.66 62.1272 1107.7 64.4354 1109.74 66.739C1117.17 75.1367 1124 87.9171 1131.43 96.3159C1124.82 87.4463 1114.45 68.5008 1111.4 64.4331C1104.17 54.4702 1095.59 45.5624 1085.91 37.9661C1083.06 35.6511 1080.04 33.5542 1076.88 31.6933C1078.6 31.6509 1080.49 31.5616 1082.5 31.3943C1079.32 30.2626 1076.28 30.0816 1072.76 29.4939L1072.75 29.4012C1074.23 29.0518 1076.36 29.1594 1077.68 28.5397C1073.32 27.967 1063.87 25.4469 1056.5 24.5797C1053.88 24.2207 1051.24 24.0294 1048.6 24.007C1031.51 23.8386 1024.33 26.7206 1016.64 33.6189C1013.74 36.1753 1011.51 39.4041 1010.15 43.0224C1017.15 45.7521 1016.94 51.0787 1023.1 47.4601C1026.31 45.5883 1039.11 38.7175 1038.78 39.6626Z" fill="#26E4EE"/>
<path d="M1058.04 42.9521C1058.45 37.1608 1054.8 32.1771 1049.87 31.8206C1044.94 31.4642 1040.61 35.8701 1040.19 41.6614C1039.77 47.4527 1043.42 52.4364 1048.35 52.7928C1053.28 53.1492 1057.62 48.7434 1058.04 42.9521Z" fill="#26C9DA"/>
<path d="M1056.95 43.6151C1057.37 37.8238 1053.72 32.8401 1048.79 32.4837C1043.86 32.1273 1039.52 36.5332 1039.11 42.3245C1038.69 48.1158 1042.34 53.0995 1047.27 53.4559C1052.2 53.8123 1056.54 49.4064 1056.95 43.6151Z" fill="#B6F7FA"/>
<path d="M1056.55 43.2109C1056.89 38.4645 1053.9 34.38 1049.86 34.0879C1045.82 33.7958 1042.26 37.4066 1041.92 42.153C1041.58 46.8994 1044.57 50.9839 1048.61 51.276C1052.65 51.5681 1056.21 47.9572 1056.55 43.2109Z" fill="#453772"/>
<path d="M1045.17 37.3832C1046.03 37.3832 1046.72 36.6904 1046.72 35.8357C1046.72 34.981 1046.03 34.2881 1045.17 34.2881C1044.32 34.2881 1043.63 34.981 1043.63 35.8357C1043.63 36.6904 1044.32 37.3832 1045.17 37.3832Z" fill="white"/>
<path d="M1052.33 47.6504C1052.42 46.3701 1051.02 45.2256 1049.2 45.094C1047.38 44.9625 1045.83 45.8937 1045.74 47.174C1045.65 48.4543 1047.05 49.5988 1048.87 49.7304C1050.69 49.8619 1052.24 48.9307 1052.33 47.6504Z" fill="#5371A0"/>
<path d="M1094.7 107.034C1094.47 111.407 1093.35 115.687 1091.41 119.61C1089.46 123.532 1086.73 127.014 1083.39 129.84C1082.72 130.293 1082.18 130.925 1081.84 131.665C1081.71 132.334 1081.82 133.028 1082.16 133.62C1082.5 134.212 1083.05 134.66 1083.69 134.883C1085 135.286 1086.39 135.355 1087.73 135.084C1088.17 135.972 1088.82 136.74 1089.63 137.325C1090.04 137.604 1090.53 137.733 1091.02 137.689C1091.52 137.645 1091.98 137.432 1092.33 137.084C1092.74 136.577 1092.8 135.856 1093.19 135.332C1093.8 134.497 1095.01 134.415 1095.88 133.849C1096.72 133.183 1097.33 132.288 1097.66 131.275C1099.23 127.66 1100.83 123.715 1099.87 119.888C1101.1 120.044 1101.94 118.582 1101.94 117.344C1101.74 116.124 1101.64 114.89 1101.63 113.654C1101.74 112.978 1102.05 112.352 1102.22 111.689C1102.49 110.012 1102.33 108.292 1101.76 106.694C1101.03 103.996 1097.28 88.1585 1093.13 88.4976C1090.14 88.7358 1094.83 104.198 1094.7 107.034Z" fill="#26E4EE"/>
<path d="M1109.47 133.741C1108.99 136.511 1108.34 139.248 1107.51 141.935C1106.71 144.362 1105.62 146.687 1104.77 149.102C1103.36 153.579 1102.37 158.177 1101.81 162.837L1104.84 163.359C1104.79 163.936 1104.91 164.516 1105.19 165.023C1105.46 165.531 1105.89 165.943 1106.41 166.206C1107.45 166.713 1108.58 167.002 1109.74 167.053C1110.62 163.866 1111.49 160.675 1112.24 157.453C1112.95 154.389 1113.53 151.296 1113.96 148.181C1115.75 133.84 1115.47 119.317 1113.13 105.055C1112.27 106.597 1112.76 109.039 1112.7 110.803C1112.61 113.463 1112.36 116.116 1112.03 118.755C1111.4 123.787 1110.44 128.767 1109.47 133.741Z" fill="#1BC1D7"/>
<path d="M978.636 120.455C975.983 120.59 964.496 122.444 964.744 125.099C964.995 127.789 969.337 130.483 975.017 131.437C974.849 134.799 979.453 135.605 979.453 135.605C979.303 136.691 979.533 137.795 980.104 138.732C980.66 139.573 981.458 140.226 982.391 140.608C983.325 140.989 984.351 141.081 985.338 140.87C984.981 141.659 984.897 142.545 985.1 143.387C985.303 144.228 985.78 144.979 986.457 145.519C989.955 148.268 997.619 146.977 1001.23 145.819C1005.04 144.595 1008.76 142.897 1012.15 141.838C1019.11 139.662 1017.66 140.515 1017.66 140.515L1016.81 135.138C1016.81 135.138 1011.73 119.461 1009.76 119.913C1002.83 121.503 992.108 119.764 978.636 120.455Z" fill="#9000A6"/>
<path d="M985.337 138.985C984.35 139.195 983.324 139.104 982.39 138.722C981.457 138.34 980.66 137.686 980.103 136.846C979.532 135.909 979.303 134.804 979.452 133.718C979.452 133.718 974.848 132.916 975.016 129.552C970.09 128.719 966.178 126.587 965.059 124.283C964.953 124.394 964.87 124.525 964.816 124.669C964.762 124.812 964.737 124.965 964.743 125.119C964.994 127.807 969.336 130.496 975.016 131.457C974.848 134.818 979.452 135.623 979.452 135.623C979.303 136.709 979.532 137.814 980.103 138.75C980.622 139.548 981.36 140.179 982.227 140.569C983.095 140.958 984.057 141.09 984.998 140.949C984.959 140.277 985.075 139.605 985.337 138.985Z" fill="#670082"/>
<path d="M1012.15 139.959C1008.76 141.017 1005.04 142.714 1001.23 143.938C997.618 145.097 989.955 146.388 986.456 143.639C985.789 143.14 985.311 142.428 985.104 141.621C984.913 142.335 984.94 143.09 985.181 143.789C985.422 144.488 985.866 145.099 986.456 145.544C989.955 148.293 997.618 147.001 1001.23 145.843C1005.04 144.619 1008.76 142.922 1012.15 141.863C1013.93 141.214 1015.77 140.716 1017.64 140.373L1017.34 138.504C1015.58 138.894 1013.85 139.38 1012.15 139.959Z" fill="#670082"/>
<path d="M1017.63 140.372L1017.66 140.535C1017.66 140.535 1017.95 140.363 1017.63 140.372Z" fill="#670082"/>
<path d="M977.188 129.993C977.188 129.993 975.602 133.642 981.627 133.532C981.332 134.152 981.2 134.837 981.243 135.521C981.287 136.206 981.506 136.869 981.878 137.445C983.424 139.668 987.203 138.976 987.203 138.976C987.203 138.976 986.516 141.946 990.054 142.7C993.553 143.444 999.275 141.325 1004.51 139.078C1009.75 136.83 1011.39 136.09 1017 135.361C1017.7 134.781 1011.96 117.888 1010.68 117.988C1004.49 118.469 999.085 118.548 987.541 119.236C981.111 119.621 973.005 120.21 970.824 120.468C961.733 121.541 964.638 126.565 967.413 127.975C970.607 129.605 977.188 129.993 977.188 129.993Z" fill="#B61AC0"/>
<path d="M1065.81 165.708L1066.95 163.263C1067.73 163.896 1068.64 164.356 1069.61 164.613C1069.96 163.307 1070.09 161.953 1070.01 160.604C1070.82 160.7 1071.6 160.971 1072.29 161.399C1072.44 160.66 1072.59 159.922 1072.73 159.182L1074.78 159.827L1074.27 151.911C1074.16 150.206 1074.05 148.501 1073.94 146.796C1073.53 140.586 1082.23 144.928 1081.83 138.718C1081.81 138.394 1082.71 129.631 1082.14 126.936C1081.75 125.093 1079.85 129.09 1079.74 128.687C1079.07 125.668 1078.23 122.689 1077.22 119.765C1076.41 117.655 1075.52 121.827 1075.48 121.302C1074.77 119.493 1070.56 110.305 1069.85 108.496C1068.77 105.771 1068.11 112.124 1067.03 109.399L1062.7 98.4452L1060.71 99.278C1056.64 93.9869 1053.75 85.5514 1048.13 81.73C1042.51 77.9086 1033.5 77.2625 1027.34 79.7185C1027.15 79.7952 1026.96 79.8766 1026.77 79.9636C1030.35 84.4414 1033.59 91.3316 1036.04 96.0007C1040.13 103.796 1045.53 141.916 1056.47 160.399C1057.21 160.87 1057.91 161.38 1058.59 161.928C1060.7 163.682 1063.16 164.971 1065.81 165.708Z" fill="#26E4EE"/>
<path d="M1062.47 138.666C1060.77 139.738 1057.65 141.969 1057.11 143.912C1056.07 147.664 1060.82 147.596 1061.9 148.876C1062.64 149.747 1061.02 152.958 1062.86 155.362C1065.48 158.799 1067.88 158.385 1069.34 159.563C1070.13 160.508 1069.65 162.397 1070.34 164.157C1070.66 165.241 1071.27 166.217 1072.1 166.981C1072.93 167.744 1073.96 168.266 1075.06 168.49C1076.16 168.807 1077.43 168.883 1078.2 169.718C1078.89 170.455 1078.49 172.689 1081.19 174.503C1084.05 176.426 1085.94 174.779 1087.33 175.648C1089.13 176.774 1089.74 178.877 1092.36 178.999C1094.42 179.095 1096.32 176.492 1097.27 174.655C1102.34 164.845 1102.3 152.962 1107.7 143.331C1107.24 143.702 1106.71 143.963 1106.14 144.095C1105.57 144.227 1104.98 144.227 1104.41 144.093C1103.83 143.96 1103.3 143.697 1102.85 143.325C1102.4 142.954 1102.04 142.483 1101.79 141.95C1101.66 141.36 1101.44 140.794 1101.14 140.269C1100.38 139.279 1098.88 139.451 1097.65 139.201C1096.74 138.998 1095.91 138.519 1095.27 137.83C1094.64 137.141 1094.23 136.275 1094.1 135.347C1094.15 134.539 1093.97 133.733 1093.58 133.024C1092.93 132.236 1091.71 132.371 1090.7 132.191C1089.6 131.867 1088.62 131.191 1087.93 130.266C1087.24 129.341 1086.87 128.217 1086.88 127.062C1085.48 127.419 1083.36 128.648 1081.91 129.173C1079.58 130.016 1077.29 130.944 1075.04 131.956C1070.7 133.903 1066.5 136.145 1062.47 138.666Z" fill="#9000A6"/>
<path d="M1080.9 174.702C1083.89 176.327 1085.94 174.777 1087.33 175.65C1089.13 176.776 1089.74 178.879 1092.36 179.001C1094.42 179.097 1096.32 176.494 1097.27 174.657C1102.34 164.847 1102.3 152.964 1107.7 143.333C1107.24 143.725 1106.7 143.999 1106.12 144.129C1105.53 144.26 1104.93 144.243 1104.35 144.08C1100.84 152.832 1100.26 162.799 1095.9 171.228C1094.95 173.061 1093.05 175.668 1090.99 175.572C1088.37 175.451 1087.76 173.348 1085.96 172.223C1085.27 171.794 1083.89 172.672 1082.27 172.312C1080.95 171.892 1079.73 171.219 1078.67 170.331C1078.52 171.203 1078.65 172.1 1079.05 172.888C1079.46 173.676 1080.1 174.313 1080.9 174.702Z" fill="#670082"/>
<path d="M1070.85 159.203C1071.09 156.622 1071.83 154.113 1073.03 151.817C1072.63 151.941 1072.22 152.058 1071.8 152.168C1070.35 152.555 1068.64 152.798 1067.47 151.859C1066.95 151.371 1066.6 150.743 1066.44 150.052C1066.29 149.362 1066.34 148.641 1066.6 147.981C1067.14 146.672 1067.93 145.485 1068.94 144.492C1067.9 145.14 1066.72 145.532 1065.5 145.638C1064.89 145.675 1064.29 145.5 1063.79 145.144C1063.3 144.789 1062.94 144.273 1062.78 143.684C1062.53 142.123 1064.14 140.963 1065.54 140.229C1072.73 136.449 1080.19 132.668 1087.95 130.415C1087.16 129.475 1086.74 128.281 1086.76 127.054C1085.37 127.41 1083.24 128.64 1081.8 129.164C1079.47 130.008 1077.18 130.936 1074.92 131.948C1070.59 133.894 1066.39 136.134 1062.36 138.655C1060.65 139.725 1057.53 141.957 1056.99 143.9C1055.96 147.653 1059.85 148.292 1060.93 149.573C1061.66 150.442 1061.1 152.802 1062.74 155.351C1064.64 158.307 1067.41 158.475 1068.87 159.653C1069.66 160.598 1069.54 162.382 1070.23 164.146C1070.51 164.855 1070.92 165.512 1071.41 166.093C1070.87 163.839 1070.68 161.515 1070.85 159.203Z" fill="#B61AC0"/>
<path d="M1028.91 44.3314C1030.52 47.997 1033.14 47.7771 1035.61 50.9203C1038.8 54.9674 1044.81 55.0442 1047.61 55.8724C1054.33 57.8518 1054.94 63.0891 1055.2 66.9552C1056.03 79.4733 1043.72 91.8218 1034.88 91.7359C1033.05 91.7176 1031.73 90.8424 1030.27 89.0004C1028.06 85.8195 1026.03 82.5172 1024.19 79.109C1024.19 79.109 1023.6 64.8864 1021.71 65.0719C1011.63 66.0651 994.917 66.9048 980.013 67.8131C963.237 68.4432 949.703 69.1064 947.782 62.0707C946.454 57.2046 955.52 55.0831 960.54 54.578C971.68 53.4691 999.282 52.9307 1007.48 48.3498C1012.87 45.3326 1026.53 38.8879 1028.91 44.3314Z" fill="#CC00A4"/>
<path d="M963.193 58.9841C971.934 58.2636 990.581 57.4217 1001.43 56.1479C1016.55 54.3712 1028.78 53.055 1035.14 51.5429C1036.54 51.213 1034.26 49.5452 1032.23 46.2072C1031.05 44.2598 1028.66 36.6365 1023.66 35.0648C1021.42 34.1901 1018.95 34.0474 1016.62 34.657C1010.55 36.4154 1007.8 47.001 1000.28 49.8923C995.797 51.6105 970.951 52.6839 959.909 54.5224C946.017 56.8352 947.716 62.1091 947.716 62.1091C947.716 62.1091 950.725 60.0128 963.193 58.9841Z" fill="#EF00C3"/>
<path d="M1036.69 77.7991C1033.22 73.7177 1027.42 69.351 1021.19 69.1288C1018.54 69.0348 997.522 76.7704 995.071 76.0293C993.588 75.6073 992.051 75.4111 990.509 75.4474C986.229 75.9789 983.112 76.7075 983.233 77.8094C984.056 85.2552 1024 79.491 1024 79.491C1024 79.491 1028.25 86.2243 1030.45 89.0136C1031.9 90.8556 1033.23 91.8087 1035.05 91.7491C1038.32 91.6414 1040.13 90.3997 1041.9 89.5841C1041.43 85.2097 1039.61 81.0909 1036.69 77.7991Z" fill="#EF00C3"/>
<path d="M1038.9 64.5763C1036.84 66.676 1032.68 68.5649 1021.46 71.872C1016.11 73.4471 985.121 79.2938 983.311 77.5171C983.311 77.5171 982.469 75.3005 1011.55 65.7768C1011.55 65.7768 1019.18 65.1525 1025.09 64.1502C1030.85 63.1707 1037.66 61.8912 1040.76 60.937C1040.6 62.3339 1039.94 63.6257 1038.9 64.5763Z" fill="#88007F"/>
<path d="M990.263 122.34C990.263 122.34 985.125 125.823 985.52 128.852C985.52 128.852 985.323 135.063 993.883 131.731C993.883 131.731 1001.26 127.338 1002.97 126.732" fill="#9000A6"/>
<path d="M991.317 119.689C991.317 119.689 986.179 123.172 986.575 126.201C986.575 126.201 987.629 131.2 996.197 127.868C996.197 127.868 1000.02 126.201 1001.73 125.595" fill="#B61AC0"/>
<path d="M1009.25 117.987C1009.06 117.994 1008.87 118.053 1008.71 118.159C1008.6 118.28 1008.51 118.426 1008.46 118.587C1008.41 118.748 1008.4 118.919 1008.43 119.084C1008.67 121.49 1012.54 121.775 1012.47 124.192C1012.46 124.932 1012.02 125.585 1011.95 126.322C1011.96 126.834 1012.07 127.339 1012.3 127.8C1012.52 128.261 1012.84 128.666 1013.25 128.984C1014.04 129.575 1014.72 130.309 1015.25 131.147C1016.08 132.83 1015.36 134.921 1015.36 136.857C1015.36 137.969 1015.61 139.066 1016.1 140.064C1016.18 140.27 1016.32 140.447 1016.5 140.573C1016.67 140.644 1016.84 140.669 1017.02 140.644C1019.79 140.497 1020.45 139.773 1024.78 138.468C1022.35 135.307 1021.47 131.223 1020.54 127.15C1020.18 125.163 1019.6 123.221 1018.82 121.361C1016.54 116.591 1013.25 117.498 1009.25 117.987Z" fill="#26E4EE"/>
<path d="M1022.87 132.469C1022.87 132.469 1018.85 133.661 1015.56 134.267C1015.56 134.267 1014.16 138.974 1016.5 140.578C1016.5 140.578 1017.02 140.832 1018.72 140.455C1019.53 140.277 1020.74 139.864 1022.22 139.399C1023.12 139.121 1024.25 138.744 1025.63 138.319L1028.07 136.35L1022.87 132.469Z" fill="#1BC1D7"/>
<path d="M1160.18 167.548C1160.18 167.548 1164.24 176.941 1181.25 180.372C1181.25 180.372 1192.68 182.091 1198.21 182.663C1198.21 182.663 1195.1 178.029 1187.03 175.425C1187.03 175.42 1161.7 167.993 1160.18 167.548Z" fill="#26E4EE"/>
<path d="M965.079 136.985C962.46 142.913 971.37 144.497 971.37 144.497C971.37 144.497 969.545 148.595 972.442 150.757C977.201 154.307 990.665 146.643 996.017 144.696C999.159 143.551 1001.06 142.888 1007.44 141.079C1008.13 140.5 1008.3 118.899 998.968 119.28C991.087 119.601 992.69 118.778 981.808 118.754C975.369 118.74 961.548 117.594 959.365 117.852C955.421 118.318 953.844 120.612 954.987 123.373C956.339 126.642 960.508 128.418 960.508 128.418C960.508 128.418 955.606 134.729 965.079 136.985Z" fill="#B61AC0"/>
<path d="M993.656 142.084C988.304 144.031 977.677 153.268 972.917 149.714C970.021 147.551 971.845 143.454 971.845 143.454C971.845 143.454 962.937 141.869 965.556 135.942C959.773 134.568 959.35 131.677 959.896 129.636C958.997 131.583 958.304 135.35 965.175 136.989C962.556 142.917 971.465 144.5 971.465 144.5C971.465 144.5 969.64 148.598 972.537 150.76C977.296 154.31 990.761 146.646 996.113 144.699C999.255 143.554 1001.16 142.891 1007.54 141.082C1007.62 141.015 1007.7 137.954 1007.75 137.386C1001.52 139.155 996.768 140.953 993.656 142.084Z" fill="#670082"/>
<path d="M960.987 127.374C960.987 127.374 956.818 125.597 955.465 122.329C955.159 121.63 955.057 120.857 955.172 120.102C954.898 120.601 954.748 121.159 954.732 121.728C954.717 122.298 954.838 122.862 955.084 123.376C956.259 126.215 959.557 127.927 960.403 128.328C960.57 127.994 960.765 127.675 960.987 127.374Z" fill="#670082"/>
<path d="M956.893 118.521L976.122 151.458C977.536 151.553 978.955 151.392 980.311 150.982L959.844 117.949C958.829 117.906 957.819 118.102 956.893 118.521Z" fill="#9000A6"/>
<g clip-path="url(#clip3_76_9165)">
<path d="M956.239 112.305L990.172 85.9032L1018.02 134.026L984.091 160.428L956.239 112.305Z" fill="#4D5BD9"/>
<path d="M996.789 87.732L990.152 88.0787L958.17 113.113L962.785 115.589L996.789 87.7319L996.789 87.732Z" fill="#FFFAED"/>
<path d="M963.799 112.062L997.732 85.6601L1025.58 133.783L991.651 160.185L963.799 112.062Z" fill="#364098"/>
<path d="M956.239 112.305C956.239 112.305 958.456 111.89 960.346 111.829C962.236 111.768 963.8 112.061 963.8 112.061L991.651 160.183C991.651 160.183 989.102 161.023 987.212 161.084C985.322 161.145 984.09 160.426 984.09 160.426L956.239 112.305Z" fill="#4D5BD9"/>
<g filter="url(#filter0_dd_76_9165)">
<path d="M993.289 129.789C993.597 129.141 992.937 128.181 991.816 127.645C990.695 127.109 989.536 127.2 989.229 127.849C988.921 128.497 989.581 129.457 990.702 129.993C991.823 130.529 992.981 130.438 993.289 129.789Z" fill="#F26E7E"/>
</g>
<g filter="url(#filter1_dd_76_9165)">
<path d="M1003.02 121.519C1002.92 120.28 1002.26 119.321 1001.54 119.377C1000.83 119.433 1000.33 120.482 1000.43 121.721C1000.53 122.959 1001.19 123.918 1001.9 123.863C1002.62 123.807 1003.12 122.758 1003.02 121.519Z" fill="#A15CA7"/>
</g>
<g filter="url(#filter2_dd_76_9165)">
<path d="M998.168 129.412C998.475 128.764 997.816 127.804 996.695 127.268C995.573 126.732 994.415 126.823 994.107 127.472C993.8 128.12 994.459 129.08 995.58 129.616C996.702 130.152 997.86 130.061 998.168 129.412Z" fill="#F26E7E"/>
</g>
<g filter="url(#filter3_dd_76_9165)">
<path d="M1000.92 125.937C1000.82 124.698 1000.16 123.739 999.445 123.795C998.729 123.851 998.23 124.9 998.33 126.139C998.43 127.377 999.092 128.336 999.807 128.281C1000.52 128.225 1001.02 127.176 1000.92 125.937Z" fill="#A15CA7"/>
</g>
<g filter="url(#filter4_dd_76_9165)">
<path d="M990.97 117.203C991.992 116.5 992.489 115.45 992.081 114.857C991.673 114.265 990.514 114.354 989.493 115.057C988.472 115.759 987.975 116.81 988.383 117.402C988.791 117.995 989.949 117.906 990.97 117.203Z" fill="#F7BF2A"/>
</g>
<g filter="url(#filter5_dd_76_9165)">
<path d="M990.505 125.747C990.813 125.098 990.153 124.138 989.032 123.602C987.911 123.066 986.752 123.158 986.445 123.806C986.137 124.455 986.797 125.415 987.918 125.951C989.039 126.487 990.197 126.395 990.505 125.747Z" fill="#F26E7E"/>
</g>
<g filter="url(#filter6_dd_76_9165)">
<path d="M988.873 121.62C989.894 120.917 990.391 119.867 989.983 119.274C989.575 118.681 988.417 118.77 987.395 119.473C986.374 120.176 985.877 121.226 986.285 121.819C986.693 122.412 987.852 122.323 988.873 121.62Z" fill="#F7BF2A"/>
</g>
<g filter="url(#filter7_dd_76_9165)">
<path d="M1000.23 117.478C1000.13 116.239 999.473 115.28 998.757 115.336C998.041 115.392 997.542 116.441 997.643 117.68C997.743 118.918 998.404 119.877 999.119 119.822C999.835 119.766 1000.33 118.717 1000.23 117.478Z" fill="#A15CA7"/>
</g>
<g filter="url(#filter8_dd_76_9165)">
<path d="M995.849 116.818C996.87 116.115 997.368 115.065 996.96 114.472C996.552 113.879 995.393 113.969 994.372 114.671C993.351 115.374 992.854 116.424 993.262 117.017C993.67 117.61 994.828 117.521 995.849 116.818Z" fill="#F7BF2A"/>
</g>
<g filter="url(#filter9_dd_76_9165)">
<path d="M995.384 125.37C995.691 124.721 995.032 123.761 993.911 123.225C992.789 122.689 991.631 122.781 991.323 123.429C991.016 124.078 991.675 125.038 992.796 125.574C993.918 126.11 995.076 126.018 995.384 125.37Z" fill="#F26E7E"/>
</g>
<g filter="url(#filter10_dd_76_9165)">
<path d="M998.138 121.896C998.037 120.658 997.376 119.699 996.661 119.754C995.945 119.81 995.446 120.859 995.546 122.098C995.646 123.337 996.307 124.296 997.023 124.24C997.739 124.184 998.238 123.135 998.138 121.896Z" fill="#A15CA7"/>
</g>
<g filter="url(#filter11_dd_76_9165)">
<path d="M993.75 121.242C994.771 120.54 995.269 119.489 994.861 118.896C994.453 118.304 993.294 118.393 992.273 119.096C991.252 119.798 990.755 120.849 991.163 121.442C991.57 122.034 992.729 121.945 993.75 121.242Z" fill="#F7BF2A"/>
</g>
</g>
</g>
<defs>
<filter id="filter0_dd_76_9165" x="987.153" y="125.295" width="8.21143" height="7.04688" filterUnits="userSpaceOnUse" color-interpolation-filters="sRGB">
<feFlood flood-opacity="0" result="BackgroundImageFix"/>
<feColorMatrix in="SourceAlpha" type="matrix" values="0 0 0 0 0 0 0 0 0 0 0 0 0 0 0 0 0 0 127 0" result="hardAlpha"/>
<feOffset dx="-0.5" dy="0.5"/>
<feComposite in2="hardAlpha" operator="out"/>
<feColorMatrix type="matrix" values="0 0 0 0 0.25098 0 0 0 0 0.176471 0 0 0 0 0.384314 0 0 0 1 0"/>
<feBlend mode="normal" in2="BackgroundImageFix" result="effect1_dropShadow_76_9165"/>
<feColorMatrix in="SourceAlpha" type="matrix" values="0 0 0 0 0 0 0 0 0 0 0 0 0 0 0 0 0 0 127 0" result="hardAlpha"/>
<feOffset/>
<feGaussianBlur stdDeviation="1"/>
<feComposite in2="hardAlpha" operator="out"/>
<feColorMatrix type="matrix" values="0 0 0 0 0.25098 0 0 0 0 0.176471 0 0 0 0 0.384314 0 0 0 1 0"/>
<feBlend mode="normal" in2="effect1_dropShadow_76_9165" result="effect2_dropShadow_76_9165"/>
<feBlend mode="normal" in="SourceGraphic" in2="effect2_dropShadow_76_9165" result="shape"/>
</filter>
<filter id="filter1_dd_76_9165" x="998.414" y="117.375" width="6.61719" height="8.49023" filterUnits="userSpaceOnUse" color-interpolation-filters="sRGB">
<feFlood flood-opacity="0" result="BackgroundImageFix"/>
<feColorMatrix in="SourceAlpha" type="matrix" values="0 0 0 0 0 0 0 0 0 0 0 0 0 0 0 0 0 0 127 0" result="hardAlpha"/>
<feOffset dx="-0.5" dy="0.5"/>
<feComposite in2="hardAlpha" operator="out"/>
<feColorMatrix type="matrix" values="0 0 0 0 0.25098 0 0 0 0 0.176471 0 0 0 0 0.384314 0 0 0 1 0"/>
<feBlend mode="normal" in2="BackgroundImageFix" result="effect1_dropShadow_76_9165"/>
<feColorMatrix in="SourceAlpha" type="matrix" values="0 0 0 0 0 0 0 0 0 0 0 0 0 0 0 0 0 0 127 0" result="hardAlpha"/>
<feOffset/>
<feGaussianBlur stdDeviation="1"/>
<feComposite in2="hardAlpha" operator="out"/>
<feColorMatrix type="matrix" values="0 0 0 0 0.25098 0 0 0 0 0.176471 0 0 0 0 0.384314 0 0 0 1 0"/>
<feBlend mode="normal" in2="effect1_dropShadow_76_9165" result="effect2_dropShadow_76_9165"/>
<feBlend mode="normal" in="SourceGraphic" in2="effect2_dropShadow_76_9165" result="shape"/>
</filter>
<filter id="filter2_dd_76_9165" x="992.032" y="124.919" width="8.21143" height="7.04639" filterUnits="userSpaceOnUse" color-interpolation-filters="sRGB">
<feFlood flood-opacity="0" result="BackgroundImageFix"/>
<feColorMatrix in="SourceAlpha" type="matrix" values="0 0 0 0 0 0 0 0 0 0 0 0 0 0 0 0 0 0 127 0" result="hardAlpha"/>
<feOffset dx="-0.5" dy="0.5"/>
<feComposite in2="hardAlpha" operator="out"/>
<feColorMatrix type="matrix" values="0 0 0 0 0.25098 0 0 0 0 0.176471 0 0 0 0 0.384314 0 0 0 1 0"/>
<feBlend mode="normal" in2="BackgroundImageFix" result="effect1_dropShadow_76_9165"/>
<feColorMatrix in="SourceAlpha" type="matrix" values="0 0 0 0 0 0 0 0 0 0 0 0 0 0 0 0 0 0 127 0" result="hardAlpha"/>
<feOffset/>
<feGaussianBlur stdDeviation="1"/>
<feComposite in2="hardAlpha" operator="out"/>
<feColorMatrix type="matrix" values="0 0 0 0 0.25098 0 0 0 0 0.176471 0 0 0 0 0.384314 0 0 0 1 0"/>
<feBlend mode="normal" in2="effect1_dropShadow_76_9165" result="effect2_dropShadow_76_9165"/>
<feBlend mode="normal" in="SourceGraphic" in2="effect2_dropShadow_76_9165" result="shape"/>
</filter>
<filter id="filter3_dd_76_9165" x="996.317" y="121.792" width="6.61719" height="8.49072" filterUnits="userSpaceOnUse" color-interpolation-filters="sRGB">
<feFlood flood-opacity="0" result="BackgroundImageFix"/>
<feColorMatrix in="SourceAlpha" type="matrix" values="0 0 0 0 0 0 0 0 0 0 0 0 0 0 0 0 0 0 127 0" result="hardAlpha"/>
<feOffset dx="-0.5" dy="0.5"/>
<feComposite in2="hardAlpha" operator="out"/>
<feColorMatrix type="matrix" values="0 0 0 0 0.25098 0 0 0 0 0.176471 0 0 0 0 0.384314 0 0 0 1 0"/>
<feBlend mode="normal" in2="BackgroundImageFix" result="effect1_dropShadow_76_9165"/>
<feColorMatrix in="SourceAlpha" type="matrix" values="0 0 0 0 0 0 0 0 0 0 0 0 0 0 0 0 0 0 127 0" result="hardAlpha"/>
<feOffset/>
<feGaussianBlur stdDeviation="1"/>
<feComposite in2="hardAlpha" operator="out"/>
<feColorMatrix type="matrix" values="0 0 0 0 0.25098 0 0 0 0 0.176471 0 0 0 0 0.384314 0 0 0 1 0"/>
<feBlend mode="normal" in2="effect1_dropShadow_76_9165" result="effect2_dropShadow_76_9165"/>
<feBlend mode="normal" in="SourceGraphic" in2="effect2_dropShadow_76_9165" result="shape"/>
</filter>
<filter id="filter4_dd_76_9165" x="986.24" y="112.465" width="7.98315" height="7.32959" filterUnits="userSpaceOnUse" color-interpolation-filters="sRGB">
<feFlood flood-opacity="0" result="BackgroundImageFix"/>
<feColorMatrix in="SourceAlpha" type="matrix" values="0 0 0 0 0 0 0 0 0 0 0 0 0 0 0 0 0 0 127 0" result="hardAlpha"/>
<feOffset dx="-0.5" dy="0.5"/>
<feComposite in2="hardAlpha" operator="out"/>
<feColorMatrix type="matrix" values="0 0 0 0 0.25098 0 0 0 0 0.176471 0 0 0 0 0.384314 0 0 0 1 0"/>
<feBlend mode="normal" in2="BackgroundImageFix" result="effect1_dropShadow_76_9165"/>
<feColorMatrix in="SourceAlpha" type="matrix" values="0 0 0 0 0 0 0 0 0 0 0 0 0 0 0 0 0 0 127 0" result="hardAlpha"/>
<feOffset/>
<feGaussianBlur stdDeviation="1"/>
<feComposite in2="hardAlpha" operator="out"/>
<feColorMatrix type="matrix" values="0 0 0 0 0.25098 0 0 0 0 0.176471 0 0 0 0 0.384314 0 0 0 1 0"/>
<feBlend mode="normal" in2="effect1_dropShadow_76_9165" result="effect2_dropShadow_76_9165"/>
<feBlend mode="normal" in="SourceGraphic" in2="effect2_dropShadow_76_9165" result="shape"/>
</filter>
<filter id="filter5_dd_76_9165" x="984.369" y="121.253" width="8.21143" height="7.04639" filterUnits="userSpaceOnUse" color-interpolation-filters="sRGB">
<feFlood flood-opacity="0" result="BackgroundImageFix"/>
<feColorMatrix in="SourceAlpha" type="matrix" values="0 0 0 0 0 0 0 0 0 0 0 0 0 0 0 0 0 0 127 0" result="hardAlpha"/>
<feOffset dx="-0.5" dy="0.5"/>
<feComposite in2="hardAlpha" operator="out"/>
<feColorMatrix type="matrix" values="0 0 0 0 0.25098 0 0 0 0 0.176471 0 0 0 0 0.384314 0 0 0 1 0"/>
<feBlend mode="normal" in2="BackgroundImageFix" result="effect1_dropShadow_76_9165"/>
<feColorMatrix in="SourceAlpha" type="matrix" values="0 0 0 0 0 0 0 0 0 0 0 0 0 0 0 0 0 0 127 0" result="hardAlpha"/>
<feOffset/>
<feGaussianBlur stdDeviation="1"/>
<feComposite in2="hardAlpha" operator="out"/>
<feColorMatrix type="matrix" values="0 0 0 0 0.25098 0 0 0 0 0.176471 0 0 0 0 0.384314 0 0 0 1 0"/>
<feBlend mode="normal" in2="effect1_dropShadow_76_9165" result="effect2_dropShadow_76_9165"/>
<feBlend mode="normal" in="SourceGraphic" in2="effect2_dropShadow_76_9165" result="shape"/>
</filter>
<filter id="filter6_dd_76_9165" x="984.142" y="116.882" width="7.9834" height="7.32959" filterUnits="userSpaceOnUse" color-interpolation-filters="sRGB">
<feFlood flood-opacity="0" result="BackgroundImageFix"/>
<feColorMatrix in="SourceAlpha" type="matrix" values="0 0 0 0 0 0 0 0 0 0 0 0 0 0 0 0 0 0 127 0" result="hardAlpha"/>
<feOffset dx="-0.5" dy="0.5"/>
<feComposite in2="hardAlpha" operator="out"/>
<feColorMatrix type="matrix" values="0 0 0 0 0.25098 0 0 0 0 0.176471 0 0 0 0 0.384314 0 0 0 1 0"/>
<feBlend mode="normal" in2="BackgroundImageFix" result="effect1_dropShadow_76_9165"/>
<feColorMatrix in="SourceAlpha" type="matrix" values="0 0 0 0 0 0 0 0 0 0 0 0 0 0 0 0 0 0 127 0" result="hardAlpha"/>
<feOffset/>
<feGaussianBlur stdDeviation="1"/>
<feComposite in2="hardAlpha" operator="out"/>
<feColorMatrix type="matrix" values="0 0 0 0 0.25098 0 0 0 0 0.176471 0 0 0 0 0.384314 0 0 0 1 0"/>
<feBlend mode="normal" in2="effect1_dropShadow_76_9165" result="effect2_dropShadow_76_9165"/>
<feBlend mode="normal" in="SourceGraphic" in2="effect2_dropShadow_76_9165" result="shape"/>
</filter>
<filter id="filter7_dd_76_9165" x="995.63" y="113.333" width="6.61719" height="8.49072" filterUnits="userSpaceOnUse" color-interpolation-filters="sRGB">
<feFlood flood-opacity="0" result="BackgroundImageFix"/>
<feColorMatrix in="SourceAlpha" type="matrix" values="0 0 0 0 0 0 0 0 0 0 0 0 0 0 0 0 0 0 127 0" result="hardAlpha"/>
<feOffset dx="-0.5" dy="0.5"/>
<feComposite in2="hardAlpha" operator="out"/>
<feColorMatrix type="matrix" values="0 0 0 0 0.25098 0 0 0 0 0.176471 0 0 0 0 0.384314 0 0 0 1 0"/>
<feBlend mode="normal" in2="BackgroundImageFix" result="effect1_dropShadow_76_9165"/>
<feColorMatrix in="SourceAlpha" type="matrix" values="0 0 0 0 0 0 0 0 0 0 0 0 0 0 0 0 0 0 127 0" result="hardAlpha"/>
<feOffset/>
<feGaussianBlur stdDeviation="1"/>
<feComposite in2="hardAlpha" operator="out"/>
<feColorMatrix type="matrix" values="0 0 0 0 0.25098 0 0 0 0 0.176471 0 0 0 0 0.384314 0 0 0 1 0"/>
<feBlend mode="normal" in2="effect1_dropShadow_76_9165" result="effect2_dropShadow_76_9165"/>
<feBlend mode="normal" in="SourceGraphic" in2="effect2_dropShadow_76_9165" result="shape"/>
</filter>
<filter id="filter8_dd_76_9165" x="991.119" y="112.08" width="7.9834" height="7.32959" filterUnits="userSpaceOnUse" color-interpolation-filters="sRGB">
<feFlood flood-opacity="0" result="BackgroundImageFix"/>
<feColorMatrix in="SourceAlpha" type="matrix" values="0 0 0 0 0 0 0 0 0 0 0 0 0 0 0 0 0 0 127 0" result="hardAlpha"/>
<feOffset dx="-0.5" dy="0.5"/>
<feComposite in2="hardAlpha" operator="out"/>
<feColorMatrix type="matrix" values="0 0 0 0 0.25098 0 0 0 0 0.176471 0 0 0 0 0.384314 0 0 0 1 0"/>
<feBlend mode="normal" in2="BackgroundImageFix" result="effect1_dropShadow_76_9165"/>
<feColorMatrix in="SourceAlpha" type="matrix" values="0 0 0 0 0 0 0 0 0 0 0 0 0 0 0 0 0 0 127 0" result="hardAlpha"/>
<feOffset/>
<feGaussianBlur stdDeviation="1"/>
<feComposite in2="hardAlpha" operator="out"/>
<feColorMatrix type="matrix" values="0 0 0 0 0.25098 0 0 0 0 0.176471 0 0 0 0 0.384314 0 0 0 1 0"/>
<feBlend mode="normal" in2="effect1_dropShadow_76_9165" result="effect2_dropShadow_76_9165"/>
<feBlend mode="normal" in="SourceGraphic" in2="effect2_dropShadow_76_9165" result="shape"/>
</filter>
<filter id="filter9_dd_76_9165" x="989.248" y="120.876" width="8.21143" height="7.04639" filterUnits="userSpaceOnUse" color-interpolation-filters="sRGB">
<feFlood flood-opacity="0" result="BackgroundImageFix"/>
<feColorMatrix in="SourceAlpha" type="matrix" values="0 0 0 0 0 0 0 0 0 0 0 0 0 0 0 0 0 0 127 0" result="hardAlpha"/>
<feOffset dx="-0.5" dy="0.5"/>
<feComposite in2="hardAlpha" operator="out"/>
<feColorMatrix type="matrix" values="0 0 0 0 0.25098 0 0 0 0 0.176471 0 0 0 0 0.384314 0 0 0 1 0"/>
<feBlend mode="normal" in2="BackgroundImageFix" result="effect1_dropShadow_76_9165"/>
<feColorMatrix in="SourceAlpha" type="matrix" values="0 0 0 0 0 0 0 0 0 0 0 0 0 0 0 0 0 0 127 0" result="hardAlpha"/>
<feOffset/>
<feGaussianBlur stdDeviation="1"/>
<feComposite in2="hardAlpha" operator="out"/>
<feColorMatrix type="matrix" values="0 0 0 0 0.25098 0 0 0 0 0.176471 0 0 0 0 0.384314 0 0 0 1 0"/>
<feBlend mode="normal" in2="effect1_dropShadow_76_9165" result="effect2_dropShadow_76_9165"/>
<feBlend mode="normal" in="SourceGraphic" in2="effect2_dropShadow_76_9165" result="shape"/>
</filter>
<filter id="filter10_dd_76_9165" x="993.533" y="117.752" width="6.61719" height="8.49023" filterUnits="userSpaceOnUse" color-interpolation-filters="sRGB">
<feFlood flood-opacity="0" result="BackgroundImageFix"/>
<feColorMatrix in="SourceAlpha" type="matrix" values="0 0 0 0 0 0 0 0 0 0 0 0 0 0 0 0 0 0 127 0" result="hardAlpha"/>
<feOffset dx="-0.5" dy="0.5"/>
<feComposite in2="hardAlpha" operator="out"/>
<feColorMatrix type="matrix" values="0 0 0 0 0.25098 0 0 0 0 0.176471 0 0 0 0 0.384314 0 0 0 1 0"/>
<feBlend mode="normal" in2="BackgroundImageFix" result="effect1_dropShadow_76_9165"/>
<feColorMatrix in="SourceAlpha" type="matrix" values="0 0 0 0 0 0 0 0 0 0 0 0 0 0 0 0 0 0 127 0" result="hardAlpha"/>
<feOffset/>
<feGaussianBlur stdDeviation="1"/>
<feComposite in2="hardAlpha" operator="out"/>
<feColorMatrix type="matrix" values="0 0 0 0 0.25098 0 0 0 0 0.176471 0 0 0 0 0.384314 0 0 0 1 0"/>
<feBlend mode="normal" in2="effect1_dropShadow_76_9165" result="effect2_dropShadow_76_9165"/>
<feBlend mode="normal" in="SourceGraphic" in2="effect2_dropShadow_76_9165" result="shape"/>
</filter>
<filter id="filter11_dd_76_9165" x="989.02" y="116.504" width="7.98315" height="7.32959" filterUnits="userSpaceOnUse" color-interpolation-filters="sRGB">
<feFlood flood-opacity="0" result="BackgroundImageFix"/>
<feColorMatrix in="SourceAlpha" type="matrix" values="0 0 0 0 0 0 0 0 0 0 0 0 0 0 0 0 0 0 127 0" result="hardAlpha"/>
<feOffset dx="-0.5" dy="0.5"/>
<feComposite in2="hardAlpha" operator="out"/>
<feColorMatrix type="matrix" values="0 0 0 0 0.25098 0 0 0 0 0.176471 0 0 0 0 0.384314 0 0 0 1 0"/>
<feBlend mode="normal" in2="BackgroundImageFix" result="effect1_dropShadow_76_9165"/>
<feColorMatrix in="SourceAlpha" type="matrix" values="0 0 0 0 0 0 0 0 0 0 0 0 0 0 0 0 0 0 127 0" result="hardAlpha"/>
<feOffset/>
<feGaussianBlur stdDeviation="1"/>
<feComposite in2="hardAlpha" operator="out"/>
<feColorMatrix type="matrix" values="0 0 0 0 0.25098 0 0 0 0 0.176471 0 0 0 0 0.384314 0 0 0 1 0"/>
<feBlend mode="normal" in2="effect1_dropShadow_76_9165" result="effect2_dropShadow_76_9165"/>
<feBlend mode="normal" in="SourceGraphic" in2="effect2_dropShadow_76_9165" result="shape"/>
</filter>
<clipPath id="clip0_76_9165">
<rect x="0.5" width="1200" height="197" rx="4" fill="white"/>
</clipPath>
<clipPath id="clip1_76_9165">
<rect width="701" height="367" fill="white" transform="translate(0.498047)"/>
</clipPath>
<clipPath id="clip2_76_9165">
<rect width="701" height="367" fill="white" transform="translate(739)"/>
</clipPath>
<clipPath id="clip3_76_9165">
<rect width="92.0835" height="92.0835" fill="white" transform="translate(928 106.257) rotate(-30.0606)"/>
</clipPath>
</defs>
</svg>
