<svg width="1029" height="263" viewBox="0 0 1029 263" fill="none" xmlns="http://www.w3.org/2000/svg">
<path d="M114.215 196.547C61.535 198.847 12.58 151.702 15.787 93.1069C18.455 44.3659 58.827 -1.30515 117.687 0.0708496C167.287 1.23085 216.144 42.9098 212.787 105.308C210.248 152.561 169.067 198.207 114.215 196.547ZM192.76 98.8999C194.002 55.6199 156.782 21.4349 118.015 19.9389C70.972 18.1229 38.141 56.2679 35.833 92.5229C32.616 143.043 73.001 177.408 114.128 177.414C156.821 177.419 193.6 142.447 192.76 98.8999Z" fill="#41BF47"/>
<path d="M453.743 260.216C447.623 260.216 441.796 260.516 436.043 259.988C434.724 259.867 432.752 256.942 432.643 255.212C432.067 245.77 431.979 236.299 431.727 226.838C431.661 224.347 431.798 221.838 431.51 219.368C430.674 212.189 426.886 208.795 419.61 208.535C417.465 208.458 415.315 208.523 412.639 208.523V259.794H392.523V133.812C393.034 133.542 393.588 133.361 394.16 133.278C405.641 133.366 417.146 133.078 428.596 133.734C442.575 134.534 450.796 143.196 451.556 157.161C451.892 163.295 451.799 169.461 451.685 175.607C451.511 184.954 448.379 192.852 439.572 198.064C450.015 203.735 451.835 213.343 452.041 223.652C452.223 232.787 452.182 241.928 452.428 251.062C452.5 253.844 453.2 256.61 453.743 260.216ZM412.636 190.5C416.183 190.318 419.164 190.367 422.085 189.973C427.827 189.198 431.03 186.318 431.378 180.692C431.747 173.902 431.741 167.096 431.358 160.307C431.17 156.502 429.377 152.807 425.243 152.154C421.109 151.501 416.82 152.012 412.636 152.012V190.5Z" fill="black"/>
<path d="M954.784 260.21C949.822 260.21 943.884 260.334 937.961 260.089C937.319 259.924 936.729 259.602 936.243 259.151C935.758 258.7 935.392 258.135 935.18 257.507C934.522 253.757 934.143 249.963 934.048 246.157C933.882 239.348 934.004 232.531 933.999 225.718C933.99 211.147 929.352 207.109 914.272 208.99V259.89H894.45V134.135C907.87 134.135 921.216 133.175 934.35 134.426C945.661 135.504 952.011 143.065 953.198 154.466C953.919 162.393 954.029 170.363 953.528 178.306C953.114 186.482 949.678 193.373 941.736 197.965C952.875 204.465 954.113 214.946 954.182 226.021C954.252 237.255 954.567 248.489 954.784 260.21ZM914.47 152.21V190.222C917.36 190.222 919.987 190.422 922.57 190.184C930.118 189.484 932.794 186.873 933.604 179.355C933.904 176.061 934.03 172.753 933.982 169.446C934.009 153.022 931.382 150.574 915.182 151.796C915.046 151.805 914.915 151.946 914.47 152.209V152.21Z" fill="black"/>
<path d="M883.37 196.461C883.37 208.084 883.427 219.707 883.36 231.329C883.296 242.629 880.06 252.729 869.251 257.929C857.675 263.5 845.642 263.351 834.498 256.348C826.89 251.568 823.425 243.787 823.293 235.172C822.911 210.283 822.469 185.366 823.235 160.497C823.863 140.113 837.123 129.753 857.484 131.897C873.384 133.574 882.991 143.879 883.318 160.091C883.563 172.215 883.366 184.34 883.37 196.461ZM843.084 196.204C843.084 207.997 843.025 219.791 843.114 231.584C843.15 236.245 844.07 240.623 849.214 242.496C856.669 245.212 862.999 241.063 863.195 232.747C863.527 218.637 863.378 204.514 863.383 190.397C863.383 180.432 863.538 170.459 863.2 160.505C862.928 152.515 857.551 148.687 850.089 150.573C845.589 151.712 843.207 155.103 843.138 161.323C843.005 172.949 843.1 184.577 843.084 196.2V196.204Z" fill="black"/>
<path d="M383.621 259.969H363.369C362.169 252.569 360.963 245.105 359.733 237.503H335.621C334.621 243.973 333.483 250.303 332.735 256.688C332.409 259.467 331.319 260.359 328.63 260.272C323.83 260.116 319.03 260.228 313.556 260.228C320.364 217.737 327.092 175.744 333.861 133.494H363.34C370.089 175.581 376.829 217.615 383.621 259.969ZM348.238 161.069L346.953 161.057C344.07 180.425 341.185 199.81 338.296 219.213H356.979C354.017 199.511 351.127 180.292 348.238 161.073V161.069Z" fill="black"/>
<path d="M681.462 259.971H661.615C660.423 252.421 659.265 245.09 658.035 237.297C650.673 237.297 643.544 237.153 636.435 237.453C635.37 237.498 633.742 239.498 633.486 240.81C632.249 247.132 631.393 253.528 630.386 259.968H612C613.282 251.636 614.47 243.644 615.747 235.668C620.969 203.029 626.267 170.401 631.385 137.746C631.925 134.297 633.055 132.946 636.719 133.109C643.7 133.409 650.706 133.316 657.696 133.141C660.554 133.07 661.851 133.95 662.313 136.868C668.573 176.379 674.879 215.883 681.231 255.381C681.39 256.906 681.467 258.438 681.462 259.971V259.971ZM655.3 219.327L646.335 159.807L645.445 159.875C642.49 179.64 639.535 199.405 636.507 219.655C641.917 219.655 646.721 219.673 651.526 219.641C652.664 219.634 653.8 219.457 655.3 219.327Z" fill="black"/>
<path d="M747.081 175.792H728.3C728.3 170.512 728.508 165.53 728.252 160.571C727.87 153.162 723.435 149.452 716.54 150.291C711.434 150.912 708.717 154.016 708.366 158.829C707.907 165.112 707.897 171.435 707.874 177.741C707.815 194.025 707.841 210.309 707.874 226.594C707.871 228.918 707.987 231.24 708.223 233.552C708.903 239.98 712.101 242.926 718.223 242.914C724.2 242.903 727.823 239.778 728.168 233.436C728.533 226.676 728.251 219.881 728.251 212.807H747.73C747.262 222.091 747.589 231.271 746.164 240.17C744.09 253.125 734.079 260.976 720.922 261.356C717.599 261.55 714.266 261.439 710.963 261.024C696.708 258.788 688.322 249.115 688.009 232.924C687.539 208.674 687.284 184.387 688.085 160.153C688.874 136.286 712.31 123.853 733.553 135.227C742.138 139.827 745.969 147.608 746.953 156.727C747.622 162.933 747.081 169.269 747.081 175.792Z" fill="black"/>
<path d="M229.492 243.771V262.14H0.312988V243.771H229.492Z" fill="#41BF47"/>
<path d="M958.328 133.23C965.181 133.23 971.299 133.045 977.385 133.402C978.466 133.466 979.946 135.636 980.341 137.079C984.682 152.924 988.841 168.82 993.064 184.697C993.436 186.097 993.925 187.465 994.68 189.87C999.345 172.17 1003.88 155.532 1008.04 138.801C1009.09 134.572 1010.66 132.595 1015.31 133.101C1019.55 133.559 1023.88 133.201 1028.9 133.201C1026.11 142.734 1023.54 151.587 1020.92 160.424C1015.87 177.446 1010.65 194.424 1005.8 211.501C1004.52 216.115 1003.82 220.87 1003.71 225.657C1003.41 236.928 1003.61 248.212 1003.61 259.857H983.614C983.614 257.039 983.432 254.111 983.643 251.212C985.243 229.202 981.821 208.056 974.491 187.198C968.4 169.841 963.866 151.939 958.328 133.23Z" fill="black"/>
<path d="M581 259.986H561.067V133.649H613.273V151.478H581.332V189.431H606.2V207.576H581V259.986Z" fill="black"/>
<path d="M459.243 151.777V133.654H520.65V151.721H500.083V259.863H480.193V151.777H459.243Z" fill="black"/>
<path d="M795.188 259.942H775.051V151.718H754.415V133.576H815.407V151.62H795.188V259.942Z" fill="black"/>
<path d="M549.078 259.952H529.658V133.546H549.078V259.952Z" fill="black"/>
<path d="M499.356 69.4869C491.693 64.6599 491.349 58.1369 493.256 48.7929C494.7 41.7209 502.414 38.1069 509.656 38.0569C519.05 37.9909 528.451 38.8329 537.856 39.2839C539.301 46.4719 539.048 46.9339 532.565 48.5449C532.823 51.7209 533.799 55.0739 533.218 58.1309C531.131 69.0999 523.946 71.7419 514.605 72.8309C513.455 72.9639 512.172 72.5539 511.135 72.9189C509.548 73.6017 508.017 74.4082 506.556 75.3309C508.139 76.1659 509.665 77.5669 511.315 77.7309C517.201 78.3309 523.248 77.8799 529.015 78.9749C540.144 81.0879 540.315 95.7519 534.922 101.857C527.05 110.772 516.489 110.77 505.922 110.388C502.84 110.163 499.805 109.505 496.906 108.433C492.006 106.801 489.069 103.411 488.495 98.0799C487.875 92.3269 490.008 88.1699 495.169 85.5379C495.886 85.1719 496.537 84.6769 497.222 84.2379C492.681 78.9859 493.331 73.6359 499.356 69.4869ZM514.126 89.8239C511.8 89.8239 509.252 89.2239 507.208 89.9849C504.914 90.9671 502.925 92.5466 501.448 94.5589C500.962 95.1889 502.148 97.8439 503.239 98.8119C507.139 102.261 520.115 101.195 523.454 97.2119C524.379 96.1119 525.397 93.9239 524.909 93.0599C523.895 91.5235 522.352 90.4126 520.573 89.9379C518.551 89.4149 516.286 89.8169 514.126 89.8239ZM519.498 55.4919C519.531 50.7689 516.417 46.9399 512.528 46.9219C508.639 46.9039 505.452 50.7939 505.515 55.4759C505.569 59.4869 509.015 63.7329 512.315 63.8519C516.22 63.9929 519.465 60.2149 519.5 55.4919H519.498Z" fill="#41BF47"/>
<path d="M436.215 63.6821C436.315 55.3561 438.322 47.8971 445.296 42.7691C453.141 37.0001 461.903 36.4381 470.843 39.7511C479.361 42.9071 483.293 49.6461 484.556 58.3411C485.707 66.2731 485.088 73.9001 480.512 80.6641C474.576 89.4391 465.323 90.8431 455.984 89.5731C446.768 88.3201 440.329 82.5061 437.66 73.3461C436.757 70.2471 436.673 66.9101 436.215 63.6821ZM451.159 63.8821L451.585 63.9451C451.44 65.761 451.458 67.5863 451.639 69.3991C452.439 73.6991 454.595 77.0991 459.287 77.7631C463.494 78.3631 467.325 77.381 468.938 72.897C471.157 66.73 471.364 60.5751 468.432 54.4261C466.776 50.9551 464.262 49.7191 460.604 49.8671C456.754 50.0231 453.866 51.7201 452.658 55.2791C451.734 58.0081 451.629 61.0091 451.159 63.8871V63.8821Z" fill="#41BF47"/>
<path d="M364.693 88.5569H351V23.9629H388.314V35.6629H364.975V51.8439H386.366V63.6909H364.693V88.5569Z" fill="#41BF47"/>
<path d="M305.937 94.811C307.837 94.811 309.557 94.492 311.104 94.867C317.118 96.323 320.735 91.684 320.704 85.932C320.591 67.326 320.662 48.719 320.662 30.112V24.322H335.379C335.468 25.585 335.637 26.859 335.638 28.134C335.655 47.239 335.982 66.354 335.433 85.443C335.282 90.674 333.705 96.73 330.655 100.829C324.501 109.101 315.32 109.006 305.941 106.492L305.937 94.811Z" fill="#41BF47"/>
<path d="M431.894 38.4821C431.394 42.9541 430.929 47.158 430.402 51.897C428.148 51.897 426.033 51.8541 423.921 51.9051C421.189 51.9487 418.582 53.0564 416.655 54.9927C414.727 56.9291 413.631 59.5411 413.6 62.2731C413.527 70.8891 413.581 79.5051 413.581 88.4631H398.881V39.4311C408.632 38.0391 408.632 38.039 412.081 45.993C417.02 39.793 423.074 36.5001 431.894 38.4821Z" fill="#41BF47"/>
<path d="M412.636 190.5V152.016C416.82 152.016 421.122 151.51 425.243 152.158C429.364 152.806 431.17 156.506 431.358 160.311C431.741 167.1 431.747 173.906 431.378 180.696C431.03 186.322 427.827 189.202 422.085 189.977C419.164 190.371 416.183 190.322 412.636 190.5Z" fill="white"/>
<path d="M914.47 152.209C914.915 151.946 915.046 151.809 915.186 151.795C931.386 150.573 934.011 153.021 933.986 169.445C934.034 172.752 933.908 176.06 933.608 179.354C932.798 186.872 930.122 189.48 922.574 190.183C919.989 190.423 917.362 190.221 914.474 190.221L914.47 152.209Z" fill="white"/>
<path d="M843.091 196.2C843.097 184.573 843.005 172.945 843.134 161.319C843.203 155.099 845.58 151.708 850.085 150.569C857.547 148.683 862.924 152.511 863.196 160.501C863.534 170.455 863.383 180.428 863.379 190.393C863.379 204.51 863.523 218.633 863.191 232.743C862.991 241.059 856.665 245.208 849.21 242.492C844.07 240.619 843.15 236.241 843.11 231.58C843.025 219.791 843.084 208 843.091 196.2Z" fill="white"/>
<path d="M348.238 161.073C351.127 180.292 354.017 199.511 356.979 219.217H338.3C341.191 199.798 344.077 180.413 346.957 161.061L348.238 161.073Z" fill="white"/>
<path d="M655.3 219.327C653.8 219.457 652.664 219.634 651.526 219.641C646.726 219.673 641.917 219.655 636.507 219.655C639.535 199.405 642.49 179.64 645.445 159.875L646.335 159.807L655.3 219.327Z" fill="white"/>
<path d="M514.126 89.8201C516.286 89.8201 518.551 89.4151 520.573 89.9421C522.352 90.4168 523.895 91.5277 524.909 93.0641C525.397 93.9281 524.379 96.1131 523.454 97.2161C520.115 101.195 507.141 102.261 503.239 98.816C502.145 97.848 500.962 95.193 501.448 94.563C502.924 92.5508 504.914 90.9713 507.208 89.9891C509.252 89.2281 511.8 89.8241 514.126 89.8201Z" fill="white"/>
<path d="M519.5 55.4919C519.467 60.2149 516.222 63.9919 512.32 63.8519C509.02 63.7329 505.571 59.4869 505.52 55.4759C505.457 50.7939 508.646 46.9049 512.533 46.9219C516.42 46.9389 519.531 50.7689 519.5 55.4919Z" fill="white"/>
<path d="M451.159 63.887C451.629 61.009 451.734 58.008 452.659 55.287C453.867 51.728 456.759 50.031 460.605 49.875C464.263 49.727 466.777 50.963 468.433 54.434C471.365 60.583 471.158 66.7341 468.939 72.9051C467.326 77.3891 463.495 78.368 459.288 77.771C454.596 77.105 452.436 73.703 451.64 69.407C451.459 67.5943 451.441 65.769 451.586 63.953L451.159 63.887Z" fill="white"/>
</svg>
