<svg width="237" height="41" viewBox="0 0 237 41" fill="none" xmlns="http://www.w3.org/2000/svg">
<g clip-path="url(#clip0_2_2)">
<path d="M63.96 22.5172H57.236C56.9774 22.5349 56.7178 22.5005 56.4727 22.416C56.2276 22.3315 56.0019 22.1986 55.8092 22.0252C55.6309 21.8385 55.4936 21.6166 55.406 21.3737C55.3185 21.1308 55.2826 20.8723 55.3008 20.6148C55.2777 20.3583 55.3064 20.0998 55.3853 19.8547C55.4642 19.6096 55.5916 19.3828 55.76 19.188C55.9484 19.0063 56.1725 18.8658 56.4182 18.7755C56.6638 18.6851 56.9256 18.6469 57.1868 18.6632H71.2744V11.3816H54.5628C53.3229 11.2993 52.0791 11.469 50.9065 11.8805C49.734 12.292 48.6569 12.9368 47.7404 13.776C46.9012 14.6925 46.2564 15.7696 45.8449 16.9421C45.4334 18.1147 45.2637 19.3585 45.346 20.5984C45.2669 21.8356 45.4381 23.076 45.8496 24.2454C46.261 25.4149 46.9041 26.4893 47.7404 27.4044C48.6561 28.2457 49.7327 28.893 50.9051 29.3073C52.0776 29.7216 53.3218 29.8944 54.5628 29.8152H61.2376C61.4985 29.8018 61.7595 29.8414 62.0047 29.9316C62.2499 30.0218 62.4743 30.1607 62.6644 30.34C62.8482 30.5303 62.9899 30.7571 63.0803 31.0058C63.1708 31.2544 63.2078 31.5193 63.1892 31.7832C63.2084 32.0422 63.1715 32.3023 63.0809 32.5457C62.9903 32.7892 62.8483 33.0101 62.6644 33.1936C62.4735 33.3707 62.2486 33.5071 62.0033 33.5945C61.758 33.6819 61.4975 33.7185 61.2376 33.702H45.0672V41H63.96C65.2023 41.0789 66.4477 40.9044 67.6205 40.4872C68.7933 40.0699 69.8691 39.4186 70.7824 38.5728C71.6273 37.6655 72.2783 36.5955 72.6956 35.4281C73.113 34.2607 73.2878 33.0205 73.2096 31.7832C73.2908 30.5382 73.1174 29.2897 72.7001 28.1139C72.2828 26.9381 71.6303 25.8597 70.7824 24.9444C69.8669 24.1018 68.7909 23.4525 67.6186 23.0354C66.4463 22.6184 65.202 22.4421 63.96 22.5172Z" fill="#EB6C34"/>
<path d="M91.3643 33.1116C90.9089 32.5245 90.6974 31.7843 90.7739 31.0452V18.6632H99.8759V11.3816H90.7739V3.46039H80.9339V11.3816H76.8011V18.6632H80.9339V31.5536C80.9049 33.0285 81.0703 34.5007 81.4259 35.9324C81.7083 37.0368 82.2735 38.0486 83.0659 38.868C83.8807 39.6667 84.8942 40.2329 86.0015 40.508C87.4308 40.878 88.9043 41.0491 90.3803 41.0164H100.04V33.702H93.4799C92.7246 33.7899 91.965 33.5779 91.3643 33.1116Z" fill="#EB6C34"/>
<path d="M159.08 14.3336C157.997 13.2868 156.673 12.5211 155.226 12.1032C153.414 11.5842 151.534 11.3409 149.65 11.3816H133.66V18.6632H149.24C150.087 18.5777 150.934 18.8247 151.602 19.352C152.125 20.0158 152.372 20.8559 152.29 21.6972V22.0416H141.04C139.759 21.9556 138.475 22.1291 137.263 22.5518C136.051 22.9746 134.937 23.6377 133.988 24.5016C133.129 25.4501 132.47 26.562 132.05 27.7707C131.63 28.9795 131.458 30.2605 131.544 31.5372C131.462 32.8111 131.635 34.0887 132.055 35.2944C132.475 36.5001 133.132 37.6093 133.988 38.5564C134.941 39.4142 136.055 40.0723 137.267 40.492C138.478 40.9117 139.761 41.0845 141.04 41H162.098V23.7472C162.136 21.8619 161.887 19.9817 161.36 18.1712C160.923 16.7256 160.141 15.4083 159.08 14.3336ZM152.372 33.8168H143.861C143.258 33.8414 142.67 33.6296 142.221 33.2264C142.014 33.0085 141.853 32.7508 141.749 32.4688C141.644 32.1869 141.599 31.8866 141.614 31.5864C141.591 31.273 141.633 30.9583 141.737 30.662C141.842 30.3657 142.006 30.0941 142.221 29.8644C142.67 29.4612 143.258 29.2493 143.861 29.274H152.372V33.8168Z" fill="#EB6C34"/>
<path d="M104.96 20.664V41H114.8V22.058C114.8 19.6308 115.653 18.6632 117.26 18.6632H128.182V11.3816H114.275C113.053 11.3773 111.843 11.6142 110.713 12.0787C109.583 12.5433 108.556 13.2263 107.69 14.0887C106.825 14.9511 106.138 15.9758 105.67 17.1042C105.201 18.2325 104.96 19.4422 104.96 20.664Z" fill="#EB6C34"/>
<path d="M13.3004 5.4284L0 41H11.0536L21.1068 10.25L31.16 41H42.2136L28.9132 5.4284C28.3198 3.83672 27.2541 2.46445 25.8588 1.49553C24.4636 0.526613 22.8055 0.00735474 21.1068 0.00735474C19.4081 0.00735474 17.75 0.526613 16.3548 1.49553C14.9595 2.46445 13.8938 3.83672 13.3004 5.4284Z" fill="#EB6C34"/>
<path d="M192.306 11.48H180.4V41H192.339C197.095 41 200.621 39.8028 202.917 37.4084C205.213 35.014 206.361 31.2912 206.361 26.2072C206.361 21.1232 205.213 17.4004 202.917 15.006C200.621 12.6116 197.062 11.48 192.306 11.48ZM200.752 31.16C200.482 32.3709 199.919 33.4971 199.112 34.44C198.277 35.3396 197.211 35.9921 196.029 36.326C194.517 36.767 192.946 36.9717 191.372 36.9328H185.222V15.58H191.372C192.945 15.5446 194.515 15.7436 196.029 16.1704C197.185 16.5201 198.231 17.1644 199.063 18.04C199.873 18.9807 200.437 20.1077 200.703 21.32C201.076 22.9326 201.247 24.5853 201.212 26.24C201.263 27.8927 201.109 29.5454 200.752 31.16Z" fill="#EB6C34"/>
<path d="M236.16 29.7824C235.842 28.9566 235.369 28.1995 234.766 27.552C234.233 26.9913 233.591 26.5449 232.88 26.24C232.286 25.9633 231.657 25.7702 231.01 25.666C231.25 25.6163 231.485 25.5505 231.716 25.4692C232.028 25.3546 232.33 25.2119 232.618 25.0428C233.408 24.5732 234.064 23.9064 234.52 23.1076C234.801 22.5878 235.021 22.0375 235.176 21.4676C235.351 20.7317 235.433 19.977 235.422 19.2208C235.448 18.0644 235.259 16.9132 234.864 15.826C234.505 14.9095 233.945 14.0856 233.224 13.4152C232.481 12.7495 231.603 12.2517 230.65 11.9556C229.533 11.6195 228.371 11.4591 227.206 11.48H212.282V41H227.96C229.202 41.0178 230.44 40.852 231.634 40.508C232.639 40.2201 233.573 39.7227 234.372 39.0484C235.136 38.3792 235.727 37.5352 236.094 36.5884C236.495 35.4795 236.689 34.3068 236.668 33.128C236.711 31.9907 236.538 30.8557 236.16 29.7824ZM217.087 15.5308H226.09C227.27 15.4219 228.446 15.7746 229.37 16.5148C229.755 16.9281 230.049 17.4175 230.232 17.9514C230.416 18.4854 230.485 19.0519 230.436 19.6144C230.492 20.1873 230.425 20.7654 230.242 21.3109C230.058 21.8564 229.761 22.3569 229.37 22.7796C228.44 23.5078 227.267 23.8539 226.09 23.7472H217.087V15.5308ZM230.42 35.8176C229.457 36.6036 228.233 36.9962 226.992 36.9164H217.152V27.88H226.992C228.237 27.784 229.47 28.185 230.42 28.9952C230.835 29.4581 231.151 30.0009 231.348 30.5903C231.546 31.1798 231.62 31.8034 231.568 32.4228C231.619 33.037 231.543 33.6552 231.346 34.2391C231.148 34.823 230.833 35.3602 230.42 35.8176Z" fill="#EB6C34"/>
</g>
<defs>
<clipPath id="clip0_2_2">
<rect width="237" height="41" fill="white"/>
</clipPath>
</defs>
</svg>
