<?xml version="1.0" encoding="UTF-8"?><svg id="Layout" xmlns="http://www.w3.org/2000/svg" viewBox="0 0 527.8 158.32"><g><path d="M137.47,99.63l15.49-40.6h5.97l15.43,40.6h-5.39l-4.29-10.96h-17.69l-4.29,10.96h-5.22Zm11.02-15.54h14.67l-7.37-19.55-7.31,19.55Z"/><path d="M196.76,70.05h4.76v29.58h-4.12l-.64-3.94c-1.74,2.2-4.58,4.29-9.45,4.29-6.5,0-11.66-3.65-11.66-13.46v-16.47h4.76v16.18c0,6.15,2.78,9.4,7.71,9.4,5.39,0,8.64-4.12,8.64-10.79v-14.79Z"/><path d="M209.14,74.4h-5.34v-4.35h5.34v-8.29h4.76v8.29h7.66v4.35h-7.66v17.46c0,2.49,.87,3.42,3.42,3.42h4.7v4.35h-5.16c-5.68,0-7.71-2.49-7.71-7.71v-17.52Z"/><path d="M251.11,83.16v16.47h-4.76v-16.18c0-6.15-2.96-9.4-8.06-9.4-5.51,0-8.93,4.12-8.93,10.79v14.79h-4.76V59.03h4.76v15.89c1.74-2.78,4.76-5.22,9.74-5.22,6.61,0,12,3.65,12,13.46Z"/><path d="M254.42,78.4c0-11.54,6.26-19.72,15.43-19.72s15.37,8.18,15.37,19.72v1.86c0,12.12-6.26,19.72-15.37,19.72s-15.43-7.6-15.43-19.72v-1.86Zm25.87,.17c0-9.63-4.18-15.43-10.44-15.43s-10.5,5.8-10.5,15.43v1.51c0,9.63,4.18,15.43,10.5,15.43s10.44-5.8,10.44-15.43v-1.51Z"/><path d="M333.53,84.84c0,9.05-6.03,15.14-14.21,15.14-4.99,0-8.35-2.03-10.15-4.87l-.64,4.52h-4.12V59.03h4.76v15.78c1.97-2.73,5.16-5.1,10.15-5.1,8.18,0,14.21,5.51,14.21,15.14Zm-4.87,0c0-6.44-3.94-10.9-9.8-10.9s-9.74,4.47-9.74,10.79,3.94,11.02,9.74,11.02,9.8-4.47,9.8-10.9Z"/><path d="M333.35,70.05h5.05l9.11,23.61,8.82-23.61h5.05l-13.63,34.57c-1.86,4.76-2.96,6.61-7.13,6.61h-5.68v-4.35h4.23c2.73,0,3.19-.7,4.29-3.48l1.45-3.6-11.54-29.75Z"/><path d="M396.92,99.98c-11.43,0-19.37-8.7-19.37-20.65s7.95-20.65,19.37-20.65,19.37,8.7,19.37,20.65-7.95,20.65-19.37,20.65Zm0-4.64c8.47,0,14.21-6.67,14.21-16.01s-5.74-16.01-14.21-16.01-14.21,6.67-14.21,16.01,5.74,16.01,14.21,16.01Z"/><path d="M419.94,59.03h4.76v26.74l14.85-15.72h5.86l-11.54,12.24,12.35,17.34h-5.74l-9.8-13.92-5.97,6.15v7.77h-4.76V59.03Z"/><path d="M451.95,74.4h-5.34v-4.35h5.34v-8.29h4.76v8.29h7.66v4.35h-7.66v17.46c0,2.49,.87,3.42,3.42,3.42h4.7v4.35h-5.16c-5.68,0-7.71-2.49-7.71-7.71v-17.52Z"/><path d="M495.37,95.28v4.35h-2.61c-3.94,0-5.28-1.68-5.34-4.58-1.86,2.67-4.81,4.93-9.92,4.93-6.5,0-10.9-3.25-10.9-8.64,0-5.92,4.12-9.22,11.89-9.22h8.7v-2.03c0-3.83-2.73-6.15-7.37-6.15-4.18,0-6.96,1.97-7.54,4.99h-4.76c.7-5.8,5.39-9.22,12.53-9.22,7.54,0,11.89,3.77,11.89,10.67v12.93c0,1.57,.58,1.97,1.91,1.97h1.51Zm-8.18-9.16h-9.16c-4.23,0-6.61,1.57-6.61,4.93,0,2.9,2.49,4.87,6.44,4.87,5.92,0,9.34-3.42,9.34-8.35v-1.45Z"/></g><g><path d="M34.66,72.6c16.33-2.69,29.12-16.19,31.81-32.51l.9-7.85c.22-1.25-.62-2.98-2.2-2.86-12.34,.96-23.97,5.03-30.46,7.68-3.21,1.31-5.31,4.44-5.31,7.91v25.6c0,1.52,1.36,2.67,2.86,2.43l2.4-.39Z"/><path d="M74.34,40.08c2.69,16.33,15.48,29.82,31.81,32.51l2.4,.39c1.5,.25,2.86-.91,2.86-2.43v-25.6c0-3.47-2.1-6.59-5.31-7.91-6.48-2.65-18.12-6.72-30.46-7.68-1.58-.12-2.4,1.63-2.21,2.86l.9,7.85Z"/><path d="M106.14,79.76c-22.31,4.4-32.67,19.23-32.67,47.31,0,1.41,1.4,2.38,2.57,1.6,10.26-6.92,32.84-24.98,35.17-47.58,.09-2.85-3.47-1.51-5.07-1.33Z"/><path d="M34.67,79.76c22.31,4.4,32.67,19.23,32.67,47.31,0,1.41-1.4,2.38-2.57,1.6-10.26-6.92-32.84-24.98-35.17-47.58-.09-2.85,3.47-1.51,5.07-1.33Z"/></g></svg>