<svg width="44" height="44" viewBox="0 0 44 44" fill="none" xmlns="http://www.w3.org/2000/svg">
<path fill-rule="evenodd" clip-rule="evenodd" d="M35.006 30.082C30.415 30.082 28.048 28.609 28.048 27.981V24.451C29.777 25.394 32.398 25.881 35.006 25.881C37.615 25.881 40.235 25.394 41.964 24.451V27.981C41.964 28.609 39.597 30.082 35.006 30.082ZM35.006 36.174C30.415 36.174 28.048 34.701 28.048 34.073V30.652C29.777 31.595 32.398 32.082 35.006 32.082C37.615 32.082 40.235 31.595 41.964 30.652V34.073C41.964 34.701 39.597 36.174 35.006 36.174ZM35.006 41.613C30.415 41.613 28.048 40.141 28.048 39.513V36.744C29.777 37.686 32.398 38.174 35.006 38.174C37.615 38.174 40.235 37.686 41.964 36.744V39.513C41.964 40.141 39.597 41.613 35.006 41.613ZM35.006 19.68C39.596 19.68 41.964 21.152 41.964 21.78C41.964 22.408 39.597 23.881 35.006 23.881C30.415 23.881 28.048 22.408 28.048 21.78C28.048 21.152 30.415 19.68 35.006 19.68ZM35.006 17.68C30.555 17.68 26.048 19.088 26.048 21.78V39.513C26.048 42.205 30.555 43.613 35.006 43.613C39.456 43.613 43.964 42.205 43.964 39.513V21.78C43.964 19.088 39.457 17.68 35.006 17.68ZM5.75 41.853H25.414V43.853H5.75C4.22549 43.8514 2.76388 43.2451 1.68589 42.1671C0.6079 41.0891 0.00158831 39.6275 0 38.103V5.751C0.00158783 4.2264 0.607868 2.76469 1.68583 1.68654C2.76379 0.608387 4.2254 0.00185295 5.75 0H38.104C41.274 0 43.854 2.58 43.854 5.751V18.439H41.854V5.751C41.8529 4.75667 41.4575 3.80336 40.7545 3.10016C40.0515 2.39697 39.0983 2.00132 38.104 2H5.75C4.75567 2.00132 3.80246 2.39697 3.09946 3.10016C2.39645 3.80336 2.00106 4.75667 2 5.751V38.103C2.00132 39.0972 2.39684 40.0502 3.09981 40.7532C3.80279 41.4562 4.75584 41.8517 5.75 41.853V41.853ZM38.629 5.805V11.141H40.826V11.848H37.783V5.805H38.629ZM34.329 11.263C33.859 11.263 33.505 11.059 33.267 10.648C33.027 10.238 32.909 9.633 32.909 8.83C32.909 8.028 33.028 7.424 33.267 7.017C33.505 6.61 33.86 6.406 34.33 6.406C34.8 6.406 35.155 6.61 35.395 7.017C35.632 7.424 35.751 8.028 35.751 8.83C35.751 9.633 35.631 10.238 35.395 10.648C35.155 11.059 34.801 11.263 34.33 11.263H34.329ZM36.196 10.857C36.475 10.331 36.614 9.656 36.614 8.83C36.614 7.836 36.414 7.064 36.013 6.515C35.612 5.966 35.051 5.691 34.33 5.691C33.61 5.691 33.049 5.966 32.648 6.515C32.246 7.064 32.046 7.836 32.046 8.83C32.046 9.464 32.129 10.013 32.294 10.478C32.46 10.943 32.704 11.304 33.031 11.56C33.357 11.815 33.749 11.954 34.208 11.978C34.54 12.339 34.902 12.626 35.298 12.842C35.6877 13.0551 36.1136 13.1938 36.554 13.251V12.51C36.2704 12.4799 35.992 12.4127 35.726 12.31C35.476 12.21 35.235 12.068 35.002 11.882C35.519 11.725 35.917 11.384 36.196 10.857V10.857ZM30.096 10.993C30.275 10.818 30.363 10.577 30.363 10.269C30.363 9.851 30.131 9.522 29.666 9.284L29.046 8.97C28.656 8.772 28.375 8.546 28.2 8.29C28.027 8.034 27.939 7.72 27.939 7.348C27.939 6.854 28.093 6.454 28.402 6.149C28.709 5.844 29.112 5.691 29.612 5.691C30.002 5.691 30.439 5.796 30.921 6.005V6.686C30.53 6.50607 30.1044 6.41359 29.674 6.415C29.401 6.415 29.184 6.495 29.024 6.654C28.864 6.814 28.784 7.031 28.784 7.305C28.784 7.52 28.84 7.702 28.95 7.853C29.06 8.005 29.244 8.147 29.5 8.281L30.118 8.595C30.497 8.787 30.775 9.014 30.951 9.274C31.129 9.537 31.218 9.851 31.218 10.217C31.218 10.746 31.052 11.172 30.721 11.494C30.389 11.816 29.947 11.978 29.396 11.978C29.1356 11.9786 28.8761 11.9481 28.623 11.887C28.3966 11.8339 28.1804 11.744 27.983 11.621V10.949C28.459 11.153 28.921 11.254 29.369 11.254C29.677 11.254 29.919 11.167 30.097 10.993H30.096ZM25.074 8.268C25.1394 8.16217 25.2315 8.07542 25.341 8.01644C25.4505 7.95746 25.5737 7.92834 25.698 7.932C25.937 7.932 26.113 8.02 26.23 8.198C26.346 8.376 26.404 8.65 26.404 9.021C26.404 9.062 26.402 9.103 26.4 9.145C26.3973 9.1826 26.3959 9.2203 26.396 9.258H24.826C24.844 8.821 24.926 8.492 25.074 8.268V8.268ZM27.05 11.027C26.649 11.208 26.282 11.298 25.95 11.298C25.562 11.298 25.277 11.182 25.1 10.949C24.923 10.717 24.832 10.339 24.826 9.815H27.059C27.105 9.595 27.128 9.353 27.128 9.092C27.128 8.505 27.01 8.061 26.775 7.758C26.539 7.456 26.192 7.305 25.733 7.305C25.193 7.305 24.777 7.505 24.486 7.906C24.195 8.307 24.05 8.883 24.05 9.633C24.05 10.417 24.195 11.001 24.486 11.386C24.776 11.769 25.218 11.961 25.812 11.961C26.282 11.961 26.694 11.851 27.05 11.629V11.027V11.027ZM22.799 7.526C22.969 7.436 23.166 7.392 23.387 7.392C23.481 7.392 23.573 7.4 23.666 7.418V8.177C23.5363 8.15617 23.4053 8.14448 23.274 8.142C22.943 8.142 22.641 8.249 22.367 8.464V11.848H21.547V7.427H22.227L22.306 7.958C22.463 7.761 22.626 7.617 22.799 7.526ZM18.809 11.089C18.6764 11.0945 18.5451 11.0615 18.4309 10.9941C18.3166 10.9267 18.2243 10.8277 18.165 10.709C18.025 10.456 17.955 10.068 17.955 9.545C17.955 9.011 18.021 8.616 18.152 8.363C18.2052 8.24583 18.2921 8.14719 18.4017 8.07967C18.5112 8.01216 18.6384 7.97885 18.767 7.984C19.027 7.984 19.295 8.089 19.567 8.299V10.757C19.301 10.978 19.047 11.089 18.81 11.089H18.809ZM19.342 12.736C19.191 12.958 18.935 13.067 18.574 13.067C18.243 13.067 17.86 12.978 17.424 12.798V13.426C17.796 13.641 18.202 13.748 18.644 13.748C19.801 13.748 20.38 13.03 20.38 11.595V7.427H19.699L19.639 7.784C19.301 7.47 18.949 7.313 18.583 7.313C18.142 7.313 17.79 7.517 17.528 7.924C17.267 8.33 17.136 8.88 17.136 9.571C17.136 10.008 17.193 10.39 17.306 10.718C17.419 11.046 17.583 11.303 17.799 11.485C18.014 11.668 18.269 11.76 18.566 11.76C18.914 11.76 19.249 11.612 19.568 11.315V11.638C19.568 12.149 19.492 12.516 19.342 12.736ZM14.694 10.687V8.089H14.074V7.549L14.73 7.444L14.85 6.188H15.514V7.427H16.526V8.089H15.514V10.627C15.514 10.848 15.55 11.003 15.623 11.093C15.695 11.183 15.825 11.228 16.011 11.228C16.191 11.228 16.368 11.199 16.543 11.141V11.742C16.293 11.848 16.028 11.899 15.749 11.899C15.389 11.899 15.123 11.801 14.951 11.603C14.78 11.405 14.694 11.101 14.694 10.687V10.687ZM12.86 11.145C12.978 11.032 13.038 10.87 13.038 10.661C13.038 10.411 12.878 10.208 12.558 10.051L11.991 9.772C11.468 9.517 11.207 9.115 11.207 8.569C11.207 8.197 11.329 7.895 11.572 7.662C11.817 7.43 12.134 7.313 12.524 7.313C12.89 7.313 13.241 7.406 13.578 7.593V8.185C13.2707 8.03672 12.9342 7.95915 12.593 7.958C12.396 7.958 12.238 8.011 12.122 8.115C12.0635 8.16933 12.0177 8.23579 11.9876 8.30973C11.9575 8.38367 11.944 8.46329 11.948 8.543C11.948 8.688 11.987 8.81 12.066 8.909C12.144 9.008 12.276 9.103 12.462 9.196L12.994 9.458C13.268 9.592 13.466 9.752 13.591 9.937C13.717 10.124 13.778 10.353 13.778 10.627C13.778 11.027 13.654 11.351 13.404 11.595C13.154 11.839 12.819 11.961 12.402 11.961C11.952 11.961 11.547 11.853 11.181 11.638V11.045C11.634 11.226 12.027 11.315 12.358 11.315C12.572 11.315 12.738 11.259 12.86 11.145ZM9.48 10.893C9.41953 11.0183 9.32388 11.1234 9.20473 11.1953C9.08559 11.2672 8.94808 11.3029 8.809 11.298C8.66982 11.3034 8.53211 11.2679 8.41286 11.196C8.29362 11.124 8.19806 11.0187 8.138 10.893C7.992 10.622 7.918 10.202 7.918 9.633C7.918 9.062 7.992 8.645 8.138 8.377C8.19858 8.25224 8.29422 8.14785 8.41323 8.07663C8.53223 8.00541 8.66942 7.97044 8.808 7.976C9.111 7.976 9.335 8.109 9.481 8.377C9.625 8.645 9.698 9.062 9.698 9.633C9.698 10.202 9.625 10.622 9.481 10.893H9.48ZM8.809 7.313C8.257 7.313 7.834 7.514 7.539 7.915C7.247 8.316 7.099 8.889 7.099 9.633C7.099 10.382 7.247 10.958 7.539 11.358C7.834 11.76 8.257 11.961 8.809 11.961C9.361 11.961 9.784 11.76 10.077 11.358C10.371 10.958 10.517 10.382 10.517 9.633C10.517 8.889 10.371 8.316 10.077 7.915C9.784 7.514 9.361 7.313 8.809 7.313ZM5.352 8.517C5.27935 8.61809 5.18278 8.6996 5.07092 8.75422C4.95905 8.80884 4.83539 8.83488 4.711 8.83H3.848V6.476H4.711C4.984 6.476 5.197 6.579 5.351 6.785C5.506 6.992 5.583 7.281 5.583 7.653C5.583 8.02 5.506 8.307 5.352 8.517V8.517ZM5.657 6.04C5.39886 5.88068 5.10029 5.7991 4.797 5.805H3.027V11.848H3.847V9.502H4.797C5.28 9.502 5.671 9.333 5.971 8.996C6.27 8.659 6.42 8.211 6.42 7.653C6.42 7.293 6.355 6.974 6.224 6.694C6.10228 6.42572 5.90531 6.19853 5.657 6.04V6.04Z" fill="#2E27AD"/>
</svg>
