<svg width="44" height="43" viewBox="0 0 44 43" fill="none" xmlns="http://www.w3.org/2000/svg">
<path fill-rule="evenodd" clip-rule="evenodd" d="M33.969 4.575C32.7001 4.33411 31.4212 4.14893 30.136 4.02C27.756 2.977 23.443 2 17.406 2C6.716 2 2.075 4.812 2.007 5.741L2.029 5.891C2.234 6.421 3.678 7.399 7.318 8.129C6.803 8.67 6.428 9.271 6.237 9.941C4.825 9.625 3.49 9.217 2.419 8.683L5.843 33.141C5.849 33.187 5.853 33.234 5.853 33.281C5.893 33.437 6.546 34.121 8.871 34.759L9.169 36.889C5.712 36.083 3.914 34.899 3.854 33.361L0.0680001 6.314C0.0550001 6.262 0.0539999 6.204 0.0439999 6.15L0.00999999 5.902L0.00399995 5.854C0.00199995 5.807 0 5.811 0 5.764C0 2.02 8.969 0 17.407 0C24.865 0 32.387 1.57 33.969 4.575ZM39.898 25.98L40.032 24.963C41.031 25.573 41.525 25.994 41.765 26.253C41.447 26.265 40.865 26.211 39.898 25.98ZM36.237 38.405C36.2313 38.4447 36.2286 38.4849 36.229 38.525C36.199 38.638 35.834 39.076 34.574 39.568C33.944 39.814 33.198 40.036 32.357 40.228C30.177 40.725 27.505 41 24.829 41C17.723 41 13.619 39.264 13.434 38.537C13.4337 38.4905 13.4304 38.4441 13.424 38.398L10 13.945C13.31 15.606 19.468 16.255 24.989 16.255C30.315 16.255 36.248 15.611 39.468 13.97L37.951 25.43C34.084 24.203 29.03 21.924 26.751 20.863C26.678 20.4151 26.4483 20.0077 26.1029 19.7134C25.7575 19.4191 25.3188 19.257 24.865 19.256C24.3565 19.2565 23.8689 19.4588 23.5094 19.8184C23.1498 20.1779 22.9475 20.6655 22.947 21.174C22.9478 21.6823 23.1502 22.1696 23.5097 22.529C23.8693 22.8884 24.3567 23.0905 24.865 23.091C25.288 23.091 25.675 22.949 25.993 22.717C28.686 23.97 33.775 26.244 37.686 27.445L36.236 38.405H36.237ZM24.99 7.257C34.562 7.257 39.803 9.714 39.863 10.997L39.85 11.09C39.664 12.262 34.707 14.254 24.99 14.254C15.073 14.254 9.805 12.232 9.602 11.09L9.589 10.997C9.657 10.068 14.297 7.257 24.989 7.257H24.99ZM43.955 26.188C43.764 25.16 42.655 24.138 40.315 22.815L41.859 11.151C41.862 11.107 41.867 11.065 41.867 11.021C41.867 7.236 33.377 5.257 24.99 5.257C16.55 5.257 7.582 7.277 7.582 11.02C7.582 11.067 7.581 11.068 7.584 11.115L7.592 11.159L11.435 38.619C11.568 41.83 19.49 43 24.829 43C27.651 43 30.483 42.708 32.801 42.178C33.6518 41.9911 34.4874 41.7411 35.301 41.43C37.2 40.69 38.184 39.741 38.226 38.613L39.634 27.97C40.452 28.154 41.141 28.251 41.706 28.251C42.598 28.251 43.2 28.022 43.59 27.562C43.918 27.176 44.048 26.687 43.955 26.188V26.188Z" fill="#3F8624"/>
</svg>
