<svg width="18" height="14" viewBox="0 0 18 14" fill="none" xmlns="http://www.w3.org/2000/svg">
<path d="M14.49 5.15017C14.4479 3.79519 13.8729 2.51153 12.8899 1.57798C11.9069 0.644436 10.5954 0.136385 9.24 0.164168C8.14377 0.151166 7.07075 0.480236 6.17028 1.10558C5.26982 1.73092 4.5867 2.62143 4.216 3.65317C3.06161 3.80925 2.00143 4.37403 1.22788 5.245C0.454335 6.11598 0.0186847 7.23542 0 8.40017C0.0345673 9.71031 0.587712 10.9532 1.53795 11.8558C2.48818 12.7584 3.75782 13.247 5.068 13.2142H13.82C14.9042 13.1871 15.9379 12.7506 16.7134 11.9924C17.4889 11.2341 17.9485 10.2105 18 9.12717C17.9799 8.15618 17.6163 7.22376 16.9736 6.49561C16.331 5.76745 15.451 5.29073 14.49 5.15017V5.15017Z" fill="url(#paint0_linear)"/>
<path d="M12.9 9.40054V6.00054H12V10.1305H14.46V9.40054H12.9ZM5.76001 7.73054C5.57415 7.6559 5.40185 7.55116 5.25001 7.42054C5.20972 7.37787 5.17836 7.32759 5.15775 7.27264C5.13715 7.21769 5.12772 7.15919 5.13001 7.10055C5.12714 7.04187 5.13944 6.98344 5.16571 6.93089C5.19198 6.87835 5.23135 6.83346 5.28001 6.80055C5.4031 6.71565 5.55065 6.67349 5.70001 6.68055C6.05617 6.66454 6.40767 6.76647 6.70001 6.97055V6.11054C6.38052 5.99167 6.04064 5.93729 5.70001 5.95054C5.30769 5.92975 4.92093 6.05039 4.61001 6.29054C4.47451 6.39502 4.36577 6.53019 4.29275 6.68493C4.21973 6.83966 4.18451 7.00953 4.19001 7.18055C4.19001 7.69055 4.51001 8.09055 5.19001 8.39055C5.41074 8.4845 5.61899 8.60542 5.81001 8.75055C5.85681 8.78974 5.89449 8.83868 5.9204 8.89396C5.94631 8.94923 5.95983 9.0095 5.96001 9.07054C5.95995 9.13122 5.94541 9.19101 5.91758 9.24493C5.88975 9.29885 5.84944 9.34535 5.80001 9.38055C5.66401 9.46046 5.50754 9.4987 5.35001 9.49054C4.94779 9.48723 4.56046 9.33798 4.26001 9.07054V10.0005C4.59029 10.1707 4.95869 10.2533 5.33001 10.2405C5.74918 10.2656 6.16467 10.1494 6.51001 9.91054C6.63202 9.79499 6.72538 9.65256 6.78267 9.49459C6.83996 9.33661 6.85959 9.16744 6.84001 9.00055C6.845 8.7445 6.75607 8.4955 6.59001 8.30055C6.35627 8.05457 6.07351 7.86038 5.76001 7.73054V7.73054ZM11 9.32054C11.2172 8.9726 11.3323 8.57069 11.3323 8.16054C11.3323 7.7504 11.2172 7.34849 11 7.00054C10.844 6.6882 10.6009 6.42771 10.3 6.25054C9.99521 6.07778 9.65036 5.98813 9.30001 5.99054C8.92234 5.98234 8.54939 6.07558 8.22001 6.26055C7.91116 6.43265 7.65789 6.68938 7.49001 7.00054C7.31317 7.35419 7.22399 7.74519 7.23001 8.14055C7.23196 8.48791 7.31409 8.83013 7.47001 9.14055C7.62292 9.44923 7.86276 9.70645 8.16001 9.88055C8.46198 10.0649 8.80642 10.1683 9.16001 10.1805L10.02 11.1805H11.23L10 10.0805C10.4142 9.95632 10.7694 9.68635 11 9.32054V9.32054ZM10 9.07054C9.90891 9.18355 9.7929 9.27394 9.66105 9.33466C9.52921 9.39538 9.3851 9.42477 9.24001 9.42055C9.09379 9.4256 8.94848 9.39555 8.81626 9.33291C8.68403 9.27028 8.56873 9.17689 8.48001 9.06055C8.26887 8.77163 8.1662 8.4176 8.19001 8.06055C8.16671 7.70355 8.26933 7.34969 8.48001 7.06055C8.57413 6.94452 8.69305 6.85107 8.82803 6.78704C8.96301 6.72301 9.11062 6.69004 9.26001 6.69054C9.40605 6.68416 9.55135 6.71472 9.68245 6.77939C9.81354 6.84407 9.92621 6.94077 10.01 7.06055C10.2071 7.35532 10.3019 7.70664 10.28 8.06055C10.315 8.42027 10.2152 8.78018 10 9.07054V9.07054Z" fill="#F2F2F2"/>
<defs>
<linearGradient id="paint0_linear" x1="9.908" y1="13.9432" x2="7.516" y2="0.383168" gradientUnits="userSpaceOnUse">
<stop offset="0.15" stop-color="#0078D4"/>
<stop offset="0.8" stop-color="#5EA0EF"/>
<stop offset="1" stop-color="#83B9F9"/>
</linearGradient>
</defs>
</svg>
