<svg width="259" height="74" viewBox="0 0 259 74" fill="none" xmlns="http://www.w3.org/2000/svg">
<path d="M34.9988 70.4218C33.2741 70.4009 31.6584 69.7092 30.4567 68.4737L2.26132 39.5855C1.07343 38.3683 0.404892 36.6983 0.425576 34.9974C0.446243 33.2979 1.15522 31.6432 2.37234 30.4568L31.2619 2.26276C32.4961 1.05688 34.1253 0.404643 35.85 0.425616C37.5733 0.446573 39.1876 1.13825 40.3921 2.37379L68.5833 31.2619C69.7906 32.4919 70.4414 34.1225 70.4204 35.8486C70.3994 37.5747 69.7091 39.189 68.4708 40.3934L39.5869 68.5847C38.3541 69.7906 36.7221 70.4428 34.9988 70.4218Z" fill="#59B4D9"/>
<path d="M54.5477 30.1854C51.5239 30.1486 49.0443 32.5686 49.0076 35.591C48.9941 36.6997 49.3162 37.7327 49.874 38.602L38.9014 49.3109C38.6155 49.1058 38.3081 48.9341 37.9894 48.7776L38.3258 21.1198C39.9709 20.1934 41.1037 18.4598 41.1283 16.4356C41.1651 13.4132 38.7451 10.9336 35.7213 10.8968C32.7003 10.8601 30.2207 13.2801 30.1839 16.3025C30.1593 18.3267 31.2496 20.0873 32.8704 21.0535L32.534 48.7099C32.2257 48.8517 31.9228 49.0049 31.6433 49.1933L20.9219 38.2079C21.4838 37.3607 21.8237 36.3525 21.837 35.2606C21.8737 32.2382 19.4537 29.7586 16.4327 29.7219C13.409 29.6851 10.9293 32.1051 10.8926 35.1275C10.8558 38.1499 13.2759 40.6295 16.2996 40.6663C16.9268 40.6739 17.5219 40.5537 18.087 40.366L29.3574 51.9139C29.0205 52.677 28.8283 53.5176 28.8175 54.4037C28.7747 57.9216 31.593 60.8093 35.111 60.8521C38.6303 60.8949 41.5166 58.0766 41.5594 54.5586C41.57 53.6893 41.4036 52.8598 41.0978 52.1014L52.6783 40.8006C53.2248 40.9921 53.8001 41.1223 54.4118 41.1297C57.4328 41.1665 59.9124 38.7464 59.9492 35.7241C59.9859 32.7017 57.5673 30.2221 54.5477 30.1854Z" fill="white"/>
<path opacity="0.5" d="M54.554 38.1307L57.0814 35.6632L36.8609 14.9507L34.3334 17.4181L54.554 38.1307Z" fill="white"/>
<path opacity="0.5" d="M36.9718 17.467L34.5038 14.9382L13.7874 35.1568L16.2555 37.6856L36.9718 17.467Z" fill="white"/>
<path d="M38.922 54.5266C38.8965 56.6208 37.1764 58.2982 35.0821 58.2728C32.9865 58.2473 31.3105 56.5286 31.3359 54.4343C31.3614 52.3401 33.0787 50.6626 35.1744 50.6881C37.2672 50.7136 38.9474 52.4323 38.922 54.5266Z" fill="#B8D432"/>
<path d="M38.6981 16.406C38.6777 18.0873 37.299 19.4328 35.6177 19.4124C33.9364 19.392 32.5909 18.0133 32.6114 16.332C32.6318 14.6507 34.0105 13.3052 35.6917 13.3256C37.373 13.3461 38.7185 14.7248 38.6981 16.406Z" fill="#B8D432"/>
<path d="M19.4124 35.2297C19.3919 36.911 18.0105 38.2565 16.332 38.2361C14.6507 38.2156 13.3052 36.837 13.3256 35.1557C13.3461 33.4744 14.7247 32.1289 16.406 32.1493C18.0845 32.1697 19.4328 33.5484 19.4124 35.2297Z" fill="#B8D432"/>
<path d="M57.5246 35.6932C57.5041 37.3745 56.1227 38.72 54.4428 38.6995C52.7629 38.6791 51.416 37.3004 51.4364 35.6191C51.4569 33.9379 52.8369 32.5924 54.5168 32.6128C56.1967 32.6332 57.545 34.0119 57.5246 35.6932Z" fill="#B8D432"/>
<path opacity="0.1" d="M40.3921 2.37379C39.1876 1.13825 37.5747 0.446589 35.85 0.425615C34.1267 0.404659 32.4975 1.0569 31.2633 2.26278L2.37374 30.4568C1.15522 31.6432 0.446243 33.2979 0.425576 34.9974C0.404892 36.6983 1.07342 38.3697 2.26272 39.5855L18.2252 55.9424L49.1705 11.367L40.3921 2.37379Z" fill="white"/>
<path d="M104.299 30.1542L101.393 30.1659L98.9922 23.8944L89.4923 23.9329L87.2834 30.2232L84.3616 30.235L92.8643 7.79409L95.5831 7.78306L104.299 30.1542ZM98.1233 21.5385L94.569 12.006C94.4531 11.6939 94.3366 11.1944 94.2191 10.5073L94.1566 10.5077C94.0551 11.1435 93.9373 11.644 93.8034 12.0091L90.3577 21.57L98.1233 21.5385ZM118.362 14.8313L108.946 27.9477L118.321 27.9097L118.33 30.0972L105.189 30.1505L105.186 29.3537L114.602 16.2998L106.024 16.3345L106.015 14.147L118.359 14.097L118.362 14.8313ZM134.673 30.0309L132.111 30.0414L132.101 27.5101L132.038 27.5103C130.983 29.4522 129.342 30.4275 127.113 30.4366C123.301 30.4521 121.385 28.189 121.366 23.6474L121.328 14.0849L123.874 14.0746L123.912 23.2307C123.925 26.6058 125.224 28.288 127.807 28.2775C129.057 28.2725 130.082 27.81 130.88 26.89C131.688 25.9597 132.089 24.7497 132.084 23.2601L132.047 14.0414L134.609 14.0311L134.673 30.0309ZM148.151 16.5699C147.701 16.2279 147.054 16.0587 146.211 16.0622C145.117 16.0666 144.203 16.5859 143.467 17.6202C142.742 18.6544 142.384 20.0621 142.391 21.8433L142.424 29.9995L139.861 30.0099L139.796 14.01L142.358 13.9996L142.372 17.2965L142.435 17.2962C142.795 16.1697 143.348 15.2925 144.095 14.6645C144.843 14.026 145.68 13.7049 146.607 13.7012C147.274 13.6984 147.785 13.7693 148.14 13.9136L148.151 16.5699ZM163.816 22.5533L152.519 22.5991C152.568 24.3802 153.052 25.7532 153.973 26.7182C154.894 27.6832 156.156 28.1625 157.76 28.156C159.562 28.1487 161.216 27.5483 162.721 26.3546L162.731 28.7609C161.329 29.7874 159.472 30.3053 157.16 30.3147C154.899 30.3239 153.12 29.6071 151.822 28.1645C150.525 26.7114 149.87 24.6672 149.86 22.0318C149.85 19.5422 150.544 17.5133 151.945 15.9451C153.355 14.3665 155.107 13.5729 157.201 13.5644C159.294 13.5559 160.917 14.2265 162.069 15.576C163.22 16.9255 163.8 18.8033 163.81 21.2096L163.816 22.5533ZM161.182 20.3921C161.166 18.913 160.801 17.7634 160.089 16.9434C159.388 16.1233 158.412 15.7158 157.162 15.7209C155.954 15.7258 154.93 16.1622 154.09 17.0302C153.25 17.8982 152.733 19.0305 152.541 20.4271L161.182 20.3921Z" fill="#4E9AB9"/>
<path d="M194.27 30.0879L191.364 30.1006L188.962 23.8296L179.461 23.8707L177.255 30.1615L174.333 30.1742L182.83 7.73097L185.548 7.71922L194.27 30.0879ZM188.092 21.474L184.536 11.9423C184.419 11.6304 184.303 11.1309 184.185 10.4439L184.123 10.4441C184.021 11.08 183.903 11.5805 183.769 11.9457L180.327 21.5075L188.092 21.474ZM208.142 29.2936C206.916 30.0385 205.459 30.4145 203.772 30.4219C201.491 30.4318 199.643 29.7001 198.231 28.2271C196.828 26.7435 196.122 24.8195 196.112 22.4549C196.101 19.8196 196.847 17.7017 198.35 16.1015C199.854 14.4908 201.865 13.68 204.387 13.669C205.793 13.663 207.034 13.918 208.109 14.4342L208.12 17.0592C206.929 16.231 205.656 15.8198 204.302 15.8257C202.667 15.8328 201.326 16.4271 200.279 17.6087C199.242 18.7798 198.727 20.3186 198.736 22.2249C198.744 24.0998 199.24 25.5768 200.224 26.6559C201.218 27.735 202.544 28.2709 204.2 28.2637C205.595 28.2577 206.906 27.7885 208.132 26.8561L208.142 29.2936ZM219.441 29.8229C218.838 30.1588 218.042 30.3289 217.053 30.3332C214.251 30.3453 212.843 28.7889 212.83 25.6639L212.788 16.1952L210.038 16.2071L210.029 14.0197L212.779 14.0077L212.762 10.1015L215.321 9.2623L215.342 13.9967L219.373 13.9792L219.382 16.1667L215.351 16.1841L215.39 25.1997C215.395 26.2726 215.581 27.0374 215.947 27.4942C216.313 27.951 216.919 28.1775 217.763 28.1738C218.408 28.1711 218.965 27.9916 219.432 27.6353L219.441 29.8229ZM224.089 9.89634C223.631 9.8983 223.24 9.74373 222.915 9.43263C222.591 9.12153 222.428 8.72638 222.426 8.24724C222.424 7.76807 222.583 7.37154 222.905 7.05765C223.227 6.73333 223.616 6.5702 224.075 6.5682C224.543 6.56619 224.94 6.72593 225.264 7.04744C225.6 7.35849 225.768 7.7536 225.77 8.23281C225.772 8.69115 225.607 9.08241 225.275 9.40683C224.954 9.73107 224.558 9.89431 224.089 9.89634ZM225.426 29.9532L222.864 29.9643L222.794 13.9644L225.357 13.9534L225.426 29.9532ZM243.122 13.8765L236.817 29.904L234.301 29.9148L228.169 13.9412L230.982 13.9291L235.094 25.5364C235.401 26.3892 235.591 27.1332 235.666 27.7683L235.729 27.768C235.83 26.9655 235.993 26.2408 236.22 25.594L240.419 13.8882L243.122 13.8765ZM258.785 22.4495L247.488 22.4983C247.537 24.2794 248.022 25.6524 248.943 26.6171C249.864 27.5819 251.126 28.0608 252.73 28.0539C254.532 28.0461 256.187 27.4451 257.691 26.2512L257.702 28.6574C256.301 29.6842 254.443 30.2027 252.131 30.2128C249.87 30.2225 248.091 29.5063 246.793 28.064C245.496 26.6111 244.841 24.5671 244.829 21.9317C244.818 19.4421 245.513 17.4131 246.912 15.8445C248.322 14.2655 250.074 13.4715 252.168 13.4624C254.261 13.4534 255.884 14.1234 257.036 15.4726C258.187 16.8218 258.768 18.6996 258.779 21.1057L258.785 22.4495ZM256.15 20.289C256.133 18.8099 255.769 17.6604 255.057 16.8406C254.355 16.0207 253.38 15.6134 252.13 15.6188C250.921 15.6241 249.897 16.0607 249.057 16.929C248.218 17.7973 247.701 18.9296 247.509 20.3264L256.15 20.289Z" fill="#4E9AB9"/>
<path d="M84.3011 66.2423L84.2816 43.8361L90.4691 43.8306C98.3651 43.8238 102.316 47.461 102.323 54.7422C102.326 58.2005 101.229 60.9828 99.0322 63.0889C96.847 65.1845 93.9157 66.2339 90.2386 66.2371L84.3011 66.2423ZM86.9086 46.2087L86.924 63.865L90.2678 63.8622C93.2053 63.8596 95.491 63.0711 97.1251 61.4968C98.7589 59.9224 99.575 57.6926 99.5724 54.8071C99.5676 49.0675 96.5128 46.2004 90.4086 46.2057L86.9086 46.2087ZM107.689 46.1594C107.231 46.1598 106.84 46.0039 106.517 45.6917C106.194 45.3795 106.033 44.9838 106.033 44.5046C106.031 44.0255 106.193 43.6295 106.515 43.3167C106.838 42.9935 107.229 42.8317 107.687 42.8313C108.156 42.8309 108.552 42.992 108.874 43.3147C109.208 43.6268 109.376 44.0226 109.376 44.5017C109.376 44.9601 109.21 45.3509 108.877 45.674C108.554 45.9973 108.158 46.159 107.689 46.1594ZM108.957 66.2208L106.395 66.2231L106.381 50.223L108.943 50.2208L108.957 66.2208ZM122.477 52.8028C122.029 52.4594 121.382 52.2881 120.539 52.2888C119.445 52.2898 118.529 52.8063 117.79 53.8382C117.062 54.87 116.699 56.2766 116.7 58.0578L116.707 66.2141L114.145 66.2163L114.131 50.2163L116.693 50.2141L116.696 53.511L116.759 53.5109C117.122 52.3855 117.679 51.5101 118.429 50.8845C119.178 50.2484 120.017 49.9299 120.944 49.9291C121.61 49.9286 122.121 50.001 122.475 50.1465L122.477 52.8028ZM138.123 58.836L126.826 58.8458C126.87 60.6271 127.349 62.0017 128.267 62.9696C129.185 63.9375 130.445 64.4209 132.049 64.4195C133.852 64.4179 135.507 63.8228 137.017 62.6339L137.019 65.0402C135.613 66.0622 133.755 66.5742 131.442 66.5763C129.181 66.5782 127.405 65.8558 126.112 64.409C124.819 62.9519 124.172 60.9055 124.17 58.2701C124.167 55.7805 124.869 53.7538 126.274 52.1901C127.688 50.616 129.443 49.828 131.537 49.8262C133.63 49.8243 135.251 50.5001 136.398 51.8532C137.545 53.2064 138.119 55.0861 138.122 57.4923L138.123 58.836ZM135.496 56.6665C135.484 55.1873 135.123 54.0366 134.415 53.2143C133.716 52.392 132.741 51.9814 131.492 51.9825C130.283 51.9835 129.258 52.4167 128.415 53.282C127.572 54.1473 127.052 55.278 126.855 56.674L135.496 56.6665ZM152.926 65.4482C151.697 66.1888 150.239 66.5599 148.552 66.5613C146.271 66.5633 144.426 65.8254 143.018 64.3474C141.621 62.8591 140.922 60.9326 140.92 58.568C140.918 55.9326 141.67 53.8174 143.179 52.2223C144.689 50.6168 146.703 49.813 149.224 49.8107C150.631 49.8095 151.87 50.0689 152.944 50.5888L152.946 53.2138C151.758 52.3815 150.487 51.966 149.133 51.9671C147.497 51.9685 146.154 52.5583 145.102 53.7363C144.062 54.9038 143.542 56.4407 143.544 58.347C143.546 60.222 144.037 61.7007 145.017 62.7831C146.007 63.8656 147.33 64.4061 148.987 64.4048C150.383 64.4035 151.695 63.9388 152.924 63.0106L152.926 65.4482ZM164.223 66.0165C163.619 66.3504 162.822 66.5177 161.832 66.5186C159.03 66.521 157.629 64.9597 157.626 61.8347L157.617 52.366L154.867 52.3683L154.865 50.1809L157.615 50.1784L157.612 46.2722L160.173 45.4419L160.178 50.1762L164.209 50.1727L164.211 52.3603L160.18 52.3637L160.187 61.3794C160.188 62.4522 160.371 63.2177 160.736 63.6758C161.101 64.1338 161.706 64.3624 162.549 64.3616C163.195 64.3611 163.752 64.1835 164.22 63.829L164.223 66.0165ZM174.333 66.5389C171.968 66.541 170.077 65.7979 168.659 64.3095C167.251 62.8107 166.546 60.8269 166.544 58.3582C166.542 55.6707 167.274 53.5711 168.741 52.0594C170.209 50.5477 172.193 49.7907 174.693 49.7885C177.079 49.7866 178.938 50.5193 180.273 51.9868C181.618 53.4544 182.291 55.4903 182.294 58.0945C182.296 60.6466 181.574 62.6941 180.127 64.237C178.691 65.7695 176.76 66.5368 174.333 66.5389ZM174.507 51.9451C172.861 51.9464 171.56 52.5101 170.603 53.6359C169.646 54.7513 169.168 56.2934 169.169 58.2622C169.171 60.158 169.657 61.6524 170.626 62.7453C171.596 63.8382 172.893 64.3839 174.518 64.3825C176.175 64.3811 177.445 63.8435 178.33 62.7698C179.224 61.6961 179.671 60.1697 179.669 58.1905C179.667 56.1905 179.218 54.6492 178.321 53.5667C177.435 52.4842 176.164 51.9436 174.507 51.9451ZM194.726 52.74C194.279 52.3966 193.633 52.2253 192.789 52.226C191.696 52.2269 190.779 52.7433 190.041 53.7752C189.312 54.8071 188.948 56.2136 188.95 57.995L188.958 66.1512L186.395 66.1535L186.381 50.1534L188.943 50.1512L188.946 53.448L189.008 53.448C189.373 52.3227 189.929 51.4472 190.678 50.8215C191.428 50.1855 192.266 49.8671 193.193 49.8662C193.86 49.8657 194.37 49.9382 194.725 50.0837L194.726 52.74ZM210.24 50.1327L202.897 68.7015C201.587 72.0152 199.745 73.673 197.371 73.6751C196.703 73.6757 196.147 73.6084 195.698 73.4735L195.696 71.1766C196.248 71.3636 196.754 71.4569 197.212 71.4565C198.504 71.4553 199.472 70.6837 200.116 69.1415L201.394 66.1091L195.131 50.1458L197.975 50.1433L202.314 62.452C202.366 62.6083 202.475 63.0145 202.643 63.6705L202.737 63.6704C202.788 63.4204 202.892 63.0244 203.048 62.4826L207.584 50.135L210.24 50.1327Z" fill="#4E9AB9"/>
</svg>
