<svg width="720" height="180" viewBox="0 0 720 180" fill="none" xmlns="http://www.w3.org/2000/svg">
<path d="M253.056 121.204C243.367 121.204 235.971 118.509 230.868 113.12C225.823 107.731 223.3 100.077 223.3 90.158C223.3 85.2273 224.074 80.8413 225.622 77C227.17 73.1013 229.291 69.8333 231.986 67.196C234.681 64.5013 237.891 62.466 241.618 61.09C245.345 59.714 249.387 59.026 253.744 59.026C256.267 59.026 258.56 59.2267 260.624 59.628C262.688 59.972 264.494 60.402 266.042 60.918C267.59 61.3767 268.88 61.864 269.912 62.38C270.944 62.896 271.689 63.2973 272.148 63.584L268.278 74.42C266.443 73.4453 264.293 72.614 261.828 71.926C259.42 71.238 256.668 70.894 253.572 70.894C251.508 70.894 249.473 71.238 247.466 71.926C245.517 72.614 243.768 73.732 242.22 75.28C240.729 76.7707 239.525 78.72 238.608 81.128C237.691 83.536 237.232 86.46 237.232 89.9C237.232 92.652 237.519 95.232 238.092 97.64C238.723 99.9907 239.697 102.026 241.016 103.746C242.392 105.466 244.169 106.842 246.348 107.874C248.527 108.849 251.164 109.336 254.26 109.336C256.209 109.336 257.958 109.221 259.506 108.992C261.054 108.763 262.43 108.505 263.634 108.218C264.838 107.874 265.899 107.501 266.816 107.1C267.733 106.699 268.565 106.326 269.31 105.982L273.008 116.732C271.116 117.879 268.45 118.911 265.01 119.828C261.57 120.745 257.585 121.204 253.056 121.204ZM298.846 120.86C295.119 120.803 292.08 120.401 289.73 119.656C287.436 118.911 285.602 117.879 284.226 116.56C282.907 115.184 281.99 113.55 281.474 111.658C281.015 109.709 280.786 107.53 280.786 105.122V55.328L293.6 53.264V102.542C293.6 103.689 293.686 104.721 293.858 105.638C294.03 106.555 294.345 107.329 294.804 107.96C295.32 108.591 296.036 109.107 296.954 109.508C297.871 109.909 299.104 110.167 300.652 110.282L298.846 120.86ZM350.309 97.296C350.309 100.851 349.793 104.119 348.761 107.1C347.729 110.024 346.238 112.547 344.289 114.668C342.339 116.732 339.989 118.337 337.237 119.484C334.542 120.631 331.503 121.204 328.121 121.204C324.795 121.204 321.757 120.631 319.005 119.484C316.31 118.337 313.988 116.732 312.039 114.668C310.089 112.547 308.57 110.024 307.481 107.1C306.391 104.119 305.847 100.851 305.847 97.296C305.847 93.7413 306.391 90.502 307.481 87.578C308.627 84.654 310.175 82.16 312.125 80.096C314.131 78.032 316.482 76.4267 319.177 75.28C321.929 74.1333 324.91 73.56 328.121 73.56C331.389 73.56 334.37 74.1333 337.065 75.28C339.817 76.4267 342.167 78.032 344.117 80.096C346.066 82.16 347.585 84.654 348.675 87.578C349.764 90.502 350.309 93.7413 350.309 97.296ZM337.237 97.296C337.237 93.34 336.434 90.244 334.829 88.008C333.281 85.7147 331.045 84.568 328.121 84.568C325.197 84.568 322.932 85.7147 321.327 88.008C319.721 90.244 318.919 93.34 318.919 97.296C318.919 101.252 319.721 104.405 321.327 106.756C322.932 109.049 325.197 110.196 328.121 110.196C331.045 110.196 333.281 109.049 334.829 106.756C336.434 104.405 337.237 101.252 337.237 97.296ZM398.849 118.452C396.67 119.083 393.861 119.656 390.421 120.172C386.981 120.745 383.369 121.032 379.585 121.032C375.744 121.032 372.533 120.516 369.953 119.484C367.43 118.452 365.424 117.019 363.933 115.184C362.442 113.292 361.382 111.056 360.751 108.476C360.12 105.896 359.805 103.058 359.805 99.962V74.764H372.619V98.414C372.619 102.542 373.164 105.523 374.253 107.358C375.342 109.193 377.378 110.11 380.359 110.11C381.276 110.11 382.251 110.081 383.283 110.024C384.315 109.909 385.232 109.795 386.035 109.68V74.764H398.849V118.452ZM421.799 97.038C421.799 100.994 422.688 104.176 424.465 106.584C426.243 108.992 428.88 110.196 432.377 110.196C433.524 110.196 434.585 110.167 435.559 110.11C436.534 109.995 437.337 109.881 437.967 109.766V86.46C437.165 85.944 436.104 85.514 434.785 85.17C433.524 84.826 432.234 84.654 430.915 84.654C424.838 84.654 421.799 88.782 421.799 97.038ZM450.781 118.538C449.635 118.882 448.316 119.226 446.825 119.57C445.335 119.857 443.758 120.115 442.095 120.344C440.49 120.573 438.827 120.745 437.107 120.86C435.445 121.032 433.839 121.118 432.291 121.118C428.565 121.118 425.239 120.573 422.315 119.484C419.391 118.395 416.926 116.847 414.919 114.84C412.913 112.776 411.365 110.311 410.275 107.444C409.243 104.52 408.727 101.252 408.727 97.64C408.727 93.9707 409.186 90.674 410.103 87.75C411.021 84.7687 412.339 82.246 414.059 80.182C415.779 78.118 417.872 76.5413 420.337 75.452C422.86 74.3627 425.727 73.818 428.937 73.818C430.715 73.818 432.291 73.99 433.667 74.334C435.101 74.678 436.534 75.1653 437.967 75.796V55.328L450.781 53.264V118.538ZM503.544 120C502.913 117.936 502.196 115.815 501.394 113.636C500.648 111.457 499.903 109.279 499.158 107.1H475.938C475.192 109.279 474.418 111.457 473.616 113.636C472.87 115.815 472.182 117.936 471.552 120H457.62C459.856 113.579 461.977 107.645 463.984 102.198C465.99 96.7513 467.94 91.62 469.832 86.804C471.781 81.988 473.673 77.43 475.508 73.13C477.4 68.7727 479.349 64.53 481.356 60.402H494.17C496.119 64.53 498.04 68.7727 499.932 73.13C501.824 77.43 503.716 81.988 505.608 86.804C507.557 91.62 509.535 96.7513 511.542 102.198C513.548 107.645 515.67 113.579 517.906 120H503.544ZM487.462 73.904C487.175 74.764 486.745 75.9393 486.172 77.43C485.598 78.9207 484.939 80.6407 484.194 82.59C483.448 84.5393 482.617 86.6893 481.7 89.04C480.84 91.3907 479.951 93.856 479.034 96.436H495.976C495.058 93.856 494.17 91.3907 493.31 89.04C492.45 86.6893 491.618 84.5393 490.816 82.59C490.07 80.6407 489.411 78.9207 488.838 77.43C488.264 75.9393 487.806 74.764 487.462 73.904ZM541.444 60.402C542.476 62.294 543.652 64.6447 544.97 67.454C546.346 70.206 547.751 73.216 549.184 76.484C550.675 79.6947 552.137 82.9913 553.57 86.374C555.004 89.7567 556.351 92.9387 557.612 95.92C558.874 92.9387 560.221 89.7567 561.654 86.374C563.088 82.9913 564.521 79.6947 565.954 76.484C567.445 73.216 568.85 70.206 570.168 67.454C571.544 64.6447 572.748 62.294 573.78 60.402H585.992C586.566 64.358 587.082 68.8013 587.54 73.732C588.056 78.6053 588.486 83.708 588.83 89.04C589.232 94.3147 589.576 99.618 589.862 104.95C590.206 110.282 590.493 115.299 590.722 120H577.65C577.478 114.209 577.249 107.903 576.962 101.08C576.676 94.2573 576.246 87.3773 575.672 80.44C574.64 82.848 573.494 85.514 572.232 88.438C570.971 91.362 569.71 94.286 568.448 97.21C567.244 100.134 566.069 102.943 564.922 105.638C563.776 108.275 562.801 110.54 561.998 112.432H552.624C551.822 110.54 550.847 108.275 549.7 105.638C548.554 102.943 547.35 100.134 546.088 97.21C544.884 94.286 543.652 91.362 542.39 88.438C541.129 85.514 539.982 82.848 538.95 80.44C538.377 87.3773 537.947 94.2573 537.66 101.08C537.374 107.903 537.144 114.209 536.972 120H523.9C524.13 115.299 524.388 110.282 524.674 104.95C525.018 99.618 525.362 94.3147 525.706 89.04C526.108 83.708 526.538 78.6053 526.996 73.732C527.512 68.8013 528.057 64.358 528.63 60.402H541.444ZM614.068 90.158C614.068 93.082 614.412 95.7193 615.1 98.07C615.845 100.421 616.877 102.456 618.196 104.176C619.572 105.839 621.235 107.129 623.184 108.046C625.133 108.963 627.369 109.422 629.892 109.422C632.357 109.422 634.565 108.963 636.514 108.046C638.521 107.129 640.183 105.839 641.502 104.176C642.878 102.456 643.91 100.421 644.598 98.07C645.343 95.7193 645.716 93.082 645.716 90.158C645.716 87.234 645.343 84.5967 644.598 82.246C643.91 79.838 642.878 77.8027 641.502 76.14C640.183 74.42 638.521 73.1013 636.514 72.184C634.565 71.2667 632.357 70.808 629.892 70.808C627.369 70.808 625.133 71.2953 623.184 72.27C621.235 73.1873 619.572 74.506 618.196 76.226C616.877 77.8887 615.845 79.924 615.1 82.332C614.412 84.6827 614.068 87.2913 614.068 90.158ZM659.562 90.158C659.562 94.3433 659.046 98.1273 658.014 101.51C656.982 104.835 655.52 107.759 653.628 110.282C651.793 112.805 649.586 114.897 647.006 116.56C644.426 118.223 641.588 119.427 638.492 120.172C638.779 121.319 639.409 122.236 640.384 122.924C641.359 123.669 642.591 124.271 644.082 124.73C645.573 125.189 647.293 125.533 649.242 125.762C651.249 125.991 653.399 126.192 655.692 126.364L652.94 136.168C648.468 135.996 644.627 135.537 641.416 134.792C638.263 134.104 635.568 133.129 633.332 131.868C631.153 130.607 629.405 129.059 628.086 127.224C626.825 125.389 625.85 123.268 625.162 120.86C621.607 120.401 618.311 119.427 615.272 117.936C612.233 116.388 609.596 114.324 607.36 111.744C605.124 109.164 603.375 106.068 602.114 102.456C600.853 98.844 600.222 94.7447 600.222 90.158C600.222 85.0553 601.025 80.5833 602.63 76.742C604.235 72.8433 606.385 69.5753 609.08 66.938C611.832 64.3007 614.985 62.3227 618.54 61.004C622.152 59.6853 625.936 59.026 629.892 59.026C633.963 59.026 637.804 59.6853 641.416 61.004C645.028 62.3227 648.181 64.3007 650.876 66.938C653.571 69.5753 655.692 72.8433 657.24 76.742C658.788 80.5833 659.562 85.0553 659.562 90.158ZM688.633 59.714C697.52 59.714 704.343 61.2907 709.101 64.444C713.86 67.54 716.239 72.6427 716.239 79.752C716.239 86.9187 713.831 92.1073 709.015 95.318C704.199 98.4713 697.319 100.048 688.375 100.048H684.161V120H670.745V61.262C673.669 60.6887 676.765 60.2873 680.033 60.058C683.301 59.8287 686.168 59.714 688.633 59.714ZM689.493 71.152C688.519 71.152 687.544 71.1807 686.569 71.238C685.652 71.2953 684.849 71.3527 684.161 71.41V88.61H688.375C693.019 88.61 696.517 87.9793 698.867 86.718C701.218 85.4567 702.393 83.106 702.393 79.666C702.393 78.0033 702.078 76.6273 701.447 75.538C700.874 74.4487 700.014 73.5887 698.867 72.958C697.778 72.27 696.431 71.8113 694.825 71.582C693.22 71.2953 691.443 71.152 689.493 71.152Z" fill="#737373"/>
<path d="M18.6412 110.961C16.8312 98.2408 19.3412 86.2408 25.0512 74.9008C26.4112 72.2108 26.5712 70.1408 24.9012 67.6608C23.6212 65.7508 22.8012 63.5308 21.6412 61.5308C17.9312 55.1408 16.4012 48.3608 17.8412 41.0208C18.8512 35.9008 17.4812 31.6608 13.6612 27.9908C9.97116 24.4408 6.61116 20.5408 3.08116 16.8108C-2.44884 10.9708 -0.268842 2.8908 7.49116 0.570804C10.1012 -0.209196 12.7912 -0.209196 15.3212 0.690804C22.7912 3.3508 29.5712 7.3208 34.0712 13.9608C41.7112 25.2408 48.1712 37.1908 51.1512 50.6408C51.7212 53.2208 52.8712 53.6208 54.8512 52.9508C60.0212 51.2008 65.1212 49.2408 70.2912 47.5108C72.5912 46.7408 72.4212 44.6708 72.8312 43.0508C76.0512 30.5008 83.8812 21.4108 94.2312 14.1808C95.3112 13.4208 96.4512 12.7308 97.6112 12.0908C110.561 4.8808 119.671 8.6408 123.541 22.9108C124.271 25.6108 124.831 28.4308 124.921 31.2108C125.011 34.1008 126.111 34.6908 128.821 34.6008C139.351 34.2508 149.571 35.9508 159.501 39.5808C167.061 42.3408 172.991 47.2008 178.111 53.2108C187.141 63.8308 193.871 75.6608 197.051 89.3608C197.281 90.3408 196.871 91.8508 198.571 92.0808C198.571 100.041 198.571 107.991 198.571 115.951C196.911 116.101 197.121 117.571 196.861 118.571C195.501 123.771 193.371 128.621 189.681 132.561C188.251 134.091 188.351 135.261 189.121 136.941C190.511 139.961 189.471 142.371 186.901 144.291C181.171 148.581 175.041 152.231 168.281 154.581C162.561 156.561 157.131 155.501 152.601 151.301C151.371 150.161 150.581 149.591 148.841 150.481C142.081 153.931 134.751 155.161 127.241 155.451C125.491 155.521 124.281 155.601 123.621 157.771C120.941 166.571 114.001 169.281 105.661 169.761C103.151 170.281 100.651 170.521 98.1612 169.671C97.8312 167.631 99.5412 167.751 100.661 167.491C103.241 166.891 105.891 166.621 108.481 166.091C117.571 164.231 121.391 159.031 120.591 149.771C120.331 146.791 119.371 143.931 119.131 140.951C119.021 139.611 119.081 138.051 120.631 137.641C122.281 137.201 122.921 138.671 123.391 139.911C124.411 142.551 124.881 145.351 125.171 148.141C125.461 150.881 126.771 151.671 129.451 151.591C135.481 151.391 141.231 150.441 146.411 147.381C146.631 145.611 145.261 145.271 144.471 144.551C136.931 137.751 135.391 125.171 141.121 116.821C141.951 115.601 142.851 113.931 144.591 114.891C146.171 115.751 145.781 117.531 145.171 118.921C142.921 124.031 141.401 129.131 143.531 134.751C145.621 140.281 148.331 142.321 154.261 142.501C160.571 142.691 166.291 140.531 172.001 138.271C173.231 137.781 174.421 137.181 175.661 136.731C176.771 136.331 178.071 135.891 178.811 137.101C179.671 138.511 178.701 139.661 177.611 140.481C174.931 142.501 171.821 143.641 168.681 144.721C167.281 145.201 165.781 145.471 164.521 146.311C163.251 147.171 163.021 148.441 163.391 149.831C163.851 151.521 165.221 151.731 166.561 151.291C173.061 149.141 179.011 145.931 184.281 141.551C185.701 140.371 185.961 138.661 185.111 137.021C183.831 134.531 184.671 132.641 186.401 130.771C193.781 122.771 195.491 112.771 195.091 102.561C194.251 81.2408 184.761 63.7708 169.341 49.4808C161.601 42.3108 151.621 40.0308 141.491 38.8508C135.971 38.2108 130.371 36.6608 124.791 38.7208C121.961 37.5108 123.121 34.5808 122.121 32.5808C120.881 27.6208 120.421 22.4408 117.671 17.9208C114.341 12.4508 110.701 10.7608 104.731 12.9508C92.0812 17.5708 83.2112 26.4108 78.1012 38.7608C74.2812 48.0108 73.0312 57.9408 71.6412 67.7808C71.5012 68.7608 71.5912 69.7808 71.3112 70.7408C70.8212 72.4708 70.3912 74.8008 68.0712 74.3408C65.8712 73.9008 66.8312 71.6308 66.8712 70.1008C66.9412 67.1208 67.1612 64.1408 67.8012 61.2208C68.4812 58.1008 67.4112 56.7908 64.0412 56.5208C43.9612 54.9208 30.2112 65.0608 24.1712 86.1908C23.0812 90.0108 22.5912 93.9808 21.4212 97.8008C20.5712 100.731 21.1912 103.751 20.8812 106.701C20.7112 108.361 21.2912 110.551 18.6412 110.961Z" fill="#070707"/>
<path d="M98.1312 168.711C100.431 170.571 103.171 169.201 105.651 169.741C105.041 169.951 104.431 170.331 103.811 170.351C99.2612 170.521 95.6812 171.151 92.0412 175.321C86.8712 181.241 78.8212 180.261 71.4912 179.071C70.3612 178.891 69.2812 178.211 68.1512 178.141C60.5212 177.671 56.0212 173.581 54.3012 165.761C45.9312 171.231 37.5912 168.871 29.3412 166.441C25.5612 165.321 22.7412 162.781 21.5312 158.811C20.3212 156.561 21.7912 154.961 22.8612 153.251C24.6112 151.721 25.2012 148.251 28.7512 149.741C29.7212 151.741 28.2212 153.181 27.6012 154.831C26.9512 156.541 26.2112 158.261 27.0812 160.091C27.7512 161.501 28.8612 162.621 30.5112 162.521C31.9912 162.441 32.0512 161.021 32.3112 159.911C32.4612 159.261 32.5312 158.601 32.7712 157.981C33.5712 155.931 34.7512 153.221 37.0012 153.911C39.4712 154.671 37.7912 157.291 37.3912 159.111C36.3412 163.851 37.3212 165.161 42.1412 165.361C44.9912 165.481 47.7212 165.111 50.3212 163.781C52.6312 162.601 53.9312 161.141 53.2612 158.281C52.5812 155.391 52.3712 152.481 56.9212 154.641C57.9412 155.121 58.8812 154.841 59.7412 154.311C64.9912 151.031 70.7412 151.101 76.5612 151.811C80.8412 152.331 84.5412 151.901 86.2612 147.151C86.6012 146.201 87.2112 145.301 88.4312 145.531C89.8512 145.801 90.1012 147.041 90.1512 148.211C90.2712 151.331 88.8312 153.631 86.1012 155.051C83.1012 156.621 79.9012 157.311 76.5012 156.781C74.7012 156.501 72.9312 156.121 71.1012 156.071C63.8512 155.871 60.1912 158.661 58.4112 165.771C58.8412 165.511 58.8612 164.991 59.1312 164.641C60.0412 163.491 60.8712 161.901 62.6712 162.971C64.1112 163.831 63.5812 165.271 63.1912 166.551C62.9012 167.501 62.4512 168.391 62.2212 169.361C61.8612 170.941 61.9412 172.471 63.6512 173.131C65.6712 173.911 66.1912 172.261 66.7312 170.851C67.3212 169.301 67.7912 167.691 68.9712 166.471C69.7912 165.611 70.7712 164.841 72.0112 165.611C73.0212 166.241 72.8212 167.301 72.6512 168.291C72.2912 170.471 70.1012 172.771 72.1012 174.811C74.4112 177.181 77.7012 176.351 80.6212 176.141C85.2612 175.801 89.2412 174.151 91.9112 169.971C93.4212 167.571 95.5612 166.681 98.1312 168.711Z" fill="#0A0A0A"/>
<path d="M23.5611 154.001C23.3611 155.811 20.8011 156.611 21.5311 158.811C19.0611 154.031 21.2111 150.271 24.3211 146.831C27.5211 143.291 31.8011 141.621 36.4311 140.541C35.5411 138.591 35.2011 136.661 33.1611 135.631C23.0211 130.551 19.7811 121.361 18.6511 110.951C20.3911 109.171 19.2211 106.961 19.5411 104.971C19.9611 102.341 18.6611 99.5108 20.4511 97.0308C22.6611 99.1408 21.9811 101.911 21.9411 104.421C21.8411 110.361 22.4711 116.131 25.0211 121.571C25.9411 123.081 26.7711 124.651 27.4511 126.291C28.2111 128.761 29.9911 130.241 32.2711 131.241C43.4711 136.151 55.0611 136.241 66.8311 134.161C68.9511 133.791 71.0611 133.351 73.2311 133.531C74.5911 133.771 76.0311 133.891 76.4911 135.561C70.9411 140.031 64.0811 139.281 57.6711 140.041C53.2911 140.561 48.7711 140.391 44.3311 139.881C43.3711 139.771 41.6811 139.391 41.6311 140.261C41.3211 145.971 36.6011 144.181 33.5811 145.221C32.0011 145.761 30.5311 146.461 29.1111 147.311C26.2411 148.701 24.2611 150.811 23.5611 154.001Z" fill="#101010"/>
<path d="M27.6311 146.991C31.3511 144.081 35.3311 142.061 40.4411 143.951C40.7911 141.301 38.2411 140.241 38.4411 137.711C51.1511 139.501 63.8211 139.431 76.2511 135.761C80.7111 132.471 86.4211 131.311 90.4511 127.311C92.7311 125.261 94.8911 123.111 96.8711 120.771C107.371 107.901 110.111 93.8408 103.281 78.3808C102.011 75.5108 102.411 73.3008 104.941 71.4608C106.011 70.6908 107.081 69.9208 107.981 68.9408C110.301 66.8208 112.561 64.6308 114.631 62.2508C119.731 56.6008 122.651 49.9708 123.601 42.4508C123.781 41.0008 123.751 39.4808 124.921 38.3408C125.771 36.2908 127.611 36.7408 129.191 36.7208C140.241 36.5608 150.931 38.3608 161.171 42.6508C166.001 44.6808 170.041 47.8008 173.561 51.5908C187.971 67.0508 196.991 84.8208 196.271 106.501C195.951 116.291 194.011 125.661 186.341 132.681C184.631 134.241 185.611 135.121 186.401 136.351C187.811 138.551 188.091 140.631 185.661 142.421C179.761 146.761 173.551 150.521 166.541 152.761C164.981 153.261 162.901 154.301 161.951 151.721C160.961 149.031 162.331 145.351 164.461 144.651C169.411 143.021 174.451 141.591 178.931 138.511C177.581 136.491 176.401 137.761 175.381 138.231C169.941 140.711 164.391 142.881 158.441 143.701C146.161 145.391 139.231 137.851 141.491 125.531C142.141 121.991 143.871 118.861 145.241 115.931C144.051 114.721 143.411 115.241 143.121 115.711C139.301 121.921 137.761 128.531 140.061 135.651C141.361 139.671 143.381 143.211 147.591 145.011C149.931 146.011 150.401 147.301 147.721 148.601C141.031 151.841 133.891 152.971 126.551 153.261C124.061 153.361 124.111 151.751 123.981 150.011C123.671 145.801 123.261 141.601 121.241 137.611C119.251 138.591 119.931 139.731 120.241 140.721C121.421 144.551 121.901 148.481 121.951 152.471C122.041 159.681 119.071 163.991 112.311 166.381C107.741 168.001 102.911 168.131 98.1511 168.701C95.5311 168.261 93.5211 168.371 92.5211 171.661C91.7211 174.311 89.0011 175.511 86.4311 176.361C82.0911 177.801 77.6211 177.881 73.1611 177.141C69.3211 176.501 68.8311 175.501 70.1411 171.651C70.6211 170.251 71.3211 168.921 71.9811 167.591C72.3311 166.881 72.2711 166.241 71.6511 165.881C70.9611 165.471 70.4711 165.981 70.0811 166.561C68.8611 168.371 68.2611 170.441 67.5711 172.481C67.1711 173.641 68.0111 175.981 65.4111 175.381C63.2011 174.871 60.6711 174.571 60.4211 171.461C60.2611 169.361 61.1311 167.611 62.1511 165.871C62.5911 165.121 63.8211 164.181 62.5311 163.391C60.9911 162.451 60.7211 164.191 60.1811 165.011C59.3911 166.191 58.8111 167.511 58.0011 169.021C55.6811 161.311 61.3811 154.561 69.7111 154.761C73.3411 154.851 76.9811 155.521 80.6011 155.421C86.3311 155.251 89.3111 152.401 89.5311 147.471C89.5611 146.821 89.4911 146.151 88.5611 145.971C88.4911 145.981 88.2111 145.941 88.1711 146.011C84.7011 153.541 83.8511 154.001 74.9411 153.021C65.9411 152.031 63.9611 152.571 57.5511 157.761C56.8811 157.961 56.7511 157.391 56.4611 157.021C55.7711 156.121 55.9211 153.861 54.2311 154.631C52.5011 155.421 54.0911 157.041 54.5511 158.011C56.0511 161.151 54.8411 162.941 52.1111 164.421C48.6511 166.301 45.0311 167.121 41.1111 166.801C35.5411 166.351 34.0211 163.751 36.0911 158.441C36.5811 157.181 38.2611 156.191 37.2711 154.451C33.8011 156.661 33.2411 158.011 33.1311 164.401C25.9311 164.371 23.6111 160.941 26.2711 154.471C26.9511 152.811 28.4911 151.571 28.5811 149.641C27.6911 148.981 27.0711 148.191 27.6311 146.991Z" fill="#FCFCFC"/>
<path d="M24.4412 122.681C21.3412 118.401 20.8212 113.351 20.4612 108.351C20.1912 104.601 20.4312 100.811 20.4412 97.0408C21.9012 88.6908 24.1312 80.6308 28.3712 73.1608C37.1012 57.7608 51.5112 53.2508 67.1512 55.2808C69.7912 55.6208 69.8612 56.7508 69.4912 58.9008C68.7712 63.1408 68.3412 67.4308 67.8012 71.6908C67.6912 72.5908 67.1912 73.6408 68.7912 74.4108C70.2212 73.1208 69.9612 71.2508 70.1612 69.6108C71.2612 60.4008 72.7312 51.2508 75.3712 42.3408C79.3812 28.8108 88.3812 19.4408 100.581 13.1108C110.621 7.91079 117.281 10.9708 120.911 21.7208C122.081 25.1908 122.491 28.8108 123.061 32.4008C125.281 43.6008 122.281 53.3908 115.101 62.0608C112.881 64.4008 110.581 66.6608 108.281 68.9108C102.871 73.5308 97.0912 77.5908 90.6212 80.6008C92.9412 79.6508 95.1312 78.4308 97.2012 77.0308C100.351 74.8908 102.451 75.9808 103.821 79.1708C108.211 89.3408 108.571 99.5308 103.951 109.751C102.111 113.831 99.7212 117.551 96.9412 121.041C94.7612 123.281 92.5712 125.491 90.3212 127.661C85.2012 131.651 79.6812 134.631 72.9812 134.731C65.5112 135.241 58.1712 137.151 50.6012 136.691C43.6412 136.271 36.7912 135.571 30.7012 131.741C30.4412 129.431 32.9712 130.051 33.7412 128.821C35.7012 126.291 36.0912 124.251 31.9912 124.071C29.3812 123.961 27.2212 121.661 24.4412 122.681Z" fill="#FCFCFC"/>
<path d="M9.62121 4.62079C9.10121 4.22079 8.27121 3.90079 8.13121 3.39079C7.89121 2.57079 8.79121 2.52079 9.38121 2.43079C11.2112 2.16079 13.0412 2.20079 14.7812 2.83079C21.4312 5.25079 27.6212 8.71079 31.7112 14.5008C39.1912 25.0808 45.1012 36.5308 48.6412 49.1208C49.5312 52.2908 49.4712 54.2508 45.6412 55.2508C41.2912 56.3808 37.6212 59.0908 33.9012 62.3908C30.8612 56.3508 28.0912 50.6308 27.8112 44.0308C27.6912 41.2208 27.3212 38.4008 27.4412 35.6008C27.9012 25.1508 23.1112 17.2108 15.7212 10.4708C12.8512 9.39079 10.9312 7.32079 9.62121 4.62079Z" fill="#FCFCFC"/>
<path d="M14.5112 11.6908C23.5412 20.1608 26.1012 30.9108 25.5912 42.8008C25.3312 48.9508 27.4412 54.5908 30.2512 59.8708C32.1912 63.5008 31.6612 66.0108 27.9512 68.4708C23.4112 59.9008 17.7012 51.9008 20.0712 41.2808C21.3612 35.5208 19.6512 30.6008 15.3112 26.4308C11.5012 22.7608 8.07117 18.6908 4.39117 14.8808C2.70117 13.1008 1.45117 11.2808 2.24117 8.7008C3.03117 6.1208 5.23117 5.9008 7.41117 5.6608C10.9512 6.2808 13.2612 8.3608 14.5112 11.6908Z" fill="#FCB5A2"/>
<path d="M113.911 61.9508C121.361 53.4708 123.281 43.2608 123.071 32.4008C125.131 33.9308 122.821 36.8208 124.911 38.3508C124.991 47.9708 122.071 56.4208 115.121 63.2708C114.071 63.4208 113.571 63.0608 113.911 61.9508Z" fill="#1D1D1D"/>
<path d="M159.991 145.631C159.821 148.411 159.701 150.351 159.591 152.291C159.181 152.351 158.831 152.531 158.561 152.431C155.911 151.471 152.431 150.151 153.131 147.181C153.691 144.781 157.361 146.431 159.991 145.631Z" fill="#E4E4E4"/>
<path d="M63.1812 52.7308C66.0812 50.8308 68.3912 50.2408 70.7612 49.7108C71.2612 54.3908 70.2412 53.8908 63.1812 52.7308Z" fill="#B9B9B9"/>
<path d="M14.5111 11.6908C11.9111 9.96082 10.2511 7.10082 7.40112 5.66082C8.21112 5.46082 9.15112 5.55082 9.61112 4.62082C12.2811 5.90082 14.1711 8.00082 15.7111 10.4608C15.3211 10.8708 14.9211 11.2808 14.5111 11.6908Z" fill="#1D1716"/>
<path d="M27.6312 146.991C28.0712 147.841 28.8112 148.581 28.5812 149.671C25.3012 149.251 25.7312 153.121 23.5712 154.001C22.8512 153.561 22.1212 152.861 22.7912 152.131C24.3712 150.391 25.2912 148.011 27.6312 146.991Z" fill="#C8C8C8"/>
<path d="M24.4412 122.681C24.6612 121.181 24.2412 118.651 26.9912 120.761C28.7812 122.131 30.5812 122.881 32.8612 122.861C37.3712 122.831 37.9612 123.851 35.9812 127.951C35.6412 128.661 34.9612 129.211 34.4412 129.831C30.8212 131.431 28.3512 129.971 26.5212 126.831C25.8312 125.451 25.1412 124.071 24.4412 122.681Z" fill="#080808"/>
<path d="M72.9712 134.731C79.0712 133.051 84.8912 130.761 89.9012 126.761C91.0512 126.421 91.4312 126.891 91.2212 127.991C87.0612 132.191 82.0712 134.781 76.2412 135.761C75.4512 134.491 74.0812 135.021 72.9712 134.731Z" fill="#1B1B1B"/>
<path d="M26.5311 126.841C28.8411 128.701 31.1511 130.581 34.4511 129.841C33.8111 131.681 31.4011 130.031 30.6911 131.751C28.5211 130.781 26.9611 129.281 26.5311 126.841Z" fill="#676767"/>
<path d="M96.0211 120.671C99.2711 115.911 102.701 111.271 104.501 105.671C107.781 95.4508 106.451 85.8508 100.871 76.2608C96.6912 78.4608 92.9111 81.0708 88.6111 82.5808C87.7411 82.8908 86.6311 83.7608 86.0711 82.4808C85.4911 81.1608 86.9011 80.9108 87.7411 80.5908C95.2611 77.7408 101.481 72.8108 107.821 68.0808C108.911 67.7708 109.261 68.2408 109.101 69.2708C103.851 72.6208 103.451 76.1708 105.941 82.3008C111.931 97.0508 107.551 110.361 97.2111 121.951C96.1811 122.111 95.7011 121.761 96.0211 120.671Z" fill="#111111"/>
<path d="M109.101 69.2708C108.671 68.8708 108.251 68.4708 107.821 68.0808C109.601 65.7908 111.671 63.7908 113.911 61.9508C114.311 62.3908 114.711 62.8308 115.121 63.2708C113.551 65.7108 111.571 67.7308 109.101 69.2708Z" fill="#232323"/>
<path d="M96.0211 120.671C96.4211 121.101 96.8111 121.521 97.2111 121.951C95.7011 124.441 93.6711 126.431 91.2211 127.991C90.7811 127.581 90.3411 127.171 89.9011 126.761C91.9411 124.731 93.9811 122.701 96.0211 120.671Z" fill="#202020"/>
<path d="M74.5312 71.1008C75.0312 61.7808 76.2512 51.9508 80.0712 42.6208C82.3712 37.0108 85.6112 32.0708 90.4612 28.3308C97.2712 23.0708 105.691 22.2108 111.791 26.0908C117.851 29.9508 120.651 38.6108 118.561 46.9308C116.791 53.9708 112.791 59.4908 107.051 63.8308C98.3112 70.4308 88.3412 74.3408 77.8312 77.0008C74.4312 77.8608 74.3912 77.7108 74.5312 71.1008Z" fill="#0C0A0A"/>
<path d="M74.6211 107.541C71.7211 107.441 69.7811 105.501 69.9911 102.931C70.2111 100.191 73.3311 97.6308 76.2611 97.8108C79.2211 97.9908 80.1211 100.011 80.1711 102.521C80.2311 105.391 77.6211 107.651 74.6211 107.541Z" fill="#0F0F0F"/>
<path d="M76.9011 69.8308C77.4211 60.1708 78.8411 51.0608 82.5911 42.4508C85.2311 36.3908 89.0711 31.3108 95.0111 28.1108C105.981 22.1908 117.121 28.8608 116.981 41.3308C116.901 48.6708 113.821 54.8008 108.451 59.6808C100.171 67.2008 90.1311 71.4408 79.4811 74.1708C74.2211 75.5108 78.0711 70.9108 76.9011 69.8308Z" fill="#FEB6A3"/>
</svg>
