<svg width="1665" height="270" viewBox="0 0 1665 270" fill="none" xmlns="http://www.w3.org/2000/svg">
<path d="M176.166 130.535C164.087 130.182 151.937 130.041 139.858 129.97C139.858 117.891 139.788 105.742 139.435 93.6628L138.87 73.0367C138.751 70.7362 138.648 68.4277 138.546 66.1166C138.342 61.5444 138.138 56.9619 137.81 52.4106H132.018C131.689 56.9619 131.486 61.5444 131.282 66.1166C131.179 68.4277 131.077 70.7362 130.958 73.0367L130.393 93.6628C130.254 99.2448 130.183 104.896 130.113 110.479L130.111 110.686C129.451 109.162 128.798 107.637 128.145 106.114C126.561 102.416 124.98 98.7279 123.329 95.0756L114.924 76.286C113.78 73.8904 112.658 71.4843 111.536 69.0798C109.748 65.2455 107.961 61.4145 106.094 57.6378L100.725 59.8982C102.284 64.5223 103.949 69.1107 105.62 73.7142L105.62 73.7152C106.297 75.581 106.976 77.4494 107.648 79.3234L114.994 98.6074C117.043 103.905 119.162 109.203 121.281 114.43C117.255 110.475 113.158 106.519 109.061 102.563L94.0855 88.365C92.3742 86.8201 90.6709 85.2591 88.9648 83.6956L88.9638 83.6948C85.5999 80.612 82.2252 77.5194 78.7572 74.5201L74.6603 78.6171C77.3001 81.6694 80.0121 84.6253 82.7261 87.5833C84.6598 89.6909 86.595 91.8001 88.5052 93.9454L102.703 108.92C106.588 113.017 110.544 117.114 114.57 121.141C113.392 120.669 112.217 120.198 111.044 119.727L111.042 119.727C106.942 118.082 102.866 116.447 98.7476 114.854L79.4636 107.508C77.5905 106.836 75.7233 106.158 73.8586 105.481L73.855 105.48C69.2513 103.809 64.6627 102.143 60.0383 100.585L57.7779 105.954C61.6567 107.915 65.5917 109.736 69.5298 111.559C71.8311 112.624 74.1334 113.689 76.4262 114.783L95.2157 123.189C98.8682 124.84 102.556 126.421 106.254 128.005L106.256 128.006C107.778 128.658 109.302 129.311 110.827 129.97L110.616 129.973C105.034 130.043 99.3838 130.113 93.803 130.253L73.1769 130.818C70.8769 130.937 68.569 131.039 66.2584 131.142L66.256 131.142C61.684 131.345 57.1018 131.549 52.5508 131.878V137.67C57.1018 137.998 61.684 138.202 66.256 138.405L66.2584 138.405C68.569 138.508 70.8769 138.611 73.1769 138.729L93.803 139.295C103.862 139.589 113.971 139.638 124.047 139.687L124.074 139.687C126.088 139.697 128.1 139.707 130.111 139.718L130.111 139.761C130.181 151.826 130.252 163.961 130.676 176.026L131.311 196.652C131.43 198.953 131.533 201.261 131.635 203.572C131.839 208.144 132.042 212.727 132.371 217.278H137.669C137.997 212.727 138.201 208.144 138.404 203.572C138.507 201.261 138.61 198.953 138.728 196.652L139.364 176.026C139.575 170.269 139.646 164.442 139.716 158.683L139.716 158.681L139.717 158.579C140.23 159.76 140.74 160.938 141.248 162.113L141.255 162.128L141.256 162.131C143.055 166.29 144.84 170.416 146.71 174.543L155.187 193.332C156.176 195.404 157.149 197.484 158.122 199.564L158.123 199.565C160.069 203.724 162.015 207.884 164.087 211.98L168.961 209.932C167.621 205.913 166.202 201.947 164.785 197.985C163.886 195.471 162.987 192.959 162.109 190.436L154.834 171.152C152.785 165.713 150.666 160.274 148.476 154.905C149.523 155.917 150.57 156.933 151.618 157.949L151.627 157.958C154.748 160.986 157.879 164.025 161.05 166.984L176.095 181.112C177.63 182.497 179.158 183.896 180.688 185.295C184.227 188.534 187.774 191.779 191.424 194.886L195.167 191.142C191.947 187.419 188.655 183.803 185.368 180.192L185.363 180.187C184.037 178.73 182.712 177.275 181.393 175.814L167.266 160.768C164.306 157.598 161.268 154.466 158.239 151.345C157.22 150.294 156.201 149.245 155.187 148.195C157.189 148.975 159.182 149.765 161.172 150.553C164.588 151.907 167.997 153.258 171.433 154.552L190.717 161.828C193.122 162.664 195.516 163.529 197.912 164.395L197.913 164.395C201.992 165.869 206.075 167.345 210.213 168.68L212.262 163.806C208.165 161.734 204.006 159.788 199.846 157.841L199.845 157.841C197.765 156.868 195.685 155.894 193.613 154.905L174.824 146.429C169.526 144.027 164.158 141.696 158.86 139.436L158.968 139.434C164.725 139.364 170.551 139.293 176.307 139.083L196.933 138.447C199.234 138.328 201.542 138.226 203.854 138.123C208.426 137.92 213.008 137.716 217.559 137.387V132.09C213.008 131.761 208.426 131.557 203.853 131.354C201.542 131.251 199.234 131.149 196.933 131.03L176.166 130.535Z" fill="#173361"/>
<path fill-rule="evenodd" clip-rule="evenodd" d="M0 134.917C0 60.5362 60.5362 0 134.917 0C209.369 0 269.905 60.5362 269.834 134.917C269.834 209.298 209.298 269.834 134.917 269.834C60.5362 269.834 0 209.298 0 134.917ZM12.5734 134.917C12.5734 202.376 67.4586 257.261 134.917 257.261C202.376 257.261 257.261 202.376 257.261 134.917C257.261 67.4586 202.376 12.5734 134.917 12.5734C67.4586 12.5734 12.5734 67.4586 12.5734 134.917Z" fill="#173361"/>
<path fill-rule="evenodd" clip-rule="evenodd" d="M660.676 134.432C660.676 170.881 631.291 199.913 594.842 199.913C558.393 199.913 529.008 170.881 529.008 134.432C529.008 97.9831 558.393 68.9512 594.842 68.9512C631.291 68.9512 660.676 97.9831 660.676 134.432ZM645.842 134.432C645.842 105.824 623.521 82.7254 594.912 82.7254C566.304 82.7254 543.912 105.824 543.912 134.432C543.912 163.04 566.234 186.138 594.842 186.138C623.45 186.138 645.842 163.111 645.842 134.432Z" fill="#173361"/>
<path d="M478.861 152.519H494.119C488.185 180.986 464.946 200.129 433.865 200.129C397.416 200.129 368.031 171.874 368.031 134.507C368.031 97.1395 397.416 69.0259 433.865 69.0259C464.946 69.0259 488.185 88.0273 494.119 116.423H478.861C473.634 95.7974 456.893 82.7295 433.865 82.7295C405.257 82.7295 382.936 104.839 382.936 134.436C382.936 164.033 405.257 186.354 433.865 186.354C456.893 186.354 473.634 172.933 478.861 152.519Z" fill="#173361"/>
<path d="M811.355 197.645V71.2046H796.663V172.216L715.359 71.2046H703.492V197.645H718.185V97.9761L799.065 197.645H811.355Z" fill="#173361"/>
<path d="M878.927 84.767V131.246H943.277V144.879H878.927V197.645H864.234V71.2046H951.048V84.767H878.927Z" fill="#173361"/>
<path d="M1086.28 197.645V184.083H1016.56V71.2046H1001.87V197.645H1086.28Z" fill="#173361"/>
<path d="M1226.28 143.537C1226.28 177.231 1204.73 199.906 1172.17 199.906C1139.61 199.906 1118.06 177.231 1118.06 143.537V71.2046H1132.76V143.537C1132.76 168.26 1148.37 186.131 1172.17 186.131C1195.76 186.131 1211.59 168.26 1211.59 143.537V71.2046H1226.28V143.537Z" fill="#173361"/>
<path d="M1292.54 128.138V84.767H1366.35V71.2046H1277.84V197.645H1366.35V184.083H1292.54V141.701H1358.94V128.138H1292.54Z" fill="#173361"/>
<path d="M1518.13 71.2046V197.645H1505.84L1424.96 97.9761V197.645H1410.27V71.2046H1422.21L1503.44 172.216V71.2046H1518.13Z" fill="#173361"/>
<path d="M1557.13 84.767V71.2046H1665V84.767H1618.38V197.645H1603.68V84.767H1557.13Z" fill="#173361"/>
</svg>
