<svg width="424" height="377" viewBox="0 0 424 377" fill="none" xmlns="http://www.w3.org/2000/svg">
<path d="M242.25 110.35C247.85 110.35 253.45 112.45 257.65 116.75L270.25 129.35L257.65 116.75C253.45 112.45 247.85 110.35 242.25 110.35V110.35Z" fill="url(#paint0_linear)"/>
<path d="M119.05 125.55C133.05 111.55 155.85 111.55 169.85 125.55L180.45 136.15L213.35 103.25C229.25 87.35 255.25 87.35 271.15 103.25L283.75 115.85L315.35 84.25L246.45 15.35C226.65 -4.45 194.15 -4.45 174.25 15.35L32.15 157.65C15.25 174.45 12.85 200.45 24.65 220.05L25.05 219.65L119.05 125.55Z" fill="url(#paint1_linear)"/>
<path d="M304.75 249.35C290.75 263.35 267.95 263.35 253.95 249.35L241.45 236.75L199.95 278.25C184.05 294.15 158.05 294.15 142.15 278.25L131.45 267.55L100.65 298.35L163.95 361.65C183.75 381.45 216.25 381.45 236.15 361.65L378.45 219.45C393.25 204.65 397.05 182.75 389.75 164.45L385.15 169.05L304.75 249.35V249.35Z" fill="url(#paint2_linear)"/>
<path d="M186.45 264.75C184.35 266.85 181.85 268.45 179.25 269.55C176.65 270.65 173.85 271.15 171.05 271.15C165.45 271.15 159.85 269.05 155.65 264.75L144.95 254.05L132.65 241.75C128.35 237.45 126.25 231.95 126.25 226.35C126.25 223.55 126.75 220.75 127.85 218.15C128.95 215.55 130.55 213.05 132.65 210.95L193.95 149.65L226.85 116.75C230.05 113.55 233.95 111.55 238.15 110.75C239.55 110.45 240.95 110.35 242.35 110.35C247.95 110.35 253.55 112.45 257.75 116.75L270.35 129.35L283.85 115.85L271.25 103.25C255.35 87.35 229.35 87.35 213.45 103.25L180.45 136.15L119.15 197.45C116.15 200.45 113.75 203.75 111.85 207.35C111.25 208.55 110.65 209.75 110.15 210.95C105.65 222.05 106.25 234.65 111.85 245.35C113.75 248.95 116.15 252.25 119.15 255.25L131.45 267.55L142.15 278.25C158.05 294.15 184.05 294.15 199.95 278.25L241.45 236.75L227.95 223.25L186.45 264.75V264.75Z" fill="white"/>
<path d="M385.05 169.05L389.65 164.45C387.95 160.25 385.65 156.25 382.85 152.45C383.85 157.95 384.55 163.45 385.05 169.05Z" fill="#2C256C"/>
<path d="M25.05 219.55L24.65 219.95C24.95 220.45 25.15 220.95 25.45 221.35C25.35 220.85 25.15 220.25 25.05 219.55V219.55Z" fill="#5B2D82"/>
<path d="M227.55 172.15L270.35 129.35L257.75 116.75C253.45 112.45 247.95 110.35 242.35 110.35C240.95 110.35 239.55 110.45 238.15 110.75C234.05 111.55 230.05 113.55 226.85 116.75L193.95 149.65L196.25 151.95C210.25 165.95 210.25 188.75 196.25 202.75L144.85 254.15L155.55 264.85C159.85 269.15 165.35 271.25 170.95 271.25C173.75 271.25 176.55 270.75 179.15 269.65C181.75 268.55 184.25 266.95 186.35 264.85L227.85 223.35L227.45 222.95C213.55 208.95 213.55 186.15 227.55 172.15V172.15Z" fill="url(#paint3_linear)"/>
<path d="M227.55 172.15L270.35 129.35L257.75 116.75C253.45 112.45 247.95 110.35 242.35 110.35C240.95 110.35 239.55 110.45 238.15 110.75C234.05 111.55 230.05 113.55 226.85 116.75L193.95 149.65L196.25 151.95C210.25 165.95 210.25 188.75 196.25 202.75L144.85 254.15L155.55 264.85C159.85 269.15 165.35 271.25 170.95 271.25C173.75 271.25 176.55 270.75 179.15 269.65C181.75 268.55 184.25 266.95 186.35 264.85L227.85 223.35L227.45 222.95C213.55 208.95 213.55 186.15 227.55 172.15V172.15Z" fill="url(#paint4_linear)"/>
<path d="M186.45 264.75C184.35 266.85 181.85 268.45 179.25 269.55C181.85 268.55 184.35 266.95 186.45 264.75Z" fill="white"/>
<path d="M186.45 264.75C184.35 266.85 181.85 268.45 179.25 269.55C181.85 268.55 184.35 266.95 186.45 264.75Z" fill="url(#paint5_linear)"/>
<path d="M144.95 254.15L155.65 264.85C159.95 269.15 165.45 271.25 171.05 271.25C165.45 271.25 159.85 269.15 155.65 264.85L144.95 254.15Z" fill="white"/>
<path d="M144.95 254.15L155.65 264.85C159.95 269.15 165.45 271.25 171.05 271.25C165.45 271.25 159.85 269.15 155.65 264.85L144.95 254.15Z" fill="url(#paint6_linear)"/>
<path d="M226.85 116.75C230.05 113.55 233.95 111.55 238.15 110.75C233.95 111.55 229.95 113.55 226.85 116.75Z" fill="white"/>
<path d="M226.85 116.75C230.05 113.55 233.95 111.55 238.15 110.75C233.95 111.55 229.95 113.55 226.85 116.75Z" fill="url(#paint7_linear)"/>
<path d="M32.15 229.75C29.55 227.15 27.35 224.35 25.45 221.45C25.15 220.95 24.85 220.45 24.65 220.05L11.15 233.55C-2.85 247.55 -2.85 270.35 11.15 284.35L37.45 310.75C48.75 322.05 65.75 324.25 79.25 317.35C82.45 315.65 85.55 313.55 88.25 310.75L96.65 302.35L99.65 299.35L100.65 298.35L32.15 229.75V229.75Z" fill="#2C256C"/>
<path d="M119.15 255.25C116.15 252.25 113.75 248.95 111.85 245.35C106.25 234.65 105.65 222.05 110.15 210.95C110.65 209.75 111.25 208.55 111.85 207.35C113.75 203.75 116.15 200.45 119.15 197.45L180.45 136.15L169.85 125.55C155.85 111.55 133.05 111.55 119.05 125.55L25.05 219.55C25.15 220.15 25.35 220.75 25.45 221.45C27.35 224.35 29.55 227.15 32.15 229.75L100.75 298.35L131.55 267.55L119.15 255.25V255.25Z" fill="#5B2D82"/>
<path d="M110.15 210.95C105.65 222.05 106.25 234.65 111.85 245.35C106.25 234.65 105.65 222.05 110.15 210.95V210.95ZM144.95 254.15L196.35 202.75C210.35 188.75 210.35 165.95 196.35 151.95L194.05 149.65L132.75 210.95C130.65 213.05 129.05 215.55 127.95 218.15C126.85 220.75 126.35 223.55 126.35 226.35C126.35 231.95 128.45 237.55 132.75 241.75L144.95 254.15V254.15Z" fill="#5B2D82"/>
<path d="M132.55 241.75C128.25 237.45 126.15 231.95 126.15 226.35C126.25 231.95 128.35 237.55 132.55 241.75L144.85 254.05L132.55 241.75ZM132.65 210.95C130.55 213.05 128.95 215.55 127.85 218.15C128.85 215.55 130.45 213.05 132.65 210.95Z" fill="#5B2D82"/>
<path d="M270.35 129.35L227.55 172.15C213.55 186.15 213.55 208.95 227.55 222.95L227.95 223.35L280.65 170.65C283.85 167.45 285.85 163.55 286.65 159.35C286.95 157.95 287.05 156.55 287.05 155.15C287.05 149.55 284.95 143.95 280.65 139.75L270.35 129.35V129.35Z" fill="#2C256C"/>
<path d="M280.65 170.55C283.85 167.35 285.85 163.45 286.65 159.25C285.85 163.45 283.85 167.35 280.65 170.55Z" fill="#2C256C"/>
<path d="M280.65 139.75C284.95 144.05 287.05 149.55 287.05 155.15C287.05 149.55 284.95 143.95 280.65 139.75L270.25 129.35L280.65 139.75ZM294.15 184.05C298.15 180.05 301.15 175.45 303.15 170.55C301.15 175.45 298.15 180.05 294.15 184.05Z" fill="#623393"/>
<path d="M303.15 170.55C303.65 169.35 304.05 168.05 304.45 166.85C308.55 152.95 305.15 137.25 294.15 126.35L283.75 115.95L270.25 129.45L280.65 139.85C284.95 144.15 287.05 149.65 287.05 155.25C287.05 156.65 286.95 158.05 286.65 159.45C285.85 163.55 283.85 167.55 280.65 170.75L227.95 223.45L241.45 236.95L294.15 184.25C298.15 180.05 301.15 175.45 303.15 170.55V170.55ZM412.75 90.45L386.35 64.05C373.15 50.85 352.25 50.05 338.15 61.75C337.25 62.45 336.35 63.25 335.55 64.15L318.55 81.15L315.55 84.15L315.45 84.25L378.45 147.25C380.05 148.85 381.55 150.65 382.85 152.45C385.65 156.15 387.95 160.15 389.65 164.45L412.75 141.35C426.75 127.25 426.75 104.55 412.75 90.45Z" fill="#623393"/>
<path d="M294.15 126.25C305.15 137.25 308.55 152.85 304.45 166.75C304.05 168.05 303.65 169.25 303.15 170.45C301.15 175.35 298.15 179.95 294.15 183.95L241.45 236.75L253.95 249.25C267.95 263.25 290.75 263.25 304.75 249.25L385.05 168.95C384.55 163.35 383.85 157.85 382.85 152.35C381.45 150.55 380.05 148.85 378.45 147.15L315.45 84.15L283.85 115.75L294.15 126.25V126.25Z" fill="#2C256C"/>
<path d="M294.15 126.25C305.15 137.25 308.55 152.85 304.45 166.75C308.55 152.85 305.15 137.25 294.15 126.25L283.75 115.85L294.15 126.25Z" fill="#2C256C"/>
<defs>
<linearGradient id="paint0_linear" x1="89.2227" y1="286.987" x2="303.602" y2="72.6" gradientUnits="userSpaceOnUse">
<stop stop-color="#623393"/>
<stop offset="0.574" stop-color="#452B7C"/>
<stop offset="1" stop-color="#2C256C"/>
</linearGradient>
<linearGradient id="paint1_linear" x1="48.5194" y1="246.285" x2="262.899" y2="31.8982" gradientUnits="userSpaceOnUse">
<stop stop-color="#754FA0"/>
<stop offset="0.181" stop-color="#6E4A99"/>
<stop offset="0.457" stop-color="#5C3F8B"/>
<stop offset="0.791" stop-color="#413079"/>
<stop offset="1" stop-color="#2C256C"/>
</linearGradient>
<linearGradient id="paint2_linear" x1="150.386" y1="348.148" x2="364.765" y2="133.762" gradientUnits="userSpaceOnUse">
<stop stop-color="#754FA0"/>
<stop offset="0.181" stop-color="#6E4A99"/>
<stop offset="0.457" stop-color="#5C3F8B"/>
<stop offset="0.791" stop-color="#413079"/>
<stop offset="1" stop-color="#2C256C"/>
</linearGradient>
<linearGradient id="paint3_linear" x1="99.8591" y1="297.623" x2="314.239" y2="83.236" gradientUnits="userSpaceOnUse">
<stop stop-color="#623393"/>
<stop offset="0.574" stop-color="#452B7C"/>
<stop offset="1" stop-color="#2C256C"/>
</linearGradient>
<linearGradient id="paint4_linear" x1="79.5351" y1="317.948" x2="336.997" y2="60.4774" gradientUnits="userSpaceOnUse">
<stop stop-color="#754FA0"/>
<stop offset="0.181" stop-color="#6E4A99"/>
<stop offset="0.457" stop-color="#5C3F8B"/>
<stop offset="0.791" stop-color="#413079"/>
<stop offset="1" stop-color="#2C256C"/>
</linearGradient>
<linearGradient id="paint5_linear" x1="105.863" y1="344.276" x2="363.326" y2="86.8051" gradientUnits="userSpaceOnUse">
<stop stop-color="#623393"/>
<stop offset="0.574" stop-color="#452B7C"/>
<stop offset="1" stop-color="#2C256C"/>
</linearGradient>
<linearGradient id="paint6_linear" x1="91.1523" y1="329.565" x2="348.614" y2="72.0941" gradientUnits="userSpaceOnUse">
<stop stop-color="#623393"/>
<stop offset="0.574" stop-color="#452B7C"/>
<stop offset="1" stop-color="#2C256C"/>
</linearGradient>
<linearGradient id="paint7_linear" x1="53.9182" y1="292.332" x2="311.38" y2="34.8614" gradientUnits="userSpaceOnUse">
<stop stop-color="#623393"/>
<stop offset="0.574" stop-color="#452B7C"/>
<stop offset="1" stop-color="#2C256C"/>
</linearGradient>
</defs>
</svg>
