<svg width="965" height="155" viewBox="0 0 965 155" fill="none" xmlns="http://www.w3.org/2000/svg">
<path d="M399.252 104.008V64.4082C399.252 63.3747 398.567 62.6865 397.541 62.6865H384.535V47.1903H397.541C398.567 47.1903 399.252 46.5013 399.252 45.4686V20.6756H417.733V45.4686C417.733 46.5013 418.418 47.1903 419.445 47.1903H437.585V62.6865H419.445C418.418 62.6865 417.733 63.3747 417.733 64.4082V99.5322C417.733 116.061 423.552 117.438 431.082 117.438C433.82 117.438 437.927 117.094 440.323 116.749V132.934C437.243 133.278 432.109 133.967 426.29 133.967C419.102 133.623 399.252 133.623 399.252 104.008ZM901.683 113.65L916.743 105.73C920.165 113.65 926.667 118.816 934.197 118.816C940.016 118.816 946.519 116.405 946.519 109.174C946.519 104.353 943.439 101.598 936.251 99.1878L925.983 95.7443C911.609 91.2674 904.421 83.0033 904.421 71.2951C904.421 56.4878 916.743 45.4686 933.513 45.4686C946.861 45.4686 958.155 52.6999 963.631 64.0637L948.572 72.3278C945.15 65.0964 939.674 60.9648 933.171 60.9648C926.667 60.9648 922.219 64.4082 922.219 69.5733C922.219 74.0495 925.641 77.4937 932.486 79.5591L942.754 83.0033C957.813 87.824 965 96.088 965 107.452C965 125.359 949.599 134.656 934.197 134.656C918.796 134.312 906.474 126.391 901.683 113.65ZM844.869 98.1542C844.527 98.4987 844.185 98.8433 844.185 99.1878V132.246H825.36V10H844.185V76.8047C844.185 77.4937 844.527 78.1819 845.211 78.1819C845.896 78.5264 846.58 78.1819 846.923 77.8374L877.383 46.8457H900.314L864.72 83.0033C864.035 83.6915 864.035 84.3805 864.72 85.0687L903.394 132.246H880.463L850.687 95.0553C850.344 94.7108 850.002 94.3663 849.66 94.3663C849.318 94.3663 848.976 94.3663 848.633 94.7108L844.869 98.1542ZM816.119 58.5541L804.14 69.9178C797.295 64.7527 790.45 62.342 782.92 62.342C767.177 62.342 755.54 74.0495 755.54 89.8902C755.54 105.73 767.177 117.438 782.92 117.438C789.766 117.438 796.953 115.028 804.482 109.863L815.093 121.226C799.691 132.59 791.477 134.656 780.867 134.656C768.204 134.656 756.909 130.179 748.694 121.914C740.823 113.995 736.374 102.287 736.374 89.8902C736.374 64.0637 755.198 45.124 781.209 45.124C789.766 45.124 802.429 46.5013 816.119 58.5541ZM727.817 21.7083C727.817 27.9069 722.683 33.0721 716.523 33.0721C710.362 33.0721 705.228 27.9069 705.228 21.7083C705.228 15.5096 710.362 10.3445 716.523 10.3445C722.683 10.3445 727.817 15.5096 727.817 21.7083ZM726.106 132.246H707.282V47.1903H726.106V132.246ZM666.212 95.0553V132.59H647.387V47.5348H665.869V57.865C665.869 58.554 666.212 59.2431 666.896 59.5868C667.581 59.9313 668.265 59.5867 668.607 58.8985C673.398 50.9782 682.297 45.8131 691.881 45.8131C693.25 45.8131 694.276 45.8131 694.961 46.1576V65.4409C693.934 65.0964 692.223 65.0964 690.512 65.0964C675.452 64.7527 666.212 76.4602 666.212 95.0553ZM565.246 89.8902C565.246 74.394 576.883 62.342 591.942 62.342C607.001 62.342 618.638 74.394 618.638 89.8902C618.638 105.386 607.001 117.438 591.942 117.438C576.883 117.438 565.246 105.386 565.246 89.8902ZM566.957 122.259C567.299 122.259 567.299 122.259 567.642 122.259C567.984 122.259 568.668 122.604 569.01 122.948C575.513 130.524 585.097 134.656 596.049 134.656C619.322 134.656 637.12 115.028 637.12 89.8902C637.12 77.4937 633.013 66.4744 625.14 57.865C617.611 49.601 607.001 45.124 595.706 45.124C585.097 45.124 575.171 49.601 568.668 57.5205C568.326 57.8651 567.642 58.2095 566.957 57.865C566.273 57.5205 565.931 57.1769 565.931 56.4878V10.3445H547.106V132.59H565.931V123.981C565.931 122.948 566.273 122.604 566.957 122.259ZM488.923 117.438C474.206 117.438 462.227 105.386 462.227 89.8902C462.227 74.394 473.864 62.342 488.923 62.342C503.982 62.342 515.619 74.394 515.619 89.8902C515.619 105.386 503.64 117.438 488.923 117.438ZM533.074 132.246V47.1903H514.592V55.7988C514.592 56.4878 514.25 57.1768 513.566 57.1768C512.881 57.5205 512.197 57.1768 511.854 56.8323C505.694 49.2565 496.11 45.124 484.816 45.124C461.543 45.124 443.745 64.7527 443.745 89.8902C443.745 115.028 461.885 134.656 484.816 134.656C495.425 134.656 505.351 130.179 511.854 122.259C512.197 121.571 512.881 121.571 513.566 121.914C514.25 122.259 514.592 122.604 514.592 123.293V132.59H533.074V132.246ZM330.459 117.438C315.741 117.438 303.763 105.386 303.763 89.8902C303.763 74.394 315.399 62.342 330.459 62.342C345.175 62.342 357.155 74.394 357.155 89.8902C357.155 105.386 345.175 117.438 330.459 117.438ZM374.61 132.246V47.1903H356.128V55.7988C356.128 56.4878 355.786 57.1768 355.101 57.1768C354.417 57.5205 353.732 57.1768 353.39 56.8323C347.229 49.2565 337.646 45.124 326.352 45.124C303.078 45.124 285.281 64.7527 285.281 89.8902C285.281 115.028 303.421 134.656 326.352 134.656C336.962 134.656 346.887 130.179 353.39 122.259C353.732 121.571 354.417 121.571 355.101 121.914C355.786 122.259 356.128 122.604 356.128 123.293V132.59H374.61V132.246ZM230.52 117.438C215.461 117.438 203.824 105.386 203.824 89.8902C203.824 74.394 215.461 62.342 230.52 62.342C245.237 62.342 257.216 74.394 257.216 89.8902C257.216 105.386 245.237 117.438 230.52 117.438ZM274.671 132.246V10.3445H255.847V56.1433C255.847 56.8323 255.505 57.5205 254.82 57.5205C254.136 57.8651 253.451 57.5205 253.109 57.1768C246.606 49.601 237.023 45.4686 226.071 45.4686C202.797 45.4686 185 65.0964 185 90.2347C185 102.631 189.107 113.65 196.979 122.259C204.509 130.524 215.119 135 226.413 135C237.023 135 246.948 130.524 253.451 122.604C253.793 122.259 254.478 121.915 255.162 122.259C255.847 122.604 256.189 122.948 256.189 123.637V132.59H274.671V132.246Z" fill="black"/>
<path d="M134.526 63.8111L70.893 100.028L3.203 61.4398L0 63.1641V91.1894L70.893 131.718L134.526 95.5008V110.376L70.893 146.593L3.203 108.004L0 109.729V114.472L70.893 155L142 114.472V86.4466L138.797 84.7217L70.893 123.31L7.47348 87.0931V72.434L70.893 108.436L142 67.9069V40.313L138.37 38.3728L70.893 76.7454L10.8899 42.4687L70.893 8.40752L120.433 36.4326L124.917 34.0612V30.612L70.893 0L0 40.313V44.6246L70.893 85.1531L134.526 48.9361V63.8111Z" fill="#FF3621"/>
</svg>
