<svg width="276" height="70" viewBox="0 0 276 70" fill="none" xmlns="http://www.w3.org/2000/svg">
<path fill-rule="evenodd" clip-rule="evenodd" d="M89.8712 49.8327H76.9867V20.1708H89.8712C99.1521 20.1708 103.8 24.8457 103.8 34.1921C103.796 44.6169 99.1521 49.8327 89.8712 49.8327ZM82.4919 45.0578H89.0375C95.2041 45.0578 98.284 41.4371 98.284 34.1887C98.284 28.0186 95.2007 24.9318 89.0375 24.9318H82.4919V45.0578Z" fill="#632CA6"/>
<path fill-rule="evenodd" clip-rule="evenodd" d="M109.567 49.8327H103.91L116.529 20.1708H122.451L135.339 49.8327H129.417L125.676 41.7437H116.157L118.048 36.9723H124.222L119.357 25.831L109.567 49.8327Z" fill="#632CA6"/>
<path fill-rule="evenodd" clip-rule="evenodd" d="M132.228 20.1708H154.779V24.9387H146.26V49.8327H140.755V24.9387H132.228V20.1708Z" fill="#632CA6"/>
<path fill-rule="evenodd" clip-rule="evenodd" d="M157.611 49.8327H151.954L164.574 20.1708H170.496L183.384 49.8327H177.455L173.713 41.7437H164.195L166.086 36.9723H172.26L167.399 25.831L157.611 49.8327Z" fill="#632CA6"/>
<path fill-rule="evenodd" clip-rule="evenodd" d="M199.923 49.8327H187.039V20.1708H199.923C209.211 20.1708 213.852 24.8457 213.852 34.1921C213.852 44.6169 209.211 49.8327 199.923 49.8327ZM192.547 45.0578H199.093C205.256 45.0578 208.346 41.4371 208.346 34.1887C208.346 28.0186 205.26 24.9318 199.093 24.9318H192.547V45.0578Z" fill="#632CA6"/>
<path fill-rule="evenodd" clip-rule="evenodd" d="M217.583 35.0431C217.583 24.9835 222.561 19.9572 232.51 19.9572C242.308 19.9572 247.2 24.9835 247.2 35.0431C247.2 45.0441 242.304 50.0463 232.51 50.0463C223.002 50.0463 218.027 45.0441 217.583 35.0431ZM232.51 45.2645C238.491 45.2645 241.485 41.816 241.485 34.9122C241.485 28.1185 238.491 24.7182 232.51 24.7182C226.371 24.7182 223.302 28.1185 223.302 34.9122C223.302 41.816 226.371 45.2645 232.51 45.2645Z" fill="#632CA6"/>
<path fill-rule="evenodd" clip-rule="evenodd" d="M270.182 37.8301V44.7753C268.911 45.1061 267.774 45.2714 266.771 45.2714C260.036 45.2714 256.674 41.7092 256.674 34.5883C256.674 28.0117 260.243 24.7286 267.378 24.7286C270.357 24.7286 273.127 25.2832 275.69 26.3891V21.4076C273.127 20.4429 270.216 19.9572 266.961 19.9572C256.291 19.9572 250.955 24.8319 250.955 34.5883C250.955 44.889 256.198 50.0463 266.688 50.0463C270.295 50.0463 273.293 49.5226 275.69 48.4684V32.9485H266.795L264.935 37.8267L270.182 37.8301Z" fill="#632CA6"/>
<path fill-rule="evenodd" clip-rule="evenodd" d="M54.7316 49.6639L48.9198 45.833L44.0726 53.9288L38.4365 52.2821L33.4722 59.8578L33.7271 62.2417L60.7122 57.2705L59.1447 40.4104L54.7316 49.6639ZM29.5655 42.3982L33.8959 41.8022C34.5953 42.1157 35.0845 42.2363 35.9251 42.4499C37.2342 42.791 38.7465 43.1183 40.9893 41.9883C41.5095 41.7299 42.5981 40.7343 43.0356 40.1693L60.7742 36.9516L62.5829 58.8518L32.1941 64.3294L29.5655 42.3982ZM62.514 34.5056L60.7639 34.8398L57.4015 0.0861206L0.0861816 6.73162L7.14854 64.0332L13.8561 63.0582C13.3221 62.2934 12.4849 61.3667 11.0621 60.1816C9.08466 58.5418 9.784 55.7513 10.9519 53.9908C12.4918 51.0178 20.4395 47.2351 19.9882 42.4809C19.8263 40.7515 19.5507 38.5019 17.9453 36.9585C17.8868 37.5993 17.9936 38.2159 17.9936 38.2159C17.9936 38.2159 17.3356 37.3754 17.0048 36.2282C16.6775 35.7872 16.4226 35.6494 16.0747 35.0603C15.8266 35.739 15.8611 36.5279 15.8611 36.5279C15.8611 36.5279 15.3236 35.2532 15.2341 34.1783C14.9137 34.6607 14.8344 35.5736 14.8344 35.5736C14.8344 35.5736 14.1351 33.5651 14.2936 32.4834C13.9732 31.5429 13.0258 29.6757 13.2945 25.4314C15.0446 26.6578 18.8962 26.365 20.3948 24.1532C20.8943 23.4195 21.2354 21.4213 20.1467 17.4836C19.4474 14.9584 17.718 11.1964 17.0427 9.76671L16.9635 9.82528C17.3183 10.9759 18.0521 13.384 18.3346 14.5553C19.1855 18.1003 19.4129 19.3336 19.0133 20.9666C18.6722 22.3859 17.8592 23.3161 15.7922 24.3565C13.7251 25.4004 10.9829 22.8614 10.8072 22.7236C8.79872 21.125 7.245 18.5137 7.07275 17.2459C6.8936 15.8576 7.872 15.0239 8.36809 13.8904C7.66185 14.0937 6.87293 14.452 6.87293 14.452C6.87293 14.452 7.81343 13.477 8.97441 12.6364C9.45672 12.3195 9.73577 12.1162 10.2422 11.6959C9.5084 11.6856 8.9124 11.7028 8.9124 11.7028C8.9124 11.7028 10.1354 11.0414 11.4032 10.5625C10.4765 10.5212 9.58763 10.5556 9.58763 10.5556C9.58763 10.5556 12.3161 9.33608 14.4693 8.44037C15.9506 7.83404 17.3976 8.01318 18.2106 9.18795C19.2786 10.7279 20.3982 11.565 22.7753 12.0852C24.236 11.4376 24.677 11.1068 26.5097 10.6073C28.122 8.83311 29.3898 8.60229 29.3898 8.60229C29.3898 8.60229 28.7628 9.17761 28.594 10.0837C29.5104 9.36364 30.5129 8.76076 30.5129 8.76076C30.5129 8.76076 30.1236 9.23962 29.7619 10.001L29.8445 10.125C30.9125 9.48422 32.1665 8.98124 32.1665 8.98124C32.1665 8.98124 31.8082 9.43599 31.3879 10.0216C32.1941 10.0148 33.827 10.0561 34.4575 10.1284C38.1988 10.2111 38.9739 6.13219 40.4105 5.62232C42.2088 4.98154 43.0115 4.59225 46.0742 7.59978C48.7027 10.1836 50.756 14.8034 49.7363 15.8403C48.8819 16.6982 47.1938 15.5062 45.3266 13.1739C44.3379 11.9405 43.5937 10.4833 43.2423 8.62985C42.9461 7.06579 41.7989 6.15975 41.7989 6.15975C41.7989 6.15975 42.4638 7.64456 42.4638 8.95368C42.4638 9.67025 42.5533 12.3436 43.7005 13.8422C43.5868 14.0627 43.5352 14.9274 43.4077 15.0928C42.0745 13.4805 39.2082 12.3264 38.7431 11.9853C40.3244 13.2807 43.9589 16.2572 45.3542 19.1097C46.6736 21.8072 45.895 24.2807 46.5634 24.9215C46.7528 25.1041 49.4021 28.4044 49.912 30.065C50.8008 32.9554 49.9636 35.9939 48.8027 37.8783L45.554 38.3848C45.0786 38.2538 44.7582 38.1849 44.331 37.9403C44.5652 37.5235 45.0338 36.4865 45.0372 36.2729L44.8546 35.9526C43.8418 37.3857 42.1503 38.7775 40.7412 39.5767C38.8981 40.6206 36.776 40.4587 35.3945 40.0315C31.4706 38.8223 27.7603 36.1696 26.868 35.4737C26.868 35.4737 26.8405 36.0283 27.0093 36.1558C27.998 37.272 30.2648 39.2908 32.4559 40.6964L27.7878 41.2097L29.9961 58.3971C29.0177 58.5383 28.8661 58.6072 27.7947 58.7588C26.8508 55.424 25.0456 53.2433 23.0716 51.9755C21.3318 50.8558 18.9306 50.6044 16.6293 51.0591L16.4812 51.2314C18.0797 51.066 19.9676 51.2968 21.9037 52.5232C23.8054 53.7256 25.3384 56.833 25.9034 58.7037C26.6269 61.0945 27.1264 63.6508 25.1799 66.362C23.795 68.2878 19.7574 69.3523 16.4915 67.051C17.3631 68.4532 18.5413 69.6004 20.126 69.814C22.4825 70.1343 24.7183 69.7244 26.2548 68.1466C27.5674 66.7961 28.2667 63.9712 28.0807 60.9981L30.158 60.6984L30.9091 66.0347L65.3182 61.8903L62.514 34.5056ZM41.5784 20.0089C41.4819 20.2293 41.3303 20.3706 41.5577 21.0837L41.5715 21.125L41.6059 21.2181L41.699 21.4317C42.1089 22.2654 42.5568 23.0543 43.3043 23.4573C43.4973 23.4263 43.7005 23.4022 43.9072 23.3919C44.61 23.3609 45.0544 23.4711 45.3369 23.6262C45.361 23.4849 45.3679 23.2817 45.3507 22.9785C45.2956 21.9209 45.5609 20.1225 43.5283 19.1751C42.76 18.8203 41.6852 18.9271 41.3269 19.375C41.3923 19.3819 41.4509 19.3956 41.4957 19.4129C42.0435 19.5989 41.6783 19.7849 41.5784 20.0089ZM47.2765 29.8789C47.0112 29.7308 45.7641 29.7894 44.8891 29.8927C43.2217 30.0891 41.4199 30.6678 41.0237 30.9745C40.3072 31.5291 40.631 32.4972 41.1615 32.8933C42.6498 34.0027 43.952 34.7502 45.3266 34.5676C46.1706 34.4574 46.9148 33.1207 47.4419 31.9046C47.807 31.0709 47.807 30.1718 47.2765 29.8789ZM32.5076 21.318C32.9795 20.8701 30.1649 20.2845 27.9808 21.7727C26.3719 22.8717 26.3202 25.2281 27.8602 26.5613C28.0152 26.6923 28.1427 26.7887 28.2598 26.8645C28.7111 26.6509 29.2244 26.4373 29.8135 26.2478C30.8126 25.924 31.6394 25.7552 32.3215 25.6691C32.6488 25.3039 33.0278 24.6631 32.9313 23.5021C32.8038 21.9209 31.6084 22.1723 32.5076 21.318Z" fill="#632CA6"/>
</svg>
