<svg width="688" height="236" viewBox="0 0 688 236" fill="none" xmlns="http://www.w3.org/2000/svg">
<g clip-path="url(#clip0_103:2)">
<path d="M236.6 123.5C236.6 103.7 224.3 86.3 205.8 79.6C206.6 75.4 207 71.2 207 66.9C207 30 177 0 140.2 0C118.6 0 98.6 10.3 86 27.7C79.8 22.9 72.2 20.3 64.3 20.3C44.7 20.3 28.8 36.2 28.8 55.8C28.8 60.1 29.6 64.3 31 68.2C12.6 74.8 0 92.5 0 112.2C0 132.1 12.4 149.5 30.9 156.2C30.1 160.3 29.7 164.6 29.7 168.9C29.7 205.7 59.6 235.6 96.4 235.6C118 235.6 138 225.2 150.5 207.8C156.7 212.7 164.3 215.4 172.2 215.4C191.8 215.4 207.7 199.5 207.7 179.9C207.7 175.6 206.9 171.4 205.5 167.5C223.9 160.9 236.6 143.2 236.6 123.5Z" fill="white"/>
<path d="M93 101.5L144.8 125.1L197 79.3C197.8 75.5 198.1 71.8 198.1 67.8C198.1 35.6 171.9 9.40002 139.7 9.40002C120.4 9.40002 102.5 18.9 91.6 34.8L82.9 79.9L93 101.5Z" fill="#FED10A"/>
<path d="M39.4 156.3C38.6 160.1 38.3 164 38.3 168C38.3 200.3 64.6 226.5 96.9 226.5C116.3 226.5 134.4 216.9 145.3 200.9L153.9 156L142.4 134L90.4 110.3L39.4 156.3Z" fill="#24BBB1"/>
<path d="M39.1 66.7L74.6 75.1L82.4 34.8C77.6 31.1 71.6 29.1 65.4 29.1C50 29.1 37.4 41.6 37.4 57.1C37.4 60.4 38 63.7 39.1 66.7Z" fill="#EF5098"/>
<path d="M36 75.2C20.2 80.4 9.09998 95.6 9.09998 112.3C9.09998 128.6 19.2 143.1 34.3 148.9L84.1 103.9L75 84.4L36 75.2Z" fill="#17A8E0"/>
<path d="M154.3 200.9C159.2 204.6 165.1 206.7 171.2 206.7C186.6 206.7 199.2 194.2 199.2 178.7C199.2 175.3 198.6 172 197.5 169L162.1 160.7L154.3 200.9Z" fill="#93C83E"/>
<path d="M161.5 151.4L200.5 160.5C216.4 155.3 227.4 140.1 227.4 123.3C227.4 107.1 217.3 92.5 202.2 86.8L151.2 131.5L161.5 151.4Z" fill="#0779A1"/>
<path d="M330.8 165.5L335.5 165L335.8 174.6C323.4 176.3 312.8 177.2 304 177.2C292.3 177.2 284 173.8 279.1 167C274.2 160.2 271.8 149.6 271.8 135.3C271.8 106.7 283.2 92.4 305.9 92.4C316.9 92.4 325.1 95.5 330.5 101.6C335.9 107.7 338.6 117.4 338.6 130.5L337.9 139.8H284.1C284.1 148.8 285.7 155.5 289 159.8C292.3 164.1 297.9 166.3 306 166.3C314.2 166.5 322.4 166.2 330.8 165.5ZM326.4 130.2C326.4 120.2 324.8 113.1 321.6 109C318.4 104.9 313.2 102.8 306 102.8C298.8 102.8 293.3 105 289.7 109.3C286.1 113.6 284.2 120.6 284.1 130.2H326.4Z" fill="black"/>
<path d="M355.6 175.7V58.7H367.8V175.7H355.6Z" fill="black"/>
<path d="M444.9 118.8V158.9C444.9 163 455 163.8 455 163.8L454.4 174.6C445.8 174.6 438.7 175.3 434.4 171.2C424.6 175.5 414.9 177.3 405.1 177.3C397.6 177.3 391.9 175.2 388 170.9C384.1 166.7 382.1 160.6 382.1 152.6C382.1 144.7 384.1 138.8 388.1 135.1C392.1 131.4 398.4 129 407 128.2L432.6 125.8V118.8C432.6 113.3 431.4 109.3 429 106.9C426.6 104.5 423.3 103.3 419.2 103.3H387.1V92.5H418.4C427.6 92.5 434.3 94.6 438.5 98.9C442.8 103.1 444.9 109.8 444.9 118.8ZM394.7 152C394.7 162 398.8 167 407.1 167C414.5 167 421.8 165.8 428.9 163.3L432.6 162V135.1L408.5 137.4C403.6 137.8 400.1 139.2 397.9 141.6C395.7 144 394.7 147.5 394.7 152Z" fill="black"/>
<path d="M492.6 103.4C480.8 103.4 474.8 107.5 474.8 115.8C474.8 119.6 476.2 122.3 478.9 123.9C481.6 125.5 487.8 127.1 497.5 128.8C507.2 130.5 514 132.8 518 135.9C522 138.9 524 144.6 524 153C524 161.4 521.3 167.5 515.9 171.4C510.5 175.3 502.7 177.3 492.3 177.3C485.6 177.3 463.1 174.8 463.1 174.8L463.8 164.2C476.7 165.4 486.1 166.4 492.4 166.4C498.7 166.4 503.5 165.4 506.8 163.4C510.1 161.4 511.8 158 511.8 153.3C511.8 148.6 510.4 145.4 507.6 143.7C504.8 142 498.6 140.4 489 138.9C479.4 137.4 472.6 135.2 468.6 132.2C464.6 129.3 462.6 123.8 462.6 115.9C462.6 108 465.4 102.1 471 98.3C476.6 94.5 483.6 92.6 491.9 92.6C498.5 92.6 521.5 94.3 521.5 94.3V105C509.4 104.3 499.5 103.4 492.6 103.4Z" fill="black"/>
<path d="M583 104.8H557.1V143.8C557.1 153.1 557.8 159.3 559.1 162.2C560.5 165.1 563.7 166.6 568.8 166.6L583.3 165.6L584.1 175.7C576.8 176.9 571.3 177.5 567.5 177.5C559 177.5 553.2 175.4 549.9 171.3C546.6 167.2 545 159.3 545 147.7V104.8H533.4V94.2H545V69.2H557.1V94.0999H583V104.8Z" fill="black"/>
<path d="M600 75.7V61.6H612.2V75.8L600 75.7ZM600 175.7V94.2H612.2V175.7H600Z" fill="black"/>
<path d="M665.2 92.5C668.8 92.5 674.9 93.2 683.5 94.5L687.4 95L686.9 104.9C678.2 103.9 671.8 103.4 667.7 103.4C658.5 103.4 652.2 105.6 648.9 110C645.6 114.4 643.9 122.6 643.9 134.5C643.9 146.4 645.4 154.7 648.5 159.4C651.6 164.1 658 166.4 667.8 166.4L687 164.9L687.5 175C677.4 176.5 669.8 177.3 664.8 177.3C652.1 177.3 643.3 174 638.5 167.5C633.7 161 631.2 150 631.2 134.5C631.2 119 633.8 108.1 639 101.9C644.3 95.7 653 92.5 665.2 92.5Z" fill="black"/>
</g>
<defs>
<clipPath id="clip0_103:2">
<rect width="688" height="236" fill="white"/>
</clipPath>
</defs>
</svg>
