<svg width="60" height="60" viewBox="0 0 60 60" fill="none" xmlns="http://www.w3.org/2000/svg">
<path d="M60 0H0V60H60V0Z" fill="url(#paint0_linear_3-14)"/>
<path d="M30 51.6078C29.8598 51.6091 29.7217 51.5734 29.5997 51.5043L11.2003 40.8802C11.0782 40.81 10.9768 40.7087 10.9064 40.5866C10.8361 40.4645 10.7994 40.3259 10.8 40.185V18.9357C10.7994 18.7947 10.8361 18.656 10.9064 18.5337C10.9768 18.4114 11.0782 18.3099 11.2003 18.2395L28.0003 8.49569C28.1223 8.42555 28.2605 8.38876 28.4011 8.38901C28.5418 8.38926 28.6798 8.42656 28.8014 8.49713C28.9231 8.5677 29.0241 8.66907 29.0941 8.79104C29.164 8.913 29.2008 9.05125 29.2003 9.19189V18.3988C29.2008 18.5398 29.1639 18.6784 29.0937 18.8006C29.0233 18.9229 28.9221 19.0244 28.8 19.095L20.4 23.9984V35.0943L30 40.6381L38.3793 35.8381C38.5009 35.768 38.6388 35.7309 38.7791 35.7309C38.9195 35.7309 39.0574 35.768 39.179 35.8381L47.1786 40.455C47.3019 40.5245 47.4046 40.6256 47.476 40.7479C47.5474 40.87 47.5851 41.0091 47.5851 41.1507C47.5851 41.2923 47.5474 41.4312 47.476 41.5535C47.4046 41.6758 47.3019 41.7769 47.1786 41.8464L30.3983 51.5033C30.2769 51.5722 30.1397 51.6083 30 51.6078ZM12.3983 39.7195L29.9979 49.8874L45.1976 41.0871L38.7983 37.3919L30.3983 42.2633C30.2765 42.3334 30.1385 42.3703 29.9979 42.3703C29.8574 42.3703 29.7193 42.3334 29.5976 42.2633L19.1979 36.256C19.0759 36.1855 18.9746 36.0839 18.9043 35.9616C18.834 35.8394 18.7972 35.7008 18.7976 35.5598V23.5598C18.7971 23.4188 18.8339 23.2801 18.9041 23.1579C18.9745 23.0357 19.0759 22.9342 19.1979 22.8636L27.5979 17.9757V10.576L12.3983 19.3753V39.7195Z" fill="white"/>
<path d="M48.3983 39.1438C48.258 39.1451 48.1199 39.1094 47.9979 39.0403L39.9983 34.44C39.8751 34.3738 39.7747 34.2719 39.7104 34.1477C39.6461 34.0234 39.621 33.8826 39.6383 33.7438V24L31.1979 19.2C31.0758 19.1294 30.9745 19.028 30.9041 18.9057C30.8339 18.7834 30.7971 18.6448 30.7976 18.5038V9.28032C30.7971 9.1393 30.8339 9.00064 30.9041 8.87839C30.9745 8.75614 31.0758 8.65462 31.1979 8.58411C31.3209 8.51837 31.4583 8.48397 31.5978 8.48397C31.7372 8.48397 31.8746 8.51837 31.9976 8.58411L48.7976 18.24C48.9197 18.3106 49.0209 18.4121 49.0912 18.5343C49.1615 18.6566 49.1983 18.7952 49.1979 18.9362V38.3441C49.1979 38.5562 49.1137 38.7596 48.9637 38.9096C48.8137 39.0595 48.6103 39.1438 48.3983 39.1438ZM41.1983 33.2876L47.5976 36.9517V19.4017L32.3979 10.6666V18.0497L40.7979 22.8497C40.9189 22.9197 41.0194 23.0201 41.0897 23.141C41.1598 23.2618 41.1972 23.3989 41.1983 23.5386V33.2876Z" fill="white"/>
<path d="M25.9997 35.593V23.593H27.6052V29.0572L32.8055 23.593H34.9169L29.4879 29.4368L35.3845 35.5972H33.1997L27.6052 29.9923V35.593H25.9997Z" fill="white"/>
<defs>
<linearGradient id="paint0_linear_3-14" x1="-12.4241" y1="72.4241" x2="72.4241" y2="-12.4241" gradientUnits="userSpaceOnUse">
<stop stop-color="#C8511B"/>
<stop offset="1" stop-color="#FF9900"/>
</linearGradient>
</defs>
</svg>
