<svg width="71" height="71" viewBox="0 0 71 71" fill="none" xmlns="http://www.w3.org/2000/svg">
<path d="M35.6438 70.2629C54.8954 70.2629 70.5019 54.5929 70.5019 35.2629C70.5019 15.933 54.8954 0.262939 35.6438 0.262939C16.3922 0.262939 0.785645 15.933 0.785645 35.2629C0.785645 54.5929 16.3922 70.2629 35.6438 70.2629Z" fill="#E21D38"/>
<path d="M34.8429 38.7156C51.958 40.1345 58.5527 44.8643 58.2387 51.3282C57.9247 54.7967 54.6273 58.1075 50.3878 58.4228C45.3632 58.7381 43.0079 56.6886 41.5947 54.4814C40.3386 52.4318 38.9254 50.3823 37.5122 48.1751C37.1982 47.5444 36.5701 48.0174 36.0991 48.3327C34.9999 49.2787 34.0578 50.3823 33.1157 51.3282C32.4876 51.9589 32.6447 52.4318 32.8017 52.9048C33.7438 55.112 34.6859 57.3192 35.628 59.3688C37.1982 60.3147 44.264 61.576 49.4457 61.103C53.0571 60.7877 57.4536 59.3688 61.2221 56.6886C64.8335 53.8508 67.5028 50.067 67.9739 43.9183C68.1309 40.1345 67.5028 36.1931 64.2054 32.567C60.908 28.9408 55.2553 25.9454 43.793 25.1571C44.4211 23.2652 44.8921 21.5309 45.5202 19.7967C52.429 20.112 58.5527 20.585 63.7344 21.2156C64.2054 19.1661 64.3624 17.2742 64.8335 15.3823L63.4203 13.6481C60.751 13.3327 58.2387 12.7021 55.4124 12.3868C51.8009 11.9138 48.0325 11.5985 43.95 11.4409C41.2807 19.0084 38.1403 28.6255 34.8429 38.7156ZM30.2894 9.23364C29.0332 9.23364 27.306 9.54896 24.4797 10.1796C18.356 11.9138 10.8191 16.1706 10.034 23.2652C9.87696 24.3688 9.87696 25.63 9.71994 26.7336C7.99274 26.8913 6.42255 27.049 4.85237 27.2066C4.69535 28.6255 4.69535 29.8868 4.53833 31.3057C6.10852 31.1481 7.6787 31.1481 9.40591 30.9904C9.09187 38.4003 9.40591 45.8102 10.034 52.7472C10.191 53.8508 10.191 54.7967 10.191 55.4273C10.034 56.058 8.93485 56.3733 7.36466 56.3733L9.40591 58.8958C15.3726 59.9994 22.9095 60.7877 30.9175 60.9453C30.9175 60.1571 30.9175 59.3688 30.9175 58.5805C26.2069 58.2652 24.0086 57.6345 23.6946 56.6886C23.3806 55.9003 23.3806 54.7967 23.2235 53.6931C22.9095 46.4408 22.7525 38.558 22.9095 30.5174C25.5788 30.5174 28.2481 30.5174 30.9175 30.3598C32.3306 29.7291 33.5868 29.0985 34.8429 28.4679C34.8429 27.5219 34.8429 26.576 34.8429 25.7877C30.7604 25.7877 26.835 25.9454 22.9095 25.9454C23.0665 22.6345 23.2235 19.4814 23.3806 16.4859C23.5376 14.4363 24.9508 13.0174 26.2069 13.0174C28.4052 12.8598 30.4464 13.8057 32.4876 14.7517C33.5868 15.2246 34.6859 15.8553 35.785 16.3282C36.2561 16.4859 36.8842 16.6436 37.3552 16.1706C37.9833 15.3823 38.6114 14.594 39.2394 13.9634C39.5535 13.4904 39.3965 13.1751 39.2394 13.0174C37.8263 11.9138 36.5701 10.9679 35.157 9.86427C34.3719 9.23364 32.9587 9.23364 31.7026 9.23364C31.2315 9.07599 30.7604 9.23364 30.2894 9.23364Z" fill="white"/>
</svg>
