<svg width="278" height="75" viewBox="0 0 278 75" fill="none" xmlns="http://www.w3.org/2000/svg">
<g clip-path="url(#clip0)">
<path d="M53.4108 32.0989H30.1124C29.5119 32.0989 29.0268 32.5839 29.0268 33.1922V44.5873C29.0268 45.1879 29.5119 45.6806 30.1124 45.6806H39.2054V59.8398C39.2054 59.8398 37.1651 60.5328 31.5214 60.5328C24.8614 60.5328 15.5605 58.0998 15.5605 37.6501C15.5605 17.1928 25.2464 14.5057 34.3394 14.5057C42.2082 14.5057 45.6036 15.8916 47.7595 16.5614C48.437 16.7693 49.0607 16.0918 49.0607 15.4912L51.6631 4.48106C51.6631 4.19618 51.5707 3.85741 51.2473 3.63412C50.3619 2.98737 45.0185 0 31.5137 0C15.9609 0 0 6.62149 0 38.4355C0 70.2572 18.2707 74.9923 33.6695 74.9923C46.4198 74.9923 54.15 69.5411 54.15 69.5411C54.4657 69.364 54.5042 68.9175 54.5042 68.7173V33.1922C54.5042 32.5839 54.0114 32.0989 53.4108 32.0989Z" fill="#100E0F"/>
<path d="M173.514 3.81109C173.514 3.20284 173.037 2.71777 172.436 2.71777H159.317C158.716 2.71777 158.231 3.21054 158.231 3.81109V29.1653H137.781V3.81109C137.781 3.20284 137.296 2.71777 136.696 2.71777H123.576C122.975 2.71777 122.49 3.21054 122.49 3.81109V72.4745C122.49 73.0827 122.975 73.5755 123.576 73.5755H136.696C137.296 73.5755 137.781 73.0827 137.781 72.4745V43.1012H158.231L158.192 72.4668C158.192 73.075 158.677 73.5678 159.278 73.5678H172.429C173.029 73.5678 173.507 73.075 173.514 72.4668V3.81109V3.81109Z" fill="#100E0F"/>
<path d="M78.1723 12.8195C78.1723 8.0921 74.3842 4.27319 69.7107 4.27319C65.0448 4.27319 61.249 8.0921 61.249 12.8195C61.249 17.5393 65.0371 21.3659 69.7107 21.3659C74.3842 21.3736 78.1723 17.5393 78.1723 12.8195Z" fill="#100E0F"/>
<path d="M77.2332 57.9921C77.2332 56.2289 77.2332 26.3013 77.2332 26.3013C77.2332 25.7008 76.7481 25.208 76.1476 25.208H63.0663C62.4657 25.208 61.9268 25.824 61.9268 26.4322C61.9268 26.4322 61.9268 64.5674 61.9268 71.8434C61.9268 73.1753 62.7583 73.5757 63.8362 73.5757C63.8362 73.5757 69.4183 73.5757 75.624 73.5757C76.9175 73.5757 77.2332 72.9444 77.2332 71.8203C77.2332 69.3795 77.2332 59.84 77.2332 57.9921Z" fill="#100E0F"/>
<path d="M223.375 25.3079H210.356C209.755 25.3079 209.27 25.8006 209.27 26.4089V60.0784C209.27 60.0784 205.959 62.496 201.27 62.496C196.574 62.496 195.326 60.3633 195.326 55.7667C195.326 51.1625 195.326 26.4089 195.326 26.4089C195.326 25.8006 194.841 25.3079 194.241 25.3079H181.028C180.436 25.3079 179.943 25.8006 179.943 26.4089C179.943 26.4089 179.943 44.3408 179.943 57.9919C179.943 71.6429 187.55 74.9845 198.021 74.9845C206.606 74.9845 213.535 70.2417 213.535 70.2417C213.535 70.2417 213.866 72.744 214.013 73.0365C214.159 73.3291 214.552 73.6294 214.968 73.6294L223.375 73.5909C223.968 73.5909 224.461 73.0981 224.461 72.4976L224.453 26.4089C224.469 25.8006 223.976 25.3079 223.375 25.3079Z" fill="#100E0F"/>
<path d="M258.97 23.7603C251.571 23.7603 246.543 27.0633 246.543 27.0633V3.81109C246.543 3.20284 246.058 2.71777 245.457 2.71777H232.299C231.698 2.71777 231.213 3.21054 231.213 3.81109V72.4745C231.213 73.0827 231.698 73.5755 232.299 73.5755C232.299 73.5755 241.423 73.5755 241.431 73.5755C241.839 73.5755 242.154 73.3599 242.385 72.9903C242.609 72.6208 242.94 69.8259 242.94 69.8259C242.94 69.8259 248.321 74.9229 258.508 74.9229C270.465 74.9229 277.325 68.8557 277.325 47.6901C277.317 26.5321 266.369 23.7603 258.97 23.7603ZM253.834 62.4498C249.315 62.3112 246.258 60.2632 246.258 60.2632V38.5201C246.258 38.5201 249.284 36.6645 252.987 36.3334C257.676 35.9099 262.196 37.3266 262.196 48.5139C262.188 60.3094 260.148 62.6423 253.834 62.4498Z" fill="#100E0F"/>
<path d="M114.945 25.1924H105.105C105.105 25.1924 105.089 12.1958 105.089 12.1881C105.089 11.6954 104.835 11.449 104.266 11.449H90.8532C90.3297 11.449 90.0525 11.68 90.0525 12.1804V25.6159C90.0525 25.6159 83.3309 27.2405 82.8766 27.3714C82.4224 27.5023 82.0913 27.918 82.0913 28.4185V36.8647C82.0913 37.473 82.5764 37.9581 83.1769 37.9581H90.0525C90.0525 37.9581 90.0525 46.7893 90.0525 58.2691C90.0525 73.36 100.639 74.8383 107.777 74.8383C111.041 74.8383 114.945 73.7911 115.591 73.5525C115.984 73.4062 116.207 73.0058 116.207 72.5669L116.215 63.2814C116.215 62.6732 115.707 62.1881 115.129 62.1881C114.56 62.1881 113.089 62.4191 111.58 62.4191C106.745 62.4191 105.105 60.1709 105.105 57.2605C105.105 54.3501 105.105 37.9581 105.105 37.9581H114.945C115.545 37.9581 116.03 37.4653 116.03 36.8647V26.2934C116.03 25.6852 115.545 25.1924 114.945 25.1924Z" fill="#100E0F"/>
</g>
<defs>
<clipPath id="clip0">
<rect width="277.318" height="75" fill="white"/>
</clipPath>
</defs>
</svg>
