<svg width="230" height="71" viewBox="0 0 230 71" fill="none" xmlns="http://www.w3.org/2000/svg">
<path d="M161.119 17.6945H156.212L156.235 54.2695H176.109V49.7454H161.141L161.119 17.6945V17.6945Z" fill="#8C929D"/>
<path d="M195.022 47.8525C194.236 48.6694 193.291 49.3181 192.247 49.7591C191.202 50.2002 190.079 50.4245 188.945 50.4184C185.209 50.4184 183.701 48.5727 183.701 46.1644C183.701 42.5407 186.222 40.8076 191.578 40.8076C192.739 40.8121 193.897 40.9024 195.045 41.0777V47.8525H195.022ZM189.935 25.6825C186.121 25.6707 182.424 27.0013 179.492 29.4412L181.225 32.4573C183.228 31.2869 185.681 30.1165 189.215 30.1165C193.244 30.1165 195.022 32.1872 195.022 35.6534V37.4315C193.898 37.2551 192.761 37.1648 191.623 37.1614C183.025 37.1614 178.659 40.1774 178.659 46.4795C178.659 52.129 182.125 54.9649 187.369 54.9649C190.903 54.9649 194.302 53.3444 195.472 50.711L196.372 54.2897H199.839V35.5633C199.816 29.6438 197.25 25.6825 189.935 25.6825V25.6825Z" fill="#8C929D"/>
<path d="M215.671 50.585C213.825 50.585 212.204 50.3599 210.989 49.7972V32.894C212.655 31.4985 214.725 30.4856 217.359 30.4856C222.108 30.4856 223.931 33.8393 223.931 39.2636C223.931 46.9612 220.982 50.585 215.671 50.585V50.585ZM217.741 25.6915C216.468 25.6837 215.208 25.9465 214.043 26.4625C212.879 26.9786 211.838 27.7362 210.989 28.685V23.9539L210.967 17.6968H206.172L206.195 53.3714C208.603 54.3843 211.889 54.9245 215.468 54.9245C224.629 54.9245 229.04 49.0725 229.04 38.9665C229.018 30.9763 224.944 25.687 217.741 25.687" fill="#8C929D"/>
<path d="M107.694 21.6626C112.038 21.6626 114.852 23.1031 116.675 24.5661L118.791 20.8973C115.932 18.3765 112.061 17.026 107.92 17.026C97.476 17.026 90.161 23.3957 90.161 36.2475C90.161 49.7071 98.0612 54.9514 107.087 54.9514C110.821 54.96 114.521 54.2414 117.98 52.8357L117.868 38.4533V33.9293H104.467V38.4533H113.02L113.132 49.3695C112.007 49.9322 110.071 50.3824 107.438 50.3824C100.19 50.3824 95.3288 45.8133 95.3288 36.2025C95.3063 26.4117 100.325 21.6626 107.685 21.6626" fill="#8C929D"/>
<path d="M142.251 17.69H137.456L137.479 23.8346V45.0593C137.479 50.9788 140.045 54.9402 147.36 54.9402C148.349 54.9427 149.336 54.8523 150.308 54.6701V50.3711C149.571 50.4828 148.826 50.5355 148.08 50.5287C144.051 50.5287 142.273 48.458 142.273 44.9918V30.3618H150.308V26.3555H142.28L142.257 17.69H142.251Z" fill="#8C929D"/>
<path d="M125.264 54.2695H130.058V26.36H125.264V54.2695Z" fill="#8C929D"/>
<path d="M125.264 22.5112H130.058V17.717H125.264V22.5112Z" fill="#8C929D"/>
<path d="M75.8821 41.017L71.6259 27.9355L63.2035 1.98867C63.1066 1.6992 62.9211 1.44751 62.6733 1.26919C62.4255 1.09088 62.128 0.994934 61.8227 0.994934C61.5174 0.994934 61.2199 1.09088 60.9721 1.26919C60.7243 1.44751 60.5388 1.6992 60.4419 1.98867L52.024 27.9198H24.0379L15.6156 1.98867C15.5186 1.6992 15.3331 1.44751 15.0854 1.26919C14.8376 1.09088 14.54 0.994934 14.2347 0.994934C13.9295 0.994934 13.6319 1.09088 13.3841 1.26919C13.1363 1.44751 12.9508 1.6992 12.8539 1.98867L4.44727 27.9198L0.188819 41.017C8.43092e-05 41.5985 -0.000118548 42.2248 0.188238 42.8064C0.376595 43.3881 0.743884 43.8953 1.23768 44.2558L38.0287 70.9949L74.8198 44.2558C75.3157 43.8969 75.6854 43.3904 75.8762 42.8087C76.067 42.227 76.0691 41.5999 75.8821 41.017" fill="#FC6D26"/>
<path d="M38.0378 70.9702L52.024 27.9175H24.047L38.0378 70.9702Z" fill="#E24329"/>
<path d="M38.0287 70.9724L24.038 27.9175H4.4563L38.0287 70.9724Z" fill="#FC6D26"/>
<path d="M4.44056 27.9332L0.182105 41.0147C-0.00662956 41.5962 -0.00683242 42.2225 0.181524 42.8041C0.369881 43.3858 0.737171 43.893 1.23096 44.2535L38.022 70.9949L4.44056 27.9332Z" fill="#FCA326"/>
<path d="M4.44507 27.9332H24.0515L15.6134 2.00216C15.5164 1.71268 15.3309 1.461 15.0832 1.28268C14.8354 1.10436 14.5378 1.00842 14.2325 1.00842C13.9273 1.00842 13.6297 1.10436 13.3819 1.28268C13.1341 1.461 12.9486 1.71268 12.8517 2.00216L4.44507 27.9332Z" fill="#E24329"/>
<path d="M38.0377 70.9724L52.024 27.9175H71.6282L38.0377 70.9724Z" fill="#FC6D26"/>
<path d="M71.6215 27.9332L75.8822 41.0147C76.0709 41.5962 76.0711 42.2225 75.8828 42.8041C75.6944 43.3858 75.3271 43.893 74.8333 44.2535L38.04 70.9701L71.6215 27.9332V27.9332Z" fill="#FCA326"/>
<path d="M71.6327 27.9332H52.024L60.4464 2.00216C60.5434 1.71268 60.7289 1.461 60.9766 1.28268C61.2244 1.10436 61.522 1.00842 61.8273 1.00842C62.1325 1.00842 62.4301 1.10436 62.6779 1.28268C62.9257 1.461 63.1112 1.71268 63.2081 2.00216L71.6305 27.9332H71.6327Z" fill="#E24329"/>
</svg>
