<svg width="135" height="23" viewBox="0 0 135 23" fill="none" xmlns="http://www.w3.org/2000/svg">
<g clip-path="url(#clip0_408_161)">
<path fill-rule="evenodd" clip-rule="evenodd" d="M99.2139 18.6364H106.379V16.7179H101.132V4.5022H99.2139V18.6364ZM114.952 18.6367H116.558V9.12258H114.913V10.3363C114.091 9.47495 112.956 8.96597 111.664 8.96597C108.923 8.96597 106.73 11.1585 106.73 13.8601C106.73 16.5616 108.923 18.7933 111.664 18.7933C112.956 18.7933 114.13 18.2452 114.952 17.423V18.6367ZM111.664 10.8453C113.347 10.8453 114.678 12.2157 114.678 13.8601C114.678 15.5437 113.347 16.8749 111.664 16.8749C109.98 16.8749 108.649 15.5437 108.649 13.8601C108.649 12.2157 110.019 10.8453 111.664 10.8453ZM127.991 13.8598C127.991 16.5614 125.759 18.7931 123.057 18.7931C121.765 18.7931 120.591 18.2449 119.768 17.4227V18.6365H118.163V5.28533H120.043V10.1011C120.826 9.39638 121.883 8.9657 123.057 8.9657C125.759 8.92655 127.991 11.1583 127.991 13.8598ZM126.033 13.8598C126.033 12.2154 124.663 10.845 123.018 10.845C121.374 10.845 120.003 12.1762 120.003 13.8598C120.003 15.5042 121.374 16.8354 123.018 16.8354C124.663 16.8354 126.033 15.5042 126.033 13.8598ZM133.667 11.1973L134.489 9.78775C133.706 9.31792 132.845 8.92639 131.748 9.00469C129.947 9.00469 128.577 10.101 128.577 11.6671C128.577 13.3256 130.097 13.9582 131.04 14.351L131.083 14.3686C132.414 14.8776 133.001 15.23 133.001 15.8956C133.001 16.4437 132.571 17.031 131.631 17.031C130.848 17.031 129.83 16.6004 129.282 16.2871L128.538 17.8532C129.36 18.3622 130.535 18.8321 131.709 18.8321C133.628 18.8321 134.998 17.4617 134.998 15.8956C134.998 14.3295 133.667 13.3115 132.14 12.7634C132.084 12.7425 132.029 12.722 131.975 12.7018C131.115 12.3816 130.456 12.1366 130.456 11.5105C130.456 10.9232 131.083 10.5708 131.827 10.5708C132.571 10.5708 133.275 10.9623 133.667 11.1973Z" fill="black"/>
<path d="M20.3595 9.74907C20.3204 9.3967 20.2812 8.96601 20.1246 8.49618C20.0071 8.02634 19.8114 7.51736 19.5373 6.96922C19.2632 6.42108 18.9109 5.87293 18.4802 5.32479C18.3236 5.12903 18.1278 4.89411 17.8929 4.69835C18.2061 3.44546 17.5014 2.38833 17.5014 2.38833C16.3268 2.31002 15.5437 2.7407 15.2696 2.97562C15.2305 2.97562 15.1913 2.93647 15.113 2.89731C14.9173 2.81901 14.7215 2.7407 14.4866 2.6624C14.2517 2.58409 14.0559 2.54494 13.821 2.46663C13.5861 2.42748 13.3511 2.38833 13.1554 2.34917C13.1162 2.34917 13.0771 2.34917 13.0379 2.34917C12.5289 0.704752 11.0411 0 11.0411 0C9.3967 1.05713 9.08348 2.50579 9.08348 2.50579C9.08348 2.50579 9.08348 2.54494 9.08348 2.58409C9.00517 2.62324 8.88771 2.62324 8.8094 2.6624C8.69194 2.70155 8.57448 2.7407 8.41787 2.77986C8.30041 2.81901 8.18296 2.85816 8.02634 2.93647C7.79143 3.05393 7.51736 3.17138 7.28244 3.28884C7.04752 3.4063 6.81261 3.56291 6.57769 3.71953C6.53854 3.71953 6.53854 3.68037 6.53854 3.68037C4.22852 2.81901 2.19256 3.87614 2.19256 3.87614C1.9968 6.30362 3.09308 7.86973 3.328 8.1438C3.28884 8.30041 3.21054 8.45703 3.17139 8.61364C3.01478 9.16178 2.85816 9.74907 2.77986 10.3364C2.77986 10.4147 2.7407 10.493 2.7407 10.5713C0.626446 11.6284 0 13.7818 0 13.7818C1.76188 15.8178 3.83699 15.9352 3.83699 15.9352C4.11106 16.4051 4.38513 16.8357 4.7375 17.2664C4.89411 17.423 5.05073 17.6188 5.16819 17.7754C4.54174 19.6156 5.24649 21.1426 5.24649 21.1426C7.20413 21.2209 8.49618 20.2812 8.77025 20.0463C8.96601 20.1246 9.16178 20.1637 9.35754 20.2421C9.94483 20.3987 10.5713 20.477 11.1977 20.5161C11.3543 20.5161 11.511 20.5161 11.6676 20.5161H11.7459H11.785H11.8633H11.9416C12.8813 21.8473 14.4866 22.0431 14.4866 22.0431C15.6612 20.8293 15.7003 19.6156 15.7003 19.3415C15.7003 19.3024 15.7003 19.3024 15.7003 19.3024V19.2632C15.9352 19.1066 16.1701 18.9109 16.4051 18.7151C16.8749 18.2844 17.2664 17.8146 17.6188 17.3056C17.658 17.2664 17.6971 17.2273 17.6971 17.149C19.0283 17.2273 19.9288 16.3268 19.9288 16.3268C19.6939 14.9564 18.9108 14.2908 18.7542 14.1734C18.7542 14.1734 18.7542 14.1734 18.7151 14.1734C18.7151 14.095 18.7151 14.0167 18.7151 13.9384C18.7151 13.7818 18.7151 13.6252 18.7151 13.5078V13.312V13.2728V13.2337C18.7151 13.1945 18.7151 13.1945 18.7151 13.1945V13.1162V12.9988C18.7151 12.9596 18.7151 12.9205 18.7151 12.8813C18.7151 12.8422 18.7151 12.803 18.7151 12.7638V12.6464V12.5289C18.6759 12.3723 18.6759 12.2157 18.6368 12.0982C18.4802 11.511 18.2844 10.9628 17.9712 10.4538C17.658 9.94484 17.3056 9.51415 16.8749 9.12263C16.4442 8.7311 15.9744 8.45703 15.4654 8.22211C14.9564 7.98719 14.4474 7.86973 13.8993 7.79143C13.6252 7.75227 13.3903 7.75227 13.1162 7.75227H13.0379H12.9988H12.9596H12.9205H12.8422C12.803 7.75227 12.7638 7.75227 12.7247 7.75227C12.6072 7.75227 12.4506 7.79143 12.3332 7.79143C11.8242 7.86973 11.3152 8.0655 10.8845 8.33957C10.4538 8.61364 10.0623 8.92686 9.74907 9.27924C9.43585 9.63161 9.20093 10.0623 9.04432 10.493C8.88771 10.9237 8.8094 11.3543 8.77025 11.785C8.77025 11.9025 8.77025 11.9808 8.77025 12.0982C8.77025 12.1374 8.77025 12.1374 8.77025 12.1766V12.2549C8.77025 12.294 8.77025 12.3723 8.77025 12.4115C8.8094 12.6072 8.84856 12.8422 8.88771 13.0379C9.00517 13.4294 9.20093 13.7818 9.3967 14.095C9.63161 14.4083 9.90568 14.6432 10.1798 14.8389C10.4538 15.0347 10.7671 15.1913 11.0803 15.2696C11.3935 15.3479 11.6676 15.3871 11.9808 15.3871C12.0199 15.3871 12.0591 15.3871 12.0982 15.3871H12.1374H12.1766C12.2157 15.3871 12.2549 15.3871 12.2549 15.3871C12.2549 15.3871 12.2549 15.3871 12.294 15.3871H12.3332H12.3723C12.4115 15.3871 12.4506 15.3871 12.4898 15.3871C12.5289 15.3871 12.5681 15.3871 12.6072 15.3479C12.6855 15.3479 12.7247 15.3088 12.803 15.3088C12.9205 15.2696 13.0379 15.2305 13.1554 15.1522C13.2728 15.113 13.3511 15.0347 13.4686 14.9564C13.5077 14.9564 13.5078 14.9173 13.5469 14.8781C13.6644 14.7998 13.6644 14.6432 13.5861 14.5649C13.5078 14.4866 13.3903 14.4474 13.312 14.5257C13.2728 14.5257 13.2728 14.5649 13.2337 14.5649C13.1554 14.604 13.0771 14.6432 12.9596 14.6823C12.8813 14.7215 12.7638 14.7215 12.6855 14.7606C12.6464 14.7606 12.5681 14.7606 12.5289 14.7606C12.4898 14.7606 12.4898 14.7606 12.4506 14.7606C12.4115 14.7606 12.4115 14.7606 12.3723 14.7606C12.3332 14.7606 12.3332 14.7606 12.294 14.7606C12.2549 14.7606 12.2157 14.7606 12.2157 14.7606H12.1766H12.1374C12.0982 14.7606 12.0983 14.7606 12.0591 14.7606C11.8242 14.7215 11.6284 14.6823 11.3935 14.5649C11.1586 14.4866 10.9628 14.33 10.767 14.1734C10.5713 14.0167 10.4147 13.7818 10.2972 13.5861C10.1798 13.3903 10.0623 13.1162 10.0231 12.8422C9.98399 12.7247 9.98399 12.5681 9.98399 12.4506C9.98399 12.4115 9.98399 12.3723 9.98399 12.3332V12.294V12.2549C9.98399 12.1766 9.98399 12.0982 10.0231 12.0199C10.1406 11.4326 10.4147 10.8845 10.8845 10.4147C11.002 10.2972 11.1194 10.2189 11.2369 10.1014C11.3543 10.0231 11.511 9.94484 11.6284 9.86653C11.785 9.78823 11.9416 9.74907 12.0591 9.70992C12.2157 9.67077 12.3723 9.63161 12.5289 9.63161C12.6072 9.63161 12.6855 9.63161 12.7638 9.63161C12.803 9.63161 12.803 9.63161 12.803 9.63161H12.8813H12.9205H12.9988C13.1554 9.63161 13.3511 9.67077 13.5077 9.70992C13.8601 9.78822 14.1733 9.90568 14.4866 10.1014C15.113 10.4538 15.622 11.002 15.9744 11.6284C16.131 11.9416 16.2485 12.294 16.3268 12.6464C16.3268 12.7247 16.3659 12.8422 16.3659 12.9205V12.9988V13.0771C16.3659 13.1162 16.3659 13.1162 16.3659 13.1554C16.3659 13.1945 16.3659 13.1945 16.3659 13.2337V13.312V13.3903C16.3659 13.4294 16.3659 13.5077 16.3659 13.5469C16.3659 13.6644 16.3659 13.7427 16.3268 13.8601C16.3268 13.9384 16.2876 14.0559 16.2876 14.1342C16.2876 14.2125 16.2484 14.33 16.2093 14.4083C16.1701 14.604 16.0918 14.7998 16.0135 14.9564C15.8569 15.3088 15.6612 15.6612 15.4262 16.0135C14.9564 16.64 14.33 17.1881 13.5861 17.5013C13.2337 17.658 12.8422 17.7754 12.4506 17.8537C12.2549 17.8929 12.0591 17.8929 11.8633 17.932H11.8242H11.785H11.7067H11.6284H11.5893C11.6284 17.932 11.5893 17.932 11.5893 17.932C11.4718 17.932 11.3935 17.932 11.276 17.932C10.8454 17.8929 10.4147 17.8146 10.0231 17.6971C9.63161 17.5797 9.20093 17.423 8.84856 17.2273C8.10465 16.8357 7.43905 16.2876 6.89091 15.622C6.61684 15.3088 6.38192 14.9564 6.22531 14.5649C6.02954 14.1734 5.87294 13.7818 5.75548 13.3903C5.63802 12.9988 5.55972 12.5681 5.55972 12.1766V12.0982V12.0591V11.9808V11.7459V11.7067V11.6284V11.5893C5.55972 11.5501 5.55972 11.4718 5.55972 11.4326C5.55972 11.2369 5.59887 11.002 5.59887 10.8062C5.63802 10.6104 5.67717 10.3755 5.71633 10.1798C5.75548 9.98399 5.79463 9.74907 5.87293 9.55331C5.99039 9.16178 6.14701 8.77025 6.30362 8.37872C6.65599 7.63482 7.08667 6.96922 7.63481 6.46023C7.75227 6.34277 7.90889 6.18616 8.0655 6.0687C8.22211 5.95124 8.37873 5.83378 8.53534 5.75548C8.69195 5.63802 8.84855 5.55971 9.00517 5.48141C9.08347 5.44225 9.16178 5.4031 9.24009 5.36395C9.27924 5.36395 9.31839 5.32479 9.35754 5.32479C9.39669 5.32479 9.43585 5.28564 9.47501 5.28564C9.63162 5.20734 9.82738 5.16818 9.98399 5.08988C10.0231 5.08988 10.0623 5.05072 10.1015 5.05072C10.1406 5.05072 10.1798 5.01157 10.2189 5.01157C10.2972 4.97242 10.4147 4.97242 10.493 4.93327C10.5321 4.93327 10.5713 4.89411 10.6496 4.89411C10.6887 4.89411 10.7279 4.89411 10.8062 4.85496C10.8454 4.85496 10.8845 4.85496 10.9628 4.81581H11.0411H11.1194C11.1586 4.81581 11.1977 4.81581 11.276 4.77665C11.3152 4.77665 11.3935 4.77665 11.4327 4.7375C11.4718 4.7375 11.5501 4.7375 11.5893 4.7375C11.6284 4.7375 11.6676 4.7375 11.7067 4.7375H11.785H11.8242H11.8633C11.9025 4.7375 11.9808 4.7375 12.0199 4.7375H12.0982C12.0982 4.7375 12.1374 4.7375 12.0982 4.7375H12.1374C12.1766 4.7375 12.2157 4.7375 12.2549 4.7375C12.4506 4.7375 12.6072 4.7375 12.803 4.7375C13.1554 4.7375 13.5077 4.77665 13.8601 4.85496C14.5257 4.97242 15.1522 5.20734 15.7395 5.48141C16.3268 5.75548 16.8357 6.10785 17.2664 6.49938C17.3056 6.53853 17.3056 6.53853 17.3447 6.57769C17.3839 6.61684 17.3839 6.61684 17.423 6.65599C17.4622 6.69515 17.5405 6.7343 17.5796 6.8126C17.6188 6.89091 17.6971 6.89091 17.7363 6.96922C17.7754 7.04752 17.8537 7.08668 17.8929 7.12583C18.0886 7.32159 18.2452 7.51736 18.4019 7.75227C18.7151 8.1438 18.9892 8.57448 19.1849 8.96601C19.1849 9.00517 19.2241 9.00517 19.2241 9.04432C19.2241 9.08347 19.2632 9.08347 19.2632 9.12263C19.3024 9.16178 19.3024 9.20093 19.3415 9.27924C19.3807 9.31839 19.3807 9.35754 19.4198 9.43585C19.459 9.475 19.459 9.51415 19.4981 9.59246C19.5765 9.78823 19.6548 9.94484 19.6939 10.1014C19.7722 10.3755 19.8505 10.6104 19.8897 10.8062C19.9288 10.8845 20.0071 10.9628 20.0854 10.9237C20.1637 10.9237 20.2421 10.8454 20.2421 10.767C20.3987 10.2972 20.3987 10.0231 20.3595 9.74907Z" fill="url(#paint0_linear_408_161)"/>
<path d="M39.4286 11.9027C39.272 15.7397 36.2572 18.7544 32.4594 18.7544C28.4658 18.7544 25.5293 15.5439 25.5293 11.6286C25.5293 7.71331 28.7398 4.46362 32.6551 4.46362C34.417 4.46362 36.1397 5.20753 37.6275 6.57788L36.4921 7.98738C35.3567 7.00856 34.0255 6.34296 32.6943 6.34296C29.8361 6.34296 27.4869 8.69214 27.4869 11.5895C27.4869 14.5259 29.7187 16.7968 32.5377 16.7968C35.0826 16.7968 37.0794 14.9566 37.4709 12.5291H31.7154V10.8455H39.5069L39.4286 11.9027Z" fill="black"/>
<path d="M46.0849 10.9629H45.0278C43.8532 10.9629 42.9135 11.9026 42.9135 13.0772V18.6369H41.0342V9.16187H42.6003V9.94491C43.1093 9.43593 43.9315 9.16187 44.832 9.16187H46.868L46.0849 10.9629Z" fill="black"/>
<path d="M56.4205 18.6365H54.8152V17.4228C53.5623 18.6365 51.6047 19.2238 49.6079 18.3624C48.12 17.6968 47.0238 16.3656 46.7497 14.7604C46.1624 11.7456 48.5116 9.00488 51.5263 9.00488C52.7792 9.00488 53.9538 9.51387 54.776 10.3361V9.12234H56.4205V18.6365ZM54.4628 14.6037C54.8935 12.6853 53.4448 10.9234 51.5655 10.9234C49.9211 10.9234 48.5899 12.2546 48.5899 13.899C48.5899 15.7392 50.1951 17.1878 52.1136 16.8355C53.2491 16.6397 54.1887 15.7392 54.4628 14.6037Z" fill="black"/>
<path d="M60.2187 8.61346V9.1616H63.2335V10.8452H60.2187V18.6758H58.3394V8.69177C58.3394 6.61666 59.8272 5.36377 61.7065 5.36377H63.9774L63.2335 7.1648H61.7065C60.8843 7.1648 60.2187 7.79125 60.2187 8.61346Z" fill="black"/>
<path d="M73.2957 18.6365H71.6905V17.4228C70.4376 18.6365 68.4799 19.2238 66.4831 18.3624C64.9953 17.6968 63.8991 16.3656 63.625 14.7604C63.0377 11.7456 65.426 9.00488 68.4408 9.00488C69.6937 9.00488 70.8683 9.51387 71.6905 10.3361V9.12234H73.3349L73.2957 18.6365ZM71.3773 14.6037C71.8079 12.6853 70.3593 10.9234 68.4799 10.9234C66.8355 10.9234 65.5043 12.2546 65.5043 13.899C65.5043 15.7392 67.1096 17.1878 69.0281 16.8355C70.1635 16.6397 71.1032 15.7392 71.3773 14.6037Z" fill="black"/>
<path d="M83.4365 13.0376V18.6365H81.5572V13.0376C81.5572 11.863 80.5783 10.9234 79.4429 10.9234C78.2292 10.9234 77.2895 11.863 77.2895 13.0376V18.6365H75.4102V9.16149H76.9763V9.98371C77.6419 9.35726 78.5815 9.00488 79.5212 9.00488C81.7138 9.00488 83.4365 10.8059 83.4365 13.0376Z" fill="black"/>
<path d="M94.5941 18.6365H92.9888V17.4228C91.7359 18.6365 89.7783 19.2238 87.7815 18.3624C86.2937 17.6968 85.1974 16.3656 84.9233 14.7604C84.336 11.7456 86.7244 9.00488 89.7391 9.00488C90.992 9.00488 92.1666 9.51387 92.9888 10.3361V9.12234H94.6332L94.5941 18.6365ZM92.6756 14.6037C93.1063 12.6853 91.6576 10.9234 89.7783 10.9234C88.1339 10.9234 86.8027 12.2546 86.8027 13.899C86.8027 15.7392 88.4079 17.1878 90.3264 16.8355C91.4227 16.6397 92.4015 15.7392 92.6756 14.6037Z" fill="black"/>
</g>
<defs>
<linearGradient id="paint0_linear_408_161" x1="10.2543" y1="28" x2="10.2543" y2="2.5" gradientUnits="userSpaceOnUse">
<stop stop-color="#FFF100"/>
<stop offset="1" stop-color="#F05A28"/>
</linearGradient>
<clipPath id="clip0_408_161">
<rect width="135" height="23" fill="white"/>
</clipPath>
</defs>
</svg>
