<svg width="268" height="80" viewBox="0 0 268 80" fill="none" xmlns="http://www.w3.org/2000/svg">
<g clip-path="url(#clip0_1_29)">
<path fill-rule="evenodd" clip-rule="evenodd" d="M64.8 0C68.776 0 72 3.224 72 7.2V72.8C72 76.776 68.776 80 64.8 80H7.2C3.224 80 0 76.776 0 72.8V7.2C0 3.224 3.224 0 7.2 0H64.8ZM64.8 4H7.2C5.436 4 4 5.435 4 7.2V72.8C4 74.564 5.436 76 7.2 76H64.8C66.565 76 68 74.564 68 72.8V7.2C68 5.435 66.565 4 64.8 4ZM19 52L28 60L19 68V52ZM27 12V34.711C30.994 33.411 36.577 32 42 32C46.945 32 49.905 33.944 51.517 35.575C54.8146 38.91 54.9952 43.1202 55.0003 43.9159L55.0002 68H47V44.11C46.961 42.243 46.062 40 42 40C34.2302 40 25.5571 43.7328 24.7167 44.1029L24.651 44.132L19 46.692V12H27ZM191.995 25C198.552 25 205.37 29.165 205.37 39.15C205.37 49.135 198.552 53.3 191.995 53.3C185.397 53.2975 178.583 49.135 178.583 39.15C178.583 29.1675 185.397 25 191.995 25ZM251.99 25.5175V41.805C251.99 45.5625 253.205 47.2575 256.155 47.2575C259.102 47.2575 260.28 45.5625 260.28 41.805V25.5175H267.5V41.84C267.5 49.0625 264.038 53.1875 256.078 53.1875C248.118 53.1875 244.62 49.0625 244.62 41.84V25.5175H251.99ZM220.94 25.5175V35.3925L228.458 25.5175H237.005L227.83 36.2775L237.815 52.785H229.488L223.04 41.8775L220.94 44.31V52.785H213.57V25.5175H220.94ZM140.25 25.5175V31.635H128.165V36.0575H136.788V41.805H128.165V46.8525H140.878V52.785H120.798V25.5175H140.25ZM159.617 25.5175C166.617 25.5175 170.893 27.84 170.893 34.3975C170.893 38.67 169.087 41.1425 165.512 42.355L171.298 52.7825H163.488L158.217 43.315H156.19V52.7825H148.967V25.5175H159.617ZM94.87 25.5175V35.65H103.935V25.5175H111.305V52.7825H103.935V41.765H94.87V52.7825H87.5V25.5175H94.87ZM191.992 31.0825C188.122 31.0825 185.95 34.14 185.95 39.15C185.95 44.1625 188.125 47.405 191.992 47.405C195.825 47.4025 197.997 44.1625 197.997 39.15C197.997 34.14 195.822 31.0825 191.992 31.0825ZM159.36 31.485H156.193V37.7125H159.36C162.383 37.7125 163.708 36.865 163.708 34.58C163.708 32.295 162.38 31.485 159.36 31.485ZM55 12C54.46 16.544 52.618 20.9 49 25H41C44.144 20.875 46.118 16.534 47 12H55Z" fill="#430098"/>
</g>
<defs>
<clipPath id="clip0_1_29">
<rect width="268" height="80" fill="white"/>
</clipPath>
</defs>
</svg>
