<svg width="145" height="71" viewBox="0 0 145 71" fill="none" xmlns="http://www.w3.org/2000/svg">
<path d="M8.72109 70.0773C6.21344 69.1833 4.1777 67.3167 3.03206 64.8608C2.20817 63.0946 2.01179 60.139 2.58689 58.1607C3.35843 55.5067 5.87856 52.7877 8.39551 51.8938L9.63178 51.4547V49.4654V47.476L8.29557 47.0548C5.62669 46.2135 2.83445 43.8494 1.4027 41.2188C-0.409135 37.8899 -0.409135 33.0086 1.4027 29.6797C2.83445 27.0491 5.62669 24.685 8.29557 23.8437L9.63178 23.4225V21.4332V19.4438L8.39551 19.0047C5.87856 18.1108 3.35843 15.3918 2.58689 12.7378C2.00684 10.7425 2.20795 7.81179 3.05117 5.97171C3.88773 4.14617 5.99729 2.03014 7.84291 1.16527C9.10319 0.574703 9.55278 0.5 11.8469 0.5C14.141 0.5 14.5906 0.574703 15.8508 1.16527C17.6965 2.03014 19.806 4.14617 20.6426 5.97171C21.4858 7.81179 21.6869 10.7425 21.1069 12.7378C20.3342 15.3958 17.815 18.1109 15.2893 19.0079L14.044 19.4502L14.1145 21.3924L14.185 23.3345L15.477 23.6645C17.2041 24.1056 18.4388 24.7608 20.1136 26.1249L21.5073 27.2601L22.5225 26.6968C23.0808 26.387 23.9075 25.9029 24.3595 25.6211L25.1814 25.1087L25.221 22.5261C25.2553 20.2829 25.3479 19.7571 25.9258 18.5239C26.7826 16.6953 28.9036 14.5743 30.7322 13.7175C31.9925 13.1269 32.4421 13.0522 34.7362 13.0522C37.0303 13.0522 37.4799 13.1269 38.7401 13.7175C40.5687 14.5743 42.6897 16.6953 43.5466 18.5239C44.1371 19.7842 44.2119 20.2338 44.2119 22.5279C44.2119 24.822 44.1371 25.2716 43.5466 26.5318C42.6897 28.3604 40.5687 30.4814 38.7401 31.3383C37.4799 31.9288 37.0303 32.0036 34.7362 32.0036C31.8214 32.0036 30.6091 31.607 28.6728 30.0204L27.6158 29.1542L25.755 30.2097L23.8943 31.2652L24.0851 32.2497C24.3327 33.5263 24.331 37.4056 24.0824 38.576L23.8888 39.4877L25.7789 40.5941L27.6691 41.7006L28.6995 40.8562C30.6082 39.2922 31.831 38.895 34.7362 38.895C37.0303 38.895 37.4799 38.9697 38.7401 39.5602C40.5687 40.4171 42.6897 42.5381 43.5466 44.3667C44.1371 45.6269 44.2119 46.0765 44.2119 48.3706C44.2119 50.6647 44.1371 51.1143 43.5466 52.3746C42.6897 54.2032 40.5687 56.3242 38.7401 57.181C37.4799 57.7716 37.0303 57.8463 34.7362 57.8463C32.4421 57.8463 31.9925 57.7716 30.7322 57.181C28.9036 56.3242 26.7826 54.2032 25.9258 52.3746C25.3328 51.1092 25.2605 50.6688 25.2605 48.3231V45.6912L23.5056 44.6928C22.5404 44.1436 21.6805 43.6943 21.5947 43.6943C21.5089 43.6943 20.8269 44.1926 20.0793 44.8016C18.438 46.1384 17.1954 46.7952 15.477 47.234L14.185 47.564L14.1145 49.5062L14.044 51.4483L15.2893 51.8906C17.815 52.7876 20.3342 55.5028 21.1069 58.1607C21.6869 60.156 21.4858 63.0867 20.6426 64.9268C19.7999 66.7657 17.6939 68.8731 15.8508 69.7215C13.9516 70.5959 10.6394 70.7612 8.72109 70.0773ZM13.6392 65.0141C16.5238 63.7799 17.1978 59.8331 14.8922 57.6774C12.0441 55.0144 7.41669 57.0234 7.41669 60.9228C7.41669 63.4313 9.28704 65.3205 11.7933 65.3434C12.3729 65.3487 13.2036 65.2005 13.6392 65.0141ZM36.5285 52.4619C39.4131 51.2277 40.0871 47.2809 37.7815 45.1252C34.9334 42.4622 30.306 44.4712 30.306 48.3706C30.306 50.8791 32.1763 52.7683 34.6826 52.7912C35.2622 52.7965 36.0929 52.6483 36.5285 52.4619ZM14.6929 42.0511C16.3193 41.497 18.2638 39.5525 18.8179 37.9261C19.7474 35.1984 19.1416 32.4978 17.1545 30.5108C14.3382 27.6944 10.0939 27.6944 7.27758 30.5108C5.29055 32.4978 4.68475 35.1984 5.61417 37.9261C6.14434 39.482 8.12074 41.5006 9.63847 42.0363C11.1013 42.5526 13.203 42.5588 14.6929 42.0511ZM36.5285 26.6192C39.4131 25.385 40.0871 21.4382 37.7815 19.2824C34.9334 16.6195 30.306 18.6284 30.306 22.5279C30.306 25.0364 32.1763 26.9255 34.6826 26.9484C35.2622 26.9537 36.0929 26.8056 36.5285 26.6192ZM13.6392 14.067C16.5238 12.8328 17.1978 8.88597 14.8922 6.73023C12.0441 4.06726 7.41669 6.07622 7.41669 9.97568C7.41669 12.4842 9.28704 14.3733 11.7933 14.3962C12.3729 14.4015 13.2036 14.2534 13.6392 14.067ZM76.7576 52.7791C72.578 51.7944 69.6854 47.6257 69.6854 42.5868C69.6854 36.9406 73.1475 32.6744 78.1053 32.2115C80.0812 32.027 81.9436 32.5314 83.6693 33.7185L84.916 34.576L84.992 33.659L85.068 32.7419L87.3446 32.6711L89.6213 32.6004V42.5868V52.5732L87.3446 52.5024L85.068 52.4316L84.9909 51.6317C84.9485 51.1918 84.8645 50.8318 84.8042 50.8318C84.7439 50.8318 84.2344 51.1652 83.6719 51.5726C81.8572 52.8872 79.1911 53.3525 76.7576 52.7791ZM81.5241 48.5828C83.8924 47.7898 85.2771 45.5762 85.2676 42.5981C85.2612 40.5836 84.7894 39.272 83.6403 38.0741C82.4855 36.8701 81.5713 36.4761 79.8802 36.4536C77.7556 36.4254 76.2542 37.3691 75.2269 39.3786C73.7851 42.1992 74.4547 46.0595 76.6803 47.7571C78.0863 48.8295 79.8759 49.1346 81.5241 48.5828ZM131.64 52.6975C128.084 51.7411 125.311 48.0479 124.91 43.7345C124.475 39.0585 126.652 34.7885 130.408 32.9511C131.581 32.3771 132.133 32.2639 133.789 32.2574C136.081 32.2484 137.558 32.7207 139.23 33.9972L140.322 34.8307V33.7155V32.6004L142.599 32.6711L144.876 32.7419V42.5868V52.4316L142.599 52.5024L140.322 52.5732V51.5769V50.5807L138.998 51.4598C136.692 52.9909 134.255 53.4009 131.64 52.6975ZM136.754 48.5897C139.089 47.948 140.791 44.9039 140.479 41.9239C140.238 39.6131 139.195 37.8559 137.576 37.0294C135.487 35.963 133.341 36.2201 131.655 37.7391C130.241 39.0126 129.684 40.3926 129.684 42.6257C129.684 47.0477 132.8 49.6759 136.754 48.5897ZM52.4569 35.4585V18.3438H54.7951H57.1332V28.6158V38.8879L60.2747 35.7534L63.4162 32.6189H66.4277C68.0841 32.6189 69.4393 32.6796 69.4393 32.7539C69.4393 32.8282 67.555 34.7388 65.252 36.9995L61.0648 41.11L65.6394 46.7708L70.214 52.4316L67.442 52.5017C65.9174 52.5402 64.5375 52.5208 64.3754 52.4586C64.2134 52.3965 62.6386 50.5138 60.8759 48.2749C58.4283 45.1661 57.6091 44.279 57.4088 44.5203C57.2554 44.7051 57.1182 46.4124 57.0784 48.634L57.0102 52.4316L54.7335 52.5024L52.4569 52.5732V35.4585ZM94.7078 52.3906C94.6175 52.3004 94.5437 48.8116 94.5437 44.6378V37.049H93.8053H93.067V34.8339V32.6189H93.8053H94.5437L94.5486 28.7424C94.5573 21.8046 95.1557 19.8756 97.7136 18.5393C98.8014 17.971 99.3395 17.8516 100.811 17.8516C101.791 17.8516 102.941 17.9732 103.367 18.1218L104.142 18.392V20.8068V23.2216L103.17 22.7517C102.185 22.2757 100.798 22.1395 100.303 22.4701C99.5643 22.9633 99.3801 23.9924 99.2683 28.2502L99.1537 32.6189H101.648H104.142V34.8339V37.049H101.681H99.22V44.8019V52.5547H97.0459C95.8502 52.5547 94.798 52.4809 94.7078 52.3906ZM107.588 35.4493V18.3438H109.926H112.264V28.6158V38.8879L115.406 35.7534L118.547 32.6189H121.559C123.215 32.6189 124.571 32.7079 124.571 32.8168C124.571 32.9257 122.688 34.8167 120.388 37.019L116.205 41.0232L120.757 46.656C123.261 49.754 125.309 52.3486 125.309 52.4217C125.309 52.4949 123.983 52.5547 122.363 52.5547H119.418L116.156 48.3853C113.656 45.1885 112.821 44.2769 112.58 44.4775C112.348 44.67 112.264 45.771 112.264 48.6469V52.5547H109.926H107.588V35.4493Z" fill="black"/>
</svg>
