<?xml version="1.0" encoding="utf-8"?>
<!-- Generator: Adobe Illustrator 25.4.1, SVG Export Plug-In . SVG Version: 6.00 Build 0)  -->
<svg version="1.1" id="Layer_1" xmlns="http://www.w3.org/2000/svg" xmlns:xlink="http://www.w3.org/1999/xlink" x="0px" y="0px"
	 viewBox="0 0 601 186" style="enable-background:new 0 0 601 186;" xml:space="preserve">
<style type="text/css">
	.st0{fill:#434343;}
	.st1{fill:#9A9A9A;}
	.st2{fill:url(#SVGID_1_);}
	.st3{fill:url(#SVGID_00000091011386439996176750000006487718394525539204_);}
	.st4{fill:url(#SVGID_00000150808138584503115720000013810938605524731266_);}
	.st5{fill:url(#SVGID_00000116203066312761370030000013025073137012118956_);}
	.st6{fill:#FFFFFF;}
	.st7{fill:#2C256C;}
	.st8{fill:#5B2D82;}
	.st9{fill:url(#SVGID_00000173861678908446117010000014863150356552102790_);}
	.st10{fill:url(#SVGID_00000172420197550934532950000005535503454123877812_);}
	.st11{fill:url(#SVGID_00000072251077228125002050000006116962506636573312_);}
	.st12{fill:url(#SVGID_00000011031658656036813190000002284618271008612760_);}
	.st13{fill:url(#SVGID_00000019642603888189128630000013492069559027384745_);}
	.st14{fill:#623393;}
</style>
<path class="st0" d="M279.3,73.3c9.2,0,16,3.1,21.9,8.4c0.5,0.5,0.5,1.2,0.1,1.6l-1.4,1.5c-0.5,0.5-1,0.5-1.5-0.1
	c-5.1-4.6-11.6-7.4-19-7.4c-15.8,0-28.1,12.9-28.1,28.5c0,15.5,12.3,28.3,28.1,28.3c7.7,0,13.6-3.1,19-7.6c0.5-0.4,1.1-0.4,1.4-0.2
	l1.5,1.5c0.4,0.4,0.4,1.1,0,1.5c-6.1,5.9-14,8.7-22,8.7c-18,0-32.6-14.2-32.6-32.3C246.7,87.8,261.3,73.3,279.3,73.3L279.3,73.3z
	 M327.6,100.4c10.1,0,18.1,8.6,18.1,18.8c0,10.5-8,19-18.1,19c-10.2,0-18.1-8.5-18.1-19C309.5,108.9,317.4,100.4,327.6,100.4
	L327.6,100.4z M327.6,134.5c7.9,0,14.1-6.8,14.1-15.3c0-8.3-6.2-15-14.1-15c-8,0-14.2,6.8-14.2,15
	C313.4,127.7,319.6,134.5,327.6,134.5z M356.7,102.4c0-0.6,0.5-1.2,1.2-1.2h1.1c0.5,0,1,0.4,1.1,1l0.4,3.7c0.9-1.3,4.5-5.6,11.3-5.6
	c2.9,0,4.9,0.8,5.6,1.1c0.8,0.3,1.3,0.9,1,1.6l-0.7,1.8c-0.3,0.6-0.8,0.7-1.4,0.4c-0.4-0.2-2.3-1.1-4.7-1.1c-7,0-10.4,5.7-10.7,6.2
	V136c0,0.7-0.4,1.2-1.2,1.2h-1.8c-0.6,0-1-0.5-1-1.2v-33.6H356.7z M400.7,100.4c9.5,0,16.3,6.9,16.3,16.5c0,1.4,0,3.5-1.4,3.5H387
	c0.4,7.7,5.9,14.2,14.1,14.2c4.8,0,8.5-1.9,10.6-3.3c0.8-0.5,1.2-0.6,1.6,0l0.9,1.3c0.3,0.4,0.2,0.9-0.4,1.4
	c-1.8,1.8-7.5,4.2-13.1,4.2c-11,0-17.7-8.5-17.7-19C383,108.9,389.8,100.4,400.7,100.4L400.7,100.4z M413.1,117.1
	c0-7-4.2-13.1-12.3-13.1c-7.9,0-13.2,5.8-13.7,13.1H413.1z"/>
<path class="st1" d="M428.9,75.4c0-0.6,0.5-1.2,1.1-1.2h19.1c17.5,0,31.7,14.1,31.7,31.4c0,17.6-14.2,31.6-31.7,31.6H430
	c-0.5,0-1.1-0.5-1.1-1.2V75.4z M448.4,133.4c15.8,0,27.9-12,27.9-27.7c0-15.6-12.2-27.6-27.9-27.6h-15.2v55.3H448.4L448.4,133.4z
	 M495.4,74.5c0-0.7,0.6-1.2,1.4-1.2h1.5l43.2,56.3h0.1V75.4c0-0.6,0.5-1.2,1.2-1.2h1.8c0.6,0,1.2,0.5,1.2,1.2V137
	c0,0.8-0.7,1.2-1.4,1.2h-1.2c-0.1,0-0.8-0.3-43.6-56.8h-0.1v54.8c0,0.6-0.5,1.2-1.2,1.2h-1.7c-0.6,0-1.2-0.5-1.2-1.2V74.5
	L495.4,74.5z M561.1,128.9l0.8-1.1c0.6-0.7,1.3-1,2-0.4c0.9,0.8,7.6,6.9,16.7,6.9c8.2,0,15.1-5.5,15.1-12.1c0-8-6.6-11.6-17.5-15.3
	c-10.4-3.7-17.4-7.4-17.4-17.7c0-6.8,5.4-15.9,19.5-15.9c8.9,0,15.5,4.6,15.5,4.6c0.4,0.3,1,0.9,0.4,1.9c-0.3,0.4-0.5,0.8-0.7,1.2
	c-0.5,0.7-1.1,1-2,0.4c-0.3-0.2-6.3-4.2-13.2-4.2c-11.1,0-15.2,6.8-15.2,12c0,7.7,5.9,11,15,14c12.3,4.2,20.2,8.6,20.2,19
	c0,9-9.3,16-19.6,16c-10.7,0-17.9-6.3-19.1-7.4C560.8,130.4,560.4,129.9,561.1,128.9L561.1,128.9z"/>
<linearGradient id="SVGID_1_" gradientUnits="userSpaceOnUse" x1="29.455" y1="58.6936" x2="135.3172" y2="164.5604" gradientTransform="matrix(1 0 0 -1 0 185.8898)">
	<stop  offset="0" style="stop-color:#623393"/>
	<stop  offset="0.574" style="stop-color:#452B7C"/>
	<stop  offset="1" style="stop-color:#2C256C"/>
</linearGradient>
<path class="st2" d="M58.7,97.3c-1.5,1.5-2.7,3.1-3.6,4.9C56,100.5,57.2,98.8,58.7,97.3z"/>
<linearGradient id="SVGID_00000171721757184609866680000017989318805670967965_" gradientUnits="userSpaceOnUse" x1="43.8065" y1="44.3431" x2="149.6688" y2="150.2095" gradientTransform="matrix(1 0 0 -1 0 185.8898)">
	<stop  offset="0" style="stop-color:#623393"/>
	<stop  offset="0.574" style="stop-color:#452B7C"/>
	<stop  offset="1" style="stop-color:#2C256C"/>
</linearGradient>
<path style="fill:url(#SVGID_00000171721757184609866680000017989318805670967965_);" d="M119.5,54.3c2.8,0,5.5,1,7.6,3.1l6.2,6.2
	l-6.2-6.2C125,55.4,122.2,54.3,119.5,54.3L119.5,54.3z"/>
<linearGradient id="SVGID_00000031930411237919248360000013991796893422666936_" gradientUnits="userSpaceOnUse" x1="23.6313" y1="64.518" x2="129.4938" y2="170.3839" gradientTransform="matrix(1 0 0 -1 0 185.8898)">
	<stop  offset="0" style="stop-color:#754FA0"/>
	<stop  offset="0.181" style="stop-color:#6E4A99"/>
	<stop  offset="0.457" style="stop-color:#5C3F8B"/>
	<stop  offset="0.791" style="stop-color:#413079"/>
	<stop  offset="1" style="stop-color:#2C256C"/>
</linearGradient>
<path style="fill:url(#SVGID_00000031930411237919248360000013991796893422666936_);" d="M58.6,61.8c6.9-6.9,18.2-6.9,25.1,0
	l5.2,5.2l16.2-16.2c7.9-7.9,20.7-7.9,28.5,0l6.2,6.2l15.6-15.6l-34-34c-9.8-9.8-25.8-9.8-35.6,0L15.7,77.7C7.4,86,6.2,98.8,12,108.5
	l0.2-0.2L58.6,61.8z"/>
<linearGradient id="SVGID_00000111182748153749579370000005785062810590405270_" gradientUnits="userSpaceOnUse" x1="74.0508" y1="14.2388" x2="179.9136" y2="120.1061" gradientTransform="matrix(1 0 0 -1 0 185.8898)">
	<stop  offset="0" style="stop-color:#754FA0"/>
	<stop  offset="0.181" style="stop-color:#6E4A99"/>
	<stop  offset="0.457" style="stop-color:#5C3F8B"/>
	<stop  offset="0.791" style="stop-color:#413079"/>
	<stop  offset="1" style="stop-color:#2C256C"/>
</linearGradient>
<path style="fill:url(#SVGID_00000111182748153749579370000005785062810590405270_);" d="M150.3,122.9c-6.9,6.9-18.2,6.9-25.1,0
	l-6.2-6.2l-20.5,20.5c-7.9,7.9-20.7,7.9-28.5,0l-5.3-5.3l-15.2,15.2l31.3,31.3c9.8,9.8,25.8,9.8,35.6,0l70.2-70.2
	c7.3-7.3,9.2-18.1,5.6-27.2l-2.3,2.3L150.3,122.9L150.3,122.9z"/>
<path class="st6" d="M91.9,130.6c-1.1,1.1-2.3,1.8-3.6,2.4c-1.3,0.5-2.7,0.8-4.1,0.8c-2.8,0-5.5-1-7.6-3.2l-5.3-5.3l-6.1-6.1
	c-2.1-2.1-3.1-4.9-3.1-7.6c0-1.4,0.3-2.8,0.8-4.1s1.3-2.5,2.4-3.6l30.3-30.3l16.2-16.2c1.6-1.6,3.5-2.6,5.6-3
	c0.7-0.1,1.4-0.2,2.1-0.2c2.8,0,5.5,1,7.6,3.1l6.2,6.2l6.7-6.7l-6.2-6.2c-7.9-7.9-20.7-7.9-28.5,0L88.9,67L58.6,97.3
	c-1.5,1.5-2.7,3.1-3.6,4.9c-0.3,0.6-0.6,1.2-0.8,1.8c-2.2,5.5-1.9,11.7,0.8,17c0.9,1.8,2.1,3.4,3.6,4.9l6.1,6.1l5.3,5.3
	c7.9,7.9,20.7,7.9,28.5,0l20.5-20.5l-6.7-6.7L91.9,130.6L91.9,130.6z"/>
<path class="st7" d="M190,83.3l2.3-2.3c-0.8-2.1-2-4.1-3.4-5.9C189.4,77.8,189.7,80.5,190,83.3z"/>
<path class="st8" d="M12.2,108.3l-0.2,0.2c0.1,0.2,0.3,0.5,0.4,0.7C12.3,108.9,12.3,108.6,12.2,108.3z"/>
<linearGradient id="SVGID_00000168795818460302226060000009790636770565612439_" gradientUnits="userSpaceOnUse" x1="49.181" y1="38.9691" x2="155.0438" y2="144.8352" gradientTransform="matrix(1 0 0 -1 0 185.8898)">
	<stop  offset="0" style="stop-color:#623393"/>
	<stop  offset="0.574" style="stop-color:#452B7C"/>
	<stop  offset="1" style="stop-color:#2C256C"/>
</linearGradient>
<path style="fill:url(#SVGID_00000168795818460302226060000009790636770565612439_);" d="M112.2,84.8l21.1-21.1l-6.2-6.2
	c-2.1-2.1-4.9-3.1-7.6-3.1c-0.7,0-1.4,0.1-2.1,0.2c-2,0.4-4,1.4-5.6,3L95.6,73.8l1.2,1.2c6.9,6.9,6.9,18.2,0,25.1l-25.4,25.4
	l5.3,5.3c2.1,2.1,4.9,3.2,7.6,3.2c1.4,0,2.8-0.3,4.1-0.8c1.3-0.5,2.5-1.3,3.6-2.4l20.5-20.5l-0.2-0.2
	C105.3,103,105.3,91.8,112.2,84.8L112.2,84.8z"/>
<linearGradient id="SVGID_00000120519147606066619760000002053137482117796759_" gradientUnits="userSpaceOnUse" x1="39.1444" y1="28.9321" x2="166.2817" y2="156.0735" gradientTransform="matrix(1 0 0 -1 0 185.8898)">
	<stop  offset="0" style="stop-color:#754FA0"/>
	<stop  offset="0.181" style="stop-color:#6E4A99"/>
	<stop  offset="0.457" style="stop-color:#5C3F8B"/>
	<stop  offset="0.791" style="stop-color:#413079"/>
	<stop  offset="1" style="stop-color:#2C256C"/>
</linearGradient>
<path style="fill:url(#SVGID_00000120519147606066619760000002053137482117796759_);" d="M112.2,84.8l21.1-21.1l-6.2-6.2
	c-2.1-2.1-4.9-3.1-7.6-3.1c-0.7,0-1.4,0.1-2.1,0.2c-2,0.4-4,1.4-5.6,3L95.6,73.8l1.2,1.2c6.9,6.9,6.9,18.2,0,25.1l-25.4,25.4
	l5.3,5.3c2.1,2.1,4.9,3.2,7.6,3.2c1.4,0,2.8-0.3,4.1-0.8c1.3-0.5,2.5-1.3,3.6-2.4l20.5-20.5l-0.2-0.2
	C105.3,103,105.3,91.8,112.2,84.8L112.2,84.8z"/>
<path class="st6" d="M91.9,130.6c-1,1-2.3,1.8-3.6,2.4C89.7,132.4,90.9,131.6,91.9,130.6z"/>
<linearGradient id="SVGID_00000044158863438242645540000017723789408818625187_" gradientUnits="userSpaceOnUse" x1="52.0444" y1="16.0329" x2="179.181" y2="143.174" gradientTransform="matrix(1 0 0 -1 0 185.8898)">
	<stop  offset="0" style="stop-color:#623393"/>
	<stop  offset="0.574" style="stop-color:#452B7C"/>
	<stop  offset="1" style="stop-color:#2C256C"/>
</linearGradient>
<path style="fill:url(#SVGID_00000044158863438242645540000017723789408818625187_);" d="M91.9,130.6c-1,1-2.3,1.8-3.6,2.4
	C89.7,132.4,90.9,131.6,91.9,130.6z"/>
<path class="st6" d="M71.4,125.3l5.3,5.3c2.1,2.1,4.9,3.2,7.6,3.2c-2.8,0-5.5-1-7.6-3.2L71.4,125.3z"/>
<linearGradient id="SVGID_00000104669809416299049000000001181802159645112251_" gradientUnits="userSpaceOnUse" x1="44.7938" y1="23.2825" x2="171.9313" y2="150.4242" gradientTransform="matrix(1 0 0 -1 0 185.8898)">
	<stop  offset="0" style="stop-color:#623393"/>
	<stop  offset="0.574" style="stop-color:#452B7C"/>
	<stop  offset="1" style="stop-color:#2C256C"/>
</linearGradient>
<path style="fill:url(#SVGID_00000104669809416299049000000001181802159645112251_);" d="M71.4,125.3l5.3,5.3
	c2.1,2.1,4.9,3.2,7.6,3.2c-2.8,0-5.5-1-7.6-3.2L71.4,125.3z"/>
<path class="st6" d="M111.8,57.5c1.6-1.6,3.5-2.6,5.6-3C115.4,54.9,113.4,55.9,111.8,57.5z"/>
<linearGradient id="SVGID_00000035509388541574982190000016645153972802625718_" gradientUnits="userSpaceOnUse" x1="26.3946" y1="41.6813" x2="153.5316" y2="168.8228" gradientTransform="matrix(1 0 0 -1 0 185.8898)">
	<stop  offset="0" style="stop-color:#623393"/>
	<stop  offset="0.574" style="stop-color:#452B7C"/>
	<stop  offset="1" style="stop-color:#2C256C"/>
</linearGradient>
<path style="fill:url(#SVGID_00000035509388541574982190000016645153972802625718_);" d="M111.8,57.5c1.6-1.6,3.5-2.6,5.6-3
	C115.4,54.9,113.4,55.9,111.8,57.5z"/>
<path class="st7" d="M15.7,113.3c-1.3-1.3-2.4-2.6-3.3-4.1c-0.1-0.2-0.3-0.5-0.4-0.7l-6.7,6.7c-6.9,6.9-6.9,18.2,0,25.1l13,13
	c5.6,5.6,14,6.7,20.6,3.2c1.6-0.8,3.1-1.9,4.4-3.2l4.2-4.2l1.5-1.5l0.5-0.5L15.7,113.3L15.7,113.3z"/>
<path class="st8" d="M58.7,125.9c-1.5-1.5-2.7-3.1-3.6-4.9c-2.8-5.3-3-11.5-0.8-17c0.2-0.6,0.5-1.2,0.8-1.8c0.9-1.8,2.1-3.4,3.6-4.9
	L88.9,67l-5.2-5.2c-6.9-6.9-18.2-6.9-25.1,0l-46.4,46.4c0.1,0.3,0.1,0.6,0.2,0.9c0.9,1.5,2,2.8,3.3,4.1l33.9,33.9L64.8,132
	L58.7,125.9z"/>
<path class="st8" d="M54.2,104c-2.2,5.5-1.9,11.7,0.8,17C52.3,115.7,52,109.5,54.2,104z M71.4,125.3l25.4-25.4
	c6.9-6.9,6.9-18.2,0-25.1l-1.2-1.2L65.3,104c-1,1-1.8,2.3-2.4,3.6c-0.6,1.3-0.8,2.7-0.8,4.1c0,2.8,1,5.5,3.1,7.6L71.4,125.3
	L71.4,125.3z"/>
<path class="st8" d="M65.3,119.2c-2.1-2.1-3.1-4.9-3.1-7.6C62.2,114.4,63.2,117.1,65.3,119.2l6.1,6.1L65.3,119.2L65.3,119.2z
	 M65.3,104c-1.1,1.1-1.8,2.3-2.4,3.6C63.5,106.2,64.3,105,65.3,104z"/>
<path class="st7" d="M133.3,63.7l-21.1,21.1c-6.9,6.9-6.9,18.2,0,25.1l0.2,0.2l26-26c1.6-1.6,2.6-3.5,3-5.6c0.1-0.7,0.2-1.4,0.2-2.1
	c0-2.8-1-5.5-3.1-7.6L133.3,63.7L133.3,63.7z"/>
<path class="st7" d="M138.4,84.1c1.6-1.6,2.6-3.5,3-5.6C141,80.5,140,82.5,138.4,84.1z"/>
<path class="st14" d="M138.4,68.8c2.1,2.1,3.2,4.9,3.1,7.6C141.6,73.7,140.5,70.9,138.4,68.8l-5.1-5.1L138.4,68.8z M145.1,90.7
	c2-2,3.4-4.2,4.4-6.7C148.5,86.5,147.1,88.8,145.1,90.7z"/>
<path class="st14" d="M149.5,84c0.2-0.6,0.5-1.2,0.6-1.8c2-6.9,0.3-14.6-5.1-20l-5.1-5.1l-6.7,6.7l5.1,5.1c2.1,2.1,3.2,4.9,3.1,7.6
	c0,0.7-0.1,1.4-0.2,2.1c-0.4,2-1.4,4-3,5.6l-26,26l6.7,6.7l26-26C147.1,88.8,148.5,86.5,149.5,84L149.5,84z M203.7,44.5l-13-13
	c-6.5-6.5-16.8-6.9-23.8-1.2c-0.4,0.4-0.9,0.7-1.3,1.2l-8.4,8.4l-1.5,1.5l31.1,31.1c0.8,0.8,1.5,1.7,2.2,2.5
	c1.4,1.8,2.5,3.8,3.4,5.9l11.4-11.4C210.6,62.7,210.6,51.5,203.7,44.5L203.7,44.5z"/>
<path class="st7" d="M145.1,62.2c5.4,5.4,7.1,13.2,5.1,20l-0.6,1.8c-1,2.4-2.5,4.7-4.4,6.7l-26,26l6.2,6.2c6.9,6.9,18.2,6.9,25.1,0
	L190,83.3c-0.2-2.7-0.6-5.5-1.1-8.2c-0.7-0.9-1.4-1.7-2.2-2.5l-31.1-31.1L140,57.1L145.1,62.2z"/>
<path class="st7" d="M145.1,62.2c5.4,5.4,7.1,13.2,5.1,20C152.2,75.3,150.5,67.6,145.1,62.2l-5.1-5.1L145.1,62.2z"/>
</svg>
