<?xml version="1.0" encoding="UTF-8"?>
<svg enable-background="new 0 0 653.879 291.785" height="291.79" viewBox="0,0,653.879,291.785" width="653.88" xmlns="http://www.w3.org/2000/svg" xmlns:xlink="http://www.w3.org/1999/xlink">
 <linearGradient id="a">
  <stop offset="0" stop-color="#fff"/>
  <stop offset="1" stop-color="#fff" stop-opacity="0"/>
 </linearGradient>
 <linearGradient id="b" xlink:href="#a"/>
 <linearGradient id="c" gradientUnits="userSpaceOnUse">
  <stop offset="0" stop-color="#005f61"/>
  <stop offset="1" stop-color="#91c4b7"/>
 </linearGradient>
 <filter id="d">
  <feGaussianBlur stdDeviation="4.575671"/>
 </filter>
 <mask id="e">
  <g filter="url(#d)">
   <path d="m17.749 121.529c-4.495-13.055 2.443-27.282 15.498-31.776l211.219-72.725c13.055-4.495 27.282 2.444 31.777 15.499l38.943 113.096c4.495 13.055-2.444 27.281-15.499 31.776l-211.22 72.724c-13.055 4.495-27.282-2.444-31.777-15.499l-38.941-113.095z" fill="#2f6962"/>
  </g>
 </mask>
 <linearGradient id="f" gradientUnits="userSpaceOnUse" x1="128.61" x2="138.61" y1="239.37" y2="267.8">
  <stop offset="0" stop-color="#3e3e3e"/>
  <stop offset="1" stop-color="#3e3e3e" stop-opacity="0"/>
 </linearGradient>
 <mask id="g">
  <path d="m95.108 61.776 149.482-51.467c15.666-5.394 32.738 2.933 38.132 18.599l39.799 115.58c5.394 15.666-2.932 32.738-18.598 38.131l-103.98 35.801-104.835-156.644z" fill="#2f6962"/>
 </mask>
 <filter id="h">
  <feGaussianBlur stdDeviation="1.6345834"/>
 </filter>
 <linearGradient id="i" gradientUnits="userSpaceOnUse" x1="173.7" x2="166.66" y1="265.11" y2="244.64">
  <stop offset="0" stop-color="#c8c7c5"/>
  <stop offset="1" stop-color="#c8c7c5" stop-opacity="0"/>
 </linearGradient>
 <linearGradient id="j" x1="308.85" x2="270.58" xlink:href="#c" y1="100.3" y2="-8.08"/>
 <filter id="k">
  <feGaussianBlur stdDeviation="1.2154263"/>
 </filter>
 <mask id="l">
  <path d="m113.124 36.661c17.233 36.62 75.371 131.675 105.366 171.054-4.069 13.505-18.428 20.812-30.299 17.44l-115.342-166.6c-.07-12.347 22.899-26.599 40.275-21.894z" fill="#7c858c"/>
 </mask>
 <filter id="m" height="1.36" width="1.36" x="-.18" y="-.18">
  <feGaussianBlur stdDeviation="1.0178857"/>
 </filter>
 <mask id="n">
  <path clip-rule="evenodd" d="m213.967 236.836c-1.97572 1.50086-5.71734 14.7581-3.57441 17.8406 3.18643 4.58465 22.4241-12.6985 20.6611-17.2465-1.81294-4.67518-15.3569-1.41227-17.0867-.59419zm-9.6286-7.34722 2.48938 3.78195s.69017 1.04372.29628 3.40302c-.6156 3.68976-3.17495 13.2588-3.32578 21.1226-.01827.94976-.91914 9.5039 7.21943 7.07006 8.1393-2.43309 24.9682-17.8585 28.332-24.6925 3.36372-6.83399-.96483-10.6386-6.21591-10.9871-5.2511-.34921-13.3456.21962-17.0687.84795-3.72313.62832-3.49361-.75818-6.67723-4.3506-.23896-.26961-5.04938 3.80468-5.04938 3.80468z" fill="#aaa" fill-rule="evenodd"/>
 </mask>
 <radialGradient id="o" cx="197.57" cy="252.72" gradientTransform="matrix(1.54333 -.10321 .09131 1.36539 -130.42 -95.01)" gradientUnits="userSpaceOnUse" r="166.51" xlink:href="#b"/>
 <radialGradient id="p" cx="135.64" cy="12" gradientTransform="matrix(1.87047 -.64301 .25661 .74647 -116.69 109.71)" gradientUnits="userSpaceOnUse" r="161.65" xlink:href="#b"/>
 <radialGradient id="q" cx="143.6" cy="139.94" gradientTransform="matrix(1.33664 .0783 -.10786 1.84128 -33.25 -128.97)" gradientUnits="userSpaceOnUse" r="68.38" xlink:href="#a"/>
 <linearGradient id="r" x1="396.63" x2="397.29" xlink:href="#c" y1="165.47" y2="6.78"/>
 <linearGradient id="s" gradientUnits="userSpaceOnUse" x1="227.67" x2="227.67" y1="217.85" y2="275">
  <stop offset="0" stop-color="#fff"/>
  <stop offset="1" stop-color="#868686"/>
 </linearGradient>
 <linearGradient id="t" gradientUnits="userSpaceOnUse" x1="110.77" x2="145.47" y1="168.58" y2="151.58">
  <stop offset="0" stop-color="#005f61"/>
  <stop offset="1"/>
 </linearGradient>
 <radialGradient id="u" cx="228.55" cy="-6.51" gradientTransform="matrix(1.54772 -.17695 .17682 1.54662 -129.86 38.79)" gradientUnits="userSpaceOnUse" r="111.43">
  <stop offset="0" stop-color="#91c4b7"/>
  <stop offset="1" stop-color="#005f61"/>
 </radialGradient>
 <metadata/>
 <path d="m11.004 141.618c-6.293-18.277 3.421-38.194 21.698-44.487l216.721-74.619c18.277-6.293 38.195 3.422 44.488 21.699l43.577 126.552c6.293 18.277-3.421 38.194-21.698 44.487l-216.721 74.619c-18.277 6.292-38.195-3.422-44.488-21.699l-43.577-126.552z" fill="#7c858c"/>
 <path d="m7.097 130.272c-6.294-18.277 3.421-38.194 21.698-44.487l216.722-74.619c18.277-6.293 38.194 3.422 44.488 21.699l43.577 126.552c6.293 18.277-3.421 38.194-21.698 44.487l-216.722 74.619c-18.277 6.293-38.195-3.422-44.488-21.699l-43.577-126.552z" fill="url(#f)"/>
 <path clip-rule="evenodd" d="m156.599 246.825 13.562-4.67 6.521 18.94-13.562 4.67zm25.041-8.622 13.562-4.67 6.521 18.939-13.562 4.67zm25.041-8.622 13.563-4.67 6.521 18.94-13.562 4.67zm25.042-8.623 13.562-4.67 6.521 18.94-13.562 4.67zm25.041-8.622 13.562-4.67 6.521 18.939-13.562 4.67zm-125.207 43.112 13.562-4.67 6.521 18.94-13.562 4.67z" fill="url(#i)" fill-rule="evenodd" opacity=".7"/>
 <path d="m2.568 124.472c-6.293-18.277 3.421-38.194 21.698-44.487l221.25-76.178c18.277-6.292 38.195 3.422 44.488 21.699l41.752 121.253c6.293 18.277-3.421 38.194-21.698 44.487l-221.25 76.178c-18.277 6.293-38.195-3.422-44.488-21.699l-41.752-121.253z" fill="url(#o)"/>
 <path d="m1.917 122.581c-6.293-18.277 3.421-38.194 21.698-44.487l221.25-76.178c18.277-6.293 38.194 3.422 44.488 21.699l41.752 121.253c6.293 18.277-3.421 38.194-21.698 44.487l-221.25 76.178c-18.277 6.293-38.195-3.422-44.488-21.699l-41.752-121.253z" fill="#7c858c"/>
 <path d="m5.763 123.175c-6.113-17.755 3.323-37.103 21.078-43.217l216.501-74.542c17.755-6.113 37.104 3.324 43.217 21.079l38.787 112.64c6.113 17.755-3.323 37.103-21.078 43.216l-216.501 74.542c-17.755 6.113-37.103-3.324-43.217-21.079l-38.787-112.639z" fill="url(#p)" opacity=".9"/>
 <path d="m7.427 123.74c-5.934-17.232 3.225-36.012 20.458-41.945l215.907-74.338c17.232-5.933 36.012 3.226 41.946 20.459l39.771 115.497c5.934 17.233-3.226 36.012-20.458 41.945l-215.908 74.338c-17.233 5.933-36.012-3.227-41.946-20.459l-39.77-115.497z" fill="#3e3e3e"/>
 <path d="m10.414 122.666c-5.394-15.666 2.932-32.738 18.598-38.132l215.578-74.225c15.666-5.394 32.738 2.933 38.132 18.599l39.799 115.58c5.394 15.666-2.932 32.738-18.598 38.131l-215.578 74.225c-15.666 5.394-32.738-2.933-38.133-18.599l-39.798-115.579z" fill="url(#t)"/>
 <g fill="#3c857c" mask="url(#e)" transform="translate(-12 -4)">
  <path d="m10.414 122.666c-5.394-15.666 2.932-32.738 18.598-38.132l215.578-74.225c15.666-5.394 32.738 2.933 38.132 18.599l39.799 115.58c5.394 15.666-2.932 32.738-18.598 38.131l-215.578 74.225c-15.666 5.394-32.738-2.933-38.133-18.599l-39.798-115.579z"/>
 </g>
 <path clip-rule="evenodd" d="m30 102.111c-1.771-7.695 2.602-9.355 2.672-9.379 1.371-.472 6.183-1.554 7.316 1.737 1.025 2.977-4.531 7.82-9.583 9.56-5.015 1.727-12.469 1.364-13.494-1.613-1.133-3.291 3.325-5.401 4.696-5.873.069-.024 4.342-2.237 7.88 5.746.13.293.571.074.513-.178z" fill="#ffe600" fill-rule="evenodd"/>
 <path d="m32.867 154.308c7.274 17.049 17.313 28.317 23.916 26.044 6.602-2.273 7.575-17.334 2.812-35.247-.367-3.303-.911-9.542-.275-13.127.464-2.615-.112-3.379-2.212-1.079-.634.694-1.14 1.345-1.514 2.022-7.335-18.703-18.159-31.442-25.141-29.038s-7.669 19.106-1.934 38.36c-.712-.304-1.51-.505-2.438-.662-3.071-.52-3.054.437-1.079 2.212 2.709 2.435 6.121 7.686 7.865 10.515z"/>
 <path clip-rule="evenodd" d="m30.621 139.494c5.498 15.966 14.795 27.243 20.766 25.187s6.355-16.666.857-32.632-14.795-27.243-20.766-25.187-6.354 16.665-.857 32.632zm23.197 28.556c.536 1.558 1.515 2.634 2.186 2.403s.78-1.681.243-3.239c-.536-1.558-1.515-2.633-2.186-2.403-.67.231-.779 1.682-.243 3.239zm-4.7 1.619c.536 1.558 1.515 2.634 2.186 2.403.67-.231.779-1.681.243-3.239s-1.515-2.634-2.186-2.402c-.671.23-.78 1.68-.243 3.238z" fill="#fff" fill-rule="evenodd"/>
 <ellipse cx="50.87" cy="163.33" fill="#ffe600" rx="4.43" ry="2.14" transform="matrix(-.9455 .3255 -.3255 -.9455 152.13 301.2)"/>
 <path clip-rule="evenodd" d="m64.282 90.307c-1.771-7.695 2.603-9.355 2.672-9.379 1.371-.472 6.183-1.554 7.316 1.737 1.025 2.978-4.531 7.82-9.583 9.56-5.015 1.727-12.469 1.364-13.494-1.613-1.133-3.291 3.325-5.401 4.696-5.873.07-.024 4.342-2.237 7.88 5.746.13.292.572.074.513-.178z" fill="#ffe600" fill-rule="evenodd"/>
 <path d="m67.15 142.503c7.274 17.049 17.313 28.317 23.916 26.044 6.602-2.273 7.575-17.333 2.812-35.247-.367-3.303-.911-9.542-.275-13.127.464-2.615-.112-3.379-2.212-1.079-.634.694-1.139 1.345-1.514 2.022-7.334-18.704-18.159-31.442-25.141-29.038s-7.669 19.106-1.934 38.36c-.712-.304-1.51-.505-2.438-.662-3.071-.52-3.054.437-1.079 2.211 2.709 2.436 6.121 7.687 7.865 10.516z"/>
 <path clip-rule="evenodd" d="m64.904 127.689c5.498 15.967 14.795 27.243 20.766 25.187s6.355-16.666.857-32.632c-5.498-15.967-14.795-27.243-20.766-25.187s-6.355 16.666-.857 32.632zm23.197 28.557c.536 1.558 1.515 2.633 2.186 2.402s.779-1.681.243-3.239c-.537-1.558-1.515-2.633-2.186-2.402s-.779 1.681-.243 3.239zm-4.7 1.619c.536 1.558 1.515 2.633 2.185 2.402s.78-1.681.243-3.239c-.536-1.558-1.515-2.633-2.186-2.402s-.779 1.681-.242 3.239z" fill="#fff" fill-rule="evenodd"/>
 <ellipse cx="85.15" cy="151.52" fill="#ffe600" rx="4.43" ry="2.14" transform="matrix(-.9455 .3255 -.3255 -.9455 214.99 267.08)"/>
 <path clip-rule="evenodd" d="m98.565 78.502c-1.771-7.694 2.602-9.355 2.672-9.379 1.371-.472 6.183-1.554 7.316 1.736 1.025 2.978-4.531 7.82-9.583 9.56-5.015 1.727-12.469 1.364-13.494-1.613-1.133-3.291 3.325-5.401 4.696-5.873.069-.024 4.342-2.237 7.88 5.746.13.293.572.075.513-.177z" fill="#ffe600" fill-rule="evenodd"/>
 <path d="m101.433 130.699c7.274 17.048 17.313 28.317 23.915 26.043s7.576-17.333 2.812-35.246c-.367-3.303-.911-9.542-.275-13.127.464-2.615-.112-3.379-2.212-1.079-.634.695-1.139 1.345-1.514 2.022-7.334-18.703-18.159-31.441-25.14-29.038-6.982 2.404-7.669 19.106-1.934 38.36-.712-.303-1.51-.504-2.438-.662-3.071-.52-3.054.437-1.079 2.212 2.709 2.435 6.121 7.686 7.865 10.515z"/>
 <path clip-rule="evenodd" d="m99.187 115.885c5.498 15.967 14.795 27.243 20.766 25.187s6.355-16.666.857-32.632c-5.498-15.967-14.795-27.243-20.766-25.187s-6.355 16.665-.857 32.632zm23.197 28.556c.536 1.558 1.515 2.633 2.186 2.403.67-.231.779-1.681.243-3.239s-1.515-2.634-2.185-2.403c-.671.232-.78 1.682-.244 3.239zm-4.701 1.619c.536 1.558 1.515 2.633 2.186 2.402.671-.23.78-1.681.243-3.239-.536-1.558-1.515-2.633-2.185-2.402-.671.231-.78 1.681-.244 3.239z" fill="#fff" fill-rule="evenodd"/>
 <ellipse cx="119.43" cy="139.72" fill="#ffe600" rx="4.43" ry="2.14" transform="matrix(-.9455 .3255 -.3255 -.9455 277.84 232.95)"/>
 <path clip-rule="evenodd" d="m96.575 238.982c3.342 7.154 7.811 5.77 7.88 5.746 1.371-.472 5.829-2.583 4.696-5.873-1.025-2.977-8.385-3.373-13.437-1.633-5.015 1.727-10.665 6.602-9.64 9.579 1.133 3.291 5.946 2.208 7.316 1.736.07-.023 4.799-.91 2.672-9.379-.078-.31.403-.41.513-.176z" fill="#ffe600" fill-rule="evenodd"/>
 <path d="m66.699 196.085c-4.764-17.913-3.791-32.973 2.812-35.247 6.602-2.273 16.641 8.995 23.915 26.043 1.744 2.829 5.156 8.08 7.865 10.514 1.976 1.775 1.992 2.732-1.079 2.212-.927-.157-1.726-.358-2.438-.662 5.735 19.254 5.048 35.956-1.934 38.36s-17.806-10.334-25.141-29.038c-.374.677-.88 1.328-1.514 2.022-2.1 2.3-2.675 1.536-2.212-1.079.637-3.583.093-9.822-.274-13.125z"/>
 <path clip-rule="evenodd" d="m74.049 209.142c-5.498-15.966-5.114-30.576.857-32.632s15.269 9.22 20.766 25.187c5.498 15.967 5.114 30.577-.857 32.633-5.971 2.054-15.268-9.222-20.766-25.188zm.699-36.785c-.536-1.558-.428-3.008.243-3.239.67-.231 1.649.845 2.185 2.403.537 1.558.427 3.008-.243 3.239s-1.649-.845-2.185-2.403zm-4.701 1.619c-.536-1.558-.427-3.008.243-3.239s1.649.845 2.186 2.403c.536 1.558.427 3.008-.243 3.239s-1.65-.845-2.186-2.403z" fill="#fff" fill-rule="evenodd"/>
 <ellipse cx="75.36" cy="177.99" fill="#ffe600" rx="4.43" ry="2.14" transform="matrix(-.9455 .3255 -.3255 -.9455 204.56 321.74)"/>
 <path clip-rule="evenodd" d="m130.858 227.178c3.341 7.154 7.81 5.77 7.88 5.746 1.371-.472 5.829-2.582 4.696-5.873-1.025-2.977-8.385-3.373-13.437-1.633-5.015 1.727-10.665 6.602-9.64 9.579 1.133 3.291 5.946 2.208 7.316 1.737.069-.024 4.799-.91 2.672-9.379-.078-.312.404-.412.513-.177z" fill="#ffe600" fill-rule="evenodd"/>
 <path d="m100.982 184.281c-4.764-17.913-3.791-32.973 2.812-35.247 6.602-2.273 16.641 8.995 23.915 26.044 1.745 2.829 5.157 8.08 7.865 10.513 1.976 1.775 1.993 2.732-1.079 2.212-.927-.157-1.726-.358-2.438-.662 5.736 19.254 5.048 35.957-1.934 38.36-6.981 2.404-17.806-10.334-25.141-29.038-.374.678-.879 1.328-1.513 2.022-2.1 2.301-2.676 1.537-2.212-1.079.636-3.584.092-9.822-.275-13.125z"/>
 <path clip-rule="evenodd" d="m108.332 197.337c-5.498-15.966-5.114-30.576.857-32.632s15.268 9.22 20.766 25.187c5.498 15.966 5.114 30.576-.857 32.632s-15.268-9.22-20.766-25.187zm.699-36.784c-.536-1.558-.428-3.008.243-3.239s1.649.845 2.186 2.402c.536 1.558.427 3.008-.243 3.239-.671.231-1.65-.845-2.186-2.402zm-4.701 1.618c-.536-1.558-.427-3.008.243-3.239s1.649.845 2.185 2.402.428 3.008-.243 3.239-1.649-.844-2.185-2.402z" fill="#fff" fill-rule="evenodd"/>
 <ellipse cx="109.64" cy="166.18" fill="#ffe600" rx="4.43" ry="2.14" transform="matrix(-.9455 .3255 -.3255 -.9455 267.41 287.62)"/>
 <path clip-rule="evenodd" d="m165.141 215.373c3.342 7.154 7.811 5.77 7.88 5.746 1.371-.472 5.829-2.582 4.696-5.873-1.025-2.977-8.385-3.372-13.438-1.633-5.015 1.727-10.665 6.602-9.64 9.579 1.133 3.291 5.945 2.208 7.316 1.737.069-.024 4.799-.91 2.672-9.379-.078-.311.404-.411.514-.177z" fill="#ffe600" fill-rule="evenodd"/>
 <path d="m135.265 172.476c-4.764-17.913-3.791-32.973 2.812-35.246s16.641 8.995 23.916 26.043c1.744 2.829 5.156 8.08 7.865 10.514 1.975 1.775 1.992 2.731-1.079 2.212-.927-.157-1.726-.358-2.438-.662 5.735 19.254 5.048 35.957-1.934 38.36-6.982 2.404-17.806-10.334-25.141-29.038-.374.678-.88 1.328-1.514 2.022-2.1 2.301-2.676 1.537-2.212-1.079.636-3.584.092-9.823-.275-13.126z"/>
 <path clip-rule="evenodd" d="m142.615 185.533c-5.498-15.967-5.114-30.577.857-32.633s15.269 9.221 20.766 25.187 5.114 30.576-.857 32.632-15.268-9.22-20.766-25.186zm.699-36.785c-.537-1.558-.428-3.008.243-3.239s1.649.845 2.186 2.402c.537 1.558.428 3.008-.243 3.239s-1.65-.844-2.186-2.402zm-4.701 1.619c-.536-1.558-.427-3.008.243-3.239.671-.231 1.649.845 2.186 2.402.537 1.558.428 3.008-.243 3.239s-1.65-.845-2.186-2.402z" fill="#fff" fill-rule="evenodd"/>
 <ellipse cx="143.93" cy="154.38" fill="#ffe600" rx="4.43" ry="2.14" transform="matrix(-.9455 .3256 -.3256 -.9455 330.27 253.49)"/>
 <path d="m95.108 61.776 149.482-51.467c15.666-5.394 32.738 2.933 38.132 18.599l39.799 115.58c5.394 15.666-2.932 32.738-18.598 38.131l-103.98 35.801-104.835-156.644z" fill="url(#j)"/>
 <path d="m97.289 65.035 149.077-51.329c13.362-4.601 27.924 2.502 32.525 15.864l39.859 115.756c4.602 13.362-2.5 27.923-15.863 32.524l-105.732 36.404z" fill="url(#u)"/>
 <path clip-rule="evenodd" d="m289.833 129.825c0 12.985-2.517 16.034-7.42 16.034-3.71 0-6.094-1.327-8.614-3.314v-26.635c2.52-1.988 5.037-3.312 8.482-3.312 5.035 0 7.552 3.312 7.552 17.227zm23.589-.797c0-25.838-10.072-36.041-23.19-36.041-7.289 0-11.661 2.648-16.433 6.359v-31.935l-23.851 9.542v87.059h23.851v-4.638c3.844 2.916 8.614 6.096 15.504 6.096 15.24 0 24.119-11.53 24.119-36.442zm-73.636 34.984v-69.568h-23.851v69.567h23.851zm1.987-86.396c0-6.759-5.698-11.529-13.913-11.529-7.819 0-13.648 4.77-13.648 11.529 0 7.287 5.829 11.792 13.648 11.792 8.216 0 13.913-4.505 13.913-11.792zm-39.003 86.396v-96.601l-23.851 9.542v87.059z" fill="#fff" fill-rule="evenodd"/>
 <path clip-rule="evenodd" d="m389.317 94.444h-25.177l-6.361 25.574c-1.456 5.832-3.444 14.178-4.372 20.804-.795-6.626-2.782-14.973-4.24-20.804l-6.229-25.574h-25.309l24.118 69.567h23.453zm31.35-16.828c0-6.759-5.698-11.529-13.913-11.529-7.819 0-13.648 4.77-13.648 11.529 0 7.287 5.83 11.792 13.648 11.792 8.215 0 13.913-4.505 13.913-11.792zm-1.988 86.396v-69.568h-23.851v69.567h23.851zm58.661-68.112c-2.782-1.721-6.228-2.914-11.262-2.914-6.096 0-10.734 2.517-14.843 6.492v-5.035h-23.851v69.567h23.851v-37.897c0-8.482 3.579-11.264 9.41-11.264 4.636 0 8.082 2.517 11.131 5.832zm52.949 45.585c-3.71 2.517-6.361 3.71-9.542 3.71-3.975 0-5.963-1.591-5.963-6.891v-25.177h15.106v-18.683h-15.106v-27.033l-23.19 9.408v17.625h-10.599v18.683h10.599v30.212c0 15.769 5.832 22.13 18.42 22.13 6.758 0 12.589-1.458 17.227-3.71z" fill="url(#r)" fill-rule="evenodd"/>
 <path d="m127.052 43.547c17.233 36.62 72.865 128.908 102.86 168.287-2.858 14.11-18.673 23.308-29.809 18.791l-115.342-166.601c-.07-12.347 22.06-27.271 42.291-20.477z" fill="#25514b" filter="url(#h)" mask="url(#g)" transform="translate(-2)"/>
 <path clip-rule="evenodd" d="m218.304 241.188c-2.9 1.834-8.917 18.762-6.01 22.858 4.325 6.093 32.696-15.214 30.405-21.183-2.356-6.136-21.883-2.64-24.395-1.675zm-14.341-9.677 3.368 5.018s.934 1.385.252 4.412c-1.066 4.734-5.207 16.96-5.819 27.111-.074 1.226-1.793 12.229 9.964 9.517 11.758-2.711 36.593-21.745 41.746-30.395s-.843-13.795-8.332-14.524c-7.489-.73-19.089-.425-24.443.189s-4.956-1.165-9.326-5.975c-.327-.361-7.41 4.647-7.41 4.647z" fill="#3e3e3e" fill-rule="evenodd"/>
 <path clip-rule="evenodd" d="m216.503 238.52c-2.9 1.834-8.917 18.762-6.009 22.858 4.324 6.092 32.696-15.214 30.405-21.183-2.356-6.136-21.882-2.64-24.396-1.675zm-13.394-10.003 3.368 5.018s.934 1.385.252 4.412c-1.066 4.734-5.207 16.96-5.819 27.111-.074 1.226-1.793 12.229 9.964 9.517 11.758-2.711 36.593-21.745 41.746-30.395s-.843-13.795-8.332-14.524c-7.489-.73-19.089-.425-24.443.189s-4.956-1.165-9.326-5.975c-.328-.361-7.41 4.647-7.41 4.647z" fill="url(#s)" fill-rule="evenodd"/>
 <path d="m214.776 227.853c-2.797 3.296-6.24 5.845-9.926 7.474.432-2.596-.374-3.792-.374-3.792l-3.368-5.018s7.083-5.008 7.41-4.647c3.294 3.624 3.879 5.527 6.258 5.983z" fill="#54575a" filter="url(#m)" mask="url(#n)" transform="matrix(1.42953 .05311 -.05041 1.29187 -77.43 -78.8)"/>
 <path d="m116.052 45.547c17.234 36.62 72.865 128.908 102.86 168.287-2.858 14.11-18.673 23.308-29.809 18.791l-115.342-166.601c-.07-12.347 22.06-27.271 42.291-20.477z" fill="#c8c7c5"/>
 <path d="m113.124 44.661c17.233 36.62 75.371 131.675 105.366 171.054-4.069 13.505-18.428 20.812-30.299 17.44l-115.342-166.6c-.07-12.347 22.899-26.599 40.275-21.894z" fill="#7c858c"/>
 <path d="m192.119 225.881-118.585-171.194c3.174-9.061 16.868-17.988 30.225-18.875 22.158 44.223 78.164 134.394 111.831 178.223-5.194 8.137-14.62 12.648-23.471 11.846z" fill="#c8c7c5" filter="url(#k)" mask="url(#l)" transform="translate(0 8)"/>
 <path clip-rule="evenodd" d="m203.927 231.912-123.544-178.449c3.583-3.084 8.164-5.73 13.116-7.479 6.902 12.484 25.22 44.608 54.336 88.542 22.713 34.272 46.085 68.024 64.139 91.973-2.35 2.316-5.102 4.145-8.047 5.413zm-3.597 1.245c-1.392.368-2.805.615-4.223.733l-120.889-174.612c.699-1.099 1.537-2.181 2.494-3.23z" fill="url(#q)" fill-rule="evenodd"/>
 <g clip-rule="evenodd" fill="#005f6a" fill-rule="evenodd">
  <path d="m364.11 175.909h-4.284l-3.612 11.34c-.364 1.148-.728 2.492-.896 3.22-.168-.7-.56-2.128-.924-3.22l-3.695-11.34h-4.341l6.972 19.6h3.808z"/>
  <path d="m368.87 175.91h3.92v19.6h-3.92z"/>
  <path d="m394.82 195.508-3.752-7.616c2.492-.98 3.752-2.828 3.752-5.768 0-4.172-3.052-6.216-6.748-6.216h-9.128v19.6h3.92v-7.056h3.948l3.5 7.056zm-4.031-13.3c0 1.708-.98 2.548-2.8 2.548h-5.124v-5.04h5.124c1.736.001 2.8.729 2.8 2.492z"/>
  <path d="m413.02 179.772v-3.863h-15.177v3.863h5.628v15.736h3.921v-15.736z"/>
  <path d="m433.373 186.856v-10.948h-3.92v11.003c0 3.136-1.54 5.068-4.032 5.068s-4.004-1.988-4.004-5.124v-10.948h-3.92v11.003c0 5.712 3.192 8.904 7.924 8.904 4.984.002 7.952-3.273 7.952-8.958z"/>
  <path d="m455.49 195.508-7.448-19.6h-3.808l-7.504 19.6h4.2l1.54-4.368h7.168l1.54 4.368zm-7.196-8.091h-4.48l1.26-3.556c.392-1.148.784-2.324.98-3.052.196.728.588 1.904.98 3.052z"/>
  <path d="m473.721 195.508v-3.863h-9.828v-15.736h-3.92v19.599z"/>
  <path d="m478.45 175.91h3.92v19.6h-3.92z"/>
  <path d="m503.365 195.508v-3.584h-6.748c-1.148 0-3.192.028-3.976.056.504-.504 1.624-1.792 2.24-2.548l8.344-10.052v-3.472h-14.756v3.583h6.133c1.148 0 3.192-.027 3.976-.056-.504.504-1.624 1.792-2.24 2.548l-8.428 10.052v3.472h15.455z"/>
  <path d="m525.711 195.508-7.448-19.6h-3.808l-7.504 19.6h4.2l1.54-4.368h7.168l1.54 4.368zm-7.196-8.091h-4.48l1.26-3.556c.392-1.148.784-2.324.98-3.052.196.728.588 1.904.98 3.052z"/>
  <path d="m541.45 179.772v-3.863h-15.176v3.863h5.628v15.736h3.92v-15.736z"/>
  <path d="m546.35 175.91h3.92v19.6h-3.92z"/>
  <path d="m572.412 185.708c0-5.964-3.164-10.108-8.512-10.108s-8.512 4.144-8.512 10.108 3.164 10.108 8.512 10.108 8.512-4.143 8.512-10.108zm-4.032 0c0 3.5-1.316 6.216-4.48 6.216s-4.48-2.716-4.48-6.216 1.316-6.216 4.48-6.216 4.48 2.716 4.48 6.216z"/>
  <path d="m593.13 195.508v-19.6h-3.864v8.288c0 1.092.056 3.557.056 4.284-.252-.504-.896-1.484-1.372-2.212l-6.944-10.36h-3.752v19.6h3.864v-8.624c0-1.092-.056-3.556-.056-4.284.252.504.896 1.484 1.372 2.212l7.196 10.696z"/>
  <path d="m625.318 195.508-7.448-19.6h-3.808l-7.504 19.6h4.2l1.54-4.368h7.168l1.54 4.368zm-7.196-8.091h-4.48l1.26-3.556c.392-1.148.784-2.324.98-3.052.196.728.588 1.904.98 3.052z"/>
  <path d="m645.116 182.125c0-4.172-3.052-6.216-6.748-6.216h-8.568v19.6h3.92v-6.944h4.312c4.061-.001 7.084-1.904 7.084-6.44zm-4.032.083c0 1.708-.98 2.548-2.8 2.548h-4.564v-5.04h4.508c1.736.001 2.856.784 2.856 2.492z"/>
  <path d="m649.96 175.91h3.92v19.6h-3.92z"/>
 </g>
</svg>
