<svg width="229" height="71" viewBox="0 0 229 71" fill="none" xmlns="http://www.w3.org/2000/svg">
<path d="M77.6699 15.6765L84.2664 14.0842V45.9294C84.2664 49.4551 85.29 51.5023 87.3372 52.1847C86.3136 54.1181 84.6076 55.1417 82.1055 55.1417C79.1484 55.1417 77.5562 53.0945 77.5562 48.8864V15.6765H77.6699ZM94.2749 54.5731V31.5991H90.6354V26.1399H100.985V54.5731H94.2749V54.5731ZM97.6868 15.2216C98.7104 15.2216 99.6203 15.5628 100.416 16.3589C101.213 17.155 101.554 18.0649 101.554 19.0885C101.554 20.1121 101.213 21.0219 100.416 21.8181C99.6203 22.6142 98.7104 22.9554 97.6868 22.9554C96.6632 22.9554 95.7534 22.6142 94.9573 21.8181C94.1611 21.0219 93.8199 20.1121 93.8199 19.0885C93.8199 18.0649 94.1611 17.155 94.9573 16.3589C95.7534 15.5628 96.6632 15.2216 97.6868 15.2216ZM126.916 54.5731V38.1956C126.916 35.8072 126.461 33.9874 125.551 32.9639C124.641 31.8265 123.163 31.2579 121.002 31.2579C119.978 31.2579 118.955 31.4853 117.931 32.054C116.794 32.6227 115.998 33.305 115.315 34.1012V54.5731H108.719V26.2536H113.496L114.747 28.8695C116.566 26.7086 119.182 25.685 122.708 25.685C126.12 25.685 128.736 26.7086 130.669 28.7557C132.603 30.8029 133.626 33.6462 133.626 37.172V54.5731H126.916V54.5731ZM138.744 40.3565C138.744 36.0346 139.995 32.5089 142.498 29.7793C145 27.0498 148.298 25.685 152.392 25.685C156.714 25.685 160.012 26.936 162.401 29.5519C164.789 32.1677 165.926 35.6934 165.926 40.2427C165.926 44.792 164.675 48.3178 162.287 51.0473C159.899 53.6632 156.6 55.028 152.278 55.028C147.957 55.028 144.658 53.6632 142.27 51.0473C139.995 48.3178 138.744 44.792 138.744 40.3565ZM145.682 40.3565C145.682 46.6118 147.957 49.6826 152.392 49.6826C154.439 49.6826 156.032 48.8864 157.283 47.2942C158.534 45.7019 159.102 43.3135 159.102 40.3565C159.102 34.2149 156.828 31.1441 152.392 31.1441C150.345 31.1441 148.639 31.9403 147.502 33.5325C146.251 35.1248 145.682 37.3994 145.682 40.3565ZM189.469 54.5731V52.8671C188.9 53.4357 187.991 54.0044 186.739 54.4593C185.488 54.9143 184.124 55.1417 182.645 55.1417C178.664 55.1417 175.594 53.8907 173.319 51.3885C171.044 48.8864 169.907 45.3607 169.907 40.9251C169.907 36.4896 171.158 32.8501 173.774 30.0068C176.39 27.1635 179.574 25.7987 183.555 25.7987C185.716 25.7987 187.649 26.2536 189.469 27.1635V15.7902L196.066 14.198V54.5731H189.469ZM189.469 32.9639C188.104 31.8265 186.626 31.2579 185.034 31.2579C182.418 31.2579 180.37 32.054 178.892 33.6462C177.413 35.2385 176.731 37.6269 176.731 40.5839C176.731 46.498 179.574 49.4551 185.261 49.4551C185.943 49.4551 186.626 49.2276 187.649 48.8864C188.559 48.5452 189.128 48.0903 189.469 47.7491V32.9639V32.9639ZM228.024 42.4037H207.78C207.894 44.6783 208.69 46.3843 210.055 47.6354C211.533 48.8864 213.353 49.5688 215.855 49.5688C218.812 49.5688 221.2 48.7727 222.679 47.1804L225.295 52.1847C223.02 54.1181 219.494 55.028 214.831 55.028C210.51 55.028 207.098 53.7769 204.596 51.2748C202.093 48.7727 200.842 45.247 200.842 40.6977C200.842 36.2621 202.207 32.6227 204.937 29.8931C207.666 27.1635 210.965 25.7987 214.831 25.7987C218.926 25.7987 222.224 27.0498 224.726 29.4381C227.228 31.9403 228.479 35.011 228.479 38.7642C228.593 39.5603 228.366 40.6977 228.024 42.4037V42.4037ZM208.007 37.3994H221.883C221.428 33.3051 219.153 31.1441 215.059 31.1441C211.306 31.2579 208.917 33.3051 208.007 37.3994Z" fill="black"/>
<path d="M49.7689 37.1314L48.9725 46.2895L46.3445 44.4579L46.6631 39.839V39.7594V39.6797L46.5835 39.6001L46.5038 39.5205L40.8497 35.7776L40.9293 31.7161L49.7689 37.1314V37.1314ZM35.9122 47.0859L31.8508 43.9801V44.6968C31.8508 44.8561 31.7712 45.0153 31.6915 45.095L28.6654 47.1655L32.0101 49.8731L32.0897 49.9528V50.112L32.249 53.2975L35.9919 56.4033L35.9122 47.0859V47.0859ZM10.3491 51.0677L12.2604 60.2258L20.1443 68.5876L18.7905 59.3498L10.3491 51.0677ZM17.7552 52.4215L15.844 39.6001L6.28766 31.6365L8.83601 44.0597L17.7552 52.4215ZM14.7291 31.7161L12.1011 13.5591L1.11133 6.71045L4.69495 23.8322L14.7291 31.7161V31.7161Z" fill="#004712"/>
<path d="M57.5732 32.1939L56.3787 40.8742L49.8485 46.1302L50.6449 37.211L57.5732 32.1939ZM36.7882 47.0858L36.8679 56.4829L45.2297 49.7935L45.7871 40.6353L36.7882 47.0858V47.0858ZM31.373 50.9084L19.5869 59.3498L21.0203 69.0654L31.6915 60.5443L31.373 50.9084ZM31.0545 44.5375L30.497 31.7957L16.72 39.6797L18.6312 52.8993L31.0545 44.5375V44.5375ZM30.1785 24.3896L29.4617 7.18823L12.8975 13.5591L15.6051 32.0346L30.1785 24.3896V24.3896Z" fill="#00B259"/>
<path d="M58.5289 31.2382C58.5289 31.1586 58.5289 31.1586 58.5289 31.2382V31.0789C58.5289 31.0789 58.5289 30.9993 58.4492 30.9993C58.4492 30.9993 58.3696 30.9993 58.3696 30.9197L48.8133 25.584C48.654 25.5044 48.4947 25.5044 48.4151 25.584L40.2922 30.5215H40.2126V30.9993L40.133 35.2996L36.8679 33.1495C36.7086 33.0698 36.5493 33.0698 36.3901 33.1495L31.5323 35.8571L31.2934 31.0789V30.9993V30.9197V30.84V30.7604V30.6807H31.2137L26.2763 27.4157L30.8952 25.0266C31.0545 24.947 31.1341 24.7877 31.1341 24.6284L30.2581 6.55105V6.47142C30.2581 6.47142 30.2581 6.39178 30.1785 6.39178C30.1785 6.39178 30.1785 6.31214 30.0988 6.31214L17.596 0.259812C17.5164 0.180176 17.4367 0.180176 17.3571 0.180176L0.394623 5.43615C0.394623 5.43615 0.314987 5.43615 0.314987 5.51578C0.314987 5.51578 0.235352 5.51578 0.235352 5.59542V6.07324L3.97824 24.3099C3.97824 24.3895 4.05788 24.4691 4.13751 24.5488L9.23421 28.5306L5.49132 30.2826C5.49132 30.2826 5.41169 30.2826 5.41169 30.3622C5.41169 30.3622 5.41169 30.4418 5.33205 30.4418V30.6011L8.19895 44.2985C8.19895 44.3781 8.27858 44.4578 8.35822 44.5374L11.9418 47.8821L9.55276 49.3156L9.47312 49.3952C9.47312 49.3952 9.47312 49.4748 9.39349 49.4748V49.7137L11.6233 60.3053C11.6233 60.385 11.7029 60.4646 11.7029 60.5442L20.3832 70.1005H20.4629C20.4629 70.1005 20.5425 70.1005 20.5425 70.1802H20.9407L32.4083 61.022C32.4879 60.9424 32.5675 60.7831 32.5675 60.7035L32.3286 54.4123L36.1512 57.5977C36.1512 57.5977 36.2308 57.5977 36.2308 57.6773H36.629L45.8667 50.3508C45.9464 50.2712 46.026 50.1915 46.026 50.0323L46.3446 45.4134L49.1318 47.3247H49.4504C49.4504 47.3247 49.53 47.3247 49.53 47.245L57.0158 41.2723C57.0954 41.1927 57.1751 41.1131 57.1751 41.0334L58.5289 31.2382C58.5289 31.3178 58.5289 31.3178 58.5289 31.2382ZM49.8485 46.1301L50.6449 37.2109L57.6529 32.1938L56.4583 40.8741L49.8485 46.1301ZM46.3446 44.4578L46.6631 39.8389V39.7592V39.6796L46.5835 39.6L46.5038 39.5203L40.8497 35.7774L40.9293 31.716L49.7689 37.2109L48.9726 46.369L46.3446 44.4578V44.4578ZM45.15 49.7934L36.7882 56.4828L36.7086 47.0858L45.7075 40.6352L45.15 49.7934V49.7934ZM31.7712 60.5442L21.0203 69.0653L19.5869 59.3497L31.2934 50.9879L31.7712 60.5442V60.5442ZM12.1807 60.2257L10.2695 51.0675L18.7905 59.3497L20.1443 68.5875L12.1807 60.2257V60.2257ZM12.0215 13.559L14.6495 31.716L4.69496 23.8321L1.11135 6.71032L12.0215 13.559V13.559ZM29.4617 7.18814L30.1785 24.3895L15.6051 32.0346L12.8975 13.559L29.4617 7.18814V7.18814ZM31.0545 44.5374L18.6313 52.8195L16.72 39.6L30.497 31.716L31.0545 44.5374V44.5374ZM15.844 39.6796L17.7553 52.501L8.83603 44.0596L6.28768 31.6364L15.844 39.6796ZM32.1694 50.1119V50.0323V49.9526L32.0897 49.873L28.745 47.1654L31.7712 45.0949C31.9305 45.0152 31.9305 44.8559 31.9305 44.6967V43.9799L35.9919 47.0858L36.0715 56.4828L32.3286 53.377L32.1694 50.1119V50.1119Z" fill="black"/>
</svg>
