<svg width="135" height="70" viewBox="0 0 135 70" fill="none" xmlns="http://www.w3.org/2000/svg">
<path fill-rule="evenodd" clip-rule="evenodd" d="M0 63.7712H4.44917V46.1456L11.3975 61.5128C12.1846 63.36 13.3145 64.045 15.5046 64.045C17.6954 64.045 18.7563 63.36 19.5779 61.5128L26.4917 46.1456V63.7712H30.9754V46.1456C30.9754 44.4349 30.2904 43.6118 28.8528 43.1669C25.4646 42.1405 23.2055 43.0304 22.1791 45.3232L15.3688 60.5202L8.79708 45.3232C7.80445 43.0311 5.51083 42.1413 2.08881 43.1669C0.685786 43.6118 0.000767408 44.4342 0.000767408 46.1456V63.7712H0V63.7712ZM34.6713 49.431H39.155V59.1172C39.1212 59.6641 39.326 60.8969 41.7562 60.9298C43.0227 60.9644 51.4078 60.9298 51.4761 60.9298V49.362H55.9598V65.2087C55.9598 69.1102 51.134 69.9655 48.8749 70H34.7733V67.0229H48.9086C51.7837 66.7145 51.4416 65.2777 51.4416 64.7983V63.6339H41.961C37.5456 63.5993 34.705 61.6486 34.6713 59.424C34.6713 59.2192 34.7733 49.4985 34.6713 49.431ZM130.845 38.2046C128.108 38.1363 125.985 38.4102 124.205 39.1634C123.693 39.3698 122.871 39.3698 122.803 40.0195C123.077 40.2918 123.11 40.7375 123.35 41.1149C123.76 41.8 124.48 42.7228 125.13 43.2022C125.849 43.7507 126.568 44.2976 127.32 44.7771C128.655 45.5979 130.16 46.0773 131.461 46.8989C132.214 47.3783 132.966 47.9943 133.72 48.5082C134.096 48.7821 134.336 49.2278 134.815 49.3981V49.2945C134.576 48.9877 134.507 48.5427 134.268 48.1991C133.925 47.8577 133.583 47.5486 133.24 47.2072C132.248 45.8725 131.016 44.708 129.68 43.7507C128.585 42.9974 126.189 41.971 125.744 40.7045L125.677 40.6355C126.428 40.5665 127.319 40.2926 128.038 40.087C129.202 39.7802 130.262 39.8477 131.46 39.5401C132.008 39.4028 132.555 39.2317 133.104 39.0606V38.753C132.488 38.1371 132.043 37.3155 131.393 36.734C129.648 35.2282 127.73 33.7562 125.745 32.5242C124.684 31.84 123.315 31.3943 122.186 30.8136C121.774 30.608 121.091 30.5052 120.852 30.1631C120.234 29.4106 119.893 28.4179 119.448 27.5273C118.456 25.6449 117.497 23.5576 116.642 21.5724C116.026 20.2376 115.648 18.9029 114.897 17.6709C111.371 11.8525 107.537 8.32688 101.65 4.87034C100.385 4.15157 98.8789 3.8432 97.2695 3.46732C96.4142 3.4328 95.5589 3.36453 94.7028 3.33001C94.1543 3.09068 93.6074 2.44018 93.1279 2.1318C91.1772 0.899846 86.1458 -1.76965 84.7075 1.75516C83.7832 3.97974 86.0768 6.16981 86.8638 7.29974C87.4468 8.08678 88.1986 8.97662 88.6105 9.86645C88.8491 10.4479 88.9174 11.0647 89.1575 11.6806C89.7044 13.1864 90.2184 14.8633 90.9371 16.2671C91.313 16.9859 91.7234 17.7392 92.2028 18.3897C92.4767 18.7663 92.9561 18.9374 93.0581 19.5534C92.5787 20.2384 92.5457 21.2648 92.2719 22.1208C91.0391 25.9885 91.5186 30.7798 93.2637 33.6204C93.8122 34.4757 95.1124 36.3582 96.8583 35.6394C98.3987 35.0234 98.0558 33.0727 98.5007 31.3613C98.6043 30.9509 98.5352 30.677 98.74 30.4032V30.4715C99.2195 31.4296 99.6989 32.3539 100.144 33.312C101.205 34.9889 103.053 36.7348 104.594 37.8985C105.415 38.5145 106.065 39.5761 107.091 39.952V39.8485H107.024C106.818 39.5416 106.51 39.4043 106.236 39.1642C105.62 38.5482 104.936 37.7949 104.456 37.1107C103.02 35.1945 101.754 33.0719 100.624 30.8819C100.076 29.821 99.5961 28.6573 99.1527 27.5964C98.9456 27.1852 98.9456 26.5692 98.6043 26.3644C98.0903 27.1169 97.3385 27.7682 96.9604 28.6918C96.3099 30.1631 96.2424 31.9773 96.003 33.8597C95.865 33.8942 95.934 33.8597 95.865 33.928C94.7711 33.6549 94.3937 32.525 93.9833 31.5669C92.9569 29.1367 92.7851 25.2352 93.6749 22.4284C93.9142 21.7097 94.9421 19.4506 94.5317 18.7663C94.3246 18.1158 93.6419 17.7399 93.2645 17.226C92.8196 16.5755 92.3417 15.7547 92.0333 15.0359C91.2125 13.1189 90.8021 10.9972 89.9115 9.08017C89.4996 8.19034 88.7816 7.26599 88.1994 6.4452C87.5489 5.52084 86.8316 4.87034 86.3177 3.7757C86.1466 3.39905 85.9073 2.78307 86.1811 2.37267C86.2486 2.09882 86.3867 1.99603 86.659 1.92776C87.1039 1.55111 88.3712 2.03055 88.8161 2.23536C90.0818 2.74855 91.1427 3.22799 92.2036 3.94599C92.683 4.28812 93.197 4.93861 93.813 5.11044H94.5325C95.6279 5.34978 96.8591 5.17872 97.8855 5.48632C99.6997 6.06855 101.342 6.92386 102.815 7.84822C107.298 10.6888 110.995 14.7275 113.493 19.5534C113.903 20.3404 114.074 21.0592 114.452 21.8807C115.171 23.5584 116.061 25.269 116.778 26.9121C117.498 28.5207 118.182 30.1638 119.209 31.4986C119.722 32.2174 121.775 32.5932 122.7 32.9699C123.385 33.2775 124.445 33.5521 125.062 33.928C126.225 34.6468 127.389 35.4683 128.484 36.2554C129.031 36.665 130.743 37.5203 130.845 38.2046V38.2046Z" fill="#00678C"/>
<path fill-rule="evenodd" clip-rule="evenodd" d="M95.9347 8.46265C95.3533 8.46265 94.9429 8.53092 94.5325 8.63371V8.70198H94.6C94.8738 9.24969 95.3533 9.62634 95.6954 10.105C95.9692 10.6527 96.2093 11.2004 96.4832 11.7481L96.5507 11.6799C97.0301 11.3377 97.2702 10.79 97.2702 9.96846C97.0647 9.72913 97.0309 9.48902 96.8598 9.24969C96.6543 8.90756 96.2093 8.7365 95.9347 8.46265V8.46265Z" fill="#00678C"/>
<path fill-rule="evenodd" clip-rule="evenodd" d="M59.3826 63.7712H72.2514C73.7572 63.7712 75.1955 63.4644 76.3584 62.9159C78.3092 62.026 79.2335 60.8286 79.2335 59.2545V55.969C79.2335 54.7033 78.1726 53.5044 76.0516 52.6836C74.9562 52.2732 73.5869 52.0331 72.2522 52.0331H66.8449C65.0307 52.0331 64.1754 51.4846 63.9353 50.2879C63.9015 50.1514 63.9015 50.0141 63.9015 49.8775V47.8578C63.9015 47.7542 63.9015 47.6184 63.9353 47.4819C64.1746 46.5575 64.6541 46.3174 66.2289 46.1471H79.4053V43.1685H66.8779C65.0637 43.1685 64.1056 43.272 63.2503 43.5459C60.6145 44.3667 59.4508 45.6677 59.4508 47.9598V50.5625C59.4508 52.5808 61.7099 54.2929 65.5431 54.7033C65.9535 54.7379 66.3984 54.7379 66.8434 54.7379H71.4644C71.6354 54.7379 71.8057 54.7379 71.9423 54.7724C73.346 54.9089 73.962 55.1483 74.3724 55.6607C74.6463 55.9345 74.7153 56.1746 74.7153 56.483V59.0842C74.7153 59.3911 74.5097 59.8038 74.0993 60.1451C73.6874 60.4865 73.0369 60.7266 72.1816 60.7611C72.0105 60.7611 71.9093 60.7956 71.7367 60.7956H59.3826V63.7712V63.7712ZM107.092 58.604C107.092 61.6502 109.386 63.3608 113.972 63.7037C114.417 63.7382 114.828 63.7712 115.273 63.7712H126.909V60.7941H115.171C112.568 60.7941 111.576 60.1436 111.576 58.5695V43.1677H107.091V58.604H107.092V58.604ZM82.0733 58.7398V48.1308C82.0733 45.4268 83.9895 43.7829 87.7215 43.2705C88.1319 43.236 88.5422 43.2015 88.9189 43.2015H97.4061C97.851 43.2015 98.2284 43.236 98.6733 43.2705C102.404 43.7829 104.285 45.4268 104.285 48.1308V58.7398C104.285 60.9299 103.499 62.0943 101.65 62.8821L106.031 66.8511H100.863L97.3033 63.6347L93.7086 63.8402H88.9174C88.1311 63.8402 87.2405 63.7382 86.3161 63.4989C83.4771 62.7103 82.0733 61.2045 82.0733 58.7398V58.7398ZM86.8991 58.502C86.8991 58.6385 86.9682 58.7743 87.0027 58.9469C87.242 60.1781 88.4049 60.8631 90.1846 60.8631H94.2241L90.5283 57.5086H95.6954L98.9464 60.4527C99.5639 60.1098 99.9398 59.6304 100.076 59.0144C100.111 58.8779 100.111 58.7076 100.111 58.5695V48.4039C100.111 48.2674 100.111 48.1316 100.076 47.9935C99.837 46.8306 98.6741 46.1809 96.9282 46.1809H90.1846C88.1994 46.1809 86.8991 47.0362 86.8991 48.4039V58.502ZM128.964 63.8057H129.614V61.308H130.469V60.7941H128.074V61.308H128.964V63.8057V63.8057ZM133.926 63.8057H134.542V60.7941H133.619L132.866 62.8484L132.045 60.7941H131.155V63.8057H131.737V61.5136H131.771L132.627 63.8057H133.071L133.927 61.5136V63.8057H133.926V63.8057Z" fill="#CE8B2C"/>
</svg>
