<svg width="208" height="70" viewBox="0 0 208 70" fill="none" xmlns="http://www.w3.org/2000/svg">
<path d="M58.7348 34.8441C58.7348 24.0491 58.7515 13.2458 58.7098 2.45909C58.7098 0.958629 59.7018 0.0250077 61.2023 0.0250077C63.9781 0.00833591 66.7706 0 69.5465 0.0250077C71.122 0.0416795 72.0389 1.00031 72.0223 2.47576C71.9806 12.0287 71.9973 21.5983 71.9973 31.1513V31.6764C72.0139 32.7351 72.4807 33.5103 73.456 33.9271C74.398 34.3273 75.2816 34.1189 76.0485 33.3019C78.8494 30.301 81.6419 27.2917 84.4261 24.2825C86.1349 22.4319 87.8688 20.6064 89.561 18.7474C90.2029 18.0472 90.9448 17.7138 91.9034 17.7305C95.3961 17.7555 98.9056 17.7555 102.398 17.7305C103.432 17.7305 104.249 18.0472 104.682 19.0059C105.124 19.9978 104.916 20.8814 104.174 21.69C98.9306 27.4918 93.704 33.3019 88.469 39.1037C88.0522 39.5705 87.6437 40.054 87.3186 40.5875C86.7351 41.5295 86.7351 42.4548 87.277 43.4134C87.8605 44.447 88.6857 45.2806 89.5027 46.1226C95.8463 52.6412 102.207 59.1599 108.567 65.6619C109.334 66.4538 109.559 67.3208 109.175 68.3377C108.809 69.288 108.083 69.7215 106.891 69.7215C103.007 69.7215 99.114 69.7048 95.2294 69.7215C94.3542 69.7215 93.6789 69.4464 93.0538 68.7795C87.4103 62.8527 81.7253 56.9592 76.0568 51.0574C75.2483 50.2071 74.348 49.9904 73.4144 50.3822C72.4724 50.7573 71.9806 51.5576 71.9806 52.7163V67.2457C71.9806 68.8129 71.1887 69.6215 69.6382 69.6298H61.1022C59.3934 69.6298 58.7265 68.9546 58.7265 67.2707L58.7348 34.8441ZM111.701 23.9824C111.701 16.8385 111.726 9.68632 111.676 2.54245C111.659 0.925285 112.601 0 114.244 0C116.944 0.0166718 119.629 0 122.321 0C123.897 0 124.797 0.883606 124.797 2.45076C124.814 6.61871 124.814 10.795 124.822 14.9629C124.822 16.7635 125.747 17.6971 127.531 17.6971H138.743C139.927 17.6971 140.702 18.339 140.935 19.4977C141.052 20.0562 141.01 20.6147 141.027 21.1899V28.1003C141.027 29.9092 140.218 30.7178 138.409 30.7178C134.825 30.7178 131.241 30.7011 127.656 30.7011C125.822 30.7011 124.88 31.6264 124.864 33.4353C124.847 37.1114 124.789 40.7709 124.839 44.447C124.914 50.0488 129.207 55.2087 134.783 56.5258C136.425 56.9176 138.093 56.9842 139.76 56.7508C141.119 56.5591 142.102 57.2843 142.261 58.6514C142.602 61.5607 142.911 64.4782 143.211 67.3875C143.328 68.4961 142.519 69.5131 141.377 69.6965C138.301 70.2217 135.225 70.0383 132.199 69.3547C121.396 66.9373 113.46 58.3013 111.91 47.3563C111.751 46.2726 111.701 45.1889 111.701 44.1136V23.9824ZM207.622 58.1179C207.622 57.126 206.864 56.4341 205.872 56.3841C205.197 56.359 204.53 56.334 203.855 56.2757C200.404 56.0173 198.628 54.4001 198.003 50.9991C197.519 48.4066 197.536 45.7724 197.519 43.1383C197.494 35.5776 197.503 28.017 197.503 20.4563C197.503 20.2312 197.503 20.0228 197.486 19.8061C197.394 18.5807 196.511 17.7055 195.269 17.7055C192.359 17.6888 189.442 17.6888 186.533 17.7055C185.216 17.7055 184.282 18.6474 184.224 19.9478C184.207 20.2646 184.224 20.5897 184.224 20.9648C183.973 20.8314 183.782 20.7397 183.598 20.648C178.347 17.8888 172.778 16.9969 166.927 17.9722C152.03 20.473 142.319 35.3942 146.02 50.0321C150.722 68.6045 172.987 75.9984 187.883 63.9114C188.233 63.628 188.375 63.6363 188.65 64.0197C190.184 66.2121 192.209 67.7959 194.727 68.7545C197.503 69.8132 200.395 69.9549 203.329 69.7465C204.371 69.6715 205.405 69.5214 206.355 69.0463C207.031 68.7045 207.581 68.196 207.597 67.4208C207.656 64.3198 207.639 61.2189 207.622 58.1179ZM171.378 56.7758C164.134 56.7508 158.374 50.8574 158.399 43.4717C158.424 36.4863 164.342 30.6845 171.445 30.7011C178.73 30.7178 184.482 36.5696 184.465 43.9719C184.44 50.949 178.48 56.7842 171.378 56.7758ZM26.1998 17.5971C12.3622 17.6221 0.341826 28.3087 0.0333971 43.155C-0.283367 58.5097 11.8787 69.4964 25.4579 69.8382C39.979 70.205 52.0078 58.7431 52.2578 44.2636C52.4996 29.5258 40.9544 17.7638 26.1998 17.5971ZM26.1081 56.7758C18.9642 56.7758 13.1041 50.9074 13.0874 43.7385C13.0708 36.5613 18.9226 30.7011 26.1331 30.6761C33.327 30.6595 39.1538 36.5029 39.1538 43.7218C39.1538 50.9407 33.327 56.7758 26.1081 56.7758Z" fill="#007DC1"/>
</svg>
