<svg width="106" height="36" viewBox="0 0 106 36" fill="none" xmlns="http://www.w3.org/2000/svg">
<path d="M48.8885 5.28332C46.1854 5.28332 43.6461 6.512 42.4584 8.35502V5.77479H38.0352V33.461H42.4584V22.28C43.6461 24.123 46.0625 25.3517 48.6018 25.3517C54.1308 25.3517 57.9807 21.2152 57.9807 15.3175C57.9807 9.297 54.3356 5.28332 48.8885 5.28332ZM47.9465 21.379C44.5881 21.379 42.2946 18.9216 42.2946 15.3175C42.2946 11.7134 44.5881 9.25605 47.9465 9.25605C51.223 9.25605 53.5165 11.7544 53.5165 15.3175C53.5165 18.8807 51.223 21.379 47.9465 21.379Z" fill="black"/>
<path d="M69.8905 25.3517C76.1978 25.3517 79.9657 20.9285 79.9657 15.3175C79.9657 9.70656 76.1978 5.28332 69.8905 5.28332C63.5833 5.28332 59.8154 9.70656 59.8154 15.3175C59.8154 20.9285 63.5833 25.3517 69.8905 25.3517ZM69.8905 21.379C66.2864 21.379 64.2796 18.7988 64.2796 15.3175C64.2796 11.8363 66.2864 9.25605 69.8905 9.25605C73.4947 9.25605 75.5015 11.8363 75.5015 15.3175C75.5015 18.7988 73.4947 21.379 69.8905 21.379Z" fill="black"/>
<path d="M86.4236 24.8603V16.4234C86.4236 11.9843 89.6531 9.50188 93.2632 9.50188V5.77489C90.3823 5.77489 87.3612 6.62921 86.4236 9.46092V5.77489H81.9594V24.8603H86.4236Z" fill="black"/>
<path d="M103.748 21.0923C101.987 21.0923 100.963 20.6827 100.963 17.3653V9.50177H105.345V5.77479H100.963V0H96.4987V5.77479L93.2632 5.77489V9.50188L96.4987 9.50177V18.3892C96.4987 24.8193 100.512 25.106 102.683 25.106C103.994 25.106 105.304 24.9831 106 24.8602V20.9285C105.55 21.0104 104.444 21.0923 103.748 21.0923Z" fill="black"/>
<path d="M14.9479 26.6705C14.6941 26.6794 14.4873 26.4727 14.4873 26.2187L14.4873 1.3818C14.4873 1.12779 14.6941 0.921035 14.9479 0.929958C21.848 1.17249 27.3672 6.8419 27.3672 13.8002C27.3672 20.7586 21.8479 26.428 14.9479 26.6705Z" fill="url(#paint0_linear_2339_5523)"/>
<path fill-rule="evenodd" clip-rule="evenodd" d="M0.45993 15.2363C0.205917 15.2363 0 15.4422 0 15.6963V23.975H11.4982V15.6963C11.4982 15.4422 11.2923 15.2363 11.0383 15.2363H0.45993ZM11.4982 23.9766H0V35.0149C0 35.2689 0.206594 35.4758 0.460408 35.4657C6.58042 35.224 11.4982 30.1853 11.4982 23.9766Z" fill="url(#paint1_linear_2339_5523)"/>
<path d="M11.6738 11.8467C11.6738 12.1007 11.4679 12.3066 11.2139 12.3066L0.461176 12.3066C0.207164 12.3066 0.000281316 12.0999 0.0104646 11.8461C0.253071 5.79954 5.25254 1.13748 11.2135 0.908186C11.4673 0.898423 11.6738 1.10526 11.6738 1.35927L11.6738 11.8467Z" fill="url(#paint2_linear_2339_5523)"/>
<defs>
<linearGradient id="paint0_linear_2339_5523" x1="17.5251" y1="26.8202" x2="31.3448" y2="15.8164" gradientUnits="userSpaceOnUse">
<stop stop-color="#2DB8E6"/>
<stop offset="1" stop-color="#4FE8D4"/>
</linearGradient>
<linearGradient id="paint1_linear_2339_5523" x1="1.8397" y1="35.4661" x2="15.604" y2="28.5223" gradientUnits="userSpaceOnUse">
<stop offset="0.0001" stop-color="#4243F6"/>
<stop offset="1" stop-color="#2991F3"/>
</linearGradient>
<linearGradient id="paint2_linear_2339_5523" x1="10.0083" y1="3.25344" x2="2.13433" y2="11.0213" gradientUnits="userSpaceOnUse">
<stop offset="0.112043" stop-color="#FF7826"/>
<stop offset="1" stop-color="#FF6489"/>
</linearGradient>
</defs>
</svg>
