<svg width="423" height="417" viewBox="0 0 423 417" fill="none" xmlns="http://www.w3.org/2000/svg">
<path d="M211.866 0.508C327.55 0.532 422.504 94.292 422.359 208.352C422.211 324.145 327.646 416.604 209.447 416.521C93.89 416.44 0.460007 322.583 0.541007 206.661C0.620007 93.307 95.773 0.484 211.866 0.508ZM147.919 73.509C150.571 86.487 147.995 98.591 144.073 110.497C141.357 118.741 137.603 126.68 135.362 135.036C131.668 148.805 127.477 162.655 125.94 176.737C123.73 196.987 131.735 214.823 145.433 232.559L82.467 219.38C82.577 221.358 82.46 222.107 82.677 222.741C88.645 240.171 99.148 254.856 110.92 268.698C112.166 270.163 115.002 270.915 117.102 270.919C179.884 271.034 242.667 271.028 305.449 270.947C307.397 270.944 309.995 270.578 311.19 269.329C324.646 255.266 334.936 239.25 341.369 219.072L274.711 232.048C279.108 223.481 284.128 215.948 287.013 207.671C296.882 179.356 292.792 151.981 278.626 126.162C267.258 105.442 256.772 84.813 262.443 59.842C250.438 71.628 245.828 86.632 242.902 102.095C240.02 117.325 238.322 132.779 236.091 148.231C235.774 147.764 235.363 147.42 235.299 147.019C235.041 145.398 234.8 143.764 234.712 142.126C233.357 116.816 228.384 92.43 217.889 69.139C211.711 55.429 204.899 41.412 211.267 25.058C206.957 27.317 203.062 29.563 200.27 32.769C191.937 42.338 188.491 53.831 187.604 66.414C186.847 77.164 185.808 87.966 183.803 98.537C181.696 109.646 178.355 120.535 170.847 130.746C167.814 108.936 167.477 87.366 147.919 73.509V73.509ZM309.796 290.032H112.882V324.039H309.796V290.032ZM151.925 341.607C151.762 369.924 180.776 391.021 216.634 389.49C246.35 388.221 272.65 364.98 270.389 341.607H151.925V341.607Z" fill="#E75225"/>
</svg>
