<svg width="599" height="91" viewBox="0 0 599 91" fill="none" xmlns="http://www.w3.org/2000/svg">
<g clip-path="url(#clip0_1_2)">
<path d="M403.5 31.2C403.4 32.5 403.1 33.7 403.1 35C403.1 43.5 403.2 51.9 403 60.4C402.8 68.2 396.6 74.1 388.7 73.8C388.7 71.7 388.7 69.6 388.7 67.5C388.7 52.8 388.7 38.2 388.7 23.5C388.7 18.4 390.6 17.1 395.7 16.5C407.9 15 415.6 20 419.3 31.6C420.5 35.4 422.6 39 424.7 43.6C427.2 38.2 429.3 33.5 431.5 28.9C436.5 17.9 444.7 13.8 456.4 16.9C458.1 17.4 460.5 19.8 460.5 21.4C460.8 38.9 460.7 56.4 460.7 73.9C452.7 73.9 446.6 68.2 446.5 60.3C446.3 51.9 446.5 43.4 446.4 34.9C446.4 33.6 446.1 32.4 446 31.1C445.7 31 445.3 30.9 445 30.9C444.3 32.1 443.4 33.2 442.8 34.4C438.1 44.6 433.6 54.8 428.9 64.9C428.2 66.5 426.2 68.7 425 68.5C423.4 68.3 421.5 66.4 420.7 64.8C415.9 54.7 411.4 44.5 406.7 34.3C406.1 33.1 405.3 32 404.5 30.9C404.2 31 403.8 31.1 403.5 31.2Z" fill="black"/>
<path d="M250 45.3C250 40.6 249.9 35.9 250 31.1C250.2 22.8 256.1 16.7 264.4 16.6C273.9 16.5 283.4 16.5 292.9 16.6C301.3 16.7 307.4 22.6 307.6 30.9C307.8 40.6 307.8 50.3 307.6 60C307.4 68.2 301.5 73.9 293.2 74C283.6 74.2 274 74.2 264.3 74C255.9 73.8 250.2 67.9 250 59.4C249.9 54.7 250 50 250 45.3ZM278.8 59.8C282.2 59.8 285.5 59.8 288.9 59.8C291.7 59.8 293.2 58.4 293.2 55.7C293.3 48.9 293.3 42.1 293.2 35.2C293.2 32.5 291.8 31 289.1 31C282.2 31 275.4 31 268.5 31C265.7 31 264.4 32.5 264.4 35.2C264.4 41.9 264.4 48.6 264.4 55.3C264.4 58.4 266.1 59.8 269.1 59.7C272.3 59.7 275.6 59.8 278.8 59.8Z" fill="black"/>
<path d="M497.9 74.1C493.2 74.1 488.4 74.2 483.7 74.1C475.2 73.9 469.3 68.1 469.2 59.7C469 50.1 469 40.6 469.2 31C469.4 22.7 475.5 16.8 483.8 16.7C493.3 16.6 502.8 16.6 512.3 16.7C520.6 16.8 526.7 22.9 526.8 31.2C526.9 40.8 526.9 50.3 526.8 59.9C526.7 68.1 520.8 73.9 512.6 74.1C507.6 74.2 502.7 74.1 497.9 74.1ZM497.5 59.8C500.9 59.8 504.2 59.7 507.6 59.8C510.7 59.9 512.3 58.5 512.4 55.4C512.4 48.7 512.4 42 512.4 35.3C512.4 32.6 511.1 31.1 508.3 31.1C501.4 31.1 494.6 31.1 487.7 31.1C484.9 31.1 483.5 32.5 483.5 35.2C483.5 42 483.5 48.8 483.5 55.7C483.5 58.4 485 59.8 487.7 59.8C491 59.8 494.3 59.8 497.5 59.8Z" fill="black"/>
<path d="M230.2 56.1C234.2 61.8 237.8 67 241.4 72.1C235.7 75.7 228.3 74.3 223.9 68.7C221.2 65.3 218.9 61.6 216.3 58.1C215.6 57.2 214.5 56.2 213.5 56.1C208.7 55.9 203.8 56 198.5 56C198.7 61.9 198 67.4 193 70.8C190.6 72.5 187.5 73.3 184.1 74.8C184.1 71.7 184.1 69.7 184.1 67.7C184.1 53 184.1 38.4 184.1 23.7C184.1 18.1 185.9 16.4 191.5 16.4C203 16.4 214.5 16.4 226 16.4C235.8 16.4 241.7 22.3 241.8 31.9C241.8 33.8 241.7 35.6 241.8 37.5C242.4 46.3 239.6 53 230.2 56.1ZM198.7 43.5C206.4 43.5 213.6 43.5 220.8 43.5C226.9 43.5 227.4 42.9 227.4 36.9C227.4 31.9 226.6 31.1 221.5 31C219.3 31 217 31 214.8 31C209.5 31 204.2 31 198.7 31C198.7 35.4 198.7 39.2 198.7 43.5Z" fill="black"/>
<path d="M132.6 60C130.9 69.1 126.3 73.6 118.2 73.9C118.1 72.7 118 71.6 118 70.4C118 55 118 39.6 118 24.2C118 18.3 119.7 16.6 125.5 16.6C137 16.6 148.5 16.6 160 16.6C169.7 16.6 175.6 22.5 175.7 32.1C175.7 36.2 175.7 40.3 175.7 44.4C175.6 53.8 169.7 59.7 160.2 59.7C151.3 59.8 142.5 59.7 133.6 59.8C133.4 59.8 133.1 59.9 132.6 60ZM132.4 47.1C138.7 47.1 144.7 47.1 150.7 47.1C161.6 47.1 161.4 48.5 161.3 35.9C161.3 32.5 159.8 30.9 156.3 31C149.9 31.1 143.6 31 137.2 31C135.6 31 134.1 31 132.4 31C132.4 36.6 132.4 41.6 132.4 47.1Z" fill="black"/>
<path d="M357.4 45.4C365 53.7 372.3 61.7 379.5 69.7C374.7 75.2 366.6 75.2 361.2 69.8C357.6 66.2 354.2 62.3 350.8 58.5C350 57.6 349.5 56.4 348.6 55C343.6 60.5 339.6 65 335.4 69.4C329.9 75.1 322.4 75.4 316.5 69.9C323.8 61.9 331.2 53.8 338.8 45.4C331.3 37.2 324 29.1 316.7 21.1C321.2 15.9 329.5 15.8 334.7 20.9C339.2 25.4 343.4 30.1 348.1 35.2C352.2 30.7 356.2 26.5 360 22.2C363.5 18.2 367.8 16.4 373 17.5C375.2 18 377.3 19.1 380.2 20.3C372.4 28.9 365.1 37 357.4 45.4Z" fill="#E57000"/>
<path d="M567.1 35.4C571.6 30.4 575.6 26 579.7 21.7C584.2 16.9 591.1 15.8 596.4 18.9C597.2 19.4 597.9 20.1 598.9 20.9C591.4 29.1 584.2 37.1 576.6 45.4C584.1 53.6 591.4 61.7 598.7 69.7C593.9 75.3 585.6 75.2 580.1 69.5C575.9 65.1 571.8 60.5 567.3 55.6C565 58 563 60.3 560.9 62.5C558.7 64.9 556.6 67.4 554.3 69.6C549 74.9 542.1 75.2 535.6 70C543 61.9 550.4 53.7 558 45.4C550.5 37.2 543.3 29.2 536 21.2C540 15.9 548.6 15.7 553.8 20.8C557.3 24.3 560.6 28.1 564 31.7C564.9 32.8 565.8 33.8 567.1 35.4Z" fill="#E57000"/>
<path d="M26.4 45.2C21.9 40.2 17.5 35.5 13.2 30.7C8.90001 26 4.7 21.3 0.5 16.7C4.3 11.9 11.7 10.5 17.6 13.6C19.7 14.7 21.6 16.2 23.2 17.9C31 26.3 38.7 34.7 46.4 43.2C47 43.8 47.5 44.6 48.2 45.5C39.2 55.3 30.4 65.3 21 74.8C15.3 80.5 5.50002 79.8 0.400024 73.9C8.90002 64.4 17.5 55 26.4 45.2Z" fill="#E57000"/>
<path d="M55 45.2C64.1 35.3 72.6 25.6 81.6 16.3C87.6 10.2 97.4 10.5 102.8 16.6C94.2 26 85.6 35.5 76.8 45.2C85.6 54.9 94.2 64.3 102.7 73.7C97.6 80.2 87.1 80.1 80.8 73.6C74.4 66.8 68.2 59.8 61.9 52.9C59.8 50.5 57.6 48 55 45.2Z" fill="#E57000"/>
<path d="M17.2 4.6C24.2 -1.5 32.3 -1.2 38.3 5.1C42.8 9.8 47.1 14.6 51.6 19.6C56.1 14.7 60.4 9.9 64.8 5.2C70.9 -1.2 79.7 -1.40002 85.9 4.79998C74.5 17.2 63.2 29.7 51.6 42.4C40.1 29.7 28.7 17.2 17.2 4.6Z" fill="black"/>
<path d="M86 85.8C79.5 91.9 71 91.7 65.1 85.5C60.6 80.8 56.3 76 51.7 70.9C47.3 75.8 43 80.5 38.6 85.2C32.5 91.7 24.2 92 17.3 85.9C28.6 73.4 40 61 51.7 48.1C63.1 60.8 74.5 73.2 86 85.8Z" fill="black"/>
</g>
<defs>
<clipPath id="clip0_1_2">
<rect width="599" height="91" fill="white"/>
</clipPath>
</defs>
</svg>
