<svg width="75" height="19" viewBox="0 0 75 19" fill="none" xmlns="http://www.w3.org/2000/svg">
<path d="M7.17 14.81C7.17 14.27 6.98 13.83 6.58 13.47C5.16 12.18 1.58 12.23 0.320001 12.36L0.18 11C0.39 10.98 5.33 10.5 7.49 12.45C8.18 13.07 8.53 13.86 8.53 14.8" fill="#FBB040"/>
<path d="M7.4 14.81C7.4 13.87 7.75 13.08 8.44 12.46C10.6 10.51 15.55 10.99 15.75 11.01L15.61 12.36C14.35 12.23 10.77 12.18 9.35 13.47C8.95 13.83 8.76 14.27 8.76 14.81" fill="#FBB040"/>
<path d="M21.48 6.85C21.48 5.74 21.88 4.79 22.68 4.01C23.48 3.23 24.44 2.84 25.56 2.84H27.18V5.19H25.88C25.3 5.19 24.83 5.37 24.48 5.72C24.13 6.07 23.96 6.54 23.96 7.13V13.53H21.48V6.85Z" fill="#FBB040"/>
<path d="M33.47 2.74001C34.98 2.74001 36.26 3.27001 37.31 4.32001C38.36 5.37001 38.89 6.67001 38.89 8.21001C38.89 9.76001 38.36 11.07 37.31 12.13C36.26 13.19 34.96 13.72 33.42 13.72C31.94 13.72 30.67 13.18 29.61 12.11C28.55 11.04 28.02 9.74001 28.02 8.21001C28.02 6.67001 28.55 5.38001 29.6 4.32001C30.66 3.27001 31.95 2.74001 33.47 2.74001V2.74001ZM30.57 8.27001C30.57 9.08001 30.86 9.79001 31.43 10.41C32.01 11.02 32.69 11.33 33.47 11.33C34.22 11.33 34.89 11.02 35.48 10.41C36.06 9.80001 36.36 9.07001 36.36 8.23001C36.36 7.40001 36.07 6.69001 35.51 6.07001C34.95 5.45001 34.26 5.15001 33.48 5.15001C32.68 5.15001 32 5.46001 31.43 6.07001C30.86 6.68001 30.57 7.42001 30.57 8.27001Z" fill="#FBB040"/>
<path d="M45.16 2.74001C46.67 2.74001 47.95 3.27001 49 4.32001C50.05 5.37001 50.58 6.67001 50.58 8.21001C50.58 9.76001 50.05 11.07 49 12.13C47.95 13.19 46.65 13.72 45.11 13.72C43.63 13.72 42.36 13.18 41.3 12.11C40.24 11.04 39.71 9.74001 39.71 8.21001C39.71 6.67001 40.24 5.38001 41.29 4.32001C42.34 3.27001 43.63 2.74001 45.16 2.74001V2.74001ZM42.25 8.27001C42.25 9.08001 42.54 9.79001 43.12 10.41C43.7 11.02 44.38 11.33 45.16 11.33C45.91 11.33 46.58 11.02 47.17 10.41C47.75 9.80001 48.05 9.07001 48.05 8.23001C48.05 7.40001 47.76 6.69001 47.2 6.07001C46.63 5.46001 45.95 5.15001 45.17 5.15001C44.37 5.15001 43.69 5.46001 43.12 6.07001C42.55 6.68001 42.25 7.42001 42.25 8.27001Z" fill="#FBB040"/>
<path d="M55.75 13.57C54.6 13.57 53.65 13.21 52.91 12.48C52.17 11.76 51.8 10.8 51.8 9.61V0.110001H54.28V3.04H56.24V5.33H54.28V9.64C54.28 10.14 54.44 10.54 54.75 10.86C55.06 11.17 55.48 11.33 55.99 11.33H56.25V13.57H55.75Z" fill="#FBB040"/>
<path d="M13.32 4.26C13.32 4.26 11.07 3.62 10.24 4.85C9.4 6.06001 11.68 7.76 13.32 4.26Z" fill="#FBB040"/>
<path d="M14.8 7.65C14.8 7.65 12.71 6.61 11.66 7.66C10.61 8.71 12.54 10.8 14.8 7.65Z" fill="#FBB040"/>
<path d="M7.82 1.38C7.82 1.38 6.37 3.21 7.18 4.45C7.99 5.69 10.43 4.23 7.82 1.38V1.38Z" fill="#FBB040"/>
<path d="M7.85 6.5C7.85 6.5 6.35 8.29 7.12 9.55C7.89 10.81 10.37 9.43 7.85 6.5Z" fill="#FBB040"/>
<path d="M2.47 4.26C2.47 4.26 4.72 3.62 5.55 4.85C6.38 6.08 4.11 7.76 2.47 4.26Z" fill="#FBB040"/>
<path d="M0.989998 7.65C0.989998 7.65 3.08 6.61 4.13 7.66C5.18 8.71 3.24 10.8 0.989998 7.65Z" fill="#FBB040"/>
<path d="M60.87 9.58C60.87 10.08 61.02 10.49 61.33 10.8C61.64 11.12 62.05 11.27 62.57 11.28H62.83L62.81 13.52H62.32C61.17 13.51 60.22 13.14 59.49 12.42C58.75 11.69 58.39 10.73 58.4 9.54L58.46 0.0500031L60.94 0.070003L60.87 9.58Z" fill="#FBB040"/>
<path d="M63.39 2.81001C63.59 3.37001 63.8 3.79001 63.96 4.18001C65.01 6.85001 66.11 9.22 67.16 11.89C68.08 14.21 67.34 14.79 64.85 15.42L63.99 18.24C66.55 18.38 69.81 16.95 70.89 14.43C72.03 10.7 73.39 6.55 74.89 2.82H73.83C71.98 2.82 71.58 4.47001 71.58 4.47001C70.95 6.51 70.11 8.49 69.26 10.75C69.02 10.17 68.88 9.86 68.77 9.55C68.04 7.59 67.58 6.26 66.8 4.32C66.8 4.32 66.38 2.82 64.68 2.82H63.39V2.81001Z" fill="#FBB040"/>
</svg>
