<svg width="180" height="43" viewBox="0 0 180 43" fill="none" xmlns="http://www.w3.org/2000/svg">
<g clip-path="url(#clip0)">
<path d="M36.4539 32.4091L27.4776 27.2233C26.2165 26.4972 24.6039 26.929 23.8741 28.1901C23.5913 28.6869 23.4804 29.2333 23.5339 29.7645V39.8988C23.5339 41.347 24.7109 42.524 26.163 42.524C27.6113 42.524 28.7883 41.3471 28.7883 39.8988V34.0712L33.8172 36.9754C35.0783 37.7052 36.6947 37.2697 37.4207 36.0086C38.1506 34.7476 37.7188 33.1349 36.4539 32.4089V32.4091ZM14.1295 21.2964C14.1369 20.8366 14.0214 20.3831 13.795 19.9828C13.5687 19.5824 13.2396 19.2497 12.8417 19.019L3.86532 13.8371C3.47479 13.6121 3.03205 13.4936 2.58135 13.4933C1.6604 13.4933 0.804418 13.9862 0.345904 14.7811C-0.364907 16.0115 0.0592707 17.5897 1.28974 18.3005L6.4639 21.285L1.28984 24.2733C0.693678 24.6173 0.265588 25.1713 0.0898906 25.8363C-0.0897196 26.5011 0.00194415 27.1967 0.345904 27.7928C0.804418 28.5877 1.6604 29.0806 2.57753 29.0806C3.02851 29.0806 3.47558 28.9621 3.86532 28.7367L12.8417 23.5549C13.2364 23.3253 13.5633 22.9955 13.7895 22.5989C14.0156 22.2023 14.1329 21.753 14.1295 21.2964ZM5.90218 10.1648L14.8786 15.3466C15.9256 15.9541 17.2172 15.7555 18.0426 14.9491C18.5662 14.4677 18.8909 13.7798 18.8909 13.0156V2.6291C18.8909 1.177 17.714 0 16.2657 0C14.8136 0 13.6366 1.177 13.6366 2.6291V8.5408L8.53881 5.5983C7.27782 4.8685 5.66524 5.3003 4.93535 6.5612C4.20547 7.8222 4.64109 9.4349 5.90218 10.1648ZM26.0865 21.7168C26.0865 21.9155 25.972 22.1907 25.8306 22.3358L22.2729 25.8935C22.1315 26.035 21.8526 26.1496 21.6538 26.1496H20.7482C20.5494 26.1496 20.2705 26.035 20.129 25.8936L16.5676 22.3358C16.4262 22.1907 16.3115 21.9155 16.3115 21.7168V20.8111C16.3115 20.6086 16.4262 20.3335 16.5676 20.1921L20.129 16.6306C20.2705 16.4892 20.5494 16.3746 20.7482 16.3746H21.6538C21.8526 16.3746 22.1315 16.4892 22.2729 16.6306L25.8306 20.1921C25.972 20.3335 26.0866 20.6086 26.0866 20.8111L26.0865 21.7168ZM22.911 21.2812V21.243C22.911 21.0977 22.8269 20.8952 22.7238 20.7882L21.6729 19.7412C21.5697 19.6342 21.3672 19.5501 21.2182 19.5501H21.18C21.0347 19.5501 20.8322 19.6342 20.7252 19.7412L19.6782 20.7882C19.575 20.8914 19.4909 21.0939 19.4909 21.2429V21.2812C19.4909 21.4302 19.5751 21.6328 19.6782 21.7359L20.7252 22.7868C20.8322 22.8899 21.0347 22.9741 21.18 22.9741H21.2182C21.3672 22.9741 21.5697 22.8899 21.6729 22.7868L22.7238 21.7359C22.827 21.6328 22.911 21.4302 22.911 21.2812ZM27.4776 15.3466L36.4539 10.1648C37.715 9.4387 38.1506 7.8223 37.4207 6.5612C36.6909 5.3003 35.0783 4.8685 33.8172 5.5983L28.7883 8.5025V2.6291C28.7883 1.177 27.6113 0 26.163 0C24.7109 0 23.5339 1.177 23.5339 2.6291V12.8093C23.4842 13.3365 23.5874 13.8868 23.8741 14.3836C24.6038 15.6446 26.2165 16.0765 27.4776 15.3466ZM16.6784 26.9177C16.0822 26.803 15.4441 26.8986 14.8786 27.2234L5.90218 32.4091C4.64119 33.1351 4.20547 34.7477 4.93535 36.0088C5.66514 37.2737 7.27782 37.7055 8.53891 36.9756L13.6367 34.0332V39.8989C13.6367 41.3472 14.8135 42.5243 16.2657 42.5243C17.714 42.5243 18.8909 41.3472 18.8909 39.899V29.5124C18.8909 28.2016 17.9319 27.1164 16.6784 26.9177ZM42.0637 14.7504C41.3376 13.4855 39.7212 13.0538 38.4601 13.7836L29.4837 18.9655C28.6239 19.4622 28.1502 20.3717 28.1654 21.2964C28.1578 22.2174 28.6317 23.1154 29.4837 23.6046L38.4601 28.7902C39.7211 29.5162 41.3338 29.0844 42.0637 27.8233C42.7936 26.5623 42.358 24.9497 41.0969 24.2198L36.0145 21.285L41.0969 18.3502C42.3618 17.6241 42.7936 16.0115 42.0637 14.7504ZM180 20.6774V20.7768C180 21.2659 179.591 21.6288 179.086 21.6288H166.476C166.499 21.927 166.537 22.2174 166.598 22.504C167.183 25.2363 169.522 27.2692 172.3 27.2921H173.033C173.091 27.2921 173.148 27.2921 173.209 27.2883C173.263 27.2883 173.316 27.2845 173.37 27.2807C173.373 27.2807 173.377 27.2807 173.381 27.2769C174.302 27.2043 175.231 26.8337 176.06 26.2375H176.064C176.108 26.2056 176.151 26.1725 176.194 26.1382C176.202 26.1343 176.209 26.1267 176.22 26.119C176.258 26.09 176.295 26.0607 176.331 26.0311C176.347 26.0197 176.358 26.0083 176.373 25.9967C176.405 25.9724 176.435 25.947 176.465 25.9204C176.484 25.9051 176.507 25.886 176.526 25.8706C176.549 25.847 176.573 25.8253 176.599 25.8057C176.622 25.7828 176.648 25.7599 176.671 25.7369C176.691 25.7201 176.711 25.7022 176.729 25.6834C176.759 25.6567 176.786 25.6299 176.817 25.6032C176.832 25.5879 176.847 25.5687 176.862 25.5535L176.954 25.4618L176.996 25.4197L177.088 25.3165C177.103 25.3051 177.114 25.2898 177.126 25.2745C177.16 25.2401 177.191 25.2057 177.222 25.1713C177.233 25.1561 177.248 25.1407 177.26 25.1255C177.29 25.0873 177.317 25.0529 177.348 25.0184L177.394 24.9612C177.42 24.9268 177.447 24.8962 177.47 24.8656C177.491 24.8378 177.511 24.8098 177.531 24.7815C177.55 24.7548 177.569 24.7319 177.588 24.7052C177.619 24.6631 177.65 24.6211 177.676 24.579C177.686 24.5666 177.695 24.5538 177.703 24.5409C177.78 24.4282 177.854 24.3135 177.925 24.1969C177.925 24.1969 177.925 24.193 177.929 24.1893C177.944 24.1626 177.963 24.1396 177.982 24.1129C177.99 24.1014 177.997 24.0899 178.009 24.0822C178.02 24.0632 178.035 24.0517 178.047 24.0364L178.081 24.002C178.097 23.9906 178.108 23.979 178.123 23.9676C178.135 23.9561 178.146 23.9447 178.162 23.9371C178.182 23.9209 178.204 23.9068 178.227 23.895C178.242 23.8835 178.259 23.8732 178.276 23.8645C178.293 23.8576 178.31 23.8499 178.326 23.8415C178.341 23.8339 178.357 23.83 178.368 23.8224C178.391 23.8148 178.41 23.811 178.433 23.8033C178.445 23.7994 178.452 23.7957 178.464 23.7918C178.536 23.7765 178.613 23.7651 178.685 23.7651C178.766 23.7651 178.85 23.7765 178.926 23.7995H178.934C178.964 23.811 178.999 23.8186 179.029 23.8339C179.037 23.8378 179.045 23.8378 179.052 23.8415C179.085 23.8558 179.117 23.8724 179.148 23.8912L179.163 23.8988C179.584 24.2045 179.713 24.7395 179.457 25.179L179.454 25.1828C179.424 25.2317 179.393 25.2801 179.362 25.328C179.354 25.3394 179.347 25.351 179.339 25.3624C178.445 26.7228 177.23 27.8081 175.873 28.4576C175.842 28.4692 175.816 28.4845 175.785 28.4997C175.781 28.4997 175.774 28.5036 175.77 28.5036C175.143 28.794 174.471 28.9965 173.752 29.0806C173.737 29.0806 173.722 29.0844 173.706 29.0844C173.645 29.0927 173.584 29.099 173.523 29.1035C173.488 29.1035 173.454 29.1073 173.416 29.1111C173.374 29.1111 173.328 29.1149 173.286 29.1188C173.202 29.1188 173.118 29.1226 173.034 29.1226H172.292C168.051 29.092 164.634 25.5535 164.634 21.22C164.634 16.8139 168.074 13.2562 172.35 13.2562C172.476 13.2562 172.602 13.2601 172.728 13.2639C174.218 13.3404 175.594 13.8486 176.737 14.6817C176.741 14.6855 176.744 14.6893 176.748 14.6893C176.813 14.7351 176.874 14.7848 176.935 14.8307C176.966 14.8574 177 14.8842 177.035 14.9109C177.065 14.9339 177.096 14.9606 177.126 14.9835C178.735 16.3248 179.82 18.3386 180 20.6696V20.6774ZM166.598 19.829H178.013C177.447 17.0776 175.082 15.0868 172.349 15.0868C169.567 15.0868 167.221 17.0394 166.598 19.829ZM147.759 13.5238C147.9 13.6651 147.996 13.8563 148.019 14.0779C148.019 14.1085 148.023 14.139 148.023 14.1696V28.2055C148.023 28.706 147.602 29.1226 147.105 29.1226C146.609 29.1226 146.192 28.706 146.192 28.2055V26.3407C145.844 26.761 145.462 27.1431 145.046 27.4756C145.034 27.4871 145.023 27.4947 145.011 27.5062C144.973 27.5367 144.933 27.566 144.893 27.594C143.632 28.5647 142.099 29.1226 140.498 29.1226C137.919 29.1226 135.649 27.7508 134.296 25.6719C134.285 25.6567 134.269 25.6375 134.258 25.6222C134.22 25.5573 134.182 25.4923 134.139 25.4235C134.113 25.3815 134.09 25.3394 134.063 25.2973C134.036 25.2554 134.013 25.2095 133.99 25.1637C133.952 25.0983 133.915 25.032 133.88 24.9649C133.868 24.942 133.861 24.9192 133.849 24.8962C133.331 23.8689 133.037 22.7437 132.985 21.5945C132.97 21.3247 132.97 21.0542 132.985 20.7844C133.037 19.634 133.332 18.5076 133.849 17.4788C133.861 17.4599 133.868 17.4369 133.88 17.414C133.915 17.3469 133.952 17.2807 133.99 17.2153C134.013 17.1693 134.036 17.1235 134.063 17.0815C134.086 17.0394 134.113 16.9974 134.139 16.9554C134.178 16.8904 134.22 16.8216 134.258 16.7567C134.269 16.7414 134.285 16.7222 134.296 16.707C135.649 14.6282 137.919 13.2563 140.498 13.2563C142.241 13.2563 143.888 13.8945 145.198 15.0064C145.558 15.3083 145.89 15.6409 146.192 16.0077V14.1695C146.192 14.139 146.192 14.1085 146.196 14.0779C146.219 13.8563 146.314 13.6651 146.456 13.5238V13.52C146.471 13.5047 146.49 13.4933 146.506 13.4779L146.521 13.4626C146.532 13.4512 146.548 13.4436 146.559 13.4359C146.57 13.4283 146.582 13.4168 146.593 13.4091C146.602 13.4055 146.61 13.4003 146.616 13.3939C146.635 13.3862 146.651 13.3748 146.67 13.3633C146.674 13.3633 146.678 13.3594 146.681 13.3594L146.75 13.3251H146.754C146.808 13.3028 146.865 13.2861 146.922 13.2754C146.926 13.2754 146.934 13.2716 146.937 13.2716C146.96 13.2678 146.987 13.264 147.014 13.2601C147.044 13.2601 147.075 13.2563 147.106 13.2563C147.14 13.2563 147.17 13.2601 147.201 13.2601C147.228 13.264 147.251 13.2678 147.277 13.2716C147.281 13.2716 147.285 13.2755 147.293 13.2755C147.35 13.2862 147.407 13.3028 147.461 13.3251H147.465C147.488 13.3365 147.511 13.348 147.53 13.3595C147.538 13.3595 147.541 13.3633 147.545 13.3633C147.561 13.3749 147.577 13.3851 147.595 13.3939C147.602 13.4015 147.614 13.4053 147.621 13.4091C147.633 13.4168 147.644 13.4283 147.656 13.4359C147.668 13.4436 147.68 13.4526 147.69 13.4626C147.698 13.4666 147.702 13.4741 147.709 13.4779C147.725 13.4933 147.744 13.5047 147.755 13.52L147.759 13.5239V13.5238ZM140.498 27.2921C143.635 27.2921 146.192 24.5561 146.192 21.1895C146.192 17.8076 143.636 15.0561 140.498 15.0561C137.384 15.0561 134.804 17.8037 134.804 21.1895C134.804 21.2964 134.808 21.3996 134.812 21.5028C134.812 21.5486 134.82 21.5907 134.82 21.6328C134.824 21.6939 134.828 21.755 134.835 21.8124C134.839 21.8621 134.847 21.9078 134.851 21.9537C134.858 22.0072 134.862 22.0646 134.87 22.1181C134.877 22.1601 134.885 22.1983 134.889 22.2364C134.9 22.2977 134.908 22.3587 134.919 22.42C134.927 22.4505 134.934 22.4773 134.938 22.5041C134.954 22.5766 134.969 22.6454 134.984 22.718C134.988 22.7338 134.993 22.7491 134.999 22.7638C135.649 25.3777 137.881 27.2922 140.498 27.2922V27.2921ZM124.789 6.6378H124.54C124.51 6.6378 124.475 6.6378 124.445 6.6416C124.41 6.6377 124.38 6.6377 124.345 6.6377C124.257 6.6377 124.17 6.6377 124.082 6.6416C124.066 6.6416 124.047 6.6454 124.032 6.6454C123.963 6.6454 123.894 6.6492 123.825 6.6568H123.787C123.715 6.6645 123.646 6.6683 123.577 6.6759C123.569 6.6798 123.562 6.6798 123.554 6.6798C123.478 6.6913 123.405 6.6989 123.336 6.7103H123.329C122.866 6.7829 122.45 6.9128 122.079 7.0963C122.079 7.1002 122.075 7.1002 122.071 7.1002C122.018 7.1307 121.96 7.1612 121.907 7.1918C121.895 7.1957 121.888 7.2033 121.876 7.2109C121.83 7.2376 121.784 7.2656 121.739 7.295C121.72 7.3065 121.704 7.3218 121.689 7.3332C121.651 7.3561 121.617 7.3829 121.578 7.4096C121.552 7.4324 121.526 7.4541 121.498 7.4746L121.429 7.5319C121.387 7.5701 121.349 7.6046 121.311 7.6427C121.303 7.6504 121.296 7.658 121.288 7.6657C121.242 7.7153 121.196 7.7612 121.15 7.8109C121.142 7.8223 121.135 7.8338 121.127 7.8414C121.089 7.8825 121.052 7.9246 121.017 7.9676C121.005 7.9867 120.99 8.0058 120.978 8.0248C120.949 8.0609 120.921 8.0978 120.894 8.1357C120.888 8.1498 120.879 8.1627 120.868 8.1738C120.837 8.2198 120.807 8.2656 120.78 8.3115C120.776 8.3191 120.772 8.3229 120.768 8.3305C120.52 8.7395 120.344 9.221 120.233 9.8019C120.233 9.8094 120.233 9.8209 120.229 9.8286C120.214 9.9012 120.203 9.9776 120.191 10.0541C120.187 10.077 120.183 10.0998 120.183 10.1228C120.172 10.1887 120.163 10.255 120.157 10.3214C120.153 10.3598 120.149 10.3979 120.145 10.44C120.137 10.4935 120.13 10.5432 120.126 10.6004C120.122 10.659 120.118 10.7176 120.115 10.7762C120.111 10.8144 120.111 10.8527 120.107 10.8947C120.103 10.9749 120.099 11.059 120.095 11.1432C120.095 11.1661 120.091 11.1813 120.091 11.2004C120.088 11.3074 120.088 11.4183 120.088 11.5252V13.0347H118.185C118.066 13.0308 117.948 13.0538 117.841 13.092C117.497 13.2182 117.252 13.543 117.252 13.9213C117.252 14.2767 117.428 14.5785 117.703 14.7543C117.845 14.8451 118.009 14.8965 118.177 14.9033H118.185V14.9072H120.088V28.2361C120.084 28.2551 120.088 28.2704 120.088 28.2896V28.3239C120.099 28.5326 120.184 28.7305 120.328 28.8818L120.332 28.8857C120.352 28.9048 120.374 28.9239 120.394 28.943C120.397 28.9469 120.401 28.9469 120.405 28.9506C120.42 28.966 120.439 28.9774 120.455 28.9887C120.463 28.9963 120.472 29.0028 120.481 29.0079C120.489 29.0152 120.498 29.0205 120.508 29.0233C120.661 29.1211 120.839 29.1728 121.02 29.1723C121.05 29.1718 121.079 29.1692 121.108 29.1646C121.288 29.1494 121.452 29.0729 121.586 28.9621L121.59 28.9582C121.608 28.9437 121.625 28.927 121.639 28.9086C121.643 28.9047 121.651 28.901 121.655 28.8972C121.67 28.8818 121.681 28.8666 121.693 28.8551C121.838 28.6793 121.918 28.4615 121.907 28.2361V14.9072H123.955V14.9032H123.963C124.506 14.8765 124.903 14.4524 124.888 13.925V13.9174C124.892 13.8983 124.888 13.8793 124.888 13.8601V13.841C124.872 13.6385 124.784 13.455 124.647 13.3137V13.3098H124.643C124.626 13.2923 124.608 13.2757 124.589 13.2601C124.582 13.2525 124.574 13.2487 124.57 13.2411C124.555 13.2296 124.544 13.222 124.528 13.2104C124.517 13.2028 124.502 13.1914 124.49 13.1837C124.482 13.1799 124.471 13.1723 124.463 13.1685C124.445 13.1568 124.426 13.1466 124.406 13.1379C124.402 13.1339 124.397 13.1312 124.391 13.1302C124.369 13.1185 124.346 13.1083 124.322 13.0997C124.318 13.0958 124.314 13.0958 124.307 13.0921L124.238 13.0691C124.23 13.0691 124.223 13.0653 124.215 13.0653C124.192 13.0615 124.173 13.0538 124.15 13.05C124.139 13.05 124.127 13.05 124.116 13.0462C124.1 13.0424 124.081 13.0424 124.062 13.0386H124.02C124.009 13.0386 123.997 13.0347 123.986 13.0347H121.907V11.4986C121.911 11.4222 121.911 11.3457 121.915 11.2731C121.915 11.254 121.915 11.231 121.919 11.2119C121.919 11.147 121.923 11.082 121.927 11.0209C121.927 11.0094 121.93 10.9942 121.93 10.9827C121.935 10.9112 121.941 10.8398 121.95 10.7687C122.022 10.0235 122.183 9.5535 122.351 9.2668C122.355 9.2592 122.355 9.2554 122.359 9.2478C122.37 9.2287 122.385 9.2096 122.397 9.1904C122.406 9.1743 122.416 9.159 122.427 9.1446C122.431 9.1369 122.439 9.1217 122.446 9.114C122.465 9.0882 122.485 9.0639 122.508 9.0415C122.748 8.7701 123.123 8.6058 123.665 8.5409C123.673 8.5409 123.677 8.537 123.688 8.537C123.72 8.5325 123.752 8.53 123.784 8.5293C123.799 8.5255 123.818 8.5255 123.834 8.5217C123.864 8.5217 123.891 8.5179 123.921 8.5179C123.944 8.5179 123.963 8.5141 123.99 8.5141C124.017 8.5103 124.044 8.5103 124.07 8.5103C124.097 8.5103 124.124 8.5063 124.151 8.5063H124.349C124.38 8.5063 124.407 8.5026 124.437 8.4988C124.472 8.5026 124.506 8.5064 124.54 8.5064H124.789C125.301 8.5064 125.721 8.0861 125.721 7.5702C125.721 7.0543 125.301 6.6378 124.789 6.6378ZM129.718 6.6645C129.718 6.6645 129.714 6.6605 129.71 6.6605C129.691 6.653 129.676 6.6454 129.653 6.6416C129.643 6.6371 129.633 6.6333 129.622 6.63C129.607 6.6262 129.592 6.6224 129.576 6.6186C129.561 6.6148 129.546 6.6071 129.534 6.6071C129.515 6.6032 129.5 6.5995 129.481 6.5995C129.466 6.5956 129.454 6.5956 129.439 6.5919C129.408 6.588 129.374 6.588 129.343 6.588C128.847 6.588 128.426 7.0046 128.426 7.5014V28.2055C128.426 28.706 128.847 29.1226 129.343 29.1226C129.374 29.1226 129.408 29.1226 129.439 29.1188C129.443 29.1188 129.45 29.1149 129.454 29.1149L129.534 29.1035C129.538 29.1035 129.546 29.0997 129.553 29.0997C129.576 29.0921 129.599 29.0882 129.622 29.0806C129.626 29.0806 129.63 29.0806 129.634 29.0767C129.985 28.966 130.245 28.6679 130.283 28.301C130.288 28.2694 130.291 28.2374 130.291 28.2055V7.5014C130.291 7.4707 130.287 7.4402 130.283 7.4096C130.249 7.0734 130.027 6.7944 129.718 6.6645ZM59.5541 24.2503C59.5464 24.1969 59.5464 24.1472 59.5388 24.0975C59.5352 24.0618 59.5314 24.0261 59.5274 23.9905C59.5197 23.9484 59.5159 23.9103 59.5082 23.8682C59.5006 23.83 59.4929 23.7919 59.4853 23.7498C59.4808 23.7176 59.4744 23.6857 59.4662 23.6542C59.4548 23.6084 59.447 23.5663 59.4356 23.5205C59.428 23.4975 59.4203 23.4708 59.4127 23.4478C59.4015 23.3995 59.3861 23.3522 59.3668 23.3065C59.363 23.2874 59.3554 23.2683 59.3516 23.253C59.3328 23.2001 59.3125 23.1479 59.2904 23.0963C59.2865 23.0887 59.2828 23.0772 59.279 23.0657C59.2522 23.0122 59.2293 22.9549 59.2025 22.9014C59.1987 22.8976 59.1987 22.8937 59.1948 22.8899C58.9771 22.4505 58.6676 22.0836 58.2893 21.7741C58.2893 21.7703 58.2893 21.7703 58.2854 21.7703C58.2319 21.7282 58.1784 21.6824 58.121 21.6404C58.121 21.6404 58.1173 21.6365 58.1135 21.6328C58.1096 21.6328 58.1058 21.6288 58.102 21.6251C58.0676 21.6022 58.0332 21.5754 58.0026 21.5525C57.5326 21.22 57.0129 20.9564 56.2562 20.6659L56.2219 20.6545C56.2104 20.6469 56.1951 20.643 56.1837 20.6354C55.7556 20.475 55.3124 20.3221 54.8577 20.173H54.8538C54.8538 20.173 54.8501 20.173 54.8501 20.1692C54.8424 20.1692 54.8347 20.1653 54.8233 20.1615C54.774 20.1438 54.7243 20.1272 54.6743 20.1118C54.6436 20.1042 54.6208 20.0966 54.5978 20.0889C54.445 20.0354 54.2882 19.9857 54.1316 19.9322C54.0208 19.8941 53.9023 19.8559 53.7609 19.8099C53.7227 19.7985 53.631 19.7679 53.5545 19.745C53.5507 19.745 53.5507 19.7412 53.5469 19.7412C53.5 19.7253 53.4528 19.71 53.4055 19.6953C53.0234 19.573 52.71 19.4661 52.4425 19.3667C52.0069 19.2063 51.6095 19.0343 51.2847 18.8279C51.2778 18.8249 51.2714 18.8211 51.2656 18.8164C50.8223 18.5337 50.5166 18.1859 50.444 17.7311L50.4401 17.7273C50.4357 17.6957 50.4332 17.6638 50.4326 17.6318C50.4287 17.6242 50.4287 17.6204 50.4287 17.6165C50.425 17.5783 50.425 17.5439 50.425 17.5057C50.425 17.4522 50.4288 17.3987 50.4326 17.349C50.4326 17.3338 50.4326 17.3223 50.4364 17.3109C50.4402 17.2688 50.444 17.2306 50.4478 17.1924C50.4517 17.1808 50.4517 17.1694 50.4555 17.158C50.4631 17.1159 50.4707 17.0777 50.4784 17.0357C50.4823 17.0319 50.4823 17.0242 50.486 17.0166C50.4964 16.9727 50.5092 16.9293 50.5242 16.8867V16.8828C50.7229 16.2905 51.193 15.8511 51.747 15.5416C51.7852 15.5224 51.8235 15.5033 51.8579 15.4842C51.8961 15.4651 51.9305 15.4461 51.9649 15.4307C52.0214 15.4036 52.0788 15.3782 52.1368 15.3543C52.1713 15.339 52.2018 15.3237 52.2362 15.3123L52.4196 15.2435C52.4525 15.2314 52.4856 15.2199 52.5189 15.209C52.5801 15.19 52.6374 15.1709 52.6986 15.1555C52.7368 15.1441 52.7712 15.1326 52.8094 15.125C52.8667 15.1097 52.924 15.0982 52.9776 15.083L53.0922 15.0601C53.1534 15.0485 53.2106 15.0371 53.2642 15.0294C53.2975 15.0262 53.3307 15.0211 53.3635 15.0142C53.4308 15.0058 53.4983 14.9994 53.566 14.9951C53.5813 14.9912 53.5966 14.9912 53.6157 14.9875C53.6998 14.9836 53.7839 14.9798 53.8642 14.9798C53.9596 14.9798 54.0552 14.9837 54.1469 14.9875H54.1889C54.8653 15.0295 55.4118 15.1938 55.8628 15.4116C55.897 15.4269 55.9314 15.446 55.9659 15.4612C55.9842 15.4729 56.0033 15.4832 56.0232 15.4919C56.0653 15.5148 56.1073 15.5377 56.1531 15.5645L56.176 15.5759C56.2219 15.6027 56.2678 15.6332 56.3136 15.66C56.3156 15.6622 56.3183 15.6636 56.3213 15.6638C56.3709 15.6944 56.4206 15.7288 56.4703 15.7593C56.4703 15.7632 56.4741 15.7632 56.4741 15.767C56.5238 15.7976 56.5697 15.8281 56.6154 15.8625C56.6324 15.8765 56.6502 15.8893 56.669 15.9007C56.776 15.9809 56.9441 16.1109 57.0969 16.237C57.1136 16.2466 57.129 16.2581 57.1428 16.2714C57.2575 16.3669 57.3645 16.451 57.4676 16.5275C57.4824 16.5395 57.4977 16.551 57.5135 16.5618C57.5173 16.5657 57.5211 16.5694 57.5249 16.5694L57.5594 16.5924C57.5861 16.6115 57.6167 16.6306 57.6435 16.6497C57.6549 16.6574 57.6664 16.6612 57.6777 16.6688L57.7581 16.7147C57.7695 16.7185 57.7771 16.7223 57.7887 16.7261C57.8172 16.7405 57.8466 16.7532 57.8765 16.7643C57.8842 16.7682 57.888 16.7682 57.8956 16.7719C57.93 16.7835 57.9644 16.7949 57.9988 16.7987L58.0026 16.8026C58.079 16.814 58.1516 16.8178 58.2281 16.7986C58.2357 16.7986 58.2434 16.7949 58.251 16.7949C58.2701 16.791 58.2931 16.7835 58.3122 16.7797C58.3198 16.7757 58.3236 16.772 58.3312 16.7681C58.3394 16.7673 58.3472 16.7647 58.3542 16.7605C58.3856 16.7454 58.4161 16.7289 58.4459 16.7109C58.4535 16.7109 58.4573 16.707 58.4611 16.7033C58.4946 16.6812 58.5265 16.6569 58.5567 16.6306L58.5605 16.6268C58.5872 16.6039 58.6102 16.5772 58.6331 16.5504C58.6493 16.5302 58.6634 16.5084 58.6752 16.4854C58.679 16.4815 58.6828 16.4778 58.6828 16.4739C58.8433 16.2064 58.7516 15.8549 58.4688 15.4727C58.465 15.4651 58.4611 15.4574 58.4535 15.4498C58.4421 15.4345 58.4344 15.4231 58.423 15.4077C57.7733 14.5671 56.2945 13.6461 54.9226 13.3519C54.9149 13.3519 54.9073 13.3519 54.8997 13.348C54.8423 13.3365 54.7812 13.3251 54.7239 13.3137C54.7071 13.313 54.6904 13.3104 54.6742 13.306C54.6245 13.2984 54.5749 13.2908 54.5252 13.2869C54.5064 13.2825 54.4872 13.28 54.4678 13.2793C54.422 13.2754 54.3723 13.2717 54.3265 13.2679C54.3073 13.264 54.2882 13.264 54.273 13.2602C54.208 13.2602 54.1468 13.2563 54.0857 13.2563C53.9863 13.2563 53.887 13.2563 53.7915 13.2602C53.738 13.2602 53.6845 13.2641 53.6271 13.2679C53.589 13.2717 53.543 13.2717 53.5048 13.2717C53.4284 13.2793 53.3559 13.2831 53.2833 13.2908C53.2641 13.2908 53.2412 13.2908 53.2221 13.2946C53.1391 13.3014 53.0562 13.3103 52.9736 13.3213H52.9469C52.8613 13.3319 52.7759 13.3446 52.6909 13.3594H52.6757C52.5925 13.3713 52.5096 13.3853 52.4272 13.4015C52.4235 13.4015 52.4196 13.4054 52.4119 13.4054C52.2436 13.4356 52.0767 13.4726 51.9113 13.5162C51.9075 13.5162 51.9075 13.5201 51.9075 13.5201C51.8273 13.5391 51.7471 13.562 51.6669 13.5849C51.5904 13.6079 51.5178 13.6346 51.449 13.6576C51.4414 13.6576 51.4375 13.6614 51.4298 13.6614C51.3611 13.6881 51.2923 13.711 51.2234 13.7377C51.2175 13.7413 51.2111 13.7439 51.2044 13.7455C51.1385 13.7712 51.0734 13.7992 51.0095 13.8296C51.0018 13.8333 50.9904 13.8333 50.9828 13.841C50.9254 13.8639 50.8643 13.8945 50.8108 13.9213C50.7955 13.9289 50.7841 13.9327 50.7726 13.9403C50.7167 13.9661 50.6619 13.9941 50.6083 14.0245C50.593 14.0321 50.5815 14.0397 50.5662 14.0474C50.5165 14.0741 50.4669 14.1047 50.4172 14.1352C50.4011 14.1427 50.3858 14.1517 50.3713 14.162C50.3064 14.2002 50.2452 14.2422 50.1841 14.2804C50.1115 14.334 50.0389 14.3836 49.9739 14.4371C49.9662 14.4371 49.9624 14.441 49.9624 14.4447C49.6376 14.6855 49.3586 14.9415 49.1294 15.2396C49.1218 15.251 49.1103 15.2626 49.1026 15.274C49.0759 15.3161 49.0453 15.3542 49.0185 15.3924C48.9995 15.423 48.9804 15.4536 48.9613 15.4841C48.9459 15.5062 48.9318 15.5292 48.9192 15.5529C48.8889 15.6026 48.8608 15.6536 48.8351 15.7058C48.8314 15.7134 48.8275 15.7173 48.8237 15.7249C48.6173 16.1338 48.4989 16.6039 48.453 17.1732C48.453 17.1808 48.453 17.1885 48.4492 17.1961C48.4453 17.2955 48.4377 17.3949 48.4339 17.5018C48.4339 17.582 48.4339 17.6623 48.4378 17.7426V17.777C48.4798 18.8699 48.9765 19.6915 49.8746 20.3297C49.8822 20.3335 49.8898 20.3411 49.8975 20.345L50.0121 20.4252C50.0388 20.4443 50.0695 20.4596 50.0963 20.4787C50.1038 20.4863 50.1153 20.4901 50.123 20.494C51.0095 21.0558 52.0948 21.3767 53.0004 21.6328C53.4437 21.7627 53.8412 21.8734 53.9596 21.9078C53.9863 21.9155 54.0131 21.9232 54.0359 21.9346C54.5787 22.1143 54.9952 22.2594 55.3391 22.397C55.3659 22.4046 55.3888 22.4162 55.4155 22.4238C55.4231 22.4276 55.4347 22.4314 55.4461 22.439C55.641 22.5193 55.832 22.6034 56.0155 22.6951C56.1636 22.77 56.3089 22.8503 56.4511 22.9358C56.8141 23.1613 57.0931 23.4059 57.2804 23.6734C57.288 23.681 57.2918 23.6887 57.2956 23.6963C57.3144 23.7181 57.3299 23.7426 57.3415 23.7689C57.3518 23.782 57.3607 23.7961 57.3682 23.811C57.3799 23.8293 57.3901 23.8484 57.3988 23.8683C57.4103 23.8874 57.4179 23.9104 57.4294 23.9294L57.4524 23.9752C57.46 23.9982 57.4714 24.0211 57.4791 24.0478C57.483 24.0594 57.4905 24.0746 57.4943 24.0899L57.5173 24.1701C57.5216 24.1827 57.5255 24.1954 57.5288 24.2083C57.5369 24.2359 57.5433 24.264 57.5478 24.2925C57.5522 24.3048 57.5548 24.3176 57.5555 24.3306L57.567 24.4224C57.5708 24.4338 57.5708 24.4453 57.5708 24.4567C57.5746 24.5026 57.5784 24.5447 57.5784 24.5905C57.5784 24.6592 57.5745 24.7243 57.5708 24.7892C57.5708 24.8083 57.5669 24.8274 57.5669 24.8465C57.563 24.8967 57.5554 24.9465 57.544 24.9956C57.544 25.0108 57.5402 25.0261 57.5364 25.0414C57.5135 25.1752 57.4752 25.3013 57.4255 25.4274C57.4217 25.4312 57.4217 25.435 57.4217 25.4388C57.395 25.4961 57.3682 25.5573 57.3377 25.6108C57.3339 25.6184 57.3339 25.6222 57.3301 25.626C57.2651 25.7483 57.1887 25.8668 57.0931 25.9776C57.0468 26.0342 56.9984 26.089 56.948 26.142C56.944 26.142 56.944 26.142 56.944 26.1458C56.8409 26.2489 56.7263 26.3444 56.6078 26.4324C56.604 26.4362 56.6002 26.4362 56.6002 26.44C56.5429 26.4781 56.4855 26.5202 56.4282 26.5546C56.4206 26.5623 56.4129 26.5661 56.4053 26.5699C56.2661 26.6561 56.1219 26.7339 55.9735 26.803C55.9314 26.8222 55.8856 26.8451 55.8398 26.8641C55.8016 26.8794 55.7672 26.8948 55.7289 26.91C55.6257 26.9482 55.5264 26.9864 55.4232 27.0209C55.4074 27.0242 55.392 27.0293 55.3773 27.0361C55.3162 27.0552 55.2551 27.0706 55.1939 27.0896C55.1787 27.0935 55.1596 27.1011 55.1442 27.1049C54.9502 27.1563 54.7538 27.1985 54.5558 27.2311H54.5443C54.4488 27.2464 54.3571 27.2578 54.2692 27.2692C54.2348 27.2731 54.2042 27.2769 54.1699 27.2769C54.1392 27.2807 54.1087 27.2807 54.0743 27.2845C54.0018 27.2889 53.9291 27.2914 53.8564 27.2921C53.7188 27.2922 53.5812 27.2884 53.4438 27.2807C53.3903 27.2807 53.3368 27.2768 53.2833 27.2731C53.2107 27.2654 53.1343 27.2616 53.0654 27.2539C53.0003 27.2496 52.9353 27.2432 52.8705 27.2348C52.8132 27.2272 52.7597 27.2196 52.7062 27.2119C52.5878 27.1927 52.477 27.1775 52.3661 27.1546C52.3164 27.1431 52.2629 27.1355 52.2132 27.124C52.1559 27.1087 52.0987 27.0973 52.0414 27.0819C51.9784 27.0676 51.9159 27.0511 51.8541 27.0323C51.812 27.0209 51.7662 27.0093 51.7279 26.9979C51.6247 26.9675 51.5228 26.9331 51.4223 26.8948L51.3534 26.8718C51.1319 26.7876 50.914 26.696 50.6999 26.5891C50.6924 26.5851 50.6809 26.5775 50.6694 26.5737C50.5319 26.5049 50.2988 26.375 50.0772 26.2489C50.058 26.2375 50.0351 26.226 50.016 26.2145C49.8593 26.1228 49.7255 26.0464 49.5995 25.9853C49.5909 25.9795 49.582 25.9744 49.5727 25.9699C49.5668 25.9664 49.5603 25.9638 49.5536 25.9623C49.5192 25.947 49.4925 25.9318 49.4619 25.9202C49.4527 25.9171 49.4437 25.9133 49.4351 25.9088C49.3549 25.8782 49.2822 25.8553 49.2097 25.8476C49.1868 25.8438 49.1639 25.8438 49.1409 25.8438C49.1333 25.84 49.1256 25.84 49.118 25.84C48.9727 25.84 48.8466 25.8897 48.7281 26.0005C48.7021 26.0228 48.6778 26.047 48.6556 26.0731C48.6504 26.0817 48.6439 26.0894 48.6365 26.0961C48.6235 26.1124 48.6108 26.129 48.5983 26.1457C48.5914 26.1556 48.585 26.1658 48.5792 26.1763C48.5677 26.1916 48.5563 26.2068 48.5486 26.2222C48.542 26.2329 48.5368 26.2444 48.5333 26.2565L48.5104 26.3024C48.5065 26.3139 48.5028 26.3215 48.4989 26.3329C48.4926 26.3491 48.4875 26.3657 48.4836 26.3826C48.4798 26.3941 48.476 26.4018 48.476 26.4133L48.4645 26.4706C48.4645 26.4782 48.4607 26.4858 48.4607 26.4935C48.4569 26.5202 48.4569 26.5432 48.4569 26.5661V26.5775C48.4569 26.6081 48.4608 26.6348 48.4683 26.6655V26.6807C48.476 26.7037 48.4799 26.7304 48.4875 26.7533L48.4989 26.7877C48.5066 26.8068 48.5104 26.8298 48.5218 26.8489C48.5249 26.8581 48.5288 26.867 48.5333 26.8756C48.583 26.9902 48.6633 27.1087 48.7664 27.2234C48.8772 27.3456 49.0186 27.4679 49.1829 27.5941C49.1868 27.5941 49.1868 27.5941 49.1868 27.5978C49.2326 27.6285 49.2785 27.6628 49.3281 27.6972C49.3397 27.7049 49.3473 27.7125 49.3587 27.7163C49.5001 27.8128 49.6455 27.9033 49.7944 27.9876C49.8325 28.0106 49.8708 28.0336 49.909 28.0526C49.9472 28.0755 49.9854 28.0947 50.0237 28.1138C50.0696 28.1405 50.123 28.1672 50.1727 28.194C50.2071 28.2093 50.2376 28.2283 50.2721 28.2437C50.3485 28.2819 50.4287 28.3201 50.509 28.3584C50.5183 28.3649 50.5286 28.3701 50.5395 28.3736C50.6275 28.4157 50.7153 28.4538 50.8032 28.4883C50.8414 28.5035 50.8758 28.5188 50.914 28.534C50.921 28.5383 50.9288 28.5409 50.937 28.5417C51.7548 28.8627 52.7636 29.0768 53.6539 29.1149C53.7189 29.1188 53.7877 29.1226 53.8526 29.1226H53.8565C53.8871 29.1226 53.9138 29.1226 53.9444 29.1187H54.1508C54.1583 29.1187 54.166 29.1187 54.1737 29.1149C55.6219 29.0691 56.8104 28.6946 57.823 27.9533V27.9493C58.9466 27.1011 59.5656 25.905 59.5656 24.5866C59.5656 24.5025 59.5617 24.4185 59.558 24.3382C59.558 24.3076 59.5541 24.2771 59.5541 24.2503ZM68.8973 13.2868H68.8859C67.1051 13.2868 65.4238 14.0129 64.2085 15.2969V14.204C64.2085 13.6996 63.8187 13.2868 63.3258 13.2868C63.2913 13.2868 63.2608 13.2908 63.2302 13.2908C63.0124 13.3137 62.8213 13.4091 62.6799 13.5506C62.6761 13.5506 62.6761 13.5506 62.6723 13.5544C62.6608 13.5697 62.6456 13.5849 62.6341 13.6002C62.626 13.6045 62.6193 13.6112 62.615 13.6194C62.6035 13.6308 62.5959 13.6423 62.5883 13.6537C62.5806 13.6661 62.5716 13.6776 62.5616 13.6881L62.55 13.711C62.5394 13.7294 62.528 13.7473 62.5157 13.7645C62.5157 13.7685 62.5157 13.7722 62.5118 13.776L62.4775 13.8448C62.4583 13.9021 62.4393 13.9594 62.4278 14.0167C62.4278 14.0206 62.4278 14.0244 62.4239 14.0244C62.4204 14.0524 62.4165 14.0805 62.4125 14.1085C62.4125 14.139 62.4087 14.1696 62.4087 14.204V28.3965L62.3972 28.4576L62.4431 28.4958C62.4431 28.515 62.4469 28.5418 62.4584 28.5685C62.4584 28.5724 62.4623 28.5799 62.4623 28.5837C62.4707 28.6065 62.4837 28.6273 62.5004 28.6449C62.6188 28.8704 62.8366 29.0424 63.0927 29.1188L63.1118 29.1227H63.3258C63.3602 29.1227 63.3945 29.1227 63.429 29.1188C63.4519 29.1149 63.4749 29.1073 63.4978 29.1035C63.5092 29.1035 63.5168 29.1035 63.5284 29.0996C63.5594 29.0925 63.59 29.0835 63.62 29.0729H63.6239C63.7843 29.0157 63.9219 28.9163 64.0136 28.7825L64.0251 28.771C64.0863 28.706 64.1206 28.6373 64.1551 28.5418C64.1589 28.5303 64.1627 28.5226 64.1627 28.515C64.1665 28.5112 64.1665 28.5112 64.1665 28.5073C64.1818 28.4616 64.1932 28.4157 64.2047 28.3698L64.2086 28.3545V19.764C64.2696 17.2036 66.3637 15.1211 68.8782 15.1172H68.8859C71.4462 15.1172 73.5287 17.1999 73.5287 19.7602V28.2054C73.5287 28.2398 73.5326 28.2703 73.5365 28.3009C73.5534 28.5101 73.6441 28.7065 73.7925 28.855C73.7925 28.855 73.7963 28.855 73.7963 28.8588C73.8115 28.8741 73.8268 28.8855 73.8422 28.9009C73.8475 28.9071 73.854 28.9123 73.8612 28.9162C73.8727 28.9276 73.8841 28.9352 73.8956 28.9429C73.9061 28.953 73.9176 28.962 73.93 28.9697C73.9401 28.9724 73.9493 28.9777 73.9567 28.9849C73.9721 28.9964 73.9912 29.004 74.0064 29.0156C74.0103 29.0156 74.0141 29.0194 74.0217 29.0194C74.0409 29.0308 74.0637 29.0423 74.0867 29.0537H74.0905C74.1447 29.076 74.201 29.0927 74.2586 29.1034C74.2663 29.1034 74.2701 29.1072 74.274 29.1072C74.3007 29.111 74.3236 29.1148 74.3503 29.1187C74.382 29.122 74.4139 29.1233 74.4459 29.1226C74.4765 29.1226 74.507 29.1226 74.5376 29.1187C74.5643 29.1148 74.5911 29.111 74.614 29.1072C74.6179 29.1072 74.6255 29.1034 74.6294 29.1034C74.6882 29.0927 74.7458 29.076 74.8013 29.0537L74.8701 29.0194C74.874 29.0194 74.8778 29.0155 74.8816 29.0155C74.9007 29.004 74.9159 28.9964 74.9351 28.9849C74.9427 28.9773 74.9504 28.9735 74.958 28.9697C74.9704 28.962 74.9819 28.953 74.9924 28.9429C75.0039 28.9352 75.0191 28.9276 75.0306 28.9162C75.0345 28.9123 75.042 28.9085 75.0459 28.9009C75.0612 28.8855 75.0803 28.8741 75.0955 28.8588V28.855C75.2408 28.7137 75.3363 28.5226 75.3555 28.3009C75.3593 28.2703 75.3593 28.2398 75.3593 28.2054V19.7602C75.3593 16.1949 72.4626 13.2944 68.8973 13.2867V13.2868ZM85.3827 13.2563C89.5327 13.2563 92.907 16.814 92.907 21.1895C92.907 25.5649 89.5327 29.1226 85.3827 29.1226C85.2552 29.1226 85.1278 29.1188 85.0005 29.1111C84.9814 29.1111 84.9662 29.1111 84.9471 29.1073C84.8363 29.1035 84.7254 29.0921 84.6184 29.0806H84.6069C82.9676 28.901 81.4352 28.152 80.2162 26.9253C80.1665 26.8757 80.113 26.826 80.0672 26.7725C80.0633 26.7725 80.0633 26.7687 80.0596 26.7687C80.0328 26.742 80.0099 26.7113 79.9831 26.6808C79.9248 26.618 79.8675 26.5542 79.8112 26.4897C79.7652 26.4401 79.7232 26.3827 79.6774 26.3292C79.6468 26.2872 79.6124 26.2451 79.5781 26.203C79.5098 26.119 79.4448 26.0324 79.3832 25.9433L79.3602 25.9089C78.6135 24.8646 78.1286 23.6563 77.9463 22.3855C77.9272 22.2672 77.9158 22.1486 77.9042 22.0301C77.9004 22.0187 77.9004 22.0034 77.8966 21.9881C77.8852 21.8788 77.8775 21.7692 77.8737 21.6595C77.8699 21.6366 77.8699 21.6137 77.8699 21.5869C77.8622 21.4546 77.8584 21.322 77.8585 21.1895C77.8585 21.0558 77.8623 20.9219 77.8699 20.792C77.8699 20.7653 77.8699 20.7423 77.8737 20.7194C77.8774 20.6096 77.885 20.5 77.8966 20.3907C77.9005 20.3755 77.9005 20.3602 77.9042 20.3487C77.9158 20.2303 77.9272 20.1118 77.9463 19.9934C78.1286 18.7226 78.6135 17.5143 79.3602 16.47C79.3643 16.4586 79.3708 16.4482 79.3794 16.4395C79.4434 16.3488 79.5096 16.2596 79.578 16.1721C79.6086 16.1338 79.643 16.0956 79.6735 16.0536C79.7195 15.9963 79.7653 15.9427 79.8112 15.8853C79.8649 15.8245 79.9197 15.7647 79.9755 15.7058C80.0022 15.6752 80.0328 15.6409 80.0596 15.6102C80.0634 15.6102 80.0634 15.6064 80.0672 15.6064C80.1093 15.5568 80.1589 15.5109 80.2047 15.4651C81.4237 14.2346 82.9599 13.478 84.6069 13.2984H84.6184C84.7254 13.2868 84.8363 13.2792 84.9471 13.2716C84.9662 13.2716 84.9814 13.2678 85.0005 13.2678C85.1278 13.2601 85.2552 13.2563 85.3827 13.2563ZM91.0459 20.5665V20.5589C90.9122 19.1833 90.3466 17.9414 89.5022 16.9822C89.4639 16.9401 89.4295 16.898 89.3913 16.856L89.3225 16.7873C89.2766 16.7414 89.2346 16.6955 89.1888 16.6496C89.1467 16.6076 89.1009 16.5694 89.0589 16.5313C89.032 16.5083 89.0091 16.4816 88.9824 16.4586C88.9136 16.3974 88.8448 16.3402 88.776 16.2828C88.776 16.2828 88.7722 16.2828 88.7722 16.279C87.9736 15.6332 87.0144 15.209 85.9827 15.0906C85.9711 15.0906 85.9635 15.0868 85.9559 15.0868C85.8757 15.0753 85.7993 15.0715 85.7189 15.0677C85.6999 15.0638 85.6846 15.0638 85.6693 15.0638C85.5738 15.0562 85.4782 15.0562 85.3826 15.0562C85.2871 15.0562 85.1917 15.0562 85.0961 15.0639C85.0808 15.0639 85.0656 15.0639 85.0464 15.0677C84.9662 15.0715 84.8898 15.0753 84.8094 15.0868C84.8018 15.0868 84.7942 15.0906 84.7827 15.0906C83.751 15.209 82.7918 15.6332 81.9931 16.279C81.9931 16.2829 81.9893 16.2829 81.9893 16.2829C81.9196 16.3403 81.8508 16.3989 81.783 16.4586C81.7563 16.4816 81.7333 16.5045 81.7066 16.5274C81.6645 16.5694 81.6186 16.6076 81.5767 16.6496C81.5346 16.6917 81.4925 16.7376 81.4466 16.7835L81.3741 16.8561C81.3397 16.8942 81.3053 16.9363 81.2671 16.9783C80.4226 17.9375 79.8531 19.1833 79.7195 20.5589V20.5665C79.711 20.6556 79.7046 20.7448 79.7003 20.8341C79.7003 20.8494 79.6964 20.8646 79.6964 20.8799C79.6927 20.9831 79.6889 21.0863 79.6889 21.1895C79.6889 24.5484 82.2721 27.2921 85.3827 27.2921C88.4933 27.2921 91.0765 24.5484 91.0765 21.1895C91.0765 21.0863 91.0727 20.9831 91.0689 20.8799C91.0689 20.8646 91.0651 20.8494 91.0651 20.8341C91.0613 20.7423 91.0536 20.6545 91.046 20.5665H91.0459ZM115.021 13.6499C115.013 13.6423 115.01 13.6346 115.002 13.627C114.909 13.5111 114.788 13.4205 114.651 13.3633H114.647C114.631 13.3518 114.612 13.348 114.597 13.3404C114.589 13.3404 114.582 13.3365 114.57 13.3327C114.448 13.2907 114.314 13.283 114.184 13.3022H114.18C113.917 13.3443 113.664 13.5047 113.523 13.7416H113.519C113.5 13.7798 113.477 13.818 113.462 13.8563L113.458 13.8601V13.8639L109.079 25.8515L105.639 17.6662C105.605 17.5898 105.559 17.521 105.506 17.4559C105.318 17.2382 105.032 17.1006 104.738 17.1006C104.692 17.1006 104.65 17.1006 104.604 17.1121H104.589C104.283 17.1656 103.996 17.3795 103.866 17.6662V17.67L100.427 25.8554L98.761 21.3269L96.0173 13.8639C96.003 13.8247 95.9864 13.7865 95.9676 13.7493L95.9599 13.7416C95.8758 13.5849 95.7421 13.4626 95.5817 13.3862C95.5817 13.3862 95.5777 13.3862 95.5777 13.3824C95.497 13.3472 95.4124 13.3216 95.3256 13.306C95.318 13.306 95.3142 13.306 95.3065 13.3021C95.2633 13.2977 95.2199 13.2952 95.1766 13.2946H95.146C95.127 13.2946 95.1079 13.2946 95.0887 13.2984C95.0773 13.2984 95.062 13.3022 95.0506 13.3022C95.0314 13.306 95.0161 13.306 95.0009 13.3098C94.9893 13.3137 94.9779 13.3137 94.9664 13.3175C94.9473 13.3213 94.9283 13.3251 94.9091 13.3327C94.9015 13.3365 94.8938 13.3365 94.8862 13.3404C94.867 13.348 94.8481 13.3518 94.8289 13.3633H94.825C94.6684 13.432 94.5422 13.5505 94.4506 13.688C94.4467 13.6958 94.4429 13.6996 94.439 13.7072L94.4276 13.7301C94.3588 13.8448 94.3167 13.9786 94.3015 14.1123C94.2857 14.2578 94.3067 14.405 94.3626 14.5403L97.5382 23.0734L99.575 28.5456V28.5494C99.6591 28.7558 99.7814 28.8971 99.9495 28.9736C99.9534 28.9774 99.961 28.9812 99.9648 28.985C99.9692 28.9897 99.9744 28.9935 99.98 28.9965C99.98 29.0003 99.984 29.0003 99.9879 29.0041C99.9957 29.0079 99.9993 29.0117 100.007 29.0194H100.015C100.05 29.0417 100.091 29.0548 100.133 29.0575C100.137 29.0575 100.141 29.0614 100.145 29.0614C100.16 29.0653 100.175 29.0729 100.191 29.0767C100.198 29.0767 100.206 29.0806 100.213 29.0806C100.309 29.1111 100.37 29.1226 100.446 29.1226C100.489 29.1226 100.527 29.1187 100.569 29.1111C100.601 29.1071 100.633 29.0994 100.664 29.0881C100.672 29.0843 100.68 29.0843 100.687 29.0805C100.719 29.0725 100.75 29.0609 100.779 29.0462C100.79 29.0423 100.802 29.0385 100.813 29.0308C100.832 29.0194 100.855 29.0079 100.878 28.9965C100.896 28.9841 100.913 28.9726 100.932 28.962C100.943 28.9544 100.955 28.943 100.966 28.9353C100.993 28.9161 101.018 28.8957 101.043 28.8742C101.047 28.8703 101.05 28.8666 101.054 28.8588C101.081 28.8321 101.108 28.8054 101.134 28.7748C101.134 28.771 101.138 28.7672 101.142 28.7634C101.166 28.7317 101.188 28.6985 101.207 28.664C101.227 28.6242 101.245 28.5834 101.261 28.5417L101.265 28.5302L101.276 28.515L101.287 28.4882L104.738 20.2494L108.219 28.5187C108.247 28.6035 108.29 28.6825 108.346 28.7519C108.353 28.7634 108.361 28.771 108.368 28.7824C108.388 28.8063 108.408 28.8293 108.43 28.8512C108.441 28.8588 108.452 28.8704 108.464 28.878C108.483 28.8971 108.506 28.9162 108.529 28.9353C108.54 28.943 108.548 28.9506 108.559 28.9544C108.585 28.9736 108.612 28.9914 108.64 29.0079L108.663 29.0194C108.693 29.0346 108.72 29.05 108.754 29.0614C108.762 29.0653 108.77 29.0691 108.781 29.0691C108.808 29.0815 108.836 29.0917 108.865 29.0996C108.902 29.1069 108.939 29.1145 108.976 29.1226H109.09C109.134 29.1227 109.178 29.1188 109.22 29.111C109.232 29.111 109.239 29.111 109.251 29.1072C109.287 29.1006 109.323 29.0917 109.358 29.0805C109.367 29.0774 109.376 29.0736 109.385 29.0691C109.423 29.0576 109.461 29.0384 109.495 29.0194C109.499 29.0194 109.503 29.0156 109.507 29.0156C109.547 28.9906 109.587 28.9638 109.625 28.9353C109.778 28.8207 109.889 28.6716 109.965 28.4883V28.4844L112.117 22.6912L115.143 14.5403C115.262 14.2537 115.216 13.9403 115.052 13.6958C115.043 13.6797 115.033 13.6643 115.021 13.6499ZM163.617 13.9059C163.617 13.8891 163.614 13.8725 163.61 13.8563C163.61 13.8448 163.606 13.8333 163.602 13.8219C163.598 13.8028 163.594 13.7837 163.59 13.7684C163.586 13.7569 163.582 13.7455 163.579 13.7378C163.575 13.7162 163.567 13.6954 163.556 13.6767C163.556 13.6691 163.552 13.6651 163.548 13.6575C163.538 13.6322 163.525 13.6079 163.51 13.5849V13.5811C163.465 13.5031 163.408 13.4322 163.342 13.371L163.338 13.3671L163.334 13.3633C163.009 13.0386 162.551 12.9965 162.191 13.2487C162.18 13.2563 162.172 13.264 162.161 13.2678L162.115 13.3022C162.092 13.3251 162.069 13.3443 162.046 13.3672C162.046 13.3672 162.042 13.3672 162.042 13.371L153.089 22.099V7.5013C153.089 7.4707 153.089 7.4402 153.085 7.4096C153.051 7.0734 152.825 6.7944 152.519 6.6645C152.515 6.6645 152.515 6.6605 152.512 6.6605C152.493 6.6525 152.474 6.6462 152.454 6.6416C152.444 6.6371 152.434 6.6333 152.424 6.63C152.407 6.6258 152.391 6.622 152.374 6.6186C152.36 6.6143 152.346 6.6104 152.332 6.6071C152.316 6.6027 152.299 6.6002 152.282 6.5995C152.267 6.5956 152.256 6.5956 152.24 6.5919C152.206 6.588 152.175 6.588 152.145 6.588C151.644 6.588 151.227 7.0046 151.227 7.5014V28.2055C151.227 28.706 151.644 29.1226 152.145 29.1226C152.175 29.1226 152.21 29.1226 152.24 29.1188C152.244 29.1188 152.248 29.1149 152.255 29.1149C152.282 29.1111 152.309 29.1111 152.332 29.1035C152.34 29.1035 152.347 29.0997 152.355 29.0997C152.378 29.0921 152.401 29.0882 152.423 29.0806C152.427 29.0806 152.431 29.0767 152.435 29.0767C152.787 28.966 153.046 28.6641 153.085 28.301C153.089 28.2705 153.089 28.2399 153.089 28.2055V24.7127L156.104 21.7016L161.962 28.7711C162 28.8322 162.042 28.8857 162.095 28.9277C162.105 28.9377 162.115 28.9467 162.126 28.9545C162.141 28.966 162.156 28.9774 162.172 28.985C162.191 29.0004 162.21 29.008 162.229 29.0195C162.237 29.0233 162.248 29.0309 162.256 29.0347C162.283 29.0462 162.306 29.0538 162.332 29.0653C162.34 29.0692 162.348 29.0692 162.351 29.073C162.382 29.0806 162.409 29.0882 162.439 29.0959C162.443 29.0959 162.451 29.0997 162.458 29.0997C162.488 29.1069 162.519 29.112 162.55 29.1149C162.558 29.1149 162.565 29.1149 162.573 29.1189C162.611 29.1189 162.649 29.1226 162.691 29.1226C162.749 29.1228 162.806 29.119 162.863 29.1111H162.867C162.971 29.0956 163.072 29.0634 163.165 29.0157C163.169 29.0157 163.169 29.0117 163.169 29.0117C163.213 28.9877 163.255 28.961 163.295 28.9315L163.307 28.9201C163.654 28.5723 163.708 28.0985 163.456 27.7049C163.433 27.6696 163.409 27.6352 163.383 27.6017L157.433 20.3755L163.341 14.6663C163.498 14.5059 163.593 14.311 163.616 14.1009C163.616 14.097 163.616 14.0932 163.62 14.0893V14.0282C163.62 14.0167 163.624 14.0053 163.624 13.9977V13.9824C163.624 13.967 163.62 13.9556 163.62 13.9403C163.62 13.9289 163.616 13.9174 163.616 13.9059" fill="#29B5E8"/>
</g>
<defs>
<clipPath id="clip0">
<rect width="180" height="43" fill="white"/>
</clipPath>
</defs>
</svg>
