<svg width="648" height="89" viewBox="0 0 648 89" fill="none" xmlns="http://www.w3.org/2000/svg">
<path fill-rule="evenodd" clip-rule="evenodd" d="M14.3006 49.4284C17.5769 47.5323 17.5823 41.3939 14.3128 35.7177C11.0433 30.0416 5.73694 26.9773 2.46073 28.8733C-0.815487 30.7693 -0.820934 36.9078 2.44857 42.5839C5.71806 48.2601 11.0244 51.3244 14.3006 49.4284ZM14.3202 61.5824C17.5898 67.2586 17.5843 73.397 14.3081 75.293C11.0318 77.189 5.7255 74.1247 2.45601 68.4486C-0.813496 62.7725 -0.808051 56.634 2.46817 54.738C5.74438 52.8419 11.0507 55.9063 14.3202 61.5824ZM36.6466 74.5208C39.9161 80.1969 39.9107 86.3351 36.6345 88.2318C33.3583 90.1276 28.0519 87.063 24.7824 81.3869C21.513 75.7108 21.5184 69.5724 24.7946 67.6763C28.0708 65.7803 33.3771 68.8446 36.6466 74.5208ZM36.6394 48.6565C39.9089 54.3326 39.9034 60.4711 36.6272 62.3671C33.351 64.2631 28.0447 61.1988 24.7752 55.5227C21.5057 49.8465 21.5111 43.7081 24.7873 41.8121C28.0635 39.916 33.3699 42.9804 36.6394 48.6565Z" fill="#F26E7E"/>
<path fill-rule="evenodd" clip-rule="evenodd" d="M81.303 42.5982C84.5722 36.9221 84.5671 30.7836 81.2909 28.8876C78.0146 26.9915 72.7083 30.0559 69.4388 35.7321C66.1693 41.4082 66.1748 47.5466 69.451 49.4427C72.7272 51.3388 78.0336 48.2744 81.303 42.5982ZM81.3037 54.7461C84.5797 56.6421 84.5856 62.7805 81.3159 68.4567C78.0464 74.1328 72.74 77.1972 69.4638 75.3012C66.1876 73.4051 66.1821 67.2667 69.4516 61.5906C72.7211 55.9145 78.0275 52.8501 81.3037 54.7461ZM58.9817 67.6633C62.258 69.5593 62.2634 75.6977 58.9939 81.3739C55.7244 87.0496 50.418 90.1142 47.1418 88.2183C43.8656 86.3225 43.8602 80.1838 47.1297 74.5077C50.3992 68.8315 55.7055 65.7672 58.9817 67.6633ZM58.9691 41.8046C62.2454 43.7006 62.2508 49.8391 58.9813 55.5152C55.7118 61.1914 50.4055 64.2558 47.1292 62.3597C43.853 60.4637 43.8475 54.3252 47.117 48.6491C50.3865 42.9729 55.6929 39.9086 58.9691 41.8046Z" fill="#8A3391"/>
<path fill-rule="evenodd" clip-rule="evenodd" d="M53.7118 6.86617C53.7118 10.6583 48.4109 13.7324 41.8719 13.7324C35.3329 13.7324 30.032 10.6583 30.032 6.86617C30.032 3.07408 35.3329 0 41.8719 0C48.4109 0 53.7118 3.07408 53.7118 6.86617ZM31.39 19.7701C31.39 23.5622 26.0891 26.6363 19.5501 26.6363C13.0111 26.6363 7.71021 23.5622 7.71021 19.7701C7.71021 15.978 13.0111 12.9039 19.5501 12.9039C26.0891 12.9039 31.39 15.978 31.39 19.7701ZM64.2228 26.6363C70.7618 26.6363 76.0627 23.5622 76.0627 19.7701C76.0627 15.978 70.7618 12.9039 64.2228 12.9039C57.6838 12.9039 52.3829 15.978 52.3829 19.7701C52.3829 23.5622 57.6838 26.6363 64.2228 26.6363ZM53.7118 32.703C53.7118 36.495 48.4109 39.5691 41.8719 39.5691C35.3329 39.5691 30.032 36.495 30.032 32.703C30.032 28.9109 35.3329 25.8368 41.8719 25.8368C48.4109 25.8368 53.7118 28.9109 53.7118 32.703Z" fill="#F7BF2A"/>
<path fill-rule="evenodd" clip-rule="evenodd" d="M211.251 16.2125H215.652C217.019 16.2125 217.777 16.9732 217.777 18.3424V69.5756C217.777 70.9449 217.019 71.7056 215.652 71.7056H211.251C209.884 71.7056 209.125 70.9449 209.125 69.5756V18.3424C209.125 16.9732 209.884 16.2125 211.251 16.2125ZM126.595 71.7054C127.961 71.7054 128.72 70.9447 128.72 69.5754V52.4216H137.636C148.945 52.4216 156.04 45.6514 156.04 35.458C156.04 25.3026 148.945 18.4944 137.636 18.4944H121.89C120.523 18.4944 119.764 19.2551 119.764 20.6243V69.5754C119.764 70.9447 120.523 71.7054 121.89 71.7054H126.595ZM128.72 26.0633H137.068C143.442 26.0633 147.047 29.7527 147.047 35.458C147.047 41.2013 143.442 44.8907 137.068 44.8907H128.72V26.0633ZM162.416 34.4692V56.6056C162.416 66.3046 168.677 72.5804 178.126 72.5804C183.134 72.5804 187.422 70.1081 190.078 66.4948V69.5756C190.078 70.9449 190.837 71.7056 192.203 71.7056H196.643C198.009 71.7056 198.768 70.9449 198.768 69.5756V34.4692C198.768 33.1 198.009 32.3393 196.643 32.3393H192.203C190.837 32.3393 190.078 33.1 190.078 34.4692V53.791C190.078 60.333 185.373 64.9353 179.909 64.9353C174.672 64.9353 171.068 61.2078 171.068 55.883V34.4692C171.068 33.1 170.309 32.3393 168.943 32.3393H164.541C163.175 32.3393 162.416 33.1 162.416 34.4692ZM227.416 34.4692V56.6056C227.416 66.3046 233.677 72.5804 243.126 72.5804C248.135 72.5804 252.423 70.1081 255.079 66.4948V69.5756C255.079 70.9449 255.838 71.7056 257.204 71.7056H261.643C263.01 71.7056 263.768 70.9449 263.768 69.5756V34.4692C263.768 33.1 263.01 32.3393 261.643 32.3393H257.204C255.838 32.3393 255.079 33.1 255.079 34.4692V53.791C255.079 60.333 250.374 64.9353 244.909 64.9353C239.673 64.9353 236.068 61.2078 236.068 55.883V34.4692C236.068 33.1 235.309 32.3393 233.943 32.3393H229.541C228.175 32.3393 227.416 33.1 227.416 34.4692ZM334.953 47.4393V69.6137C334.953 70.983 334.195 71.7437 332.829 71.7437H328.39C327.023 71.7437 326.264 70.983 326.264 69.6137V48.2C326.264 42.8751 322.963 39.1477 318.106 39.1477C313.211 39.1477 308.582 44.0922 308.582 50.0637V69.6137C308.582 70.983 307.823 71.7437 306.457 71.7437H302.017C300.651 71.7437 299.892 70.983 299.892 69.6137V48.2C299.892 42.8751 296.591 39.1477 291.734 39.1477C287.067 39.1477 282.209 43.6358 282.209 50.0637V69.6137C282.209 70.983 281.45 71.7437 280.084 71.7437H275.645C274.279 71.7437 273.52 70.983 273.52 69.6137V34.4694C273.52 33.1 274.279 32.3393 275.645 32.3393H280.084C281.45 32.3393 282.209 33.1 282.209 34.4694V37.4741C284.979 33.8227 288.964 31.4265 293.555 31.4265C299.475 31.4265 304.445 34.5073 306.912 39.6041C309.492 34.6595 314.274 31.4265 319.889 31.4265C328.427 31.4265 334.953 37.7404 334.953 47.4393ZM354.306 21.6136C354.306 18.6088 351.953 16.2887 348.917 16.2887C345.881 16.2887 343.567 18.6088 343.567 21.6136C343.567 24.5803 345.881 26.9004 348.917 26.9004C351.953 26.9004 354.306 24.5803 354.306 21.6136ZM353.243 34.4694C353.243 33.1001 352.485 32.3394 351.118 32.3394H346.716C345.35 32.3394 344.591 33.1001 344.591 34.4694V69.5758C344.591 70.945 345.35 71.7057 346.716 71.7057H351.118C352.485 71.7057 353.243 70.945 353.243 69.5758V34.4694Z" fill="black"/>
<rect x="390.306" y="18.6624" width="72.0933" height="51.468" rx="12" fill="#FED05D"/>
<path d="M408.732 42.5064C408.732 41.4564 409.782 40.7844 411.168 40.7844C412.722 40.7844 413.856 41.4984 414.528 42.9264L419.148 40.4064C417.51 37.5504 414.57 35.9544 411.168 35.9544C408.9 35.9544 407.01 36.5424 405.456 37.7604C403.944 38.9364 403.188 40.5744 403.188 42.6324C403.188 47.0004 407.094 48.3024 410.202 49.1004C412.344 49.6464 414.024 50.2764 414.024 51.4104C414.024 52.6284 413.058 53.2164 411.126 53.2164C408.984 53.2164 407.64 52.2924 407.01 50.4864L402.306 53.1324C403.86 56.4504 406.8 58.1304 411.126 58.1304C413.52 58.1304 415.536 57.5424 417.132 56.4084C418.77 55.2324 419.568 53.5524 419.568 51.4104C419.61 46.9164 415.62 45.4464 412.554 44.8164C410.412 44.2704 408.732 43.6404 408.732 42.5064Z" fill="black"/>
<path d="M434.449 36.5424H429.703V30.6624L424.285 32.3004V36.5424H420.631V41.7504H424.285V50.4864C424.285 56.2404 427.015 58.3824 434.449 57.5424V52.6284C431.341 52.7964 429.703 52.7544 429.703 50.4864V41.7504H434.449V36.5424Z" fill="black"/>
<path d="M444.015 36.5424H438.597V57.5424H444.015V47.5044C444.015 45.4884 444.645 44.0604 445.947 43.1784C447.249 42.2964 448.761 41.9604 450.399 42.1704V36.1224C447.543 36.1224 445.023 37.4664 444.015 40.1544V36.5424Z" fill="black"/>
<path d="M492.175 25.4084C485.623 25.0304 482.305 28.2644 482.305 34.1864V34.3964H479.281V39.6044H482.305V55.3964H487.723V39.6044H492.175V34.3964H487.723V34.1864C487.723 31.5824 489.193 30.4064 492.175 30.6164V25.4084ZM511.771 52.7924C513.913 50.6504 515.005 48.0044 515.005 44.8964C515.005 41.7884 513.913 39.1844 511.771 37.0424C509.629 34.9004 506.983 33.8084 503.875 33.8084C500.767 33.8084 498.121 34.9004 495.979 37.0424C493.837 39.1844 492.787 41.7884 492.787 44.8964C492.787 48.0044 493.837 50.6504 495.979 52.7924C498.121 54.9344 500.767 55.9844 503.875 55.9844C506.983 55.9844 509.629 54.9344 511.771 52.7924ZM499.801 49.0544C498.751 47.9624 498.205 46.5764 498.205 44.8964C498.205 43.2164 498.751 41.8304 499.801 40.7384C500.893 39.6464 502.237 39.1004 503.875 39.1004C505.513 39.1004 506.857 39.6464 507.949 40.7384C509.041 41.8304 509.587 43.2164 509.587 44.8964C509.587 46.5764 509.041 47.9624 507.949 49.0544C506.857 50.1464 505.513 50.6924 503.875 50.6924C502.237 50.6924 500.893 50.1464 499.801 49.0544ZM524.234 34.3964H518.816V55.3964H524.234V45.3584C524.234 43.3424 524.864 41.9144 526.166 41.0324C527.468 40.1504 528.98 39.8144 530.618 40.0244V33.9764C527.762 33.9764 525.242 35.3204 524.234 38.0084V34.3964ZM561.255 25.9964L554.871 38.2604L548.487 25.9964H541.935L551.973 43.9304V55.3964H557.727V43.9304L567.807 25.9964H561.255ZM592.01 55.3964L581.678 25.9964H574.496L564.206 55.3964H570.464L572.228 50.1044H583.946L585.71 55.3964H592.01ZM578.108 32.6744L582.14 44.6864H574.076L578.108 32.6744ZM617.671 25.9964L609.271 39.8984L600.829 25.9964H594.865V55.3964H600.661V36.3704L608.935 49.9784H609.607L617.881 36.3284V55.3964H623.635V25.9964H617.671ZM634.909 25.9964H629.113V55.3964H646.123V49.8524H634.909V25.9964Z" fill="black"/>
</svg>
