<svg width="53" height="53" viewBox="0 0 53 53" fill="none" xmlns="http://www.w3.org/2000/svg">
<path d="M6.625 33.125C10.2839 33.125 13.25 30.1589 13.25 26.5C13.25 22.8411 10.2839 19.875 6.625 19.875C2.96611 19.875 0 22.8411 0 26.5C0 30.1589 2.96611 33.125 6.625 33.125Z" fill="#141414"/>
<path d="M26.5 33.125C30.1589 33.125 33.125 30.1589 33.125 26.5C33.125 22.8411 30.1589 19.875 26.5 19.875C22.8411 19.875 19.875 22.8411 19.875 26.5C19.875 30.1589 22.8411 33.125 26.5 33.125Z" fill="#141414"/>
<path opacity="0.2" d="M6.625 53C10.2839 53 13.25 50.0339 13.25 46.375C13.25 42.7161 10.2839 39.75 6.625 39.75C2.96611 39.75 0 42.7161 0 46.375C0 50.0339 2.96611 53 6.625 53Z" fill="#141414"/>
<path opacity="0.2" d="M46.375 53C50.0339 53 53 50.0339 53 46.375C53 42.7161 50.0339 39.75 46.375 39.75C42.7161 39.75 39.75 42.7161 39.75 46.375C39.75 50.0339 42.7161 53 46.375 53Z" fill="#141414"/>
<path d="M26.5 53C30.1589 53 33.125 50.0339 33.125 46.375C33.125 42.7161 30.1589 39.75 26.5 39.75C22.8411 39.75 19.875 42.7161 19.875 46.375C19.875 50.0339 22.8411 53 26.5 53Z" fill="#141414"/>
<path d="M46.375 33.125C50.0339 33.125 53 30.1589 53 26.5C53 22.8411 50.0339 19.875 46.375 19.875C42.7161 19.875 39.75 22.8411 39.75 26.5C39.75 30.1589 42.7161 33.125 46.375 33.125Z" fill="#141414"/>
<path opacity="0.2" d="M6.625 13.25C10.2839 13.25 13.25 10.2839 13.25 6.625C13.25 2.96611 10.2839 0 6.625 0C2.96611 0 0 2.96611 0 6.625C0 10.2839 2.96611 13.25 6.625 13.25Z" fill="#141414"/>
<path opacity="0.2" d="M26.5 13.25C30.1589 13.25 33.125 10.2839 33.125 6.625C33.125 2.96611 30.1589 0 26.5 0C22.8411 0 19.875 2.96611 19.875 6.625C19.875 10.2839 22.8411 13.25 26.5 13.25Z" fill="#141414"/>
<path opacity="0.2" d="M46.375 13.25C50.0339 13.25 53 10.2839 53 6.625C53 2.96611 50.0339 0 46.375 0C42.7161 0 39.75 2.96611 39.75 6.625C39.75 10.2839 42.7161 13.25 46.375 13.25Z" fill="#141414"/>
</svg>
