<svg width="130" height="24" viewBox="0 0 130 24" fill="none" xmlns="http://www.w3.org/2000/svg">
<g clip-path="url(#clip0_1_2)">
<path opacity="0.2" d="M3.65289 6.57439C5.25497 6.57439 6.55371 5.27564 6.55371 3.67356C6.55371 2.07148 5.25497 0.772736 3.65289 0.772736C2.0508 0.772736 0.75206 2.07148 0.75206 3.67356C0.75206 5.27564 2.0508 6.57439 3.65289 6.57439Z" fill="black"/>
<path d="M3.65289 15.2231C5.25497 15.2231 6.55371 13.9244 6.55371 12.3223C6.55371 10.7202 5.25497 9.42148 3.65289 9.42148C2.0508 9.42148 0.75206 10.7202 0.75206 12.3223C0.75206 13.9244 2.0508 15.2231 3.65289 15.2231Z" fill="black"/>
<path opacity="0.2" d="M3.65289 24.0331C5.25497 24.0331 6.55371 22.7343 6.55371 21.1322C6.55371 19.5302 5.25497 18.2314 3.65289 18.2314C2.0508 18.2314 0.75206 19.5302 0.75206 21.1322C0.75206 22.7343 2.0508 24.0331 3.65289 24.0331Z" fill="black"/>
<path d="M12.3554 15.2231C13.9575 15.2231 15.2562 13.9244 15.2562 12.3223C15.2562 10.7202 13.9575 9.42148 12.3554 9.42148C10.7533 9.42148 9.45454 10.7202 9.45454 12.3223C9.45454 13.9244 10.7533 15.2231 12.3554 15.2231Z" fill="black"/>
<path d="M12.3554 24.0331C13.9575 24.0331 15.2562 22.7343 15.2562 21.1322C15.2562 19.5302 13.9575 18.2314 12.3554 18.2314C10.7533 18.2314 9.45454 19.5302 9.45454 21.1322C9.45454 22.7343 10.7533 24.0331 12.3554 24.0331Z" fill="black"/>
<path opacity="0.2" d="M12.3554 6.57439C13.9575 6.57439 15.2562 5.27564 15.2562 3.67356C15.2562 2.07148 13.9575 0.772736 12.3554 0.772736C10.7533 0.772736 9.45454 2.07148 9.45454 3.67356C9.45454 5.27564 10.7533 6.57439 12.3554 6.57439Z" fill="black"/>
<path opacity="0.2" d="M20.9504 6.57439C22.5525 6.57439 23.8512 5.27564 23.8512 3.67356C23.8512 2.07148 22.5525 0.772736 20.9504 0.772736C19.3483 0.772736 18.0496 2.07148 18.0496 3.67356C18.0496 5.27564 19.3483 6.57439 20.9504 6.57439Z" fill="black"/>
<path d="M20.9504 15.2231C22.5525 15.2231 23.8512 13.9244 23.8512 12.3223C23.8512 10.7202 22.5525 9.42148 20.9504 9.42148C19.3483 9.42148 18.0496 10.7202 18.0496 12.3223C18.0496 13.9244 19.3483 15.2231 20.9504 15.2231Z" fill="black"/>
<path opacity="0.2" d="M20.9504 24.0331C22.5525 24.0331 23.8512 22.7343 23.8512 21.1322C23.8512 19.5302 22.5525 18.2314 20.9504 18.2314C19.3483 18.2314 18.0496 19.5302 18.0496 21.1322C18.0496 22.7343 19.3483 24.0331 20.9504 24.0331Z" fill="black"/>
<path d="M41.2707 21.7759C42.0903 21.7759 42.7563 21.6991 43.5504 21.5453V18.5739C43.0637 18.7532 42.5258 18.8045 42.0135 18.8045C40.7583 18.8045 40.2973 18.1897 40.2973 17.0115V10.9662H43.5504V7.99483H40.2973V3.58899H36.7111V7.99483H34.3802V10.9662H36.7111V17.3444C36.7111 20.1621 38.1969 21.7759 41.2707 21.7759Z" fill="black"/>
<path d="M49.4072 21.7759C51.3283 21.7759 52.6091 21.1355 53.2495 20.1365C53.3006 20.572 53.4544 21.1611 53.6593 21.5198H56.8868C56.7075 20.9049 56.5794 19.9316 56.5794 19.2912V12.2726C56.5794 9.37806 54.5046 7.73868 50.9953 7.73868C48.3313 7.73868 46.2565 8.73768 45.1038 10.1978L47.153 12.2213C48.0752 11.1967 49.2535 10.6588 50.688 10.6588C52.4298 10.6588 53.1983 11.2479 53.1983 12.1189C53.1983 12.8618 52.6859 13.374 49.9195 13.374C47.2554 13.374 44.5658 14.4755 44.5658 17.5494C44.5658 20.3926 46.6151 21.7759 49.4072 21.7759ZM50.1243 19.0606C48.7412 19.0606 48.1008 18.4715 48.1008 17.4212C48.1008 16.4991 48.8693 15.8843 50.15 15.8843C52.1992 15.8843 52.7628 15.7563 53.1983 15.3208V16.4223C53.1983 17.8824 51.9687 19.0606 50.1243 19.0606Z" fill="black"/>
<path d="M58.9106 6.27859H62.6504V2.92297H58.9106V6.27859ZM58.9874 21.5198H62.5736V7.99481H58.9874V21.5198Z" fill="black"/>
<path d="M65.1862 21.5198H68.7724V3.33282H65.1862V21.5198Z" fill="black"/>
<path d="M76.2262 21.7759C80.171 21.7759 82.1946 19.7011 82.1946 17.5237C82.1946 15.5514 81.1956 14.0913 77.9168 13.5021C75.6114 13.0923 74.177 12.58 74.177 11.7859C74.177 11.0943 74.9967 10.6076 76.3799 10.6076C77.6095 10.6076 78.6341 11.0175 79.4025 11.914L81.6823 9.99282C80.5296 8.55837 78.6341 7.73868 76.3799 7.73868C72.9218 7.73868 70.7702 9.58298 70.7702 11.8371C70.7702 14.2962 73.0243 15.3976 75.4578 15.8331C77.4814 16.1917 78.6084 16.576 78.6084 17.4469C78.6084 18.1897 77.8143 18.8045 76.303 18.8045C74.8174 18.8045 73.6647 18.1129 73.1267 17.0883L70.1042 18.5227C70.847 20.3671 73.3829 21.7759 76.2262 21.7759Z" fill="black"/>
<path d="M90.2119 21.7759C92.7735 21.7759 94.6179 20.7513 96.001 18.4459L93.1321 16.9858C92.5942 18.0617 91.7233 18.8045 90.2119 18.8045C87.9322 18.8045 86.7027 16.9602 86.7027 14.7316C86.7027 12.5031 88.009 10.7101 90.2119 10.7101C91.5952 10.7101 92.5173 11.4529 93.0553 12.58L95.9498 11.0431C94.9764 8.91698 93.0553 7.73868 90.2119 7.73868C85.5244 7.73868 83.1165 11.1711 83.1165 14.7316C83.1165 18.5996 86.0367 21.7759 90.2119 21.7759Z" fill="black"/>
<path d="M101.713 21.7759C103.635 21.7759 104.915 21.1355 105.556 20.1365C105.607 20.572 105.761 21.1611 105.966 21.5198H109.194C109.014 20.9049 108.886 19.9316 108.886 19.2912V12.2726C108.886 9.37806 106.811 7.73868 103.302 7.73868C100.638 7.73868 98.5628 8.73768 97.4101 10.1978L99.4593 12.2213C100.381 11.1967 101.56 10.6588 102.994 10.6588C104.736 10.6588 105.505 11.2479 105.505 12.1189C105.505 12.8618 104.992 13.374 102.226 13.374C99.5617 13.374 96.8721 14.4755 96.8721 17.5494C96.8721 20.3926 98.9214 21.7759 101.713 21.7759ZM102.431 19.0606C101.047 19.0606 100.407 18.4715 100.407 17.4212C100.407 16.4991 101.176 15.8843 102.456 15.8843C104.505 15.8843 105.069 15.7563 105.505 15.3208V16.4223C105.505 17.8824 104.275 19.0606 102.431 19.0606Z" fill="black"/>
<path d="M110.993 21.5198H114.579V3.33282H110.993V21.5198Z" fill="black"/>
<path d="M123.186 21.7759C125.825 21.7759 127.951 20.7257 129.129 18.8557L126.414 17.1138C125.697 18.241 124.748 18.8557 123.186 18.8557C121.419 18.8557 120.138 17.8824 119.805 15.9868H130V14.7316C130 11.1711 127.822 7.73868 123.16 7.73868C118.73 7.73868 116.321 11.1967 116.321 14.7573C116.321 19.8291 120.138 21.7759 123.186 21.7759ZM119.933 13.1692C120.497 11.4529 121.675 10.6588 123.238 10.6588C125.005 10.6588 126.081 11.7091 126.439 13.1692H119.933Z" fill="black"/>
</g>
<defs>
<clipPath id="clip0_1_2">
<rect width="130" height="24" fill="white"/>
</clipPath>
</defs>
</svg>
