<svg width="1000" height="250" viewBox="0 0 1000 250" fill="none" xmlns="http://www.w3.org/2000/svg">
<g clip-path="url(#clip0_261_680)">
<path fill-rule="evenodd" clip-rule="evenodd" d="M40.1704 138.844C49.3732 133.518 49.3885 116.275 40.2045 100.331C31.0205 84.3865 16.115 75.7788 6.91216 81.1047C-2.29069 86.4306 -2.30599 103.674 6.878 119.618C16.062 135.562 30.9675 144.17 40.1704 138.844ZM40.2254 172.984C49.4094 188.929 49.3941 206.171 40.1913 211.497C30.9882 216.823 16.0829 208.215 6.89889 192.271C-2.2851 176.327 -2.26981 159.084 6.93306 153.758C16.1359 148.432 31.0414 157.04 40.2254 172.984ZM102.94 209.328C112.124 225.272 112.109 242.514 102.906 247.842C93.7031 253.167 78.7974 244.559 69.6134 228.615C60.4296 212.671 60.4449 195.428 69.6478 190.102C78.8506 184.776 93.756 193.384 102.94 209.328ZM102.92 136.675C112.104 152.62 112.088 169.862 102.885 175.188C93.6826 180.514 78.7772 171.907 69.5932 155.962C60.4092 140.018 60.4245 122.775 69.6273 117.45C78.8301 112.124 93.7358 120.731 102.92 136.675Z" fill="#F26E7E"/>
<path fill-rule="evenodd" clip-rule="evenodd" d="M228.379 119.658C237.562 103.714 237.548 86.4707 228.345 81.1448C219.142 75.8189 204.237 84.4266 195.053 100.371C185.869 116.315 185.884 133.558 195.087 138.884C204.29 144.21 219.196 135.602 228.379 119.658ZM228.381 153.781C237.584 159.107 237.6 176.35 228.416 192.294C219.232 208.238 204.326 216.846 195.123 211.52C185.92 206.194 185.905 188.951 195.089 173.007C204.273 157.063 219.178 148.455 228.381 153.781ZM165.679 190.065C174.882 195.391 174.897 212.634 165.713 228.578C156.529 244.521 141.624 253.13 132.421 247.804C123.218 242.479 123.203 225.235 132.387 209.291C141.571 193.347 156.476 184.739 165.679 190.065ZM165.644 117.429C174.847 122.754 174.862 139.997 165.678 155.941C156.494 171.886 141.588 180.494 132.385 175.168C123.183 169.842 123.167 152.599 132.351 136.655C141.535 120.71 156.441 112.103 165.644 117.429Z" fill="#8A3391"/>
<path fill-rule="evenodd" clip-rule="evenodd" d="M150.876 19.287C150.876 29.9389 135.986 38.5741 117.618 38.5741C99.2497 38.5741 84.3595 29.9389 84.3595 19.287C84.3595 8.63507 99.2497 0 117.618 0C135.986 0 150.876 8.63507 150.876 19.287ZM88.1741 55.534C88.1741 66.1858 73.284 74.821 54.916 74.821C36.548 74.821 21.6579 66.1858 21.6579 55.534C21.6579 44.8821 36.548 36.2469 54.916 36.2469C73.284 36.2469 88.1741 44.8821 88.1741 55.534ZM180.401 74.821C198.769 74.821 213.659 66.1858 213.659 55.534C213.659 44.8821 198.769 36.2469 180.401 36.2469C162.033 36.2469 147.143 44.8821 147.143 55.534C147.143 66.1858 162.033 74.821 180.401 74.821ZM150.876 91.8623C150.876 102.514 135.986 111.149 117.618 111.149C99.2497 111.149 84.3595 102.514 84.3595 91.8623C84.3595 81.2104 99.2497 72.5752 117.618 72.5752C135.986 72.5752 150.876 81.2104 150.876 91.8623Z" fill="#F7BF2A"/>
<path fill-rule="evenodd" clip-rule="evenodd" d="M598.16 44.8113H610.525C614.362 44.8113 616.494 46.9481 616.494 50.7944V194.708C616.494 198.554 614.362 200.691 610.525 200.691H598.16C594.322 200.691 592.191 198.554 592.191 194.708V50.7944C592.191 46.9481 594.322 44.8113 598.16 44.8113ZM360.362 200.69C364.2 200.69 366.332 198.554 366.332 194.707V146.522H391.379C423.144 146.522 443.075 127.505 443.075 98.872C443.075 70.3455 423.144 51.2212 391.379 51.2212H347.146C343.308 51.2212 341.176 53.358 341.176 57.2043V194.707C341.176 198.554 343.308 200.69 347.146 200.69H360.362ZM366.332 72.4823H389.781C407.687 72.4823 417.814 82.8458 417.814 98.872C417.814 115.005 407.687 125.368 389.781 125.368H366.332V72.4823ZM460.984 96.0944V158.275C460.984 185.52 478.572 203.148 505.113 203.148C519.181 203.148 531.226 196.204 538.687 186.054V194.708C538.687 198.554 540.819 200.691 544.657 200.691H557.127C560.965 200.691 563.096 198.554 563.096 194.708V96.0944C563.096 92.2481 560.965 90.1113 557.127 90.1113H544.657C540.819 90.1113 538.687 92.2481 538.687 96.0944V150.369C538.687 168.746 525.471 181.673 510.122 181.673C495.412 181.673 485.287 171.203 485.287 156.245V96.0944C485.287 92.2481 483.155 90.1113 479.318 90.1113H466.953C463.115 90.1113 460.984 92.2481 460.984 96.0944ZM643.569 96.0944V158.275C643.569 185.52 661.155 203.148 687.696 203.148C701.767 203.148 713.812 196.204 721.273 186.054V194.708C721.273 198.554 723.405 200.691 727.242 200.691H739.713C743.551 200.691 745.682 198.554 745.682 194.708V96.0944C745.682 92.2481 743.551 90.1113 739.713 90.1113H727.242C723.405 90.1113 721.273 92.2481 721.273 96.0944V150.369C721.273 168.746 708.056 181.673 692.706 181.673C677.998 181.673 667.871 171.203 667.871 156.245V96.0944C667.871 92.2481 665.739 90.1113 661.904 90.1113H649.539C645.701 90.1113 643.569 92.2481 643.569 96.0944ZM945.64 132.527V194.815C945.64 198.661 943.508 200.798 939.673 200.798H927.202C923.365 200.798 921.233 198.661 921.233 194.815V134.664C921.233 119.706 911.96 109.236 898.315 109.236C884.565 109.236 871.562 123.125 871.562 139.899V194.815C871.562 198.661 869.431 200.798 865.593 200.798H853.122C849.285 200.798 847.153 198.661 847.153 194.815V134.664C847.153 119.706 837.88 109.236 824.238 109.236C811.127 109.236 797.482 121.843 797.482 139.899V194.815C797.482 198.661 795.351 200.798 791.513 200.798H779.042C775.207 200.798 773.075 198.661 773.075 194.815V96.0948C773.075 92.2484 775.207 90.1116 779.042 90.1116H791.513C795.351 90.1116 797.482 92.2484 797.482 96.0948V104.535C805.264 94.2783 816.457 87.5474 829.353 87.5474C845.981 87.5474 859.944 96.2014 866.873 110.518C874.12 96.6288 887.551 87.5474 903.325 87.5474C927.308 87.5474 945.64 105.283 945.64 132.527ZM1000 59.983C1000 51.5427 993.391 45.0255 984.864 45.0255C976.336 45.0255 969.835 51.5427 969.835 59.983C969.835 68.3165 976.336 74.8337 984.864 74.8337C993.391 74.8337 1000 68.3165 1000 59.983ZM997.016 96.0948C997.016 92.2486 994.885 90.1118 991.047 90.1118H978.682C974.845 90.1118 972.713 92.2486 972.713 96.0948V194.708C972.713 198.555 974.845 200.691 978.682 200.691H991.047C994.885 200.691 997.016 198.555 997.016 194.708V96.0948Z" fill="black"/>
</g>
<defs>
<clipPath id="clip0_261_680">
<rect width="1000" height="250" fill="white"/>
</clipPath>
</defs>
</svg>
