<svg width="145" height="32" viewBox="0 0 145 32" fill="none" xmlns="http://www.w3.org/2000/svg">
<path d="M43.8874 8.42763H38.1337V25.0488H34.7537V8.42763H29V5.21649H43.8896L43.8874 8.42763Z" fill="black"/>
<path d="M52.9422 15.1042H52.9137L49.6258 25.0488H46.4695L41.404 10.5516H44.8409L48.0805 20.9434L51.4056 10.5516H54.4743L57.7622 20.9719L61.0303 10.5516H64.4124L59.3557 25.0488H56.1993L52.9422 15.1042Z" fill="black"/>
<path d="M66.4465 10.5516H70.6264V25.0488H67.3035V13.5129H65.3856L66.4465 10.5516ZM66.8849 6.08231C66.8849 5.53005 67.1042 5.0004 67.4947 4.60989C67.8853 4.21939 68.4149 4 68.9672 4C69.5194 4 70.0491 4.21939 70.4396 4.60989C70.8301 5.0004 71.0495 5.53005 71.0495 6.08231C71.0495 7.28347 70.1837 8.12078 68.9825 8.12078C67.7813 8.12078 66.8827 7.28347 66.8827 6.08231H66.8849Z" fill="black"/>
<path d="M76.7133 12.4783C77.3293 11.3341 78.8088 10.2162 81.1826 10.2162C84.7028 10.2162 86.5747 12.5638 86.5747 15.9437V25.0488H83.2496V16.3623C83.2496 14.3787 82.3575 13.0745 80.3738 13.0745C78.2784 13.0745 76.9654 14.3896 76.9654 16.6495V25.0576H73.6403V10.5516H76.709L76.7133 12.4783Z" fill="black"/>
<path d="M100.14 10.5516H103.209V24.4351C103.209 28.2622 100.75 31.1664 96.2805 31.1664C91.923 31.1664 89.9393 28.374 89.6324 26.1119H92.9576C93.2644 27.2276 94.242 28.317 96.3375 28.317C98.628 28.317 99.884 26.9207 99.884 24.8823V22.6202C99.073 23.8762 97.5364 24.8538 95.3029 24.8538C91.169 24.8538 88.6264 21.5308 88.6264 17.535C88.6264 13.5392 91.169 10.2162 95.3029 10.2162C97.5364 10.2162 99.1848 11.1105 100.136 12.6273L100.14 10.5516ZM95.9758 13.149C93.5647 13.149 91.9537 14.9924 91.9537 17.5328C91.9537 20.0732 93.5735 21.9166 95.9758 21.9166C98.4329 21.9166 100.026 20.0447 100.026 17.5328C100.026 15.0209 98.4351 13.149 95.978 13.149H95.9758Z" fill="black"/>
<path d="M120.036 10.5801V25.0467H116.968V22.9797C116.045 24.4877 114.337 25.3908 112.078 25.3908C107.805 25.3908 105.375 21.9561 105.375 17.8199C105.375 13.6838 107.803 10.2447 112.073 10.2447C114.337 10.2447 116.04 11.139 116.963 12.6558V10.5801H120.036ZM112.775 22.4514C115.317 22.4514 116.854 20.413 116.854 17.8134C116.854 15.2138 115.319 13.1775 112.775 13.1775C110.23 13.1775 108.695 15.216 108.695 17.8134C108.695 20.4108 110.26 22.4514 112.775 22.4514Z" fill="black"/>
<path d="M122.686 6.78152H126.009V10.5516H128.718V13.206H126.009V20.5248C126.009 21.6689 126.485 22.2279 127.629 22.2279C127.978 22.2255 128.326 22.1783 128.664 22.0876V24.9656C128.095 25.09 127.514 25.146 126.932 25.1321C123.971 25.1321 122.686 23.5978 122.686 20.8601V6.78152Z" fill="black"/>
<path d="M132.971 18.7647C133.223 21.0552 134.702 22.5347 137.021 22.5347C138.556 22.5347 139.871 21.7522 140.401 20.4678H143.753C142.887 23.3457 140.318 25.3842 136.938 25.3842C132.554 25.3842 129.705 22.1161 129.705 17.7871C129.705 13.5677 132.609 10.2162 136.912 10.2162C141.214 10.2162 144.035 13.4844 144.035 17.7301C144.035 18.2605 144.007 18.7647 144.007 18.7647H132.971ZM133.028 16.3053H140.737C140.458 14.2954 139.06 12.9254 136.91 12.9254C134.759 12.9254 133.363 14.3217 133.028 16.3053Z" fill="black"/>
<path fill-rule="evenodd" clip-rule="evenodd" d="M0 13.6149V27.4978C0 27.4978 2.27909 25.9487 4.74124 24.235V16.9322C4.74124 13.1801 5.88167 11.9697 8.9695 9.69596C9.9399 8.98141 11.4293 7.88584 12.9016 6.80315V0C12.9016 0 6.77606 4.50256 4.22826 6.37862C1.14044 8.65234 0 9.86275 0 13.6149ZM6.2887 32V18.1171C6.2887 14.365 7.42914 13.1546 10.517 10.8809C13.0648 9.00479 19.1903 4.50224 19.1903 4.50224V16.6163C19.1903 16.9639 19.1931 17.2956 19.1958 17.6132C19.2244 20.9681 19.2396 22.7582 15.7752 25.3534C12.913 27.4974 6.2887 32 6.2887 32Z" fill="black"/>
</svg>
