<svg width="109" height="123" viewBox="0 0 109 123" fill="none" xmlns="http://www.w3.org/2000/svg">
<g clip-path="url(#clip0_1_2)">
<path d="M0.600006 0.899994H7.40001V7.89999H0.600006V0.899994ZM14 36.2H20.8V43.2H14V36.2ZM14 14.5H20.8V21.5H14V14.5ZM20.8 7.59999H27.6V14.6H20.8V7.59999ZM20.8 26.2H27.6V33.2H20.8V26.2ZM27.5 17.7H34.3V24.7H27.5V17.7Z" fill="#00A0DF"/>
<path fill-rule="evenodd" clip-rule="evenodd" d="M0.600006 19.3H7.40001V56.6H14V50H21V64.6H27.8V40.2H34.5V90.8C34.5 90.8 35.4 111.6 54.8 122.8C34.8 122.8 0.700006 113.8 0.700006 73.5L0.600006 19.3V19.3Z" fill="#00A0DF"/>
<path fill-rule="evenodd" clip-rule="evenodd" d="M37.9 96.7C37.9 96.7 41.5 114.3 60.6 122.8C78.2 122.8 111.8 108.7 108.5 69.8C108.6 69.8 96.2 118.6 37.9 96.7V96.7Z" fill="#00A0DF"/>
<path fill-rule="evenodd" clip-rule="evenodd" d="M74 98.5C74 98.5 100.9 97 108.8 60.7V1.7C108.8 1.7 75 -2.2 75 22.8C75 43.3 75.3 81.1 75 94C75 95.7 74.7 97.2 74 98.5Z" fill="#00A0DF"/>
</g>
<defs>
<clipPath id="clip0_1_2">
<rect width="109" height="123" fill="white"/>
</clipPath>
</defs>
</svg>
