<svg id="svg" version="1.1" xmlns="http://www.w3.org/2000/svg" xmlns:xlink="http://www.w3.org/1999/xlink" width="400" height="400" viewBox="0, 0, 400,400"><g id="svgg"><path id="path0" d="M294.800 45.200 C 294.470 45.413,293.626 45.591,292.924 45.594 C 292.222 45.597,291.536 45.780,291.400 46.000 C 291.264 46.220,290.443 46.400,289.576 46.400 C 288.709 46.400,288.000 46.580,288.000 46.800 C 288.000 47.020,287.295 47.200,286.433 47.200 C 285.572 47.200,284.807 47.374,284.733 47.587 C 284.660 47.800,284.001 48.020,283.270 48.075 C 282.538 48.130,281.852 48.315,281.746 48.487 C 281.640 48.659,281.021 48.800,280.371 48.800 C 279.721 48.800,278.877 48.958,278.495 49.151 C 277.177 49.817,274.940 50.400,273.705 50.400 C 273.024 50.400,272.407 50.572,272.333 50.782 C 272.260 50.993,271.537 51.209,270.726 51.263 C 269.915 51.316,269.341 51.504,269.449 51.680 C 269.608 51.937,267.717 52.123,266.545 51.966 C 266.404 51.947,266.174 52.119,266.033 52.347 C 265.891 52.576,265.118 52.807,264.314 52.862 C 263.510 52.916,262.941 53.104,263.049 53.280 C 263.158 53.456,262.517 53.600,261.624 53.600 C 260.731 53.600,260.000 53.780,260.000 54.000 C 260.000 54.220,259.280 54.400,258.400 54.400 C 257.520 54.400,256.800 54.580,256.800 54.800 C 256.800 55.020,256.080 55.200,255.200 55.200 C 254.320 55.200,253.600 55.380,253.600 55.600 C 253.600 55.820,252.970 56.000,252.200 56.000 C 251.430 56.000,250.800 56.180,250.800 56.400 C 250.800 56.620,250.170 56.800,249.400 56.800 C 248.630 56.800,248.000 56.980,248.000 57.200 C 248.000 57.420,247.201 57.600,246.224 57.600 C 245.247 57.600,244.336 57.780,244.200 58.000 C 244.064 58.220,243.434 58.400,242.800 58.400 C 242.166 58.400,241.534 58.583,241.396 58.807 C 241.258 59.030,240.976 59.108,240.769 58.981 C 240.562 58.853,240.034 58.862,239.595 59.002 C 238.802 59.253,238.798 59.618,238.899 119.127 L 239.000 179.000 240.700 179.123 C 241.706 179.196,242.400 179.073,242.400 178.823 C 242.400 178.590,242.994 178.400,243.720 178.400 C 244.446 178.400,245.211 178.230,245.420 178.022 C 245.629 177.815,246.645 177.602,247.678 177.549 C 248.711 177.496,249.465 177.306,249.355 177.126 C 249.244 176.947,249.883 176.800,250.776 176.800 C 251.669 176.800,252.400 176.620,252.400 176.400 C 252.400 176.180,253.030 176.000,253.800 176.000 C 254.570 176.000,255.200 175.845,255.200 175.656 C 255.200 175.466,256.145 175.184,257.300 175.029 C 258.455 174.874,259.670 174.711,260.000 174.666 C 260.330 174.621,260.960 174.404,261.400 174.182 C 261.840 173.961,262.560 173.789,263.000 173.801 C 263.440 173.813,264.220 173.610,264.733 173.351 C 265.246 173.092,265.966 172.927,266.333 172.984 C 266.700 173.040,267.095 172.940,267.212 172.762 C 267.329 172.583,268.094 172.392,268.912 172.337 C 269.730 172.282,270.400 172.093,270.400 171.918 C 270.400 171.743,270.972 171.600,271.672 171.600 C 272.878 171.600,274.839 171.101,276.600 170.346 C 277.040 170.158,277.973 169.965,278.672 169.919 C 279.372 169.872,279.856 169.691,279.749 169.517 C 279.572 169.230,281.457 169.009,282.700 169.170 C 282.975 169.206,283.200 169.047,283.200 168.818 C 283.200 168.588,283.815 168.400,284.567 168.400 C 285.318 168.400,285.993 168.228,286.067 168.018 C 286.140 167.807,286.888 167.589,287.728 167.534 C 288.569 167.478,289.344 167.290,289.452 167.116 C 289.559 166.942,290.267 166.800,291.024 166.800 C 291.781 166.800,292.400 166.620,292.400 166.400 C 292.400 166.180,293.019 166.000,293.776 166.000 C 294.533 166.000,295.264 165.820,295.400 165.600 C 295.536 165.380,296.321 165.200,297.144 165.200 C 297.967 165.200,298.856 164.984,299.120 164.720 C 299.489 164.351,299.600 150.436,299.600 104.520 L 299.600 44.800 297.500 44.806 C 296.345 44.809,295.130 44.987,294.800 45.200 M221.541 79.536 C 221.463 79.745,220.680 80.030,219.800 80.169 C 218.920 80.307,217.525 80.530,216.700 80.663 C 215.875 80.796,215.200 81.062,215.200 81.253 C 215.200 81.444,214.671 81.600,214.024 81.600 C 213.377 81.600,212.736 81.780,212.600 82.000 C 212.464 82.220,211.643 82.400,210.776 82.400 C 209.909 82.400,209.200 82.580,209.200 82.800 C 209.200 83.020,208.495 83.200,207.633 83.200 C 206.772 83.200,206.007 83.363,205.933 83.563 C 205.860 83.763,205.170 83.984,204.400 84.054 C 203.630 84.125,202.910 84.304,202.800 84.451 C 202.690 84.599,201.970 84.779,201.200 84.851 C 200.430 84.924,199.705 85.113,199.588 85.273 C 199.471 85.433,198.706 85.608,197.888 85.663 C 197.070 85.718,196.400 85.907,196.400 86.082 C 196.400 86.257,195.781 86.400,195.024 86.400 C 194.267 86.400,193.536 86.580,193.400 86.800 C 193.264 87.020,192.634 87.200,192.000 87.200 C 191.366 87.200,190.736 87.380,190.600 87.600 C 190.464 87.820,189.744 88.000,189.000 88.000 C 188.256 88.000,187.536 88.180,187.400 88.400 C 187.264 88.620,186.544 88.800,185.800 88.800 C 185.056 88.800,184.336 88.980,184.200 89.200 C 184.064 89.420,183.243 89.600,182.376 89.600 C 181.509 89.600,180.800 89.780,180.800 90.000 C 180.800 90.220,180.361 90.400,179.824 90.400 C 179.287 90.400,178.736 90.580,178.600 90.800 C 178.464 91.020,177.553 91.200,176.576 91.200 C 175.599 91.200,174.800 91.380,174.800 91.600 C 174.800 91.820,174.080 92.000,173.200 92.000 C 172.320 92.000,171.600 92.155,171.600 92.345 C 171.600 92.534,171.149 92.603,170.598 92.497 C 170.046 92.392,169.320 92.534,168.984 92.813 C 168.647 93.093,167.839 93.306,167.186 93.287 C 166.534 93.269,166.000 93.432,166.000 93.650 C 166.000 93.869,165.847 93.953,165.661 93.837 C 165.474 93.722,164.934 93.988,164.461 94.429 L 163.600 95.231 163.600 146.773 C 163.600 200.039,163.593 199.803,165.051 198.402 C 165.243 198.218,166.030 198.011,166.800 197.942 C 167.570 197.874,168.295 197.688,168.410 197.530 C 168.526 197.372,169.381 197.198,170.310 197.143 C 171.240 197.088,172.000 196.919,172.000 196.767 C 172.000 196.485,173.423 196.127,176.100 195.735 C 176.925 195.615,177.600 195.375,177.600 195.202 C 177.600 194.890,179.027 194.568,182.300 194.141 C 183.235 194.019,184.000 193.758,184.000 193.560 C 184.000 193.362,184.720 193.200,185.600 193.200 C 186.480 193.200,187.200 193.020,187.200 192.800 C 187.200 192.580,187.800 192.400,188.533 192.400 C 189.267 192.400,189.993 192.274,190.147 192.120 C 190.468 191.799,197.040 190.331,198.100 190.342 C 198.485 190.347,198.800 190.181,198.800 189.975 C 198.800 189.769,199.520 189.600,200.400 189.600 C 201.280 189.600,202.000 189.420,202.000 189.200 C 202.000 188.980,202.774 188.800,203.720 188.800 C 204.666 188.800,205.614 188.626,205.827 188.413 C 206.039 188.201,206.795 187.983,207.507 187.928 C 208.218 187.874,208.800 187.688,208.800 187.515 C 208.800 187.342,209.394 187.200,210.120 187.200 C 210.846 187.200,211.611 187.035,211.820 186.834 C 212.029 186.632,212.830 186.411,213.600 186.342 C 214.370 186.274,215.090 186.097,215.200 185.950 C 215.310 185.802,215.940 185.625,216.600 185.556 C 217.260 185.487,217.992 185.294,218.227 185.127 C 218.461 184.960,219.214 184.781,219.899 184.729 C 220.584 184.677,221.056 184.491,220.949 184.317 C 220.841 184.143,221.473 184.000,222.353 184.000 C 223.233 184.000,224.058 183.829,224.187 183.621 C 224.316 183.412,224.422 159.877,224.423 131.321 L 224.425 79.400 223.053 79.278 C 222.299 79.211,221.618 79.327,221.541 79.536 M147.200 82.073 C 147.200 82.253,146.581 82.400,145.824 82.400 C 145.067 82.400,144.336 82.580,144.200 82.800 C 144.064 83.020,143.434 83.200,142.800 83.200 C 142.166 83.200,141.536 83.380,141.400 83.600 C 141.264 83.820,140.544 84.000,139.800 84.000 C 139.056 84.000,138.336 84.180,138.200 84.400 C 138.064 84.620,137.243 84.800,136.376 84.800 C 135.509 84.800,134.800 84.980,134.800 85.200 C 134.800 85.420,134.069 85.600,133.176 85.600 C 132.196 85.600,131.651 85.758,131.800 86.000 C 131.951 86.245,131.330 86.400,130.200 86.400 C 129.070 86.400,128.449 86.555,128.600 86.800 C 128.749 87.042,128.204 87.200,127.224 87.200 C 126.331 87.200,125.600 87.380,125.600 87.600 C 125.600 87.820,124.880 88.000,124.000 88.000 C 123.120 88.000,122.400 88.180,122.400 88.400 C 122.400 88.620,121.680 88.800,120.800 88.800 C 119.920 88.800,119.200 88.980,119.200 89.200 C 119.200 89.420,118.581 89.600,117.824 89.600 C 117.067 89.600,116.336 89.780,116.200 90.000 C 116.064 90.220,115.344 90.400,114.600 90.400 C 113.856 90.400,113.136 90.580,113.000 90.800 C 112.864 91.020,112.144 91.200,111.400 91.200 C 110.656 91.200,109.936 91.380,109.800 91.600 C 109.664 91.820,108.933 92.000,108.176 92.000 C 107.419 92.000,106.800 92.164,106.800 92.365 C 106.800 92.566,106.276 92.648,105.635 92.547 C 104.994 92.446,104.354 92.551,104.211 92.782 C 104.069 93.012,103.414 93.200,102.757 93.200 C 102.099 93.200,101.052 93.463,100.431 93.784 C 99.810 94.105,99.193 94.260,99.060 94.127 C 98.928 93.994,98.510 94.137,98.133 94.443 C 97.538 94.926,97.493 94.920,97.800 94.400 C 98.093 93.902,98.049 93.884,97.540 94.296 C 97.203 94.569,96.403 94.861,95.763 94.944 C 94.487 95.109,93.374 95.459,92.305 96.029 C 91.923 96.233,91.263 96.400,90.838 96.400 C 88.640 96.400,88.800 91.648,88.800 156.843 L 88.800 216.800 90.576 216.800 C 91.553 216.800,92.464 216.620,92.600 216.400 C 92.736 216.180,93.546 216.000,94.400 216.000 C 95.254 216.000,96.064 215.820,96.200 215.600 C 96.336 215.380,96.977 215.200,97.624 215.200 C 98.271 215.200,98.800 215.020,98.800 214.800 C 98.800 214.580,99.520 214.400,100.400 214.400 C 101.280 214.400,102.000 214.239,102.000 214.042 C 102.000 213.845,102.675 213.582,103.500 213.457 C 107.080 212.916,108.000 212.691,108.000 212.356 C 108.000 212.160,108.619 212.000,109.376 212.000 C 110.133 212.000,110.864 211.820,111.000 211.600 C 111.136 211.380,112.036 211.200,113.000 211.200 C 113.964 211.200,114.864 211.020,115.000 210.800 C 115.136 210.580,115.777 210.400,116.424 210.400 C 117.071 210.400,117.600 210.220,117.600 210.000 C 117.600 209.780,118.230 209.600,119.000 209.600 C 119.770 209.600,120.400 209.445,120.400 209.255 C 120.400 209.066,121.607 208.787,123.083 208.636 C 124.558 208.484,125.953 208.207,126.183 208.019 C 126.412 207.830,127.230 207.624,128.000 207.559 C 128.770 207.494,129.580 207.314,129.800 207.158 C 130.020 207.003,130.740 206.772,131.400 206.645 C 132.060 206.519,133.410 206.221,134.400 205.983 C 135.390 205.745,136.740 205.449,137.400 205.325 C 138.060 205.201,138.804 204.937,139.054 204.739 C 139.303 204.541,140.158 204.355,140.954 204.325 C 141.749 204.295,142.400 204.120,142.400 203.935 C 142.400 203.751,143.131 203.600,144.024 203.600 C 145.004 203.600,145.549 203.442,145.400 203.200 C 145.250 202.957,145.836 202.800,146.896 202.800 C 147.855 202.800,148.856 202.584,149.120 202.320 C 149.489 201.951,149.600 187.963,149.600 141.793 L 149.600 81.745 148.400 81.745 C 147.740 81.745,147.200 81.893,147.200 82.073 M297.504 178.874 C 297.447 179.039,296.801 179.220,296.070 179.275 C 295.338 179.330,294.652 179.515,294.546 179.687 C 294.440 179.859,293.769 180.000,293.056 180.000 C 292.343 180.000,291.589 180.171,291.379 180.381 C 291.170 180.590,290.335 180.806,289.525 180.861 C 288.715 180.915,288.129 181.084,288.223 181.237 C 288.383 181.496,287.826 181.633,284.100 182.247 C 283.275 182.383,282.408 182.648,282.173 182.835 C 281.939 183.023,281.186 183.219,280.501 183.271 C 279.816 183.323,279.332 183.491,279.426 183.643 C 279.521 183.795,278.833 184.019,277.899 184.141 C 274.640 184.567,273.191 184.891,272.973 185.244 C 272.852 185.440,272.133 185.600,271.376 185.600 C 270.619 185.600,270.000 185.780,270.000 186.000 C 270.000 186.220,269.381 186.400,268.624 186.400 C 267.867 186.400,267.136 186.580,267.000 186.800 C 266.864 187.020,266.043 187.200,265.176 187.200 C 264.309 187.200,263.600 187.380,263.600 187.600 C 263.600 187.820,262.880 188.000,262.000 188.000 C 261.120 188.000,260.400 188.180,260.400 188.400 C 260.400 188.620,259.781 188.800,259.024 188.800 C 258.267 188.800,257.536 188.980,257.400 189.200 C 257.264 189.420,256.533 189.600,255.776 189.600 C 255.019 189.600,254.400 189.780,254.400 190.000 C 254.400 190.220,253.680 190.400,252.800 190.400 C 251.920 190.400,251.200 190.580,251.200 190.800 C 251.200 191.020,250.491 191.200,249.624 191.200 C 248.757 191.200,247.936 191.380,247.800 191.600 C 247.664 191.820,247.143 192.000,246.643 192.000 C 246.143 192.000,245.604 192.130,245.445 192.288 C 245.287 192.447,244.555 192.524,243.819 192.461 C 243.083 192.398,242.362 192.538,242.217 192.773 C 242.072 193.008,241.459 193.200,240.856 193.200 C 238.719 193.200,238.800 191.975,238.800 224.453 L 238.800 254.746 239.650 255.016 C 240.117 255.164,240.612 255.111,240.750 254.898 C 240.988 254.529,242.085 254.242,245.200 253.734 C 245.970 253.608,246.804 253.342,247.054 253.142 C 247.303 252.942,248.158 252.755,248.954 252.725 C 249.749 252.695,250.400 252.520,250.400 252.335 C 250.400 252.151,251.019 252.000,251.776 252.000 C 252.533 252.000,253.264 251.820,253.400 251.600 C 253.536 251.380,254.076 251.200,254.600 251.200 C 255.124 251.200,255.664 251.020,255.800 250.800 C 255.936 250.580,256.746 250.400,257.600 250.400 C 258.454 250.400,259.264 250.220,259.400 250.000 C 259.536 249.780,260.357 249.600,261.224 249.600 C 262.091 249.600,262.800 249.420,262.800 249.200 C 262.800 248.980,263.419 248.800,264.176 248.800 C 264.933 248.800,265.664 248.620,265.800 248.400 C 265.936 248.180,266.667 248.000,267.424 248.000 C 268.181 248.000,268.800 247.820,268.800 247.600 C 268.800 247.380,269.509 247.200,270.376 247.200 C 271.243 247.200,272.064 247.020,272.200 246.800 C 272.336 246.580,272.977 246.400,273.624 246.400 C 274.271 246.400,274.800 246.220,274.800 246.000 C 274.800 245.780,275.430 245.600,276.200 245.600 C 276.970 245.600,277.600 245.420,277.600 245.200 C 277.600 244.980,278.399 244.800,279.376 244.800 C 280.353 244.800,281.264 244.620,281.400 244.400 C 281.536 244.180,282.256 244.000,283.000 244.000 C 283.744 244.000,284.464 243.820,284.600 243.600 C 284.736 243.380,285.377 243.200,286.024 243.200 C 286.671 243.200,287.200 243.020,287.200 242.800 C 287.200 242.580,288.010 242.400,289.000 242.400 C 289.990 242.400,290.800 242.243,290.800 242.052 C 290.800 241.860,292.060 241.579,293.600 241.427 C 295.140 241.276,296.400 240.982,296.400 240.776 C 296.400 240.569,296.835 240.400,297.367 240.400 C 299.771 240.400,299.600 242.795,299.600 209.162 L 299.600 178.409 298.604 178.491 C 298.057 178.537,297.562 178.709,297.504 178.874 M222.800 197.600 C 222.470 197.813,221.705 197.991,221.100 197.994 C 220.495 197.997,220.000 198.180,220.000 198.400 C 220.000 198.620,219.269 198.800,218.376 198.800 C 217.396 198.800,216.851 198.958,217.000 199.200 C 217.211 199.541,215.393 199.832,214.270 199.637 C 214.089 199.606,214.055 199.765,214.194 199.990 C 214.347 200.238,213.884 200.420,213.024 200.450 C 211.106 200.517,210.914 200.552,210.567 200.900 C 210.402 201.065,209.667 201.200,208.933 201.200 C 208.200 201.200,207.600 201.380,207.600 201.600 C 207.600 201.820,207.075 202.000,206.433 202.000 C 205.792 202.000,205.207 202.165,205.133 202.366 C 205.060 202.567,204.190 202.783,203.200 202.846 C 202.210 202.909,201.305 203.096,201.188 203.262 C 201.071 203.428,200.318 203.607,199.514 203.662 C 198.710 203.716,198.141 203.904,198.249 204.080 C 198.358 204.256,197.807 204.400,197.024 204.400 C 196.241 204.400,195.600 204.580,195.600 204.800 C 195.600 205.020,194.981 205.200,194.224 205.200 C 193.467 205.200,192.736 205.380,192.600 205.600 C 192.464 205.820,191.543 206.000,190.553 206.000 C 189.455 206.000,188.849 206.156,189.000 206.400 C 189.151 206.645,188.530 206.800,187.400 206.800 C 186.270 206.800,185.649 206.955,185.800 207.200 C 185.944 207.433,185.545 207.600,184.847 207.600 C 184.187 207.600,183.536 207.780,183.400 208.000 C 183.264 208.220,182.454 208.400,181.600 208.400 C 180.746 208.400,179.943 208.569,179.815 208.775 C 179.688 208.982,179.204 209.078,178.741 208.989 C 178.277 208.899,177.606 208.981,177.249 209.170 C 176.892 209.359,175.970 209.612,175.200 209.733 C 174.430 209.853,173.080 210.225,172.200 210.558 C 171.320 210.892,170.006 211.173,169.280 211.182 C 168.554 211.192,167.413 211.483,166.744 211.829 C 166.075 212.175,165.296 212.369,165.013 212.260 C 163.625 211.728,163.600 212.430,163.600 251.287 L 163.600 289.615 165.600 289.544 C 166.700 289.505,167.600 289.357,167.600 289.215 C 167.600 289.073,168.365 288.912,169.300 288.858 C 170.235 288.804,171.060 288.589,171.133 288.380 C 171.207 288.171,171.972 288.000,172.833 288.000 C 173.695 288.000,174.400 287.820,174.400 287.600 C 174.400 287.380,174.925 287.200,175.567 287.200 C 176.208 287.200,176.793 287.029,176.867 286.821 C 176.940 286.612,177.855 286.387,178.900 286.321 C 179.945 286.254,180.800 286.065,180.800 285.900 C 180.800 285.735,181.329 285.600,181.976 285.600 C 182.623 285.600,183.264 285.420,183.400 285.200 C 183.536 284.980,184.256 284.800,185.000 284.800 C 185.744 284.800,186.452 284.640,186.573 284.444 C 186.791 284.091,188.240 283.766,191.500 283.341 C 192.435 283.219,193.200 282.958,193.200 282.760 C 193.200 282.562,193.740 282.400,194.400 282.400 C 195.060 282.400,195.600 282.220,195.600 282.000 C 195.600 281.780,196.399 281.600,197.376 281.600 C 198.353 281.600,199.264 281.420,199.400 281.200 C 199.536 280.980,200.098 280.800,200.650 280.800 C 201.201 280.800,201.981 280.624,202.382 280.410 C 202.783 280.195,203.671 279.977,204.355 279.925 C 205.040 279.873,205.600 279.688,205.600 279.515 C 205.600 279.342,206.129 279.200,206.776 279.200 C 207.423 279.200,208.064 279.020,208.200 278.800 C 208.336 278.580,209.247 278.400,210.224 278.400 C 211.201 278.400,212.000 278.220,212.000 278.000 C 212.000 277.780,212.731 277.600,213.624 277.600 C 214.604 277.600,215.149 277.442,215.000 277.200 C 214.853 276.962,215.329 276.800,216.176 276.800 C 216.959 276.800,217.600 276.620,217.600 276.400 C 217.600 276.180,218.320 276.000,219.200 276.000 C 220.080 276.000,220.800 275.820,220.800 275.600 C 220.800 275.380,221.610 275.200,222.600 275.200 C 223.590 275.200,224.402 275.065,224.405 274.900 C 224.414 274.389,224.417 198.233,224.408 197.651 C 224.401 197.186,224.297 197.186,223.723 197.651 C 223.263 198.024,223.143 198.040,223.347 197.700 C 223.705 197.103,223.599 197.084,222.800 197.600 M147.400 216.375 C 145.672 217.068,143.740 217.580,142.500 217.673 C 141.785 217.726,141.200 217.912,141.200 218.085 C 141.200 218.258,140.675 218.400,140.033 218.400 C 139.392 218.400,138.807 218.563,138.733 218.763 C 138.660 218.963,137.970 219.184,137.200 219.254 C 136.430 219.325,135.706 219.511,135.591 219.668 C 135.476 219.825,134.531 219.998,133.491 220.052 C 132.451 220.105,131.600 220.275,131.600 220.429 C 131.600 220.696,130.591 220.963,127.696 221.463 C 126.979 221.587,126.294 221.849,126.173 222.044 C 126.052 222.240,125.153 222.400,124.176 222.400 C 123.199 222.400,122.400 222.580,122.400 222.800 C 122.400 223.020,121.860 223.200,121.200 223.200 C 120.510 223.200,119.997 223.412,119.994 223.700 C 119.990 224.033,119.858 224.000,119.600 223.600 C 119.342 223.200,119.210 223.167,119.206 223.500 C 119.202 223.804,118.650 224.000,117.800 224.000 C 117.030 224.000,116.400 224.180,116.400 224.400 C 116.400 224.620,115.995 224.802,115.500 224.805 C 114.077 224.814,107.393 226.268,106.444 226.777 C 105.971 227.030,105.420 227.136,105.219 227.012 C 105.019 226.888,104.742 226.970,104.604 227.193 C 104.466 227.417,103.769 227.600,103.056 227.600 C 102.343 227.600,101.572 227.788,101.341 228.019 C 101.111 228.249,100.310 228.491,99.561 228.557 C 98.813 228.622,97.930 228.790,97.600 228.929 C 96.297 229.479,92.109 230.522,90.500 230.696 L 88.800 230.881 88.800 261.299 L 88.800 291.718 92.300 291.487 C 94.225 291.359,96.430 290.996,97.200 290.679 C 97.970 290.363,98.809 290.180,99.063 290.273 C 99.318 290.366,99.644 290.253,99.787 290.021 C 99.930 289.790,100.667 289.600,101.424 289.600 C 102.181 289.600,102.800 289.458,102.800 289.285 C 102.800 289.112,103.295 288.928,103.900 288.875 C 105.675 288.723,106.359 288.574,106.655 288.278 C 106.808 288.125,107.443 288.000,108.067 288.000 C 108.690 288.000,109.200 287.820,109.200 287.600 C 109.200 287.380,109.819 287.200,110.576 287.200 C 111.333 287.200,112.064 287.020,112.200 286.800 C 112.336 286.580,113.146 286.400,114.000 286.400 C 114.854 286.400,115.664 286.220,115.800 286.000 C 115.936 285.780,116.566 285.600,117.200 285.600 C 117.834 285.600,118.464 285.420,118.600 285.200 C 118.736 284.980,119.467 284.800,120.224 284.800 C 120.981 284.800,121.600 284.620,121.600 284.400 C 121.600 284.180,122.284 284.000,123.120 284.000 C 123.956 284.000,124.811 283.829,125.021 283.619 C 125.230 283.410,126.076 283.193,126.901 283.137 C 127.725 283.082,128.400 282.893,128.400 282.718 C 128.400 282.543,128.925 282.400,129.567 282.400 C 130.208 282.400,130.793 282.229,130.867 282.020 C 130.940 281.811,131.777 281.595,132.726 281.540 C 133.675 281.485,134.540 281.296,134.649 281.120 C 134.758 280.944,135.456 280.800,136.200 280.800 C 136.944 280.800,137.664 280.620,137.800 280.400 C 137.936 280.180,138.667 280.000,139.424 280.000 C 140.181 280.000,140.800 279.820,140.800 279.600 C 140.800 279.380,141.325 279.200,141.967 279.200 C 142.608 279.200,143.193 279.030,143.267 278.821 C 143.340 278.613,144.255 278.400,145.300 278.347 C 146.345 278.294,147.200 278.104,147.200 277.925 C 147.200 277.746,147.740 277.600,148.400 277.600 L 149.600 277.600 149.600 247.200 C 149.600 226.071,149.471 216.800,149.176 216.800 C 148.943 216.800,148.864 216.620,149.000 216.400 C 149.290 215.931,148.536 215.920,147.400 216.375 " stroke="none" fill="#2bace4" fill-rule="evenodd"></path><path id="path1" d="M25.443 315.033 C 24.932 316.365,25.926 321.019,27.209 323.295 C 27.424 323.677,27.600 324.341,27.600 324.771 C 27.600 325.201,27.780 325.664,28.000 325.800 C 28.220 325.936,28.400 326.476,28.400 327.000 C 28.400 327.524,28.544 328.042,28.721 328.151 C 28.897 328.260,29.290 329.261,29.593 330.375 C 29.896 331.489,30.292 332.400,30.472 332.400 C 30.653 332.400,30.800 332.940,30.800 333.600 C 30.800 334.260,30.980 334.800,31.200 334.800 C 31.420 334.800,31.600 335.340,31.600 336.000 C 31.600 336.660,31.780 337.200,32.000 337.200 C 32.220 337.200,32.400 337.740,32.400 338.400 C 32.400 339.060,32.580 339.600,32.800 339.600 C 33.020 339.600,33.200 340.039,33.200 340.576 C 33.200 341.113,33.380 341.664,33.600 341.800 C 33.820 341.936,34.000 342.566,34.000 343.200 C 34.000 343.834,34.180 344.464,34.400 344.600 C 34.620 344.736,34.800 345.197,34.800 345.624 C 34.800 346.051,34.980 346.400,35.200 346.400 C 35.420 346.400,35.600 346.940,35.600 347.600 C 35.600 348.260,35.780 348.800,36.000 348.800 C 36.220 348.800,36.400 349.340,36.400 350.000 C 36.400 350.660,36.580 351.200,36.800 351.200 C 37.020 351.200,37.200 351.740,37.200 352.400 L 37.200 353.600 41.800 353.600 L 46.400 353.600 46.400 352.624 C 46.400 352.087,46.580 351.536,46.800 351.400 C 47.020 351.264,47.200 350.803,47.200 350.376 C 47.200 349.949,47.380 349.600,47.600 349.600 C 47.820 349.600,48.000 349.060,48.000 348.400 C 48.000 347.740,48.180 347.200,48.400 347.200 C 48.620 347.200,48.800 346.660,48.800 346.000 C 48.800 345.340,48.980 344.800,49.200 344.800 C 49.420 344.800,49.600 344.260,49.600 343.600 C 49.600 342.940,49.780 342.400,50.000 342.400 C 50.220 342.400,50.400 341.961,50.400 341.424 C 50.400 340.887,50.580 340.336,50.800 340.200 C 51.020 340.064,51.200 339.513,51.200 338.976 C 51.200 338.439,51.380 338.000,51.600 338.000 C 51.820 338.000,52.000 337.460,52.000 336.800 C 52.000 336.140,52.180 335.600,52.400 335.600 C 52.620 335.600,52.800 335.060,52.800 334.400 C 52.800 333.467,52.978 333.200,53.600 333.200 C 54.222 333.200,54.400 333.467,54.400 334.400 C 54.400 335.060,54.580 335.600,54.800 335.600 C 55.020 335.600,55.200 336.140,55.200 336.800 C 55.200 337.460,55.380 338.000,55.600 338.000 C 55.820 338.000,56.000 338.439,56.000 338.976 C 56.000 339.513,56.180 340.064,56.400 340.200 C 56.620 340.336,56.800 340.887,56.800 341.424 C 56.800 341.961,56.980 342.400,57.200 342.400 C 57.420 342.400,57.600 342.730,57.600 343.133 C 57.600 343.537,57.731 343.997,57.890 344.157 C 58.050 344.316,58.396 345.506,58.660 346.800 C 58.924 348.094,59.411 349.749,59.743 350.477 C 60.074 351.204,60.405 352.160,60.478 352.600 C 60.600 353.339,60.966 353.409,65.305 353.513 L 70.000 353.625 70.000 352.413 C 70.000 351.746,70.180 351.200,70.400 351.200 C 70.620 351.200,70.800 350.851,70.800 350.424 C 70.800 349.997,70.980 349.536,71.200 349.400 C 71.420 349.264,71.600 348.801,71.600 348.371 C 71.600 347.941,71.762 347.277,71.961 346.895 C 72.581 345.699,75.200 337.200,75.200 336.380 C 75.200 335.951,75.380 335.600,75.600 335.600 C 75.820 335.600,76.000 335.060,76.000 334.400 C 76.000 333.740,76.180 333.200,76.400 333.200 C 76.620 333.200,76.800 332.660,76.800 332.000 C 76.800 331.340,76.980 330.800,77.200 330.800 C 77.420 330.800,77.600 330.260,77.600 329.600 C 77.600 328.940,77.780 328.400,78.000 328.400 C 78.220 328.400,78.400 327.860,78.400 327.200 C 78.400 326.540,78.580 326.000,78.800 326.000 C 79.020 326.000,79.200 325.561,79.200 325.024 C 79.200 324.487,79.380 323.936,79.600 323.800 C 79.820 323.664,80.000 323.113,80.000 322.576 C 80.000 322.039,80.180 321.600,80.400 321.600 C 80.620 321.600,80.800 321.060,80.800 320.400 C 80.800 319.740,80.980 319.200,81.200 319.200 C 81.420 319.200,81.600 318.660,81.600 318.000 C 81.600 317.340,81.780 316.800,82.000 316.800 C 82.220 316.800,82.400 316.260,82.400 315.600 L 82.400 314.400 77.571 314.400 C 72.318 314.400,71.600 314.661,71.600 316.571 C 71.600 317.137,71.420 317.600,71.200 317.600 C 70.980 317.600,70.800 318.140,70.800 318.800 C 70.800 319.460,70.620 320.000,70.400 320.000 C 70.180 320.000,70.000 320.540,70.000 321.200 C 70.000 321.860,69.820 322.400,69.600 322.400 C 69.380 322.400,69.200 323.120,69.200 324.000 C 69.200 324.880,69.020 325.600,68.800 325.600 C 68.580 325.600,68.400 326.039,68.400 326.576 C 68.400 327.113,68.220 327.664,68.000 327.800 C 67.780 327.936,67.600 328.476,67.600 329.000 C 67.600 329.524,67.420 330.064,67.200 330.200 C 66.980 330.336,66.800 330.887,66.800 331.424 C 66.800 331.961,66.631 332.400,66.424 332.400 C 66.217 332.400,65.992 333.074,65.924 333.897 C 65.761 335.866,64.400 336.342,64.400 334.429 C 64.400 333.753,64.220 333.200,64.000 333.200 C 63.780 333.200,63.600 332.660,63.600 332.000 C 63.600 331.340,63.420 330.800,63.200 330.800 C 62.980 330.800,62.800 330.260,62.800 329.600 C 62.800 328.940,62.620 328.400,62.400 328.400 C 62.180 328.400,62.000 327.961,62.000 327.424 C 62.000 326.887,61.820 326.336,61.600 326.200 C 61.380 326.064,61.200 325.513,61.200 324.976 C 61.200 324.439,61.020 324.000,60.800 324.000 C 60.580 324.000,60.400 323.460,60.400 322.800 C 60.400 322.140,60.220 321.600,60.000 321.600 C 59.780 321.600,59.600 321.060,59.600 320.400 C 59.600 319.740,59.444 319.200,59.254 319.200 C 59.064 319.200,58.794 318.365,58.654 317.344 C 58.303 314.779,57.681 314.428,53.471 314.413 C 49.603 314.399,48.800 314.770,48.800 316.571 C 48.800 317.137,48.620 317.600,48.400 317.600 C 48.180 317.600,48.000 318.140,48.000 318.800 C 48.000 319.460,47.820 320.000,47.600 320.000 C 47.380 320.000,47.200 320.540,47.200 321.200 C 47.200 321.860,47.020 322.400,46.800 322.400 C 46.580 322.400,46.400 322.940,46.400 323.600 C 46.400 324.260,46.220 324.800,46.000 324.800 C 45.780 324.800,45.600 325.239,45.600 325.776 C 45.600 326.313,45.420 326.864,45.200 327.000 C 44.980 327.136,44.800 327.676,44.800 328.200 C 44.800 328.724,44.620 329.264,44.400 329.400 C 44.180 329.536,44.000 329.999,44.000 330.429 C 44.000 330.859,43.835 331.523,43.633 331.905 C 43.432 332.287,42.948 333.680,42.559 335.000 L 41.851 337.400 41.359 335.000 C 41.089 333.680,40.658 331.880,40.401 331.000 C 40.144 330.120,39.838 328.903,39.721 328.295 C 39.604 327.687,39.349 327.092,39.154 326.971 C 38.959 326.851,38.800 326.401,38.800 325.971 C 38.800 325.541,38.642 324.877,38.449 324.495 C 37.860 323.328,37.200 320.992,37.200 320.072 C 37.200 319.592,37.020 319.200,36.800 319.200 C 36.580 319.200,36.400 318.660,36.400 318.000 C 36.400 317.340,36.220 316.800,36.000 316.800 C 35.780 316.800,35.600 316.517,35.600 316.171 C 35.600 314.376,26.104 313.311,25.443 315.033 M91.700 314.998 C 91.425 315.311,91.200 316.024,91.200 316.583 C 91.200 317.142,91.020 317.600,90.800 317.600 C 90.580 317.600,90.400 317.960,90.400 318.400 C 90.400 318.840,90.220 319.200,90.000 319.200 C 89.780 319.200,89.600 319.560,89.600 320.000 C 89.600 320.440,89.420 320.800,89.200 320.800 C 88.980 320.800,88.800 321.340,88.800 322.000 C 88.800 322.660,88.620 323.200,88.400 323.200 C 88.180 323.200,88.000 323.560,88.000 324.000 C 88.000 324.440,87.820 324.800,87.600 324.800 C 87.380 324.800,87.200 325.250,87.200 325.800 C 87.200 326.350,87.020 326.800,86.800 326.800 C 86.580 326.800,86.400 327.160,86.400 327.600 C 86.400 328.040,86.220 328.400,86.000 328.400 C 85.780 328.400,85.600 328.760,85.600 329.200 C 85.600 329.640,85.420 330.000,85.200 330.000 C 84.980 330.000,84.800 330.439,84.800 330.976 C 84.800 331.513,84.620 332.064,84.400 332.200 C 84.180 332.336,84.000 332.797,84.000 333.224 C 84.000 333.651,83.820 334.000,83.600 334.000 C 83.380 334.000,83.200 334.360,83.200 334.800 C 83.200 335.240,83.020 335.600,82.800 335.600 C 82.580 335.600,82.400 336.140,82.400 336.800 C 82.400 337.460,82.220 338.000,82.000 338.000 C 81.780 338.000,81.600 338.360,81.600 338.800 C 81.600 339.240,81.420 339.600,81.200 339.600 C 80.980 339.600,80.800 339.872,80.800 340.205 C 80.800 340.538,80.641 341.123,80.446 341.505 C 78.848 344.640,77.600 347.391,77.600 347.781 C 77.600 348.039,77.229 349.017,76.776 349.955 C 75.206 353.204,75.456 353.400,81.163 353.400 L 86.126 353.400 86.763 351.600 C 87.113 350.610,87.535 349.740,87.700 349.667 C 87.865 349.593,88.000 349.276,88.000 348.962 C 88.000 348.648,88.380 347.583,88.844 346.596 L 89.688 344.800 96.644 344.800 L 103.600 344.800 103.600 346.000 C 103.600 346.660,103.780 347.200,104.000 347.200 C 104.220 347.200,104.400 347.560,104.400 348.000 C 104.400 348.440,104.580 348.800,104.800 348.800 C 105.020 348.800,105.200 349.239,105.200 349.776 C 105.200 350.313,105.380 350.864,105.600 351.000 C 105.820 351.136,106.000 351.519,106.000 351.852 C 106.000 353.306,107.003 353.600,111.971 353.600 L 116.800 353.600 116.800 352.400 C 116.800 351.740,116.620 351.200,116.400 351.200 C 116.180 351.200,116.000 350.840,116.000 350.400 C 116.000 349.960,115.820 349.600,115.600 349.600 C 115.380 349.600,115.200 349.060,115.200 348.400 C 115.200 347.740,115.020 347.200,114.800 347.200 C 114.580 347.200,114.400 346.840,114.400 346.400 C 114.400 345.960,114.220 345.600,114.000 345.600 C 113.780 345.600,113.600 345.240,113.600 344.800 C 113.600 344.360,113.420 344.000,113.200 344.000 C 112.980 344.000,112.800 343.550,112.800 343.000 C 112.800 342.450,112.620 342.000,112.400 342.000 C 112.180 342.000,112.000 341.640,112.000 341.200 C 112.000 340.760,111.820 340.400,111.600 340.400 C 111.380 340.400,111.200 340.040,111.200 339.600 C 111.200 339.160,111.020 338.800,110.800 338.800 C 110.580 338.800,110.400 338.260,110.400 337.600 C 110.400 336.940,110.220 336.400,110.000 336.400 C 109.780 336.400,109.600 336.040,109.600 335.600 C 109.600 335.160,109.420 334.800,109.200 334.800 C 108.980 334.800,108.800 334.355,108.800 333.811 C 108.800 332.962,107.593 329.837,106.366 327.505 C 106.165 327.123,106.000 326.538,106.000 326.205 C 106.000 325.872,105.820 325.600,105.600 325.600 C 105.380 325.600,105.200 325.240,105.200 324.800 C 105.200 324.360,105.020 324.000,104.800 324.000 C 104.580 324.000,104.400 323.460,104.400 322.800 C 104.400 322.140,104.220 321.600,104.000 321.600 C 103.780 321.600,103.600 321.240,103.600 320.800 C 103.600 320.360,103.420 320.000,103.200 320.000 C 102.980 320.000,102.800 319.640,102.800 319.200 C 102.800 318.760,102.620 318.400,102.400 318.400 C 102.180 318.400,102.000 317.860,102.000 317.200 C 102.000 316.540,101.820 316.000,101.600 316.000 C 101.380 316.000,101.200 315.640,101.200 315.200 C 101.200 314.165,92.594 313.982,91.700 314.998 M109.867 314.667 C 109.361 315.173,109.603 316.730,110.457 318.462 C 110.928 319.418,111.450 320.560,111.617 321.000 C 111.784 321.440,112.298 322.653,112.760 323.696 C 113.222 324.738,113.600 325.853,113.600 326.172 C 113.600 326.491,113.780 326.864,114.000 327.000 C 114.220 327.136,114.400 327.687,114.400 328.224 C 114.400 328.761,114.580 329.200,114.800 329.200 C 115.020 329.200,115.200 329.560,115.200 330.000 C 115.200 330.440,115.380 330.800,115.600 330.800 C 115.820 330.800,116.000 331.340,116.000 332.000 C 116.000 332.660,116.180 333.200,116.400 333.200 C 116.620 333.200,116.800 333.560,116.800 334.000 C 116.800 334.440,116.980 334.800,117.200 334.800 C 117.420 334.800,117.600 335.340,117.600 336.000 C 117.600 336.660,117.780 337.200,118.000 337.200 C 118.220 337.200,118.400 337.560,118.400 338.000 C 118.400 338.440,118.580 338.800,118.800 338.800 C 119.020 338.800,119.200 339.250,119.200 339.800 C 119.200 340.350,119.380 340.800,119.600 340.800 C 119.820 340.800,120.000 341.160,120.000 341.600 C 120.000 342.040,120.180 342.400,120.400 342.400 C 120.620 342.400,120.800 342.940,120.800 343.600 C 120.800 344.260,120.980 344.800,121.200 344.800 C 121.420 344.800,121.600 345.160,121.600 345.600 C 121.600 346.040,121.780 346.400,122.000 346.400 C 122.220 346.400,122.400 346.940,122.400 347.600 C 122.400 348.260,122.580 348.800,122.800 348.800 C 123.020 348.800,123.200 349.160,123.200 349.600 C 123.200 350.040,123.380 350.400,123.600 350.400 C 123.820 350.400,124.000 350.863,124.000 351.429 C 124.000 353.253,124.788 353.600,128.939 353.600 C 133.408 353.600,134.000 353.431,134.000 352.157 C 134.000 351.631,134.180 351.200,134.400 351.200 C 134.620 351.200,134.800 350.761,134.800 350.224 C 134.800 349.687,134.980 349.136,135.200 349.000 C 135.420 348.864,135.600 348.403,135.600 347.976 C 135.600 347.549,135.780 347.200,136.000 347.200 C 136.220 347.200,136.400 346.851,136.400 346.424 C 136.400 345.997,136.580 345.536,136.800 345.400 C 137.020 345.264,137.200 344.713,137.200 344.176 C 137.200 343.639,137.380 343.200,137.600 343.200 C 137.820 343.200,138.000 342.928,138.000 342.595 C 138.000 342.262,138.165 341.677,138.367 341.295 C 139.085 339.938,140.400 336.803,140.400 336.450 C 140.400 336.253,140.669 335.576,140.998 334.946 C 141.326 334.316,141.596 333.305,141.598 332.700 C 141.599 332.095,141.780 331.600,142.000 331.600 C 142.220 331.600,142.400 331.240,142.400 330.800 C 142.400 330.360,142.580 330.000,142.800 330.000 C 143.020 330.000,143.200 329.460,143.200 328.800 C 143.200 328.140,143.380 327.600,143.600 327.600 C 143.820 327.600,144.000 327.257,144.000 326.838 C 144.000 326.179,144.486 325.011,146.050 321.905 C 146.243 321.523,146.400 320.938,146.400 320.605 C 146.400 320.272,146.580 320.000,146.800 320.000 C 147.020 320.000,147.200 319.640,147.200 319.200 C 147.200 318.760,147.380 318.400,147.600 318.400 C 147.820 318.400,148.000 317.500,148.000 316.400 L 148.000 314.400 143.171 314.400 C 137.931 314.400,137.200 314.663,137.200 316.548 C 137.200 317.101,137.020 317.664,136.800 317.800 C 136.580 317.936,136.400 318.487,136.400 319.024 C 136.400 319.561,136.220 320.000,136.000 320.000 C 135.780 320.000,135.600 320.540,135.600 321.200 C 135.600 321.860,135.420 322.400,135.200 322.400 C 134.980 322.400,134.800 322.760,134.800 323.200 C 134.800 323.640,134.620 324.000,134.400 324.000 C 134.180 324.000,134.000 324.439,134.000 324.976 C 134.000 325.513,133.820 326.064,133.600 326.200 C 133.380 326.336,133.200 326.887,133.200 327.424 C 133.200 327.961,133.020 328.400,132.800 328.400 C 132.580 328.400,132.400 328.749,132.400 329.176 C 132.400 329.603,132.220 330.064,132.000 330.200 C 131.780 330.336,131.600 330.876,131.600 331.400 C 131.600 331.924,131.420 332.464,131.200 332.600 C 130.980 332.736,130.800 333.287,130.800 333.824 C 130.800 334.361,130.620 334.800,130.400 334.800 C 130.180 334.800,130.000 335.321,130.000 335.957 C 130.000 336.594,129.748 337.211,129.439 337.330 C 128.736 337.599,128.400 337.277,128.400 336.333 C 128.400 335.930,128.220 335.600,128.000 335.600 C 127.780 335.600,127.600 335.060,127.600 334.400 C 127.600 333.740,127.420 333.200,127.200 333.200 C 126.980 333.200,126.800 332.840,126.800 332.400 C 126.800 331.960,126.620 331.600,126.400 331.600 C 126.180 331.600,126.000 331.060,126.000 330.400 C 126.000 329.740,125.820 329.200,125.600 329.200 C 125.380 329.200,125.200 328.788,125.200 328.285 C 125.200 327.327,123.924 323.391,123.465 322.932 C 123.319 322.786,123.200 322.247,123.200 321.733 C 123.200 321.220,123.020 320.800,122.800 320.800 C 122.580 320.800,122.400 320.440,122.400 320.000 C 122.400 319.560,122.220 319.200,122.000 319.200 C 121.780 319.200,121.600 318.660,121.600 318.000 C 121.600 317.340,121.420 316.800,121.200 316.800 C 120.980 316.800,120.800 316.517,120.800 316.171 C 120.800 314.696,119.813 314.400,114.895 314.400 C 112.276 314.400,110.013 314.520,109.867 314.667 M150.400 334.000 L 150.400 353.600 165.200 353.600 L 180.000 353.600 180.000 348.800 L 180.000 344.000 170.200 344.000 L 160.400 344.000 160.400 341.400 L 160.400 338.800 168.600 338.800 L 176.800 338.800 176.800 334.000 L 176.800 329.200 168.600 329.200 L 160.400 329.200 160.400 326.600 L 160.400 324.000 169.567 324.000 C 181.009 324.000,180.000 324.441,180.000 319.437 C 180.000 313.919,181.458 314.400,164.720 314.400 L 150.400 314.400 150.400 334.000 M184.500 314.998 C 183.657 315.956,183.785 353.032,184.633 353.357 C 184.981 353.491,187.231 353.600,189.633 353.600 L 194.000 353.600 194.000 346.500 L 193.999 339.400 202.024 339.530 C 212.454 339.700,212.071 339.903,211.914 334.282 L 211.800 330.200 202.900 330.092 L 194.000 329.985 194.000 327.192 L 194.000 324.400 203.720 324.400 C 215.229 324.400,214.400 324.788,214.400 319.400 C 214.400 316.791,214.230 315.190,213.920 314.880 C 213.157 314.117,185.177 314.229,184.500 314.998 M217.245 314.946 C 216.919 315.339,216.821 320.783,216.896 334.446 L 217.000 353.400 221.900 353.512 L 226.800 353.625 226.800 347.612 L 226.800 341.600 229.018 341.600 C 231.290 341.600,233.200 342.739,233.200 344.094 C 233.200 344.385,233.560 344.883,234.000 345.200 C 234.440 345.517,234.800 346.057,234.800 346.400 C 234.800 346.743,235.160 347.283,235.600 347.600 C 236.040 347.917,236.400 348.457,236.400 348.800 C 236.400 349.143,236.760 349.683,237.200 350.000 C 237.640 350.317,238.000 350.762,238.000 350.988 C 238.003 352.966,239.739 353.600,245.147 353.600 L 250.400 353.600 250.400 352.400 C 250.400 351.740,250.220 351.200,250.000 351.200 C 249.780 351.200,249.600 350.964,249.600 350.675 C 249.600 350.387,249.240 349.764,248.800 349.292 C 248.360 348.820,248.000 348.196,248.000 347.905 C 248.000 347.614,247.640 347.117,247.200 346.800 C 246.760 346.483,246.400 345.993,246.400 345.712 C 246.400 345.430,246.220 345.200,246.000 345.200 C 245.780 345.200,245.600 344.930,245.600 344.600 C 245.600 344.270,245.420 344.000,245.200 344.000 C 244.980 344.000,244.800 343.770,244.800 343.488 C 244.800 343.207,244.440 342.717,244.000 342.400 C 243.560 342.083,243.200 341.503,243.200 341.112 C 243.200 340.720,243.020 340.400,242.800 340.400 C 242.086 340.400,242.377 339.661,243.193 339.402 C 244.157 339.096,247.200 336.233,247.200 335.631 C 247.200 335.394,247.380 335.200,247.600 335.200 C 247.820 335.200,248.000 334.930,248.000 334.600 C 248.000 334.270,248.180 334.000,248.400 334.000 C 248.620 334.000,248.800 333.280,248.800 332.400 C 248.800 331.520,248.980 330.800,249.200 330.800 C 249.431 330.800,249.600 329.533,249.600 327.800 C 249.600 326.067,249.431 324.800,249.200 324.800 C 248.980 324.800,248.800 324.260,248.800 323.600 C 248.800 322.940,248.620 322.400,248.400 322.400 C 248.180 322.400,248.000 322.120,248.000 321.778 C 248.000 320.810,243.277 316.395,241.959 316.132 C 241.321 316.004,240.800 315.743,240.800 315.550 C 240.800 315.358,239.911 315.200,238.824 315.200 C 237.737 315.200,236.736 315.020,236.600 314.800 C 236.188 314.133,217.805 314.272,217.245 314.946 M266.000 314.800 C 266.000 315.020,265.460 315.200,264.800 315.200 C 264.140 315.200,263.600 315.380,263.600 315.600 C 263.600 315.820,263.240 316.000,262.800 316.000 C 262.360 316.000,262.000 316.180,262.000 316.400 C 262.000 316.620,261.640 316.800,261.200 316.800 C 260.760 316.800,260.400 316.980,260.400 317.200 C 260.400 317.420,260.217 317.600,259.993 317.600 C 259.451 317.600,254.400 322.666,254.400 323.209 C 254.400 323.443,254.040 324.020,253.600 324.492 C 253.160 324.964,252.800 325.767,252.800 326.275 C 252.800 326.784,252.620 327.200,252.400 327.200 C 252.180 327.200,252.000 327.740,252.000 328.400 C 252.000 329.060,251.820 329.600,251.600 329.600 C 251.358 329.600,251.200 331.333,251.200 334.000 C 251.200 336.667,251.358 338.400,251.600 338.400 C 251.820 338.400,252.000 338.814,252.000 339.320 C 252.000 340.374,252.853 342.392,253.300 342.397 C 253.465 342.399,253.600 342.760,253.600 343.200 C 253.600 343.640,253.780 344.000,254.000 344.000 C 254.220 344.000,254.400 344.320,254.400 344.712 C 254.400 345.103,254.760 345.683,255.200 346.000 C 255.640 346.317,256.000 346.820,256.000 347.117 C 256.000 347.775,256.973 348.800,257.597 348.800 C 257.847 348.800,258.506 349.340,259.061 350.000 C 259.617 350.660,260.325 351.200,260.636 351.200 C 260.946 351.200,261.200 351.380,261.200 351.600 C 261.200 351.820,261.560 352.000,262.000 352.000 C 262.440 352.000,262.800 352.180,262.800 352.400 C 262.800 352.620,263.340 352.800,264.000 352.800 C 264.660 352.800,265.200 352.980,265.200 353.200 C 265.200 353.450,267.592 353.600,271.576 353.600 C 275.396 353.600,278.052 353.440,278.200 353.200 C 278.336 352.980,278.797 352.800,279.224 352.800 C 279.651 352.800,280.000 352.620,280.000 352.400 C 280.000 352.180,280.360 352.000,280.800 352.000 C 281.240 352.000,281.600 351.820,281.600 351.600 C 281.600 351.380,281.920 351.200,282.312 351.200 C 282.703 351.200,283.283 350.840,283.600 350.400 C 283.917 349.960,284.413 349.600,284.702 349.600 C 285.384 349.600,288.000 346.984,288.000 346.302 C 288.000 346.013,288.360 345.517,288.800 345.200 C 289.240 344.883,289.600 344.303,289.600 343.912 C 289.600 343.520,289.780 343.200,290.000 343.200 C 290.220 343.200,290.400 342.876,290.400 342.480 C 290.400 342.084,290.625 341.535,290.900 341.261 C 292.329 339.834,291.457 324.800,289.945 324.800 C 289.755 324.800,289.600 324.546,289.600 324.237 C 289.600 323.459,282.996 316.800,282.225 316.800 C 281.881 316.800,281.600 316.620,281.600 316.400 C 281.600 316.180,281.240 316.000,280.800 316.000 C 280.360 316.000,280.000 315.820,280.000 315.600 C 280.000 315.380,279.471 315.200,278.824 315.200 C 278.177 315.200,277.536 315.020,277.400 314.800 C 277.254 314.564,274.863 314.400,271.576 314.400 C 268.125 314.400,266.000 314.552,266.000 314.800 M295.067 314.667 C 294.920 314.813,294.800 323.633,294.800 334.267 L 294.800 353.600 299.757 353.600 C 305.792 353.600,305.200 354.778,305.200 342.767 C 305.200 336.656,305.344 333.200,305.600 333.200 C 305.820 333.200,306.000 333.443,306.000 333.741 C 306.000 334.038,306.540 334.846,307.200 335.537 C 307.860 336.228,308.400 336.942,308.400 337.124 C 308.400 337.307,309.030 338.192,309.800 339.092 C 310.570 339.991,311.200 340.851,311.200 341.003 C 311.200 341.155,311.740 341.783,312.400 342.400 C 313.060 343.017,313.600 343.737,313.600 344.000 C 313.600 344.263,314.140 344.983,314.800 345.600 C 315.460 346.217,316.000 346.919,316.000 347.160 C 316.000 347.402,316.720 348.341,317.600 349.248 C 318.480 350.155,319.200 351.063,319.200 351.266 C 319.200 352.837,321.155 353.600,325.182 353.600 L 329.200 353.600 329.200 333.988 L 329.200 314.375 324.300 314.488 L 319.400 314.600 319.293 324.700 C 319.227 330.977,319.037 334.800,318.793 334.800 C 318.577 334.800,318.400 334.512,318.400 334.160 C 318.400 333.809,317.860 333.017,317.200 332.400 C 316.540 331.783,316.000 331.081,316.000 330.840 C 316.000 330.598,315.280 329.659,314.400 328.752 C 313.520 327.845,312.800 326.899,312.800 326.648 C 312.800 326.397,312.440 325.968,312.000 325.693 C 311.560 325.418,311.200 324.997,311.200 324.757 C 311.200 324.517,310.660 323.817,310.000 323.200 C 309.340 322.583,308.800 321.829,308.800 321.523 C 308.800 321.217,308.170 320.299,307.400 319.482 C 306.630 318.666,306.000 317.813,306.000 317.586 C 306.000 317.359,305.376 316.549,304.613 315.787 L 303.227 314.400 299.280 314.400 C 297.109 314.400,295.213 314.520,295.067 314.667 M331.688 319.300 L 331.800 324.200 337.095 324.312 L 342.390 324.423 342.495 338.912 L 342.600 353.400 347.143 353.514 C 350.150 353.589,351.874 353.471,352.243 353.165 C 353.021 352.519,353.076 324.978,352.300 324.665 C 352.025 324.554,354.275 324.449,357.300 324.432 L 362.800 324.400 362.800 319.400 L 362.800 314.400 347.188 314.400 L 331.575 314.400 331.688 319.300 M274.973 324.356 C 275.094 324.551,275.657 324.828,276.224 324.970 C 277.454 325.279,280.000 327.718,280.000 328.587 C 280.000 328.924,280.180 329.200,280.400 329.200 C 280.620 329.200,280.800 329.740,280.800 330.400 C 280.800 331.060,280.980 331.600,281.200 331.600 C 281.422 331.600,281.600 332.659,281.600 333.976 C 281.600 335.283,281.420 336.464,281.200 336.600 C 280.980 336.736,280.800 337.287,280.800 337.824 C 280.800 338.361,280.620 338.800,280.400 338.800 C 280.180 338.800,280.000 339.091,280.000 339.447 C 280.000 340.216,276.940 343.200,276.151 343.200 C 275.848 343.200,275.600 343.380,275.600 343.600 C 275.600 343.835,274.225 344.000,272.275 344.000 C 267.940 344.000,263.600 342.113,263.600 340.229 C 263.600 339.883,263.420 339.600,263.200 339.600 C 262.980 339.600,262.800 339.240,262.800 338.800 C 262.800 338.360,262.620 338.000,262.400 338.000 C 262.160 338.000,262.000 336.400,262.000 334.000 C 262.000 331.600,262.160 330.000,262.400 330.000 C 262.620 330.000,262.800 329.640,262.800 329.200 C 262.800 328.760,262.980 328.400,263.200 328.400 C 263.420 328.400,263.600 328.106,263.600 327.747 C 263.600 326.881,265.492 325.287,266.882 324.982 C 267.492 324.848,268.094 324.572,268.219 324.369 C 268.512 323.896,274.681 323.883,274.973 324.356 M236.994 324.883 C 238.284 325.228,238.800 325.571,238.800 326.083 C 238.800 326.477,238.980 326.800,239.200 326.800 C 239.420 326.800,239.600 327.340,239.600 328.000 C 239.600 328.660,239.420 329.200,239.200 329.200 C 238.980 329.200,238.800 329.483,238.800 329.829 C 238.800 330.637,237.837 331.600,237.029 331.600 C 236.683 331.600,236.400 331.780,236.400 332.000 C 236.400 332.244,234.533 332.400,231.600 332.400 L 226.800 332.400 226.800 328.400 L 226.800 324.400 230.994 324.400 C 233.301 324.400,236.001 324.617,236.994 324.883 M96.700 329.483 C 96.975 330.075,97.200 330.794,97.200 331.080 C 97.200 331.366,97.380 331.600,97.600 331.600 C 97.820 331.600,98.000 332.039,98.000 332.576 C 98.000 333.113,98.180 333.664,98.400 333.800 C 98.620 333.936,98.800 334.397,98.800 334.824 C 98.800 335.251,98.980 335.600,99.200 335.600 C 99.420 335.600,99.600 335.780,99.600 336.000 C 99.600 336.233,98.267 336.400,96.400 336.400 C 93.467 336.400,93.200 336.333,93.200 335.600 C 93.200 335.160,93.380 334.800,93.600 334.800 C 93.820 334.800,94.000 334.260,94.000 333.600 C 94.000 332.940,94.180 332.400,94.400 332.400 C 94.620 332.400,94.800 332.040,94.800 331.600 C 94.800 331.160,94.980 330.800,95.200 330.800 C 95.420 330.800,95.600 330.260,95.600 329.600 C 95.600 328.113,96.042 328.066,96.700 329.483 " stroke="none" fill="#2c2c2c" fill-rule="evenodd"></path><path id="path2" d="M224.594 131.400 C 224.594 158.680,224.642 169.781,224.700 156.069 C 224.758 142.357,224.758 120.037,224.700 106.469 C 224.642 92.901,224.594 104.120,224.594 131.400 M224.592 236.400 C 224.592 256.310,224.640 264.455,224.700 254.500 C 224.759 244.545,224.759 228.255,224.700 218.300 C 224.640 208.345,224.592 216.490,224.592 236.400 " stroke="none" fill="#28b0b4" fill-rule="evenodd"></path><path id="path3" d="M224.594 131.400 C 224.594 158.680,224.642 169.781,224.700 156.069 C 224.758 142.357,224.758 120.037,224.700 106.469 C 224.642 92.901,224.594 104.120,224.594 131.400 M224.592 236.400 C 224.592 256.310,224.640 264.455,224.700 254.500 C 224.759 244.545,224.759 228.255,224.700 218.300 C 224.640 208.345,224.592 216.490,224.592 236.400 " stroke="none" fill="#28b0b4" fill-rule="evenodd"></path><path id="path4" d="M224.594 131.400 C 224.594 158.680,224.642 169.781,224.700 156.069 C 224.758 142.357,224.758 120.037,224.700 106.469 C 224.642 92.901,224.594 104.120,224.594 131.400 M224.592 236.400 C 224.592 256.310,224.640 264.455,224.700 254.500 C 224.759 244.545,224.759 228.255,224.700 218.300 C 224.640 208.345,224.592 216.490,224.592 236.400 " stroke="none" fill="#28b0b4" fill-rule="evenodd"></path></g></svg>