<svg width="277" height="70" viewBox="0 0 277 70" fill="none" xmlns="http://www.w3.org/2000/svg">
<path fill-rule="evenodd" clip-rule="evenodd" d="M54.0161 53.4584L51.7371 44.9531L53.0537 44.6003L55.9489 55.4052L20.1681 45.5944L46.2794 19.318L49.1731 30.1177L47.8565 30.4705L45.5761 21.9599L22.7849 44.8979L54.0161 53.4584Z" fill="#101010"/>
<path fill-rule="evenodd" clip-rule="evenodd" d="M14.4679 36.5173L15.8937 41.8386L9.21618 48.516L18.3378 50.96L19.7636 56.2813L0 50.9855L14.4679 36.5173Z" fill="url(#paint0_linear_226_4766)"/>
<path fill-rule="evenodd" clip-rule="evenodd" d="M56.1732 19.7637L50.852 18.3379L48.408 9.21622L41.7306 15.8938L36.4094 14.468L50.8774 0L56.1732 19.7637Z" fill="url(#paint1_linear_226_4766)"/>
<path fill-rule="evenodd" clip-rule="evenodd" d="M49.9976 64.4648L53.8931 60.5693L63.0147 63.0136L60.5704 53.892L64.4659 49.9966L69.7614 69.7603L49.9976 64.4648Z" fill="url(#paint2_linear_226_4766)"/>
<path fill-rule="evenodd" clip-rule="evenodd" d="M33.7861 66.893L32.6103 54.8185L40.8416 57.0241L33.7861 66.893Z" fill="url(#paint3_linear_226_4766)"/>
<path fill-rule="evenodd" clip-rule="evenodd" d="M20.3498 21.1892L25.3687 32.2339L31.3945 26.2081L20.3498 21.1892Z" fill="url(#paint4_linear_226_4766)"/>
<path fill-rule="evenodd" clip-rule="evenodd" d="M66.674 33.5554L54.5995 32.3796L56.8051 40.611L66.674 33.5554Z" fill="url(#paint5_linear_226_4766)"/>
<path d="M49.2267 33.3665C50.9233 32.9119 51.9302 31.1679 51.4756 29.4713C51.021 27.7746 49.277 26.7678 47.5804 27.2224C45.8837 27.677 44.8768 29.4209 45.3315 31.1176C45.7861 32.8143 47.53 33.8211 49.2267 33.3665Z" fill="#101010"/>
<path d="M53.336 47.8485C55.0327 47.3938 56.0396 45.6499 55.5849 43.9532C55.1303 42.2566 53.3864 41.2497 51.6897 41.7043C49.9931 42.1589 48.9862 43.9029 49.4408 45.5995C49.8954 47.2962 51.6394 48.3031 53.336 47.8485Z" fill="#101010"/>
<path d="M55.8048 57.5036C57.5014 57.049 58.5083 55.305 58.0537 53.6084C57.5991 51.9117 55.8551 50.9048 54.1585 51.3595C52.4618 51.8141 51.455 53.558 51.9096 55.2547C52.3642 56.9514 54.1081 57.9582 55.8048 57.5036Z" fill="#101010"/>
<path d="M22.3868 48.3173C24.0835 47.8627 25.0903 46.1188 24.6357 44.4221C24.1811 42.7254 22.4372 41.7186 20.7405 42.1732C19.0439 42.6278 18.037 44.3718 18.4916 46.0684C18.9462 47.7651 20.6902 48.7719 22.3868 48.3173Z" fill="#101010"/>
<path d="M46.7657 23.7103C48.4624 23.2557 49.4693 21.5117 49.0146 19.815C48.56 18.1184 46.8161 17.1115 45.1194 17.5661C43.4228 18.0207 42.4159 19.7647 42.8705 21.4614C43.3251 23.158 45.0691 24.1649 46.7657 23.7103Z" fill="#101010"/>
<path fill-rule="evenodd" clip-rule="evenodd" d="M49.7352 27.3215C49.7352 27.3215 48.7722 27.0453 48.4772 26.5938C48.2452 26.237 47.8216 24.9018 47.7403 24.6511C47.4057 23.6307 48.4638 22.6644 48.4638 22.6644L44.4459 23.8196C44.4459 23.8196 45.8114 23.4035 46.3885 25.0133C46.4785 25.2612 46.6453 26.3751 46.7217 27.0642C46.8105 27.5537 46.1857 28.2236 46.1857 28.2236L49.7352 27.3215Z" fill="#101010"/>
<path fill-rule="evenodd" clip-rule="evenodd" d="M55.5267 51.3029C55.5267 51.3029 54.7786 51.2494 54.5814 50.619C54.4639 50.1805 54.4207 50.0369 54.295 49.55C54.2116 49.2916 54.1238 49.0163 54.0823 48.7562C53.819 47.5455 54.5039 47.0821 54.5039 47.0821L51.3911 47.8236C51.3911 47.8236 52.3105 47.9016 52.7534 49.0633C52.8476 49.3093 52.9457 49.7106 52.9982 49.9769C53.1093 50.4089 53.1177 50.4404 53.2358 50.8635C53.4358 51.5574 53.0038 51.8761 53.0038 51.8761L55.5267 51.3029Z" fill="#101010"/>
<path fill-rule="evenodd" clip-rule="evenodd" d="M24.8546 44.6372C24.8546 44.6372 24.2453 44.1188 25.3599 42.6085C25.9879 41.7574 26.8806 40.8407 27.8485 39.801C29.6161 37.9013 31.7917 35.7338 33.9543 33.5528C35.7802 31.7124 37.6055 29.8704 39.2661 28.2734C40.65 26.9432 41.9002 25.7633 42.9269 24.8724C43.1292 24.6972 43.3436 24.5669 43.5102 24.3988C44.5041 23.4032 45.6105 23.811 45.6105 23.811L42.6892 21.0187C42.6892 21.0187 42.9102 22.265 42.1957 23.0916C42.0415 23.2712 41.8992 23.4772 41.7275 23.6792C40.8424 24.7119 39.6694 25.9692 38.3491 27.3614C36.7607 29.0345 34.9333 30.8692 33.102 32.7066C30.9378 34.8817 28.7826 37.0726 26.8936 38.8526C25.861 39.8265 24.9413 40.7126 24.1028 41.3575C22.8778 42.2981 21.5374 42.0527 21.5374 42.0527L24.8546 44.6372Z" fill="#101010"/>
<path fill-rule="evenodd" clip-rule="evenodd" d="M23.4159 47.686C23.4159 47.686 23.7706 47.0786 25.702 47.3879C26.7445 47.5568 27.9902 47.8346 29.3713 48.1618C31.8973 48.7588 34.8592 49.5785 37.821 50.3802C40.3257 51.0557 42.7797 51.7704 44.9917 52.4247C46.8313 52.9703 50.1137 53.8276 50.343 53.8933C51.8411 54.3233 51.7488 54.9794 51.7488 54.9794L52.4965 52.3277C52.4965 52.3277 51.9621 52.9841 50.726 52.5844C50.4995 52.5113 47.2395 51.5973 45.3758 51.1373C43.1393 50.5846 40.6375 49.9021 38.1361 49.2211C35.1727 48.4137 32.2048 47.6244 29.7242 46.8629C28.3661 46.4465 27.1286 46.1113 26.1652 45.6759C24.2282 44.8017 24.7626 43.6535 24.7626 43.6535L23.4159 47.686Z" fill="#101010"/>
<path d="M100.974 23.0116H89.9048C90.2303 23.622 90.7187 24.5715 90.8408 24.775C91.0442 25.0802 91.4919 25.4532 92.4279 25.4532H95.7243C96.2127 25.4532 96.3754 25.7245 96.294 26.0297L87.9106 46.7492H98.5323C99.4683 46.7492 99.8753 46.4101 100.079 46.0709L101.015 44.3415H93.0791C92.6721 44.3415 92.4279 44.1041 92.55 43.6972L100.974 23.0116Z" fill="#101010"/>
<path d="M121.934 23.0116V46.2405C121.974 46.4101 122.096 46.7492 122.788 46.7492H124.864V23.9611C124.864 23.5542 124.538 23.0116 123.684 23.0116H121.934Z" fill="#101010"/>
<path d="M157.622 23.0116H145.983C145.495 23.0116 145.088 23.3507 145.088 23.7576V25.4193H149.198V46.2405C149.198 46.4101 149.32 46.7492 150.012 46.7492H152.088V25.9957C152.128 25.6906 152.413 25.4193 152.82 25.4193H155.099C156.035 25.4193 156.483 25.0802 156.646 24.775L157.622 23.0116Z" fill="#101010"/>
<path d="M185.335 46.7492H182.12L179.556 30.4042L176.992 46.7492H173.777L178.091 23.0116H179.678C180.899 23.0116 181.102 23.6559 181.224 24.3002L185.335 46.7492Z" fill="#101010"/>
<path d="M204.627 23.0116V46.7492H210.284C212.278 46.7492 213.865 45.4266 213.906 43.765V25.9957C213.865 24.3341 212.278 23.0116 210.284 23.0116H204.627ZM211.016 43.0868C211.016 44.0024 210.284 44.3415 209.47 44.3415H207.557V25.4532H209.47C210.284 25.4532 211.016 25.7923 211.016 26.674V43.0868Z" fill="#101010"/>
<path d="M239.421 44.3415V36.1012C239.421 35.796 239.747 35.5247 240.113 35.5247H241.334C242.27 35.5247 242.677 35.1856 242.881 34.8804C243.003 34.6769 243.491 33.6935 243.817 33.0831H239.421V26.0297C239.421 25.6905 239.706 25.4532 240.113 25.4532H242.474C243.41 25.4532 243.857 25.0802 244.02 24.775L244.997 23.0116H237.387C236.898 23.0116 236.532 23.3168 236.491 23.6898V46.7492H243.003C243.939 46.7492 244.386 46.4101 244.59 46.1049C244.712 45.9014 245.2 44.9519 245.526 44.3415H239.421Z" fill="#101010"/>
<path d="M269.619 44.3415V23.7576C269.619 23.3507 269.212 23.0455 268.724 23.0116H266.689V46.7492H273.689C274.625 46.7492 275.072 46.4101 275.276 46.1049C275.398 45.9014 275.886 44.9519 276.212 44.3415H269.619Z" fill="#101010"/>
<defs>
<linearGradient id="paint0_linear_226_4766" x1="52.7199" y1="10.4447" x2="-31.3226" y2="282.074" gradientUnits="userSpaceOnUse">
<stop stop-color="#FF8F00"/>
<stop offset="1" stop-color="#FE00FF"/>
</linearGradient>
<linearGradient id="paint1_linear_226_4766" x1="-88.922" y1="222.712" x2="155.665" y2="165.956" gradientUnits="userSpaceOnUse">
<stop stop-color="#FF8F00"/>
<stop offset="1" stop-color="#FE00FF"/>
</linearGradient>
<linearGradient id="paint2_linear_226_4766" x1="140.699" y1="258.682" x2="-60.5033" y2="84.4359" gradientUnits="userSpaceOnUse">
<stop stop-color="#FF8F00"/>
<stop offset="1" stop-color="#FE00FF"/>
</linearGradient>
<linearGradient id="paint3_linear_226_4766" x1="337.24" y1="76.8647" x2="-211.632" y2="272.898" gradientUnits="userSpaceOnUse">
<stop stop-color="#FF8F00"/>
<stop offset="1" stop-color="#FE00FF"/>
</linearGradient>
<linearGradient id="paint4_linear_226_4766" x1="284.881" y1="21.3773" x2="-19.587" y2="427.212" gradientUnits="userSpaceOnUse">
<stop stop-color="#FF8F00"/>
<stop offset="1" stop-color="#FE00FF"/>
</linearGradient>
<linearGradient id="paint5_linear_226_4766" x1="1.22555" y1="45.2447" x2="74.2498" y2="45.2447" gradientUnits="userSpaceOnUse">
<stop stop-color="#FF8F00"/>
<stop offset="1" stop-color="#FE00FF"/>
</linearGradient>
</defs>
</svg>
