<svg width="24" height="24" viewBox="0 0 24 24" fill="none" xmlns="http://www.w3.org/2000/svg">
<g clip-path="url(#clip0_1244_9417)">
<path d="M12 24C18.6274 24 24 18.6274 24 12C24 5.37258 18.6274 0 12 0C5.37258 0 0 5.37258 0 12C0 18.6274 5.37258 24 12 24Z" fill="#131314"/>
<path d="M7.76193 16.4596C8.26346 16.17 8.26434 15.2325 7.76379 14.3656C7.26326 13.4987 6.45091 13.0306 5.94935 13.3202C5.44779 13.6098 5.44696 14.5473 5.94748 15.4143C6.44801 16.2812 7.26037 16.7492 7.76193 16.4596Z" fill="#F26E7E"/>
<path d="M18.0202 15.4154C18.5207 14.5486 18.5199 13.611 18.0183 13.3214C17.5168 13.0318 16.7045 13.4998 16.2039 14.3668C15.7033 15.2337 15.7042 16.1712 16.2057 16.4608C16.7073 16.7504 17.5197 16.2824 18.0202 15.4154Z" fill="#8A3391"/>
<path d="M11.1799 18.4357C11.6815 18.1461 11.6823 17.2086 11.1818 16.3416C10.6812 15.4747 9.8689 15.0067 9.3673 15.2963C8.86578 15.5859 8.8649 16.5234 9.36546 17.3903C9.86602 18.2572 10.6783 18.7253 11.1799 18.4357Z" fill="#F26E7E"/>
<path d="M14.6029 17.3884C15.1034 16.5214 15.1026 15.5839 14.601 15.2943C14.0995 15.0048 13.2871 15.4728 12.7866 16.3397C12.2861 17.2066 12.2869 18.1441 12.7885 18.4337C13.29 18.7233 14.1024 18.2553 14.6029 17.3884Z" fill="#8A3391"/>
<path d="M11.9817 7.05731C12.9827 7.05731 13.7943 6.58781 13.7943 6.00864C13.7943 5.42947 12.9827 4.95996 11.9817 4.95996C10.9806 4.95996 10.1691 5.42947 10.1691 6.00864C10.1691 6.58781 10.9806 7.05731 11.9817 7.05731Z" fill="#F7BF2A"/>
<path d="M7.76071 12.5092C8.2623 12.2197 8.2631 11.2822 7.76258 10.4152C7.26205 9.54837 6.44969 9.08029 5.94813 9.36989C5.44657 9.65949 5.44573 10.597 5.94626 11.4639C6.4468 12.3308 7.25915 12.7988 7.76071 12.5092Z" fill="#F26E7E"/>
<path d="M8.5644 9.02812C9.56552 9.02812 10.377 8.5586 10.377 7.97947C10.377 7.4003 9.56552 6.93079 8.5644 6.93079C7.56336 6.93079 6.75183 7.4003 6.75183 7.97947C6.75183 8.5586 7.56336 9.02812 8.5644 9.02812Z" fill="#F7BF2A"/>
<path d="M18.0183 11.4661C18.5187 10.5992 18.5179 9.66166 18.0164 9.37206C17.5148 9.08254 16.7025 9.55054 16.2019 10.4174C15.7014 11.2844 15.7023 12.2219 16.2038 12.5115C16.7054 12.8011 17.5177 12.333 18.0183 11.4661Z" fill="#8A3391"/>
<path d="M15.4034 9.02812C16.4045 9.02812 17.216 8.5586 17.216 7.97947C17.216 7.4003 16.4045 6.93079 15.4034 6.93079C14.4024 6.93079 13.5909 7.4003 13.5909 7.97947C13.5909 8.5586 14.4024 9.02812 15.4034 9.02812Z" fill="#F7BF2A"/>
<path d="M11.1788 14.4853C11.6803 14.1957 11.6812 13.2582 11.1806 12.3913C10.6801 11.5244 9.86776 11.0564 9.36624 11.346C8.86464 11.6355 8.86384 12.5731 9.36432 13.44C9.86488 14.3069 10.6772 14.7749 11.1788 14.4853Z" fill="#F26E7E"/>
<path d="M14.601 13.4389C15.1015 12.572 15.1007 11.6344 14.5991 11.3449C14.0975 11.0553 13.2852 11.5233 12.7847 12.3902C12.2841 13.2571 12.285 14.1946 12.7865 14.4842C13.2881 14.7738 14.1004 14.3058 14.601 13.4389Z" fill="#8A3391"/>
<path d="M11.9817 11.0035C12.9827 11.0035 13.7943 10.534 13.7943 9.95477C13.7943 9.37565 12.9827 8.90613 11.9817 8.90613C10.9806 8.90613 10.1691 9.37565 10.1691 9.95477C10.1691 10.534 10.9806 11.0035 11.9817 11.0035Z" fill="#F7BF2A"/>
</g>
<defs>
<clipPath id="clip0_1244_9417">
<rect width="24" height="24" fill="white"/>
</clipPath>
</defs>
</svg>
