<svg width="636" height="600" viewBox="0 0 636 600" fill="none" xmlns="http://www.w3.org/2000/svg">
<g filter="url(#filter0_d_135_1656)">
<rect x="36" y="30" width="564" height="540" rx="12" fill="white"/>
<rect x="76" y="70" width="232" height="220" rx="12" fill="#FFF0F2"/>
<path d="M139.34 234L134.642 221.4H132.752L128.054 234H129.836L130.862 231.174H136.532L137.558 234H139.34ZM133.688 223.398L135.956 229.608H131.438L133.688 223.398ZM146.787 229.77C146.787 231.786 145.743 232.74 144.177 232.74C142.791 232.74 141.945 231.894 141.945 230.436V225H140.379V230.526C140.379 232.812 141.765 234.234 143.871 234.234C145.185 234.234 146.157 233.73 146.787 232.704V234H148.353V225H146.787V229.77ZM155.633 225H153.239V222.48L151.673 222.948V225H149.891V226.512H151.673V231.39C151.673 233.622 152.897 234.36 155.633 234V232.596C154.031 232.668 153.239 232.776 153.239 231.39V226.512H155.633V225ZM164.626 232.866C165.544 231.948 166.012 230.832 166.012 229.5C166.012 228.168 165.544 227.052 164.626 226.134C163.708 225.216 162.574 224.766 161.26 224.766C159.946 224.766 158.812 225.216 157.894 226.134C156.976 227.052 156.526 228.168 156.526 229.5C156.526 230.832 156.976 231.948 157.894 232.866C158.812 233.784 159.946 234.234 161.26 234.234C162.574 234.234 163.708 233.784 164.626 232.866ZM161.26 232.704C160.378 232.704 159.622 232.398 159.01 231.786C158.398 231.174 158.092 230.418 158.092 229.5C158.092 228.582 158.398 227.826 159.01 227.214C159.622 226.602 160.378 226.296 161.26 226.296C162.16 226.296 162.916 226.602 163.528 227.214C164.14 227.826 164.446 228.582 164.446 229.5C164.446 230.418 164.14 231.174 163.528 231.786C162.916 232.398 162.16 232.704 161.26 232.704ZM177.578 224.766C176.318 224.766 175.382 225.27 174.752 226.296C174.194 225.27 173.312 224.766 172.106 224.766C170.936 224.766 170.036 225.252 169.424 226.206V225H167.858V234H169.424V228.996C169.424 227.178 170.414 226.26 171.728 226.26C172.898 226.26 173.636 227.07 173.636 228.456V234H175.202V228.996C175.202 227.142 176.066 226.26 177.416 226.26C178.622 226.26 179.396 227.07 179.396 228.456V234H180.962V228.402C180.962 226.17 179.594 224.766 177.578 224.766ZM190.585 226.548C189.811 225.36 188.677 224.766 187.183 224.766C185.923 224.766 184.843 225.234 183.961 226.152C183.079 227.07 182.629 228.186 182.629 229.5C182.629 230.814 183.079 231.948 183.961 232.866C184.843 233.784 185.923 234.234 187.183 234.234C188.677 234.234 189.811 233.64 190.585 232.452V234H192.151V225H190.585V226.548ZM187.381 232.722C186.481 232.722 185.725 232.416 185.113 231.804C184.501 231.174 184.195 230.418 184.195 229.5C184.195 228.582 184.501 227.826 185.113 227.214C185.725 226.584 186.481 226.278 187.381 226.278C188.299 226.278 189.055 226.584 189.667 227.214C190.279 227.826 190.585 228.582 190.585 229.5C190.585 230.418 190.279 231.174 189.667 231.804C189.055 232.416 188.299 232.722 187.381 232.722ZM199.42 225H197.026V222.48L195.46 222.948V225H193.678V226.512H195.46V231.39C195.46 233.622 196.684 234.36 199.42 234V232.596C197.818 232.668 197.026 232.776 197.026 231.39V226.512H199.42V225ZM202.066 223.362C202.642 223.362 203.11 222.894 203.11 222.318C203.11 221.742 202.642 221.256 202.066 221.256C201.472 221.256 201.004 221.742 201.004 222.318C201.004 222.894 201.472 223.362 202.066 223.362ZM202.84 234V225H201.274V234H202.84ZM212.825 232.866C213.743 231.948 214.211 230.832 214.211 229.5C214.211 228.168 213.743 227.052 212.825 226.134C211.907 225.216 210.773 224.766 209.459 224.766C208.145 224.766 207.011 225.216 206.093 226.134C205.175 227.052 204.725 228.168 204.725 229.5C204.725 230.832 205.175 231.948 206.093 232.866C207.011 233.784 208.145 234.234 209.459 234.234C210.773 234.234 211.907 233.784 212.825 232.866ZM209.459 232.704C208.577 232.704 207.821 232.398 207.209 231.786C206.597 231.174 206.291 230.418 206.291 229.5C206.291 228.582 206.597 227.826 207.209 227.214C207.821 226.602 208.577 226.296 209.459 226.296C210.359 226.296 211.115 226.602 211.727 227.214C212.339 227.826 212.645 228.582 212.645 229.5C212.645 230.418 212.339 231.174 211.727 231.786C211.115 232.398 210.359 232.704 209.459 232.704ZM220.539 224.766C219.225 224.766 218.253 225.27 217.623 226.296V225H216.057V234H217.623V229.23C217.623 227.214 218.667 226.26 220.233 226.26C221.619 226.26 222.465 227.106 222.465 228.564V234H224.031V228.474C224.031 226.188 222.645 224.766 220.539 224.766ZM240.959 234L236.261 221.4H234.371L229.673 234H231.455L232.481 231.174H238.151L239.177 234H240.959ZM235.307 223.398L237.575 229.608H233.057L235.307 223.398ZM242.446 221.4V234H244.12V229.5H247.018C248.188 229.5 249.142 229.104 249.916 228.33C250.69 227.556 251.086 226.584 251.086 225.45C251.086 224.298 250.69 223.344 249.916 222.57C249.142 221.796 248.188 221.4 247.018 221.4H242.446ZM244.12 227.934V222.966H247.018C248.404 222.966 249.43 224.01 249.43 225.45C249.43 226.152 249.196 226.746 248.746 227.232C248.296 227.7 247.72 227.934 247.018 227.934H244.12ZM253.063 234H254.737V221.4H253.063V234ZM158.282 248.4V261H159.956V256.5H162.854C164.024 256.5 164.978 256.104 165.752 255.33C166.526 254.556 166.922 253.584 166.922 252.45C166.922 251.298 166.526 250.344 165.752 249.57C164.978 248.796 164.024 248.4 162.854 248.4H158.282ZM159.956 254.934V249.966H162.854C164.24 249.966 165.266 251.01 165.266 252.45C165.266 253.152 165.032 253.746 164.582 254.232C164.132 254.7 163.556 254.934 162.854 254.934H159.956ZM170.109 252H168.543V261H170.109V256.23C170.109 255.24 170.379 254.538 170.937 254.088C171.495 253.638 172.143 253.44 172.917 253.476V251.838C171.567 251.838 170.631 252.396 170.109 253.512V252ZM181.554 259.866C182.472 258.948 182.94 257.832 182.94 256.5C182.94 255.168 182.472 254.052 181.554 253.134C180.636 252.216 179.502 251.766 178.188 251.766C176.874 251.766 175.74 252.216 174.822 253.134C173.904 254.052 173.454 255.168 173.454 256.5C173.454 257.832 173.904 258.948 174.822 259.866C175.74 260.784 176.874 261.234 178.188 261.234C179.502 261.234 180.636 260.784 181.554 259.866ZM178.188 259.704C177.306 259.704 176.55 259.398 175.938 258.786C175.326 258.174 175.02 257.418 175.02 256.5C175.02 255.582 175.326 254.826 175.938 254.214C176.55 253.602 177.306 253.296 178.188 253.296C179.088 253.296 179.844 253.602 180.456 254.214C181.068 254.826 181.374 255.582 181.374 256.5C181.374 257.418 181.068 258.174 180.456 258.786C179.844 259.398 179.088 259.704 178.188 259.704ZM192.256 253.548C191.482 252.36 190.348 251.766 188.872 251.766C187.594 251.766 186.496 252.216 185.614 253.134C184.732 254.034 184.282 255.132 184.282 256.446C184.282 257.76 184.732 258.858 185.614 259.776C186.496 260.694 187.594 261.144 188.872 261.144C190.33 261.144 191.464 260.55 192.256 259.344V260.622C192.256 262.332 191.122 263.376 189.25 263.376C187.792 263.376 186.802 262.872 186.316 261.864L184.948 262.638C185.686 264.06 187.198 264.834 189.214 264.834C190.474 264.834 191.554 264.456 192.454 263.718C193.354 262.98 193.804 261.954 193.804 260.622V252H192.256V253.548ZM192.256 256.446C192.256 257.364 191.95 258.12 191.338 258.732C190.726 259.344 189.97 259.65 189.052 259.65C188.134 259.65 187.378 259.344 186.766 258.732C186.154 258.12 185.848 257.364 185.848 256.446C185.848 255.546 186.154 254.79 186.766 254.178C187.378 253.566 188.134 253.26 189.052 253.26C189.97 253.26 190.726 253.566 191.338 254.178C191.95 254.79 192.256 255.546 192.256 256.446ZM197.742 252H196.176V261H197.742V256.23C197.742 255.24 198.012 254.538 198.57 254.088C199.128 253.638 199.776 253.44 200.55 253.476V251.838C199.2 251.838 198.264 252.396 197.742 253.512V252ZM209.042 253.548C208.268 252.36 207.134 251.766 205.64 251.766C204.38 251.766 203.3 252.234 202.418 253.152C201.536 254.07 201.086 255.186 201.086 256.5C201.086 257.814 201.536 258.948 202.418 259.866C203.3 260.784 204.38 261.234 205.64 261.234C207.134 261.234 208.268 260.64 209.042 259.452V261H210.608V252H209.042V253.548ZM205.838 259.722C204.938 259.722 204.182 259.416 203.57 258.804C202.958 258.174 202.652 257.418 202.652 256.5C202.652 255.582 202.958 254.826 203.57 254.214C204.182 253.584 204.938 253.278 205.838 253.278C206.756 253.278 207.512 253.584 208.124 254.214C208.736 254.826 209.042 255.582 209.042 256.5C209.042 257.418 208.736 258.174 208.124 258.804C207.512 259.416 206.756 259.722 205.838 259.722ZM222.701 251.766C221.441 251.766 220.505 252.27 219.875 253.296C219.317 252.27 218.435 251.766 217.229 251.766C216.059 251.766 215.159 252.252 214.547 253.206V252H212.981V261H214.547V255.996C214.547 254.178 215.537 253.26 216.851 253.26C218.021 253.26 218.759 254.07 218.759 255.456V261H220.325V255.996C220.325 254.142 221.189 253.26 222.539 253.26C223.745 253.26 224.519 254.07 224.519 255.456V261H226.085V255.402C226.085 253.17 224.717 251.766 222.701 251.766Z" fill="#231F20"/>
<rect x="328" y="70" width="232" height="220" rx="12" fill="#F5EBF5"/>
<path d="M352.775 234H354.449V221.4H352.775V234ZM361.472 224.766C360.158 224.766 359.186 225.27 358.556 226.296V225H356.99V234H358.556V229.23C358.556 227.214 359.6 226.26 361.166 226.26C362.552 226.26 363.398 227.106 363.398 228.564V234H364.964V228.474C364.964 226.188 363.578 224.766 361.472 224.766ZM371.776 221.166C369.238 221.004 367.834 222.3 367.834 224.73V225H366.394V226.512H367.834V234H369.4V226.512H371.776V225H369.4V224.73C369.4 223.236 370.192 222.552 371.776 222.678V221.166ZM374.534 225H372.968V234H374.534V229.23C374.534 228.24 374.804 227.538 375.362 227.088C375.92 226.638 376.568 226.44 377.342 226.476V224.838C375.992 224.838 375.056 225.396 374.534 226.512V225ZM385.834 226.548C385.06 225.36 383.926 224.766 382.432 224.766C381.172 224.766 380.092 225.234 379.21 226.152C378.328 227.07 377.878 228.186 377.878 229.5C377.878 230.814 378.328 231.948 379.21 232.866C380.092 233.784 381.172 234.234 382.432 234.234C383.926 234.234 385.06 233.64 385.834 232.452V234H387.4V225H385.834V226.548ZM382.63 232.722C381.73 232.722 380.974 232.416 380.362 231.804C379.75 231.174 379.444 230.418 379.444 229.5C379.444 228.582 379.75 227.826 380.362 227.214C380.974 226.584 381.73 226.278 382.63 226.278C383.548 226.278 384.304 226.584 384.916 227.214C385.528 227.826 385.834 228.582 385.834 229.5C385.834 230.418 385.528 231.174 384.916 231.804C384.304 232.416 383.548 232.722 382.63 232.722ZM391.105 227.43C391.105 226.656 391.825 226.224 392.707 226.224C393.661 226.224 394.309 226.602 394.633 227.376L395.947 226.638C395.371 225.468 394.165 224.766 392.707 224.766C391.789 224.766 391.033 225.018 390.421 225.522C389.827 226.026 389.521 226.674 389.521 227.448C389.521 229.356 391.357 229.824 392.779 230.202C393.769 230.436 394.561 230.832 394.561 231.534C394.561 232.38 393.805 232.758 392.779 232.758C391.681 232.758 390.835 232.218 390.547 231.354L389.197 232.128C389.719 233.406 391.033 234.234 392.779 234.234C393.769 234.234 394.561 233.982 395.191 233.496C395.821 233.01 396.145 232.344 396.145 231.534C396.163 229.608 394.291 229.086 392.887 228.78C391.897 228.51 391.105 228.132 391.105 227.43ZM402.544 225H400.15V222.48L398.584 222.948V225H396.802V226.512H398.584V231.39C398.584 233.622 399.808 234.36 402.544 234V232.596C400.942 232.668 400.15 232.776 400.15 231.39V226.512H402.544V225ZM406.017 225H404.451V234H406.017V229.23C406.017 228.24 406.287 227.538 406.845 227.088C407.403 226.638 408.051 226.44 408.825 226.476V224.838C407.475 224.838 406.539 225.396 406.017 226.512V225ZM416.567 229.77C416.567 231.786 415.523 232.74 413.957 232.74C412.571 232.74 411.725 231.894 411.725 230.436V225H410.159V230.526C410.159 232.812 411.545 234.234 413.651 234.234C414.965 234.234 415.937 233.73 416.567 232.704V234H418.133V225H416.567V229.77ZM424.747 234.234C426.493 234.234 428.023 233.316 428.797 231.894L427.465 231.12C426.961 232.074 425.953 232.686 424.747 232.686C423.847 232.686 423.091 232.38 422.479 231.768C421.885 231.156 421.579 230.4 421.579 229.5C421.579 228.582 421.885 227.826 422.479 227.214C423.091 226.602 423.847 226.296 424.747 226.296C425.953 226.296 426.961 226.926 427.411 227.88L428.725 227.124C428.023 225.684 426.529 224.766 424.747 224.766C423.397 224.766 422.263 225.216 421.363 226.134C420.463 227.034 420.013 228.15 420.013 229.5C420.013 230.85 420.463 231.966 421.363 232.884C422.263 233.784 423.397 234.234 424.747 234.234ZM435.239 225H432.845V222.48L431.279 222.948V225H429.497V226.512H431.279V231.39C431.279 233.622 432.503 234.36 435.239 234V232.596C433.637 232.668 432.845 232.776 432.845 231.39V226.512H435.239V225ZM443.356 229.77C443.356 231.786 442.312 232.74 440.746 232.74C439.36 232.74 438.514 231.894 438.514 230.436V225H436.948V230.526C436.948 232.812 438.334 234.234 440.44 234.234C441.754 234.234 442.726 233.73 443.356 232.704V234H444.922V225H443.356V229.77ZM448.872 225H447.306V234H448.872V229.23C448.872 228.24 449.142 227.538 449.7 227.088C450.258 226.638 450.906 226.44 451.68 226.476V224.838C450.33 224.838 449.394 225.396 448.872 226.512V225ZM461.36 230.22C461.396 229.986 461.414 229.752 461.414 229.518C461.414 228.204 461 227.088 460.154 226.17C459.326 225.234 458.246 224.766 456.932 224.766C455.546 224.766 454.412 225.216 453.53 226.116C452.648 227.016 452.216 228.15 452.216 229.5C452.216 230.868 452.666 232.002 453.548 232.902C454.448 233.784 455.618 234.234 457.04 234.234C458.804 234.234 460.118 233.55 461 232.2L459.668 231.444C459.128 232.326 458.264 232.758 457.076 232.758C455.366 232.758 454.124 231.822 453.818 230.22H461.36ZM456.932 226.242C458.372 226.242 459.56 227.142 459.83 228.852H453.818C454.088 227.268 455.258 226.242 456.932 226.242ZM475.166 226.548C474.392 225.36 473.258 224.766 471.764 224.766C470.504 224.766 469.424 225.234 468.542 226.152C467.66 227.07 467.21 228.186 467.21 229.5C467.21 230.814 467.66 231.948 468.542 232.866C469.424 233.784 470.504 234.234 471.764 234.234C473.258 234.234 474.392 233.64 475.166 232.452V234H476.732V225H475.166V226.548ZM471.962 232.722C471.062 232.722 470.306 232.416 469.694 231.804C469.082 231.174 468.776 230.418 468.776 229.5C468.776 228.582 469.082 227.826 469.694 227.214C470.306 226.584 471.062 226.278 471.962 226.278C472.88 226.278 473.636 226.584 474.248 227.214C474.86 227.826 475.166 228.582 475.166 229.5C475.166 230.418 474.86 231.174 474.248 231.804C473.636 232.416 472.88 232.722 471.962 232.722ZM480.437 227.43C480.437 226.656 481.157 226.224 482.039 226.224C482.993 226.224 483.641 226.602 483.965 227.376L485.279 226.638C484.703 225.468 483.497 224.766 482.039 224.766C481.121 224.766 480.365 225.018 479.753 225.522C479.159 226.026 478.853 226.674 478.853 227.448C478.853 229.356 480.689 229.824 482.111 230.202C483.101 230.436 483.893 230.832 483.893 231.534C483.893 232.38 483.137 232.758 482.111 232.758C481.013 232.758 480.167 232.218 479.879 231.354L478.529 232.128C479.051 233.406 480.365 234.234 482.111 234.234C483.101 234.234 483.893 233.982 484.523 233.496C485.153 233.01 485.477 232.344 485.477 231.534C485.495 229.608 483.623 229.086 482.219 228.78C481.229 228.51 480.437 228.132 480.437 227.43ZM497.916 234.234C499.068 234.234 500.13 233.964 501.102 233.406C502.074 232.848 502.83 232.092 503.352 231.156L501.894 230.328C501.174 231.696 499.644 232.596 497.916 232.596C496.458 232.596 495.27 232.128 494.352 231.192C493.434 230.256 492.984 229.086 492.984 227.7C492.984 226.296 493.434 225.126 494.352 224.19C495.27 223.254 496.458 222.786 497.916 222.786C499.644 222.786 501.174 223.686 501.894 225.072L503.352 224.226C502.272 222.354 500.22 221.166 497.916 221.166C496.008 221.166 494.424 221.796 493.182 223.056C491.94 224.316 491.328 225.864 491.328 227.7C491.328 229.536 491.94 231.084 493.182 232.344C494.424 233.604 496.008 234.234 497.916 234.234ZM512.646 232.866C513.564 231.948 514.032 230.832 514.032 229.5C514.032 228.168 513.564 227.052 512.646 226.134C511.728 225.216 510.594 224.766 509.28 224.766C507.966 224.766 506.832 225.216 505.914 226.134C504.996 227.052 504.546 228.168 504.546 229.5C504.546 230.832 504.996 231.948 505.914 232.866C506.832 233.784 507.966 234.234 509.28 234.234C510.594 234.234 511.728 233.784 512.646 232.866ZM509.28 232.704C508.398 232.704 507.642 232.398 507.03 231.786C506.418 231.174 506.112 230.418 506.112 229.5C506.112 228.582 506.418 227.826 507.03 227.214C507.642 226.602 508.398 226.296 509.28 226.296C510.18 226.296 510.936 226.602 511.548 227.214C512.16 227.826 512.466 228.582 512.466 229.5C512.466 230.418 512.16 231.174 511.548 231.786C510.936 232.398 510.18 232.704 509.28 232.704ZM523.33 226.548C522.556 225.36 521.422 224.766 519.928 224.766C518.668 224.766 517.588 225.234 516.706 226.152C515.824 227.07 515.374 228.186 515.374 229.5C515.374 230.814 515.824 231.948 516.706 232.866C517.588 233.784 518.668 234.234 519.928 234.234C521.422 234.234 522.556 233.64 523.33 232.452V234H524.896V221.4H523.33V226.548ZM520.126 232.722C519.226 232.722 518.47 232.416 517.858 231.804C517.246 231.174 516.94 230.418 516.94 229.5C516.94 228.582 517.246 227.826 517.858 227.214C518.47 226.584 519.226 226.278 520.126 226.278C521.044 226.278 521.8 226.584 522.412 227.214C523.024 227.826 523.33 228.582 523.33 229.5C523.33 230.418 523.024 231.174 522.412 231.804C521.8 232.416 521.044 232.722 520.126 232.722ZM535.909 230.22C535.945 229.986 535.963 229.752 535.963 229.518C535.963 228.204 535.549 227.088 534.703 226.17C533.875 225.234 532.795 224.766 531.481 224.766C530.095 224.766 528.961 225.216 528.079 226.116C527.197 227.016 526.765 228.15 526.765 229.5C526.765 230.868 527.215 232.002 528.097 232.902C528.997 233.784 530.167 234.234 531.589 234.234C533.353 234.234 534.667 233.55 535.549 232.2L534.217 231.444C533.677 232.326 532.813 232.758 531.625 232.758C529.915 232.758 528.673 231.822 528.367 230.22H535.909ZM531.481 226.242C532.921 226.242 534.109 227.142 534.379 228.852H528.367C528.637 227.268 529.807 226.242 531.481 226.242ZM406.16 248.4V261H407.834V256.5H410.732C411.902 256.5 412.856 256.104 413.63 255.33C414.404 254.556 414.8 253.584 414.8 252.45C414.8 251.298 414.404 250.344 413.63 249.57C412.856 248.796 411.902 248.4 410.732 248.4H406.16ZM407.834 254.934V249.966H410.732C412.118 249.966 413.144 251.01 413.144 252.45C413.144 253.152 412.91 253.746 412.46 254.232C412.01 254.7 411.434 254.934 410.732 254.934H407.834ZM417.987 252H416.421V261H417.987V256.23C417.987 255.24 418.257 254.538 418.815 254.088C419.373 253.638 420.021 253.44 420.795 253.476V251.838C419.445 251.838 418.509 252.396 417.987 253.512V252ZM429.431 259.866C430.349 258.948 430.817 257.832 430.817 256.5C430.817 255.168 430.349 254.052 429.431 253.134C428.513 252.216 427.379 251.766 426.065 251.766C424.751 251.766 423.617 252.216 422.699 253.134C421.781 254.052 421.331 255.168 421.331 256.5C421.331 257.832 421.781 258.948 422.699 259.866C423.617 260.784 424.751 261.234 426.065 261.234C427.379 261.234 428.513 260.784 429.431 259.866ZM426.065 259.704C425.183 259.704 424.427 259.398 423.815 258.786C423.203 258.174 422.897 257.418 422.897 256.5C422.897 255.582 423.203 254.826 423.815 254.214C424.427 253.602 425.183 253.296 426.065 253.296C426.965 253.296 427.721 253.602 428.333 254.214C428.945 254.826 429.251 255.582 429.251 256.5C429.251 257.418 428.945 258.174 428.333 258.786C427.721 259.398 426.965 259.704 426.065 259.704ZM440.134 253.548C439.36 252.36 438.226 251.766 436.75 251.766C435.472 251.766 434.374 252.216 433.492 253.134C432.61 254.034 432.16 255.132 432.16 256.446C432.16 257.76 432.61 258.858 433.492 259.776C434.374 260.694 435.472 261.144 436.75 261.144C438.208 261.144 439.342 260.55 440.134 259.344V260.622C440.134 262.332 439 263.376 437.128 263.376C435.67 263.376 434.68 262.872 434.194 261.864L432.826 262.638C433.564 264.06 435.076 264.834 437.092 264.834C438.352 264.834 439.432 264.456 440.332 263.718C441.232 262.98 441.682 261.954 441.682 260.622V252H440.134V253.548ZM440.134 256.446C440.134 257.364 439.828 258.12 439.216 258.732C438.604 259.344 437.848 259.65 436.93 259.65C436.012 259.65 435.256 259.344 434.644 258.732C434.032 258.12 433.726 257.364 433.726 256.446C433.726 255.546 434.032 254.79 434.644 254.178C435.256 253.566 436.012 253.26 436.93 253.26C437.848 253.26 438.604 253.566 439.216 254.178C439.828 254.79 440.134 255.546 440.134 256.446ZM445.62 252H444.054V261H445.62V256.23C445.62 255.24 445.89 254.538 446.448 254.088C447.006 253.638 447.654 253.44 448.428 253.476V251.838C447.078 251.838 446.142 252.396 445.62 253.512V252ZM456.92 253.548C456.146 252.36 455.012 251.766 453.518 251.766C452.258 251.766 451.178 252.234 450.296 253.152C449.414 254.07 448.964 255.186 448.964 256.5C448.964 257.814 449.414 258.948 450.296 259.866C451.178 260.784 452.258 261.234 453.518 261.234C455.012 261.234 456.146 260.64 456.92 259.452V261H458.486V252H456.92V253.548ZM453.716 259.722C452.816 259.722 452.06 259.416 451.448 258.804C450.836 258.174 450.53 257.418 450.53 256.5C450.53 255.582 450.836 254.826 451.448 254.214C452.06 253.584 452.816 253.278 453.716 253.278C454.634 253.278 455.39 253.584 456.002 254.214C456.614 254.826 456.92 255.582 456.92 256.5C456.92 257.418 456.614 258.174 456.002 258.804C455.39 259.416 454.634 259.722 453.716 259.722ZM470.579 251.766C469.319 251.766 468.383 252.27 467.753 253.296C467.195 252.27 466.313 251.766 465.107 251.766C463.937 251.766 463.037 252.252 462.425 253.206V252H460.859V261H462.425V255.996C462.425 254.178 463.415 253.26 464.729 253.26C465.899 253.26 466.637 254.07 466.637 255.456V261H468.203V255.996C468.203 254.142 469.067 253.26 470.417 253.26C471.623 253.26 472.397 254.07 472.397 255.456V261H473.963V255.402C473.963 253.17 472.595 251.766 470.579 251.766ZM477.484 254.43C477.484 253.656 478.204 253.224 479.086 253.224C480.04 253.224 480.688 253.602 481.012 254.376L482.326 253.638C481.75 252.468 480.544 251.766 479.086 251.766C478.168 251.766 477.412 252.018 476.8 252.522C476.206 253.026 475.9 253.674 475.9 254.448C475.9 256.356 477.736 256.824 479.158 257.202C480.148 257.436 480.94 257.832 480.94 258.534C480.94 259.38 480.184 259.758 479.158 259.758C478.06 259.758 477.214 259.218 476.926 258.354L475.576 259.128C476.098 260.406 477.412 261.234 479.158 261.234C480.148 261.234 480.94 260.982 481.57 260.496C482.2 260.01 482.524 259.344 482.524 258.534C482.542 256.608 480.67 256.086 479.266 255.78C478.276 255.51 477.484 255.132 477.484 254.43Z" fill="#231F20"/>
<path d="M109.819 179.625C107.383 179.625 105.4 177.644 105.4 175.208V100.6C105.4 98.1624 107.381 96.181 109.819 96.181H113.368C113.384 96.1021 113.403 96.0349 113.426 95.9676L114.382 93.1606C114.869 91.7301 116.213 90.7686 117.725 90.7686H138.355C139.867 90.7686 141.21 91.7301 141.698 93.1606L142.655 95.9691C142.68 96.0407 142.698 96.1108 142.714 96.1824H232.51C234.946 96.1824 236.927 98.1638 236.927 100.601V175.209C236.927 177.645 234.946 179.627 232.51 179.627H109.822L109.819 179.625Z" fill="white"/>
<path d="M138.355 91.169C139.695 91.169 140.886 92.0209 141.319 93.2893L142.276 96.0977C142.331 96.2599 142.349 96.4206 142.376 96.5828H232.507C234.725 96.5828 236.524 98.3816 236.524 100.6V175.208C236.524 177.426 234.725 179.225 232.507 179.225H109.819C107.601 179.225 105.802 177.426 105.802 175.208V100.6C105.802 98.3801 107.601 96.5828 109.819 96.5828H113.704C113.732 96.4206 113.751 96.2599 113.805 96.0977L114.762 93.2893C115.195 92.0209 116.386 91.169 117.726 91.169H138.355ZM138.355 90.3668H117.726C116.042 90.3668 114.546 91.4379 114.002 93.0306L113.066 95.7791H109.819C107.161 95.7791 105 97.9418 105 100.598V175.207C105 177.865 107.163 180.026 109.819 180.026H232.507C235.165 180.026 237.326 177.863 237.326 175.207V100.598C237.326 97.9403 235.164 95.7791 232.507 95.7791H143.014L142.077 93.0306C141.533 91.4364 140.04 90.3668 138.355 90.3668Z" fill="black"/>
<path d="M155.5 107.146H129.382C128.233 107.146 127.302 108.078 127.302 109.227C127.302 110.376 128.233 111.308 129.382 111.308H155.5C156.649 111.308 157.581 110.376 157.581 109.227C157.581 108.078 156.649 107.146 155.5 107.146Z" fill="#F7BF2A"/>
<path d="M158.532 156.307H129.382C128.233 156.307 127.302 157.239 127.302 158.388C127.302 159.537 128.233 160.469 129.382 160.469H158.532C159.682 160.469 160.613 159.537 160.613 158.388C160.613 157.239 159.682 156.307 158.532 156.307Z" fill="#F7BF2A"/>
<path d="M218.581 156.307H212.131C210.982 156.307 210.051 157.239 210.051 158.388C210.051 159.537 210.982 160.469 212.131 160.469H218.581C219.73 160.469 220.662 159.537 220.662 158.388C220.662 157.239 219.73 156.307 218.581 156.307Z" fill="#F7BF2A"/>
<path d="M204.401 156.307H166.264C165.115 156.307 164.184 157.239 164.184 158.388C164.184 159.537 165.115 160.469 166.264 160.469H204.401C205.55 160.469 206.481 159.537 206.481 158.388C206.481 157.239 205.55 156.307 204.401 156.307Z" fill="#F7BF2A"/>
<path d="M148.853 139.92H129.13C128.12 139.92 127.302 140.738 127.302 141.748V142.253C127.302 143.263 128.12 144.081 129.13 144.081H148.853C149.863 144.081 150.681 143.263 150.681 142.253V141.748C150.681 140.738 149.863 139.92 148.853 139.92Z" fill="#805AC3"/>
<path d="M199.675 139.92H187.205C186.195 139.92 185.377 140.738 185.377 141.748V142.253C185.377 143.263 186.195 144.081 187.205 144.081H199.675C200.685 144.081 201.503 143.263 201.503 142.253V141.748C201.503 140.738 200.685 139.92 199.675 139.92Z" fill="#805AC3"/>
<path d="M181.044 139.92H155.014C154.004 139.92 153.186 140.738 153.186 141.748V142.253C153.186 143.263 154.004 144.081 155.014 144.081H181.044C182.054 144.081 182.872 143.263 182.872 142.253V141.748C182.872 140.738 182.054 139.92 181.044 139.92Z" fill="#805AC3"/>
<path d="M165.127 123.532H129.382C128.233 123.532 127.302 124.464 127.302 125.613C127.302 126.762 128.233 127.694 129.382 127.694H165.127C166.276 127.694 167.208 126.762 167.208 125.613C167.208 124.464 166.276 123.532 165.127 123.532Z" fill="#F26E7E"/>
<path d="M223.116 123.532H214.376C213.227 123.532 212.295 124.464 212.295 125.613C212.295 126.762 213.227 127.694 214.376 127.694H223.116C224.265 127.694 225.197 126.762 225.197 125.613C225.197 124.464 224.265 123.532 223.116 123.532Z" fill="#F26E7E"/>
<path d="M206.969 123.532H172.683C171.534 123.532 170.602 124.464 170.602 125.613C170.602 126.762 171.534 127.694 172.683 127.694H206.969C208.118 127.694 209.05 126.762 209.05 125.613C209.05 124.464 208.118 123.532 206.969 123.532Z" fill="#F26E7E"/>
<path d="M159.983 164.5H129.239C128.169 164.5 127.302 165.368 127.302 166.438V166.724C127.302 167.794 128.169 168.662 129.239 168.662H159.983C161.053 168.662 161.921 167.794 161.921 166.724V166.438C161.921 165.368 161.053 164.5 159.983 164.5Z" fill="#F7BF2A"/>
<path d="M196.285 164.5H166.805C165.735 164.5 164.867 165.368 164.867 166.438V166.724C164.867 167.794 165.735 168.662 166.805 168.662H196.285C197.355 168.662 198.222 167.794 198.222 166.724V166.438C198.222 165.368 197.355 164.5 196.285 164.5Z" fill="#F7BF2A"/>
<path d="M149.838 115.339H129.169C128.138 115.339 127.302 116.175 127.302 117.206V117.633C127.302 118.664 128.138 119.501 129.169 119.501H149.838C150.869 119.501 151.706 118.664 151.706 117.633V117.206C151.706 116.175 150.869 115.339 149.838 115.339Z" fill="#F7BF2A"/>
<path d="M216.657 115.339H190.003C188.853 115.339 187.922 116.271 187.922 117.42C187.922 118.569 188.853 119.501 190.003 119.501H216.657C217.806 119.501 218.737 118.569 218.737 117.42C218.737 116.271 217.806 115.339 216.657 115.339Z" fill="#F7BF2A"/>
<path d="M183.439 115.339H156.188C155.156 115.339 154.32 116.175 154.32 117.206V117.633C154.32 118.664 155.156 119.501 156.188 119.501H183.439C184.471 119.501 185.307 118.664 185.307 117.633V117.206C185.307 116.175 184.471 115.339 183.439 115.339Z" fill="#F7BF2A"/>
<path d="M144.503 148.114H128.943C128.036 148.114 127.302 148.849 127.302 149.755V150.635C127.302 151.541 128.036 152.276 128.943 152.276H144.503C145.409 152.276 146.144 151.541 146.144 150.635V149.755C146.144 148.849 145.409 148.114 144.503 148.114Z" fill="#805AC3"/>
<path d="M170.446 148.114H149.803C148.897 148.114 148.162 148.849 148.162 149.755V150.635C148.162 151.541 148.897 152.276 149.803 152.276H170.446C171.352 152.276 172.087 151.541 172.087 150.635V149.755C172.087 148.849 171.352 148.114 170.446 148.114Z" fill="#805AC3"/>
<path d="M149.838 131.727H129.169C128.138 131.727 127.302 132.563 127.302 133.594V134.021C127.302 135.052 128.138 135.888 129.169 135.888H149.838C150.869 135.888 151.706 135.052 151.706 134.021V133.594C151.706 132.563 150.869 131.727 149.838 131.727Z" fill="#F7BF2A"/>
<path d="M202.886 131.727H189.789C188.758 131.727 187.922 132.563 187.922 133.594V134.021C187.922 135.052 188.758 135.888 189.789 135.888H202.886C203.918 135.888 204.754 135.052 204.754 134.021V133.594C204.754 132.563 203.918 131.727 202.886 131.727Z" fill="#F7BF2A"/>
<path d="M183.439 131.727H156.188C155.156 131.727 154.32 132.563 154.32 133.594V134.021C154.32 135.052 155.156 135.888 156.188 135.888H183.439C184.471 135.888 185.307 135.052 185.307 134.021V133.594C185.307 132.563 184.471 131.727 183.439 131.727Z" fill="#F7BF2A"/>
<path d="M120.744 107.146H117.499C116.349 107.146 115.418 108.078 115.418 109.227C115.418 110.376 116.349 111.308 117.499 111.308H120.744C121.893 111.308 122.825 110.376 122.825 109.227C122.825 108.078 121.893 107.146 120.744 107.146Z" fill="#F7BF2A"/>
<path d="M120.744 115.339H117.499C116.349 115.339 115.418 116.271 115.418 117.42C115.418 118.569 116.349 119.501 117.499 119.501H120.744C121.893 119.501 122.825 118.569 122.825 117.42C122.825 116.271 121.893 115.339 120.744 115.339Z" fill="#F7BF2A"/>
<path d="M120.744 123.532H117.499C116.349 123.532 115.418 124.464 115.418 125.613C115.418 126.762 116.349 127.694 117.499 127.694H120.744C121.893 127.694 122.825 126.762 122.825 125.613C122.825 124.464 121.893 123.532 120.744 123.532Z" fill="#F26E7E"/>
<path d="M120.744 131.727H117.499C116.349 131.727 115.418 132.658 115.418 133.807C115.418 134.957 116.349 135.888 117.499 135.888H120.744C121.893 135.888 122.825 134.957 122.825 133.807C122.825 132.658 121.893 131.727 120.744 131.727Z" fill="#F7BF2A"/>
<path d="M120.744 139.92H117.499C116.349 139.92 115.418 140.851 115.418 142C115.418 143.15 116.349 144.081 117.499 144.081H120.744C121.893 144.081 122.825 143.15 122.825 142C122.825 140.851 121.893 139.92 120.744 139.92Z" fill="#805AC3"/>
<path d="M120.744 148.114H117.499C116.349 148.114 115.418 149.046 115.418 150.195C115.418 151.344 116.349 152.276 117.499 152.276H120.744C121.893 152.276 122.825 151.344 122.825 150.195C122.825 149.046 121.893 148.114 120.744 148.114Z" fill="#805AC3"/>
<path d="M120.744 155.973H117.499C116.349 155.973 115.418 156.904 115.418 158.053C115.418 159.203 116.349 160.134 117.499 160.134H120.744C121.893 160.134 122.825 159.203 122.825 158.053C122.825 156.904 121.893 155.973 120.744 155.973Z" fill="#F7BF2A"/>
<path d="M120.744 164.5H117.499C116.349 164.5 115.418 165.432 115.418 166.581C115.418 167.73 116.349 168.662 117.499 168.662H120.744C121.893 168.662 122.825 167.73 122.825 166.581C122.825 165.432 121.893 164.5 120.744 164.5Z" fill="#F7BF2A"/>
<path fill-rule="evenodd" clip-rule="evenodd" d="M373.116 180H501.881C507.216 180 512.335 177.773 516.11 173.812C519.879 169.846 522 164.469 522 158.864C522 153.259 519.879 147.882 516.11 143.916C513.958 141.658 511.368 139.964 508.557 138.924C506.866 138.303 505.772 136.577 505.872 134.7C505.892 134.303 505.905 133.902 505.905 133.5C505.905 121.833 496.891 112.364 485.786 112.364C484.048 112.364 482.362 112.596 480.753 113.032C478.982 113.509 477.119 112.672 476.229 110.99C468.676 96.6883 454.158 87 437.5 87C420.842 87 406.322 96.6883 398.771 110.99C397.881 112.672 396.018 113.509 394.247 113.032C392.638 112.596 390.952 112.364 389.214 112.364C378.109 112.364 369.095 121.833 369.095 133.5C369.095 133.902 369.107 134.303 369.128 134.7C369.228 136.577 368.134 138.303 366.443 138.924C363.632 139.964 361.044 141.658 358.89 143.916C355.121 147.882 353 153.259 353 158.864C353 164.469 355.121 169.846 358.89 173.812C362.665 177.773 367.784 180 373.119 180H373.116Z" fill="#FCF7FC"/>
<path d="M451.731 107.288H510.054C511.612 107.288 512.877 108.553 512.877 110.111V167.396C512.877 168.954 511.613 170.218 510.055 170.218H451.729C450.172 170.218 448.908 168.954 448.908 167.396V110.111C448.908 108.553 450.173 107.288 451.731 107.288Z" fill="white"/>
<path d="M510.054 107.688C511.391 107.688 512.475 108.772 512.475 110.109V167.393C512.475 168.73 511.391 169.815 510.054 169.815H451.731C450.394 169.815 449.31 168.73 449.31 167.393V110.109C449.31 108.772 450.394 107.688 451.731 107.688H510.054ZM510.054 106.886H451.731C449.954 106.886 448.507 108.332 448.507 110.109V167.393C448.507 169.17 449.954 170.617 451.731 170.617H510.054C511.831 170.617 513.277 169.17 513.277 167.393V110.109C513.277 108.332 511.831 106.886 510.054 106.886Z" fill="black"/>
<path d="M459.632 117.455H457.194C456.33 117.455 455.629 118.155 455.629 119.019C455.629 119.883 456.33 120.583 457.194 120.583H459.632C460.496 120.583 461.197 119.883 461.197 119.019C461.197 118.155 460.496 117.455 459.632 117.455Z" fill="#805AC3"/>
<path d="M459.632 123.615H457.194C456.33 123.615 455.629 124.316 455.629 125.179C455.629 126.043 456.33 126.744 457.194 126.744H459.632C460.496 126.744 461.197 126.043 461.197 125.179C461.197 124.316 460.496 123.615 459.632 123.615Z" fill="#805AC3"/>
<path d="M459.632 129.774H457.194C456.33 129.774 455.629 130.475 455.629 131.338C455.629 132.202 456.33 132.903 457.194 132.903H459.632C460.496 132.903 461.197 132.202 461.197 131.338C461.197 130.475 460.496 129.774 459.632 129.774Z" fill="#805AC3"/>
<path d="M459.632 135.935H457.194C456.33 135.935 455.629 136.635 455.629 137.499C455.629 138.363 456.33 139.063 457.194 139.063H459.632C460.496 139.063 461.197 138.363 461.197 137.499C461.197 136.635 460.496 135.935 459.632 135.935Z" fill="#805AC3"/>
<path d="M459.632 142.094H457.194C456.33 142.094 455.629 142.794 455.629 143.658C455.629 144.522 456.33 145.222 457.194 145.222H459.632C460.496 145.222 461.197 144.522 461.197 143.658C461.197 142.794 460.496 142.094 459.632 142.094Z" fill="#805AC3"/>
<path d="M459.632 148.253H457.194C456.33 148.253 455.629 148.953 455.629 149.817C455.629 150.681 456.33 151.381 457.194 151.381H459.632C460.496 151.381 461.197 150.681 461.197 149.817C461.197 148.953 460.496 148.253 459.632 148.253Z" fill="#805AC3"/>
<path d="M459.632 154.16H457.194C456.33 154.16 455.629 154.861 455.629 155.725C455.629 156.589 456.33 157.289 457.194 157.289H459.632C460.496 157.289 461.197 156.589 461.197 155.725C461.197 154.861 460.496 154.16 459.632 154.16Z" fill="#805AC3"/>
<path d="M459.632 160.572H457.194C456.33 160.572 455.629 161.273 455.629 162.137C455.629 163.001 456.33 163.701 457.194 163.701H459.632C460.496 163.701 461.197 163.001 461.197 162.137C461.197 161.273 460.496 160.572 459.632 160.572Z" fill="#805AC3"/>
<path d="M475.673 135.935H466.129C465.264 135.935 464.563 136.635 464.563 137.499C464.563 138.363 465.264 139.063 466.129 139.063H475.673C476.537 139.063 477.238 138.363 477.238 137.499C477.238 136.635 476.537 135.935 475.673 135.935Z" fill="#805AC3"/>
<path d="M492.437 135.935H480.237C479.373 135.935 478.672 136.635 478.672 137.499C478.672 138.363 479.373 139.063 480.237 139.063H492.437C493.301 139.063 494.002 138.363 494.002 137.499C494.002 136.635 493.301 135.935 492.437 135.935Z" fill="#805AC3"/>
<path d="M479.484 129.774H466.129C465.264 129.774 464.563 130.475 464.563 131.338C464.563 132.202 465.264 132.903 466.129 132.903H479.484C480.348 132.903 481.049 132.202 481.049 131.338C481.049 130.475 480.348 129.774 479.484 129.774Z" fill="#805AC3"/>
<path d="M500.803 129.774H483.994C483.13 129.774 482.429 130.475 482.429 131.338C482.429 132.202 483.13 132.903 483.994 132.903H500.803C501.667 132.903 502.368 132.202 502.368 131.338C502.368 130.475 501.667 129.774 500.803 129.774Z" fill="#805AC3"/>
<path d="M475.271 123.615H466.129C465.264 123.615 464.563 124.316 464.563 125.179C464.563 126.043 465.264 126.744 466.129 126.744H475.271C476.136 126.744 476.836 126.043 476.836 125.179C476.836 124.316 476.136 123.615 475.271 123.615Z" fill="#805AC3"/>
<path d="M480.865 117.455H466.129C465.264 117.455 464.563 118.155 464.563 119.019C464.563 119.883 465.264 120.583 466.129 120.583H480.865C481.729 120.583 482.43 119.883 482.43 119.019C482.43 118.155 481.729 117.455 480.865 117.455Z" fill="#805AC3"/>
<path d="M491.504 123.615H479.791C478.926 123.615 478.226 124.316 478.226 125.179C478.226 126.043 478.926 126.744 479.791 126.744H491.504C492.368 126.744 493.069 126.043 493.069 125.179C493.069 124.316 492.368 123.615 491.504 123.615Z" fill="#805AC3"/>
<path d="M504.591 135.935H497.002C496.138 135.935 495.438 136.635 495.438 137.499C495.438 138.363 496.138 139.063 497.002 139.063H504.591C505.455 139.063 506.155 138.363 506.155 137.499C506.155 136.635 505.455 135.935 504.591 135.935Z" fill="#805AC3"/>
<path d="M475.673 154.16H466.129C465.264 154.16 464.563 154.861 464.563 155.725C464.563 156.589 465.264 157.289 466.129 157.289H475.673C476.537 157.289 477.238 156.589 477.238 155.725C477.238 154.861 476.537 154.16 475.673 154.16Z" fill="#805AC3"/>
<path d="M492.437 154.16H480.237C479.373 154.16 478.672 154.861 478.672 155.725C478.672 156.589 479.373 157.289 480.237 157.289H492.437C493.301 157.289 494.002 156.589 494.002 155.725C494.002 154.861 493.301 154.16 492.437 154.16Z" fill="#805AC3"/>
<path d="M504.591 154.16H497.002C496.138 154.16 495.438 154.861 495.438 155.725C495.438 156.589 496.138 157.289 497.002 157.289H504.591C505.455 157.289 506.155 156.589 506.155 155.725C506.155 154.861 505.455 154.16 504.591 154.16Z" fill="#805AC3"/>
<path d="M474.224 142.094H466.129C465.264 142.094 464.563 142.794 464.563 143.658C464.563 144.522 465.264 145.222 466.129 145.222H474.224C475.088 145.222 475.789 144.522 475.789 143.658C475.789 142.794 475.088 142.094 474.224 142.094Z" fill="#805AC3"/>
<path d="M489.071 142.094H478.625C477.76 142.094 477.06 142.794 477.06 143.658C477.06 144.522 477.76 145.222 478.625 145.222H489.071C489.935 145.222 490.636 144.522 490.636 143.658C490.636 142.794 489.935 142.094 489.071 142.094Z" fill="#805AC3"/>
<path d="M476.667 148.253H466.129C465.264 148.253 464.563 148.953 464.563 149.817C464.563 150.681 465.264 151.381 466.129 151.381H476.667C477.531 151.381 478.232 150.681 478.232 149.817C478.232 148.953 477.531 148.253 476.667 148.253Z" fill="#805AC3"/>
<path d="M494.745 148.253H481.344C480.48 148.253 479.779 148.953 479.779 149.817C479.779 150.681 480.48 151.381 481.344 151.381H494.745C495.609 151.381 496.31 150.681 496.31 149.817C496.31 148.953 495.609 148.253 494.745 148.253Z" fill="#805AC3"/>
<path d="M471.111 160.572H466.129C465.264 160.572 464.563 161.273 464.563 162.137C464.563 163.001 465.264 163.701 466.129 163.701H471.111C471.976 163.701 472.676 163.001 472.676 162.137C472.676 161.273 471.976 160.572 471.111 160.572Z" fill="#805AC3"/>
<path d="M482.046 160.572H475.364C474.499 160.572 473.799 161.273 473.799 162.137C473.799 163.001 474.499 163.701 475.364 163.701H482.046C482.91 163.701 483.611 163.001 483.611 162.137C483.611 161.273 482.91 160.572 482.046 160.572Z" fill="#805AC3"/>
<path d="M501.832 160.572H486.299C485.435 160.572 484.734 161.273 484.734 162.137C484.734 163.001 485.435 163.701 486.299 163.701H501.832C502.696 163.701 503.397 163.001 503.397 162.137C503.397 161.273 502.696 160.572 501.832 160.572Z" fill="#805AC3"/>
<path d="M499.834 142.094H493.472C492.608 142.094 491.907 142.794 491.907 143.658C491.907 144.522 492.608 145.222 493.472 145.222H499.834C500.699 145.222 501.399 144.522 501.399 143.658C501.399 142.794 500.699 142.094 499.834 142.094Z" fill="#805AC3"/>
<path d="M448.909 111.937V106.696C448.909 105.582 449.815 104.676 450.929 104.676H510.859C511.973 104.676 512.877 105.582 512.877 106.696V111.937H448.909Z" fill="white"/>
<path d="M510.857 105.078C511.752 105.078 512.475 105.803 512.475 106.696V111.537H449.31V106.696C449.31 105.803 450.034 105.078 450.927 105.078H510.857ZM510.857 104.276H450.927C449.593 104.276 448.507 105.362 448.507 106.696V112.339H513.279V106.696C513.279 105.362 512.193 104.276 510.859 104.276H510.857Z" fill="black"/>
<path d="M452.314 109.382C452.89 109.382 453.358 108.915 453.358 108.338C453.358 107.762 452.89 107.295 452.314 107.295C451.738 107.295 451.271 107.762 451.271 108.338C451.271 108.915 451.738 109.382 452.314 109.382Z" fill="#C4C4C4"/>
<path d="M455.193 109.382C455.769 109.382 456.236 108.915 456.236 108.338C456.236 107.762 455.769 107.295 455.193 107.295C454.617 107.295 454.15 107.762 454.15 108.338C454.15 108.915 454.617 109.382 455.193 109.382Z" fill="#C4C4C4"/>
<path d="M458.073 109.382C458.649 109.382 459.116 108.915 459.116 108.338C459.116 107.762 458.649 107.295 458.073 107.295C457.497 107.295 457.03 107.762 457.03 108.338C457.03 108.915 457.497 109.382 458.073 109.382Z" fill="#C4C4C4"/>
<path d="M218.771 125.613H244.363V132.322H300.861H357.36" stroke="#F26E7E" stroke-width="4.16" stroke-miterlimit="10" stroke-linecap="round" stroke-linejoin="round"/>
<path d="M352.133 139.417C352.224 139.515 352.349 139.573 352.483 139.578C352.616 139.583 352.746 139.534 352.843 139.443L359.77 132.943C359.871 132.848 359.928 132.716 359.928 132.578C359.928 132.44 359.871 132.308 359.77 132.214L352.843 125.714C352.746 125.622 352.616 125.574 352.483 125.579C352.349 125.583 352.224 125.641 352.133 125.739L351.06 126.903C350.874 127.105 350.885 127.419 351.086 127.606L356.385 132.578L351.086 137.55C350.885 137.738 350.874 138.052 351.06 138.254L352.133 139.417Z" fill="#F26E7E" stroke="#F26E7E" stroke-linejoin="round"/>
<path d="M439.133 151.417C439.224 151.515 439.349 151.573 439.483 151.578C439.616 151.583 439.746 151.534 439.843 151.443L446.77 144.943C446.871 144.848 446.928 144.716 446.928 144.578C446.928 144.44 446.871 144.308 446.77 144.214L439.843 137.714C439.746 137.622 439.616 137.574 439.483 137.579C439.349 137.583 439.224 137.641 439.133 137.739L438.06 138.903C437.874 139.105 437.885 139.419 438.086 139.606L443.385 144.578L438.086 149.55C437.885 149.738 437.874 150.052 438.06 150.254L439.133 151.417Z" fill="#805AC3" stroke="#805AC3" stroke-linejoin="round"/>
<path d="M170.503 150.195H244.038V144.558H343.705H443.371" stroke="#805AC3" stroke-width="4.16" stroke-miterlimit="10" stroke-linecap="round" stroke-linejoin="round"/>
<path d="M365.127 107.288H423.452C425.009 107.288 426.275 108.553 426.275 110.111V167.395C426.275 168.952 425.009 170.218 423.452 170.218H365.127C363.57 170.218 362.306 168.954 362.306 167.396V110.109C362.306 108.552 363.57 107.288 365.127 107.288Z" fill="white"/>
<path d="M423.45 107.688C424.787 107.688 425.872 108.772 425.872 110.109V167.393C425.872 168.73 424.787 169.815 423.45 169.815H365.127C363.79 169.815 362.706 168.73 362.706 167.393V110.109C362.706 108.772 363.79 107.688 365.127 107.688H423.45ZM423.45 106.886H365.127C363.35 106.886 361.904 108.332 361.904 110.109V167.393C361.904 169.17 363.35 170.617 365.127 170.617H423.45C425.227 170.617 426.674 169.17 426.674 167.393V110.109C426.674 108.332 425.227 106.886 423.45 106.886Z" fill="black"/>
<path d="M373.028 117.455H370.59C369.726 117.455 369.025 118.155 369.025 119.019C369.025 119.883 369.726 120.583 370.59 120.583H373.028C373.892 120.583 374.593 119.883 374.593 119.019C374.593 118.155 373.892 117.455 373.028 117.455Z" fill="#F26E7E"/>
<path d="M373.028 123.615H370.59C369.726 123.615 369.025 124.316 369.025 125.18C369.025 126.043 369.726 126.744 370.59 126.744H373.028C373.892 126.744 374.593 126.043 374.593 125.18C374.593 124.316 373.892 123.615 373.028 123.615Z" fill="#F26E7E"/>
<path d="M373.028 129.774H370.59C369.726 129.774 369.025 130.475 369.025 131.339C369.025 132.202 369.726 132.903 370.59 132.903H373.028C373.892 132.903 374.593 132.202 374.593 131.339C374.593 130.475 373.892 129.774 373.028 129.774Z" fill="#F26E7E"/>
<path d="M373.028 135.935H370.59C369.726 135.935 369.025 136.635 369.025 137.499C369.025 138.363 369.726 139.063 370.59 139.063H373.028C373.892 139.063 374.593 138.363 374.593 137.499C374.593 136.635 373.892 135.935 373.028 135.935Z" fill="#F26E7E"/>
<path d="M373.028 142.094H370.59C369.726 142.094 369.025 142.794 369.025 143.658C369.025 144.522 369.726 145.222 370.59 145.222H373.028C373.892 145.222 374.593 144.522 374.593 143.658C374.593 142.794 373.892 142.094 373.028 142.094Z" fill="#F26E7E"/>
<path d="M373.028 148.253H370.59C369.726 148.253 369.025 148.953 369.025 149.817C369.025 150.681 369.726 151.381 370.59 151.381H373.028C373.892 151.381 374.593 150.681 374.593 149.817C374.593 148.953 373.892 148.253 373.028 148.253Z" fill="#F26E7E"/>
<path d="M373.028 154.161H370.59C369.726 154.161 369.025 154.861 369.025 155.725C369.025 156.589 369.726 157.289 370.59 157.289H373.028C373.892 157.289 374.593 156.589 374.593 155.725C374.593 154.861 373.892 154.161 373.028 154.161Z" fill="#F26E7E"/>
<path d="M373.028 160.572H370.59C369.726 160.572 369.025 161.273 369.025 162.137C369.025 163.001 369.726 163.701 370.59 163.701H373.028C373.892 163.701 374.593 163.001 374.593 162.137C374.593 161.273 373.892 160.572 373.028 160.572Z" fill="#F26E7E"/>
<path d="M389.07 135.935H379.525C378.661 135.935 377.96 136.635 377.96 137.499C377.96 138.363 378.661 139.063 379.525 139.063H389.07C389.934 139.063 390.634 138.363 390.634 137.499C390.634 136.635 389.934 135.935 389.07 135.935Z" fill="#F26E7E"/>
<path d="M405.833 135.935H393.634C392.769 135.935 392.069 136.635 392.069 137.499C392.069 138.363 392.769 139.063 393.634 139.063H405.833C406.698 139.063 407.398 138.363 407.398 137.499C407.398 136.635 406.698 135.935 405.833 135.935Z" fill="#F26E7E"/>
<path d="M392.88 129.774H379.525C378.661 129.774 377.96 130.475 377.96 131.339C377.96 132.202 378.661 132.903 379.525 132.903H392.88C393.745 132.903 394.445 132.202 394.445 131.339C394.445 130.475 393.745 129.774 392.88 129.774Z" fill="#F26E7E"/>
<path d="M414.199 129.774H397.391C396.526 129.774 395.826 130.475 395.826 131.339C395.826 132.202 396.526 132.903 397.391 132.903H414.199C415.063 132.903 415.764 132.202 415.764 131.339C415.764 130.475 415.063 129.774 414.199 129.774Z" fill="#F26E7E"/>
<path d="M388.668 123.615H379.525C378.661 123.615 377.96 124.316 377.96 125.18C377.96 126.043 378.661 126.744 379.525 126.744H388.668C389.532 126.744 390.233 126.043 390.233 125.18C390.233 124.316 389.532 123.615 388.668 123.615Z" fill="#F26E7E"/>
<path d="M394.261 117.455H379.525C378.661 117.455 377.96 118.155 377.96 119.019C377.96 119.883 378.661 120.583 379.525 120.583H394.261C395.126 120.583 395.826 119.883 395.826 119.019C395.826 118.155 395.126 117.455 394.261 117.455Z" fill="#F26E7E"/>
<path d="M404.9 123.615H393.187C392.322 123.615 391.622 124.316 391.622 125.18C391.622 126.043 392.322 126.744 393.187 126.744H404.9C405.764 126.744 406.465 126.043 406.465 125.18C406.465 124.316 405.764 123.615 404.9 123.615Z" fill="#F26E7E"/>
<path d="M417.987 135.935H410.399C409.535 135.935 408.834 136.635 408.834 137.499C408.834 138.363 409.535 139.063 410.399 139.063H417.987C418.851 139.063 419.552 138.363 419.552 137.499C419.552 136.635 418.851 135.935 417.987 135.935Z" fill="#F26E7E"/>
<path d="M389.07 154.161H379.525C378.661 154.161 377.96 154.861 377.96 155.725C377.96 156.589 378.661 157.289 379.525 157.289H389.07C389.934 157.289 390.634 156.589 390.634 155.725C390.634 154.861 389.934 154.161 389.07 154.161Z" fill="#F26E7E"/>
<path d="M405.833 154.161H393.634C392.769 154.161 392.069 154.861 392.069 155.725C392.069 156.589 392.769 157.289 393.634 157.289H405.833C406.698 157.289 407.398 156.589 407.398 155.725C407.398 154.861 406.698 154.161 405.833 154.161Z" fill="#F26E7E"/>
<path d="M417.987 154.161H410.399C409.535 154.161 408.834 154.861 408.834 155.725C408.834 156.589 409.535 157.289 410.399 157.289H417.987C418.851 157.289 419.552 156.589 419.552 155.725C419.552 154.861 418.851 154.161 417.987 154.161Z" fill="#F26E7E"/>
<path d="M387.62 142.094H379.525C378.661 142.094 377.96 142.794 377.96 143.658C377.96 144.522 378.661 145.222 379.525 145.222H387.62C388.484 145.222 389.185 144.522 389.185 143.658C389.185 142.794 388.484 142.094 387.62 142.094Z" fill="#F26E7E"/>
<path d="M402.467 142.094H392.021C391.157 142.094 390.456 142.794 390.456 143.658C390.456 144.522 391.157 145.222 392.021 145.222H402.467C403.332 145.222 404.032 144.522 404.032 143.658C404.032 142.794 403.332 142.094 402.467 142.094Z" fill="#F26E7E"/>
<path d="M390.063 148.253H379.525C378.661 148.253 377.96 148.953 377.96 149.817C377.96 150.681 378.661 151.381 379.525 151.381H390.063C390.927 151.381 391.628 150.681 391.628 149.817C391.628 148.953 390.927 148.253 390.063 148.253Z" fill="#F26E7E"/>
<path d="M408.141 148.253H394.74C393.875 148.253 393.175 148.953 393.175 149.817C393.175 150.681 393.875 151.381 394.74 151.381H408.141C409.005 151.381 409.706 150.681 409.706 149.817C409.706 148.953 409.005 148.253 408.141 148.253Z" fill="#F26E7E"/>
<path d="M384.508 160.572H379.525C378.661 160.572 377.96 161.273 377.96 162.137C377.96 163.001 378.661 163.701 379.525 163.701H384.508C385.372 163.701 386.073 163.001 386.073 162.137C386.073 161.273 385.372 160.572 384.508 160.572Z" fill="#F26E7E"/>
<path d="M395.442 160.572H388.759C387.895 160.572 387.194 161.273 387.194 162.137C387.194 163.001 387.895 163.701 388.759 163.701H395.442C396.306 163.701 397.006 163.001 397.006 162.137C397.006 161.273 396.306 160.572 395.442 160.572Z" fill="#F26E7E"/>
<path d="M415.228 160.572H399.695C398.831 160.572 398.13 161.273 398.13 162.137C398.13 163.001 398.831 163.701 399.695 163.701H415.228C416.092 163.701 416.793 163.001 416.793 162.137C416.793 161.273 416.092 160.572 415.228 160.572Z" fill="#F26E7E"/>
<path d="M413.231 142.094H406.869C406.004 142.094 405.304 142.794 405.304 143.658C405.304 144.522 406.004 145.222 406.869 145.222H413.231C414.095 145.222 414.796 144.522 414.796 143.658C414.796 142.794 414.095 142.094 413.231 142.094Z" fill="#F26E7E"/>
<path d="M362.306 111.937V106.696C362.306 105.582 363.212 104.676 364.324 104.676H424.254C425.367 104.676 426.273 105.582 426.273 106.696V111.937H362.306Z" fill="white"/>
<path d="M424.254 105.078C425.148 105.078 425.872 105.803 425.872 106.696V111.537H362.706V106.696C362.706 105.803 363.431 105.078 364.324 105.078H424.254ZM424.254 104.276H364.324C362.99 104.276 361.904 105.362 361.904 106.696V112.339H426.675V106.696C426.675 105.362 425.59 104.276 424.255 104.276H424.254Z" fill="black"/>
<path d="M365.71 109.382C366.287 109.382 366.754 108.915 366.754 108.338C366.754 107.762 366.287 107.295 365.71 107.295C365.134 107.295 364.667 107.762 364.667 108.338C364.667 108.915 365.134 109.382 365.71 109.382Z" fill="#C4C4C4"/>
<path d="M368.589 109.382C369.165 109.382 369.632 108.915 369.632 108.338C369.632 107.762 369.165 107.295 368.589 107.295C368.013 107.295 367.546 107.762 367.546 108.338C367.546 108.915 368.013 109.382 368.589 109.382Z" fill="#C4C4C4"/>
<path d="M371.467 109.382C372.043 109.382 372.511 108.915 372.511 108.338C372.511 107.762 372.043 107.295 371.467 107.295C370.891 107.295 370.424 107.762 370.424 108.338C370.424 108.915 370.891 109.382 371.467 109.382Z" fill="#C4C4C4"/>
<rect x="202" y="310" width="232" height="220" rx="12" fill="#FFF9E8"/>
<path d="M318.533 382.918C330.329 382.918 339.891 373.355 339.891 361.559C339.891 349.763 330.329 340.2 318.533 340.2C306.736 340.2 297.174 349.763 297.174 361.559C297.174 373.355 306.736 382.918 318.533 382.918Z" fill="white"/>
<path d="M322.62 392.981H313.38C313.034 392.981 312.743 392.72 312.711 392.375L312.127 386.174C309.377 385.551 306.747 384.482 304.343 383.011L299.439 387.003C299.175 387.218 298.791 387.201 298.548 386.961L292.014 380.562C291.763 380.315 291.744 379.917 291.972 379.65L296.036 374.861C294.545 372.524 293.456 369.951 292.816 367.254L286.472 366.683C286.126 366.652 285.861 366.362 285.863 366.014V356.967C285.863 356.619 286.126 356.328 286.472 356.298L292.816 355.725C293.456 353.028 294.545 350.457 296.036 348.119L291.972 343.329C291.744 343.061 291.763 342.663 292.014 342.418L298.548 336.018C298.791 335.779 299.175 335.761 299.439 335.977L304.345 339.97C306.75 338.499 309.38 337.43 312.13 336.806L312.714 330.606C312.746 330.261 313.037 329.999 313.383 330H322.62C322.966 330 323.257 330.261 323.289 330.606L323.873 336.806C326.623 337.432 329.253 338.501 331.658 339.973L336.561 335.981C336.825 335.765 337.209 335.783 337.452 336.022L343.986 342.422C344.237 342.669 344.256 343.067 344.028 343.334L339.964 348.12C341.455 350.457 342.544 353.028 343.184 355.726L349.528 356.299C349.874 356.33 350.139 356.621 350.137 356.968V366.015C350.137 366.363 349.874 366.654 349.528 366.685L343.184 367.257C342.544 369.954 341.455 372.525 339.964 374.864L344.028 379.653C344.256 379.922 344.237 380.319 343.986 380.565L337.452 386.964C337.209 387.204 336.825 387.221 336.561 387.006L331.658 383.009C329.253 384.48 326.623 385.549 323.873 386.173L323.289 392.373C323.257 392.718 322.966 392.982 322.62 392.981ZM317.899 344.154C313.323 344.254 308.973 346.16 305.796 349.456C302.619 352.75 300.873 357.168 300.941 361.744C301.008 366.322 302.882 370.687 306.153 373.888C309.425 377.088 313.83 378.866 318.406 378.834C322.984 378.8 327.362 376.959 330.587 373.711C333.811 370.462 335.622 366.071 335.622 361.495C335.564 356.848 333.667 352.413 330.345 349.162C327.023 345.912 322.548 344.112 317.899 344.157V344.154Z" fill="#7682F4"/>
<path d="M317.897 344.155C317.955 344.155 318.011 344.156 318.068 344.156C322.654 344.156 327.062 345.952 330.343 349.162C333.665 352.413 335.562 356.847 335.62 361.495C335.62 366.073 333.809 370.464 330.585 373.711C327.36 376.959 322.982 378.8 318.404 378.834C318.361 378.834 318.32 378.834 318.279 378.834C313.747 378.834 309.392 377.06 306.151 373.888C302.88 370.687 301.006 366.322 300.939 361.745C300.873 357.168 302.617 352.751 305.794 349.456C308.971 346.16 313.323 344.256 317.899 344.155M320.389 341.85L317.85 341.904C312.646 342.018 307.789 344.146 304.175 347.894C300.561 351.642 298.613 356.572 298.688 361.778C298.764 366.984 300.857 371.857 304.577 375.498C308.26 379.103 313.127 381.086 318.281 381.086H318.422C323.629 381.048 328.517 378.991 332.184 375.297C335.852 371.602 337.872 366.7 337.873 361.493C337.809 356.185 335.693 351.244 331.918 347.552C328.75 344.451 324.714 342.537 320.37 342.036L320.389 341.85Z" fill="#CCD3FF"/>
<path fill-rule="evenodd" clip-rule="evenodd" d="M309.206 363.094C310.25 362.49 310.252 360.538 309.21 358.732C308.168 356.926 306.476 355.951 305.431 356.555C304.387 357.158 304.384 359.111 305.427 360.916C306.469 362.722 308.16 363.697 309.206 363.094ZM309.212 366.959C310.254 368.765 310.252 370.718 309.207 371.321C308.162 371.925 306.471 370.95 305.428 369.144C304.386 367.338 304.387 365.385 305.433 364.782C306.476 364.179 308.169 365.153 309.212 366.959ZM316.331 371.075C317.373 372.88 317.372 374.833 316.326 375.437C315.282 376.04 313.59 375.065 312.547 373.259C311.505 371.453 311.506 369.501 312.552 368.897C313.595 368.294 315.288 369.269 316.331 371.075ZM316.328 362.847C317.37 364.653 317.369 366.606 316.323 367.209C315.279 367.812 313.587 366.837 312.544 365.032C311.502 363.226 311.503 361.273 312.549 360.67C313.593 360.066 315.285 361.041 316.328 362.847Z" fill="#F26E7E"/>
<path fill-rule="evenodd" clip-rule="evenodd" d="M330.569 360.921C331.611 359.115 331.61 357.162 330.565 356.559C329.521 355.956 327.828 356.93 326.785 358.736C325.743 360.542 325.745 362.495 326.79 363.098C327.834 363.702 329.526 362.727 330.569 360.921ZM330.569 364.785C331.613 365.389 331.616 367.341 330.573 369.147C329.531 370.953 327.839 371.928 326.794 371.324C325.749 370.721 325.747 368.768 326.79 366.962C327.832 365.157 329.524 364.182 330.569 364.785ZM323.451 368.894C324.497 369.498 324.498 371.45 323.456 373.256C322.413 375.062 320.722 376.037 319.677 375.434C318.631 374.83 318.63 372.878 319.672 371.072C320.715 369.266 322.406 368.291 323.451 368.894ZM323.447 360.67C324.491 361.273 324.494 363.226 323.451 365.032C322.409 366.838 320.718 367.812 319.672 367.209C318.628 366.606 318.626 364.653 319.668 362.847C320.71 361.041 322.402 360.066 323.447 360.67Z" fill="#8A3391"/>
<path fill-rule="evenodd" clip-rule="evenodd" d="M321.772 349.554C321.772 350.761 320.082 351.739 317.997 351.739C315.912 351.739 314.223 350.761 314.223 349.554C314.223 348.348 315.912 347.37 317.997 347.37C320.082 347.37 321.772 348.348 321.772 349.554ZM314.654 353.659C314.654 354.866 312.964 355.844 310.88 355.844C308.795 355.844 307.105 354.866 307.105 353.659C307.105 352.453 308.795 351.475 310.88 351.475C312.964 351.475 314.654 352.453 314.654 353.659ZM325.122 355.844C327.207 355.844 328.897 354.866 328.897 353.659C328.897 352.453 327.207 351.475 325.122 351.475C323.037 351.475 321.348 352.453 321.348 353.659C321.348 354.866 323.037 355.844 325.122 355.844ZM321.77 357.773C321.77 358.98 320.081 359.958 317.996 359.958C315.911 359.958 314.221 358.98 314.221 357.773C314.221 356.566 315.911 355.589 317.996 355.589C320.081 355.589 321.77 356.566 321.77 357.773Z" fill="#F7BF2A"/>
<path d="M339.564 420.523C340.346 418.848 340.756 417.023 340.756 415.163C340.756 408.15 335.051 402.445 328.037 402.445C326.084 402.445 324.155 402.903 322.402 403.773C319.617 401.023 315.856 399.464 311.94 399.464C303.723 399.464 297.039 406.15 297.039 414.367C297.039 415.03 297.086 415.701 297.179 416.376C291.658 417.436 287.5 422.342 287.5 428.077C287.5 434.651 292.848 440 299.423 440H336.782C342.261 440 346.718 435.543 346.718 430.064C346.718 425.572 343.742 421.733 339.564 420.523Z" fill="#9FB6FF"/>
<path d="M317.996 392.969V428.23" stroke="#DEE4FF" stroke-width="1.787" stroke-miterlimit="10"/>
<path d="M307.264 419.535L309.186 417.745L317.993 427.222L326.802 417.745L328.724 419.535L317.993 431.075L307.264 419.535Z" fill="#DEE4FF"/>
<path d="M226.845 461.4V474H228.519V469.5H231.417C232.587 469.5 233.541 469.104 234.315 468.33C235.089 467.556 235.485 466.584 235.485 465.45C235.485 464.298 235.089 463.344 234.315 462.57C233.541 461.796 232.587 461.4 231.417 461.4H226.845ZM228.519 467.934V462.966H231.417C232.803 462.966 233.829 464.01 233.829 465.45C233.829 466.152 233.595 466.746 233.145 467.232C232.695 467.7 232.119 467.934 231.417 467.934H228.519ZM243.51 469.77C243.51 471.786 242.466 472.74 240.9 472.74C239.514 472.74 238.668 471.894 238.668 470.436V465H237.102V470.526C237.102 472.812 238.488 474.234 240.594 474.234C241.908 474.234 242.88 473.73 243.51 472.704V474H245.076V465H243.51V469.77ZM249.026 474V460.86H247.46V474H249.026ZM257.626 469.77C257.626 471.786 256.582 472.74 255.016 472.74C253.63 472.74 252.784 471.894 252.784 470.436V465H251.218V470.526C251.218 472.812 252.604 474.234 254.71 474.234C256.024 474.234 256.996 473.73 257.626 472.704V474H259.192V465H257.626V469.77ZM271.296 464.766C270.036 464.766 269.1 465.27 268.47 466.296C267.912 465.27 267.03 464.766 265.824 464.766C264.654 464.766 263.754 465.252 263.142 466.206V465H261.576V474H263.142V468.996C263.142 467.178 264.132 466.26 265.446 466.26C266.616 466.26 267.354 467.07 267.354 468.456V474H268.92V468.996C268.92 467.142 269.784 466.26 271.134 466.26C272.34 466.26 273.114 467.07 273.114 468.456V474H274.68V468.402C274.68 466.17 273.312 464.766 271.296 464.766ZM277.643 463.362C278.219 463.362 278.687 462.894 278.687 462.318C278.687 461.742 278.219 461.256 277.643 461.256C277.049 461.256 276.581 461.742 276.581 462.318C276.581 462.894 277.049 463.362 277.643 463.362ZM278.417 474V465H276.851V474H278.417ZM287.142 468.42H292.452V466.854H287.142V462.984H292.902V461.4H285.468V474H292.992V472.416H287.142V468.42ZM299.333 464.766C298.019 464.766 297.047 465.27 296.417 466.296V465H294.851V474H296.417V469.23C296.417 467.214 297.461 466.26 299.027 466.26C300.413 466.26 301.259 467.106 301.259 468.564V474H302.825V468.474C302.825 466.188 301.439 464.766 299.333 464.766ZM312.481 466.548C311.707 465.36 310.573 464.766 309.097 464.766C307.819 464.766 306.721 465.216 305.839 466.134C304.957 467.034 304.507 468.132 304.507 469.446C304.507 470.76 304.957 471.858 305.839 472.776C306.721 473.694 307.819 474.144 309.097 474.144C310.555 474.144 311.689 473.55 312.481 472.344V473.622C312.481 475.332 311.347 476.376 309.475 476.376C308.017 476.376 307.027 475.872 306.541 474.864L305.173 475.638C305.911 477.06 307.423 477.834 309.439 477.834C310.699 477.834 311.779 477.456 312.679 476.718C313.579 475.98 314.029 474.954 314.029 473.622V465H312.481V466.548ZM312.481 469.446C312.481 470.364 312.175 471.12 311.563 471.732C310.951 472.344 310.195 472.65 309.277 472.65C308.359 472.65 307.603 472.344 306.991 471.732C306.379 471.12 306.073 470.364 306.073 469.446C306.073 468.546 306.379 467.79 306.991 467.178C307.603 466.566 308.359 466.26 309.277 466.26C310.195 466.26 310.951 466.566 311.563 467.178C312.175 467.79 312.481 468.546 312.481 469.446ZM317.194 463.362C317.77 463.362 318.238 462.894 318.238 462.318C318.238 461.742 317.77 461.256 317.194 461.256C316.6 461.256 316.132 461.742 316.132 462.318C316.132 462.894 316.6 463.362 317.194 463.362ZM317.968 474V465H316.402V474H317.968ZM324.839 464.766C323.525 464.766 322.553 465.27 321.923 466.296V465H320.357V474H321.923V469.23C321.923 467.214 322.967 466.26 324.533 466.26C325.919 466.26 326.765 467.106 326.765 468.564V474H328.331V468.474C328.331 466.188 326.945 464.766 324.839 464.766ZM339.157 470.22C339.193 469.986 339.211 469.752 339.211 469.518C339.211 468.204 338.797 467.088 337.951 466.17C337.123 465.234 336.043 464.766 334.729 464.766C333.343 464.766 332.209 465.216 331.327 466.116C330.445 467.016 330.013 468.15 330.013 469.5C330.013 470.868 330.463 472.002 331.345 472.902C332.245 473.784 333.415 474.234 334.837 474.234C336.601 474.234 337.915 473.55 338.797 472.2L337.465 471.444C336.925 472.326 336.061 472.758 334.873 472.758C333.163 472.758 331.921 471.822 331.615 470.22H339.157ZM334.729 466.242C336.169 466.242 337.357 467.142 337.627 468.852H331.615C331.885 467.268 333.055 466.242 334.729 466.242ZM345.673 461.4V474H350.587C352.297 474 353.719 473.388 354.853 472.182C355.987 470.958 356.563 469.464 356.563 467.7C356.563 465.936 355.987 464.442 354.853 463.236C353.719 462.012 352.297 461.4 350.587 461.4H345.673ZM347.347 472.416V462.984H350.587C351.865 462.984 352.927 463.434 353.737 464.334C354.547 465.234 354.961 466.35 354.961 467.7C354.961 469.05 354.547 470.166 353.737 471.066C352.927 471.966 351.865 472.416 350.587 472.416H347.347ZM367.071 470.22C367.107 469.986 367.125 469.752 367.125 469.518C367.125 468.204 366.711 467.088 365.865 466.17C365.037 465.234 363.957 464.766 362.643 464.766C361.257 464.766 360.123 465.216 359.241 466.116C358.359 467.016 357.927 468.15 357.927 469.5C357.927 470.868 358.377 472.002 359.259 472.902C360.159 473.784 361.329 474.234 362.751 474.234C364.515 474.234 365.829 473.55 366.711 472.2L365.379 471.444C364.839 472.326 363.975 472.758 362.787 472.758C361.077 472.758 359.835 471.822 359.529 470.22H367.071ZM362.643 466.242C364.083 466.242 365.271 467.142 365.541 468.852H359.529C359.799 467.268 360.969 466.242 362.643 466.242ZM373.893 464.766C372.399 464.766 371.265 465.36 370.491 466.548V465H368.925V477.6H370.491V472.452C371.265 473.64 372.399 474.234 373.893 474.234C375.153 474.234 376.233 473.784 377.115 472.866C377.997 471.948 378.447 470.814 378.447 469.5C378.447 468.186 377.997 467.07 377.115 466.152C376.233 465.234 375.153 464.766 373.893 464.766ZM373.695 472.722C372.777 472.722 372.021 472.416 371.409 471.804C370.797 471.174 370.491 470.418 370.491 469.5C370.491 468.582 370.797 467.826 371.409 467.214C372.021 466.584 372.777 466.278 373.695 466.278C374.595 466.278 375.351 466.584 375.963 467.214C376.575 467.826 376.881 468.582 376.881 469.5C376.881 470.418 376.575 471.174 375.963 471.804C375.351 472.416 374.595 472.722 373.695 472.722ZM381.882 474V460.86H380.316V474H381.882ZM391.867 472.866C392.785 471.948 393.253 470.832 393.253 469.5C393.253 468.168 392.785 467.052 391.867 466.134C390.949 465.216 389.815 464.766 388.501 464.766C387.187 464.766 386.053 465.216 385.135 466.134C384.217 467.052 383.767 468.168 383.767 469.5C383.767 470.832 384.217 471.948 385.135 472.866C386.053 473.784 387.187 474.234 388.501 474.234C389.815 474.234 390.949 473.784 391.867 472.866ZM388.501 472.704C387.619 472.704 386.863 472.398 386.251 471.786C385.639 471.174 385.333 470.418 385.333 469.5C385.333 468.582 385.639 467.826 386.251 467.214C386.863 466.602 387.619 466.296 388.501 466.296C389.401 466.296 390.157 466.602 390.769 467.214C391.381 467.826 391.687 468.582 391.687 469.5C391.687 470.418 391.381 471.174 390.769 471.786C390.157 472.398 389.401 472.704 388.501 472.704ZM398.438 472.056L395.378 465H393.704L397.628 473.964L397.466 474.306C396.944 475.62 396.134 476.232 395.036 476.142V477.6C396.836 477.726 398.258 476.592 399.032 474.558L402.704 465H401.03L398.438 472.056ZM404.799 467.43C404.799 466.656 405.519 466.224 406.401 466.224C407.355 466.224 408.003 466.602 408.327 467.376L409.641 466.638C409.065 465.468 407.859 464.766 406.401 464.766C405.483 464.766 404.727 465.018 404.115 465.522C403.521 466.026 403.215 466.674 403.215 467.448C403.215 469.356 405.051 469.824 406.473 470.202C407.463 470.436 408.255 470.832 408.255 471.534C408.255 472.38 407.499 472.758 406.473 472.758C405.375 472.758 404.529 472.218 404.241 471.354L402.891 472.128C403.413 473.406 404.727 474.234 406.473 474.234C407.463 474.234 408.255 473.982 408.885 473.496C409.515 473.01 409.839 472.344 409.839 471.534C409.857 469.608 407.985 469.086 406.581 468.78C405.591 468.51 404.799 468.132 404.799 467.43ZM296.277 501.234C297.573 501.234 298.617 500.91 299.427 500.262C300.237 499.596 300.633 498.714 300.633 497.616C300.633 496.824 300.453 496.176 300.003 495.726C299.697 495.366 299.535 495.168 299.031 494.898C298.545 494.628 298.401 494.538 297.771 494.304C297.465 494.178 297.249 494.106 297.105 494.052L296.367 493.818C295.395 493.512 294.711 493.206 294.315 492.918C293.919 492.63 293.721 492.216 293.721 491.658C293.721 490.506 294.639 489.786 296.007 489.786C297.375 489.786 298.329 490.434 298.869 491.73L300.273 490.92C299.535 489.264 298.005 488.166 296.007 488.166C294.909 488.166 293.973 488.49 293.199 489.138C292.425 489.768 292.047 490.632 292.047 491.73C292.047 492.648 292.425 493.386 292.839 493.836C293.037 494.052 293.343 494.268 293.757 494.484C294.171 494.682 294.531 494.844 294.801 494.952L296.007 495.348C297.069 495.69 297.843 495.996 298.293 496.302C298.743 496.608 298.977 497.058 298.977 497.652C298.977 498.822 298.041 499.596 296.313 499.596C294.567 499.596 293.433 498.84 292.947 497.31L291.507 498.138C292.173 500.064 293.919 501.234 296.277 501.234ZM307.086 492H304.692V489.48L303.126 489.948V492H301.344V493.512H303.126V498.39C303.126 500.622 304.35 501.36 307.086 501V499.596C305.484 499.668 304.692 499.776 304.692 498.39V493.512H307.086V492ZM315.935 493.548C315.161 492.36 314.027 491.766 312.533 491.766C311.273 491.766 310.193 492.234 309.311 493.152C308.429 494.07 307.979 495.186 307.979 496.5C307.979 497.814 308.429 498.948 309.311 499.866C310.193 500.784 311.273 501.234 312.533 501.234C314.027 501.234 315.161 500.64 315.935 499.452V501H317.501V492H315.935V493.548ZM312.731 499.722C311.831 499.722 311.075 499.416 310.463 498.804C309.851 498.174 309.545 497.418 309.545 496.5C309.545 495.582 309.851 494.826 310.463 494.214C311.075 493.584 311.831 493.278 312.731 493.278C313.649 493.278 314.405 493.584 315.017 494.214C315.629 494.826 315.935 495.582 315.935 496.5C315.935 497.418 315.629 498.174 315.017 498.804C314.405 499.416 313.649 499.722 312.731 499.722ZM324.104 501.234C325.85 501.234 327.38 500.316 328.154 498.894L326.822 498.12C326.318 499.074 325.31 499.686 324.104 499.686C323.204 499.686 322.448 499.38 321.836 498.768C321.242 498.156 320.936 497.4 320.936 496.5C320.936 495.582 321.242 494.826 321.836 494.214C322.448 493.602 323.204 493.296 324.104 493.296C325.31 493.296 326.318 493.926 326.768 494.88L328.082 494.124C327.38 492.684 325.886 491.766 324.104 491.766C322.754 491.766 321.62 492.216 320.72 493.134C319.82 494.034 319.37 495.15 319.37 496.5C319.37 497.85 319.82 498.966 320.72 499.884C321.62 500.784 322.754 501.234 324.104 501.234ZM332.868 496.356L337.17 492H335.154L331.266 495.978V488.4H329.7V501H331.266V496.734L335.37 501H337.314L332.868 496.356ZM339.434 494.43C339.434 493.656 340.154 493.224 341.036 493.224C341.99 493.224 342.638 493.602 342.962 494.376L344.276 493.638C343.7 492.468 342.494 491.766 341.036 491.766C340.118 491.766 339.362 492.018 338.75 492.522C338.156 493.026 337.85 493.674 337.85 494.448C337.85 496.356 339.686 496.824 341.108 497.202C342.098 497.436 342.89 497.832 342.89 498.534C342.89 499.38 342.134 499.758 341.108 499.758C340.01 499.758 339.164 499.218 338.876 498.354L337.526 499.128C338.048 500.406 339.362 501.234 341.108 501.234C342.098 501.234 342.89 500.982 343.52 500.496C344.15 500.01 344.474 499.344 344.474 498.534C344.492 496.608 342.62 496.086 341.216 495.78C340.226 495.51 339.434 495.132 339.434 494.43Z" fill="#231F20"/>
<path d="M443.284 357L497.611 357L497.611 297" stroke="#7682F4" stroke-width="4.16" stroke-linecap="round" stroke-linejoin="round"/>
<path d="M447.295 350.661C447.204 350.563 447.078 350.505 446.945 350.5C446.812 350.496 446.682 350.544 446.585 350.635L439.658 357.135C439.557 357.23 439.5 357.362 439.5 357.5C439.5 357.638 439.557 357.77 439.658 357.865L446.585 364.365C446.682 364.456 446.812 364.504 446.945 364.5C447.078 364.495 447.204 364.437 447.295 364.339L448.368 363.175C448.554 362.974 448.542 362.66 448.342 362.472L443.043 357.5L448.342 352.528C448.542 352.34 448.554 352.026 448.368 351.825L447.295 350.661Z" fill="#7682F4" stroke="#7682F4" stroke-linejoin="round"/>
</g>
<defs>
<filter id="filter0_d_135_1656" x="0" y="0" width="636" height="612" filterUnits="userSpaceOnUse" color-interpolation-filters="sRGB">
<feFlood flood-opacity="0" result="BackgroundImageFix"/>
<feColorMatrix in="SourceAlpha" type="matrix" values="0 0 0 0 0 0 0 0 0 0 0 0 0 0 0 0 0 0 127 0" result="hardAlpha"/>
<feOffset dy="6"/>
<feGaussianBlur stdDeviation="18"/>
<feColorMatrix type="matrix" values="0 0 0 0 0 0 0 0 0 0 0 0 0 0 0 0 0 0 0.1 0"/>
<feBlend mode="normal" in2="BackgroundImageFix" result="effect1_dropShadow_135_1656"/>
<feBlend mode="normal" in="SourceGraphic" in2="effect1_dropShadow_135_1656" result="shape"/>
</filter>
</defs>
</svg>
