<svg width="16" height="16" viewBox="0 0 16 16" fill="none" xmlns="http://www.w3.org/2000/svg">
<path d="M9.35009 14.5925V9.39318H14.5925C15.526 9.37882 16 8.91921 16 8.01436C16 7.10952 15.526 6.64991 14.5925 6.64991H9.35009V1.4219C9.35009 0.473968 8.90485 0 8 0C7.08079 0.0143627 6.62119 0.48833 6.62119 1.4219V6.64991H1.40754C0.473968 6.63555 0 7.09515 0 8.01436C0 8.93357 0.473968 9.39318 1.40754 9.39318H6.62119V14.5925C6.62119 15.526 7.08079 16 7.98564 16C8.89048 16 9.35009 15.526 9.35009 14.5925Z" fill="black"/>
</svg>
