<svg width="1200" height="628" viewBox="0 0 1200 628" fill="none" xmlns="http://www.w3.org/2000/svg">
<g clip-path="url(#clip0_1138_1015)">
<g style="mix-blend-mode:soft-light" opacity="0.35">
<path d="M417.411 597.392C349.284 734.048 188.257 787.001 57.7485 715.665C-72.7605 644.328 -123.331 475.716 -55.2039 339.058C12.9233 202.402 173.95 149.449 304.459 220.787C434.968 292.124 485.538 460.734 417.411 597.392ZM369.288 571.088C423.542 462.26 383.27 327.985 279.338 271.176C175.407 214.367 47.1721 256.535 -7.0817 365.362C-61.3354 474.191 -21.063 608.465 82.869 665.276C186.8 722.085 315.035 679.915 369.288 571.088Z" fill="white"/>
<path d="M210.766 464.66L205.228 446.51C340.876 364.96 432.834 312.164 481.103 288.124C501.201 277.89 518.645 271.096 533.434 267.742C539.207 266.807 543.321 267.013 545.775 268.36C547.89 269.288 549.275 271.208 549.928 274.121C552.482 285.223 531.179 303.861 486.021 330.034C450.448 351.185 358.696 396.061 210.766 464.66Z" fill="white"/>
<path d="M150.712 415.055L166.117 404.914C104.373 228.894 66.5504 126.47 52.6484 97.6408C41.5433 72.5373 32.3863 55.5712 25.1774 46.7427C18.5775 38.9139 13.3188 36.6467 9.4015 39.9409C6.68686 41.9939 5.15227 44.7599 4.79776 48.2392L4.38841 54.5431C4.45151 59.2852 5.1864 65.1067 6.59311 72.0079C7.48019 80.6542 14.9066 103.931 28.8723 141.838C47.081 188.623 87.6941 279.696 150.712 415.055Z" fill="white"/>
<path d="M212.974 468.049L197.569 478.19C251.102 632.084 288.925 734.508 311.038 785.463C320.107 806.851 329.264 823.817 338.509 836.361C342.348 840.972 345.62 843.59 348.326 844.216C350.514 844.934 352.755 844.4 355.047 842.614C363.833 835.848 359.014 807.221 340.592 756.735C326.409 716.557 283.87 620.328 212.974 468.049Z" fill="white"/>
<path d="M136.525 465.454L142.063 483.604C-13.4812 576.532 -105.44 629.327 -133.813 641.99C-157.754 653.692 -175.198 660.486 -186.144 662.372C-196.009 663.905 -201.425 662.09 -202.393 656.927C-203.206 653.526 -202.677 650.375 -200.806 647.476L-197.239 642.379C-194.273 638.796 -190.128 634.84 -184.805 630.512C-178.805 624.499 -158.801 611.712 -124.792 592.151C-82.0744 568.664 5.03122 526.431 136.525 465.454Z" fill="white"/>
<path d="M192.348 486.062L174.607 481.827C108.536 630.283 66.1142 730.713 47.3414 783.116C39.311 804.954 34.3289 823.731 32.395 839.446C31.9958 845.549 32.5415 849.823 34.0319 852.269C35.0943 854.397 37.0392 855.678 39.8666 856.113C50.648 857.833 66.5721 834.024 87.6391 784.685C104.742 745.772 139.645 646.232 192.348 486.062Z" fill="white"/>
<path d="M140.042 427.623L131.701 444.557C-41.0393 395.1 -141.717 364.344 -170.33 352.29C-195.162 342.838 -212.084 334.726 -221.098 327.955C-229.109 321.735 -231.713 316.441 -228.911 312.074C-227.188 309.067 -224.687 307.231 -221.406 306.566L-215.442 305.603C-210.925 305.266 -205.323 305.538 -198.636 306.419C-190.333 306.609 -167.553 312.379 -130.296 323.728C-84.2288 338.748 5.88368 373.38 140.042 427.623Z" fill="white"/>
<path d="M193.075 482.031L201.415 465.097C352.404 507.868 453.081 538.624 503.447 557.364C524.569 565.008 541.492 573.12 554.214 581.699C558.927 585.312 561.697 588.504 562.522 591.273C563.392 593.495 563.074 595.878 561.569 598.422C555.878 608.163 528.229 605.569 478.622 590.64C439.185 579.257 344.002 543.054 193.075 482.031Z" fill="white"/>
<path d="M184.108 402.49L201.85 406.725C277.055 236.545 319.477 136.115 329.114 105.437C338.214 79.4637 343.197 60.687 344.061 49.1068C344.681 38.6844 342.493 33.1876 337.499 32.6165C334.193 32.0581 331.24 32.8777 328.64 35.0755L324.094 39.2297C320.936 42.6298 317.524 47.2905 313.859 53.2116C308.647 59.982 298.18 81.9396 282.456 119.085C263.738 165.649 230.955 260.118 184.108 402.49Z" fill="white"/>
<path d="M137.14 457.682V886.524L237.676 886.527V457.682L137.14 457.682Z" fill="white"/>
<path d="M262.756 494.306L257.348 504.368C244.551 523.698 227.29 535.671 205.567 540.286C183.737 544.836 162.421 540.495 141.62 527.262C122.245 513.581 109.943 495.583 104.715 473.267C99.5477 450.844 103.119 429.234 115.43 408.435C128.227 389.105 145.487 377.132 167.211 372.517C189.041 367.967 210.356 372.308 231.157 385.54C250.533 399.222 262.835 417.22 268.063 439.536C269.717 446.732 270.453 454.044 270.271 461.47L269.259 472.561C268.109 479.967 265.942 487.215 262.756 494.306Z" fill="white"/>
</g>
</g>
<defs>
<clipPath id="clip0_1138_1015">
<rect width="1200" height="628" fill="white"/>
</clipPath>
</defs>
</svg>
