<svg width="1280" height="720" viewBox="0 0 1280 720" fill="none" xmlns="http://www.w3.org/2000/svg">
<rect width="1280" height="720" fill="white"/>
<path fill-rule="evenodd" clip-rule="evenodd" d="M84.5724 122.87C88.4836 120.612 88.4901 113.301 84.5869 106.54C80.6837 99.7799 74.3489 96.1302 70.4377 98.3885C66.5265 100.647 66.52 107.958 70.4231 114.718C74.3263 121.478 80.6612 125.128 84.5724 122.87ZM84.5958 137.345C88.499 144.106 88.4925 151.417 84.5813 153.675C80.67 155.933 74.3352 152.283 70.432 145.523C66.5288 138.763 66.5353 131.452 70.4465 129.194C74.3578 126.935 80.6926 130.585 84.5958 137.345ZM111.25 152.755C115.153 159.515 115.146 166.826 111.235 169.085C107.324 171.343 100.989 167.693 97.0857 160.933C93.1826 154.172 93.1891 146.861 97.1003 144.603C101.011 142.345 107.346 145.995 111.25 152.755ZM111.241 121.95C115.144 128.711 115.138 136.022 111.226 138.28C107.315 140.538 100.98 136.888 97.0771 130.128C93.1739 123.368 93.1804 116.057 97.0916 113.799C101.003 111.54 107.338 115.19 111.241 121.95Z" fill="#F26E7E"/>
<path fill-rule="evenodd" clip-rule="evenodd" d="M164.561 114.735C168.464 107.975 168.458 100.664 164.547 98.4054C160.636 96.1472 154.301 99.7969 150.397 106.557C146.494 113.318 146.501 120.629 150.412 122.887C154.323 125.145 160.658 121.495 164.561 114.735ZM164.562 129.203C168.473 131.461 168.48 138.772 164.577 145.533C160.673 152.293 154.339 155.943 150.427 153.684C146.516 151.426 146.51 144.115 150.413 137.355C154.316 130.595 160.651 126.945 164.562 129.203ZM137.914 144.588C141.825 146.846 141.831 154.157 137.928 160.917C134.025 167.677 127.69 171.327 123.779 169.069C119.868 166.811 119.861 159.5 123.764 152.739C127.668 145.979 134.002 142.329 137.914 144.588ZM137.899 113.79C141.81 116.048 141.816 123.359 137.913 130.119C134.01 136.88 127.675 140.529 123.764 138.271C119.853 136.013 119.846 128.702 123.749 121.942C127.653 115.181 133.987 111.532 137.899 113.79Z" fill="#8A3391"/>
<path fill-rule="evenodd" clip-rule="evenodd" d="M131.622 72.1777C131.622 76.6941 125.294 80.3554 117.487 80.3554C109.681 80.3554 103.353 76.6941 103.353 72.1777C103.353 67.6613 109.681 64 117.487 64C125.294 64 131.622 67.6613 131.622 72.1777ZM104.974 87.5464C104.974 92.0628 98.6457 95.7241 90.8393 95.7241C83.0329 95.7241 76.7046 92.0628 76.7046 87.5464C76.7046 83.03 83.0329 79.3687 90.8393 79.3687C98.6457 79.3687 104.974 83.03 104.974 87.5464ZM144.17 95.7241C151.977 95.7241 158.305 92.0628 158.305 87.5464C158.305 83.03 151.977 79.3687 144.17 79.3687C136.364 79.3687 130.036 83.03 130.036 87.5464C130.036 92.0628 136.364 95.7241 144.17 95.7241ZM131.622 102.95C131.622 107.466 125.294 111.127 117.487 111.127C109.681 111.127 103.353 107.466 103.353 102.95C103.353 98.4332 109.681 94.7719 117.487 94.7719C125.294 94.7719 131.622 98.4332 131.622 102.95Z" fill="#F7BF2A"/>
<path fill-rule="evenodd" clip-rule="evenodd" d="M321.218 84H326.473C328.104 84 329.01 84.906 329.01 86.5368V147.556C329.01 149.187 328.104 150.093 326.473 150.093H321.218C319.587 150.093 318.681 149.187 318.681 147.556V86.5368C318.681 84.906 319.587 84 321.218 84ZM220.154 150.093C221.785 150.093 222.691 149.187 222.691 147.556V127.126H233.336C246.836 127.126 255.307 119.062 255.307 106.922C255.307 94.8265 246.836 86.7178 233.336 86.7178H214.537C212.906 86.7178 212 87.6238 212 89.2546V147.556C212 149.187 212.906 150.093 214.537 150.093H220.154ZM222.691 95.7325H232.657C240.267 95.7325 244.571 100.127 244.571 106.922C244.571 113.762 240.267 118.156 232.657 118.156H222.691V95.7325ZM262.918 105.744V132.109C262.918 143.66 270.393 151.135 281.673 151.135C287.652 151.135 292.771 148.19 295.942 143.887V147.556C295.942 149.187 296.848 150.093 298.479 150.093H303.779C305.41 150.093 306.316 149.187 306.316 147.556V105.744C306.316 104.113 305.41 103.207 303.779 103.207H298.479C296.848 103.207 295.942 104.113 295.942 105.744V128.756C295.942 136.548 290.325 142.029 283.802 142.029C277.55 142.029 273.247 137.59 273.247 131.248V105.744C273.247 104.113 272.341 103.207 270.71 103.207H265.455C263.824 103.207 262.918 104.113 262.918 105.744ZM340.517 105.744V132.109C340.517 143.66 347.991 151.135 359.271 151.135C365.251 151.135 370.37 148.19 373.541 143.887V147.556C373.541 149.187 374.447 150.093 376.078 150.093H381.378C383.009 150.093 383.915 149.187 383.915 147.556V105.744C383.915 104.113 383.009 103.207 381.378 103.207H376.078C374.447 103.207 373.541 104.113 373.541 105.744V128.756C373.541 136.548 367.924 142.029 361.4 142.029C355.149 142.029 350.845 137.59 350.845 131.248V105.744C350.845 104.113 349.939 103.207 348.309 103.207H343.054C341.423 103.207 340.517 104.113 340.517 105.744ZM468.897 121.192V147.602C468.897 149.232 467.991 150.138 466.361 150.138H461.061C459.43 150.138 458.524 149.232 458.524 147.602V122.098C458.524 115.755 454.583 111.316 448.784 111.316C442.94 111.316 437.414 117.205 437.414 124.317V147.602C437.414 149.232 436.508 150.138 434.877 150.138H429.577C427.946 150.138 427.04 149.232 427.04 147.602V122.098C427.04 115.755 423.099 111.316 417.301 111.316C411.729 111.316 405.93 116.661 405.93 124.317V147.602C405.93 149.232 405.024 150.138 403.393 150.138H398.093C396.463 150.138 395.557 149.232 395.557 147.602V105.744C395.557 104.113 396.463 103.207 398.093 103.207H403.393C405.024 103.207 405.93 104.113 405.93 105.744V109.323C409.237 104.974 413.994 102.12 419.475 102.12C426.542 102.12 432.476 105.789 435.421 111.86C438.501 105.971 444.209 102.12 450.913 102.12C461.106 102.12 468.897 109.64 468.897 121.192ZM492 90.4328C492 86.8541 489.191 84.0908 485.567 84.0908C481.943 84.0908 479.18 86.8541 479.18 90.4328C479.18 93.9662 481.943 96.7295 485.567 96.7295C489.191 96.7295 492 93.9662 492 90.4328ZM490.732 105.744C490.732 104.113 489.826 103.207 488.195 103.207H482.94C481.309 103.207 480.403 104.113 480.403 105.744V147.556C480.403 149.187 481.309 150.093 482.94 150.093H488.195C489.826 150.093 490.732 149.187 490.732 147.556V105.744Z" fill="black"/>
<path d="M1122.47 553.543C1124.27 552.872 1127.03 551.297 1128.85 551.615C1129.59 551.746 1131 551.938 1131.92 552.028C1132.84 552.118 1140.56 552.082 1141.5 551.914C1144.56 551.375 1147.23 550.052 1150.22 549.267C1152.29 548.724 1154.46 548.738 1156.52 549.309C1158.69 549.782 1162.67 550.507 1164.97 550.004C1168.49 549.237 1169.9 548.369 1173.51 547.926C1178.36 547.327 1181.21 550.722 1185.58 550.872C1188.36 550.962 1191.57 549.387 1194.21 550.441C1196.47 551.357 1198.26 553.603 1197.49 552.555C1195.63 549.962 1193.62 547.351 1190.88 545.632C1183.81 541.183 1175.77 540.243 1167.65 539.243C1163.81 538.758 1160.03 537.656 1156.16 538.099C1152.7 538.494 1149.16 538.65 1145.71 539.123C1142.25 539.596 1138.65 540.967 1135.35 542.171L1122.47 553.543Z" fill="#F26E7E"/>
<path d="M1077.99 589.394C1070.29 588.556 1059.09 582.208 1057.03 580.292C1051.04 574.627 1053.02 565.596 1056.39 559.213C1061.85 548.919 1073.45 543.332 1083.24 538.032C1087.63 535.637 1098.28 531.283 1111.75 530.768C1121.26 530.409 1131.36 531.583 1137.54 533.379C1140.49 534.241 1147.52 535.343 1150.6 535.595C1155.15 535.972 1154.12 535.086 1158.58 535.457C1148.31 543.721 1134.86 546.009 1123.76 552.763C1117.89 556.356 1111.43 559.949 1106.22 564.429C1103.32 566.926 1100.03 568.824 1097.1 571.303C1094.93 573.148 1090.81 574.896 1089.59 577.519" fill="#8A3391"/>
<path d="M1097.53 544.627C1097.53 544.627 1110.51 531.955 1128.61 542.596L1104 563.472L1097.53 544.627Z" fill="#F26E7E"/>
<path d="M1112.72 563.52C1115.18 563.232 1121.24 574.107 1123.39 570.532C1138.29 545.746 1160.79 540.836 1174.29 542.063C1190.87 543.572 1194.72 549.77 1198.78 555.022C1199.38 555.807 1199.97 556.418 1200.06 556.597C1191.72 538.788 1179.37 531.901 1165.13 530.063C1151.83 528.362 1138.18 529.65 1125.95 537.147C1114.57 544.111 1110.08 551.519 1110.08 551.519C1110.08 551.519 1113.93 551.944 1112.72 563.52Z" fill="#BD4C85"/>
<path d="M1116.53 545.914C1116.53 545.914 1134.28 532.35 1162.35 533.302C1171.98 533.632 1187.84 536.003 1197.57 551.747C1189.33 537.321 1177.74 531.698 1164.8 530.039C1151.51 528.332 1134.86 528.308 1122.89 536.207C1115.52 541.057 1116.53 545.914 1116.53 545.914Z" fill="#8A3391"/>
<path d="M1139.01 626.517C1135.3 627.133 1131.72 628.381 1128.43 630.206C1125.11 632.003 1121.99 636.494 1120.09 639.668C1118.89 641.632 1118.46 642.812 1117.28 644.8C1116.4 646.285 1115.57 648.327 1114.52 649.656C1113.03 651.537 1109.52 650.854 1107.74 650.573C1103.79 649.944 1100.72 648.692 1096.96 647.207C1093.63 645.872 1089.78 643.866 1087.51 641.027C1086.22 639.41 1087.34 638.033 1088.75 638.033C1087.67 635.117 1089.05 632.566 1092.29 633.691C1091.51 630.35 1092.4 627.296 1095.68 627.787C1098.96 628.278 1100.94 631.308 1103.06 633.236C1104.08 634.176 1106.45 636.326 1107.71 636.925C1109.47 637.763 1109.84 637.524 1110.96 635.973C1113.32 632.757 1114.17 630.865 1116.45 628.589C1119.73 625.32 1124.18 621.619 1128.88 620.727" fill="url(#paint0_linear)"/>
<path d="M1137.1 625.362C1133.87 626.17 1130.76 627.43 1127.89 629.104C1124.43 631.11 1121.17 636.075 1119.19 639.596C1117.99 641.776 1117.5 643.081 1116.26 645.291C1115.39 646.848 1114.57 648.956 1113.55 650.429C1113.95 650.242 1114.29 649.968 1114.57 649.626C1115.62 648.297 1116.45 646.255 1117.33 644.77C1118.53 642.782 1118.96 641.602 1120.14 639.638C1122.04 636.464 1125.16 631.985 1128.47 630.176C1131.77 628.362 1135.35 627.125 1139.06 626.517L1137.1 625.362Z" fill="#B8BDF0"/>
<path d="M1074.35 584.551C1073.4 591.138 1068.66 595.719 1061.97 594.312C1058.41 593.569 1057.43 592.318 1056.47 588.958C1055.64 586.036 1053.52 583.88 1050.17 584.102C1046.82 584.323 1044.29 586.749 1043.29 590.09C1042.12 593.977 1044.68 597.659 1047.68 599.959C1053.07 604.085 1061.85 605.121 1068.04 603.396C1076.66 601.001 1078.93 592.941 1081.81 585.868" fill="url(#paint1_linear)"/>
<path d="M1067.4 600.971C1061.2 602.714 1053.46 601.971 1048.08 597.845C1045.94 596.198 1043.51 594.468 1043.02 591.857C1042.85 595.132 1045.11 598.144 1047.69 600.121C1053.08 604.247 1061.86 605.283 1068.05 603.558C1076.67 601.163 1078.94 593.102 1081.82 586.03L1081.11 585.904C1077.6 589.677 1076.54 598.402 1067.4 600.971Z" fill="#B8BDF0"/>
<path d="M1053.85 589.234C1052.6 591.995 1053.51 594.707 1057.54 593.24C1061.4 591.839 1061.34 587.497 1058.84 586.761C1057.85 586.577 1056.83 586.718 1055.93 587.164C1055.03 587.61 1054.3 588.337 1053.85 589.234Z" fill="url(#paint2_linear)"/>
<path d="M1057.37 591.905C1055.61 592.414 1054.31 592.462 1053.42 592.198C1053.77 593.474 1055.07 594.138 1057.53 593.24C1058.25 593.022 1058.91 592.621 1059.43 592.076C1059.96 591.53 1060.33 590.859 1060.52 590.126C1059.65 590.994 1058.56 591.609 1057.37 591.905Z" fill="#B8BDF0"/>
<path d="M1140.61 611.546C1150.25 614.253 1163.3 609.708 1175.76 602.851C1187.27 596.522 1195 593.971 1200.61 594.587C1210.2 595.647 1210.43 606.307 1200.32 612.373C1190.06 618.517 1168.98 625.128 1136.66 626.948C1127.04 627.493 1142.36 622.673 1132.67 620.595C1125.33 619.026 1132.72 611.379 1126.23 608.396" fill="url(#paint3_linear)"/>
<path d="M1057.43 547.992C1057.15 536.458 1060 532.53 1066.25 528.829C1072.4 525.152 1083.02 522.991 1092.11 525.913C1103.54 529.566 1108.06 537.099 1113.5 545.866C1115.14 548.507 1115.5 551.89 1120.4 557.244C1130.5 568.311 1139.96 573.443 1151.35 585.952C1172.4 609.049 1166.36 621.841 1166.36 621.841C1166.36 621.841 1144.8 628.074 1130.95 627.116C1118.57 626.248 1110.45 625.757 1098.99 617.948C1088.03 610.475 1073.63 590.683 1067.28 577.616C1066.49 575.958 1057.88 565.436 1057.43 547.992Z" fill="url(#paint4_linear)"/>
<path d="M1198.49 611.055C1189.7 616.08 1176.15 619.11 1155.38 623.194C1149.05 624.439 1142.13 625.769 1131.29 624.99C1118.91 624.116 1110.98 623.35 1099.34 615.822C1080.63 603.762 1066.84 576.844 1067.64 578.491C1073.98 591.557 1088 610.624 1098.98 618.098C1110.44 625.913 1118.24 627.523 1130.23 628.212C1152.63 629.494 1166.72 623.505 1173.05 622.224C1186.18 619.589 1194.82 616.637 1201.87 611.69C1209.48 606.361 1207.68 599.827 1207.68 599.827C1207.68 599.827 1208.32 605.438 1198.49 611.055Z" fill="#B8BDF0"/>
<path d="M1202.42 633.434C1199.92 629.116 1197.36 626.709 1194.23 624.002C1192.51 622.508 1190.71 621.109 1188.84 619.81C1187.43 618.84 1184.91 617.092 1180.59 618.948C1177.56 620.242 1174 622.182 1171.17 621.517C1167.62 620.691 1163.33 616.726 1161.37 614.481L1150.98 619.086L1152.65 620.787C1155.68 624.487 1161.19 628.422 1165.46 630.53C1169.72 632.638 1173.77 631.5 1178.49 630.362L1179.54 630.11C1182.2 633.29 1183.73 637.512 1185.52 641.225C1186.25 642.704 1187.32 644.692 1189.12 644.872C1191.67 645.117 1192.41 643.201 1192.66 640.68C1193.29 641.758 1195.19 643.74 1196.75 643.674C1198.93 643.614 1199.07 640.955 1198.93 638.662C1200.47 640.692 1202.12 641.159 1203.21 639.83C1204.37 638.41 1203.55 635.392 1202.42 633.434Z" fill="url(#paint5_linear)"/>
<path d="M1202.42 633.434C1201.37 631.6 1200.13 629.88 1198.73 628.302C1198.72 629.258 1198.65 630.212 1198.51 631.158C1198.14 633.59 1196.66 637.967 1193.58 636.434C1192.57 635.925 1191.27 634.416 1189.99 635.266C1188.85 636.033 1189.13 638.225 1187.83 638.793C1186.53 639.362 1185.66 637.554 1184.87 636.841C1184.09 636.129 1183.71 636.392 1183.52 636.985C1184.19 638.416 1184.82 639.859 1185.49 641.231C1186.22 642.71 1187.29 644.698 1189.09 644.878C1191.64 645.123 1192.38 643.207 1192.63 640.686C1193.26 641.764 1195.16 643.746 1196.72 643.68C1198.9 643.62 1199.04 640.961 1198.9 638.668C1200.44 640.698 1202.09 641.165 1203.18 639.835C1204.37 638.41 1203.55 635.392 1202.42 633.434Z" fill="#B8BDF0"/>
<path d="M1179.49 628.523C1177.12 628.523 1175.3 629.176 1173.17 629.284C1170.63 629.436 1168.09 629.119 1165.67 628.35C1163.58 627.416 1161.64 626.183 1159.91 624.691C1157.2 622.469 1151.97 618.505 1149.85 618.505C1149.85 618.505 1157.68 626.655 1162.43 629.284C1165.12 630.966 1168.24 631.833 1171.41 631.781C1174.66 631.667 1180.05 629.985 1181.29 629.811C1181.96 629.668 1182.66 629.72 1183.3 629.961C1183.3 629.961 1182.33 628.523 1179.49 628.523Z" fill="#B8BDF0"/>
<path d="M1156.12 622.409C1153.23 617.756 1137.09 613.211 1137.41 618.181C1135.88 617.098 1134.17 616.288 1132.36 615.786C1131.5 615.523 1127.93 615.151 1128.47 617.463C1127.27 616.804 1117.93 610.343 1118.51 614.552C1116 612.576 1112.09 610.037 1109.16 610.828C1107.36 611.319 1107.42 613.54 1108.05 614.523C1105.81 612.978 1101.57 610.253 1099.17 610.684C1097.97 610.977 1098.57 612.738 1100.12 614.073C1098.57 612.659 1096.84 611.451 1094.99 610.48C1093.64 609.835 1092.15 609.532 1090.66 609.6C1090.26 610.594 1090.77 611.025 1092 612.229C1092 612.229 1104.84 626.463 1123.92 626.601C1123.92 626.625 1150.56 628.314 1156.12 622.409Z" fill="#B8BDF0"/>
<path d="M1144.44 529.458C1148.92 521.02 1145.72 519.547 1145.72 519.547C1144.26 518.817 1142.79 519.194 1141.42 521.26C1139.62 523.985 1138.2 529.859 1138.2 529.859C1138.31 527.188 1138.34 525.524 1138.3 524.326C1138.13 518.427 1135.09 519.002 1135.09 519.002C1132.26 519.38 1131.88 523.793 1131.8 527.602C1131.8 528.685 1131.63 531.398 1131.59 532.278C1129.46 532.392 1126.53 533.392 1126.8 535.518C1126.8 535.518 1127.29 539.153 1131.07 538.291C1128.96 553.537 1123.07 562.244 1119.48 566.226C1117.79 568.131 1118.24 570.945 1118.24 570.945L1121.11 576.515C1133.25 567.736 1139.38 547.106 1141.37 539.057C1145.06 538.458 1147.11 535.309 1147.11 535.309C1148.99 531.704 1146.48 530.105 1144.44 529.458Z" fill="url(#paint6_linear)"/>
<path d="M1126.84 535.662C1126.84 535.662 1127.14 539.321 1131.51 539.476C1131.51 539.476 1136.68 539.566 1136.86 535.883C1136.86 535.901 1127.85 537.291 1126.84 535.662Z" fill="#B8BDF0"/>
<path d="M1138.45 532.434C1138.45 532.434 1134.95 537.225 1139.89 538.77C1139.89 538.77 1142.89 540.399 1147.08 535.308L1138.45 532.434Z" fill="#B8BDF0"/>
<path d="M1115.35 561.843C1117.51 567.107 1109.04 568.562 1108.07 571.263C1106.27 576.287 1097.97 573.574 1092.01 574.688C1085.13 575.982 1084.87 576.88 1077.81 577.018C1074.82 577.071 1071.66 576.826 1068.68 576.754C1066.66 577.227 1069.76 580.299 1071.51 581.545C1072.74 582.344 1074.05 583.026 1075.42 583.581C1075.42 583.581 1075.61 589.485 1077.87 591.324C1079.11 592.348 1080.04 591.252 1080.96 590.156C1082.7 588.072 1083.72 585.659 1083.45 583.174C1083.17 586.611 1087 594.042 1090.42 593.701C1093.45 593.402 1094.35 586.132 1094.38 583.802C1094.38 582.94 1096.78 581.958 1102.54 580.664C1107.33 579.587 1114.02 575.946 1116.61 571.496C1120.2 565.304 1117.26 559.478 1119.12 555.292L1116.61 556.549L1115.35 561.843Z" fill="#4D5BD9"/>
<path d="M1149.54 677.251C1198.39 677.251 1238 673.709 1238 669.34C1238 664.971 1198.39 661.429 1149.54 661.429C1100.68 661.429 1061.08 664.971 1061.08 669.34C1061.08 673.709 1100.68 677.251 1149.54 677.251Z" fill="#6E2974"/>
<path d="M1149.44 671.071C1184.75 671.071 1213.36 669.006 1213.36 666.46C1213.36 663.913 1184.75 661.849 1149.44 661.849C1114.14 661.849 1085.52 663.913 1085.52 666.46C1085.52 669.006 1114.14 671.071 1149.44 671.071Z" fill="#BD4C85"/>
<path d="M1083.09 559.496C1081.82 559.422 1080.56 559.627 1079.38 560.094L1083.09 559.496Z" fill="#FFA400"/>
<path d="M1148.1 668.442C1174.59 668.442 1196.07 667.166 1196.07 665.591C1196.07 664.017 1174.59 662.741 1148.1 662.741C1121.6 662.741 1100.12 664.017 1100.12 665.591C1100.12 667.166 1121.6 668.442 1148.1 668.442Z" fill="#F26E7E"/>
<path d="M1177.53 485.791C1176.47 484.642 1175.86 483.157 1175.8 481.599C1175.74 483.158 1175.13 484.645 1174.07 485.791C1173.27 486.533 1172.24 486.973 1171.15 487.036C1175.74 487.767 1175.34 491.737 1175.77 494.959C1176.13 491.899 1175.8 487.773 1180.4 487.036C1179.33 486.96 1178.31 486.521 1177.53 485.791Z" fill="white"/>
<path d="M1161.65 488.827C1161.04 488.156 1160.69 487.293 1160.66 486.39C1160.62 487.295 1160.27 488.158 1159.66 488.827C1159.2 489.253 1158.6 489.507 1157.98 489.545C1160.15 490.025 1160.41 490.743 1160.66 492.617C1160.87 490.821 1161.29 490.3 1163.35 489.545C1162.71 489.511 1162.11 489.257 1161.65 488.827Z" fill="white"/>
<path d="M1143.26 489.899C1143.74 489.899 1144.12 489.515 1144.12 489.043C1144.12 488.57 1143.74 488.186 1143.26 488.186C1142.79 488.186 1142.41 488.57 1142.41 489.043C1142.41 489.515 1142.79 489.899 1143.26 489.899Z" fill="#F26E7E"/>
<path d="M1132.53 510.343C1133.02 510.343 1133.42 509.941 1133.42 509.445C1133.42 508.949 1133.02 508.547 1132.53 508.547C1132.03 508.547 1131.63 508.949 1131.63 509.445C1131.63 509.941 1132.03 510.343 1132.53 510.343Z" fill="#F26E7E"/>
<path d="M1139.71 519.924C1140.21 519.924 1140.61 519.522 1140.61 519.026C1140.61 518.53 1140.21 518.128 1139.71 518.128C1139.22 518.128 1138.81 518.53 1138.81 519.026C1138.81 519.522 1139.22 519.924 1139.71 519.924Z" fill="#F26E7E"/>
<path d="M1166.73 508.678C1167.26 508.678 1167.69 508.247 1167.69 507.714C1167.69 507.182 1167.26 506.75 1166.73 506.75C1166.19 506.75 1165.76 507.182 1165.76 507.714C1165.76 508.247 1166.19 508.678 1166.73 508.678Z" fill="#F7BF2A"/>
<path d="M1188.28 484.126C1188.82 484.126 1189.25 483.694 1189.25 483.162C1189.25 482.629 1188.82 482.198 1188.28 482.198C1187.75 482.198 1187.32 482.629 1187.32 483.162C1187.32 483.694 1187.75 484.126 1188.28 484.126Z" fill="#F26E7E"/>
<path d="M1175.71 497.899C1176.24 497.899 1176.67 497.468 1176.67 496.935C1176.67 496.403 1176.24 495.971 1175.71 495.971C1175.18 495.971 1174.74 496.403 1174.74 496.935C1174.74 497.468 1175.18 497.899 1175.71 497.899Z" fill="#F7BF2A"/>
<path d="M1181.1 490.713C1181.63 490.713 1182.06 490.282 1182.06 489.749C1182.06 489.217 1181.63 488.785 1181.1 488.785C1180.57 488.785 1180.13 489.217 1180.13 489.749C1180.13 490.282 1180.57 490.713 1181.1 490.713Z" fill="#F7BF2A"/>
<path d="M1138.58 517.062C1139.11 517.062 1139.54 516.63 1139.54 516.098C1139.54 515.565 1139.11 515.134 1138.58 515.134C1138.05 515.134 1137.62 515.565 1137.62 516.098C1137.62 516.63 1138.05 517.062 1138.58 517.062Z" fill="#F7BF2A"/>
<path d="M1164.33 493.108C1164.86 493.108 1165.29 492.677 1165.29 492.144C1165.29 491.612 1164.86 491.18 1164.33 491.18C1163.8 491.18 1163.37 491.612 1163.37 492.144C1163.37 492.677 1163.8 493.108 1164.33 493.108Z" fill="#F26E7E"/>
<path d="M1155.24 519.841C1155.71 519.841 1156.1 519.457 1156.1 518.984C1156.1 518.511 1155.71 518.128 1155.24 518.128C1154.77 518.128 1154.38 518.511 1154.38 518.984C1154.38 519.457 1154.77 519.841 1155.24 519.841Z" fill="#805AC3"/>
<path d="M1132.72 517.326C1133 517.326 1133.22 517.103 1133.22 516.829C1133.22 516.554 1133 516.331 1132.72 516.331C1132.45 516.331 1132.23 516.554 1132.23 516.829C1132.23 517.103 1132.45 517.326 1132.72 517.326Z" fill="#805AC3"/>
<path d="M1168.65 498.762C1168.93 498.762 1169.15 498.539 1169.15 498.265C1169.15 497.99 1168.93 497.768 1168.65 497.768C1168.38 497.768 1168.16 497.99 1168.16 498.265C1168.16 498.539 1168.38 498.762 1168.65 498.762Z" fill="#805AC3"/>
<path d="M1194.4 481.994C1194.68 481.994 1194.9 481.772 1194.9 481.497C1194.9 481.223 1194.68 481 1194.4 481C1194.13 481 1193.91 481.223 1193.91 481.497C1193.91 481.772 1194.13 481.994 1194.4 481.994Z" fill="#805AC3"/>
<path d="M1136.8 508.606C1137.27 508.606 1137.65 508.223 1137.65 507.75C1137.65 507.277 1137.27 506.894 1136.8 506.894C1136.32 506.894 1135.94 507.277 1135.94 507.75C1135.94 508.223 1136.32 508.606 1136.8 508.606Z" fill="#805AC3"/>
<path d="M1172.61 490.498C1173.08 490.498 1173.46 490.114 1173.46 489.641C1173.46 489.168 1173.08 488.785 1172.61 488.785C1172.13 488.785 1171.75 489.168 1171.75 489.641C1171.75 490.114 1172.13 490.498 1172.61 490.498Z" fill="#805AC3"/>
<path d="M1133.62 506.229C1133.39 505.941 1133.21 505.606 1133.11 505.247C1132.92 504.792 1132.63 504.798 1132.44 505.247C1132.33 505.622 1132.14 505.97 1131.89 506.271C1131.59 506.515 1131.26 506.716 1130.91 506.87C1130.86 506.891 1130.82 506.926 1130.79 506.971C1130.76 507.017 1130.74 507.07 1130.74 507.124C1130.74 507.179 1130.76 507.232 1130.79 507.278C1130.82 507.323 1130.86 507.358 1130.91 507.379C1131.27 507.435 1131.61 507.593 1131.89 507.833C1132.16 508.074 1132.36 508.388 1132.47 508.738C1132.6 509.086 1132.9 509.098 1133.07 508.738C1133.32 508.092 1133.56 507.732 1134.66 507.295C1134.72 507.275 1134.76 507.24 1134.79 507.194C1134.83 507.148 1134.84 507.094 1134.84 507.038C1134.84 506.982 1134.83 506.927 1134.79 506.881C1134.76 506.835 1134.72 506.8 1134.66 506.78C1134.29 506.663 1133.93 506.476 1133.62 506.229Z" fill="white"/>
<path d="M1129.81 515.392C1129.62 515.212 1129.6 514.985 1129.46 514.709C1129.33 514.434 1129.2 514.524 1129.12 514.709C1129.04 514.967 1128.91 515.206 1128.74 515.416C1128.56 515.57 1128.36 515.697 1128.14 515.793C1128.11 515.806 1128.08 515.827 1128.06 515.855C1128.04 515.883 1128.03 515.915 1128.03 515.949C1128.03 515.982 1128.04 516.015 1128.06 516.043C1128.08 516.071 1128.11 516.092 1128.14 516.105C1128.38 516.14 1128.6 516.246 1128.77 516.408C1128.95 516.57 1129.07 516.782 1129.13 517.015C1129.21 517.224 1129.35 517.224 1129.43 517.015C1129.6 516.572 1129.72 516.344 1130.45 516.057C1130.48 516.043 1130.5 516.021 1130.52 515.993C1130.54 515.965 1130.55 515.932 1130.55 515.898C1130.55 515.864 1130.54 515.832 1130.52 515.803C1130.5 515.775 1130.48 515.753 1130.45 515.739C1130.22 515.663 1130 515.545 1129.81 515.392Z" fill="white"/>
<path d="M1150.17 519.584C1149.98 519.404 1149.96 519.177 1149.82 518.901C1149.69 518.626 1149.56 518.716 1149.48 518.901C1149.4 519.16 1149.27 519.402 1149.1 519.614C1148.92 519.764 1148.72 519.889 1148.5 519.985C1148.47 519.998 1148.44 520.019 1148.42 520.047C1148.41 520.075 1148.4 520.107 1148.4 520.141C1148.4 520.174 1148.41 520.207 1148.42 520.235C1148.44 520.263 1148.47 520.284 1148.5 520.297C1148.74 520.333 1148.96 520.439 1149.14 520.603C1149.31 520.766 1149.44 520.979 1149.49 521.213C1149.57 521.422 1149.71 521.422 1149.79 521.213C1149.96 520.77 1150.08 520.536 1150.81 520.249C1150.84 520.235 1150.86 520.213 1150.88 520.185C1150.9 520.156 1150.91 520.124 1150.91 520.09C1150.91 520.056 1150.9 520.024 1150.88 519.995C1150.86 519.967 1150.84 519.945 1150.81 519.931C1150.57 519.857 1150.36 519.739 1150.17 519.584Z" fill="white"/>
<path d="M1137.22 512.499C1137.07 512.325 1136.96 512.12 1136.9 511.9C1136.78 511.625 1136.6 511.625 1136.49 511.9C1136.41 512.119 1136.29 512.322 1136.14 512.499C1135.96 512.648 1135.76 512.773 1135.55 512.87C1135.51 512.883 1135.49 512.904 1135.47 512.932C1135.45 512.96 1135.44 512.992 1135.44 513.026C1135.44 513.059 1135.45 513.092 1135.47 513.12C1135.49 513.148 1135.51 513.169 1135.55 513.182C1135.77 513.217 1135.98 513.314 1136.15 513.464C1136.32 513.613 1136.44 513.808 1136.51 514.026C1136.59 514.236 1136.78 514.242 1136.86 514.026C1137.02 513.625 1137.17 513.427 1137.85 513.128C1137.88 513.114 1137.91 513.092 1137.93 513.064C1137.94 513.035 1137.95 513.003 1137.95 512.969C1137.95 512.935 1137.94 512.903 1137.93 512.874C1137.91 512.846 1137.88 512.824 1137.85 512.81C1137.62 512.747 1137.41 512.641 1137.22 512.499Z" fill="white"/>
<path d="M1096.96 556.627C1096.96 556.627 1098.53 566.304 1094.37 575.083L1088.51 574.814L1096.96 556.627Z" fill="#3E49AE"/>
<path d="M1119.17 553.771C1117.03 557.962 1119.69 565.634 1115.58 571.82C1112.59 576.275 1106.22 578.916 1100.73 579.994C1094.09 581.293 1093.3 581.359 1093.3 582.203C1093.27 584.533 1092.7 590.743 1089.2 591.048C1085.27 591.407 1081.93 585.018 1082.26 581.605C1081.96 583.694 1081.9 586.844 1080.46 588.563C1079.51 589.719 1078.26 590.958 1076.83 589.958C1074.24 588.12 1075.18 583.233 1075.18 583.233C1073.57 582.771 1072.02 582.135 1070.55 581.335C1068.54 580.072 1065.4 575.305 1067.71 574.832C1071.15 574.904 1074.81 575.149 1078.22 575.095C1086.34 574.957 1088.76 572.7 1096.79 571.963C1102.7 571.418 1107.05 569.568 1110.35 566.921C1118.24 560.615 1119.47 550.651 1117.72 546.932C1117.72 546.932 1120.72 551.405 1120.01 552.645" fill="#F7BF2A"/>
<path d="M1072.98 582.203C1070.49 580.527 1078.13 577.329 1075.12 577.844C1072.82 578.233 1070.38 578.778 1068.63 577.167C1068.29 576.804 1068.04 576.366 1067.91 575.887C1067.77 575.409 1067.75 574.906 1067.85 574.418L1089.21 559.244C1089.88 560.382 1090.91 561.112 1091.68 562.112C1092.66 563.406 1090.69 572.55 1090.69 572.55L1095.09 572.149C1094.2 574.22 1093.42 576.337 1092.75 578.491C1091.66 582.179 1089.92 583.155 1086.54 583.808C1085.26 584.044 1083.96 584.163 1082.66 584.162C1082.53 584.162 1082.17 583.036 1082.17 583.036C1082.17 583.036 1082.02 584.162 1081.88 584.162C1078.52 584.12 1074.9 583.503 1072.98 582.203Z" fill="#8A3391"/>
<path d="M1061.21 551.136C1060.01 545.872 1064.21 542.225 1070.27 539.872C1075.06 538.021 1082.93 538.632 1086.12 539.656C1090.73 541.129 1094.38 544.063 1096.72 549.237C1098.52 553.256 1096.94 558.986 1096.12 563.238C1094.93 569.484 1093.57 573.418 1089.54 577.467C1085.75 581.299 1082.58 583.251 1077.46 584.054C1073.27 584.695 1067.28 582.515 1061.65 581.772C1056.01 581.03 1050.79 581.658 1047.61 578.461C1040.47 571.233 1057.07 559.723 1060.85 554.507C1061.41 553.747 1061.93 552.932 1061.21 551.136Z" fill="#F26E7E"/>
<path d="M1096.79 549.213C1094.45 544.063 1090.8 541.135 1086.18 539.632C1082.99 538.614 1075.11 537.997 1070.34 539.848C1066.24 541.482 1063 543.638 1061.7 546.507C1063.16 543.932 1065.82 542.081 1069.74 540.884C1075.88 539.087 1082.06 539.728 1085.25 540.752C1089.87 542.225 1093.52 545.159 1095.85 550.303C1097.65 554.322 1096.71 559.549 1095.91 563.801C1095.26 567.238 1094.54 569.975 1093.37 572.418C1094.73 569.825 1095.5 566.927 1096.21 563.208C1097.01 558.956 1098.61 553.232 1096.79 549.213Z" fill="#B90078"/>
<path d="M1089.6 575.952C1085.81 579.796 1083.16 580.742 1078.64 581.67C1073.94 582.647 1067.76 580.113 1061.1 579.275C1056.25 578.676 1050.36 579.736 1047.63 576.97C1046.68 576.059 1046.08 574.853 1045.91 573.55C1045.78 574.446 1045.87 575.36 1046.17 576.216C1046.46 577.071 1046.96 577.843 1047.62 578.467C1050.68 581.557 1055.28 581.461 1060.74 582.227C1066.52 583.06 1071.17 584.623 1077.51 584.024C1082.66 583.539 1085.57 581.431 1089.61 577.64C1091.7 575.578 1093.32 573.088 1094.36 570.34C1095.27 568.029 1095.89 565.616 1096.22 563.154C1096.22 563.154 1094.35 571.125 1089.6 575.952Z" fill="#F7A8B2"/>
<path d="M1064.13 565.34C1063.5 566.634 1062.39 567.394 1061.66 567.041C1060.93 566.688 1060.85 565.346 1061.48 564.047C1062.11 562.747 1063.22 561.993 1063.95 562.352C1064.68 562.711 1064.76 564.047 1064.13 565.34ZM1075.41 563.454C1074.68 563.095 1073.57 563.855 1072.94 565.149C1072.31 566.442 1072.39 567.784 1073.12 568.143C1073.85 568.502 1074.96 567.742 1075.59 566.448C1076.22 565.155 1076.14 563.807 1075.41 563.454Z" fill="#131314"/>
<path d="M1063.96 562.334C1063.23 561.975 1062.12 562.735 1061.49 564.029C1061.27 564.468 1061.13 564.942 1061.08 565.43C1061.12 565.34 1061.15 565.25 1061.2 565.155C1061.83 563.861 1062.94 563.101 1063.67 563.46C1064.13 563.681 1064.33 564.298 1064.27 565.047C1064.74 563.843 1064.63 562.663 1063.96 562.334Z" fill="#910090"/>
<path d="M1072.66 566.256C1073.25 564.963 1074.39 564.202 1075.12 564.562C1075.58 564.783 1075.78 565.4 1075.72 566.149C1076.22 564.951 1076.1 563.753 1075.43 563.436C1074.75 563.118 1073.59 563.837 1072.96 565.131C1072.74 565.57 1072.6 566.044 1072.55 566.532C1072.58 566.442 1072.61 566.346 1072.66 566.256Z" fill="#910090"/>
<path d="M1061.34 553.717C1061.34 553.717 1064.01 550.429 1065.07 547.501C1065.07 547.501 1062.67 545.483 1061.18 547.986C1060.63 549.866 1060.69 551.871 1061.34 553.717Z" fill="#F7A8B2"/>
<path d="M1063.17 542.393C1065.1 542.393 1066.67 540.827 1066.67 538.896C1066.67 536.964 1065.1 535.398 1063.17 535.398C1061.24 535.398 1059.67 536.964 1059.67 538.896C1059.67 540.827 1061.24 542.393 1063.17 542.393Z" fill="#FEF9EA"/>
<path d="M1064 540.764C1065.15 540.764 1066.09 539.828 1066.09 538.674C1066.09 537.52 1065.15 536.584 1064 536.584C1062.84 536.584 1061.91 537.52 1061.91 538.674C1061.91 539.828 1062.84 540.764 1064 540.764Z" fill="#131314"/>
<path d="M1093.55 539.279C1094.59 539.279 1095.44 538.432 1095.44 537.387C1095.44 536.341 1094.59 535.494 1093.55 535.494C1092.5 535.494 1091.66 536.341 1091.66 537.387C1091.66 538.432 1092.5 539.279 1093.55 539.279Z" fill="black"/>
<path d="M1110.19 646.063C1107 644.351 1104.6 642.686 1102.51 640.356C1100.91 638.619 1099.41 636.785 1098.04 634.865C1097.32 633.775 1096.38 631.979 1095.27 630.913C1093.91 629.613 1092.66 629.715 1092.12 631.014C1091.9 631.553 1092.12 635.422 1094.77 637.284C1093.93 636.395 1092.93 635.659 1091.84 635.111C1090.53 634.512 1089.55 634.853 1089.13 635.29C1087.7 636.775 1089.46 639.787 1090.48 640.452C1089.94 639.949 1088.84 639.147 1087.81 639.542C1087.49 639.668 1086.99 640.141 1087.21 640.452C1089.46 643.991 1093.99 646.243 1097.32 647.572C1100.69 648.995 1104.23 650 1107.85 650.567C1109.51 650.83 1112.64 651.483 1114.31 649.914C1114.92 648.704 1112.07 647.069 1110.19 646.063Z" fill="#B8BDF0"/>
<path d="M1123.29 546.501C1121.89 548.926 1124.66 554.028 1124.42 556.759C1123.95 562.274 1122.45 565.143 1119.83 568.736C1118.41 570.664 1115.97 573.472 1110.25 576.52C1110.57 574.27 1111.18 572.069 1112.05 569.969C1112.76 568.352 1113.99 566.933 1114.72 565.298C1116.49 561.305 1117.63 557.064 1118.12 552.723L1123.29 546.501Z" fill="#F7BF2A"/>
<path d="M1092.28 541.099C1094.34 541.099 1096 539.432 1096 537.374C1096 535.317 1094.34 533.65 1092.28 533.65C1090.22 533.65 1088.55 535.317 1088.55 537.374C1088.55 539.432 1090.22 541.099 1092.28 541.099Z" fill="#FEF9EA"/>
<path d="M1093.17 539.237C1094.33 539.237 1095.26 538.301 1095.26 537.147C1095.26 535.993 1094.33 535.057 1093.17 535.057C1092.02 535.057 1091.08 535.993 1091.08 537.147C1091.08 538.301 1092.02 539.237 1093.17 539.237Z" fill="#131314"/>
<path fill-rule="evenodd" clip-rule="evenodd" d="M1140.15 504.901C1141.14 504.329 1141.14 502.476 1140.15 500.763C1139.16 499.05 1137.56 498.125 1136.56 498.697C1135.57 499.269 1135.57 501.122 1136.56 502.835C1137.55 504.549 1139.15 505.473 1140.15 504.901ZM1140.15 508.57C1141.14 510.283 1141.14 512.135 1140.15 512.708C1139.16 513.28 1137.55 512.355 1136.56 510.642C1135.57 508.929 1135.58 507.076 1136.57 506.504C1137.56 505.931 1139.16 506.856 1140.15 508.57ZM1146.91 512.475C1147.9 514.188 1147.89 516.041 1146.9 516.613C1145.91 517.185 1144.31 516.26 1143.32 514.547C1142.33 512.834 1142.33 510.981 1143.32 510.409C1144.31 509.837 1145.92 510.762 1146.91 512.475ZM1146.9 504.668C1147.89 506.381 1147.89 508.234 1146.9 508.806C1145.91 509.379 1144.3 508.454 1143.31 506.741C1142.33 505.027 1142.33 503.175 1143.32 502.602C1144.31 502.03 1145.92 502.955 1146.9 504.668Z" fill="#F26E7E"/>
<path fill-rule="evenodd" clip-rule="evenodd" d="M1160.42 502.84C1161.41 501.126 1161.4 499.274 1160.41 498.701C1159.42 498.129 1157.82 499.054 1156.83 500.767C1155.84 502.48 1155.84 504.333 1156.83 504.905C1157.82 505.478 1159.43 504.553 1160.42 502.84ZM1160.42 506.506C1161.41 507.078 1161.41 508.931 1160.42 510.644C1159.43 512.358 1157.83 513.282 1156.83 512.71C1155.84 512.138 1155.84 510.285 1156.83 508.572C1157.82 506.859 1159.43 505.934 1160.42 506.506ZM1153.66 510.405C1154.65 510.977 1154.66 512.83 1153.67 514.543C1152.68 516.256 1151.07 517.181 1150.08 516.609C1149.09 516.037 1149.09 514.184 1150.08 512.471C1151.07 510.758 1152.67 509.833 1153.66 510.405ZM1153.66 502.6C1154.65 503.172 1154.65 505.025 1153.66 506.738C1152.67 508.452 1151.07 509.376 1150.08 508.804C1149.09 508.232 1149.08 506.379 1150.07 504.666C1151.06 502.953 1152.67 502.028 1153.66 502.6Z" fill="#8A3391"/>
<path fill-rule="evenodd" clip-rule="evenodd" d="M1152.07 492.055C1152.07 493.199 1150.47 494.127 1148.49 494.127C1146.51 494.127 1144.91 493.199 1144.91 492.055C1144.91 490.91 1146.51 489.982 1148.49 489.982C1150.47 489.982 1152.07 490.91 1152.07 492.055ZM1145.32 495.95C1145.32 497.094 1143.71 498.022 1141.73 498.022C1139.76 498.022 1138.15 497.094 1138.15 495.95C1138.15 494.805 1139.76 493.877 1141.73 493.877C1143.71 493.877 1145.32 494.805 1145.32 495.95ZM1155.25 498.022C1157.23 498.022 1158.83 497.094 1158.83 495.95C1158.83 494.805 1157.23 493.877 1155.25 493.877C1153.27 493.877 1151.67 494.805 1151.67 495.95C1151.67 497.094 1153.27 498.022 1155.25 498.022ZM1152.07 499.853C1152.07 500.998 1150.47 501.925 1148.49 501.925C1146.51 501.925 1144.91 500.998 1144.91 499.853C1144.91 498.708 1146.51 497.781 1148.49 497.781C1150.47 497.781 1152.07 498.708 1152.07 499.853Z" fill="#F7BF2A"/>
<path d="M102.912 314.2L90.112 335.384L77.248 314.2H68.16V359H76.992V330.008L89.6 350.744H90.624L103.232 329.944V359H112V314.2H102.912ZM147.228 355.032C150.492 351.768 152.156 347.736 152.156 343C152.156 338.264 150.492 334.296 147.228 331.032C143.964 327.768 139.932 326.104 135.196 326.104C130.46 326.104 126.428 327.768 123.164 331.032C119.9 334.296 118.299 338.264 118.299 343C118.299 347.736 119.9 351.768 123.164 355.032C126.428 358.296 130.46 359.896 135.196 359.896C139.932 359.896 143.964 358.296 147.228 355.032ZM128.988 349.336C127.388 347.672 126.556 345.56 126.556 343C126.556 340.44 127.388 338.328 128.988 336.664C130.652 335 132.7 334.168 135.196 334.168C137.692 334.168 139.74 335 141.404 336.664C143.068 338.328 143.9 340.44 143.9 343C143.9 345.56 143.068 347.672 141.404 349.336C139.74 351 137.692 351.832 135.196 351.832C132.7 351.832 130.652 351 128.988 349.336ZM182.22 330.776C179.788 327.64 176.332 326.104 171.852 326.104C167.564 326.104 163.852 327.768 160.78 331.032C157.772 334.296 156.236 338.264 156.236 343C156.236 347.736 157.772 351.768 160.78 355.032C163.852 358.296 167.564 359.896 171.852 359.896C176.332 359.896 179.788 358.36 182.22 355.224V359H190.476V314.2H182.22V330.776ZM166.988 349.528C165.324 347.8 164.492 345.624 164.492 343C164.492 340.376 165.324 338.2 166.988 336.536C168.716 334.808 170.828 333.976 173.388 333.976C175.948 333.976 178.06 334.808 179.724 336.536C181.388 338.2 182.22 340.376 182.22 343C182.22 345.624 181.388 347.8 179.724 349.528C178.06 351.192 175.948 352.024 173.388 352.024C170.828 352.024 168.716 351.192 166.988 349.528ZM229.13 346.392C229.322 345.176 229.45 344.088 229.45 343C229.45 338.2 227.914 334.232 224.842 330.968C221.834 327.704 217.93 326.104 213.258 326.104C208.33 326.104 204.234 327.704 201.098 330.968C197.962 334.168 196.362 338.2 196.362 343C196.362 347.864 197.962 351.896 201.162 355.096C204.362 358.296 208.586 359.896 213.898 359.896C220.042 359.896 224.714 357.592 227.85 353.048L221.194 349.208C219.594 351.32 217.162 352.408 214.026 352.408C209.098 352.408 206.09 350.424 205.002 346.392H229.13ZM204.874 339.992C205.834 335.896 208.842 333.528 213.258 333.528C217.034 333.528 220.234 335.64 221.194 339.992H204.874ZM243.47 327H235.214V359H243.47V343.704C243.47 340.632 244.43 338.456 246.414 337.112C248.398 335.768 250.702 335.256 253.198 335.576V326.36C248.846 326.36 245.006 328.408 243.47 332.504V327ZM275.818 326.104C271.466 326.104 268.266 327.576 266.282 330.584V327H258.026V359H266.282V341.72C266.282 336.408 269.034 333.784 273.322 333.784C277.162 333.784 279.658 336.088 279.658 340.376V359H287.914V339.352C287.914 335.192 286.762 331.992 284.458 329.624C282.218 327.256 279.338 326.104 275.818 326.104ZM311.348 359H320.18V314.2H311.348V359ZM345.881 326.104C341.529 326.104 338.329 327.576 336.345 330.584V327H328.089V359H336.345V341.72C336.345 336.408 339.097 333.784 343.385 333.784C347.225 333.784 349.721 336.088 349.721 340.376V359H357.977V339.352C357.977 335.192 356.825 331.992 354.521 329.624C352.281 327.256 349.401 326.104 345.881 326.104ZM382.242 313.304C372.258 312.728 367.202 317.656 367.202 326.68V327H362.594V334.936H367.202V359H375.458V334.936H382.242V327H375.458V326.68C375.458 322.712 377.698 320.92 382.242 321.24V313.304ZM394.282 327H386.026V359H394.282V343.704C394.282 340.632 395.242 338.456 397.226 337.112C399.21 335.768 401.514 335.256 404.01 335.576V326.36C399.658 326.36 395.818 328.408 394.282 332.504V327ZM431.971 330.776C429.475 327.64 426.019 326.104 421.539 326.104C417.251 326.104 413.603 327.768 410.531 331.032C407.523 334.296 405.987 338.264 405.987 343C405.987 347.736 407.523 351.768 410.531 355.032C413.603 358.296 417.251 359.896 421.539 359.896C426.019 359.896 429.475 358.36 431.971 355.224V359H440.227V327H431.971V330.776ZM416.739 349.528C415.075 347.8 414.243 345.624 414.243 343C414.243 340.376 415.075 338.2 416.739 336.536C418.403 334.808 420.515 333.976 423.075 333.976C425.635 333.976 427.747 334.808 429.411 336.536C431.139 338.2 431.971 340.376 431.971 343C431.971 345.624 431.139 347.8 429.411 349.528C427.747 351.192 425.635 352.024 423.075 352.024C420.515 352.024 418.403 351.192 416.739 349.528ZM455.08 336.088C455.08 334.488 456.68 333.464 458.792 333.464C461.16 333.464 462.888 334.552 463.912 336.728L470.952 332.888C468.456 328.536 463.976 326.104 458.792 326.104C455.336 326.104 452.456 327 450.088 328.856C447.784 330.648 446.632 333.144 446.632 336.28C446.632 342.936 452.584 344.92 457.32 346.136C460.583 346.968 463.144 347.928 463.144 349.656C463.144 351.512 461.672 352.408 458.728 352.408C455.464 352.408 453.416 351 452.456 348.248L445.288 352.28C447.656 357.336 452.135 359.896 458.728 359.896C462.376 359.896 465.448 359 467.88 357.272C470.376 355.48 471.592 352.92 471.592 349.656C471.656 342.808 465.576 340.568 460.904 339.608C457.64 338.776 455.08 337.816 455.08 336.088ZM494.268 327H487.036V318.04L478.78 320.536V327H473.212V334.936H478.78V348.248C478.78 357.016 482.94 360.28 494.268 359V351.512C489.532 351.768 487.036 351.704 487.036 348.248V334.936H494.268V327ZM508.845 327H500.589V359H508.845V343.704C508.845 340.632 509.805 338.456 511.789 337.112C513.773 335.768 516.077 335.256 518.573 335.576V326.36C514.221 326.36 510.381 328.408 508.845 332.504V327ZM544.521 344.28C544.521 349.592 541.769 352.216 537.481 352.216C533.641 352.216 531.145 349.912 531.145 345.624V327H522.889V346.648C522.889 350.808 524.041 354.008 526.281 356.376C528.585 358.744 531.465 359.896 534.985 359.896C539.337 359.896 542.537 358.424 544.521 355.416V359H552.777V327H544.521V344.28ZM575.571 359.896C581.779 359.896 587.219 356.632 590.035 351.576L582.867 347.48C581.587 350.104 578.835 351.704 575.507 351.704C573.01 351.704 570.963 350.872 569.363 349.272C567.763 347.608 566.931 345.496 566.931 343C566.931 337.88 570.579 334.232 575.507 334.232C578.771 334.232 581.523 335.896 582.803 338.52L589.907 334.36C587.283 329.304 581.779 326.104 575.571 326.104C570.771 326.104 566.739 327.704 563.475 330.968C560.275 334.232 558.674 338.2 558.674 343C558.674 347.8 560.275 351.768 563.475 355.032C566.739 358.296 570.771 359.896 575.571 359.896ZM612.705 327H605.473V318.04L597.217 320.536V327H591.649V334.936H597.217V348.248C597.217 357.016 601.377 360.28 612.705 359V351.512C607.969 351.768 605.473 351.704 605.473 348.248V334.936H612.705V327ZM640.146 344.28C640.146 349.592 637.394 352.216 633.106 352.216C629.266 352.216 626.77 349.912 626.77 345.624V327H618.514V346.648C618.514 350.808 619.666 354.008 621.906 356.376C624.21 358.744 627.09 359.896 630.61 359.896C634.962 359.896 638.162 358.424 640.146 355.416V359H648.402V327H640.146V344.28ZM664.22 327H655.964V359H664.22V343.704C664.22 340.632 665.18 338.456 667.164 337.112C669.148 335.768 671.452 335.256 673.948 335.576V326.36C669.596 326.36 665.756 328.408 664.22 332.504V327ZM708.693 346.392C708.885 345.176 709.013 344.088 709.013 343C709.013 338.2 707.477 334.232 704.405 330.968C701.397 327.704 697.493 326.104 692.821 326.104C687.893 326.104 683.797 327.704 680.661 330.968C677.525 334.168 675.924 338.2 675.924 343C675.924 347.864 677.525 351.896 680.725 355.096C683.925 358.296 688.149 359.896 693.461 359.896C699.605 359.896 704.277 357.592 707.413 353.048L700.757 349.208C699.157 351.32 696.725 352.408 693.589 352.408C688.661 352.408 685.653 350.424 684.565 346.392H708.693ZM684.437 339.992C685.397 335.896 688.405 333.528 692.821 333.528C696.597 333.528 699.797 335.64 700.757 339.992H684.437ZM755.096 330.776C752.6 327.64 749.144 326.104 744.664 326.104C740.376 326.104 736.728 327.768 733.656 331.032C730.648 334.296 729.112 338.264 729.112 343C729.112 347.736 730.648 351.768 733.656 355.032C736.728 358.296 740.376 359.896 744.664 359.896C749.144 359.896 752.6 358.36 755.096 355.224V359H763.352V327H755.096V330.776ZM739.864 349.528C738.2 347.8 737.368 345.624 737.368 343C737.368 340.376 738.2 338.2 739.864 336.536C741.528 334.808 743.64 333.976 746.2 333.976C748.76 333.976 750.872 334.808 752.536 336.536C754.264 338.2 755.096 340.376 755.096 343C755.096 345.624 754.264 347.8 752.536 349.528C750.872 351.192 748.76 352.024 746.2 352.024C743.64 352.024 741.528 351.192 739.864 349.528ZM778.205 336.088C778.205 334.488 779.805 333.464 781.917 333.464C784.285 333.464 786.013 334.552 787.037 336.728L794.077 332.888C791.581 328.536 787.101 326.104 781.917 326.104C778.461 326.104 775.581 327 773.213 328.856C770.909 330.648 769.757 333.144 769.757 336.28C769.757 342.936 775.709 344.92 780.445 346.136C783.708 346.968 786.269 347.928 786.269 349.656C786.269 351.512 784.797 352.408 781.853 352.408C778.589 352.408 776.541 351 775.581 348.248L768.413 352.28C770.781 357.336 775.26 359.896 781.853 359.896C785.501 359.896 788.573 359 791.005 357.272C793.501 355.48 794.717 352.92 794.717 349.656C794.781 342.808 788.701 340.568 784.029 339.608C780.765 338.776 778.205 337.816 778.205 336.088ZM837.971 359.896C846.163 359.896 853.395 355.8 857.235 349.336L849.619 344.92C847.507 348.824 843.091 351.256 837.971 351.256C833.619 351.256 830.099 349.912 827.411 347.16C824.787 344.408 823.443 340.888 823.443 336.6C823.443 332.248 824.787 328.728 827.411 325.976C830.099 323.224 833.619 321.88 837.971 321.88C843.091 321.88 847.379 324.248 849.619 328.28L857.235 323.864C853.395 317.4 846.099 313.304 837.971 313.304C831.251 313.304 825.683 315.544 821.267 320.024C816.851 324.44 814.674 330.008 814.674 336.6C814.674 343.192 816.851 348.696 821.267 353.176C825.683 357.656 831.251 359.896 837.971 359.896ZM889.728 355.032C892.992 351.768 894.656 347.736 894.656 343C894.656 338.264 892.992 334.296 889.728 331.032C886.464 327.768 882.432 326.104 877.696 326.104C872.96 326.104 868.928 327.768 865.664 331.032C862.4 334.296 860.799 338.264 860.799 343C860.799 347.736 862.4 351.768 865.664 355.032C868.928 358.296 872.96 359.896 877.696 359.896C882.432 359.896 886.464 358.296 889.728 355.032ZM871.488 349.336C869.888 347.672 869.056 345.56 869.056 343C869.056 340.44 869.888 338.328 871.488 336.664C873.152 335 875.2 334.168 877.696 334.168C880.192 334.168 882.24 335 883.904 336.664C885.568 338.328 886.4 340.44 886.4 343C886.4 345.56 885.568 347.672 883.904 349.336C882.24 351 880.192 351.832 877.696 351.832C875.2 351.832 873.152 351 871.488 349.336ZM924.72 330.776C922.288 327.64 918.832 326.104 914.352 326.104C910.064 326.104 906.352 327.768 903.28 331.032C900.272 334.296 898.736 338.264 898.736 343C898.736 347.736 900.272 351.768 903.28 355.032C906.352 358.296 910.064 359.896 914.352 359.896C918.832 359.896 922.288 358.36 924.72 355.224V359H932.976V314.2H924.72V330.776ZM909.488 349.528C907.824 347.8 906.992 345.624 906.992 343C906.992 340.376 907.824 338.2 909.488 336.536C911.216 334.808 913.328 333.976 915.888 333.976C918.448 333.976 920.56 334.808 922.224 336.536C923.888 338.2 924.72 340.376 924.72 343C924.72 345.624 923.888 347.8 922.224 349.528C920.56 351.192 918.448 352.024 915.888 352.024C913.328 352.024 911.216 351.192 909.488 349.528ZM971.63 346.392C971.822 345.176 971.95 344.088 971.95 343C971.95 338.2 970.414 334.232 967.342 330.968C964.334 327.704 960.43 326.104 955.758 326.104C950.83 326.104 946.734 327.704 943.598 330.968C940.462 334.168 938.862 338.2 938.862 343C938.862 347.864 940.462 351.896 943.662 355.096C946.862 358.296 951.086 359.896 956.398 359.896C962.542 359.896 967.214 357.592 970.35 353.048L963.694 349.208C962.094 351.32 959.662 352.408 956.526 352.408C951.598 352.408 948.59 350.424 947.502 346.392H971.63ZM947.374 339.992C948.334 335.896 951.342 333.528 955.758 333.528C959.534 333.528 962.734 335.64 963.694 339.992H947.374Z" fill="black"/>
<path d="M67.6 407.4V441H80.704C85.264 441 89.056 439.368 92.08 436.152C95.104 432.888 96.64 428.904 96.64 424.2C96.64 419.496 95.104 415.512 92.08 412.296C89.056 409.032 85.264 407.4 80.704 407.4H67.6ZM72.064 436.776V411.624H80.704C84.112 411.624 86.944 412.824 89.104 415.224C91.264 417.624 92.368 420.6 92.368 424.2C92.368 427.8 91.264 430.776 89.104 433.176C86.944 435.576 84.112 436.776 80.704 436.776H72.064ZM124.661 430.92C124.757 430.296 124.805 429.672 124.805 429.048C124.805 425.544 123.701 422.568 121.445 420.12C119.237 417.624 116.357 416.376 112.853 416.376C109.157 416.376 106.133 417.576 103.781 419.976C101.429 422.376 100.277 425.4 100.277 429C100.277 432.648 101.477 435.672 103.829 438.072C106.229 440.424 109.349 441.624 113.141 441.624C117.845 441.624 121.349 439.8 123.701 436.2L120.149 434.184C118.709 436.536 116.405 437.688 113.237 437.688C108.677 437.688 105.365 435.192 104.549 430.92H124.661ZM112.853 420.312C116.693 420.312 119.861 422.712 120.581 427.272H104.549C105.269 423.048 108.389 420.312 112.853 420.312ZM142.854 416.376C138.87 416.376 135.846 417.96 133.782 421.128V417H129.605V450.6H133.782V436.872C135.846 440.04 138.87 441.624 142.854 441.624C146.214 441.624 149.094 440.424 151.446 437.976C153.798 435.528 154.998 432.504 154.998 429C154.998 425.496 153.798 422.52 151.446 420.072C149.094 417.624 146.214 416.376 142.854 416.376ZM142.326 437.592C139.878 437.592 137.862 436.776 136.23 435.144C134.598 433.464 133.782 431.448 133.782 429C133.782 426.552 134.598 424.536 136.23 422.904C137.862 421.224 139.878 420.408 142.326 420.408C144.726 420.408 146.742 421.224 148.374 422.904C150.006 424.536 150.822 426.552 150.822 429C150.822 431.448 150.006 433.464 148.374 435.144C146.742 436.776 144.726 437.592 142.326 437.592ZM164.157 441V405.96H159.98V441H164.157ZM190.783 437.976C193.231 435.528 194.479 432.552 194.479 429C194.479 425.448 193.231 422.472 190.783 420.024C188.335 417.576 185.311 416.376 181.807 416.376C178.303 416.376 175.279 417.576 172.831 420.024C170.383 422.472 169.183 425.448 169.183 429C169.183 432.552 170.383 435.528 172.831 437.976C175.279 440.424 178.303 441.624 181.807 441.624C185.311 441.624 188.335 440.424 190.783 437.976ZM181.807 437.544C179.455 437.544 177.439 436.728 175.807 435.096C174.175 433.464 173.359 431.448 173.359 429C173.359 426.552 174.175 424.536 175.807 422.904C177.439 421.272 179.455 420.456 181.807 420.456C184.207 420.456 186.223 421.272 187.855 422.904C189.487 424.536 190.303 426.552 190.303 429C190.303 431.448 189.487 433.464 187.855 435.096C186.223 436.728 184.207 437.544 181.807 437.544ZM208.305 435.816L200.145 417H195.681L206.145 440.904L205.713 441.816C204.321 445.32 202.161 446.952 199.233 446.712V450.6C204.033 450.936 207.825 447.912 209.889 442.488L219.681 417H215.217L208.305 435.816ZM249.088 416.376C245.728 416.376 243.232 417.72 241.552 420.456C240.064 417.72 237.712 416.376 234.496 416.376C231.376 416.376 228.976 417.672 227.344 420.216V417H223.168V441H227.344V427.656C227.344 422.808 229.984 420.36 233.488 420.36C236.608 420.36 238.576 422.52 238.576 426.216V441H242.752V427.656C242.752 422.712 245.056 420.36 248.656 420.36C251.872 420.36 253.936 422.52 253.936 426.216V441H258.112V426.072C258.112 420.12 254.464 416.376 249.088 416.376ZM286.942 430.92C287.038 430.296 287.086 429.672 287.086 429.048C287.086 425.544 285.982 422.568 283.726 420.12C281.518 417.624 278.638 416.376 275.134 416.376C271.438 416.376 268.414 417.576 266.062 419.976C263.71 422.376 262.558 425.4 262.558 429C262.558 432.648 263.758 435.672 266.11 438.072C268.51 440.424 271.63 441.624 275.422 441.624C280.126 441.624 283.63 439.8 285.982 436.2L282.43 434.184C280.99 436.536 278.686 437.688 275.518 437.688C270.958 437.688 267.646 435.192 266.83 430.92H286.942ZM275.134 420.312C278.974 420.312 282.142 422.712 282.862 427.272H266.83C267.55 423.048 270.67 420.312 275.134 420.312ZM303.839 416.376C300.335 416.376 297.743 417.72 296.063 420.456V417H291.887V441H296.063V428.28C296.063 422.904 298.847 420.36 303.023 420.36C306.719 420.36 308.975 422.616 308.975 426.504V441H313.151V426.264C313.151 420.168 309.455 416.376 303.839 416.376ZM332.037 417H325.653V410.28L321.477 411.528V417H316.725V421.032H321.477V434.04C321.477 439.992 324.741 441.96 332.037 441V437.256C327.765 437.448 325.653 437.736 325.653 434.04V421.032H332.037V417ZM360.401 441.624C363.857 441.624 366.641 440.76 368.801 439.032C370.961 437.256 372.017 434.904 372.017 431.976C372.017 429.864 371.537 428.136 370.337 426.936C369.521 425.976 369.089 425.448 367.745 424.728C366.449 424.008 366.065 423.768 364.385 423.144C363.569 422.808 362.993 422.616 362.609 422.472L360.641 421.848C358.049 421.032 356.225 420.216 355.169 419.448C354.113 418.68 353.585 417.576 353.585 416.088C353.585 413.016 356.033 411.096 359.681 411.096C363.329 411.096 365.873 412.824 367.313 416.28L371.057 414.12C369.089 409.704 365.009 406.776 359.681 406.776C356.753 406.776 354.257 407.64 352.193 409.368C350.129 411.048 349.121 413.352 349.121 416.28C349.121 418.728 350.129 420.696 351.233 421.896C351.761 422.472 352.577 423.048 353.681 423.624C354.785 424.152 355.745 424.584 356.465 424.872L359.681 425.928C362.513 426.84 364.577 427.656 365.777 428.472C366.977 429.288 367.601 430.488 367.601 432.072C367.601 435.192 365.105 437.256 360.497 437.256C355.841 437.256 352.817 435.24 351.521 431.16L347.681 433.368C349.457 438.504 354.113 441.624 360.401 441.624ZM393.431 429.72C393.431 435.096 390.647 437.64 386.471 437.64C382.775 437.64 380.519 435.384 380.519 431.496V417H376.343V431.736C376.343 437.832 380.039 441.624 385.655 441.624C389.159 441.624 391.751 440.28 393.431 437.544V441H397.607V417H393.431V429.72ZM417.213 416.376C413.229 416.376 410.205 417.96 408.141 421.128V417H403.965V450.6H408.141V436.872C410.205 440.04 413.229 441.624 417.213 441.624C420.573 441.624 423.453 440.424 425.805 437.976C428.157 435.528 429.357 432.504 429.357 429C429.357 425.496 428.157 422.52 425.805 420.072C423.453 417.624 420.573 416.376 417.213 416.376ZM416.685 437.592C414.237 437.592 412.221 436.776 410.589 435.144C408.957 433.464 408.141 431.448 408.141 429C408.141 426.552 408.957 424.536 410.589 422.904C412.221 421.224 414.237 420.408 416.685 420.408C419.085 420.408 421.101 421.224 422.733 422.904C424.365 424.536 425.181 426.552 425.181 429C425.181 431.448 424.365 433.464 422.733 435.144C421.101 436.776 419.085 437.592 416.685 437.592ZM457.38 430.92C457.476 430.296 457.524 429.672 457.524 429.048C457.524 425.544 456.42 422.568 454.164 420.12C451.956 417.624 449.076 416.376 445.572 416.376C441.876 416.376 438.852 417.576 436.5 419.976C434.148 422.376 432.996 425.4 432.996 429C432.996 432.648 434.196 435.672 436.548 438.072C438.948 440.424 442.068 441.624 445.86 441.624C450.564 441.624 454.068 439.8 456.42 436.2L452.868 434.184C451.428 436.536 449.124 437.688 445.956 437.688C441.396 437.688 438.084 435.192 437.268 430.92H457.38ZM445.572 420.312C449.412 420.312 452.58 422.712 453.3 427.272H437.268C437.988 423.048 441.108 420.312 445.572 420.312ZM466.5 417H462.324V441H466.5V428.28C466.5 425.64 467.22 423.768 468.708 422.568C470.196 421.368 471.924 420.84 473.988 420.936V416.568C470.388 416.568 467.892 418.056 466.5 421.032V417ZM491.322 416.376C487.338 416.376 484.314 417.96 482.25 421.128V417H478.074V450.6H482.25V436.872C484.314 440.04 487.338 441.624 491.322 441.624C494.682 441.624 497.562 440.424 499.914 437.976C502.266 435.528 503.466 432.504 503.466 429C503.466 425.496 502.266 422.52 499.914 420.072C497.562 417.624 494.682 416.376 491.322 416.376ZM490.794 437.592C488.346 437.592 486.33 436.776 484.698 435.144C483.066 433.464 482.25 431.448 482.25 429C482.25 426.552 483.066 424.536 484.698 422.904C486.33 421.224 488.346 420.408 490.794 420.408C493.194 420.408 495.21 421.224 496.842 422.904C498.474 424.536 499.29 426.552 499.29 429C499.29 431.448 498.474 433.464 496.842 435.144C495.21 436.776 493.194 437.592 490.794 437.592ZM528.705 437.976C531.153 435.528 532.401 432.552 532.401 429C532.401 425.448 531.153 422.472 528.705 420.024C526.257 417.576 523.233 416.376 519.729 416.376C516.225 416.376 513.201 417.576 510.753 420.024C508.305 422.472 507.105 425.448 507.105 429C507.105 432.552 508.305 435.528 510.753 437.976C513.201 440.424 516.225 441.624 519.729 441.624C523.233 441.624 526.257 440.424 528.705 437.976ZM519.729 437.544C517.377 437.544 515.361 436.728 513.729 435.096C512.097 433.464 511.281 431.448 511.281 429C511.281 426.552 512.097 424.536 513.729 422.904C515.361 421.272 517.377 420.456 519.729 420.456C522.129 420.456 524.145 421.272 525.777 422.904C527.409 424.536 528.225 426.552 528.225 429C528.225 431.448 527.409 433.464 525.777 435.096C524.145 436.728 522.129 437.544 519.729 437.544ZM559.379 435.288L553.715 417H549.683L544.019 435.24L538.739 417H534.371L541.811 441H546.083L551.699 423.24L557.315 441H561.587L569.027 417H564.659L559.379 435.288ZM595.427 430.92C595.523 430.296 595.571 429.672 595.571 429.048C595.571 425.544 594.467 422.568 592.211 420.12C590.003 417.624 587.123 416.376 583.619 416.376C579.923 416.376 576.899 417.576 574.547 419.976C572.195 422.376 571.043 425.4 571.043 429C571.043 432.648 572.243 435.672 574.595 438.072C576.995 440.424 580.115 441.624 583.907 441.624C588.611 441.624 592.115 439.8 594.467 436.2L590.915 434.184C589.475 436.536 587.171 437.688 584.003 437.688C579.443 437.688 576.131 435.192 575.315 430.92H595.427ZM583.619 420.312C587.459 420.312 590.627 422.712 591.347 427.272H575.315C576.035 423.048 579.155 420.312 583.619 420.312ZM604.547 417H600.371V441H604.547V428.28C604.547 425.64 605.267 423.768 606.755 422.568C608.243 421.368 609.971 420.84 612.035 420.936V416.568C608.435 416.568 605.939 418.056 604.547 421.032V417ZM618.831 423.48C618.831 421.416 620.751 420.264 623.103 420.264C625.647 420.264 627.375 421.272 628.239 423.336L631.743 421.368C630.207 418.248 626.991 416.376 623.103 416.376C620.655 416.376 618.639 417.048 617.007 418.392C615.423 419.736 614.607 421.464 614.607 423.528C614.607 428.616 619.503 429.864 623.295 430.872C625.935 431.496 628.047 432.552 628.047 434.424C628.047 436.68 626.031 437.688 623.295 437.688C620.367 437.688 618.111 436.248 617.343 433.944L613.743 436.008C615.135 439.416 618.639 441.624 623.295 441.624C625.935 441.624 628.047 440.952 629.727 439.656C631.407 438.36 632.271 436.584 632.271 434.424C632.319 429.288 627.327 427.896 623.583 427.08C620.943 426.36 618.831 425.352 618.831 423.48ZM639.339 422.664C641.115 422.664 642.459 421.272 642.459 419.544C642.459 417.816 641.115 416.424 639.339 416.424C637.611 416.424 636.219 417.816 636.219 419.544C636.219 421.272 637.611 422.664 639.339 422.664ZM639.339 441.528C641.115 441.528 642.459 440.136 642.459 438.408C642.459 436.68 641.115 435.288 639.339 435.288C637.611 435.288 636.219 436.68 636.219 438.408C636.219 440.136 637.611 441.528 639.339 441.528Z" fill="black"/>
<path d="M78.796 502.396C83.44 502.396 87.616 499.984 89.668 496.24L87.976 495.268C86.284 498.472 82.72 500.56 78.796 500.56C75.52 500.56 72.856 499.48 70.732 497.356C68.644 495.196 67.6 492.532 67.6 489.4C67.6 486.268 68.644 483.604 70.732 481.48C72.856 479.32 75.52 478.24 78.796 478.24C80.776 478.24 82.576 478.708 84.196 479.68C85.816 480.616 87.076 481.876 87.904 483.424L89.596 482.452C88.552 480.616 87.04 479.14 85.132 478.06C83.224 476.944 81.1 476.404 78.796 476.404C75.016 476.404 71.884 477.664 69.4 480.184C66.916 482.668 65.692 485.764 65.692 489.4C65.692 493.036 66.916 496.132 69.4 498.652C71.884 501.136 75.016 502.396 78.796 502.396ZM95.6072 484H93.8072V502H95.6072V491.992C95.6072 487.672 98.1992 485.476 101.619 485.476V483.748C98.7032 483.748 96.6872 485.008 95.6072 487.528V484ZM112.278 483.604C109.542 483.604 107.31 484.504 105.546 486.304C103.818 488.068 102.954 490.3 102.954 493C102.954 495.736 103.854 498.004 105.618 499.768C107.382 501.532 109.65 502.396 112.422 502.396C115.914 502.396 118.794 500.812 120.27 498.328L118.686 497.392C117.57 499.372 115.338 500.668 112.458 500.668C110.406 500.668 108.642 500.056 107.238 498.832C105.834 497.572 105.042 495.952 104.826 493.936H121.134C121.134 493.756 121.17 493.252 121.17 493.072C121.17 490.516 120.342 488.284 118.686 486.412C117.066 484.54 114.906 483.604 112.278 483.604ZM112.278 485.332C114.114 485.332 115.662 485.944 116.994 487.168C118.326 488.356 119.118 490.048 119.298 492.172H104.826C105.006 490.156 105.798 488.5 107.166 487.24C108.534 485.98 110.226 485.332 112.278 485.332ZM141.217 488.068C139.669 485.296 136.897 483.604 133.477 483.604C130.921 483.604 128.725 484.504 126.889 486.34C125.053 488.14 124.153 490.372 124.153 493C124.153 495.628 125.053 497.86 126.889 499.696C128.725 501.496 130.921 502.396 133.477 502.396C136.897 502.396 139.669 500.704 141.217 497.932V502H143.053V484H141.217V488.068ZM128.185 498.436C126.709 496.96 125.989 495.124 125.989 493C125.989 490.876 126.709 489.04 128.185 487.564C129.661 486.088 131.497 485.332 133.621 485.332C135.745 485.332 137.545 486.088 139.021 487.564C140.497 489.04 141.217 490.876 141.217 493C141.217 495.124 140.497 496.96 139.021 498.436C137.545 499.912 135.745 500.668 133.621 500.668C131.497 500.668 129.661 499.912 128.185 498.436ZM157.797 484H152.433V478.96L150.597 479.5V484H146.637V485.764H150.597V497.464C150.597 501.46 152.937 502.72 157.797 502V500.38C154.125 500.74 152.433 500.596 152.433 497.464V485.764H157.797V484ZM169.126 483.604C166.39 483.604 164.158 484.504 162.394 486.304C160.666 488.068 159.802 490.3 159.802 493C159.802 495.736 160.702 498.004 162.466 499.768C164.23 501.532 166.498 502.396 169.27 502.396C172.762 502.396 175.642 500.812 177.118 498.328L175.534 497.392C174.418 499.372 172.186 500.668 169.306 500.668C167.254 500.668 165.49 500.056 164.086 498.832C162.682 497.572 161.89 495.952 161.674 493.936H177.982C177.982 493.756 178.018 493.252 178.018 493.072C178.018 490.516 177.19 488.284 175.534 486.412C173.914 484.54 171.754 483.604 169.126 483.604ZM169.126 485.332C170.962 485.332 172.51 485.944 173.842 487.168C175.174 488.356 175.966 490.048 176.146 492.172H161.674C161.854 490.156 162.646 488.5 164.014 487.24C165.382 485.98 167.074 485.332 169.126 485.332ZM207.663 488.068C206.115 485.296 203.343 483.604 199.923 483.604C197.367 483.604 195.171 484.504 193.335 486.34C191.499 488.14 190.599 490.372 190.599 493C190.599 495.628 191.499 497.86 193.335 499.696C195.171 501.496 197.367 502.396 199.923 502.396C203.343 502.396 206.115 500.704 207.663 497.932V502H209.499V484H207.663V488.068ZM194.631 498.436C193.155 496.96 192.435 495.124 192.435 493C192.435 490.876 193.155 489.04 194.631 487.564C196.107 486.088 197.943 485.332 200.067 485.332C202.191 485.332 203.991 486.088 205.467 487.564C206.943 489.04 207.663 490.876 207.663 493C207.663 495.124 206.943 496.96 205.467 498.436C203.991 499.912 202.191 500.668 200.067 500.668C197.943 500.668 196.107 499.912 194.631 498.436ZM223.27 483.604C220.282 483.604 218.122 484.864 216.826 487.42V484H215.026V502H216.826V492.496C216.826 487.852 219.418 485.332 223.126 485.332C226.474 485.332 228.418 487.456 228.418 490.804V502H230.254V490.804C230.254 486.448 227.554 483.604 223.27 483.604ZM264.276 502L254.52 476.8H252.504L242.712 502H244.728L247.176 495.592H259.812L262.26 502H264.276ZM253.512 479.14L259.128 493.792H247.896L253.512 479.14ZM274.171 502L281.263 479.284L288.319 502H290.623L297.931 476.8H295.915L289.435 499.444L282.379 476.8H280.111L273.091 499.444L266.575 476.8H264.559L271.867 502H274.171ZM309.258 502.396C311.742 502.396 313.758 501.784 315.27 500.524C316.782 499.264 317.538 497.572 317.538 495.484C317.538 493.432 316.782 491.884 314.946 490.768C314.046 490.192 313.218 489.76 312.426 489.436C311.67 489.112 310.59 488.716 309.186 488.248C306.99 487.528 305.442 486.844 304.47 486.16C303.498 485.476 303.03 484.468 303.03 483.1C303.03 480.256 305.262 478.24 308.718 478.24C311.85 478.24 314.01 479.68 315.198 482.596L316.818 481.696C315.522 478.564 312.642 476.404 308.718 476.404C306.522 476.404 304.722 477.016 303.246 478.276C301.806 479.5 301.086 481.12 301.086 483.172C301.086 484.432 301.482 485.476 301.914 486.232C302.346 486.952 303.462 487.744 304.146 488.176C304.47 488.392 305.01 488.644 305.694 488.932L307.278 489.544L309.078 490.12C311.31 490.84 312.966 491.56 314.01 492.316C315.054 493.072 315.594 494.116 315.594 495.52C315.594 498.508 313.326 500.56 309.258 500.56C305.226 500.56 302.598 498.616 301.698 495.484L300.042 496.456C301.194 500.092 304.614 502.396 309.258 502.396ZM339.527 502.396C342.011 502.396 344.027 501.784 345.539 500.524C347.051 499.264 347.807 497.572 347.807 495.484C347.807 493.432 347.051 491.884 345.215 490.768C344.315 490.192 343.487 489.76 342.695 489.436C341.939 489.112 340.859 488.716 339.455 488.248C337.259 487.528 335.711 486.844 334.739 486.16C333.767 485.476 333.299 484.468 333.299 483.1C333.299 480.256 335.531 478.24 338.987 478.24C342.119 478.24 344.279 479.68 345.467 482.596L347.087 481.696C345.791 478.564 342.911 476.404 338.987 476.404C336.791 476.404 334.991 477.016 333.515 478.276C332.075 479.5 331.355 481.12 331.355 483.172C331.355 484.432 331.751 485.476 332.183 486.232C332.615 486.952 333.731 487.744 334.415 488.176C334.739 488.392 335.279 488.644 335.963 488.932L337.547 489.544L339.347 490.12C341.579 490.84 343.235 491.56 344.279 492.316C345.323 493.072 345.863 494.116 345.863 495.52C345.863 498.508 343.595 500.56 339.527 500.56C335.495 500.56 332.867 498.616 331.967 495.484L330.311 496.456C331.463 500.092 334.883 502.396 339.527 502.396ZM365.887 478.6V476.8H351.379V478.6H363.691L357.319 487.636L358.147 488.896H358.651L358.687 488.86V488.896C360.595 488.896 362.143 489.436 363.331 490.48C364.555 491.524 365.167 492.964 365.167 494.728C365.167 498.292 362.503 500.56 358.759 500.56C355.591 500.56 353.215 499.156 352.315 496.672L350.731 497.608C351.919 500.632 355.015 502.396 358.759 502.396C361.099 502.396 363.043 501.712 364.663 500.344C366.283 498.94 367.075 497.068 367.075 494.728C367.075 492.568 366.391 490.84 365.023 489.544C363.655 488.248 361.927 487.492 359.803 487.276L365.887 478.6ZM389.167 502L396.259 479.284L403.315 502H405.619L412.927 476.8H410.911L404.431 499.444L397.375 476.8H395.107L388.087 499.444L381.571 476.8H379.555L386.863 502H389.167ZM422.849 483.604C420.113 483.604 417.881 484.504 416.117 486.304C414.389 488.068 413.525 490.3 413.525 493C413.525 495.736 414.425 498.004 416.189 499.768C417.953 501.532 420.221 502.396 422.993 502.396C426.485 502.396 429.365 500.812 430.841 498.328L429.257 497.392C428.141 499.372 425.909 500.668 423.029 500.668C420.977 500.668 419.213 500.056 417.809 498.832C416.405 497.572 415.613 495.952 415.397 493.936H431.705C431.705 493.756 431.741 493.252 431.741 493.072C431.741 490.516 430.913 488.284 429.257 486.412C427.637 484.54 425.477 483.604 422.849 483.604ZM422.849 485.332C424.685 485.332 426.233 485.944 427.565 487.168C428.897 488.356 429.689 490.048 429.869 492.172H415.397C415.577 490.156 416.369 488.5 417.737 487.24C419.105 485.98 420.797 485.332 422.849 485.332ZM445.488 483.604C442.068 483.604 439.224 485.332 437.748 488.176V476.8H435.948V502H437.748V497.824C439.224 500.668 442.068 502.396 445.488 502.396C448.08 502.396 450.276 501.496 452.076 499.696C453.912 497.86 454.812 495.628 454.812 493C454.812 490.372 453.912 488.14 452.076 486.34C450.276 484.504 448.08 483.604 445.488 483.604ZM439.944 498.436C438.468 496.96 437.748 495.124 437.748 493C437.748 490.876 438.468 489.04 439.944 487.564C441.42 486.088 443.256 485.332 445.38 485.332C447.504 485.332 449.304 486.088 450.78 487.564C452.256 489.04 453.012 490.876 453.012 493C453.012 495.124 452.256 496.96 450.78 498.436C449.304 499.912 447.504 500.668 445.38 500.668C443.256 500.668 441.42 499.912 439.944 498.436ZM460.023 488.716C460.023 486.664 461.895 485.332 464.343 485.332C466.395 485.332 468.231 486.304 468.951 488.068L470.463 487.204C469.455 485.008 467.223 483.604 464.343 483.604C462.543 483.604 461.067 484.108 459.915 485.08C458.799 486.052 458.223 487.276 458.223 488.716C458.223 492.496 462.147 493.252 465.279 494.008C467.439 494.476 469.131 495.52 469.131 497.284C469.131 499.444 467.187 500.668 464.487 500.668C461.787 500.668 459.879 499.48 459.195 497.5L457.647 498.4C458.547 500.812 461.031 502.396 464.487 502.396C468.339 502.396 470.931 500.272 470.931 497.284C470.931 493.432 467.007 492.64 463.875 491.956C461.715 491.416 460.023 490.48 460.023 488.716ZM474.572 478.204C474.5 480.076 477.524 480.076 477.452 478.204C477.524 476.404 474.5 476.404 474.572 478.204ZM476.912 502V484H475.112V502H476.912ZM491.676 484H486.312V478.96L484.476 479.5V484H480.516V485.764H484.476V497.464C484.476 501.46 486.816 502.72 491.676 502V500.38C488.004 500.74 486.312 500.596 486.312 497.464V485.764H491.676V484ZM503.005 483.604C500.269 483.604 498.037 484.504 496.273 486.304C494.545 488.068 493.681 490.3 493.681 493C493.681 495.736 494.581 498.004 496.345 499.768C498.109 501.532 500.377 502.396 503.149 502.396C506.641 502.396 509.521 500.812 510.997 498.328L509.413 497.392C508.297 499.372 506.065 500.668 503.185 500.668C501.133 500.668 499.369 500.056 497.965 498.832C496.561 497.572 495.769 495.952 495.553 493.936H511.861C511.861 493.756 511.897 493.252 511.897 493.072C511.897 490.516 511.069 488.284 509.413 486.412C507.793 484.54 505.633 483.604 503.005 483.604ZM503.005 485.332C504.841 485.332 506.389 485.944 507.721 487.168C509.053 488.356 509.845 490.048 510.025 492.172H495.553C495.733 490.156 496.525 488.5 497.893 487.24C499.261 485.98 500.953 485.332 503.005 485.332ZM525.162 478.204C525.09 480.076 528.114 480.076 528.042 478.204C528.114 476.404 525.09 476.404 525.162 478.204ZM527.502 502V484H525.702V502H527.502ZM541.293 483.604C538.305 483.604 536.145 484.864 534.849 487.42V484H533.049V502H534.849V492.496C534.849 487.852 537.441 485.332 541.149 485.332C544.497 485.332 546.441 487.456 546.441 490.804V502H548.277V490.804C548.277 486.448 545.577 483.604 541.293 483.604ZM562.967 493.576C562.967 496.24 563.795 498.364 565.487 499.984C567.179 501.604 569.411 502.396 572.183 502.396C574.955 502.396 577.187 501.604 578.879 499.984C580.571 498.364 581.435 496.24 581.435 493.576V476.8H579.527V493.576C579.527 497.788 576.827 500.56 572.183 500.56C567.539 500.56 564.875 497.788 564.875 493.576V476.8H562.967V493.576ZM595.223 483.604C592.235 483.604 590.075 484.864 588.779 487.42V484H586.979V502H588.779V492.496C588.779 487.852 591.371 485.332 595.079 485.332C598.427 485.332 600.371 487.456 600.371 490.804V502H602.207V490.804C602.207 486.448 599.507 483.604 595.223 483.604ZM623.175 488.176C621.699 485.332 618.855 483.604 615.435 483.604C612.843 483.604 610.647 484.504 608.811 486.34C607.011 488.14 606.111 490.372 606.111 493C606.111 495.628 607.011 497.86 608.811 499.696C610.647 501.496 612.843 502.396 615.435 502.396C618.855 502.396 621.699 500.668 623.175 497.824V502H624.975V476.8H623.175V488.176ZM610.107 498.436C608.631 496.96 607.911 495.124 607.911 493C607.911 490.876 608.631 489.04 610.107 487.564C611.583 486.088 613.419 485.332 615.543 485.332C617.667 485.332 619.467 486.088 620.943 487.564C622.419 489.04 623.175 490.876 623.175 493C623.175 495.124 622.419 496.96 620.943 498.436C619.467 499.912 617.667 500.668 615.543 500.668C613.419 500.668 611.583 499.912 610.107 498.436ZM638.602 483.604C635.866 483.604 633.634 484.504 631.87 486.304C630.142 488.068 629.278 490.3 629.278 493C629.278 495.736 630.178 498.004 631.942 499.768C633.706 501.532 635.974 502.396 638.746 502.396C642.238 502.396 645.118 500.812 646.594 498.328L645.01 497.392C643.894 499.372 641.662 500.668 638.782 500.668C636.73 500.668 634.966 500.056 633.562 498.832C632.158 497.572 631.366 495.952 631.15 493.936H647.458C647.458 493.756 647.494 493.252 647.494 493.072C647.494 490.516 646.666 488.284 645.01 486.412C643.39 484.54 641.23 483.604 638.602 483.604ZM638.602 485.332C640.438 485.332 641.986 485.944 643.318 487.168C644.65 488.356 645.442 490.048 645.622 492.172H631.15C631.33 490.156 632.122 488.5 633.49 487.24C634.858 485.98 636.55 485.332 638.602 485.332ZM653.502 484H651.702V502H653.502V491.992C653.502 487.672 656.094 485.476 659.514 485.476V483.748C656.598 483.748 654.582 485.008 653.502 487.528V484ZM674.812 487.06L675.388 478.6H687.016V476.8H673.696L672.832 488.896H679.564C681.472 488.896 683.02 489.436 684.208 490.48C685.432 491.524 686.044 492.964 686.044 494.728C686.044 496.492 685.432 497.932 684.208 498.976C683.02 500.02 681.472 500.56 679.564 500.56C676.432 500.56 674.056 499.084 673.228 496.384L671.608 497.32C672.724 500.524 675.856 502.396 679.564 502.396C681.904 502.396 683.884 501.712 685.504 500.344C687.124 498.94 687.952 497.068 687.952 494.728C687.952 492.388 687.124 490.516 685.504 489.148C683.884 487.744 681.904 487.06 679.564 487.06H674.812ZM722.571 476.8L713.571 491.704L704.571 476.8H702.195V502H704.103V479.608L713.427 495.088H713.751L723.075 479.608V502H724.983V476.8H722.571ZM730.334 478.204C730.262 480.076 733.286 480.076 733.214 478.204C733.286 476.404 730.262 476.404 730.334 478.204ZM732.674 502V484H730.874V502H732.674ZM746.465 483.604C743.477 483.604 741.317 484.864 740.021 487.42V484H738.221V502H740.021V492.496C740.021 487.852 742.613 485.332 746.321 485.332C749.669 485.332 751.613 487.456 751.613 490.804V502H753.449V490.804C753.449 486.448 750.749 483.604 746.465 483.604ZM771.502 493.504C771.502 498.148 768.91 500.668 765.202 500.668C761.854 500.668 759.91 498.544 759.91 495.196V484H758.074V495.196C758.074 499.552 760.774 502.396 765.058 502.396C768.046 502.396 770.206 501.136 771.502 498.58V502H773.302V484H771.502V493.504ZM788.078 484H782.714V478.96L780.878 479.5V484H776.918V485.764H780.878V497.464C780.878 501.46 783.218 502.72 788.078 502V500.38C784.406 500.74 782.714 500.596 782.714 497.464V485.764H788.078V484ZM799.407 483.604C796.671 483.604 794.439 484.504 792.675 486.304C790.947 488.068 790.083 490.3 790.083 493C790.083 495.736 790.983 498.004 792.747 499.768C794.511 501.532 796.779 502.396 799.551 502.396C803.043 502.396 805.923 500.812 807.399 498.328L805.815 497.392C804.699 499.372 802.467 500.668 799.587 500.668C797.535 500.668 795.771 500.056 794.367 498.832C792.963 497.572 792.171 495.952 791.955 493.936H808.263C808.263 493.756 808.299 493.252 808.299 493.072C808.299 490.516 807.471 488.284 805.815 486.412C804.195 484.54 802.035 483.604 799.407 483.604ZM799.407 485.332C801.243 485.332 802.791 485.944 804.123 487.168C805.455 488.356 806.247 490.048 806.427 492.172H791.955C792.135 490.156 792.927 488.5 794.295 487.24C795.663 485.98 797.355 485.332 799.407 485.332ZM813.027 488.716C813.027 486.664 814.899 485.332 817.347 485.332C819.399 485.332 821.235 486.304 821.955 488.068L823.467 487.204C822.459 485.008 820.227 483.604 817.347 483.604C815.547 483.604 814.071 484.108 812.919 485.08C811.803 486.052 811.227 487.276 811.227 488.716C811.227 492.496 815.151 493.252 818.283 494.008C820.443 494.476 822.135 495.52 822.135 497.284C822.135 499.444 820.191 500.668 817.491 500.668C814.791 500.668 812.883 499.48 812.199 497.5L810.651 498.4C811.551 500.812 814.035 502.396 817.491 502.396C821.343 502.396 823.935 500.272 823.935 497.284C823.935 493.432 820.011 492.64 816.879 491.956C814.719 491.416 813.027 490.48 813.027 488.716Z" fill="black"/>
<path d="M66.1136 673.545H70.2273V664.25H70.3977C71.0455 665.523 72.3977 667.307 75.3977 667.307C79.5114 667.307 82.5909 664.045 82.5909 658.295C82.5909 652.477 79.4205 649.318 75.3864 649.318C72.3068 649.318 71.0227 651.17 70.3977 652.432H70.1591V649.545H66.1136V673.545ZM70.1477 658.273C70.1477 654.886 71.6023 652.693 74.25 652.693C76.9886 652.693 78.3977 655.023 78.3977 658.273C78.3977 661.545 76.9659 663.932 74.25 663.932C71.625 663.932 70.1477 661.659 70.1477 658.273ZM97.2386 659.659C97.2386 662.318 95.3409 663.636 93.5227 663.636C91.5455 663.636 90.2273 662.239 90.2273 660.023V649.545H86.1136V660.659C86.1136 664.852 88.5 667.227 91.9318 667.227C94.5455 667.227 96.3864 665.852 97.1818 663.898H97.3636V667H101.352V649.545H97.2386V659.659ZM109.696 643.727H105.582V667H109.696V643.727ZM125.051 659.659C125.051 662.318 123.153 663.636 121.335 663.636C119.358 663.636 118.04 662.239 118.04 660.023V649.545H113.926V660.659C113.926 664.852 116.312 667.227 119.744 667.227C122.358 667.227 124.199 665.852 124.994 663.898H125.176V667H129.165V649.545H125.051V659.659ZM133.395 667H137.509V656.386C137.509 654.239 138.94 652.784 140.713 652.784C142.452 652.784 143.645 653.955 143.645 655.75V667H147.679V656.114C147.679 654.148 148.849 652.784 150.838 652.784C152.497 652.784 153.815 653.761 153.815 655.92V667H157.94V655.284C157.94 651.386 155.69 649.318 152.486 649.318C149.952 649.318 148.02 650.568 147.247 652.511H147.065C146.395 650.534 144.702 649.318 142.349 649.318C140.009 649.318 138.259 650.523 137.531 652.511H137.327V649.545H133.395V667ZM162.114 667H166.227V649.545H162.114V667ZM164.182 647.068C165.489 647.068 166.557 646.068 166.557 644.841C166.557 643.602 165.489 642.602 164.182 642.602C162.864 642.602 161.795 643.602 161.795 644.841C161.795 646.068 162.864 647.068 164.182 647.068ZM172.991 667.25C174.332 667.25 175.48 666.136 175.491 664.75C175.48 663.386 174.332 662.273 172.991 662.273C171.605 662.273 170.48 663.386 170.491 664.75C170.48 666.136 171.605 667.25 172.991 667.25ZM187.352 667.341C191.739 667.341 194.534 664.739 194.83 661.034H190.898C190.545 662.909 189.193 663.989 187.386 663.989C184.818 663.989 183.159 661.841 183.159 658.273C183.159 654.75 184.852 652.636 187.386 652.636C189.364 652.636 190.58 653.909 190.898 655.591H194.83C194.545 651.807 191.591 649.318 187.33 649.318C182.216 649.318 178.989 653.011 178.989 658.341C178.989 663.625 182.136 667.341 187.352 667.341ZM205.821 667.341C210.935 667.341 214.185 663.739 214.185 658.341C214.185 652.932 210.935 649.318 205.821 649.318C200.707 649.318 197.457 652.932 197.457 658.341C197.457 663.739 200.707 667.341 205.821 667.341ZM205.844 664.045C203.014 664.045 201.628 661.523 201.628 658.33C201.628 655.136 203.014 652.58 205.844 652.58C208.628 652.58 210.014 655.136 210.014 658.33C210.014 661.523 208.628 664.045 205.844 664.045ZM217.676 667H221.79V656.386C221.79 654.239 223.222 652.784 224.994 652.784C226.733 652.784 227.926 653.955 227.926 655.75V667H231.96V656.114C231.96 654.148 233.131 652.784 235.119 652.784C236.778 652.784 238.097 653.761 238.097 655.92V667H242.222V655.284C242.222 651.386 239.972 649.318 236.767 649.318C234.233 649.318 232.301 650.568 231.528 652.511H231.347C230.676 650.534 228.983 649.318 226.631 649.318C224.29 649.318 222.54 650.523 221.812 652.511H221.608V649.545H217.676V667ZM255.895 642.636H252.293L244.793 670.5H248.395L255.895 642.636ZM272.315 654.159C271.747 651.205 269.384 649.318 265.293 649.318C261.088 649.318 258.224 651.386 258.236 654.614C258.224 657.159 259.793 658.841 263.145 659.534L266.122 660.159C267.724 660.511 268.474 661.159 268.474 662.148C268.474 663.341 267.179 664.239 265.224 664.239C263.338 664.239 262.111 663.42 261.759 661.852L257.747 662.239C258.259 665.443 260.952 667.341 265.236 667.341C269.599 667.341 272.679 665.08 272.69 661.773C272.679 659.284 271.077 657.761 267.781 657.045L264.804 656.409C263.031 656.011 262.327 655.398 262.338 654.386C262.327 653.205 263.634 652.386 265.349 652.386C267.247 652.386 268.247 653.42 268.565 654.568L272.315 654.159ZM284.798 649.545H281.355V645.364H277.241V649.545H274.764V652.727H277.241V662.432C277.219 665.716 279.605 667.33 282.696 667.239C283.866 667.205 284.673 666.977 285.116 666.83L284.423 663.614C284.196 663.67 283.73 663.773 283.219 663.773C282.185 663.773 281.355 663.409 281.355 661.75V652.727H284.798V649.545ZM293.261 667.352C296 667.352 297.636 666.068 298.386 664.602H298.523V667H302.477V655.318C302.477 650.705 298.716 649.318 295.386 649.318C291.716 649.318 288.898 650.955 287.989 654.136L291.83 654.682C292.239 653.489 293.398 652.466 295.409 652.466C297.318 652.466 298.364 653.443 298.364 655.159V655.227C298.364 656.409 297.125 656.466 294.045 656.795C290.659 657.159 287.42 658.17 287.42 662.102C287.42 665.534 289.932 667.352 293.261 667.352ZM294.33 664.33C292.614 664.33 291.386 663.545 291.386 662.034C291.386 660.455 292.761 659.795 294.602 659.534C295.682 659.386 297.841 659.114 298.375 658.682V660.739C298.375 662.682 296.807 664.33 294.33 664.33ZM306.614 667H310.727V656.739C310.727 654.523 312.398 652.955 314.659 652.955C315.352 652.955 316.216 653.08 316.568 653.193V649.409C316.193 649.341 315.545 649.295 315.091 649.295C313.091 649.295 311.42 650.432 310.784 652.455H310.602V649.545H306.614V667ZM328.955 649.545H325.511V645.364H321.398V649.545H318.92V652.727H321.398V662.432C321.375 665.716 323.761 667.33 326.852 667.239C328.023 667.205 328.83 666.977 329.273 666.83L328.58 663.614C328.352 663.67 327.886 663.773 327.375 663.773C326.341 663.773 325.511 663.409 325.511 661.75V652.727H328.955V649.545Z" fill="black"/>
<circle opacity="0.9" cx="627" cy="348" r="100" fill="#151516"/>
<g opacity="0.9" filter="url(#filter0_d)">
<path d="M673.028 339.576C679.657 343.432 679.657 353.007 673.028 356.863L603.916 397.068C597.249 400.946 588.887 396.137 588.887 388.424L588.887 308.015C588.887 300.302 597.249 295.493 603.916 299.371L673.028 339.576Z" fill="white"/>
</g>
<defs>
<filter id="filter0_d" x="584.887" y="298" width="97.1127" height="108.439" filterUnits="userSpaceOnUse" color-interpolation-filters="sRGB">
<feFlood flood-opacity="0" result="BackgroundImageFix"/>
<feColorMatrix in="SourceAlpha" type="matrix" values="0 0 0 0 0 0 0 0 0 0 0 0 0 0 0 0 0 0 127 0"/>
<feOffset dy="4"/>
<feGaussianBlur stdDeviation="2"/>
<feColorMatrix type="matrix" values="0 0 0 0 0 0 0 0 0 0 0 0 0 0 0 0 0 0 0.25 0"/>
<feBlend mode="normal" in2="BackgroundImageFix" result="effect1_dropShadow"/>
<feBlend mode="normal" in="SourceGraphic" in2="effect1_dropShadow" result="shape"/>
</filter>
<linearGradient id="paint0_linear" x1="1109.83" y1="650.95" x2="1115.57" y2="618.397" gradientUnits="userSpaceOnUse">
<stop offset="0.13" stop-color="#949DE8"/>
<stop offset="0.85" stop-color="#4D5BD9"/>
</linearGradient>
<linearGradient id="paint1_linear" x1="1063.42" y1="604.117" x2="1062.04" y2="583.311" gradientUnits="userSpaceOnUse">
<stop offset="0.13" stop-color="#717CE1"/>
<stop offset="0.85" stop-color="#4D5BD9"/>
</linearGradient>
<linearGradient id="paint2_linear" x1="1455.3" y1="1444.63" x2="1455.3" y2="1365.24" gradientUnits="userSpaceOnUse">
<stop offset="0.13" stop-color="#949DE8"/>
<stop offset="0.85" stop-color="#3E49AE"/>
</linearGradient>
<linearGradient id="paint3_linear" x1="1160.87" y1="592.346" x2="1175.54" y2="624.087" gradientUnits="userSpaceOnUse">
<stop offset="0.16" stop-color="#2E3782"/>
<stop offset="0.56" stop-color="#3E49AE"/>
<stop offset="0.86" stop-color="#4D5BD9"/>
</linearGradient>
<linearGradient id="paint4_linear" x1="485.514" y1="25539.1" x2="16177.9" y2="20873.1" gradientUnits="userSpaceOnUse">
<stop offset="0.13" stop-color="#949DE8"/>
<stop offset="0.85" stop-color="#4D5BD9"/>
</linearGradient>
<linearGradient id="paint5_linear" x1="-2823.99" y1="9092.82" x2="-2518.07" y2="7822.77" gradientUnits="userSpaceOnUse">
<stop offset="0.13" stop-color="#717CE1"/>
<stop offset="0.85" stop-color="#4D5BD9"/>
</linearGradient>
<linearGradient id="paint6_linear" x1="1135.66" y1="518.482" x2="1130.83" y2="577.317" gradientUnits="userSpaceOnUse">
<stop offset="0.13" stop-color="#B8BDF0"/>
<stop offset="0.85" stop-color="#717CE1"/>
</linearGradient>
</defs>
</svg>
