<svg width="91" height="92" viewBox="0 0 91 92" fill="none" xmlns="http://www.w3.org/2000/svg">
<path d="M59.6953 28.315L55.9522 29.8306C55.1661 29.2243 54.3426 28.7318 53.4443 28.3529L52.8828 24.3366C52.808 23.9577 52.5085 23.6925 52.1342 23.6925H46.1452C45.7709 23.6925 45.4714 23.9577 45.434 24.3366L44.8725 28.3529C43.9742 28.7318 43.1133 29.2243 42.3646 29.8306L38.6215 28.315C38.2846 28.2013 37.8729 28.315 37.7232 28.656L34.7287 33.8847C34.5415 34.2257 34.6164 34.6425 34.9158 34.8699L38.0975 37.3706C37.9852 37.8252 37.9103 38.3557 37.9103 38.8482C37.9103 39.3408 37.9478 39.8334 38.0226 40.3259L34.8784 42.8266C34.5789 43.054 34.5041 43.4707 34.6912 43.7739L37.6857 49.0405C37.8729 49.3815 38.2472 49.4952 38.6215 49.3815L42.3272 47.8659C43.1133 48.4721 43.9368 48.9647 44.8725 49.3436L45.3966 53.3599C45.4714 53.7388 45.7709 54.004 46.1452 54.004H52.1342C52.5085 54.004 52.808 53.7388 52.8828 53.3599L53.4443 49.3436C54.3426 48.9647 55.2036 48.4721 55.9522 47.8659L59.6579 49.3815C59.9948 49.533 60.4065 49.3815 60.5562 49.0405L63.5507 43.7739C63.7379 43.4329 63.663 43.054 63.3636 42.8266L60.2568 40.3259C60.3316 39.8334 60.3691 39.3408 60.3691 38.8482C60.3691 38.3178 60.3316 37.8252 60.2568 37.3706L63.4384 34.8699C63.7379 34.6425 63.8128 34.2257 63.6256 33.8847L60.6311 28.656C60.4439 28.315 60.0322 28.2013 59.6953 28.315ZM49.1397 44.2664C46.1826 44.2664 43.787 41.8415 43.787 38.8482C43.787 35.855 46.1826 33.4301 49.1397 33.4301C52.0968 33.4301 54.4924 35.855 54.4924 38.8482C54.4924 41.8415 52.0968 44.2664 49.1397 44.2664Z" fill="#A25BA8"/>
<path d="M75.117 35.2866C73.5074 22.8968 63.0267 13.0835 50.6744 12.3636C50.1503 12.3257 49.6637 12.3257 49.1397 12.3257C35.9265 12.3257 25.0714 22.2148 23.2373 35.0593L16.013 48.2448C14.4784 50.7455 16.2751 54.004 19.1947 54.004H22.9378V61.5819C22.9378 65.7497 26.3066 69.1597 30.4241 69.1597H34.1672V80.5265H60.3691V62.7943C70.1761 58.0581 76.6517 47.3355 75.117 35.2866ZM56.2142 56.391L52.8828 57.9824V72.9487H41.6535V61.5819H30.4241V46.4261H25.558L30.5364 37.5979C31.2101 27.7088 39.2204 19.9036 49.1397 19.9036C59.4707 19.9036 67.8553 28.3908 67.8553 38.8482C67.8553 46.7671 63.0267 53.5493 56.2142 56.391Z" fill="#A25BA8"/>
</svg>
