<svg width="73" height="74" viewBox="0 0 73 74" fill="none" xmlns="http://www.w3.org/2000/svg">
<path d="M60.3677 29.2192V23.1403C60.3677 19.7968 57.6653 17.0613 54.3623 17.0613H45.3541C45.3541 12.0158 41.3304 7.94287 36.3459 7.94287C31.3614 7.94287 27.3377 12.0158 27.3377 17.0613H18.3296C15.0266 17.0613 12.3241 19.7968 12.3241 23.1403V29.2192C7.33957 29.2192 3.31592 33.2921 3.31592 38.3376C3.31592 43.3832 7.33957 47.4561 12.3241 47.4561V59.614C12.3241 62.9574 15.0266 65.6929 18.3296 65.6929H54.3623C57.6653 65.6929 60.3677 62.9574 60.3677 59.614V47.4561C65.3523 47.4561 69.3759 43.3832 69.3759 38.3376C69.3759 33.2921 65.3523 29.2192 60.3677 29.2192ZM54.3623 59.614H18.3296V23.1403H54.3623V59.614ZM27.3377 41.3771C24.8455 41.3771 22.8336 39.3407 22.8336 36.8179C22.8336 34.2951 24.8455 32.2587 27.3377 32.2587C29.83 32.2587 31.8418 34.2951 31.8418 36.8179C31.8418 39.3407 29.83 41.3771 27.3377 41.3771ZM49.8582 36.8179C49.8582 39.3407 47.8464 41.3771 45.3541 41.3771C42.8618 41.3771 40.85 39.3407 40.85 36.8179C40.85 34.2951 42.8618 32.2587 45.3541 32.2587C47.8464 32.2587 49.8582 34.2951 49.8582 36.8179ZM24.335 47.4561H48.3568V53.535H24.335V47.4561Z" fill="#673EAC"/>
</svg>
