<svg width="118" height="84" viewBox="0 0 118 84" fill="none" xmlns="http://www.w3.org/2000/svg">
<g clip-path="url(#clip0_331_549)">
<path d="M65.0222 0C65.4918 0.932598 65.3066 1.93795 65.3198 2.91685C65.3198 5.02677 65.3198 7.13669 65.3198 9.24661C65.3198 10.4702 64.8767 11.0854 63.5935 11.0787C60.6701 11.0787 57.74 11.0787 54.8165 11.0787C53.9964 11.0787 53.1365 10.9332 53.1365 9.9411C53.1365 6.63402 52.7728 3.32693 53.368 0.0198417L65.0222 0Z" fill="#28A8F1"/>
<path d="M42.8449 39.4138H80.4729C83.0465 39.374 85.5963 38.9114 88.0197 38.0446C88.9589 37.7272 89.3425 37.3832 88.7869 36.2985C85.3674 29.3536 86.9548 22.9445 91.0027 16.8131C91.5186 16.0393 91.9816 16.1517 92.6761 16.5552C94.8336 17.7461 96.7233 19.3694 98.2254 21.3234C99.7275 23.2774 100.81 25.5202 101.407 27.9117C101.704 29.0626 102.167 29.3404 103.246 29.1684C106.336 28.6805 109.497 28.8723 112.505 29.7306C113.811 30.0892 115.047 30.6638 116.163 31.4305C116.373 31.5326 116.56 31.677 116.712 31.8546C116.863 32.0321 116.977 32.2391 117.045 32.4625C117.113 32.686 117.135 32.9211 117.109 33.1532C117.082 33.3853 117.008 33.6094 116.891 33.8116C115.4 37.4393 112.589 40.3675 109.026 42.0065C106.606 43.2563 103.904 43.8623 101.182 43.7659C99.7863 43.6998 99.1051 44.209 98.5825 45.5054C96.0903 51.9393 92.6404 57.9599 88.3504 63.3637C82.2535 70.8602 74.1795 76.4988 65.0421 79.6412C55.1869 83.1401 45.0144 84.0396 34.6169 83.2327C29.5253 82.896 24.5077 81.8358 19.7151 80.0843C12.7306 77.4387 8.05435 72.4119 4.93906 65.8176C1.77416 58.9194 0.192233 51.4008 0.309139 43.8122C0.309139 40.8226 1.6915 39.4138 4.68111 39.4138H42.8449Z" fill="#28A8F1"/>
<path d="M44.9482 24.0821C43.374 24.0821 41.7932 24.0821 40.219 24.0821C40.0274 24.1137 39.8312 24.1 39.6459 24.0422C39.4605 23.9843 39.2913 23.8838 39.1518 23.7487C39.0123 23.6138 38.9064 23.448 38.8424 23.2647C38.7785 23.0813 38.7584 22.8856 38.7838 22.6931C38.7838 19.9945 38.7838 17.296 38.7838 14.5974C38.7569 14.3816 38.7797 14.1626 38.8503 13.957C38.9209 13.7514 39.0376 13.5646 39.1913 13.4109C39.345 13.2571 39.5318 13.1405 39.7374 13.0699C39.943 12.9993 40.162 12.9765 40.3778 13.0034C43.4468 13.0034 46.5157 13.0034 49.5781 13.0034C49.7946 12.9826 50.013 13.0102 50.2176 13.0841C50.4221 13.1581 50.6077 13.2766 50.7608 13.431C50.914 13.5854 51.0309 13.7719 51.1032 13.9771C51.1754 14.1823 51.2012 14.4009 51.1787 14.6172C51.1787 17.2629 51.1787 19.9086 51.1787 22.5542C51.1787 23.6323 50.5901 24.0755 49.545 24.0623C48.0172 24.0623 46.4827 24.0821 44.9482 24.0821Z" fill="#28A8F1"/>
<path d="M16.3948 37.2973C14.8603 37.2973 13.3258 37.2642 11.7648 37.2973C11.5405 37.3396 11.3094 37.3277 11.0906 37.2628C10.8718 37.1978 10.6716 37.0816 10.5067 36.9239C10.3418 36.7661 10.2169 36.5712 10.1424 36.3555C10.0678 36.1398 10.0459 35.9093 10.0782 35.6834C10.0782 33.0708 10.0782 30.4648 10.0782 27.8522C10.0467 27.6236 10.069 27.3908 10.1433 27.1724C10.2177 26.9539 10.3421 26.7559 10.5065 26.5939C10.671 26.432 10.871 26.3108 11.0906 26.2399C11.3102 26.169 11.5433 26.1503 11.7714 26.1855H20.9453C21.151 26.1528 21.3616 26.1692 21.5598 26.2334C21.758 26.2976 21.9382 26.4076 22.0858 26.5545C22.2335 26.7016 22.3443 26.8813 22.4093 27.0792C22.4743 27.2771 22.4916 27.4876 22.4599 27.6935C22.4599 30.3921 22.4599 33.0906 22.4599 35.7892C22.4879 35.993 22.4681 36.2005 22.4019 36.3952C22.3357 36.5899 22.2249 36.7665 22.0786 36.911C21.9322 37.0554 21.7541 37.1638 21.5586 37.2274C21.363 37.291 21.1552 37.3082 20.9519 37.2774C19.4174 37.2774 17.8829 37.2774 16.3551 37.2774L16.3948 37.2973Z" fill="#28A8F1"/>
<path d="M44.8423 37.2972C43.4004 37.2972 41.9585 37.2972 40.5166 37.2972C39.3327 37.2972 38.7572 36.821 38.7639 35.6172C38.7639 33.0575 38.7639 30.4912 38.7639 27.9249C38.7639 26.6815 39.3591 26.1523 40.6092 26.1722C43.4467 26.2119 46.2908 26.1722 49.1283 26.1722C50.7686 26.1722 51.1588 26.5558 51.172 28.1564C51.172 30.5441 51.172 32.9252 51.172 35.313C51.172 36.9533 50.8083 37.2972 49.1878 37.2972H44.8423Z" fill="#28A8F1"/>
<path d="M73.5545 37.2974C72.0663 37.2974 70.5781 37.2974 69.0899 37.2974C67.9457 37.2974 67.4496 36.7683 67.4562 35.6571C67.4562 33.0445 67.4562 30.4319 67.4562 27.8259C67.4562 26.6949 67.9854 26.1856 69.1098 26.1922C72.0862 26.1922 75.0625 26.1922 78.0455 26.1922C79.2559 26.1922 79.7189 26.7412 79.6991 27.9383C79.6508 30.5002 79.6508 33.0643 79.6991 35.6306C79.6991 36.841 79.2493 37.3569 78.0191 37.3172C76.5375 37.2577 75.0427 37.2974 73.5545 37.2974Z" fill="#28A8F1"/>
<path d="M30.5028 24.0822C28.9749 24.0822 27.4404 24.0822 25.8729 24.0822C24.8807 24.0822 24.3517 23.7052 24.3583 22.6601C24.3583 19.9615 24.3583 17.263 24.3583 14.5644C24.3215 14.3606 24.3331 14.151 24.3923 13.9524C24.4513 13.754 24.5562 13.5721 24.6984 13.4215C24.8406 13.271 25.0162 13.1559 25.211 13.0856C25.4058 13.0153 25.6144 12.9917 25.82 13.0167C28.9066 12.9902 32.0175 12.9902 35.1526 13.0167C36.1249 13.0167 36.6011 13.5723 36.5945 14.5776C36.5945 17.2762 36.5945 19.9748 36.5945 22.6734C36.5945 23.6258 36.1711 24.0822 35.2055 24.0756C33.6644 24.069 32.0836 24.0822 30.5028 24.0822Z" fill="#28A8F1"/>
<path d="M59.2546 24.0821C57.7267 24.0821 56.1922 24.0821 54.6578 24.0821C53.5929 24.0821 53.077 23.6786 53.0902 22.5741C53.0902 19.9284 53.0902 17.2827 53.0902 14.637C53.056 14.4231 53.0719 14.2042 53.1366 13.9974C53.2012 13.7906 53.3128 13.6017 53.4628 13.4453C53.6128 13.2889 53.7969 13.1695 54.0008 13.0962C54.2047 13.023 54.4228 12.998 54.6379 13.0232C57.7003 13.0232 60.7693 13.0232 63.8316 13.0232C64.8767 13.0232 65.3463 13.6185 65.333 14.6767C65.3066 17.3224 65.3066 19.9681 65.333 22.6137C65.333 23.6456 64.8833 24.0887 63.8647 24.0755C62.3236 24.0622 60.7891 24.0821 59.2546 24.0821Z" fill="#28A8F1"/>
<path d="M30.5359 37.2973C29.0477 37.2973 27.5595 37.2973 26.0713 37.2973C24.9601 37.2973 24.3847 36.8476 24.3913 35.7033C24.3913 33.0576 24.3913 30.412 24.3913 27.7663C24.3913 26.6882 24.9469 26.2186 25.9853 26.2186H35.0467C35.2608 26.1834 35.4802 26.1995 35.6868 26.2657C35.8934 26.332 36.0814 26.4463 36.2351 26.5994C36.3888 26.7525 36.504 26.9399 36.5711 27.1463C36.6382 27.3526 36.6552 27.5719 36.6209 27.7861C36.6209 30.4847 36.6209 33.1833 36.6209 35.8819C36.6209 36.9137 36.1315 37.337 35.1261 37.3172C33.5982 37.2775 32.0703 37.2973 30.5359 37.2973Z" fill="#28A8F1"/>
<path d="M59.248 37.2974C57.7598 37.2974 56.2717 37.2974 54.7835 37.2974C53.6789 37.2974 53.0902 36.8609 53.0969 35.71C53.0969 33.0644 53.0969 30.4187 53.0969 27.773C53.0969 26.7015 53.626 26.2121 54.6776 26.2121H63.7457C63.9594 26.1774 64.1782 26.1937 64.3844 26.2596C64.5906 26.3254 64.7784 26.4391 64.9324 26.5912C65.0864 26.7433 65.2024 26.9296 65.2709 27.135C65.3393 27.3403 65.3584 27.5589 65.3264 27.773C65.3264 30.4716 65.3264 33.1702 65.3264 35.8688C65.3264 36.894 64.8568 37.3371 63.8449 37.3173C62.3104 37.2776 60.7825 37.2908 59.248 37.2974Z" fill="#28A8F1"/>
</g>
<defs>
<clipPath id="clip0_331_549">
<rect width="117.071" height="84" fill="white" transform="translate(0.30249)"/>
</clipPath>
</defs>
</svg>
