<svg width="102" height="16" viewBox="0 0 102 16" fill="none" xmlns="http://www.w3.org/2000/svg">
<path d="M6.56044 7.00002H6.59791L9.58286 9.99377L6.59791 12.9875H4.05634L6.16703 10.875H1.19629C1.23376 11.1 1.27747 11.3 1.32118 11.4625C2.43273 14.3813 6.45429 16 6.45429 16C6.45429 16 10.4072 14.2813 11.5874 11.4688C11.8309 10.6813 11.9059 8.81877 11.9121 6.96252H6.52922L6.56044 7.00002Z" fill="#0092D3"/>
<path d="M6.13584 9.075H6.09837L3.11343 6.08125L6.09837 3.08125H8.6337L6.52925 5.19375H11.8934C11.8684 3.49375 11.806 2.1375 11.806 2.1375C11.806 2.1375 8.63994 2.025 6.45431 0C4.15004 2.025 1.10265 2.14375 1.10265 2.14375C1.10265 2.14375 0.884086 6.19375 1.03396 9.1125H6.1733L6.13584 9.075Z" fill="#0092D3"/>
<path d="M22.4717 14.6387C23.7883 14.6387 24.8488 14.3096 25.6717 13.6513C26.4945 12.9747 26.8968 12.0787 26.8968 10.9633C26.8968 10.1587 26.714 9.50043 26.2568 9.04328C25.946 8.67757 25.7814 8.47643 25.2694 8.20214C24.7757 7.92785 24.6294 7.83642 23.9894 7.59871C23.6785 7.47071 23.4591 7.39757 23.3128 7.34271L22.5631 7.105C21.5757 6.79414 20.8808 6.48328 20.4785 6.19071C20.0763 5.89814 19.8751 5.47757 19.8751 4.91071C19.8751 3.74043 20.8077 3.009 22.1974 3.009C23.5871 3.009 24.5563 3.66728 25.1048 4.98385L26.5311 4.161C25.7814 2.47871 24.2271 1.36328 22.1974 1.36328C21.082 1.36328 20.1311 1.69242 19.3448 2.35071C18.5585 2.99071 18.1745 3.86842 18.1745 4.98385C18.1745 5.91643 18.5585 6.66614 18.9791 7.12328C19.1803 7.34271 19.4911 7.56214 19.9117 7.78157C20.3323 7.98271 20.698 8.14728 20.9723 8.257L22.1974 8.65928C23.2763 9.00671 24.0625 9.31757 24.5197 9.62842C24.9768 9.93928 25.2145 10.3964 25.2145 10.9999C25.2145 12.1884 24.2637 12.9747 22.5083 12.9747C20.7345 12.9747 19.5825 12.2067 19.0888 10.6524L17.626 11.4936C18.3025 13.4501 20.0763 14.6387 22.4717 14.6387Z" fill="#0092D3"/>
<path d="M38.9541 14.401L34.1815 1.601H32.2615L27.489 14.401H29.2993L30.3415 11.5301H36.1015L37.1438 14.401H38.9541ZM33.2124 3.63071L35.5164 9.93928H30.9267L33.2124 3.63071Z" fill="#0092D3"/>
<path d="M50.5213 1.601L46.4618 8.36671L42.3841 1.601H40.4641V14.401H42.1647V4.417L46.3521 11.3656H46.5715L50.759 4.39871V14.401H52.4413V1.601H50.5213Z" fill="#0092D3"/>
<path d="M56.879 1.601H55.1784V14.401H62.4013V12.7919H56.879V1.601Z" fill="#0092D3"/>
<path d="M72.811 14.6387C74.1275 14.6387 75.1881 14.3096 76.011 13.6513C76.8338 12.9747 77.2361 12.0787 77.2361 10.9633C77.2361 10.1587 77.0533 9.50043 76.5961 9.04328C76.2853 8.67757 76.1207 8.47643 75.6087 8.20214C75.115 7.92785 74.9687 7.83642 74.3287 7.59871C74.0178 7.47071 73.7984 7.39757 73.6521 7.34271L72.9024 7.105C71.915 6.79414 71.2201 6.48328 70.8178 6.19071C70.4155 5.89814 70.2144 5.47757 70.2144 4.91071C70.2144 3.74043 71.147 3.009 72.5367 3.009C73.9264 3.009 74.8955 3.66728 75.4441 4.98385L76.8704 4.161C76.1207 2.47871 74.5664 1.36328 72.5367 1.36328C71.4213 1.36328 70.4704 1.69242 69.6841 2.35071C68.8978 2.99071 68.5138 3.86842 68.5138 4.98385C68.5138 5.91643 68.8978 6.66614 69.3184 7.12328C69.5195 7.34271 69.8304 7.56214 70.251 7.78157C70.6715 7.98271 71.0373 8.14728 71.3115 8.257L72.5367 8.65928C73.6155 9.00671 74.4018 9.31757 74.859 9.62842C75.3161 9.93928 75.5538 10.3964 75.5538 10.9999C75.5538 12.1884 74.603 12.9747 72.8475 12.9747C71.0738 12.9747 69.9218 12.2067 69.4281 10.6524L67.9653 11.4936C68.6418 13.4501 70.4155 14.6387 72.811 14.6387Z" fill="#0092D3"/>
<path d="M82.936 14.6387C84.2525 14.6387 85.3131 14.3096 86.136 13.6513C86.9588 12.9747 87.3611 12.0787 87.3611 10.9633C87.3611 10.1587 87.1783 9.50043 86.7211 9.04328C86.4103 8.67757 86.2457 8.47643 85.7337 8.20214C85.24 7.92785 85.0937 7.83642 84.4537 7.59871C84.1428 7.47071 83.9234 7.39757 83.7771 7.34271L83.0274 7.105C82.04 6.79414 81.3451 6.48328 80.9428 6.19071C80.5405 5.89814 80.3394 5.47757 80.3394 4.91071C80.3394 3.74043 81.272 3.009 82.6617 3.009C84.0514 3.009 85.0205 3.66728 85.5691 4.98385L86.9954 4.161C86.2457 2.47871 84.6914 1.36328 82.6617 1.36328C81.5463 1.36328 80.5954 1.69242 79.8091 2.35071C79.0228 2.99071 78.6388 3.86842 78.6388 4.98385C78.6388 5.91643 79.0228 6.66614 79.4434 7.12328C79.6445 7.34271 79.9554 7.56214 80.376 7.78157C80.7965 7.98271 81.1623 8.14728 81.4365 8.257L82.6617 8.65928C83.7405 9.00671 84.5268 9.31757 84.984 9.62842C85.4411 9.93928 85.6788 10.3964 85.6788 10.9999C85.6788 12.1884 84.728 12.9747 82.9725 12.9747C81.1988 12.9747 80.0468 12.2067 79.5531 10.6524L78.0903 11.4936C78.7668 13.4501 80.5405 14.6387 82.936 14.6387Z" fill="#0092D3"/>
<path d="M88.609 8.001C88.609 9.84785 89.249 11.4021 90.529 12.7004C91.809 13.9987 93.3815 14.6387 95.2284 14.6387C97.0753 14.6387 98.6478 13.9987 99.9278 12.7004C101.226 11.4021 101.866 9.84785 101.866 8.001C101.866 6.15414 101.226 4.58157 99.9278 3.30157C98.6478 2.00328 97.0753 1.36328 95.2284 1.36328C93.3815 1.36328 91.809 2.00328 90.529 3.30157C89.249 4.58157 88.609 6.15414 88.609 8.001ZM100.166 8.001C100.166 9.409 99.6901 10.5793 98.7393 11.5484C97.8067 12.4993 96.6364 12.9747 95.2284 12.9747C93.8204 12.9747 92.6501 12.4993 91.6993 11.5484C90.7667 10.5793 90.2913 9.409 90.2913 8.001C90.2913 6.593 90.7667 5.40443 91.6993 4.45357C92.6501 3.48443 93.8204 3.009 95.2284 3.009C96.6364 3.009 97.8067 3.48443 98.7393 4.45357C99.6901 5.40443 100.166 6.593 100.166 8.001Z" fill="#0092D3"/>
</svg>
