<svg width="600" height="185" viewBox="0 0 600 185" fill="none" xmlns="http://www.w3.org/2000/svg">
    <path d="M587.838 24.1698C594.413 24.2805 599.981 18.8314 599.996 12.2501C600.174 5.68033 594.794 0.0836799 588.052 0.000912242C581.442 -0.0803991 576.03 5.2847 575.88 11.792C575.726 18.4707 581.018 24.0548 587.838 24.1698Z" fill="#EE975C"/>
    <path d="M360.744 33.5757C355.369 33.5757 350.97 37.9771 350.97 43.3565V94.4231C350.97 110.133 338.244 122.868 322.546 122.868C306.847 122.868 294.121 110.133 294.121 94.4231V43.3565C294.121 37.9771 289.723 33.5757 284.347 33.5757C278.971 33.5757 274.573 37.9771 274.573 43.3565V94.4231C274.573 120.936 296.051 142.43 322.546 142.43C349.04 142.43 370.518 120.936 370.518 94.4231V43.3565C370.518 37.9771 366.12 33.5757 360.744 33.5757Z" fill="white"/>
    <path d="M245.707 0.554794C240.331 0.554794 235.933 4.95608 235.933 10.3356V132.729C235.933 138.108 240.331 142.51 245.707 142.51C251.083 142.51 255.481 138.108 255.481 132.729V10.3356C255.481 4.95608 251.083 0.554794 245.707 0.554794Z" fill="white"/>
    <path d="M587.943 33.5757C582.567 33.5757 578.169 37.9771 578.169 43.3565V132.649C578.169 138.028 582.567 142.43 587.943 142.43C593.319 142.43 597.717 138.028 597.717 132.649V43.3565C597.717 37.9771 593.319 33.5757 587.943 33.5757Z" fill="white"/>
    <path d="M207.067 33.5757C201.692 33.5757 197.293 37.9771 197.293 43.3565V94.4231C197.293 110.133 184.567 122.868 168.868 122.868C153.17 122.868 140.444 110.133 140.444 94.4231V43.3565C140.444 37.9771 136.045 33.5757 130.67 33.5757C125.294 33.5757 120.896 37.9771 120.896 43.3565V94.4231C120.896 120.936 142.374 142.43 168.868 142.43C195.363 142.43 216.841 120.936 216.841 94.4231V43.3565C216.841 37.9771 212.443 33.5757 207.067 33.5757Z" fill="white"/>
    <path d="M511.091 33.5757C495.48 33.5757 481.653 41.0713 472.892 52.6256C464.132 41.0713 450.305 33.5757 434.694 33.5757C408.199 33.5757 386.721 55.069 386.721 81.5823V132.649C386.721 138.028 391.119 142.43 396.495 142.43C401.871 142.43 406.269 138.028 406.269 132.649V81.5823C406.269 65.8726 418.995 53.1375 434.694 53.1375C450.392 53.1375 463.118 65.8726 463.118 81.5823V132.649C463.118 135.339 464.218 137.784 465.989 139.557C467.761 141.329 470.204 142.43 472.892 142.43H472.892C473.564 142.43 474.221 142.361 474.856 142.23C475.49 142.099 476.103 141.906 476.687 141.658C477.856 141.161 478.909 140.443 479.795 139.557C481.567 137.784 482.666 135.339 482.666 132.649V81.5823C482.666 65.8726 495.392 53.1375 511.091 53.1375C526.79 53.1375 539.516 65.8726 539.516 81.5823V132.649C539.516 138.028 543.914 142.43 549.29 142.43C554.665 142.43 559.064 138.028 559.064 132.649V81.5823C559.064 55.069 537.586 33.5757 511.091 33.5757Z" fill="white"/>
    <path d="M54.3888 33.5756C24.3507 33.5756 0.000137135 57.9434 0.000137135 88.0027H0V174.539C0 179.919 4.39832 184.32 9.77407 184.32C15.1497 184.32 19.548 179.919 19.548 174.539V88.0027H19.5481C19.5481 68.7471 35.1469 53.1375 54.3888 53.1375C73.6308 53.1375 89.2295 68.7471 89.2295 88.0027C89.2295 107.258 73.6308 122.868 54.3888 122.868C48.9908 122.868 44.6148 127.247 44.6148 132.649C44.6148 138.051 48.9908 142.43 54.3888 142.43C84.4268 142.43 108.778 118.062 108.778 88.0027C108.778 57.9434 84.4268 33.5756 54.3888 33.5756Z" fill="white"/>
    <path d="M203.462 22.647C203.462 22.6017 203.449 22.5599 203.448 22.5149C203.442 22.3157 203.421 22.1185 203.389 21.9213C203.015 17.6205 199.45 14.234 195.055 14.234C193.703 14.234 192.444 14.5831 191.312 15.1507C189.304 6.47631 181.57 0.000823975 172.291 0.000823975C164.146 0.000823975 157.172 4.98299 154.225 12.0649C152.205 10.7612 149.805 9.99622 147.223 9.99622C140.072 9.99622 134.275 15.797 134.275 22.9527C134.275 26.6896 137.19 27.1091 141.965 27.1091L199.047 27.1094C201.824 27.1094 203.451 24.8897 203.448 22.6461C203.453 22.6463 203.457 22.6465 203.462 22.647Z" fill="#EE975C"/>
</svg>
