<svg width="326" height="328" viewBox="0 0 326 328" fill="none" xmlns="http://www.w3.org/2000/svg">
<path d="M132.711 121.14C135.711 120.02 140.321 117.39 143.361 117.92C144.601 118.14 146.951 118.46 148.491 118.61C150.031 118.76 162.921 118.7 164.491 118.42C169.601 117.52 174.051 115.31 179.041 114C182.496 113.092 186.129 113.117 189.571 114.07C193.191 114.86 199.831 116.07 203.671 115.23C209.561 113.95 211.911 112.5 217.941 111.76C226.031 110.76 230.791 116.43 238.101 116.68C242.731 116.83 248.101 114.2 252.501 115.96C256.281 117.49 259.261 121.24 257.991 119.49C254.881 115.16 251.521 110.8 246.941 107.93C235.141 100.5 221.721 98.93 208.151 97.26C201.741 96.45 195.431 94.61 188.961 95.35C183.181 96.01 177.281 96.27 171.511 97.06C165.741 97.85 159.731 100.14 154.221 102.15L132.711 121.14Z" fill="#F26E7E"/>
<path d="M58.4246 181.008C45.5646 179.608 26.8646 169.008 23.4246 165.808C13.4246 156.348 16.7246 141.268 22.3646 130.608C31.4846 113.418 50.8446 104.088 67.1946 95.238C74.5346 91.238 92.3146 83.9681 114.805 83.1081C130.695 82.5081 147.545 84.4681 157.865 87.4681C162.805 88.9081 174.535 90.748 179.685 91.168C187.275 91.798 185.565 90.318 193.015 90.938C175.855 104.738 153.405 108.558 134.855 119.838C125.065 125.838 114.265 131.838 105.575 139.318C100.735 143.488 95.2346 146.658 90.3446 150.798C86.7146 153.878 79.8446 156.798 77.7946 161.178" fill="#8A3391"/>
<path d="M91.0613 106.25C91.0613 106.25 112.741 85.09 142.961 102.86L101.861 137.72L91.0613 106.25Z" fill="#F26E7E"/>
<path d="M116.421 137.8C120.531 137.32 130.661 155.48 134.241 149.51C159.131 108.12 196.701 99.92 219.241 101.97C246.921 104.49 253.351 114.84 260.131 123.61C261.131 124.92 262.131 125.94 262.281 126.24C248.351 96.5 227.721 85 203.941 81.93C181.741 79.09 158.941 81.24 138.511 93.76C119.511 105.39 112.011 117.76 112.011 117.76C112.011 117.76 118.451 118.47 116.421 137.8Z" fill="#BD4C85"/>
<path d="M122.781 108.4C122.781 108.4 152.421 85.75 199.301 87.34C215.381 87.89 241.871 91.85 258.111 118.14C244.361 94.05 225.001 84.66 203.401 81.89C181.201 79.04 153.401 79 133.401 92.19C121.101 100.29 122.781 108.4 122.781 108.4Z" fill="#8A3391"/>
<path d="M160.331 243C154.133 244.029 148.156 246.112 142.661 249.16C137.121 252.16 131.901 259.66 128.731 264.96C126.731 268.24 126.011 270.21 124.041 273.53C122.571 276.01 121.181 279.42 119.431 281.64C116.951 284.78 111.081 283.64 108.111 283.17C101.511 282.12 96.3814 280.03 90.1114 277.55C84.5514 275.32 78.1114 271.97 74.3214 267.23C72.1814 264.53 74.0414 262.23 76.4014 262.23C74.6014 257.36 76.8914 253.1 82.3114 254.98C81.0114 249.4 82.4914 244.3 87.9714 245.12C93.4514 245.94 96.7614 251 100.291 254.22C102.001 255.79 105.951 259.38 108.061 260.38C110.991 261.78 111.621 261.38 113.491 258.79C117.431 253.42 118.841 250.26 122.651 246.46C128.131 241 135.561 234.82 143.411 233.33" fill="url(#paint0_linear)"/>
<path d="M157.131 241.07C151.736 242.42 146.559 244.524 141.751 247.32C135.981 250.67 130.541 258.96 127.231 264.84C125.231 268.48 124.401 270.66 122.341 274.35C120.891 276.95 119.511 280.47 117.811 282.93C118.472 282.618 119.054 282.16 119.511 281.59C121.261 279.37 122.651 275.96 124.121 273.48C126.121 270.16 126.841 268.19 128.811 264.91C131.981 259.61 137.201 252.13 142.731 249.11C148.233 246.081 154.213 244.014 160.411 243L157.131 241.07Z" fill="#B8BDF0"/>
<path d="M52.3514 172.92C50.7714 183.92 42.8414 191.57 31.6714 189.22C25.7414 187.98 24.0914 185.89 22.4914 180.28C21.1014 175.4 17.5714 171.8 11.9714 172.17C6.37144 172.54 2.16144 176.59 0.481441 182.17C-1.46856 188.66 2.81144 194.81 7.81144 198.65C16.8114 205.54 31.4714 207.27 41.8114 204.39C56.2114 200.39 60.0014 186.93 64.8114 175.12" fill="url(#paint1_linear)"/>
<path d="M40.7513 200.34C30.3913 203.25 17.4613 202.01 8.49133 195.12C4.91133 192.37 0.851335 189.48 0.0413347 185.12C-0.248665 190.59 3.52133 195.62 7.83133 198.92C16.8313 205.81 31.4913 207.54 41.8313 204.66C56.2313 200.66 60.0213 187.2 64.8313 175.39L63.6413 175.18C57.7813 181.48 56.0013 196.05 40.7513 200.34Z" fill="#B8BDF0"/>
<path d="M18.1115 180.74C16.0315 185.35 17.5515 189.88 24.2815 187.43C30.7315 185.09 30.6315 177.84 26.4515 176.61C24.8016 176.303 23.0965 176.539 21.5925 177.284C20.0885 178.029 18.867 179.241 18.1115 180.74Z" fill="url(#paint2_linear)"/>
<path d="M24.0016 185.2C21.0616 186.05 18.8916 186.13 17.4016 185.69C17.9916 187.82 20.1616 188.93 24.2616 187.43C25.4717 187.066 26.5676 186.396 27.4434 185.486C28.3193 184.575 28.9455 183.453 29.2616 182.23C27.8103 183.679 25.992 184.706 24.0016 185.2Z" fill="#B8BDF0"/>
<path d="M163.001 218C179.091 222.52 200.881 214.93 221.701 203.48C240.911 192.91 253.831 188.65 263.201 189.68C279.201 191.45 279.591 209.25 262.701 219.38C245.571 229.64 210.371 240.68 156.411 243.72C140.331 244.63 165.921 236.58 149.741 233.11C137.491 230.49 149.821 217.72 138.981 212.74" fill="url(#paint3_linear)"/>
<path d="M24.1015 111.87C23.6215 92.61 28.3915 86.05 38.8315 79.87C49.1015 73.73 66.8315 70.12 82.0015 75C101.091 81.1 108.641 93.68 117.731 108.32C120.471 112.73 121.071 118.38 129.251 127.32C146.121 145.8 161.921 154.37 180.941 175.26C216.081 213.83 206.001 235.19 206.001 235.19C206.001 235.19 170.001 245.6 146.871 244C126.191 242.55 112.641 241.73 93.5015 228.69C75.1915 216.21 51.1415 183.16 40.5515 161.34C39.2215 158.57 24.8415 141 24.1015 111.87Z" fill="url(#paint4_linear)"/>
<path d="M259.662 217.18C244.982 225.57 222.342 230.63 187.662 237.45C177.092 239.53 165.532 241.75 147.442 240.45C126.762 238.99 113.522 237.71 94.0815 225.14C62.8415 205 39.8115 160.05 41.1515 162.8C51.7415 184.62 75.1516 216.46 93.4815 228.94C112.622 241.99 125.642 244.68 145.672 245.83C183.072 247.97 206.602 237.97 217.172 235.83C239.092 231.43 253.522 226.5 265.302 218.24C278.012 209.34 274.992 198.43 274.992 198.43C274.992 198.43 276.072 207.8 259.662 217.18Z" fill="#B8BDF0"/>
<path d="M266.221 254.55C262.041 247.34 257.761 243.32 252.531 238.8C249.661 236.305 246.656 233.968 243.531 231.8C241.191 230.18 236.981 227.26 229.761 230.36C224.701 232.52 218.761 235.76 214.031 234.65C208.111 233.27 200.941 226.65 197.671 222.9L180.311 230.59L183.101 233.43C188.161 239.61 197.371 246.18 204.491 249.7C211.611 253.22 218.371 251.32 226.251 249.42L228.001 249C232.451 254.31 235.001 261.36 238.001 267.56C239.211 270.03 241.001 273.35 244.001 273.65C248.261 274.06 249.501 270.86 249.911 266.65C250.971 268.45 254.141 271.76 256.741 271.65C260.391 271.55 260.621 267.11 260.381 263.28C262.961 266.67 265.711 267.45 267.531 265.23C269.471 262.86 268.111 257.82 266.221 254.55Z" fill="url(#paint5_linear)"/>
<path d="M266.221 254.55C264.466 251.488 262.398 248.616 260.051 245.98C260.038 247.576 259.918 249.17 259.691 250.75C259.071 254.81 256.601 262.12 251.461 259.56C249.761 258.71 247.601 256.19 245.461 257.61C243.561 258.89 244.021 262.55 241.851 263.5C239.681 264.45 238.221 261.43 236.911 260.24C235.601 259.05 234.971 259.49 234.661 260.48C235.771 262.87 236.821 265.28 237.951 267.57C239.161 270.04 240.951 273.36 243.951 273.66C248.211 274.07 249.451 270.87 249.861 266.66C250.921 268.46 254.091 271.77 256.691 271.66C260.341 271.56 260.571 267.12 260.331 263.29C262.911 266.68 265.661 267.46 267.481 265.24C269.471 262.86 268.111 257.82 266.221 254.55Z" fill="#B8BDF0"/>
<path d="M227.921 246.35C223.971 246.35 220.921 247.44 217.371 247.62C213.138 247.874 208.893 247.345 204.851 246.06C201.363 244.5 198.119 242.442 195.221 239.95C190.701 236.24 181.961 229.62 178.431 229.62C178.431 229.62 191.501 243.23 199.431 247.62C203.924 250.429 209.134 251.877 214.431 251.79C219.851 251.6 228.861 248.79 230.931 248.5C232.052 248.261 233.218 248.347 234.291 248.75C234.291 248.75 232.661 246.35 227.921 246.35Z" fill="#B8BDF0"/>
<path d="M188.901 236.14C184.081 228.37 157.121 220.78 157.661 229.08C155.099 227.271 152.244 225.918 149.221 225.08C147.781 224.64 141.821 224.02 142.721 227.88C140.721 226.78 125.131 215.99 126.091 223.02C121.901 219.72 115.371 215.48 110.481 216.8C107.481 217.62 107.571 221.33 108.621 222.97C104.891 220.39 97.8014 215.84 93.7914 216.56C91.7914 217.05 92.7914 219.99 95.3814 222.22C92.7964 219.858 89.9156 217.841 86.8114 216.22C84.5594 215.142 82.0757 214.637 79.5814 214.75C78.9114 216.41 79.7714 217.13 81.8214 219.14C81.8214 219.14 103.271 242.91 135.121 243.14C135.121 243.18 179.621 246 188.901 236.14Z" fill="#B8BDF0"/>
<path d="M169.401 80.92C176.881 66.83 171.531 64.37 171.531 64.37C169.091 63.15 166.641 63.78 164.351 67.23C161.351 71.78 158.981 81.59 158.981 81.59C159.161 77.13 159.201 74.35 159.141 72.35C158.861 62.5 153.781 63.46 153.781 63.46C149.051 64.09 148.421 71.46 148.281 77.82C148.281 79.63 148.001 84.16 147.941 85.63C144.381 85.82 139.481 87.49 139.941 91.04C139.941 91.04 140.751 97.11 147.061 95.67C143.551 121.13 133.701 135.67 127.721 142.32C124.891 145.5 125.651 150.2 125.651 150.2L130.441 159.5C150.701 144.84 160.941 110.39 164.271 96.95C170.431 95.95 173.851 90.69 173.851 90.69C177.001 84.67 172.801 82 169.401 80.92Z" fill="url(#paint6_linear)"/>
<path d="M140.001 91.28C140.001 91.28 140.511 97.39 147.811 97.65C147.811 97.65 156.431 97.8 156.731 91.65C156.731 91.68 141.691 94 140.001 91.28Z" fill="#B8BDF0"/>
<path d="M159.391 85.89C159.391 85.89 153.551 93.89 161.801 96.47C161.801 96.47 166.801 99.19 173.801 90.69L159.391 85.89Z" fill="#B8BDF0"/>
<path d="M120.821 135C124.421 143.79 110.281 146.22 108.661 150.73C105.661 159.12 91.8013 154.59 81.8413 156.45C70.3513 158.61 69.9213 160.11 58.1313 160.34C53.1313 160.43 47.8613 160.02 42.8813 159.9C39.5113 160.69 44.6913 165.82 47.6013 167.9C49.6666 169.235 51.8529 170.374 54.1313 171.3C54.1313 171.3 54.4613 181.16 58.2213 184.23C60.3013 185.94 61.8513 184.11 63.3813 182.28C66.3013 178.8 68.0013 174.77 67.5513 170.62C67.0813 176.36 73.4813 188.77 79.1913 188.2C84.2513 187.7 85.7513 175.56 85.8013 171.67C85.8013 170.23 89.8013 168.59 99.4313 166.43C107.431 164.63 118.601 158.55 122.921 151.12C128.921 140.78 124.011 131.05 127.111 124.06L122.921 126.16L120.821 135Z" fill="#4D5BD9"/>
<path d="M177.911 327.72C259.495 327.72 325.631 321.806 325.631 314.51C325.631 307.214 259.495 301.3 177.911 301.3C96.3279 301.3 30.1914 307.214 30.1914 314.51C30.1914 321.806 96.3279 327.72 177.911 327.72Z" fill="#6E2974"/>
<path d="M177.751 317.4C236.702 317.4 284.491 313.953 284.491 309.7C284.491 305.447 236.702 302 177.751 302C118.801 302 71.0115 305.447 71.0115 309.7C71.0115 313.953 118.801 317.4 177.751 317.4Z" fill="#BD4C85"/>
<path d="M66.9415 131.08C64.8299 130.958 62.7172 131.299 60.7515 132.08L66.9415 131.08Z" fill="#FFA400"/>
<path d="M175.501 313.01C219.745 313.01 255.611 310.879 255.611 308.25C255.611 305.621 219.745 303.49 175.501 303.49C131.258 303.49 95.3915 305.621 95.3915 308.25C95.3915 310.879 131.258 313.01 175.501 313.01Z" fill="#F26E7E"/>
<path d="M224.65 8C222.888 6.08228 221.864 3.60185 221.76 1C221.664 3.60375 220.639 6.08707 218.87 8C217.538 9.23932 215.816 9.97497 214 10.08C221.67 11.3 221 17.93 221.72 23.31C222.32 18.2 221.77 11.31 229.44 10.08C227.653 9.95284 225.963 9.21898 224.65 8Z" fill="white"/>
<path d="M198.13 13.07C197.117 11.9504 196.533 10.5088 196.48 9C196.422 10.5114 195.83 11.9533 194.81 13.07C194.039 13.7812 193.047 14.2051 192 14.27C195.63 15.07 196.07 16.27 196.48 19.4C196.83 16.4 197.53 15.53 200.97 14.27C199.913 14.2119 198.909 13.7876 198.13 13.07Z" fill="white"/>
<path d="M167.43 14.86C168.22 14.86 168.86 14.2198 168.86 13.43C168.86 12.6402 168.22 12 167.43 12C166.64 12 166 12.6402 166 13.43C166 14.2198 166.64 14.86 167.43 14.86Z" fill="#F26E7E"/>
<path d="M149.5 49C150.328 49 151 48.3284 151 47.5C151 46.6716 150.328 46 149.5 46C148.672 46 148 46.6716 148 47.5C148 48.3284 148.672 49 149.5 49Z" fill="#F26E7E"/>
<path d="M161.5 65C162.328 65 163 64.3284 163 63.5C163 62.6716 162.328 62 161.5 62C160.672 62 160 62.6716 160 63.5C160 64.3284 160.672 65 161.5 65Z" fill="#F26E7E"/>
<path d="M206.61 46.22C207.499 46.22 208.22 45.4992 208.22 44.61C208.22 43.7208 207.499 43 206.61 43C205.721 43 205 43.7208 205 44.61C205 45.4992 205.721 46.22 206.61 46.22Z" fill="#F7BF2A"/>
<path d="M242.61 5.22C243.499 5.22 244.22 4.49918 244.22 3.61C244.22 2.72082 243.499 2 242.61 2C241.721 2 241 2.72082 241 3.61C241 4.49918 241.721 5.22 242.61 5.22Z" fill="#F26E7E"/>
<path d="M221.61 28.22C222.499 28.22 223.22 27.4992 223.22 26.61C223.22 25.7208 222.499 25 221.61 25C220.721 25 220 25.7208 220 26.61C220 27.4992 220.721 28.22 221.61 28.22Z" fill="#F7BF2A"/>
<path d="M230.61 16.22C231.499 16.22 232.22 15.4992 232.22 14.61C232.22 13.7208 231.499 13 230.61 13C229.721 13 229 13.7208 229 14.61C229 15.4992 229.721 16.22 230.61 16.22Z" fill="#F7BF2A"/>
<path d="M159.61 60.22C160.499 60.22 161.22 59.4992 161.22 58.61C161.22 57.7208 160.499 57 159.61 57C158.721 57 158 57.7208 158 58.61C158 59.4992 158.721 60.22 159.61 60.22Z" fill="#F7BF2A"/>
<path d="M202.61 20.22C203.499 20.22 204.22 19.4992 204.22 18.61C204.22 17.7208 203.499 17 202.61 17C201.721 17 201 17.7208 201 18.61C201 19.4992 201.721 20.22 202.61 20.22Z" fill="#F26E7E"/>
<path d="M187.43 64.86C188.22 64.86 188.86 64.2198 188.86 63.43C188.86 62.6402 188.22 62 187.43 62C186.64 62 186 62.6402 186 63.43C186 64.2198 186.64 64.86 187.43 64.86Z" fill="#805AC3"/>
<path d="M149.83 60.66C150.288 60.66 150.66 60.2884 150.66 59.83C150.66 59.3716 150.288 59 149.83 59C149.372 59 149 59.3716 149 59.83C149 60.2884 149.372 60.66 149.83 60.66Z" fill="#805AC3"/>
<path d="M209.83 29.66C210.288 29.66 210.66 29.2884 210.66 28.83C210.66 28.3716 210.288 28 209.83 28C209.372 28 209 28.3716 209 28.83C209 29.2884 209.372 29.66 209.83 29.66Z" fill="#805AC3"/>
<path d="M252.83 1.66C253.288 1.66 253.66 1.2884 253.66 0.83C253.66 0.371604 253.288 0 252.83 0C252.372 0 252 0.371604 252 0.83C252 1.2884 252.372 1.66 252.83 1.66Z" fill="#805AC3"/>
<path d="M156.631 46.1C157.421 46.1 158.061 45.4598 158.061 44.67C158.061 43.8802 157.421 43.24 156.631 43.24C155.842 43.24 155.201 43.8802 155.201 44.67C155.201 45.4598 155.842 46.1 156.631 46.1Z" fill="#805AC3"/>
<path d="M216.43 15.86C217.22 15.86 217.86 15.2198 217.86 14.43C217.86 13.6402 217.22 13 216.43 13C215.64 13 215 13.6402 215 14.43C215 15.2198 215.64 15.86 216.43 15.86Z" fill="#805AC3"/>
<path d="M151.331 42.13C150.937 41.6483 150.648 41.0898 150.481 40.49C150.161 39.73 149.681 39.74 149.361 40.49C149.172 41.1156 148.859 41.697 148.441 42.2C147.943 42.6071 147.391 42.9436 146.801 43.2C146.717 43.2348 146.646 43.2938 146.595 43.3694C146.544 43.4451 146.517 43.534 146.517 43.625C146.517 43.716 146.544 43.805 146.595 43.8806C146.646 43.9563 146.717 44.0152 146.801 44.05C147.405 44.1438 147.97 44.4068 148.43 44.8086C148.89 45.2104 149.227 45.7345 149.401 46.32C149.631 46.9 150.131 46.92 150.401 46.32C150.831 45.24 151.221 44.64 153.071 43.91C153.159 43.8769 153.234 43.818 153.287 43.7412C153.34 43.6644 153.368 43.5733 153.368 43.48C153.368 43.3867 153.34 43.2956 153.287 43.2188C153.234 43.142 153.159 43.0832 153.071 43.05C152.439 42.8538 151.849 42.5419 151.331 42.13Z" fill="white"/>
<path d="M144.966 57.4314C144.646 57.1314 144.606 56.7514 144.386 56.2914C144.166 55.8314 143.946 55.9814 143.806 56.2914C143.672 56.7209 143.458 57.1212 143.176 57.4714C142.875 57.7281 142.538 57.9402 142.176 58.1014C142.124 58.1222 142.08 58.1581 142.048 58.2044C142.017 58.2508 142 58.3055 142 58.3614C142 58.4174 142.017 58.4721 142.048 58.5184C142.08 58.5648 142.124 58.6007 142.176 58.6214C142.572 58.6808 142.94 58.8574 143.234 59.1283C143.528 59.3993 143.735 59.7522 143.826 60.1414C143.966 60.4914 144.196 60.4914 144.326 60.1414C144.616 59.4014 144.816 59.0214 146.026 58.5414C146.077 58.5187 146.121 58.4815 146.151 58.4345C146.182 58.3874 146.198 58.3325 146.198 58.2764C146.198 58.2203 146.182 58.1655 146.151 58.1184C146.121 58.0714 146.077 58.0342 146.026 58.0114C145.641 57.8831 145.282 57.6867 144.966 57.4314Z" fill="white"/>
<path d="M178.966 64.4314C178.646 64.1314 178.606 63.7514 178.386 63.2914C178.166 62.8314 177.946 62.9814 177.806 63.2914C177.672 63.7239 177.458 64.1275 177.176 64.4814C176.872 64.7317 176.536 64.9402 176.176 65.1014C176.124 65.1222 176.08 65.1581 176.048 65.2044C176.017 65.2508 176 65.3055 176 65.3614C176 65.4174 176.017 65.4721 176.048 65.5184C176.08 65.5648 176.124 65.6007 176.176 65.6214C176.573 65.6815 176.942 65.8595 177.237 66.1324C177.531 66.4052 177.736 66.7603 177.826 67.1514C177.966 67.5014 178.196 67.5014 178.326 67.1514C178.616 66.4114 178.816 66.0214 180.026 65.5414C180.077 65.5187 180.121 65.4815 180.151 65.4345C180.182 65.3874 180.198 65.3325 180.198 65.2764C180.198 65.2203 180.182 65.1655 180.151 65.1184C180.121 65.0714 180.077 65.0342 180.026 65.0114C179.639 64.8874 179.279 64.6905 178.966 64.4314Z" fill="white"/>
<path d="M157.331 52.6C157.084 52.3091 156.903 51.9679 156.801 51.6C156.601 51.14 156.301 51.14 156.111 51.6C155.983 51.9651 155.79 52.3039 155.541 52.6C155.237 52.8496 154.901 53.0581 154.541 53.22C154.489 53.2408 154.445 53.2767 154.414 53.323C154.382 53.3693 154.365 53.424 154.365 53.48C154.365 53.536 154.382 53.5907 154.414 53.637C154.445 53.6834 154.489 53.7192 154.541 53.74C154.916 53.7984 155.266 53.9619 155.551 54.2115C155.836 54.4612 156.044 54.7866 156.151 55.15C156.291 55.5 156.601 55.51 156.741 55.15C157.011 54.48 157.251 54.15 158.391 53.65C158.443 53.6272 158.486 53.5901 158.517 53.543C158.547 53.496 158.564 53.4411 158.564 53.385C158.564 53.3289 158.547 53.274 158.517 53.227C158.486 53.18 158.443 53.1428 158.391 53.12C158.009 53.0141 157.649 52.8378 157.331 52.6Z" fill="white"/>
<path d="M90.1015 126.29C90.1015 126.29 92.7215 142.45 85.7815 157.11L76.0015 156.66L90.1015 126.29Z" fill="#3E49AE"/>
<path d="M127.201 121.52C123.631 128.52 128.061 141.33 121.201 151.66C116.201 159.1 105.571 163.51 96.4014 165.31C85.3214 167.48 84.0014 167.59 84.0014 169C83.9414 172.89 83.0014 183.26 77.1414 183.77C70.5814 184.37 65.0014 173.7 65.5614 168C65.0514 171.49 64.9514 176.75 62.5614 179.62C60.9614 181.55 58.8814 183.62 56.4914 181.95C52.1714 178.88 53.7414 170.72 53.7414 170.72C51.0538 169.948 48.4584 168.885 46.0014 167.55C42.6514 165.44 37.4014 157.48 41.2714 156.69C47.0114 156.81 53.1214 157.22 58.8214 157.13C72.3814 156.9 76.4114 153.13 89.8214 151.9C99.6914 150.99 106.961 147.9 112.461 143.48C125.641 132.95 127.701 116.31 124.781 110.1C124.781 110.1 129.781 117.57 128.591 119.64" fill="#F7BF2A"/>
<path d="M50.0714 169C45.9014 166.2 58.6614 160.86 53.6414 161.72C49.7914 162.37 45.7214 163.28 42.8014 160.59C42.2342 159.984 41.8202 159.251 41.594 158.453C41.3679 157.654 41.3361 156.813 41.5014 156L77.1714 130.66C78.2914 132.56 80.0114 133.78 81.2914 135.45C82.9314 137.61 79.6314 152.88 79.6314 152.88L86.9914 152.21C85.4986 155.668 84.1901 159.203 83.0714 162.8C81.2614 168.96 78.3514 170.59 72.7114 171.68C70.5706 172.074 68.3982 172.272 66.2214 172.27C66.0114 172.27 65.4114 170.39 65.4114 170.39C65.4114 170.39 65.1514 172.27 64.9314 172.27C59.3214 172.2 53.2714 171.17 50.0714 169Z" fill="#8A3391"/>
<path d="M30.4115 117.12C28.4115 108.33 35.4115 102.24 45.5415 98.31C53.5415 95.22 66.6715 96.24 72.0015 97.95C79.7115 100.41 85.8015 105.31 89.7115 113.95C92.7115 120.66 90.0815 130.23 88.7115 137.33C86.7115 147.76 84.4415 154.33 77.7115 161.09C71.3815 167.49 66.0915 170.75 57.5515 172.09C50.5515 173.16 40.5515 169.52 31.1415 168.28C21.7315 167.04 13.0015 168.09 7.70147 162.75C-4.22853 150.68 23.4915 131.46 29.8015 122.75C30.7415 121.48 31.6115 120.12 30.4115 117.12Z" fill="#F26E7E"/>
<path d="M89.8214 113.91C85.9214 105.31 79.8214 100.42 72.1114 97.91C66.7814 96.21 53.6214 95.18 45.6514 98.27C38.8014 101 33.4014 104.6 31.2214 109.39C33.6614 105.09 38.1114 102 44.6614 100C54.9114 97 65.2214 98.07 70.5514 99.78C78.2614 102.24 84.3614 107.14 88.2614 115.73C91.2614 122.44 89.6914 131.17 88.3514 138.27C87.2614 144.01 86.0714 148.58 84.1114 152.66C86.3814 148.33 87.6714 143.49 88.8514 137.28C90.1914 130.18 92.8714 120.62 89.8214 113.91Z" fill="#B90078"/>
<path d="M77.8115 158.56C71.4915 164.98 67.0615 166.56 59.5115 168.11C51.6615 169.74 41.3415 165.51 30.2215 164.11C22.1315 163.11 12.2915 164.88 7.73147 160.26C6.15208 158.739 5.13951 156.725 4.86147 154.55C4.64663 156.047 4.79326 157.573 5.28909 159.001C5.78492 160.43 6.61553 161.718 7.71147 162.76C12.8215 167.92 20.5115 167.76 29.6315 169.04C39.2815 170.43 47.0415 173.04 57.6315 172.04C66.2315 171.23 71.0915 167.71 77.8315 161.38C81.323 157.936 84.0282 153.778 85.7615 149.19C87.2806 145.331 88.325 141.301 88.8715 137.19C88.8715 137.19 85.7415 150.5 77.8115 158.56Z" fill="#F7A8B2"/>
<path d="M35.2815 140.84C34.2315 143 32.3815 144.27 31.1615 143.68C29.9415 143.09 29.8115 140.85 30.8615 138.68C31.9115 136.51 33.7615 135.25 34.9815 135.85C36.2015 136.45 36.3415 138.68 35.2815 140.84ZM54.1215 137.69C52.9015 137.09 51.0515 138.36 50.0015 140.52C48.9515 142.68 49.0815 144.92 50.3015 145.52C51.5215 146.12 53.3715 144.85 54.4215 142.69C55.4715 140.53 55.3415 138.28 54.1215 137.69Z" fill="#131314"/>
<path d="M35.0014 135.82C33.7814 135.22 31.9314 136.49 30.8814 138.65C30.5162 139.384 30.2827 140.176 30.1914 140.99C30.2614 140.84 30.3114 140.69 30.3914 140.53C31.4414 138.37 33.2914 137.1 34.5114 137.7C35.2814 138.07 35.6114 139.1 35.5114 140.35C36.3114 138.34 36.1214 136.37 35.0014 135.82Z" fill="#910090"/>
<path d="M49.5216 142.37C50.5216 140.21 52.4216 138.94 53.6416 139.54C54.4116 139.91 54.7416 140.94 54.6416 142.19C55.4716 140.19 55.2816 138.19 54.1516 137.66C53.0216 137.13 51.0816 138.33 50.0316 140.49C49.6664 141.224 49.4328 142.016 49.3416 142.83C49.3916 142.68 49.4416 142.52 49.5216 142.37Z" fill="#910090"/>
<path d="M30.6313 121.43C30.6313 121.43 35.0813 115.94 36.8513 111.05C36.8513 111.05 32.8513 107.68 30.3613 111.86C29.446 114.999 29.5405 118.347 30.6313 121.43Z" fill="#F7A8B2"/>
<path d="M33.6816 102.52C36.9069 102.52 39.5216 99.9053 39.5216 96.68C39.5216 93.4546 36.9069 90.84 33.6816 90.84C30.4562 90.84 27.8416 93.4546 27.8416 96.68C27.8416 99.9053 30.4562 102.52 33.6816 102.52Z" fill="#FEF9EA"/>
<path d="M35.0615 99.8C36.989 99.8 38.5515 98.2375 38.5515 96.31C38.5515 94.3825 36.989 92.82 35.0615 92.82C33.1341 92.82 31.5715 94.3825 31.5715 96.31C31.5715 98.2375 33.1341 99.8 35.0615 99.8Z" fill="#131314"/>
<path d="M84.4115 97.32C86.1567 97.32 87.5715 95.9052 87.5715 94.16C87.5715 92.4148 86.1567 91 84.4115 91C82.6662 91 81.2515 92.4148 81.2515 94.16C81.2515 95.9052 82.6662 97.32 84.4115 97.32Z" fill="black"/>
<path d="M112.201 275.64C106.871 272.78 102.871 270 99.3714 266.11C96.6987 263.209 94.2074 260.147 91.9114 256.94C90.7014 255.12 89.1414 252.12 87.2814 250.34C85.0214 248.17 82.9214 248.34 82.0314 250.51C81.6614 251.41 82.0314 257.87 86.4514 260.98C85.0416 259.494 83.3834 258.266 81.5514 257.35C79.3714 256.35 77.7314 256.92 77.0314 257.65C74.6414 260.13 77.5914 265.16 79.2914 266.27C78.3814 265.43 76.5414 264.09 74.8214 264.75C74.3014 264.96 73.4614 265.75 73.8214 266.27C77.5814 272.18 85.1414 275.94 90.7014 278.16C96.3399 280.535 102.247 282.214 108.291 283.16C111.061 283.6 116.291 284.69 119.081 282.07C120.091 280.05 115.341 277.32 112.201 275.64Z" fill="#B8BDF0"/>
<path d="M134.071 109.38C131.741 113.43 136.371 121.95 135.971 126.51C135.171 135.72 132.681 140.51 128.301 146.51C125.931 149.73 121.851 154.42 112.301 159.51C112.841 155.752 113.849 152.077 115.301 148.57C116.491 145.87 118.551 143.5 119.761 140.77C122.717 134.102 124.633 127.019 125.441 119.77L134.071 109.38Z" fill="#F7BF2A"/>
<path d="M82.2913 100.36C85.7265 100.36 88.5113 97.5752 88.5113 94.14C88.5113 90.7048 85.7265 87.92 82.2913 87.92C78.8561 87.92 76.0713 90.7048 76.0713 94.14C76.0713 97.5752 78.8561 100.36 82.2913 100.36Z" fill="#FEF9EA"/>
<path d="M83.7815 97.25C85.709 97.25 87.2715 95.6875 87.2715 93.76C87.2715 91.8326 85.709 90.27 83.7815 90.27C81.854 90.27 80.2915 91.8326 80.2915 93.76C80.2915 95.6875 81.854 97.25 83.7815 97.25Z" fill="#131314"/>
<path fill-rule="evenodd" clip-rule="evenodd" d="M162.225 39.9127C163.88 38.9571 163.883 35.8632 162.231 33.0023C160.579 30.1415 157.898 28.597 156.243 29.5526C154.588 30.5083 154.585 33.6021 156.237 36.463C157.889 39.3239 160.57 40.8683 162.225 39.9127ZM162.235 46.0385C163.886 48.8994 163.884 51.9933 162.229 52.9489C160.573 53.9046 157.893 52.3601 156.241 49.4992C154.589 46.6383 154.592 43.5445 156.247 42.5888C157.902 41.6332 160.583 43.1777 162.235 46.0385ZM173.514 52.5597C175.166 55.4206 175.163 58.5145 173.508 59.4701C171.853 60.4257 169.172 58.8812 167.52 56.0204C165.868 53.1595 165.871 50.0656 167.526 49.11C169.181 48.1544 171.862 49.6988 173.514 52.5597ZM173.51 39.5237C175.162 42.3845 175.159 45.4784 173.504 46.4341C171.849 47.3897 169.168 45.8452 167.517 42.9843C165.865 40.1235 165.868 37.0296 167.523 36.074C169.178 35.1183 171.859 36.6628 173.51 39.5237Z" fill="#F26E7E"/>
<path fill-rule="evenodd" clip-rule="evenodd" d="M196.075 36.4702C197.727 33.6093 197.724 30.5155 196.069 29.5598C194.414 28.6042 191.733 30.1487 190.081 33.0095C188.429 35.8704 188.432 38.9643 190.087 39.9199C191.742 40.8756 194.423 39.3311 196.075 36.4702ZM196.075 42.5929C197.73 43.5485 197.733 46.6424 196.081 49.5033C194.43 52.3642 191.749 53.9086 190.094 52.953C188.438 51.9974 188.436 48.9035 190.087 46.0426C191.739 43.1818 194.42 41.6373 196.075 42.5929ZM184.798 49.1034C186.453 50.059 186.456 53.1529 184.804 56.0138C183.152 58.8746 180.472 60.4191 178.816 59.4635C177.161 58.5078 177.158 55.414 178.81 52.5531C180.462 49.6922 183.143 48.1477 184.798 49.1034ZM184.792 36.0702C186.447 37.0258 186.449 40.1197 184.798 42.9806C183.146 45.8414 180.465 47.3859 178.81 46.4303C177.155 45.4747 177.152 42.3808 178.804 39.5199C180.456 36.659 183.136 35.1146 184.792 36.0702Z" fill="#8A3391"/>
<path fill-rule="evenodd" clip-rule="evenodd" d="M182.135 18.4607C182.135 20.3719 179.457 21.9213 176.154 21.9213C172.85 21.9213 170.172 20.3719 170.172 18.4607C170.172 16.5494 172.85 15 176.154 15C179.457 15 182.135 16.5494 182.135 18.4607ZM170.858 24.9645C170.858 26.8757 168.18 28.4251 164.877 28.4251C161.573 28.4251 158.895 26.8757 158.895 24.9645C158.895 23.0532 161.573 21.5038 164.877 21.5038C168.18 21.5038 170.858 23.0532 170.858 24.9645ZM187.446 28.4251C190.749 28.4251 193.427 26.8757 193.427 24.9645C193.427 23.0532 190.749 21.5038 187.446 21.5038C184.142 21.5038 181.464 23.0532 181.464 24.9645C181.464 26.8757 184.142 28.4251 187.446 28.4251ZM182.135 31.4828C182.135 33.3941 179.457 34.9435 176.154 34.9435C172.85 34.9435 170.172 33.3941 170.172 31.4828C170.172 29.5716 172.85 28.0222 176.154 28.0222C179.457 28.0222 182.135 29.5716 182.135 31.4828Z" fill="#F7BF2A"/>
<defs>
<linearGradient id="paint0_linear" x1="111.601" y1="283.8" x2="121.191" y2="229.44" gradientUnits="userSpaceOnUse">
<stop offset="0.13" stop-color="#949DE8"/>
<stop offset="0.85" stop-color="#4D5BD9"/>
</linearGradient>
<linearGradient id="paint1_linear" x1="34.1001" y1="205.594" x2="31.7924" y2="170.85" gradientUnits="userSpaceOnUse">
<stop offset="0.13" stop-color="#717CE1"/>
<stop offset="0.85" stop-color="#4D5BD9"/>
</linearGradient>
<linearGradient id="paint2_linear" x1="688.51" y1="1609.16" x2="688.51" y2="1476.59" gradientUnits="userSpaceOnUse">
<stop offset="0.13" stop-color="#949DE8"/>
<stop offset="0.85" stop-color="#3E49AE"/>
</linearGradient>
<linearGradient id="paint3_linear" x1="196.838" y1="185.936" x2="221.334" y2="238.941" gradientUnits="userSpaceOnUse">
<stop offset="0.16" stop-color="#2E3782"/>
<stop offset="0.56" stop-color="#3E49AE"/>
<stop offset="0.86" stop-color="#4D5BD9"/>
</linearGradient>
<linearGradient id="paint4_linear" x1="-930.948" y1="41844.6" x2="25273.8" y2="34052.9" gradientUnits="userSpaceOnUse">
<stop offset="0.13" stop-color="#949DE8"/>
<stop offset="0.85" stop-color="#4D5BD9"/>
</linearGradient>
<linearGradient id="paint5_linear" x1="-6457.5" y1="14380.9" x2="-5946.65" y2="12260.1" gradientUnits="userSpaceOnUse">
<stop offset="0.13" stop-color="#717CE1"/>
<stop offset="0.85" stop-color="#4D5BD9"/>
</linearGradient>
<linearGradient id="paint6_linear" x1="154.739" y1="62.5914" x2="146.662" y2="160.84" gradientUnits="userSpaceOnUse">
<stop offset="0.13" stop-color="#B8BDF0"/>
<stop offset="0.85" stop-color="#717CE1"/>
</linearGradient>
</defs>
</svg>
