<svg width="68" height="41" viewBox="0 0 68 41" fill="none" xmlns="http://www.w3.org/2000/svg">
<g clip-path="url(#clip0_2071_19873)">
<path d="M19.2936 14.554C19.2936 15.3772 19.3833 16.0446 19.5403 16.534C19.7197 17.0235 19.944 17.5574 20.2579 18.1358C20.3701 18.3138 20.4149 18.4918 20.4149 18.6475C20.4149 18.87 20.2804 19.0924 19.9888 19.3149L18.576 20.2493C18.3741 20.3827 18.1723 20.4495 17.9929 20.4495C17.7686 20.4495 17.5444 20.3383 17.3201 20.138C17.0062 19.8043 16.737 19.4484 16.5128 19.0924C16.2885 18.7142 16.0643 18.2915 15.8176 17.7799C14.0683 19.8266 11.8706 20.8499 9.22432 20.8499C7.34054 20.8499 5.83799 20.316 4.73912 19.2482C3.64024 18.1803 3.07959 16.7565 3.07959 14.9767C3.07959 13.0858 3.75237 11.5507 5.12036 10.3939C6.48835 9.23703 8.30485 8.65861 10.6147 8.65861C11.3772 8.65861 12.1621 8.72535 12.9919 8.83658C13.8217 8.94782 14.6738 9.1258 15.5709 9.32602V7.70199C15.5709 6.01122 15.2121 4.83213 14.5169 4.14248C13.7992 3.45282 12.5882 3.11912 10.8614 3.11912C10.0765 3.11912 9.26917 3.20811 8.43941 3.40833C7.60965 3.60855 6.80231 3.85327 6.0174 4.16473C5.65858 4.32045 5.38947 4.40944 5.23249 4.45394C5.07551 4.49843 4.96338 4.52068 4.87367 4.52068C4.55971 4.52068 4.40273 4.29821 4.40273 3.83102V2.74092C4.40273 2.38497 4.44758 2.11801 4.55971 1.96228C4.67184 1.80655 4.87367 1.65082 5.18764 1.49509C5.97255 1.09465 6.91444 0.760944 8.01332 0.49398C9.11219 0.20477 10.2783 0.0712883 11.5118 0.0712883C14.1805 0.0712883 16.1315 0.671956 17.3874 1.87329C18.6208 3.07463 19.2488 4.89888 19.2488 7.34604V14.554H19.2936ZM10.1886 17.9356C10.9287 17.9356 11.6912 17.8021 12.4985 17.5351C13.3059 17.2682 14.0235 16.7787 14.629 16.1113C14.9878 15.6886 15.2569 15.2215 15.3915 14.6875C15.526 14.1536 15.6157 13.5084 15.6157 12.752V11.8177C14.9654 11.6619 14.2702 11.5285 13.5525 11.4395C12.8349 11.3505 12.1397 11.306 11.4445 11.306C9.94196 11.306 8.84308 11.5952 8.10302 12.1959C7.36296 12.7965 7.00415 13.6419 7.00415 14.7543C7.00415 15.7999 7.27326 16.5785 7.83391 17.1124C8.37213 17.6686 9.15704 17.9356 10.1886 17.9356ZM28.1967 20.3383C27.7931 20.3383 27.524 20.2715 27.3446 20.1158C27.1651 19.9823 27.0082 19.6708 26.8736 19.2482L21.6035 2.05127C21.4689 1.60633 21.4017 1.31712 21.4017 1.16139C21.4017 0.805437 21.5811 0.605215 21.9399 0.605215H24.1376C24.5637 0.605215 24.8553 0.671956 25.0122 0.827684C25.1917 0.961166 25.3262 1.27262 25.4608 1.69532L29.2283 16.4228L32.7268 1.69532C32.8389 1.25038 32.9735 0.961166 33.1529 0.827684C33.3323 0.694203 33.6463 0.605215 34.0499 0.605215H35.844C36.2701 0.605215 36.5616 0.671956 36.7411 0.827684C36.9205 0.961166 37.0774 1.27262 37.1672 1.69532L40.7105 16.6008L44.5902 1.69532C44.7247 1.25038 44.8817 0.961166 45.0387 0.827684C45.2181 0.694203 45.5096 0.605215 45.9133 0.605215H47.9989C48.3577 0.605215 48.5596 0.78319 48.5596 1.16139C48.5596 1.27262 48.5372 1.38386 48.5147 1.51734C48.4923 1.65082 48.4474 1.8288 48.3577 2.07351L42.9531 19.2704C42.8185 19.7153 42.6615 20.0045 42.4821 20.138C42.3027 20.2715 42.0112 20.3605 41.6299 20.3605H39.7013C39.2752 20.3605 38.9837 20.2938 38.8043 20.138C38.6248 19.9823 38.4679 19.6931 38.3782 19.2482L34.9021 4.89887L31.4485 19.2259C31.3364 19.6708 31.2018 19.9601 31.0224 20.1158C30.843 20.2715 30.5291 20.3383 30.1254 20.3383H28.1967ZM57.0142 20.9389C55.848 20.9389 54.6819 20.8054 53.5606 20.5385C52.4393 20.2715 51.5647 19.9823 50.9816 19.6486C50.6228 19.4484 50.3761 19.2259 50.2864 19.0257C50.1967 18.8255 50.1518 18.603 50.1518 18.4028V17.2682C50.1518 16.801 50.3312 16.5785 50.6676 16.5785C50.8022 16.5785 50.9367 16.6008 51.0713 16.6453C51.2058 16.6898 51.4077 16.7787 51.6319 16.8677C52.3944 17.2014 53.2242 17.4684 54.0988 17.6464C54.9958 17.8244 55.8705 17.9133 56.7675 17.9133C58.1803 17.9133 59.2792 17.6686 60.0417 17.1792C60.8042 16.6898 61.2079 15.9779 61.2079 15.0657C61.2079 14.4428 61.006 13.9311 60.6024 13.5084C60.1987 13.0858 59.4362 12.7076 58.3373 12.3516L55.0856 11.3505C53.4485 10.8388 52.2374 10.0824 51.4974 9.0813C50.7573 8.10244 50.3761 7.01233 50.3761 5.85549C50.3761 4.92112 50.5779 4.09799 50.9816 3.38608C51.3853 2.67418 51.9235 2.05127 52.5963 1.56183C53.269 1.05015 54.0315 0.671956 54.9286 0.404992C55.8256 0.138029 56.7675 0.0267944 57.7542 0.0267944C58.2476 0.0267944 58.7634 0.0490414 59.2568 0.115782C59.7726 0.182523 60.2435 0.271511 60.7145 0.360499C61.163 0.471733 61.5891 0.582968 61.9928 0.71645C62.3964 0.849931 62.7104 0.983413 62.9347 1.11689C63.2486 1.29487 63.4729 1.47285 63.6074 1.67307C63.742 1.85104 63.8093 2.09576 63.8093 2.40722V3.45282C63.8093 3.92001 63.6299 4.16473 63.2935 4.16473C63.1141 4.16473 62.8225 4.07574 62.4413 3.89776C61.163 3.31934 59.7277 3.03013 58.1355 3.03013C56.8572 3.03013 55.848 3.23035 55.1528 3.65305C54.4576 4.07574 54.0988 4.7209 54.0988 5.63302C54.0988 6.25594 54.3231 6.78987 54.7716 7.21256C55.2201 7.63525 56.0499 8.05794 57.2385 8.43614L60.4229 9.43725C62.0376 9.94893 63.2038 10.6608 63.899 11.573C64.5942 12.4851 64.9306 13.5307 64.9306 14.6875C64.9306 15.6441 64.7287 16.5118 64.3475 17.2682C63.9438 18.0246 63.4056 18.692 62.7104 19.2259C62.0152 19.7821 61.1854 20.1825 60.2211 20.4717C59.2119 20.7832 58.1579 20.9389 57.0142 20.9389Z" fill="#131314"/>
<path fill-rule="evenodd" clip-rule="evenodd" d="M61.2526 31.7509C53.8745 37.1569 43.1548 40.0268 33.9377 40.0268C21.0203 40.0268 9.38123 35.2882 0.590222 27.4128C-0.104984 26.7899 0.522944 25.9445 1.35271 26.4339C10.8613 31.9067 22.5902 35.2215 34.7226 35.2215C42.9081 35.2215 51.901 33.5307 60.1762 30.0602C61.4096 29.504 62.4636 30.8611 61.2526 31.7509Z" fill="#FF9900"/>
<path fill-rule="evenodd" clip-rule="evenodd" d="M64.325 28.2804C63.3832 27.0791 58.0906 27.702 55.691 27.9912C54.9734 28.0802 54.8613 27.4573 55.5116 26.9901C59.7277 24.0535 66.6574 24.8989 67.4647 25.8777C68.272 26.8789 67.2404 33.7532 63.2934 37.0457C62.6879 37.5574 62.1049 37.2904 62.374 36.623C63.271 34.4206 65.2669 29.4595 64.325 28.2804Z" fill="#FF9900"/>
</g>
<defs>
<clipPath id="clip0_2071_19873">
<rect width="67.4286" height="40" fill="white" transform="translate(0.291504 0.0267944)"/>
</clipPath>
</defs>
</svg>
