<svg width="35" height="35" viewBox="0 0 35 35" fill="none" xmlns="http://www.w3.org/2000/svg">
<g clip-path="url(#clip0_1195_28347)">
<g filter="url(#filter0_d_1195_28347)">
<path d="M9.86344 14.6268C9.86344 15.059 9.91 15.4093 9.99149 15.6663C10.0846 15.9232 10.201 16.2036 10.364 16.5072C10.4222 16.6007 10.4455 16.6941 10.4455 16.7759C10.4455 16.8927 10.3756 17.0095 10.2243 17.1263L9.49094 17.6168C9.38618 17.6869 9.28141 17.7219 9.18829 17.7219C9.07188 17.7219 8.95547 17.6635 8.83907 17.5584C8.6761 17.3832 8.53641 17.1963 8.42 17.0095C8.3036 16.8109 8.18719 16.589 8.05914 16.3204C7.15117 17.3949 6.01039 17.9321 4.6368 17.9321C3.65899 17.9321 2.87906 17.6518 2.30867 17.0912C1.73828 16.5306 1.44727 15.7831 1.44727 14.8487C1.44727 13.856 1.79648 13.0501 2.50656 12.4427C3.21664 11.8354 4.15953 11.5317 5.35852 11.5317C5.7543 11.5317 6.16172 11.5667 6.59242 11.6251C7.02313 11.6835 7.46547 11.777 7.9311 11.8821V11.0295C7.9311 10.1418 7.74485 9.5228 7.38399 9.16073C7.01149 8.79867 6.38289 8.62347 5.48656 8.62347C5.07914 8.62347 4.66008 8.67019 4.22938 8.77531C3.79867 8.88042 3.37961 9.0089 2.97219 9.17241C2.78594 9.25417 2.64625 9.30089 2.56477 9.32425C2.48328 9.34761 2.42508 9.35929 2.37852 9.35929C2.21555 9.35929 2.13406 9.24249 2.13406 8.99722V8.42492C2.13406 8.23804 2.15734 8.09789 2.21555 8.01613C2.27375 7.93437 2.37852 7.85261 2.54148 7.77086C2.94891 7.56062 3.43781 7.38543 4.0082 7.24527C4.5786 7.09344 5.18391 7.02336 5.82414 7.02336C7.20938 7.02336 8.22211 7.33871 8.87399 7.96941C9.51422 8.60011 9.84016 9.55784 9.84016 10.8426V14.6268H9.86344ZM5.13735 16.4021C5.52149 16.4021 5.91727 16.332 6.33633 16.1919C6.75539 16.0517 7.12789 15.7948 7.44219 15.4444C7.62844 15.2225 7.76813 14.9772 7.83797 14.6969C7.90782 14.4166 7.95438 14.0779 7.95438 13.6808V13.1902C7.6168 13.1085 7.25594 13.0384 6.88344 12.9917C6.51094 12.9449 6.15008 12.9216 5.78922 12.9216C5.0093 12.9216 4.43891 13.0734 4.05477 13.3888C3.67063 13.7041 3.48438 14.1479 3.48438 14.7319C3.48438 15.2809 3.62406 15.6897 3.91508 15.97C4.19445 16.262 4.60188 16.4021 5.13735 16.4021V16.4021ZM14.4848 17.6635C14.2752 17.6635 14.1356 17.6285 14.0424 17.5467C13.9493 17.4766 13.8678 17.3131 13.798 17.0912L11.0624 8.06285C10.9926 7.82925 10.9577 7.67742 10.9577 7.59566C10.9577 7.40879 11.0508 7.30367 11.237 7.30367H12.3778C12.599 7.30367 12.7503 7.33871 12.8318 7.42047C12.9249 7.49055 12.9948 7.65406 13.0646 7.87597L15.0202 15.6079L16.8362 7.87597C16.8944 7.64238 16.9642 7.49055 17.0574 7.42047C17.1505 7.35039 17.3134 7.30367 17.523 7.30367H18.4542C18.6754 7.30367 18.8267 7.33871 18.9199 7.42047C19.013 7.49055 19.0945 7.65406 19.141 7.87597L20.9802 15.7013L22.9941 7.87597C23.0639 7.64238 23.1454 7.49055 23.2269 7.42047C23.32 7.35039 23.4713 7.30367 23.6809 7.30367H24.7634C24.9497 7.30367 25.0545 7.39711 25.0545 7.59566C25.0545 7.65406 25.0428 7.71246 25.0312 7.78254C25.0195 7.85261 24.9963 7.94605 24.9497 8.07453L22.1443 17.1029C22.0745 17.3365 21.993 17.4883 21.8999 17.5584C21.8067 17.6285 21.6554 17.6752 21.4575 17.6752H20.4564C20.2352 17.6752 20.0839 17.6402 19.9908 17.5584C19.8977 17.4766 19.8162 17.3248 19.7696 17.0912L17.9653 9.55784L16.1727 17.0795C16.1145 17.3131 16.0446 17.465 15.9515 17.5467C15.8584 17.6285 15.6954 17.6635 15.4859 17.6635H14.4848V17.6635ZM29.443 17.9789C28.8377 17.9789 28.2324 17.9088 27.6503 17.7686C27.0683 17.6285 26.6143 17.4766 26.3117 17.3014C26.1254 17.1963 25.9974 17.0795 25.9508 16.9744C25.9042 16.8693 25.8809 16.7525 25.8809 16.6474V16.0517C25.8809 15.8065 25.9741 15.6897 26.1487 15.6897C26.2185 15.6897 26.2884 15.7013 26.3582 15.7247C26.4281 15.7481 26.5328 15.7948 26.6492 15.8415C27.045 16.0167 27.4757 16.1568 27.9297 16.2503C28.3953 16.3437 28.8493 16.3904 29.3149 16.3904C30.0483 16.3904 30.6187 16.262 31.0145 16.005C31.4102 15.7481 31.6198 15.3743 31.6198 14.8954C31.6198 14.5684 31.515 14.2998 31.3055 14.0779C31.096 13.856 30.7002 13.6574 30.1298 13.4705L28.4419 12.9449C27.5921 12.6763 26.9635 12.2792 26.5794 11.7536C26.1952 11.2397 25.9974 10.6674 25.9974 10.0601C25.9974 9.56952 26.1021 9.13738 26.3117 8.76363C26.5212 8.38988 26.8006 8.06285 27.1498 7.8059C27.499 7.53726 27.8948 7.33871 28.3604 7.19855C28.826 7.0584 29.3149 7 29.8271 7C30.0832 7 30.351 7.01168 30.607 7.04672C30.8748 7.08176 31.1192 7.12848 31.3637 7.17519C31.5965 7.23359 31.8177 7.29199 32.0272 7.36207C32.2367 7.43215 32.3997 7.50222 32.5161 7.5723C32.6791 7.66574 32.7955 7.75918 32.8653 7.86429C32.9352 7.95773 32.9701 8.08621 32.9701 8.24972V8.79867C32.9701 9.04394 32.877 9.17241 32.7024 9.17241C32.6092 9.17241 32.4579 9.1257 32.26 9.03226C31.5965 8.72859 30.8515 8.57675 30.025 8.57675C29.3615 8.57675 28.8377 8.68187 28.4768 8.90378C28.116 9.1257 27.9297 9.46441 27.9297 9.94327C27.9297 10.2703 28.0461 10.5506 28.2789 10.7725C28.5117 10.9944 28.9424 11.2164 29.5594 11.4149L31.2124 11.9405C32.0505 12.2091 32.6558 12.5829 33.0167 13.0617C33.3775 13.5406 33.5521 14.0895 33.5521 14.6969C33.5521 15.1991 33.4474 15.6546 33.2495 16.0517C33.0399 16.4488 32.7606 16.7992 32.3997 17.0795C32.0388 17.3715 31.6081 17.5818 31.1076 17.7336C30.5838 17.8971 30.0367 17.9789 29.443 17.9789V17.9789Z" fill="black"/>
</g>
<path fill-rule="evenodd" clip-rule="evenodd" d="M31.643 23.6552C27.8132 26.4933 22.249 28 17.4647 28C10.7597 28 4.71818 25.5122 0.155055 21.3776C-0.205804 21.0506 0.120133 20.6068 0.550837 20.8637C5.48646 23.7369 11.5745 25.4772 17.8721 25.4772C22.1209 25.4772 26.7888 24.5895 31.0842 22.7675C31.7244 22.4755 32.2716 23.188 31.643 23.6552V23.6552Z" fill="#FF9900"/>
<path fill-rule="evenodd" clip-rule="evenodd" d="M33.2379 21.8332C32.749 21.2025 30.0018 21.5295 28.7563 21.6813C28.3838 21.728 28.3256 21.401 28.6632 21.1557C30.8516 19.614 34.4486 20.0578 34.8676 20.5718C35.2867 21.0973 34.7512 24.7063 32.7025 26.4349C32.3882 26.7036 32.0855 26.5634 32.2252 26.213C32.6908 25.0567 33.7268 22.4522 33.2379 21.8332V21.8332Z" fill="#FF9900"/>
</g>
<defs>
<filter id="filter0_d_1195_28347" x="-10.5527" y="-5" width="56.105" height="34.9789" filterUnits="userSpaceOnUse" color-interpolation-filters="sRGB">
<feFlood flood-opacity="0" result="BackgroundImageFix"/>
<feColorMatrix in="SourceAlpha" type="matrix" values="0 0 0 0 0 0 0 0 0 0 0 0 0 0 0 0 0 0 127 0" result="hardAlpha"/>
<feOffset/>
<feGaussianBlur stdDeviation="6"/>
<feComposite in2="hardAlpha" operator="out"/>
<feColorMatrix type="matrix" values="0 0 0 0 0.301961 0 0 0 0 0.356863 0 0 0 0 0.85098 0 0 0 0.24 0"/>
<feBlend mode="normal" in2="BackgroundImageFix" result="effect1_dropShadow_1195_28347"/>
<feBlend mode="normal" in="SourceGraphic" in2="effect1_dropShadow_1195_28347" result="shape"/>
</filter>
<clipPath id="clip0_1195_28347">
<rect width="35" height="35" fill="white"/>
</clipPath>
</defs>
</svg>
