<svg width="131" height="41" viewBox="0 0 131 41" fill="none" xmlns="http://www.w3.org/2000/svg">
<g clip-path="url(#clip0_2071_19892)">
<mask id="mask0_2071_19892" style="mask-type:luminance" maskUnits="userSpaceOnUse" x="-16" y="-40" width="155" height="120">
<path d="M-15.0293 -39.0939H138.637V79.6572H-15.0293V-39.0939Z" fill="white"/>
</mask>
<g mask="url(#mask0_2071_19892)">
<path d="M55.3079 12.5746L54.6385 14.4494H54.602C54.4842 14.008 54.2843 13.3871 53.9733 12.595L50.3875 3.61649H46.8921V17.8938H49.2004V9.1159C49.2004 8.5757 49.1868 7.91966 49.1641 7.17068C49.155 6.79056 49.1098 6.48883 49.0981 6.25831H49.1505C49.2387 6.67061 49.3477 7.07816 49.4773 7.47939L53.7692 17.8936H55.383L59.6454 7.38295C59.7382 7.14467 59.8449 6.67705 59.938 6.25831H59.9879C59.9355 7.29797 59.8858 8.24642 59.8812 8.82194V17.8936H62.3392V3.61649H58.9803L55.3079 12.5746Z" fill="#706D6E"/>
<path d="M64.6577 17.8936H67.0681V7.66314H64.6577V17.8936Z" fill="#706D6E"/>
<path d="M65.888 3.31476C65.4908 3.31476 65.1435 3.44865 64.8621 3.71642C64.5761 3.98419 64.4331 4.3224 64.4331 4.71843C64.4331 5.11116 64.5761 5.44141 64.8575 5.70453C65.1388 5.96454 65.4861 6.09493 65.8878 6.09493C66.292 6.09493 66.6393 5.96454 66.9253 5.70453C67.2067 5.44141 67.3518 5.11116 67.3518 4.71843C67.3518 4.33501 67.2111 4.00243 66.9321 3.72671C66.655 3.45311 66.3079 3.31476 65.888 3.31476Z" fill="#706D6E"/>
<path d="M75.5877 7.55895C75.1444 7.46538 74.6926 7.41746 74.2395 7.41595C73.1387 7.41595 72.1536 7.65306 71.314 8.12088C70.4765 8.58832 69.8273 9.25542 69.3847 10.1043C68.9444 10.9519 68.7197 11.9405 68.7197 13.0469C68.7197 14.0126 68.94 14.8976 69.3645 15.6798C69.7933 16.4637 70.3993 17.0769 71.1665 17.4987C71.9336 17.9244 72.8164 18.14 73.7992 18.14C74.9433 18.14 75.9146 17.9118 76.6997 17.4624L76.7362 17.4442V15.237L76.6341 15.3108C76.2726 15.5715 75.875 15.7784 75.454 15.9249C75.0293 16.0747 74.6412 16.1473 74.3008 16.1473C73.3543 16.1473 72.5941 15.8535 72.0469 15.2698C71.4978 14.6877 71.2185 13.8673 71.2185 12.8381C71.2185 11.7987 71.5048 10.9598 72.0857 10.3389C72.6554 9.72092 73.4158 9.40871 74.3394 9.40871C75.1315 9.40871 75.9032 9.67532 76.6341 10.2066L76.7362 10.2801V7.95498L76.6997 7.93674C76.4252 7.78345 76.0485 7.65655 75.5877 7.55895Z" fill="#706D6E"/>
<path d="M83.5171 7.48482C82.9088 7.48482 82.3688 7.67925 81.9081 8.06054C81.4997 8.39758 81.2069 8.85939 80.982 9.43238H80.9571V7.66334H78.5513V17.8938H80.9573V12.661C80.9573 11.7678 81.1568 11.0394 81.5563 10.4868C81.9446 9.94095 82.4708 9.66387 83.1133 9.66387C83.3289 9.66387 83.5695 9.70035 83.8351 9.77175C84.0957 9.84103 84.2845 9.91922 84.3955 9.99878L84.4979 10.0713V7.64394L84.4615 7.62589C84.2366 7.53159 83.9166 7.48502 83.5171 7.48502" fill="#706D6E"/>
<path d="M91.9689 15.2937C91.5148 15.8601 90.8341 16.1471 89.9443 16.1471C89.0614 16.1471 88.3625 15.8556 87.8745 15.2778C87.3752 14.6957 87.1255 13.8671 87.1255 12.8174C87.1255 11.7317 87.3752 10.8828 87.8745 10.2927C88.3625 9.70481 89.0523 9.40871 89.9241 9.40871C90.7682 9.40871 91.4425 9.6924 91.9237 10.2539C92.4068 10.8192 92.6542 11.6599 92.6542 12.7586C92.6542 13.8671 92.4227 14.7232 91.9689 15.2937ZM90.0487 7.41381C88.3672 7.41381 87.0279 7.90958 86.0723 8.88559C85.1168 9.85772 84.6313 11.2096 84.6313 12.896C84.6313 14.4981 85.1056 15.7863 86.0362 16.7259C86.9668 17.6642 88.2377 18.14 89.8061 18.14C91.4378 18.14 92.7567 17.6406 93.7119 16.6498C94.6631 15.6616 95.1488 14.3272 95.1488 12.679C95.1488 11.052 94.6972 9.75352 93.7983 8.82194C92.9038 7.88668 91.6421 7.41381 90.0487 7.41381Z" fill="#706D6E"/>
<path d="M100.486 11.8893C99.7255 11.5852 99.2398 11.3308 99.04 11.1382C98.8471 10.9498 98.7495 10.6865 98.7495 10.3515C98.7495 10.0533 98.8679 9.81716 99.1221 9.62099C99.3716 9.42675 99.7187 9.32935 100.154 9.32935C100.563 9.32935 100.981 9.39164 101.391 9.51873C101.8 9.64486 102.167 9.81037 102.47 10.0192L102.567 10.0861V7.86068L102.526 7.84593C102.254 7.72447 101.881 7.6224 101.437 7.53838C100.992 7.45669 100.583 7.41575 100.236 7.41575C99.0856 7.41575 98.1367 7.70972 97.4151 8.28756C96.684 8.86948 96.312 9.63321 96.312 10.5582C96.312 11.0394 96.3935 11.4638 96.5503 11.8258C96.7094 12.1889 96.9541 12.5102 97.281 12.7791C97.5987 13.0446 98.096 13.3226 98.7588 13.6065C99.3147 13.8343 99.7255 14.0262 99.991 14.1793C100.25 14.328 100.429 14.4778 100.533 14.6242C100.633 14.7696 100.686 14.9634 100.686 15.204C100.686 15.8931 100.17 16.2276 99.1127 16.2276C98.7179 16.2276 98.2683 16.1459 97.7782 15.9848C97.2913 15.8238 96.8315 15.5905 96.4141 15.2927L96.312 15.219V17.5647L96.3485 17.5827C96.6958 17.7428 97.1289 17.8765 97.6443 17.9788C98.1548 18.0876 98.6203 18.14 99.0194 18.14C100.27 18.14 101.273 17.8437 102 17.2626C102.74 16.676 103.112 15.8942 103.112 14.9376C103.112 14.2486 102.91 13.6574 102.515 13.1794C102.118 12.7054 101.437 12.2729 100.486 11.8893Z" fill="#706D6E"/>
<path d="M111.498 15.2937C111.044 15.8601 110.363 16.1471 109.475 16.1471C108.591 16.1471 107.891 15.8556 107.401 15.2778C106.904 14.6957 106.655 13.8671 106.655 12.8174C106.655 11.7317 106.904 10.8828 107.401 10.2927C107.891 9.70481 108.581 9.40871 109.453 9.40871C110.302 9.40871 110.971 9.6924 111.452 10.2539C111.938 10.8192 112.183 11.6599 112.183 12.7586C112.183 13.8671 111.952 14.7232 111.498 15.2937ZM109.582 7.41381C107.896 7.41381 106.557 7.90958 105.601 8.88559C104.646 9.85772 104.16 11.2096 104.16 12.896C104.16 14.4981 104.634 15.7863 105.565 16.7259C106.496 17.6642 107.767 18.14 109.333 18.14C110.971 18.14 112.285 17.6406 113.241 16.6498C114.196 15.6616 114.678 14.3272 114.678 12.679C114.678 11.052 114.226 9.75352 113.327 8.82194C112.433 7.88668 111.171 7.41381 109.582 7.41381Z" fill="#706D6E"/>
<path d="M127.511 9.62429V7.66334H125.074V4.61055L124.992 4.63577L122.702 5.33567L122.657 5.34945V7.66334H119.046V6.37396C119.046 5.77381 119.182 5.31529 119.443 5.00891C119.708 4.70699 120.083 4.55389 120.562 4.55389C120.904 4.55389 121.263 4.63344 121.62 4.79449L121.708 4.83331V2.76641L121.667 2.75283C121.334 2.63059 120.88 2.57121 120.312 2.57121C119.602 2.57121 118.957 2.7245 118.394 3.03205C117.829 3.33863 117.385 3.77522 117.073 4.33482C116.765 4.88977 116.608 5.53319 116.608 6.24609V7.66334H114.911V9.62429H116.608V17.8936H119.046V9.62429H122.657V14.8796C122.657 17.0416 123.678 18.14 125.689 18.14C126.02 18.14 126.372 18.1014 126.726 18.0265C127.087 17.9479 127.335 17.8709 127.477 17.7869L127.511 17.7688V15.7863L127.414 15.8535C127.282 15.9394 127.114 16.0132 126.924 16.0654C126.726 16.1209 126.567 16.1471 126.44 16.1471C125.968 16.1471 125.621 16.0211 125.405 15.7716C125.183 15.5174 125.074 15.076 125.074 14.455V9.62429H127.511Z" fill="#706D6E"/>
<path d="M18.6463 19.7337H2.57568V3.65957H18.6463V19.7337Z" fill="#F1511B"/>
<path d="M36.3879 19.7337H20.314V3.65957H36.3879V19.7337Z" fill="#80CC28"/>
<path d="M18.6463 37.4877H2.57568V21.4105H18.6463V37.4877Z" fill="#00ADEF"/>
<path d="M36.3879 37.4877H20.314V21.4105H36.3879V37.4877Z" fill="#FBBC09"/>
<path d="M54.9142 31.7436L52.9166 26.004C52.8568 25.8171 52.7932 25.516 52.7268 25.1013H52.6863C52.6255 25.4826 52.5588 25.7832 52.4851 26.004L50.5088 31.7436H54.9142ZM59.459 37.3527H56.84L55.5458 33.69H49.8865L48.6427 37.3527H46.0337L51.4223 22.9638H54.1109L59.459 37.3527Z" fill="#706D6E"/>
<path d="M68.3488 28.0511L62.8006 35.5367H68.3286V37.3529H59.5391V36.4797L65.2083 28.8944H60.0806V27.078H68.3486L68.3488 28.0511Z" fill="#706D6E"/>
<path d="M78.855 37.3527H76.5271V35.727H76.4867C75.8109 36.9714 74.7609 37.5937 73.3363 37.5937C70.9083 37.5937 69.6938 36.1355 69.6938 33.2189V27.0782H72.0217V32.9779C72.0217 34.8244 72.734 35.7474 74.1588 35.7474C74.8479 35.7474 75.4147 35.4932 75.8594 34.9848C76.3047 34.4766 76.5271 33.8109 76.5271 32.9878V27.078H78.855V37.3527Z" fill="#706D6E"/>
<path d="M87.4319 29.2954C87.1512 29.0746 86.747 28.9646 86.2186 28.9646C85.5294 28.9646 84.9545 29.2753 84.4929 29.8979C84.031 30.5196 83.8007 31.3656 83.8007 32.4363V37.3527H81.4727V27.078H83.8007V29.1949H83.8401C84.0671 28.4725 84.417 27.909 84.8889 27.5049C85.3608 27.0999 85.8872 26.8975 86.4691 26.8975C86.8902 26.8975 87.2117 26.961 87.4319 27.0883V29.2954Z" fill="#706D6E"/>
<path d="M94.9379 31.2021C94.9309 30.3658 94.7338 29.7151 94.3457 29.2504C93.9578 28.7857 93.4233 28.5529 92.7404 28.5529C92.0716 28.5529 91.5046 28.7973 91.0399 29.2852C90.5752 29.7741 90.2892 30.4129 90.1823 31.2023L94.9379 31.2021ZM97.186 32.8475H90.1821C90.2083 33.7971 90.5014 34.5298 91.0601 35.045C91.6189 35.5603 92.3857 35.8174 93.3627 35.8174C94.46 35.8174 95.4665 35.4901 96.3827 34.8344V36.7108C95.4461 37.2991 94.2083 37.5937 92.6708 37.5937C91.1581 37.5937 89.9729 37.1268 89.1129 36.1939C88.2533 35.2607 87.8237 33.9477 87.8237 32.2553C87.8237 30.6568 88.2966 29.354 89.2433 28.3474C90.1902 27.3403 91.3663 26.8372 92.7709 26.8372C94.175 26.8372 95.2624 27.2887 96.0323 28.1916C96.8013 29.0948 97.186 30.3493 97.186 31.9541V32.8475Z" fill="#706D6E"/>
</g>
</g>
<defs>
<clipPath id="clip0_2071_19892">
<rect width="130" height="40" fill="white" transform="translate(0.00585938 0.0267944)"/>
</clipPath>
</defs>
</svg>
