<svg width="35" height="36" viewBox="0 0 35 36" fill="none" xmlns="http://www.w3.org/2000/svg">
<path d="M16.1919 30.2604C20.6886 29.466 24.4026 28.8087 24.4452 28.7997L24.5228 28.7832L20.2775 23.7335C17.9425 20.9562 16.0321 18.6731 16.0321 18.6599C16.0321 18.635 20.4158 6.56341 20.4404 6.52047C20.4487 6.50611 23.4319 11.6565 27.6719 19.0054C31.6415 25.8856 34.9143 31.5583 34.9447 31.6115L35 31.7081L21.508 31.7064L8.01607 31.7047L16.1919 30.2604ZM0 28.7205C0 28.7134 2.00037 25.2409 4.44527 21.0038L8.89054 13.3001L14.071 8.95267C16.9202 6.56158 19.2591 4.6023 19.2685 4.59873C19.2779 4.59516 19.2404 4.68949 19.1852 4.80837C19.13 4.92724 16.5987 10.3567 13.56 16.8739L8.03506 28.7233L4.01753 28.7284C1.80789 28.7311 0 28.7276 0 28.7205Z" fill="#0089D6"/>
</svg>
