<svg width="78" height="25" viewBox="0 0 78 25" fill="none" xmlns="http://www.w3.org/2000/svg">
<g clip-path="url(#clip0_1344_30710)">
<mask id="mask0_1344_30710" style="mask-type:luminance" maskUnits="userSpaceOnUse" x="-10" y="-23" width="94" height="72">
<path d="M-9.021 -22.7487H83.179V48.502H-9.021V-22.7487Z" fill="white"/>
</mask>
<g mask="url(#mask0_1344_30710)">
<path d="M33.1813 8.25235L32.7797 9.37723H32.7578C32.6871 9.11237 32.5672 8.73981 32.3806 8.26458L30.2291 2.87747H28.1318V11.4438H29.5168V6.17712C29.5168 5.853 29.5087 5.45937 29.495 5.00998C29.4896 4.78191 29.4624 4.60087 29.4554 4.46256H29.4869C29.5398 4.70994 29.6052 4.95447 29.6829 5.19521L32.2581 11.4437H33.2264L35.7838 5.13735C35.8395 4.99438 35.9035 4.71381 35.9594 4.46256H35.9893C35.9579 5.08636 35.9281 5.65543 35.9253 6.00074V11.4437H37.4001V2.87747H35.3847L33.1813 8.25235Z" fill="#706D6E"/>
<path d="M38.791 11.4438H40.2372V5.30558H38.791V11.4438Z" fill="#706D6E"/>
<path d="M39.5292 2.69615C39.2909 2.69615 39.0825 2.77649 38.9137 2.93715C38.7421 3.09781 38.6562 3.30074 38.6562 3.53836C38.6562 3.774 38.7421 3.97215 38.9109 4.13002C39.0797 4.28602 39.2881 4.36426 39.5291 4.36426C39.7716 4.36426 39.98 4.28602 40.1516 4.13002C40.3204 3.97215 40.4075 3.774 40.4075 3.53836C40.4075 3.30831 40.3231 3.10876 40.1557 2.94332C39.9894 2.77917 39.7811 2.69615 39.5292 2.69615Z" fill="#706D6E"/>
<path d="M45.3493 5.24267C45.0833 5.18652 44.8122 5.15777 44.5404 5.15686C43.8799 5.15686 43.2888 5.29913 42.7851 5.57983C42.2826 5.86029 41.8931 6.26055 41.6275 6.7699C41.3633 7.27843 41.2285 7.8716 41.2285 8.53545C41.2285 9.11488 41.3607 9.64588 41.6154 10.1152C41.8727 10.5855 42.2363 10.9534 42.6966 11.2065C43.1568 11.462 43.6865 11.5913 44.2762 11.5913C44.9627 11.5913 45.5455 11.4544 46.0165 11.1848L46.0384 11.1738V9.84951L45.9772 9.89375C45.7602 10.0502 45.5217 10.1743 45.2691 10.2622C45.0142 10.3521 44.7814 10.3956 44.5772 10.3956C44.0093 10.3956 43.5531 10.2194 43.2248 9.86918C42.8953 9.51991 42.7278 9.02768 42.7278 8.41018C42.7278 7.7865 42.8995 7.28321 43.2481 6.91065C43.5899 6.53985 44.0462 6.35252 44.6003 6.35252C45.0756 6.35252 45.5386 6.51249 45.9772 6.83125L46.0384 6.87538V5.48028L46.0165 5.46934C45.8518 5.37737 45.6258 5.30123 45.3493 5.24267Z" fill="#706D6E"/>
<path d="M50.1069 5.19847C49.7419 5.19847 49.4179 5.31513 49.1416 5.5439C48.8965 5.74612 48.7208 6.02321 48.5859 6.36701H48.571V5.30558H47.1274V11.4438H48.5711V8.30416C48.5711 7.76827 48.6908 7.33122 48.9305 6.99965C49.1634 6.67215 49.4792 6.5059 49.8647 6.5059C49.994 6.5059 50.1384 6.52779 50.2977 6.57063C50.4541 6.61219 50.5674 6.65911 50.634 6.70685L50.6954 6.75039V5.29394L50.6736 5.28311C50.5386 5.22653 50.3466 5.19859 50.1069 5.19859" fill="#706D6E"/>
<path d="M55.1779 9.8835C54.9055 10.2233 54.4971 10.3955 53.9632 10.3955C53.4334 10.3955 53.0141 10.2207 52.7213 9.87396C52.4217 9.52469 52.2719 9.02757 52.2719 8.39772C52.2719 7.74634 52.4217 7.23698 52.7213 6.88294C53.0141 6.53018 53.428 6.35252 53.951 6.35252C54.4575 6.35252 54.8621 6.52273 55.1508 6.85966C55.4407 7.1988 55.5891 7.70326 55.5891 8.36244C55.5891 9.02757 55.4502 9.54122 55.1779 9.8835ZM54.0258 5.15558C53.0169 5.15558 52.2133 5.45304 51.6399 6.03865C51.0667 6.62193 50.7754 7.43304 50.7754 8.44487C50.7754 9.40617 51.0599 10.1791 51.6183 10.7428C52.1767 11.3058 52.9392 11.5913 53.8803 11.5913C54.8593 11.5913 55.6506 11.2916 56.2237 10.6972C56.7944 10.1042 57.0858 9.3036 57.0858 8.31471C57.0858 7.33851 56.8149 6.55941 56.2755 6.00046C55.7388 5.4393 54.9819 5.15558 54.0258 5.15558Z" fill="#706D6E"/>
<path d="M60.2881 7.84087C59.8318 7.65843 59.5404 7.5058 59.4205 7.3902C59.3047 7.27715 59.2462 7.11917 59.2462 6.91822C59.2462 6.73928 59.3172 6.59759 59.4697 6.47989C59.6194 6.36335 59.8277 6.3049 60.0891 6.3049C60.3342 6.3049 60.5848 6.34228 60.8313 6.41853C61.0765 6.49421 61.297 6.59352 61.4782 6.71879L61.5368 6.75895V5.4237L61.5124 5.41486C61.3488 5.34197 61.1254 5.28073 60.8585 5.23032C60.5916 5.18131 60.3465 5.15674 60.1382 5.15674C59.4478 5.15674 58.8785 5.33313 58.4456 5.67983C58.0069 6.02898 57.7837 6.48722 57.7837 7.04221C57.7837 7.33094 57.8326 7.58555 57.9267 7.8028C58.0221 8.02062 58.1689 8.21342 58.3651 8.37478C58.5557 8.53405 58.8541 8.70088 59.2518 8.87121C59.5853 9.00789 59.8318 9.12303 59.9911 9.21489C60.1463 9.30407 60.2539 9.39395 60.3166 9.48184C60.3765 9.56905 60.4079 9.68535 60.4079 9.82972C60.4079 10.2431 60.0986 10.4438 59.4641 10.4438C59.2272 10.4438 58.9575 10.3948 58.6634 10.2982C58.3713 10.2016 58.0954 10.0616 57.8449 9.88292L57.7837 9.83868V11.2461L57.8056 11.2569C58.014 11.353 58.2738 11.4332 58.583 11.4946C58.8894 11.5599 59.1687 11.5913 59.4081 11.5913C60.1587 11.5913 60.7605 11.4135 61.1964 11.0648C61.6402 10.7129 61.8636 10.2438 61.8636 9.66987C61.8636 9.25645 61.7423 8.90171 61.5054 8.61496C61.2671 8.33054 60.8585 8.07104 60.2881 7.84087Z" fill="#706D6E"/>
<path d="M66.8953 9.8835C66.6229 10.2233 66.2144 10.3955 65.6818 10.3955C65.151 10.3955 64.7314 10.2207 64.4373 9.87396C64.139 9.52469 63.9893 9.02757 63.9893 8.39772C63.9893 7.74634 64.139 7.23698 64.4372 6.88294C64.7314 6.53018 65.1455 6.35252 65.6682 6.35252C66.1776 6.35252 66.5793 6.52273 66.8681 6.85966C67.1595 7.1988 67.3064 7.70326 67.3064 8.36244C67.3064 9.02757 67.1676 9.54122 66.8953 9.8835ZM65.7459 5.15558C64.7342 5.15558 63.9306 5.45304 63.3572 6.03865C62.784 6.62193 62.4927 7.43304 62.4927 8.44487C62.4927 9.40617 62.7772 10.1791 63.3356 10.7428C63.8939 11.3058 64.6565 11.5913 65.5963 11.5913C66.5793 11.5913 67.3679 11.2916 67.941 10.6972C68.5144 10.1042 68.8031 9.3036 68.8031 8.31471C68.8031 7.33851 68.5322 6.55941 67.9929 6.00046C67.4562 5.4393 66.699 5.15558 65.7459 5.15558Z" fill="#706D6E"/>
<path d="M76.5034 6.48187V5.3053H75.0409V3.47362L74.992 3.48876L73.6178 3.9087L73.5905 3.91696V5.3053H71.424V4.53167C71.424 4.17158 71.5056 3.89647 71.6623 3.71264C71.8215 3.53149 72.0465 3.43963 72.3337 3.43963C72.5392 3.43963 72.7544 3.48736 72.9683 3.58399L73.0214 3.60728V2.36714L72.9969 2.35899C72.7967 2.28565 72.5243 2.25002 72.1837 2.25002C71.7576 2.25002 71.3709 2.342 71.0331 2.52652C70.6941 2.71047 70.4273 2.97243 70.2405 3.30819C70.0554 3.64116 69.9615 4.02721 69.9615 4.45495V5.3053H68.9429V6.48187H69.9616V11.4434H71.424V6.48187H73.5906V9.63506C73.5906 10.9322 74.2033 11.5913 75.4098 11.5913C75.6086 11.5913 75.8197 11.5681 76.0322 11.5232C76.2487 11.476 76.3973 11.4298 76.483 11.3794L76.5034 11.3686V10.1791L76.4448 10.2194C76.3659 10.271 76.265 10.3152 76.1508 10.3465C76.0322 10.3798 75.937 10.3955 75.8606 10.3955C75.5774 10.3955 75.3689 10.32 75.2396 10.1703C75.1062 10.0177 75.0409 9.75288 75.0409 9.38032V6.48187H76.5034Z" fill="#706D6E"/>
<path d="M11.1843 12.5479H1.54199V2.9034H11.1843V12.5479Z" fill="#F1511B"/>
<path d="M21.8294 12.5479H12.1851V2.9034H21.8294V12.5479Z" fill="#80CC28"/>
<path d="M11.1843 23.2002H1.54199V13.5539H11.1843V23.2002Z" fill="#00ADEF"/>
<path d="M21.8294 23.2002H12.1851V13.5539H21.8294V23.2002Z" fill="#FBBC09"/>
<path d="M32.945 19.7537L31.7464 16.3099C31.7106 16.1978 31.6724 16.0171 31.6326 15.7683H31.6082C31.5718 15.9971 31.5318 16.1774 31.4875 16.3099L30.3018 19.7537H32.945ZM35.6719 23.1191H34.1005L33.324 20.9215H29.9284L29.1821 23.1191H27.6167L30.8499 14.4858H32.463L35.6719 23.1191Z" fill="#706D6E"/>
<path d="M41.0055 17.5381L37.6767 22.0294H40.9934V23.1191H35.7197V22.5952L39.1212 18.044H36.0447V16.9542H41.0054L41.0055 17.5381Z" fill="#706D6E"/>
<path d="M47.3097 23.1191H45.9129V22.1437H45.8887C45.4832 22.8903 44.8532 23.2637 43.9985 23.2637C42.5417 23.2637 41.813 22.3888 41.813 20.6388V16.9544H43.2097V20.4942C43.2097 21.6021 43.6371 22.1559 44.492 22.1559C44.9054 22.1559 45.2455 22.0034 45.5123 21.6984C45.7795 21.3935 45.9129 20.994 45.9129 20.5001V16.9543H47.3097V23.1191Z" fill="#706D6E"/>
<path d="M52.4559 18.2848C52.2875 18.1523 52.045 18.0863 51.728 18.0863C51.3144 18.0863 50.9695 18.2727 50.6925 18.6463C50.4154 19.0193 50.2772 19.5269 50.2772 20.1693V23.1191H48.8804V16.9543H50.2772V18.2245H50.3008C50.4371 17.7911 50.647 17.453 50.9301 17.2105C51.2132 16.9675 51.5291 16.8461 51.8783 16.8461C52.1309 16.8461 52.3238 16.8841 52.4559 16.9605V18.2848Z" fill="#706D6E"/>
<path d="M56.9594 19.4287C56.9552 18.9269 56.837 18.5366 56.6041 18.2577C56.3714 17.9789 56.0506 17.8392 55.6409 17.8392C55.2396 17.8392 54.8995 17.9859 54.6206 18.2786C54.3418 18.572 54.1702 18.9552 54.106 19.4288L56.9594 19.4287ZM58.3083 20.416H54.1059C54.1216 20.9857 54.2975 21.4254 54.6327 21.7345C54.968 22.0437 55.4281 22.1979 56.0143 22.1979C56.6727 22.1979 57.2766 22.0015 57.8263 21.6081V22.7339C57.2643 23.0869 56.5217 23.2637 55.5992 23.2637C54.6915 23.2637 53.9804 22.9836 53.4644 22.4238C52.9487 21.8639 52.6909 21.0761 52.6909 20.0607C52.6909 19.1016 52.9746 18.3199 53.5427 17.7159C54.1108 17.1117 54.8164 16.8098 55.6592 16.8098C56.5017 16.8098 57.1541 17.0807 57.6161 17.6224C58.0774 18.1644 58.3083 18.917 58.3083 19.88V20.416Z" fill="#706D6E"/>
</g>
</g>
<defs>
<clipPath id="clip0_1344_30710">
<rect width="78" height="24" fill="white" transform="translate(0 0.723633)"/>
</clipPath>
</defs>
</svg>
