<svg width="18" height="19" viewBox="0 0 18 19" fill="none" xmlns="http://www.w3.org/2000/svg">
<path fill-rule="evenodd" clip-rule="evenodd" d="M9.00079 18.0249V14.5366C12.695 14.5366 15.5627 10.8749 14.144 6.98872C13.8835 6.27478 13.47 5.62641 12.9323 5.08901C12.3947 4.55162 11.7461 4.1382 11.0318 3.87772C7.14355 2.47025 3.48002 5.32598 3.48002 9.01831H0C0 3.13354 5.69454 -1.45641 11.8685 0.470994C14.5627 1.31807 16.7159 3.45959 17.5529 6.15283C19.4817 12.3333 14.8994 18.0249 9.00079 18.0249Z" fill="#0080FF"/>
<path fill-rule="evenodd" clip-rule="evenodd" d="M5.54155 14.5469H9.01104V11.0791H5.54191L5.54155 14.5469ZM2.8679 17.2192H5.54119V14.5472H2.8679V17.2192ZM0.632812 14.5472H2.8679V12.3129H0.632812V14.5472Z" fill="#0080FF"/>
</svg>
