<svg width="254" height="41" viewBox="0 0 254 41" fill="none" xmlns="http://www.w3.org/2000/svg">
<path d="M30.5449 10.5155H31.9712L36.036 6.4014L36.2357 4.6547C33.9071 2.57448 31.093 1.12943 28.0592 0.456042C25.0254 -0.217345 21.8721 -0.0968312 18.8971 0.806198C15.9222 1.70923 13.2238 3.36496 11.0568 5.61699C8.88987 7.86902 7.32591 10.643 6.5127 13.6769C6.96553 13.489 7.46716 13.4586 7.93894 13.5903L16.0685 12.2333C16.0685 12.2333 16.4822 11.5404 16.6961 11.5837C18.438 9.64746 20.8453 8.45831 23.4251 8.25972C26.005 8.06113 28.5623 8.86813 30.5735 10.5155H30.5449Z" fill="#EA4335"/>
<path d="M41.8268 13.6769C40.8925 10.1945 38.9742 7.06393 36.3072 4.66917L30.6022 10.4434C31.7912 11.4267 32.744 12.6704 33.3889 14.0807C34.0337 15.4911 34.3537 17.0312 34.3247 18.585V19.6099C35.6713 19.6099 36.9628 20.1513 37.915 21.1151C38.8672 22.0788 39.4022 23.386 39.4022 24.7489C39.4022 26.1119 38.8672 27.419 37.915 28.3828C36.9628 29.3465 35.6713 29.888 34.3247 29.888H24.1699L23.1572 30.9273V37.0913L24.1699 38.1162H34.3247C37.1604 38.1386 39.9279 37.2365 42.2179 35.5435C44.5078 33.8504 46.1985 31.4564 47.0399 28.7154C47.8813 25.9745 47.8286 23.0322 46.8898 20.3239C45.9509 17.6155 44.1757 15.2849 41.8268 13.6769Z" fill="#4285F4"/>
<path d="M14.0005 38.0585H24.1554V29.8302H14.0005C13.2771 29.8301 12.5621 29.6725 11.904 29.3683L10.4777 29.8158L6.38439 33.9299L6.02783 35.3734C8.32328 37.1278 11.1242 38.0711 14.0005 38.0585Z" fill="#34A853"/>
<path d="M14.0007 11.3672C11.2492 11.3838 8.57157 12.2698 6.34175 13.9015C4.11193 15.5331 2.44129 17.8289 1.56318 20.4682C0.685059 23.1075 0.643314 25.9584 1.44377 28.6229C2.24423 31.2874 3.84692 33.6323 6.02799 35.3301L11.9184 29.3682C11.1698 29.0259 10.5145 28.5049 10.0086 27.8499C9.50277 27.195 9.16145 26.4255 9.01397 25.6077C8.86649 24.7898 8.91725 23.948 9.1619 23.1543C9.40656 22.3607 9.83779 21.639 10.4186 21.0511C10.9994 20.4633 11.7125 20.0268 12.4966 19.7792C13.2807 19.5316 14.1125 19.4802 14.9205 19.6295C15.7286 19.7787 16.4888 20.1242 17.1359 20.6362C17.7831 21.1482 18.2978 21.8115 18.636 22.5691L24.5264 16.6072C23.29 14.9714 21.6966 13.6471 19.8706 12.7381C18.0446 11.829 16.0356 11.3598 14.0007 11.3672Z" fill="#FBBC05"/>
<path d="M74.673 32.3131C72.9246 32.3357 71.1897 32.0008 69.5723 31.3286C67.9548 30.6564 66.488 29.6607 65.2598 28.4011C63.9929 27.195 62.9875 25.7355 62.3074 24.1153C61.6273 22.495 61.2873 20.7494 61.3091 18.9892C61.2882 17.2291 61.6286 15.4837 62.3086 13.8636C62.9886 12.2435 63.9936 10.7839 65.2598 9.57724C66.482 8.30461 67.9461 7.29554 69.5638 6.61081C71.1816 5.92609 72.9195 5.57988 74.673 5.59304C76.3438 5.57051 78.0023 5.88433 79.5522 6.51626C81.1021 7.14819 82.5124 8.08564 83.7011 9.2741L81.1624 11.8869C79.4239 10.1863 77.0905 9.25207 74.673 9.28853C73.4189 9.27294 72.1754 9.52156 71.0214 10.0186C69.8673 10.5156 68.8281 11.2502 67.9697 12.1756C67.0775 13.0715 66.3737 14.1408 65.9006 15.3192C65.4276 16.4976 65.195 17.7607 65.217 19.0325C65.2065 20.2898 65.4447 21.5364 65.9174 22.6991C66.3901 23.8618 67.0879 24.9171 67.9697 25.8027C69.7359 27.5842 72.1193 28.5976 74.6126 28.6273C77.1059 28.657 79.5122 27.7005 81.3193 25.9615C82.4381 24.7215 83.1244 23.1445 83.2733 21.4721H74.7158V17.7766H86.8246C86.9436 18.5209 86.9914 19.275 86.9672 20.0285C87.0425 21.5882 86.8046 23.147 86.2677 24.6109C85.7309 26.0748 84.9062 27.4133 83.8438 28.5455C82.6624 29.7903 81.2352 30.7692 79.6551 31.4184C78.0749 32.0676 76.3774 32.3725 74.673 32.3131ZM102.827 29.8591C101.202 31.4357 99.038 32.316 96.7869 32.316C94.5359 32.316 92.3718 31.4357 90.7468 29.8591C89.938 29.0653 89.3009 28.1101 88.8762 27.054C88.4514 25.9978 88.2482 24.8639 88.2794 23.724C88.2491 22.5843 88.4527 21.4506 88.8774 20.3946C89.3021 19.3386 89.9387 18.3832 90.7468 17.5889C92.3735 16.0156 94.5369 15.1376 96.7869 15.1376C99.037 15.1376 101.2 16.0156 102.827 17.5889C103.635 18.3832 104.272 19.3386 104.696 20.3946C105.121 21.4506 105.325 22.5843 105.294 23.724C105.324 24.8649 105.118 25.9995 104.691 27.0557C104.264 28.1119 103.624 29.0666 102.813 29.8591H102.827ZM93.4139 27.4484C93.8461 27.9156 94.3685 28.288 94.9487 28.5426C95.5289 28.7972 96.1545 28.9286 96.7869 28.9286C97.4193 28.9286 98.045 28.7972 98.6252 28.5426C99.2054 28.288 99.7278 27.9156 100.16 27.4484C100.631 26.9554 101 26.3718 101.245 25.7322C101.49 25.0925 101.606 24.4097 101.586 23.724C101.607 23.036 101.492 22.3507 101.247 21.7085C101.002 21.0664 100.632 20.4804 100.16 19.9852C99.722 19.5228 99.1962 19.1548 98.614 18.9035C98.0319 18.6521 97.4056 18.5225 96.7727 18.5225C96.1398 18.5225 95.5134 18.6521 94.9313 18.9035C94.3492 19.1548 93.8233 19.5228 93.3853 19.9852C92.913 20.4804 92.5434 21.0664 92.2984 21.7085C92.0535 22.3507 91.9381 23.036 91.9591 23.724C91.9411 24.4107 92.0593 25.0942 92.3067 25.7339C92.5541 26.3736 92.9257 26.9566 93.3996 27.4484H93.4139ZM121.397 29.8591C119.772 31.4357 117.608 32.316 115.357 32.316C113.106 32.316 110.942 31.4357 109.317 29.8591C108.508 29.0653 107.871 28.1101 107.446 27.054C107.021 25.9978 106.818 24.8639 106.849 23.724C106.819 22.5843 107.022 21.4506 107.447 20.3946C107.872 19.3386 108.508 18.3832 109.317 17.5889C110.942 16.0123 113.106 15.1321 115.357 15.1321C117.608 15.1321 119.772 16.0123 121.397 17.5889C122.205 18.3832 122.841 19.3386 123.266 20.3946C123.691 21.4506 123.895 22.5843 123.864 23.724C123.895 24.8639 123.692 25.9978 123.267 27.054C122.843 28.1101 122.206 29.0653 121.397 29.8591ZM111.984 27.4484C112.416 27.9156 112.938 28.288 113.518 28.5426C114.099 28.7972 114.724 28.9286 115.357 28.9286C115.989 28.9286 116.615 28.7972 117.195 28.5426C117.775 28.288 118.297 27.9156 118.73 27.4484C119.201 26.9554 119.57 26.3718 119.815 25.7322C120.06 25.0925 120.176 24.4097 120.156 23.724C120.177 23.036 120.062 22.3507 119.817 21.7085C119.572 21.0664 119.202 20.4804 118.73 19.9852C118.292 19.5228 117.766 19.1548 117.184 18.9035C116.602 18.6521 115.975 18.5225 115.342 18.5225C114.709 18.5225 114.083 18.6521 113.501 18.9035C112.919 19.1548 112.393 19.5228 111.955 19.9852C111.483 20.4804 111.113 21.0664 110.868 21.7085C110.623 22.3507 110.508 23.036 110.529 23.724C110.511 24.4107 110.629 25.0942 110.876 25.7339C111.124 26.3736 111.495 26.9566 111.969 27.4484H111.984ZM133.605 40.0217C131.896 40.0767 130.22 39.5366 128.856 38.4915C127.645 37.5704 126.692 36.3467 126.089 34.9404L129.341 33.569C129.695 34.4095 130.249 35.1483 130.953 35.7199C131.706 36.3348 132.652 36.6573 133.62 36.6294C134.233 36.6671 134.848 36.5706 135.421 36.3464C135.995 36.1223 136.514 35.7756 136.943 35.3302C137.802 34.2811 138.226 32.9359 138.127 31.5769V30.3355H137.998C137.455 30.9888 136.768 31.5051 135.994 31.8434C135.219 32.1816 134.377 32.3326 133.534 32.2843C132.463 32.2875 131.403 32.066 130.421 31.6337C129.44 31.2014 128.557 30.5676 127.829 29.7725C127.04 28.9837 126.416 28.041 125.997 27.0013C125.578 25.9617 125.371 24.8467 125.39 23.724C125.371 22.5947 125.576 21.473 125.996 20.4262C126.415 19.3794 127.038 18.4291 127.829 17.6322C128.555 16.8338 129.437 16.1969 130.419 15.762C131.401 15.3271 132.462 15.1037 133.534 15.106C134.441 15.1044 135.338 15.3066 136.158 15.6979C136.868 16.0117 137.501 16.4799 138.013 17.0693H138.141V15.6979H141.678V31.0717C141.771 32.2878 141.618 33.5104 141.228 34.6646C140.838 35.8188 140.22 36.8803 139.41 37.7842C138.639 38.5306 137.729 39.1132 136.732 39.4975C135.735 39.8818 134.672 40.06 133.605 40.0217ZM133.862 28.9352C134.471 28.9488 135.076 28.8265 135.633 28.577C136.19 28.3275 136.686 27.957 137.085 27.4917C137.965 26.471 138.429 25.15 138.383 23.7962C138.436 22.4195 137.973 21.0736 137.085 20.0285C136.686 19.5625 136.191 19.1914 135.633 18.9418C135.076 18.6923 134.471 18.5704 133.862 18.585C133.237 18.572 132.615 18.694 132.04 18.9429C131.464 19.1918 130.948 19.5619 130.525 20.0285C129.581 21.036 129.069 22.3796 129.099 23.7673C129.084 24.448 129.203 25.1249 129.447 25.7591C129.692 26.3933 130.058 26.9723 130.525 27.4628C130.946 27.934 131.461 28.309 132.037 28.5628C132.612 28.8167 133.234 28.9437 133.862 28.9352ZM147.968 6.56022V31.7935H144.245V6.56022H147.968ZM158.18 32.3131C157.065 32.3421 155.956 32.1379 154.923 31.7131C153.89 31.2884 152.954 30.6523 152.175 29.8447C151.385 29.043 150.763 28.087 150.349 27.0349C149.935 25.9827 149.736 24.8563 149.765 23.724C149.723 22.589 149.907 21.4569 150.306 20.3954C150.706 19.3339 151.312 18.3647 152.09 17.5456C152.822 16.7639 153.708 16.1457 154.691 15.7305C155.673 15.3154 156.73 15.1125 157.795 15.1349C158.773 15.1244 159.744 15.316 160.647 15.6979C161.46 16.0299 162.202 16.5207 162.829 17.1414C163.368 17.6677 163.846 18.2536 164.255 18.8881C164.586 19.4237 164.869 19.9896 165.097 20.5771L165.482 21.5587L154.072 26.308C154.417 27.1104 154.994 27.7883 155.728 28.2521C156.461 28.716 157.316 28.9441 158.18 28.9064C159.02 28.9087 159.847 28.6905 160.579 28.273C161.312 27.8556 161.925 27.2532 162.359 26.5245L165.211 28.4733C164.483 29.5274 163.552 30.4212 162.473 31.1006C161.19 31.921 159.697 32.3426 158.18 32.3131ZM153.416 23.4642L161.004 20.2739C160.77 19.7114 160.352 19.2475 159.82 18.9603C159.224 18.6199 158.55 18.4455 157.866 18.4551C156.705 18.4855 155.603 18.9783 154.799 19.8264C154.318 20.2923 153.945 20.8599 153.706 21.4888C153.467 22.1176 153.368 22.7921 153.416 23.4642ZM184.979 32.3131C183.396 32.3408 181.823 32.0444 180.356 31.4417C178.889 30.839 177.557 29.9425 176.441 28.8059C175.325 27.6694 174.447 26.3162 173.86 24.8278C173.274 23.3393 172.99 21.7462 173.027 20.144C172.99 18.5419 173.274 16.9488 173.86 15.4603C174.447 13.9718 175.325 12.6187 176.441 11.4821C177.557 10.3456 178.889 9.44902 180.356 8.84634C181.823 8.24365 183.396 7.94724 184.979 7.9749C186.581 7.92419 188.174 8.24062 189.639 8.90053C191.103 9.56045 192.401 10.5468 193.436 11.7859L191.383 13.8068C190.623 12.8395 189.648 12.0673 188.538 11.5531C187.428 11.0389 186.213 10.7972 184.993 10.8476C183.819 10.8208 182.651 11.0346 181.56 11.4762C180.47 11.9177 179.478 12.5779 178.646 13.4171C177.781 14.2977 177.105 15.3498 176.661 16.5075C176.217 17.6651 176.014 18.9032 176.065 20.144C176.014 21.3848 176.217 22.6229 176.661 23.7806C177.105 24.9382 177.781 25.9904 178.646 26.871C179.478 27.7101 180.47 28.3703 181.56 28.8119C182.651 29.2534 183.819 29.4673 184.993 29.4405C186.356 29.4559 187.705 29.1603 188.94 28.5755C190.174 27.9907 191.263 27.1318 192.124 26.0626L194.178 28.1413C193.103 29.4428 191.753 30.4836 190.227 31.1872C188.583 31.9555 186.79 32.3403 184.979 32.3131ZM199.698 31.7935H196.745V8.48014H199.698V31.7935ZM204.518 17.7622C206.065 16.2072 208.157 15.3345 210.337 15.3345C212.518 15.3345 214.61 16.2072 216.157 17.7622C216.913 18.5706 217.504 19.5224 217.896 20.563C218.287 21.6035 218.472 22.7121 218.439 23.8251C218.472 24.938 218.287 26.0467 217.896 27.0872C217.504 28.1277 216.913 29.0796 216.157 29.888C214.61 31.443 212.518 32.3157 210.337 32.3157C208.157 32.3157 206.065 31.443 204.518 29.888C203.762 29.0796 203.171 28.1277 202.779 27.0872C202.388 26.0467 202.203 24.938 202.236 23.8251C202.203 22.7121 202.388 21.6035 202.779 20.563C203.171 19.5224 203.762 18.5706 204.518 17.7622ZM206.715 28.0114C207.18 28.5089 207.74 28.9053 208.362 29.1761C208.984 29.447 209.654 29.5867 210.33 29.5867C211.007 29.5867 211.677 29.447 212.298 29.1761C212.92 28.9053 213.481 28.5089 213.946 28.0114C214.462 27.4509 214.863 26.7922 215.125 26.0734C215.387 25.3547 215.505 24.5904 215.472 23.8251C215.505 23.0597 215.387 22.2954 215.125 21.5767C214.863 20.858 214.462 20.1992 213.946 19.6388C213.481 19.1412 212.92 18.7449 212.298 18.474C211.677 18.2032 211.007 18.0635 210.33 18.0635C209.654 18.0635 208.984 18.2032 208.362 18.474C207.74 18.7449 207.18 19.1412 206.715 19.6388C206.199 20.1992 205.798 20.858 205.536 21.5767C205.274 22.2954 205.156 23.0597 205.189 23.8251C205.16 24.589 205.281 25.3512 205.545 26.0674C205.81 26.7835 206.212 27.4394 206.729 27.9969L206.715 28.0114ZM234.798 31.7935H231.945V29.5848H231.859C231.352 30.4237 230.633 31.1111 229.777 31.5769C228.889 32.098 227.88 32.3719 226.853 32.3709C226.02 32.4286 225.184 32.295 224.409 31.9801C223.633 31.6651 222.938 31.1769 222.375 30.552C221.295 29.1689 220.752 27.4333 220.849 25.6728V15.8567H223.801V25.1243C223.801 28.098 225.099 29.5848 227.695 29.5848C228.272 29.603 228.844 29.4815 229.365 29.2304C229.886 28.9794 230.34 28.6059 230.69 28.1413C231.455 27.1597 231.863 25.9414 231.845 24.6912V15.8567H234.798V31.7935ZM244.824 32.3131C243.823 32.3165 242.832 32.1002 241.921 31.679C241.01 31.2579 240.2 30.6419 239.547 29.8735C238.068 28.2206 237.276 26.0541 237.336 23.8251C237.276 21.5961 238.068 19.4296 239.547 17.7766C240.2 17.0082 241.01 16.3923 241.921 15.9711C242.832 15.55 243.823 15.3336 244.824 15.337C245.946 15.3191 247.055 15.5871 248.047 16.1165C248.92 16.5609 249.659 17.2338 250.187 18.0653H250.315L250.187 15.8567V8.48014H253.139V31.7935H250.287V29.5848H250.158C249.63 30.4163 248.891 31.0893 248.019 31.5336C247.035 32.0583 245.936 32.3262 244.824 32.3131ZM245.309 29.5848C245.976 29.5947 246.638 29.4607 247.25 29.192C247.863 28.9232 248.411 28.5257 248.86 28.0258C249.863 26.87 250.376 25.3607 250.287 23.8251C250.376 22.2894 249.863 20.7801 248.86 19.6243C248.409 19.1218 247.858 18.7202 247.244 18.4455C246.63 18.1708 245.966 18.0288 245.295 18.0288C244.623 18.0288 243.959 18.1708 243.345 18.4455C242.731 18.7202 242.181 19.1218 241.729 19.6243C241.231 20.1928 240.848 20.8552 240.604 21.5736C240.359 22.292 240.257 23.0522 240.303 23.8106C240.257 24.5691 240.359 25.3293 240.604 26.0477C240.848 26.766 241.231 27.4284 241.729 27.9969C242.179 28.5057 242.731 28.9108 243.348 29.1848C243.966 29.4587 244.635 29.5952 245.309 29.5848Z" fill="#5F6368"/>
</svg>
