<svg width="234" height="41" viewBox="0 0 234 41" fill="none" xmlns="http://www.w3.org/2000/svg">
<path d="M37.4656 8.92301C37.2323 8.16589 36.6726 7.55072 35.9728 7.17216L21.745 0.263396C21.3718 0.0741147 20.952 0.0267944 20.5788 0.0267944C20.2056 0.0267944 19.7858 0.0267944 19.4126 0.121435L5.18476 7.07752C4.48504 7.40876 3.9719 8.02393 3.78531 8.82837L0.286663 24.3968C0.146718 25.2012 0.333312 26.0056 0.799798 26.6681L10.6427 39.0187C11.2024 39.5866 11.9955 39.9651 12.7885 40.0125H28.4624C29.3021 40.1071 30.0951 39.7285 30.6082 39.0187L40.4511 26.6681C40.9176 26.0056 41.1042 25.2012 41.0109 24.3968L37.4656 8.92301Z" fill="#326DE6"/>
<path d="M35.2729 23.7816C35.2263 23.7816 35.1796 23.7816 35.1796 23.7343C35.1796 23.687 35.0863 23.687 34.9931 23.687C34.8065 23.6396 34.6199 23.6396 34.4333 23.6396C34.34 23.6396 34.2467 23.6396 34.1534 23.5923H34.1067C33.5936 23.545 33.0338 23.4504 32.5207 23.3084C32.3807 23.2611 32.2408 23.1191 32.1941 22.9772C32.1941 22.9772 32.2408 22.9772 32.1941 22.9772L31.8209 22.8825C32.0075 21.5102 31.9142 20.0906 31.6343 18.7183C31.3078 17.346 30.748 16.0211 30.0017 14.8381L30.2815 14.5541V14.5068C30.2815 14.3649 30.3282 14.1756 30.4215 14.0809C30.8413 13.7024 31.2612 13.4185 31.7276 13.1345L32.0075 12.9926C32.1941 12.8979 32.3341 12.8033 32.5207 12.7086C32.5673 12.6613 32.614 12.6613 32.6606 12.614C32.7073 12.5667 32.6606 12.5667 32.6606 12.5194C33.0805 12.1881 33.1738 11.6203 32.8472 11.1944C32.7073 11.0051 32.4274 10.8632 32.1941 10.8632C31.9609 10.8632 31.7276 10.9578 31.5411 11.0998L31.4944 11.1471C31.4478 11.1944 31.4011 11.2417 31.3545 11.2417C31.2145 11.3837 31.0746 11.5256 30.9813 11.6676C30.9346 11.7622 30.8413 11.8096 30.7947 11.8569C30.4681 12.2354 30.0483 12.614 29.6285 12.8979C29.5352 12.9452 29.4419 12.9926 29.3486 12.9926C29.3019 12.9926 29.2086 12.9926 29.162 12.9452H29.1153L28.7421 13.1818C28.369 12.8033 27.9491 12.4247 27.5759 12.0462C25.8499 10.6739 23.7041 9.82211 21.5116 9.58551L21.465 9.20694V9.25426C21.325 9.15962 21.2784 9.01766 21.2317 8.8757C21.2317 8.35518 21.2317 7.83465 21.325 7.26681V7.21949C21.325 7.12485 21.3717 7.03021 21.3717 6.93557C21.4183 6.74629 21.4183 6.55701 21.465 6.36772V6.0838C21.5116 5.6106 21.1384 5.1374 20.6719 5.09008C20.392 5.04276 20.1122 5.18472 19.8789 5.42132C19.6923 5.6106 19.599 5.8472 19.599 6.0838V6.3204C19.599 6.50969 19.6457 6.69897 19.6923 6.88825C19.739 6.98289 19.739 7.07753 19.739 7.17217V7.21949C19.8323 7.74001 19.8323 8.26054 19.8323 8.82838C19.7856 8.97034 19.739 9.1123 19.599 9.20694V9.30158L19.5524 9.68015C19.0392 9.72747 18.5261 9.82211 17.9663 9.91675C15.7738 10.3899 13.7679 11.573 12.2285 13.2292L11.9486 13.0399H11.902C11.8554 13.0399 11.8087 13.0872 11.7154 13.0872C11.6221 13.0872 11.5288 13.0399 11.4355 12.9926C11.0157 12.6613 10.5958 12.2828 10.2693 11.9042C10.2227 11.8096 10.1294 11.7622 10.0827 11.7149C9.94276 11.573 9.84946 11.431 9.70952 11.289C9.66287 11.2417 9.61622 11.2417 9.56957 11.1944L9.52292 11.1471C9.33633 11.0051 9.10309 10.9105 8.86984 10.9105C8.58995 10.9105 8.35671 11.0051 8.21676 11.2417C7.93687 11.6676 8.03017 12.2354 8.40336 12.5667C8.45001 12.5667 8.45001 12.614 8.45001 12.614C8.45001 12.614 8.5433 12.7086 8.58995 12.7086C8.7299 12.8033 8.91649 12.8979 9.10309 12.9926L9.38298 13.1345C9.84946 13.4185 10.3159 13.7024 10.6891 14.0809C10.7824 14.1756 10.8757 14.3649 10.8291 14.5068V14.4595L11.109 14.7434C11.0623 14.8381 11.0157 14.8854 10.969 14.98C9.52292 17.2987 8.91649 20.0433 9.33633 22.7405L8.96314 22.8352C8.96314 22.8825 8.91649 22.8825 8.91649 22.8825C8.86984 23.0245 8.7299 23.1191 8.58995 23.2138C8.07682 23.3557 7.56368 23.4504 7.0039 23.4977C6.9106 23.4977 6.8173 23.4977 6.72401 23.545C6.53741 23.545 6.35082 23.5923 6.16422 23.5923C6.11758 23.5923 6.07093 23.6396 5.97763 23.6396C5.93098 23.6396 5.93098 23.6396 5.88433 23.687C5.3712 23.7816 5.04466 24.2548 5.13796 24.7753C5.23125 25.2012 5.65109 25.4851 6.07093 25.4378C6.16422 25.4378 6.21087 25.4378 6.30417 25.3905C6.35082 25.3905 6.35082 25.3905 6.35082 25.3432C6.35082 25.2958 6.49076 25.3432 6.53741 25.3432C6.72401 25.2958 6.9106 25.2012 7.05055 25.1539C7.14384 25.1066 7.23714 25.0592 7.33044 25.0592H7.37709C7.89022 24.87 8.35671 24.728 8.91649 24.6334H8.96314C9.10309 24.6334 9.24303 24.6807 9.33633 24.7753C9.38298 24.7753 9.38298 24.8226 9.38298 24.8226L9.80281 24.7753C10.5025 26.9521 11.8087 28.8922 13.628 30.3118C14.0478 30.643 14.421 30.927 14.8875 31.1636L14.6543 31.4948C14.6543 31.5421 14.7009 31.5421 14.7009 31.5421C14.7942 31.6841 14.7942 31.8734 14.7476 32.0153C14.561 32.4885 14.2811 32.9617 14.0012 33.3876V33.4349C13.9545 33.5296 13.9079 33.5769 13.8146 33.6715C13.7213 33.7662 13.628 33.9555 13.4881 34.1447C13.4414 34.1921 13.4414 34.2394 13.3948 34.2867C13.3948 34.2867 13.3948 34.334 13.3481 34.334C13.1149 34.8072 13.3015 35.3751 13.7213 35.6117C13.8146 35.659 13.9545 35.7063 14.0478 35.7063C14.421 35.7063 14.7476 35.4697 14.9342 35.1385C14.9342 35.1385 14.9342 35.0911 14.9808 35.0911C14.9808 35.0438 15.0275 34.9965 15.0741 34.9492C15.1208 34.7599 15.2141 34.6179 15.2607 34.4287L15.354 34.1447C15.4939 33.6242 15.7272 33.151 15.9604 32.6778C16.0537 32.5359 16.1937 32.4412 16.3336 32.3939C16.3803 32.3939 16.3803 32.3939 16.3803 32.3466L16.5669 31.968C17.873 32.4885 19.2258 32.7251 20.6253 32.7251C21.465 32.7251 22.3046 32.6305 23.1443 32.3939C23.6574 32.2993 24.1706 32.11 24.6371 31.968L24.8237 32.2992C24.8703 32.2992 24.8703 32.2993 24.8703 32.3466C25.0103 32.3939 25.1502 32.4885 25.2435 32.6305C25.4767 33.1037 25.71 33.5769 25.8499 34.0974V34.1447L25.9432 34.4287C25.9899 34.6179 26.0365 34.8072 26.1298 34.9492C26.1765 34.9965 26.1765 35.0438 26.2231 35.0911C26.2231 35.0911 26.2231 35.1385 26.2698 35.1385C26.4564 35.4697 26.7829 35.7063 27.1561 35.7063C27.296 35.7063 27.3893 35.659 27.5293 35.6117C27.7159 35.517 27.9025 35.3278 27.9491 35.0911C27.9958 34.8545 27.9958 34.6179 27.9025 34.3813C27.9025 34.334 27.8558 34.334 27.8558 34.334C27.8558 34.2867 27.8092 34.2394 27.7625 34.1921C27.6692 34.0028 27.5759 33.8608 27.436 33.7189C27.3893 33.6242 27.3427 33.5769 27.2494 33.4823V33.3876C26.9228 32.9617 26.6896 32.4885 26.503 32.0153C26.4564 31.8734 26.4564 31.6841 26.5497 31.5421C26.5497 31.4948 26.5963 31.4948 26.5963 31.4948L26.4564 31.1162C28.8354 29.6493 30.6547 27.3779 31.4944 24.6807L31.8676 24.728C31.9142 24.728 31.9142 24.6807 31.9142 24.6807C32.0075 24.586 32.1475 24.5387 32.2874 24.5387H32.3341C32.8472 24.6334 33.3603 24.7753 33.8268 24.9646H33.8735C33.9668 25.0119 34.0601 25.0592 34.1534 25.0592C34.34 25.1539 34.4799 25.2485 34.6665 25.2958C34.7132 25.2958 34.7598 25.3432 34.8531 25.3432C34.8998 25.3432 34.8998 25.3432 34.9464 25.3905C35.0397 25.4378 35.0864 25.4378 35.1796 25.4378C35.5995 25.4378 35.9727 25.1539 36.1126 24.7753C36.066 24.2548 35.6928 23.8762 35.2729 23.7816ZM21.7915 22.3147L20.532 22.9298L19.2725 22.3147L18.9459 20.9424L19.8323 19.8067H21.2317L22.118 20.9424L21.7915 22.3147ZM29.3952 19.2388C29.6285 20.2326 29.6751 21.2263 29.5818 22.22L25.1502 20.9424C24.7304 20.8477 24.4971 20.4219 24.5904 19.996C24.6371 19.854 24.6837 19.7594 24.777 19.6647L28.2757 16.4469C28.7888 17.2987 29.162 18.2451 29.3952 19.2388ZM26.8762 14.6961L23.051 17.4407C22.7245 17.63 22.258 17.5826 22.0247 17.2514C21.9314 17.1568 21.8848 17.0621 21.8848 16.9202L21.6049 12.1408C23.6574 12.3774 25.4767 13.2765 26.8762 14.6961ZM18.4328 12.2828L19.3658 12.0935L19.1325 16.8255C19.1325 17.2514 18.7593 17.5826 18.3395 17.5826C18.1996 17.5826 18.1063 17.5353 17.9663 17.488L14.0945 14.6961C15.3073 13.5131 16.8001 12.6613 18.4328 12.2828ZM12.7417 16.4469L16.1937 19.5701C16.5202 19.854 16.5669 20.3272 16.287 20.6585C16.1937 20.8004 16.1004 20.8477 15.9138 20.8951L11.3889 22.22C11.2489 20.2326 11.7154 18.1978 12.7417 16.4469ZM11.9486 24.4441L16.5669 23.6396C16.94 23.6396 17.3132 23.8762 17.3599 24.2548C17.4065 24.3968 17.4065 24.586 17.3132 24.728L15.5406 29.0815C13.9079 27.9931 12.6017 26.3369 11.9486 24.4441ZM22.5379 30.3118C21.8848 30.4538 21.2317 30.5484 20.532 30.5484C19.5524 30.5484 18.5261 30.3591 17.5931 30.0752L19.8789 25.8637C20.1122 25.5798 20.4853 25.4851 20.8119 25.6744C20.9518 25.7691 21.0451 25.8637 21.1851 26.0057L23.4242 30.1225C23.1443 30.1698 22.8644 30.2172 22.5379 30.3118ZM28.229 26.1949C27.5293 27.3306 26.5497 28.3243 25.4301 29.0342L23.6108 24.586C23.5175 24.2075 23.7041 23.8289 24.0306 23.687C24.1706 23.6396 24.3105 23.5923 24.4505 23.5923L29.1153 24.3968C28.8821 25.0592 28.6022 25.6744 28.229 26.1949Z" fill="white"/>
<path d="M226.252 29.602C226.905 29.6493 227.605 29.5547 228.212 29.3181C228.585 29.1288 228.818 28.7029 228.771 28.277C228.725 27.8038 228.445 27.3779 228.025 27.236C227.325 26.8101 226.532 26.4315 225.739 26.1949C224.946 25.911 224.246 25.5798 223.593 25.2485C222.987 24.9646 222.474 24.586 221.961 24.1128C221.494 23.6396 221.168 23.1191 220.934 22.5039C220.654 21.7941 220.561 21.037 220.561 20.2799C220.515 18.7183 221.214 17.2041 222.427 16.2577C223.687 15.2639 225.366 14.7907 227.512 14.7907C228.538 14.7907 229.611 14.8854 230.637 15.122C231.43 15.2639 232.223 15.4532 233.016 15.7371L232.13 19.7594C231.477 19.5228 230.871 19.3808 230.217 19.1915C229.471 19.0022 228.678 18.9549 227.932 18.9549C226.346 18.9549 225.553 19.3808 225.553 20.2799C225.553 20.4692 225.599 20.6584 225.646 20.8477C225.739 21.037 225.879 21.179 226.066 21.3209C226.252 21.4629 226.532 21.6049 226.859 21.7941C227.185 21.9834 227.652 22.1727 228.212 22.362C229.145 22.6932 230.077 23.1191 230.917 23.5923C231.57 23.9235 232.13 24.3494 232.596 24.9173C233.016 25.3432 233.296 25.8637 233.483 26.4788C233.669 27.1413 233.763 27.8038 233.763 28.4663C233.856 30.0752 233.11 31.6368 231.757 32.5358C230.451 33.4349 228.585 33.9081 226.159 33.9081C224.806 33.9555 223.5 33.8135 222.194 33.4823C221.447 33.293 220.748 33.0564 220.048 32.8198L220.888 28.6556C221.727 28.9868 222.614 29.2707 223.5 29.46C224.433 29.5073 225.319 29.602 226.252 29.602ZM200.549 24.3968C200.502 22.9771 200.782 21.5575 201.249 20.2326C201.668 19.0969 202.322 18.1032 203.161 17.2041C203.954 16.3996 204.841 15.7845 205.867 15.4059C206.893 14.98 207.966 14.7907 209.039 14.7907C211.558 14.7907 213.564 15.5952 215.01 17.1567C216.456 18.7183 217.202 21.037 217.202 24.0655C217.202 24.3494 217.202 24.6807 217.156 25.0592C217.156 25.4378 217.109 25.7217 217.109 26.0056H205.727C205.82 26.9994 206.333 27.9458 207.173 28.5136C208.199 29.1761 209.412 29.5073 210.625 29.46C211.511 29.46 212.444 29.3654 213.331 29.2234C214.077 29.0815 214.823 28.8449 215.523 28.5136L216.223 32.6778C215.896 32.8671 215.523 32.9617 215.15 33.1037C214.637 33.2457 214.124 33.3876 213.611 33.4349C213.051 33.5296 212.491 33.6242 211.838 33.7189C211.231 33.7662 210.578 33.8135 209.925 33.8135C208.479 33.8608 207.08 33.6242 205.727 33.1037C204.607 32.6778 203.628 32.0153 202.788 31.1636C201.995 30.3118 201.435 29.2707 201.062 28.1824C200.736 26.9047 200.549 25.6271 200.549 24.3968ZM212.351 22.4566C212.351 22.0307 212.258 21.6049 212.118 21.179C212.024 20.7531 211.791 20.4218 211.558 20.0906C211.278 19.7594 210.952 19.4754 210.578 19.2862C210.112 19.0496 209.645 18.9549 209.132 18.9549C208.619 18.9549 208.153 19.0496 207.686 19.2862C207.313 19.4754 206.94 19.712 206.66 20.0433C206.38 20.3745 206.147 20.7531 206.007 21.179C205.867 21.6049 205.774 22.0307 205.727 22.4566H212.351ZM186.881 10.7212L191.919 9.91674V15.2166H197.983V19.4754H191.919V25.8164C191.872 26.7154 192.059 27.6145 192.479 28.3717C192.852 28.9868 193.598 29.3181 194.764 29.3181C195.324 29.3181 195.884 29.2707 196.397 29.1761C196.957 29.0815 197.47 28.9395 197.983 28.7502L198.683 32.7251C198.03 33.0091 197.33 33.1983 196.63 33.3876C195.744 33.5769 194.811 33.6715 193.878 33.6715C192.712 33.7189 191.546 33.5296 190.473 33.1037C189.633 32.7724 188.887 32.2046 188.327 31.5421C187.767 30.8323 187.394 29.9806 187.161 29.0815C186.928 28.0404 186.834 26.9521 186.881 25.911V10.7212ZM166.495 24.3968C166.449 22.9771 166.729 21.5575 167.195 20.2326C167.615 19.0969 168.268 18.1032 169.108 17.2041C169.901 16.3996 170.787 15.7845 171.813 15.4059C172.84 14.98 173.913 14.7907 174.985 14.7907C177.505 14.7907 179.51 15.5952 180.957 17.1567C182.403 18.7183 183.149 21.037 183.149 24.0655C183.149 24.3494 183.149 24.6807 183.102 25.0592C183.056 25.4378 183.056 25.7217 183.056 26.0056H171.627C171.72 26.9994 172.233 27.9458 173.073 28.5136C174.099 29.1761 175.312 29.5073 176.525 29.46C177.411 29.46 178.344 29.3654 179.231 29.2234C179.977 29.0815 180.723 28.8449 181.47 28.5136L182.169 32.6778C181.843 32.8671 181.47 32.9617 181.096 33.1037C180.583 33.2457 180.07 33.3876 179.557 33.4349C178.997 33.5296 178.437 33.6242 177.784 33.7189C177.178 33.7662 176.525 33.8135 175.872 33.8135C174.426 33.8608 173.026 33.6242 171.673 33.1037C170.554 32.6778 169.574 32.0153 168.735 31.1636C167.942 30.3118 167.382 29.2707 167.009 28.1824C166.635 26.9047 166.449 25.6271 166.495 24.3968ZM178.298 22.4566C178.298 22.0307 178.204 21.6049 178.064 21.179C177.971 20.7531 177.738 20.4218 177.505 20.0906C177.225 19.7594 176.898 19.4754 176.525 19.2862C176.058 19.0496 175.592 18.9549 175.079 18.9549C174.566 18.9549 174.099 19.0496 173.633 19.2862C173.259 19.4754 172.933 19.712 172.653 20.0433C172.373 20.3745 172.14 20.7531 172 21.179C171.86 21.6049 171.767 22.0307 171.72 22.4566H178.298ZM147.37 15.8318C148.442 15.5479 149.562 15.3113 150.682 15.122C152.081 14.8854 153.527 14.7907 154.927 14.7907C156.186 14.7434 157.446 14.98 158.658 15.4059C159.591 15.7371 160.431 16.305 161.038 17.0621C161.644 17.8192 162.064 18.7183 162.297 19.6647C162.577 20.7531 162.67 21.8888 162.67 23.0245V33.1983H157.679V23.6869C157.679 22.0307 157.446 20.8951 157.026 20.1852C156.606 19.5228 155.813 19.1442 154.647 19.1442C154.274 19.1442 153.9 19.1442 153.481 19.1915C153.061 19.1915 152.734 19.2388 152.408 19.2862V33.1983H147.37V15.8318ZM143.824 19.7594C143.358 19.6647 142.845 19.5228 142.238 19.4281C141.585 19.2862 140.932 19.2388 140.279 19.2388C139.906 19.2388 139.533 19.2862 139.113 19.3335C138.786 19.3808 138.46 19.4281 138.133 19.5228V33.293H133.095V16.163C134.121 15.7845 135.194 15.5005 136.267 15.2639C137.62 14.9327 139.019 14.7907 140.372 14.8381C140.699 14.8381 141.025 14.8854 141.352 14.8854C141.725 14.8854 142.098 14.9327 142.518 15.0273C142.891 15.0747 143.264 15.122 143.684 15.2166C144.011 15.2639 144.337 15.3586 144.664 15.5005L143.824 19.7594ZM112.523 24.3968C112.476 22.9771 112.756 21.5575 113.223 20.2326C113.643 19.0969 114.296 18.1032 115.135 17.2041C115.928 16.3996 116.815 15.7845 117.841 15.4059C118.867 14.98 119.94 14.7907 121.013 14.7907C123.532 14.7907 125.538 15.5952 126.984 17.1567C128.43 18.7183 129.177 21.037 129.177 24.0182C129.177 24.3021 129.177 24.6334 129.13 25.0119C129.083 25.3905 129.083 25.6744 129.083 25.9583H117.654C117.748 26.9521 118.261 27.8985 119.1 28.4663C120.127 29.1288 121.34 29.46 122.552 29.4127C123.439 29.4127 124.372 29.3181 125.258 29.1761C126.004 29.0341 126.751 28.7975 127.451 28.5136L128.15 32.6778C127.824 32.8671 127.451 32.9617 127.077 33.1037C126.564 33.2457 126.051 33.3876 125.538 33.4349C124.978 33.5296 124.418 33.6242 123.765 33.7189C123.159 33.7662 122.506 33.8135 121.853 33.8135C120.407 33.8608 119.007 33.6242 117.654 33.1037C116.535 32.6778 115.555 32.0153 114.716 31.1636C113.923 30.3118 113.363 29.2707 112.99 28.1824C112.71 26.9047 112.523 25.6744 112.523 24.3968ZM124.372 22.4566C124.372 22.0307 124.278 21.6049 124.139 21.179C124.045 20.7531 123.812 20.4218 123.579 20.0906C123.299 19.7594 122.972 19.4754 122.599 19.2862C122.133 19.0496 121.666 18.9549 121.153 18.9549C120.64 18.9549 120.173 19.0496 119.707 19.2862C119.334 19.4754 118.961 19.712 118.681 20.0433C118.401 20.3745 118.168 20.7531 118.028 21.179C117.888 21.6049 117.794 22.0307 117.748 22.4566H124.372ZM104.36 24.1128C104.36 20.8004 103.147 19.1915 100.768 19.1915C100.254 19.1915 99.7413 19.2388 99.2282 19.3808C98.8084 19.4754 98.3885 19.6647 98.0153 19.9013V29.1761C98.2486 29.2234 98.5751 29.2707 98.9483 29.3181C99.3215 29.3654 99.7413 29.3654 100.208 29.3654C101.421 29.46 102.587 28.9395 103.333 27.9458C104.033 26.8101 104.406 25.4851 104.36 24.1128ZM109.491 24.3021C109.491 25.6271 109.304 26.952 108.838 28.2297C108.465 29.3654 107.858 30.3591 107.065 31.2109C106.225 32.0626 105.246 32.7251 104.173 33.151C102.913 33.6242 101.607 33.8135 100.254 33.8135C99.648 33.8135 98.995 33.7662 98.3419 33.7189C97.6888 33.6715 97.0357 33.5769 96.3826 33.5296C95.7762 33.4349 95.1698 33.3403 94.5633 33.1983C93.9569 33.1037 93.4438 32.9617 93.0239 32.7724V7.45608L98.062 6.65164V15.6425C98.6218 15.4059 99.2282 15.2166 99.8346 15.0747C100.488 14.9327 101.141 14.8854 101.794 14.8854C102.96 14.8854 104.08 15.0747 105.153 15.5952C106.086 16.0211 106.925 16.6835 107.578 17.488C108.278 18.3871 108.791 19.3808 109.071 20.4692C109.351 21.6522 109.491 22.9771 109.491 24.3021ZM88.2191 32.6305C87.1462 32.9144 86.0266 33.151 84.9071 33.293C83.5076 33.5296 82.0615 33.6242 80.6621 33.6242C79.3559 33.6715 78.0964 33.4349 76.8835 33.009C75.9506 32.6305 75.1575 32.0626 74.5045 31.3055C73.898 30.5011 73.4782 29.602 73.2449 28.6083C72.965 27.5199 72.8718 26.3369 72.8718 25.2012V15.2166H77.9098V24.6334C77.9098 26.2896 78.143 27.4726 78.5629 28.1824C78.9827 28.8922 79.7757 29.2707 80.942 29.2707C81.3151 29.2707 81.6883 29.2707 82.1082 29.2234C82.528 29.1761 82.8545 29.1761 83.1811 29.0815V15.2166H88.2191V32.6305ZM58.8305 21.7468C59.3437 21.179 59.8102 20.6111 60.3699 20.0433C60.8831 19.4281 61.3962 18.8603 61.9093 18.2924C62.4225 17.6773 62.889 17.1567 63.3088 16.6362C63.7286 16.1157 64.1485 15.6425 64.475 15.2639H70.446C69.2332 16.6362 68.0669 18.0085 66.9474 19.2862C65.7812 20.5638 64.5683 21.8888 63.2155 23.2137C63.9619 23.9236 64.6616 24.6334 65.3147 25.4378C66.0144 26.2896 66.7141 27.1413 67.4139 28.0877C68.0669 28.9868 68.72 29.9332 69.2798 30.8323C69.8396 31.7314 70.3061 32.5832 70.6793 33.3403H64.8948C64.5217 32.7251 64.1018 32.11 63.6353 31.4002C63.1688 30.6904 62.6557 29.9806 62.1892 29.2234C61.6761 28.5136 61.1163 27.8038 60.5099 27.1413C59.9967 26.5262 59.437 25.9583 58.8305 25.4851V33.3876H53.7925V7.45608L58.8305 6.65164V21.7468Z" fill="black"/>
</svg>
