<svg width="529" height="131" viewBox="0 0 529 131" fill="none" xmlns="http://www.w3.org/2000/svg">
<path d="M56.7 0C46.5 0 38.3 8.3 38.3 18.4C38.3 28.5 46.6 36.8 56.7 36.8C66.9 36.8 75.1 28.5 75.1 18.4C75.1 8.3 66.8 0 56.7 0ZM56.7 31.7C49.4 31.7 43.4 25.8 43.4 18.4C43.4 11.1 49.4 5.1 56.7 5.1C64 5.1 70 11 70 18.4C69.9 25.8 64 31.7 56.7 31.7ZM20.4 56.9L10 49.1L11.5 47C17.6 38.9 29.2 37.2 37.3 43.3H37.4C36.1 44 34.7 44.7 33.5 45.5C28 48.8 23.7 52.7 20.4 56.9ZM53 113L52.7 117.6L49 115C46.3 113.1 43.4 112.1 40.9 112.1C39.6 112.1 37.9 112.4 36.5 113.7C34 116.2 34.5 121.5 37.9 126.2L40.5 129.9L35.9 130.2C35.5 130.2 35.1 130.2 34.7 130.2C29.8 130.2 25.2 128.3 21.7 124.8C18.2 121.3 16.3 116.7 16.3 111.8C16.3 106.9 18.2 102.3 21.7 98.8C25.2 95.3 29.8 93.4 34.7 93.4C39.6 93.4 44.2 95.3 47.7 98.8C51.4 102.4 53.4 107.6 53 113ZM63.8 16.4C64 17 64.1 17.7 64.1 18.4C64.1 22.5 60.8 25.8 56.7 25.8C52.6 25.8 49.3 22.5 49.3 18.4C49.3 14.3 52.6 11 56.7 11C57.1 11 57.5 11.1 57.9 11.1C57.8 11.5 57.7 12 57.7 12.5C57.7 14.9 59.6 16.8 62 16.8C62.6 16.8 63.2 16.7 63.8 16.4ZM20.6 92.9C19.7 93.6 18.8 94.3 18 95.1C15 98.1 12.9 101.7 11.9 105.7L10.8 104.2C7.8 100.3 6.5 95.4 7.2 90.6C7.8 86 10.1 81.8 13.7 78.9H0V76.3C0 66.1 8.3 57.9 18.4 57.9H19.7C15.9 63.1 14 68.9 14 74.8C14 76 14.1 77.2 14.3 78.4C14.9 83.5 17.1 88.4 20.6 92.9ZM101 0C90.8 0 82.6 8.3 82.6 18.4C82.6 28.5 90.9 36.8 101 36.8C111.2 36.8 119.4 28.5 119.4 18.4C119.4 8.3 111.2 0 101 0ZM101 31.7C93.7 31.7 87.7 25.8 87.7 18.4C87.7 11.1 93.7 5.1 101 5.1C108.3 5.1 114.3 11 114.3 18.4C114.3 25.8 108.3 31.7 101 31.7ZM124.2 45.5C122.9 44.7 121.6 44 120.3 43.3H120.4C128.5 37.2 140.1 38.8 146.2 47L147.7 49.1L137.3 56.9C134 52.7 129.6 48.8 124.2 45.5ZM110 98.7C113.5 95.2 118.1 93.3 123 93.3C127.9 93.3 132.6 95.2 136 98.7C139.5 102.2 141.4 106.8 141.4 111.7C141.4 116.6 139.5 121.2 136 124.7C132.5 128.2 127.9 130.1 123 130.1C122.6 130.1 122.2 130.1 121.8 130.1L117.2 129.8L119.8 126.1C123.1 121.4 123.7 116.1 121.2 113.6C119.9 112.3 118.1 112 116.8 112C114.2 112 111.4 113 108.7 114.9L105 117.5L104.7 112.9C104.3 107.6 106.3 102.4 110 98.7ZM108.1 16.4C108.3 17 108.4 17.7 108.4 18.4C108.4 22.5 105.1 25.8 101 25.8C96.9 25.8 93.6 22.5 93.6 18.4C93.6 14.3 96.9 11 101 11C101.4 11 101.8 11.1 102.2 11.1C102.1 11.5 102 12 102 12.5C102 14.9 103.9 16.8 106.3 16.8C106.9 16.8 107.6 16.7 108.1 16.4ZM121 51.7C109.8 44.9 94.8 41.1 78.9 41.1C62.9 41.1 47.9 44.9 36.8 51.7C26.3 58.1 20.6 66.3 20.6 74.8C20.6 80 22.7 85 26.7 89.6C29.2 88.7 31.9 88.2 34.7 88.2C41 88.2 46.9 90.6 51.3 95.1C54.4 98.2 56.5 102 57.5 106.2C64.2 107.8 71.4 108.6 78.9 108.6C86.3 108.6 93.5 107.8 100.3 106.2C101.3 102.1 103.4 98.2 106.5 95.1C111 90.7 116.9 88.2 123.1 88.2C125.9 88.2 128.6 88.7 131.1 89.6C135.1 85 137.2 80 137.2 74.8C137.2 66.3 131.4 58.1 121 51.7ZM78.8 68.6C71.6 68.6 65.7 62.7 65.7 55.5H91.9C91.9 62.7 86.1 68.6 78.8 68.6ZM157.8 78.9H144.1C147.7 81.9 150 86 150.6 90.6C151.3 95.5 150 100.3 147 104.2L145.9 105.7C144.9 101.7 142.8 98.1 139.8 95.1C139 94.3 138.1 93.6 137.2 92.9C140.7 88.4 142.9 83.5 143.5 78.4C143.7 77.2 143.8 76 143.8 74.8C143.8 68.8 141.8 63.1 138.1 57.9H139.4C149.6 57.9 157.8 66.2 157.8 76.3V78.9Z" fill="url(#paint0_linear)"/>
<path d="M230.6 36.2C236.3 36.2 241.1 36.9 244.9 38.3C248.8 39.7 251.9 41.7 254.2 44.3C256.5 46.9 258.2 50 259.2 53.6C260.2 57.2 260.7 61.2 260.7 65.6V110.6C258.1 111.2 254.1 111.9 248.7 112.7C243.4 113.5 237.3 113.9 230.6 113.9C226.2 113.9 222.1 113.5 218.4 112.6C214.7 111.8 211.6 110.4 209 108.5C206.4 106.6 204.4 104.1 202.9 101.1C201.4 98.1 200.7 94.3 200.7 89.9C200.7 85.6 201.5 82.1 203.2 79.1C204.9 76.2 207.1 73.8 209.9 71.9C212.7 70.1 216 68.7 219.8 67.9C223.5 67.1 227.4 66.7 231.5 66.7C233.4 66.7 235.4 66.8 237.5 67.1C239.6 67.3 241.8 67.7 244.2 68.3V65.5C244.2 63.5 244 61.6 243.5 59.8C243 58 242.2 56.4 241 55C239.8 53.6 238.3 52.6 236.3 51.8C234.4 51 231.9 50.7 229 50.7C225 50.7 221.4 51 218.1 51.6C214.8 52.2 212.1 52.8 210 53.6L207.9 39.7C210.1 38.9 213.2 38.2 217.4 37.4C221.5 36.6 225.9 36.2 230.6 36.2ZM232.1 100.2C237.4 100.2 241.4 99.9 244.2 99.4V80.4C243.3 80.1 241.9 79.8 240.1 79.6C238.3 79.3 236.3 79.2 234.1 79.2C232.2 79.2 230.3 79.3 228.4 79.6C226.5 79.9 224.7 80.4 223.2 81.2C221.6 82 220.4 83 219.4 84.4C218.5 85.8 218 87.5 218 89.6C218 93.7 219.3 96.5 221.8 98C224.2 99.4 227.7 100.2 232.1 100.2Z" fill="#333333"/>
<path d="M298 16.3C298 19.5 297 22.1 294.9 24C292.8 25.9 290.4 26.8 287.5 26.8C284.6 26.8 282.1 25.9 280 24C277.9 22.1 276.9 19.6 276.9 16.3C276.9 13 277.9 10.4 280 8.50001C282.1 6.60001 284.6 5.70001 287.5 5.70001C290.3 5.70001 292.8 6.60001 294.9 8.50001C297 10.4 298 13 298 16.3ZM296.2 112.2H279V38H296.2V112.2Z" fill="#333333"/>
<path d="M337.1 112.2C332.4 102.5 327.5 91.3 322.5 78.6C317.5 66 313 52.4 308.9 38H327.2C328.2 42.2 329.5 46.6 330.8 51.4C332.2 56.2 333.6 61 335.2 65.7C336.8 70.5 338.4 75.1 340 79.6C341.7 84.1 343.2 88.1 344.6 91.7C346 88.1 347.5 84.1 349.2 79.6C350.8 75.1 352.4 70.5 354 65.7C355.6 60.9 357.1 56.1 358.5 51.4C359.9 46.6 361.2 42.2 362.2 38H379.9C375.8 52.5 371.3 66 366.3 78.6C361.3 91.2 356.4 102.4 351.7 112.2H337.1V112.2Z" fill="#333333"/>
<path d="M384 75.5C384 69 385 63.3 386.9 58.3C388.8 53.4 391.4 49.3 394.6 46C397.8 42.7 401.5 40.3 405.7 38.6C409.9 36.9 414.1 36.1 418.5 36.1C428.7 36.1 436.7 39.3 442.4 45.6C448.1 51.9 451 61.4 451 74C451 74.9 451 76 450.9 77.2C450.9 78.4 450.8 79.4 450.7 80.4H401.8C402.3 86.4 404.4 91 408.1 94.2C411.8 97.5 417.3 99.1 424.3 99.1C428.5 99.1 432.3 98.7 435.7 98C439.2 97.2 441.9 96.4 443.9 95.6L446.2 109.6C445.3 110.1 444 110.6 442.3 111.1C440.6 111.6 438.8 112.1 436.6 112.5C434.5 112.9 432.2 113.3 429.7 113.6C427.2 113.9 424.7 114 422.2 114C415.7 114 410 113 405.2 111.1C400.4 109.2 396.4 106.5 393.3 103C390.2 99.5 387.9 95.5 386.3 90.8C384.8 86.2 384 81.1 384 75.5ZM433.8 67.8C433.8 65.4 433.5 63.2 432.8 61.1C432.1 59 431.2 57.1 429.9 55.6C428.6 54 427.1 52.8 425.2 51.9C423.4 51 421.2 50.6 418.6 50.6C416 50.6 413.6 51.1 411.6 52.1C409.6 53.1 407.9 54.4 406.6 56C405.2 57.6 404.2 59.5 403.4 61.5C402.6 63.6 402.1 65.7 401.8 67.9H433.8V67.8Z" fill="#333333"/>
<path d="M466.3 40.4C469.6 39.5 473.9 38.6 479.2 37.7C484.5 36.8 490.4 36.4 496.8 36.4C502.9 36.4 507.9 37.2 512 38.9C516.1 40.6 519.3 42.9 521.7 45.9C524.1 48.9 525.8 52.5 526.8 56.7C527.8 60.9 528.3 65.5 528.3 70.5V112.2H511.1V73.2C511.1 69.2 510.8 65.8 510.3 63.1C509.8 60.3 508.9 58 507.7 56.3C506.5 54.6 504.9 53.3 502.9 52.5C500.9 51.7 498.4 51.3 495.5 51.3C493.3 51.3 491.1 51.4 488.7 51.7C486.3 52 484.6 52.2 483.5 52.4V112.2H466.3V40.4V40.4Z" fill="#333333"/>
<defs>
<linearGradient id="paint0_linear" x1="0" y1="65.1" x2="157.8" y2="65.1" gradientUnits="userSpaceOnUse">
<stop stop-color="#E17343"/>
<stop offset="1" stop-color="#DB3654"/>
</linearGradient>
</defs>
</svg>
