<?xml version="1.0" encoding="utf-8"?>
<!-- Generator: Adobe Illustrator 21.0.0, SVG Export Plug-In . SVG Version: 6.00 Build 0)  -->
<svg version="1.1"
	 id="logo" inkscape:version="0.92.2 5c3e80d, 2017-08-06" sodipodi:docname="PhasedRelease-CS.svg" xmlns:cc="http://creativecommons.org/ns#" xmlns:dc="http://purl.org/dc/elements/1.1/" xmlns:inkscape="http://www.inkscape.org/namespaces/inkscape" xmlns:rdf="http://www.w3.org/1999/02/22-rdf-syntax-ns#" xmlns:sodipodi="http://sodipodi.sourceforge.net/DTD/sodipodi-0.dtd" xmlns:svg="http://www.w3.org/2000/svg"
	 xmlns="http://www.w3.org/2000/svg" xmlns:xlink="http://www.w3.org/1999/xlink" x="0px" y="0px" viewBox="0 0 400 300"
	 enable-background="new 0 0 400 300" xml:space="preserve">
<path id="logo_2_" fill="#0099CC" d="M86.67,225.263C54.216,215.4,30.629,185.447,30.629,150c0-35.822,24.09-66.025,57.036-75.633
	c3.374-1.001,2.5-3.125-1.621-3.125c-43.81,0-79.378,35.325-79.378,78.759s35.568,78.759,79.378,78.759
	C90.165,228.759,90.414,226.386,86.67,225.263 M45.731,168.349c-0.249-2.124-0.376-4.243-0.376-6.367
	c0-34.572,27.962-62.529,62.534-62.529c32.697,0,42.433,14.603,43.683,13.602c1.372-0.996-11.86-29.954-50.177-29.954
	c-34.572,0-62.529,27.957-62.529,62.529c0,7.988,1.499,15.604,4.243,22.591C44.232,171.22,45.98,171.22,45.731,168.349
	 M71.942,123.291c16.224-7.114,36.696-7.363,56.787-0.249c13.48,4.741,21.346,11.484,21.971,11.107
	c1.123-0.498-7.866-14.603-23.968-20.721c-19.471-7.363-40.436-3.491-55.664,8.491C69.32,123.291,69.945,124.165,71.942,123.291"/>
<path id="logo_1_" fill="#FF9933" d="M393.334,152.747c0,4.492-3.745,8.237-8.237,8.237c-4.497,0-8.237-3.618-8.237-8.237
	c0-4.492,3.618-8.237,8.237-8.237S393.334,148.128,393.334,152.747 M125.236,198.803l0.996,10.985h17.352l-5.869-63.779h-25.833
	l-32.703,63.779h17.723l5.493-10.985H125.236z M124.363,186.445h-15.853l13.607-27.58h0.122L124.363,186.445z M167.673,181.953
	h2.622l12.358-16.849h16.097l-17.098,21.468l10.488,23.216h-17.103l-6.865-18.099h-2.495l-3.867,18.099h-14.603l13.475-63.779
	h14.603L167.673,181.953z M221.592,209.786h14.603l5.864-27.835c3.247-15.35-2.617-17.22-17.596-17.22
	c-10.482,0-20.594-0.127-23.465,13.724h14.603c0.874-3.994,3.369-4.862,6.992-4.862c6.361,0,6.113,2.617,5.239,6.738l-1.499,7.114
	h-0.62c-0.503-5.117-6.992-4.99-11.113-4.99c-10.604,0-16.849,3.369-19.095,14.1c-2.368,11.356,2.998,13.857,13.231,13.857
	c5.117,0,11.981-1.001,14.354-7.114h0.498L221.592,209.786z M217.471,191.316c4.746,0,7.866,0.371,7.114,4.116
	c-0.996,4.619-2.993,5.493-9.111,5.493c-2.246,0-6.361,0-5.366-4.868C210.982,191.936,213.853,191.316,217.471,191.316
	 M265.775,165.103l-1.372,6.24h0.625c2.871-5.244,8.734-6.738,13.729-6.738c6.24,0,12.479,1.123,11.605,8.734h0.625
	c2.119-6.367,8.613-8.734,14.227-8.734c10.361,0,14.73,4.243,12.479,14.603l-6.489,30.579h-14.603l5.493-25.838
	c0.747-4.619,1.499-8.115-4.121-8.115c-5.742,0-7.612,3.745-8.613,8.613l-5.366,25.34h-14.603l5.742-27.088
	c0.752-4.116,1.001-6.865-4.116-6.865c-5.991,0-7.866,3.247-8.989,8.613l-5.366,25.34h-14.603l9.487-44.684H265.775z
	 M344.782,209.786h14.603l5.991-27.835c3.247-15.35-2.622-17.22-17.596-17.22c-10.488,0-20.599-0.127-23.465,13.724h14.603
	c0.869-3.994,3.369-4.862,6.987-4.862c6.367,0,6.118,2.617,5.244,6.738l-1.499,7.114h-0.625c-0.498-5.117-6.987-4.99-11.107-4.99
	c-10.61,0-16.849,3.369-19.095,14.1c-2.373,11.356,2.993,13.857,13.226,13.857c5.122,0,11.987-1.001,14.354-7.114h0.503
	L344.782,209.786z M340.788,191.316c4.741,0,7.861,0.371,7.114,4.116c-0.996,4.619-2.993,5.493-9.111,5.493
	c-2.246,0-6.367,0-5.366-4.868C334.299,191.936,337.17,191.316,340.788,191.316 M380.603,209.786h-14.603l9.36-44.684h14.73
	L380.603,209.786z"/>
</svg>
