<svg width="388" height="158" viewBox="0 0 388 158" fill="none" xmlns="http://www.w3.org/2000/svg">
<path d="M80.67 154.263C48.216 144.4 24.629 114.447 24.629 79C24.629 43.178 48.719 12.975 81.665 3.367C85.039 2.366 84.165 0.241997 80.044 0.241997C36.234 0.241997 0.665985 35.567 0.665985 79.001C0.665985 122.435 36.234 157.76 80.044 157.76C84.165 157.759 84.414 155.386 80.67 154.263ZM39.731 97.349C39.482 95.225 39.355 93.106 39.355 90.982C39.355 56.41 67.317 28.453 101.889 28.453C134.586 28.453 144.322 43.056 145.572 42.055C146.944 41.059 133.712 12.101 95.395 12.101C60.823 12.101 32.866 40.058 32.866 74.63C32.866 82.618 34.365 90.234 37.109 97.221C38.232 100.22 39.98 100.22 39.731 97.349ZM65.942 52.291C82.166 45.177 102.638 44.928 122.729 52.042C136.209 56.783 144.075 63.526 144.7 63.149C145.823 62.651 136.834 48.546 120.732 42.428C101.261 35.065 80.296 38.937 65.068 50.919C63.32 52.291 63.945 53.165 65.942 52.291Z" fill="#0099CC"/>
<path d="M387.334 81.747C387.334 86.239 383.589 89.984 379.097 89.984C374.6 89.984 370.86 86.366 370.86 81.747C370.86 77.255 374.478 73.51 379.097 73.51C383.716 73.51 387.334 77.128 387.334 81.747ZM119.236 127.803L120.232 138.788H137.584L131.715 75.009H105.882L73.179 138.788H90.902L96.395 127.803H119.236ZM118.363 115.445H102.51L116.117 87.865H116.239L118.363 115.445ZM161.673 110.953H164.295L176.653 94.104H192.75L175.652 115.572L186.14 138.788H169.037L162.172 120.689H159.677L155.81 138.788H141.207L154.682 75.009H169.285L161.673 110.953ZM215.592 138.786H230.195L236.059 110.951C239.306 95.601 233.442 93.731 218.463 93.731C207.981 93.731 197.869 93.604 194.998 107.455H209.601C210.475 103.461 212.97 102.593 216.593 102.593C222.954 102.593 222.706 105.21 221.832 109.331L220.333 116.445H219.713C219.21 111.328 212.721 111.455 208.6 111.455C197.996 111.455 191.751 114.824 189.505 125.555C187.137 136.911 192.503 139.412 202.736 139.412C207.853 139.412 214.717 138.411 217.09 132.298H217.588L215.592 138.786ZM211.471 120.316C216.217 120.316 219.337 120.687 218.585 124.432C217.589 129.051 215.592 129.925 209.474 129.925C207.228 129.925 203.113 129.925 204.108 125.057C204.982 120.936 207.853 120.316 211.471 120.316ZM259.775 94.103L258.403 100.343H259.028C261.899 95.099 267.762 93.605 272.757 93.605C278.997 93.605 285.236 94.728 284.362 102.339H284.987C287.106 95.972 293.6 93.605 299.214 93.605C309.575 93.605 313.944 97.848 311.693 108.208L305.204 138.787H290.601L296.094 112.949C296.841 108.33 297.593 104.834 291.973 104.834C286.231 104.834 284.361 108.579 283.36 113.447L277.994 138.787H263.391L269.133 111.699C269.885 107.583 270.134 104.834 265.017 104.834C259.026 104.834 257.151 108.081 256.028 113.447L250.662 138.787H236.059L245.546 94.103H259.775V94.103ZM338.782 138.786H353.385L359.376 110.951C362.623 95.601 356.754 93.731 341.78 93.731C331.292 93.731 321.181 93.604 318.315 107.455H332.918C333.787 103.461 336.287 102.593 339.905 102.593C346.272 102.593 346.023 105.21 345.149 109.331L343.65 116.445H343.025C342.527 111.328 336.038 111.455 331.918 111.455C321.308 111.455 315.069 114.824 312.823 125.555C310.45 136.911 315.816 139.412 326.049 139.412C331.171 139.412 338.036 138.411 340.403 132.298H340.906L338.782 138.786ZM334.788 120.316C339.529 120.316 342.649 120.687 341.902 124.432C340.906 129.051 338.909 129.925 332.791 129.925C330.545 129.925 326.424 129.925 327.425 125.057C328.299 120.936 331.17 120.316 334.788 120.316ZM374.603 138.786H360L369.36 94.102H384.09L374.603 138.786Z" fill="#FF9933"/>
</svg>
