<svg width="150" height="40" viewBox="0 0 150 40" fill="none" xmlns="http://www.w3.org/2000/svg">
<g clip-path="url(#clip0_1_2)">
<path d="M28.8402 16.6339V1.14048C28.8402 0.518951 28.3405 0.019165 27.7189 0.019165H22.3815V21.369C22.3815 22.2276 23.4195 22.6569 24.0218 22.0482L28.4174 17.6527C28.6865 17.3835 28.8402 17.0183 28.8402 16.6339Z" fill="#FF0036"/>
<path d="M22.3815 0.019165H12.232C11.8475 0.019165 11.4823 0.172945 11.2132 0.442061L6.8176 4.83762C6.21529 5.43992 6.63819 6.47794 7.4968 6.47794H22.3879V0.019165H22.3815Z" fill="#FFC900"/>
<path d="M16.6211 28.8529H1.12772C0.506195 28.8529 0.00640869 28.3532 0.00640869 27.7316V22.3942H21.3563C22.2149 22.3942 22.6442 23.4322 22.0355 24.0345L17.6399 28.43C17.3644 28.7056 16.9991 28.8529 16.6211 28.8529Z" fill="#1904DA"/>
<path d="M0.00640869 22.3942V12.2447C0.00640869 11.8603 0.160189 11.495 0.429305 11.2259L4.82486 6.83036C5.42717 6.22805 6.46519 6.65095 6.46519 7.50955V22.4006L0.00640869 22.3942Z" fill="#08B1D5"/>
<path d="M62.7873 27.4305H49.7928C42.6292 27.4305 36.7984 21.5997 36.7984 14.4361C36.7984 7.27249 42.6292 1.44165 49.7928 1.44165C56.9565 1.44165 62.7873 7.27249 62.7873 14.4361V27.4305V27.4305ZM49.7928 6.72144C45.5383 6.72144 42.0782 10.1815 42.0782 14.4361C42.0782 18.6907 45.5383 22.1507 49.7928 22.1507H57.5075V14.4361C57.5075 10.1815 54.0474 6.72144 49.7928 6.72144Z" fill="#07242D"/>
<path d="M149.981 27.4305H136.986C129.823 27.4305 123.992 21.5997 123.992 14.4361C123.992 7.27249 129.823 1.44165 136.986 1.44165C144.15 1.44165 149.981 7.27249 149.981 14.4361V27.4305ZM136.986 6.72144C132.732 6.72144 129.272 10.1815 129.272 14.4361C129.272 18.6907 132.732 22.1507 136.986 22.1507H144.701V14.4361C144.707 10.1815 141.241 6.72144 136.986 6.72144Z" fill="#07242D"/>
<path d="M107.922 27.4369C100.752 27.4369 94.921 21.6061 94.921 14.4361V2.24255H100.201V14.4361C100.201 18.6907 103.667 22.1571 107.922 22.1571C112.176 22.1571 115.643 18.6907 115.643 14.4361V2.24255H120.923V14.4361C120.923 21.6061 115.092 27.4369 107.922 27.4369Z" fill="#07242D"/>
<path d="M78.8509 1.44165C71.6873 1.44165 65.8565 7.27249 65.8565 14.4361C65.8565 21.5997 71.6873 27.4305 78.8509 27.4305L84.1307 22.1507H78.8509C74.5964 22.1507 71.1363 18.6907 71.1363 14.4361C71.1363 10.1815 74.5964 6.72144 78.8509 6.72144C83.1055 6.72144 86.5656 10.1815 86.5656 14.4361V39.8355H91.8454V14.4361C91.8454 7.27249 86.021 1.44165 78.8509 1.44165Z" fill="#07242D"/>
</g>
<defs>
<clipPath id="clip0_1_2">
<rect width="150" height="39.8548" fill="white"/>
</clipPath>
</defs>
</svg>
