<svg width="208" height="75" viewBox="0 0 208 75" fill="none" xmlns="http://www.w3.org/2000/svg">
<path d="M102.926 41.3087H93.8711C93.802 41.3087 93.7328 41.2741 93.6983 41.2395C93.6637 41.1702 93.6291 41.1356 93.6637 41.0664L98.1914 25.45C98.2259 25.3461 98.3296 25.2769 98.4333 25.3115C98.5024 25.3461 98.5715 25.3808 98.5715 25.45L103.099 41.0664C103.134 41.1356 103.099 41.2049 103.065 41.2395C103.065 41.2741 102.996 41.3087 102.926 41.3087ZM107.143 54.8475H113.019L104.067 23.8918C103.134 20.7755 99.8503 18.9749 96.7397 19.9098C94.8388 20.4639 93.3526 21.9874 92.7651 23.8918L83.8135 54.8475H89.6891L92.2812 45.8794C92.3158 45.7755 92.3849 45.7409 92.4886 45.7409H104.343C104.447 45.7409 104.516 45.8101 104.551 45.8794L107.143 54.8475ZM140.254 37.0844H143.71C143.813 37.0844 143.917 37.1882 143.917 37.2921V49.5151C143.952 52.7353 146.578 55.3323 149.793 55.3323C150.968 55.3323 152.143 55.1591 153.249 54.8475V50.8309C152.592 50.9001 151.866 50.9348 151.313 50.9348C150.346 50.9348 149.585 50.173 149.585 49.2035V37.3267C149.585 37.2229 149.689 37.119 149.793 37.119H153.249V32.6522H149.793C149.689 32.6522 149.585 32.5483 149.585 32.4445V25.1037H143.883V32.4445C143.883 32.5483 143.779 32.6522 143.675 32.6522H140.219L140.254 37.0844ZM172.949 54.8475H178.618V39.5082C178.583 35.4569 175.265 32.1675 171.221 32.2021C168.871 32.2367 166.59 32.9639 164.654 34.245C164.585 34.2796 164.516 34.2796 164.447 34.245C164.378 34.2104 164.343 34.1411 164.343 34.0719V20.1176H158.675V54.8475H164.343V38.2616C164.343 38.1924 164.378 38.1231 164.447 38.0885C165.519 37.5345 167.627 36.6342 169.701 36.6342C170.565 36.6342 171.394 36.9805 172.016 37.5691C172.638 38.1578 172.984 38.9888 172.984 39.8198L172.949 54.8475ZM116.198 32.6522V47.9916C116.233 52.0774 119.551 55.3323 123.595 55.3323C126.221 55.2977 128.744 54.3974 130.818 52.8392C130.887 52.8046 130.956 52.77 131.025 52.8046C131.095 52.8392 131.129 52.8738 131.164 52.9431L131.751 54.8821H136.175V32.6522H130.507V49.2381C130.507 49.3073 130.472 49.3766 130.403 49.4112C129.332 49.9652 127.224 50.8655 125.15 50.8655C123.353 50.8655 121.901 49.4459 121.901 47.6453V32.6522H116.198ZM195.138 50.9001C193.41 50.9001 192.028 49.9306 190.922 47.9223C189.608 45.4985 188.883 41.7935 188.883 37.4999C188.883 33.2062 189.608 29.5013 190.922 27.0774C192.028 25.0691 193.376 24.0996 195.138 24.0996C196.901 24.0996 198.249 25.0691 199.355 27.0774C200.668 29.5013 201.394 33.2062 201.394 37.4999C201.394 41.7935 200.668 45.4985 199.355 47.9223C198.249 49.9306 196.901 50.9001 195.138 50.9001ZM195.138 19.6675C191.509 19.6675 188.399 21.3641 186.221 24.5844C184.044 27.8046 182.903 32.2367 182.903 37.4999C182.903 42.763 184.044 47.1952 186.221 50.4154C188.399 53.6356 191.475 55.3323 195.138 55.3323C198.802 55.3323 201.878 53.6356 204.055 50.4154C206.233 47.1952 207.373 42.763 207.373 37.4999C207.373 32.2367 206.233 27.8046 204.055 24.5844C201.878 21.3641 198.802 19.6675 195.138 19.6675Z" fill="#333333"/>
<path d="M65.3226 23.1648L57.788 0H33.4563L40.9908 23.1648H65.3226ZM33.4563 0H9.15902L1.65902 23.1648H25.9908L33.4563 0ZM1.65902 23.1648C-2.83407 36.9806 2.07376 52.1122 13.8249 60.6648L21.3249 37.5L1.65902 23.1648ZM65.3226 23.1648L45.6222 37.5L53.1222 60.6648C64.8733 52.1468 69.7811 36.9806 65.3226 23.1648ZM13.7904 60.6648L33.4563 75L53.1222 60.6648L33.4563 46.3296L13.7904 60.6648Z" fill="#EB5424"/>
</svg>
