<svg width="44" height="44" viewBox="0 0 44 44" fill="none" xmlns="http://www.w3.org/2000/svg">
<path fill-rule="evenodd" clip-rule="evenodd" d="M41.964 27.98V24.45C40.234 25.392 37.614 25.88 35.006 25.88C32.396 25.88 29.776 25.392 28.046 24.45V27.98C28.046 28.608 30.414 30.081 35.006 30.081C39.596 30.081 41.964 28.608 41.964 27.981V27.98ZM41.964 34.072V30.652C40.234 31.593 37.614 32.082 35.006 32.082C32.396 32.082 29.776 31.593 28.046 30.652V34.072C28.046 34.7 30.414 36.172 35.006 36.172C39.596 36.172 41.964 34.7 41.964 34.072ZM41.964 39.512V36.743C40.234 37.685 37.614 38.173 35.006 38.173C32.396 38.173 29.776 37.685 28.046 36.743V39.511C28.046 40.139 30.414 41.612 35.006 41.612C39.596 41.612 41.964 40.139 41.964 39.512ZM28.047 21.778C28.047 22.406 30.414 23.878 35.006 23.878C39.596 23.878 41.964 22.406 41.964 21.778C41.964 21.15 39.597 19.678 35.006 19.678C30.414 19.678 28.046 21.15 28.046 21.778H28.047ZM43.964 21.778V39.51C43.964 42.203 39.457 43.611 35.006 43.611C30.554 43.611 26.046 42.203 26.046 39.511V21.778C26.046 19.085 30.554 17.678 35.006 17.678C39.456 17.678 43.964 19.085 43.964 21.778ZM2 38.102V5.75C2.00132 4.75584 2.39684 3.80279 3.09981 3.09981C3.80279 2.39684 4.75584 2.00132 5.75 2H38.103C39.0972 2.00132 40.0502 2.39684 40.7532 3.09981C41.4562 3.80279 41.8517 4.75584 41.853 5.75V18.438H43.853V5.75C43.8514 4.22549 43.2451 2.76388 42.1671 1.68589C41.0891 0.6079 39.6275 0.00158831 38.103 0H5.75C4.22549 0.00158831 2.76388 0.6079 1.68589 1.68589C0.6079 2.76388 0.00158831 4.22549 0 5.75V38.102C0.00158831 39.6265 0.6079 41.0881 1.68589 42.1661C2.76388 43.2441 4.22549 43.8504 5.75 43.852H25.414V41.852H5.75C4.75584 41.8507 3.80279 41.4552 3.09981 40.7522C2.39684 40.0492 2.00132 39.0962 2 38.102ZM32.978 6.384V14.24H37.24V12.981H34.566V6.384H32.978ZM30.008 10.306C30.008 9.354 29.884 8.648 29.635 8.187C29.385 7.727 29.003 7.497 28.49 7.497C27.977 7.497 27.595 7.727 27.345 8.187C27.095 8.648 26.972 9.354 26.972 10.307C26.972 11.237 27.099 11.939 27.357 12.415C27.613 12.891 27.991 13.129 28.49 13.129C28.988 13.129 29.366 12.891 29.623 12.415C29.88 11.939 30.009 11.236 30.009 10.306H30.008ZM29.635 14.217C29.869 14.407 30.13 14.553 30.417 14.659C30.704 14.764 31.056 14.841 31.471 14.886V16.178C30.8652 16.0836 30.2814 15.8803 29.748 15.578C29.2089 15.2776 28.7287 14.8819 28.331 14.41C27.379 14.372 26.643 13.997 26.121 13.282C25.6 12.567 25.338 11.577 25.338 10.306C25.338 9.006 25.614 8 26.166 7.286C26.718 6.572 27.492 6.214 28.49 6.214C29.487 6.214 30.262 6.572 30.814 7.286C31.364 8 31.641 9.006 31.641 10.306C31.641 11.319 31.469 12.162 31.125 12.834C30.781 13.507 30.284 13.967 29.635 14.217V14.217ZM21.644 13.139C21.394 13.139 21.094 13.104 20.742 13.032C20.42 12.969 20.1036 12.88 19.796 12.766V13.957C20.036 14.092 20.336 14.203 20.692 14.285C21.047 14.369 21.402 14.41 21.757 14.41C22.572 14.41 23.213 14.201 23.677 13.781C24.143 13.361 24.375 12.792 24.375 12.075C24.375 11.705 24.319 11.389 24.211 11.128C24.0947 10.8574 23.9206 10.6154 23.701 10.419C23.4155 10.1714 23.1017 9.95859 22.766 9.785L22.153 9.456C21.821 9.276 21.597 9.109 21.48 8.958C21.36 8.806 21.304 8.614 21.304 8.379C21.304 8.1 21.394 7.88 21.574 7.722C21.757 7.563 22.006 7.484 22.324 7.484C22.792 7.484 23.332 7.597 23.944 7.824V6.624C23.3879 6.3584 22.7802 6.21843 22.164 6.214C21.689 6.214 21.268 6.307 20.902 6.492C20.534 6.677 20.245 6.942 20.032 7.286C19.822 7.629 19.717 8.032 19.717 8.493C19.717 8.993 19.837 9.415 20.079 9.763C20.321 10.11 20.722 10.435 21.279 10.737L21.893 11.065C22.203 11.232 22.425 11.397 22.556 11.559C22.6909 11.7274 22.7615 11.9383 22.755 12.154C22.755 12.472 22.659 12.715 22.471 12.885C22.281 13.055 22.006 13.139 21.644 13.139V13.139ZM15.817 15.316C15.674 15.467 15.457 15.543 15.171 15.543C15.011 15.543 14.831 15.528 14.626 15.499V16.541C14.966 16.655 15.299 16.711 15.624 16.711C16.054 16.711 16.402 16.586 16.666 16.336C16.932 16.087 17.144 15.683 17.302 15.124L19.218 8.448H17.618L16.768 12.709L15.897 8.449H14.252L16.122 14.353L16.101 14.556C16.055 14.913 15.961 15.166 15.817 15.316V15.316ZM12.02 14.24V8.731L10.694 12.301H9.344L8.029 8.765V14.24H6.612V6.384H8.427L10.047 10.784L11.667 6.384H13.437V14.24H12.02V14.24Z" fill="#2E27AD"/>
</svg>
