<svg width="40" height="40" viewBox="0 0 40 40" fill="none" xmlns="http://www.w3.org/2000/svg">
<rect width="40" height="40" fill="white"/>
<mask id="path-1-inside-1_1_552" fill="white">
<rect y="1" width="40" height="39" rx="0.25"/>
</mask>
<rect y="1" width="40" height="39" rx="0.25" fill="white" stroke="#202124" stroke-width="2" mask="url(#path-1-inside-1_1_552)"/>
<path d="M12.3207 18.1255C12.3207 18.5397 12.3675 18.8756 12.4494 19.1217C12.5429 19.368 12.6597 19.6367 12.8235 19.9277C12.8821 20.0172 12.9054 20.1066 12.9054 20.1851C12.9054 20.2969 12.8351 20.4088 12.6831 20.5207L11.9464 20.9908C11.8413 21.058 11.736 21.0917 11.6423 21.0917C11.5255 21.0917 11.4086 21.0357 11.2915 20.9349C11.1279 20.767 10.9875 20.5879 10.8706 20.4088C10.7535 20.2187 10.6367 20.0059 10.508 19.7486C9.59586 20.7783 8.44982 21.2931 7.06986 21.2931C6.08755 21.2931 5.30402 21.0244 4.73099 20.4871C4.15796 19.95 3.8656 19.2336 3.8656 18.3382C3.8656 17.3868 4.21643 16.6146 4.9298 16.0326C5.64315 15.4506 6.5904 15.1596 7.79492 15.1596C8.19254 15.1596 8.60184 15.193 9.03454 15.2492C9.46723 15.3051 9.91153 15.3947 10.3794 15.4953V14.6782C10.3794 13.8276 10.1922 13.2343 9.82983 12.8874C9.45552 12.5404 8.82404 12.3726 7.92357 12.3726C7.51427 12.3726 7.09326 12.4173 6.66056 12.5181C6.22787 12.6187 5.80688 12.7419 5.39758 12.8986C5.21045 12.9769 5.07014 13.0218 4.98827 13.0441C4.90641 13.0665 4.84794 13.0777 4.80115 13.0777C4.63744 13.0777 4.55558 12.9658 4.55558 12.7308V12.1822C4.55558 12.0033 4.57897 11.8689 4.63744 11.7906C4.69591 11.7121 4.80115 11.6338 4.96488 11.5555C5.37418 11.3541 5.86535 11.1861 6.43838 11.0518C7.01139 10.9063 7.6195 10.8391 8.26269 10.8391C9.65444 10.8391 10.6718 11.1414 11.3267 11.7457C11.9697 12.3502 12.2974 13.2679 12.2974 14.4991V18.1255H12.3207ZM7.57274 19.8268C7.95865 19.8268 8.35626 19.7596 8.77725 19.6254C9.19824 19.4912 9.57247 19.2448 9.88816 18.909C10.0753 18.6965 10.2156 18.4614 10.2859 18.1927C10.356 17.9241 10.4028 17.5995 10.4028 17.2189V16.7488C10.0636 16.6705 9.70118 16.6033 9.32689 16.5586C8.95267 16.5138 8.59015 16.4914 8.22762 16.4914C7.44409 16.4914 6.87106 16.6369 6.48515 16.9392C6.09924 17.2413 5.91211 17.6667 5.91211 18.2264C5.91211 18.7524 6.05245 19.144 6.34481 19.4127C6.62548 19.6926 7.03479 19.8268 7.57274 19.8268ZM16.9633 21.0357C16.7528 21.0357 16.6125 21.0021 16.519 20.9238C16.4253 20.8566 16.3436 20.6998 16.2733 20.4871L13.5251 11.8353C13.455 11.6115 13.4198 11.466 13.4198 11.3877C13.4198 11.2086 13.5135 11.1078 13.7005 11.1078H14.8466C15.0689 11.1078 15.2209 11.1414 15.3026 11.2197C15.3963 11.2869 15.4665 11.4436 15.5366 11.6562L17.5013 19.0657L19.3256 11.6562C19.3841 11.4324 19.4542 11.2869 19.5479 11.2197C19.6414 11.1526 19.805 11.1078 20.0156 11.1078H20.9511C21.1734 11.1078 21.3254 11.1414 21.4189 11.2197C21.5124 11.2869 21.5943 11.4436 21.6411 11.6562L23.4889 19.1553L25.5119 11.6562C25.5821 11.4324 25.664 11.2869 25.7459 11.2197C25.8394 11.1526 25.9914 11.1078 26.2019 11.1078H27.2895C27.4767 11.1078 27.5819 11.1973 27.5819 11.3877C27.5819 11.4436 27.5701 11.4996 27.5586 11.5666C27.5468 11.6338 27.5234 11.7234 27.4767 11.8465L24.6583 20.4984C24.588 20.7222 24.5063 20.8677 24.4126 20.9349C24.3191 21.0021 24.1671 21.0468 23.9683 21.0468H22.9625C22.7404 21.0468 22.5884 21.0132 22.4949 20.9349C22.4012 20.8566 22.3195 20.7111 22.2725 20.4871L20.46 13.2679L18.6589 20.4761C18.6006 20.6998 18.5305 20.8453 18.4368 20.9238C18.3433 21.0021 18.1795 21.0357 17.9691 21.0357H16.9633ZM31.9906 21.3378C31.3825 21.3378 30.7744 21.2708 30.1897 21.1363C29.605 21.0021 29.1489 20.8566 28.8449 20.6888C28.6577 20.5879 28.529 20.4761 28.4823 20.3752C28.4355 20.2746 28.4122 20.1627 28.4122 20.0619V19.4912C28.4122 19.2561 28.5057 19.144 28.6811 19.144C28.7514 19.144 28.8215 19.1553 28.8916 19.1776C28.9617 19.2 29.067 19.2448 29.1841 19.2895C29.5816 19.4576 30.0143 19.5918 30.4704 19.6813C30.9382 19.7709 31.3943 19.8156 31.8619 19.8156C32.5987 19.8156 33.1718 19.6926 33.5694 19.4463C33.9671 19.2 34.1774 18.842 34.1774 18.3829C34.1774 18.0696 34.0722 17.8122 33.8618 17.5995C33.6513 17.3868 33.2537 17.1966 32.6806 17.0175L30.985 16.5138C30.1312 16.2564 29.4997 15.8758 29.1137 15.3721C28.728 14.8797 28.529 14.3313 28.529 13.7493C28.529 13.2792 28.6343 12.865 28.8449 12.5068C29.0554 12.1488 29.3361 11.8353 29.6869 11.5891C30.0377 11.3316 30.4352 11.1414 30.9031 11.0071C31.3709 10.8727 31.8619 10.8168 32.3765 10.8168C32.6338 10.8168 32.9027 10.828 33.16 10.8616C33.4291 10.8951 33.6746 10.9399 33.9201 10.9846C34.1541 11.0406 34.3764 11.0965 34.5868 11.1637C34.7973 11.2309 34.9611 11.2981 35.078 11.3652C35.2416 11.4547 35.3587 11.5443 35.4288 11.6451C35.4989 11.7346 35.5341 11.8576 35.5341 12.0144V12.5404C35.5341 12.7755 35.4406 12.8986 35.2652 12.8986C35.1715 12.8986 35.0195 12.8538 34.8207 12.7642C34.1541 12.4732 33.4057 12.3277 32.5753 12.3277C31.9089 12.3277 31.3825 12.4285 31.0199 12.6412C30.6575 12.8538 30.4704 13.1784 30.4704 13.6374C30.4704 13.9507 30.5872 14.2194 30.8212 14.4319C31.0551 14.6446 31.4878 14.8573 32.1077 15.0475L33.7681 15.5512C34.6101 15.8086 35.2182 16.1668 35.5808 16.6257C35.9434 17.0847 36.1188 17.6107 36.1188 18.1927C36.1188 18.6739 36.0135 19.1106 35.8147 19.4912C35.6042 19.8717 35.3235 20.2074 34.9611 20.4761C34.5986 20.7558 34.1659 20.9572 33.663 21.1027C33.1367 21.2595 32.5871 21.3378 31.9906 21.3378Z" fill="#252F3E"/>
<path fill-rule="evenodd" clip-rule="evenodd" d="M34.2008 26.7774C30.3535 29.4972 24.7634 30.9411 19.957 30.9411C13.2211 30.9411 7.15173 28.5572 2.56751 24.5949C2.20499 24.2816 2.53243 23.8561 2.96513 24.1024C7.92354 26.8559 14.0397 28.5236 20.3663 28.5236C24.6348 28.5236 29.3243 27.6729 33.6395 25.9267C34.2827 25.647 34.8325 26.3298 34.2008 26.7774Z" fill="#FF9900"/>
<path fill-rule="evenodd" clip-rule="evenodd" d="M35.803 25.0314C35.312 24.427 32.552 24.7404 31.3007 24.8859C30.9265 24.9305 30.868 24.6172 31.2072 24.3822C33.4058 22.9048 37.0194 23.3301 37.4403 23.8225C37.8612 24.3262 37.3235 27.7848 35.2653 29.4412C34.9494 29.6986 34.6454 29.5644 34.7856 29.2287C35.2535 28.1205 36.2943 25.6246 35.803 25.0314Z" fill="#FF9900"/>
<path d="M0 0.25C0 0.111929 0.111929 0 0.25 0H39.75C39.8881 0 40 0.111929 40 0.25V2.75H0V0.25Z" fill="#202124"/>
<circle cx="1.11438" cy="1.35449" r="0.35" fill="#FF6058" stroke="#E14942" stroke-width="0.05"/>
<circle cx="2.2644" cy="1.35449" r="0.35" fill="#FFC130" stroke="#E1A325" stroke-width="0.05"/>
<circle cx="3.41443" cy="1.35449" r="0.35" fill="#27CA40" stroke="#3EAF3F" stroke-width="0.05"/>
</svg>
