<svg width="1306" height="2500" viewBox="0 0 1306 2500" fill="none" xmlns="http://www.w3.org/2000/svg">
<g clip-path="url(#clip0_2_2)">
<path d="M107.133 845.701L0 880.677L110.959 893.528L107.133 845.701ZM101.802 1055.15L653 1090.39L1204.2 1055.15L653 947.732L101.802 1055.15ZM1196.32 893.528L1306 880.677L1196.32 851.44V893.528Z" fill="#3C4929"/>
<path d="M802.92 1800.61L1091.7 1868.95L802.154 1956.27L802.92 1800.61Z" fill="#B7CA9D"/>
<path d="M101.802 470.588V275.698L653 0.117188L655.459 2.18332L654.194 249.589L653 250.109L650.934 255.807L349.442 377.51L346.677 806.23L507.131 779.243L653 750.057V2500.04L487.868 2417.51V2184L343.218 2126.16V1030.98L101.802 1055.15V860.297L0 880.677V511.284L101.802 470.588" fill="#4B612C"/>
<path d="M507.136 779.264L343.218 812.036V373.96L507.136 425.067V779.264ZM938.305 142.752L1204.13 275.698V470.588L1306 511.284V880.647L1204.13 860.297V1055.15L1074.34 1042.2L962.711 1030.98V1250.04H1204.2V1450.45L1091.98 1460.52V1662.6L818.066 1717.04V1950.54L1091.36 1869.43L1091.98 2075.43L818.066 2184V2417.51L653 2500.04V750.057L798.762 779.187L954.783 799.787V377.459L657.168 262.684L653 250.109V0.117188L938.305 142.752Z" fill="#759C3E"/>
<path d="M818.066 316.113L653 250.145L343.218 373.96L507.136 425.067L818.066 316.113Z" fill="#3C4929"/>
<path d="M343.218 373.96L653 250.145L718.172 276.183L818.066 316.113L962.711 374.031L954.982 381.893L807.669 427.761L798.792 425.067L653 373.96L507.136 425.067L343.218 373.96Z" fill="#3C4929"/>
<path d="M798.792 425.067L962.711 374.031V812.072L798.792 779.187V425.067Z" fill="#4B612C"/>
</g>
<defs>
<clipPath id="clip0_2_2">
<rect width="1306" height="2500" fill="white"/>
</clipPath>
</defs>
</svg>
