<svg width="269" height="71" viewBox="0 0 269 71" fill="none" xmlns="http://www.w3.org/2000/svg">
<g clip-path="url(#clip0)">
<path d="M34.9988 70.4218C33.2741 70.4009 31.6584 69.7092 30.4567 68.4737L2.26134 39.5855C1.07345 38.3683 0.404913 36.6983 0.425597 34.9974C0.446264 33.2979 1.15524 31.6432 2.37236 30.4568L31.2619 2.26276C32.4961 1.05688 34.1253 0.404643 35.85 0.425616C37.5733 0.446573 39.1876 1.13825 40.3921 2.37379L68.5833 31.2619C69.7906 32.4919 70.4414 34.1225 70.4204 35.8486C70.3994 37.5747 69.7091 39.189 68.4708 40.3934L39.5869 68.5847C38.3541 69.7906 36.7221 70.4428 34.9988 70.4218Z" fill="#59B4D9"/>
<path d="M54.5477 30.1854C51.5239 30.1486 49.0443 32.5686 49.0076 35.591C48.9941 36.6997 49.3162 37.7327 49.874 38.602L38.9014 49.3109C38.6155 49.1058 38.3081 48.9341 37.9894 48.7776L38.3258 21.1198C39.9709 20.1934 41.1037 18.4598 41.1283 16.4356C41.1651 13.4132 38.7451 10.9336 35.7213 10.8968C32.7003 10.8601 30.2207 13.2801 30.1839 16.3025C30.1593 18.3267 31.2496 20.0873 32.8704 21.0535L32.534 48.7099C32.2257 48.8517 31.9228 49.0049 31.6433 49.1933L20.9219 38.2079C21.4838 37.3607 21.8237 36.3525 21.837 35.2606C21.8737 32.2382 19.4537 29.7586 16.4327 29.7219C13.409 29.6851 10.9293 32.1051 10.8926 35.1275C10.8558 38.1499 13.2759 40.6295 16.2996 40.6663C16.9268 40.6739 17.5219 40.5537 18.087 40.366L29.3574 51.9139C29.0205 52.677 28.8283 53.5176 28.8175 54.4037C28.7747 57.9216 31.593 60.8093 35.111 60.8521C38.6303 60.8949 41.5166 58.0766 41.5594 54.5586C41.57 53.6893 41.4036 52.8598 41.0978 52.1014L52.6783 40.8006C53.2248 40.9921 53.8001 41.1223 54.4118 41.1297C57.4328 41.1665 59.9124 38.7464 59.9492 35.7241C59.9859 32.7017 57.5673 30.2221 54.5477 30.1854Z" fill="white"/>
<path opacity="0.5" d="M54.554 38.1307L57.0814 35.6632L36.8609 14.9507L34.3334 17.4181L54.554 38.1307Z" fill="white"/>
<path opacity="0.5" d="M36.9718 17.467L34.5038 14.9382L13.7874 35.1568L16.2555 37.6856L36.9718 17.467Z" fill="white"/>
<path d="M38.922 54.5266C38.8965 56.6208 37.1764 58.2982 35.0821 58.2728C32.9865 58.2473 31.3105 56.5286 31.3359 54.4343C31.3614 52.3401 33.0787 50.6626 35.1744 50.6881C37.2672 50.7136 38.9474 52.4323 38.922 54.5266Z" fill="#B8D432"/>
<path d="M38.6981 16.406C38.6777 18.0873 37.299 19.4328 35.6177 19.4124C33.9364 19.392 32.5909 18.0133 32.6114 16.332C32.6318 14.6507 34.0105 13.3052 35.6917 13.3256C37.373 13.3461 38.7185 14.7248 38.6981 16.406Z" fill="#B8D432"/>
<path d="M19.4124 35.2297C19.3919 36.911 18.0105 38.2565 16.332 38.2361C14.6507 38.2156 13.3052 36.837 13.3256 35.1557C13.3461 33.4744 14.7247 32.1289 16.406 32.1493C18.0845 32.1697 19.4328 33.5484 19.4124 35.2297Z" fill="#B8D432"/>
<path d="M57.5246 35.6932C57.5041 37.3745 56.1227 38.72 54.4428 38.6995C52.7629 38.6791 51.416 37.3004 51.4364 35.6191C51.4569 33.9379 52.8369 32.5924 54.5168 32.6128C56.1967 32.6332 57.545 34.0119 57.5246 35.6932Z" fill="#B8D432"/>
<path opacity="0.1" d="M40.3921 2.37379C39.1876 1.13825 37.5747 0.44659 35.85 0.425616C34.1267 0.40466 32.4975 1.0569 31.2633 2.26278L2.37376 30.4568C1.15524 31.6432 0.446264 33.2979 0.425597 34.9974C0.404913 36.6983 1.07344 38.3697 2.26274 39.5855L18.2252 55.9424L49.1705 11.367L40.3921 2.37379Z" fill="white"/>
</g>
<path d="M103.915 30.2884L101.009 30.253L98.7101 23.9434L89.2108 23.8278L86.9002 30.0815L83.9786 30.0459L92.8441 7.74583L95.5627 7.77889L103.915 30.2884ZM97.8795 21.5737L94.4802 11.9848C94.3694 11.6709 94.261 11.1696 94.1547 10.4807L94.0922 10.48C93.9804 11.1141 93.8545 11.6126 93.7147 11.9755L90.1144 21.4793L97.8795 21.5737ZM118.224 15.1956L108.597 28.1576L117.971 28.2716L117.945 30.459L104.805 30.2992L104.815 29.5024L114.441 16.6029L105.864 16.4985L105.89 14.3112L118.233 14.4613L118.224 15.1956ZM134.287 30.6577L131.725 30.6266L131.756 28.0955L131.693 28.0947C130.607 30.0192 128.95 30.9678 126.721 30.9407C122.909 30.8944 121.03 28.6005 121.085 24.0592L121.202 14.4974L123.748 14.5284L123.637 23.6839C123.596 27.0587 124.867 28.7618 127.45 28.7932C128.7 28.8084 129.732 28.3626 130.545 27.4557C131.368 26.5386 131.789 25.3353 131.808 23.8458L131.92 14.6277L134.482 14.6589L134.287 30.6577ZM147.981 17.417C147.537 17.0678 146.893 16.8881 146.05 16.8779C144.956 16.8646 144.033 17.369 143.281 18.3912C142.539 19.4135 142.158 20.8152 142.136 22.5963L142.037 30.752L139.474 30.7208L139.669 14.722L142.231 14.7531L142.191 18.0498L142.254 18.0505C142.632 16.93 143.2 16.0619 143.957 15.4461C144.715 14.8198 145.557 14.5123 146.484 14.5236C147.151 14.5317 147.661 14.6108 148.013 14.7609L147.981 17.417ZM163.547 23.6536L152.251 23.5162C152.271 25.2979 152.733 26.6786 153.638 27.6584C154.543 28.6382 155.797 29.1379 157.401 29.1574C159.203 29.1793 160.866 28.6058 162.391 27.4367L162.362 29.8428C160.943 30.8465 159.078 31.3342 156.766 31.3061C154.505 31.2786 152.738 30.5331 151.464 29.0696C150.19 27.5957 149.569 25.5411 149.601 22.9059C149.632 20.4165 150.359 18.3991 151.785 16.8538C153.22 15.2983 154.985 14.5332 157.079 14.5587C159.172 14.5841 160.784 15.2809 161.913 16.6489C163.042 18.0169 163.592 19.9039 163.563 22.31L163.547 23.6536ZM160.948 21.45C160.956 19.9708 160.61 18.8155 159.912 17.984C159.224 17.1527 158.255 16.7294 157.005 16.7142C155.797 16.6995 154.766 17.1193 153.912 17.9735C153.058 18.8278 152.523 19.9516 152.308 21.3449L160.948 21.45ZM193.814 31.3816L190.908 31.3463L188.61 25.0366L179.11 24.9211L176.8 31.1747L173.878 31.1392L182.744 8.83908L185.462 8.87214L193.814 31.3816ZM187.779 22.667L184.38 13.078C184.269 12.7642 184.161 12.2628 184.054 11.574L183.992 11.5732C183.88 12.2073 183.754 12.7058 183.614 13.0687L180.014 22.5725L187.779 22.667ZM207.697 30.816C206.459 31.5406 204.996 31.8926 203.309 31.8721C201.028 31.8444 199.193 31.0824 197.805 29.5863C196.427 28.0798 195.753 26.1444 195.782 23.78C195.814 21.1448 196.595 19.0395 198.124 17.4643C199.654 15.8786 201.679 15.1011 204.2 15.1317C205.606 15.1488 206.843 15.4243 207.909 15.9581L207.877 18.5829C206.7 17.7352 205.434 17.3031 204.08 17.2867C202.445 17.2668 201.094 17.8389 200.028 19.0031C198.972 20.157 198.432 21.6871 198.409 23.5932C198.386 25.468 198.858 26.953 199.824 28.0482C200.8 29.1435 202.117 29.7012 203.773 29.7213C205.168 29.7383 206.486 29.2908 207.727 28.3787L207.697 30.816ZM218.986 31.5315C218.378 31.8574 217.579 32.0144 216.59 32.0024C213.788 31.9683 212.406 30.3889 212.444 27.2641L212.559 17.796L209.809 17.7626L209.836 15.5753L212.586 15.6087L212.633 11.7027L215.205 10.9058L215.148 15.6399L219.179 15.6889L219.152 17.8762L215.121 17.8272L215.012 26.8422C214.999 27.915 215.172 28.6828 215.531 29.1455C215.889 29.6083 216.491 29.8448 217.335 29.855C217.98 29.8629 218.54 29.6926 219.013 29.3441L218.986 31.5315ZM223.962 11.6843C223.504 11.6787 223.115 11.5177 222.796 11.2013C222.477 10.8849 222.32 10.4871 222.326 10.008C222.332 9.52886 222.498 9.13502 222.825 8.82647C223.152 8.5075 223.544 8.35081 224.003 8.35638C224.471 8.36208 224.865 8.52834 225.184 8.85516C225.514 9.17169 225.676 9.56952 225.67 10.0487C225.664 10.507 225.493 10.8955 225.156 11.2144C224.829 11.5333 224.431 11.69 223.962 11.6843ZM224.968 31.7605L222.406 31.7293L222.6 15.7305L225.163 15.7617L224.968 31.7605ZM242.927 15.9777L236.358 31.899L233.842 31.8684L227.975 15.7959L230.787 15.8301L234.708 27.5036C235 28.3614 235.178 29.1084 235.243 29.7447L235.306 29.7454C235.42 28.9447 235.595 28.2228 235.832 27.5798L240.224 15.9448L242.927 15.9777ZM258.446 24.8077L247.15 24.6703C247.17 26.4519 247.632 27.8327 248.537 28.8125C249.442 29.7923 250.696 30.292 252.3 30.3115C254.102 30.3334 255.766 29.7598 257.29 28.5908L257.261 30.9969C255.843 32.0005 253.977 32.4883 251.665 32.4602C249.404 32.4327 247.637 31.6872 246.363 30.2237C245.09 28.7497 244.469 26.6951 244.501 24.0599C244.531 21.5705 245.259 19.5532 246.684 18.0079C248.12 16.4523 249.884 15.6873 251.978 15.7127C254.071 15.7382 255.683 16.4349 256.812 17.8029C257.941 19.1709 258.491 21.058 258.462 23.464L258.446 24.8077ZM255.847 22.604C255.855 21.1249 255.51 19.9695 254.811 19.1381C254.123 18.3067 253.155 17.8834 251.905 17.8682C250.696 17.8536 249.665 18.2733 248.811 19.1276C247.957 19.9819 247.422 21.1056 247.207 22.499L255.847 22.604ZM86.183 62.0751L86.4555 39.6705L92.6425 39.7457C100.538 39.8418 104.441 43.5301 104.353 50.8108C104.311 54.2689 103.178 57.0366 100.954 59.1139C98.7417 61.1809 95.7969 62.192 92.1201 62.1473L86.183 62.0751ZM89.0514 42.0772L88.8367 59.7322L92.1802 59.7729C95.1175 59.8086 97.4133 59.05 99.0678 57.4971C100.722 55.9441 101.567 53.7251 101.602 50.8399C101.672 45.1007 98.6549 42.194 92.5511 42.1198L89.0514 42.0772ZM109.831 42.2987C109.373 42.2931 108.984 42.1321 108.665 41.8157C108.346 41.4993 108.19 41.1016 108.196 40.6224C108.201 40.1433 108.368 39.7495 108.694 39.4409C109.021 39.1219 109.414 38.9652 109.872 38.9708C110.341 38.9765 110.735 39.1428 111.053 39.4696C111.383 39.7861 111.545 40.184 111.539 40.6631C111.533 41.1214 111.362 41.51 111.025 41.8288C110.698 42.1478 110.3 42.3044 109.831 42.2987ZM110.837 62.3749L108.275 62.3438L108.47 46.3449L111.032 46.3761L110.837 62.3749ZM124.531 49.1342C124.087 48.785 123.443 48.6053 122.6 48.595C121.506 48.5817 120.583 49.0862 119.831 50.1084C119.089 51.1307 118.708 52.5324 118.686 54.3135L118.587 62.4692L116.025 62.438L116.219 46.4392L118.781 46.4703L118.741 49.767L118.804 49.7677C119.182 48.6472 119.75 47.7791 120.508 47.1633C121.265 46.537 122.108 46.2295 123.035 46.2408C123.701 46.2489 124.211 46.328 124.563 46.4781L124.531 49.1342ZM140.097 55.3708L128.801 55.2334C128.821 57.0151 129.283 58.3958 130.188 59.3756C131.093 60.3554 132.347 60.8551 133.951 60.8746C135.753 60.8965 137.416 60.323 138.941 59.1539L138.912 61.56C137.493 62.5636 135.628 63.0514 133.316 63.0233C131.055 62.9958 129.288 62.2503 128.014 60.7868C126.74 59.3129 126.12 57.2583 126.152 54.6231C126.182 52.1337 126.91 50.1163 128.335 48.571C129.77 47.0155 131.535 46.2504 133.629 46.2759C135.722 46.3013 137.334 46.9981 138.463 48.3661C139.592 49.7341 140.142 51.6211 140.113 54.0272L140.097 55.3708ZM137.498 53.1672C137.506 51.688 137.16 50.5327 136.462 49.7012C135.774 48.8699 134.805 48.4466 133.556 48.4314C132.347 48.4167 131.316 48.8365 130.462 49.6907C129.608 50.545 129.073 51.6688 128.858 53.0621L137.498 53.1672ZM154.812 62.1753C153.574 62.8998 152.111 63.2519 150.424 63.2313C148.143 63.2036 146.308 62.4417 144.92 60.9455C143.542 59.4391 142.868 57.5036 142.897 55.1392C142.929 52.504 143.709 50.3988 145.239 48.8235C146.769 47.2378 148.794 46.4603 151.315 46.4909C152.721 46.508 153.957 46.7835 155.024 47.3174L154.992 49.9422C153.815 49.0945 152.549 48.6624 151.195 48.6459C149.56 48.626 148.209 49.1982 147.142 50.3624C146.087 51.5163 145.547 53.0463 145.524 54.9524C145.501 56.8273 145.973 58.3123 146.939 59.4074C147.915 60.5027 149.231 61.0604 150.887 61.0806C152.283 61.0975 153.601 60.65 154.842 59.7379L154.812 62.1753ZM166.101 62.8907C165.493 63.2167 164.694 63.3736 163.704 63.3616C160.902 63.3275 159.521 61.7481 159.559 58.6233L159.674 49.1553L156.924 49.1218L156.95 46.9345L159.7 46.9679L159.748 43.062L162.32 42.2651L162.263 46.9991L166.294 47.0481L166.267 49.2355L162.236 49.1864L162.126 58.2014C162.113 59.2742 162.286 60.042 162.645 60.5048C163.004 60.9675 163.606 61.204 164.449 61.2142C165.095 61.2221 165.654 61.0518 166.127 60.7034L166.101 62.8907ZM176.203 63.5448C173.839 63.5161 171.957 62.7484 170.559 61.2417C169.171 59.7247 168.492 57.7319 168.522 55.2633C168.555 52.576 169.314 50.4862 170.801 48.9937C172.288 47.5013 174.282 46.7702 176.782 46.8006C179.167 46.8297 181.017 47.5866 182.333 49.0714C183.658 50.5564 184.305 52.6009 184.274 55.2049C184.243 57.7568 183.494 59.7947 182.027 61.3186C180.571 62.8323 178.63 63.5744 176.203 63.5448ZM176.568 48.9545C174.922 48.9344 173.613 49.4811 172.642 50.5943C171.67 51.6972 171.172 53.2329 171.148 55.2015C171.125 57.0972 171.591 58.5978 172.546 59.7032C173.502 60.8087 174.792 61.3713 176.417 61.391C178.073 61.4112 179.35 60.8902 180.249 59.8281C181.157 58.7662 181.624 57.2457 181.648 55.2667C181.672 53.2668 181.243 51.7198 180.36 50.6257C179.488 49.5317 178.224 48.9746 176.568 48.9545ZM196.775 50.0128C196.332 49.6636 195.688 49.4839 194.844 49.4736C193.751 49.4603 192.828 49.9647 192.076 50.9869C191.334 52.0092 190.952 53.4109 190.931 55.1921L190.832 63.3477L188.269 63.3166L188.464 47.3177L191.026 47.3489L190.986 50.6455L191.048 50.6463C191.427 49.5258 191.995 48.6576 192.752 48.0418C193.51 47.4156 194.352 47.1081 195.279 47.1193C195.946 47.1275 196.455 47.2066 196.808 47.3567L196.775 50.0128ZM212.321 47.6079L204.737 66.0795C203.384 69.3758 201.52 71.0095 199.146 70.9806C198.479 70.9725 197.923 70.898 197.476 70.7572L197.504 68.4605C198.054 68.6547 198.558 68.7546 199.016 68.7601C200.308 68.7758 201.286 68.0169 201.95 66.4832L203.268 63.4677L197.213 47.4241L200.057 47.4587L204.235 59.8229C204.285 59.9798 204.389 60.3874 204.548 61.0456L204.642 61.0467C204.697 60.7974 204.806 60.4028 204.969 59.8631L209.665 47.5756L212.321 47.6079Z" fill="#4E9AB9"/>
<defs>
<clipPath id="clip0">
<rect x="0.851196" width="70" height="70" transform="rotate(0.696732 0.851196 0)" fill="white"/>
</clipPath>
</defs>
</svg>
