<?xml version="1.0" encoding="utf-8"?>
<!-- Generator: Adobe Illustrator 24.1.2, SVG Export Plug-In . SVG Version: 6.00 Build 0)  -->
<svg version="1.1" id="Layer_1" xmlns="http://www.w3.org/2000/svg" xmlns:xlink="http://www.w3.org/1999/xlink" x="0px" y="0px"
	 viewBox="0 0 452.7 78.5" style="enable-background:new 0 0 452.7 78.5;" xml:space="preserve">
<style type="text/css">
	.st0{fill-rule:evenodd;clip-rule:evenodd;fill:#2FBF71;}
</style>
<g>
	<path d="M131.5,43.2L131.5,43.2h-5.2c-0.3,0-0.5,0.2-0.6,0.4c-1,3.4-3.6,5.3-7.6,5.3c-5.3,0-8.6-4-8.6-10.3
		c0-6.3,3.3-10.2,8.6-10.2c3.9,0,6.7,1.9,7.6,5.3c0.1,0.2,0.3,0.4,0.6,0.4h5.2c0.2,0,0.3-0.1,0.5-0.2c0.1-0.1,0.1-0.3,0.1-0.5
		c-1.6-6.5-6.6-10.2-13.9-10.2c-8.8,0-14.7,6.2-14.7,15.4c0,9.3,5.9,15.5,14.7,15.5c7.1,0,12.2-3.8,13.9-10.1c0-0.1,0-0.1,0-0.2
		C132,43.5,131.8,43.2,131.5,43.2z"/>
	<path d="M150.7,23.1c-3.7,0-6.9,1.3-9,3.5V14.1c0-0.3-0.3-0.6-0.6-0.6h-4.8c-0.3,0-0.6,0.3-0.6,0.6v39c0,0.3,0.3,0.6,0.6,0.6h4.8
		c0.3,0,0.6-0.3,0.6-0.6v-16c0-5.5,2.8-8.7,7.7-8.7c4.8,0,7.5,3,7.5,8.3V53c0,0.3,0.3,0.6,0.6,0.6h4.7c0.3,0,0.6-0.3,0.6-0.6V36
		C162.9,28.1,158.1,23.1,150.7,23.1z"/>
	<path d="M182.7,23.1c-3.8,0-6.8,1.3-8.8,3.8v-2.7c0-0.3-0.3-0.6-0.6-0.6h-4.8c-0.3,0-0.6,0.3-0.6,0.6V53c0,0.3,0.3,0.6,0.6,0.6h4.8
		c0.3,0,0.6-0.3,0.6-0.6c0-0.1,0-0.1,0-0.2V37.3c0-5.6,2.4-8.2,7.5-8.2h1.3c0.3,0,0.6-0.3,0.6-0.6v-5
		C183.2,23.3,183,23.1,182.7,23.1z"/>
	<path d="M199.1,23.1c-8.9,0-15.2,6.3-15.2,15.4c0,9.2,6.2,15.5,15,15.5c8.9,0,15.4-6.5,15.4-15.5C214.3,29.4,208.1,23.1,199.1,23.1
		z M208.3,38.6c0,7-4.7,10.2-9.4,10.2c-2.4,0-4.6-0.9-6.2-2.4c-1.8-1.8-2.7-4.5-2.7-7.7c0-4.7,2.4-10.1,9.1-10.1
		C203.6,28.4,208.3,31.6,208.3,38.6z"/>
	<path d="M232.7,23.1c-3.6,0-6.6,1.3-8.7,3.5v-2.4c0-0.3-0.3-0.6-0.6-0.6h-4.8c-0.3,0-0.6,0.3-0.6,0.6V53c0,0.3,0.3,0.6,0.6,0.6h4.8
		c0.3,0,0.6-0.3,0.6-0.6v-16c0-5.5,2.8-8.7,7.7-8.7c4.8,0,7.5,3,7.5,8.3V53c0,0.3,0.3,0.6,0.6,0.6h4.7c0.3,0,0.6-0.3,0.6-0.6V36
		C245.1,28,240.4,23.1,232.7,23.1z"/>
	<path d="M264.1,23.1c-8.9,0-15.2,6.3-15.2,15.4c0,9.2,6.2,15.5,15,15.5c8.9,0,15.4-6.5,15.4-15.5C279.3,29.4,273,23.1,264.1,23.1z
		 M264,28.4c4.6,0,9.2,3.1,9.2,10.1c0,7-4.7,10.2-9.4,10.2c-2.4,0-4.6-0.9-6.2-2.4c-1.8-1.8-2.7-4.5-2.7-7.7
		C254.9,33.9,257.3,28.4,264,28.4z"/>
	<path d="M295.3,36.2c-3.6-1-6.7-1.9-6.7-4.5c0-2.1,2-3.4,5.1-3.4c3.3,0,5.5,1.7,5.7,4.5c0,0.3,0.3,0.5,0.6,0.5h4.8
		c0.2,0,0.3-0.1,0.4-0.2c0.1-0.1,0.2-0.3,0.2-0.4c-0.3-5.9-4.7-9.6-11.5-9.6c-6.5,0-11.2,3.6-11.2,8.6c0,6.5,5.9,8.1,10.6,9.3
		c3.5,0.9,6.5,1.7,6.5,4.1c0,2.2-2.1,3.7-5.3,3.7c-3.5,0-6-1.7-6.2-4.4c0-0.3-0.3-0.5-0.6-0.5h-5c-0.2,0-0.3,0.1-0.4,0.2
		c-0.1,0.1-0.2,0.3-0.2,0.4c0.3,5.6,5.4,9.5,12.4,9.5c6.5,0,11.1-3.7,11.2-8.9C305.4,39,299.8,37.5,295.3,36.2z"/>
	<path d="M325.5,23.1c-4.8,0-8.2,2.1-10.2,4.6v-3.5c0-0.3-0.3-0.6-0.6-0.6h-4.8c-0.3,0-0.6,0.3-0.6,0.6v42.6c0,0.3,0.3,0.6,0.6,0.6
		h4.8c0.3,0,0.6-0.3,0.6-0.6V49.5c2.1,2.4,5.6,4.6,10.2,4.6c8.3,0,14.3-6.6,14.3-15.6C339.8,29.4,333.9,23.1,325.5,23.1z
		 M333.7,38.5c0,6-3.8,10.2-9.2,10.2c-4.5,0-9.2-3.2-9.2-10.2c0-5,3.2-10.1,9.2-10.1C329.9,28.4,333.7,32.6,333.7,38.5z"/>
	<path d="M358.4,23.1c-3.7,0-6.9,1.3-9,3.5V14.1c0-0.3-0.3-0.6-0.6-0.6h-4.8c-0.3,0-0.6,0.3-0.6,0.6v39c0,0.3,0.3,0.6,0.6,0.6h4.8
		c0.3,0,0.6-0.3,0.6-0.6v-16c0-5.5,2.8-8.7,7.7-8.7c4.8,0,7.5,3,7.5,8.3V53c0,0.3,0.3,0.6,0.6,0.6h4.7c0.3,0,0.6-0.3,0.6-0.6V36
		C370.6,28.1,365.8,23.1,358.4,23.1z"/>
	<path d="M389.2,23.1c-8.9,0-14.9,6.2-14.9,15.4c0,9.3,6,15.5,14.9,15.5c6.9,0,12.2-3.8,13.9-9.8c0-0.2,0-0.4-0.1-0.5
		c-0.1-0.1-0.3-0.2-0.5-0.2h-5.2c-0.2,0-0.5,0.2-0.5,0.4c-1.1,3.1-3.8,4.9-7.6,4.9c-4.8,0-8.2-3.1-8.8-7.9h22.5
		c0.3,0,0.5-0.2,0.6-0.5c0.1-1.1,0.2-1.9,0.2-3C403.7,29,397.7,23.1,389.2,23.1z M389,28.3c2.6,0,4.9,0.9,6.4,2.4
		c1.3,1.3,2,3.1,2.1,5.2h-17C381.2,31.3,384.5,28.3,389,28.3z"/>
	<path d="M422.1,23.1c-3.8,0-6.8,1.3-8.8,3.8v-2.7c0-0.3-0.3-0.6-0.6-0.6H408c-0.3,0-0.6,0.3-0.6,0.6V53c0,0.3,0.3,0.6,0.6,0.6h4.8
		c0.3,0,0.6-0.3,0.6-0.6c0-0.1,0-0.1,0-0.2V37.3c0-5.6,2.4-8.2,7.5-8.2h1.3c0.3,0,0.6-0.3,0.6-0.6v-5
		C422.7,23.3,422.4,23.1,422.1,23.1z"/>
	<path d="M438.3,23.1c-8.9,0-14.9,6.2-14.9,15.4c0,9.3,6,15.5,14.9,15.5c6.9,0,12.2-3.8,13.9-9.8c0-0.2,0-0.4-0.1-0.5
		c-0.1-0.1-0.3-0.2-0.5-0.2h-5.2c-0.2,0-0.5,0.2-0.5,0.4c-1.1,3.1-3.8,4.9-7.6,4.9c-4.8,0-8.2-3.1-8.8-7.9H452
		c0.3,0,0.5-0.2,0.6-0.5c0.1-1.1,0.2-1.9,0.2-3C452.7,29,446.8,23.1,438.3,23.1z M438,28.3c2.6,0,4.9,0.9,6.4,2.4
		c1.3,1.3,2,3.1,2.1,5.2h-17C430.2,31.3,433.5,28.3,438,28.3z"/>
</g>
<path class="st0" d="M77.9,46.5c-2.7,4.3-7.5,7-12.6,7c-8.3,0-14.9-6.7-14.9-14.9c0-8.3,6.7-14.9,14.9-14.9c4.8,0,9.4,2.4,12.2,6.3
	C73.2,12.4,57.4,0,39.3,0C17.6,0,0,17.6,0,39.3C0,61,17.6,78.5,39.3,78.5C58.1,78.5,74.4,65.1,77.9,46.5z"/>
</svg>
