<svg width="494" height="70" viewBox="0 0 494 70" fill="none" xmlns="http://www.w3.org/2000/svg">
<path d="M490.345 49.7667C488.803 49.7667 487.578 48.5418 487.578 46.9994C487.578 45.5023 488.803 44.2321 490.345 44.2321C491.842 44.2321 493.113 45.4569 493.113 46.9994C493.113 48.5418 491.842 49.7667 490.345 49.7667ZM490.345 44.7764C489.12 44.7764 488.122 45.7745 488.122 46.9994C488.122 48.2243 489.12 49.2223 490.345 49.2223C491.57 49.2223 492.568 48.2243 492.568 46.9994C492.568 45.7745 491.57 44.7764 490.345 44.7764ZM491.752 48.4511H491.117L490.572 47.4077H489.846V48.4511H489.257V45.4116H490.708C491.343 45.4116 491.752 45.8199 491.752 46.4096C491.752 46.8633 491.479 47.1809 491.117 47.317L491.752 48.4511ZM490.663 46.8633C490.89 46.8633 491.117 46.7272 491.117 46.4096C491.117 46.0467 490.935 45.956 490.663 45.956H489.756V46.8633H490.663Z" fill="#404041"/>
<path d="M202.043 43.9598H209.12V63.2405H221.415V69.4103H202.043V43.9598Z" fill="#404041"/>
<path d="M228.719 56.7531V56.7077C228.719 49.4038 234.616 43.4608 242.465 43.4608C250.313 43.4608 256.12 49.3131 256.12 56.617V56.7077C256.12 64.0117 250.222 69.9547 242.374 69.9547C234.571 69.9093 228.719 64.0571 228.719 56.7531ZM248.952 56.7531V56.7077C248.952 53.0331 246.321 49.8574 242.419 49.8574C238.563 49.8574 235.977 52.9877 235.977 56.6624V56.7531C235.977 60.4278 238.608 63.6034 242.465 63.6034C246.366 63.558 248.952 60.4278 248.952 56.7531Z" fill="#404041"/>
<path d="M264.785 58.2502V43.9598H271.953V58.1141C271.953 61.7887 273.813 63.5127 276.625 63.5127C279.438 63.5127 281.298 61.8341 281.298 58.2956V43.9598H288.466V58.0687C288.466 66.28 283.793 69.8639 276.535 69.8639C269.321 69.9093 264.785 66.2346 264.785 58.2502Z" fill="#404041"/>
<path d="M299.263 43.9598H309.107C318.181 43.9598 323.489 49.177 323.489 56.5263V56.617C323.489 63.9663 318.135 69.4103 308.971 69.4103H299.308L299.263 43.9598ZM309.198 63.1497C313.417 63.1497 316.23 60.8361 316.23 56.7077V56.617C316.23 52.534 313.417 50.175 309.198 50.175H306.34V63.1044L309.198 63.1497Z" fill="#404041"/>
<path d="M333.696 43.9598H354.065V50.175H340.728V54.4848H352.795V60.337H340.728V69.4103H333.696V43.9598Z" fill="#404041"/>
<path d="M363.864 43.9598H370.896V63.2405H383.236V69.4103H363.864V43.9598Z" fill="#404041"/>
<path d="M401.654 43.7783H408.459L419.302 69.4102H411.726L409.866 64.8736H400.067L398.252 69.4102H390.857L401.654 43.7783ZM407.87 59.3843L405.057 52.1711L402.199 59.3843H407.87Z" fill="#404041"/>
<path d="M428.375 43.9598H440.397C444.299 43.9598 446.975 44.9579 448.699 46.7272C450.196 48.1789 450.967 50.1296 450.967 52.6701V52.7609C450.967 56.6624 448.881 59.2482 445.75 60.5639L451.829 69.4556H443.663L438.537 61.7434H435.452V69.4556H428.42L428.375 43.9598ZM440.08 56.2087C442.484 56.2087 443.845 55.0292 443.845 53.2145V53.0784C443.845 51.0823 442.393 50.0843 440.034 50.0843H435.407V56.2087H440.08Z" fill="#404041"/>
<path d="M461.129 43.9598H481.59V49.9935H468.116V53.8043H480.319V59.3843H468.116V63.4219H481.771V69.4103H461.129V43.9598Z" fill="#404041"/>
<path d="M186.619 59.7473C185.621 61.9702 183.534 63.558 180.812 63.558C176.956 63.558 174.325 60.337 174.325 56.7077V56.617C174.325 52.9423 176.911 49.8121 180.767 49.8121C183.67 49.8121 185.893 51.5814 186.8 54.0311H194.24C193.061 47.9521 187.708 43.4608 180.812 43.4608C172.964 43.4608 167.066 49.4038 167.066 56.7077V56.7985C167.066 64.1024 172.873 69.9547 180.721 69.9547C187.435 69.9547 192.698 65.5995 194.059 59.7926L186.619 59.7473Z" fill="#404041"/>
<path d="M142.205 41.5554L122.743 30.3953L119.386 28.9436L39.7686 29.5334V69.9093L142.205 69.9546V41.5554Z" fill="white"/>
<path d="M106.774 66.2346C107.727 62.9682 107.364 59.9741 105.776 57.7511C104.325 55.7097 101.875 54.5301 98.926 54.394L43.0803 53.6682C42.7174 53.6682 42.3998 53.4867 42.2183 53.2145C42.0369 52.9423 41.9915 52.5794 42.0822 52.2165C42.2637 51.6721 42.8081 51.2638 43.3978 51.2184L99.7426 50.4925C106.411 50.175 113.67 44.7764 116.211 38.153L119.432 29.7602C119.568 29.3973 119.613 29.0343 119.522 28.6714C115.893 12.2489 101.24 0 83.7284 0C67.578 0 53.8774 10.4342 48.9779 24.906C45.8023 22.547 41.7647 21.2767 37.4095 21.685C29.6519 22.4563 23.4367 28.6714 22.6655 36.429C22.484 38.4251 22.6201 40.3759 23.0738 42.1905C10.4166 42.5535 0.299988 52.897 0.299988 65.6448C0.299988 66.779 0.39072 67.9132 0.526819 69.0473C0.617551 69.5917 1.07121 70 1.6156 70H104.688C105.277 70 105.822 69.5917 106.003 69.0019L106.774 66.2346Z" fill="#F38020"/>
<path d="M124.558 30.35C124.059 30.35 123.514 30.35 123.015 30.3953C122.653 30.3953 122.335 30.6675 122.199 31.0305L120.021 38.6066C119.069 41.873 119.432 44.8672 121.019 47.0901C122.471 49.1316 124.921 50.3111 127.87 50.4472L139.756 51.1731C140.119 51.1731 140.436 51.3545 140.618 51.6267C140.799 51.8989 140.844 52.3072 140.754 52.6248C140.572 53.1692 140.028 53.5775 139.438 53.6228L127.053 54.3487C120.339 54.6662 113.126 60.0648 110.585 66.6883L109.678 69.002C109.496 69.4556 109.814 69.9093 110.313 69.9093H152.866C153.365 69.9093 153.819 69.5917 153.955 69.0927C154.681 66.4614 155.089 63.6941 155.089 60.836C155.089 44.0052 141.434 30.35 124.558 30.35Z" fill="#FAAE40"/>
</svg>
