<svg width="200" height="33" viewBox="0 0 200 33" fill="none" xmlns="http://www.w3.org/2000/svg">
    <g clip-path="url(#clip0)">
        <path fill-rule="evenodd" clip-rule="evenodd" d="M57.7548 18.4519H59.6154C58.8894 21.7904 56.0529 24.0385 52.2635 24.0385C47.8154 24.0385 44.2308 20.7212 44.2308 16.3356C44.2308 11.949 47.8154 8.65385 52.2635 8.65385C56.0519 8.65385 58.8885 10.8798 59.6154 14.2183H57.7548C57.1192 11.7962 55.0769 10.2692 52.2644 10.2692C48.7692 10.2692 46.0462 12.8654 46.0462 16.3356C46.0462 19.8048 48.7692 22.424 52.2635 22.424C55.0769 22.424 57.1192 20.8519 57.7539 18.4519H57.7548ZM78.8462 16.3462C78.8462 20.6298 75.4135 24.0385 71.1539 24.0385C66.8942 24.0385 63.4615 20.6298 63.4615 16.3462C63.4615 12.0625 66.8942 8.65385 71.1539 8.65385C75.4135 8.65385 78.8462 12.0625 78.8462 16.3462ZM77.1077 16.3462C77.1077 12.9808 74.501 10.2712 71.1539 10.2712C67.8077 10.2712 65.2 12.9808 65.2 16.3462C65.2 19.7115 67.8077 22.4212 71.1539 22.4212C74.5 22.4212 77.1077 19.7115 77.1077 16.3462ZM97.1154 8.65385V24.0385H95.6923L86.3173 11.9115V24.0385H84.6154V8.65385H85.9952L95.4125 20.9394V8.65385H97.1154ZM105.635 10.3058V15.9615H113.471V17.6125H105.635V24.0385H103.846V8.65385H114.423V10.3058H105.635ZM130.769 22.3865V24.0385H120.192V8.65385H122.033V22.3865H130.769ZM147.115 17.3019C147.115 21.326 144.433 24.0385 140.385 24.0385C136.337 24.0385 133.654 21.3269 133.654 17.3019V8.65385H135.481V17.3019C135.481 20.2587 137.423 22.3933 140.385 22.3933C143.322 22.3933 145.288 20.2587 145.288 17.3019V8.65385H147.115V17.3019ZM155.602 10.3058V15.5769H163.535V17.2288H155.602V22.3875H164.423V24.0385H153.846V8.65385H164.423V10.3058H155.602ZM181.731 8.65385V24.0385H180.308L170.933 11.9115V24.0385H169.231V8.65385H170.611L180.028 20.9394V8.65385H181.731ZM200 10.3058H194.59V24.0385H192.888V10.3058H187.5V8.65385H200V10.3058ZM23.4375 17.2837C24.2788 17.2385 25.1202 17.2115 25.9615 17.15V16.5038C25.1202 16.4423 24.2788 16.4154 23.4375 16.3692L20.9135 16.2913C19.4327 16.2462 17.9519 16.2337 16.4692 16.224C16.4663 14.7433 16.4596 13.2606 16.4202 11.7788L16.349 9.25481C16.3058 8.41346 16.2817 7.57212 16.2221 6.73077H15.5087C15.449 7.57212 15.425 8.41346 15.3817 9.25481L15.3115 11.7788C15.2923 12.474 15.2837 13.1702 15.2769 13.8654C15.0029 13.226 14.7288 12.5865 14.4452 11.951L13.4144 9.64615C13.0519 8.88654 12.7077 8.11731 12.3308 7.3625L11.6731 7.63654C11.9394 8.43558 12.2394 9.22308 12.5212 10.0163L13.4221 12.376C13.6702 13.025 13.9279 13.6702 14.1875 14.3163C13.6915 13.8286 13.1915 13.3448 12.6875 12.8654L10.8529 11.1308C10.2279 10.5663 9.61539 9.98846 8.97789 9.43558L8.475 9.93942C9.02693 10.5769 9.60481 11.1894 10.1692 11.8144L11.9038 13.649C12.3827 14.1538 12.8683 14.6519 13.3548 15.149C12.7087 14.8894 12.0635 14.6317 11.4135 14.3837L9.05481 13.4827C8.26154 13.201 7.47404 12.901 6.67404 12.6337L6.40096 13.2923C7.15577 13.6692 7.92404 14.0135 8.68462 14.376L10.9894 15.4067C11.624 15.6904 12.2635 15.9644 12.9029 16.2375C12.2077 16.2452 11.5125 16.2538 10.8163 16.2721L8.29327 16.3433C7.45193 16.3865 6.61058 16.4106 5.76923 16.4702V17.1837C6.61058 17.2433 7.45193 17.2673 8.29327 17.3106L10.8173 17.3808C12.3 17.4212 13.7817 17.4279 15.2635 17.4308C15.2731 18.9115 15.2846 20.3933 15.3298 21.875L15.4087 24.399C15.4538 25.2404 15.4808 26.0817 15.5423 26.9231H16.1885C16.25 26.0817 16.2769 25.2404 16.3231 24.399L16.401 21.875C16.4231 21.1625 16.4346 20.45 16.4452 19.7375C16.726 20.3923 17.0096 21.0462 17.3029 21.6962L18.3414 23.9971C18.7048 24.7567 19.051 25.524 19.4308 26.2788L20.0269 26.0298C19.7625 25.2298 19.4663 24.4423 19.1856 23.6471L18.2914 21.2865C18.0394 20.6192 17.7779 19.9567 17.5144 19.2942C18.025 19.7913 18.5365 20.2865 19.0567 20.775L20.8962 22.5048C21.5231 23.0673 22.1365 23.6433 22.776 24.1952L23.2337 23.7375C22.6817 23.099 22.1058 22.4846 21.5433 21.8577L19.8135 20.0173C19.3245 19.4994 18.8313 18.9856 18.3337 18.476C18.9952 18.7404 19.6577 19.001 20.324 19.2538L22.6865 20.1471C23.4808 20.4279 24.2683 20.724 25.0692 20.9894L25.3173 20.3913C24.5625 20.0135 23.7962 19.6654 23.0356 19.3019L20.7346 18.2635C20.0846 17.9712 19.4308 17.6885 18.7769 17.4058C19.4885 17.3962 20.201 17.3846 20.9135 17.3625L23.4375 17.2837Z" fill="#0074A1"/>
        <path fill-rule="evenodd" clip-rule="evenodd" d="M16.3462 32.6923C7.33269 32.6923 0 25.3596 0 16.3462C0 7.33269 7.33269 0 16.3462 0C25.3596 0 32.6923 7.33269 32.6923 16.3462C32.6923 25.3596 25.3596 32.6923 16.3462 32.6923ZM16.3462 1.52885C8.17596 1.52885 1.52885 8.175 1.52885 16.3462C1.52885 24.5173 8.17596 31.1635 16.3462 31.1635C24.5163 31.1635 31.1635 24.5163 31.1635 16.3462C31.1635 8.17596 24.5163 1.52885 16.3462 1.52885Z" fill="#0074A1"/>
    </g>
    <defs>
        <clipPath id="clip0">
            <rect width="200" height="32.6923" fill="white"/>
        </clipPath>
    </defs>
</svg>
