<svg width="238" height="70" viewBox="0 0 238 70" fill="none" xmlns="http://www.w3.org/2000/svg">
<path d="M95.7208 26.619C95.7208 19.7835 99.6984 15.8058 108.995 15.8058C112.412 15.8066 115.815 16.2218 119.132 17.0422L118.35 23.1429C115.339 22.5618 112.283 22.2341 109.217 22.1631C104.341 22.1631 102.778 23.8428 102.778 27.8205V42.1797C102.778 46.1574 104.341 47.8371 109.217 47.8371C112.279 47.7731 115.33 47.4532 118.339 46.8806L119.12 52.9813C115.804 53.8017 112.4 54.2169 108.984 54.2177C99.6518 54.2177 95.7091 50.24 95.7091 43.4045L95.7208 26.619Z" fill="black"/>
<path d="M134.238 54.2293C124.906 54.2293 122.363 49.0735 122.363 43.4744V36.5806C122.363 30.9815 124.882 25.8257 134.238 25.8257C143.593 25.8257 146.112 30.9815 146.112 36.5806V43.4744C146.112 49.0735 143.593 54.2293 134.238 54.2293ZM134.238 31.658C130.598 31.658 129.198 33.2794 129.198 36.3239V43.661C129.198 46.7405 130.598 48.3269 134.238 48.3269C137.877 48.3269 139.277 46.7055 139.277 43.661V36.3589C139.288 33.2794 137.877 31.658 134.238 31.658Z" fill="black"/>
<path d="M166.887 53.6578V34.621C166.887 33.1629 166.269 32.4397 164.706 32.4397C162.202 32.7337 159.782 33.527 157.59 34.7726V53.6578H150.755V26.3973H155.957L156.634 28.7303C160.035 27.0284 163.753 26.0551 167.552 25.8724C172.09 25.8724 173.711 29.0686 173.711 33.9328V53.6578H166.887Z" fill="black"/>
<path d="M187.802 54.2293C184.604 54.1798 181.431 53.6529 178.389 52.6662L179.345 47.4637C182.002 48.2202 184.748 48.6126 187.51 48.6302C190.532 48.6302 191.01 47.9536 191.01 45.889C191.01 44.2093 190.672 43.3694 186.251 42.3079C179.59 40.6865 178.808 39.0068 178.808 33.746C178.808 28.2636 181.211 25.849 189.003 25.849C191.753 25.8537 194.493 26.1747 197.169 26.8055L196.492 32.2413C194.016 31.7846 191.509 31.5233 188.992 31.4597C186.029 31.4597 185.492 32.1363 185.492 33.7927C185.492 35.974 185.656 36.1256 189.353 37.0938C196.97 39.1118 197.694 40.115 197.694 45.714C197.624 50.9748 195.967 54.2293 187.802 54.2293Z" fill="black"/>
<path d="M208.938 26.3973V45.4342C208.938 46.8923 209.557 47.6155 211.12 47.6155C213.624 47.3215 216.043 46.5282 218.235 45.2825V26.3973H225.071V53.6578H219.868L219.192 51.3249C215.791 53.0267 212.072 54.0001 208.274 54.1827C203.736 54.1827 202.115 50.9866 202.115 46.1224V26.3973H208.938Z" fill="black"/>
<path d="M230.962 53.6577V15.2458L237.797 14.2893V53.6577H230.962Z" fill="black"/>
<path fill-rule="evenodd" clip-rule="evenodd" d="M34.8659 42.4596C33.3732 42.4619 31.9134 42.0216 30.671 41.1942C29.4286 40.3668 28.4594 39.1896 27.8861 37.8115C27.3127 36.4333 27.1609 34.9161 27.4499 33.4516C27.7388 31.9872 28.4555 30.6413 29.5094 29.5842C30.5632 28.5271 31.9069 27.8063 33.3704 27.5128C34.8339 27.2193 36.3516 27.3664 37.7316 27.9355C39.1115 28.5046 40.2917 29.4701 41.1229 30.7099C41.9541 31.9498 42.399 33.4082 42.4013 34.9009C42.4043 35.8924 42.2117 36.8748 41.8344 37.7917C41.4571 38.7087 40.9025 39.5421 40.2025 40.2443C39.5024 40.9465 38.6707 41.5037 37.7549 41.8838C36.8392 42.264 35.8574 42.4596 34.8659 42.4596" fill="#961D59"/>
<path fill-rule="evenodd" clip-rule="evenodd" d="M49.5518 38.4003C48.8597 38.4003 48.1831 38.1951 47.6076 37.8106C47.0321 37.426 46.5836 36.8795 46.3187 36.2401C46.0539 35.6006 45.9846 34.897 46.1196 34.2182C46.2546 33.5394 46.5879 32.9158 47.0773 32.4264C47.5667 31.937 48.1903 31.6038 48.8691 31.4687C49.5479 31.3337 50.2515 31.403 50.891 31.6679C51.5304 31.9327 52.0769 32.3813 52.4614 32.9567C52.846 33.5322 53.0512 34.2088 53.0512 34.9009C53.0512 35.829 52.6825 36.7191 52.0263 37.3754C51.37 38.0316 50.4799 38.4003 49.5518 38.4003" fill="#D62783"/>
<path fill-rule="evenodd" clip-rule="evenodd" d="M62.2896 41.678C62.0416 42.5143 61.476 43.2203 60.7138 43.6445C59.9517 44.0688 59.0537 44.1777 58.2122 43.9479C57.3707 43.7181 56.6527 43.1678 56.212 42.415C55.7714 41.6623 55.6431 40.7668 55.8546 39.9206C56.0662 39.0743 56.6008 38.3446 57.3439 37.8877C58.087 37.4309 58.9794 37.2832 59.8301 37.4764C60.6807 37.6696 61.4218 38.1883 61.8946 38.9214C62.3674 39.6544 62.5344 40.5435 62.3596 41.3981C62.3596 41.4797 62.3596 41.573 62.2896 41.678Z" fill="#D62783"/>
<path fill-rule="evenodd" clip-rule="evenodd" d="M59.8283 32.6613C59.154 32.8239 58.4466 32.7825 57.7959 32.5423C57.1452 32.3021 56.5805 31.8739 56.1737 31.3121C55.7668 30.7503 55.5361 30.0803 55.5108 29.3871C55.4854 28.6939 55.6667 28.0089 56.0315 27.4189C56.3963 26.829 56.9283 26.3607 57.5597 26.0737C58.1912 25.7867 58.8937 25.6938 59.5781 25.8068C60.2624 25.9198 60.8978 26.2337 61.4034 26.7085C61.909 27.1833 62.2621 27.7977 62.4179 28.4737C62.5034 28.9246 62.5034 29.3875 62.4179 29.8384C62.3269 30.5174 62.0298 31.1521 61.5668 31.6569C61.1037 32.1616 60.4969 32.5122 59.8283 32.6613" fill="#D62783"/>
<path fill-rule="evenodd" clip-rule="evenodd" d="M72.2163 41.2931C72.0988 41.9766 71.7808 42.6098 71.3027 43.1123C70.8247 43.6147 70.2081 43.9638 69.5313 44.1152C68.8544 44.2665 68.1479 44.2134 67.5013 43.9624C66.8548 43.7115 66.2974 43.2741 65.8999 42.7058C65.5024 42.1374 65.2827 41.4638 65.2688 40.7704C65.2548 40.077 65.4473 39.3951 65.8216 38.8113C66.1959 38.2274 66.7353 37.768 67.3713 37.4913C68.0072 37.2146 68.7111 37.1331 69.3934 37.2571C70.2589 37.3978 71.04 37.8582 71.5822 38.5473C72.1244 39.2364 72.3882 40.1039 72.3213 40.9782C72.2791 41.0781 72.2554 41.1848 72.2513 41.2931" fill="#D62783"/>
<path fill-rule="evenodd" clip-rule="evenodd" d="M69.3818 32.5563C68.6979 32.6748 67.9943 32.5873 67.3603 32.3049C66.7263 32.0225 66.1906 31.558 65.8213 30.9703C65.452 30.3827 65.2658 29.6985 65.2863 29.0048C65.3069 28.311 65.5332 27.6391 65.9366 27.0743C66.34 26.5095 66.9023 26.0775 67.5518 25.8331C68.2014 25.5886 68.909 25.5429 69.5847 25.7017C70.2603 25.8604 70.8735 26.2165 71.3462 26.7246C71.819 27.2328 72.13 27.87 72.2397 28.5553C72.2745 28.8537 72.2745 29.1551 72.2397 29.4535C72.1637 30.2161 71.8396 30.9327 71.317 31.4932C70.7944 32.0538 70.1022 32.4273 69.3468 32.5563" fill="#D62783"/>
<path fill-rule="evenodd" clip-rule="evenodd" d="M66.9556 53.3544C66.5359 54.1084 65.8525 54.6807 65.0365 54.9614C64.2206 55.2421 63.3297 55.2115 62.535 54.8755C61.7403 54.5394 61.0977 53.9215 60.7308 53.1406C60.3638 52.3596 60.2983 51.4706 60.5469 50.6443C60.7955 49.818 61.3405 49.1127 62.0774 48.6638C62.8144 48.2149 63.6911 48.0541 64.5394 48.2122C65.3876 48.3704 66.1476 48.8364 66.6732 49.5207C67.1988 50.205 67.4531 51.0593 67.3872 51.9197C67.3613 52.4258 67.2132 52.9181 66.9556 53.3544" fill="#D62783"/>
<path fill-rule="evenodd" clip-rule="evenodd" d="M65.6958 21.3582C65.0928 21.6989 64.4024 21.8531 63.7117 21.8013C63.0211 21.7494 62.3614 21.4937 61.8162 21.0667C61.2709 20.6397 60.8647 20.0604 60.6488 19.4024C60.4329 18.7443 60.4172 18.037 60.6036 17.37C60.7899 16.7029 61.1701 16.1062 61.6958 15.6554C62.2215 15.2045 62.8691 14.9198 63.5568 14.8372C64.2444 14.7547 64.9411 14.878 65.5585 15.1916C66.176 15.5052 66.6866 15.995 67.0255 16.599C67.3946 17.2202 67.5465 17.9466 67.4571 18.6636C67.4079 19.2291 67.2218 19.7742 66.915 20.2517C66.6081 20.7293 66.1897 21.125 65.6958 21.4048" fill="#D62783"/>
<path d="M34.9942 69.9884C25.7131 69.9884 16.8122 66.3015 10.2496 59.7388C3.68687 53.1762 0 44.2753 0 34.9942C0 25.7132 3.68687 16.8123 10.2496 10.2496C16.8122 3.68693 25.7131 5.07389e-05 34.9942 5.07389e-05C42.6807 -0.0242146 50.1571 2.5076 56.2473 7.19719L51.9663 12.8312C47.8237 9.67316 42.882 7.73355 37.6972 7.23055C32.5124 6.72756 27.2901 7.68114 22.6176 9.98404C17.9451 12.2869 14.0079 15.8478 11.2486 20.2662C8.48937 24.6845 7.0176 29.7851 6.99883 34.9942C7.00295 40.2113 8.4648 45.3234 11.2195 49.754C13.9741 54.1845 17.912 57.7571 22.5889 60.0689C27.2659 62.3807 32.4957 63.3396 37.6886 62.8375C42.8814 62.3354 47.8307 60.3922 51.978 57.2272L56.2473 62.8146C50.1528 67.4935 42.6775 70.0167 34.9942 69.9884V69.9884Z" fill="#D62783"/>
<path d="M100.912 9.16847V5.40077H97.4122V9.16847H95.7091V0.128312H97.4705V3.91935H100.97V0.128312H102.65V9.16847H100.912ZM109.077 9.16847H107.677L107.549 8.72521C106.956 9.10609 106.27 9.31599 105.566 9.33178C104.329 9.33178 103.816 8.48025 103.816 7.36044C103.816 6.03066 104.411 5.52908 105.799 5.52908H107.432V4.84086C107.432 4.11765 107.222 3.86102 106.137 3.86102C105.506 3.86694 104.878 3.93334 104.259 4.05932L104.049 2.8112C104.811 2.61072 105.595 2.50879 106.382 2.50792C108.517 2.50792 109.147 3.23113 109.147 4.84086L109.077 9.16847ZM107.409 6.70722H106.149C105.589 6.70722 105.437 6.85886 105.437 7.34878C105.437 7.83869 105.589 8.002 106.126 8.002C106.575 7.99508 107.015 7.87898 107.409 7.66372V6.70722ZM112.681 9.33178C111.89 9.31917 111.104 9.19347 110.348 8.95851L110.582 7.71038C111.239 7.89044 111.918 7.98454 112.6 7.99034C113.358 7.99034 113.463 7.82703 113.463 7.33711C113.463 6.84719 113.381 6.73055 112.296 6.48559C110.64 6.10065 110.442 5.69238 110.442 4.43259C110.442 3.1728 111.037 2.54291 112.985 2.54291C113.672 2.5453 114.356 2.62354 115.026 2.7762L114.863 4.07099C114.246 3.96188 113.622 3.89949 112.996 3.88435C112.261 3.88435 112.133 4.04766 112.133 4.44426C112.133 4.84086 112.133 5.00417 113.09 5.23746C114.991 5.71571 115.166 5.96067 115.166 7.30212C115.166 8.64356 114.723 9.33178 112.681 9.33178ZM120.473 9.20347V4.66589C120.473 4.31595 120.322 4.14098 119.925 4.14098C119.304 4.20737 118.702 4.39356 118.152 4.68922V9.16847H116.449V0L118.152 0.256624V3.13781C118.927 2.75691 119.774 2.54235 120.637 2.50792C121.803 2.50792 122.176 3.26612 122.176 4.43259V9.16847L120.473 9.20347ZM123.646 1.72638V0.128312H125.349V1.72638H123.646ZM123.646 9.16847V2.64789H125.349V9.16847H123.646ZM126.702 2.70622C126.702 1.07315 127.694 0.116647 130.003 0.116647C130.852 0.115744 131.697 0.213609 132.523 0.408265L132.325 1.86636C131.574 1.72776 130.813 1.64974 130.05 1.63306C128.884 1.63306 128.452 2.02966 128.452 2.98617V6.4156C128.452 7.36044 128.837 7.76871 130.05 7.76871C130.813 7.75203 131.574 7.67401 132.325 7.53541L132.523 8.9935C131.697 9.18816 130.852 9.28602 130.003 9.28512C127.67 9.28512 126.702 8.34028 126.702 6.69555V2.70622ZM136.244 9.33178C133.911 9.33178 133.293 8.09532 133.293 6.76554V5.08582C133.293 3.74438 133.923 2.51958 136.244 2.51958C138.565 2.51958 139.195 3.75604 139.195 5.08582V6.73055C139.195 8.07199 138.565 9.33178 136.244 9.33178ZM136.244 3.93101C135.334 3.93101 134.984 4.31595 134.984 5.09748V6.84719C134.984 7.58207 135.334 8.01366 136.244 8.01366C137.154 8.01366 137.504 7.62873 137.504 6.84719V5.0275C137.492 4.29262 137.142 3.90768 136.244 3.90768V3.93101ZM143.989 4.03599C143.368 4.30541 142.767 4.62125 142.193 4.98084V9.18014H140.49V2.64789H141.925L142.041 3.37111C142.597 3.01206 143.197 2.72588 143.826 2.51958L143.989 4.03599ZM150.79 6.99883C150.841 7.30861 150.82 7.62611 150.727 7.92607C150.634 8.22604 150.472 8.50019 150.255 8.72671C150.037 8.95324 149.77 9.12589 149.474 9.23093C149.178 9.33597 148.862 9.3705 148.55 9.33178C147.943 9.32599 147.338 9.26351 146.742 9.14514V11.7814L145.039 12.038V2.70622H146.392L146.556 3.25446C147.181 2.80587 147.932 2.56513 148.702 2.56624C150.067 2.56624 150.79 3.34778 150.79 4.8292V6.99883ZM146.731 7.73371C147.225 7.84048 147.729 7.89908 148.235 7.90868C148.854 7.90868 149.087 7.62873 149.087 7.03383V4.70088C149.087 4.16431 148.877 3.87269 148.247 3.87269C147.689 3.89312 147.154 4.10292 146.731 4.46759V7.73371Z" fill="black"/>
</svg>
