<svg width="255" height="54" viewBox="0 0 255 54" fill="none" xmlns="http://www.w3.org/2000/svg">
<path d="M27.48 53.5331V43.1528C38.4674 43.1528 46.9963 32.2565 42.7774 20.6924C41.2294 16.4431 37.7997 13.0134 33.5201 11.4654C21.956 7.27685 11.0597 15.7754 11.0597 26.7628H0.709656C0.709656 9.24973 17.646 -4.40863 36.0089 1.32788C44.0218 3.84709 50.4261 10.221 52.9149 18.2339C58.6514 36.5968 44.9931 53.5331 27.48 53.5331Z" fill="#0080FF"/>
<path fill-rule="evenodd" clip-rule="evenodd" d="M27.5104 43.2135H17.1604V32.8635H27.5104V43.2135Z" fill="#0080FF"/>
<path fill-rule="evenodd" clip-rule="evenodd" d="M17.1604 51.1353H9.23853V43.2135H17.1604V51.1353Z" fill="#0080FF"/>
<path fill-rule="evenodd" clip-rule="evenodd" d="M9.23853 43.2135H2.59146V36.5664H9.23853V43.2135Z" fill="#0080FF"/>
<path d="M82.3042 13.8962C79.9444 12.2336 76.941 11.4291 73.5085 11.4291H66V35.2954H73.5621C76.9946 35.2954 79.998 34.4373 82.3578 32.6674C83.645 31.7557 84.664 30.4685 85.4149 28.8595C86.1121 27.2506 86.4875 25.3198 86.4875 23.2282C86.4875 21.1365 86.1121 19.2594 85.4149 17.6504C84.664 16.0415 83.645 14.7543 82.3042 13.8962ZM70.3978 15.4515H72.7577C75.3856 15.4515 77.5309 15.9878 79.1935 17.0068C81.017 18.1331 81.9288 20.2248 81.9288 23.2282C81.9288 26.3388 81.017 28.5378 79.1935 29.7177C77.6382 30.7367 75.4929 31.273 72.8113 31.273H70.3978V15.4515Z" fill="#0080FF"/>
<path d="M91.6898 11.1073C90.939 11.1073 90.349 11.3755 89.8127 11.8582C89.33 12.3408 89.0618 12.9308 89.0618 13.6816C89.0618 14.4325 89.33 15.0225 89.8127 15.5588C90.2954 16.0415 90.939 16.3096 91.6898 16.3096C92.387 16.3096 93.0306 16.0415 93.5669 15.5588C94.0496 15.0761 94.3178 14.4325 94.3178 13.6816C94.3178 12.9308 94.0496 12.3408 93.5669 11.8582C93.0306 11.3755 92.387 11.1073 91.6898 11.1073Z" fill="#0080FF"/>
<path d="M93.7815 18.4548H89.5446V35.2953H93.7815V18.4548Z" fill="#0080FF"/>
<path d="M109.174 19.8493C107.887 18.723 106.492 18.0258 104.937 18.0258C102.577 18.0258 100.646 18.8302 99.1447 20.4392C97.643 21.9945 96.8385 24.0326 96.8385 26.4997C96.8385 28.8595 97.5894 30.8975 99.0911 32.5065C100.593 34.0618 102.577 34.8663 104.883 34.8663C106.492 34.8663 107.94 34.4372 109.067 33.5255V33.9009C109.067 35.2953 108.691 36.368 107.94 37.1188C107.19 37.8697 106.171 38.2451 104.883 38.2451C102.953 38.2451 101.719 37.4943 100.217 35.4562L97.3212 38.2451L97.3748 38.3524C98.0184 39.2105 98.9302 40.0686 100.217 40.8731C101.451 41.6776 103.06 42.1066 104.937 42.1066C107.458 42.1066 109.496 41.3558 110.997 39.8004C112.499 38.2451 113.25 36.2071 113.25 33.6864V18.4012H109.067V19.8493H109.174ZM108.048 29.8248C107.297 30.683 106.331 31.0584 105.151 31.0584C103.918 31.0584 103.006 30.6293 102.255 29.8248C101.505 28.9667 101.183 27.8941 101.183 26.5533C101.183 25.1589 101.558 24.0862 102.255 23.2281C102.953 22.37 103.972 21.9946 105.151 21.9946C106.385 21.9946 107.297 22.4236 108.048 23.2281C108.798 24.0862 109.174 25.2125 109.174 26.5533C109.174 27.8941 108.798 28.9667 108.048 29.8248Z" fill="#0080FF"/>
<path d="M121.188 18.4548H116.951V35.2953H121.188V18.4548Z" fill="#0080FF"/>
<path d="M119.096 11.1073C118.345 11.1073 117.755 11.3755 117.219 11.8582C116.736 12.3408 116.468 12.9308 116.468 13.6816C116.468 14.4325 116.736 15.0225 117.219 15.5588C117.701 16.0415 118.345 16.3096 119.096 16.3096C119.793 16.3096 120.437 16.0415 120.973 15.5588C121.456 15.0761 121.724 14.4325 121.724 13.6816C121.724 12.9308 121.456 12.3408 120.973 11.8582C120.437 11.3755 119.847 11.1073 119.096 11.1073Z" fill="#0080FF"/>
<path d="M130.466 13.8961H126.283V18.4549H123.869V22.3164H126.283V29.2886C126.283 31.4875 126.712 33.0428 127.57 33.9546C128.428 34.8663 129.983 35.2954 132.129 35.2954C132.826 35.2954 133.523 35.2954 134.167 35.2417H134.381V31.3802L132.933 31.4338C131.914 31.4338 131.27 31.2729 130.949 30.8975C130.627 30.5221 130.466 29.7713 130.466 28.645V22.2627H134.435V18.4012H130.466V13.8961Z" fill="#0080FF"/>
<path d="M158.516 11.3754H154.279V35.2953H158.516V11.3754Z" fill="#0080FF"/>
<path d="M201.314 29.2884C200.563 30.1465 199.759 30.8974 199.169 31.2728C198.579 31.6483 197.828 31.8628 196.97 31.8628C195.736 31.8628 194.717 31.4337 193.913 30.4683C193.108 29.5566 192.679 28.3231 192.679 26.9286C192.679 25.4805 193.108 24.3006 193.913 23.3889C194.717 22.4771 195.736 21.9945 196.97 21.9945C198.311 21.9945 199.759 22.8526 200.992 24.3006L203.781 21.619C201.958 19.2592 199.651 18.1329 196.863 18.1329C194.556 18.1329 192.518 18.9911 190.856 20.6537C189.193 22.3163 188.389 24.4079 188.389 26.9286C188.389 29.4493 189.247 31.541 190.856 33.2036C192.518 34.8662 194.503 35.7243 196.863 35.7243C199.92 35.7243 202.387 34.3835 204.103 31.97L201.314 29.2884Z" fill="#0080FF"/>
<path d="M218.745 20.8148C218.155 19.9567 217.35 19.3131 216.331 18.8304C215.312 18.3477 214.132 18.0796 212.845 18.0796C210.485 18.0796 208.554 18.9377 207.106 20.6539C205.712 22.3702 204.961 24.4618 204.961 26.9825C204.961 29.5569 205.766 31.6486 207.267 33.2575C208.823 34.8665 210.861 35.671 213.381 35.671C216.224 35.671 218.584 34.491 220.354 32.2385L220.461 32.1312L217.672 29.4496C217.404 29.7714 217.028 30.0932 216.707 30.415C216.278 30.7904 215.902 31.1122 215.473 31.3268C214.829 31.6485 214.132 31.8094 213.328 31.8094C212.148 31.8094 211.182 31.4877 210.432 30.7904C209.734 30.1468 209.305 29.2887 209.198 28.2161H220.407L220.461 26.6607C220.461 25.5881 220.3 24.5155 220.032 23.5501C219.764 22.5847 219.335 21.673 218.745 20.8148ZM209.466 24.7836C209.681 23.9791 210.056 23.2819 210.593 22.7992C211.182 22.2093 211.933 21.9411 212.791 21.9411C213.81 21.9411 214.615 22.2093 215.151 22.7992C215.634 23.3356 215.956 23.9791 216.009 24.7836H209.466Z" fill="#0080FF"/>
<path d="M234.995 19.7422C233.708 18.6695 231.938 18.0796 229.739 18.0796C228.345 18.0796 227.004 18.4014 225.824 18.9913C224.698 19.5277 223.625 20.493 222.928 21.673L222.982 21.7266L225.717 24.3009C226.843 22.5311 228.077 21.8875 229.739 21.8875C230.651 21.8875 231.348 22.102 231.938 22.5847C232.474 23.0674 232.796 23.6573 232.796 24.4082V25.2127C231.724 24.8909 230.705 24.73 229.686 24.73C227.594 24.73 225.878 25.2127 224.59 26.1781C223.303 27.1434 222.66 28.5915 222.66 30.415C222.66 32.024 223.196 33.2575 224.322 34.2229C225.449 35.1346 226.789 35.6173 228.398 35.6173C230.007 35.6173 231.509 34.9737 232.903 33.8475V35.2419H237.087V24.4082C236.926 22.4238 236.282 20.8148 234.995 19.7422ZM227.487 28.8597C227.969 28.5379 228.667 28.377 229.525 28.377C230.544 28.377 231.616 28.5915 232.743 28.9669V30.6295C231.831 31.4876 230.597 31.9167 229.096 31.9167C228.345 31.9167 227.808 31.7558 227.379 31.434C227.004 31.1122 226.789 30.7368 226.789 30.2005C226.789 29.6105 227.004 29.1815 227.487 28.8597Z" fill="#0080FF"/>
<path d="M253.23 20.064C252.05 18.7232 250.388 18.0796 248.296 18.0796C246.633 18.0796 245.239 18.5623 244.22 19.5277V18.5087H240.09V35.2955H244.327V26.0172C244.327 24.73 244.649 23.711 245.239 23.0138C245.829 22.3165 246.633 21.9411 247.76 21.9411C248.725 21.9411 249.422 22.2629 249.959 22.9065C250.495 23.5501 250.763 24.4618 250.763 25.5345V35.2955H255V25.5345C255 23.2283 254.41 21.3512 253.23 20.064Z" fill="#0080FF"/>
<path d="M148.969 19.7422C147.682 18.6695 145.912 18.0796 143.713 18.0796C142.319 18.0796 140.978 18.4014 139.798 18.9913C138.672 19.5277 137.599 20.493 136.902 21.673L136.955 21.7266L139.691 24.3009C140.817 22.5311 142.05 21.8875 143.713 21.8875C144.625 21.8875 145.322 22.102 145.912 22.5847C146.448 23.0674 146.77 23.6573 146.77 24.4082V25.2127C145.697 24.8909 144.678 24.73 143.659 24.73C141.568 24.73 139.852 25.2127 138.564 26.1781C137.277 27.1434 136.634 28.5915 136.634 30.415C136.634 32.024 137.17 33.2575 138.296 34.2229C139.422 35.1346 140.763 35.6173 142.372 35.6173C143.981 35.6173 145.483 34.9737 146.877 33.8475V35.2419H151.061V24.4082C150.9 22.4238 150.256 20.8148 148.969 19.7422ZM141.461 28.8597C141.943 28.5379 142.64 28.377 143.499 28.377C144.518 28.377 145.59 28.5915 146.716 28.9669V30.6295C145.805 31.4876 144.571 31.9167 143.069 31.9167C142.319 31.9167 141.782 31.7558 141.353 31.434C140.978 31.1122 140.763 30.7368 140.763 30.2005C140.763 29.6105 140.978 29.1815 141.461 28.8597Z" fill="#0080FF"/>
<path d="M173.908 35.6708C167.097 35.6708 161.573 30.1467 161.573 23.3354C161.573 16.5241 167.097 11 173.908 11C180.719 11 186.243 16.5241 186.243 23.3354C186.243 30.1467 180.719 35.6708 173.908 35.6708ZM173.908 15.3442C169.51 15.3442 165.917 18.9376 165.917 23.3354C165.917 27.7333 169.51 31.3266 173.908 31.3266C178.306 31.3266 181.899 27.7333 181.899 23.3354C181.899 18.9376 178.306 15.3442 173.908 15.3442Z" fill="#0080FF"/>
</svg>
