<svg width="320" height="70" viewBox="0 0 320 70" fill="none" xmlns="http://www.w3.org/2000/svg">
<path fill-rule="evenodd" clip-rule="evenodd" d="M32.5717 2.1C31.0623 2.1 29.5529 2.17962 28.1229 2.49808V17.3066C26.0574 16.5105 23.6741 16.1124 20.4964 16.1124C9.21542 16.1124 0 23.8352 0 36.2552C0 48.9938 8.42099 56 20.8141 56C26.9313 56 33.2073 54.3281 37.1 52.258V2.49808C35.5906 2.17962 34.0017 2.1 32.5717 2.1ZM21.2665 48.9899C14.4657 48.9899 9.8 44.2865 9.8 36.7449C9.8 29.2844 14.782 24.5 21.4247 24.5C24.1134 24.5 26.5649 24.8244 28.7 26.2029V47.7735C26.3276 48.6655 23.8762 49.071 21.2665 48.9899ZM65.7295 16.1C57.5832 16.1 50.9544 19.2805 47.6 22.0635V54.9024C49.1175 55.2205 50.6349 55.3 52.0725 55.3C53.5899 55.3 55.1873 55.2205 56.6248 54.9024V26.4367C58.3819 25.403 61.4966 24.3694 65.0107 24.3694C70.8409 24.3694 74.1953 26.9933 74.1953 33.911V54.9024C75.7926 55.2205 77.2302 55.3 78.7477 55.3C80.1852 55.3 81.7826 55.2205 83.3 54.9024V31.7641C83.3 23.0972 77.949 16.1 65.7295 16.1ZM106.7 56C117.112 56 123.2 51.2406 123.2 43.3875C123.2 35.931 117.193 33.1547 108.942 31.8855C102.454 30.8543 100.772 29.6644 100.772 27.2054C100.772 24.8256 102.855 23.3185 107.661 23.3185C112.226 23.3185 116.151 24.667 118.795 26.1742C120.637 24.7463 121.838 22.5252 122.239 19.7489C119.756 18.0038 114.87 16.1 107.981 16.1C98.3692 16.1 92.0413 20.8594 92.0413 27.84C92.0413 35.7724 98.4493 38.2314 105.178 39.2626C111.986 40.2938 114.149 41.7217 114.149 44.26C114.149 46.7984 112.226 48.7815 106.86 48.7815C100.852 48.7815 97.4881 46.7191 95.1652 45.0533C93.2428 46.2431 91.7209 48.3849 91 51.2406C93.1627 53.065 98.209 56 106.7 56ZM135.532 11.9C138.71 11.9 141.4 9.25556 141.4 5.95C141.4 2.64444 138.71 0 135.532 0C132.19 0 129.5 2.64444 129.5 5.95C129.5 9.25556 132.19 11.9 135.532 11.9ZM135.49 55.3C137.02 55.3 138.55 55.2203 140 54.9014V17.1986C138.55 16.8797 136.94 16.8 135.49 16.8C133.96 16.8 132.43 16.8797 130.9 17.1986V54.9014C132.43 55.2203 134.041 55.3 135.49 55.3ZM193.996 16.1C188.831 16.1 184.151 18.0878 181.004 20.4732C178.179 17.7698 173.983 16.1 168.495 16.1C160.506 16.1 153.566 19.4396 150.5 22.0635V54.9024C152.033 55.2205 153.566 55.3 155.019 55.3C156.552 55.3 158.166 55.2205 159.619 54.9024V26.4367C161.636 25.244 164.461 24.3694 167.446 24.3694C173.66 24.3694 176 28.2655 176 33.6724V54.9024C177.534 55.2205 179.067 55.3 180.681 55.3C182.133 55.3 183.747 55.2205 185.2 54.9024V30.969C185.2 29.7763 185.038 28.5836 184.796 27.4704C186.652 25.9596 189.235 24.3694 192.947 24.3694C199.16 24.3694 201.581 28.2655 201.581 33.6724V54.9024C203.034 55.2205 204.567 55.3 206.181 55.3C207.634 55.3 209.247 55.2205 210.7 54.9024V30.969C210.7 22.7791 205.051 16.1 193.996 16.1ZM237.299 16.1C230.133 16.1 224.162 18.8866 220.5 21.912V69.6019C222.092 69.9204 223.525 70 225.038 70C226.551 70 228.063 69.9204 229.496 69.6019V54.9526C231.885 55.7487 234.432 56.0672 237.617 56.0672C248.126 56.0672 257.6 48.6629 257.6 35.9244C257.6 22.8674 248.843 16.1 237.299 16.1ZM235.633 48.3C232.708 48.3 230.335 47.8192 228.2 46.7774V26.3431C230.493 25.0609 232.945 24.5 235.554 24.5C242.434 24.5 247.1 28.9074 247.1 36.1997C247.1 43.7323 242.434 48.3 235.633 48.3ZM270.2 55.3C271.833 55.3 273.553 55.2201 275.1 54.9006V2.4994C273.467 2.17988 271.747 2.1 270.114 2.1C268.481 2.1 266.847 2.17988 265.3 2.4994V54.9006C267.019 55.2201 268.653 55.3 270.2 55.3ZM319.2 33.1092C319.2 23.0149 312 16.1 301.84 16.1C291.04 16.1 282.8 24.5251 282.8 36.209C282.8 48.5287 290.96 56 302.32 56C309.92 56 314.88 53.2181 318.08 50.6747C317.76 48.3697 316.16 45.8263 314.16 44.5546C311.68 46.3032 308.48 48.4492 302.96 48.4492C296.64 48.4492 292.8 44.6341 292.08 38.4345H318.88C319.12 36.3679 319.2 35.0962 319.2 33.1092ZM291.9 32.9C292.541 27.7114 295.989 23.8 301.601 23.8C307.775 23.8798 310.1 28.4298 310.1 32.9H291.9Z" fill="#1A5EC6"/>
</svg>
