<svg width="492" height="127" viewBox="0 0 492 127" fill="none" xmlns="http://www.w3.org/2000/svg">
<path d="M491.99 67.37C489.19 70.71 488.3 70.8399 483.99 69.6399C471.26 66.0499 462.09 75.4599 462.43 85.1399C462.65 91.3899 462.43 97.6599 462.43 103.92C462.43 104.6 462.43 105.29 462.43 105.92C462.15 108.97 460.05 111.04 457.32 111.01C454.59 110.98 452.64 109.01 452.32 106.01C452.26 105.4 452.32 104.79 452.32 104.17C452.32 91.4499 452.32 78.7266 452.32 66C452.304 64.9124 452.405 63.8262 452.62 62.76C452.822 61.716 453.359 60.7665 454.149 60.0558C454.94 59.3451 455.941 58.9121 457.001 58.8227C458.06 58.7333 459.12 58.9923 460.019 59.5604C460.918 60.1285 461.606 60.9746 461.98 61.97C462.57 63.97 463.23 63.8399 464.77 62.8599C471.21 58.7399 478.22 57.8599 485.59 59.5799C488.177 60.0318 490.479 61.4921 491.99 63.6399V67.37Z" fill="#28A8F1"/>
<path d="M97.85 0C98.56 1.41 98.28 2.93 98.3 4.41C98.3 7.6 98.3 10.79 98.3 13.98C98.3 15.83 97.63 16.76 95.69 16.75C91.27 16.75 86.84 16.75 82.42 16.75C81.18 16.75 79.88 16.53 79.88 15.03C79.88 10.03 79.33 5.03 80.23 0.0299988L97.85 0Z" fill="#28A8F1"/>
<path d="M64.32 59.59H121.21C125.101 59.5299 128.956 58.8305 132.62 57.52C134.04 57.04 134.62 56.52 133.78 54.88C128.61 44.38 131.01 34.69 137.13 25.42C137.91 24.25 138.61 24.42 139.66 25.03C142.922 26.8306 145.779 29.2848 148.05 32.2391C150.321 35.1933 151.958 38.5843 152.86 42.2C153.31 43.94 154.01 44.36 155.64 44.1C160.313 43.3623 165.091 43.6523 169.64 44.95C171.614 45.4922 173.483 46.3609 175.17 47.52C175.488 47.6744 175.77 47.8927 176 48.1612C176.229 48.4296 176.401 48.7426 176.504 49.0804C176.607 49.4182 176.64 49.7737 176.6 50.1246C176.559 50.4755 176.447 50.8144 176.27 51.12C174.016 56.6048 169.767 61.0319 164.38 63.51C160.72 65.3996 156.636 66.3157 152.52 66.17C150.41 66.07 149.38 66.84 148.59 68.8C144.822 78.5274 139.606 87.63 133.12 95.8C123.902 107.134 111.695 115.659 97.88 120.41C82.98 125.7 67.6 127.06 51.88 125.84C44.1821 125.331 36.5959 123.728 29.35 121.08C18.79 117.08 11.72 109.48 7.00998 99.51C2.22495 89.0807 -0.166767 77.7132 0.00998412 66.24C0.00998412 61.72 2.09998 59.59 6.61998 59.59H64.32Z" fill="#28A8F1"/>
<path d="M226.35 64.28V54.91C226.35 50.48 226.35 46.0599 226.35 41.6399C226.294 40.6066 226.585 39.5842 227.178 38.7359C227.771 37.8877 228.63 37.2624 229.62 36.9599C230.588 36.5983 231.644 36.5455 232.643 36.8088C233.643 37.072 234.536 37.6384 235.2 38.4299C235.887 39.2751 236.242 40.3416 236.2 41.4299C236.2 56.8099 236.35 72.18 236.11 87.56C235.95 97.95 226.8 107.95 215.87 110.4C212.421 111.195 208.846 111.281 205.363 110.651C201.88 110.022 198.561 108.69 195.609 106.738C192.657 104.786 190.132 102.253 188.189 99.2948C186.246 96.3362 184.925 93.0134 184.307 89.5283C183.688 86.0433 183.785 82.4688 184.591 79.0224C185.397 75.5759 186.896 72.3294 188.997 69.4804C191.097 66.6313 193.755 64.2392 196.808 62.4495C199.862 60.6599 203.248 59.51 206.76 59.07C213.038 58.212 219.413 59.6926 224.67 63.23C225.11 63.51 225.51 63.75 226.35 64.28ZM210.08 68.97C207.965 68.9156 205.862 69.2901 203.896 70.071C201.93 70.8519 200.143 72.0229 198.642 73.5135C197.141 75.0041 195.958 76.7832 195.164 78.7436C194.369 80.7041 193.98 82.8051 194.02 84.9199C193.996 89.1957 195.665 93.3072 198.663 96.3558C201.661 99.4045 205.744 101.142 210.02 101.19C214.327 101.188 218.46 99.4879 221.522 96.4592C224.585 93.4304 226.33 89.3168 226.38 85.01C226.404 82.8749 225.996 80.7571 225.182 78.7832C224.368 76.8094 223.164 75.02 221.642 73.5224C220.12 72.0248 218.312 70.8498 216.325 70.0675C214.338 69.2853 212.214 68.912 210.08 68.97V68.97Z" fill="#28A8F1"/>
<path d="M424.92 89.88C419.33 89.88 413.74 89.88 408.15 89.88C405.61 89.88 405.51 90.06 406.69 92.38C407.774 94.4734 409.299 96.3065 411.16 97.753C413.021 99.1995 415.174 100.225 417.47 100.758C419.766 101.292 422.151 101.32 424.459 100.842C426.767 100.364 428.944 99.3913 430.84 97.99C431.39 97.58 431.91 97.14 432.46 96.74C434.78 95.06 437.46 95.18 439.15 97.01C440.004 97.9579 440.477 99.1888 440.477 100.465C440.477 101.741 440.004 102.972 439.15 103.92C437.337 105.878 435.146 107.45 432.71 108.54C427.287 111.154 421.133 111.838 415.268 110.478C409.403 109.117 404.179 105.795 400.46 101.06C397.09 96.6616 395.202 91.3078 395.068 85.7686C394.933 80.2294 396.558 74.7901 399.711 70.2332C402.863 65.6763 407.379 62.2364 412.609 60.4084C417.84 58.5804 423.516 58.4584 428.82 60.06C433.809 61.5671 438.237 64.5266 441.537 68.5607C444.838 72.5949 446.861 77.5208 447.35 82.71C447.54 84.71 447.65 86.84 446.04 88.48C445.491 88.9943 444.842 89.3887 444.132 89.6384C443.423 89.888 442.67 89.9873 441.92 89.93C436.21 89.86 430.58 89.88 424.92 89.88ZM421.07 80.02C425.56 80.02 430.07 80.02 434.56 80.02C436.51 80.02 436.69 79.68 435.83 77.88C434.816 75.9441 433.434 74.2252 431.76 72.82C424.25 66.05 411.23 68.48 406.71 77.49C405.59 79.74 405.71 80.02 408.19 80.03L421.07 80.02Z" fill="#28A8F1"/>
<path d="M348.68 73.8C348.68 63.3333 348.68 52.86 348.68 42.38C348.68 38.68 350.43 36.68 353.57 36.71C356.71 36.74 358.57 38.85 358.57 42.38C358.57 53.26 358.57 64.14 358.57 75.02C358.57 75.67 358.24 76.56 358.88 76.92C359.52 77.28 360.1 76.51 360.64 76.16C369.073 70.7533 377.493 65.3333 385.9 59.9C387.68 58.75 389.57 58.38 391.46 59.64C392.306 60.1632 392.977 60.9271 393.387 61.8339C393.797 62.7406 393.927 63.749 393.76 64.73C393.62 65.5023 393.304 66.2317 392.835 66.8614C392.367 67.4912 391.759 68.004 391.06 68.36C385.57 71.91 380.11 75.51 374.57 78.99C372.99 79.99 372.9 80.68 374.15 82.07C380.21 88.78 386.21 95.59 392.21 102.34C394.32 104.72 394.31 107.94 392.21 109.81C390.11 111.68 387.21 111.49 384.97 109.06C378.57 102.01 372.19 94.93 365.92 87.76C364.61 86.25 363.78 85.95 361.92 87.06C359.32 88.6 358.28 90.43 358.48 93.47C358.75 97.6 358.56 101.76 358.53 105.91C358.553 106.903 358.28 107.88 357.746 108.717C357.212 109.554 356.44 110.213 355.53 110.61C354.718 110.983 353.818 111.118 352.933 110.999C352.048 110.88 351.215 110.513 350.53 109.94C349 108.82 348.67 107.21 348.67 105.43C348.69 94.87 348.693 84.3267 348.68 73.8Z" fill="#28A8F1"/>
<path d="M293.55 85.17C293.537 88.5971 292.847 91.9878 291.518 95.1471C290.19 98.3064 288.251 101.172 285.811 103.579C283.372 105.986 280.48 107.887 277.303 109.173C274.127 110.458 270.727 111.103 267.3 111.07C260.37 111.043 253.734 108.265 248.853 103.346C243.971 98.4269 241.243 91.7701 241.27 84.84C241.296 77.9099 244.075 71.2742 248.994 66.3926C253.913 61.511 260.57 58.7835 267.5 58.81C282.1 58.89 294.05 70.99 293.55 85.17ZM251.31 85.03C251.318 89.298 253.011 93.3902 256.02 96.4165C259.029 99.4428 263.112 101.158 267.38 101.19C271.651 101.157 275.741 99.4577 278.778 96.4543C281.815 93.4509 283.559 89.3805 283.64 85.11C283.655 82.9552 283.239 80.8192 282.417 78.8275C281.594 76.8357 280.382 75.0284 278.852 73.5117C277.321 71.995 275.503 70.7995 273.503 69.9956C271.504 69.1916 269.365 68.7953 267.21 68.83C265.1 68.843 263.014 69.2731 261.071 70.0956C259.128 70.918 257.368 72.1166 255.89 73.6222C254.412 75.1279 253.247 76.9109 252.461 78.8687C251.675 80.8265 251.284 82.9205 251.31 85.03Z" fill="#28A8F1"/>
<path d="M298.3 85C298.51 74.67 303.16 66.8 312.24 62C321.48 57.08 330.75 57.79 339.53 63.59C340.429 64.2038 341.254 64.9185 341.99 65.72C342.803 66.5132 343.298 67.5767 343.381 68.7097C343.464 69.8427 343.129 70.9669 342.44 71.87C341.782 72.8446 340.788 73.5426 339.648 73.8304C338.508 74.1182 337.302 73.9756 336.26 73.43C335.383 72.9132 334.535 72.3491 333.72 71.74C327.96 68 321.97 67.82 316.14 71.23C310.31 74.64 307.57 80.18 308.42 86.93C309.29 93.84 313.33 98.45 320.06 100.49C325.06 102.02 329.76 101 334.06 98.06C334.51 97.75 334.92 97.38 335.38 97.06C336.391 96.291 337.662 95.9455 338.923 96.0967C340.184 96.248 341.337 96.8841 342.137 97.8704C342.938 98.8567 343.323 100.116 343.212 101.381C343.1 102.647 342.501 103.819 341.54 104.65C338.984 107.033 335.94 108.833 332.62 109.924C329.299 111.015 325.782 111.372 322.31 110.97C316.414 110.5 310.853 108.04 306.539 103.993C302.225 99.9467 299.415 94.5539 298.57 88.7C298.37 87.5 298.38 86.27 298.3 85Z" fill="#28A8F1"/>
<path d="M67.5 36.41C65.12 36.41 62.73 36.41 60.35 36.41C60.0603 36.4578 59.7636 36.4371 59.4834 36.3496C59.2032 36.2621 58.9474 36.1102 58.7365 35.906C58.5256 35.7019 58.3654 35.4513 58.2687 35.1741C58.1721 34.8969 58.1417 34.601 58.18 34.31C58.18 30.23 58.18 26.15 58.18 22.07C58.1394 21.7438 58.1738 21.4127 58.2806 21.1018C58.3874 20.791 58.5637 20.5086 58.7961 20.2761C59.0285 20.0437 59.3109 19.8674 59.6218 19.7606C59.9326 19.6539 60.2638 19.6194 60.59 19.66C65.23 19.66 69.87 19.66 74.5 19.66C74.8273 19.6286 75.1575 19.6703 75.4668 19.7821C75.776 19.8939 76.0566 20.0731 76.2881 20.3065C76.5197 20.54 76.6965 20.822 76.8058 21.1322C76.915 21.4424 76.954 21.7729 76.92 22.1C76.92 26.1 76.92 30.1 76.92 34.1C76.92 35.73 76.03 36.4 74.45 36.38C72.14 36.38 69.82 36.41 67.5 36.41Z" fill="#28A8F1"/>
<path d="M24.33 56.3899C22.01 56.3899 19.69 56.3399 17.33 56.3899C16.9909 56.4539 16.6414 56.436 16.3106 56.3378C15.9798 56.2396 15.6772 56.0639 15.4278 55.8254C15.1785 55.5868 14.9897 55.2922 14.877 54.9661C14.7643 54.6399 14.7311 54.2915 14.78 53.9499C14.78 49.9999 14.78 46.0599 14.78 42.1099C14.7323 41.7643 14.766 41.4123 14.8784 41.082C14.9909 40.7517 15.1789 40.4523 15.4275 40.2075C15.6762 39.9627 15.9786 39.7794 16.3106 39.6722C16.6426 39.565 16.9951 39.5368 17.34 39.59H31.21C31.521 39.5406 31.8394 39.5654 32.139 39.6624C32.4387 39.7594 32.7112 39.9257 32.9344 40.1479C33.1576 40.3702 33.3252 40.642 33.4235 40.9412C33.5217 41.2404 33.5479 41.5587 33.5 41.87C33.5 45.95 33.5 50.0299 33.5 54.1099C33.5423 54.418 33.5123 54.7317 33.4122 55.0261C33.3121 55.3205 33.1447 55.5875 32.9234 55.8059C32.7021 56.0243 32.4329 56.1881 32.1372 56.2843C31.8415 56.3805 31.5274 56.4064 31.22 56.3599C28.9 56.3599 26.58 56.3599 24.27 56.3599L24.33 56.3899Z" fill="#28A8F1"/>
<path d="M67.34 56.39C65.16 56.39 62.98 56.39 60.8 56.39C59.01 56.39 58.14 55.67 58.15 53.85C58.15 49.98 58.15 46.1 58.15 42.22C58.15 40.34 59.05 39.54 60.94 39.57C65.23 39.63 69.53 39.57 73.82 39.57C76.3 39.57 76.89 40.15 76.91 42.57C76.91 46.18 76.91 49.78 76.91 53.39C76.91 55.87 76.36 56.39 73.91 56.39H67.34Z" fill="#28A8F1"/>
<path d="M110.75 56.39C108.5 56.39 106.25 56.39 104 56.39C102.27 56.39 101.52 55.59 101.53 53.91C101.53 49.96 101.53 46.01 101.53 42.07C101.53 40.36 102.33 39.59 104.03 39.6C108.53 39.6 113.03 39.6 117.54 39.6C119.37 39.6 120.07 40.43 120.04 42.24C119.967 46.1133 119.967 49.99 120.04 53.87C120.04 55.7 119.36 56.48 117.5 56.42C115.26 56.33 113 56.39 110.75 56.39Z" fill="#28A8F1"/>
<path d="M45.6599 36.41C43.3499 36.41 41.0299 36.41 38.6599 36.41C37.1599 36.41 36.36 35.84 36.37 34.26C36.37 30.18 36.37 26.1 36.37 22.02C36.3144 21.7119 36.332 21.395 36.4214 21.0948C36.5107 20.7947 36.6692 20.5198 36.8842 20.2921C37.0992 20.0645 37.3647 19.8905 37.6592 19.7842C37.9537 19.6779 38.2691 19.6422 38.58 19.68C43.2466 19.64 47.95 19.64 52.69 19.68C54.16 19.68 54.88 20.52 54.87 22.04C54.87 26.12 54.87 30.2 54.87 34.28C54.87 35.72 54.2299 36.41 52.7699 36.4C50.4399 36.39 48.0499 36.41 45.6599 36.41Z" fill="#28A8F1"/>
<path d="M89.13 36.41C86.82 36.41 84.5 36.41 82.18 36.41C80.57 36.41 79.79 35.8 79.81 34.13C79.81 30.13 79.81 26.13 79.81 22.13C79.7583 21.8065 79.7823 21.4755 79.8801 21.1629C79.9778 20.8503 80.1466 20.5646 80.3734 20.3282C80.6001 20.0918 80.8785 19.9112 81.1867 19.8004C81.495 19.6897 81.8247 19.6519 82.15 19.69C86.78 19.69 91.42 19.69 96.05 19.69C97.63 19.69 98.34 20.59 98.32 22.19C98.28 26.19 98.28 30.19 98.32 34.19C98.32 35.75 97.64 36.42 96.1 36.4C93.77 36.38 91.45 36.41 89.13 36.41Z" fill="#28A8F1"/>
<path d="M45.71 56.39C43.46 56.39 41.21 56.39 38.96 56.39C37.28 56.39 36.41 55.71 36.42 53.98C36.42 49.98 36.42 45.98 36.42 41.98C36.42 40.35 37.26 39.64 38.83 39.64H52.53C52.8537 39.5868 53.1854 39.6112 53.4978 39.7113C53.8101 39.8114 54.0943 39.9843 54.3267 40.2158C54.5591 40.4472 54.7332 40.7306 54.8347 41.0426C54.9361 41.3545 54.9619 41.6861 54.91 42.01C54.91 46.09 54.91 50.17 54.91 54.25C54.91 55.81 54.17 56.45 52.65 56.42C50.34 56.36 48.03 56.39 45.71 56.39Z" fill="#28A8F1"/>
<path d="M89.12 56.39C86.87 56.39 84.62 56.39 82.37 56.39C80.7 56.39 79.81 55.73 79.82 53.99C79.82 49.99 79.82 45.99 79.82 41.99C79.82 40.37 80.62 39.63 82.21 39.63H95.92C96.2431 39.5776 96.574 39.6022 96.8857 39.7018C97.1975 39.8014 97.4814 39.9732 97.7142 40.2032C97.9471 40.4331 98.1225 40.7148 98.226 41.0253C98.3295 41.3357 98.3583 41.6663 98.31 41.99C98.31 46.07 98.31 50.15 98.31 54.23C98.31 55.78 97.6 56.45 96.07 56.42C93.75 56.36 91.44 56.38 89.12 56.39Z" fill="#28A8F1"/>
<path d="M477.57 107.2C477.538 108.084 477.182 108.925 476.57 109.563C475.958 110.201 475.132 110.592 474.25 110.66C473.326 110.723 472.415 110.418 471.716 109.81C471.017 109.203 470.587 108.344 470.52 107.42C470.531 106.51 470.893 105.64 471.53 104.99C472.167 104.341 473.03 103.962 473.94 103.934C474.849 103.905 475.734 104.229 476.411 104.838C477.087 105.446 477.502 106.293 477.57 107.2ZM474.12 106.51C474.06 106.51 473.99 106.42 473.95 106.44C473.91 106.46 473.89 106.54 473.87 106.6C473.85 106.66 473.99 106.68 474.03 106.67C474.07 106.66 474.09 106.59 474.12 106.51Z" fill="#28A8F1"/>
</svg>
