<svg width="150" height="37" viewBox="0 0 150 37" fill="none" xmlns="http://www.w3.org/2000/svg">
<g clip-path="url(#clip0_1_13)">
<path d="M21.0027 0.186523L0.0661621 36.4273H2.97087L21.0027 5.37195V10.4811L5.9764 36.4273H8.98193L21.0027 15.691V20.8996L11.9875 36.4273H14.993L21.004 26.1096V31.2187L17.9985 36.4273H41.9406L21.0027 0.186523Z" fill="#DA291C"/>
<path d="M42.6599 17.6665H52.1111V19.6856H44.9229V22.9827H51.3236V25.0018H44.9229V28.3984H52.2092V30.4175H42.6722L42.6599 17.6665ZM66.636 17.6665L62.2054 23.8697L66.8336 30.3685H64.1768L60.8307 25.495L57.4832 30.3685H54.9218L59.4996 23.8697L55.069 17.6025H57.7257L60.877 22.1802L64.0787 17.6025H66.6401L66.636 17.6665ZM68.6551 24.0672C68.6551 20.4241 71.4127 17.4703 75.3501 17.4703C79.2399 17.4703 81.9961 20.4241 81.9961 24.0182C81.9961 27.6123 79.2385 30.6151 75.3011 30.6151C71.4114 30.6151 68.6551 27.6613 68.6551 24.0672V24.0672ZM79.6336 24.0672C79.6336 21.5562 77.8121 19.5385 75.3011 19.5385C72.7901 19.5385 71.0176 21.5576 71.0176 24.0182C71.0176 26.4787 72.8392 28.5469 75.3501 28.5469C77.8611 28.5469 79.6336 26.5278 79.6336 24.0672ZM84.7537 28.5469L86.0834 26.9229C87.3137 27.9583 88.5453 28.5987 90.1203 28.5987C91.4991 28.5987 92.3847 27.9583 92.3847 26.9746V26.9256C92.3847 26.04 91.8942 25.5468 89.529 24.9569C86.8218 24.3165 85.2946 23.48 85.2946 21.1666V21.1175C85.2946 18.9376 87.1161 17.439 89.6271 17.439C91.4977 17.439 92.9746 17.9799 94.2553 19.063L93.074 20.7388C91.9432 19.9022 90.7606 19.409 89.6271 19.409C88.2974 19.409 87.5589 20.0984 87.5589 20.935V20.984C87.5589 21.9691 88.1502 22.4118 90.6108 23.0031C93.3179 23.6435 94.6981 24.6272 94.6981 26.7444V26.7934C94.6981 29.1559 92.8275 30.5837 90.1693 30.5837C88.1776 30.5977 86.2501 29.8791 84.7537 28.5646V28.5469ZM97.7009 24.0672C97.7009 20.4241 100.408 17.4703 104.249 17.4703C106.611 17.4703 108.039 18.3068 109.271 19.439L107.843 21.1148C106.807 20.1788 105.726 19.5398 104.249 19.5398C101.837 19.5398 100.066 21.5086 100.066 24.0195C100.066 26.5305 101.837 28.5482 104.249 28.5482C105.824 28.5482 106.81 27.9079 107.892 26.9242L109.333 28.4025C108.004 29.7813 106.527 30.6668 104.164 30.6668C100.486 30.6178 97.7145 27.7131 97.7145 24.0699L97.7009 24.0672ZM117.245 17.5684H119.313L124.926 30.3685H122.549L121.268 27.3166H115.274L113.944 30.3685H111.63L117.245 17.5684ZM120.447 25.3343L118.231 20.2633L116.051 25.3343H120.447ZM128.127 17.6542H130.342V28.3357H137.037V30.3548H128.127V17.6542ZM140.386 17.6542H149.838V19.6734H142.65V22.9704H149.051V24.9896H142.65V28.3861H149.934V30.4325H140.397L140.386 17.6542Z" fill="black"/>
</g>
<defs>
<clipPath id="clip0_1_13">
<rect width="150" height="36.5079" fill="white"/>
</clipPath>
</defs>
</svg>
