<svg width="181" height="70" viewBox="0 0 181 70" fill="none" xmlns="http://www.w3.org/2000/svg">
<path d="M123.018 7.18416V54.3476H137.184V47.1417H132.503V0L123.016 0.000723043L123.018 7.18416ZM0 47.141H4.81547V24.3868H0V18.1289L4.81547 17.3371V11.0026C4.81547 3.32961 6.4857 0 16.2714 0C18.3848 0 20.8894 0.312355 23.0824 0.707136L21.7824 8.41984C20.2966 8.18485 19.5605 8.14291 18.6213 8.14291C15.1738 8.14291 14.3018 8.48708 14.3018 11.855V17.3371H21.4592V24.3868H14.3018V47.141H19.0674V54.3461L0 54.3476V47.141ZM118.192 44.8634C116.709 45.1765 115.41 45.1389 114.472 45.162C110.569 45.2582 110.906 43.9748 110.906 40.2952V24.3868H118.334V17.3371H110.906V0H101.419V42.2626C101.419 50.5603 103.467 54.3468 112.391 54.3468C114.505 54.3468 117.409 53.8031 119.602 53.3339L118.192 44.8634ZM89.5771 24.3738V23.1114C86.7074 22.5879 83.8571 22.5806 82.3113 22.5806C77.8964 22.5806 77.3577 24.9211 77.3577 26.1908C77.3577 27.9861 77.9708 28.9572 82.753 30.0027C89.7441 31.5724 96.7656 33.2101 96.7656 41.8787C96.7656 50.0997 92.5344 54.3468 83.6286 54.3468C77.6693 54.3468 71.8864 53.067 67.4744 51.9478V44.8634H74.6586L74.6542 46.1222C77.7452 46.7194 80.9874 46.6594 82.6793 46.6594C87.3885 46.6594 88.1506 44.1281 88.1506 42.7818C88.1506 40.9141 86.7999 40.0168 82.3857 39.1217C74.07 37.7009 67.4693 34.8615 67.4693 26.4142C67.4693 18.4181 72.817 15.2822 81.7234 15.2822C87.7572 15.2822 92.3449 16.2179 96.7591 17.3379V24.3752L89.5771 24.3738ZM41.52 44.8424V43.7275H40.3834V44.8395C35.2917 44.5431 31.2196 40.4521 30.9535 35.3525H32.0829V34.2159H30.9593C31.2608 29.1517 35.3171 25.1005 40.3834 24.8047V25.9226H41.52V24.8004C46.5134 25.0672 50.5364 28.9846 50.9709 33.9317V34.2578H49.8321V35.3944H50.9709V35.7053C50.5386 40.656 46.5155 44.5749 41.52 44.8424ZM60.4609 44.8634L60.4544 15.3423H50.968V18.1108C48.9811 16.9185 46.7968 16.0921 44.5178 15.6705H44.5713V12.3951H45.7289V9.98595H36.1768V12.3951H37.3343V15.6712H37.4001C28.3267 17.3415 21.4513 25.2863 21.4513 34.8427C21.4513 45.6125 30.182 54.3432 40.951 54.3432C44.4918 54.3483 47.9667 53.3852 50.9984 51.5566L52.707 54.3461H62.7276V44.8641L60.4609 44.8634ZM161.194 17.3371H180.761V24.3803H176.083L164.084 53.9022C160.645 62.1947 154.996 70 146.394 70C144.278 70 141.462 69.7657 139.51 69.2965L140.368 60.6865C141.621 60.9207 143.262 61.0748 144.124 61.0748C148.113 61.0748 152.613 58.6034 154.021 54.2991L141.862 24.3803H137.184V17.3371H156.761V24.3803H152.085L158.973 41.327L165.86 24.3803H161.194V17.3371ZM45.9306 30.6014L45.2083 29.879L41.5417 33.0742C41.353 33.0055 41.1535 32.9708 40.9525 32.9701C39.9626 32.9701 39.1622 33.7943 39.1622 34.8102C39.1622 35.8275 39.9626 36.6518 40.9525 36.6518C41.9416 36.6518 42.7442 35.8275 42.7442 34.8102C42.7442 34.6171 42.7152 34.432 42.6617 34.2563L45.9306 30.6014Z" fill="#D52F2F"/>
</svg>
