<svg width="510" height="255" viewBox="0 0 510 255" fill="none" xmlns="http://www.w3.org/2000/svg">
<g clip-path="url(#clip0_1_2)">
<path d="M3.77125 67.8431C2.7397 67.1724 1.89202 66.2547 1.3052 65.1733C0.718378 64.0918 0.411011 62.8809 0.411011 61.6506C0.411011 60.4202 0.718378 59.2093 1.3052 58.1278C1.89202 57.0464 2.7397 56.1287 3.77125 55.458L86.5154 1.66383C87.7136 0.884827 89.1121 0.470184 90.5413 0.470184C91.9705 0.470184 93.369 0.884827 94.5672 1.66383L177.311 55.458C178.343 56.1286 179.191 57.0464 179.777 58.1278C180.364 59.2092 180.672 60.4201 180.672 61.6505C180.672 62.8809 180.364 64.0918 179.777 65.1733C179.191 66.2547 178.343 67.1724 177.311 67.8431L94.5672 121.637C93.369 122.416 91.9705 122.831 90.5413 122.831C89.1121 122.831 87.7136 122.416 86.5154 121.637L3.77125 67.8431Z" fill="#326CE5"/>
<path d="M103.606 77.3365H109.346C110.11 77.3365 110.861 77.1353 111.523 76.7531C112.185 76.3709 112.735 75.8212 113.117 75.1592C113.5 74.4972 113.701 73.7462 113.701 72.9818C113.701 72.2174 113.499 71.4665 113.117 70.8045L94.3127 38.2336C93.9305 37.5716 93.3808 37.0218 92.7188 36.6396C92.0568 36.2574 91.3058 36.0562 90.5414 36.0562C89.7769 36.0562 89.026 36.2574 88.364 36.6396C87.702 37.0218 87.1522 37.5716 86.77 38.2336L67.9653 70.8045C67.5831 71.4664 67.3818 72.2174 67.3818 72.9818C67.3818 73.7462 67.583 74.4972 67.9652 75.1592C68.3475 75.8212 68.8972 76.3709 69.5592 76.7531C70.2212 77.1353 70.9722 77.3365 71.7366 77.3365H77.4765C78.6314 77.3365 79.7391 77.7953 80.5558 78.6119C81.3724 79.4286 81.8312 80.5363 81.8312 81.6912V118.871L85.6832 121.376C87.1291 122.316 88.8167 122.816 90.5412 122.816C92.2658 122.816 93.9534 122.316 95.3992 121.376L99.2514 118.871V81.6912C99.2514 81.1194 99.3641 80.5531 99.5829 80.0247C99.8018 79.4964 100.123 79.0163 100.527 78.6119C100.931 78.2076 101.411 77.8868 101.94 77.6679C102.468 77.4491 103.034 77.3365 103.606 77.3365V77.3365Z" fill="#C1D2F7"/>
<path d="M119.208 149.218L99.2515 136.244V142.393C105.743 145.114 112.41 147.394 119.208 149.218V149.218ZM99.2515 153.447V162.079C105.846 164.092 112.518 165.745 119.123 167.373C140.691 172.689 161.062 177.711 177.445 194.094C178.276 194.925 179.057 195.773 179.831 196.623C180.685 194.992 180.9 193.101 180.434 191.32C179.968 189.539 178.854 187.995 177.31 186.992L144.898 165.92C137.032 163.322 129.014 161.338 121.092 159.386C113.624 157.545 106.316 155.707 99.2515 153.447V153.447ZM81.8313 146.368C79.0033 144.935 76.2625 143.336 73.6231 141.581L66.211 146.399C71.0975 149.967 76.3306 153.034 81.8312 155.554L81.8313 146.368ZM106.633 173.845C104.155 173.234 101.694 172.62 99.2515 172.004V180.487C101.059 180.94 102.863 181.389 104.664 181.832C126.232 187.148 146.604 192.17 162.987 208.553C163.015 208.581 163.04 208.61 163.068 208.638L170.075 204.083C169.647 203.635 169.246 203.178 168.804 202.735C150.8 184.732 128.347 179.197 106.633 173.845V173.845ZM81.8313 166.952C72.4579 163.742 63.576 159.611 55.4716 153.381L48.2144 158.099C58.5338 166.611 70.0221 171.775 81.8313 175.603V166.952ZM81.8313 185.697C65.6979 181.469 50.5272 176.308 37.5645 165.023L30.4314 169.661C45.6545 183.687 63.7655 189.55 81.8313 194.194V185.697ZM99.2515 198.56C116.128 202.916 131.998 208.127 145.44 220.098L152.534 215.486C136.828 200.723 117.978 194.828 99.2515 190.069V198.56ZM19.8922 176.512L12.8507 181.09C13.0982 181.344 13.3234 181.606 13.5759 181.859C31.5796 199.863 54.0326 205.398 75.7459 210.75C94.5496 215.385 112.442 219.801 127.576 231.712L134.792 227.021C117.742 212.665 97.43 207.622 77.7153 202.763C56.3635 197.5 36.1898 192.508 19.8922 176.512V176.512ZM4.9341 190.501C4.11454 189.681 3.344 188.844 2.57993 188.005C1.8061 188.781 1.21502 189.719 0.849756 190.752C0.484494 191.785 0.354251 192.887 0.468515 193.976C0.58278 195.066 0.938674 196.116 1.51027 197.051C2.08186 197.985 2.85476 198.781 3.77265 199.379L28.1372 215.219C38.9205 219.684 50.1985 222.476 61.2874 225.209C78.601 229.476 95.1387 233.568 109.466 243.486L116.836 238.694C100.542 226.446 81.6397 221.753 63.2568 217.221C41.6888 211.905 21.3169 206.883 4.9341 190.501V190.501ZM84.2181 251.679C85.8396 252.467 87.444 253.296 89.0221 254.189C90.9324 254.598 92.9271 254.232 94.5678 253.172L98.6579 250.513C85.5209 241.726 70.9148 237.277 56.3605 233.568L84.2181 251.679Z" fill="#326CE5"/>
<path d="M250.945 59.5466C242.671 59.5466 236.006 62.2389 230.949 67.6236C225.892 73.01 223.364 80.6271 223.365 90.4749V97.7629H207.606V110.961H223.365V192.911H238.14V110.961H257.446V97.7629H238.14V90.4749C238.14 84.4357 239.42 79.8063 241.982 76.5868C244.542 73.3696 248.252 71.7605 253.111 71.7595C254.747 71.7301 256.376 71.963 257.938 72.4492C259.214 72.8635 260.437 73.4257 261.582 74.1244L265.325 62.8955C263.332 61.6531 261.129 60.785 258.824 60.3338C256.232 59.8005 253.591 59.5367 250.945 59.5466V59.5466ZM281.196 61.516H295.971V192.91H281.196V61.516ZM386.825 167.696C383.658 171.86 379.625 175.287 375.006 177.743C370.029 180.593 364.391 182.088 358.655 182.076C355.736 182.104 352.825 181.773 349.987 181.092C347.463 180.49 345.128 179.272 343.191 177.546C341.205 175.714 339.714 173.41 338.857 170.848C337.78 167.476 337.281 163.946 337.38 160.407V97.7629H322.605V164.938C322.605 175.314 325.166 182.964 330.288 187.887C335.41 192.812 342.962 195.274 352.942 195.274C359.735 195.347 366.439 193.722 372.445 190.547C377.868 187.773 382.74 184.034 386.825 179.515V192.911H401.599V97.7629H386.825V167.696ZM473.304 144.056L507.778 97.763H490.639L464.242 134.01L437.845 97.763H420.707L455.181 144.056L418.737 192.911H435.679L464.242 153.906L492.807 192.911H509.945L473.304 144.056V144.056Z" fill="#1A1A1A"/>
</g>
<defs>
<clipPath id="clip0_1_2">
<rect width="510" height="255" fill="white"/>
</clipPath>
</defs>
</svg>
