<svg width="40" height="40" viewBox="0 0 40 40" fill="none" xmlns="http://www.w3.org/2000/svg">
<rect width="40" height="40" fill="white"/>
<mask id="path-1-inside-1_1_669" fill="white">
<rect y="1" width="40" height="39" rx="0.25"/>
</mask>
<rect y="1" width="40" height="39" rx="0.25" stroke="#202124" stroke-width="2" mask="url(#path-1-inside-1_1_669)"/>
<path d="M0 0.25C0 0.111929 0.111929 0 0.25 0H39.75C39.8881 0 40 0.111929 40 0.25V2.75H0V0.25Z" fill="#202124"/>
<circle cx="1.11438" cy="1.35449" r="0.35" fill="#FF6058" stroke="#E14942" stroke-width="0.05"/>
<circle cx="2.2644" cy="1.35449" r="0.35" fill="#FFC130" stroke="#E1A325" stroke-width="0.05"/>
<circle cx="3.41443" cy="1.35449" r="0.35" fill="#27CA40" stroke="#3EAF3F" stroke-width="0.05"/>
<g clip-path="url(#clip0_1_669)">
<path d="M31.952 16.5655C31.3027 14.2472 29.9992 12.2059 28.2493 10.6455L24.3773 14.5175C25.7895 15.667 26.7419 17.3587 26.9154 19.2737V20.5436C26.9373 20.5436 26.9575 20.5368 26.9794 20.5368C28.9347 20.5368 30.5263 22.1284 30.5263 24.0838C30.5263 26.0392 28.9347 27.6316 26.9794 27.6316C26.9575 27.6316 26.9373 27.6257 26.9154 27.6248V27.6316H21.3019H20V33.1053H26.9154V33.1019C26.9373 33.1019 26.9575 33.1053 26.9794 33.1053C31.9537 33.1053 36 29.0581 36 24.0846C36 20.9478 34.3882 18.1823 31.952 16.5655Z" fill="#1976D2"/>
<path opacity="0.5" d="M16.261 22.6548L20.2357 18.68C20.2324 18.6758 20.229 18.6724 20.2265 18.6691L16.2543 22.6413C16.256 22.6455 16.2585 22.6497 16.261 22.6548Z" fill="#FFE082"/>
<path opacity="0.5" d="M16.261 22.6548L20.2357 18.68C20.2324 18.6758 20.229 18.6724 20.2265 18.6691L16.2543 22.6413C16.256 22.6455 16.2585 22.6497 16.261 22.6548Z" fill="#90CAF9"/>
<path d="M20 7.48505C13.1512 7.48505 7.57898 13.0573 7.57898 19.9061C7.57898 20.1023 7.59919 20.2935 7.60845 20.4872H13.0821C13.0661 20.2952 13.0527 20.1023 13.0527 19.9061C13.0527 16.0754 16.1693 12.9587 20 12.9587C21.6581 12.9587 23.1815 13.5448 24.3773 14.5175L28.2493 10.6455C26.0531 8.68673 23.1672 7.48505 20 7.48505Z" fill="#FF3D00"/>
<path opacity="0.5" d="M13.0206 27.6316C13.0198 27.6316 13.0198 27.6316 13.019 27.6316C12.5044 27.6316 12.0185 27.5162 11.5773 27.3175L7.61096 31.2838C9.12086 32.4215 10.9903 33.1053 13.019 33.1053C13.0198 33.1053 13.0198 33.1053 13.0206 33.1053H20V27.6316H13.0206Z" fill="#90CAF9"/>
<path d="M13.0206 27.6316C13.0198 27.6316 13.0198 27.6316 13.019 27.6316C12.5044 27.6316 12.0185 27.5162 11.5773 27.3175L7.61096 31.2838C9.12086 32.4215 10.9903 33.1053 13.019 33.1053C13.0198 33.1053 13.0198 33.1053 13.0206 33.1053H20V27.6316H13.0206Z" fill="#4CAF50"/>
<path d="M9.47368 24.0863C9.47368 22.1326 11.0653 20.5411 13.0189 20.5411C14.4531 20.5411 15.6952 21.4025 16.2535 22.6413L20.2257 18.6691C18.5743 16.4779 15.9604 15.0674 13.0181 15.0674C8.05053 15.0674 4 19.1095 4 24.0863C4 27.0261 5.424 29.6358 7.61095 31.2838L11.5773 27.3175C10.3411 26.7634 9.47368 25.5255 9.47368 24.0863Z" fill="#FFC107"/>
</g>
<defs>
<clipPath id="clip0_1_669">
<rect width="32" height="26.1053" fill="white" transform="translate(4 7)"/>
</clipPath>
</defs>
</svg>
