<svg width="200" height="25" viewBox="0 0 200 25" fill="none" xmlns="http://www.w3.org/2000/svg">
<g clip-path="url(#clip0)">
<path d="M194.323 15.5661C196.143 15.2516 197.858 14.4945 199.317 13.3613V13.3613C199.982 12.6649 200.491 11.8347 200.81 10.9261C201.13 10.0175 201.252 9.05122 201.169 8.09172C201.174 6.51199 200.739 4.96207 199.912 3.61592C199.311 2.5915 198.464 1.73331 197.448 1.11919C196.431 0.505075 195.277 0.154481 194.091 0.0992173H192.889L190.078 0H177.356C176.585 0 176.254 0.3197 176.254 1.10241V23.3932C176.254 24.1649 176.574 24.4956 177.356 24.4956H180.664C181.435 24.4956 181.766 24.1759 181.766 23.3932V16.0071H185.812C186.702 16.0535 187.547 16.4082 188.204 17.0103L194.62 23.4594C195.205 24.0575 195.99 24.4187 196.825 24.4736H201.753C202.525 24.4736 202.712 24.0216 202.172 23.4704L194.323 15.5661ZM193.485 10.8257H181.744V5.2034H193.485C194.06 5.27411 194.59 5.55538 194.97 5.99302C195.351 6.43065 195.556 6.99366 195.546 7.57359V8.44449C195.556 9.02565 195.351 9.59006 194.971 10.0295C194.591 10.4689 194.061 10.7525 193.485 10.8257V10.8257Z" fill="#D50C2D"/>
<path d="M170.742 19.3143H152.519V14.7172H167.06C167.832 14.7172 168.162 14.3975 168.162 13.6148V10.936C168.162 10.1643 167.843 9.83354 167.06 9.83354H152.508V5.24749H170.742C171.514 5.24749 171.844 4.92779 171.844 4.14508V1.10241C171.844 0.330724 171.525 0 170.742 0H148.01C147.238 0 146.908 0.3197 146.908 1.10241V23.4153C146.908 24.187 147.227 24.5177 148.01 24.5177H170.742C171.514 24.5177 171.844 24.198 171.844 23.4153V20.4057C171.844 19.634 171.481 19.3143 170.742 19.3143Z" fill="#D50C2D"/>
<path d="M142.465 8.04763C142.489 6.48766 142.056 4.95476 141.219 3.63797C140.614 2.58814 139.757 1.7057 138.726 1.07049C137.694 0.435278 136.52 0.0673507 135.31 0L118.598 0C117.815 0 117.495 0.3197 117.495 1.10241V23.3932C117.495 24.1649 117.815 24.4956 118.598 24.4956H122.192C122.963 24.4956 123.294 24.187 123.294 23.3932V5.21442H132.973C135.035 5.21442 137.041 6.58141 137.041 8.64293V23.4153C137.041 24.187 137.361 24.5177 138.144 24.5177H141.396C142.178 24.5177 142.498 24.198 142.498 23.4153L142.465 8.04763Z" fill="#D50C2D"/>
<path d="M82.5709 19.171H66.8615L82.6039 5.33569C82.9198 5.09391 83.1812 4.78833 83.3711 4.43885C83.5611 4.08936 83.6753 3.70379 83.7064 3.30724V1.10241C83.7064 0.330724 83.3756 0 82.6039 0H59.817C59.0454 0 58.7146 0.3197 58.7146 1.10241V4.1561C58.7146 4.92779 59.0343 5.25852 59.817 5.25852H74.424L59.7729 19.0056C59.4596 19.2497 59.1999 19.5559 59.0103 19.9049C58.8206 20.2539 58.7049 20.6383 58.6705 21.0341V23.4263C58.6705 24.198 58.9902 24.5287 59.7729 24.5287H82.5378C83.3095 24.5287 83.6402 24.209 83.6402 23.4263V20.2624C83.6623 19.4907 83.3426 19.171 82.5709 19.171Z" fill="#D50C2D"/>
<path d="M111.972 0H89.2184C88.4357 0 88.116 0.308676 88.116 1.10241V4.14508C88.116 4.91677 88.4246 5.24749 89.2184 5.24749H97.7952V23.4153C97.7952 24.187 98.1149 24.5177 98.8976 24.5177H102.536C103.307 24.5177 103.638 24.198 103.638 23.4153V5.23647H111.983C112.755 5.23647 113.086 4.91677 113.086 4.13405V1.10241C113.064 0.352773 112.744 0 111.972 0Z" fill="#D50C2D"/>
<path d="M53.1584 19.3143H34.9686V14.7172H49.5094C50.2811 14.7172 50.6118 14.3975 50.6118 13.6148V10.936C50.6118 10.1643 50.3031 9.83354 49.5094 9.83354H34.9686V5.24749H53.1584C53.9301 5.24749 54.2608 4.92779 54.2608 4.14508V1.10241C54.2608 0.330724 53.9411 0 53.1584 0H30.4707C29.699 0 29.3683 0.3197 29.3683 1.10241V23.4153C29.3683 24.187 29.688 24.5177 30.4707 24.5177H53.1584C53.9301 24.5177 54.2608 24.198 54.2608 23.4153V20.4057C54.2498 19.634 53.9301 19.3143 53.1584 19.3143Z" fill="#D50C2D"/>
<path d="M23.8452 0H20.4167C19.645 0 19.3143 0.3197 19.3143 1.10241V9.77842H5.65539V1.10241C5.65539 0.330724 5.33569 0 4.55297 0H1.10241C0.3197 0 0 0.3197 0 1.10241V23.4263C0 24.209 0.3197 24.5287 1.10241 24.5287H4.55297C5.32466 24.5287 5.65539 24.22 5.65539 23.4263V14.607H19.3253V23.4263C19.3253 24.198 19.645 24.5287 20.4277 24.5287H23.8562C24.6279 24.5287 24.9587 24.209 24.9587 23.4263V1.10241C24.9366 0.352773 24.6169 0 23.8452 0Z" fill="#D50C2D"/>
</g>
<defs>
<clipPath id="clip0">
<rect width="200" height="24.5177" fill="white"/>
</clipPath>
</defs>
</svg>
