<svg width="94" height="50" viewBox="0 0 94 50" fill="none" xmlns="http://www.w3.org/2000/svg">
<path d="M12.9306 49.0526L0.899658 43.0422H32.9686L12.9306 49.0526Z" fill="#466BB0"/>
<path d="M12.9306 16.9836L0.899658 41.0353L12.9306 39.0285V16.9836Z" fill="#466BB0"/>
<path d="M14.9272 0.949158V39.0285L32.9686 41.0353L14.9272 0.949158Z" fill="#466BB0"/>
<path d="M45.4965 17.3308V36.3478H41.3063V17.3308H45.4965Z" fill="black"/>
<path d="M51.9429 32.9014C52.1164 33.1989 52.3396 33.4221 52.5875 33.6205C52.8603 33.8188 53.1578 33.9428 53.5049 34.042C53.852 34.1411 54.1991 34.1659 54.5711 34.1659C54.8438 34.1659 55.1165 34.1411 55.4141 34.0667C55.7116 33.9924 55.9843 33.918 56.2075 33.7692C56.4554 33.6452 56.6537 33.4469 56.8025 33.2485C56.9513 33.0254 57.0505 32.7527 57.0505 32.4055C57.0505 31.8353 56.6785 31.4138 55.9099 31.1162C55.1661 30.8435 54.1 30.546 52.7611 30.2733C52.2156 30.1493 51.6702 30.0005 51.1495 29.827C50.6288 29.6534 50.1577 29.4303 49.761 29.1575C49.3643 28.8848 49.0172 28.5377 48.7693 28.1162C48.5213 27.6947 48.3973 27.1988 48.3973 26.5789C48.3973 25.6864 48.5709 24.9673 48.918 24.3971C49.2651 23.8268 49.7114 23.3805 50.2817 23.0582C50.852 22.7359 51.4966 22.4879 52.1908 22.364C52.9099 22.24 53.6289 22.1656 54.3727 22.1656C55.1165 22.1656 55.8355 22.24 56.5298 22.3888C57.224 22.5375 57.8439 22.7607 58.4141 23.1078C58.9596 23.4549 59.4307 23.9012 59.7778 24.4467C60.1497 25.0169 60.3481 25.7112 60.4224 26.5542H56.8273C56.7777 25.8351 56.505 25.3393 56.0091 25.0665C55.5132 24.8186 54.9182 24.6698 54.2487 24.6698C54.0256 24.6698 53.8024 24.6946 53.5545 24.7194C53.3066 24.7442 53.0834 24.7938 52.8851 24.893C52.6867 24.9921 52.5132 25.1161 52.3644 25.2897C52.2156 25.4632 52.1412 25.6864 52.1412 25.9591C52.1412 26.3062 52.2652 26.5789 52.5132 26.7773C52.7611 27.0004 53.0834 27.174 53.4801 27.298C53.8768 27.422 54.3479 27.5459 54.8438 27.6451C55.3645 27.7443 55.8851 27.8682 56.4058 27.9922C56.9513 28.1162 57.4967 28.2649 58.0174 28.4385C58.5381 28.6121 59.0092 28.86 59.4059 29.1327C59.8026 29.4303 60.1497 29.7774 60.3976 30.2237C60.6456 30.67 60.7696 31.1906 60.7696 31.8353C60.7696 32.7527 60.596 33.4965 60.2241 34.1163C59.8522 34.7362 59.3811 35.2321 58.8108 35.604C58.2158 35.9759 57.5463 36.2486 56.8025 36.3974C56.0587 36.5461 55.2901 36.6205 54.4967 36.6205C53.7033 36.6205 52.9099 36.5461 52.166 36.3726C51.3974 36.2238 50.728 35.9511 50.1329 35.5792C49.5379 35.2073 49.042 34.7114 48.6701 34.0915C48.2982 33.4717 48.075 32.7031 48.0502 31.7857H51.6454C51.6949 32.2568 51.7693 32.6039 51.9429 32.9014V32.9014Z" fill="black"/>
<path d="M70.6128 22.5623V25.0913H67.8606V31.9096C67.8606 32.5543 67.9598 32.9758 68.183 33.1989C68.4061 33.4221 68.8276 33.5213 69.4722 33.5213C69.6954 33.5213 69.8937 33.5213 70.0921 33.4965C70.2904 33.4717 70.464 33.4469 70.6624 33.4221V36.3478C70.34 36.3974 69.9929 36.4469 69.5962 36.4469C69.1995 36.4717 68.8276 36.4717 68.4557 36.4717C67.8606 36.4717 67.3152 36.4222 66.7945 36.3478C66.2738 36.2734 65.8027 36.1246 65.406 35.8767C65.0093 35.6535 64.687 35.3064 64.4639 34.8849C64.2407 34.4634 64.1167 33.8932 64.1167 33.1989V25.0913H61.8357V22.5623H64.1167V18.4465H67.8606V22.5623H70.6128Z" fill="black"/>
<path d="M72.5219 20.43V17.3308H76.2906V20.4548H72.5219V20.43ZM76.3154 22.5623V36.323H72.5467V22.5623H76.3154Z" fill="black"/>
<path d="M79.3651 26.455C79.7122 25.5624 80.1833 24.7938 80.8031 24.1739C81.423 23.5541 82.1668 23.0582 83.0346 22.7111C83.9024 22.364 84.8694 22.1904 85.9603 22.1904C87.0512 22.1904 88.0182 22.364 88.9108 22.7111C89.7786 23.0582 90.5472 23.5541 91.167 24.1739C91.7869 24.7938 92.258 25.5624 92.6051 26.455C92.9522 27.3476 93.101 28.3393 93.101 29.4551C93.101 30.546 92.9274 31.5377 92.6051 32.4303C92.258 33.3229 91.7869 34.0667 91.167 34.7114C90.5472 35.3312 89.8034 35.8271 88.9108 36.1742C88.043 36.5213 87.0512 36.6701 85.9603 36.6701C84.8694 36.6701 83.9024 36.4965 83.0346 36.1742C82.1668 35.8271 81.423 35.356 80.8031 34.7114C80.1833 34.0915 79.7122 33.3229 79.3651 32.4303C79.018 31.5377 78.8692 30.546 78.8692 29.4551C78.8692 28.3641 79.0428 27.3476 79.3651 26.455ZM82.8114 31.0667C82.9106 31.5873 83.109 32.0584 83.3569 32.4799C83.6049 32.9014 83.952 33.2237 84.3735 33.4717C84.795 33.7196 85.3404 33.8436 85.9603 33.8436C86.5801 33.8436 87.1256 33.7196 87.5719 33.4717C88.0182 33.2237 88.3405 32.9014 88.6132 32.4799C88.8612 32.0584 89.0595 31.5873 89.1587 31.0667C89.2579 30.546 89.3075 30.0005 89.3075 29.4551C89.3075 28.9096 89.2579 28.3641 89.1587 27.8434C89.0595 27.3228 88.8612 26.8517 88.6132 26.4302C88.3653 26.0335 88.0182 25.6864 87.5719 25.4384C87.1256 25.1905 86.6049 25.0417 85.9603 25.0417C85.3156 25.0417 84.795 25.1657 84.3735 25.4384C83.952 25.6864 83.6049 26.0335 83.3569 26.4302C83.109 26.8269 82.9106 27.298 82.8114 27.8434C82.7123 28.3889 82.6627 28.9096 82.6627 29.4551C82.6379 30.0005 82.7123 30.546 82.8114 31.0667Z" fill="black"/>
</svg>
