<svg width="152" height="41" viewBox="0 0 152 41" fill="none" xmlns="http://www.w3.org/2000/svg">
<g clip-path="url(#clip0_1_33)">
<path d="M42.4578 20.5C42.4578 22.7362 41.0893 24.7284 40.4359 26.7438C39.7577 28.8349 39.6711 31.2468 38.4054 32.9876C37.127 34.7456 34.8533 35.5677 33.0966 36.8471C31.3572 38.1138 29.8801 40.0315 27.7913 40.7108C25.7752 41.3658 23.4628 40.7044 21.2289 40.7044C18.995 40.7044 16.6826 41.3658 14.6671 40.7108C12.5777 40.0315 11.1006 38.1138 9.36119 36.8471C7.60449 35.5677 5.33076 34.7456 4.05238 32.9876C2.78669 31.2474 2.70004 28.8355 2.02185 26.7438C1.36735 24.7261 0 22.7339 0 20.5C0 18.2661 1.36851 16.2716 2.02185 14.2563C2.70004 12.1652 2.78669 9.75323 4.05238 8.01249C5.33076 6.25498 7.60449 5.43231 9.36119 4.15349C11.1006 2.88682 12.5777 0.968592 14.6671 0.289872C16.6826 -0.365146 18.995 0.295653 21.2289 0.295653C23.4628 0.295653 25.7752 -0.365146 27.7907 0.289872C29.8801 0.968592 31.3572 2.88682 33.0966 4.15349C34.8533 5.43231 37.127 6.25498 38.4054 8.01249C39.6711 9.75323 39.7577 12.1652 40.4359 14.2563C41.0893 16.2716 42.4578 18.2644 42.4578 20.5Z" fill="#326CE5"/>
<path d="M4.07129 18.1365C6.52235 18.1365 6.52235 19.2927 8.97284 19.2927C11.4233 19.2927 11.4239 18.1365 13.875 18.1365C16.326 18.1365 16.3255 19.2927 18.7765 19.2927C21.2276 19.2927 21.227 18.1365 23.6781 18.1365C26.1291 18.1365 26.1291 19.2927 28.5796 19.2927C31.0301 19.2927 31.0307 18.1365 33.4818 18.1365C35.9328 18.1365 35.9328 19.2927 38.3839 19.2927" stroke="white" stroke-miterlimit="10"/>
<path d="M4.07129 20.449C6.52235 20.449 6.52235 21.6052 8.97284 21.6052C11.4233 21.6052 11.4239 20.449 13.875 20.449C16.326 20.449 16.3255 21.6052 18.7765 21.6052C21.2276 21.6052 21.227 20.449 23.6781 20.449C26.1291 20.449 26.1291 21.6052 28.5796 21.6052C31.0301 21.6052 31.0307 20.449 33.4818 20.449C35.9328 20.449 35.9328 21.6052 38.3839 21.6052" stroke="white" stroke-miterlimit="10"/>
<path d="M4.07129 23.2241C6.52235 23.2241 6.52235 24.3804 8.97284 24.3804C11.4233 24.3804 11.4239 23.2241 13.875 23.2241C16.326 23.2241 16.3255 24.3804 18.7765 24.3804C21.2276 24.3804 21.227 23.2241 23.6781 23.2241C26.1291 23.2241 26.1291 24.3804 28.5796 24.3804C31.0301 24.3804 31.0307 23.2241 33.4818 23.2241C35.9328 23.2241 35.9328 24.3804 38.3839 24.3804" stroke="white" stroke-miterlimit="10"/>
<path d="M21.2279 2.45312C11.2689 2.45312 3.19531 10.533 3.19531 20.4999C3.19531 30.4668 11.2689 38.5467 21.2279 38.5467C31.187 38.5467 39.2606 30.4691 39.2606 20.4999C39.2606 10.5307 31.187 2.45312 21.2279 2.45312ZM21.2233 36.9765C12.1284 36.9765 4.76601 29.6048 4.76427 20.5028C4.76427 11.391 12.1458 4.00886 21.247 4.02621C30.3482 4.04355 37.6997 11.4147 37.6916 20.5155C37.6835 29.6164 30.3182 36.9794 21.2233 36.9765Z" fill="white"/>
<path d="M12.9091 28.677C12.8514 28.4776 12.577 28.2793 12.3638 28.3059C12.0611 28.3446 11.7596 28.3949 11.3956 28.4492C11.5296 28.0937 11.6429 27.7902 11.7584 27.4866C11.8583 27.223 11.6429 27.0953 11.5077 26.9542C11.3725 26.8131 11.2668 26.9912 11.175 27.064C10.6857 27.452 10.2114 27.859 9.71749 28.2405C9.48296 28.4215 9.65973 28.5267 9.75446 28.6568C9.8492 28.7869 9.94567 28.9331 10.1392 28.7626C10.3622 28.5666 10.5979 28.3845 10.8324 28.1943C10.8411 28.2162 10.8492 28.2266 10.8468 28.2336C10.8006 28.3677 10.7504 28.5007 10.7053 28.6354C10.6111 28.9198 10.7931 29.1274 11.0918 29.0805C11.216 29.0609 11.3425 29.0227 11.4904 29.0863C11.2501 29.2835 11.0415 29.4685 10.8185 29.6332C10.6354 29.7685 10.7232 29.8789 10.8336 29.9801C10.9439 30.0813 10.9901 30.3449 11.2264 30.1535C11.7574 29.725 12.2868 29.295 12.8144 28.8637C12.8687 28.8192 12.9386 28.7776 12.9091 28.677Z" fill="white"/>
<path d="M22.5647 9.2294C22.9425 9.3855 23.0921 9.31381 23.1701 8.923C23.1874 8.83801 23.203 8.7536 23.2238 8.66978C23.2406 8.60156 23.2238 8.48651 23.3284 8.50096C23.4329 8.51542 23.5669 8.49403 23.6051 8.65012C23.6432 8.80621 23.6906 8.94439 23.7333 9.09123C23.8535 9.49592 23.9361 9.55893 24.348 9.58032C24.5028 9.58842 24.5374 9.53581 24.4964 9.39764C24.4317 9.17737 24.3757 8.95421 24.3069 8.7351C24.2752 8.63509 24.2492 8.57612 24.3861 8.51889C24.72 8.37782 24.8101 8.07488 24.8338 7.76327C24.8338 7.37824 24.6027 7.09669 24.1706 6.98107C23.8194 6.88741 23.4589 6.82902 23.1031 6.74982C22.9702 6.72091 22.9038 6.77468 22.8789 6.90187C22.7426 7.59562 22.604 8.29399 22.4694 8.99121C22.4515 9.08545 22.4382 9.17737 22.5647 9.2294ZM23.5779 7.43721C23.8697 7.40773 24.151 7.57654 24.1481 7.7494C24.1452 7.92226 24.0441 8.00609 23.8483 8.01129C23.7275 7.90954 23.4474 8.07488 23.4064 7.81646C23.389 7.7072 23.3486 7.46323 23.5779 7.43952V7.43721Z" fill="white"/>
<path d="M18.761 31.8463C18.597 31.7926 18.4294 31.7249 18.3717 31.9978C18.3087 32.2979 18.2128 32.5904 18.1135 32.9517C17.9615 32.4996 17.8206 32.1123 17.7033 31.718C17.6265 31.4601 17.4058 31.4625 17.2198 31.4289C17.0147 31.3954 17.0517 31.6024 17.0193 31.718C16.846 32.3169 16.697 32.924 16.511 33.5194C16.4197 33.8131 16.6364 33.7865 16.7808 33.8368C16.9344 33.8894 17.0968 33.9525 17.1551 33.6981C17.225 33.3934 17.318 33.0939 17.4122 32.7534C17.4509 32.8424 17.4774 32.8933 17.4954 32.9465C17.6109 33.2934 17.7316 33.6362 17.842 33.9837C17.9211 34.2404 18.1522 34.2248 18.3364 34.2502C18.5207 34.2756 18.4826 34.0768 18.5132 33.9721C18.6865 33.372 18.8327 32.7644 19.0216 32.1701C19.1076 31.8822 18.9083 31.8949 18.761 31.8463Z" fill="white"/>
<path d="M32.6747 28.1896C32.4852 28.1624 32.2986 28.1063 32.1085 28.0884C31.952 28.074 31.9127 28.0196 31.9075 27.8572C31.8948 27.4525 31.5291 27.1206 31.1311 27.116C30.8579 27.1085 30.6488 27.2455 30.4812 27.4375C30.2727 27.6762 30.0936 27.9404 29.8845 28.1786C29.7424 28.3411 29.7603 28.4417 29.9295 28.5694C30.4356 28.9521 30.9376 29.3412 31.428 29.743C31.6013 29.8818 31.6886 29.8673 31.8162 29.6933C32.0473 29.3782 32.0565 29.3857 31.7452 29.1441C31.677 29.0909 31.6054 29.0412 31.543 28.9816C31.495 28.936 31.376 28.9175 31.4431 28.8134C31.4974 28.7296 31.5441 28.6197 31.6834 28.6481C31.8226 28.6764 31.9722 28.6804 32.1068 28.7296C32.417 28.8452 32.61 28.7244 32.7786 28.4671C32.8901 28.3 32.8959 28.2208 32.6747 28.1896ZM30.9416 28.5035C30.8983 28.507 30.5875 28.2399 30.5904 28.2012C30.5979 28.0994 30.9532 27.7589 31.0525 27.7589C31.186 27.7855 31.2836 27.852 31.2946 27.9988C31.3009 28.0884 31.0075 28.4977 30.9416 28.5035Z" fill="white"/>
<path d="M18.3139 9.2865C18.3341 9.40213 18.3716 9.49462 18.5155 9.47208C19.0354 9.38189 19.5587 9.30384 20.0752 9.19631C20.3479 9.1385 20.1601 8.93269 20.163 8.79162C20.1659 8.64073 20.0839 8.59506 19.936 8.62397C19.6535 8.67889 19.367 8.71647 19.0845 8.77254C18.9377 8.80145 18.899 8.73439 18.8852 8.60894C18.8731 8.49736 18.8569 8.41064 19.018 8.39272C19.2566 8.36728 19.49 8.29964 19.7286 8.2742C19.9868 8.24645 19.9394 8.084 19.9117 7.91981C19.884 7.75562 19.8493 7.62092 19.6229 7.68335C19.4109 7.74117 19.1861 7.75042 18.9724 7.80418C18.8222 7.84234 18.7489 7.83309 18.7177 7.65734C18.6836 7.46771 18.7887 7.4521 18.9227 7.43187C19.1602 7.3966 19.3964 7.35093 19.6338 7.31624C19.7858 7.29312 19.9025 7.25092 19.8412 7.05956C19.7921 6.90577 19.862 6.66296 19.5449 6.72887C19.0937 6.8231 18.6391 6.90231 18.1827 6.96012C17.9644 6.98787 17.9343 7.08557 17.9667 7.2671C18.0839 7.94178 18.1989 8.61587 18.3139 9.2865Z" fill="white"/>
<path d="M26.0212 32.119C25.8527 32.1873 25.6807 32.2465 25.5059 32.2965C25.3609 32.3427 25.2564 32.4017 25.343 32.5856C25.4117 32.7278 25.3933 32.9642 25.6677 32.8544C25.7179 32.8342 25.7716 32.7867 25.8207 32.848C25.8698 32.9093 25.8375 32.9821 25.8132 33.04C25.7428 33.2059 25.5949 33.277 25.4291 33.3059C25.2633 33.3348 25.1264 33.2556 25.0438 33.1111C24.928 32.9111 24.8496 32.6917 24.8127 32.4636C24.759 32.1265 25.0796 31.8317 25.3852 31.9791C25.637 32.1005 25.8265 32.0034 26.0403 31.9409C26.1864 31.8982 26.187 31.8109 26.1026 31.7045C25.9074 31.4582 25.6405 31.3802 25.3378 31.3674C25.0192 31.3663 24.7112 31.4814 24.4713 31.6912C24.1825 31.9502 24.0669 32.2786 24.1825 32.6538C24.3286 33.1446 24.4135 33.6944 25.0235 33.8563C25.4915 33.9794 25.9039 33.8343 26.2367 33.5025C26.5965 33.1417 26.5093 32.7214 26.3522 32.293C26.2835 32.1103 26.2164 32.0329 26.0212 32.119Z" fill="white"/>
<path d="M29.6038 31.0271C29.3923 31.1924 29.1624 31.3341 28.9504 31.4994C28.8349 31.5896 28.7771 31.5613 28.7026 31.4526C28.6281 31.3439 28.605 31.2792 28.7292 31.1976C28.9215 31.071 29.1058 30.9323 29.293 30.7982C29.3542 30.7542 29.4281 30.7184 29.4212 30.612C29.372 30.4805 29.2884 30.3647 29.1792 30.2767C29.0717 30.201 28.9885 30.3166 28.9048 30.3744C28.7315 30.4946 28.5501 30.6056 28.3883 30.7409C28.2537 30.8531 28.215 30.7508 28.1486 30.671C28.0689 30.5779 28.0677 30.5201 28.1792 30.4472C28.3958 30.3056 28.5963 30.1391 28.8147 30.0015C28.9937 29.8893 28.9556 29.7807 28.8505 29.6512C28.7575 29.5355 28.7009 29.3621 28.4952 29.5182C28.1186 29.7992 27.7315 30.0668 27.3462 30.3374C27.2249 30.4224 27.2197 30.5068 27.3046 30.6265C27.7032 31.1797 28.0966 31.7365 28.4912 32.2932C28.5628 32.3938 28.6327 32.4337 28.7511 32.3475C29.1462 32.0585 29.5446 31.7742 29.9463 31.4948C30.1352 31.3636 30.0208 31.2543 29.94 31.1358C29.8591 31.0173 29.7823 30.8866 29.6038 31.0271Z" fill="white"/>
<path d="M14.6827 30.0888C14.6018 30.031 14.5163 30.0582 14.4435 30.1148C13.8589 30.5696 13.2749 31.0252 12.6915 31.4815C12.6146 31.5393 12.5574 31.6243 12.6684 31.6862C12.8729 31.8018 13.06 32.0908 13.3321 31.7856C13.3453 31.7654 13.3659 31.7513 13.3895 31.7462C13.4131 31.7411 13.4377 31.7455 13.458 31.7584C13.6752 31.9006 13.8942 32.04 14.1108 32.1822C14.1686 32.2215 14.1495 32.2828 14.1426 32.3394C14.112 32.5875 14.2835 32.8667 14.5302 32.88C14.7878 32.8933 14.6665 32.621 14.7474 32.4932C14.7569 32.4763 14.7636 32.458 14.767 32.4389C14.9172 31.8232 15.0674 31.2069 15.2292 30.5397C15.1645 30.29 14.8785 30.238 14.6827 30.0888ZM14.313 31.6335C13.8618 31.3682 13.8618 31.3682 14.2281 31.0757C14.302 31.0178 14.3783 30.96 14.4869 30.8768C14.4593 31.1351 14.4009 31.3891 14.313 31.6335Z" fill="white"/>
<path d="M13.9368 10.6018C14.2257 11.003 14.6693 11.1221 15.1395 10.9486C15.6282 10.7717 16.006 10.2942 15.9864 9.85772C15.9762 9.75306 15.9521 9.65022 15.9148 9.55189C15.9095 9.52328 15.8943 9.49747 15.8717 9.47913C15.8491 9.4608 15.8208 9.45113 15.7917 9.45188C15.6242 9.45188 15.3163 9.75193 15.314 9.93172C15.3111 10.174 15.1563 10.2954 14.9628 10.3728C14.7796 10.4457 14.6162 10.3728 14.5081 10.2208C14.3793 10.0421 14.2645 9.85367 14.165 9.65711C14.0841 9.49119 14.0991 9.31024 14.2499 9.18132C14.4007 9.05239 14.5873 8.9651 14.8016 9.08246C14.9518 9.16513 15.3567 9.02464 15.4428 8.87838C15.5006 8.78472 15.4266 8.73211 15.3798 8.68008C15.302 8.59199 15.2058 8.52209 15.098 8.47534C14.9902 8.42858 14.8734 8.40611 14.756 8.40952C13.983 8.41241 13.3805 9.00788 13.462 9.65885C13.5082 10.0254 13.7352 10.3144 13.9368 10.6018Z" fill="white"/>
<path d="M22.1437 32.5578C21.9478 32.0479 21.8132 31.9796 21.2893 32.0953C21.2465 32.0998 21.206 32.1166 21.1725 32.1435C21.139 32.1705 21.114 32.2065 21.1004 32.2473C20.8809 32.9503 20.6621 33.6545 20.4442 34.3598C20.4251 34.4217 20.3974 34.4945 20.4713 34.5431C20.629 34.6471 21.0432 34.5014 21.1143 34.3182C21.1437 34.2419 21.1443 34.1488 21.2708 34.1511C21.5019 34.1557 21.7329 34.1511 21.964 34.1401C22.046 34.1366 22.0969 34.1679 22.1113 34.2419C22.1558 34.4731 22.2944 34.5413 22.4856 34.4916C22.8767 34.4818 22.8785 34.4806 22.7502 34.1447C22.5484 33.6144 22.3462 33.0854 22.1437 32.5578ZM21.5336 33.6024C21.3603 33.6024 21.3349 33.5539 21.3869 33.4065C21.4499 33.2261 21.5024 33.0422 21.5758 32.8075C21.6526 33.0041 21.7093 33.1457 21.763 33.2879C21.8831 33.61 21.8802 33.599 21.5336 33.6024Z" fill="white"/>
<path d="M27.2205 10.9098C27.3557 10.9838 27.4845 11.1809 27.6405 10.9202C27.8467 10.5733 28.0702 10.2386 28.2851 9.89808C28.5439 9.48877 28.5509 9.47663 28.9668 9.73852C29.188 9.87842 29.2464 9.72753 29.3394 9.59283C29.4387 9.4483 29.478 9.33788 29.2816 9.22225C28.8195 8.94668 28.366 8.65916 27.9212 8.35969C27.7323 8.23366 27.6387 8.26719 27.5168 8.4545C27.3817 8.66089 27.4094 8.77074 27.6185 8.88174C27.7398 8.94591 27.8756 9.00488 27.9593 9.12513C27.9166 9.19392 27.8819 9.25174 27.8438 9.30839C27.5821 9.72233 27.3279 10.1409 27.057 10.5485C26.9114 10.7728 27.0795 10.8323 27.2205 10.9098Z" fill="white"/>
<path d="M27.7664 23.498C27.618 22.8887 27.4712 22.2886 27.3228 21.6815C27.3152 21.6499 27.2994 21.6207 27.2769 21.5971C27.2545 21.5735 27.2262 21.5563 27.1949 21.5471C27.1637 21.538 27.1306 21.5373 27.099 21.545C27.0674 21.5528 27.0383 21.5688 27.0149 21.5914L25.5869 22.9592C25.5646 22.9807 25.5483 23.0077 25.5397 23.0374C25.5311 23.0672 25.5304 23.0987 25.5378 23.1287C25.5452 23.1588 25.5603 23.1865 25.5817 23.2088C25.6031 23.2312 25.63 23.2476 25.6597 23.2564C25.7128 23.2714 25.7648 23.2858 25.8179 23.2968C25.9335 23.3217 25.9219 23.3604 25.8682 23.4419C25.569 23.8981 25.1749 24.2842 24.7129 24.5739L24.7013 24.5808C24.3031 24.7703 23.8816 24.9064 23.4478 24.9855C22.9992 25.0716 22.5448 25.1242 22.0885 25.1428C22.0741 25.1433 22.0598 25.1408 22.0463 25.1356C22.0329 25.1303 22.0207 25.1224 22.0105 25.1123C22.0002 25.1022 21.9921 25.0901 21.9866 25.0767C21.9812 25.0634 21.9785 25.0491 21.9787 25.0347V18.6533C21.9787 18.6451 21.9803 18.637 21.9835 18.6294C21.9866 18.6218 21.9912 18.615 21.997 18.6092C22.0028 18.6034 22.0097 18.5988 22.0172 18.5956C22.0248 18.5925 22.0329 18.5909 22.0411 18.5909C22.0989 18.5909 22.1694 18.6024 22.3386 18.6007C22.6714 18.5972 23.018 18.5972 23.3519 18.5776C23.4605 18.5712 23.5211 18.5747 23.5904 18.6267C23.7312 18.7381 23.9088 18.7922 24.0877 18.7784C24.2666 18.7646 24.4337 18.6838 24.5557 18.5521C24.6763 18.42 24.7436 18.2478 24.7448 18.0689C24.746 17.89 24.6809 17.7169 24.5621 17.5832C24.4428 17.4493 24.2773 17.3654 24.0988 17.3485C23.9203 17.3315 23.742 17.3828 23.5997 17.4919C23.5597 17.529 23.508 17.5511 23.4535 17.5543C22.9883 17.552 22.5235 17.552 22.059 17.5543C22.0305 17.558 22.0017 17.5503 21.9787 17.5329V16.8033C21.9784 16.7784 21.987 16.7542 22.003 16.7351C22.0359 16.7008 22.0752 16.6731 22.1185 16.6536C22.8695 16.272 23.2589 15.6453 23.2594 14.8111C23.2594 13.4912 21.973 12.531 20.7009 12.8767C19.6923 13.1507 19.0372 14.1532 19.2273 15.1759C19.3671 15.9274 19.809 16.4535 20.5276 16.7322C20.5546 16.742 20.5804 16.7548 20.6044 16.7704C20.6175 16.7803 20.628 16.7932 20.6351 16.8079C20.6423 16.8227 20.6458 16.8389 20.6455 16.8553V17.452C20.6455 17.4656 20.6428 17.4791 20.6375 17.4916C20.6323 17.5042 20.6246 17.5156 20.6149 17.5251C20.6053 17.5347 20.5938 17.5423 20.5812 17.5474C20.5686 17.5525 20.5551 17.555 20.5415 17.5549C20.0418 17.5491 19.5415 17.5514 19.0395 17.5549C18.9705 17.5545 18.9034 17.5318 18.8483 17.4901C18.7056 17.3817 18.5271 17.3316 18.3489 17.3498C18.1707 17.3681 18.0061 17.4533 17.8882 17.5884C17.7701 17.7212 17.7056 17.8932 17.7073 18.0709C17.709 18.2487 17.7768 18.4195 17.8975 18.5499C18.0182 18.6804 18.1831 18.7611 18.36 18.7765C18.537 18.7919 18.7133 18.7408 18.8547 18.6331C18.9089 18.5905 18.9764 18.5684 19.0453 18.5706C19.53 18.5706 20.0152 18.5776 20.4999 18.5706C20.5435 18.5642 20.588 18.5736 20.6252 18.5972C20.6312 18.6029 20.6358 18.6097 20.6389 18.6173C20.642 18.6249 20.6434 18.633 20.6432 18.6412V24.9896C20.6431 25.0043 20.64 25.0189 20.6341 25.0324C20.6282 25.0459 20.6195 25.0581 20.6086 25.0681C20.5978 25.0781 20.585 25.0857 20.571 25.0905C20.5571 25.0953 20.5423 25.0972 20.5276 25.096C19.939 25.0462 19.3552 24.9495 18.7819 24.8069C18.4302 24.722 18.088 24.6017 17.7606 24.4479C17.7549 24.4454 17.7495 24.4423 17.7444 24.4386C17.2824 24.1141 16.8971 23.6922 16.6156 23.2026C16.6077 23.1912 16.6029 23.1779 16.6017 23.164C16.6005 23.1502 16.6029 23.1362 16.6088 23.1236C16.6146 23.111 16.6237 23.1001 16.635 23.0921C16.6463 23.084 16.6596 23.0791 16.6734 23.0777L16.8265 23.0465C16.8569 23.0397 16.8849 23.025 16.9078 23.0039C16.9308 22.9828 16.9478 22.956 16.9571 22.9263C16.9665 22.8965 16.9679 22.8649 16.9612 22.8344C16.9545 22.804 16.9399 22.7758 16.9189 22.7528L15.5752 21.2873C15.5547 21.264 15.5284 21.2466 15.4989 21.237C15.4694 21.2274 15.4379 21.2259 15.4076 21.2326C15.3773 21.2393 15.3494 21.2541 15.3268 21.2753C15.3041 21.2965 15.2876 21.3234 15.2789 21.3532C15.0802 21.9827 14.8866 22.5979 14.6902 23.2217C14.6799 23.2542 14.6784 23.2889 14.6857 23.3222C14.6931 23.3556 14.7092 23.3864 14.7323 23.4115C14.7554 23.4366 14.7847 23.4552 14.8173 23.4653C14.8499 23.4754 14.8846 23.4767 14.9178 23.4691L15.0218 23.4454C15.0858 23.4308 15.1528 23.4378 15.2123 23.4654C15.2718 23.4931 15.3204 23.5397 15.3505 23.598C16.1234 25.1012 17.2857 26.1886 18.8235 26.876C19.4243 27.1448 19.6623 27.2229 20.181 27.3021C20.2029 27.3054 20.2232 27.3158 20.2388 27.3316L21.0285 28.1149C21.0814 28.1665 21.1524 28.1954 21.2263 28.1954C21.3002 28.1954 21.3712 28.1665 21.4242 28.1149L22.1913 27.3634C22.2089 27.3463 22.2317 27.3358 22.256 27.3333C23.0243 27.261 23.3669 27.0708 24.1935 26.6922C25.4731 26.1065 26.4892 25.0873 27.1431 23.8408C27.2009 23.7298 27.2517 23.7165 27.3499 23.7495C27.3875 23.7622 27.4256 23.7744 27.4655 23.7859C27.506 23.7986 27.5492 23.8001 27.5906 23.7904C27.632 23.7807 27.67 23.7601 27.7007 23.7307C27.7314 23.7013 27.7537 23.6642 27.7653 23.6233C27.7768 23.5824 27.7772 23.5391 27.7664 23.498ZM21.1752 15.8766C21.0401 15.8718 20.9072 15.8403 20.7844 15.7839C20.6615 15.7275 20.551 15.6473 20.4592 15.5479C20.3675 15.4485 20.2964 15.3319 20.2499 15.2049C20.2034 15.0778 20.1826 14.9428 20.1885 14.8076C20.2163 14.2029 20.7188 13.7566 21.2861 13.7999C21.8834 13.8462 22.2947 14.3266 22.2647 14.8805C22.2323 15.4829 21.739 15.9188 21.1752 15.8766Z" fill="white"/>
<path d="M55.648 25.112C54.8453 25.112 54.122 24.9487 53.478 24.622C52.8433 24.286 52.344 23.824 51.98 23.236C51.6253 22.648 51.448 21.9807 51.448 21.234C51.448 20.4873 51.6253 19.82 51.98 19.232C52.344 18.644 52.8433 18.1867 53.478 17.86C54.122 17.524 54.8453 17.356 55.648 17.356C56.4413 17.356 57.132 17.524 57.72 17.86C58.3173 18.1867 58.7513 18.658 59.022 19.274L57.328 20.184C56.936 19.4933 56.3713 19.148 55.634 19.148C55.0647 19.148 54.5933 19.3347 54.22 19.708C53.8467 20.0813 53.66 20.59 53.66 21.234C53.66 21.878 53.8467 22.3867 54.22 22.76C54.5933 23.1333 55.0647 23.32 55.634 23.32C56.3807 23.32 56.9453 22.9747 57.328 22.284L59.022 23.208C58.7513 23.8053 58.3173 24.272 57.72 24.608C57.132 24.944 56.4413 25.112 55.648 25.112Z" fill="#326CE5"/>
<path d="M67.5618 21.262C67.5618 21.29 67.5478 21.486 67.5198 21.85H61.8218C61.9244 22.3167 62.1671 22.6853 62.5498 22.956C62.9324 23.2267 63.4084 23.362 63.9778 23.362C64.3698 23.362 64.7151 23.306 65.0138 23.194C65.3218 23.0727 65.6064 22.886 65.8678 22.634L67.0298 23.894C66.3204 24.706 65.2844 25.112 63.9218 25.112C63.0724 25.112 62.3211 24.9487 61.6678 24.622C61.0144 24.286 60.5104 23.824 60.1558 23.236C59.8011 22.648 59.6238 21.9807 59.6238 21.234C59.6238 20.4967 59.7964 19.834 60.1418 19.246C60.4964 18.6487 60.9771 18.1867 61.5838 17.86C62.1998 17.524 62.8858 17.356 63.6418 17.356C64.3791 17.356 65.0464 17.5147 65.6438 17.832C66.2411 18.1493 66.7078 18.6067 67.0438 19.204C67.3891 19.792 67.5618 20.478 67.5618 21.262ZM63.6558 19.008C63.1611 19.008 62.7458 19.148 62.4098 19.428C62.0738 19.708 61.8684 20.0907 61.7938 20.576H65.5038C65.4291 20.1 65.2238 19.722 64.8878 19.442C64.5518 19.1527 64.1411 19.008 63.6558 19.008Z" fill="#326CE5"/>
<path d="M71.1018 18.462C71.3631 18.098 71.7131 17.8227 72.1518 17.636C72.5998 17.4493 73.1131 17.356 73.6918 17.356V19.372C73.4491 19.3533 73.2858 19.344 73.2018 19.344C72.5765 19.344 72.0865 19.5213 71.7318 19.876C71.3771 20.2213 71.1998 20.744 71.1998 21.444V25H69.0158V17.468H71.1018V18.462Z" fill="#326CE5"/>
<path d="M80.1082 24.636C79.8935 24.7947 79.6275 24.916 79.3102 25C79.0022 25.0747 78.6755 25.112 78.3302 25.112C77.4342 25.112 76.7389 24.8833 76.2442 24.426C75.7589 23.9687 75.5162 23.2967 75.5162 22.41V19.316H74.3542V17.636H75.5162V15.802H77.7002V17.636H79.5762V19.316H77.7002V22.382C77.7002 22.6993 77.7795 22.9467 77.9382 23.124C78.1062 23.292 78.3395 23.376 78.6382 23.376C78.9835 23.376 79.2775 23.2827 79.5202 23.096L80.1082 24.636Z" fill="#326CE5"/>
<path d="M80.9175 20.184H84.8794V21.934H80.9175V20.184Z" fill="#326CE5"/>
<path d="M96.2438 17.356C97.1865 17.356 97.9332 17.636 98.4838 18.196C99.0438 18.7467 99.3238 19.5773 99.3238 20.688V25H97.1398V21.024C97.1398 20.4267 97.0138 19.9833 96.7618 19.694C96.5192 19.3953 96.1692 19.246 95.7118 19.246C95.1985 19.246 94.7925 19.414 94.4938 19.75C94.1952 20.0767 94.0458 20.5667 94.0458 21.22V25H91.8618V21.024C91.8618 19.8387 91.3858 19.246 90.4338 19.246C89.9298 19.246 89.5285 19.414 89.2298 19.75C88.9312 20.0767 88.7818 20.5667 88.7818 21.22V25H86.5978V17.468H88.6838V18.336C88.9638 18.0187 89.3045 17.776 89.7058 17.608C90.1165 17.44 90.5645 17.356 91.0498 17.356C91.5818 17.356 92.0625 17.4633 92.4918 17.678C92.9212 17.8833 93.2665 18.1867 93.5278 18.588C93.8358 18.196 94.2232 17.8927 94.6898 17.678C95.1658 17.4633 95.6838 17.356 96.2438 17.356Z" fill="#326CE5"/>
<path d="M104.319 17.356C105.486 17.356 106.382 17.636 107.007 18.196C107.633 18.7467 107.945 19.582 107.945 20.702V25H105.901V24.062C105.491 24.762 104.725 25.112 103.605 25.112C103.027 25.112 102.523 25.014 102.093 24.818C101.673 24.622 101.351 24.3513 101.127 24.006C100.903 23.6607 100.791 23.2687 100.791 22.83C100.791 22.13 101.053 21.5793 101.575 21.178C102.107 20.7767 102.924 20.576 104.025 20.576H105.761C105.761 20.1 105.617 19.736 105.327 19.484C105.038 19.2227 104.604 19.092 104.025 19.092C103.624 19.092 103.227 19.1573 102.835 19.288C102.453 19.4093 102.126 19.5773 101.855 19.792L101.071 18.266C101.482 17.9767 101.972 17.7527 102.541 17.594C103.12 17.4353 103.713 17.356 104.319 17.356ZM104.151 23.642C104.525 23.642 104.856 23.558 105.145 23.39C105.435 23.2127 105.64 22.956 105.761 22.62V21.85H104.263C103.367 21.85 102.919 22.144 102.919 22.732C102.919 23.012 103.027 23.236 103.241 23.404C103.465 23.5627 103.769 23.642 104.151 23.642Z" fill="#326CE5"/>
<path d="M114.5 17.356C115.433 17.356 116.185 17.636 116.754 18.196C117.333 18.756 117.622 19.5867 117.622 20.688V25H115.438V21.024C115.438 20.4267 115.307 19.9833 115.046 19.694C114.785 19.3953 114.407 19.246 113.912 19.246C113.361 19.246 112.923 19.4187 112.596 19.764C112.269 20.1 112.106 20.604 112.106 21.276V25H109.922V17.468H112.008V18.35C112.297 18.0327 112.657 17.79 113.086 17.622C113.515 17.4447 113.987 17.356 114.5 17.356Z" fill="#326CE5"/>
<path d="M122.64 17.356C123.806 17.356 124.702 17.636 125.328 18.196C125.953 18.7467 126.266 19.582 126.266 20.702V25H124.222V24.062C123.811 24.762 123.046 25.112 121.926 25.112C121.347 25.112 120.843 25.014 120.414 24.818C119.994 24.622 119.672 24.3513 119.448 24.006C119.224 23.6607 119.112 23.2687 119.112 22.83C119.112 22.13 119.373 21.5793 119.896 21.178C120.428 20.7767 121.244 20.576 122.346 20.576H124.082C124.082 20.1 123.937 19.736 123.648 19.484C123.358 19.2227 122.924 19.092 122.346 19.092C121.944 19.092 121.548 19.1573 121.156 19.288C120.773 19.4093 120.446 19.5773 120.176 19.792L119.392 18.266C119.802 17.9767 120.292 17.7527 120.862 17.594C121.44 17.4353 122.033 17.356 122.64 17.356ZM122.472 23.642C122.845 23.642 123.176 23.558 123.466 23.39C123.755 23.2127 123.96 22.956 124.082 22.62V21.85H122.584C121.688 21.85 121.24 22.144 121.24 22.732C121.24 23.012 121.347 23.236 121.562 23.404C121.786 23.5627 122.089 23.642 122.472 23.642Z" fill="#326CE5"/>
<path d="M136.094 17.468V23.74C136.094 25.1213 135.735 26.148 135.016 26.82C134.298 27.492 133.248 27.828 131.866 27.828C131.138 27.828 130.448 27.7393 129.794 27.562C129.141 27.3847 128.6 27.128 128.17 26.792L129.038 25.224C129.356 25.4853 129.757 25.6907 130.242 25.84C130.728 25.9987 131.213 26.078 131.698 26.078C132.454 26.078 133.01 25.9053 133.364 25.56C133.728 25.224 133.91 24.7107 133.91 24.02V23.698C133.341 24.3233 132.548 24.636 131.53 24.636C130.84 24.636 130.205 24.4867 129.626 24.188C129.057 23.88 128.604 23.4507 128.268 22.9C127.932 22.3493 127.764 21.7147 127.764 20.996C127.764 20.2773 127.932 19.6427 128.268 19.092C128.604 18.5413 129.057 18.1167 129.626 17.818C130.205 17.51 130.84 17.356 131.53 17.356C132.622 17.356 133.453 17.7153 134.022 18.434V17.468H136.094ZM131.964 22.844C132.543 22.844 133.014 22.676 133.378 22.34C133.752 21.9947 133.938 21.5467 133.938 20.996C133.938 20.4453 133.752 20.002 133.378 19.666C133.014 19.3207 132.543 19.148 131.964 19.148C131.386 19.148 130.91 19.3207 130.536 19.666C130.163 20.002 129.976 20.4453 129.976 20.996C129.976 21.5467 130.163 21.9947 130.536 22.34C130.91 22.676 131.386 22.844 131.964 22.844Z" fill="#326CE5"/>
<path d="M145.505 21.262C145.505 21.29 145.491 21.486 145.463 21.85H139.765C139.868 22.3167 140.11 22.6853 140.493 22.956C140.876 23.2267 141.352 23.362 141.921 23.362C142.313 23.362 142.658 23.306 142.957 23.194C143.265 23.0727 143.55 22.886 143.811 22.634L144.973 23.894C144.264 24.706 143.228 25.112 141.865 25.112C141.016 25.112 140.264 24.9487 139.611 24.622C138.958 24.286 138.454 23.824 138.099 23.236C137.744 22.648 137.567 21.9807 137.567 21.234C137.567 20.4967 137.74 19.834 138.085 19.246C138.44 18.6487 138.92 18.1867 139.527 17.86C140.143 17.524 140.829 17.356 141.585 17.356C142.322 17.356 142.99 17.5147 143.587 17.832C144.184 18.1493 144.651 18.6067 144.987 19.204C145.332 19.792 145.505 20.478 145.505 21.262ZM141.599 19.008C141.104 19.008 140.689 19.148 140.353 19.428C140.017 19.708 139.812 20.0907 139.737 20.576H143.447C143.372 20.1 143.167 19.722 142.831 19.442C142.495 19.1527 142.084 19.008 141.599 19.008Z" fill="#326CE5"/>
<path d="M149.045 18.462C149.307 18.098 149.657 17.8227 150.095 17.636C150.543 17.4493 151.057 17.356 151.635 17.356V19.372C151.393 19.3533 151.229 19.344 151.145 19.344C150.52 19.344 150.03 19.5213 149.675 19.876C149.321 20.2213 149.143 20.744 149.143 21.444V25H146.959V17.468H149.045V18.462Z" fill="#326CE5"/>
</g>
<defs>
<clipPath id="clip0_1_33">
<rect width="152" height="41" fill="white"/>
</clipPath>
</defs>
</svg>
