<svg width="273" height="75" viewBox="0 0 273 75" fill="none" xmlns="http://www.w3.org/2000/svg">
<path d="M73.1751 64.2944H68.9172V66.91H73.0535V68.4307H68.9172V72.0803H73.1751V73.601H67.3357V62.6521H73.1751V64.2944Z" fill="#C02126"/>
<path d="M74.635 66.7884H76.1557V67.3966C76.4598 67.0925 76.7031 66.8492 76.9464 66.7275C77.1897 66.6059 77.4331 66.545 77.798 66.545C78.5279 66.545 79.1362 66.91 79.562 67.5791C80.0486 66.91 80.7177 66.545 81.5085 66.545C83.0292 66.545 83.7591 67.4575 83.7591 69.3431V73.601H82.2384V69.7689C82.2384 69.0998 82.1776 68.6132 81.9951 68.3699C81.8126 68.0657 81.5693 67.9441 81.2043 67.9441C80.7786 67.9441 80.4744 68.1266 80.2919 68.4307C80.1095 68.7348 79.9878 69.2823 79.9878 70.0122V73.5402H78.4671V69.7081C78.4671 68.4915 78.1021 67.8833 77.433 67.8833C77.0073 67.8833 76.7031 68.0657 76.4598 68.3699C76.2773 68.674 76.1557 69.2214 76.1557 69.9514V73.4794H74.635V66.7884Z" fill="#C02126"/>
<path d="M90.3891 66.7883H91.9098V73.6618H90.3891V72.9319C89.7809 73.5401 89.0509 73.8443 88.321 73.8443C87.4086 73.8443 86.6178 73.4793 86.0096 72.8102C85.4013 72.0803 85.0972 71.2287 85.0972 70.1946C85.0972 69.1606 85.4013 68.309 86.0096 67.6399C86.6178 66.9708 87.3478 66.6058 88.2602 66.6058C89.0509 66.6058 89.72 66.91 90.3283 67.5791L90.3891 66.7883ZM86.6787 70.1946C86.6787 70.8637 86.8612 71.4112 87.1653 71.837C87.5303 72.2628 87.9561 72.4453 88.5035 72.4453C89.0509 72.4453 89.5376 72.2628 89.9025 71.837C90.2675 71.4112 90.45 70.8637 90.45 70.2555C90.45 69.6472 90.2675 69.0997 89.9025 68.674C89.5376 68.2482 89.1118 68.0657 88.5035 68.0657C87.9561 68.0657 87.5303 68.2482 87.1653 68.674C86.8612 69.0389 86.6787 69.5864 86.6787 70.1946Z" fill="#C02126"/>
<path d="M93.3088 63.9295C93.3088 63.6253 93.4305 63.382 93.613 63.1995C93.7955 63.017 94.0388 62.8954 94.3429 62.8954C94.647 62.8954 94.8295 63.017 95.0728 63.1995C95.2553 63.382 95.377 63.6253 95.377 63.9295C95.377 64.2336 95.2553 64.4769 95.0728 64.6594C94.8903 64.8419 94.647 64.9635 94.3429 64.9635C94.0388 64.9635 93.8563 64.8419 93.613 64.6594C93.4305 64.4769 93.3088 64.1728 93.3088 63.9295ZM95.0728 66.7883V73.6618H93.5521V66.7883H95.0728Z" fill="#C02126"/>
<path d="M98.236 61.7396V73.6618H96.7153V61.7396H98.236Z" fill="#C02126"/>
<path d="M110.401 70.9854H105.839L104.684 73.6618H102.98L108.212 62.0438L113.26 73.6618H111.496L110.401 70.9854ZM109.793 69.4648L108.212 65.7543L106.569 69.4648H109.793Z" fill="#C02126"/>
<path d="M115.511 66.7883V70.7421C115.511 71.8978 115.937 72.4453 116.849 72.4453C117.701 72.4453 118.187 71.8978 118.187 70.7421V66.7883H119.708V70.8029C119.708 71.3504 119.647 71.837 119.526 72.202C119.404 72.5669 119.161 72.8711 118.856 73.1752C118.309 73.6618 117.701 73.9051 116.849 73.9051C116.058 73.9051 115.389 73.6618 114.842 73.1752C114.538 72.8711 114.294 72.5669 114.173 72.202C114.051 71.8978 113.99 71.4112 113.99 70.8029V66.7883H115.511Z" fill="#C02126"/>
<path d="M122.871 68.2481V73.6617H121.35V68.2481H120.681V66.7883H121.35V64.2335H122.871V66.7883H124.087V68.2481H122.871Z" fill="#C02126"/>
<path d="M124.574 70.1946C124.574 69.2214 124.939 68.3698 125.608 67.6399C126.277 66.9708 127.129 66.6058 128.102 66.6058C129.075 66.6058 129.927 66.9708 130.657 67.6399C131.326 68.3698 131.691 69.2214 131.691 70.2555C131.691 71.2895 131.326 72.1411 130.657 72.8711C129.988 73.5402 129.136 73.9051 128.102 73.9051C127.129 73.9051 126.277 73.5402 125.608 72.8711C124.939 72.0803 124.574 71.2287 124.574 70.1946ZM126.155 70.1946C126.155 70.8637 126.338 71.4112 126.703 71.837C127.068 72.2628 127.555 72.4453 128.163 72.4453C128.771 72.4453 129.258 72.2628 129.623 71.837C129.988 71.4112 130.17 70.9246 130.17 70.2555C130.17 69.5864 129.988 69.0389 129.623 68.674C129.258 68.2482 128.771 68.0657 128.163 68.0657C127.555 68.0657 127.068 68.2482 126.703 68.674C126.338 69.0389 126.155 69.5255 126.155 70.1946Z" fill="#C02126"/>
<path d="M133.029 66.7884H134.55V67.3966C134.854 67.0925 135.097 66.8492 135.34 66.7275C135.584 66.6059 135.827 66.545 136.192 66.545C136.922 66.545 137.53 66.91 137.956 67.5791C138.443 66.91 139.112 66.545 139.903 66.545C141.423 66.545 142.153 67.4575 142.153 69.3431V73.601H140.632V69.7689C140.632 69.0998 140.572 68.6132 140.389 68.3699C140.207 68.0657 139.963 67.9441 139.598 67.9441C139.173 67.9441 138.868 68.1266 138.686 68.4307C138.503 68.7348 138.382 69.2823 138.382 70.0122V73.5402H136.861V69.7081C136.861 68.4915 136.496 67.8833 135.827 67.8833C135.401 67.8833 135.097 68.0657 134.854 68.3699C134.671 68.674 134.55 69.2214 134.55 69.9514V73.4794H133.029V66.7884Z" fill="#C02126"/>
<path d="M148.722 66.7883H150.243V73.6618H148.722V72.9319C148.114 73.5401 147.384 73.8443 146.654 73.8443C145.742 73.8443 144.951 73.4793 144.343 72.8102C143.735 72.0803 143.43 71.2287 143.43 70.1946C143.43 69.1606 143.735 68.309 144.343 67.6399C144.951 66.9708 145.681 66.6058 146.593 66.6058C147.384 66.6058 148.053 66.91 148.662 67.5791L148.722 66.7883ZM145.073 70.1946C145.073 70.8637 145.255 71.4112 145.559 71.837C145.924 72.2628 146.35 72.4453 146.898 72.4453C147.445 72.4453 147.932 72.2628 148.297 71.837C148.662 71.4112 148.844 70.8637 148.844 70.2555C148.844 69.6472 148.662 69.0997 148.297 68.674C147.932 68.2482 147.506 68.0657 146.898 68.0657C146.35 68.0657 145.924 68.2482 145.559 68.674C145.255 69.0389 145.073 69.5864 145.073 70.1946Z" fill="#C02126"/>
<path d="M153.528 68.2481V73.6617H152.007V68.2481H151.338V66.7883H152.007V64.2335H153.528V66.7883H154.744V68.2481H153.528Z" fill="#C02126"/>
<path d="M155.231 63.9295C155.231 63.6253 155.353 63.382 155.535 63.1995C155.718 63.017 155.961 62.8954 156.265 62.8954C156.569 62.8954 156.752 63.017 156.995 63.1995C157.178 63.382 157.299 63.6253 157.299 63.9295C157.299 64.2336 157.178 64.4769 156.995 64.6594C156.813 64.8419 156.569 64.9635 156.265 64.9635C155.961 64.9635 155.779 64.8419 155.535 64.6594C155.292 64.4769 155.231 64.1728 155.231 63.9295ZM156.995 66.7883V73.6618H155.475V66.7883H156.995Z" fill="#C02126"/>
<path d="M158.272 70.1946C158.272 69.2214 158.637 68.3698 159.307 67.6399C159.976 66.9708 160.827 66.6058 161.8 66.6058C162.774 66.6058 163.625 66.9708 164.355 67.6399C165.024 68.3698 165.389 69.2214 165.389 70.2555C165.389 71.2895 165.024 72.1411 164.355 72.8711C163.686 73.5402 162.834 73.9051 161.8 73.9051C160.827 73.9051 159.976 73.5402 159.307 72.8711C158.637 72.0803 158.272 71.2287 158.272 70.1946ZM159.854 70.1946C159.854 70.8637 160.036 71.4112 160.401 71.837C160.766 72.2628 161.253 72.4453 161.861 72.4453C162.47 72.4453 162.956 72.2628 163.321 71.837C163.686 71.4112 163.869 70.9246 163.869 70.2555C163.869 69.5864 163.686 69.0389 163.321 68.674C162.956 68.2482 162.47 68.0657 161.861 68.0657C161.253 68.0657 160.766 68.2482 160.401 68.674C160.036 69.0389 159.854 69.5255 159.854 70.1946Z" fill="#C02126"/>
<path d="M166.727 66.7884H168.248V67.3966C168.795 66.8492 169.404 66.545 170.073 66.545C170.864 66.545 171.472 66.7884 171.898 67.275C172.263 67.7008 172.445 68.4307 172.445 69.4039V73.601H170.924V69.7689C170.924 69.0998 170.803 68.6132 170.62 68.3699C170.438 68.1266 170.134 67.9441 169.647 67.9441C169.16 67.9441 168.795 68.1266 168.552 68.4915C168.37 68.8565 168.248 69.4648 168.248 70.3163V73.6618H166.727V66.7884Z" fill="#C02126"/>
<path d="M208.82 25.7907H201.46V29.4404C198.905 26.5815 195.438 25 191.484 25C182.847 25 176.582 32.1776 176.582 42.0925C176.582 51.6423 182.847 58.6375 191.423 58.6375C195.438 58.6375 198.479 57.2993 201.46 54.0754V58.5158C201.46 65.146 198.844 68.4306 193.37 68.4306C190.45 68.4306 187.53 66.9708 186.253 64.7202C185.523 63.4428 185.28 62.2263 185.037 59.4891H177.859C177.92 69.0389 183.82 75 193.309 75C198.723 75 203.467 72.8102 206.083 68.8564C208.212 65.8151 208.82 63.017 208.82 56.8126V25.7907ZM192.822 31.5085C198.114 31.5085 201.764 35.6448 201.764 41.6667C201.764 47.871 198.236 52.0073 192.944 52.0073C187.591 52.0073 184.124 47.9927 184.124 41.7883C184.063 35.5839 187.53 31.5085 192.822 31.5085Z" fill="#C02126"/>
<path d="M67.2141 25.7908V57.6034H74.5134V41.1801C74.5134 34.4283 76.3382 31.5086 80.4136 31.5086C83.6983 31.5086 85.2798 34.2458 85.2798 39.9635V57.6034H92.5791V41.1801C92.5791 34.3674 94.4039 31.5086 98.4793 31.5086C102.007 31.5086 103.345 33.8808 103.345 39.9027V57.6034H110.645V37.9562C110.645 29.4404 106.995 24.9392 99.9392 24.9392C96.0462 24.9392 92.8224 26.5816 90.5718 29.6229C88.6253 26.5816 85.6448 24.9392 82.1168 24.9392C78.9538 24.9392 77.3114 25.7908 74.5742 28.7105V25.7908H67.2141Z" fill="#646569"/>
<path d="M138.139 25.7908V29.5013C134.976 26.2774 132.238 24.9392 128.224 24.9392C119.708 24.9392 113.199 32.056 113.199 41.4842C113.199 51.4599 119.525 58.5767 128.406 58.5767C132.238 58.5767 134.732 57.421 138.139 54.2579V57.6034H145.499V25.7908H138.139ZM129.501 31.5086C134.854 31.5086 138.564 35.7665 138.564 41.7275C138.564 47.8711 134.854 52.0073 129.501 52.0073C124.331 52.0073 120.681 47.6886 120.681 41.7275C120.681 35.8273 124.452 31.5086 129.501 31.5086Z" fill="#646569"/>
<path d="M158.637 25.7908H151.277V57.6035H158.637V25.7908ZM155.049 8.09009C152.311 8.09009 150.182 10.219 150.182 12.8346C150.182 15.4502 152.372 17.7008 154.927 17.7008C157.603 17.7008 159.793 15.511 159.793 12.8346C159.793 10.1582 157.664 8.09009 155.049 8.09009Z" fill="#646569"/>
<path d="M172.749 0H165.389V57.6034H172.749V0Z" fill="#646569"/>
<path d="M220.56 25.7908H213.199V44.2214C213.199 49.2093 214.112 51.9465 216.545 54.5621C219.1 57.1776 222.567 58.5767 226.764 58.5767C231.022 58.5767 234.489 57.2385 237.044 54.5621C239.477 51.9465 240.389 49.2093 240.389 44.2214V25.7908H233.029V44.0998C233.029 49.5134 231.083 52.0073 226.764 52.0073C222.506 52.0073 220.56 49.5134 220.56 44.0998V25.7908Z" fill="#C02126"/>
<path d="M245.255 25.7907V57.6034H252.615V42.2749C252.615 34.4282 254.44 31.5693 259.367 31.5693C263.929 31.5693 265.328 33.6375 265.328 39.9027V57.6642H272.688V38.1387C272.688 29.1971 268.978 25 261.192 25C257.725 25 255.535 25.9732 252.676 28.7713V25.8516H245.255V25.7907Z" fill="#C02126"/>
<path d="M29.7445 28.2847C23.5401 28.2847 18.4915 33.3334 18.4915 39.5377C18.4915 45.7421 23.5401 50.7908 29.7445 50.7908C35.9489 50.7908 40.9976 45.7421 40.9976 39.5377C40.9976 33.3334 35.9489 28.2847 29.7445 28.2847ZM12.2263 39.5377C12.2263 29.8662 20.073 22.0195 29.7445 22.0195C39.416 22.0195 47.2628 29.8662 47.2628 39.5377C47.2628 40.2068 47.2019 40.8151 47.1411 41.4234C47.0195 43.1265 48.236 44.4039 49.9392 44.4039C52.798 44.4039 53.1022 40.6934 53.1022 39.4769C53.1022 26.5207 42.6399 16.0584 29.6837 16.0584C16.7275 16.0584 6.2652 26.5207 6.2652 39.4769C6.2652 52.4331 16.7275 62.8954 29.6837 62.8954C36.5572 62.8954 42.7007 59.9149 47.0194 55.2312L51.8248 59.2457C46.4112 65.3285 38.5036 69.1606 29.6837 69.1606C13.2603 69.1606 0 55.8394 0 39.4769C0 23.0535 13.3212 9.79321 29.6837 9.79321C46.107 9.79321 59.3674 23.1144 59.3674 39.4769C59.3674 46.0462 56.2044 51.399 49.9392 51.399C47.1411 51.399 45.4988 50.1217 44.5255 48.7226C41.4234 53.7105 35.9489 56.9952 29.6229 56.9952C20.073 57.056 12.2263 49.2093 12.2263 39.5377ZM29.7445 34.3674C32.6034 34.3674 34.9148 36.6788 34.9148 39.4769C34.9148 42.3358 32.6034 44.6472 29.7445 44.6472C26.8856 44.6472 24.5742 42.3358 24.5742 39.4769C24.635 36.6788 26.8856 34.3674 29.7445 34.3674Z" fill="#C02126"/>
</svg>
