<?xml version="1.0" encoding="utf-8"?>
<!-- Generator: Adobe Illustrator 15.1.0, SVG Export Plug-In . SVG Version: 6.00 Build 0)  -->
<!DOCTYPE svg PUBLIC "-//W3C//DTD SVG 1.1//EN" "http://www.w3.org/Graphics/SVG/1.1/DTD/svg11.dtd">
<svg version="1.1" id="Layer_1" xmlns="http://www.w3.org/2000/svg" xmlns:xlink="http://www.w3.org/1999/xlink" x="0px" y="0px"
	 width="24px" height="24px" viewBox="0 0 24 24" enable-background="new 0 0 24 24" xml:space="preserve">
<g>
	<g>
		<path fill-rule="evenodd" clip-rule="evenodd" d="M4.316,2.886C4.344,2.924,4.39,2.978,4.421,3.009
			c0.031,0.032,0.063,0.062,0.098,0.089c0.036,0.028,0.072,0.052,0.11,0.076c0.038,0.021,0.076,0.045,0.116,0.062
			c0.041,0.021,0.081,0.038,0.122,0.055C4.907,3.306,4.948,3.323,4.99,3.336c0.04,0.014,0.081,0.027,0.12,0.039
			c0.041,0.012,0.08,0.024,0.122,0.034C5.296,3.51,5.358,3.628,5.419,3.757c0.061,0.132,0.12,0.274,0.18,0.424
			C5.66,4.332,5.72,4.486,5.783,4.642S5.911,4.956,5.98,5.11c0.07,0.15,0.141,0.299,0.224,0.435
			c0.081,0.137,0.169,0.264,0.265,0.373C6.564,6.03,6.668,6.122,6.782,6.193c0.114,0.072,0.241,0.123,0.377,0.144
			c0.046,0.007,0.09,0.01,0.134,0.008c0.042-0.003,0.083-0.008,0.126-0.018C7.46,6.32,7.501,6.308,7.542,6.295
			c0.041-0.014,0.08-0.03,0.121-0.045c0.042-0.014,0.084-0.032,0.127-0.046c0.042-0.016,0.085-0.031,0.133-0.045
			c0.045-0.011,0.09-0.029,0.134-0.044C8.104,6.1,8.15,6.082,8.204,6.074c0.17,0.318,0.344,0.645,0.517,0.969
			c0.175,0.325,0.349,0.649,0.52,0.962c0.17,0.313,0.342,0.626,0.514,0.938c0.171,0.31,0.345,0.622,0.517,0.931
			c0.173,0.311,0.346,0.62,0.521,0.928c0.173,0.309,0.348,0.617,0.521,0.926c0.175,0.308,0.35,0.616,0.527,0.925
			c0.174,0.306,0.413,0.708,0.588,1.012c0.049-0.005,0.044-0.002,0.094-0.015c0.043-0.012,0.068-0.006,0.118-0.017
			c0.051-0.01,0.084-0.015,0.134-0.02c0.042-0.007,0.083-0.007,0.139-0.014c0.046-0.003,0.097-0.01,0.144-0.024
			c0.044-0.01,0.08-0.014,0.122-0.023c0.044-0.012,0.09-0.017,0.13-0.032c0.044-0.018,0.132-0.025,0.171-0.046
			c-0.16-0.327-0.337-0.69-0.505-1.014c-0.168-0.324-0.38-0.627-0.553-0.949c-0.174-0.323-0.352-0.645-0.53-0.966
			s-0.359-0.644-0.542-0.966c-0.182-0.32-0.364-0.64-0.549-0.96c-0.181-0.322-0.365-0.641-0.547-0.964
			c-0.181-0.32-0.362-0.639-0.542-0.961c-0.18-0.32-0.356-0.642-0.533-0.963C9.421,5.626,9.61,5.5,9.755,5.358
			C9.898,5.214,10,5.055,10.063,4.883c0.062-0.17,0.089-0.354,0.087-0.546c-0.003-0.189-0.035-0.387-0.088-0.587
			c-0.055-0.201-0.128-0.401-0.219-0.601C9.753,2.95,9.65,2.752,9.538,2.563c-0.109-0.189-0.226-0.37-0.342-0.541
			C9.079,1.854,8.964,1.696,8.857,1.557C8.864,1.509,8.874,1.459,8.886,1.41c0.013-0.05,0.027-0.102,0.041-0.155
			C8.94,1.203,8.955,1.151,8.969,1.097c0.013-0.052,0.025-0.104,0.035-0.158c0.012-0.052,0.02-0.105,0.025-0.158
			c0.005-0.05,0.005-0.103,0.002-0.152c-0.004-0.052-0.013-0.102-0.027-0.15C8.99,0.429,8.969,0.381,8.942,0.335
			c-0.048,0.04-0.096,0.081-0.143,0.126c-0.046,0.046-0.09,0.092-0.134,0.14c-0.043,0.048-0.083,0.1-0.124,0.153
			C8.498,0.806,8.46,0.86,8.42,0.913c-0.04,0.055-0.079,0.109-0.117,0.163c-0.04,0.055-0.077,0.11-0.114,0.166
			C8.15,1.294,8.115,1.349,8.077,1.401C8.039,1.453,8,1.505,7.963,1.555c0.032,0.058,0.07,0.117,0.113,0.179
			c0.04,0.059,0.085,0.123,0.132,0.187c0.047,0.062,0.096,0.127,0.146,0.195C8.406,2.18,8.46,2.247,8.51,2.316
			c0.052,0.068,0.103,0.138,0.154,0.21c0.049,0.07,0.099,0.143,0.146,0.216c0.046,0.073,0.091,0.148,0.129,0.224
			c0.04,0.075,0.075,0.152,0.106,0.229C9.07,3.263,9.095,3.329,9.118,3.4C9.14,3.471,9.16,3.542,9.177,3.616
			C9.192,3.689,9.205,3.764,9.215,3.84c0.007,0.074,0.011,0.147,0.007,0.222c-0.004,0.073-0.014,0.143-0.03,0.212
			C9.177,4.342,9.151,4.407,9.118,4.47C9.084,4.532,9.042,4.591,8.99,4.642C8.937,4.696,8.874,4.741,8.8,4.784
			C8.732,4.688,8.665,4.589,8.602,4.486C8.538,4.385,8.477,4.281,8.416,4.175C8.355,4.068,8.298,3.961,8.24,3.853
			c-0.056-0.109-0.113-0.22-0.167-0.329C8.018,3.413,7.964,3.301,7.91,3.19C7.859,3.079,7.807,2.965,7.754,2.854
			C7.704,2.741,7.652,2.63,7.603,2.519C7.551,2.409,7.488,2.324,7.419,2.217C7.393,2.184,7.385,2.163,7.354,2.143
			C7.319,2.121,7.291,2.101,7.261,2.082C7.229,2.062,7.197,2.04,7.167,2.02C7.136,2,7.104,1.981,7.072,1.961
			C7.041,1.943,7.008,1.924,6.978,1.91C6.944,1.893,6.911,1.88,6.876,1.869C6.843,1.857,6.808,1.847,6.775,1.844
			C6.739,1.84,6.705,1.837,6.666,1.84C6.619,1.989,6.6,2.139,6.599,2.283C6.598,2.431,6.558,2.566,6.618,2.715
			C6.65,2.86,6.734,3.002,6.792,3.14c0.059,0.142,0.127,0.28,0.198,0.418c0.071,0.139,0.146,0.276,0.222,0.415
			C7.286,4.111,7.36,4.248,7.425,4.385c0.067,0.136,0.126,0.273,0.172,0.412c0.048,0.139,0.082,0.275,0.099,0.415
			C7.532,5.23,7.386,5.219,7.257,5.183c-0.13-0.039-0.243-0.102-0.344-0.186c-0.1-0.081-0.187-0.183-0.264-0.299
			C6.572,4.58,6.506,4.448,6.447,4.31C6.386,4.168,6.334,4.021,6.287,3.875C6.239,3.723,6.195,3.571,6.154,3.423
			C6.111,3.274,6.071,3.128,6.028,2.992C5.986,2.856,5.949,2.747,5.901,2.635C5.833,2.638,5.767,2.637,5.698,2.638
			C5.629,2.639,5.56,2.641,5.489,2.642c-0.07,0.001-0.14,0.003-0.209,0.005C5.209,2.649,5.14,2.651,5.068,2.655
			C4.999,2.657,4.929,2.661,4.86,2.667c-0.068,0.003-0.137,0.01-0.207,0.013C4.59,2.681,4.518,2.687,4.446,2.7
			c-0.066,0.01-0.129,0.025-0.192,0.041c0,0.007,0,0.014,0,0.023C4.255,2.77,4.256,2.775,4.257,2.784
			C4.26,2.792,4.262,2.799,4.263,2.806c0.001,0.006,0.006,0.014,0.01,0.02C4.277,2.834,4.281,2.84,4.285,2.846
			C4.29,2.854,4.294,2.86,4.3,2.867C4.304,2.875,4.311,2.88,4.316,2.886C4.322,2.893,4.329,2.9,4.336,2.905"/>
		<path fill-rule="evenodd" clip-rule="evenodd" fill="#2196F3" d="M9.623,1.601C9.731,1.757,9.8,1.923,9.95,2.071
			c3.693-1.902,8.07,0.205,10.539,2.875c-0.124-0.441-0.326-0.984-0.642-1.332c-1.625-1.802-5.022-3.45-8.436-2.736
			c-0.398,0.083-0.846,0.173-1.318,0.374c-0.219,0.096-0.54,0.218-0.504,0.301"/>
		<path fill-rule="evenodd" clip-rule="evenodd" fill="#2196F3" d="M14.977,19.334c-0.835,0.415-1.675,0.81-2.565,1.069
			c-1.94,0.565-4.347-0.35-5.873-1.602c-1.446-1.188-2.72-3.077-3.223-4.871c-0.907-3.226,0.164-6.452,2.129-9.064
			C5.432,4.636,5.31,4.396,5.185,4.22c-2.926,2.966-3.891,7.568-2.591,11.53c1.557,5.532,7.723,8.621,13.69,6.197
			c-0.162-0.443-0.397-0.779-0.595-1.285C15.494,20.169,15.212,19.681,14.977,19.334z"/>
		<path opacity="0" fill-rule="evenodd" clip-rule="evenodd" fill="#2196F3" d="M14.446,11.646
			c-0.058,0.136,0.015,0.228,0.081,0.272c0.072,0.036,0.157,0.043,0.248,0.007C15.161,11.732,14.628,11.243,14.446,11.646z"/>
		<path opacity="0" fill-rule="evenodd" clip-rule="evenodd" fill="#2196F3" d="M13.959,11.547c-0.11-0.053-0.263-0.018-0.311,0.109
			c-0.044,0.123-0.004,0.25,0.101,0.331c0.089,0.044,0.211,0.041,0.284-0.032C14.162,11.845,14.125,11.635,13.959,11.547z"/>
		<path fill-rule="evenodd" clip-rule="evenodd" fill="#2196F3" d="M13.921,10.846c-0.458-0.12-0.958-0.056-1.408-0.029
			l-0.065,0.006c0.306,0.488,0.609,1.022,0.895,1.512c0.926-0.301,1.934-0.037,2.873-0.059
			C15.695,11.605,14.804,11.069,13.921,10.846z M14.033,11.955c-0.073,0.072-0.195,0.076-0.284,0.032
			c-0.104-0.081-0.145-0.208-0.101-0.331c0.048-0.127,0.2-0.162,0.311-0.109C14.125,11.635,14.162,11.845,14.033,11.955z
			 M14.775,11.926c-0.091,0.036-0.176,0.029-0.248-0.007c-0.066-0.044-0.139-0.136-0.081-0.272
			C14.628,11.243,15.161,11.732,14.775,11.926z"/>
		<path opacity="0" fill-rule="evenodd" clip-rule="evenodd" fill="#2196F3" d="M16.292,15.603
			c-0.183,0.645,0.622,0.741,0.797,0.327C17.265,15.51,16.656,15.067,16.292,15.603z"/>
		<path fill-rule="evenodd" clip-rule="evenodd" fill="#2196F3" d="M20.942,16.428c-0.041-0.237-0.099-0.474-0.179-0.705
			c-0.074-0.228-0.172-0.451-0.288-0.662c-0.112-0.21-0.244-0.411-0.396-0.595c-0.148-0.182-0.313-0.354-0.498-0.502
			c-0.186-0.151-0.389-0.28-0.602-0.388c-0.198-0.102-0.407-0.176-0.622-0.241c-0.212-0.059-0.436-0.104-0.661-0.137
			c-0.229-0.024-0.462-0.04-0.696-0.041c-0.235-0.001-0.472,0.01-0.712,0.034c-0.234,0.021-0.475,0.056-0.711,0.099
			c-0.237,0.041-0.475,0.096-0.703,0.154c-0.231,0.059-0.459,0.125-0.679,0.194c-0.223,0.072-0.437,0.146-0.643,0.227
			c-0.067,0.026-0.144,0.054-0.221,0.083c-0.076,0.027-0.154,0.055-0.234,0.081c-0.081,0.024-0.162,0.051-0.246,0.07
			c-0.077,0.021-0.161,0.036-0.242,0.047c-0.082,0.016-0.158,0.02-0.236,0.02c-0.076,0-0.15-0.009-0.221-0.024
			c-0.071-0.018-0.14-0.043-0.205-0.077c-0.063-0.036-0.119-0.082-0.171-0.142c-0.029-0.03-0.054-0.062-0.074-0.097
			c-0.02-0.031-0.036-0.066-0.05-0.103c-0.012-0.034-0.023-0.071-0.031-0.109c-0.007-0.035-0.012-0.073-0.013-0.111
			c-0.005-0.04-0.007-0.08-0.008-0.12c0-0.042,0.001-0.082,0.001-0.125c0.002-0.044,0.002-0.086,0.005-0.131
			c0.002-0.043,0.002-0.091,0.002-0.136c-0.038-0.056-0.067-0.102-0.095-0.146c-0.028-0.043-0.055-0.088-0.085-0.133
			c-0.035-0.053-0.063-0.097-0.091-0.141c-0.025-0.045-0.051-0.089-0.081-0.14c-0.031-0.053-0.067-0.104-0.105-0.157
			c-0.037-0.05-0.062-0.107-0.096-0.153c-0.03-0.055-0.064-0.094-0.093-0.147c-0.031-0.053-0.133-0.257-0.174-0.295
			c-0.075,0.088-0.249,0.342-0.307,0.439c-0.056,0.096-0.106,0.195-0.146,0.3c-0.043,0.103-0.077,0.208-0.105,0.316
			c-0.025,0.109-0.047,0.219-0.062,0.332c-0.015,0.109-0.025,0.224-0.03,0.337c-0.004,0.113-0.005,0.229-0.002,0.342
			c0.004,0.112,0.012,0.227,0.022,0.339c0.01,0.111,0.023,0.224,0.04,0.332c0.038,0.126,0.069,0.243,0.103,0.35
			c0.033,0.11,0.07,0.21,0.124,0.305c0.052,0.093,0.105,0.173,0.158,0.25c0.055,0.076,0.111,0.149,0.167,0.22
			c0.057,0.072,0.284,0.253,0.378,0.301c0.189,0.099,0.14,0.074,0.257,0.118c0.104,0.041,0.133,0.051,0.225,0.073
			c0.101,0.029,0.2,0.046,0.329,0.072c0.12,0.013,0.235,0.02,0.351,0.021c0.117,0.001,0.232,0,0.359-0.001
			c0.124-0.007,0.248-0.015,0.374-0.027c0.125-0.016,0.256-0.03,0.38-0.049c0.128-0.022,0.255-0.04,0.375-0.065
			c0.125-0.023,0.249-0.047,0.37-0.072c0.117-0.021,0.233-0.041,0.342-0.067c0.111-0.02,0.221-0.037,0.319-0.051
			c0.111-0.021,0.227-0.014,0.347,0.009c0.119,0.02,0.237,0.059,0.354,0.117c0.116,0.055,0.228,0.127,0.334,0.207
			c0.104,0.085,0.2,0.184,0.286,0.288c0.087,0.108,0.159,0.226,0.22,0.348c0.056,0.125,0.097,0.256,0.117,0.395
			c0.023,0.136,0.023,0.276-0.002,0.422c-0.021,0.144-0.073,0.287-0.15,0.436c0.073,0.133,0.149,0.262,0.226,0.396
			c0.079,0.132,0.157,0.263,0.231,0.393c0.079,0.132,0.16,0.262,0.235,0.389c0.081,0.131,0.16,0.259,0.239,0.389
			c0.082,0.126,0.164,0.256,0.246,0.382c0.076,0.13,0.159,0.255,0.241,0.384c0.082,0.123,0.163,0.25,0.244,0.378
			c0.082,0.126,0.165,0.254,0.246,0.379c0.113-0.037,0.23-0.085,0.356-0.147c0.121-0.065,0.245-0.142,0.37-0.226
			c0.127-0.086,0.255-0.185,0.38-0.287c0.126-0.107,0.253-0.219,0.373-0.336c0.114-0.115,0.232-0.24,0.339-0.366
			c0.11-0.128,0.212-0.258,0.302-0.39c0.093-0.13,0.175-0.259,0.249-0.388c0.068-0.13,0.129-0.259,0.171-0.382
			c0.084-0.225,0.145-0.459,0.181-0.698c0.042-0.236,0.06-0.479,0.06-0.722C21.003,16.913,20.982,16.671,20.942,16.428z
			 M16.292,15.603c0.364-0.535,0.973-0.093,0.797,0.327C16.914,16.344,16.109,16.247,16.292,15.603z M16.96,18.574
			c-0.447-0.386,0.106-0.897,0.458-0.728C17.865,18.061,17.533,18.868,16.96,18.574z M16.966,17.338
			c-0.423-0.364,0.041-0.873,0.399-0.759C17.886,16.74,17.587,17.616,16.966,17.338z"/>
		<path opacity="0" fill-rule="evenodd" clip-rule="evenodd" fill="#2196F3" d="M17.418,17.847c-0.352-0.17-0.905,0.342-0.458,0.728
			C17.533,18.868,17.865,18.061,17.418,17.847z"/>
		<path opacity="0" fill-rule="evenodd" clip-rule="evenodd" fill="#2196F3" d="M17.365,16.579
			c-0.358-0.114-0.822,0.395-0.399,0.759C17.587,17.616,17.886,16.74,17.365,16.579z"/>
		<path fill-rule="evenodd" clip-rule="evenodd" d="M14.908,16.175c-0.296,0.05-0.679,0.108-0.967,0.21
			c0.079,0.13,0.097,0.151,0.147,0.24l0.037,0.07c1.198,2.005,2.13,4.123,3.357,6.181c0.38-0.218,0.518-0.304,0.706-0.54
			C17.157,20.228,16.028,18.261,14.908,16.175z"/>
	</g>
</g>
<line fill="#FFFFFF" x1="23.688" y1="0" x2="23.688" y2="24"/>
<line fill="#FFFFFF" x1="0.375" y1="0" x2="0.375" y2="24"/>
</svg>
