<svg width="379" height="74" viewBox="0 0 379 74" fill="none" xmlns="http://www.w3.org/2000/svg">
<path d="M33.6222 30.385C29.6712 12.9576 21.4362 8.31751 19.3355 5.03487C18.4687 3.59023 17.7014 2.08823 17.0387 0.539307C16.9277 2.08772 16.7239 3.06322 15.4077 4.23744C12.7651 6.59361 1.54166 15.7422 0.597128 35.5438C-0.285469 54.0086 14.1716 65.3972 16.0813 66.574C17.5497 67.294 19.3381 66.574 20.2104 65.9263C27.1782 61.1442 36.6984 48.3956 33.6171 30.385" fill="#10AA50"/>
<path d="M17.6375 56.7416C17.2736 61.312 17.013 63.9675 16.0891 66.5818C16.0891 66.5818 16.6956 70.9302 17.1214 75.5393H18.6285C18.9882 72.2928 19.5371 69.0701 20.2724 65.8875C18.3214 64.9301 17.7124 60.7494 17.6375 56.7416Z" fill="#B8C4C2"/>
<path d="M20.2696 65.8902C18.2979 64.9792 17.7276 60.7133 17.6399 56.7391C18.1275 50.1832 18.2697 43.6063 18.0657 37.0355C17.9599 33.5903 18.1121 5.10202 17.2244 0.934204C17.8396 2.34673 18.5482 3.71668 19.3457 5.03492C21.4464 8.31756 29.6839 12.9576 33.6324 30.3876C36.6983 48.3492 27.2297 61.0772 20.2696 65.8902Z" fill="#12924F"/>
<path d="M216.426 55.6886C217.584 56.6151 219.899 56.997 221.94 56.997C224.586 56.997 227.179 56.5041 229.714 54.2151C232.294 51.8718 234.07 48.2795 234.07 42.5478C234.07 37.0432 231.974 32.5708 227.675 29.954C225.249 28.4288 222.106 27.8378 218.518 27.8378C217.486 27.8378 216.423 27.8946 215.819 28.1656C215.573 28.3619 215.397 28.634 215.321 28.9398C215.21 29.923 215.21 37.3915 215.21 41.8071C215.21 46.3311 215.21 52.646 215.321 53.4202C215.378 54.0731 215.708 55.2267 216.423 55.7093L216.426 55.6886ZM205.421 25.3759C206.358 25.3759 209.92 25.5384 211.574 25.5384C214.671 25.5384 216.813 25.3759 222.601 25.3759C227.453 25.3759 231.533 26.6868 234.454 29.1927C237.985 32.2456 239.858 36.4986 239.858 41.6755C239.858 49.0356 236.503 53.2886 233.133 55.6886C229.778 58.1945 225.414 59.6139 219.197 59.6139C215.889 59.6139 210.209 59.5029 205.468 59.4513H205.403C205.181 59.0126 205.809 57.3119 206.196 57.2706C207.486 57.1235 207.824 57.0745 208.42 56.8293C209.419 56.4164 209.656 55.9054 209.767 54.1067C209.933 50.726 209.878 46.6923 209.878 42.1142C209.878 38.8419 209.933 32.4624 209.822 30.4469C209.656 28.7566 208.944 28.3204 207.499 27.9927C206.476 27.7754 205.442 27.6117 204.402 27.5023C204.294 27.1746 205.14 25.6959 205.416 25.3759" fill="#21313C"/>
<path d="M253.538 28.1423C253.319 28.1965 253.04 28.7436 253.04 29.0172C252.986 30.9785 252.932 36.1038 252.932 39.6445C252.946 39.7122 252.98 39.7743 253.029 39.823C253.078 39.8716 253.14 39.9047 253.208 39.918C253.923 39.9748 255.688 40.029 257.175 40.029C259.273 40.029 260.486 39.7554 261.146 39.4277C262.911 38.5554 263.727 36.6483 263.727 34.576C263.727 29.8327 260.418 28.0339 255.513 28.0339C254.849 28.0256 254.186 28.0618 253.528 28.1423H253.538ZM266.042 49.9517C266.042 45.1517 262.514 42.4264 256.062 42.4264C255.789 42.4264 253.74 42.3723 253.252 42.4832C253.087 42.5348 252.922 42.6458 252.922 42.7542C252.922 46.1891 252.865 51.6937 253.03 53.877C253.141 54.8034 253.804 56.1118 254.63 56.4938C255.513 56.9841 257.497 57.0925 258.875 57.0925C262.679 57.0925 266.042 54.966 266.042 49.9517V49.9517ZM243.569 25.4713C244.065 25.4713 245.533 25.6365 249.283 25.6365C252.811 25.6365 255.678 25.5255 259.089 25.5255C263.335 25.5255 269.177 27.0533 269.177 33.376C269.177 36.4728 266.973 38.9915 264.106 40.1916C263.939 40.2458 263.939 40.3542 264.106 40.4109C268.186 41.4432 271.768 43.9542 271.768 48.7517C271.768 53.4383 268.847 56.3854 264.602 58.2358C262.021 59.3816 258.813 59.7635 255.569 59.7635C253.089 59.7635 246.441 59.49 242.746 59.5467C242.359 59.3816 243.1 57.637 243.43 57.3661C244.276 57.3388 245.116 57.207 245.931 56.9738C247.252 56.6486 247.409 56.2202 247.574 54.2589C247.685 52.5686 247.685 46.5168 247.685 42.2097C247.685 36.3205 247.742 32.3411 247.685 30.3798C247.629 28.852 247.079 28.3617 246.031 28.0881C245.205 27.9255 243.827 27.763 242.725 27.5978C242.449 27.3397 243.296 25.6907 243.572 25.4713" fill="#21313C"/>
<path d="M45.8314 59.5803C45.6878 59.2318 45.6303 58.8538 45.6637 58.4784C45.6511 58.2233 45.7092 57.9697 45.8314 57.7455C46.5448 57.6433 47.2515 57.4985 47.9476 57.3119C48.9231 57.0693 49.2896 56.5377 49.3463 55.2938C49.5063 52.3544 49.5167 46.842 49.4573 42.9633V42.8497C49.4573 42.4316 49.4573 41.8665 48.9412 41.4639C48.034 40.8947 47.0491 40.4601 46.0173 40.1735C45.5553 40.0342 45.2998 39.7916 45.3127 39.5077C45.3256 39.2238 45.6172 38.8884 46.2185 38.7722C47.816 38.6071 51.9993 37.6083 53.6432 36.8496C53.8136 37.0697 53.8931 37.3468 53.8651 37.6238C53.8651 37.7941 53.8393 37.9748 53.8213 38.1606C53.7748 38.7103 53.7232 39.3297 53.7232 39.949C53.7347 40.0484 53.7829 40.14 53.8583 40.2059C53.9337 40.2717 54.0309 40.3071 54.1309 40.3052C54.184 40.305 54.2365 40.2942 54.2852 40.2734C54.334 40.2526 54.3781 40.2221 54.4148 40.1839C57.5452 37.7322 60.3504 36.8548 61.7879 36.8548C64.1543 36.8548 65.997 37.9877 67.4241 40.3155C67.4573 40.371 67.5041 40.4172 67.5601 40.4497C67.6161 40.4822 67.6794 40.5 67.7441 40.5013C67.8033 40.5012 67.8615 40.4865 67.9137 40.4586C67.9659 40.4307 68.0105 40.3904 68.0435 40.3413C70.9209 38.158 73.7726 36.8548 75.6797 36.8548C80.1933 36.8548 82.8902 40.2355 82.8902 45.8872C82.8902 47.513 82.8747 49.575 82.8592 51.5002C82.8463 53.1854 82.8334 54.7673 82.8334 55.8641C82.8334 56.1222 83.1895 56.8654 83.7237 57.0125C84.3844 57.3326 85.3367 57.4977 86.5418 57.7042H86.5883C86.6786 58.0293 86.4876 59.2913 86.3044 59.5494C86.0051 59.5494 85.5921 59.5261 85.076 59.5003C84.1392 59.4513 82.854 59.3868 81.3598 59.3868C78.361 59.3868 76.7946 59.4461 75.2978 59.5416C75.1842 59.1674 75.1455 57.9622 75.2823 57.7093C75.899 57.6014 76.509 57.4584 77.1094 57.2809C78.0643 56.9635 78.3404 56.5325 78.3998 55.2628C78.423 54.3622 78.5959 46.4266 78.2888 44.5426C78.0049 42.5891 76.5339 40.3052 73.3158 40.3052C72.1209 40.3052 70.1932 40.8006 68.3531 42.1968C68.2409 42.3268 68.1778 42.4921 68.1751 42.6639V42.7C68.3918 43.7168 68.3918 44.9039 68.3918 46.6975C68.3918 47.7298 68.3918 48.8059 68.3789 49.8821C68.366 52.0705 68.3557 54.1377 68.3918 55.6964C68.3918 56.7596 69.0344 57.0151 69.5532 57.219L70.2783 57.3893C70.7119 57.4926 71.1609 57.6009 71.8267 57.7068C71.9243 58.1602 71.9155 58.6302 71.8009 59.0797C71.7732 59.249 71.707 59.4097 71.6074 59.5494C69.9403 59.4926 68.2293 59.441 65.7595 59.441C65.0111 59.441 63.7879 59.4745 62.7117 59.5029C61.8369 59.5261 61.0085 59.5494 60.5388 59.5494C60.414 59.249 60.3585 58.9244 60.3762 58.5997C60.3503 58.2934 60.4101 57.986 60.5491 57.7119C60.7788 57.668 61.0007 57.6293 61.2124 57.5932C61.7904 57.49 62.2911 57.3996 62.7608 57.2835C63.5763 57.0254 63.8834 56.579 63.9427 55.539C64.1027 53.1131 64.2266 46.1246 63.8834 44.3749C63.3001 41.5645 61.7001 40.1426 59.1323 40.1426C57.6278 40.1426 55.7258 40.8652 54.1722 42.0316C54.0226 42.1765 53.9047 42.3508 53.8261 42.5436C53.7475 42.7364 53.7098 42.9435 53.7155 43.1517C53.7155 43.9852 53.7155 44.9762 53.7155 46.0394C53.7025 49.5492 53.6922 53.9183 53.7774 55.8099C53.829 56.3906 54.0355 57.0822 55.1271 57.3377C55.3671 57.4048 55.78 57.4745 56.26 57.5519C56.5361 57.6009 56.8381 57.6474 57.1504 57.7042C57.2488 58.3223 57.1975 58.9551 57.0007 59.5494C56.5207 59.5494 55.9323 59.521 55.2561 59.49C54.2238 59.4461 52.9335 59.3868 51.4754 59.3868C49.7515 59.3868 48.5515 59.4461 47.5889 59.49C46.9411 59.521 46.3811 59.5468 45.8211 59.5494" fill="#21313C"/>
<path d="M101.174 39.1929C100.241 39.1712 99.3226 39.4292 98.5369 39.9335C96.6221 41.0974 95.6466 43.4226 95.6466 46.8369C95.6466 53.2318 98.8492 57.699 103.435 57.699C104.668 57.7406 105.872 57.3158 106.805 56.5093C108.215 55.3609 108.96 53.0124 108.96 49.7272C108.96 43.4252 105.833 39.1929 101.174 39.1929ZM102.057 60.0706C93.773 60.0706 90.8232 53.9957 90.8232 48.3104C90.8232 44.3362 92.4465 41.2316 95.6491 39.0793C97.8912 37.6875 100.466 36.9245 103.105 36.8702C109.425 36.8702 113.84 41.4174 113.84 47.9259C113.84 52.3518 112.078 55.8435 108.741 58.0267C107.138 59.01 104.354 60.068 102.057 60.068" fill="#21313C"/>
<path d="M185.509 39.1929C184.574 39.1709 183.655 39.4288 182.868 39.9335C180.956 41.0974 179.981 43.4226 179.981 46.8369C179.981 53.2318 183.183 57.699 187.769 57.699C189.002 57.7406 190.206 57.3158 191.14 56.5093C192.549 55.3609 193.294 53.0124 193.294 49.7272C193.294 43.4252 190.167 39.1929 185.509 39.1929V39.1929ZM186.391 60.0706C178.107 60.0706 175.155 53.9957 175.155 48.3104C175.155 44.3362 176.781 41.2316 179.986 39.0793C182.227 37.6871 184.801 36.9241 187.439 36.8702C193.759 36.8702 198.175 41.4174 198.175 47.9259C198.175 52.3518 196.409 55.8435 193.075 58.0267C191.472 59.01 188.688 60.068 186.391 60.068" fill="#21313C"/>
<path d="M157.614 38.9813C155.062 38.9813 153.41 40.9968 153.41 44.1194C153.41 47.2421 154.83 50.9479 158.83 50.9479C159.516 50.9479 160.76 50.6408 161.377 49.9621C162.306 49.1079 162.912 47.3453 162.912 45.482C162.912 41.4123 160.93 38.9813 157.614 38.9813V38.9813ZM157.284 60.5145C156.563 60.5079 155.852 60.6856 155.219 61.0307C153.199 62.321 152.262 63.6114 152.262 65.1108C152.262 66.5172 152.806 67.6321 153.978 68.6257C155.397 69.8283 157.312 70.4115 159.828 70.4115C164.778 70.4115 167 67.7508 167 65.1108C167 63.2733 166.079 62.0423 164.182 61.3481C162.721 60.8113 160.28 60.5171 157.292 60.5171L157.284 60.5145ZM157.622 73.1625C154.649 73.1625 152.507 72.5354 150.675 71.1263C148.897 69.7508 148.094 67.7121 148.094 66.303C148.113 65.3954 148.458 64.5251 149.067 63.8514C149.583 63.263 150.786 62.161 153.56 60.2539C153.603 60.2366 153.64 60.2067 153.666 60.168C153.692 60.1293 153.705 60.0836 153.704 60.0371C153.706 59.9848 153.689 59.9337 153.657 59.8923C153.625 59.851 153.58 59.8219 153.529 59.81C151.245 58.9352 150.556 57.4874 150.347 56.7132C150.347 56.6874 150.334 56.6409 150.324 56.5945C150.259 56.2874 150.197 56.0009 150.61 55.7016C150.93 55.4745 151.444 55.1699 151.991 54.8499C152.763 54.4216 153.504 53.9387 154.208 53.4047C154.247 53.3653 154.275 53.3169 154.292 53.2639C154.308 53.2109 154.311 53.1547 154.301 53.1002C154.292 53.0457 154.271 52.9939 154.238 52.9491C154.206 52.9043 154.164 52.8677 154.115 52.8421C150.734 51.7041 149.031 49.1931 149.031 45.3581C149.021 44.1615 149.299 42.9801 149.843 41.9141C150.386 40.848 151.179 39.9287 152.153 39.2342C153.513 38.1606 156.928 36.8677 159.139 36.8677H159.268C161.542 36.9219 162.825 37.3993 164.6 38.0548C165.609 38.4253 166.679 38.6005 167.754 38.5709C169.635 38.5709 170.458 37.9748 171.163 37.2806C171.28 37.5926 171.341 37.9228 171.343 38.2561C171.388 39.0494 171.173 39.8356 170.732 40.4961C170.347 41.0277 169.441 41.4174 168.613 41.4174C168.528 41.4174 168.445 41.4174 168.355 41.4045C167.92 41.3705 167.488 41.2988 167.065 41.1903L166.853 41.2626C166.786 41.3607 166.83 41.4716 166.884 41.6084C166.884 41.642 166.91 41.6729 166.915 41.6936C167.066 42.3824 167.168 43.0808 167.222 43.7839C167.222 47.7969 165.64 49.5466 163.929 50.8395C162.275 52.0811 160.31 52.8427 158.252 53.0409V53.0409C158.208 53.0409 157.994 53.0589 157.591 53.0951C157.333 53.1183 156.997 53.1467 156.948 53.1467H156.899C156.528 53.2525 155.557 53.7144 155.557 54.5712C155.557 55.2861 155.996 56.1687 158.094 56.3287L159.449 56.4241C162.218 56.6177 165.674 56.8577 167.3 57.41C168.379 57.787 169.311 58.4958 169.964 59.4349C170.616 60.374 170.954 61.4953 170.931 62.6385C170.931 66.2514 168.37 69.6244 164.084 71.6941C162.066 72.665 159.854 73.1678 157.614 73.1651" fill="#21313C"/>
<path d="M144.969 57.6706C143.756 57.5055 142.873 57.3403 141.828 56.85C141.625 56.6409 141.49 56.3756 141.441 56.0887C141.33 54.3957 141.33 49.4924 141.33 46.282C141.33 43.6652 140.891 41.3787 139.781 39.74C138.458 37.887 136.584 36.7954 134.158 36.7954C132.008 36.7954 129.141 38.269 126.772 40.2871C126.715 40.3387 126.352 40.6845 126.359 40.1477C126.367 39.6109 126.45 38.5219 126.501 37.8251C126.524 37.6404 126.504 37.4528 126.441 37.2775C126.378 37.1022 126.275 36.9441 126.14 36.8161C124.592 37.5903 120.248 38.6225 118.64 38.7774C117.469 39.0045 117.172 40.1322 118.421 40.5219H118.442C119.444 40.7964 120.4 41.2163 121.28 41.7684C121.776 42.1503 121.722 42.6974 121.722 43.131C121.776 46.7827 121.776 52.4008 121.611 55.4538C121.554 56.6538 121.224 57.0874 120.341 57.3067L120.421 57.2809C119.75 57.4484 119.069 57.5759 118.382 57.6629C118.106 57.9338 118.106 59.5132 118.382 59.841C118.935 59.841 121.737 59.6784 124.06 59.6784C127.257 59.6784 128.912 59.841 129.737 59.841C130.068 59.459 130.179 57.988 129.957 57.6629C129.194 57.6262 128.437 57.5155 127.696 57.3325C126.816 57.1158 126.594 56.6796 126.54 55.699C126.432 53.1363 126.432 47.6833 126.432 43.9775C126.432 42.9452 126.705 42.4497 127.035 42.171C128.137 41.1877 129.957 40.5348 131.557 40.5348C133.105 40.5348 134.137 41.0252 134.912 41.6781C135.796 42.4638 136.35 43.5558 136.46 44.7336C136.679 46.7982 136.623 50.9479 136.623 54.5402C136.623 56.5016 136.46 56.9945 135.74 57.2113C135.41 57.3764 134.527 57.539 133.482 57.65C133.152 57.9751 133.26 59.5003 133.482 59.8281C134.914 59.8281 136.579 59.6655 138.994 59.6655C142.027 59.6655 143.954 59.8281 144.729 59.8281C145.059 59.4461 145.167 58.0216 144.948 57.65" fill="#21313C"/>
<path d="M310.482 59.8385L306.549 49.4977H291.207L287.276 59.8385H283.684L297.663 25.5643H300.373L314.025 59.8385H310.482ZM298.974 29.3502L292.265 46.8783H305.568L298.974 29.3502Z" fill="#21313C"/>
<path d="M320.967 54.9351C320.967 56.2461 321.163 57.7506 322.861 57.7506C324.028 57.7506 325.184 56.9274 326.066 56.2951V59.2087C325.434 59.6939 324.221 60.2771 322.231 60.2771C321.406 60.2771 319.269 60.2281 318.541 58.1893C318.25 57.3635 318.2 55.6628 318.2 54.4009V39.1H313.346V36.6715H318.2V26.8055H320.967V36.6612H326.066V39.0896H320.967V54.9351Z" fill="#21313C"/>
<path d="M329.894 59.8383V25.5538H332.807V59.8383H329.894Z" fill="#21313C"/>
<path d="M357.995 59.8384C354.157 59.8384 352.361 58.8681 352.361 55.6164C351.83 57.3635 349.208 60.3236 344.157 60.3236C339.254 60.3236 336.875 57.3145 336.875 54.0138C336.875 49.4021 340.807 47.7505 348.488 46.0136L352.359 45.1388V43.3323C352.359 41.1 351.244 38.6225 346.97 38.6225C342.214 38.6225 340.709 40.4677 340.709 44.2072L337.553 43.673C338.136 38.9632 341.29 36.0986 346.632 36.0986C350.661 36.0986 355.128 37.3116 355.128 43.0897V53.237C355.128 56.3338 355.223 57.5571 358.088 57.5571H358.573V59.8384H357.995ZM352.361 47.6059L350.906 47.993C343.04 50.0808 339.644 50.5737 339.644 53.9648C339.644 55.5674 340.906 57.7997 344.304 57.7997C347.12 57.7997 350.565 56.1016 351.732 53.4306C352.168 52.4602 352.361 51.4899 352.361 49.3531V47.6059Z" fill="#21313C"/>
<path d="M363.492 53.2266C363.881 54.8292 365.628 57.7893 369.943 57.7893C374.41 57.7893 375.879 55.3144 375.879 53.2757C375.879 51.2834 374.715 49.9208 370.88 49.1001L368.16 48.5169C364.568 47.7427 362.142 46.1375 362.142 42.7387C362.142 41.9155 362.286 39.6806 364.132 38.0315C365.734 36.5734 368.403 36.0883 370.441 36.0883C371.123 36.0883 373.987 36.0883 376.119 37.5928C377.392 38.4866 378.291 39.8177 378.645 41.3322L375.925 42.06C375.391 39.389 372.625 38.6122 370.294 38.6122C365.584 38.6122 364.955 41.0896 364.955 42.4961C364.955 45.2162 367.819 45.851 369.809 46.2355L372.237 46.7207C376.315 47.5465 378.645 49.8769 378.645 53.4692C378.645 56.1402 376.509 60.4113 370.003 60.4113C368.062 60.4113 363.159 60.1196 360.681 54.197L363.492 53.2266Z" fill="#21313C"/>
</svg>
