<svg width="380" height="71" viewBox="0 0 380 71" fill="none" xmlns="http://www.w3.org/2000/svg">
<path d="M136.918 55.3333L126.234 32.9314C123.696 27.5895 121.064 21.5582 120.109 18.754L119.936 18.9264C120.281 22.9524 120.375 28.0281 120.375 32.1482L120.641 55.255H112.855V7.45912H121.785L133.424 30.8322C135.618 35.203 137.717 40.9052 138.328 43.1768L138.5 43.0044C138.328 40.5606 137.795 33.7304 137.795 29.344L137.623 7.45912H145.142V55.3333H136.918ZM159.414 39.934V40.4666C159.414 45.276 161.247 50.4456 168.077 50.4456C171.32 50.4456 174.202 49.302 176.74 47.0305L179.716 51.6675C176.035 54.8163 171.837 56.3046 167.106 56.3046C157.221 56.3046 151.001 49.208 151.001 38.0071C151.001 31.8818 152.317 27.7618 155.372 24.3467C158.176 21.1039 161.67 19.6156 166.056 19.6156C169.471 19.6156 172.714 20.4929 175.69 23.2031C178.761 26.0072 180.249 30.2996 180.249 38.4301V40.0123C180.343 39.934 159.414 39.934 159.414 39.934ZM166.15 25.3179C161.858 25.3179 159.492 28.733 159.492 34.4197H172.354C172.463 28.6391 169.925 25.3179 166.15 25.3179ZM220.776 55.4273H213.679L209.387 39.323C208.243 35.203 207.116 29.7826 207.116 29.7826H206.943C206.943 29.7826 206.411 33.1978 204.672 39.6677L200.473 55.4273H193.377L183.836 20.8532L191.372 19.8036L195.225 36.6912C196.181 41.0619 197.058 45.8869 197.058 45.8869H197.231C197.231 45.8869 197.936 41.3282 199.251 36.5189L203.716 20.3206H211.157L215.089 36.0802C216.484 41.7669 217.283 46.0592 217.283 46.0592H217.455C217.455 46.0592 218.332 40.7173 219.209 36.6912L222.797 20.4146H230.677L220.776 55.4273ZM274.869 55.3333L270.671 47.8921C267.35 42.0332 265.157 38.6964 262.525 36.0802C261.648 35.203 260.943 34.686 259.376 34.686V55.3333H251.59V7.53744H266.206C276.89 7.53744 281.794 13.7567 281.794 21.1979C281.794 28.0281 277.423 34.3257 269.888 34.3257C271.642 35.203 274.791 39.84 277.235 43.866L284.331 55.3333H274.869V55.3333ZM263.841 14.023H259.47V29.0777H263.59C267.71 29.0777 269.982 28.5451 271.376 27.0568C272.692 25.7409 273.475 23.7357 273.475 21.2762C273.475 16.4669 270.843 14.023 263.841 14.023ZM294.733 39.934V40.4666C294.733 45.276 296.566 50.4456 303.397 50.4456C306.639 50.4456 309.522 49.302 312.06 47.0305L315.036 51.6675C311.355 54.8163 307.156 56.3046 302.425 56.3046C292.54 56.3046 286.321 49.208 286.321 38.0071C286.321 31.8818 287.637 27.7618 290.692 24.3467C293.496 21.1039 296.989 19.6156 301.376 19.6156C304.791 19.6156 308.034 20.4929 311.01 23.2031C314.081 26.0072 315.569 30.2996 315.569 38.4301V40.0123C315.663 39.934 294.733 39.934 294.733 39.934ZM301.485 25.3179C297.193 25.3179 294.827 28.733 294.827 34.4197H307.783C307.689 28.6391 305.245 25.3179 301.485 25.3179ZM329.84 56.1166C322.133 56.1166 322.133 49.208 322.133 46.2316V16.4669C322.133 11.6575 321.96 9.11967 321.428 6.22153L329.214 4.46698C329.746 6.56617 329.824 9.54265 329.824 14.1013V43.7721C329.824 48.5031 329.997 49.1924 330.529 50.0696C330.968 50.6806 332.112 51.0252 332.973 50.6023L334.195 55.3333C332.989 55.8659 331.595 56.1166 329.84 56.1166ZM343.062 15.2449C340.258 15.2449 338.159 12.9734 338.159 10.1693C338.159 7.36512 340.352 5.09361 343.234 5.09361C345.944 5.09361 348.216 7.28679 348.216 10.1693C348.138 12.9734 345.866 15.2449 343.062 15.2449ZM339.208 55.3333V20.9316L346.916 19.5373V55.3333H339.208ZM368.613 56.3046C359.072 56.3046 353.73 49.6467 353.73 38.3674C353.73 25.6782 361.344 19.6313 369.13 19.6313C372.983 19.6313 375.693 20.5086 378.764 23.4851L374.91 28.5607C372.811 26.7278 371.056 25.8506 369.051 25.8506C366.607 25.8506 364.681 27.0725 363.537 29.344C362.487 31.4432 362.143 34.7643 362.143 39.0567C362.143 43.8661 362.848 46.8425 364.508 48.5971C365.652 49.819 367.312 50.6179 369.145 50.6179C371.589 50.6179 373.955 49.4743 376.242 47.2028L379.829 51.8399C376.665 54.8163 373.344 56.3046 368.613 56.3046Z" fill="black"/>
<path d="M85.895 25.9289C81.8689 7.2868 59.4514 -3.66348 36 1.50618C12.4545 6.58185 -3.30512 25.8349 0.720953 44.477C4.74702 63.1191 27.1489 74.0694 50.616 68.9781C74.1614 63.8241 89.9994 44.571 85.895 25.9289ZM43.2688 52.3568C33.8224 52.3568 26.1149 44.6493 26.1149 35.203C26.1149 25.7566 33.8068 18.0491 43.2688 18.0491C52.7309 18.0491 60.4227 25.7566 60.4227 35.203C60.4227 44.6493 52.8092 52.3568 43.2688 52.3568Z" fill="#008C99"/>
<path d="M47.107 11.2189C33.4466 11.2189 22.418 22.2475 22.418 35.9079C22.418 49.5683 33.4466 60.597 47.107 60.597C60.7674 60.597 71.796 49.5527 71.796 35.9079C71.796 22.2631 60.7674 11.2189 47.107 11.2189ZM43.2689 50.1636C34.9505 50.1636 28.3082 43.4274 28.3082 35.203C28.3082 26.9785 35.0445 20.2423 43.2689 20.2423C51.4934 20.2423 58.3236 26.9785 58.3236 35.203C58.3236 43.4274 51.5717 50.1636 43.2689 50.1636Z" fill="#72CCD2"/>
</svg>
