<svg xmlns="http://www.w3.org/2000/svg" xmlns:xlink="http://www.w3.org/1999/xlink" width="134.75" height="35" viewBox="0 0 134.75 35">
  <defs>
    <clipPath id="clip-path">
      <rect id="Rectangle_4514" data-name="Rectangle 4514" width="134.75" height="35" fill="#005953"/>
    </clipPath>
  </defs>
  <g id="Nuage" transform="translate(-138 -2171)">
    <g id="Groupe_4052" data-name="Groupe 4052" transform="translate(138 2171)">
      <g id="Groupe_4051" data-name="Groupe 4051" clip-path="url(#clip-path)">
        <path id="Tracé_2913" data-name="Tracé 2913" d="M38.367,17.414a8.394,8.394,0,0,1-8.875,13.972,10.915,10.915,0,0,1-16.227,0A8.386,8.386,0,0,1,4.39,17.414a7.885,7.885,0,0,1,7.091-11.4,8,8,0,0,1,1.216.092,9.919,9.919,0,0,1,17.363,0,8,8,0,0,1,1.216-.092,7.885,7.885,0,0,1,7.091,11.4m-6.2-13.273a2.07,2.07,0,1,1,2.078-2.07,2.074,2.074,0,0,1-2.078,2.07M2.771,7.986A2.761,2.761,0,1,1,5.543,5.225,2.766,2.766,0,0,1,2.771,7.986M18.794,26.2a32.32,32.32,0,0,1-.214-4.02v-3.9a4.1,4.1,0,0,1,3.982-4.274,2.078,2.078,0,0,1,1.764.745,3.026,3.026,0,0,1,.428,1.97v5.457a30.174,30.174,0,0,1-.214,4.02h6.548a5.757,5.757,0,0,1-1.2-3.993V15.526a5.726,5.726,0,0,0-1.523-4.472,5.9,5.9,0,0,0-4.3-1.491c-2.191,0-4.886.993-5.5,2.709,0-.186.027-1.032.027-1.192V9.963H13.262a26.353,26.353,0,0,1,.214,4.02v8.2a29.664,29.664,0,0,1-.214,4.02Z" transform="translate(0)" fill="#005953" fill-rule="evenodd"/>
        <path id="Tracé_2914" data-name="Tracé 2914" d="M839.14,101.362v-.612c0-1.278-.775-1.863-2.539-1.863-1.71,0-2.619.559-3.02,1.863l-5.1-.825a5.718,5.718,0,0,1,2.245-3.221,10.287,10.287,0,0,1,6.013-1.517,11.642,11.642,0,0,1,4.944.932c1.71.932,2.458,2.4,2.458,4.792v6.256a7.728,7.728,0,0,0,1.177,4.712H839.14v-1.225a7.783,7.783,0,0,1-5.184,1.6,6.552,6.552,0,0,1-4.623-1.464,4.781,4.781,0,0,1-1.47-3.62,4.469,4.469,0,0,1,1.951-3.886,11.144,11.144,0,0,1,5.558-1.73c1.042-.106,1.844-.133,3.768-.186m0,4.153v-.745a15.924,15.924,0,0,0-4.623.532,1.971,1.971,0,0,0-1.55,1.757c0,.958.8,1.517,2.191,1.517a4.959,4.959,0,0,0,3.02-1.012,2.678,2.678,0,0,0,.962-2.05m6.472,8.438,3.848-2.529a4.865,4.865,0,0,0,4.062,1.81,4.117,4.117,0,0,0,3.26-1.171,4.207,4.207,0,0,0,.855-2.848,6.677,6.677,0,0,1-4.864,1.757c-4.65,0-7.589-3.035-7.589-7.879,0-4.738,3.02-7.853,7.589-7.853a7.442,7.442,0,0,1,4.864,1.544V95.639h5.6a11.743,11.743,0,0,0-.579,4.568v8.476c0,3.194-.909,5.351-2.779,6.655a11.317,11.317,0,0,1-6.36,1.571c-3.634,0-6.039-.905-7.91-2.955m4.65-10.834c0,2.449,1.389,4.02,3.5,4.02a4.072,4.072,0,0,0,.027-8.119c-2.138,0-3.527,1.624-3.527,4.1m25.377,3.511,4.747.867.05.014a7.736,7.736,0,0,1-1.764,2.742,8.7,8.7,0,0,1-6.307,2.263,8.374,8.374,0,0,1-6.2-2.263,9.04,9.04,0,0,1-2.432-6.5c0-5.271,3.394-8.758,8.5-8.758a7.675,7.675,0,0,1,8.017,6.229,19.359,19.359,0,0,1,.4,3.487,4.823,4.823,0,0,0,.027.532H868.651a3.364,3.364,0,0,0,3.634,3.3,3.91,3.91,0,0,0,2.7-.985,2.344,2.344,0,0,0,.654-.934m-6.907-5.055H875.6a3.112,3.112,0,0,0-3.367-2.609,3.223,3.223,0,0,0-3.5,2.609" transform="translate(-745.927 -85.634)" fill="#005953" fill-rule="evenodd"/>
        <path id="Tracé_2915" data-name="Tracé 2915" d="M470.532,114.067H465a29.664,29.664,0,0,0,.214-4.02v-8.2a26.353,26.353,0,0,0-.214-4.02h5.318v1.118c0,.16-.027,1.006-.027,1.192.619-1.717,3.314-2.709,5.5-2.709a5.9,5.9,0,0,1,4.3,1.491,5.726,5.726,0,0,1,1.523,4.472v6.682a5.757,5.757,0,0,0,1.2,3.993h-6.548a30.178,30.178,0,0,0,.214-4.02v-5.457a3.026,3.026,0,0,0-.428-1.97,2.078,2.078,0,0,0-1.764-.745,4.1,4.1,0,0,0-3.982,4.274v3.9a32.319,32.319,0,0,0,.214,4.02m23.785-16.088h5.532a29.664,29.664,0,0,0-.214,4.02v8.2a26.353,26.353,0,0,0,.214,4.02h-5.318V113.1c0-.16.027-1.006.027-1.192-.619,1.717-3.314,2.709-5.5,2.709a5.9,5.9,0,0,1-4.3-1.491,5.726,5.726,0,0,1-1.523-4.472v-6.682a5.757,5.757,0,0,0-1.2-3.993h6.548a30.178,30.178,0,0,0-.214,4.02v5.457a3.027,3.027,0,0,0,.428,1.97,2.078,2.078,0,0,0,1.764.745,4.1,4.1,0,0,0,3.982-4.274V102a32.32,32.32,0,0,0-.214-4.02" transform="translate(-418.977 -87.824)" fill="#005953" fill-rule="evenodd"/>
      </g>
    </g>
  </g>
</svg>
