<svg width="346" height="61" viewBox="0 0 346 61" fill="none" xmlns="http://www.w3.org/2000/svg">
<path d="M56.9731 4.42141e-06H5.85999C4.31272 0.00377688 2.82991 0.615375 1.73582 1.70106C0.641725 2.78674 0.0253776 4.25815 0.0215759 5.79353V19.438H14.2037V17.2092C14.2056 16.378 14.5392 15.5814 15.1314 14.9937C15.7237 14.406 16.5265 14.075 17.3641 14.0731H45.4907C46.3276 14.075 47.1296 14.4062 47.7207 14.9941C48.3119 15.5821 48.6439 16.3787 48.6439 17.2092V19.438H62.8332V5.79353C62.8293 4.25444 62.21 2.77979 61.1113 1.69349C60.0125 0.607198 58.5242 -0.00189334 56.9731 4.42141e-06Z" fill="#ED1944"/>
<path d="M48.6223 43.7908C48.6223 44.6213 48.2903 45.4179 47.6992 46.0059C47.108 46.5938 46.306 46.925 45.4691 46.9269H17.3425C16.5049 46.925 15.7021 46.594 15.1099 46.0063C14.5176 45.4186 14.184 44.622 14.1821 43.7908V41.562H0V55.2065C0.00380168 56.7419 0.620138 58.2133 1.71423 59.2989C2.80832 60.3846 4.29114 60.9962 5.83842 61H56.9516C58.4988 60.9962 59.9817 60.3846 61.0758 59.2989C62.1698 58.2133 62.7862 56.7419 62.79 55.2065V41.562H48.6223V43.7908Z" fill="#ED1944"/>
<path d="M14.1821 23.4599H0V37.533H14.1821V23.4599Z" fill="#ED1944"/>
<path d="M62.8116 23.4599H48.6295V37.533H62.8116V23.4599Z" fill="#ED1944"/>
<path d="M346 42.3264C346.001 41.5416 345.768 40.7741 345.33 40.121C344.891 39.4679 344.267 38.9586 343.537 38.6577C342.807 38.3567 342.003 38.2776 341.227 38.4303C340.451 38.5831 339.739 38.9608 339.179 39.5157C338.62 40.0707 338.239 40.7778 338.085 41.5475C337.932 42.3173 338.011 43.115 338.315 43.8398C338.618 44.5645 339.131 45.1837 339.789 45.6188C340.447 46.0539 341.221 46.2854 342.012 46.284C343.069 46.2821 344.082 45.8646 344.83 45.1228C345.577 44.381 345.998 43.3754 346 42.3264ZM342.012 45.3125C341.415 45.3139 340.83 45.1393 340.333 44.811C339.836 44.4826 339.448 44.0152 339.219 43.468C338.99 42.9208 338.93 42.3183 339.046 41.7371C339.162 41.1558 339.449 40.6218 339.872 40.2027C340.294 39.7837 340.832 39.4985 341.418 39.3832C342.004 39.268 342.611 39.3278 343.162 39.5552C343.714 39.7827 344.185 40.1674 344.516 40.6608C344.846 41.1541 345.022 41.7338 345.021 42.3264C345.021 43.1183 344.704 43.8779 344.14 44.4378C343.575 44.9978 342.81 45.3125 342.012 45.3125Z" fill="#4E4540"/>
<path d="M343.509 41.6049C343.516 41.4406 343.491 41.2765 343.434 41.1221C343.377 40.9676 343.29 40.8258 343.178 40.7048C343.035 40.5748 342.867 40.4749 342.683 40.4111C342.5 40.3472 342.306 40.3208 342.113 40.3333H340.673V44.2123H341.486V42.9407H341.99L342.71 44.2123H343.639L342.811 42.7836C343.036 42.6827 343.223 42.5152 343.348 42.3041C343.473 42.0931 343.53 41.8488 343.509 41.6049ZM342.688 41.6049C342.693 41.6868 342.68 41.7688 342.649 41.8451C342.619 41.9213 342.571 41.9899 342.511 42.0458C342.45 42.1018 342.378 42.1438 342.299 42.1688C342.22 42.1939 342.137 42.2013 342.055 42.1907H341.457V41.0191H342.033C342.451 41.0191 342.688 41.212 342.688 41.5977V41.6049Z" fill="#4E4540"/>
<path d="M106.337 30.7679V30.2321C106.337 20.8667 100.146 14.0659 91.7229 14.0659C83.3 14.0659 76.9937 20.981 76.9937 30.2892V30.8322C76.9937 40.1976 83.1848 46.9412 91.6077 46.9412C100.031 46.9412 106.337 40.0761 106.337 30.7679ZM83.7895 30.6679V30.3035C83.7895 24.3957 86.8563 20.0452 91.6077 20.0452C96.2367 20.0452 99.5266 24.46 99.5266 30.3678V30.725C99.5266 36.6328 96.4598 41.0476 91.7085 41.0476C87.0939 41.0334 83.7895 36.5543 83.7895 30.6679Z" fill="#4E4540"/>
<path d="M138.682 30.8893V30.0535C138.682 19.3737 132.671 14.0659 126.293 14.0659C121.728 14.0659 118.957 16.6876 116.977 19.7309V14.6588H110.181V55.2922H116.977V41.512C118.899 44.3123 121.664 46.8769 126.293 46.8769C132.729 46.8769 138.682 41.512 138.682 30.8893ZM116.855 30.7679V30.1749C116.855 23.9671 120.339 20.0309 124.428 20.0309C128.517 20.0309 131.829 23.9099 131.829 30.2321V30.7679C131.829 37.0972 128.582 40.9119 124.428 40.9119C120.274 40.9119 116.855 36.9757 116.855 30.7679Z" fill="#4E4540"/>
<path d="M168.119 42.0478L164.577 37.8687C162.468 39.8975 160.258 41.212 157.241 41.212C153.087 41.212 149.783 38.3545 149.178 33.0396H169.141C169.206 32.0823 169.206 31.1251 169.206 30.7107C169.206 21.2239 164.635 14.0659 155.974 14.0659C148.156 14.0659 142.39 20.8667 142.39 30.3535V30.8322C142.39 40.7333 148.761 46.9412 156.939 46.9412C159.048 46.9726 161.138 46.5516 163.068 45.707C164.998 44.8625 166.721 43.6142 168.119 42.0478ZM155.974 19.7309C159.941 19.7309 162.23 23.3741 162.59 28.3819H149.121C149.574 23.0098 152.245 19.7309 155.974 19.7309Z" fill="#4E4540"/>
<path d="M189.169 14.0659C184.85 14.0659 182.258 16.509 180.451 19.3165V14.6588H173.655V46.284H180.451V27.1317C180.451 22.7741 182.913 20.1523 186.462 20.1523C190.011 20.1523 192.178 22.5955 192.178 27.0103V46.2983H198.967V25.1029C198.953 18.3593 195.288 14.0659 189.169 14.0659Z" fill="#4E4540"/>
<path d="M226.345 37.2758V37.2115C226.345 32.2609 222.616 29.9964 217.706 27.789C213.977 26.1173 211.457 25.0387 211.457 22.9527V22.8098C211.457 21.081 212.955 19.7095 215.482 19.7095C218.008 19.7095 220.65 20.9024 223.055 22.5169L225.935 17.5592C222.919 15.4056 219.312 14.219 215.597 14.1588C209.643 14.1588 205.072 17.7306 205.072 23.4099V23.5242C205.072 28.7105 209.038 30.8608 213.79 32.8896C217.576 34.4969 220.046 35.5113 220.046 37.783V37.8402C220.046 39.8118 218.419 41.3049 215.597 41.3049C212.775 41.3049 209.701 39.9261 206.814 37.6044L203.632 42.4335C206.947 45.2187 211.131 46.7787 215.474 46.8483C221.565 46.8769 226.345 43.4765 226.345 37.2758Z" fill="#4E4540"/>
<path d="M247.38 45.391V39.8404C246.252 40.4346 244.993 40.7414 243.716 40.7333C241.556 40.7333 240.289 39.7189 240.289 37.2758V20.4452H247.481V14.6588H240.282V6.12927H233.486V14.6588H229.995L231.118 20.4452H233.486V38.6474C233.486 44.791 237.035 46.7626 241.722 46.7626C243.695 46.7902 245.642 46.3181 247.38 45.391Z" fill="#4E4540"/>
<path d="M273.398 17.5235C271.353 15.4375 268.164 14.3017 264.039 14.3017C260.378 14.2814 256.767 15.1417 253.514 16.8091L255.436 22.1812C257.827 20.986 260.456 20.3322 263.132 20.2667C267.451 20.2667 269.985 22.4741 269.985 26.696V28.0104C267.631 27.1774 265.149 26.7545 262.65 26.7603C255.918 26.7603 251.347 30.0964 251.347 36.8972V37.1972C251.347 43.348 255.796 46.8627 261.087 46.8627C262.824 46.9324 264.549 46.5576 266.097 45.7745C267.645 44.9913 268.965 43.826 269.928 42.3907V46.2697H276.601V26.6531C276.601 22.717 275.557 19.6095 273.398 17.5235ZM270.05 35.6685C270.05 39.2403 267.041 41.8764 263.132 41.8121C260.188 41.7549 257.963 39.9618 257.963 36.8115V36.69C257.963 33.3468 260.245 31.3823 264.154 31.3823C266.175 31.3724 268.178 31.7559 270.05 32.511V35.6685Z" fill="#4E4540"/>
<path d="M305.484 42.1621L301.819 37.6901C299.955 39.5403 298.09 40.9119 295.34 40.9119C290.704 40.9119 287.421 36.7972 287.421 30.6536V30.3536C287.421 24.3814 290.668 20.1524 295.124 20.1524C298.004 20.1524 299.869 21.5811 301.553 23.3099L305.34 18.3593C304.043 16.9643 302.46 15.8604 300.699 15.1212C298.937 14.382 297.037 14.0246 295.124 14.0731C286.766 14.0731 280.568 20.8739 280.568 30.2964V30.8965C280.568 40.3262 286.586 46.9484 294.88 46.9484C296.897 46.9994 298.9 46.5952 300.737 45.766C302.574 44.9369 304.197 43.7046 305.484 42.1621Z" fill="#4E4540"/>
<path d="M326.282 29.8678L321.509 34.9541L327.909 46.284H335.785L326.282 29.8678Z" fill="#4E4540"/>
<path d="M327.427 14.6589L316.542 28.5605V3.20038H309.753V46.284H316.542V37.1544L335.482 14.6589H327.427Z" fill="#4E4540"/>
</svg>
