<svg xmlns="http://www.w3.org/2000/svg" xmlns:xlink="http://www.w3.org/1999/xlink" viewBox="0 0 439.76 79.48"><defs><style>.cls-1{fill:#253858;}.cls-2{fill:url(#linear-gradient);}.cls-3{fill:url(#linear-gradient-2);}.cls-4{fill:#2684ff;}</style><linearGradient id="linear-gradient" x1="30.03" y1="6.57" x2="30.03" y2="43.2" gradientUnits="userSpaceOnUse"><stop offset="0" stop-color="#2684ff"/><stop offset="0.82" stop-color="#0052cc"/></linearGradient><linearGradient id="linear-gradient-2" x1="19.05" y1="42.17" x2="31.32" y2="67.85" gradientUnits="userSpaceOnUse"><stop offset="0" stop-color="#2684ff"/><stop offset="0.62" stop-color="#0052cc"/></linearGradient></defs><title>Opsgenie-blue-rgb</title><g id="Layer_2" data-name="Layer 2"><g id="Layer_1-2" data-name="Layer 1"><path class="cls-1" d="M84.21,32.22c0-17.62,10.14-30,28.21-30s28.13,12.37,28.13,30c0,17.8-10.15,30.26-28.13,30.26S84.21,50,84.21,32.22Zm8,0c0,12.37,5.78,22.61,20.2,22.61s20.11-10.24,20.11-22.61c0-12.1-5.78-22.34-20.11-22.34S92.22,20.12,92.22,32.22Z"/><path class="cls-1" d="M157.54,53.76V79h-7.65V17.09h7.65v8c2.85-5.87,8.19-8.9,15-8.9,11.84,0,17.8,10.06,17.8,23.14,0,12.55-6.23,23.14-18.69,23.14C165.2,62.48,160.21,59.54,157.54,53.76Zm13-30.44c-6.86,0-13,4.36-13,14.24v3.56c0,9.88,5.61,14.24,12.11,14.24,8.63,0,13.08-5.69,13.08-16C182.73,28.66,178.46,23.32,170.54,23.32Z"/><path class="cls-1" d="M213.26,62.48a34.28,34.28,0,0,1-15.49-3.29v-8.1a34.84,34.84,0,0,0,15.84,4.36c5.88,0,8.9-2.4,8.9-5.87s-2.58-5.34-11-7.39c-9.88-2.4-14.07-6.23-14.07-13.53,0-7.74,6-12.46,16.11-12.46a31.58,31.58,0,0,1,14.33,3.2v7.93c-5.34-2.68-9.7-4.1-14.42-4.1-5.6,0-8.63,2-8.63,5.43,0,3.12,2.14,5.07,10.32,7C225,38.09,230,41.74,230,49.49,230,56.88,225.18,62.48,213.26,62.48Z"/><path class="cls-1" d="M268.79,53.58c-2.85,5.88-8.19,8.9-15,8.9-11.75,0-17.62-10.06-17.62-23.14,0-12.55,6.14-23.14,18.51-23.14,6.5,0,11.48,2.94,14.15,8.72V17.09h7.48v40.5c0,13.08-6.14,21.89-22.08,21.89a44.93,44.93,0,0,1-15.84-2.4V69.6a49.26,49.26,0,0,0,15.49,2.67c11.12,0,15-6,15-14.24Zm-13,1.78c6.85,0,13-4.36,13-14.24V37.56c0-9.88-5.61-14.24-12.1-14.24-8.64,0-13.09,5.7-13.09,16C243.6,50,247.87,55.36,255.8,55.36Z"/><path class="cls-1" d="M309.11,62.48c-16.65,0-23.95-9.61-23.95-23.23,0-13.44,7.48-23,21-23,13.71,0,19.22,9.52,19.22,23.05v3.47H292.91c1.07,7.57,6,12.46,16.46,12.46a39.48,39.48,0,0,0,13.53-2.4v7C319.25,61.77,313.65,62.48,309.11,62.48ZM292.82,36.14h24.83c-.44-8.28-4.18-13-11.84-13C297.71,23.14,293.62,28.39,292.82,36.14Z"/><path class="cls-1" d="M372.3,61.59h-7.66V34.71c0-8-3.2-11.57-10.5-11.57-7.12,0-12,4.72-12,13.71V61.59h-7.65V17.09h7.65v7.3a15.61,15.61,0,0,1,14.07-8.19c10.23,0,16.11,7,16.11,19.31Z"/><path class="cls-1" d="M386.89,0a5,5,0,0,1,5.34,5.34,5.34,5.34,0,0,1-10.68,0A5,5,0,0,1,386.89,0ZM383,17.09h7.66v44.5H383Z"/><path class="cls-1" d="M423.47,62.48c-16.65,0-23.94-9.61-23.94-23.23,0-13.44,7.47-23,21-23,13.71,0,19.23,9.52,19.23,23.05v3.47H407.27c1.07,7.57,6,12.46,16.47,12.46a39.57,39.57,0,0,0,13.53-2.4v7C433.62,61.77,428,62.48,423.47,62.48ZM407.18,36.14H432c-.44-8.28-4.18-13-11.83-13C412.08,23.14,408,28.39,407.18,36.14Z"/><circle class="cls-2" cx="30.03" cy="18.48" r="17.84"/><path class="cls-3" d="M28.51,71.7A86.06,86.06,0,0,1,.26,42.17a2,2,0,0,1,.87-2.77l13.51-6.63a2,2,0,0,1,2.61.8,66.79,66.79,0,0,0,29,26.25A86.5,86.5,0,0,1,31.55,71.7,2.87,2.87,0,0,1,28.51,71.7Z"/><path class="cls-4" d="M31.55,71.7A86,86,0,0,0,59.8,42.17a2,2,0,0,0-.86-2.77L45.42,32.77a2,2,0,0,0-2.61.8,66.76,66.76,0,0,1-29,26.25A86,86,0,0,0,28.51,71.7,2.87,2.87,0,0,0,31.55,71.7Z"/></g></g></svg>