<svg width="601" height="95" viewBox="0 0 601 95" fill="none" xmlns="http://www.w3.org/2000/svg">
<path d="M62.0012 95H18.0012C-2.79882 69.5 -5.89882 33.9 10.4012 5.2L38.9012 54.8L70.4012 0H116.701L62.0012 95ZM147.301 5.39999C163.201 34 160.201 69.4 139.801 95H96.6012L109.901 71.5H92.3012L113.001 35H130.701L147.301 5.39999ZM191.201 48.9C191.201 69.7 200.701 79.7 217.101 79.7C233.501 79.7 243.001 69.8 243.001 48.9C243.001 28 233.501 18 217.101 18C200.701 18 191.201 27.9 191.201 48.9ZM183.701 48.9C183.701 23.6 196.301 11.4 217.001 11.4C237.701 11.4 250.301 23.6 250.301 48.9C250.301 74 237.701 86.3 217.001 86.3C196.301 86.3 183.701 74 183.701 48.9ZM283.201 71.8L261.501 14.3C261.201 13.4 260.101 11.9 258.101 11.9C256.101 11.9 254.501 13.5 254.501 15.5C254.501 16.1 254.701 16.8 254.801 17.1L279.801 83C280.301 84.5 281.801 85.5 283.201 85.5C284.601 85.5 286.101 84.5 286.601 83L311.601 17.1C311.701 16.8 311.901 16.1 311.901 15.5C311.901 13.5 310.301 11.9 308.301 11.9C306.301 11.9 305.201 13.4 304.901 14.3L283.201 71.8ZM364.301 51.2V82C364.301 83.9 365.901 85.6 367.901 85.6C369.901 85.6 371.501 83.9 371.501 82V15.6C371.501 13.7 369.901 12 367.901 12C365.901 12 364.301 13.7 364.301 15.6V44.6H327.101V15.6C327.101 13.7 325.501 12 323.501 12C321.501 12 319.901 13.7 319.901 15.6V82C319.901 83.9 321.501 85.6 323.501 85.6C325.501 85.6 327.101 83.9 327.101 82V51.2H364.301ZM405.901 34.8C392.101 34.8 383.901 42.9 383.901 60.4C383.901 77.9 392.101 86.2 405.901 86.2C414.601 86.2 419.701 82.4 422.001 80.4C423.101 79.4 423.401 78.7 423.401 77.7C423.401 76 422.001 74.6 420.301 74.6C419.501 74.6 419.001 74.8 418.301 75.3C415.801 77.1 412.101 79.9 405.901 79.9C396.101 79.9 390.801 73.7 390.801 60.3C390.801 47.2 396.001 40.8 405.901 40.8C413.001 40.8 415.801 44 417.401 45.8C418.101 46.7 418.901 47.1 420.001 47.1C421.701 47.1 423.101 45.8 423.101 44C423.101 43.3 422.901 42.7 422.301 42C420.601 39.8 415.401 34.8 405.901 34.8ZM440.001 12.1C440.001 10.3 438.501 8.7 436.601 8.7C434.801 8.7 433.201 10.3 433.201 12.1V73.1C433.201 81.3 437.201 85.6 444.301 85.6C446.001 85.6 447.501 84.2 447.501 82.4C447.501 80.6 446.001 79.2 444.301 79.2C441.401 79.2 440.001 77.4 440.001 73.1V12.1ZM491.201 60.4C491.201 46.9 485.501 41 475.701 41C465.901 41 460.201 47 460.201 60.4C460.201 74.1 465.901 80 475.701 80C485.601 80 491.201 74.1 491.201 60.4ZM498.201 60.4C498.201 77.9 489.701 86.2 475.801 86.2C462.001 86.2 453.401 78 453.401 60.4C453.401 42.9 462.101 34.8 475.801 34.8C489.601 34.8 498.201 42.9 498.201 60.4ZM514.701 38.8C514.701 36.9 513.101 35.4 511.301 35.4C509.401 35.4 507.901 36.9 507.901 38.8V66.7C507.901 76.9 511.301 86.1 527.801 86.1C544.401 86.1 547.701 76.8 547.701 66.7V38.8C547.701 36.9 546.201 35.4 544.401 35.4C542.501 35.4 540.901 36.9 540.901 38.8V66.7C540.901 73.6 538.701 79.6 527.901 79.6C517.101 79.6 514.901 73.6 514.901 66.7V38.8M593.201 50.4C593.201 50.4 589.101 41 579.101 41C569.401 41 564.001 47.3 564.001 60.4C564.001 73.8 569.201 80 579.101 80C587.301 80 593.201 75.3 593.201 65.1V50.4ZM593.201 41.7V12.1C593.201 10.2 594.701 8.7 596.601 8.7C598.501 8.7 600.001 10.2 600.001 12.1V65.1C600.001 79.2 591.201 86.2 579.101 86.2C565.301 86.2 557.201 78 557.201 60.4C557.201 42.9 564.901 34.8 578.701 34.8C585.501 34.8 590.701 38.3 593.201 41.7Z" fill="#000E9C"/>
</svg>
