<svg xmlns="http://www.w3.org/2000/svg" class="w-full -translate-y-0.5" viewBox="0 1 141.29 28.49"><g fill="none" fill-rule="evenodd" transform="translate(0 1)"><path fill="#000" fill-rule="nonzero" d="M31.85 6.42h7.31c5.29 0 6.63 3.19 6.63 5.79S44.42 18 39.16 18h-4.51v9.12h-2.8zm2.8 9.12h3.69c2.22 0 4.44-.52 4.44-3.33s-2.22-3.33-4.44-3.33h-3.69zM49.45 6.32a1.93 1.93 0 1 1-1.93 2 1.94 1.94 0 0 1 1.93-2zm-1.29 6.94h2.6v13.86h-2.6zM53.77 13.26h2.63v2.14h.06a4.89 4.89 0 0 1 4.56-2.49c2.69 0 5 1.61 5 5.29v8.92h-2.6v-8.18c0-2.61-1.49-3.57-3.16-3.57-2.19 0-3.86 1.4-3.86 4.62v7.13h-2.63zM70.84 21.16c0 2.42 2.25 4 4.68 4a4.78 4.78 0 0 0 3.8-2.07l2 1.52a7.25 7.25 0 0 1-6.16 2.86c-4.39 0-7.13-3.15-7.13-7.28a7 7 0 0 1 7.13-7.28c4.88 0 6.75 3.74 6.75 7.31v.94zm8.32-2.11c-.06-2.31-1.35-4-4-4a4.28 4.28 0 0 0-4.3 4zM93.85 16.95a4.38 4.38 0 0 0-3.45-1.55c-2.86 0-4.33 2.31-4.33 4.91a4.45 4.45 0 0 0 4.48 4.71 4.12 4.12 0 0 0 3.36-1.55l1.87 1.85a6.82 6.82 0 0 1-5.26 2.13 6.91 6.91 0 0 1-7.25-7.22 7 7 0 0 1 7.25-7.31 7.12 7.12 0 0 1 5.32 2.19z"></path><path fill="#000" fill-rule="nonzero" d="M103.56 12.91a7.28 7.28 0 1 1-.24 14.558 7.28 7.28 0 0 1 .24-14.558zm0 12.11c2.8 0 4.56-2 4.56-4.83s-1.76-4.82-4.56-4.82-4.57 2-4.57 4.82 1.76 4.83 4.57 4.83zM113.06 13.26h2.63v2.14a4.9 4.9 0 0 1 4.57-2.49c2.69 0 5 1.61 5 5.29v8.92h-2.63v-8.18c0-2.61-1.49-3.57-3.15-3.57-2.2 0-3.86 1.4-3.86 4.62v7.13h-2.56zM130.16 21.16c0 2.42 2.25 4 4.68 4a4.81 4.81 0 0 0 3.8-2.07l2 1.52a7.24 7.24 0 0 1-6.14 2.83c-4.38 0-7.13-3.15-7.13-7.28a7 7 0 0 1 7.16-7.28c4.89 0 6.76 3.74 6.76 7.31v.94zm8.3-2.11c-.06-2.31-1.34-4-4-4a4.27 4.27 0 0 0-4.3 4z"></path><path stroke="#201d1e" stroke-linecap="square" stroke-width="1.77" d="m14.58 5.24.7-3.89"></path><path stroke="#201d1e" stroke-linecap="square" stroke-linejoin="round" stroke-width="1.77" d="M17.8 3.86 15.36.88l-3.32 1.94"></path><path stroke="#201d1e" stroke-linecap="square" stroke-width="1.77" d="m11.66 21.84.68-3.89"></path><path stroke="#201d1e" stroke-linecap="square" stroke-linejoin="round" stroke-width="1.77" d="m14.88 20.45-2.46-2.97-3.31 1.95"></path><path stroke="#201d1e" stroke-linecap="square" stroke-width="1.77" d="m13.07 13.82.68-3.89"></path><path stroke="#201d1e" stroke-linecap="square" stroke-linejoin="round" stroke-width="1.77" d="m16.29 12.43-2.45-2.96-3.31 1.94"></path><circle cx="10.77" cy="26.85" r="1.63" fill="#201d1e" fill-rule="nonzero"></circle><g stroke="#201d1e" stroke-linecap="square"><path stroke-width="1.68" d="m6.15 21.5-2.99 2.08"></path><path stroke-linejoin="round" stroke-width="1.68" d="M6.33 24.87 2.8 23.83l.26-3.67"></path><path stroke-width="1.68" d="m17.01 23.45 2.08 3"></path><path stroke-linejoin="round" stroke-width="1.68" d="m15.67 26.55 3.67.25 1.04-3.51"></path><path stroke-width="1.72" d="m20.42 17.36 3.66.66"></path><path stroke-linejoin="round" stroke-width="1.72" d="m21.68 20.57 2.84-2.47-1.79-3.29"></path><path stroke-width="1.72" d="m19.35 10.1 3.26-1.8"></path><path stroke-linejoin="round" stroke-width="1.72" d="M19.53 6.65 23 8.09l-.65 3.69"></path><path stroke-width="1.72" d="M4.97 14.64 1.3 14"></path><path stroke-linejoin="round" stroke-width="1.72" d="M2.68 17.22.86 13.93l2.81-2.48"></path><path stroke-width="1.72" d="M8.45 8.17 6 5.37"></path><path stroke-linejoin="round" stroke-width="1.72" d="m9.46 4.88-3.75.16-.66 3.69"></path></g></g></svg>
