<svg xmlns="http://www.w3.org/2000/svg" width="78" height="24" viewBox="0 0 78 24" fill="none">
    <path d="M73.6736 18.3531C72.7512 18.3531 71.9982 18.0708 71.4147 17.5061C70.85 16.9225 70.5676 16.1508 70.5676 15.1908V7.28479H67.0664V4.34829H70.5676V0H74.1253V4.34829H77.9654V7.28479H74.1253V14.5696C74.1253 15.1343 74.3889 15.4166 74.9159 15.4166H77.6265V18.3531H73.6736Z" fill="black"/>
    <path d="M57.1133 18.3533V4.34846H60.6145V5.92966H61.1227C61.3298 5.36495 61.6686 4.95082 62.1392 4.68729C62.6286 4.42376 63.1934 4.29199 63.8334 4.29199H65.5275V7.45438H63.7769C62.8734 7.45438 62.1298 7.69909 61.5463 8.18851C60.9627 8.6591 60.671 9.39323 60.671 10.3909V18.3533H57.1133Z" fill="black"/>
    <path d="M47.896 18.7481C46.503 18.7481 45.2512 18.4657 44.1406 17.901C43.03 17.3363 42.1547 16.5175 41.5147 15.4445C40.8747 14.3716 40.5547 13.0822 40.5547 11.5763V11.1245C40.5547 9.61858 40.8747 8.32916 41.5147 7.25621C42.1547 6.18325 43.03 5.36442 44.1406 4.79971C45.2512 4.23499 46.503 3.95264 47.896 3.95264C49.2889 3.95264 50.5407 4.23499 51.6513 4.79971C52.7619 5.36442 53.6372 6.18325 54.2772 7.25621C54.9172 8.32916 55.2372 9.61858 55.2372 11.1245V11.5763C55.2372 13.0822 54.9172 14.3716 54.2772 15.4445C53.6372 16.5175 52.7619 17.3363 51.6513 17.901C50.5407 18.4657 49.2889 18.7481 47.896 18.7481ZM47.896 15.5857C48.9877 15.5857 49.8913 15.2375 50.6066 14.541C51.3219 13.8257 51.6795 12.8092 51.6795 11.4915V11.2092C51.6795 9.89153 51.3219 8.88446 50.6066 8.18798C49.9101 7.47268 49.0066 7.11503 47.896 7.11503C46.8042 7.11503 45.9006 7.47268 45.1853 8.18798C44.47 8.88446 44.1124 9.89153 44.1124 11.2092V11.4915C44.1124 12.8092 44.47 13.8257 45.1853 14.541C45.9006 15.2375 46.8042 15.5857 47.896 15.5857Z" fill="black"/>
    <path d="M24.6406 23.9999V4.34794H28.1418V6.04207H28.6501C28.9701 5.49618 29.4689 5.01618 30.1466 4.60206C30.8242 4.16911 31.7937 3.95264 33.0549 3.95264C34.1843 3.95264 35.229 4.23499 36.189 4.79971C37.149 5.34559 37.9208 6.15501 38.5043 7.22797C39.0879 8.30092 39.3796 9.59976 39.3796 11.1245V11.5763C39.3796 13.101 39.0879 14.3998 38.5043 15.4728C37.9208 16.5457 37.149 17.3646 36.189 17.9293C35.229 18.4752 34.1843 18.7481 33.0549 18.7481C32.2078 18.7481 31.4925 18.6446 30.9089 18.4375C30.3442 18.2493 29.883 18.0046 29.5254 17.7034C29.1866 17.3834 28.9136 17.0634 28.7066 16.7434H28.1983V23.9999H24.6406ZM31.9819 15.6422C33.0925 15.6422 34.0055 15.2939 34.7208 14.5975C35.4549 13.8822 35.8219 12.8469 35.8219 11.4915V11.2092C35.8219 9.85388 35.4549 8.82799 34.7208 8.13151C33.9866 7.41621 33.0737 7.05856 31.9819 7.05856C30.8901 7.05856 29.9772 7.41621 29.243 8.13151C28.5089 8.82799 28.1418 9.85388 28.1418 11.2092V11.4915C28.1418 12.8469 28.5089 13.8822 29.243 14.5975C29.9772 15.2939 30.8901 15.6422 31.9819 15.6422Z" fill="black"/>
    <path fill-rule="evenodd" clip-rule="evenodd" d="M0 12.0065L9.64701 12.0065L0 2.35999V12.0065ZM0.0115883 15.3473C0.171882 17.5073 1.97515 19.2099 4.17608 19.2099H19.21V4.17608C19.21 1.96177 17.4866 0.149983 15.308 0.00884874L15.308 12.0065L15.308 15.3474L0.0115883 15.3473ZM11.9671 0L11.9671 9.60191L2.3647 0H11.9671Z" fill="black"/>
</svg>
