<svg width="445" height="440" viewBox="0 0 445 440" fill="none" xmlns="http://www.w3.org/2000/svg">
<path d="M125.171 44.13C100.537 26.6567 44.466 -7.19166 27.3362 1.36176C10.2064 9.91519 0.893535 50.9229 0.0594152 81.1134C-0.862132 114.468 9.17179 147.851 13.8254 161.415C11.897 167.916 10.8618 174.8 10.8618 181.926V285.926H47.8618V181.926C47.8618 162.596 63.5318 146.926 82.8618 146.926H361.862C365.112 146.926 368.259 147.369 371.245 148.198L375.119 149.524C387.875 154.749 396.862 167.288 396.862 181.926V285.926H433.862V181.926C433.862 174.756 432.814 167.83 430.862 161.294C435.542 147.616 445.484 114.381 444.566 81.1727C443.732 50.9822 434.419 9.97454 417.289 1.42112C400.16 -7.1323 344.089 26.716 319.455 44.1894C285.378 68.3604 261.587 107.217 259.952 109.926H184.71C183.429 107.796 159.527 68.4994 125.171 44.13Z" fill="black"/>
<path fill-rule="evenodd" clip-rule="evenodd" d="M93.9618 160.926C76.2334 160.926 61.8618 175.339 61.8618 193.118V407.734C61.8618 425.513 76.2334 439.926 93.9618 439.926H350.762C368.49 439.926 382.862 425.513 382.862 407.734V193.118C382.862 175.339 368.49 160.926 350.762 160.926H93.9618ZM129.196 243.629L185.83 300.426L129.196 357.224L144.329 372.4L216.095 300.426L144.329 228.454L129.196 243.629ZM233.062 375.542H318.662V354.08H233.062V375.542Z" fill="black"/>
<path d="M37.8333 109.025C35.1763 86.031 41.6675 41.7685 48.3113 37.5748C52.9131 34.6715 80.6278 48.9603 99.5988 64.0163C111.313 73.3135 124.21 89.7079 125.452 91.844C133.904 106.378 129.999 107.62 125.452 109.025C103.805 115.711 77.6883 109.296 56.6169 122.221C41.4033 131.554 40.3512 130.816 37.8333 109.025Z" fill="#F5C0CE"/>
<path d="M406.307 109.025C408.964 86.031 402.472 41.7685 395.829 37.5748C391.227 34.6715 363.512 48.9603 344.541 64.0163C332.826 73.3135 319.93 89.7079 318.688 91.844C310.236 106.378 314.141 107.62 318.688 109.025C340.335 115.711 366.452 109.296 387.523 122.221C402.737 131.554 403.789 130.816 406.307 109.025Z" fill="#F5C0CE"/>
</svg>
