<svg width="446" height="70" viewBox="0 0 446 70" fill="none" xmlns="http://www.w3.org/2000/svg">
<path d="M59.4093 27.8004C60.2455 27.8004 61.0476 28.1315 61.6403 28.7213C62.2331 29.3111 62.5681 30.1116 62.5722 30.9478V63.8867C62.5722 65.6211 61.1696 67.0367 59.4248 67.0367H3.26407C2.42864 67.0367 1.62743 66.7048 1.03669 66.114C0.445949 65.5233 0.114075 64.7221 0.114075 63.8867V4.15073C0.114075 2.41888 1.51667 1.00332 3.26667 1.00332H10.093C11.8248 1.00332 13.2404 2.40332 13.2404 4.15073V24.837C13.2867 25.5746 13.5876 26.2731 14.0916 26.8136C14.5956 27.354 15.2716 27.7028 16.0041 27.8004H21.1115C22.6593 27.6578 23.9478 26.3978 24.0333 24.837V4.14814C24.0333 2.41629 25.4333 1.00073 27.1807 1.00073H34.007C35.7389 1.00073 37.157 2.40073 37.157 4.14814V24.6193C37.157 26.237 38.3445 27.6111 39.9052 27.7978H59.4119L59.4093 27.8004ZM50.4207 50.3896V43.9444C50.4207 42.2126 49.0207 40.7944 47.2733 40.7944H40.4445C38.7126 40.7944 37.2945 42.197 37.2945 43.9444V50.387C37.2945 52.1189 38.697 53.5344 40.4445 53.5344H47.2707C49.0026 53.5344 50.4182 52.1344 50.4182 50.387L50.4207 50.3896ZM108.028 67.0963L104.764 51.8622C104.36 49.8218 103.845 47.8051 103.219 45.8215C102.661 44.0611 101.871 42.5859 100.886 41.3856C99.8848 40.1826 98.5808 39.2804 96.963 38.6504C95.3478 38.0359 93.2296 37.7196 90.6111 37.7196H83.7537V67.0937H76.2845V1.1174H92.6282C95.3322 1.1174 97.9508 1.40258 100.499 1.95999C103.032 2.51999 105.28 3.45073 107.227 4.73925C109.185 6.04596 110.796 7.80955 111.92 9.87777C113.107 12.0115 113.696 14.63 113.696 17.7515C113.696 20.1418 113.41 22.26 112.85 24.0774C112.341 25.8032 111.483 27.4064 110.33 28.7881C109.216 30.1052 107.813 31.22 106.154 32.1222C104.494 33.0244 102.532 33.7555 100.3 34.313V34.4996C102.475 35.057 104.22 35.7726 105.524 36.6178C106.825 37.4759 107.87 38.4922 108.658 39.6822C109.431 40.8696 110.032 42.2281 110.46 43.7604C110.89 45.2926 111.29 47.053 111.692 49.0156L115.497 67.0937H108.028V67.0963ZM106.211 18.537C106.211 15.8044 105.723 13.6707 104.764 12.167C103.846 10.704 102.517 9.54427 100.943 8.83296C99.3534 8.1174 97.5515 7.68703 95.5319 7.54444C93.4653 7.39955 91.3942 7.32778 89.3226 7.32925H83.7667V31.5207H87.8734C90.1211 31.5207 92.3248 31.3652 94.5285 31.0359C96.5845 30.7516 98.5751 30.1111 100.411 29.1433C102.136 28.2195 103.587 26.8577 104.619 25.1948C105.664 23.4915 106.208 21.2722 106.208 18.537H106.211ZM149.904 67.0963V61.0685H149.72C149.091 62.2586 148.235 63.3139 147.2 64.1744C146.139 65.0611 144.98 65.8078 143.72 66.3937C142.452 66.9814 141.123 67.4275 139.756 67.7237C138.445 68.0133 137.107 68.1619 135.764 68.167C133.804 68.167 132.056 67.8663 130.54 67.2518C129.087 66.7014 127.779 65.8251 126.718 64.6904C125.656 63.5309 124.852 62.1595 124.359 60.6667C123.814 59.093 123.542 57.3481 123.542 55.4141C123.542 53.6667 123.884 52.1215 124.572 50.7474C125.259 49.3733 126.161 48.1704 127.307 47.1256C128.491 46.0486 129.82 45.1428 131.255 44.4344C132.759 43.6748 134.304 43.0733 135.906 42.6144C138.949 41.7355 142.098 41.2775 145.266 41.2533C146.041 41.2533 146.798 41.2404 147.513 41.2274C148.229 41.2118 148.973 41.1263 149.761 40.9681V39.9959C149.761 38.3211 149.733 36.6463 149.689 34.9715C149.67 33.4305 149.385 31.9043 148.846 30.4604C148.35 29.1538 147.472 28.0271 146.326 27.2274C145.167 26.4107 143.435 25.9959 141.174 25.9959C139.829 25.9959 138.626 26.1255 137.553 26.3693C136.556 26.578 135.613 26.9863 134.779 27.5696C133.981 28.1555 133.332 28.9211 132.886 29.8044C132.401 30.7352 132.072 31.8785 131.885 33.2396H124.644C124.67 30.9322 125.16 28.9878 126.117 27.3855C127.039 25.8135 128.307 24.4721 129.824 23.463C131.418 22.4236 133.182 21.6724 135.035 21.2437C136.984 20.7733 138.983 20.5383 140.988 20.5437C146.155 20.5437 149.989 21.7155 152.494 24.0489C155.001 26.3822 156.258 30.0896 156.258 35.1581V67.0937H149.906L149.904 67.0963ZM145.885 46.4515C144.423 46.4515 142.821 46.6096 141.102 46.9389C139.422 47.25 137.793 47.7946 136.264 48.5567C134.76 49.3163 133.516 50.2885 132.502 51.52C131.486 52.7515 130.983 54.2681 130.983 56.0726C130.983 58.0041 131.572 59.5933 132.73 60.8378C133.905 62.0822 135.45 62.6993 137.382 62.6993C138.527 62.6993 139.642 62.5281 140.7 62.1548C141.752 61.805 142.749 61.3093 143.663 60.6822C144.594 60.0473 145.436 59.2914 146.168 58.4344C146.914 57.5607 147.529 56.6144 147.988 55.5826C148.359 54.74 148.659 53.9674 148.903 53.2804C149.368 51.8989 149.628 50.4568 149.676 49C149.704 48.2559 149.72 47.3978 149.72 46.4385H145.883V46.4515H145.885ZM205.45 44.8207C205.45 47.8126 205.149 50.7059 204.535 53.5085C203.918 56.3163 202.902 58.8052 201.47 60.983C200.046 63.1543 198.115 64.9471 195.844 66.207C193.527 67.5085 190.636 68.167 187.185 68.167C183.981 68.167 181.29 67.6667 179.114 66.6789C176.939 65.6781 175.179 64.3041 173.862 62.5281C172.547 60.7522 171.588 58.6652 171.015 56.2437C170.424 53.6615 170.136 51.019 170.157 48.37V1.1174H176.639V29.1304H176.869C177.246 27.8176 177.861 26.5855 178.684 25.4955C179.486 24.4529 180.449 23.5444 181.536 22.8044C182.641 22.0666 183.851 21.5018 185.127 21.1296C186.446 20.738 187.815 20.5398 189.192 20.5411C191.367 20.5411 193.286 20.8859 194.929 21.5859C196.576 22.2885 198.007 23.2452 199.194 24.4637C200.397 25.6822 201.398 27.0822 202.202 28.6896C203.022 30.3183 203.666 32.0306 204.12 33.797C204.592 35.6015 204.921 37.4474 205.121 39.3374C205.349 41.2118 205.45 43.0448 205.45 44.8207V44.8207ZM197.978 44.6496C197.971 43.4598 197.919 42.2707 197.823 41.0848C197.702 39.7257 197.516 38.3733 197.263 37.0326C197.003 35.6456 196.633 34.2974 196.161 32.983C195.724 31.7288 195.112 30.5426 194.343 29.4596C193.624 28.4522 192.703 27.6047 191.639 26.9707C190.579 26.3252 189.347 26.0115 187.945 26.0115C186.457 26.0115 185.127 26.3537 183.981 27.0407C182.819 27.7418 181.804 28.6609 180.992 29.7474C180.146 30.8622 179.444 32.1378 178.886 33.5689C178.331 34.9929 177.886 36.4578 177.556 37.9504C177.237 39.3949 177.003 40.8571 176.856 42.3293C176.721 43.5987 176.648 44.8741 176.639 46.1507C176.639 47.8981 176.768 49.7285 177.012 51.647C177.256 53.5811 177.756 55.37 178.484 57.0163C179.216 58.6626 180.26 60.0237 181.622 61.097C182.98 62.1704 184.769 62.6993 187.014 62.6993C188.505 62.6993 189.822 62.4141 190.965 61.8541C192.081 61.3051 193.074 60.5361 193.884 59.5933C194.701 58.6496 195.36 57.5452 195.889 56.3007C196.417 55.0563 196.835 53.7678 197.149 52.4378C197.462 51.1052 197.677 49.7596 197.807 48.427C197.921 47.097 197.978 45.8344 197.978 44.6496V44.6496ZM251.435 44.8207C251.435 47.8126 251.134 50.7059 250.517 53.5085C249.903 56.3163 248.886 58.8052 247.458 60.983C246.033 63.1543 244.103 64.9471 241.832 66.207C239.512 67.5085 236.621 68.167 233.173 68.167C229.966 68.167 227.274 67.6667 225.099 66.6789C222.924 65.6781 221.164 64.3041 219.847 62.5281C218.53 60.7522 217.573 58.6652 217 56.2437C216.409 53.6615 216.121 51.019 216.142 48.37V1.1174H222.623V29.1304H222.854C223.231 27.8176 223.846 26.5855 224.669 25.4955C225.471 24.4529 226.433 23.5444 227.521 22.8044C228.625 22.0661 229.836 21.5013 231.112 21.1296C232.431 20.738 233.8 20.5398 235.177 20.5411C237.352 20.5411 239.268 20.8859 240.914 21.5859C242.56 22.2885 243.992 23.2452 245.179 24.4637C246.382 25.6822 247.383 27.0822 248.186 28.6896C249.007 30.3183 249.651 32.0306 250.105 33.797C250.577 35.6015 250.903 37.4474 251.106 39.3374C251.334 41.2118 251.435 43.0448 251.435 44.8207V44.8207ZM243.963 44.6496C243.956 43.4598 243.904 42.2707 243.807 41.0848C243.687 39.7257 243.5 38.3733 243.247 37.0326C242.988 35.6456 242.617 34.2974 242.146 32.983C241.709 31.7288 241.097 30.5426 240.328 29.4596C239.608 28.4522 238.688 27.6047 237.624 26.9707C236.564 26.3252 235.332 26.0115 233.93 26.0115C232.442 26.0115 231.112 26.3537 229.966 27.0407C228.803 27.7415 227.787 28.6606 226.974 29.7474C226.131 30.8622 225.429 32.1378 224.871 33.5689C224.316 34.9929 223.871 36.4578 223.541 37.9504C223.222 39.3949 222.988 40.8571 222.841 42.3293C222.706 43.5987 222.633 44.8741 222.623 46.1507C222.623 47.8981 222.753 49.7285 222.997 51.647C223.24 53.5811 223.741 55.37 224.469 57.0163C225.2 58.6626 226.245 60.0237 227.606 61.097C228.965 62.1704 230.754 62.6993 232.999 62.6993C234.49 62.6993 235.807 62.4141 236.95 61.8541C238.066 61.3051 239.059 60.5361 239.869 59.5933C240.686 58.6496 241.344 57.5452 241.873 56.3007C242.401 55.0508 242.823 53.7586 243.133 52.4378C243.447 51.1052 243.662 49.7596 243.792 48.427C243.906 47.097 243.963 45.8344 243.963 44.6496V44.6496ZM262.915 9.70666V1.11481H271.499V9.70407H262.912L262.915 9.70666ZM263.944 67.0937V21.573H270.426V67.0937H263.944ZM296.059 27.0278V55.0407C296.059 57.4752 296.647 59.3496 297.834 60.6952C299.022 62.0433 300.912 62.6993 303.502 62.6993C304.271 62.7126 305.038 62.6404 305.791 62.4841C306.525 62.3053 307.248 62.0801 307.953 61.81V67.6537C306.994 67.8093 306.035 67.9389 305.076 68.0244C304.132 68.1256 303.173 68.167 302.198 68.167C300.051 68.167 298.192 67.9674 296.619 67.5656C295.042 67.1663 293.725 66.5078 292.667 65.577C291.607 64.6618 290.822 63.4589 290.308 61.9552C289.79 60.4515 289.533 58.6055 289.533 56.4018V27.0278H282.105V21.5574H289.533V10.9667L296.014 6.85999V21.56H308.296V27.0304H296.059V27.0278Z" fill="#FF6600"/>
<path d="M372.011 67.2751V9.22699H371.83L352.406 67.2596H345.035L325.656 9.22699H325.427V67.2596H318.759V1.29625H329.964L348.683 57.4259H348.87L367.635 1.29625H378.697V67.2751H372.011ZM415.479 67.2959C412.401 67.2959 409.669 66.837 407.307 65.9218C405.022 65.0537 402.916 63.7723 401.095 62.1418C399.308 60.5203 397.795 58.6205 396.615 56.5159C395.387 54.3366 394.403 52.0281 393.683 49.6325C392.927 47.1444 392.386 44.5961 392.065 42.0155C391.74 39.4226 391.578 36.812 391.577 34.1988C391.577 31.4662 391.72 28.7311 392.021 26.0114C392.306 23.3513 392.803 20.7183 393.509 18.1377C394.209 15.6048 395.155 13.2714 396.33 11.0807C397.483 8.94608 398.999 7.02837 400.81 5.41329C402.612 3.80848 404.758 2.54848 407.221 1.63329C409.697 0.718105 412.588 0.259216 415.88 0.259216C419.085 0.259216 421.89 0.731068 424.309 1.67736C426.609 2.55976 428.718 3.87654 430.521 5.55588C432.253 7.18922 433.684 9.10773 434.814 11.3244C435.945 13.5281 436.847 15.89 437.505 18.397C438.164 20.9014 438.62 23.5044 438.879 26.2111C439.139 28.9177 439.281 31.5803 439.281 34.1988C439.267 37.3675 439.057 40.5322 438.651 43.6748C438.414 45.4794 438.089 47.2712 437.676 49.044C437.262 50.8485 436.717 52.5518 436.059 54.1411C435.434 55.6692 434.643 57.1238 433.699 58.4785C432.854 59.709 431.768 60.7558 430.508 61.5559L430.692 61.7425L444.277 60.8974V67.2959H415.479V67.2959ZM431.164 34.1003C431.164 32.3814 431.107 30.507 431.008 28.4744C430.895 26.4246 430.661 24.3833 430.308 22.3611C429.952 20.3459 429.43 18.3636 428.747 16.4344C428.105 14.6047 427.183 12.886 426.012 11.34C424.885 9.87509 423.461 8.66475 421.833 7.7881C420.187 6.90144 418.198 6.4581 415.896 6.4581C413.459 6.4581 411.385 6.88588 409.653 7.74662C407.962 8.57323 406.465 9.74836 405.261 11.1948C404.031 12.6936 403.05 14.3804 402.355 16.1907C401.619 18.1073 401.054 20.0854 400.667 22.1018C400.278 24.1655 400.022 26.2266 399.892 28.2877C399.762 30.3618 399.708 32.2959 399.708 34.1003C399.708 35.8166 399.778 37.6651 399.936 39.6537C400.092 41.6448 400.366 43.6333 400.781 45.6374C401.18 47.6285 401.753 49.5599 402.485 51.4188C403.169 53.2061 404.125 54.8772 405.318 56.3733C406.477 57.8044 407.88 58.9503 409.526 59.8085C411.172 60.6692 413.13 61.097 415.365 61.097C417.885 61.097 420.031 60.6977 421.792 59.8811C423.473 59.1213 424.971 58.008 426.183 56.617C427.375 55.2112 428.31 53.6071 428.947 51.8777C429.621 50.0888 430.119 48.1859 430.451 46.1818C430.777 44.1777 430.98 42.1296 431.05 40.0685C431.122 37.9788 431.164 35.9903 431.164 34.1003V34.1003Z" fill="#B8B8B8"/>
</svg>
