<svg width="465" height="70" viewBox="0 0 465 70" fill="none" xmlns="http://www.w3.org/2000/svg">
<path d="M149.776 15.3731L148.134 5.67164C147.612 2.53731 146.418 0 145.448 0C144.478 0 143.657 2.61194 143.657 5.74627V8.28358C143.657 11.4179 141.045 14.0299 137.91 14.0299H135.373C135.224 14.0299 135 14.0299 134.851 14.0299V21.0448C135 21.0448 135.224 21.0448 135.373 21.0448H144.925C148.134 21.0448 150.298 18.5075 149.776 15.3731Z" fill="#0075A8"/>
<path d="M126.866 7.16418H111.343C111.194 7.16418 111.119 7.16418 110.97 7.16418H95.0746C94.8508 7.16418 94.7015 7.16418 94.5522 7.23881V5.74627C94.5522 2.61194 93.7314 0 92.7612 0C91.7911 0 90.597 2.53731 90.0746 5.67164L88.4328 15.3731C87.9105 18.5075 90.0746 21.0448 93.209 21.0448H102.761C103.731 21.0448 104.701 20.8955 105.448 20.597C105.149 22.2388 103.731 23.4328 102.015 23.4328H88.5821C86.4179 23.4328 84.7761 21.4925 85.1493 19.3284L86.4925 11.194C86.8657 9.02985 85.2239 7.08955 83.0597 7.08955H16.4925C15.0746 7.08955 13.8806 7.91045 13.2836 9.1791L0.74627 28.3582C0.52239 28.6567 0.52239 29.1045 0.820897 29.403L3.28358 32.3134C3.58209 32.6866 4.10448 32.7612 4.47761 32.4627L12.9851 25.7463V66.6418C12.9851 68.5821 14.5522 70.1493 16.4925 70.1493H35.4478C37.3881 70.1493 38.9552 68.5821 38.9552 66.6418V52.4627C38.9552 50.5224 40.5224 48.9552 42.4627 48.9552H89.7015C91.6418 48.9552 93.209 50.5224 93.209 52.4627V66.6418C93.209 68.5821 94.7761 70.1493 96.7164 70.1493H115.672C117.612 70.1493 119.179 68.5821 119.179 66.6418V51.194H109.104C105.97 51.194 103.358 48.5821 103.358 45.4478V35.6716C103.358 33.806 104.254 32.1642 105.672 31.1194V42.8358C105.672 45.9701 108.284 48.5821 111.418 48.5821H126.866C130 48.5821 132.612 45.9701 132.612 42.8358V12.9851C132.612 9.77612 130 7.16418 126.866 7.16418Z" fill="#0075A8"/>
<path d="M162.463 9.10449H183.806C193.955 9.10449 200.746 14.0299 200.746 23.5075C200.746 31.2687 195.448 35.8955 190.299 37.5373C191.866 38.806 192.985 40.597 193.881 42.4627C196.045 46.8657 197.463 51.6418 202.015 51.6418C203.134 51.6418 204.104 51.2687 204.104 51.2687L203.06 60.4478C203.06 60.4478 200.299 61.1194 197.91 61.1194C191.791 61.1194 188.284 58.7314 184.627 50.5224C183.06 46.8657 180.97 40.3731 178.134 40.3731H175.224V60.8209H162.388V9.10449H162.463ZM175.299 18.4329V31.1194H179.925C183.582 31.1194 187.91 30 187.91 24.4776C187.91 19.9254 185 18.4329 181.493 18.4329H175.299V18.4329Z" fill="#59595B"/>
<path d="M218.06 9.10449H231.045L248.507 60.8209H235.522L232.313 51.0448H215L211.866 60.8209H200.672L218.06 9.10449ZM218.06 41.5672H229.179L225.672 30.6717C224.478 27.0149 223.881 21.7911 223.881 21.7911H223.582C223.582 21.7911 222.836 27.0896 221.642 30.597L218.06 41.5672Z" fill="#59595B"/>
<path d="M248.955 9.10449H262.687L276.269 34.7761C277.388 37.0149 278.955 40.8955 280.149 43.9552H280.448C280.298 41.0448 279.925 36.9403 279.925 33.8806V9.10449H290.448V60.8209H277.015L262.91 35.2239C261.642 32.9105 260.224 29.5523 259.179 26.7911H258.881C259.104 29.7015 259.478 33.1343 259.478 35.9702V60.8209H248.955V9.10449Z" fill="#59595B"/>
<path d="M293.209 34.7015C293.209 15.9701 302.463 8.28357 316.791 8.28357C331.866 8.28357 337.91 16.5672 336.269 27.7612L324.328 28.806C325.597 20.597 322.388 17.3134 316.567 17.3134C310.97 17.3134 306.418 21.4179 306.418 34.7761C306.418 48.8806 311.343 52.4627 316.94 52.4627C322.239 52.4627 326.492 49.1791 325.597 42.388L336.791 43.5074C337.612 54.0298 330.075 61.7164 316.269 61.7164C302.239 61.791 293.209 53.5075 293.209 34.7015Z" fill="#59595B"/>
<path d="M339.403 9.10449H352.239V28.6567H367.91V9.10449H380.746V60.8955H367.91V38.9552H352.239V60.8955H339.403V9.10449Z" fill="#59595B"/>
<path d="M385.896 9.10449H420.149V18.6567H398.657V29.7761H416.642V39.2537H398.657V51.3433H420.896V60.8955H385.896V9.10449Z" fill="#59595B"/>
<path d="M423.358 9.10449H444.701C454.851 9.10449 461.642 14.0299 461.642 23.5075C461.642 31.2687 456.343 35.8955 451.194 37.5373C452.761 38.806 453.881 40.597 454.776 42.4627C456.94 46.8657 458.358 51.6418 462.91 51.6418C464.03 51.6418 465 51.2687 465 51.2687L463.955 60.4478C463.955 60.4478 461.194 61.1194 458.806 61.1194C452.687 61.1194 449.179 58.7314 445.522 50.5224C443.955 46.8657 441.866 40.3731 439.03 40.3731H436.119V60.8209H423.284V9.10449H423.358ZM436.119 18.4329V31.1194H440.746C444.403 31.1194 448.731 30 448.731 24.4776C448.731 19.9254 445.821 18.4329 442.313 18.4329H436.119V18.4329Z" fill="#59595B"/>
</svg>
