<svg width="472" height="522" viewBox="0 0 472 522" fill="none" xmlns="http://www.w3.org/2000/svg">
<path d="M442.41 164.044C448.767 162.665 454.457 164.583 458.04 169.988C465.205 180.796 461.168 201.721 448.931 216.738C436.693 231.756 420.95 235.132 413.785 224.324C406.619 213.516 410.656 192.591 422.892 177.575C429.012 170.065 436.051 165.422 442.409 164.044L442.41 164.044Z" fill="#8A3391"/>
<path d="M382.178 287.202C388.423 285.954 394.082 287.873 397.608 293.192C404.774 304 400.637 324.949 388.399 339.966C376.162 354.983 360.42 358.36 353.253 347.552C346.088 336.744 350.225 315.795 362.462 300.779C367.817 294.209 373.82 289.842 379.5 287.933C380.414 287.626 381.286 287.381 382.178 287.203L382.178 287.202Z" fill="#8A3391"/>
<path d="M315.424 414.945C321.782 413.565 327.449 415.385 331.031 420.789C338.196 431.597 334.16 452.521 321.922 467.539C309.685 482.557 293.965 486.034 286.799 475.226C279.635 464.418 283.672 443.491 295.909 428.475C302.027 420.967 309.067 416.324 315.423 414.946L315.424 414.945Z" fill="#8A3391"/>
<path d="M176.225 420.073C176.946 419.826 177.763 419.673 178.525 419.535C187.663 417.902 199.413 424.074 208.291 436.306C220.127 452.617 222.34 473.513 213.286 482.924C204.233 492.335 187.393 486.749 175.556 470.44C163.72 454.128 161.408 433.258 170.461 423.846C172.159 422.082 174.059 420.81 176.225 420.073Z" fill="#F26E7E"/>
<path d="M174.842 249.508C184.036 247.605 196.017 253.864 205.033 266.289C216.87 282.599 219.182 303.47 210.127 312.882C201.074 322.294 184.111 316.632 172.274 300.321C160.438 284.01 158.249 263.216 167.303 253.805C169 252.04 170.9 250.769 173.066 250.03C173.653 249.828 174.23 249.636 174.843 249.51L174.842 249.508Z" fill="#F26E7E"/>
<path d="M101.313 297.295C110.508 295.392 122.486 301.651 131.503 314.074C143.34 330.385 145.651 351.255 136.598 360.668C127.545 370.079 110.581 364.417 98.7453 348.107C86.9077 331.796 84.7202 311.001 93.7735 301.589C95.4711 299.825 97.3704 298.554 99.5357 297.815C100.122 297.613 100.7 297.421 101.313 297.295Z" fill="#F26E7E"/>
<path d="M28.9151 344.502C29.6367 344.255 30.4538 344.102 31.2154 343.964C40.3517 342.331 52.026 348.627 60.9041 360.86C72.7415 377.17 75.0303 397.942 65.9753 407.353C56.9217 416.764 39.982 411.202 28.1458 394.892C16.3099 378.582 14.0977 357.688 23.151 348.276C24.8483 346.511 26.748 345.24 28.9151 344.502Z" fill="#F26E7E"/>
<path d="M23.8975 177.321C24.6192 177.074 25.4369 176.918 26.1978 176.783C35.3355 175.15 47.0863 181.322 55.9645 193.556C67.8005 209.867 70.0127 230.761 60.9593 240.173C51.9056 249.584 34.9659 244.022 23.1298 227.712C11.2923 211.402 9.08024 190.508 18.135 181.096C19.8322 179.33 21.7319 178.059 23.8975 177.321Z" fill="#F26E7E"/>
<path d="M237.651 161.72C242.025 160.664 246.863 160.039 251.903 159.968C272.066 159.688 288.287 168.151 288.19 178.909C288.094 189.666 271.673 198.599 251.51 198.88C231.347 199.161 215.127 190.698 215.224 179.94C215.297 171.871 224.522 164.858 237.651 161.72Z" fill="#F7BF2A"/>
<path d="M160.657 126.982C165.033 125.926 169.87 125.301 174.911 125.232C195.073 124.952 211.295 133.415 211.198 144.172C211.101 154.93 194.681 163.862 174.518 164.144C154.355 164.424 138.135 155.96 138.231 145.203C138.305 137.135 147.53 130.122 160.657 126.982Z" fill="#F7BF2A"/>
<path d="M85.6507 91.7814C90.025 90.7252 94.8638 90.1002 99.9043 90.0297C120.066 89.7496 136.288 98.2124 136.189 108.971C136.092 119.728 119.695 128.761 99.5333 129.041C79.3704 129.321 63.1267 120.759 63.2235 110.001C63.295 101.933 72.5195 94.9203 85.6497 91.7818L85.6507 91.7814Z" fill="#F7BF2A"/>
<path d="M352.524 90.8673C356.899 89.8111 361.737 89.186 366.778 89.1156C386.94 88.8355 403.161 97.2983 403.064 108.056C402.967 118.814 386.57 127.847 366.408 128.127C346.245 128.407 330.001 119.845 330.098 109.087C330.17 101.018 339.394 94.0058 352.524 90.8673Z" fill="#F7BF2A"/>
<path d="M275.825 57.4318C280.199 56.3756 285.062 55.8518 290.102 55.7814C310.264 55.5014 326.486 63.9642 326.387 74.7223C326.291 85.4799 309.87 94.412 289.708 94.6916C269.545 94.9733 253.324 86.5089 253.421 75.7513C253.493 67.6841 262.694 60.5718 275.824 57.4323L275.825 57.4318Z" fill="#F7BF2A"/>
<path d="M200.846 25.0721C205.22 24.0159 209.96 23.4156 215.001 23.345C235.163 23.065 251.507 31.6038 251.41 42.3615C251.312 53.1195 234.892 62.0524 214.73 62.333C194.567 62.6134 178.247 54.1726 178.344 43.4149C178.416 35.3477 187.718 28.2112 200.846 25.0721Z" fill="#F7BF2A"/>
<path fill-rule="evenodd" clip-rule="evenodd" d="M1.01693 134.465C0.642627 134.66 0.656663 135.31 0.685004 136.624L0.685606 136.652L9.10858 396.388C9.13329 399.104 9.38402 399.72 12.2474 401.244L238.659 519.605C244.022 522.768 244.93 522.498 244.326 517.224L240.384 252.743C240.733 249.046 239.107 247.436 236.77 246.31L3.29291 135.199C2.08054 134.581 1.39031 134.271 1.01165 134.466L1.01693 134.465ZM26.1978 176.783C25.4369 176.918 24.6192 177.074 23.8975 177.321C21.7319 178.059 19.8322 179.33 18.135 181.096C9.08024 190.508 11.2923 211.402 23.1298 227.712C34.9659 244.022 51.9056 249.584 60.9593 240.173C70.0127 230.761 67.8005 209.867 55.9645 193.556C47.0863 181.322 35.3355 175.15 26.1978 176.783ZM205.033 266.289C196.017 253.864 184.036 247.605 174.842 249.508L174.843 249.51C174.23 249.636 173.653 249.828 173.066 250.03C170.9 250.769 169 252.04 167.303 253.805C158.249 263.216 160.438 284.01 172.274 300.321C184.111 316.632 201.074 322.294 210.127 312.882C219.182 303.47 216.87 282.599 205.033 266.289ZM131.503 314.074C122.486 301.651 110.508 295.392 101.313 297.295C100.7 297.421 100.122 297.613 99.5357 297.815C97.3704 298.554 95.4711 299.825 93.7735 301.589C84.7202 311.001 86.9077 331.796 98.7453 348.107C110.581 364.417 127.545 370.079 136.598 360.668C145.651 351.255 143.34 330.385 131.503 314.074ZM31.2154 343.964C30.4538 344.102 29.6367 344.255 28.9151 344.502C26.748 345.24 24.8483 346.511 23.151 348.276C14.0977 357.688 16.3099 378.582 28.1458 394.892C39.982 411.202 56.9217 416.764 65.9753 407.353C75.0303 397.942 72.7415 377.17 60.9041 360.86C52.026 348.627 40.3517 342.331 31.2154 343.964ZM178.525 419.535C177.763 419.673 176.946 419.826 176.225 420.073C174.059 420.81 172.159 422.082 170.461 423.846C161.408 433.258 163.72 454.128 175.556 470.44C187.393 486.749 204.233 492.335 213.286 482.924C222.34 473.513 220.127 452.617 208.291 436.306C199.413 424.074 187.663 417.902 178.525 419.535Z" fill="#F7A8B2"/>
<path fill-rule="evenodd" clip-rule="evenodd" d="M221.53 0.299033C220.073 0.605086 218.591 1.33141 216.762 2.46768L11.8396 118.537C10.1089 119.393 10.3295 119.861 12.1297 120.684L243.924 230.926C248.218 233.067 249.997 233.042 254.647 230.318L455.923 103.181C460.516 100.16 460.76 99.6297 454.79 97.4337L229.669 1.76507C226.213 0.368011 223.946 -0.223273 221.52 0.296486L221.53 0.299033ZM200.846 25.0721C205.22 24.0159 209.96 23.4156 215.001 23.345C235.163 23.065 251.507 31.6038 251.41 42.3615C251.312 53.1195 234.892 62.0524 214.73 62.333C194.567 62.6134 178.247 54.1726 178.344 43.4149C178.416 35.3477 187.718 28.2112 200.846 25.0721ZM85.6507 91.7814C90.025 90.7252 94.8638 90.1002 99.9043 90.0297C120.066 89.7496 136.288 98.2124 136.189 108.971C136.092 119.728 119.695 128.761 99.5333 129.041C79.3704 129.321 63.1267 120.759 63.2235 110.001C63.295 101.933 72.5195 94.9203 85.6497 91.7818L85.6507 91.7814ZM275.825 57.4318C280.199 56.3756 285.062 55.8518 290.102 55.7814C310.264 55.5014 326.486 63.9642 326.387 74.7223C326.291 85.4799 309.87 94.412 289.708 94.6916C269.545 94.9733 253.324 86.5089 253.421 75.7513C253.493 67.6841 262.694 60.5718 275.824 57.4323L275.825 57.4318ZM160.657 126.982C165.033 125.926 169.87 125.301 174.911 125.232C195.073 124.952 211.295 133.415 211.198 144.172C211.101 154.93 194.681 163.862 174.518 164.144C154.355 164.424 138.135 155.96 138.231 145.203C138.305 137.135 147.53 130.122 160.657 126.982ZM352.524 90.8673C356.899 89.8111 361.737 89.186 366.778 89.1156C386.94 88.8355 403.161 97.2983 403.064 108.056C402.967 118.814 386.57 127.847 366.408 128.127C346.245 128.407 330.001 119.845 330.098 109.087C330.17 101.018 339.394 94.0058 352.524 90.8673ZM237.651 161.72C242.025 160.664 246.863 160.039 251.903 159.968C272.066 159.688 288.287 168.151 288.19 178.909C288.094 189.666 271.673 198.599 251.51 198.88C231.347 199.161 215.127 190.698 215.224 179.94C215.297 171.871 224.522 164.858 237.651 161.72Z" fill="#FCE5AA"/>
<path fill-rule="evenodd" clip-rule="evenodd" d="M469.395 114.801C468.995 114.985 468.439 115.271 467.812 115.698L261.126 246.315C257.264 249.073 257.28 249.901 257.34 252.939C257.344 253.157 257.348 253.388 257.352 253.631L261.206 517.291C261.353 518.103 261.423 518.833 261.482 519.447C261.693 521.661 261.761 522.377 264.802 520.036L467.065 385.393L467.159 385.318C470.897 382.32 471.62 381.74 471.123 377.482L470.787 116.697C470.856 114.842 470.596 114.249 469.395 114.807L469.395 114.801ZM458.04 169.988C454.457 164.583 448.767 162.665 442.41 164.044L442.409 164.044C436.051 165.422 429.012 170.065 422.892 177.575C410.656 192.591 406.619 213.516 413.785 224.324C420.95 235.132 436.693 231.756 448.931 216.738C461.168 201.721 465.205 180.796 458.04 169.988ZM397.608 293.192C394.082 287.873 388.423 285.954 382.178 287.202L382.178 287.203C381.286 287.381 380.414 287.626 379.5 287.933C373.82 289.842 367.817 294.209 362.462 300.779C350.225 315.795 346.088 336.744 353.253 347.552C360.42 358.36 376.162 354.983 388.399 339.966C400.637 324.949 404.774 304 397.608 293.192ZM331.031 420.789C327.449 415.385 321.782 413.565 315.424 414.945L315.423 414.946C309.067 416.324 302.027 420.967 295.909 428.475C283.672 443.491 279.635 464.418 286.799 475.226C293.965 486.034 309.685 482.557 321.922 467.539C334.16 452.521 338.196 431.597 331.031 420.789Z" fill="#B985BD"/>
</svg>
