<svg width="252" height="70" viewBox="0 0 252 70" fill="none" xmlns="http://www.w3.org/2000/svg">
<path d="M240.167 18.1172L236.904 22.385V34.8536L250.377 18.1172H240.167Z" fill="#4CA135"/>
<path d="M213.808 18.1172L227.239 34.8536L213.18 52.6779H222.929L232.092 40.8787L241.339 52.7197H251.088L236.904 34.8536L224.017 18.1172H213.808Z" fill="#353230"/>
<path d="M183.724 1.21338V52.6778H191.255V29.9163H213.808V23.3891H191.255V7.90794H215.607V1.21338H183.724Z" fill="#353230"/>
<path d="M30 27.6569C28.5356 26.5272 26.9038 25.6485 25.1046 24.9791C23.3473 24.3096 21.5481 23.682 19.8326 23.1799C18.3682 22.7197 17.0293 22.2176 15.7741 21.7573C14.5188 21.2971 13.431 20.7531 12.5105 20.1255C11.59 19.4979 10.8787 18.7029 10.3347 17.8243C9.7908 16.9038 9.53975 15.7741 9.53975 14.4351C9.53975 13.0126 9.83264 11.7992 10.4184 10.8368C11.0042 9.83263 11.7573 8.99581 12.7197 8.28451C13.6402 7.61506 14.728 7.11297 15.8577 6.82008C17.0293 6.52719 18.159 6.35983 19.2887 6.35983C21.4226 6.35983 23.3473 6.82008 25.0209 7.6569C26.7364 8.53556 28.0753 9.66527 29.0795 11.0042L29.205 11.2134L34.5607 6.0251L34.4351 5.89958C32.8452 4.10041 30.7113 2.63598 28.0753 1.58995C25.4812 0.543928 22.636 0 19.6234 0C17.4895 0 15.3556 0.292887 13.2636 0.83682C11.1715 1.38075 9.24686 2.30125 7.57322 3.51464C5.89958 4.72803 4.51883 6.27615 3.4728 8.11715C2.42678 9.95816 1.88285 12.2176 1.88285 14.7699C1.88285 17.1548 2.25941 19.1632 3.05439 20.7531C3.84937 22.3431 4.85356 23.7238 6.15063 24.8117C7.40586 25.8996 8.87029 26.8201 10.4603 27.5314C12.0502 28.2427 13.682 28.8285 15.3138 29.2887C16.9874 29.8326 18.5356 30.3347 19.9582 30.8368C21.3808 31.3389 22.6778 31.9665 23.7657 32.636C24.8536 33.3473 25.6904 34.1841 26.318 35.1883C26.9456 36.1925 27.2803 37.4477 27.2803 38.954C27.2803 40.4603 26.9874 41.7573 26.3598 42.8033C25.7322 43.8494 24.9372 44.728 24.0167 45.4393C23.0544 46.1506 21.9665 46.6527 20.795 46.9874C19.6234 47.3222 18.41 47.4895 17.2385 47.4895C14.9372 47.4895 12.7615 46.9456 10.7531 45.8577C8.78661 44.7699 7.15481 43.3473 5.98326 41.59L5.85774 41.4226L0 46.3598L0.125523 46.5272C2.09205 48.9958 4.64435 50.8787 7.6569 52.1339C10.6695 53.3891 13.8494 54.0167 17.0711 54.0167C19.3305 54.0167 21.59 53.682 23.7239 53.0544C25.8577 52.4268 27.7824 51.4644 29.4561 50.1674C31.0879 48.8703 32.4268 47.2385 33.431 45.272C34.4351 43.3054 34.9372 40.9623 34.9372 38.2845C34.9372 35.7322 34.477 33.5565 33.5565 31.8828C32.6778 30.2092 31.4644 28.7866 30 27.6569Z" fill="#353230"/>
<path d="M47.6151 18.1172H40.4184V52.7197H47.6151V18.1172Z" fill="#353230"/>
<path d="M82.4686 23.3054C81.1716 21.297 79.4561 19.7489 77.3222 18.7447C75.0628 17.6569 72.6778 17.1548 70.2092 17.1548C67.6151 17.1548 65.1883 17.615 63.0544 18.5774C60.9205 19.5397 59.0795 20.8368 57.5732 22.4686C56.0669 24.1004 54.8954 26.0251 54.0586 28.2008C53.2218 30.3765 52.8033 32.7196 52.8033 35.1883C52.8033 37.6569 53.2218 40 54.0586 42.1339C54.8954 44.2678 56.0669 46.1924 57.5732 47.7824C59.0795 49.3724 60.9205 50.6694 63.0962 51.5899C65.2301 52.5104 67.6569 52.9707 70.2929 52.9707C72.7615 52.9707 75.1046 52.4686 77.2803 51.4226C79.3305 50.4602 81.0042 49.0795 82.2594 47.2803V51.2552C82.2594 53.0125 82.0502 54.6443 81.6736 56.1924C81.2552 57.6987 80.6276 58.9958 79.7071 60.1255C78.7866 61.2134 77.5732 62.092 76.0669 62.7196C74.5607 63.3473 72.6778 63.682 70.4603 63.682C68.159 63.682 65.8577 63.1799 63.6402 62.1757C61.4226 61.1715 59.5816 59.8326 58.1172 58.2008L57.9498 58.0334L53.3473 63.6401L53.4728 63.7657C55.6485 65.7322 58.2845 67.3222 61.2971 68.3682C64.3096 69.456 67.364 70 70.3347 70C73.8912 70 76.9456 69.456 79.3724 68.41C81.7992 67.3222 83.7657 65.8996 85.272 64.1422C86.7782 62.3849 87.8661 60.2929 88.4937 57.9916C89.1213 55.6904 89.4561 53.2636 89.4561 50.7531V18.0753H82.5105V23.3054H82.4686ZM81.9247 30.5021C82.4686 31.9247 82.7615 33.4309 82.7615 35.0627C82.7615 36.6945 82.4686 38.2845 81.9247 39.7071C81.3808 41.1297 80.6276 42.3849 79.6234 43.4728C78.6192 44.5188 77.4059 45.3556 75.9833 45.9832C74.5607 46.6109 72.9707 46.9037 71.2971 46.9037C69.5398 46.9037 67.9916 46.569 66.6109 45.8996C65.2301 45.2301 64.0586 44.3514 63.0962 43.2636C62.1339 42.1757 61.3808 40.9205 60.8787 39.4979C60.3766 38.0753 60.1255 36.569 60.1255 35.0209C60.1255 33.4309 60.3766 31.8828 60.8787 30.4184C61.3808 28.9958 62.0921 27.7406 63.0962 26.6527C64.0586 25.6067 65.2301 24.728 66.6109 24.1004C67.9916 23.4728 69.5398 23.138 71.2971 23.138C73.0126 23.138 74.5607 23.4728 75.9414 24.1004C77.3222 24.728 78.5356 25.6067 79.5816 26.6945C80.5858 27.8242 81.3808 29.0795 81.9247 30.5021Z" fill="#353230"/>
<path d="M123.724 21.3389C122.636 20.0837 121.297 19.0376 119.707 18.2845C118.117 17.5313 116.151 17.1548 113.933 17.1548C112.678 17.1548 111.423 17.3221 110.293 17.6569C109.121 17.9916 108.033 18.4937 107.071 19.0795C106.109 19.7071 105.23 20.4184 104.477 21.2134C103.808 21.9247 103.264 22.6778 102.845 23.5146C102.845 22.887 102.803 22.1339 102.762 21.2134C102.72 20.1255 102.678 19.1631 102.594 18.2845V18.1171H95.7741V18.3263C95.8578 19.4142 95.8996 20.7113 95.9414 22.1339C95.9833 23.5983 96.0251 24.7698 96.0251 25.6485V52.6778H103.222V34.3096C103.222 30.9623 104.059 28.2426 105.732 26.2343C107.406 24.2677 109.54 23.2217 112.176 23.2217C113.724 23.2217 114.979 23.5146 115.983 24.0586C116.946 24.6025 117.741 25.3556 118.285 26.2761C118.828 27.1966 119.247 28.3263 119.456 29.5397C119.665 30.795 119.791 32.092 119.791 33.4728V52.636H126.987V31.2134C126.987 29.2887 126.736 27.4477 126.234 25.7322C125.607 24.1004 124.812 22.5941 123.724 21.3389Z" fill="#353230"/>
<path d="M162.259 49.3307C162.176 48.0754 162.134 46.8202 162.134 45.6905V30.7533C162.134 28.8704 161.841 27.0712 161.255 25.4394C160.669 23.8076 159.791 22.3432 158.619 21.1298C157.448 19.9164 155.941 18.9541 154.1 18.2428C152.301 17.5315 150.126 17.1968 147.657 17.1968C144.854 17.1968 142.218 17.657 139.749 18.5775C137.322 19.498 135.23 20.7951 133.515 22.3851L133.389 22.5106L137.239 27.1549L137.406 26.9876C138.536 25.8579 139.958 24.8955 141.632 24.1842C143.305 23.4311 145.105 23.0963 146.987 23.0963C149.456 23.0963 151.506 23.6821 153.013 24.8955C154.477 26.0671 155.23 27.9499 155.23 30.4185V31.1717C152.427 31.1717 149.582 31.2972 146.82 31.5482C143.975 31.7993 141.381 32.3014 139.121 33.0964C136.82 33.8913 134.979 35.0629 133.557 36.611C132.134 38.1591 131.423 40.293 131.423 42.929C131.423 44.9374 131.841 46.6528 132.636 47.9917C133.431 49.3725 134.477 50.4604 135.69 51.2972C136.904 52.134 138.285 52.7198 139.749 53.0964C141.213 53.4729 142.678 53.6403 144.017 53.6403C146.653 53.6403 148.954 53.1382 150.837 52.0922C152.678 51.1298 154.226 49.7072 155.481 47.9917C155.523 49.5399 155.69 51.088 156.067 52.6361L156.109 52.8035H162.636L162.594 52.5524C162.469 51.6319 162.343 50.5859 162.259 49.3307ZM155.272 36.4018V37.9918C155.272 40.7951 154.435 43.18 152.762 45.021C151.088 46.8621 148.703 47.7825 145.607 47.7825C144.77 47.7825 143.933 47.6989 143.138 47.5315C142.343 47.3641 141.632 47.0713 140.962 46.6528C140.335 46.2344 139.791 45.6905 139.414 45.0629C139.038 44.4353 138.828 43.5984 138.828 42.6361C138.828 41.2554 139.289 40.1256 140.209 39.3307C141.13 38.4938 142.343 37.8662 143.766 37.406C145.23 36.9876 146.862 36.6947 148.619 36.5273C150.418 36.4018 152.176 36.3181 153.849 36.3181H155.272V36.4018Z" fill="#353230"/>
<path d="M176.276 0.0419922H169.079V52.678H176.276V0.0419922Z" fill="#353230"/>
<path d="M47.6151 7.11304H40.4603V14.2679H47.6151V7.11304Z" fill="#353230"/>
</svg>
