<svg width="260" height="69" viewBox="0 0 260 69" fill="none" xmlns="http://www.w3.org/2000/svg">
<path d="M80.841 29.3782C80.7115 29.3044 80.585 29.2247 80.4541 29.1553C78.9668 28.3605 77.356 27.775 75.6594 27.4182C75.7468 28.067 75.822 28.7203 75.8687 29.3782C75.9033 29.8479 75.9304 30.3205 75.9439 30.7963C75.9515 31.0928 75.956 31.3894 75.956 31.6874C75.956 43.321 69.6862 53.4868 60.3423 58.9964C60.7834 59.3668 61.2395 59.7205 61.7152 60.0487C61.9455 60.2068 62.1863 60.3498 62.4242 60.4989C65.191 62.2134 68.4457 63.2176 71.9412 63.2176C81.9339 63.2176 90.0343 55.1156 90.0343 45.1214C90.0343 38.3668 86.3265 32.4853 80.841 29.3782Z" fill="#FF00CE"/>
<path d="M71.941 27.0276C73.2176 27.0276 74.4579 27.1676 75.6592 27.4189C73.5727 11.9392 60.321 0 44.2692 0C33.2106 0 23.4784 5.66623 17.8092 14.2498C7.50636 17.3479 0.000549316 26.9026 0.000549316 38.214C0.000549316 52.0334 11.2051 63.283 25.0244 63.283C25.9367 63.283 42.8255 63.4215 44.2692 63.4215C48.975 63.4215 53.4369 62.3392 57.4517 60.4981C57.67 60.3972 57.8928 60.3053 58.1081 60.2015C58.8713 59.8297 59.615 59.4247 60.3421 58.9957C56.3753 55.6779 53.8463 50.6981 53.8463 45.1221C53.8463 35.1295 61.9482 27.0276 71.941 27.0276Z" fill="#0086FF"/>
<path d="M75.9566 31.688C75.9566 31.3899 75.952 31.0919 75.943 30.7968C75.9295 30.3211 75.9024 29.8485 75.8693 29.3788C75.8211 28.7178 75.7459 28.0675 75.6585 27.4188C74.4588 27.1673 73.2168 27.0273 71.9417 27.0273C61.9475 27.0273 53.8472 35.1293 53.8472 45.122C53.8472 50.6994 56.3762 55.6791 60.3414 58.997C69.6852 53.4859 75.9566 43.3215 75.9566 31.688Z" fill="#1E1E9A"/>
<path d="M223.788 13.113V22.0505H236.592V54.6388H246.164V22.0505H259.027V13.113H223.788Z" fill="#1E1E9A"/>
<path d="M121.792 30.5087L117.983 28.9687C116.079 28.228 114.736 27.525 113.984 26.8777C113.265 26.259 112.916 25.4988 112.916 24.5579C112.916 22.202 114.589 21.0595 118.034 21.0595C121.546 21.0595 124.605 22.3887 127.121 25.0125L127.351 25.2519L132.355 19.5435L132.187 19.3433C128.69 15.19 123.982 13.0854 118.195 13.0854C114.097 13.0854 110.659 14.1408 107.973 16.2242C105.264 18.3242 103.889 21.2385 103.889 24.883C103.889 27.7569 104.776 30.1158 106.525 31.8937C108.246 33.6414 110.907 35.2701 114.435 36.7364L118.482 38.4359C120.392 39.2324 121.801 39.9549 122.67 40.5856C123.485 41.1788 123.881 41.9992 123.881 43.0921C123.881 44.45 123.331 45.4511 122.202 46.1525C121.042 46.8737 119.559 47.2379 117.791 47.2379C114.064 47.2379 110.379 45.3637 106.841 41.668L106.615 41.4317L101.369 47.2033L101.524 47.405C105.506 52.5866 110.978 55.2134 117.791 55.2134C122.047 55.2134 125.649 54.1175 128.496 51.9543C131.369 49.773 132.825 46.6824 132.825 42.77C132.825 39.8947 131.925 37.4966 130.15 35.639C128.403 33.8069 125.589 32.0818 121.792 30.5087Z" fill="#1E1E9A"/>
<path d="M166.194 43.2865C163.942 45.6394 161.104 46.8333 157.754 46.8333C154.558 46.8333 151.784 45.7328 149.506 43.5605C148.366 42.4736 147.501 41.1188 146.93 39.5352V28.6407C147.499 27.0586 148.365 25.7188 149.503 24.6591C151.78 22.5394 154.558 21.4631 157.754 21.4631C161.105 21.4631 163.945 22.6568 166.194 25.0113C168.447 27.3702 169.59 30.4578 169.59 34.1896C169.59 37.8657 168.447 40.9276 166.194 43.2865ZM159.128 13.0857C156.184 13.0857 153.442 13.6804 150.984 14.8545C148.817 15.8917 147.006 17.2962 145.593 19.041V13.9739H137.053V68.8915H146.16V50.0457C149.348 53.4765 153.708 55.2136 159.128 55.2136C164.855 55.2136 169.642 53.192 173.353 49.2087C177.059 45.2285 178.939 40.1478 178.939 34.1083C178.939 28.1229 177.059 23.0678 173.353 19.0907C169.642 15.1044 164.855 13.0857 159.128 13.0857Z" fill="#1E1E9A"/>
<path d="M211.443 43.1647C209.14 45.5462 206.245 46.7534 202.84 46.7534C199.381 46.7534 196.489 45.5462 194.24 43.1662C191.984 40.7816 190.841 37.7604 190.841 34.1896C190.841 30.5647 191.998 27.5163 194.278 25.1318C196.557 22.7487 199.465 21.5158 202.916 21.4631C206.323 21.5158 209.204 22.7487 211.482 25.1318C213.763 27.5163 214.919 30.5647 214.919 34.1896C214.919 37.7604 213.75 40.7802 211.443 43.1647ZM202.84 13.0857C196.902 13.0857 191.82 15.13 187.734 19.1629C183.646 23.1944 181.573 28.2238 181.573 34.1083C181.573 39.9944 183.646 45.0223 187.734 49.0552C191.82 53.0866 196.902 55.1595 202.84 55.2137C208.723 55.2137 213.818 53.1558 217.986 49.0958C222.154 45.0358 224.269 39.9944 224.269 34.1083C224.269 28.2223 222.154 23.1928 217.983 19.1599C213.817 15.1286 208.723 13.0857 202.84 13.0857Z" fill="#1E1E9A"/>
</svg>
