<svg width="116" height="24" viewBox="0 0 116 24" fill="none" xmlns="http://www.w3.org/2000/svg">
<path d="M12.3 9L9 9.20001C8.9 8.90001 8.79998 8.70002 8.59998 8.40002C8.39998 8.10002 8.20002 7.99999 7.90002 7.79999C7.60002 7.69999 7.19999 7.59998 6.79999 7.59998C6.19999 7.59998 5.80002 7.7 5.40002 8C5.00002 8.2 4.79999 8.50002 4.79999 8.90002C4.79999 9.20002 4.90001 9.50001 5.20001 9.70001C5.50001 9.90001 5.9 10.1 6.5 10.2L8.90002 10.7C10.2 11 11.1 11.4 11.7 12C12.3 12.6 12.6 13.3 12.6 14.3C12.6 15.2 12.3 15.9 11.8 16.6C11.3 17.2 10.6 17.8 9.70001 18.1C8.80001 18.5 7.80001 18.6 6.70001 18.6C5.00001 18.6 3.59998 18.2 2.59998 17.5C1.59998 16.8 0.999988 15.8 0.799988 14.5L4.40002 14.3C4.50002 14.8 4.80001 15.2 5.20001 15.5C5.60001 15.8 6.09999 15.9 6.79999 15.9C7.39999 15.9 7.89999 15.8 8.29999 15.5C8.69999 15.2 8.90002 14.9 8.90002 14.5C8.90002 14.2 8.8 13.9 8.5 13.7C8.2 13.5 7.80001 13.3 7.20001 13.2L4.90002 12.7C3.60002 12.4 2.7 12 2 11.4C1.3 10.8 1.09998 10 1.09998 9C1.09998 8.2 1.29999 7.39999 1.79999 6.79999C2.29999 6.19999 2.90001 5.70002 3.70001 5.40002C4.50001 5.10002 5.49998 4.90002 6.59998 4.90002C8.29998 4.90002 9.6 5.20002 10.5 5.90002C11.5 6.80002 12.1 7.8 12.3 9Z" fill="#333333"/>
<path d="M16.7 23.3C16.2 23.3 15.8 23.3 15.4 23.2C15 23.1 14.7 23 14.4 22.9L15.2 20.2C15.6 20.3 16 20.4 16.4 20.4C16.7 20.4 17 20.3 17.3 20.2C17.6 20 17.8 19.7 17.9 19.3L18.1 18.7L13.4 5.20001H17.2L19.9 14.8H20L22.7 5.20001H26.5L21.4 19.7C21.2 20.4 20.8 21 20.4 21.5C20 22 19.5 22.4 18.8 22.7C18.4 23.1 17.6 23.3 16.7 23.3Z" fill="#333333"/>
<path d="M28.2 18.4V5.29999H31.7V7.59998H31.9C32.2 6.79998 32.6 6.19999 33.3 5.79999C33.9 5.39999 34.7 5.09998 35.6 5.09998C36.5 5.09998 37.3 5.29999 37.9 5.79999C38.5 6.19999 39 6.79998 39.2 7.59998H39.3C39.6 6.79998 40.1 6.19999 40.8 5.79999C41.5 5.29999 42.3 5.09998 43.3 5.09998C44.5 5.09998 45.5 5.49999 46.3 6.29999C47.1 7.09999 47.4 8.19998 47.4 9.59998V18.4H43.8V10.3C43.8 9.59999 43.6 9.00001 43.2 8.70001C42.8 8.30001 42.3 8.20001 41.8 8.20001C41.1 8.20001 40.6 8.39999 40.3 8.79999C40 9.19999 39.7 9.80002 39.7 10.4V18.4H36.2V10.2C36.2 9.60001 36 9.00001 35.7 8.70001C35.3 8.30001 34.9 8.09998 34.3 8.09998C33.9 8.09998 33.5 8.20002 33.2 8.40002C32.9 8.60002 32.6 8.90001 32.4 9.20001C32.2 9.60001 32.1 10 32.1 10.5V18.4H28.2V18.4Z" fill="#333333"/>
<path d="M49.8 18.4V0.900024H53.4V7.5H53.5C53.7 7.1 53.9 6.80002 54.2 6.40002C54.5 6.00002 54.9 5.7 55.4 5.5C55.9 5.3 56.5 5.09998 57.2 5.09998C58.2 5.09998 59 5.29999 59.8 5.79999C60.6 6.29999 61.3 7 61.7 8C62.1 9 62.4 10.2 62.4 11.7C62.4 13.2 62.2 14.4 61.7 15.4C61.2 16.4 60.6 17.2 59.8 17.7C59 18.2 58.1 18.5 57.1 18.5C56.4 18.5 55.8 18.4 55.3 18.2C54.8 18 54.4 17.7 54.1 17.3C53.8 16.9 53.5 16.6 53.4 16.2H53.2V18.3H49.8V18.4ZM53.3 11.8C53.3 12.6 53.4 13.3 53.6 13.8C53.8 14.4 54.1 14.8 54.5 15.2C54.9 15.5 55.4 15.7 56 15.7C56.6 15.7 57.1 15.5 57.5 15.2C57.9 14.9 58.2 14.4 58.4 13.8C58.6 13.2 58.7 12.5 58.7 11.8C58.7 11 58.6 10.4 58.4 9.79999C58.2 9.19999 57.9 8.8 57.5 8.5C57.1 8.2 56.6 8 56 8C55.4 8 54.9 8.2 54.5 8.5C54.1 8.8 53.8 9.29999 53.6 9.79999C53.4 10.4 53.3 11 53.3 11.8Z" fill="#333333"/>
<path d="M66.4 3.59998C65.9 3.59998 65.4 3.39998 65 3.09998C64.6 2.69998 64.4 2.29999 64.4 1.79999C64.4 1.29999 64.6 0.9 65 0.5C65.4 0.1 65.8 0 66.4 0C66.9 0 67.4 0.2 67.8 0.5C68.2 0.9 68.4 1.29999 68.4 1.79999C68.4 2.29999 68.2 2.69998 67.8 3.09998C67.4 3.39998 67 3.59998 66.4 3.59998ZM64.6 18.4V5.29999H68.2V18.4H64.6Z" fill="#333333"/>
<path d="M76.7 18.6C75.4 18.6 74.2 18.3 73.3 17.8C72.3 17.2 71.6 16.4 71.1 15.4C70.6 14.4 70.3 13.2 70.3 11.9C70.3 10.5 70.6 9.40002 71.1 8.40002C71.6 7.40002 72.4 6.6 73.3 6C74.3 5.4 75.4 5.20001 76.7 5.20001C78 5.20001 79.2 5.5 80.1 6C81.1 6.6 81.8 7.40002 82.3 8.40002C82.8 9.40002 83.1 10.6 83.1 11.9C83.1 13.2 82.8 14.4 82.3 15.4C81.8 16.4 81 17.2 80.1 17.8C79.2 18.3 78 18.6 76.7 18.6ZM76.7 15.8C77.3 15.8 77.8 15.6 78.2 15.3C78.6 15 78.9 14.5 79.1 13.9C79.3 13.3 79.4 12.6 79.4 11.9C79.4 11.1 79.3 10.5 79.1 9.90002C78.9 9.30002 78.6 8.8 78.2 8.5C77.8 8.2 77.3 8 76.7 8C76.1 8 75.6 8.2 75.2 8.5C74.8 8.8 74.5 9.30002 74.3 9.90002C74.1 10.5 74 11.2 74 11.9C74 12.7 74.1 13.3 74.3 13.9C74.5 14.5 74.8 15 75.2 15.3C75.6 15.6 76.1 15.8 76.7 15.8Z" fill="#333333"/>
<path d="M96 9L92.7 9.20001C92.6 8.90001 92.5 8.70002 92.3 8.40002C92.1 8.10002 91.9 7.99999 91.6 7.79999C91.3 7.69999 90.9 7.59998 90.5 7.59998C89.9 7.59998 89.5 7.7 89.1 8C88.7 8.2 88.5 8.50002 88.5 8.90002C88.5 9.20002 88.6 9.50001 88.9 9.70001C89.2 9.90001 89.6 10.1 90.2 10.2L92.6 10.7C93.9 11 94.8 11.4 95.4 12C96 12.6 96.3 13.3 96.3 14.3C96.3 15.2 96 15.9 95.5 16.6C95 17.2 94.3 17.8 93.4 18.1C92.5 18.5 91.5 18.6 90.4 18.6C88.7 18.6 87.3 18.2 86.3 17.5C85.3 16.8 84.7 15.8 84.5 14.5L88.1 14.3C88.2 14.8 88.5 15.2 88.9 15.5C89.3 15.8 89.8 15.9 90.5 15.9C91.1 15.9 91.6 15.8 92 15.5C92.4 15.2 92.6 14.9 92.6 14.5C92.6 14.2 92.5 13.9 92.2 13.7C91.9 13.5 91.5 13.3 90.9 13.2L88.6 12.7C87.3 12.4 86.4 12 85.7 11.4C85 10.8 84.8 10 84.8 9C84.8 8.2 85 7.39999 85.5 6.79999C86 6.19999 86.6 5.70002 87.4 5.40002C88.2 5.10002 89.2 4.90002 90.3 4.90002C92 4.90002 93.3 5.20002 94.2 5.90002C95.3 6.80002 95.9 7.8 96 9Z" fill="#333333"/>
<path d="M100.1 3.59998C99.6 3.59998 99.1 3.39998 98.7 3.09998C98.3 2.69998 98.1 2.29999 98.1 1.79999C98.1 1.29999 98.3 0.9 98.7 0.5C99.1 0.1 99.5 0 100.1 0C100.6 0 101.1 0.2 101.5 0.5C101.9 0.9 102.1 1.29999 102.1 1.79999C102.1 2.29999 101.9 2.69998 101.5 3.09998C101.1 3.39998 100.6 3.59998 100.1 3.59998ZM98.3 18.4V5.29999H101.9V18.4H98.3Z" fill="#333333"/>
<path d="M115.3 9L112 9.20001C111.9 8.90001 111.8 8.70002 111.6 8.40002C111.4 8.10002 111.2 7.99999 110.9 7.79999C110.6 7.69999 110.2 7.59998 109.8 7.59998C109.2 7.59998 108.8 7.7 108.4 8C108 8.2 107.8 8.50002 107.8 8.90002C107.8 9.20002 107.9 9.50001 108.2 9.70001C108.5 9.90001 108.9 10.1 109.5 10.2L111.9 10.7C113.2 11 114.1 11.4 114.7 12C115.3 12.6 115.6 13.3 115.6 14.3C115.6 15.2 115.3 15.9 114.8 16.6C114.3 17.2 113.6 17.8 112.7 18.1C111.8 18.5 110.8 18.6 109.7 18.6C108 18.6 106.6 18.2 105.6 17.5C104.6 16.8 104 15.8 103.8 14.5L107.4 14.3C107.5 14.8 107.8 15.2 108.2 15.5C108.6 15.8 109.1 15.9 109.8 15.9C110.4 15.9 110.9 15.8 111.3 15.5C111.7 15.2 111.9 14.9 111.9 14.5C111.9 14.2 111.8 13.9 111.5 13.7C111.2 13.5 110.8 13.3 110.2 13.2L107.9 12.7C106.6 12.4 105.7 12 105 11.4C104.3 10.8 104.1 10 104.1 9C104.1 8.2 104.3 7.39999 104.8 6.79999C105.3 6.19999 105.9 5.70002 106.7 5.40002C107.5 5.10002 108.5 4.90002 109.6 4.90002C111.3 4.90002 112.6 5.20002 113.5 5.90002C114.6 6.80002 115.2 7.8 115.3 9Z" fill="#333333"/>
</svg>
