<svg width="209" height="70" viewBox="0 0 209 70" fill="none" xmlns="http://www.w3.org/2000/svg">
<path d="M108.669 25.4456H117.19L104.279 68.7948H92.1643L79.2531 25.4456H87.7852L98.2541 61.5646L108.669 25.4456Z" fill="black"/>
<path d="M140.947 68.7949H134.438L133.857 66.643C131.047 68.4653 127.77 69.4368 124.421 69.4404C118.621 69.4404 116.147 65.4702 116.147 60.0045C116.147 53.5489 118.955 51.085 125.389 51.085H133.007V47.7927C133.007 44.2744 132.028 43.0371 126.96 43.0371C124.005 43.0716 121.06 43.3995 118.17 44.0162L117.19 37.9694C120.729 36.9855 124.384 36.4789 128.057 36.4631C138.02 36.4631 140.969 39.9814 140.969 47.9218L140.947 68.7949ZM133.007 56.8198H127.154C124.55 56.8198 123.829 57.5299 123.829 59.94C123.829 62.1564 124.55 63.1677 127.057 63.1677C129.156 63.1393 131.214 62.5804 133.039 61.5431L133.007 56.8198Z" fill="black"/>
<path d="M153.396 37.0981V59.2193C153.396 60.9193 154.116 61.7585 155.935 61.7585C157.753 61.7585 161.314 60.5857 164.198 59.0902V37.0981H172.149V68.7951H166.102L165.306 66.0837C161.353 68.0565 157.033 69.185 152.621 69.3976C147.349 69.3976 145.455 65.6856 145.455 60.0262V37.0981H153.396Z" fill="black"/>
<path d="M176.367 68.795V24.1223L184.307 23.0464V68.795H176.367Z" fill="black"/>
<path d="M207.999 68.2354C205.757 69.0225 203.403 69.4404 201.027 69.4728C195.238 69.4728 192.312 66.7399 192.312 61.0805V43.4137H187.556V37.098H192.312V29.2222L200.252 28.1462V37.1303H208.386L207.859 43.446H200.252V60.0046C200.252 61.6938 201.027 62.802 203.114 62.802C204.46 62.7615 205.795 62.5444 207.084 62.1564L207.999 68.2354Z" fill="black"/>
<path d="M0 0.451904L34.645 70.0001L69.5482 0.451904H0ZM38.7335 14.439H42.7683V18.4415H38.7335V14.439ZM30.7071 30.578H26.7154V26.511H30.7394L30.7071 30.578ZM30.7071 24.5312H26.7154V20.4642H30.7394L30.7071 24.5312ZM30.7071 18.4845H26.7154V14.4175H30.7394L30.7071 18.4845ZM36.7538 36.6355H32.7621V32.5577H36.7861L36.7538 36.6355ZM36.7538 30.578H32.7621V26.511H36.7861L36.7538 30.578ZM36.7538 24.5312H32.7621V20.4642H36.7861L36.7538 24.5312ZM36.7538 18.4845H32.7621V14.4175H36.7861L36.7538 18.4845ZM38.7335 20.4642H42.7683V24.4882H38.7335V20.4642ZM38.7335 30.5349V26.511H42.7575V30.5349H38.7335Z" fill="black"/>
<path d="M87.6561 14.8156V8.73656H82.0936V14.8156H79.2531V0.204428H82.0936V6.33724H87.6561V0.204428H90.5073V14.8156H87.6561ZM100.922 14.8156H98.6629L98.4585 14.1055C97.4888 14.7078 96.3721 15.0316 95.2307 15.0415C93.2294 15.0415 92.3687 13.7181 92.3687 11.8998C92.3687 9.74794 93.3371 8.93023 95.5965 8.93023H98.2325V7.8543C98.2325 6.69229 97.899 6.28344 96.0807 6.28344C95.0578 6.2939 94.0382 6.40198 93.0358 6.60622L92.7023 4.59423C93.9299 4.26102 95.196 4.09099 96.468 4.08854C99.911 4.08854 100.933 5.2613 100.933 7.9081L100.922 14.8156ZM98.168 10.8346H96.1345C95.2415 10.8346 94.994 11.0713 94.994 11.9106C94.994 12.7498 95.2414 12.9865 96.0699 12.9865C96.7955 12.9786 97.5083 12.7939 98.1465 12.4485L98.168 10.8346ZM106.679 15.0415C105.393 15.0178 104.118 14.8113 102.891 14.4282L103.279 12.4162C104.331 12.7033 105.416 12.8552 106.506 12.8681C107.722 12.8681 107.905 12.6099 107.905 11.7922C107.905 10.9745 107.765 10.8131 105.99 10.4043C103.3 9.78022 102.988 9.1239 102.988 7.09039C102.988 5.05688 103.956 4.03474 107.087 4.03474C108.196 4.0334 109.3 4.15976 110.38 4.41132L110.111 6.50939C109.112 6.33295 108.101 6.23224 107.087 6.20812C105.893 6.20812 105.689 6.46635 105.689 7.1119C105.689 7.96189 105.764 8.02645 107.249 8.39227C110.315 9.16694 110.606 9.55427 110.606 11.7277C110.606 13.901 109.992 15.0415 106.679 15.0415ZM119.278 14.8156V7.4562C119.278 6.89672 119.03 6.61698 118.395 6.61698C117.394 6.72398 116.422 7.02356 115.534 7.49924V14.8156H112.779V0L115.534 0.408853V5.0784C116.786 4.46334 118.153 4.11527 119.547 4.05626C121.376 4.05626 122.032 5.29358 122.032 7.17646V14.8156H119.278ZM124.335 2.78666V0.204428H127.089V2.78666H124.335ZM124.335 14.8156V4.27145H127.089V14.8156H124.335ZM129.284 4.35752C129.284 1.72149 130.887 0.182908 134.664 0.182908C136.037 0.182203 137.405 0.341073 138.741 0.656319L138.429 3.02337C137.215 2.80338 135.984 2.68105 134.75 2.65755C132.791 2.65755 132.157 3.30311 132.157 4.80941V10.3505C132.157 11.889 132.791 12.5023 134.75 12.5023C135.984 12.4788 137.215 12.3565 138.429 12.1365L138.741 14.4928C137.405 14.8117 136.037 14.9741 134.664 14.977C130.919 14.977 129.284 13.4384 129.284 10.7916V4.35752ZM144.788 15.0415C141.022 15.0415 140.011 13.0403 140.011 10.8777V8.22012C140.011 6.06825 141.022 4.05626 144.788 4.05626C148.554 4.05626 149.554 6.04674 149.554 8.22012V10.8777C149.554 13.0403 148.554 15.0415 144.788 15.0415ZM144.788 6.31572C143.325 6.31572 142.755 6.93976 142.755 8.13404V10.9637C142.755 12.158 143.325 12.7821 144.788 12.7821C146.251 12.7821 146.822 12.158 146.822 10.9637V8.13404C146.822 6.90748 146.251 6.31572 144.788 6.31572ZM157.312 6.48787C156.305 6.92356 155.333 7.43802 154.407 8.02645V14.8156H151.706V4.27145H154.03L154.213 5.44421C155.107 4.85995 156.073 4.39345 157.086 4.05626L157.312 6.48787ZM168.308 11.308C168.308 13.6536 167.232 15.0415 164.682 15.0415C163.699 15.0291 162.719 14.9247 161.756 14.7295V19.0332L159.001 19.4421V4.27145H161.153L161.422 5.16447C162.44 4.45309 163.655 4.07699 164.897 4.08854C167.103 4.08854 168.276 5.34738 168.276 7.7467L168.308 11.308ZM161.756 12.5023C162.555 12.6733 163.369 12.767 164.187 12.7821C165.177 12.7821 165.564 12.3302 165.564 11.3726V7.64987C165.564 6.78913 165.22 6.31572 164.209 6.31572C163.307 6.34266 162.441 6.67669 161.756 7.26254V12.5023Z" fill="black"/>
</svg>
