<?xml version="1.0" encoding="utf-8"?>
<!-- Generator: Adobe Illustrator 17.0.0, SVG Export Plug-In . SVG Version: 6.00 Build 0)  -->
<!DOCTYPE svg PUBLIC "-//W3C//DTD SVG 1.1//EN" "http://www.w3.org/Graphics/SVG/1.1/DTD/svg11.dtd">
<svg version="1.1" id="Layer_1" xmlns="http://www.w3.org/2000/svg" xmlns:xlink="http://www.w3.org/1999/xlink" x="0px" y="0px"
	 width="400px" height="70.305px" viewBox="280 246.278 400 70.305" enable-background="new 280 246.278 400 70.305"
	 xml:space="preserve">
<g>
	<path fill="#FFA300" d="M542.018,314.027l6.558-6.162l-15.551-39.062l-18.047,45.224h-11.05l29.097-67.738l29.078,67.738
		L542.018,314.027L542.018,314.027z"/>
	<path fill="#FFA300" d="M360.232,248.836h36.385v9.028h-25.802v16.324h25.802v9.293h-25.802v21.065h25.802v9.482h-36.385V248.836z"
		/>
	<path fill="#FFA300" d="M426.523,246.278l41.402,39.849c2.65,2.562,4.927,5.198,7.117,7.938v-45.23h9.742v67.747l-42.21-40.571
		c-2.378-2.277-4.465-4.746-6.29-7.298v45.314h-9.762V246.278L426.523,246.278z"/>
	<path fill="#FFA300" d="M582.572,248.836h36.368v9.028h-25.814v16.235h25.814v9.303h-25.814v30.625h-10.554L582.572,248.836
		L582.572,248.836z"/>
	<path fill="#FFA300" d="M643.828,248.836h10.586v65.191h-10.586V248.836z"/>
	<path fill="#FFA300" d="M318.083,248.836l6.558,6.173l-15.547,39.057l-18.059-45.23H280l29.094,67.747l29.077-67.747
		L318.083,248.836L318.083,248.836z"/>
</g>
<g>
	<path fill="#FFA300" d="M673.355,248.836c-3.57,0-6.7,2.746-6.7,6.48c0,3.789,3.13,6.59,6.7,6.59c3.624,0,6.645-2.801,6.645-6.59
		C680,251.581,676.979,248.836,673.355,248.836z M673.355,260.807c-2.966,0-5.272-2.306-5.272-5.491
		c0-3.075,2.306-5.382,5.272-5.382c2.965,0,5.326,2.306,5.326,5.382C678.682,258.501,676.321,260.807,673.355,260.807z"/>
	<path fill="#FFA300" d="M676.375,253.723c0-1.482-0.878-2.142-2.636-2.142h-0.384h-2.471v7.523h1.153v-3.24h1.263l0.055,0.055
		l1.922,3.185h1.318l-2.142-3.295C675.552,255.645,676.375,255.041,676.375,253.723z M672.037,254.877v-2.306h1.318h0.219
		c0.77,0,1.593,0.165,1.593,1.098c0,1.154-0.824,1.208-1.812,1.208H672.037z"/>
</g>
</svg>
