<svg width="338" height="310" viewBox="0 0 338 310" fill="none" xmlns="http://www.w3.org/2000/svg">
<path fill-rule="evenodd" clip-rule="evenodd" d="M269.8 1.2C269.47 1.413 268.626 1.59101 267.924 1.59401C267.222 1.59701 266.536 1.78 266.4 2C266.264 2.22 265.443 2.40001 264.576 2.40001C263.709 2.40001 263 2.58 263 2.8C263 3.02 262.295 3.2 261.433 3.2C260.572 3.2 259.807 3.37401 259.733 3.58701C259.66 3.80001 259.001 4.02 258.27 4.075C257.538 4.13 256.852 4.315 256.746 4.487C256.64 4.659 256.021 4.8 255.371 4.8C254.721 4.8 253.877 4.958 253.495 5.151C252.177 5.817 249.94 6.40001 248.705 6.40001C248.024 6.40001 247.407 6.57201 247.333 6.78201C247.26 6.99301 246.537 7.209 245.726 7.263C244.915 7.316 244.341 7.504 244.449 7.68C244.608 7.937 242.717 8.123 241.545 7.966C241.404 7.947 241.174 8.119 241.033 8.347C240.891 8.576 240.118 8.807 239.314 8.862C238.51 8.916 237.941 9.104 238.049 9.28C238.158 9.456 237.517 9.6 236.624 9.6C235.731 9.6 235 9.78 235 10C235 10.22 234.28 10.4 233.4 10.4C232.52 10.4 231.8 10.58 231.8 10.8C231.8 11.02 231.08 11.2 230.2 11.2C229.32 11.2 228.6 11.38 228.6 11.6C228.6 11.82 227.97 12 227.2 12C226.43 12 225.8 12.18 225.8 12.4C225.8 12.62 225.17 12.8 224.4 12.8C223.63 12.8 223 12.98 223 13.2C223 13.42 222.201 13.6 221.224 13.6C220.247 13.6 219.336 13.78 219.2 14C219.064 14.22 218.434 14.4 217.8 14.4C217.166 14.4 216.534 14.583 216.396 14.807C216.258 15.03 215.976 15.108 215.769 14.981C215.562 14.853 215.034 14.862 214.595 15.002C213.802 15.253 213.798 15.618 213.899 75.127L214 135L215.7 135.123C216.706 135.196 217.4 135.073 217.4 134.823C217.4 134.59 217.994 134.4 218.72 134.4C219.446 134.4 220.211 134.23 220.42 134.022C220.629 133.815 221.645 133.602 222.678 133.549C223.711 133.496 224.465 133.306 224.355 133.126C224.244 132.947 224.883 132.8 225.776 132.8C226.669 132.8 227.4 132.62 227.4 132.4C227.4 132.18 228.03 132 228.8 132C229.57 132 230.2 131.845 230.2 131.656C230.2 131.466 231.145 131.184 232.3 131.029C233.455 130.874 234.67 130.711 235 130.666C235.33 130.621 235.96 130.404 236.4 130.182C236.84 129.961 237.56 129.789 238 129.801C238.44 129.813 239.22 129.61 239.733 129.351C240.246 129.092 240.966 128.927 241.333 128.984C241.7 129.04 242.095 128.94 242.212 128.762C242.329 128.583 243.094 128.392 243.912 128.337C244.73 128.282 245.4 128.093 245.4 127.918C245.4 127.743 245.972 127.6 246.672 127.6C247.878 127.6 249.839 127.101 251.6 126.346C252.04 126.158 252.973 125.965 253.672 125.919C254.372 125.872 254.856 125.691 254.749 125.517C254.572 125.23 256.457 125.009 257.7 125.17C257.975 125.206 258.2 125.047 258.2 124.818C258.2 124.588 258.815 124.4 259.567 124.4C260.318 124.4 260.993 124.228 261.067 124.018C261.14 123.807 261.888 123.589 262.728 123.534C263.569 123.478 264.344 123.29 264.452 123.116C264.559 122.942 265.267 122.8 266.024 122.8C266.781 122.8 267.4 122.62 267.4 122.4C267.4 122.18 268.019 122 268.776 122C269.533 122 270.264 121.82 270.4 121.6C270.536 121.38 271.321 121.2 272.144 121.2C272.967 121.2 273.856 120.984 274.12 120.72C274.489 120.351 274.6 106.436 274.6 60.52V0.800003L272.5 0.806004C271.345 0.809004 270.13 0.987005 269.8 1.2ZM196.541 35.536C196.463 35.745 195.68 36.03 194.8 36.169C193.92 36.307 192.525 36.53 191.7 36.663C190.875 36.796 190.2 37.062 190.2 37.253C190.2 37.444 189.671 37.6 189.024 37.6C188.377 37.6 187.736 37.78 187.6 38C187.464 38.22 186.643 38.4 185.776 38.4C184.909 38.4 184.2 38.58 184.2 38.8C184.2 39.02 183.495 39.2 182.633 39.2C181.772 39.2 181.007 39.363 180.933 39.563C180.86 39.763 180.17 39.984 179.4 40.054C178.63 40.125 177.91 40.304 177.8 40.451C177.69 40.599 176.97 40.779 176.2 40.851C175.43 40.924 174.705 41.113 174.588 41.273C174.471 41.433 173.706 41.608 172.888 41.663C172.07 41.718 171.4 41.907 171.4 42.082C171.4 42.257 170.781 42.4 170.024 42.4C169.267 42.4 168.536 42.58 168.4 42.8C168.264 43.02 167.634 43.2 167 43.2C166.366 43.2 165.736 43.38 165.6 43.6C165.464 43.82 164.744 44 164 44C163.256 44 162.536 44.18 162.4 44.4C162.264 44.62 161.544 44.8 160.8 44.8C160.056 44.8 159.336 44.98 159.2 45.2C159.064 45.42 158.243 45.6 157.376 45.6C156.509 45.6 155.8 45.78 155.8 46C155.8 46.22 155.361 46.4 154.824 46.4C154.287 46.4 153.736 46.58 153.6 46.8C153.464 47.02 152.553 47.2 151.576 47.2C150.599 47.2 149.8 47.38 149.8 47.6C149.8 47.82 149.08 48 148.2 48C147.32 48 146.6 48.155 146.6 48.345C146.6 48.534 146.149 48.603 145.598 48.497C145.046 48.392 144.32 48.534 143.984 48.813C143.647 49.093 142.839 49.306 142.186 49.287C141.534 49.269 141 49.432 141 49.65C141 49.869 140.847 49.953 140.661 49.837C140.474 49.722 139.934 49.988 139.461 50.429L138.6 51.231V102.773C138.6 156.039 138.593 155.803 140.051 154.402C140.243 154.218 141.03 154.011 141.8 153.942C142.57 153.874 143.295 153.688 143.41 153.53C143.526 153.372 144.381 153.198 145.31 153.143C146.24 153.088 147 152.919 147 152.767C147 152.485 148.423 152.127 151.1 151.735C151.925 151.615 152.6 151.375 152.6 151.202C152.6 150.89 154.027 150.568 157.3 150.141C158.235 150.019 159 149.758 159 149.56C159 149.362 159.72 149.2 160.6 149.2C161.48 149.2 162.2 149.02 162.2 148.8C162.2 148.58 162.8 148.4 163.533 148.4C164.267 148.4 164.993 148.274 165.147 148.12C165.468 147.799 172.04 146.331 173.1 146.342C173.485 146.347 173.8 146.181 173.8 145.975C173.8 145.769 174.52 145.6 175.4 145.6C176.28 145.6 177 145.42 177 145.2C177 144.98 177.774 144.8 178.72 144.8C179.666 144.8 180.614 144.626 180.827 144.413C181.039 144.201 181.795 143.983 182.507 143.928C183.218 143.874 183.8 143.688 183.8 143.515C183.8 143.342 184.394 143.2 185.12 143.2C185.846 143.2 186.611 143.035 186.82 142.834C187.029 142.632 187.83 142.411 188.6 142.342C189.37 142.274 190.09 142.097 190.2 141.95C190.31 141.802 190.94 141.625 191.6 141.556C192.26 141.487 192.992 141.294 193.227 141.127C193.461 140.96 194.214 140.781 194.899 140.729C195.584 140.677 196.056 140.491 195.949 140.317C195.841 140.143 196.473 140 197.353 140C198.233 140 199.058 139.829 199.187 139.621C199.316 139.412 199.422 115.877 199.423 87.321L199.425 35.4L198.053 35.278C197.299 35.211 196.618 35.327 196.541 35.536ZM122.2 38.073C122.2 38.253 121.581 38.4 120.824 38.4C120.067 38.4 119.336 38.58 119.2 38.8C119.064 39.02 118.434 39.2 117.8 39.2C117.166 39.2 116.536 39.38 116.4 39.6C116.264 39.82 115.544 40 114.8 40C114.056 40 113.336 40.18 113.2 40.4C113.064 40.62 112.243 40.8 111.376 40.8C110.509 40.8 109.8 40.98 109.8 41.2C109.8 41.42 109.069 41.6 108.176 41.6C107.196 41.6 106.651 41.758 106.8 42C106.951 42.245 106.33 42.4 105.2 42.4C104.07 42.4 103.449 42.555 103.6 42.8C103.749 43.042 103.204 43.2 102.224 43.2C101.331 43.2 100.6 43.38 100.6 43.6C100.6 43.82 99.88 44 99 44C98.12 44 97.4 44.18 97.4 44.4C97.4 44.62 96.68 44.8 95.8 44.8C94.92 44.8 94.2 44.98 94.2 45.2C94.2 45.42 93.581 45.6 92.824 45.6C92.067 45.6 91.336 45.78 91.2 46C91.064 46.22 90.344 46.4 89.6 46.4C88.856 46.4 88.136 46.58 88 46.8C87.864 47.02 87.144 47.2 86.4 47.2C85.656 47.2 84.936 47.38 84.8 47.6C84.664 47.82 83.933 48 83.176 48C82.419 48 81.8 48.164 81.8 48.365C81.8 48.566 81.276 48.648 80.635 48.547C79.994 48.446 79.354 48.551 79.211 48.782C79.069 49.012 78.414 49.2 77.757 49.2C77.099 49.2 76.052 49.463 75.431 49.784C74.81 50.105 74.193 50.26 74.06 50.127C73.928 49.994 73.51 50.137 73.133 50.443C72.538 50.926 72.493 50.92 72.8 50.4C73.093 49.902 73.049 49.884 72.54 50.296C72.203 50.569 71.403 50.861 70.763 50.944C69.487 51.109 68.374 51.459 67.305 52.029C66.923 52.233 66.263 52.4 65.838 52.4C63.64 52.4 63.8 47.648 63.8 112.843V172.8H65.576C66.553 172.8 67.464 172.62 67.6 172.4C67.736 172.18 68.546 172 69.4 172C70.254 172 71.064 171.82 71.2 171.6C71.336 171.38 71.977 171.2 72.624 171.2C73.271 171.2 73.8 171.02 73.8 170.8C73.8 170.58 74.52 170.4 75.4 170.4C76.28 170.4 77 170.239 77 170.042C77 169.845 77.675 169.582 78.5 169.457C82.08 168.916 83 168.691 83 168.356C83 168.16 83.619 168 84.376 168C85.133 168 85.864 167.82 86 167.6C86.136 167.38 87.036 167.2 88 167.2C88.964 167.2 89.864 167.02 90 166.8C90.136 166.58 90.777 166.4 91.424 166.4C92.071 166.4 92.6 166.22 92.6 166C92.6 165.78 93.23 165.6 94 165.6C94.77 165.6 95.4 165.445 95.4 165.255C95.4 165.066 96.607 164.787 98.083 164.636C99.558 164.484 100.953 164.207 101.183 164.019C101.412 163.83 102.23 163.624 103 163.559C103.77 163.494 104.58 163.314 104.8 163.158C105.02 163.003 105.74 162.772 106.4 162.645C107.06 162.519 108.41 162.221 109.4 161.983C110.39 161.745 111.74 161.449 112.4 161.325C113.06 161.201 113.804 160.937 114.054 160.739C114.303 160.541 115.158 160.355 115.954 160.325C116.749 160.295 117.4 160.12 117.4 159.935C117.4 159.751 118.131 159.6 119.024 159.6C120.004 159.6 120.549 159.442 120.4 159.2C120.25 158.957 120.836 158.8 121.896 158.8C122.855 158.8 123.856 158.584 124.12 158.32C124.489 157.951 124.6 143.963 124.6 97.793V37.745H123.4C122.74 37.745 122.2 37.893 122.2 38.073ZM272.504 134.874C272.447 135.039 271.801 135.22 271.07 135.275C270.338 135.33 269.652 135.515 269.546 135.687C269.44 135.859 268.769 136 268.056 136C267.343 136 266.589 136.171 266.379 136.381C266.17 136.59 265.335 136.806 264.525 136.861C263.715 136.915 263.129 137.084 263.223 137.237C263.383 137.496 262.826 137.633 259.1 138.247C258.275 138.383 257.408 138.648 257.173 138.835C256.939 139.023 256.186 139.219 255.501 139.271C254.816 139.323 254.332 139.491 254.426 139.643C254.521 139.795 253.833 140.019 252.899 140.141C249.64 140.567 248.191 140.891 247.973 141.244C247.852 141.44 247.133 141.6 246.376 141.6C245.619 141.6 245 141.78 245 142C245 142.22 244.381 142.4 243.624 142.4C242.867 142.4 242.136 142.58 242 142.8C241.864 143.02 241.043 143.2 240.176 143.2C239.309 143.2 238.6 143.38 238.6 143.6C238.6 143.82 237.88 144 237 144C236.12 144 235.4 144.18 235.4 144.4C235.4 144.62 234.781 144.8 234.024 144.8C233.267 144.8 232.536 144.98 232.4 145.2C232.264 145.42 231.533 145.6 230.776 145.6C230.019 145.6 229.4 145.78 229.4 146C229.4 146.22 228.68 146.4 227.8 146.4C226.92 146.4 226.2 146.58 226.2 146.8C226.2 147.02 225.491 147.2 224.624 147.2C223.757 147.2 222.936 147.38 222.8 147.6C222.664 147.82 222.143 148 221.643 148C221.143 148 220.604 148.13 220.445 148.288C220.287 148.447 219.555 148.524 218.819 148.461C218.083 148.398 217.362 148.538 217.217 148.773C217.072 149.008 216.459 149.2 215.856 149.2C213.719 149.2 213.8 147.975 213.8 180.453V210.746L214.65 211.016C215.117 211.164 215.612 211.111 215.75 210.898C215.988 210.529 217.085 210.242 220.2 209.734C220.97 209.608 221.804 209.342 222.054 209.142C222.303 208.942 223.158 208.755 223.954 208.725C224.749 208.695 225.4 208.52 225.4 208.335C225.4 208.151 226.019 208 226.776 208C227.533 208 228.264 207.82 228.4 207.6C228.536 207.38 229.076 207.2 229.6 207.2C230.124 207.2 230.664 207.02 230.8 206.8C230.936 206.58 231.746 206.4 232.6 206.4C233.454 206.4 234.264 206.22 234.4 206C234.536 205.78 235.357 205.6 236.224 205.6C237.091 205.6 237.8 205.42 237.8 205.2C237.8 204.98 238.419 204.8 239.176 204.8C239.933 204.8 240.664 204.62 240.8 204.4C240.936 204.18 241.667 204 242.424 204C243.181 204 243.8 203.82 243.8 203.6C243.8 203.38 244.509 203.2 245.376 203.2C246.243 203.2 247.064 203.02 247.2 202.8C247.336 202.58 247.977 202.4 248.624 202.4C249.271 202.4 249.8 202.22 249.8 202C249.8 201.78 250.43 201.6 251.2 201.6C251.97 201.6 252.6 201.42 252.6 201.2C252.6 200.98 253.399 200.8 254.376 200.8C255.353 200.8 256.264 200.62 256.4 200.4C256.536 200.18 257.256 200 258 200C258.744 200 259.464 199.82 259.6 199.6C259.736 199.38 260.377 199.2 261.024 199.2C261.671 199.2 262.2 199.02 262.2 198.8C262.2 198.58 263.01 198.4 264 198.4C264.99 198.4 265.8 198.243 265.8 198.052C265.8 197.86 267.06 197.579 268.6 197.427C270.14 197.276 271.4 196.982 271.4 196.776C271.4 196.569 271.835 196.4 272.367 196.4C274.771 196.4 274.6 198.795 274.6 165.162V134.409L273.604 134.491C273.057 134.537 272.562 134.709 272.504 134.874ZM197.8 153.6C197.47 153.813 196.705 153.991 196.1 153.994C195.495 153.997 195 154.18 195 154.4C195 154.62 194.269 154.8 193.376 154.8C192.396 154.8 191.851 154.958 192 155.2C192.211 155.541 190.393 155.832 189.27 155.637C189.089 155.606 189.055 155.765 189.194 155.99C189.347 156.238 188.884 156.42 188.024 156.45C186.106 156.517 185.914 156.552 185.567 156.9C185.402 157.065 184.667 157.2 183.933 157.2C183.2 157.2 182.6 157.38 182.6 157.6C182.6 157.82 182.075 158 181.433 158C180.792 158 180.207 158.165 180.133 158.366C180.06 158.567 179.19 158.783 178.2 158.846C177.21 158.909 176.305 159.096 176.188 159.262C176.071 159.428 175.318 159.607 174.514 159.662C173.71 159.716 173.141 159.904 173.249 160.08C173.358 160.256 172.807 160.4 172.024 160.4C171.241 160.4 170.6 160.58 170.6 160.8C170.6 161.02 169.981 161.2 169.224 161.2C168.467 161.2 167.736 161.38 167.6 161.6C167.464 161.82 166.543 162 165.553 162C164.455 162 163.849 162.156 164 162.4C164.151 162.645 163.53 162.8 162.4 162.8C161.27 162.8 160.649 162.955 160.8 163.2C160.944 163.433 160.545 163.6 159.847 163.6C159.187 163.6 158.536 163.78 158.4 164C158.264 164.22 157.454 164.4 156.6 164.4C155.746 164.4 154.943 164.569 154.815 164.775C154.688 164.982 154.204 165.078 153.741 164.989C153.277 164.899 152.606 164.981 152.249 165.17C151.892 165.359 150.97 165.612 150.2 165.733C149.43 165.853 148.08 166.225 147.2 166.558C146.32 166.892 145.006 167.173 144.28 167.182C143.554 167.192 142.413 167.483 141.744 167.829C141.075 168.175 140.296 168.369 140.013 168.26C138.625 167.728 138.6 168.43 138.6 207.287V245.615L140.6 245.544C141.7 245.505 142.6 245.357 142.6 245.215C142.6 245.073 143.365 244.912 144.3 244.858C145.235 244.804 146.06 244.589 146.133 244.38C146.207 244.171 146.972 244 147.833 244C148.695 244 149.4 243.82 149.4 243.6C149.4 243.38 149.925 243.2 150.567 243.2C151.208 243.2 151.793 243.029 151.867 242.821C151.94 242.612 152.855 242.387 153.9 242.321C154.945 242.254 155.8 242.065 155.8 241.9C155.8 241.735 156.329 241.6 156.976 241.6C157.623 241.6 158.264 241.42 158.4 241.2C158.536 240.98 159.256 240.8 160 240.8C160.744 240.8 161.452 240.64 161.573 240.444C161.791 240.091 163.24 239.766 166.5 239.341C167.435 239.219 168.2 238.958 168.2 238.76C168.2 238.562 168.74 238.4 169.4 238.4C170.06 238.4 170.6 238.22 170.6 238C170.6 237.78 171.399 237.6 172.376 237.6C173.353 237.6 174.264 237.42 174.4 237.2C174.536 236.98 175.098 236.8 175.65 236.8C176.201 236.8 176.981 236.624 177.382 236.41C177.783 236.195 178.671 235.977 179.355 235.925C180.04 235.873 180.6 235.688 180.6 235.515C180.6 235.342 181.129 235.2 181.776 235.2C182.423 235.2 183.064 235.02 183.2 234.8C183.336 234.58 184.247 234.4 185.224 234.4C186.201 234.4 187 234.22 187 234C187 233.78 187.731 233.6 188.624 233.6C189.604 233.6 190.149 233.442 190 233.2C189.853 232.962 190.329 232.8 191.176 232.8C191.959 232.8 192.6 232.62 192.6 232.4C192.6 232.18 193.32 232 194.2 232C195.08 232 195.8 231.82 195.8 231.6C195.8 231.38 196.61 231.2 197.6 231.2C198.59 231.2 199.402 231.065 199.405 230.9C199.414 230.389 199.417 154.233 199.408 153.651C199.401 153.186 199.297 153.186 198.723 153.651C198.263 154.024 198.143 154.04 198.347 153.7C198.705 153.103 198.599 153.084 197.8 153.6ZM122.4 172.375C120.672 173.068 118.74 173.58 117.5 173.673C116.785 173.726 116.2 173.912 116.2 174.085C116.2 174.258 115.675 174.4 115.033 174.4C114.392 174.4 113.807 174.563 113.733 174.763C113.66 174.963 112.97 175.184 112.2 175.254C111.43 175.325 110.706 175.511 110.591 175.668C110.476 175.825 109.531 175.998 108.491 176.052C107.451 176.105 106.6 176.275 106.6 176.429C106.6 176.696 105.591 176.963 102.696 177.463C101.979 177.587 101.294 177.849 101.173 178.044C101.052 178.24 100.153 178.4 99.176 178.4C98.199 178.4 97.4 178.58 97.4 178.8C97.4 179.02 96.86 179.2 96.2 179.2C95.51 179.2 94.997 179.412 94.994 179.7C94.99 180.033 94.858 180 94.6 179.6C94.342 179.2 94.21 179.167 94.206 179.5C94.202 179.804 93.65 180 92.8 180C92.03 180 91.4 180.18 91.4 180.4C91.4 180.62 90.995 180.802 90.5 180.805C89.077 180.814 82.393 182.268 81.444 182.777C80.971 183.03 80.42 183.136 80.219 183.012C80.019 182.888 79.742 182.97 79.604 183.193C79.466 183.417 78.769 183.6 78.056 183.6C77.343 183.6 76.572 183.788 76.341 184.019C76.111 184.249 75.31 184.491 74.561 184.557C73.813 184.622 72.93 184.79 72.6 184.929C71.297 185.479 67.109 186.522 65.5 186.696L63.8 186.881V217.299V247.718L67.3 247.487C69.225 247.359 71.43 246.996 72.2 246.679C72.97 246.363 73.809 246.18 74.063 246.273C74.318 246.366 74.644 246.253 74.787 246.021C74.93 245.79 75.667 245.6 76.424 245.6C77.181 245.6 77.8 245.458 77.8 245.285C77.8 245.112 78.295 244.928 78.9 244.875C80.675 244.723 81.359 244.574 81.655 244.278C81.808 244.125 82.443 244 83.067 244C83.69 244 84.2 243.82 84.2 243.6C84.2 243.38 84.819 243.2 85.576 243.2C86.333 243.2 87.064 243.02 87.2 242.8C87.336 242.58 88.146 242.4 89 242.4C89.854 242.4 90.664 242.22 90.8 242C90.936 241.78 91.566 241.6 92.2 241.6C92.834 241.6 93.464 241.42 93.6 241.2C93.736 240.98 94.467 240.8 95.224 240.8C95.981 240.8 96.6 240.62 96.6 240.4C96.6 240.18 97.284 240 98.12 240C98.956 240 99.811 239.829 100.021 239.619C100.23 239.41 101.076 239.193 101.901 239.137C102.725 239.082 103.4 238.893 103.4 238.718C103.4 238.543 103.925 238.4 104.567 238.4C105.208 238.4 105.793 238.229 105.867 238.02C105.94 237.811 106.777 237.595 107.726 237.54C108.675 237.485 109.54 237.296 109.649 237.12C109.758 236.944 110.456 236.8 111.2 236.8C111.944 236.8 112.664 236.62 112.8 236.4C112.936 236.18 113.667 236 114.424 236C115.181 236 115.8 235.82 115.8 235.6C115.8 235.38 116.325 235.2 116.967 235.2C117.608 235.2 118.193 235.03 118.267 234.821C118.34 234.613 119.255 234.4 120.3 234.347C121.345 234.294 122.2 234.104 122.2 233.925C122.2 233.746 122.74 233.6 123.4 233.6H124.6V203.2C124.6 182.071 124.471 172.8 124.176 172.8C123.943 172.8 123.864 172.62 124 172.4C124.29 171.931 123.536 171.92 122.4 172.375Z" fill="#2BACE4"/>
<path fill-rule="evenodd" clip-rule="evenodd" d="M0.443002 271.033C-0.0679976 272.365 0.926001 277.019 2.209 279.295C2.424 279.677 2.6 280.341 2.6 280.771C2.6 281.201 2.78 281.664 3 281.8C3.22 281.936 3.4 282.476 3.4 283C3.4 283.524 3.544 284.042 3.721 284.151C3.897 284.26 4.29 285.261 4.593 286.375C4.896 287.489 5.292 288.4 5.472 288.4C5.653 288.4 5.8 288.94 5.8 289.6C5.8 290.26 5.98 290.8 6.2 290.8C6.42 290.8 6.6 291.34 6.6 292C6.6 292.66 6.78 293.2 7 293.2C7.22 293.2 7.4 293.74 7.4 294.4C7.4 295.06 7.58 295.6 7.8 295.6C8.02 295.6 8.2 296.039 8.2 296.576C8.2 297.113 8.38 297.664 8.6 297.8C8.82 297.936 9 298.566 9 299.2C9 299.834 9.18 300.464 9.4 300.6C9.62 300.736 9.8 301.197 9.8 301.624C9.8 302.051 9.98 302.4 10.2 302.4C10.42 302.4 10.6 302.94 10.6 303.6C10.6 304.26 10.78 304.8 11 304.8C11.22 304.8 11.4 305.34 11.4 306C11.4 306.66 11.58 307.2 11.8 307.2C12.02 307.2 12.2 307.74 12.2 308.4V309.6H16.8H21.4V308.624C21.4 308.087 21.58 307.536 21.8 307.4C22.02 307.264 22.2 306.803 22.2 306.376C22.2 305.949 22.38 305.6 22.6 305.6C22.82 305.6 23 305.06 23 304.4C23 303.74 23.18 303.2 23.4 303.2C23.62 303.2 23.8 302.66 23.8 302C23.8 301.34 23.98 300.8 24.2 300.8C24.42 300.8 24.6 300.26 24.6 299.6C24.6 298.94 24.78 298.4 25 298.4C25.22 298.4 25.4 297.961 25.4 297.424C25.4 296.887 25.58 296.336 25.8 296.2C26.02 296.064 26.2 295.513 26.2 294.976C26.2 294.439 26.38 294 26.6 294C26.82 294 27 293.46 27 292.8C27 292.14 27.18 291.6 27.4 291.6C27.62 291.6 27.8 291.06 27.8 290.4C27.8 289.467 27.978 289.2 28.6 289.2C29.222 289.2 29.4 289.467 29.4 290.4C29.4 291.06 29.58 291.6 29.8 291.6C30.02 291.6 30.2 292.14 30.2 292.8C30.2 293.46 30.38 294 30.6 294C30.82 294 31 294.439 31 294.976C31 295.513 31.18 296.064 31.4 296.2C31.62 296.336 31.8 296.887 31.8 297.424C31.8 297.961 31.98 298.4 32.2 298.4C32.42 298.4 32.6 298.73 32.6 299.133C32.6 299.537 32.731 299.997 32.89 300.157C33.05 300.316 33.396 301.506 33.66 302.8C33.924 304.094 34.411 305.749 34.743 306.477C35.074 307.204 35.405 308.16 35.478 308.6C35.6 309.339 35.966 309.409 40.305 309.513L45 309.625V308.413C45 307.746 45.18 307.2 45.4 307.2C45.62 307.2 45.8 306.851 45.8 306.424C45.8 305.997 45.98 305.536 46.2 305.4C46.42 305.264 46.6 304.801 46.6 304.371C46.6 303.941 46.762 303.277 46.961 302.895C47.581 301.699 50.2 293.2 50.2 292.38C50.2 291.951 50.38 291.6 50.6 291.6C50.82 291.6 51 291.06 51 290.4C51 289.74 51.18 289.2 51.4 289.2C51.62 289.2 51.8 288.66 51.8 288C51.8 287.34 51.98 286.8 52.2 286.8C52.42 286.8 52.6 286.26 52.6 285.6C52.6 284.94 52.78 284.4 53 284.4C53.22 284.4 53.4 283.86 53.4 283.2C53.4 282.54 53.58 282 53.8 282C54.02 282 54.2 281.561 54.2 281.024C54.2 280.487 54.38 279.936 54.6 279.8C54.82 279.664 55 279.113 55 278.576C55 278.039 55.18 277.6 55.4 277.6C55.62 277.6 55.8 277.06 55.8 276.4C55.8 275.74 55.98 275.2 56.2 275.2C56.42 275.2 56.6 274.66 56.6 274C56.6 273.34 56.78 272.8 57 272.8C57.22 272.8 57.4 272.26 57.4 271.6V270.4H52.571C47.318 270.4 46.6 270.661 46.6 272.571C46.6 273.137 46.42 273.6 46.2 273.6C45.98 273.6 45.8 274.14 45.8 274.8C45.8 275.46 45.62 276 45.4 276C45.18 276 45 276.54 45 277.2C45 277.86 44.82 278.4 44.6 278.4C44.38 278.4 44.2 279.12 44.2 280C44.2 280.88 44.02 281.6 43.8 281.6C43.58 281.6 43.4 282.039 43.4 282.576C43.4 283.113 43.22 283.664 43 283.8C42.78 283.936 42.6 284.476 42.6 285C42.6 285.524 42.42 286.064 42.2 286.2C41.98 286.336 41.8 286.887 41.8 287.424C41.8 287.961 41.631 288.4 41.424 288.4C41.217 288.4 40.992 289.074 40.924 289.897C40.761 291.866 39.4 292.342 39.4 290.429C39.4 289.753 39.22 289.2 39 289.2C38.78 289.2 38.6 288.66 38.6 288C38.6 287.34 38.42 286.8 38.2 286.8C37.98 286.8 37.8 286.26 37.8 285.6C37.8 284.94 37.62 284.4 37.4 284.4C37.18 284.4 37 283.961 37 283.424C37 282.887 36.82 282.336 36.6 282.2C36.38 282.064 36.2 281.513 36.2 280.976C36.2 280.439 36.02 280 35.8 280C35.58 280 35.4 279.46 35.4 278.8C35.4 278.14 35.22 277.6 35 277.6C34.78 277.6 34.6 277.06 34.6 276.4C34.6 275.74 34.444 275.2 34.254 275.2C34.064 275.2 33.794 274.365 33.654 273.344C33.303 270.779 32.681 270.428 28.471 270.413C24.603 270.399 23.8 270.77 23.8 272.571C23.8 273.137 23.62 273.6 23.4 273.6C23.18 273.6 23 274.14 23 274.8C23 275.46 22.82 276 22.6 276C22.38 276 22.2 276.54 22.2 277.2C22.2 277.86 22.02 278.4 21.8 278.4C21.58 278.4 21.4 278.94 21.4 279.6C21.4 280.26 21.22 280.8 21 280.8C20.78 280.8 20.6 281.239 20.6 281.776C20.6 282.313 20.42 282.864 20.2 283C19.98 283.136 19.8 283.676 19.8 284.2C19.8 284.724 19.62 285.264 19.4 285.4C19.18 285.536 19 285.999 19 286.429C19 286.859 18.835 287.523 18.633 287.905C18.432 288.287 17.948 289.68 17.559 291L16.851 293.4L16.359 291C16.089 289.68 15.658 287.88 15.401 287C15.144 286.12 14.838 284.903 14.721 284.295C14.604 283.687 14.349 283.092 14.154 282.971C13.959 282.851 13.8 282.401 13.8 281.971C13.8 281.541 13.642 280.877 13.449 280.495C12.86 279.328 12.2 276.992 12.2 276.072C12.2 275.592 12.02 275.2 11.8 275.2C11.58 275.2 11.4 274.66 11.4 274C11.4 273.34 11.22 272.8 11 272.8C10.78 272.8 10.6 272.517 10.6 272.171C10.6 270.376 1.104 269.311 0.443002 271.033ZM66.7 270.998C66.425 271.311 66.2 272.024 66.2 272.583C66.2 273.142 66.02 273.6 65.8 273.6C65.58 273.6 65.4 273.96 65.4 274.4C65.4 274.84 65.22 275.2 65 275.2C64.78 275.2 64.6 275.56 64.6 276C64.6 276.44 64.42 276.8 64.2 276.8C63.98 276.8 63.8 277.34 63.8 278C63.8 278.66 63.62 279.2 63.4 279.2C63.18 279.2 63 279.56 63 280C63 280.44 62.82 280.8 62.6 280.8C62.38 280.8 62.2 281.25 62.2 281.8C62.2 282.35 62.02 282.8 61.8 282.8C61.58 282.8 61.4 283.16 61.4 283.6C61.4 284.04 61.22 284.4 61 284.4C60.78 284.4 60.6 284.76 60.6 285.2C60.6 285.64 60.42 286 60.2 286C59.98 286 59.8 286.439 59.8 286.976C59.8 287.513 59.62 288.064 59.4 288.2C59.18 288.336 59 288.797 59 289.224C59 289.651 58.82 290 58.6 290C58.38 290 58.2 290.36 58.2 290.8C58.2 291.24 58.02 291.6 57.8 291.6C57.58 291.6 57.4 292.14 57.4 292.8C57.4 293.46 57.22 294 57 294C56.78 294 56.6 294.36 56.6 294.8C56.6 295.24 56.42 295.6 56.2 295.6C55.98 295.6 55.8 295.872 55.8 296.205C55.8 296.538 55.641 297.123 55.446 297.505C53.848 300.64 52.6 303.391 52.6 303.781C52.6 304.039 52.229 305.017 51.776 305.955C50.206 309.204 50.456 309.4 56.163 309.4H61.126L61.763 307.6C62.113 306.61 62.535 305.74 62.7 305.667C62.865 305.593 63 305.276 63 304.962C63 304.648 63.38 303.583 63.844 302.596L64.688 300.8H71.644H78.6V302C78.6 302.66 78.78 303.2 79 303.2C79.22 303.2 79.4 303.56 79.4 304C79.4 304.44 79.58 304.8 79.8 304.8C80.02 304.8 80.2 305.239 80.2 305.776C80.2 306.313 80.38 306.864 80.6 307C80.82 307.136 81 307.519 81 307.852C81 309.306 82.003 309.6 86.971 309.6H91.8V308.4C91.8 307.74 91.62 307.2 91.4 307.2C91.18 307.2 91 306.84 91 306.4C91 305.96 90.82 305.6 90.6 305.6C90.38 305.6 90.2 305.06 90.2 304.4C90.2 303.74 90.02 303.2 89.8 303.2C89.58 303.2 89.4 302.84 89.4 302.4C89.4 301.96 89.22 301.6 89 301.6C88.78 301.6 88.6 301.24 88.6 300.8C88.6 300.36 88.42 300 88.2 300C87.98 300 87.8 299.55 87.8 299C87.8 298.45 87.62 298 87.4 298C87.18 298 87 297.64 87 297.2C87 296.76 86.82 296.4 86.6 296.4C86.38 296.4 86.2 296.04 86.2 295.6C86.2 295.16 86.02 294.8 85.8 294.8C85.58 294.8 85.4 294.26 85.4 293.6C85.4 292.94 85.22 292.4 85 292.4C84.78 292.4 84.6 292.04 84.6 291.6C84.6 291.16 84.42 290.8 84.2 290.8C83.98 290.8 83.8 290.355 83.8 289.811C83.8 288.962 82.593 285.837 81.366 283.505C81.165 283.123 81 282.538 81 282.205C81 281.872 80.82 281.6 80.6 281.6C80.38 281.6 80.2 281.24 80.2 280.8C80.2 280.36 80.02 280 79.8 280C79.58 280 79.4 279.46 79.4 278.8C79.4 278.14 79.22 277.6 79 277.6C78.78 277.6 78.6 277.24 78.6 276.8C78.6 276.36 78.42 276 78.2 276C77.98 276 77.8 275.64 77.8 275.2C77.8 274.76 77.62 274.4 77.4 274.4C77.18 274.4 77 273.86 77 273.2C77 272.54 76.82 272 76.6 272C76.38 272 76.2 271.64 76.2 271.2C76.2 270.165 67.594 269.982 66.7 270.998ZM84.867 270.667C84.361 271.173 84.603 272.73 85.457 274.462C85.928 275.418 86.45 276.56 86.617 277C86.784 277.44 87.298 278.653 87.76 279.696C88.222 280.738 88.6 281.853 88.6 282.172C88.6 282.491 88.78 282.864 89 283C89.22 283.136 89.4 283.687 89.4 284.224C89.4 284.761 89.58 285.2 89.8 285.2C90.02 285.2 90.2 285.56 90.2 286C90.2 286.44 90.38 286.8 90.6 286.8C90.82 286.8 91 287.34 91 288C91 288.66 91.18 289.2 91.4 289.2C91.62 289.2 91.8 289.56 91.8 290C91.8 290.44 91.98 290.8 92.2 290.8C92.42 290.8 92.6 291.34 92.6 292C92.6 292.66 92.78 293.2 93 293.2C93.22 293.2 93.4 293.56 93.4 294C93.4 294.44 93.58 294.8 93.8 294.8C94.02 294.8 94.2 295.25 94.2 295.8C94.2 296.35 94.38 296.8 94.6 296.8C94.82 296.8 95 297.16 95 297.6C95 298.04 95.18 298.4 95.4 298.4C95.62 298.4 95.8 298.94 95.8 299.6C95.8 300.26 95.98 300.8 96.2 300.8C96.42 300.8 96.6 301.16 96.6 301.6C96.6 302.04 96.78 302.4 97 302.4C97.22 302.4 97.4 302.94 97.4 303.6C97.4 304.26 97.58 304.8 97.8 304.8C98.02 304.8 98.2 305.16 98.2 305.6C98.2 306.04 98.38 306.4 98.6 306.4C98.82 306.4 99 306.863 99 307.429C99 309.253 99.788 309.6 103.939 309.6C108.408 309.6 109 309.431 109 308.157C109 307.631 109.18 307.2 109.4 307.2C109.62 307.2 109.8 306.761 109.8 306.224C109.8 305.687 109.98 305.136 110.2 305C110.42 304.864 110.6 304.403 110.6 303.976C110.6 303.549 110.78 303.2 111 303.2C111.22 303.2 111.4 302.851 111.4 302.424C111.4 301.997 111.58 301.536 111.8 301.4C112.02 301.264 112.2 300.713 112.2 300.176C112.2 299.639 112.38 299.2 112.6 299.2C112.82 299.2 113 298.928 113 298.595C113 298.262 113.165 297.677 113.367 297.295C114.085 295.938 115.4 292.803 115.4 292.45C115.4 292.253 115.669 291.576 115.998 290.946C116.326 290.316 116.596 289.305 116.598 288.7C116.599 288.095 116.78 287.6 117 287.6C117.22 287.6 117.4 287.24 117.4 286.8C117.4 286.36 117.58 286 117.8 286C118.02 286 118.2 285.46 118.2 284.8C118.2 284.14 118.38 283.6 118.6 283.6C118.82 283.6 119 283.257 119 282.838C119 282.179 119.486 281.011 121.05 277.905C121.243 277.523 121.4 276.938 121.4 276.605C121.4 276.272 121.58 276 121.8 276C122.02 276 122.2 275.64 122.2 275.2C122.2 274.76 122.38 274.4 122.6 274.4C122.82 274.4 123 273.5 123 272.4V270.4H118.171C112.931 270.4 112.2 270.663 112.2 272.548C112.2 273.101 112.02 273.664 111.8 273.8C111.58 273.936 111.4 274.487 111.4 275.024C111.4 275.561 111.22 276 111 276C110.78 276 110.6 276.54 110.6 277.2C110.6 277.86 110.42 278.4 110.2 278.4C109.98 278.4 109.8 278.76 109.8 279.2C109.8 279.64 109.62 280 109.4 280C109.18 280 109 280.439 109 280.976C109 281.513 108.82 282.064 108.6 282.2C108.38 282.336 108.2 282.887 108.2 283.424C108.2 283.961 108.02 284.4 107.8 284.4C107.58 284.4 107.4 284.749 107.4 285.176C107.4 285.603 107.22 286.064 107 286.2C106.78 286.336 106.6 286.876 106.6 287.4C106.6 287.924 106.42 288.464 106.2 288.6C105.98 288.736 105.8 289.287 105.8 289.824C105.8 290.361 105.62 290.8 105.4 290.8C105.18 290.8 105 291.321 105 291.957C105 292.594 104.748 293.211 104.439 293.33C103.736 293.599 103.4 293.277 103.4 292.333C103.4 291.93 103.22 291.6 103 291.6C102.78 291.6 102.6 291.06 102.6 290.4C102.6 289.74 102.42 289.2 102.2 289.2C101.98 289.2 101.8 288.84 101.8 288.4C101.8 287.96 101.62 287.6 101.4 287.6C101.18 287.6 101 287.06 101 286.4C101 285.74 100.82 285.2 100.6 285.2C100.38 285.2 100.2 284.788 100.2 284.285C100.2 283.327 98.924 279.391 98.465 278.932C98.319 278.786 98.2 278.247 98.2 277.733C98.2 277.22 98.02 276.8 97.8 276.8C97.58 276.8 97.4 276.44 97.4 276C97.4 275.56 97.22 275.2 97 275.2C96.78 275.2 96.6 274.66 96.6 274C96.6 273.34 96.42 272.8 96.2 272.8C95.98 272.8 95.8 272.517 95.8 272.171C95.8 270.696 94.813 270.4 89.895 270.4C87.276 270.4 85.013 270.52 84.867 270.667ZM125.4 290V309.6H140.2H155V304.8V300H145.2H135.4V297.4V294.8H143.6H151.8V290V285.2H143.6H135.4V282.6V280H144.567C156.009 280 155 280.441 155 275.437C155 269.919 156.458 270.4 139.72 270.4H125.4V290ZM159.5 270.998C158.657 271.956 158.785 309.032 159.633 309.357C159.981 309.491 162.231 309.6 164.633 309.6H169V302.5L168.999 295.4L177.024 295.53C187.454 295.7 187.071 295.903 186.914 290.282L186.8 286.2L177.9 286.092L169 285.985V283.192V280.4H178.72C190.229 280.4 189.4 280.788 189.4 275.4C189.4 272.791 189.23 271.19 188.92 270.88C188.157 270.117 160.177 270.229 159.5 270.998ZM192.245 270.946C191.919 271.339 191.821 276.783 191.896 290.446L192 309.4L196.9 309.512L201.8 309.625V303.612V297.6H204.018C206.29 297.6 208.2 298.739 208.2 300.094C208.2 300.385 208.56 300.883 209 301.2C209.44 301.517 209.8 302.057 209.8 302.4C209.8 302.743 210.16 303.283 210.6 303.6C211.04 303.917 211.4 304.457 211.4 304.8C211.4 305.143 211.76 305.683 212.2 306C212.64 306.317 213 306.762 213 306.988C213.003 308.966 214.739 309.6 220.147 309.6H225.4V308.4C225.4 307.74 225.22 307.2 225 307.2C224.78 307.2 224.6 306.964 224.6 306.675C224.6 306.387 224.24 305.764 223.8 305.292C223.36 304.82 223 304.196 223 303.905C223 303.614 222.64 303.117 222.2 302.8C221.76 302.483 221.4 301.993 221.4 301.712C221.4 301.43 221.22 301.2 221 301.2C220.78 301.2 220.6 300.93 220.6 300.6C220.6 300.27 220.42 300 220.2 300C219.98 300 219.8 299.77 219.8 299.488C219.8 299.207 219.44 298.717 219 298.4C218.56 298.083 218.2 297.503 218.2 297.112C218.2 296.72 218.02 296.4 217.8 296.4C217.086 296.4 217.377 295.661 218.193 295.402C219.157 295.096 222.2 292.233 222.2 291.631C222.2 291.394 222.38 291.2 222.6 291.2C222.82 291.2 223 290.93 223 290.6C223 290.27 223.18 290 223.4 290C223.62 290 223.8 289.28 223.8 288.4C223.8 287.52 223.98 286.8 224.2 286.8C224.431 286.8 224.6 285.533 224.6 283.8C224.6 282.067 224.431 280.8 224.2 280.8C223.98 280.8 223.8 280.26 223.8 279.6C223.8 278.94 223.62 278.4 223.4 278.4C223.18 278.4 223 278.12 223 277.778C223 276.81 218.277 272.395 216.959 272.132C216.321 272.004 215.8 271.743 215.8 271.55C215.8 271.358 214.911 271.2 213.824 271.2C212.737 271.2 211.736 271.02 211.6 270.8C211.188 270.133 192.805 270.272 192.245 270.946ZM241 270.8C241 271.02 240.46 271.2 239.8 271.2C239.14 271.2 238.6 271.38 238.6 271.6C238.6 271.82 238.24 272 237.8 272C237.36 272 237 272.18 237 272.4C237 272.62 236.64 272.8 236.2 272.8C235.76 272.8 235.4 272.98 235.4 273.2C235.4 273.42 235.217 273.6 234.993 273.6C234.451 273.6 229.4 278.666 229.4 279.209C229.4 279.443 229.04 280.02 228.6 280.492C228.16 280.964 227.8 281.767 227.8 282.275C227.8 282.784 227.62 283.2 227.4 283.2C227.18 283.2 227 283.74 227 284.4C227 285.06 226.82 285.6 226.6 285.6C226.358 285.6 226.2 287.333 226.2 290C226.2 292.667 226.358 294.4 226.6 294.4C226.82 294.4 227 294.814 227 295.32C227 296.374 227.853 298.392 228.3 298.397C228.465 298.399 228.6 298.76 228.6 299.2C228.6 299.64 228.78 300 229 300C229.22 300 229.4 300.32 229.4 300.712C229.4 301.103 229.76 301.683 230.2 302C230.64 302.317 231 302.82 231 303.117C231 303.775 231.973 304.8 232.597 304.8C232.847 304.8 233.506 305.34 234.061 306C234.617 306.66 235.325 307.2 235.636 307.2C235.946 307.2 236.2 307.38 236.2 307.6C236.2 307.82 236.56 308 237 308C237.44 308 237.8 308.18 237.8 308.4C237.8 308.62 238.34 308.8 239 308.8C239.66 308.8 240.2 308.98 240.2 309.2C240.2 309.45 242.592 309.6 246.576 309.6C250.396 309.6 253.052 309.44 253.2 309.2C253.336 308.98 253.797 308.8 254.224 308.8C254.651 308.8 255 308.62 255 308.4C255 308.18 255.36 308 255.8 308C256.24 308 256.6 307.82 256.6 307.6C256.6 307.38 256.92 307.2 257.312 307.2C257.703 307.2 258.283 306.84 258.6 306.4C258.917 305.96 259.413 305.6 259.702 305.6C260.384 305.6 263 302.984 263 302.302C263 302.013 263.36 301.517 263.8 301.2C264.24 300.883 264.6 300.303 264.6 299.912C264.6 299.52 264.78 299.2 265 299.2C265.22 299.2 265.4 298.876 265.4 298.48C265.4 298.084 265.625 297.535 265.9 297.261C267.329 295.834 266.457 280.8 264.945 280.8C264.755 280.8 264.6 280.546 264.6 280.237C264.6 279.459 257.996 272.8 257.225 272.8C256.881 272.8 256.6 272.62 256.6 272.4C256.6 272.18 256.24 272 255.8 272C255.36 272 255 271.82 255 271.6C255 271.38 254.471 271.2 253.824 271.2C253.177 271.2 252.536 271.02 252.4 270.8C252.254 270.564 249.863 270.4 246.576 270.4C243.125 270.4 241 270.552 241 270.8ZM270.067 270.667C269.92 270.813 269.8 279.633 269.8 290.267V309.6H274.757C280.792 309.6 280.2 310.778 280.2 298.767C280.2 292.656 280.344 289.2 280.6 289.2C280.82 289.2 281 289.443 281 289.741C281 290.038 281.54 290.846 282.2 291.537C282.86 292.228 283.4 292.942 283.4 293.124C283.4 293.307 284.03 294.192 284.8 295.092C285.57 295.991 286.2 296.851 286.2 297.003C286.2 297.155 286.74 297.783 287.4 298.4C288.06 299.017 288.6 299.737 288.6 300C288.6 300.263 289.14 300.983 289.8 301.6C290.46 302.217 291 302.919 291 303.16C291 303.402 291.72 304.341 292.6 305.248C293.48 306.155 294.2 307.063 294.2 307.266C294.2 308.837 296.155 309.6 300.182 309.6H304.2V289.988V270.375L299.3 270.488L294.4 270.6L294.293 280.7C294.227 286.977 294.037 290.8 293.793 290.8C293.577 290.8 293.4 290.512 293.4 290.16C293.4 289.809 292.86 289.017 292.2 288.4C291.54 287.783 291 287.081 291 286.84C291 286.598 290.28 285.659 289.4 284.752C288.52 283.845 287.8 282.899 287.8 282.648C287.8 282.397 287.44 281.968 287 281.693C286.56 281.418 286.2 280.997 286.2 280.757C286.2 280.517 285.66 279.817 285 279.2C284.34 278.583 283.8 277.829 283.8 277.523C283.8 277.217 283.17 276.299 282.4 275.482C281.63 274.666 281 273.813 281 273.586C281 273.359 280.376 272.549 279.613 271.787L278.227 270.4H274.28C272.109 270.4 270.213 270.52 270.067 270.667ZM306.688 275.3L306.8 280.2L312.095 280.312L317.39 280.423L317.495 294.912L317.6 309.4L322.143 309.514C325.15 309.589 326.874 309.471 327.243 309.165C328.021 308.519 328.076 280.978 327.3 280.665C327.025 280.554 329.275 280.449 332.3 280.432L337.8 280.4V275.4V270.4H322.188H306.575L306.688 275.3ZM249.973 280.356C250.094 280.551 250.657 280.828 251.224 280.97C252.454 281.279 255 283.718 255 284.587C255 284.924 255.18 285.2 255.4 285.2C255.62 285.2 255.8 285.74 255.8 286.4C255.8 287.06 255.98 287.6 256.2 287.6C256.422 287.6 256.6 288.659 256.6 289.976C256.6 291.283 256.42 292.464 256.2 292.6C255.98 292.736 255.8 293.287 255.8 293.824C255.8 294.361 255.62 294.8 255.4 294.8C255.18 294.8 255 295.091 255 295.447C255 296.216 251.94 299.2 251.151 299.2C250.848 299.2 250.6 299.38 250.6 299.6C250.6 299.835 249.225 300 247.275 300C242.94 300 238.6 298.113 238.6 296.229C238.6 295.883 238.42 295.6 238.2 295.6C237.98 295.6 237.8 295.24 237.8 294.8C237.8 294.36 237.62 294 237.4 294C237.16 294 237 292.4 237 290C237 287.6 237.16 286 237.4 286C237.62 286 237.8 285.64 237.8 285.2C237.8 284.76 237.98 284.4 238.2 284.4C238.42 284.4 238.6 284.106 238.6 283.747C238.6 282.881 240.492 281.287 241.882 280.982C242.492 280.848 243.094 280.572 243.219 280.369C243.512 279.896 249.681 279.883 249.973 280.356ZM211.994 280.883C213.284 281.228 213.8 281.571 213.8 282.083C213.8 282.477 213.98 282.8 214.2 282.8C214.42 282.8 214.6 283.34 214.6 284C214.6 284.66 214.42 285.2 214.2 285.2C213.98 285.2 213.8 285.483 213.8 285.829C213.8 286.637 212.837 287.6 212.029 287.6C211.683 287.6 211.4 287.78 211.4 288C211.4 288.244 209.533 288.4 206.6 288.4H201.8V284.4V280.4H205.994C208.301 280.4 211.001 280.617 211.994 280.883ZM71.7 285.483C71.975 286.075 72.2 286.794 72.2 287.08C72.2 287.366 72.38 287.6 72.6 287.6C72.82 287.6 73 288.039 73 288.576C73 289.113 73.18 289.664 73.4 289.8C73.62 289.936 73.8 290.397 73.8 290.824C73.8 291.251 73.98 291.6 74.2 291.6C74.42 291.6 74.6 291.78 74.6 292C74.6 292.233 73.267 292.4 71.4 292.4C68.467 292.4 68.2 292.333 68.2 291.6C68.2 291.16 68.38 290.8 68.6 290.8C68.82 290.8 69 290.26 69 289.6C69 288.94 69.18 288.4 69.4 288.4C69.62 288.4 69.8 288.04 69.8 287.6C69.8 287.16 69.98 286.8 70.2 286.8C70.42 286.8 70.6 286.26 70.6 285.6C70.6 284.113 71.042 284.066 71.7 285.483Z" fill="#2C2C2C"/>
<path fill-rule="evenodd" clip-rule="evenodd" d="M199.594 87.4C199.594 114.68 199.642 125.781 199.7 112.069C199.758 98.357 199.758 76.037 199.7 62.469C199.642 48.901 199.594 60.12 199.594 87.4ZM199.592 192.4C199.592 212.31 199.64 220.455 199.7 210.5C199.759 200.545 199.759 184.255 199.7 174.3C199.64 164.345 199.592 172.49 199.592 192.4Z" fill="#28B0B4"/>
<path fill-rule="evenodd" clip-rule="evenodd" d="M199.594 87.4C199.594 114.68 199.642 125.781 199.7 112.069C199.758 98.357 199.758 76.037 199.7 62.469C199.642 48.901 199.594 60.12 199.594 87.4ZM199.592 192.4C199.592 212.31 199.64 220.455 199.7 210.5C199.759 200.545 199.759 184.255 199.7 174.3C199.64 164.345 199.592 172.49 199.592 192.4Z" fill="#28B0B4"/>
<path fill-rule="evenodd" clip-rule="evenodd" d="M199.594 87.4C199.594 114.68 199.642 125.781 199.7 112.069C199.758 98.357 199.758 76.037 199.7 62.469C199.642 48.901 199.594 60.12 199.594 87.4ZM199.592 192.4C199.592 212.31 199.64 220.455 199.7 210.5C199.759 200.545 199.759 184.255 199.7 174.3C199.64 164.345 199.592 172.49 199.592 192.4Z" fill="#28B0B4"/>
</svg>
