<svg width="250" height="52" viewBox="0 0 250 52" fill="none" xmlns="http://www.w3.org/2000/svg">
<path d="M83.0336 26.2519C84.3736 34.5019 77.2136 39.1419 69.9536 39.6819C65.3336 49.1819 49.0436 55.5919 34.9536 48.6819C28.9536 49.5919 25.6036 48.0819 23.0536 45.2019C28.1936 38.5619 43.8236 26.6119 62.9136 32.7919C73.1136 36.0819 75.7636 28.3419 73.1936 25.4419C63.5736 14.5219 41.8536 24.3519 41.0836 25.1719C49.6136 12.1119 80.1236 8.45194 83.0336 26.2519ZM53.7936 11.2519C53.8436 11.2519 46.8536 8.76194 37.0936 12.9819C36.6972 12.839 36.3098 12.672 35.9336 12.4819C45.3336 6.24194 53.5636 3.59194 60.6136 4.62194C56.3436 -0.278063 35.8536 -3.88806 24.1136 7.88194C9.60362 5.02194 -0.556381 17.3219 0.023619 28.5519C0.603619 39.7819 12.8636 46.7919 19.8436 44.8819C20.0097 44.8619 20.1776 44.8619 20.3436 44.8819C21.9036 37.4619 28.2036 20.1919 53.7936 11.2619V11.2519ZM112.244 21.5119L113.504 15.7919H91.6836L91.1936 18.0119C91.0696 18.4102 91.0451 18.8329 91.1224 19.2428C91.1997 19.6527 91.3764 20.0374 91.637 20.3632C91.8976 20.6889 92.2342 20.9458 92.6171 21.1112C93.0001 21.2766 93.4178 21.3455 93.8336 21.3119H103.964L86.0136 37.1619L84.8036 42.4819H107.954L109.284 36.6619H94.6436L112.244 21.5119ZM126.824 26.1219C125.824 25.8619 120.054 25.0019 120.414 23.0119C120.814 20.7919 123.534 20.5719 124.864 20.6119C127.594 20.6919 128.454 21.8919 128.594 22.3219C128.756 22.8506 129.095 23.3077 129.553 23.617C130.012 23.9263 130.563 24.0692 131.114 24.0219H135.424C135.904 21.3519 136.024 15.2019 126.014 15.2019C122.804 15.2019 118.514 16.0019 115.684 19.2719C114.164 21.0219 111.554 25.3719 114.224 28.6319C115.624 30.2819 119.224 31.5719 123.224 32.3419C125.754 32.8419 127.094 33.8519 126.814 35.0519C126.644 35.8519 125.634 37.6619 121.914 37.6619C120.244 37.6619 116.644 37.3919 117.324 33.6619H110.504C109.704 37.0619 109.404 42.9819 119.804 42.9819C123.804 42.9819 131.964 42.4719 134.094 33.9819C135.594 27.7919 128.684 26.6119 126.824 26.1319V26.1219ZM150.914 35.5519C149.726 36.6427 148.155 37.2181 146.544 37.1519C141.394 37.2019 141.974 32.1519 142.674 29.0319C143.374 25.9119 145.034 21.0319 149.924 21.0319C153.394 21.0319 153.794 23.2819 153.974 23.9419H160.974C160.734 16.5319 155.054 15.1219 151.044 15.2219C140.044 15.4919 136.864 24.6819 135.874 28.9519C133.004 41.4319 140.984 42.9519 144.804 42.9519C147.734 43.0254 150.622 42.2386 153.11 40.6889C155.598 39.1391 157.577 36.8944 158.804 34.2319H153.804C153.253 34.2254 152.709 34.3414 152.209 34.5714C151.709 34.8015 151.267 35.1398 150.914 35.5619V35.5519ZM179.564 38.1119C177.537 40.4976 174.725 42.0796 171.634 42.5719C165.534 43.5719 157.154 43.3219 159.264 34.5719C159.944 31.7719 160.984 29.9319 163.094 28.5719C166.614 26.2619 171.284 25.9319 172.804 25.7619C173.324 25.7119 177.154 25.4219 177.804 23.1519C178.454 20.8819 174.924 20.7619 173.944 20.7519C170.944 20.7519 169.944 21.9219 169.394 22.6519H162.684C165.394 15.5119 172.884 15.2419 174.904 15.2419C177.164 15.2419 186.254 15.2419 184.514 22.7619C181.884 34.2119 181.794 35.3619 179.564 38.1219V38.1119ZM176.564 29.0319C175.199 29.5807 173.79 30.0156 172.354 30.3319C170.954 30.7519 168.354 30.9219 167.034 32.1419C165.934 33.1419 164.034 37.4619 168.604 37.5519C170.385 37.5949 172.121 36.9886 173.488 35.846C174.855 34.7034 175.76 33.1025 176.034 31.3419C176.254 30.3019 176.564 29.0419 176.564 29.0419V29.0319ZM193.824 8.03194H190.224L182.344 42.5219H189.344L196.504 11.3019C196.634 10.8995 196.662 10.4708 196.585 10.0548C196.508 9.6388 196.328 9.24868 196.062 8.91985C195.795 8.59102 195.451 8.33391 195.06 8.17187C194.67 8.00982 194.244 7.94797 193.824 7.99194V8.03194ZM212.014 34.3019H217.014C215.764 36.9463 213.779 39.1748 211.296 40.7211C208.814 42.2675 205.938 43.0662 203.014 43.0219C192.344 43.0219 193.014 33.5019 194.094 29.0219C197.094 16.4719 205.514 15.2919 209.254 15.2919C214.254 15.2919 222.064 17.3519 218.094 31.0319H200.744C200.314 32.8419 199.954 37.2919 204.744 37.2419C206.051 37.3282 207.349 36.9763 208.434 36.2419C209.074 35.7919 209.674 34.3019 212.014 34.2619V34.3019ZM201.764 26.4819H211.994C212.864 21.5819 209.834 21.0619 208.114 21.0619C206.644 21.0219 203.154 21.5519 201.764 26.4419V26.4819ZM227.044 18.7619C222.354 21.9619 220.794 27.1119 220.254 29.5919C219.824 31.5319 217.304 42.5219 217.304 42.5219H224.304C224.304 42.5219 226.984 30.3819 227.504 28.7919C228.054 26.8619 229.864 21.6319 236.864 21.8419L238.484 15.8419C234.461 15.5568 230.452 16.5659 227.044 18.7219V18.7619ZM239.294 10.6419L239.504 9.79194H243.284L243.104 10.6319H241.754L240.974 14.3219H239.974L240.744 10.6319L239.294 10.6419ZM245.504 9.79194L245.844 13.0719L247.614 9.79194H249.004L248.004 14.3219H247.074L247.894 10.7219L245.984 14.3219H245.224L244.784 10.7219L244.114 14.3219H243.174L244.124 9.79194H245.504Z" fill="#236BF5"/>
</svg>
