<?xml version="1.0" encoding="UTF-8" standalone="no"?>
<svg
   width="668"
   height="497"
   viewBox="0 0 668 497"
   fill="none"
   version="1.1"
   id="svg236"
   sodipodi:docname="learn-progression.svg"
   inkscape:version="1.1.1 (c3084ef, 2021-09-22)"
   xmlns:inkscape="http://www.inkscape.org/namespaces/inkscape"
   xmlns:sodipodi="http://sodipodi.sourceforge.net/DTD/sodipodi-0.dtd"
   xmlns="http://www.w3.org/2000/svg"
   xmlns:svg="http://www.w3.org/2000/svg">
  <sodipodi:namedview
     id="namedview238"
     pagecolor="#ffffff"
     bordercolor="#999999"
     borderopacity="1"
     inkscape:pageshadow="0"
     inkscape:pageopacity="0"
     inkscape:pagecheckerboard="0"
     showgrid="false"
     inkscape:zoom="1.2575453"
     inkscape:cx="334.3816"
     inkscape:cy="248.5"
     inkscape:window-width="1920"
     inkscape:window-height="1027"
     inkscape:window-x="0"
     inkscape:window-y="25"
     inkscape:window-maximized="1"
     inkscape:current-layer="g193" />
  <g
     filter="url(#filter0_d)"
     id="g193"
     style="display:inline">
    <rect
       x="36"
       y="30"
       width="596"
       height="425"
       rx="6"
       fill="#ffffff"
       id="rect121"
       style="display:inline" />
    <path
       d="M 328,91 V 393"
       stroke="#000000"
       id="path123"
       style="display:inline" />
    <circle
       cx="328"
       cy="91"
       r="5"
       fill="#000000"
       id="circle125"
       style="display:inline" />
    <circle
       cx="328"
       cy="210"
       r="5"
       fill="#000000"
       id="circle127"
       style="display:none" />
    <circle
       cx="328"
       cy="328"
       r="5"
       fill="#000000"
       id="circle129"
       style="display:inline" />
    <circle
       cx="328"
       cy="393"
       r="5"
       fill="#000000"
       id="circle131"
       style="display:none" />
    <g
       id="g38501">
      <rect
         x="345"
         y="66"
         width="251"
         height="51"
         rx="6"
         fill="#fef9ea"
         id="rect133"
         style="display:inline" />
      <path
         fill-rule="evenodd"
         clip-rule="evenodd"
         d="m 363.732,91.4192 c 0.625,-0.3613 0.626,-1.531 0.002,-2.6127 -0.625,-1.0817 -1.638,-1.6656 -2.264,-1.3043 -0.626,0.3613 -0.627,1.5311 -0.002,2.6127 0.624,1.0817 1.638,1.6657 2.264,1.3043 z m 0.003,2.3162 c 0.625,1.0817 0.624,2.2514 -0.002,2.6127 -0.626,0.3613 -1.639,-0.2226 -2.264,-1.3043 -0.624,-1.0816 -0.623,-2.2514 0.002,-2.6127 0.626,-0.3613 1.64,0.2226 2.264,1.3043 z M 368,96.201 c 0.624,1.0816 0.623,2.2514 -0.002,2.6127 -0.626,0.3613 -1.64,-0.2226 -2.264,-1.3043 -0.625,-1.0816 -0.624,-2.2514 0.002,-2.6127 0.626,-0.3613 1.639,0.2226 2.264,1.3043 z m -10e-4,-4.9288 c 0.624,1.0817 0.623,2.2514 -0.003,2.6128 -0.626,0.3613 -1.639,-0.2227 -2.264,-1.3043 -0.624,-1.0817 -0.623,-2.2515 0.003,-2.6128 0.625,-0.3613 1.639,0.2227 2.264,1.3043 z"
         fill="#f26e7e"
         id="path135"
         style="display:inline" />
      <path
         fill-rule="evenodd"
         clip-rule="evenodd"
         d="m 376.53,90.1176 c 0.624,-1.0816 0.623,-2.2514 -0.002,-2.6127 -0.626,-0.3613 -1.64,0.2226 -2.264,1.3043 -0.625,1.0816 -0.624,2.2514 0.002,2.6127 0.626,0.3613 1.639,-0.2226 2.264,-1.3043 z m 0,2.3149 c 0.626,0.3613 0.627,1.5311 0.002,2.6127 -0.624,1.0817 -1.638,1.6657 -2.264,1.3043 -0.625,-0.3613 -0.626,-1.531 -0.002,-2.6127 0.625,-1.0817 1.638,-1.6656 2.264,-1.3043 z m -4.264,2.4616 c 0.626,0.3613 0.627,1.5311 0.003,2.6127 -0.625,1.0817 -1.639,1.6657 -2.264,1.3043 -0.626,-0.3613 -0.627,-1.531 -0.003,-2.6127 0.625,-1.0816 1.638,-1.6656 2.264,-1.3043 z m -0.002,-4.9277 c 0.626,0.3613 0.627,1.5311 0.002,2.6127 -0.624,1.0817 -1.638,1.6656 -2.264,1.3043 -0.626,-0.3613 -0.627,-1.531 -0.002,-2.6127 0.624,-1.0817 1.638,-1.6656 2.264,-1.3043 z"
         fill="#8a3391"
         id="path137"
         style="display:inline" />
      <path
         fill-rule="evenodd"
         clip-rule="evenodd"
         d="m 371.26,83.3084 c 0,0.7227 -1.013,1.3085 -2.262,1.3085 -1.249,0 -2.262,-0.5858 -2.262,-1.3085 0,-0.7226 1.013,-1.3084 2.262,-1.3084 1.249,0 2.262,0.5858 2.262,1.3084 z m -4.264,2.4591 c 0,0.7226 -1.013,1.3084 -2.262,1.3084 -1.249,0 -2.261,-0.5858 -2.261,-1.3084 0,-0.7227 1.012,-1.3085 2.261,-1.3085 1.249,0 2.262,0.5858 2.262,1.3085 z m 6.271,1.3084 c 1.249,0 2.262,-0.5858 2.262,-1.3084 0,-0.7227 -1.013,-1.3085 -2.262,-1.3085 -1.249,0 -2.261,0.5858 -2.261,1.3085 0,0.7226 1.012,1.3084 2.261,1.3084 z m -2.007,1.156 c 0,0.7227 -1.013,1.3085 -2.262,1.3085 -1.249,0 -2.262,-0.5858 -2.262,-1.3085 0,-0.7226 1.013,-1.3084 2.262,-1.3084 1.249,0 2.262,0.5858 2.262,1.3084 z"
         fill="#f7bf2a"
         id="path139"
         style="display:inline" />
    </g>
    <path
       d="M 390.2,84.8 V 96 h 1.488 v -4 h 2.576 c 1.04,0 1.888,-0.352 2.576,-1.04 0.688,-0.688 1.04,-1.552 1.04,-2.56 0,-1.024 -0.352,-1.872 -1.04,-2.56 -0.688,-0.688 -1.536,-1.04 -2.576,-1.04 z m 1.488,5.808 v -4.416 h 2.576 c 1.232,0 2.144,0.928 2.144,2.208 0,0.624 -0.208,1.152 -0.608,1.584 -0.4,0.416 -0.912,0.624 -1.536,0.624 z m 13.326,1.632 c 0,1.792 -0.928,2.64 -2.32,2.64 -1.232,0 -1.984,-0.752 -1.984,-2.048 V 88 h -1.392 v 4.912 c 0,2.032 1.231,3.296 3.104,3.296 1.168,0 2.032,-0.448 2.592,-1.36 V 96 h 1.392 v -8 h -1.392 z M 409.917,96 V 84.32 h -1.392 V 96 Z m 7.643,-3.76 c 0,1.792 -0.928,2.64 -2.32,2.64 -1.232,0 -1.984,-0.752 -1.984,-2.048 V 88 h -1.392 v 4.912 c 0,2.032 1.232,3.296 3.104,3.296 1.168,0 2.032,-0.448 2.592,-1.36 V 96 h 1.392 v -8 h -1.392 z m 12.152,-4.448 c -1.12,0 -1.952,0.448 -2.512,1.36 -0.496,-0.912 -1.28,-1.36 -2.352,-1.36 -1.04,0 -1.84,0.432 -2.384,1.28 V 88 h -1.392 v 8 h 1.392 v -4.448 c 0,-1.616 0.88,-2.432 2.048,-2.432 1.04,0 1.696,0.72 1.696,1.952 V 96 h 1.392 v -4.448 c 0,-1.648 0.768,-2.432 1.968,-2.432 1.072,0 1.76,0.72 1.76,1.952 V 96 h 1.392 v -4.976 c 0,-1.984 -1.216,-3.232 -3.008,-3.232 z m 5.642,-1.248 c 0.512,0 0.928,-0.416 0.928,-0.928 0,-0.512 -0.416,-0.944 -0.928,-0.944 -0.528,0 -0.944,0.432 -0.944,0.944 0,0.512 0.416,0.928 0.944,0.928 z M 436.042,96 v -8 h -1.392 v 8 z m 9.883,0.208 c 1.552,0 2.912,-0.816 3.6,-2.08 l -1.184,-0.688 c -0.448,0.848 -1.344,1.392 -2.416,1.392 -0.8,0 -1.472,-0.272 -2.016,-0.816 -0.528,-0.544 -0.8,-1.216 -0.8,-2.016 0,-0.816 0.272,-1.488 0.8,-2.032 0.544,-0.544 1.216,-0.816 2.016,-0.816 1.072,0 1.968,0.56 2.368,1.408 l 1.168,-0.672 c -0.624,-1.28 -1.952,-2.096 -3.536,-2.096 -1.2,0 -2.208,0.4 -3.008,1.216 -0.8,0.8 -1.2,1.792 -1.2,2.992 0,1.2 0.4,2.192 1.2,3.008 0.8,0.8 1.808,1.2 3.008,1.2 z m 11.617,-1.216 c 0.816,-0.816 1.232,-1.808 1.232,-2.992 0,-1.184 -0.416,-2.176 -1.232,-2.992 -0.816,-0.816 -1.824,-1.216 -2.992,-1.216 -1.168,0 -2.176,0.4 -2.992,1.216 -0.816,0.816 -1.216,1.808 -1.216,2.992 0,1.184 0.4,2.176 1.216,2.992 0.816,0.816 1.824,1.216 2.992,1.216 1.168,0 2.176,-0.4 2.992,-1.216 z m -2.992,-0.144 c -0.784,0 -1.456,-0.272 -2,-0.816 -0.544,-0.544 -0.816,-1.216 -0.816,-2.032 0,-0.816 0.272,-1.488 0.816,-2.032 0.544,-0.544 1.216,-0.816 2,-0.816 0.8,0 1.472,0.272 2.016,0.816 0.544,0.544 0.816,1.216 0.816,2.032 0,0.816 -0.272,1.488 -0.816,2.032 -0.544,0.544 -1.216,0.816 -2.016,0.816 z M 461.807,88 h -1.392 v 8 h 1.392 v -4.24 c 0,-0.88 0.24,-1.504 0.736,-1.904 0.496,-0.4 1.072,-0.576 1.76,-0.544 v -1.456 c -1.2,0 -2.032,0.496 -2.496,1.488 z m 11.101,4.64 c 0.032,-0.208 0.048,-0.416 0.048,-0.624 0,-1.168 -0.368,-2.16 -1.12,-2.976 -0.736,-0.832 -1.696,-1.248 -2.864,-1.248 -1.232,0 -2.24,0.4 -3.024,1.2 -0.784,0.8 -1.168,1.808 -1.168,3.008 0,1.216 0.4,2.224 1.184,3.024 0.8,0.784 1.84,1.184 3.104,1.184 1.568,0 2.736,-0.608 3.52,-1.808 l -1.184,-0.672 c -0.48,0.784 -1.248,1.168 -2.304,1.168 -1.52,0 -2.624,-0.832 -2.896,-2.256 z m -3.936,-3.536 c 1.28,0 2.336,0.8 2.576,2.32 h -5.344 c 0.24,-1.408 1.28,-2.32 2.768,-2.32 z m 13.696,-4.512 c -2.256,-0.144 -3.504,1.008 -3.504,3.168 V 88 h -1.28 v 1.344 h 1.28 V 96 h 1.392 v -6.656 h 2.112 V 88 h -2.112 v -0.24 c 0,-1.328 0.704,-1.936 2.112,-1.824 z m 6.58,7.648 c 0,1.792 -0.928,2.64 -2.32,2.64 -1.232,0 -1.984,-0.752 -1.984,-2.048 V 88 h -1.392 v 4.912 c 0,2.032 1.232,3.296 3.104,3.296 1.168,0 2.032,-0.448 2.592,-1.36 V 96 h 1.392 v -8 h -1.392 z m 7.495,-4.448 c -1.168,0 -2.032,0.448 -2.592,1.36 V 88 h -1.392 v 8 h 1.392 v -4.24 c 0,-1.792 0.928,-2.64 2.32,-2.64 1.232,0 1.984,0.752 1.984,2.048 V 96 h 1.392 v -4.912 c 0,-2.032 -1.232,-3.296 -3.104,-3.296 z m 11.671,1.584 c -0.688,-1.056 -1.696,-1.584 -3.024,-1.584 -1.12,0 -2.08,0.416 -2.864,1.232 -0.784,0.816 -1.184,1.808 -1.184,2.976 0,1.168 0.4,2.176 1.184,2.992 0.784,0.816 1.744,1.216 2.864,1.216 1.328,0 2.336,-0.528 3.024,-1.584 V 96 h 1.392 V 84.8 h -1.392 z m -2.848,5.488 c -0.8,0 -1.472,-0.272 -2.016,-0.816 -0.544,-0.56 -0.816,-1.232 -0.816,-2.048 0,-0.816 0.272,-1.488 0.816,-2.032 0.544,-0.56 1.216,-0.832 2.016,-0.832 0.816,0 1.488,0.272 2.032,0.832 0.544,0.544 0.816,1.216 0.816,2.032 0,0.816 -0.272,1.488 -0.816,2.048 -0.544,0.544 -1.216,0.816 -2.032,0.816 z m 12.973,-5.488 c -0.688,-1.056 -1.696,-1.584 -3.024,-1.584 -1.12,0 -2.08,0.416 -2.864,1.232 -0.784,0.816 -1.184,1.808 -1.184,2.976 0,1.168 0.4,2.176 1.184,2.992 0.784,0.816 1.744,1.216 2.864,1.216 1.328,0 2.336,-0.528 3.024,-1.584 V 96 h 1.392 v -8 h -1.392 z m -2.848,5.488 c -0.8,0 -1.472,-0.272 -2.016,-0.816 -0.544,-0.56 -0.816,-1.232 -0.816,-2.048 0,-0.816 0.272,-1.488 0.816,-2.032 0.544,-0.56 1.216,-0.832 2.016,-0.832 0.816,0 1.488,0.272 2.032,0.832 0.544,0.544 0.816,1.216 0.816,2.032 0,0.816 -0.272,1.488 -0.816,2.048 -0.544,0.544 -1.216,0.816 -2.032,0.816 z m 14.989,-7.072 c -1.12,0 -1.952,0.448 -2.512,1.36 -0.496,-0.912 -1.28,-1.36 -2.352,-1.36 -1.04,0 -1.84,0.432 -2.384,1.28 V 88 h -1.392 v 8 h 1.392 v -4.448 c 0,-1.616 0.88,-2.432 2.048,-2.432 1.04,0 1.696,0.72 1.696,1.952 V 96 h 1.392 v -4.448 c 0,-1.648 0.768,-2.432 1.968,-2.432 1.072,0 1.76,0.72 1.76,1.952 V 96 h 1.392 v -4.976 c 0,-1.984 -1.216,-3.232 -3.008,-3.232 z m 12.619,4.848 c 0.032,-0.208 0.048,-0.416 0.048,-0.624 0,-1.168 -0.368,-2.16 -1.12,-2.976 -0.736,-0.832 -1.696,-1.248 -2.864,-1.248 -1.232,0 -2.24,0.4 -3.024,1.2 -0.784,0.8 -1.168,1.808 -1.168,3.008 0,1.216 0.4,2.224 1.184,3.024 0.8,0.784 1.84,1.184 3.104,1.184 1.568,0 2.736,-0.608 3.52,-1.808 l -1.184,-0.672 c -0.48,0.784 -1.248,1.168 -2.304,1.168 -1.52,0 -2.624,-0.832 -2.896,-2.256 z m -3.936,-3.536 c 1.28,0 2.336,0.8 2.576,2.32 h -5.344 c 0.24,-1.408 1.28,-2.32 2.768,-2.32 z m 9.568,-1.312 c -1.168,0 -2.032,0.448 -2.592,1.36 V 88 h -1.392 v 8 h 1.392 v -4.24 c 0,-1.792 0.928,-2.64 2.32,-2.64 1.232,0 1.984,0.752 1.984,2.048 V 96 h 1.392 v -4.912 c 0,-2.032 -1.232,-3.296 -3.104,-3.296 z M 558.33,88 h -2.128 v -2.24 l -1.392,0.416 V 88 h -1.584 v 1.344 h 1.584 v 4.336 c 0,1.984 1.088,2.64 3.52,2.32 v -1.248 c -1.424,0.064 -2.128,0.16 -2.128,-1.072 v -4.336 h 2.128 z m 7.866,1.376 c -0.688,-1.056 -1.696,-1.584 -3.024,-1.584 -1.12,0 -2.08,0.416 -2.864,1.232 -0.784,0.816 -1.184,1.808 -1.184,2.976 0,1.168 0.4,2.176 1.184,2.992 0.784,0.816 1.744,1.216 2.864,1.216 1.328,0 2.336,-0.528 3.024,-1.584 V 96 h 1.392 v -8 h -1.392 z m -2.848,5.488 c -0.8,0 -1.472,-0.272 -2.016,-0.816 -0.544,-0.56 -0.816,-1.232 -0.816,-2.048 0,-0.816 0.272,-1.488 0.816,-2.032 0.544,-0.56 1.216,-0.832 2.016,-0.832 0.816,0 1.488,0.272 2.032,0.832 0.544,0.544 0.816,1.216 0.816,2.032 0,0.816 -0.272,1.488 -0.816,2.048 -0.544,0.544 -1.216,0.816 -2.032,0.816 z M 571.089,96 V 84.32 h -1.392 V 96 Z m 3.308,-5.84 c 0,-0.688 0.64,-1.072 1.424,-1.072 0.848,0 1.424,0.336 1.712,1.024 l 1.168,-0.656 c -0.512,-1.04 -1.584,-1.664 -2.88,-1.664 -0.816,0 -1.488,0.224 -2.032,0.672 -0.528,0.448 -0.8,1.024 -0.8,1.712 0,1.696 1.632,2.112 2.896,2.448 0.88,0.208 1.584,0.56 1.584,1.184 0,0.752 -0.672,1.088 -1.584,1.088 -0.976,0 -1.728,-0.48 -1.984,-1.248 l -1.2,0.688 c 0.464,1.136 1.632,1.872 3.184,1.872 0.88,0 1.584,-0.224 2.144,-0.656 0.56,-0.432 0.848,-1.024 0.848,-1.744 0.016,-1.712 -1.648,-2.176 -2.896,-2.448 -0.88,-0.24 -1.584,-0.576 -1.584,-1.2 z"
       fill="#000000"
       id="path141"
       style="display:none" />
    <rect
       x="72"
       y="368"
       width="239"
       height="51"
       rx="6"
       fill="#f3ebf4"
       id="rect143"
       style="display:none" />
    <path
       d="m 100.495,387.39 2.122,2.122 -2.122,2.123 -2.1225,-2.123 z m -5.745,0.36 v 3 h -3 v -3 z m 7.5,7.5 v 3 h -3 v -3 z m -7.5,0 v 3 h -3 v -3 z m 5.745,-9.983 -4.245,4.238 4.245,4.245 4.245,-4.245 z m -4.245,0.983 h -6 v 6 h 6 z m 7.5,7.5 h -6 v 6 h 6 z m -7.5,0 h -6 v 6 h 6 z"
       fill="#8a3391"
       id="path145"
       style="display:none" />
    <path
       d="m 128.109,386.8 -3.552,5.92 -3.568,-5.92 h -1.68 V 398 h 1.488 v -8.736 l 3.664,6.08 h 0.192 l 3.664,-6.096 V 398 h 1.472 v -11.2 z m 10.555,4.576 c -0.688,-1.056 -1.696,-1.584 -3.024,-1.584 -1.12,0 -2.08,0.416 -2.864,1.232 -0.784,0.816 -1.184,1.808 -1.184,2.976 0,1.168 0.4,2.176 1.184,2.992 0.784,0.816 1.744,1.216 2.864,1.216 1.328,0 2.336,-0.528 3.024,-1.584 V 398 h 1.392 v -8 h -1.392 z m -2.848,5.488 c -0.8,0 -1.472,-0.272 -2.016,-0.816 -0.544,-0.56 -0.816,-1.232 -0.816,-2.048 0,-0.816 0.272,-1.488 0.816,-2.032 0.544,-0.56 1.216,-0.832 2.016,-0.832 0.816,0 1.488,0.272 2.032,0.832 0.544,0.544 0.816,1.216 0.816,2.032 0,0.816 -0.272,1.488 -0.816,2.048 -0.544,0.544 -1.216,0.816 -2.032,0.816 z m 10.333,-7.072 c -1.168,0 -2.032,0.448 -2.592,1.36 V 390 h -1.392 v 8 h 1.392 v -4.24 c 0,-1.792 0.928,-2.64 2.32,-2.64 1.232,0 1.984,0.752 1.984,2.048 V 398 h 1.392 v -4.912 c 0,-2.032 -1.232,-3.296 -3.104,-3.296 z m 11.672,1.584 c -0.688,-1.056 -1.696,-1.584 -3.024,-1.584 -1.12,0 -2.08,0.416 -2.864,1.232 -0.784,0.816 -1.184,1.808 -1.184,2.976 0,1.168 0.4,2.176 1.184,2.992 0.784,0.816 1.744,1.216 2.864,1.216 1.328,0 2.336,-0.528 3.024,-1.584 V 398 h 1.392 v -8 h -1.392 z m -2.848,5.488 c -0.8,0 -1.472,-0.272 -2.016,-0.816 -0.544,-0.56 -0.816,-1.232 -0.816,-2.048 0,-0.816 0.272,-1.488 0.816,-2.032 0.544,-0.56 1.216,-0.832 2.016,-0.832 0.816,0 1.488,0.272 2.032,0.832 0.544,0.544 0.816,1.216 0.816,2.032 0,0.816 -0.272,1.488 -0.816,2.048 -0.544,0.544 -1.216,0.816 -2.032,0.816 z m 12.989,-5.488 c -0.688,-1.056 -1.696,-1.584 -3.008,-1.584 -1.136,0 -2.112,0.4 -2.896,1.216 -0.784,0.8 -1.184,1.776 -1.184,2.944 0,1.168 0.4,2.144 1.184,2.96 0.784,0.816 1.76,1.216 2.896,1.216 1.296,0 2.304,-0.528 3.008,-1.6 v 1.136 c 0,1.52 -1.008,2.448 -2.672,2.448 -1.296,0 -2.176,-0.448 -2.608,-1.344 l -1.216,0.688 c 0.656,1.264 2,1.952 3.792,1.952 1.12,0 2.08,-0.336 2.88,-0.992 0.8,-0.656 1.2,-1.568 1.2,-2.752 V 390 h -1.376 z m 0,2.576 c 0,0.816 -0.272,1.488 -0.816,2.032 -0.544,0.544 -1.216,0.816 -2.032,0.816 -0.816,0 -1.488,-0.272 -2.032,-0.816 -0.544,-0.544 -0.816,-1.216 -0.816,-2.032 0,-0.8 0.272,-1.472 0.816,-2.016 0.544,-0.544 1.216,-0.816 2.032,-0.816 0.816,0 1.488,0.272 2.032,0.816 0.544,0.544 0.816,1.216 0.816,2.016 z m 4.189,-5.408 c 0.512,0 0.928,-0.416 0.928,-0.928 0,-0.512 -0.416,-0.944 -0.928,-0.944 -0.528,0 -0.944,0.432 -0.944,0.944 0,0.512 0.416,0.928 0.944,0.928 z m 0.688,9.456 v -8 h -1.392 v 8 z m 6.107,-8.208 c -1.168,0 -2.032,0.448 -2.592,1.36 V 390 h -1.392 v 8 h 1.392 v -4.24 c 0,-1.792 0.928,-2.64 2.32,-2.64 1.232,0 1.984,0.752 1.984,2.048 V 398 h 1.392 v -4.912 c 0,-2.032 -1.232,-3.296 -3.104,-3.296 z m 11.688,1.584 c -0.688,-1.056 -1.696,-1.584 -3.008,-1.584 -1.136,0 -2.112,0.4 -2.896,1.216 -0.784,0.8 -1.184,1.776 -1.184,2.944 0,1.168 0.4,2.144 1.184,2.96 0.784,0.816 1.76,1.216 2.896,1.216 1.296,0 2.304,-0.528 3.008,-1.6 v 1.136 c 0,1.52 -1.008,2.448 -2.672,2.448 -1.296,0 -2.176,-0.448 -2.608,-1.344 l -1.216,0.688 c 0.656,1.264 2,1.952 3.792,1.952 1.12,0 2.08,-0.336 2.88,-0.992 0.8,-0.656 1.2,-1.568 1.2,-2.752 V 390 h -1.376 z m 0,2.576 c 0,0.816 -0.272,1.488 -0.816,2.032 -0.544,0.544 -1.216,0.816 -2.032,0.816 -0.816,0 -1.488,-0.272 -2.032,-0.816 -0.544,-0.544 -0.816,-1.216 -0.816,-2.032 0,-0.8 0.272,-1.472 0.816,-2.016 0.544,-0.544 1.216,-0.816 2.032,-0.816 0.816,0 1.488,0.272 2.032,0.816 0.544,0.544 0.816,1.216 0.816,2.016 z m 8.189,-5.408 c 0.512,0 0.928,-0.416 0.928,-0.928 0,-0.512 -0.416,-0.944 -0.928,-0.944 -0.528,0 -0.944,0.432 -0.944,0.944 0,0.512 0.416,0.928 0.944,0.928 z m 0.688,9.456 v -8 h -1.393 v 8 z m 6.107,-8.208 c -1.168,0 -2.032,0.448 -2.592,1.36 V 390 h -1.392 v 8 h 1.392 v -4.24 c 0,-1.792 0.928,-2.64 2.32,-2.64 1.232,0 1.984,0.752 1.984,2.048 V 398 h 1.392 v -4.912 c 0,-2.032 -1.232,-3.296 -3.104,-3.296 z m 9.159,-3.2 c -2.256,-0.144 -3.504,1.008 -3.504,3.168 V 390 h -1.28 v 1.344 h 1.28 V 398 h 1.392 v -6.656 h 2.112 V 390 h -2.112 v -0.24 c 0,-1.328 0.704,-1.936 2.112,-1.824 z m 2.452,3.408 h -1.392 v 8 h 1.392 v -4.24 c 0,-0.88 0.24,-1.504 0.736,-1.904 0.496,-0.4 1.072,-0.576 1.76,-0.544 v -1.456 c -1.2,0 -2.032,0.496 -2.496,1.488 z m 10.045,1.376 c -0.688,-1.056 -1.696,-1.584 -3.024,-1.584 -1.12,0 -2.08,0.416 -2.864,1.232 -0.784,0.816 -1.184,1.808 -1.184,2.976 0,1.168 0.4,2.176 1.184,2.992 0.784,0.816 1.744,1.216 2.864,1.216 1.328,0 2.336,-0.528 3.024,-1.584 V 398 h 1.392 v -8 h -1.392 z m -2.848,5.488 c -0.8,0 -1.472,-0.272 -2.016,-0.816 -0.544,-0.56 -0.816,-1.232 -0.816,-2.048 0,-0.816 0.272,-1.488 0.816,-2.032 0.544,-0.56 1.216,-0.832 2.016,-0.832 0.816,0 1.488,0.272 2.032,0.832 0.544,0.544 0.816,1.216 0.816,2.032 0,0.816 -0.272,1.488 -0.816,2.048 -0.544,0.544 -1.216,0.816 -2.032,0.816 z m 7.533,-4.704 c 0,-0.688 0.64,-1.072 1.424,-1.072 0.848,0 1.424,0.336 1.712,1.024 l 1.168,-0.656 c -0.512,-1.04 -1.584,-1.664 -2.88,-1.664 -0.816,0 -1.488,0.224 -2.032,0.672 -0.528,0.448 -0.8,1.024 -0.8,1.712 0,1.696 1.632,2.112 2.896,2.448 0.88,0.208 1.584,0.56 1.584,1.184 0,0.752 -0.672,1.088 -1.584,1.088 -0.976,0 -1.728,-0.48 -1.984,-1.248 l -1.2,0.688 c 0.464,1.136 1.632,1.872 3.184,1.872 0.88,0 1.584,-0.224 2.144,-0.656 0.56,-0.432 0.848,-1.024 0.848,-1.744 0.016,-1.712 -1.648,-2.176 -2.896,-2.448 -0.88,-0.24 -1.584,-0.576 -1.584,-1.2 z M 242.127,390 h -2.128 v -2.24 l -1.392,0.416 V 390 h -1.584 v 1.344 h 1.584 v 4.336 c 0,1.984 1.088,2.64 3.52,2.32 v -1.248 c -1.424,0.064 -2.128,0.16 -2.128,-1.072 v -4.336 h 2.128 z m 3.087,0 h -1.392 v 8 h 1.392 v -4.24 c 0,-0.88 0.24,-1.504 0.736,-1.904 0.496,-0.4 1.072,-0.576 1.76,-0.544 v -1.456 c -1.2,0 -2.032,0.496 -2.496,1.488 z m 9.378,4.24 c 0,1.792 -0.928,2.64 -2.32,2.64 -1.232,0 -1.984,-0.752 -1.984,-2.048 V 390 h -1.392 v 4.912 c 0,2.032 1.232,3.296 3.104,3.296 1.168,0 2.032,-0.448 2.592,-1.36 V 398 h 1.392 v -8 h -1.392 z m 7.271,3.968 c 1.552,0 2.912,-0.816 3.6,-2.08 l -1.184,-0.688 c -0.448,0.848 -1.344,1.392 -2.416,1.392 -0.8,0 -1.472,-0.272 -2.016,-0.816 -0.528,-0.544 -0.8,-1.216 -0.8,-2.016 0,-0.816 0.272,-1.488 0.8,-2.032 0.544,-0.544 1.216,-0.816 2.016,-0.816 1.072,0 1.968,0.56 2.368,1.408 l 1.168,-0.672 c -0.624,-1.28 -1.952,-2.096 -3.536,-2.096 -1.2,0 -2.208,0.4 -3.008,1.216 -0.8,0.8 -1.2,1.792 -1.2,2.992 0,1.2 0.4,2.192 1.2,3.008 0.8,0.8 1.808,1.2 3.008,1.2 z M 271.189,390 h -2.128 v -2.24 l -1.392,0.416 V 390 h -1.584 v 1.344 h 1.584 v 4.336 c 0,1.984 1.088,2.64 3.52,2.32 v -1.248 c -1.424,0.064 -2.128,0.16 -2.128,-1.072 v -4.336 h 2.128 z m 7.215,4.24 c 0,1.792 -0.928,2.64 -2.32,2.64 -1.232,0 -1.984,-0.752 -1.984,-2.048 V 390 h -1.392 v 4.912 c 0,2.032 1.232,3.296 3.104,3.296 1.168,0 2.032,-0.448 2.592,-1.36 V 398 h 1.392 v -8 h -1.392 z m 4.903,-4.24 h -1.392 v 8 h 1.392 v -4.24 c 0,-0.88 0.24,-1.504 0.736,-1.904 0.496,-0.4 1.072,-0.576 1.76,-0.544 v -1.456 c -1.2,0 -2.032,0.496 -2.496,1.488 z m 11.101,4.64 c 0.032,-0.208 0.048,-0.416 0.048,-0.624 0,-1.168 -0.368,-2.16 -1.12,-2.976 -0.736,-0.832 -1.696,-1.248 -2.864,-1.248 -1.232,0 -2.24,0.4 -3.024,1.2 -0.784,0.8 -1.168,1.808 -1.168,3.008 0,1.216 0.4,2.224 1.184,3.024 0.8,0.784 1.84,1.184 3.104,1.184 1.568,0 2.736,-0.608 3.52,-1.808 l -1.184,-0.672 c -0.48,0.784 -1.248,1.168 -2.304,1.168 -1.52,0 -2.624,-0.832 -2.896,-2.256 z m -3.936,-3.536 c 1.28,0 2.336,0.8 2.576,2.32 h -5.344 c 0.24,-1.408 1.28,-2.32 2.768,-2.32 z"
       fill="#000000"
       id="path147"
       style="display:none" />
    <g
       id="g38495">
      <rect
         x="345"
         y="303"
         width="231"
         height="51"
         rx="6"
         fill="#f8edf3"
         id="rect149"
         style="display:inline" />
      <path
         d="m 369.992,332.905 -5.527,-4.298 -1.215,0.945 6.75,5.25 6.75,-5.25 -1.222,-0.952 z M 370,331 l 5.52,-4.298 1.23,-0.952 -6.75,-5.25 -6.75,5.25 1.223,0.952 z m 0,-8.603 4.305,3.353 -4.305,3.352 -4.305,-3.352 z"
         fill="#f26e7e"
         id="path151"
         style="display:inline" />
    </g>
    <path
       d="m 392.056,329.24 c 0,1.2 0.384,2.176 1.168,2.896 0.784,0.72 1.808,1.072 3.04,1.072 1.232,0 2.24,-0.352 3.024,-1.072 0.784,-0.72 1.168,-1.696 1.168,-2.896 v -7.44 h -1.472 v 7.376 c 0,1.584 -0.976,2.576 -2.72,2.576 -1.744,0 -2.72,-0.992 -2.72,-2.576 V 321.8 h -1.488 z m 11.653,-2.08 c 0,-0.688 0.64,-1.072 1.424,-1.072 0.848,0 1.424,0.336 1.712,1.024 l 1.168,-0.656 c -0.512,-1.04 -1.584,-1.664 -2.88,-1.664 -0.816,0 -1.488,0.224 -2.032,0.672 -0.528,0.448 -0.8,1.024 -0.8,1.712 0,1.696 1.632,2.112 2.896,2.448 0.88,0.208 1.584,0.56 1.584,1.184 0,0.752 -0.672,1.088 -1.584,1.088 -0.976,0 -1.728,-0.48 -1.984,-1.248 l -1.2,0.688 c 0.464,1.136 1.632,1.872 3.184,1.872 0.88,0 1.584,-0.224 2.144,-0.656 0.56,-0.432 0.848,-1.024 0.848,-1.744 0.016,-1.712 -1.648,-2.176 -2.896,-2.448 -0.88,-0.24 -1.584,-0.576 -1.584,-1.2 z m 6.754,-3.616 c 0.512,0 0.928,-0.416 0.928,-0.928 0,-0.512 -0.416,-0.944 -0.928,-0.944 -0.528,0 -0.944,0.432 -0.944,0.944 0,0.512 0.416,0.928 0.944,0.928 z m 0.688,9.456 v -8 h -1.392 v 8 z m 6.108,-8.208 c -1.168,0 -2.032,0.448 -2.592,1.36 V 325 h -1.392 v 8 h 1.392 v -4.24 c 0,-1.792 0.928,-2.64 2.32,-2.64 1.232,0 1.984,0.752 1.984,2.048 V 333 h 1.392 v -4.912 c 0,-2.032 -1.232,-3.296 -3.104,-3.296 z m 11.687,1.584 c -0.688,-1.056 -1.696,-1.584 -3.008,-1.584 -1.136,0 -2.112,0.4 -2.896,1.216 -0.784,0.8 -1.184,1.776 -1.184,2.944 0,1.168 0.4,2.144 1.184,2.96 0.784,0.816 1.76,1.216 2.896,1.216 1.296,0 2.304,-0.528 3.008,-1.6 v 1.136 c 0,1.52 -1.008,2.448 -2.672,2.448 -1.296,0 -2.176,-0.448 -2.608,-1.344 l -1.216,0.688 c 0.656,1.264 2,1.952 3.792,1.952 1.12,0 2.08,-0.336 2.88,-0.992 0.8,-0.656 1.2,-1.568 1.2,-2.752 V 325 h -1.376 z m 0,2.576 c 0,0.816 -0.272,1.488 -0.816,2.032 -0.544,0.544 -1.216,0.816 -2.032,0.816 -0.816,0 -1.488,-0.272 -2.032,-0.816 -0.544,-0.544 -0.816,-1.216 -0.816,-2.032 0,-0.8 0.272,-1.472 0.816,-2.016 0.544,-0.544 1.216,-0.816 2.032,-0.816 0.816,0 1.488,0.272 2.032,0.816 0.544,0.544 0.816,1.216 0.816,2.016 z m 11.901,-4.16 c -1.328,0 -2.336,0.528 -3.024,1.584 V 325 h -1.392 v 11.2 h 1.392 v -4.576 c 0.688,1.056 1.696,1.584 3.024,1.584 1.12,0 2.08,-0.4 2.864,-1.216 0.784,-0.816 1.184,-1.824 1.184,-2.992 0,-1.168 -0.4,-2.16 -1.184,-2.976 -0.784,-0.816 -1.744,-1.232 -2.864,-1.232 z m -0.176,7.072 c -0.816,0 -1.488,-0.272 -2.032,-0.816 -0.544,-0.56 -0.816,-1.232 -0.816,-2.048 0,-0.816 0.272,-1.488 0.816,-2.032 0.544,-0.56 1.216,-0.832 2.032,-0.832 0.8,0 1.472,0.272 2.016,0.832 0.544,0.544 0.816,1.216 0.816,2.032 0,0.816 -0.272,1.488 -0.816,2.048 -0.544,0.544 -1.216,0.816 -2.016,0.816 z M 447.948,325 h -1.392 v 8 h 1.392 v -4.24 c 0,-0.88 0.24,-1.504 0.736,-1.904 0.496,-0.4 1.072,-0.576 1.76,-0.544 v -1.456 c -1.2,0 -2.032,0.496 -2.496,1.488 z m 10.173,6.992 c 0.816,-0.816 1.231,-1.808 1.231,-2.992 0,-1.184 -0.415,-2.176 -1.231,-2.992 -0.816,-0.816 -1.824,-1.216 -2.992,-1.216 -1.168,0 -2.176,0.4 -2.992,1.216 -0.816,0.816 -1.216,1.808 -1.216,2.992 0,1.184 0.4,2.176 1.216,2.992 0.816,0.816 1.824,1.216 2.992,1.216 1.168,0 2.176,-0.4 2.992,-1.216 z m -2.992,-0.144 c -0.784,0 -1.456,-0.272 -2,-0.816 -0.544,-0.544 -0.817,-1.216 -0.817,-2.032 0,-0.816 0.273,-1.488 0.817,-2.032 0.544,-0.544 1.216,-0.816 2,-0.816 0.8,0 1.472,0.272 2.016,0.816 0.544,0.544 0.816,1.216 0.816,2.032 0,0.816 -0.272,1.488 -0.816,2.032 -0.544,0.544 -1.216,0.816 -2.016,0.816 z m 6.686,-8.304 c 0.512,0 0.928,-0.416 0.928,-0.928 0,-0.512 -0.416,-0.944 -0.928,-0.944 -0.528,0 -0.944,0.432 -0.944,0.944 0,0.512 0.416,0.928 0.944,0.928 z m -0.704,9.936 c 0,1.232 -0.528,1.696 -1.696,1.584 v 1.344 c 2.032,0.144 3.088,-0.864 3.088,-2.928 V 325 h -1.392 z m 11.188,-3.84 c 0.032,-0.208 0.048,-0.416 0.048,-0.624 0,-1.168 -0.368,-2.16 -1.12,-2.976 -0.736,-0.832 -1.696,-1.248 -2.864,-1.248 -1.232,0 -2.24,0.4 -3.024,1.2 -0.784,0.8 -1.168,1.808 -1.168,3.008 0,1.216 0.4,2.224 1.184,3.024 0.8,0.784 1.84,1.184 3.104,1.184 1.568,0 2.736,-0.608 3.52,-1.808 l -1.184,-0.672 c -0.48,0.784 -1.248,1.168 -2.304,1.168 -1.52,0 -2.624,-0.832 -2.896,-2.256 z m -3.936,-3.536 c 1.28,0 2.336,0.8 2.576,2.32 h -5.344 c 0.24,-1.408 1.28,-2.32 2.768,-2.32 z m 9.328,7.104 c 1.552,0 2.912,-0.816 3.6,-2.08 l -1.184,-0.688 c -0.448,0.848 -1.344,1.392 -2.416,1.392 -0.8,0 -1.472,-0.272 -2.016,-0.816 -0.528,-0.544 -0.8,-1.216 -0.8,-2.016 0,-0.816 0.272,-1.488 0.8,-2.032 0.544,-0.544 1.216,-0.816 2.016,-0.816 1.072,0 1.968,0.56 2.368,1.408 l 1.168,-0.672 c -0.624,-1.28 -1.952,-2.096 -3.536,-2.096 -1.2,0 -2.208,0.4 -3.008,1.216 -0.8,0.8 -1.2,1.792 -1.2,2.992 0,1.2 0.4,2.192 1.2,3.008 0.8,0.8 1.808,1.2 3.008,1.2 z M 487.017,325 h -2.128 v -2.24 l -1.392,0.416 V 325 h -1.584 v 1.344 h 1.584 v 4.336 c 0,1.984 1.088,2.64 3.52,2.32 v -1.248 c -1.424,0.064 -2.128,0.16 -2.128,-1.072 v -4.336 h 2.128 z m 2.458,2.16 c 0,-0.688 0.64,-1.072 1.424,-1.072 0.848,0 1.424,0.336 1.712,1.024 l 1.168,-0.656 c -0.512,-1.04 -1.584,-1.664 -2.88,-1.664 -0.816,0 -1.488,0.224 -2.032,0.672 -0.528,0.448 -0.8,1.024 -0.8,1.712 0,1.696 1.632,2.112 2.896,2.448 0.88,0.208 1.584,0.56 1.584,1.184 0,0.752 -0.672,1.088 -1.584,1.088 -0.976,0 -1.728,-0.48 -1.984,-1.248 l -1.2,0.688 c 0.464,1.136 1.632,1.872 3.184,1.872 0.88,0 1.584,-0.224 2.144,-0.656 0.56,-0.432 0.848,-1.024 0.848,-1.744 0.016,-1.712 -1.648,-2.176 -2.896,-2.448 -0.88,-0.24 -1.584,-0.576 -1.584,-1.2 z m 17.808,3.792 c 0.432,-0.704 0.72,-1.504 0.864,-2.384 l -1.28,-0.736 c -0.112,0.8 -0.304,1.472 -0.576,2.032 l -3.056,-3.264 c -0.656,-0.704 -0.992,-1.2 -0.992,-1.904 0,-0.976 0.816,-1.664 1.84,-1.664 0.96,0 1.744,0.592 2.064,1.568 l 1.248,-0.72 c -0.528,-1.424 -1.856,-2.288 -3.344,-2.288 -0.912,0 -1.68,0.288 -2.336,0.864 -0.64,0.576 -0.96,1.328 -0.96,2.256 0,0.752 0.24,1.424 0.72,2.032 -1.344,0.656 -2.048,1.872 -2.048,3.232 0,0.992 0.352,1.776 1.04,2.368 0.688,0.576 1.6,0.864 2.72,0.864 1.296,0 2.368,-0.384 3.2,-1.168 l 1.136,1.216 1.248,-0.72 z m -4.064,0.848 c -1.456,0 -2.304,-0.72 -2.304,-1.92 0,-0.848 0.464,-1.68 1.488,-2.112 l 3.024,3.248 c -0.592,0.528 -1.328,0.784 -2.208,0.784 z m 12.178,-4.64 c 0,-0.688 0.64,-1.072 1.424,-1.072 0.848,0 1.424,0.336 1.712,1.024 l 1.168,-0.656 c -0.512,-1.04 -1.584,-1.664 -2.88,-1.664 -0.816,0 -1.488,0.224 -2.032,0.672 -0.528,0.448 -0.8,1.024 -0.8,1.712 0,1.696 1.632,2.112 2.896,2.448 0.88,0.208 1.584,0.56 1.584,1.184 0,0.752 -0.672,1.088 -1.584,1.088 -0.976,0 -1.728,-0.48 -1.984,-1.248 l -1.2,0.688 c 0.464,1.136 1.632,1.872 3.184,1.872 0.88,0 1.584,-0.224 2.144,-0.656 0.56,-0.432 0.848,-1.024 0.848,-1.744 0.016,-1.712 -1.648,-2.176 -2.896,-2.448 -0.88,-0.24 -1.584,-0.576 -1.584,-1.2 z M 525.564,325 h -2.128 v -2.24 l -1.392,0.416 V 325 h -1.584 v 1.344 h 1.584 v 4.336 c 0,1.984 1.088,2.64 3.52,2.32 v -1.248 c -1.424,0.064 -2.128,0.16 -2.128,-1.072 v -4.336 h 2.128 z m 7.866,1.376 c -0.688,-1.056 -1.696,-1.584 -3.024,-1.584 -1.12,0 -2.08,0.416 -2.864,1.232 -0.784,0.816 -1.184,1.808 -1.184,2.976 0,1.168 0.4,2.176 1.184,2.992 0.784,0.816 1.744,1.216 2.864,1.216 1.328,0 2.336,-0.528 3.024,-1.584 V 333 h 1.392 v -8 h -1.392 z m -2.848,5.488 c -0.8,0 -1.472,-0.272 -2.016,-0.816 -0.544,-0.56 -0.816,-1.232 -0.816,-2.048 0,-0.816 0.272,-1.488 0.816,-2.032 0.544,-0.56 1.216,-0.832 2.016,-0.832 0.816,0 1.488,0.272 2.032,0.832 0.544,0.544 0.816,1.216 0.816,2.032 0,0.816 -0.272,1.488 -0.816,2.048 -0.544,0.544 -1.216,0.816 -2.032,0.816 z m 10.109,1.344 c 1.552,0 2.912,-0.816 3.6,-2.08 l -1.184,-0.688 c -0.448,0.848 -1.344,1.392 -2.416,1.392 -0.8,0 -1.472,-0.272 -2.016,-0.816 -0.528,-0.544 -0.8,-1.216 -0.8,-2.016 0,-0.816 0.272,-1.488 0.8,-2.032 0.544,-0.544 1.216,-0.816 2.016,-0.816 1.072,0 1.968,0.56 2.368,1.408 l 1.168,-0.672 c -0.624,-1.28 -1.952,-2.096 -3.536,-2.096 -1.2,0 -2.208,0.4 -3.008,1.216 -0.8,0.8 -1.2,1.792 -1.2,2.992 0,1.2 0.4,2.192 1.2,3.008 0.8,0.8 1.808,1.2 3.008,1.2 z m 7.79,-4.336 3.824,-3.872 h -1.792 l -3.456,3.536 V 321.8 h -1.392 V 333 h 1.392 v -3.792 l 3.648,3.792 h 1.728 z m 5.838,-1.712 c 0,-0.688 0.64,-1.072 1.424,-1.072 0.848,0 1.424,0.336 1.712,1.024 l 1.168,-0.656 c -0.512,-1.04 -1.584,-1.664 -2.88,-1.664 -0.816,0 -1.488,0.224 -2.032,0.672 -0.528,0.448 -0.8,1.024 -0.8,1.712 0,1.696 1.632,2.112 2.896,2.448 0.88,0.208 1.584,0.56 1.584,1.184 0,0.752 -0.672,1.088 -1.584,1.088 -0.976,0 -1.728,-0.48 -1.984,-1.248 l -1.2,0.688 c 0.464,1.136 1.632,1.872 3.184,1.872 0.88,0 1.584,-0.224 2.144,-0.656 0.56,-0.432 0.848,-1.024 0.848,-1.744 0.016,-1.712 -1.648,-2.176 -2.896,-2.448 -0.88,-0.24 -1.584,-0.576 -1.584,-1.2 z"
       fill="#000000"
       id="path153"
       style="display:none"
       inkscape:label="path153" />
    <rect
       x="79"
       y="129"
       width="232"
       height="162"
       rx="6"
       fill="#fef1f2"
       id="rect155"
       style="display:none" />
    <path
       d="m 100.073,153.039 c 0,0.22 0.024,0.398 0.065,0.529 0.048,0.13 0.108,0.273 0.192,0.427 0.03,0.048 0.042,0.095 0.042,0.137 0,0.059 -0.036,0.119 -0.114,0.178 l -0.377,0.249 c -0.0539,0.036 -0.1077,0.054 -0.1556,0.054 -0.0599,0 -0.1198,-0.03 -0.1796,-0.083 -0.0839,-0.089 -0.1557,-0.184 -0.2156,-0.279 -0.0598,-0.101 -0.1197,-0.214 -0.1855,-0.351 -0.467,0.547 -1.0537,0.82 -1.7601,0.82 -0.5029,0 -0.904,-0.143 -1.1973,-0.428 -0.2934,-0.285 -0.443,-0.665 -0.443,-1.14 0,-0.505 0.1796,-0.915 0.5447,-1.224 0.3652,-0.308 0.8501,-0.463 1.4668,-0.463 0.2035,0 0.413,0.018 0.6345,0.048 0.2215,0.029 0.449,0.077 0.6885,0.13 v -0.433 c 0,-0.451 -0.0958,-0.766 -0.2814,-0.95 -0.1915,-0.184 -0.5148,-0.273 -0.9758,-0.273 -0.2095,0 -0.425,0.023 -0.6465,0.077 -0.2215,0.053 -0.4371,0.118 -0.6466,0.202 -0.0958,0.041 -0.1676,0.065 -0.2095,0.077 -0.0419,0.012 -0.0719,0.018 -0.0958,0.018 -0.0838,0 -0.1257,-0.06 -0.1257,-0.184 v -0.291 c 0,-0.095 0.0119,-0.167 0.0419,-0.208 0.0299,-0.042 0.0838,-0.083 0.1676,-0.125 0.2095,-0.107 0.461,-0.196 0.7543,-0.267 0.2934,-0.077 0.6047,-0.113 0.9339,-0.113 0.7124,0 1.2333,0.16 1.5685,0.481 0.3293,0.321 0.4973,0.808 0.4973,1.461 v 1.924 z m -2.431,0.903 c 0.1976,0 0.4011,-0.036 0.6166,-0.107 0.2156,-0.071 0.4071,-0.202 0.5688,-0.38 0.0958,-0.113 0.1676,-0.238 0.2035,-0.38 0.0359,-0.143 0.0599,-0.315 0.0599,-0.517 v -0.249 c -0.1736,-0.042 -0.3592,-0.078 -0.5508,-0.101 -0.1916,-0.024 -0.3771,-0.036 -0.5627,-0.036 -0.4011,0 -0.6945,0.077 -0.892,0.238 -0.1976,0.16 -0.2934,0.386 -0.2934,0.682 0,0.28 0.0719,0.487 0.2215,0.63 0.1437,0.148 0.3532,0.22 0.6286,0.22 z m 4.807,0.641 c -0.107,0 -0.179,-0.018 -0.227,-0.059 -0.048,-0.036 -0.09,-0.119 -0.126,-0.232 l -1.407,-4.591 c -0.036,-0.118 -0.054,-0.196 -0.054,-0.237 0,-0.095 0.048,-0.149 0.144,-0.149 h 0.587 c 0.113,0 0.191,0.018 0.233,0.06 0.048,0.035 0.084,0.119 0.12,0.231 l 1.006,3.932 0.934,-3.932 c 0.029,-0.118 0.065,-0.196 0.113,-0.231 0.048,-0.036 0.132,-0.06 0.24,-0.06 h 0.479 c 0.113,0 0.191,0.018 0.239,0.06 0.048,0.035 0.09,0.119 0.114,0.231 l 0.946,3.979 1.035,-3.979 c 0.036,-0.118 0.078,-0.196 0.12,-0.231 0.048,-0.036 0.126,-0.06 0.234,-0.06 h 0.556 c 0.096,0 0.15,0.048 0.15,0.149 0,0.03 -0.006,0.059 -0.012,0.095 -0.006,0.036 -0.018,0.083 -0.042,0.148 l -1.443,4.591 c -0.035,0.119 -0.077,0.196 -0.125,0.232 -0.048,0.035 -0.126,0.059 -0.228,0.059 h -0.515 c -0.113,0 -0.191,-0.018 -0.239,-0.059 -0.048,-0.042 -0.09,-0.119 -0.114,-0.238 l -0.928,-3.83 -0.922,3.824 c -0.03,0.119 -0.066,0.196 -0.113,0.238 -0.048,0.041 -0.132,0.059 -0.24,0.059 z m 7.693,0.16 c -0.311,0 -0.623,-0.035 -0.922,-0.106 -0.299,-0.072 -0.533,-0.149 -0.688,-0.238 -0.096,-0.053 -0.162,-0.113 -0.186,-0.166 -0.024,-0.054 -0.036,-0.113 -0.036,-0.167 v -0.302 c 0,-0.125 0.048,-0.185 0.138,-0.185 0.036,0 0.072,0.006 0.108,0.018 0.036,0.012 0.089,0.036 0.149,0.06 0.204,0.089 0.425,0.16 0.659,0.208 0.239,0.047 0.473,0.071 0.712,0.071 0.377,0 0.671,-0.066 0.874,-0.196 0.204,-0.131 0.312,-0.321 0.312,-0.564 0,-0.167 -0.054,-0.303 -0.162,-0.416 -0.108,-0.113 -0.311,-0.214 -0.605,-0.309 l -0.868,-0.267 c -0.437,-0.137 -0.76,-0.339 -0.958,-0.606 -0.197,-0.261 -0.299,-0.552 -0.299,-0.861 0,-0.249 0.054,-0.469 0.162,-0.659 0.107,-0.19 0.251,-0.357 0.431,-0.487 0.179,-0.137 0.383,-0.238 0.622,-0.309 0.24,-0.071 0.491,-0.101 0.755,-0.101 0.131,0 0.269,0.006 0.401,0.024 0.137,0.018 0.263,0.041 0.389,0.065 0.12,0.03 0.233,0.059 0.341,0.095 0.108,0.036 0.192,0.071 0.252,0.107 0.083,0.048 0.143,0.095 0.179,0.148 0.036,0.048 0.054,0.113 0.054,0.196 v 0.28 c 0,0.124 -0.048,0.19 -0.138,0.19 -0.048,0 -0.125,-0.024 -0.227,-0.072 -0.341,-0.154 -0.725,-0.231 -1.15,-0.231 -0.341,0 -0.61,0.053 -0.796,0.166 -0.185,0.113 -0.281,0.285 -0.281,0.529 0,0.166 0.06,0.308 0.179,0.421 0.12,0.113 0.342,0.226 0.659,0.327 l 0.85,0.267 c 0.431,0.137 0.742,0.327 0.928,0.57 0.186,0.244 0.275,0.523 0.275,0.832 0,0.255 -0.054,0.487 -0.155,0.689 -0.108,0.202 -0.252,0.38 -0.437,0.522 -0.186,0.149 -0.407,0.256 -0.665,0.333 -0.269,0.083 -0.551,0.124 -0.856,0.124 z"
       fill="#252f3e"
       id="path157"
       style="display:none" />
    <path
       fill-rule="evenodd"
       clip-rule="evenodd"
       d="m 111.274,157.63 c -1.97,1.443 -4.832,2.209 -7.292,2.209 -3.448,0 -6.5555,-1.265 -8.9023,-3.367 -0.1855,-0.167 -0.0179,-0.392 0.2036,-0.262 2.5383,1.461 5.6697,2.346 8.9077,2.346 2.185,0 4.586,-0.451 6.795,-1.378 0.329,-0.148 0.611,0.214 0.288,0.452 z"
       fill="#ff9900"
       id="path159"
       style="display:none" />
    <path
       fill-rule="evenodd"
       clip-rule="evenodd"
       d="m 112.094,156.703 c -0.252,-0.32 -1.665,-0.154 -2.305,-0.077 -0.192,0.024 -0.222,-0.142 -0.048,-0.267 1.125,-0.784 2.975,-0.558 3.191,-0.297 0.215,0.267 -0.06,2.102 -1.114,2.981 -0.161,0.137 -0.317,0.065 -0.245,-0.113 0.239,-0.588 0.772,-1.912 0.521,-2.227 z"
       fill="#ff9900"
       id="path161"
       style="display:none" />
    <path
       d="m 135.16,159 -4.176,-11.2 h -1.68 l -4.176,11.2 h 1.584 l 0.912,-2.512 h 5.04 l 0.912,2.512 z m -5.024,-9.424 2.016,5.52 h -4.016 z m 9.849,9.424 2.656,-8.944 2.656,8.944 h 1.728 l 3.216,-11.2 h -1.568 l -2.56,9.216 -2.72,-9.216 h -1.504 l -2.72,9.216 -2.56,-9.216 h -1.568 l 3.216,11.2 z m 15.159,0.208 c 1.152,0 2.08,-0.288 2.8,-0.864 0.72,-0.592 1.072,-1.376 1.072,-2.352 0,-0.704 -0.16,-1.28 -0.56,-1.68 -0.272,-0.32 -0.416,-0.496 -0.864,-0.736 -0.432,-0.24 -0.56,-0.32 -1.12,-0.528 -0.272,-0.112 -0.464,-0.176 -0.592,-0.224 l -0.656,-0.208 c -0.864,-0.272 -1.472,-0.544 -1.824,-0.8 -0.352,-0.256 -0.528,-0.624 -0.528,-1.12 0,-1.024 0.816,-1.664 2.032,-1.664 1.216,0 2.064,0.576 2.544,1.728 l 1.248,-0.72 c -0.656,-1.472 -2.016,-2.448 -3.792,-2.448 -0.976,0 -1.808,0.288 -2.496,0.864 -0.688,0.56 -1.024,1.328 -1.024,2.304 0,0.816 0.336,1.472 0.704,1.872 0.176,0.192 0.448,0.384 0.816,0.576 0.368,0.176 0.688,0.32 0.928,0.416 l 1.072,0.352 c 0.944,0.304 1.632,0.576 2.032,0.848 0.4,0.272 0.608,0.672 0.608,1.2 0,1.04 -0.832,1.728 -2.368,1.728 -1.552,0 -2.56,-0.672 -2.992,-2.032 l -1.28,0.736 c 0.592,1.712 2.144,2.752 4.24,2.752 z m 17.17,-2.256 c 0.432,-0.704 0.72,-1.504 0.864,-2.384 l -1.28,-0.736 c -0.112,0.8 -0.304,1.472 -0.576,2.032 l -3.056,-3.264 c -0.656,-0.704 -0.992,-1.2 -0.992,-1.904 0,-0.976 0.816,-1.664 1.84,-1.664 0.96,0 1.744,0.592 2.064,1.568 l 1.248,-0.72 c -0.528,-1.424 -1.856,-2.288 -3.344,-2.288 -0.912,0 -1.68,0.288 -2.336,0.864 -0.64,0.576 -0.96,1.328 -0.96,2.256 0,0.752 0.24,1.424 0.72,2.032 -1.344,0.656 -2.048,1.872 -2.048,3.232 0,0.992 0.352,1.776 1.04,2.368 0.688,0.576 1.6,0.864 2.72,0.864 1.296,0 2.368,-0.384 3.2,-1.168 l 1.136,1.216 1.248,-0.72 z m -4.064,0.848 c -1.456,0 -2.304,-0.72 -2.304,-1.92 0,-0.848 0.464,-1.68 1.488,-2.112 l 3.024,3.248 c -0.592,0.528 -1.328,0.784 -2.208,0.784 z m 11.122,-10 V 159 h 1.488 v -4 h 2.576 c 1.04,0 1.888,-0.352 2.576,-1.04 0.688,-0.688 1.04,-1.552 1.04,-2.56 0,-1.024 -0.352,-1.872 -1.04,-2.56 -0.688,-0.688 -1.536,-1.04 -2.576,-1.04 z m 1.488,5.808 v -4.416 h 2.576 c 1.232,0 2.144,0.928 2.144,2.208 0,0.624 -0.208,1.152 -0.608,1.584 -0.4,0.416 -0.912,0.624 -1.536,0.624 z m 13.325,1.632 c 0,1.792 -0.928,2.64 -2.32,2.64 -1.232,0 -1.984,-0.752 -1.984,-2.048 V 151 h -1.392 v 4.912 c 0,2.032 1.232,3.296 3.104,3.296 1.168,0 2.032,-0.448 2.592,-1.36 V 159 h 1.392 v -8 h -1.392 z m 4.904,3.76 v -11.68 h -1.392 V 159 Z m 7.643,-3.76 c 0,1.792 -0.928,2.64 -2.32,2.64 -1.232,0 -1.984,-0.752 -1.984,-2.048 V 151 h -1.392 v 4.912 c 0,2.032 1.232,3.296 3.104,3.296 1.168,0 2.032,-0.448 2.592,-1.36 V 159 h 1.392 v -8 h -1.392 z m 12.152,-4.448 c -1.12,0 -1.952,0.448 -2.512,1.36 -0.496,-0.912 -1.28,-1.36 -2.352,-1.36 -1.04,0 -1.84,0.432 -2.384,1.28 V 151 h -1.393 v 8 h 1.393 v -4.448 c 0,-1.616 0.88,-2.432 2.048,-2.432 1.04,0 1.696,0.72 1.696,1.952 V 159 h 1.392 v -4.448 c 0,-1.648 0.768,-2.432 1.968,-2.432 1.072,0 1.76,0.72 1.76,1.952 V 159 h 1.392 v -4.976 c 0,-1.984 -1.216,-3.232 -3.008,-3.232 z m 5.642,-1.248 c 0.512,0 0.928,-0.416 0.928,-0.928 0,-0.512 -0.416,-0.944 -0.928,-0.944 -0.528,0 -0.944,0.432 -0.944,0.944 0,0.512 0.416,0.928 0.944,0.928 z m 0.688,9.456 v -8 h -1.392 v 8 z"
       fill="#000000"
       id="path163"
       style="display:none" />
    <g
       clip-path="url(#clip0)"
       id="g173"
       style="display:none">
      <path
         d="m 101.012,182.029 h 5.306 l -5.508,16.322 c -0.057,0.168 -0.165,0.314 -0.309,0.417 -0.143,0.103 -0.316,0.159 -0.493,0.159 h -4.1298 c -0.1341,0 -0.2663,-0.032 -0.3857,-0.093 -0.1193,-0.061 -0.2224,-0.15 -0.3006,-0.259 -0.0782,-0.109 -0.1294,-0.235 -0.1493,-0.368 -0.0198,-0.132 -0.0078,-0.268 0.035,-0.395 l 5.1324,-15.207 c 0.057,-0.168 0.164,-0.314 0.308,-0.417 0.144,-0.103 0.317,-0.159 0.494,-0.159 z"
         fill="url(#paint0_linear)"
         id="path165" />
      <path
         d="m 108.723,192.977 h -8.415 c -0.078,0 -0.155,0.024 -0.219,0.067 -0.065,0.044 -0.115,0.107 -0.1437,0.18 -0.0287,0.072 -0.0348,0.152 -0.0175,0.229 0.0172,0.076 0.0571,0.145 0.1142,0.198 l 5.407,5.048 c 0.158,0.146 0.365,0.228 0.58,0.228 h 4.765 z"
         fill="#0078d4"
         id="path167" />
      <path
         d="m 101.012,182.029 c -0.179,0 -0.354,0.056 -0.498,0.162 -0.145,0.105 -0.252,0.254 -0.306,0.425 l -5.124,15.182 c -0.0458,0.128 -0.0602,0.265 -0.0419,0.399 0.0182,0.134 0.0685,0.262 0.1467,0.373 0.0781,0.11 0.1817,0.201 0.3021,0.263 0.1204,0.062 0.254,0.094 0.3895,0.094 h 4.2366 c 0.158,-0.028 0.305,-0.098 0.427,-0.202 0.122,-0.103 0.215,-0.238 0.268,-0.389 l 1.022,-3.012 3.65,3.405 c 0.153,0.126 0.345,0.196 0.543,0.198 h 4.747 l -2.082,-5.95 -6.069,0.002 3.715,-10.95 z"
         fill="url(#paint1_linear)"
         id="path169" />
      <path
         d="m 107.79,182.604 c -0.057,-0.167 -0.164,-0.313 -0.308,-0.416 -0.144,-0.103 -0.316,-0.159 -0.493,-0.159 h -5.914 c 0.177,0 0.349,0.056 0.493,0.159 0.143,0.103 0.251,0.249 0.308,0.416 l 5.132,15.208 c 0.043,0.127 0.055,0.263 0.035,0.395 -0.02,0.133 -0.071,0.259 -0.149,0.368 -0.078,0.109 -0.181,0.198 -0.301,0.259 -0.119,0.061 -0.251,0.093 -0.385,0.093 h 5.914 c 0.134,0 0.266,-0.032 0.386,-0.093 0.119,-0.061 0.222,-0.15 0.3,-0.259 0.079,-0.109 0.13,-0.235 0.149,-0.368 0.02,-0.132 0.008,-0.268 -0.035,-0.395 z"
         fill="url(#paint2_linear)"
         id="path171" />
    </g>
    <path
       d="m 135.16,196 -4.176,-11.2 h -1.68 l -4.176,11.2 h 1.584 l 0.912,-2.512 h 5.04 l 0.912,2.512 z m -5.024,-9.424 2.016,5.52 h -4.016 z m 11.913,2.352 V 188 h -5.84 v 1.328 h 3.92 l -4.08,5.744 V 196 h 6.16 v -1.328 h -4.256 z m 7.34,3.312 c 0,1.792 -0.928,2.64 -2.32,2.64 -1.232,0 -1.984,-0.752 -1.984,-2.048 V 188 h -1.392 v 4.912 c 0,2.032 1.231,3.296 3.104,3.296 1.168,0 2.032,-0.448 2.592,-1.36 V 196 h 1.392 v -8 h -1.392 z M 154.292,188 H 152.9 v 8 h 1.392 v -4.24 c 0,-0.88 0.24,-1.504 0.736,-1.904 0.496,-0.4 1.072,-0.576 1.76,-0.544 v -1.456 c -1.2,0 -2.032,0.496 -2.496,1.488 z m 11.1,4.64 c 0.032,-0.208 0.048,-0.416 0.048,-0.624 0,-1.168 -0.368,-2.16 -1.12,-2.976 -0.736,-0.832 -1.696,-1.248 -2.864,-1.248 -1.232,0 -2.24,0.4 -3.024,1.2 -0.784,0.8 -1.168,1.808 -1.168,3.008 0,1.216 0.4,2.224 1.184,3.024 0.8,0.784 1.84,1.184 3.104,1.184 1.568,0 2.736,-0.608 3.52,-1.808 l -1.184,-0.672 c -0.48,0.784 -1.248,1.168 -2.304,1.168 -1.52,0 -2.624,-0.832 -2.896,-2.256 z m -3.936,-3.536 c 1.28,0 2.336,0.8 2.576,2.32 h -5.344 c 0.24,-1.408 1.28,-2.32 2.768,-2.32 z m 17.264,4.848 c 0.432,-0.704 0.72,-1.504 0.864,-2.384 l -1.28,-0.736 c -0.112,0.8 -0.304,1.472 -0.576,2.032 l -3.056,-3.264 c -0.656,-0.704 -0.992,-1.2 -0.992,-1.904 0,-0.976 0.816,-1.664 1.84,-1.664 0.96,0 1.744,0.592 2.064,1.568 l 1.248,-0.72 c -0.528,-1.424 -1.856,-2.288 -3.344,-2.288 -0.912,0 -1.68,0.288 -2.336,0.864 -0.64,0.576 -0.96,1.328 -0.96,2.256 0,0.752 0.24,1.424 0.72,2.032 -1.344,0.656 -2.048,1.872 -2.048,3.232 0,0.992 0.352,1.776 1.04,2.368 0.688,0.576 1.6,0.864 2.72,0.864 1.296,0 2.368,-0.384 3.2,-1.168 l 1.136,1.216 1.248,-0.72 z m -4.064,0.848 c -1.456,0 -2.304,-0.72 -2.304,-1.92 0,-0.848 0.464,-1.68 1.488,-2.112 l 3.024,3.248 c -0.592,0.528 -1.328,0.784 -2.208,0.784 z m 11.122,-10 V 196 h 1.488 v -4 h 2.576 c 1.04,0 1.888,-0.352 2.576,-1.04 0.688,-0.688 1.04,-1.552 1.04,-2.56 0,-1.024 -0.352,-1.872 -1.04,-2.56 -0.688,-0.688 -1.536,-1.04 -2.576,-1.04 z m 1.488,5.808 v -4.416 h 2.576 c 1.232,0 2.144,0.928 2.144,2.208 0,0.624 -0.208,1.152 -0.608,1.584 -0.4,0.416 -0.912,0.624 -1.536,0.624 z m 13.326,1.632 c 0,1.792 -0.928,2.64 -2.32,2.64 -1.232,0 -1.984,-0.752 -1.984,-2.048 V 188 h -1.392 v 4.912 c 0,2.032 1.232,3.296 3.104,3.296 1.168,0 2.032,-0.448 2.592,-1.36 V 196 h 1.392 v -8 h -1.392 z m 4.903,3.76 v -11.68 h -1.392 V 196 Z m 7.644,-3.76 c 0,1.792 -0.928,2.64 -2.32,2.64 -1.232,0 -1.984,-0.752 -1.984,-2.048 V 188 h -1.392 v 4.912 c 0,2.032 1.231,3.296 3.104,3.296 1.168,0 2.032,-0.448 2.592,-1.36 V 196 h 1.392 v -8 h -1.392 z m 12.151,-4.448 c -1.12,0 -1.952,0.448 -2.512,1.36 -0.496,-0.912 -1.28,-1.36 -2.352,-1.36 -1.04,0 -1.84,0.432 -2.384,1.28 V 188 h -1.392 v 8 h 1.392 v -4.448 c 0,-1.616 0.88,-2.432 2.048,-2.432 1.04,0 1.696,0.72 1.696,1.952 V 196 h 1.392 v -4.448 c 0,-1.648 0.768,-2.432 1.968,-2.432 1.072,0 1.76,0.72 1.76,1.952 V 196 h 1.392 v -4.976 c 0,-1.984 -1.216,-3.232 -3.008,-3.232 z m 5.642,-1.248 c 0.512,0 0.928,-0.416 0.928,-0.928 0,-0.512 -0.416,-0.944 -0.928,-0.944 -0.528,0 -0.944,0.432 -0.944,0.944 0,0.512 0.416,0.928 0.944,0.928 z M 231.62,196 v -8 h -1.392 v 8 z"
       fill="#000000"
       id="path175"
       style="display:none" />
    <path
       d="m 106.422,223 h 0.549 l 1.564,-1.569 0.077,-0.666 c -1.822,-1.613 -4.346,-2.168 -6.674,-1.468 -2.3278,0.701 -4.1303,2.557 -4.7666,4.909 0.1743,-0.072 0.3673,-0.083 0.5489,-0.033 l 3.1297,-0.518 c 0,0 0.159,-0.264 0.241,-0.247 1.392,-1.533 3.735,-1.712 5.342,-0.408 z"
       fill="#ea4335"
       id="path177"
       style="display:none" />
    <path
       d="m 110.764,224.206 c -0.36,-1.328 -1.098,-2.522 -2.124,-3.435 l -2.196,2.202 c 0.927,0.759 1.455,1.904 1.432,3.105 v 0.39 c 1.08,0 1.955,0.878 1.955,1.96 0,1.083 -0.875,1.96 -1.955,1.96 h -3.908 l -0.39,0.397 v 2.35 l 0.39,0.391 h 3.908 c 2.242,0.018 4.23,-1.439 4.895,-3.585 0.665,-2.146 -0.15,-4.476 -2.007,-5.735 z"
       fill="#4285f4"
       id="path179"
       style="display:none" />
    <path
       d="m 100.054,233.504 h 3.908 v -3.138 h -3.908 c -0.279,0 -0.5542,-0.06 -0.8075,-0.176 l -0.549,0.171 -1.5755,1.569 -0.1373,0.55 c 0.8836,0.669 1.9617,1.029 3.0693,1.024 z"
       fill="#34a853"
       id="path181"
       style="display:none" />
    <path
       d="m 100.054,223.325 c -2.1717,0.013 -4.0949,1.407 -4.7879,3.471 -0.6929,2.063 -0.0025,4.34 1.7186,5.668 l 2.2673,-2.274 c -0.7922,-0.359 -1.2527,-1.199 -1.1302,-2.062 0.1225,-0.863 0.7988,-1.541 1.6593,-1.664 0.8609,-0.123 1.6989,0.339 2.0569,1.133 l 2.267,-2.274 c -0.965,-1.264 -2.464,-2.004 -4.051,-1.998 z"
       fill="#fbbc05"
       id="path183"
       style="display:none" />
    <path
       d="m 131.4,227.448 v 1.344 h 4.112 c -0.304,1.744 -1.744,2.96 -3.984,2.96 -1.312,0 -2.384,-0.416 -3.216,-1.248 -0.816,-0.832 -1.232,-1.872 -1.232,-3.104 0,-1.232 0.416,-2.272 1.232,-3.104 0.816,-0.848 1.872,-1.264 3.152,-1.264 1.552,0 2.944,0.8 3.584,2.016 l 1.28,-0.752 c -0.464,-0.816 -1.136,-1.456 -2,-1.952 -0.864,-0.496 -1.808,-0.752 -2.848,-0.752 -1.68,0 -3.088,0.56 -4.208,1.696 -1.104,1.12 -1.664,2.496 -1.664,4.112 0,1.616 0.56,2.992 1.664,4.128 1.12,1.12 2.528,1.68 4.24,1.68 1.648,0 2.976,-0.48 3.984,-1.44 1.008,-0.976 1.504,-2.192 1.504,-3.648 v -0.672 z m 14.017,4.544 c 0.816,-0.816 1.232,-1.808 1.232,-2.992 0,-1.184 -0.416,-2.176 -1.232,-2.992 -0.816,-0.816 -1.824,-1.216 -2.992,-1.216 -1.168,0 -2.176,0.4 -2.992,1.216 -0.816,0.816 -1.216,1.808 -1.216,2.992 0,1.184 0.4,2.176 1.216,2.992 0.816,0.816 1.824,1.216 2.992,1.216 1.168,0 2.176,-0.4 2.992,-1.216 z m -2.992,-0.144 c -0.784,0 -1.456,-0.272 -2,-0.816 -0.544,-0.544 -0.816,-1.216 -0.816,-2.032 0,-0.816 0.272,-1.488 0.816,-2.032 0.544,-0.544 1.216,-0.816 2,-0.816 0.8,0 1.472,0.272 2.016,0.816 0.544,0.544 0.816,1.216 0.816,2.032 0,0.816 -0.272,1.488 -0.816,2.032 -0.544,0.544 -1.216,0.816 -2.016,0.816 z m 12.617,0.144 c 0.816,-0.816 1.232,-1.808 1.232,-2.992 0,-1.184 -0.416,-2.176 -1.232,-2.992 -0.816,-0.816 -1.824,-1.216 -2.992,-1.216 -1.168,0 -2.176,0.4 -2.992,1.216 -0.816,0.816 -1.216,1.808 -1.216,2.992 0,1.184 0.4,2.176 1.216,2.992 0.816,0.816 1.824,1.216 2.992,1.216 1.168,0 2.176,-0.4 2.992,-1.216 z m -2.992,-0.144 c -0.784,0 -1.456,-0.272 -2,-0.816 -0.544,-0.544 -0.816,-1.216 -0.816,-2.032 0,-0.816 0.272,-1.488 0.816,-2.032 0.544,-0.544 1.216,-0.816 2,-0.816 0.8,0 1.472,0.272 2.016,0.816 0.544,0.544 0.816,1.216 0.816,2.032 0,0.816 -0.272,1.488 -0.816,2.032 -0.544,0.544 -1.216,0.816 -2.016,0.816 z m 12.505,-5.472 c -0.688,-1.056 -1.696,-1.584 -3.008,-1.584 -1.136,0 -2.112,0.4 -2.896,1.216 -0.784,0.8 -1.184,1.776 -1.184,2.944 0,1.168 0.4,2.144 1.184,2.96 0.784,0.816 1.76,1.216 2.896,1.216 1.296,0 2.304,-0.528 3.008,-1.6 v 1.136 c 0,1.52 -1.008,2.448 -2.672,2.448 -1.296,0 -2.176,-0.448 -2.608,-1.344 l -1.216,0.688 c 0.656,1.264 2,1.952 3.792,1.952 1.12,0 2.08,-0.336 2.88,-0.992 0.8,-0.656 1.2,-1.568 1.2,-2.752 V 225 h -1.376 z m 0,2.576 c 0,0.816 -0.272,1.488 -0.816,2.032 -0.544,0.544 -1.216,0.816 -2.032,0.816 -0.816,0 -1.488,-0.272 -2.032,-0.816 -0.544,-0.544 -0.816,-1.216 -0.816,-2.032 0,-0.8 0.272,-1.472 0.816,-2.016 0.544,-0.544 1.216,-0.816 2.032,-0.816 0.816,0 1.488,0.272 2.032,0.816 0.544,0.544 0.816,1.216 0.816,2.016 z M 169.432,233 V 221.32 H 168.04 V 233 Z m 9.804,-3.36 c 0.032,-0.208 0.048,-0.416 0.048,-0.624 0,-1.168 -0.368,-2.16 -1.12,-2.976 -0.736,-0.832 -1.696,-1.248 -2.864,-1.248 -1.232,0 -2.24,0.4 -3.024,1.2 -0.784,0.8 -1.168,1.808 -1.168,3.008 0,1.216 0.4,2.224 1.184,3.024 0.8,0.784 1.84,1.184 3.104,1.184 1.568,0 2.736,-0.608 3.52,-1.808 l -1.184,-0.672 c -0.48,0.784 -1.248,1.168 -2.304,1.168 -1.52,0 -2.624,-0.832 -2.896,-2.256 z m -3.936,-3.536 c 1.28,0 2.336,0.8 2.576,2.32 h -5.344 c 0.24,-1.408 1.28,-2.32 2.768,-2.32 z m 14.992,7.104 c 1.024,0 1.968,-0.24 2.832,-0.736 0.864,-0.496 1.536,-1.168 2,-2 l -1.296,-0.736 c -0.64,1.216 -2,2.016 -3.536,2.016 -1.296,0 -2.352,-0.416 -3.168,-1.248 -0.816,-0.832 -1.216,-1.872 -1.216,-3.104 0,-1.248 0.4,-2.288 1.216,-3.12 0.816,-0.832 1.872,-1.248 3.168,-1.248 1.536,0 2.896,0.8 3.536,2.032 l 1.296,-0.752 c -0.96,-1.664 -2.784,-2.72 -4.832,-2.72 -1.696,0 -3.104,0.56 -4.208,1.68 -1.104,1.12 -1.648,2.496 -1.648,4.128 0,1.632 0.544,3.008 1.648,4.128 1.104,1.12 2.512,1.68 4.208,1.68 z M 198.104,233 v -11.68 h -1.392 V 233 Z m 8.876,-1.008 c 0.816,-0.816 1.232,-1.808 1.232,-2.992 0,-1.184 -0.416,-2.176 -1.232,-2.992 -0.816,-0.816 -1.824,-1.216 -2.992,-1.216 -1.168,0 -2.176,0.4 -2.992,1.216 -0.816,0.816 -1.216,1.808 -1.216,2.992 0,1.184 0.4,2.176 1.216,2.992 0.816,0.816 1.824,1.216 2.992,1.216 1.168,0 2.176,-0.4 2.992,-1.216 z m -2.992,-0.144 c -0.784,0 -1.456,-0.272 -2,-0.816 -0.544,-0.544 -0.816,-1.216 -0.816,-2.032 0,-0.816 0.272,-1.488 0.816,-2.032 0.544,-0.544 1.216,-0.816 2,-0.816 0.8,0 1.472,0.272 2.016,0.816 0.544,0.544 0.816,1.216 0.816,2.032 0,0.816 -0.272,1.488 -0.816,2.032 -0.544,0.544 -1.216,0.816 -2.016,0.816 z m 11.385,-2.608 c 0,1.792 -0.928,2.64 -2.32,2.64 -1.232,0 -1.984,-0.752 -1.984,-2.048 V 225 h -1.392 v 4.912 c 0,2.032 1.232,3.296 3.104,3.296 1.168,0 2.032,-0.448 2.592,-1.36 V 233 h 1.392 v -8 h -1.392 z m 10.135,-2.864 c -0.688,-1.056 -1.696,-1.584 -3.024,-1.584 -1.12,0 -2.08,0.416 -2.864,1.232 -0.784,0.816 -1.184,1.808 -1.184,2.976 0,1.168 0.4,2.176 1.184,2.992 0.784,0.816 1.744,1.216 2.864,1.216 1.328,0 2.336,-0.528 3.024,-1.584 V 233 h 1.392 v -11.2 h -1.392 z m -2.848,5.488 c -0.8,0 -1.472,-0.272 -2.016,-0.816 -0.544,-0.56 -0.816,-1.232 -0.816,-2.048 0,-0.816 0.272,-1.488 0.816,-2.032 0.544,-0.56 1.216,-0.832 2.016,-0.832 0.816,0 1.488,0.272 2.032,0.832 0.544,0.544 0.816,1.216 0.816,2.032 0,0.816 -0.272,1.488 -0.816,2.048 -0.544,0.544 -1.216,0.816 -2.032,0.816 z m 18.029,-0.912 c 0.432,-0.704 0.72,-1.504 0.864,-2.384 l -1.28,-0.736 c -0.112,0.8 -0.304,1.472 -0.576,2.032 l -3.056,-3.264 c -0.656,-0.704 -0.992,-1.2 -0.992,-1.904 0,-0.976 0.816,-1.664 1.84,-1.664 0.96,0 1.744,0.592 2.064,1.568 l 1.248,-0.72 c -0.528,-1.424 -1.856,-2.288 -3.344,-2.288 -0.912,0 -1.68,0.288 -2.336,0.864 -0.64,0.576 -0.96,1.328 -0.96,2.256 0,0.752 0.24,1.424 0.72,2.032 -1.344,0.656 -2.048,1.872 -2.048,3.232 0,0.992 0.352,1.776 1.04,2.368 0.688,0.576 1.6,0.864 2.72,0.864 1.296,0 2.368,-0.384 3.2,-1.168 l 1.136,1.216 1.248,-0.72 z m -4.064,0.848 c -1.456,0 -2.304,-0.72 -2.304,-1.92 0,-0.848 0.464,-1.68 1.488,-2.112 l 3.024,3.248 c -0.592,0.528 -1.328,0.784 -2.208,0.784 z m 11.122,-10 V 233 h 1.488 v -4 h 2.576 c 1.04,0 1.888,-0.352 2.576,-1.04 0.688,-0.688 1.04,-1.552 1.04,-2.56 0,-1.024 -0.352,-1.872 -1.04,-2.56 -0.688,-0.688 -1.536,-1.04 -2.576,-1.04 z m 1.488,5.808 v -4.416 h 2.576 c 1.232,0 2.144,0.928 2.144,2.208 0,0.624 -0.208,1.152 -0.608,1.584 -0.4,0.416 -0.912,0.624 -1.536,0.624 z m 13.325,1.632 c 0,1.792 -0.928,2.64 -2.32,2.64 -1.232,0 -1.984,-0.752 -1.984,-2.048 V 225 h -1.392 v 4.912 c 0,2.032 1.232,3.296 3.104,3.296 1.168,0 2.032,-0.448 2.592,-1.36 V 233 h 1.392 v -8 h -1.392 z m 4.904,3.76 v -11.68 h -1.392 V 233 Z m 7.643,-3.76 c 0,1.792 -0.928,2.64 -2.32,2.64 -1.232,0 -1.984,-0.752 -1.984,-2.048 V 225 h -1.392 v 4.912 c 0,2.032 1.232,3.296 3.104,3.296 1.168,0 2.032,-0.448 2.592,-1.36 V 233 h 1.392 v -8 h -1.392 z m 12.152,-4.448 c -1.12,0 -1.952,0.448 -2.512,1.36 -0.496,-0.912 -1.28,-1.36 -2.352,-1.36 -1.04,0 -1.84,0.432 -2.384,1.28 V 225 h -1.393 v 8 h 1.393 v -4.448 c 0,-1.616 0.88,-2.432 2.048,-2.432 1.04,0 1.696,0.72 1.696,1.952 V 233 h 1.392 v -4.448 c 0,-1.648 0.768,-2.432 1.968,-2.432 1.072,0 1.76,0.72 1.76,1.952 V 233 h 1.392 v -4.976 c 0,-1.984 -1.216,-3.232 -3.008,-3.232 z m 5.642,-1.248 c 0.512,0 0.928,-0.416 0.928,-0.928 0,-0.512 -0.416,-0.944 -0.928,-0.944 -0.528,0 -0.944,0.432 -0.944,0.944 0,0.512 0.416,0.928 0.944,0.928 z m 0.688,9.456 v -8 h -1.392 v 8 z"
       fill="#000000"
       id="path185"
       style="display:none" />
    <path
       d="m 111.272,259.889 c -0.102,-0.331 -0.346,-0.6 -0.652,-0.765 l -6.22,-3.021 c -0.163,-0.082 -0.346,-0.103 -0.51,-0.103 -0.163,0 -0.346,0 -0.509,0.041 l -6.22,3.041 c -0.3058,0.145 -0.5302,0.414 -0.6117,0.766 l -1.5294,6.805 c -0.0612,0.352 0.0204,0.703 0.2243,0.993 l 4.3027,5.399 c 0.2447,0.248 0.5911,0.414 0.9381,0.434 h 6.852 c 0.367,0.042 0.713,-0.124 0.938,-0.434 l 4.302,-5.399 c 0.204,-0.29 0.286,-0.641 0.245,-0.993 z"
       fill="#326de6"
       id="path187"
       style="display:none" />
    <path
       d="m 110.314,266.384 c -0.02,0 -0.041,0 -0.041,-0.02 0,-0.021 -0.041,-0.021 -0.081,-0.021 -0.082,-0.021 -0.164,-0.021 -0.245,-0.021 -0.041,0 -0.082,0 -0.122,-0.021 h -0.021 c -0.224,-0.02 -0.469,-0.062 -0.693,-0.124 -0.061,-0.02 -0.123,-0.082 -0.143,-0.144 0.02,0 0,0 0,0 l -0.163,-0.042 c 0.081,-0.6 0.041,-1.22 -0.082,-1.82 -0.142,-0.6 -0.387,-1.179 -0.713,-1.696 l 0.122,-0.124 v -0.021 c 0,-0.062 0.02,-0.145 0.061,-0.186 0.184,-0.166 0.367,-0.29 0.571,-0.414 l 0.122,-0.062 c 0.082,-0.041 0.143,-0.083 0.225,-0.124 0.02,-0.021 0.041,-0.021 0.061,-0.042 0.02,-0.02 0,-0.02 0,-0.041 0.184,-0.145 0.224,-0.393 0.082,-0.579 -0.062,-0.083 -0.184,-0.145 -0.286,-0.145 -0.102,0 -0.204,0.041 -0.285,0.103 l -0.021,0.021 c -0.02,0.021 -0.041,0.042 -0.061,0.042 -0.061,0.062 -0.122,0.124 -0.163,0.186 -0.021,0.041 -0.061,0.062 -0.082,0.082 -0.142,0.166 -0.326,0.331 -0.51,0.456 -0.04,0.02 -0.081,0.041 -0.122,0.041 -0.02,0 -0.061,0 -0.081,-0.021 h -0.021 l -0.163,0.104 c -0.163,-0.166 -0.347,-0.331 -0.51,-0.497 -0.754,-0.6 -1.692,-0.972 -2.651,-1.075 l -0.02,-0.166 v 0.021 c -0.061,-0.042 -0.082,-0.104 -0.102,-0.166 0,-0.227 0,-0.455 0.041,-0.703 v -0.021 c 0,-0.041 0.02,-0.083 0.02,-0.124 0.02,-0.083 0.02,-0.165 0.041,-0.248 v -0.124 c 0.02,-0.207 -0.143,-0.414 -0.347,-0.435 -0.122,-0.02 -0.244,0.042 -0.346,0.145 -0.082,0.083 -0.123,0.186 -0.123,0.29 v 0.103 c 0,0.083 0.021,0.166 0.041,0.248 0.02,0.042 0.02,0.083 0.02,0.125 v 0.02 c 0.041,0.228 0.041,0.455 0.041,0.704 -0.02,0.062 -0.041,0.124 -0.102,0.165 v 0.041 l -0.02,0.166 c -0.225,0.021 -0.449,0.062 -0.694,0.103 -0.958,0.207 -1.835,0.724 -2.508,1.448 l -0.122,-0.082 h -0.021 c -0.02,0 -0.04,0.02 -0.081,0.02 -0.0409,0 -0.0816,-0.02 -0.1224,-0.041 -0.1836,-0.145 -0.3671,-0.31 -0.5098,-0.476 -0.0204,-0.041 -0.0612,-0.062 -0.0816,-0.083 -0.0612,-0.062 -0.102,-0.124 -0.1631,-0.186 -0.0204,-0.02 -0.0408,-0.02 -0.0612,-0.041 l -0.0204,-0.021 c -0.0816,-0.062 -0.1835,-0.103 -0.2855,-0.103 -0.1223,0 -0.2243,0.041 -0.2855,0.145 -0.1223,0.186 -0.0815,0.434 0.0816,0.579 0.0204,0 0.0204,0.02 0.0204,0.02 0,0 0.0408,0.042 0.0612,0.042 0.0611,0.041 0.1427,0.083 0.2243,0.124 l 0.1223,0.062 c 0.2039,0.124 0.4079,0.248 0.571,0.414 0.0408,0.041 0.0816,0.124 0.0612,0.186 v -0.021 l 0.1223,0.124 c -0.0204,0.042 -0.0408,0.062 -0.0611,0.104 -0.6322,1.013 -0.8973,2.213 -0.7138,3.392 l -0.1631,0.042 c 0,0.02 -0.0204,0.02 -0.0204,0.02 -0.0204,0.062 -0.0816,0.104 -0.1427,0.145 -0.2244,0.062 -0.4487,0.103 -0.6934,0.124 -0.0408,0 -0.0815,0 -0.1223,0.021 -0.0816,0 -0.1632,0.02 -0.2447,0.02 -0.0204,0 -0.0408,0.021 -0.0816,0.021 -0.0204,0 -0.0204,0 -0.0408,0.021 -0.2243,0.041 -0.367,0.248 -0.3263,0.476 0.0408,0.186 0.2244,0.31 0.4079,0.289 0.0408,0 0.0612,0 0.1019,-0.02 0.0204,0 0.0204,0 0.0204,-0.021 0,-0.021 0.0612,0 0.0816,0 0.0816,-0.021 0.1631,-0.062 0.2243,-0.083 0.0408,-0.021 0.0816,-0.041 0.1224,-0.041 h 0.0204 c 0.2243,-0.083 0.4282,-0.145 0.6729,-0.186 h 0.0204 c 0.0612,0 0.1223,0.02 0.1631,0.062 0.0204,0 0.0204,0.02 0.0204,0.02 l 0.1836,-0.02 c 0.3058,0.951 0.8771,1.799 1.6721,2.42 0.184,0.145 0.347,0.269 0.551,0.372 l -0.102,0.145 c 0,0.021 0.02,0.021 0.02,0.021 0.041,0.062 0.041,0.145 0.02,0.207 -0.081,0.206 -0.204,0.413 -0.326,0.599 v 0.021 c -0.02,0.042 -0.041,0.062 -0.081,0.104 -0.041,0.041 -0.082,0.124 -0.143,0.206 -0.021,0.021 -0.021,0.042 -0.041,0.062 0,0 0,0.021 -0.02,0.021 -0.102,0.207 -0.021,0.455 0.163,0.559 0.041,0.02 0.102,0.041 0.143,0.041 0.163,0 0.305,-0.103 0.387,-0.248 0,0 0,-0.021 0.02,-0.021 0,-0.021 0.021,-0.041 0.041,-0.062 0.021,-0.083 0.061,-0.145 0.082,-0.227 l 0.041,-0.125 c 0.061,-0.227 0.163,-0.434 0.265,-0.641 0.04,-0.062 0.102,-0.103 0.163,-0.124 0.02,0 0.02,0 0.02,-0.021 l 0.082,-0.165 c 0.571,0.227 1.162,0.331 1.774,0.331 0.367,0 0.734,-0.042 1.101,-0.145 0.224,-0.041 0.449,-0.124 0.653,-0.186 l 0.081,0.145 c 0.02,0 0.021,0 0.021,0.02 0.061,0.021 0.122,0.062 0.163,0.124 0.102,0.207 0.204,0.414 0.265,0.642 v 0.02 l 0.041,0.125 c 0.02,0.082 0.04,0.165 0.081,0.227 0.02,0.021 0.02,0.041 0.041,0.062 0,0 0,0.021 0.02,0.021 0.082,0.145 0.225,0.248 0.388,0.248 0.061,0 0.102,-0.021 0.163,-0.041 0.081,-0.042 0.163,-0.124 0.183,-0.228 0.021,-0.103 0.021,-0.207 -0.02,-0.31 0,-0.021 -0.02,-0.021 -0.02,-0.021 0,-0.021 -0.021,-0.041 -0.041,-0.062 -0.041,-0.083 -0.082,-0.145 -0.143,-0.207 -0.02,-0.041 -0.041,-0.062 -0.082,-0.103 v -0.042 c -0.142,-0.186 -0.244,-0.393 -0.326,-0.599 -0.02,-0.062 -0.02,-0.145 0.021,-0.207 0,-0.021 0.02,-0.021 0.02,-0.021 l -0.061,-0.165 c 1.04,-0.642 1.835,-1.635 2.202,-2.814 l 0.163,0.021 c 0.021,0 0.021,-0.021 0.021,-0.021 0.04,-0.041 0.102,-0.062 0.163,-0.062 h 0.02 c 0.225,0.042 0.449,0.104 0.653,0.186 h 0.02 c 0.041,0.021 0.082,0.042 0.123,0.042 0.081,0.041 0.142,0.082 0.224,0.103 0.02,0 0.041,0.021 0.081,0.021 0.021,0 0.021,0 0.041,0.021 0.041,0.02 0.061,0.02 0.102,0.02 0.184,0 0.347,-0.124 0.408,-0.289 -0.02,-0.228 -0.184,-0.393 -0.367,-0.435 z m -5.893,-0.641 -0.551,0.269 -0.551,-0.269 -0.142,-0.6 0.387,-0.496 h 0.612 l 0.387,0.496 z m 3.324,-1.345 c 0.101,0.435 0.122,0.869 0.081,1.304 l -1.937,-0.559 c -0.184,-0.041 -0.286,-0.227 -0.245,-0.414 0.021,-0.062 0.041,-0.103 0.082,-0.144 l 1.529,-1.407 c 0.224,0.372 0.388,0.786 0.49,1.22 z m -1.102,-1.985 -1.672,1.199 c -0.143,0.083 -0.346,0.062 -0.448,-0.082 -0.041,-0.042 -0.062,-0.083 -0.062,-0.145 l -0.122,-2.089 c 0.897,0.103 1.693,0.496 2.304,1.117 z m -3.691,-1.055 0.408,-0.083 -0.102,2.068 c 0,0.187 -0.163,0.331 -0.346,0.331 -0.062,0 -0.102,-0.02 -0.164,-0.041 l -1.692,-1.22 c 0.53,-0.518 1.183,-0.89 1.896,-1.055 z m -2.487,1.82 1.509,1.365 c 0.142,0.124 0.163,0.331 0.04,0.476 -0.04,0.062 -0.081,0.083 -0.163,0.103 l -1.9778,0.58 c -0.0612,-0.869 0.1428,-1.759 0.5918,-2.524 z m -0.347,3.496 2.019,-0.352 c 0.163,0 0.326,0.104 0.346,0.269 0.021,0.062 0.021,0.145 -0.02,0.207 l -0.775,1.903 c -0.714,-0.476 -1.285,-1.2 -1.57,-2.027 z m 4.629,2.565 c -0.286,0.062 -0.571,0.103 -0.877,0.103 -0.428,0 -0.877,-0.082 -1.285,-0.207 l 1,-1.841 c 0.102,-0.124 0.265,-0.165 0.407,-0.082 0.062,0.041 0.102,0.082 0.164,0.144 l 0.978,1.8 c -0.122,0.021 -0.244,0.042 -0.387,0.083 z m 2.488,-1.8 c -0.306,0.497 -0.734,0.931 -1.224,1.241 l -0.795,-1.944 c -0.041,-0.166 0.041,-0.331 0.183,-0.393 0.062,-0.021 0.123,-0.042 0.184,-0.042 l 2.039,0.352 c -0.102,0.29 -0.224,0.559 -0.387,0.786 z"
       fill="#ffffff"
       id="path189"
       style="display:none" />
    <path
       d="m 129.24,264.24 4.944,-5.44 h -1.824 l -4.672,5.056 V 258.8 H 126.2 V 270 h 1.488 v -5.376 L 132.52,270 h 1.824 z m 11.492,2 c 0,1.792 -0.928,2.64 -2.32,2.64 -1.232,0 -1.984,-0.752 -1.984,-2.048 V 262 h -1.392 v 4.912 c 0,2.032 1.232,3.296 3.104,3.296 1.168,0 2.032,-0.448 2.592,-1.36 V 270 h 1.392 v -8 h -1.392 z m 7.928,-4.448 c -1.328,0 -2.336,0.528 -3.024,1.584 V 258.8 h -1.393 V 270 h 1.393 v -1.376 c 0.688,1.056 1.696,1.584 3.024,1.584 1.12,0 2.08,-0.4 2.864,-1.216 0.784,-0.816 1.184,-1.824 1.184,-2.992 0,-1.168 -0.4,-2.16 -1.184,-2.976 -0.784,-0.816 -1.744,-1.232 -2.864,-1.232 z m -0.176,7.072 c -0.816,0 -1.488,-0.272 -2.032,-0.816 -0.544,-0.56 -0.816,-1.232 -0.816,-2.048 0,-0.816 0.272,-1.488 0.816,-2.032 0.544,-0.56 1.216,-0.832 2.032,-0.832 0.8,0 1.472,0.272 2.016,0.832 0.544,0.544 0.816,1.216 0.816,2.032 0,0.816 -0.272,1.488 -0.816,2.048 -0.544,0.544 -1.216,0.816 -2.016,0.816 z m 13.565,-2.224 c 0.032,-0.208 0.048,-0.416 0.048,-0.624 0,-1.168 -0.368,-2.16 -1.12,-2.976 -0.736,-0.832 -1.696,-1.248 -2.864,-1.248 -1.232,0 -2.24,0.4 -3.024,1.2 -0.784,0.8 -1.168,1.808 -1.168,3.008 0,1.216 0.4,2.224 1.184,3.024 0.8,0.784 1.84,1.184 3.104,1.184 1.568,0 2.736,-0.608 3.52,-1.808 l -1.184,-0.672 c -0.48,0.784 -1.248,1.168 -2.304,1.168 -1.52,0 -2.624,-0.832 -2.896,-2.256 z m -3.936,-3.536 c 1.28,0 2.336,0.8 2.576,2.32 h -5.344 c 0.24,-1.408 1.28,-2.32 2.768,-2.32 z M 165.089,262 h -1.392 v 8 h 1.392 v -4.24 c 0,-0.88 0.24,-1.504 0.736,-1.904 0.496,-0.4 1.072,-0.576 1.76,-0.544 v -1.456 c -1.2,0 -2.032,0.496 -2.496,1.488 z m 7.842,-0.208 c -1.168,0 -2.032,0.448 -2.592,1.36 V 262 h -1.392 v 8 h 1.392 v -4.24 c 0,-1.792 0.928,-2.64 2.32,-2.64 1.232,0 1.984,0.752 1.984,2.048 V 270 h 1.392 v -4.912 c 0,-2.032 -1.232,-3.296 -3.104,-3.296 z m 12.727,4.848 c 0.032,-0.208 0.048,-0.416 0.048,-0.624 0,-1.168 -0.368,-2.16 -1.12,-2.976 -0.736,-0.832 -1.696,-1.248 -2.864,-1.248 -1.232,0 -2.24,0.4 -3.024,1.2 -0.784,0.8 -1.168,1.808 -1.168,3.008 0,1.216 0.4,2.224 1.184,3.024 0.8,0.784 1.84,1.184 3.104,1.184 1.568,0 2.736,-0.608 3.52,-1.808 l -1.184,-0.672 c -0.48,0.784 -1.248,1.168 -2.304,1.168 -1.52,0 -2.624,-0.832 -2.896,-2.256 z m -3.936,-3.536 c 1.28,0 2.336,0.8 2.576,2.32 h -5.344 c 0.24,-1.408 1.28,-2.32 2.768,-2.32 z M 191.424,262 h -2.128 v -2.24 l -1.392,0.416 V 262 h -1.584 v 1.344 h 1.584 v 4.336 c 0,1.984 1.088,2.64 3.52,2.32 v -1.248 c -1.424,0.064 -2.128,0.16 -2.128,-1.072 v -4.336 h 2.128 z m 8.921,4.64 c 0.032,-0.208 0.048,-0.416 0.048,-0.624 0,-1.168 -0.368,-2.16 -1.12,-2.976 -0.736,-0.832 -1.696,-1.248 -2.864,-1.248 -1.232,0 -2.24,0.4 -3.024,1.2 -0.784,0.8 -1.168,1.808 -1.168,3.008 0,1.216 0.4,2.224 1.184,3.024 0.8,0.784 1.84,1.184 3.104,1.184 1.568,0 2.736,-0.608 3.52,-1.808 l -1.184,-0.672 c -0.48,0.784 -1.248,1.168 -2.304,1.168 -1.52,0 -2.624,-0.832 -2.896,-2.256 z m -3.936,-3.536 c 1.28,0 2.336,0.8 2.576,2.32 h -5.344 c 0.24,-1.408 1.28,-2.32 2.768,-2.32 z m 6.472,1.056 c 0,-0.688 0.64,-1.072 1.424,-1.072 0.848,0 1.424,0.336 1.712,1.024 l 1.168,-0.656 c -0.512,-1.04 -1.584,-1.664 -2.88,-1.664 -0.816,0 -1.488,0.224 -2.032,0.672 -0.528,0.448 -0.8,1.024 -0.8,1.712 0,1.696 1.632,2.112 2.896,2.448 0.88,0.208 1.584,0.56 1.584,1.184 0,0.752 -0.672,1.088 -1.584,1.088 -0.976,0 -1.728,-0.48 -1.984,-1.248 l -1.2,0.688 c 0.464,1.136 1.632,1.872 3.184,1.872 0.88,0 1.584,-0.224 2.144,-0.656 0.56,-0.432 0.848,-1.024 0.848,-1.744 0.016,-1.712 -1.648,-2.176 -2.896,-2.448 -0.88,-0.24 -1.584,-0.576 -1.584,-1.2 z m 17.808,3.792 c 0.432,-0.704 0.72,-1.504 0.864,-2.384 l -1.28,-0.736 c -0.112,0.8 -0.304,1.472 -0.576,2.032 l -3.056,-3.264 c -0.656,-0.704 -0.992,-1.2 -0.992,-1.904 0,-0.976 0.816,-1.664 1.84,-1.664 0.96,0 1.744,0.592 2.064,1.568 l 1.248,-0.72 c -0.528,-1.424 -1.856,-2.288 -3.344,-2.288 -0.912,0 -1.68,0.288 -2.336,0.864 -0.64,0.576 -0.96,1.328 -0.96,2.256 0,0.752 0.24,1.424 0.72,2.032 -1.344,0.656 -2.048,1.872 -2.048,3.232 0,0.992 0.352,1.776 1.04,2.368 0.688,0.576 1.6,0.864 2.72,0.864 1.296,0 2.368,-0.384 3.2,-1.168 l 1.136,1.216 1.248,-0.72 z m -4.064,0.848 c -1.456,0 -2.304,-0.72 -2.304,-1.92 0,-0.848 0.464,-1.68 1.488,-2.112 l 3.024,3.248 c -0.592,0.528 -1.328,0.784 -2.208,0.784 z m 11.122,-10 V 270 h 1.488 v -4 h 2.576 c 1.04,0 1.888,-0.352 2.576,-1.04 0.688,-0.688 1.04,-1.552 1.04,-2.56 0,-1.024 -0.352,-1.872 -1.04,-2.56 -0.688,-0.688 -1.536,-1.04 -2.576,-1.04 z m 1.488,5.808 v -4.416 h 2.576 c 1.232,0 2.144,0.928 2.144,2.208 0,0.624 -0.208,1.152 -0.608,1.584 -0.4,0.416 -0.912,0.624 -1.536,0.624 z m 13.325,1.632 c 0,1.792 -0.928,2.64 -2.32,2.64 -1.232,0 -1.984,-0.752 -1.984,-2.048 V 262 h -1.392 v 4.912 c 0,2.032 1.232,3.296 3.104,3.296 1.168,0 2.032,-0.448 2.592,-1.36 V 270 h 1.392 v -8 h -1.392 z m 4.904,3.76 v -11.68 h -1.392 V 270 Z m 7.643,-3.76 c 0,1.792 -0.928,2.64 -2.32,2.64 -1.232,0 -1.984,-0.752 -1.984,-2.048 V 262 h -1.392 v 4.912 c 0,2.032 1.232,3.296 3.104,3.296 1.168,0 2.032,-0.448 2.592,-1.36 V 270 h 1.392 v -8 h -1.392 z m 12.152,-4.448 c -1.12,0 -1.952,0.448 -2.512,1.36 -0.496,-0.912 -1.28,-1.36 -2.352,-1.36 -1.04,0 -1.84,0.432 -2.384,1.28 V 262 h -1.393 v 8 h 1.393 v -4.448 c 0,-1.616 0.88,-2.432 2.048,-2.432 1.04,0 1.696,0.72 1.696,1.952 V 270 h 1.392 v -4.448 c 0,-1.648 0.768,-2.432 1.968,-2.432 1.072,0 1.76,0.72 1.76,1.952 V 270 h 1.392 v -4.976 c 0,-1.984 -1.216,-3.232 -3.008,-3.232 z m 5.642,-1.248 c 0.512,0 0.928,-0.416 0.928,-0.928 0,-0.512 -0.416,-0.944 -0.928,-0.944 -0.528,0 -0.944,0.432 -0.944,0.944 0,0.512 0.416,0.928 0.944,0.928 z m 0.688,9.456 v -8 h -1.392 v 8 z"
       fill="#000000"
       id="path191"
       style="display:none" />
    <text
       xml:space="preserve"
       style="font-style:normal;font-weight:normal;font-size:16px;line-height:1.25;font-family:sans-serif;display:inline;fill:#000000;fill-opacity:1;stroke:none"
       x="391.2384"
       y="333.18881"
       id="text9031"><tspan
         sodipodi:role="line"
         id="tspan9029"
         x="391.2384"
         y="333.18881"
         style="font-style:normal;font-variant:normal;font-weight:normal;font-stretch:normal;font-size:16px;font-family:Gilroy;-inkscape-font-specification:Gilroy">Building with Pulumi</tspan></text>
    <text
       xml:space="preserve"
       style="font-size:16px;line-height:1.25;font-family:Gilroy;-inkscape-font-specification:Gilroy;fill:#000000"
       x="388.85281"
       y="95.624001"
       id="text33847"><tspan
         sodipodi:role="line"
         id="tspan33845"
         x="388.85281"
         y="95.624001">Pulumi Fundamentals</tspan></text>
  </g>
  <defs
     id="defs234">
    <rect
       x="-163.016"
       y="117.6896"
       width="188.4624"
       height="61.2304"
       id="rect5265" />
    <filter
       id="filter0_d"
       x="0"
       y="0"
       width="668"
       height="497"
       filterUnits="userSpaceOnUse"
       color-interpolation-filters="sRGB">
      <feFlood
         flood-opacity="0"
         result="BackgroundImageFix"
         id="feFlood195" />
      <feColorMatrix
         in="SourceAlpha"
         type="matrix"
         values="0 0 0 0 0 0 0 0 0 0 0 0 0 0 0 0 0 0 127 0"
         result="hardAlpha"
         id="feColorMatrix197" />
      <feOffset
         dy="6"
         id="feOffset199" />
      <feGaussianBlur
         stdDeviation="18"
         id="feGaussianBlur201" />
      <feColorMatrix
         type="matrix"
         values="0 0 0 0 0 0 0 0 0 0 0 0 0 0 0 0 0 0 0.1 0"
         id="feColorMatrix203" />
      <feBlend
         mode="normal"
         in2="BackgroundImageFix"
         result="effect1_dropShadow"
         id="feBlend205" />
      <feBlend
         mode="normal"
         in="SourceGraphic"
         in2="effect1_dropShadow"
         result="shape"
         id="feBlend207" />
    </filter>
    <linearGradient
       id="paint0_linear"
       x1="102.946"
       y1="183.282"
       x2="97.4349"
       y2="199.563"
       gradientUnits="userSpaceOnUse">
      <stop
         stop-color="#114A8B"
         id="stop210" />
      <stop
         offset="1"
         stop-color="#0669BC"
         id="stop212" />
    </linearGradient>
    <linearGradient
       id="paint1_linear"
       x1="104.667"
       y1="190.869"
       x2="103.393"
       y2="191.3"
       gradientUnits="userSpaceOnUse">
      <stop
         stop-opacity="0.3"
         id="stop215" />
      <stop
         offset="0.071"
         stop-opacity="0.2"
         id="stop217" />
      <stop
         offset="0.321"
         stop-opacity="0.1"
         id="stop219" />
      <stop
         offset="0.623"
         stop-opacity="0.05"
         id="stop221" />
      <stop
         offset="1"
         stop-opacity="0"
         id="stop223" />
    </linearGradient>
    <linearGradient
       id="paint2_linear"
       x1="103.966"
       y1="182.807"
       x2="110.016"
       y2="198.924"
       gradientUnits="userSpaceOnUse">
      <stop
         stop-color="#3CCBF4"
         id="stop226" />
      <stop
         offset="1"
         stop-color="#2892DF"
         id="stop228" />
    </linearGradient>
    <clipPath
       id="clip0">
      <rect
         width="18"
         height="16.9565"
         fill="white"
         transform="translate(95 182)"
         id="rect231" />
    </clipPath>
  </defs>
</svg>
