<svg width="452" height="397" viewBox="0 0 452 397" fill="none" xmlns="http://www.w3.org/2000/svg">
<g clip-path="url(#clip0)">
<path d="M175.7 5.98001L177.19 2.24001L255.34 63.9L249.48 74.71L308.25 142.9L301.33 158.3L350.07 219.23L346.76 221.23L257.89 140.84L267.05 129.3L223.12 84.92L230.72 66.93L175.7 5.98001Z" fill="#00CFF0"/>
<path d="M346.08 223.22L253.79 141.18L260.61 132.1L217.71 86.87L227.17 67.6L174.04 6.62L176.64 0L261.94 61.6L257.28 73.57L314.81 141.08L307.83 156.38L352.06 219.56L346.08 223.22ZM261.99 140.5L338.93 210.1L297.84 158.74L304.73 143.41L245.85 75.1L251.45 64.79L186.68 12.82L234.27 66.25L226.66 84.24L271.05 129.08L261.99 140.5Z" fill="#FF63FF"/>
<path d="M384.1 242C385.84 242 387.25 240.59 387.25 238.85C387.25 237.11 385.84 235.7 384.1 235.7C382.36 235.7 380.95 237.11 380.95 238.85C380.95 240.59 382.36 242 384.1 242Z" fill="#00FFFF"/>
<path d="M130.66 265.97L299.77 261.7L332.35 297.77L297.44 341.21L160.91 351.69L92.26 328.03L95.75 290.4L130.66 265.97Z" fill="white"/>
<path d="M267.31 344.4C289.32 353.94 333.23 358.3 356.21 344.51C379.48 330.55 383.84 289.27 355.13 273.29C343.06 266.57 331.02 265.65 317.98 267.61" fill="white"/>
<path d="M312.97 279.15C312.97 279.15 325.6 279.56 337.08 287.17C337.08 287.17 327.11 274.41 314.31 272.08L312.97 279.15Z" fill="#99E7FF"/>
<path d="M141.23 265.97C118.86 254.44 82.61 258.46 83.05 291.57C83.14 298.09 85.13 305.16 88.29 310.77" fill="white"/>
<path d="M112.33 196.54C74.47 213.29 58.81 236.31 56.09 239.98C50.98 246.88 45.13 256.85 45.51 261.91C45.46 267.08 49.01 262.35 50.56 262.09C50.44 264.65 50.76 269.9 53.28 269.91C57 270.34 58.07 266.03 60.95 265.48C61.24 268.31 62.51 274.4 66.26 274.19C70.36 274.98 73.67 265.15 74.69 268.31C75.18 269.82 77.37 273.59 81.13 274.1C87.06 274.91 86.88 260.42 88.11 255.77C90.16 248.08 95.12 238.37 99.26 232.59C103.07 227.28 116.08 215.88 132.37 211.23" fill="url(#paint0_linear)"/>
<path d="M50.91 265.2C51.9 259.8 56.89 251.5 61.32 245.52C64.04 241.84 88.28 213.32 121.74 209.83L130.55 211.61C131.24 211.38 131.94 211.17 132.64 210.96L112.62 196.25C74.76 213 59.1 236.02 56.38 239.7C51.27 246.6 45.42 256.57 45.8 261.63C45.75 266.8 49.3 262.07 50.85 261.81C50.8 262.7 50.79 263.95 50.91 265.2Z" fill="#4BF6FF"/>
<path d="M85.16 249.46C83.52 250.71 81.82 252.88 80.04 252.49C78.1 252.06 77.37 248.08 76.1 247.41C73.17 245.87 70.71 250.24 67.93 248.74C66.43 247.94 67.57 244.2 65.86 243.47C63.76 242.58 61.2 245.58 59.25 244.34C57.76 243.25 58.14 237.69 57.81 237.68C56.88 238.46 45.83 251.27 45.33 261.76C45.28 266.93 48.6 265.03 50.56 262.08C50.44 264.64 50.44 269.7 53.09 270.04C56.81 270.47 58.81 267.51 60.94 265.48C61.23 268.31 62.5 274.4 66.25 274.19C70.35 274.98 74.04 266.35 74.68 268.31C75.17 269.82 77.36 273.59 81.12 274.1C87.05 274.91 87.83 264.6 88.51 258.49C88.84 255.5 89.64 251.07 91.28 247.26C90.06 247.13 88.67 246.77 85.16 249.46Z" fill="#365E78"/>
<path d="M51.25 268.42C52.61 260.02 57.18 250.86 63.21 243.77C61.39 244.46 60.65 243.98 60.17 243.6C58.68 242.51 58.15 237.7 57.82 237.69C56.89 238.47 45.66 251.3 45.15 261.79C45.1 266.97 48.42 265.42 50.38 262.47C50.31 264.15 50.5 266.62 51.25 268.42Z" fill="#4A7A90"/>
<path d="M97.14 291.75C82.66 291.75 69.55 295.42 62.65 310.75C55.76 326.04 61.33 343.63 73.54 351.71C81.15 356.72 100.59 360.21 112.31 353.26" fill="white"/>
<path d="M114.84 67.71C103.13 70.19 85.82 73.17 81.01 95.21C76.06 117.85 87.88 139.86 92.65 161.24C95.14 172.41 96.74 185.02 98.18 196.15C101.19 219.42 100.18 235.67 102.66 249.15C106.63 270.69 118.41 290.58 134.93 305.14C144.21 313.32 153.63 312.91 166.35 315.22C184.06 318.45 206.53 312.33 222.11 310.47C247.74 307.4 263.65 301.69 287.88 292.76C303.72 286.92 317.18 278.91 327.76 263.29C333.34 255.06 338.11 243.82 333.15 234.18C326.54 221.36 306.23 223.67 292.51 229.06C283.49 232.6 268.37 242.3 268.37 242.3C268.37 242.3 252.13 210.24 246.55 201.17C231.99 177.52 219.14 159.19 201.47 137.99C192.6 127.34 186.66 116.22 181.59 103.56C174.49 85.81 166.33 73.03 151.77 68.77C140.75 65.56 129.04 65.94 114.84 67.71Z" fill="url(#paint1_linear)"/>
<path d="M112.64 300.18C101.06 313.69 99.24 328.09 104.04 353.63C107.19 370.4 124.63 381.4 138.34 384.35C151.75 387.24 168.76 386.96 182.57 378.62C192.7 372.5 198.13 365.1 202.33 354.25C205.96 344.88 206.3 340.33 206.02 330.9" fill="white"/>
<path d="M174.45 347.97C183.55 366.84 204.35 376.85 228.48 380.82C277.66 388.92 305.2 367.54 305.2 336.55C305.2 328.02 300.32 306.04 290.67 301.72" fill="white"/>
<path d="M188.79 329.19C172.22 322.62 160.22 302.1 156.51 284.05C155.72 280.2 153.27 268.92 159.22 267.51C167.36 266.61 169.44 277.87 169.15 276.87C168.28 273.87 169.51 267.16 173.12 265.77C178.67 262.75 183.74 271.76 185.15 275.13C185.42 275.77 185.79 266.26 192.78 266.64C198.03 267.5 199.48 272.13 200.57 275.42C200.78 273.78 202.01 268.28 206.39 268.29C211.48 268 214.1 271.85 215.69 278.19C217.52 285.48 218.74 302.31 220.75 307.6C222.38 311.88 218.89 311.89 220.85 316.11C223.32 321.41 228.25 325.01 227.71 327.16C226.15 333.42 188.79 329.19 188.79 329.19Z" fill="#56D7E4"/>
<path d="M217.45 308.69C216.25 303.98 214.51 292.69 214.1 287.67C213.47 279.93 211.98 274.36 206.68 273.96C202.3 273.95 200.8 280.34 200.59 281.98C199.5 278.69 197.41 270.55 191.95 270.69C185.41 271.01 186.24 282.41 185.97 281.77C184.56 278.41 179.81 268.12 173.4 270.11C167.42 271.77 170.4 283.87 170.35 283.69C170.28 283.45 170.23 283.17 170.18 282.86C169.45 279.96 165.95 270.19 159.34 271.86C154.96 273.24 156.39 283.35 156.81 285.39C158.17 292.01 160.14 297.87 164.07 304.75C170.41 315.86 179.26 326.62 189.75 330.78C189.75 330.78 222.83 334.52 228.04 329.75C226.93 327.56 223.45 324.44 221.5 320.25C219.53 316.04 218.58 313.13 217.45 308.69Z" fill="#335B78"/>
<path d="M175.84 333.07C175.84 333.07 209.58 283.62 285.22 308.05L238.27 346.23L175.84 333.07Z" fill="white"/>
<path d="M256.33 306.31C256.33 306.31 285.81 267.14 328.09 282.65C328.08 282.65 323.04 321.43 256.33 306.31Z" fill="white"/>
<path d="M302.48 335.01C298.31 343.8 303.89 331.7 296.27 342.77C279.98 366.43 243.52 365.27 226.84 363.33C214.89 361.94 195.28 356.61 188.22 349.75C185.08 354.26 164.05 366.44 140.73 365.91C137.28 365.83 112.62 366.55 103.98 342.28C74.22 340.23 63.04 336.55 60.73 333.72C62.71 341.3 67.22 347.97 73.5 352.13C79.61 356.15 93.22 360.79 104.62 356.63C108.98 371.95 124.13 383.71 137.12 386.51C150.53 389.4 168.73 387.38 182.54 379.04C187.29 376.17 190.99 373.02 194.03 369.37C213.38 401.15 255.06 398.04 269.69 393.17C290.09 386.37 300.54 368.85 302.37 353.05C320.68 358.59 343.29 356.81 355.26 347.5C362.12 342.16 369.11 333.19 372.22 324.84C368.42 330.26 342.82 338.89 302.48 335.01Z" fill="#99E7FF"/>
<path d="M80.43 103.35C85.24 81.32 102.55 78.34 114.26 75.85C128.46 74.08 135.36 75.67 138.96 77.64C153.17 85.41 159.21 93.93 166.3 111.68C171.36 124.34 177.06 133.5 188.12 144.84C207.38 164.6 221.12 180.97 235.56 204.7C243.71 218.08 263.94 272.54 263.94 272.54C263.94 272.54 291.4 255.85 301.85 251.61C321.81 243.5 334.29 246.8 334.49 249.22C335.88 244.03 335.99 238.86 333.44 233.89C326.83 221.07 306.52 223.38 292.8 228.77C283.78 232.31 273.6 238.84 273.6 238.84C273.6 238.84 262.29 212.24 254.65 199.27C239.79 174.07 227.97 164.89 206.65 139.13C201.31 132.68 192.86 120 185.96 106.43C177.3 89.39 166.62 72.75 152.07 68.49C141.06 65.27 129.35 65.65 115.15 67.43C103.44 69.91 86.13 72.89 81.32 94.93C80.6 98.25 80.24 101.55 80.16 104.84C80.23 104.34 80.32 103.85 80.43 103.35Z" fill="#4BF6FF"/>
<path d="M140.337 92.7066C144.918 92.1318 148.112 87.5256 147.471 82.4185C146.83 77.3113 142.597 73.6372 138.016 74.212C133.435 74.7868 130.241 79.393 130.882 84.5001C131.522 89.6073 135.756 93.2814 140.337 92.7066Z" fill="#FFFFDC"/>
<path d="M140.98 87.61C143.443 87.61 145.44 85.6132 145.44 83.15C145.44 80.6868 143.443 78.69 140.98 78.69C138.517 78.69 136.52 80.6868 136.52 83.15C136.52 85.6132 138.517 87.61 140.98 87.61Z" fill="#321C45"/>
<path d="M212.83 196.08L212.79 196.04C211.72 196.69 210.64 197.34 209.55 197.98C210.64 197.35 211.73 196.7 212.83 196.08Z" fill="url(#paint2_linear)"/>
<path d="M304.51 147.65C305.91 145.45 300.91 145.18 300.26 143.11C299.51 140.71 303.98 138.04 302.97 135.53C301.46 131.79 295.58 132.73 294.69 127.47C294.15 119.99 287.56 122.53 285.35 121.14C281.68 118.83 284.09 112.53 279.69 110.52C276.03 108.33 272.63 118.81 268.38 115.59C266.79 114.63 263.92 107.66 260.15 110.82C255.02 115.13 254.37 127.37 251.84 133.11C242.83 153.56 228.38 170.68 208.2 168.93C202.81 168.46 197.61 174.47 195.93 180.77C194.01 187.94 199.31 197.64 206.24 199.23C218.47 202.03 283.01 181.39 304.51 147.65Z" fill="url(#paint3_linear)"/>
<path d="M251.82 133C242.81 153.45 229.53 166.3 208.18 168.82C204.96 169.2 201.58 169.77 199.77 170.46C192.63 173.2 193.95 177.67 197.65 177.87C233.51 179.81 246.58 156.67 255.75 135.03L251.82 133Z" fill="#4BF6FF"/>
<path d="M341.17 162.09C338.43 159.5 336.85 155.02 336.6 151.02L336.59 151.53V151.02C336.34 155.02 334.76 159.51 332.02 162.09C329.93 164.06 327.69 164.98 324.37 165.38C336.52 167.31 335.46 177.81 336.59 186.32V186.33C337.55 178.25 336.67 167.32 348.82 165.39C345.5 164.97 343.25 164.05 341.17 162.09Z" fill="white"/>
<path d="M404.57 242.39C403.48 241.36 402.85 239.58 402.75 237.98L402.74 238.18V237.98C402.64 239.57 402.01 241.36 400.92 242.39C400.09 243.17 399.19 243.54 397.88 243.7C401.82 244.57 402.3 245.88 402.75 249.27C403.13 246.05 403.89 245.07 407.62 243.7C406.3 243.54 405.41 243.17 404.57 242.39Z" fill="white"/>
<path d="M369.57 216.68C368.48 215.65 367.85 213.87 367.75 212.27L367.74 212.47V212.27C367.64 213.86 367.01 215.65 365.92 216.68C365.09 217.46 364.19 217.83 362.88 217.99C366.82 218.86 367.3 220.17 367.75 223.56C368.13 220.34 368.89 219.36 372.62 217.99C371.29 217.83 370.4 217.46 369.57 216.68Z" fill="white"/>
<path d="M354.89 241.28C353.8 240.25 353.17 238.47 353.07 236.87L353.06 237.07V236.87C352.96 238.46 352.33 240.25 351.24 241.28C350.41 242.06 349.51 242.43 348.2 242.59C352.14 243.46 352.62 244.77 353.07 248.16C353.45 244.94 354.21 243.96 357.94 242.59C356.61 242.43 355.72 242.06 354.89 241.28Z" fill="white"/>
<path d="M391.19 253.92C390.41 253.18 389.96 251.91 389.89 250.77V250.91V250.77C389.82 251.91 389.37 253.19 388.59 253.92C388 254.48 387.36 254.74 386.41 254.86C389.22 255.48 389.57 256.42 389.89 258.84C390.16 256.54 390.7 255.84 393.37 254.86C392.43 254.75 391.79 254.48 391.19 253.92Z" fill="white"/>
<path d="M401.83 264.12C401.05 263.38 400.6 262.11 400.53 260.97V261.11V260.97C400.46 262.11 400.01 263.39 399.23 264.12C398.64 264.68 398 264.94 397.05 265.06C399.86 265.68 400.21 266.62 400.53 269.04C400.8 266.74 401.34 266.04 404.01 265.06C403.07 264.94 402.43 264.68 401.83 264.12Z" fill="white"/>
<path d="M388.95 264.52C388.17 263.78 387.72 262.51 387.65 261.37V261.51V261.37C387.58 262.51 387.13 263.79 386.35 264.52C385.76 265.08 385.12 265.34 384.17 265.46C386.98 266.08 387.33 267.02 387.65 269.44C387.92 267.14 388.46 266.44 391.13 265.46C390.18 265.35 389.54 265.08 388.95 264.52Z" fill="white"/>
<path d="M376.95 245.94C376.17 245.2 375.72 243.93 375.65 242.79V242.93V242.79C375.58 243.93 375.13 245.21 374.35 245.94C373.76 246.5 373.12 246.76 372.17 246.88C374.98 247.5 375.33 248.44 375.65 250.86C375.92 248.56 376.46 247.86 379.13 246.88C378.19 246.76 377.55 246.5 376.95 245.94Z" fill="white"/>
<path d="M350.79 174.11C350.01 173.37 349.56 172.1 349.49 170.96V171.1V170.96C349.42 172.1 348.97 173.38 348.19 174.11C347.6 174.67 346.96 174.93 346.01 175.05C348.82 175.67 349.17 176.61 349.49 179.03C349.76 176.73 350.3 176.03 352.97 175.05C352.03 174.94 351.39 174.67 350.79 174.11Z" fill="white"/>
<path d="M382.36 222.39C381.58 221.65 381.13 220.38 381.06 219.24V219.38V219.24C380.99 220.38 380.54 221.66 379.76 222.39C379.17 222.95 378.53 223.21 377.58 223.33C380.39 223.95 380.74 224.89 381.06 227.31C381.33 225.01 381.87 224.31 384.54 223.33C383.6 223.21 382.96 222.95 382.36 222.39Z" fill="white"/>
<path d="M394.16 252.62C395.447 252.62 396.49 251.577 396.49 250.29C396.49 249.003 395.447 247.96 394.16 247.96C392.873 247.96 391.83 249.003 391.83 250.29C391.83 251.577 392.873 252.62 394.16 252.62Z" fill="#00FFFF"/>
<path d="M374.12 230.98C374.976 230.98 375.67 230.286 375.67 229.43C375.67 228.574 374.976 227.88 374.12 227.88C373.264 227.88 372.57 228.574 372.57 229.43C372.57 230.286 373.264 230.98 374.12 230.98Z" fill="#00FFFF"/>
<path d="M362.15 234.19C363.006 234.19 363.7 233.496 363.7 232.64C363.7 231.784 363.006 231.09 362.15 231.09C361.294 231.09 360.6 231.784 360.6 232.64C360.6 233.496 361.294 234.19 362.15 234.19Z" fill="#00FFFF"/>
<path d="M349.29 238.62C350.146 238.62 350.84 237.926 350.84 237.07C350.84 236.214 350.146 235.52 349.29 235.52C348.434 235.52 347.74 236.214 347.74 237.07C347.74 237.926 348.434 238.62 349.29 238.62Z" fill="#00FFFF"/>
<path d="M375.45 269.66C376.306 269.66 377 268.966 377 268.11C377 267.254 376.306 266.56 375.45 266.56C374.594 266.56 373.9 267.254 373.9 268.11C373.9 268.966 374.594 269.66 375.45 269.66Z" fill="#00FFFF"/>
<path d="M420.23 302.47C421.086 302.47 421.78 301.776 421.78 300.92C421.78 300.064 421.086 299.37 420.23 299.37C419.374 299.37 418.68 300.064 418.68 300.92C418.68 301.776 419.374 302.47 420.23 302.47Z" fill="#00FFFF"/>
<path d="M439.74 328.19C440.596 328.19 441.29 327.496 441.29 326.64C441.29 325.784 440.596 325.09 439.74 325.09C438.884 325.09 438.19 325.784 438.19 326.64C438.19 327.496 438.884 328.19 439.74 328.19Z" fill="#00FFFF"/>
<path d="M373.61 243.3C374.466 243.3 375.16 242.606 375.16 241.75C375.16 240.894 374.466 240.2 373.61 240.2C372.754 240.2 372.06 240.894 372.06 241.75C372.06 242.606 372.754 243.3 373.61 243.3Z" fill="#54396D"/>
<path d="M414.38 261.51C415.347 261.51 416.13 260.727 416.13 259.76C416.13 258.794 415.347 258.01 414.38 258.01C413.414 258.01 412.63 258.794 412.63 259.76C412.63 260.727 413.414 261.51 414.38 261.51Z" fill="#54396D"/>
<path d="M405.93 289.76C407.675 289.76 409.09 288.345 409.09 286.6C409.09 284.855 407.675 283.44 405.93 283.44C404.185 283.44 402.77 284.855 402.77 286.6C402.77 288.345 404.185 289.76 405.93 289.76Z" fill="#00FFFF"/>
<path d="M447.88 279.02C449.625 279.02 451.04 277.605 451.04 275.86C451.04 274.115 449.625 272.7 447.88 272.7C446.135 272.7 444.72 274.115 444.72 275.86C444.72 277.605 446.135 279.02 447.88 279.02Z" fill="#00FFFF"/>
<path d="M419.62 258.12C420.586 258.12 421.37 257.336 421.37 256.37C421.37 255.403 420.586 254.62 419.62 254.62C418.653 254.62 417.87 255.403 417.87 256.37C417.87 257.336 418.653 258.12 419.62 258.12Z" fill="#54396D"/>
<path d="M407.79 266.94C408.757 266.94 409.54 266.157 409.54 265.19C409.54 264.224 408.757 263.44 407.79 263.44C406.824 263.44 406.04 264.224 406.04 265.19C406.04 266.157 406.824 266.94 407.79 266.94Z" fill="#00FFFF"/>
<path d="M327.34 176.75C328.306 176.75 329.09 175.966 329.09 175C329.09 174.034 328.306 173.25 327.34 173.25C326.373 173.25 325.59 174.034 325.59 175C325.59 175.966 326.373 176.75 327.34 176.75Z" fill="#00FFFF"/>
<path d="M386.76 220.67C387.727 220.67 388.51 219.886 388.51 218.92C388.51 217.953 387.727 217.17 386.76 217.17C385.794 217.17 385.01 217.953 385.01 218.92C385.01 219.886 385.794 220.67 386.76 220.67Z" fill="#00FFFF"/>
<path d="M363.67 248.14C364.637 248.14 365.42 247.356 365.42 246.39C365.42 245.424 364.637 244.64 363.67 244.64C362.704 244.64 361.92 245.424 361.92 246.39C361.92 247.356 362.704 248.14 363.67 248.14Z" fill="#00FFFF"/>
<path d="M377.52 254.12C379.293 254.12 380.73 252.683 380.73 250.91C380.73 249.137 379.293 247.7 377.52 247.7C375.747 247.7 374.31 249.137 374.31 250.91C374.31 252.683 375.747 254.12 377.52 254.12Z" fill="#00C5FF"/>
<path d="M388.98 235.75C389.946 235.75 390.73 234.966 390.73 234C390.73 233.034 389.946 232.25 388.98 232.25C388.013 232.25 387.23 233.034 387.23 234C387.23 234.966 388.013 235.75 388.98 235.75Z" fill="#00FFFF"/>
<path d="M336.24 221.53C337.206 221.53 337.99 220.746 337.99 219.78C337.99 218.814 337.206 218.03 336.24 218.03C335.273 218.03 334.49 218.814 334.49 219.78C334.49 220.746 335.273 221.53 336.24 221.53Z" fill="#00FFFF"/>
<path d="M343.31 181.21C344.276 181.21 345.06 180.427 345.06 179.46C345.06 178.494 344.276 177.71 343.31 177.71C342.343 177.71 341.56 178.494 341.56 179.46C341.56 180.427 342.343 181.21 343.31 181.21Z" fill="#00FFFF"/>
<path d="M420.63 236.07C421.597 236.07 422.38 235.287 422.38 234.32C422.38 233.354 421.597 232.57 420.63 232.57C419.664 232.57 418.88 233.354 418.88 234.32C418.88 235.287 419.664 236.07 420.63 236.07Z" fill="#54396D"/>
<path d="M393.63 267.52C394.597 267.52 395.38 266.736 395.38 265.77C395.38 264.803 394.597 264.02 393.63 264.02C392.664 264.02 391.88 264.803 391.88 265.77C391.88 266.736 392.664 267.52 393.63 267.52Z" fill="#54396D"/>
<path d="M437.84 239.21C438.806 239.21 439.59 238.427 439.59 237.46C439.59 236.494 438.806 235.71 437.84 235.71C436.873 235.71 436.09 236.494 436.09 237.46C436.09 238.427 436.873 239.21 437.84 239.21Z" fill="#54396D"/>
<path d="M387.21 263.7C388.176 263.7 388.96 262.917 388.96 261.95C388.96 260.984 388.176 260.2 387.21 260.2C386.243 260.2 385.46 260.984 385.46 261.95C385.46 262.917 386.243 263.7 387.21 263.7Z" fill="#54396D"/>
<path d="M413.8 247.01C414.766 247.01 415.55 246.226 415.55 245.26C415.55 244.293 414.766 243.51 413.8 243.51C412.833 243.51 412.05 244.293 412.05 245.26C412.05 246.226 412.833 247.01 413.8 247.01Z" fill="#00FFFF"/>
<path d="M357.05 215.35C358.016 215.35 358.8 214.567 358.8 213.6C358.8 212.634 358.016 211.85 357.05 211.85C356.083 211.85 355.3 212.634 355.3 213.6C355.3 214.567 356.083 215.35 357.05 215.35Z" fill="#00FFFF"/>
<path d="M400.4 259.8C400.903 259.8 401.31 259.393 401.31 258.89C401.31 258.387 400.903 257.98 400.4 257.98C399.897 257.98 399.49 258.387 399.49 258.89C399.49 259.393 399.897 259.8 400.4 259.8Z" fill="#54A9BA"/>
<path d="M369.79 261.03C370.646 261.03 371.34 260.336 371.34 259.48C371.34 258.624 370.646 257.93 369.79 257.93C368.934 257.93 368.24 258.624 368.24 259.48C368.24 260.336 368.934 261.03 369.79 261.03Z" fill="#54A9BA"/>
<path d="M351.29 229.31C352.146 229.31 352.84 228.616 352.84 227.76C352.84 226.904 352.146 226.21 351.29 226.21C350.434 226.21 349.74 226.904 349.74 227.76C349.74 228.616 350.434 229.31 351.29 229.31Z" fill="#00FFFF"/>
<path d="M364.04 256.72C363.53 256.24 363.42 255.65 363.12 254.94C362.77 254.12 362.25 254.13 361.89 254.95C361.59 255.65 361.4 256.32 360.89 256.8C360.47 257.19 359.6 257.68 359.11 257.89C358.71 258.06 358.72 258.68 359.14 258.81C361.08 259.39 361.49 260.08 361.96 261.28C362.21 261.91 362.76 261.93 363.01 261.3C363.47 260.13 363.9 259.47 365.91 258.67C366.33 258.5 366.31 257.9 365.89 257.74C365.3 257.52 364.52 257.16 364.04 256.72Z" fill="white"/>
<path d="M382.01 235.74C381.5 235.26 381.39 234.67 381.09 233.96C380.74 233.14 380.22 233.15 379.86 233.97C379.56 234.67 379.37 235.34 378.86 235.82C378.44 236.21 377.57 236.7 377.08 236.91C376.68 237.08 376.69 237.7 377.11 237.83C379.05 238.41 379.46 239.1 379.93 240.3C380.18 240.93 380.73 240.95 380.98 240.32C381.44 239.15 381.87 238.49 383.88 237.69C384.3 237.52 384.28 236.92 383.86 236.76C383.28 236.54 382.49 236.19 382.01 235.74Z" fill="white"/>
<path d="M368.58 235.74C368.07 235.26 367.96 234.67 367.66 233.96C367.31 233.14 366.79 233.15 366.43 233.97C366.13 234.67 365.94 235.34 365.43 235.82C365.01 236.21 364.14 236.7 363.65 236.91C363.25 237.08 363.26 237.7 363.68 237.83C365.62 238.41 366.03 239.1 366.5 240.3C366.75 240.93 367.3 240.95 367.55 240.32C368.01 239.15 368.44 238.49 370.45 237.69C370.87 237.52 370.85 236.92 370.43 236.76C369.84 236.55 369.05 236.19 368.58 235.74Z" fill="white"/>
<path d="M384.1 278.31C383.59 277.83 383.48 277.24 383.18 276.53C382.83 275.71 382.31 275.72 381.95 276.54C381.65 277.24 381.46 277.91 380.95 278.39C380.53 278.78 379.66 279.27 379.17 279.48C378.77 279.65 378.78 280.27 379.2 280.4C381.14 280.98 381.55 281.67 382.02 282.87C382.27 283.5 382.82 283.52 383.07 282.89C383.53 281.72 383.96 281.06 385.97 280.26C386.39 280.09 386.37 279.49 385.95 279.33C385.36 279.11 384.57 278.76 384.1 278.31Z" fill="white"/>
<path d="M416.91 278.12C416.57 277.8 416.49 277.4 416.29 276.93C416.06 276.38 415.7 276.38 415.47 276.94C415.27 277.41 415.14 277.86 414.8 278.18C414.52 278.44 413.94 278.77 413.61 278.91C413.34 279.02 413.35 279.44 413.63 279.52C414.93 279.91 415.21 280.37 415.52 281.18C415.69 281.6 416.05 281.61 416.22 281.19C416.53 280.4 416.82 279.97 418.16 279.43C418.44 279.32 418.43 278.91 418.14 278.81C417.76 278.65 417.23 278.42 416.91 278.12Z" fill="white"/>
<path d="M431.87 270.28C431.53 269.96 431.45 269.56 431.25 269.09C431.02 268.54 430.66 268.54 430.43 269.1C430.23 269.57 430.1 270.02 429.76 270.34C429.48 270.6 428.9 270.93 428.57 271.07C428.3 271.18 428.31 271.6 428.59 271.68C429.89 272.07 430.17 272.53 430.48 273.34C430.65 273.76 431.01 273.77 431.18 273.35C431.49 272.56 431.78 272.13 433.12 271.59C433.4 271.48 433.39 271.07 433.1 270.97C432.72 270.82 432.19 270.58 431.87 270.28Z" fill="white"/>
<path d="M446.35 302.18C446.01 301.86 445.93 301.46 445.73 300.99C445.5 300.44 445.14 300.44 444.91 301C444.71 301.47 444.58 301.92 444.24 302.24C443.96 302.5 443.38 302.83 443.05 302.97C442.78 303.08 442.79 303.5 443.07 303.58C444.37 303.97 444.65 304.43 444.96 305.24C445.13 305.66 445.49 305.67 445.66 305.25C445.97 304.46 446.26 304.03 447.6 303.49C447.88 303.38 447.87 302.97 447.58 302.87C447.2 302.72 446.67 302.48 446.35 302.18Z" fill="white"/>
<path d="M359.07 226.91C358.73 226.59 358.65 226.19 358.45 225.72C358.22 225.17 357.86 225.17 357.63 225.73C357.43 226.2 357.3 226.65 356.96 226.97C356.68 227.23 356.1 227.56 355.77 227.7C355.5 227.81 355.51 228.23 355.79 228.31C357.09 228.7 357.37 229.16 357.68 229.97C357.85 230.39 358.21 230.4 358.38 229.98C358.69 229.19 358.98 228.76 360.32 228.22C360.6 228.11 360.59 227.7 360.3 227.6C359.92 227.45 359.39 227.21 359.07 226.91Z" fill="white"/>
<path d="M370.94 190.11C370.44 189.64 370.51 188.99 369.91 188.19C369.38 188.9 369.35 189.68 368.83 190.16C368.55 190.42 367.97 190.75 367.64 190.89C367.37 191 367.38 191.42 367.66 191.5C369.38 192.02 369.31 192.66 369.91 194.05C370.49 192.65 370.42 192.11 372.2 191.4C372.48 191.29 372.47 190.88 372.18 190.78C371.79 190.65 371.26 190.41 370.94 190.11Z" fill="#00FFFF"/>
<path d="M354.09 199.87C353.59 199.4 353.66 198.75 353.06 197.95C352.53 198.66 352.5 199.44 351.98 199.92C351.7 200.18 351.12 200.51 350.79 200.65C350.52 200.76 350.53 201.18 350.81 201.26C352.53 201.78 352.46 202.42 353.06 203.81C353.64 202.41 353.57 201.87 355.35 201.16C355.63 201.05 355.62 200.64 355.33 200.54C354.94 200.41 354.41 200.17 354.09 199.87Z" fill="#00FFFF"/>
<path d="M347.19 230.82C346.69 230.35 346.76 229.7 346.16 228.9C345.63 229.61 345.6 230.39 345.08 230.87C344.8 231.13 344.22 231.46 343.89 231.6C343.62 231.71 343.63 232.13 343.91 232.21C345.63 232.73 345.56 233.37 346.16 234.76C346.74 233.36 346.67 232.82 348.45 232.11C348.73 232 348.72 231.59 348.43 231.49C348.04 231.35 347.51 231.12 347.19 230.82Z" fill="white"/>
<path d="M376.34 255.47C375.84 255 375.91 254.35 375.31 253.55C374.78 254.26 374.75 255.04 374.23 255.52C373.95 255.78 373.37 256.11 373.04 256.25C372.77 256.36 372.78 256.78 373.06 256.86C374.78 257.38 374.71 258.02 375.31 259.41C375.89 258.01 375.82 257.47 377.6 256.76C377.88 256.65 377.87 256.24 377.58 256.14C377.18 256.01 376.66 255.78 376.34 255.47Z" fill="white"/>
<path d="M343.11 198.09C342.77 197.77 342.69 197.37 342.49 196.9C342.26 196.35 341.9 196.35 341.67 196.91C341.47 197.38 341.34 197.83 341 198.15C340.72 198.41 340.14 198.74 339.81 198.88C339.54 198.99 339.55 199.41 339.83 199.49C341.13 199.88 341.41 200.34 341.72 201.15C341.89 201.57 342.25 201.58 342.42 201.16C342.73 200.37 343.02 199.94 344.36 199.4C344.64 199.29 344.63 198.88 344.34 198.78C343.95 198.63 343.43 198.39 343.11 198.09Z" fill="white"/>
<path d="M416.34 255.24C415.45 254.41 415.25 253.36 414.72 252.13C414.11 250.7 413.19 250.71 412.58 252.14C412.05 253.37 411.71 254.54 410.83 255.37C410.1 256.06 408.58 256.92 407.71 257.28C407.01 257.58 407.03 258.67 407.76 258.88C411.16 259.9 411.88 261.11 412.7 263.2C413.14 264.3 414.09 264.33 414.53 263.23C415.34 261.18 416.09 260.04 419.6 258.63C420.33 258.34 420.29 257.28 419.56 257.01C418.55 256.65 417.17 256.03 416.34 255.24Z" fill="white"/>
<path d="M247.55 141.65C249.08 139.56 251.67 136.16 254.36 136.99C256.77 137.74 254.22 144.98 256.29 145.23C257.69 145.4 261.96 146.08 261.94 150.38C261.92 155.81 267.66 150.71 270.92 153.37C273.82 155.74 272.5 158.48 274.91 161.18C276.27 162.7 286.03 161.06 281.23 170.66C292.09 166.21 305.3 152.74 305.01 147.06C304.88 144.45 300.77 145.05 300.27 142.94C299.83 141.08 303.99 137.87 302.98 135.36C301.47 131.62 297.51 132.47 296.33 128.75C295.51 126.48 299.14 121.98 295.23 120.22C292.61 119.03 286.88 121.94 285.36 120.98C281.69 118.67 285.28 110.91 280.89 108.9C277.23 106.71 270.6 116.32 268.39 115.43C266.8 114.47 263.93 107.5 260.16 110.66C255.03 114.97 253.23 122.81 251.98 128.97C251.31 132.39 249.63 137.43 247.55 141.65Z" fill="#365E78"/>
<path d="M261.43 112.34C263.68 112.78 265.06 117.23 267.18 117.81C270.68 119.48 276.79 109.72 279.68 111.28C283.35 112.85 279.77 120.75 284.15 123.36C286.53 124.77 291.4 121.4 294.02 122.6C296.4 123.69 293.62 130.64 295.54 132.68C297.1 134.47 299.91 134.05 301.57 136.24C302.28 137.17 301.99 138.92 301.75 139.61C302.67 138.18 303.97 135.72 303.03 134.39C301.04 131.58 297.55 132.55 296.37 128.82C295.55 126.55 299.18 122.05 295.27 120.29C292.65 119.1 287.05 121.91 285.4 121.05C282.33 119.44 285.32 110.98 280.93 108.97C277.27 106.78 270.64 116.39 268.43 115.5C266.84 114.54 263.65 107.61 259.75 110.61C258.14 111.84 256.85 113.99 255.85 116.11C256.56 114.97 259.4 111.95 261.43 112.34Z" fill="#8CFFFF"/>
<path d="M299.06 145.33C299.56 147.44 303.33 147.04 303.97 149.57C304.12 150.18 303.78 151.37 303.62 151.88C304.61 150.56 306.19 147.54 305.42 146.42C303.93 144.28 300.81 145.12 300.31 143C300.25 142.75 300.28 142.48 300.36 142.18C299.59 143.39 298.86 144.5 299.06 145.33Z" fill="#8CFFFF"/>
<path d="M300.54 319.49C300.54 319.49 301.7 349.36 280.37 359.05L302.38 353.02C302.38 353.02 308.69 342.96 300.54 319.49Z" fill="#99E7FF"/>
<path d="M107.65 302.55C107.65 302.55 98.99 305.92 94.04 320.28C94.04 320.28 93.17 305.75 102.55 295.09C102.55 295.08 108.23 302.53 107.65 302.55Z" fill="#99E7FF"/>
<path d="M123.29 322.21C119.32 319.95 109.62 314.65 100.68 302.28C91.68 289.83 90.63 272.92 95.58 273.3C97.9 273.48 98.76 276.93 99.34 278.99C98.11 277.29 98.56 267.74 102.95 266.57C105.72 265.84 107.16 267.48 108.26 269.65C107 259.53 114.69 259.06 119.16 267.28C121.93 272.37 124.94 280.9 128.5 287.42C136.02 301.19 144.73 305.25 157.9 316.39L123.29 322.21Z" fill="#56D7E4"/>
<path d="M123.93 323.48L154.42 318.35C143.33 309.44 135.59 304.91 128.82 292.51C125.26 285.99 122.36 278.55 119.48 272.37C117.31 267.71 113.65 263.86 110.45 265.91C108.05 267.45 109 274.17 109.12 275.12C108.02 272.95 104.69 268.96 101.49 270.61C97.95 272.44 99.47 283.46 99.65 284.08C98.99 281.47 97.88 278.75 95.89 278.39C94.61 278.16 93.74 279.18 93.3 281.03C92.88 285.87 95.97 296.17 101.3 303.55C110.25 315.92 119.96 321.23 123.93 323.48Z" fill="#335B78"/>
<path d="M189.23 336.37C189.23 350.99 153.74 353.24 131.05 349.17C113.5 346.02 96.14 333.83 96.14 319.21C96.14 304.59 114.9 297.19 132.5 295.94C160.78 293.91 189.23 321.75 189.23 336.37Z" fill="white"/>
<path d="M103.51 328.22C103.51 328.22 99.83 354.21 122.9 363.32L120.57 377.09C120.57 377.09 101.76 366.42 100.21 342.96C100.21 342.96 99.44 334.04 103.51 328.22Z" fill="#99E7FF"/>
<path d="M83.05 128.37C83.57 132.16 91.16 154.23 96.29 160.81C106.04 173.32 120.12 167.6 126.4 158.48C130.06 153.17 134.3 143.25 136.87 135.35C138.67 129.82 138.33 128.02 138.32 122.26L83.05 128.37Z" fill="#34A4BD"/>
<path d="M115.92 80.52C107.48 77.32 98.12 79.52 91.76 84.59C85.37 89.68 82.33 96.63 82.46 96.81C77.66 98.99 61.91 102.76 50.09 103.8C21.95 106.27 5.52003 98.99 0.860027 106.99C-0.279972 109.58 -2.31997 115.71 10.17 118.04C21.08 120.08 36.96 118.88 44.38 118.55C50.81 118.26 70.67 117.05 77.42 117.5L56.53 130.46C56.53 130.46 55.84 134.42 60.49 135.47C62.96 136.03 67.74 134.92 74.61 133.18C77.01 132.57 80.81 131.56 83.61 131.26C83.61 131.26 93.32 156.1 113.39 153.48C113.39 153.48 140.55 149.61 141.04 114.88C141.04 114.88 141.82 102.16 131.06 96.05C131.07 96.05 128.19 85.17 115.92 80.52Z" fill="#CA0084"/>
<path d="M137.05 101.42C140.65 107.32 140.1 113.78 140.1 113.78C139.61 148.51 112.45 152.38 112.45 152.38C100.53 153.94 92.26 145.8 87.52 138.94C92.09 146.01 100.63 155.3 113.3 153.65C113.3 153.65 140.46 149.78 140.95 115.05C140.95 115.06 141.55 107.63 137.05 101.42Z" fill="#A5006B"/>
<path d="M77.42 117.51L63.66 126.04C68.47 125.21 73.32 124.14 77.9 123.07C88.89 120.51 100.13 119.17 110.96 116.3C113.77 115.56 107.47 119.29 110.3 118.51C118.06 116.38 124.44 113.44 127.84 110.87C129.22 109.82 135.04 106.35 134.34 104.13C133.47 101.4 127.2 105.88 125.42 106.85C118.97 110.34 111.98 112.19 103.99 112.96C94.97 113.83 91.43 113.59 80.57 113.98C70.69 114.33 60.46 114.56 50.46 115.14C39.31 115.79 28.64 116.45 17.73 116.3C10.74 116.21 3.18 114.85 0 110.91C0.18 113.57 2.26 116.57 10.16 118.04C21.07 120.08 36.95 118.88 44.37 118.55C50.81 118.27 70.67 117.06 77.42 117.51Z" fill="#A5006B"/>
<path d="M77.04 117.51C75.89 117.91 73.14 119.03 70.54 120.2C62.58 123.76 55.09 128.91 56.73 131.56C58.13 134.29 75.02 127.8 83.63 125.56C85.89 124.97 90.15 123.74 94.5 122.74C105.38 120.23 119.53 116.72 124.17 110.63C111.07 116.64 88.57 116.15 77.04 117.51Z" fill="#FF00B3"/>
<path d="M97.1 149.36C100.83 151.97 106.98 153.45 111.51 153.48C114.55 153.5 117 152.33 117 152.33C117 152.33 113.44 137.43 106.41 132.47C100.86 128.56 90.12 130.12 83.59 131.33C83.59 131.33 87.59 142.82 97.1 149.36Z" fill="#A5006B"/>
<path d="M14.83 112.52C33.08 112.6 70.54 110.52 80.28 110.34C88.13 110.19 98.66 110.34 110.78 108.5C116.71 107.6 120.77 105.01 124.83 102.23C125.49 101.78 128.72 100.22 131.19 99.87C134.4 99.41 136.62 100.81 136.62 100.81C136.62 100.81 135.19 99.01 133.64 97.77C131.25 95.52 129.99 93.02 129.23 91.73C127.16 88.18 122.72 82.89 116.11 80.55C107.6 77.55 97.91 79.71 91.55 84.78C85.16 89.87 82.43 96.59 82.56 96.77C77.76 98.95 62.09 101.55 50.27 102.59C22.13 105.06 5.71002 99.2 1.06002 107.2C0.840024 107.71 0.580024 108.36 0.400024 109.08C2.18002 111.35 3.85003 112.47 14.83 112.52Z" fill="#FB2CA8"/>
<path d="M82.47 96.81C82.47 96.81 90.88 91.86 91.77 84.59C91.76 84.59 85.67 88.52 82.47 96.81Z" fill="#CA0084"/>
<path d="M163.93 304.25C163.93 304.25 172.38 320.84 179.49 329.34C179.49 329.34 186.79 319.97 197.41 314.02L163.93 304.25Z" fill="#335B78"/>
<path d="M80.97 104.39C78.3 105.57 70.19 105.9 70.27 104.62C70.29 103.66 76.04 102.82 80.39 103.14C81.86 103.23 82.79 103.58 80.97 104.39Z" fill="#321C45"/>
<path d="M80.38 103.13C76.03 102.82 70.28 103.66 70.26 104.61C70.25 104.75 70.35 104.87 70.52 104.97C72.49 104.42 76.21 104.07 79.25 104.29C79.81 104.33 80.3 104.41 80.58 104.53C80.71 104.48 80.85 104.44 80.97 104.38C82.78 103.58 81.85 103.24 80.38 103.13Z" fill="#CA0084"/>
<path d="M175.89 6.05L177.38 2.31L255.53 63.97L249.66 74.78L308.44 142.97L301.52 158.37L350.26 219.3L346.94 221.3L258.08 140.91L267.24 129.37L223.3 84.99L230.91 67L175.89 6.05Z" fill="#00FFFF"/>
<path d="M177.37 2.3L258.86 61.98L252.99 72.78L311.77 140.98L304.84 156.38L350.27 219.31L261.4 138.92L270.56 127.37L226.63 82.99L234.23 65L177.37 2.3Z" fill="white"/>
<path d="M253.63 127.11C255.62 126.13 256.69 123.72 258.51 122.38C260.63 120.82 263.6 119.31 266.11 118.49C269.56 117.37 274.93 116.78 278.24 118.53C287.26 123.3 272.6 129.4 269.13 131.14C265.38 133.02 264 133.77 260.27 137.09" fill="#365E78"/>
<path d="M258.51 125.26C260.63 123.7 262.89 122.22 265.4 121.4C268.85 120.28 274.93 119.66 278.24 121.41C279.26 121.95 279.97 122.51 280.43 123.08C281.28 121.05 280.79 119.78 277.87 118.32C274.52 116.65 268.08 116.98 264.63 118.1C262.12 118.92 259.92 120.52 258.06 122.39C254.23 126.24 254.64 129.32 254.64 129.32C255.88 127.78 257.03 126.36 258.51 125.26Z" fill="#4A7A90"/>
<path d="M282.96 107.55C282.96 107.55 282.71 115.45 284.46 118.94C286.71 123.43 290.28 121.35 290.07 118.01C290.19 121.6 290.09 125.68 292.21 128.73C294.66 132.25 299.67 130.58 300.58 128.67C301 132.66 301.96 136.78 303.57 137.65C307.73 139.89 311.62 131.7 309.97 127.67C308.64 124.44 305.6 120.64 305.6 120.64C305.6 120.64 305.56 113.24 300.47 109.78C299.28 108.94 298.45 108.8 297.4 108.21C295.64 107.22 295.86 104.72 293.94 102.8C288.74 97.6 282.57 100.05 277.77 101.53L282.96 107.55Z" fill="#365E78"/>
<path d="M306.1 124.17C306.1 124.17 308.91 127.68 310.31 130.83C310.43 129.69 310.34 128.6 309.97 127.71C308.67 124.53 305.71 120.82 305.61 120.69C306.09 122.66 306.1 124.17 306.1 124.17Z" fill="#4A7A90"/>
<path d="M294.44 106.33C296.36 108.25 296.14 110.75 297.9 111.74C298.94 112.33 299.78 112.47 300.97 113.31C303.75 115.2 305.02 118.26 305.6 120.65C305.6 120.36 305.46 113.21 300.47 109.82C299.28 108.98 298.45 108.84 297.4 108.25C295.64 107.26 295.86 104.76 293.94 102.84C288.74 97.64 282.57 100.09 277.77 101.57L280.24 104.44C284.69 103.07 289.93 101.82 294.44 106.33Z" fill="#4A7A90"/>
<path d="M284.74 117.57C282.99 114.08 283.24 106.18 283.24 106.18L278.5 101.3C278 101.46 277.98 101.47 277.76 101.54L282.78 107.8C282.78 107.8 282.53 115.7 284.28 119.19C286.4 123.43 289.9 121.57 290.1 118.57C289.08 120.36 286.44 120.95 284.74 117.57Z" fill="#00FFFF"/>
<path d="M304.02 136.2C302.41 135.33 301.44 131.21 301.03 127.22C300.12 129.13 295.1 130.8 292.66 127.28C290.54 124.23 290.64 120.15 290.52 116.56C290.55 117.48 290.21 118.22 290.07 118.69C290.17 122.15 290.17 125.99 292.19 128.9C294.64 132.42 299.65 130.75 300.56 128.84C300.98 132.83 301.94 136.95 303.55 137.82C306.53 139.43 309.37 135.68 310.14 131.94C309.02 135.03 306.57 137.57 304.02 136.2Z" fill="#00FFFF"/>
<path d="M279.32 119.17C280.06 119.73 280.64 120.93 280.31 121.77C279.53 123.75 276.02 124.94 273.71 126.17C271.19 127.51 268.85 128.73 266.84 130.31C265.56 131.31 264.03 133.57 262.85 134.96C262.85 134.96 265.39 133.18 269.14 131.31C271.41 130.17 279.01 127.07 280.97 123.65C281.81 122.18 281.24 120.28 279.32 119.17Z" fill="#00FFFF"/>
</g>
<defs>
<linearGradient id="paint0_linear" x1="45.4886" y1="235.392" x2="132.35" y2="235.392" gradientUnits="userSpaceOnUse">
<stop offset="0.3847" stop-color="#00BDD3"/>
<stop offset="0.5489" stop-color="#00B7CF"/>
<stop offset="0.7651" stop-color="#00A7C5"/>
<stop offset="0.9398" stop-color="#0094B9"/>
</linearGradient>
<linearGradient id="paint1_linear" x1="207.521" y1="66.362" x2="207.521" y2="316.153" gradientUnits="userSpaceOnUse">
<stop offset="0.2086" stop-color="#00C7DA"/>
<stop offset="0.3941" stop-color="#00C1D6"/>
<stop offset="0.6382" stop-color="#00B1CB"/>
<stop offset="0.845" stop-color="#009DBD"/>
<stop offset="0.9902" stop-color="#0086B5"/>
</linearGradient>
<linearGradient id="paint2_linear" x1="209.547" y1="197.009" x2="212.825" y2="197.009" gradientUnits="userSpaceOnUse">
<stop offset="0.1276" stop-color="#44CEEC"/>
<stop offset="0.8507" stop-color="#009DB3"/>
</linearGradient>
<linearGradient id="paint3_linear" x1="228.634" y1="133.11" x2="263.94" y2="182.98" gradientUnits="userSpaceOnUse">
<stop offset="0.3847" stop-color="#00BDD3"/>
<stop offset="0.5489" stop-color="#00B7CF"/>
<stop offset="0.7651" stop-color="#00A7C5"/>
<stop offset="0.9398" stop-color="#0094B9"/>
</linearGradient>
<clipPath id="clip0">
<rect width="451.04" height="396.21" fill="white"/>
</clipPath>
</defs>
</svg>
