<svg width="400" height="455" viewBox="0 0 400 455" fill="none" xmlns="http://www.w3.org/2000/svg">
<path d="M159.764 373.594C104.773 380.768 85.2474 399.496 120.314 423.804C160.917 451.947 251 455.449 284.091 454.886C424.756 452.495 406.72 402.916 385.704 392.324C335.895 367.219 268.171 373.091 241.931 371.603C226.946 370.749 190.138 369.633 159.764 373.594Z" fill="#D5EAEF"/>
<path d="M133.565 389.236C132.616 389.85 131.868 390.73 131.416 391.767C130.964 392.803 130.828 393.95 131.024 395.063C131.595 399.712 133.888 403.978 137.45 407.018C137.45 407.018 148.806 419.57 179.142 419.57C189.306 418.966 199.209 416.107 208.131 411.201C215.284 406.557 222.834 402.557 230.694 399.248C230.694 399.248 239.502 396.408 238.465 391.028C238.465 391.028 238.765 385.052 235.328 383.556" fill="#E300AB"/>
<path d="M307.504 408.657C314.676 423.301 312.285 433.762 312.285 433.762C310.541 448.332 286.484 449.452 286.484 449.452C235.377 451.25 222.328 439.44 222.328 439.44C219.988 437.233 218.506 434.268 218.143 431.071C217.547 422.406 221.431 420.91 221.431 420.91L307.504 408.657Z" fill="#E300AB"/>
<path d="M292.659 139.939C306.171 146.933 315.003 160.304 323.022 173.233C328.534 182.121 333.95 191.068 339.269 200.075C340.576 201.964 341.451 204.119 341.83 206.385C341.993 207.521 341.79 208.679 341.249 209.691C340.709 210.704 339.86 211.517 338.825 212.013C350.347 223.499 357.375 238.731 358.638 254.951C359.178 262.236 358.416 269.938 354.429 276.06C350.158 282.619 342.765 286.494 335.306 288.86C326.369 291.696 316.202 292.645 307.943 288.207C302.696 285.387 298.749 280.689 295.054 276.017C270.478 244.94 250.958 210.182 237.213 173.023C234.767 166.401 232.479 159.542 232.641 152.482C232.964 138.506 220.024 124.554 231.97 124.143C245.8 123.667 279.975 133.375 292.659 139.939Z" fill="black"/>
<path d="M34.3339 113.586C39.5303 118.766 49.562 125.18 56.04 128.625C61.9716 131.778 63.929 132.121 70.5526 133.23C74.5717 133.905 78.9664 134.361 82.484 132.305C86.0016 130.249 87.5709 124.646 84.4001 122.086C91.1136 116.773 97.2448 118.626 94.8919 110.403C91.4624 98.4012 78.2494 80.761 70.3532 72.2591C60.1652 61.2946 51.4114 51.3511 41.396 40.1709C33.1726 30.9896 21.5756 30.3928 20.774 39.5724C20.5354 43.834 21.1464 48.1006 22.5714 52.124C25.0645 59.0136 28.5444 66.4048 28.5444 66.4048C26.8961 66.8811 26.2956 69.2807 25.9847 70.9757C25.7774 72.6821 25.8871 74.4121 26.3083 76.0787C25.2576 76.6571 24.3791 77.504 23.7624 78.5327C23.1457 79.5615 22.8129 80.7354 22.7979 81.9347C22.8007 84.3357 23.3711 86.702 24.4624 88.8406C24.745 89.3514 24.9032 89.9216 24.9242 90.505C24.7974 91.1916 24.5239 91.8427 24.1225 92.4139C22.1956 96.0466 24.0488 100.502 26.2291 103.982C28.5952 107.452 31.311 110.67 34.3339 113.586Z" fill="#9000A6"/>
<path d="M31.0067 108.756C28.8264 105.269 26.9732 100.82 28.9001 97.1891C29.3014 96.6172 29.5746 95.9655 29.7016 95.2784C29.6814 94.6955 29.5232 94.1256 29.2397 93.6158C28.1481 91.4767 27.5783 89.1096 27.577 86.7082C27.5916 85.5092 27.924 84.3356 28.5404 83.3071C29.1568 82.2786 30.0352 81.432 31.0857 80.8539C30.6645 79.1867 30.5549 77.4561 30.7622 75.7491C31.0732 74.0631 31.6753 71.6563 33.3217 71.18C33.3217 71.18 29.8436 63.7871 27.3488 56.8992C25.9247 52.875 25.3138 48.608 25.5513 44.3458C26.2074 36.8414 34.0749 35.8798 41.4175 40.7886L41.3923 40.7599C33.1689 31.5803 21.5717 30.9817 20.77 40.1631C20.5316 44.4248 21.1425 48.6913 22.5675 52.7148C25.0606 59.6026 28.5404 66.9955 28.5404 66.9955C26.8922 67.4718 26.2919 69.8714 25.9809 71.5646C25.7737 73.2716 25.8832 75.0022 26.3044 76.6694C25.2535 77.2477 24.375 78.0945 23.7583 79.1233C23.1416 80.1521 22.8087 81.3261 22.7939 82.5255C22.7968 84.9264 23.3671 87.2927 24.4584 89.4313C24.7411 89.9415 24.8995 90.5111 24.9205 91.094C24.7936 91.781 24.5201 92.4327 24.1188 93.0047C22.1919 96.6373 24.0451 101.093 26.2254 104.571C28.5917 108.045 31.3087 111.266 34.3337 114.184C35.7774 115.594 37.3024 116.919 38.901 118.151C35.9576 115.295 33.3125 112.147 31.0067 108.756Z" fill="#C41ACD"/>
<path d="M42.0446 77.4512C40.2172 78.0104 38.5756 79.0551 37.2952 80.4739C36.0147 81.8926 35.1433 83.6323 34.7739 85.5073C34.6701 87.306 35.0159 89.1022 35.7797 90.7339C36.5434 92.3657 37.7012 93.7816 39.1488 94.8541C42.0632 96.9649 45.3124 98.5697 48.7599 99.6012L63.6481 104.976C60.0965 101.69 56.7614 98.1784 53.6634 94.4622C51.821 92.255 49.9768 89.7206 50.0487 86.8464C50.1581 85.5627 50.5553 84.3202 51.2109 83.2111C51.8666 82.102 52.7638 81.155 53.8358 80.4403C55.9886 79.0292 58.3439 77.9545 60.8207 77.2534C58.9352 77.8915 54.4309 76.6711 52.193 76.6297C48.7885 76.2796 45.3486 76.558 42.0446 77.4512Z" fill="#C41ACD"/>
<path d="M70.6921 125.29C73.8916 124.245 72.797 120.882 75.6424 118.957C77.9341 117.408 80.4434 117.74 81.5021 117.264C82.7297 116.714 84.581 113.531 86.5241 111.888C89.6948 109.202 91.1561 112.932 91.7007 104.407L148.549 142.437C153.777 145.935 159.015 149.438 164.546 152.431C171.968 156.447 179.865 159.516 188.051 161.566C184.164 176.426 177.092 190.263 167.325 202.118C159.706 198.735 159.094 198.453 151.475 195.07C146.801 193.388 142.259 191.358 137.888 188.997C114.809 175.501 92.2975 161.136 71.7131 144.071C65.7653 139.143 63.8042 135.697 55.8379 128.523C60.8582 126.402 69.3117 125.737 70.6921 125.29Z" fill="#1ED0DF"/>
<path d="M183.244 364.89C184.142 364.89 186.12 364.05 186.797 364.095C187.744 364.157 188.055 363.903 188.965 363.998C190.351 364.14 191.472 364.583 192.788 364.795C194.267 365.032 196.166 363.932 197.569 364.245C199.41 364.654 200.731 366.502 202.467 367.018C203.983 367.469 205.523 372.702 206.781 373.194C208.07 373.699 210.446 377.046 211.164 377.578C212.736 378.746 219.516 376.464 220.12 376.89C224.42 379.909 226.55 379.611 228.059 379.57C228.996 379.545 231.403 378.45 232.298 378.77C230.233 364.992 227.116 346.933 230.362 333.683C231.78 327.893 234.192 322.373 235.059 316.456C235.321 315.238 235.256 313.973 234.87 312.789C234.375 311.737 233.649 310.811 232.746 310.078C226.505 304.443 217.918 302.056 209.729 299.878C204.104 298.077 198.241 297.129 192.335 297.065C186.943 297.291 183.537 290.245 180.418 294.471C177.433 298.515 175.065 314.798 174.975 319.603C174.697 334.396 178.797 350.406 183.244 364.89Z" fill="#26E4EE"/>
<path d="M235.053 316.104C235.318 314.887 235.256 313.622 234.873 312.437C234.378 311.385 233.651 310.458 232.747 309.727C226.508 304.092 217.92 301.705 209.731 299.528L208.169 299.115C208.1 301.531 207.758 303.932 207.149 306.272C205.532 312.18 201.673 317.526 201.302 323.804C201.025 328.506 203.998 332.035 205.55 336.386C197.49 334.449 207.798 350.946 208.882 350.68C207.232 351.077 207.644 353.39 208.388 354.906L216.836 372.071C218.013 373.964 219.355 375.748 220.848 377.403C222.954 379.511 226.934 380.703 232.129 379.074C230.065 365.297 227.117 346.591 230.364 333.34C231.775 327.541 234.192 322.021 235.053 316.104Z" fill="#1ED0DF"/>
<path d="M158.731 87.0539C131.911 86.7897 120.644 91.312 108.582 102.136C93.0804 116.054 92.8702 136.858 103.177 154.956C107.505 162.554 112.344 164.17 119.438 169.296C127.016 174.779 133.998 189.967 138.955 199.411C145.942 212.739 155.851 282.725 176.232 307.592C219.995 361.004 280.995 357.684 308.446 358.847C344.19 360.362 394.963 357.358 394.963 357.358C396.305 355.305 397.207 352.995 397.612 350.575C398.018 348.155 397.917 345.678 397.317 343.299C396.437 339.727 392.159 328.56 372.234 323.385C356.968 319.414 335.755 315.945 331.588 309.836C326.762 302.755 328.317 280.577 300.248 222.012C297.192 215.627 263.749 159.15 257.24 150.484C245.903 134.851 232.445 120.873 217.252 108.952C199.682 94.7667 181.546 87.2732 158.731 87.0539Z" fill="#1ED0DF"/>
<path d="M323.621 375.586C359.365 377.101 391.431 370.14 396.942 353.271C384.666 354.072 374.456 351.687 362.171 351.044C356.902 350.769 340.261 353.161 335.69 350.531C333.596 349.327 331.24 347.628 329.013 348.567C328.271 348.879 320.432 346.221 319.638 346.367C318.872 346.507 308.928 338.098 308.208 337.809C300.628 334.681 300.259 334.14 292.679 331.013C290.429 331.897 281.021 320.672 281.019 321.486C269.311 317.334 275.37 319.394 265.583 311.749C264.134 310.617 253.5 297.941 252.461 299.451C246.939 295.391 239.654 294.152 234.127 290.09C226.643 287.333 220.788 292.179 214.894 286.806C214.549 287.798 214.205 288.791 213.861 289.785L194.368 280.353C193.226 279.646 191.887 279.324 190.548 279.435C189.239 279.694 188.143 281.254 188.855 282.381C187.744 282.426 186.636 282.232 185.606 281.813C184.576 281.393 183.648 280.759 182.884 279.951C181.358 278.323 179.417 277.142 177.27 276.536C175.074 276.196 172.437 278.026 172.978 280.179C169.655 278.094 166.605 275.603 163.899 272.763L163.622 277.657C160.351 275.569 160.225 270.778 157.852 267.708C157.771 269.376 164.862 294.778 176.752 310.001C219.244 364.442 296.17 374.423 323.621 375.586Z" fill="#1ED0DF"/>
<path d="M246.935 393.688C248.573 392.154 249.872 390.812 250.843 390.849C251.625 390.88 252.299 390.443 253.061 390.49C254.129 390.56 256.415 393.754 257.445 393.862C259.005 394.024 259.282 391.119 260.765 391.358C262.431 391.626 264.57 390.386 266.157 390.738C268.231 391.2 269.72 393.281 271.673 393.862C273.379 394.369 275.912 393.418 277.549 393.997C279.007 394.511 279.575 396.547 280.993 397.103C282.153 397.644 283.466 397.759 284.701 397.428C285.749 397.049 286.844 399.502 287.61 399.83C292.463 401.9 297.386 399.772 302.433 401.712C303.418 402.091 304.272 406.744 305.279 407.104C302.955 391.586 299.444 371.245 303.098 356.32C304.696 349.799 300.501 344.067 291.277 341.614C284.831 339.901 255.083 324.448 248.524 324.718C242.449 324.973 240.975 331.571 240.714 340.456C240.211 357.124 241.922 377.381 246.935 393.688Z" fill="#26E4EE"/>
<path d="M304.31 353.698C304.606 351.208 304.537 348.688 304.105 346.217C303.632 345.033 295.616 343.807 294.635 342.921C287.607 336.574 295.476 342.527 286.253 340.076C285.667 339.919 279.603 331.868 279.017 331.714C278.9 334.45 274.296 326.841 273.579 329.454C271.751 336.105 270.764 338.124 270.344 345.195C270.031 350.49 273.376 354.466 275.127 359.357C266.048 357.175 277.659 375.75 278.88 375.455C277.021 375.902 277.483 378.511 278.323 380.214L287.84 399.548C288.919 400.006 295.071 406.971 295.993 407.317C296.533 407.516 306.809 407.759 307.653 408.062C305.329 392.543 299.421 370.855 303.075 355.924C304.679 349.404 303.336 360.362 304.31 353.698Z" fill="#1ED0DF"/>
<path d="M147.144 99.6362C151.18 98.9046 157.417 107.545 161.452 106.81C160.953 107.579 171.548 107.399 177.563 108.643C178.594 108.857 199.632 111.879 199.979 112.488C200.326 113.097 216.366 118.292 224.652 121.179C224.102 121.292 223.597 121.564 223.201 121.963C222.804 122.361 222.534 122.867 222.423 123.418L235.322 133.723L234.209 135.808C237.95 137.765 241.384 140.259 244.403 143.21C247.926 146.51 251.133 150.132 254.332 153.747C265.997 166.924 276.707 186.978 288.37 200.157C277.999 186.239 261.728 156.511 256.936 150.128C245.599 134.497 232.14 120.519 216.949 108.598C214.936 106.833 212.814 105.197 210.596 103.698C213.292 103.632 214.702 103.431 217.851 103.168C213.662 101.863 209.41 100.771 205.11 99.895C207.964 100.22 210.846 100.19 213.692 99.8069C206.849 98.9082 182.375 88.9467 170.824 87.5842C166.713 87.0209 162.571 86.7207 158.422 86.6855C131.604 86.4212 120.335 90.9437 108.273 101.768C103.439 106.127 147.144 99.6362 147.144 99.6362Z" fill="#26E4EE"/>
<path d="M173.207 116.42C173.864 107.333 168.128 99.5127 160.394 98.9534C152.66 98.3942 145.858 105.308 145.201 114.395C144.543 123.482 150.28 131.302 158.014 131.861C165.748 132.421 172.55 125.507 173.207 116.42Z" fill="#26C9DA"/>
<path d="M209.973 314.617C249.424 321.79 267.355 313.323 267.355 313.323C275.325 308.241 283.694 303.061 262.973 278.355C261.073 276.09 207.417 251.591 207.266 250.958C206.212 246.221 204.892 241.548 203.312 236.96C202.036 233.649 200.632 240.195 200.578 239.37C199.458 236.532 192.849 222.114 191.736 219.276C190.048 215 189 224.969 187.313 220.693C185.05 214.964 182.788 209.234 180.525 203.505L177.394 204.812C171.015 196.51 166.473 183.273 157.655 177.277C148.836 171.281 134.697 170.267 125.033 174.121C124.732 174.241 124.432 174.369 124.134 174.505C129.763 181.531 134.843 192.343 138.693 199.67C143.895 209.592 150.456 250.829 161.911 281.527C164.571 288.679 183.601 309.823 209.973 314.617Z" fill="#26E4EE"/>
<path d="M333.483 311.928C333.483 311.928 339.861 326.668 366.556 332.051C366.556 332.051 384.488 334.747 393.159 335.646C393.159 335.646 388.277 328.373 375.626 324.288C375.625 324.281 335.876 312.626 333.483 311.928Z" fill="#26E4EE"/>
<path d="M130.706 118.908C136.24 116.998 141.551 114.492 146.545 111.436C146.545 111.436 159.993 97.6889 157.752 94.6997L118.154 104.406L130.706 118.908Z" fill="#26B8D0"/>
<path d="M171.511 117.459C172.168 108.372 166.431 100.552 158.697 99.9928C150.964 99.4335 144.161 106.347 143.504 115.434C142.847 124.521 148.584 132.342 156.318 132.901C164.052 133.46 170.854 126.547 171.511 117.459Z" fill="#B6F7FA"/>
<path d="M170.877 116.826C171.416 109.378 166.714 102.969 160.375 102.511C154.036 102.053 148.461 107.718 147.922 115.166C147.384 122.614 152.086 129.023 158.425 129.481C164.763 129.94 170.339 124.274 170.877 116.826Z" fill="#453772"/>
<path d="M153.027 107.684C154.368 107.684 155.455 106.596 155.455 105.255C155.455 103.914 154.368 102.827 153.027 102.827C151.686 102.827 150.599 103.914 150.599 105.255C150.599 106.596 151.686 107.684 153.027 107.684Z" fill="white"/>
<path d="M164.257 123.792C164.403 121.783 162.206 119.987 159.352 119.781C156.497 119.574 154.066 121.036 153.92 123.044C153.775 125.053 155.971 126.849 158.826 127.056C161.68 127.262 164.112 125.801 164.257 123.792Z" fill="#5371A0"/>
<path d="M127.516 118.584C130.032 124.336 134.139 123.991 138.027 128.923C143.035 135.273 152.457 135.394 156.857 136.693C167.392 139.799 168.361 148.017 168.762 154.084C170.07 173.726 150.753 193.103 136.875 192.968C133.999 192.939 131.927 191.566 129.647 188.676C126.176 183.684 122.987 178.502 120.096 173.154C120.096 173.154 119.177 150.837 116.21 151.128C100.392 152.687 74.169 154.004 50.7823 155.43C24.4586 156.418 3.22172 157.459 0.209191 146.419C-1.87585 138.784 12.3492 135.455 20.2256 134.662C37.7058 132.922 81.0192 132.077 93.8782 124.889C102.346 120.155 123.773 110.042 127.516 118.584Z" fill="#CC00A4"/>
<path d="M24.3883 141.576C38.1047 140.445 67.3636 139.124 84.3801 137.125C108.097 134.338 127.303 132.272 137.288 129.9C139.477 129.382 135.895 126.765 132.723 121.527C130.868 118.472 127.12 106.509 119.274 104.043C115.75 102.671 111.882 102.447 108.223 103.403C98.6968 106.163 94.3828 122.773 82.5771 127.31C75.5491 130.006 36.5625 131.69 19.2369 134.575C-2.56266 138.204 0.102924 146.479 0.102924 146.479C0.102924 146.479 4.82481 143.19 24.3883 141.576Z" fill="#EF00C3"/>
<path d="M139.713 171.101C134.268 164.697 125.171 157.845 115.391 157.496C111.241 157.349 78.2559 169.487 74.4093 168.324C72.0829 167.662 69.6699 167.354 67.2518 167.411C60.5347 168.245 55.644 169.388 55.8345 171.117C57.1251 182.801 119.804 173.756 119.804 173.756C119.804 173.756 126.471 184.321 129.922 188.698C132.201 191.588 134.283 193.084 137.15 192.99C142.278 192.822 145.11 190.873 147.895 189.593C147.153 182.729 144.294 176.266 139.713 171.101Z" fill="#EF00C3"/>
<path d="M117.607 165.586C102.688 169.361 58.7978 173.447 55.9669 170.659C55.9669 170.659 54.6456 167.181 100.272 152.237C100.272 152.237 112.254 151.257 121.52 149.684C130.563 148.147 141.254 146.14 146.114 144.642C146.118 144.642 147.493 158.015 117.607 165.586Z" fill="#88007F"/>
<path d="M97.3594 113.299C103.285 113.56 109.09 115.059 114.401 117.699C114.401 117.699 122.547 123.974 131.351 118.822C131.351 118.822 126.762 105.521 118.71 103.56L108.222 100.001C104.33 104.205 100.702 108.646 97.3594 113.299Z" fill="#CC00A4"/>
<path d="M67.8965 100.002C71.27 102.944 75.3572 104.948 79.7489 105.813C87.176 107.318 97.6048 106.025 110.126 102.937L111.156 95.3879C111.156 95.3879 85.0155 98.9307 71.3404 99.4753C70.1767 99.5245 69.0218 99.7011 67.8965 100.002Z" fill="#909094"/>
<path d="M67.8981 100C72.4787 99.406 77.1288 99.6386 81.6272 100.687C88.1915 102.445 94.2884 107.621 106.588 107.621C106.588 107.621 111.111 107.621 118.619 106.902C126.003 106.183 135.49 103.568 152.274 99.8383C152.274 99.8383 192.985 97.7352 203.281 97.0486C203.281 97.0486 203.281 96.6514 202.085 81.5078C202.085 81.5078 201.613 58.5849 181.636 53.3417C184.384 53.6563 172.51 51.76 159.845 50.4263C152.274 49.63 146.298 50.4263 139.324 50.6258C139.324 50.6258 119.012 51.219 111.271 62.3308C108.436 66.4002 106.957 71.9562 106.448 78.5205C106.448 78.5205 107.095 78.995 107.78 94.0972C107.78 94.0972 77.928 97.6508 69.169 99.4356C68.3026 99.6064 67.8568 99.7969 67.8981 100Z" fill="black"/>
<path d="M106.08 94.283C106.44 94.3082 106.787 94.3513 107.137 94.3657C108.855 94.4376 126.923 94.594 126.923 95.295C125.962 89.9584 125.043 84.2245 127.315 79.2977C128.365 77.6704 129.064 75.8417 129.366 73.9287C129.388 72.0216 128.219 70.2475 128.268 68.3404C128.351 65.0403 131.83 62.9948 134.918 61.821C152.533 55.1183 171.644 55.4257 190.589 57.5575C187.932 55.575 184.911 54.1332 181.699 53.3137C184.445 53.6282 172.573 51.7319 159.908 50.3982C152.336 49.6019 146.359 50.3982 139.387 50.5977C139.387 50.5977 119.076 51.1909 111.334 62.3027C108.499 66.3722 107.02 71.9281 106.511 78.4924C106.511 78.4924 106.542 81.2838 107.843 94.0691L106.08 94.283Z" fill="#3B3B42"/>
<path d="M115.275 73.7911C116.447 73.7079 117.351 73.0007 117.295 72.2115C117.239 71.4223 116.244 70.85 115.072 70.9331C113.901 71.0163 112.997 71.7235 113.053 72.5127C113.109 73.3019 114.104 73.8743 115.275 73.7911Z" fill="#FFD55B"/>
<path d="M115.508 79.1588C116.68 79.0756 117.584 78.3684 117.528 77.5792C117.472 76.79 116.477 76.2177 115.306 76.3008C114.134 76.384 113.23 77.0912 113.286 77.8804C113.342 78.6696 114.337 79.242 115.508 79.1588Z" fill="#FFD55B"/>
<path d="M110.544 81.5355C111.17 81.2018 111.18 79.9958 110.565 78.8419C109.951 77.688 108.944 77.0231 108.318 77.3568C107.691 77.6905 107.682 78.8964 108.296 80.0503C108.911 81.2042 109.917 81.8692 110.544 81.5355Z" fill="#FF92B0"/>
<path d="M114.694 83.9229C115.32 83.5893 115.33 82.3834 114.715 81.2295C114.101 80.0756 113.095 79.4106 112.468 79.7443C111.842 80.0779 111.832 81.2838 112.447 82.4377C113.061 83.5917 114.067 84.2566 114.694 83.9229Z" fill="#FF92B0"/>
<path d="M110.778 86.942C111.404 86.6083 111.414 85.4023 110.8 84.2484C110.185 83.0945 109.179 82.4296 108.552 82.7633C107.926 83.097 107.916 84.3028 108.531 85.4568C109.145 86.6107 110.151 87.2757 110.778 86.942Z" fill="#FF92B0"/>
<path d="M114.929 89.3257C115.555 88.992 115.565 87.7861 114.95 86.6322C114.335 85.4783 113.329 84.8133 112.703 85.147C112.076 85.4807 112.067 86.6866 112.681 87.8406C113.296 88.9945 114.302 89.6594 114.929 89.3257Z" fill="#FF92B0"/>
<path d="M122.907 84.6587C123.428 83.4423 123.327 82.2322 122.682 81.9558C122.037 81.6794 121.092 82.4414 120.571 83.6577C120.049 84.8741 120.15 86.0842 120.795 86.3606C121.44 86.637 122.386 85.875 122.907 84.6587Z" fill="#B14FBE"/>
<path d="M118.981 87.5164C119.502 86.3 119.402 85.0899 118.757 84.8135C118.111 84.5371 117.166 85.2991 116.645 86.5154C116.124 87.7317 116.224 88.9418 116.869 89.2183C117.514 89.4947 118.46 88.7327 118.981 87.5164Z" fill="#B14FBE"/>
<path d="M122.666 79.1362C123.187 77.9199 123.086 76.7098 122.441 76.4334C121.796 76.157 120.851 76.9189 120.329 78.1353C119.808 79.3516 119.909 80.5617 120.554 80.8381C121.199 81.1145 122.144 80.3526 122.666 79.1362Z" fill="#B14FBE"/>
<path d="M118.742 81.9939C119.263 80.7775 119.162 79.5674 118.517 79.291C117.872 79.0146 116.927 79.7766 116.406 80.9929C115.884 82.2093 115.985 83.4194 116.63 83.6958C117.275 83.9722 118.221 83.2102 118.742 81.9939Z" fill="#B14FBE"/>
<path d="M111.422 76.6907C112.593 76.6076 113.497 75.9004 113.441 75.1112C113.385 74.322 112.39 73.7496 111.219 73.8328C110.047 73.916 109.143 74.6232 109.199 75.4124C109.255 76.2016 110.25 76.7739 111.422 76.6907Z" fill="#FFD55B"/>
<path d="M119.428 76.2203C120.6 76.1371 121.504 75.4299 121.448 74.6407C121.392 73.8515 120.397 73.2792 119.226 73.3624C118.054 73.4455 117.15 74.1527 117.206 74.9419C117.262 75.7311 118.257 76.3035 119.428 76.2203Z" fill="#FFD55B"/>
<path d="M303.267 116.174C292.418 110.392 276.645 108.131 264.399 107.072C263.153 106.843 261.868 106.986 260.703 107.482C259.639 108.072 259.485 105.544 258.906 106.61C252.772 118.02 245.627 128.856 237.556 138.988C225.093 154.023 211.377 167.973 196.556 180.689C195.477 181.632 200.054 181.947 199.599 183.304C199.3 184.483 199.29 185.716 199.572 186.899C200.807 194.364 205.065 212.602 213.8 214.901C221.684 216.976 234.04 203.54 239.454 198.879C256.278 184.384 270.86 167.474 282.724 148.701C289.468 138.023 298.452 127.858 303.267 116.174Z" fill="#1ED0DF"/>
<path d="M270.016 107.586C268.139 107.406 266.265 107.237 264.399 107.075C263.154 106.846 261.868 106.989 260.703 107.485C259.639 108.075 259.567 105.598 258.906 106.613C241.697 132.867 237.505 140.858 222.637 154.833C220.058 157.258 209.736 166.395 216.076 171.37C222.414 169.56 224.797 168.356 228.423 164.18C233.472 158.358 237.879 156.487 246.608 145.56C248.831 142.78 247.776 141.7 249.856 138.94C251.294 137.028 255.917 133.422 257.272 131.538C262.17 124.719 266.665 113.591 270.016 107.586Z" fill="#26E4EE"/>
<path d="M290.602 111.59C287.726 118.118 284.536 124.506 281.034 130.752C279.926 132.729 277.557 134.924 276.391 136.864C275.169 138.891 275.145 140.651 273.855 142.639C273.017 143.931 269.025 146.288 268.16 147.564C267.028 149.232 269.014 149.811 267.837 151.448C259.622 162.88 250.371 173.53 240.201 183.263C236.55 186.759 240.062 193.553 252.287 185.404C272.638 171.837 283.061 160.486 294.842 144.659C302.391 134.523 309.042 127.368 313.857 115.684C310.915 114.12 293.763 112.569 290.602 111.59Z" fill="#00B5D0"/>
<path d="M326.93 54.6518C326.93 54.6518 343.646 54.8082 336.156 80.4902C330.284 100.622 317.95 113.973 301.501 128.227C298.05 131.22 273.03 130.384 259.547 116.863C253.989 111.291 254.344 104.804 254.931 97.8662C257.135 71.857 254.311 18.958 256.52 8.31889C258.463 -1.02787 264.844 -0.447312 268.463 0.51792C274.491 2.13563 279.468 12.6957 281.266 21.9597C282.005 26.5058 283.076 30.9916 284.471 35.3814C284.471 35.3814 291.583 30.69 299.336 33.0447C301.377 33.6677 303.228 34.7986 304.713 36.3314C306.199 37.8642 307.271 39.7489 307.83 41.809C309.424 41.0236 311.164 40.5783 312.939 40.5012C314.715 40.4242 316.486 40.7171 318.142 41.3615C318.142 41.3615 326.062 43.7503 326.93 54.6518Z" fill="#9000A6"/>
<path d="M331.283 55.728C333.98 60.9406 333.935 68.7344 331.057 76.6378C323.565 97.2114 312.852 111.749 296.404 126.722C294.475 128.478 283.264 128.176 274.669 126.145C290.24 132.116 303.22 129.948 305.522 127.943C321.971 113.689 328.664 100.068 336.156 80.4897C340.287 69.6871 338.608 59.0749 331.283 55.728Z" fill="#730085"/>
<path d="M260.076 117.342C262.421 109.528 269.962 102.094 276.664 97.512C281.739 94.0376 287.697 91.8069 292.946 88.5553C298.195 85.3037 308.72 78.9282 302.652 69.9139C301.362 68.2048 299.623 66.887 297.629 66.1073C295.634 65.3276 293.462 65.1166 291.355 65.4976C286.862 66.0512 281.446 68.0356 277.128 66.7792C274.36 48.9628 271.591 31.1452 268.82 13.3265C268.166 9.11147 267.552 4.67178 268.795 0.634696C268.684 0.600545 268.574 0.546604 268.464 0.516047C264.846 -0.449185 258.325 -1.0603 256.522 8.31702C254.051 21.1724 257.137 71.8552 254.933 97.8643C254.346 104.802 253.991 111.29 259.549 116.862C259.716 117.032 259.896 117.176 260.076 117.342Z" fill="#C41ACD"/>
<path d="M264.287 218.261C268.316 221.251 272.573 223.923 277.018 226.251C280.595 228.131 284.28 229.797 287.963 231.463L301.133 237.418C301.931 235.407 300.808 233.192 299.711 231.327C288.755 212.72 276.846 194.692 264.032 177.313C263.86 176.88 263.588 176.493 263.24 176.183C262.892 175.873 262.476 175.649 262.025 175.529C261.575 175.408 261.103 175.395 260.646 175.489C260.19 175.584 259.762 175.784 259.396 176.073C252.683 179.418 234.701 180.746 239.159 190.384C243.489 199.754 256.184 212.227 264.287 218.261Z" fill="#00B5D0"/>
<path d="M240.338 134.103C229.474 137.937 219.556 144.051 211.25 152.035C202.719 160.316 194.589 172.357 200.091 197.462C200.091 197.462 206.069 229.74 249.927 240.822C270.527 246.15 291.95 247.528 313.063 244.882L301.108 221.571C301.108 221.571 231.771 226.951 222.806 190.489C222.806 190.489 211.647 165.584 240.338 134.103Z" fill="black"/>
<path d="M333.902 243.292C336.404 251.785 334.082 269.524 333.503 278.359C313.977 285.532 286.084 294.298 238.664 294.698C193.239 295.079 164.388 290.632 156.576 282.344C151.004 276.43 144.068 254.443 144.161 251.289C144.303 246.481 149.483 241.698 149.483 241.698L151.874 246.481C155.327 248.463 159.105 249.812 163.033 250.466C175.448 252.046 218.709 254.131 235.078 253.653C260.454 252.912 270.943 252.856 298.436 249.668C312.866 247.991 319.497 245.163 333.902 243.292Z" fill="black"/>
<path d="M167.259 263.074C168.393 262.768 169.144 261.9 168.938 261.136C168.732 260.373 167.645 260.002 166.512 260.308C165.378 260.614 164.626 261.482 164.833 262.246C165.039 263.009 166.125 263.38 167.259 263.074Z" fill="#FFD55B"/>
<path d="M168.516 268.298C169.65 267.992 170.402 267.124 170.195 266.36C169.989 265.596 168.902 265.226 167.769 265.532C166.635 265.838 165.883 266.706 166.089 267.469C166.296 268.233 167.382 268.604 168.516 268.298Z" fill="#FFD55B"/>
<path d="M164.123 270.528C164.674 270.081 164.451 268.895 163.626 267.881C162.802 266.867 161.687 266.407 161.136 266.855C160.585 267.303 160.807 268.488 161.632 269.503C162.457 270.517 163.572 270.976 164.123 270.528Z" fill="#FF92B0"/>
<path d="M168.638 273.124C169.189 272.677 168.967 271.491 168.143 270.477C167.318 269.462 166.203 269.002 165.653 269.45C165.102 269.898 165.324 271.083 166.148 272.098C166.973 273.112 168.088 273.572 168.638 273.124Z" fill="#FF92B0"/>
<path d="M165.371 276.839C165.922 276.391 165.7 275.206 164.875 274.191C164.051 273.176 162.936 272.717 162.385 273.164C161.834 273.612 162.056 274.797 162.881 275.812C163.705 276.826 164.82 277.286 165.371 276.839Z" fill="#FF92B0"/>
<path d="M169.903 278.387C170.454 277.939 170.232 276.754 169.408 275.739C168.583 274.725 167.468 274.265 166.917 274.713C166.366 275.16 166.588 276.346 167.413 277.36C168.237 278.375 169.352 278.834 169.903 278.387Z" fill="#FF92B0"/>
<path d="M176.84 272.272C177.118 270.978 176.788 269.81 176.101 269.662C175.415 269.515 174.634 270.444 174.355 271.738C174.077 273.031 174.408 274.2 175.094 274.347C175.78 274.495 176.562 273.566 176.84 272.272Z" fill="#B14FBE"/>
<path d="M173.536 275.828C173.815 274.534 173.484 273.366 172.798 273.218C172.112 273.071 171.33 274 171.052 275.294C170.773 276.587 171.104 277.756 171.79 277.903C172.476 278.051 173.258 277.122 173.536 275.828Z" fill="#B14FBE"/>
<path d="M175.546 266.897C175.824 265.604 175.494 264.435 174.808 264.288C174.121 264.14 173.34 265.069 173.061 266.363C172.783 267.657 173.114 268.825 173.8 268.973C174.486 269.12 175.268 268.191 175.546 266.897Z" fill="#B14FBE"/>
<path d="M172.243 270.453C172.522 269.16 172.191 267.991 171.505 267.844C170.819 267.696 170.037 268.625 169.759 269.919C169.48 271.213 169.811 272.381 170.497 272.529C171.183 272.676 171.965 271.747 172.243 270.453Z" fill="#B14FBE"/>
<path d="M164.031 266.655C165.165 266.349 165.917 265.481 165.711 264.717C165.504 263.953 164.418 263.583 163.284 263.889C162.15 264.195 161.399 265.063 161.605 265.826C161.811 266.59 162.898 266.961 164.031 266.655Z" fill="#FFD55B"/>
<path d="M171.801 264.661C172.935 264.354 173.686 263.487 173.48 262.723C173.274 261.959 172.187 261.588 171.054 261.895C169.92 262.201 169.168 263.068 169.375 263.832C169.581 264.596 170.667 264.967 171.801 264.661Z" fill="#FFD55B"/>
<path d="M232.186 251.155C218.578 258.427 212.953 252.461 208.392 243.933L185.731 201.522C183.548 197.406 183.082 192.593 184.435 188.135C185.788 183.677 188.851 179.935 192.953 177.727C197.069 175.543 201.882 175.076 206.34 176.43C210.799 177.783 214.54 180.846 216.748 184.949L239.41 227.369C243.967 235.889 249.111 242.493 232.186 251.155Z" fill="#C8CBD9"/>
<path d="M207.614 218.442C209.33 220.926 212.655 222.576 215.438 221.404C218.592 220.076 219.511 215.76 218.26 212.575C217.009 209.39 206.129 203.06 206.129 203.06C206.129 203.06 205.775 215.777 207.614 218.442Z" fill="white"/>
<path d="M217.477 245.997L210.959 233.799L212.706 232.867L215.499 238.092L217.656 236.938L214.865 231.713L216.614 230.78L223.131 242.977L221.382 243.91L218.481 238.48L216.324 239.634L219.225 245.064L217.477 245.997Z" fill="white"/>
<path d="M224.527 242.225L223.648 240.58L223.625 232.95C223.637 232.636 223.588 232.322 223.481 232.026C223.36 231.736 223.224 231.452 223.073 231.176C222.994 231.029 222.906 230.872 222.812 230.709C222.73 230.56 222.619 230.429 222.485 230.324C222.361 230.228 222.214 230.167 222.059 230.144C221.861 230.128 221.662 230.176 221.493 230.281C221.371 230.333 221.263 230.411 221.175 230.511C221.087 230.61 221.022 230.727 220.985 230.854C220.947 230.981 220.939 231.115 220.959 231.246C220.98 231.377 221.029 231.501 221.103 231.611L221.642 232.605L219.897 233.54L219.383 232.58C219.192 232.228 219.075 231.841 219.04 231.442C219.005 231.057 219.045 230.669 219.156 230.299C219.26 229.931 219.435 229.587 219.672 229.287C219.919 228.97 220.23 228.71 220.585 228.523C220.985 228.297 221.433 228.167 221.892 228.144C222.297 228.135 222.699 228.218 223.068 228.388C223.435 228.57 223.767 228.819 224.044 229.122C224.345 229.45 224.603 229.815 224.811 230.209C224.969 230.505 225.096 230.756 225.192 230.962C225.284 231.161 225.364 231.365 225.43 231.573C225.494 231.781 225.535 231.996 225.552 232.213C225.57 232.438 225.58 232.719 225.584 233.054L225.658 239.38L228.811 237.695L229.743 239.443L224.527 242.225Z" fill="white"/>
<path d="M225.73 229.141C225.521 228.768 225.394 228.356 225.356 227.931C225.327 227.549 225.373 227.166 225.491 226.802C225.608 226.446 225.796 226.117 226.043 225.835C226.551 225.255 227.254 224.88 228.02 224.782C228.392 224.734 228.769 224.761 229.131 224.861C229.499 224.965 229.843 225.141 230.144 225.377C230.477 225.644 230.749 225.979 230.944 226.358L234.769 233.521C234.978 233.893 235.105 234.306 235.143 234.731C235.172 235.112 235.126 235.496 235.008 235.86C234.891 236.215 234.703 236.544 234.456 236.827C233.948 237.407 233.245 237.781 232.479 237.88C232.107 237.928 231.73 237.901 231.368 237.801C231 237.697 230.655 237.522 230.355 237.285C230.022 237.018 229.749 236.683 229.555 236.304L225.73 229.141ZM231.302 235.371C231.36 235.487 231.44 235.591 231.539 235.676C231.637 235.762 231.752 235.826 231.875 235.867C232.126 235.937 232.395 235.908 232.625 235.785C232.855 235.662 233.029 235.455 233.11 235.207C233.145 235.082 233.155 234.95 233.139 234.821C233.123 234.692 233.081 234.567 233.017 234.454L229.19 227.293C229.132 227.176 229.052 227.072 228.953 226.986C228.855 226.901 228.74 226.836 228.617 226.795C228.365 226.725 228.097 226.755 227.867 226.877C227.637 227 227.463 227.207 227.382 227.455C227.346 227.58 227.337 227.711 227.353 227.841C227.369 227.97 227.41 228.095 227.475 228.208L231.302 235.371Z" fill="white"/>
<path d="M181.936 172.857C180.575 173.786 179.612 175.192 179.238 176.797C178.865 178.402 179.108 180.089 179.919 181.524C181.118 184.163 182.466 186.732 183.954 189.219C184.145 189.537 207.645 177.115 207.266 176.443C205.858 173.957 204.679 171.469 203.529 169.867C201.413 166.92 199.256 164.452 194.689 166.172C190.22 167.956 185.946 170.196 181.936 172.857Z" fill="white"/>
<path d="M220.812 190.692C207.376 197.81 194.911 204.638 187.739 208.623" stroke="black" stroke-width="2" stroke-miterlimit="10"/>
<path d="M200.889 234.922C213.246 228.631 222.805 222.568 237.557 215.396" stroke="black" stroke-width="2" stroke-miterlimit="10"/>
<path d="M242.65 395.51C242.65 395.51 211.568 417.426 223.523 430.576C223.523 430.576 232.151 438.918 262.168 441.336C262.168 441.336 296.438 444.126 305.205 432.969C308.366 429.147 309.968 424.271 309.688 419.319C309.47 414.353 308.633 409.434 307.198 404.675C307.198 404.675 300.424 407.465 295.642 403.081C295.642 403.081 295.243 392.323 276.913 391.128C276.913 391.128 262.567 389.932 256.591 389.932C256.598 389.932 239.86 388.735 242.65 395.51Z" fill="black"/>
<path d="M179.53 362.515C179.53 362.515 169.487 366.34 157.532 369.687C157.532 369.687 125.897 378.374 133.864 393.119C133.864 393.119 138.526 406.547 169.527 410.851C179.399 411.694 189.335 410.334 198.617 406.867C203.001 404.874 207.424 403.166 213.958 399.814C213.958 399.814 227.347 391.684 235.477 389.772C235.477 389.772 236.434 383.554 232.601 373.514C229.096 374.937 225.336 375.628 221.553 375.546C217.771 375.464 214.045 374.61 210.604 373.036C210.604 373.036 212.516 365.862 201.518 363.95C194.715 362.641 188.006 360.884 181.435 358.69C181.435 358.69 176.661 358.688 179.53 362.515Z" fill="black"/>
<path d="M175.578 385.242C172.966 386.291 170.624 387.914 168.726 389.993C167.804 391.054 167.258 392.39 167.17 393.793C167.083 395.196 167.461 396.589 168.244 397.756C169.929 399.34 172.17 400.196 174.481 400.138C184.556 400.96 194.678 399.296 203.959 395.294C198.65 395.681 193.318 395.648 188.014 395.195C186.467 395.243 184.96 394.694 183.805 393.663C183.257 392.885 182.999 391.94 183.075 390.991C183.151 390.043 183.556 389.15 184.22 388.469C185.596 387.141 187.35 386.274 189.24 385.986C195.891 384.525 202.8 385.641 209.589 386.191C216.378 386.741 223.629 386.608 229.424 383.028C226.25 384.991 219.047 383.048 215.868 381.922C211.014 380.204 208.394 376.87 204.344 374.141C200.431 371.506 195.914 375.275 192.202 377.094L175.578 385.242Z" fill="white"/>
<path d="M285.844 425.498C285.72 426.759 285.864 428.033 286.266 429.235C286.669 430.437 287.322 431.54 288.181 432.472C290.936 434.927 295.317 433.977 298.529 432.163C301.349 430.571 303.834 428.447 305.846 425.91C304.183 426.952 302.283 427.556 300.323 427.664C299.493 427.782 298.648 427.602 297.94 427.155C297.231 426.708 296.704 426.023 296.454 425.224C296.204 424.424 296.246 423.561 296.574 422.79C296.901 422.019 297.492 421.389 298.241 421.013C299.332 420.294 300.776 419.297 301.836 418.527C305.692 415.722 307.514 415.831 308.411 412.251C305.559 412.778 302.614 412.466 299.936 411.352C295.559 409.851 295.518 405.695 292.87 406.564C288.134 408.12 285.907 421.421 285.844 425.498Z" fill="white"/>
<path d="M161.129 371.841C167.646 372.134 173.784 374.99 178.205 379.788" stroke="#E300AB" stroke-width="2" stroke-linecap="round" stroke-linejoin="round"/>
<path d="M166.957 367.362C173.474 367.655 179.612 370.511 184.033 375.308" stroke="#E300AB" stroke-width="2" stroke-linecap="round" stroke-linejoin="round"/>
<path d="M174.129 363.475C180.646 363.768 186.783 366.624 191.205 371.42" stroke="#E300AB" stroke-width="2" stroke-linecap="round" stroke-linejoin="round"/>
<path d="M235.533 409.269C235.533 409.269 261.832 408.074 273.19 411.965" stroke="#E300AB" stroke-width="2" stroke-linecap="round" stroke-linejoin="round"/>
<path d="M240.557 403.245C240.557 403.245 266.857 402.05 278.213 405.941" stroke="#E300AB" stroke-width="2" stroke-linecap="round" stroke-linejoin="round"/>
<path d="M244.479 397.41C244.479 397.41 270.78 396.215 282.136 400.107" stroke="#E300AB" stroke-width="2" stroke-linecap="round" stroke-linejoin="round"/>
</svg>
