<svg width="91" height="126" viewBox="0 0 91 126" fill="none" xmlns="http://www.w3.org/2000/svg">
<path d="M45.4906 126C70.6143 126 90.9811 125.151 90.9811 124.103C90.9811 123.055 70.6143 122.206 45.4906 122.206C20.3668 122.206 0 123.055 0 124.103C0 125.151 20.3668 126 45.4906 126Z" fill="#D3F2EC"/>
<path d="M70.2168 52.8113C68.8061 44.4578 66.775 40.4597 65.3648 32.1062C64.9036 29.3734 63.9501 24.1055 62.9819 21.5107C60.1195 13.8239 55.3611 13.0562 45.7851 12.8035C36.9049 12.937 31.6656 14.8424 28.9796 21.6965C27.7744 25.1688 26.8411 28.7296 26.1882 32.3466C24.7775 40.7001 23.0795 46.3548 21.5565 54.6881C20.3832 61.1056 18.4073 76.2703 18.4073 84.8287C18.4073 91.127 18.9947 100.915 20.4315 103.498C22.3448 106.937 27.7044 111.596 45.7851 111.596C63.6934 111.596 69.3274 107.987 71.2412 104.549C72.6781 101.966 71.7778 87.1392 71.8774 84.1852C72.1567 75.8973 71.5659 71.7094 70.816 64.2119C70.6593 62.6361 70.4795 54.3669 70.2168 52.8113Z" fill="#00D8EC"/>
<path d="M19.7376 117.611C19.7441 117.943 19.615 120.496 19.7992 120.519C24.9962 121.15 29.5201 119.379 31.8853 119.484C32.4273 119.509 39.5124 121.54 39.8381 121.128C40.0416 120.871 39.8179 118.858 39.812 117.948C39.7839 113.615 39.3799 111.635 39.7761 107.318C39.8076 106.973 39.5711 108.85 39.476 108.517C39.3686 108.141 31.8128 105.767 26.0551 105.144C23.7141 104.89 19.7791 99.8574 19.5509 100.795C19.2134 102.175 19.3972 106.402 19.4386 108.667C19.4962 111.943 19.678 114.336 19.7376 117.611Z" fill="#00CBE4"/>
<path d="M71.9991 117.761C71.9931 118.092 72.1188 120.647 71.9389 120.668C66.8637 121.3 62.0634 119.529 59.7534 119.634C59.2217 119.658 52.3031 121.689 51.9853 121.278C51.7882 121.021 52.005 119.008 52.0105 118.098C52.038 113.765 52.0711 107.018 52.0711 107.018C52.0711 107.018 56.8182 107.048 58.8187 106.87C62.2561 106.561 72.14 101.097 72.14 101.097C72.14 101.097 72.0587 114.486 71.9991 117.761Z" fill="#00CBE4"/>
<path d="M45.1747 106.569C29.9795 106.569 30.2381 105.101 30.6289 106.12C32.3535 110.618 28.0799 111.218 45.4856 111.593C63.3899 111.979 67.6787 109.783 69.5921 106.345C70.5145 104.687 69.8567 106.139 70.0922 104.245C68.8914 104.575 46.8308 106.569 45.1747 106.569Z" fill="#00CBE4"/>
<path d="M68.9185 54.7577C67.5078 46.4042 66.7756 40.4435 65.3653 32.0915C64.9036 29.3587 63.9507 24.0908 62.9834 21.4935C60.1211 13.8067 55.3627 13.0395 45.7867 12.7868C44.2232 12.8099 38.2477 12.5473 36.906 12.6981C35.6248 12.842 38.9711 13.4372 37.8673 13.6836C32.9039 14.7996 30.7427 17.1845 28.9812 21.6793C27.7759 25.1516 26.8426 28.7124 26.1898 32.3295C24.779 40.6829 24.0646 46.4057 22.6539 54.7591C21.5467 61.3166 23.19 56.5823 25.0314 51.813C25.9227 49.5055 27.1378 49.0399 27.5803 46.315C28.0238 43.5822 30.0061 27.202 30.9802 24.6215C33.5657 17.7679 37.243 15.897 45.7891 15.7634C55.0034 16.0162 59.5859 16.7829 62.3404 24.4707C63.2712 27.068 64.1882 32.3359 64.6326 35.0686C65.9877 43.4206 70.5618 64.4898 68.9185 54.7577Z" fill="#19ECF8"/>
<path d="M57.5557 24.8545C59.3771 24.8545 60.8537 22.9418 60.8537 20.5824C60.8537 18.223 59.3771 16.3103 57.5557 16.3103C55.7343 16.3103 54.2578 18.223 54.2578 20.5824C54.2578 22.9418 55.7343 24.8545 57.5557 24.8545Z" fill="#00D8EC"/>
<path d="M34.4535 25.0546C36.4461 25.0546 38.0614 23.1168 38.0614 20.7263C38.0614 18.3359 36.4461 16.3981 34.4535 16.3981C32.461 16.3981 30.8457 18.3359 30.8457 20.7263C30.8457 23.1168 32.461 25.0546 34.4535 25.0546Z" fill="#00D8EC"/>
<path d="M34.7379 25.0083C36.5593 25.0083 38.0358 23.0956 38.0358 20.7362C38.0358 18.3768 36.5593 16.4641 34.7379 16.4641C32.9165 16.4641 31.4399 18.3768 31.4399 20.7362C31.4399 23.0956 32.9165 25.0083 34.7379 25.0083Z" fill="#75FFFF"/>
<path d="M34.9014 24.2282C36.4232 24.2282 37.6568 22.6476 37.6568 20.6977C37.6568 18.7479 36.4232 17.1672 34.9014 17.1672C33.3797 17.1672 32.146 18.7479 32.146 20.6977C32.146 22.6476 33.3797 24.2282 34.9014 24.2282Z" fill="#453772"/>
<path d="M34.9677 23.8424C35.7682 23.7828 36.3803 23.2371 36.3346 22.6235C36.289 22.0099 35.603 21.5608 34.8024 21.6203C34.0018 21.6799 33.3898 22.2256 33.4354 22.8392C33.4811 23.4528 34.1671 23.9019 34.9677 23.8424Z" fill="#5371A0"/>
<path d="M34.3244 19.1554C34.6316 19.1554 34.8807 18.8865 34.8807 18.5548C34.8807 18.223 34.6316 17.9541 34.3244 17.9541C34.0171 17.9541 33.7681 18.223 33.7681 18.5548C33.7681 18.8865 34.0171 19.1554 34.3244 19.1554Z" fill="white"/>
<path d="M57.1189 25.0083C58.9402 25.0083 60.4168 23.0956 60.4168 20.7362C60.4168 18.3768 58.9402 16.4641 57.1189 16.4641C55.2975 16.4641 53.8209 18.3768 53.8209 20.7362C53.8209 23.0956 55.2975 25.0083 57.1189 25.0083Z" fill="#75FFFF"/>
<path d="M56.8698 24.2282C58.3916 24.2282 59.6252 22.6476 59.6252 20.6977C59.6252 18.7479 58.3916 17.1672 56.8698 17.1672C55.348 17.1672 54.1144 18.7479 54.1144 20.6977C54.1144 22.6476 55.348 24.2282 56.8698 24.2282Z" fill="#453772"/>
<path d="M56.8463 23.8804C57.6467 23.821 58.2586 23.2755 58.2131 22.6621C58.1676 22.0486 57.4818 21.5995 56.6814 21.6589C55.881 21.7183 55.2691 22.2638 55.3146 22.8772C55.3602 23.4907 56.0459 23.9398 56.8463 23.8804Z" fill="#5371A0"/>
<path d="M56.2702 19.1554C56.5774 19.1554 56.8265 18.8865 56.8265 18.5548C56.8265 18.223 56.5774 17.9541 56.2702 17.9541C55.9629 17.9541 55.7139 18.223 55.7139 18.5548C55.7139 18.8865 55.9629 19.1554 56.2702 19.1554Z" fill="white"/>
<path d="M30.3293 121.265C30.0942 121.931 30.4929 105.882 29.8794 104.019C28.446 99.6702 19.4707 94.3214 19.1706 95.5464C18.8326 96.9261 19.2692 108.653 19.3076 109.192C19.5323 112.491 19.2825 120.666 19.4668 120.689C21.9462 120.992 30.8723 119.726 30.3293 121.265Z" fill="#00D8EC"/>
<path d="M33.5534 82.5021C33.5795 82.577 33.5943 82.4158 33.6027 82.0704C33.4982 82.1434 33.4746 82.2789 33.5534 82.5021Z" fill="#00D8EC"/>
<path d="M70.0666 52.0609C69.4078 48.1579 66.4695 67.2059 66.4695 67.2059L64.5197 64.1321L63.3953 77.8526L60.4689 88.6505L58.6694 81.9024L55.2951 94.9483L54.282 91.0817L50.1213 100.345L48.5445 96.0718L42.6961 103.269L40.672 101.47L35.4982 108.218C35.4982 108.218 57.9756 110.341 57.918 113.616C57.9131 113.891 69.9857 121.281 69.9488 121.849C70.6148 122.026 71.3056 122.09 71.9927 122.038C72.177 122.016 72.6076 120.47 72.6135 120.139C72.6732 116.864 73.0634 96.0718 72.6756 85.5295C72.3149 75.6677 71.7099 61.7936 70.0666 52.0609Z" fill="#00CBE4"/>
<path d="M67.089 123.911C65.6776 124.47 64.1673 124.736 62.6498 124.694C61.5899 124.694 58.258 124.236 58.258 124.236C56.5891 124.489 54.8995 124.578 53.2133 124.503C51.7035 124.389 49.7513 124.102 49.5532 122.975C49.397 122.088 50.1268 119.046 55.1123 118.34C59.2321 117.82 63.3916 117.686 67.5364 117.94C70.2666 118.112 73.3759 118.748 76.0115 120.443C77.3055 121.413 77.7652 122.503 76.9226 123.27C76.2121 123.916 74.3328 123.586 74.3328 123.586C74.3328 123.586 71.5064 124.903 67.089 123.911Z" fill="#C41ACD"/>
<path d="M53.2491 123.915C54.9355 123.99 56.6253 123.901 58.2943 123.648C58.2943 123.648 61.6258 124.105 62.6862 124.105C64.2035 124.148 65.7136 123.882 67.1248 123.323C71.5442 124.314 74.3681 122.999 74.3681 122.999C74.3681 122.999 76.2474 123.329 76.958 122.683C77.1361 122.528 77.2674 122.327 77.3374 122.101C77.4002 122.319 77.3978 122.551 77.3303 122.767C77.2629 122.984 77.1334 123.176 76.958 123.32C76.2474 123.966 74.3681 123.636 74.3681 123.636C74.3681 123.636 71.5422 124.951 67.1248 123.96C65.7134 124.518 64.2033 124.784 62.6862 124.74C61.6258 124.74 58.2943 124.283 58.2943 124.283C56.6253 124.536 54.9355 124.625 53.2491 124.55C51.7394 124.436 49.7871 124.149 49.5895 123.022C49.5617 122.824 49.5655 122.622 49.6009 122.425C49.8384 123.52 51.7581 123.804 53.2491 123.915Z" fill="#9000A6"/>
<path d="M76.1327 120.587C74.6782 121.569 72.6884 119.963 71.5374 120.744C71.3678 120.893 71.2107 121.055 71.0678 121.229C70.1853 122.071 67.6255 121.229 66.3867 121.268C65.4604 121.296 64.6129 121.846 63.6855 121.857C62.5774 121.869 61.6101 121.117 60.5142 120.954C59.2085 120.761 57.9476 121.424 56.6477 121.652C54.558 122.019 52.5303 121.263 50.5303 120.448C51.3389 119.54 52.7476 118.677 55.1128 118.342C59.2326 117.821 63.3921 117.687 67.5368 117.942C70.2671 118.113 73.3763 118.749 76.012 120.444C76.0647 120.484 76.1135 120.524 76.1638 120.564L76.1327 120.587Z" fill="#DB32E1"/>
<path d="M39.7762 109.719C39.7762 109.719 36.6271 107.619 30.629 105.67C30.629 105.67 30.0958 117.928 32.2787 121.565C34.1767 124.727 38.7336 119.244 39.8511 120.29C39.8511 120.29 39.7762 113.467 39.7762 109.719Z" fill="#00CBE4"/>
<path d="M23.6402 123.761C25.3557 124.266 27.1332 124.529 28.9214 124.543C30.0055 124.543 33.4177 124.086 33.4177 124.086C35.1268 124.339 36.8561 124.428 38.5822 124.353C40.1279 124.239 42.127 123.952 42.3295 122.825C42.4891 121.938 41.7421 118.896 36.6378 118.19C32.1725 117.669 27.6704 117.535 23.182 117.789C20.4811 117.906 17.8661 118.773 15.6302 120.292C14.3052 121.263 13.8346 122.352 14.6974 123.119C15.4247 123.765 17.3489 123.435 17.3489 123.435C17.3489 123.435 19.1159 124.752 23.6402 123.761Z" fill="#C41ACD"/>
<path d="M38.5453 123.765C36.8192 123.84 35.09 123.751 33.3809 123.498C33.3809 123.498 29.9696 123.956 28.8846 123.956C27.0964 123.942 25.3188 123.678 23.6034 123.173C19.079 124.164 17.312 122.849 17.312 122.849C17.312 122.849 15.3879 123.179 14.6606 122.533C14.4789 122.38 14.3441 122.178 14.2718 121.952C14.2079 122.17 14.2107 122.403 14.2799 122.62C14.3492 122.837 14.4818 123.028 14.6606 123.17C15.3879 123.816 17.312 123.486 17.312 123.486C17.312 123.486 19.079 124.801 23.6034 123.81C25.3187 124.315 27.096 124.579 28.8841 124.593C29.9681 124.593 33.3804 124.135 33.3804 124.135C35.0895 124.388 36.8188 124.477 38.5448 124.402C40.0905 124.288 42.0891 124.001 42.2896 122.874C42.318 122.676 42.3141 122.474 42.2783 122.277C42.0374 123.37 40.0718 123.652 38.5453 123.765Z" fill="#9000A6"/>
<path d="M15.5075 120.437C16.9961 121.419 19.0331 119.814 20.2117 120.594C20.3852 120.742 20.5461 120.905 20.6927 121.079C21.5958 121.921 23.0908 121.079 24.3611 121.118C25.3091 121.146 26.9145 121.696 27.8631 121.707C28.9964 121.719 29.9878 120.968 31.1097 120.803C32.4465 120.611 33.7375 121.274 35.0684 121.502C37.2079 121.869 39.2833 121.113 41.3312 120.298C40.5034 119.39 39.0646 118.527 36.6378 118.192C32.1725 117.671 27.6704 117.537 23.182 117.791C20.4812 117.908 17.8662 118.775 15.6302 120.294C15.576 120.334 15.5257 120.374 15.4745 120.414L15.5075 120.437Z" fill="#DB32E1"/>
<path d="M38.5763 47.1132C41.9028 50.3323 46.2493 52.8862 54.9965 52.7867C59.6219 52.7335 64.2685 47.913 65.2682 42.6145C65.8842 39.3491 63.319 33.9176 59.4953 31.1932C58.2269 30.29 59.0873 31.1218 57.7337 30.3531C56.186 29.4735 54.317 29.44 52.5372 29.4287L46.4647 29.3908C43.7354 29.374 40.98 29.3592 38.3108 29.9328C35.2627 30.5857 30.624 32.1348 31.9347 35.8191C33.2552 39.5324 35.7534 44.381 38.5763 47.1132Z" fill="#00CBE4"/>
<path d="M61.1248 31.7622L45.896 29.3453V29.3325L45.8551 29.3389L45.8142 29.3325V29.3453L30.5855 31.7627C30.5855 31.7627 28.7308 43.4245 45.8142 43.4619H45.896C62.9819 43.424 61.1248 31.7622 61.1248 31.7622Z" fill="#FF40D4"/>
<path d="M33.5518 31.2671C33.5518 32.8651 41.4938 43.765 48.0832 43.3772C61.679 42.5775 61.5627 32.9242 61.3696 31.9195" fill="#EF00C3"/>
<path d="M61.3751 31.9363L59.6505 32.0112C59.8387 32.9907 59.952 42.1878 47.3624 43.3935C47.6042 43.409 47.8468 43.4101 48.0887 43.397C61.6845 42.5948 61.5682 32.9425 61.3751 31.9363Z" fill="#CE00AE"/>
<path d="M20.2074 58.5099C20.2074 58.5099 17.0583 82.5769 18.8578 93.3739C18.8578 93.3739 19.7575 76.9538 22.4548 60.7588L20.2054 60.0842" fill="#19ECF8"/>
<path d="M60.6896 28.3549C59.1272 27.7874 57.5037 27.4048 55.8523 27.2147C52.3238 27.0152 49.3432 26.7451 46.1586 26.5135H45.8398C42.6552 26.7451 39.6746 27.0152 36.1461 27.2147C34.9773 27.2808 32.9531 27.9193 31.3088 28.3549C29.2861 28.8915 26.2054 29.6435 26.5785 32.7926C26.7391 34.1456 28.1257 35.7052 31.8267 35.9417C35.3054 36.1639 40.1747 35.0548 45.997 35.0419C51.8197 35.0567 56.6895 36.1639 60.1678 35.9417C63.8688 35.7052 65.4894 34.7793 65.8659 32.9049C66.4897 29.7952 62.663 29.0497 60.6896 28.3549Z" fill="#EF00C3"/>
<path d="M60.5285 35.042C56.9547 35.2643 51.9548 34.1551 45.9704 34.1423C39.9885 34.1571 34.9862 35.2643 31.4123 35.042C28.891 34.8853 27.5093 34.3522 26.7529 33.4795C27.1609 34.6991 28.5298 35.7328 31.7991 35.9432C35.2779 36.1655 40.0659 35.352 45.8881 35.3357C51.7109 35.3505 56.6615 36.1655 60.1402 35.9432C63.4938 35.7289 65.1372 34.9459 65.6954 33.4071C64.842 34.3581 63.2238 34.8745 60.5285 35.042Z" fill="#CE00AE"/>
<path d="M61.9964 28.5939C61.0932 28.4076 58.997 27.769 58.3264 27.5438C56.8533 26.7558 55.5917 25.6244 54.6486 24.2454C52.7762 21.7048 52.9097 18.5493 46.2074 18.5089H46.1581H46.1113C39.41 18.5493 39.6731 21.7048 37.8012 24.2454C36.858 25.6244 35.5965 26.7558 34.1233 27.5438C33.4527 27.769 31.3561 28.4076 30.4534 28.5939C25.0051 29.7183 26.8071 33.6548 26.8071 33.6548C26.8071 33.6548 27.6364 32.6201 32.8801 32.3052C36.6743 32.0791 41.6436 32.3013 46.1138 32.3052H46.2261C50.6978 32.3018 55.777 32.1342 59.5721 32.3052C64.4212 32.524 65.6451 33.6548 65.6451 33.6548C65.6451 33.6548 67.4426 29.7183 61.9964 28.5939Z" fill="#FF59DA"/>
<path d="M35.9304 66.6007C35.9304 66.6007 36.0265 68.1011 34.1536 69.4788C34.6489 69.6961 35.0886 70.0228 35.4395 70.4344C35.7904 70.8461 36.0435 71.3318 36.1797 71.8553C36.2615 71.3244 36.4581 70.8178 36.756 70.3708C37.0539 69.9238 37.4458 69.5472 37.9043 69.2674C37.9043 69.2674 36.0876 68.3307 35.9304 66.6007Z" fill="#86EAE7"/>
<path d="M33.634 73.3237C33.634 73.3237 33.6966 74.3033 32.4746 75.2026C32.7979 75.3445 33.0848 75.5577 33.3139 75.8264C33.5429 76.095 33.7081 76.4121 33.7971 76.7537C33.8505 76.4071 33.979 76.0764 34.1736 75.7846C34.3682 75.4928 34.6241 75.2471 34.9236 75.0646C34.9236 75.0646 33.7385 74.4531 33.634 73.3237Z" fill="#86EAE7"/>
<path d="M55.3775 65.826C55.3775 65.826 55.44 66.8056 54.218 67.7044C54.5417 67.8464 54.8289 68.0599 55.0582 68.3289C55.2874 68.5979 55.4527 68.9154 55.5415 69.2575C55.5951 68.911 55.7237 68.5803 55.9184 68.2887C56.113 67.997 56.369 67.7514 56.6684 67.5689C56.6684 67.5689 55.4819 66.9554 55.3775 65.826Z" fill="#99F7F7"/>
<path d="M33.7011 66.0232C33.7011 66.0232 33.8273 67.9887 31.3744 69.7927C32.0231 70.0774 32.5988 70.5053 33.0584 71.0444C33.518 71.5835 33.8494 72.2198 34.0278 72.9053C34.135 72.2098 34.3929 71.5461 34.7835 70.9606C35.1741 70.3752 35.6879 69.8823 36.289 69.5163C36.289 69.5163 33.91 68.2893 33.7011 66.0232Z" fill="white"/>
<path d="M25.2544 42.4376C25.882 42.4376 26.3907 41.9288 26.3907 41.3013C26.3907 40.6738 25.882 40.165 25.2544 40.165C24.6269 40.165 24.1182 40.6738 24.1182 41.3013C24.1182 41.9288 24.6269 42.4376 25.2544 42.4376Z" fill="white"/>
<path d="M27.5265 44.8718C28.1541 44.8718 28.6628 44.3631 28.6628 43.7355C28.6628 43.108 28.1541 42.5992 27.5265 42.5992C26.899 42.5992 26.3903 43.108 26.3903 43.7355C26.3903 44.3631 26.899 44.8718 27.5265 44.8718Z" fill="white"/>
<path d="M29.7986 47.3063C30.4262 47.3063 30.9349 46.7976 30.9349 46.1701C30.9349 45.5425 30.4262 45.0338 29.7986 45.0338C29.1711 45.0338 28.6624 45.5425 28.6624 46.1701C28.6624 46.7976 29.1711 47.3063 29.7986 47.3063Z" fill="white"/>
<path d="M32.0706 49.7406C32.6981 49.7406 33.2069 49.2318 33.2069 48.6043C33.2069 47.9767 32.6981 47.468 32.0706 47.468C31.443 47.468 30.9343 47.9767 30.9343 48.6043C30.9343 49.2318 31.443 49.7406 32.0706 49.7406Z" fill="white"/>
<path d="M34.3427 52.1751C34.9702 52.1751 35.479 51.6664 35.479 51.0389C35.479 50.4113 34.9702 49.9026 34.3427 49.9026C33.7151 49.9026 33.2064 50.4113 33.2064 51.0389C33.2064 51.6664 33.7151 52.1751 34.3427 52.1751Z" fill="white"/>
<path d="M36.6148 54.6093C37.2423 54.6093 37.751 54.1006 37.751 53.4731C37.751 52.8455 37.2423 52.3368 36.6148 52.3368C35.9873 52.3368 35.4785 52.8455 35.4785 53.4731C35.4785 54.1006 35.9873 54.6093 36.6148 54.6093Z" fill="white"/>
<path d="M38.8867 57.044C39.5143 57.044 40.023 56.5353 40.023 55.9077C40.023 55.2802 39.5143 54.7715 38.8867 54.7715C38.2592 54.7715 37.7505 55.2802 37.7505 55.9077C37.7505 56.5353 38.2592 57.044 38.8867 57.044Z" fill="white"/>
<path d="M41.1592 59.4781C41.7867 59.4781 42.2955 58.9694 42.2955 58.3418C42.2955 57.7143 41.7867 57.2056 41.1592 57.2056C40.5317 57.2056 40.0229 57.7143 40.0229 58.3418C40.0229 58.9694 40.5317 59.4781 41.1592 59.4781Z" fill="white"/>
<path d="M43.4313 61.9128C44.0589 61.9128 44.5676 61.4041 44.5676 60.7765C44.5676 60.149 44.0589 59.6403 43.4313 59.6403C42.8038 59.6403 42.295 60.149 42.295 60.7765C42.295 61.4041 42.8038 61.9128 43.4313 61.9128Z" fill="white"/>
<path d="M66.1113 42.4376C66.7388 42.4376 67.2475 41.9288 67.2475 41.3013C67.2475 40.6738 66.7388 40.165 66.1113 40.165C65.4837 40.165 64.975 40.6738 64.975 41.3013C64.975 41.9288 65.4837 42.4376 66.1113 42.4376Z" fill="white"/>
<path d="M63.8393 44.8718C64.4668 44.8718 64.9755 44.3631 64.9755 43.7355C64.9755 43.108 64.4668 42.5992 63.8393 42.5992C63.2117 42.5992 62.703 43.108 62.703 43.7355C62.703 44.3631 63.2117 44.8718 63.8393 44.8718Z" fill="white"/>
<path d="M61.5672 47.3063C62.1947 47.3063 62.7034 46.7976 62.7034 46.1701C62.7034 45.5425 62.1947 45.0338 61.5672 45.0338C60.9396 45.0338 60.4309 45.5425 60.4309 46.1701C60.4309 46.7976 60.9396 47.3063 61.5672 47.3063Z" fill="white"/>
<path d="M59.2951 49.7406C59.9226 49.7406 60.4313 49.2318 60.4313 48.6043C60.4313 47.9767 59.9226 47.468 59.2951 47.468C58.6676 47.468 58.1588 47.9767 58.1588 48.6043C58.1588 49.2318 58.6676 49.7406 59.2951 49.7406Z" fill="white"/>
<path d="M57.0232 52.1751C57.6508 52.1751 58.1595 51.6664 58.1595 51.0389C58.1595 50.4113 57.6508 49.9026 57.0232 49.9026C56.3957 49.9026 55.887 50.4113 55.887 51.0389C55.887 51.6664 56.3957 52.1751 57.0232 52.1751Z" fill="white"/>
<path d="M54.7506 54.6093C55.3782 54.6093 55.8869 54.1006 55.8869 53.4731C55.8869 52.8455 55.3782 52.3368 54.7506 52.3368C54.1231 52.3368 53.6144 52.8455 53.6144 53.4731C53.6144 54.1006 54.1231 54.6093 54.7506 54.6093Z" fill="white"/>
<path d="M52.4786 57.044C53.1061 57.044 53.6148 56.5353 53.6148 55.9077C53.6148 55.2802 53.1061 54.7715 52.4786 54.7715C51.851 54.7715 51.3423 55.2802 51.3423 55.9077C51.3423 56.5353 51.851 57.044 52.4786 57.044Z" fill="white"/>
<path d="M50.2066 59.4781C50.8341 59.4781 51.3428 58.9694 51.3428 58.3418C51.3428 57.7143 50.8341 57.2056 50.2066 57.2056C49.5791 57.2056 49.0703 57.7143 49.0703 58.3418C49.0703 58.9694 49.5791 59.4781 50.2066 59.4781Z" fill="white"/>
<path d="M47.9345 61.9128C48.562 61.9128 49.0707 61.4041 49.0707 60.7765C49.0707 60.149 48.562 59.6403 47.9345 59.6403C47.3069 59.6403 46.7982 60.149 46.7982 60.7765C46.7982 61.4041 47.3069 61.9128 47.9345 61.9128Z" fill="white"/>
<path d="M45.7033 64.3469C46.3308 64.3469 46.8396 63.8381 46.8396 63.2106C46.8396 62.5831 46.3308 62.0743 45.7033 62.0743C45.0758 62.0743 44.567 62.5831 44.567 63.2106C44.567 63.8381 45.0758 64.3469 45.7033 64.3469Z" fill="white"/>
<path d="M46.4976 84.0774C51.7422 84.0774 55.9938 79.8258 55.9938 74.5812C55.9938 69.3366 51.7422 65.0851 46.4976 65.0851C41.2531 65.0851 37.0015 69.3366 37.0015 74.5812C37.0015 79.8258 41.2531 84.0774 46.4976 84.0774Z" fill="#00CBE4"/>
<path d="M45.7123 83.292C50.9569 83.292 55.2085 79.0404 55.2085 73.7958C55.2085 68.5513 50.9569 64.2997 45.7123 64.2997C40.4677 64.2997 36.2162 68.5513 36.2162 73.7958C36.2162 79.0404 40.4677 83.292 45.7123 83.292Z" fill="white"/>
<path d="M54.4353 70.0485C55.2091 72.3701 55.0567 74.9008 54.0101 77.1129C52.9634 79.3249 51.1032 81.0476 48.8174 81.9215C46.5316 82.7955 43.9966 82.7534 41.7412 81.8038C39.4857 80.8543 37.6838 79.0708 36.7113 76.8252C37.1178 78.0398 37.7657 79.1597 38.6162 80.1174C39.4667 81.0751 40.5022 81.8508 41.6603 82.3979C42.8184 82.945 44.0753 83.2522 45.3552 83.301C46.6351 83.3497 47.9116 83.1391 49.108 82.6816C50.3044 82.2242 51.3959 81.5295 52.3168 80.6392C53.2377 79.749 53.969 78.6817 54.4666 77.5015C54.9643 76.3213 55.2181 75.0526 55.2127 73.7718C55.2073 72.4909 54.9429 71.2244 54.4353 70.0485Z" fill="#ACFFFF"/>
<path d="M45.6031 69.1074C46.5917 69.1026 47.3909 68.6335 47.3881 68.0595C47.3853 67.4856 46.5816 67.0242 45.593 67.029C44.6043 67.0338 43.8051 67.503 43.8079 68.0769C43.8107 68.6508 44.6144 69.1122 45.6031 69.1074Z" fill="#FFD55B"/>
<path d="M45.6216 73.005C46.6103 73.0002 47.4095 72.531 47.4067 71.9571C47.4039 71.3832 46.6002 70.9218 45.6115 70.9266C44.6229 70.9314 43.8237 71.4006 43.8265 71.9745C43.8292 72.5484 44.633 73.0098 45.6216 73.005Z" fill="#FFD55B"/>
<path d="M41.5007 74.5068C41.9832 74.1958 41.94 73.2701 41.4044 72.4391C40.8688 71.6081 40.0435 71.1865 39.5611 71.4974C39.0787 71.8084 39.1218 72.7341 39.6575 73.5651C40.1931 74.3961 41.0183 74.8177 41.5007 74.5068Z" fill="#FF92B0"/>
<path d="M44.9163 76.3952C45.3987 76.0842 45.3556 75.1585 44.8199 74.3275C44.2843 73.4965 43.459 73.0749 42.9766 73.3858C42.4942 73.6968 42.5374 74.6225 43.073 75.4535C43.6086 76.2845 44.4339 76.7061 44.9163 76.3952Z" fill="#FF92B0"/>
<path d="M41.5194 78.433C42.0018 78.1221 41.9587 77.1964 41.4231 76.3654C40.8874 75.5344 40.0622 75.1128 39.5798 75.4237C39.0973 75.7346 39.1405 76.6604 39.6761 77.4914C40.2118 78.3224 41.037 78.744 41.5194 78.433Z" fill="#FF92B0"/>
<path d="M44.9358 80.3224C45.4182 80.0115 45.3751 79.0858 44.8395 78.2548C44.3038 77.4237 43.4786 77.0022 42.9962 77.3131C42.5138 77.624 42.5569 78.5498 43.0925 79.3808C43.6281 80.2118 44.4534 80.6334 44.9358 80.3224Z" fill="#FF92B0"/>
<path d="M51.6111 77.435C52.1386 76.5989 52.1728 75.6728 51.6874 75.3665C51.202 75.0603 50.3808 75.4898 49.8533 76.326C49.3257 77.1621 49.2916 78.0882 49.777 78.3945C50.2624 78.7007 51.0835 78.2712 51.6111 77.435Z" fill="#B14FBE"/>
<path d="M48.2124 79.3569C48.7399 78.5207 48.7741 77.5946 48.2887 77.2884C47.8033 76.9821 46.9822 77.4117 46.4546 78.2478C45.9271 79.084 45.8929 80.0101 46.3783 80.3164C46.8637 80.6226 47.6848 80.193 48.2124 79.3569Z" fill="#B14FBE"/>
<path d="M51.5916 73.4211C52.1192 72.5849 52.1534 71.6588 51.668 71.3526C51.1826 71.0463 50.3614 71.4759 49.8339 72.3121C49.3063 73.1482 49.2722 74.0743 49.7575 74.3806C50.2429 74.6868 51.0641 74.2572 51.5916 73.4211Z" fill="#B14FBE"/>
<path d="M48.194 75.3437C48.7215 74.5075 48.7557 73.5814 48.2703 73.2752C47.7849 72.9689 46.9637 73.3985 46.4362 74.2346C45.9086 75.0708 45.8744 75.9969 46.3598 76.3032C46.8452 76.6094 47.6664 76.1798 48.194 75.3437Z" fill="#B14FBE"/>
<path d="M42.263 71.0581C43.2516 71.0533 44.0508 70.5841 44.048 70.0102C44.0453 69.4363 43.2415 68.9749 42.2529 68.9797C41.2642 68.9845 40.465 69.4537 40.4678 70.0276C40.4706 70.6015 41.2743 71.0629 42.263 71.0581Z" fill="#FFD55B"/>
<path d="M49.0192 71.0249C50.0078 71.0201 50.807 70.5509 50.8043 69.977C50.8015 69.4031 49.9978 68.9417 49.0091 68.9465C48.0205 68.9513 47.2213 69.4205 47.224 69.9944C47.2268 70.5683 48.0305 71.0297 49.0192 71.0249Z" fill="#FFD55B"/>
<path d="M23.1313 36.1664C21.9944 31.0407 21.3417 25.8194 21.182 20.5716C17.4411 20.4341 14.1141 21.2905 10.3855 21.6211C10.4722 38.2216 16.6887 50.2002 25.8306 64.0581C26.0449 59.3722 30.6235 50.6122 27.8799 46.8121C25.2806 43.2146 24.1222 40.9973 23.1313 36.1664Z" fill="#00D8EC"/>
<path d="M13.0863 20.9816C13.1257 26.6388 14.0974 33.4884 16.0087 40.6652C19.9822 55.5855 26.5042 65.9326 24.7796 64.9574C23.3797 65.1077 22.7593 65.4349 21.1057 62.3336C15.4155 51.6755 8.43428 41.865 7.68481 22.9708C8.65946 22.8845 12.1535 21.1126 13.0863 20.9816Z" fill="#00CBE4"/>
<path d="M20.5888 4.49342C20.507 2.85653 20.2207 0.0173452 17.9728 9.92115e-05C14.6714 -0.0255234 15.2134 4.91965 15.2026 5.82629C11.6524 3.94155 10.9049 7.27545 10.9049 7.27545C10.1055 6.99977 9.23136 7.03656 8.45793 7.37844C7.62026 7.82437 7.55621 8.74629 7.07825 9.44007C6.6949 9.99589 3.80446 8.14514 4.17845 13.2189C4.40906 16.3508 6.63674 21.3985 7.83607 23.8706C9.70456 21.9863 21.182 21.9163 21.182 21.9163C21.0278 21.3137 20.7046 6.78764 20.5888 4.49342Z" fill="#C41ACD"/>
<path d="M13.3761 22.1858C13.2929 20.6083 13.0442 19.044 12.634 17.5185C12.2432 16.0654 10.83 12.0363 13.6687 10.9764C15.4875 10.2964 17.5447 12.1057 17.5737 13.616C17.795 11.236 19.4373 2.71257 16.2251 1.30283C16.0992 1.24905 15.9694 1.20491 15.8368 1.17077C16.0638 0.810331 16.3796 0.514235 16.7539 0.310871C17.1281 0.107508 17.5484 0.00369312 17.9743 0.00937671C20.2188 0.133548 20.5085 2.86729 20.5903 4.5027C20.7046 6.79692 21.0293 21.3245 21.1816 21.9256C21.1821 21.9256 16.9741 21.9892 13.3761 22.1858Z" fill="#DB32E1"/>
<path d="M68.5671 36.1664C69.7045 31.0408 70.3572 25.8195 70.5164 20.5716C74.2578 20.4341 77.5843 21.2905 81.3134 21.6211C81.2262 38.2216 75.0097 50.2002 65.8679 64.0581C65.6535 59.3722 61.075 50.6122 63.8186 46.8121C66.4178 43.2146 67.5762 40.9973 68.5671 36.1664Z" fill="#00D8EC"/>
<path d="M78.6122 20.9816C78.5733 26.6388 77.6016 33.4884 75.6903 40.6652C71.7163 55.5855 65.1949 65.9326 66.9195 64.9574C68.3189 65.1077 68.9372 65.4349 70.5934 62.3336C76.2836 51.6755 83.2642 41.865 84.0137 22.9708C83.0395 22.8845 79.545 21.1126 78.6122 20.9816Z" fill="#00CBE4"/>
<path d="M71.1122 4.49342C71.194 2.85653 71.4808 0.0173452 73.7282 9.92115e-05C77.032 -0.0255234 76.4875 4.91965 76.4984 5.82629C80.0461 3.94155 80.7961 7.27545 80.7961 7.27545C81.5955 6.99977 82.4696 7.03656 83.243 7.37844C84.0782 7.82437 84.1447 8.74629 84.6227 9.44007C85.0061 9.99589 87.8965 8.14514 87.5225 13.2189C87.2919 16.3508 85.0647 21.3985 83.8649 23.8706C81.9964 21.9863 70.5189 21.9163 70.5189 21.9163C70.6687 21.3137 70.9954 6.78764 71.1122 4.49342Z" fill="#C41ACD"/>
<path d="M78.323 22.1858C78.405 20.6084 78.6527 19.044 79.0621 17.5185C79.4529 16.0654 80.8666 12.0363 78.0274 10.9764C76.2087 10.2964 74.1515 12.1057 74.1224 13.616C73.9017 11.236 72.2593 2.71257 75.471 1.30283C75.5969 1.24905 75.7267 1.20491 75.8593 1.17077C75.6323 0.810331 75.3166 0.514235 74.9423 0.310871C74.568 0.107508 74.1477 0.00369312 73.7218 0.00937671C71.4779 0.133548 71.1876 2.86729 71.1058 4.5027C70.9915 6.79692 70.6668 21.3245 70.5145 21.9256C70.5165 21.9256 74.7245 21.9892 78.323 22.1858Z" fill="#DB32E1"/>
</svg>
