<svg width="2800" height="1080" viewBox="0 0 2800 1080" fill="none" xmlns="http://www.w3.org/2000/svg">
<g>
<path vector-effect="non-scaling-stroke" d="M1405.64 279.658C1430.78 279.658 1453.48 285.566 1469.87 295.064C1486.29 304.578 1496.19 317.573 1496.19 331.718C1496.19 345.863 1486.29 358.858 1469.87 368.371C1453.48 377.87 1430.78 383.776 1405.64 383.776C1380.5 383.776 1357.8 377.87 1341.41 368.371C1324.99 358.858 1315.09 345.863 1315.09 331.718C1315.09 317.573 1324.99 304.578 1341.41 295.064C1357.8 285.566 1380.5 279.658 1405.64 279.658ZM1233.04 179.718C1258.18 179.718 1280.89 185.624 1297.28 195.123C1313.69 204.637 1323.59 217.631 1323.59 231.776C1323.59 245.922 1313.69 258.916 1297.28 268.43C1280.89 277.928 1258.18 283.836 1233.04 283.836C1207.91 283.836 1185.2 277.928 1168.81 268.43C1152.4 258.916 1142.49 245.922 1142.49 231.776C1142.5 217.631 1152.4 204.637 1168.81 195.123C1185.2 185.624 1207.91 179.718 1233.04 179.718ZM1578.46 179.718C1603.6 179.718 1626.31 185.624 1642.7 195.123C1659.11 204.637 1669.01 217.631 1669.01 231.776C1669.01 245.922 1659.11 258.916 1642.7 268.43C1626.31 277.928 1603.6 283.836 1578.46 283.836C1553.33 283.836 1530.62 277.928 1514.23 268.43C1497.81 258.916 1487.91 245.922 1487.91 231.776C1487.91 217.631 1497.81 204.637 1514.23 195.123C1530.62 185.624 1553.33 179.718 1578.46 179.718ZM1405.64 80C1430.78 80 1453.48 85.9074 1469.87 95.4062C1486.29 104.92 1496.19 117.914 1496.19 132.06C1496.19 146.205 1486.29 159.199 1469.87 168.713C1453.48 178.212 1430.78 184.119 1405.64 184.119C1380.5 184.119 1357.8 178.212 1341.41 168.713C1324.99 159.199 1315.09 146.205 1315.09 132.06C1315.09 117.914 1324.99 104.92 1341.41 95.4062C1357.8 85.9075 1380.5 80 1405.64 80Z" stroke="#dedbff" stroke-width="1"/>
<path vector-effect="non-scaling-stroke" d="M1492.59 607.248C1509.03 597.764 1525.21 595.673 1537.43 602.745C1549.66 609.816 1555.94 624.903 1555.96 643.902C1555.98 662.87 1549.73 685.524 1537.16 707.332C1524.59 729.137 1508.13 745.883 1491.73 755.352C1475.3 764.836 1459.11 766.927 1446.89 759.856C1434.66 752.785 1428.38 737.7 1428.36 718.701C1428.34 699.732 1434.59 677.077 1447.16 655.27C1459.73 633.463 1476.19 616.716 1492.59 607.248ZM1665.19 507.428C1681.62 497.945 1697.81 495.854 1710.03 502.925C1722.26 509.997 1728.54 525.083 1728.56 544.082C1728.58 563.05 1722.33 585.704 1709.77 607.511C1697.2 629.318 1680.73 646.065 1664.33 655.534C1647.89 665.017 1631.71 667.108 1619.48 660.037C1607.26 652.965 1600.97 637.879 1600.96 618.88C1600.94 599.912 1607.19 577.258 1619.76 555.451C1632.33 533.644 1648.79 516.897 1665.19 507.428ZM1492.5 407.42C1508.93 397.936 1525.11 395.846 1537.34 402.917C1549.56 409.989 1555.85 425.075 1555.86 444.074C1555.88 463.042 1549.63 485.697 1537.06 507.503C1524.5 529.311 1508.04 546.058 1491.63 555.527C1475.2 565.011 1459.02 567.101 1446.79 560.03C1434.56 552.958 1428.28 537.871 1428.26 518.873C1428.25 499.904 1434.49 477.251 1447.06 455.444C1459.63 433.636 1476.09 416.889 1492.5 407.42ZM1665.09 307.602C1681.52 298.118 1697.71 296.028 1709.93 303.099C1722.16 310.171 1728.45 325.257 1728.46 344.255C1728.48 363.224 1722.23 385.878 1709.66 407.685C1697.09 429.492 1680.63 446.24 1664.22 455.708C1647.79 465.192 1631.61 467.283 1619.39 460.211C1607.16 453.139 1600.88 438.053 1600.86 419.054C1600.84 400.086 1607.09 377.432 1619.66 355.625C1632.22 333.818 1648.68 317.071 1665.09 307.602Z" stroke="#dedbff" stroke-width="1"/>
<path vector-effect="non-scaling-stroke" d="M1274.09 602.845C1286.32 595.774 1302.5 597.865 1318.93 607.348C1335.34 616.817 1351.8 633.564 1364.37 655.372C1376.94 677.179 1383.19 699.831 1383.17 718.799C1383.15 737.501 1377.06 752.411 1365.21 759.621L1364.64 759.959C1352.42 767.029 1336.23 764.938 1319.8 755.454C1303.4 745.985 1286.93 729.239 1274.37 707.432C1261.8 685.625 1255.55 662.971 1255.57 644.003C1255.58 625.004 1261.87 609.918 1274.09 602.845ZM1101.46 502.862C1113.69 495.791 1129.87 497.882 1146.3 507.366C1162.71 516.835 1179.17 533.581 1191.74 555.388C1204.31 577.195 1210.55 599.849 1210.54 618.817C1210.52 637.816 1204.24 652.901 1192.01 659.973C1179.78 667.045 1163.6 664.954 1147.17 655.47C1130.76 646.002 1114.3 629.256 1101.73 607.449C1089.17 585.642 1082.92 562.988 1082.94 544.019C1082.95 525.02 1089.24 509.934 1101.46 502.862ZM1274.04 402.975C1286.26 395.904 1302.45 397.994 1318.88 407.478C1335.28 416.947 1351.74 433.694 1364.31 455.501C1376.88 477.308 1383.13 499.962 1383.11 518.93C1383.1 537.929 1376.81 553.015 1364.59 560.087C1352.36 567.158 1336.18 565.067 1319.75 555.584C1303.34 546.115 1286.88 529.368 1274.31 507.561C1261.74 485.754 1255.49 463.1 1255.51 444.131C1255.53 425.133 1261.81 410.047 1274.04 402.975ZM1101.4 302.989C1113.63 295.917 1129.81 298.008 1146.24 307.492C1162.65 316.961 1179.11 333.707 1191.68 355.514C1204.25 377.321 1210.5 399.976 1210.48 418.944C1210.46 437.943 1204.18 453.028 1191.95 460.1C1179.73 467.172 1163.54 465.081 1147.11 455.597C1130.71 446.129 1114.24 429.382 1101.68 407.575C1089.11 385.768 1082.86 363.114 1082.88 344.145C1082.89 325.147 1089.18 310.061 1101.4 302.989Z" stroke="#dedbff" stroke-width="1"/>
<path vector-effect="non-scaling-stroke" d="M63.6225 1203.5L2386.3 -137.5" stroke="#dedbff" stroke-width="1"/>
<path vector-effect="non-scaling-stroke" d="M379.012 1222.5L2608.16 -64.4997" stroke="#dedbff" stroke-width="1"/>
<path vector-effect="non-scaling-stroke" d="M379.01 1424.5L2941.58 -55.0001" stroke="#dedbff" stroke-width="1"/>
<path vector-effect="non-scaling-stroke" d="M2586.19 1111L423.721 -137.5" stroke="#dedbff" stroke-width="1"/>
<path vector-effect="non-scaling-stroke" d="M2431.01 1222.5L167.223 -84.5" stroke="#dedbff" stroke-width="1"/>
<path vector-effect="non-scaling-stroke" d="M2431.01 1424.5L0.101952 20.9999" stroke="#dedbff" stroke-width="1"/>
<path vector-effect="non-scaling-stroke" d="M1671.88 379H2844" stroke="#5A30C5" stroke-width="1"/>
<path vector-effect="non-scaling-stroke" d="M1495.88 481H2820" stroke="#5A30C5" stroke-width="1"/>
<path vector-effect="non-scaling-stroke" d="M1671.88 583H2816" stroke="#5A30C5" stroke-width="1"/>
<path vector-effect="non-scaling-stroke" d="M1495.88 682H2810" stroke="#5A30C5" stroke-width="1"/>
<path vector-effect="non-scaling-stroke" d="M1317.88 682.875L721.347 682.875C652.601 682.875 596.877 627.365 596.877 558.921L596.877 -116" stroke="#5A30C5" stroke-width="1" stroke-miterlimit="10"/>
<path vector-effect="non-scaling-stroke" d="M694.04 -120L694.04 485.847C694.04 538.74 737.145 581.669 790.244 581.669L1145.88 581.669" stroke="#5A30C5" stroke-width="1" stroke-miterlimit="10"/>
<path vector-effect="non-scaling-stroke" d="M1319.38 480.563L859.242 480.563C821.689 480.563 791.304 450.317 791.304 412.925L791.304 -174" stroke="#5A30C5" stroke-width="1" stroke-miterlimit="10"/>
<path vector-effect="non-scaling-stroke" d="M1141.88 379.357L928.089 379.357C906.183 379.357 888.416 361.642 888.416 339.851L888.416 -190" stroke="#5A30C5" stroke-width="1" stroke-miterlimit="10"/>
</g>
</svg>
