<svg xmlns="http://www.w3.org/2000/svg" viewBox="0 0 794.43 148.58"><defs><style>.cls-1{fill:#08b1ab;}.cls-2{fill:#0a243f;}.cls-3{fill:#002139;}</style></defs><g id="Layer_2" data-name="Layer 2"><g id="Layer_1-2" data-name="Layer 1"><g id="wyG93P"><path class="cls-1" d="M40.68,18.37c3.67.7,7.09,1.26,10.47,2A141.37,141.37,0,0,1,84.67,32.52,114.22,114.22,0,0,1,110.74,50.6,82.17,82.17,0,0,1,117,57a33.6,33.6,0,0,1,3.55,5.38,61.27,61.27,0,0,1,7.17,21.08,76.71,76.71,0,0,1,.81,15.36A92.31,92.31,0,0,1,126,116.46a2.1,2.1,0,0,0,.43,2,21.77,21.77,0,0,0,7,5.54,45.7,45.7,0,0,0,10.83,3.86l1.45.35L144,136.31c-.85-.19-1.62-.33-2.38-.52a50.13,50.13,0,0,1-14.35-5.68,25.87,25.87,0,0,1-8.36-7.81c-3.34-.43-6.57-.75-9.76-1.28a83,83,0,0,1-21.88-6.7A58.34,58.34,0,0,1,73,105.12,45.58,45.58,0,0,1,59.17,83.47C56.79,75.25,54.7,67,52.75,58.62c-1.54-6.57-3-13.14-4.64-19.69A92.77,92.77,0,0,0,41,19.28C40.94,19.08,40.88,18.87,40.68,18.37Zm71.62,89.57c-.09-.31-.12-.48-.18-.65-.78-2.4-1.53-4.81-2.37-7.19A162.17,162.17,0,0,0,94.71,68C88.58,58.12,81.37,49.19,72.15,42a52.13,52.13,0,0,0-12.71-7.55c-.36-.15-.75-.26-1.12-.38a1.82,1.82,0,0,0,.56.91c1.39,1.44,2.88,2.8,4.16,4.33A106,106,0,0,1,82.3,73.71,71.59,71.59,0,0,0,90.37,91a42.13,42.13,0,0,0,16.77,15A27,27,0,0,0,112.3,107.94ZM58,34,57.9,34s.05.06.07.06.05,0,.08-.05Z"/><path class="cls-1" d="M137.9,108.33c3.69-24-1.29-45.63-16.76-64.61,1.37-.77,2.77-1.57,4.19-2.34,6.54-3.54,13.15-6.93,20-9.82a90.16,90.16,0,0,1,16.1-5.25,74.36,74.36,0,0,1,15-1.31c4,0,8-.22,12-.42,1.62-.08,3.22-.38,4.83-.57.33,0,.67-.05,1.14-.09C193.45,25,192.57,26,191.76,27a71.58,71.58,0,0,0-8.13,13.44,162.38,162.38,0,0,0-9.76,26c-.73,2.53-1.15,5.16-1.92,7.67a49.5,49.5,0,0,1-19.27,26.26,69.53,69.53,0,0,1-13.78,7.53Z"/><path class="cls-2" d="M187.09,8.46c.79-2.84,1.54-5.56,2.35-8.46,2.6,1.08,5.13,2,7.58,3.17a55.68,55.68,0,0,1,29.35,31.07,85.82,85.82,0,0,1,4.82,18.11,147.4,147.4,0,0,1,1.47,28.93,111.72,111.72,0,0,1-3.09,23.09c-2.44,9.75-6.42,18.76-13,26.47a56.76,56.76,0,0,1-17.41,13.59,75.33,75.33,0,0,1-9.72,4.15c-.78-2.77-1.55-5.5-2.33-8.29a4.56,4.56,0,0,1,.54-.39c8.62-4.49,14.63-11.42,18.75-20.1a74.23,74.23,0,0,0,5.73-18.54,146.72,146.72,0,0,0,2.12-22.53c.17-5.83,0-11.65-.37-17.45a104.88,104.88,0,0,0-4.24-24.6,51.84,51.84,0,0,0-9.49-18.13,38.15,38.15,0,0,0-12-9.53Z"/><path class="cls-2" d="M43.41.14l2.15,8.29c-1.39.8-2.79,1.54-4.13,2.37a39.17,39.17,0,0,0-13.28,14,65,65,0,0,0-7,19.25,122.79,122.79,0,0,0-2.33,17.5q-.61,9.12-.35,18.25A126.06,126.06,0,0,0,21.76,107a60.59,60.59,0,0,0,8.34,19.57A40.31,40.31,0,0,0,44.65,139.7l.92.53c-.71,2.76-1.42,5.49-2.15,8.29-.29-.08-.54-.13-.78-.21A66.65,66.65,0,0,1,25,139,54.43,54.43,0,0,1,9,120,77.54,77.54,0,0,1,1.77,97.24,140.74,140.74,0,0,1,.05,70.59a118.94,118.94,0,0,1,3.13-26A65.33,65.33,0,0,1,14.47,19.94,55.12,55.12,0,0,1,31.09,5.6,67.85,67.85,0,0,1,42.31.51C42.66.38,43,.28,43.41.14Z"/><path class="cls-1" d="M40.68,18.37c3.67.7,7.09,1.26,10.47,2A141.37,141.37,0,0,1,84.67,32.52,114.22,114.22,0,0,1,110.74,50.6,82.17,82.17,0,0,1,117,57a33.6,33.6,0,0,1,3.55,5.38,61.27,61.27,0,0,1,7.17,21.08,76.71,76.71,0,0,1,.81,15.36A92.31,92.31,0,0,1,126,116.46a2.1,2.1,0,0,0,.43,2,21.77,21.77,0,0,0,7,5.54,45.7,45.7,0,0,0,10.83,3.86l1.45.35L144,136.31c-.85-.19-1.62-.33-2.38-.52a50.13,50.13,0,0,1-14.35-5.68,25.87,25.87,0,0,1-8.36-7.81c-3.34-.43-6.57-.75-9.76-1.28a83,83,0,0,1-21.88-6.7A58.34,58.34,0,0,1,73,105.12,45.58,45.58,0,0,1,59.17,83.47C56.79,75.25,54.7,67,52.75,58.62c-1.54-6.57-3-13.14-4.64-19.69A92.77,92.77,0,0,0,41,19.28C40.94,19.08,40.88,18.87,40.68,18.37Zm71.62,89.57c-.09-.31-.12-.48-.18-.65-.78-2.4-1.53-4.81-2.37-7.19A162.17,162.17,0,0,0,94.71,68C88.58,58.12,81.37,49.19,72.15,42a52.13,52.13,0,0,0-12.71-7.55c-.36-.15-.75-.26-1.12-.38a1.82,1.82,0,0,0,.56.91c1.39,1.44,2.88,2.8,4.16,4.33A106,106,0,0,1,82.3,73.71,71.59,71.59,0,0,0,90.37,91a42.13,42.13,0,0,0,16.77,15A27,27,0,0,0,112.3,107.94ZM58,34,57.9,34s.05.06.07.06.05,0,.08-.05Z"/><path class="cls-1" d="M137.9,108.33c3.69-24-1.29-45.63-16.76-64.61,1.37-.77,2.77-1.57,4.19-2.34,6.54-3.54,13.15-6.93,20-9.82a90.16,90.16,0,0,1,16.1-5.25,74.36,74.36,0,0,1,15-1.31c4,0,8-.22,12-.42,1.62-.08,3.22-.38,4.83-.57.33,0,.67-.05,1.14-.09C193.45,25,192.57,26,191.76,27a71.58,71.58,0,0,0-8.13,13.44,162.38,162.38,0,0,0-9.76,26c-.73,2.53-1.15,5.16-1.92,7.67a49.5,49.5,0,0,1-19.27,26.26,69.53,69.53,0,0,1-13.78,7.53Z"/><path class="cls-3" d="M187.09,8.46c.79-2.84,1.54-5.56,2.35-8.46,2.6,1.08,5.13,2,7.58,3.17a55.68,55.68,0,0,1,29.35,31.07,85.82,85.82,0,0,1,4.82,18.11,147.4,147.4,0,0,1,1.47,28.93,111.72,111.72,0,0,1-3.09,23.09c-2.44,9.75-6.42,18.76-13,26.47a56.76,56.76,0,0,1-17.41,13.59,75.33,75.33,0,0,1-9.72,4.15c-.78-2.77-1.55-5.5-2.33-8.29a4.56,4.56,0,0,1,.54-.39c8.62-4.49,14.63-11.42,18.75-20.1a74.23,74.23,0,0,0,5.73-18.54,146.72,146.72,0,0,0,2.12-22.53c.17-5.83,0-11.65-.37-17.45a104.88,104.88,0,0,0-4.24-24.6,51.84,51.84,0,0,0-9.49-18.13,38.15,38.15,0,0,0-12-9.53Z"/><path class="cls-3" d="M43.41.14l2.15,8.29c-1.39.8-2.79,1.54-4.13,2.37a39.17,39.17,0,0,0-13.28,14,65,65,0,0,0-7,19.25,122.79,122.79,0,0,0-2.33,17.5q-.61,9.12-.35,18.25A126.06,126.06,0,0,0,21.76,107a60.59,60.59,0,0,0,8.34,19.57A40.31,40.31,0,0,0,44.65,139.7l.92.53c-.71,2.76-1.42,5.49-2.15,8.29-.29-.08-.54-.13-.78-.21A66.65,66.65,0,0,1,25,139,54.43,54.43,0,0,1,9,120,77.54,77.54,0,0,1,1.77,97.24,140.74,140.74,0,0,1,.05,70.59a118.94,118.94,0,0,1,3.13-26A65.33,65.33,0,0,1,14.47,19.94,55.12,55.12,0,0,1,31.09,5.6,67.85,67.85,0,0,1,42.31.51C42.66.38,43,.28,43.41.14Z"/><path class="cls-3" d="M455.88,103.49H440.5V94.8c-2.29,1.8-4.18,3.39-6.18,4.81a26.2,26.2,0,0,1-12.78,5.15c-8.72.81-14.81-2.9-16.92-11.06-1.2-4.67-1.07-9.4-.73-14.11a58,58,0,0,1,3.32-16.43,34.16,34.16,0,0,1,2.7-5.62c3.31-5.42,8.36-8,14.59-8.36a75.78,75.78,0,0,1,16.55.84c1,.16,2.05.22,3,.31.94-7.14,1.87-14.17,2.82-21.31h19.59C462.92,53.86,459.41,78.59,455.88,103.49Zm-13.57-41.9c-3.07,0-5.85-.07-8.64,0-4.91.14-7.07,1.7-8.14,6.47-.9,4-1.39,8.18-1.93,12.3a25.61,25.61,0,0,0-.06,5c.18,2.31,1.27,3.21,3.62,3.21a14,14,0,0,0,2.14-.22c3.42-.57,6.23-2.38,8.94-4.41a3.21,3.21,0,0,0,1.36-2.35C440.44,75.05,441.37,68.48,442.31,61.59Z"/><path class="cls-3" d="M362.37,105c-3.16-.39-7.1-.63-10.92-1.41-9.2-1.89-14.2-7.39-14.93-16.64a52,52,0,0,1,3.77-23.76,20.57,20.57,0,0,1,15.37-12.9,55.81,55.81,0,0,1,24.8-.05c9.11,2.09,14,8.34,14.22,17.74a57.69,57.69,0,0,1-3.2,21c-3.17,9-9.75,13.8-19,15.09C369.37,104.49,366.24,104.64,362.37,105Zm-6.14-21.42.37.06c0,.88-.06,1.77,0,2.65.22,3,1.53,4.42,4.59,4.87a9.62,9.62,0,0,0,1.18.18c6,.18,8.56-1.25,10-6.73a93.46,93.46,0,0,0,2-11.32,24.75,24.75,0,0,0,.13-6.2c-.31-2.73-1.43-3.82-4.17-4.16a24.56,24.56,0,0,0-5.48.14,6.19,6.19,0,0,0-5,3.73,13,13,0,0,0-1.31,3.34C357.77,74.59,357,79.08,356.23,83.56Z"/><path class="cls-3" d="M491.55,83.13c-.68,3.69,1.58,6.34,5.61,6.44,4.32.12,8.66,0,13-.21,3.67-.15,7.33-.51,11.22-.79.42,4,.83,7.91,1.24,11.89A43.51,43.51,0,0,1,509.9,104a66.05,66.05,0,0,1-17.76.48,42.37,42.37,0,0,1-9.34-2.07c-6.93-2.52-10.63-7.84-11.4-15A52.72,52.72,0,0,1,474,64.61c3-8.94,9.6-13.58,18.65-14.88a66.47,66.47,0,0,1,22.51.37c.32.06.64.09,1,.17,11.08,2.8,15.53,13.21,10,23.31a12.53,12.53,0,0,1-6.16,5.51c-4.17,1.87-8.63,2.39-13.1,2.78-4.8.41-9.6.7-14.4,1.06A5.81,5.81,0,0,0,491.55,83.13Zm1-10.32c4-.44,8-.71,11.89-1.37,3.38-.57,4.65-2.39,4.74-5.88.06-2-.7-3.17-2.68-3.29C498.62,61.78,494.07,61.68,492.56,72.81Z"/><path class="cls-3" d="M324.64,88.61l1.29,12.47c-2.64.77-5.19,1.65-7.8,2.24-8.4,1.9-16.87,2.3-25.27.23-9.13-2.26-14-8.61-14.34-18.06a56.34,56.34,0,0,1,3.2-21c3.09-8.7,9.33-13.59,18.41-14.83a62.35,62.35,0,0,1,29.65,2.77l1.25.46c-.87,3.88-1.73,7.68-2.61,11.61-.67,0-1.29.14-1.91.14-5.14,0-10.28,0-15.42,0a24,24,0,0,0-2.4.07c-4.85.52-7.37,2.43-8.43,7.19A62.63,62.63,0,0,0,298.85,83c-.17,4.14,1.82,6.12,6,6.15,5.21,0,10.43-.21,15.64-.34C321.81,88.78,323.15,88.69,324.64,88.61Z"/><path class="cls-3" d="M752.62,29h10.25c-1.5,10.95-2.43,21.83-5,32.67C761.07,59.29,764,57,767,55c4.77-3.13,9.93-5.12,15.79-4.91,7.89.29,12.56,5.77,11.45,13.57q-2.78,19.5-5.51,39a6.77,6.77,0,0,1-.22.79H778.39c.67-4.91,1.31-9.73,2-14.54,1-7.38,2.1-14.74,3.07-22.12a22.51,22.51,0,0,0,0-4.57,3.25,3.25,0,0,0-2.6-3.07,11.82,11.82,0,0,0-6.84.46c-4.22,1.28-7.75,3.8-11.29,6.3-1.17.83-2.25,1.82-3.47,2.57a5.87,5.87,0,0,0-2.71,4.75c-1.31,10-2.69,20-4.07,30.17h-10.4Z"/><path class="cls-3" d="M520.18,124.18l1.67-8c1.94,0,3.77,0,5.59,0,1.6,0,3.21,0,4.81-.07,4-.23,6.06-1.78,7-5.68.64-2.64,1-5.36,1.37-8,1.27-8.8,2.49-17.6,3.74-26.4.67-4.76,1.36-9.52,2-14.28a17.54,17.54,0,0,0,0-2.21h-9c.33-2.63.63-4.91,1-7.46l9.44-.66c.51-3.42,1-6.82,1.54-10.19,1-5.47,3.28-10.09,8.62-12.51a16.78,16.78,0,0,1,5.28-1.51,94.38,94.38,0,0,1,18.15.59c-.52,2.58-1,5-1.54,7.77h-2.69c-3.61,0-7.22,0-10.83.12-3,.12-5.29,1.67-6,4.64-.9,3.55-1.41,7.19-2.14,11.1h16.22c-.37,2.77-.7,5.25-1.06,8H557.25c-.57,3.93-1.12,7.63-1.65,11.33q-1.87,13.2-3.74,26.41c-.66,4.67-1.22,9.37-2.05,14-1.58,8.78-7.38,13.66-16.23,13.63C529.27,124.74,525,124.4,520.18,124.18Z"/><path class="cls-3" d="M636.56,83.55a13.73,13.73,0,0,0,.78,6.79c1.4,3.69,4.4,5.34,8,5.48,4.87.19,9.77,0,14.65-.22,2.79-.1,5.58-.43,8.6-.68.22,2.27.43,4.46.66,6.78a28.37,28.37,0,0,1-8.82,2.24c-5.81.69-11.63,1.34-17.5.62-3.78-.46-7.41-1.33-10.55-3.61-3.87-2.81-5.77-6.82-6.42-11.41a52.91,52.91,0,0,1,3.47-26.86c2.51-6.47,7.45-10.27,14.24-11.6a50.58,50.58,0,0,1,21.46.07c4.23,1,7.9,3,9.15,7.59a19.37,19.37,0,0,1-2.59,16.31,12.55,12.55,0,0,1-8.28,5.35c-4.38.88-8.84,1.43-13.28,1.94S641.25,83.14,636.56,83.55Zm.31-8.1a4.89,4.89,0,0,0,.9.25c6.21-.53,12.44-1,18.64-1.64,3.47-.36,6.38-1.79,7.41-5.48a19.25,19.25,0,0,0,.65-4.72c.07-2.85-.92-4.35-3.76-4.61a78.75,78.75,0,0,0-12.19-.18c-5,.31-8,3.44-9.47,8C638.15,69.77,637.6,72.59,636.87,75.45Z"/><path class="cls-3" d="M732.12,51.8c-.45,2.64-.84,4.91-1.25,7.3-2.28,0-4.51,0-6.73,0-6.58-.09-13.15-.21-19.73-.27a16.23,16.23,0,0,0-2.84.42,4.22,4.22,0,0,0-3.68,3.61,4.55,4.55,0,0,0,1.7,4.93,13.37,13.37,0,0,0,2.47,1.46c5.31,2.46,10.63,4.87,15.94,7.33,1.45.67,2.87,1.42,4.26,2.21,6.38,3.64,7.07,7.85,6.06,13.79-1.2,7.05-5.17,10.55-12.57,11.47a112.61,112.61,0,0,1-23.29.12c-2.86-.25-5.7-.58-8.81-.89.41-2.73.77-5.15,1.17-7.82,1.69.13,3.26.35,4.83.36,6.18,0,12.36.12,18.54,0a27.3,27.3,0,0,0,6.15-.92,4.77,4.77,0,0,0,4.08-4.71c.26-2.46-1.29-3.66-3.19-4.54-5.45-2.53-11-4.94-16.37-7.55a49.31,49.31,0,0,1-6.81-4C684.8,69,686.6,54.52,696,51.68a31.66,31.66,0,0,1,7-1.43,118.72,118.72,0,0,1,20.9.65C726.53,51.2,729.15,51.47,732.12,51.8Z"/><path class="cls-3" d="M590.22,103.51H579.86c2.45-17.34,4.89-34.56,7.33-51.86h7.94c-.18,3.74-.35,7.46-.54,11.62,2-1.73,3.64-3.27,5.37-4.73,4.59-3.85,9.51-7.12,15.56-8.15a46.91,46.91,0,0,1,5.34-.31l-2.53,9.56c-1.75.1-3.35.08-4.92.31a24.36,24.36,0,0,0-9.64,4.13c-2.68,1.75-5.24,3.7-7.9,5.48a3,3,0,0,0-1.3,2.39C593.16,82.42,591.69,92.88,590.22,103.51Z"/></g></g></g></svg>