<svg xmlns="http://www.w3.org/2000/svg" viewBox="0 0 399 200"><defs><linearGradient id="linear-gradient" x1="46.14" y1="76.98" x2="69.82" y2="45.87" gradientTransform="matrix(1 0 0 -1 0 202)" gradientUnits="userSpaceOnUse"><stop offset="0" stop-color="#018b45"/><stop offset=".51" stop-color="#016a37"/><stop offset="1" stop-color="#1d4c36"/></linearGradient><linearGradient id="linear-gradient-2" x1="139.16" y1="150.86" x2="161.91" y2="121.62" gradientTransform="matrix(1 0 0 -1 0 202)" gradientUnits="userSpaceOnUse"><stop offset="0" stop-color="#125936"/><stop offset=".51" stop-color="#026837"/><stop offset="1" stop-color="#1f4b36"/></linearGradient><linearGradient id="linear-gradient-3" x1="175.07" y1="118.9" x2="183" y2="146.23" gradientTransform="matrix(1 0 0 -1 0 202)" gradientUnits="userSpaceOnUse"><stop offset="0" stop-color="#016a37"/><stop offset=".51" stop-color="#059046"/><stop offset="1" stop-color="#1ca54a"/></linearGradient><linearGradient id="linear-gradient-4" x1="87.9" y1="34.96" x2="125.92" y2="166.05" gradientTransform="matrix(1 0 0 -1 0 202)" gradientUnits="userSpaceOnUse"><stop offset="0" stop-color="#006535"/><stop offset=".51" stop-color="#039147"/><stop offset="1" stop-color="#19a14a"/></linearGradient><style>.cls-1{fill:#039147}.cls-2{fill:#4d4e4f}</style></defs><g id="typo"><path class="cls-1" d="M263.38 124h8.11v29c0 2.79 1.91 2.74 3.59 2.74h14.53v6.79h-17.43c-4.57 0-8.8-1.58-8.8-7.47V124ZM308.4 124h9.21l13.78 38.53h-8.63l-3-8.53h-13.9l-3.06 8.53h-8.7Zm9.44 23.48-4.75-13.79-5.09 13.83ZM336.32 124h17.49c8.74 0 11.93 4.74 11.93 10.32 0 3.52-1.68 7.52-5.79 8.21 3.53.58 6.48 3.79 6.48 8.68 0 7.16-3.59 11.32-12.51 11.32h-17.6Zm17 15.27c2.95 0 4.46-1.64 4.46-4.37 0-3.58-2.38-4.37-4.46-4.37h-8.86v8.73h8.86Zm.35 16.73c2.43 0 4.69-1 4.69-5.1 0-2.85-1.28-5.42-4.69-5.42h-9.21V156Z"/><path class="cls-2" d="M104 123.91h8.11v38.53H104ZM118.64 123.91h18.53c6.66 0 11.58 2.79 11.58 12 0 9.53-4.4 10.68-6.78 11.37l8.03 15.16h-9.15l-7-14.58-7.12-.74v15.32h-8.11v-38.53Zm17.78 17.42c2.78 0 4.17-.74 4.17-5.42 0-4.37-1.63-5.47-4.17-5.47h-9.61v10.89ZM153.22 123.91h31.33v6.79h-11.76v31.74h-8.1V130.7h-11.47v-6.79ZM189.67 123.91h8.1v21.68c0 8.79 2.15 10.32 8.22 10.32 5.39 0 7.88-1.79 7.88-10.32v-21.68H222v21.68c0 17-9 17.11-16 17.11-7.87 0-16.32.42-16.32-17.11v-21.68ZM227.58 133.54c0-7.63 5-9.84 11.47-9.95a71.47 71.47 0 0 1 16.38 1.53v5.79c-3.7-.32-12.1-.53-14.18-.53-3.53 0-5.56.16-5.56 3.74V136c0 3.06 1.27 3.69 4.51 3.69h6.72c8.34 0 10 6 10 10.21v2.58c0 8.74-6 10.37-11.7 10.37-7.24 0-12-.42-16.38-1.58v-5.79c2.31.21 9.38.58 14.76.58 2.43 0 5.21-.37 5.21-3.32v-2.04c0-2.21-.69-3.63-3.82-3.63h-6.48c-10.25 0-10.95-6.85-10.95-10.21Z"/></g><g id="symbol"><path d="m32.29 114 31.54 52.27h9.9l-20.2-49.5Z" style="fill:url(#linear-gradient);fill-rule:evenodd"/><path d="m159.67 79.92-49.09-34.47 40-10.69 24.94 46.74Z" style="fill:url(#linear-gradient-2);fill-rule:evenodd"/><path style="fill:url(#linear-gradient-3);fill-rule:evenodd" d="m188.22 58.53-28.54 21.39 15.84 1.58 22.99-22.97h-10.29z"/><path d="m73.73 166.24 76.85-131.48-40 10.69-46.75 120.79Z" style="fill:url(#linear-gradient-4);fill-rule:evenodd"/></g></svg>