<?xml version="1.0" encoding="utf-8"?>
<!-- Generator: Adobe Illustrator 23.0.3, SVG Export Plug-In . SVG Version: 6.00 Build 0)  -->
<svg version="1.1" id="Layer_1" xmlns="http://www.w3.org/2000/svg" xmlns:xlink="http://www.w3.org/1999/xlink" x="0px" y="0px"
	 width="328px" height="628px"  viewBox="0 0 126.6332321 177.2823639" style="enable-background:new 0 0 126.6332321 177.2823639;" xml:space="preserve">
<style type="text/css">
	.st0{fill:#9E7FBA;}
	.st1{fill:#8D96A5;}
</style>
<polygon class="st0" points="91.8085938,12.6632318 91.8085938,6.3316278 53.3584023,6.3316278 53.3584023,12.6632318 
	34.8239174,12.6632318 34.8239174,18.9948368 9.4974384,18.9948368 9.4974384,25.3265018 28.4923115,25.3265018 
	28.4923115,31.6581669 15.8290424,31.6581669 15.8290424,37.989769 34.8239174,37.989769 34.8239174,44.321373 
	41.1555824,44.321373 41.1555824,50.652977 41.1555824,50.653038 41.1555824,56.984642 47.4871864,56.984642 47.4871864,56.9859848 
	47.4871864,63.3175888 60.1480141,63.3175888 60.1480141,63.3175888 60.1480141,66.9738388 60.1480141,69.6491928 
	34.8239784,69.6491928 34.8239784,75.9808578 47.4859047,75.9808578 47.4859047,82.3124619 60.147953,82.3124008 
	60.147953,75.9807968 66.4821167,75.9807968 66.4821167,69.6491928 91.8062134,69.6491928 91.8062134,63.3175888 
	79.1453857,63.3175888 79.1453857,63.3175278 79.1453857,61.0712509 79.1453857,56.9859238 72.8143921,56.9859238 
	72.8143921,56.984581 72.8143921,50.9287338 72.8143921,50.653038 79.1453247,50.653038 79.1453247,44.321373 85.4769287,44.321373 
	85.4769287,37.9897079 85.4769897,37.9897079 85.4769897,34.7098007 91.8085938,34.7098007 91.8085938,25.3264408 
	98.1414185,25.3264408 98.1414185,18.9948368 98.1414185,12.6632318 "/>
<g>
	<polygon class="st1" points="98.1390381,37.98983 98.1390381,31.6581669 85.4770508,31.6581669 85.4770508,41.1187363 
		85.4772339,41.1187363 85.4772339,44.321434 79.1453857,44.321434 79.1453857,50.652977 79.1453857,50.653038 
		79.1453857,56.984581 85.4769287,56.984581 85.4769287,63.316185 117.1364136,63.316185 117.1364136,56.984581 
		123.4675903,56.984581 123.4675903,50.653038 123.4675903,50.652977 123.4675903,44.321434 123.4675903,37.98983 	"/>
	<polygon class="st1" points="104.4718628,75.9807968 85.4768677,75.9807968 85.4768677,82.314415 79.1453857,82.314415 
		79.1453857,88.6440659 79.1453857,88.64608 79.1453857,94.9757309 110.8029175,94.9757309 110.8029175,88.64608 
		110.8029175,88.6440659 110.8029175,82.314415 104.4718628,82.314415 	"/>
	<polygon class="st1" points="66.4821167,145.6242371 66.4821167,145.618988 66.4821167,139.292572 60.1505165,139.292572 
		60.1505165,132.9577332 41.1555214,132.9577332 41.1555214,142.4329529 41.1555824,142.4329529 41.1555824,145.618988 
		41.1555824,145.6242371 41.1555824,151.9506531 34.824955,151.9506531 34.824955,158.280304 34.824955,158.2822571 
		34.824955,164.611969 41.1555214,164.611969 41.1555214,170.9416199 72.8137817,170.9416199 72.8137817,164.611969 
		72.8137817,164.6100159 72.8137817,158.2822571 72.8137817,158.280304 72.8137817,151.9506531 66.4821167,151.9506531 	"/>
	<rect x="86.7957764" y="118.9746933" class="st1" width="2.2729492" height="2.2729492"/>
	<polygon class="st1" points="91.3416748,111.3264999 91.3416748,112.1504745 91.3416748,114.4261093 91.3416748,116.6990585 
		91.3416748,116.7004013 91.3416748,118.9733505 91.3416748,118.9746933 91.3416748,119.7647324 91.3416748,121.2476425 
		93.614624,121.2476425 93.614624,119.7647324 93.614624,118.9746933 93.614624,118.9733505 93.614624,116.7004013 
		93.614624,116.6990585 93.614624,114.4261093 93.614624,112.1504745 93.614624,111.3264999 93.614624,109.8775253 
		91.3416748,109.8775253 	"/>
	<rect x="91.3416748" y="105.3289413" class="st1" width="2.2729492" height="2.2728882"/>
	<polygon class="st1" points="102.7063599,109.8788681 100.4334717,109.8788681 98.1605225,109.8788681 98.1605225,112.1518173 
		100.4334717,112.1518173 102.7063599,112.1518173 104.9793091,112.1518173 104.9793091,109.8788681 	"/>
	<polygon class="st1" points="104.9793091,113.2882919 104.9793091,114.4247665 104.9793091,116.7004013 104.9793091,117.8368759 
		104.9793091,118.9733505 107.2522583,118.9733505 107.2522583,117.8368759 107.2522583,116.7004013 107.2522583,114.4247665 
		107.2522583,113.2882919 107.2522583,112.1518173 104.9793091,112.1518173 	"/>
	<polygon class="st1" points="95.8875732,113.2882919 95.8875732,114.4247665 95.8875732,116.7004013 95.8875732,117.8368759 
		95.8875732,118.9733505 98.1605225,118.9733505 98.1605225,117.8368759 98.1605225,116.7004013 98.1605225,114.4247665 
		98.1605225,113.2882919 98.1605225,112.1518173 95.8875732,112.1518173 	"/>
	<polygon class="st1" points="100.4334717,118.9746933 98.1605225,118.9746933 98.1605225,121.2476425 100.4334717,121.2476425 
		102.7063599,121.2476425 104.9793091,121.2476425 104.9793091,118.9746933 102.7063599,118.9746933 	"/>
</g>
<g>
	<polygon points="113.9692993,139.2919617 120.3009644,139.2919617 120.3009644,132.9602966 113.9692993,132.9602966 
		113.9692993,139.2919617 113.9692993,139.2919617 	"/>
	<polygon points="107.6370239,139.292572 101.3060913,139.292572 101.3060913,145.6242371 113.968689,145.6242371 
		113.968689,139.292572 107.6370239,139.292572 107.6370239,139.292572 	"/>
	<polygon points="88.6428223,145.6242371 75.9795532,145.6242371 75.9795532,151.9558411 101.3060913,151.9558411 
		101.3060913,145.6242371 88.6428223,145.6242371 88.6428223,145.6242371 	"/>
	<polygon points="18.994875,132.9602966 12.663271,132.9602966 12.663271,139.2919617 18.994875,139.2919617 18.994875,132.9602966 
		18.994875,132.9602966 	"/>
	<polygon points="63.316288,132.9602966 56.984684,132.9602966 56.984684,139.2919617 63.316288,139.2919617 63.316288,132.9602966 
		63.316288,132.9602966 	"/>
	<polygon points="69.6478882,158.2874451 69.6478882,170.9507141 75.9795532,170.9507141 75.9795532,151.9558411 
		69.6478882,151.9558411 69.6478882,158.2874451 69.6478882,158.2874451 	"/>
	<polygon points="56.984684,170.9507141 44.3214149,170.9507141 44.3214149,177.2823792 69.6478882,177.2823792 
		69.6478882,170.9507141 56.984684,170.9507141 56.984684,170.9507141 	"/>
	<polygon points="37.9907265,164.6191101 37.9907265,151.9565125 44.3214149,151.9565125 44.3214149,132.9602966 
		31.658144,132.9602966 31.658144,139.2919617 37.9897499,139.2919617 37.9897499,151.9558411 31.6591206,151.9558411 
		31.6591206,164.6200867 37.9897499,164.6200867 37.9897499,170.9507141 44.3214149,170.9507141 44.3214149,164.6191101 
		37.9907265,164.6191101 37.9907265,164.6191101 	"/>
	<polygon points="75.9795532,145.6242371 75.9795532,139.292572 63.316288,139.292572 63.316288,151.9558411 
		69.6478882,151.9558411 69.6478882,145.6242371 75.9795532,145.6242371 	"/>
	<polygon points="25.32654,139.292572 18.994875,139.292572 18.994875,145.6242371 31.658144,145.6242371 31.658144,139.292572 
		25.32654,139.292572 25.32654,139.292572 	"/>
	<polygon points="50.653019,12.6632318 56.984684,12.6632318 56.984684,6.3316278 88.6428223,6.3316278 88.6428223,-0.0000371 
		50.653019,-0.0000371 50.653019,6.3316278 37.9897499,6.3316278 37.9897499,12.6632318 50.653019,12.6632318 	"/>
	<polygon points="20.9066181,18.9948978 37.9897499,18.9948978 37.9897499,12.6632318 12.663271,12.6632318 12.663271,18.9948978 
		20.9066181,18.9948978 	"/>
	<polygon points="12.663271,18.9948978 6.3316059,18.9948978 6.3316059,25.3265018 12.663271,25.3265018 12.663271,18.9948978 
		12.663271,18.9948978 	"/>
	<polygon points="12.663271,37.989769 18.9935932,37.989769 18.9935932,44.321373 37.9897499,44.321373 37.9897499,37.989769 
		18.994875,37.989769 18.994875,31.6581059 31.658144,31.6581059 31.658144,25.3265018 12.663271,25.3265018 12.663271,37.989769 
		12.663271,37.989769 	"/>
	<polygon points="50.653019,69.6491928 63.316288,69.6491928 63.316288,63.3175888 50.653019,63.3175888 50.653019,56.984642 
		44.3214149,56.984642 44.3214149,44.3227158 37.9897499,44.3227158 37.9897499,56.9859238 44.3214149,56.9859238 
		44.3214149,63.3175888 37.9897499,63.3175888 37.9897499,69.6491928 50.653019,69.6491928 	"/>
	<polygon points="107.6389771,94.9757309 113.9706421,94.9757309 113.9706421,82.3124619 107.6389771,82.3124619 
		107.6389771,94.9757309 107.6389771,94.9757309 	"/>
	<polygon points="101.3060913,101.3086777 107.6376953,101.3086777 107.6376953,94.9770126 101.3060913,94.9770126 
		101.3060913,101.3086777 101.3060913,101.3086777 	"/>
	<polygon points="120.3022461,101.3080063 120.3022461,94.9770126 113.9706421,94.9770126 113.9706421,101.3086777 
		120.3015747,101.3086777 120.3015747,132.9596863 126.6332397,132.9596863 126.6332397,101.3080063 120.3022461,101.3080063 
		120.3022461,101.3080063 	"/>
	<polygon points="94.9718018,94.9757309 101.3047485,94.9757309 101.3047485,88.6440659 88.6401978,88.6440659 
		88.6401978,94.9757309 94.9718018,94.9757309 	"/>
	<polygon points="88.6428223,94.9770126 82.3112183,94.9770126 82.3112183,101.3086777 88.6428223,101.3086777 
		88.6428223,94.9770126 88.6428223,94.9770126 	"/>
	<polygon points="107.6376953,82.3124619 107.6376953,75.9808578 101.3060913,75.9808578 101.3060913,82.3124619 
		107.6376953,82.3124619 	"/>
	<polygon points="56.984684,75.9808578 56.984684,82.3124619 75.9795532,82.3124619 75.9795532,94.9757309 82.3111572,94.9757309 
		82.3111572,82.3124619 88.6428223,82.3124619 88.6428223,75.9808578 101.3060913,75.9808578 101.3060913,69.6491928 
		113.9706421,69.6491928 113.9706421,63.3175888 88.6428223,63.3175888 88.6428223,69.6491928 63.316288,69.6491928 
		63.316288,75.9808578 56.984684,75.9808578 56.984684,75.9808578 	"/>
	<polygon points="12.663271,94.9757309 12.663271,88.6440659 31.658144,88.6440659 31.658144,82.3124619 50.653019,82.3124619 
		50.653019,75.9808578 37.9897499,75.9808578 37.9897499,69.6491928 31.658144,69.6491928 31.658144,75.9808578 
		25.32654,75.9808578 25.32654,82.3124619 12.6606464,82.3124619 12.6606464,88.6440659 6.3316059,88.6440659 
		6.3316059,101.3086777 12.663271,101.3086777 12.663271,94.9757309 12.663271,94.9757309 	"/>
	<polygon points="12.663271,132.9596863 12.663271,126.6280136 6.3316059,126.6280136 6.3316059,101.3086777 0.000002,101.3086777 
		0.000002,126.6712875 6.3316059,126.6712875 6.3316059,132.9596863 12.663271,132.9596863 	"/>
	<polygon points="44.3214149,132.9596863 56.984684,132.9596863 56.984684,126.6280136 44.3214149,126.6280136 
		44.3214149,132.9596863 44.3214149,132.9596863 	"/>
	<polygon points="50.653019,88.6440659 56.984684,88.6440659 56.984684,82.3124619 50.653019,82.3124619 50.653019,88.6440659 
		50.653019,88.6440659 	"/>
	<polygon points="94.9744263,12.6632318 94.9744263,6.3316278 88.6428223,6.3316278 88.6428223,12.6632318 94.9744263,12.6632318 	
		"/>
	<polygon points="75.9795532,31.6581059 75.9795532,25.3265018 69.6478882,25.3265018 69.6478882,37.989769 75.9795532,37.989769 
		75.9795532,31.6581059 75.9795532,31.6581059 	"/>
	<polygon points="82.3111572,37.989769 82.3111572,44.321373 88.6428223,44.321373 88.6428223,31.6581059 82.3111572,31.6581059 
		82.3111572,37.989769 82.3111572,37.989769 	"/>
	<polygon points="82.3111572,63.316246 88.6428223,63.316246 88.6428223,56.984642 82.3111572,56.984642 82.3111572,44.3227158 
		75.9795532,44.3227158 75.9795532,50.6543198 69.6478882,50.6543198 69.6478882,56.9859238 75.9795532,56.9859238 
		75.9795532,63.316246 82.3111572,63.316246 	"/>
	<polygon points="94.9744263,25.3265018 88.6428223,25.3265018 88.6428223,31.6581059 94.9744263,31.6581059 94.9744263,37.989769 
		120.3009644,37.989769 120.3009644,56.984642 113.9706421,56.984642 113.9706421,63.316246 120.3022461,63.316246 
		120.3022461,56.9859238 126.6325684,56.9859238 126.6325684,37.989769 120.3022461,37.989769 120.3022461,31.6581059 
		101.3060913,31.6581059 101.3060913,12.6632318 94.9744263,12.6632318 94.9744263,25.3265018 94.9744263,25.3265018 	"/>
	<polygon points="113.9706421,44.3227158 107.6389771,44.3227158 107.6389771,50.6543198 113.9706421,50.6543198 
		113.9706421,44.3227158 113.9706421,44.3227158 	"/>
	<polygon points="25.4263325,109.8788681 20.880434,109.8788681 20.880434,112.1518173 27.6992817,112.1518173 
		27.6992817,109.8788681 25.4263325,109.8788681 25.4263325,109.8788681 	"/>
	<polygon points="18.6074848,113.7235336 18.6074848,125.7962875 20.880434,125.7962875 20.880434,121.2476425 
		27.6992817,121.2476425 27.6992817,118.9746933 20.880434,118.9746933 20.880434,112.1518173 18.6074848,112.1518173 
		18.6074848,113.7235336 18.6074848,113.7235336 	"/>
	<polygon points="27.6992817,114.4247665 27.6992817,118.9733505 29.9722309,118.9733505 29.9722309,112.1518173 
		27.6992817,112.1518173 27.6992817,114.4247665 27.6992817,114.4247665 	"/>
	<polygon points="41.3369179,112.1518173 41.3369179,118.9733505 43.6098671,118.9733505 43.6098671,109.8788681 
		41.3369179,109.8788681 41.3369179,112.1518173 41.3369179,112.1518173 	"/>
	<polygon points="48.1557655,118.9746933 48.1557655,105.3289413 45.8828163,105.3289413 45.8828163,121.2476425 
		48.1557655,121.2476425 48.1557655,118.9746933 48.1557655,118.9746933 	"/>
	<polygon points="82.2498779,112.1518173 82.2498779,121.2476425 84.5228271,121.2476425 84.5228271,109.8775253 
		82.2498779,109.8775253 82.2498779,112.1518173 82.2498779,112.1518173 	"/>
	<polygon points="84.5228271,105.3289413 82.2498779,105.3289413 82.2498779,107.6018295 84.5228271,107.6018295 
		84.5228271,105.3289413 84.5228271,105.3289413 	"/>
	<polygon points="34.5181313,117.8368759 34.5181313,109.8788681 32.245182,109.8788681 32.245182,118.9733505 
		34.5181313,118.9733505 34.5181313,117.8368759 34.5181313,117.8368759 	"/>
	<polygon points="39.0639687,121.2476425 41.3369179,121.2476425 41.3369179,118.9746933 34.5181313,118.9746933 
		34.5181313,121.2476425 39.0639687,121.2476425 	"/>
	<polygon points="50.4287148,112.1518173 50.4287148,118.9733505 52.701664,118.9733505 52.701664,109.8788681 
		50.4287148,109.8788681 50.4287148,112.1518173 50.4287148,112.1518173 	"/>
	<polygon points="61.7933998,116.7004013 61.7933998,109.8788681 59.5205116,109.8788681 59.5205116,118.9733505 
		61.7933998,118.9733505 61.7933998,116.7004013 61.7933998,116.7004013 	"/>
	<polygon points="52.701664,121.2476425 59.5205116,121.2476425 59.5205116,118.9746933 52.701664,118.9746933 
		52.701664,121.2476425 52.701664,121.2476425 	"/>
	<polygon points="73.1581421,118.9746933 73.1581421,112.1531601 70.8851929,112.1531601 70.8851929,121.2476425 
		73.1581421,121.2476425 73.1581421,118.9746933 73.1581421,118.9746933 	"/>
	<polygon points="64.0663452,114.4261093 64.0663452,121.2476425 66.3392944,121.2476425 66.3392944,112.1531601 
		64.0663452,112.1531601 64.0663452,114.4261093 64.0663452,114.4261093 	"/>
	<polygon points="70.8851929,109.8788681 66.3392944,109.8788681 66.3392944,112.1518173 70.8851929,112.1518173 
		70.8851929,109.8788681 70.8851929,109.8788681 	"/>
	<polygon points="79.9769897,118.9746933 79.9769897,112.1531601 77.7040405,112.1531601 77.7040405,121.2476425 
		79.9769897,121.2476425 79.9769897,118.9746933 79.9769897,118.9746933 	"/>
	<polygon points="77.7040405,109.8788681 73.1581421,109.8788681 73.1581421,112.1518173 77.7040405,112.1518173 
		77.7040405,109.8788681 77.7040405,109.8788681 	"/>
</g>
</svg>
