<svg width="242" height="64" viewBox="0 0 242 64" fill="none" xmlns="http://www.w3.org/2000/svg">
<g clip-path="url(#clip0_327_737)">
<path d="M124.345 19.9113V14.7202H99.6471V51.7691H105.484V36.0298H122.732V31.052H105.484V19.9113H124.345ZM135.734 18.3231C135.734 16.4031 134.286 15.1231 132.246 15.1231C130.158 15.1231 128.758 16.4031 128.758 18.3231C128.758 20.1957 130.158 21.5231 132.246 21.5231C134.286 21.5231 135.734 20.1957 135.734 18.3231ZM129.517 25.4342V51.7691H134.974V25.4342H129.517ZM146.837 51.7691V36.0772C146.837 32.1187 149.257 30.0328 153.314 30.0328V25.4342C145.698 25.4342 141.309 29.1794 141.309 35.6031V51.7691H146.837ZM183.279 38.6609C183.232 30.6965 177.396 24.9602 169.234 24.9602C161.096 24.9602 155.141 30.6965 155.141 38.6135C155.141 46.5305 161.096 52.2668 169.234 52.2668C175.711 52.2668 181.334 48.095 182.852 42.2639H177.277C176.257 45.4165 173.054 47.7868 169.305 47.7868C164.75 47.7868 161.333 44.7291 160.622 40.3439H183.137C183.232 39.775 183.279 39.1824 183.279 38.6609ZM169.305 29.4402C173.647 29.4402 177.063 32.1661 177.989 36.0772H160.788C161.76 32.1661 165.011 29.4402 169.305 29.4402ZM198.701 18.892C199.294 18.892 200.03 19.0105 200.741 19.2713V14.4594C200.053 14.2935 199.247 14.2461 198.654 14.2461C193.624 14.2461 190.089 17.3987 190.089 21.9024V25.4342H186.293V30.0328H190.089V51.7691H195.546V30.0328H200.741V25.4342H195.546V21.9024C195.546 20.0772 196.898 18.892 198.701 18.892ZM205.866 14.7202V51.7691H211.323V14.7202H205.866ZM236.472 25.4342V39.7276C236.472 43.9468 233.838 46.7439 229.781 46.7439C225.819 46.7439 223.257 43.9705 223.257 39.7276V25.4342H217.8V40.4861C217.8 46.8624 222.189 51.1291 228.144 51.1291C231.846 51.1291 234.787 49.5172 236.496 46.7439V52.7409C236.496 56.9602 233.933 59.6387 229.971 59.6387C226.317 59.6387 223.874 57.2209 223.542 53.4757L218.441 53.4283C218.986 59.7335 223.589 64.0239 230.185 64.0239C237.255 64.0239 242.024 59.3779 242.024 52.4091V25.4342H236.472Z" fill="#090606"/>
<path d="M85.4117 20.3142C85.388 19.2238 84.4865 18.3231 83.3714 18.3231H53.8094C52.8366 13.1083 48.2339 9.14976 42.7059 9.14976C37.1778 9.14976 32.5751 13.1083 31.6023 18.3231H2.04037C0.92527 18.3231 0.0237014 19.2001 -2.41088e-05 20.3142C-2.41088e-05 20.5986 -0.0949262 27.2357 5.62292 33.0668C7.56841 35.0579 9.94096 36.6935 12.7168 37.9735C11.0086 42.4535 10.5341 47.3364 11.2459 52.5749C11.3645 53.4046 11.9813 54.0683 12.788 54.2579C13.0015 54.3053 17.8653 55.4668 24.2 54.2579C26.4064 53.8312 28.9451 53.0964 31.5786 51.7927C33.5478 57.0075 37.0117 61.1083 41.6857 63.7631C41.9941 63.9527 42.35 64.0238 42.7059 64.0238C43.0617 64.0238 43.3939 63.929 43.7261 63.7631C48.4 61.1083 51.8639 57.0075 53.8331 51.7927C56.4666 53.0964 59.0053 53.8312 61.2117 54.2579C63.3708 54.6609 65.3637 54.8031 67.0482 54.8031C70.3223 54.8031 72.4814 54.2816 72.6237 54.2579C73.4304 54.0683 74.0472 53.3809 74.1659 52.5749C74.9014 47.3364 74.4031 42.4535 72.6949 37.9735C75.4708 36.6935 77.8196 35.0342 79.7888 33.0668C85.5066 27.2357 85.4117 20.5749 85.4117 20.3142ZM42.7059 13.2031C46.1223 13.2031 48.9694 15.5735 49.7049 18.7498C46.8104 19.532 44.3192 21.3572 42.7059 23.7749C41.0688 21.3572 38.6014 19.532 35.7068 18.7498C36.4423 15.5735 39.2894 13.2031 42.7059 13.2031ZM8.61233 30.2935C5.76527 27.4253 4.69762 24.3438 4.31802 22.4001H25.8845C21.8749 25.1024 18.6482 28.1364 16.2519 31.4549C15.5876 32.3794 14.9708 33.3275 14.4251 34.2994C12.1474 33.209 10.2019 31.8579 8.61233 30.2935ZM23.6068 50.2283C19.9531 50.9394 16.8451 50.7498 15.1368 50.5364C14.781 46.5779 15.2555 42.8564 16.5366 39.4431C20.3327 40.652 24.7457 41.3157 29.7043 41.4816C29.728 43.0461 29.8704 45.2979 30.4161 47.8579C28.3045 48.9483 26.0268 49.7542 23.6068 50.2283ZM42.7059 59.6149C39.1708 57.3157 36.6321 53.9735 35.1849 49.6831C37.771 47.9053 40.357 45.5349 42.7059 42.3349C45.0547 45.5349 47.6408 47.9053 50.2268 49.6831C48.7796 53.9735 46.241 57.3157 42.7059 59.6149ZM53.5959 37.452C53.0264 37.452 52.4808 37.689 52.0774 38.1157C51.6978 38.5424 51.508 39.1112 51.5555 39.6801C51.5555 39.7038 51.7927 42.169 51.2708 45.4401C48.6847 43.4016 46.3833 40.8179 44.4378 37.6416C44.0582 37.049 43.4176 36.6698 42.7059 36.6698C41.9941 36.6698 41.3298 37.0253 40.9739 37.6416C39.0284 40.7942 36.727 43.4016 34.141 45.4401C33.619 42.1453 33.8563 39.7038 33.8563 39.6801C33.9037 39.1112 33.7376 38.5424 33.3343 38.1157C32.9547 37.689 32.3853 37.452 31.8159 37.452C26.6674 37.452 22.1359 36.8831 18.3161 35.7453C18.6957 35.0816 19.1227 34.4416 19.5735 33.8253C22.7053 29.5112 27.4741 25.6949 33.7614 22.4949C37.6761 23.1112 40.6655 26.4772 40.6655 30.5068C40.6655 31.6209 41.5908 32.5453 42.7059 32.5453C43.8447 32.5453 44.7463 31.6446 44.7463 30.5068C44.7463 26.4535 47.7357 23.0875 51.6504 22.4949C57.9376 25.6949 62.7065 29.4875 65.8382 33.8253C66.289 34.4653 66.7161 35.1053 67.0957 35.7453C63.2759 36.8594 58.7443 37.452 53.5959 37.452ZM70.2749 50.5364C68.5667 50.7498 65.4586 50.9394 61.8049 50.2283C59.3612 49.7542 57.0835 48.9483 54.9719 47.8342C55.5176 45.2979 55.6837 43.0223 55.6837 41.4579C60.6661 41.3157 65.0553 40.6283 68.8514 39.4194C70.1563 42.8564 70.6308 46.5779 70.2749 50.5364ZM70.9629 34.2757C70.4172 33.3038 69.8241 32.3557 69.1361 31.4312C66.7398 28.1127 63.5131 25.0786 59.5035 22.3764H81.07C80.6667 24.3201 79.6227 27.4016 76.7757 30.2698C75.2098 31.8579 73.2643 33.209 70.9629 34.2757ZM33.0733 3.0105C32.5039 2.06235 32.8361 0.853463 33.8325 0.284574C34.8053 -0.260611 36.0627 0.0712411 36.6321 1.01939L38.4827 4.14828C39.0521 5.09643 38.72 6.30531 37.7235 6.8742C37.3914 7.06383 37.0592 7.13494 36.7033 7.13494C35.9915 7.13494 35.3035 6.77939 34.9239 6.13939L33.0733 3.0105ZM46.9527 4.14828L48.8033 1.01939C49.3727 0.0712411 50.6064 -0.260611 51.6029 0.284574C52.5757 0.82976 52.9078 2.06235 52.3621 3.0105L50.5115 6.13939C50.1319 6.77939 49.4439 7.13494 48.7321 7.13494C48.3763 7.13494 48.0441 7.04013 47.7119 6.8742C46.7155 6.32902 46.3833 5.09643 46.9527 4.14828Z" fill="url(#paint0_radial_327_737)"/>
</g>
<defs>
<radialGradient id="paint0_radial_327_737" cx="0" cy="0" r="1" gradientUnits="userSpaceOnUse" gradientTransform="translate(41.1696 68.1673) rotate(-90) scale(79.1862 55.1606)">
<stop stop-color="#33FDD8"/>
<stop offset="0.6146" stop-color="#7A4AFF"/>
<stop offset="1" stop-color="#45108A"/>
</radialGradient>
<clipPath id="clip0_327_737">
<rect width="242" height="64" fill="white"/>
</clipPath>
</defs>
</svg>
