<svg width="303" height="53" viewBox="0 0 303 53" fill="none" xmlns="http://www.w3.org/2000/svg">
<g clip-path="url(#clip0_386_1008)">
<path d="M196.561 41.1192C194.073 41.1775 191.6 40.7238 189.292 39.7858C186.984 38.8477 184.889 37.4451 183.137 35.6636C181.384 33.8821 180.01 31.759 179.099 29.4241C178.188 27.0892 177.758 24.5914 177.836 22.0834C177.772 19.5916 178.21 17.1126 179.125 14.7969C180.04 12.4813 181.412 10.3772 183.158 8.61257C184.897 6.81818 186.986 5.40549 189.292 4.46308C191.599 3.52066 194.074 3.06883 196.561 3.13591C199.052 3.074 201.526 3.57542 203.8 4.60338C206.074 5.63133 208.09 7.15971 209.702 9.07632L206.482 12.3226C205.302 10.8174 203.792 9.60767 202.071 8.7879C200.35 7.96813 198.464 7.56047 196.561 7.59674C194.706 7.55107 192.862 7.88793 191.141 8.58665C189.42 9.28537 187.858 10.3312 186.553 11.6601C185.218 13.0317 184.177 14.6639 183.491 16.4564C182.806 18.2489 182.491 20.1638 182.567 22.0834C182.485 24.0104 182.797 25.9337 183.482 27.7342C184.168 29.5347 185.213 31.1742 186.553 32.5509C187.855 33.884 189.416 34.9327 191.138 35.6317C192.86 36.3307 194.706 36.6652 196.561 36.6142C198.666 36.6039 200.742 36.1186 202.637 35.1939C204.532 34.2691 206.198 32.9284 207.512 31.2701L210.884 34.5826C209.177 36.6405 207.028 38.2793 204.599 39.3747C202.078 40.5411 199.335 41.1366 196.561 41.1192ZM219.273 3.95299V40.3242H214.63V3.95299H219.273ZM223.259 27.8692C223.208 26.126 223.499 24.3898 224.116 22.7603C224.732 21.1308 225.661 19.64 226.85 18.3734C228.027 17.1439 229.445 16.1751 231.014 15.5287C232.582 14.8824 234.267 14.5726 235.961 14.6192C237.649 14.5706 239.328 14.8796 240.89 15.5263C242.451 16.173 243.861 17.1429 245.028 18.3734C246.229 19.6325 247.168 21.1215 247.788 22.7524C248.409 24.3834 248.699 26.1233 248.642 27.8692C248.705 29.6159 248.418 31.3576 247.797 32.9894C247.176 34.6213 246.234 36.1097 245.028 37.3651C243.865 38.6 242.455 39.573 240.893 40.22C239.33 40.867 237.649 41.1734 235.961 41.1192C234.266 41.1713 232.58 40.8641 231.01 40.2174C229.441 39.5707 228.024 38.599 226.85 37.3651C225.661 36.0985 224.732 34.6077 224.116 32.9782C223.499 31.3487 223.208 29.6125 223.259 27.8692ZM227.902 27.8692C227.795 30.2576 228.629 32.5915 230.223 34.3617C230.96 35.1505 231.849 35.7789 232.836 36.2084C233.823 36.638 234.886 36.8595 235.961 36.8595C237.036 36.8595 238.099 36.638 239.086 36.2084C240.073 35.7789 240.962 35.1505 241.699 34.3617C243.293 32.5915 244.127 30.2576 244.021 27.8692C244.123 25.4948 243.288 23.1763 241.699 21.4209C240.969 20.6205 240.082 19.9816 239.094 19.5445C238.107 19.1075 237.04 18.8818 235.961 18.8818C234.883 18.8818 233.816 19.1075 232.828 19.5445C231.84 19.9816 230.953 20.6205 230.223 21.4209C228.634 23.1763 227.799 25.4948 227.902 27.8692ZM274.266 40.3242H269.886V36.8572H269.667C268.884 38.1533 267.762 39.2075 266.425 39.9047C265.036 40.6986 263.467 41.117 261.87 41.1192C260.589 41.2029 259.306 41.0142 258.102 40.5652C256.898 40.1163 255.802 39.4173 254.884 38.5134C253.148 36.4436 252.277 33.7758 252.453 31.0713V15.4584H257.074V30.7842C256.977 31.6139 257.069 32.4549 257.343 33.2433C257.617 34.0318 258.066 34.7469 258.655 35.3344C259.244 35.9219 259.958 36.3664 260.742 36.6341C261.527 36.9017 262.362 36.9856 263.184 36.8792C264.071 36.8948 264.949 36.7036 265.751 36.3205C266.553 35.9375 267.256 35.3729 267.805 34.6709C269.054 33.1539 269.716 31.2317 269.667 29.2605V15.4584H274.31L274.266 40.3242ZM289.947 41.1192C288.371 41.1189 286.813 40.7754 285.381 40.1122C283.948 39.4491 282.674 38.4819 281.647 37.2767C279.346 34.6975 278.094 31.338 278.142 27.8692C278.067 24.4184 279.288 21.0662 281.559 18.4838C282.579 17.2678 283.85 16.2917 285.284 15.624C286.718 14.9564 288.28 14.6134 289.859 14.6192C291.587 14.5897 293.295 14.9918 294.831 15.7897C296.238 16.4892 297.433 17.5569 298.291 18.8813H298.488L298.379 15.4584V3.95299H303V40.3242H298.62V36.8572H298.423C297.565 38.1816 296.37 39.2493 294.962 39.9488C293.413 40.7538 291.689 41.1561 289.947 41.1192ZM290.714 36.8572C291.771 36.8916 292.822 36.6851 293.789 36.253C294.756 35.821 295.614 35.1745 296.298 34.3617C297.83 32.5626 298.615 30.237 298.488 27.8692C298.594 25.5177 297.812 23.2133 296.298 21.4209C295.616 20.6026 294.759 19.9495 293.793 19.5099C292.826 19.0703 291.774 18.8555 290.714 18.8813C289.655 18.8649 288.605 19.0839 287.64 19.5228C286.675 19.9618 285.817 20.6098 285.129 21.4209C283.616 23.2133 282.833 25.5177 282.939 27.8692C282.817 30.223 283.602 32.5331 285.129 34.3176C285.817 35.1287 286.675 35.7767 287.64 36.2157C288.605 36.6546 289.655 36.8736 290.714 36.8572Z" fill="#5F6368"/>
<path d="M20.784 41.119C15.3343 41.1371 10.0969 38.9893 6.20658 35.141C2.31628 31.2928 0.0863835 26.0539 0 20.5594C0.0863835 15.0649 2.31628 9.82601 6.20658 5.97772C10.0969 2.12943 15.3343 -0.0183186 20.784 -0.000201706C23.3808 -0.0438066 25.9602 0.435724 28.3708 1.41028C30.7814 2.38484 32.9749 3.83481 34.8225 5.67522L30.8585 9.62813C28.1556 7.00393 24.5358 5.55982 20.784 5.60896C18.8414 5.60297 16.917 5.98656 15.1228 6.73741C13.3286 7.48827 11.7003 8.5914 10.3328 9.98263C8.9653 11.3739 7.88581 13.0254 7.15716 14.8412C6.42851 16.657 6.06523 18.6007 6.08847 20.5594C6.06523 22.518 6.42851 24.4618 7.15716 26.2776C7.88581 28.0934 8.9653 29.7449 10.3328 31.1361C11.7003 32.5274 13.3286 33.6305 15.1228 34.3814C16.917 35.1322 18.8414 35.5158 20.784 35.5098C22.6977 35.589 24.6066 35.2624 26.3872 34.551C28.1679 33.8397 29.7807 32.7595 31.1213 31.3802C32.9083 29.4367 33.9825 26.9354 34.1655 24.2915H20.784V18.7044H39.6189C39.8243 19.863 39.9196 21.0387 39.9036 22.2156C40.0519 27.0619 38.3058 31.7729 35.0416 35.3331C33.2045 37.2574 30.9844 38.7678 28.527 39.765C26.0697 40.7622 23.4309 41.2236 20.784 41.119Z" fill="#4285F4"/>
<path d="M69.0318 27.869C69.1037 29.6354 68.8208 31.3983 68.2 33.0517C67.5792 34.705 66.6333 36.2148 65.4193 37.4903C64.2052 38.7658 62.7479 39.7807 61.135 40.4739C59.5221 41.1672 57.7869 41.5246 56.0336 41.5246C54.2803 41.5246 52.5451 41.1672 50.9322 40.4739C49.3193 39.7807 47.862 38.7658 46.6479 37.4903C45.4338 36.2148 44.488 34.705 43.8672 33.0517C43.2464 31.3983 42.9634 29.6354 43.0354 27.869C42.9634 26.1026 43.2464 24.3397 43.8672 22.6863C44.488 21.0329 45.4338 19.5231 46.6479 18.2476C47.862 16.9722 49.3193 15.9573 50.9322 15.264C52.5451 14.5707 54.2803 14.2134 56.0336 14.2134C57.7869 14.2134 59.5221 14.5707 61.135 15.264C62.7479 15.9573 64.2052 16.9722 65.4193 18.2476C66.6333 19.5231 67.5792 21.0329 68.2 22.6863C68.8208 24.3397 69.1037 26.1026 69.0318 27.869ZM63.3376 27.869C63.4342 26.8431 63.3172 25.8082 62.994 24.8306C62.6709 23.853 62.1488 22.9543 61.4612 22.1919C60.7735 21.4296 59.9355 20.8206 59.0009 20.4038C58.0662 19.987 57.0556 19.7718 56.0336 19.7718C55.0116 19.7718 54.0009 19.987 53.0663 20.4038C52.1316 20.8206 51.2936 21.4296 50.606 22.1919C49.9184 22.9543 49.3963 23.853 49.0732 24.8306C48.75 25.8082 48.633 26.8431 48.7296 27.869C48.633 28.8948 48.75 29.9297 49.0732 30.9073C49.3963 31.8849 49.9184 32.7837 50.606 33.546C51.2936 34.3083 52.1316 34.9174 53.0663 35.3342C54.0009 35.7509 55.0116 35.9662 56.0336 35.9662C57.0556 35.9662 58.0662 35.7509 59.0009 35.3342C59.9355 34.9174 60.7735 34.3083 61.4612 33.546C62.1488 32.7837 62.6709 31.8849 62.994 30.9073C63.3172 29.9297 63.4342 28.8948 63.3376 27.869Z" fill="#EA4335"/>
<path d="M98.1821 27.869C98.254 29.6354 97.9711 31.3983 97.3503 33.0517C96.7295 34.705 95.7836 36.2148 94.5695 37.4903C93.3554 38.7658 91.8982 39.7807 90.2853 40.4739C88.6724 41.1672 86.9372 41.5246 85.1839 41.5246C83.4305 41.5246 81.6953 41.1672 80.0824 40.4739C78.4696 39.7807 77.0123 38.7658 75.7982 37.4903C74.5841 36.2148 73.6383 34.705 73.0175 33.0517C72.3967 31.3983 72.1137 29.6354 72.1856 27.869C72.1137 26.1026 72.3967 24.3397 73.0175 22.6863C73.6383 21.0329 74.5841 19.5231 75.7982 18.2476C77.0123 16.9722 78.4696 15.9573 80.0824 15.264C81.6953 14.5707 83.4305 14.2134 85.1839 14.2134C86.9372 14.2134 88.6724 14.5707 90.2853 15.264C91.8982 15.9573 93.3554 16.9722 94.5695 18.2476C95.7836 19.5231 96.7295 21.0329 97.3503 22.6863C97.9711 24.3397 98.254 26.1026 98.1821 27.869ZM92.4878 27.869C92.5659 26.8524 92.4347 25.8305 92.1025 24.8674C91.7703 23.9044 91.2443 23.021 90.5574 22.2727C89.8705 21.5244 89.0376 20.9273 88.111 20.519C87.1844 20.1107 86.1841 19.8999 85.1729 19.8999C84.1617 19.8999 83.1614 20.1107 82.2348 20.519C81.3082 20.9273 80.4753 21.5244 79.7884 22.2727C79.1016 23.021 78.5755 23.9044 78.2433 24.8674C77.9111 25.8305 77.7799 26.8524 77.858 27.869C77.7799 28.8856 77.9111 29.9075 78.2433 30.8705C78.5755 31.8336 79.1016 32.717 79.7884 33.4653C80.4753 34.2136 81.3082 34.8107 82.2348 35.219C83.1614 35.6273 84.1617 35.8381 85.1729 35.8381C86.1841 35.8381 87.1844 35.6273 88.111 35.219C89.0376 34.8107 89.8705 34.2136 90.5574 33.4653C91.2443 32.717 91.7703 31.8336 92.1025 30.8705C92.4347 29.9075 92.5659 28.8856 92.4878 27.869Z" fill="#FBBC04"/>
<path d="M126.588 15.4584V39.2201C126.588 48.9809 120.828 53.0001 114.038 53.0001C111.54 53.014 109.094 52.278 107.011 50.8859C104.928 49.4939 103.304 47.5085 102.343 45.1826L107.402 42.9743C107.912 44.3283 108.808 45.4997 109.978 46.3407C111.147 47.1818 112.537 47.6548 113.973 47.7001C118.353 47.7001 121.025 44.9839 121.025 39.9268V38.0276H120.893C120.017 39.0244 118.937 39.8172 117.727 40.351C116.516 40.8849 115.206 41.147 113.885 41.1193C110.4 41.1193 107.058 39.7233 104.593 37.2384C102.129 34.7536 100.745 31.3834 100.745 27.8693C100.745 24.3551 102.129 20.985 104.593 18.5001C107.058 16.0152 110.4 14.6193 113.885 14.6193C115.201 14.5947 116.507 14.8539 117.716 15.3795C118.924 15.9051 120.008 16.6849 120.893 17.6668H121.091V15.4584H126.588ZM121.485 27.9576C121.565 26.9564 121.445 25.9491 121.131 24.9957C120.818 24.0423 120.317 23.1624 119.659 22.4082C119.001 21.654 118.199 21.0411 117.301 20.6059C116.403 20.1707 115.428 19.9222 114.433 19.8751C113.422 19.9118 112.428 20.151 111.51 20.5787C110.592 21.0064 109.768 21.6141 109.085 22.3664C108.402 23.1187 107.874 24.0005 107.533 24.9604C107.191 25.9203 107.043 26.9392 107.096 27.9576C107.049 28.9691 107.202 29.9799 107.547 30.9309C107.892 31.8819 108.422 32.754 109.105 33.4963C109.788 34.2386 110.611 34.8361 111.526 35.2539C112.441 35.6717 113.429 35.9014 114.433 35.9297C115.424 35.8942 116.397 35.6564 117.295 35.2308C118.192 34.8051 118.995 34.2004 119.654 33.4532C120.313 32.706 120.815 31.8318 121.13 30.8835C121.445 29.9351 121.565 28.9322 121.485 27.9355V27.9576Z" fill="#4285F4"/>
<path d="M136.728 1.41309V40.3239H130.946V1.41309H136.728Z" fill="#34A853"/>
<path d="M159.505 32.2416L164.016 35.3333C162.812 37.1458 161.182 38.6304 159.272 39.6552C157.361 40.6799 155.23 41.2131 153.066 41.2075C151.345 41.2323 149.636 40.9047 148.044 40.2445C146.452 39.5843 145.009 38.6052 143.803 37.3665C142.598 36.1278 141.653 34.6553 141.028 33.038C140.403 31.4207 140.11 29.6923 140.166 27.9575C139.91 24.975 140.751 22.0016 142.529 19.6042C144.307 17.2068 146.898 15.553 149.808 14.958C152.717 14.3631 155.743 14.8685 158.306 16.3781C160.87 17.8876 162.794 20.2957 163.71 23.1433L164.301 24.667L146.78 31.9766C147.326 33.214 148.227 34.2581 149.367 34.9745C150.507 35.6908 151.833 36.0465 153.175 35.9958C154.46 35.9664 155.717 35.606 156.824 34.9489C157.932 34.2918 158.855 33.3598 159.505 32.2416ZM145.685 27.4716L157.468 22.5691C156.996 21.6897 156.282 20.967 155.411 20.4888C154.54 20.0106 153.551 19.7974 152.562 19.875C151.616 19.9175 150.687 20.1478 149.829 20.5528C148.97 20.9578 148.2 21.5295 147.561 22.2351C146.922 22.9407 146.428 23.7664 146.106 24.665C145.784 25.5635 145.641 26.5173 145.685 27.4716Z" fill="#EA4335"/>
</g>
<defs>
<clipPath id="clip0_386_1008">
<rect width="303" height="53" fill="white"/>
</clipPath>
</defs>
</svg>
