<svg width="195" height="55" viewBox="0 0 195 55" fill="none" xmlns="http://www.w3.org/2000/svg">
<path d="M24.2837 53.5472H31.8141L16.8565 31.8246L31.0195 17.8106H23.0344L6.55171 34.4374V0.950296H0.47522V53.5472H6.55171V42.0746C8.58847 40.0793 10.6211 38.0811 12.6555 36.0841L24.2837 53.5478V53.5472ZM42.7776 53.5472V0.950296H36.7011V53.5472H42.7776ZM54.7355 22.0117C51.2626 25.6118 49.5259 30.1685 49.5259 35.6789C49.5259 41.1899 51.2626 45.746 54.7355 49.3467C56.496 51.1461 58.4811 52.4956 60.6881 53.3932C62.898 54.2921 65.3403 54.7415 68.0151 54.7415C70.6881 54.7415 73.1245 54.2921 75.3219 53.3932C77.5176 52.4956 79.4838 51.1461 81.2194 49.3467L81.2229 49.3437C84.7432 45.7932 86.5043 41.2383 86.5043 35.6789C86.5043 32.9163 86.0637 30.3967 85.1832 28.1219C84.3039 25.8512 82.9834 23.8141 81.2217 22.0135C79.4844 20.2122 77.5182 18.8634 75.3225 17.9657C73.1251 17.0669 70.6887 16.6175 68.0157 16.6175C65.3409 16.6175 62.8986 17.0669 60.6887 17.9657C58.4817 18.8634 56.4966 20.2122 54.7361 22.0123L54.7355 22.0117ZM56.4912 41.151C55.8989 39.5125 55.603 37.6877 55.603 35.6789C55.603 33.6937 55.8989 31.8877 56.4912 30.2617C57.0854 28.6297 57.9771 27.1836 59.1654 25.9244C61.5965 23.3511 64.547 22.0648 68.0151 22.0648C69.7459 22.0648 71.3504 22.3874 72.8292 23.0326C74.3062 23.6773 75.6516 24.6416 76.8648 25.9249C78.053 27.1841 78.9448 28.6303 79.5396 30.2623C80.1313 31.8883 80.4278 33.6942 80.4278 35.6795C80.4278 37.6883 80.1313 39.5131 79.5396 41.1516C78.9448 42.7971 78.053 44.2503 76.8648 45.5089C75.6753 46.7693 74.3424 47.7153 72.866 48.3464C71.3883 48.9781 69.7714 49.2942 68.0157 49.2942C66.26 49.2942 64.643 48.9781 63.1654 48.347C61.689 47.7159 60.3554 46.7693 59.166 45.5095C57.9777 44.2509 57.0859 42.7977 56.4918 41.1521L56.4912 41.151ZM102.669 53.4811C103.863 53.9229 105.187 54.144 106.641 54.144C108.825 54.144 110.75 53.8733 112.416 53.3319L110.523 48.0073C110.415 48.048 110.304 48.0869 110.192 48.124C109.926 48.2119 109.661 48.288 109.399 48.3493C108.843 48.4809 108.274 48.5469 107.691 48.5469C107.039 48.5469 106.418 48.4278 105.831 48.1901C105.248 47.9542 104.7 47.6015 104.188 47.1326C103.149 46.1807 102.629 44.4267 102.629 41.8705V23.2579H111.63V17.8106H102.629V6.61995H96.5529V17.8106H90.1028V23.2579H96.5529V44.1088C96.576 45.6959 96.8328 47.1078 97.3208 48.3429C97.804 49.5661 98.5179 50.6171 99.4601 51.4953C100.408 52.3782 101.477 53.0399 102.669 53.4805V53.4811ZM125.505 0.950296H119.429V53.5472H125.505V34.0375C125.505 30.8562 126.5 28.0706 128.488 25.682C130.495 23.2703 132.964 22.0642 135.892 22.0642C138.939 22.0642 141.236 22.9312 142.781 24.6652C144.313 26.3844 145.079 28.937 145.079 32.3212V53.5466H151.156V30.9783C151.156 28.6592 150.859 26.6091 150.268 24.8303C149.681 23.0656 148.801 21.5652 147.631 20.329C146.463 19.094 145.042 18.1674 143.372 17.5499C141.69 16.9277 139.746 16.6163 137.542 16.6163C136.401 16.6163 135.282 16.7608 134.188 17.0498C133.091 17.3394 132.012 17.7752 130.953 18.3562C129.894 18.9365 128.974 19.5888 128.194 20.3113C127.419 21.0291 126.778 21.8188 126.272 22.6805L126.153 22.8834H125.181L125.505 17.4007V0.949707V0.950296ZM163.189 22.0111C159.716 25.6112 157.979 30.1679 157.979 35.6783C157.979 41.1893 159.716 45.7454 163.189 49.3461C164.95 51.1455 166.935 52.495 169.142 53.3926C171.352 54.2915 173.794 54.7409 176.469 54.7409C179.142 54.7409 181.578 54.2915 183.776 53.3926C185.971 52.495 187.937 51.1455 189.673 49.3461L189.676 49.3431C193.197 45.7926 194.958 41.2377 194.958 35.6783C194.958 32.9157 194.517 30.3961 193.637 28.1213C192.757 25.8506 191.437 23.8135 189.675 22.0129C187.938 20.2117 185.972 18.8628 183.776 17.9651C181.579 17.0663 179.143 16.6169 176.469 16.6169C173.794 16.6169 171.352 17.0663 169.142 17.9651C166.935 18.8628 164.95 20.2117 163.19 22.0117L163.189 22.0111ZM164.945 41.1504C164.353 39.5119 164.057 37.6871 164.057 35.6783C164.057 33.6931 164.353 31.8871 164.945 30.2611C165.539 28.6291 166.431 27.183 167.619 25.9238C170.05 23.3505 173.001 22.0642 176.469 22.0642C178.199 22.0642 179.804 22.3868 181.283 23.032C182.76 23.6767 184.105 24.641 185.318 25.9244C186.507 27.1836 187.398 28.6297 187.993 30.2617C188.584 31.8877 188.881 33.6937 188.881 35.6789C188.881 37.6877 188.584 39.5125 187.993 41.151C187.398 42.7971 186.506 44.2497 185.318 45.5083C184.128 46.7687 182.795 47.7147 181.319 48.3458C179.841 48.9775 178.224 49.2936 176.469 49.2936C174.713 49.2936 173.096 48.9775 171.618 48.3464C170.141 47.7153 168.808 46.7687 167.619 45.5089C166.431 44.2503 165.54 42.7977 164.945 41.1516V41.1504Z" fill="#542437"/>
</svg>
