<svg xmlns="http://www.w3.org/2000/svg" viewBox="0 0 311.05 391.04"><defs><style>.cls-1{fill:#00d5ff;}.cls-2{fill:#00b1da;}.cls-3{fill:#31f7ff;}.cls-4{fill:#ff008e;}.cls-5{fill:#0292b4;}.cls-6{fill:#02a7c7;}.cls-7{fill:#027793;}.cls-8{fill:#55e9ff;}.cls-9{fill:#9b0061;}.cls-10{fill:#ff42ad;}.cls-11,.cls-12{fill:none;stroke:#00bae3;stroke-miterlimit:10;}.cls-11{stroke-width:4.06px;}.cls-12{stroke-width:4px;}.cls-13{fill:#25d1ff;}.cls-14{fill:#da0077;}.cls-15{fill:#00bae3;}</style></defs><g id="Layer_2" data-name="Layer 2"><g id="Layer_1-2" data-name="Layer 1"><path class="cls-1" d="M176.18.45c39.34,2.78,64.11,25.61,75.33,57.25,9.75,27.5,11.77,33.71,23.34,61.41,29.81,71.36,36.78,111.43,35.69,154-1.91,75.13-60.21,91.61-60.21,91.61s-24.17,20.14-70.49,24.81c-47.36,4.78-85.72-4.18-111.46-12.15C13.21,360.3-7.12,328.73,8.26,298c6.59-13.14,20.3-17.68,21-30.07.84-15.07-2.28-27.6.44-46.08,3.38-23,13.53-47.94,33.13-79.58C70,130.71,80.18,122.88,85.59,103c3.64-13.45.89-28.75,4.81-49.58C99.56,4.7,140.21-2.08,176.18.45Z"/><path class="cls-2" d="M252.05,353.4s-24.9,20.12-72.65,24.76C130.58,382.9,91,373.91,64.48,365.92,35.15,357.09,15.39,344.41,5.27,330c6.14,19.17,27.28,36.44,63.2,47.56,25.74,8,64.1,16.94,111.46,12.16,46.32-4.68,70.49-24.82,70.49-24.82s45-12.72,57.21-66.73C291.74,342.55,252.05,353.4,252.05,353.4Z"/><path class="cls-3" d="M274.75,119.26C262,92.08,261.16,85.35,251.41,57.85c-11.22-31.64-36-54.47-75.33-57.24-32.12-2.27-68,2.9-81.8,38.69C110.7,13.59,142,9.77,170.47,11.77c39.34,2.77,59.94,27.66,69.14,60,8.14,28.6,7.89,37.33,22.34,63.11,36.06,64.34,45.62,107.1,42.88,149.61-1,14.91-3.34,28.78-8.47,41.26,9.14-15.15,12.82-32.9,14.08-52.43C313.17,230.76,307.58,189.22,274.75,119.26Z"/><path class="cls-4" d="M167.83,28c-11.1-2.2-30.93-.86-41.09,6.6-9.65,7.09-13.28,14.12-17,23.51C106.74,65.7,96,72.2,95,80.48c-1.63,13.8,9,14.72,12.07,17.88,6.83,7,6.63,9.08,16,17,13.4,11.44,38.41,10.07,44.5,8.68,10.77-2.45,17.62-5.34,27.74-12.21,12.46-8.46,23.94-25.5,24.38-34.15.52-10.11-17.21-27.07-23.25-34.27C184.22,29,167.48,28.42,167.83,28Z"/><circle cx="108.29" cy="37.28" r="10.81"/><circle cx="213.13" cy="37.81" r="10.81"/><path class="cls-5" d="M228.1,166.82c-8.68-6.22-29.48-6.71-39.41-5.18-12.59,1.94-21.91,4.27-32.79,10.4-2.48,1.4-12.77,8.76-11.79,12.84,1,4.23,12.13,1.2,10.18,6.42-3.3,8.86.11,8.18,4.72,9.15,8.71,1.82,2.44,6.41,4,11.49,1.61,5.28,7.86.54,12.8,1.92-3.09,13.87,23.82,1.35,28.66-1.19,12.29-6.47,23.51-13.63,37-16.22"/><path class="cls-6" d="M159.45,179.58c10.88-6.14,20.19-8.46,32.79-10.4,9.85-1.52,30.4-1.05,39.2,5l-3.34-7.39c-8.68-6.22-29.48-6.71-39.41-5.18-12.59,1.94-21.91,4.27-32.79,10.4-2.48,1.4-12.77,8.76-11.79,12.84.46,2,3.09,2.36,5.59,2.74A44.69,44.69,0,0,1,159.45,179.58Z"/><path class="cls-7" d="M204.3,206.21c-4.84,2.55-30.84,18.55-27.75,4.67-4.94-1.37-11.19,3.37-12.8-1.92-1.55-5.07,4.72-9.67-4-11.49-3.65-.76-6.55-.5-5.95-4.76-2.42,7.38.13,9.35,4.49,10.26,8.71,1.82,3.16,3.89,4.71,9,1.61,5.28,9.24,4.11,11.77,2.92-3.09,13.88,20.7,4.46,28.56-.17,14.39-8.48,24.64-15.65,38.14-18.24l-3-6.5C225.82,192.82,216,200.05,204.3,206.21Z"/><path class="cls-7" d="M154.5,189.89c.15-.49.33-1,.54-1.57,2-5.21-9.17-2.19-10.18-6.41h0a4.22,4.22,0,0,0-.74,3C145,188.65,148.75,189.61,154.5,189.89Z"/><path class="cls-5" d="M93.62,155.85A114.1,114.1,0,0,0,75,151.3a85.65,85.65,0,0,0-18.27-.41,28.8,28.8,0,0,0-11,4.16c-11,7.79-13.21,17.46-7,27.26,6.67,10.5,17.88,17.38,29.05,22.36,2.47,1.1,9,4,11.72,2.89,5.12-2,.94-4.55,1.07-8.54,3.19-.09,8.8,3.22,11.48,1.22,3.07-2.3.66-8,1-11.15,5.63-1.58,14,3,17.53-.41,4.19-4,1.33-7-2.8-13.33,0,0-.12,0,0,0-.09-.32-.51-1.21-.26-1.54a4.66,4.66,0,0,1,4.34-1.71c1,.1,2.34,1,3,.67C123.46,167.71,96.17,156.75,93.62,155.85Z"/><path class="cls-6" d="M91.88,197.41a12.58,12.58,0,0,0,.11,2.82l.18-.1a4.11,4.11,0,0,0,1.52-3A9.77,9.77,0,0,0,91.88,197.41Z"/><path class="cls-6" d="M79.82,207.36a3.53,3.53,0,0,0-.46,0v.17l.26-.07Z"/><path class="cls-6" d="M93.68,155.75a113.82,113.82,0,0,0-18.62-4.56,86.33,86.33,0,0,0-18.27-.4,28.53,28.53,0,0,0-11,4.16c-7.69,5.45-11.07,11.82-10.29,18.52,1.62-3.59,4.58-7,9-10.1a28.69,28.69,0,0,1,11-4.16,86.3,86.3,0,0,1,18.27.41,114,114,0,0,1,18.62,4.55,108.35,108.35,0,0,1,17,8.21A5.16,5.16,0,0,1,112,172c1,.11,2.33,1.06,3,.68C123.51,167.61,96.22,156.65,93.68,155.75Z"/><circle class="cls-8" cx="107.95" cy="31.78" r="2.83"/><circle class="cls-8" cx="213.9" cy="32.04" r="2.83"/><path class="cls-9" d="M182.75,88.06c3.2,7.47-23.21,10.18-43.55,9.58-28-.83-37.77-7.91-35.83-11.94,1.58-3.27,13-1.19,36.24-.7C158.14,85.4,180.75,83.4,182.75,88.06Z"/><path class="cls-10" d="M107.09,78.41c5.61-.67,18.13.56,30.43.83,14.41.33,26.65-1,41.74.67,6,.68,14.6,1.81,22.28-3a47.26,47.26,0,0,0,8.71-7.37,58.75,58.75,0,0,0,4-5c-5.6-8.15-13.63-16.63-17.44-21.19C185,29.25,168.19,27.85,167.48,27.7c-10.32-1.67-30.6-.54-40.76,6.92-9.65,7.08-13.28,14.11-17,23.51C106.72,65.7,95.94,72.2,95,80.48a17.88,17.88,0,0,0,.06,5C97.46,80.65,101.28,79.11,107.09,78.41Z"/><ellipse class="cls-9" cx="129.75" cy="62.73" rx="3.17" ry="2.06" transform="translate(8.16 140.1) rotate(-58.27)"/><ellipse class="cls-9" cx="158.6" cy="62.61" rx="3.17" ry="2.06" transform="matrix(0.28, -0.96, 0.96, 0.28, 53.4, 196.8)"/><path class="cls-11" d="M87.65,114.42c8,21.88,37.81,29.22,60.81,30.82,17.38,1.21,32.38.28,48.66-4.52,16.61-4.9,18.51-6,29.64-13,6-3.73,24.67-22.08,26.83-28.36"/><path class="cls-12" d="M91.9,133.16c13.32,12.42,33.53,15.49,56.65,18.06s52.19-1.84,65.48-7c8.54-3.29,20-7.55,27-13.95"/><path class="cls-11" d="M58.17,282c-.92,10,5.58,42.06,87.31,46.13"/><path class="cls-5" d="M43.91,302.3C21,299.15,2.73,261.05.6,234.84c-.67-8.23-1.75-23.28,3-24.76,6.52-.91,6.4,6.92,8,9.15.66-5.41.95-11.62,6.27-13.22,6.36-1.91,9.62,5.7,10.79,11.49,1.72-5.84,1.69-14.31,9.25-15.26,6.89-.87,10.48,9.85,12.4,15.16.28-8.1,6.32-21.27,14.7-10.42,4.11,5.33,5.3,18.1,6.08,28.76,1.4,19.19.16,25.62.55,36.35.3,8.27-.34,15.53-3.47,22.14C64.07,302.77,52.1,304.51,43.91,302.3Z"/><path class="cls-6" d="M13.53,210.34a9.64,9.64,0,0,1,11,1.21,24.85,24.85,0,0,1,4.09,6,23.9,23.9,0,0,0-2.37-7c-1.83-3.28-4.52-5.63-8.37-4.47a7,7,0,0,0-4.59,4.42A1.48,1.48,0,0,0,13.53,210.34Z"/><path class="cls-6" d="M50.31,218.58c.1-2.93-2.85-8.34-3.38-9.36-2.1-4-5-7.48-9-7a7.75,7.75,0,0,0-6.41,4.86,12.33,12.33,0,0,1,8.76.08C45.6,209.09,49.28,215.71,50.31,218.58Z"/><path class="cls-6" d="M11.57,219.23a21.62,21.62,0,0,0-1.35-6.08c-.79-2.31-3.38-4.79-6.55-3.22a5.6,5.6,0,0,0-2.86,4.45C7.75,211.1,10.24,216.08,11.57,219.23Z"/><path class="cls-6" d="M71.08,235.75c-.78-10.66-2-23.43-6.09-28.76-5.15-6.67-9.41-4.26-12,.47,2.19-.77,5.32-2.63,8,1.23,4.82,6.81,5.7,21.59,6.48,32.25,1.4,19.19,1,20.91,1.41,31.63.31,8.28-2,19.38-5.1,26a12.24,12.24,0,0,1-.74,1.33,13.72,13.72,0,0,0,5.06-5.65c3.14-6.61,3.78-13.87,3.48-22.15C71.23,261.37,72.48,254.94,71.08,235.75Z"/><path class="cls-7" d="M71.78,256.94s-.11,21.85-5.63,29.47c-5.83,8-15.25,10.34-23,9.18C22,292.68,4.84,260.1.62,234.49c0,.1,0,.21,0,.31C2.77,261,17,298.79,44,303.25c11.7,1.85,20.38-.4,24.17-9.06C73.51,282,71.78,256.94,71.78,256.94Z"/><path class="cls-7" d="M106.06,171.38c-.81,4.38,7.5,9.84,2.27,13.2-3.51,2.25-13.67-1.69-16.77,1-2.93,2.56,2.51,4.75.65,8.66-1.28,2.7-12.37-.94-15-.41-2.94.58-.83,2.14.39,4.34,3.39,6.1-18.78-4.53-23.29-6.82-7.29-3.7-11.66-5.45-17.57-12.91a25.17,25.17,0,0,0,2.1,4.09c6.68,10.5,17.89,17.39,29.06,22.37,2.47,1.1,8.95,4,11.72,2.88,5.12-2,2.2-5.54,1.07-8.53,3.19-.1,8.8,3.21,11.48,1.21,3.07-2.3.66-8,1-11.15,3.75-.16,14,3,17.54-.4,4.19-4,1.43-7.07-2.7-13.43h0A1.62,1.62,0,0,1,108,174c1.67-2.12,5-1,7-1,2.17,0,2-2.62,1-4.21C115.54,168,106.79,167.45,106.06,171.38Z"/><path class="cls-13" d="M230.13,165.29c-6.71-1.6-13.45-4.22-20.32-4.91a64.73,64.73,0,0,0-9.94-.25c-2.32.15-6.27-.14-5.81,3.09,2.38,1.09,5.23.7,7.69,1.57,3.76,1.32,2.77,2.56,1.41,4.77-3.77,6.09,5.8,3.08,8.7,6.63.84,3-2.5,8,2.15,8.19,2.2.09,5.93.1,6.41,1.27,1,2.44-.29,2.81-1.3,4.69-3,5.64,8.48.49,7,6.08-.47,1.78-1.45,3-1.49,5.32-.08,4,5.79,2.5,8.35,1.95,4.83-1,11.07-2.81,15.22-5.48,3.2-2.06,2.34-4.06,1.68-7.34-1.05-5.25-4.08-9.51-8.09-13.08-2.43-2.16-4.25-4.51-6.93-6.38C233.55,170.48,232.34,169.64,230.13,165.29Z"/><path class="cls-1" d="M74.58,151.46c-.78.1-2.3.11-2.89.64-1.19,1.06-.43.87-.39,2,.07,1.92.93,2.74-1.21,3.86s-5.06-.35-7.31,1.37-.86,2.74-.22,4.87c2,6.67-7.5,4.67-10.51,7.27-3.78,3.26,4.66,9.83-.89,12-2.32.91-5.14-.86-5.84,2-.63,2.61,2,4.75,1.11,7.53-3.35,1.05-7.16-3.47-9.11-6-2.81-3.58-3.13-6.88-3.06-11.29a24.07,24.07,0,0,1,15.21-22.44c3.8-1.56,6.33-2.94,10.39-3.13,2.79-.13,7.73-.91,10.31.22Z"/><path class="cls-3" d="M256.27,160.55a54.29,54.29,0,0,0-11-2.19A178.43,178.43,0,0,0,222,157.22c-4.18,0-13.79.86-17.65,1.43a57.7,57.7,0,0,0-9.52,1.91c-.48.67-1.15,1.66-.87,2.51.2.58,2.17,1.29,6.54,1.81,1.41.17,3.15.46,3.78,1.63.47.87-1,2.74-1.64,4.05-.54,1.06-.32,1.68-.26,1.65A76.46,76.46,0,0,1,224,167c5.42-.36,12.12-.48,17.76-.28,5,.17,8.94.69,13.62-.08S261.19,162.29,256.27,160.55Z"/><path class="cls-3" d="M38.36,162.36s8.9-17.66,37.48-11c0,0-3.39,0-3.89,1.33a3.06,3.06,0,0,0,0,2.5s2.56,3.56-3.84,3.66c0,0-6-.32-6.43,1.82C61.68,160.64,45.85,158.52,38.36,162.36Z"/><path class="cls-11" d="M222.87,328.1c8,1.18,33.24-11.87,36.08-23.47"/><path class="cls-5" d="M185.59,345.71C168.06,343,157,339.4,147.26,319.9c-9.48-18.9-13.16-51.25-5.37-72.4,5.38-14.62,12.6-8.58,17.27,1.31,4.11-8.7,14-23.13,24.2-10.53,4,4.9,4.49,9.86,5.44,8.45s3.07-13.3,13.66-13.95c7.66-.47,10.36,12.32,12.15,16.15,5.09-6.66,10.54-12.87,16.43-13.32,7.51-.57,9.88,9.7,10.77,17.4,2.62,22.4-6.24,60.22-21.07,79.92C212.86,343.42,202,346.93,185.59,345.71Z"/><path class="cls-6" d="M198.91,240.31c7.67-.47,10.36,12.33,12.16,16.15,5.09-6.65,10.53-12.86,16.42-13.31,7.52-.57,9.88,9.7,10.78,17.4,1.94,16.68-2.48,41.9-11,61.83,10.79-20.7,16.73-50.5,14.52-69.37-.89-7.7-3.26-18-10.77-17.4-5.89.45-11.33,6.66-16.43,13.32-1.79-3.83-4.49-16.62-12.15-16.15-9.52.58-12.2,10.25-13.33,13.22A12.5,12.5,0,0,1,198.91,240.31Z"/><path class="cls-6" d="M155.61,256.34c4.12-8.7,14-23.13,24.2-10.53,4,4.91,4.49,9.87,5.44,8.46.48-.7,1.25-4.06,3.25-7.31-.81.09-1.61-4.31-5.14-8.68-10.18-12.6-20.09,1.83-24.2,10.53-4.67-9.89-11.89-15.93-17.27-1.31-.21.56-.4,1.13-.59,1.7C146.16,242.65,151.76,248.18,155.61,256.34Z"/><path class="cls-7" d="M221,322.7c-7.88,10.48-18.73,14-35.15,12.77-17.53-2.69-28.56-6.3-38.33-25.8-5.6-11.18-9.18-27.06-9.56-42.54-1.44,18.51,2.39,39.41,9.29,53.17,9.77,19.51,20.8,23.12,38.33,25.81,16.42,1.22,27.27-2.29,35.15-12.77,13.61-18.1,22.19-51.46,21.48-74.14C240.55,280.75,232.6,307.27,221,322.7Z"/><path class="cls-14" d="M184,106.23c-17.11,1.46-33,.49-43.25.34-15.43-.23-25-2.21-31.55-5.86,2.09,2.58,7.81,10,13.85,14.7,13.9,10.81,38.41,10.07,44.5,8.68,10.77-2.45,17.62-5.34,27.74-12.21a64.9,64.9,0,0,0,13.47-12.74C202.87,103.72,192,105.55,184,106.23Z"/><path class="cls-15" d="M224.61,202.41l.1-1.46c3.95-1.11,9-1.43,14.07-1.44,9.73,0,19.43-1.47,23.5-9.63l3.58,1.78c-5.17,10.38-17,10.38-27.43,10.39C233.67,202.05,228,201.45,224.61,202.41Z"/><path class="cls-6" d="M92.16,181.16c-2.22-1.59-18.92-7.73-18.84-4.8.05,1.77,4.59,3.57,6,4.35,2.14,1.2,4.76,3.33,7.2,3.87A5.14,5.14,0,0,0,92.16,181.16Z"/><path class="cls-6" d="M65.42,185.79c1.16.41,9.44,4.8,5.4,5.31C69.26,191.3,63.89,188,65.42,185.79Z"/><path class="cls-6" d="M167.12,193c-2.81,5.65,8.84,3.14,11,2.42,4.13-1.37,11.53-4,14.32-7.75-2.54-2.15-16.21,1.68-19,2.34A23.94,23.94,0,0,0,167.12,193Z"/><path class="cls-6" d="M190.4,199.62c-2.43.73-6.63,1.91-7.51,4.66,1.7,2.8,6.48.58,8.85-.58s6.76-6,1-5.07"/></g></g></svg>