<svg xmlns="http://www.w3.org/2000/svg" viewBox="0 0 474.02 380.51"><defs><style>.cls-1{fill:#af1d94;}.cls-14,.cls-2,.cls-22{fill:none;stroke-miterlimit:10;}.cls-2{stroke:#ffa2eb;stroke-width:9px;}.cls-3{fill:#ff008e;}.cls-4{fill:#ff52bc;}.cls-5{fill:#b90094;}.cls-6{fill:#591c64;}.cls-7{fill:#c300b6;}.cls-8{fill:#a80090;}.cls-9{fill:#65006d;}.cls-10{fill:#da1db0;}.cls-11{fill:#942690;}.cls-12{fill:#ff00c3;}.cls-13{fill:#622676;}.cls-14{stroke:#ff26bb;}.cls-14,.cls-22{stroke-width:0.71px;}.cls-15{fill:#ff26bb;}.cls-16{fill:#fff;}.cls-17{fill:#910085;}.cls-18{fill:#321c45;}.cls-19{fill:#ff86ce;}.cls-20{fill:#ff94ce;}.cls-21{fill:#57ddff;}.cls-22{stroke:#b80061;}.cls-23{fill:#b80061;}.cls-24{fill:#d50071;}.cls-25{fill:#ff87dd;}</style></defs><g id="Layer_2" data-name="Layer 2"><g id="Layer_1-2" data-name="Layer 1"><path class="cls-1" d="M72.27,285c-28,0-44.68-3.09-49.47-9.2l-.1-.12c-9.71.42-20.35-.25-22.42-7-2.65-8.61,14.25-14.68,16.19-15.35,14.84-5.09,39.15-7.06,56.65-6.73a217,217,0,0,1,33.33,3.78,98.13,98.13,0,0,1,12.78-2.2c6.6-.71,9.8-4.38,10.37-11.88.44-5.65.34-16,.25-26.06,0-4.37-.09-8.75-.09-12.8H134c0,4,0,8.41.08,12.76.1,10.59.19,20.6-.25,26.43-.74,9.53-5.5,14.84-14.16,15.78l-2.24.27c1.73.41,3.43.83,5.08,1.26,7.91-.22,15.78-.47,23.53-.71,22.29-.71,45.33-1.44,68.05-1.44,12.89,0,25.11-.1,36.92-.19,19.07-.14,37.08-.28,56.18,0,33.06.42,103.76,3.91,111.46,6.3L417.4,262c-6.81-2.11-75.19-5.66-110.24-6.11-19.06-.24-37.05-.11-56.1,0-11.82.09-24,.18-36.95.18-22.66,0-45.66.73-67.91,1.44l-12.8.4c3.44,1.82,7,4.42,8.33,7.55a6,6,0,0,1-.28,5.4c-5.94,10.68-47.76,13.79-57.8,14l-1,0C79.06,285,75.58,285,72.27,285Zm-43.34-9.7c7.62,4,27,5.95,53.65,5.31l1,0c19.62-.38,50.47-5.17,54.16-11.8a1.8,1.8,0,0,0,.06-1.72c-1.27-3.11-7.91-6.57-12-7.78-1.21-.36-2.47-.71-3.76-1.05-8.91.25-17.88.45-26.81.58-2.75,1.24-5.44,2.63-8.25,4.19C72.83,270.86,55.31,274.87,34.87,275c-1.07,0-2.81.13-4.82.28Zm40.42-24.45c-16.71,0-38.15,2-51.5,6.54-6.3,2.16-14.49,6.86-13.5,10.07,1.12,3.65,9.48,4.18,16.88,4a7.11,7.11,0,0,1,.27-2c2-7.52,20.35-11.18,28.13-12.4,14.22-2.23,22.16-2.28,34.17-2.35l5.36,0,5.1-.06q1.6-.71,3.24-1.35A195.23,195.23,0,0,0,73,250.89Q71.24,250.86,69.35,250.86Zm16.22,8.07H83.83c-11.83.08-19.64.13-33.54,2.31-13.2,2.07-23.81,6.07-24.69,9.3a4.91,4.91,0,0,0-.12.72c1.61-.09,3.07-.2,4.26-.28,2.17-.16,3.89-.29,5.12-.29,19.71-.08,36.54-3.91,50-11.4Z"/><path class="cls-2" d="M313.79,148.83c0,71.48-43.66,114.54-97.52,114.54s-97.52-43.06-97.52-114.54S169.81,4.5,216.27,4.5C263.43,4.5,313.79,77.34,313.79,148.83Z"/><path class="cls-3" d="M314.23,148.38c0,71.49-43.66,114.55-97.52,114.55s-97.52-43.06-97.52-114.55S170.26,4.06,216.71,4.06C263.87,4.06,314.23,76.9,314.23,148.38Z"/><path class="cls-4" d="M217.3,231.72c-31.85,0-61.19-7.5-84.57-21.43,17,33.66,48.23,52.64,84,52.64,35.4,0,66.39-18.6,83.48-51.65C277.09,224.58,248.4,231.72,217.3,231.72Z"/><ellipse class="cls-5" cx="157.93" cy="145.03" rx="13.82" ry="14.71"/><ellipse class="cls-6" cx="220.59" cy="309.76" rx="155.24" ry="31.15"/><ellipse class="cls-7" cx="220.42" cy="298.42" rx="112.17" ry="18.15"/><ellipse class="cls-3" cx="218.05" cy="295.01" rx="84.19" ry="11.22"/><polygon class="cls-8" points="343.14 129.36 343.85 214.46 319.6 234.79 336.14 275.4 442.42 293.2 430.38 115.17 343.14 129.36"/><path class="cls-9" d="M353.07,138.58s-12.06,30.49,2.13,61.7c0,0,10.64,5,56.74,2.13a11.11,11.11,0,0,0,7.09-9.22s1.42-32.63-2.84-55.32c0,0-1.42-6.39-7.8-7.1C408.39,130.77,369.38,133.61,353.07,138.58Z"/><polygon class="cls-10" points="319.6 234.79 428.38 246.07 433.21 217.3 343.85 214.46 319.6 234.79"/><path class="cls-11" d="M339.81,231.42c-2-.48-.73-2.81-.34-3.35,1.17-1.65,2.64-3,3.84-4.61a12.52,12.52,0,0,1,4.24-4c2-.9,5.49-.75,8-.59,1.59.1,6.24-.13,7.25,1.29s-.25,2.06-.69,3.16a23.28,23.28,0,0,1-6.74,8.62c-1.88,1.39-4.55.85-7.17.58-1.64-.16-3.23-.31-4.85-.42A14.67,14.67,0,0,1,339.81,231.42Z"/><path class="cls-11" d="M363.14,230.19c1.4-2.12,4.18-6.25,5.53-7.89A9.77,9.77,0,0,1,375.9,219c2.45-.11,40.41,1.49,42.9,1.68,5.13.41,7.94,2.67,7.82,5.28-.06,1.37-1.46,8.2-3.7,10.92-1.94,2.38-9,1.86-11.56,1.59-1.63-.16-40.3-3.38-41.91-3.48C368.85,234.92,359.89,235.11,363.14,230.19Z"/><polygon class="cls-9" points="344.58 214.69 348.84 225.32 352.38 224.62 347.42 212.56 344.58 214.69"/><circle class="cls-12" cx="343.87" cy="209.72" r="7.09"/><polygon class="cls-13" points="430.38 115.17 456.8 135.56 474.02 275.18 442.42 293.2 428.38 245.82 432.89 217.25 430.38 115.17"/><path class="cls-11" d="M380.86,147.82c-10.69,1.85-10.35,23.45-2.07,27.78,4.12,2.14,10.31,1,12.81-3,2.6-4.14,2.25-9.08,1-13.7C391.17,153.17,387.55,147.63,380.86,147.82Z"/><path class="cls-14" d="M379.21,146.65c-10.7,1.84-10.35,23.44-2.07,27.77,4.12,2.15,10.31,1,12.81-3,2.6-4.14,2.25-9.08,1.05-13.69C389.52,152,386.05,145.43,379.21,146.65Z"/><path class="cls-14" d="M371,156.47c-2,.2-14.34,1.2-13.18,4.06,3.39,1.89,8.47,1.73,12.27,1.88a184.7,184.7,0,0,0,24.65-1.06c5.82-.63,10.86-1.74,13.21-3,2.66-1.41.88-4.27-1.87-4.56a125.67,125.67,0,0,0-16.23-.46c-.32-.15,0-.08.18-.17"/><rect class="cls-15" x="378.42" y="183.52" width="31.13" height="2.52"/><rect class="cls-15" x="378.42" y="187.76" width="31.13" height="2.52"/><rect class="cls-15" x="378.42" y="192.01" width="31.13" height="2.52"/><rect class="cls-15" x="378.11" y="160.4" width="4.09" height="4.09"/><rect class="cls-15" x="382.35" y="157.73" width="1.73" height="1.73"/><rect class="cls-15" x="384.55" y="153.96" width="1.73" height="1.73"/><ellipse class="cls-3" cx="374.17" cy="222.09" rx="2.29" ry="1.46"/><ellipse class="cls-3" cx="371.69" cy="226.48" rx="2.29" ry="1.46"/><ellipse class="cls-3" cx="368.95" cy="230.51" rx="2.29" ry="1.46"/><ellipse class="cls-3" cx="381.12" cy="222.64" rx="2.29" ry="1.46"/><ellipse class="cls-3" cx="378.65" cy="227.03" rx="2.29" ry="1.46"/><ellipse class="cls-3" cx="387.78" cy="226.08" rx="3.62" ry="2.32"/><ellipse class="cls-9" cx="351.22" cy="225.36" rx="5.35" ry="3.42"/><ellipse class="cls-3" cx="394.19" cy="231.58" rx="3.62" ry="2.32"/><ellipse class="cls-3" cx="375.9" cy="231.06" rx="2.29" ry="1.46"/><ellipse class="cls-3" cx="420.07" cy="225.62" rx="1.49" ry="2.24" transform="translate(132.77 606.18) rotate(-81.19)"/><ellipse class="cls-3" cx="418.59" cy="230.18" rx="1.49" ry="2.24" transform="translate(127 608.57) rotate(-81.19)"/><ellipse class="cls-3" cx="416.76" cy="234.37" rx="1.49" ry="2.24" transform="translate(121.32 610.31) rotate(-81.19)"/><polygon class="cls-3" points="415.83 223.45 396.02 222.45 397.03 221.08 416.84 222.09 415.83 223.45"/><polygon class="cls-3" points="414.61 225.83 394.8 224.83 395.81 223.46 415.62 224.47 414.61 225.83"/><ellipse class="cls-16" cx="156.46" cy="144.84" rx="12.56" ry="13.36"/><ellipse class="cls-17" cx="149.1" cy="145.8" rx="7.28" ry="7.75"/><path class="cls-18" d="M241.16,43.11,233.61,75.5l-22,4.71,4.71,6.92L215.37,112,233,126.44l14.78-7.55,11,7.55,16.66-19.18,10.38,1.57S281.09,83,270.72,71.72l-3.46,5s-3.15-12.9-9.44-21.39l-4.08,3.15A37.73,37.73,0,0,0,241.16,43.11Z"/><path class="cls-19" d="M252.65,60.64l4.09-3.14c6.29,8.49,9.43,21.38,9.43,21.38l3.46-5c8.47,9.24,13.17,28.11,14.61,34.74l1.57.23S281.09,83,270.72,71.72l-3.46,5s-3.15-12.89-9.44-21.39l-4.08,3.15A37.8,37.8,0,0,0,241.16,43.1l-.58,2.49A37.83,37.83,0,0,1,252.65,60.64Z"/><polygon class="cls-20" points="231.75 77.77 233.62 75.47 211.59 80.23 212.72 81.88 231.75 77.77"/><path class="cls-21" d="M258.42,103.64c-.88-6.53-1.88-15.17-6.94-19.67-4.42-3.94-12.76-5.72-18.4-3.14-7.71,3.54-11.19,10.63-13.6,18.18-1.2,3.75-2.59,7.37-4.08,10.94l-.09,2.33,17.61,14.47,14.78-7.55,11,7.55.1-.12A119.36,119.36,0,0,0,258.42,103.64Z"/><circle cx="229.68" cy="92.16" r="3.3"/><circle cx="252.14" cy="93.34" r="3.3"/><path class="cls-3" d="M236.84,93.84a15.57,15.57,0,0,0-2.94,1.76c-1.92,1.41-4.47,1.71-6.35,3.15-2.21,1.68-2.11,4.6-.68,6.72a9.11,9.11,0,0,0,1.41,1.57,8.81,8.81,0,0,1,1.46,1.9c.83,1.31,1.53,4.39,2.52,5.58,2.05,2.47,5.33,1.65,8,1a67.61,67.61,0,0,1,10.34-1.15c3.76-.08,5.2.46,6.24-2.2.85-2.18-.41-4.7-2.14-6.87-1.89-2.37-2.95-6.5-4.79-8.91a9.26,9.26,0,0,0-6.87-3.56A13,13,0,0,0,236.84,93.84Z"/><path class="cls-3" d="M233.69,113.86c.13,1.46,2.11,3,3.33,3.57a9,9,0,0,0,6,.1,37.08,37.08,0,0,1,4.56-1,38.38,38.38,0,0,1,6.4-.89c1.41,0,2.92-.18,3.6-1a3.79,3.79,0,0,0,1-2.93c-.12-2.29-2.12-3.79-3.48-6-.5-.8,0,.89-.66.15-.8-1-1.48-2.39-2.46-3.15"/><path class="cls-22" d="M228.39,104.49a7.46,7.46,0,0,1,3,2.47,20.09,20.09,0,0,1,1.88,4.13s.44,1.61.71,2.65a8.48,8.48,0,0,0,.73,2"/><ellipse class="cls-23" cx="242.65" cy="108.2" rx="0.88" ry="1.83" transform="translate(-21.06 75.9) rotate(-17.05)"/><ellipse class="cls-23" cx="249.02" cy="107.26" rx="0.88" ry="1.83" transform="matrix(0.96, -0.29, 0.29, 0.96, -20.5, 77.73)"/><path class="cls-21" d="M260.81,124.24c.71-4.31,3.28-8.51,7.55-10.31,3.36-1.43,9.67-1.51,12.5,1.11s-1.83,1.73-2.33,3.27c1.23.22,2.49,1.94,2.05,3.06-1,.23-2.18.28-3.16.51.47,1.11,2.55,3,1.27,4.2s-4.86-.68-6.21-1.1C268.74,123.8,263.06,121.72,260.81,124.24Z"/><path class="cls-21" d="M218.45,93.68a10.44,10.44,0,0,0-5.82-8,17.6,17.6,0,0,0-4.57-1.8,5.44,5.44,0,0,0-2.44-.17c-1.37.55-.64.73-.18,1.61.79,1.52,1.45,2.55-.41,3.46-1.59.77-3.7,1.08-1.69,3.11,1.29,1.29,3.06,2,.43,3-1.64.63-3.85,1.37-1.41,3.26,2,1.56,5.29,2,7.6,3.14,2,.93,4.51,1.7,5.79,3.46C217.74,103.71,219.48,96.7,218.45,93.68Z"/><ellipse class="cls-24" cx="160.03" cy="194.21" rx="3.46" ry="3.3"/><circle class="cls-24" cx="168.52" cy="207.57" r="2.83"/><circle class="cls-24" cx="175.12" cy="192.48" r="1.26"/><circle class="cls-24" cx="144.62" cy="180.53" r="1.57"/><circle class="cls-24" cx="146.98" cy="205.53" r="2.04"/><circle class="cls-24" cx="195.56" cy="207.89" r="2.2"/><circle class="cls-3" cx="204.76" cy="247.99" r="2.2"/><circle class="cls-24" cx="238.48" cy="176.14" r="2.2"/><circle class="cls-24" cx="184.4" cy="216.85" r="2.99"/><circle class="cls-24" cx="258.41" cy="215.6" r="2.99"/><circle class="cls-3" cx="184.81" cy="235.67" r="2.99"/><circle class="cls-24" cx="294.33" cy="186.78" r="2.99"/><circle class="cls-24" cx="167.42" cy="220.31" r="2.04"/><circle class="cls-24" cx="142.1" cy="111.35" r="2.83"/><circle class="cls-24" cx="129.52" cy="126.44" r="1.26"/><circle class="cls-24" cx="179.12" cy="100.32" r="1.26"/><circle class="cls-24" cx="181.34" cy="53.32" r="1.26"/><circle class="cls-24" cx="160.5" cy="62.63" r="1.26"/><circle class="cls-24" cx="237.65" cy="24.06" r="1.26"/><circle class="cls-24" cx="209.71" cy="17.85" r="1.26"/><circle class="cls-24" cx="187.99" cy="26.28" r="1.26"/><circle class="cls-24" cx="214.15" cy="44.01" r="1.26"/><circle class="cls-24" cx="129.52" cy="140.59" r="3.14"/><circle class="cls-24" cx="208.3" cy="152.7" r="3.62"/><circle class="cls-24" cx="191.63" cy="170.31" r="2.04"/><circle class="cls-24" cx="281.03" cy="187.5" r="2.04"/><circle class="cls-24" cx="297.43" cy="162.84" r="2.04"/><circle class="cls-24" cx="289.45" cy="208.95" r="2.04"/><circle class="cls-24" cx="220.73" cy="217.38" r="2.04"/><circle class="cls-3" cx="247.33" cy="238.22" r="2.04"/><circle class="cls-3" cx="235.36" cy="251.07" r="2.04"/><circle class="cls-3" cx="275.71" cy="231.57" r="2.04"/><circle class="cls-3" cx="151.56" cy="224.47" r="2.04"/><circle class="cls-3" cx="166.19" cy="239.99" r="2.04"/><circle class="cls-3" cx="195.45" cy="252.4" r="2.04"/><circle class="cls-3" cx="218.51" cy="258.17" r="2.04"/><circle class="cls-3" cx="219.4" cy="239.55" r="2.04"/><circle class="cls-24" cx="185.5" cy="127.07" r="2.83"/><path class="cls-3" d="M256.88,324.69l-19.34,8.82L221,332.06l-.24,2.7,11.95,5.34-12.48,7-10.93-1.24-.18,2.69,23.27,4.09L232,359.1v2.7s12.89.31,36.79-6.29c0,0,19.18-7.23,24.84-14.78l0-2.74s-16.86,4.77-23.31,4l7.24-9.12v-2.63l-14.78,1.37Z"/><path class="cls-25" d="M256.88,322s-16.35,9.12-36.16,10.06l11.95,5.35s-12.58,8.17-23.59,8.49L232.35,350l-.31,9.12s12.89.32,36.79-6.29c0,0,19.18-7.23,24.84-14.77,0,0-15.41,2.2-23.27,1.25l7.24-9.12L262.86,329Z"/><path class="cls-3" d="M286.44,366.79l0-3.25-21.36,1.25v3.26a156.25,156.25,0,0,0,11.63,11A23.12,23.12,0,0,0,286.44,366.79Z"/><path class="cls-3" d="M203.11,363.83l0-3.08,33.24,2.83,0,3.08-9.12,7.24,14.72,1a25.26,25.26,0,0,0,.06,3.12s-21.38,4.71-31.76,1.25v-3.17l2.19-2.17-6.92-.95,0-3.12,4.06-.33Z"/><path class="cls-25" d="M203.11,360.72l33.33,2.83-9.12,7.23a52.44,52.44,0,0,0,14.78,4.09s-21.38,4.71-31.76,1.26l2.2-5.35-6.92-.94,4.09-3.46Z"/><path class="cls-25" d="M286.44,363.55l-21.38,1.25a155.62,155.62,0,0,0,11.63,11A23.12,23.12,0,0,0,286.44,363.55Z"/><path class="cls-17" d="M129.78,215.82c-.31-24-.36-37.33-.18-42,.59-15,3.32-29.11,19.17-31l.5,4.23c-10.52,1.22-14.7,8.51-15.42,26.9-.18,4.59,0,25.2.33,49.15Z"/></g></g></svg>