<svg xmlns="http://www.w3.org/2000/svg" xmlns:xlink="http://www.w3.org/1999/xlink" viewBox="0 0 512.36 381.44"><defs><style>.cls-1{fill:#365e78;}.cls-2{fill:#223c56;}.cls-3{fill:#591c64;}.cls-4{fill:#c300b6;}.cls-5{fill:#ff33ae;}.cls-6{fill:#fff;}.cls-7{fill:#ffeb6d;}.cls-8{fill:#ff5a00;}.cls-9{fill:url(#linear-gradient);}.cls-10{fill:#008aa3;}.cls-11{fill:#ffffc3;}.cls-12{fill:#00a1bf;}.cls-13{fill:#e7cc8f;}.cls-14{fill:url(#linear-gradient-2);}.cls-15{fill:#b9ffe8;}.cls-16{fill:url(#linear-gradient-3);}.cls-17{fill:#58cdbc;}.cls-18{fill:url(#linear-gradient-4);}.cls-19{fill:url(#linear-gradient-5);}.cls-20{fill:#57dbc5;}.cls-21{fill:url(#linear-gradient-6);}.cls-22{fill:#ff8200;}.cls-23{fill:#e25100;}.cls-24{fill:#d8dddd;}.cls-25{fill:#4a7a90;}.cls-26{fill:#22bed6;}.cls-27{fill:#008aae;}.cls-28{fill:#c6d6cd;}.cls-29{fill:#ca0084;}.cls-30{fill:#97005d;}.cls-31{fill:#a5006b;}.cls-32{fill:#ff2eb3;}.cls-33{fill:#321c45;}.cls-34{fill:url(#linear-gradient-7);}</style><linearGradient id="linear-gradient" x1="127.54" y1="163.24" x2="437.69" y2="163.24" gradientUnits="userSpaceOnUse"><stop offset="0.24" stop-color="#44ceec"/><stop offset="0.4" stop-color="#3ecae8"/><stop offset="0.62" stop-color="#2ebede"/><stop offset="0.86" stop-color="#13aacd"/><stop offset="1" stop-color="#009cc0"/></linearGradient><linearGradient id="linear-gradient-2" x1="96.62" y1="239.15" x2="178.36" y2="239.15" gradientUnits="userSpaceOnUse"><stop offset="0.14" stop-color="#79e0d6"/><stop offset="0.53" stop-color="#64d8ca"/><stop offset="0.82" stop-color="#5ad4c4"/></linearGradient><linearGradient id="linear-gradient-3" x1="119.02" y1="171.52" x2="512.36" y2="171.52" gradientUnits="userSpaceOnUse"><stop offset="0.24" stop-color="#93e0d0"/><stop offset="0.43" stop-color="#8adece"/><stop offset="0.75" stop-color="#71d9c9"/><stop offset="1" stop-color="#5ad4c4"/></linearGradient><linearGradient id="linear-gradient-4" x1="173.8" y1="237.83" x2="240.83" y2="237.83" gradientUnits="userSpaceOnUse"><stop offset="0.59" stop-color="#00a5c9"/><stop offset="0.7" stop-color="#00a2c6"/><stop offset="0.79" stop-color="#0097be"/><stop offset="0.87" stop-color="#0085b0"/><stop offset="0.96" stop-color="#006d9c"/><stop offset="1" stop-color="#005d8f"/></linearGradient><linearGradient id="linear-gradient-5" x1="232.46" y1="154.5" x2="232.46" y2="292.86" gradientUnits="userSpaceOnUse"><stop offset="0" stop-color="#90e1d0"/><stop offset="0.49" stop-color="#71e1d0"/><stop offset="0.83" stop-color="#70ddd1"/><stop offset="1" stop-color="#6ed8d2"/></linearGradient><linearGradient id="linear-gradient-6" x1="117.1" y1="138.31" x2="207.44" y2="138.31" gradientUnits="userSpaceOnUse"><stop offset="0" stop-color="#cde0d2"/><stop offset="0.54" stop-color="#def6e6"/><stop offset="0.88" stop-color="#e4ffee"/></linearGradient><linearGradient id="linear-gradient-7" x1="246.6" y1="86.31" x2="307.89" y2="86.31" gradientUnits="userSpaceOnUse"><stop offset="0.24" stop-color="#69e0d0"/><stop offset="0.76" stop-color="#60d9c9"/><stop offset="1" stop-color="#5ad4c4"/></linearGradient></defs><g id="Layer_2" data-name="Layer 2"><g id="Layer_1-2" data-name="Layer 1"><path class="cls-1" d="M188.2,282.86c1.71,3.64,3.77.3,3.92,4.88.28,9.11,4.42,21.1,4.42,21.1a160.66,160.66,0,0,0-23,5.86c-4.38,1.51-10.35,5.52-7.89,8,.65.67,1.88.28,2.72.06a3.5,3.5,0,0,0,.33,5.71c2.54,1.51,6.52,0,9.19-.29-2.15.22-5.6,2.7-4.74,5s3.59,2.34,5.67,2.25c5.56-.25,18.27-3,26-4.57,5.36-1.09,13.73-2.94,18.64-6.24,4.22-2.84,3.08-7.42,1.4-16.1-.89-4.59-2-9.87-2.57-14.52-.49-3.69.42-8.85-.75-12"/><path class="cls-2" d="M224.23,316.14c-2.59,8.61-9.6,10-20,11.69-6.93,1.13-11.69,2.42-20.32,4.27-1.58.33-10.1,2-10-1.66a2.84,2.84,0,0,0-.76,2.83c.84,2.3,3.58,2.34,5.66,2.25,5.57-.25,18.27-3,26-4.57,5.36-1.09,13.73-2.94,18.64-6.24,2.57-1.73,3.15-4.11,2.83-7.66C226.23,317.33,224.31,315.89,224.23,316.14Z"/><ellipse class="cls-3" cx="83.02" cy="353.88" rx="83.02" ry="27.56"/><ellipse class="cls-4" cx="82.89" cy="348.96" rx="71.47" ry="20.03"/><ellipse class="cls-5" cx="81.85" cy="343.2" rx="46.07" ry="10.63"/><path class="cls-6" d="M59.37,139.42a11,11,0,0,1-2.89-7v0a10.89,10.89,0,0,1-2.88,7,7.75,7.75,0,0,1-4.82,2.07c7.66,1.22,7,7.84,7.71,13.2h0c.6-5.09.05-12,7.71-13.2A7.75,7.75,0,0,1,59.37,139.42Z"/><circle class="cls-7" cx="63.46" cy="152.56" r="0.91"/><path class="cls-6" d="M75.38,154.1a3.13,3.13,0,0,1-.62-1.19c-.23-.55-.59-.55-.82,0a3.31,3.31,0,0,1-.67,1.23,4.86,4.86,0,0,1-1.2.74.33.33,0,0,0,0,.61,2.34,2.34,0,0,1,1.9,1.66c.17.42.53.43.7,0,.31-.79.6-1.23,1.94-1.76a.33.33,0,0,0,0-.62A4,4,0,0,1,75.38,154.1Z"/><path class="cls-8" d="M119.11,18.18c-2,3.78-.24,19.82.11,23.36.76,7.93,2,16,3.29,23.95,1.18,7.33,2.37,14.7,3.29,22.05.57,4.51,2,9.22,1.94,13.77,4.45-14.68,11.45-28.36,16.78-42.72,2.25-6.07,3.95-12.25,5.88-18.43,1.6-5.11,3-9.89,2.92-15.3-.08-6.44.77-12.83.8-19.3l-26.59,7.93Z"/><path class="cls-9" d="M130.66,72.27c-2.79-13-5.34-31.54,0-44.19,7.72-18.32,23.72-18.57,41.11-18.64,9.93,0,20.94-1.93,29.88,3.88,13.09,8.49,18.15,26.07,23.84,40,5.32,13,11.87,26.12,20.37,37.37,9.65,12.78,17.94,26.86,27.75,39.76,8.06,10.6,15.23,21.53,20.56,33.81,6.44,14.84,9.23,30.91,14.41,46.24,4.63,13.7,9.24,30.25,18.14,41.76.5.65-9.83,5.19-10.08,4.75,7.29,2.38-13.46,19.11,11,20.08,10.33.41,50.34-4.92,74.72-3.26,7.89.54,29.66,1.41,34.09,12.89,1.43,3.7,2.83,15.71-2.73,22.11-5,5.76-16.08,4-22.54,5.51-13,3-32.71,1-45.92,2.7-17.05,2.18-28-6.4-45.09-7-18.4-.64-36.63-1.72-54.9-3.48-8-.77-16.14-2-24.05-2.34-8.86-.42-17.77.41-26.36-1.16-14.49-2.63-30.2-7.89-42-17.55-11.22-9.2-17.38-19.71-22.41-33.37-5.85-15.85-10.39-32.45-12.38-49.15-1.09-9.18-1-18.52-2-27.75a261.28,261.28,0,0,1-1.56-27c0-20.62,0-41.31,0-62Z"/><path class="cls-10" d="M274.44,297.72c-8-.77-16.13-2-24.05-2.34-8.86-.42-17.76.41-26.35-1.16-14.49-2.63-30.2-7.89-42-17.55-11.22-9.19-17.38-19.71-22.41-33.36-5.85-15.86-10.39-32.46-12.37-49.16-1.1-9.18-1-18.52-2-27.75a261,261,0,0,1-1.55-26.53v7.69a258.51,258.51,0,0,0,1.55,27c.95,9.22.88,18.56,2,27.74,2,16.71,6.52,33.31,12.37,49.16,5,13.65,11.19,24.17,22.41,33.37,11.78,9.65,27.49,14.91,42,17.55,8.59,1.56,17.49.74,26.35,1.15,7.92.38,16.08,1.57,24.05,2.34C292.71,307.63,292.71,299.48,274.44,297.72Z"/><ellipse class="cls-11" cx="136.86" cy="33.49" rx="6.98" ry="8.53"/><ellipse cx="135.8" cy="33.41" rx="3.3" ry="4.03"/><ellipse class="cls-11" cx="188.11" cy="36.29" rx="8.48" ry="10.56"/><ellipse cx="187.45" cy="36.22" rx="4.5" ry="5.61"/><path class="cls-12" d="M130.21,29.21c1-.12,4.6-.42,7-.54.86,0,1.8-.42,2.83-.39.86,0,1.8.47,2.57.4,9.09-.79,38.52-.32,44-.33,22.87-.05,25.49,28.31,27.67,34.31,2.31,6.37,4.77,16.81,6.33,23.41,1.09,4.58-4.14,7.14-1.05,10.89,4.12,5,6.91-14.24,7-15.11,1.72-17.81,3.64-39.37-8.06-54.36C209,15.32,194.55,8.15,179,10.73a118.49,118.49,0,0,1-14.1,1.38c-3.26.15-6.3,1.05-9.54,1.33a25.1,25.1,0,0,1-5.75-.24,13.28,13.28,0,0,0-10,2.84,29.84,29.84,0,0,0-5.81,6.1A31.23,31.23,0,0,0,130.21,29.21Z"/><path class="cls-13" d="M136.86,25a6.51,6.51,0,0,0-6,4.21c3.26-.36,11.62-.45,11.79-.46A6.74,6.74,0,0,0,136.86,25Z"/><path class="cls-13" d="M188.11,25.73a7.55,7.55,0,0,0-5.56,2.6l4.06,0a22.72,22.72,0,0,1,8.16,1.41A8,8,0,0,0,188.11,25.73Z"/><path class="cls-1" d="M110.87,210c-11.63,1.45-20.43,3.49-23.56,3.49-4.7,0,1.87-2,1.82,3.51,0,3.15-8.21,21.34-4.44,21.8,0,.54-.93,0-.87.58a99.86,99.86,0,0,0,35.49-5.82c4.14-1.48-3.17-1.36.87-1.84Z"/><path class="cls-1" d="M230.84,285.21c-7,10.74,1.55,28.22,5.78,38-2.28,1.5-11.65,2.77-22.16,5.89-9.93,2.95-16.22,6.16-17.26,9.37a4.42,4.42,0,0,0,.69,4c1.54,1.74,8.05-.6,10.28-.62-2.27,2.09-1.31,5.94,1.1,6.81,3.55,1.27,9.12.66,12.63-.05-1.45,2.86-.19,5.67.89,5.87,3.28.62,8.71-.4,11.76-.8,2-.25,4.3-.91,6.59-1.45,4.33-1,9.06-2,13.7-3.2,5.49-1.41,10.89-2.33,15.25-3.67,5.05-1.55,11-5.81,6.62-14.93-3.25-6.82-8.13-13.09-11.7-19.92-4.76-9.09-4.69-18.6-4.69-28.86"/><path class="cls-2" d="M211,339.65s-3.36,1.58-4.11,4.91a17,17,0,0,1-5.8-.25c-2.13-.38-4.29-1.77-4-4.42C197.05,339.89,201.27,342.47,211,339.65Z"/><path class="cls-2" d="M271.39,341.05c-4.3,1.66-16.32,4.07-26.29,6.56-4.7,1.18-14.63,4.74-20,3.82-3.12-.54-3.29-1.36-3.09-2.73-2.31,1.55-2.13,4.68.76,5.91,3.07,1.31,8.89,0,11.9-.69,5.84-1.27,13-2.84,20.24-4.71,5.28-1.36,11-2.43,15.17-3.72,2.89-.89,8.27-3,8.88-9.3A27.16,27.16,0,0,1,271.39,341.05Z"/><path class="cls-2" d="M206.91,344.4a3.94,3.94,0,0,0,2.43,4.91c3.13,1.29,8.72.39,12.61-.44.63-1.74,3.73-2.3,3.73-2.3S207.31,349.53,206.91,344.4Z"/><path class="cls-14" d="M148.11,189c-4.21,13-24.05,17.21-34.91,19.49-3.13.66-16.58,2-16.58,2s4.07,16,5.24,80.29a275.69,275.69,0,0,0,34.61-33.17c15.71-18,15.66-24.64,29.09-38.1,7.62-7.64,10.43-21.06,12.8-32.1Z"/><path class="cls-15" d="M114,215.49c12-2.2,40.27-6.3,46.05-27.86l-12.06.62c-4.21,13-24.05,17.21-34.91,19.49-3.13.65-16.58,2-16.58,2a62.76,62.76,0,0,1,1.31,7.64C102.39,217,111.33,216,114,215.49Z"/><path class="cls-16" d="M201.79,312.12c6,3.17,11.86,9.34,18,11.43a28,28,0,0,0,10.78,1.32c4.12-.24,9-2.23,17.17-2.81,9.22-.66,25.59,11.83,35.1,16.87,2.86,1.52,19.58,2.72,25.71,3.1,25.3,1.6,60.46,1,77.56.3,18.49-.75,52.36-3.88,73.3-7.37,25.36-4.23,34.41-3.85,53-10.24a343.15,343.15,0,0,0-50.27-4.5c-14-.31-33.13-1-53.25-1.9-25.88-1.21-44.69,2.24-49.22-2.13-.86-5.57-2.51-24-5.36-32-2.11-6-5.23-14.36-9.51-18.39,0,0-.18-9.9-4.46-18.17,0,0-2.23-4.14-5.74-3.51,0,0-1.15-11.05-8-18.69-3.23-3.61-6.13-2.72-6.13-2.72s-5.83-10.32-7.73-15c-9-22.15-21.14-56.32-42-80.74,0,0-12-18.62-21.34-36.85a74.87,74.87,0,0,1-5.43-17.84C239,45.77,236.54.91,189.22.13c0,0-21.23-1.67-49.45,7-9.89,3-19.39,7-20.75,11.25,11.89-6.58,20.12,1.67,32.11,1.55a79.41,79.41,0,0,0,14.24-1.16c5.64-.94,14-4.43,19.59-5.05,11.64-1.29,15.32,6.4,17.83,12.82,5.71,14.61,9.09,32,11.37,47.9,2.57,18,3.25,35.55.66,53.48-1.91,13.2-6.66,21.88-19.56,27-16.23,6.41-35.31,1.39-49.46-7.72l-11.27,7s.59,87.37,28.9,136.24c0,0,12.88,20.55,21.2,20.93l8.1-1.64S196.44,309.29,201.79,312.12Z"/><path class="cls-17" d="M502.83,323.31c-13.49,4.28-22.26,5.84-43.75,9.42-20.94,3.49-54.81,6.62-73.3,7.37-17.1.69-52.26,1.3-77.56-.3-6.13-.38-22.85-1.58-25.71-3.1-9.51-5-25.88-17.53-35.11-16.87-8.14.58-13,2.57-17.16,2.81a28,28,0,0,1-10.78-1.32c-6.1-2.09-12-8.26-18-11.43-5.35-2.83-9.06-2.48-9.06-2.48l-8.1,1.64c-8.33-.38-21.2-20.93-21.2-20.93A137.49,137.49,0,0,1,154.63,272a137.1,137.1,0,0,0,9.44,19.63s13.5,20.94,21.82,21.32l8.1-1.64s3.71-.35,9.06,2.48c6,3.17,11.86,9.34,18,11.43a28,28,0,0,0,10.78,1.32c4.12-.24,9-2.23,17.17-2.81,9.22-.66,25.6,11.83,35.1,16.87,2.86,1.52,19.59,2.72,25.71,3.1,25.3,1.6,60.46,1,77.56.29,18.49-.74,52.36-3.87,73.3-7.37,25.36-4.22,33-5.63,51.59-12C509.12,324,506,323.63,502.83,323.31Z"/><path class="cls-17" d="M141.61,181.75c.53,8.4-.11,46.28,13.38,44.79,1.28,5.7,5.12,25.29,14.89,19.66,6.1-3.51,5.28-16.61,5-24a14.18,14.18,0,0,1,0-2.38c0,.7,0,1.5,0,2.38.67,5.85,5.52,6.55,8.75,0,2.4-4.89,2.7-13.57,2.39-19.65a16.16,16.16,0,0,1-.13-2c0,.62.09,1.3.13,2,.73,5.91,4.49,8.9,8.89,2.18,5.45-8.35,2.44-18.87,4.36-28-1,6,4.75,2.31,6.4-.14,2.51-3.75,3-10.84,3.5-15.17a108.44,108.44,0,0,0,.35-17.88c-3.05,4.76-7.55,8.42-14.3,11.08-16.23,6.41-35.31,1.39-49.46-7.72l-11.27,7s.07,8.88,1.06,22.56A10.52,10.52,0,0,0,141.61,181.75Z"/><path class="cls-17" d="M236,265.14s5.82,29.48,15.13,29.48c0,0,17.07-7.76,2.71-122.57Z"/><path class="cls-8" d="M201.49,227s13.24,64.29,23.85,65.78l3.91-5.94L242,257.67l-10.08-36.46Z"/><path class="cls-18" d="M217.8,208.22c-15.31,6.55-26.65,11.12-36.54,25.6a62.8,62.8,0,0,0-7.15,13.67c-1.68,4.54,3.93-1.28,6.92,1.22,1,.85-3.56,7.17-2.2,8.24s.81,3.19,1.72,4.23c3.06,3.51,4,2.26,7.69,1.87,2.62-.27,2.9-1.72,5.54-.57,1.92.83,2.23,3.81,3.64,4.52,3.79,1.92,6.6-.59,9.48-3.42,4.71,3.46,8,6.23,9.73-1,1.35-5.7.49-12.12,1.78-17.72a27.83,27.83,0,0,1,9.41-14.57c4.28-3.61,11.25-5.57,12.67-11.34C242.89,209.3,232.09,207.23,217.8,208.22Z"/><path class="cls-19" d="M232.28,154.5c3.58,9.61,3.87,25.41-.78,36.07-4.37,10-12.47,14.93-22.25,20.31,14-4.24,18.5,7.79,20.31,19.74,2,13.38,2.48,53.38-4.27,62.24,16.29-19.2,28.81-62,30.12-88.74.66-13.26.23-29.37-3.26-43.92"/><path class="cls-20" d="M226.06,292.08c16.29-19.2,28.81-62,30.13-88.73.65-13.27.23-29.38-3.26-43.92,0,0,1.69,29.68-2.42,56.94a122,122,0,0,1-20.07,50.32S228.38,287.51,226.06,292.08Z"/><path class="cls-15" d="M233.24,166.94S235,187.16,228.89,195c0,0-3,6.54-17.83,15.65,0,0,8.91-3,13.7,4.57,0,0,7.82-6.74,11.74-22.18C236.5,193,238.67,172.59,233.24,166.94Z"/><path class="cls-21" d="M120.18,78.48c-2.68,8.29-3.47,24.32-2.91,34.3.53,9.39-.2,25,11.94,26.74.26,8.09-.83,31.09,10.07,34.48.53,8.39-.11,46.28,13.38,44.78,1.28,5.71,5.12,25.29,14.89,19.67,6.83-3.93,5-19.85,5-26.43-.51,7.95,5.16,9.73,8.79,2.33,2.68-5.45,2.74-15.66,2.26-21.66.05,7.16,4.15,11.64,9,4.19,5.46-8.35,2.45-18.87,4.36-28-1,6,4.75,2.31,6.4-.14,2.52-3.75,3-10.84,3.51-15.17,1.27-11.22.13-23.44-1.2-34.62-2.71-22.85-8.14-44.27-22.52-62.69-4.72-6-9-13.86-14.11-19Z"/><path class="cls-22" d="M109.32,114.16c-8.77-2.39-19.39-3.2-31.66-2.09-7.55,1.32-10.6,6.69-11.22,14.24-.6,7.24,3.82,69.06,6.62,125.64,2,40.67,2.47,50.58,3.23,73.57.44,13.46,2.87,15.31,5.75,15.31,5.77,0,5.7-13.63,6.14-36.52.68-34.6.53-73.9,1.06-83.15.67-11.54-.75-22.32.08-33.76.16-9.61,4.07-12.35,9.14-13.89,9.89-3,25.72-7,29.68-17C134.34,140.83,131,120.08,109.32,114.16ZM97.93,151.49c-5.74.42-6.6-4.91-6.68-8.06-.09-3.68-1.26-10.05,3.63-10,3.7-.29,7.74.29,9.81,3.5,1.21,1.87,2.3,6.21.79,9.3A9.79,9.79,0,0,1,97.93,151.49Z"/><path class="cls-23" d="M115.46,116.59a6.48,6.48,0,0,1-4.88,1.81c-3.2-.07-5.67-.94-10.54-1.23-1.52-.09-11.7-.16-17,.94-3.85.8-13.74,2.55-15.34,5.39-.32.56,1.63-4.68,1.1-5.18a2.42,2.42,0,0,1,.46-1.08c.21-.34.85-.95.84-1.31l20.29-2.4S108.55,112.08,115.46,116.59Z"/><path class="cls-6" d="M68.53,116.08c8.26-.21,12.33-.69,21.47-1,4-.15,8.89-.12,12.58-.22s8.59,0,11.2-.1c.92,0,5-.38,5-2.81.06-3.18-3.9-3.46-4.85-3.49-2.47-.07-4.78.07-7.06,0a2.25,2.25,0,0,0,1.76-2c0-3.06-6.87-2.08-10.17-2.06,3.16-1.06,1.84-3.93-.29-5.18-2.74-1.59-7.67-1.5-12.82-1.49-5.79,0-16.16-.07-16.21,5.35,0,2.55,1.18,3.41,4.27,3.67a19.56,19.56,0,0,0-5.94.47c-2.16.52-6.41,1.21-6,5.26C61.71,115.35,66,116.14,68.53,116.08Z"/><path class="cls-24" d="M111.93,108.94a24.13,24.13,0,0,1,5.36.32,7.49,7.49,0,0,0-3.37-.83l-6.92,0C106.65,108.71,107.56,109,111.93,108.94Z"/><path class="cls-24" d="M107.39,104.74c-.69-.31-1.83-.74-8.52-.38-.3.27.59.56,4.65.53C104.56,104.88,106,104.78,107.39,104.74Z"/><path class="cls-24" d="M66.5,113c-.38-4,3.87-4.74,6-5.26a19.51,19.51,0,0,1,5.94-.47c-3.1-.26-4.29-1.12-4.27-3.67,0-5.43,10.42-5.33,16.21-5.35,1.84,0,3.64,0,5.33,0-2.78-.65-6.53-.6-10.4-.59-5.8,0-16.16-.08-16.21,5.34,0,2.56,1.17,3.42,4.26,3.67a19.83,19.83,0,0,0-5.93.48c-2.16.52-6.41,1.21-6,5.26.27,2.92,4.5,3.71,7.09,3.64l1,0C68,115.5,66.65,114.55,66.5,113Z"/><path class="cls-23" d="M130.59,138.92a40.82,40.82,0,0,1-2.68,14.45c-3.82,10-19.11,14-28.66,17-3.93,1.24-7.13,3.25-8.32,9,1.64-3.13,4.3-4.53,7.4-5.47,9.89-3,25.71-7,29.67-17A38.5,38.5,0,0,0,130.59,138.92Z"/><path class="cls-23" d="M105.25,133.47c-2-3.21-5.91-3.78-9.48-3.5-3.56.56-4.28,3.23-4.41,6.24.68-2.33,2.17-2.76,3.36-2.74,3.7-.29,7.85.24,9.92,3.45a10.69,10.69,0,0,1,1.57,5.51C107.59,139.35,106.4,135.32,105.25,133.47Z"/><path class="cls-23" d="M83.39,337.67c-2.78,0-5.12-1.86-5.55-15.31-.74-23-1.18-32.91-3.12-73.58-2.7-56.57-6.8-111.95-6.22-119.2.08-1-.1-6.59,4-9,2.63-1.57-3.25-2.7-2.85-3.78-2,2.5-3,5.87-3.33,9.85-.6,7.24,3.83,69.07,6.62,125.65,2,40.66,2.47,50.58,3.23,73.57.45,13.45,2.87,15.31,5.75,15.31,2.11,0,3.43-1.82,4.29-5.23A3.25,3.25,0,0,1,83.39,337.67Z"/><path class="cls-25" d="M79.67,186.21c-5-.47-11.16,5.27-14.38,9.29-4.32,5.39-2.69,12.83-2.83,14.36C60.38,233.56,72.21,239,72.21,239s-1.19-6,3.85-8.85c2.12-1.23,6.48-1.89,7.76-4.66s-1.55-3-4.45-5C87.51,216.37,85,212.1,81,210c0-.65,3.53-3.37,3.54-6.28,0-3.88-2.83-5.3-5.44-6.18C81.67,191.22,82.63,186.33,79.67,186.21Z"/><path class="cls-25" d="M94,205.46a14.1,14.1,0,0,0-3.21-6.13,6.57,6.57,0,0,0-5.23-2.2c-3.15.66.48,7.61,1.33,9a14.52,14.52,0,0,1,2.6,8.17A7.59,7.59,0,0,0,94,205.46Z"/><path class="cls-26" d="M336.9,287.83s10.77,3,32,1.65c21.59-1.38,51.49-5.92,68.35.48a14.94,14.94,0,0,0-.83-3.2c-4.4-11.5-23.3-13.57-33.52-14.08-16.44-.8-40.51,2.12-57.27,3.45C348.63,278.54,332.52,286.86,336.9,287.83Z"/><path class="cls-15" d="M140.55,15a61.3,61.3,0,0,0,22.9.4c15.25-3,30.67-12.12,41,5.21,8.93,15,13.09,49.14,15.7,66,1.84,11.93,4.56,30,6.59,36.08,6.11,18.32,10.86,21.72,15.52,25.59,3.95,3.3,13.57,5.82,19.78,8.93,9.79,4.89,14.15,14.34,15.51,15.87,6.4,7.2,14.6,30.13,18.48,34.86,3.68,4.49,7.48,4.53,6.19,10.79a58.81,58.81,0,0,0-1.09,7.11c-.44,4.77,7.44,2.63,9.78,6.61s-3.82,9.38-1.08,13,9.2,2.15,12.33,5.66,1.76,12.86,4.65,15.9c2.15,2.26,1.27,12.19.78,15.52-.59,3.91,8.17,5,9.3,7.37,2.75,5.61-2.22,10.59,3.88,14,4.13,2.28,6.61,5.73,9.33,9.14.25.32.5.63.76.94,3.49,4.27,3.5,6.48,9.55,6.55,12.61.15,15,.28,42.81-1.5,5.67-.37,18.77,6.81,31.42,8.14,29.48,3.1,46.78-.39,56.63-1.55,6.59-.78,11.37,0,20.55-.78-.16-.06-10.24-2-20.35-3-7.09-.67-17.53-1.6-39-1.81-28.45-.27-58.19-4.4-74.19-3.44a141.36,141.36,0,0,1-18.05-.34s-.9-17-5.59-32c-1.89-6.07-5.24-14.36-9.51-18.39,0,0-.18-9.9-4.46-18.17,0,0-2.23-4.14-5.74-3.51,0,0-1.15-11.05-8-18.69-3.23-3.61-6.14-2.72-6.14-2.72s-5.82-10.32-7.72-15c-9-22.15-21.14-56.32-42-80.74,0,0-6.69-10.86-16-29.09,0,0-2.71-8.53-7.75-26.76-7.19-26-10.38-70.2-57.7-71,0,0-21.23-1.67-49.45,7-6.76,2.07-13.33,4.57-17.25,7.31C128.59,12.47,133.78,13.58,140.55,15Z"/><path class="cls-27" d="M360.05,315.2s.1,0,.38,5.21c0,0,43.13,1.27,59.16-2.58,12.55-3.83,15.46-11,15.46-11S426.21,315.56,360.05,315.2Z"/><path class="cls-15" d="M183.45,305.8c10.22-4.51,20.27-1,27.94,6,4.06,3.72,8.12,7.17,13.9,7.64,8.66.71,15.42-3.78,23.54-5.32s15,1.65,21.75,5.74c1.41.85,4.49,3.26,4.79.45.17-1.6-4.13-6.56-5.48-7.85-6.46-6.14-11.95-7.42-20.7-7.28-7.51.13-16,5.93-23.72,4.29C211.38,306.5,197.08,294.39,183.45,305.8Z"/><path class="cls-2" d="M167.14,326.4s-.12,3.8,6.81,4a7.72,7.72,0,0,1,3.93-2.18S169.66,328.24,167.14,326.4Z"/><path class="cls-2" d="M165.07,321.94s0,1.56,2.39,1.94c0,0,.58-1.67,4.36-2.31,0,0-4.52.81-6.7-.6A4.26,4.26,0,0,0,165.07,321.94Z"/><path class="cls-1" d="M221.66,237.39a9,9,0,0,1-3.85.49c-1.48-.19-1.61-1.65-2.52-2.56-1.08-1.08-2.51-.33-3.76.18-1.64.67-3,.79-4.22-.77-.91-1.17-1.44-2.59-3.16-2.74-1.55-.12-3,.48-4.53.41s-2.64-1.52-3.22-2.82a3,3,0,0,0-3.19-2.13c-1.1,0-2.74.42-3.6-.43-.71-.69-.31-1.84-.22-2.72,0,0-3.9,3.68-7.6,7.67-2,2.22-6.15,7-7.36,8.19-5.79,5.67-10.1,11.07-16.3,13.35-4.92,1.8-4.43,6.09,10.77,6.94,7,.38,4.75,10.17,8.91,12,5.23,2.33,9.05-3.7,13.16-2.13,2.55,1,2.76,6.47,6,7.17s4.54-2.53,6.62-4.54c1.09-1.06,2.29-1.28,4.05,1.45,2.65,4.1,7.51-4.49,9-10.9,1.13-4.8.63-11,1.24-15.86l.08,0S218.86,241.31,221.66,237.39Z"/><path class="cls-25" d="M164.08,258.09c6.19-2.28,10.51-7.67,16.29-13.35,1.22-1.18,5.32-6,7.37-8.19,3.7-4,8.1-8,8.1-8-.45-.62-.89-1.17-2.67-1.19-1.1,0-2.74.42-3.6-.42-.71-.7-.19-1.91-.1-2.79,0,0-4,3.74-7.72,7.74-2.05,2.21-6.47,7.13-7.68,8.32-5.79,5.67-11.3,10.45-16.44,13.13-3.76,2-4,4.64,4.1,6.21A5.4,5.4,0,0,1,164.08,258.09Z"/><path class="cls-28" d="M127.07,82c5.82,4.24,6.75,16,8.92,22.5,2.68,8,9.51,34.51,18.62,38.39,10.37,4.43,14.56-7.76,19.06-25.85,2.7-10.87,3.42-26.93,3.48-38.37,0-9.14,2.15-21.28-2-29.25Z"/><path class="cls-29" d="M45,52.56c-6.7,1.18-9.56,2.55-10.55,6.46-1.41,5.5,5.05,5.51,8.73,5.33,4.54-.21,8.72-1.37,13.26-.63,3.84.62,6.68,2.07,11.6,3.16,9.07,2,13.1,2.69,20.42,2.87,12.43.3,26.88-1,42.18-.29,11.39.54,31.07-.35,41-5.53,5-2.59,6.16-6.85,4.76-12.13-3.08-11.68-7.26-16-10.21-18.42-4.71-3.86-11.41-4.21-17.47-1.74-9.61,3.92-15.67,12-24.55,17.17-5.57,3.23-10.69,3.34-17,3.62-7.64.33-15.3.62-23,.62-10.48,0-20.57-1.71-31.23-1.26A45.68,45.68,0,0,0,45,52.56Z"/><path class="cls-29" d="M94.58,66.84c-3-.29-12.83-.39-15,2.43-3.76,4.82,4.33,7,7.57,7.74,12.36,2.69,30.14.41,37.32,3.6a27.77,27.77,0,0,1,10.67,9.12c3.09,4.53,7.37,11.25,11.62,13.74,14,8.24,24.35-8.59,27.65-18.49a63.56,63.56,0,0,0,3.2-20.46c0-4.23-.22-13-3.4-15.85-1.37,2.69-2.32,5.42-4.07,8.07-4.94,7.5-17.63,8.68-26,10.54C128.12,70.82,111.76,67.67,94.58,66.84Z"/><path class="cls-30" d="M167.75,64.22c-9.95,5.18-25.72,3.48-37.11,3-15.31-.72-29.75.59-42.19.29-7.31-.18-11.34-.88-20.41-2.88-4.92-1.09-7.76-2.53-11.61-3.15-4.53-.74-8.71.42-13.25.63-3,.14-7.84.16-8.77-2.81-1.19,5.3,5.13,5.31,8.77,5.14,4.54-.21,8.72-1.38,13.25-.64,3.85.63,6.69,2.07,11.61,3.16,9.07,2,13.1,2.7,20.41,2.87,12.44.31,26.88-1,42.19-.29,11.39.54,27.16,2.23,37.11-2.94,4.05-2.11,6-5.48,5.5-9.39C172.87,60.07,171,62.55,167.75,64.22Z"/><path class="cls-31" d="M135.41,83.7c3,.61,7.34,2.82,10.49-.06,2.94-2.69-2-6.12-5.43-7-5.74-1.5-23-1.93-35.71-1.55-8.3.26-17.52.28-25.47-1.64,1.57,2.08,5.81,3.21,7.94,3.67,12.36,2.68,30.14.41,37.32,3.6C125.78,81.25,133.32,83.28,135.41,83.7Z"/><path class="cls-32" d="M36.74,59.33a10.06,10.06,0,0,0,4.28.59c4.23-.05,7.9-1.58,11.85-1.63a26.26,26.26,0,0,1,8.59,1.19c2.61.89,6.55,2,11.7,3.52,6.24,1.84,13,2.84,25.87,2.11,8.68-.49,28-.82,45.3-1.38,7.16-.23,13.58-.8,18.92-2.39,6.62-2,7.86-5.52,10.4-6.32.85-.27,3.06,1,3.78,4.72.19.95.15-3.71-.16-5.9-1.85-13-7.76-18.09-11.15-20.71-4.81-3.73-11.35-4.11-17.41-1.64-9.61,3.92-13.55,9.83-22.42,15A44.66,44.66,0,0,1,107,52.06c-7.62.55-15.18,1-22.83,1-10.49,0-20.58-1.72-31.24-1.27a47.78,47.78,0,0,0-8,.77c-5.85,1-8.77,2.21-10.08,5.09A5,5,0,0,0,36.74,59.33Z"/><path class="cls-33" d="M109.26,56.68c-2.66,1.09-10.73,1.12-10.65-.17,0-.95,5.74-1.59,10.07-1.12C110.14,55.56,111.07,55.93,109.26,56.68Z"/><path class="cls-29" d="M108.67,55.4c-4.33-.48-10,.16-10.06,1.12a.43.43,0,0,0,.25.36,29.49,29.49,0,0,1,8.69-.36,4.67,4.67,0,0,1,1.32.29,3.37,3.37,0,0,0,.38-.13C111.06,55.94,110.13,55.56,108.67,55.4Z"/><path class="cls-6" d="M68.41,160.36a3.25,3.25,0,0,1-.62-1.2c-.23-.55-.58-.54-.82,0a3.44,3.44,0,0,1-.67,1.24,5.08,5.08,0,0,1-1.19.73.33.33,0,0,0,0,.61A2.35,2.35,0,0,1,67,163.41c.17.42.54.44.7,0,.32-.79.6-1.22,2-1.76a.33.33,0,0,0,0-.62A3.86,3.86,0,0,1,68.41,160.36Z"/><path class="cls-6" d="M74.62,145.62a3.11,3.11,0,0,1-.62-1.2c-.23-.55-.59-.54-.82,0a3.44,3.44,0,0,1-.67,1.24,5.14,5.14,0,0,1-1.2.73.34.34,0,0,0,0,.62,2.34,2.34,0,0,1,1.89,1.65c.17.42.53.44.7,0,.31-.78.6-1.22,1.94-1.76a.33.33,0,0,0,0-.62A3.76,3.76,0,0,1,74.62,145.62Z"/><circle class="cls-7" cx="67.14" cy="147.91" r="1.75"/><path class="cls-1" d="M72.23,239s-.55-4.41,2.23-7c1.79-1.67,8.1-3.73,9.38-6.51s-1.57-4.36-4.45-5c8.14-4.11,5.62-8.38,1.67-10.47,0-.65,3.53-3.36,3.54-6.27a6.87,6.87,0,0,0,0-.8c-3,.4-7.42,2.79-9.45,3.83a29.39,29.39,0,0,0-12.72,12.39C63.57,235,72.23,239,72.23,239Z"/><path class="cls-15" d="M203.87,1.68c15.9,3.88,20,5.58,37.23,15.9,3.56,2.13,15.11,10.15,18.62,12.42,6.06,3.91,7.16,7.23,12.41,12,12.52,11.42,21.15,21.75,27.15,37.62,3,7.93,7.38,21.35,8.53,29.48-5.13-5.55-17.91-20-24.43-24.05-8.15-5-13-8.53-24.84-8.53-6.16,0-12.09.39-18.21.39"/><path class="cls-34" d="M301.34,85.62A84.68,84.68,0,0,0,297,74.3,25.8,25.8,0,0,1,284.2,71c-4.86-2.62-11.31-2.45-16.56-4-3.69-1.12-17.08-4.74-21-4.21.53,5.53,1.39,8.61,2.36,14.13,0,0,13.92-1.17,20.7,1.41,0,0,13.56,5.61,23.38,15.66,0,0,12.28,12.28,14.85,16A121.52,121.52,0,0,0,301.34,85.62Z"/></g></g></svg>