<svg width="581" height="551" viewBox="0 0 581 551" fill="none" xmlns="http://www.w3.org/2000/svg">
<g filter="url(#filter0_d)">
<path d="M198.949 250.673C202.904 249.197 208.981 245.73 212.989 246.428C214.623 246.719 217.721 247.14 219.751 247.338C221.782 247.536 238.774 247.457 240.844 247.088C247.58 245.901 253.446 242.988 260.024 241.261C264.578 240.064 269.368 240.096 273.906 241.353C278.678 242.395 287.431 243.99 292.493 242.882C300.258 241.195 303.356 239.284 311.305 238.308C321.97 236.99 328.245 244.464 337.881 244.794C343.985 244.992 351.064 241.525 356.864 243.845C361.847 245.862 365.775 250.805 364.101 248.498C360.001 242.79 355.572 237.042 349.534 233.259C333.979 223.464 316.288 221.395 298.399 219.193C289.949 218.125 281.631 215.7 273.102 216.675C265.482 217.545 257.704 217.888 250.098 218.93C242.491 219.971 234.569 222.99 227.305 225.639L198.949 250.673Z" fill="#FF008E"/>
<path d="M102.914 328.621C85.9613 326.776 61.3098 312.802 56.775 308.584C43.5923 296.113 47.9426 276.234 55.3776 262.181C67.4002 239.52 92.9218 227.221 114.475 215.554C124.151 210.281 147.59 200.697 177.238 199.563C198.185 198.772 220.398 201.356 234.002 205.311C240.515 207.209 255.978 209.635 262.767 210.189C272.772 211.019 270.518 209.068 280.339 209.885C257.718 228.077 228.123 233.113 203.669 247.983C190.763 255.893 176.526 263.802 165.07 273.663C158.69 279.16 151.439 283.339 144.993 288.797C140.208 292.857 131.151 296.706 128.449 302.48" fill="#910090"/>
<path d="M144.044 231.044C144.044 231.044 172.624 203.15 212.462 226.575L158.282 272.53L144.044 231.044Z" fill="#C300B6"/>
<path d="M177.475 272.636C182.893 272.003 196.247 295.943 200.966 288.072C233.778 233.51 283.305 222.7 313.019 225.402C349.508 228.724 357.985 242.368 366.922 253.929C368.241 255.656 369.559 257.001 369.757 257.396C351.393 218.191 324.197 203.031 292.849 198.984C263.584 195.24 233.527 198.075 206.595 214.579C181.548 229.911 171.661 246.218 171.661 246.218C171.661 246.218 180.151 247.154 177.475 272.636Z" fill="#C300B6"/>
<path d="M185.858 233.879C185.858 233.879 224.932 204.02 286.732 206.116C307.93 206.841 342.85 212.061 364.259 246.718C346.133 214.961 320.611 202.583 292.137 198.931C262.871 195.174 226.224 195.122 199.858 212.509C183.644 223.187 185.858 233.879 185.858 233.879Z" fill="#910090"/>
<path d="M235.36 411.317C227.189 412.673 219.31 415.42 212.066 419.437C204.763 423.392 197.882 433.279 193.703 440.266C191.066 444.59 190.117 447.187 187.52 451.564C185.582 454.833 183.75 459.328 181.443 462.255C178.174 466.394 170.436 464.891 166.52 464.272C157.82 462.887 151.057 460.132 142.792 456.863C135.462 453.923 126.972 449.507 121.976 443.258C119.155 439.699 121.607 436.667 124.718 436.667C122.345 430.247 125.364 424.631 132.509 427.11C130.795 419.754 132.746 413.031 139.97 414.112C147.195 415.193 151.558 421.863 156.212 426.108C158.466 428.178 163.673 432.91 166.454 434.228C170.317 436.074 171.147 435.547 173.613 432.132C178.807 425.053 180.665 420.888 185.688 415.878C192.912 408.68 202.707 400.534 213.055 398.569" fill="url(#paint0_linear)"/>
<path d="M231.139 408.772C224.027 410.552 217.202 413.325 210.864 417.011C203.258 421.427 196.087 432.356 191.723 440.107C189.087 444.906 187.993 447.779 185.277 452.644C183.365 456.071 181.546 460.712 179.305 463.954C180.176 463.543 180.943 462.939 181.546 462.188C183.853 459.261 185.686 454.766 187.623 451.497C190.26 447.12 191.209 444.523 193.806 440.199C197.985 433.213 204.866 423.352 212.156 419.371C219.409 415.377 227.292 412.653 235.463 411.316L231.139 408.772Z" fill="#56D7E4"/>
<path d="M93.013 318.933C90.9302 333.434 80.4763 343.519 65.7513 340.421C57.934 338.786 55.7589 336.031 53.6497 328.636C51.8173 322.203 47.1638 317.457 39.7815 317.945C32.3992 318.432 26.8493 323.771 24.6347 331.127C22.0641 339.683 27.7062 347.79 34.2975 352.852C46.1619 361.935 65.4877 364.216 79.1185 360.419C98.1015 355.146 103.098 337.402 109.439 321.833" fill="url(#paint1_linear)"/>
<path d="M77.7204 355.08C64.0632 358.916 47.0181 357.281 35.1932 348.198C30.4738 344.573 25.1217 340.763 24.0539 335.016C23.6716 342.227 28.6415 348.857 34.3232 353.208C46.1876 362.291 65.5133 364.571 79.1442 360.775C98.1272 355.501 103.123 337.758 109.464 322.189L107.895 321.912C100.17 330.217 97.8239 349.424 77.7204 355.08Z" fill="#56D7E4"/>
<path d="M47.8758 329.241C45.1338 335.319 47.1376 341.29 56.0095 338.061C64.5123 334.976 64.3805 325.418 58.8701 323.797C56.6951 323.392 54.4474 323.703 52.4647 324.685C50.4821 325.667 48.8718 327.266 47.8758 329.241V329.241Z" fill="url(#paint2_linear)"/>
<path d="M55.64 335.12C51.7643 336.24 48.9037 336.346 46.9395 335.766C47.7172 338.574 50.5779 340.037 55.9827 338.06C57.578 337.58 59.0227 336.697 60.1772 335.496C61.3318 334.296 62.1573 332.817 62.5741 331.205C60.6608 333.115 58.2638 334.468 55.64 335.12V335.12Z" fill="#56D7E4"/>
<path d="M238.879 378.36C260.089 384.318 288.814 374.313 316.261 359.219C341.584 345.285 358.616 339.669 370.969 341.027C392.061 343.36 392.575 366.825 370.309 380.179C347.728 393.704 301.325 408.258 230.191 412.266C208.994 413.465 242.728 402.853 221.398 398.279C205.25 394.825 221.504 377.991 207.214 371.426" fill="url(#paint3_linear)"/>
<path d="M55.7719 238.451C55.1391 213.061 61.4272 204.413 75.1899 196.267C88.7284 188.172 112.101 183.413 132.099 189.847C157.265 197.888 167.218 214.472 179.201 233.771C182.813 239.585 183.604 247.033 194.387 258.818C216.626 283.18 237.455 294.477 262.528 322.016C308.852 372.861 295.564 401.019 295.564 401.019C295.564 401.019 248.107 414.742 217.615 412.633C190.353 410.722 172.491 409.641 147.259 392.451C123.122 375.999 91.4177 332.43 77.4573 303.666C75.704 300.014 56.7474 276.852 55.7719 238.451Z" fill="url(#paint4_linear)"/>
<path d="M366.302 377.278C346.95 388.338 317.105 395.009 271.387 403.999C257.453 406.741 242.214 409.668 218.367 407.954C191.105 406.029 173.651 404.342 148.024 387.771C106.842 361.221 76.4821 301.966 78.2486 305.591C92.209 334.355 123.07 376.329 147.233 392.781C172.465 409.984 189.629 413.53 216.034 415.046C265.337 417.867 296.355 404.685 310.289 401.864C339.186 396.063 358.208 389.564 373.737 378.675C390.493 366.943 386.511 352.56 386.511 352.56C386.511 352.56 387.935 364.913 366.302 377.278Z" fill="#56D7E4"/>
<path d="M374.951 426.543C369.441 417.039 363.799 411.739 356.904 405.781C353.12 402.492 349.159 399.411 345.04 396.553C341.955 394.417 336.405 390.568 326.887 394.655C320.217 397.502 312.386 401.773 306.151 400.31C298.347 398.491 288.895 389.764 284.584 384.82L261.699 394.958L265.377 398.702C272.048 406.848 284.189 415.509 293.575 420.15C302.961 424.79 311.872 422.285 322.26 419.781L324.567 419.227C330.433 426.227 333.795 435.521 337.75 443.694C339.345 446.95 341.705 451.327 345.659 451.722C351.275 452.263 352.91 448.044 353.45 442.494C354.848 444.867 359.027 449.231 362.454 449.086C367.266 448.954 367.569 443.101 367.253 438.052C370.654 442.521 374.279 443.549 376.678 440.622C379.236 437.498 377.443 430.854 374.951 426.543Z" fill="url(#paint5_linear)"/>
<path d="M374.95 426.544C372.636 422.507 369.91 418.721 366.816 415.246C366.799 417.35 366.64 419.451 366.342 421.534C365.525 426.886 362.268 436.523 355.493 433.148C353.251 432.028 350.404 428.706 347.583 430.578C345.078 432.265 345.685 437.09 342.824 438.342C339.963 439.594 338.039 435.613 336.312 434.045C334.585 432.476 333.754 433.056 333.346 434.361C334.809 437.512 336.193 440.689 337.683 443.707C339.278 446.964 341.638 451.34 345.592 451.736C351.208 452.276 352.843 448.058 353.383 442.508C354.781 444.881 358.96 449.244 362.387 449.099C367.199 448.967 367.502 443.114 367.186 438.065C370.587 442.534 374.212 443.562 376.611 440.636C379.234 437.498 377.442 430.854 374.95 426.544Z" fill="#56D7E4"/>
<path d="M324.462 415.734C319.255 415.734 315.234 417.171 310.554 417.408C304.973 417.742 299.378 417.045 294.05 415.351C289.45 413.295 285.174 410.582 281.355 407.297C275.396 402.406 263.875 393.679 259.221 393.679C259.221 393.679 276.451 411.621 286.905 417.408C292.827 421.11 299.695 423.019 306.679 422.905C313.824 422.655 325.701 418.95 328.43 418.568C329.908 418.253 331.445 418.367 332.859 418.898C332.859 418.898 330.711 415.734 324.462 415.734Z" fill="#56D7E4"/>
<path d="M273.023 402.273C266.669 392.03 231.129 382.025 231.841 392.966C228.463 390.582 224.699 388.798 220.715 387.693C218.816 387.113 210.959 386.296 212.146 391.385C209.509 389.934 188.958 375.71 190.223 384.978C184.7 380.628 176.091 375.038 169.645 376.778C165.69 377.859 165.809 382.75 167.193 384.912C162.276 381.511 152.929 375.513 147.643 376.462C145.007 377.108 146.325 380.983 149.739 383.923C146.331 380.809 142.534 378.15 138.442 376.014C135.473 374.592 132.199 373.926 128.911 374.076C128.027 376.264 129.161 377.213 131.864 379.863C131.864 379.863 160.14 411.198 202.127 411.501C202.127 411.554 260.79 415.271 273.023 402.273Z" fill="#56D7E4"/>
<path d="M247.315 197.653C257.176 179.079 250.123 175.836 250.123 175.836C246.906 174.228 243.677 175.058 240.658 179.606C236.703 185.604 233.579 198.536 233.579 198.536C233.816 192.657 233.869 188.992 233.79 186.356C233.42 173.371 226.724 174.636 226.724 174.636C220.488 175.467 219.658 185.182 219.473 193.566C219.473 195.953 219.104 201.924 219.025 203.862C214.332 204.113 207.872 206.314 208.479 210.994C208.479 210.994 209.547 218.996 217.865 217.097C213.238 250.66 200.253 269.828 192.37 278.594C188.639 282.787 189.641 288.982 189.641 288.982L195.955 301.242C222.663 281.917 236.162 236.502 240.552 218.785C248.673 217.467 253.181 210.533 253.181 210.533C257.334 202.597 251.797 199.077 247.315 197.653Z" fill="url(#paint6_linear)"/>
<path d="M208.559 211.309C208.559 211.309 209.231 219.364 218.855 219.706C218.855 219.706 230.218 219.904 230.614 211.797C230.614 211.836 210.787 214.895 208.559 211.309Z" fill="#56D7E4"/>
<path d="M234.118 204.205C234.118 204.205 226.42 214.751 237.295 218.152C237.295 218.152 243.887 221.738 253.114 210.532L234.118 204.205Z" fill="#56D7E4"/>
<path d="M183.274 268.945C188.02 280.532 169.379 283.736 167.244 289.681C163.289 300.741 145.018 294.77 131.888 297.222C116.741 300.069 116.174 302.046 100.632 302.35C94.0405 302.468 87.0933 301.928 80.5283 301.77C76.0858 302.811 82.9144 309.574 86.7505 312.316C89.4731 314.076 92.3552 315.577 95.3588 316.798C95.3588 316.798 95.7938 329.796 100.75 333.843C103.492 336.097 105.536 333.685 107.553 331.272C111.402 326.685 113.643 321.372 113.05 315.901C112.43 323.468 120.867 339.828 128.394 339.076C135.065 338.417 137.042 322.414 137.108 317.285C137.108 315.387 142.381 313.225 155.076 310.378C165.622 308.005 180.347 299.99 186.042 290.195C193.952 276.564 187.479 263.738 191.566 254.523L186.042 257.291L183.274 268.945Z" fill="#00A9C9"/>
<path d="M258.534 523C366.082 523 453.268 515.203 453.268 505.586C453.268 495.968 366.082 488.171 258.534 488.171C150.985 488.171 63.7998 495.968 63.7998 505.586C63.7998 515.203 150.985 523 258.534 523Z" fill="#591C64"/>
<path d="M258.323 509.395C336.036 509.395 399.035 504.85 399.035 499.244C399.035 493.638 336.036 489.094 258.323 489.094C180.61 489.094 117.612 493.638 117.612 499.244C117.612 504.85 180.61 509.395 258.323 509.395Z" fill="#C300B6"/>
<path d="M112.246 263.776C109.463 263.615 106.678 264.064 104.086 265.094L112.246 263.776Z" fill="#FFA400"/>
<path d="M142.776 257.461C142.776 257.461 146.23 278.765 137.082 298.09L124.189 297.497L142.776 257.461Z" fill="#00A0C9"/>
<path d="M191.685 251.174C186.979 260.402 192.819 277.289 183.776 290.907C177.184 300.715 163.171 306.528 151.083 308.901C136.476 311.762 134.736 311.907 134.736 313.765C134.657 318.893 133.418 332.564 125.693 333.236C117.045 334.027 109.689 319.961 110.428 312.447C109.755 317.048 109.623 323.982 106.473 327.765C104.364 330.31 101.622 333.038 98.4709 330.837C92.776 326.79 94.8457 316.033 94.8457 316.033C91.3026 315.015 87.8812 313.614 84.6423 311.854C80.2261 309.072 73.3052 298.579 78.4069 297.538C85.9738 297.696 94.0284 298.236 101.542 298.118C119.418 297.814 124.731 292.845 142.409 291.223C155.42 290.023 165.004 285.95 172.254 280.123C189.629 266.242 192.344 244.306 188.495 236.12C188.495 236.12 195.086 245.967 193.518 248.696" fill="#C300B6"/>
<path d="M90.0081 313.766C84.511 310.075 101.332 303.036 94.7144 304.169C89.639 305.026 84.2737 306.226 80.4244 302.68C79.6766 301.881 79.1308 300.915 78.8327 299.862C78.5345 298.81 78.4927 297.701 78.7106 296.629L125.733 263.224C127.21 265.729 129.477 267.337 131.164 269.539C133.326 272.386 128.976 292.516 128.976 292.516L138.678 291.633C136.71 296.192 134.986 300.852 133.511 305.593C131.125 313.714 127.289 315.862 119.854 317.299C117.032 317.819 114.168 318.079 111.298 318.077C111.021 318.077 110.23 315.599 110.23 315.599C110.23 315.599 109.888 318.077 109.598 318.077C102.202 317.985 94.2266 316.627 90.0081 313.766Z" fill="#910090"/>
<path d="M64.0908 245.374C61.4543 233.787 70.6822 225.759 84.0362 220.578C94.5823 216.504 111.891 217.849 118.917 220.103C129.081 223.346 137.109 229.806 142.264 241.195C146.219 250.041 142.752 262.657 140.946 272.016C138.309 285.766 135.317 294.427 126.445 303.338C118.1 311.775 111.126 316.073 99.8685 317.839C90.6407 319.25 77.458 314.451 65.0532 312.817C52.6483 311.182 41.1399 312.566 34.1531 305.527C18.4262 289.615 54.9685 264.278 63.2867 252.796C64.5259 251.122 65.6728 249.329 64.0908 245.374Z" fill="#DC0096"/>
<path d="M142.409 241.142C137.268 229.805 129.226 223.359 119.062 220.05C112.036 217.809 94.6878 216.451 84.1812 220.524C75.1511 224.123 68.0325 228.869 65.1587 235.183C68.3753 229.515 74.2415 225.441 82.8762 222.805C96.3884 218.85 109.98 220.261 117.006 222.515C127.17 225.758 135.211 232.217 140.352 243.541C144.307 252.387 142.238 263.895 140.471 273.255C139.034 280.822 137.465 286.846 134.882 292.225C137.874 286.517 139.575 280.136 141.13 271.95C142.897 262.59 146.43 249.988 142.409 241.142Z" fill="#B90078"/>
<path d="M126.576 300.002C118.245 308.465 112.405 310.548 102.452 312.591C92.1036 314.74 78.4992 309.164 63.8401 307.318C53.1753 306 40.2036 308.333 34.1923 302.243C32.1103 300.238 30.7754 297.583 30.4089 294.716C30.1257 296.689 30.319 298.701 30.9726 300.584C31.6262 302.466 32.7212 304.165 34.166 305.539C40.9023 312.341 51.0397 312.13 63.0623 313.817C75.7835 315.65 86.0133 319.09 99.9737 317.772C111.311 316.704 117.718 312.064 126.603 303.719C131.205 299.179 134.772 293.698 137.056 287.65C139.059 282.562 140.436 277.25 141.156 271.831C141.156 271.831 137.03 289.377 126.576 300.002Z" fill="#FF4DD3"/>
<path d="M70.5093 276.643C69.1251 279.491 66.6863 281.165 65.078 280.387C63.4697 279.609 63.2984 276.656 64.6825 273.796C66.0667 270.935 68.5055 269.274 70.1138 270.065C71.7221 270.856 71.9066 273.796 70.5093 276.643ZM95.3453 272.491C93.7371 271.7 91.2983 273.374 89.9141 276.221C88.5299 279.069 88.7013 282.022 90.3096 282.813C91.9179 283.604 94.3566 281.93 95.7408 279.082C97.125 276.235 96.9536 273.269 95.3453 272.491V272.491Z" fill="#321C45"/>
<path d="M70.1407 270.025C68.5324 269.234 66.0936 270.908 64.7094 273.755C64.228 274.722 63.9201 275.767 63.7998 276.84C63.8921 276.642 63.958 276.445 64.0635 276.234C65.4476 273.386 67.8864 271.712 69.4947 272.503C70.5098 272.991 70.9448 274.349 70.813 275.996C71.8676 273.347 71.6171 270.75 70.1407 270.025Z" fill="#B90078"/>
<path d="M89.2807 278.659C90.599 275.811 93.1037 274.137 94.712 274.928C95.7271 275.416 96.1621 276.773 96.0303 278.421C97.1244 275.785 96.8739 273.148 95.3843 272.45C93.8947 271.751 91.3372 273.333 89.9531 276.18C89.4716 277.147 89.1638 278.191 89.0435 279.265C89.1094 279.067 89.1753 278.856 89.2807 278.659Z" fill="#B90078"/>
<path d="M64.3805 251.055C64.3805 251.055 70.2468 243.817 72.5801 237.371C72.5801 237.371 67.307 232.929 64.0246 238.439C62.818 242.578 62.9425 246.991 64.3805 251.055V251.055Z" fill="#FF4DD3"/>
<path d="M68.4008 226.127C72.6527 226.127 76.0995 222.68 76.0995 218.429C76.0995 214.177 72.6527 210.73 68.4008 210.73C64.149 210.73 60.7021 214.177 60.7021 218.429C60.7021 222.68 64.149 226.127 68.4008 226.127Z" fill="#FFFFC3"/>
<path d="M70.2204 222.541C72.7613 222.541 74.8211 220.482 74.8211 217.941C74.8211 215.4 72.7613 213.34 70.2204 213.34C67.6795 213.34 65.6196 215.4 65.6196 217.941C65.6196 220.482 67.6795 222.541 70.2204 222.541Z" fill="black"/>
<path d="M135.277 219.273C137.578 219.273 139.443 217.408 139.443 215.107C139.443 212.806 137.578 210.941 135.277 210.941C132.976 210.941 131.111 212.806 131.111 215.107C131.111 217.408 132.976 219.273 135.277 219.273Z" fill="black"/>
<path d="M171.91 454.344C164.884 450.574 159.611 446.909 154.997 441.781C151.474 437.957 148.189 433.92 145.163 429.692C143.568 427.293 141.511 423.338 139.059 420.992C136.08 418.131 133.312 418.355 132.138 421.216C131.651 422.402 132.138 430.918 137.965 435.018C136.107 433.06 133.921 431.44 131.506 430.233C128.632 428.915 126.47 429.666 125.547 430.628C122.396 433.898 126.285 440.528 128.526 441.992C127.327 440.884 124.901 439.118 122.634 439.988C121.948 440.265 120.841 441.306 121.315 441.992C126.272 449.783 136.238 454.739 143.568 457.666C151.001 460.797 158.788 463.01 166.756 464.257C170.408 464.837 177.302 466.274 180.98 462.82C182.311 460.157 176.05 456.559 171.91 454.344Z" fill="#56D7E4"/>
<path d="M200.741 235.169C197.67 240.508 203.773 251.74 203.246 257.751C202.191 269.893 198.909 276.207 193.135 284.117C190.01 288.361 184.632 294.544 172.042 301.254C172.754 296.301 174.083 291.456 175.997 286.832C177.566 283.273 180.282 280.149 181.877 276.55C185.773 267.759 188.298 258.423 189.364 248.866L200.741 235.169Z" fill="#C300B6"/>
<path d="M132.481 223.281C137.01 223.281 140.681 219.609 140.681 215.081C140.681 210.552 137.01 206.881 132.481 206.881C127.953 206.881 124.282 210.552 124.282 215.081C124.282 219.609 127.953 223.281 132.481 223.281Z" fill="#FFFFC3"/>
<path d="M134.446 219.18C136.987 219.18 139.047 217.121 139.047 214.58C139.047 212.039 136.987 209.979 134.446 209.979C131.905 209.979 129.845 212.039 129.845 214.58C129.845 217.121 131.905 219.18 134.446 219.18Z" fill="black"/>
<path d="M255.357 503.609C313.681 503.609 360.963 500.8 360.963 497.335C360.963 493.869 313.681 491.06 255.357 491.06C197.032 491.06 149.75 493.869 149.75 497.335C149.75 500.8 197.032 503.609 255.357 503.609Z" fill="#FF008E"/>
<path d="M250.282 142.496C247.96 139.968 246.61 136.698 246.472 133.269V133.269C246.346 136.701 244.995 139.975 242.663 142.496C240.907 144.13 238.637 145.1 236.243 145.238C246.354 146.847 245.471 155.587 246.42 162.679C247.211 155.943 246.486 146.86 256.597 145.238C254.241 145.071 252.013 144.103 250.282 142.496V142.496Z" fill="white"/>
<path d="M272.692 129.129C271.357 127.653 270.587 125.753 270.517 123.764V123.764C270.44 125.756 269.66 127.657 268.316 129.129C267.3 130.067 265.991 130.625 264.611 130.711C269.397 131.766 269.977 133.347 270.517 137.474C270.979 133.519 271.901 132.372 276.436 130.711C275.042 130.634 273.719 130.075 272.692 129.129V129.129Z" fill="white"/>
<path d="M260.063 141.534C261.621 141.534 262.884 140.271 262.884 138.713C262.884 137.155 261.621 135.892 260.063 135.892C258.505 135.892 257.242 137.155 257.242 138.713C257.242 140.271 258.505 141.534 260.063 141.534Z" fill="#A974A9"/>
<path d="M223.811 145.305C224.853 145.305 225.697 144.461 225.697 143.42C225.697 142.379 224.853 141.535 223.811 141.535C222.77 141.535 221.926 142.379 221.926 143.42C221.926 144.461 222.77 145.305 223.811 145.305Z" fill="#D539A9"/>
<path d="M235.109 130.237C236.15 130.237 236.994 129.393 236.994 128.351C236.994 127.31 236.15 126.466 235.109 126.466C234.068 126.466 233.224 127.31 233.224 128.351C233.224 129.393 234.068 130.237 235.109 130.237Z" fill="#54396D"/>
<path d="M270.886 176.376C272.189 176.376 273.245 175.319 273.245 174.016C273.245 172.713 272.189 171.656 270.886 171.656C269.582 171.656 268.526 172.713 268.526 174.016C268.526 175.319 269.582 176.376 270.886 176.376Z" fill="#D539A9"/>
<path d="M284.596 152.331C285.768 152.331 286.718 151.381 286.718 150.209C286.718 149.037 285.768 148.086 284.596 148.086C283.424 148.086 282.474 149.037 282.474 150.209C282.474 151.381 283.424 152.331 284.596 152.331Z" fill="#54396D"/>
<path d="M290.964 148.218C292.136 148.218 293.086 147.268 293.086 146.096C293.086 144.923 292.136 143.973 290.964 143.973C289.792 143.973 288.841 144.923 288.841 146.096C288.841 147.268 289.792 148.218 290.964 148.218Z" fill="#54396D"/>
<path d="M292.189 121.457C293.361 121.457 294.311 120.506 294.311 119.334C294.311 118.162 293.361 117.212 292.189 117.212C291.017 117.212 290.066 118.162 290.066 119.334C290.066 120.506 291.017 121.457 292.189 121.457Z" fill="#54396D"/>
<path d="M240.105 164.327C241.277 164.327 242.228 163.377 242.228 162.205C242.228 161.033 241.277 160.083 240.105 160.083C238.933 160.083 237.983 161.033 237.983 162.205C237.983 163.377 238.933 164.327 240.105 164.327Z" fill="#D539A9"/>
<path d="M231.327 172.501C232.499 172.501 233.449 171.55 233.449 170.378C233.449 169.206 232.499 168.256 231.327 168.256C230.155 168.256 229.205 169.206 229.205 170.378C229.205 171.55 230.155 172.501 231.327 172.501Z" fill="#54396D"/>
<path d="M259.416 159.621C260.589 159.621 261.539 158.671 261.539 157.499C261.539 156.327 260.589 155.376 259.416 155.376C258.244 155.376 257.294 156.327 257.294 157.499C257.294 158.671 258.244 159.621 259.416 159.621Z" fill="#54396D"/>
<path d="M313.084 125.253C314.256 125.253 315.206 124.302 315.206 123.13C315.206 121.958 314.256 121.008 313.084 121.008C311.912 121.008 310.961 121.958 310.961 123.13C310.961 124.302 311.912 125.253 313.084 125.253Z" fill="#54396D"/>
<path d="M344.618 116.316C345.79 116.316 346.74 115.366 346.74 114.194C346.74 113.022 345.79 112.071 344.618 112.071C343.445 112.071 342.495 113.022 342.495 114.194C342.495 115.366 343.445 116.316 344.618 116.316Z" fill="#54396D"/>
<path d="M251.627 154.994C252.799 154.994 253.75 154.044 253.75 152.872C253.75 151.7 252.799 150.75 251.627 150.75C250.455 150.75 249.505 151.7 249.505 152.872C249.505 154.044 250.455 154.994 251.627 154.994Z" fill="#54396D"/>
<path d="M283.899 134.732C285.071 134.732 286.021 133.781 286.021 132.609C286.021 131.437 285.071 130.487 283.899 130.487C282.727 130.487 281.776 131.437 281.776 132.609C281.776 133.781 282.727 134.732 283.899 134.732Z" fill="#D539A9"/>
<path d="M221.688 164.011C222.729 164.011 223.573 163.167 223.573 162.126C223.573 161.085 222.729 160.241 221.688 160.241C220.647 160.241 219.803 161.085 219.803 162.126C219.803 163.167 220.647 164.011 221.688 164.011Z" fill="#54A9BA"/>
<path d="M221.992 168.795C222.596 168.795 223.086 168.305 223.086 167.701C223.086 167.097 222.596 166.607 221.992 166.607C221.387 166.607 220.897 167.097 220.897 167.701C220.897 168.305 221.387 168.795 221.992 168.795Z" fill="#54A9BA"/>
<path d="M267.63 150.247C268.235 150.247 268.724 149.758 268.724 149.153C268.724 148.549 268.235 148.059 267.63 148.059C267.026 148.059 266.536 148.549 266.536 149.153C266.536 149.758 267.026 150.247 267.63 150.247Z" fill="#54A9BA"/>
<path d="M230.482 151.752C231.523 151.752 232.367 150.908 232.367 149.867C232.367 148.825 231.523 147.981 230.482 147.981C229.441 147.981 228.597 148.825 228.597 149.867C228.597 150.908 229.441 151.752 230.482 151.752Z" fill="#54A9BA"/>
<path d="M209.746 158.449C210.788 158.449 211.632 157.605 211.632 156.564C211.632 155.523 210.788 154.679 209.746 154.679C208.705 154.679 207.861 155.523 207.861 156.564C207.861 157.605 208.705 158.449 209.746 158.449Z" fill="#54396D"/>
<path d="M239.485 175.019C240.526 175.019 241.37 174.175 241.37 173.134C241.37 172.093 240.526 171.249 239.485 171.249C238.444 171.249 237.6 172.093 237.6 173.134C237.6 174.175 238.444 175.019 239.485 175.019Z" fill="#54A9BA"/>
<path d="M223.495 146.518C222.975 145.883 222.594 145.147 222.375 144.356C221.953 143.354 221.32 143.368 220.898 144.356C220.648 145.181 220.236 145.947 219.685 146.611C219.029 147.147 218.301 147.591 217.523 147.929C217.413 147.975 217.318 148.052 217.251 148.152C217.185 148.252 217.149 148.369 217.149 148.489C217.149 148.609 217.185 148.726 217.251 148.826C217.318 148.926 217.413 149.003 217.523 149.049C218.319 149.173 219.064 149.52 219.67 150.049C220.277 150.579 220.721 151.27 220.951 152.042C221.254 152.806 221.913 152.833 222.269 152.042C222.836 150.618 223.35 149.827 225.789 148.865C225.904 148.821 226.003 148.743 226.073 148.642C226.142 148.541 226.18 148.421 226.18 148.298C226.18 148.175 226.142 148.055 226.073 147.954C226.003 147.852 225.904 147.775 225.789 147.731C224.956 147.472 224.178 147.061 223.495 146.518V146.518Z" fill="white"/>
<path d="M215.401 166.858C214.979 166.463 214.927 165.962 214.637 165.355C214.347 164.749 214.057 164.947 213.872 165.355C213.695 165.921 213.414 166.449 213.042 166.911C212.644 167.249 212.2 167.529 211.723 167.741C211.655 167.769 211.596 167.816 211.555 167.877C211.513 167.938 211.491 168.01 211.491 168.084C211.491 168.158 211.513 168.23 211.555 168.291C211.596 168.352 211.655 168.4 211.723 168.427C212.245 168.505 212.731 168.738 213.118 169.095C213.506 169.452 213.778 169.918 213.898 170.431C214.083 170.892 214.386 170.892 214.558 170.431C214.94 169.455 215.204 168.954 216.799 168.321C216.866 168.291 216.924 168.242 216.964 168.18C217.004 168.118 217.026 168.046 217.026 167.972C217.026 167.898 217.004 167.826 216.964 167.764C216.924 167.702 216.866 167.653 216.799 167.623C216.291 167.454 215.818 167.195 215.401 166.858V166.858Z" fill="white"/>
<path d="M256.899 160.978C256.477 160.583 256.425 160.082 256.135 159.476C255.845 158.869 255.555 159.067 255.37 159.476C255.194 160.046 254.912 160.578 254.54 161.044C254.139 161.374 253.695 161.649 253.221 161.862C253.153 161.889 253.094 161.936 253.053 161.997C253.011 162.058 252.989 162.131 252.989 162.204C252.989 162.278 253.011 162.35 253.053 162.411C253.094 162.472 253.153 162.52 253.221 162.547C253.744 162.626 254.232 162.861 254.62 163.221C255.007 163.58 255.278 164.048 255.397 164.564C255.581 165.025 255.884 165.025 256.056 164.564C256.438 163.588 256.702 163.074 258.297 162.442C258.364 162.412 258.422 162.363 258.462 162.301C258.502 162.239 258.524 162.166 258.524 162.092C258.524 162.018 258.502 161.946 258.462 161.884C258.422 161.822 258.364 161.773 258.297 161.743C257.786 161.579 257.312 161.32 256.899 160.978V160.978Z" fill="white"/>
<path d="M231.403 160.32C231.077 159.937 230.839 159.487 230.705 159.002C230.441 158.396 230.045 158.396 229.795 159.002C229.626 159.483 229.372 159.93 229.044 160.32C228.642 160.65 228.199 160.924 227.725 161.138C227.657 161.165 227.598 161.212 227.557 161.274C227.515 161.335 227.493 161.407 227.493 161.481C227.493 161.554 227.515 161.626 227.557 161.687C227.598 161.749 227.657 161.796 227.725 161.823C228.219 161.9 228.68 162.116 229.056 162.445C229.432 162.774 229.706 163.203 229.848 163.682C230.032 164.143 230.441 164.157 230.625 163.682C230.981 162.799 231.298 162.364 232.801 161.705C232.868 161.675 232.926 161.626 232.966 161.564C233.006 161.502 233.028 161.429 233.028 161.355C233.028 161.281 233.006 161.209 232.966 161.147C232.926 161.085 232.868 161.036 232.801 161.006C232.296 160.866 231.822 160.634 231.403 160.32Z" fill="white"/>
</g>
<path d="M356.06 70.6997C350.664 64.8251 347.526 57.2267 347.207 49.2563V49.2563C346.913 57.2325 343.773 64.8398 338.354 70.6997C334.274 74.4962 328.998 76.7497 323.435 77.0715C346.931 80.8087 344.878 101.119 347.084 117.599C348.922 101.946 347.237 80.8394 370.733 77.0715C365.259 76.6819 360.082 74.4339 356.06 70.6997V70.6997Z" fill="white"/>
<path d="M408.136 39.6377C405.033 36.208 403.243 31.7919 403.081 27.1699V27.1699C402.903 31.7998 401.09 36.2168 397.965 39.6377C395.604 41.8165 392.564 43.1148 389.357 43.3137C400.477 45.7644 401.825 49.4404 403.081 59.0286C404.153 49.8386 406.298 47.1735 416.836 43.3137C413.597 43.1356 410.521 41.836 408.136 39.6377V39.6377Z" fill="white"/>
<path d="M378.788 68.4661C382.409 68.4661 385.344 65.5311 385.344 61.9105C385.344 58.29 382.409 55.355 378.788 55.355C375.167 55.355 372.232 58.29 372.232 61.9105C372.232 65.5311 375.167 68.4661 378.788 68.4661Z" fill="#A974A9"/>
<path d="M294.548 77.2279C296.967 77.2279 298.928 75.2667 298.928 72.8474C298.928 70.428 296.967 68.4668 294.548 68.4668C292.128 68.4668 290.167 70.428 290.167 72.8474C290.167 75.2667 292.128 77.2279 294.548 77.2279Z" fill="#D539A9"/>
<path d="M320.799 42.2118C323.218 42.2118 325.18 40.2506 325.18 37.8313C325.18 35.4119 323.218 33.4507 320.799 33.4507C318.38 33.4507 316.418 35.4119 316.418 37.8313C316.418 40.2506 318.38 42.2118 320.799 42.2118Z" fill="#54396D"/>
<path d="M435.796 93.5558C438.52 93.5558 440.728 91.3477 440.728 88.6239C440.728 85.9 438.52 83.6919 435.796 83.6919C433.072 83.6919 430.864 85.9 430.864 88.6239C430.864 91.3477 433.072 93.5558 435.796 93.5558Z" fill="#54396D"/>
<path d="M450.593 83.9977C453.316 83.9977 455.525 81.7896 455.525 79.0658C455.525 76.3419 453.316 74.1338 450.593 74.1338C447.869 74.1338 445.661 76.3419 445.661 79.0658C445.661 81.7896 447.869 83.9977 450.593 83.9977Z" fill="#54396D"/>
<path d="M453.441 21.8088C456.165 21.8088 458.373 19.6007 458.373 16.8768C458.373 14.1529 456.165 11.9448 453.441 11.9448C450.717 11.9448 448.509 14.1529 448.509 16.8768C448.509 19.6007 450.717 21.8088 453.441 21.8088Z" fill="#54396D"/>
<path d="M332.41 121.431C335.134 121.431 337.342 119.223 337.342 116.499C337.342 113.775 335.134 111.567 332.41 111.567C329.687 111.567 327.479 113.775 327.479 116.499C327.479 119.223 329.687 121.431 332.41 121.431Z" fill="#D539A9"/>
<path d="M312.011 140.425C314.735 140.425 316.943 138.217 316.943 135.493C316.943 132.77 314.735 130.562 312.011 130.562C309.287 130.562 307.079 132.77 307.079 135.493C307.079 138.217 309.287 140.425 312.011 140.425Z" fill="#54396D"/>
<path d="M377.283 110.495C380.007 110.495 382.215 108.287 382.215 105.563C382.215 102.839 380.007 100.631 377.283 100.631C374.559 100.631 372.351 102.839 372.351 105.563C372.351 108.287 374.559 110.495 377.283 110.495Z" fill="#54396D"/>
<path d="M501.995 30.631C504.719 30.631 506.927 28.4229 506.927 25.6991C506.927 22.9752 504.719 20.7671 501.995 20.7671C499.272 20.7671 497.063 22.9752 497.063 25.6991C497.063 28.4229 499.272 30.631 501.995 30.631Z" fill="#54396D"/>
<path d="M575.272 9.86395C577.996 9.86395 580.204 7.65583 580.204 4.93197C580.204 2.20812 577.996 0 575.272 0C572.548 0 570.34 2.20812 570.34 4.93197C570.34 7.65583 572.548 9.86395 575.272 9.86395Z" fill="#54396D"/>
<path d="M359.185 99.7424C361.909 99.7424 364.117 97.5342 364.117 94.8104C364.117 92.0865 361.909 89.8784 359.185 89.8784C356.461 89.8784 354.253 92.0865 354.253 94.8104C354.253 97.5342 356.461 99.7424 359.185 99.7424Z" fill="#54396D"/>
<path d="M434.174 52.6569C436.898 52.6569 439.106 50.4488 439.106 47.7249C439.106 45.0011 436.898 42.793 434.174 42.793C431.45 42.793 429.242 45.0011 429.242 47.7249C429.242 50.4488 431.45 52.6569 434.174 52.6569Z" fill="#D539A9"/>
<path d="M289.612 120.696C292.031 120.696 293.993 118.734 293.993 116.315C293.993 113.896 292.031 111.935 289.612 111.935C287.193 111.935 285.231 113.896 285.231 116.315C285.231 118.734 287.193 120.696 289.612 120.696Z" fill="#54A9BA"/>
<path d="M290.318 131.813C291.723 131.813 292.861 130.675 292.861 129.271C292.861 127.866 291.723 126.728 290.318 126.728C288.914 126.728 287.776 127.866 287.776 129.271C287.776 130.675 288.914 131.813 290.318 131.813Z" fill="#54A9BA"/>
<path d="M396.371 88.7131C397.775 88.7131 398.913 87.5747 398.913 86.1705C398.913 84.7663 397.775 83.6279 396.371 83.6279C394.966 83.6279 393.828 84.7663 393.828 86.1705C393.828 87.5747 394.966 88.7131 396.371 88.7131Z" fill="#54A9BA"/>
<path d="M310.046 92.2084C312.465 92.2084 314.427 90.2472 314.427 87.8278C314.427 85.4085 312.465 83.4473 310.046 83.4473C307.627 83.4473 305.666 85.4085 305.666 87.8278C305.666 90.2472 307.627 92.2084 310.046 92.2084Z" fill="#54A9BA"/>
<path d="M261.863 107.769C264.282 107.769 266.244 105.808 266.244 103.389C266.244 100.97 264.282 99.0083 261.863 99.0083C259.444 99.0083 257.482 100.97 257.482 103.389C257.482 105.808 259.444 107.769 261.863 107.769Z" fill="#54396D"/>
<path d="M330.968 146.276C333.388 146.276 335.349 144.315 335.349 141.895C335.349 139.476 333.388 137.515 330.968 137.515C328.549 137.515 326.588 139.476 326.588 141.895C326.588 144.315 328.549 146.276 330.968 146.276Z" fill="#54A9BA"/>
<path d="M293.811 80.0456C292.604 78.5701 291.717 76.8591 291.208 75.0217C290.227 72.6936 288.757 72.7242 287.777 75.0217C287.195 76.938 286.237 78.719 284.958 80.2601C283.432 81.5072 281.742 82.538 279.934 83.3234C279.677 83.43 279.457 83.6106 279.302 83.8424C279.147 84.0741 279.064 84.3466 279.064 84.6253C279.064 84.904 279.147 85.1765 279.302 85.4082C279.457 85.64 279.677 85.8206 279.934 85.9272C281.784 86.2144 283.514 87.0202 284.924 88.2511C286.333 89.4819 287.365 91.0873 287.899 92.881C288.604 94.6577 290.135 94.719 290.962 92.881C292.28 89.5726 293.474 87.7346 299.142 85.4984C299.409 85.3968 299.639 85.2165 299.801 84.9812C299.963 84.746 300.05 84.4669 300.05 84.1811C300.05 83.8953 299.963 83.6163 299.801 83.381C299.639 83.1458 299.409 82.9654 299.142 82.8639C297.206 82.2628 295.398 81.3072 293.811 80.0456V80.0456Z" fill="white"/>
<path d="M275.002 127.313C274.021 126.394 273.899 125.23 273.225 123.821C272.551 122.411 271.877 122.871 271.448 123.821C271.038 125.136 270.383 126.362 269.518 127.435C268.594 128.221 267.563 128.871 266.455 129.365C266.296 129.429 266.159 129.539 266.063 129.681C265.967 129.823 265.916 129.99 265.916 130.162C265.916 130.333 265.967 130.501 266.063 130.643C266.159 130.785 266.296 130.894 266.455 130.958C267.666 131.14 268.796 131.681 269.697 132.511C270.598 133.341 271.229 134.422 271.509 135.614C271.938 136.687 272.643 136.687 273.041 135.614C273.929 133.348 274.542 132.183 278.249 130.713C278.406 130.643 278.539 130.529 278.633 130.385C278.726 130.241 278.776 130.073 278.776 129.901C278.776 129.729 278.726 129.561 278.633 129.417C278.539 129.273 278.406 129.159 278.249 129.089C277.069 128.696 275.969 128.095 275.002 127.313V127.313Z" fill="white"/>
<path d="M371.435 113.651C370.454 112.732 370.332 111.568 369.658 110.158C368.984 108.749 368.31 109.209 367.881 110.158C367.471 111.483 366.816 112.72 365.951 113.804C365.019 114.57 363.989 115.209 362.888 115.703C362.729 115.767 362.592 115.877 362.496 116.019C362.4 116.161 362.349 116.328 362.349 116.5C362.349 116.671 362.4 116.839 362.496 116.98C362.592 117.122 362.729 117.232 362.888 117.296C364.104 117.48 365.236 118.025 366.137 118.861C367.038 119.697 367.667 120.785 367.943 121.983C368.371 123.055 369.076 123.055 369.474 121.983C370.363 119.716 370.975 118.521 374.682 117.051C374.839 116.981 374.972 116.867 375.066 116.723C375.16 116.579 375.209 116.411 375.209 116.239C375.209 116.067 375.16 115.899 375.066 115.755C374.972 115.611 374.839 115.497 374.682 115.427C373.496 115.047 372.394 114.444 371.435 113.651V113.651Z" fill="white"/>
<path d="M312.189 112.12C311.432 111.229 310.878 110.183 310.565 109.056C309.952 107.647 309.033 107.647 308.451 109.056C308.059 110.175 307.468 111.213 306.705 112.12C305.772 112.884 304.742 113.523 303.642 114.019C303.483 114.083 303.346 114.193 303.25 114.334C303.154 114.476 303.103 114.644 303.103 114.815C303.103 114.987 303.154 115.154 303.25 115.296C303.346 115.438 303.483 115.548 303.642 115.612C304.789 115.791 305.861 116.292 306.734 117.056C307.607 117.821 308.245 118.818 308.574 119.931C309.003 121.003 309.952 121.034 310.381 119.931C311.208 117.879 311.944 116.868 315.436 115.336C315.593 115.266 315.726 115.153 315.82 115.008C315.913 114.864 315.963 114.696 315.963 114.524C315.963 114.353 315.913 114.184 315.82 114.04C315.726 113.896 315.593 113.782 315.436 113.713C314.264 113.388 313.162 112.848 312.189 112.12Z" fill="white"/>
<defs>
<filter id="filter0_d" x="0" y="92.0713" width="477.268" height="458.929" filterUnits="userSpaceOnUse" color-interpolation-filters="sRGB">
<feFlood flood-opacity="0" result="BackgroundImageFix"/>
<feColorMatrix in="SourceAlpha" type="matrix" values="0 0 0 0 0 0 0 0 0 0 0 0 0 0 0 0 0 0 127 0"/>
<feOffset dy="4"/>
<feGaussianBlur stdDeviation="12"/>
<feColorMatrix type="matrix" values="0 0 0 0 0 0 0 0 0 0 0 0 0 0 0 0 0 0 0.28 0"/>
<feBlend mode="normal" in2="BackgroundImageFix" result="effect1_dropShadow"/>
<feBlend mode="normal" in="SourceGraphic" in2="effect1_dropShadow" result="shape"/>
</filter>
<linearGradient id="paint0_linear" x1="171.121" y1="465.102" x2="183.763" y2="393.441" gradientUnits="userSpaceOnUse">
<stop offset="0.13" stop-color="#44CEEC"/>
<stop offset="0.85" stop-color="#0097B3"/>
</linearGradient>
<linearGradient id="paint1_linear" x1="68.9529" y1="362.006" x2="65.9108" y2="316.205" gradientUnits="userSpaceOnUse">
<stop offset="0.13" stop-color="#44CEEC"/>
<stop offset="0.85" stop-color="#0095B3"/>
</linearGradient>
<linearGradient id="paint2_linear" x1="931.638" y1="2212.28" x2="931.638" y2="2037.52" gradientUnits="userSpaceOnUse">
<stop offset="0.13" stop-color="#44CEEC"/>
<stop offset="0.85" stop-color="#0095B3"/>
</linearGradient>
<linearGradient id="paint3_linear" x1="283.484" y1="336.092" x2="315.776" y2="405.966" gradientUnits="userSpaceOnUse">
<stop offset="0.16" stop-color="#007C99"/>
<stop offset="0.56" stop-color="#0090AE"/>
<stop offset="0.86" stop-color="#009AB8"/>
</linearGradient>
<linearGradient id="paint4_linear" x1="-1203.24" y1="55253.2" x2="33341.5" y2="44981.7" gradientUnits="userSpaceOnUse">
<stop offset="0.13" stop-color="#44CEEC"/>
<stop offset="0.85" stop-color="#0095B3"/>
</linearGradient>
<linearGradient id="paint5_linear" x1="-8488.69" y1="19048.8" x2="-7815.25" y2="16253" gradientUnits="userSpaceOnUse">
<stop offset="0.13" stop-color="#44CEEC"/>
<stop offset="0.85" stop-color="#0097B3"/>
</linearGradient>
<linearGradient id="paint6_linear" x1="227.986" y1="173.491" x2="217.338" y2="303.009" gradientUnits="userSpaceOnUse">
<stop offset="0.13" stop-color="#44CEEC"/>
<stop offset="0.85" stop-color="#00A8C5"/>
</linearGradient>
</defs>
</svg>
