<svg xmlns="http://www.w3.org/2000/svg" xmlns:xlink="http://www.w3.org/1999/xlink" viewBox="0 0 446.99 315.77"><defs><style>.cls-1{fill:#614e7a;}.cls-2{fill:#614eff;}.cls-3{fill:#00b600;}.cls-4{fill:#f0f;}.cls-13,.cls-4{opacity:0.58;}.cls-5,.cls-50{fill:#80d500;}.cls-46,.cls-47,.cls-6,.cls-9{fill:#ffd500;}.cls-7{fill:#00c100;}.cls-8{fill:#00c1ff;}.cls-9{opacity:0.54;}.cls-10{fill:#c300b6;}.cls-11,.cls-51{fill:#9bd561;}.cls-12,.cls-15{fill:#ff008e;}.cls-12{opacity:0.74;}.cls-13{fill:#ff0061;}.cls-14{fill:#591c64;}.cls-16{fill:#ff8700;}.cls-17{fill:#9a2669;}.cls-18{fill:#315e78;}.cls-19{fill:#346d85;}.cls-20{fill:url(#linear-gradient);}.cls-21{fill:#244c69;}.cls-22{fill:#48e3f2;}.cls-23{fill:url(#linear-gradient-2);}.cls-24{fill:#ffd100;}.cls-25,.cls-43,.cls-53{fill:#fff;}.cls-26{fill:#ffffb7;}.cls-27{fill:#ffb000;}.cls-28{fill:#ff9e00;}.cls-29{fill:#cbe9d6;}.cls-30,.cls-32{fill:#ff6400;}.cls-31{fill:#dd4300;}.cls-32{opacity:0.5;}.cls-33{fill:none;stroke:#ffd14d;stroke-miterlimit:10;stroke-width:0.71px;}.cls-34{fill:#535053;}.cls-35{fill:#a6c400;}.cls-36{fill:red;}.cls-37{fill:#b851ff;}.cls-38{fill:url(#linear-gradient-3);}.cls-39{fill:#c80060;}.cls-40{fill:#b52769;}.cls-41{fill:#9a2a5e;}.cls-42,.cls-45,.cls-49{fill:#00d5ff;}.cls-43{opacity:0.46;}.cls-44{fill:#ff7500;}.cls-45{opacity:0.63;}.cls-46{opacity:0.52;}.cls-47{opacity:0.61;}.cls-48{fill:#00d561;opacity:0.69;}.cls-49{opacity:0.64;}.cls-50{opacity:0.59;}.cls-51{opacity:0.51;}.cls-52{fill:#0081ff;}.cls-53{font-size:19.65px;stroke:#fff;stroke-linecap:round;stroke-linejoin:round;font-family:CeraPro-Bold, Cera Pro;font-weight:700;}.cls-54{letter-spacing:-0.02em;}.cls-55{letter-spacing:-0.06em;}</style><linearGradient id="linear-gradient" x1="66.04" y1="174.4" x2="151.5" y2="174.4" gradientUnits="userSpaceOnUse"><stop offset="0.13" stop-color="#44ceec"/><stop offset="0.85" stop-color="#0095b3"/></linearGradient><linearGradient id="linear-gradient-2" x1="107.89" y1="185.75" x2="257.7" y2="99.26" gradientUnits="userSpaceOnUse"><stop offset="0.13" stop-color="#44ceec"/><stop offset="0.32" stop-color="#3ac5e5"/><stop offset="0.65" stop-color="#1eaed3"/><stop offset="0.95" stop-color="#0095bf"/></linearGradient><linearGradient id="linear-gradient-3" x1="116.21" y1="176.95" x2="150.24" y2="196.59" gradientUnits="userSpaceOnUse"><stop offset="0.13" stop-color="#44ceec"/><stop offset="0.32" stop-color="#3fcae9"/><stop offset="0.55" stop-color="#30bfdf"/><stop offset="0.81" stop-color="#17accf"/><stop offset="1" stop-color="#009abf"/></linearGradient></defs><g id="Layer_2" data-name="Layer 2"><g id="Layer_1-2" data-name="Layer 1"><circle class="cls-1" cx="353.05" cy="184.13" r="2.82"/><circle class="cls-1" cx="361.87" cy="200.09" r="2.82"/><circle class="cls-2" cx="315.31" cy="186.46" r="2.82"/><circle class="cls-1" cx="326.78" cy="186.13" r="2.82"/><circle class="cls-1" cx="328.28" cy="175.82" r="2.82"/><circle class="cls-1" cx="336.75" cy="174.83" r="2.82"/><circle class="cls-1" cx="341.24" cy="166.68" r="2.82"/><circle class="cls-1" cx="345.07" cy="172.83" r="2.82"/><circle class="cls-1" cx="330.27" cy="185.97" r="2.82"/><circle class="cls-3" cx="338.49" cy="179.68" r="3.76"/><circle class="cls-4" cx="305.46" cy="171.64" r="8.46"/><circle class="cls-5" cx="320.98" cy="143.55" r="3.76"/><circle class="cls-5" cx="311.45" cy="174.81" r="3.76"/><circle class="cls-6" cx="300.89" cy="174.42" r="1.57"/><circle class="cls-7" cx="328.85" cy="168.21" r="3.76"/><circle class="cls-8" cx="324.78" cy="163.45" r="3.76"/><circle class="cls-9" cx="315.3" cy="170.5" r="2.82"/><circle class="cls-6" cx="320.85" cy="167.9" r="3.76"/><circle class="cls-5" cx="317.08" cy="147.83" r="2.19"/><circle class="cls-10" cx="303.83" cy="171.66" r="2.19"/><circle class="cls-11" cx="311.85" cy="159.31" r="5.64"/><circle class="cls-12" cx="308.57" cy="167.47" r="5.33"/><circle class="cls-12" cx="318.99" cy="178.56" r="5.33"/><circle class="cls-13" cx="320.31" cy="155.23" r="8.46"/><ellipse class="cls-14" cx="197.37" cy="285.29" rx="197.37" ry="30.48"/><ellipse class="cls-10" cx="197.21" cy="276.64" rx="160.05" ry="19.39"/><ellipse class="cls-15" cx="193.84" cy="273" rx="120.12" ry="11.99"/><path class="cls-16" d="M191.59,100.6l-1.89,5.66,44,66.67s15.72-18.24,29.87-12.9Z"/><path class="cls-17" d="M188.68,243.92c-1.37,2.3,6.34-.67,5,1.41-2.83,4.25-19.36,7.56-23.12,8.49-6.36,1.58-10.37,2.12-11.55,4.48-2.53,5.06,7.54,4.72,12.5,4.48,5.65-.27,4.93-.64,10.84-.7,8.84-.1,12.31-1.84,21.2-2.59,7.26-.61,16.13-3.72,20-10.43,3.4-5.85.93-11.46,1-17.64"/><path class="cls-15" d="M204.56,257.79c-8.89.75-12.36,2.49-21.2,2.59-5.91.06-5.19.44-10.84.71-4.71.22-14,.54-12.79-3.76a3.5,3.5,0,0,0-.8,1c-2.53,5.06,7.55,4.72,12.5,4.48,5.66-.27,4.93-.64,10.85-.7,8.83-.1,12.3-1.84,21.2-2.59,7.26-.61,16.12-3.72,20-10.43a4.23,4.23,0,0,0,.22-.42C219.48,254.48,211.33,257.23,204.56,257.79Z"/><path class="cls-18" d="M85.51,167.7c-2.72-2.12-6.05-4-8.19-6.77-3.34-4.3-7.55-11.22-8.13-16.42-.92-8.29-3-16.75-7.46-15.83-3.54.73-3.79,8.9-4.84,13.61-.46,2.06-1.64,4.31-7.33,4.69-2,.13-10.33.58-10.17,5,.1,2.67.77,3.49.53,5.45-.31,2.39-1.08,1.92-1,4.16.19,3.42,2.24,6,2.46,7.59.57,4-.63,4.85,0,7.58.57,2.47,4.23,4.51,8.53,5.69,2.09.57,8.72.76,13.27,1.14,4,.33,6.82.28,10.81.38,1.71,0,7.23.48,8.72-.19"/><path class="cls-19" d="M43.67,150.4c4.28-.84,12.32-.21,14.2-3.13,2.61-4.06,1.24-16.07,4.87-15.62,2.83.36,3.37,6.41,4.36,14.51A30.75,30.75,0,0,0,76,164.55c2.47,2.48,7.19,5.31,14,6.61l-4.36-3.46c-2.71-2.12-6-4-8.18-6.77-3.34-4.3-7.55-11.22-8.13-16.42-.92-8.29-3-16.75-7.46-15.83-3.54.73-3.79,8.9-4.84,13.61-.46,2.06-1.65,4.31-7.33,4.69-2,.13-10.16.38-10.29,4.83a23.17,23.17,0,0,0,.48,3.7C40.17,152.22,42.17,150.69,43.67,150.4Z"/><path class="cls-20" d="M115.43,187.41a151.54,151.54,0,0,0,23.32-3.4c5.65-1.32,10.52-1.62,12-7.94,1-4.16,1.56-10.82-1.92-13.94-3.29-2.94-10.62.18-14.83,1-10.82,2-10.55,3.24-21.34,4.79-14.15,2.05-22.73-1-26.73-2-2.91-.74-2.78.71-2.48,5.43-3,1.95-7.29-.9-10.33.94-1.85,1.12-.7,4.32,1.13,6.37-1.56.11-5.11.28-6.93,1.28s-2,4.14,1.32,4.85C68.64,184.72,87.86,189.44,115.43,187.41Z"/><path class="cls-21" d="M48.51,149c5.29,1.78,20.52,1.7,13.35,10.38.37,2.09,2.75,5.17,2.38,7.23-.51,2.83-4.61,3.9-5.22,6.85,6.13,3.36-5.6,9.42-5.6,9.42s10.73,1.41,12-5.07c.41-2.09-1.15-3.63-.61-5,.29-.74,2.49-1.88,3.09-2.52,1.81-2,2.32-3.51,1.35-5.9-.89-2.21-1.58-2.49-1.28-4.9.34-2.67,1.2-4.37-.61-6.74-3.55-4.65-11.92-4.18-17.24-4Z"/><path class="cls-19" d="M48.5,148.9c1.18,1,5,.93,6.39,1.21s3.11.74,4.63,1.15c1.76.49,4.21,2,4.21,4.07a19.85,19.85,0,0,0-7.2-2.18c-3.39-.45-10-1-13.29-.34a4.48,4.48,0,0,0-3.37,2.75c.38-1.33-.26-4.55.78-5.12Z"/><path class="cls-22" d="M113.05,174.19s22.93-1.83,38.33-6.34a8.93,8.93,0,0,0-2.55-5.72c-3.29-2.94-10.62.18-14.83,1-10.82,2-10.55,3.24-21.34,4.79-14.15,2.05-23.11-1.2-27.11-2.21-2.91-.74-4.77,1.85-2.1,5.6-1.35.88-3,.78-4.63.58C76.82,171.61,98.53,177.22,113.05,174.19Z"/><path class="cls-15" d="M39.76,152.93c.11,1.11.31,1.86.43,2.61,0-.09,0-.18,0-.28.2-1.6-.21-2.46-.42-4.17h0a2.3,2.3,0,0,0-.06.28v.06c0,.11,0,.23,0,.35v.05a1,1,0,0,0,0,.17c0,.23,0,.44,0,.64S39.75,152.84,39.76,152.93Z"/><path class="cls-15" d="M41.85,170.18a13.07,13.07,0,0,0-.1-3.17c-.21-1.45-2-3.76-2.38-6.78a4.88,4.88,0,0,0-.09,1.39c.19,3.42,2.24,6,2.47,7.59C41.8,169.56,41.83,169.87,41.85,170.18Z"/><path class="cls-15" d="M151.07,173.87c-1.48,6.32-6.35,6.62-12,7.94a151.72,151.72,0,0,1-23.32,3.4c-27.58,2-46.8-2.69-46.8-2.69a3.67,3.67,0,0,1-1.81-.89c-1.13,0-2.3-.11-3.59-.21-4.55-.38-11.19-.57-13.27-1.14-4.31-1.18-8-3.23-8.53-5.69,0-.19-.08-.36-.11-.53a7.16,7.16,0,0,0,.11,2.73c.56,2.47,4.22,4.51,8.53,5.69,2.08.57,8.72.76,13.27,1.14,1.29.1,2.46.17,3.59.22a3.75,3.75,0,0,0,1.81.88s19.22,4.72,46.8,2.69a151.72,151.72,0,0,0,23.32-3.4c5.65-1.32,10.52-1.62,12-7.94a26.23,26.23,0,0,0,.7-7.13A29,29,0,0,1,151.07,173.87Z"/><path class="cls-23" d="M78.94,45.41c8.56-10.53,35.25-16.1,54.16-7.07,13.84,6.6,21.53,19.64,25.47,25.15,3.38,4.73,26.57,31.92,50.63,67.3,12.74,18.73,25.94,43.08,35.79,56,2.59,3.43,20.91,6.94,37.8,8.75,13.2,1.41,43.39,8.49,39.64,19.92-3.53,10.76-15.59,14.51-42,18.76-5.19.83-46.09,5.42-57.84,7.78-9.36,1.88-50,10.25-75.34-6.84-46.54-31.45-60.37-118.55-60.37-118.55s-14.16-8.49-18.24-23.9"/><path class="cls-15" d="M245.36,223.56c-45,2.61-75.78,21.39-107,4.6a80.67,80.67,0,0,0,8.91,7c25.3,17.09,66,8.72,75.34,6.84,11.75-2.36,52.64-6.95,57.84-7.78,16.9-2.72,27.91-5.24,34.59-9.51C296.31,226.7,294.11,220.72,245.36,223.56Z"/><path class="cls-24" d="M68,34.25C75.54,29,87.6,21.43,95.75,17c9.09-4.93,12.5-7.63,22.88-12.67,3.3-1.6,9.75-4.95,9.71-2.72.6,5.14-3.82,20.06-5.38,27.86"/><path class="cls-25" d="M96,17.4c9-5.17,12.19-6.73,22.57-11.77,3.29-1.6,9.75-4.95,9.7-2.72,0,.15,0,.31,0,.48a10.46,10.46,0,0,0,0-1.89c.05-2.23-6.41,1.11-9.7,2.71C108.17,9.26,104.93,10.81,96,16c-12.49,7.22-25.22,16-33.71,24l2.7-1C73.33,31.61,84.75,23.9,96,17.4Z"/><path class="cls-22" d="M284.29,195.35c-7.6-1.43-30-4.64-34.35-6-2.43-.77-4.49-3.11-5.58-4.55-9.84-12.95-22.42-35.24-35.16-54-24-35.38-47.25-62.57-50.63-67.3C154.63,58,146.94,44.94,133.1,38.34c-18.91-9-45.6-3.46-54.16,7.07l-1.26,7.23c8.57-10.53,35.25-16.1,54.16-7.07,13.84,6.6,21.53,19.64,25.47,25.16,3.38,4.73,26.58,31.91,50.63,67.29,12.74,18.73,25.95,43.08,35.79,56,.57.74,2,3.15,3.88,3.89,2.87,1.12,30.72,3.11,36.59,4.06,11.45,1.86,38.68,4.41,36.87,16.57a17.22,17.22,0,0,0,1.36-3.09C326.18,204.06,297.34,197.8,284.29,195.35Z"/><path class="cls-15" d="M82.48,46c-8.46-2.8-8.8,4.88-12,10.89-3.3,6.29-10.17,9.1-18.88,9.56s-21.79.33-30.49.82c-6.58.36-16.83.09-15.25,8,1.1,5.5,5.53,5.43,10.38,5.86a110,110,0,0,0,11.79,0c-.38,1.12.15,3.34,4,3.87,3.54.47,13.45.58,21,3.21,6.65,2.33,10,5.12,15,9,.86.68,2,1.38,3,2.13a15.69,15.69,0,0,0,10.92,3.1c3.87-.47,6.15-3.34,7.45-6.64,4-10.19,4.63-18.48,3.3-27.4C91,57.36,86.4,47.93,82.48,46Z"/><ellipse class="cls-26" cx="102.88" cy="56.25" rx="8.01" ry="10.34"/><ellipse cx="104.44" cy="56.14" rx="4.53" ry="5.85"/><path class="cls-27" d="M140.76,166.56s.24-5,7.75-11.87c12.22-11.13,43.69-32.69,50.4-39.37l-12.58-17S136.25,145.57,95.05,150c0,0-6.92,1.57-3.14,10.06,0,0,17.2,47.44,36.63,70.21,2.39,2.8,4.1,4.59,6.66,5.09,0,0,7.24,1.48,14.8-15.71C150,219.62,146.85,184.09,140.76,166.56Z"/><path class="cls-24" d="M93.48,162.86c-3.77-8.49,3.14-10.06,3.14-10.06,37.2-4,83.11-44.09,91.67-51.85l-2.36-3.18s-50,47.17-91.19,51.57c0,0-6.92,1.57-3.15,10.06,0,0,9.19,25.33,21.71,47.85A387.12,387.12,0,0,1,93.48,162.86Z"/><path class="cls-27" d="M147.88,210a485.32,485.32,0,0,0,80-50.23L216.56,142S150.71,188,144.11,191.79Z"/><path class="cls-24" d="M218.46,144.8l-1.8-2.82s-65.81,46-72.41,49.77l.71,3.41C151.39,191.43,208.94,151.43,218.46,144.8Z"/><path class="cls-28" d="M147.45,207.89l.43,2.05a485.32,485.32,0,0,0,80-50.23l-1.18-1.86A503.14,503.14,0,0,1,147.45,207.89Z"/><path class="cls-27" d="M192,106c-8.14-8.49-7.68-23.38-1.08-30.88,11.64-13.21,33.34-6.29,50.95,4.09,16.13,9.5,38.67,21.69,51.25,32.07S307,129.84,307,129.84s-4.82,9.21-10.9,18.41c-5.17,7.82-11,16.43-13.29,18.7-4.49.24-6.59.11-12.58-1.57-10.07-2.83-35.07-20.54-42.77-27.36C219.52,131,199.59,116.7,192,106Z"/><path class="cls-28" d="M282.59,162.12c-4.38.23-6.42.11-12.27-1.53-9.81-2.76-34.2-20-41.71-26.68-7.72-6.85-27.74-22.61-34.35-30.95A23.05,23.05,0,0,1,188,86c-1.16,7-.67,11.94,5,18.7,8.64,10.53,27.57,25.13,35.3,32,7.5,6.65,31.89,23.92,41.7,26.68,5.85,1.64,7.9,1.76,12.27,1.53C284.52,162.67,284.83,159.91,282.59,162.12Z"/><path class="cls-24" d="M240.65,87.39c16.13,9.5,38.68,21.7,51.26,32.08,7.76,6.4,11.2,11.95,12.7,15.27,1.68-3,2.69-4.9,2.69-4.9s-1.22-8.15-13.82-18.55-35.13-22.57-51.26-32.07c-17.61-10.38-39.31-17.3-50.94-4.09-3.12,3.54-5,9-5.18,14.45C187,87.18,196.47,61.37,240.65,87.39Z"/><path class="cls-29" d="M282.79,167s10.2-16.51,24-37.89l15.33,9-23.35,39.39Z"/><path class="cls-30" d="M68.35,97.46c-3.52-2.62-1.82,8.41-.38,11.23,2.68,5.24,9.32,8.08,14.35,8.34a66.72,66.72,0,0,0,13.2-.71,45.71,45.71,0,0,0,17-6.13c8.58-4.84,16.2-14.5,21.75-22.52,2.07-3,6.38-7.22,5.61-10.76a4,4,0,0,0-1-2.26s-1.65-2.22-1.55-2.16c-1.35-.94-.69-1-2.61-.26-2.62,1-4.38,3.77-6.1,5.85-2.69,3.24-5.6,6.27-8.3,9.49-5.43,6.47-4.38,5-11.7,8.94-7.54,4.09-21.46,5.94-26.6,5.94C79.65,102.45,75.79,103,68.35,97.46Z"/><path class="cls-31" d="M135.4,85c-5.75,8-13.63,17.69-22.52,22.52-6.64,3.62-10.14,4.78-17.59,6.13a70.74,70.74,0,0,1-13.67.71c-4.86-.24-11.17-2.73-14.25-7.32a9.68,9.68,0,0,0,.62,1.64c2.68,5.24,9.32,8.08,14.34,8.34a66,66,0,0,0,13.21-.71,45.71,45.71,0,0,0,17-6.13c8.58-4.83,16.2-14.5,21.75-22.52,1.6-2.31,4.54-5.37,5.43-8.28C138.38,81.36,136.56,83.34,135.4,85Z"/><path class="cls-32" d="M40.67,51.94s-.1,11.79.84,14.85c0,0,3.74,0,10.13-.34a72.1,72.1,0,0,1,22.18,2c9,2.47,16.51,7.31,26.66,8.49a73.54,73.54,0,0,0,19.1-2.13l11.56-34.67L112.5,37.08Z"/><path class="cls-33" d="M42,66.56s3.73,0,10.12-.35a72.17,72.17,0,0,1,22.19,2c8.94,2.47,16.51,7.31,26.65,8.49a73.73,73.73,0,0,0,19.1-2.12"/><path class="cls-27" d="M123.82,43c1.7,2,2.13,7.55.24,13.92-7,23.69-23.31,40-19,42.14,7.55,3.77,28.13-2.25,35.54-6.29C147.57,89,170.75,78,173.35,67c2.52-10.69,2.38-27-.63-37.42-2.9-10-11.32-17.61-24.21-17.92-16.76-.41-28.87,3.85-45,8.49C94,22.86,54.94,36.8,44.11,46.51c-1.57,1.41-3.29,4-3.44,5.43C40.67,51.94,122.59,41.51,123.82,43Z"/><path class="cls-24" d="M124.66,54.56c-.17.76-.37,1.54-.6,2.33-7,23.69-23.31,40-19,42.14l.35.15c3.81-7.08,13.11-19.91,18-36.32A27.63,27.63,0,0,0,124.66,54.56Z"/><path class="cls-24" d="M102.91,26.07c16.1-4.64,28.21-8.9,45-8.49,12.89.32,21.31,7.87,24.21,17.93,2.1,7.26,2.8,17.41,2.18,26.51,1.49-10.34,1-23.58-1.55-32.49-2.9-10-11.32-17.61-24.21-17.92-16.76-.41-28.87,3.85-45,8.49C94,22.86,54.94,36.8,44.11,46.51c-1.57,1.41-3.29,4-3.44,5.43l4.1-.52C57.1,41.78,93.68,28.73,102.91,26.07Z"/><path class="cls-25" d="M44.11,47.93C54.94,38.21,94,24.27,103.54,21.51c16.1-4.64,28.21-8.9,45-8.49,12.89.32,21.31,7.87,24.21,17.93A50.22,50.22,0,0,1,173.88,36a52.75,52.75,0,0,0-1.39-6.47c-2.9-10-11.32-17.61-24.22-17.92-16.76-.41-28.87,3.85-45,8.49-9.58,2.76-48.6,16.7-59.44,26.41-1.57,1.41-3.29,4-3.44,5.43l.75-.1A14.07,14.07,0,0,1,44.11,47.93Z"/><path class="cls-27" d="M75.87,36.76c7.53-5.2,22.11-16.9,30.26-21.33,9.09-4.92,12.18-6.73,22.57-11.77,3.29-1.6,9.75-4.95,9.7-2.72.6,5.14-3.51,19.17-5.06,27"/><path class="cls-24" d="M138.4,1c0-2.23-6.41,1.11-9.71,2.71-10.38,5.05-13.62,6.61-22.57,11.78-12.48,7.22-25.22,16-33.71,24l9.28-3.54c7.25-5.4,21.31-14.6,26.8-17.69,3.78-2.12,6.67-3.81,17.06-8.86,3.29-1.6,9.75-4.94,9.7-2.71.48,4.1-2,13.86-3.87,21.6l2-.3C134.89,20.15,139,6.12,138.4,1Z"/><path class="cls-25" d="M106.12,16.65c8.95-5.18,12.19-6.73,22.57-11.78,3.3-1.6,9.75-4.94,9.71-2.71,0,.15,0,.31,0,.48a12.79,12.79,0,0,0,0-1.9c0-2.23-6.41,1.12-9.71,2.72-10.38,5-13.62,6.6-22.57,11.77-12.48,7.23-25.22,16-33.71,24l2.7-1C83.47,30.85,94.89,23.14,106.12,16.65Z"/><rect class="cls-16" x="134.84" y="43.66" width="23.82" height="5.19" rx="2.59" transform="translate(-5.2 70.46) rotate(-26.55)"/><rect class="cls-16" x="138.43" y="50.83" width="23.82" height="5.19" rx="2.59" transform="translate(-8.03 72.82) rotate(-26.55)"/><path class="cls-24" d="M156.23,44.42a2.61,2.61,0,0,0,1.34-1.65,2.53,2.53,0,0,1-1.16,1.17l-16.67,8.33a2.58,2.58,0,0,1-3.65-3,2.59,2.59,0,0,0,3.48,3.47Z"/><path class="cls-24" d="M160,51.12l-16.66,8.33a2.59,2.59,0,0,1-3.48-1.17,2.52,2.52,0,0,1-.18-1.82,2.59,2.59,0,0,0,3.48,3.46l16.67-8.33a2.54,2.54,0,0,0,1.33-1.65A2.59,2.59,0,0,1,160,51.12Z"/><circle class="cls-25" cx="208.26" cy="72.46" r="2.36"/><circle class="cls-25" cx="214.39" cy="73.63" r="1.65"/><circle class="cls-25" cx="221.23" cy="76.46" r="0.94"/><polygon class="cls-25" points="303.86 133.62 318.95 142.74 322.17 138.02 306.84 129.06 303.86 133.62"/><path class="cls-34" d="M93.64,164.67c3.17-.83,6.53-2.17,9.78-2.82,4-.8,6.65,1.54,8.79,4.94a36.3,36.3,0,0,1,3.12,7.39c.8,2.67,1.81,5.82,3,8.92a104.65,104.65,0,0,1,5,16.19c1,4.67-5.55,6.77-9,8.68-6-5.84-13.82-20.54-16.68-28.44C95.2,172.77,94.3,172,93.64,164.67Z"/><ellipse class="cls-35" cx="103.86" cy="171.12" rx="4.56" ry="2.67" transform="translate(-44.54 36.78) rotate(-16.59)"/><ellipse class="cls-36" cx="106.76" cy="178.98" rx="4.56" ry="2.67" transform="translate(-46.66 37.94) rotate(-16.59)"/><ellipse class="cls-37" cx="109.99" cy="186.84" rx="4.56" ry="2.67" transform="translate(-48.77 39.18) rotate(-16.59)"/><path class="cls-28" d="M148.51,154.45c14-12.1,43.69-32.69,50.31-39.31L198,114c-.9.63-1.82,1.16-2.55,1.72-6.09,4.73-12.9,9.6-18.47,13.8-9.63,7.27-18.17,12.61-26.92,19.17-5.24,3.94-9.05,6.92-10.75,13.38-1.34,5.13-1.07,9.88-1.07,15.11l.71,4.48c.49,1.39,1,2.51,1.41,4,1.84,6.78,2.6,11.32,4.44,21.41.86,4.73.95,10.54-1.49,14.8s-7.41,8.21-11.79,10.37c-.21.11-.43.2-.64.3a8.4,8.4,0,0,0,4.35,2.55s7.24,1.49,14.8-15.7c0,0,3.07-6.61-9.24-53.07C140.76,166.32,140.82,161.1,148.51,154.45Z"/><path class="cls-15" d="M149.81,218.33c-4.13,9.37-8.88,12.76-11.95,13.68s-6.84.63-7.05.73a9.32,9.32,0,0,0,4.55,2.72s7,1.32,14.6-15.87Z"/><path class="cls-18" d="M118.84,196c-15.84,6.54-29.39,20.37-38.22,34.94-1.46,2.42-5.3,9.2-2.36,11.61,2.79,1.6,5.92-1.62,8.1-.21s2.16,5.29,5.13,5.9c2.49.52,5.51-1.78,7.94-2.47,5.21-1.49,6.63-.5,9.14,2.33,4.23,4.76,12.74,9,14.15,1.58,1.26-6.61.64-16.52,2.46-23.38,1.13-4.27,1.92-8.39,3.54-12.46,1.25-3.12,2.68-7.42,4.65-10.06,1.44-1.93,3.09-2.51,4.88-4.25Z"/><path class="cls-19" d="M94,214.59c-2,2.57-6.24,4.5-9,6.1-1.75,1-7.22,3.24-5.91,6.23,1,2.27,4.36,1.65,6.27,1.82"/><path class="cls-19" d="M90.46,247.82c.41-1.06.84-2.11,1.29-3.12,1.52-3.49,4.27-9.78,6.13-13.13,3.13-5.61,5.5-11,8-14.14q5.5-6.87,10.79-13.9a57.9,57.9,0,0,1,6.09-6.64l.16-.16-4.1-.75c-15.84,6.54-29.39,20.37-38.22,34.94-1.46,2.42-5.3,9.2-2.36,11.61,2.79,1.6,5.92-1.62,8.1-.21C88.34,243.58,88.51,246.63,90.46,247.82Z"/><path class="cls-38" d="M140.76,166.79c-.28,14.68-17.69,20.23-26.13,28.07-2.1,1.95-16.91,14.12-17.92,15.87,2.18-.63,7.5-5.3,8.72-3.5,1.37,2-.88,5.07-.6,7.35,3,.37,4.77-1.34,7.47-1.25.15,2.82-1.19,8.52,3.36,7.57,1.72-.36,1.91-1.09,5.74-4,.59-.45-.21,5.16,1,5.74,3.22,1.47,8-11.54,8.14-12,1-2.74,13.58-11.22,20.89-18.39,6.16-6,11.73-17.76,9.93-27.77-1.11-6.2-6.2-12.15-10.37-11.48C147.09,153.59,140.88,161.05,140.76,166.79Z"/><path class="cls-15" d="M82,228.65c0-.07,1.45-3,.08-2.88a3.64,3.64,0,0,1-2.73-1.23,2.32,2.32,0,0,0-.29,2.34C79.36,227.58,79.87,228.5,82,228.65Z"/><path class="cls-15" d="M151.41,188.64c-7.32,7.17-18.52,13.55-21.83,18.62-4.61,7.05-4.62,13-5.36,15.79-1.82,6.86-.21,17.13-1.47,23.74-1.42,7.44-9.93,3.18-14.15-1.58-2.52-2.83-3.94-3.82-9.14-2.33-2.43.7-5.46,3-7.95,2.47a3.11,3.11,0,0,1-1-.4h0a3.19,3.19,0,0,1-.64-.51l0,0a2.85,2.85,0,0,1-.23-.26l-.06-.07-.21-.28a.56.56,0,0,1,0-.08,3.28,3.28,0,0,1-.2-.31l0,0c-.38-.64-.69-1.35-1.06-2l0,0-.21-.36-.07-.12-.19-.27-.09-.13a2.54,2.54,0,0,0-.2-.24.69.69,0,0,0-.11-.13l-.22-.23-.12-.1a2.57,2.57,0,0,0-.37-.28,2.06,2.06,0,0,0-.42-.21,3.87,3.87,0,0,0-2.37.08l-.52.15-1,.32a7,7,0,0,1-2.15.33,3.76,3.76,0,0,1-.66-.1,3.3,3.3,0,0,1-.94-.36l0,0a2.69,2.69,0,0,1-.63-.8,3.69,3.69,0,0,1-.23-.58,8.52,8.52,0,0,0-.16,1,4.39,4.39,0,0,0,.39,2.44,2.69,2.69,0,0,0,.63.8l0,0a3.3,3.3,0,0,0,.94.36,3.76,3.76,0,0,0,.66.1,7,7,0,0,0,2.15-.33l1-.32.52-.15a3.87,3.87,0,0,1,2.37-.08,2.06,2.06,0,0,1,.42.21,2.57,2.57,0,0,1,.37.28l.12.1.22.23a.69.69,0,0,1,.11.13,2.54,2.54,0,0,1,.2.24l.09.13.19.27.07.12.21.36,0,0c.37.67.68,1.38,1.06,2l0,.05a3.28,3.28,0,0,0,.2.31.56.56,0,0,0,0,.08l.21.28.06.07a2.85,2.85,0,0,0,.23.26l0,0a3.19,3.19,0,0,0,.64.51h0a3.11,3.11,0,0,0,1,.4c2.49.52,5.52-1.77,7.95-2.47,5.2-1.49,6.62-.5,9.14,2.33,4.22,4.76,13.51,10,14.93,2.54,1.26-6.6,1.66-9.21,2.35-19.64a54.86,54.86,0,0,1,1.51-11.31c.45-2.93,3.11-8.8,3.21-9.07,1-2.74,13.58-11.22,20.9-18.39,5.63-5.51,10.77-15.82,10.22-25.21C161.24,175.53,156.48,183.68,151.41,188.64Z"/><path class="cls-22" d="M105.45,207.25c.77,1.13.4,2.58,0,4,1.28-1.41,2.59-2.79,3.95-4.1,9.37-9.1,20.7-15.18,30-24.33,3.62-3.55,6.73-7.6,8.3-12.32,1-3.2,3-11.76,2.56-17.42-5.66,3.14-9.35,8.3-9.45,13.69-.29,14.68-17.69,20.23-26.14,28.07-2.1,2-16.91,14.12-17.92,15.87C98.91,210.12,104.23,205.45,105.45,207.25Z"/><path class="cls-19" d="M100.24,242.46c2.16-3.86,3.73-8.49,7.19-11.66,1.27-1.16,3.86-3.85,5.61-2.18s1.2,6.16,1.19,8.14c0,3.87-1.9,7.58-1.88,11.32a45,45,0,0,0-.31-4.59c-.22-1.48-.19-4.36-1.42-5.5-2.53-2.39-7.82,2.72-9.42,4.4C101.45,242.37,101.37,242.25,100.24,242.46Z"/><path class="cls-39" d="M9.13,79.92c3.31,1.62,12.64,1.53,19.87,1.29,4.77-.16,16.72-.91,25.24,0,6.69.68,13.67,2.48,20.39,1.42,1.86-.29,11.43-4.94,8.28-8-3,.63-5.56,3.81-8.37,5-3.77,1.57-11.33.28-16.2-.19a144.28,144.28,0,0,0-17.13-.58c-7.21,0-10.23.47-19.09,1-2.83.17-6.9.09-9.75,0a11.48,11.48,0,0,1-5.11-1.34A4.68,4.68,0,0,0,9.13,79.92Z"/><path class="cls-39" d="M47.65,86.84s17.45,1.89,24.29,5.9c0,0,5.61,4.34,5.14,9.29a27.3,27.3,0,0,1-9.21-4.89S59.06,89.37,47.65,86.84Z"/><path class="cls-25" d="M224.36,69c-.48-.51-1-1.07-1.57-1.78-.79-1-2.29-3.51-2.83-4.39a34.1,34.1,0,0,0,3.31,5.73c.32.47,1.44,2,.76,2.38a4.23,4.23,0,0,1-2,.36c-1.32,0-3,.06-4.32.06-2.24,0-4.48.09-6.7.25,5.73.06,8.33.14,10.25.28,1.74.13,2.3.61,2.48.88a2,2,0,0,1,.05,1.76,42.29,42.29,0,0,1-2.47,5.23,36.09,36.09,0,0,0-1.46,3.36,21.29,21.29,0,0,1,1.44-2.68c.73-1.16,1.07-1.86,1.89-3a4.14,4.14,0,0,1,3.89-2,3,3,0,0,1,2,1.89,25.56,25.56,0,0,1,1.31,3.22c.28.78,1.12,4,1.35,4.57-.29-1.42-.72-3.38-.89-4.06-.34-1.34-.7-2.84-1-4.18a6.46,6.46,0,0,1-.21-3.62c.59-2,3.27-3.28,4.93-4.21,1.48-.83,2.6-1.39,4.6-2.44-2.95,1.32-5.12,2.29-7.86,3.55a4.44,4.44,0,0,1-2.52.43,1.24,1.24,0,0,1-.67-1.3,16.83,16.83,0,0,1,.44-3.15c.2-1,.84-4.74,1-5.4-.72,2.61-.89,3.13-1.7,6.4a8,8,0,0,1-1.12,2.89C226.32,70.49,225.5,70.17,224.36,69Z"/><path class="cls-25" d="M285.93,118l-25.55-10.14s-5.83-2.48-6.37.45c0,0-.6,1.3,1.62,3l23.85,15.44-3.45-5,7.86.39-6.76-4.32Z"/><circle class="cls-25" cx="144.58" cy="14.67" r="1.18"/><circle class="cls-25" cx="150.71" cy="16.09" r="1.42"/><circle class="cls-25" cx="158.73" cy="19.63" r="1.89"/><path class="cls-15" d="M234,228.31c.94,1.94,5.14,7.91,7,13.69a44.27,44.27,0,0,1,1.57,9.78c.65,11.76-5,20.22-15,26-4.6,2.64-31.33,13.26-28.09,1.27-2.76,1.62-17.17,5.94-13.42-1.65-2.86.1-8.82,2.82-11.81,1-2-1.2-.94-3.36,1.16-4.64-2.37,2.06-7.2,3.05-8.18,1.44-1.08-7.18,16.66-12,21.59-14.46,8.24-4,24.57-10.52,24.93-20.93,2,.57,7.73,3.48,6.74-1.38,1.42.41,5.46,2.6,6.62.86.32-.48-.36-3.32-.41-4,2.12.91,5.76,4.16,7.72,1.5C236,234.51,234.64,230.62,234,228.31Z"/><path class="cls-40" d="M233.31,226.58c.94,1.93,5.14,7.9,7,13.69a44.18,44.18,0,0,1,1.57,9.78c.65,11.76-5,20.21-15,26-4.6,2.64-31.33,13.27-28.09,1.27-2.77,1.62-17.17,5.94-13.42-1.64-2.86.1-8.83,2.82-11.81,1-2-1.21-.95-3.37,1.16-4.65-2.38,2.07-7.2,3.05-8.18,1.44-1.08-7.18,16.66-12,21.59-14.45,8.24-4.05,24.57-10.52,24.92-20.94,2,.57,7.74,3.48,6.74-1.37,1.43.41,5.47,2.6,6.63.86.32-.49-.36-3.32-.41-4,2.12.9,5.76,4.15,7.72,1.49C235.38,232.78,234,228.88,233.31,226.58Z"/><path class="cls-41" d="M167.8,270c3-.14,5.27,0,8.07-.86-1.79,6.58,5.8,3.88,9.76,3.15a6.42,6.42,0,0,0,.1,3.68c4.65,1.94,9.81-1.95,14.37-2.74-1,11.61,13.27,3.13,17.82-1.61,5.61-5.83,7.78-15.69-1.49-18.79a32.44,32.44,0,0,0-14.18-1c-4.93,3.11-10.55,5.53-14.4,7.42s-15.9,5.38-20.14,10.32A3.15,3.15,0,0,1,167.8,270Z"/><circle class="cls-27" cx="256.91" cy="109.18" r="0.98"/><circle class="cls-11" cx="320.31" cy="173.1" r="4.07"/><circle class="cls-10" cx="330.48" cy="153.21" r="3.45"/><circle class="cls-12" cx="331.28" cy="171.86" r="3.45"/><circle class="cls-11" cx="331.6" cy="167.77" r="1.57"/><circle class="cls-12" cx="321.07" cy="164.24" r="1.57"/><circle class="cls-11" cx="353.44" cy="180.42" r="1.57"/><circle class="cls-42" cx="346.56" cy="183.73" r="1.57"/><circle class="cls-6" cx="337.25" cy="166.23" r="1.57"/><circle class="cls-10" cx="322.45" cy="146.39" r="1.57"/><circle class="cls-43" cx="334.13" cy="158.47" r="1.57"/><circle class="cls-6" cx="328.37" cy="146.28" r="1.57"/><circle class="cls-43" cx="335.26" cy="171.98" r="1.57"/><circle class="cls-43" cx="313.14" cy="178.65" r="1.57"/><circle class="cls-43" cx="330.6" cy="195.11" r="1.57"/><circle class="cls-43" cx="341.91" cy="174.2" r="1.57"/><circle class="cls-6" cx="342.35" cy="182.18" r="1.57"/><circle class="cls-6" cx="343.5" cy="193.79" r="1.06"/><circle class="cls-6" cx="356.81" cy="207.47" r="1.06"/><circle class="cls-42" cx="352.37" cy="223.32" r="1.06"/><circle class="cls-42" cx="383.48" cy="292.31" r="1.06"/><circle class="cls-1" cx="352.05" cy="214.49" r="1.06"/><circle class="cls-42" cx="348.34" cy="195.32" r="1.06"/><circle class="cls-44" cx="360.31" cy="192.43" r="1.06"/><circle class="cls-42" cx="342.13" cy="158.74" r="1.06"/><circle class="cls-42" cx="314.42" cy="161.62" r="1.06"/><circle class="cls-42" cx="356.32" cy="169.16" r="1.06"/><circle class="cls-42" cx="361.9" cy="272.42" r="1.06"/><circle class="cls-42" cx="347.27" cy="277.3" r="1.06"/><circle class="cls-25" cx="340.09" cy="176.72" r="1.06"/><circle class="cls-3" cx="345.46" cy="167.6" r="1.06"/><circle class="cls-42" cx="347.89" cy="176.25" r="1.06"/><circle class="cls-6" cx="361.2" cy="216.16" r="1.06"/><circle class="cls-42" cx="323.44" cy="185.97" r="1.06"/><circle class="cls-42" cx="306.88" cy="170.27" r="1.06"/><circle class="cls-42" cx="336.2" cy="176.58" r="1.06"/><circle class="cls-44" cx="364.36" cy="204.93" r="1.06"/><circle class="cls-44" cx="421.98" cy="277.08" r="1.06"/><circle class="cls-42" cx="354.97" cy="203.24" r="1.06"/><circle class="cls-42" cx="335.26" cy="193.21" r="1.06"/><circle class="cls-42" cx="356.1" cy="197.53" r="1.06"/><circle class="cls-42" cx="333.51" cy="181.59" r="1.06"/><circle class="cls-42" cx="342.58" cy="179.24" r="1.06"/><circle class="cls-42" cx="328.15" cy="171.34" r="1.06"/><circle class="cls-42" cx="371.39" cy="216.38" r="1.06"/><circle class="cls-42" cx="326.83" cy="181.35" r="1.06"/><circle class="cls-6" cx="370.95" cy="240.23" r="1.06"/><circle class="cls-6" cx="373.4" cy="280.15" r="1.06"/><circle class="cls-6" cx="337.59" cy="187.13" r="1.06"/><circle class="cls-6" cx="337.59" cy="159.52" r="1.06"/><circle class="cls-6" cx="336.92" cy="154.2" r="1.06"/><circle class="cls-6" cx="335.08" cy="197.82" r="1.06"/><circle class="cls-45" cx="321.78" cy="192.28" r="1.06"/><circle class="cls-6" cx="326.88" cy="201.92" r="1.06"/><circle class="cls-6" cx="320.63" cy="188.13" r="1.06"/><circle class="cls-6" cx="325.99" cy="177.2" r="1.06"/><circle class="cls-6" cx="317.55" cy="170.6" r="1.06"/><circle class="cls-6" cx="311.69" cy="172.11" r="1.06"/><circle class="cls-6" cx="344.5" cy="185.96" r="1.06"/><circle class="cls-6" cx="347.83" cy="185.96" r="1.06"/><circle class="cls-46" cx="324.28" cy="169.76" r="1.57"/><circle class="cls-9" cx="325.38" cy="166.51" r="1.57"/><circle class="cls-6" cx="333.26" cy="186.61" r="1.57"/><circle class="cls-47" cx="324.62" cy="183.52" r="1.57"/><circle class="cls-6" cx="330.38" cy="176.19" r="1.57"/><circle class="cls-6" cx="328.22" cy="164.55" r="1.57"/><circle class="cls-6" cx="324.56" cy="155.74" r="1.57"/><circle class="cls-6" cx="324.62" cy="174.42" r="1.57"/><circle class="cls-6" cx="332.38" cy="162.45" r="1.57"/><circle class="cls-45" cx="338.58" cy="191.04" r="1.57"/><circle class="cls-6" cx="318.63" cy="183.29" r="1.57"/><circle class="cls-12" cx="307.99" cy="182.19" r="1.57"/><circle class="cls-6" cx="307.99" cy="177.3" r="1.57"/><circle class="cls-6" cx="313.31" cy="184.39" r="1.57"/><circle class="cls-11" cx="342.13" cy="204.36" r="1.57"/><circle class="cls-11" cx="317.63" cy="157.2" r="1.57"/><circle class="cls-48" cx="323.62" cy="178.98" r="3.76"/><circle class="cls-45" cx="338.47" cy="163.41" r="3.76"/><circle class="cls-49" cx="305.55" cy="174.22" r="3.76"/><circle class="cls-50" cx="326.61" cy="159.59" r="3.76"/><circle class="cls-51" cx="350.09" cy="192.54" r="2.82"/><circle class="cls-2" cx="349.92" cy="206.5" r="2.82"/><circle class="cls-2" cx="374.25" cy="269.77" r="2.82"/><circle class="cls-48" cx="314.86" cy="165.57" r="2.82"/><circle class="cls-5" cx="362.08" cy="185.96" r="2.19"/><circle class="cls-5" cx="386.12" cy="280.37" r="2.19"/><circle class="cls-5" cx="407.73" cy="279.09" r="2.19"/><circle class="cls-5" cx="327.94" cy="187.84" r="2.19"/><circle class="cls-6" cx="444.8" cy="281.07" r="2.19"/><circle class="cls-5" cx="333.26" cy="199.6" r="2.19"/><circle class="cls-52" cx="338.64" cy="183.09" r="1.06"/><circle class="cls-52" cx="340.14" cy="170.7" r="1.06"/><circle class="cls-52" cx="351.78" cy="187.03" r="1.06"/><circle class="cls-9" cx="342.02" cy="215.19" r="1.06"/><circle class="cls-42" cx="380.18" cy="273.8" r="1.06"/></g><g id="Layer_3" data-name="Layer 3"><text class="cls-53" transform="translate(200.22 90.88) rotate(37.51)">PU<tspan class="cls-54" x="25.43" y="0">L</tspan><tspan x="35.33" y="0">UMI U</tspan><tspan class="cls-55" x="89.64" y="0">P</tspan></text></g></g></svg>