<svg width="32" height="32" viewBox="0 0 32 32" fill="none" xmlns="http://www.w3.org/2000/svg">
<path fill-rule="evenodd" clip-rule="evenodd" d="M9.8015 2.00895C11.1836 1.90528 12.7555 2.71055 14.2885 3.98243C14.5484 4.19811 14.5843 4.58361 14.3687 4.84347C14.153 5.10333 13.7675 5.13917 13.5076 4.92361C12.0304 3.69783 10.7792 3.16197 9.89294 3.22837C9.66484 3.24545 9.46538 3.30039 9.28406 3.39271C8.80968 3.63443 8.42102 4.16215 8.19844 5.06763C7.97646 5.97059 7.94242 7.17093 8.1164 8.60353C8.19664 9.26419 8.32022 9.96711 8.48634 10.7036C9.82734 10.4939 11.2809 10.3602 12.8097 10.3121C14.2095 8.50703 15.6623 6.95381 17.0687 5.73103C19.1458 3.92497 21.2206 2.75259 22.9244 2.68799C23.5746 2.66327 24.193 2.79977 24.725 3.14537C25.5274 3.66643 25.9656 4.54765 26.1432 5.57471C26.3206 6.60103 26.2522 7.83815 25.9856 9.19505C25.9206 9.52645 25.5992 9.74225 25.2678 9.67715C24.9364 9.61207 24.7206 9.29069 24.7856 8.95929C25.0358 7.68635 25.0812 6.61047 24.9382 5.78309C24.7952 4.95633 24.478 4.44305 24.059 4.17099C23.7768 3.98779 23.419 3.89297 22.9708 3.90993C21.708 3.95795 19.9064 4.88407 17.8711 6.65381C16.7318 7.64455 15.5498 8.87271 14.3876 10.2935C15.0261 10.2988 15.6743 10.32 16.3301 10.3544C20.6314 10.5798 24.5178 11.4198 27.329 12.6161C28.7324 13.2131 29.8996 13.9123 30.7152 14.6945C31.529 15.4752 32.0496 16.3978 31.9962 17.4173C31.95 18.2977 31.4834 19.0653 30.7846 19.7019C30.0878 20.3364 29.1252 20.8756 27.984 21.3182C27.669 21.4404 27.3148 21.2842 27.1928 20.9694C27.0706 20.6546 27.2268 20.3002 27.5416 20.1782C28.6002 19.7675 29.4138 19.2961 29.961 18.7977C30.506 18.3015 30.7508 17.8144 30.775 17.3533C30.8028 16.8213 30.5406 16.2215 29.8686 15.5771C29.1984 14.9343 28.177 14.3058 26.8502 13.7413C24.2018 12.6144 20.463 11.7955 16.2661 11.5756C15.479 11.5343 14.707 11.5127 13.9537 11.5153C13.7766 11.5159 13.6005 11.5177 13.4255 11.5206C12.8716 12.2571 12.3264 13.0355 11.7969 13.8509C11.2669 14.6671 10.7773 15.4821 10.3298 16.2878C10.6897 17.1338 11.0903 17.9933 11.5308 18.8579C13.4388 22.6024 15.7089 25.6854 17.817 27.6472C18.873 28.63 19.8633 29.3078 20.7238 29.659C21.5864 30.0108 22.2414 30.0068 22.7158 29.7648C23.1722 29.5324 23.5486 29.0362 23.775 28.1918C24.0012 27.3476 24.056 26.225 23.9184 24.8786C23.6436 22.1904 22.6168 18.7448 20.8908 15.1587C20.7444 14.8544 20.8724 14.489 21.1768 14.3426C21.481 14.1962 21.8464 14.3241 21.9928 14.6284C23.762 18.3047 24.842 21.889 25.135 24.7542C25.281 26.1846 25.2346 27.4694 24.9562 28.5084C24.6778 29.5468 24.1456 30.4088 23.271 30.8546C22.3614 31.318 21.3064 31.2174 20.2618 30.7912C19.2149 30.3642 18.1008 29.582 16.9839 28.5426C14.7462 26.4602 12.3967 23.2508 10.4412 19.4131C10.1436 18.8289 9.86302 18.2457 9.60006 17.6663C8.50632 19.8397 7.7368 21.9052 7.32664 23.6878C7.00324 25.0932 6.91104 26.2892 7.03694 27.2094C7.1632 28.132 7.4942 28.6968 7.94074 28.9868C8.36536 29.2626 8.97264 29.3424 9.8001 29.1276C10.6278 28.9126 11.6085 28.4176 12.6872 27.6488C12.9622 27.4528 13.344 27.517 13.5399 27.792C13.7359 28.067 13.6718 28.4488 13.3968 28.6448C12.2489 29.4628 11.1309 30.0456 10.1073 30.3112C9.08352 30.577 8.08692 30.54 7.2747 30.0124C6.41848 29.4564 5.97826 28.4926 5.82536 27.3752C5.67212 26.2554 5.79282 24.9 6.13488 23.4134C6.62784 21.271 7.59692 18.7869 8.97534 16.2167C8.39682 14.799 7.92808 13.4166 7.57478 12.107C6.5363 12.314 5.5933 12.5705 4.76796 12.8683C3.6136 13.285 2.7206 13.7716 2.11854 14.2918C1.51795 14.8107 1.25026 15.3221 1.22497 15.8046C1.20088 16.2644 1.39279 16.7727 1.88106 17.3214C2.37146 17.8725 3.12886 18.4251 4.1351 18.9435C4.4353 19.0982 4.55326 19.4669 4.3986 19.7672C4.24392 20.0672 3.87516 20.1852 3.575 20.0306C2.4902 19.4717 1.59214 18.8364 0.967462 18.1343C0.340576 17.4298 -0.0423282 16.6195 0.00373961 15.7406C0.0521362 14.8172 0.562494 14.0201 1.31902 13.3664C2.07404 12.7141 3.11724 12.1639 4.3528 11.718C5.22508 11.4032 6.2088 11.1347 7.28128 10.9186C7.11252 10.1629 6.9858 9.43759 6.90242 8.75091C6.71842 7.23577 6.74086 5.87397 7.01088 4.77563C7.2803 3.67969 7.81918 2.76669 8.72888 2.30309C9.06658 2.13111 9.42566 2.03713 9.8015 2.00895ZM9.7482 14.8405C9.36456 13.8255 9.0428 12.8384 8.78438 11.895C9.7505 11.7476 10.7829 11.6403 11.8668 11.5779C11.4955 12.0968 11.1296 12.633 10.7713 13.1848C10.4127 13.7369 10.0715 14.2896 9.7482 14.8405Z" fill="#66595C"/>
<path d="M17.3965 18.0938C17.7405 17.7499 17.9337 17.2833 17.9337 16.7967C17.9337 16.3102 17.7405 15.8436 17.3965 15.4997C17.0524 15.1556 16.5859 14.9624 16.0994 14.9624C15.6129 14.9624 15.1463 15.1556 14.8023 15.4997C14.4583 15.8436 14.265 16.3102 14.265 16.7967C14.265 17.2833 14.4583 17.7499 14.8023 18.0938C15.1463 18.4379 15.6129 18.6311 16.0994 18.6311C16.5859 18.6311 17.0524 18.4379 17.3965 18.0938Z" fill="#66595C"/>
</svg>
