<svg id="Layer_1" data-name="Layer 1" xmlns="http://www.w3.org/2000/svg" xmlns:xlink="http://www.w3.org/1999/xlink" viewBox="0 0 32 32"><defs><style>.cls-1{fill:url(#linear-gradient);}.cls-2{fill:#0078d4;}.cls-3{fill:url(#linear-gradient-2);}.cls-4{fill:url(#linear-gradient-3);}</style><linearGradient id="linear-gradient" x1="14.067" y1="28.663" x2="4.269" y2="-0.281" gradientTransform="matrix(1, 0, 0, -1, 0, 31.89)" gradientUnits="userSpaceOnUse"><stop offset="0" stop-color="#114a8b"/><stop offset="1" stop-color="#0669bc"/></linearGradient><linearGradient id="linear-gradient-2" x1="17.127" y1="15.175" x2="14.861" y2="14.409" gradientTransform="matrix(1, 0, 0, -1, 0, 31.89)" gradientUnits="userSpaceOnUse"><stop offset="0" stop-opacity="0.3"/><stop offset="0.071" stop-opacity="0.2"/><stop offset="0.321" stop-opacity="0.1"/><stop offset="0.623" stop-opacity="0.05"/><stop offset="1" stop-opacity="0"/></linearGradient><linearGradient id="linear-gradient-3" x1="15.951" y1="29.534" x2="26.706" y2="0.882" gradientTransform="matrix(1, 0, 0, -1, 0, 31.89)" gradientUnits="userSpaceOnUse"><stop offset="0" stop-color="#3ccbf4"/><stop offset="1" stop-color="#2892df"/></linearGradient></defs><path class="cls-1" d="M10.628,1h9.434L10.269,30.017a1.506,1.506,0,0,1-1.425,1.024H1.5A1.5,1.5,0,0,1,.079,29.059L9.2,2.024A1.5,1.5,0,0,1,10.628,1Z"/><path class="cls-2" d="M24.337,20.463H9.377a.693.693,0,0,0-.473,1.2l9.613,8.972a1.5,1.5,0,0,0,1.032.406H28.02Z"/><path class="cls-3" d="M10.628,1A1.492,1.492,0,0,0,9.2,2.043L.09,29.034a1.5,1.5,0,0,0,1.416,2.007H9.038a1.614,1.614,0,0,0,1.235-1.051l1.817-5.354,6.489,6.052a1.536,1.536,0,0,0,.966.353h8.439l-3.7-10.578-10.79,0L20.1,1Z"/><path class="cls-4" d="M22.678,2.022A1.5,1.5,0,0,0,21.255,1H10.741a1.5,1.5,0,0,1,1.423,1.022l9.124,27.036a1.5,1.5,0,0,1-1.423,1.983H30.38A1.5,1.5,0,0,0,31.8,29.058Z"/></svg>