<svg width="184" height="50" viewBox="0 0 184 50" fill="none" xmlns="http://www.w3.org/2000/svg">
<path d="M81.2399 1.78003L75.9999 14.56C75.7899 15.05 75.5199 15.8 75.1799 16.81H75.1199C74.9056 16.0625 74.6485 15.328 74.3499 14.61L69.1999 1.78003H64.6299V21H67.6299V8.61003C67.6299 6.86003 67.6299 5.61003 67.5099 4.84003H67.5699C67.6903 5.48993 67.8642 6.12877 68.0899 6.75003L73.9999 21H76.2399L81.9999 6.65003C82.2222 6.05674 82.4027 5.44858 82.5399 4.83003H82.5899C82.4599 6.31003 82.3899 7.56003 82.3899 8.58003V21H85.6199V1.78003H81.2399Z" fill="#737373"/>
<path d="M91.6999 0.860006C91.207 0.850043 90.7298 1.03305 90.3699 1.37C90.1961 1.53276 90.0576 1.72945 89.9629 1.9479C89.8682 2.16635 89.8193 2.40191 89.8193 2.64C89.8193 2.8781 89.8682 3.11366 89.9629 3.33211C90.0576 3.55056 90.1961 3.74725 90.3699 3.91C90.7345 4.23699 91.2103 4.41228 91.6999 4.40001C92.2046 4.40897 92.694 4.22679 93.0699 3.89C93.2459 3.73064 93.3865 3.53619 93.4827 3.31918C93.579 3.10216 93.6287 2.8674 93.6287 2.63001C93.6287 2.39261 93.579 2.15785 93.4827 1.94084C93.3865 1.72382 93.2459 1.52937 93.0699 1.37C92.694 1.03322 92.2046 0.851042 91.6999 0.860006" fill="#737373"/>
<path d="M93.2801 7.29004H90.1101V21.04H93.2801V7.29004Z" fill="#737373"/>
<path d="M98.58 8.99996C97.8857 9.72339 97.346 10.5805 96.9935 11.5192C96.6411 12.4578 96.4834 13.4584 96.5299 14.46C96.4864 15.38 96.6336 16.2992 96.9623 17.1596C97.291 18.0201 97.7941 18.8033 98.44 19.46C99.099 20.1032 99.8823 20.6053 100.742 20.9354C101.602 21.2656 102.52 21.4168 103.44 21.38C104.838 21.4066 106.219 21.0615 107.44 20.38V17.7C106.533 18.4597 105.393 18.8835 104.21 18.9C103.619 18.923 103.029 18.8249 102.477 18.6117C101.925 18.3985 101.422 18.0746 101 17.66C100.584 17.2073 100.262 16.676 100.054 16.0972C99.8466 15.5185 99.7567 14.904 99.7899 14.29C99.7357 12.9997 100.196 11.7408 101.07 10.79C101.496 10.3484 102.01 10.0011 102.578 9.77026C103.146 9.53946 103.757 9.43035 104.37 9.44996C105.497 9.45851 106.59 9.83806 107.48 10.53V7.62996C106.417 7.17193 105.268 6.94689 104.11 6.96997C103.101 6.92157 102.093 7.07927 101.148 7.43346C100.202 7.78764 99.3386 8.33087 98.6099 9.02996" fill="#737373"/>
<path d="M117.39 7.05008C116.599 7.05023 115.835 7.33813 115.24 7.86009C114.557 8.46545 114.061 9.25288 113.81 10.1301H113.76V7.29009H110.59V21.0001H113.76V14.4601C113.692 13.2575 114.023 12.0661 114.7 11.0701C114.959 10.685 115.309 10.3695 115.719 10.1516C116.129 9.93357 116.586 9.81974 117.05 9.82008C117.634 9.77837 118.215 9.93326 118.7 10.2601V7.31009C118.292 7.11426 117.842 7.02481 117.39 7.05008" fill="#737373"/>
<path d="M127.51 7.00002C126.518 6.95718 125.526 7.11191 124.594 7.45524C123.662 7.79858 122.808 8.32366 122.08 9.00002C121.39 9.71416 120.856 10.5638 120.512 11.495C120.168 12.4263 120.021 13.4189 120.08 14.41C120.047 15.3343 120.199 16.2559 120.529 17.12C120.859 17.9841 121.359 18.7731 122 19.44C122.686 20.0953 123.498 20.6042 124.387 20.936C125.275 21.2678 126.222 21.4154 127.17 21.37C128.143 21.4413 129.119 21.3025 130.033 20.9631C130.947 20.6238 131.778 20.0917 132.469 19.4031C133.159 18.7145 133.693 17.8855 134.035 16.9722C134.377 16.0589 134.519 15.0828 134.45 14.11C134.505 13.1576 134.372 12.2035 134.058 11.3026C133.744 10.4017 133.255 9.57166 132.62 8.86002C131.943 8.21409 131.139 7.71537 130.26 7.39526C129.38 7.07515 128.444 6.94058 127.51 7.00002V7.00002ZM130.2 17.7C129.847 18.1128 129.404 18.4379 128.904 18.6496C128.404 18.8614 127.862 18.9539 127.32 18.92C126.772 18.9435 126.225 18.8443 125.72 18.6298C125.215 18.4153 124.764 18.0908 124.4 17.68C123.631 16.7195 123.242 15.5089 123.31 14.28C123.235 13.015 123.618 11.7653 124.39 10.76C124.748 10.3371 125.199 10.0019 125.706 9.78004C126.214 9.55817 126.766 9.45554 127.32 9.48002C127.864 9.44694 128.407 9.5419 128.908 9.75727C129.408 9.97264 129.85 10.3024 130.2 10.72C130.928 11.7358 131.282 12.9728 131.2 14.22C131.283 15.4612 130.929 16.6922 130.2 17.7" fill="#737373"/>
<path d="M145.69 14.6599C145.324 14.3192 144.914 14.0298 144.47 13.7999C143.94 13.5299 143.4 13.2799 142.86 13.0699L141.64 12.6499C141.329 12.5304 141.028 12.3867 140.74 12.2199C140.511 12.082 140.316 11.894 140.17 11.6699C140.045 11.4401 139.983 11.1814 139.99 10.9199C139.983 10.6838 140.046 10.4509 140.17 10.2499C140.309 10.0413 140.494 9.86696 140.71 9.73993C140.965 9.57972 141.246 9.46471 141.54 9.39992C141.894 9.31605 142.256 9.27575 142.62 9.27992C143.826 9.25901 145.009 9.608 146.01 10.2799V7.54992C144.898 7.14626 143.722 6.94968 142.54 6.96992C141.825 6.97137 141.114 7.05866 140.42 7.22992C139.774 7.39538 139.157 7.65841 138.59 8.00992C138.074 8.33616 137.636 8.77343 137.31 9.28992C136.984 9.81449 136.817 10.4224 136.83 11.0399C136.821 11.5199 136.899 11.9975 137.06 12.4499C137.215 12.8525 137.45 13.2198 137.75 13.5299C138.086 13.8725 138.474 14.1594 138.9 14.3799C139.402 14.6501 139.92 14.8905 140.45 15.0999L141.71 15.5499C142.058 15.668 142.394 15.8222 142.71 16.0099C142.969 16.1574 143.197 16.3544 143.38 16.5899C143.544 16.8239 143.628 17.1044 143.62 17.3899C143.62 18.4999 142.67 19.0599 140.75 19.0599C139.335 19.0647 137.959 18.5966 136.84 17.7299V20.6199C138.104 21.1522 139.469 21.4046 140.84 21.3599C141.6 21.3635 142.358 21.283 143.1 21.1199C143.767 20.971 144.406 20.7143 144.99 20.3599C145.522 20.0392 145.971 19.5972 146.3 19.0699C146.64 18.5211 146.814 17.8854 146.8 17.2399C146.815 16.7322 146.719 16.2273 146.52 15.7599C146.342 15.3414 146.076 14.9662 145.74 14.6599" fill="#737373"/>
<path d="M156.31 7.00006C155.317 6.95554 154.326 7.1095 153.394 7.45292C152.461 7.79634 151.607 8.32232 150.88 9.00006C150.188 9.71278 149.653 10.5622 149.309 11.4938C148.964 12.4254 148.818 13.4187 148.88 14.4101C148.839 15.3481 148.989 16.2846 149.321 17.1629C149.653 18.0413 150.159 18.8432 150.81 19.5201C151.505 20.1635 152.323 20.6592 153.215 20.9772C154.107 21.2952 155.055 21.4288 156 21.3701C157.424 21.3153 158.804 20.8596 159.98 20.0554C161.157 19.2513 162.083 18.1313 162.651 16.8244C163.219 15.5175 163.407 14.0767 163.193 12.6678C162.979 11.2589 162.371 9.93901 161.44 8.86006C160.767 8.20954 159.966 7.7057 159.088 7.38039C158.21 7.05507 157.275 6.91536 156.34 6.97007L156.31 7.00006ZM159 17.6701C158.647 18.0828 158.204 18.4079 157.704 18.6197C157.204 18.8314 156.662 18.924 156.12 18.8901C155.572 18.9128 155.025 18.8134 154.52 18.5989C154.015 18.3844 153.564 18.0603 153.2 17.6501C152.431 16.6895 152.043 15.4789 152.11 14.2501C152.035 12.985 152.419 11.7354 153.19 10.7301C153.549 10.3083 154 9.97393 154.507 9.75216C155.015 9.53039 155.567 9.42708 156.12 9.45007C156.664 9.41699 157.207 9.51195 157.708 9.72731C158.208 9.94268 158.65 10.2724 159 10.6901C159.728 11.7058 160.082 12.9428 160 14.1901C160.083 15.4312 159.729 16.6623 159 17.6701" fill="#737373"/>
<path d="M168.91 1.62997C168.428 2.05782 168.048 2.58775 167.798 3.18113C167.547 3.77451 167.431 4.41639 167.46 5.05997V7.28997H165.07V9.73997H167.46V21H170.63V9.73997H173.87V7.28997H170.62V5.42997C170.62 3.70997 171.39 2.85997 172.93 2.85997C173.439 2.85408 173.942 2.97797 174.39 3.21997V0.629969C173.789 0.43971 173.16 0.355123 172.53 0.379969C171.21 0.331838 169.919 0.777516 168.91 1.62997" fill="#737373"/>
<path d="M180.18 3.21997L177.01 4.10997V7.28997H174.68V9.73997H177V17.51C177 20.07 178.36 21.36 181.07 21.36C181.911 21.3906 182.748 21.2335 183.52 20.9V18.42C183.121 18.7312 182.626 18.8938 182.12 18.88C181.847 18.9073 181.572 18.8749 181.313 18.7851C181.054 18.6953 180.817 18.5502 180.62 18.36C180.273 17.8494 180.114 17.2345 180.17 16.62V9.73997H183.52V7.28997H180.17L180.18 3.21997Z" fill="#737373"/>
<path d="M71.9999 29.71L64.6299 49H68.1799L69.8799 44.1H77.5799L79.3399 49H82.8999L75.6299 29.74L71.9999 29.71ZM70.7599 41.46L73.4499 33.78C73.5761 33.385 73.6698 32.9803 73.7299 32.57H73.7799C73.8384 32.9788 73.9253 33.3831 74.0399 33.78L76.7599 41.46H70.7599Z" fill="#737373"/>
<path d="M84.3301 37.65H91.3101L83.5901 47.8V48.97H95.5501V46.54H88.0301L95.5801 36.52V35.22H84.3301V37.65Z" fill="#737373"/>
<path d="M107.29 43.1299C107.331 44.1024 107.007 45.0551 106.38 45.7999C106.09 46.124 105.734 46.3813 105.335 46.5539C104.936 46.7266 104.505 46.8105 104.07 46.7999C102.123 46.7999 101.15 45.5633 101.15 43.0899V35.1899H98V43.4199C98 47.3199 99.66 49.2699 103 49.2699C103.88 49.311 104.753 49.0969 105.514 48.6534C106.275 48.2098 106.892 47.5558 107.29 46.7699H107.34V48.9999H110.51V35.2099H107.34L107.29 43.1299Z" fill="#737373"/>
<path d="M121.39 35.0001C120.598 35.0039 119.834 35.2953 119.24 35.8201C118.558 36.4216 118.061 37.2058 117.81 38.0801H117.76V35.2101H114.59V49.0001H117.76V42.3901C117.692 41.1844 118.023 39.9898 118.7 38.9901C118.961 38.6068 119.311 38.2928 119.721 38.075C120.13 37.8573 120.586 37.7423 121.05 37.7401C121.636 37.7043 122.219 37.8587 122.71 38.1801V35.1801C122.302 34.9855 121.852 34.8961 121.4 34.9201" fill="#737373"/>
<path d="M135.25 36.6999C134.69 36.0878 134.002 35.6078 133.234 35.2947C132.466 34.9816 131.638 34.8434 130.81 34.8899C129.914 34.8669 129.024 35.0332 128.197 35.3778C127.369 35.7225 126.624 36.2377 126.01 36.8899C125.356 37.5913 124.847 38.4157 124.514 39.3152C124.181 40.2148 124.03 41.1715 124.07 42.1299C123.954 44.0462 124.581 45.9334 125.82 47.3999C126.451 48.0351 127.21 48.5299 128.046 48.8521C128.881 49.1743 129.775 49.3167 130.67 49.2699C132.43 49.3531 134.179 48.9445 135.72 48.0899V45.5999C134.522 46.4583 133.084 46.9168 131.61 46.9099C130.478 46.985 129.359 46.6276 128.48 45.9099C128.09 45.5277 127.782 45.0697 127.576 44.5641C127.369 44.0585 127.269 43.5159 127.28 42.9699H136.81V41.7699C136.909 39.9698 136.355 38.1945 135.25 36.7699V36.6999ZM133.76 40.7699H127.28C127.385 39.8103 127.795 38.9096 128.45 38.1999C128.744 37.881 129.101 37.6272 129.499 37.4549C129.897 37.2827 130.326 37.1958 130.76 37.1999C131.171 37.1796 131.582 37.2527 131.962 37.4138C132.341 37.5748 132.679 37.8197 132.95 38.1299C133.516 38.8829 133.802 39.8091 133.76 40.7499" fill="#737373"/>
<path d="M23.91 0.399902H0.469971V23.8399H23.91V0.399902Z" fill="#F25022"/>
<path d="M49.69 0.399902H26.25V23.8399H49.69V0.399902Z" fill="#7FBA00"/>
<path d="M23.91 26.1899H0.469971V49.6299H23.91V26.1899Z" fill="#00A4EF"/>
<path d="M49.69 26.1899H26.25V49.6299H49.69V26.1899Z" fill="#FFB900"/>
</svg>
