<svg width="32" height="32" viewBox="0 0 32 32" fill="none" xmlns="http://www.w3.org/2000/svg">
<path d="M14.804 27.4622C18.9152 26.736 22.311 26.135 22.35 26.1266L22.4208 26.1116L18.5394 21.4948C16.4046 18.9555 14.658 16.8681 14.658 16.8561C14.658 16.8333 18.6659 5.79639 18.6884 5.75711C18.6959 5.74399 21.4234 10.453 25.3 17.1719C28.9294 23.4624 31.9216 28.6488 31.9494 28.6974L32 28.7858L19.6645 28.7842L7.32898 28.7826L14.804 27.4622ZM0 26.0542C0 26.0478 1.82891 22.873 4.06424 18.9991L8.1285 11.9557L12.8649 7.98085C15.4699 5.79471 17.6083 4.00337 17.6169 4.00009C17.6255 3.99683 17.5912 4.08309 17.5408 4.19177C17.4903 4.30045 15.1759 9.26457 12.3977 15.2231L7.34634 26.0568L3.67318 26.0614C1.65293 26.064 0 26.0608 0 26.0542Z" fill="#0089D6"/>
</svg>
