<svg width="815" height="173" viewBox="0 0 815 173" fill="none" xmlns="http://www.w3.org/2000/svg">
<g clip-path="url(#clip0)">
<path fill-rule="evenodd" clip-rule="evenodd" d="M566.656 42.0999C562.84 45.7406 559.85 50.1579 557.888 55.0533C555.926 59.9487 555.038 65.2082 555.283 70.4765V120.942H574.912V70.4765C574.713 67.9717 575.039 65.453 575.867 63.0808C576.695 60.7087 578.009 58.535 579.723 56.6982C585.001 53.1453 591.427 51.7195 597.711 52.707L608.646 34.2267L597.711 33.5159C592.239 32.6632 586.648 32.9878 581.312 34.468C575.975 35.9483 571.016 38.5502 566.765 42.0999" fill="#662EFF"/>
<path fill-rule="evenodd" clip-rule="evenodd" d="M107.437 42.1001C103.622 45.7407 100.632 50.158 98.6698 55.0534C96.7079 59.9489 95.8196 65.2084 96.0649 70.4766V120.942H115.693V70.4766C115.488 67.9668 115.816 65.4421 116.655 63.0677C117.493 60.6933 118.824 58.5228 120.559 56.6984C125.814 53.1388 132.225 51.7118 138.493 52.7071L149.428 34.2268L138.493 33.516C133.004 32.6507 127.393 32.969 122.037 34.4495C116.681 35.93 111.703 38.5385 107.437 42.1001Z" fill="#052882"/>
<path fill-rule="evenodd" clip-rule="evenodd" d="M156.755 120.942H176.383V34.8829H156.755V120.942Z" fill="#052882"/>
<path fill-rule="evenodd" clip-rule="evenodd" d="M794.926 36.1403V86.8244C794.926 90.4496 793.486 93.9263 790.923 96.4897C788.359 99.0531 784.882 100.493 781.257 100.493C777.632 100.493 774.155 99.0531 771.592 96.4897C769.029 93.9263 767.588 90.4496 767.588 86.8244V36.1403H748.124V86.8244C748.331 88.7054 748.128 90.6088 747.53 92.4042C746.933 94.1996 745.953 95.8444 744.66 97.2259C743.367 98.6074 741.79 99.6928 740.038 100.408C738.286 101.123 736.4 101.45 734.51 101.368C732.625 101.454 730.745 101.128 728.999 100.411C727.254 99.6953 725.686 98.6066 724.405 97.2216C723.124 95.8366 722.161 94.1885 721.584 92.3927C721.006 90.5969 720.827 88.6965 721.06 86.8244V36.1403H701.486V86.8244C701.262 91.2531 701.947 95.6808 703.499 99.8347C705.051 103.989 707.437 107.781 710.511 110.977C713.584 114.173 717.28 116.707 721.37 118.42C725.46 120.134 729.857 120.992 734.291 120.942C738.658 121.002 742.989 120.143 747.002 118.419C751.015 116.695 754.62 114.146 757.583 110.936C760.546 114.131 764.143 116.671 768.144 118.394C772.146 120.117 776.463 120.985 780.82 120.942C785.268 121.041 789.687 120.216 793.8 118.519C797.912 116.822 801.628 114.29 804.711 111.084C807.794 107.877 810.179 104.065 811.713 99.8892C813.248 95.7135 813.899 91.2647 813.625 86.8244V36.1403H794.926Z" fill="#662EFF"/>
<path fill-rule="evenodd" clip-rule="evenodd" d="M43.5243 33.352C35.0335 33.3698 26.7315 35.8585 19.6311 40.5145V0H0.00265826V69.2737C-0.851542 80.8276 2.08537 92.3449 8.36799 102.079C14.546 110.727 23.6613 116.83 34.0108 119.247C36.6894 119.838 39.4161 120.186 42.1574 120.286H43.5243C49.5863 120.855 55.7003 120.152 61.475 118.222C67.2498 116.292 72.558 113.178 77.06 109.079C81.562 104.979 85.1585 99.9854 87.6195 94.4163C90.0805 88.8472 91.3516 82.8256 91.3516 76.7369C91.3516 70.6483 90.0805 64.6267 87.6195 59.0575C85.1585 53.4884 81.562 48.4944 77.06 44.3951C72.558 40.2959 67.2498 37.1817 61.475 35.2518C55.7003 33.322 49.5863 32.619 43.5243 33.188V33.352ZM67.6908 76.9283C67.6908 81.708 66.2735 86.3803 63.618 90.3545C60.9626 94.3286 57.1883 97.4261 52.7724 99.2552C48.3565 101.084 43.4975 101.563 38.8096 100.63C34.1218 99.698 29.8157 97.3963 26.436 94.0166C23.0562 90.6368 20.7546 86.3308 19.8221 81.6429C18.8896 76.9551 19.3682 72.096 21.1973 67.6801C23.0264 63.2643 26.1239 59.49 30.0981 56.8345C34.0722 54.1791 38.7446 52.7617 43.5243 52.7617C49.9336 52.7617 56.0805 55.3079 60.6126 59.84C65.1447 64.3721 67.6908 70.5189 67.6908 76.9283Z" fill="#052882"/>
<path fill-rule="evenodd" clip-rule="evenodd" d="M252.6 40.5145C246.923 36.6098 240.404 34.1016 233.573 33.1942C226.743 32.2868 219.795 33.006 213.295 35.293C206.795 37.5801 200.928 41.3703 196.171 46.3549C191.414 51.3396 187.901 57.3776 185.92 63.977C183.939 70.5764 183.545 77.5505 184.77 84.3311C185.995 91.1117 188.805 97.5069 192.971 102.996C197.136 108.484 202.539 112.912 208.74 115.916C214.941 118.921 221.764 120.418 228.653 120.286C249.921 120.286 271.245 103.172 271.792 81.2476C272.065 65.1184 271.792 49.2078 271.792 32.8052C271.792 21.8702 271.792 10.9351 271.792 0H252.6V40.5145ZM252.6 76.9283C252.611 81.7211 251.2 86.4094 248.545 90.3997C245.89 94.3901 242.111 97.5031 237.686 99.3447C233.261 101.186 228.39 101.674 223.688 100.745C218.985 99.817 214.665 97.5145 211.272 94.1293C207.879 90.7441 205.567 86.4284 204.628 81.7284C203.689 77.0285 204.165 72.1556 205.997 67.7266C207.828 63.2975 210.933 59.5115 214.917 56.8476C218.901 54.1837 223.586 52.7618 228.379 52.7617C234.794 52.7617 240.946 55.3061 245.487 59.8366C250.028 64.3672 252.586 70.5139 252.6 76.9283Z" fill="#052882"/>
<path fill-rule="evenodd" clip-rule="evenodd" d="M367.364 76.5456C367.364 75.2334 367.364 73.8665 367.036 72.5543C365.746 61.9843 360.682 52.2358 352.776 45.103C344.87 37.9702 334.653 33.9331 324.006 33.7348H323.678C316.797 33.6363 309.99 35.1628 303.81 38.1902C297.63 41.2176 292.252 45.6604 288.112 51.1575C283.972 56.6547 281.188 63.051 279.985 69.8268C278.783 76.6025 279.196 83.5664 281.191 90.1524C283.186 96.7385 286.707 102.761 291.468 107.73C296.229 112.699 302.095 116.475 308.589 118.75C315.084 121.026 322.024 121.737 328.845 120.826C335.666 119.914 342.175 117.407 347.845 113.506C347.644 118.63 345.819 123.557 342.634 127.576C339.448 131.594 335.067 134.494 330.123 135.858C325.18 137.222 319.931 136.978 315.136 135.161C310.341 133.345 306.248 130.05 303.448 125.753L301.699 123.074L287.647 136.962L289.014 138.766C293.072 144.113 298.314 148.446 304.328 151.425C310.343 154.403 316.966 155.947 323.678 155.934C334.258 155.748 344.423 151.79 352.342 144.773C360.261 137.756 365.414 128.141 366.872 117.661C367.446 111.153 367.556 104.612 367.2 98.0877C367.2 90.9799 367.801 83.4894 367.2 76.2175L367.364 76.5456ZM347.681 76.983C347.67 81.7603 346.244 86.4273 343.582 90.3943C340.92 94.3612 337.141 97.4502 332.725 99.2709C328.308 101.092 323.451 101.562 318.766 100.624C314.082 99.6852 309.781 97.3792 306.407 93.9973C303.033 90.6154 300.736 86.3092 299.808 81.6229C298.88 76.9366 299.362 72.0803 301.193 67.6676C303.023 63.2549 306.121 59.4839 310.094 56.8308C314.067 54.1778 318.737 52.7618 323.514 52.7618C329.929 52.7763 336.075 55.3345 340.606 59.8753C345.137 64.4161 347.681 70.5686 347.681 76.983Z" fill="#052882"/>
<path fill-rule="evenodd" clip-rule="evenodd" d="M530.57 96.1194C527.051 98.8135 522.86 100.488 518.453 100.96C514.047 101.433 509.596 100.684 505.586 98.7966C501.576 96.9092 498.163 93.9556 495.719 90.2588C493.275 86.5619 491.895 82.2643 491.729 77.8358C491.563 73.4073 492.618 69.0184 494.779 65.1492C496.939 61.28 500.122 58.0793 503.979 55.8973C507.837 53.7153 512.22 52.6359 516.649 52.7772C521.078 52.9185 525.384 54.275 529.094 56.6984L532.046 58.8854L545.77 45.1619L543.583 43.303C537.197 37.9794 529.425 34.5863 521.18 33.5211C512.934 32.456 504.556 33.7629 497.026 37.2888C489.497 40.8147 483.128 46.4136 478.667 53.4292C474.205 60.4449 471.836 68.5869 471.836 76.901C471.836 85.2151 474.205 93.357 478.667 100.373C483.128 107.388 489.497 112.987 497.026 116.513C504.556 120.039 512.934 121.346 521.18 120.281C529.425 119.216 537.197 115.823 543.583 110.499L545.879 108.585L532.156 94.8619L530.57 96.1194Z" fill="#662EFF"/>
<path fill-rule="evenodd" clip-rule="evenodd" d="M404.325 35.9763C397.677 38.3051 391.691 42.2046 386.874 47.3434C382.057 52.4823 378.552 58.7083 376.658 65.4922C374.763 72.2761 374.535 79.4172 375.993 86.3081C377.45 93.1991 380.55 99.6362 385.029 105.072C389.508 110.508 395.234 114.782 401.719 117.53C408.204 120.278 415.257 121.42 422.278 120.858C429.299 120.295 436.08 118.046 442.045 114.3C448.01 110.555 452.983 105.424 456.54 99.3451C455.61 98.1969 440.52 91.1438 439.317 90.269C436.515 94.5991 432.364 97.8851 427.507 99.6185C423.2 101.177 418.541 101.49 414.064 100.523C409.587 99.5561 405.472 97.3478 402.192 94.1509L443.636 79.0605L462.554 72.1714L462.226 70.0391C461.779 67.3025 461.083 64.6123 460.148 62.0018C456.155 51.1792 448.049 42.372 437.594 37.4977C427.139 32.6234 415.181 32.0766 404.325 35.9763ZM395.03 75.78C395.261 71.0127 396.896 66.42 399.729 62.5786C402.562 58.7372 406.466 55.8184 410.952 54.1886C415.438 52.5589 420.306 52.291 424.944 53.4184C429.582 54.5458 433.783 57.0184 437.021 60.5256L395.03 75.78Z" fill="#052882"/>
<path fill-rule="evenodd" clip-rule="evenodd" d="M633.196 35.9764C626.549 38.3051 620.562 42.2046 615.745 47.3435C610.929 52.4823 607.424 58.7083 605.529 65.4922C603.635 72.2761 603.407 79.4172 604.864 86.3082C606.322 93.1991 609.422 99.6362 613.901 105.072C618.38 110.508 624.106 114.782 630.591 117.53C637.076 120.278 644.129 121.42 651.15 120.858C658.171 120.295 664.952 118.046 670.917 114.3C676.882 110.555 681.855 105.425 685.411 99.3451C684.482 98.197 669.391 91.1438 668.243 90.269C665.409 94.592 661.244 97.8741 656.379 99.6185C652.081 101.179 647.43 101.493 642.961 100.526C638.492 99.5584 634.387 97.3487 631.119 94.151L672.508 79.0606L691.426 72.1715L691.043 70.0391C690.596 67.3026 689.9 64.6124 688.965 62.0018C684.972 51.1922 676.875 42.3951 666.432 37.522C655.99 32.6488 644.046 32.0934 633.196 35.9764ZM623.956 75.78C624.173 71.0118 625.797 66.4146 628.623 62.5682C631.449 58.7217 635.351 55.7983 639.837 54.1667C644.322 52.535 649.191 52.2682 653.828 53.3999C658.465 54.5316 662.663 57.011 665.892 60.5256L623.956 75.78Z" fill="#662EFF"/>
<path fill-rule="evenodd" clip-rule="evenodd" d="M157.629 24.2759C157.622 24.4815 157.656 24.6864 157.73 24.8785C157.803 25.0706 157.915 25.2459 158.058 25.3939C158.201 25.5419 158.372 25.6596 158.561 25.7399C158.751 25.8203 158.954 25.8616 159.16 25.8615H175.563C175.773 25.8691 175.983 25.8333 176.179 25.7564C176.374 25.6794 176.552 25.5629 176.701 25.4141C176.85 25.2653 176.966 25.0874 177.043 24.8916C177.12 24.6958 177.156 24.4862 177.148 24.2759V7.87326C177.149 7.66753 177.107 7.46389 177.027 7.27449C176.947 7.0851 176.829 6.91384 176.681 6.77094C176.533 6.62804 176.358 6.51644 176.165 6.4428C175.973 6.36917 175.768 6.335 175.563 6.34235L157.629 24.2759Z" fill="#052882"/>
<path d="M386.61 144.671H401.7C407.168 144.671 410.557 147.022 410.557 151.505C410.685 152.976 410.247 154.439 409.332 155.597C408.418 156.755 407.096 157.521 405.637 157.738C409.3 158.996 411.104 160.964 411.104 164.299C411.104 169.767 407.058 171.845 401.044 171.845H386.61V144.671ZM401.044 155.989C404.215 155.989 405.637 154.895 405.637 152.435C405.637 149.975 404.106 149.045 401.208 149.045H391.257V155.989H401.044ZM401.044 167.416C404.543 167.416 406.019 166.213 406.019 163.643C406.019 161.074 404.598 159.925 401.153 159.925H391.257V167.525L401.044 167.416Z" fill="black"/>
<path d="M426.359 162.495L413.947 144.671H419.962L428.71 157.684H429.092L437.95 144.671H443.417L431.17 162.441V171.845H426.195L426.359 162.495Z" fill="black"/>
<path d="M459.328 144.671H473.106C474.428 144.484 475.776 144.599 477.047 145.006C478.319 145.413 479.482 146.103 480.449 147.023C481.417 147.943 482.164 149.07 482.634 150.32C483.105 151.57 483.287 152.909 483.167 154.239C483.251 155.609 483.031 156.98 482.523 158.254C482.015 159.529 481.231 160.675 480.228 161.61C479.224 162.546 478.026 163.248 476.719 163.665C475.412 164.083 474.029 164.206 472.669 164.026H464.304V171.79H459.328V144.671ZM472.724 159.597C473.469 159.72 474.234 159.664 474.953 159.433C475.673 159.201 476.327 158.802 476.861 158.268C477.396 157.733 477.795 157.079 478.026 156.359C478.258 155.64 478.314 154.876 478.191 154.13C478.191 150.74 476.387 148.936 472.724 148.936H464.304V159.324L472.724 159.597Z" fill="black"/>
<path d="M489.4 144.671H503.615C510.395 144.671 513.73 147.952 513.73 153.802C513.901 155.75 513.366 157.695 512.221 159.281C511.077 160.867 509.4 161.989 507.497 162.441L514.714 171.845H508.864L502.576 163.315H494.375V171.845H489.4V144.671ZM503.451 158.941C504.153 159.092 504.881 159.075 505.575 158.89C506.269 158.705 506.909 158.358 507.442 157.878C507.976 157.398 508.388 156.798 508.645 156.127C508.902 155.456 508.995 154.734 508.919 154.021C508.919 151.232 507.497 149.209 503.451 149.209H494.375V158.941H503.451Z" fill="black"/>
<path d="M520.783 144.671H525.759V172.009H520.783V144.671Z" fill="black"/>
<path d="M533.195 169.494V164.409C536.914 166.542 541.102 167.725 545.387 167.853C549.597 167.853 551.784 166.432 551.784 164.19C551.784 161.948 550.089 161.238 543.583 160.089C538.115 159.105 533.413 157.629 533.413 152.544C533.413 147.459 537.186 143.96 545.223 143.96C548.807 143.975 552.334 144.856 555.502 146.53V151.615C552.323 149.614 548.651 148.535 544.895 148.498C540.685 148.498 538.662 149.92 538.662 151.997C538.662 154.075 541.833 155.005 546.7 155.934C551.566 156.864 557.033 158.34 557.033 163.862C557.033 167.361 554.846 172.391 545.387 172.391C541.147 172.44 536.96 171.445 533.195 169.494Z" fill="black"/>
<path d="M563.321 144.671H569.226L578.849 161.511L588.307 144.671H594.376V172.009H589.456V152.435L579.286 170.04H578.849L568.788 152.435H568.515V171.845H563.649L563.321 144.671Z" fill="black"/>
<path d="M610.779 144.671H618.816L629.751 172.009H624.557L621.823 165.12H607.99L605.257 172.009H599.844L610.779 144.671ZM609.521 160.582H619.964L615.536 149.318H614.005L609.521 160.582Z" fill="black"/>
<path d="M632.649 148.116C632.55 146.788 632.854 145.462 633.521 144.31C634.187 143.158 635.186 142.234 636.386 141.658C637.586 141.083 638.932 140.883 640.248 141.084C641.563 141.285 642.788 141.879 643.761 142.787C644.734 143.695 645.41 144.876 645.702 146.174C645.993 147.473 645.886 148.83 645.395 150.066C644.903 151.303 644.05 152.363 642.947 153.108C641.843 153.852 640.541 154.246 639.21 154.239C638.365 154.325 637.51 154.23 636.705 153.959C635.899 153.687 635.161 153.247 634.539 152.667C633.918 152.087 633.428 151.381 633.102 150.596C632.776 149.811 632.621 148.965 632.649 148.116ZM644.131 148.116C644.186 147.132 643.944 146.156 643.438 145.311C642.931 144.467 642.183 143.794 641.29 143.379C640.398 142.964 639.401 142.827 638.429 142.985C637.457 143.143 636.555 143.589 635.839 144.265C635.123 144.941 634.627 145.816 634.414 146.777C634.201 147.738 634.281 148.741 634.644 149.657C635.007 150.572 635.636 151.357 636.45 151.911C637.264 152.465 638.226 152.761 639.21 152.763C639.833 152.802 640.458 152.709 641.042 152.491C641.627 152.272 642.159 151.932 642.603 151.493C643.047 151.054 643.393 150.526 643.619 149.944C643.844 149.362 643.944 148.739 643.912 148.116H644.131ZM636.695 145.327H639.702C641.452 145.327 642.217 146.038 642.217 147.35C642.224 147.738 642.105 148.118 641.878 148.433C641.652 148.748 641.33 148.982 640.96 149.1L642.381 150.849H640.796L639.538 149.318H638.117V150.849H636.695V145.327ZM639.648 148.17C640.468 148.17 640.796 148.17 640.796 147.35C640.796 146.53 640.468 146.475 639.702 146.475H638.117V148.17H639.648Z" fill="black"/>
<path d="M659.987 158.559C659.942 156.59 660.311 154.633 661.071 152.817C661.831 151 662.964 149.363 664.397 148.012C665.831 146.661 667.532 145.627 669.39 144.976C671.249 144.325 673.224 144.072 675.187 144.234C678.824 144.206 682.373 145.357 685.302 147.514V152.599C682.413 150.259 678.846 148.917 675.132 148.772C673.812 148.677 672.488 148.864 671.246 149.319C670.004 149.775 668.873 150.489 667.927 151.414C666.981 152.339 666.242 153.454 665.76 154.686C665.277 155.917 665.061 157.237 665.126 158.559C665.051 159.866 665.258 161.174 665.732 162.394C666.207 163.614 666.938 164.718 667.877 165.63C668.815 166.543 669.939 167.243 671.172 167.683C672.405 168.124 673.718 168.293 675.023 168.182C678.78 168.138 682.408 166.807 685.302 164.409V169.494C682.181 171.626 678.474 172.734 674.695 172.665C672.765 172.868 670.814 172.647 668.979 172.018C667.143 171.39 665.467 170.368 664.067 169.025C662.667 167.682 661.576 166.05 660.871 164.242C660.167 162.435 659.865 160.495 659.987 158.559Z" fill="black"/>
<path d="M692.409 144.671H697.33V167.307H713.733V171.845H692.847L692.409 144.671Z" fill="black"/>
<path d="M716.576 158.559C716.445 155.593 717.205 152.656 718.757 150.125C720.31 147.595 722.584 145.587 725.287 144.36C727.991 143.133 730.999 142.744 733.926 143.241C736.853 143.739 739.563 145.101 741.709 147.152C743.855 149.203 745.338 151.85 745.967 154.751C746.596 157.653 746.343 160.676 745.239 163.432C744.135 166.188 742.232 168.55 739.774 170.215C737.316 171.88 734.417 172.771 731.448 172.774C729.505 172.957 727.546 172.72 725.704 172.079C723.861 171.438 722.177 170.409 720.767 169.061C719.357 167.713 718.253 166.078 717.53 164.266C716.807 162.453 716.481 160.507 716.576 158.559ZM741.235 158.559C741.235 155.963 740.204 153.474 738.368 151.638C736.533 149.803 734.043 148.772 731.448 148.772C728.852 148.772 726.363 149.803 724.527 151.638C722.692 153.474 721.661 155.963 721.661 158.559C721.661 161.154 722.692 163.644 724.527 165.479C726.363 167.314 728.852 168.345 731.448 168.345C734.043 168.345 736.533 167.314 738.368 165.479C740.204 163.644 741.235 161.154 741.235 158.559Z" fill="black"/>
<path d="M752.935 161.402V144.671H757.91V161.074C757.91 166.104 761.519 167.799 765.729 167.799C769.939 167.799 773.547 166.158 773.547 161.238V144.671H778.523V161.074C778.523 169.275 773.055 172.337 765.674 172.337C758.293 172.337 752.935 169.494 752.935 161.402Z" fill="black"/>
<path d="M786.779 144.671H799.737C801.568 144.485 803.418 144.708 805.153 145.322C806.889 145.936 808.466 146.927 809.773 148.223C811.08 149.52 812.083 151.089 812.711 152.82C813.34 154.55 813.577 156.398 813.406 158.231C813.575 160.065 813.338 161.915 812.71 163.648C812.082 165.38 811.08 166.953 809.774 168.253C808.468 169.553 806.892 170.55 805.157 171.17C803.422 171.791 801.571 172.022 799.737 171.845H786.779V144.671ZM799.682 167.361C800.859 167.475 802.047 167.324 803.158 166.92C804.269 166.515 805.276 165.867 806.104 165.023C806.932 164.179 807.561 163.161 807.945 162.042C808.329 160.923 808.457 159.733 808.321 158.559C808.502 157.363 808.408 156.142 808.045 154.988C807.681 153.835 807.059 152.78 806.225 151.904C805.392 151.028 804.369 150.355 803.235 149.935C802.101 149.515 800.886 149.36 799.682 149.482H791.755V167.635L799.682 167.361Z" fill="black"/>
</g>
<defs>
<clipPath id="clip0">
<rect width="814.335" height="172.501" fill="white"/>
</clipPath>
</defs>
</svg>
