<svg width="32" height="32" viewBox="0 0 32 32" fill="none" xmlns="http://www.w3.org/2000/svg">
<g clip-path="url(#clip0)">
<path d="M16 32C24.8366 32 32 24.8366 32 16C32 7.16344 24.8366 0 16 0C7.16344 0 0 7.16344 0 16C0 24.8366 7.16344 32 16 32Z" fill="#05930C"/>
<path opacity="0.1" d="M4.91006 4.5C3.28354 5.9494 1.97015 7.71572 1.05041 9.69066C0.13067 11.6656 -0.376052 13.8076 -0.438696 15.9853C-0.50134 18.163 -0.118587 20.3306 0.686104 22.3552C1.4908 24.3796 2.70046 26.2186 4.24098 27.759C5.78148 29.2996 7.62038 30.5092 9.64494 31.314C11.6695 32.1186 13.837 32.5014 16.0148 32.4388C18.1925 32.3762 20.3344 31.8694 22.3094 30.9496C24.2844 30.03 26.0506 28.7166 27.5 27.09L4.91006 4.5Z" fill="white"/>
<path d="M15.2152 21.775C14.1268 22.3046 12.9249 22.5588 11.7152 22.515C10.9158 22.55 10.1181 22.4138 9.37568 22.1154C8.63322 21.817 7.9631 21.3634 7.41022 20.785C6.29882 19.5392 5.71914 17.9078 5.79522 16.24C5.7565 15.3454 5.89762 14.4522 6.21024 13.6131C6.52284 12.774 7.0006 12.0062 7.61522 11.355C8.21554 10.7408 8.93736 10.2586 9.7346 9.93923C10.5318 9.61983 11.3869 9.47023 12.2452 9.50001C13.259 9.46131 14.27 9.63151 15.2152 10V11.575C14.2984 11.0654 13.264 10.8051 12.2152 10.82C11.5622 10.7984 10.9121 10.9165 10.3085 11.1666C9.70482 11.4167 9.16162 11.7929 8.71522 12.27C7.77896 13.3373 7.2948 14.727 7.36522 16.145C7.29596 17.4851 7.74742 18.8001 8.62522 19.815C9.04608 20.2676 9.55972 20.6238 10.131 20.8594C10.7023 21.095 11.3177 21.2044 11.9352 21.18C13.0874 21.2086 14.2249 20.916 15.2202 20.335L15.2152 21.775Z" fill="white"/>
<path d="M26.38 13.2302L26.18 14.1602H23.88L23.33 16.8002H25.8L25.565 17.7302H23.145L22.37 21.2302H21.265L22.02 17.7302H19.8199L19.0799 21.2302H17.9999L18.7399 17.7302H16.4199L16.5949 16.8002H18.9249L19.4599 14.1652H17.0249L17.2099 13.2352H19.6449L20.385 9.7002H21.5L20.76 13.2352H22.975L23.73 9.7002H24.81L24.07 13.2352L26.38 13.2302ZM22.795 14.1602H20.575L19.9999 16.8002H22.23L22.795 14.1602Z" fill="white"/>
</g>
<defs>
<clipPath id="clip0">
<rect width="32" height="32" fill="white"/>
</clipPath>
</defs>
</svg>
