<svg width="32" height="32" viewBox="0 0 32 32" fill="none" xmlns="http://www.w3.org/2000/svg">
<g clip-path="url(#clip0)">
<path d="M16.2194 31.5608C24.9346 31.5608 31.9998 24.4956 31.9998 15.7804C31.9998 7.06512 24.9346 0 16.2194 0C7.50408 0 0.438965 7.06512 0.438965 15.7804C0.438965 24.4956 7.50408 31.5608 16.2194 31.5608Z" fill="#5C2D91"/>
<path opacity="0.1" d="M5.28186 4.43848C3.67766 5.868 2.38232 7.61006 1.4752 9.5579C0.568078 11.5057 0.06831 13.6183 0.00652545 15.7661C-0.055259 17.914 0.322242 20.0518 1.11589 22.0486C1.90953 24.0454 3.1026 25.859 4.62198 27.3784C6.14134 28.8976 7.95498 30.0908 9.95176 30.8844C11.9485 31.678 14.0863 32.0556 16.2342 31.9938C18.382 31.932 20.4946 31.4322 22.4424 30.525C24.3902 29.618 26.1324 28.3226 27.5618 26.7184L5.28186 4.43848Z" fill="white"/>
<path d="M4.08846 18.3694C3.9964 18.3708 3.90504 18.3532 3.82016 18.3175C3.73528 18.2819 3.65872 18.229 3.59532 18.1622C3.53016 18.0979 3.47868 18.021 3.44394 17.9363C3.4092 17.8516 3.39192 17.7607 3.39312 17.6691C3.39246 17.5776 3.41 17.4869 3.44472 17.4022C3.47942 17.3176 3.53062 17.2407 3.59532 17.176C3.6581 17.1081 3.73444 17.0541 3.81938 17.0176C3.90432 16.9811 3.996 16.9628 4.08846 16.9639C4.18078 16.9637 4.27216 16.9824 4.35698 17.0189C4.4418 17.0553 4.51825 17.1088 4.58159 17.176C4.64741 17.2401 4.69966 17.3168 4.73524 17.4015C4.77082 17.4862 4.789 17.5772 4.7887 17.6691C4.78956 17.7611 4.77164 17.8522 4.73602 17.937C4.70042 18.0218 4.64787 18.0985 4.58159 18.1622C4.51765 18.2283 4.44098 18.2807 4.35622 18.3163C4.27146 18.3519 4.18038 18.3699 4.08846 18.3694Z" fill="white"/>
<path d="M13.8872 18.2458H12.5952L7.97449 11.0755C7.85941 10.8989 7.76351 10.7104 7.68847 10.5134H7.64903C7.69295 10.9227 7.70941 11.3346 7.69835 11.7462V18.2458H6.64795V9.25586H8.01395L12.5114 16.2979C12.6987 16.5905 12.8204 16.791 12.8763 16.8995H12.9009C12.8489 16.461 12.8275 16.0194 12.8368 15.5779V9.25586H13.8872V18.2458Z" fill="white"/>
<path d="M20.9982 18.2458H16.2197V9.25586H20.7764V10.2076H17.2948V13.196H20.5396V14.1429H17.2948V17.2595H21.0032L20.9982 18.2458Z" fill="white"/>
<path d="M28.0552 10.2076H25.4416V18.2458H24.3912V10.2076H21.8072V9.25586H28.0552V10.2076Z" fill="white"/>
<path d="M13.3203 24.3614C12.9643 24.5338 12.5715 24.6168 12.1762 24.603C11.9135 24.6148 11.6513 24.5704 11.4072 24.4726C11.1631 24.3748 10.9427 24.2258 10.7609 24.0358C10.3986 23.6302 10.2076 23.1 10.2283 22.5564C10.215 22.2622 10.261 21.9682 10.3635 21.6922C10.466 21.416 10.623 21.1632 10.825 20.9488C11.0219 20.7472 11.2586 20.5886 11.5201 20.4834C11.7816 20.378 12.0621 20.3284 12.3439 20.3374C12.681 20.3258 13.0169 20.3846 13.3301 20.51V21.003C13.0286 20.8362 12.6885 20.7512 12.3439 20.7566C12.1266 20.7504 11.9105 20.7912 11.7105 20.8764C11.5105 20.9616 11.3312 21.0888 11.185 21.2496C10.8774 21.6 10.7183 22.0564 10.7412 22.522C10.7181 22.963 10.8666 23.396 11.1554 23.7302C11.2939 23.8792 11.4631 23.9964 11.6512 24.0738C11.8393 24.1512 12.042 24.1872 12.2452 24.1788C12.6239 24.1888 12.9978 24.0932 13.3252 23.9028L13.3203 24.3614Z" fill="#F2F2F2"/>
<path d="M15.3367 24.603C15.1404 24.6092 14.945 24.5734 14.7638 24.4976C14.5826 24.422 14.4197 24.3082 14.2863 24.164C14.0167 23.8632 13.8767 23.468 13.8967 23.0644C13.8844 22.853 13.9143 22.6412 13.9845 22.4414C14.0548 22.2416 14.1641 22.0578 14.3061 21.9006C14.4509 21.7592 14.6233 21.649 14.8124 21.5768C15.0016 21.5048 15.2035 21.4722 15.4057 21.4814C15.5969 21.4712 15.788 21.5026 15.9659 21.5732C16.1438 21.6438 16.3043 21.7522 16.4364 21.8906C16.6985 22.2066 16.8307 22.6102 16.8063 23.02C16.8269 23.4358 16.6835 23.843 16.4068 24.1542C16.2709 24.3012 16.105 24.4172 15.9204 24.4946C15.7358 24.572 15.5368 24.609 15.3367 24.603ZM15.3712 21.9054C15.2356 21.8998 15.1004 21.9248 14.9757 21.9786C14.8511 22.0324 14.7402 22.1136 14.6512 22.2162C14.4615 22.4604 14.3669 22.7654 14.385 23.0742C14.3677 23.3738 14.4627 23.6692 14.6512 23.9026C14.7411 24.0038 14.8523 24.0838 14.9768 24.1366C15.1013 24.1896 15.2361 24.214 15.3712 24.2084C15.5036 24.2162 15.6359 24.1936 15.7582 24.1424C15.8804 24.091 15.9893 24.0124 16.0764 23.9126C16.2557 23.6676 16.343 23.3672 16.323 23.0644C16.3425 22.76 16.2553 22.4582 16.0764 22.2112C15.9905 22.1092 15.8821 22.0286 15.7597 21.9754C15.6374 21.9224 15.5044 21.8984 15.3712 21.9054Z" fill="#F2F2F2"/>
<path d="M19.1095 22.0528C19.003 21.983 18.8765 21.9502 18.7495 21.9592C18.6502 21.9628 18.5532 21.9908 18.4672 22.0406C18.3812 22.0904 18.3088 22.1608 18.2564 22.2452C18.1096 22.4776 18.0389 22.75 18.0542 23.0244V24.5334H17.561V21.5746H18.0542V22.191C18.1084 22.0002 18.2162 21.829 18.3648 21.6978C18.4935 21.5862 18.6581 21.5248 18.8284 21.5252C18.9237 21.521 19.019 21.5342 19.1095 21.5646V22.0528Z" fill="#F2F2F2"/>
<path d="M21.9994 23.1774H19.9134C19.8994 23.4532 19.9891 23.724 20.1648 23.9368C20.2562 24.028 20.3658 24.0988 20.4866 24.1448C20.6072 24.1906 20.7362 24.2106 20.8652 24.2032C21.1994 24.1998 21.5228 24.0834 21.7824 23.8728V24.3166C21.4774 24.5176 21.1164 24.616 20.7516 24.5976C20.5676 24.607 20.3838 24.5756 20.2134 24.5056C20.043 24.4358 19.89 24.329 19.7654 24.1934C19.5087 23.873 19.3804 23.4688 19.4054 23.059C19.3877 22.6484 19.527 22.2464 19.795 21.9348C19.917 21.7938 20.0688 21.6818 20.2394 21.6068C20.4098 21.5318 20.595 21.4956 20.7812 21.5008C20.9494 21.4914 21.1176 21.5202 21.273 21.585C21.4286 21.65 21.5672 21.7494 21.6788 21.8756C21.9058 22.175 22.0178 22.546 21.9944 22.921L21.9994 23.1774ZM21.5062 22.778C21.5162 22.5494 21.4464 22.3246 21.309 22.1418C21.2414 22.0656 21.1576 22.0056 21.0636 21.9664C20.9698 21.927 20.8682 21.9094 20.7664 21.915C20.6604 21.9138 20.5552 21.9346 20.4574 21.9762C20.3598 22.0178 20.272 22.0792 20.1994 22.1566C20.037 22.3284 19.935 22.5482 19.9084 22.783L21.5062 22.778Z" fill="#F2F2F2"/>
</g>
<defs>
<clipPath id="clip0">
<rect width="32" height="32" fill="white"/>
</clipPath>
</defs>
</svg>
