<svg width="32" height="32" viewBox="0 0 32 32" fill="none" xmlns="http://www.w3.org/2000/svg">
<path d="M21.2812 11.1023L24.0628 8.3207L24.2482 7.14944C19.1794 2.54032 11.1217 3.06294 6.55236 8.23994C5.2831 9.67782 4.34148 11.4704 3.83936 13.3216L4.8356 13.1812L10.3987 12.2638L10.8282 11.8246C13.3029 9.10682 17.487 8.7412 20.3442 11.0536L21.2812 11.1023Z" fill="#EA4335"/>
<path d="M28.0254 13.2397C27.386 10.8852 26.0734 8.76853 24.2482 7.14941L20.3442 11.0534C21.9928 12.4004 22.9318 14.4297 22.8916 16.558V17.251C24.8106 17.251 26.3662 18.8067 26.3662 20.7256C26.3662 22.6446 24.8106 24.1612 22.8916 24.1612H15.9328L15.2495 24.903V29.0704L15.9328 29.7244H22.8916C27.8828 29.7632 31.9606 25.7876 31.9996 20.7962C32.023 17.7709 30.5314 14.9347 28.0254 13.2397Z" fill="#4285F4"/>
<path d="M8.98369 29.7246H15.9328V24.1614H8.98369C8.48857 24.1612 8.00907 24.0548 7.55883 23.8492L6.57295 24.1516L3.77183 26.9332L3.52783 27.88C5.09869 29.0662 7.01533 29.7332 8.98369 29.7246Z" fill="#34A853"/>
<path d="M8.9838 11.6783C3.99242 11.708 -0.029586 15.7785 0.000163982 20.7698C0.016789 23.557 1.31854 26.1808 3.52792 27.88L7.55892 23.849C5.81004 23.059 5.03292 21.0008 5.82304 19.252C6.61304 17.5033 8.6713 16.7262 10.4199 17.5162C11.1905 17.8643 11.8077 18.4815 12.1558 19.252L16.1868 15.2212C14.4717 12.979 11.8067 11.6682 8.9838 11.6783Z" fill="#FBBC05"/>
</svg>
