<svg width="32" height="32" viewBox="0 0 32 32" fill="none" xmlns="http://www.w3.org/2000/svg">
<path fill-rule="evenodd" clip-rule="evenodd" d="M15.999 0C7.16424 0 0 7.16336 0 16.0009C0 23.0694 4.58404 29.0662 10.9426 31.1822C11.7426 31.329 12.0346 30.835 12.0346 30.411C12.0346 30.0312 12.0208 29.025 12.013 27.6898C7.56236 28.6566 6.62326 25.545 6.62326 25.545C5.89572 23.6966 4.8468 23.2046 4.8468 23.2046C3.39408 22.2118 4.9567 22.232 4.9567 22.232C6.56236 22.3452 7.40746 23.8808 7.40746 23.8808C8.83472 26.3258 11.1522 25.6198 12.0639 25.2102C12.2093 24.1762 12.6226 23.4712 13.0797 23.0712C9.5268 22.6674 5.7917 21.2948 5.7917 15.1636C5.7917 13.4169 6.41512 11.9886 7.4386 10.8702C7.27408 10.4654 6.725 8.83864 7.59546 6.6358C7.59546 6.6358 8.93884 6.2056 11.9953 8.27602C13.2715 7.92114 14.6403 7.74366 16.0009 7.73748C17.3597 7.74366 18.7285 7.92114 20.0066 8.27602C23.0612 6.2056 24.4022 6.6358 24.4022 6.6358C25.275 8.83864 24.7258 10.4654 24.5614 10.8702C25.5868 11.9886 26.206 13.4169 26.206 15.1636C26.206 21.3102 22.465 22.6626 18.9007 23.0588C19.4752 23.5528 19.9869 24.5292 19.9869 26.0218C19.9869 28.1608 19.9673 29.8864 19.9673 30.411C19.9673 30.8388 20.2554 31.3366 21.0674 31.1804C27.4198 29.0604 32 23.0674 32 16.0009C32 7.16336 24.8356 0 15.999 0Z" fill="#191717"/>
</svg>
