<svg width="13" height="24" viewBox="0 0 13 24" fill="none" xmlns="http://www.w3.org/2000/svg">
<g clip-path="url(#clip0_40_113)">
<path d="M3.98058 12.92C3.98058 12.92 3.33886 13.3106 4.42715 13.4223C5.74143 13.5897 6.43629 13.5617 7.88715 13.2829C7.88715 13.2829 8.27772 13.5343 8.80801 13.7294C5.54286 15.1246 1.41315 13.6457 3.98058 12.92ZM3.56201 11.1063C3.56201 11.1063 2.86429 11.6366 3.95258 11.748C5.37543 11.8874 6.49201 11.9154 8.41743 11.5251C8.41743 11.5251 8.66886 11.8043 9.08715 11.9437C5.15286 13.1157 0.74372 12.0551 3.56201 11.1066V11.1063ZM11.2637 14.2874C11.2637 14.2874 11.738 14.678 10.7334 14.9851C8.86372 15.5431 2.89229 15.7109 1.21801 14.9851C0.632292 14.7337 1.74829 14.3709 2.11086 14.3154C2.47372 14.2317 2.66886 14.2317 2.66886 14.2317C2.02715 13.7851 -1.60056 15.1526 0.827149 15.546C7.49629 16.6346 12.9937 15.0717 11.2634 14.2903L11.2637 14.2874ZM4.28744 9.20857C4.28744 9.20857 1.24572 9.93429 3.19886 10.1851C4.03601 10.2966 5.68229 10.2689 7.21715 10.1571C8.47286 10.0457 9.73143 9.82229 9.73143 9.82229C9.73143 9.82229 9.28486 10.0177 8.97801 10.2129C5.87801 11.0229 -0.065708 10.66 1.63658 9.82286C3.08801 9.12514 4.28744 9.20857 4.28744 9.20857V9.20857ZM9.72858 12.2503C12.8543 10.6317 11.4029 9.06914 10.3983 9.26457C10.1469 9.32029 10.0354 9.376 10.0354 9.376C10.0354 9.376 10.1191 9.20857 10.3146 9.15314C12.2957 8.45543 13.8586 11.246 9.67286 12.3343C9.67286 12.3343 9.70086 12.3063 9.72858 12.2506V12.2503ZM4.59429 16.6589C7.60801 16.8543 12.2123 16.5474 12.324 15.124C12.324 15.124 12.1011 15.682 9.84058 16.1006C7.27344 16.5749 4.09201 16.5191 2.22258 16.212C2.22258 16.212 2.61315 16.5469 4.59458 16.6586L4.59429 16.6589Z" fill="#4E7896"/>
<path d="M7.82859 0C7.82859 0 9.55859 1.758 6.1823 4.40857C3.47544 6.55714 5.56801 7.78514 6.1823 9.18C4.59173 7.75714 3.44801 6.50114 4.22887 5.32914C5.37573 3.6 8.52859 2.76286 7.82859 0ZM6.93573 8.00857C7.74487 8.92943 6.71287 9.76657 6.71287 9.76657C6.71287 9.76657 8.77773 8.70657 7.82916 7.39457C6.96401 6.13886 6.2943 5.52486 9.92201 3.43171C9.92201 3.43171 4.20144 4.85457 6.9363 8.008L6.93573 8.00857Z" fill="#F58219"/>
<path d="M5.49571 22.6329V19.8986C5.49571 19.2009 5.10514 18.7266 4.12828 18.7266C3.57028 18.7266 3.09571 18.866 2.67685 19.0334L2.81628 19.5357C3.12314 19.4243 3.514 19.3129 3.93257 19.3129C4.46285 19.3129 4.714 19.5357 4.714 19.9826V20.3454H4.43485C3.09542 20.3454 2.48142 20.8477 2.48142 21.6597C2.48142 22.3294 2.9 22.7197 3.65342 22.7197C4.12771 22.7197 4.49057 22.4969 4.82542 22.2174L4.88114 22.636H5.49542L5.49571 22.6329ZM4.71428 21.74C4.43514 21.9914 4.12857 22.1306 3.84914 22.1306C3.48628 22.1306 3.26342 21.9077 3.26342 21.5163C3.26342 21.1249 3.48628 20.8466 4.37971 20.8466H4.71428V21.7394V21.74ZM8.11857 22.6329H7.142L5.97 18.81H6.80714L7.53285 21.154L7.70028 21.8517C8.06314 20.8472 8.342 19.8146 8.45371 18.81H9.29085C9.068 20.0657 8.67657 21.4329 8.11885 22.6329H8.11857ZM12.6391 22.6329V19.8986C12.6391 19.2009 12.2486 18.7266 11.2717 18.7266C10.7137 18.7266 10.2391 18.866 9.82028 19.0334L9.93171 19.5357C10.2666 19.4243 10.6574 19.3129 11.0757 19.3129C11.606 19.3129 11.8571 19.5357 11.8571 19.9826V20.3454H11.578C10.2386 20.3454 9.62457 20.8477 9.62457 21.6597C9.62457 22.3294 10.0151 22.7197 10.7686 22.7197C11.2709 22.7197 11.6337 22.4969 11.9686 22.2174L12.0243 22.636H12.6386L12.6391 22.6329ZM11.8577 21.74C11.5786 21.9914 11.272 22.1306 10.9926 22.1306C10.6297 22.1306 10.4069 21.9077 10.4069 21.5163C10.4069 21.1249 10.6297 20.8466 11.5231 20.8466H11.858V21.7394L11.8577 21.74ZM1.61714 23.2743C1.39428 23.6092 1.05914 23.86 0.640567 24L0.27771 23.5534C0.556853 23.386 0.83571 23.1349 0.947424 22.9117C1.05885 22.7163 1.08685 22.4374 1.08685 21.7954V17.4429H1.924V21.74C1.924 22.6052 1.84028 22.94 1.61714 23.2749V23.2743Z" fill="#4E7896"/>
</g>
<defs>
<clipPath id="clip0_40_113">
<rect width="12.8571" height="24" fill="white"/>
</clipPath>
</defs>
</svg>
