<svg width="32" height="32" viewBox="0 0 32 32" fill="none" xmlns="http://www.w3.org/2000/svg">
<g clip-path="url(#clip0)">
<path d="M0 4C-9.6316e-08 1.79086 1.79086 1.14859e-06 4 1.05178e-06L28 0C30.2092 -9.6812e-08 32 1.79086 32 4V28C32 30.2092 30.2092 32 28 32H4C1.79086 32 1.14269e-06 30.2092 1.04637e-06 28L0 4Z" fill="#F7DF1E"/>
<path d="M8.4142 26.7414L10.8629 25.2594C11.3354 26.097 11.7652 26.8058 12.796 26.8058C13.7842 26.8058 14.4073 26.4192 14.4073 24.9158V14.691H17.4144V24.9582C17.4144 28.0728 15.5887 29.4906 12.9249 29.4906C10.5193 29.4906 9.12292 28.2448 8.41406 26.7412L8.4142 26.7414ZM19.0478 26.4192L21.4962 25.0016C22.141 26.0542 22.9786 26.8274 24.4606 26.8274C25.7068 26.8274 26.5012 26.2044 26.5012 25.3452C26.5012 24.3142 25.685 23.9488 24.3104 23.3476L23.5586 23.0252C21.389 22.1018 19.9499 20.9418 19.9499 18.493C19.9499 16.2375 21.6682 14.519 24.3534 14.519C26.2652 14.519 27.64 15.185 28.628 16.9249L26.2864 18.4287C25.7708 17.505 25.2126 17.1399 24.3532 17.1399C23.4726 17.1399 22.914 17.6984 22.914 18.4287C22.914 19.3308 23.4726 19.6962 24.7612 20.2546L25.513 20.5768C28.0692 21.6724 29.5084 22.7892 29.5084 25.3022C29.5084 28.009 27.382 29.491 24.525 29.491C21.7326 29.491 19.9283 28.1592 19.0477 26.4192" fill="black"/>
</g>
<defs>
<clipPath id="clip0">
<rect width="32" height="32" fill="white"/>
</clipPath>
</defs>
</svg>
