<svg width="344" height="70" viewBox="0 0 344 70" fill="none" xmlns="http://www.w3.org/2000/svg">
<path d="M70.9975 17.4948C70.764 17.4948 70.552 17.3745 70.4387 17.1765L60.7155 0.318317C60.5952 0.120239 60.3832 -4.65232e-07 60.1497 -4.65232e-07H20.4789C20.2459 -4.65232e-07 20.0333 0.120239 19.9207 0.318317L9.82273 17.8131C9.81518 17.8131 9.81518 17.8201 9.81518 17.8201L0.0849529 34.6782C-0.0283176 34.8763 -0.0283176 35.1237 0.0849529 35.3218L9.81518 52.173L19.9207 69.6823C20.0333 69.8798 20.2459 70 20.4789 70H60.1497C60.3832 70 60.5952 69.8798 60.7155 69.6823L70.4457 52.8235C70.559 52.6255 70.771 52.5052 71.0045 52.5052H83.1111C83.5136 52.5052 83.8395 52.1794 83.8395 51.7774V18.2226C83.8395 17.8206 83.5136 17.4948 83.1111 17.4948H70.9975Z" fill="#4D4D4D"/>
<path d="M252.327 17.151H252.321C250.044 17.6157 247.97 18.487 246.077 19.7649C245.153 20.3865 244.276 21.1009 243.445 21.9142C240.791 24.5107 239.129 27.5777 238.473 31.1268L238.218 31.5102L238.374 31.7425V31.7484C238.223 32.7242 238.147 33.735 238.147 34.7864C238.147 39.4043 239.583 43.3426 242.452 46.6013C242.76 46.9615 243.097 47.31 243.445 47.6527C244.334 48.524 245.275 49.285 246.268 49.9355C249.219 51.864 252.623 52.8283 256.486 52.8283C256.915 52.8283 257.339 52.8167 257.758 52.7876C261.499 52.5785 264.787 51.411 267.621 49.2908C268.284 48.797 268.923 48.251 269.532 47.6527C269.538 47.6469 269.544 47.6411 269.55 47.6353C270.956 46.2586 272.082 44.7425 272.925 43.0987C273.186 42.5933 273.419 42.0763 273.622 41.5419C274.429 39.4798 274.83 37.226 274.83 34.7864C274.83 34.13 274.8 33.4852 274.742 32.8578V32.8462C274.563 30.9003 274.109 29.0822 273.366 27.4034C272.489 25.382 271.211 23.5522 269.532 21.9142C268.835 21.2287 268.103 20.613 267.337 20.067C264.247 17.848 260.633 16.7386 256.486 16.7386C255.033 16.7386 253.646 16.8722 252.327 17.151V17.151ZM252.019 44.9923C251.321 44.6321 250.666 44.1849 250.05 43.6389C249.736 43.3717 249.434 43.0754 249.144 42.7559C247.139 40.5718 246.141 37.9231 246.141 34.8096C246.141 34.7166 246.141 34.6295 246.146 34.5365C246.198 31.5392 247.197 28.9718 249.144 26.8342C250.602 25.231 252.31 24.2086 254.261 23.7788C254.981 23.6219 255.731 23.5406 256.515 23.5406C259.43 23.5406 261.888 24.6385 263.886 26.8342C263.997 26.9504 264.101 27.0723 264.194 27.1943C265.989 29.3261 266.884 31.8645 266.884 34.8096C266.884 36.8659 266.448 38.7131 265.577 40.3627C265.129 41.2166 264.566 42.0124 263.886 42.7559C263.788 42.8663 263.683 42.9709 263.579 43.0754C262.835 43.8364 262.022 44.4521 261.15 44.9168C259.762 45.6603 258.216 46.0321 256.515 46.0321C254.871 46.0321 253.373 45.6835 252.019 44.9923V44.9923ZM184.341 21.9374C183.697 22.5705 183.11 23.2328 182.581 23.924V23.9298C180.206 27.0143 179.02 30.6737 179.02 34.9083C179.02 37.3248 179.398 39.5437 180.159 41.571C180.606 42.7908 181.199 43.9177 181.913 44.9923V44.9981C181.919 44.9981 181.919 45.0039 181.919 45.0039C181.925 45.0039 181.925 45.0097 181.925 45.0097C182.581 45.9914 183.353 46.915 184.242 47.7805C185.317 48.8261 186.473 49.709 187.728 50.4351H187.734C188.047 50.6151 188.367 50.7894 188.692 50.9521C188.925 51.0682 189.162 51.1786 189.407 51.2832H189.418L189.424 51.289H189.429C191.835 52.3462 194.536 52.8748 197.539 52.8748C198.421 52.8748 199.287 52.8109 200.13 52.6889H200.135H200.146C200.687 52.6134 201.222 52.5088 201.75 52.381C204.707 51.6724 207.414 50.1737 209.882 47.8909C210.376 47.4378 210.864 46.944 211.34 46.4213C211.462 46.2876 211.457 46.0785 211.328 45.9449L206.821 41.3037C206.74 41.2166 206.629 41.1876 206.519 41.205C206.444 41.2224 206.368 41.2631 206.315 41.327C205.113 42.7501 203.742 43.8189 202.209 44.5276C200.687 45.2305 199.003 45.579 197.161 45.579C195.9 45.579 194.722 45.3815 193.63 44.9807C192.299 44.4928 191.096 43.7086 190.017 42.6282C188.983 41.5942 188.221 40.386 187.734 38.9977C187.286 37.743 187.065 36.3489 187.065 34.8096C187.065 31.7832 187.965 29.3319 189.778 27.4615C189.912 27.3279 190.046 27.1943 190.191 27.0607C192.27 25.1438 194.78 24.1854 197.713 24.1854C198.787 24.1854 199.816 24.319 200.786 24.5862C203.016 25.1903 204.974 26.4914 206.659 28.478C206.792 28.6349 207.036 28.6465 207.17 28.4897L211.555 23.5174C211.672 23.3896 211.666 23.1863 211.55 23.0527C208.117 19.2828 203.957 17.1975 199.078 16.8083C198.514 16.7618 197.945 16.7386 197.364 16.7386C192.23 16.7386 187.891 18.4754 184.341 21.9374V21.9374ZM71.2737 17.4995H67.2778H61.7311H58.9946H57.1532H55.0377H54.3522H48.2833H43.7815H36.84H26.2118H23.4683H22.0974H18.8904H10.3812C10.1489 17.4995 9.94554 17.6215 9.82356 17.8132C9.81775 17.8132 9.81775 17.8248 9.81775 17.8248L9.4576 18.4464L5.00811 26.1604L0.0881077 34.6818C-0.0280672 34.8793 -0.0280672 35.1233 0.0881077 35.3266L1.15691 37.1796L9.81775 52.1777C9.93393 52.381 10.1489 52.503 10.3812 52.503H16.4165H22.3588H23.4683H36.84H37.3506H43.7815H53.2834H57.1532H58.0472H59.4825H64.7685H74.7885H83.1241C83.5191 52.503 83.8386 52.1777 83.8386 51.7827V43.6679V35.3614V27.6648V18.2256C83.8386 17.8248 83.5127 17.4995 83.1125 17.4995H71.2737V17.4995ZM339.923 17.5402H335.055H334.387C334.294 17.5402 334.201 17.5809 334.137 17.6506L331.401 20.6246L325.563 26.9736L321.636 31.2372C321.427 31.4695 321.044 31.3185 321.044 31.0049V25.26V21.4204V17.8829C321.044 17.6912 320.888 17.5402 320.701 17.5402H313.591C313.4 17.5402 313.249 17.6912 313.249 17.8829V22.0245V22.3092V23.5058V37.5745V50.5454V52.1371C313.249 52.3229 313.4 52.4798 313.591 52.4798H320.701C320.888 52.4798 321.044 52.3229 321.044 52.1371V46.9498V44.1907V42.7095C321.044 42.6281 321.073 42.5468 321.132 42.4829L321.451 42.1228L324.262 38.9919C324.407 38.835 324.663 38.8467 324.791 39.0209L327.475 42.6398L332.278 49.1049L334.039 51.469L334.683 52.3404C334.752 52.4275 334.852 52.4798 334.962 52.4798H338.731H343.216C343.495 52.4798 343.658 52.1603 343.501 51.9337C343.001 51.2367 342.432 50.4409 341.793 49.5522C341.067 48.5298 340.254 47.3855 339.353 46.1192C338.627 45.1085 337.849 44.0164 337.012 42.8431C336.891 42.6688 336.763 42.4887 336.634 42.3087C335.473 40.6706 334.439 39.2184 333.545 37.9521C332.046 35.8551 330.913 34.2694 330.147 33.2005C330.053 33.0728 330.065 32.8985 330.176 32.7765L332.9 29.7502L339.441 22.4776L343.373 18.1094C343.425 18.0455 343.455 17.97 343.46 17.8945C343.466 17.7145 343.327 17.5402 343.117 17.5402H339.923V17.5402ZM290.955 17.5402H288.295C288.161 17.5402 288.039 17.6215 287.981 17.7493L278.826 38.9396L278.82 38.9454L278.809 38.9686L278.803 38.9861L277.618 41.7336L277.549 41.9021L277.398 42.2448L277.27 42.5352V42.541L273.709 50.7836L273.186 51.9976C273.087 52.2242 273.25 52.4798 273.5 52.4798H275.951H281.051C281.178 52.4798 281.301 52.4043 281.359 52.2823C281.359 52.2765 281.365 52.2765 281.365 52.2707L283.996 46.1483L284.432 45.1375C284.49 45.0097 284.612 44.9284 284.751 44.9284H298.942C299.082 44.9284 299.203 45.0097 299.256 45.1375L302.178 51.9279V51.9337L302.329 52.2707C302.381 52.3985 302.502 52.4798 302.642 52.4798H309.055H310.194C310.438 52.4798 310.606 52.2242 310.507 51.9976L310.438 51.8408L305.454 40.3047L302.822 34.2113L300.469 28.7685L295.706 17.7493C295.654 17.6215 295.532 17.5402 295.392 17.5402H290.955V17.5402ZM287.679 37.6036L288.585 35.5124L291.553 28.6639C291.675 28.3909 292.065 28.3909 292.187 28.6639L293.842 32.5267L295.515 36.436L296.014 37.6036C296.113 37.8301 295.945 38.0799 295.7 38.0799H290.107H287.993C287.749 38.0799 287.58 37.8301 287.679 37.6036V37.6036ZM218.898 17.5402H215.726C215.534 17.5402 215.383 17.6912 215.383 17.8829V21.1126V30.4007V52.108V52.1371C215.383 52.3229 215.534 52.4798 215.726 52.4798H217.509H224.735H237.729C237.921 52.4798 238.072 52.3229 238.072 52.1371V48.0535V45.8694C238.072 45.6835 237.921 45.5267 237.729 45.5267H224.375H223.521C223.33 45.5267 223.179 45.3757 223.179 45.1898V30.0813V28.2457V19.8288V17.8829C223.179 17.7435 223.097 17.6273 222.981 17.575C222.94 17.5518 222.888 17.5402 222.835 17.5402H218.898ZM175.616 17.5402H172.73C172.608 17.5402 172.497 17.6041 172.433 17.7086L165.492 29.6572L165.486 29.663V29.6688L165.114 29.9418L164.836 30.1568C164.778 30.1277 164.725 30.0813 164.69 30.0232L164.574 29.8257L164.4 29.5294L157.539 17.7086C157.475 17.6041 157.366 17.5402 157.244 17.5402H149.582C149.32 17.5402 149.158 17.8248 149.286 18.0513L152.608 23.8601L158.62 34.3681L161.042 38.6027C161.072 38.6549 161.088 38.7131 161.088 38.7711V44.8645V49.4883V52.1371C161.088 52.3229 161.24 52.4798 161.432 52.4798H161.484H166.88H168.542C168.733 52.4798 168.884 52.3229 168.884 52.1371V49.1978V48.2859V47.1183V38.7711C168.884 38.7131 168.902 38.6549 168.93 38.6027L170.644 35.6054L177.15 24.2318L178.48 21.9142L179.363 20.3691V20.3632L180.687 18.0513C180.821 17.8248 180.653 17.5402 180.391 17.5402H175.616ZM141.601 17.5402H138.922H134.491H133.887H132.254H121.497C121.304 17.5402 121.154 17.6912 121.154 17.8829V23.8601V41.3328V43.1103V52.1371C121.154 52.3229 121.304 52.4798 121.497 52.4798H125.057H142.292H144.952H146.549C146.741 52.4798 146.892 52.3229 146.892 52.1371V48.2742V45.9217C146.892 45.7358 146.741 45.579 146.549 45.579H129.292C129.106 45.579 128.949 45.428 128.949 45.2363V41.9195V38.6724C128.949 38.4865 129.106 38.3297 129.292 38.3297H144.255C144.441 38.3297 144.598 38.1786 144.598 37.9869V32.0272C144.598 31.8355 144.441 31.6845 144.255 31.6845H129.292C129.106 31.6845 128.949 31.5334 128.949 31.3417V28.3619V24.8302C128.949 24.6385 129.106 24.4874 129.292 24.4874H130.837H139.248H142.71H146.004C146.189 24.4874 146.346 24.3364 146.346 24.1447V20.2645V17.8829C146.346 17.6912 146.189 17.5402 146.004 17.5402H141.601V17.5402ZM111.313 17.5402H108.328C108.229 17.5402 108.136 17.5809 108.073 17.6506L102.665 23.5232L95.5722 31.2372C95.3631 31.4695 94.9797 31.3185 94.9797 31.0049V20.3516V17.8771C94.9739 17.6854 94.8287 17.5402 94.637 17.5402H92.1973H90.9305H87.5265C87.3354 17.5402 87.1844 17.6912 87.1844 17.8829V17.9236V23.5871V34.8793V47.066V52.1371C87.1844 52.3229 87.3354 52.4798 87.5265 52.4798H92.511H94.5377H94.637C94.8287 52.4798 94.9797 52.3229 94.9797 52.1371V42.7095C94.9797 42.6281 95.0082 42.5468 95.0663 42.4829L96.5481 40.8274L98.1972 38.9919C98.343 38.835 98.5986 38.8467 98.7258 39.0209L103.658 45.6545L107.201 50.4235L108.624 52.3404C108.688 52.4275 108.787 52.4798 108.897 52.4798H110.146H117.158C117.436 52.4798 117.599 52.1603 117.436 51.9337C117.338 51.7943 117.239 51.6549 117.134 51.5097C116.246 50.2725 115.165 48.7564 113.893 46.9673C112.9 45.579 111.795 44.028 110.576 42.3087C110.535 42.2506 110.495 42.1925 110.454 42.1344C107.422 37.8708 105.296 34.8909 104.082 33.2005C103.989 33.0728 104.006 32.8985 104.111 32.7765L107.225 29.3203V29.3145L109.786 26.4682L112.249 23.7323L117.309 18.1094C117.506 17.8887 117.349 17.5402 117.053 17.5402H111.313V17.5402Z" fill="url(#paint0_linear)"/>
<path d="M12.0243 33.2333L1.15618 37.1775L0.0873753 35.3245C-0.0287996 35.1212 -0.0287996 34.8772 0.0873753 34.6797L5.00738 26.1583L12.0243 33.2333Z" fill="#E1E1E1"/>
<path d="M343.216 52.4777H338.731L334.636 49.9102L341.793 49.5501C342.432 50.4388 343.001 51.2346 343.5 51.9317C343.657 52.1582 343.495 52.4777 343.216 52.4777Z" fill="#585858"/>
<path d="M338.731 52.4777H334.961C334.851 52.4777 334.752 52.4254 334.683 52.3383L334.038 51.467L334.636 49.9102L338.731 52.4777Z" fill="#585858"/>
<path d="M343.46 17.8924C343.454 17.968 343.425 18.0435 343.373 18.1074L339.44 22.4755L339.196 20.0243L343.46 17.8924Z" fill="#696969"/>
<path d="M341.793 49.5501L334.636 49.9102L339.353 46.1171C340.253 47.3834 341.067 48.5278 341.793 49.5501Z" fill="#5E5E5E"/>
<path d="M343.46 17.8924L339.196 20.0242L339.922 17.5381H343.117C343.326 17.5381 343.465 17.7124 343.46 17.8924Z" fill="#6D6D6D"/>
<path d="M339.353 46.1171L334.636 49.9102L337.012 42.841C337.848 44.0144 338.627 45.1064 339.353 46.1171Z" fill="#636363"/>
<path d="M339.922 17.5381L339.196 20.0243L335.054 17.5381H339.922Z" fill="#737373"/>
<path d="M321.044 17.8808V21.4183L313.249 22.0224V17.8808C313.249 17.6891 313.4 17.5381 313.591 17.5381H320.701C320.887 17.5381 321.044 17.6891 321.044 17.8808Z" fill="#757575"/>
<path d="M339.196 20.0243L331.401 20.6226L334.137 17.6485C334.201 17.5788 334.294 17.5381 334.387 17.5381H335.055L339.196 20.0243Z" fill="#757575"/>
<path d="M337.012 42.841L334.636 49.9102L332.278 49.1028L327.474 42.6377L333.544 37.95C334.439 39.2163 335.473 40.6685 336.635 42.3066C336.762 42.4867 336.89 42.6667 337.012 42.841Z" fill="#646464"/>
<path d="M321.044 21.4184V25.2579L313.249 22.3071V22.0225L321.044 21.4184Z" fill="#6D6D6D"/>
<path d="M339.44 22.4756L332.899 29.7481L325.563 26.9715L331.401 20.6226L339.196 20.0243L339.44 22.4756Z" fill="#6D6D6D"/>
<path d="M333.544 37.95L327.474 42.6377L324.79 39.0188C324.662 38.8446 324.407 38.8329 324.262 38.9898L321.45 42.1207L313.248 23.5037V22.3071L321.044 25.2579V31.0028C321.044 31.3164 321.427 31.4675 321.636 31.2351L325.563 26.9715L332.899 29.7481L330.175 32.7744C330.065 32.8964 330.053 33.0707 330.146 33.1985C330.913 34.2673 332.045 35.8531 333.544 37.95Z" fill="#6C6C6C"/>
<path d="M334.636 49.9102L334.038 51.467L332.278 49.1028L334.636 49.9102Z" fill="#606060"/>
<path d="M321.45 42.1207L321.131 42.4808C321.073 42.5447 321.044 42.626 321.044 42.7074V44.1886L313.249 37.5724V23.5036L321.45 42.1207Z" fill="#707070"/>
<path d="M310.507 51.9956C310.605 52.2221 310.437 52.4777 310.193 52.4777H309.054L310.437 51.8387L310.507 51.9956Z" fill="#636363"/>
<path d="M321.044 46.9478V52.135C321.044 52.3208 320.887 52.4777 320.701 52.4777H313.591C313.4 52.4777 313.249 52.3208 313.249 52.135V50.5434L321.044 46.9478Z" fill="#636363"/>
<path d="M310.437 51.8387L309.055 52.4777H302.642C302.502 52.4777 302.38 52.3964 302.328 52.2686L302.177 51.9317V51.9258L305.453 40.3025L310.437 51.8387Z" fill="#6D6D6D"/>
<path d="M321.044 44.1886V46.9477L313.249 50.5434V37.5724L321.044 44.1886Z" fill="#6D6D6D"/>
<path d="M305.453 40.3026L302.177 51.9259L299.255 45.1355C299.203 45.0077 299.081 44.9263 298.941 44.9263H284.751C284.611 44.9263 284.489 45.0077 284.431 45.1355L283.995 46.1462L277.397 42.2427L277.548 41.9L290.106 38.0778H295.7C295.944 38.0778 296.112 37.8281 296.014 37.6015L295.514 36.434L302.822 34.2092L305.453 40.3026Z" fill="#767676"/>
<path d="M290.106 38.0778L277.548 41.9L277.618 41.7315L288.584 35.5104L287.678 37.6015C287.58 37.828 287.748 38.0778 287.992 38.0778H290.106Z" fill="#797979"/>
<path d="M302.822 34.2092L295.514 36.4339L293.841 32.5247L300.469 28.7664L302.822 34.2092Z" fill="#797979"/>
<path d="M283.996 46.1462L281.364 52.2686C281.364 52.2744 281.358 52.2744 281.358 52.2802L277.269 42.539V42.5331L277.397 42.2427L283.996 46.1462Z" fill="#757575"/>
<path d="M300.469 28.7664L293.841 32.5246L292.186 28.6618C292.064 28.3888 291.675 28.3888 291.553 28.6618L288.584 35.5103L277.617 41.7315L278.802 38.984L278.808 38.9665L278.82 38.9433L278.826 38.9375L290.954 17.5381H295.392C295.532 17.5381 295.654 17.6194 295.706 17.7472L300.469 28.7664Z" fill="#7F7F7F"/>
<path d="M273.365 27.4014C274.109 29.0801 274.562 30.8982 274.742 32.8441L273.365 27.4014Z" fill="#868686"/>
<path d="M290.954 17.5381L278.826 38.9375L287.98 17.7473C288.038 17.6195 288.16 17.5381 288.294 17.5381H290.954Z" fill="#868686"/>
<path d="M274.829 34.7843C274.829 37.224 274.429 39.4778 273.621 41.5399L265.576 40.3607C266.447 38.711 266.883 36.8638 266.883 34.8075C266.883 31.8625 265.989 29.3241 264.194 27.1923L267.336 20.0649C268.103 20.611 268.835 21.2267 269.532 21.9121C271.211 23.5502 272.488 25.3799 273.366 27.4014L274.742 32.8442V32.8558C274.8 33.4831 274.829 34.1279 274.829 34.7843Z" fill="#8A8A8A"/>
<path d="M265.896 44.8741L272.924 43.0966C272.082 44.7405 270.955 46.2565 269.549 47.6332L265.896 44.8741Z" fill="#7D7D7D"/>
<path d="M281.359 52.2802C281.301 52.4022 281.179 52.4777 281.051 52.4777H275.951L273.708 50.7816L277.269 42.5389L281.359 52.2802Z" fill="#7D7D7D"/>
<path d="M265.896 44.874L269.549 47.6332C269.543 47.639 269.538 47.6448 269.532 47.6506C268.922 48.2489 268.283 48.7949 267.621 49.2887L265.896 44.874Z" fill="#797979"/>
<path d="M275.95 52.4777H273.499C273.249 52.4777 273.087 52.2221 273.186 51.9956L273.708 50.7815L275.95 52.4777Z" fill="#797979"/>
<path d="M273.621 41.5398C273.418 42.0742 273.186 42.5912 272.924 43.0966L265.896 44.874L263.578 43.0733C263.682 42.9688 263.787 42.8642 263.886 42.7538C264.565 42.0103 265.129 41.2145 265.576 40.3606L273.621 41.5398Z" fill="#868686"/>
<path d="M267.621 49.2887C264.786 51.4089 261.498 52.5764 257.758 52.7856L265.896 44.874L267.621 49.2887Z" fill="#7D7D7D"/>
<path d="M267.336 20.0649L264.194 27.1923C264.101 27.0703 263.996 26.9483 263.886 26.8321C261.888 24.6364 259.431 23.5386 256.515 23.5386C255.73 23.5386 254.981 23.6199 254.261 23.7767L252.326 17.1489C253.645 16.8701 255.033 16.7365 256.485 16.7365C260.633 16.7365 264.246 17.846 267.336 20.0649Z" fill="#919191"/>
<path d="M265.896 44.8741L257.758 52.7856C257.339 52.8146 256.915 52.8262 256.485 52.8262C252.623 52.8262 249.219 51.862 246.268 49.9335L247.18 45.0309L252.018 44.9902C253.372 45.6815 254.871 46.03 256.514 46.03C258.216 46.03 259.762 45.6582 261.15 44.9147L265.896 44.8741Z" fill="#858585"/>
<path d="M254.261 23.7767C252.309 24.2066 250.601 25.2289 249.143 26.8321C247.197 28.9697 246.198 31.5372 246.146 34.5345L238.397 31.5778L238.217 31.5081L238.472 31.1248L246.076 19.7629C247.97 18.4849 250.043 17.6136 252.32 17.1489H252.326L254.261 23.7767Z" fill="#929292"/>
<path d="M250.049 43.6368C250.665 44.1828 251.321 44.6301 252.018 44.9903L247.18 45.0309L250.049 43.6368Z" fill="#898989"/>
<path d="M265.895 44.874L261.15 44.9147C262.021 44.45 262.834 43.8343 263.578 43.0733L265.895 44.874Z" fill="#898989"/>
<path d="M250.049 43.6368L247.18 45.0309L238.374 31.7463V31.7405L238.217 31.5082L238.397 31.5779L246.146 34.5345C246.14 34.6275 246.14 34.7146 246.14 34.8075C246.14 37.921 247.139 40.5698 249.143 42.7539C249.433 43.0734 249.736 43.3696 250.049 43.6368Z" fill="#8F8F8F"/>
<path d="M246.076 19.7628L238.472 31.1247C239.129 27.5756 240.79 24.5086 243.445 21.9121C244.275 21.0988 245.152 20.3844 246.076 19.7628" fill="#999999"/>
<path d="M224.735 52.4777L238.072 48.0514V52.135C238.072 52.3208 237.921 52.4777 237.729 52.4777H224.735Z" fill="#898989"/>
<path d="M247.18 45.0309L246.268 49.9335C245.274 49.2829 244.333 48.5219 243.445 47.6506C243.096 47.3079 242.759 46.9594 242.451 46.5992L247.18 45.0309Z" fill="#898989"/>
<path d="M238.071 45.8673V48.0514L224.735 52.4777H217.509L224.374 45.5246H237.729C237.92 45.5246 238.071 45.6814 238.071 45.8673Z" fill="#919191"/>
<path d="M247.18 45.0309L242.451 46.5992C239.582 43.3405 238.147 39.4022 238.147 34.7843C238.147 33.7329 238.223 32.7222 238.374 31.7463L247.18 45.0309Z" fill="#919191"/>
<path d="M224.375 45.5246L217.509 52.4777H215.725C215.534 52.4777 215.383 52.3208 215.383 52.135V52.1059L223.178 30.0792V45.1877C223.178 45.3736 223.329 45.5246 223.521 45.5246H224.375Z" fill="#979797"/>
<path d="M223.178 17.8808V19.8267L222.98 17.5729C223.097 17.6252 223.178 17.7414 223.178 17.8808Z" fill="#9F9F9F"/>
<path d="M211.549 23.0506C211.665 23.1842 211.671 23.3875 211.555 23.5153L207.169 28.4876C207.036 28.6444 206.792 28.6328 206.658 28.476C204.974 26.4894 203.016 25.1882 200.785 24.5841L199.078 16.8062C203.957 17.1954 208.116 19.2807 211.549 23.0506Z" fill="#A6A6A6"/>
<path d="M218.897 17.5381L215.383 21.1105V17.8808C215.383 17.6891 215.534 17.5381 215.725 17.5381H218.897Z" fill="#A6A6A6"/>
<path d="M223.178 19.8268V28.2437L215.383 30.3987V21.1105L218.897 17.5381H222.835C222.887 17.5381 222.94 17.5498 222.98 17.573L223.178 19.8268Z" fill="#A0A0A0"/>
<path d="M211.328 45.9428C211.456 46.0764 211.462 46.2856 211.34 46.4192C210.863 46.9419 210.376 47.4357 209.882 47.8888L206.519 41.2029C206.629 41.1855 206.739 41.2145 206.821 41.3016L211.328 45.9428Z" fill="#9B9B9B"/>
<path d="M223.178 28.2436V30.0792L215.383 52.106V30.3987L223.178 28.2436Z" fill="#9B9B9B"/>
<path d="M209.882 47.8888C207.413 50.1716 204.706 51.6703 201.75 52.3789L202.208 44.5255C203.742 43.8168 205.113 42.748 206.315 41.3249C206.367 41.261 206.443 41.2203 206.518 41.2029L209.882 47.8888Z" fill="#999999"/>
<path d="M202.209 44.5255L201.75 52.3789C201.221 52.5067 200.687 52.6113 200.146 52.6868H200.135H200.129L189.429 51.2869H189.424L189.418 51.2811H189.406C189.162 51.1765 188.924 51.0662 188.692 50.95L193.629 44.9786C194.721 45.3794 195.9 45.5769 197.161 45.5769C199.002 45.5769 200.687 45.2284 202.209 44.5255" fill="#9D9D9D"/>
<path d="M193.629 44.9786L188.691 50.95C188.366 50.7874 188.047 50.6131 187.733 50.433H187.727L181.924 45.0077C181.924 45.0077 181.924 45.0019 181.918 45.0019C181.918 45.0019 181.918 44.9961 181.913 44.9961V44.9902C181.198 43.9156 180.606 42.7887 180.158 41.5689L187.733 38.9956C188.221 40.3839 188.982 41.5921 190.016 42.6261C191.096 43.7065 192.299 44.4907 193.629 44.9786Z" fill="#A3A3A3"/>
<path d="M176.871 21.1221L179.363 20.367L178.48 21.9121L176.871 21.1221Z" fill="#AAAAAA"/>
<path d="M200.785 24.5841C199.815 24.3169 198.787 24.1833 197.713 24.1833C194.779 24.1833 192.27 25.1418 190.19 27.0586C190.045 27.1922 189.911 27.3258 189.778 27.4594L182.581 23.9277V23.9219C183.109 23.2307 183.696 22.5685 184.341 21.9353C187.89 18.4733 192.229 16.7365 197.364 16.7365C197.945 16.7365 198.514 16.7597 199.078 16.8062L200.785 24.5841Z" fill="#AAAAAA"/>
<path d="M176.871 21.1221L178.48 21.9121L177.15 24.2298L176.871 21.1221Z" fill="#A9A9A9"/>
<path d="M187.065 34.8075C187.065 36.3468 187.286 37.7409 187.733 38.9956L180.159 41.5689C179.398 39.5416 179.02 37.3227 179.02 34.9063C179.02 30.6717 180.205 27.0122 182.581 23.9277L189.778 27.4595C187.965 29.3299 187.065 31.7812 187.065 34.8075Z" fill="#A9A9A9"/>
<path d="M189.417 51.2811H189.423V51.2869L189.417 51.2811Z" fill="#989898"/>
<path d="M200.129 52.6868C199.287 52.8088 198.421 52.8727 197.538 52.8727C194.535 52.8727 191.834 52.3441 189.429 51.2869L200.129 52.6868Z" fill="#989898"/>
<path d="M180.687 18.0492L179.363 20.3611L176.871 21.1221L175.616 17.5381H180.391C180.652 17.5381 180.821 17.8227 180.687 18.0492Z" fill="#B1B1B1"/>
<path d="M168.884 48.2838V49.1958L167.118 48.0224L168.884 48.2838Z" fill="#9E9E9E"/>
<path d="M168.884 49.1958V52.135C168.884 52.3209 168.733 52.4777 168.541 52.4777H166.88L167.118 48.0224L168.884 49.1958Z" fill="#9D9D9D"/>
<path d="M167.118 48.0224L168.884 47.1162V48.2838L167.118 48.0224Z" fill="#A4A4A4"/>
<path d="M187.727 50.433C186.473 49.7069 185.317 48.824 184.242 47.7784C183.353 46.9129 182.581 45.9893 181.924 45.0076L187.727 50.433Z" fill="#A4A4A4"/>
<path d="M177.15 24.2298L170.644 35.6033L164.289 30.5613L164.835 30.1547L165.114 29.9398L165.486 29.6668V29.661L165.491 29.6551L176.871 21.1221L177.15 24.2298Z" fill="#AEAEAE"/>
<path d="M170.644 35.6033L168.93 38.6006C168.901 38.6529 168.884 38.711 168.884 38.7691V47.1162L167.118 48.0224L164.289 30.5613L170.644 35.6033Z" fill="#ABABAB"/>
<path d="M164.69 30.0211C164.725 30.0792 164.777 30.1256 164.835 30.1547L164.289 30.5613L164.574 29.8236L164.69 30.0211Z" fill="#B4B4B4"/>
<path d="M176.871 21.1221L165.491 29.6551L172.433 17.7066C172.497 17.602 172.607 17.5381 172.729 17.5381H175.616L176.871 21.1221Z" fill="#B4B4B4"/>
<path d="M167.118 48.0224L166.88 52.4777H161.483L167.118 48.0224Z" fill="#A2A2A2"/>
<path d="M146.346 17.8808V20.2624L141.6 17.5381H146.003C146.189 17.5381 146.346 17.6891 146.346 17.8808Z" fill="#BCBCBC"/>
<path d="M164.399 29.5273L164.289 30.5613L152.608 23.858L149.285 18.0493C149.157 17.8227 149.32 17.5381 149.581 17.5381H157.243C157.365 17.5381 157.475 17.602 157.539 17.7065L164.399 29.5273Z" fill="#BCBCBC"/>
<path d="M164.574 29.8236L164.289 30.5613L164.399 29.5273L164.574 29.8236Z" fill="#B8B8B8"/>
<path d="M167.118 48.0224L161.483 52.4777H161.431C161.239 52.4777 161.088 52.3208 161.088 52.135V49.4862L167.118 48.0224Z" fill="#A9A9A9"/>
<path d="M161.088 44.8624V38.7691C161.088 38.711 161.071 38.6529 161.042 38.6006L158.62 34.366L164.289 30.5613L167.118 48.0224L161.088 44.8624Z" fill="#B0B0B0"/>
<path d="M144.952 52.4777L146.892 48.2721V52.135C146.892 52.3208 146.741 52.4777 146.549 52.4777H144.952Z" fill="#AEAEAE"/>
<path d="M167.118 48.0224L161.088 49.4862V44.8624L167.118 48.0224Z" fill="#AEAEAE"/>
<path d="M146.346 20.2624V24.1427C146.346 24.3344 146.189 24.4854 146.003 24.4854H142.709L138.922 17.5381H141.6L146.346 20.2624Z" fill="#B9B9B9"/>
<path d="M164.289 30.5613L158.62 34.366L152.608 23.858L164.289 30.5613Z" fill="#B9B9B9"/>
<path d="M142.709 24.4854H139.247L134.083 17.8227L134.49 17.5381H138.922L142.709 24.4854Z" fill="#BFBFBF"/>
<path d="M146.892 45.9196V48.2721L144.952 52.4777H142.291L121.972 42.6725L128.949 41.9174V45.2342C128.949 45.4259 129.106 45.5769 129.291 45.5769H146.549C146.741 45.5769 146.892 45.7337 146.892 45.9196Z" fill="#B5B5B5"/>
<path d="M139.247 24.4854H130.836L134.084 17.8227L139.247 24.4854Z" fill="#BDBDBD"/>
<path d="M144.597 32.0251V37.9849C144.597 38.1766 144.441 38.3276 144.255 38.3276H129.291C129.106 38.3276 128.949 38.4845 128.949 38.6703V41.9174L121.972 42.6726L128.949 28.3598V31.3397C128.949 31.5314 129.106 31.6824 129.291 31.6824H144.255C144.441 31.6824 144.597 31.8334 144.597 32.0251Z" fill="#BDBDBD"/>
<path d="M142.291 52.4777H125.057L121.972 42.6725L142.291 52.4777Z" fill="#B6B6B6"/>
<path d="M134.084 17.8228L130.836 24.4854H129.291C129.105 24.4854 128.949 24.6364 128.949 24.8281V28.3598L121.972 42.6726L121.153 41.3307V23.858L134.084 17.8228Z" fill="#C3C3C3"/>
<path d="M117.308 18.1073L112.248 23.7302L111.313 17.5381H117.052C117.349 17.5381 117.505 17.8866 117.308 18.1073Z" fill="#C9C9C9"/>
<path d="M134.084 17.8227L121.153 23.858V17.8808C121.153 17.6891 121.304 17.5381 121.496 17.5381H132.254L134.084 17.8227Z" fill="#C9C9C9"/>
<path d="M113.892 46.9652C115.164 48.7543 116.245 50.2704 117.134 51.5076L109.234 49.4397L113.892 46.9652Z" fill="#BBBBBB"/>
<path d="M125.057 52.4777H121.496C121.304 52.4777 121.153 52.3208 121.153 52.135V43.1082L121.972 42.6725L125.057 52.4777Z" fill="#BBBBBB"/>
<path d="M117.157 52.4777H110.146L109.234 49.4397L117.134 51.5076C117.238 51.6528 117.337 51.7922 117.436 51.9317C117.598 52.1582 117.436 52.4777 117.157 52.4777Z" fill="#B6B6B6"/>
<path d="M110.575 42.3066C111.795 44.026 112.899 45.5769 113.892 46.9652L109.234 49.4397L110.453 42.1323C110.494 42.1904 110.535 42.2485 110.575 42.3066Z" fill="#C1C1C1"/>
<path d="M121.972 42.6725L121.153 43.1082V41.3307L121.972 42.6725Z" fill="#C1C1C1"/>
<path d="M110.453 42.1323L109.234 49.4397L103.657 45.6524L98.7255 39.0188C98.5977 38.8446 98.3421 38.8329 98.1969 38.9898L96.5472 40.8253L87.6831 34.8075L107.224 29.3182L104.11 32.7744C104.006 32.8964 103.988 33.0707 104.081 33.1985C105.295 34.8888 107.421 37.8687 110.453 42.1323Z" fill="#C6C6C6"/>
<path d="M110.146 52.4777H108.897C108.786 52.4777 108.688 52.4254 108.624 52.3383L107.201 50.4214L109.234 49.4397L110.146 52.4777Z" fill="#B8B8B8"/>
<path d="M91.1453 18.7637L94.979 17.875V20.3495L91.1453 18.7637Z" fill="#CDCDCD"/>
<path d="M112.248 23.7302L109.785 26.4662L102.665 23.5234L108.072 17.6485C108.136 17.5788 108.229 17.5381 108.327 17.5381L111.314 17.5404L112.248 23.7302Z" fill="#CDCDCD"/>
<path d="M109.786 26.4661L107.224 29.3124V29.3182L87.6833 34.8075L91.1454 18.7637L94.9791 20.3495V31.0028C94.9791 31.3164 95.3625 31.4675 95.5716 31.2351L102.665 23.5234L109.786 26.4661Z" fill="#CCCCCC"/>
<path d="M87.6833 34.8075L96.5475 40.8253L95.0663 42.4808C95.0082 42.5447 94.9791 42.626 94.9791 42.7074V52.135C94.9791 52.3208 94.8281 52.4777 94.6364 52.4777H94.5377L87.6833 34.8075Z" fill="#C2C2C2"/>
<path d="M109.234 49.4397L107.201 50.4214L103.657 45.6524L109.234 49.4397Z" fill="#C2C2C2"/>
<path d="M76.6758 36.3817L83.838 35.3593V43.6658L76.6758 36.3817Z" fill="#C8C8C8"/>
<path d="M94.5377 52.4777H92.5105L87.1838 47.0639V34.8772L87.6834 34.8075L94.5377 52.4777Z" fill="#C8C8C8"/>
<path d="M76.6757 36.3817L83.8379 43.6658V51.7806C83.8379 52.1756 83.5184 52.5009 83.1234 52.5009H74.7878L76.6757 36.3817Z" fill="#C2C2C2"/>
<path d="M92.5105 52.4777H87.5266C87.3349 52.4777 87.1838 52.3208 87.1838 52.135V47.0639L92.5105 52.4777Z" fill="#C2C2C2"/>
<path d="M76.6756 36.3817L74.7878 52.5009H64.7677L61.7297 45.1877L76.6756 36.3817Z" fill="#C7C7C7"/>
<path d="M76.6758 36.3817L83.838 27.6627V35.3593L76.6758 36.3817Z" fill="#CECECE"/>
<path d="M91.1452 18.7638L87.6831 34.8075L87.1836 34.8772V23.585L91.1452 18.7638Z" fill="#CECECE"/>
<path d="M83.8377 18.2235V27.6627L76.6756 36.3817L71.2734 17.4974H83.1117C83.5125 17.4974 83.8377 17.8227 83.8377 18.2235Z" fill="#D3D3D3"/>
<path d="M91.1452 18.7637L87.1836 23.585V17.9215L91.1452 18.7637Z" fill="#D3D3D3"/>
<path d="M64.7679 52.5009H59.4819L58.1111 50.5376L61.7299 45.1877L64.7679 52.5009Z" fill="#C6C6C6"/>
<path d="M76.6757 36.3817L56.8499 28.0008L67.2771 17.4974H71.2735L76.6757 36.3817Z" fill="#D5D5D5"/>
<path d="M56.8501 28.0009L61.73 45.1878L76.6759 36.3818L56.8501 28.0009Z" fill="#D0D0D0"/>
<path d="M59.4819 52.5009H58.0471L58.111 50.5376L59.4819 52.5009Z" fill="#BFBFBF"/>
<path d="M67.2772 17.4974L56.85 28.0008L54.9685 18.6069L58.994 17.4974H67.2772Z" fill="#D9D9D9"/>
<path d="M56.8502 28.0009L32.7881 33.5506L58.1113 50.5376L56.8502 28.0009Z" fill="#D4D4D4"/>
<path d="M56.8501 28.0009L58.1112 50.5376L61.73 45.1878L56.8501 28.0009Z" fill="#D0D0D0"/>
<path d="M54.9684 18.6069L32.7883 33.5505L56.8499 28.0008L54.9684 18.6069Z" fill="#D9D9D9"/>
<path d="M32.7883 33.5506L22.3582 52.501H16.4158L12.0244 33.2334L32.7883 33.5506Z" fill="#D8D8D8"/>
<path d="M22.0969 17.4975L12.0245 33.2334L9.45703 18.4443L9.81717 17.8228C9.81717 17.8228 9.81717 17.8111 9.82298 17.8111C9.94497 17.6195 10.1483 17.4975 10.3806 17.4975H22.0969Z" fill="#E2E2E2"/>
<path d="M16.4158 52.5009H10.3805C10.1482 52.5009 9.93326 52.3789 9.81709 52.1756L1.15625 37.1775L12.0244 33.2333L16.4158 52.5009Z" fill="#D8D8D8"/>
<path d="M12.0243 33.2333L5.00732 26.1583L9.45682 18.4443L12.0243 33.2333Z" fill="#E4E4E4"/>
<path d="M43.7809 17.4974H36.8394H26.2112L32.7884 33.5505L54.9685 18.6069L48.2832 17.4974H43.7809Z" fill="#DEDEDE"/>
<path d="M23.4676 17.4974H22.0968L12.0244 33.2333L32.7883 33.5505L26.2111 17.4974H23.4676Z" fill="#DEDEDE"/>
<path d="M53.2827 52.5009H57.1525H58.047L58.1109 50.5376L53.2827 52.5009Z" fill="#C5C5C5"/>
<path d="M58.111 50.5376L32.7883 33.5505L37.3505 52.5009H43.7808H53.2827L58.111 50.5376Z" fill="#D0D0D0"/>
<path d="M22.3582 52.5009H23.4676H36.8394H37.3505L32.7883 33.5505L22.3582 52.5009Z" fill="#D1D1D1"/>
<path d="M134.49 17.5381L134.083 17.8227L133.886 17.5381H134.49Z" fill="#C8C8C8"/>
<path d="M134.083 17.8227L132.254 17.5381H133.886L134.083 17.8227Z" fill="#CBCBCB"/>
<path d="M94.979 17.875L91.1453 18.7637L92.1966 17.5381H94.6363C94.828 17.5381 94.9732 17.6833 94.979 17.875Z" fill="#D1D1D1"/>
<path d="M92.1967 17.5381L91.1453 18.7637L90.9304 17.5381H92.1967Z" fill="#D7D7D7"/>
<path d="M91.1452 18.7637L87.1836 17.9215V17.8808C87.1836 17.6891 87.3346 17.5381 87.5263 17.5381H90.9302L91.1452 18.7637Z" fill="#D9D9D9"/>
<path d="M55.037 17.4974L54.9685 18.6069L58.994 17.4974H57.1526H55.037Z" fill="#DDDDDD"/>
<path d="M48.283 17.4974L54.9682 18.6069L54.3514 17.4974H48.283Z" fill="#E3E3E3"/>
<path d="M54.3516 17.4974L54.9685 18.6069L55.037 17.4974H54.3516Z" fill="#E2E2E2"/>
<path d="M36.7745 17.7993L26.9914 34.7405C26.9443 34.823 26.9205 34.9229 26.9205 35.017H20.0981L33.5192 11.7599C33.6017 11.807 33.6726 11.8715 33.7196 11.9539L33.7371 11.972L36.7803 17.2579C36.8686 17.4287 36.8628 17.6285 36.7745 17.7993Z" fill="#00B8E3"/>
<path d="M36.7628 52.8235L33.7254 58.0863C33.6725 58.1682 33.6017 58.2332 33.5192 58.2803L20.0923 35.0232V35.0168H26.9205C26.9205 35.1115 26.9385 35.1998 26.9855 35.2823C26.9855 35.2939 26.9913 35.2997 26.9971 35.3113L36.7628 52.2409C36.8685 52.4233 36.8685 52.6411 36.7628 52.8235Z" fill="#33C6E9"/>
<path d="M33.5195 11.7599L20.0984 35.0169H20.0926V35.0228L16.7252 40.8565L13.5113 35.2818C13.4642 35.1993 13.4468 35.111 13.4468 35.0169C13.4468 34.9228 13.4706 34.8229 13.5176 34.7405L16.7729 29.1013L26.6617 11.9777C26.7616 11.7953 26.9562 11.6832 27.1624 11.6832H33.2308C33.3313 11.6832 33.437 11.7128 33.5195 11.7599Z" fill="#008AAA"/>
<path d="M33.5193 58.2803C33.4369 58.3274 33.3311 58.357 33.2306 58.357H27.1622C26.956 58.357 26.7614 58.2449 26.6615 58.0625L17.6202 42.4108L16.7251 40.8564L20.0924 35.0233L33.5193 58.2803Z" fill="#00B8E3"/>
<path d="M60.5145 35.0171L47.0818 58.2805C47.0051 58.2329 46.9342 58.1684 46.8814 58.0859L46.8698 58.0685L43.8266 52.7941C43.7383 52.6234 43.7441 52.4171 43.8324 52.2528L53.6038 35.3116C53.6567 35.2233 53.6863 35.1228 53.6863 35.0171H60.5145Z" fill="#008AAA"/>
<path d="M67.1603 35.0171C67.1603 35.1228 67.1307 35.2233 67.0778 35.3116L53.9274 58.0859C53.8275 58.2509 53.6393 58.3566 53.4389 58.3566H47.3763C47.27 58.3566 47.1701 58.3276 47.0818 58.2805L60.5145 35.0171L63.8818 29.1897L67.0778 34.7284C67.1307 34.8172 67.1603 34.9172 67.1603 35.0171Z" fill="#00B8E3"/>
<path d="M60.5144 35.0171H53.6862C53.6862 34.9172 53.6566 34.8173 53.6037 34.7284L43.8381 17.8052C43.7324 17.6286 43.7324 17.405 43.8381 17.2226L46.8813 11.954C46.9341 11.8716 47.005 11.8071 47.0817 11.76L60.5144 35.0171Z" fill="#00B8E3"/>
<path d="M63.8816 29.1837V29.1895L60.5143 35.0168L47.0815 11.7598C47.1698 11.7127 47.2703 11.6831 47.376 11.6831H53.4392C53.639 11.6831 53.8278 11.7894 53.9277 11.9544L63.8816 29.1837Z" fill="#33C6E9"/>
<defs>
<linearGradient id="paint0_linear" x1="-0.784034" y1="35.5161" x2="345.649" y2="35.5161" gradientUnits="userSpaceOnUse">
<stop stop-color="#E6E7E8"/>
<stop offset="1" stop-color="#77787B"/>
</linearGradient>
</defs>
</svg>
