<svg width="32" height="32" viewBox="0 0 32 32" fill="none" xmlns="http://www.w3.org/2000/svg">
<path d="M10.2605 30.6166C9.5173 30.6166 8.81536 30.2862 8.34052 29.6876L1.11471 20.7068C0.639872 20.1082 0.454066 19.3443 0.639872 18.6011L3.22052 7.39074C3.38568 6.64752 3.88116 6.0488 4.56246 5.71848L15.0089 0.722351C15.3392 0.557189 15.7108 0.474609 16.0825 0.474609C16.4541 0.474609 16.8257 0.557189 17.156 0.722351L27.6024 5.69784C28.2838 6.02816 28.7792 6.62686 28.9444 7.3701L31.525 18.5804C31.6902 19.3236 31.525 20.0876 31.0502 20.6862L23.8244 29.6668C23.3496 30.245 22.6476 30.5958 21.9044 30.5958L10.2605 30.6166Z" fill="#326DE6"/>
<path d="M16.0619 0.99083C16.3509 0.99083 16.64 1.05277 16.9084 1.17664L27.3548 6.15212C27.8916 6.4205 28.3044 6.916 28.4284 7.49406L31.009 18.7044C31.1536 19.3031 31.009 19.9224 30.6168 20.3972L23.391 29.378C23.0194 29.8528 22.4412 30.1212 21.8426 30.1212H10.2606C9.6619 30.1212 9.08384 29.8528 8.71222 29.378L1.48642 20.3972C1.11481 19.9224 0.97029 19.3031 1.09416 18.7044L3.6748 7.49406C3.81932 6.89534 4.21158 6.39986 4.74836 6.15212L15.1948 1.15599C15.4632 1.05277 15.7729 0.99083 16.0619 0.99083ZM16.0619 0.0205078C15.6284 0.0205078 15.1948 0.123734 14.7819 0.30954L4.33546 5.30566C3.50964 5.69792 2.93158 6.4205 2.72512 7.30824L0.144483 18.5186C-0.0619684 19.4063 0.144483 20.3148 0.722548 21.0372L7.94836 30.018C8.50578 30.7198 9.35222 31.1122 10.24 31.1122H21.822C22.7096 31.1122 23.556 30.7198 24.1136 30.018L31.3394 21.0372C31.9174 20.3354 32.1238 19.4063 31.9174 18.5186L29.3368 7.30824C29.1302 6.4205 28.5522 5.69792 27.7264 5.30566L17.3213 0.30954C16.929 0.123734 16.4955 0.0205078 16.0619 0.0205078Z" fill="white"/>
<path d="M26.5294 17.8166C26.5088 17.8166 26.5088 17.8166 26.5294 17.8166H26.5088C26.488 17.8166 26.4674 17.8166 26.4674 17.796C26.4262 17.796 26.3848 17.7754 26.3436 17.7754C26.199 17.7547 26.0752 17.7341 25.9514 17.7341C25.8894 17.7341 25.8274 17.7341 25.7448 17.7134H25.7242C25.2906 17.6721 24.9398 17.6308 24.6094 17.5276C24.4648 17.4657 24.4236 17.3831 24.3822 17.3005C24.3822 17.2799 24.3616 17.2799 24.3616 17.2592L24.0932 17.1766C24.2172 16.227 24.1758 15.236 23.9488 14.2657C23.7216 13.2954 23.3294 12.387 22.7926 11.5612L22.999 11.3754V11.3341C22.999 11.2308 23.0198 11.1276 23.1022 11.0244C23.35 10.7973 23.6598 10.6115 24.0314 10.3844C24.0932 10.3431 24.1552 10.3225 24.2172 10.2812C24.341 10.2192 24.4442 10.1573 24.568 10.0747C24.5888 10.0541 24.63 10.0334 24.6714 9.99213C24.692 9.97147 24.7126 9.97147 24.7126 9.95083C25.0016 9.70309 25.0636 9.29019 24.8572 9.02179C24.754 8.87729 24.568 8.79471 24.3822 8.79471C24.2172 8.79471 24.0726 8.85663 23.928 8.95987C23.9074 8.98051 23.9074 8.98051 23.8868 9.00115C23.8456 9.02179 23.8248 9.06309 23.7836 9.08373C23.6804 9.18695 23.5978 9.26955 23.5152 9.37277C23.474 9.41405 23.4326 9.47599 23.3706 9.51729C23.0816 9.82697 22.8132 10.0747 22.5448 10.2605C22.483 10.3018 22.421 10.3225 22.359 10.3225C22.3178 10.3225 22.2764 10.3225 22.2352 10.3018H22.194L21.9462 10.467C21.6778 10.1779 21.3888 9.93019 21.0998 9.68245C19.861 8.71213 18.3539 8.11341 16.7849 7.96889L16.7642 7.70051C16.7436 7.67987 16.7436 7.67987 16.7229 7.65921C16.661 7.59729 16.5784 7.53535 16.5578 7.39083C16.5371 7.06051 16.5784 6.68889 16.6197 6.27599V6.25535C16.6197 6.19341 16.6404 6.11083 16.661 6.04889C16.6816 5.92503 16.7023 5.80115 16.7229 5.65663V5.53277V5.47083C16.7229 5.09921 16.4339 4.78955 16.0829 4.78955C15.9178 4.78955 15.7526 4.87213 15.6287 4.99599C15.5049 5.11987 15.4429 5.28503 15.4429 5.47083V5.51213V5.63599C15.4429 5.78051 15.4636 5.90437 15.5049 6.02825C15.5255 6.09019 15.5255 6.15213 15.5462 6.23471V6.25535C15.5875 6.66825 15.6494 7.03987 15.6081 7.37019C15.5875 7.51471 15.5049 7.57663 15.4429 7.63857C15.4223 7.65921 15.4223 7.65921 15.4016 7.67987L15.381 7.94825C15.0094 7.98955 14.6378 8.03083 14.2662 8.11341C12.6765 8.46437 11.2726 9.26955 10.1784 10.4257L9.97196 10.2812H9.93068C9.88938 10.2812 9.8481 10.3018 9.8068 10.3018C9.74488 10.3018 9.68294 10.2812 9.621 10.2399C9.35262 10.0541 9.08422 9.78567 8.7952 9.47599C8.7539 9.43471 8.71262 9.37277 8.65068 9.33147C8.5681 9.22825 8.48552 9.14567 8.38228 9.04245C8.36164 9.02179 8.32036 9.00115 8.27906 8.95987C8.25842 8.93921 8.23778 8.93921 8.23778 8.91857C8.1139 8.81535 7.94874 8.75341 7.78358 8.75341C7.59778 8.75341 7.41196 8.83599 7.30874 8.98051C7.10228 9.24889 7.16422 9.66179 7.45326 9.90955C7.4739 9.90955 7.4739 9.93019 7.49454 9.93019C7.53584 9.95083 7.55648 9.99213 7.59778 10.0128C7.72164 10.0954 7.82488 10.1573 7.94874 10.2192C8.01068 10.2399 8.07262 10.2812 8.13454 10.3225C8.50616 10.5496 8.81584 10.7354 9.06358 10.9625C9.1668 11.0657 9.1668 11.1689 9.1668 11.2721V11.3134L9.37326 11.4992C9.33196 11.5612 9.29068 11.6025 9.27004 11.6644C8.23778 13.2954 7.84552 15.2153 8.1139 17.1147L7.84552 17.1973C7.84552 17.2179 7.82488 17.2179 7.82488 17.2386C7.78358 17.3212 7.72164 17.4037 7.59778 17.4657C7.2881 17.5689 6.91648 17.6102 6.48294 17.6515H6.46228C6.40036 17.6515 6.31778 17.6515 6.25584 17.6721C6.13196 17.6721 6.0081 17.6928 5.86358 17.7134C5.82228 17.7134 5.781 17.7341 5.7397 17.7341C5.71906 17.7341 5.69842 17.7341 5.67778 17.7547C5.30616 17.8373 5.07906 18.1882 5.141 18.5186C5.20294 18.8076 5.47132 18.9934 5.80164 18.9934C5.86358 18.9934 5.90486 18.9934 5.9668 18.9728C5.98746 18.9728 6.0081 18.9728 6.0081 18.9521C6.04938 18.9521 6.09068 18.9315 6.13196 18.9315C6.27648 18.8902 6.3797 18.8489 6.50358 18.787C6.56552 18.7663 6.62746 18.725 6.68938 18.7044H6.71004C7.10228 18.5599 7.45326 18.436 7.78358 18.3947H7.82488C7.94874 18.3947 8.03132 18.4566 8.09326 18.4979C8.1139 18.4979 8.1139 18.5186 8.13454 18.5186L8.42358 18.4773C8.91906 20.005 9.86874 21.3676 11.1281 22.3586C11.4171 22.5856 11.7062 22.7714 12.0158 22.9572L11.892 23.2256C11.892 23.2464 11.9126 23.2464 11.9126 23.267C11.9539 23.3496 11.9952 23.4528 11.9539 23.5972C11.83 23.907 11.6442 24.2166 11.4171 24.5676V24.5882C11.3758 24.6502 11.3345 24.6914 11.2933 24.7534C11.2107 24.8566 11.1487 24.9598 11.0662 25.0838C11.0455 25.1044 11.0249 25.1456 11.0042 25.187C11.0042 25.2076 10.9836 25.2282 10.9836 25.2282C10.8184 25.5792 10.9423 25.9714 11.252 26.116C11.3345 26.1572 11.4171 26.178 11.4997 26.178C11.7475 26.178 11.9952 26.0128 12.1191 25.7856C12.1191 25.765 12.1397 25.7444 12.1397 25.7444C12.1604 25.703 12.181 25.6618 12.2016 25.6412C12.2636 25.4966 12.2842 25.3934 12.3255 25.2696C12.3462 25.2076 12.3668 25.1456 12.3875 25.0838C12.532 24.6708 12.6352 24.3406 12.821 24.0514C12.9036 23.9276 13.0068 23.907 13.0894 23.8656C13.11 23.8656 13.11 23.8656 13.1307 23.845L13.2752 23.5766C14.1836 23.9276 15.1745 24.1134 16.1655 24.1134C16.7642 24.1134 17.3836 24.0514 17.9616 23.907C18.3333 23.8244 18.6842 23.7212 19.0352 23.5972L19.1591 23.8244C19.1797 23.8244 19.1797 23.8244 19.2004 23.845C19.3036 23.8656 19.3862 23.907 19.4687 24.0308C19.6339 24.3198 19.7578 24.6708 19.9023 25.063V25.0838C19.9229 25.1456 19.9436 25.2076 19.9642 25.2696C20.0056 25.3934 20.0262 25.5172 20.088 25.6412C20.1088 25.6824 20.1294 25.703 20.15 25.7444C20.15 25.765 20.1706 25.7856 20.1706 25.7856C20.2946 26.0334 20.5422 26.178 20.79 26.178C20.8726 26.178 20.9552 26.1572 21.0378 26.116C21.1822 26.0334 21.3062 25.9096 21.3474 25.7444C21.3888 25.5792 21.3888 25.3934 21.3062 25.2282C21.3062 25.2076 21.2856 25.2076 21.2856 25.187C21.2648 25.1456 21.2442 25.1044 21.2236 25.0838C21.1616 24.9598 21.079 24.8566 20.9964 24.7534C20.9552 24.6914 20.914 24.6502 20.8726 24.5882V24.5676C20.6456 24.2166 20.439 23.907 20.3358 23.5972C20.2946 23.4528 20.3358 23.3702 20.3564 23.267C20.3564 23.2464 20.3772 23.2464 20.3772 23.2256L20.274 22.978C21.368 22.338 22.2972 21.4296 22.999 20.3148C23.3706 19.7366 23.6598 19.0966 23.8662 18.4566L24.114 18.4979C24.1346 18.4979 24.1346 18.4773 24.1552 18.4773C24.2378 18.436 24.2998 18.3741 24.4236 18.3741H24.4648C24.7952 18.4154 25.1462 18.5392 25.5384 18.6837H25.559C25.621 18.7044 25.683 18.7457 25.7448 18.7663C25.8688 18.8282 25.972 18.8695 26.1164 18.9108C26.1578 18.9108 26.199 18.9315 26.2404 18.9315C26.261 18.9315 26.2816 18.9315 26.3022 18.9521C26.3642 18.9728 26.4056 18.9728 26.4674 18.9728C26.7772 18.9728 27.0456 18.7663 27.128 18.4979C27.128 18.2502 26.901 17.9199 26.5294 17.8166ZM16.9707 16.805L16.0623 17.2386L15.1539 16.805L14.9268 15.8347L15.5462 15.0502H16.5578L17.1771 15.8347L16.9707 16.805ZM22.359 14.6579C22.5242 15.3599 22.5656 16.0618 22.5036 16.7431L19.3449 15.8347C19.0558 15.7521 18.8907 15.4631 18.9526 15.1741C18.9733 15.0915 19.0146 15.0089 19.0765 14.947L21.5746 12.6966C21.9256 13.2747 22.194 13.9354 22.359 14.6579ZM20.5836 11.4579L17.8791 13.3779C17.652 13.5225 17.3423 13.4812 17.1565 13.2541C17.0945 13.1921 17.0739 13.1096 17.0533 13.027L16.8675 9.66179C18.292 9.82697 19.5926 10.467 20.5836 11.4579ZM14.5965 9.76503C14.8236 9.72373 15.03 9.68245 15.2571 9.64115L15.0713 12.9444C15.0507 13.2334 14.8236 13.4812 14.5139 13.4812C14.4313 13.4812 14.3281 13.4605 14.2662 13.4192L11.5204 11.4579C12.3668 10.6115 13.4197 10.0334 14.5965 9.76503ZM10.5294 12.6966L12.9862 14.885C13.2133 15.0708 13.2339 15.4218 13.0481 15.6489C12.9862 15.7315 12.9036 15.7934 12.8004 15.8141L9.60036 16.7431C9.47648 15.3392 9.78616 13.9147 10.5294 12.6966ZM9.97196 18.2915L13.2545 17.7341C13.5229 17.7134 13.7707 17.8992 13.8326 18.1676C13.8533 18.2915 13.8533 18.3947 13.812 18.4979L12.5526 21.5328C11.3965 20.7896 10.4675 19.654 9.97196 18.2915ZM17.5075 22.3998C17.0326 22.503 16.5578 22.565 16.0623 22.565C15.3397 22.565 14.6378 22.4412 13.9771 22.2348L15.6081 19.2824C15.7733 19.0966 16.0416 19.014 16.2687 19.1379C16.372 19.1999 16.4545 19.2825 16.5165 19.365L18.1062 22.2348C17.9204 22.2966 17.7139 22.338 17.5075 22.3998ZM21.5332 19.5302C21.0172 20.356 20.3358 21.0166 19.5513 21.5328L18.2507 18.4153C18.1887 18.1676 18.292 17.8992 18.5397 17.7754C18.6223 17.7341 18.7255 17.7134 18.8287 17.7134L22.132 18.2708C22.008 18.725 21.8016 19.1379 21.5332 19.5302Z" fill="white"/>
</svg>
