<svg width="24" height="24" viewBox="0 0 24 24" fill="none" xmlns="http://www.w3.org/2000/svg">
<g clip-path="url(#clip0)">
<path d="M22.2247 0H1.77091C0.794352 0 0.000732422 0.77474 0.000732422 1.73047V22.2682C0.000732422 23.2239 0.794352 24 1.77091 24H22.2247C23.2032 24 24.0001 23.2239 24.0001 22.2682V1.73047C24.0001 0.77474 23.2032 0 22.2247 0Z" fill="#007BB5"/>
<path d="M3.55671 8.9972H7.11986V20.4503H3.55671V8.9972ZM5.33927 3.30383C6.47794 3.30383 7.40239 4.22864 7.40239 5.36797C7.40239 6.50761 6.47794 7.4324 5.33927 7.4324C4.19604 7.4324 3.27417 6.50762 3.27417 5.36797C3.27417 4.22864 4.19604 3.30383 5.33927 3.30383Z" fill="white"/>
<path d="M9.35254 8.99721H12.7647V10.5629H12.8135C13.2881 9.66255 14.4495 8.71301 16.1813 8.71301C19.7855 8.71301 20.4515 11.0845 20.4515 14.1691V20.4503H16.8923V14.8807C16.8923 13.5525 16.8695 11.8439 15.0427 11.8439C13.1905 11.8439 12.9079 13.2915 12.9079 14.7856V20.4503H9.35254V8.99721Z" fill="white"/>
</g>
<defs>
<clipPath id="clip0">
<rect width="24" height="24" fill="white"/>
</clipPath>
</defs>
</svg>
