<svg id="Layer_1" data-name="Layer 1" xmlns="http://www.w3.org/2000/svg" viewBox="0 0 900 711"><path d="M214.1,587.57H186.15V537.2H134.91v50.37H107.05V463.88h27.86v49.34h51.24V463.88H214.1Zm94.12,0H281.05V574.12h-.43q-10.1,15.61-27,15.61-30.7,0-30.71-37.18V499.24h27.17v50.9q0,18.72,14.84,18.72a14.65,14.65,0,0,0,11.73-5.14q4.39-5.13,4.4-13.93V499.24h27.17Zm36.42-10.26h-.35v10.26H317V456.8h27.26v55.73h.35q10.1-15.45,28.72-15.44,17.08,0,26.31,11.73t9.23,32.09q0,22.08-10.78,35.45t-28.81,13.37Q353,589.73,344.64,577.31ZM343.86,540v9.06q0,8.55,4.92,14.15a16,16,0,0,0,12.59,5.61q9.31,0,14.45-7.21t5.13-20.4q0-10.95-4.7-17.12T362.84,518a17.32,17.32,0,0,0-13.59,6.13Q343.87,530.21,343.86,540ZM178.56,336.43H134.91v30.36H175v22.6H134.91v48.05H107.05V313.74h71.51ZM229.15,439.6q-22.08,0-34.72-12.38t-12.64-33.6q0-21.9,13.11-34.29T230.36,347q22,0,34.5,12.38t12.51,32.74q0,22-12.9,34.76T229.15,439.6Zm.69-71.77q-9.66,0-15,6.64t-5.35,18.81q0,25.44,20.53,25.44,19.58,0,19.58-26.13Q249.59,367.83,229.84,367.83Zm139.61,69.61H342.28V424h-.43q-10.1,15.61-27,15.62-30.72,0-30.71-37.18V349.11h27.17V400q0,18.72,14.83,18.72a14.7,14.7,0,0,0,11.74-5.13q4.39-5.13,4.4-13.93V349.11h27.17Zm94.12,0H436.4V388.36q0-20.53-14.66-20.53a14.56,14.56,0,0,0-11.65,5.43q-4.57,5.44-4.57,13.81v50.37H378.26V349.11h27.26v14h.34Q415.61,347,434.24,347q29.34,0,29.33,36.41Zm98.48,0H534.79V425.28h-.34q-9.32,14.33-27.35,14.32-16.56,0-26.65-11.69t-10.09-32.65q0-21.92,11.12-35.11T510.64,347q17.08,0,23.81,12.25h.34V306.67h27.26Zm-26.74-43v-6.64a20.94,20.94,0,0,0-5-14.32A17.68,17.68,0,0,0,503.14,375q-5.1,7.11-5.09,19.53,0,11.65,4.91,17.95t13.63,6.29a16.39,16.39,0,0,0,13.5-6.64Q535.31,405.43,535.31,394.48ZM653.44,401H595.82q1.38,19.23,24.24,19.24,14.58,0,25.62-6.91V433q-12.25,6.56-31.83,6.56-21.39,0-33.21-11.86t-11.82-33.08q0-22,12.77-34.85T613,347q19.32,0,29.89,11.48t10.56,31.14Zm-25.27-16.73q0-19-15.36-19a14.66,14.66,0,0,0-11.34,5.43,24.7,24.7,0,0,0-5.82,13.55Zm90.75-10.61A23.56,23.56,0,0,0,707.45,371q-8.9,0-13.89,6.51t-5,17.73v42.18H661.3V349.11h27.26V365.5h.34q6.47-17.94,23.29-17.94a17.56,17.56,0,0,1,6.73,1Zm6.23,61.41V413a57.86,57.86,0,0,0,13.41,6,44.58,44.58,0,0,0,12.64,2q7.24,0,11.43-2c2.79-1.32,4.18-3.34,4.18-6a5.58,5.58,0,0,0-1.89-4.31,17.61,17.61,0,0,0-4.88-3,55.31,55.31,0,0,0-6.51-2.33q-3.54-1-6.82-2.33a66.11,66.11,0,0,1-9.27-4.27,26.62,26.62,0,0,1-6.73-5.31,20.89,20.89,0,0,1-4.14-7,27.87,27.87,0,0,1-1.42-9.4,24.25,24.25,0,0,1,3.23-12.77,26.46,26.46,0,0,1,8.63-8.76,39.61,39.61,0,0,1,12.33-5,64.58,64.58,0,0,1,14.45-1.6,80.83,80.83,0,0,1,11.91.91,88.39,88.39,0,0,1,11.9,2.63v21.05A43.2,43.2,0,0,0,776.52,367a46.61,46.61,0,0,0-11.6-1.51,26.17,26.17,0,0,0-5,.47,16.81,16.81,0,0,0-4.18,1.38,7.73,7.73,0,0,0-2.85,2.33,5.38,5.38,0,0,0-1,3.24,6,6,0,0,0,1.56,4.14,13.3,13.3,0,0,0,4,3,39.25,39.25,0,0,0,5.56,2.25q3.06,1,6.09,2a77.53,77.53,0,0,1,9.83,4.14,31.46,31.46,0,0,1,7.55,5.26,20.62,20.62,0,0,1,4.83,7.07,28.32,28.32,0,0,1-1.73,23.08,27.29,27.29,0,0,1-9,9.05,41,41,0,0,1-13,5.09,71.83,71.83,0,0,1-15.31,1.6A78.93,78.93,0,0,1,725.15,435.11ZM162.24,174.81h-8.46V141.56q0-4.09.5-10h-.14a34.42,34.42,0,0,1-1.4,4.84L137.4,174.81h-5.87l-15.38-38.13a36.19,36.19,0,0,1-1.36-5.12h-.14q.28,3.08.28,10.07v33.18h-7.88V123.43h12l13.51,34.22a50.28,50.28,0,0,1,2,5.88h.18q1.32-4,2.15-6l13.76-34.08h11.58Zm13.34-44.4a5,5,0,0,1-3.49-1.32,4.38,4.38,0,0,1-1.46-3.37,4.49,4.49,0,0,1,1.46-3.41,4.94,4.94,0,0,1,3.49-1.36,5.1,5.1,0,0,1,3.58,1.36,4.47,4.47,0,0,1,1.47,3.41,4.38,4.38,0,0,1-1.47,3.31A5,5,0,0,1,175.58,130.41Zm4.12,44.4h-8.31V138.12h8.31ZM215,173.13a20.56,20.56,0,0,1-10.43,2.54q-8.16,0-13.19-5.1t-5-13.24q0-9.08,5.39-14.57t14.42-5.5A21.1,21.1,0,0,1,215,139v7.74a13.41,13.41,0,0,0-8.17-2.86,11.36,11.36,0,0,0-8.64,3.56,13,13,0,0,0-3.37,9.34q0,5.7,3.17,9a11.26,11.26,0,0,0,8.51,3.3,13.28,13.28,0,0,0,8.46-3.19ZM242.68,146a6.87,6.87,0,0,0-4.33-1.19,7.42,7.42,0,0,0-6.17,3.34c-1.64,2.22-2.47,5.24-2.47,9.06v17.56H221.4V138.12h8.31v7.56h.14a12.91,12.91,0,0,1,3.75-6,8.48,8.48,0,0,1,5.64-2.17,7,7,0,0,1,3.44.68Zm19.67,29.63q-8.49,0-13.56-5.14t-5.07-13.63q0-9.26,5.28-14.45t14.25-5.19q8.6,0,13.4,5.05t4.8,14q0,8.79-5.18,14.07T262.35,175.67Zm.39-31.78a9.49,9.49,0,0,0-7.7,3.4q-2.83,3.41-2.83,9.39c0,3.85.95,6.88,2.87,9.08a9.61,9.61,0,0,0,7.66,3.32,9.16,9.16,0,0,0,7.55-3.26q2.63-3.27,2.63-9.28t-2.63-9.36A9.12,9.12,0,0,0,262.74,143.89Zm23,29.78V166a16.54,16.54,0,0,0,10.28,3.55q7.53,0,7.53-4.44a3.53,3.53,0,0,0-.65-2.14,6.1,6.1,0,0,0-1.73-1.55,13.47,13.47,0,0,0-2.58-1.22l-3.32-1.22a36.12,36.12,0,0,1-4.07-1.9,12.4,12.4,0,0,1-3-2.28,8.61,8.61,0,0,1-1.81-2.88,10.81,10.81,0,0,1-.6-3.77,8.66,8.66,0,0,1,1.25-4.67,11,11,0,0,1,3.37-3.41,16.25,16.25,0,0,1,4.8-2.07,21.76,21.76,0,0,1,5.55-.7,25.22,25.22,0,0,1,9.11,1.54v7.27a15.35,15.35,0,0,0-8.89-2.65,11.89,11.89,0,0,0-2.85.32,7.58,7.58,0,0,0-2.17.9A4.36,4.36,0,0,0,294.6,146a3.26,3.26,0,0,0-.51,1.77,3.75,3.75,0,0,0,.51,2,4.57,4.57,0,0,0,1.48,1.45,13.1,13.1,0,0,0,2.37,1.15c.92.34,2,.72,3.17,1.13a45.15,45.15,0,0,1,4.25,2,14.59,14.59,0,0,1,3.2,2.27,8.92,8.92,0,0,1,2.05,2.94,10.12,10.12,0,0,1,.71,4,9.07,9.07,0,0,1-1.29,4.88A10.76,10.76,0,0,1,307.1,173a16.24,16.24,0,0,1-5,2,25.91,25.91,0,0,1-5.93.66A25.11,25.11,0,0,1,285.78,173.67Zm48.37,2q-8.49,0-13.56-5.14t-5.07-13.63q0-9.26,5.28-14.45t14.25-5.19q8.59,0,13.4,5.05t4.8,14q0,8.79-5.18,14.07T334.15,175.67Zm.39-31.78a9.49,9.49,0,0,0-7.7,3.4Q324,150.7,324,156.68q0,5.77,2.86,9.08a9.65,9.65,0,0,0,7.67,3.32,9.16,9.16,0,0,0,7.55-3.26q2.63-3.27,2.63-9.28t-2.63-9.36A9.12,9.12,0,0,0,334.54,143.89Zm44.86-16.63a7.5,7.5,0,0,0-3.83-1q-6.06,0-6.06,6.85v5H378v6.52h-8.49v30.17h-8.32V144.64H355v-6.52h6.27v-6A11.61,11.61,0,0,1,365,123a13.87,13.87,0,0,1,9.5-3.35,14.18,14.18,0,0,1,4.87.68Zm24.49,47.16a14.41,14.41,0,0,1-6.41,1.22q-10.68,0-10.68-10.25V144.64h-6.13v-6.52h6.13v-8.5l8.31-2.36v10.86h8.78v6.52h-8.78V163c0,2.17.4,3.72,1.18,4.66a4.93,4.93,0,0,0,3.95,1.39,5.71,5.71,0,0,0,3.65-1.21ZM125.22,204.34a7.61,7.61,0,0,0-3.84-1q-6,0-6,6.85v5h8.53v6.52h-8.5v30.17h-8.31V221.72h-6.27V215.2h6.27v-5.95a11.57,11.57,0,0,1,3.8-9.15,15.8,15.8,0,0,1,14.37-2.67Zm19,48.41q-8.51,0-13.57-5.14T125.57,234q0-9.25,5.29-14.44t14.24-5.2q8.6,0,13.4,5t4.8,14q0,8.79-5.17,14.07T144.21,252.75ZM144.6,221a9.5,9.5,0,0,0-7.71,3.4q-2.82,3.4-2.83,9.39,0,5.78,2.87,9.09a9.63,9.63,0,0,0,7.67,3.31,9.14,9.14,0,0,0,7.54-3.26c1.76-2.17,2.64-5.27,2.64-9.28s-.88-7.16-2.64-9.35A9.08,9.08,0,0,0,144.6,221Zm46.25,2.15a6.9,6.9,0,0,0-4.34-1.18,7.42,7.42,0,0,0-6.16,3.33q-2.47,3.33-2.48,9.07v17.55h-8.31V215.2h8.31v7.56H178a12.82,12.82,0,0,1,3.74-6,8.5,8.5,0,0,1,5.65-2.17,7,7,0,0,1,3.44.69Zm21.24,26.73v-8.78A13.38,13.38,0,0,0,214.9,243a22.7,22.7,0,0,0,3.46,1.45,27,27,0,0,0,3.65.91,19,19,0,0,0,3.37.32c3.58,0,6.25-.59,8-1.79a5.87,5.87,0,0,0,2.63-5.19,5.68,5.68,0,0,0-.87-3.17,9.27,9.27,0,0,0-2.46-2.46A25.8,25.8,0,0,0,229,231q-2.13-1-4.57-2.13c-1.74-.93-3.36-1.88-4.87-2.83a21.24,21.24,0,0,1-3.92-3.18,12.31,12.31,0,0,1-3.57-9,11.79,11.79,0,0,1,1.63-6.29,13.82,13.82,0,0,1,4.3-4.41,19.68,19.68,0,0,1,6.08-2.58,28.81,28.81,0,0,1,6.95-.84q8.06,0,11.75,1.83v8.42q-4.37-3.17-11.25-3.16a20,20,0,0,0-3.78.36,11.19,11.19,0,0,0-3.37,1.18,7.32,7.32,0,0,0-2.42,2.12,5.19,5.19,0,0,0-.93,3.12,5.89,5.89,0,0,0,.72,3,7.46,7.46,0,0,0,2.09,2.29,21,21,0,0,0,3.37,2c1.33.65,2.86,1.36,4.61,2.13q2.69,1.4,5.07,2.94a24.56,24.56,0,0,1,4.19,3.4,15.23,15.23,0,0,1,2.87,4.14,12.23,12.23,0,0,1,1,5.18,12.12,12.12,0,0,1-5.82,11A18.72,18.72,0,0,1,233,252a34.65,34.65,0,0,1-7.34.75,31.33,31.33,0,0,1-3.17-.19c-1.26-.13-2.54-.33-3.86-.58a34.9,34.9,0,0,1-3.72-.91A11.51,11.51,0,0,1,212.09,249.85Zm56.79,1.65a14.49,14.49,0,0,1-6.42,1.22q-10.68,0-10.68-10.25V221.72h-6.12V215.2h6.12v-8.49l8.32-2.37V215.2h8.78v6.52H260.1v18.35c0,2.17.39,3.73,1.18,4.66a4.91,4.91,0,0,0,3.94,1.39,5.74,5.74,0,0,0,3.66-1.21Zm34.15.39H295v-5.73h-.15a12.12,12.12,0,0,1-11.14,6.59c-3.61,0-6.43-1-8.48-2.93a10.3,10.3,0,0,1-3.06-7.78q0-10.39,12-12.11L295,228.39q0-7.86-7.45-7.85a17.73,17.73,0,0,0-11.83,4.51v-7.27a25.84,25.84,0,0,1,13.41-3.44q13.9,0,13.9,13.69Zm-8-18-7.7,1.07a12.48,12.48,0,0,0-5.4,1.74q-1.8,1.27-1.8,4.46a4.88,4.88,0,0,0,1.66,3.82,6.46,6.46,0,0,0,4.46,1.49,8.22,8.22,0,0,0,6.29-2.67,9.47,9.47,0,0,0,2.49-6.72Zm35.54-10.75a6.88,6.88,0,0,0-4.34-1.18,7.42,7.42,0,0,0-6.16,3.33q-2.48,3.33-2.47,9.07v17.55h-8.32V215.2h8.32v7.56h.14a12.82,12.82,0,0,1,3.74-6,8.5,8.5,0,0,1,5.65-2.17,7,7,0,0,1,3.44.69Zm25.85,28.38a14.41,14.41,0,0,1-6.41,1.22q-10.68,0-10.68-10.25V221.72h-6.13V215.2h6.13v-8.49l8.31-2.37V215.2h8.78v6.52h-8.78v18.35c0,2.17.4,3.73,1.18,4.66a4.93,4.93,0,0,0,3.95,1.39,5.73,5.73,0,0,0,3.65-1.21Zm38,.39h-8.32v-5.8h-.14a12,12,0,0,1-11.25,6.66q-13,0-13-15.62V215.2H370v21.07q0,9.89,7.64,9.89a7.72,7.72,0,0,0,6.07-2.72,10.45,10.45,0,0,0,2.38-7.13V215.2h8.32Zm15-5.41h-.14v22.29h-8.32V215.2h8.32v6.45h.14q4.26-7.31,12.47-7.31,7,0,10.9,4.91t3.9,13.19q0,9.17-4.41,14.69a14.56,14.56,0,0,1-12,5.52A12,12,0,0,1,409.37,246.48ZM409.16,232v4.55a9.72,9.72,0,0,0,2.56,6.81,9,9,0,0,0,13.76-.81q2.63-3.6,2.63-10.05c0-3.61-.82-6.43-2.45-8.48A8.08,8.08,0,0,0,419,221a9,9,0,0,0-7.15,3.15A11.71,11.71,0,0,0,409.16,232Zm31.52,18.74V243A16.56,16.56,0,0,0,451,246.59q7.53,0,7.53-4.44a3.47,3.47,0,0,0-.64-2.13,6,6,0,0,0-1.74-1.56,13.47,13.47,0,0,0-2.58-1.22L450.21,236a36.12,36.12,0,0,1-4.07-1.9,12.63,12.63,0,0,1-3-2.27,8.47,8.47,0,0,1-1.8-2.89,10.51,10.51,0,0,1-.61-3.76,8.67,8.67,0,0,1,1.25-4.68,10.93,10.93,0,0,1,3.37-3.4,16,16,0,0,1,4.8-2.08,21.78,21.78,0,0,1,5.56-.7,25.21,25.21,0,0,1,9.1,1.54v7.27a15.4,15.4,0,0,0-8.89-2.65,11.38,11.38,0,0,0-2.85.33,7.3,7.3,0,0,0-2.17.89,4.36,4.36,0,0,0-1.39,1.38,3.27,3.27,0,0,0-.51,1.78,3.74,3.74,0,0,0,.51,2,4.47,4.47,0,0,0,1.48,1.45,13.1,13.1,0,0,0,2.37,1.15c.92.35,2,.72,3.17,1.13a45.15,45.15,0,0,1,4.25,2,14.29,14.29,0,0,1,3.2,2.28,8.78,8.78,0,0,1,2,2.93,10.12,10.12,0,0,1,.71,4,9.07,9.07,0,0,1-1.29,4.88,10.76,10.76,0,0,1-3.44,3.44,16.24,16.24,0,0,1-5,2,25.91,25.91,0,0,1-5.93.66A25,25,0,0,1,440.68,250.75Z"/></svg>