<svg width="32" height="32" viewBox="0 0 32 32" fill="none" xmlns="http://www.w3.org/2000/svg">
<g clip-path="url(#clip0)">
<path d="M16.173 31.9406C15.7329 31.9406 15.322 31.8232 14.9406 31.6178L11.0379 29.2996C10.451 28.977 10.7444 28.8596 10.9205 28.8008C11.7128 28.5368 11.8595 28.478 12.6811 28.0086C12.7691 27.9498 12.8865 27.9792 12.9745 28.038L15.9676 29.8278C16.085 29.8866 16.2317 29.8866 16.3197 29.8278L28.0278 23.0494C28.1452 22.9908 28.204 22.8734 28.204 22.7268V9.19926C28.204 9.05254 28.1452 8.93516 28.0278 8.87648L16.3197 2.12742C16.2024 2.06874 16.0556 2.06874 15.9676 2.12742L4.25946 8.87648C4.1421 8.93516 4.0834 9.08188 4.0834 9.19926V22.7268C4.0834 22.844 4.1421 22.9908 4.25946 23.0494L7.45792 24.8982C9.1892 25.7784 10.2749 24.7514 10.2749 23.7244V10.373C10.2749 10.1969 10.4216 10.0209 10.627 10.0209H12.1236C12.2996 10.0209 12.4757 10.1676 12.4757 10.373V23.7244C12.4757 26.0426 11.2139 27.3924 9.01314 27.3924C8.33824 27.3924 7.81006 27.3924 6.31352 26.6588L3.23244 24.8982C2.4695 24.458 2 23.6364 2 22.756V9.2286C2 8.34828 2.4695 7.52666 3.23244 7.0865L14.9406 0.308108C15.6742 -0.102703 16.6719 -0.102703 17.4054 0.308108L29.1136 7.0865C29.8766 7.52666 30.346 8.34828 30.346 9.2286V22.756C30.346 23.6364 29.8766 24.458 29.1136 24.8982L17.4054 31.6766C17.024 31.8526 16.5838 31.9406 16.173 31.9406ZM19.7823 22.6386C14.6471 22.6386 13.5908 20.2912 13.5908 18.2958C13.5908 18.1197 13.7375 17.9437 13.9429 17.9437H15.4688C15.6448 17.9437 15.7915 18.0611 15.7915 18.2371C16.0263 19.7923 16.7012 20.5552 19.8116 20.5552C22.2766 20.5552 23.3328 19.9977 23.3328 18.6773C23.3328 17.9143 23.0394 17.3568 19.1954 16.9753C15.9969 16.6526 14.0016 15.9483 14.0016 13.3954C14.0016 11.0186 15.9969 9.61006 19.3421 9.61006C23.0982 9.61006 24.9468 10.9012 25.1816 13.7182C25.1816 13.8062 25.1522 13.8942 25.0934 13.9823C25.0348 14.041 24.9468 14.0997 24.8588 14.0997H23.3328C23.1862 14.0997 23.0394 13.9823 23.01 13.8356C22.658 12.2217 21.7484 11.6935 19.3421 11.6935C16.6425 11.6935 16.3197 12.6325 16.3197 13.3367C16.3197 14.1877 16.7012 14.4518 20.3398 14.9213C23.949 15.3908 25.651 16.0657 25.651 18.5892C25.6216 21.1714 23.509 22.6386 19.7823 22.6386Z" fill="#539E43"/>
</g>
<defs>
<clipPath id="clip0">
<rect width="32" height="32" fill="white"/>
</clipPath>
</defs>
</svg>
