<svg width="32" height="32" viewBox="0 0 32 32" fill="none" xmlns="http://www.w3.org/2000/svg">
<g clip-path="url(#clip0)">
<path d="M15.8846 0C7.76106 5.82634e-07 8.26834 3.54132 8.26834 3.54132L8.2774 7.21008H16.0295V8.31162H5.19828C5.19828 8.31162 0 7.71902 0 15.9587C-5.796e-07 24.1984 4.53718 23.9062 4.53718 23.9062H7.245V20.0826C7.245 20.0826 7.09904 15.5217 11.7097 15.5217C16.3204 15.5217 19.3985 15.5217 19.3985 15.5217C19.3985 15.5217 23.7182 15.5919 23.7182 11.3249C23.7182 7.05796 23.7182 4.26962 23.7182 4.26962C23.7182 4.2696 24.3742 0 15.8846 0ZM11.6101 2.46708C12.3814 2.46708 13.0048 3.09374 13.0048 3.86904C13.0048 4.64436 12.3814 5.27102 11.6101 5.27102C10.8388 5.27102 10.2154 4.64436 10.2154 3.86904C10.2154 3.09374 10.8388 2.46708 11.6101 2.46708Z" fill="url(#paint0_linear)"/>
<path d="M16.1149 32.0002C24.2386 32.0002 23.7312 28.459 23.7312 28.459L23.7222 24.7902H15.97V23.6886H26.8012C26.8012 23.6886 31.9996 24.2812 31.9996 16.0415C31.9996 7.80186 27.4624 8.09406 27.4624 8.09406H24.7546V11.9176C24.7546 11.9176 24.9006 16.4785 20.2898 16.4785C15.6792 16.4785 12.6011 16.4785 12.6011 16.4785C12.6011 16.4785 8.28128 16.4083 8.28128 20.6752C8.28128 24.9422 8.28128 27.7306 8.28128 27.7306C8.28128 27.7306 7.62542 32.0002 16.1149 32.0002ZM20.3894 29.5332C19.6182 29.5332 18.9948 28.9066 18.9948 28.1312C18.9948 27.3558 19.6182 26.7292 20.3894 26.7292C21.1608 26.7292 21.7842 27.3558 21.7842 28.1312C21.7842 28.9066 21.1608 29.5332 20.3894 29.5332Z" fill="url(#paint1_linear)"/>
</g>
<defs>
<linearGradient id="paint0_linear" x1="3.07526" y1="2.79708" x2="18.9812" y2="18.6731" gradientUnits="userSpaceOnUse">
<stop stop-color="#387EB8"/>
<stop offset="1" stop-color="#366994"/>
</linearGradient>
<linearGradient id="paint1_linear" x1="12.8085" y1="12.9498" x2="29.8874" y2="29.227" gradientUnits="userSpaceOnUse">
<stop stop-color="#FFE052"/>
<stop offset="1" stop-color="#FFC331"/>
</linearGradient>
<clipPath id="clip0">
<rect width="32" height="32" fill="white"/>
</clipPath>
</defs>
</svg>
