<svg width="180" height="60" viewBox="0 0 180 60" fill="none" xmlns="http://www.w3.org/2000/svg">
<path d="M36.4539 41.4091L27.4776 36.2233C26.2165 35.4972 24.6039 35.929 23.8741 37.1901C23.5913 37.6869 23.4804 38.2333 23.5339 38.7645V48.8988C23.5339 50.347 24.7109 51.524 26.163 51.524C27.6113 51.524 28.7883 50.3471 28.7883 48.8988V43.0712L33.8172 45.9754C35.0783 46.7052 36.6947 46.2697 37.4207 45.0086C38.1506 43.7476 37.7188 42.1349 36.4539 41.4089V41.4091ZM14.1295 30.2964C14.1369 29.8366 14.0214 29.3831 13.795 28.9828C13.5687 28.5824 13.2396 28.2497 12.8417 28.019L3.86532 22.8371C3.47479 22.6121 3.03205 22.4936 2.58135 22.4933C1.6604 22.4933 0.804418 22.9862 0.345904 23.7811C-0.364907 25.0115 0.0592708 26.5897 1.28974 27.3005L6.4639 30.285L1.28984 33.2733C0.693678 33.6173 0.265588 34.1713 0.0898906 34.8363C-0.0897196 35.5011 0.00194418 36.1967 0.345904 36.7928C0.804418 37.5877 1.6604 38.0806 2.57753 38.0806C3.02851 38.0806 3.47558 37.9621 3.86532 37.7367L12.8417 32.5549C13.2364 32.3253 13.5633 31.9955 13.7895 31.5989C14.0156 31.2023 14.1329 30.753 14.1295 30.2964ZM5.90218 19.1648L14.8786 24.3466C15.9256 24.9541 17.2172 24.7555 18.0426 23.9491C18.5662 23.4677 18.8909 22.7798 18.8909 22.0156V11.6291C18.8909 10.177 17.714 9 16.2657 9C14.8136 9 13.6366 10.177 13.6366 11.6291V17.5408L8.53881 14.5983C7.27782 13.8685 5.66524 14.3003 4.93535 15.5612C4.20547 16.8222 4.64109 18.4349 5.90218 19.1648ZM26.0865 30.7168C26.0865 30.9155 25.972 31.1907 25.8306 31.3358L22.2729 34.8935C22.1315 35.035 21.8526 35.1496 21.6538 35.1496H20.7482C20.5494 35.1496 20.2705 35.035 20.129 34.8936L16.5676 31.3358C16.4262 31.1907 16.3115 30.9155 16.3115 30.7168V29.8111C16.3115 29.6086 16.4262 29.3335 16.5676 29.1921L20.129 25.6306C20.2705 25.4892 20.5494 25.3746 20.7482 25.3746H21.6538C21.8526 25.3746 22.1315 25.4892 22.2729 25.6306L25.8306 29.1921C25.972 29.3335 26.0866 29.6086 26.0866 29.8111L26.0865 30.7168ZM22.911 30.2812V30.243C22.911 30.0977 22.8269 29.8952 22.7238 29.7882L21.6729 28.7412C21.5697 28.6342 21.3672 28.5501 21.2182 28.5501H21.18C21.0347 28.5501 20.8322 28.6342 20.7252 28.7412L19.6782 29.7882C19.575 29.8914 19.4909 30.0939 19.4909 30.2429V30.2812C19.4909 30.4302 19.5751 30.6328 19.6782 30.7359L20.7252 31.7868C20.8322 31.8899 21.0347 31.9741 21.18 31.9741H21.2182C21.3672 31.9741 21.5697 31.8899 21.6729 31.7868L22.7238 30.7359C22.827 30.6328 22.911 30.4302 22.911 30.2812ZM27.4776 24.3466L36.4539 19.1648C37.715 18.4387 38.1506 16.8223 37.4207 15.5612C36.6909 14.3003 35.0783 13.8685 33.8172 14.5983L28.7883 17.5025V11.6291C28.7883 10.177 27.6113 9 26.163 9C24.7109 9 23.5339 10.177 23.5339 11.6291V21.8093C23.4842 22.3365 23.5874 22.8868 23.8741 23.3836C24.6038 24.6446 26.2165 25.0765 27.4776 24.3466ZM16.6784 35.9177C16.0822 35.803 15.4441 35.8986 14.8786 36.2234L5.90218 41.4091C4.64119 42.1351 4.20547 43.7477 4.93535 45.0088C5.66514 46.2737 7.27782 46.7055 8.53891 45.9756L13.6367 43.0332V48.8989C13.6367 50.3472 14.8135 51.5243 16.2657 51.5243C17.714 51.5243 18.8909 50.3472 18.8909 48.899V38.5124C18.8909 37.2016 17.9319 36.1164 16.6784 35.9177ZM42.0637 23.7504C41.3376 22.4855 39.7212 22.0538 38.4601 22.7836L29.4837 27.9655C28.6239 28.4622 28.1502 29.3717 28.1654 30.2964C28.1578 31.2174 28.6317 32.1154 29.4837 32.6046L38.4601 37.7902C39.7211 38.5162 41.3338 38.0844 42.0637 36.8233C42.7936 35.5623 42.358 33.9497 41.0969 33.2198L36.0145 30.285L41.0969 27.3502C42.3618 26.6241 42.7936 25.0115 42.0637 23.7504ZM180 29.6774V29.7768C180 30.2659 179.591 30.6288 179.086 30.6288H166.476C166.499 30.927 166.537 31.2174 166.598 31.504C167.183 34.2363 169.522 36.2692 172.3 36.2921H173.033C173.091 36.2921 173.148 36.2921 173.209 36.2883C173.263 36.2883 173.316 36.2845 173.37 36.2807C173.373 36.2807 173.377 36.2807 173.381 36.2769C174.302 36.2043 175.231 35.8337 176.06 35.2375H176.064C176.108 35.2056 176.151 35.1725 176.194 35.1382C176.202 35.1343 176.209 35.1267 176.22 35.119C176.258 35.09 176.295 35.0607 176.331 35.0311C176.347 35.0197 176.358 35.0083 176.373 34.9967C176.405 34.9724 176.435 34.947 176.465 34.9204C176.484 34.9051 176.507 34.886 176.526 34.8706C176.549 34.847 176.573 34.8253 176.599 34.8057C176.622 34.7828 176.648 34.7599 176.671 34.7369C176.691 34.7201 176.711 34.7022 176.729 34.6834C176.759 34.6567 176.786 34.6299 176.817 34.6032C176.832 34.5879 176.847 34.5687 176.862 34.5535L176.954 34.4618L176.996 34.4197L177.088 34.3165C177.103 34.3051 177.114 34.2898 177.126 34.2745C177.16 34.2401 177.191 34.2057 177.222 34.1713C177.233 34.1561 177.248 34.1407 177.26 34.1255C177.29 34.0873 177.317 34.0529 177.348 34.0184L177.394 33.9612C177.42 33.9268 177.447 33.8962 177.47 33.8656C177.491 33.8378 177.511 33.8098 177.531 33.7815C177.55 33.7548 177.569 33.7319 177.588 33.7052C177.619 33.6631 177.65 33.6211 177.676 33.579C177.686 33.5666 177.695 33.5538 177.703 33.5409C177.78 33.4282 177.854 33.3135 177.925 33.1969C177.925 33.1969 177.925 33.193 177.929 33.1893C177.944 33.1626 177.963 33.1396 177.982 33.1129C177.99 33.1014 177.997 33.0899 178.009 33.0822C178.02 33.0632 178.035 33.0517 178.047 33.0364L178.081 33.002C178.097 32.9906 178.108 32.979 178.123 32.9676C178.135 32.9561 178.146 32.9447 178.162 32.9371C178.182 32.9209 178.204 32.9068 178.227 32.895C178.242 32.8835 178.259 32.8732 178.276 32.8645C178.293 32.8576 178.31 32.8499 178.326 32.8415C178.341 32.8339 178.357 32.83 178.368 32.8224C178.391 32.8148 178.41 32.811 178.433 32.8033C178.445 32.7994 178.452 32.7957 178.464 32.7918C178.536 32.7765 178.613 32.7651 178.685 32.7651C178.766 32.7651 178.85 32.7765 178.926 32.7995H178.934C178.964 32.811 178.999 32.8186 179.029 32.8339C179.037 32.8378 179.045 32.8378 179.052 32.8415C179.085 32.8558 179.117 32.8724 179.148 32.8912L179.163 32.8988C179.584 33.2045 179.713 33.7395 179.457 34.179L179.454 34.1828C179.424 34.2317 179.393 34.2801 179.362 34.328C179.354 34.3394 179.347 34.351 179.339 34.3624C178.445 35.7228 177.23 36.8081 175.873 37.4576C175.842 37.4692 175.816 37.4845 175.785 37.4997C175.781 37.4997 175.774 37.5036 175.77 37.5036C175.143 37.794 174.471 37.9965 173.752 38.0806C173.737 38.0806 173.722 38.0844 173.706 38.0844C173.645 38.0927 173.584 38.099 173.523 38.1035C173.488 38.1035 173.454 38.1073 173.416 38.1111C173.374 38.1111 173.328 38.1149 173.286 38.1188C173.202 38.1188 173.118 38.1226 173.034 38.1226H172.292C168.051 38.092 164.634 34.5535 164.634 30.22C164.634 25.8139 168.074 22.2562 172.35 22.2562C172.476 22.2562 172.602 22.2601 172.728 22.2639C174.218 22.3404 175.594 22.8486 176.737 23.6817C176.741 23.6855 176.744 23.6893 176.748 23.6893C176.813 23.7351 176.874 23.7848 176.935 23.8307C176.966 23.8574 177 23.8842 177.035 23.9109C177.065 23.9339 177.096 23.9606 177.126 23.9835C178.735 25.3248 179.82 27.3386 180 29.6696L180 29.6774ZM166.598 28.829H178.013C177.447 26.0776 175.082 24.0868 172.349 24.0868C169.567 24.0868 167.221 26.0394 166.598 28.829ZM147.759 22.5238C147.9 22.6651 147.996 22.8563 148.019 23.0779C148.019 23.1085 148.023 23.139 148.023 23.1696V37.2055C148.023 37.706 147.602 38.1226 147.105 38.1226C146.609 38.1226 146.192 37.706 146.192 37.2055V35.3407C145.844 35.761 145.462 36.1431 145.046 36.4756C145.034 36.4871 145.023 36.4947 145.011 36.5062C144.973 36.5367 144.933 36.566 144.893 36.594C143.632 37.5647 142.099 38.1226 140.498 38.1226C137.919 38.1226 135.649 36.7508 134.296 34.6719C134.285 34.6567 134.269 34.6375 134.258 34.6222C134.22 34.5573 134.182 34.4923 134.139 34.4235C134.113 34.3815 134.09 34.3394 134.063 34.2973C134.036 34.2554 134.013 34.2095 133.99 34.1637C133.952 34.0983 133.915 34.032 133.88 33.9649C133.868 33.942 133.861 33.9192 133.849 33.8962C133.331 32.8689 133.037 31.7437 132.985 30.5945C132.97 30.3247 132.97 30.0542 132.985 29.7844C133.037 28.634 133.332 27.5076 133.849 26.4788C133.861 26.4599 133.868 26.4369 133.88 26.414C133.915 26.3469 133.952 26.2807 133.99 26.2153C134.013 26.1693 134.036 26.1235 134.063 26.0815C134.086 26.0394 134.113 25.9974 134.139 25.9554C134.178 25.8904 134.22 25.8216 134.258 25.7567C134.269 25.7414 134.285 25.7222 134.296 25.707C135.649 23.6282 137.919 22.2563 140.498 22.2563C142.241 22.2563 143.888 22.8945 145.198 24.0064C145.558 24.3083 145.89 24.6409 146.192 25.0077V23.1695C146.192 23.139 146.192 23.1085 146.196 23.0779C146.219 22.8563 146.314 22.6651 146.456 22.5238V22.52C146.471 22.5047 146.49 22.4933 146.506 22.4779L146.521 22.4626C146.532 22.4512 146.548 22.4436 146.559 22.4359C146.57 22.4283 146.582 22.4168 146.593 22.4091C146.602 22.4055 146.61 22.4003 146.616 22.3939C146.635 22.3862 146.651 22.3748 146.67 22.3633C146.674 22.3633 146.678 22.3594 146.681 22.3594L146.75 22.3251H146.754C146.808 22.3028 146.865 22.2861 146.922 22.2754C146.926 22.2754 146.934 22.2716 146.937 22.2716C146.96 22.2678 146.987 22.264 147.014 22.2601C147.044 22.2601 147.075 22.2563 147.106 22.2563C147.14 22.2563 147.17 22.2601 147.201 22.2601C147.228 22.264 147.251 22.2678 147.277 22.2716C147.281 22.2716 147.285 22.2755 147.293 22.2755C147.35 22.2862 147.407 22.3028 147.461 22.3251H147.465C147.488 22.3365 147.511 22.348 147.53 22.3595C147.538 22.3595 147.541 22.3633 147.545 22.3633C147.561 22.3749 147.577 22.3851 147.595 22.3939C147.602 22.4015 147.614 22.4053 147.621 22.4091C147.633 22.4168 147.644 22.4283 147.656 22.4359C147.668 22.4436 147.68 22.4526 147.69 22.4626C147.698 22.4666 147.702 22.4741 147.709 22.4779C147.725 22.4933 147.744 22.5047 147.755 22.52L147.759 22.5239L147.759 22.5238ZM140.498 36.2921C143.635 36.2921 146.192 33.5561 146.192 30.1895C146.192 26.8076 143.636 24.0561 140.498 24.0561C137.384 24.0561 134.804 26.8037 134.804 30.1895C134.804 30.2964 134.808 30.3996 134.812 30.5028C134.812 30.5486 134.82 30.5907 134.82 30.6328C134.824 30.6939 134.828 30.755 134.835 30.8124C134.839 30.8621 134.847 30.9078 134.851 30.9537C134.858 31.0072 134.862 31.0646 134.87 31.1181C134.877 31.1601 134.885 31.1983 134.889 31.2364C134.9 31.2977 134.908 31.3587 134.919 31.42C134.927 31.4505 134.934 31.4773 134.938 31.5041C134.954 31.5766 134.969 31.6454 134.984 31.718C134.988 31.7338 134.993 31.7491 134.999 31.7638C135.649 34.3777 137.881 36.2922 140.498 36.2922L140.498 36.2921ZM124.789 15.6378H124.54C124.51 15.6378 124.475 15.6378 124.445 15.6416C124.41 15.6377 124.38 15.6377 124.345 15.6377C124.257 15.6377 124.17 15.6377 124.082 15.6416C124.066 15.6416 124.047 15.6454 124.032 15.6454C123.963 15.6454 123.894 15.6492 123.825 15.6568H123.787C123.715 15.6645 123.646 15.6683 123.577 15.6759C123.569 15.6798 123.562 15.6798 123.554 15.6798C123.478 15.6913 123.405 15.6989 123.336 15.7103H123.329C122.866 15.7829 122.45 15.9128 122.079 16.0963C122.079 16.1002 122.075 16.1002 122.071 16.1002C122.018 16.1307 121.96 16.1612 121.907 16.1918C121.895 16.1957 121.888 16.2033 121.876 16.2109C121.83 16.2376 121.784 16.2656 121.739 16.295C121.72 16.3065 121.704 16.3218 121.689 16.3332C121.651 16.3561 121.617 16.3829 121.578 16.4096C121.552 16.4324 121.526 16.4541 121.498 16.4746L121.429 16.5319C121.387 16.5701 121.349 16.6046 121.311 16.6427C121.303 16.6504 121.296 16.658 121.288 16.6657C121.242 16.7153 121.196 16.7612 121.15 16.8109C121.142 16.8223 121.135 16.8338 121.127 16.8414C121.089 16.8825 121.052 16.9246 121.017 16.9676C121.005 16.9867 120.99 17.0058 120.978 17.0248C120.949 17.0609 120.921 17.0978 120.894 17.1357C120.888 17.1498 120.879 17.1627 120.868 17.1738C120.837 17.2198 120.807 17.2656 120.78 17.3115C120.776 17.3191 120.772 17.3229 120.768 17.3305C120.52 17.7395 120.344 18.221 120.233 18.8019C120.233 18.8094 120.233 18.8209 120.229 18.8286C120.214 18.9012 120.203 18.9776 120.191 19.0541C120.187 19.077 120.183 19.0998 120.183 19.1228C120.172 19.1887 120.163 19.255 120.157 19.3214C120.153 19.3598 120.149 19.3979 120.145 19.44C120.137 19.4935 120.13 19.5432 120.126 19.6004C120.122 19.659 120.118 19.7176 120.115 19.7762C120.111 19.8144 120.111 19.8527 120.107 19.8947C120.103 19.9749 120.099 20.059 120.095 20.1432C120.095 20.1661 120.091 20.1813 120.091 20.2004C120.088 20.3074 120.088 20.4183 120.088 20.5252V22.0347H118.185C118.066 22.0308 117.948 22.0538 117.841 22.092C117.497 22.2182 117.252 22.543 117.252 22.9213C117.252 23.2767 117.428 23.5785 117.703 23.7543C117.845 23.8451 118.009 23.8965 118.177 23.9033H118.185V23.9072H120.088V37.2361C120.084 37.2551 120.088 37.2704 120.088 37.2896V37.3239C120.099 37.5326 120.184 37.7305 120.328 37.8818L120.332 37.8857C120.352 37.9048 120.374 37.9239 120.394 37.943C120.397 37.9469 120.401 37.9469 120.405 37.9506C120.42 37.966 120.439 37.9774 120.455 37.9887C120.463 37.9963 120.472 38.0028 120.481 38.0079C120.489 38.0152 120.498 38.0205 120.508 38.0233C120.661 38.1211 120.839 38.1728 121.02 38.1723C121.05 38.1718 121.079 38.1692 121.108 38.1646C121.288 38.1494 121.452 38.0729 121.586 37.9621L121.59 37.9582C121.608 37.9437 121.625 37.927 121.639 37.9086C121.643 37.9047 121.651 37.901 121.655 37.8972C121.67 37.8818 121.681 37.8666 121.693 37.8551C121.838 37.6793 121.918 37.4615 121.907 37.2361V23.9072H123.955V23.9032H123.963C124.506 23.8765 124.903 23.4524 124.888 22.925V22.9174C124.892 22.8983 124.888 22.8793 124.888 22.8601V22.841C124.872 22.6385 124.784 22.455 124.647 22.3137V22.3098H124.643C124.626 22.2923 124.608 22.2757 124.589 22.2601C124.582 22.2525 124.574 22.2487 124.57 22.2411C124.555 22.2296 124.544 22.222 124.528 22.2104C124.517 22.2028 124.502 22.1914 124.49 22.1837C124.482 22.1799 124.471 22.1723 124.463 22.1685C124.445 22.1568 124.426 22.1466 124.406 22.1379C124.402 22.1339 124.397 22.1312 124.391 22.1302C124.369 22.1185 124.346 22.1083 124.322 22.0997C124.318 22.0958 124.314 22.0958 124.307 22.0921L124.238 22.0691C124.23 22.0691 124.223 22.0653 124.215 22.0653C124.192 22.0615 124.173 22.0538 124.15 22.05C124.139 22.05 124.127 22.05 124.116 22.0462C124.1 22.0424 124.081 22.0424 124.062 22.0386H124.02C124.009 22.0386 123.997 22.0347 123.986 22.0347H121.907V20.4986C121.911 20.4222 121.911 20.3457 121.915 20.2731C121.915 20.254 121.915 20.231 121.919 20.2119C121.919 20.147 121.923 20.082 121.927 20.0209C121.927 20.0094 121.93 19.9942 121.93 19.9827C121.935 19.9112 121.941 19.8398 121.95 19.7687C122.022 19.0235 122.183 18.5535 122.351 18.2668C122.355 18.2592 122.355 18.2554 122.359 18.2478C122.37 18.2287 122.385 18.2096 122.397 18.1904C122.406 18.1743 122.416 18.159 122.427 18.1446C122.431 18.1369 122.439 18.1217 122.446 18.114C122.465 18.0882 122.485 18.0639 122.508 18.0415C122.748 17.7701 123.123 17.6058 123.665 17.5409C123.673 17.5409 123.677 17.537 123.688 17.537C123.72 17.5325 123.752 17.53 123.784 17.5293C123.799 17.5255 123.818 17.5255 123.834 17.5217C123.864 17.5217 123.891 17.5179 123.921 17.5179C123.944 17.5179 123.963 17.5141 123.99 17.5141C124.017 17.5103 124.044 17.5103 124.07 17.5103C124.097 17.5103 124.124 17.5063 124.151 17.5063H124.349C124.38 17.5063 124.407 17.5026 124.437 17.4988C124.472 17.5026 124.506 17.5064 124.54 17.5064H124.789C125.301 17.5064 125.721 17.0861 125.721 16.5702C125.721 16.0543 125.301 15.6378 124.789 15.6378H124.789ZM129.718 15.6645C129.718 15.6645 129.714 15.6605 129.71 15.6605C129.691 15.653 129.676 15.6454 129.653 15.6416C129.643 15.6371 129.633 15.6333 129.622 15.63C129.607 15.6262 129.592 15.6224 129.576 15.6186C129.561 15.6148 129.546 15.6071 129.534 15.6071C129.515 15.6032 129.5 15.5995 129.481 15.5995C129.466 15.5956 129.454 15.5956 129.439 15.5919C129.408 15.588 129.374 15.588 129.343 15.588C128.847 15.588 128.426 16.0046 128.426 16.5014V37.2055C128.426 37.706 128.847 38.1226 129.343 38.1226C129.374 38.1226 129.408 38.1226 129.439 38.1188C129.443 38.1188 129.45 38.1149 129.454 38.1149L129.534 38.1035C129.538 38.1035 129.546 38.0997 129.553 38.0997C129.576 38.0921 129.599 38.0882 129.622 38.0806C129.626 38.0806 129.63 38.0806 129.634 38.0767C129.985 37.966 130.245 37.6679 130.283 37.301C130.288 37.2694 130.291 37.2374 130.291 37.2055V16.5014C130.291 16.4707 130.287 16.4402 130.283 16.4096C130.249 16.0734 130.027 15.7944 129.718 15.6645H129.718ZM59.5541 33.2503C59.5464 33.1969 59.5464 33.1472 59.5388 33.0975C59.5352 33.0618 59.5314 33.0261 59.5274 32.9905C59.5197 32.9484 59.5159 32.9103 59.5082 32.8682C59.5006 32.83 59.4929 32.7919 59.4853 32.7498C59.4808 32.7176 59.4744 32.6857 59.4662 32.6542C59.4548 32.6084 59.447 32.5663 59.4356 32.5205C59.428 32.4975 59.4203 32.4708 59.4127 32.4478C59.4015 32.3995 59.3861 32.3522 59.3668 32.3065C59.363 32.2874 59.3554 32.2683 59.3516 32.253C59.3328 32.2001 59.3125 32.1479 59.2904 32.0963C59.2865 32.0887 59.2828 32.0772 59.279 32.0657C59.2522 32.0122 59.2293 31.9549 59.2025 31.9014C59.1987 31.8976 59.1987 31.8937 59.1948 31.8899C58.9771 31.4505 58.6676 31.0836 58.2893 30.7741C58.2893 30.7703 58.2893 30.7703 58.2854 30.7703C58.2319 30.7282 58.1784 30.6824 58.121 30.6404C58.121 30.6404 58.1173 30.6365 58.1135 30.6328C58.1096 30.6328 58.1058 30.6288 58.102 30.6251C58.0676 30.6022 58.0332 30.5754 58.0026 30.5525C57.5326 30.22 57.0129 29.9564 56.2562 29.6659L56.2219 29.6545C56.2104 29.6469 56.1951 29.643 56.1837 29.6354C55.7556 29.475 55.3124 29.3221 54.8577 29.173H54.8538C54.8538 29.173 54.8501 29.173 54.8501 29.1692C54.8424 29.1692 54.8347 29.1653 54.8233 29.1615C54.774 29.1438 54.7243 29.1272 54.6743 29.1118C54.6436 29.1042 54.6208 29.0966 54.5978 29.0889C54.445 29.0354 54.2882 28.9857 54.1316 28.9322C54.0208 28.8941 53.9023 28.8559 53.7609 28.8099C53.7227 28.7985 53.631 28.7679 53.5545 28.745C53.5507 28.745 53.5507 28.7412 53.5469 28.7412C53.5 28.7253 53.4528 28.71 53.4055 28.6953C53.0234 28.573 52.71 28.4661 52.4425 28.3667C52.0069 28.2063 51.6095 28.0343 51.2847 27.8279C51.2778 27.8249 51.2714 27.8211 51.2656 27.8164C50.8223 27.5337 50.5166 27.1859 50.444 26.7311L50.4401 26.7273C50.4357 26.6957 50.4332 26.6638 50.4326 26.6318C50.4287 26.6242 50.4287 26.6204 50.4287 26.6165C50.425 26.5783 50.425 26.5439 50.425 26.5057C50.425 26.4522 50.4288 26.3987 50.4326 26.349C50.4326 26.3338 50.4326 26.3223 50.4364 26.3109C50.4402 26.2688 50.444 26.2306 50.4478 26.1924C50.4517 26.1808 50.4517 26.1694 50.4555 26.158C50.4631 26.1159 50.4707 26.0777 50.4784 26.0357C50.4823 26.0319 50.4823 26.0242 50.486 26.0166C50.4964 25.9727 50.5092 25.9293 50.5242 25.8867V25.8828C50.7229 25.2905 51.193 24.8511 51.747 24.5416C51.7852 24.5224 51.8235 24.5033 51.8579 24.4842C51.8961 24.4651 51.9305 24.4461 51.9649 24.4307C52.0214 24.4036 52.0788 24.3782 52.1368 24.3543C52.1713 24.339 52.2018 24.3237 52.2362 24.3123L52.4196 24.2435C52.4525 24.2314 52.4856 24.2199 52.5189 24.209C52.5801 24.19 52.6374 24.1709 52.6986 24.1555C52.7368 24.1441 52.7712 24.1326 52.8094 24.125C52.8667 24.1097 52.924 24.0982 52.9776 24.083L53.0922 24.0601C53.1534 24.0485 53.2106 24.0371 53.2642 24.0294C53.2975 24.0262 53.3307 24.0211 53.3635 24.0142C53.4308 24.0058 53.4983 23.9994 53.566 23.9951C53.5813 23.9912 53.5966 23.9912 53.6157 23.9875C53.6998 23.9836 53.7839 23.9798 53.8642 23.9798C53.9596 23.9798 54.0552 23.9837 54.1469 23.9875H54.1889C54.8653 24.0295 55.4118 24.1938 55.8628 24.4116C55.897 24.4269 55.9314 24.446 55.9659 24.4612C55.9842 24.4729 56.0033 24.4832 56.0232 24.4919C56.0653 24.5148 56.1073 24.5377 56.1531 24.5645L56.176 24.5759C56.2219 24.6027 56.2678 24.6332 56.3136 24.66C56.3156 24.6622 56.3183 24.6636 56.3213 24.6638C56.3709 24.6944 56.4206 24.7288 56.4703 24.7593C56.4703 24.7632 56.4741 24.7632 56.4741 24.767C56.5238 24.7976 56.5697 24.8281 56.6154 24.8625C56.6324 24.8765 56.6502 24.8893 56.669 24.9007C56.776 24.9809 56.9441 25.1109 57.0969 25.237C57.1136 25.2466 57.129 25.2581 57.1428 25.2714C57.2575 25.3669 57.3645 25.451 57.4676 25.5275C57.4824 25.5395 57.4977 25.551 57.5135 25.5618C57.5173 25.5657 57.5211 25.5694 57.5249 25.5694L57.5594 25.5924C57.5861 25.6115 57.6167 25.6306 57.6435 25.6497C57.6549 25.6574 57.6664 25.6612 57.6777 25.6688L57.7581 25.7147C57.7695 25.7185 57.7771 25.7223 57.7887 25.7261C57.8172 25.7405 57.8466 25.7532 57.8765 25.7643C57.8842 25.7682 57.888 25.7682 57.8956 25.7719C57.93 25.7835 57.9644 25.7949 57.9988 25.7987L58.0026 25.8026C58.079 25.814 58.1516 25.8178 58.2281 25.7986C58.2357 25.7986 58.2434 25.7949 58.251 25.7949C58.2701 25.791 58.2931 25.7835 58.3122 25.7797C58.3198 25.7757 58.3236 25.772 58.3312 25.7681C58.3394 25.7673 58.3472 25.7647 58.3542 25.7605C58.3856 25.7454 58.4161 25.7289 58.4459 25.7109C58.4535 25.7109 58.4573 25.707 58.4611 25.7033C58.4946 25.6812 58.5265 25.6569 58.5567 25.6306L58.5605 25.6268C58.5872 25.6039 58.6102 25.5772 58.6331 25.5504C58.6493 25.5302 58.6634 25.5084 58.6752 25.4854C58.679 25.4815 58.6828 25.4778 58.6828 25.4739C58.8433 25.2064 58.7516 24.8549 58.4688 24.4727C58.465 24.4651 58.4611 24.4574 58.4535 24.4498C58.4421 24.4345 58.4344 24.4231 58.423 24.4077C57.7733 23.5671 56.2945 22.6461 54.9226 22.3519C54.9149 22.3519 54.9073 22.3519 54.8997 22.348C54.8423 22.3365 54.7812 22.3251 54.7239 22.3137C54.7071 22.313 54.6904 22.3104 54.6742 22.306C54.6245 22.2984 54.5749 22.2908 54.5252 22.2869C54.5064 22.2825 54.4872 22.28 54.4678 22.2793C54.422 22.2754 54.3723 22.2717 54.3265 22.2679C54.3073 22.264 54.2882 22.264 54.273 22.2602C54.208 22.2602 54.1468 22.2563 54.0857 22.2563C53.9863 22.2563 53.887 22.2563 53.7915 22.2602C53.738 22.2602 53.6845 22.2641 53.6271 22.2679C53.589 22.2717 53.543 22.2717 53.5048 22.2717C53.4284 22.2793 53.3559 22.2831 53.2833 22.2908C53.2641 22.2908 53.2412 22.2908 53.2221 22.2946C53.1391 22.3014 53.0562 22.3103 52.9736 22.3213H52.9469C52.8613 22.3319 52.7759 22.3446 52.6909 22.3594H52.6757C52.5925 22.3713 52.5096 22.3853 52.4272 22.4015C52.4235 22.4015 52.4196 22.4054 52.4119 22.4054C52.2436 22.4356 52.0767 22.4726 51.9113 22.5162C51.9075 22.5162 51.9075 22.5201 51.9075 22.5201C51.8273 22.5391 51.7471 22.562 51.6669 22.5849C51.5904 22.6079 51.5178 22.6346 51.449 22.6576C51.4414 22.6576 51.4375 22.6614 51.4298 22.6614C51.3611 22.6881 51.2923 22.711 51.2234 22.7377C51.2175 22.7413 51.2111 22.7439 51.2044 22.7455C51.1385 22.7712 51.0734 22.7992 51.0095 22.8296C51.0018 22.8333 50.9904 22.8333 50.9828 22.841C50.9254 22.8639 50.8643 22.8945 50.8108 22.9213C50.7955 22.9289 50.7841 22.9327 50.7726 22.9403C50.7167 22.9661 50.6619 22.9941 50.6083 23.0245C50.593 23.0321 50.5815 23.0397 50.5662 23.0474C50.5165 23.0741 50.4669 23.1047 50.4172 23.1352C50.4011 23.1427 50.3858 23.1517 50.3713 23.162C50.3064 23.2002 50.2452 23.2422 50.1841 23.2804C50.1115 23.334 50.0389 23.3836 49.9739 23.4371C49.9662 23.4371 49.9624 23.441 49.9624 23.4447C49.6376 23.6855 49.3586 23.9415 49.1294 24.2396C49.1218 24.251 49.1103 24.2626 49.1026 24.274C49.0759 24.3161 49.0453 24.3542 49.0185 24.3924C48.9995 24.423 48.9804 24.4536 48.9613 24.4841C48.9459 24.5062 48.9318 24.5292 48.9192 24.5529C48.8889 24.6026 48.8608 24.6536 48.8351 24.7058C48.8314 24.7134 48.8275 24.7173 48.8237 24.7249C48.6173 25.1338 48.4989 25.6039 48.453 26.1732C48.453 26.1808 48.453 26.1885 48.4492 26.1961C48.4453 26.2955 48.4377 26.3949 48.4339 26.5018C48.4339 26.582 48.4339 26.6623 48.4378 26.7426V26.777C48.4798 27.8699 48.9765 28.6915 49.8746 29.3297C49.8822 29.3335 49.8898 29.3411 49.8975 29.345L50.0121 29.4252C50.0388 29.4443 50.0695 29.4596 50.0963 29.4787C50.1038 29.4863 50.1153 29.4901 50.123 29.494C51.0095 30.0558 52.0948 30.3767 53.0004 30.6328C53.4437 30.7627 53.8412 30.8734 53.9596 30.9078C53.9863 30.9155 54.0131 30.9232 54.0359 30.9346C54.5787 31.1143 54.9952 31.2594 55.3391 31.397C55.3659 31.4046 55.3888 31.4162 55.4155 31.4238C55.4231 31.4276 55.4347 31.4314 55.4461 31.439C55.641 31.5193 55.832 31.6034 56.0155 31.6951C56.1636 31.77 56.3089 31.8503 56.4511 31.9358C56.8141 32.1613 57.0931 32.4059 57.2804 32.6734C57.288 32.681 57.2918 32.6887 57.2956 32.6963C57.3144 32.7181 57.3299 32.7426 57.3415 32.7689C57.3518 32.782 57.3607 32.7961 57.3682 32.811C57.3799 32.8293 57.3901 32.8484 57.3988 32.8683C57.4103 32.8874 57.4179 32.9104 57.4294 32.9294L57.4524 32.9752C57.46 32.9982 57.4714 33.0211 57.4791 33.0478C57.483 33.0594 57.4905 33.0746 57.4943 33.0899L57.5173 33.1701C57.5216 33.1827 57.5255 33.1954 57.5288 33.2083C57.5369 33.2359 57.5433 33.264 57.5478 33.2925C57.5522 33.3048 57.5548 33.3176 57.5555 33.3306L57.567 33.4224C57.5708 33.4338 57.5708 33.4453 57.5708 33.4567C57.5746 33.5026 57.5784 33.5447 57.5784 33.5905C57.5784 33.6592 57.5745 33.7243 57.5708 33.7892C57.5708 33.8083 57.5669 33.8274 57.5669 33.8465C57.563 33.8967 57.5554 33.9465 57.544 33.9956C57.544 34.0108 57.5402 34.0261 57.5364 34.0414C57.5135 34.1752 57.4752 34.3013 57.4255 34.4274C57.4217 34.4312 57.4217 34.435 57.4217 34.4388C57.395 34.4961 57.3682 34.5573 57.3377 34.6108C57.3339 34.6184 57.3339 34.6222 57.3301 34.626C57.2651 34.7483 57.1887 34.8668 57.0931 34.9776C57.0468 35.0342 56.9984 35.089 56.948 35.142C56.944 35.142 56.944 35.142 56.944 35.1458C56.8409 35.2489 56.7263 35.3444 56.6078 35.4324C56.604 35.4362 56.6002 35.4362 56.6002 35.44C56.5429 35.4781 56.4855 35.5202 56.4282 35.5546C56.4206 35.5623 56.4129 35.5661 56.4053 35.5699C56.2661 35.6561 56.1219 35.7339 55.9735 35.803C55.9314 35.8222 55.8856 35.8451 55.8398 35.8641C55.8016 35.8794 55.7672 35.8948 55.7289 35.91C55.6257 35.9482 55.5264 35.9864 55.4232 36.0209C55.4074 36.0242 55.392 36.0293 55.3773 36.0361C55.3162 36.0552 55.2551 36.0706 55.1939 36.0896C55.1787 36.0935 55.1596 36.1011 55.1442 36.1049C54.9502 36.1563 54.7538 36.1985 54.5558 36.2311H54.5443C54.4488 36.2464 54.3571 36.2578 54.2692 36.2692C54.2348 36.2731 54.2042 36.2769 54.1699 36.2769C54.1392 36.2807 54.1087 36.2807 54.0743 36.2845C54.0018 36.2889 53.9291 36.2914 53.8564 36.2921C53.7188 36.2922 53.5812 36.2884 53.4438 36.2807C53.3903 36.2807 53.3368 36.2768 53.2833 36.2731C53.2107 36.2654 53.1343 36.2616 53.0654 36.2539C53.0003 36.2496 52.9353 36.2432 52.8705 36.2348C52.8132 36.2272 52.7597 36.2196 52.7062 36.2119C52.5878 36.1927 52.477 36.1775 52.3661 36.1546C52.3164 36.1431 52.2629 36.1355 52.2132 36.124C52.1559 36.1087 52.0987 36.0973 52.0414 36.0819C51.9784 36.0676 51.9159 36.0511 51.8541 36.0323C51.812 36.0209 51.7662 36.0093 51.7279 35.9979C51.6247 35.9675 51.5228 35.9331 51.4223 35.8948L51.3534 35.8718C51.1319 35.7876 50.914 35.696 50.6999 35.5891C50.6924 35.5851 50.6809 35.5775 50.6694 35.5737C50.5319 35.5049 50.2988 35.375 50.0772 35.2489C50.058 35.2375 50.0351 35.226 50.016 35.2145C49.8593 35.1228 49.7255 35.0464 49.5995 34.9853C49.5909 34.9795 49.582 34.9744 49.5727 34.9699C49.5668 34.9664 49.5603 34.9638 49.5536 34.9623C49.5192 34.947 49.4925 34.9318 49.4619 34.9202C49.4527 34.9171 49.4437 34.9133 49.4351 34.9088C49.3549 34.8782 49.2822 34.8553 49.2097 34.8476C49.1868 34.8438 49.1639 34.8438 49.1409 34.8438C49.1333 34.84 49.1256 34.84 49.118 34.84C48.9727 34.84 48.8466 34.8897 48.7281 35.0005C48.7021 35.0228 48.6778 35.047 48.6556 35.0731C48.6504 35.0817 48.6439 35.0894 48.6365 35.0961C48.6235 35.1124 48.6108 35.129 48.5983 35.1457C48.5914 35.1556 48.585 35.1658 48.5792 35.1763C48.5677 35.1916 48.5563 35.2068 48.5486 35.2222C48.542 35.2329 48.5368 35.2444 48.5333 35.2565L48.5104 35.3024C48.5065 35.3139 48.5028 35.3215 48.4989 35.3329C48.4926 35.3491 48.4875 35.3657 48.4836 35.3826C48.4798 35.3941 48.476 35.4018 48.476 35.4133L48.4645 35.4706C48.4645 35.4782 48.4607 35.4858 48.4607 35.4935C48.4569 35.5202 48.4569 35.5432 48.4569 35.5661V35.5775C48.4569 35.6081 48.4608 35.6348 48.4683 35.6655V35.6807C48.476 35.7037 48.4799 35.7304 48.4875 35.7533L48.4989 35.7877C48.5066 35.8068 48.5104 35.8298 48.5218 35.8489C48.5249 35.8581 48.5288 35.867 48.5333 35.8756C48.583 35.9902 48.6633 36.1087 48.7664 36.2234C48.8772 36.3456 49.0186 36.4679 49.1829 36.5941C49.1868 36.5941 49.1868 36.5941 49.1868 36.5978C49.2326 36.6285 49.2785 36.6628 49.3281 36.6972C49.3397 36.7049 49.3473 36.7125 49.3587 36.7163C49.5001 36.8128 49.6455 36.9033 49.7944 36.9876C49.8325 37.0106 49.8708 37.0336 49.909 37.0526C49.9472 37.0755 49.9854 37.0947 50.0237 37.1138C50.0696 37.1405 50.123 37.1672 50.1727 37.194C50.2071 37.2093 50.2376 37.2283 50.2721 37.2437C50.3485 37.2819 50.4287 37.3201 50.509 37.3584C50.5183 37.3649 50.5286 37.3701 50.5395 37.3736C50.6275 37.4157 50.7153 37.4538 50.8032 37.4883C50.8414 37.5035 50.8758 37.5188 50.914 37.534C50.921 37.5383 50.9288 37.5409 50.937 37.5417C51.7548 37.8627 52.7636 38.0768 53.6539 38.1149C53.7189 38.1188 53.7877 38.1226 53.8526 38.1226H53.8565C53.8871 38.1226 53.9138 38.1226 53.9444 38.1187H54.1508C54.1583 38.1187 54.166 38.1187 54.1737 38.1149C55.6219 38.0691 56.8104 37.6946 57.823 36.9533V36.9493C58.9466 36.1011 59.5656 34.905 59.5656 33.5866C59.5656 33.5025 59.5617 33.4185 59.558 33.3382C59.558 33.3076 59.5541 33.2771 59.5541 33.2503ZM68.8973 22.2868H68.8859C67.1051 22.2868 65.4238 23.0129 64.2085 24.2969V23.204C64.2085 22.6996 63.8187 22.2868 63.3258 22.2868C63.2913 22.2868 63.2608 22.2908 63.2302 22.2908C63.0124 22.3137 62.8213 22.4091 62.6799 22.5506C62.6761 22.5506 62.6761 22.5506 62.6723 22.5544C62.6608 22.5697 62.6456 22.5849 62.6341 22.6002C62.626 22.6045 62.6193 22.6112 62.615 22.6194C62.6035 22.6308 62.5959 22.6423 62.5883 22.6537C62.5806 22.6661 62.5716 22.6776 62.5616 22.6881L62.55 22.711C62.5394 22.7294 62.528 22.7473 62.5157 22.7645C62.5157 22.7685 62.5157 22.7722 62.5118 22.776L62.4775 22.8448C62.4583 22.9021 62.4393 22.9594 62.4278 23.0167C62.4278 23.0206 62.4278 23.0244 62.4239 23.0244C62.4204 23.0524 62.4165 23.0805 62.4125 23.1085C62.4125 23.139 62.4087 23.1696 62.4087 23.204V37.3965L62.3972 37.4576L62.4431 37.4958C62.4431 37.515 62.4469 37.5418 62.4584 37.5685C62.4584 37.5724 62.4623 37.5799 62.4623 37.5837C62.4707 37.6065 62.4837 37.6273 62.5004 37.6449C62.6188 37.8704 62.8366 38.0424 63.0927 38.1188L63.1118 38.1227H63.3258C63.3602 38.1227 63.3945 38.1227 63.429 38.1188C63.4519 38.1149 63.4749 38.1073 63.4978 38.1035C63.5092 38.1035 63.5168 38.1035 63.5284 38.0996C63.5594 38.0925 63.59 38.0835 63.62 38.0729H63.6239C63.7843 38.0157 63.9219 37.9163 64.0136 37.7825L64.0251 37.771C64.0863 37.706 64.1206 37.6373 64.1551 37.5418C64.1589 37.5303 64.1627 37.5226 64.1627 37.515C64.1665 37.5112 64.1665 37.5112 64.1665 37.5073C64.1818 37.4616 64.1932 37.4157 64.2047 37.3698L64.2086 37.3545V28.764C64.2696 26.2036 66.3637 24.1211 68.8782 24.1172H68.8859C71.4462 24.1172 73.5287 26.1999 73.5287 28.7602V37.2054C73.5287 37.2398 73.5326 37.2703 73.5365 37.3009C73.5534 37.5101 73.6441 37.7065 73.7925 37.855C73.7925 37.855 73.7963 37.855 73.7963 37.8588C73.8115 37.8741 73.8268 37.8855 73.8422 37.9009C73.8475 37.9071 73.854 37.9123 73.8612 37.9162C73.8727 37.9276 73.8841 37.9352 73.8956 37.9429C73.9061 37.953 73.9176 37.962 73.93 37.9697C73.9401 37.9724 73.9493 37.9777 73.9567 37.9849C73.9721 37.9964 73.9912 38.004 74.0064 38.0156C74.0103 38.0156 74.0141 38.0194 74.0217 38.0194C74.0409 38.0308 74.0637 38.0423 74.0867 38.0537H74.0905C74.1447 38.076 74.201 38.0927 74.2586 38.1034C74.2663 38.1034 74.2701 38.1072 74.274 38.1072C74.3007 38.111 74.3236 38.1148 74.3503 38.1187C74.382 38.122 74.4139 38.1233 74.4459 38.1226C74.4765 38.1226 74.507 38.1226 74.5376 38.1187C74.5643 38.1148 74.5911 38.111 74.614 38.1072C74.6179 38.1072 74.6255 38.1034 74.6294 38.1034C74.6882 38.0927 74.7458 38.076 74.8013 38.0537L74.8701 38.0194C74.874 38.0194 74.8778 38.0155 74.8816 38.0155C74.9007 38.004 74.9159 37.9964 74.9351 37.9849C74.9427 37.9773 74.9504 37.9735 74.958 37.9697C74.9704 37.962 74.9819 37.953 74.9924 37.9429C75.0039 37.9352 75.0191 37.9276 75.0306 37.9162C75.0345 37.9123 75.042 37.9085 75.0459 37.9009C75.0612 37.8855 75.0803 37.8741 75.0955 37.8588V37.855C75.2408 37.7137 75.3363 37.5226 75.3555 37.3009C75.3593 37.2703 75.3593 37.2398 75.3593 37.2054V28.7602C75.3593 25.1949 72.4626 22.2944 68.8973 22.2867V22.2868ZM85.3827 22.2563C89.5327 22.2563 92.907 25.814 92.907 30.1895C92.907 34.5649 89.5327 38.1226 85.3827 38.1226C85.2552 38.1226 85.1278 38.1188 85.0005 38.1111C84.9814 38.1111 84.9662 38.1111 84.9471 38.1073C84.8363 38.1035 84.7254 38.0921 84.6184 38.0806H84.6069C82.9676 37.901 81.4352 37.152 80.2162 35.9253C80.1665 35.8757 80.113 35.826 80.0672 35.7725C80.0633 35.7725 80.0633 35.7687 80.0596 35.7687C80.0328 35.742 80.0099 35.7113 79.9831 35.6808C79.9248 35.618 79.8675 35.5542 79.8112 35.4897C79.7652 35.4401 79.7232 35.3827 79.6774 35.3292C79.6468 35.2872 79.6124 35.2451 79.5781 35.203C79.5098 35.119 79.4448 35.0324 79.3832 34.9433L79.3602 34.9089C78.6135 33.8646 78.1286 32.6563 77.9463 31.3855C77.9272 31.2672 77.9158 31.1486 77.9042 31.0301C77.9004 31.0187 77.9004 31.0034 77.8966 30.9881C77.8852 30.8788 77.8775 30.7692 77.8737 30.6595C77.8699 30.6366 77.8699 30.6137 77.8699 30.5869C77.8622 30.4546 77.8584 30.322 77.8585 30.1895C77.8585 30.0558 77.8623 29.9219 77.8699 29.792C77.8699 29.7653 77.8699 29.7423 77.8737 29.7194C77.8774 29.6096 77.885 29.5 77.8966 29.3907C77.9005 29.3755 77.9005 29.3602 77.9042 29.3487C77.9158 29.2303 77.9272 29.1118 77.9463 28.9934C78.1286 27.7226 78.6135 26.5143 79.3602 25.47C79.3643 25.4586 79.3708 25.4482 79.3794 25.4395C79.4434 25.3488 79.5096 25.2596 79.578 25.1721C79.6086 25.1338 79.643 25.0956 79.6735 25.0536C79.7195 24.9963 79.7653 24.9427 79.8112 24.8853C79.8649 24.8245 79.9197 24.7647 79.9755 24.7058C80.0022 24.6752 80.0328 24.6409 80.0596 24.6102C80.0634 24.6102 80.0634 24.6064 80.0672 24.6064C80.1093 24.5568 80.1589 24.5109 80.2047 24.4651C81.4237 23.2346 82.9599 22.478 84.6069 22.2984H84.6184C84.7254 22.2868 84.8363 22.2792 84.9471 22.2716C84.9662 22.2716 84.9814 22.2678 85.0005 22.2678C85.1278 22.2601 85.2552 22.2563 85.3827 22.2563ZM91.0459 29.5665V29.5589C90.9122 28.1833 90.3466 26.9414 89.5022 25.9822C89.4639 25.9401 89.4295 25.898 89.3913 25.856L89.3225 25.7873C89.2766 25.7414 89.2346 25.6955 89.1888 25.6496C89.1467 25.6076 89.1009 25.5694 89.0589 25.5313C89.032 25.5083 89.0091 25.4816 88.9824 25.4586C88.9136 25.3974 88.8448 25.3402 88.776 25.2828C88.776 25.2828 88.7722 25.2828 88.7722 25.279C87.9736 24.6332 87.0144 24.209 85.9827 24.0906C85.9711 24.0906 85.9635 24.0868 85.9559 24.0868C85.8757 24.0753 85.7993 24.0715 85.7189 24.0677C85.6999 24.0638 85.6846 24.0638 85.6693 24.0638C85.5738 24.0562 85.4782 24.0562 85.3826 24.0562C85.2871 24.0562 85.1917 24.0562 85.0961 24.0639C85.0808 24.0639 85.0656 24.0639 85.0464 24.0677C84.9662 24.0715 84.8898 24.0753 84.8094 24.0868C84.8018 24.0868 84.7942 24.0906 84.7827 24.0906C83.751 24.209 82.7918 24.6332 81.9931 25.279C81.9931 25.2829 81.9893 25.2829 81.9893 25.2829C81.9196 25.3403 81.8508 25.3989 81.783 25.4586C81.7563 25.4816 81.7333 25.5045 81.7066 25.5274C81.6645 25.5694 81.6186 25.6076 81.5767 25.6496C81.5346 25.6917 81.4925 25.7376 81.4466 25.7835L81.3741 25.8561C81.3397 25.8942 81.3053 25.9363 81.2671 25.9783C80.4226 26.9375 79.8531 28.1833 79.7195 29.5589V29.5665C79.711 29.6556 79.7046 29.7448 79.7003 29.8341C79.7003 29.8494 79.6964 29.8646 79.6964 29.8799C79.6927 29.9831 79.6889 30.0863 79.6889 30.1895C79.6889 33.5484 82.2721 36.2921 85.3827 36.2921C88.4933 36.2921 91.0765 33.5484 91.0765 30.1895C91.0765 30.0863 91.0727 29.9831 91.0689 29.8799C91.0689 29.8646 91.0651 29.8494 91.0651 29.8341C91.0613 29.7423 91.0536 29.6545 91.046 29.5665H91.0459ZM115.021 22.6499C115.013 22.6423 115.01 22.6346 115.002 22.627C114.909 22.5111 114.788 22.4205 114.651 22.3633H114.647C114.631 22.3518 114.612 22.348 114.597 22.3404C114.589 22.3404 114.582 22.3365 114.57 22.3327C114.448 22.2907 114.314 22.283 114.184 22.3022H114.18C113.917 22.3443 113.664 22.5047 113.523 22.7416H113.519C113.5 22.7798 113.477 22.818 113.462 22.8563L113.458 22.8601V22.8639L109.079 34.8515L105.639 26.6662C105.605 26.5898 105.559 26.521 105.506 26.4559C105.318 26.2382 105.032 26.1006 104.738 26.1006C104.692 26.1006 104.65 26.1006 104.604 26.1121H104.589C104.283 26.1656 103.996 26.3795 103.866 26.6662V26.67L100.427 34.8554L98.761 30.3269L96.0173 22.8639C96.003 22.8247 95.9864 22.7865 95.9676 22.7493L95.9599 22.7416C95.8758 22.5849 95.7421 22.4626 95.5817 22.3862C95.5817 22.3862 95.5777 22.3862 95.5777 22.3824C95.497 22.3472 95.4124 22.3216 95.3256 22.306C95.318 22.306 95.3142 22.306 95.3065 22.3021C95.2633 22.2977 95.2199 22.2952 95.1766 22.2946H95.146C95.127 22.2946 95.1079 22.2946 95.0887 22.2984C95.0773 22.2984 95.062 22.3022 95.0506 22.3022C95.0314 22.306 95.0161 22.306 95.0009 22.3098C94.9893 22.3137 94.9779 22.3137 94.9664 22.3175C94.9473 22.3213 94.9283 22.3251 94.9091 22.3327C94.9015 22.3365 94.8938 22.3365 94.8862 22.3404C94.867 22.348 94.8481 22.3518 94.8289 22.3633H94.825C94.6684 22.432 94.5422 22.5505 94.4506 22.688C94.4467 22.6958 94.4429 22.6996 94.439 22.7072L94.4276 22.7301C94.3588 22.8448 94.3167 22.9786 94.3015 23.1123C94.2857 23.2578 94.3067 23.405 94.3626 23.5403L97.5382 32.0734L99.575 37.5456V37.5494C99.6591 37.7558 99.7814 37.8971 99.9495 37.9736C99.9534 37.9774 99.961 37.9812 99.9648 37.985C99.9692 37.9897 99.9744 37.9935 99.98 37.9965C99.98 38.0003 99.984 38.0003 99.9879 38.0041C99.9957 38.0079 99.9993 38.0117 100.007 38.0194H100.015C100.05 38.0417 100.091 38.0548 100.133 38.0575C100.137 38.0575 100.141 38.0614 100.145 38.0614C100.16 38.0653 100.175 38.0729 100.191 38.0767C100.198 38.0767 100.206 38.0806 100.213 38.0806C100.309 38.1111 100.37 38.1226 100.446 38.1226C100.489 38.1226 100.527 38.1187 100.569 38.1111C100.601 38.1071 100.633 38.0994 100.664 38.0881C100.672 38.0843 100.68 38.0843 100.687 38.0805C100.719 38.0725 100.75 38.0609 100.779 38.0462C100.79 38.0423 100.802 38.0385 100.813 38.0308C100.832 38.0194 100.855 38.0079 100.878 37.9965C100.896 37.9841 100.913 37.9726 100.932 37.962C100.943 37.9544 100.955 37.943 100.966 37.9353C100.993 37.9161 101.018 37.8957 101.043 37.8742C101.047 37.8703 101.05 37.8666 101.054 37.8588C101.081 37.8321 101.108 37.8054 101.134 37.7748C101.134 37.771 101.138 37.7672 101.142 37.7634C101.166 37.7317 101.188 37.6985 101.207 37.664C101.227 37.6242 101.245 37.5834 101.261 37.5417L101.265 37.5302L101.276 37.515L101.287 37.4882L104.738 29.2494L108.219 37.5187C108.247 37.6035 108.29 37.6825 108.346 37.7519C108.353 37.7634 108.361 37.771 108.368 37.7824C108.388 37.8063 108.408 37.8293 108.43 37.8512C108.441 37.8588 108.452 37.8704 108.464 37.878C108.483 37.8971 108.506 37.9162 108.529 37.9353C108.54 37.943 108.548 37.9506 108.559 37.9544C108.585 37.9736 108.612 37.9914 108.64 38.0079L108.663 38.0194C108.693 38.0346 108.72 38.05 108.754 38.0614C108.762 38.0653 108.77 38.0691 108.781 38.0691C108.808 38.0815 108.836 38.0917 108.865 38.0996C108.902 38.1069 108.939 38.1145 108.976 38.1226H109.09C109.134 38.1227 109.178 38.1188 109.22 38.111C109.232 38.111 109.239 38.111 109.251 38.1072C109.287 38.1006 109.323 38.0917 109.358 38.0805C109.367 38.0774 109.376 38.0736 109.385 38.0691C109.423 38.0576 109.461 38.0384 109.495 38.0194C109.499 38.0194 109.503 38.0156 109.507 38.0156C109.547 37.9906 109.587 37.9638 109.625 37.9353C109.778 37.8207 109.889 37.6716 109.965 37.4883V37.4844L112.117 31.6912L115.143 23.5403C115.262 23.2537 115.216 22.9403 115.052 22.6958C115.043 22.6797 115.033 22.6643 115.021 22.6499ZM163.617 22.9059C163.617 22.8891 163.614 22.8725 163.61 22.8563C163.61 22.8448 163.606 22.8333 163.602 22.8219C163.598 22.8028 163.594 22.7837 163.59 22.7684C163.586 22.7569 163.582 22.7455 163.579 22.7378C163.575 22.7162 163.567 22.6954 163.556 22.6767C163.556 22.6691 163.552 22.6651 163.548 22.6575C163.538 22.6322 163.525 22.6079 163.51 22.5849V22.5811C163.465 22.5031 163.408 22.4322 163.342 22.371L163.338 22.3671L163.334 22.3633C163.009 22.0386 162.551 21.9965 162.191 22.2487C162.18 22.2563 162.172 22.264 162.161 22.2678L162.115 22.3022C162.092 22.3251 162.069 22.3443 162.046 22.3672C162.046 22.3672 162.042 22.3672 162.042 22.371L153.089 31.099V16.5013C153.089 16.4707 153.089 16.4402 153.085 16.4096C153.051 16.0734 152.825 15.7944 152.519 15.6645C152.515 15.6645 152.515 15.6605 152.512 15.6605C152.493 15.6525 152.474 15.6462 152.454 15.6416C152.444 15.6371 152.434 15.6333 152.424 15.63C152.407 15.6258 152.391 15.622 152.374 15.6186C152.36 15.6143 152.346 15.6104 152.332 15.6071C152.316 15.6027 152.299 15.6002 152.282 15.5995C152.267 15.5956 152.256 15.5956 152.24 15.5919C152.206 15.588 152.175 15.588 152.145 15.588C151.644 15.588 151.227 16.0046 151.227 16.5014V37.2055C151.227 37.706 151.644 38.1226 152.145 38.1226C152.175 38.1226 152.21 38.1226 152.24 38.1188C152.244 38.1188 152.248 38.1149 152.255 38.1149C152.282 38.1111 152.309 38.1111 152.332 38.1035C152.34 38.1035 152.347 38.0997 152.355 38.0997C152.378 38.0921 152.401 38.0882 152.423 38.0806C152.427 38.0806 152.431 38.0767 152.435 38.0767C152.787 37.966 153.046 37.6641 153.085 37.301C153.089 37.2705 153.089 37.2399 153.089 37.2055V33.7127L156.104 30.7016L161.962 37.7711C162 37.8322 162.042 37.8857 162.095 37.9277C162.105 37.9377 162.115 37.9467 162.126 37.9545C162.141 37.966 162.156 37.9774 162.172 37.985C162.191 38.0004 162.21 38.008 162.229 38.0195C162.237 38.0233 162.248 38.0309 162.256 38.0347C162.283 38.0462 162.306 38.0538 162.332 38.0653C162.34 38.0692 162.348 38.0692 162.351 38.073C162.382 38.0806 162.409 38.0882 162.439 38.0959C162.443 38.0959 162.451 38.0997 162.458 38.0997C162.488 38.1069 162.519 38.112 162.55 38.1149C162.558 38.1149 162.565 38.1149 162.573 38.1189C162.611 38.1189 162.649 38.1226 162.691 38.1226C162.749 38.1228 162.806 38.119 162.863 38.1111H162.867C162.971 38.0956 163.072 38.0634 163.165 38.0157C163.169 38.0157 163.169 38.0117 163.169 38.0117C163.213 37.9877 163.255 37.961 163.295 37.9315L163.307 37.9201C163.654 37.5723 163.708 37.0985 163.456 36.7049C163.433 36.6696 163.409 36.6352 163.383 36.6017L157.433 29.3755L163.341 23.6663C163.498 23.5059 163.593 23.311 163.616 23.1009C163.616 23.097 163.616 23.0932 163.62 23.0893V23.0282C163.62 23.0167 163.624 23.0053 163.624 22.9977V22.9824C163.624 22.967 163.62 22.9556 163.62 22.9403C163.62 22.9289 163.616 22.9174 163.616 22.9059" fill="#29B5E8"/>
</svg>
