<svg width="24" height="24" viewBox="0 0 24 24" fill="none" xmlns="http://www.w3.org/2000/svg">
<path d="M24 4.30887C23.117 4.70047 22.1681 4.9652 21.172 5.0842C22.1886 4.47483 22.9694 3.50986 23.337 2.36006C22.3856 2.92434 21.3319 3.33412 20.2103 3.55496C19.3121 2.59796 18.0324 2 16.6162 2C13.8968 2 11.6922 4.20461 11.6922 6.92378C11.6922 7.30973 11.7357 7.68548 11.8197 8.04589C7.72747 7.84056 4.09932 5.88029 1.67078 2.90128C1.24694 3.62852 1.00415 4.47432 1.00415 5.37671C1.00415 7.08495 1.87344 8.59207 3.19461 9.47509C2.38748 9.44954 1.62826 9.22801 0.964365 8.8592C0.96402 8.87978 0.963945 8.90035 0.963945 8.9211C0.963945 11.3068 2.6612 13.2969 4.91374 13.7493C4.50054 13.8617 4.06554 13.9219 3.61649 13.9219C3.2992 13.9219 2.99075 13.891 2.69009 13.8336C3.31669 15.7898 5.1351 17.2134 7.28974 17.2532C5.60456 18.5738 3.48147 19.3609 1.17458 19.3609C0.777135 19.3609 0.38518 19.3376 0 19.2922C2.17907 20.6892 4.76723 21.5043 7.54786 21.5043C16.6047 21.5043 21.5573 14.0015 21.5573 7.49474C21.5573 7.28127 21.5525 7.06892 21.5431 6.85777C22.5051 6.16353 23.3399 5.29629 24 4.30887Z" fill="#69ACE0"/>
</svg>
