<svg width="32" height="32" viewBox="0 0 32 32" fill="none" xmlns="http://www.w3.org/2000/svg">
<g clip-path="url(#clip0)">
<path d="M16 32C24.8366 32 32 24.8366 32 16C32 7.16344 24.8366 0 16 0C7.16344 0 0 7.16344 0 16C0 24.8366 7.16344 32 16 32Z" fill="#004E8C"/>
<path opacity="0.1" d="M4.91006 4.5C3.28354 5.9494 1.97015 7.71572 1.05041 9.69066C0.13067 11.6656 -0.376052 13.8076 -0.438696 15.9853C-0.50134 18.163 -0.118587 20.3306 0.686104 22.3552C1.4908 24.3796 2.70046 26.2186 4.24098 27.759C5.78148 29.2996 7.62038 30.5092 9.64494 31.314C11.6695 32.1186 13.837 32.5014 16.0148 32.4388C18.1925 32.3762 20.3344 31.8694 22.3094 30.9496C24.2844 30.0298 26.0506 28.7166 27.5 27.09L4.91006 4.5Z" fill="white"/>
<path d="M16.6447 9.6998L11.9997 22.2998H10.3547L5.78467 9.6998H7.42967L10.9297 19.6998C11.0504 20.0624 11.1358 20.4358 11.1847 20.8148H11.2197C11.2721 20.426 11.3659 20.0438 11.4997 19.6748L15.0597 9.6748L16.6447 9.6998Z" fill="white"/>
<path d="M18.4595 22.3V9.69994H22.0444C22.9754 9.65012 23.8938 9.93376 24.6344 10.4999C24.9442 10.7501 25.192 11.0684 25.3586 11.43C25.5252 11.7917 25.6058 12.1869 25.5944 12.5849C25.6042 13.2532 25.3952 13.9064 24.9994 14.4449C24.6 14.9812 24.0392 15.3755 23.3994 15.5699V15.6049C24.1732 15.6673 24.8982 16.0084 25.4394 16.5649C25.9628 17.1418 26.2376 17.9017 26.2044 18.6799C26.2208 19.1758 26.125 19.669 25.9242 20.1226C25.7234 20.5762 25.4226 20.9788 25.0444 21.3C24.2262 21.9826 23.1844 22.3388 22.1194 22.3H18.4595ZM19.9595 11.0299V15.0999H21.4594C22.1424 15.132 22.8144 14.9193 23.3544 14.4999C23.5884 14.2961 23.7728 14.0415 23.8932 13.7555C24.0136 13.4695 24.067 13.1598 24.0494 12.8499C24.0494 11.6266 23.2444 11.0149 21.6344 11.0149L19.9595 11.0299ZM19.9595 16.4249V20.96H21.9594C22.6784 21.0016 23.3882 20.7834 23.9594 20.345C24.1978 20.136 24.386 19.876 24.5098 19.5842C24.6336 19.2925 24.6898 18.9765 24.6744 18.6599C24.6744 17.1733 23.6612 16.4299 21.6344 16.4299L19.9595 16.4249Z" fill="white"/>
</g>
<defs>
<clipPath id="clip0">
<rect width="32" height="32" fill="white"/>
</clipPath>
</defs>
</svg>
