<svg width="100" height="100" viewBox="0 0 100 100" fill="none" xmlns="http://www.w3.org/2000/svg">
<g clip-path="url(#clip0)">
<path fill-rule="evenodd" clip-rule="evenodd" d="M40.478 24.8679L40.478 6.57019L31.1436 8.71571C23.4173 10.4916 19.5541 11.3795 16.5083 13.4101C13.9287 15.1298 11.7841 17.4257 10.244 20.1165C8.42552 23.2937 7.80248 27.2086 6.55639 35.0385L0.522947 72.9499C0.0869425 75.6895 -0.13106 77.0593 0.0834256 78.3454C0.265318 79.4361 0.671294 80.4772 1.27574 81.4031C1.98849 82.4949 3.07622 83.3555 5.25169 85.0766L20.9649 97.5084C19.5926 96.3828 18.4746 94.9567 17.7081 93.3208C16.1443 89.9831 16.9054 85.1997 18.4276 75.6329L22.5692 49.6035C23.815 41.7739 24.4378 37.859 26.2562 34.6819C27.7961 31.9911 29.9404 29.6952 32.5199 27.9754C34.527 26.6371 36.8892 25.795 40.478 24.8679Z" fill="url(#paint0_radial)"/>
<path fill-rule="evenodd" clip-rule="evenodd" d="M40.478 24.8679C42.3348 24.3882 44.52 23.8858 47.1543 23.2801L52.4042 22.0731C56.3394 21.1683 58.3071 20.7158 59.7392 21.2716C60.9382 21.7369 61.9118 22.6463 62.4576 23.8109C63.1096 25.2019 62.7924 27.196 62.1578 31.1841L60.0539 44.4081C59.3065 49.1054 58.9329 51.4541 57.842 53.3603C56.9182 54.9746 55.6318 56.3522 54.0843 57.3841C52.2571 58.6025 49.9396 59.1356 45.3046 60.2018L38.9856 61.6553L37.8426 68.8207C37.2059 72.8118 36.8876 74.8073 37.5397 76.1991C38.0856 77.3643 39.0597 78.2741 40.2592 78.7394C41.6921 79.2952 43.6611 78.8415 47.5992 77.9343L52.8547 76.7235C60.5761 74.9446 64.4368 74.0551 67.4806 72.0244C70.0585 70.3045 72.2015 68.0091 73.7405 65.3192C75.5577 62.1431 76.1804 58.2302 77.4259 50.4044L81.5687 24.3733C83.0919 14.8021 83.8535 10.0165 82.2889 6.67804C80.979 3.88303 78.6426 1.70028 75.7651 0.583398C72.3283 -0.750625 67.606 0.334779 58.1614 2.50562L29.4688 9.10156L40.478 24.8679Z" fill="url(#paint1_radial)"/>
<path fill-rule="evenodd" clip-rule="evenodd" d="M59.522 75.132L59.522 93.4298L68.8564 91.2843C76.5827 89.5084 80.4459 88.6204 83.4918 86.5899C86.0713 84.8702 88.2159 82.5743 89.756 79.8835C91.5745 76.7063 92.1975 72.7913 93.4436 64.9615L99.4771 27.0501C99.9131 24.3105 100.131 22.9406 99.9166 21.6545C99.7347 20.5639 99.3287 19.5227 98.7243 18.5969C98.0115 17.5051 96.9238 16.6445 94.7483 14.9234L79.0351 2.49157C80.4074 3.61714 81.5254 5.04331 82.2919 6.67912C83.8557 10.0168 83.0946 14.8003 81.5724 24.3671L77.4308 50.3965C76.1851 58.2261 75.5622 62.1409 73.7439 65.3181C72.2039 68.0089 70.0596 70.3048 67.4801 72.0246C65.473 73.3629 63.1108 74.2049 59.522 75.132Z" fill="url(#paint2_radial)"/>
<path fill-rule="evenodd" clip-rule="evenodd" d="M59.522 75.1321C57.6652 75.6118 55.48 76.1142 52.8456 76.7199L47.5958 77.9269C43.6605 78.8317 41.6928 79.2842 40.2607 78.7284C39.0618 78.2631 38.0882 77.3537 37.5423 76.1891C36.8903 74.7981 37.2076 72.804 37.8421 68.8159L39.9461 55.5919C40.6934 50.8946 41.0671 48.5459 42.1579 46.6397C43.0818 45.0254 44.3682 43.6478 45.9156 42.6159C47.7428 41.3975 50.0603 40.8644 54.6953 39.7982L61.0143 38.3447L62.1574 31.1793C62.794 27.1882 63.1124 25.1927 62.4603 23.8009C61.9143 22.6357 60.9403 21.7259 59.7407 21.2606C58.3079 20.7048 56.3388 21.1585 52.4008 22.0657L47.1453 23.2765C39.4239 25.0554 35.5632 25.9449 32.5193 27.9756C29.9415 29.6955 27.7985 31.9909 26.2594 34.6808C24.4422 37.8569 23.8195 41.7698 22.574 49.5956L18.4313 75.6267C16.908 85.1979 16.1464 89.9835 17.711 93.322C19.0209 96.117 21.3574 98.2997 24.2348 99.4166C27.6716 100.751 32.3939 99.6652 41.8385 97.4944L70.5468 90.8906L59.522 75.1321Z" fill="url(#paint3_radial)"/>
</g>
<defs>
<radialGradient id="paint0_radial" cx="0" cy="0" r="1" gradientUnits="userSpaceOnUse" gradientTransform="translate(28.4891 17.8348) rotate(81.9943) scale(71.8503 106.445)">
<stop offset="0.231365" stop-color="#B3C8FF"/>
<stop offset="0.576688" stop-color="#C1D3FF"/>
<stop offset="1" stop-color="#CAD9FF"/>
</radialGradient>
<radialGradient id="paint1_radial" cx="0" cy="0" r="1" gradientUnits="userSpaceOnUse" gradientTransform="translate(49.5596 6.91043) rotate(103.751) scale(54.8607 85.7165)">
<stop offset="0.273906" stop-color="#B3C8FF"/>
<stop offset="0.472194" stop-color="#9EB9FF"/>
<stop offset="0.761766" stop-color="#6F97FF"/>
<stop offset="1" stop-color="#5282FF"/>
</radialGradient>
<radialGradient id="paint2_radial" cx="0" cy="0" r="1" gradientUnits="userSpaceOnUse" gradientTransform="translate(71.5109 82.1652) rotate(-98.0057) scale(71.8503 106.445)">
<stop offset="0.231365" stop-color="#B3C8FF"/>
<stop offset="0.576688" stop-color="#C1D3FF"/>
<stop offset="1" stop-color="#CAD9FF"/>
</radialGradient>
<radialGradient id="paint3_radial" cx="0" cy="0" r="1" gradientUnits="userSpaceOnUse" gradientTransform="translate(50.4501 93.0896) rotate(-76.2452) scale(54.8616 85.74)">
<stop offset="0.273906" stop-color="#B3C8FF"/>
<stop offset="0.472194" stop-color="#9EB9FF"/>
<stop offset="0.761766" stop-color="#6F97FF"/>
<stop offset="1" stop-color="#5282FF"/>
</radialGradient>
<clipPath id="clip0">
<rect width="100" height="100" fill="white"/>
</clipPath>
</defs>
</svg>
