<svg width="110" height="16" viewBox="0 0 110 16" fill="none" xmlns="http://www.w3.org/2000/svg">
<g clip-path="url(#clip0_331_629)">
<path d="M29.4505 1.34045C32.3526 1.34045 33.7606 2.77061 33.7606 5.06722C33.7606 6.7903 32.9803 7.83892 31.3778 8.2303C33.48 8.57738 34.5188 9.72445 34.5188 11.738C34.5188 14.0125 32.9803 15.5731 29.7975 15.5731H23.9268V1.34045H29.4505ZM25.8763 3.20384V7.44753H29.1895C31.0308 7.44753 31.7889 6.60322 31.7889 5.23215C31.7889 3.86107 30.9668 3.19645 29.1895 3.19645L25.8763 3.20384ZM25.8763 9.18291V13.6137H29.8615C31.7249 13.6137 32.5692 12.9417 32.5692 11.5115C32.5692 9.99522 31.7668 9.17307 29.8197 9.17307L25.8763 9.18291Z" fill="#253858"/>
<path d="M37.704 0.582203C37.8779 0.569761 38.0524 0.594848 38.2158 0.655763C38.3791 0.716678 38.5274 0.811998 38.6507 0.93526C38.7739 1.05852 38.8693 1.20685 38.9302 1.37017C38.9911 1.5335 39.0162 1.70802 39.0037 1.8819C39.0037 2.2266 38.8668 2.55718 38.6231 2.80092C38.3793 3.04466 38.0487 3.18159 37.704 3.18159C37.3593 3.18159 37.0288 3.04466 36.785 2.80092C36.5413 2.55718 36.4043 2.2266 36.4043 1.8819C36.3919 1.70802 36.417 1.5335 36.4779 1.37017C36.5388 1.20685 36.6341 1.05852 36.7574 0.93526C36.8807 0.811998 37.029 0.716678 37.1923 0.655763C37.3557 0.594848 37.5302 0.569761 37.704 0.582203ZM36.7514 4.7422H38.6148V15.573H36.7514V4.7422Z" fill="#253858"/>
<path d="M45.7287 13.7514C46.1225 13.7397 46.5142 13.6885 46.8979 13.5988V15.3957C46.4897 15.5124 46.067 15.5704 45.6425 15.568C43.3237 15.568 42.1964 14.2043 42.1964 12.1883V6.47265H40.4413V4.74958H42.1964V2.44312H44.0056V4.73973H46.8856V6.46281H44.0056V12.149C44.0056 13.1016 44.5693 13.7514 45.7287 13.7514Z" fill="#253858"/>
<path d="M54.5778 15.7872C52.9975 15.7872 51.784 15.0733 51.1317 13.6653V15.5705H49.2683V0.213013H51.144V6.68932C51.8382 5.25917 53.1378 4.52317 54.8043 4.52317C57.6843 4.52317 59.1366 6.96993 59.1366 10.1552C59.1268 13.2099 57.6105 15.7872 54.5778 15.7872ZM54.2948 6.25609C52.6209 6.25609 51.144 7.31701 51.144 9.72194V10.5884C51.144 12.9933 52.5077 14.0542 54.0978 14.0542C56.2 14.0542 57.2831 12.6684 57.2831 10.1552C57.2634 7.55578 56.2246 6.25609 54.2948 6.25609Z" fill="#253858"/>
<path d="M61.0763 4.73975H62.9397V11.2899C62.9397 13.2394 63.72 14.1059 65.4948 14.1059C67.2178 14.1059 68.4191 12.9588 68.4191 10.7705V4.73975H70.2824V15.5705H68.4191V13.7933C68.0873 14.4082 67.5924 14.9196 66.9887 15.2714C66.3851 15.6232 65.6961 15.8016 64.9975 15.7871C62.5064 15.7871 61.0763 14.0641 61.0763 11.0856V4.73975Z" fill="#253858"/>
<path d="M80.7441 15.2899C80.0942 15.637 79.0973 15.7823 78.1004 15.7823C74.2456 15.7823 72.4388 13.4438 72.4388 10.1207C72.4388 6.84933 74.2358 4.51087 78.1004 4.51087C78.9907 4.48483 79.8749 4.66689 80.6825 5.04256V6.76564C79.9129 6.40656 79.07 6.23208 78.221 6.2561C75.405 6.2561 74.2579 8.03087 74.2579 10.133C74.2579 12.2352 75.4271 14.0099 78.2653 14.0099C79.1027 14.0322 79.9371 13.9003 80.7268 13.621L80.7441 15.2899Z" fill="#253858"/>
<path d="M82.8684 15.5706V0.213013H84.7318V9.81301L89.389 4.74471H91.8161L86.7232 10.0592L92.0302 15.5706H89.4949L84.7293 10.5022V15.5706H82.8684Z" fill="#253858"/>
<path d="M98.2038 15.7871C94.1521 15.7871 92.3773 13.4487 92.3773 10.1256C92.3773 6.85421 94.1964 4.51575 97.4899 4.51575C100.825 4.51575 102.167 6.83452 102.167 10.1256V10.9699H94.2604C94.5213 12.8111 95.7127 14.0025 98.2678 14.0025C99.3913 14.0023 100.506 13.8048 101.561 13.4191V15.1422C100.673 15.6148 99.309 15.7871 98.2038 15.7871ZM94.2407 9.38713H100.284C100.175 7.37359 99.2647 6.22405 97.4038 6.22405C95.4296 6.21421 94.4352 7.49175 94.2407 9.37482V9.38713Z" fill="#253858"/>
<path d="M108.665 13.7514C109.059 13.7397 109.451 13.6885 109.835 13.5988V15.3957C109.426 15.5124 109.004 15.5704 108.579 15.568C106.26 15.568 105.133 14.2043 105.133 12.1883V6.47265H103.378V4.74958H105.133V2.44312H106.952V4.73973H109.832V6.46281H106.952V12.149C106.955 13.1016 107.513 13.7514 108.665 13.7514Z" fill="#253858"/>
<path d="M1.1748 1.75395C1.10296 1.75302 1.03178 1.76783 0.966265 1.79734C0.900752 1.82685 0.842492 1.87034 0.795576 1.92477C0.748661 1.97919 0.714227 2.04322 0.694692 2.11237C0.675157 2.18151 0.670994 2.2541 0.682497 2.32502L2.77234 15.0118C2.79838 15.167 2.87829 15.3082 2.99803 15.4103C3.11778 15.5125 3.2697 15.5693 3.42711 15.5706H13.453C13.571 15.5721 13.6856 15.5312 13.7759 15.4553C13.8663 15.3794 13.9264 15.2735 13.9453 15.157L16.0351 2.32749C16.0466 2.25656 16.0425 2.18398 16.0229 2.11483C16.0034 2.04568 15.9689 1.98165 15.922 1.92723C15.8751 1.87281 15.8169 1.82931 15.7513 1.7998C15.6858 1.77029 15.6147 1.75548 15.5428 1.75641L1.1748 1.75395ZM9.9748 10.9232H6.7748L5.90834 6.39641H10.7502L9.9748 10.9232Z" fill="#2684FF"/>
<path d="M15.3705 6.39636H10.7502L9.9748 10.9231H6.7748L2.99634 15.4081C3.1161 15.5116 3.26879 15.5692 3.42711 15.5705H13.4554C13.5734 15.572 13.688 15.5311 13.7784 15.4552C13.8688 15.3793 13.9289 15.2735 13.9477 15.157L15.3705 6.39636Z" fill="url(#paint0_linear_331_629)"/>
</g>
<defs>
<linearGradient id="paint0_linear_331_629" x1="16.4388" y1="7.66405" x2="8.80311" y2="13.6234" gradientUnits="userSpaceOnUse">
<stop offset="0.18" stop-color="#0052CC"/>
<stop offset="1" stop-color="#2684FF"/>
</linearGradient>
<clipPath id="clip0_331_629">
<rect width="109.538" height="16" fill="white" transform="translate(0.442871)"/>
</clipPath>
</defs>
</svg>
