<svg width="87" height="84" viewBox="0 0 87 84" fill="none" xmlns="http://www.w3.org/2000/svg">
<path d="M78.2737 18.6821C77.7839 17.0921 76.6084 15.8003 75.1389 15.0053L45.2605 0.496863C44.4768 0.0993726 43.5952 0 42.8115 0C42.0278 0 41.1461 0 40.3624 0.198745L10.484 14.8065C9.01457 15.5021 7.93699 16.794 7.54514 18.4833L0.197989 51.1769C-0.0958969 52.8662 0.295951 54.5556 1.27557 55.9468L21.9456 81.8831C23.1211 83.0755 24.7865 83.8705 26.4518 83.9699H59.3671C61.1304 84.1686 62.7957 83.3737 63.8733 81.8831L84.5433 55.9468C85.5229 54.5556 85.9148 52.8662 85.7188 51.1769L78.2737 18.6821Z" fill="#326DE6"/>
<path d="M73.6695 49.885C73.5715 49.885 73.4736 49.885 73.4736 49.7856C73.4736 49.6863 73.2776 49.6863 73.0817 49.6863C72.6899 49.5869 72.298 49.5869 71.9062 49.5869C71.7102 49.5869 71.5143 49.5869 71.3184 49.4875H71.2204C70.1429 49.3881 68.9673 49.1894 67.8897 48.8913C67.5958 48.7919 67.302 48.4938 67.204 48.1957C67.302 48.1957 67.204 48.1957 67.204 48.1957L66.4203 47.9969C66.8121 45.1151 66.6162 42.1339 66.0284 39.2521C65.3427 36.3703 64.1672 33.5879 62.5998 31.1036L63.1876 30.5073V30.408C63.1876 30.1098 63.2855 29.7124 63.4814 29.5136C64.3631 28.7186 65.2448 28.1224 66.2244 27.5262L66.8121 27.228C67.204 27.0293 67.4979 26.8306 67.8897 26.6318C67.9877 26.5324 68.0857 26.5324 68.1836 26.4331C68.2816 26.3337 68.1836 26.3337 68.1836 26.2343C69.0653 25.5387 69.2612 24.3462 68.5755 23.4519C68.2816 23.0544 67.6938 22.7563 67.204 22.7563C66.7142 22.7563 66.2244 22.955 65.8325 23.2531L65.7346 23.3525C65.6366 23.4519 65.5386 23.5513 65.4407 23.5513C65.1468 23.8494 64.8529 24.1475 64.657 24.4456C64.559 24.6444 64.3631 24.7437 64.2651 24.8431C63.5794 25.6381 62.6977 26.4331 61.8161 27.0293C61.6202 27.1287 61.4242 27.228 61.2283 27.228C61.1303 27.228 60.9344 27.228 60.8365 27.1287H60.7385L59.9548 27.6255C59.1711 26.8306 58.2894 26.0356 57.5058 25.2406C53.8812 22.3588 49.3749 20.5701 44.7707 20.0732L44.6727 19.2782V19.3776C44.3788 19.1789 44.2809 18.8807 44.1829 18.5826C44.1829 17.4895 44.1829 16.3964 44.3788 15.204V15.1046C44.3788 14.9058 44.4768 14.7071 44.4768 14.5083C44.5748 14.1109 44.5748 13.7134 44.6727 13.3159V12.7196C44.7707 11.7259 43.987 10.7322 43.0074 10.6328C42.4196 10.5334 41.8318 10.8316 41.342 11.3284C40.9502 11.7259 40.7542 12.2228 40.7542 12.7196V13.2165C40.7542 13.614 40.8522 14.0115 40.9502 14.409C41.0481 14.6077 41.0481 14.8065 41.0481 15.0052V15.1046C41.2441 16.1977 41.2441 17.2908 41.2441 18.4833C41.1461 18.7814 41.0481 19.0795 40.7542 19.2782V19.477L40.6563 20.272C39.5787 20.3713 38.5011 20.5701 37.3256 20.7688C32.7214 21.7625 28.509 24.2469 25.2762 27.7249L24.6885 27.3274H24.5905C24.4926 27.3274 24.3946 27.4268 24.1987 27.4268C24.0027 27.4268 23.8068 27.3274 23.6109 27.228C22.7292 26.5324 21.8476 25.7375 21.1618 24.9425C21.0639 24.7437 20.868 24.6444 20.77 24.545C20.4761 24.2469 20.2802 23.9487 19.9863 23.6506C19.8883 23.5513 19.7904 23.5513 19.6924 23.4519L19.5944 23.3525C19.2026 23.0544 18.7128 22.8556 18.223 22.8556C17.6352 22.8556 17.1454 23.0544 16.8515 23.5513C16.2637 24.4456 16.4597 25.6381 17.2434 26.3337C17.3413 26.3337 17.3413 26.4331 17.3413 26.4331C17.3413 26.4331 17.5372 26.6318 17.6352 26.6318C17.9291 26.8306 18.3209 27.0293 18.7128 27.228L19.3006 27.5262C20.2802 28.1224 21.2598 28.7186 22.0435 29.5136C22.2394 29.7124 22.4353 30.1098 22.3374 30.408V30.3086L22.9252 30.9048C22.8272 31.1036 22.7292 31.2029 22.6313 31.4017C19.5944 36.271 18.3209 42.0346 19.2026 47.6988L18.4189 47.8976C18.4189 47.9969 18.3209 47.9969 18.3209 47.9969C18.223 48.295 17.9291 48.4938 17.6352 48.6925C16.5576 48.9907 15.48 49.1894 14.3045 49.2888C14.1086 49.2888 13.9127 49.2888 13.7167 49.3881C13.3249 49.3881 12.933 49.4875 12.5412 49.4875C12.4432 49.4875 12.3453 49.5869 12.1493 49.5869C12.0514 49.5869 12.0514 49.5869 11.9534 49.6863C10.8758 49.885 10.1901 50.8787 10.386 51.9718C10.5819 52.8662 11.4636 53.4624 12.3453 53.3631C12.5412 53.3631 12.6391 53.363 12.8351 53.2637C12.933 53.2637 12.933 53.2637 12.933 53.1643C12.933 53.0649 13.2269 53.1643 13.3249 53.1643C13.7167 53.0649 14.1086 52.8662 14.4025 52.7668C14.5984 52.6674 14.7943 52.5681 14.9902 52.5681H15.0882C16.1658 52.1706 17.1454 51.8725 18.3209 51.6737H18.4189C18.7128 51.6737 19.0067 51.7731 19.2026 51.9718C19.3006 51.9718 19.3006 52.0712 19.3006 52.0712L20.1822 51.9718C21.6517 56.543 24.3946 60.6173 28.2151 63.5984C29.0968 64.294 29.8805 64.8903 30.8601 65.3871L30.3703 66.0828C30.3703 66.1821 30.4682 66.1821 30.4682 66.1821C30.6642 66.4802 30.6642 66.8777 30.5662 67.1758C30.1743 68.1696 29.5866 69.1633 28.9988 70.0577V70.157C28.9008 70.3558 28.8029 70.4551 28.607 70.6539C28.411 70.8526 28.2151 71.2501 27.9212 71.6476C27.8233 71.747 27.8233 71.8464 27.7253 71.9457C27.7253 71.9457 27.7253 72.0451 27.6273 72.0451C27.1375 73.0388 27.5294 74.2313 28.411 74.7282C28.607 74.8275 28.9008 74.9269 29.0968 74.9269C29.8805 74.9269 30.5662 74.43 30.958 73.7344C30.958 73.7344 30.958 73.6351 31.056 73.6351C31.056 73.5357 31.154 73.4363 31.2519 73.337C31.3499 72.9395 31.5458 72.6413 31.6438 72.2439L31.8397 71.6476C32.1336 70.5545 32.6234 69.5608 33.1132 68.5671C33.3091 68.269 33.603 68.0702 33.8969 67.9708C33.9949 67.9708 33.9949 67.9708 33.9949 67.8715L34.3867 67.0765C37.1297 68.1696 39.9705 68.6664 42.9094 68.6664C44.6727 68.6664 46.436 68.4677 48.1994 67.9708C49.2769 67.7721 50.3545 67.3746 51.3341 67.0765L51.726 67.7721C51.824 67.7721 51.824 67.7721 51.824 67.8715C52.1178 67.9708 52.4117 68.1696 52.6077 68.4677C53.0975 69.4614 53.5873 70.4551 53.8812 71.5482V71.6476L54.0771 72.2439C54.175 72.6413 54.273 73.0388 54.4689 73.337C54.5669 73.4363 54.5669 73.5357 54.6649 73.6351C54.6649 73.6351 54.6649 73.7344 54.7628 73.7344C55.1547 74.43 55.8404 74.9269 56.6241 74.9269C56.918 74.9269 57.1139 74.8275 57.4078 74.7282C57.7996 74.5294 58.1915 74.1319 58.2894 73.6351C58.3874 73.1382 58.3874 72.6413 58.1915 72.1445C58.1915 72.0451 58.0935 72.0451 58.0935 72.0451C58.0935 71.9457 57.9956 71.8464 57.8976 71.747C57.7017 71.3495 57.5058 71.0514 57.2119 70.7533C57.1139 70.5545 57.0159 70.4551 56.82 70.2564V70.0577C56.1343 69.1633 55.6445 68.1696 55.2526 67.1758C55.1547 66.8777 55.1547 66.4802 55.3506 66.1821C55.3506 66.0827 55.4486 66.0828 55.4486 66.0828L55.1547 65.2878C60.1507 62.2072 63.9712 57.4373 65.7346 51.7731L66.5183 51.8725C66.6162 51.8725 66.6162 51.7731 66.6162 51.7731C66.8121 51.5743 67.106 51.475 67.3999 51.475H67.4979C68.5755 51.6737 69.653 51.9718 70.6327 52.3693H70.7306C70.9265 52.4687 71.1225 52.5681 71.3184 52.5681C71.7102 52.7668 72.0041 52.9656 72.396 53.0649C72.4939 53.0649 72.5919 53.1643 72.7878 53.1643C72.8858 53.1643 72.8858 53.1643 72.9838 53.2637C73.1797 53.363 73.2776 53.3631 73.4736 53.3631C74.3552 53.3631 75.1389 52.7668 75.4328 51.9718C75.3348 50.8787 74.5511 50.0838 73.6695 49.885ZM45.3585 46.8045L42.7135 48.0963L40.0685 46.8045L39.3828 43.9226L41.2441 41.5377H44.1829L46.0442 43.9226L45.3585 46.8045ZM61.3263 40.3452C61.8161 42.4321 61.914 44.5189 61.7181 46.6057L52.4117 43.9226C51.5301 43.7239 51.0403 42.8296 51.2362 41.9352C51.3341 41.6371 51.4321 41.4383 51.628 41.2396L58.9752 34.4822C60.0528 36.271 60.8365 38.2584 61.3263 40.3452ZM56.0363 30.8055L48.0034 36.5691C47.3177 36.9666 46.3381 36.8672 45.8483 36.1716C45.6523 35.9728 45.5544 35.7741 45.5544 35.476L44.9666 25.4393C49.2769 25.9362 53.0975 27.8243 56.0363 30.8055ZM38.3052 25.7375L40.2644 25.34L39.7746 35.2772C39.7746 36.1716 38.9909 36.8672 38.1093 36.8672C37.8154 36.8672 37.6195 36.7678 37.3256 36.6684L29.1947 30.8055C31.7417 28.3211 34.8765 26.5324 38.3052 25.7375ZM26.3538 34.4822L33.603 41.0408C34.2888 41.6371 34.3867 42.6308 33.7989 43.3264C33.603 43.6245 33.4071 43.7239 33.0152 43.8233L23.5129 46.6057C23.219 42.4321 24.1987 38.159 26.3538 34.4822ZM24.6885 51.2762L34.3867 49.5869C35.1704 49.5869 35.9541 50.0838 36.0521 50.8787C36.15 51.1769 36.15 51.5743 35.9541 51.8725L32.2316 61.0147C28.8029 58.7292 26.0599 55.2511 24.6885 51.2762ZM46.9259 63.5984C45.5544 63.8966 44.1829 64.0953 42.7135 64.0953C40.6563 64.0953 38.5011 63.6978 36.5419 63.1016L41.342 54.2574C41.8318 53.6612 42.6155 53.4624 43.3013 53.8599C43.5951 54.0587 43.7911 54.2574 44.085 54.5555L48.7871 63.2009C48.1994 63.3003 47.6116 63.3997 46.9259 63.5984ZM58.8772 54.953C57.4078 57.338 55.3506 59.4248 52.9995 60.9154L49.179 51.5743C48.9831 50.7794 49.3749 49.9844 50.0606 49.6863C50.3545 49.5869 50.6484 49.4875 50.9423 49.4875L60.7385 51.1769C60.2487 52.5681 59.6609 53.8599 58.8772 54.953Z" fill="white"/>
</svg>
