<?xml version="1.0" encoding="utf-8"?>
<!-- Generator: Adobe Illustrator 15.0.0, SVG Export Plug-In . SVG Version: 6.00 Build 0)  -->
<!DOCTYPE svg PUBLIC "-//W3C//DTD SVG 1.1//EN" "http://www.w3.org/Graphics/SVG/1.1/DTD/svg11.dtd">
<svg version="1.1" id="Logo" xmlns="http://www.w3.org/2000/svg" xmlns:xlink="http://www.w3.org/1999/xlink" x="0px" y="0px"
	 width="257.627px" height="30.86px" viewBox="71.187 169.57 257.627 30.86" enable-background="new 71.187 169.57 257.627 30.86"
	 xml:space="preserve">
<g>
	<polygon fill="#00AFF4" points="71.187,170.245 71.187,175.564 78.759,175.564 78.759,199.809 85.319,199.809 85.319,175.564 
		92.731,175.564 92.731,170.245 	"/>
	<polygon fill="#00AFF4" points="240.038,170.245 240.038,175.564 247.609,175.564 247.609,199.809 254.171,199.809 
		254.171,175.564 261.583,175.564 261.583,170.245 	"/>
	<polygon fill="#00AFF4" points="95.144,199.809 101.786,199.809 101.786,186.985 110.034,186.985 110.034,199.809 116.595,199.809 
		116.595,170.19 109.913,170.19 109.913,181.665 101.745,181.665 101.745,170.19 95.144,170.19 	"/>
	<polygon fill="#00AFF4" points="196.815,170.19 190.214,170.19 190.214,199.809 196.837,185.579 	"/>
	<polygon fill="#FF3287" points="196.837,185.579 196.856,199.809 203.999,184.417 203.999,170.19 	"/>
	<polygon fill="#C87296" points="190.214,199.809 196.856,199.809 196.837,185.579 	"/>
	<polygon fill="#00AFF4" points="210.602,170.19 203.999,184.417 203.999,199.809 210.622,185.579 	"/>
	<polygon fill="#C87296" points="203.999,170.19 203.999,184.417 210.602,170.19 	"/>
	<polygon fill="#FF3287" points="217.786,170.19 210.622,185.579 210.643,199.809 224.387,170.19 	"/>
	<polygon fill="#C87296" points="203.999,199.809 210.643,199.809 210.622,185.579 	"/>
	<polygon fill="#FF3287" points="168.31,199.756 186.925,199.756 186.925,194.436 174.87,194.436 174.87,186.985 184.062,186.985 
		184.062,181.665 174.79,181.665 174.79,175.564 186.925,175.564 186.925,170.245 168.31,170.245 	"/>
	<polygon fill="#00AFF4" points="120.608,199.756 139.226,199.756 139.226,194.436 127.171,194.436 127.171,186.985 
		136.362,186.985 136.362,181.665 127.089,181.665 127.089,175.564 139.226,175.564 139.226,170.245 120.608,170.245 	"/>
	<path fill="#FF3287" d="M143.28,199.809h5.768v-13.811c0-0.77-0.148-4.543-0.18-5.394h0.18c1.654,3.605,1.703,3.733,2.398,4.908
		l7.482,14.296h5.195V170.19h-5.77v11.064c0,1.133,0,1.376,0.107,3.408l0.143,2.996h-0.174c-0.117-0.201-0.555-1.295-0.684-1.539
		c-0.303-0.606-0.742-1.417-1.094-2.024l-7.342-13.905h-6.031v29.619H143.28z"/>
	<path fill="#00AFF4" d="M265.628,170.251l-8.385,29.558h6.358l1.539-6.074h9.113l1.498,6.074h6.359l-8.586-29.558H265.628z
		 M272.96,189.09h-6.685l3.24-13.533h0.162L272.96,189.09z"/>
	<path fill="#00AFF4" d="M282.034,189.078c0,6.075,1.539,7.701,2.729,8.829c1.813,1.748,4.149,2.523,7.52,2.523
		c1.268,0,4.307-0.27,6.412-1.902c2.471-1.904,2.875-3.983,3.119-5.157c0.201-1.255,0.242-1.499,0.283-3.646h-6.562
		c0,3.199-0.789,5.387-3.408,5.387c-3.529,0-3.529-3.119-3.529-4.738v-11.307c0-0.817,0.039-2.275,1.072-3.246
		c0.67-0.608,1.688-0.932,2.498-0.932c3.246,0,3.328,3.239,3.367,4.703h6.562c-0.082-2.396-0.406-6.014-3.101-8.078
		c-2.078-1.588-4.759-1.944-6.547-1.944c-6.857,0-10.416,3.772-10.416,10.55V189.078L282.034,189.078z"/>
	<path fill="#00AFF4" d="M304.271,199.809h6.641V170.19h-6.641V199.809z M320.146,170.19l-8.99,14.291l9.842,15.328h7.816
		l-10.57-15.814l9.072-13.805H320.146z"/>
	<path fill="#00AFF4" d="M233.271,170.245c-6.203,0-9.342,3.43-9.342,8.296c0,5.818,3.43,7.108,7.912,8.836
		c4.92,1.721,6.264,2.2,6.264,4.407c0,2.686-2.813,3.328-4.381,3.328c-2.822,0-4.908-1.525-5.865-4.009l-4.536,3.327
		c2.43,4.752,5.145,6,10.713,6c1.651,0,4.346-0.445,6.014-1.491c4.052-2.538,4.052-6.474,4.052-7.796
		c0-2.769-1.248-4.691-1.601-5.172c-1.129-1.605-3.146-2.808-4.928-3.448l-4.166-1.364c-2.011-0.647-4.156-0.809-4.156-2.895
		c0-0.312,0.08-2.491,3.36-2.7h5.177v-5.319C237.788,170.245,233.665,170.245,233.271,170.245z"/>
</g>
</svg>
