<svg width="1441" height="715" viewBox="0 0 1441 715" fill="none" xmlns="http://www.w3.org/2000/svg">
  <path d="M368.224 699.197C362.514 697.057 360.847 694.914 362.274 691.347C362.869 689.681 364.058 688.372 365.01 688.372C365.962 688.372 369.65 690.395 373.34 692.774C376.553 694.916 379.884 696.819 383.454 698.364L386.784 699.564L382.62 699.684C380.12 699.804 377.74 699.922 375.243 700.279C372.863 700.279 370.483 700.041 368.223 699.209L368.224 699.197ZM355.136 688.134C353.936 687.539 352.518 687.301 351.09 687.658C349.662 688.133 348.592 687.42 347.52 685.516C346.806 684.089 345.616 682.899 344.188 682.066C341.928 681.234 337.168 673.62 334.551 666.363C333.241 662.793 331.457 660.177 329.315 658.987C325.508 656.847 325.27 655.894 328.125 654.942C331.455 653.872 332.17 647.924 329.315 643.998C328.007 642.094 327.293 639.834 327.65 638.763C328.126 637.573 326.817 635.313 323.604 632.101C319.559 627.938 318.844 626.511 318.607 622.108C318.487 619.253 317.774 616.278 317.06 615.446C316.108 614.376 315.99 610.45 316.465 602.716C317.06 595.696 316.703 588.796 315.265 581.896C313.125 571.19 311.935 551.204 312.529 532.883C312.651 528.889 312.291 524.895 311.458 520.987C309.673 514.563 301.463 506.473 291.231 501.12C283.973 497.313 282.901 496.36 280.046 490.413C277.906 486.249 275.526 482.203 272.67 478.516C270.41 475.542 268.505 472.33 267.077 468.88C264.697 461.504 260.414 454.01 257.559 452.106C255.655 450.56 254.346 448.536 253.632 446.276C252.68 442.706 252.918 441.756 256.012 437.236C259.342 432.358 259.342 432.239 257.082 431.644C251.609 430.217 253.869 422.841 263.864 410.231C270.527 401.903 272.431 395.479 270.527 388.221C269.813 385.366 269.217 382.521 269.099 381.678C268.981 380.835 268.504 380.251 268.029 380.251C267.554 380.251 267.553 379.181 268.267 377.991C269.337 376.087 268.981 375.491 266.601 374.421C263.031 372.755 257.559 374.421 257.559 377.157C257.559 380.487 256.131 380.727 251.372 378.227C249.56 377.142 247.594 376.34 245.541 375.848C244.828 375.848 242.211 374.064 239.591 371.803L233.523 366.688C232.571 365.618 232.095 364.308 232.095 363C231.975 361.216 231.145 359.55 229.835 358.36C228.288 356.695 226.979 354.673 226.265 352.412C225.313 349.557 224.599 348.842 223.767 349.676C221.863 351.579 219.127 351.223 212.463 348.248C209.013 346.702 205.323 344.085 203.896 342.062C202.231 339.922 200.208 338.137 197.946 336.709C194.853 335.162 194.139 335.162 189.618 336.829L184.738 338.732L169.628 331.476C160.348 326.956 153.09 322.672 150.828 320.293C147.378 316.605 147.258 316.248 148.448 311.727C149.518 307.564 149.281 306.255 147.021 301.497C145.117 297.81 142.737 294.36 140.001 291.267C137.621 288.649 135.836 286.032 136.193 285.557C136.55 285.082 134.765 281.394 132.386 277.467C129.886 273.541 128.102 269.257 127.27 264.737C126.675 260.217 125.96 258.907 123.7 257.837C121.44 256.767 120.606 256.885 119.18 258.787C117.276 261.405 117.752 264.26 122.035 273.539C123.82 277.465 125.248 281.629 126.081 285.911C126.676 289.361 127.627 292.573 129.055 295.785C131.911 301.377 130.007 301.258 125.605 295.547C122.987 292.217 122.273 290.432 122.749 288.29C123.225 286.148 122.749 284.96 120.013 282.937C115.848 279.844 115.015 277.941 116.443 274.967C117.395 273.302 116.919 271.517 114.658 266.997C112.397 262.477 111.922 260.217 112.398 256.885C113.35 251.413 110.851 246.415 106.211 244.513C103.593 243.443 102.641 242.133 102.046 239.04C101.689 236.78 100.976 233.21 100.38 231.19C99.784 229.17 99.904 227.264 100.5 226.907C101.096 226.55 100.738 225.003 99.667 223.457C98.24 221.197 98.121 220.127 99.192 217.757C99.905 216.21 100.142 214.427 99.786 213.712C99.43 212.997 100.381 211.214 101.928 209.548C103.832 207.288 105.378 204.908 106.568 202.172C108.353 198.602 110.614 195.272 113.351 192.298C116.444 188.728 118.943 184.804 120.965 180.521C122.988 175.761 124.297 174.216 126.082 174.216C127.39 174.216 128.462 174.811 128.342 175.643C127.985 178.855 130.602 177.903 133.459 173.621C135.124 171.123 136.076 168.861 135.481 168.743C134.767 168.267 134.411 167.435 134.411 166.603C134.411 165.651 132.031 162.677 129.176 159.823C124.416 155.183 124.179 154.589 125.726 152.803C127.036 151.376 127.154 150.305 126.321 148.877C124.774 146.141 127.154 140.193 129.771 140.193C130.841 140.193 131.081 139.836 130.485 139.36C129.057 138.29 128.343 135.79 128.581 132.34C128.938 126.75 127.748 124.37 123.465 122.585C120.728 121.395 118.111 119.849 115.731 118.185C113.946 116.519 111.448 115.329 110.377 115.329C106.687 114.854 103 114.021 99.431 113.069C91.459 111.047 90.151 110.929 87.295 112.355C81.585 115.329 75.515 116.519 73.135 115.21C71.35 114.26 69.328 114.854 62.308 118.54C58.263 120.682 54.108 122.466 49.696 123.894C46.483 124.727 43.39 125.916 40.416 127.464C32.086 131.627 20.308 135.91 16.976 135.791C14.834 135.791 16.262 134.841 21.973 132.579C31.493 128.772 41.367 123.776 42.2 122.349C43.4 120.565 40.89 119.851 37.917 121.159C35.775 122.109 34.467 122.109 31.967 120.802L28.755 119.136L32.205 117.352C36.131 115.329 37.321 113.188 36.488 109.5C35.655 105.812 40.414 103.433 50.766 101.886C56.476 100.816 60.761 99.5059 63.616 97.4859C68.613 94.0359 67.78 91.4189 62.306 93.6789C59.688 94.7489 57.904 94.7489 54.106 93.6789C49.466 92.4789 49.346 92.2509 51.369 90.7049C54.819 88.2069 61.969 86.6599 66.719 87.4929C69.456 87.9689 72.192 87.6129 74.691 86.2929L78.261 84.3899L75.881 81.8919C74.929 80.9399 74.096 79.8699 73.501 78.6799C73.501 77.6099 80.283 75.4679 83.734 75.4679C85.4 75.4679 90.04 74.2679 94.086 72.7319C100.749 70.7099 107.65 69.1619 114.551 68.3299C126.331 66.6649 128.829 66.6649 137.753 68.0919C143.226 69.0439 150.723 70.1139 154.411 70.4719C159.408 71.0669 164.286 72.1369 169.164 73.4459C179.278 76.1819 185.822 76.1819 197.124 73.3259C202.122 72.0159 207.119 71.3039 208.309 71.6609C209.8 72.0111 211.367 71.7993 212.711 71.0659C214.496 70.1139 215.805 70.2329 218.303 71.5419C220.563 72.7419 223.301 72.9699 227.108 72.6119C231.035 72.1359 234.604 72.6119 239.72 74.3959C242.814 75.4659 246.026 76.2989 249.24 76.7759C251.74 76.7759 251.74 76.7759 249.597 78.4419C247.454 80.1079 247.455 80.1069 249.477 80.8219C250.547 81.2979 254.593 81.2979 258.282 80.9419C264.945 80.2279 264.945 80.2279 266.848 83.7969L268.752 87.3669L271.132 84.2739C273.272 82.1339 276.01 80.4669 278.866 79.6339C283.506 78.2059 284.934 78.2059 289.574 79.6339C292.906 80.5859 296.356 80.9439 299.807 80.5859C303.614 79.9909 305.28 80.3479 307.777 82.1329C310.871 84.3929 310.99 84.3929 313.727 82.2529C315.867 80.8249 318.247 79.6359 320.747 78.9229C326.339 77.3769 328.243 74.0459 324.911 71.7849C322.531 70.1199 322.651 70.0009 328.837 66.9079C333.477 64.6479 335.5 64.1719 336.452 65.0049C337.404 65.8379 337.404 66.9079 336.452 68.5749C334.906 71.5489 336.809 75.9509 339.308 74.9989C340.378 74.6419 341.568 74.6419 342.638 74.9989C344.066 75.5939 344.066 76.0689 342.518 78.4489C338.116 85.1109 347.873 83.2089 354.536 76.0689C357.272 73.2139 361.556 72.2619 365.244 73.8089C367.744 74.7609 367.504 75.5929 363.34 80.1139C358.343 85.5859 355.845 86.6569 348.35 86.6569C345.018 86.6569 341.568 87.2519 338.474 88.4409C335.737 89.8689 334.429 89.9879 332.168 89.0359C328.123 87.2519 326.695 88.6789 329.668 91.7719L332.168 94.3889L327.29 95.8159C323.958 96.6489 320.627 97.2439 317.295 97.3629C313.25 97.4829 312.179 97.9579 312.179 99.5029C312.179 100.931 310.156 102.358 305.992 104.023C292.428 109.853 280.767 119.963 284.932 122.7C286.132 123.77 287.072 125.198 287.668 126.626C288.501 128.529 290.168 129.956 292.19 130.314C295.614 131.374 298.954 132.686 302.184 134.24C305.397 135.905 308.847 137.214 312.417 138.284C317.533 139.354 317.652 139.484 315.272 145.66C313.25 150.895 313.132 151.608 314.796 154.702C315.748 156.486 317.176 158.032 317.89 158.032C321.578 157.912 325.03 154.462 327.29 148.872C329.312 143.4 330.264 142.448 336.213 139.355C344.899 134.715 348.588 130.075 347.636 124.96C347.041 121.63 347.398 120.797 350.253 118.774C352.513 116.871 354.299 114.611 355.608 111.874C358.106 106.284 362.152 104.38 368.934 105.45C375.002 106.402 382.022 110.21 382.974 112.945C383.324 114.435 383.112 116.003 382.379 117.347C381.309 119.369 381.546 120.202 383.579 122.462L386.077 125.079L390.123 122.939C392.859 121.393 395.596 119.727 398.223 117.824L402.15 114.85L403.102 117.348C403.573 118.642 403.696 120.037 403.459 121.393C403.221 122.701 403.339 124.01 404.054 125.199C404.769 126.388 404.886 127.936 404.174 129.244C403.462 130.552 403.936 132.456 405.72 135.668C408.338 140.308 408.338 140.308 406.077 141.854C403.103 143.996 405.007 146.256 408.337 144.472C411.667 142.688 415.357 142.925 417.737 145.066C421.187 148.16 418.332 151.846 409.17 156.13C399.294 160.77 394.892 161.72 381.923 161.83C372.403 161.95 371.095 162.187 361.815 166.708C356.341 169.325 351.939 171.942 351.939 172.408C351.939 174.788 353.605 174.55 360.269 171.458C364.195 169.673 369.193 168.128 371.572 168.128C375.618 168.128 375.737 168.246 374.547 170.626C373.595 172.291 372.405 173.719 370.977 174.908C369.074 176.455 368.955 177.05 370.144 179.668C371.929 183.594 376.57 185.498 382.162 184.546L386.564 183.832L383.234 186.212C381.092 187.64 378.831 188.592 376.452 189.305C373.477 190.138 370.622 191.209 367.885 192.635C365.029 194.063 362.055 194.895 361.341 194.42C359.556 193.35 361.461 191.683 367.291 189.185C372.526 187.045 371.693 184.665 366.091 185.735C363.949 186.092 356.811 188.828 350.385 191.683C340.272 196.085 338.605 197.275 338.011 199.893C337.297 203.223 334.799 204.771 326.231 207.388C323.256 208.338 320.639 209.886 318.259 211.908C316.117 213.931 313.857 215.715 311.359 217.381C309.217 218.689 307.195 221.069 306.719 222.615C306.124 225.113 306.005 225.232 305.172 223.21C303.744 219.522 301.602 223.09 301.482 229.396C301.362 235.702 298.032 240.222 290.892 243.553C283.752 246.884 273.045 255.211 271.022 259.018C269.118 262.468 269.118 263.896 270.189 272.818C271.259 281.146 271.259 283.288 269.832 285.904C268.762 287.927 267.572 288.878 266.5 288.521C264.12 287.571 261.146 277.577 261.98 273.175C262.575 270.082 262.218 268.892 259.838 266.751C257.935 264.966 256.268 264.371 254.841 264.847C253.641 265.204 250.201 264.491 247.226 263.182C242.706 261.279 241.158 261.042 237.946 262.112C235.804 262.826 234.019 264.254 232.829 266.157C231.759 268.537 231.045 268.774 228.069 268.179C225.809 267.704 223.667 266.871 221.525 265.919C217.361 263.779 215.1 264.016 210.46 266.633C208.318 267.943 203.796 270.321 200.584 271.986C196.894 273.89 194.278 276.031 193.684 277.936C193.089 279.482 191.066 285.786 189.044 291.736L185.474 302.681L187.259 309.701C190.589 322.668 195.349 326.475 204.987 324.453C212.364 322.906 216.767 319.693 218.313 314.816C219.383 311.723 220.455 310.653 223.787 309.701C228.784 308.273 230.927 308.273 232.829 309.463C234.376 310.533 233.899 312.08 226.761 327.546C221.883 338.133 222.241 338.966 230.569 337.776C238.184 336.706 245.085 337.538 245.917 339.679C246.274 340.512 245.679 346.103 244.727 352.051C243.061 362.758 243.061 362.996 245.44 366.921C246.868 369.181 248.772 371.085 251.152 372.621C254.007 374.049 254.84 374.049 258.41 372.621C264.002 370.241 267.095 370.481 271.022 373.691C274.115 376.189 274.592 376.189 277.09 374.643C278.875 373.215 280.42 371.431 281.492 369.408C283.634 365.006 287.322 362.032 290.416 361.913C292.32 361.556 294.104 360.486 295.413 359.058C298.388 355.965 303.613 354.894 301.005 357.988C298.865 360.605 297.675 368.932 298.983 371.43C300.183 373.572 300.183 373.572 302.313 370.955C303.86 369.17 304.098 367.981 303.265 367.148C301.361 365.244 301.955 363.578 305.525 360.962C309.095 358.346 312.188 358.462 315.4 361.912C317.78 364.412 330.51 367.862 334.08 367.028C339.672 365.6 354.545 374.761 360.256 382.968C362.874 386.894 371.44 390.82 375.248 389.868C382.982 387.965 393.571 395.698 396.07 405.095C396.784 407.951 397.973 410.449 398.568 410.925C400.234 411.995 397.735 416.04 392.381 421.155C388.931 424.485 388.098 425.913 389.051 426.855C390.004 427.797 391.668 426.975 395.476 423.405C401.068 418.289 402.972 417.705 405.708 420.55C407.374 422.215 407.374 422.572 404.994 425.07C403.567 426.498 401.664 427.807 400.711 427.807C399.758 427.807 400.116 428.401 401.663 428.997C403.923 429.83 404.993 429.592 407.373 427.807C413.323 422.929 414.75 422.81 420.103 425.665C423.553 427.569 424.983 429.115 424.743 430.662C424.267 434.944 425.338 435.896 428.313 433.992C430.693 432.445 432.359 432.326 440.33 433.397C448.778 434.597 449.85 435.062 454.013 439.097C456.988 442.071 460.676 444.213 464.723 445.283C470.433 446.949 471.029 447.425 472.1 451.351C473.647 456.941 471.862 463.128 467.103 469.076C464.961 471.693 463.176 474.43 461.51 477.286C460.2 479.666 458.655 481.926 456.75 483.829C454.013 486.565 453.894 487.279 454.49 493.822C455.8 506.552 449.612 530.344 443.544 535.459C441.64 537.125 439.974 537.482 436.762 537.006C434.262 536.649 432.36 536.886 431.884 537.72C431.408 538.554 428.909 539.98 426.41 541.05C423.339 542.463 420.46 544.262 417.844 546.403C414.154 549.496 414.036 549.853 415.344 553.541C416.654 558.299 415.582 563.296 412.607 567.103C411.537 568.649 410.942 570.553 410.823 572.456C410.466 574.716 409.623 576.858 408.205 578.761C405.945 581.973 403.922 585.185 402.018 588.516C397.14 597.082 394.284 598.509 387.264 596.011C381.196 593.871 377.984 593.631 377.984 595.297C377.984 595.892 379.184 596.963 380.721 597.677C382.258 598.391 384.528 601.127 385.837 603.744C387.86 607.789 388.097 609.097 387.037 611.358C385.371 614.926 379.303 617.901 373.592 617.901C368.476 617.901 367.286 619.091 369.072 622.421C370.142 624.444 369.429 627.656 367.287 630.154C367.167 630.392 365.383 629.678 363.36 628.607C358.6 626.109 356.935 627.657 359.315 632.414C360.148 634.199 361.695 635.744 363.479 636.578C365.739 637.292 365.739 637.411 363.955 639.433C363.005 640.503 362.528 641.931 362.765 643.359C363.24 644.429 362.289 646.809 360.505 649.059C357.649 652.747 357.649 652.985 359.435 655.839C360.268 657.267 361.577 658.575 363.005 659.409C366.455 660.719 366.931 665.239 364.432 670.235C361.933 675.231 361.458 680.465 363.48 682.835C364.075 685.333 357.888 689.735 355.152 688.07L355.136 688.134ZM271.61 197.634C274.584 191.329 280.295 186.57 284.817 186.57C288.147 186.57 288.147 187.046 285.174 190.853L282.794 193.827L285.174 195.73C287.077 197.277 288.148 197.396 290.29 196.444C291.837 195.73 293.027 194.541 293.74 192.994C294.215 191.329 295.048 190.972 297.07 191.448C299.092 191.924 300.045 191.566 300.877 190.138C303.137 186.093 297.307 180.74 293.025 183.118C289.931 184.784 285.885 181.453 286.838 178.003C286.956 176.218 286.481 174.433 285.41 173.006C283.03 169.913 279.46 169.556 271.727 171.806C269.347 172.52 266.967 173.006 264.587 173.116C263.517 173.116 262.921 173.473 263.277 174.068C263.633 174.663 263.515 175.138 263.039 175.138C261.611 175.614 260.421 176.338 259.349 177.28L256.613 179.42L259.825 180.62C262.325 181.57 263.752 181.453 266.488 180.025C269.701 178.359 270.296 178.359 273.865 180.025C275.888 180.977 278.149 181.453 280.409 181.225C281.837 180.868 283.384 181.105 283.741 181.7C284.098 182.295 282.541 183.128 280.051 183.604C273.388 184.674 269.938 187.53 265.179 195.5C261.133 202.162 260.895 202.995 262.561 204.78C264.227 206.565 264.584 206.564 266.725 205.017C267.677 204.423 270.057 200.973 271.605 197.642L271.61 197.634ZM292.194 204.654C296.239 202.631 296.596 202.036 295.168 200.609C293.74 199.182 292.788 199.299 288.268 201.323C282.795 203.703 281.128 206.913 285.294 206.913C287.674 206.675 290.054 205.843 292.194 204.653V204.654ZM312.302 196.088C314.682 194.423 314.8 194.066 313.135 193.233C310.635 191.923 303.378 194.185 303.378 196.326C303.378 198.467 308.97 198.466 312.302 196.088ZM397.375 685.15C397.613 684.318 398.088 683.485 398.683 682.89C399.397 682.176 399.635 681.58 399.04 681.58C398.445 681.58 397.494 682.413 396.78 683.484C395.71 684.911 394.995 685.03 393.21 684.079C392.01 683.365 391.663 682.769 392.496 682.769C393.329 682.769 393.696 682.174 393.329 681.569C392.615 680.379 394.529 680.023 400.111 680.379C405.108 680.736 405.584 681.449 402.491 683.829C399.635 686.089 397.256 686.565 397.375 685.137V685.15ZM1343.29 656.718C1340.09 654.696 1346.74 650.175 1363.52 643.156C1369.12 640.658 1374.34 637.684 1379.34 633.996C1386.24 628.761 1386.72 628.642 1388.14 630.546C1390.17 633.52 1388.98 635.661 1383.98 637.922C1381.49 639.104 1379.2 640.669 1377.2 642.561C1376 643.989 1374.34 644.941 1372.56 645.297C1371.36 645.297 1368.39 646.963 1366.01 649.104C1358.04 656.242 1347.93 659.692 1343.29 656.718ZM1264.05 641.966C1262.85 641.253 1262.85 640.42 1263.81 638.636C1264.64 636.733 1265.01 634.83 1265.11 632.806C1265.11 629.594 1265.34 629.356 1267.61 630.189C1269.74 630.786 1271.94 631.145 1274.15 631.26C1276.29 631.38 1278.55 631.498 1279.03 631.616C1280.93 631.973 1275.93 637.684 1271.41 640.301C1265.81 643.394 1266.06 643.275 1264.04 641.966H1264.05ZM1394.93 632.092C1394.57 631.735 1395.53 630.427 1397.07 629.118C1399.33 627.334 1399.69 626.501 1398.62 624.598C1397.19 621.861 1399.32 618.888 1404.32 616.865C1408.24 615.199 1409.19 611.987 1408.12 604.017C1407.42 598.544 1407.52 598.187 1409.19 599.734C1410.62 600.934 1410.86 602.351 1410.39 604.968C1409.92 607.824 1410.39 609.37 1412.77 612.106C1415.39 615.199 1416.11 615.556 1418.13 614.486C1420.15 613.416 1420.39 613.534 1419.68 615.199C1419.32 615.913 1419.08 616.746 1418.96 617.579C1417.85 618.548 1416.61 619.35 1415.27 619.958C1412.17 621.742 1409.2 623.765 1406.47 626.025C1401.95 629.832 1397.19 632.805 1396 632.805C1395.64 632.805 1395.16 632.567 1394.93 632.091V632.092ZM1275.11 617.46C1272.73 614.96 1272.26 614.842 1269.99 616.26C1267.14 618.163 1261.55 617.093 1257.14 613.643C1254.76 611.858 1254.64 611.263 1255.84 609.003C1256.91 607.338 1256.91 605.315 1255.94 603.65C1255.24 602.103 1254.87 600.438 1254.64 598.653C1254.64 595.917 1252.84 595.798 1251.42 598.415C1250.82 599.485 1250 600.081 1249.64 599.615C1249.28 599.149 1250.59 596.998 1252.49 594.738C1257.37 589.146 1255.47 587.6 1249.04 592.001C1246.31 593.905 1243.81 595.927 1243.57 596.521C1243.33 597.115 1242.02 595.211 1240.6 592.238C1239.06 589.043 1236.77 586.267 1233.93 584.149C1230.36 581.769 1229.17 581.649 1222.15 582.245C1212.05 583.315 1202.28 585.815 1195.85 589.025C1191.68 590.81 1187.4 591.999 1182.88 592.475C1177.76 593.189 1172.65 594.379 1167.78 596.045C1161.58 598.425 1159.81 598.662 1156.71 597.592C1152.55 596.164 1150.76 593.309 1153.51 592.238C1154.46 591.881 1156.25 589.264 1157.44 586.408C1159.34 581.888 1159.46 580.578 1158.39 574.75C1157.44 569.99 1157.44 565.47 1158.27 558.095C1158.87 552.503 1159.22 546.912 1158.87 545.603C1158.52 544.295 1159.11 540.963 1160.07 538.346C1161.87 533.588 1162.34 533.35 1174.47 528.234C1181.37 525.26 1188.39 522.881 1190.17 522.881C1194.81 522.881 1200.64 518.479 1203.85 512.411C1205.87 508.723 1207.18 507.296 1208.37 507.653C1211.7 508.961 1212.3 508.723 1212.07 506.225C1211.83 504.797 1212.55 503.489 1213.97 503.132C1215.17 502.775 1217.31 500.752 1218.73 498.492C1220.53 495.994 1223.03 494.092 1225.75 492.792C1229.92 491.127 1230.27 491.127 1232.55 493.149C1236.71 496.956 1239.68 498.027 1240.99 496.361C1241.71 495.528 1241.94 494.577 1241.47 494.101C1240.17 492.791 1246.11 485.416 1248.97 484.703C1251.47 483.989 1253.85 483.037 1256.11 481.847C1259.81 480.063 1261.11 479.944 1265.16 481.015C1273.96 483.395 1274.32 483.751 1270.99 488.747C1266.69 495.171 1267.89 497.67 1278.24 504.927C1283 508.257 1287.54 510.877 1288.24 510.637C1288.94 510.397 1291.34 507.782 1293.47 504.927C1296.09 501.597 1297.64 497.552 1298 493.387C1298.7 486.725 1301.8 477.565 1303.47 477.565C1303.94 477.565 1305.25 480.301 1306.21 483.632C1307.16 486.962 1309.18 490.889 1310.73 492.316C1314.3 495.646 1316.33 504.916 1314.77 510.399C1313.7 514.087 1313.94 514.563 1317.51 518.369C1320.48 521.939 1323.11 525.983 1325.01 530.266C1327.28 535.024 1329.89 539.664 1332.99 543.946L1337.39 549.776L1336.19 558.698C1335.59 564.29 1333.81 569.643 1331.07 574.402C1326.79 582.015 1320.37 589.152 1317.03 590.224C1315.83 590.581 1312.99 593.436 1310.85 596.529C1308.7 599.622 1306.32 602.119 1305.73 602.119C1305.13 602.119 1302.53 604.737 1300.03 607.949C1295.75 613.302 1295.03 613.897 1290.51 613.897C1287.31 613.897 1284.21 614.967 1281.71 616.99L1277.78 619.964L1275.16 617.466L1275.11 617.46ZM722.793 593.667C720.413 591.287 719.937 590.097 720.533 586.767C721.009 583.674 720.533 581.889 718.391 578.667C717.191 577.002 716.251 575.217 715.655 573.314C715.655 572.6 713.632 569.388 711.252 566.176C707.445 561.061 706.732 559.038 706.136 552.614C705.066 541.314 701.853 530.249 696.616 520.137C694.236 515.735 691.976 510.144 691.5 507.537C690.667 502.064 692.81 493.975 697.925 484.101L701.257 477.558L699.353 471.848C698.283 468.636 697.806 464.948 698.153 463.283C698.51 461.023 698.033 458.643 696.725 456.859C695.06 453.766 693.751 450.435 692.799 446.985C691.599 442.702 689.229 438.775 685.899 435.802C678.759 428.782 677.809 426.047 679.949 418.314C684.469 402.73 679.592 393.57 667.575 395.474C662.935 396.188 662.695 396.069 662.101 392.857C661.626 390.359 660.198 388.812 656.747 387.027C652.227 384.767 650.322 384.767 644.849 387.027C643.649 387.503 638.543 389.287 633.546 390.953C626.05 393.451 623.789 393.808 620.576 392.737C617.363 391.666 614.866 392.023 608.559 393.807C602.015 395.591 599.635 395.829 596.066 394.877C588.689 392.855 576.076 381.435 574.292 375.247C572.864 370.489 564.179 359.187 561.322 358.354C559.418 357.879 559.18 357.404 560.37 356.689C561.56 355.974 561.322 355.489 559.537 355.142C556.682 354.429 556.444 352.049 559.18 352.049C560.846 352.049 560.965 351.929 559.418 350.979C558.348 350.265 558.218 349.909 559.061 349.909C559.904 349.909 559.656 348.481 558.109 345.864C555.969 342.176 555.849 341.7 557.514 339.916C562.631 334.326 563.702 322.309 559.894 314.696C558.109 311.126 559.299 306.011 563.107 300.896C565.487 297.446 567.627 293.996 569.532 290.308C573.102 283.528 581.072 274.128 583.215 274.128C585.595 274.128 593.328 265.8 593.328 263.302C593.328 257.472 596.778 251.762 602.49 248.075C605.584 246.052 608.2 243.555 610.462 240.699C613.198 236.416 613.555 236.179 616.649 238.439C618.791 239.639 621.051 240.462 623.431 240.819C627.238 241.414 629.023 240.939 634.734 237.964C644.491 232.729 650.559 231.421 661.734 232.134C669.11 232.61 672.442 232.254 676.011 230.826C681.247 228.684 685.768 229.993 684.578 233.206C684.221 234.276 684.458 235.466 685.054 236.418C685.887 237.37 685.887 238.798 685.054 240.938C683.984 243.674 684.221 244.508 686.839 247.124C688.624 248.908 690.884 250.217 693.383 250.931C702.545 252.715 705.043 253.905 706.947 257.117C708.257 259.377 710.517 260.924 713.134 261.162C715.752 261.637 718.25 262.47 720.63 263.66C723.724 265.206 724.08 265.206 726.58 262.827C728.246 261.162 729.08 259.497 728.722 258.187C728.365 256.76 728.602 255.213 729.317 253.905C731.101 250.575 736.099 250.931 743.833 254.855C752.28 259.138 768.333 262.112 774.053 260.565C776.582 259.851 779.258 259.851 781.787 260.565C789.64 262.945 793.687 261.041 794.637 254.498C794.994 252.356 795.589 250.453 795.947 250.453C796.661 250.453 797.017 247.123 797.147 239.983C797.147 237.603 797.742 235.7 798.347 235.7C798.952 235.7 799.061 234.867 798.227 233.32C796.799 230.703 794.062 230.822 787.28 233.558C784.068 234.866 783.116 234.866 780.26 233.082C776.572 230.822 772.764 230.584 771.575 232.368C770.742 233.678 764.912 232.725 761.818 230.822C759.558 229.394 757.416 225.23 757.416 222.137C757.178 220.472 756.216 219.044 754.798 218.211C752.656 216.665 752.538 216.308 753.965 215.356C755.275 214.643 756.821 214.524 758.249 214.88C760.033 215.356 761.699 214.643 763.841 212.5C765.745 210.597 768.243 209.407 770.861 209.288C773.359 209.05 775.858 208.336 778.001 207.028C781.808 204.53 790.256 205.243 796.801 208.574C805.725 212.976 813.578 212.738 816.791 207.861C818.457 205.361 818.457 204.768 816.911 202.388C815.959 200.961 811.319 197.511 806.679 194.893L798.231 190.135L799.778 187.042C800.61 185.376 801.086 183.712 800.728 183.354C800.37 182.996 800.491 182.044 800.966 181.214C801.561 180.262 801.918 179.31 802.166 178.239C802.404 176.574 800.619 177.049 791.576 180.976C786.341 183.236 785.626 183.95 786.698 185.376C787.648 186.446 789.078 187.042 790.505 187.042C792.409 187.042 791.933 187.637 788.601 189.422C784.556 191.562 784.081 191.562 781.461 189.898C779.201 188.47 778.963 187.758 780.033 186.448C781.103 185.138 780.985 184.664 779.201 184.068C777.891 183.592 776.821 182.758 775.869 181.688C772.656 177.406 762.305 188.708 759.329 200.008C757.902 205.242 758.021 205.48 760.639 207.503L763.376 209.525L758.379 210.595C755.642 211.19 752.786 211.19 750.049 210.715C746.717 209.763 742.553 211.191 742.553 213.095C742.553 213.69 741.72 213.809 740.887 213.452C739.687 213.095 738.507 213.332 737.557 214.166C736.129 215.356 736.357 216.306 738.627 220.59C741.127 225.23 741.127 225.824 739.579 228.917C737.676 232.724 735.891 232.487 733.154 227.847C731.25 224.635 731.25 224.517 733.749 224.159C736.962 223.683 737.081 221.659 733.987 221.185C726.967 220.115 723.279 216.425 723.279 210.597C723.279 206.077 719.114 201.08 713.999 199.533C711.381 198.7 708.407 197.035 707.574 195.845C706.027 194.061 704.124 192.752 701.864 191.919C699.722 191.087 697.818 189.779 696.272 188.113C695.072 186.447 694.249 186.209 692.582 187.161C691.512 187.756 690.678 188.707 690.44 190.016C690.44 192.99 704.837 206.196 711.976 209.764C719.472 213.571 720.662 214.879 715.426 213.809C710.786 212.739 709.476 213.809 711.142 217.259C712.212 219.757 712.094 220.471 709.834 222.612L707.216 225.11L707.811 221.78C708.763 216.427 701.624 208.694 695.794 208.694C693.652 208.694 685.442 200.724 683.3 196.56C681.04 192.04 678.422 191.207 674.734 193.705C669.26 197.393 665.096 198.701 660.814 197.988C655.102 197.036 651.534 199.058 652.484 202.628C652.96 204.532 652.722 205.364 651.651 205.364C650.818 205.364 648.676 206.674 646.773 208.219C645.573 209.419 644.155 210.361 642.608 211.075C641.18 211.075 637.254 218.212 637.254 220.711C637.254 223.21 632.852 227.968 628.568 230.109C626.308 230.942 623.928 231.419 621.548 231.419C618.098 231.419 616.67 232.013 615.718 233.799C614.518 236.179 614.408 236.059 611.554 233.204C608.817 230.468 607.27 229.754 601.797 228.921C598.941 228.445 598.467 221.901 600.597 212.623C601.549 208.697 602.025 204.177 601.667 202.749C600.597 198.466 603.927 195.969 609.52 196.801C622.49 198.823 630.104 198.941 631.89 197.158C634.27 194.66 635.46 186.688 633.912 182.158C632.962 179.184 631.652 177.995 627.606 176.458C621.776 174.198 621.656 172.056 627.368 171.938C629.868 171.818 632.248 171.106 634.388 169.916C636.054 168.846 637.958 168.25 638.434 168.606C639.981 169.558 646.168 166.108 648.071 163.016C649.141 161.47 650.571 160.28 652.355 159.686C653.783 159.329 657.352 156.712 660.445 153.738C664.847 149.693 667.227 148.384 670.915 147.908C675.555 147.313 680.315 143.506 678.055 142.078C676.627 141.128 675.557 135.654 676.27 133.632C677.103 132.204 678.412 130.896 679.84 130.062L682.695 128.159L681.863 132.441C681.268 136.486 681.387 137.081 683.053 136.724C684.6 136.367 686.147 135.772 687.575 134.939C689.715 133.749 690.192 133.869 690.787 135.296C691.739 137.796 689.003 140.769 687.217 139.222C686.147 138.389 685.551 138.389 684.957 139.342C684.363 140.295 683.887 140.294 683.172 139.104C682.696 138.271 681.982 137.914 681.626 138.154C681.27 138.394 682.221 140.176 683.648 141.96C686.028 144.934 686.504 145.172 689.954 143.864C692.929 142.912 694.238 142.912 696.736 144.221C699.592 145.648 700.544 145.648 705.898 143.507C710.658 141.722 712.561 141.485 714.584 142.437C716.25 143.27 718.154 143.27 719.7 142.317C724.816 139.7 726.244 137.677 725.53 134.109C724.578 128.755 726.363 126.971 730.885 128.636C733.978 129.836 734.811 129.706 736.239 128.398C737.667 127.09 737.549 126.376 735.169 123.878C732.789 121.38 732.669 120.785 734.099 119.833C735.051 119.238 738.501 119 741.714 119.357C747.664 119.952 755.159 117.692 753.969 115.55C752.769 113.647 745.879 113.17 740.049 114.48C734.814 115.67 733.505 115.55 729.579 113.766C723.392 111.03 722.679 107.699 726.961 101.869C732.434 94.2559 733.386 91.8759 731.839 89.9729C729.579 87.2369 727.319 88.0699 722.083 93.8989C719.346 96.9919 715.539 100.085 713.635 100.799C711.493 101.869 709.709 103.535 708.519 105.557C706.972 108.531 706.972 109.127 708.519 111.507C709.471 113.053 710.899 114.124 712.564 114.837C716.014 115.907 715.301 118.049 710.422 121.38C708.4 123.164 706.852 125.424 705.902 127.923C704.832 131.016 702.809 133.513 699.952 135.06C695.907 137.44 695.788 137.44 693.527 135.417C692.099 133.99 691.027 132.205 690.552 130.183C689.719 127.685 688.412 125.423 686.745 123.403L683.651 119.715L679.725 122.095C677.821 123.295 675.679 124.118 673.538 124.475C669.968 124.475 665.804 120.549 665.448 116.98C665.328 115.195 664.972 113.53 664.378 111.864C663.308 109.366 668.424 104.608 673.658 103.18C678.892 101.752 689.72 94.2579 691.505 90.6899C693.171 88.0729 695.313 85.6939 697.692 83.6699C700.31 81.4099 702.332 79.0299 702.332 78.3169C702.332 77.6039 704.712 76.2949 707.686 75.3429C710.66 74.3909 715.658 72.3689 718.751 71.0599C723.511 69.2759 728.389 68.4429 733.505 68.4429C744.215 68.2049 751.235 69.6429 756.945 73.2029C759.8 74.9879 762.061 75.5829 764.322 75.2249C768.248 74.3919 789.07 80.9249 789.902 83.1949C790.734 85.4649 784.786 87.5969 779.669 86.8829C777.289 86.5259 772.412 85.6829 768.842 84.8609C763.964 83.7909 761.942 83.7909 760.989 84.7409C760.036 85.6909 760.513 86.4059 762.774 87.3579C764.797 88.4279 766.462 89.9749 767.534 91.8779C769.794 96.2799 777.172 99.9779 780.979 98.5399C784.786 97.1019 784.549 96.7559 780.741 94.6139C777.171 92.7109 778.838 92.2339 783.359 94.0189C786.929 95.3289 790.974 93.6619 790.022 91.2829C789.546 90.0829 790.855 89.2609 794.305 88.4279C801.801 86.5249 802.277 86.2879 801.682 84.7399C799.302 79.0399 799.302 79.1499 802.752 79.6249C804.537 79.8629 805.965 80.5769 805.727 81.4089C805.489 82.2409 806.56 83.4309 807.867 84.0259C809.89 85.0959 811.437 84.7399 816.791 81.8859C824.763 77.7219 830.831 76.4139 833.211 78.3159C834.521 79.3859 836.661 79.3859 842.729 78.3159C847.132 77.6019 851.177 77.2459 851.772 77.6019C852.367 77.9579 853.2 77.7219 853.557 77.1259C854.509 75.6979 852.01 72.3659 850.582 73.1999C848.917 74.1519 843.562 72.3669 844.752 71.1779C845.942 69.9889 877.472 77.3639 879.376 79.2779C880.686 80.5879 884.73 78.9209 884.73 77.0179C884.73 76.4229 882.47 74.8779 879.733 73.4479C871.166 69.2839 870.69 62.7409 878.663 60.7179C883.303 59.5179 885.326 60.9559 891.751 69.5209C900.081 80.7039 899.841 80.1089 897.106 83.9159C895.083 86.7709 894.964 87.4859 896.392 87.9609C899.009 88.9129 904.72 85.4629 905.552 82.2609C906.504 78.5729 904.72 75.3609 900.555 73.2209C897.225 71.5559 894.845 68.4609 894.845 65.8449C894.845 64.8929 896.045 64.7749 898.533 65.1309C902.223 65.8449 905.196 64.5359 913.525 58.5879C916.025 57.0409 918.879 56.2079 921.855 56.2079C928.399 56.0879 930.541 54.8979 928.637 52.6379C927.923 51.6859 927.567 50.7349 927.804 50.4979C929.232 49.0699 947.912 46.4529 952.196 47.0479C956.48 47.6429 957.55 47.2859 961 44.7879C963.142 43.1219 964.927 41.3379 964.927 40.7429C964.927 39.3149 955.051 39.4329 954.217 40.8629C953.027 42.7659 951.481 42.0629 951.957 39.9109C952.314 38.0079 951.362 37.6509 943.152 37.0559C920.664 35.2709 918.76 34.9159 921.497 32.1779C923.877 29.7979 929.697 29.7979 934.585 32.2979C936.845 33.3679 939.345 33.9639 941.962 34.0829C943.985 34.0829 946.008 34.5589 946.365 35.1529C946.722 35.7469 948.745 36.2229 950.767 36.2229C956.477 36.2229 967.305 38.7209 966.711 39.7929C966.354 40.3879 967.424 40.7449 969.091 40.7449C971.351 40.9829 973.613 41.5779 975.635 42.6479C978.253 44.0759 982.06 44.5509 990.032 44.6699C998.599 44.6699 1001.45 45.1459 1003.95 46.8099C1005.61 48.0099 1007.05 49.1899 1007.05 49.6649C1007.05 50.1399 1004.45 51.8049 1001.22 53.5909C993.494 57.8739 995.158 59.6579 1004.44 57.2789C1010.5 55.7319 1011.81 55.7319 1016.81 57.1589C1020.85 58.3589 1023.47 58.5869 1026.21 57.7539C1028.95 56.9209 1031.81 57.1589 1036.68 58.3489C1041.68 59.6589 1044.28 59.7759 1047.51 58.9439C1054.76 56.9219 1063.81 57.5159 1068.91 60.3719L1079.51 66.0719C1085.21 69.1649 1085.46 69.2839 1089.51 67.4999C1092.84 65.9529 1094.74 65.8339 1099.61 66.7859C1104.48 67.7379 1106.27 67.6189 1109.01 66.1909C1111.75 64.7629 1112.11 64.0509 1111.15 62.8609C1109.13 60.4809 1116.27 59.5309 1124.85 61.0769C1128.77 61.7909 1133.89 62.5049 1136.03 62.6239C1139.36 63.0999 1142.57 64.0519 1145.55 65.3599C1150.19 67.4999 1153.65 67.8579 1167.2 68.3339C1180.05 68.6909 1184.1 69.1669 1187.2 70.8319C1190.3 72.4979 1193.87 72.9719 1205.76 73.0919C1216.71 73.2119 1221.59 73.6869 1224.8 75.1139C1230.04 77.3739 1232.18 76.5419 1229.32 73.3299C1227.3 71.0699 1227.3 71.0699 1235.15 71.7829C1248.35 73.0929 1264.3 75.9469 1269.65 78.0879C1273.45 79.3979 1277.5 80.3479 1281.55 80.9429C1285.71 81.5379 1289.75 82.7269 1293.68 84.5129C1298.08 86.7729 1299.51 87.0109 1302.38 86.0599C1306.3 84.7499 1308.8 85.7029 1314.75 90.8179L1318.45 94.0299L1315.71 94.7439C1312.98 95.4579 1305.48 93.5439 1302.98 91.5319C1302.38 90.9369 1301.44 90.8179 1300.6 91.0559C1300.13 91.4129 1297.4 90.9359 1294.77 89.9859C1288.47 87.8459 1285.61 88.6759 1288.47 91.7699C1290.49 93.9099 1290.37 94.0299 1286.67 93.7919C1279.65 93.3159 1281.57 95.3389 1291.91 99.3819C1297.51 101.524 1302.38 103.546 1302.61 103.902C1303.68 104.972 1300.23 106.162 1297.61 105.686C1294.87 105.21 1287.85 108.186 1287.85 109.969C1287.38 111.279 1286.55 112.349 1285.47 113.299C1283.21 115.439 1282.85 115.439 1279.77 113.894C1277.03 112.466 1276.07 112.466 1273.47 113.774C1271.32 114.726 1269.17 115.558 1266.92 116.154C1265.26 116.511 1263.59 117.224 1262.16 118.177C1259.9 120.08 1263.96 125.552 1269.54 128.287C1272.64 129.715 1274.89 131.737 1275.49 133.641C1276.32 135.663 1277.15 137.686 1278.22 139.589C1279.77 142.206 1279.77 142.682 1278.12 143.277C1277.16 143.515 1276.69 144.587 1276.92 145.537C1276.95 145.715 1277.03 145.882 1277.15 146.013C1277.63 147.56 1278.11 149.106 1278.22 150.773C1278.34 152.438 1278.82 153.985 1279.3 155.531C1279.9 156.841 1279.4 157.673 1277.63 158.149C1275.61 158.743 1274.3 158.029 1271.09 154.461C1268.55 151.681 1265.76 149.133 1262.76 146.847C1259.31 143.992 1256.09 140.661 1253.48 136.973C1248.6 130.43 1248.48 130.073 1250.14 126.98C1251.1 125.195 1251.69 123.173 1251.81 121.15C1251.93 119.246 1252.51 117.462 1253.36 115.677C1255.02 112.703 1254.31 110.324 1250.86 106.397C1248.6 103.78 1244.43 105.683 1245.5 109.014C1246.46 111.988 1243.48 112.94 1240.15 110.799C1237.89 109.599 1235.27 108.776 1232.77 108.299C1228.25 107.586 1227.89 107.705 1226.71 110.799C1225.99 112.821 1225.75 114.962 1226.11 117.104C1226.59 119.721 1226.23 120.197 1223.61 120.792C1221.11 121.03 1218.51 120.672 1216.11 119.592C1213.84 118.522 1211.23 118.165 1208.85 118.64C1204.8 119.354 1200.75 119.592 1196.59 119.592C1188.49 119.712 1186.95 120.068 1184.59 122.328C1182.56 124.588 1181.13 127.325 1180.42 130.298C1179.82 133.034 1178.75 135.651 1177.45 138.15C1175.9 140.53 1176.02 140.767 1180.42 143.027C1185.18 145.525 1190.52 146.12 1194.46 144.693C1197.56 143.623 1206.96 150.879 1209.81 156.708C1211.01 159.088 1213.01 161.468 1214.21 162.18C1218.85 164.68 1219.81 180.858 1215.88 191.564C1213.26 198.94 1210.18 201.32 1205.76 199.664C1204.69 199.188 1203.5 198.831 1202.31 198.464C1201.24 199.892 1200.29 201.439 1199.46 203.104C1197.66 206.434 1197.32 208.101 1198.26 209.171C1199.92 211.194 1198.73 213.691 1195.4 215.238C1193.86 215.952 1192.67 217.023 1192.67 217.618C1192.67 218.213 1196.24 221.188 1200.52 224.161C1205.99 227.968 1208.97 230.823 1210.28 233.916C1211.35 236.296 1212.06 238.436 1211.7 238.556C1211.35 238.676 1209.1 239.984 1206.6 241.293L1201.96 243.673L1199.1 237.249C1195.9 229.992 1193.27 227.137 1188.5 225.829C1186.12 225.234 1185.3 224.283 1185.3 222.259C1185.3 220.235 1184.1 218.929 1181.6 217.382C1177.9 215.24 1177.9 215.24 1174 217.62C1170.07 220 1170.07 220 1168.88 217.74C1168.18 216.54 1167.81 215.122 1167.68 213.814C1167.44 212.614 1166.73 211.554 1165.66 210.959C1163.86 210.007 1162.8 210.602 1159.71 214.052C1157.91 216.074 1155.91 217.978 1153.64 219.524C1151.74 220.594 1151.62 221.071 1152.94 222.617C1154.84 224.402 1156.98 225.947 1159.36 227.137C1163.64 229.517 1164.48 229.635 1165.9 228.207C1167.33 226.78 1168.4 226.78 1172.57 227.97L1177.57 229.278L1174.71 231.182C1169.59 234.632 1167.93 236.416 1167.21 239.509C1166.61 242.007 1166.98 242.839 1169.24 243.792C1170.78 244.506 1173.04 247.242 1174.34 249.978C1175.64 252.714 1177.67 255.093 1180.17 256.878C1184.34 259.376 1185.53 261.874 1183.15 263.302C1180.77 264.73 1181.95 266.395 1184.93 266.395C1188.5 266.395 1188.5 268.535 1185.05 280.671C1180.89 295.421 1177.2 300.301 1167.45 303.869C1164.12 305.177 1160.67 306.129 1157.1 306.605C1152.82 306.725 1148.9 308.865 1146.4 312.435L1144.02 315.409L1142.95 312.554C1141.52 308.866 1138.31 307.914 1133.55 309.818C1129.27 311.602 1126.41 314.458 1125.35 318.264C1124.28 321.594 1127.97 327.544 1133.92 332.184C1138.8 336.11 1144.39 345.864 1145.58 352.884C1146.78 359.07 1144.75 363.114 1139.38 365.484C1137 366.554 1134.62 368.339 1134.38 369.529C1133.55 372.146 1128.55 375.477 1127.6 373.931C1127.25 372.861 1127.25 371.789 1127.6 370.719C1127.96 369.435 1127.96 368.077 1127.6 366.793C1127 365.365 1126.4 365.246 1124.63 366.198C1122.83 367.15 1122.01 366.912 1120.58 364.771C1116.88 359.417 1106.18 350.851 1103.21 350.851C1102.14 350.851 1101.78 352.159 1101.91 354.776C1101.91 357.989 1101.67 361.082 1100.96 364.176C1099.89 369.053 1100.01 370.006 1102.03 372.86C1103.33 374.645 1104.41 376.786 1105.13 378.927C1105.49 380.474 1108.83 384.162 1112.51 387.137C1118.71 392.133 1119.41 393.085 1122.03 401.413C1123.1 404.743 1124.05 408.075 1124.89 411.406C1124.89 413.309 1122.51 412.596 1117.63 409.026C1112.75 405.456 1109.3 399.509 1106.56 389.278C1105.86 385.59 1103.71 382.258 1100.49 380.238C1095.97 376.908 1095.85 376.668 1096.21 371.198C1096.45 368.105 1096.91 363.703 1097.41 361.442C1098.01 358.23 1097.53 355.97 1095.27 351.212C1093.6 347.524 1092.17 343.717 1091.1 339.91C1089.56 333.367 1087.3 332.296 1083.25 336.103C1082.18 337.303 1080.99 338.243 1079.55 338.958C1077.77 338.958 1075.27 335.151 1075.85 333.258C1076.93 329.808 1070.25 318.031 1066.45 316.365C1063.95 315.165 1062.05 313.035 1061.09 310.417C1058.83 305.42 1056.33 303.517 1053.71 304.827C1051.11 305.777 1048.36 306.611 1045.51 307.087C1038.97 308.395 1036.59 310.417 1037.54 313.867C1037.9 315.175 1036.71 316.365 1033.97 317.674C1031.71 318.744 1029.93 320.41 1028.62 322.432C1027.9 323.979 1026.72 325.168 1025.17 325.882C1023.5 326.715 1022.07 328.024 1021.12 329.689C1019.1 332.425 1016.72 334.805 1014.1 336.709C1010.3 339.683 1009.1 341.349 1009.34 343.371C1010.41 355.386 1008.74 365.498 1004.58 371.565C1000.42 377.633 1000.18 377.633 996.854 375.967C994.831 375.015 993.524 373.112 993.284 370.852C991.974 366.332 990.309 361.929 988.167 357.647C973.652 326.597 971.51 320.649 972.819 314.937C973.652 311.131 971.619 305.42 969.725 306.015C968.892 306.372 968.297 307.215 968.297 308.038C968.177 313.272 962.347 313.986 957.827 309.465L954.852 306.491L957.47 305.539C960.444 304.469 960.088 301.613 957.113 302.089C956.043 302.209 953.663 301.139 951.759 299.591C949.855 298.043 947.951 296.736 947.356 296.736C946.761 296.736 946.048 295.666 945.691 294.476C944.621 291.146 938.671 288.289 935.577 289.716C932.84 290.916 908.33 290.668 904.167 289.359C901.787 288.159 899.764 286.623 898.097 284.601C894.767 280.794 894.647 280.675 889.65 282.101C884.89 283.411 884.176 283.301 877.632 279.961C872.04 277.106 870.374 275.678 868.709 271.751C866.567 266.874 861.569 263.305 858.595 264.495C857.643 264.851 856.572 266.635 856.215 268.42C855.621 271.038 856.216 272.703 858.952 276.52C860.975 279.256 862.522 282.35 863.592 285.68C865.02 290.796 867.638 292.342 869.898 289.25C871.208 287.347 871.683 287.347 872.516 288.774C873.111 289.607 873.349 290.559 873.23 291.629C872.635 293.533 879.18 296.864 882.154 296.031C883.701 295.674 887.032 293.057 889.531 290.201C893.457 285.799 894.766 285.441 894.171 289.131C893.695 291.629 895.718 294.604 898.931 296.269C903.929 298.886 911.068 304.716 911.068 306.262C911.068 306.976 909.758 308.76 908.093 310.307C906.07 312.447 904.286 314.827 902.977 317.445C900.002 323.275 891.317 331.72 888.461 331.72C885.129 331.72 880.013 334.576 877.991 337.67C876.445 339.573 874.661 341.12 872.399 342.19C861.691 347.544 848.722 353.016 845.033 353.73C841.107 354.444 840.869 354.325 838.727 350.16C837.299 346.83 836.227 343.26 835.752 339.69C835.158 335.17 833.968 332.433 831.588 329.697C829.803 327.675 828.375 325.533 828.375 324.937C828.375 324.341 826.353 321.725 823.855 319.107C820.762 316.014 818.62 312.207 817.43 308.044C816.478 304.594 814.93 301.264 812.91 298.288C802.558 285.321 799.465 280.801 797.918 276.042C795.895 269.737 794.11 268.785 793.278 273.306L792.683 276.636L788.756 271.758C782.806 264.264 782.093 267.714 787.686 276.755C790.304 281.038 794.468 288.651 796.966 293.648C799.108 297.931 801.486 302.213 804.106 306.248C805.653 308.388 806.606 310.768 806.724 313.386C806.724 317.669 808.032 320.286 813.03 326.472C815.052 328.852 816.48 331.587 817.432 334.572C818.027 337.07 820.169 339.687 824.809 343.494C831.949 349.194 836.589 355.152 837.779 360.149C838.374 362.289 839.921 364.075 841.944 365.026C845.156 366.692 846.227 366.573 856.221 364.432C862.171 363.122 868.477 361.339 870.261 360.387L873.474 358.721L874.188 363.241C874.902 367.286 874.188 369.308 866.098 384.774C857.412 401.429 857.055 401.904 848.37 408.804C843.49 412.611 838.494 417.37 837.066 419.274C835.638 421.178 831.356 426.294 827.429 430.694C815.887 443.424 814.339 454.724 821.955 469.714C823.859 473.521 824.692 476.376 824.215 478.279C823.858 481.135 824.095 483.989 824.81 486.845C825.88 491.841 825.762 493.15 823.858 496.838C821.241 502.072 819.098 503.976 811.603 507.664C808.271 509.329 805.653 511.114 805.653 511.708C805.653 512.302 803.393 515.396 800.536 518.488C797.679 521.58 795.42 524.675 795.42 525.388C796.015 527.411 796.73 529.314 797.8 531.098C801.607 538.711 799.11 544.065 789.828 547.991C785.902 549.656 784.712 552.868 785.664 558.816C786.14 561.909 785.902 562.98 784.117 563.932C782.094 565.359 780.547 567.262 779.239 569.285C774.599 576.542 761.272 589.509 755.204 592.483C750.207 594.981 748.898 595.219 745.091 594.268C741.759 593.316 739.141 593.554 733.668 594.862C725.468 597.004 726.41 597.122 722.841 593.672L722.793 593.667ZM871.997 232.491C874.972 230.945 875.329 230.111 875.329 225.829C875.329 222.736 874.734 220.357 873.544 219.405C872.116 217.978 870.926 216.312 869.974 214.528C868.428 211.435 868.428 211.198 870.094 211.91C872.236 212.743 875.33 211.79 875.33 210.126C874.854 208.579 874.02 207.033 872.95 205.724C871.046 202.988 870.213 202.631 868.43 203.584C867.002 204.417 866.288 204.417 866.288 203.584C866.288 202.751 864.265 201.444 861.768 200.134C856.294 197.279 854.391 194.304 856.056 191.094C857.366 188.714 862.006 187.049 863.909 188.238C866.527 189.904 867.359 187.525 865.109 184.432C859.755 176.937 852.379 177.412 843.216 185.859C837.266 191.332 836.791 192.759 840.123 194.544C841.323 195.138 842.145 196.209 842.383 197.399C842.383 198.349 844.406 201.206 846.905 203.942C852.615 210.128 853.568 212.864 852.855 220.24L852.26 226.07L859.994 230.115L868.084 234.16C869.394 233.684 870.582 233.208 871.772 232.494H872.01L871.997 232.491ZM840.824 548.817C837.611 547.033 837.134 546.081 836.302 539.3C835.588 533.947 835.945 532.757 839.158 527.642C842.371 522.527 842.608 521.337 841.895 515.626C840.825 507.299 842.608 503.026 847.487 501.946C852.007 500.996 861.765 492.31 864.144 487.196L865.929 483.27L867.129 486.006C870.222 492.906 869.984 495.88 864.511 510.989C861.537 519.079 858.443 528.714 857.491 532.521C854.636 544.418 852.971 547.391 848.211 548.819C843.094 550.366 843.571 550.366 840.834 548.819L840.824 548.817ZM1398.73 529.187C1395.16 525.261 1393.03 521.811 1393.03 520.147C1393.03 516.34 1393.63 516.697 1396.83 522.287C1398.6 525.229 1400.72 527.946 1403.14 530.377C1405.04 532.161 1406.59 534.065 1406.59 534.541C1406.59 536.681 1404.09 535.016 1398.73 529.187ZM1339.13 474.939C1331.99 472.679 1328.66 470.539 1325.93 466.374C1322.71 461.614 1316.77 457.928 1313.79 458.879C1312.59 459.236 1310.46 461.379 1309.27 463.519C1307.13 467.207 1306.65 467.445 1302.73 466.731C1299.99 466.136 1297.61 464.946 1295.47 463.161C1293.33 461.258 1291.77 460.544 1290.11 461.139C1288.69 461.495 1287.26 461.495 1285.95 460.901C1284.4 460.068 1284.52 459.591 1287.02 457.927C1289.87 456.023 1289.87 456.023 1287.97 451.977C1286.42 448.765 1284.27 446.981 1277.27 443.531C1272.39 441.151 1267.04 439.129 1265.14 439.129C1260.97 439.129 1259.19 435.203 1262.4 432.943C1264.3 431.515 1263.95 431.159 1259.07 428.779C1253.83 426.281 1253.71 426.162 1256.21 424.735C1257.76 423.902 1259.54 423.425 1261.21 423.307C1263.83 423.307 1267.16 427.114 1267.16 430.207C1267.52 431.991 1268.36 433.777 1269.66 435.203C1272.04 438.296 1272.16 438.296 1273.94 436.036C1276.08 434.014 1278.34 432.229 1280.96 430.802L1286.2 427.828L1293.45 431.04C1297.38 432.824 1303.09 435.203 1306.07 436.274C1310.61 438.188 1314.95 440.538 1319.04 443.293C1327.14 448.646 1330.58 453.048 1328.54 455.427C1326.88 457.45 1333.3 466.372 1339.97 471.487C1347.22 476.96 1347.11 477.555 1339.13 474.937V474.939ZM1388.39 474.939C1387.44 473.869 1387.44 473.155 1388.15 473.155C1389.58 473.155 1391.13 475.295 1390.3 476.129C1390.06 476.367 1389.23 475.891 1388.4 474.929L1388.39 474.939ZM1198.14 470.299C1196.47 469.347 1196 468.752 1196.94 468.752C1198.96 468.752 1202.17 470.656 1201.46 471.37C1201.22 471.607 1199.68 471.132 1198.13 470.3L1198.14 470.299ZM1217.3 468.752C1220.5 464.232 1225.5 462.328 1230.15 463.756C1233.48 464.826 1233.6 464.946 1230.85 465.064C1229.3 465.064 1225.5 466.73 1222.65 468.634C1215.99 472.917 1214.32 472.917 1217.3 468.754V468.752ZM1381.6 470.299C1380.05 468.514 1380.4 468.276 1383.15 469.229C1384.1 469.586 1384.93 470.429 1384.93 470.895C1385.05 472.56 1383.15 472.203 1381.6 470.3V470.299ZM1386.95 469.347C1386.48 468.039 1386.25 466.73 1386.25 465.421C1386.25 464.112 1386.73 464.471 1387.45 466.254C1388.05 467.454 1388.28 468.871 1388.15 470.18C1387.92 470.775 1387.32 470.418 1386.95 469.347ZM1184.8 465.659C1183.97 465.302 1183.6 464.589 1183.97 463.994C1184.8 462.566 1192.07 462.684 1193.01 464.114C1193.37 464.709 1193.01 465.304 1192.18 465.304C1190.88 465.424 1189.68 465.542 1188.38 465.78C1187.31 466.018 1186 466.018 1184.81 465.66L1184.8 465.659ZM1201.58 464.826C1199.56 462.328 1201.94 461.614 1207.28 463.042C1212.64 464.47 1212.64 464.708 1207.04 465.659C1204.19 466.135 1202.52 465.897 1201.57 464.826H1201.58ZM1371.73 464.113C1370.89 462.913 1370.77 461.853 1371.37 461.853C1371.97 461.853 1373.03 462.923 1373.63 464.113C1374.23 465.303 1374.46 466.373 1373.99 466.373C1373.51 466.373 1372.44 465.303 1371.73 464.113ZM1378.86 462.913C1375.89 459.583 1377.44 458.987 1380.53 462.318C1381.96 463.865 1382.67 465.173 1382.08 465.173C1380.78 464.816 1379.7 463.983 1378.86 462.913ZM1166.48 462.793C1162.2 462.198 1157.91 461.247 1153.75 460.057C1150.77 459.105 1147.32 458.629 1146.13 458.987C1143.53 459.82 1132.45 456.607 1132.45 454.942C1132.45 451.374 1142.55 451.017 1148.05 454.467C1150.07 455.775 1151.62 455.894 1155.9 454.942C1160.66 453.872 1161.6 453.992 1164.35 456.142C1165.65 457.212 1167.08 457.927 1168.63 458.402C1170.89 458.402 1177.67 462.209 1177.08 463.162C1176.6 463.757 1175.88 463.995 1175.18 463.995C1174.46 463.875 1170.54 463.4 1166.48 462.795V462.793ZM1369.82 457.321C1368.62 456.121 1368.27 455.061 1368.87 455.061C1370.17 455.537 1371.25 456.261 1372.07 457.321C1373.27 458.511 1373.62 459.581 1373.02 459.581C1371.72 459.105 1370.52 458.381 1369.82 457.321ZM1362.68 455.893C1361.73 454.466 1361.14 452.8 1360.78 451.135C1360.18 448.16 1360.18 448.042 1361.38 450.065C1362.34 451.492 1363.28 452.92 1364.36 454.229C1365.31 455.299 1365.56 456.369 1364.83 456.727C1364 456.965 1363.17 456.607 1362.69 455.894L1362.68 455.893ZM1338.65 452.323L1335.79 450.777L1340.19 449.944C1343.17 449.23 1346.02 447.804 1348.39 445.78C1350.66 443.758 1352.19 443.044 1352.19 443.996C1352.19 446.256 1350.76 448.041 1346.49 451.134C1342.09 454.346 1342.33 454.346 1338.64 452.324L1338.65 452.323ZM1126.15 447.803C1121.99 445.423 1114.49 436.263 1112.11 430.553C1110.21 426.627 1107.95 422.82 1105.33 419.251C1103.07 416.396 1101.05 413.421 1099.26 410.211C1097.48 407.356 1095.34 404.621 1092.84 402.241C1087.37 397.007 1084.04 391.416 1086.3 391.534C1089.27 391.534 1096.88 395.817 1100.22 399.267C1109.26 408.665 1111.16 410.45 1115.45 413.067C1119.73 415.684 1121.51 418.301 1121.75 421.513C1122.35 423.06 1123.18 424.369 1124.37 425.439L1130.2 431.982C1131.98 434.005 1133.4 436.384 1134.25 439.002C1135.45 445.188 1130.55 450.422 1126.15 447.806V447.803ZM1197.55 447.089C1197.2 446.019 1197.2 444.829 1197.55 443.759C1197.79 442.093 1197.45 440.309 1196.48 438.881C1194.94 436.501 1194.94 435.907 1196.6 433.528C1198.04 430.744 1198.97 427.721 1199.34 424.606C1199.94 420.442 1201 417.586 1202.79 415.802C1205.29 413.304 1205.89 413.185 1211.49 414.256C1216.24 415.206 1218.15 415.088 1220.77 413.661C1225.17 411.401 1225.41 411.519 1223.97 414.731C1222.17 418.775 1218.5 420.084 1214.57 418.061C1207.67 414.491 1198.51 419.845 1203.37 424.604C1205.17 426.388 1206.11 426.507 1209.44 425.554C1215.04 423.889 1217.3 424.246 1213.84 426.149C1209.92 428.289 1209.09 430.669 1211.24 434.596C1212.19 436.499 1212.78 438.64 1212.9 440.782C1212.9 443.399 1212.67 443.518 1210.64 442.447C1209.44 441.733 1207.54 439.354 1206.6 437.094C1204.93 432.93 1204.8 432.93 1202.67 435.19C1200.77 437.094 1200.65 437.927 1201.72 441.733C1202.67 445.183 1202.67 446.373 1201.48 447.087C1199.34 448.514 1198.38 448.395 1197.55 447.087V447.089ZM1352.95 441.022C1351.52 439.118 1349.61 437.452 1347.47 436.262C1345.57 435.31 1344.27 434.24 1344.5 433.882C1346.28 432.097 1356.04 440.068 1355.2 442.685C1355.08 443.399 1354 442.805 1352.94 441.02L1352.95 441.022ZM1175.07 437.334C1173.52 436.501 1171.73 436.134 1169.95 436.382C1167.09 437.334 1155.91 434.954 1154.85 433.289C1154.02 431.979 1151.4 423.653 1149.97 417.705C1149.61 416.039 1149.97 414.255 1150.92 412.708C1152.22 410.924 1152.95 410.805 1154.97 411.875C1156.99 412.945 1157.59 412.827 1158.77 410.21C1160.07 408.07 1161.97 406.284 1164.24 405.094C1166.62 403.904 1168.52 402.001 1169.84 399.622C1170.79 397.362 1172.7 395.577 1175.08 394.982C1177.68 393.912 1180.08 392.127 1181.86 389.867C1183.52 387.727 1185.43 385.941 1186.14 385.941C1186.86 385.941 1189.12 387.607 1191.14 389.629L1194.71 393.317L1191.85 397.243C1188.52 401.643 1188.75 405.451 1192.45 410.805L1194.71 414.017L1191.85 415.92C1190.31 416.99 1189 418.418 1189 419.132C1189 421.749 1181.74 436.739 1179.95 437.81C1178.75 438.642 1177.35 438.404 1175.08 437.334H1175.07ZM1240.87 437.334C1238.49 436.739 1238.27 434.717 1240.4 434.717C1242.2 434.837 1243.98 435.075 1245.75 435.43C1248.95 436.025 1249.2 436.263 1247.3 437.096C1244.92 438.048 1243.73 438.048 1240.87 437.334ZM1236.95 419.727C1236 418.775 1236 417.824 1236.71 416.277C1237.31 415.325 1237.54 414.137 1237.19 413.065C1236.11 411.399 1238.73 407.365 1240.76 407.365C1242.42 407.365 1242.42 407.603 1240.64 409.505C1239.21 411.171 1238.97 412.241 1239.8 414.621C1241.7 419.498 1239.8 422.711 1236.95 419.736V419.727ZM1219.67 385.488C1217.52 380.492 1217.29 380.254 1213.95 380.968C1210.62 381.681 1210.5 381.562 1211.81 379.302C1212.88 377.399 1213.83 377.042 1216.21 377.518C1218.59 377.994 1220.01 377.518 1222.41 375.376C1224.08 373.83 1225.51 371.688 1225.51 370.499C1225.51 367.644 1229.79 377.161 1230.74 382.395C1231.44 386.321 1231.34 386.559 1229.54 385.012C1226.92 382.872 1224.42 385.132 1226.57 387.63C1227.4 388.7 1227.52 389.414 1226.8 389.414C1225.73 389.534 1224.78 389.771 1223.83 390.128C1222.28 390.604 1221.21 389.414 1219.67 385.488ZM1013.11 387.392C1011.81 385.369 1011.09 376.09 1012.04 373.712C1012.99 371.334 1013.11 371.095 1015.97 375.377C1019.42 380.493 1020.49 383.705 1019.42 385.489C1018.35 387.273 1013.82 388.582 1013.12 387.393L1013.11 387.392ZM1186.83 374.9C1186.83 374.425 1189.09 371.45 1191.83 368.357C1195.88 363.837 1196.83 363.123 1196.95 365.027C1196.95 366.337 1195.28 369.191 1193.15 371.57C1189.58 375.496 1186.85 376.924 1186.85 374.9H1186.83ZM1211.33 371.926C1210.97 370.736 1210.97 369.428 1211.56 368.356C1212.4 366.929 1212.76 366.929 1213.82 368.236C1214.9 369.546 1214.78 370.259 1213.59 371.806C1212.16 373.591 1212.04 373.71 1211.33 371.926ZM343.94 367.526C344.654 366.693 344.892 365.622 344.416 365.266C343.94 364.91 344.773 364.553 345.963 364.553C347.748 364.553 348.223 365.147 347.748 366.813C347.391 368.121 346.201 369.073 344.892 369.073C343.226 368.953 342.988 368.597 343.94 367.527V367.526ZM1218.94 367.169C1218.58 366.099 1218.24 365.146 1217.74 364.195C1217.5 363.719 1217.74 363.362 1218.34 363.362C1219.54 363.362 1221.07 368.002 1220.24 368.834C1220 369.072 1219.41 368.358 1218.94 367.169ZM1207.52 364.195C1206.57 363.243 1206.57 361.695 1207.64 360.745C1208.24 360.15 1209.07 359.912 1209.9 360.15C1211.45 360.507 1211.45 360.983 1210.26 363.124C1209.07 365.265 1208.59 365.504 1207.52 364.194V364.195ZM1220.84 360.388C1219.54 358.722 1218.7 357.176 1218.94 356.938C1219.89 355.986 1223.11 358.008 1224.77 360.626C1227.27 364.552 1224.07 364.314 1220.84 360.388ZM1202.28 355.986C1201.33 355.153 1200.74 354.083 1200.5 352.893C1200.5 352.179 1201.57 352.655 1203 354.093C1204.43 355.531 1205.14 356.829 1204.78 357.186C1204.43 357.543 1203.24 356.948 1202.28 355.986ZM313.244 355.748C312.768 355.153 312.53 354.558 312.53 353.845C312.53 353.132 313.006 353.25 313.84 353.965C314.674 354.68 314.91 355.63 314.554 355.868C314.078 356.225 313.484 356.225 313.244 355.748ZM306.819 354.321C306.819 353.726 307.057 353.121 307.295 353.121C307.533 353.121 308.127 353.597 308.485 354.321C308.843 355.045 308.605 355.511 308.009 355.511C307.296 355.391 306.819 354.916 306.819 354.321ZM360.004 352.061C360.004 351.467 360.242 350.871 360.48 350.871C360.718 350.871 361.313 351.347 361.68 352.061C362.047 352.775 361.8 353.261 361.204 353.261C360.608 353.261 360.004 352.666 360.004 352.061ZM1213.59 351.823C1212.04 351.11 1210.37 350.991 1208.83 351.348C1206.69 351.942 1205.13 350.991 1200.97 346.828C1195.14 340.88 1194.07 338.381 1195.74 335.168C1196.44 333.384 1196.94 331.481 1196.94 329.578C1196.94 323.392 1201.1 323.63 1204.08 330.054C1205.74 333.624 1205.74 334.337 1204.2 338.024C1202.53 342.068 1202.53 342.306 1205.5 345.399C1207.64 347.659 1209.3 348.492 1211.1 348.017C1212.53 347.66 1213.95 348.017 1215.02 349.087C1217.05 351.585 1216.22 353.251 1213.6 351.823H1213.59ZM353.222 344.686C353.222 344.448 353.698 343.853 354.422 343.486C355.146 343.119 355.622 343.366 355.622 343.962C355.622 344.558 355.146 345.152 354.422 345.152C353.827 345.152 353.222 345.032 353.222 344.677V344.686ZM349.772 336.239C349.892 335.525 350.248 334.812 350.972 334.455C351.567 334.098 352.172 334.217 352.172 334.93C352.052 335.644 351.696 336.358 350.972 336.715C350.377 337.072 349.772 336.953 349.772 336.239ZM340.135 331.599C339.778 331.005 340.135 330.767 341.205 331.124C343.108 331.837 343.585 332.67 341.919 332.67C341.205 332.67 340.609 332.194 340.134 331.6L340.135 331.599ZM344.655 329.339C344.298 328.744 344.535 328.139 345.131 328.139C345.727 328.139 346.331 328.615 346.331 329.339C346.331 329.934 346.093 330.539 345.855 330.539C345.617 330.539 345.141 329.944 344.655 329.339ZM349.771 329.339C349.771 328.744 350.009 328.139 350.247 328.139C350.485 328.139 351.08 328.615 351.447 329.339C351.814 330.063 351.567 330.539 350.971 330.539C350.375 330.539 349.901 329.944 349.771 329.339ZM271.957 326.365C271.243 326.127 270.647 325.532 270.529 324.7C270.529 323.034 275.526 323.5 277.906 325.294C280.046 326.841 279.929 326.96 276.706 326.96C275.159 326.96 273.493 326.722 271.946 326.365H271.957ZM300.632 325.651C299.085 325.056 297.3 324.937 295.634 325.294C293.612 325.651 291.589 325.532 289.684 324.937C287.304 323.987 287.424 323.867 291.588 323.987C297.656 324.107 299.203 323.154 297.656 320.299C296.586 318.276 296.942 318.157 302.296 318.157C307.65 318.157 315.026 320.537 316.336 322.677C317.169 323.877 302.534 326.841 300.631 325.651H300.632ZM322.286 326.365C320.978 325.055 322.643 323.629 325.618 323.629C327.403 323.629 328.236 324.105 327.998 325.056C327.522 326.722 323.476 327.556 322.286 326.366V326.365ZM1141.72 324.581C1138.75 321.606 1141.72 318.038 1147.19 318.038C1149.57 318.038 1149.57 318.038 1147.55 321.606C1145.17 325.77 1143.63 326.484 1141.72 324.581ZM331.686 324.343C331.686 324.105 332.4 323.629 333.352 323.273C334.304 322.917 335.018 323.153 335.018 323.749C335.018 324.345 334.304 324.819 333.352 324.819C332.4 324.819 331.686 324.581 331.686 324.343ZM282.784 316.243C282.427 315.886 280.047 315.529 277.43 315.529C273.86 315.529 273.027 315.172 273.86 314.102C274.693 313.032 273.503 311.722 269.34 308.986C261.14 303.752 256.61 302.681 251.136 304.823C246.019 306.845 245.543 306.963 245.543 305.655C245.543 303.275 254.586 300.659 261.011 301.135C267.198 301.61 270.649 302.919 282.904 309.462C292.899 314.815 292.899 314.815 289.686 315.767C286.116 316.967 283.499 317.077 282.786 316.243H282.784ZM290.874 306.726C293.016 305.298 294.324 305.298 294.324 306.726C294.324 307.321 293.134 307.796 291.826 307.796C289.684 307.796 289.566 307.558 290.874 306.726ZM1192.88 304.704C1191.81 303.752 1190.86 302.562 1190.28 301.254C1189.08 299.112 1189.21 298.042 1190.98 295.067C1193.6 290.547 1195.38 289.952 1196.22 293.402C1197.05 296.852 1194.55 305.774 1192.88 304.704ZM298.369 303.157C299.083 301.957 303.366 301.847 303.366 303.037C303.366 303.513 302.056 303.989 300.511 304.107C298.966 304.225 298.011 303.75 298.369 303.155V303.157ZM275.999 292.331C274.214 290.191 274.452 287.454 276.475 287.454C277.189 287.454 277.427 288.404 277.07 289.714C276.713 291.024 277.07 292.094 277.784 292.331C278.498 292.568 278.736 293.164 278.379 293.531C278.022 293.898 276.951 293.411 275.999 292.331ZM282.543 283.409C282.186 282.339 282.067 281.269 282.423 280.911C282.779 280.553 283.375 281.149 283.733 282.219C284.091 283.289 284.209 284.361 283.853 284.719C283.497 285.077 282.901 284.481 282.543 283.409ZM275.403 282.339C275.523 281.269 276.473 280.555 277.545 280.674C279.449 280.674 279.568 280.794 278.021 282.339C277.426 283.053 276.711 283.649 275.879 284.005C275.641 284.125 275.403 283.291 275.403 282.339ZM1225.25 257.595C1225.25 256.762 1224.05 254.502 1222.51 252.717C1218.94 248.434 1220.13 245.579 1224.41 248.434C1227.51 250.457 1229.05 254.502 1227.98 257.476C1227.15 259.616 1225.38 259.736 1225.25 257.596V257.595ZM1231.55 249.385C1230.85 247.482 1232.51 245.697 1235.12 245.578C1236.92 245.578 1236.92 248.078 1235.12 249.861C1233.34 251.645 1232.39 251.645 1231.55 249.385ZM1241.9 245.221C1239.76 241.891 1236.55 241.415 1229.53 243.318C1226.68 244.151 1224.65 244.151 1223.33 243.318C1222.26 242.723 1221.91 242.118 1222.73 242.118C1223.55 242.118 1225.58 240.81 1227.49 239.263C1229.87 237.241 1231.65 236.646 1233.56 237.003C1235.46 237.36 1237.72 236.527 1242.36 233.077C1251.28 226.297 1252.12 224.274 1248.56 217.017C1244.99 210.117 1246.06 207.857 1251.18 210.95C1254.98 213.21 1258.55 219.515 1257.48 222.25C1257.12 223.202 1257.72 226.295 1258.68 229.03C1260.11 232.956 1260.35 234.503 1259.28 236.406C1257.85 239.142 1253.8 240.926 1249.16 240.926C1246.56 240.926 1245.83 241.639 1245 244.496L1243.93 248.066L1241.9 245.21V245.221ZM783.103 241.296C781.793 239.986 782.508 238.796 784.65 238.796C785.72 238.796 786.79 238.439 787.505 237.606C788.575 235.94 790.361 236.296 789.647 238.082C788.933 239.868 784.055 242.245 783.103 241.294V241.296ZM744.433 239.392L741.101 237.846L745.621 237.726C751.214 237.606 755.378 238.676 754.545 239.986C753.712 241.296 748.358 241.186 744.432 239.391L744.433 239.392ZM698.733 228.092C694.213 225.832 693.973 225.474 696.353 224.879C699.209 224.166 705.515 224.999 705.277 226.189C705.039 227.022 704.801 227.974 704.444 228.806C703.73 230.472 703.244 230.353 698.734 228.093L698.733 228.092ZM676.007 215.838C675.057 212.983 675.057 211.912 676.364 210.723C678.624 208.463 680.41 210.009 680.41 214.411C680.53 219.526 677.673 220.478 676.007 215.838ZM649.474 216.79C650.307 214.65 653.758 214.292 653.044 216.433C652.568 217.385 651.734 217.98 650.664 218.217C649.354 218.455 648.998 217.98 649.464 216.79H649.474ZM1241.29 203.823C1239.15 200.968 1239.15 200.373 1240.69 198.231C1242.23 196.091 1242.23 195.495 1240.69 192.401C1238.19 187.524 1238.54 187.167 1242.95 190.498C1245.92 192.52 1249.13 194.068 1252.58 195.138C1258.88 197.042 1260.44 198.468 1257.22 199.54C1256.02 199.897 1254.96 200.968 1254.96 201.92C1254.96 203.12 1254.13 203.348 1251.86 202.753C1245.91 201.207 1244.24 201.553 1244.6 204.419C1244.84 207.869 1244 207.749 1241.27 203.824L1241.29 203.823ZM677.791 205.131C676.839 204.181 676.839 202.514 677.791 201.561C678.029 201.324 678.386 201.086 678.743 200.967C679.943 200.491 680.409 201.087 680.409 203.107C680.529 205.843 679.339 206.677 677.791 205.129V205.131ZM1234.03 181.339C1232.13 178.602 1230.33 175.629 1228.93 172.535C1225.83 167.063 1222.13 161.947 1217.98 157.308C1213.34 152.073 1210.96 148.623 1211.78 148.385C1212.62 148.148 1214.28 149.337 1215.58 151.003C1218.68 155.166 1222.48 158.735 1228.55 163.256C1233.55 166.944 1236.05 170.394 1232.83 169.086C1229.13 167.659 1229.98 171.109 1234.85 176.462C1236.75 178.365 1238.42 180.507 1239.97 182.767C1239.97 184.195 1235.57 183.005 1234.02 181.34L1234.03 181.339ZM399.371 175.629L395.207 175.153L403.179 167.303C407.581 163.02 411.745 159.451 412.339 159.451C412.933 159.451 412.815 160.284 411.863 161.474C409.483 164.091 411.15 167.064 415.433 167.898C417.337 168.373 419.003 169.563 419.953 171.348C421.153 173.846 420.905 174.203 416.979 175.273C412.695 176.473 407.817 176.473 399.379 175.63L399.371 175.629ZM123.331 167.539C119.405 163.851 118.929 162.304 121.546 161.353C123.926 160.401 128.209 163.375 129.746 166.943C131.283 170.511 131.412 170.869 128.913 170.869C127.843 170.869 125.343 169.322 123.321 167.539H123.331ZM622.107 161.829C623.307 161.235 625.797 160.164 627.58 159.569C631.388 158.142 630.793 156.714 625.915 155.762C622.583 155.048 622.465 154.929 624.368 153.502C625.568 152.669 626.153 151.48 625.678 150.766C625.203 150.052 626.392 149.1 628.295 148.386C630.198 147.672 631.627 146.721 631.627 146.126C631.627 143.509 629.247 139.106 627.937 139.226C624.963 139.583 623.535 139.106 624.011 137.68C624.249 136.48 624.011 135.3 623.535 134.23C622.107 131.375 625.439 125.545 628.532 125.426C629.008 125.426 629.246 126.021 629.127 126.854C629.008 127.687 630.079 128.4 631.507 128.638L634.124 128.995L629.127 134.468L631.983 135.538C635.076 136.738 638.051 140.535 641.025 147.198C642.453 150.41 643.405 151.243 645.071 150.768C648.521 149.816 648.878 152.195 645.666 154.338C643.524 155.765 643.048 156.598 644 157.55C644.952 158.502 643.048 159.096 636.504 160.167L623.774 162.189C620.799 162.665 620.442 162.665 622.108 161.832L622.107 161.829ZM603.07 155.524C602.713 154.574 603.07 152.194 604.022 150.409C605.092 148.386 605.332 146.839 604.617 146.483C602.713 145.283 603.417 143.747 606.282 143.033C607.829 142.676 609.257 141.833 610.328 140.773C611.875 138.988 618.776 138.631 619.846 140.297C620.203 140.892 619.728 142.557 618.776 143.985C617.706 145.65 617.11 147.555 616.991 149.457C616.991 151.955 616.277 152.787 612.231 154.097L605.568 156.595C604.735 157.071 603.664 156.833 603.188 156C603.068 155.88 603.068 155.643 603.068 155.524H603.07ZM623.892 144.224C623.892 143.986 624.368 143.391 625.092 143.024C625.816 142.657 626.292 142.904 626.292 143.5C626.292 144.096 625.816 144.7 625.092 144.7C624.378 144.82 623.892 144.58 623.892 144.224ZM121.189 138.87C120.119 137.562 120.119 136.848 121.546 135.777C123.806 133.874 124.996 135.182 123.688 138.157C122.736 140.179 122.378 140.179 121.188 138.87H121.189ZM119.405 130.305C119.048 129.71 119.525 128.52 120.355 127.807C122.259 126.26 122.615 127.45 121.069 129.947C120.474 130.78 119.879 131.017 119.404 130.304L119.405 130.305ZM46.23 129.591C46.23 128.758 49.68 127.451 54.56 126.261C56.345 125.785 57.534 125.904 57.178 126.499C56.108 127.451 54.798 127.927 53.371 128.165C51.586 128.521 49.921 128.997 48.255 129.592C47.185 129.949 46.232 129.949 46.232 129.592L46.23 129.591ZM719.316 116.861C717.174 116.028 717.531 114.721 719.911 114.481C721.111 114.361 722.053 115.075 722.053 115.908C722.053 117.574 721.577 117.812 719.316 116.86V116.861ZM470.404 111.031C463.264 107.105 459.814 101.157 461.837 96.1609C462.789 93.7809 462.907 92.3539 461.957 90.5709C460.054 87.0009 462.552 82.9569 468.739 79.1509C471.714 77.3669 474.689 74.8679 475.283 73.5609C477.068 70.2309 475.521 64.4009 472.309 62.9729C470.762 62.2589 469.809 61.0699 470.167 60.2369C471 58.0969 467.193 50.9569 463.504 47.5069C460.767 44.8899 459.578 44.6519 450.059 44.6519C437.209 44.5319 434.709 43.8189 434.949 40.1319C435.069 38.5859 435.425 37.3959 435.663 37.3959C435.901 37.3959 440.541 36.9199 445.896 36.1959C452.916 35.2439 459.698 33.3409 466.123 30.4959C477.783 25.4989 478.616 25.4989 506.458 26.0939C515.738 26.0939 524.9 25.3799 533.824 23.7139C543.462 22.0489 550.6 21.4539 554.408 21.9299C557.978 22.2869 561.548 22.0499 564.998 21.3349C571.185 19.6699 587.248 21.6919 593.554 24.9049C597.244 26.8079 599.264 27.0449 605.572 26.4509C612.354 25.7369 612.829 25.8559 610.807 27.4029C609.607 28.3549 605.691 29.4249 602.359 29.9009C594.982 30.8529 588.081 36.2059 589.866 39.5369C590.58 40.9649 590.104 42.2729 587.606 44.6529C585.94 46.0799 584.632 47.8649 583.68 49.7679C582.847 52.2659 572.852 56.9059 567.974 57.0249C562.501 57.2629 561.906 58.3349 566.189 60.7129C568.449 62.0229 570.592 63.3299 572.733 64.8769L575.589 67.0169L572.971 67.9689C570.949 68.6829 569.401 68.2069 566.071 65.9469C561.551 62.8539 556.791 62.8539 559.289 65.9469C560.359 67.1469 560.003 67.6129 558.219 68.0869C554.055 69.1569 557.029 71.4169 561.669 70.5849C564.643 70.1089 566.309 70.3469 567.261 71.4179C568.331 72.7279 566.904 73.3209 558.694 75.1059C553.34 76.1759 547.986 77.0089 542.514 77.2459C536.089 77.3659 531.567 79.1489 524.784 84.2659C522.524 85.9319 517.884 87.5959 512.41 88.6679C500.988 90.8079 497.06 93.4259 490.28 103.182C484.688 111.034 481.475 114.008 477.906 114.008C476.836 114.128 473.504 112.698 470.41 111.034L470.404 111.031ZM390.091 103.417C387.473 101.751 385.331 99.7289 383.428 97.2309C381.048 93.5429 378.906 93.0669 372.481 94.8509C370.339 95.4459 367.841 95.5649 366.889 94.9709C363.557 93.0679 369.626 91.2829 376.289 92.1159C381.405 92.7109 382.595 92.5919 383.189 91.0459C384.379 87.9529 389.852 85.6929 392.945 87.1199C394.849 87.9529 396.991 87.9529 398.895 86.9999C402.108 85.7999 402.227 85.6899 400.095 84.1449C399.143 83.4309 398.191 82.8349 397.002 82.4799C396.526 82.4799 394.742 80.2199 393.194 77.4839C391.409 74.6289 389.149 72.0119 386.412 70.1079C382.842 67.8479 382.367 67.8479 379.154 69.5129C376.299 70.9409 374.752 71.0599 370.349 70.1079C367.375 69.3939 364.162 69.2749 361.069 69.6319C357.379 70.3459 350.717 68.5619 350.717 66.8959C350.717 63.8029 360.355 57.0219 366.067 56.0699L370.587 55.2369L367.375 58.6869C362.855 63.4449 364.519 65.5869 369.398 61.4229C371.658 59.5199 374.395 58.0929 377.25 57.3779C380.7 56.7829 382.248 57.1399 386.65 59.9949C392.48 63.8019 392.956 63.9209 396.288 62.2549C398.31 61.1849 399.024 61.4219 401.166 64.1579C403.426 66.4179 406.163 68.2029 409.256 69.1549C414.491 70.8199 414.729 71.1769 414.729 74.7449C414.491 77.0049 415.562 79.1469 417.347 80.4449C424.962 85.9169 424.724 85.6799 423.177 88.2969C420.917 91.8669 419.131 92.2229 414.134 89.6069C410.684 87.8229 409.137 87.5849 407.352 88.5369C405.21 89.7369 405.21 89.9649 406.876 93.2969C408.304 96.0329 408.423 97.4609 407.471 99.4829C406.271 102.1 406.043 102.1 402.831 100.435C396.525 97.2229 392.231 99.3649 398.191 102.815C399.976 103.885 401.285 105.195 400.928 105.67C400.095 107.098 394.503 106.265 390.101 103.41L390.091 103.417ZM347.376 98.8969C345.116 97.6969 343.449 97.5869 340.236 98.5399C334.882 99.9679 333.096 98.8969 335.714 95.9229C339.164 92.1159 341.544 91.4029 345.709 92.7109C350.349 94.2579 352.491 96.5179 351.182 98.7779C350.468 100.206 349.872 100.206 347.375 98.8979L347.376 98.8969ZM572.372 98.3019C570.469 97.1019 568.089 96.2799 567.137 96.6369C565.709 97.1129 565.352 96.7569 565.827 94.9709C566.541 92.3539 576.427 88.6659 579.867 89.7369C581.067 90.0939 584.032 89.7369 586.53 89.0229C590.457 87.8229 591.528 87.9529 594.145 89.6179L597.239 91.6399L594.264 93.8999C592.004 95.6839 587.72 97.2299 577.369 100.086C576.536 100.324 574.156 99.6099 572.371 98.3019H572.372ZM264.802 77.2449C261.827 76.5309 259.092 75.4599 256.354 74.2709L250.762 71.7729L258.615 71.1779C262.898 70.8209 266.467 70.1079 266.467 69.5119C266.467 68.9159 263.493 68.0839 259.685 67.7279C254.807 67.2519 253.855 67.0139 256.235 66.5279C260.399 65.9329 260.637 64.1479 256.83 63.0779C254.093 62.3639 254.093 62.3639 258.03 60.6979C264.455 57.8429 271.713 57.2479 278.376 59.1509C283.611 60.6979 284.444 60.6979 286.942 59.0309C288.727 57.8309 289.798 57.7209 289.798 58.4359C289.918 59.2689 290.036 60.3399 290.036 61.0529C290.274 63.5509 292.536 63.1929 295.271 60.3389C297.771 57.7219 302.053 56.4129 302.053 58.3169C301.577 59.8629 300.745 61.4099 299.793 62.8369L297.533 66.5249L304.91 70.3319L298.96 73.0679C293.487 75.5659 292.416 75.6849 287.537 74.4959C282.658 73.3069 281.469 73.5439 276.71 75.5659C271.594 77.9459 270.523 78.0639 264.812 77.2319L264.802 77.2449ZM310.252 76.4119C309.182 75.2119 309.657 74.6279 312.275 73.4379C314.179 72.7239 316.201 72.4859 318.105 72.8429C320.605 73.6759 320.485 73.7949 316.795 75.6979C312.155 78.3149 311.917 78.4339 310.251 76.4119H310.252ZM830.564 68.0849C824.734 65.8249 824.854 65.9449 826.638 63.9209C827.471 62.9689 827.59 62.1359 827.114 62.1359C826.638 62.1359 827.114 61.3029 828.422 60.3519C829.73 59.4009 830.682 58.3299 830.682 57.8539C830.682 56.1879 835.322 51.7869 838.654 50.2399C842.111 49.0492 845.713 48.3291 849.362 48.0989C853.408 47.7419 858.882 47.1469 861.38 46.7889C863.878 46.4309 866.377 46.5509 866.734 47.2649C867.567 48.5749 866.02 49.0499 857.214 50.7149C848.408 52.3799 843.294 54.6409 839.844 58.6849C836.154 62.9679 836.036 65.7049 839.487 68.0829L841.987 69.8669H838.655C835.799 69.6289 833.063 69.0339 830.565 68.0829L830.564 68.0849ZM237.434 64.7549C235.649 62.9709 236.006 62.4949 244.811 57.7349C255.043 52.1449 260.278 51.3109 269.441 54.1649L274.557 55.7119L267.775 57.0219C262.183 58.0919 250.405 62.0189 241.123 65.9439C239.695 66.1819 238.268 65.7059 237.435 64.7439L237.434 64.7549ZM319.174 63.2079C319.174 62.6129 317.746 61.3049 316.08 60.3529L312.987 58.5679L317.151 59.1629C320.126 59.6389 321.553 59.4009 322.267 58.2109C323.1 56.9009 330.239 54.1659 333.095 54.0469C333.571 54.0469 333.215 55.5939 332.262 57.4969C330.002 62.0169 319.174 66.6569 319.174 63.1969V63.2079ZM336.784 59.9959C335.119 57.3789 346.304 53.3339 350.944 54.7619C354.394 55.8319 352.144 57.7359 346.066 58.6879C343.806 59.0449 341.546 59.5209 339.284 60.2349C338.57 60.8299 337.499 60.5919 336.784 59.9969V59.9959ZM372.954 51.6689L359.034 50.3589C357.964 49.4069 360.581 46.3139 363.317 45.2439C366.053 44.1739 367.244 44.2919 370.932 46.1959C374.62 48.0999 376.762 48.3359 383.426 47.8619C387.233 47.5049 391.04 47.6239 394.729 48.0999L397.941 48.6949L394.015 50.8349C392.23 51.9049 390.327 52.5009 388.305 52.8569C387.353 52.8569 380.571 52.2619 372.955 51.6569L372.954 51.6689ZM698.967 47.0289C693.375 44.1739 692.899 42.8649 697.182 42.8649C698.848 42.8649 700.514 42.5079 701.942 41.6649C703.369 40.5949 703.37 40.4649 701.822 41.0699C701.267 41.1883 700.692 41.1857 700.138 41.0625C699.583 40.9393 699.062 40.6984 698.609 40.3559C697.657 39.2859 697.062 39.4039 696.469 40.4759C695.876 41.5479 694.684 41.5459 692.304 40.8329C686.354 39.0489 685.046 38.2159 685.046 36.4309C685.046 34.8849 686.593 34.7649 695.756 35.4789C702.776 35.9549 706.464 35.8359 706.464 35.1219C706.464 32.8619 709.558 34.0519 710.39 36.5499L711.223 39.0479L711.699 36.5499C711.937 35.1219 712.899 34.0519 713.841 34.0519C714.674 34.1719 715.388 33.5759 715.507 32.7419V32.6219C715.507 31.5519 715.864 31.5519 716.935 32.6219C717.767 33.4549 721.455 33.9319 725.977 33.9319C734.067 33.9319 735.972 35.3599 730.617 37.3819C727.761 38.4519 722.883 38.0959 717.527 36.5489C716.457 36.1919 715.505 36.4289 715.505 36.9059C715.505 37.9759 721.93 41.7829 723.595 41.7829C724.665 42.0209 725.617 42.6159 726.331 43.3299C727.759 44.6399 727.641 44.9959 726.211 45.5899C725.259 45.9469 724.545 45.7099 724.545 44.9949C724.545 44.2799 723.118 44.0429 720.5 44.5189C717.644 45.1139 716.693 44.8759 717.168 44.0429C717.525 43.0909 717.288 41.9029 716.574 41.1879C715.146 39.4029 710.981 38.9279 710.981 40.4739C710.981 40.9499 709.316 43.2099 707.293 45.4699L703.603 49.5149L698.963 47.0169L698.967 47.0289ZM398.535 44.5309C396.632 43.3309 393.775 43.1029 389.493 43.4609C385.447 43.8179 382.353 43.4609 380.688 42.5089C378.308 41.1989 378.903 41.0809 386.042 41.0809C394.847 41.2009 398.772 39.2969 394.014 37.2739C391.754 36.3219 392.11 36.2039 395.918 36.7979C401.034 37.5119 402.938 36.0839 400.201 33.8239C397.227 31.3259 400.439 30.6119 411.029 31.3259C417.573 31.8019 421.619 31.5639 423.284 30.6119C426.496 28.9459 425.188 26.6859 421.618 27.6379C419.118 28.2329 401.51 27.2809 402.224 26.4379C402.819 25.9619 427.686 23.7019 443.987 22.6309L464.927 20.9649L470.4 20.2509L461.238 24.6529C452.672 28.8169 438.751 32.7429 433.038 32.7429C431.611 32.7429 427.684 34.2899 424.115 36.1929C420.546 38.0959 417.095 39.6429 416.143 39.6429C415.191 39.6429 411.621 41.1899 407.943 42.9729L401.28 46.3029C401.28 46.3029 400.08 45.3509 398.543 44.5189L398.535 44.5309ZM376.405 34.1809C370.931 32.9809 370.693 32.5159 374.739 30.3739C380.569 27.2809 386.161 26.5669 388.659 28.3519C390.682 29.7789 390.563 30.0169 386.636 32.3969C382.709 34.7769 380.926 35.1329 376.404 34.1809H376.405Z" fill="#EAEAEA" stroke="#1A2843"/>
  <!-- Cosmos DB -->
  <g transform="translate(70, 160) scale(3,3)">
    <path d="M19.8 9.8A7.98 7.98 0 1 1 10.3 4a7.95 7.95 0 0 1 9.5 5.8z" class="msportalfx-svg-c15" fill="#59b4d9"/><path d="M11 14.9a2.112 2.112 0 0 0-2.1-2.1h-.4A2.015 2.015 0 0 0 7 10.3H4.4a7.8 7.8 0 0 0 1.9 6.8h2.6a2.2 2.2 0 0 0 2.1-2.2zm2.6-8.7v.4h-.9a2.2 2.2 0 0 0 0 4.4H20a7.624 7.624 0 0 0-4.1-6.2H15a1.367 1.367 0 0 0-1.4 1.4zm6.4 6.3h-4.3a1.793 1.793 0 0 0-1.8 1.8 2.92 2.92 0 0 0 .2.9 1.812 1.812 0 0 0-1.2 2.2 1.631 1.631 0 0 0 1.7 1.2h1.2a7.947 7.947 0 0 0 4.2-6.1z" opacity=".5" class="msportalfx-svg-c01" fill="#fff"/><path d="M3.2 6.4a.215.215 0 0 1-.2-.2A2.8 2.8 0 0 0 .2 3.4c-.1.1-.2-.1-.2-.2A.215.215 0 0 1 .2 3 2.8 2.8 0 0 0 3 .2c0-.2.1-.2.2-.2s.3 0 .3.2A2.8 2.8 0 0 0 6.3 3a.2.2 0 0 1 0 .4 2.8 2.8 0 0 0-2.8 2.8c0 .1-.1.2-.3.2z" class="msportalfx-svg-c13" fill="#b8d432"/><path d="M20.3 22c-.1 0-.1 0-.1-.1a1.666 1.666 0 0 0-1.7-1.6c-.1 0-.1 0-.1-.1s0-.1.1-.1a1.735 1.735 0 0 0 1.7-1.6c0-.1 0-.1.1-.1s.1 0 .1.1a1.666 1.666 0 0 0 1.7 1.6c.1 0 .1 0 .1.1s0 .1-.1.1a1.735 1.735 0 0 0-1.7 1.6c.1.1 0 .1-.1.1z" class="msportalfx-svg-c15" fill="#59b4d9"/><path d="M23.7 4.6c-.8-1.2-2.6-1.5-5.5-.8a19.752 19.752 0 0 0-2.6.8 7.837 7.837 0 0 1 1.5 1c.5-.1 1-.3 1.4-.4a9.079 9.079 0 0 1 2.3-.3c.9 0 1.4.2 1.6.5.3.5 0 1.7-1.6 3.6a9.428 9.428 0 0 1-1 1 34.078 34.078 0 0 1-6 4.6A27.9 27.9 0 0 1 7 17.7c-2.9.9-4.9.9-5.3.2s.4-2.5 2.6-4.6a11.019 11.019 0 0 1-.2-1.8C.7 14.6-.4 17.3.4 18.7a3.51 3.51 0 0 0 3 1.2 15.047 15.047 0 0 0 5.1-1.1 33.625 33.625 0 0 0 6-3 41.869 41.869 0 0 0 5.4-4 17.044 17.044 0 0 0 1.9-1.9c2-2.3 2.6-4.1 1.9-5.3z" fill="#000"/>
  </g>
  <g transform="translate(625, 130) scale(3,3)">
    <path d="M19.8 9.8A7.98 7.98 0 1 1 10.3 4a7.95 7.95 0 0 1 9.5 5.8z" class="msportalfx-svg-c15" fill="#59b4d9"/><path d="M11 14.9a2.112 2.112 0 0 0-2.1-2.1h-.4A2.015 2.015 0 0 0 7 10.3H4.4a7.8 7.8 0 0 0 1.9 6.8h2.6a2.2 2.2 0 0 0 2.1-2.2zm2.6-8.7v.4h-.9a2.2 2.2 0 0 0 0 4.4H20a7.624 7.624 0 0 0-4.1-6.2H15a1.367 1.367 0 0 0-1.4 1.4zm6.4 6.3h-4.3a1.793 1.793 0 0 0-1.8 1.8 2.92 2.92 0 0 0 .2.9 1.812 1.812 0 0 0-1.2 2.2 1.631 1.631 0 0 0 1.7 1.2h1.2a7.947 7.947 0 0 0 4.2-6.1z" opacity=".5" class="msportalfx-svg-c01" fill="#fff"/><path d="M3.2 6.4a.215.215 0 0 1-.2-.2A2.8 2.8 0 0 0 .2 3.4c-.1.1-.2-.1-.2-.2A.215.215 0 0 1 .2 3 2.8 2.8 0 0 0 3 .2c0-.2.1-.2.2-.2s.3 0 .3.2A2.8 2.8 0 0 0 6.3 3a.2.2 0 0 1 0 .4 2.8 2.8 0 0 0-2.8 2.8c0 .1-.1.2-.3.2z" class="msportalfx-svg-c13" fill="#b8d432"/><path d="M20.3 22c-.1 0-.1 0-.1-.1a1.666 1.666 0 0 0-1.7-1.6c-.1 0-.1 0-.1-.1s0-.1.1-.1a1.735 1.735 0 0 0 1.7-1.6c0-.1 0-.1.1-.1s.1 0 .1.1a1.666 1.666 0 0 0 1.7 1.6c.1 0 .1 0 .1.1s0 .1-.1.1a1.735 1.735 0 0 0-1.7 1.6c.1.1 0 .1-.1.1z" class="msportalfx-svg-c15" fill="#59b4d9"/><path d="M23.7 4.6c-.8-1.2-2.6-1.5-5.5-.8a19.752 19.752 0 0 0-2.6.8 7.837 7.837 0 0 1 1.5 1c.5-.1 1-.3 1.4-.4a9.079 9.079 0 0 1 2.3-.3c.9 0 1.4.2 1.6.5.3.5 0 1.7-1.6 3.6a9.428 9.428 0 0 1-1 1 34.078 34.078 0 0 1-6 4.6A27.9 27.9 0 0 1 7 17.7c-2.9.9-4.9.9-5.3.2s.4-2.5 2.6-4.6a11.019 11.019 0 0 1-.2-1.8C.7 14.6-.4 17.3.4 18.7a3.51 3.51 0 0 0 3 1.2 15.047 15.047 0 0 0 5.1-1.1 33.625 33.625 0 0 0 6-3 41.869 41.869 0 0 0 5.4-4 17.044 17.044 0 0 0 1.9-1.9c2-2.3 2.6-4.1 1.9-5.3z" fill="#000"/>
  </g>
  <g transform="translate(400, 480) scale(3,3)">
    <path d="M19.8 9.8A7.98 7.98 0 1 1 10.3 4a7.95 7.95 0 0 1 9.5 5.8z" class="msportalfx-svg-c15" fill="#59b4d9"/><path d="M11 14.9a2.112 2.112 0 0 0-2.1-2.1h-.4A2.015 2.015 0 0 0 7 10.3H4.4a7.8 7.8 0 0 0 1.9 6.8h2.6a2.2 2.2 0 0 0 2.1-2.2zm2.6-8.7v.4h-.9a2.2 2.2 0 0 0 0 4.4H20a7.624 7.624 0 0 0-4.1-6.2H15a1.367 1.367 0 0 0-1.4 1.4zm6.4 6.3h-4.3a1.793 1.793 0 0 0-1.8 1.8 2.92 2.92 0 0 0 .2.9 1.812 1.812 0 0 0-1.2 2.2 1.631 1.631 0 0 0 1.7 1.2h1.2a7.947 7.947 0 0 0 4.2-6.1z" opacity=".5" class="msportalfx-svg-c01" fill="#fff"/><path d="M3.2 6.4a.215.215 0 0 1-.2-.2A2.8 2.8 0 0 0 .2 3.4c-.1.1-.2-.1-.2-.2A.215.215 0 0 1 .2 3 2.8 2.8 0 0 0 3 .2c0-.2.1-.2.2-.2s.3 0 .3.2A2.8 2.8 0 0 0 6.3 3a.2.2 0 0 1 0 .4 2.8 2.8 0 0 0-2.8 2.8c0 .1-.1.2-.3.2z" class="msportalfx-svg-c13" fill="#b8d432"/><path d="M20.3 22c-.1 0-.1 0-.1-.1a1.666 1.666 0 0 0-1.7-1.6c-.1 0-.1 0-.1-.1s0-.1.1-.1a1.735 1.735 0 0 0 1.7-1.6c0-.1 0-.1.1-.1s.1 0 .1.1a1.666 1.666 0 0 0 1.7 1.6c.1 0 .1 0 .1.1s0 .1-.1.1a1.735 1.735 0 0 0-1.7 1.6c.1.1 0 .1-.1.1z" class="msportalfx-svg-c15" fill="#59b4d9"/><path d="M23.7 4.6c-.8-1.2-2.6-1.5-5.5-.8a19.752 19.752 0 0 0-2.6.8 7.837 7.837 0 0 1 1.5 1c.5-.1 1-.3 1.4-.4a9.079 9.079 0 0 1 2.3-.3c.9 0 1.4.2 1.6.5.3.5 0 1.7-1.6 3.6a9.428 9.428 0 0 1-1 1 34.078 34.078 0 0 1-6 4.6A27.9 27.9 0 0 1 7 17.7c-2.9.9-4.9.9-5.3.2s.4-2.5 2.6-4.6a11.019 11.019 0 0 1-.2-1.8C.7 14.6-.4 17.3.4 18.7a3.51 3.51 0 0 0 3 1.2 15.047 15.047 0 0 0 5.1-1.1 33.625 33.625 0 0 0 6-3 41.869 41.869 0 0 0 5.4-4 17.044 17.044 0 0 0 1.9-1.9c2-2.3 2.6-4.1 1.9-5.3z" fill="#000"/>
  </g>
  <g transform="translate(1085, 370) scale(3,3)">
    <path d="M19.8 9.8A7.98 7.98 0 1 1 10.3 4a7.95 7.95 0 0 1 9.5 5.8z" class="msportalfx-svg-c15" fill="#59b4d9"/><path d="M11 14.9a2.112 2.112 0 0 0-2.1-2.1h-.4A2.015 2.015 0 0 0 7 10.3H4.4a7.8 7.8 0 0 0 1.9 6.8h2.6a2.2 2.2 0 0 0 2.1-2.2zm2.6-8.7v.4h-.9a2.2 2.2 0 0 0 0 4.4H20a7.624 7.624 0 0 0-4.1-6.2H15a1.367 1.367 0 0 0-1.4 1.4zm6.4 6.3h-4.3a1.793 1.793 0 0 0-1.8 1.8 2.92 2.92 0 0 0 .2.9 1.812 1.812 0 0 0-1.2 2.2 1.631 1.631 0 0 0 1.7 1.2h1.2a7.947 7.947 0 0 0 4.2-6.1z" opacity=".5" class="msportalfx-svg-c01" fill="#fff"/><path d="M3.2 6.4a.215.215 0 0 1-.2-.2A2.8 2.8 0 0 0 .2 3.4c-.1.1-.2-.1-.2-.2A.215.215 0 0 1 .2 3 2.8 2.8 0 0 0 3 .2c0-.2.1-.2.2-.2s.3 0 .3.2A2.8 2.8 0 0 0 6.3 3a.2.2 0 0 1 0 .4 2.8 2.8 0 0 0-2.8 2.8c0 .1-.1.2-.3.2z" class="msportalfx-svg-c13" fill="#b8d432"/><path d="M20.3 22c-.1 0-.1 0-.1-.1a1.666 1.666 0 0 0-1.7-1.6c-.1 0-.1 0-.1-.1s0-.1.1-.1a1.735 1.735 0 0 0 1.7-1.6c0-.1 0-.1.1-.1s.1 0 .1.1a1.666 1.666 0 0 0 1.7 1.6c.1 0 .1 0 .1.1s0 .1-.1.1a1.735 1.735 0 0 0-1.7 1.6c.1.1 0 .1-.1.1z" class="msportalfx-svg-c15" fill="#59b4d9"/><path d="M23.7 4.6c-.8-1.2-2.6-1.5-5.5-.8a19.752 19.752 0 0 0-2.6.8 7.837 7.837 0 0 1 1.5 1c.5-.1 1-.3 1.4-.4a9.079 9.079 0 0 1 2.3-.3c.9 0 1.4.2 1.6.5.3.5 0 1.7-1.6 3.6a9.428 9.428 0 0 1-1 1 34.078 34.078 0 0 1-6 4.6A27.9 27.9 0 0 1 7 17.7c-2.9.9-4.9.9-5.3.2s.4-2.5 2.6-4.6a11.019 11.019 0 0 1-.2-1.8C.7 14.6-.4 17.3.4 18.7a3.51 3.51 0 0 0 3 1.2 15.047 15.047 0 0 0 5.1-1.1 33.625 33.625 0 0 0 6-3 41.869 41.869 0 0 0 5.4-4 17.044 17.044 0 0 0 1.9-1.9c2-2.3 2.6-4.1 1.9-5.3z" fill="#000"/>
  </g>
  <g transform="translate(1275, 550) scale(3,3)">
    <path d="M19.8 9.8A7.98 7.98 0 1 1 10.3 4a7.95 7.95 0 0 1 9.5 5.8z" class="msportalfx-svg-c15" fill="#59b4d9"/><path d="M11 14.9a2.112 2.112 0 0 0-2.1-2.1h-.4A2.015 2.015 0 0 0 7 10.3H4.4a7.8 7.8 0 0 0 1.9 6.8h2.6a2.2 2.2 0 0 0 2.1-2.2zm2.6-8.7v.4h-.9a2.2 2.2 0 0 0 0 4.4H20a7.624 7.624 0 0 0-4.1-6.2H15a1.367 1.367 0 0 0-1.4 1.4zm6.4 6.3h-4.3a1.793 1.793 0 0 0-1.8 1.8 2.92 2.92 0 0 0 .2.9 1.812 1.812 0 0 0-1.2 2.2 1.631 1.631 0 0 0 1.7 1.2h1.2a7.947 7.947 0 0 0 4.2-6.1z" opacity=".5" class="msportalfx-svg-c01" fill="#fff"/><path d="M3.2 6.4a.215.215 0 0 1-.2-.2A2.8 2.8 0 0 0 .2 3.4c-.1.1-.2-.1-.2-.2A.215.215 0 0 1 .2 3 2.8 2.8 0 0 0 3 .2c0-.2.1-.2.2-.2s.3 0 .3.2A2.8 2.8 0 0 0 6.3 3a.2.2 0 0 1 0 .4 2.8 2.8 0 0 0-2.8 2.8c0 .1-.1.2-.3.2z" class="msportalfx-svg-c13" fill="#b8d432"/><path d="M20.3 22c-.1 0-.1 0-.1-.1a1.666 1.666 0 0 0-1.7-1.6c-.1 0-.1 0-.1-.1s0-.1.1-.1a1.735 1.735 0 0 0 1.7-1.6c0-.1 0-.1.1-.1s.1 0 .1.1a1.666 1.666 0 0 0 1.7 1.6c.1 0 .1 0 .1.1s0 .1-.1.1a1.735 1.735 0 0 0-1.7 1.6c.1.1 0 .1-.1.1z" class="msportalfx-svg-c15" fill="#59b4d9"/><path d="M23.7 4.6c-.8-1.2-2.6-1.5-5.5-.8a19.752 19.752 0 0 0-2.6.8 7.837 7.837 0 0 1 1.5 1c.5-.1 1-.3 1.4-.4a9.079 9.079 0 0 1 2.3-.3c.9 0 1.4.2 1.6.5.3.5 0 1.7-1.6 3.6a9.428 9.428 0 0 1-1 1 34.078 34.078 0 0 1-6 4.6A27.9 27.9 0 0 1 7 17.7c-2.9.9-4.9.9-5.3.2s.4-2.5 2.6-4.6a11.019 11.019 0 0 1-.2-1.8C.7 14.6-.4 17.3.4 18.7a3.51 3.51 0 0 0 3 1.2 15.047 15.047 0 0 0 5.1-1.1 33.625 33.625 0 0 0 6-3 41.869 41.869 0 0 0 5.4-4 17.044 17.044 0 0 0 1.9-1.9c2-2.3 2.6-4.1 1.9-5.3z" fill="#000"/>
  </g>
</svg>
