<?xml version="1.0" encoding="utf-8"?>
<!-- Generator: Adobe Illustrator 27.3.1, SVG Export Plug-In . SVG Version: 6.00 Build 0)  -->
<svg version="1.1" id="Layer_1" xmlns="http://www.w3.org/2000/svg" xmlns:xlink="http://www.w3.org/1999/xlink" x="0px" y="0px"
	 viewBox="0 0 300 239" style="enable-background:new 0 0 300 239;" xml:space="preserve">
<style type="text/css">
	.st0{fill:#B5009B;}
	.st1{fill:#75006A;}
	.st2{fill:#B8FAFF;}
	.st3{fill:#FFA9F3;}
	.st4{fill:#FFF3FF;}
	.st5{fill:#00C9E5;}
	.st6{fill-rule:evenodd;clip-rule:evenodd;fill:#F26E7E;}
	.st7{fill-rule:evenodd;clip-rule:evenodd;fill:#8A3391;}
	.st8{fill-rule:evenodd;clip-rule:evenodd;fill:#F7BF2A;}
	.st9{fill:#EF00C3;}
	.st10{fill:#FFFFFF;}
	.st11{fill:#FEE6FF;}
	.st12{fill:#805AC3;}
	.st13{fill:#E5E7F9;}
	.st14{opacity:0.81;fill:#FFFFFF;}
	.st15{fill:#FFFF9F;}
	.st16{fill:#F6D047;}
	.st17{fill:#F9DF4B;}
	.st18{fill:#F4C243;}
	.st19{fill:#B32FC5;}
	.st20{fill:#DA4EEA;}
	.st21{fill:#83189F;}
	.st22{fill:#EF9737;}
	.st23{fill:#000080;}
	.st24{fill:#415FC5;}
	.st25{fill:none;stroke:#4260C0;stroke-width:0.6414;stroke-miterlimit:10;}
	.st26{fill:#6EE8F4;}
	.st27{fill:#55BAD7;}
	.st28{fill:#62D4E8;}
	.st29{fill:#6BDBEA;}
	.st30{fill:#61C5D6;}
	.st31{fill:#BA279E;}
	.st32{fill:#DA2FBC;}
	.st33{fill:#54B4C3;}
	.st34{fill:#FFFF69;}
	.st35{fill:#F3B940;}
	.st36{fill:#715570;}
	.st37{fill:#322233;}
	.st38{fill:#FCF05D;}
	.st39{fill:#F7D347;}
	.st40{fill:none;stroke:#F3B940;stroke-width:0.3207;stroke-miterlimit:10;}
	.st41{fill:#901C89;}
	.st42{clip-path:url(#SVGID_00000044142255329520530760000017637606843781361290_);}
	.st43{fill:#FCF55E;}
	.st44{fill:#781575;}
	.st45{fill:#F4BE41;}
	.st46{fill:#F09D38;}
	.st47{fill:#9DEADE;}
	.st48{fill:#7FCBC8;}
	.st49{fill:#C5FCE6;}
	.st50{fill:#568698;}
	.st51{fill:#93BFC0;}
	.st52{fill:#C393CB;}
	.st53{fill:#6DD4B8;}
	.st54{fill:#5BAA9B;}
	.st55{fill:#FFFFFF;stroke:#FFFFFF;stroke-width:0.4619;stroke-miterlimit:10;}
	.st56{fill:#F4BE41;stroke:#F4BE41;stroke-width:0.4276;stroke-miterlimit:10;}
	.st57{fill:#BAFCFD;}
	.st58{fill:#B0FBFD;}
	.st59{fill:#F7D670;}
	.st60{fill:#EF96AF;}
	.st61{fill:#A455B7;}
	.st62{clip-path:url(#SVGID_00000148635320584499422710000008085167926307093900_);}
	.st63{fill:none;stroke:#4260C0;stroke-width:0.7438;stroke-miterlimit:10;}
	.st64{fill:none;stroke:#F3B940;stroke-width:0.3719;stroke-miterlimit:10;}
	.st65{clip-path:url(#SVGID_00000011736311558828016000000013699695212299972496_);}
	.st66{fill:#FFFFFF;stroke:#FFFFFF;stroke-width:0.5356;stroke-miterlimit:10;}
	.st67{fill:#F4BE41;stroke:#F4BE41;stroke-width:0.4959;stroke-miterlimit:10;}
</style>
<g>
	<g>
		<g>
			<polygon class="st0" points="5.33,180.38 77.45,180.38 77.45,141.49 5.33,141.49 29.94,160.94 			"/>
			<polygon class="st0" points="294.67,179.76 222.55,179.76 222.55,140.88 294.67,140.88 270.06,160.32 			"/>
		</g>
		<polygon class="st1" points="259.46,169.89 222.27,179.76 222.27,169.89 		"/>
		<polygon class="st1" points="40.54,169.89 77.18,180.38 77.18,169.89 		"/>
	</g>
	<g>
		<g>
			<g>
				<g>
					<polygon class="st2" points="54,177.42 54,66.57 150,11.15 246,66.57 246,177.42 150,232.85 					"/>
				</g>
				<g>
					<path class="st3" d="M150,14.61l93,53.69v107.39l-93,53.69l-93-53.69V68.31L150,14.61 M150,7.68L51,64.84v114.32l99,57.16
						l99-57.16V64.84L150,7.68L150,7.68z"/>
				</g>
			</g>
			<g>
				<defs>
					<polygon id="SVGID_1_" points="249,179.16 249,64.84 150,7.68 51,64.84 51,179.16 150,236.32 					"/>
				</defs>
				<clipPath id="SVGID_00000134964691363050963630000000607814384635695777_">
					<use xlink:href="#SVGID_1_"  style="overflow:visible;"/>
				</clipPath>
			</g>
			<g>
				<g>
					<polygon class="st4" points="54,177.42 54,138 246,138 246,177.42 150,232.85 					"/>
				</g>
			</g>
			<g>
				<path class="st5" d="M150,15.77l92,53.12v106.23l-92,53.12l-92-53.12V68.88L150,15.77 M150,7.68L51,64.84v114.32l99,57.16
					l99-57.16V64.84L150,7.68L150,7.68z"/>
			</g>
		</g>
	</g>
	<g>
		<path class="st6" d="M141.52,190.58c1.01-0.58,1.01-2.48,0-4.23c-1.01-1.75-2.65-2.69-3.66-2.11c-1.01,0.58-1.01,2.48,0,4.23
			C138.87,190.22,140.51,191.16,141.52,190.58z M141.53,194.32c1.01,1.75,1.01,3.64,0,4.23c-1.01,0.58-2.65-0.36-3.66-2.11
			c-1.01-1.75-1.01-3.64,0-4.23C138.88,191.63,140.52,192.57,141.53,194.32z M148.43,198.31c1.01,1.75,1.01,3.64,0,4.23
			c-1.01,0.58-2.65-0.36-3.66-2.11c-1.01-1.75-1.01-3.64,0-4.23C145.78,195.62,147.42,196.56,148.43,198.31z M148.43,190.34
			c1.01,1.75,1.01,3.64,0,4.23c-1.01,0.58-2.65-0.36-3.66-2.11c-1.01-1.75-1.01-3.64,0-4.23
			C145.78,187.64,147.42,188.59,148.43,190.34z"/>
		<path class="st7" d="M162.23,188.47c1.01-1.75,1.01-3.64,0-4.23c-1.01-0.58-2.65,0.36-3.66,2.11c-1.01,1.75-1.01,3.64,0,4.23
			C159.58,191.17,161.22,190.22,162.23,188.47z M162.23,192.22c1.01,0.58,1.01,2.48,0,4.23c-1.01,1.75-2.65,2.69-3.66,2.11
			c-1.01-0.58-1.01-2.48,0-4.23C159.58,192.58,161.22,191.63,162.23,192.22z M155.33,196.2c1.01,0.58,1.01,2.48,0,4.23
			c-1.01,1.75-2.65,2.69-3.66,2.11c-1.01-0.58-1.01-2.48,0-4.23C152.68,196.56,154.32,195.61,155.33,196.2z M155.33,188.23
			c1.01,0.58,1.01,2.48,0,4.23c-1.01,1.75-2.65,2.69-3.66,2.11c-1.01-0.58-1.01-2.48,0-4.23
			C152.68,188.59,154.31,187.64,155.33,188.23z"/>
		<path class="st8" d="M153.7,177.46c0,1.17-1.64,2.12-3.66,2.12c-2.02,0-3.66-0.95-3.66-2.12c0-1.17,1.64-2.12,3.66-2.12
			C152.06,175.34,153.7,176.29,153.7,177.46z M146.81,181.43c0,1.17-1.64,2.12-3.66,2.12c-2.02,0-3.66-0.95-3.66-2.12
			s1.64-2.12,3.66-2.12C145.17,179.32,146.81,180.26,146.81,181.43z M156.95,183.55c2.02,0,3.66-0.95,3.66-2.12
			s-1.64-2.12-3.66-2.12c-2.02,0-3.66,0.95-3.66,2.12S154.93,183.55,156.95,183.55z M153.7,185.42c0,1.17-1.64,2.12-3.66,2.12
			c-2.02,0-3.66-0.95-3.66-2.12c0-1.17,1.64-2.12,3.66-2.12C152.06,183.3,153.7,184.25,153.7,185.42z"/>
		<path d="M135.29,213.15c0,0.19-0.1,0.29-0.29,0.29h-0.64c-0.19,0-0.29-0.1-0.29-0.29v-6.64c0-0.19,0.1-0.29,0.29-0.29h2.14
			c1.54,0,2.5,0.92,2.5,2.3c0,1.38-0.96,2.3-2.5,2.3h-1.21V213.15z M136.43,207.25h-1.13v2.55h1.13c0.87,0,1.36-0.5,1.36-1.28
			C137.78,207.75,137.29,207.25,136.43,207.25z"/>
		<path d="M139.87,211.39v-3c0-0.19,0.1-0.29,0.29-0.29h0.6c0.19,0,0.29,0.1,0.29,0.29v2.9c0,0.72,0.49,1.23,1.2,1.23
			c0.74,0,1.38-0.62,1.38-1.51v-2.62c0-0.19,0.1-0.29,0.29-0.29h0.6c0.19,0,0.29,0.1,0.29,0.29v4.76c0,0.19-0.1,0.29-0.29,0.29h-0.6
			c-0.19,0-0.29-0.1-0.29-0.29v-0.42c-0.36,0.49-0.94,0.83-1.62,0.83C140.72,213.55,139.87,212.7,139.87,211.39z"/>
		<path d="M146.5,205.91h0.6c0.19,0,0.29,0.1,0.29,0.29v6.95c0,0.19-0.1,0.29-0.29,0.29h-0.6c-0.19,0-0.29-0.1-0.29-0.29v-6.95
			C146.21,206.01,146.31,205.91,146.5,205.91z"/>
		<path d="M148.69,211.39v-3c0-0.19,0.1-0.29,0.29-0.29h0.6c0.19,0,0.29,0.1,0.29,0.29v2.9c0,0.72,0.49,1.23,1.2,1.23
			c0.74,0,1.38-0.62,1.38-1.51v-2.62c0-0.19,0.1-0.29,0.29-0.29h0.6c0.19,0,0.29,0.1,0.29,0.29v4.76c0,0.19-0.1,0.29-0.29,0.29h-0.6
			c-0.19,0-0.29-0.1-0.29-0.29v-0.42c-0.36,0.49-0.94,0.83-1.62,0.83C149.54,213.55,148.69,212.7,148.69,211.39z"/>
		<path d="M163.3,210.15v3.01c0,0.19-0.1,0.29-0.29,0.29h-0.6c-0.19,0-0.29-0.1-0.29-0.29v-2.9c0-0.72-0.45-1.23-1.11-1.23
			c-0.66,0-1.29,0.67-1.29,1.48v2.65c0,0.19-0.1,0.29-0.29,0.29h-0.6c-0.19,0-0.29-0.1-0.29-0.29v-2.9c0-0.72-0.45-1.23-1.11-1.23
			c-0.63,0-1.29,0.61-1.29,1.48v2.65c0,0.19-0.1,0.29-0.29,0.29h-0.6c-0.19,0-0.29-0.1-0.29-0.29v-4.77c0-0.19,0.1-0.29,0.29-0.29
			h0.6c0.19,0,0.29,0.1,0.29,0.29v0.41c0.38-0.5,0.92-0.82,1.54-0.82c0.8,0,1.48,0.42,1.81,1.11c0.35-0.67,1-1.11,1.76-1.11
			C162.41,207.97,163.3,208.83,163.3,210.15z"/>
		<path d="M165.19,205.92c0.41,0,0.73,0.31,0.73,0.72c0,0.4-0.32,0.72-0.73,0.72c-0.41,0-0.73-0.31-0.73-0.72
			C164.46,206.24,164.78,205.92,165.19,205.92z M164.89,208.1h0.6c0.19,0,0.29,0.1,0.29,0.29v4.76c0,0.19-0.1,0.29-0.29,0.29h-0.6
			c-0.19,0-0.29-0.1-0.29-0.29v-4.76C164.6,208.2,164.71,208.1,164.89,208.1z"/>
	</g>
	<g>
		<rect x="41" y="131" class="st9" width="218" height="38.89"/>
	</g>
	<g>
		<path class="st10" d="M55.81,157.5v-11.7h-2.24v-1.82h6.42v1.82h-2.24v11.7H55.81z"/>
		<path class="st10" d="M60.84,157.5v-13.53h5.78v1.82h-3.84v3.97h3.34v1.82h-3.34v3.97h3.84v1.94H60.84z"/>
		<path class="st10" d="M67,157.5l3.02-13.53h1.61l3.02,13.53h-1.94l-0.57-2.91h-2.64l-0.57,2.91H67z M71.79,152.77l-0.95-4.9H70.8
			l-0.95,4.9H71.79z"/>
		<path class="st10" d="M75.61,157.5v-13.53h1.86l2.49,7.16H80l2.47-7.16h1.88v13.53h-1.94v-8.23h-0.04l-1.92,5.81h-0.97l-1.9-5.81
			h-0.04v8.23H75.61z"/>
		<path class="st10" d="M89.7,157.5v-13.53h5.78v1.82h-3.84v3.97h3.34v1.82h-3.34v3.97h3.84v1.94H89.7z"/>
		<path class="st10" d="M96.73,157.5v-13.53h2.87c1.11,0,1.96,0.3,2.54,0.91c0.58,0.61,0.86,1.47,0.86,2.58v6.33
			c0,1.27-0.31,2.2-0.92,2.8c-0.61,0.6-1.5,0.9-2.65,0.9H96.73z M98.67,145.79v9.88h0.89c0.54,0,0.93-0.14,1.16-0.41
			s0.34-0.7,0.34-1.28v-6.52c0-0.53-0.11-0.94-0.32-1.23c-0.22-0.29-0.61-0.44-1.18-0.44H98.67z"/>
		<path class="st10" d="M104.89,157.5v-13.53h1.94v13.53H104.89z"/>
		<path class="st10" d="M109.98,157.5v-11.7h-2.24v-1.82h6.42v1.82h-2.24v11.7H109.98z"/>
		<path class="st10" d="M115.07,157.5v-13.53h1.94v13.53H115.07z"/>
		<path class="st10" d="M118.77,147.16c0-0.54,0.1-1.03,0.29-1.44s0.44-0.77,0.76-1.04c0.3-0.27,0.65-0.47,1.04-0.61
			c0.39-0.14,0.78-0.21,1.17-0.21s0.78,0.07,1.17,0.21c0.39,0.14,0.74,0.34,1.05,0.61c0.3,0.28,0.55,0.63,0.74,1.04
			c0.19,0.42,0.28,0.9,0.28,1.44v7.14c0,0.57-0.09,1.06-0.28,1.46c-0.19,0.41-0.44,0.74-0.74,1.01c-0.32,0.28-0.67,0.49-1.05,0.63
			c-0.39,0.14-0.78,0.21-1.17,0.21s-0.78-0.07-1.17-0.21c-0.39-0.14-0.73-0.35-1.04-0.63c-0.32-0.27-0.57-0.6-0.76-1.01
			s-0.29-0.89-0.29-1.46V147.16z M120.71,154.31c0,0.47,0.13,0.81,0.39,1.04c0.26,0.22,0.57,0.33,0.92,0.33s0.66-0.11,0.92-0.33
			s0.39-0.57,0.39-1.04v-7.14c0-0.47-0.13-0.81-0.39-1.04s-0.57-0.33-0.92-0.33s-0.66,0.11-0.92,0.33
			c-0.26,0.22-0.39,0.57-0.39,1.04V154.31z"/>
		<path class="st10" d="M126.91,157.5v-13.53h1.86l2.93,8.15h0.04v-8.15h1.94v13.53h-1.82l-2.96-8.13h-0.04v8.13H126.91z"/>
		<path class="st10" d="M138.95,157.5v-13.53h5.78v1.82h-3.84v4.1h3.34v1.82h-3.34v5.78H138.95z"/>
		<path class="st10" d="M145.87,147.16c0-0.54,0.1-1.03,0.29-1.44s0.44-0.77,0.76-1.04c0.3-0.27,0.65-0.47,1.04-0.61
			c0.39-0.14,0.78-0.21,1.17-0.21s0.78,0.07,1.17,0.21c0.39,0.14,0.74,0.34,1.05,0.61c0.3,0.28,0.55,0.63,0.74,1.04
			c0.19,0.42,0.28,0.9,0.28,1.44v7.14c0,0.57-0.09,1.06-0.28,1.46c-0.19,0.41-0.44,0.74-0.74,1.01c-0.32,0.28-0.67,0.49-1.05,0.63
			c-0.39,0.14-0.78,0.21-1.17,0.21s-0.78-0.07-1.17-0.21c-0.39-0.14-0.73-0.35-1.04-0.63c-0.32-0.27-0.57-0.6-0.76-1.01
			s-0.29-0.89-0.29-1.46V147.16z M147.8,154.31c0,0.47,0.13,0.81,0.39,1.04c0.26,0.22,0.57,0.33,0.92,0.33s0.66-0.11,0.92-0.33
			s0.39-0.57,0.39-1.04v-7.14c0-0.47-0.13-0.81-0.39-1.04s-0.57-0.33-0.92-0.33s-0.66,0.11-0.92,0.33
			c-0.26,0.22-0.39,0.57-0.39,1.04V154.31z"/>
		<path class="st10" d="M154.07,157.5v-13.53h3.12c2.28,0,3.42,1.32,3.42,3.97c0,0.8-0.12,1.48-0.37,2.03
			c-0.25,0.56-0.68,1.01-1.3,1.35l2.09,6.17h-2.05l-1.81-5.78h-1.16v5.78H154.07z M156.01,145.79v4.22h1.1
			c0.34,0,0.61-0.05,0.82-0.14c0.2-0.09,0.36-0.23,0.48-0.41c0.1-0.18,0.17-0.4,0.21-0.66s0.06-0.56,0.06-0.9s-0.02-0.64-0.06-0.9
			s-0.11-0.49-0.23-0.67c-0.24-0.35-0.7-0.53-1.37-0.53H156.01z"/>
		<path class="st10" d="M165.59,147.16c0-0.54,0.1-1.03,0.29-1.44s0.44-0.77,0.76-1.04c0.3-0.27,0.65-0.47,1.04-0.61
			c0.39-0.14,0.78-0.21,1.17-0.21s0.78,0.07,1.17,0.21c0.39,0.14,0.74,0.34,1.05,0.61c0.3,0.28,0.55,0.63,0.74,1.04
			c0.19,0.42,0.28,0.9,0.28,1.44v7.14c0,0.57-0.09,1.06-0.28,1.46c-0.19,0.41-0.44,0.74-0.74,1.01c-0.32,0.28-0.67,0.49-1.05,0.63
			c-0.39,0.14-0.78,0.21-1.17,0.21s-0.78-0.07-1.17-0.21c-0.39-0.14-0.73-0.35-1.04-0.63c-0.32-0.27-0.57-0.6-0.76-1.01
			s-0.29-0.89-0.29-1.46V147.16z M167.53,154.31c0,0.47,0.13,0.81,0.39,1.04c0.26,0.22,0.57,0.33,0.92,0.33s0.66-0.11,0.92-0.33
			s0.39-0.57,0.39-1.04v-7.14c0-0.47-0.13-0.81-0.39-1.04s-0.57-0.33-0.92-0.33s-0.66,0.11-0.92,0.33
			c-0.26,0.22-0.39,0.57-0.39,1.04V154.31z"/>
		<path class="st10" d="M173.8,157.5v-13.53h2.91c0.53,0,1,0.07,1.41,0.21c0.41,0.14,0.77,0.39,1.1,0.74
			c0.33,0.35,0.56,0.77,0.68,1.24c0.13,0.48,0.19,1.12,0.19,1.93c0,0.61-0.04,1.12-0.1,1.54c-0.07,0.42-0.22,0.81-0.45,1.18
			c-0.27,0.44-0.62,0.79-1.06,1.04s-1.03,0.37-1.75,0.37h-0.99v5.28H173.8z M175.73,145.79v4.6h0.93c0.39,0,0.7-0.06,0.91-0.17
			c0.22-0.11,0.37-0.27,0.48-0.47c0.1-0.19,0.16-0.42,0.18-0.7c0.02-0.28,0.03-0.59,0.03-0.93c0-0.32-0.01-0.62-0.02-0.9
			c-0.01-0.29-0.07-0.54-0.17-0.75c-0.1-0.21-0.25-0.38-0.46-0.49s-0.49-0.17-0.87-0.17H175.73z"/>
		<path class="st10" d="M181.53,157.5v-13.53h5.78v1.82h-3.84v3.97h3.34v1.82h-3.34v3.97h3.84v1.94H181.53z"/>
		<path class="st10" d="M188.48,157.5v-13.53h1.86l2.93,8.15h0.04v-8.15h1.94v13.53h-1.82l-2.96-8.13h-0.04v8.13H188.48z"/>
		<path class="st10" d="M206.8,147.87h-1.94v-0.44c0-0.44-0.1-0.83-0.31-1.15s-0.56-0.48-1.05-0.48c-0.27,0-0.48,0.05-0.65,0.15
			s-0.3,0.23-0.4,0.38c-0.1,0.17-0.17,0.35-0.21,0.56s-0.06,0.43-0.06,0.66c0,0.27,0.01,0.49,0.03,0.67
			c0.02,0.18,0.07,0.34,0.14,0.47c0.08,0.14,0.19,0.26,0.33,0.36s0.35,0.2,0.6,0.3l1.48,0.59c0.43,0.16,0.78,0.36,1.04,0.58
			c0.27,0.22,0.48,0.48,0.63,0.77c0.14,0.3,0.23,0.65,0.29,1.04c0.05,0.39,0.08,0.83,0.08,1.32c0,0.57-0.06,1.1-0.17,1.59
			c-0.11,0.49-0.3,0.9-0.55,1.24c-0.27,0.36-0.61,0.63-1.04,0.84c-0.43,0.2-0.96,0.3-1.58,0.3c-0.47,0-0.91-0.08-1.31-0.25
			c-0.41-0.17-0.75-0.39-1.04-0.68c-0.29-0.29-0.52-0.63-0.69-1.02c-0.17-0.39-0.26-0.81-0.26-1.26v-0.72h1.94v0.61
			c0,0.35,0.1,0.67,0.31,0.96c0.21,0.29,0.56,0.43,1.05,0.43c0.33,0,0.59-0.05,0.77-0.14c0.18-0.09,0.33-0.23,0.43-0.41
			c0.1-0.18,0.16-0.39,0.18-0.64s0.03-0.52,0.03-0.83c0-0.35-0.01-0.65-0.04-0.87c-0.03-0.23-0.08-0.41-0.15-0.55
			c-0.09-0.14-0.21-0.25-0.35-0.34c-0.15-0.09-0.34-0.18-0.58-0.28l-1.39-0.57c-0.84-0.34-1.4-0.79-1.68-1.36
			c-0.29-0.56-0.43-1.27-0.43-2.12c0-0.51,0.07-0.99,0.21-1.44c0.14-0.46,0.35-0.85,0.63-1.18c0.27-0.33,0.6-0.59,1.02-0.79
			s0.9-0.29,1.47-0.29c0.48,0,0.92,0.09,1.32,0.27s0.74,0.41,1.04,0.7c0.58,0.61,0.87,1.3,0.87,2.09V147.87z"/>
		<path class="st10" d="M208.13,147.16c0-0.54,0.1-1.03,0.29-1.44s0.44-0.77,0.76-1.04c0.3-0.27,0.65-0.47,1.04-0.61
			c0.39-0.14,0.78-0.21,1.17-0.21s0.78,0.07,1.17,0.21c0.39,0.14,0.74,0.34,1.05,0.61c0.3,0.28,0.55,0.63,0.74,1.04
			c0.19,0.42,0.28,0.9,0.28,1.44v7.14c0,0.57-0.09,1.06-0.28,1.46c-0.19,0.41-0.44,0.74-0.74,1.01c-0.32,0.28-0.67,0.49-1.05,0.63
			c-0.39,0.14-0.78,0.21-1.17,0.21s-0.78-0.07-1.17-0.21c-0.39-0.14-0.73-0.35-1.04-0.63c-0.32-0.27-0.57-0.6-0.76-1.01
			s-0.29-0.89-0.29-1.46V147.16z M210.06,154.31c0,0.47,0.13,0.81,0.39,1.04c0.26,0.22,0.57,0.33,0.92,0.33s0.66-0.11,0.92-0.33
			s0.39-0.57,0.39-1.04v-7.14c0-0.47-0.13-0.81-0.39-1.04s-0.57-0.33-0.92-0.33s-0.66,0.11-0.92,0.33
			c-0.26,0.22-0.39,0.57-0.39,1.04V154.31z"/>
		<path class="st10" d="M222.6,143.97v10.49c0,0.44-0.08,0.85-0.24,1.23c-0.16,0.37-0.38,0.71-0.67,1
			c-0.29,0.29-0.63,0.52-1.01,0.68c-0.38,0.16-0.79,0.25-1.22,0.25s-0.83-0.08-1.21-0.25c-0.37-0.17-0.71-0.39-1-0.68
			c-0.29-0.29-0.52-0.62-0.68-1c-0.17-0.37-0.25-0.78-0.25-1.23v-10.49h1.94v10.3c0,0.48,0.11,0.84,0.34,1.06s0.51,0.34,0.85,0.34
			c0.34,0,0.63-0.11,0.85-0.34s0.34-0.58,0.34-1.06v-10.3H222.6z"/>
		<path class="st10" d="M224.43,157.5v-13.53h3.12c2.28,0,3.42,1.32,3.42,3.97c0,0.8-0.12,1.48-0.37,2.03
			c-0.25,0.56-0.68,1.01-1.3,1.35l2.09,6.17h-2.05l-1.81-5.78h-1.16v5.78H224.43z M226.37,145.79v4.22h1.1
			c0.34,0,0.61-0.05,0.82-0.14c0.2-0.09,0.36-0.23,0.48-0.41c0.1-0.18,0.17-0.4,0.21-0.66s0.06-0.56,0.06-0.9s-0.02-0.64-0.06-0.9
			s-0.11-0.49-0.23-0.67c-0.24-0.35-0.7-0.53-1.37-0.53H226.37z"/>
		<path class="st10" d="M238.68,153.64v0.84c0,0.42-0.08,0.81-0.24,1.19c-0.16,0.37-0.38,0.71-0.66,1s-0.6,0.52-0.98,0.69
			s-0.78,0.26-1.21,0.26c-0.37,0-0.74-0.05-1.12-0.15c-0.38-0.1-0.72-0.28-1.03-0.53c-0.3-0.25-0.55-0.58-0.75-0.98
			c-0.2-0.4-0.29-0.91-0.29-1.53v-7.45c0-0.44,0.08-0.85,0.23-1.23c0.15-0.38,0.37-0.71,0.65-0.99s0.61-0.5,1-0.66
			s0.81-0.24,1.28-0.24c0.91,0,1.65,0.3,2.22,0.89c0.28,0.29,0.5,0.64,0.66,1.04c0.16,0.4,0.24,0.83,0.24,1.3v0.76h-1.94v-0.65
			c0-0.38-0.11-0.71-0.32-0.99c-0.22-0.28-0.51-0.42-0.87-0.42c-0.48,0-0.8,0.15-0.96,0.45c-0.16,0.3-0.24,0.67-0.24,1.13v6.92
			c0,0.39,0.09,0.72,0.26,0.99c0.17,0.27,0.48,0.4,0.92,0.4c0.13,0,0.26-0.02,0.41-0.07c0.15-0.04,0.28-0.12,0.41-0.22
			c0.11-0.1,0.21-0.24,0.29-0.42c0.08-0.18,0.11-0.4,0.11-0.67v-0.67H238.68z"/>
		<path class="st10" d="M240.26,157.5v-13.53h5.78v1.82h-3.84v3.97h3.34v1.82h-3.34v3.97h3.84v1.94H240.26z"/>
	</g>
</g>
<g>
	<path class="st15" d="M192.12,77.83c0,0,5.81,4.21,20.41,2.84c0,0,18.06-2.35,11.01,0.12c0,0-4.7,1.61-10.27,3.09
		c0,0-9.52,2.6-4.21,3.83c0,0,3.83,0.37,12.12-1.86c0,0,5.58-1.82,5.81-0.12c0.1,0.73-1.31,1.59-4.58,2.84c0,0-12.62,4.45-20.9,9.77
		l-10.02-8.04L192.12,77.83z"/>
	<path class="st16" d="M204.1,91.72c0.92,1.56,0.42,3.64-0.72,5.04c-1.14,1.4-2.8,2.26-4.42,3.05c-8.2,3.97-20.84,6.27-29.75,8.21
		c-0.67,0.15-1.35,0.29-2.03,0.18c-1.91-0.31-2.94-2.37-3.65-4.17c-0.29-0.73-0.57-1.62-0.12-2.27c0.17-0.24,0.42-0.42,0.67-0.58
		c3.04-1.93,6.76-2.41,10.13-3.67c1.65-0.61,3.22-1.42,4.79-2.2c4.8-2.38,9.7-4.58,14.67-6.59
		C195.78,87.87,202.89,89.67,204.1,91.72z"/>
	<path class="st17" d="M197.04,90.22c-1.23,1.33-2.88,1.79-4.64,2.54c-8.45,3.6-24.56,7.6-34.38,9.54c0.65,1.09,1.5,1.99,2.71,2.19
		c0.67,0.11,2.3,1.28,2.97,1.14c7.79-1.7,29.12-6.73,37.39-11.03c1.55-0.8,2.85-1.97,2.89-2.78c0.04-0.91-3.46-2.89-6.23-2.97
		C197.54,89.37,197.44,89.79,197.04,90.22z"/>
	<path class="st18" d="M203.37,95.77c-1.14,1.4-2.8,2.26-4.42,3.05c-3.12,1.51-7.65,2.99-11.61,4.09c0.18,0.18,0.79,0.79,0.79,0.79
		s5.91-1.65,10.82-3.77c1.66-0.71,3.28-1.65,4.42-3.05c0.85-1.04,1.34-2.46,1.16-3.76C204.41,94.07,203.98,95.02,203.37,95.77z"/>
	<path class="st19" d="M126.65,57.43c-1.61-2.98-3.66-6.29-4.66-8.7c-0.23-0.56-0.67-1.53-1.07-1.98c-0.4-0.45-1.08-0.63-1.62-0.36
		c-1.46,0.74-0.67,4.6-0.44,5.6c-0.49-0.14-1.66-0.32-2.09,0.88c0,0-0.07,0.21-0.11,0.63c-0.54-0.06-1.2,0.1-1.48,1.05
		c0,0-0.04,0.14-0.08,0.4c-1.27,0.79-0.95,2.15-0.78,2.77c0.74,2.6,3.01,3.05,3.01,3.05s1.39,1.14,2.51,1.32
		c1.48,0.23,2.7-0.09,4.17-0.33c0.7-0.12,1.41-0.25,2.03-0.59c0.62-0.34,1.15-0.93,1.24-1.64
		C127.39,58.78,127.01,58.08,126.65,57.43z"/>
	<path class="st20" d="M114.98,58.26c-0.17-0.61-0.49-1.98,0.78-2.77c0.04-0.26,0.08-0.4,0.08-0.4c0.28-0.96,0.93-1.11,1.48-1.05
		c0.04-0.42,0.11-0.63,0.11-0.63c0.43-1.19,1.6-1.01,2.09-0.88c-0.23-1-1.02-4.85,0.44-5.6c0.34-0.17,0.75-0.16,1.1-0.01
		c-0.05-0.07-0.1-0.13-0.14-0.18c-0.4-0.45-1.08-0.63-1.62-0.36c-1.46,0.74-0.67,4.6-0.44,5.6c-0.49-0.14-1.66-0.32-2.09,0.88
		c0,0-0.07,0.21-0.11,0.63c-0.54-0.06-1.2,0.1-1.48,1.05c0,0-0.04,0.14-0.08,0.4c-1.27,0.79-0.95,2.15-0.78,2.77
		c0.37,1.28,1.11,2.04,1.76,2.48C115.64,59.75,115.23,59.12,114.98,58.26z"/>
	<path class="st20" d="M122.61,54.58c0,0-3.83,0.91-3.67,2.93c0,0,3.63-2.93,6.82-0.89l0.4-0.05
		C126.16,56.56,125.33,54.17,122.61,54.58z"/>
	<path class="st21" d="M117.18,60.46c0,0,1.04,2.03,5.33,1.81l4.73-5.17c0,0-4.95-0.05-7.2,1.37l1.21,0.49
		C121.25,58.98,117.79,60.08,117.18,60.46z"/>
	<path class="st17" d="M173.62,56.47c0,0,0.32-3,5.02-2.75c0,0,11.63-1.86,16.82,27.58l-14.72,1.98L173.62,56.47z"/>
	<polygon class="st22" points="132.46,85.17 148.71,83.03 160.33,86.24 136.92,91.03 	"/>
	<path class="st23" d="M144.27,83.51c0.66,0.42,1.71-0.1,2.48,0.04c1.76,0.32,2.91,1.48,4.54,2.92c1.79,1.57,4.65,0.88,7.03,0.68
		c3.39-0.29,6.83-0.72,9.97-2.04c3.14-1.32,5.86,0.09,7.12-3.07c2.45-0.01,5.08-0.8,7.01-2.31c1.56-1.22,1.06-17.2-0.21-21.31
		c-0.99-3.22-3.59-3.5-5.4-3.57c-1.23-0.04-2.59,0.56-3.21,1.62c-1.78,3.06-2.38,12.88-2.81,14.03c-0.52,1.4-2.04,3.4-4.56,4.48
		c-3.69,1.59-7.59,2.71-11.56,3.32c-2.02,0.31-4.06,0.49-6.1,0.54c-1.16,0.03-2.76-0.44-3.79,0.23
		C143.47,79.95,142.68,82.49,144.27,83.51z"/>
	<path class="st24" d="M145.82,80.2c1.88-1.11,3.7-0.36,4.86-0.39c2.04-0.05,3.22,0.19,5.24-0.14c3.97-0.65,7.87-1.82,11.56-3.51
		c2.52-1.15,4.04-3.25,4.56-4.73c0.43-1.21,1.03-11.57,2.81-14.8c0.6-1.09,1.91-1.72,3.11-1.71c-0.4-0.05-0.79-0.07-1.14-0.08
		c-1.23-0.04-2.59,0.56-3.21,1.62c-1.78,3.06-2.38,12.88-2.81,14.03c-0.52,1.4-2.04,3.4-4.56,4.48c-3.69,1.59-7.59,2.71-11.56,3.32
		c-2.02,0.31-4.06,0.49-6.1,0.54c-1.16,0.03-2.76-0.44-3.79,0.23c-1.34,0.87-2.13,3.41-0.53,4.44c0.12,0.08,0.24,0.14,0.37,0.18
		C144.5,82.51,144.52,80.98,145.82,80.2z"/>
	<path class="st63" d="M173.2,58.32c0,0,3.68-0.16,6.98,0.11"/>
	<path class="st63" d="M172.92,60.74c0,0,4.51-0.16,7.81,0.11"/>
	<path class="st63" d="M172.65,63.16c0,0,5-0.11,8.3,0.16"/>
	<path class="st63" d="M172.37,65.58c0,0,5.44-0.16,8.74,0.11"/>
	<path class="st63" d="M172.1,67.99c0,0,5.77-0.16,9.07,0.11"/>
	<path class="st63" d="M171.82,70.41c0,0,5.88-0.05,9.18,0.22"/>
	<path class="st63" d="M171.55,72.83c0,0,6.05,0,9.34,0.27"/>
	<path class="st63" d="M171.27,75.25c0,0,6.27,0.05,9.56,0.33"/>
	<path class="st63" d="M171,77.67c0,0,6.1,0,9.4,0.27"/>
	<polygon class="st17" points="111.23,111.89 97.71,108.63 113.13,107.15 132.18,115.18 131.52,116.79 	"/>
	<path class="st26" d="M128.71,71.65c0.77,0.85,1.66,1.71,2.8,1.89c0.85,0.14,1.7-0.13,2.51-0.41c2.42-0.83,4.8-1.85,6.83-3.4
		c0.56-0.43,1.14-1.01,1.12-1.72c-0.02-0.68-0.58-1.21-1.12-1.62c-2.57-1.99-5.58-3.41-8.75-4.11c-2.04-0.45-4.19-0.61-6.21-0.07
		c-1.87,0.5-2.73,2.33-1.55,3.94C125.72,68.02,127.14,69.92,128.71,71.65z"/>
	<path class="st27" d="M141.34,66.82c0.02,0.09,0.04,0.19,0.04,0.28c0.02,0.71-0.56,1.28-1.12,1.72c-2.02,1.56-4.41,2.57-6.83,3.4
		c-0.81,0.28-1.66,0.54-2.51,0.41c-1.13-0.18-2.03-1.04-2.8-1.89c-1.52-1.68-2.9-3.52-4.24-5.34c0.09,0.22,0.21,0.44,0.37,0.65
		c1.38,1.88,2.8,3.78,4.37,5.51c0.77,0.85,1.66,1.71,2.8,1.89c0.85,0.14,1.7-0.13,2.51-0.41c2.42-0.83,4.8-1.85,6.83-3.4
		c0.56-0.43,1.14-1.01,1.12-1.72C141.87,67.51,141.64,67.14,141.34,66.82z"/>
	<path class="st22" d="M120.43,75.2c0,0,3.79-2.23,5.61-0.99c0,0,1.9,1.65-0.25,4.29"/>
	<path class="st22" d="M125.08,76.97c0,0,1.48-2.1,8.04-1.86c0,0,9.72,3.32,10.34,3.69l-1.65,4.15l-1.4-0.74l-8.86-3.9
		c0,0-2.64-1.24-4.74,1.61"/>
	<path class="st28" d="M162.2,71.29c1.43-0.05,3.77-0.18,5.33-0.22c7.73-0.17,9.29,2.57,9.45,4.45c0.25,2.8-1.81,5.36-9.73,6.68
		c-5.51,0.92-6.79-1.96-12.3-2.88"/>
	<path class="st29" d="M154.26,72.63c0.62,0.8,1.96,2.03,2.93,2.32c2.09,0.6,5.62-0.54,5.5-2.53c-0.01-0.13-0.88-0.59-0.93-0.71
		c-0.05-0.1-0.68-0.76-0.77-0.82c-0.52-0.34-1.56-1.01-2.09-1.32c-0.59-0.34-0.09,0.23-0.71-0.04c-0.56-0.24-1.2-0.21-1.8-0.17
		c-0.68,0.05-3.11-0.98-3.52-0.33C152.45,69.71,153.86,72.12,154.26,72.63z"/>
	<path class="st30" d="M157.79,70.15c-0.23-0.01-0.38,0.28-0.31,0.5c0.07,0.22,0.27,0.38,0.45,0.51c0.19,0.14,0.39,0.28,0.47,0.5
		c-0.25,0.12-0.06,0.5,0.15,0.68c0.33,0.29,0.67,0.58,1,0.87c-0.15,0.11,0.02,0.34,0.19,0.44c0.5,0.29,1.03,0.54,1.58,0.74
		c0.85-0.47,1.43-1.15,1.38-1.98c-0.01-0.13-0.88-0.59-0.93-0.71c-0.05-0.1-0.68-0.76-0.77-0.82c-0.52-0.34-1.56-1.01-2.09-1.32
		c-0.59-0.34-0.09,0.23-0.71-0.04c-0.4-0.17-0.84-0.21-1.28-0.19C157.14,69.52,157.61,70.14,157.79,70.15z"/>
	<path class="st28" d="M162.94,81.34c-3.7-0.03,4.66-1.93-0.99-0.25c-5.52,1.65-10.31,0.33-14.18-1.15
		c-6.13-2.35-10.71-4.94-12.38-6.85c-1.15-1.32-1.24-2.76-1.24-2.76s-4.27-0.08-6.25-3.17c-1.3-2.03,0.89-0.85-0.91-2.45
		c-1.79-1.6-2.45-4.73-1.61-6.99c1.04-2.8,2.13-3.8,5.08-4.38c1.33-0.27,3.66-0.47,5.05-0.47c0.26,0,5.26,0.32,5.52,0.35
		c0.4,0.05-1.97,0.18-1.55,0.25c0.32,0.05,1.79,0.09,2.12,0.15c0.21,0.04-0.72,0.1-0.51,0.15c0.27,0.05,0.53,0.13,0.81,0.17
		c3.01,0.38,5.37,5.22,5.37,5.22s9.19,3.09,15.25,10.18c0,0,1.9,2.1,2.47,5.65L162.94,81.34z"/>
	<path class="st31" d="M128.1,56.02c1.27-0.07,2.54,0.46,3.47,1.33c0.63,0.59,1.12,1.32,1.83,1.81c0.78,0.54,1.77,0.74,2.57,1.26
		c1.57,1.02,2.27,2.68,2.18,4.56c-0.03,0.64-0.25,1.73-0.61,2.27c-1.11,1.65-2.76,1.96-4.25,2.06c-1.98,0.14-3.06-0.08-4.47-0.42
		s-2.36-1.46-3.24-2.61c-0.44-0.58-0.74-1.25-0.97-1.94C123.63,61.3,123.95,56.25,128.1,56.02z"/>
	<path class="st31" d="M112.28,65.23c-0.95,0.89-0.84,2.06-0.39,2.71c0.73,1.06,1.66,1.01,2.37,1.2c0.38,0.11,1.3,0.25,1.87,0.28
		c1.2,0.06,3.21,0.2,5.06-0.03c4.2-0.51,7.22-2.07,10.95-4.02c1.64-0.86,2.63-1.94,3.47-3.58c0.27-0.53-4.9-2.34-5.41-2.45
		c-1.73-0.39-4.35-1.39-5.46,0.03c-1.37,1.76-2.77,2.21-5.03,2.93C117.72,62.93,113.6,63.98,112.28,65.23z"/>
	<path class="st32" d="M121.18,68.11c1.53-0.18,5.02-1.12,6.5-1.59c1.93-0.6,3.25-1.28,4.57-2c2-1.1,2.43-3.2,3.97-2.95
		c0.68,0.11,1.13,0.49,1.48,0.95c-0.36-0.82-0.94-1.53-1.76-2.07c-0.8-0.52-1.78-0.72-2.57-1.26c-0.71-0.49-1.2-1.22-1.83-1.81
		c-0.93-0.87-2.2-1.4-3.47-1.33c-2.39,0.13-3.51,1.87-3.84,3.91c-1.22,1.3-2.55,1.73-4.55,2.36c-1.99,0.63-6.1,1.69-7.43,2.94
		c-0.49,0.46-0.69,0.98-0.72,1.48c0.42,0.84,1.28,1.08,2.43,1.26C116.38,68.37,119.24,68.33,121.18,68.11z"/>
	<path class="st32" d="M129.76,69.13c0,0,2.08,0.38,4.27,0.11c0,0-1.66-0.3-3.06-1.81L129.76,69.13z"/>
	<g>
		<path class="st33" d="M140.13,73.46c-0.72,0.38-1.21,0.31-1.54,0.11c-0.02,0.1-0.03,0.2-0.02,0.31c0,0,0.26,1.02,1.21,1.01
			C139.67,74.26,140.13,73.46,140.13,73.46z"/>
	</g>
	<path class="st19" d="M133.51,74.23c-1.43,0.59-2.67,1.88-2.74,3.42c-0.03,0.53,0.17,1.16,0.68,1.3c0.18,0.05,0.37,0.03,0.56,0.08
		c0.92,0.24,0.75,1.78,1.57,2.25c0.68,0.39,1.56-0.22,2.31,0.02c0.46,0.14,0.69,0.64,1.09,0.91c2.04,1.39,3.51,0.02,3.51,0.02
		s-0.65-1.74,0.78-3.14c0.4-0.39,1.21-0.58,1.77-0.49c1.33,0.19,2.13-0.37,2.51-1.59c-0.5,0.11-1.19,0.06-1.68-0.07
		s-0.94-0.57-0.91-1.07c0.01-0.14,0.05-0.29-0.03-0.4c-0.08-0.12-0.26-0.13-0.4-0.11c-0.66,0.06-1.35,0.24-1.98,0.03
		c-0.63-0.21-1.11-1.04-0.68-1.55C137.99,73.34,135.3,73.5,133.51,74.23z"/>
	<g>
		<path class="st20" d="M131.57,77.52c0.41-1.13,1.43-2.04,2.56-2.5c1.56-0.64,3.8-0.84,5.6-0.55c-0.05-0.22-0.01-0.45,0.15-0.63
			c-1.88-0.51-4.57-0.35-6.36,0.39c-1.24,0.51-2.34,1.55-2.66,2.82c-0.05,0.19-0.08,0.39-0.09,0.6
			C130.74,78.17,131.46,77.82,131.57,77.52z"/>
	</g>
	<path class="st17" d="M129.1,79c2.42,2.85,3.95,6.68,7.27,8.39c2.64,1.36,5.79,1.03,8.72,0.61c11.75-1.71,23.33-4.59,34.52-8.58
		c3.3-1.18,6.78-2.48,10.23-1.84c3.45,0.63,8.34,5.78,8.34,9.29c0,3.22-2.78,4.36-5.44,5.32c-27.45,9.89-59.63,16.17-88.79,17.09
		c-4.63,0.15-16.84,1.03-21.31-0.19c-3.26-0.89-6.7-2.83-7.42-6.13c-0.48-2.21,0.41-4.5,1.63-6.4c5.2-8.09,21.89-11.06,30.13-18.51
		c3.38-3.06,5.99-4.76,10.61-4.57C121.96,73.66,126.27,75.65,129.1,79z"/>
	<g>
		<path class="st34" d="M176.84,54.81c0.42,0.01,0.88,0.04,1.35,0.11c0.57-0.12,3.86-0.42,6.35,1.01c-3.99-3.21-7.74-2.21-8.39-2.02
			c-2.32,0.68-2.52,2.51-2.52,2.51C174.25,55.36,175.62,54.77,176.84,54.81z"/>
		<path class="st34" d="M138.23,88.5c2.64,1.36,5.79,1.03,8.72,0.61c11.75-1.71,23.33-4.59,34.52-8.58c1.11-0.4,2.24-0.81,3.39-1.15
			c0.82-4.3,0.3-16.35-0.78-19.84c-0.54-1.76-1.57-2.64-2.68-3.09c0.44,0.49,0.81,1.13,1.07,1.98c1.08,3.5,1.6,15.54,0.78,19.84
			c-1.14,0.35-2.27,0.76-3.39,1.15c-11.18,3.99-22.76,6.87-34.52,8.58c-2.93,0.43-6.15,0.83-8.79-0.53
			C136.53,87.45,137.61,88.18,138.23,88.5z"/>
	</g>
	<path class="st16" d="M190.43,89.05c-27.12,10.75-68.19,15.58-85.34,17.23c-4.93,0.47-20.71,2.07-27.6-1.47
		c-1.69-0.87-2.24-3.61-2.26-4.6c-0.17,0.87-0.2,1.75-0.01,2.62c0.72,3.3,4.16,5.23,7.42,6.13c4.47,1.22,16.85,0.42,21.49,0.27
		c29.16-0.92,61.04-6.05,88.49-15.94c2.66-0.96,5.61-3.25,5.58-6.46c-0.01-0.96-0.48-2.06-0.48-2.06S195.6,87,190.43,89.05z"/>
	<g>
		<path class="st35" d="M197.73,84.9c0,0-0.02,0.02-0.06,0.06c0.09,0.35,0.17,0.75,0.17,1.13c0.03,3.22-2.91,5.5-5.58,6.46
			c-27.45,9.89-59.33,15.01-88.49,15.94c-4.63,0.15-17.02,0.95-21.49-0.27c-2.74-0.75-5.61-2.24-6.88-4.66
			c0.98,2.93,4.2,4.69,7.25,5.52c4.47,1.22,16.85,0.42,21.49,0.27c29.16-0.92,61.04-6.05,88.49-15.94c2.66-0.96,5.61-3.25,5.58-6.46
			C198.2,86,197.73,84.9,197.73,84.9z"/>
	</g>
	<path class="st17" d="M123.02,101.21c0,0,20.86-3.83,30.88-5.32c0,0,17.56-3.46,20.28,2.6c0,0,1.98,5.94-4.21,8.53l-30.42,9.77
		c0,0-2.72,0.99-7.67,0.12l-30.92-7.62c0,0,0.72,0.02,1.58,0.07C107.36,109.64,123.06,109.91,123.02,101.21"/>
	<path class="st36" d="M123.02,101.21c4.98,0.93,11.03,1.42,14.43,2.96c2.48,1.13,3.34,3.6,2.97,7.43c-0.17,1.76-0.8,3.19-2.23,4.08
		c-1.02,0.64-3.46,0.99-7.42,0.25c-1.49-0.28-28.54-6.66-28.54-6.66s4.44,0.15,9.37-0.39C121.87,107.76,122.96,103.66,123.02,101.21
		z"/>
	<path d="M138.57,65.22c0,0-1.15,4.21-7.67,4.12c0,0,0.58,1.32,4.21,1.32c0,0,6.07-0.03,6.27-6.76L138.57,65.22z"/>
	<path class="st17" d="M142.9,114.61c1.64-0.09,3.33-0.16,4.87,0.39c1.43,0.52,2.63,1.55,4.06,2.06c2.66,0.95,5.63-0.01,8.4,0.49
		c1.65,0.3,4.17,1.47,9.17,0.7c6.51-1,19.96-5.71,26.54-9c1.89-0.94,3.8-1.93,5.33-3.38c0.23-0.22,0.45-0.47,0.48-0.78
		c0.04-0.45-0.36-0.82-0.76-1.04c-1.56-0.85-9.6,0.11-11.38,0.17c-0.31,0.01-0.63,0.01-0.92-0.1c-0.38-0.15-0.66-0.48-0.94-0.78
		c-0.81-0.86-1.83-1.54-2.95-1.9c-1.35-0.43-4.4-0.32-5.81-0.48c-1.23-0.13-2.18-0.24-3.01-0.7c-1.76-0.99-1.87-2.53-3.52-3.57"/>
	<g>
		<path class="st18" d="M201.28,104.87c-1.53,1.46-3.44,2.44-5.33,3.38c-6.58,3.29-20.04,8-26.54,9c-5.01,0.77-7.52-0.4-9.17-0.7
			c-2.78-0.5-5.75,0.47-8.4-0.49c-1.43-0.51-2.63-1.54-4.06-2.06c-0.5-0.18-1.01-0.29-1.53-0.36l-6.69,2.15c0,0-2.72,0.99-7.67,0.12
			l-27.5-6.79c-1.46,0.01-3.89,0.2-3.89,0.2l31.39,7.7c4.95,0.87,7.67-0.12,7.67-0.12l6.69-2.15c0.52,0.07,1.03,0.18,1.53,0.36
			c1.43,0.52,2.63,1.55,4.06,2.06c2.66,0.95,5.63-0.01,8.4,0.49c1.65,0.3,4.17,1.47,9.17,0.7c6.51-1,19.96-5.71,26.54-9
			c1.89-0.94,3.8-1.93,5.33-3.38c0.23-0.22,0.45-0.47,0.48-0.78c0.02-0.23-0.07-0.44-0.22-0.61
			C201.46,104.7,201.37,104.79,201.28,104.87z"/>
	</g>
	<path class="st37" d="M112.22,109.15c0,0,25.43,6.47,27.04,5.6l0.05-0.03c0.66-0.83,1-1.89,1.11-3.1c0.37-3.83-0.49-6.31-2.97-7.43
		c-3.39-1.54-9.45-2.03-14.43-2.96c-0.06,2.45-1.15,6.56-11.42,7.67c-0.15,0.02-0.29,0.03-0.44,0.04L112.22,109.15z"/>
	<path class="st38" d="M132.79,91.85c0,0,2.47-5.44,10.55-6.51c0,0,7.92,0.16,8.74,4.21c0,0,2.14,4.78-9.98,6.43
		C142.11,95.97,129.5,97.13,132.79,91.85z"/>
	<path class="st16" d="M141.71,93.75c0,0-6.71,0.57-9.45-0.93c-1.22,4.16,9.77,3.15,9.77,3.15c10.62-1.44,10.29-5.29,10.04-6.23
		C151.11,91.19,148.48,92.89,141.71,93.75z"/>
	<path class="st35" d="M142.03,95.35c0,0-9.16,0.84-9.83-2.18c-0.75,3.89,9.83,2.92,9.83,2.92c9.8-1.33,10.27-4.72,10.1-5.96
		C151.92,91.66,150.27,94.23,142.03,95.35z"/>
	<g>
		<path class="st21" d="M140.37,80.74c-1.13,0.16-2.4,0.68-3.37,0.12c-0.39-0.22-0.69-0.61-1.13-0.69c-0.7-0.13-1.44,0.57-2.08,0.26
			c-0.72-0.32-0.7-1.06-1.48-1.24c0.58,0.47,0.54,1.68,1.26,2.09c0.68,0.39,1.56-0.22,2.31,0.02c0.46,0.14,0.69,0.64,1.09,0.91
			c2.04,1.39,3.51,0.02,3.51,0.02S140.23,81.57,140.37,80.74z"/>
		<path class="st21" d="M144.19,77.01c-0.26,0.31-0.54,0.6-0.82,0.88c-0.24,0.24-0.49,0.49-0.77,0.7c0.15-0.01,0.29-0.01,0.43,0.01
			c1.33,0.19,2.13-0.37,2.51-1.59C145.15,77.09,144.64,77.08,144.19,77.01z"/>
	</g>
	
		<ellipse transform="matrix(0.3149 -0.9491 0.9491 0.3149 20.9134 190.5768)" class="st39" cx="142.47" cy="80.8" rx="2.31" ry="1.48"/>
	<g>
		<path class="st26" d="M148.1,72.69c1.84-0.91,2.23-7.34,2.23-7.34l-0.38,0.71l-2.12,3.74c0,0-0.53,0.91-1.29,1.46
			c-0.86,0.62-2.35,0.95-5.99,1.79c0,0-1.07,0.49-0.99,1.32c0,0,0.22,0.68,1.09,0.85c0.32,0.06,1.86-0.01,2.33-0.26
			C142.97,74.96,146.7,73.82,148.1,72.69z"/>
	</g>
	<path class="st27" d="M153.21,65.95c-0.28,1.76-0.77,4.8-1.57,6.55c-1.21,2.65-6.24,4.1-8.69,3.38c-0.14,1.76,2.45,1.6,2.45,1.6
		l-0.22,0.35c0,0,6.27-0.19,7.64-4.82C153.46,70.89,153.21,65.95,153.21,65.95z"/>
	<path class="st27" d="M175.24,72.62c2.49,3.29-0.95,4.75-2.4,5.27c-1.84,0.66-5.94,1.24-8.16,1.29c-2.12,0.05-2.24,0.78-4.24,1.47
		c-0.22,0.08-0.45,0.15-0.67,0.23c2.29,1.02,4.09,1.99,7.63,1.41c7.92-1.32,9.98-3.88,9.73-6.68
		C177.03,74.67,176.6,73.52,175.24,72.62z"/>
	<path class="st26" d="M154.18,77.66c-0.5,0.87-0.4,1.99,0.05,2.89c0.58,1.15,1.26,2,2.78,2.77c2.66,1.35,3.71,0.96,5.04,0.62
		c0.52-0.13,1.05-0.33,1.41-0.73c0.48-0.54,0.53-1.32,0.57-2.04c0.06-1.17,2.08,0.36,2.13-0.82c0.01-0.12-2.15-2.63-4.45-3.57
		C158.65,75.55,155.15,75.97,154.18,77.66z"/>
	<path class="st27" d="M162.39,79.32c0,0,3.96-0.08,6.35,3.63c0,0-6.18,1.65-7.75,1.98c0,0-4.39-0.62-6.37-3.67
		C154.62,81.25,155.96,78.82,162.39,79.32z"/>
	<path class="st64" d="M174.76,98.78c0,0,10.48-2.78,15.83-4.78c5.58-2.09,6.57-3.68,7.09-5.15"/>
	<path class="st64" d="M133.49,90.94c0,0,4.21,1.48,13.23,0.49"/>
	<g>
		<path class="st26" d="M141.69,54.49c1.35,1.53,2.01,3.59,3.39,5.09c0.8,0.87,1.8,1.51,2.79,2.14c2.58,1.66,4.11,1.92,6.69,3.57
			c2.31,1.48,5.52,3.46,9.07,6.93c0.38,0.37,2.14,2.27,2.14,2.27s5.89,0.41,7.92-1.53c0.35-0.33,0.47-0.64,0.48-0.94
			c-1.42-0.63-3.53-1.03-6.64-0.96c-1.07,0.02-1.74,0.11-3,0.16c-0.62-1.19-2.14-2.89-2.14-2.89c-6.76-7.01-15.09-9.15-15.09-9.15
			s-2.36-4.84-5.37-5.22c-0.28-0.03-0.55-0.12-0.81-0.17c-0.21-0.04,0.72-0.11,0.51-0.15c-0.14-0.03-0.5-0.05-0.88-0.07
			C141.08,53.86,141.4,54.16,141.69,54.49z"/>
		<path class="st29" d="M140.44,53.36c0.43-0.04,0.79-0.08,0.62-0.1c-0.06-0.01-0.39-0.03-0.86-0.06
			C140.28,53.25,140.36,53.31,140.44,53.36z"/>
	</g>
	<path class="st29" d="M142.8,72.5l-3.24,1.65c0,0-1.68,0.12-1.13-0.59C138.42,73.56,138.85,72.75,142.8,72.5z"/>
	
		<ellipse transform="matrix(0.7283 -0.6852 0.6852 0.7283 -9.0109 101.5717)" class="st41" cx="123.59" cy="62.15" rx="1.28" ry="0.31"/>
	
		<ellipse transform="matrix(0.7283 -0.6852 0.6852 0.7283 -8.6592 103.1485)" class="st41" cx="125.75" cy="62.49" rx="1.28" ry="0.31"/>
	<g>
		<defs>
			<path id="SVGID_00000098918035535585994360000018301968340101184658_" d="M112.24,109.36c0,0,25.35,6.43,26.96,5.57l0.12,0.01
				c0.66-0.83,0.94-1.89,1.06-3.11c0.11-1.14,0.17-2.19,0.06-3.09c-0.26-2.12-1.24-3.54-2.98-4.33c-3.39-1.54-9.45-2.03-14.43-2.96
				c-0.06,2.45-1.41,6.27-11.6,7.53c-0.15,0.02-0.11,0.17-0.25,0.19L112.24,109.36z"/>
		</defs>
		<clipPath id="SVGID_00000095331781260318396260000008516616713250798748_">
			<use xlink:href="#SVGID_00000098918035535585994360000018301968340101184658_"  style="overflow:visible;"/>
		</clipPath>
		<g style="clip-path:url(#SVGID_00000095331781260318396260000008516616713250798748_);">
			<path class="st36" d="M125.17,101.71c0,0,0.25,5.19-2.39,8.33c0,0,4.53-0.58,4.62-8L125.17,101.71z"/>
			<path class="st36" d="M121.05,100.78c0,0,0.25,5.19-2.39,8.33c0,0,4.53-0.58,4.62-8L121.05,100.78z"/>
			<path class="st36" d="M129.13,102.43c0,0,0.25,5.19-2.39,8.33c0,0,4.53-0.58,4.62-8L129.13,102.43z"/>
			<path class="st36" d="M133.09,103.14c0,0,0.25,5.19-2.39,8.33c0,0,4.53-0.58,4.62-8L133.09,103.14z"/>
			<path class="st36" d="M137.05,103.86c0,0,0.25,5.19-2.39,8.33c0,0,4.53-0.58,4.62-8L137.05,103.86z"/>
			<path class="st36" d="M141,104.57c0,0,0.25,5.19-2.39,8.33c0,0,4.53-0.58,4.62-8L141,104.57z"/>
		</g>
	</g>
	<path class="st43" d="M169.79,95.37c-1.35-0.46-4.09-0.71-7.72-0.47c-13.43,0.89-38.18,5.85-38.18,5.85s-2.36,0.55-0.05,0.88
		c0,0,5.77,0.66,11.27,1.92c0,0,4.99,0.85,5.32,5.03c0,0,1.5-0.08,3.37-0.85c0,0,2.69,3.74,4.8,4.97c0,0,2.97,0.62,5.07,1.24
		c0,0,2.23,1.48,4.21,1.61c0,0,3.67-0.82,5.81,0c0,0,2.69,1.33,6.43,0.62c0,0,22.22-5.65,29.31-11.01c0,0.08,1.36-1.48-5.07-0.25
		c0,0-1.75,0.24-3.57,0.33c-1.33,0.06-2.7,0.18-3.4-0.62c0,0-0.46-1.41-3.2-2.27c-1.48-0.46-3.77-0.46-6.66-0.66
		c0,0-1.42-0.23-2.68-2.65C174.84,99.05,173.2,96,169.79,95.37z"/>
	<path class="st64" d="M122.9,100.96c0,0,20.86-3.83,30.88-5.32c0,0,11.5-2.27,17.33,0.08c0,0,2.58,1.16,3.94,3.63
		c0,0,0.84,1.29,3.96,1.61c0,0,7.01-0.41,9.07,2.64c0,0,0.23,0.73,2.6,0.62c0,0,10.33-1.37,10.83,0.55"/>
	<path class="st17" d="M180.37,101.74c-5.03,0.12-13.48,2.54-20.55,4.54c-0.96,0.27-1.94,0.55-2.93,0.55
		c-0.99,0-2.15-0.49-2.27-1.47c-0.14-1.14,1.17-1.85,2.26-2.21c5.46-1.82,11.97-3.35,17.65-4.27c0,0,0.31,0.51,1.15,1.25
		C176.26,100.66,178.38,101.61,180.37,101.74z"/>
	<path class="st17" d="M194.08,104.77c-7.14,1.52-12.73,4.11-19.6,5.87c-0.95,0.24-1.89,0.57-2.88,0.66
		c-0.98,0.09-2.18-0.13-2.36-0.79c-0.21-0.77,1.04-1.39,2.1-1.74c5.31-1.78,10.8-3.27,16.39-4.45
		C187.73,104.31,188.05,105.63,194.08,104.77z"/>
	<path class="st10" d="M186.27,84.05c-0.57,1.67-1.25,3.4-2.61,4.51c-1.01,0.83-2.3,1.23-3.55,1.61c-2.23,0.68-4.5,1.24-6.69,2.04
		c-1.95,0.71-0.84,1.08,2.01,0.42c1.88-0.44,3.76-0.9,5.64-1.35c1.47-0.35,3.33-0.57,4.22,0.65c0.23,0.31,0.44,0.74,0.83,0.75
		c0.39,0,0.61-0.42,0.79-0.77c0.57-1.1,1.6-1.95,2.79-2.29c0.45-0.13,0.93-0.19,1.35-0.42c0.41-0.23,0.74-0.7,0.62-1.16
		c-0.17-0.64-1-0.76-1.58-1.09c-1.3-0.75-1.26-2.61-1.05-4.1c0.27-1.89,0.54-3.77,0.81-5.66c0.07-0.5,0.13-1.05-0.15-1.46
		c-1.14-1.65-1.64,2.37-1.75,2.78C187.45,80.38,186.89,82.23,186.27,84.05z"/>
	<circle class="st10" cx="189.52" cy="72.27" r="0.99"/>
	
		<ellipse transform="matrix(0.0364 -0.9993 0.9993 0.0364 34.261 262.9396)" class="st10" cx="153.47" cy="113.7" rx="1.73" ry="3.22"/>
	
		<ellipse transform="matrix(0.0399 -0.9992 0.9992 0.0399 42.9263 275.4498)" class="st10" cx="164.8" cy="115.39" rx="1.44" ry="2.68"/>
	<g>
		<path class="st18" d="M154.3,114.98c-1.77-0.06-3.19-0.89-3.15-1.85c0.01-0.32,0.18-0.61,0.47-0.86
			c-0.82,0.29-1.36,0.78-1.38,1.35c-0.03,0.96,1.38,1.78,3.15,1.85c1.18,0.04,2.23-0.26,2.8-0.76
			C155.66,114.9,155.01,115,154.3,114.98z"/>
		
			<ellipse transform="matrix(0.0772 -0.997 0.997 0.0772 31.6708 219.9429)" class="st10" cx="134.66" cy="92.86" rx="1.25" ry="1.7"/>
		<path class="st18" d="M135.09,93.78c-0.94-0.05-1.69-0.65-1.67-1.34c0.01-0.23,0.1-0.44,0.25-0.62c-0.43,0.21-0.72,0.56-0.73,0.98
			c-0.02,0.69,0.73,1.29,1.67,1.34c0.63,0.03,1.18-0.19,1.48-0.55C135.82,93.73,135.47,93.8,135.09,93.78z"/>
		
			<ellipse transform="matrix(0.0772 -0.997 0.997 0.0772 34.7771 224.3343)" class="st10" cx="138.58" cy="93.38" rx="1.25" ry="1.7"/>
		<path class="st18" d="M139.02,94.3c-0.94-0.05-1.69-0.65-1.67-1.34c0.01-0.23,0.1-0.44,0.25-0.62c-0.43,0.21-0.72,0.56-0.73,0.98
			c-0.02,0.69,0.73,1.29,1.67,1.34c0.63,0.03,1.18-0.19,1.48-0.55C139.74,94.25,139.39,94.32,139.02,94.3z"/>
		
			<ellipse transform="matrix(0.0772 -0.997 0.997 0.0772 38.6636 228.6344)" class="st10" cx="142.85" cy="93.43" rx="1.25" ry="1.7"/>
		<path class="st18" d="M143.29,94.35c-0.94-0.05-1.69-0.65-1.67-1.34c0.01-0.23,0.1-0.44,0.25-0.62c-0.43,0.21-0.72,0.56-0.73,0.98
			c-0.02,0.69,0.73,1.29,1.67,1.34c0.63,0.03,1.18-0.19,1.48-0.55C144.01,94.3,143.66,94.37,143.29,94.35z"/>
		<path class="st18" d="M165.63,116.37c-1.48-0.06-2.65-0.75-2.62-1.55c0.01-0.24,0.13-0.47,0.33-0.66
			c-0.73,0.23-1.22,0.65-1.24,1.15c-0.03,0.8,1.14,1.49,2.62,1.55c1.03,0.04,1.94-0.24,2.4-0.68
			C166.7,116.32,166.18,116.39,165.63,116.37z"/>
	</g>
	<path class="st10" d="M89.29,102.62c2.87-2.76,7.12-3.37,11.08-3.82c3.48-0.39,7-0.77,10.46-0.26c0.62,0.09,1.3,0.25,1.67,0.76
		c0.52,0.71,0.12,1.79-0.6,2.3s-1.65,0.6-2.53,0.67c-2.41,0.2-4.55,0.15-6.58,0.38c-0.95,0.11-2.54,0.44-3.47,0.67
		c-2.43,0.6-4.19,1.62-6.02,2.46C90.79,106.93,85.83,105.94,89.29,102.62z"/>
	<path class="st35" d="M89.97,103.13c2.87-2.76,8.46-3.81,12.42-4.26c3.48-0.39,5.66-0.33,9.12,0.18c0.35,0.05,0.71,0.12,1.03,0.26
		c-0.01-0.02-0.02-0.04-0.04-0.06c-0.37-0.51-1.05-0.67-1.67-0.76c-3.46-0.51-5.64-0.57-9.12-0.18c-3.96,0.45-9.55,1.5-12.42,4.26
		c-1.69,1.62-1.37,2.69-0.31,3.22C88.57,105.2,88.73,104.31,89.97,103.13z"/>
	<path class="st32" d="M124,68.74c-0.66,1.87,0.88,3.42,3.53,3c1.85-0.29,3.4-1.47,4.76-3.48c0.57-0.85,1.51-2.72,1.63-3.44
		c-0.08-0.09,0.49-0.11,0.4-0.19C130.27,67.03,125.94,68.54,124,68.74z"/>
	<path class="st41" d="M122.12,68.94c3.36-0.58,7.13-2.07,9.53-3.21c0.79-0.38,2.76-1.21,4.04-3.38c-0.09,1.27-0.59,1.71-1.74,2.66
		c-0.98,0.81-2.59,1.44-3.76,1.92c-6.79,2.8-9.69,2.84-13.85,2.62c-0.9-0.05-3.7-0.4-4.4-1.55c0.75,0.45,2.15,0.84,3.38,1.02
		C117.66,69.35,120.37,69.24,122.12,68.94z"/>
	<path class="st44" d="M124.54,68.71c0,0-0.34,2,0.83,2.04c0,0,3.59,1.06,7.75-5.22C133.12,65.54,127.22,68.11,124.54,68.71z"/>
	<path class="st27" d="M141.16,65.59l10.24-3.15c-2.1,1.04-0.32,0.84-1.21,1.46c-1.07,0.74-2.64,3.3-2.64,3.3
		c-1.97,2.89-7.59,1.09-7.59,1.09S141.04,66.77,141.16,65.59z"/>
	<path d="M140.48,54.91l-0.27,4.25c0,0-1.28,1.61-2.08,2.1l0.19,4.29l1.81,0.08c0,0,0.08-2.14,0.08-4.25c0,0,2.23-0.62,1.73-7.05
		C141.95,54.33,135.78,55.32,140.48,54.91z"/>
	<path class="st17" d="M142.88,47.24l3.41,2.14c3.41,2.47,5.14,7.01,5.14,7.01c2.14,6.84-11.28,9.27-11.28,9.27l-0.34-4.32
		l1.81-2.18l0.33-4.21l-17.97,0.29c0.06-2.21,0.95-6.06,0.95-6.06S128.64,43.23,142.88,47.24z"/>
	<path class="st17" d="M140.14,65.66c0,0,2.96,0.34,5.47-0.14c5.5-1.04,10.5-4.5,8.76-6.73c0,0-1.09-1.73-8.43-1.48L140.14,65.66z"
		/>
	<path class="st16" d="M145.6,64.7c-1.86,0.35-3.96,0.26-4.93,0.19l-0.54,0.78c0,0,2.96,0.34,5.47-0.14
		c5.04-0.96,9.66-3.94,9.06-6.15C154.14,61.45,150.03,63.86,145.6,64.7z"/>
	<path class="st45" d="M140.23,61.38c0,0,4.26-0.73,4.26,2.35c0,0,0.06,0.65-0.56,1.05c-0.52,0.34-1.57,0.57-3.31,0.44L140.23,61.38
		z"/>
	<path class="st46" d="M143.98,64.76c0.61-0.45,0.5-1.01,0.5-1.01c0-2-1.79-2.39-3.05-2.42C141.53,62.3,142,64.3,143.98,64.76z"/>
	<path class="st47" d="M123.97,55.2l0.38,4.16c0,0,0.81-3.15,3.55-3.29c0,0,2.15-0.25,3.65,1.31c0,0,0.76,0.71,1.15,1.17
		c0,0,0.87,0.91,2.03,1.28c0,0,5.05,0.67,7.14-0.85l0.16-4.36L123.97,55.2z"/>
	
		<ellipse transform="matrix(0.0721 -0.9974 0.9974 0.0721 69.5922 188.4017)" class="st48" cx="136.05" cy="56.8" rx="2.5" ry="2.13"/>
	
		<ellipse transform="matrix(0.0721 -0.9974 0.9974 0.0721 68.9272 188.3116)" class="st49" cx="135.67" cy="57.11" rx="2.5" ry="2.13"/>
	
		<ellipse transform="matrix(0.0721 -0.9974 0.9974 0.0721 68.8466 188.1228)" class="st50" cx="135.53" cy="57.06" rx="1.78" ry="1.51"/>
	<circle class="st10" cx="134.69" cy="55.64" r="0.32"/>
	
		<ellipse transform="matrix(0.0721 -0.9974 0.9974 0.0721 67.8342 188.9881)" class="st51" cx="135.49" cy="58.04" rx="0.48" ry="0.68"/>
	<path class="st52" d="M124.34,59.36c0,0,0.85-1.29,2.72-1.4c0,0,1.86-0.25,4.66,1.07c0,0,1.4,0.69,3,0.78c0,0-1.23-0.4-2.63-1.97
		c0,0-0.66-0.8-1.73-1.32c-0.7-0.34-1.63-0.51-2.47-0.47C127.89,56.05,125.37,55.94,124.34,59.36z"/>
	<path class="st17" d="M125.37,53.18c0,0-3.79,1.61-2.89,2.27c0,0,13.07-0.62,20.65-0.82l-1.65-1.69L125.37,53.18z"/>
	<path class="st53" d="M139.69,59.78c0,0,0.53-3.58,0.47-5.03l3.63-0.21c0.04-0.18-0.11,2.62-1.92,4.44
		C141.86,58.98,141.11,59.62,139.69,59.78z"/>
	<polygon class="st54" points="123.98,55.38 143.8,54.54 143.77,54.86 124.01,55.71 	"/>
	<g>
		<path class="st34" d="M133.29,53.53c0,0-1.37-4.94,1.65-5.42c0,0,3.64-0.22,5.65,0.21c0,0,2.64,0.51,3.96,1.57l4.73,1
			c-0.66-0.6-1.7-1.06-3.3-1.23l-3.28-2.07c-13.71-3.86-17.49,1.73-17.49,1.73c-0.05-0.36-0.45,2-0.78,4.53l3.4-0.15L133.29,53.53z"
			/>
	</g>
	<path class="st17" d="M154.97,49.1c1.86,0.29-2.72,3.09-3.71,3.83c-1.34,1.01-1.38,1.3-2.1,2.82c-0.22,0.46-0.41,0.95-0.75,1.34
		c-0.34,0.39-0.86,0.67-1.36,0.55c-0.2-0.05-0.38-0.16-0.55-0.28c-1.48-1.04-4.86-5.75-3.16-7.32
		C144.37,49.1,154.97,49.12,154.97,49.1z"/>
	<path class="st34" d="M145.3,51.92c0,0,0.71-1,1.73-1.3c2.68-0.8,7.74-1.05,7.74-1.06c0.33-0.05,0.51-0.39-0.27-0.37
		c0,0.02-10.54,0.44-11.57,1.38c-0.24,0.22,0.35,0.2,0.91,0.38C145.01,51.34,145.3,51.92,145.3,51.92z"/>
	<path class="st39" d="M155.23,49.22c0.18,0.81-3.9,2.87-4.8,3.49c-1.58,1.08-1.63,1.39-2.48,3.01c-0.26,0.5-0.49,1.02-0.88,1.44
		c-0.12,0.12-0.25,0.23-0.4,0.33c0.11,0.07,0.23,0.12,0.36,0.15c0.5,0.12,1.02-0.16,1.36-0.55c0.34-0.39,0.53-0.88,0.75-1.34
		c0.72-1.51,0.76-1.8,2.1-2.82C152.17,52.22,156.23,49.71,155.23,49.22z"/>
	<path class="st34" d="M140.38,61.12c0,0,3.14-0.27,3.93,1.1c0,0,4.71-0.55,7.25-2.25c0,0,1.69-1.92-3.69-0.66
		C147.87,59.31,142.55,60.74,140.38,61.12z"/>
	<path class="st45" d="M145.99,56.4c1.07-5.85-3.11-5.66-3.11-5.66S145.52,53.54,145.99,56.4z"/>
	<g>
		<path class="st34" d="M77.76,104.34c-0.46-2.09,0.57-4.28,1.51-5.74c2.82-4.39,11.24-7.87,17.33-10.8
			c4.91-2.36,9.54-4.6,12.66-7.55c3.02-2.85,5.34-4.35,9.29-4.35c0.23,0,0.46,0,0.69,0.01c3.39,0.14,6.69,1.44,9.21,3.56
			c-0.02-0.02-0.04-0.05-0.06-0.07c-2.62-3.09-6.69-5.04-10.89-5.22c-0.24-0.01-0.47-0.01-0.69-0.01c-3.94,0-6.27,1.49-9.29,4.35
			c-3.12,2.95-7.76,5.18-12.66,7.55c-6.09,2.93-14.51,6.42-17.33,10.8c-0.94,1.46-1.97,3.65-1.51,5.74
			c0.33,1.52,1.33,2.67,2.51,3.51C78.18,105.59,77.9,105,77.76,104.34z"/>
	</g>
	<path class="st64" d="M85.63,89.79c0,0-3.96,6.72,5.32,5.73c0,0,2.51-0.21,5.57-0.74c4.23-0.74,10.58-2.14,15.21-1.86
		c7.92,0.49,10.81,3.75,11.25,8.04"/>
	<g>
		<path class="st66" d="M164.15,88.96c0.35,0.7,0.01,1.33-0.8,1.54l-0.66,0.17l0.64,1.29l-0.79,0.21l-1.81-3.65l1.45-0.38
			C162.99,87.93,163.8,88.25,164.15,88.96z M161.85,88.97l0.52,1.05l0.66-0.17c0.37-0.1,0.48-0.37,0.32-0.68
			c-0.15-0.3-0.47-0.46-0.84-0.37L161.85,88.97z"/>
		<path class="st66" d="M168.8,88.85c0.49,0.98,0.08,1.76-0.85,2c-0.94,0.25-1.93-0.17-2.42-1.15l-1.06-2.14l0.79-0.21l1.09,2.19
			c0.27,0.55,0.78,0.73,1.26,0.61c0.49-0.13,0.71-0.5,0.44-1.05l-1.09-2.19l0.79-0.21L168.8,88.85z"/>
		<path class="st66" d="M170.85,89.25l1.69-0.44l0.33,0.67l-2.48,0.65l-1.81-3.65l0.79-0.21L170.85,89.25z"/>
		<path class="st66" d="M176.13,86.95c0.49,0.98,0.08,1.76-0.85,2c-0.94,0.25-1.93-0.17-2.42-1.15l-1.06-2.14l0.79-0.21l1.09,2.19
			c0.27,0.55,0.78,0.73,1.26,0.61c0.49-0.13,0.71-0.5,0.44-1.05l-1.09-2.19l0.79-0.21L176.13,86.95z"/>
		<path class="st66" d="M179.67,83.54l1.85,3.71l-0.79,0.21l-0.97-1.95l-0.4,1.41l-0.26,0.07l-1.54-0.9l0.97,1.95l-0.79,0.21
			l-1.85-3.71l0.26-0.07l2.61,1.55l0.65-2.4L179.67,83.54z"/>
		<path class="st66" d="M183.19,86.81l-0.79,0.21l-1.81-3.65l0.79-0.21L183.19,86.81z"/>
	</g>
	<path class="st67" d="M128.78,53.83l1.25-0.87c0.64-0.37,0.7-1.06,0.7-1.06l0.09-1.97c0.04-0.69-0.41-0.97-0.41-0.97l-1.34-0.8
		c-0.5-0.27-0.78-0.24-0.83-0.24c-0.05,0-0.33,0.03-0.82,0.39l-1.31,1.05c0,0-0.44,0.36-0.38,1.04l0.15,1.94
		c0,0,0.09,0.67,0.73,0.92l1.26,0.63c0,0,0.18,0.08,0.44,0.06C128.33,53.98,128.6,53.94,128.78,53.83z"/>
	<path class="st57" d="M127.94,53.78c0.02,0.01,0.16,0.05,0.36,0.03l0.09-0.01c0.15-0.03,0.25-0.08,0.27-0.09l1.26-0.87
		c0.49-0.29,0.57-0.79,0.58-0.85l0.09-1.96c0.03-0.52-0.29-0.73-0.31-0.75l-1.34-0.8c-0.47-0.25-0.71-0.22-0.72-0.21l-0.01,0
		l-0.01,0c-0.01,0-0.25,0.02-0.71,0.35l-1.31,1.05c-0.01,0.01-0.33,0.28-0.28,0.8l0,0.01l0.15,1.93c0.01,0.05,0.1,0.54,0.6,0.74
		l0.01,0.01L127.94,53.78z"/>
	<g>
		<path class="st58" d="M127.91,53.77c0.02,0.01,0.17,0.05,0.36,0.03l0.09-0.01c0.15-0.03,0.25-0.08,0.27-0.09l1.26-0.87
			c0.49-0.29,0.57-0.8,0.58-0.85l0.09-1.96c0.03-0.52-0.29-0.73-0.31-0.75l-1.34-0.8c-0.47-0.25-0.71-0.22-0.72-0.21l-0.01,0
			l-0.01,0c-0.01,0-0.25,0.02-0.71,0.35l-1.31,1.05c-0.01,0.01-0.33,0.28-0.28,0.8l0,0.01l0.15,1.93c0.01,0.05,0.1,0.54,0.6,0.74
			l0.01,0.01L127.91,53.77z"/>
	</g>
	<path class="st10" d="M128.76,53.86l1.25-0.87c0.64-0.37,0.7-1.06,0.7-1.06l0.09-1.97c0.04-0.69-0.41-0.97-0.41-0.97l-1.34-0.8
		c-0.5-0.27-0.78-0.24-0.83-0.24c-0.05,0-0.33,0.03-0.82,0.39l-1.31,1.05c0,0-0.44,0.36-0.38,1.04l0.15,1.94
		c0,0,0.09,0.67,0.73,0.92l1.26,0.63c0,0,0.18,0.08,0.44,0.06C128.3,54,128.57,53.97,128.76,53.86z"/>
	
		<ellipse transform="matrix(0.9872 -0.1597 0.1597 0.9872 -6.11 21.0961)" class="st59" cx="128.22" cy="48.57" rx="0.63" ry="0.42"/>
	
		<ellipse transform="matrix(0.9872 -0.1597 0.1597 0.9872 -6.3621 21.1205)" class="st59" cx="128.25" cy="50.15" rx="0.63" ry="0.42"/>
	
		<ellipse transform="matrix(0.8993 -0.4374 0.4374 0.8993 -9.4473 60.4392)" class="st60" cx="126.48" cy="50.73" rx="0.39" ry="0.68"/>
	
		<ellipse transform="matrix(0.8993 -0.4374 0.4374 0.8993 -9.6152 61.0291)" class="st60" cx="127.68" cy="51.39" rx="0.39" ry="0.68"/>
	
		<ellipse transform="matrix(0.8993 -0.4374 0.4374 0.8993 -10.1414 60.6111)" class="st60" cx="126.51" cy="52.32" rx="0.39" ry="0.68"/>
	
		<ellipse transform="matrix(0.8993 -0.4374 0.4374 0.8993 -10.3093 61.201)" class="st60" cx="127.71" cy="52.98" rx="0.39" ry="0.68"/>
	
		<ellipse transform="matrix(0.4179 -0.9085 0.9085 0.4179 28.4753 148.4071)" class="st61" cx="130.05" cy="51.98" rx="0.72" ry="0.36"/>
	
		<ellipse transform="matrix(0.4179 -0.9085 0.9085 0.4179 26.9882 147.8591)" class="st61" cx="128.88" cy="52.87" rx="0.72" ry="0.36"/>
	
		<ellipse transform="matrix(0.4179 -0.9085 0.9085 0.4179 29.9387 147.4351)" class="st61" cx="130.02" cy="50.35" rx="0.72" ry="0.36"/>
	
		<ellipse transform="matrix(0.4179 -0.9085 0.9085 0.4179 28.4516 146.8871)" class="st61" cx="128.85" cy="51.24" rx="0.72" ry="0.36"/>
	
		<ellipse transform="matrix(0.9872 -0.1597 0.1597 0.9872 -6.2678 20.9238)" class="st59" cx="127.07" cy="49.47" rx="0.63" ry="0.42"/>
	
		<ellipse transform="matrix(0.9872 -0.1597 0.1597 0.9872 -6.2018 21.2958)" class="st59" cx="129.42" cy="49.24" rx="0.63" ry="0.42"/>
	<path class="st20" d="M131.62,76.94c-0.05,0.19,0.06,0.39,0.2,0.54c0.32,0.34,0.79,0.52,1.26,0.49c0.32-0.02,0.63-0.15,0.95-0.11
		c0.08,0.01,0.16,0.03,0.23,0.06c0.43,0.16,0.71,0.62,1.15,0.72c0.27,0.06,0.55-0.02,0.82-0.09c0.26-0.07,0.53-0.13,0.8-0.18
		c0.1-0.02,0.2-0.03,0.3-0.02c0.21,0.04,0.36,0.21,0.5,0.36c0.2,0.2,0.47,0.39,0.75,0.35c0.35-0.05,0.55-0.43,0.66-0.77
		c0.06-0.19,0.11-0.39,0.07-0.58c-0.08-0.3-0.38-0.48-0.68-0.57c-0.31-0.09-0.64-0.1-0.97-0.07c-0.17,0.02-0.34,0.05-0.5,0.1
		c-0.17,0.05-0.33,0.11-0.5,0.13c-0.17,0.01-0.36-0.03-0.48-0.16c-0.21-0.24-0.08-0.65-0.24-0.92c-0.1-0.17-0.3-0.25-0.5-0.27
		c-0.2-0.01-0.39,0.04-0.58,0.09c-0.3,0.08-0.66,0.16-0.9-0.03c-0.13-0.11-0.2-0.29-0.18-0.46c0.02-0.17,0.12-0.33,0.26-0.43
		c0.07-0.05,0.17-0.11,0.15-0.2c-0.02-0.08-0.12-0.11-0.2-0.11c-0.49-0.03-0.98,0.16-1.37,0.46c-0.39,0.3-0.69,0.7-0.95,1.12
		c-0.15,0.25-0.29,0.54-0.18,0.81c0.01,0.02,0.03,0.05,0.05,0.05c0.03,0,0.01-0.06-0.01-0.04"/>
</g>
<g>
	<polygon class="st5" points="150.64,29.45 151.99,32.18 155,32.62 152.82,34.74 153.34,37.74 150.64,36.32 147.95,37.74 
		148.47,34.74 146.29,32.62 149.3,32.18 	"/>
</g>
<g>
	<polygon class="st5" points="227.93,101 229.68,104.53 233.58,105.1 230.76,107.85 231.42,111.74 227.93,109.9 224.44,111.74 
		225.11,107.85 222.29,105.1 226.19,104.53 	"/>
</g>
<g>
	<polygon class="st5" points="73.64,75.45 74.99,78.18 78,78.62 75.82,80.74 76.34,83.74 73.64,82.32 70.95,83.74 71.47,80.74 
		69.29,78.62 72.3,78.18 	"/>
</g>
<g>
	<polygon class="st5" points="96.21,117.45 97.11,119.28 99.12,119.57 97.66,120.99 98.01,123 96.21,122.05 94.4,123 94.75,120.99 
		93.29,119.57 95.3,119.28 	"/>
</g>
<g>
	<polygon class="st5" points="207.14,64.3 208.03,66.09 210,66.38 208.57,67.77 208.91,69.74 207.14,68.81 205.38,69.74 
		205.72,67.77 204.29,66.38 206.26,66.09 	"/>
</g>
<g>
	<polygon class="st5" points="91.83,62.45 93.55,65.92 97.38,66.48 94.61,69.18 95.26,73 91.83,71.2 88.41,73 89.06,69.18 
		86.29,66.48 90.12,65.92 	"/>
</g>
<g>
	<polygon class="st5" points="208.64,114.45 209.99,117.18 213,117.62 210.82,119.74 211.34,122.74 208.64,121.32 205.95,122.74 
		206.47,119.74 204.29,117.62 207.3,117.18 	"/>
</g>
</svg>
