<svg id="Layer_1" data-name="Layer 1" xmlns="http://www.w3.org/2000/svg" viewBox="0 0 1160.28 449.74"><defs><style>.cls-1{fill:#ee985d;}.cls-2{fill:#4d4d4f;}.cls-3{fill:#522768;}</style></defs><title>pulumi_crosswalk_logo</title><path class="cls-1" d="M726.28,14.13A14.58,14.58,0,1,1,711.85-.67,14.56,14.56,0,0,1,726.28,14.13ZM246.89,25.81a10.13,10.13,0,0,0-10.07-9.29,10,10,0,0,0-4.52,1.11,23.62,23.62,0,0,0-44.83-3.73,15.64,15.64,0,0,0-24.12,13.15c0,4.52,3.53,5,9.3,5h69A5.26,5.26,0,0,0,247,26.68h0c0-.05,0-.1,0-.15A5.66,5.66,0,0,0,246.89,25.81Z"/><path class="cls-2" d="M0,409.41H25.49v6.23H7.33v10.3H23.45v6.23H7.33v17.57H0Zm74.32,11a24.59,24.59,0,0,1,1.57,9.11,25,25,0,0,1-1.55,9.14,18.84,18.84,0,0,1-4.18,6.6,17.44,17.44,0,0,1-6.2,4,22.11,22.11,0,0,1-15.16,0,17.3,17.3,0,0,1-6.23-4,19.21,19.21,0,0,1-4.22-6.6,27.3,27.3,0,0,1,0-18.25,19,19,0,0,1,4.28-6.6,17.57,17.57,0,0,1,6.25-4,21.71,21.71,0,0,1,15,0,17,17,0,0,1,6.2,4A19.65,19.65,0,0,1,74.32,420.44Zm-6.11,9.11a20.92,20.92,0,0,0-.82-6,13.08,13.08,0,0,0-2.36-4.6A10.67,10.67,0,0,0,61.28,416a11.37,11.37,0,0,0-5-1.05,11.5,11.5,0,0,0-5,1.05,10.56,10.56,0,0,0-3.76,3,13.64,13.64,0,0,0-2.35,4.59,22.43,22.43,0,0,0,0,12,13.23,13.23,0,0,0,2.35,4.6,10.71,10.71,0,0,0,3.76,2.94,11.5,11.5,0,0,0,5,1.05,11.37,11.37,0,0,0,5-1.05A10.67,10.67,0,0,0,65,440.17a13.08,13.08,0,0,0,2.36-4.6A20.92,20.92,0,0,0,68.21,429.55Zm51.85,15.57c.89,1.57,1.69,3.11,2.38,4.62h-8.2c-.74-1.39-1.53-2.8-2.39-4.22s-1.72-2.79-2.59-4.13-1.73-2.6-2.59-3.78-1.65-2.24-2.38-3.17c-.55,0-1,.05-1.4.05H98.23v15.25H90.9V410a41.25,41.25,0,0,1,5.7-.78c2-.14,3.83-.2,5.42-.2q8.73,0,13.35,3.2T120,422q0,8.2-8.09,11.12c.74.89,1.57,2,2.5,3.26s1.88,2.67,2.85,4.16S119.16,443.55,120.06,445.12Zm-7.74-23.19a6.58,6.58,0,0,0-.7-3.15,5.23,5.23,0,0,0-2-2,9.28,9.28,0,0,0-3.11-1.08,23.1,23.1,0,0,0-4-.32c-1.55,0-3,.06-4.31.17v13h3.2a34.4,34.4,0,0,0,4.72-.29,9.66,9.66,0,0,0,3.4-1,5.09,5.09,0,0,0,2.07-2A6.8,6.8,0,0,0,112.32,421.93Zm73.76,15.88q2.07,5.47,4.34,11.93H182.5c-.54-1.59-1.11-3.16-1.69-4.71s-1.15-3.14-1.69-4.77h-17c-.54,1.63-1.1,3.23-1.66,4.8s-1.12,3.13-1.66,4.68h-7.63q2.26-6.45,4.3-11.93t4-10.36q1.94-4.89,3.86-9.31t4-8.73h7q2,4.3,3.95,8.73t3.87,9.31Q184,432.34,186.08,437.81Zm-8.85-3.49q-1.86-5.18-3.61-9.66t-3-7.45q-1.33,3.09-3.06,7.51t-3.58,9.6Zm66.9-5.32c-.25-3.48-.54-6.87-.86-10.19s-.65-6.45-1-9.4h-6.61c-.85,1.48-1.8,3.28-2.85,5.42s-2.12,4.37-3.2,6.72-2.16,4.73-3.2,7.16l-2.91,6.72c-.9-2.06-1.87-4.3-2.94-6.72s-2.15-4.82-3.23-7.16-2.15-4.59-3.2-6.72-2-3.94-2.85-5.42h-6.79c-.35,2.8-.69,5.84-1,9.14s-.6,6.7-.86,10.21-.5,7.06-.71,10.62-.41,7-.57,10.36h7.22q.24-7,.56-14.49c.22-5,.55-9.78,1-14.43.43.85.93,1.91,1.51,3.17s1.21,2.61,1.87,4.05,1.33,2.93,2,4.48,1.33,3.05,2,4.51,1.24,2.82,1.78,4.1,1,2.37,1.4,3.26h5.47l1.39-3.23c.55-1.26,1.14-2.62,1.78-4.07l2-4.52q1-2.32,2-4.5c.66-1.46,1.28-2.81,1.87-4.05s1.08-2.31,1.51-3.2c.43,4.65.76,9.47,1,14.43s.4,9.8.56,14.49h7.22c-.16-3.33-.35-6.76-.57-10.27S244.39,432.47,244.13,429Zm47.17,8.81q2.06,5.47,4.33,11.93h-7.92q-.81-2.39-1.69-4.71t-1.69-4.77h-17c-.55,1.63-1.1,3.23-1.67,4.8L264,449.74h-7.62q2.26-6.45,4.3-11.93t4-10.36q2-4.89,3.87-9.31t3.95-8.73h7q2,4.3,4,8.73t3.87,9.31Q289.23,432.34,291.3,437.81Zm-8.85-3.49q-1.86-5.18-3.61-9.66t-3-7.45q-1.33,3.09-3.05,7.51t-3.58,9.6Zm36.95,1.31q2.82-4.15,5.73-8.09t5.65-7.27c1.82-2.23,3.37-4,4.65-5.44v-5.42H306.57v6.23H326q-1.57,1.8-3.35,4.1T319,424.57q-1.86,2.54-3.75,5.27c-1.26,1.82-2.47,3.63-3.64,5.41s-2.26,3.52-3.28,5.21-1.93,3.25-2.71,4.69v4.59h30.49v-6.22H314.43Q316.58,439.79,319.4,435.63Zm64.51-15.19a24.38,24.38,0,0,1,1.57,9.11,25,25,0,0,1-1.54,9.14,19,19,0,0,1-4.19,6.6,17.35,17.35,0,0,1-6.2,4,21.33,21.33,0,0,1-7.56,1.34,21.59,21.59,0,0,1-7.6-1.34,17.26,17.26,0,0,1-6.22-4,19.06,19.06,0,0,1-4.22-6.6,27.14,27.14,0,0,1,0-18.25,19,19,0,0,1,4.27-6.6,17.61,17.61,0,0,1,6.26-4,21.69,21.69,0,0,1,15,0,17,17,0,0,1,6.2,4A19.5,19.5,0,0,1,383.91,420.44Zm-6.11,9.11a20.93,20.93,0,0,0-.81-6,13.25,13.25,0,0,0-2.36-4.6,10.71,10.71,0,0,0-3.76-2.94,11.36,11.36,0,0,0-4.94-1.05,11.58,11.58,0,0,0-5,1.05,10.62,10.62,0,0,0-3.75,3,13.65,13.65,0,0,0-2.36,4.59,22.7,22.7,0,0,0,0,12,13.25,13.25,0,0,0,2.36,4.6,10.76,10.76,0,0,0,3.75,2.94,11.58,11.58,0,0,0,5,1.05,11.36,11.36,0,0,0,4.94-1.05,10.71,10.71,0,0,0,3.76-2.94,13.25,13.25,0,0,0,2.36-4.6A20.93,20.93,0,0,0,377.8,429.55Zm48.83,6.63c-1.32-2.09-2.83-4.35-4.51-6.78s-3.44-4.84-5.24-7.24-3.6-4.73-5.39-7-3.45-4.16-5-5.79h-6v40.33h7.21V420.88q2.44,2.91,5.15,6.54t5.33,7.51q2.61,3.87,5.06,7.68c1.63,2.55,3.1,4.92,4.42,7.13h6.23V409.41h-7.27Zm83.82-18.62c-.52,2.76-1.05,5.46-1.6,8.12s-1.08,5.22-1.63,7.68-1.1,4.74-1.68,6.84q-1.05-2.91-2.19-6.2t-2.27-6.69q-1.12-3.4-2.18-6.81t-2-6.55h-6.28q-.87,3.15-1.89,6.52t-2.13,6.78q-1.1,3.4-2.24,6.69c-.75,2.2-1.5,4.28-2.24,6.26-.58-2.1-1.16-4.38-1.74-6.87s-1.16-5.05-1.72-7.71-1.11-5.36-1.63-8.12-1-5.45-1.48-8.09h-7.86q2,10.95,4.5,21t5.6,19.29h7q2.2-5.92,4.43-12.28t4.37-13.38q4.22,13.91,8.72,25.66h7.06q3.08-9.19,5.58-19.29t4.53-21h-7.56C511.47,412.09,511,414.81,510.45,417.56ZM540,431.7h16.52v-6.11H540v-9.95h18.56v-6.23h-25.9v40.33H560v-6.22H540Zm62.61,0a9.94,9.94,0,0,1,1.75,6.05q0,6.24-4.54,9.34t-13.91,3.12q-3.2,0-6.46-.21a29.42,29.42,0,0,1-5.7-.84V410c.85-.15,1.76-.3,2.73-.43s2-.24,3-.32,2-.14,3-.18,1.93-.05,2.82-.05a39.14,39.14,0,0,1,6.81.55,17.32,17.32,0,0,1,5.44,1.83,9.56,9.56,0,0,1,3.58,3.38,9.77,9.77,0,0,1,1.28,5.18,8.53,8.53,0,0,1-1.37,4.88,9.62,9.62,0,0,1-3.81,3.26A10.59,10.59,0,0,1,602.6,431.7ZM581,425.82h5.18a14.84,14.84,0,0,0,6.57-1.19,4.36,4.36,0,0,0,2.39-4.28,4.26,4.26,0,0,0-2.48-4.13,14.62,14.62,0,0,0-6.43-1.22c-1.12,0-2.12,0-3,.06s-1.62.1-2.24.17Zm15.88,11.88q0-3.43-2.5-4.78a14.88,14.88,0,0,0-6.92-1.33H581v12.28c.81.07,1.68.13,2.61.17s1.79.06,2.57.06a29.1,29.1,0,0,0,4.21-.29,11.29,11.29,0,0,0,3.38-1,6.1,6.1,0,0,0,2.27-2A5.44,5.44,0,0,0,596.84,437.7Zm64.45-6.9a14.33,14.33,0,0,0-3.78-2.56q-2.24-1.08-5.09-2.13a30.62,30.62,0,0,1-3-1.22A13.8,13.8,0,0,1,647,423.5a5.9,5.9,0,0,1-1.57-1.72,4.53,4.53,0,0,1-.55-2.3,4,4,0,0,1,1.66-3.43,7.63,7.63,0,0,1,4.63-1.22,20.2,20.2,0,0,1,4.86.58,17.72,17.72,0,0,1,4.33,1.68l2.27-5.93a20.38,20.38,0,0,0-4.63-1.83,24.11,24.11,0,0,0-6.72-.85q-6.51,0-10.3,3.12a10.5,10.5,0,0,0-3.78,8.58,9.74,9.74,0,0,0,3.29,7.68A13.64,13.64,0,0,0,644,430.1c1.3.6,2.65,1.16,4,1.66s2.63.94,3.72,1.43a13.64,13.64,0,0,1,2.76,1.57,6.34,6.34,0,0,1,1.75,1.89,4.85,4.85,0,0,1,.61,2.5,4.43,4.43,0,0,1-1.8,3.78c-1.21.9-3.13,1.34-5.76,1.34a21,21,0,0,1-6.46-.87,24.73,24.73,0,0,1-4.25-1.75l-2.16,6a17.66,17.66,0,0,0,1.87.9,24.14,24.14,0,0,0,2.76,1,29.35,29.35,0,0,0,8.24,1.11q7.44,0,11.31-3a10.09,10.09,0,0,0,3.87-8.47,13,13,0,0,0-.81-4.86A9.94,9.94,0,0,0,661.29,430.8Zm24,.9h16.53v-6.11H685.24v-9.95H703.8v-6.23H677.91v40.33H705.2v-6.22h-20Zm62.91,13.42q1.33,2.36,2.39,4.62h-8.21c-.74-1.39-1.53-2.8-2.39-4.22s-1.71-2.79-2.59-4.13-1.73-2.6-2.59-3.78-1.65-2.24-2.38-3.17c-.55,0-1,.05-1.4.05h-4.65v15.25H719V410a41.19,41.19,0,0,1,5.71-.78c2-.14,3.82-.2,5.41-.2q8.73,0,13.35,3.2t4.63,9.77q0,8.2-8.09,11.12c.74.89,1.57,2,2.5,3.26s1.89,2.67,2.85,4.16S747.26,443.55,748.15,445.12Zm-7.74-23.19a6.46,6.46,0,0,0-.7-3.15,5.16,5.16,0,0,0-2-2,9.28,9.28,0,0,0-3.11-1.08,23,23,0,0,0-4-.32c-1.55,0-3,.06-4.3.17v13h3.2a34.35,34.35,0,0,0,4.71-.29,9.66,9.66,0,0,0,3.4-1,5,5,0,0,0,2.07-2A6.69,6.69,0,0,0,740.41,421.93Zm46.2-4.2c-1,2.84-2,5.63-3,8.38s-2,5.41-2.94,7.95-1.91,4.88-2.8,7q-1.41-3.19-2.86-7t-2.92-7.94c-1-2.74-1.95-5.52-2.92-8.36s-1.92-5.6-2.86-8.32h-8.09q3.5,10.3,7.54,20.6t8.42,19.73h7q4.4-9.42,8.42-19.73t7.59-20.6h-7.86Q788.06,413.49,786.61,417.73Zm22.82,32h7.33V409.41h-7.33Zm48.88-6.43a21,21,0,0,1-6.34.79,13.21,13.21,0,0,1-5.59-1.08,10.24,10.24,0,0,1-3.84-3,12.84,12.84,0,0,1-2.24-4.62,22.23,22.23,0,0,1-.73-5.88,19.69,19.69,0,0,1,.93-6.34,12.6,12.6,0,0,1,2.59-4.54A10.67,10.67,0,0,1,847,415.9a13.16,13.16,0,0,1,4.89-.9,19.09,19.09,0,0,1,5.62.79,17.09,17.09,0,0,1,4,1.65l2.16-6-1.4-.76a14.44,14.44,0,0,0-2.5-1,32.34,32.34,0,0,0-3.55-.84,25.16,25.16,0,0,0-4.54-.38,21.24,21.24,0,0,0-7.74,1.4,17.8,17.8,0,0,0-6.29,4.1,19.58,19.58,0,0,0-4.22,6.61,24.38,24.38,0,0,0-1.54,9,27.63,27.63,0,0,0,1.34,9,18.37,18.37,0,0,0,3.84,6.61,16.11,16.11,0,0,0,6.11,4.1,22.47,22.47,0,0,0,8.15,1.4,33.24,33.24,0,0,0,4.36-.27,26.07,26.07,0,0,0,3.67-.7,27.13,27.13,0,0,0,2.82-.9,9.77,9.77,0,0,0,1.89-.93l-2-6A25.28,25.28,0,0,1,858.31,443.31Zm26.54-11.61h16.53v-6.11H884.85v-9.95h18.56v-6.23H877.52v40.33h27.29v-6.22h-20Zm55.54-.9a14.17,14.17,0,0,0-3.78-2.56q-2.24-1.08-5.09-2.13a30.62,30.62,0,0,1-3-1.22,13.69,13.69,0,0,1-2.38-1.39,5.63,5.63,0,0,1-1.57-1.72,4.53,4.53,0,0,1-.56-2.3,4,4,0,0,1,1.66-3.43,7.65,7.65,0,0,1,4.63-1.22,20.08,20.08,0,0,1,4.86.58,17.72,17.72,0,0,1,4.33,1.68l2.27-5.93a20.47,20.47,0,0,0-4.62-1.83,24.13,24.13,0,0,0-6.73-.85q-6.51,0-10.3,3.12a10.5,10.5,0,0,0-3.78,8.58,9.74,9.74,0,0,0,3.29,7.68,13.64,13.64,0,0,0,3.43,2.24c1.3.6,2.65,1.16,4.05,1.66s2.64.94,3.72,1.43a14,14,0,0,1,2.77,1.57,6.3,6.3,0,0,1,1.74,1.89,4.85,4.85,0,0,1,.61,2.5,4.43,4.43,0,0,1-1.8,3.78c-1.2.9-3.12,1.34-5.76,1.34a21,21,0,0,1-6.46-.87,24.73,24.73,0,0,1-4.25-1.75l-2.15,6a16.47,16.47,0,0,0,1.86.9,24.84,24.84,0,0,0,2.76,1,29.35,29.35,0,0,0,8.24,1.11q7.44,0,11.32-3a10.09,10.09,0,0,0,3.87-8.47,13,13,0,0,0-.82-4.86A9.94,9.94,0,0,0,940.39,430.8Zm51.83-26.1-5-3.26a44.54,44.54,0,0,0-7.45,12.83,44.44,44.44,0,0,0,0,30.67,44.54,44.54,0,0,0,7.45,12.83l5-3.26a42,42,0,0,1-6-11.46,43,43,0,0,1,0-26.86A43.08,43.08,0,0,1,992.22,404.7Zm43.67,33.11q2.07,5.47,4.34,11.93h-7.92c-.54-1.59-1.11-3.16-1.69-4.71s-1.15-3.14-1.69-4.77h-17c-.54,1.63-1.1,3.23-1.66,4.8s-1.12,3.13-1.66,4.68h-7.63q2.26-6.45,4.31-11.93t4-10.36q1.95-4.89,3.86-9.31c1.29-2.95,2.6-5.86,4-8.73h7q2,4.3,4,8.73t3.87,9.31Q1033.83,432.34,1035.89,437.81Zm-8.84-3.49q-1.87-5.18-3.61-9.66t-3-7.45q-1.33,3.09-3,7.51t-3.58,9.6Zm63.66-16.76c-.52,2.76-1.06,5.46-1.6,8.12s-1.09,5.22-1.63,7.68-1.1,4.74-1.69,6.84c-.7-1.94-1.42-4-2.18-6.2s-1.51-4.42-2.27-6.69-1.48-4.54-2.18-6.81-1.36-4.45-2-6.55h-6.28q-.89,3.15-1.9,6.52c-.68,2.25-1.38,4.51-2.12,6.78s-1.48,4.5-2.24,6.69-1.5,4.28-2.24,6.26c-.58-2.1-1.16-4.38-1.75-6.87s-1.15-5.05-1.71-7.71-1.11-5.36-1.63-8.12-1-5.45-1.49-8.09H1048q2,10.95,4.5,21t5.6,19.29h7q2.21-5.92,4.42-12.28t4.37-13.38q4.23,13.91,8.73,25.66h7.06q3.07-9.19,5.58-19.29t4.53-21h-7.56Q1091.49,413.43,1090.71,417.56Zm44,13.24a14.39,14.39,0,0,0-3.79-2.56q-2.24-1.08-5.09-2.13a31.67,31.67,0,0,1-3-1.22,13.69,13.69,0,0,1-2.38-1.39,5.76,5.76,0,0,1-1.57-1.72,4.53,4.53,0,0,1-.56-2.3,4,4,0,0,1,1.66-3.43,7.65,7.65,0,0,1,4.63-1.22,20.08,20.08,0,0,1,4.86.58,17.72,17.72,0,0,1,4.33,1.68l2.27-5.93a20.28,20.28,0,0,0-4.62-1.83,24.13,24.13,0,0,0-6.73-.85q-6.51,0-10.29,3.12a10.48,10.48,0,0,0-3.79,8.58,10.2,10.2,0,0,0,.9,4.48,10.44,10.44,0,0,0,2.39,3.2,13.64,13.64,0,0,0,3.43,2.24c1.3.6,2.65,1.16,4.05,1.66s2.64.94,3.72,1.43a14,14,0,0,1,2.77,1.57,6.3,6.3,0,0,1,1.74,1.89,4.85,4.85,0,0,1,.61,2.5,4.43,4.43,0,0,1-1.8,3.78c-1.2.9-3.12,1.34-5.76,1.34a21,21,0,0,1-6.46-.87,24.73,24.73,0,0,1-4.25-1.75l-2.15,6a16.47,16.47,0,0,0,1.86.9,25.58,25.58,0,0,0,2.76,1,29.35,29.35,0,0,0,8.24,1.11q7.44,0,11.32-3a10.09,10.09,0,0,0,3.87-8.47,12.8,12.8,0,0,0-.82-4.86A10.05,10.05,0,0,0,1134.71,430.8Zm22.84-16.53a44.77,44.77,0,0,0-7.45-12.83l-4.95,3.26a43.08,43.08,0,0,1,6,11.49,43,43,0,0,1,0,26.86,42,42,0,0,1-6,11.46l4.95,3.26a44.77,44.77,0,0,0,7.45-12.83,44.44,44.44,0,0,0,0-30.67Z"/><path class="cls-3" d="M332.94,113.38V51.7a11.81,11.81,0,1,1,23.62,0v61.68a34.36,34.36,0,1,0,68.72,0V51.7a11.82,11.82,0,0,1,23.63,0v61.68a58,58,0,1,1-116,0Zm-34.89,58.08a11.85,11.85,0,0,0,11.81-11.81V11.81a11.82,11.82,0,0,0-23.63,0V159.65A11.85,11.85,0,0,0,298.05,171.46Zm413.67-.09a11.85,11.85,0,0,0,11.81-11.82V51.7a11.82,11.82,0,0,0-23.63,0V159.55A11.86,11.86,0,0,0,711.72,171.37Zm-448.57-58V51.7a11.81,11.81,0,1,0-23.62,0v61.68a34.36,34.36,0,0,1-68.72,0V51.7a11.82,11.82,0,0,0-23.63,0v61.68a58,58,0,1,0,116,0Zm390-15.51v61.68a11.82,11.82,0,1,0,23.63,0V97.87a57.94,57.94,0,0,0-104.16-35,57.94,57.94,0,0,0-104.16,35v61.68a11.82,11.82,0,1,0,23.63,0V97.87a34.36,34.36,0,0,1,68.72,0v61.68a11.85,11.85,0,0,0,11.81,11.82h0a12.29,12.29,0,0,0,2.37-.24,12.72,12.72,0,0,0,2.22-.69A11.9,11.9,0,0,0,581,167.9a11.75,11.75,0,0,0,3.47-8.35V97.87a34.36,34.36,0,1,1,68.72,0Zm-544.27,7.76a42.12,42.12,0,0,1-42.12,42.11,11.82,11.82,0,0,0,0,23.63A65.75,65.75,0,1,0,1.05,105.63h0V210.15a11.82,11.82,0,1,0,23.63,0V105.63h0a42.12,42.12,0,1,1,84.23,0ZM1156.46,328.82l-63.86-58.67,43.23-39.28a11.82,11.82,0,1,0-15.9-17.5l-41.31,37.54V188a11.82,11.82,0,0,0-23.63,0v48.55a11.82,11.82,0,0,0-12.65,19.57L1055,267.71v4.66l-11,10a11.82,11.82,0,0,0,11,20.16v33.25a11.82,11.82,0,0,0,23.63,0V289.42l61.84,56.81a11.82,11.82,0,1,0,16-17.41ZM109,239.42a41.9,41.9,0,0,1,29.32,11.89,11.83,11.83,0,0,0,16.46-17,65.8,65.8,0,1,0,0,94.5,11.82,11.82,0,0,0-16.46-17A42.15,42.15,0,1,1,109,239.42Zm870.58-14.7V335.55a11.83,11.83,0,0,1-23.65,0v-3.5a65.81,65.81,0,1,1,0-101v-6.38a11.83,11.83,0,0,1,23.65,0ZM956,281.57a42.15,42.15,0,1,0-42.15,42.15A42.2,42.2,0,0,0,956,281.57Zm-685.69-51a57.78,57.78,0,0,0-72.93-3.47v-2.36a11.82,11.82,0,0,0-23.64,0V326.56h0v9a11.82,11.82,0,1,0,23.64,0V273.77a34.28,34.28,0,0,1,57.17-25.59,11.82,11.82,0,1,0,15.76-17.63Zm135.08,51a65.8,65.8,0,1,1-65.8-65.8A65.88,65.88,0,0,1,405.36,281.57Zm-23.65,0a42.15,42.15,0,1,0-42.15,42.15A42.2,42.2,0,0,0,381.71,281.57Zm116.05-1.29c-8.53-6.89-20.37-10.53-34.26-10.53-8.54,0-22.86-2-22.86-15.17,0-9.07,9.19-15.16,22.86-15.16,9.7,0,18.88,3.17,23.94,8.27A11.82,11.82,0,1,0,504.22,231c-9.63-9.7-24.47-15.26-40.72-15.26-26.95,0-46.5,16.33-46.5,38.81a36.25,36.25,0,0,0,12.64,28.08c8.22,7,19.93,10.74,33.86,10.74,17.79,0,24.13,7.83,24.13,15.16,0,8.65-10.37,15.16-24.13,15.16-11.69,0-23.19-4.29-27.14-8.27a11.82,11.82,0,1,0-16.78,16.66c7.54,7.6,24,15.26,43.92,15.26,13.06,0,24.59-3.59,33.34-10.39,9.31-7.23,14.44-17.33,14.44-28.42A35.75,35.75,0,0,0,497.76,280.28Zm105.75,0c-8.53-6.89-20.37-10.53-34.26-10.53-8.54,0-22.86-2-22.86-15.17,0-9.07,9.19-15.16,22.86-15.16,9.7,0,18.88,3.17,23.94,8.27A11.82,11.82,0,0,0,610,231c-9.62-9.7-24.47-15.26-40.72-15.26-27,0-46.5,16.33-46.5,38.81a36.25,36.25,0,0,0,12.64,28.08c8.22,7,19.93,10.74,33.86,10.74,17.79,0,24.13,7.83,24.13,15.16,0,8.65-10.37,15.16-24.13,15.16-11.69,0-23.19-4.29-27.14-8.27a11.82,11.82,0,1,0-16.78,16.66c7.54,7.6,24,15.26,43.92,15.26,13.06,0,24.59-3.59,33.34-10.39,9.31-7.23,14.44-17.33,14.44-28.42A35.75,35.75,0,0,0,603.51,280.28Zm409.66-104.12A11.85,11.85,0,0,0,1001.35,188V335.81a11.82,11.82,0,0,0,23.63,0V188A11.84,11.84,0,0,0,1013.17,176.16ZM822.36,219.61a11.5,11.5,0,0,0-11.47,11.46v59.86a33.34,33.34,0,0,1-66.68,0V231.07a11.49,11.49,0,0,0-11.46-11.46h0a11.29,11.29,0,0,0-4.45.9,11.72,11.72,0,0,0-3.65,2.47,11.4,11.4,0,0,0-3.37,8.09v59.86a33.34,33.34,0,1,1-66.68,0V231.07a11.47,11.47,0,0,0-22.93,0v59.86a56.22,56.22,0,0,0,101.08,33.94,56.22,56.22,0,0,0,101.07-33.94V231.07A11.5,11.5,0,0,0,822.36,219.61Z"/></svg>