<?xml version="1.0" encoding="utf-8"?>
<!-- Generator: Adobe Illustrator 22.1.0, SVG Export Plug-In . SVG Version: 6.00 Build 0)  -->
<svg version="1.1" id="Layer_1" xmlns="http://www.w3.org/2000/svg" xmlns:xlink="http://www.w3.org/1999/xlink" x="0px" y="0px"
	 viewBox="0 0 602 203.8" style="enable-background:new 0 0 602 203.8;" xml:space="preserve">
<style type="text/css">
	.st0{fill:url(#SVGID_1_);}
	.st1{fill:#333333;}
</style>
<g>
	<g>
		<linearGradient id="SVGID_1_" gradientUnits="userSpaceOnUse" x1="36.8238" y1="101.8763" x2="194.6714" y2="101.8763">
			<stop  offset="0" style="stop-color:#E17343"/>
			<stop  offset="1" style="stop-color:#DB3554"/>
		</linearGradient>
		<path class="st0" d="M93.6,36.8c-10.2,0-18.4,8.3-18.4,18.4c0,10.1,8.3,18.4,18.4,18.4c10.2,0,18.4-8.3,18.4-18.4
			C112,45.1,103.7,36.8,93.6,36.8z M93.6,68.5c-7.3,0-13.3-5.9-13.3-13.3c0-7.3,6-13.3,13.3-13.3c7.3,0,13.3,5.9,13.3,13.3
			C106.8,62.6,100.9,68.5,93.6,68.5z M57.3,93.7l-10.4-7.8l1.5-2.1c6.1-8.1,17.7-9.8,25.8-3.7l0.1,0c-1.3,0.7-2.7,1.4-3.9,2.2
			C64.9,85.6,60.6,89.5,57.3,93.7z M89.9,149.8l-0.3,4.6l-3.7-2.6c-2.7-1.9-5.6-2.9-8.1-2.9c-1.3,0-3,0.3-4.4,1.6
			c-2.5,2.5-2,7.8,1.4,12.5l2.6,3.7l-4.6,0.3c-0.4,0-0.8,0-1.2,0c-4.9,0-9.5-1.9-13-5.4c-3.5-3.5-5.4-8.1-5.4-13
			c0-4.9,1.9-9.5,5.4-13c3.5-3.5,8.1-5.4,13-5.4c4.9,0,9.5,1.9,13,5.4C88.3,139.2,90.3,144.4,89.9,149.8z M100.7,53.2
			c0.2,0.6,0.3,1.3,0.3,2c0,4.1-3.3,7.4-7.4,7.4c-4.1,0-7.4-3.3-7.4-7.4c0-4.1,3.3-7.4,7.4-7.4c0.4,0,0.8,0.1,1.2,0.1
			c-0.1,0.4-0.2,0.9-0.2,1.4c0,2.4,1.9,4.3,4.3,4.3C99.5,53.6,100.1,53.5,100.7,53.2z M57.5,129.7c-0.9,0.7-1.8,1.4-2.6,2.2
			c-3,3-5.1,6.6-6.1,10.6l-1.1-1.5c-3-3.9-4.3-8.8-3.6-13.6c0.6-4.6,2.9-8.8,6.5-11.7l-13.7,0v-2.6c0-10.2,8.3-18.4,18.4-18.4h1.3
			c-3.8,5.2-5.7,11-5.7,16.9c0,1.2,0.1,2.4,0.3,3.6C51.8,120.3,54,125.2,57.5,129.7z M137.9,36.8c-10.2,0-18.4,8.3-18.4,18.4
			c0,10.1,8.3,18.4,18.4,18.4c10.2,0,18.4-8.3,18.4-18.4C156.3,45.1,148.1,36.8,137.9,36.8z M137.9,68.5c-7.3,0-13.3-5.9-13.3-13.3
			c0-7.3,6-13.3,13.3-13.3c7.3,0,13.3,5.9,13.3,13.3C151.2,62.6,145.2,68.5,137.9,68.5z M161.1,82.3c-1.3-0.8-2.6-1.5-3.9-2.2l0.1,0
			c8.1-6.1,19.7-4.5,25.8,3.7l1.5,2.1l-10.4,7.8C170.9,89.5,166.5,85.6,161.1,82.3z M146.9,135.5c3.5-3.5,8.1-5.4,13-5.4
			c4.9,0,9.6,1.9,13,5.4c3.5,3.5,5.4,8.1,5.4,13c0,4.9-1.9,9.5-5.4,13c-3.5,3.5-8.1,5.4-13,5.4c-0.4,0-0.8,0-1.2,0l-4.6-0.3l2.6-3.7
			c3.3-4.7,3.9-10,1.4-12.5c-1.3-1.3-3.1-1.6-4.4-1.6c-2.6,0-5.4,1-8.1,2.9l-3.7,2.6l-0.3-4.6C141.2,144.4,143.2,139.2,146.9,135.5z
			 M145,53.2c0.2,0.6,0.3,1.3,0.3,2c0,4.1-3.3,7.4-7.4,7.4c-4.1,0-7.4-3.3-7.4-7.4c0-4.1,3.3-7.4,7.4-7.4c0.4,0,0.8,0.1,1.2,0.1
			c-0.1,0.4-0.2,0.9-0.2,1.4c0,2.4,1.9,4.3,4.3,4.3C143.8,53.6,144.5,53.5,145,53.2z M157.9,88.5c-11.2-6.8-26.2-10.6-42.1-10.6
			c-16,0-31,3.8-42.1,10.6c-10.5,6.4-16.2,14.6-16.2,23.1c0,5.2,2.1,10.2,6.1,14.8c2.5-0.9,5.2-1.4,8-1.4c6.3,0,12.2,2.4,16.6,6.9
			c3.1,3.1,5.2,6.9,6.2,11.1c6.7,1.6,13.9,2.4,21.4,2.4c7.4,0,14.6-0.8,21.4-2.4c1-4.1,3.1-8,6.2-11.1c4.5-4.4,10.4-6.9,16.6-6.9
			c2.8,0,5.5,0.5,8,1.4c4-4.6,6.1-9.6,6.1-14.8C174.1,103.1,168.3,94.9,157.9,88.5z M115.7,105.4c-7.2,0-13.1-5.9-13.1-13.1h26.2
			C128.8,99.5,123,105.4,115.7,105.4z M194.7,115.7l-13.7,0c3.6,3,5.9,7.1,6.5,11.7c0.7,4.9-0.6,9.7-3.6,13.6l-1.1,1.5
			c-1-4-3.1-7.6-6.1-10.6c-0.8-0.8-1.7-1.5-2.6-2.2c3.5-4.5,5.7-9.4,6.3-14.5c0.2-1.2,0.3-2.4,0.3-3.6c0-6-2-11.7-5.7-16.9h1.3
			c10.2,0,18.4,8.3,18.4,18.4V115.7z"/>
	</g>
</g>
<g>
	<path class="st1" d="M267.5,73c5.7,0,10.5,0.7,14.3,2.1c3.9,1.4,7,3.4,9.3,6c2.3,2.6,4,5.7,5,9.3c1,3.6,1.5,7.6,1.5,12v45
		c-2.6,0.6-6.6,1.3-12,2.1c-5.3,0.8-11.4,1.2-18.1,1.2c-4.4,0-8.5-0.4-12.2-1.3c-3.7-0.8-6.8-2.2-9.4-4.1c-2.6-1.9-4.6-4.4-6.1-7.4
		c-1.5-3-2.2-6.8-2.2-11.2c0-4.3,0.8-7.8,2.5-10.8c1.7-2.9,3.9-5.3,6.7-7.2c2.8-1.8,6.1-3.2,9.9-4c3.7-0.8,7.6-1.2,11.7-1.2
		c1.9,0,3.9,0.1,6,0.4c2.1,0.2,4.3,0.6,6.7,1.2v-2.8c0-2-0.2-3.9-0.7-5.7c-0.5-1.8-1.3-3.4-2.5-4.8c-1.2-1.4-2.7-2.4-4.7-3.2
		c-1.9-0.8-4.4-1.1-7.3-1.1c-4,0-7.6,0.3-10.9,0.9c-3.3,0.6-6,1.2-8.1,2l-2.1-13.9c2.2-0.8,5.3-1.5,9.5-2.3
		C258.4,73.4,262.8,73,267.5,73z M269,137c5.3,0,9.3-0.3,12.1-0.8v-19c-0.9-0.3-2.3-0.6-4.1-0.8c-1.8-0.3-3.8-0.4-6-0.4
		c-1.9,0-3.8,0.1-5.7,0.4c-1.9,0.3-3.7,0.8-5.2,1.6c-1.6,0.8-2.8,1.8-3.8,3.2c-0.9,1.4-1.4,3.1-1.4,5.2c0,4.1,1.3,6.9,3.8,8.4
		C261.1,136.2,264.6,137,269,137z"/>
	<path class="st1" d="M334.9,53.1c0,3.2-1,5.8-3.1,7.7c-2.1,1.9-4.5,2.8-7.4,2.8c-2.9,0-5.4-0.9-7.5-2.8c-2.1-1.9-3.1-4.4-3.1-7.7
		c0-3.3,1-5.9,3.1-7.8c2.1-1.9,4.6-2.8,7.5-2.8c2.8,0,5.3,0.9,7.4,2.8C333.9,47.2,334.9,49.8,334.9,53.1z M333.1,149h-17.2V74.8
		h17.2V149z"/>
	<path class="st1" d="M374,149c-4.7-9.7-9.6-20.9-14.6-33.6c-5-12.6-9.5-26.2-13.6-40.6h18.3c1,4.2,2.3,8.6,3.6,13.4
		c1.4,4.8,2.8,9.6,4.4,14.3c1.6,4.8,3.2,9.4,4.8,13.9c1.7,4.5,3.2,8.5,4.6,12.1c1.4-3.6,2.9-7.6,4.6-12.1c1.6-4.5,3.2-9.1,4.8-13.9
		c1.6-4.8,3.1-9.6,4.5-14.3c1.4-4.8,2.7-9.2,3.7-13.4h17.7c-4.1,14.5-8.6,28-13.6,40.6c-5,12.6-9.9,23.8-14.6,33.6H374z"/>
	<path class="st1" d="M420.9,112.3c0-6.5,1-12.2,2.9-17.2c1.9-4.9,4.5-9,7.7-12.3c3.2-3.3,6.9-5.7,11.1-7.4
		c4.2-1.7,8.4-2.5,12.8-2.5c10.2,0,18.2,3.2,23.9,9.5c5.7,6.3,8.6,15.8,8.6,28.4c0,0.9,0,2-0.1,3.2c0,1.2-0.1,2.2-0.2,3.2h-48.9
		c0.5,6,2.6,10.6,6.3,13.8c3.7,3.3,9.2,4.9,16.2,4.9c4.2,0,8-0.4,11.4-1.1c3.5-0.8,6.2-1.6,8.2-2.4l2.3,14c-0.9,0.5-2.2,1-3.9,1.5
		c-1.7,0.5-3.5,1-5.7,1.4c-2.1,0.4-4.4,0.8-6.9,1.1c-2.5,0.3-5,0.4-7.5,0.4c-6.5,0-12.2-1-17-2.9c-4.8-1.9-8.8-4.6-11.9-8.1
		c-3.1-3.5-5.4-7.5-7-12.2C421.7,123,420.9,117.9,420.9,112.3z M470.7,104.6c0-2.4-0.3-4.6-1-6.7c-0.7-2.1-1.6-4-2.9-5.5
		c-1.3-1.6-2.8-2.8-4.7-3.7c-1.8-0.9-4-1.3-6.6-1.3c-2.6,0-5,0.5-7,1.5c-2,1-3.7,2.3-5,3.9c-1.4,1.6-2.4,3.5-3.2,5.5
		c-0.8,2.1-1.3,4.2-1.6,6.4H470.7z"/>
	<path class="st1" d="M503.2,77.2c3.3-0.9,7.6-1.8,12.9-2.7c5.3-0.9,11.2-1.3,17.6-1.3c6.1,0,11.1,0.8,15.2,2.5c4.1,1.7,7.3,4,9.7,7
		c2.4,3,4.1,6.6,5.1,10.8c1,4.2,1.5,8.8,1.5,13.8V149H548v-39c0-4-0.3-7.4-0.8-10.1c-0.5-2.8-1.4-5.1-2.6-6.8
		c-1.2-1.7-2.8-3-4.8-3.8c-2-0.8-4.5-1.2-7.4-1.2c-2.2,0-4.4,0.1-6.8,0.4c-2.4,0.3-4.1,0.5-5.2,0.7V149h-17.2V77.2z"/>
</g>
</svg>
