<svg width="32" height="32" viewBox="0 0 32 32" fill="none" xmlns="http://www.w3.org/2000/svg">
<g clip-path="url(#clip0)">
<path d="M9.4828 14.7977C9.33596 14.6058 9.11916 14.4799 8.87986 14.4476C8.64054 14.4154 8.3982 14.4793 8.20586 14.6255C8.09272 14.7148 8.00144 14.8288 7.93902 14.9588L0.0988088 30.66C-0.0122352 30.8826 -0.0304746 31.14 0.0480998 31.376C0.126674 31.612 0.295632 31.807 0.517836 31.9184C0.647718 31.9842 0.79131 32.0182 0.936862 32.0178H11.8602C12.0352 32.0222 12.2076 31.9756 12.3565 31.8834C12.5053 31.7912 12.6241 31.6576 12.6983 31.499C15.0558 26.6244 13.6267 19.2131 9.4828 14.7977Z" fill="url(#paint0_linear)"/>
<path d="M15.2454 0.509484C13.2909 3.52024 12.1518 6.98788 11.9399 10.5722C11.7281 14.1566 12.4506 17.7345 14.0368 20.955L19.3033 31.499C19.3811 31.6548 19.5007 31.7858 19.6487 31.8774C19.7967 31.9692 19.9673 32.0176 20.1414 32.0178H31.0626C31.1856 32.018 31.3076 31.994 31.4216 31.947C31.5354 31.8998 31.6388 31.8308 31.726 31.7436C31.813 31.6564 31.882 31.5528 31.929 31.4388C31.976 31.325 32 31.2028 31.9998 31.0794C31.9998 30.934 31.9666 30.7906 31.9028 30.66L16.8399 0.505068C16.7684 0.353964 16.6555 0.226284 16.5144 0.136875C16.3732 0.0474648 16.2096 0 16.0426 0C15.8756 0 15.712 0.0474648 15.5709 0.136875C15.4297 0.226284 15.3168 0.353964 15.2454 0.505068V0.509484Z" fill="#2684FF"/>
</g>
<defs>
<linearGradient id="paint0_linear" x1="13.7988" y1="17.1974" x2="5.50676" y2="31.5444" gradientUnits="userSpaceOnUse">
<stop stop-color="#0052CC"/>
<stop offset="0.92" stop-color="#2684FF"/>
</linearGradient>
<clipPath id="clip0">
<rect width="32" height="32" fill="white"/>
</clipPath>
</defs>
</svg>
