<svg width="32" height="32" viewBox="0 0 32 32" fill="none" xmlns="http://www.w3.org/2000/svg">
<path d="M9.0949 12.9894C9.0949 13.3789 9.137 13.6947 9.2107 13.9262C9.2949 14.1578 9.40016 14.4105 9.54754 14.6841C9.60016 14.7684 9.62122 14.8526 9.62122 14.9262C9.62122 15.0315 9.55806 15.1368 9.42122 15.242L8.75806 15.6841C8.66332 15.7473 8.56858 15.7789 8.48438 15.7789C8.37912 15.7789 8.27384 15.7262 8.16858 15.6315C8.02122 15.4736 7.8949 15.3052 7.78964 15.1368C7.68438 14.9578 7.57912 14.7578 7.46332 14.5157C6.64228 15.4841 5.6107 15.9684 4.36858 15.9684C3.48438 15.9684 2.77912 15.7157 2.26332 15.2105C1.74753 14.7052 1.48438 14.0315 1.48438 13.1894C1.48438 12.2947 1.80016 11.5684 2.44226 11.021C3.08438 10.4736 3.937 10.1999 5.02122 10.1999C5.37912 10.1999 5.74754 10.2315 6.137 10.2841C6.52648 10.3368 6.92648 10.421 7.34754 10.5157V9.7473C7.34754 8.9473 7.17912 8.3894 6.8528 8.0631C6.51596 7.73678 5.94754 7.57888 5.137 7.57888C4.76858 7.57888 4.38964 7.62098 4.00016 7.71572C3.6107 7.81046 3.23174 7.92624 2.86332 8.07362C2.6949 8.1473 2.56858 8.1894 2.4949 8.21046C2.42122 8.23152 2.36858 8.24204 2.32648 8.24204C2.17912 8.24204 2.10542 8.13678 2.10542 7.91572V7.39994C2.10542 7.23152 2.12648 7.1052 2.17912 7.03152C2.23174 6.95782 2.32648 6.88414 2.47384 6.81046C2.84226 6.62098 3.28438 6.4631 3.80016 6.33678C4.31596 6.19994 4.86332 6.13678 5.44226 6.13678C6.6949 6.13678 7.6107 6.42098 8.20016 6.9894C8.77912 7.55782 9.07384 8.42098 9.07384 9.57888V12.9894H9.0949ZM4.82122 14.5894C5.16858 14.5894 5.52648 14.5262 5.90542 14.3999C6.28438 14.2736 6.62122 14.042 6.90542 13.7262C7.07384 13.5262 7.20016 13.3052 7.26332 13.0526C7.32648 12.7999 7.36858 12.4947 7.36858 12.1368V11.6947C7.06332 11.621 6.737 11.5578 6.40016 11.5157C6.06332 11.4736 5.737 11.4526 5.4107 11.4526C4.70542 11.4526 4.18964 11.5894 3.84226 11.8736C3.4949 12.1578 3.32648 12.5578 3.32648 13.0841C3.32648 13.5789 3.4528 13.9473 3.71596 14.1999C3.96858 14.4631 4.337 14.5894 4.82122 14.5894ZM13.2738 15.7262C13.0844 15.7262 12.9581 15.6947 12.8738 15.621C12.7896 15.5578 12.716 15.4105 12.6528 15.2105L10.1791 7.07362C10.116 6.8631 10.0844 6.72624 10.0844 6.65256C10.0844 6.48414 10.1686 6.3894 10.337 6.3894H11.3686C11.5686 6.3894 11.7054 6.42098 11.7791 6.49468C11.8633 6.55782 11.9265 6.7052 11.9896 6.9052L13.7581 13.8736L15.4002 6.9052C15.4528 6.69468 15.516 6.55782 15.6002 6.49468C15.6844 6.43152 15.8317 6.3894 16.0212 6.3894H16.8633C17.0633 6.3894 17.2002 6.42098 17.2844 6.49468C17.3686 6.55782 17.4423 6.7052 17.4844 6.9052L19.1475 13.9578L20.9686 6.9052C21.0318 6.69468 21.1054 6.55782 21.1792 6.49468C21.2634 6.43152 21.4002 6.3894 21.5896 6.3894H22.5686C22.737 6.3894 22.8318 6.47362 22.8318 6.65256C22.8318 6.7052 22.8212 6.75782 22.8106 6.82098C22.8002 6.88414 22.7792 6.96836 22.737 7.08414L20.2002 15.221C20.137 15.4315 20.0634 15.5684 19.9791 15.6315C19.8949 15.6947 19.7581 15.7368 19.5791 15.7368H18.6738C18.4738 15.7368 18.337 15.7052 18.2528 15.6315C18.1686 15.5578 18.0949 15.421 18.0528 15.2105L16.4212 8.42098L14.8002 15.1999C14.7475 15.4105 14.6844 15.5473 14.6002 15.621C14.516 15.6947 14.3686 15.7262 14.1791 15.7262H13.2738ZM26.8002 16.0105C26.2528 16.0105 25.7054 15.9473 25.1792 15.821C24.6528 15.6947 24.2422 15.5578 23.9686 15.3999C23.8002 15.3052 23.6844 15.1999 23.6422 15.1052C23.6002 15.0105 23.5792 14.9052 23.5792 14.8105V14.2736C23.5792 14.0526 23.6634 13.9473 23.8212 13.9473C23.8844 13.9473 23.9476 13.9578 24.0106 13.9789C24.0738 13.9999 24.1686 14.042 24.2738 14.0841C24.6318 14.242 25.0212 14.3684 25.4318 14.4526C25.8528 14.5368 26.2634 14.5789 26.6844 14.5789C27.3476 14.5789 27.8634 14.4631 28.2212 14.2315C28.5792 13.9999 28.7686 13.6631 28.7686 13.2315C28.7686 12.9368 28.6738 12.6947 28.4844 12.4947C28.295 12.2947 27.937 12.1157 27.4212 11.9473L25.895 11.4736C25.1264 11.2315 24.558 10.8736 24.2106 10.3999C23.8634 9.93678 23.6844 9.42098 23.6844 8.87362C23.6844 8.43152 23.7792 8.04204 23.9686 7.7052C24.158 7.36836 24.4106 7.07362 24.7264 6.84204C25.0422 6.59994 25.4002 6.42098 25.8212 6.29468C26.2422 6.16836 26.6844 6.11572 27.1476 6.11572C27.3792 6.11572 27.6212 6.12624 27.8528 6.15782C28.095 6.1894 28.316 6.23152 28.537 6.27362C28.7476 6.32624 28.9476 6.37888 29.137 6.44204C29.3264 6.5052 29.4738 6.56836 29.5792 6.63152C29.7264 6.71572 29.8318 6.79994 29.895 6.89468C29.958 6.97888 29.9896 7.09466 29.9896 7.24204V7.73678C29.9896 7.95782 29.9054 8.07362 29.7476 8.07362C29.6634 8.07362 29.5264 8.03152 29.3476 7.9473C28.7476 7.67362 28.0738 7.53678 27.3264 7.53678C26.7264 7.53678 26.2528 7.63152 25.9264 7.83152C25.6002 8.03152 25.4318 8.33678 25.4318 8.76836C25.4318 9.0631 25.537 9.31572 25.7476 9.51572C25.958 9.71572 26.3476 9.91572 26.9054 10.0947L28.4002 10.5684C29.158 10.8105 29.7054 11.1473 30.0318 11.5789C30.358 12.0105 30.516 12.5052 30.516 13.0526C30.516 13.5052 30.4212 13.9157 30.2422 14.2736C30.0528 14.6315 29.8002 14.9473 29.4738 15.1999C29.1476 15.4631 28.758 15.6526 28.3054 15.7894C27.8318 15.9368 27.337 16.0105 26.8002 16.0105Z" fill="#252F3E"/>
<path fill-rule="evenodd" clip-rule="evenodd" d="M28.7896 21.1264C25.3266 23.6844 20.295 25.0422 15.9686 25.0422C9.90546 25.0422 4.4423 22.8002 0.315994 19.0738C-0.0103222 18.7791 0.284414 18.3791 0.673888 18.6107C5.13704 21.2002 10.6423 22.7686 16.337 22.7686C20.1792 22.7686 24.4002 21.9686 28.2844 20.3264C28.8634 20.0632 29.3582 20.7054 28.7896 21.1264Z" fill="#FF9900"/>
<path fill-rule="evenodd" clip-rule="evenodd" d="M30.2318 19.4843C29.7898 18.9159 27.3054 19.2106 26.1792 19.3474C25.8424 19.3895 25.7896 19.0948 26.095 18.8737C28.074 17.4843 31.3266 17.8843 31.7054 18.3474C32.0844 18.8211 31.6002 22.0738 29.7476 23.6316C29.4634 23.8738 29.1896 23.7474 29.316 23.4316C29.737 22.3896 30.674 20.0422 30.2318 19.4843Z" fill="#FF9900"/>
</svg>
