<svg width="32" height="32" viewBox="-1 4 24 24" fill="none" xmlns="http://www.w3.org/2000/svg">
    <path d="M0.718705 6.18958C0.287438 6.18958 -0.0719508 6.57188 -7.29868e-05 6.98894L3.05473 24.8878C3.12661 25.3397 3.52194 25.6872 4.02508 25.6872H18.6522C19.0116 25.6872 19.2991 25.4439 19.371 25.0964L22.4258 6.98894C22.4977 6.57188 22.1742 6.18958 21.707 6.18958H0.718705ZM13.5848 19.1185H8.91277L7.65491 12.7235H14.7349L13.5848 19.1185Z" fill="#2684FF"/>
    <path d="M21.4554 12.7235H14.6988L13.5847 19.1185H8.91267L3.37808 25.4439C3.37808 25.4439 3.62965 25.6872 4.02498 25.6872H18.6521C19.0115 25.6872 19.299 25.4439 19.3709 25.0963L21.4554 12.7235Z" fill="url(#paint0_linear_bb)"/>
    <defs>
        <linearGradient id="paint0_linear_bb" x1="23.0048" y1="14.52" x2="12.1415" y2="23.2886" gradientUnits="userSpaceOnUse">
            <stop offset="0.176" stop-color="#0052CC"/>
            <stop offset="1" stop-color="#2684FF"/>
        </linearGradient>
    </defs>
</svg>
