<svg width="225" height="40" viewBox="0 0 225 40" fill="none" xmlns="http://www.w3.org/2000/svg">
<g clip-path="url(#clip0_3518_29216)">
<mask id="mask0_3518_29216" style="mask-type:luminance" maskUnits="userSpaceOnUse" x="0" y="0" width="225" height="40">
<path d="M225 0H0V39.0658H225V0Z" fill="white"/>
</mask>
<g mask="url(#mask0_3518_29216)">
<path d="M65.2967 21.497H62.7102C62.5881 21.497 62.4662 21.5702 62.4418 21.6922C61.9537 23.4003 60.6361 24.3031 58.6352 24.3031C55.9999 24.3031 54.3407 22.3266 54.3407 19.1545C54.3407 15.9824 55.9755 14.0792 58.6352 14.0792C60.5628 14.0792 61.9537 15.0307 62.4418 16.6901C62.4662 16.812 62.5881 16.8852 62.7102 16.8852H65.2967C65.3942 16.8852 65.4675 16.8364 65.5163 16.7876C65.565 16.7145 65.5894 16.6168 65.565 16.5436C64.7842 13.3227 62.271 11.4683 58.6596 11.4683C54.2918 11.4683 51.3638 14.5428 51.3638 19.1545C51.3638 23.7662 54.2918 26.8896 58.6596 26.8896C62.1733 26.8896 64.7598 25.0107 65.565 21.863C65.565 21.8386 65.5894 21.7898 65.5894 21.7654C65.565 21.619 65.443 21.497 65.2967 21.497Z" fill="#212529"/>
<path d="M74.862 11.4686C73.0075 11.4686 71.4458 12.103 70.3966 13.2254V6.97885C70.3966 6.83244 70.2747 6.68604 70.1038 6.68604H67.7125C67.5661 6.68604 67.4197 6.80804 67.4197 6.97885V26.3531C67.4197 26.4995 67.5417 26.6459 67.7125 26.6459H70.1038C70.2502 26.6459 70.3966 26.5239 70.3966 26.3531V18.4228C70.3966 15.6899 71.7875 14.1039 74.2275 14.1039C76.6676 14.1039 77.9608 15.6167 77.9608 18.252V26.3531C77.9608 26.4995 78.0829 26.6459 78.2537 26.6459H80.6206C80.7669 26.6459 80.9134 26.5239 80.9134 26.3531V17.9104C80.889 14.0063 78.5221 11.4686 74.862 11.4686Z" fill="#212529"/>
<path d="M90.7469 11.4683C88.8921 11.4683 87.3793 12.1271 86.4032 13.3715V12.0295C86.4032 11.8831 86.2812 11.7366 86.1104 11.7366H83.7191C83.5727 11.7366 83.4263 11.8587 83.4263 12.0295V26.3771C83.4263 26.5235 83.5483 26.67 83.7191 26.67H86.1104C86.2568 26.67 86.4032 26.5479 86.4032 26.3771C86.4032 26.3527 86.4032 26.3283 86.3788 26.2796V18.5689C86.3788 15.7872 87.5745 14.5184 90.1124 14.5184H90.7469C90.8927 14.5184 91.0394 14.3963 91.0394 14.2255V11.761C91.0151 11.6146 90.8927 11.4683 90.7469 11.4683Z" fill="#212529"/>
<path d="M103.46 19.1787C103.46 22.668 101.117 24.2297 98.7985 24.2297C97.579 24.2297 96.5053 23.7905 95.7241 23.0096C94.8457 22.1069 94.3579 20.7892 94.3822 19.1543C94.3822 16.8363 95.554 14.1277 98.8966 14.1277C101.166 14.1521 103.46 15.7138 103.46 19.1787ZM98.9209 11.4924C94.4803 11.4924 91.3564 14.6402 91.3564 19.1787C91.3564 23.7173 94.4065 26.9138 98.7985 26.9138C103.191 26.9138 106.437 23.6684 106.461 19.1787C106.485 14.6402 103.362 11.4924 98.9209 11.4924Z" fill="#212529"/>
<path d="M115.611 11.4924C113.83 11.4924 112.317 12.1268 111.292 13.2249V12.0293C111.292 11.8829 111.17 11.7365 111 11.7365H108.609C108.462 11.7365 108.315 11.8585 108.315 12.0293V26.377C108.315 26.5233 108.438 26.6698 108.609 26.6698H111C111.146 26.6698 111.292 26.5478 111.292 26.377V18.4467C111.292 15.7138 112.683 14.1277 115.124 14.1277C117.564 14.1277 118.857 15.6406 118.857 18.2759V26.4014C118.857 26.5478 118.978 26.6942 119.149 26.6942H121.516C121.663 26.6942 121.809 26.5722 121.809 26.4014V17.9587C121.785 13.9569 119.418 11.4924 115.611 11.4924Z" fill="#212529"/>
<path d="M131.179 14.1521C133.449 14.1521 135.742 15.7138 135.742 19.1787C135.742 22.6436 133.4 24.2297 131.082 24.2297C129.861 24.2297 128.787 23.7905 128.007 23.0096C127.129 22.1069 126.64 20.7892 126.665 19.1543C126.665 16.8607 127.86 14.1521 131.179 14.1521ZM131.203 11.4924C126.762 11.4924 123.639 14.6402 123.639 19.1787C123.639 23.7173 126.69 26.9138 131.082 26.9138C135.474 26.9138 138.719 23.6684 138.743 19.1787C138.768 14.6402 135.669 11.4924 131.203 11.4924Z" fill="#212529"/>
<path d="M146.723 18.0321C144.916 17.5441 143.379 17.1049 143.379 15.7872C143.379 14.7624 144.38 14.0792 145.893 14.0792C147.551 14.0792 148.625 14.9332 148.723 16.2996C148.723 16.446 148.869 16.568 149.016 16.568H151.407C151.48 16.568 151.554 16.5436 151.627 16.4704C151.675 16.4216 151.7 16.324 151.7 16.2508C151.529 13.2983 149.333 11.4683 145.99 11.4683C142.647 11.4683 140.427 13.2739 140.427 15.7628C140.427 19.0081 143.355 19.7889 145.697 20.399C147.43 20.8626 148.919 21.253 148.919 22.4242C148.919 23.5955 147.869 24.2543 146.258 24.2543C144.501 24.2543 143.282 23.4003 143.159 22.0826C143.135 21.9362 143.014 21.8142 142.867 21.8142H140.403C140.329 21.8142 140.256 21.8386 140.183 21.9118C140.134 21.9606 140.109 22.0582 140.109 22.1314C140.28 24.9131 142.818 26.8652 146.283 26.8652C149.528 26.8652 151.822 25.0351 151.822 22.4242C151.773 19.4229 148.967 18.6421 146.723 18.0321Z" fill="#212529"/>
<path d="M165.828 19.1543C165.828 22.1556 163.95 24.2297 161.241 24.2297C159.02 24.2297 156.653 22.6436 156.653 19.1787C156.653 16.6898 158.239 14.1521 161.241 14.1521C163.95 14.1521 165.828 16.2019 165.828 19.1543ZM161.728 11.4924C159.337 11.4924 157.63 12.5661 156.629 13.7618V12.0293C156.629 11.8829 156.507 11.7365 156.337 11.7365H153.945C153.799 11.7365 153.652 11.8585 153.652 12.0293V33.1848C153.652 33.3312 153.774 33.4776 153.945 33.4776H156.337C156.482 33.4776 156.629 33.3556 156.629 33.1848V24.6201C157.654 25.8158 159.387 26.9138 161.728 26.9138C165.852 26.9138 168.829 23.6441 168.829 19.1543C168.854 14.6402 165.926 11.4924 161.728 11.4924Z" fill="#212529"/>
<path d="M178.126 11.4686C176.271 11.4686 174.71 12.103 173.66 13.2254V6.97885C173.66 6.83244 173.539 6.68604 173.368 6.68604H170.977C170.83 6.68604 170.684 6.80804 170.684 6.97885V26.3531C170.684 26.4995 170.806 26.6459 170.977 26.6459H173.368C173.515 26.6459 173.66 26.5239 173.66 26.3531V18.4228C173.66 15.6899 175.052 14.1039 177.492 14.1039C179.932 14.1039 181.225 15.6167 181.225 18.252V26.3531C181.225 26.4995 181.347 26.6459 181.517 26.6459H183.884C184.031 26.6459 184.178 26.5239 184.178 26.3531V17.9104C184.153 14.0063 181.786 11.4686 178.126 11.4686Z" fill="#212529"/>
<path d="M193.304 14.1033C194.572 14.1033 195.719 14.5425 196.5 15.3234C197.158 15.9822 197.525 16.8607 197.573 17.8855H189.106C189.448 15.5674 191.058 14.1033 193.304 14.1033ZM193.425 11.4924C189.009 11.4924 186.032 14.5669 186.032 19.1787C186.032 23.7905 189.009 26.9138 193.425 26.9138C196.842 26.9138 199.477 25.0349 200.331 22.0336C200.355 21.936 200.331 21.8628 200.282 21.7896C200.233 21.7164 200.136 21.6676 200.063 21.6676H197.476C197.354 21.6676 197.257 21.7408 197.207 21.8628C196.671 23.4245 195.304 24.3273 193.425 24.3273C191.034 24.3273 189.35 22.79 189.082 20.3987H200.257C200.404 20.3987 200.526 20.2768 200.551 20.1548C200.599 19.6179 200.623 19.1787 200.623 18.6907C200.623 14.4206 197.671 11.4924 193.425 11.4924Z" fill="#212529"/>
<path d="M209.774 11.4683C207.92 11.4683 206.407 12.1271 205.431 13.3715V12.0295C205.431 11.8831 205.309 11.7366 205.138 11.7366H202.747C202.6 11.7366 202.453 11.8587 202.453 12.0295V26.3771C202.453 26.5235 202.576 26.67 202.747 26.67H205.138C205.284 26.67 205.431 26.5479 205.431 26.3771C205.431 26.3527 205.431 26.3283 205.406 26.2796V18.5689C205.406 15.7872 206.602 14.5184 209.139 14.5184H209.774C209.921 14.5184 210.066 14.3963 210.066 14.2255V11.761C210.066 11.6146 209.945 11.4683 209.774 11.4683Z" fill="#212529"/>
<path d="M217.705 14.1033C218.973 14.1033 220.12 14.5425 220.901 15.3234C221.559 15.9822 221.926 16.8607 221.974 17.8855H213.507C213.825 15.5674 215.435 14.1033 217.705 14.1033ZM217.802 11.4924C213.386 11.4924 210.408 14.5669 210.408 19.1787C210.408 23.7905 213.386 26.9138 217.802 26.9138C221.218 26.9138 223.854 25.0349 224.708 22.0336C224.732 21.936 224.708 21.8628 224.659 21.7896C224.61 21.7164 224.512 21.6676 224.439 21.6676H221.853C221.73 21.6676 221.633 21.7408 221.584 21.8628C221.047 23.4245 219.681 24.3273 217.802 24.3273C215.411 24.3273 213.727 22.79 213.459 20.3987H224.634C224.781 20.3987 224.903 20.2768 224.927 20.1548C224.976 19.6179 225 19.2031 225 18.6907C225 14.4206 222.048 11.4924 217.802 11.4924Z" fill="#212529"/>
<path fill-rule="evenodd" clip-rule="evenodd" d="M19.5206 0C28.6953 0 36.406 6.34422 38.4801 14.8845C37.1381 12.9812 34.9176 11.7368 32.4043 11.7368C28.305 11.7368 24.962 15.0553 24.962 19.1791C24.962 23.3028 28.2805 26.6213 32.4043 26.6213C35.064 26.6213 37.382 25.2304 38.6997 23.1564C37.016 32.2091 29.0614 39.0658 19.5206 39.0658C8.7355 39.0658 0 30.3303 0 19.545C0 8.7599 8.7599 0 19.5206 0Z" fill="#2FBF71"/>
<path fill-rule="evenodd" clip-rule="evenodd" d="M20.1061 39.0413C10.6142 37.4308 3.36719 29.3053 3.36719 19.5206C3.36719 9.73593 10.5898 1.63486 20.1061 0C29.0368 0.268409 36.4547 6.51502 38.5044 14.8845C37.1623 12.9812 34.9418 11.7368 32.4286 11.7368C28.3293 11.7368 24.9863 15.0553 24.9863 19.1791C24.9863 23.3028 28.3048 26.6213 32.4286 26.6213C35.0883 26.6213 37.4063 25.2304 38.724 23.1564C37.0648 32.0139 29.4029 38.7729 20.1061 39.0413Z" fill="#2FBE70"/>
<path fill-rule="evenodd" clip-rule="evenodd" d="M23.3028 38.6752C12.6152 38.5289 4.00171 30.013 4.00171 19.5206C4.00171 9.02825 12.6152 0.512372 23.3028 0.365967C30.7694 1.83002 36.6988 7.5398 38.4801 14.8845C37.138 12.9812 34.9175 11.7367 32.4043 11.7367C28.305 11.7367 24.962 15.0553 24.962 19.179C24.962 23.3027 28.2806 26.6213 32.4043 26.6213C35.064 26.6213 37.382 25.2304 38.6997 23.1564C37.26 30.9646 31.1111 37.1624 23.3028 38.6752Z" fill="#33C172"/>
<path fill-rule="evenodd" clip-rule="evenodd" d="M23.5957 1.0249C24.4985 1.0249 25.4014 1.09811 26.2798 1.22011C32.3068 3.44058 36.943 8.56476 38.4802 14.909C37.1382 13.0057 34.9177 11.7613 32.4044 11.7613C28.305 11.7613 24.9622 15.0798 24.9622 19.2035C24.9622 23.3273 28.2807 26.6458 32.4044 26.6458C35.064 26.6458 37.3822 25.2549 38.6998 23.1809C37.431 29.9886 32.624 35.5277 26.2798 37.8945C25.4014 38.0166 24.4985 38.0897 23.5957 38.0897C13.1521 38.0897 4.68506 29.7935 4.68506 19.5939C4.68506 9.39439 13.1521 1.0249 23.5957 1.0249Z" fill="#37C573"/>
<path fill-rule="evenodd" clip-rule="evenodd" d="M23.5955 1.68359C25.4988 1.68359 27.3288 1.9764 29.0369 2.48881C33.6975 5.09971 37.1868 9.56506 38.48 14.9088C37.138 13.0056 34.9175 11.7612 32.4043 11.7612C28.3049 11.7612 24.962 15.0796 24.962 19.2033C24.962 23.3271 28.2805 26.6456 32.4043 26.6456C35.064 26.6456 37.382 25.2548 38.6997 23.1807C37.626 28.9638 33.9903 33.8439 29.0369 36.6255C27.3044 37.1624 25.4744 37.4308 23.5955 37.4308C13.4936 37.4308 5.31934 29.4273 5.31934 19.5694C5.31934 9.7115 13.4936 1.68359 23.5955 1.68359Z" fill="#3BC875"/>
<path fill-rule="evenodd" clip-rule="evenodd" d="M23.5957 2.31836C26.4993 2.31836 29.2323 3.00159 31.648 4.22163C34.9908 6.88131 37.4553 10.6147 38.5046 14.8848C37.1625 12.9815 34.942 11.7371 32.4288 11.7371C28.3294 11.7371 24.9865 15.0556 24.9865 19.1793C24.9865 23.303 28.305 26.6216 32.4288 26.6216C35.0885 26.6216 37.4065 25.2308 38.7242 23.1567C37.8457 27.866 35.2593 31.9898 31.648 34.8446C29.2323 36.0647 26.4993 36.748 23.5957 36.748C13.8597 36.748 5.97827 29.0373 5.97827 19.5454C5.97827 10.0534 13.8597 2.31836 23.5957 2.31836Z" fill="#3FCB77"/>
<path fill-rule="evenodd" clip-rule="evenodd" d="M23.5958 2.97681C27.5487 2.97681 31.1844 4.29445 34.0637 6.49052C36.1622 8.833 37.7238 11.7123 38.5047 14.8844C37.1627 12.9811 34.9422 11.7367 32.4289 11.7367C28.3295 11.7367 24.9867 15.0552 24.9867 19.1789C24.9867 23.3027 28.3051 26.6212 32.4289 26.6212C35.0885 26.6212 37.4067 25.2304 38.7243 23.1563C38.0655 26.7432 36.4062 29.9641 34.0637 32.575C31.1844 34.7955 27.5487 36.0887 23.5958 36.0887C14.2259 36.0887 6.63721 28.6709 6.63721 19.5206C6.63721 10.3703 14.2259 2.97681 23.5958 2.97681Z" fill="#43CE78"/>
<path fill-rule="evenodd" clip-rule="evenodd" d="M23.5954 3.6355C28.7439 3.6355 33.3313 5.95357 36.3326 9.58931C37.3086 11.2242 38.0407 13.0054 38.5043 14.9087C37.1623 13.0054 34.9418 11.761 32.4284 11.761C28.3291 11.761 24.9863 15.0795 24.9863 19.2032C24.9863 23.327 28.3047 26.6455 32.4284 26.6455C35.0882 26.6455 37.4063 25.2546 38.7239 23.1806C38.309 25.4498 37.4794 27.5971 36.3326 29.5004C33.3313 33.1361 28.7439 35.4541 23.5954 35.4541C14.5915 35.4541 7.27124 28.3291 7.27124 19.5448C7.27124 10.7606 14.5915 3.6355 23.5954 3.6355Z" fill="#48D27A"/>
<path fill-rule="evenodd" clip-rule="evenodd" d="M23.5957 4.27026C30.4524 4.27026 36.2842 8.56481 38.407 14.543C38.4315 14.6651 38.4559 14.7626 38.5047 14.8847C37.1626 12.9813 34.9421 11.7369 32.4289 11.7369C28.3295 11.7369 24.9866 15.0554 24.9866 19.1792C24.9866 23.3029 28.3051 26.6214 32.4289 26.6214C35.0885 26.6214 37.4067 25.2306 38.7243 23.1565C38.6267 23.6201 38.5291 24.0837 38.407 24.5229C36.2842 30.5012 30.4524 34.7957 23.5957 34.7957C14.9335 34.7957 7.93042 27.9635 7.93042 19.5452C7.93042 11.1269 14.9335 4.27026 23.5957 4.27026Z" fill="#4CD57C"/>
<path fill-rule="evenodd" clip-rule="evenodd" d="M23.5956 4.92896C29.7202 4.92896 34.9664 8.49148 37.3088 13.5912C35.9912 12.4444 34.2831 11.7612 32.4287 11.7612C28.3294 11.7612 24.9865 15.0797 24.9865 19.2034C24.9865 23.3271 28.305 26.6457 32.4287 26.6457C34.5272 26.6457 36.4304 25.7672 37.7725 24.3764C35.7228 30.0862 30.1594 34.1612 23.5956 34.1612C15.2993 34.1612 8.5647 27.6217 8.5647 19.5451C8.5647 11.4684 15.2993 4.92896 23.5956 4.92896Z" fill="#50D87D"/>
<path fill-rule="evenodd" clip-rule="evenodd" d="M23.5955 5.56348C28.988 5.56348 33.6974 8.46717 36.1619 12.7373C35.0638 12.1029 33.795 11.7369 32.4285 11.7369C28.3292 11.7369 24.9863 15.0554 24.9863 19.1792C24.9863 23.3029 28.3048 26.6214 32.4285 26.6214C34.0146 26.6214 35.4786 26.1334 36.6987 25.2794C34.4538 30.1351 29.4272 33.5024 23.5955 33.5024C15.6652 33.5024 9.22339 27.2558 9.22339 19.5451C9.22339 11.8345 15.6652 5.56348 23.5955 5.56348Z" fill="#54DB7F"/>
<path fill-rule="evenodd" clip-rule="evenodd" d="M23.5958 6.22241C28.4028 6.22241 32.6241 8.61369 35.0642 12.225C34.2346 11.9078 33.3561 11.737 32.4289 11.737C28.3296 11.737 24.9866 15.0555 24.9866 19.1793C24.9866 23.303 28.3051 26.6215 32.4289 26.6215C33.5757 26.6215 34.6738 26.3531 35.6498 25.8895C33.3317 30.0376 28.7932 32.8437 23.5958 32.8437C16.0072 32.8437 9.88257 26.8899 9.88257 19.5452C9.88257 12.1762 16.0072 6.22241 23.5958 6.22241Z" fill="#58DF80"/>
<path fill-rule="evenodd" clip-rule="evenodd" d="M23.5956 6.88086C27.8659 6.88086 31.6723 8.85732 34.0392 11.9318C33.5268 11.8098 32.99 11.761 32.4288 11.761C28.3295 11.761 24.9865 15.0795 24.9865 19.2033C24.9865 23.327 28.3051 26.6456 32.4288 26.6456C33.2096 26.6456 33.9417 26.5235 34.6493 26.3039C32.3312 29.8664 28.2562 32.2089 23.5956 32.2089C16.3731 32.2089 10.5168 26.5479 10.5168 19.5448C10.5168 12.5419 16.3731 6.88086 23.5956 6.88086Z" fill="#5CE281"/>
<path fill-rule="evenodd" clip-rule="evenodd" d="M23.5954 7.51538C27.4018 7.51538 30.7936 9.17463 33.0872 11.7611C32.8676 11.7367 32.648 11.7367 32.4284 11.7367C28.3291 11.7367 24.9862 15.0552 24.9862 19.1789C24.9862 23.3027 28.3047 26.6212 32.4284 26.6212C32.8676 26.6212 33.2824 26.5724 33.6973 26.5237C31.4524 29.5738 27.7679 31.5502 23.5954 31.5502C16.7387 31.5502 11.1753 26.182 11.1753 19.545C11.1753 12.9079 16.7387 7.51538 23.5954 7.51538Z" fill="#60E684"/>
</g>
</g>
<defs>
<clipPath id="clip0_3518_29216">
<rect width="225" height="39.6" fill="white"/>
</clipPath>
</defs>
</svg>
