<svg width="32" height="32" viewBox="0 0 32 32" fill="none" xmlns="http://www.w3.org/2000/svg">
<path fill-rule="evenodd" clip-rule="evenodd" d="M14.7854 31.9998V26.27C20.8504 26.27 25.5584 20.2554 23.2294 13.8719C22.8016 12.6992 22.1226 11.6341 21.24 10.7514C20.3574 9.8687 19.2925 9.1896 18.1198 8.76174C11.7363 6.44984 5.72164 11.1406 5.72164 17.2057H0.00830078C0.00830078 7.53936 9.35734 -0.000102639 19.4934 3.16586C23.9168 4.55726 27.4516 8.07492 28.8258 12.4988C31.9924 22.6508 24.4696 31.9998 14.7854 31.9998Z" fill="#0080FF"/>
<path fill-rule="evenodd" clip-rule="evenodd" d="M9.10582 26.287H14.8019V20.5908H9.10642L9.10582 26.287ZM4.71634 30.6766H9.10522V26.2876H4.71634V30.6766ZM1.04688 26.2876H4.71634V22.6174H1.04688V26.2876Z" fill="#0080FF"/>
</svg>
