<svg width="32" height="24" viewBox="0 0 32 24" fill="none" xmlns="http://www.w3.org/2000/svg">
    <path d="M31.3937 7.925C31.6375 7.73125 32 7.9125 32 8.21875V21C32 22.6562 30.6562 24 29 24H3C1.34375 24 0 22.6562 0 21V8.225C0 7.9125 0.35625 7.7375 0.60625 7.93125C2.00625 9.01875 3.8625 10.4 10.2375 15.0312C11.5563 15.9937 13.7812 18.0188 16 18.0063C18.2313 18.025 20.5 15.9563 21.7687 15.0312C28.1437 10.4 29.9937 9.0125 31.3937 7.925ZM16 16C17.45 16.025 19.5375 14.175 20.5875 13.4125C28.8812 7.39375 29.5125 6.86875 31.425 5.36875C31.7875 5.0875 32 4.65 32 4.1875V3C32 1.34375 30.6562 0 29 0H3C1.34375 0 0 1.34375 0 3V4.1875C0 4.65 0.2125 5.08125 0.575 5.36875C2.4875 6.8625 3.11875 7.39375 11.4125 13.4125C12.4625 14.175 14.55 16.025 16 16Z" fill="#555555"/>
</svg>
