<svg width="32" height="31" viewBox="0 0 32 31" fill="none" xmlns="http://www.w3.org/2000/svg">
    <path fill-rule="evenodd" clip-rule="evenodd" d="M31.9403 17.7247L30.1497 11.9293L26.6011 0.443189C26.4185 -0.147729 25.6236 -0.147729 25.441 0.443189L21.8922 11.9293H10.1083L6.55951 0.443189C6.37694 -0.147729 5.58193 -0.147729 5.39936 0.443189L1.85067 11.9293L0.0602135 17.7247C-0.0194091 17.9823 -0.0194204 18.2599 0.0601812 18.5176C0.139783 18.7752 0.29491 18.9998 0.503328 19.1591L16.0002 31L31.4973 19.1591C31.7057 18.9998 31.8608 18.7752 31.9404 18.5176C32.02 18.2599 32.02 17.9823 31.9404 17.7247" fill="#FC6D26"/>
    <path fill-rule="evenodd" clip-rule="evenodd" d="M16 31L21.892 11.9293H10.1079L16 31Z" fill="#E24329"/>
    <path fill-rule="evenodd" clip-rule="evenodd" d="M16.0001 31L10.108 11.9293H1.85059L16.0001 31Z" fill="#FC6D26"/>
    <path fill-rule="evenodd" clip-rule="evenodd" d="M1.85029 11.9293L0.0597015 17.7248C-0.0199045 17.9825 -0.0199004 18.26 0.0597133 18.5177C0.139327 18.7753 0.294462 18.9998 0.502881 19.1591L15.9998 31L1.85029 11.9293Z" fill="#FCA326"/>
    <path fill-rule="evenodd" clip-rule="evenodd" d="M1.85059 11.9294H10.108L6.55936 0.443291C6.37679 -0.147764 5.58172 -0.147764 5.39921 0.443291L1.85059 11.9294Z" fill="#E24329"/>
    <path fill-rule="evenodd" clip-rule="evenodd" d="M16 31L21.892 11.9293H30.1495L16 31Z" fill="#FC6D26"/>
    <path fill-rule="evenodd" clip-rule="evenodd" d="M30.1495 11.9293L31.9401 17.7247C32.0197 17.9824 32.0197 18.2599 31.9401 18.5176C31.8604 18.7752 31.7053 18.9998 31.4969 19.159L16 31L30.1495 11.9293Z" fill="#FCA326"/>
    <path fill-rule="evenodd" clip-rule="evenodd" d="M30.1495 11.9294H21.8921L25.4407 0.443291C25.6233 -0.147764 26.4184 -0.147764 26.6009 0.443291L30.1495 11.9294Z" fill="#E24329"/>
</svg>
