<svg width="32" height="32" viewBox="0 0 32 32" fill="none" xmlns="http://www.w3.org/2000/svg">
<g clip-path="url(#clip0)">
<path d="M2.41486 13.6145C2.35254 13.6145 2.33696 13.5834 2.36812 13.5366L2.69528 13.116C2.72644 13.0692 2.80434 13.0381 2.86666 13.0381H8.42848C8.4908 13.0381 8.50638 13.0848 8.47522 13.1316L8.21038 13.5366C8.17922 13.5834 8.10132 13.6301 8.05458 13.6301L2.41486 13.6145Z" fill="#00ACD7"/>
<path d="M0.0623174 15.0476C0 15.0476 -0.0155794 15.0165 0.0155794 14.9697L0.342746 14.5491C0.373904 14.5024 0.451802 14.4712 0.514118 14.4712H7.6183C7.68062 14.4712 7.71178 14.5179 7.6962 14.5647L7.57156 14.9386C7.55598 15.0009 7.49368 15.032 7.43136 15.032L0.0623174 15.0476Z" fill="#00ACD7"/>
<path d="M3.83234 16.4807C3.77002 16.4807 3.75444 16.434 3.7856 16.3873L4.00372 15.9978C4.03486 15.951 4.09718 15.9043 4.1595 15.9043H7.27538C7.3377 15.9043 7.36886 15.951 7.36886 16.0134L7.3377 16.3873C7.3377 16.4496 7.27538 16.4963 7.22864 16.4963L3.83234 16.4807Z" fill="#00ACD7"/>
<path d="M20.004 13.334C19.0225 13.5832 18.3526 13.7702 17.3867 14.0195C17.153 14.0818 17.1374 14.0973 16.9349 13.8637C16.7012 13.5988 16.5298 13.4274 16.2026 13.2716C15.2211 12.7887 14.2708 12.9289 13.3828 13.5053C12.3234 14.1908 11.7781 15.2035 11.7937 16.4654C11.8092 17.7118 12.6661 18.74 13.8969 18.9114C14.9563 19.0516 15.8443 18.6777 16.5454 17.8831C16.6856 17.7118 16.8102 17.5248 16.966 17.3067C16.4052 17.3067 15.7041 17.3067 13.9592 17.3067C13.632 17.3067 13.5541 17.1042 13.6632 16.8393C13.8657 16.3564 14.2396 15.5462 14.4577 15.1412C14.5045 15.0477 14.6135 14.8919 14.8472 14.8919C15.6418 14.8919 18.5707 14.8919 20.5182 14.8919C20.487 15.3125 20.487 15.7332 20.4246 16.1538C20.2532 17.2755 19.8326 18.3038 19.1471 19.2074C18.0254 20.6874 16.5609 21.6066 14.707 21.8558C13.1802 22.0584 11.7625 21.7624 10.5162 20.8276C9.36328 19.9552 8.70894 18.8023 8.53758 17.369C8.33504 15.6709 8.83358 14.1441 9.86182 12.8043C10.968 11.3554 12.4324 10.4362 14.224 10.109C15.6885 9.84418 17.0906 10.0156 18.3526 10.8724C19.1783 11.4177 19.7703 12.1655 20.1598 13.0691C20.2532 13.2093 20.191 13.2872 20.004 13.334Z" fill="#00ACD7"/>
<path d="M25.161 21.9496C23.7434 21.9184 22.4502 21.5134 21.3596 20.5786C20.4404 19.7841 19.864 18.7714 19.6771 17.5718C19.3967 15.8113 19.8796 14.2534 20.939 12.8668C22.0764 11.3712 23.4472 10.5923 25.3012 10.2651C26.8904 9.98466 28.386 10.1405 29.7414 11.0596C30.9722 11.9009 31.7356 13.0382 31.938 14.5338C32.2028 16.6371 31.5954 18.3508 30.1464 19.8152C29.1182 20.859 27.8562 21.5134 26.4074 21.8094C25.9868 21.8872 25.566 21.9028 25.161 21.9496ZM28.869 15.6556C28.8534 15.453 28.8534 15.2972 28.8222 15.1414C28.5418 13.5991 27.124 12.7266 25.644 13.0694C24.1952 13.3965 23.2604 14.3157 22.9176 15.7802C22.6372 16.9954 23.2292 18.2261 24.351 18.7247C25.2078 19.0986 26.0646 19.0519 26.8904 18.6312C28.1212 17.9925 28.791 16.9954 28.869 15.6556Z" fill="#00ACD7"/>
</g>
<defs>
<clipPath id="clip0">
<rect width="32" height="32" fill="white"/>
</clipPath>
</defs>
</svg>
