<svg width="32" height="32" viewBox="0 0 32 32" fill="none" xmlns="http://www.w3.org/2000/svg">
<path d="M14.7636 13.1767H17.2359L17.8584 12.335V5.7334H14.1411V12.335L14.7636 13.1767Z" fill="#8A4182"/>
<path d="M13.1594 16.1227L13.9309 13.7818L13.3172 12.9402L6.99614 10.8975L5.84766 14.4043L12.1688 16.4471L13.1594 16.1227Z" fill="#8A4182"/>
<path d="M15.4827 18.5423L13.4838 17.0957L12.4844 17.4201L8.58301 22.7592L11.5814 24.9248L15.4827 19.5856V18.5423Z" fill="#8A4182"/>
<path d="M18.516 17.0957L16.5171 18.5423V19.5856L20.4184 24.9248L23.4168 22.7592L19.5154 17.4201L18.516 17.0957Z" fill="#8A4182"/>
<path d="M18.0688 13.7818L18.8404 16.1227L19.831 16.4471L26.1522 14.4043L25.0036 10.8975L18.6825 12.9402L18.0688 13.7818Z" fill="#8A4182"/>
<path d="M16 0C7.18028 0 0 7.13644 0 15.9123C0 24.6882 7.18028 31.8246 16 31.8246C24.8198 31.8246 32 24.6882 32 15.9123C32 7.13644 24.8198 0 16 0ZM16 3.2263C23.0488 3.2263 28.7562 8.9074 28.7562 15.9123C28.7562 22.926 23.04 28.6072 16 28.6072C8.95124 28.6072 3.23506 22.926 3.23506 15.9123C3.24384 8.89864 8.95124 3.2263 16 3.2263Z" fill="#8A4182"/>
<path d="M25.6878 19.4458L20.892 17.894L21.2078 16.9209L26.012 18.4727L25.6878 19.4458Z" fill="#8A4182"/>
<path d="M19.5682 11.7832L18.7354 11.1783L21.7074 7.11914L22.5316 7.72408L19.5682 11.7832Z" fill="#8A4182"/>
<path d="M12.4843 11.7481L9.51221 7.68892L10.3451 7.08398L13.3171 11.1432L12.4843 11.7481Z" fill="#8A4182"/>
<path d="M6.28583 19.3843L5.97021 18.4112L10.7746 16.8594L11.0902 17.8325L6.28583 19.3843Z" fill="#8A4182"/>
<path d="M16.4823 21.0322H15.4565V26.0558H16.4823V21.0322Z" fill="#8A4182"/>
</svg>
