<svg width="32" height="32" viewBox="0 0 32 32" fill="none" xmlns="http://www.w3.org/2000/svg">
<path d="M30.2082 15.75C30.2082 13.8 28.9082 12.2 27.1082 11.75L31.1082 0H11.3582L15.3582 11.8C13.6582 12.3 12.3582 13.9 12.3582 15.8C12.3582 17.2 13.0582 18.4 14.1082 19.2C13.7082 19.8 13.2082 20.35 12.6582 20.85C11.6582 21.75 10.5082 22.5 9.25822 23C8.15822 22.25 7.65822 20.9 8.10822 19.75C9.85822 19.2 11.0582 17.6 11.0582 15.8C11.0582 13.5 9.20822 11.65 6.90822 11.65C4.60822 11.65 2.75822 13.5 2.75822 15.8C2.75822 16.9 3.20822 17.95 3.95822 18.7L3.75822 19.1C3.15822 20.4 2.40822 21.8 2.15822 23.45C1.60821 26.7 2.50822 29.3 4.60822 30.75C5.80822 31.55 7.10822 32 8.55822 32C11.0082 32 13.4582 30.8 15.8582 29.6C17.5582 28.75 19.3082 27.9 21.0582 27.45C21.7082 27.3 22.3582 27.2 23.0582 27.1C24.5082 26.9 25.9582 26.7 27.3082 25.9C28.8582 25 29.9082 23.5 30.2082 21.8C30.4582 20.5 30.2082 19.15 29.6082 17.95C30.0082 17.3 30.2082 16.55 30.2082 15.75ZM28.4082 15.75C28.4082 17.05 27.3582 18.1 26.0582 18.1C24.7582 18.1 23.7082 17.05 23.7082 15.75C23.7082 15.35 23.8082 14.95 24.0082 14.6C24.1082 14.45 24.1582 14.35 24.2582 14.25C24.3582 14.15 24.4582 14.05 24.5582 13.95L24.8082 13.8C24.8582 13.8 24.8582 13.75 24.9082 13.75C24.9082 13.75 24.9082 13.75 24.9582 13.75C25.0082 13.75 25.0582 13.7 25.1082 13.7C25.1582 13.7 25.2082 13.65 25.2582 13.65C25.2582 13.65 25.2582 13.65 25.3082 13.65C25.3582 13.65 25.3582 13.6 25.4082 13.6H25.4582L25.6082 13.55L25.7582 13.5H25.8082C25.8582 13.5 25.8582 13.5 25.9082 13.5H25.9582C26.0082 13.5 26.0582 13.5 26.1082 13.5H26.2082C26.2582 13.5 26.2582 13.5 26.3082 13.5C26.3582 13.5 26.4582 13.5 26.5082 13.55C27.6582 13.7 28.4082 14.65 28.4082 15.75ZM13.9582 1.85H28.5082L25.1582 11.7C25.0082 11.75 24.8582 11.75 24.7582 11.8L21.2582 4.6L17.7082 11.75C17.5582 11.7 17.4082 11.7 17.2582 11.65L13.9582 1.85ZM23.2082 12.8C22.6082 13.4 22.2082 14.15 22.0582 14.95H20.6082C20.4582 14.1 20.0082 13.3 19.3582 12.75L21.2582 8.9L23.2082 12.8ZM15.9582 13.5L16.1082 13.45H16.1582C16.2082 13.45 16.2082 13.45 16.2582 13.45H16.3082C16.3582 13.45 16.3582 13.45 16.4082 13.45H16.7582C16.8082 13.45 16.8082 13.45 16.8582 13.45H16.9082C16.9582 13.45 16.9582 13.45 17.0082 13.45C17.0082 13.45 17.0082 13.45 17.0582 13.45L17.2082 13.5C17.2582 13.5 17.3082 13.5 17.3082 13.55C17.3082 13.55 17.3082 13.55 17.3582 13.55C17.4082 13.55 17.4082 13.55 17.4582 13.6C17.4582 13.6 17.4582 13.6 17.5082 13.6C17.5582 13.6 17.5582 13.65 17.6082 13.65C17.6582 13.65 17.7082 13.7 17.7082 13.7C17.7582 13.7 17.8082 13.75 17.8082 13.75C17.8582 13.75 17.8582 13.8 17.9082 13.8C18.0082 13.9 18.1082 14 18.2082 14.05C18.3082 14.15 18.4082 14.25 18.4582 14.4C18.7082 14.8 18.8582 15.2 18.8582 15.7C18.8582 17 17.8082 18.05 16.5082 18.05C15.2082 18.05 14.1582 17 14.1582 15.7C14.1582 14.65 14.9082 13.75 15.9582 13.5ZM6.80822 13.4C8.10822 13.4 9.15822 14.45 9.15822 15.75C9.15822 17.05 8.10822 18.1 6.80822 18.1C5.50822 18.1 4.50822 17.05 4.50822 15.75C4.50822 14.45 5.55822 13.4 6.80822 13.4ZM28.3582 21.45C28.1582 22.65 27.4082 23.65 26.3582 24.3C25.3582 24.9 24.1082 25.05 22.8082 25.25C22.1082 25.35 21.3582 25.45 20.6082 25.65C18.6582 26.1 16.8082 27.05 15.0082 27.95C12.7082 29.1 10.5582 30.15 8.50822 30.15C7.45822 30.15 6.50822 29.85 5.65822 29.25C3.60822 27.85 3.70822 25.2 3.95822 23.75C4.15822 22.4 4.80822 21.15 5.40822 19.9C5.45822 19.8 5.50822 19.75 5.50822 19.7C5.70822 19.75 5.90822 19.85 6.15822 19.85C5.80822 21.8 6.80822 23.85 8.75822 24.85L9.10822 25.05L9.50822 24.9C11.1082 24.35 12.6082 23.4 13.9582 22.15C14.7082 21.45 15.3582 20.7 15.9082 19.85C16.1082 19.9 16.3582 19.9 16.5582 19.9C18.5082 19.9 20.1082 18.55 20.5582 16.8H22.1082C22.5582 18.6 24.2082 19.9 26.1082 19.9C26.8582 19.9 27.5582 19.7 28.2082 19.35C28.4082 20 28.5082 20.75 28.3582 21.45Z" fill="#99424F"/>
</svg>
