<svg width="196" height="30" viewBox="0 0 196 30" fill="none" xmlns="http://www.w3.org/2000/svg">
<g clip-path="url(#clip0_1043_33464)">
<path d="M0.242188 28.1008C7.47998 28.1008 10.3455 16.5409 17.5821 16.5409V4.98096C10.3455 4.98096 7.47998 16.5409 0.242188 16.5409V28.1008Z" fill="black"/>
<path d="M17.595 28.1008C24.8315 28.1008 27.6984 16.5409 34.9349 16.5409V4.98096C27.6984 4.98096 24.8315 16.5409 17.595 16.5409V28.1008Z" fill="black"/>
<path d="M34.9348 28.1009C36.4678 28.1009 37.9379 27.4919 39.0219 26.408C40.1058 25.324 40.7148 23.8539 40.7148 22.3209C40.7148 20.7881 40.1058 19.3179 39.0219 18.234C37.9379 17.15 36.4678 16.541 34.9348 16.541V28.1009Z" fill="black"/>
<path d="M59.931 4.98096H66.8524V22.6018H62.3216V8.63149L58.5955 22.6018H53.8617L50.4624 8.73527V22.6018H46.8164V4.98096H53.8662L56.7065 17.0159L59.931 4.98096Z" fill="black"/>
<path d="M78.3103 10.0181H82.5708L74.9866 27.6398H70.8299L73.0448 22.5264L67.6482 10.0181H72.382L75.1523 17.645L78.3103 10.0181Z" fill="black"/>
<path d="M82.4614 18.5024H87.2435C87.2954 19.8843 88.0483 20.8411 89.5112 20.8411C90.4917 20.8411 91.1726 20.4387 91.1726 19.7568C91.1726 18.8101 90.2259 18.526 88.5544 17.9953L86.2631 17.2898C83.9198 16.5369 82.7127 15.3252 82.7127 13.5027C82.7127 11.0311 85.0041 9.62549 89.0333 9.62549C92.9578 9.62549 95.2492 11.0456 95.5524 13.6256H91.1726C91.1262 13.0958 90.8722 12.606 90.4662 12.2619C90.0602 11.9178 89.5349 11.7484 89.0042 11.7885C87.9727 11.7885 87.4939 12.2619 87.4939 12.7689C87.4939 13.6019 88.5544 13.9287 90.0128 14.383L92.3279 15.1122C93.6397 15.5146 95.9547 16.3958 95.9547 18.862C95.9547 21.3281 93.6397 23.0141 89.2836 23.0141C85.2316 23.0041 82.8638 21.4182 82.4614 18.5024Z" fill="black"/>
<path d="M104.765 12.5557H102.549V18.7106C102.549 19.8422 102.701 19.9933 104.363 19.9933H104.765V22.6115H101.925C98.8806 22.6115 97.9994 21.7302 97.9994 18.2845V12.5557H96.48V10.0367H98.0185V7.2674L102.549 5.50586V10.0367H104.765V12.5557Z" fill="black"/>
<path d="M119.11 16.9923H110.257C110.356 20.0602 111.114 20.7421 112.321 20.7421C113.453 20.7421 114.035 20.0366 114.186 18.5026H118.868C118.566 21.1445 116.473 23.0043 112.321 23.0043C107.506 23.0043 105.522 20.1313 105.522 16.4379C105.522 12.5607 107.563 9.61572 112.444 9.61572C116.601 9.61572 119.115 12.2339 119.115 16.5135L119.11 16.9923ZM110.376 14.7246H114.253V14.6491C114.253 12.5371 113.349 11.8789 112.416 11.8789C111.081 11.8789 110.451 13.1625 110.376 14.7246Z" fill="black"/>
<path d="M133.095 14.1702V22.602H128.565V14.9231C128.565 13.3846 128.091 12.6317 126.903 12.6317C125.714 12.6317 125.066 13.4602 125.066 15.472V22.5737H120.535V12.3568C120.535 11.7796 120.535 10.6198 120.483 10.0181H124.991V11.7041C125.568 10.4969 126.884 9.61572 128.891 9.61572C131.585 9.61572 133.095 10.9749 133.095 14.1702Z" fill="black"/>
<path d="M144.993 19.5057H152.984V22.6018H140.202V4.98096H144.983L144.993 19.5057Z" fill="black"/>
<path d="M162.334 22.6018V20.8412C161.606 22.0765 160.346 22.782 158.254 22.782C155.385 22.782 153.827 21.3191 153.827 19.0559C153.827 16.6135 155.72 15.8324 158.481 15.2689L159.617 15.0413C161.653 14.6389 162.259 14.3121 162.259 13.3325C162.259 12.4513 161.705 11.8696 160.696 11.8696C160.462 11.8423 160.224 11.8687 160.001 11.9461C159.777 12.0234 159.575 12.1509 159.407 12.3175C159.241 12.485 159.113 12.688 159.036 12.911C158.958 13.1341 158.931 13.3717 158.959 13.6066H154.287C154.41 10.8655 156.45 9.60645 160.729 9.60645C165.161 9.60645 166.695 11.1404 166.695 13.7823V20.6045C166.695 21.4329 166.695 22.1147 166.77 22.6164L162.334 22.6018ZM162.159 17.9198V16.4095C161.828 16.5607 161.426 16.7127 160.772 16.9394L160.393 17.0677C159.163 17.4701 158.556 17.745 158.556 18.6536C158.556 19.482 159.111 20.0737 160.195 20.0737C161.445 20.0601 162.15 19.2316 162.15 17.9198H162.159Z" fill="black"/>
<path d="M181.746 16.2111C181.746 19.96 179.728 22.7538 176.064 22.7538C175.472 22.7748 174.883 22.6692 174.336 22.4434C173.789 22.2186 173.297 21.8781 172.892 21.4466L172.542 22.6018H168.513V4.98096H173.044V11.3016C173.437 10.7717 173.949 10.343 174.54 10.0498C175.131 9.75669 175.784 9.6083 176.443 9.61558C180.15 9.61558 181.746 12.4095 181.746 16.2111ZM176.783 16.2111C176.783 13.4172 176.008 12.2574 174.823 12.2574C173.46 12.2574 172.93 13.4172 172.93 16.2111C172.93 18.4734 173.456 20.112 174.823 20.112C176.273 20.1311 176.798 18.4734 176.798 16.2111H176.783Z" fill="black"/>
<path d="M182.503 18.5024H187.284C187.336 19.8843 188.089 20.8411 189.552 20.8411C190.533 20.8411 191.209 20.4387 191.209 19.7568C191.209 18.8101 190.262 18.526 188.592 17.9953L186.305 17.2898C183.937 16.5369 182.754 15.3252 182.754 13.5027C182.754 11.0311 185.045 9.62549 189.074 9.62549C192.999 9.62549 195.29 11.0456 195.593 13.6256H191.214C191.168 13.0967 190.915 12.606 190.51 12.2619C190.105 11.9187 189.58 11.7484 189.05 11.7885C188.018 11.7885 187.54 12.2619 187.54 12.7689C187.54 13.6019 188.596 13.9287 190.059 14.383L192.374 15.1122C193.685 15.5146 196 16.3958 196 18.862C196 21.3281 193.685 23.0141 189.33 23.0141C185.272 23.0041 182.906 21.4182 182.503 18.5024Z" fill="black"/>
</g>
<defs>
<clipPath id="clip0_1043_33464">
<rect width="196" height="30" fill="white"/>
</clipPath>
</defs>
</svg>
