<svg width="32" height="32" viewBox="0 0 32 32" fill="none" xmlns="http://www.w3.org/2000/svg">
<g clip-path="url(#clip0)">
<path d="M0.000118477 15.9903C-0.0285894 7.32054 6.98572 0.00478702 15.9952 2.36106e-06C24.9474 -0.0047823 32.0238 7.26312 32 16.0334C31.976 24.8084 24.8804 31.9806 16.0144 31.9854C7.03836 31.9902 -0.0333742 24.7032 0.000118477 15.9903ZM29.5694 15.9903C29.579 14.9138 29.4018 13.8707 29.177 12.8229C28.6698 10.4641 27.5598 8.421 25.9616 6.63632C24.7894 5.33012 23.3924 4.31576 21.8182 3.54066C20.6986 2.98564 19.4976 2.67942 18.2823 2.43062C18.0909 2.39234 17.8948 2.42104 17.756 2.19616C16.9426 0.885166 15.1005 0.88995 14.2728 2.19616C14.2106 2.29664 14.1484 2.35884 14.0192 2.38276C13.7082 2.43062 13.402 2.50238 13.091 2.56936C9.76082 3.29186 7.12448 5.08132 5.10056 7.80378C3.469 9.99516 2.67474 12.488 2.46422 15.1722C2.30154 17.2439 2.72738 19.2391 3.4403 21.177C3.48336 21.2966 3.49292 21.3826 3.42116 21.507C3.01446 22.2008 2.99054 22.9186 3.4068 23.6124C3.81828 24.306 4.44986 24.641 5.25846 24.6124C5.3733 24.6076 5.44506 24.6362 5.51684 24.7272C6.03358 25.3874 6.6221 25.9808 7.25846 26.5262C9.41154 28.3682 11.9187 29.3826 14.713 29.6984C17.0335 29.9568 19.268 29.531 21.402 28.617C23.402 27.7606 25.0814 26.4544 26.4546 24.7606C26.5262 24.6698 26.6028 24.617 26.7272 24.6028C28.11 24.464 28.9426 23.0908 28.4354 21.799C28.3924 21.684 28.3924 21.598 28.4354 21.488C29.1482 19.7272 29.5502 17.8994 29.5694 15.9903Z" fill="#005B0C"/>
<path d="M29.5692 15.9906C29.5502 17.8949 29.1434 19.7275 28.4352 21.4882C28.3922 21.5982 28.3874 21.6844 28.4352 21.7992C28.9424 23.091 28.11 24.4642 26.7272 24.603C26.598 24.6174 26.5262 24.67 26.4544 24.761C25.0812 26.4546 23.4018 27.761 21.4018 28.6174C19.2727 29.5312 17.0382 29.957 14.7129 29.6986C11.9186 29.3876 9.40668 28.3734 7.25838 26.5264C6.62202 25.981 6.03828 25.3878 5.51676 24.7274C5.4402 24.6318 5.36844 24.6078 5.25838 24.6126C4.44978 24.6414 3.8182 24.3064 3.40672 23.6126C2.99046 22.9188 3.01438 22.2012 3.42108 21.5074C3.49284 21.3878 3.48328 21.2968 3.44022 21.1772C2.72252 19.2442 2.29668 17.249 2.45936 15.1772C2.66988 12.4883 3.46414 9.99546 5.0957 7.80886C7.1244 5.0864 9.75596 3.29214 13.0909 2.56966C13.3971 2.50268 13.7081 2.4309 14.0191 2.38306C14.1483 2.36392 14.2105 2.29694 14.2727 2.19646C15.1004 0.890243 16.9425 0.890243 17.7559 2.19646C17.8947 2.41656 18.0861 2.38784 18.2822 2.4309C19.4975 2.6797 20.6984 2.98592 21.8182 3.54094C23.3922 4.31606 24.7894 5.3352 25.9616 6.63662C27.5596 8.4213 28.6698 10.4644 29.177 12.8232C29.4018 13.871 29.5836 14.9189 29.5692 15.9906ZM3.9426 15.9619C3.95696 17.4739 4.22012 18.9189 4.73208 20.3208C4.79428 20.493 4.87082 20.5408 5.05264 20.5312C5.8804 20.4978 6.52632 20.8422 6.9378 21.56C7.34928 22.2776 7.311 23.0098 6.86124 23.7036C6.77512 23.8374 6.80384 23.8996 6.88996 24.005C7.40192 24.6078 7.96172 25.1628 8.58852 25.646C11.9473 28.2106 15.6602 28.8854 19.6937 27.6412C21.7606 27.005 23.4928 25.804 24.9378 24.1964C25.043 24.0768 25.0668 24.0098 24.952 23.8662C24.3826 23.1772 24.3252 22.2538 24.7846 21.5074C25.2392 20.761 26.0812 20.3974 26.9664 20.5792C27.1148 20.6078 27.1674 20.5696 27.22 20.4308C27.9904 18.4165 28.2104 16.3399 27.909 14.2107C27.5644 11.7945 26.5884 9.65574 24.9664 7.828C23.129 5.75146 20.842 4.44046 18.11 3.9285C18.0047 3.90936 17.9617 3.92372 17.9138 4.02898C17.5502 4.84716 16.9138 5.30648 16.0143 5.30648C15.1148 5.30648 14.4784 4.85194 14.1148 4.02898C14.0622 3.91414 14.0143 3.8998 13.8995 3.91894C12.9856 4.08162 12.0957 4.32564 11.2631 4.72276C6.52632 6.97634 4.20098 10.8041 3.9426 15.9619Z" fill="#FCFCFC"/>
<path d="M3.94287 15.9612C4.20123 10.7986 6.52657 6.97082 11.2682 4.72204C12.1055 4.3249 12.9955 4.08088 13.9045 3.9182C14.0194 3.89908 14.0672 3.91342 14.1198 4.02826C14.4835 4.85122 15.1198 5.30576 16.0194 5.30576C16.9189 5.30576 17.5552 4.84644 17.9189 4.02826C17.9667 3.923 18.0098 3.90864 18.115 3.92778C20.8518 4.43974 23.1342 5.74596 24.9714 7.82728C26.5886 9.65502 27.5696 11.7985 27.914 14.21C28.2154 16.3392 27.9954 18.4157 27.225 20.43C27.1724 20.5688 27.1198 20.6072 26.9714 20.5784C26.0862 20.3966 25.2442 20.765 24.7896 21.5066C24.3352 22.2578 24.3926 23.1764 24.9572 23.8654C25.072 24.009 25.048 24.076 24.9428 24.1956C23.4978 25.808 21.7706 27.0042 19.6988 27.6406C15.6653 28.8846 11.9524 28.21 8.59355 25.6454C7.96677 25.1668 7.40695 24.607 6.89499 24.0042C6.80887 23.9038 6.77539 23.8368 6.86629 23.7028C7.31605 23.009 7.35433 22.277 6.94285 21.5592C6.53137 20.8416 5.88543 20.497 5.05769 20.5306C4.87587 20.5402 4.79931 20.4922 4.73711 20.32C4.22037 18.9181 3.95721 17.4732 3.94287 15.9612ZM13.206 11.7842C13.206 11.4397 13.2203 11.1478 13.2012 10.8608C13.1773 10.4684 12.9572 10.2387 12.5744 10.1526C12.0864 10.0474 11.651 10.1861 11.4739 10.5115C11.3639 10.7029 11.3495 10.9182 11.3495 11.1383C11.3495 14.3631 11.3495 17.588 11.3495 20.8176C11.3495 20.9372 11.3591 21.0568 11.3782 21.1718C11.4404 21.5402 11.651 21.7458 12.0194 21.8176C12.6222 21.9372 13.0816 21.698 13.1868 21.2004C13.2155 21.0712 13.2108 20.9324 13.2108 20.7986C13.2108 18.655 13.2108 16.5114 13.2108 14.3727C13.2108 13.0282 13.9285 12.0808 15.2155 11.722C15.6174 11.6119 16.0289 11.5832 16.4452 11.5976C17.4643 11.6263 18.1533 12.1191 18.5122 13.0761C18.7897 13.8129 18.8375 14.5784 18.8423 15.3536C18.8519 17.2004 18.8519 19.0473 18.8519 20.899C18.8519 21.1718 18.8854 21.4396 19.1007 21.6214C19.4452 21.9086 19.8519 21.899 20.2538 21.7554C20.6222 21.6214 20.7132 21.3008 20.7132 20.942C20.7178 18.966 20.7226 16.9899 20.7178 15.0138C20.7178 14.2387 20.6174 13.4732 20.3734 12.7316C19.7466 10.8368 18.4404 10.1478 16.7466 10.1478C15.627 10.1478 14.6557 10.5689 13.7993 11.2722C13.6127 11.4206 13.4309 11.5832 13.206 11.7842Z" fill="#005B0C"/>
<path d="M13.2056 11.7843C13.4352 11.5882 13.6123 11.4207 13.7989 11.2676C14.6553 10.5642 15.6266 10.1432 16.7462 10.1432C18.44 10.1432 19.7462 10.8322 20.373 12.7269C20.617 13.4637 20.7128 14.2293 20.7174 15.0092C20.7222 16.9853 20.7128 18.9613 20.7128 20.9374C20.7128 21.2914 20.6218 21.6168 20.2534 21.7508C19.8563 21.8944 19.4496 21.9086 19.1003 21.6168C18.885 21.435 18.8515 21.167 18.8515 20.8944C18.8515 19.0474 18.8515 17.2006 18.8419 15.3489C18.8371 14.5738 18.7893 13.8082 18.5118 13.0714C18.1529 12.1192 17.4639 11.6264 16.4448 11.5929C16.0285 11.5786 15.617 11.6073 15.2151 11.7173C13.9281 12.0762 13.2104 13.0188 13.2104 14.368C13.2104 16.5116 13.2104 18.6551 13.2104 20.7938C13.2104 20.9278 13.2151 21.0666 13.1864 21.1958C13.0812 21.6886 12.6171 21.9278 12.019 21.813C11.6506 21.7412 11.4448 21.5354 11.3778 21.167C11.3587 21.0522 11.3491 20.9278 11.3491 20.813C11.3491 17.5881 11.3491 14.3633 11.3491 11.1336C11.3491 10.9183 11.3635 10.703 11.4735 10.5068C11.6553 10.1815 12.086 10.0475 12.574 10.148C12.9568 10.2293 13.1769 10.4638 13.2008 10.8561C13.2199 11.148 13.2056 11.4398 13.2056 11.7843Z" fill="#FCFCFC"/>
</g>
<defs>
<clipPath id="clip0">
<rect width="32" height="32" fill="white"/>
</clipPath>
</defs>
</svg>
