<svg width="255" height="78" viewBox="0 0 255 78" fill="none" xmlns="http://www.w3.org/2000/svg">
<path d="M93 33.42V64H85.56V23.68H95.72L111 54.29V23.68H118.44V64H108.28L93 33.42Z" fill="black"/>
<path d="M136.58 64.58C126.48 64.58 123.76 59.01 123.76 52.96V45.52C123.76 39.52 126.48 33.91 136.58 33.91C146.68 33.91 149.41 39.47 149.41 45.52V53C149.41 59 146.69 64.58 136.58 64.58ZM136.58 40.2C132.65 40.2 131.14 41.95 131.14 45.28V53.2C131.14 56.53 132.65 58.29 136.58 58.29C140.51 58.29 142 56.53 142 53.2V45.28C142 42 140.52 40.2 136.58 40.2Z" fill="black"/>
<path d="M171.85 64V43.4C171.85 41.83 171.18 41.04 169.49 41.04C167.8 41.04 164.49 42.13 161.81 43.52V64H154.43V34.51H160.05L160.78 36.99C164.457 35.1551 168.475 34.1062 172.58 33.91C175.42 33.91 177.17 35.06 178.14 37.05C181.824 35.1695 185.868 34.0989 190 33.91C194.9 33.91 196.65 37.35 196.65 42.62V64H189.27V43.4C189.27 41.83 188.61 41.04 186.91 41.04C184.205 41.3235 181.59 42.1682 179.23 43.52V64H171.85Z" fill="black"/>
<path d="M224.54 64H218.49L217.94 62C215.328 63.6937 212.283 64.5966 209.17 64.6C203.79 64.6 201.49 60.91 201.49 55.83C201.49 49.83 204.09 47.54 210.08 47.54H217.16V44.43C217.16 41.17 216.25 40.02 211.53 40.02C208.784 40.0492 206.047 40.3507 203.36 40.92L202.46 35.3C205.75 34.3882 209.146 33.9207 212.56 33.91C221.81 33.91 224.56 37.17 224.56 44.55L224.54 64ZM217.16 52.87H211.71C209.29 52.87 208.63 53.54 208.63 55.78C208.63 57.78 209.29 58.78 211.63 58.78C213.584 58.7501 215.499 58.2309 217.2 57.27L217.16 52.87Z" fill="black"/>
<path d="M229.07 44.31C229.07 37.78 231.97 33.91 238.81 33.91C241.454 33.9361 244.09 34.2174 246.68 34.75V22.47L254.06 21.47V64H248.19L247.46 61.52C244.774 63.5333 241.506 64.6179 238.15 64.61C232.22 64.61 229.07 61.1 229.07 54.38V44.31ZM246.68 41C244.531 40.5229 242.341 40.2616 240.14 40.22C237.48 40.22 236.45 41.49 236.45 44.15V54.54C236.45 56.96 237.36 58.29 240.08 58.29C242.525 58.2016 244.861 57.2565 246.68 55.62V41Z" fill="black"/>
<path d="M29.14 10.19L0 27V60.63L29.12 77.44L58.26 60.63V27L29.14 10.19ZM42.14 47.19L34.38 51.67L25 46.54V57.26L16.19 62.85V40.45L23.19 36.17L32.89 41.28V30.34L42.14 24.78V47.19Z" fill="black"/>
<path d="M93.42 13.81V8.15H88.25V13.81H85.61V0.219999H88.25V5.92H93.42V0.219999H96.07V13.81H93.42ZM105.75 13.81H103.65L103.46 13.14C102.561 13.7042 101.522 14.0055 100.46 14.01C98.6 14.01 97.8 12.78 97.8 11.09C97.8 9.09 98.7 8.33 100.8 8.33H103.25V7.33C103.25 6.24 102.94 5.86 101.3 5.86C100.349 5.86972 99.4016 5.97018 98.47 6.16L98.16 4.29C99.3024 3.98854 100.479 3.83396 101.66 3.83C104.86 3.83 105.81 4.91 105.81 7.37L105.75 13.81ZM103.19 10.11H101.3C100.47 10.11 100.24 10.33 100.24 11.11C100.24 11.89 100.47 12.11 101.24 12.11C101.916 12.1058 102.58 11.9304 103.17 11.6L103.19 10.11ZM111.1 14C109.906 13.9812 108.721 13.7926 107.58 13.44L107.94 11.56C108.917 11.8351 109.925 11.9796 110.94 11.99C112.07 11.99 112.24 11.75 112.24 10.99C112.24 10.23 112.11 10.09 110.46 9.7C107.96 9.12 107.67 8.52 107.67 6.62C107.67 4.72 108.57 3.79 111.48 3.79C112.509 3.79049 113.536 3.90451 114.54 4.13L114.29 6.13C113.362 5.96601 112.422 5.87241 111.48 5.85C110.37 5.85 110.18 6.09 110.18 6.69C110.18 7.48 110.25 7.54 111.63 7.88C114.48 8.61 114.75 8.97 114.75 10.98C114.75 12.99 114.18 14 111.1 14ZM122.81 13.8V7C122.81 6.47 122.58 6.21 121.99 6.21C121.057 6.30877 120.153 6.59084 119.33 7.04V13.84H116.77V0L119.33 0.379999V4.72C120.495 4.15126 121.765 3.83114 123.06 3.78C124.76 3.78 125.37 4.92 125.37 6.67V13.78L122.81 13.8ZM127.51 2.61V0.209999H130.07V2.61H127.51ZM127.51 13.8V4H130.07V13.8H127.51ZM132.11 4.08C132.11 1.62 133.6 0.200001 137.11 0.200001C138.386 0.199346 139.658 0.347001 140.9 0.639999L140.61 2.83C139.481 2.62554 138.337 2.51185 137.19 2.49C135.37 2.49 134.78 3.09 134.78 4.49V9.64C134.78 11.07 135.37 11.64 137.19 11.64C138.337 11.6145 139.481 11.4975 140.61 11.29L140.9 13.49C139.658 13.783 138.386 13.9307 137.11 13.93C133.63 13.93 132.11 12.5 132.11 10.05V4.08ZM146.52 14C143.02 14 142.08 12.15 142.08 10.14V7.67C142.08 5.67 143.02 3.81 146.52 3.81C150.02 3.81 151 5.66 151 7.67V10.15C151 12.16 150 14 146.52 14ZM146.52 5.89C145.16 5.89 144.63 6.47 144.63 7.58V10.22C144.63 11.32 145.16 11.91 146.52 11.91C147.88 11.91 148.41 11.32 148.41 10.22V7.59C148.41 6.48 147.88 5.9 146.52 5.9V5.89ZM158.16 6.05C157.226 6.45894 156.323 6.93693 155.46 7.48V13.8H152.9V4H155.06L155.23 5.08C156.064 4.53968 156.965 4.10945 157.91 3.8L158.16 6.05ZM168.38 10.54C168.38 12.71 167.38 14 165.01 14C164.093 13.9911 163.179 13.8974 162.28 13.72V17.72L159.73 18.1V4H161.73L161.98 4.82C162.926 4.15822 164.055 3.8086 165.21 3.82C167.21 3.82 168.35 4.98 168.35 7.22L168.38 10.54ZM162.28 11.65C163.027 11.8087 163.787 11.8957 164.55 11.91C165.47 11.91 165.83 11.48 165.83 10.6V7.15C165.83 6.34 165.51 5.9 164.57 5.9C163.727 5.92557 162.919 6.23976 162.28 6.79V11.65Z" fill="black"/>
</svg>
