<?xml version="1.0" encoding="utf-8"?>
<!-- Generator: Adobe Illustrator 17.0.0, SVG Export Plug-In . SVG Version: 6.00 Build 0)  -->
<!DOCTYPE svg PUBLIC "-//W3C//DTD SVG 1.1//EN" "http://www.w3.org/Graphics/SVG/1.1/DTD/svg11.dtd">
<svg version="1.1" id="Layer_1" xmlns="http://www.w3.org/2000/svg" xmlns:xlink="http://www.w3.org/1999/xlink" x="0px" y="0px"
	 width="612px" height="792px" viewBox="0 0 612 792" enable-background="new 0 0 612 792" xml:space="preserve">
<g>
	<path fill="#394C63" d="M118.719,347.692c-7.89,0-14.662,2.071-20.537,6.378c-3.51,2.566-6.983,7.258-9.916,11.409
		c-1.741-7.258-4.005-16.66-4.005-16.66l-22.351,0.027c-1.237,0-2.236,1.008-2.236,2.254v8.458c0,1.265,0.999,2.255,2.264,2.255
		l12.427-0.028c0,0,3.061,10.979,4.994,18.713c-2.603,4.701-5.132,8.752-7.304,12.94c-12.353,23.845-17.998,40.313-17.998,58.321
		c0,21.554,9.467,35.529,23.57,35.529c16.34,0,26.081-14.644,26.081-39.992c0-0.486-0.037-2.144-0.082-3.107
		c3.922,1.961,9.375,3.592,14.076,3.592c18.117,0,33.101-11.977,36.271-28.482c1.31-6.8,1.842-12.986,1.842-21.371
		c0-8.972-0.962-16.761-2.813-23.139C147.953,357.571,135.472,347.692,118.719,347.692z M77.628,474.789
		c-6.937,0-10.566-11.593-10.566-23.029c0-14.525,4.188-30.608,16.834-55.003c3.702,16.954,6.791,37.921,6.791,50.54
		C90.687,455.572,89.431,474.789,77.628,474.789z M141.19,416.835c-1.989,10.383-12.051,18.356-23.918,18.356
		c-4.976,0-10.099-1.723-14.58-3.226c-1.851-15.936-5.984-35.465-9.696-50.696c2.374-4.243,4.087-7.35,8.22-12.317
		c5.984-7.249,11.904-8.669,17.503-8.669c13.719,0,19.41,10.071,21.792,18.172c1.045,3.574,2.291,9.833,2.291,19.474
		C142.803,405.527,142.345,410.842,141.19,416.835z"/>
	<path fill="#394C63" d="M558.872,428.384l-6.607-5.352c-0.385-0.33-0.88-0.568-1.457-0.568c-0.642,0-1.2,0.266-1.604,0.696h-0.009
		c-2.126,2.575-6.167,6.79-6.653,7.276c-2.364,2.3-5.603,4.16-9.149,4.16c-6.241,0-10.361-1.878-10.361-12.976v-59.787h21.268
		c1.237,0,2.264-1.017,2.264-2.273v-8.486c0-1.237-1.026-2.254-2.264-2.254h-16.647v-0.017h-4.62l-0.037-24.451
		c-0.018-1.228-1.017-2.236-2.254-2.236h-8.468c-1.246,0-2.254,1.008-2.254,2.273v24.414h-10.266c-1.237,0-2.264,1.017-2.264,2.254
		v8.486c0,1.255,1.026,2.273,2.264,2.273h10.266v0.017v44.712c-2.951,3.372-11.28,12.243-15.202,16.156
		c-0.798,0.796-1.604,1.521-2.416,2.214c-4.345,3.667-8.961,5.981-14.551,7.729c-6.717,2.117-12.472,2.691-21.197,2.678
		c-13.201-0.019-19.648-8.871-19.648-8.871c1.125-1.16,16.156-16.259,16.156-16.259c12.447-12.843,22.402-25.061,24.457-27.427
		c0,0,2.614-2.68,4.718-6.603c4.609-8.596,4.678-17.646-3.193-23.928c-3.754-2.997-10.503-4.953-22.168-4.669
		c-17.404,0.424-34.518,10.526-38.018,28.323c-0.969,4.928-1.884,10.492-1.884,21.04c0,2.612,0.015,5.856,0.154,8.068
		c0.249,4.938,0.767,9.389,1.638,14c0.394,2.071,1.112,3.529,1.868,6.184c-1.812,2.288-3.715,4.425-6.376,6.605
		c-2.023,1.657-5.311,2.241-7.015,2.241l-0.587,0.019c-4.71,0-7.676-2.638-11.415-6.615l-0.641-0.669
		c-1.842-1.961-15.213-19.071-25.128-31.873l22.104-23.436l12.306-13.02c0.85-0.899,0.816-2.344-0.083-3.194l-6.167-5.829
		c-0.912-0.862-2.357-0.815-3.207,0.084l-1.635,1.729l-0.012-0.016l-33.007,34.971l-7.449,7.88v-87.962
		c0-1.246-0.999-2.264-2.255-2.264h-6.318v0.006h-2.167c-1.256,0-2.254,1.017-2.254,2.264v28.949h-0.001v72.754
		c-1.109,1.182-7.001,7.542-11.299,12.243c-3.739,4.051-8.761,9.1-14.525,12.106c-4.444,2.309-7.023,3.061-18.212,3.061
		c-11.666,0-21.706-8.065-23.677-18.375c-1.164-6.003-1.603-11.318-1.603-18.915c0-8.101,0.586-14.791,1.714-19.868
		c2.254-10.053,12.032-17.778,23.57-17.778c8.972,0,16.367,3.977,19.969,9.824c0.275,0.468,0.889,1.164,1.512,1.347
		c0.715,0.22,1.265,0.028,1.769-0.202l7.542-4.042c0.641-0.33,1.054-0.953,1.054-1.851c0-0.376-0.11-0.696-0.266-0.999l-0.467-0.962
		c-5.911-9.824-17.54-15.707-31.112-15.707c-17.595,0-32.945,11.574-36.51,27.511c-1.338,6.03-2.044,13.682-2.044,22.727
		c0,8.376,0.541,14.58,1.842,21.371c0.33,1.741,1.238,4.296,1.834,5.945c0,0-1.731,2.335-5.144,5.527
		c-4.504,4.187-9.201,3.665-11.427,3.203c-3.742-0.776-5.258-4.288-5.361-8.114c0,0,0.028-42.27,0.028-45.184
		c0-19.382-15.066-32.917-36.73-32.917c-11.345,0-22.388,4.784-29.527,12.793c-1.164,1.302-2.181,2.758-3.042,4.335
		c0,0-0.293,0.697-0.293,1.081c0,0.907,0.532,1.659,1.292,2.035v0.027l7.276,3.867h0.009c0.321,0.183,0.678,0.302,1.063,0.302
		c0.779,0,1.42-0.412,1.824-0.999c0,0,0.541-0.834,1.558-1.97c4.729-5.297,12.142-8.88,19.84-8.88
		c14.452,0,23.268,8.248,23.268,20.326c0,0.916-0.009,1.517-0.009,2.938l-12.463,0.027c-43.759,0-47.158,27.95-47.158,36.519
		c0,6.736,2.318,12.967,6.699,18.044c6.873,7.973,15.473,9.614,23.318,9.614c7.056,0,15.529-3.098,21.925-7.112
		c3.189-2.016,6.167-4.93,8.853-8.064c2.044,8.889,9.375,15.127,17.806,15.177c6.573,0.038,10.383-1.191,15.782-4.821
		c1.707-1.148,5.117-4.031,7.601-7.082c6.891,7.67,16.564,11.875,27.946,11.875c11.556,0,16.753-0.412,24.13-4.252
		c3.473-1.796,8.055-4.939,11.739-8.697c2.685-2.74,5.553-6.012,8.11-9.072l-0.037,19.149c0,1.256,1.017,2.264,2.282,2.264h8.495
		c1.256,0,2.255-1.008,2.255-2.264v-32.34l8.062-8.314c8.977,11.467,22.571,28.797,24.786,31.436l0.605,0.651
		c3.922,4.188,9.959,11.469,20.644,11.469c0.44,0,4.075,0.05,6.658-1.069c7.565-3.274,12.921-9.136,14.533-10.877
		c1.115,1.1,3.07,3.117,4.355,4.088c7.148,5.557,15.766,7.895,26.13,7.882c9.686-0.012,16.447-0.397,23.363-2.742
		c5.745-1.947,15.597-7.67,21.215-13.288c1.842-1.851,4.874-4.729,7.321-7.68c0.788,15.57,8.268,23.709,23.728,23.709
		c8.825,0,13.64-4.923,16.526-7.709c0.385-0.376,8.701-8.697,8.701-8.697c0.321-0.403,0.531-0.861,0.531-1.402
		C559.578,429.392,559.303,428.823,558.872,428.384z M224.945,407.805c0,13.453-14.525,26.53-27.63,26.53
		c-9.604,0-13.343-2.419-15.249-4.619c-2.383-2.768-3.537-5.883-3.537-9.558c0-15.158,12.133-23.506,34.145-23.506l12.271-0.018
		V407.805z M431.427,413.712c0,0-0.896-5.376-1.04-12.861c-0.056-2.89,0.018-5.992,0.116-9.538c0.087-3.15,0.595-7.701,1.049-10.784
		c1.118-7.598,4.661-11.833,8.806-15.17c4.591-3.695,11.23-5.801,21.246-5.766c9.604,0.034,11.05,5.976,9.396,9.258
		c-4.214,8.359-14.811,17.936-25.493,29.569L431.427,413.712z"/>
</g>
</svg>
