<svg width="32" height="32" viewBox="0 0 32 32" fill="none" xmlns="http://www.w3.org/2000/svg">
<path d="M22.4456 5.02832L31.7714 12.8455L28.4342 19.6569L22.7656 18.1026H17.9199L22.4456 5.02832Z" fill="url(#paint0_linear)"/>
<path d="M13.0286 10.1029L11.2 19.6571L11.0171 22.9486L6.49144 24.9142L0 25.6L1.96572 4.89142L13.6686 0L20.8914 4.75428L13.0286 10.1029Z" fill="url(#paint1_linear)"/>
<path d="M13.0286 10.1025L13.8971 28.5712L10.9714 31.9996L0 25.5996L9.00572 12.1597L13.0286 10.1025Z" fill="url(#paint2_linear)"/>
<path d="M25.0968 8.73142H13.9883L23.8168 0L25.0968 8.73142Z" fill="url(#paint3_linear)"/>
<path d="M32 28.6172L22.2172 31.9542L9.23438 28.2972L13.0287 10.1029L14.5372 8.73142L22.4458 8L21.7144 15.9543L28.023 13.5314L32 28.6172Z" fill="url(#paint4_linear)"/>
<path d="M25.8746 6.12598H6.12598V25.8746H25.8746V6.12598Z" fill="black"/>
<path d="M15.4057 22.1718H8V23.4062H15.4057V22.1718Z" fill="white"/>
<path d="M7.90918 8.73145H11.2463C13.212 8.73145 14.4006 9.87431 14.4006 11.5657V11.6114C14.4006 13.4857 12.9378 14.4914 11.1092 14.4914H9.73776V16.9143H7.9549V8.73145H7.90918ZM11.1549 12.8457C12.0692 12.8457 12.572 12.2972 12.572 11.6114V11.5657C12.572 10.7429 12.0235 10.3314 11.1092 10.3314H9.73776V12.8457H11.1549Z" fill="white"/>
<path d="M15.1318 12.8462C15.1318 10.5147 16.869 8.59473 19.3833 8.59473C20.9376 8.59473 21.8518 9.09759 22.629 9.87473L21.4862 11.2004C20.8462 10.6062 20.2062 10.2862 19.3833 10.2862C18.0118 10.2862 17.0061 11.429 17.0061 12.8462V12.8004C17.0061 14.2176 17.9661 15.3604 19.3833 15.3604C20.2976 15.3604 20.8918 14.9947 21.5318 14.4004L22.6746 15.5433C21.8518 16.4576 20.8918 17.0062 19.3376 17.0062C16.9147 17.0519 15.1318 15.1776 15.1318 12.8462Z" fill="white"/>
<defs>
<linearGradient id="paint0_linear" x1="11.4278" y1="12.3637" x2="30.4714" y2="12.3637" gradientUnits="userSpaceOnUse">
<stop stop-color="#21D789"/>
<stop offset="1" stop-color="#07C3F2"/>
</linearGradient>
<linearGradient id="paint1_linear" x1="-11.2272" y1="27.0082" x2="27.9862" y2="-1.93889" gradientUnits="userSpaceOnUse">
<stop offset="0.0107527" stop-color="#FCF84A"/>
<stop offset="0.1116" stop-color="#A7EB62"/>
<stop offset="0.2056" stop-color="#5FE077"/>
<stop offset="0.2727" stop-color="#32DA84"/>
<stop offset="0.3065" stop-color="#21D789"/>
<stop offset="0.5768" stop-color="#21D789"/>
<stop offset="0.5968" stop-color="#21D789"/>
<stop offset="0.686" stop-color="#20D68C"/>
<stop offset="0.7627" stop-color="#1ED497"/>
<stop offset="0.8348" stop-color="#19D1A9"/>
<stop offset="0.904" stop-color="#13CCC2"/>
<stop offset="0.9707" stop-color="#0BC6E1"/>
<stop offset="1" stop-color="#07C3F2"/>
</linearGradient>
<linearGradient id="paint2_linear" x1="4.26518" y1="35.4984" x2="10.8054" y2="14.9756" gradientUnits="userSpaceOnUse">
<stop stop-color="#21D789"/>
<stop offset="0.1638" stop-color="#24D788"/>
<stop offset="0.3047" stop-color="#2FD886"/>
<stop offset="0.4371" stop-color="#41DA82"/>
<stop offset="0.5644" stop-color="#5ADC7D"/>
<stop offset="0.6881" stop-color="#7AE077"/>
<stop offset="0.809" stop-color="#A1E36E"/>
<stop offset="0.9254" stop-color="#CFE865"/>
<stop offset="1" stop-color="#F1EB5E"/>
</linearGradient>
<linearGradient id="paint3_linear" x1="12.9256" y1="17.6563" x2="27.158" y2="-1.47922" gradientUnits="userSpaceOnUse">
<stop stop-color="#21D789"/>
<stop offset="0.0608105" stop-color="#24D788"/>
<stop offset="0.1131" stop-color="#2FD886"/>
<stop offset="0.1622" stop-color="#41DA82"/>
<stop offset="0.2094" stop-color="#5ADD7D"/>
<stop offset="0.2548" stop-color="#79E077"/>
<stop offset="0.2581" stop-color="#7CE076"/>
<stop offset="0.4986" stop-color="#8CE173"/>
<stop offset="0.9247" stop-color="#B2E56B"/>
</linearGradient>
<linearGradient id="paint4_linear" x1="34.6924" y1="20.0912" x2="6.01511" y2="19.8257" gradientUnits="userSpaceOnUse">
<stop offset="0.3871" stop-color="#FCF84A"/>
<stop offset="0.5358" stop-color="#ECF451"/>
<stop offset="0.8259" stop-color="#C2E964"/>
<stop offset="0.9247" stop-color="#B2E56B"/>
</linearGradient>
</defs>
</svg>
