<svg width="32" height="47" viewBox="0 0 32 47" fill="none" xmlns="http://www.w3.org/2000/svg">
    <path d="M16.3327 20.4752H16.4424L25.1809 29.232L16.4424 37.9888H9.00181L15.1809 31.8097H0.628906C0.738595 32.4678 0.866565 33.0528 0.994535 33.5281C4.24863 42.0655 16.0219 46.8004 16.0219 46.8004C16.0219 46.8004 27.594 41.773 31.0492 33.5464C31.7622 31.2429 31.9816 25.7951 31.9999 20.3655H16.2413L16.3327 20.4752Z" fill="#0092D3"/>
    <path d="M15.0897 26.5446H14.98L6.24145 17.7878L14.98 9.01275H22.4022L16.2414 15.1919H31.9452C31.872 10.2193 31.6892 6.25225 31.6892 6.25225C31.6892 6.25225 22.4205 5.92319 16.022 0C9.27617 5.92319 0.354829 6.27053 0.354829 6.27053C0.354829 6.27053 -0.285022 18.1169 0.153733 26.6543H15.1994L15.0897 26.5446Z" fill="#0092D3"/>
</svg>
