<svg width="24" height="24" viewBox="0 0 24 24" fill="none" xmlns="http://www.w3.org/2000/svg">
<path d="M9.0667 1C8.48322 1 7.92364 1.23179 7.51106 1.64437C7.09848 2.05695 6.8667 2.61652 6.8667 3.2C6.8667 3.78348 7.09848 4.34305 7.51106 4.75563C7.92364 5.16821 8.48322 5.4 9.0667 5.4H11.2667V3.2C11.2667 2.61652 11.0349 2.05695 10.6223 1.64437C10.2098 1.23179 9.65018 1 9.0667 1Z" fill="#36C5F0"/>
<path d="M9.0665 6.86633H3.2C2.61652 6.86633 2.05695 7.09812 1.64437 7.5107C1.23179 7.92328 1 8.48286 1 9.06633C1 9.64981 1.23179 10.2094 1.64437 10.622C2.05695 11.0345 2.61652 11.2663 3.2 11.2663H9.067C9.65048 11.2663 10.2101 11.0345 10.6226 10.622C11.0352 10.2094 11.267 9.64981 11.267 9.06633C11.267 8.48286 11.0352 7.92328 10.6226 7.5107C10.2101 7.09812 9.65048 6.86633 9.067 6.86633" fill="#36C5F0"/>
<path d="M23.0003 9.06682C23.0003 8.48335 22.7686 7.92377 22.356 7.51119C21.9434 7.09861 21.3838 6.86682 20.8003 6.86682C20.2169 6.86682 19.6573 7.09861 19.2447 7.51119C18.8321 7.92377 18.6003 8.48335 18.6003 9.06682V11.2668H20.8003C21.3838 11.2668 21.9434 11.035 22.356 10.6225C22.7686 10.2099 23.0003 9.6503 23.0003 9.06682Z" fill="#2EB67D"/>
<path d="M17.1336 9.067V3.2C17.1336 2.61652 16.9019 2.05695 16.4893 1.64437C16.0767 1.23179 15.5171 1 14.9336 1C14.3502 1 13.7906 1.23179 13.378 1.64437C12.9654 2.05695 12.7336 2.61652 12.7336 3.2V9.0665C12.7336 9.64998 12.9654 10.2096 13.378 10.6221C13.7906 11.0347 14.3502 11.2665 14.9336 11.2665C15.5171 11.2665 16.0767 11.0347 16.4893 10.6221C16.9019 10.2096 17.1336 9.64998 17.1336 9.0665" fill="#2EB67D"/>
<path d="M14.9327 22.9999C15.5161 22.9999 16.0757 22.7681 16.4883 22.3555C16.9009 21.9429 17.1327 21.3833 17.1327 20.7999C17.1327 20.2164 16.9009 19.6568 16.4883 19.2442C16.0757 18.8316 15.5161 18.5999 14.9327 18.5999H12.7327V20.7999C12.7327 21.3833 12.9645 21.9429 13.377 22.3555C13.7896 22.7681 14.3492 22.9999 14.9327 22.9999Z" fill="#ECB22E"/>
<path d="M14.9327 17.1336H20.7997C21.3831 17.1336 21.9427 16.9019 22.3553 16.4893C22.7679 16.0767 22.9997 15.5171 22.9997 14.9336C22.9997 14.3502 22.7679 13.7906 22.3553 13.378C21.9427 12.9654 21.3831 12.7336 20.7997 12.7336H14.9327C14.3492 12.7336 13.7896 12.9654 13.377 13.378C12.9645 13.7906 12.7327 14.3502 12.7327 14.9336C12.7327 15.5171 12.9645 16.0767 13.377 16.4893C13.7896 16.9019 14.3492 17.1336 14.9327 17.1336Z" fill="#ECB22E"/>
<path d="M1 14.933C1 15.5165 1.23179 16.0761 1.64437 16.4887C2.05695 16.9012 2.61652 17.133 3.2 17.133C3.78348 17.133 4.34305 16.9012 4.75563 16.4887C5.16821 16.0761 5.4 15.5165 5.4 14.933V12.733H3.2C2.61652 12.733 2.05695 12.9648 1.64437 13.3774C1.23179 13.79 1 14.3496 1 14.933Z" fill="#E01E5A"/>
<path d="M6.8667 14.933V20.8C6.8667 21.3835 7.09848 21.9431 7.51106 22.3557C7.92364 22.7682 8.48322 23 9.0667 23C9.65018 23 10.2098 22.7682 10.6223 22.3557C11.0349 21.9431 11.2667 21.3835 11.2667 20.8V14.933C11.2667 14.3496 11.0349 13.79 10.6223 13.3774C10.2098 12.9648 9.65018 12.733 9.0667 12.733C8.48322 12.733 7.92364 12.9648 7.51106 13.3774C7.09848 13.79 6.8667 14.3496 6.8667 14.933Z" fill="#E01E5A"/>
</svg>
