<svg width="208" height="43" viewBox="0 0 208 43" fill="none" xmlns="http://www.w3.org/2000/svg">
<path d="M93.8039 17.9193L94.8939 13.1593H76.6839L76.2739 14.9993C76.1718 15.3312 76.1523 15.683 76.2173 16.024C76.2822 16.3651 76.4296 16.6852 76.6464 16.9563C76.8633 17.2274 77.1432 17.4414 77.4617 17.5796C77.7802 17.7178 78.1277 17.7761 78.4739 17.7493H86.9139L71.9639 30.9393L70.9639 35.3693H90.2339L91.3439 30.5193H79.1539L93.8039 17.9193ZM105.944 21.7593C105.094 21.5393 100.304 20.8293 100.604 19.1693C100.944 17.3193 103.204 17.1693 104.314 17.1693C106.584 17.2393 107.314 18.2393 107.424 18.5893C107.556 19.0322 107.837 19.4157 108.22 19.6745C108.603 19.9334 109.064 20.0517 109.524 20.0093H113.114C113.504 17.7893 113.614 12.6593 105.274 12.6593C102.594 12.6593 99.0339 13.3293 96.6639 16.0493C95.4039 17.5093 93.2239 21.1293 95.4539 23.8493C96.6239 25.2293 99.6639 26.2993 102.924 26.9393C105.034 27.3493 106.144 28.1893 105.924 29.1893C105.784 29.8593 104.924 31.3693 101.844 31.3593C100.454 31.3593 97.4539 31.1493 98.0139 28.0193H92.3439C91.6739 30.8593 91.4339 35.7893 100.084 35.7893C103.424 35.7893 110.214 35.3693 111.984 28.2693C113.254 23.1593 107.504 22.1493 105.984 21.7593H105.944ZM126.054 29.6093C125.556 30.0679 124.971 30.4219 124.334 30.6504C123.696 30.8788 123.02 30.9771 122.344 30.9393C118.054 30.9393 118.544 26.7393 119.124 24.1793C119.704 21.6193 121.124 17.4993 125.124 17.4993C128.014 17.4993 128.344 19.3693 128.494 19.9193H134.334C134.124 13.7593 129.404 12.5793 126.064 12.6593C116.904 12.8893 114.254 20.5393 113.434 24.0993C111.044 34.4893 117.684 35.7893 120.864 35.7893C123.307 35.8537 125.716 35.2003 127.792 33.91C129.868 32.6196 131.52 30.7489 132.544 28.5293H128.374C127.915 28.512 127.458 28.6004 127.038 28.7876C126.619 28.9749 126.248 29.256 125.954 29.6093H126.054ZM149.804 31.7393C148.117 33.7291 145.771 35.0458 143.194 35.4493C138.124 36.2893 131.194 36.0793 132.904 28.7793C133.063 27.7725 133.428 26.8092 133.975 25.9491C134.522 25.089 135.24 24.3505 136.084 23.7793C139.014 21.8493 142.914 21.5793 144.174 21.4393C144.604 21.3893 147.794 21.1493 148.344 19.2593C148.894 17.3693 145.954 17.2593 145.134 17.2593C142.624 17.2593 141.764 18.2593 141.344 18.8393H135.754C138.014 12.8893 144.244 12.6593 145.934 12.6593C147.814 12.6593 155.384 12.6593 153.934 18.9293C151.734 28.4893 151.654 29.4393 149.804 31.7393ZM147.344 24.1793C146.211 24.6396 145.039 25.0009 143.844 25.2593C142.674 25.6193 140.484 25.7493 139.414 26.7693C138.494 27.6293 136.884 31.1993 140.714 31.2793C142.198 31.3164 143.644 30.8121 144.783 29.8607C145.922 28.9093 146.676 27.5759 146.904 26.1093C147.094 25.2293 147.344 24.1793 147.344 24.1793ZM161.744 6.64934H158.744L152.194 35.3693H158.034L163.954 9.36934C164.061 9.03678 164.083 8.68301 164.021 8.33946C163.958 7.99592 163.811 7.67325 163.593 7.40014C163.375 7.12703 163.094 6.91193 162.773 6.77397C162.452 6.63601 162.102 6.57945 161.754 6.60934L161.744 6.64934ZM176.894 28.4893H181.074C180.034 30.71 178.372 32.5816 176.29 33.8772C174.208 35.1729 171.796 35.8371 169.344 35.7893C160.454 35.7893 161.004 27.8593 161.914 24.0993C164.434 13.6493 171.424 12.6593 174.544 12.6593C178.694 12.6593 185.204 14.3793 181.904 25.7693H167.494C167.144 27.2793 166.844 30.9893 170.824 30.9393C171.916 31.0023 172.997 30.6959 173.894 30.0693C174.434 29.7893 174.894 28.5593 176.894 28.5293V28.4893ZM168.344 21.9993H176.854C177.584 17.9193 175.054 17.4893 173.624 17.4893C172.404 17.4893 169.494 17.9393 168.344 21.9993ZM189.394 15.5693C186.445 17.7527 184.424 20.9653 183.734 24.5693C183.384 26.1893 181.274 35.3393 181.274 35.3393H187.124C187.124 35.3393 189.344 25.2993 189.744 23.9393C190.111 22.1885 191.106 20.6324 192.54 19.564C193.975 18.4957 195.751 17.989 197.534 18.1393L198.884 13.1393C195.547 12.9192 192.227 13.7667 189.404 15.5593L189.394 15.5693ZM199.604 8.80934L199.754 8.10934H202.904L202.754 8.80934H201.624L200.974 11.8793H200.144L200.784 8.80934H199.604ZM204.774 8.10934L205.064 10.8393L206.524 8.10934H207.674L206.874 11.8793H206.104L206.784 8.87934L205.194 11.8793H204.564L204.194 8.87934L203.634 11.8793H202.844L203.644 8.10934H204.774Z" fill="#236BF5"/>
<path d="M69.4844 21.8594C70.6044 28.7294 64.6344 32.5994 58.5944 32.9994C54.7444 40.9994 41.1844 46.2894 29.4344 40.5294C24.4344 41.2994 21.6444 40.0394 19.5244 37.6394C23.8244 32.1094 36.8344 22.1494 52.7344 27.2894C61.2244 30.0294 63.4244 23.5894 61.2844 21.1694C53.2844 12.0794 35.1944 20.2694 34.5544 20.9494C41.6544 10.0894 67.0544 7.03944 69.4844 21.8594Z" fill="#236BF5"/>
<path d="M45.1341 9.3694C45.1341 9.3694 39.3441 7.2994 31.2241 10.8194L30.2241 10.3994C38.0841 5.1994 44.9441 2.9994 50.8141 3.8594C47.2641 -0.230603 30.1941 -3.2406 20.4241 6.5594C8.34406 4.1794 -0.115945 14.4194 0.344055 23.7694C0.804055 33.1194 11.0541 38.9994 16.8641 37.3694C17.0033 37.3494 17.1448 37.3494 17.2841 37.3694C18.5741 31.1894 23.8341 16.8094 45.1341 9.3694Z" fill="#236BF5"/>
</svg>
