<svg width="726" height="236" viewBox="0 0 726 236" fill="none" xmlns="http://www.w3.org/2000/svg"><style>path,line,circle,rect,polygon,polyline,ellipse{vector-effect:non-scaling-stroke}</style>
<g clip-path="url(#clip0_201_7277)">
<path d="M-5.03882 34.2874H291.976C301.77 34.2874 309.71 42.218 309.71 51.9992V315.47" stroke="#DEDBFF" stroke-miterlimit="10"/>
<path d="M-5.03882 48.7515H282.164C289.726 48.7515 295.871 54.8883 295.871 62.4413V314.168" stroke="#DEDBFF" stroke-miterlimit="10"/>
<path d="M-5.03882 63.1965H272.333C277.683 63.1965 282.013 67.5206 282.013 72.8644V314.168" stroke="#DEDBFF" stroke-miterlimit="10"/>
<path d="M-5.03882 77.6606H262.521C265.64 77.6606 268.173 80.1909 268.173 83.3065V318.073" stroke="#DEDBFF" stroke-miterlimit="10"/>
</g>
<g clip-path="url(#clip1_201_7277)">
<path d="M814.24 64.0576H396.717C386.924 64.0576 378.983 71.9883 378.983 81.7695V213.249" stroke="#DEDBFF" stroke-miterlimit="10"/>
<path d="M814.24 78.5217H406.548C398.986 78.5217 392.841 84.6586 392.841 92.2116V213.268" stroke="#DEDBFF" stroke-miterlimit="10"/>
<path d="M814.24 92.967H416.361C411.01 92.967 406.681 97.2911 406.681 102.635V213.249" stroke="#DEDBFF" stroke-miterlimit="10"/>
<path d="M814.24 107.431H426.192C423.072 107.431 420.539 109.961 420.539 113.077V213.268" stroke="#DEDBFF" stroke-miterlimit="10"/>
</g>
<circle cx="352.166" cy="168.271" r="48.1857" stroke="#5A30C5"/>
<path d="M371.484 156.747C363.759 156.726 338.966 156.65 330.972 156.626C329.549 156.622 328.385 157.69 328.403 159.1C328.459 163.465 329.528 172.05 337.079 171.917C349.426 171.699 346.233 162.939 350.883 162.967H352.359C357.71 163.105 353.999 171.949 366.08 171.783C373.979 171.674 374.342 163.18 374.044 159.011C373.949 157.695 372.816 156.751 371.484 156.747Z" fill="#5A30C5"/>
<path d="M372.648 173.205C373.607 172.524 374.941 172.741 375.628 173.69C377.143 175.784 379.527 179.306 379.224 183.424C379.073 185.469 377.756 187.487 376.016 188.795C374.204 190.158 371.659 190.962 368.887 190.159C368.212 189.963 367.301 189.745 366.232 189.516L365.855 189.925C362.586 193.457 356.866 196.684 351.366 196.596C347.081 196.527 341.539 194.907 337.486 190.566L337.054 190.103C336.106 190.334 335.19 190.554 334.307 190.743L334.278 190.749L334.251 190.756C332.671 191.051 327.541 191.674 324.678 186.798C323.194 184.272 323.683 181.49 324.496 179.352C325.324 177.178 326.662 175.196 327.575 173.911C328.253 172.956 329.586 172.727 330.551 173.399C331.515 174.071 331.746 175.389 331.068 176.345C330.183 177.591 329.119 179.204 328.494 180.844C327.857 182.52 327.844 183.775 328.369 184.67C329.724 186.977 332.097 186.849 333.45 186.597C337.847 185.647 344.656 183.483 352.004 183.55C358.188 183.55 366.662 185.107 370.087 186.099C371.327 186.459 372.492 186.133 373.432 185.426C374.444 184.665 374.924 183.672 374.965 183.116C375.144 180.683 373.71 178.303 372.156 176.155C371.469 175.205 371.689 173.885 372.648 173.205ZM351.983 187.781C348.42 187.746 345.068 188.282 341.97 188.948C344.896 191.34 348.516 192.32 351.437 192.367C354.689 192.419 358.377 190.769 361.077 188.58C358.051 188.125 354.754 187.781 352.004 187.781H351.983ZM346.625 174.357C347.314 173.409 348.648 173.192 349.605 173.874C350.563 174.556 350.78 175.88 350.091 176.828L348.69 178.758C348.001 179.705 346.667 179.921 345.709 179.239C344.752 178.557 344.535 177.235 345.224 176.287L346.625 174.357ZM353.005 173.874C353.963 173.192 355.297 173.409 355.986 174.357L357.387 176.287C358.075 177.235 357.858 178.557 356.901 179.239C355.944 179.921 354.607 179.706 353.919 178.758L352.517 176.828C351.828 175.88 352.048 174.556 353.005 173.874ZM371.49 154.631C373.815 154.638 375.993 156.322 376.175 158.862C376.33 161.035 376.343 164.582 375.128 167.685C374.508 169.267 373.532 170.826 372.008 171.998C370.46 173.188 368.494 173.866 366.109 173.899C362.837 173.944 360.397 173.383 358.536 172.335C356.65 171.273 355.573 169.828 354.834 168.526C354.481 167.903 354.181 167.265 353.946 166.786C353.69 166.266 353.5 165.909 353.308 165.634C353.127 165.376 352.995 165.268 352.901 165.212C352.839 165.176 352.733 165.125 352.534 165.098L352.302 165.082H350.869C350.658 165.081 350.602 165.121 350.596 165.125C350.564 165.145 350.461 165.223 350.283 165.489C350.096 165.77 349.909 166.13 349.643 166.664C349.395 167.162 349.086 167.792 348.704 168.429C347.915 169.746 346.772 171.175 344.848 172.261C342.947 173.333 340.455 173.972 337.117 174.031C334.788 174.072 332.838 173.433 331.273 172.283C329.737 171.155 328.695 169.627 327.983 168.065C326.582 164.987 326.296 161.397 326.267 159.126C326.232 156.431 328.472 154.504 330.978 154.511C338.974 154.535 363.766 154.609 371.49 154.631ZM330.966 158.742C330.801 158.742 330.687 158.8 330.624 158.86C330.568 158.912 330.537 158.976 330.538 159.073C330.565 161.167 330.842 164.053 331.877 166.326C332.384 167.438 333.029 168.305 333.819 168.885C334.58 169.444 335.595 169.828 337.041 169.802C339.876 169.752 341.615 169.214 342.733 168.583C343.828 167.966 344.494 167.166 345.032 166.27C345.313 165.8 345.546 165.326 345.812 164.793C346.059 164.296 346.359 163.696 346.719 163.157C347.088 162.603 347.595 161.998 348.327 161.543C349.084 161.073 349.945 160.847 350.884 160.851H352.415C353.399 160.877 354.292 161.111 355.078 161.572C355.852 162.026 356.403 162.63 356.816 163.219C357.216 163.789 357.531 164.412 357.788 164.935C358.065 165.5 358.285 165.973 358.557 166.454C359.07 167.358 359.665 168.103 360.647 168.656C361.655 169.223 363.282 169.706 366.049 169.668C367.613 169.646 368.655 169.22 369.388 168.656C370.144 168.075 370.723 167.23 371.144 166.154C372.011 163.941 372.056 161.157 371.914 159.161C371.908 159.087 371.88 159.03 371.82 158.978C371.752 158.919 371.635 158.862 371.478 158.862C363.753 158.84 338.96 158.766 330.966 158.742ZM351.266 140.916C358.029 141.008 362.475 143.241 365.252 145.587C366.624 146.746 367.56 147.909 368.162 148.801C368.462 149.247 368.681 149.628 368.829 149.909C368.903 150.049 368.959 150.164 369 150.252C369.02 150.295 369.037 150.332 369.05 150.361C369.057 150.376 369.062 150.39 369.067 150.4C369.069 150.405 369.071 150.411 369.073 150.415C369.074 150.417 369.074 150.419 369.075 150.421L369.077 150.423C369.078 150.424 369.062 150.433 367.306 151.15L369.077 150.423C369.527 151.503 369.008 152.742 367.918 153.187C366.895 153.605 365.735 153.179 365.223 152.235L365.133 152.047C365.134 152.049 365.135 152.052 365.135 152.053L365.125 152.032C365.111 152.002 365.083 151.944 365.041 151.865C364.958 151.706 364.817 151.458 364.61 151.15C364.193 150.531 363.509 149.675 362.48 148.806C360.455 147.094 356.966 145.225 351.207 145.147C345.501 145.069 342.05 146.979 340.034 148.772C339.007 149.686 338.321 150.6 337.899 151.27C337.688 151.604 337.545 151.875 337.459 152.051C337.416 152.138 337.386 152.202 337.371 152.237C337.363 152.254 337.36 152.265 337.358 152.268L337.363 152.257C337.363 152.257 337.363 152.254 337.361 152.253C336.938 153.343 335.706 153.888 334.605 153.47C333.504 153.052 332.952 151.828 333.375 150.737L335.267 151.456C333.492 150.782 333.383 150.739 333.377 150.735L333.379 150.727C333.381 150.723 333.383 150.717 333.385 150.712C333.39 150.702 333.396 150.688 333.402 150.673C333.414 150.643 333.43 150.605 333.45 150.559C333.49 150.468 333.544 150.346 333.617 150.198C333.762 149.902 333.978 149.499 334.276 149.027C334.871 148.083 335.805 146.849 337.179 145.626C339.966 143.146 344.449 140.824 351.266 140.916Z" fill="#5A30C5"/>
<path d="M358.602 131.881C358.146 132.258 357.59 132.499 356.999 132.576C356.408 132.653 355.807 132.563 355.267 132.317C354.726 132.07 354.269 131.677 353.948 131.183C353.627 130.69 353.456 130.116 353.455 129.531L352.948 47.1598C352.948 46.3437 353.278 45.5611 353.865 44.984C354.452 44.407 355.249 44.0828 356.079 44.0828L456.706 44.5562C457.536 44.5562 458.333 44.8803 458.92 45.4574C459.507 46.0345 459.837 46.8171 459.837 47.6332L460.344 117.696C460.344 118.512 460.014 119.294 459.427 119.872C458.84 120.449 458.043 120.773 457.213 120.773L372.243 120.299L358.602 131.881Z" fill="#F5F5FF" stroke="#9077F3" stroke-linecap="round" stroke-linejoin="round"/>
<path d="M337.53 107.798C337.987 108.175 338.543 108.416 339.133 108.494C339.724 108.571 340.325 108.481 340.866 108.234C341.406 107.987 341.864 107.594 342.185 107.1C342.506 106.607 342.677 106.034 342.678 105.448L343.185 23.0771C343.185 22.261 342.855 21.4783 342.267 20.9013C341.68 20.3242 340.884 20 340.053 20L239.427 20.4734C238.596 20.4734 237.8 20.7976 237.213 21.3746C236.625 21.9517 236.296 22.7344 236.296 23.5505L235.789 93.613C235.789 94.4291 236.118 95.2117 236.706 95.7888C237.293 96.3659 238.089 96.69 238.92 96.69L323.89 96.2166L337.53 107.798Z" fill="#F5F5FF" stroke="#9077F3" stroke-linecap="round" stroke-linejoin="round"/>
<g clip-path="url(#clip2_201_7277)">
<path d="M408.273 56.427C394.248 56.427 382.889 67.7929 382.889 81.8115C382.889 93.0294 390.161 102.542 400.245 105.895C401.515 106.134 401.98 105.349 401.98 104.675C401.98 104.072 401.959 102.475 401.948 100.359C394.887 101.891 393.398 96.9534 393.398 96.9534C392.243 94.0236 390.574 93.2409 390.574 93.2409C388.274 91.6671 390.752 91.6988 390.752 91.6988C393.301 91.8765 394.64 94.3134 394.64 94.3134C396.903 98.1951 400.582 97.074 402.033 96.4245C402.261 94.783 402.915 93.664 403.641 93.0294C398.003 92.3947 392.078 90.2117 392.078 80.4852C392.078 77.714 393.062 75.4506 394.69 73.6737C394.405 73.0327 393.548 70.4519 394.912 66.9552C394.912 66.9552 397.038 66.2741 401.893 69.5571C403.924 68.9923 406.082 68.7131 408.239 68.7004C410.397 68.7131 412.555 68.9923 414.585 69.5571C419.409 66.2741 421.534 66.9552 421.534 66.9552C422.899 70.4519 422.042 73.0327 421.788 73.6737C423.407 75.4506 424.39 77.714 424.39 80.4852C424.39 90.2371 418.457 92.3842 412.809 93.0082C413.697 93.7697 414.522 95.3267 414.522 97.7043C414.522 101.102 414.49 103.83 414.49 104.655C414.49 105.322 414.935 106.115 416.235 105.861C426.391 102.532 433.658 93.0124 433.658 81.8115C433.658 67.7929 422.292 56.427 408.273 56.427Z" fill="#5A30C5"/>
</g>
<path d="M273.476 63.3755C273.476 66.4059 271.027 68.8552 267.996 68.8552C264.966 68.8552 262.516 66.4059 262.516 63.3755C262.516 60.345 264.966 57.8958 267.996 57.8958H273.476V63.3755ZM276.216 63.3755C276.216 60.345 278.665 57.8958 281.695 57.8958C284.726 57.8958 287.175 60.345 287.175 63.3755V77.0748C287.175 80.1053 284.726 82.5546 281.695 82.5546C278.665 82.5546 276.216 80.1053 276.216 77.0748V63.3755Z" fill="#5A30C5"/>
<path d="M281.695 41.3738C278.665 41.3738 276.216 38.9245 276.216 35.894C276.216 32.8636 278.665 30.4143 281.695 30.4143C284.726 30.4143 287.175 32.8636 287.175 35.894V41.3738H281.695ZM281.695 44.1552C284.726 44.1552 287.175 46.6044 287.175 49.6349C287.175 52.6654 284.726 55.1146 281.695 55.1146H267.955C264.924 55.1146 262.475 52.6654 262.475 49.6349C262.475 46.6044 264.924 44.1552 267.955 44.1552H281.695Z" fill="#5A30C5"/>
<path d="M303.656 49.6349C303.656 46.6044 306.105 44.1552 309.136 44.1552C312.166 44.1552 314.615 46.6044 314.615 49.6349C314.615 52.6654 312.166 55.1146 309.136 55.1146H303.656V49.6349ZM300.916 49.6349C300.916 52.6654 298.467 55.1146 295.436 55.1146C292.406 55.1146 289.957 52.6654 289.957 49.6349V35.894C289.957 32.8636 292.406 30.4143 295.436 30.4143C298.467 30.4143 300.916 32.8636 300.916 35.894V49.6349Z" fill="#5A30C5"/>
<path d="M295.436 71.5951C298.467 71.5951 300.916 74.0444 300.916 77.0748C300.916 80.1053 298.467 82.5546 295.436 82.5546C292.406 82.5546 289.957 80.1053 289.957 77.0748V71.5951H295.436ZM295.436 68.8552C292.406 68.8552 289.957 66.4059 289.957 63.3755C289.957 60.345 292.406 57.8958 295.436 57.8958H309.177C312.208 57.8958 314.657 60.345 314.657 63.3755C314.657 66.4059 312.208 68.8552 309.177 68.8552H295.436Z" fill="#5A30C5"/>
<defs>
<clipPath id="clip0_201_7277">
<rect width="359.625" height="68.351" fill="white" transform="translate(-36 20)"/>
</clipPath>
<clipPath id="clip1_201_7277">
<rect width="435.837" height="62.7713" fill="white" transform="translate(378.403 54.8728)"/>
</clipPath>
<clipPath id="clip2_201_7277">
<rect width="50.769" height="50.769" fill="white" transform="translate(382.889 55.7988)"/>
</clipPath>
</defs>
</svg>
