<svg width="726" height="221" viewBox="0 0 726 221" fill="none" xmlns="http://www.w3.org/2000/svg"><style>path,line,circle,rect,polygon,polyline,ellipse{vector-effect:non-scaling-stroke}</style>
<path d="M630.339 -29.8095L630.339 203.473C630.339 212.6 622.94 220 613.812 220L441.468 220C432.34 220 424.94 212.6 424.94 203.473L424.94 201.05" stroke="#DEDBFF"/>
<path d="M584.649 -48.143L584.649 185.139C584.649 194.267 577.249 201.667 568.121 201.667L395.777 201.667C386.649 201.667 379.25 194.267 379.25 185.139L379.25 182.716" stroke="#DEDBFF"/>
<path d="M538.958 -66.476L538.958 166.806C538.958 175.934 531.558 183.334 522.431 183.334L350.087 183.333C340.959 183.333 333.559 175.934 333.559 166.806L333.559 164.383" stroke="#DEDBFF"/>
<path d="M493.268 -84.8095L493.268 148.473C493.268 157.6 485.868 165 476.74 165L304.396 165C295.268 165 287.869 157.6 287.869 148.473L287.869 146.05" stroke="#DEDBFF"/>
<path d="M447.577 -103.143L447.577 130.139C447.577 139.267 440.177 146.667 431.049 146.667L258.705 146.667C249.578 146.667 242.178 139.267 242.178 130.139L242.178 127.716" stroke="#DEDBFF"/>
<path d="M401.886 -121.476L401.886 111.806C401.886 120.934 394.487 128.334 385.359 128.334L213.015 128.333C203.887 128.333 196.487 120.934 196.487 111.806L196.487 109.383" stroke="#DEDBFF"/>
<path d="M356.196 -139.809L356.196 93.4725C356.196 102.6 348.796 110 339.668 110L167.324 110C158.196 110 150.797 102.6 150.797 93.4725L150.797 91.05" stroke="#DEDBFF"/>
<rect x="0.5" y="-0.5" width="204.399" height="248.81" rx="16.0275" transform="matrix(1 8.74228e-08 8.74228e-08 -1 95 89.8096)" stroke="#DEDBFF" fill="#F5F5FF"/>
<rect width="73.3568" height="13.5428" rx="4.13187" transform="matrix(1 8.74228e-08 8.74228e-08 -1 126.092 75.8804)" fill="#A697FC"/>
<rect width="28.2141" height="13.5428" rx="4.13187" transform="matrix(1 8.74228e-08 8.74228e-08 -1 210.736 75.8804)" fill="#DEDBFF"/>
<rect width="28.2141" height="13.5428" rx="4.13187" transform="matrix(1 8.74228e-08 8.74228e-08 -1 237.821 23.9663)" fill="#5A30C5"/>
<rect width="47.3998" height="13.5428" rx="4.13187" transform="matrix(1 8.74228e-08 8.74228e-08 -1 147.536 49.9233)" fill="#5A30C5"/>
<rect width="66.5854" height="13.5428" rx="4.13187" transform="matrix(1 8.74228e-08 8.74228e-08 -1 206.222 49.9233)" fill="#9077F3"/>
<rect width="80.1282" height="13.5428" rx="4.13187" transform="matrix(1 8.74228e-08 8.74228e-08 -1 147.535 22.8374)" fill="#DEDBFF"/>
</svg>
