<svg width="427" height="433" viewBox="0 0 427 433" fill="none" xmlns="http://www.w3.org/2000/svg"><style>path,line,circle,rect,polygon,polyline,ellipse{vector-effect:non-scaling-stroke}</style>
<g clip-path="url(#clip0_201_7250)">
<path d="M228.911 -561.517L228.911 308.663C228.911 319.073 233.05 329.053 240.403 336.417L464.942 561" stroke="#492E8E" stroke-miterlimit="10"/>
<path d="M247.597 -563.678L247.597 304.206C247.597 312.681 250.96 320.811 256.958 326.801L483.627 553.515" stroke="#492E8E" stroke-miterlimit="10"/>
<path d="M266.283 -566.919L266.283 299.758C266.283 306.299 268.88 312.579 273.505 317.204L502.314 546.058" stroke="#492E8E" stroke-miterlimit="10"/>
<path d="M284.969 -568L284.969 295.3C284.969 299.907 286.8 304.327 290.061 307.588L521 538.572" stroke="#492E8E" stroke-miterlimit="10"/>
<path d="M207 -568.517L207 301.663C207 312.073 202.861 322.053 195.508 329.417L-29.0311 554" stroke="#492E8E" stroke-miterlimit="10"/>
<path d="M188.314 -570.678L188.314 297.206C188.314 305.681 184.951 313.811 178.953 319.801L-47.7166 546.515" stroke="#492E8E" stroke-miterlimit="10"/>
<path d="M169.628 -573.919L169.628 292.758C169.628 299.299 167.031 305.579 162.406 310.204L-66.4029 539.058" stroke="#492E8E" stroke-miterlimit="10"/>
<path d="M150.942 -575L150.942 288.3C150.942 292.907 149.111 297.327 145.85 300.588L-85.0889 531.572" stroke="#492E8E" stroke-miterlimit="10"/>
</g>
<path d="M114.9 213.822L89.8003 199.348C89.404 199.12 88.9545 199 88.497 199C88.0395 199 87.5901 199.12 87.1937 199.348L62.0972 213.822C61.764 214.015 61.4872 214.291 61.2946 214.624C61.1021 214.956 61.0004 215.334 61 215.718V244.901C61.0004 245.285 61.1021 245.663 61.2946 245.995C61.4872 246.328 61.764 246.604 62.0972 246.797L87.1967 261.271C87.5929 261.499 88.0424 261.62 88.5 261.62C88.9576 261.62 89.4071 261.499 89.8033 261.271L114.903 246.799C115.236 246.607 115.513 246.331 115.705 245.998C115.898 245.666 116 245.288 116 244.904V215.715C116 215.331 115.898 214.953 115.705 214.621C115.513 214.288 115.236 214.012 114.903 213.819L114.9 213.822ZM113.325 216.888L89.0946 258.804C88.9315 259.085 88.4985 258.97 88.4985 258.641V231.197C88.4983 230.926 88.427 230.661 88.2917 230.427C88.1563 230.193 87.9618 229.999 87.7275 229.864L63.9328 216.147C63.6481 215.982 63.7638 215.549 64.093 215.549H112.548C113.239 215.549 113.669 216.293 113.325 216.888Z" fill="#C3BDFF"/>
<path fill-rule="evenodd" clip-rule="evenodd" d="M394.868 140.953H405V151.422H394.875V161.641H389.856V171.5H384.75V161.641H379.731V171.5H374.625V161.641H354.375V171.5H349.272V161.641H344.25V171.5H339.144V161.641H334.125V151.418H324V140.956H334.125V120.875H394.868V140.953ZM344.25 140.953H349.272V131.344H344.25V140.953ZM379.721 140.953H384.75V131.344H379.721V140.953Z" fill="#C3BDFF"/>
<g clip-path="url(#clip1_201_7250)">
<path d="M323.152 252.23L335.366 245.41L335.552 244.79L335.366 244.48H334.746L332.7 244.356L325.756 244.17L319.68 243.86L313.79 243.55L312.302 243.24L311 241.38L311.124 240.45L312.364 239.644L314.162 239.768L318.068 240.078L323.958 240.45L328.236 240.698L334.56 241.442H335.552L335.676 241.008L335.366 240.76L335.118 240.512L328.98 236.42L322.408 232.08L318.936 229.538L317.076 228.298L316.146 227.058L315.774 224.454L317.448 222.594L319.742 222.78L320.3 222.904L322.594 224.702L327.554 228.484L333.94 233.32L334.87 234.064L335.242 233.816L335.304 233.63L334.87 232.948L331.46 226.5L327.74 220.052L326.066 217.386L325.632 215.774C325.446 215.154 325.384 214.534 325.384 213.914L327.244 211.31L328.36 211L330.964 211.372L331.956 212.24L333.568 215.96L336.11 221.726L340.14 229.538L341.38 231.894L342 234.002L342.186 234.622H342.62V234.312L342.93 229.848L343.55 224.454L344.17 217.51L344.356 215.526L345.348 213.17L347.208 211.93L348.82 212.612L350.06 214.41L349.874 215.526L349.192 220.3L347.58 227.802L346.65 232.886H347.208L347.828 232.204L350.37 228.856L354.648 223.524L356.508 221.354L358.74 219.06L360.166 217.944H362.832L364.754 220.858L363.886 223.896L361.158 227.368L358.864 230.282L355.578 234.684L353.594 238.218L353.78 238.466H354.214L361.654 236.854L365.622 236.172L370.334 235.366L372.504 236.358L372.752 237.35L371.884 239.458L366.8 240.698L360.848 241.938L351.982 243.984L351.858 244.046L351.982 244.232L355.95 244.604L357.686 244.728H361.902L369.714 245.348L371.76 246.588L372.938 248.262L372.752 249.502L369.59 251.114L365.374 250.122L355.454 247.766L352.106 246.96H351.61V247.208L354.462 249.998L359.608 254.648L366.18 260.662L366.49 262.15L365.684 263.39L364.816 263.266L359.112 258.926L356.88 257.066L351.92 252.85H351.61V253.284L352.726 254.958L358.802 264.072L359.112 266.862L358.678 267.73L357.066 268.35L355.392 267.978L351.796 263.018L348.076 257.438L345.162 252.354L344.852 252.602L343.054 271.326L342.248 272.256L340.388 273L338.838 271.76L337.97 269.9L338.838 266.056L339.83 261.096L340.636 257.128L341.38 252.23L341.814 250.618V250.494H341.38L337.66 255.64L332.08 263.266L327.616 267.978L326.562 268.412L324.702 267.482L324.888 265.746L325.88 264.32L332.08 256.384L335.8 251.486L338.28 248.634L338.218 248.324H338.032L321.664 258.988L318.75 259.36L317.51 258.12L317.634 256.26L318.254 255.64L323.214 252.23H323.152Z" fill="#C3BDFF"/>
</g>
<g clip-path="url(#clip2_201_7250)">
<mask id="mask0_201_7250" style="mask-type:luminance" maskUnits="userSpaceOnUse" x="256" y="9" width="52" height="66">
<path d="M308 9.99969H256V74.9997H308V9.99969Z" fill="white"/>
</mask>
<g mask="url(#mask0_201_7250)">
<mask id="mask1_201_7250" style="mask-type:luminance" maskUnits="userSpaceOnUse" x="256" y="9" width="52" height="66">
<path d="M308 9.99969H256V74.9997H308V9.99969Z" fill="white"/>
</mask>
<g mask="url(#mask1_201_7250)">
<path d="M295 61.9997H269V35.9997H295V61.9997Z" fill="#492E8E"/>
<path d="M295 22.9997H269V61.9997H295V22.9997ZM308 74.9997H256V9.99969H308V74.9997Z" fill="#C3BDFF"/>
</g>
</g>
</g>
<path d="M212.25 79.1852C216.117 76.9524 220.883 76.9524 224.75 79.1852L295.321 119.93C299.189 122.163 301.571 126.29 301.571 130.756V212.244C301.571 216.71 299.189 220.836 295.321 223.069L224.75 263.814C220.883 266.047 216.117 266.047 212.25 263.814L141.679 223.069C137.811 220.836 135.429 216.71 135.429 212.244V130.756C135.429 126.29 137.811 122.163 141.679 119.93L212.25 79.1852Z" fill="#231F33" stroke="#492E8E"/>
<path d="M211.75 93.1852C215.617 90.9524 220.383 90.9524 224.25 93.1852L283.13 127.18C286.997 129.413 289.38 133.54 289.38 138.006V205.994C289.38 210.46 286.997 214.586 283.13 216.819L224.25 250.814C220.383 253.047 215.617 253.047 211.75 250.814L152.87 216.819C149.003 214.586 146.62 210.46 146.62 205.994V138.006C146.62 133.54 149.003 129.413 152.87 127.18L211.75 93.1852Z" fill="#231F33" stroke="#C3BDFF"/>
<path d="M196.553 197.688C200.723 195.287 207.475 199.169 211.635 206.359C215.796 213.549 215.79 221.325 211.621 223.728C207.452 226.13 200.699 222.248 196.538 215.057C192.377 207.867 192.384 200.09 196.553 197.688ZM224.849 206.351C229.01 199.157 235.763 195.273 239.932 197.676C244.101 200.08 244.108 207.86 239.947 215.053C235.786 222.247 229.034 226.131 224.865 223.728C220.696 221.325 220.689 213.545 224.849 206.351ZM253.256 189.98C257.416 182.786 264.168 178.903 268.338 181.305C272.507 183.708 272.514 191.488 268.353 198.682C264.193 205.876 257.44 209.76 253.271 207.357C249.102 204.954 249.095 197.174 253.256 189.98ZM168.141 181.298C172.311 178.896 179.063 182.778 183.223 189.968C187.384 197.159 187.378 204.936 183.209 207.338C179.039 209.74 172.286 205.857 168.126 198.667C163.965 191.476 163.972 183.699 168.141 181.298ZM196.544 164.924C200.713 162.522 207.466 166.403 211.627 173.593C215.787 180.784 215.78 188.561 211.611 190.963C207.442 193.364 200.689 189.482 196.528 182.292C192.368 175.101 192.375 167.326 196.544 164.924ZM224.834 173.578C228.994 166.384 235.747 162.5 239.916 164.903C244.085 167.306 244.092 175.086 239.931 182.28C235.771 189.474 229.018 193.358 224.848 190.955C220.68 188.551 220.673 180.771 224.834 173.578ZM253.239 157.207C257.4 150.013 264.153 146.129 268.322 148.532C272.491 150.935 272.497 158.715 268.337 165.909C264.176 173.103 257.424 176.987 253.255 174.584C249.086 172.18 249.078 164.401 253.239 157.207ZM168.132 148.532C172.301 146.13 179.054 150.012 183.215 157.203C187.375 164.393 187.368 172.17 183.199 174.572C179.03 176.974 172.277 173.092 168.116 165.901C163.955 158.71 163.962 150.934 168.132 148.532ZM218.217 144.81C226.498 144.81 233.212 148.714 233.212 153.53C233.212 158.346 226.498 162.25 218.217 162.25C209.935 162.25 203.221 158.345 203.221 153.53C203.221 148.714 209.935 144.81 218.217 144.81ZM189.946 128.386C198.228 128.386 204.941 132.291 204.941 137.106C204.941 141.922 198.228 145.826 189.946 145.826C181.665 145.826 174.951 141.922 174.951 137.106C174.951 132.291 181.665 128.387 189.946 128.386ZM246.524 128.386C254.806 128.386 261.519 132.291 261.519 137.106C261.519 141.922 254.806 145.826 246.524 145.826C238.243 145.826 231.529 141.922 231.529 137.106C231.529 132.291 238.243 128.386 246.524 128.386ZM218.217 112C226.498 112 233.212 115.904 233.212 120.719C233.212 125.535 226.498 129.439 218.217 129.439C209.935 129.439 203.222 125.535 203.221 120.719C203.221 115.904 209.935 112 218.217 112Z" fill="#C3BDFF"/>
<g clip-path="url(#clip3_201_7250)">
<path fill-rule="evenodd" clip-rule="evenodd" d="M135.247 1.29471C138.017 0.173036 141.031 -0.231741 144.004 0.118881C147.837 0.552381 151.252 2.15888 154.251 4.93555C154.291 4.97324 154.341 5.00048 154.394 5.01482C154.448 5.02916 154.504 5.03015 154.559 5.01771C158.607 4.03738 162.499 4.38305 166.234 6.05471L166.415 6.13971L166.858 6.35505C170.759 8.34688 173.557 11.37 175.247 15.416C176.046 17.3399 176.449 19.3487 176.457 21.4397C176.514 22.9967 176.339 24.5535 175.94 26.0609C175.92 26.1377 175.92 26.2182 175.941 26.2949C175.961 26.3717 176 26.4422 176.055 26.5C178.315 28.7583 179.887 31.5963 180.592 34.6912C181.699 40.0774 180.563 44.9337 177.191 49.2546L176.667 49.8779C174.434 52.3984 171.502 54.2212 168.232 55.1224C168.161 55.1427 168.095 55.1795 168.041 55.2297C167.987 55.28 167.946 55.3423 167.922 55.4114C167.188 57.4967 166.452 59.276 165.084 61.0554C161.637 65.5377 156.568 68.031 150.858 67.9999C146.307 67.9772 142.274 66.3367 138.755 63.0812C138.701 63.033 138.636 62.9992 138.566 62.9833C138.495 62.9674 138.421 62.9699 138.352 62.9905C136.863 63.4637 135.362 63.5317 133.741 63.5147C131.15 63.4941 128.599 62.8914 126.28 61.7524C123.853 60.5661 121.741 58.8382 120.11 56.7062C119.527 55.944 118.949 55.2272 118.526 54.3801C117.943 53.2123 117.467 51.9958 117.103 50.7449C116.339 47.9022 116.322 44.9144 117.054 42.0635C117.078 41.9963 117.086 41.9246 117.077 41.8539C117.063 41.7835 117.026 41.7198 116.971 41.6725C115.199 39.9059 113.844 37.7756 113.003 35.4335C112.447 33.9915 112.124 32.4723 112.046 30.9314C111.907 28.9024 112.089 26.8644 112.586 24.8907C113.88 20.686 116.35 17.388 119.995 14.9939C120.806 14.4612 121.577 14.0475 122.301 13.7529C123.123 13.4129 123.948 13.1295 124.776 12.8915C124.836 12.8742 124.89 12.8426 124.933 12.7996C124.977 12.7565 125.009 12.7034 125.027 12.645C125.654 10.4208 126.734 8.34545 128.201 6.54488C130.156 4.14788 132.504 2.39688 135.247 1.29471ZM132.936 23.5364C132.615 22.9829 132.084 22.5778 131.46 22.4102C130.836 22.2426 130.169 22.3261 129.608 22.6425C129.046 22.9588 128.635 23.4821 128.465 24.0971C128.295 24.7122 128.38 25.3686 128.701 25.922L133.571 34.3229L128.718 42.3922C128.42 42.939 128.349 43.5779 128.518 44.1756C128.687 44.7732 129.084 45.2833 129.626 45.5992C130.168 45.9152 130.813 46.0127 131.426 45.8712C132.039 45.7298 132.572 45.3604 132.916 44.8402L138.493 35.5695C138.713 35.2039 138.831 34.7874 138.834 34.3624C138.838 33.9374 138.727 33.519 138.513 33.1499L132.936 23.5364ZM148.593 41.2164C147.972 41.2528 147.388 41.5217 146.961 41.968C146.535 42.4143 146.297 43.0044 146.297 43.6176C146.297 44.2309 146.535 44.8209 146.961 45.2673C147.388 45.7136 147.972 45.9824 148.593 46.0189H162.531C163.157 45.9889 163.747 45.7227 164.18 45.2754C164.612 44.8281 164.853 44.234 164.853 43.6162C164.853 42.9984 164.612 42.4043 164.18 41.957C163.747 41.5097 163.157 41.2435 162.531 41.2135H148.593V41.2164Z" fill="#C3BDFF"/>
</g>
<path d="M99.1998 108.293C91.4009 108.271 66.3692 108.194 58.2983 108.171C56.8619 108.166 55.6863 109.24 55.7047 110.655C55.7616 115.04 56.8408 123.664 64.4644 123.531C76.9298 123.313 73.7062 114.512 78.4011 114.54H79.891C85.2934 114.679 81.5471 123.564 93.7437 123.396C101.719 123.287 102.086 114.754 101.784 110.566C101.689 109.245 100.544 108.296 99.1998 108.293Z" fill="#C3BDFF"/>
<path d="M100.375 124.825C101.343 124.141 102.69 124.359 103.384 125.312C104.914 127.416 107.32 130.954 107.014 135.091C106.862 137.144 105.532 139.171 103.776 140.486C101.946 141.855 99.377 142.663 96.5785 141.856C95.8967 141.659 94.9771 141.441 93.8979 141.21L93.5168 141.621C90.2165 145.169 84.442 148.411 78.8884 148.322C74.5627 148.253 68.9667 146.625 64.8749 142.265L64.439 141.8C63.4818 142.031 62.5571 142.253 61.6658 142.443L61.6363 142.449L61.6089 142.456C60.0135 142.752 54.8349 143.378 51.9437 138.479C50.4463 135.942 50.9392 133.148 51.7605 131C52.596 128.816 53.9471 126.825 54.8685 125.534C55.5537 124.574 56.8994 124.344 57.8734 125.02C58.8469 125.695 59.0804 127.019 58.3956 127.979C57.5017 129.231 56.4273 130.851 55.7971 132.499C55.1532 134.182 55.1406 135.443 55.6708 136.342C57.0388 138.66 59.4339 138.531 60.8003 138.278C65.2401 137.324 72.1142 135.15 79.5327 135.217C85.7766 135.217 94.3318 136.781 97.7893 137.778C99.0417 138.139 100.217 137.812 101.167 137.102C102.189 136.337 102.673 135.339 102.715 134.781C102.895 132.337 101.447 129.946 99.8781 127.788C99.1849 126.834 99.4075 125.508 100.375 124.825ZM79.5117 139.467C75.914 139.433 72.5301 139.97 69.4022 140.64C72.3564 143.042 76.011 144.027 78.96 144.074C82.2435 144.126 85.9665 142.469 88.6926 140.27C85.6378 139.812 82.3091 139.467 79.5327 139.467H79.5117ZM74.1021 125.983C74.7975 125.03 76.1444 124.812 77.1112 125.497C78.0779 126.182 78.2971 127.512 77.6018 128.465L76.1868 130.403C75.4912 131.355 74.1442 131.571 73.1777 130.886C72.2111 130.201 71.9918 128.874 72.6871 127.921L74.1021 125.983ZM80.5435 125.497C81.5102 124.812 82.8573 125.03 83.5525 125.983L84.9676 127.921C85.6625 128.873 85.443 130.201 84.477 130.886C83.5102 131.572 82.1612 131.355 81.4658 130.403L80.0507 128.465C79.3554 127.512 79.5767 126.182 80.5435 125.497ZM99.2064 106.167C101.554 106.173 103.752 107.865 103.936 110.417C104.093 112.6 104.105 116.163 102.879 119.28C102.253 120.869 101.268 122.435 99.7286 123.613C98.1666 124.808 96.1814 125.489 93.7737 125.522C90.4702 125.567 88.0065 125.003 86.1278 123.951C84.2232 122.884 83.1359 121.433 82.3902 120.124C82.0339 119.499 81.7306 118.858 81.4932 118.377C81.2354 117.854 81.0435 117.495 80.8488 117.219C80.6668 116.961 80.5338 116.852 80.4382 116.796C80.3762 116.76 80.2683 116.709 80.0676 116.682L79.8339 116.665H78.3872C78.1734 116.664 78.1173 116.704 78.1114 116.709C78.0792 116.728 77.975 116.806 77.7955 117.074C77.6061 117.356 77.4179 117.718 77.1491 118.255C76.8986 118.755 76.5866 119.387 76.2015 120.027C75.4048 121.35 74.2505 122.786 72.308 123.876C70.3885 124.954 67.8724 125.596 64.5022 125.655C62.1517 125.696 60.1822 125.054 58.602 123.899C57.0516 122.766 55.9995 121.231 55.2812 119.662C53.8663 116.57 53.5778 112.963 53.5482 110.682C53.5133 107.975 55.7742 106.039 58.305 106.046C66.377 106.07 91.4077 106.145 99.2064 106.167ZM58.2924 110.296C58.1255 110.296 58.0103 110.355 57.9471 110.414C57.891 110.467 57.8595 110.531 57.8607 110.628C57.888 112.733 58.1678 115.631 59.2126 117.914C59.7242 119.032 60.3755 119.902 61.173 120.485C61.9409 121.046 62.9657 121.432 64.4264 121.407C67.2885 121.357 69.0442 120.816 70.1728 120.182C71.2783 119.562 71.9509 118.759 72.4933 117.858C72.7774 117.386 73.0126 116.91 73.2809 116.374C73.5308 115.876 73.8336 115.273 74.1969 114.731C74.57 114.174 75.0816 113.567 75.8204 113.11C76.5847 112.638 77.4535 112.411 78.402 112.415H79.9476C80.9413 112.441 81.8424 112.676 82.6366 113.139C83.4174 113.595 83.9737 114.202 84.3906 114.793C84.7948 115.366 85.1125 115.992 85.3719 116.518C85.6517 117.085 85.8737 117.56 86.1489 118.043C86.6664 118.951 87.2675 119.7 88.2588 120.255C89.2766 120.825 90.9188 121.31 93.7126 121.272C95.2921 121.25 96.3436 120.821 97.0839 120.255C97.8469 119.671 98.4314 118.823 98.8569 117.742C99.7319 115.519 99.778 112.722 99.6339 110.717C99.6285 110.643 99.6001 110.585 99.5391 110.533C99.4705 110.474 99.3528 110.417 99.1938 110.417C91.3949 110.395 66.3631 110.32 58.2924 110.296ZM78.7873 92.3893C85.6162 92.4817 90.1047 94.7246 92.9082 97.0814C94.2936 98.246 95.2388 99.4144 95.8457 100.31C96.1491 100.758 96.3701 101.14 96.5195 101.423C96.594 101.563 96.6509 101.679 96.6922 101.767C96.7127 101.811 96.7298 101.848 96.7427 101.877C96.7492 101.892 96.755 101.906 96.7596 101.917C96.7618 101.922 96.7641 101.927 96.7659 101.931C96.7667 101.933 96.7672 101.936 96.768 101.937L96.7701 101.939C96.7705 101.941 96.7544 101.95 94.9824 102.67L96.7701 101.939C97.2241 103.024 96.7 104.268 95.5993 104.716C94.5673 105.135 93.3955 104.708 92.8787 103.759L92.7882 103.571C92.7892 103.573 92.7897 103.575 92.7903 103.577L92.7798 103.556C92.7655 103.526 92.7377 103.468 92.6955 103.388C92.6111 103.229 92.4693 102.98 92.2597 102.67C91.8385 102.048 91.1485 101.188 90.1097 100.315C88.0645 98.5952 84.5429 96.718 78.7284 96.6393C72.9676 96.5615 69.483 98.4796 67.4481 100.281C66.4111 101.199 65.7186 102.117 65.2918 102.79C65.0788 103.126 64.9346 103.398 64.8475 103.575C64.804 103.663 64.7745 103.726 64.7591 103.761C64.7514 103.779 64.7476 103.79 64.7464 103.793L64.7506 103.782C64.7507 103.782 64.7509 103.779 64.7485 103.778C64.3215 104.872 63.078 105.42 61.9669 105C60.8551 104.58 60.298 103.351 60.7245 102.255L62.6344 102.977C60.8429 102.3 60.733 102.257 60.7266 102.253L60.7287 102.244C60.7303 102.24 60.733 102.235 60.735 102.23C60.7394 102.219 60.7457 102.205 60.7519 102.19C60.7642 102.161 60.7802 102.122 60.8003 102.076C60.8404 101.985 60.8953 101.862 60.9688 101.713C61.1157 101.416 61.3331 101.011 61.6342 100.537C62.2354 99.5888 63.178 98.3492 64.5653 97.1208C67.3793 94.6292 71.9051 92.2963 78.7873 92.3893Z" fill="#C3BDFF"/>
<defs>
<clipPath id="clip0_201_7250">
<rect width="262" height="427" fill="white" transform="matrix(1.19249e-08 -1 -1 -1.19249e-08 427 433)"/>
</clipPath>
<clipPath id="clip1_201_7250">
<rect width="62" height="62" fill="white" transform="translate(311 211)"/>
</clipPath>
<clipPath id="clip2_201_7250">
<rect width="52" height="65" fill="white" transform="translate(256 9.99969)"/>
</clipPath>
<clipPath id="clip3_201_7250">
<rect width="69" height="68" fill="white" transform="translate(112)"/>
</clipPath>
</defs>
</svg>
