<svg width="725" height="273" viewBox="0 0 725 273" fill="none" xmlns="http://www.w3.org/2000/svg"><style>path,line,circle,rect,polygon,polyline,ellipse{vector-effect:non-scaling-stroke}</style>
<rect x="163.612" y="105.384" width="331.397" height="300.589" rx="18.9574" transform="rotate(-15 163.612 105.384)" stroke="#DEDBFF"/>
<rect x="182.478" y="116.276" width="303.021" height="270.592" rx="18.9574" transform="rotate(-15 182.478 116.276)" stroke="#DEDBFF"/>
<rect x="200.77" y="128.161" width="269.782" height="237.353" rx="12.8992" transform="rotate(-15 200.77 128.161)" fill="#F5F5FF" stroke="#5A30C5"/>
<path d="M294.583 198.685C297.129 198.003 298.842 198.531 299.441 200.465L297.855 201.011C297.438 199.944 296.441 199.607 294.815 200.043C293.349 200.436 292.544 201.115 292.789 202.026C293.01 202.853 293.881 202.982 296.151 202.847C298.867 202.684 300.228 202.953 300.679 204.636C301.165 206.449 300.05 208.037 297.212 208.798C294.543 209.513 292.817 209.16 291.78 207.02L293.36 206.375C294.264 207.946 295.538 207.776 296.929 207.403C298.658 206.94 299.16 206.07 298.956 205.309C298.729 204.463 297.841 204.379 295.422 204.523C292.972 204.666 291.574 204.295 291.131 202.642C290.67 200.922 291.679 199.463 294.583 198.685ZM309.827 205.387C307.038 206.145 305.625 205.607 304.754 202.355L303.601 198.051L300.8 198.802L300.415 197.364L303.215 196.614L302.405 193.588L304.19 193.109L305.001 196.135L309.436 194.947L309.822 196.384L305.386 197.573L306.517 201.792C307.078 203.888 307.837 204.238 309.557 203.778C310.365 203.561 311.11 203.221 311.792 202.836L312.208 204.387C311.551 204.794 310.701 205.153 309.827 205.387ZM315.749 193.013C318.108 192.381 319.699 192.791 320.308 195.065L321.59 199.848C321.776 200.544 322.087 200.652 322.935 200.284L323.282 201.58C322.876 201.83 322.487 201.995 322.13 202.091C320.965 202.403 320.413 201.886 320.141 201.133L319.972 201.178C319.381 202.092 318.588 203.08 317.028 203.498C315.242 203.976 313.849 203.323 313.408 201.678C312.685 198.981 315.627 197.82 318.912 196.96L318.56 195.645C318.144 194.094 317.177 193.98 315.901 194.332C314.682 194.669 313.845 195.266 314.171 196.558L314.282 196.972L312.619 197.418L312.483 196.91C312.04 195.256 312.865 193.786 315.749 193.013ZM315.211 200.963C315.467 201.922 316.301 202.252 317.467 201.94C318.481 201.668 319.165 201.062 319.801 200.277L319.192 198.003C318.883 198.056 318.568 198.12 318.286 198.195C316.068 198.79 314.856 199.638 315.211 200.963ZM333.153 195.783C333.189 198.06 331.709 199.564 329.51 200.154C326.662 200.917 324.226 199.716 323.329 196.371C322.428 193.007 323.993 190.804 326.897 190.026C329.255 189.394 331.345 190.013 332.211 192.269L330.494 192.89C329.871 191.465 328.65 191.118 327.24 191.496C325.248 192.029 324.542 193.568 325.162 195.88C325.816 198.323 327.296 199.186 329.129 198.695C330.529 198.319 331.315 197.383 331.36 195.971L333.153 195.783ZM337.777 197.697L336.001 198.172L332.149 183.795L333.925 183.319L336.193 191.786L338.082 191.28L340.341 186.666L342.371 186.122L339.668 191.56L339.701 191.682L345.351 195.667L343.199 196.244L338.28 192.768L336.579 193.223L337.777 197.697Z" fill="#9077F3"/>
<path d="M318.891 222.668C318.018 219.407 319.487 217.11 322.456 216.314C325.191 215.582 327.171 216.582 327.932 219.42L328.158 220.266L320.734 222.255C321.392 224.596 322.828 225.481 324.716 224.975C325.948 224.645 326.744 223.898 326.91 222.675L328.717 222.503C328.543 224.483 327.221 225.865 325.097 226.434C322.212 227.207 319.78 225.985 318.891 222.668ZM320.511 221.046L326.102 219.547C325.632 217.83 324.303 217.381 322.79 217.786C321.212 218.209 320.383 219.327 320.511 221.046ZM339.661 222.29L337.885 222.766L336.16 216.329C335.74 214.759 334.811 214.565 333.834 214.827C332.706 215.129 331.953 215.925 331.453 216.955L333.337 223.984L331.561 224.46L328.975 214.809L330.478 214.406L331.008 215.745L331.243 215.682C331.785 214.661 332.579 213.602 334.214 213.164C335.934 212.703 337.249 213.287 337.81 215.383L339.661 222.29ZM338.853 212.162L340.752 211.654L345.758 218.309L345.89 218.274L346.879 210.012L348.627 209.544L347.228 220.262L345.424 220.746L338.853 212.162Z" fill="#5A30C5"/>
<path d="M334.589 243.59C335.496 246.973 333.825 249.193 331.231 249.888C328.647 250.581 326.08 249.496 325.173 246.113C324.269 242.739 325.94 240.479 328.524 239.786C331.118 239.091 333.685 240.216 334.589 243.59ZM332.757 244.081C332.097 241.619 330.606 240.79 328.914 241.243C327.223 241.696 326.337 243.162 326.996 245.624C327.656 248.087 329.149 248.885 330.841 248.432C332.532 247.979 333.417 246.543 332.757 244.081ZM338.895 237.249L339.413 238.581L339.658 238.515C340.377 237.215 341.184 236.394 342.876 235.941C343.224 235.848 343.522 235.798 343.829 235.776L344.275 237.439C342.132 238.014 341.033 238.459 339.876 239.817L341.369 245.389L344.789 244.473L345.175 245.91L337.412 247.99L337.027 246.553L339.593 245.865L337.777 239.09L335.212 239.777L334.827 238.339L338.895 237.249ZM346.48 239.91C345.727 237.101 346.74 234.905 349.09 234.276C350.509 233.896 351.66 234.282 352.509 234.971L352.763 234.903L352.561 233.587L354.065 233.185L356.505 242.29C357.353 245.457 356.154 247.108 353.335 247.864C350.675 248.576 349.227 247.796 348.484 246.414L350.002 245.614C350.657 246.627 351.657 246.903 352.982 246.548C354.467 246.15 355.386 245.219 354.779 242.954L354.283 241.103L354.17 241.133C353.704 242.175 352.872 243.093 351.472 243.468C349.123 244.097 347.21 242.636 346.48 239.91ZM348.312 239.419C348.821 241.318 350.089 242.217 351.809 241.756C352.673 241.524 353.392 241.009 353.983 239.985L352.926 236.038C351.92 235.441 351.034 235.367 350.188 235.593C348.496 236.046 347.786 237.455 348.312 239.419Z" fill="#5A30C5"/>
<path d="M256.445 289.637C255.602 286.489 256.514 284.18 258.948 283.527C260.367 283.147 261.499 283.539 262.349 284.228L262.471 284.195L260.862 278.19L262.638 277.714L266.49 292.092L264.987 292.495L264.506 291.264L264.262 291.329C263.795 292.371 262.982 293.284 261.582 293.659C259.139 294.314 257.266 292.7 256.445 289.637ZM258.278 289.146C258.902 291.476 260.152 292.42 261.9 291.952C262.765 291.72 263.483 291.206 264.075 290.181L262.765 285.294C261.759 284.698 260.873 284.623 260.027 284.85C258.308 285.31 257.633 286.74 258.278 289.146ZM267.15 286.728C266.277 283.467 267.746 281.17 270.715 280.374C273.45 279.642 275.43 280.642 276.191 283.48L276.417 284.326L268.994 286.315C269.651 288.657 271.087 289.541 272.976 289.035C274.207 288.705 275.004 287.958 275.169 286.735L276.977 286.563C276.802 288.543 275.48 289.925 273.356 290.494C270.472 291.267 268.039 290.045 267.15 286.728ZM268.77 285.106L274.362 283.607C273.891 281.89 272.562 281.441 271.049 281.846C269.471 282.269 268.642 283.387 268.77 285.106ZM287.281 281.334C288.122 284.473 287.21 286.782 284.776 287.434C283.357 287.814 282.225 287.423 281.376 286.734L281.254 286.766L282.57 291.681L280.794 292.157L277.234 278.869L278.738 278.467L279.221 279.707L279.465 279.641C279.931 278.6 280.744 277.687 282.145 277.312C284.588 276.657 286.458 278.261 287.281 281.334ZM280.959 285.667C281.965 286.264 282.851 286.338 283.697 286.112C285.416 285.651 286.091 284.221 285.449 281.825C284.822 279.485 283.574 278.55 281.826 279.019C280.962 279.25 280.241 279.756 279.65 280.78L280.959 285.667ZM290.272 285.72L289.887 284.282L293.307 283.365L290.227 271.833L286.797 272.752L286.419 271.342L291.335 269.803L291.628 269.956L295.093 282.887L298.513 281.97L298.898 283.408L290.272 285.72ZM308.719 275.62C309.625 279.003 307.954 281.224 305.361 281.918C302.776 282.611 300.209 281.526 299.303 278.143C298.399 274.769 300.069 272.509 302.654 271.816C305.247 271.122 307.815 272.246 308.719 275.62ZM306.886 276.111C306.227 273.649 304.735 272.82 303.044 273.273C301.353 273.726 300.466 275.193 301.126 277.655C301.786 280.117 303.279 280.915 304.97 280.462C306.662 280.009 307.546 278.573 306.886 276.111ZM308.449 270.505L310.366 269.992L315.648 276.664L315.78 276.629L316.605 268.32L318.4 267.839L317.215 278.339C316.934 280.862 316.148 282.926 313.526 283.628C313.084 283.747 312.712 283.786 312.354 283.801L311.928 282.213C312.32 282.209 312.711 282.165 313.143 282.049C314.759 281.616 315.233 280.562 315.342 279.617L315.381 279.163L308.449 270.505ZM327.538 275.734L325.922 276.167L323.918 268.687C323.731 267.992 323.296 267.907 322.91 268.01C322.412 268.144 322.094 268.572 321.895 269.068L323.939 276.699L322.323 277.132L319.737 267.481L321.09 267.118L321.546 268.295L321.687 268.257C321.851 267.327 322.376 266.542 323.344 266.283C324.208 266.051 324.905 266.358 325.258 267.301L325.362 267.273C325.516 266.345 326.013 265.568 326.971 265.311C327.911 265.059 328.654 265.464 328.971 266.648L331.147 274.767L329.521 275.203L327.517 267.723C327.33 267.027 326.895 266.943 326.509 267.046C326.011 267.179 325.693 267.607 325.494 268.104L327.538 275.734ZM331.44 269.502C330.567 266.241 332.036 263.944 335.005 263.148C337.74 262.415 339.72 263.415 340.481 266.253L340.707 267.099L333.284 269.088C333.941 271.43 335.377 272.314 337.266 271.808C338.497 271.479 339.293 270.731 339.459 269.508L341.266 269.336C341.092 271.317 339.77 272.698 337.646 273.267C334.762 274.04 332.329 272.819 331.44 269.502ZM333.06 267.879L338.652 266.381C338.181 264.664 336.852 264.214 335.339 264.62C333.761 265.043 332.932 266.161 333.06 267.879ZM352.21 269.123L350.434 269.599L348.709 263.162C348.289 261.593 347.361 261.398 346.383 261.66C345.256 261.962 344.502 262.759 344.003 263.789L345.886 270.818L344.11 271.294L341.524 261.643L343.027 261.24L343.557 262.579L343.792 262.516C344.334 261.494 345.128 260.435 346.764 259.997C348.483 259.537 349.798 260.121 350.36 262.216L352.21 269.123ZM360.795 267.024C358.007 267.782 356.594 267.244 355.723 263.992L354.569 259.688L351.769 260.439L351.384 259.001L354.184 258.251L353.373 255.225L355.159 254.746L355.97 257.772L360.405 256.584L360.79 258.022L356.355 259.21L357.485 263.429C358.047 265.525 358.806 265.876 360.525 265.415C361.333 265.198 362.078 264.858 362.761 264.473L363.176 266.024C362.52 266.431 361.669 266.79 360.795 267.024Z" fill="#5A30C5"/>
<path d="M407.691 178.963L407.306 177.525L410.727 176.609L407.647 165.076L404.217 165.995L403.839 164.586L408.755 163.047L409.048 163.2L412.512 176.13L415.933 175.214L416.318 176.652L407.691 178.963ZM418.406 176.092L418.021 174.654L421.442 173.738L419.619 166.934L416.198 167.851L415.821 166.441L420.734 164.893L421.029 165.056L423.227 173.259L426.648 172.343L427.033 173.781L418.406 176.092ZM419.134 162.945C418.354 163.154 417.695 162.837 417.494 162.085C417.292 161.333 417.707 160.739 418.487 160.53C419.257 160.323 419.914 160.631 420.115 161.383C420.317 162.134 419.905 162.738 419.134 162.945ZM430.826 162.179C433.373 161.496 435.085 162.025 435.684 163.959L434.098 164.505C433.681 163.438 432.685 163.101 431.059 163.537C429.593 163.929 428.788 164.608 429.032 165.52C429.254 166.347 430.124 166.476 432.395 166.341C435.11 166.178 436.472 166.447 436.923 168.129C437.409 169.943 436.293 171.531 433.455 172.292C430.786 173.007 429.06 172.653 428.023 170.514L429.603 169.869C430.507 171.44 431.781 171.27 433.172 170.897C434.901 170.434 435.403 169.564 435.199 168.803C434.973 167.957 434.084 167.873 431.665 168.017C429.216 168.16 427.817 167.789 427.374 166.135C426.913 164.416 427.922 162.957 430.826 162.179ZM446.07 168.881C443.282 169.638 441.869 169.1 440.997 165.849L439.844 161.545L437.044 162.295L436.658 160.858L439.459 160.107L438.648 157.081L440.434 156.603L441.244 159.629L445.68 158.44L446.065 159.878L441.63 161.067L442.76 165.286C443.322 167.382 444.08 167.732 445.8 167.271C446.608 167.055 447.353 166.714 448.036 166.33L448.451 167.881C447.795 168.288 446.944 168.647 446.07 168.881Z" fill="#5A30C5"/>
<path d="M412.159 197.214C411.406 194.404 412.419 192.209 414.768 191.579C416.187 191.199 417.338 191.586 418.188 192.275L418.441 192.207L418.24 190.891L419.743 190.488L422.183 199.594C423.032 202.761 421.833 204.412 419.013 205.167C416.354 205.88 414.906 205.099 414.163 203.717L415.681 202.917C416.335 203.931 417.336 204.206 418.661 203.851C420.146 203.454 421.064 202.522 420.458 200.258L419.962 198.407L419.849 198.437C419.383 199.478 418.551 200.396 417.151 200.771C414.801 201.401 412.889 199.939 412.159 197.214ZM413.991 196.723C414.5 198.621 415.768 199.52 417.488 199.059C418.352 198.828 419.07 198.313 419.662 197.288L418.604 193.341C417.598 192.745 416.712 192.67 415.867 192.897C414.175 193.35 413.465 194.759 413.991 196.723ZM422.989 194.775C422.116 191.514 423.585 189.217 426.555 188.421C429.289 187.689 431.269 188.689 432.03 191.527L432.256 192.373L424.833 194.362C425.49 196.704 426.926 197.588 428.815 197.082C430.046 196.752 430.843 196.005 431.008 194.782L432.816 194.61C432.641 196.59 431.319 197.972 429.196 198.541C426.311 199.314 423.878 198.092 422.989 194.775ZM424.609 193.153L430.201 191.654C429.73 189.937 428.401 189.488 426.888 189.893C425.31 190.316 424.481 191.434 424.609 193.153ZM441.63 195.169C438.841 195.926 437.428 195.388 436.557 192.137L435.404 187.833L432.603 188.583L432.218 187.146L435.018 186.395L434.207 183.369L435.993 182.891L436.804 185.917L441.239 184.728L441.624 186.166L437.189 187.355L438.32 191.574C438.881 193.669 439.64 194.02 441.359 193.559C442.168 193.343 442.912 193.002 443.595 192.618L444.01 194.168C443.354 194.576 442.504 194.935 441.63 195.169Z" fill="#5A30C5"/>
<path d="M428.604 223.556L426.828 224.032L425.103 217.595C424.683 216.025 423.754 215.831 422.777 216.093C421.649 216.395 420.896 217.191 420.396 218.221L422.28 225.251L420.504 225.726L417.918 216.076L419.421 215.673L419.951 217.011L420.186 216.948C420.728 215.927 421.522 214.868 423.157 214.43C424.877 213.969 426.192 214.553 426.753 216.649L428.604 223.556ZM429.264 218.192C428.39 214.931 429.86 212.634 432.829 211.838C435.564 211.106 437.544 212.106 438.304 214.944L438.531 215.79L431.107 217.779C431.765 220.121 433.201 221.005 435.089 220.499C436.32 220.169 437.117 219.422 437.283 218.199L439.09 218.027C438.916 220.007 437.594 221.389 435.47 221.958C432.585 222.731 430.153 221.509 429.264 218.192ZM430.884 216.57L436.475 215.071C436.005 213.354 434.676 212.905 433.163 213.31C431.584 213.733 430.756 214.851 430.884 216.57ZM437.816 210.744L439.517 210.288L442.923 216.798L443.083 216.756L443.288 210.869L444.491 210.547L447.5 215.572L447.659 215.529L447.345 208.191L448.98 207.752L449.273 218.018L447.694 218.441L444.494 213.074L444.362 213.109L444.161 219.388L442.695 219.78L437.816 210.744Z" fill="#9077F3"/>
<path d="M424.824 244.48C423.95 241.219 425.419 238.922 428.389 238.126C431.123 237.393 433.103 238.394 433.864 241.232L434.09 242.077L426.667 244.067C427.324 246.408 428.76 247.293 430.649 246.787C431.88 246.457 432.677 245.709 432.843 244.487L434.65 244.315C434.475 246.295 433.153 247.677 431.03 248.246C428.145 249.019 425.712 247.797 424.824 244.48ZM426.443 242.857L432.035 241.359C431.565 239.642 430.235 239.192 428.723 239.598C427.144 240.021 426.315 241.139 426.443 242.857ZM435.549 241.646C434.705 238.498 435.617 236.189 438.051 235.537C439.47 235.157 440.602 235.548 441.452 236.237L441.574 236.205L439.965 230.2L441.741 229.724L445.593 244.102L444.09 244.505L443.609 243.274L443.365 243.339C442.898 244.381 442.085 245.293 440.685 245.669C438.242 246.323 436.369 244.71 435.549 241.646ZM437.381 241.155C438.005 243.486 439.256 244.43 441.003 243.962C441.868 243.73 442.586 243.215 443.178 242.191L441.868 237.304C440.863 236.707 439.976 236.633 439.131 236.859C437.411 237.32 436.736 238.75 437.381 241.155ZM447.945 243.472L447.56 242.034L450.98 241.117L449.157 234.314L445.737 235.23L445.359 233.821L450.272 232.272L450.568 232.435L452.766 240.639L456.186 239.722L456.572 241.16L447.945 243.472ZM448.672 230.324C447.892 230.533 447.233 230.216 447.032 229.464C446.831 228.713 447.245 228.118 448.025 227.909C448.796 227.703 449.452 228.01 449.654 228.762C449.855 229.514 449.443 230.118 448.672 230.324ZM464.894 239.132C462.105 239.889 460.692 239.351 459.821 236.1L458.668 231.796L455.867 232.546L455.482 231.108L458.282 230.358L457.472 227.332L459.257 226.854L460.068 229.879L464.503 228.691L464.889 230.129L460.453 231.317L461.584 235.537C462.145 237.632 462.904 237.983 464.624 237.522C465.432 237.305 466.176 236.965 466.859 236.581L467.274 238.131C466.618 238.539 465.768 238.897 464.894 239.132Z" fill="#5A30C5"/>
<path d="M434.113 261.932L434.631 263.264L434.875 263.198C435.594 261.898 436.402 261.077 438.093 260.624C438.441 260.531 438.74 260.481 439.046 260.459L439.492 262.122C437.349 262.696 436.25 263.142 435.093 264.5L436.586 270.072L440.007 269.156L440.392 270.593L432.63 272.673L432.245 271.235L434.81 270.548L432.995 263.773L430.429 264.46L430.044 263.022L434.113 261.932ZM441.813 265.026C440.939 261.765 442.409 259.467 445.378 258.672C448.113 257.939 450.093 258.939 450.854 261.777L451.08 262.623L443.656 264.612C444.314 266.954 445.75 267.838 447.638 267.332C448.869 267.002 449.666 266.255 449.832 265.032L451.639 264.86C451.465 266.841 450.143 268.222 448.019 268.791C445.134 269.564 442.702 268.343 441.813 265.026ZM443.433 263.403L449.024 261.905C448.554 260.188 447.225 259.738 445.712 260.143C444.133 260.566 443.305 261.685 443.433 263.403ZM459.341 265.516L457.725 265.949L455.72 258.469C455.534 257.774 455.098 257.689 454.713 257.792C454.215 257.926 453.897 258.353 453.697 258.85L455.742 266.48L454.126 266.913L451.54 257.263L452.893 256.9L453.349 258.077L453.49 258.039C453.654 257.109 454.179 256.324 455.147 256.064C456.011 255.833 456.708 256.14 457.061 257.082L457.165 257.055C457.319 256.127 457.815 255.349 458.774 255.092C459.714 254.841 460.457 255.246 460.774 256.43L462.95 264.549L461.324 264.985L459.32 257.505C459.133 256.809 458.698 256.724 458.312 256.828C457.814 256.961 457.496 257.389 457.296 257.885L459.341 265.516ZM472.667 256.789C473.573 260.172 471.902 262.392 469.308 263.087C466.724 263.779 464.157 262.695 463.251 259.312C462.347 255.938 464.017 253.677 466.602 252.985C469.195 252.29 471.763 253.415 472.667 256.789ZM470.834 257.28C470.175 254.818 468.683 253.988 466.992 254.442C465.3 254.895 464.414 256.361 465.074 258.823C465.733 261.285 467.227 262.084 468.918 261.63C470.61 261.177 471.494 259.742 470.834 257.28ZM472.49 251.649L474.389 251.14L479.395 257.796L479.527 257.761L480.516 249.498L482.263 249.03L480.865 259.749L479.061 260.232L472.49 251.649ZM484.673 253.541C483.799 250.28 485.269 247.983 488.238 247.187C490.973 246.455 492.953 247.455 493.714 250.293L493.94 251.139L486.516 253.128C487.174 255.47 488.61 256.354 490.498 255.848C491.729 255.518 492.526 254.771 492.692 253.548L494.499 253.376C494.325 255.356 493.003 256.738 490.879 257.307C487.994 258.08 485.562 256.858 484.673 253.541ZM486.293 251.919L491.884 250.421C491.414 248.703 490.085 248.254 488.572 248.659C486.993 249.082 486.165 250.201 486.293 251.919Z" fill="#5A30C5"/>
<path d="M244.667 148.875C244.09 147.398 243.145 146.916 241.733 147.174L242.957 151.741C245.757 152.078 247.609 152.488 248.206 154.715C248.765 156.802 247.823 158.776 245.166 159.76L245.891 162.467L244.482 162.844L243.762 160.157C240.946 160.7 239.22 159.52 238.448 157.24L240.194 156.54C240.833 158.172 241.861 158.813 243.41 158.579L242.072 153.589C239.712 153.275 237.883 152.727 237.302 150.557C236.75 148.499 237.744 146.943 239.985 146.061L239.255 143.336L240.664 142.958L241.382 145.636C243.655 145.138 245.6 145.704 246.4 148.24L244.667 148.875ZM239.096 149.925C239.363 150.921 240.035 151.285 241.524 151.541L240.456 147.556C239.263 148.067 238.814 148.872 239.096 149.925ZM244.697 158.234C246.146 157.665 246.684 156.664 246.351 155.424C246.046 154.287 245.152 153.993 243.501 153.77L244.697 158.234Z" fill="#5A30C5"/>
<path d="M269.187 147.935C270.028 151.074 269.115 153.383 266.682 154.035C265.263 154.416 264.13 154.024 263.281 153.335L263.159 153.368L264.476 158.283L262.7 158.758L259.139 145.471L260.643 145.068L261.126 146.308L261.37 146.243C261.837 145.201 262.65 144.288 264.05 143.913C266.493 143.259 268.363 144.863 269.187 147.935ZM262.864 152.268C263.87 152.865 264.756 152.94 265.602 152.713C267.322 152.252 267.996 150.823 267.354 148.426C266.727 146.087 265.48 145.152 263.732 145.62C262.867 145.852 262.146 146.357 261.555 147.382L262.864 152.268ZM269.854 142.6L271.63 142.124L273.353 148.552C273.776 150.13 274.701 150.315 275.679 150.053C276.806 149.751 277.562 148.964 278.062 147.934L276.179 140.905L277.955 140.429L280.541 150.08L279.037 150.483L278.507 149.144L278.272 149.207C277.728 150.22 276.934 151.278 275.298 151.716C273.579 152.177 272.264 151.593 271.705 149.507L269.854 142.6ZM282.892 149.45L282.507 148.012L285.927 147.096L282.847 135.563L279.417 136.482L279.04 135.072L283.955 133.534L284.248 133.687L287.713 146.617L291.133 145.701L291.519 147.139L282.892 149.45ZM291.284 136.858L293.06 136.382L294.783 142.809C295.206 144.388 296.131 144.573 297.109 144.311C298.236 144.009 298.992 143.222 299.492 142.192L297.608 135.163L299.385 134.687L301.971 144.338L300.467 144.741L299.937 143.402L299.702 143.465C299.158 144.477 298.364 145.536 296.728 145.974C295.009 146.435 293.694 145.851 293.135 143.765L291.284 136.858ZM310.261 142.117L308.588 142.565L306.67 135.404C306.413 134.446 305.819 134.333 305.283 134.476C304.588 134.663 304.151 135.253 303.925 135.988L305.882 143.29L304.228 143.733L301.642 134.082L303.033 133.71L303.546 135.063L303.687 135.025C303.906 133.959 304.563 133.068 305.681 132.768C306.706 132.494 307.54 132.824 307.991 133.872L308.085 133.846C308.303 132.781 308.923 131.9 310.051 131.597C311.216 131.285 312.14 131.763 312.54 133.217L314.621 140.948L312.949 141.396L311.03 134.236C310.773 133.277 310.179 133.165 309.634 133.311C308.938 133.497 308.509 134.075 308.281 134.801L310.261 142.117ZM316.71 140.389L316.327 138.96L318.911 138.268L317.086 131.455L314.501 132.147L314.124 130.738L318.201 129.414L318.496 129.576L320.697 137.789L323.281 137.097L323.664 138.525L316.71 140.389ZM316.62 127.5C315.84 127.709 315.181 127.393 314.98 126.641C314.778 125.889 315.193 125.294 315.973 125.085C316.744 124.879 317.4 125.186 317.602 125.938C317.803 126.69 317.391 127.294 316.62 127.5ZM348.237 138.085L336.396 141.258L330.076 117.671L341.916 114.498L348.237 138.085Z" fill="#9077F3"/>
</svg>
