<svg width="726" height="273" viewBox="0 0 726 273" fill="none" xmlns="http://www.w3.org/2000/svg"><style>path,line,circle,rect,polygon,polyline,ellipse{vector-effect:non-scaling-stroke}</style>
<path d="M-40.9862 112.612L330.03 212.026C342.263 215.304 354.836 208.055 358.11 195.837L446.296 -133.277" stroke="#DEDBFF" stroke-miterlimit="10"/>
<path d="M-24.9117 141.087L346.104 240.5C358.337 243.778 370.911 236.529 374.185 224.311L462.37 -104.802" stroke="#DEDBFF" stroke-miterlimit="10"/>
<path d="M-43.0234 90.7261L315.735 186.855C325.182 189.386 334.912 183.777 337.44 174.342L421.695 -140.102" stroke="#DEDBFF" stroke-miterlimit="10"/>
<path d="M-42.4889 71.5298L303.989 164.368C310.673 166.159 317.528 162.207 319.317 155.532L400.083 -145.892" stroke="#DEDBFF" stroke-miterlimit="10"/>
<path d="M-41.9473 52.3105L292.274 141.865C296.171 142.909 300.182 140.596 301.225 136.704L379.803 -156.554" stroke="#DEDBFF" stroke-miterlimit="10"/>
<path d="M299.205 89.0571C299.777 86.9232 301.97 85.6569 304.104 86.2286L313.578 88.7671C315.712 89.3389 316.978 91.5322 316.406 93.6661L307.448 127.098C306.876 129.232 304.683 130.499 302.549 129.927L293.075 127.388C290.941 126.817 289.675 124.623 290.247 122.489L299.205 89.0571Z" fill="#DEDBFF"/>
<path d="M331.603 61.5234C332.175 59.3895 334.368 58.1232 336.502 58.6949L345.976 61.2334C348.11 61.8052 349.376 63.9985 348.804 66.1324L330.793 133.353C330.221 135.487 328.028 136.753 325.894 136.181L316.42 133.643C314.286 133.071 313.02 130.878 313.592 128.744L331.603 61.5234Z" fill="#9077F3"/>
<path d="M341.45 118.152C342.021 116.018 344.215 114.752 346.349 115.324L355.822 117.862C357.956 118.434 359.222 120.627 358.651 122.761L354.137 139.607C353.565 141.741 351.372 143.007 349.238 142.435L339.764 139.897C337.63 139.325 336.364 137.132 336.936 134.998L341.45 118.152Z" fill="#DEDBFF"/>
<path d="M374.012 90.0063C374.583 87.8724 376.777 86.6061 378.911 87.1779L388.384 89.7163C390.518 90.2881 391.785 92.4814 391.213 94.6153L377.481 145.863C376.909 147.997 374.716 149.263 372.582 148.692L363.108 146.153C360.974 145.581 359.708 143.388 360.28 141.254L374.012 90.0063Z" fill="#9077F3"/>
<path d="M410.689 46.5014C411.261 44.3675 413.454 43.1012 415.588 43.673L425.062 46.2114C427.196 46.7832 428.462 48.9766 427.89 51.1104L400.825 152.119C400.254 154.252 398.06 155.519 395.926 154.947L386.453 152.409C384.319 151.837 383.052 149.643 383.624 147.51L410.689 46.5014Z" fill="#5A30C5"/>
</svg>
