<svg width="726" height="241" viewBox="0 0 726 241" fill="none" xmlns="http://www.w3.org/2000/svg"><style>path,line,circle,rect,polygon,polyline,ellipse{vector-effect:non-scaling-stroke}</style>
<path fill-rule="evenodd" clip-rule="evenodd" d="M281.057 79.5358C280.15 72.598 284.229 65.9723 294.294 60.1614C307.03 52.8082 321.358 51.3085 333.256 52.6631L334.429 51.9858V100.078L333.256 100.755C321.358 99.4007 307.03 100.9 294.294 108.254C284.229 114.064 280.15 120.69 281.057 127.628V79.5358Z" stroke="#DEDBFF" stroke-linejoin="bevel"/>
<path fill-rule="evenodd" clip-rule="evenodd" d="M334.429 51.9859L283.485 22.5734V70.6656L334.429 100.078V51.9859Z" stroke="#DEDBFF" stroke-linejoin="bevel"/>
<path fill-rule="evenodd" clip-rule="evenodd" d="M283.485 22.5736L304.851 10.2377L433.05 84.2529V132.345L304.851 58.3299L283.485 70.6658V22.5736Z" stroke="#DEDBFF" stroke-linejoin="bevel"/>
<path fill-rule="evenodd" clip-rule="evenodd" d="M433.05 84.2527L414.448 94.9922L402.215 89.3805L399.617 90.8803V138.972L402.215 137.473L414.448 143.084L433.05 132.345V84.2527Z" stroke="#DEDBFF" stroke-linejoin="bevel"/>
<path fill-rule="evenodd" clip-rule="evenodd" d="M399.617 90.8801C399.859 92.0566 399.997 93.2579 400.007 94.4758V142.568C399.997 141.35 399.859 140.149 399.617 138.972V90.8801Z" stroke="#DEDBFF" stroke-linejoin="bevel"/>
<path fill-rule="evenodd" clip-rule="evenodd" d="M400.007 94.4756C400.062 100.87 396.588 107.722 385.96 113.858C363.42 126.872 333.675 122.082 306.695 106.505C291.445 97.7008 282.213 88.3654 281.058 79.5355V127.628C282.213 136.458 291.445 145.793 306.695 154.597C333.675 170.174 363.42 174.964 385.96 161.951C396.588 155.815 400.062 148.962 400.007 142.568V94.4756Z" stroke="#DEDBFF" stroke-linejoin="bevel"/>
<path fill-rule="evenodd" clip-rule="evenodd" d="M390.149 84.1563L344.987 58.0815C334.932 59.049 327.223 61.5646 321.19 65.0477C315.526 68.3179 312.396 71.7971 311.933 75.5193V123.612C312.396 119.889 315.526 116.41 321.19 113.14C327.223 109.657 334.932 107.141 344.987 106.174L390.149 132.248V84.1563Z" stroke="#DEDBFF" stroke-linejoin="bevel"/>
<path fill-rule="evenodd" clip-rule="evenodd" d="M311.933 75.5193C311.24 81.1026 316.549 87.2328 328.313 94.0248C347.752 105.248 363.672 106.216 378 97.9433C384.2 94.3636 388.557 89.9129 390.149 84.1562V132.248C388.557 138.005 384.2 142.456 378 146.036C363.672 154.308 347.752 153.34 328.313 142.117C316.549 135.325 311.24 129.195 311.933 123.611V75.5193Z" stroke="#DEDBFF" stroke-linejoin="bevel"/>
<path fill-rule="evenodd" clip-rule="evenodd" d="M511.632 27.4727C511.747 36.77 504.223 45.4829 491.806 52.6522C467.926 66.4394 434.159 69.7773 402.319 51.3944C386.995 42.5474 380.205 33.3661 379.927 24.6849V72.7771C380.205 81.4583 386.995 90.6396 402.319 99.4866C434.159 117.87 467.926 114.532 491.806 100.744C504.223 93.5751 511.747 84.8622 511.632 75.5649V27.4727Z" stroke="#DEDBFF" stroke-linejoin="bevel"/>
<path fill-rule="evenodd" clip-rule="evenodd" d="M379.927 24.6846C379.626 15.28 386.968 6.46253 399.386 -0.706808C423.266 -14.4939 457.703 -17.4448 489.627 0.986398C504.91 9.81018 511.526 18.8903 511.632 27.4724V75.5646C511.526 66.9825 504.91 57.9024 489.627 49.0786C457.703 30.6474 423.266 33.5983 399.386 47.3854C386.968 54.5547 379.626 63.3722 379.927 72.7768V24.6846Z" stroke="#DEDBFF" stroke-linejoin="bevel"/>
<path fill-rule="evenodd" clip-rule="evenodd" d="M406.997 20.2588C406.803 25.6833 411.793 31.9022 423.852 38.8645C445.386 51.2971 462.228 50.378 475.048 42.9765C480.689 39.7198 484.156 36.0136 484.436 31.8248V79.917C484.156 84.1058 480.689 87.812 475.048 91.0687C462.228 98.4702 445.386 99.3893 423.852 86.9567C411.793 79.9944 406.803 73.7755 406.997 68.351V20.2588Z" stroke="#DEDBFF" stroke-linejoin="bevel"/>
<path fill-rule="evenodd" clip-rule="evenodd" d="M484.435 31.8254C484.792 26.4943 479.985 20.3815 467.926 13.4192C446.392 0.98666 428.964 1.56725 416.144 8.96876C410.503 12.2254 407.15 15.9972 406.997 20.2594V68.3516C407.15 64.0894 410.503 60.3176 416.144 57.061C428.964 49.6595 446.392 49.0789 467.926 61.5114C479.985 68.4737 484.792 74.5865 484.435 79.9176V31.8254Z" stroke="#DEDBFF" stroke-linejoin="bevel"/>
<path d="M307.195 106.795C279.964 91.0725 271.92 73.6571 294.794 60.4505C307.53 53.0974 321.858 51.5977 333.757 52.9522L334.93 52.275L283.986 22.8624L305.352 10.5265L433.55 84.5417L414.949 95.2812L402.715 89.6696L400.118 91.1692C401.626 98.5224 399.112 106.843 386.46 114.148C363.921 127.161 334.176 122.372 307.195 106.795ZM328.813 94.3137C348.252 105.537 364.172 106.504 378.5 98.2321C384.701 94.6523 389.058 90.2017 390.65 84.445L345.487 58.3703C335.432 59.3379 327.724 61.8534 321.691 65.3365C307.53 73.512 309.206 82.9937 328.813 94.3137ZM490.128 1.27539C521.968 19.6582 516.186 39.1537 492.306 52.9409C468.426 66.728 434.659 70.066 402.819 51.6831C370.895 33.2519 376.006 13.3694 399.886 -0.417766C423.766 -14.2049 458.204 -17.1558 490.128 1.27539ZM468.426 13.708C446.892 1.27539 429.464 1.8559 416.644 9.25742C403.824 16.6589 402.819 26.7211 424.353 39.1537C445.887 51.5864 462.728 50.6672 475.548 43.2657C488.368 35.8642 489.96 26.1406 468.426 13.708Z" fill="#5A30C5"/>
<g clip-path="url(#clip0_201_7273)">
<path d="M-15.0001 233.232L357.727 233.232C366.47 233.232 373.559 226.152 373.559 217.42L373.559 100.047" stroke="#DEDBFF" stroke-miterlimit="10"/>
<path d="M-15 220.319L348.951 220.319C355.702 220.319 361.187 214.841 361.187 208.098L361.187 169.466" stroke="#DEDBFF" stroke-miterlimit="10"/>
<path d="M-15.0001 207.424L340.191 207.424C344.968 207.424 348.833 203.564 348.833 198.794L348.833 168.885" stroke="#DEDBFF" stroke-miterlimit="10"/>
<path d="M-15 194.512L331.415 194.512C334.2 194.512 336.461 192.253 336.461 189.472L336.461 100.03" stroke="#DEDBFF" stroke-miterlimit="10"/>
</g>
<defs>
<clipPath id="clip0_201_7273">
<rect width="392.792" height="74.3747" fill="white" transform="translate(-15 166.27)"/>
</clipPath>
</defs>
</svg>
