<svg width="600" height="497" viewBox="0 0 600 497" fill="none" xmlns="http://www.w3.org/2000/svg"><style>path,line,circle,rect,polygon,polyline,ellipse{vector-effect:non-scaling-stroke}</style>
<g clip-path="url(#clip0_201_7269)">
<path d="M279 232.089L539.663 232.089C550.073 232.089 560.053 227.95 567.417 220.597L792 -3.94205" stroke="#DEDBFF" stroke-miterlimit="10"/>
<path d="M279 213.403L535.206 213.403C543.682 213.403 551.812 210.04 557.802 204.042L784.515 -22.6276" stroke="#DEDBFF" stroke-miterlimit="10"/>
<path d="M276 194.717L530.758 194.717C537.299 194.717 543.579 192.12 548.204 187.495L777.058 -41.3139" stroke="#DEDBFF" stroke-miterlimit="10"/>
<path d="M247 176.031L526.3 176.031C530.907 176.031 535.327 174.2 538.588 170.939L769.573 -59.9999" stroke="#DEDBFF" stroke-miterlimit="10"/>
<path d="M278.001 254L532.664 254C543.074 254 553.054 258.139 560.418 265.492L785.001 490.031" stroke="#DEDBFF" stroke-miterlimit="10"/>
<path d="M279.001 272.686C617.93 272.686 189.277 272.686 528.206 272.686C536.682 272.686 544.812 276.049 550.802 282.047L777.516 508.717" stroke="#DEDBFF" stroke-miterlimit="10"/>
<path d="M275.001 291.372L523.758 291.372C530.3 291.372 536.579 293.969 541.205 298.594L770.059 527.403" stroke="#DEDBFF" stroke-miterlimit="10"/>
<path d="M244 310.058L519.3 310.058C523.907 310.058 528.327 311.889 531.589 315.15L762.573 546.089" stroke="#DEDBFF" stroke-miterlimit="10"/>
</g>
<path d="M246.9 374.823L221.8 360.348C221.404 360.12 220.955 360 220.497 360C220.04 360 219.59 360.12 219.194 360.348L194.097 374.823C193.764 375.015 193.487 375.291 193.295 375.624C193.102 375.957 193 376.334 193 376.718V405.901C193 406.286 193.102 406.663 193.295 406.996C193.487 407.328 193.764 407.605 194.097 407.797L219.197 422.271C219.593 422.5 220.042 422.62 220.5 422.62C220.958 422.62 221.407 422.5 221.803 422.271L246.903 407.8C247.236 407.608 247.513 407.331 247.705 406.999C247.898 406.666 248 406.289 248 405.904V376.715C248 376.331 247.898 375.954 247.705 375.621C247.513 375.288 247.236 375.012 246.903 374.82L246.9 374.823ZM245.325 377.888L221.095 419.804C220.931 420.086 220.499 419.97 220.499 419.641V392.197C220.498 391.927 220.427 391.661 220.292 391.427C220.156 391.193 219.962 390.999 219.728 390.864L195.933 377.148C195.648 376.982 195.764 376.55 196.093 376.55H244.548C245.239 376.55 245.669 377.293 245.325 377.888Z" fill="#DEDBFF"/>
<g clip-path="url(#clip1_201_7269)">
<path fill-rule="evenodd" clip-rule="evenodd" d="M23.2473 277.295C26.0168 276.173 29.0315 275.768 32.0045 276.119C35.8369 276.552 39.2524 278.159 42.251 280.936C42.2914 280.973 42.3407 281 42.3943 281.015C42.448 281.029 42.5045 281.03 42.5587 281.018C46.6067 280.037 50.4994 280.383 54.234 282.055L54.4152 282.14L54.8579 282.355C58.7593 284.347 61.5567 287.37 63.2472 291.416C64.0464 293.34 64.4489 295.349 64.4575 297.44C64.5139 298.997 64.3396 300.553 63.94 302.061C63.9203 302.138 63.9206 302.218 63.9407 302.295C63.9608 302.372 64.0001 302.442 64.055 302.5C66.3152 304.758 67.8871 307.596 68.5918 310.691C69.6987 316.077 68.563 320.934 65.1907 325.255L64.6674 325.878C62.434 328.398 59.5022 330.221 56.2322 331.122C56.1608 331.143 56.0953 331.179 56.0413 331.23C55.9873 331.28 55.9463 331.342 55.9217 331.411C55.1885 333.497 54.4525 335.276 53.084 337.055C49.6369 341.538 44.5683 344.031 38.8585 344C34.3074 343.977 30.2738 342.337 26.7548 339.081C26.7015 339.033 26.6363 338.999 26.5657 338.983C26.4951 338.967 26.4216 338.97 26.3523 338.991C24.863 339.464 23.3623 339.532 21.7408 339.515C19.1503 339.494 16.5987 338.891 14.2802 337.752C11.8534 336.566 9.7408 334.838 8.11041 332.706C7.52678 331.944 6.94891 331.227 6.52628 330.38C5.9434 329.212 5.46715 327.996 5.10316 326.745C4.33892 323.902 4.3221 320.914 5.05428 318.064C5.07795 317.996 5.08582 317.925 5.07728 317.854C5.06304 317.784 5.02565 317.72 4.97091 317.673C3.1987 315.906 1.84398 313.776 1.00341 311.434C0.446881 309.992 0.123813 308.472 0.0460312 306.931C-0.093002 304.902 0.0893483 302.864 0.586531 300.891C1.88028 296.686 4.34991 293.388 7.99541 290.994C8.80616 290.461 9.57666 290.048 10.3012 289.753C11.1234 289.413 11.9485 289.13 12.7765 288.892C12.8358 288.874 12.8897 288.843 12.9333 288.8C12.977 288.757 13.0091 288.703 13.0267 288.645C13.6545 286.421 14.7344 284.345 16.2007 282.545C18.1557 280.148 20.5045 278.397 23.2473 277.295ZM20.9358 299.536C20.6148 298.983 20.0838 298.578 19.4597 298.41C18.8356 298.243 18.1695 298.326 17.608 298.642C17.0464 298.959 16.6353 299.482 16.4652 300.097C16.2951 300.712 16.3799 301.369 16.7009 301.922L21.5712 310.323L16.7182 318.392C16.4206 318.939 16.349 319.578 16.5182 320.176C16.6874 320.773 17.0843 321.283 17.6261 321.599C18.1679 321.915 18.8127 322.013 19.4257 321.871C20.0387 321.73 20.5725 321.36 20.9157 320.84L26.4932 311.57C26.7131 311.204 26.8309 310.787 26.8344 310.362C26.8379 309.937 26.7271 309.519 26.5133 309.15L20.9358 299.536ZM36.593 317.216C35.9719 317.253 35.3883 317.522 34.9616 317.968C34.5348 318.414 34.2972 319.004 34.2972 319.618C34.2972 320.231 34.5348 320.821 34.9616 321.267C35.3883 321.714 35.9719 321.982 36.593 322.019H50.531C51.1572 321.989 51.7476 321.723 52.1799 321.275C52.6123 320.828 52.8535 320.234 52.8535 319.616C52.8535 318.998 52.6123 318.404 52.1799 317.957C51.7476 317.51 51.1572 317.244 50.531 317.214H36.593V317.216Z" fill="#DEDBFF"/>
</g>
<path d="M139.2 354.293C131.401 354.271 106.369 354.194 98.2984 354.171C96.862 354.166 95.6864 355.24 95.7048 356.655C95.7616 361.04 96.8408 369.664 104.464 369.531C116.93 369.313 113.706 360.512 118.401 360.54H119.891C125.293 360.679 121.547 369.564 133.744 369.396C141.719 369.287 142.086 360.754 141.784 356.566C141.689 355.245 140.544 354.296 139.2 354.293Z" fill="#DEDBFF"/>
<path d="M140.375 370.825C141.343 370.141 142.69 370.359 143.384 371.312C144.914 373.416 147.32 376.954 147.014 381.091C146.862 383.144 145.533 385.171 143.776 386.486C141.946 387.855 139.377 388.663 136.579 387.856C135.897 387.659 134.977 387.441 133.898 387.21L133.517 387.621C130.217 391.169 124.442 394.411 118.888 394.322C114.563 394.253 108.967 392.625 104.875 388.265L104.439 387.8C103.482 388.031 102.557 388.253 101.666 388.443L101.636 388.449L101.609 388.456C100.014 388.752 94.8349 389.378 91.9437 384.479C90.4463 381.942 90.9393 379.148 91.7606 377C92.596 374.816 93.9472 372.825 94.8686 371.534C95.5537 370.574 96.8994 370.344 97.8734 371.02C98.8469 371.695 99.0804 373.019 98.3957 373.979C97.5018 375.231 96.4273 376.851 95.7972 378.499C95.1533 380.182 95.1407 381.443 95.6709 382.342C97.0389 384.66 99.434 384.531 100.8 384.278C105.24 383.324 112.114 381.15 119.533 381.217C125.777 381.217 134.332 382.781 137.789 383.778C139.042 384.139 140.217 383.812 141.167 383.102C142.189 382.337 142.673 381.339 142.715 380.781C142.895 378.337 141.447 375.946 139.878 373.788C139.185 372.834 139.408 371.508 140.375 370.825ZM119.512 385.467C115.914 385.433 112.53 385.97 109.402 386.64C112.357 389.042 116.011 390.027 118.96 390.074C122.244 390.126 125.967 388.469 128.693 386.27C125.638 385.812 122.309 385.467 119.533 385.467H119.512ZM114.102 371.983C114.798 371.03 116.144 370.812 117.111 371.497C118.078 372.182 118.297 373.512 117.602 374.465L116.187 376.403C115.491 377.355 114.144 377.571 113.178 376.886C112.211 376.201 111.992 374.874 112.687 373.921L114.102 371.983ZM120.544 371.497C121.51 370.812 122.857 371.03 123.553 371.983L124.968 373.921C125.663 374.873 125.443 376.201 124.477 376.886C123.51 377.572 122.161 377.355 121.466 376.403L120.051 374.465C119.355 373.512 119.577 372.182 120.544 371.497ZM139.206 352.167C141.554 352.173 143.752 353.865 143.936 356.417C144.093 358.6 144.106 362.163 142.879 365.28C142.253 366.869 141.268 368.435 139.729 369.613C138.167 370.808 136.181 371.489 133.774 371.522C130.47 371.567 128.007 371.003 126.128 369.951C124.223 368.884 123.136 367.433 122.39 366.124C122.034 365.499 121.731 364.858 121.493 364.377C121.235 363.854 121.044 363.495 120.849 363.219C120.667 362.961 120.534 362.852 120.438 362.796C120.376 362.76 120.268 362.709 120.068 362.682L119.834 362.665H118.387C118.173 362.664 118.117 362.704 118.111 362.709C118.079 362.728 117.975 362.806 117.796 363.074C117.606 363.356 117.418 363.718 117.149 364.255C116.899 364.755 116.587 365.387 116.202 366.027C115.405 367.35 114.251 368.786 112.308 369.876C110.389 370.954 107.872 371.596 104.502 371.655C102.152 371.696 100.182 371.054 98.602 369.899C97.0517 368.766 95.9995 367.231 95.2813 365.662C93.8664 362.57 93.5779 358.963 93.5483 356.682C93.5134 353.975 95.7743 352.039 98.3051 352.046C106.377 352.07 131.408 352.145 139.206 352.167ZM98.2925 356.296C98.1256 356.296 98.0104 356.355 97.9471 356.414C97.8911 356.467 97.8595 356.531 97.8608 356.628C97.8881 358.733 98.1679 361.631 99.2127 363.914C99.7242 365.032 100.376 365.902 101.173 366.485C101.941 367.046 102.966 367.432 104.426 367.407C107.289 367.357 109.044 366.816 110.173 366.182C111.278 365.562 111.951 364.759 112.493 363.858C112.777 363.386 113.013 362.91 113.281 362.374C113.531 361.876 113.834 361.273 114.197 360.731C114.57 360.174 115.082 359.567 115.82 359.11C116.585 358.638 117.454 358.411 118.402 358.415H119.948C120.941 358.441 121.842 358.676 122.637 359.139C123.417 359.595 123.974 360.202 124.391 360.793C124.795 361.366 125.113 361.992 125.372 362.518C125.652 363.085 125.874 363.56 126.149 364.043C126.666 364.951 127.268 365.7 128.259 366.255C129.277 366.825 130.919 367.31 133.713 367.272C135.292 367.25 136.344 366.821 137.084 366.255C137.847 365.671 138.431 364.823 138.857 363.742C139.732 361.519 139.778 358.722 139.634 356.717C139.629 356.643 139.6 356.585 139.539 356.533C139.471 356.474 139.353 356.417 139.194 356.417C131.395 356.395 106.363 356.32 98.2925 356.296ZM118.787 338.389C125.616 338.482 130.105 340.725 132.908 343.081C134.294 344.246 135.239 345.414 135.846 346.31C136.149 346.758 136.37 347.14 136.52 347.423C136.594 347.563 136.651 347.679 136.692 347.767C136.713 347.811 136.73 347.848 136.743 347.877C136.749 347.892 136.755 347.906 136.76 347.917C136.762 347.922 136.764 347.927 136.766 347.931C136.767 347.933 136.767 347.936 136.768 347.937L136.77 347.939C136.771 347.941 136.754 347.95 134.982 348.67L136.77 347.939C137.224 349.024 136.7 350.268 135.599 350.716C134.567 351.135 133.396 350.708 132.879 349.759L132.788 349.571C132.789 349.573 132.79 349.575 132.79 349.577L132.78 349.556C132.766 349.526 132.738 349.468 132.696 349.388C132.611 349.229 132.469 348.98 132.26 348.67C131.839 348.048 131.149 347.188 130.11 346.315C128.065 344.595 124.543 342.718 118.728 342.639C112.968 342.561 109.483 344.48 107.448 346.281C106.411 347.199 105.719 348.117 105.292 348.79C105.079 349.126 104.935 349.398 104.848 349.575C104.804 349.663 104.775 349.726 104.759 349.761C104.751 349.779 104.748 349.79 104.746 349.793L104.751 349.782C104.751 349.782 104.751 349.779 104.749 349.778C104.322 350.872 103.078 351.42 101.967 351C100.855 350.58 100.298 349.351 100.725 348.255L102.634 348.977C100.843 348.3 100.733 348.257 100.727 348.253L100.729 348.244C100.73 348.24 100.733 348.235 100.735 348.23C100.739 348.219 100.746 348.205 100.752 348.19C100.764 348.161 100.78 348.122 100.8 348.076C100.841 347.985 100.895 347.862 100.969 347.713C101.116 347.416 101.333 347.011 101.634 346.537C102.236 345.589 103.178 344.349 104.565 343.121C107.379 340.629 111.905 338.296 118.787 338.389Z" fill="#DEDBFF"/>
<path fill-rule="evenodd" clip-rule="evenodd" d="M154.868 109.953H165V120.422H154.875V130.642H149.856V140.5H144.75V130.642H139.731V140.5H134.625V130.642H114.375V140.5H109.272V130.642H104.25V140.5H99.1436V130.642H94.125V120.419H84V109.956H94.125V89.875H154.868V109.953ZM104.25 109.953H109.272V100.344H104.25V109.953ZM139.721 109.953H144.75V100.344H139.721V109.953Z" fill="#DEDBFF"/>
<g clip-path="url(#clip2_201_7269)">
<path d="M224.152 114.23L236.366 107.41L236.552 106.79L236.366 106.48H235.746L233.7 106.356L226.756 106.17L220.68 105.86L214.79 105.55L213.302 105.24L212 103.38L212.124 102.45L213.364 101.644L215.162 101.768L219.068 102.078L224.958 102.45L229.236 102.698L235.56 103.442H236.552L236.676 103.008L236.366 102.76L236.118 102.512L229.98 98.42L223.408 94.08L219.936 91.538L218.076 90.298L217.146 89.058L216.774 86.454L218.448 84.594L220.742 84.78L221.3 84.904L223.594 86.702L228.554 90.484L234.94 95.32L235.87 96.064L236.242 95.816L236.304 95.63L235.87 94.948L232.46 88.5L228.74 82.052L227.066 79.386L226.632 77.774C226.446 77.154 226.384 76.534 226.384 75.914L228.244 73.31L229.36 73L231.964 73.372L232.956 74.24L234.568 77.96L237.11 83.726L241.14 91.538L242.38 93.894L243 96.002L243.186 96.622H243.62V96.312L243.93 91.848L244.55 86.454L245.17 79.51L245.356 77.526L246.348 75.17L248.208 73.93L249.82 74.612L251.06 76.41L250.874 77.526L250.192 82.3L248.58 89.802L247.65 94.886H248.208L248.828 94.204L251.37 90.856L255.648 85.524L257.508 83.354L259.74 81.06L261.166 79.944H263.832L265.754 82.858L264.886 85.896L262.158 89.368L259.864 92.282L256.578 96.684L254.594 100.218L254.78 100.466H255.214L262.654 98.854L266.622 98.172L271.334 97.366L273.504 98.358L273.752 99.35L272.884 101.458L267.8 102.698L261.848 103.938L252.982 105.984L252.858 106.046L252.982 106.232L256.95 106.604L258.686 106.728H262.902L270.714 107.348L272.76 108.588L273.938 110.262L273.752 111.502L270.59 113.114L266.374 112.122L256.454 109.766L253.106 108.96H252.61V109.208L255.462 111.998L260.608 116.648L267.18 122.662L267.49 124.15L266.684 125.39L265.816 125.266L260.112 120.926L257.88 119.066L252.92 114.85H252.61V115.284L253.726 116.958L259.802 126.072L260.112 128.862L259.678 129.73L258.066 130.35L256.392 129.978L252.796 125.018L249.076 119.438L246.162 114.354L245.852 114.602L244.054 133.326L243.248 134.256L241.388 135L239.838 133.76L238.97 131.9L239.838 128.056L240.83 123.096L241.636 119.128L242.38 114.23L242.814 112.618V112.494H242.38L238.66 117.64L233.08 125.266L228.616 129.978L227.562 130.412L225.702 129.482L225.888 127.746L226.88 126.32L233.08 118.384L236.8 113.486L239.28 110.634L239.218 110.324H239.032L222.664 120.988L219.75 121.36L218.51 120.12L218.634 118.26L219.254 117.64L224.214 114.23H224.152Z" fill="#DEDBFF"/>
</g>
<g clip-path="url(#clip3_201_7269)">
<mask id="mask0_201_7269" style="mask-type:luminance" maskUnits="userSpaceOnUse" x="17" y="167" width="52" height="65">
<path d="M69 167H17V232H69V167Z" fill="white"/>
</mask>
<g mask="url(#mask0_201_7269)">
<mask id="mask1_201_7269" style="mask-type:luminance" maskUnits="userSpaceOnUse" x="17" y="167" width="52" height="65">
<path d="M69 167H17V232H69V167Z" fill="white"/>
</mask>
<g mask="url(#mask1_201_7269)">
<path opacity="0.25" d="M56 219H30V193H56V219Z" fill="#DEDBFF"/>
<path d="M56 180H30V219H56V180ZM69 232H17V167H69V232Z" fill="#DEDBFF"/>
</g>
</g>
</g>
<path d="M189.25 150.186C193.117 147.953 197.883 147.953 201.75 150.186L272.321 190.931C276.189 193.164 278.571 197.29 278.571 201.756V283.244C278.571 287.71 276.189 291.836 272.321 294.069L201.75 334.814C197.883 337.047 193.117 337.047 189.25 334.814L118.679 294.069C114.811 291.836 112.429 287.71 112.429 283.244V201.756C112.429 197.29 114.811 193.164 118.679 190.931L189.25 150.186Z" stroke="#DEDBFF"/>
<path d="M188.75 164.186C192.617 161.953 197.383 161.953 201.25 164.186L260.13 198.181C263.997 200.414 266.38 204.54 266.38 209.006V276.994C266.38 281.46 263.997 285.586 260.13 287.819L201.25 321.814C197.383 324.047 192.617 324.047 188.75 321.814L129.87 287.819C126.003 285.586 123.62 281.46 123.62 276.994V209.006C123.62 204.54 126.003 200.414 129.87 198.181L188.75 164.186Z" stroke="#DEDBFF"/>
<path fill-rule="evenodd" clip-rule="evenodd" d="M173.553 268.688C177.723 266.287 184.475 270.169 188.635 277.359C192.796 284.55 192.79 292.326 188.621 294.729C184.452 297.13 177.699 293.248 173.538 286.058C169.377 278.867 169.384 271.091 173.553 268.688ZM201.849 277.352C206.01 270.158 212.762 266.274 216.931 268.677C221.101 271.08 221.108 278.86 216.947 286.054C212.786 293.247 206.034 297.131 201.865 294.729C197.696 292.326 197.689 284.545 201.849 277.352ZM230.256 260.98C234.416 253.787 241.168 249.903 245.338 252.306C249.507 254.709 249.514 262.489 245.353 269.683C241.193 276.876 234.44 280.76 230.271 278.357C226.102 275.954 226.095 268.174 230.256 260.98ZM145.141 252.298C149.311 249.896 156.063 253.779 160.223 260.969C164.384 268.159 164.377 275.936 160.208 278.338C156.038 280.739 149.286 276.857 145.126 269.667C140.965 262.476 140.972 254.7 145.141 252.298ZM173.544 235.924C177.713 233.522 184.466 237.403 188.627 244.594C192.787 251.784 192.78 259.561 188.611 261.963C184.442 264.365 177.689 260.483 173.528 253.292C169.368 246.102 169.375 238.326 173.544 235.924ZM201.834 244.578C205.994 237.384 212.747 233.501 216.916 235.903C221.085 238.306 221.092 246.086 216.931 253.28C212.771 260.474 206.018 264.358 201.848 261.955C197.68 259.552 197.673 251.772 201.834 244.578ZM230.239 228.207C234.4 221.013 241.153 217.129 245.322 219.532C249.491 221.935 249.497 229.715 245.337 236.909C241.176 244.103 234.424 247.987 230.255 245.584C226.085 243.181 226.078 235.401 230.239 228.207ZM145.132 219.532C149.301 217.13 156.054 221.013 160.215 228.203C164.375 235.394 164.368 243.17 160.199 245.572C156.03 247.974 149.277 244.092 145.116 236.901C140.955 229.711 140.962 221.934 145.132 219.532ZM195.217 215.811C203.498 215.811 210.212 219.715 210.212 224.53C210.212 229.346 203.498 233.25 195.217 233.25C186.935 233.25 180.221 229.346 180.221 224.53C180.221 219.715 186.935 215.811 195.217 215.811ZM166.946 199.387C175.228 199.387 181.941 203.291 181.941 208.106C181.941 212.922 175.228 216.826 166.946 216.826C158.665 216.826 151.951 212.922 151.951 208.106C151.951 203.291 158.665 199.387 166.946 199.387ZM223.524 199.387C231.806 199.387 238.519 203.291 238.519 208.106C238.519 212.922 231.806 216.826 223.524 216.826C215.243 216.826 208.529 212.922 208.529 208.106C208.529 203.291 215.243 199.387 223.524 199.387ZM195.217 183C203.498 183 210.212 186.904 210.212 191.72C210.212 196.535 203.498 200.439 195.217 200.439C186.935 200.439 180.222 196.535 180.221 191.72C180.221 186.904 186.935 183 195.217 183Z" fill="#DEDBFF"/>
<defs>
<clipPath id="clip0_201_7269">
<rect width="423" height="630" fill="white" transform="matrix(-1 0 0 1 664 -82)"/>
</clipPath>
<clipPath id="clip1_201_7269">
<rect width="69" height="68" fill="white" transform="translate(0 276)"/>
</clipPath>
<clipPath id="clip2_201_7269">
<rect width="62" height="62" fill="white" transform="translate(212 73)"/>
</clipPath>
<clipPath id="clip3_201_7269">
<rect width="52" height="65" fill="white" transform="translate(17 167)"/>
</clipPath>
</defs>
</svg>
